<svg version="1" xmlns="http://www.w3.org/2000/svg" width="666.667" height="1170.667" viewBox="0 0 500 878"><path d="M238 14c-12.9.4-15.5.8-15.5 2 0 1.1 1.4 1.6 5.2 1.8 2.8.2 5.6.8 6.1 1.5.6.7 1.2 6 1.4 11.9.3 11.8 0 12.4-6.1 11.2-3.2-.7-7.9 2.6-6.7 4.5.6 1 3.7 1.1 13 .5 16.5-1 44.8-.6 48 .6 1.6.6 2.6.6 2.6 0 0-.5 1.6-1.2 3.5-1.6 2-.4 3.5-1.2 3.5-2 0-1.9-1.3-2.3-9.1-3.2-3.5-.4-6.4-1.2-6.3-1.7 0-.6-1-1.8-2.3-2.8-1.3-1-2.8-2.7-3.4-3.8-1.1-2.2-.3-6.2 1.2-5.4.5.4.9-.2.9-1.1 0-.9 1.1-3.2 2.6-5.1 2.3-3 3-3.3 7.8-3.3 3.9 0 5.7-.5 7-1.9 1-1 1.4-2.1.9-2.4-1-.6-31.7-.4-54.3.3zm30.5 4.6c1.4.6 1.4.8-.1 2.5-1.6 1.8-1.8 1.8-3.6.3-1-1-1.8-2.1-1.8-2.6 0-.9 3.1-1.1 5.5-.2zm-11 5.9c3.4 4.9 3.6 5.8 2.6 8.3-2.1 4.9-6.9 9.2-10.4 9.2-1.8 0-3.7-.4-4.3-.8-1.1-.7-2.6-20.7-1.6-21.7.3-.3 2.6-.5 5.2-.5 4.5 0 4.8.2 8.5 5.5zm9.5 15.1c0 .8-.9 1.4-2 1.4-2.2 0-2.6-1-.8-2.8 1.3-1.3 2.8-.7 2.8 1.4zM248.5 56.4c-5 2-6.4 2.2-8.5 1.2-4.4-2.1-10-1.2-14.9 2.6-1.3 1-4.8 2.5-7.7 3.4-2.9.8-7.2 3-9.6 4.9-2.4 1.9-4.8 3.5-5.5 3.5-.6 0-2.1 1.2-3.3 2.7-1.6 2.1-2.9 2.7-5.2 2.4-1.8-.1-3.7.4-4.9 1.5-2.3 2.1-3.2 1.4-4.7-4.2-1.5-5.1-4-7.4-8.9-8.1-6.1-.8-7.8 1.8-8 12.5-.1 4.7-.5 9.2-.8 10-.5 1.5 3 25.7 6.1 41.1 2.3 11.9 1.7 15.2-1.8 9.1-.9-1.7-2.4-3-3.3-3-.8 0-2-1.1-2.4-2.4-.7-1.6-2.3-2.7-5.3-3.6-3.7-1.2-5.1-2.5-10.7-10.2-3.6-4.8-7.5-9.5-8.8-10.3-1.3-.9-3.5-3.4-4.9-5.6-1.4-2.3-3.4-4.4-4.5-4.6-1.4-.4-1.8-1.1-1.4-2.4.4-1.3-.8-3.2-4.3-6.6-2.8-2.6-5.9-6.7-7.1-9.1-1.2-2.3-2.6-4.2-3.1-4.2-.6 0-2.8-1.2-4.9-2.6-3.3-2.1-4.9-2.5-9.8-2.3-3.2.2-6.7-.2-7.8-.8-4.7-2.5-10-4.4-18.2-6.4-8-1.9-9.5-2-16.3-.8-8.9 1.5-12.2 2.8-17.2 6.6-2.1 1.5-4.9 3.6-6.3 4.6-3.1 2.2-3.1 4.1-.1 10.1 1.3 2.7 2.7 5.9 3 7.2.4 1.3 1.1 2.4 1.7 2.4.5 0 2.5 1.6 4.2 3.5 1.8 1.9 4.8 4.3 6.7 5.3 1.8.9 3.5 2.2 3.7 2.9.2.6-1.2 2.7-3.2 4.6-3.1 3-3.6 4-3 6.5.5 2.6.3 3-2.7 4.1-7.7 2.7-18.4 8.8-19.3 10.9-.5 1.2-1.3 2.2-1.6 2.2-1.7 0-10.9 13.9-10.9 16.4 0 4.9 2.6 9.3 5.8 10.1 1.7.3 3.6 1.3 4.3 2.1.8 1 1.2 8.8 1.4 26.7.1 13.8.6 26 1 27 .9 2.1-1 6.3-3.2 7.2-2.7 1-3.3-.6-1.3-3.4 1-1.6 1.7-3.1 1.4-3.4-1.1-1.1-4.4.6-4.4 2.4 0 1-1.6 3-3.5 4.5-2 1.5-3.3 2.9-3 3.2.3.3 1.5-.4 2.8-1.6 3.1-2.9 3.7-2.8 3.7.8 0 3.7.8 3.8 3.5.3 3.5-4.3 6.4-.2 3 4.3-3.6 4.8-.1 11.7 7 13.5 12.9 3.2 15.9 3.3 31 1.5 16.1-2 19.8-2.9 24.2-6.5 3.9-3.1 5-6.7 2.8-9.1-1-1.1-1.9-4.4-2.2-7.8-.5-5.4-.3-6.1 1.6-7.1 2.4-1.3 2.8-3.1.6-3.1-1.6 0-2.1-1.8-2.9-10.3-.4-4.5-.1-5.9 1-6.4 1.3-.5 1.3-.8.1-2.2-1-1.1-1.5-4.4-1.6-10.1 0-4.7-.4-10.9-.7-13.8-.5-4.3-.4-5.2.9-5.2.9 0 3.2-1.4 5-3 1.9-1.7 4-3 4.6-3 1.4 0 1.4-3.4.1-8.2-.7-2.4-2.5-4.9-4.9-6.9-2.1-1.7-4.6-4.7-5.5-6.8-2.9-6.2-16.3-16.1-22.1-16.1-1 0-1-.7-.1-3.3.6-1.7 1.7-4.2 2.4-5.4.7-1.2 1.2-3.6 1.2-5.3 0-2.4.6-3.3 2.7-4.1 1.6-.6 3.8-.8 5-.6 1.3.2 3.1-.2 4-.9 3.6-2.7 7.1-1.2 3.8 1.6-1.9 1.6-1.9 7.4 0 9 .8.7 1.5 1.8 1.5 2.5 0 1.8 3.4 4.5 5.7 4.5 1.7 0 2.2 1.1 3.3 7.2.7 4 1.9 8.3 2.6 9.5.8 1.2 1.4 3.3 1.4 4.7 0 1.4.9 3.1 2 3.9 1 .7 2.3 3.1 2.8 5.3.5 2.2 1.6 5.3 2.5 6.9 4.2 7.9 4.8 9.9 3.7 12-1.1 2-.9 15.4.5 32.5.3 3.6.5 15.3.5 26 .1 20.2 1.2 28.3 4.5 31 1.4 1.1 1.7 1 2.2-.8.8-3.1 1.9-2.7 2.7.8.4 2.2 1.1 3 2.3 2.8 1.6-.3 1.8.4 1.5 5.2-.4 7.3.4 10 2.9 10 2.9 0 3.2 1.9 1.4 8.6-1 3.5-1.8 12.1-2.1 21.7-.7 18.8-.3 19.8 7.8 21.7 6.2 1.5 12.2 3.6 16 5.6 1.4.8 3.8 1.4 5.2 1.4 3.1 0 6.6-3.2 6.6-5.9 0-1.1.5-2.3 1-2.6 1.5-.9 1.2 10.1-.5 23-1.1 7.5-1.5 18.8-1.4 35.5 0 13.5.1 24.9 0 25.5 0 .5-.3 11.1-.7 23.5-1.1 38.1-1.3 34.5 1.9 34.8 3.2.4 5.1 3.5 6.1 10.1.9 5.6 2.2 8.1 4.5 8.1 1.5 0 1.8 1.1 1.9 8.7.3 13.1 2.2 38.4 3.2 41.6.5 1.5 1 13.2 1.1 26 .1 23.1 1.3 34.5 3.7 36.9.6.6 1.2 1.7 1.2 2.3 0 1.7 3.2 4.3 6.8 5.6 2.9 1 3.7.8 7.9-2 4.9-3.3 8.4-3.9 10.1-1.9.5.7 1.5 11.6 2.1 24.3.6 12.6 1.6 30.9 2.1 40.5.6 9.6 1.5 28.1 2 41 .5 12.9 1.5 31 2.1 40.1 1.6 23.6.8 26.4-6.9 22.6-1.5-.8-5.4-1.9-8.7-2.7-3.3-.7-6.8-1.7-7.8-2.2-2.1-1.1-7.8-6.2-14.7-13.2-4.2-4.2-5.2-4.8-7.7-4.1-3.4.8-6.3 3.3-6.3 5.3 0 2.6-4.2 8.6-9.6 13.6-4.1 3.7-6.3 4.9-9.1 5.2-7.2.5-10 1.4-12.3 3.9-1.3 1.4-2.8 2.5-3.4 2.5-.5 0-1.9.8-3 1.8-5.4 4.8-22.2 8.1-28.4 5.6-5.2-2.1-17.4-4.4-21-3.9-1.8.2-4.7 1.1-6.4 2-4.3 2.1-4.9 2-13.6-2.1-17.8-8.4-23.8-9.5-29.3-5.3-1.9 1.4-5.6 3.1-8.4 3.9-6.1 1.6-18.5 7.7-18.5 9 0 1.5 1.6 1.2 7.2-1.5 8.8-4.2 11.6-3 5.2 2.3-5 4.1-2.6 5.1 3.9 1.5 2.9-1.6 6-2.7 7-2.5 2.7.6 6.7-2.5 8.3-6.5 1.2-2.6 1.9-3.3 3.2-2.8.9.4 2.8 1.1 4.2 1.5 1.4.4 5.8 2.1 9.7 3.9 3.9 1.7 9.8 3.7 13.1 4.5 5.9 1.4 6.1 1.3 9.6-1.2l3.6-2.5 9.3 2.3c12.7 3.2 19.3 3.4 29.6 1 11.1-2.7 18.3-5.6 21.1-8.5 1.9-2.1 2.8-2.3 7.6-1.8l5.5.6 8.2-8.4c4.6-4.6 9.6-10.1 11.3-12.2l2.9-3.9 6.7 6.1c6.8 6.3 11.8 8.7 23.1 11.2 3.1.7 5.7 1.6 5.7 2 0 .7-5.3 3.9-14.1 8.5-3.6 1.9-5.7 4.4-6.1 7.4-.2 1.7-1.2 2.7-3.3 3.3-6.4 1.9-13.7 5.9-17.8 9.7-2.4 2.1-5.4 4.3-6.8 4.8-2.4.9-15.7 1-108.6 1.1L0 812V816.3l83.8-.6c46-.4 147.2-.9 224.7-1.2 77.6-.3 146.4-.8 153-1 6.6-.3 18-.5 25.3-.5 11.3 0 13.2-.2 13.2-1.6 0-1.4-3.5-1.5-31.2-1.3l-31.3.2-10.5-4.2c-7.5-3.1-11.9-4.3-15.2-4.2-5.6.1-15-4.5-23.7-11.6-5.5-4.5-5.5-4.5-5.7-10.4-.1-5 .2-5.9 1.8-6.5 1.1-.3 4.4-2.6 7.4-5 6-5 7.9-5.1 12.4-.8 3.5 3.2 23 8 26 6.4 1.7-.9 2.9-.9 5.1 0 3.2 1.4 11.7.7 15.3-1.2 1.2-.6 4-2.9 6.4-5 3.7-3.4 4.7-3.8 7.5-3.3 1.8.4 4.3 1.5 5.7 2.4 1.4 1 3.6 2.2 4.9 2.6 1.3.4 3.9 1.8 5.8 3.1 2 1.3 4.5 2.4 5.7 2.5 1.2 0 4.7.4 7.9.8 5.4.7 5.8.6 5.5-1.3-.2-1.3-1.3-2.2-3.3-2.6-1.7-.4-8.9-3.7-16-7.4-10.8-5.6-13.5-6.6-16.2-6.1-5.2 1-10.3 3.4-11 5.3-.8 2.2-6.4 8.2-7.7 8.2-.5 0-3-1-5.4-2.1-4-2-4.8-2.1-9.7-.9-5.1 1.2-5.5 1.2-10-1.4-4.5-2.7-21.9-9.6-24.2-9.6-.6 0-3.8 2.2-7 4.9-5.2 4.3-6.4 4.9-11.9 5.3-6 .6-12.4-1-12.4-3 0-.5.5-2.3 1.1-4.1 1.1-3.2.3-23.8-2.2-57.5-.6-7.7-1.2-16.9-1.4-20.5-.4-6.6-1.4-99.1-2-173.1-.1-21.7-.8-55.5-1.4-75-.7-19.5-1.2-37.5-1.3-40-.1-2.5.2-7.2.5-10.5s.9-8.9 1.2-12.5c.4-3.6.2-13.9-.3-23-.6-10.1-.7-21.4-.1-29.3.5-7 1.1-36.1 1.3-64.5.2-28.4.5-52.2.7-52.7.1-.6-.1-4-.5-7.7-.7-5.6-.5-7.7 1.4-13.4 1.9-5.5 2.1-7.9 1.6-13.7-1.2-13.3-5.5-26.8-9.2-28.9-.7-.5-2.2-2.9-3.4-5.4-1.4-2.8-3.7-5.4-6.2-7-2.1-1.4-4.1-3.1-4.4-3.8-.6-1.6-8.8-7.1-13-8.6-1.6-.6-6.7-1.2-11.4-1.3-9.3-.1-14.3-2.2-15.4-6.4-.3-1.2-3.1-4.3-6.1-7-3-2.6-5.5-5.6-5.5-6.5 0-1-1.3-3.3-3-5.1-1.6-1.9-3-4.3-3-5.4 0-1-.5-2.4-1.2-3.1-.8-.8-.9-2.1-.1-4.9 1.7-5.9 2.6-18 1.5-18.7-.6-.3-7.3-.8-14.9-1.1-12.7-.4-14.3-.2-19.8 1.9zm18.3 4.2c8.9.6 10.2.9 10.2 2.4 0 3.9-1 4.9-4.6 4.3-4.5-.7-4.4.9.2 2.6 2.5.9 3.3 1.6 2.6 2.3-.8.8-2.1.7-4.4-.3-3.4-1.4-16.6-2-17.4-.7-.5.8 5.8 4.2 9.9 5.2 3.2.8 3.5 2.1.6 3.7-2.3 1.2-7.6.5-12.4-1.6-6.2-2.7-15.6-4.3-18.6-3.1-1.6.6-2.9 1.4-2.9 1.9 0 1.3 6.7 3.7 10.6 3.7 4.6 0 17.5 5.2 23.4 9.4 4.6 3.3 4.7 3.3 6.9 1.5 2.1-1.7 2.5-1.7 5.3-.3 3 1.5 3 1.7 2.5 7.1-.3 3-.9 5.8-1.2 6.1-.3.4-1.7-.8-3.1-2.5-2.8-3.6-5-3.5-6.5.4-.6 1.8-1.5 2.3-3.1 2.1-3.2-.4-3.5-3.7-.7-5.9 2-1.5 2.2-2 1.1-4.3-.7-1.7-2-2.6-3.4-2.6-1.3 0-5.6-1.4-9.7-3-7.5-3.1-22-7.2-25.6-7.3-8.4-.3-12.8 1.4-6.7 2.6 7.3 1.5 20 5 23 6.4 1.7.9 3.2 2.2 3.2 3 0 1.8-8.4.7-11.9-1.5-2.2-1.5-2.5-1.4-3.8.4-.8 1-1.9 1.8-2.5 1.6-.5-.1-1.9 0-2.9.3-4.2 1.4-1.4 2.2 7.8 2.4 10.6.2 14.6 1.5 15.1 4.9.4 2.8 1.8 2.8 3.3.1.8-1.6.8-2.8 0-4.5-1.2-2.8-.4-3 2.5-.6 1.6 1.2 2.3 3.2 2.6 7 .3 2.9.2 5.5-.3 5.7-.4.3-2.9-.5-5.6-1.6-9.7-4.4-30-6.5-27.8-2.9.4.6 1.5.5 3.1-.2 2-.9 3.1-.8 6.2.9 2 1.2 6.2 2.6 9.4 3.2 3.5.8 7.2 2.4 10 4.5 2.3 1.8 7.7 5.1 11.9 7.3l7.5 4 2.4-1.9c1.8-1.5 3.4-1.8 5.8-1.4 3.5.5 10.2 5 10.2 6.7 0 .5-1.3 0-2.9-1.2-1.5-1.1-3.9-1.9-5.2-1.7-2.8.4-4 3.8-1.3 3.8 1 0 2.8 1 4.1 2.2 2.1 1.9 2.7 2.1 4.4.9 1.7-1 2.4-1 3.7.1 1 .8 4.7 2.7 8.4 4.2 8.9 3.7 10 5 5.8 7.3-5.6 3.1-7 4.8-6.4 8.5.5 2.5.1 3.8-1.4 5.1-1.9 1.8-2 1.8-1.8 0 .1-1.9-.1-1.9-4.6-.8-2.4.6-3 .2-5.8-4.7-1.7-2.9-3.5-6-4-6.8-.5-.8-1.1-2.3-1.4-3.3-.3-.9-1.4-2-2.3-2.4-1-.3-4.1-2.5-6.8-4.9-2.8-2.3-6.8-4.9-8.9-5.8-2.1-.9-5.1-2.7-6.8-4.1-1.6-1.4-3.8-2.5-4.7-2.5-1 0-2.9-.8-4.2-1.8-1.3-1.1-3.7-2.2-5.2-2.6-1.6-.4-4.9-2.2-7.5-4-5.8-4-15.3-7.8-20.7-8.2-2.2-.1-6.5.2-9.5.8-3 .6-6.2 1-7 1-.8 0-2.8.4-4.3 1-4.2 1.6-5 .1-4.8-8.9.3-18.5.5-19 7.7-17.5 6 1.3 7.2.8 7.6-3.1.2-1.8.8-3.1 1.3-3 .6.1 2.4-1.1 4-2.6 1.7-1.5 4.6-3.4 6.5-4.1 1.9-.7 6.2-2.7 9.4-4.3 5.4-2.6 6.6-2.9 12.5-2.3 5.1.4 7.7.1 11.6-1.3 2.8-1.1 5.7-1.7 6.5-1.6.8.2 6.1.7 11.8 1.1zM73.5 69.3c8.2 1.4 23.2 7.8 24.2 10.4.3.7 1.4 1.3 2.5 1.3 1.8 0 2 .5 1.6 4.7-.6 6.1-3.7 12.7-6.2 13.1-1.3.3-3-.9-5.2-3.4l-3.3-3.9-4.9 2.7c-5.1 2.9-9.6 3.6-10.7 1.8-.3-.6-1.6-1-2.8-1-2.3 0-4.7-2.8-5.8-6.7-.9-3 2.8-3.8 8.1-1.7 3.4 1.4 4.8 1.4 8.8.5 10.7-2.6 12-4.1 6.6-7.2-3.7-2.2-4.8-2.3-4-.4.4 1-.6 1.7-3.7 2.5-2.3.6-4.7 1.3-5.3 1.5-.6.1-3.2-.8-5.8-2.1-3.6-1.8-5.7-2.3-8.5-1.8-5.3.9-11.4-1.8-10.9-4.8.2-1.5 1.4-2.6 3.8-3.4 1.9-.6 4.9-1.6 6.5-2.2 4.1-1.4 5.8-1.4 15 .1zm103.8.7c3.3 2.6 5.8 13.8 6.3 27.5.2 5.5.8 11.6 1.4 13.5.5 1.9 1 6.4 1 9.9s.7 12.2 1.6 19.3c.9 7.1 1.4 13.1 1.1 13.4-.9.9-8.7-.7-8.7-1.8 0-.5 1-1.2 2.1-1.5 2.2-.6 2.1-.6-.2-2.4-2.3-1.7-2.3-1.8-.4-3.9 1.9-2.1 1.9-2.1-.3-2.7-2.5-.6-2.9-2.1-.7-2.9 2.1-.8 1.9-2.1-.5-2.9-2.5-.8-2.7-4.5-.2-4.6 1.4 0 1.3-.2-.4-.9-2.3-.9-3.8-3.6-2.8-5.1.3-.5 1-.7 1.5-.3 1.3.7 4.1-1.5 3.3-2.7-.3-.5-1.5-.9-2.8-.9-2.3 0-2.3 0-6.1-13.9-1.2-4.1-1.3-5.7-.4-6.8.9-1 .9-1.6-.3-2.6-2.5-2-2.8-4.4-.8-6.2 1.5-1.4 1.7-2.1.8-4.1-.8-1.7-.8-2.7.2-3.9 1-1.2 1-1.8 0-3s-1-1.9-.2-2.7c1.7-1.7 1.5-2.9-.5-2.6-1.9.3-3-3-1.9-5.8.8-2 4.9-1.7 7.9.6zM103 76c.8.5 1.1 1.2.8 1.6-1 .9-3.8-.3-3.8-1.6 0-1.2 1-1.3 3 0zm-58 1.5c0 .8-.4 1.5-1 1.5-1.5 0-1.2 2.1.5 4 1.4 1.6 1.2 1.8-2.7 2.3-3.4.5-4.7.2-6.3-1.4-1.9-1.9-1.9-1.9.2-1.9 1.3 0 3.1-1.3 4.3-3 2.3-3.2 5-4 5-1.5zm229 7.3c0 1.3-1.2 2.2-2.2 1.6-1-.6-.1-2.4 1.3-2.4.5 0 .9.4.9.8zM51.9 91.4c.2 3.5-1.1.8-1.5-3.1-.3-3.1-.2-3.4.5-1.3.5 1.4.9 3.4 1 4.4zm54.5 1.5c-3.9 6.9-4.8 6.4-1.6-.9 1.5-3.4 3-5.6 3.5-5.1s-.3 3.1-1.9 6zm176.8-3.2c1.8 1.6 2.5 4.3 1.1 4.3-1.2 0-4.3-3.3-4.3-4.7 0-1.7 1-1.7 3.2.4zM47 91c0 .5-.7 1-1.5 1s-1.5-.5-1.5-1c0-.6.7-1 1.5-1s1.5.4 1.5 1zm67 .4c0 .7-.7 1.9-1.5 2.6-.8.7-1.5 2.1-1.5 3.2 0 1 .7 2.1 1.5 2.4 2.1.8 1.9 4.1-.5 7.1-1.9 2.5-1.9 2.7-.3 4.5 1.6 1.8 1.6 2.1 0 4.7-.9 1.6-1.7 3.8-1.7 4.9 0 1.1-.7 2.5-1.5 3.2-.8.7-1.5 1.9-1.5 2.8 0 1.1.8 1.3 3.5.9 3.9-.6 4.5.5 1.8 3.6-1.7 1.8-1.7 2 .2 3.3 1.1.8 2.1 2.7 2.1 4.2.1 1.5.2 3.1.3 3.5.1.4 1.3.6 2.8.5 2.7-.3 2.8-.2 3 6.2.1 3.6.4 9.8.7 13.7.3 4 .2 7.3-.2 7.3-1.9 0-9.2-8.2-9.2-10.4 0-1.3-1-3.6-2.1-5.1-1.6-1.9-2.4-4.8-2.9-10.1-.8-7.9-3-12.7-5.5-11.8-1.8.7-3.1-2.4-3.6-8.1-.3-3.1 0-4 1.1-4 .9 0 1.4.8 1.3 2.2-.3 2.4 2.1 4.8 3.7 3.8.7-.4.7-1.2-.1-2.6-.8-1.6-.7-2.5.6-3.9 1.2-1.3 1.5-2.8 1.1-4.5-.7-2.9-1.7-3.1-4.9-1.1-1.2.8-3.5 1.6-5.2 1.8-2.4.2-3-.1-3-1.7 0-1.7.9-2.1 5.9-2.7 3.2-.4 7-1.5 8.4-2.4 2.2-1.4 2.4-2.1 1.8-6-.4-3.4-.1-5.5 1.6-8.9 2.2-4.5 3.8-5.8 3.8-3.1zm-55.7 1.3c-.7.2-1.9.2-2.5 0-.7-.3-.2-.5 1.2-.5s1.9.2 1.3.5zM55 98.1c1 1.8.9 2-.7 1.7-1-.2-1.9-1.1-2.1-2.1-.5-2.4 1.5-2.1 2.8.4zm66.7 1.1c-.3.8-.6.5-.6-.6-.1-1.1.2-1.7.5-1.3.3.3.4 1.2.1 1.9zm6.7 3.3c-.4.8-.8 1.5-1 1.5-.2 0-.4-.7-.4-1.5s.4-1.5 1-1.5c.5 0 .7.7.4 1.5zm-69 4.3c.4 2.4.2 3.4-1 3.9-2.2.8-4.2-1.3-2.6-2.9.7-.7 1.2-2.3 1.2-3.7 0-3.3 1.6-1.5 2.4 2.7zm232.2-1c3.3 2.6 4.4 5.5 2.5 6.6-.5.4-3.2-.5-6-1.9-4.5-2.3-5.1-3-5.1-5.7 0-2.8.2-3 2.6-2.4 1.4.4 4.1 1.9 6 3.4zM102 104c0 1.1-4.8 2.5-5.6 1.7-.4-.3-.3-1 .1-1.6.8-1.4 5.5-1.4 5.5-.1zm-38.4 6.6c-.6 1.6-2.6 1.9-2.6.5 0-.5.5-2.2 1.2-3.8 1.1-2.7 1.2-2.7 1.6-.5.2 1.3.1 3-.2 3.8zm25.1-2c-.9.9-2.8-.6-2.1-1.8.4-.6 1-.6 1.7.1.6.6.8 1.3.4 1.7zm129 2.8c1.5.9 6.4 2.7 10.8 4.2 4.4 1.4 9.8 3.7 12 5.2 2.2 1.5 6 3.4 8.5 4.3 11.1 3.9 14.9 7 13.5 10.6-.5 1.4-1 1.2-3.3-1-2.7-2.6-5.2-3.5-5.2-2 0 1.3 7.8 7.3 9.4 7.3 2.2 0 2 2.3-.2 4.4-1.8 1.5-2 1.5-3.7-.4-1-1.2-2.5-1.8-3.3-1.5-.8.3-2.4-.3-3.5-1.2-1.9-1.8-2-1.7-.8.5 1.3 2.5.7 4.2-1.6 4.2-1.1 0-1.4.6-.9 2.2.3 1.3.6 2.6.6 3 0 .6 6.3 3.8 7.4 3.8 0 0 .1-1.7.1-3.7 0-4.8 1.9-5.5 2.3-.9.2 2-.7 6.1-2.2 9.9-2.9 7.1-3 7.7-1.6 7.7.6 0 1-.6 1-1.4 0-.7.9-3.5 2.1-6 1.1-2.6 2.1-6.7 2.2-9.2.1-2.4.7-4.4 1.3-4.4 1.7 0 3.4 2.3 3.4 4.8 0 1.3.9 3.5 2 4.9 2.5 3.2 2.5 5.8.1 8.4-1.6 1.7-2 1.8-3.1.4-1-1.2-.9-1.6.9-2.3 2-.7 2-.8.2-3.6l-1.9-2.8-2.6 3.8c-3.5 5.2-3.4 8.8.2 10.2 1.5.6 3.6 1.2 4.6 1.4 2.5.4 4.1 3.1 3.2 5.3-.6 1.7-.8 1.7-2.7-.1-2.1-1.9-2.1-1.9-1.5 1.3.6 2.6.1 4-2.8 8.3-2 2.9-3.6 6.1-3.6 7.1 0 1.9-2.5 3.7-3.7 2.6-.3-.3.2-2.7 1.1-5.3 2.2-6.5 2.1-7.8-.4-6.4-1.4.8-2 .8-2 0 0-.6-1.6-2.4-3.5-4.1-2.1-1.9-3.7-4.3-4.1-6.5-.7-3.6-1.8-4.4-2.8-1.8-1 2.6-.7 3.3 2.4 6.6 3.3 3.4 3.4 5.4.4 5.1-1.6-.2-1.5-.1.4.9 1.2.6 2.2 1.5 2.2 2s-1 .8-2.2.6c-2.9-.4-5.6-7.9-5.7-16.1-.1-3.1-.5-5.7-1.1-5.7-.5 0-1 .9-1 2 0 1-.7 2.3-1.6 2.8-1.5.8-1.4 1.2.5 3.9 2.6 3.4 2.6 10.8.1 10.8-1.1 0-1.4-1-1.2-3.8.3-3.1-.1-4.2-2.7-6.6-3.7-3.4-3.9-5.1-.9-5.1 2 0 2.1-.1.6-1.6-2-2-5.8-1-5.8 1.5 0 .9 1.4 3 3 4.6 3.7 3.6 4.2 6.3.7 4-2.2-1.4-2.6-1.4-5 .5-1.7 1.4-2.8 1.7-3.2.9-.4-.6-1.8-.8-3.2-.4-3.7.9-6-.2-7.8-3.8-1.4-2.9-1.4-3.3 0-4.3s1.2-1.3-1-1.8c-4.2-1.1-3-2.9 1.5-2.1 3.6.6 4 .5 4.5-1.8.4-1.4.1-3.5-.5-4.7-.7-1.4-1-3.9-.6-6.2l.7-4-3 .7c-2.9.6-3.2.4-6.2-5.8-2.6-5.2-3.1-7.1-2.5-10.1.7-3.6.8-3.7 2.5-2.2 2 1.8 5.7 2.1 6.6.5 1.1-1.6 1.7-6.9.9-6.9-.4 0-1.5.7-2.5 1.6-1.4 1.3-2.1 1.3-4 .3l-2.3-1.2 2.3-1.8c1.3-1.1 3.3-1.9 4.4-1.9 2 0 2-.1.4-1.7-1.7-1.7-2-1.7-6.5.9s-4.7 2.9-4.7 7c0 2.4-.5 4.3-1.1 4.3-2 0-10.4-10.5-10.4-13 0-1.4-.6-3.4-1.2-4.5-1.8-2.9 0-5.2 5.3-6.7 5.7-1.6 18.9-1 22.6 1.1zm-84.7 6.9c0 1.3-3.8-1.2-5.4-3.5-3.1-4.3-1.6-5.3 1.9-1.3 1.9 2.2 3.4 4.4 3.5 4.8zm145.5-3.8c2.8 1.3 2.5 1.3-5.2 1.3-10.8 0-11-2.2-.3-2.6 1.4-.1 3.9.5 5.5 1.3zm-160.9 7.2c-1.1 1.1-1.7-.4-.9-2.3.7-1.8.8-1.8 1.1-.1.2 1 .1 2.1-.2 2.4zM292 120c2.3 1.2 4.3 4.7 3.2 5.4-1 .6-6.2-4-6.2-5.4 0-1.3.7-1.2 3 0zm-233.2 3.1c.2 1.2-.7 1.8-3.5 2.2-4.4.7-6.2-.5-4.3-2.8 1.7-2.1 7.4-1.6 7.8.6zm78.5 3.9c1.4 0 1.6.4.7 1.9-.8 1.6-1.3 1.8-3.5.8-3.3-1.6-4.3-4.2-1.3-3.3 1.3.3 3.1.6 4.1.6zm193.2 5.4c4.5 1.6 5.6 4.3 1.5 3.8-2.6-.4-6-2.9-6-4.4 0-1-.3-1 4.5.6zm-181.7 2.4c.3.9-.2 1.3-1.4 1-.9-.1-1.9-.9-2.2-1.6-.3-.9.2-1.3 1.4-1 .9.1 1.9.9 2.2 1.6zm174.1 1.8c1.2 1.1-1.4 1.9-5.3 1.6-4.6-.4-6.1-1.7-2.8-2.5 1.6-.5 7.3.2 8.1.9zm-272.9.8c0 1.4-5.9 2.6-13.4 2.6-2.3.1-6.5.9-9.4 1.9-2.9 1-5.5 1.4-5.8 1-1-1.6 4.7-4.1 12.3-5.4 10.8-1.8 16.3-1.8 16.3-.1zm19.8.2c1.7.3 3.2.9 3.2 1.4 0 1.3-17.7 1.3-18.5 0-1.9-3 2.4-3.4 15.3-1.4zm14.1 3c2.3 2.1.7 2.6-3.8 1.4-3.9-1-4.8-1.9-3.5-3.3 1-.9 5.6.3 7.3 1.9zm264 2.1c1.9 3 2.1 4 1.2 5.6-.9 1.4-.9 2.2 0 3.3.8 1 .9 1.8.2 2.5s-1.9-.4-3.8-3.6c-2.1-3.7-2.5-5.4-2-8.1.3-1.9.9-3.4 1.3-3.4s1.8 1.7 3.1 3.7zm-26.4-.5c3.7 1.7 3.1 2.5-1.7 2.4-3.2 0-5.6.8-9.3 3.1-4.6 3-6.5 3.3-6.5 1.3 0-1 11.9-8 13.7-8 .7 0 2.4.5 3.8 1.2zm-191.6 20.5l-.2 19.8-1.3-9c-.8-5.1-1.1-11.1-.7-14 .3-2.8.5-6.2.4-7.8-.3-2.8.7-8.7 1.5-8.7.2 0 .3 8.9.3 19.7zm205.8-17c1.8 3 8.5 11 13.1 15.9 2.2 2.2 3.1 4.4 3.7 8.5.4 3.1 1.5 6.3 2.6 7.5 1.9 2 1.9 2.1-.1 7.9-1.7 5-1.9 6.9-1.1 13.2.5 4.4.6 15.7.1 27.6-.5 11.1-.9 35.9-.8 55.2 0 19.2-.3 39.3-.7 44.5-.5 5.2-.9 19.8-.9 32.5-.1 14.7-.6 26-1.5 31.2-1.2 6.7-1.2 10.8-.3 22.5 2.4 29 3.5 127.7 1.5 131.3-.9 1.5-1.1 1.4-2.1-1.4-1.2-3.5-4.7-4.5-3.8-1.1.3 1.1.9 2.9 1.2 4.1.3 1.2 1.1 1.8 2 1.5.9-.3 1.4.1 1.4 1.4 0 1.3-.7 2-1.9 2-1 0-2.4.7-3.1 1.5-1.2 1.4-1.5 1.4-3.1-.1-1.1-1-1.9-2.3-1.9-3.1 0-2.4-6.7-4.4-15.9-4.6-9.9-.2-12.9 1-11 4.5.8 1.6 1.9 1.9 5.2 1.7 2.3-.2 7.3.1 11 .5 6.5.8 6.8 1 8.2 4.2 1.5 3.7 2.4 4.1 4.4 2.1 1-1 1.2-.6.9 1.8-.2 2.4-.9 3.1-3.3 3.5-2.8.5-3 .9-3.8 6-1 7.3-.5 8.2 4 7.8 3-.2 3.8.1 4.1 1.5.3 1.4-.4 1.7-4.2 1.7-5.3 0-6.2 1-4.4 4.7 1.4 2.9 2.3 3.1 7 1.8 2.5-.6 2.7-.5 2.5 2.2-.2 2.7-.4 2.8-4.7 2.4-2.8-.2-5.2-1-6.3-2.2-2.2-2.3-9.5-2.7-10.3-.5-1.1 2.9 1.5 5.6 5.4 5.7l3.7.1-4.4.9c-5.3 1-6.4 1.9-5.9 5 .3 2.1.8 2.4 4.6 2.3 2.7 0 5-.8 6.5-2.1 1.8-1.6 8.7-4.3 11.1-4.3.4 0 .6 1.2.4 2.7-.3 2.4-.9 2.9-4.7 3.5-5.2.9-7.2 2.4-6.4 4.6.5 1.3.4 1.5-.8.6-.8-.6-3.8-.8-6.7-.6-4.2.3-5.2.7-4.8 1.9.3.8.6 2.3.6 3.4 0 2.8 7.2 2.7 10.1-.2 1.3-1.3 3.6-2.2 5.8-2.3 2-.1 4.4-.6 5.4-1 1.4-.7 1.7-.3 1.7 2.3 0 3-.1 3.1-4.5 3.1-4.5 0-4.5 0-4.5 3.5s-1.6 4.7-2.6 2c-.6-1.6-5.9-2-10.1-.9-1.8.5-2.2 1.2-1.9 3.8.3 2.8.7 3.1 3.9 3.4 2 .2 4.5-.2 5.6-.7 2.5-1.4 3.8.3 2.1 2.4-.8 1-3.1 1.5-6.2 1.5-4.7 0-5 .1-4.4 2.2.3 1.3.6 2.9.6 3.5 0 1.6 5.3 1.7 9.7.1 3.5-1.3 5.9-.3 3 1.3-2.3 1.3-2.2 3.5.3 5.2 2 1.4 1.9 1.4-.5 2.5-2 .9-2.3 1.5-1.6 3.4.7 1.9 1.7 2.3 6 2.6 3.6.2 5.1.7 5.1 1.8s-1.4 1.4-5.8 1.4c-5.3 0-6-.2-7-2.5-.9-1.9-1.9-2.5-4.4-2.5-5 0-6.2 1.2-5.1 4.6.9 2.7 1.4 2.9 5.2 2.6 2.4-.2 4.1.1 4.1.7s-1.9 1.1-4.3 1.1c-5.3 0-5.9.5-4.6 3.7.6 1.7.6 3-.1 3.8-.7.9-.7 2.1.2 4 1.1 2.5 1.5 2.6 5.6 2 3.4-.5 4.3-.4 4 .7-.3.7-1.6 1.4-2.9 1.5-1.3 0-3 .1-3.7.2-.8.1-1.2 1.1-1 2.8.2 2.3.8 2.8 3 2.8 1.5.1 3 .4 3.4.8.4.4-.5.7-2 .7s-2.9.7-3.2 1.5c-.8 1.9 1.5 4.8 3.3 4.1.7-.3 1.3-.3 1.3-.1 0 1-2.6 6.1-3.8 7.4-1.1 1.1-1 1.8.3 3.8 2 3 1.4 5-1.7 5.5-3.3.4-2.9 3.2.5 3.6 1.5.2 2.7.7 2.7 1.2s-1.2 1-2.7 1.2c-1.7.2-2.8.9-2.8 1.8s1.1 1.6 2.8 1.8c3.7.5 3.4 2-.5 2.4-2.2.2-3.4.9-3.6 2-.3 1.5.4 1.8 3.2 1.8 2.9 0 3.6.4 3.6 2s-.7 2-3.4 2c-1.9 0-4.1.2-4.8.5-1.2.5-1.6-5.6-2.5-38.7-1.1-39.4-1.8-45.8-4.9-45.8-.7 0-2.1 1.1-3 2.5-1 1.5-2.6 2.5-4 2.5-1.7 0-2.4.6-2.4 2 0 1.5.7 2 2.9 2 2.9 0 5.1 2.7 2.8 3.5-6.6 2.3-6.9 2.5-5.8 3.9.9 1.1.7 1.5-1 1.9-3.8 1-2 4.2 2.6 4.5 2.2.2 4.4.7 4.9 1.2 1.3 1.3-1.4 4.2-3.2 3.5-2.6-1-5.3.5-4.7 2.5.4 1.3-.1 2.2-1.5 3-2.6 1.4-2.1 3.5.9 3.6 2.6.2 7.1 2.4 7.1 3.5 0 .4-2.4.9-5.2 1.1-3.9.2-5.3.7-5.3 1.8s1.5 1.6 5.5 2c3 .3 5.3.9 5.2 1.5-.2.5-.9.8-1.5.6-1.1-.4-4.9-.5-8.9-.2-1.1.1-1.8.9-1.8 2.1 0 1.5.7 2 2.9 2 4.4 0 4.7 1.8.4 2.2-2.5.2-3.9.8-4.1 1.9-.2 1.3 1 1.8 6.3 2.4 5.5.5 6.5 1 6.5 2.6s-.5 1.8-4.5 1.2c-5.2-.7-8.3 1-6.4 3.3.6.8 2.2 1.4 3.5 1.4 1.2 0 2.6.5 2.9 1 .4.6-1 1-3.4 1-7 0-6.7 3.5.4 4.4 5.3.6 7.5 1.5 7.5 3.2 0 1.1-.7 1.1-4.1-.1-5-1.8-10.1-1.9-11.7-.3-1.7 1.7.4 3.8 3.7 3.8 1.4 0 3.3.5 4.1 1.1 1.1.7.2.8-3.1.4-3.4-.5-4.8-.3-5.8.8-1 1.3-.9 1.7.8 2.6 1.1.6 2.8 1.1 3.9 1.1s3.6.7 5.7 1.5c2.7 1.2 4 1.3 5 .5 1.6-1.4 2.5.7 2.5 6.1 0 4.2 0 4.2-2.4 3.3-1.4-.5-1.4-.8 0-2.9 1.3-2 1.3-2.4-.1-3.5-1.8-1.5-11.5-2.6-13.9-1.7-2.3.9-.8 3.7 1.9 3.7 1.2 0 3.7.6 5.6 1.2l3.4 1.3-5 .5c-3.7.4-5.1.9-5.3 2.2-.3 1.4.4 1.8 3 1.8 4 0 7.1 1.6 4.8 2.4-.8.2-2.6.4-4 .3-1.5-.1-2.6.4-2.8 1.4-.2 1.3.8 1.8 4.2 2.3 5.5.9 6 2.4.9 2.8-2 .2-3.8.9-4.1 1.5-.4 1.3.3 1.7 5.1 2.7 1.5.4 2.7 1.1 2.7 1.7 0 .7-1.1.8-3 .4-3.8-.8-6.6 1-4.9 3.1.6.8 1.5 1.4 1.9 1.4 2 0 9 5.5 9 7.1 0 3-1.7 3-3 0-1.6-3.9-5.7-5.4-13-4.9-3.3.2-6 .1-6-.4 0-.4.5-.8 1-.8 2.4 0 .8-2.9-1.7-3.2-2.1-.2-2.9-.9-3.1-2.7-.3-1.8 0-2.2 1.2-1.8 2.4.9 5.6-2.7 5.7-6.6.5-11-1.6-17.7-5.5-17.7-2.4 0-2.6-.3-2.6-4.5 0-3.9.3-4.7 2.5-5.5 2.2-.8 2.5-1.5 2.5-6s-.2-5-2.6-5.6c-2.3-.6-2.5-1-1.9-4.1.6-3.4-.9-6.8-2.5-5.8-.4.2-1.5-.4-2.5-1.5-1.9-2.2-.9-3.1 3-2.7 2.8.3 5.1-4.8 3.7-8.5-.5-1.5-.8-4.6-.5-6.8.5-3.3.2-4.1-1.3-4.6-1.1-.3-3.5-1.4-5.5-2.5-2-1-5.1-1.9-6.8-1.9-1.7 0-3.1-.5-3.1-1.1 0-1.2 4.6-.8 8.1.6.9.3 2.3 0 3-.7.8-.7 2.3-1.3 3.4-1.3 2.4 0 3.2-4.5 1.6-8.8-1.2-3-4.6-3.6-8-1.5-2.4 1.5-8.6-.1-8.6-2.2 0-1.5 2.9-1.8 8.5-.9 1.7.3 2.5-.1 2.5-1.1s-2-2-5.7-3c-3.7-.9-5.8-1.9-5.8-2.8 0-1.1.8-1.3 2.8-.9 3.6.7 5.9-.5 4-2.1-.8-.6-2.6-1.6-4.2-2.1-3.3-1.3-3.3-4.8.1-4.3 4.4.6 3.3-3.1-1.2-4-1.2-.2-2-1.1-2-2.3 0-1.6.7-2 3.4-2 4.9 0 5-2.2.2-3.5-2.3-.6-4.1-1.4-4.1-1.9 0-1.6 1.3-1.9 3.5-.9 1.3.6 3.1.8 4 .4 2.6-1-.1-3.6-3.6-3.6-1.9 0-2.9-.5-2.9-1.5 0-.9.9-1.5 2.5-1.5 1.9 0 2.5-.5 2.5-2.3 0-1.3-.5-2.8-1.2-3.5-.9-.9-.8-1.2.5-1.2 1.1 0 1.7-.8 1.7-2.3 0-2.9-1.8-4.7-4.7-4.7-2 0-2.3-.5-2.4-4.3 0-2.3-.2-6.7-.5-9.7l-.6-5.6 2.9.1c2.1 0 2.9-.5 3.1-2.1.4-2.8-2.8-4.1-4.4-1.9-1 1.4-1.3.9-1.9-2.7-.4-2.4-1-9.9-1.4-16.8-.5-10.4-.9-12.5-2.2-12.8-1.1-.2-2 .7-2.7 2.7-.8 2.3-1.5 2.8-3.1 2.4-1.4-.3-2.3 0-2.7 1.2-.8 2.1.8 5 2.7 5 1.7 0 2.5 6.1 1 7.8-1.2 1.6-.8 9.6.8 12.4.6 1.2 1.1 6.3 1.1 11.3 0 9 .1 9.3 3.1 12.1 2.6 2.4 2.9 3.2 1.9 4.4-.7.8-1.9 1.5-2.6 1.5-1.1 0-1.4 2-1.4 9 0 8.3-.1 9-2 9-2.6 0-2.5.8.3 3l2.2 1.8-3.4-.1c-4.3-.2-5.2 1.9-1.2 2.8 2.7.6 3.1 1.1 3 3.8-.1 2.4-.3 2.6-.6.9-.3-1.4-1.2-2.2-2.4-2.2-1 0-2.2-.1-2.6-.3-.4-.1-1 1.1-1.3 2.7-.3 1.7-.9 3-1.5 3-.6.1-1.1-5.2-1.2-13.4-.2-7.4-.9-26.3-1.8-42-.8-15.7-1.5-35.9-1.5-45 0-17.7-1.5-32.9-3.5-35.7-1.1-1.5-1.4-1.4-2.9.9-.9 1.4-1.7 4.2-1.8 6.4-.3 8.6 1.4 58.7 2.3 69.9.6 6.6 1.2 24.7 1.4 40.3.2 25.5.4 28.5 2 30.2 1 1.1 2.3 2 3 2 .6 0 2 .7 3.1 1.5 1.7 1.4 1.4 1.5-4.1 1.3-5.8-.3-6-.2-6 2.2 0 3.2 4.5 5.5 14.3 7.1 3.9.7 7.2 1.6 7.2 2.1s-.8.7-1.7.5c-1-.3-3.9-.8-6.4-1.2-5.5-.7-7.9 1-7.9 5.5 0 2-.6 2.9-2.1 3.3-2.9.8-2.1 3.7 1.9 6.3 1.8 1.3 2.8 2.5 2.2 2.9-.5.3-1.5.3-2.2-.1-.7-.4-2.8-1-4.8-1.4-3.4-.5-3.5-.6-3.8-5.5-.1-2.8-1-11.3-1.8-19-.8-7.7-1.9-27.3-2.4-43.5s-1.4-32.9-2-37c-1.3-9.3-1.5-11.9-2.9-41-.6-12.9-1.6-29.8-2.2-37.5-1-14.2-1.1-15.9-2.8-41.5-.5-8-1.5-15.9-2.1-17.5-.7-1.7-1.4-11.8-1.6-23.5-.4-13-1.1-23.1-2.1-27.5-.8-3.9-1.7-11.2-1.8-16.3-.2-5.1-.6-10.5-.9-12-.5-2.2-.2-2.9 1.6-3.7 2-.9 2.2-1.6 1.9-7.2-.3-6.7 1.1-10.6 3.4-9.7 1.6.7 2 3.6 3.5 30.4 1.4 23.7 3.7 52.4 5.1 60.5.5 3.3 1.6 12.3 2.4 20 2.8 25.4 3.2 26.9 9.2 28.1 4 .8 5.5-1.6 2.8-4.6-2.2-2.4-4.1-11.4-5.5-26.4-.6-6.5-1.8-16.3-2.6-21.8-1.5-9.2-1.5-10.1.1-11.8 1.4-1.5 1.5-2.5.6-5.7-1.6-5.5-1.3-12.5.4-15 1.3-1.9 1.4-3.6.5-11.5-.6-5.1-1-14.3-.8-20.3.3-10.7.4-11 2.6-11.3 1.4-.2 3.1-1.6 4-3.3 1.1-2 2.4-2.9 3.7-2.7 1.8.3 2 .9 1.7 8.3-.2 4.4.3 12.3 1.2 17.5 1.6 9.9 2.2 16.2 3.1 34.5.4 6 .8 11.2 1 11.5.2.4.9 6.5 1.5 13.6 1.2 15 2.7 21.4 7.2 32 2.3 5.2 4 7.9 5.6 8.5 1.3.5 2.2 1.7 2.2 3 0 1.2.4 3.8.9 5.8s1.5 6.3 2.1 9.6c1.8 9.5 4 16.4 5.7 18.1 1 1 2.9 1.4 5.2 1.2l3.6-.3.7 5.1c1.4 9.5 11.2 33.3 17.9 43.4 3.8 5.8 10.2 11 13.4 11 2.7 0 2.9-3 .3-5.8-4-4.3-15.6-29.8-25.4-56-2.7-7.2-4.1-8.5-6.4-5.7-.7.8-1.6 1.5-2 1.5-1.1 0-4.7-12.3-6.6-22.5-1.8-10.2-8-36.1-10-41.7-.7-2-2-9.9-2.9-17.5-2.7-22.4-5.6-44.7-6.1-46.6-.3-.9-1.2-1.7-2-1.7-1.7 0-1.8-2.3-.2-5 1-1.5.9-2.9-.5-7.2-.9-2.9-1.9-7.3-2.2-9.8-.4-2.5-.8-5.6-1.1-6.8-.3-1.7-.1-2.3.8-2 .7.3 1.5 1.8 1.8 3.4.5 2.8.7 2.9 6 2.9 6.1 0 7.4-1.6 3-3.8-2.8-1.4-3.8-5.4-3.9-14.8-.1-7.3-2.1-9.4-4.7-5-2.1 3.5-3.4 4-3.4 1.2 0-2.9-2.2-4.1-6.3-3.4-5.6.9-7.8 5.3-2.6 5.3 2.3 0 2.4 2.1.4 6-2.1 4-4.7 3.8-7.6-.7-1.3-2-3.2-4-4.1-4.5-1-.4-2.6-1.2-3.5-1.7-2.8-1.3-2.8-3.9-.1-4.3 4-.5 2.8-3.3-1.7-3.6-6.6-.6-9.2-4.2-3-4.2 4.9 0 4.4-2-1.3-5-5.8-3.1-6.2-5.4-.9-5.8 3.3-.3 3.8-.6 3.5-2.5-.2-1.7-1.1-2.3-4.3-2.7l-4-.5-1.3-8.9c-.9-6.5-1.8-9.5-3.2-10.8-1.1-1-2-2.6-2.1-3.6 0-.9-.3-3.1-.5-4.7-.3-1.7-.7-11.8-1-22.5-.3-12-1-21.7-1.9-25.3-2.6-10.2-1.7-12.5 3.1-7.7 2.6 2.4 3.2 4.1 4.2 11.7.7 4.8 1.7 15.1 2.2 22.8.5 7.7 1.8 17.9 3 22.8 1.1 4.8 1.8 9.2 1.5 9.7-1.6 2.6 9 16 11.4 14.6 1.6-1 1.4-5.2-.4-8.5-2-4-3.6-11.2-4.6-20.6-1.9-19.9-3-39.6-2.5-46.1.6-6.6.5-7.1-1.6-8.1-1.3-.6-4.9-1.4-8.2-1.7-3.2-.4-6.7-1.3-7.8-2-2.6-1.9-5.8-7.1-5.8-9.6 0-1.3-.7-2-1.9-2-1.1 0-2.3-.5-2.7-1.1-.4-.7-2.4-.9-5.1-.6-4.7.5-9.3-1.9-7.9-4.1 1-1.7 4.6-1.5 4.6.3 0 .8.5 1.5 1 1.5.6 0 1-.9 1-2.1 0-1.8.5-2 3.8-1.7 2.8.2 3.7-.1 3.7-1.2 0-1.2-1.7-1.6-8.2-1.8-7.9-.3-8.3-.4-8.3-2.5 0-1.3.5-2.8 1.2-3.5.8-.8.5-1.4-1.4-2.1-4.2-1.6-4.2-3.9 0-5.1 4.9-1.3 7.2-1.3 7.2.2 0 .9.4.8 1-.2.5-.8 2.4-1.5 4.2-1.5 2.3 0 3.3-.5 3.3-1.5 0-1.2-1.5-1.5-8.5-1.3-4.7.1-9.4.5-10.3.9-1.1.4-1.7.1-1.7-.8 0-2.7 2.5-4.6 6.5-5.1 2.2-.3 5.8-1 7.9-1.5 6.7-1.8 13.4 3.2 19.6 14.7 2.3 4.5 5.9 9.9 7.8 12.2l3.5 4 2.1-2c1.2-1.2 3.2-2.1 4.4-2.1 1.5 0 2.2-.6 2.2-1.8 0-1 .3-2.2.7-2.5 1-1.1 5.2 3.3 4.6 4.9-.3.8.5 1.5 2.4 1.9 1.5.4 4.1 1.1 5.7 1.6 1.6.5 4.3.9 6 .9 1.7 0 3.7.4 4.5.9 1.6 1 .6 3.1-1.5 3.1-2.4 0-1.6 4.7 1.1 6.8 3.3 2.6 3.2 3.2-.5 3.2-3.1 0-3.9 1.3-1.7 2.7.7.5-.5 1-3.3 1.3-6.1.7-10 .1-10-1.6 0-1 1.1-1.2 4.5-.7 5.7.7 6.1-1.2.5-2.7-2.2-.6-4-1.3-4-1.6 0-1.2 2.9-3.4 4.4-3.4 2.7 0 1.8-1.7-1.4-2.9-4.2-1.4-3.7-2.3.8-1.5 4.8.9 3.4-.7-2.1-2.3-5-1.5-6.6-.4-4.3 2.8 1.3 1.9 1.3 2.5.2 3.8-.7.9-1.6 5-1.9 9.2-.7 8.4-1.4 10.9-3 10.9-.7 0-.8-4.1-.3-12.5.7-12.9 0-16.5-2.9-16.5-1.8 0-1.9 1.2-.4 2.7.7.7.7 2.8-.2 7.2-.9 4.5-.9 7.2-.1 9.9.8 3 1.6 27.9 1.2 39.2-.1 1.4.2 5.8.6 9.9.6 6.4.9 7.2 2 5.7 1.3-1.9 2.7-1.8 14.9.1 2.2.4 5.7.6 7.7.6 2.9-.1 3.9.4 4.4 1.9.3 1.1.3 2.2 0 2.5-.9 1-12.7.8-20.8-.3l-7.8-1v3.2c0 4.2 1.3 4.6 14.3 4.6 8.2 0 11.1-.4 15-2 2.6-1.2 4.7-2.5 4.7-2.9 0-.4-.6-2.8-1.4-5.3-1.3-4.4-1.4-4.5-6.2-5.1-2.7-.4-6.7-1.1-8.9-1.8-2.2-.6-6.6-1.1-9.7-1.1H230v-4.1c0-3.5.3-4 1.8-3.4 5 1.9 13.3 3.5 18.4 3.5 5 0 5.8-.3 5.8-1.9 0-2.1-1.9-3.1-5.5-3.1-1.3 0-2.7-.5-3-1-.8-1.3 3.6-3 7.2-2.6 2.4.3 2.9.9 3.6 4.7.5 2.4 1.3 4.8 1.8 5.3 1.2 1.3 4.9-2.2 4.9-4.6 0-1 .4-1.8.9-1.8 1.6 0 1.9 6.5.8 19.2-.8 9.9-.7 14.9.3 22.7 1.2 9.5 2.3 13.2 3.4 12 .3-.2.1-2.2-.4-4.4-1.4-6.6-1.7-20.8-.4-21.2.8-.3 1.4 1.8 1.9 5.7.4 3.3 1.2 6.3 1.7 6.6.7.5.8-1.2.3-5.2-.8-6.2-.7-29.2.1-30.6.8-1.2-1.6-9.1-3.4-11.1-1.4-1.6-1.4-1.8.1-3 2.6-1.9 3.3-11.4 1.2-17.6-2.1-6.3-3.1-7-6-4-2.1 2.2-2.2 2.9-1.4 9 .8 6.4-.2 14.1-1.4 10.9-1-2.6-2.7-23.9-2.1-25.5.6-1.5 1.7-1.5 6.9.5 1.1.4 4 2.6 6.4 4.9 3.4 3.2 4.9 3.9 6.8 3.5 3.1-.8 4.9-3.7 5.8-9.2.7-4.2 2.1-5.2 4.3-3 1 1 1.8.6 3.7-1.7 1.9-2.4 2.4-4.2 2.4-8.5 0-3-.6-6.6-1.4-8-2.2-3.8-1.8-6.2 1.5-10.6 3.5-4.6 3.8-6.4 1-6.4s-2.5-.9 2-6.4c2.2-2.6 4-5.4 4-6.2 0-5.2 6.3-10.1 16.1-12.7 3.1-.8 6.6-2.4 7.8-3.6 2.9-2.9 5.7-2.6 7.8.6zM198.5 150c.4.6 1.7 1 3 1 1.5 0 3.1 1.1 4.4 2.9l2.1 2.9-2.7-.9c-1.6-.4-4-1.1-5.6-1.4-3.9-.8-9.2-5.7-8.4-7.9.6-1.6.9-1.6 3.7.4 1.6 1.1 3.2 2.5 3.5 3zm71.5-2.5c0 .8-.9 1.5-2 1.5-1.3 0-1.8-.5-1.4-1.5.4-.8 1.2-1.5 2-1.5s1.4.7 1.4 1.5zm-132 .5c0 .5-.4 1-1 1-.5 0-1-.5-1-1 0-.6.5-1 1-1 .6 0 1 .4 1 1zm-111.5 1c-.3.5-1 1-1.6 1-.5 0-.9-.5-.9-1 0-.6.7-1 1.6-1 .8 0 1.2.4.9 1zm247.9 2.6c1 2.7.7 3.1-1.9 2.6-1.4-.2-2.5-.6-2.5-.7 0-1.5 1.5-3.5 2.5-3.5.7 0 1.6.7 1.9 1.6zm-219.3 4.8c.5 4.3-.9 7.7-1.9 4.7-.2-.7-1.7-2.8-3.3-4.6-1.6-1.8-2.9-3.5-2.9-3.8 0-.6 4.8-1.5 6.5-1.2.6.1 1.2 2.3 1.6 4.9zm-11.4-2c-.3.8.3 2.6 1.5 4.1 1.1 1.4 1.8 2.9 1.5 3.2-.8.8-2.7-.6-2.7-2.1 0-2-3.7-4.9-5.5-4.3-.8.4-1.5.2-1.5-.2 0-1.2 1.8-1.9 4.9-2 1.6-.1 2.1.3 1.8 1.3zm26.3 0c0 .7-.6 1.9-1.4 2.5-1.1.9-1.5.7-1.9-.8-.3-1.1-.2-2.2.1-2.5 1.1-1.1 3.2-.6 3.2.8zm103.9.4c1.5 2.7-3.1 7.5-6.4 6.6-3.7-.9-4.1-2.4-.5-2.4 1.8 0 3.3-.6 3.7-1.5.7-2.1.2-2.5-3.6-2.8-4.8-.3-3.7-1.7 1.4-1.7 3.2 0 4.7.5 5.4 1.8zM74 157.3c0 2.5-2.5 6.6-3.4 5.6-.7-.6 2.1-7.9 2.9-7.9.3 0 .5 1 .5 2.3zm65.7.5c-3.4.4-4.8-.5-2.7-1.8.8-.5 2.2-.4 3.4.3 2 1.1 2 1.2-.7 1.5zm-51.7-.4c0 .8-.4 1.8-1 2.1-.5.3-1-.3-1-1.4 0-1.2.5-2.1 1-2.1.6 0 1 .6 1 1.4zm68.7 2.8c-.3.7-.5.2-.5-1.2s.2-1.9.5-1.3c.2.7.2 1.9 0 2.5zM38.5 160c.3.5.1 1-.4 1-.6 0-1.1-.5-1.1-1 0-.6.2-1 .4-1 .3 0 .8.4 1.1 1zm240.3 1.7c.2 1.4-.4 2.2-1.7 2.6-2.7.7-3.5-.7-2.1-3.3 1.4-2.5 3.4-2.1 3.8.7zm13.3 1.9c1 1.3 1 1.7-.1 2.4-1.8 1.1-3 .3-3-2.1 0-2.3 1.3-2.5 3.1-.3zM139 166.2c-2.5.9-3.6.5-2.6-1 .3-.6 1.6-.8 2.8-.4l2.2.5-2.4.9zm28.9-.3c.8.5.9 1.1.3 1.5-1.4.8-4.3-.4-3.6-1.5.7-1.1 1.5-1.1 3.3 0zm-118.4 3.2c1.6 3 1.5 3.2-.9 7-2.8 4.1-4.6 4.7-8.9 2.6-2.2-1-2.7-1.9-2.7-5v-3.8l3.1 3.6c3.8 4.2 5.8 3.6 2.9-.9-3-5-2.7-6.6 1.5-6.6 2.8 0 3.7.5 5 3.1zM54 167c0 .5-.5 1-1.1 1-.5 0-.7-.5-.4-1 .3-.6.8-1 1.1-1 .2 0 .4.4.4 1zm16 .3c0 1.4-2 3.7-3.2 3.7-1 0-1.1-3.4-.1-4.3 1.1-1.2 3.3-.8 3.3.6zm193.7 1.3c-.9.9-2.8-.6-2.1-1.8.4-.6 1-.6 1.7.1.6.6.8 1.3.4 1.7zm11.6 3.2c-.3.7 0 2.5.8 3.9 1.2 2.3 1.1 2.7-1 4.4-2.4 2-5.2 1.6-3.2-.4 1.7-1.7 1.3-4.2-1-7.1-2-2.6-2-2.8-.4-4.6 1.7-1.9 1.8-1.9 3.5.3 1 1.2 1.5 2.7 1.3 3.5zm-119.3.9c0 2.9-.6 5.3-1.7 6.5-1.5 1.7-1.5 2 .5 3.9 2.2 2 3 4.9 1.3 4.9-.6 0-1.3-.5-1.6-1-.3-.6-1.6-1-2.7-1-2.5 0-4.7-2.7-4.8-5.8 0-1.5-1.1-2.9-3-4-1.6-.9-3-2-3-2.5 0-1.5 3.8-.6 5.5 1.3 2.6 2.9 5.5 2.6 5.5-.4 0-3.5 1.8-7.8 3-7.1.5.3 1 2.7 1 5.2zm-81-3.4c0 .8-.9 2.2-2 3.2-2.6 2.4-2.6 3.8.1 3 1.7-.6 2-.3 1.7 1.2-.3 1.4-1.1 1.7-3.8 1.5-5.4-.5-5.7-1.7-1.4-6.1 4.1-4.3 5.4-4.9 5.4-2.8zm-18.5 24.3c.2 12.1 0 23.7-.4 25.8l-.6 3.9-4.3-5.6c-3.9-5.2-4.6-5.7-8-5.7-2.1 0-4.3-.5-5-1.2-1.8-1.8-1.5-9.8.5-12 1.5-1.7 1.5-1.9-.2-3.8-1.3-1.4-1.8-3.4-1.6-6.7.1-2.6.4-4.9.7-5.2.3-.3 2.1-.4 4-.2 3.8.3 8.4-2.1 8.4-4.3 0-1.6 5-7.9 5.7-7.2.2.2.6 10.2.8 22.2zm59.5-3.1c0 12.5.5 20.5 1.5 24.3 1.8 7.2 1.4 12.7-1.4 17.2l-2.1 3.5v-8c-.1-10.4-.8-22.1-2-31.3-1.5-11.5-1.3-19 .8-21.7.9-1.4 2-2.5 2.4-2.5.3 0 .7 8.3.8 18.5zm54.2-15.8c-.2 1.4.4 2.6 1.8 3.3 1.7.9 2 1.7 1.5 3.7-.4 1.7 0 3.2 1.2 4.5 1.3 1.5 1.5 2.3.6 3.6-1.4 2.4-3.6 2.1-4.8-.6-1.2-2.7-4.9-3.9-7-2.2-1.8 1.5-1.1 2.8 2.1 4 2.2.9 2.3 1.2 1.2 3-1.1 1.7-1 2.2.2 3 2.7 1.8 7.1 1.2 7.7-1 .3-1.1.9-2 1.4-2 .5 0 .9-.9.9-2.1 0-1.1.5-1.7 1-1.4.6.3 1 1.3 1 2.2 0 .9.6 2.4 1.3 3.2.9 1.1 1.2 3.6.9 7.3l-.4 5.7-4.6.6c-6.4.9-7.4 1.3-7 2.8.3.6 2.8 1.6 5.6 2.2 2.8.5 5.6 1.5 6.3 2.2 1.8 1.8-3.5 3.6-8.1 2.8-2.6-.4-4-.2-4.8.8-1.8 2.1.3 3.4 7.3 4.4 7.1 1 7.4 2.7.6 3.1-5.4.3-8.6 2.6-6 4.3.8.5 3.7.9 6.6.9 2.8 0 5.5.5 5.9 1.2 1.2 1.9-2.7 3.8-7.7 3.8-2.6 0-5 .4-5.3.9-1.6 2.6 7.6 5.1 11.3 3.1 2.1-1.1 2.2-1 1.9 2.2-.3 3.2-.5 3.3-5.3 3.8-3.6.4-5.1 1-5.3 2.2-.2 1.3.6 1.8 3.5 2.3 9.7 1.6 10.7 4.5 1.5 4.5-6.3 0-8.8 1-7.9 3.3.7 1.8 6.6 3 11.1 2.2 2.6-.5 3.5-.3 4 1 1.1 2.9-.4 3.7-5 3-4.5-.6-8.8.8-8.2 2.7.2.6 3.3 1.8 6.9 2.7 6.3 1.7 6.4 1.7 6.4 5.1 0 3.2-.3 3.5-3.8 4.1-4.8.8-6.5 2.3-4.8 4.3.9 1 2.2 1.3 4.2.9 3.5-.7 5.9 1.1 5.9 4.2 0 2.5-2.2 3.5-7.6 3.5-2.8 0-3.1.3-2.6 2.6.2 1.4 1.3 3.1 2.3 3.7 2.7 1.7 2.3 2.7-1.1 2.7-3.3 0-4 1.4-1.3 2.4 1.4.6 1.5.9.4 1.5-1.1.7-.9 1.1.7 2 2.7 1.4 7.5 1.4 9-.1.9-.9 1.3-.7 1.8.5 1.3 3.5-.3 4.7-6.1 4.7-4.8 0-5.5.2-5.5 2 0 2.5 2.9 4 7.4 4 2 0 3.6.4 3.6 1 0 1.3-3.1 1.3-6.4.1-1.7-.7-2.7-.6-3.5.3-1.6 1.9 2.6 5.4 7.6 6.2 2.3.3 4.4 1.3 4.7 2 .8 2-3.1 3.7-7 3.1-1.9-.3-3.7-.1-4 .5-1.2 1.9 3.3 5.1 7.2 5.2 2.1.1 3.9.7 4.2 1.4.3.9-1.5 1.2-6.1 1.2-7.1 0-8.1.4-6.7 3 1.2 2.2 6.1 4 10.7 4 2.3 0 3.3.4 3 1.2-.2.8-2.4 1.3-5.8 1.4-6.7.1-7.5 2-2.4 5.8 2.8 2.2 4.2 2.6 6.5 2.1 2.6-.6 3-.4 3 1.4 0 2.2-2.7 2.8-10.7 2.3-2.7-.1-3.3.2-3.3 1.8 0 1.3 1.5 2.7 4.8 4.2l4.7 2.3-4.7.3c-3.9.2-4.8.7-4.8 2.1 0 2.3 1.7 3.7 5.3 4.6 4.2 1.1 3.2 2.5-1.8 2.5-6.5 0-5.8 3.5 1.4 6.7l2.6 1.1-3.2.7c-4.4 1-5.8 2.8-3.8 4.9 1.2 1.2 3.6 1.6 8.8 1.6 9.7 0 7.5 1.8-2.7 2.2-5 .2-8.1.7-8.3 1.5-.8 2.2 4.4 4.4 11.6 5 9.8.8 8.8 2.7-1.7 3.1-7.3.3-8.2.5-8.2 2.2 0 3.2 4.3 5.2 11.5 5.3 9 .1 6.8 1.5-2.9 1.9-8.4.3-10.8 1.8-6.2 3.9 2.3 1.1 2.4 1.3 1 3.5-1.4 2.1-1.4 2.4 1.1 4 1.6 1 4.7 1.7 8 1.8 7.3.1 6.6 2-1 2.6-3.3.3-6 1-6.2 1.7-.7 1.9 5.8 5.3 10 5.3 2.6 0 3.7.4 3.7 1.5s-1.1 1.5-4 1.5c-7 0-6.2 5.8.8 6.3 1.8.1 3.2.5 3.2.9 0 .9-5 2.3-6.8 2-.7-.2-1.5.5-1.9 1.4-1 2.7 3.3 5.6 7.1 4.8 5.1-1 1.5 1.7-4.1 3.1-2.8.7-4.8 1.8-4.8 2.6 0 2.1 4.7 4 8.8 3.5 3.1-.3 3.6-.2 2.7.9-.6.8-2.6 1.7-4.3 2.1-3.5.7-5.7 2.1-5.7 3.6 0 1.6 6.9 3.9 9.7 3.2 1.8-.5 2.4-.4 1.9.5-.4.6-2.7 1.1-5 1.1-2.5 0-4.8.6-5.5 1.4-1.8 2.1 3.2 5.6 8 5.6 3.5 0 3.9.3 3.9 2.5 0 2.5-1.1 3-5.3 2.7-1-.1-2 .5-2.4 1.4-.8 2 3.6 6.5 6.1 6.2 1-.2 2.1.2 2.3.9.6 1.7-6.5 3.5-8.9 2.2-2-1.1-3.8-.5-3.8 1.3 0 .6 1.1 2.6 2.5 4.4l2.5 3.2-2.5 1.6c-3.2 2.1-3.2 4.4.2 5.7l2.6 1-2.1 2c-1.2 1.1-2.2 2.4-2.2 2.9 0 1.6 6.3 4.3 9.8 4.2 5.6-.2 3.1 2.2-3.4 3.3-4.8.9-6 1.4-6.2 3.1-.6 3.9 5 6 10.6 4 2.1-.7 2.3-.5 2 2.1-.3 2.6-.6 2.8-4.1 2.6-4.8-.3-7.7 1.1-7.7 3.7 0 2.9 3.5 4.3 8.7 3.5 3.9-.6 4.4-.4 4.1 1.1-.3 1.7-3.3 2.9-9.3 3.7-2.1.2-3.1 1-3.3 2.5-.5 3.1 3.7 5.4 9 5 3.3-.2 4.3 0 4.3 1.2 0 1.1-1.5 1.7-5.2 2.1-6.7.9-8.3 1.5-8.3 3.3 0 2.1 3.6 3.9 9 4.6 3.1.3 4.5 1 4.5 2 0 1.2-1.5 1.6-6.7 1.8-7.8.3-9.8 1.8-7 5.2 1.4 1.8 3.2 2.4 7.5 2.8 6.5.5 7.4 1.8 2.1 2.8-3.5.6-3.6.8-3.1 4.1l.6 3.5-3.7-.7c-9-1.6-11.2-6.9-11.2-26.2 0-7.2-.9-23.6-1.9-36.5-1.1-12.8-2.2-29.8-2.5-37.8-.3-8-1-17.2-1.6-20.5-1.3-7.8-4-45.7-4-56.2 0-4.5-.5-8.5-1-8.8-1.3-.8-4.1 5.8-4.6 10.5-.2 1.9.1 6.6.6 10.5.5 3.8 1.2 13 1.5 20.4.5 10.8.4 13.2-.7 12.9-.7-.3-2.1-1.8-3-3.4-1.5-2.6-1.6-3.9-.8-9 .6-3.3.9-24.3.8-48.4-.1-28.5.3-47.3 1.2-57 1.1-11.6 1.1-21 .2-46.5-1-29.3-1.2-32.3-3.1-36-1.8-3.4-2.7-4.1-5.9-4.5-2.5-.3-3.8-1.1-4-2.3-.3-1.3.4-1.7 3-1.7 4.3 0 7.1-2 6.3-4.2-.6-1.4-1.5-1.6-5.1-1.1-3.9.5-4.4.4-4.4-1.4 0-2.2 3.4-4 8.5-4.5 2.8-.3 3-.6 2.6-3.8-.4-4.4-1.8-7-3.6-7-.8 0-1.5-.5-1.5-1 0-.6 1.1-1 2.5-1 2.2 0 2.5-.4 2.5-3.9 0-2.2-.6-4.4-1.5-5.1-.9-.8-1.3-2.1-.9-3.6.4-1.3.2-3-.4-3.7-.5-.6-1-6.7-1-13.4 0-6.8-.3-14.1-.7-16.4-.7-4-.7-4.1 2.1-3.8 3.9.4 5.9-.8 4.3-2.7-1.4-1.7-4.1-1.8-5.7-.2-.9.9-1.2.6-1.2-1.3 0-3.6.8-4 6-3.7 4 .3 4.5.5 4.2 2.5zm121.6 4c-1 1.2-1.3 1.2-2.1-.2-.5-.9-.6-2.4-.2-3.3.6-1.6.8-1.5 2.1.2 1 1.5 1.1 2.3.2 3.3zm-216 8.6c.2 2.5-.2 5.6-.8 6.7-.8 1.6-.8 2.5 0 3.5.6.7 1 3.7.8 6.6-.4 6.1-2.1 7.9-6.5 6.3l-2.8-.9-.3-13.5c-.1-7.4 0-14 .2-14.7.4-1 1.4-1 4.8 0 4.2 1.3 4.3 1.4 4.6 6zm146.5-3.8c.1.5-.6 1.1-1.5 1.3-1.1.2-1.8-.3-1.8-1.3 0-1.7 3-1.8 3.3 0zm-76.5 1.1c3.7 1 2.5 2.4-2.3 2.4-3.3 0-4.5-.4-4.5-1.5 0-1.6 2.8-1.9 6.8-.9zm135.1 6.5c.1 4-1.3 5.7-5 6.1-2.1.3-2.4-.1-2.1-2.6.2-1.5 1.5-4.7 2.9-6.9 2.3-3.7 2.7-3.9 3.4-2.2.4 1.1.8 3.6.8 5.6zm-11.5-2.2c.3.4-.3 1.9-1.4 3.1-1.1 1.3-2 3.1-2 4 0 3-3.7 10.3-4.5 9-.4-.6-.2-1.7.4-2.3.6-.6 1.1-1.7 1.1-2.4s.9-3.7 2.1-6.8c2-5.3 3.1-6.5 4.3-4.6zm18.6 3.8c0 2.3-.4 3.3-.9 2.7-.9-.8-.4-6.4.5-6.4.2 0 .4 1.7.4 3.7zm-134.8-.2c0 .5-.5 1.1-1.1 1.3-.6.2-1.1-.4-1.1-1.3s.5-1.5 1.1-1.3c.6.2 1.1.8 1.1 1.3zm-4.2 3.2c.8.4-.5 1-3 1.4-9.1 1.5-12.8.7-7.7-1.7 2.1-1 7.6-.8 10.7.3zm42.8 2.4c.2.5 1.2.9 2.2.9 3.8 0 4.4 2 5.6 18.3.4 5.4 1 10 1.4 10.2.4.2.4 2.4.1 4.7-.6 4 .4 35.7 1.3 43.8.2 1.9.7 8 1 13.5.4 5.5.9 11.8 1.2 14 .3 2.2.9 15 1.4 28.5.8 21.5.7 25.3-.8 30.7-1.3 5.1-1.4 6.9-.4 9.5.6 1.8.9 4.3.6 5.6-.4 1.2-.1 2.9.6 3.7 1 1.2 1 1.9.2 2.7-1.8 1.8-1.5 2.8 1.4 3.8 2.6 1 2.5 3-.2 3-2.1 0-1.7 3.1.6 3.7 1.1.3 2 .9 2 1.3s-.9 1-2 1.3c-1.1.3-2 1-2 1.7s.9 1.4 2 1.7c2.4.6 2.6 1.9.5 2.7-2 .7-1.9 3.2.1 4 1.5.6 1.5.8-.1 2.6-1.7 1.9-1.7 2.1-.1 3.9 1.1 1.2 1.4 2.1.7 2.6-1.8 1.1-1.3 8.6.7 10.1 1.5 1.2 1.5 1.5.2 2.4-1.3.9-1.3 1.2.2 2.4 1.3 1 1.5 1.5.6 2.4-.9.9-.9 1.5 0 2.4.8.8.8 1.5.1 2.4-.7.8-.7 1.9-.1 3.1.5 1 1.2 4.4 1.5 7.6.3 3.2 1.1 6.5 1.8 7.3.9 1.1.9 1.8-.2 3-.9 1.2-1 2-.2 3.3.7 1.1.8 2.3.3 3.2-.6.8-.4 2 .6 3 1.3 1.4 1.3 1.8-.1 2.9-2.1 1.8-1.9 4.7.6 6 1.9 1.1 1.9 1.3.5 3.5-1.4 2.1-1.5 3.6-.5 10.7.6 4.6 1.1 9.9 1 12 0 2.1.6 4.1 1.5 4.8 1.3 1.1 1.2 1.5-.3 3.2-1.7 1.9-1.7 2 .1 3.4 1.6 1.1 1.7 1.6.6 2.9-1.1 1.3-1.1 2.1-.2 3.6.9 1.4.9 2.5 0 4.4-.9 2-.8 2.8.6 4.4 1.7 1.8 1.7 2 0 2.9-1.5.8-1.6 1.3-.5 2.6.7.8 1 2 .6 2.6-.4.6-.1 1.8.6 2.7 1.1 1.3 1 1.7-.4 2.8-2.1 1.5-2.2 6.4-.1 7.2 1.3.5 1.2.8-.5 2.5-2.6 2.4-2.7 3.8-.1 4.5 2.4.6 2.6 2.1.5 2.9-2 .8-1.9 3 .1 3.8 1.5.6 1.5.8-.1 2.6-1.7 1.9-1.7 2.1 0 4 1.5 1.6 1.6 2.2.5 3.5-1.1 1.3-1 1.8.5 2.9 1.3.9 1.5 1.5.7 2-1.8 1.1-1.4 4.3.4 5 1.5.6 1.5.8 0 2.5-1.3 1.4-1.4 2.4-.7 4.4.5 1.3.7 3.3.5 4.4-.3 1-.1 2.9.4 4.3.6 1.5.5 3.4-.2 5.2-.8 2.1-.7 3.4.2 4.8.7 1.1 1 3.1.6 4.4-.3 1.3-.1 2.7.6 3.1.8.5.8 1 0 2-.6.8-1 2.2-.9 3.2.2 1-.1 2.8-.5 4.1-.5 1.4-.2 3.3.8 5.3 1.2 2.4 1.3 3.5.4 4.9-.9 1.4-.9 2.2.1 3.4 1 1.2 1.1 1.9.2 3-.9 1-.8 1.6.4 2.6.9.7 1.3 2 1 2.8-.3.8-.1 2 .5 2.7.8.9.8 1.5 0 2-1.9 1.2-1.2 5.6 1.1 6.2 2.1.6 2.1.7.4 1.9-1.5 1.1-1.6 1.6-.5 2.9 1 1.2 1 1.8 0 3s-1 1.8 0 3 1 1.8 0 3c-1 1.3-1 1.9.4 3.3.9 1 1.3 2.2.9 2.6-.4.4 0 1.2 1 1.7 1.8 1.1 2.4 4.9.6 4.9-.6 0-1.9-.5-2.9-1-1.5-.8-2.1-.6-3 1-.9 1.6-.8 2.1.5 2.5.8.3 2.2.7 3 1 2 .6 1.9 2.5-.1 2.5-1.3 0-1.1.4.6 1.8 2.5 2 2 4.2-.8 4.2-1.4.1-1.2.5.8 2.1 2.2 1.9 2.3 2.2.7 3-.9.6-1.7 1.9-1.7 2.9 0 1.1-.6 2-1.4 2-.9 0-.3 1.1 1.5 3 3.3 3.3 3 5.3-.6 4.8-3.2-.4-3.4 1.4-.3 2.9 1.4.7 3.1 1.9 3.7 2.7 1.5 1.8.3 4.6-1.9 4.6-2.3 0-3.6 1.8-1.8 2.5 6.2 2.2 6.7 2.5 6.2 4-.4.9-1.8 1.5-3.5 1.5-2.7 0-2.9.2-2.3 2.7.3 1.6 1.9 3.9 3.5 5.3 3.3 2.9 3.5 6.1.7 10.2-2.1 3.1-1.6 7 1.2 10.3 3.2 3.8 3.1 4.4-1.2 8.7l-4.3 4.3 3.3.3c3.9.4 3.3 2.2-.8 2.2-8.3 0-9-1.6-9.6-24-.2-8-.8-33-1.4-55.5-.6-22.6-1.3-42.8-1.5-45-.3-2.2-.7-11.9-1.1-21.5-.3-9.6-1.2-21.3-1.9-26-.8-4.7-1.6-17.7-2-29-.9-32-1.5-45.8-2.5-55.5-.5-5-1.2-14.4-1.5-21-.3-6.6-1-18.8-1.5-27-.5-8.3-1.2-20.9-1.5-28-.9-18.6-4.3-51.5-5.5-53-.5-.6-.8-1.4-.6-1.6.3-.2 0-4.5-.5-9.4-.5-5-.9-13.1-.9-18 .1-5-.4-13.1-.9-18-.6-5-1.3-12.4-1.6-16.5-.3-4.1-1-11.6-1.5-16.5-.5-5-1.5-18.5-2-30-.6-11.6-1.7-30.2-2.5-41.5-2.2-31.7-2.7-43-2.1-44.6.5-1.2 1.4-1.4 3.8-.9 1.8.4 3.5 1.1 3.6 1.6zm-61.5 9.3c.2 7.2-.4 9.4-1.7 6.1-.6-1.6.4-14.8 1.1-14.1.2.2.5 3.8.6 8zm160.4-6.2c-.3.8-.6.5-.6-.6-.1-1.1.2-1.7.5-1.3.3.3.4 1.2.1 1.9zM149.8 207c.1 2.7-.3 5-.9 5-.5 0-.9-.5-.9-1 0-.6-1.2-1.5-2.6-2-2.2-.9-2.4-1.3-1.4-2.5 2.5-3 0-2.7-3 .3-3.4 3.4-3.9 6.2-1.2 6.2 2.9 0 3.4 1.2 1.2 2.7-3.3 2.3-2.5 4.3 1.8 4.4 2 .1 4.3.1 5 0 1.5-.2 1.9 1 2.5 7.1.5 5.5-.4 7.8-2.6 6-1.1-1-1.7-.9-2.7.3-.7.8-1.8 1.5-2.4 1.5-.7 0-2.1.6-3.1 1.4-1.6 1.2-1.7 1.6-.6 3 .7.9 2.4 1.6 3.7 1.6 1.5 0 2.4.6 2.4 1.6s-.6 1.3-1.8 1c-1-.4-2.6 0-3.6.7-1.7 1.3-1.7 1.4-.1 3 .9.9 2.3 1.7 3.2 1.7 2.6 0 .8 2.4-2.5 3.2-2.2.6-3.2 1.5-3.2 2.8 0 1.1-.5 2.9-1.2 3.9-1.9 3-.3 5.1 3.9 5.1 2.9 0 3.4.3 2.5 1.2-.7.7-2.7 1.3-4.5 1.4-1.8 0-4.4.4-5.9.8-2.7.8-2.8.7-2.8-3.2 0-2.2-.6-4.5-1.4-5.1-.8-.7-1.2-2-.9-3 .7-2.6-2.2-4.7-4.2-3.1-1.2 1-1.9 1-2.8.1-1.6-1.6-1-16.6.9-20.2.7-1.5 1.4-3.9 1.4-5.3v-2.5l2.3 2.2c1.3 1.2 3.2 2.7 4.3 3.4 1.7 1.1 1.5 1.2-1.8 1.2-5.2.1-5.6 2.5-2.3 11.7 2.7 7.3 2.8 7.5 4.7 5.7 1.2-1 1.7-2.5 1.4-3.7-.3-1.1.1-2.7.8-3.6.8-.8 1.6-3.3 1.9-5.5.3-2.2 1-5.8 1.6-8 .6-2.2 1.1-7.7 1.1-12.2 0-4.5.4-8.4 1-8.8.5-.3.7-1.1.4-1.9-.7-1.7 3.3-3.5 8.3-3.5l4.1-.1v5zm131.6 6.3c.6.9.7 1.9.3 2.3-.9.9-3.7-1.5-3.7-3.3 0-1.8 2-1.2 3.4 1zM249 213c1.1.7 0 1-3.7 1-2.9 0-5.3-.5-5.3-1 0-1.3 7-1.3 9 0zm-178.9 1.7c-.5 1-1.3 2.7-1.6 3.8l-.7 2-.8-2c-1.6-3.8-1.1-5.5 1.5-5.5 2.1 0 2.4.3 1.6 1.7zm5.9.3c0 2.3-1 2.6-2.8.8-1.8-1.8-1.5-2.8.8-2.8 1.3 0 2 .7 2 2zm-31.9 0c1.1 0 2.4 1.1 3 2.4.9 2 .8 2.7-1 4.5-1.2 1.2-2.1 2.8-2.1 3.6 0 .8-.4 1.5-1 1.5-1.5 0-1.2-1.2 1-4 1.1-1.4 2-3.1 2-3.7 0-1.5-5.4-4.5-6.4-3.6-.3.4-.6.1-.6-.6 0-.8.6-1.1 1.6-.7.9.3 2.4.6 3.5.6zm205.9 2.6c1.2 1.2 1.2 1.4-.4 1.4-1.2 0-1.6.5-1.2 1.5.3.8-.2 1.8-1 2.3-1.2.6-.6 1.1 2.4 2 4.5 1.4 5.5 3 4.6 7.8-.7 3.8-2.5 4.7-2.1 1.1.2-2.1-.2-2.2-5.3-2-14.7.4-17.7 2.5-4.8 3.3 4.5.3 8.3 1 8.5 1.6.5 1.4-6.9 4.3-8.7 3.3-.8-.4-3.6-1.5-6.2-2.4l-4.7-1.6.3-6.8c.2-5.5.7-7.4 2.9-10.3 2.6-3.4 2.8-3.5 8.4-3 3.2.2 6.5 1 7.3 1.8zM76 223c0 1.9-.5 3-1.4 3-1.8 0-2.9-4.2-1.3-5.2 2.1-1.3 2.7-.9 2.7 2.2zm-36-1c0 .5-.5 1-1.1 1-.5 0-.7-.5-.4-1 .3-.6.8-1 1.1-1 .2 0 .4.4.4 1zm12 3.1c0 .5-.4.9-1 .9-.5 0-1-.7-1-1.6 0-.8.5-1.2 1-.9.6.3 1 1 1 1.6zm7.8 6.1c-.6 1.6-3.6 3.4-4.4 2.6-.3-.4-.4-1.4-.1-2.3.7-1.7 5.1-2.1 4.5-.3zm84.2 27.7c0 .6-.4 1.3-1 1.6-.5.3-1-.1-1-.9 0-.9.5-1.6 1-1.6.6 0 1 .4 1 .9zm15.5 9.1c2.7 0 .7 1.6-3.2 2.5-1.8.3-3.4.2-3.8-.4-1-1.8.6-3.3 2.9-2.7 1.1.3 3 .6 4.1.6zm-20.5 8c.7 1.3 2.1 2 4 2 4.7 0 3.6 2.5-1.2 2.7-2.3.2-4.6.7-5.1 1.2-1.6 1.6.1 4.1 2.5 4.1 1.3 0 3.4.7 4.6 1.6 1.7 1.2 3.5 1.4 7.2.9 3.4-.5 5-.3 5 .4s-2.7 1.1-7.5 1.1c-5.9 0-7.7.3-8.2 1.5-.7 2-.1 2.6 3.9 3.5l3.3.8-3.7.1c-2 .1-4-.4-4.3-.9-.8-1.3-2.5-1.3-2.5-.1 0 .5 1.8 1.5 4 2.3 4.1 1.3 5.1 3.5 1.4 3-1.1-.2-2.9.7-3.9 1.8-1.6 1.8-1.7 2.3-.5 3 1.2.7 1.1 1.2-.4 2.9-2 2.2-1.8 6.6.4 6.6 3.7.1 8.1 1.8 9 3.5 1.9 3.6 1.1 4-4.2 2-2.9-1.1-6.3-2-7.5-2-4 0-4-.6-2.9-28.5.2-5.5.7-11.2 1.1-12.8.9-3.2 3.9-3.7 5.5-.7zm21.8 6.9c.4 1.1-.3 1.2-3.4.7-5.6-1.1-6.4-2.5-1.3-2.3 2.6.1 4.4.7 4.7 1.6zm-2.3 13.1c-2.8 1.2-4.5 1.2-4.5 0 0-.6 1.5-1 3.3-.9 2.7 0 2.9.2 1.2.9zm27.5 6c0 .5-.7 1-1.5 1s-1.5-.5-1.5-1c0-.6.7-1 1.5-1s1.5.4 1.5 1zm-27.3.6c-.3.3-1.2.4-1.9.1-.8-.3-.5-.6.6-.6 1.1-.1 1.7.2 1.3.5zm-14.4 20.1c1.4.8-1.4 3.3-3.7 3.3-2.9 0-6.1-2.4-5.2-3.9.7-1.1 6.7-.7 8.9.6zm39.2 31.3c.3.5.2 1-.4 1-.5 0-1.3-.5-1.6-1-.3-.6-.2-1 .4-1 .5 0 1.3.4 1.6 1zm8.5 33c0 .5-.5 1-1.1 1-.5 0-.7-.5-.4-1 .3-.6.8-1 1.1-1 .2 0 .4.4.4 1zm-20 85.6c0 1.4-.4 2.3-1 1.9-.5-.3-1-1.5-1-2.6 0-1 .5-1.9 1-1.9.6 0 1 1.2 1 2.6zm29.5 45.4c.3.5-.1 1-.9 1-.9 0-1.6-.5-1.6-1 0-.6.4-1 .9-1 .6 0 1.3.4 1.6 1zm150 42.5c0 1-.6 2-1.2 2.2-.8.3-1.3-.5-1.3-2.2 0-1.7.5-2.5 1.3-2.3.6.3 1.2 1.3 1.2 2.3zm-163.2 34.9c1.2.3 4.4.7 7.2 1 8.8 1.1 8.2 3.8-.9 3.9-8.2.1-13.7-5.1-13.6-13 .1-2.4.4-2.1 2.6 2.5 1.7 3.4 3.3 5.3 4.7 5.6zm77.7 9c0 .3-.4.8-1 1.1-.5.3-1 .1-1-.4 0-.6.5-1.1 1-1.1.6 0 1 .2 1 .4zm88 3.7c0 1-.7 1.9-1.5 1.9-1.5 0-2.1-3.1-.9-4.3 1.1-1 2.4.3 2.4 2.4zm.3 10.3c.7 1.6-.1 2.6-2 2.6-.7 0-1.3-.9-1.3-2 0-2.3 2.5-2.7 3.3-.6zm-10.1 1.8c-.6.6-1.5.8-1.9.4-.4-.4-.1-1.1.7-1.6 1.9-1.2 2.7-.3 1.2 1.2zm9.8 9.3c0 .8-.7 1.5-1.5 1.5s-1.5-.7-1.5-1.5.7-1.5 1.5-1.5 1.5.7 1.5 1.5zm-9.2 6c-.3.3-1.3.2-2.2-.1-1.4-.5-1.5-.9-.4-1.5 1.3-.8 3.6.6 2.6 1.6zm-90.9 4.1c2.9-2.6 2.8 0-.1 3.1-2.7 2.8-3.2 2.9-5.8.1-3.1-3.4-2.6-5.1.9-3 2.8 1.6 3.1 1.5 5-.2zm99.8 1c-.9.9-2.8-.6-2.1-1.8.4-.6 1-.6 1.7.1.6.6.8 1.3.4 1.7zm-8.2 1.4c1.2 1.9-.5 3-2.5 1.7-1.1-.6-2-1.5-2-1.9 0-1.2 3.8-1 4.5.2zm8.8 7.5c.1.5-.6 1.1-1.5 1.3-1.1.2-1.8-.3-1.8-1.3 0-1.7 3-1.8 3.3 0zM256 652c0 1.3-.7 2-1.8 2-3 0-3.4-1.3-1-2.7 3-1.6 2.8-1.6 2.8.7zm18.8 6.4c.9.9 1.3 1.8 1 2.1-1 1-10.2-2.1-10.6-3.5-.6-1.8 7.6-.7 9.6 1.4zm70-.2c-.5 1.5-11.8 2.3-11.8.9 0-.5 1.9-1.2 4.3-1.4 2.3-.2 5-.4 6-.5 1.1-.1 1.7.3 1.5 1zm-.7 8.1c-.1.4-.3.7-.6.7s-1.7 0-3.2-.1l-2.8-.1 2.5-.8c2.8-.9 4.2-.8 4.1.3zm10.9.1c0 .8-.5 1.8-1.1 2.2-1.4.8-3.3-1.1-2.5-2.5 1-1.6 3.6-1.3 3.6.3zm-83.2 3.1c1.2.3 2.2 1.1 2.2 1.6 0 .6-.9.7-2.2.3-1.3-.4-3.2-.8-4.3-.9-2.7-.3-2.7-.3-2-1.5.4-.6 1.4-.9 2.3-.6 1 .2 2.7.7 4 1.1zm.3 4.5c1.6-1.1 2.9-.4 2.9 1.6 0 1.1-.9 1.3-4 .8-4.4-.7-7.3.8-6.3 3.2.3.8 1.8 1.4 3.4 1.4 1.6 0 2.9.4 2.9 1 0 .5-1.8 1-4 1-4 0-4 0-4-3.8 0-4.8 1.4-6.2 5-5.2 1.5.4 3.3.4 4.1 0zm73.6.7c.5 1.4-5.4 1.8-9.7.6-2.5-.7-2.5-.7.5-1.3 4.9-.9 8.8-.6 9.2.7zm8.2 1.2c.9.6 1 1.1.2 1.5-1.3.8-3.1-.1-3.1-1.5 0-1.1 1.1-1.1 2.9 0zm-7.9 7.8c0 1.5-.8 1.8-5.2 1.5-6.5-.4-8.1-.9-7.3-2.2.3-.5 3.3-1 6.6-1 5 0 5.9.3 5.9 1.7zm-98.6 5.4c-.7 1.1-4.4 1.2-4.4.1 0-1.5 1.1-2 3-1.5 1.1.3 1.7.9 1.4 1.4zm23.2-.6c1.8 1.3 1.7 1.4-1.8 1.5-3.7 0-5.1-1.3-2.5-2.3 1.9-.8 2.2-.8 4.3.8zm-35.9 4.3c.9 9.9 1.1 35.4.3 31.2-1.2-6.5-2.4-36.6-1.4-35.7.4.4 1 2.5 1.1 4.5zm21.3-2.3c.7.8.8 1.5.2 1.5-.5 0-1.5-.7-2.2-1.5-.7-.8-.8-1.5-.2-1.5.5 0 1.5.7 2.2 1.5zm88 1.4c0 1.1-6.1 2.1-7.5 1.2-.5-.3.8-.9 3-1.2 2.2-.3 4.1-.7 4.3-.8.1 0 .2.3.2.8zm-74.9 2.6c2.4.9 4.9 1.3 5.7 1 .8-.3 1.2 0 .9.7-.2.9-2 1.2-5.3.9-5.6-.4-6.4-.7-6.4-2.7 0-1.7-.2-1.7 5.1.1zM346 700c0 .5-.5 1-1.1 1-.5 0-.7-.5-.4-1 .3-.6.8-1 1.1-1 .2 0 .4.4.4 1zm-74 3.5c1.3 1.4 2.1 2.7 1.9 3-.3.2-2.5.1-5-.3-3.5-.6-4.5-1.2-4.7-3-.3-1.8.1-2.2 2.6-2.2 1.8 0 3.7.9 5.2 2.5zm-27.4 2.2c-1 1-1.9-.5-1-1.8.6-1.1.8-1.1 1.2 0 .2.7.1 1.5-.2 1.8zM356 704c0 .5-.4 1-1 1-.5 0-1-.5-1-1 0-.6.5-1 1-1 .6 0 1 .4 1 1zm-10 4c0 .5-2.1.9-4.7.9-4.7-.2-4.7-.2-1.3-.9 5.2-1.1 6-1.1 6 0zm-31.4 4.6c-.3.8-1 1.2-1.6.9-.7-.4-.6-1.4.2-2.8 1.2-2.4 2.4-.8 1.4 1.9zm-45.3-1.4c2.8 1.4 3.8 3.4 1.1 2.4-.9-.3-2.7-.6-4-.6-1.5 0-2.4-.6-2.4-1.5 0-1.8 1.7-1.9 5.3-.3zm-23.3 1.2c0 .8-.4 1.7-.9 2-1 .7-2.3-1.9-1.4-2.8 1.1-1.1 2.3-.6 2.3.8zm111 .6c0 1.3-.7 2-2 2-1.9 0-2.7-2-1.3-3.3 1.3-1.4 3.3-.6 3.3 1.3zm-86 5.8c3 2.5 1.8 4.3-2.3 3.5-4-.7-5.1-1.7-4.4-3.7.8-2.1 4-2 6.7.2zm38 .4c0 1.6-.3 1.9-1.1 1.1-.6-.6-.8-1.6-.5-2.2 1.1-1.7 1.6-1.3 1.6 1.1zm37.4-.3c.3.5-1.4 1.1-3.9 1.3-4.6.3-6.3-.7-2.2-1.5 4-.8 5.6-.7 6.1.2zm11.2 4.9c-.7 1.1-4.6.4-4.6-.8 0-1.2 3.3-1.8 4.4-.9.4.4.5 1.2.2 1.7zm-31.3 1.7c4.2.9 3.2 2.3-1.9 2.7-4.8.3-6.2-.7-5-3.7.4-1.1 1-1.3 2.3-.6 1 .5 3 1.2 4.6 1.6zm-56.2 2.6l2.4 2.1-2.5-.6c-1.4-.3-3.3-.6-4.2-.6-1 0-1.8-.7-1.8-1.5 0-2.2 3.4-1.8 6.1.6zm76.4.9c-.3.5-1.3.6-2.1.3-1.2-.4-1.3-.8-.3-1.4 1.5-.9 3.2-.2 2.4 1.1zM237 737.8c0 9.4-1.4 8-1.8-1.9-.2-4.8 0-6.9.7-6.4.6.3 1.1 3.9 1.1 8.3zm122-4.6c0 1-.4 1.8-1 1.8-.5 0-1-1.5-1-3.3 0-2.4.3-2.8 1-1.7.5.8 1 2.3 1 3.2zm-30.4-.1c.3.5-1.1.9-3.1.9-2.9 0-3.6.3-3.3 1.7.2 1 1.4 1.9 2.8 2.1 4.7.7 4.8 2.3.1 2-3.8-.3-4.6-.7-5.4-3.1-1.4-4.3-.5-5.3 4.2-4.9 2.3.2 4.4.8 4.7 1.3zm-59.9 1.1c4.2 1.5 4.3 2.9.1 2.2-5-.9-6-1.3-5.3-2.4.8-1.3 1.1-1.3 5.2.2zm41 5c-.3.8-.6.5-.6-.6-.1-1.1.2-1.7.5-1.3.3.3.4 1.2.1 1.9zM347 738c0 .5-.7 1-1.5 1s-1.5-.5-1.5-1c0-.6.7-1 1.5-1s1.5.4 1.5 1zm-81 2c0 .5-.4 1-1 1-.5 0-1-.5-1-1 0-.6.5-1 1-1 .6 0 1 .4 1 1zm-19 1c0 .5-.2 1-.4 1-.3 0-.8-.5-1.1-1-.3-.6-.1-1 .4-1 .6 0 1.1.4 1.1 1zm26 5.1v3.5l-4.5-1c-5.5-1.3-6.3-3.8-.9-2.9 3.5.6 3.7.5 3.1-1.9-.4-1.4-.4-2.8 0-3.2 1.1-1.1 2.3 1.7 2.3 5.5zm86-3.6c0 1.6-3.5 2.1-4.4.6-.8-1.2.4-2.1 2.6-2.1 1 0 1.8.7 1.8 1.5zm-27.7 3.4c1.5 1.5 1 1.7-6.5 2.5-5.6.5-6.8.4-6.8-.8 0-.8.8-2 1.8-2.6 2-1.3 9.9-.7 11.5.9zm16.7.8c0 1.5-7.5 1.9-8.4.4-.8-1.3-.1-1.6 4.3-1.6 2.7-.1 4.1.3 4.1 1.2zM244.1 755c2.1.6 5.9 1.1 8.4 1.2 4.2 0 4.5.2 4.5 2.8 0 2.3.5 3 3 3.5 1.6.4 3.9.4 5 0 1.2-.4 3.9-.4 6.2 0l4.1.7-2.9 2.5c-1.6 1.3-4.1 2.9-5.6 3.4-1.6.6-2.8 1.5-2.8 2s-1 .9-2.2.9c-5.2.1-19.8 12.3-19.8 16.6 0 .7 1.4 2.9 3.1 4.9 2.2 2.5 3.9 3.5 6 3.5 4.4 0 24.4-3.8 39.9-7.7 3-.7 6.6-1.3 8-1.3 1.4 0 4.5-.9 6.9-2 2.4-1.1 5.4-2 6.7-2 1.3 0 3.2-.4 4.2-.9.9-.5 3-1.3 4.7-1.8 1.7-.4 3.9-2.3 5-4 1.9-3 2.3-3.2 6.5-2.7 3.7.5 4.8.2 6.4-1.5 1.1-1.2 2.6-2.1 3.5-2.1.9-.1 3.2-.7 5.2-1.4 3.2-1.1 4.1-1.1 7.2.4 1.9.9 5.1 2 7.2 2.3 4.3.7 11.5 6.9 11.5 9.9 0 1.1-1.6 2.4-4.5 3.7-2.5 1.1-4.5 2.2-4.5 2.5 0 .3 1.1 2.2 2.5 4.2 3.3 4.9 2 6.4-3.4 3.9-3.5-1.5-4.6-1.6-8.5-.5-3.2.9-4.9.9-6.4.1-5.1-2.7-22.8.1-27.1 4.3-1.2 1.3-1.1 1.6 1 2.5 1.3.5 6.8 1.7 12.2 2.7 5.3.9 9.7 2 9.7 2.5s-.1.9-.2 1c-.2 0-29.4.3-65 .6-47.5.4-64.8.3-64.8-.5 0-1.5 4.3-2.6 7.3-1.9 1.6.4 2.7-.1 4-1.9l1.8-2.4h-3.6c-2 0-5.3.9-7.5 2-5.1 2.6-5.9 2.5-10.2-1-2.1-1.8-4.3-2.8-5.2-2.4-2.2.9-8.2-5.5-7.8-8.4.4-2.7 9.2-9.5 17-13.1 4.7-2.2 5.3-2.3 6.9-.9 2.8 2.5 8 3.1 13.2 1.7 5.4-1.4 7-2.5 8.2-5.6.6-1.6 1.7-2.3 3.6-2.4 11.7-.6 14.4-1.4 12.9-3.8-.6-1-11.2-.7-14.8.5-2.3.7-2.6-.1-3.3-9.1-.3-4.4-.8-8.9-1.1-10-.4-1.6-.1-1.4 1.6.7 1.2 1.6 3.9 3.2 6.1 3.8zm29.5-1.5c-.3.9-1.1 1.3-1.6 1-.8-.5-.7-1.1.1-2.1 1.4-1.8 2.4-1.1 1.5 1.1zm58 .6c2.3 1.9.8 2.4-9.2 2.6-10 .2-11.8-.7-6.1-3.3 3.7-1.7 13-1.3 15.3.7zm15.4.9c0 .5-1.1 1-2.5 1s-2.8 0-3.2.1c-.4 0-.9-.4-1.1-1-.2-.7 1.1-1.1 3.2-1.1 2 0 3.6.4 3.6 1zm12 2.5c0 2-.5 2.5-2.5 2.5-2.4 0-5.1-3.1-3.8-4.4.3-.3 1.9-.6 3.5-.6 2.3 0 2.8.4 2.8 2.5zm-24.2 6.9c.4 3.2-1.8 3.5-3.7.5-1.2-2-1.9-2.1-9.7-1.6-4.6.2-8.4.1-8.4-.3 0-1.4 3.9-1.8 13-1.4 8.3.3 8.5.3 8.8 2.8zm12.2-1.5c0 .5-.7 1.1-1.5 1.5-.9.3-1.5 0-1.5-.9 0-.8.7-1.5 1.5-1.5s1.5.4 1.5.9zm-27.4 5.5c-2.1.7-4.4 2-5.2 3.1-1.3 1.7-1.4 1.7-2 .1-1.1-2.8 1.8-4.3 8.6-4.4 1.9 0 1.5.3-1.4 1.2zm-32.3 1.8c-.3 1.3-1 2.8-1.5 3.5-.5.7-.5 1.4.2 1.8 1.6 1 1.2 2.1-1.5 3.3-1.4.6-2.5 1.7-2.5 2.4s-1.7 2.7-3.8 4.4c-3.3 2.8-4.8 3.2-12.2 3.9-4.7.4-9.6 1.2-10.9 1.7-1.8.6-2.8.5-4-.6-3.6-3.7 3.5-11.2 16.6-17.7 4.8-2.4 7-3 9.6-2.5 2.5.5 3.8.2 4.7-.9.7-.8 2.3-1.5 3.5-1.5 1.9 0 2.2.4 1.8 2.2zm19.7 1.4c0 1.4-.4 2.3-1 1.9-.5-.3-1-1.5-1-2.6 0-1 .5-1.9 1-1.9.6 0 1 1.2 1 2.6zm-72.9 4.7c-.8.8-1.1.7-1.1-.4 0-2 1.3-3.4 1.8-1.9.3.7-.1 1.7-.7 2.3zm147 18.8c7 5.8 17.5 10.9 22.5 10.9 3.8 0 11.4 2.4 11.4 3.5 0 .3-12.5.5-27.9.5-26.6-.1-27.9-.2-27.4-2 .3-1.2-.4-2.4-2.1-3.5-1.4-1-2.4-2.1-2.1-2.5.8-1.3 5.8-1.8 8.4-.8 6.8 2.5 14.7-2.4 12.3-7.7-1.6-3.4-.8-3.2 4.9 1.6zm-34.5 5.1c2.4 1.2 4.2 2.3 4 2.5-.4.4-14.3-1.5-17-2.3-1.5-.5-1.6-.8-.5-1.5 2.5-1.6 9.1-.9 13.5 1.3zm-163.2 6.7c1.4 1.6 2.9 1.8 9.6 1.6 4.4-.2 8.2.1 8.5.6.4.5-2.9.9-7.8.9-4.6 0-11.8.3-16 .6-6.7.6-7.7.5-7.7-.9 0-3.9 10.4-6.1 13.4-2.8z"/><path d="M288.3 141.1c-2.4.9-3.1 4.3-1.3 5.4.6.3 1 1.7 1 3 0 3.3 1.4 3.8 4 1.7 2.1-1.7 2.2-2.1 1-5.8-1.6-5-2-5.4-4.7-4.3zM57.8 72.2c-1.6.5-2.8 1.3-2.8 1.8 0 1.6 3.2 2 5.3.5 1.2-.8 3.2-1.5 4.4-1.5 1.3 0 2.3-.5 2.3-1 0-1.3-5.6-1.2-9.2.2zM76.5 79c.3.5.8 1 1.1 1 .2 0 .4-.5.4-1 0-.6-.5-1-1.1-1-.5 0-.7.4-.4 1zM177.2 105.1c.7 2 1.4 2.7 2 2.1.6-.6.6-1.7-.1-3.1-1.8-3.2-3.1-2.5-1.9 1zM194 113.6c-2.9 2.5-3 2.7-1.4 4.5 2 2.2 3.6 1.5 3.2-1.4-.2-1.4.5-2.5 1.9-3.2 1.3-.7 2-1.5 1.6-1.8-1.1-1.2-2-.8-5.3 1.9zM201.9 112.1c-1 .6-.7.9 1.4.9 2.9 0 3.5-.5 1.4-1.3-.8-.3-2-.1-2.8.4zM219.1 117c1.9 1 4.1 2.6 4.8 3.4.7.9 1.7 1.3 2.2 1 1.4-.8-6-6.4-8.5-6.4-1.7.1-1.3.5 1.5 2zM198.5 119c.4.6 1.1.8 1.6.5 1.4-.9 1.1-1.5-.7-1.5-.8 0-1.2.5-.9 1zM207 119c1.9 1.3 3 1.3 3 0 0-.6-1-1-2.2-1-1.9 0-2 .2-.8 1zM216.6 121.2c2.2 1.9 5.3 3.8 6.9 4.2 1.7.4 3.8 1.4 4.7 2.3.9.8 2.2 1.2 2.7.8 1.4-.8 1.4 2 0 4.3-.9 1.5-.8 2.5.7 4.7l1.9 2.9.5-4.4c.3-2.5.8-5 1.2-5.5 1.2-2-1-3.9-6.2-5.2-2.8-.7-6.6-2.4-8.3-3.7-1.8-1.3-4.3-2.7-5.6-3.1-1.9-.6-1.6-.1 1.5 2.7zM232.5 122.3c1.1.7 3.4 2.8 5.2 4.6 2.1 2.2 3.3 2.9 3.3 2 0-1.7-3.3-5-6.7-6.8-2.9-1.5-4.4-1.3-1.8.2zM246.1 129.9c-1.1.7-.9 1.1.8 2.1 1.3.6 3 .9 3.9.5 1.5-.6 1.5-.8-.2-2.1-2.3-1.6-2.6-1.7-4.5-.5zM237 142c-2.5 2.6-3.1 2.8-6.1 2-2.5-.7-3.8-.6-5.6.5-1.3.9-2.3 1.7-2.3 2 0 .2 2.4.3 5.3.3 2.8 0 6.4.3 7.9.7 2.4.6 2.7.4 3-2.1.2-1.8.9-2.9 1.8-2.9 1 0 1.4.8 1.2 2.7-.1 1.6.2 3.7.8 4.8 1.1 2.1 4 2.8 4 .9 0-.5-.4-.8-.9-.4-.5.3-1.2.1-1.5-.4-.4-.5-.2-1.2.4-1.6 1.7-1 1.1-6.1-.8-7.8-2.6-2.4-4-2.1-7.2 1.3zM216 146c-.8.5-1.1 1.2-.8 1.6 1 .9 3.8-.3 3.8-1.6 0-1.2-1-1.3-3 0zM225.3 151.2c-4.4 2.1-2.6 3.6 2.1 1.8 1.6-.6 2.7-.6 3.1 0 .4.6-.1 1-.9 1-.9 0-1.6.4-1.6 1 0 1.6 4 1.1 4.7-.5.3-.9-.2-2.2-1.3-3-2.2-1.7-3.1-1.7-6.1-.3zM237.3 156.5c-.7 2 2.7 5.9 4 4.6 1.4-1.4-.1-6.1-1.9-6.1-.8 0-1.7.7-2.1 1.5zM246.7 157.6c-1.3 1.3-.7 4.4.7 4.4.8 0 1.7-.4 2-.9.7-1.1-1.8-4.4-2.7-3.5zM225.8 159.4c-2.5 1.9-2.2 3.6.6 3.6 2.5 0 3.7-1.5 2.8-3.8-.5-1.5-1.2-1.5-3.4.2zM252.3 160.7c-3.8 5.5-4.4 8.2-2.9 11.1 2.6 4.9 7.2 9.7 8 8.3.5-.8.1-1.4-1.3-1.8-1.3-.3-2.1-1.3-2.1-2.6 0-1.1-.7-2.8-1.6-3.8-1.3-1.4-1.3-2.4-.5-5.7.6-2.2 1.8-4.5 2.6-5.2.8-.7 1.5-1.6 1.5-2.1 0-1.8-1.9-.8-3.7 1.8zM220 170.6c0 2 1.7 4.4 3.2 4.4 1.5 0 .8-2.7-1.2-4.5-1.9-1.8-2-1.7-2 .1zM260 175.1c.9 1.6.9 2.8.1 4.7-1.4 2.9-.6 4.2 1.3 2.1 2.6-2.6 2.4-6.4-.5-7.9-1.9-1.1-2-1-.9 1.1zM181 171.6c0 .8.5 1.2 1 .9.6-.4.8-1.1.5-1.6-.9-1.4-1.5-1.1-1.5.7zM185.5 175.6l-3 2.4 6.5-.2c5.9-.3 6.5-.5 6.6-2.5.1-1.8-.1-2-1.7-1-1.4.9-2.4.9-3.7.1-1.4-.9-2.4-.7-4.7 1.2zM207 196.9c0 1.2.5 2.1 1 2.1.6 0 1-.6 1-1.4 0-.8-.4-1.8-1-2.1-.5-.3-1 .3-1 1.4zM278 225.5c-1.3 1.5-1 3 2.9 18.1 1.2 4.4 2.3 11.6 2.4 15.9.2 6.1.6 8 1.9 8.9 3.2 2 4.1-.6 4.1-11.8 0-10.2-1.6-17.7-6.4-30.4-1-2.5-3.1-2.9-4.9-.7zM233.4 281.5c-1 2.5.2 4 3.2 4.1 1.6.1 4.6.5 6.6.9 5 1 9-.1 8.6-2.3-.2-1-1.3-1.7-2.8-1.8-1.4-.1-4.3-.6-6.5-1.3-5.4-1.5-8.5-1.4-9.1.4zM254.6 282.6c-1.1 2.8-.6 5.4.9 5.4 1.6 0 3.1-4.3 2-5.9-.9-1.6-2.2-1.3-2.9.5zM237.2 290.8c-.6.2-1.2 1.4-1.2 2.6 0 2 .7 2.4 4.6 3 7.2.9 10 .7 11.4-.9 1.4-1.7 2-1.4-7.5-3.7-3.3-.8-6.6-1.3-7.3-1z"/><path d="M229.7 296.7c-1.2 1.1-.7 4 .8 5.3 1.2 1 1.4 2.4.9 6.3l-.7 5 2.7-.5c1.6-.3 2.9-.1 3.2.6.3.8 3.5 1.2 9.2 1.3 4.8 0 9.5.4 10.6.8 1.2.5 2.1.3 2.7-.6 1.5-2.4.4-3.4-3.7-3.5-2.1 0-4.9-.6-6.1-1.2-2.8-1.6-10.6-1.5-12.1 0-.9.9-1.2.7-1.2-.9 0-3.6 2.4-4.6 9.5-4 3.6.4 7.4 1.1 8.6 1.7 3.3 1.8 4.9.5 4.9-3.9 0-4.7-1.8-6.3-3.7-3.4-1.3 2-1.6 2-6 .7-2.9-.9-6.5-1.2-9.4-.8-4.1.6-4.9.4-6.1-1.5-1.3-2.1-2.9-2.7-4.1-1.4zM256.6 352.3c-1.8 1.3-1.8 1.8-.6 4.8 1.9 4.8 2.4 5.2 6 4.4 3.6-.8 4.9-3.1 2.7-4.8-.8-.7-1.7-2.1-1.9-3.2-.4-2.5-3.6-3.1-6.2-1.2zM260.2 366.2c-.5.5-.7 1.9-.5 2.9.8 2.8 6.8 2.3 6.8-.5 0-2.2-4.7-4-6.3-2.4zM262 377.4c0 2.9 1.6 3.7 4.8 2.3 3.3-1.5 2.4-4.1-1.6-4.5-2.8-.3-3.2 0-3.2 2.2zM267 391.2c0 3.2 1.7 4.6 2.6 2.3.4-.9 0-2.4-1-3.3-1.5-1.5-1.6-1.4-1.6 1zM265 400c0 2.5.4 3 2.5 3 2.5 0 4.6-2.6 3.8-4.8-.3-.6-1.8-1.2-3.4-1.2-2.6 0-2.9.4-2.9 3zM266.2 407.2c-.7.7-.8 1.7-.1 3 .8 1.4 2.1 1.8 6.4 1.8 4.9 0 5.5-.2 5.5-2 0-3.4-9.1-5.5-11.8-2.8zM268.5 416.4c-1.1.8-1.6 1.9-1.2 3 1 2.5 8 1.8 8.5-.8.7-3.3-3.9-4.7-7.3-2.2zM266.5 425c-.3.5.1 2.3 1 3.9.8 1.7 1.5 3.7 1.5 4.5 0 .8 1 2.2 2.2 3 1.8 1.3 1.9 1.6.6 1.6-2.2 0-3.1 1.5-2.3 4 .7 2.3 4.9 2.7 9 .8 2.4-1.1 2.6-1.5 1.9-5.2-.3-2.3-1.3-4.8-2-5.7-1.3-1.4-1.2-1.8.8-3.1s2.1-1.7.9-3.2c-1.5-1.8-12.5-2.3-13.6-.6zM274.1 447.1c-1.5.6-2.1 1.4-1.7 2.5.3.9.6 2 .6 2.5s.9.9 1.9.9c2.7 0 3.4 1.5 3.3 6.9 0 2.5.5 8.1 1.2 12.3 1.1 6 2 8.4 4.2 10.7 3.1 3.3 8.8 4.9 11 3 1.9-1.6.9-2.7-4.1-4.9-4.1-1.7-4.3-2.1-5.4-7.7-.6-3.2-1.7-8.1-2.5-11-.8-2.8-1.2-6.9-.9-9.2.9-6.3-1.8-8.4-7.6-6z"/><path d="M291 470c-.6 1.2-.9 2.4-.6 2.7.3.3 3.1.6 6.3.7 5.3.1 5.8-.1 6.1-2.2.3-1.9-.1-2.2-3-2.2-1.8 0-4.3-.3-5.5-.6-1.5-.4-2.5 0-3.3 1.6zM254.4 480.6c-.7 2.8.7 4.4 3.8 4.4 2.4 0 3-1.4 1.8-4.4-1.3-3.5-4.7-3.5-5.6 0zM239.6 483.6c-2.9 4.3-3.3 7.1-1.2 9.9 1.2 1.6 1.6 1.7 3 .6 1-.9 1.4-2.2 1-3.7-.4-1.4-.1-3.8.6-5.5 2.1-5-.3-5.9-3.4-1.3zM299.4 482.4c-1.3 3.4.3 4.4 8.1 5.1 5.4.5 8 .4 8.8-.4 1.8-1.9-1.5-3.8-8-4.6-3.1-.4-6.2-.9-6.9-1.2-.8-.3-1.7.2-2 1.1zM252.9 488.1c-1.3 2.4-.5 3.5 3.3 4.4 3.6.9 4.8-1.7 2.3-4.5-2.3-2.6-4.1-2.5-5.6.1zM288.7 489.7c-.3.5-.3 1.9 0 3.1.5 2.1 2.4 2.8 6.3 2.4 3.1-.3 9 1 9 2 0 .6-1.1.8-2.5.4-4.1-1-7.5.3-7.5 2.9 0 1.2.6 2.6 1.3 3.1 1.8 1.3 22.4 1 28.7-.4 11.9-2.7 10.6-4.8-3.5-5.8-8-.6-9.4-.9-6.9-1.6 1.7-.4 3.7-1.4 4.4-2.3 2.2-2.7.1-3.6-7.8-3.5-4.3.1-10.7-.1-14.3-.5-4-.5-6.9-.4-7.2.2zM253.4 497.5c-1 2.5.4 4.5 3.1 4.5 3 0 4.3-2.4 2.5-4.5-1.6-1.9-4.9-1.9-5.6 0zM344.7 505c-.5 2-1 2-18.1 1.7-10.6-.2-17.9 0-18.3.6-.3.5-2.3.7-4.4.4-4.8-.6-7.1.9-5.8 4 .8 2.3 4.2 3 10.4 2.5 1.1-.1 9.8-.3 19.2-.5 19.2-.3 20.3-.7 20.6-6.8.2-3.9-2.7-5.4-3.6-1.9zM253.1 506.2c-1.1 2.9.1 4.2 2.8 3.3 2.9-.9 2.9-5.5.1-5.5-1.2 0-2.4.9-2.9 2.2zM255.6 513.5c-.4 1.6-1.3 2.5-2.7 2.5-2.5 0-3.5 2.5-1.8 4.6 1.8 2.2 6.4 1.4 6.5-1.1 0-1.1.4-2.8.8-3.8.9-1.9.2-4.7-1.3-4.7-.5 0-1.2 1.1-1.5 2.5zM300.4 517.2c-.4.5.1 1.7 1 2.6 1.1 1.2 3.9 1.7 10.6 1.9 5 .2 10 .8 11.1 1.4 2 1 25 4.1 25.7 3.4.2-.2-.2-1.6-1-3.1-1.5-3.2-2.6-3.5-18.3-5.5-13.2-1.7-28.3-2-29.1-.7zM249.2 524.9c-.8.4-1.2 1.7-1 2.7.5 2.6 8.5 3.3 9.4.9.4-.9.3-2-.2-2.5-1.5-1.3-6.8-2.1-8.2-1.1zM306.8 525.2c-3.9 1-4.8 2.7-2.5 4.6.6.5 7.7 1.2 15.7 1.4 12.4.2 14.5.1 14.5-1.2 0-3.4-20.1-6.9-27.7-4.8zM272.6 530.2c-2 2.9-.4 4.8 4 4.8 2.9 0 3.4-.3 3.4-2.5 0-2.3-2.4-4.5-4.9-4.5-.5 0-1.7 1-2.5 2.2zM342.4 532.5c.3 4.3 1.7 5.9 4.5 5 2.4-.7 2.6-2 .9-5.8-.9-1.7-2.1-2.7-3.5-2.7-1.9 0-2.2.5-1.9 3.5zM249.8 534c-1 .6-1.4 1.8-1.1 3 .4 1.6 1.4 2 4.9 2 4.8 0 5.9-.9 4.1-3.3-1.6-2.1-5.7-3-7.9-1.7zM308.8 535c-2.2 1.3-1.2 4.9 1.6 5.4 1.1.3 9 .7 17.4 1.1l15.3.6-.3-2.3c-.2-1.9-1.4-2.6-6.8-3.9-7.3-1.8-24.6-2.4-27.2-.9zM273.3 540.5c-.9 2.2-.8 2.7.7 3.5 2.7 1.4 5.6 1.2 7-.5 1-1.3 1-1.9-.5-3.5-2.5-2.8-5.7-2.5-7.2.5zM278 548.5c-.7.8-.9 2.2-.6 3.1.5 1.3.9 1.4 2.1.4 1.7-1.4 2-3.6.6-4.4-.5-.3-1.4.1-2.1.9zM322.3 553.7c-2.6.5-2.7 1.1-1.3 4.7.8 2.2 1.6 2.6 4.8 2.6 4.1 0 8.2-2.3 8.2-4.6 0-.9-1.1-1.4-3.4-1.4-1.9 0-3.8-.5-4.1-1-.3-.6-.9-.9-1.3-.9-.4.1-1.7.4-2.9.6zM318.5 564.4c-1.6 1.2-1.8 1.8-.9 3.3.6 1 2.1 2.3 3.4 3 3.1 1.5 4 3.3 2.9 5.5-1.8 3.4-.7 7.2 2.4 8.2 3.5 1.3 6.2-.2 6.2-3.5 0-1.6-.7-2.5-2.5-2.9-1.7-.4-2.1-.8-1.2-1.4.7-.4 1.2-1.5 1-2.4-.1-1 .6-2.9 1.6-4.4 2.3-3.5 1.6-4.4-3.7-5.1-2.3-.3-5-.9-5.8-1.2-.8-.3-2.3.1-3.4.9zM264.1 566.8c-1.4 2.7-1.4 3.2.3 3.2 1.8 0 3-3 1.7-4.3-.6-.6-1.3-.1-2 1.1zM265.3 582.6c-.8 2.1 2.3 5.2 3.8 3.7 1.4-1.4.2-5.3-1.7-5.3-.8 0-1.7.7-2.1 1.6zM265.7 590.7c-1.3 1.3-.7 5.1.9 5.7 1.6.6 4.4-.9 4.4-2.5 0-1-2.9-3.9-3.9-3.9-.4 0-1.1.3-1.4.7zM308.3 610.1c.3 1.2.1 2.9-.4 3.8-.7 1.1-.7 2.5 0 4.4.9 2.3 1.4 2.6 3 1.8 1.4-.8 1.8-2.1 1.7-5.3-.1-4.9-1.1-6.8-3.3-6.8-1.1 0-1.4.6-1 2.1zM307.3 624.6c-.3.9-.6 3.2-.7 5.2-.1 5.1 3.1 5.1 5.9 0 1.6-3 1.7-3.9.6-5.2-1.7-2.1-5-2.1-5.8 0zM323.1 637.9c-2 1.3 0 6.5 2.5 6.9 5.4.8 9.3-3.5 6.2-6.6-1.4-1.4-6.7-1.6-8.7-.3zM44 169.9c0 1.3 2.9 3.5 3.7 2.8.7-.8-1.5-3.7-2.8-3.7-.5 0-.9.4-.9.9zM171 200.7c-6.6 1.2-3.7 5.3 3.7 5.3 5 0 6.9-2.3 3.8-4.6-1.9-1.4-2.9-1.5-7.5-.7zM192.2 208.5c.8 7.1 3 8.4 2.6 1.6-.2-3.6-.8-5.6-1.7-5.9-1.1-.4-1.3.5-.9 4.3zM194.7 218.6c-.8.8.1 2.4 1.4 2.4.5 0 .9-.7.9-1.5 0-1.5-1.2-2-2.3-.9zM194.2 225.2c.7 1.9 3.8 2.2 3.8.4 0-1-.9-1.6-2.1-1.6-1.2 0-1.9.5-1.7 1.2zM194.6 229.7c-1.3 1.3-.5 4.3 1.3 5.2 1.8 1 3.1-.2 3.1-2.9 0-1.2-3.6-3.1-4.4-2.3zM196.5 238c.3.5.8 1 1.1 1 .2 0 .4-.5.4-1 0-.6-.5-1-1.1-1-.5 0-.7.4-.4 1zM196.6 240.9c-.3.5.1 1.4.9 2.1 1.2 1 1.5 1 1.5-.3 0-1.9-1.6-3.1-2.4-1.8zM196 249.8c0 1 .4 2.2 1 2.8.5.5 1.1 2.2 1.2 3.7.1 1.5.6 2.7 1 2.7.9 0 1-5.5.2-8.8-.7-2.6-3.4-3-3.4-.4zM198.3 263.4c.4.9.2 2.5-.5 3.5-.9 1.4-.8 2.7.5 5.7l1.6 3.9v-6.7c.1-4.1-.4-7-1.1-7.4-.8-.5-.9-.2-.5 1zM199 289.9c0 1.7.5 3.1 1 3.1.6 0 1-.9 1-2s0-2.3.1-2.7c0-.4-.4-.9-1-1.1-.6-.2-1.1 1-1.1 2.7zM199 296.9c0 .6.5 1.3 1 1.6.6.3 1-.1 1-.9 0-.9-.4-1.6-1-1.6-.5 0-1 .4-1 .9zM199.2 302.1c.2.7 1 1.5 1.7 1.7.8.3 1.2-.1.9-.9-.2-.7-1-1.5-1.7-1.7-.8-.3-1.2.1-.9.9zM199.7 306.4c-.3.7-.1 1.8.5 2.4.8.8.8 1.5 0 2.5-1.4 1.6-.2 9.9 1.5 10.4 1.2.4 1.4-2.1.6-11-.5-5.5-1.5-7.2-2.6-4.3zM201.6 324.7c-1.1 1.1-.6 2.3.9 2.3.8 0 1.5-.4 1.5-.9 0-1.3-1.6-2.2-2.4-1.4zM202 331.5c0 .8.5 1.5 1 1.5.6 0 1-.7 1-1.5s-.4-1.5-1-1.5c-.5 0-1 .7-1 1.5zM202.5 339c.3.5.8 1 1.1 1 .2 0 .4-.5.4-1 0-.6-.5-1-1.1-1-.5 0-.7.4-.4 1zM203 345.6c0 .8.5 1.2 1 .9.6-.4.8-1.1.5-1.6-.9-1.4-1.5-1.1-1.5.7zM227 748c0 .5.5 1 1 1 .6 0 1-.5 1-1 0-.6-.4-1-1-1-.5 0-1 .4-1 1zM219.5 760.2c-.8 2.4.1 8.2 1.3 8.6.8.2 1.2-1.2 1.2-4.7 0-4.7-1.5-6.9-2.5-3.9zM141.7 223.7c-1.5 1.4-.6 4.1 1.6 4.7 4 1.1 5.7.7 5.7-1.4 0-2.8-5.4-5.3-7.3-3.3zM236.5 220.2c-.3 1.3-.1 3.6.3 5.3.8 2.9 1 3 7.5 3 7.5 0 8.8-1.8 1.6-2.3-2.4-.1-5.1-.5-5.9-.8-1.3-.4-1.3-.6 0-1.5 1.3-.8 1.2-1.1-.4-2.4-1.9-1.4-1.8-1.5.5-2.4l2.4-1h-2.7c-2.1-.1-2.9.5-3.3 2.1zM16.5 164c-.7 1.1 3.1 6 4.7 6s.7-2.7-1.6-4.9c-1.6-1.6-2.6-1.9-3.1-1.1zM97.2 166c-3.8 2.7-5.5 5.1-3.4 4.9 1.6-.1 9.6-5.5 10-6.7.7-2.1-2.4-1.3-6.6 1.8zM8 168c0 .5.7 1 1.6 1 .8 0 1.2-.5.9-1-.3-.6-1-1-1.6-1-.5 0-.9.4-.9 1zM18 173.5c.7.9 1.5 1.3 1.7 1.1.7-.7-.7-2.6-1.9-2.6-.6 0-.6.6.2 1.5zM6.2 175.2c.5 1.5 2.8 2.3 2.8 1 0-.5-.7-1.3-1.6-1.6-1-.4-1.4-.1-1.2.6zM97 175c0 .5.4 1 .9 1 .6 0 1.3-.5 1.6-1 .3-.6-.1-1-.9-1-.9 0-1.6.4-1.6 1zM3 188c0 .5 1.8 1 3.9 1 2.2 0 4.3-.5 4.6-1 .4-.6-1.2-1-3.9-1-2.5 0-4.6.4-4.6 1zM17.6 187.9c-.4.5-.2 1.2.3 1.5.5.4 1.2.2 1.5-.3.4-.5.2-1.2-.3-1.5-.5-.4-1.2-.2-1.5.3zM94 189c0 .5.4 1 .9 1 .6 0 1.3-.5 1.6-1 .3-.6-.1-1-.9-1-.9 0-1.6.4-1.6 1zM96.8 194.7c-2.1.2-3.8.8-3.8 1.3 0 1.5 10.3.7 10.8-.8.2-.7-.4-1.1-1.5-1-1 .1-3.5.3-5.5.5zM18 197c0 .5.4 1 .9 1 .6 0 1.3-.5 1.6-1 .3-.6-.1-1-.9-1-.9 0-1.6.4-1.6 1zM3 197.8c0 .4 1.6.6 3.5.4 1.9-.2 3.5-.6 3.5-.8 0-.2-1.6-.4-3.5-.4s-3.5.4-3.5.8zM18 204c0 .5.4 1 .9 1 .6 0 1.3-.5 1.6-1 .3-.6-.1-1-.9-1-.9 0-1.6.4-1.6 1zM93.5 205c-.8 1.2 2 2.4 3.5 1.5.6-.3.8-1.1.5-1.6-.8-1.2-3.2-1.2-4 .1zM7.5 207l-3 .8 3 .1c1.7 0 3.7-.4 4.5-.9 1.3-.9 1.3-1 0-.9-.8.1-2.8.5-4.5.9zM8.3 220.7c-3.7 2.1-5.6 4.3-3.8 4.3 1.1 0 10.5-5.6 10.5-6.3 0-1.3-2.4-.6-6.7 2zM93.5 218.9c-.9 1.5 8.3 7.4 10.3 6.6 1.5-.6 1.5-.8-.3-2.1-3.8-2.9-9.4-5.4-10-4.5zM89 222c0 .5.7 1 1.6 1 .8 0 1.2-.5.9-1-.3-.6-1-1-1.6-1-.5 0-.9.4-.9 1zM94.4 224.1c-.9 1.5 6.8 8.9 9.1 8.9s1.7-.9-3.7-5.8c-3.2-3-4.9-3.9-5.4-3.1zM93.4 231.4c-.3.8.5 3.4 1.8 5.7 4.1 7.6 6.7 5.6 2.8-2.1-2.3-4.6-3.8-5.7-4.6-3.6zM11.7 234.7c-.4.3-.7 1.1-.7 1.7 0 .6.5.5 1.2-.2.6-.6.9-1.4.7-1.7-.3-.3-.9-.2-1.2.2zM18 237c0 1.1.5 2 1 2 .6 0 1-.9 1-2s-.4-2-1-2c-.5 0-1 .9-1 2zM463.1 655.2c-2.6.9-4.1 3.9-4.1 8.1 0 3-.4 3.5-2.8 4-1.6.3-3.9 1.5-5.3 2.6-3.4 2.8-1.6 5.5 4 5.9 4.9.4 5.5 2.2.7 2.2-1.9 0-4.4.9-5.7 1.9-2 1.6-2.2 2.3-1.4 4.7.9 2.6 1.5 2.9 6.3 3.2 2.8.2 5.2.7 5.2 1.3 0 .5-.9.9-2 .9s-3.4 1.2-5 2.7c-3.8 3.4-5.2 10.1-2.6 12.2 2.4 2 3.6.4 3.6-4.9 0-4.8 1.5-7 4.9-7 1.3 0 2 7.2 2.6 27.4.4 12 .9 17.2 1.7 17.8 1.8 1.1 2.4 1 3.8-.7 1-1.1 1-4 0-13.2-1.2-12.8-1.3-14.5-1.1-24.4l.1-6.5 10.8-1.1c14.5-1.4 19.8-4.7 13.8-8.6-1.3-.9-2.3-2.4-2.2-3.4.1-1.6-.9-1.8-11.1-1.7-10.5.2-11.3 0-11.3-1.7s.8-1.9 7.3-1.9c3.9 0 7.8-.4 8.6-.9 2.1-1.3.5-4.1-2.3-4.1-1.8 0-2.4-.4-2-1.5.5-1.2-.5-1.5-5.6-1.5-4.5 0-6.1-.3-5.8-1.3.3-.6 1.7-1.3 3.1-1.5 1.6-.2 3.5-1.4 4.4-2.8 1.4-2.3 1.4-2.6-.1-4.3-1.9-2.1-7.4-3.1-10.5-1.9zm4.9 4.8c0 .5-.8 1-1.7 1-1.5 0-1.6-.2-.3-1 1.9-1.2 2-1.2 2 0zm-9 23.2c0 .5-1.1.8-2.5.8s-2.5-.4-2.5-.9 1.1-.8 2.5-.7c1.4 0 2.5.4 2.5.8zm27.5 2.8c1.7.6 1.5.9-1.5 1.4-5.8 1.2-18.9 1.2-19 .1 0-.6 3.5-1.3 7.7-1.6 4.3-.3 8.5-.6 9.3-.6.8-.1 2.4.2 3.5.7z"/><path d="M470.6 697.6c-2 1.9-2 2.9 0 4.8 1.1 1.2 2 1.3 3.4.6 2.1-1.1 3.5-4.4 2.5-6-.9-1.5-4.2-1.2-5.9.6zM239.3 824.5c-.3.9.2 2.4 1.1 3.4 1.5 1.6 1.7 3.9 1.5 15.8l-.2 13.8 3.4.3c1.9.2 4.2-.3 5.3-1.1 1.6-1.1 1.7-1.7.7-3.6-.7-1.2-1.1-4.1-.9-6.4l.3-4.2 4.8-.5c2.6-.4 5-.4 5.2-.1.3.2.5 3.5.5 7.1 0 7.9 1 9.2 6.3 8.3 4.2-.6 5.4-1.8 3.9-3.6-1-1.1-1.8-23.8-1-28.2.2-1.6-.3-2.1-3-2.3-5.5-.5-7.4 2-6.6 8.5l.6 5.3h-10.5l.6-5.9c.3-3.7.1-6.3-.6-7-1.7-1.7-10.6-1.4-11.4.4zM276.2 823.9c-1.1.6-1.1 1.6-.3 4.7 1.4 5.1 1.4 25.1 0 25.9-3 1.9.5 2.7 11.1 2.7 9.8 0 11.6-.3 12.7-1.8 1.4-1.9 1.8-7 .6-7.7-1.5-.9-5.3 1.2-5.3 2.8 0 1.3-.9 1.5-3.7 1.3-3.2-.3-3.8-.7-4.1-2.8-.3-3.6 1.2-5.7 3.1-4.2 3.6 3 5.9-1.5 3.7-7.2-1.1-3.1-2.4-3.3-4.7-.7-.9 1.1-2 1.8-2.5 1.5-1.2-.7-1-10.2.2-10.9 1.7-1.1 5 .5 5 2.4 0 1 .9 2.6 2 3.6 1.6 1.5 2.2 1.5 3.5.5 2.3-1.9 2-8.7-.4-10-2.3-1.2-19-1.3-20.9-.1zM309.3 823.8c-2.4.4-3.1 2.8-1.1 3.4.9.3 1.3 4.6 1.5 14.9l.2 14.4 5.4.2c6.9.2 8.8-.8 6.3-3.6-1.4-1.5-1.6-2.8-1.1-6.5.4-2.5 1.2-4.6 1.9-4.6 1.2 0 6.9 6.6 7.9 9.2.3.9 2.4 2.6 4.6 3.8 7.3 3.7 11.6 1.8 6.3-2.8-3.1-2.9-9.2-10.5-9.2-11.7 0-.4.9-1.8 2-3.2 3.5-4.4 2.5-10.8-1.9-12.5-2.6-1-18.6-1.7-22.8-1zm16.7 4.7c.7.9 1.3 3.2 1.4 5.3.1 3.6 0 3.7-3.4 3.7h-3.5l-.3-5.3c-.3-4.9-.2-5.2 2.1-5.2 1.4 0 3 .7 3.7 1.5zM83.2 825.2c-2.6.7-3.2 1.3-3.2 3.6 0 3.4 2.6 7.3 4.4 6.6.8-.3 1.7-1.7 2-3 .5-1.9 1.2-2.5 2.9-2.2 2.2.3 2.2.5 1.8 12.3-.2 8.8-.7 12.5-1.8 13.7-2.6 2.9-.6 3.8 8.2 3.8 9.1 0 11.3-1.1 7.7-4.1-2-1.6-2.2-2.6-2.2-13.7v-12l3-.4c2.4-.4 3.5.1 4.9 2 2.4 3.3 5.1 2.4 5.1-1.6 0-1.6-.6-3.5-1.4-4.1-1.7-1.4-26.6-2.1-31.4-.9zM149 824.8c-7.3.3-8.6.8-7 2.6.6.8 1 3.2.8 5.3l-.3 3.8-6.7.3-6.7.3-.3-5.8-.3-5.8-4.4-.3c-5.9-.4-7.8.3-6 2.4.8 1 1.4 5.7 1.7 13.5.4 9.8.2 12.3-1.2 14.4-.9 1.3-1.6 2.8-1.6 3.3 0 1.1 14.1.5 15.3-.7.6-.6.1-1.4-1.2-2.1-2-1-2.2-1.8-1.9-7.8l.3-6.7h13l.3 6.8c.3 6.2.1 6.9-1.8 7.4-2.5.7-2.6 3-.2 3.7 2.4.7 12.9.2 13.8-.7.4-.3.1-1.3-.6-2.2-.8-1-1.3-5.5-1.4-14.1-.1-10.9.2-12.8 1.7-13.9 1.8-1.3 2.3-3.2 1-3.7-.5-.2-3.3-.2-6.3 0zM162.1 824.8c-1.1.8-1.1 1.6-.1 4.8.9 2.7 1.1 7.2.6 16-.5 9.3-.4 12.4.6 13 .6.4 6.1 1 12 1.2l10.8.5 1.9-4.4c1.2-2.7 1.6-4.8 1.1-5.3-1.4-1.4-5.7.9-6.5 3.3-.5 1.7-1.5 2.1-5.1 2.1H173v-6c0-4.7.3-6 1.5-6 .8 0 1.5.8 1.5 1.9 0 2.5 2.7 4.8 4.1 3.4.5-.5.9-3.9.7-7.4-.3-5.6-.6-6.4-2.4-6.7-1.5-.2-2.3.3-2.7 1.7-1 3.8-2.7 2.2-2.7-2.4V830h4.2c2.9 0 4.9.7 6.5 2.1 1.8 1.8 2.5 2 3.8.9 2-1.7 1.9-5.7-.2-6.9-2.6-1.3-23.5-2.4-25.2-1.3zM343.7 824.7c-.9.8 1.2 3.3 2.9 3.3 1 0 1.4 3 1.6 12.7.2 7.1-.1 13.4-.6 14.1-1.5 2.1.8 3.4 5.4 3 4.7-.3 6.6-2.6 3.1-3.5-1.9-.5-2.1-1.3-2.1-7.9 0-4.1.3-7.4.8-7.4.4 0 1.9 2.1 3.4 4.8 6.5 11.5 10.1 12 16.6 2.2l4.3-6.5-.2 8.5-.2 8.5 5.6.3c3.2.2 5.7.1 5.7-.3 0-.3-.8-1.3-1.8-2.3-1.7-1.7-1.8-3.2-1.5-13.3.3-6.3.9-11.8 1.4-12.4 2.4-2.4.8-3.5-5.1-3.5-5.6 0-6 .1-5.8 2.3.2 2.1-6.9 15.8-8.2 15.7-.3-.1-2.5-3.3-4.9-7.3-2.4-4-5-8.2-5.8-9.5-1.2-1.9-2.2-2.2-7.7-2.2-3.4 0-6.6.3-6.9.7zM396.5 825.1c-.4.6.1 1.6 1.1 2.4 2.2 1.5 2.1.6 2.2 16.2l.2 12.3h6.1c5.5 0 6-.2 5.3-1.8-.5-.9-.9-7.6-.9-14.7-.1-7.2-.5-13.6-.9-14.3-.9-1.5-12.2-1.6-13.1-.1zM417.4 825.4c-.3.8-.4 2.9-.2 4.8.4 4 3.4 4.9 6.3 1.8 1-1.1 2.7-2 3.8-2 1.9 0 1.9.5 1.2 11.7-.5 8.6-1.1 12.1-2.1 13-1.4 1-1.3 1.2.2 2.1 2 1.1 14.4.4 15.9-.9.5-.6.3-.9-.7-.9-2.4 0-2.9-2.7-2.7-12.7.2-12.8 1-14.5 4.6-10.3 3.3 3.8 7.3 1.9 7.3-3.6 0-2-.6-3.4-1.6-3.8-.9-.3-8.3-.6-16.5-.6-11.9 0-15.1.3-15.5 1.4zM455.8 850.4c-4 3-.9 6.9 3.8 4.7 1.8-.8 2.4-1.8 2.2-3.4-.4-2.6-3.5-3.3-6-1.3z"/></svg>