<svg version="1" xmlns="http://www.w3.org/2000/svg" width="666.667" height="1170.667" viewBox="0 0 500 878"><path d="M6.7 38.7c-.3 21.4-.6 160.5-.6 309.3 0 168.9-.3 273.4-.9 278.3-.6 4.3-.7 8.7-.4 9.9.3 1.4-.2 2.6-1.6 3.7-1.8 1.4-2.1 3-2.5 15.4-.3 7.5-.2 13.9.3 14.2.4.2 1.8-.7 3-2 1.4-1.4 3.4-2.5 4.9-2.5 2.4.1 2.5.1.6 1.2-1.1.6-3.7 2.7-5.8 4.6-2.8 2.8-3.7 4.4-3.7 6.9 0 3.4-.1 3.4 6.5 3.7 1.6.1 1.9.7 1.7 3.1-.1 1.6.2 3.7.8 4.5 1.4 2.2 4.4.1 5-3.5.6-3.2 2.7-4.4 3.6-2.1 1.1 2.9-.4 6.1-3.6 7.3-3 1.1-3 1.2-3 8.3 0 6.1-.2 7.1-1.6 6.8-1-.2-1.8-1.5-2-3.3-1.2-12.8-2.3-16.5-5-16.5-1.2 0-1.4 1.5-1 9.5.3 5.6.2 9.7-.4 10-.6.3-1 1.9-1 3.6v2.9h35.4c19.5-.1 36.6.2 38 .6 2 .5 2.6 1.2 2.6 3.5 0 3.7 6.7 8.9 11.5 8.9 1.8 0 4.7.3 6.5.6 2.9.6 3.1 1 2.6 3.5-1.1 5.8 5.3 19.2 10.2 21 3.4 1.4 10.9.4 17.5-2.2 4.4-1.8 6.5-2 13.2-1.5 7.5.6 8.2.5 12-2 2.2-1.5 4.3-3.3 4.8-4 .4-.7 3.7-2.2 7.5-3.4 3.7-1.3 7.1-2.6 7.7-3.1 1.6-1.5 8.2-1 12.2 1 2.1 1.1 5 2.2 6.5 2.5 1.8.4 3.7 2 5.2 4.4 1.3 2 3.1 4.3 4 5.1 1.2 1 1.4 2.3 1 5.2-.6 3.7-.5 4 2.9 5.4 7.5 3.1 24.5-2.3 35-11.1 2.4-2 3.7-2.4 6.1-1.9 4.9 1 13.6.6 20.5-1.2 3.6-.8 10.8-1.7 16-1.8 5.3-.2 16-.7 23.9-1.3 7.9-.5 16.1-.8 18.2-.5 2.1.3 5.1.1 6.7-.4 1.8-.6 7.7-.7 16.3-.1 11.7.8 14 .7 17.9-.8 3.3-1.3 7-1.6 14.5-1.5 17.2.5 19.9.3 23.8-1.5 3.6-1.6 4.5-1.6 13.1-.2 7 1.1 10.9 1.3 16 .5 8-1.1 8.9-2.3 7.5-8.7-1.2-5.5-1.8-16.9-.9-17.5.4-.2 12.6-.5 27.1-.6 30.6-.3 37-.7 37-2.4 0-1-8.3-1.3-36-1.4-30-.1-36.6-.3-39-1.6-1.6-.8-4.5-1.5-6.5-1.5-3.6 0-17.6-4.4-23.3-7.4-6.6-3.4-8.8-8-5.7-12 1.7-2.2 3.5-1.3 3.5 1.9 0 6 2.7 7.4 3.3 1.7l.4-3.7.1 3.6c.2 3.8 2.6 6.9 4.2 5.3.5-.5 1-2.7 1.2-4.9.2-2.7.8-4 1.8-4 1.1 0 1.6 1.5 2 5.6.5 5.6 2.4 9.3 4.4 8.6.7-.2 1-3.2.7-8.3-.2-5.8 0-7.6.9-6.8.6.6 1.2 4.2 1.4 8 .2 3.8.4 7.2.5 7.6.1.5.8.8 1.6.8 2.4 0 3.6-3.7 3.3-9.7-.2-3.9.1-5.7 1-6 1-.4 1.3.9 1.1 5.4-.2 6.3.4 8.3 2.6 8.3 1.9 0 2.5-2.3 2.5-9.1v-6l9.7.3 9.8.3.5 3c.7 4.1 4.4 4.3 4.8.2.5-3.9 2.2-3.3 2.2.8 0 2.4.5 3.5 1.5 3.5 1.7 0 3.5-3 3.5-5.9 0-1.2.6-2.1 1.3-2.1 1 0 1.2 1.6.9 6.5-.5 7.1.9 10.5 3.4 8.4 2.2-1.8 1.9-12.5-.4-13.8-1.4-.8-1-1 2-1.1 3.4 0 3.7.3 4.2 3.2.3 1.8.4 6.1.3 9.5-.1 3.9.3 6.7 1.1 7.5 2.2 2.2 3.3-.6 3.6-10.3.2-7.4.6-9.5 1.8-9.7 1.8-.3 3 7.6 2.2 14.2-.6 4.7.6 7.2 3 6.3 1.6-.6 2-4.5 1.6-16-.1-4.4 0-4.7 2.3-4.7 2.4 0 2.6.4 3.1 6.2.3 3.5.7 8.1.9 10.3.2 3.3.6 4 2.2 4 1.9 0 2-.7 2-10.5v-10.5l3.3-.3c2-.2 3.2-.9 3.2-1.8 0-1.1-1.2-1.3-6.2-1-8.9.7-98.9.9-99.5.2-.3-.3.7-1.1 2.3-1.8 1.6-.7 5.5-2.9 8.7-5 6-3.9 7.5-3.8 3.2.2-3.1 2.9-3.2 4-.1 4 2.3 0 6.5-3.9 9.2-8.5.6-1.2 1.3-1.5 1.7-.8.4.6-.3 2.2-1.4 3.7-1.7 2.2-1.8 2.7-.5 3.2 2 .8 3.4-.2 5.7-4 1.7-2.8 1.9-2.9 1.9-.9 0 1.3.4 2.3.9 2.3 2.3 0 4.1-1.4 4.1-3 0-1.1.4-2.1.8-2.4.4-.3 10.2-.8 21.8-1.2l20.9-.7 1.9 4.2c1 2.3 1.5 4.5 1.2 4.8-.8.9 1.4 3.3 3 3.3 1.4 0 1.4-5.7-.1-9.2-.6-1.5-.2-1.8 2.7-1.8 2.8 0 4.1.7 6.5 3.7 1.7 2.1 4.9 4.8 7.2 6.1 3.9 2.2 4.1 2.2 4.1.3 0-1.1-1.4-2.7-3.5-4-4-2.3-5.3-4.7-3.6-6.4.7-.7 1.1-5.4 1.1-12.9V639l-3.4-1.4-3.3-1.4-.3-19.8c-.1-11-.3-30.8-.3-44.2v-24.3l5.1-5.2c7-7.1 7-12.7.1-12.7-1.5 0-3-.3-3.3-.8-.5-.8-1.5-246.8-1.6-405.7-.1-61.1-.4-113.8-.7-117.3-.4-4.4-1-6.2-2-6.2-.8 0-1.3.8-1.2 1.7.3 3.9 0 4.6-1.6 3.3-.8-.7-1.5-1.9-1.5-2.6 0-.8-.5-1.4-1.1-1.4-.5 0-.9.8-.8 1.7.5 5.7-.2 31.3-1 30.9-.4-.3-1.2-6.9-1.6-14.6-.4-8.7-1.1-14-1.7-14-.8 0-.8 5.3-.3 17.2.4 9.5.8 18.2.7 19.3 0 1.1.4 12.1 1 24.5 1.2 28.1 1 46-.3 47.7-.8.9-.9 14.4-.4 44 .4 23.6.9 51.6 1 62.3.3 16.4.6 19.5 1.8 19.8 2.9.6 3.3-20.5 1-54.3-.7-11.7-.7-55.2.1-90.5.2-9.6 0-23.1-.4-30-.6-10.3-.4-12.8.8-14.2 1.1-1.3 1.5-5.7 1.7-20 .4-21.5 1.9-29 2.7-13.3.9 16.9.8 370.8-.1 374.5-.6 2.9-.9 1.9-1.5-6.2-1.3-16.3-2.6-12.4-2.6 7.9 0 10.3-.3 25.9-.7 34.7-.5 13.4-.4 15.8.8 15.4 1-.3 1.7-4 2.5-14.4.6-7.6 1.2-13.7 1.3-13.4.2.3.5 8.3.8 17.7.4 14.9.3 17.3-1 17.3-1.1 0-1.6 2.3-2.2 11-.3 6-.4 11.4 0 12 .3.5.1 1-.4 1-.6 0-1.1-1.1-1.1-2.5 0-5.2-3.2-15.5-4.8-15.5-1 0-.6-.8 1.3-2.6 2-1.8 2.5-2.8 1.7-3.6-.8-.8-1.6-.7-2.7.2-1.4 1.2-1.8 1.1-2.6-.1-1.4-2.2-.6-4.4 1.9-4.4 3.4-.1 3.1-2-.4-2.3-2.1-.2-4 .4-6 2.1-3.5 2.9-9 3.9-16.2 3-4.7-.5-5.6-1-7.8-4.2-2-2.9-2.4-4.8-2.4-10.4 0-3.9.6-8 1.4-9.5 1.4-2.8 1.1-7.8-.5-8.8-1.9-1.1-.9-5.4 1.8-7.1 2.5-1.7 2.7-1.7 3.7.1 2.6 4.3 4.9 6.6 6.6 6.6 3.1 0 3.9-2.7 2.4-7.8-.8-2.5-1.4-6.7-1.4-9.4 0-3.7-.4-5.1-2-6-1.1-.7-2-1.8-2-2.5s-.4-1.3-.9-1.3-1.3-1-1.8-2.3c-1.8-5-12.1-20.5-16.5-25-3-3-4.8-5.7-4.8-7.2 0-1.3-2.1-5-5-8.6l-5-6.2-.1-36.1c0-19.9-.3-44.4-.6-54.6-.8-26.3-.7-219.8.1-235.8l.7-13.3-2.3.3c-2.2.3-2.3.7-2.3 8.8 0 8.1-.2 8.7-3.7 14-2 3-6 7.5-8.9 10-7.6 6.5-31.3 22.8-41.4 28.5-2.7 1.5-6.4 4-8 5.4-4.7 4.1-29.2 15.6-38 18-24.4 6.4-65.4 10.5-90.5 9.1-8-.5-16.3-1.2-18.5-1.5-12.5-2.2-42.6-12-55-17.9-14.1-6.8-30.5-14.2-35.8-16.1-2.6-.9-6-2.7-7.5-3.9-1.5-1.2-5.4-3.9-8.7-5.9-6.6-4-14-10.5-16.7-14.6-1.5-2.2-1.8-5-1.8-18.4C78 3.8 77.7 0 76.7 0c-.9 0-1.3 17-1.5 81.7-.3 82.7-.6 104-1.6 105.1-.3.3-.6-6-.6-13.9s-.5-48.2-1.1-89.4c-1-71.3-1.2-75.1-3-77.7-1-1.5-1.9-3.3-1.8-4 0-.7.5-.3 1.1 1 1.3 2.7 3.2 2.4 3.6-.6.3-1.9-.1-2.2-3.2-2.2-2 0-4.6.6-5.7 1.2-1.7 1-2.3 1-2.6 0-.7-1.9-3.3-1.4-3.3.6 0 1.1-.9 2.7-1.9 3.6-1.7 1.6-1.9 3.1-1.8 15.4.1 8.5.6 13.6 1.2 13.5C55.8 34 57 20 56.3 13.9c-.5-4.1-.2-4.8 2.2-6.7 3.4-2.7 5.7-2.8 7.8-.4 1.4 1.6 1.7 8.7 2.2 63.7.5 56.9.8 75.4 2 116.5.2 8 .7 28.7 1 46 .3 17.3.8 33.9 1.1 36.7.3 2.9.3 5.7 0 6.1-.3.5-2.2.6-4.3.3l-3.8-.6-.2-36c-.3-37.1-.3-191.2 0-216 .1-14.5-.5-18.7-2.5-16.7-1.2 1.2-1.9 241.9-.7 246.5.6 2.1.4 3-.7 3.4-1 .4-1.2.9-.4 1.8.7.9.6 1.6-.5 2.5-1.9 1.6-1.9 5 0 5 .8 0 1.5.4 1.5 1 0 .5-.6 1-1.4 1-.8 0-1.7.7-2 1.6-.8 2.2-.8 2.2 1.1 2.6 1.3.2 1.1.6-.9 1.5l-2.6 1.2-.7-21.7c-.4-11.9-.5-36.3-.1-54.2.4-17.9.7-52.1.7-76s.5-48.9 1-55.5c1.1-13.8.3-28.8-1.4-28.2-.7.2-1.3 2.1-1.4 4.3-.5 13.3-1.4 88.3-1.9 157.4-.3 44.3-.7 81-.9 81.6-.2.6-2.9 1.4-6.1 1.6-4.4.4-6.5.1-8.8-1.3-5.3-3-10.9-2.8-15 .4-2.6 2.1-2.9 3.1-3.2 8.4-.2 5.5 0 6.4 2.5 8.7 3.5 3.4 8.8 4.3 12.7 2.3 1.6-.8 6.7-1.8 11.4-2.2l8.5-.6-3.2 2c-3.7 2.3-4.2 3.7-4.1 11.8 0 4.4.5 7 1.8 8.5 2.3 3.1 3.4 6.5 3.4 11.3.1 3.2.6 4.2 2.3 5 1.6.7 2.8 2.6 3.8 6.1 2 6.9 1.9 9.1-.5 12.1-4.1 5.2-1.9 10.2 5.5 12.7 4.9 1.7 5.5 1.7 8.5.2 5.8-2.9 6-2.7 6.1 9.1.3 23.7-.1 129.2-.6 151.3-.7 32.7-.9 34.2-1.5 12-.4-16.2-.7-19.5-2-19.5-1.5 0-1.6 6.6-.8 53.5.2 10.2.1 20.1-.3 22-.3 1.9-.7 2.9-.8 2.2-.2-2.4-1.9-1.2-2.5 1.9-.7 3.9.3 5.8 1.9 3.6 1-1.4 1.3-.7 1.9 4.4.3 3.4.6 9.3.6 13 0 5.9.3 7 2.1 7.9 1.6.9 1.9 1.9 1.7 4.8l-.3 3.7h-52v-68.7c0-45-.3-68.9-1-69-1.9-.5-2.3 13.4-2.1 73.8.1 33.5-.1 61.7-.6 62.6-1.3 2.7-8.4 2.5-9.8-.2-1-1.9-.7-41.6.6-76 .5-14.7.5-155.4-.1-180.5-.2-10.5-.7-33.4-1-51-.3-17.6-.8-41.9-1.1-54-.7-31-.7-110.1 0-155C10.2 10.6 10.2 0 8.7 0c-1.2 0-1.5 6.3-2 38.7zm471-.5c-.3.8-.6.5-.6-.6-.1-1.1.2-1.7.5-1.3.3.3.4 1.2.1 1.9zM86.5 44c.3.5.1 1-.4 1-.6 0-1.1-.5-1.1-1 0-.6.2-1 .4-1 .3 0 .8.4 1.1 1zm-.1 24.5c.3.8 1.2 1.5 2 1.5s1.8.5 2.2 1.1c.4.8-.4.9-2.7.4-4.5-1-4.9-1.3-4.2-3 .7-1.9 1.9-1.9 2.7 0zm2.1 5.5c-.3.5-1.1 1-1.6 1-.6 0-.7-.5-.4-1 .3-.6 1.1-1 1.6-1 .6 0 .7.4.4 1zm15.5 6.4c0 3.2-6.4 4.6-6.6 1.5-.1-2.3.4-2.6 3.6-2.7 1.8 0 3 .4 3 1.2zm233.7 13.8c-.3.8-.6.5-.6-.6-.1-1.1.2-1.7.5-1.3.3.3.4 1.2.1 1.9zm-44.5 2c-.7.7-1.2.8-1.2.2 0-1.4 1.2-2.6 1.9-1.9.2.3-.1 1.1-.7 1.7zM283 96c0 .5-.5 1-1.1 1-.5 0-.7-.5-.4-1 .3-.6.8-1 1.1-1 .2 0 .4.4.4 1zm-152.2 4c.7 0 1.2-.5 1.2-1 0-.6.7-1 1.5-1 2.1 0 1.9 2.6-.2 3.4-1 .3-2.4.9-3 1.2-.8.3-1.3-.1-1.3-1s-.7-1.6-1.5-1.6-1.5-.7-1.5-1.7c0-1.5.1-1.5 1.8 0 1 1 2.4 1.7 3 1.7zm279.9 5.2c-.2 1.8-.4.6-.4-2.7 0-3.3.2-4.8.4-3.3s.2 4.2 0 6zm-57 .4c-4.3 4.2-8.1 7.3-8.5 6.9-.4-.4.3-1.4 1.6-2.2 2.3-1.6 2.9-3.9 1.1-4.5-1.2-.4 5.3-3.8 8.2-4.2.3-.1 1.3-.9 2.3-1.9 1-.9 2-1.7 2.4-1.7.4 0-2.8 3.5-7.1 7.6zm-215.2-2.5c.4.6.5 1.2.2 1.5-.7.7-3.7-.7-3.7-1.7 0-1.3 2.7-1.1 3.5.2zm-11.1.8c.3.5-.1 1.1-.9 1.5-.9.3-1.5 0-1.5-.9 0-1.6 1.6-2 2.4-.6zM143 107c0 .5-.7 1-1.6 1-.8 0-1.2-.5-.9-1 .3-.6 1-1 1.6-1 .5 0 .9.4.9 1zm191.1 5.2c-3.5 3.8-4 5.3-1.1 3.8 2.8-1.5 2.4-.1-1.1 4-2.5 2.8-3 3-2.4 1.2.6-2.1-1-3.3-1.7-1.2-.2.6-1.7 1.3-3.3 1.5-1.7.2-3.2.4-3.4.4-.2.1.2.8.9 1.7 1.1 1.2 1 1.8-.3 3.2-1.6 1.5-1.7 1.5-1.7-.1 0-1.2-.8-1.7-3-1.7s-2.8-.4-2.4-1.5c.3-.8 1.5-1.7 2.6-2.1 1.1-.3 2.4-1.9 3-3.5.5-1.6 1.3-2.9 1.7-2.9.4 0 1.6-.8 2.7-1.8 1-.9 2.7-2.3 3.7-3.1 1.5-1.2 1.7-1.2 1.1.3-.3.9-1.9 3-3.5 4.7-2.9 3.1-3.6 4.9-2.1 4.9.5 0 3.5-2.9 6.8-6.5 3.2-3.6 6-6.1 6.2-5.5.2.5-1 2.4-2.7 4.2zm7.5-2.6c.1 1.4-.1 2.3-.4 2-.3-.3-1.1-.1-1.9.6-2.4 2-2.7-.1-.3-2.7 1.3-1.4 2.4-2.5 2.4-2.5.1 0 .2 1.2.2 2.6zm-184-.4l3.3 1.2-2.2 1.8c-1.3 1.1-2.3 1.5-2.5.9-.2-.6-1-1.1-1.8-1.1s-1.4-.9-1.4-2c0-2.3.3-2.4 4.6-.8zm-19.6 1.2c0 .3-.4.8-1 1.1-.5.3-1 .1-1-.4 0-.6.5-1.1 1-1.1.6 0 1 .2 1 .4zm272.7 1.8c-.3.8-.6.5-.6-.6-.1-1.1.2-1.7.5-1.3.3.3.4 1.2.1 1.9zm-260.7-.8c0 .3-.4.8-1 1.1-.5.3-1 .1-1-.4 0-.6.5-1.1 1-1.1.6 0 1 .2 1 .4zm14.3 1.6c-.4 1.3 0 2 1 2 .8 0 1.7-.9 2-2 .3-1.2 1.4-2 2.6-2 3 0 2.6 1-1.5 4.7-3.9 3.4-5.4 3.5-5.4.2 0-1-.5-1.9-1.2-1.9-.9 0 1.8-2.7 2.9-3 0 0-.1.9-.4 2zm15.7.6c0 1.1-4.2 4.4-5.5 4.4-.3 0-.5-1.3-.5-3 0-2.6.3-2.9 3-2.7 1.6.1 3 .7 3 1.3zm6 .3c0 .5-1.6 1.8-3.5 3-4.4 2.6-4.6 1-.2-1.8 3.7-2.4 3.7-2.4 3.7-1.2zM85 115c0 .5-.4 1-1 1-.5 0-1-.5-1-1 0-.6.5-1 1-1 .6 0 1 .4 1 1zm112 2.1c-.8 1.3-.7 1.9 0 1.9.6 0 .8.5.4 1.1-.5.8-.9.8-1.4-.1-.4-.7-1.6-.9-2.9-.5-2.9.9-2.6-.5.6-3.1 3.2-2.5 4.8-2.2 3.3.7zm-8-.6c-.7.8-1.7 1.5-2.2 1.5-.6 0-.5-.7.2-1.5s1.7-1.5 2.2-1.5c.6 0 .5.7-.2 1.5zm-102.3 2.7c-1.6 1-2.1.2-1.3-1.9.6-1.5.9-1.5 1.6-.3.6.9.5 1.7-.3 2.2zm96.3 2.3c-1.3 1.4-2.6 2.3-2.8 2-.3-.2.6-1.5 1.9-2.9 1.3-1.4 2.6-2.3 2.8-2 .2.2-.6 1.5-1.9 2.9zm130.6-1.9c-.3.9-.6 2-.6 2.5s-.9.9-2 .9-2 .7-2 1.5c0 .9-.8 1.9-1.7 2.2-1 .4-2.1 1.1-2.5 1.7-.4.6-1 .8-1.3.4-.4-.4.8-2.3 2.7-4.3 1.8-2 3.7-4.3 4.1-5.1 1.1-2 4.1-1.8 3.3.2zm97.7 3.6c.3 2.1.2 3.8-.4 3.8-.5 0-.9-1.9-.9-4.2 0-4.9.5-4.7 1.3.4zm-322.4-.6c-1.4 1.8-2.4 1.1-1.5-1.1.3-.9 1.1-1.3 1.6-1 .8.5.7 1.1-.1 2.1zm171.9 4.9c-.1 5.3-.5 6.8-2.3 8.5l-2.3 2.1-.6-3.6c-.8-3.9-.1-5.9 1.9-5.1.9.3 1.5-.9 2-4 .3-2.4.8-4.4 1-4.4.2 0 .4 2.9.3 6.5zm41-2.4c-3.9 3.9-7.8 6.3-7.8 4.7 0-.7-.6-.6-1.5.2-1.2 1-1.5 1-1.5-.1 0-2.4 1.3-3.6 6-5.6 8.8-3.9 9.4-3.8 4.8.8zm-73.5-1.6c.1.6-1.9 2.1-4.3 3.4l-4.5 2.4 3.5-3.7c3.3-3.5 5-4.2 5.3-2.1zm3.9 1.7c-.6.6-1.5.8-1.9.4-.4-.4-.1-1.1.7-1.6 1.9-1.2 2.7-.3 1.2 1.2zm45.2 2c-.8 1.3-2.1.9-2.8-.8-.9-2.5.4-3.7 1.9-1.7.7 1 1.1 2.1.9 2.5zm-36.4-1.8c0 1.3-5.8 6.6-7.2 6.6-.3 0 .1-1.6 1-3.4.9-1.9 1.9-3.3 2.3-3 .4.2 1 0 1.4-.6.9-1.5 2.5-1.2 2.5.4zm4.2.8c-.7.7-1.2.8-1.2.2 0-1.4 1.2-2.6 1.9-1.9.2.3-.1 1.1-.7 1.7zm5.4 1.7c-.1 3.1-1.6 3.3-1.6.2 0-1.5.8-3.1 1.5-3.1.1 0 .2 1.3.1 2.9zm16.4-.9c0 .5-.4 1-1 1-.5 0-1-.5-1-1 0-.6.5-1 1-1 .6 0 1 .4 1 1zm14.5 2.7c-2.6 1.8-3.2.7-.9-1.8 1.2-1.4 2-1.7 2.3-.8.2.7-.4 1.8-1.4 2.6zm75.7-1.5c-.7.7-1.2.8-1.2.2 0-1.4 1.2-2.6 1.9-1.9.2.3-.1 1.1-.7 1.7zm-86.2.7c0 .8-4.3 4.1-5.5 4.1-1.5 0-.2-2.8 1.8-3.8 2.8-1.3 3.7-1.4 3.7-.3zm41.7 2.3c-.3.8-.6.5-.6-.6-.1-1.1.2-1.7.5-1.3.3.3.4 1.2.1 1.9zm-171.9 3.3c-.3.3-.9-.2-1.2-1.2-.6-1.4-.5-1.5.5-.6.7.7 1 1.5.7 1.8zm14.4 1.7c-.7.7-1.2.8-1.2.2 0-1.4 1.2-2.6 1.9-1.9.2.3-.1 1.1-.7 1.7zm106.9 4.7c-1.2 1.6-2.1 3.9-2.1 5 0 1.3-.9 2.5-2.4 3.1-1.3.5-2.7 1.4-3.1 2-.5.8-1.1.5-2-.7-1.3-1.7-1.4-1.7-2-.1-.7 1.8-3.5 2.5-3.5.9 0-.5 1.6-2.3 3.5-4 3.4-3 4.5-5.1 2.6-5.1-.6 0-1.3.5-1.7 1.1-.5.8-.8.8-1.3 0s-1.4-.4-2.6 1.1c-1.1 1.3-1.3 1.7-.5 1 .8-.6 1.8-1.2 2.2-1.2 1.6 0 .7 2.5-1.5 4.1-1.6 1.2-2.9 1.4-4.6.8-2.2-.9-2.2-1.1-.9-3.1 2.3-3.4 7-6.6 7.5-5.1.6 1.8 1.8 1.6 3.9-.5 1.6-1.5 1.7-1.5 1.2 0-.4.9-.4 1.9-.1 2.2.9.8 5.3-3.4 5.3-5 0-.7.8-1.7 1.8-2.3 2.6-1.5 2.8 2.2.3 5.8zm-98.5-2.7c.4 1.3.1 2.4-.7 2.9-.8.5-.9.9-.3.9.6 0 1.7-.7 2.5-1.6 1.2-1.4 1.4-1.4 2.1.5.4 1.2 1.5 2.1 2.4 2.1.8 0 1.4.6 1.1 1.2-.2.8-1.9 1.2-4.3 1.1-2.1 0-4.5.4-5.1.9-1 .8-1.3.6-1.3-.7 0-.9-.8-3-1.7-4.7-1.7-2.8-1.7-3 0-4.3 2.3-1.7 4.4-1 5.3 1.7zm77.6 3.9c.9.6.7 1.4-1 3.2-1.2 1.3-2.2 3-2.2 3.8-.1 1.6-2.4 4.9-3.5 4.9-.4 0-.5-.7-.1-1.5.6-1.8.1-1.9-2.5-.5-2.2 1.2-2.7-.8-.7-2.8.6-.6.8-1.5.4-1.9-.8-.8-4.5 3.5-4.6 5.4 0 1.1-11.6 3-12.6 2-1.3-1.2 1.1-3.7 3.6-3.7 3.4 0 6.1-2.7 4-4-.9-.5.2-1.1 3.4-1.5 3-.5 5-1.4 5.7-2.6.5-1.1 1.6-1.9 2.4-1.9 1.9 0 1.9.8 0 2.7-2.2 2.2-.9 3 1.4.9 1-1 2.2-3.4 2.6-5.4l.8-3.7.8 2.9c.4 1.6 1.4 3.3 2.1 3.7zm-84.8-.5c.8 2.2-.4 4-1.5 2.3-1.1-1.8-1.1-3.9 0-3.9.5 0 1.2.7 1.5 1.6zm140.6-.8c0 .5-.7 1.7-1.5 2.8-1.5 1.9-2 .8-.9-2 .6-1.7 2.4-2.2 2.4-.8zm-146.2 2.7c-.3.3-.9-.2-1.2-1.2-.6-1.4-.5-1.5.5-.6.7.7 1 1.5.7 1.8zm230.7-1.5c-.3.5-1.3 1-2.1 1s-1.2-.5-.9-1c.3-.6 1.3-1 2.1-1s1.2.4.9 1zm-160.5.4c0 .3-.4.8-1 1.1-.5.3-1 .1-1-.4 0-.6.5-1.1 1-1.1.6 0 1 .2 1 .4zm-6.4 4.8c-.1 3.8-.5 4.5-3.3 5.8-1.8.8-3.3 2.2-3.3 3 0 .8-1.1 2-2.5 2.7-2.3 1-2.5.9-2.5-1.3 0-2.4-1.4-3.2-2.5-1.4-.9 1.4-2.5 1.2-2.2-.2.1-.7-.9-1.4-2.3-1.6-3.1-.5-5.4-2.2-4.2-3.4.4-.4 2.2-1.2 4-1.7 2.6-.8 3-.7 2.5.6-.5 1.3-.1 1.5 1.6 1 1.7-.4 2.1-.2 1.6 1.2-.4 1.4.1 1.8 2.9 1.9 2.2.1 3.6-.4 4-1.3.3-.8 1.2-1.5 2.1-1.5 1.7 0 2-2.5.4-3.5-.7-.5-.4-1.4.7-2.6 2.6-2.8 3.2-2.3 3 2.3zm-22.6-2.4c0 1.3-1.2 2.2-2.2 1.6-1-.6-.1-2.4 1.3-2.4.5 0 .9.4.9.8zm84.7 1.1c-.3 1.5-.1 1.8 1.2 1.4.9-.3 2.2-1.3 2.9-2.1 1.1-1.4 1.2-1.4 1.2 0 0 2.4-2.7 4.1-5.5 3.4-2.2-.6-2.4-.9-1.5-2.6 1.4-2.5 2.4-2.6 1.7-.1zm99.3-.9c0 .5-.5 1-1.1 1-.5 0-.7-.5-.4-1 .3-.6.8-1 1.1-1 .2 0 .4.4.4 1zm35 1.1c0 1.1-.4 1.7-1 1.4-.5-.3-1-1.3-1-2.1s.5-1.4 1-1.4c.6 0 1 .9 1 2.1zm-204.5.9c-.3.5-1.1 1-1.6 1-.6 0-.7-.5-.4-1 .3-.6 1.1-1 1.6-1 .6 0 .7.4.4 1zm60.2 2.4c-.4.9-1.3 1.6-2.2 1.6-1.8 0-1.9-.4-.3-3 1.4-2.2 3.4-1 2.5 1.4zm5.8-1.4c.3.5-.1 1-.9 1-.9 0-1.6-.5-1.6-1 0-.6.4-1 .9-1 .6 0 1.3.4 1.6 1zm79.6 3.1c-.6 1.6-1 1.8-1 .7-.1-2.2 1.2-5.5 1.6-4.2.2.6-.1 2.2-.6 3.5zm-170.6-.1c-.5.8-1.1.8-1.7.2-.6-.6-.7-1.6-.3-2.2.5-.8 1.1-.8 1.7-.2.6.6.7 1.6.3 2.2zm6.8-.5c-2.2 1.6-3.8.8-2.3-1 .6-.8 1.8-1.1 2.6-.8 1.2.4 1.2.8-.3 1.8zM411 160c0 9.1-.3 11-1.5 11-.8 0-1.5-.7-1.5-1.5s-.7-1.5-1.5-1.5c-1.5 0-2.1-2.1-.8-3.3.3-.4.8-2.4 1-4.5.2-2 .8-3.9 1.3-4 .6-.2 1-1.9 1-3.8s.5-3.4 1-3.4c.6 0 1 4.3 1 11zm-11-8c0 .5-.5 1-1.1 1-.5 0-.7-.5-.4-1 .3-.6.8-1 1.1-1 .2 0 .4.4.4 1zm-22.4 4.6c3.4.9 3 2.9-1.1 4.8-6.2 3-5.6 4.7.8 2.1 4.3-1.8-.6 4.2-6.1 7.5-1.5.8-1.5 1.1-.2 2 .8.5 1.1 1 .5 1-.5 0-.3.4.5 1 1.2.8 1.2 1.1-.3 2.8-1.9 2-2.3 3.7-.7 2.7 2.2-1.4.8 1.4-1.5 2.9s-2.5 1.5-2.5.1c0-2.1-1.9-.9-3 1.9-.7 1.9-.9 1.8-1.7-1.4l-1-3.5-1.1 6.4c-1.3 7.1-1.1 7.8 1.5 7.6 3-.2 4.3-1.5 4.3-4.1 0-1.3.4-2.4.9-2.4s.8.8.6 1.7c-1.3 6.4-1.7 7.3-3.1 7.3-.9 0-1.8.9-2.1 1.9-.3 1.2-1.1 1.7-1.9 1.4-.8-.3-1.4 0-1.4.6s.5 1.1 1 1.1c.6 0 1 .9 1 2s.7 2 1.6 2c3.6 0-2.3 9.3-6.6 10.4-2.8.7-9.9 10.8-8.1 11.4 1.6.5 1.4 2.2-.2 2.2-.8 0-2.4 1.1-3.7 2.5-1.3 1.4-2.9 2.5-3.7 2.5-.7 0-1.3.7-1.3 1.5s-.4 1.5-1 1.5c-.5 0-1 .8-1 1.7 0 1-.7 2.7-1.5 3.7-1.3 1.7-1.4 1.6-1.1-1.9.1-2.2 1-4.3 2.1-5.1.9-.7 1.5-2 1.2-2.8-.3-.8.1-2 .9-2.6.8-.7 1.4-2.3 1.4-3.6 0-1.2.5-2.6 1-2.9 1.5-1 1.2-3.5-.5-3.5-.8 0-1.5-.6-1.5-1.4 0-2.7 1.9-6.6 3.3-6.6 1.3 0 3.5-6.6 4-11.5.1-1.2 1.6-2.7 3.8-3.7 4.1-2 5.5-4.4 3.8-6.4-.9-1.1-.8-1.4.1-1.4.8 0 .9-1 .5-3-.5-2.3-.3-3.2 1-3.6 1.2-.5 1.3-.9.5-1.4-.9-.6-.7-1.3.9-2.9 1.1-1.1 1.8-2.7 1.5-3.6-.4-1 .5-2.1 2.5-3.2 1.7-1 3.1-2.1 3.1-2.6 0-.4 1-.5 2.3-.2 2.7.7 5.1-1.5 5.2-4.8 0-1.2.3-2.2.6-2.2 1.1 0 3.9-2.7 3.9-3.7 0-.6-.7-.7-1.6-.4-2.2.9-5-1.4-3.2-2.6.7-.4 1.9-.6 2.6-.3.8.3 2.5.8 3.8 1.1zM398 158c0 .5-.5 1-1.1 1-.5 0-.7-.5-.4-1 .3-.6.8-1 1.1-1 .2 0 .4.4.4 1zm-50 10.3c0 1.6-5.4 6.7-7.1 6.7-.6 0-.8-.7-.5-1.6.3-.9.6-2 .6-2.5s.6-.9 1.4-.9c.7 0 1.9-.7 2.6-1.5 1.5-1.9 3-1.9 3-.2zM99 172c0 .5-.4 1-1 1-.5 0-1-.5-1-1 0-.6.5-1 1-1 .6 0 1 .4 1 1zm146.3 2.6c.3.4 2.4.7 4.7.8 2.2.1 4.6.8 5.3 1.5 1 1.1 0 1.3-5.2.8-3.5-.3-9.1-.1-12.4.4-6.6 1.1-7 1-6.1-1.5.5-1.2 1.4-1.5 3.3-1.1 1.4.3 4 .1 5.6-.4 3.9-1.2 4.1-1.2 4.8-.5zm165.2 2.3c-.3.6-1.1 1.1-1.7 1.1-.6 0-.6-.6.2-1.5 1.4-1.7 2.6-1.3 1.5.4zm-132.9.9c6.9.3 16.7 5.3 14.5 7.5-.6.6-2.1.3-4.3-1-4.5-2.7-15.1-4.7-17.7-3.3-1.3.7-2.2.7-2.6 0-.9-1.5.4-3 2.5-3 1 0 2.2-.5 2.5-1 .4-.7 1.2-.7 1.8-.2.7.5 2.2.9 3.3 1zm59.4-.4c0 .3-.4.8-1 1.1-.5.3-1 .1-1-.4 0-.6.5-1.1 1-1.1.6 0 1 .2 1 .4zm-124.5 2.5c5.8.6 5.8 3.1.1 3.1-2.5 0-5.7.5-7.3 1.1-8.7 3.5-14 2.4-5.9-1.2 2.5-1.1 4.6-2.4 4.6-2.9s.6-.7 1.4-.4c.8.3 1.7.1 2.1-.5.4-.7 1.2-.8 2.3-.2.9.5 2.2 1 2.7 1zm127.5.7c0 1.4-.3 1.4-1.5.4-.8-.7-1.5-1.4-1.5-1.6 0-.2.7-.4 1.5-.4s1.5.7 1.5 1.6zM154 183c0 .5-.4 1-1 1-.5 0-1-.5-1-1 0-.6.5-1 1-1 .6 0 1 .4 1 1zm99.5.6c2.4 2.5 1.3 3.9-3.3 4.2-2.3.2-4.2.7-4.2 1.3 0 .5.5.9 1.1.9.6 0 .8.9.4 2-.6 1.8-.2 2 3.1 2 2 0 4.2.6 4.8 1.4.6.8 3.8 1.7 7.1 2.1 7.2.7 9.6-.5 9.7-5.3.1-2.2.6-3.2 1.7-3.3 1 0 1.2-.2.4-.6-2.5-1-1.2-2.3 2.1-2.3 4.5 0 8.9 1.7 8.1 3.1-.4.6.1 1.6 1.1 2.3 2.2 1.7 1 3.6-2.2 3.6-1.6 0-2.3-.4-1.8-1.1.4-.7-.2-.6-1.7.2-2.5 1.3-2.4 1.5 3.4 3.3.9.3 1.7 1.1 1.7 1.7 0 .8-1.5 1-4.6.6-3.8-.4-4.5-.2-4.2 1.2.2.9 1.8 2 3.6 2.6 4.2 1.2 4.1 2.5-.2 2.5-3 0-6.6 2.3-5.4 3.5.2.2 2.2.8 4.4 1.3 2.4.5 3.9 1.4 3.9 2.2 0 1.6-.2 1.6-5 .6-2-.4-3.7-.1-5 .8-1.8 1.3-1.8 1.6-.5 3 .9.9 3.5 1.7 5.8 1.8 4.7.1 5.5.7 4.3 2.7-.7 1.1-2.7 1.1-10.7.2-18.9-2.1-41.6-1.5-53.8 1.6-3.2.8-6.5 1.2-7.2.9-2.4-.9-1.5-2.7 2.2-4.2 4.2-1.8 4-4-.5-3.8-3.8.2-4-.8-.3-2.6 2.5-1.3 2.6-1.4.5-1.7-2.3-.4-3.8-2.9-2.3-3.8 1.9-1.2 1-2.6-1.2-2-2.2.6-2.2.6.2-1.5l2.5-2.1-3 .7c-2.8.7-2.9.6-1.5-1.1 1.4-1.7 1.3-1.8-.7-1.3-2.7.7-3-.7-.5-2.1 1.4-.9 1.2-1-1.3-1.1-2.5-.1-2.7-.2-1.2-1.1 2.4-1.4 2.2-3.2-.3-2.4-2.3.7-2.8-1-.5-1.9.8-.3 1.5-1.2 1.5-1.9 0-.8 1.4-2 3.1-2.7 3.9-1.7 6.1-.5 7 3.8 1 5 3.6 8.2 6.6 8.2 3.7 0 17.3-3.3 17.3-4.3 0-.4-.7-.7-1.5-.7s-1.5-.5-1.5-1c0-.6.9-1 2-1s2-.5 2-1c0-.6-1.2-1-2.6-1-1.4 0-2.3-.4-1.9-1 .3-.6 1.5-1 2.6-1 1 0 1.9-.5 1.9-1 0-.6-1.1-1-2.5-1-2.3 0-2.4-.2-1.3-2 1.5-2.4 2.7-2.7 10.5-2.9 4.5-.1 6.6.3 7.8 1.5zm136.9 1.9c-2.2 1.6-3.4 1.9-3.4.7 0-1 4.3-3.2 4.9-2.6.3.2-.4 1.1-1.5 1.9zM266.6 188c.8 0 1.4 1 1.4 2.5 0 2.2-.4 2.5-3.9 2.5-4.5 0-5.2-.6-4-3.5.7-1.9.8-1.9.8.3.1 1.7.6 2.2 1.9 2 1.2-.3 1.7-1.2 1.5-3.3 0-1.7.1-2.4.4-1.8.2.7 1.1 1.3 1.9 1.3zm127.8-1.1c.3.5-.1 1.2-1 1.5-2 .8-2.9.1-1.9-1.3.8-1.3 2.2-1.4 2.9-.2zm-164.9 4.2c0 3.2-.3 3.4-4.2 4.3-2.3.5-4.9.6-5.7.3-2-.8-2.1-3.7-.1-3.7.8 0 1.5-.4 1.5-.9 0-.4 1.2-.6 2.6-.3 2 .4 2.6 0 3.1-1.7.8-3.3 2.8-1.9 2.8 2zm23.5-.1c0 .5-.4 1-.9 1-.6 0-1.3-.5-1.6-1-.3-.6.1-1 .9-1 .9 0 1.6.4 1.6 1zm98.2 2.2c-.6.6-1.5.8-1.9.4-.4-.4-.1-1.1.7-1.6 1.9-1.2 2.7-.3 1.2 1.2zm44.8 3.1c0 2.9-.5 5.8-1 6.3-.8.8-.8 1.9 0 3.8.6 1.8.7 3.4.1 4.4-.8 1.5-1.1 1.3-2-1.1-.6-1.6-2-3.1-3.1-3.4-2-.5-1.9-.6.2-2.8 2.4-2.5 3.1-5.4 1.8-7-1-1.2 1.4-5.5 3.1-5.5.5 0 .9 2.4.9 5.3zm-321-1.8c0 .8-.4 1.5-1 1.5-.5 0-1-.7-1-1.5s.5-1.5 1-1.5c.6 0 1 .7 1 1.5zm334-1.1c0 .2-.8 1-1.7 1.7-1.6 1.3-1.7 1.2-.4-.4 1.3-1.6 2.1-2.1 2.1-1.3zm-304 1c0 .3-.4.8-1 1.1-.5.3-1 .1-1-.4 0-.6.5-1.1 1-1.1.6 0 1 .2 1 .4zm227 2.5c0 .5-.7 1.2-1.6 1.5-2.4.9-2.8.7-1.4-.9 1.4-1.7 3-2 3-.6zM149 198c0 .5-.5 1-1.1 1-.5 0-.7-.5-.4-1 .3-.6.8-1 1.1-1 .2 0 .4.4.4 1zm235 0c0 .5-.4 1-1 1-.5 0-1-.5-1-1 0-.6.5-1 1-1 .6 0 1 .4 1 1zm27-.1c0 .5-.7 1.4-1.5 2.1-1.6 1.4-1.8 1-.9-1.4.6-1.7 2.4-2.2 2.4-.7zm-294 2.5c0 .3-.4.8-1 1.1-.5.3-1 .1-1-.4 0-.6.5-1.1 1-1.1.6 0 1 .2 1 .4zm270 2.5c0 .6-.4 1.3-1 1.6-.5.3-1-.1-1-.9 0-.9.5-1.6 1-1.6.6 0 1 .4 1 .9zm23.7 1.3c-.3.8-.6.5-.6-.6-.1-1.1.2-1.7.5-1.3.3.3.4 1.2.1 1.9zm-7.2 3.5c-1 1.5-2.7 3.7-3.8 4.8-1.9 2-1.9 2-.2-1.5 2-4 4.6-7.2 5.3-6.5.3.2-.3 1.7-1.3 3.2zm-116.3 4.5c-.7.7-1.2.8-1.2.2 0-1.4 1.2-2.6 1.9-1.9.2.3-.1 1.1-.7 1.7zm-85.2 1.4c0 1.6-1.6 1.9-2.5.4-.8-1.3.4-3.2 1.6-2.5.5.4.9 1.3.9 2.1zm202 .3c-.6 1.2-1.5 2.1-2.1 2.1-.5 0-.2-1.1.7-2.5 2-3 3.1-2.6 1.4.4zm-20 .1c0 .5-.4 1-1 1-.5 0-1-.5-1-1 0-.6.5-1 1-1 .6 0 1 .4 1 1zm-217.5 1c-.3.5-1.1 1-1.6 1-.6 0-.7-.5-.4-1 .3-.6 1.1-1 1.6-1 .6 0 .7.4.4 1zm229.5 1.5c.5 1.4.8 3.6.6 4.8-.3 1.2-.5 3-.5 3.9-.1 2.5-2.1 2.3-2.1-.2 0-1.1-.4-2-.9-2-.8 0-.9-3.3-.2-8.3.2-1.7 2.2-.5 3.1 1.8zm-9.5.4c-.3.6-1.1 1.1-1.7 1.1-.6 0-.6-.6.2-1.5 1.4-1.7 2.6-1.3 1.5.4zm-6.3 5.3c-.7.7-1.2.8-1.2.2 0-1.4 1.2-2.6 1.9-1.9.2.3-.1 1.1-.7 1.7zm-65.2-.8c0 .3-.4.8-1 1.1-.5.3-1 .1-1-.4 0-.6.5-1.1 1-1.1.6 0 1 .2 1 .4zm-199 4.1c-.7.9-1.5 1.3-1.8 1-.3-.2.1-1.1.8-2 .7-.9 1.5-1.3 1.8-1 .3.2-.1 1.1-.8 2zm143.5-1c1.1.2 2.7.4 3.5.4 1.3.1 1.3.3.1 1-.8.5-2.8.7-4.5.4-2.2-.3-3.9.1-5.5 1.4-2.7 2.2-2.9 5.1-1.1 15.7 1.3 8 .8 8.7-5.1 7.9-4.5-.6-5.1.7-1.4 3.1 2.3 1.5 2.7 4.4.4 3-.5-.3-1.5-.1-2.2.4-.7.6-2.3 1.2-3.7 1.4-1.4.1-2.5 1-2.5 1.8 0 1.2 1.7 1.4 9 1.3 6-.2 8.5.1 7.5.7-.8.5-3.4 1-5.7 1-2.4 0-4.3.4-4.3.8 0 1.9 2.7 3.2 6.7 3.2 3.2 0 4.5-.5 5.3-2 .6-1.1.7-2 .3-2-.4 0 0-.5 1-1.1 2.4-1.4 2.1-2.8-.9-3.9-2.7-1.1-2.7-2.5.2-8.1 1-2 1.1-3.6.4-6-1.3-4.5-1.3-6 .3-5.8 2.2.4 9.2-1.4 11.6-2.9 2.1-1.4 2.3-2.1 1.7-6.7l-.6-5.1 3.4.4c4.1.5 4.5 1.2 5 10.5.3 4 .2 6 0 4.4-.8-4.4-2.4-3.1-2.5 2-.1 2.7-.3 4-.6 3-.8-3.2-2.3-1.7-2.3 2.3 0 4.5.6 5 2.1 1.7 1.1-2.5.4 14.8-.8 19.3-.6 2.2-.5 2.3 1 1.2 1.7-1.4 2.3-4.6 3.3-17.7.3-4.4.8-8.2 1-8.4 1.2-1.2-.1 22.3-1.3 24.6-1.1 2.1-1.1 2.9-.1 4.1 1.1 1.3 1 1.4-.9.3-1.8-.9-2.7-.9-4.2.1-2.9 1.8-3.6.4-1.8-3.9 2-5.2 3.3-13.8 1.9-12.9-.6.3-1.4 2.7-1.8 5.2-.4 2.9-1 4.2-1.6 3.6-.6-.6-.5-2.4.2-4.8.6-2.2 1.4-7.6 1.6-12.2.5-7.7.4-8.2-1.5-8.2-1.7 0-1.9.4-1 3.2 1.2 4.2 1.2 4.1-.8 3.4-1.5-.6-1.5-.5.1 1.3 2.1 2.3 1.3 4.9-1 3-.8-.7-1.4-.7-1.4-.1 0 .5.8 1.3 1.8 1.7 1.6.6 1.6.7-.2 2-1 .8-1.9 2.7-2.1 4.2-.4 4.9-3.3 10-8.2 14.2-4.1 3.5-5.5 4.1-9.4 4.1-4.9 0-11.9-2.4-11.9-4 0-.6-.7-1-1.5-1s-1.5-.9-1.5-2-.7-2-1.6-2c-1.1 0-1.4-.6-.9-2 .5-1.4.2-2-.9-2-1 0-1.6-.9-1.6-2.1 0-1.6-.5-2-2.7-1.7-3 .3-3.1-.1-4.8-13.5-.5-4.8-.4-5.7.9-5.7.9 0 1.6-.7 1.6-1.5 0-1.8.2-1.8 6.9 0 4.7 1.2 5.8 1.2 8.2-.1 1.6-.8 2.9-1.8 2.9-2.3 0-.5.9-1.1 2-1.4 2.6-.7 2.6-3.9-.1-6.3-1.8-1.6-3.4-1.9-9.8-1.7-10.4.3-7.2-1.3 4.9-2.5 8.4-.8 15.1-.7 21.5.3zm127.5.5c0 .5-.5 1-1.1 1-.5 0-.7-.5-.4-1 .3-.6.8-1 1.1-1 .2 0 .4.4.4 1zm-254.5 1.9c-.3.6-1.1 1.1-1.7 1.1-.6 0-.6-.6.2-1.5 1.4-1.7 2.6-1.3 1.5.4zm49-.9c-.3.5-1.1 1-1.6 1-.6 0-.7-.5-.4-1 .3-.6 1.1-1 1.6-1 .6 0 .7.4.4 1zm230.3 9.5c.1 7-.2 10.5-.9 10.5-.6 0-.9-.9-.6-2 .3-1 0-2.1-.6-2.3-.9-.3-.9-1.1 0-3 .7-1.5.8-2.9.3-3.2-.5-.3-.5-1.6.2-3.1.9-2 .9-2.7 0-3.3-.7-.4-1-1.5-.6-2.4 1.4-3.8 2.1-1.1 2.2 8.8zm-207.2-5.9c-.3.9-.6 2-.6 2.5 0 .4-.7.6-1.5.3-1.1-.5-1.2-1.1-.4-2.5 1.2-2.3 3.4-2.6 2.5-.3zm77.1 1.6c-.3.7-.5.2-.5-1.2s.2-1.9.5-1.3c.2.7.2 1.9 0 2.5zM396 230c0 1.9-3.6 4.7-4.7 3.6-.6-.6 2.9-5.5 4-5.6.4 0 .7.9.7 2zm-184.8 3.1c-1.4 3.9-1.2 13.5.3 17.6l1.5 3.8-.4-5.5c-.4-4.8-.4-5.1.5-2 .5 1.9 2.3 7.9 4 13.2l3.2 9.7-2.1 3.3-2.1 3.3.1-4.6c.1-5.5-2.1-11.9-4-11.9-1 0-1.2.6-.7 1.7 1.5 3.6 2.3 8.3 1.5 8.8-1 .6-2.5-1.4-1.7-2.2.3-.2-.1-2.2-.8-4.3-.8-2.2-1.7-8.2-2.1-13.5-.4-5.2-1.1-9.8-1.6-10.1-1.2-.8.2-7.6 2-9.7 2-2.3 3.5-.8 2.4 2.4zm3.5-1.9c-.3.8-.6.5-.6-.6-.1-1.1.2-1.7.5-1.3.3.3.4 1.2.1 1.9zM322 231c0 .5-.5 1-1.1 1-.5 0-.7-.5-.4-1 .3-.6.8-1 1.1-1 .2 0 .4.4.4 1zm-153 1c0 .5-.4 1-1 1-.5 0-1-.5-1-1 0-.6.5-1 1-1 .6 0 1 .4 1 1zm59.8 1.5c1 2.1.9 2.5-.3 2.5-.8 0-1.5-.9-1.5-2 0-1.7-.4-1.8-2.5-1-2 .7-2.5.6-2.5-.5 0-1 1-1.5 2.8-1.5 2.1 0 3.2.7 4 2.5zm-139.6.7c-.7.7-1.2.8-1.2.2 0-1.4 1.2-2.6 1.9-1.9.2.3-.1 1.1-.7 1.7zm201.2 2c.3 1.5.2 2.9-.3 3.2-.9.6-2.1-2.6-2.1-5.9 0-2.5 1.6-.8 2.4 2.7zm-73 2.9c-.1 9.6 1.4 17 4.6 22.1 3 5 4.7 10.9 3.5 12.8-1.2 1.9-3.7-1-3.1-3.6.4-1.3-.6-5-2.4-9.3-2.3-5.3-3.2-9.3-3.7-16-.5-7.6-.2-12.1.9-12.1.2 0 .3 2.7.2 6.1zm20-4c-.3.5-1 .7-1.5.3-.5-.3-.7-1-.3-1.5.3-.5 1-.7 1.5-.3.5.3.7 1 .3 1.5zm145.8.1c-.7.7-1.2.8-1.2.2 0-1.4 1.2-2.6 1.9-1.9.2.3-.1 1.1-.7 1.7zM203 238c-.8 1.5-1.5 1.9-2.2 1.2-.7-.7-.6-1.7.2-3.2.8-1.5 1.5-1.9 2.2-1.2.7.7.6 1.7-.2 3.2zm56.6-2.5c1.8 1.5 1.8 1.5-.5 1.3-1.4-.2-2.6-.9-2.9-1.6-.5-1.7 1-1.5 3.4.3zm5.9-.5c-.3.5-1.1 1-1.6 1-.6 0-.7-.5-.4-1 .3-.6 1.1-1 1.6-1 .6 0 .7.4.4 1zm18.6 16.2c.2 7.9-.1 14.9-.5 15.6-1.4 2.3-2.5 1.2-1.5-1.6.7-1.7.9-7.8.5-17.2-.4-9.7-.3-14 .3-12.9.6.9 1.1 8.1 1.2 16.1zm24.9-13.8c0 .3-.4.8-1 1.1-.5.3-1 .1-1-.4 0-.6.5-1.1 1-1.1.6 0 1 .2 1 .4zm33 1.6c0 .5-.4 1-1 1-.5 0-1-.5-1-1 0-.6.5-1 1-1 .6 0 1 .4 1 1zm3 2.6c0 .8-.5 1.2-1 .9-.6-.4-.8-1.1-.5-1.6.9-1.4 1.5-1.1 1.5.7zm50-.3c0 1.7-2 3.7-3.7 3.7-1 0-1-.5-.1-2.5 1.2-2.6 3.8-3.4 3.8-1.2zM140 243c0 .5-.5 1-1.1 1-.5 0-.7-.5-.4-1 .3-.6.8-1 1.1-1 .2 0 .4.4.4 1zm8-.2c0 .5-1.1 1.9-2.5 3.2-2.9 2.7-3.2 2.1-.9-1.5 1.6-2.4 3.4-3.3 3.4-1.7zm145 3.4c0 1-.4 1.8-.9 1.8-1.1 0-1.9-3-1.3-4.9.4-1.1.6-1.1 1.3 0 .5.8.9 2.2.9 3.1zm56 0c0 1.2-.1 1.9-.3 1.7-.1-.2-.9-1.2-1.6-2.2-1.2-1.4-1.1-1.7.3-1.7 1 0 1.6.8 1.6 2.2zm-147.6 4.5c-.3 2.7-1.1 5.2-1.6 5.8-.7.7-.9-.1-.4-2.4.3-1.8.6-4.4.6-5.7 0-1.3.5-2.4 1.1-2.4.7 0 .8 1.6.3 4.7zm108.6-4.3c0 .3-.4.8-1 1.1-.5.3-1 .1-1-.4 0-.6.5-1.1 1-1.1.6 0 1 .2 1 .4zm33 0c0 .3-.4.8-1 1.1-.5.3-1 .1-1-.4 0-.6.5-1.1 1-1.1.6 0 1 .2 1 .4zm44 1c0 .8-.7 1.6-1.5 2-1.3.4-1.4.2-.5-1.4 1.3-2.3 2-2.6 2-.6zm6 .9c0 1.2-3.9 4.2-4.6 3.5-.6-.6 2.6-4.8 3.7-4.8.5 0 .9.6.9 1.3zm-46 .6c0 .6-.4 1.3-1 1.6-.5.3-1-.1-1-.9 0-.9.5-1.6 1-1.6.6 0 1 .4 1 .9zm-230 .5c0 .2-.7.7-1.6 1-.8.3-1.2.2-.9-.4.6-1 2.5-1.4 2.5-.6zm206 0c0 .2-.7.6-1.5 1-.8.3-1.5.1-1.5-.4 0-.6.7-1 1.5-1s1.5.2 1.5.4zm88.5.6c-.3.5-1.1 1-1.6 1-.6 0-.7-.5-.4-1 .3-.6 1.1-1 1.6-1 .6 0 .7.4.4 1zm-205 8.6c.3 4.3 1 9.5 1.5 11.4 1.2 4.2 1.2 5 .3 5-2.4-.1-3.4-2.3-3.8-8.6-.4-6.4.3-16.9 1.1-16.1.2.2.6 3.9.9 8.3zm82.4-4.9c0 3.4-.1 3.6-1.1 1.6-.6-1.2-.8-2.9-.5-3.7 1.1-2.7 1.7-1.8 1.6 2.1zm-152.9.6c0 .2-1 1.2-2.1 2.3-2.2 1.9-2.2 1.9-1-.4 1-1.8 3.1-3.1 3.1-1.9zm209 .1c0 .3-.4.8-1 1.1-.5.3-1 .1-1-.4 0-.6.5-1.1 1-1.1.6 0 1 .2 1 .4zm67 1.5c0 1.2-2 2.5-2.7 1.8-.7-.7.6-2.7 1.8-2.7.5 0 .9.4.9.9zm-79.5 2c-.3.6-1.1 1.1-1.7 1.1-.6 0-.6-.6.2-1.5 1.4-1.7 2.6-1.3 1.5.4zm22.5-1c0 1.1-2.9 3.5-3.5 2.9-1-.9.7-3.8 2.1-3.8.8 0 1.4.4 1.4.9zm32.2 1.3c-.7.7-1.2 2-1.2 3s-.4 1.8-1 1.8c-1.7 0-1.1-4.8.7-5.9 2.2-1.2 3.1-.5 1.5 1.1zm-189.2-.8c0 .3-.4.8-1 1.1-.5.3-1 .1-1-.4 0-.6.5-1.1 1-1.1.6 0 1 .2 1 .4zm125 1.1c-.7.8-1.7 1.5-2.2 1.5-.6 0-.5-.7.2-1.5s1.7-1.5 2.2-1.5c.6 0 .5.7-.2 1.5zm25-.1c0 .3-.4.8-1 1.1-.5.3-1 .1-1-.4 0-.6.5-1.1 1-1.1.6 0 1 .2 1 .4zm-148.3 6.3c-.4 1.7-.4 1.7-1.2 0-.4-.9-.4-2.5 0-3.5.8-1.6.8-1.6 1.2 0 .3 1 .3 2.6 0 3.5zM412 262c0 .5-.5 1-1.1 1-.5 0-.7-.5-.4-1 .3-.6.8-1 1.1-1 .2 0 .4.4.4 1zm-34 3.4c0 1.1-1.9 1.5-2.5.6-.3-.5.1-1 .9-1 .9 0 1.6.2 1.6.4zm-91.9 5.9c-1.1 1.2-2.4 1.8-2.8 1.4-.4-.4.3-1.4 1.5-2.3 1.2-.8 2.3-2.3 2.3-3.2.1-1.4.2-1.4.6.2.3 1.1-.4 2.7-1.6 3.9zM363 268c0 .5-.2 1-.4 1-.3 0-.8-.5-1.1-1-.3-.6-.1-1 .4-1 .6 0 1.1.4 1.1 1zm48.2 1.2c-.7.7-1.2.8-1.2.2 0-1.4 1.2-2.6 1.9-1.9.2.3-.1 1.1-.7 1.7zm-73.2 2.3c-.7.9-1.5 1.3-1.7 1.1-.7-.7.7-2.6 1.9-2.6.6 0 .6.6-.2 1.5zm-137 1.2c0 1 1.2 2.7 2.7 3.8l2.6 2.2-3.4-.1c-1.9 0-4.3.4-5.4.9-1.9.9-2 .8-.2-1.8.9-1.4 1.7-3.5 1.7-4.7 0-1.1.5-2 1-2 .6 0 1 .8 1 1.7zm187.4 1.8c-.6 1.6-2.4 2.1-2.4.7 0-1.1 1.1-2.2 2.1-2.2.5 0 .6.7.3 1.5zm-282.4 2c0 .9-.9 1.5-2.2 1.5-2.2-.1-2.3-.1-.4-1.5 2.5-1.9 2.6-1.9 2.6 0zm158.7 2c-.3 1.9-.1 3.7.4 4 .5.4.9 1.7.9 3.1 0 1.3.1 2.4.3 2.4.2 0 3 .5 6.3 1.1 9.2 1.7 9.3 3.8.5 9.8-3.1 2.1-6.9 5-8.4 6.5-2.7 2.5-3.9 3-6.4 2.7-.7-.1-2.2.3-3.2.9-1.6.8-3.5.4-8.5-1.6-6.6-2.6-10.7-5.8-13.9-10.7-.9-1.5-2.2-2.7-2.8-2.7-1.1 0-3.9-2.5-3.9-3.4 0-.3.7-.6 1.6-.6 1.4 0 1.4-.3.4-1.5-1.7-2.1-.4-3.2 2-1.7 1.1.7 2.8 1.2 3.7 1.2 1.4-.1 1.2-.5-.9-2.3-3.7-3-3.6-4 .1-1.9 3.4 1.9 5.6.8 2.7-1.4-1.1-.7-1.7-1.7-1.3-2 .4-.4 1.3-.1 2.1.6 2.4 1.9 7.8 1.9 10.5-.2 1.3-1 3.1-1.8 4-1.9.9 0 3.4-.9 5.6-1.9 2.2-1 5.1-1.9 6.4-1.9 2.2-.1 2.3.2 1.8 3.4zm15.9-1.9c1.8 1.5 1.8 1.5-1.1.9-3.7-.8-5.7-2.5-2.9-2.5 1.1 0 2.9.7 4 1.6zm-222.9 0c-.3.3-1.2.4-1.9.1-.8-.3-.5-.6.6-.6 1.1-.1 1.7.2 1.3.5zM99 278c-2.4 1.5-3.7 1.1-1.6-.5 1.1-.8 2.2-1.2 2.5-.9.3.3-.1.9-.9 1.4zm236-.1c0 1.2-2 2.5-2.7 1.8-.7-.7.6-2.7 1.8-2.7.5 0 .9.4.9.9zM216.5 279c.4.6 1.3.5 2.5-.2 2.3-1.4 3.8-.4 2.2 1.5-.6.7-.9 2.3-.5 3.5.7 2.8-.8 2.9-2.5.2-.7-1.1-2.7-2.9-4.5-4l-3.2-2h2.7c1.5 0 3 .4 3.3 1zm81.5 0c0 .5-.5 1-1.1 1-.5 0-.7-.5-.4-1 .3-.6.8-1 1.1-1 .2 0 .4.4.4 1zm114 0c0 .5-.5 1-1.1 1-.5 0-.7-.5-.4-1 .3-.6.8-1 1.1-1 .2 0 .4.4.4 1zm-341.3 1.5c5 2.1 3.1 3.9-2.2 2.1-4.1-1.4-10-1.1-12.3.7-.7.5-1.5.7-1.8.4-1.1-1.1 6.1-4.7 9.4-4.7 1.8 0 4.9.7 6.9 1.5zm49.3 0c0 .3-1.2 1.7-2.7 3-2.5 2.1-2.6 2.6-1.5 4.4.7 1.2.8 2.1.2 2.1-.5 0-1.4-.9-2-2-.9-1.7-.6-2.5 1.7-4.9 2.7-2.8 4.3-3.7 4.3-2.6zm154.6 2c-2.1 1.6-3.2 1.3-2.1-.4.3-.6 1.4-1.1 2.3-1.1 1.5.1 1.5.2-.2 1.5zm-59.6 4.8c1.5 1.5 3 3.7 3.3 4.9.5 1.8 0 1.6-2.8-1.3-1.9-1.9-3.6-4.8-3.9-6.4-.4-1.7-.3-2.3 0-1.5.4.8 1.9 2.7 3.4 4.3zm66.8-4.1c-.3.7-1.2 1.4-2.1 1.6-1.2.2-1.5-.1-1.1-1.2.7-1.9 3.8-2.2 3.2-.4zm-251.5 1.9c1.2.6 3 1.9 4 2.7 1.2 1.1 4.3 1.6 9.8 1.8 4.5.2 8.4.6 8.7.9.9.9-3.1 3.3-4.5 2.8-.7-.3-1.3.1-1.3.8 0 1.2-.2 1.2-.9 0-.7-1-1.3-1.1-3-.1-1.2.6-3.2 1.1-4.4 1-4.6-.4-5.8.1-6.7 2.6-.9 2.3-1.4 2.6-4.3 2-4.6-.9-7-4.1-6.2-8.6.6-3.3 3.6-7 5.7-7 .5 0 1.9.5 3.1 1.1zm78.8 1c1.4 2.3 1 8.6-.7 10.3-2.4 2.5-5.9 2.9-9.3 1.2-1.7-.9-3.4-1.7-3.8-1.7-.5-.1-1.7-.6-2.8-1.2-2.3-1.2-7.5-1.7-7.5-.7 0 .4-1.9.6-4.2.5-3.5-.2-4.3-.6-4.3-2.1 0-1.7.8-1.9 9.9-1.9 8.8 0 10-.2 11-2 .6-1.1 1.8-2.5 2.6-3.1 1.9-1.6 8-1.1 9.1.7zm78.3.4c-1 .8-2.3 1.4-2.9 1.4-.5.1.1-.8 1.5-1.9 1.4-1 2.7-1.7 2.9-1.4.3.2-.4 1.1-1.5 1.9zm20.6-2.1c0 .3-.4.8-1 1.1-.5.3-1 .1-1-.4 0-.6.5-1.1 1-1.1.6 0 1 .2 1 .4zm16 .6c0 .5-.5 1-1.1 1-.5 0-.7-.5-.4-1 .3-.6.8-1 1.1-1 .2 0 .4.4.4 1zm65.8.1c-1 .5-1.8 1.5-1.8 2.1 0 .6.8 1.7 1.8 2.4 1.6 1.2 1.5 1.3-.6 1.4-2 0-2.2-.4-2-3.5.2-2.8.6-3.5 2.3-3.5 1.8.1 1.8.1.3 1.1zm121.2 1.4c-.7.9-1.5 1.3-1.8 1-.3-.2.1-1.1.8-2 .7-.9 1.5-1.3 1.8-1 .3.2-.1 1.1-.8 2zm-349 .9c0 .3-.4.8-1 1.1-.5.3-1 .1-1-.4 0-.6.5-1.1 1-1.1.6 0 1 .2 1 .4zm8.1.9c-.1 1.2-1.5.9-1.9-.4-.3-.6.1-1 .8-.8.6.3 1.1.8 1.1 1.2zm124.6 2.4c-.3 1-.5.4-.5-1.2 0-1.7.2-2.4.5-1.8.2.7.2 2.1 0 3zm217.3 1.5c0 3-.1 3.1-1.7 1.6-1.3-1.4-1.4-2-.3-3.2 1.8-2.2 2-2 2 1.6zM68.5 292c1.4.6.1.9-4.3.9-4 .1-6.1-.3-5.7-.9.7-1.2 7.2-1.2 10 0zm106.8 1.4c.6 1.4-1.9 2.6-5.6 2.6-2.6 0-1.6-2.3 1.4-3.1 3.6-1 3.6-1 4.2.5zm4.7-.4c0 .5-.4 1-1 1-.5 0-1-.5-1-1 0-.6.5-1 1-1 .6 0 1 .4 1 1zm13.2 2.4c.7 1.1-1.5 2.5-4.2 2.5-1-.1-1.1-.2-.2-.6.6-.2 1.2-1.1 1.2-1.8s-.6-1.6-1.2-1.9c-.7-.3-.2-.3 1.2 0 1.4.4 2.8 1.2 3.2 1.8zm7.8-2c0 .2-.8 1-1.7 1.7-1.6 1.3-1.7 1.2-.4-.4 1.3-1.6 2.1-2.1 2.1-1.3zm86.6 2.7c1.9 2.2 1.9 2.2-.6 1.4-3.2-.9-3.3-1.1-2.5-2.4.8-1.5.9-1.4 3.1 1zm14.9-1.2c.3.6-.4 1.5-1.5 2.1-1.1.6-2 1.7-2 2.5s-.7 1.5-1.5 1.5c-3.1 0-2.8 3 .6 6 1.8 1.7 3 3 2.7 3-.4 0-1.3.3-2.2.6-1 .4-1.6.1-1.6-.8 0-2.2-4.9-4.2-6.6-2.7-2.1 1.8-1.7 3.6 1.1 4.3 2.9.7 3.2 1.8 1 3.6-1 .8-1.5.9-1.5.1 0-.6-1.2-1.8-2.6-2.7-2.3-1.6-2.7-1.6-4.1-.1-1.3 1.3-1.4 1.9-.3 3.1 1 1.3 1 1.6-.4 1.6-.9 0-1.6-.5-1.6-1 0-1.6-3.6-1.2-5 .5-.8.9-2.1 1.3-3.2 1-2.2-.8-9.1 3.2-8.5 4.9.4 1.2 4 1.3 17.5.1 7.6-.7 9.6-1.2 10.5-2.7.7-1.1 3.8-3.2 7-4.8 3.1-1.5 6.3-3.2 7-3.8.6-.5 3-1.5 5.2-2.2 2.2-.7 5.1-1.9 6.3-2.7 2-1.2 2.9-1.2 5.3-.3l2.9 1.3-2.7 1.4c-1.4.7-3.2 1.2-3.9.9-2.3-.9-3.5 1.9-1.8 4.3 1.9 2.6.8 4.4-1 1.8-.8-1-2.5-1.6-4.2-1.6-3.6.2-11.4 3.5-11.4 4.9 0 .6-.7 1-1.5 1-.9 0-1.9 1-2.4 2.3-.8 2-1.5 2.3-5.3 2-2.3-.1-5.3-.5-6.4-.8-2.7-.6-4 .9-4.9 5.7-.8 4.1.8 5.7 4.3 4.3.9-.4 2.6-.8 3.7-.9 1.2-.1 2.1-1.1 2.5-2.6l.6-2.5.6 2.3c.9 3.4 4.2 2.5 4.6-1.1l.3-2.8 2.4 2.5c3.8 4.1 13.5 2.7 16.7-2.3 1.8-2.9 5-2.6 8.6.9 1.8 1.6 4 3.1 4.9 3.1 1 .1-.4.5-3.2 1-4 .6-5.3.5-6.8-.9-1.8-1.6-2-1.6-3.7.6-1 1.2-2.8 2.2-4 2.2-1.2 0-1.9.4-1.6.9.4.5-1.2 1.2-3.5 1.6-3.1.5-4.5.3-5.9-1-1.6-1.5-2.3-1.5-5.5-.4-2 .8-4.1 1.9-4.6 2.5-.7.9-2 1-4.2.3-1.8-.5-4.6-.9-6.3-.9-4 0-4.5-.6-2.8-3.8.8-1.5 1.4-3.9 1.4-5.5 0-3.4-3-3.7-6.1-.6-1.6 1.6-2.7 1.9-4.7 1.3-3-.9-4.1-1.1-5.9-1.3-.7 0-1.3-1.1-1.3-2.3 0-1.2-1.4-3.6-3.1-5.4-3-3.1-3.2-6.1-.4-5 .7.2 1.6-.2 1.9-1 1-2.5 2.3-.7 1.8 2.4-.2 1.6.1 3.3.7 3.7.7.3 4.2-.5 7.9-2 7.8-3 20.9-13.3 22.5-17.5 1.4-3.7 7.6-6.5 9.2-4.1zM70 297.1c0 .5-2.7.9-6 .9-4.1 0-6-.4-6-1.3 0-.8 1.7-1.1 6-.9 3.3.2 6 .8 6 1.3zm142-1.2c0 .5-.7 1.4-1.5 2.1-1.6 1.4-1.8 1-.9-1.4.6-1.7 2.4-2.2 2.4-.7zm148 .1c0 .5-.5 1-1.1 1-.5 0-.7-.5-.4-1 .3-.6.8-1 1.1-1 .2 0 .4.4.4 1zm-138 1c0 .5-.2 1-.4 1-.3 0-.8-.5-1.1-1-.3-.6-.1-1 .4-1 .6 0 1.1.4 1.1 1zm189.6 5.7c-1.1 1.1-1.9-.6-1.1-2.4.8-1.7.8-1.7 1.2 0 .3 1 .2 2.1-.1 2.4zm-342.4-.5c-.5.5-2 .8-3.3.6l-2.4-.5 2.5-1c2.8-1.2 4.7-.6 3.2.9zm95.4 1.5c-1.1 1.1-1.9-.6-1.1-2.4.8-1.7.8-1.7 1.2 0 .3 1 .2 2.1-.1 2.4zm15.2-2c2.7 1.6 2.8 1.9 1.9 5.5-1.1 4.4-2.9 5.2-2.1.9.6-2.7.3-3.1-3.2-4.6-2.5-1-4-1.2-4.2-.5-.2.5-.8 1-1.3 1-1.6 0 .1-2.1 2.5-3 2.9-1.2 3.1-1.2 6.4.7zm36.1.4c-1.6 1-2.3.4-1.4-1 .3-.6 1.1-.8 1.7-.5.6.4.5.9-.3 1.5zm66.7-.6c1.4 1.3 1.2 1.5-1.5 1.5-2.1 0-3.2.6-3.6 2-.7 2.1-1.6 2.5-2.9 1.3-.6-.6 4.8-6.3 6-6.3.3 0 1.2.7 2 1.5zm-221 .6c.3.6.1 1.6-.5 2.2-.9.9-1.4.8-2.1-.3-.9-1.5-.4-3 1-3 .5 0 1.2.5 1.6 1.1zm18.8 5.5c.4 3.2 1.5 6.7 2.6 8.2 2 2.5 2.6 7.8 1.2 9.7-.8 1.2-5.8 4.5-6.7 4.5-.3 0-1.9-1.4-3.5-3-3.3-3.4-3.9-7.3-1.5-10.7.8-1.2 1.2-2.8.9-3.6-.3-.8-.1-1.8.5-2.2 2.1-1.2 1.1-2.5-1.5-1.9-2.3.6-2.5.5-1.6-1.2.5-1.1.8-2.7.6-3.8-.2-1.4 0-1.6.9-.7 1.6 1.6 4.4 1.4 5.1-.5 1.1-2.7 2.3-.6 3 5.2zm109.1-2.4c-1.1 5.4-1.6 6.8-2.5 6.8-1.7 0-2.1-2-1-6 1.4-5.1 4.5-5.8 3.5-.8zM312 303c1.8 1.2.2 1.2-2.5 0-1.3-.6-1.5-.9-.5-.9.8 0 2.2.4 3 .9zm-97.4 8.7c.8.3 1.4 1.1 1.4 1.9 0 .8.7 1.4 1.5 1.4.9 0 1.8.7 2.1 1.5.4.8 1.3 1.5 2.2 1.5.8 0 1.3.3.9.6-.3.3-2.2 0-4.1-.7-2.4-.9-3.6-1.9-3.6-3.2 0-1-.9-2.1-1.9-2.4-2.3-.6-3.3-5-1.7-7.5.9-1.6 1.1-1.3 1.4 2.2.2 2.4.9 4.3 1.8 4.7zm-107.6-6c0 .5-.4 1.5-1 2.3-1.1 1.8-2.5.7-1.7-1.5.6-1.5 2.7-2.1 2.7-.8zm-57.3 2.5c-.3.8-.6.5-.6-.6-.1-1.1.2-1.7.5-1.3.3.3.4 1.2.1 1.9zm6.7.3c2.7 1.4 6 2.5 7.3 2.5 1.4 0 2.3.6 2.3 1.6 0 1.2-1 1.5-4.7 1.3-2.7-.2-5.7-.8-6.8-1.3-1.1-.6-2.1-1.1-2.2-1.1-.1 0-.4-1.2-.8-2.8-.4-1.5-.6-2.7-.4-2.7.2 0 2.6 1.1 5.3 2.5zm166.2 0c.8 1.3 3 3.4 4.7 4.5 2.9 1.9 2.9 2.1.7 1.5-1.4-.4-3.4-.9-4.5-1.2-1.8-.4-4.5-4.3-4.5-6.5 0-1.6 2-.7 3.6 1.7zm111.6-.3c-.7.7-1.2.8-1.2.2 0-1.4 1.2-2.6 1.9-1.9.2.3-.1 1.1-.7 1.7zm76.6 1.9c-1.8 1.2-2.3-.8-.6-2.8 1.2-1.5 1.3-1.5 1.6.2.2 1-.2 2.1-1 2.6zm-247.2 1.7c-1.1 1-1.5-.4-.8-2.8l.7-2.5.3 2.3c.2 1.3.1 2.6-.2 3zm106.8-.6c-.9 1.4-2.3-.2-1.7-1.8.4-1.2.8-1.3 1.4-.3.4.7.5 1.7.3 2.1zm-168.5.9c-1.9 1.2-2.4.2-.8-1.7.9-1.1 1.4-1.3 1.7-.4.3.7-.2 1.6-.9 2.1zm253.6-2.1c.3.5-.1 1-.9 1-.9 0-1.6-.5-1.6-1 0-.6.4-1 .9-1 .6 0 1.3.4 1.6 1zM91 313.6c0 1.5-2.5 3.6-3.3 2.7-.4-.3-.7-1.9-.7-3.5 0-2.6.2-2.7 2-1.6 1.1.7 2 1.8 2 2.4zm143.7-.5c.6.6 3.8 1.7 7 2.3 5.9 1.2 7.9 3.4 2.6 2.8-1.6-.2-4.2.2-5.8.8-2.5 1-3.2.8-5.3-1.4-1.5-1.5-2.2-3.1-1.9-4 .7-1.9 1.9-2 3.4-.5zm96.7.4c-1.8 1.4-1.8 1.5 1.1 3.8 2.5 2.1 2.7 2.7 1.7 4-2.2 2.7-4.6 1.4-5.3-2.9-.8-4.9-.2-6.4 2.4-6.4 2 0 2 0 .1 1.5zM99 315c0 .5-.5 1-1.1 1-.5 0-.7-.5-.4-1 .3-.6.8-1 1.1-1 .2 0 .4.4.4 1zm100.7-.4c-.3.3-1.2.4-1.9.1-.8-.3-.5-.6.6-.6 1.1-.1 1.7.2 1.3.5zm144.8 2c1.1.6 5.3 1.4 9.3 1.7 5.1.3 8.2 1 10 2.4 1.5 1.1 3.5 2.2 4.5 2.6 3.3 1.2 1.6 2.5-4 3-3.2.3-7 .8-8.6 1.2-2.2.6-2.6.4-2.1-.8.3-.9 1.3-1.3 2.5-1 2.1.6 5.9-2.6 5.9-4.8 0-1.6-12.1-.4-13.2 1.4-.4.6-.5 2.5-.2 4.1.5 2.1.3 2.7-.7 2.4-.8-.3-1.6-1.8-1.7-3.4-.5-3.7-1.9-5.4-4.5-5.4-1.8 0-1.9.5-1.4 5.5.3 3 .3 5.5-.1 5.5s-.8-1.9-1-4.3c-.1-2.3-.9-4.7-1.8-5.3-1.2-1-1.1-1.2.7-1.7 1.7-.5 2-1.1 1.5-3.1-.5-2.1-.3-2.4 1.1-1.9 1 .4 2.7 1.2 3.8 1.9zm-280.7 1.6c2.7 1.4 3.1 4.4.5 3.3-1-.4-3.7-1.1-6.1-1.5-2.4-.4-5.1-1.4-6-2.3-1.5-1.5-1.2-1.6 3.9-1.1 3 .3 6.4 1 7.7 1.6zm122.8.5c-.8 2.6.3 3.7 6.4 6.1l5.5 2.1-6.5-.2c-5.7-.2-6.5-.4-6.5-2.1 0-2.6-5.1-4.3-7.8-2.7-1.5 1-2.2.9-3.8-.5-2.5-2.3-9.7-1.3-12.1 1.6-1 1.2-2.2 1.8-2.9 1.4-.7-.4-1.8.1-2.5 1.1-.8 1-1.7 1.6-2 1.2-1.1-1 1.5-3.5 3.9-3.9 1.4-.2 2.3-1.1 2.5-2.5.4-2.4 2.1-2.7 19-3.1 6.6-.2 7.3 0 6.8 1.5zm-44.6 2c0 2.8-.8 2.9-2.6.5-1.8-2.3-1.7-2.8.6-2.8 1.4 0 2 .7 2 2.3zm7-1.2c0 1.6-2.7 3.2-3.7 2.1-.7-.7 1.6-3.6 2.8-3.6.5 0 .9.7.9 1.5zm49-.5c0 .5-.7 1-1.6 1-.8 0-1.2-.5-.9-1 .3-.6 1-1 1.6-1 .5 0 .9.4.9 1zm214 .4c0 1.6-1.8 3.1-2.7 2.2-.8-.8.5-3.6 1.7-3.6.5 0 1 .6 1 1.4zm-25.3 1.8c-.3.8-.6.5-.6-.6-.1-1.1.2-1.7.5-1.3.3.3.4 1.2.1 1.9zm-255.5 1.3c-.5 2.7-1.8 4-2.6 2.7-.4-.8 2-5.2 2.8-5.2.2 0 .1 1.1-.2 2.5zM203 321c0 .5-.4 1-1 1-.5 0-1-.5-1-1 0-.6.5-1 1-1 .6 0 1 .4 1 1zm54.1 3.1c.4 1.9.9 5.6 1.1 8.4l.3 5-8.3.3c-6 .2-8.4-.1-8.7-1-.3-.7-.6-4.5-.8-8.3l-.2-7 7-.6c9.1-.7 8.8-.8 9.6 3.2zM235 322c0 .5-.5 1-1.1 1-.5 0-.7-.5-.4-1 .3-.6.8-1 1.1-1 .2 0 .4.4.4 1zm-98 1c0 .5-.7 1-1.5 1s-1.5-.5-1.5-1c0-.6.7-1 1.5-1s1.5.4 1.5 1zm172.3.5c.4.8.2 1.7-.3 2-.6.4-1-.3-1-1.4 0-2.5.6-2.7 1.3-.6zm75.6 1.2c1.7 1.5 3.1 3.1 3.1 3.5 0 1.2-5.2-1.1-6.6-3-3.1-4-.9-4.3 3.5-.5zM62 325c.8.5 1.2 1.2.9 1.5-.9.8-8.9-.6-8.9-1.6 0-1.2 6.1-1.1 8 .1zm350 4.6c0 6-1.4 6.5-2.4.8-.6-3.1.4-6.4 2-6.4.2 0 .4 2.5.4 5.6zm-188.2-.8c.2 1.4-.2 2.2-1.1 2.2-2 0-2.6-.9-2-3.1.7-2.5 2.7-1.9 3.1.9zm168.4.2c.5 3.2.1 3.5-2 2.1-1.2-.7-1.2-1.2-.1-3 .8-1.1 1.4-2.1 1.5-2.1.1 0 .4 1.3.6 3zm-242.5-1.4c-.3.3-1.2.4-1.9.1-.8-.3-.5-.6.6-.6 1.1-.1 1.7.2 1.3.5zm29 1.8c.9.8.9 1.7-.2 3.6l-1.4 2.5-.1-3.3c0-3.3-1.6-4.2-3.8-2-1.5 1.5-2.6.4-1.8-1.7.6-1.7 5.1-1.2 7.3.9zm-38.9.6c.9 1.5 1.9 1.9 3.6 1.4 1.3-.3 2.7-.1 3 .5.4.6 1.5 1.1 2.4 1.1 1.1 0 2.3 1.3 3 3.2 1.5 4 1.1 4.3-2.1 1.8-3-2.4-6.7-2.6-6.7-.4 0 3.8-4.7-1.6-6.5-7.4-.8-2.8 1.5-3 3.3-.2zm69.4.5c-.2 1.4-.8 2.5-1.3 2.5s-.9-1.1-.9-2.5.6-2.5 1.4-2.5c.9 0 1.2.8.8 2.5zm60.8 1.3l4.5.9-5.3.4c-5.7.4-7.9-.8-6.8-3.7.6-1.6.7-1.6 1.9 0 .6.9 3.2 2 5.7 2.4zm105-3c0 .5-.6 1.6-1.3 2.6-1.3 1.8-1.4 1.8-2 .2-.4-1-.5-2.2-.1-2.7.7-1.1 3.4-1.2 3.4-.1zM68 330c0 .5-.5 1-1.1 1-.5 0-.7-.5-.4-1 .3-.6.8-1 1.1-1 .2 0 .4.4.4 1zm97 3.7c0 3.3-.3 4.4-1.1 3.6-.9-.9-.3-8.3.7-8.3.2 0 .4 2.1.4 4.7zm203-1.1c0 .8-.4 1.2-1 .9-.5-.3-1-1.3-1-2.1s.5-1.2 1-.9c.6.3 1 1.3 1 2.1zm-303.5.3c.8 1.4-.6 2-6.3 2.7-4.9.6-7.1-.4-5.7-2.6.8-1.3 11.2-1.3 12-.1zm17.4 3.8c-.9 1-.9 1.7-.1 2.5.6.6.8 1.7.5 2.4-.3.8 0 1.4.5 1.4.6 0 1.4-1.7 1.8-3.7 1.1-5.7 5.2-8.8 8-6 .8.8-1.6 11.6-2.7 12.3-1.5.9-1.8-1.2-.8-5.5.9-4.2.6-6.2-.8-4.8-1.1 1.1-2.1 9.7-1.1 10.3 1.7 1 .7 4.3-1.8 6.3-3.1 2.4-3.6 2.1-8.6-4.2l-3.2-4 2.3-1.8c2.3-1.9 2.3-2 .6-4.6-1.7-2.5-1.7-2.7 0-3.9 1.4-1.1 2.2-1 4.1.3 1.9 1.2 2.2 1.8 1.3 3zm113.6-3.7c.3.6-.1.7-.9.4-1.1-.4-1.6 0-1.6 1.5 0 1.4.6 2.1 2 2.1 1.1 0 2 .5 2 1.1 0 .7 1 .9 2.8.5 1.5-.4 4.1-.9 5.7-1.2 1.7-.3 4.6-.9 6.5-1.5 3.4-.9 21.8-1.3 20.9-.5-.2.3-4.5.7-9.4 1.1-5 .3-12.4 1.5-16.5 2.6-15.3 4.1-17.1 4.4-17.9 3-.7-1.1-2.5-1.1-9.7-.1-4.9.6-10.7 1.6-13 2.2-4.4 1.2-7.9.7-10.9-1.7-1.9-1.4-1.9-1.5.8-.5 2.9 1 14.1.4 16.7-1 2.1-1.1 17.1-1.5 19.3-.5 1.1.4 2.3.3 3-.4.9-.9.7-1.3-.9-1.7-2.3-.6-4.8-4-3.9-5.4.8-1.3 4.2-1.3 5 0zm166.4.6c.2.2-1 .4-2.7.4-1.7 0-3.4.4-3.7 1-.9 1.4-8.3 3.2-10.5 2.5-3-.9-1.3-3 3.3-4.2 3.7-.9 12.5-.7 13.6.3zm-261.5 13.3l.5 8.6-4.1 1.8-4.2 1.7 2.9-3c2.3-2.4 2.6-3.3 1.7-4.2-1-1-1.9-.9-4.3.5l-3.1 1.7 2.3-3.7c1.2-2.1 2.9-4.7 3.6-5.8.7-1 1.6-4.2 2-7 .6-4.7.7-4.8 1.4-2.1.5 1.6 1 6.8 1.3 11.5zM397 336c0 .5-.2 1-.4 1-.3 0-.8-.5-1.1-1-.3-.6-.1-1 .4-1 .6 0 1.1.4 1.1 1zm6.4.8c.3.5 2.4.7 4.6.6 5.1-.3 4.1 1.1-1.9 2.5-4.8 1-7.1.6-7.1-1.4 0-1.9 3.4-3.2 4.4-1.7zm-119.5 5.6c1.1 1.3 2.7 10.5 3.6 20.6.3 3.6.8 8.2 1.1 10.2.4 3 .2 3.9-1.1 4.4-2.8 1.1-3.9-1.1-1.9-4 1.3-2 1.4-3 .5-3.9-.8-.8-1.4-.8-2.3.1-2 2-2.7 1.4-1.5-1.3.7-1.4 1.5-2.5 2-2.5.4 0 .7-.9.7-1.9 0-1.6-.8-2-3.7-2.3-2-.2-3.8-.8-4-1.5-.4-1.2 4.1-1.2 5.4 0 1.2 1.3 2.3.7 2.3-1.3 0-1.1-.7-2-1.5-2-2 0-1.9-.9.2-3.2 1.7-1.9 1.6-2-.7-3.8-2.4-1.8-2.4-1.9-.6-3.9 2-2.2 1.3-4.6-1.1-3.6-1.9.7-8.4-.4-7.9-1.4.7-1.1 9.4 0 10.5 1.3zM69 343.5c1.4 3.6-1.4 9.5-4.5 9.5-1.9 0-2.5-3.8-.8-4.4 1.2-.5 1.3-.9.3-2.1-1-1.2-.9-1.5.5-1.5 1.1 0 1.5-.5 1.2-1.4-.3-.8-.3-1.7 0-2 1.2-1.2 2.4-.5 3.3 1.9zm156.8 9.5c-3.2 2.7-4.8 3-4.8.9 0-.6.4-.8.9-.5 1.2.8 3.3-1.9 2.9-3.6-.1-.7.6-2.5 1.7-3.9l2-2.7.3 3.5c.3 3-.2 4-3 6.3zm189.2-8.3c.3.3-.4 1.1-1.4 1.9-1.7 1.2-2.1 1.1-3.3-.4-1.2-1.6-1.4-1.6-2.6 0-.8 1-2.1 1.5-3.4 1.2-2.8-.8-3.9 1.3-1.9 3.5 1.3 1.5 1.4 2 .4 2.9-1 .8-1.6.4-2.5-1.5-1.1-2.3-.9-2.9 2.2-6s3.7-3.3 7.7-2.7c2.4.4 4.5.9 4.8 1.1zm-262 3.6c0 1.1-3.9-1.6-4.5-3.1-.3-.8.4-.6 2 .5 1.3 1 2.5 2.1 2.5 2.6zm29.1-.9c-3.5 3.7-10.7 5.7-17 4.7-6.8-1.1-7.2-1.7-1.4-2.5 2.6-.3 7.5-1.5 10.8-2.6 3.3-1 6.9-1.9 7.9-1.9 1.8-.1 1.8.1-.3 2.3zm38.2 3.6c-.8 2.9-3.3 1.2-3.3-2.3 0-2.9.1-2.9 1.9-1.3 1.1 1 1.7 2.5 1.4 3.6zm56.7-1.7c0 1.6-3.5.1-3.8-1.6-.3-1.6-.1-1.7 1.7-.5 1.2.7 2.1 1.7 2.1 2.1zm116.3.2c-.3.9-.8 1.4-1 1.1-.3-.3-.2-.9.2-1.5.9-1.6 1.5-1.3.8.4zm27.1 1.5l1.8 3.1-2.9-.7c-3.6-.9-3.6-.9-2.8-3.3.9-2.9 1.8-2.6 3.9.9zM277 355.1c0 1.8-.2 2-1.5.9s-1.3-1.5-.3-2.1c1.8-1.2 1.8-1.2 1.8 1.2zm133.5-.1c.4.6 1 .8 1.5.5.5-.3 3.5.2 6.7 1.1 4.4 1.3 6.9 2.8 11.1 7 3.3 3.4 5.1 5.9 4.6 6.6-.4.7-.4 1 .1.6 1.4-1.3 9.6 10.9 10 14.9.1 2.1.8 5.1 1.4 6.6 1.5 3.9 1.4 9-.4 11.3-1.4 1.8-1.4 1.7-1.5-1.6-.1-6.3-2.5-12-8.4-19.5-6.3-8.1-10.8-10.7-13.5-8.1-1.6 1.7-1.4 2 5.1 9.9 2.8 3.2 4 5.7 4.5 9.2.5 3.8.3 4.7-.8 4.3-.8-.3-1.5-1.2-1.7-2.1-.2-.9-3.4-4.9-7.2-8.9-7-7.4-9-11.6-9-18.7 0-3.4-.2-3.6-3.2-2-1.8 1-1.9.9-1.3-1.9.5-2.5.2-3.3-1.4-4.2-2.6-1.3-2.7-3.6-.3-4.9 2.2-1.3 2.9-1.3 3.7-.1zm-341.1 1.9c1.3 1.4 1.6 2.8 1.1 5-.6 2.9-.9 3.1-4.4 2.7-2.1-.1-4.3-.6-5-1-1.5-.9-1.4-5.9.1-7.4 1.8-1.8 6.3-1.4 8.2.7zm16.1 1.1c-.3.5-1.3 1-2.1 1s-1.2-.5-.9-1c.3-.6 1.3-1 2.1-1s1.2.4.9 1zm143.9-.1c.3.5-.5 1.1-1.9 1.3-2 .4-2.3.3-1.4-.8 1.3-1.6 2.5-1.8 3.3-.5zm174.3 2.3c-.3.7-.5.2-.5-1.2s.2-1.9.5-1.3c.2.7.2 1.9 0 2.5zm-184.9 2.6c.2 1.8-.1 3.2-.7 3.2s-1.1-.6-1.1-1.3c0-.6-.3-2.3-.7-3.6-.4-1.8-.2-2.3.8-1.9.8.2 1.5 1.9 1.7 3.6zM99.5 361c-.3.5-1.6 1.5-2.8 2.1-1.9.9-1.9.8.3-1 2.8-2.3 3.4-2.6 2.5-1.1zm293.5.8c0 .5-.7 1.7-1.6 2.8-.8 1-1.4 1.4-1.1.9.2-.6.7-1.8 1-2.8.7-1.7 1.7-2.3 1.7-.9zm4 5.7c-.7 1.3-1.1 4.3-.9 6.9.3 3.6.2 4.3-.9 3.3-.9-1-1-2.6-.1-7.2.5-3.3 1.3-6.9 1.7-8 .6-1.8.7-1.8 1 .4.2 1.3-.2 3.4-.8 4.6zm-167.7 4.4c-.3 4.7-.6 9.7-.8 11.1-.1 1.4-.3 4.4-.4 6.7-.1 4.1-.3 4.3-3.1 4.3-3.6 0-3.7-.2-.5-3.4 3-3 3.2-6.2.6-7.1-2.2-.7-1.8-3.2.7-5.1 1.9-1.4.7-3.5-1.4-2.7-1.3.5-1.5.1-.9-1.8.4-1.3 1.6-3 2.6-3.7 2.3-1.6 2.5-4 .4-4.8-2.5-1-1.8-3.2.9-2.7 2.4.5 2.4.6 1.9 9.2zm48.7-3.8c0 .5-.4.9-1 .9-.5 0-1-.7-1-1.6 0-.8.5-1.2 1-.9.6.3 1 1 1 1.6zm-59.2 4.1c1.1 1.5-.2 5.8-1.8 5.8-.5 0-1-1.6-1-3.5 0-3.6 1-4.4 2.8-2.3zm171.2.3c0 .9-.6 1.2-1.5.9-.8-.4-1.5-1-1.5-1.5s.7-.9 1.5-.9 1.5.7 1.5 1.5zm-111.5 2.6c1.1 1.7-.1 2.1-1.5.4-.8-.9-.8-1.5-.2-1.5.6 0 1.4.5 1.7 1.1zm.5 7.5c0 2.2-.2 2.5-1.5 1.4-1.2-1-1.3-1.6-.4-2.6 1.6-2 1.9-1.8 1.9 1.2zm11.2 21.1l.4 18.3h-2.3c-2.6 0-3.1-2.1-.8-4 1.9-1.6 1.9-2.9 0-5-1.3-1.4-1.2-1.9.1-4.5 1.8-3.5.4-5.6-2.5-3.8-1.7 1-1.7.8-.8-3.2.7-3 1.6-4.5 3-4.9 2.3-.6 1.7-3.2-.7-3-1.8.2-2.2-2.6-.5-4.3 1.5-1.5.3-4.7-1.3-3.7-.8.5-.9.2-.5-1 .4-1 .7-2.1.7-2.6s.8-1 1.8-1.2c2.5-.5 3 2.4 3.4 22.9zm-71.7-20.5c2.6 1.2 3.6 4.2 1 3.2-.8-.4-2.2-.1-3 .6-1.3 1.1-1.5.8-1.5-1.9 0-3.5 0-3.5 3.5-1.9zm189 .7c-.3.6-1.1 1.1-1.7 1.1-.6 0-.6-.6.2-1.5 1.4-1.7 2.6-1.3 1.5.4zM219.7 395c-.3 1.9-5.7 2.7-5.7.8 0-.7.3-2.3.6-3.5.6-2.2.7-2.2 3-.5 1.3.9 2.3 2.4 2.1 3.2zm59.3-1.2v2.6l-1.6-2.2c-.8-1.2-1.2-2.7-.9-3.2 1-1.7 2.5-.1 2.5 2.8zm143-.3c0 .8-.4 1.5-1 1.5-.5 0-1-.7-1-1.5s.5-1.5 1-1.5c.6 0 1 .7 1 1.5zm17 3.4c1.7 3.2 1.2 8.6-1 10.6-2.8 2.6-9.7 1.5-12.7-2-2.4-2.7-3-6.9-1.3-8 1.6-1 4.2 1.6 3.5 3.3-.7 2 1.2 3.2 5.3 3.2 3.9 0 5.2-2.2 2.8-4.9-1.2-1.3-1.3-2-.4-2.9 1.7-1.7 2.6-1.5 3.8.7zm-211 6.7c0 5.7-.2 6.5-1.4 5.4-.8-.6-1.2-1.8-.9-2.6.3-.8.2-2.2-.2-3.2-.6-1.5-1-1.3-3.1 1.3-1.9 2.3-2.6 2.7-3.3 1.6-.5-.8-1.6-1.1-3-.6-1.7.5-2.1.2-2.1-1.4 0-1.2.7-2 1.8-2 4.1 0 7-.9 9-2.9 1.2-1.2 2.4-2.2 2.7-2.2.3 0 .5 3 .5 6.6zm52.2-3.6c.5 3.5-.1 4.7-2.4 4.7-2.1 0-2.4-2.8-.6-5.7 1.8-2.8 2.5-2.5 3 1zm203.8 1.4c0 1.4-.4 2.8-1 3.1-.6.4-1-.7-1-2.4s.5-3.1 1-3.1c.6 0 1 1.1 1 2.4zm-59.7 11.3c-.3.6-1.6 1.9-2.9 2.8-2.9 1.9-3.1 5.5-.4 8 1.7 1.5 2 3.1 2 9.1 0 6.1-.3 7.6-2.1 9.2-1.1 1.1-2.3 3.2-2.8 4.8-.7 2.6-1.2 3-5.9 3.4-2.9.3-5.6.2-6.2-.4-.5-.5 0-2.9 1.4-6 1.2-2.8 2.6-6.5 3-8.1.4-1.7 1.5-5.3 2.5-8 4.1-10.9 6.3-18.6 5.8-19.9-.3-.8-.3-1.7 0-2 .9-.9 6.1 5.7 5.6 7.1zm29.7-3.2c0 1.9-.4 3.5-1 3.5-.5 0-1-1.6-1-3.5s.5-3.5 1-3.5c.6 0 1 1.6 1 3.5zm-238.2.7c.7.7 1.2 2 1.2 2.9 0 .9.7 2.2 1.5 2.9.8.7 1.5 2 1.5 2.8 0 1.2-.3 1.3-1.2.4-1.5-1.5-4.8-1.6-4.8 0 0 .6.7 2 1.7 3 .9 1 1.1 1.8.5 1.8-.6 0-1.7.3-2.6.6-1.3.5-1.6-.2-1.6-4.5 0-3.8.4-5.1 1.4-5.1 2.3 0 3.1-2.2 1.3-3.5-1-.7-1.7-1.5-1.7-1.9 0-1 1.5-.7 2.8.6zm65.6 8l.7 4.7-3.3-1.7c-3-1.5-3.1-1.7-1-2 2.9-.4 2.9-3.5 0-5.4-1.4-.9-1.9-1.9-1.3-2.7 1.3-2.2 4.2 1.9 4.9 7.1zm-54.3 17.2c-.6 4.4-1.1 11-1.1 14.8 0 6-.2 6.8-1.9 6.8-2.3 0-4.5 2.5-3.6 4 .4.7 1.6 1 2.6.7 1.6-.4 1.9.1 1.9 3.3 0 2-.3 5.8-.6 8.4-.7 4.5-.9 4.8-6.5 7.7-6.5 3.2-11 4-8.9 1.4 1.7-2.1.5-4.5-2.2-4.5-1.3 0-3.2-.7-4.2-1.5-1.9-1.5-1.9-1.6.7-4.3 1.5-1.5 2.7-3.3 2.7-4 0-1.6 1.5-1.5 2.9.2.9 1.1.7 1.5-.9 1.9-1.4.3-2 1.3-2 3.1 0 3.5 3.1 3.5 6.2-.2 1.2-1.5 3.6-3.3 5.1-4 4-1.7 3.3-4.8-1-4.5-2.1.2-3.3-.2-3.7-1.3-.4-.9-1.3-1.4-2.1-1-1 .4-1.5-.1-1.5-1.4 0-2.4.6-2.4 4.2-.6 2.6 1.4 2.9 1.3 4.3-.7 1.9-2.7 1.9-4.1 0-5.7-.8-.7-1.3-1.6-1-2 .3-.4-.4-1.8-1.4-3.1-1.6-2-2.1-2.1-3.5-1-1.4 1.2-1.6.8-1.6-3.8 0-5.2 1.2-6.5 3.8-3.9.9.9.7 1.4-.5 2.3-3.7 2.8 1 4 6.7 1.8 1.9-.8 2.7-1 4-1.2 1.9-.2 1-3.1-1-3.1s-2-.1-.4-2.6c1.3-2 1.4-2.8.5-3.7-1-.9-1.7-.6-3.5 1.6-2 2.5-2.4 2.6-3.6 1.3-.7-.9-2.1-1.6-3.2-1.6-1.6 0-1.9-.6-1.6-3.3.2-2.6.7-3.1 2.3-2.9 1.1.2 2.5 1.2 3.3 2.3 1.8 2.6 2.8 2.4 4-1 .7-1.9 1.7-2.9 2.9-2.8 1 .1 1.8-.5 1.8-1.3s-.8-1.4-1.7-1.4c-1.6.2-1.6-.1-.2-2.8 1-1.9 1.2-3.4.6-4.1-.5-.7-1.2-2.2-1.6-3.3-.6-1.9-.3-2.1 1.9-1.6 1.6.3 2.6 0 2.7-.9.1-.8.4 2.4.6 7.1.2 4.7-.2 12.1-.7 16.4zM484 412.5c0 .8-.4 1.5-1 1.5-.5 0-1-.7-1-1.5s.5-1.5 1-1.5c.6 0 1 .7 1 1.5zm-53 .5c0 .5-.7 1-1.5 1s-1.5-.5-1.5-1c0-.6.7-1 1.5-1s1.5.4 1.5 1zm5 .5c0 .8-.4 1.5-.9 1.5-1.3 0-2.2-1.6-1.4-2.4 1.1-1.1 2.3-.6 2.3.9zm1.3 4.4c2.3.9 2.8 1.6 2.5 3.9-.2 2-.9 2.8-2.6 3-2 .3-2.3 0-1.7-1.7.5-1.8.3-1.9-2.2-1.2-5.2 1.4-10.7.8-11.1-1.2-.7-3.3 1.6-4.6 7.1-4.2 2.9.1 6.5.8 8 1.4zM286 424.4c0 .3-.4.8-1 1.1-.5.3-1 .1-1-.4 0-.6.5-1.1 1-1.1.6 0 1 .2 1 .4zm3.6 4.8c-2.2 1.2-2 4.9.3 5.5 1.2.3 2.1 1.7 2.4 3.6.4 2.6 0 3.6-2.1 5.4-2.2 1.8-2.4 2.4-1.3 3.7.8.9 1.9 1.6 2.6 1.6 1.4 0 2.5 3.1 2.5 7.2 0 1.8-.5 2.8-1.5 2.8-.7 0-1.9.8-2.4 1.7-1 1.7-1 1.6-1-.2 0-1.1.4-2.9.8-4 .6-1.5.2-2.6-1.5-4.2-2.9-2.7-3-4.9-.4-8.8 2.4-3.6 2.5-5.8.5-7.5-2-1.6-1.9-4.1.3-8.6 1.5-3.3 1.7-3.5 2-1.4.2 1.4-.3 2.7-1.2 3.2zm143.2 6.3c.3 10.8.6 12.2 2.7 10.5.8-.6 1.9-.9 2.5-.5 1.3.8 1.3 4.8-.1 6.2-.6.6-1.3 2.6-1.5 4.5-.8 7.6-1 7.8-6.4 7.8-3.9 0-5.2-.4-6-1.9-1.4-2.6-1.3-6.4.2-7.9.9-1 .9-1.6-.3-2.8-1.5-1.4-1.3-1.8 1.2-4.4 2.9-2.8 2.9-2.9 2.2-12l-.6-9.2 2.9.4 2.9.3.3 9zm-150.4-6.4c1.4 1.3.4 1.8-2.6 1.2-1.6-.3-2.8-1.2-2.8-2 0-1.5 3.5-1 5.4.8zm155.6 6.1c0 7.7-1 7-1.6-1.2-.3-4.2-.2-6 .6-5.5.5.3 1 3.4 1 6.7zm-155 .7c0 1.6.6 3.1 1.3 3.4.8.3.9.8.1 1.6-.7.8-1.9.2-4.4-2.4-3.1-3.2-3.2-3.5-1.2-3.5 1.2 0 2.2-.5 2.2-1 0-.6.5-1 1-1 .6 0 1 1.3 1 2.9zm-1.5 10.5c.2 1.1.6 3.4.9 5.1.2 1.6.7 4.1 1.2 5.5.7 2.4.6 2.4-1.7-.4-1.6-2-2.2-4-2-6.2.1-1.7-.2-3.5-.8-3.9-.6-.3-1.1-1.3-1.1-2 0-2.2 3-.6 3.5 1.9zm99.5 1.5c1.5 3 1.2 5.3-.6 4.9-2.3-.4-3.9-3.2-3.1-5.2.9-2.2 2.4-2 3.7.3zm-168.4 4.6c1.9 1 2.3 1.6 1.3 1.9-.8.2-2.2.7-3.1 1-1.4.4-1.8 0-1.8-1.9 0-2.9 0-2.9 3.6-1zm253.3 1.9c.9 1 .9 2 .2 3.3-.5 1.1-1.7 8.6-2.6 16.8-.9 8.3-1.8 16.1-2.1 17.5-.2 1.4-1.1 7-1.9 12.5-.8 5.5-1.9 12-2.4 14.5-.6 2.5-1 4.8-1.1 5.2 0 .4-1.3 1.4-2.9 2.2-1.6.9-3.1 2.4-3.4 3.6-.3 1.2-1.3 2-2.6 2-3.1 0-2.6 2.9 1.6 9.4 4.8 7.3 9.3 9.2 21.3 9 4.7-.1 9.6-.3 11-.5 3.1-.5 4.1 2.6 1 3.4-2.3.6-2.8 2.7-.6 2.7 1.4 0 2.6 2.1 2.6 4.6 0 .9-.7 1.4-1.7 1.2-1.6-.3-1.8.9-2.1 11.9-.2 8 .1 12.3.8 12.3.5 0 1-.8 1.1-1.8 0-1.4.2-1.4.9.3 1.5 3.4 1.2 5.6-.7 5.3-1.7-.3-1.8 1.5-2.3 22.2-.3 12.4-.8 23-1.2 23.5-1 1.5-16.7 1.8-18.5.4-1-.9-1.6-1-2.1-.2-.5.7-7.1 1.2-18.7 1.4l-18 .3V621c0-11.6-.3-16.4-1.2-16.7-1.4-.5-2.5 8-2 16.2.3 5.1-1.7 19-2.3 16-.1-.6-.3-41.6-.3-91.2-.1-59.7.1-90.3.8-90.3 2.2 0 3.1 1.7 3.1 5.8 0 3.4.5 4.7 2.6 6.5 2.4 2 2.7 3 3 10.9.4 9 1.6 11.8 4.9 11.8 2.9 0 4.2-3.7 4.6-12.9.3-7.4.6-8.8 2.8-11.1 1.7-1.8 2.5-3.7 2.5-6.2 0-2 .6-4 1.3-4.5.6-.4 5.9-1.1 11.7-1.4 5.8-.3 10.8-.6 11.1-.7.4-.1 1.2.4 1.8 1.2zm5.1.3c0 1-.4 2.4-.9 3.1-.5.9-.8.3-.7-1.7.1-3.2 1.6-4.5 1.6-1.4zm-89.9 4.2c.7 1.8.6 2.2-.5 1.8-1.6-.6-1.9.3-3.7 11.8-.6 4.4-1.5 8.7-2 9.5-.7 1.3-.3-11.9.5-17.7.2-1.3-.3-2.5-1.3-2.8-1.4-.6-1.4-.7.2-1.6.9-.6 1.7-1.7 1.7-2.5 0-2.4 4.2-1.2 5.1 1.5zm-85.8 6.3c.5 3.9.4 4.8-.8 4.8-.8 0-1.5-.9-1.5-1.9 0-1-.8-2.2-1.7-2.6-1.6-.6-1.5-.8.5-1.6 1.2-.4 2.2-1.6 2.2-2.5 0-3.1.7-1 1.3 3.8zm-97.2-.2c-1.9 4.3-3.1 6-3.1 4.3 0-2 3-8.3 4-8.3.5 0 .1 1.8-.9 4zm270.6-.8c-.3.7-.5.2-.5-1.2s.2-1.9.5-1.3c.2.7.2 1.9 0 2.5zm6-1c-.3.8-.6.5-.6-.6-.1-1.1.2-1.7.5-1.3.3.3.4 1.2.1 1.9zm-190.5 1c2 1.6 3.5 6.2 1.9 5.7-1.6-.6-5.6-6.9-4.4-6.9.5 0 1.6.6 2.5 1.2zM476 469c0 1.3-.1 1.3-1 0-.5-.8-1-2.2-1-3 0-1.3.1-1.3 1 0 .5.8 1 2.2 1 3zm-192 5.4c0 .4-1.1-.1-2.5-1s-2.5-2.5-2.5-3.6c0-1.7.4-1.5 2.5 1 1.4 1.7 2.5 3.3 2.5 3.6zm147 3.6c0 4-.4 7-1 7s-1-3-1-7 .4-7 1-7 1 3 1 7zm46.4-5.5c.3.8.1 1.5-.4 1.5-.6 0-1-.7-1-1.5s.2-1.5.4-1.5.6.7 1 1.5zm-178.1 1.3c1.6 1.8 1.4 2-3.2 4-4.6 2.1-8.1 2.1-8.1 0 0-.6.8-.7 1.8-.3 3.5 1.3 4.2.9 5.6-3.8.7-2.2 1.9-2.2 3.9.1zm167.4 3.9c-.3 1-.5.4-.5-1.2 0-1.7.2-2.4.5-1.8.2.7.2 2.1 0 3zm17.1 13l-.3 5.8-1.7-8.2c-1.6-7.8-1.6-8.4 0-11.3l1.7-3 .3 5.5c.2 3 .2 8.1 0 11.2zM191.5 481c-1 1.1-1.4 2-1 2 .5 0 .6.3.3.6s-1.5 0-2.7-.7c-2-1.3-2-1.4.7-2.5 4-1.8 4.7-1.6 2.7.6zm113.8-.5c-.4 1.5-3.6 1.2-4.1-.3-.3-.9.3-1.3 1.9-1 1.3.1 2.3.7 2.2 1.3zm165.2 25.3c-.3 11.8-.9 22-1.2 22.8-.6 1.6-6.8 3.5-8.9 2.7-.9-.3-1.3-1.2-.9-2.2.6-1.4 2-8.5 6-29.1.8-4.2 1.5-8.6 1.5-9.9 0-1.3.5-4.2 1.2-6.3 1.1-3.8 1.2-3.9 2.1-1.7.5 1.4.6 11.8.2 23.7zm6.1-17.6c.9 4 1.8 8.4 2 9.8.7 6.5 2.6 18.1 3.9 23.6 2.3 9.5 2.3 9.4-4.1 9.4h-5.6l.6-4.8c.4-2.6.8-13.8.9-24.9.1-11.2.3-20.3.4-20.3.1 0 .9 3.3 1.9 7.2zm-275-3.7l2.9 1.5h-3c-4.7 0-7.9-1.1-6.3-2.1 1.9-1.2 3.2-1.1 6.4.6zm96.9-.5c.3.5.2 1-.4 1-.5 0-1.3-.5-1.6-1-.3-.6-.2-1 .4-1 .5 0 1.3.4 1.6 1zM165 485c-.8.6-2.4 1.5-3.5 2.1-1.6.8-1.5.6.4-1 1.3-1.2 2.8-2.1 3.5-2.1.6 0 .4.5-.4 1zm143.5 2c-.3.5-1.2.7-2 .3-2.1-.7-1.9-1.3.6-1.3 1.1 0 1.8.4 1.4 1zm-130.7 1.2c2 2 1.4 3.7-1.8 5.3-1.8.9-3 1.1-3 .5 0-.6 1.1-1.6 2.5-2.2 2.7-1.2 3.1-2.3 1.4-3.3-.5-.4-1.8 0-2.7.8-1.7 1.5-7.2 3.4-7.2 2.4 0-.9 6.5-4.7 8.1-4.7.8 0 2 .5 2.7 1.2zm136.2 1c0 1.7-1.8 4.4-2.4 3.7-.8-.7.5-4.9 1.5-4.9.5 0 .9.6.9 1.2zm-157 1.7c-1.2 2.4-2.9 3.5-3.8 2.6-.4-.4.4-1.5 1.7-2.6 2.9-2.4 3.4-2.4 2.1 0zm170 8.8c0 .7-.4 1.3-1 1.3-.5 0-1-.6-1-1.4 0-.8-1.3-2.6-3-3.9-1.6-1.4-3-2.9-3-3.2 0-.3 1.8.9 4 2.7 2.2 1.8 4 3.9 4 4.5zm-155-4.1c0 1.5-4.5 13.1-6.2 15.9-1 1.6-1.8 4.3-1.8 5.9 0 2.1-.4 2.7-1.5 2.2-.8-.3-2.1.1-2.9.9-1.2 1.3-1.6 1.3-2.6 0-1.2-1.5-1.1-1.6 3.8-3.1 1.7-.5 1.5-4.1-.3-4.8-.8-.3-1.2-1.2-.9-2.1.5-1.2 1-1.3 2-.4 1.8 1.4 4.4.4 4.4-1.7 0-1.2-.7-1.5-2.4-1.2-1.5.3-2.7 0-3-.8-.3-.8.6-1.4 2.7-1.6 2.8-.3 3.2-.8 3.9-4.3.8-3.6 2.1-5.4 4.1-5.5.4 0 .7.3.7.6zm148.3 3.8c1.7 1.3 1.6 1.4-.3 1.9-1.1.3-2 .4-2 .2s-.3-1-.6-1.9c-.7-1.9.5-2 2.9-.2zm-159.6 1.3c-1.6 1.6-1.8 1.6-3.4 0-1.6-1.6-1.5-1.7 1.7-1.7s3.3.1 1.7 1.7zm-20.2.3c-.4.6-3 2.5-5.8 4.3-2.9 1.9-5.8 4.1-6.6 5-.7 1-1.9 1.7-2.5 1.7-1.9-.1 11.7-12 13.7-12 1 0 1.5.5 1.2 1zm226.5 3.5c0 1.5-3.8 4-4.7 3.1-.7-.7 2.6-4.6 3.9-4.6.4 0 .8.7.8 1.5zm-46.5.5c.3.5.1 1-.4 1-.6 0-1.1-.5-1.1-1 0-.6.2-1 .4-1 .3 0 .8.4 1.1 1zm6.9 1.9c.3.5 1.4.7 2.4.4 1.4-.3 2.1.4 3 3.5 1.8 6 1.5 7.1-2 8-2.5.6-3.3 1.4-3.2 3 0 1.4-.5 2.2-1.6 2.2-2.6 0-3.1 1.2-1.4 3.1 1.3 1.4 1.3 2.1.3 3.7-1 1.7-1 2.3.1 3.7.7.9 1.9 1.4 2.5 1.1 1.2-.4 2.6 1.7 3.9 5.8.5 1.5.9 1.6 2.1.6 3.1-2.5.5-9.7-3.3-9.2-1.5.2-2.2-.2-2.2-1.3s.6-1.4 2.3-1c2.9.8 5-1.5 4.5-4.7-.2-1.5-.9-2.2-2-2-1.1.2-1.8-.3-1.8-1.2 0-1.2.5-1.3 2.3-.7 3 1.1 5.5 7.6 3.9 10.2-1.7 2.7-1.5 3.4 1.4 4.8 2.5 1.1 2.6 1.2.9 3.1-1.6 1.8-1.6 2-.2 2.6 1.4.5 1.4.8.4 1.9-.8.7-2.2 1.5-3.3 1.7-1 .2-1.8 1.1-1.8 2.1.2 2.4-1.3 2.1-2.7-.4-.8-1.5-1.4-1.8-2.2-1-3 3-7.7-.3-6-4.2.8-1.7.6-3.5-.8-7.2-2.4-6.2-2.6-15-.4-14.1.8.3 2 0 2.7-.7.7-.7 2.6-2 4.1-3 2.1-1.4 2.7-2.5 2.5-4.5-.2-1.9-.8-2.6-2.1-2.4-.9.2-2-.4-2.3-1.3-.3-.8-1.2-1.5-2-1.5s-1.4-.5-1.4-1c0-1.2 2.7-1.3 3.4-.1zM141 508c0 .6-.9 2.8-2 4.9-1 2.1-2.7 7.2-3.6 11.2-.9 4.1-2 7.8-2.4 8.4-.5.6-5 .9-10.9.7-7.9-.3-10.1-.6-10.1-1.7 0-.8 3.6-4.4 8-8.1 4.4-3.6 8.7-7.5 9.5-8.7 1.4-2 9.2-7.5 10.8-7.6.4-.1.7.4.7.9zm183 2.5c0 .8-.9 1.5-2 1.5-2.2 0-2.7-1.5-.7-2.3 2.1-.9 2.7-.7 2.7.8zm-167.9 3.8c-.5.5-1.8.6-2.8.2-1-.5-2.4-.7-3-.6-.7.1-1.3-.3-1.3-.9 0-.5.9-1 1.9-1 1.1 0 2.3-.5 2.7-1.2.5-.7 1.1-.5 2.1.7.8 1.2 1 2.2.4 2.8zm191-3c-.1 1.2-1.5.9-1.9-.4-.3-.6.1-1 .8-.8.6.3 1.1.8 1.1 1.2zm14.9.7c0 .5-.2 1-.4 1-.3 0-.8-.5-1.1-1-.3-.6-.1-1 .4-1 .6 0 1.1.4 1.1 1zm-238.2 2.8c-.7 1.1-3.5 3.8-6.3 6.1-2.7 2.4-6.9 6-9.2 8.2-2.4 2.1-4.8 3.9-5.5 3.9-1.7-.1 19.3-19.9 21-20 1.1 0 1.1.3 0 1.8zm199.4 1.7c0 .5-.5 1.1-1.1 1.3-.6.2-1.1-.4-1.1-1.3s.5-1.5 1.1-1.3c.6.2 1.1.8 1.1 1.3zm41.3-.5c.3.5.2 1-.4 1-.5 0-1.3-.5-1.6-1-.3-.6-.2-1 .4-1 .5 0 1.3.4 1.6 1zM150 521.5c0 .5-.5.3-1-.5s-1-2-1-2.5c0-.6.5-.3 1 .5s1 1.9 1 2.5zm14.3 8.4c.6 5.6.4 6.5-1.5 8-2.5 2.1-1.6 4.5 1.3 3.8 1.4-.4 2.4.3 3.4 2.4.9 1.6 1.2 2.9.8 2.9-.4 0-.2.5.5 1.2s1.2 1.8 1.2 2.5c0 1.1-.5 1.1-2.1.3-1.1-.7-2.7-.9-3.6-.6-2.4 1 .5 3.9 3.3 3.3 2-.3 2.2-.1 1.4 1.4-.6 1-1.5 2.1-2 2.4-.7.4-.7 1.3 0 2.5 1.5 2.7 1.2 3.2-.9 1.9-2.4-1.6-4.8-.6-5.4 2.3l-.4 2.3-.8-2.3c-.6-1.8-1.3-2.2-3-1.8-4 1-5.8-1.5-6.3-8.8-.4-5.9-.3-6.6 1.3-6 2 .8 3.6-1.2 2.8-3.3-.3-.8-1.4-1.3-2.3-1-2.4.6-3.9-4.5-3.2-11.2.5-5.4 1.4-6.1 4.3-3.5 2.3 2.1 3.9 1 3.9-2.5 0-2.5.3-2.7 3.4-2.7l3.4.1.5 6.4zM362 528c0 .5-.2 1-.4 1-.3 0-.8-.5-1.1-1-.3-.6-.1-1 .4-1 .6 0 1.1.4 1.1 1zm25.5 0c.8 1.3-3.5 1.3-5.5 0-1.1-.7-.7-1 1.7-1 1.7 0 3.5.4 3.8 1zm16.5 0c0 .5-.2 1-.4 1-.3 0-.8-.5-1.1-1-.3-.6-.1-1 .4-1 .6 0 1.1.4 1.1 1zm-1 6c0 1.7-7.1 8.1-8.8 7.9-.9-.1-2.9.4-4.5 1.1-2.1 1-3 1.1-3.9.2-.7-.7-2.3-1.2-3.6-1.2-4.8 0-1.5-2.5 4.2-3.1 3.2-.4 6.3-1.2 6.9-1.8 1.4-1.4 2.6-1.2-12.8-1.6-7.1-.1-14.1-.7-15.5-1.3-1.9-.8 2.7-1.1 17.8-1.1 12.4-.1 20.2.3 20.2.9zm73 0c0 .5-.5 1-1.1 1-.5 0-.7-.5-.4-1 .3-.6.8-1 1.1-1 .2 0 .4.4.4 1zm-5.9 1.4c-1.7 2-.6 3.6 2.5 3.6 3.4 0 2.2 1.6-1.8 2.5-6.8 1.6-8.1 1.6-9.9-.1-1.7-1.5-2.3-1.5-4.4-.4-2.2 1.2-2.7 1.1-4.5-.5-2.5-2.2-2.6-5.2-.2-5.7.9-.2 5.7-.5 10.6-.7 8-.2 8.8-.1 7.7 1.3zm-338.4 2.2c.8 2.3-.9 6.9-2.7 6.9-.9 0-1.4-1.1-1.5-3 0-2.6-.4-3-2.5-2.8-3.4.2-5.3-.5-4.5-1.7.3-.5 2.9-1 5.6-1 3.6 0 5.1.4 5.6 1.6zm-14.7 5.9c0 .8-.6 1.5-1.4 1.5-2 0-2.9-1.7-1.4-2.3 2.2-.9 2.8-.7 2.8.8zm6.2 0c0 .5-.5 1.1-1.1 1.3-.6.2-1.1-.4-1.1-1.3s.5-1.5 1.1-1.3c.6.2 1.1.8 1.1 1.3zm-22.5 8.7c-.3.7-.5.2-.5-1.2s.2-1.9.5-1.3c.2.7.2 1.9 0 2.5zm30.3-1.6c0 1.4-.3 1.4-1.5.4-.8-.7-1.5-1.4-1.5-1.6 0-.2.7-.4 1.5-.4s1.5.7 1.5 1.6zm-.2 23.6c-.2 10.4.3 22.3 1.4 32.8 1 9.1 1.8 16.8 1.8 17.2 0 .4-.7.5-1.5.2-1.1-.5-1.5.1-1.5 2.5 0 3.6 1.7 4.1 3 .8.8-2 .9-1.9.9.9.1 3.2-2 6-3.4 4.6-.4-.4-.5.2-.3 1.3s-1.1 5.1-2.9 9c-1.9 4-3.3 8.5-3.3 10.7 0 2.1-1 5.9-2.2 8.5-2.9 6.1-2.7 5.8-3.9 4.6-1.3-1.3-2.1-94-.9-94.8 1.3-.8 1.8 2.3 1.9 13.3.1 11.3.5 13 2.7 11.1 1.2-.9 1.3-3 .8-10-.5-6.4-.4-8.9.5-9 .6-.1 1.6-.2 2.1-.3 1.3-.1 3-2.6 3-4.4 0-.7-1.2-2.4-2.6-3.7l-2.7-2.5h2.7c3.9 0 2.8-2.4-1.5-3.1l-3.4-.6 3.7-.2c4.3-.1 5.8-1.9 3.3-3.8-1.8-1.2-1.8-1.3.3-1.3 2.2 0 2.2.1 2 16.2zm-56.1-9c-.3.8-.6.5-.6-.6-.1-1.1.2-1.7.5-1.3.3.3.4 1.2.1 1.9zm37.3.5c0 1.9-.3 2.4-1 1.7-.6-.6-.8-1.8-.4-2.7.9-2.4 1.4-2.1 1.4 1zm.2 8.7c.3 1.4.1 3.1-.3 3.8-.6.8-.9-.1-.9-2.5 0-4.2.6-4.8 1.2-1.3zM125 573c0 .5-.4 1-1 1-.5 0-1-.5-1-1 0-.6.5-1 1-1 .6 0 1 .4 1 1zm-49.6 7.3c.4 1.9.3 2.6-.4 2.2-.5-.3-1-1.8-1-3.2 0-3.2.5-2.8 1.4 1zm408.3 48.9c-.3.7-.5.2-.5-1.2s.2-1.9.5-1.3c.2.7.2 1.9 0 2.5zm.3 4.8c0 .5-.5 1-1.1 1-.5 0-.7-.5-.4-1 .3-.6.8-1 1.1-1 .2 0 .4.4.4 1zm-74 3c0 .5-1 1-2.2 1-1.9 0-2-.2-.8-1 1.9-1.3 3-1.3 3 0zm51.7 4.9c.3.9.7 2.2.9 3 .3 1.1.7 1.1 1.9.1 1-.8 1.3-2.1.9-3.3-.4-1.4-.2-1.8.7-1.5.8.3 2.3 3.5 3.3 7.1 1.1 3.7 2.5 6.6 3 6.4 1.5-.5 2-7.7.7-9-1.8-1.8-1.3-4.9.6-4.5 2 .4 4.1 6.4 4.2 12 .1 4 1.6 5.7 3.4 3.9 1.7-1.7 2.7-1.3 2.7.9 0 1.1-.1 2-.2 2.1-.2.1-12.1.3-26.6.5l-26.2.5-1-2.6c-.6-1.5-1-4.7-1-7.1 0-3.8-.3-4.5-1.7-4.2-1.4.3-1.7 1.2-1.5 4.5.5 6.7-1.8 11.3-3.1 6.3-.5-2.1-2.6-2.8-2.8-1-.1.5-.2 1.6-.3 2.2-.2 1.7-8.6 1.3-9.7-.4-.5-.7-1-3.9-1.1-7.1-.1-3.1-.2-6.5-.2-7.4-.1-2.6 3-3 28.7-3 21.3-.1 23.9.1 24.4 1.6zm21.7-.3c.9 2.4.7 10.9-.2 9.8-.9-1-3.2-8.4-3.2-10.3 0-1.7 2.7-1.3 3.4.5zm6.6 3.6c0 1.9-.2 2-1 .8-1.3-1.9-1.3-3 0-3 .6 0 1 1 1 2.2zm-468.6-.6c1.8.7 2.2 4.9.5 6-.6.3-1.6.1-2.2-.5-.6-.6-1.9-1.1-2.8-1.1-1.6 0-3.2-3.3-2.1-4.4.7-.8 4.6-.8 6.6 0zm44.4 2.1c.2 1.3.8 2.3 1.4 2.3.5 0 2.4 1.1 4 2.5 3.6 3.1 4.8 2.5 4.8-2.2 0-5 1.2-3.4 1.6 2.3.2 2.8-.2 5.7-1.2 7.6l-1.6 3-8.1-.6c-4.5-.3-11.6-.5-15.8-.6h-7.7l.2-3.3c.1-2.6-.3-3.2-1.9-3.2-1.5 0-2.1.8-2.3 3.2-.2 2.5-.8 3.3-2.3 3.3-1.7 0-1.9-.7-1.9-6.3 0-11.5-1-10.8 15.9-10.5 14.3.3 14.6.3 14.9 2.5zm17.2 1.8c0 1.7-.2 1.7-1 .5-.5-.8-1-2.4-1-3.5 0-1.7.2-1.7 1-.5.5.8 1 2.4 1 3.5zm-53 4.6c0 6.7-.3 8-1.6 7.7-1.8-.4-1.8-.1-.9-8.8.4-3.9 1.1-7 1.6-7s.9 3.6.9 8.1zm-25.3-2.4c-.3 1-.5.2-.5-1.7s.2-2.7.5-1.8c.2 1 .2 2.6 0 3.5zm5 2c-.3 1-.5.4-.5-1.2 0-1.7.2-2.4.5-1.8.2.7.2 2.1 0 3zm479.7 2.7c-.3 2.1-.8 3.5-1.1 3.2-.2-.2-.1-2 .3-4 .3-2.1.8-3.5 1.1-3.2.2.2.1 2-.3 4zM4.7 658.2c-.3.7-.5.2-.5-1.2s.2-1.9.5-1.3c.2.7.2 1.9 0 2.5zm4 0c-.3.7-.5.2-.5-1.2s.2-1.9.5-1.3c.2.7.2 1.9 0 2.5zm73.5 2c-.7.7-1.2.8-1.2.2 0-1.4 1.2-2.6 1.9-1.9.2.3-.1 1.1-.7 1.7zm-65.8 7.9c-2.1 2.4-2.9 1.8-1.4-1 .6-1.2 1.6-1.9 2.1-1.5.6.4.4 1.3-.7 2.5zm9.6-2.2c0 .5-.8 2.3-1.7 4-1.6 2.7-1.6 3.3-.3 4.1 1.9 1.2 4.6-1.2 6.2-5.6l1.2-3.4h31.5l1.6 3.1c1.3 2.5 2.1 3 4 2.5 2.4-.6 3.2-.1 5.9 3.8 1.8 2.7 5 1.4 4.1-1.6-.6-2-.3-1.9 1.9.7 1.4 1.6 2.5 3.3 2.6 3.8 0 1.1-74.7.8-77.7-.4-3.3-1.2-2.8-1.7 2.6-2.2 2.6-.2 4.7-1.1 5.3-2 .5-.9 1.4-1.4 2.2-1.1.7.3 2.5 0 3.9-.5 2-.8 2.7-1.8 2.7-3.6s.5-2.5 2-2.5c1.1 0 2 .4 2 .9zm64.8 11.2c-1.5.9-2.8.2-2.8-1.5 0-.7-1.3-2.5-3-3.9-1.6-1.5-3-3.3-3-3.9 0-.7 2.2 1 5 3.7 3.3 3.3 4.6 5.1 3.8 5.6zm-36 5.6c1.9.3 3.6 1.2 3.9 2 .3.8 0 6.1-.8 11.9L56.6 707H28.1l-.3-8.8c-.2-6.8-.6-8.7-1.8-8.7-.8 0-1.7 1.4-2.1 3.3-1.1 5.3-2.2 5.2-1.5-.2.3-2.7.6-6.2.6-7.8v-2.9l14.3.1c7.8.1 15.7.4 17.5.7zm11.2 4.8c0 1.9.5 3.7 1 4 1.7 1.1 4-1.5 4-4.6 0-1.5.4-3 .9-3.3.5-.4.9 2.4.9 6.1-.1 10.9 0 11.3 2.2 11.3 1.6 0 2-.7 2.2-3.3 0-1.7.2-3.7.3-4.2.2-.6.3-1.6.4-2.4.2-2 3.1.6 3.1 2.8 0 3.2-3.1 10.9-5.1 12.7-2.5 2.2-4 .9-4.8-4.3-.5-2.9-1.1-3.8-2.6-3.8-1.6 0-2.1.8-2.3 4.2-.4 5.1-1.7 5.6-2.8 1-.8-3.2-.6-18.5.3-20 1-1.6 2.3.6 2.3 3.8zm13.5-3.6c.3.5.1 1.2-.5 1.6-.5.3-1-.1-1-.9 0-1.8.6-2.1 1.5-.7zm9.5 0c0 .9-2.4 2.1-4.1 2.1-.5 0-.9-.7-.9-1.5 0-.9.9-1.5 2.5-1.5 1.4 0 2.5.4 2.5.9zm5.4 8.8c-1.7 4.1-3.4 6.4-3.4 4.6 0-2 3-8.3 4-8.3.5 0 .2 1.7-.6 3.7zm-6.6 4.7c-.7 2.5-1.6 4.6-2 4.6-1.1 0-1-1.4.1-4.2.5-1.3 1.2-3.2 1.5-4.2 1.3-3.9 1.6-.7.4 3.8zm-65.1 4.8c-.2 2.5-.9 4.3-1.5 4.2-.7-.1-2.1-.2-3.2-.3-2.7-.2-2.5-2.9.3-3.3 1.2-.2 2.6-1.3 3.2-2.6 1.4-3.2 1.7-2.8 1.2 2zm404 28.4c-.3.3-1.2.4-1.9.1-.8-.3-.5-.6.6-.6 1.1-.1 1.7.2 1.3.5zm-209.8 2.8c-.8.7-10.3 4.6-9.6 4 1.8-1.8 6.4-4.3 8.1-4.3 1.1-.1 1.7.1 1.5.3zm-63.9 2.5c0 2.3-1.4 4.1-3.1 4.1-2.3 0-2.4-.8-.2-3.2 1.7-1.9 3.3-2.4 3.3-.9zm202.5.1c-.3.5-1.2 1-2 1s-1.7-.5-2-1c-.4-.6.5-1 2-1s2.4.4 2 1zM228 737.4c0 .8.9 1.7 1.9 2.1 1.1.3 2.5 1.3 3.2 2.1 1.1 1.3.9 1.9-1.1 3.4-2.1 1.6-2.7 1.6-4.4.4-2.8-1.9-5.9-1.9-3.3 0 2.5 1.9 2.1 2.9-1 2.2-1.6-.3-2.2-.3-1.5 0 1.8.8 1.5 2.7-.4 2-.9-.4-2.8.4-4.6 1.9-1.6 1.4-3.9 2.5-5.1 2.6-1.2 0-4.2.1-6.7.2-6.7.3-6.5-2.2.7-9.2 4.5-4.4 7.3-6.1 11.4-7.3 7-2.1 10.9-2.2 10.9-.4zm-82.3 4.2c-.3.3-1.2.4-1.9.1-.8-.3-.5-.6.6-.6 1.1-.1 1.7.2 1.3.5z"/><path d="M364.1 176.4c-.8 1-.9 1.6-.1 2.1.6.3.8 1.1.5 1.6-.3.5.1.6.9.3 1.8-.7 2.2-2.4.6-2.4-.5 0-.7-.7-.4-1.5.8-1.9 0-1.9-1.5-.1zM368.5 177c-.3.5-.1 1 .4 1 .6 0 1.1-.5 1.1-1 0-.6-.2-1-.4-1-.3 0-.8.4-1.1 1zM356.5 191c.4.6 1.1.8 1.6.5 1.4-.9 1.1-1.5-.7-1.5-.8 0-1.2.5-.9 1zM351 201.1c0 .5.5.7 1 .4.6-.3 1-.8 1-1.1 0-.2-.4-.4-1-.4-.5 0-1 .5-1 1.1zM347.3 213.7c-.7.2-1.3 1.2-1.3 2.1 0 1 .3 1.3.8.7.4-.6 1.3-1 2-1 1.3 0 1.8-1.8.5-2.1-.4-.1-1.4 0-2 .3zM342 230c-1.4 1-2.2 2.2-1.8 2.5.3.4 1.6-.3 2.8-1.5 2.8-2.8 2.2-3.4-1-1zM245 185c0 .5 1.3 1 2.9 1 1.7 0 3.3-.5 3.6-1 .4-.6-.8-1-2.9-1-2 0-3.6.4-3.6 1zM249.5 197c.3.5 1.5 1 2.6 1 1 0 1.9-.5 1.9-1 0-.6-1.2-1-2.6-1-1.4 0-2.3.4-1.9 1zM257 201c0 .5 1.4 1 3 1 1.7 0 3-.5 3-1 0-.6-1.3-1-3-1-1.6 0-3 .4-3 1zM239 201.9c-.8.6-2.5.8-3.7.4-1.4-.3-2.3-.1-2.3.6s.7 1.1 1.6.9c2.8-.5 2.7 1.9-.1 2.6-3 .8-2.3 2.8.8 2.4 1.6-.2 2.2.4 2.9 2.9.6 2.3 1.6 3.5 3.4 3.9 2.4.6 11.1.1 11.9-.8.2-.2.1-3.3-.3-6.8l-.7-6.5-6-.3c-3.3-.1-6.7.2-7.5.7zm10.5 6.6c0 2.7-.3 3-3.6 3.3-3.2.3-3.7 0-4.1-2.2-.6-3.3 1-4.8 4.7-4.4 2.6.3 3 .7 3 3.3zM217.5 204c-.3.5.1 1 .9 1 .9 0 1.6-.5 1.6-1 0-.6-.4-1-.9-1-.6 0-1.3.4-1.6 1zM224 204c0 .5 1.1 1 2.5 1s2.5-.5 2.5-1c0-.6-1.1-1-2.5-1s-2.5.4-2.5 1zM269 207.1c0 .5.5.7 1 .4.6-.3 1-.8 1-1.1 0-.2-.4-.4-1-.4-.5 0-1 .5-1 1.1zM222.5 207.9c-.3.5-.2 1.2.2 1.4 1.2.8 6.3-.4 6.3-1.4 0-1.2-5.7-1.2-6.5 0zM267 211c0 .5.5 1 1 1 .6 0 1-.5 1-1 0-.6-.4-1-1-1-.5 0-1 .4-1 1zM224.3 211.7c-4.6.6-4.1 2.3.6 2.3 4.4 0 7.1-.8 7.1-2.1 0-.9-1.6-.9-7.7-.2zM227 215.5c-.8.2-3.2.6-5.2 1-5.8.9-4.8 2.9 1 2 7-1 9.2-1.6 9.2-2.6 0-.9-1.9-1-5-.4zM264.5 216c.3.5 1 1 1.6 1 .5 0 .9-.5.9-1 0-.6-.7-1-1.6-1-.8 0-1.2.4-.9 1zM275 230.5c0 .8.5 1.5 1 1.5.6 0 1-.7 1-1.5s-.4-1.5-1-1.5c-.5 0-1 .7-1 1.5zM222.5 248.9c-.6 1.1.9 2.3 1.9 1.4.9-.9.7-2.3-.3-2.3-.6 0-1.2.4-1.6.9zM223.3 253.6c-.8 2 1.3 4.2 2.7 2.8 1.2-1.2.3-4.4-1.1-4.4-.5 0-1.2.7-1.6 1.6zM26.1 289.8l-2.3 1.7 2.1 1.9c2.4 2.2 5.1 1.5 5.1-1.2 0-3.3-2.4-4.5-4.9-2.4zM102.6 289.9c-.9 1.4.4 4.1 1.9 4.1s2.8-2.7 1.9-4.1c-.3-.5-1.1-.9-1.9-.9-.8 0-1.6.4-1.9.9zM245.9 325c-.9.5-2 2.2-2.3 3.6-1.4 5.3 6 8.7 9.7 4.6 2.4-2.6 2.1-4.7-.9-7.1-2.9-2.3-4.1-2.5-6.5-1.1zM62 358.5c-1.8 2.1-.5 4.5 2.5 4.5 1.4 0 2.8-.7 3.1-1.5.7-1.7-1.2-4.5-3.1-4.5-.7 0-1.8.7-2.5 1.5zM219.2 447.2c-1.6 1.6-1.5 5.8.2 5.8 1.9 0 3.8-2.6 3.4-4.6-.4-2.2-2-2.8-3.6-1.2zM216 473.5c-1.3 1.5-.7 4.5.9 4.5 1.8 0 5.4-3.7 4.7-4.8-1-1.7-4.1-1.5-5.6.3zM428 456c-2 1.2-.1 4.5 2.6 4.5 2.2 0 3.2-3.4 1.2-4.6-1.7-1.1-2-1.1-3.8.1zM457.5 468.9c-.7 1.2 1.2 2.4 2.5 1.6 1.1-.7.4-2.5-1-2.5-.5 0-1.1.4-1.5.9zM453.4 483.4c-.9 2.3.7 3.8 2.6 2.6 1.3-.8 1.3-1.1-.2-2.6-1.6-1.7-1.8-1.7-2.4 0zM422 501c0 1.1.6 2 1.3 2 1.9 0 2.7-1 2-2.6-.8-2.1-3.3-1.7-3.3.6zM438.4 500.1c-.3.6-.2 1.5.4 2.1 1.3 1.3 3.2.2 3.2-1.8 0-1.6-2.6-1.9-3.6-.3zM440.4 512.3c-.6 1.7.2 3.7 1.6 3.7 1.5 0 1.9-2.9.5-4-1.2-1-1.6-.9-2.1.3zM430.5 513.9c-.8 1.5.3 3.1 2.1 3.1.9 0 1.4-.7 1.2-1.7-.4-2-2.4-2.8-3.3-1.4zM418.6 518.9c-1.1 1.6-.4 76.1.6 76.7.5.3 1.2.3 1.5 0 .3-.3.6-17.7.7-38.7.1-28.2-.2-38.3-1.1-38.6-.6-.2-1.4 0-1.7.6zM430.7 536.6c-1.3 1.3-.7 2.4 1.4 2.4 1.1 0 1.9-.5 1.7-1.2-.5-1.4-2.2-2.1-3.1-1.2zM443.6 545.7c-1.2 1.2-.6 3.3.9 3.3.8 0 1.5-.6 1.5-1.4 0-1.7-1.4-2.8-2.4-1.9zM424.7 556.7c-.3 2.1-.3 12.3-.1 22.8.2 10.4.6 26.9.7 36.5.2 10.2.7 17.5 1.3 17.4 1.4-.2 2.4-7.3 1.8-13.9-.2-3.3-.6-19.5-.8-36-.3-17.4-.8-30.1-1.4-30.3-.5-.1-1.2 1.4-1.5 3.5zM467.6 577.6c.2 21.8.6 26.9 1.8 23.3.7-2.1 1.6-43.9.9-45.5-.3-.8-1-1.4-1.7-1.4-.8 0-1.1 6.2-1 23.6zM474.6 559.8c-1 1.7-1.2 74.2-.1 74.2 2-.1 2.3-5.5 2.7-39.7.2-25.6 0-34.7-.9-35-.6-.2-1.4 0-1.7.5zM456.2 567.2c.6 1.8 2.8 2.1 2.8.4 0-.9-.7-1.6-1.6-1.6-.9 0-1.4.5-1.2 1.2zM453.2 576.1c.2.6.8 1 1.3 1s1.1-.4 1.3-1c.2-.6-.4-1.1-1.3-1.1s-1.5.5-1.3 1.1zM439.2 578.2c.6 1.8 2.8 2.1 2.8.4 0-.9-.7-1.6-1.6-1.6-.9 0-1.4.5-1.2 1.2zM440 588.4c0 .9.7 1.6 1.6 1.6.9 0 1.4-.5 1.2-1.2-.6-1.8-2.8-2.1-2.8-.4zM461 593.9c0 .6.5 1.3 1 1.6.6.3 1-.1 1-.9 0-.9-.4-1.6-1-1.6-.5 0-1 .4-1 .9zM444.2 606.4c.1 1 .8 1.7 1.3 1.7 1.5-.1 1.2-2.4-.3-2.9-.9-.3-1.3.2-1 1.2zM461 608c0 .5.5 1 1 1 .6 0 1-.5 1-1 0-.6-.4-1-1-1-.5 0-1 .4-1 1zM466.5 609.9c-.3.5-.7 3.6-1 6.8-.2 3.2-.7 8.4-1.1 11.5-.5 4.1-.3 5.8.5 5.8.6 0 1.2-1.2 1.3-2.8.2-4.6.6-7.5 1.7-12.2 1.3-5.7 1.4-10 .2-10-.6 0-1.2.4-1.6.9zM433.7 610.6c-.9 1 .4 3.4 1.9 3.4.8 0 1.4-.9 1.4-2 0-1.9-1.9-2.7-3.3-1.4zM455.5 620c-.3.6.1 1.3 1 1.6 1.9.8 3 0 2-1.5-.8-1.4-2.2-1.4-3-.1zM450.2 622.2c.6 1.8 2.8 2.1 2.8.4 0-.9-.7-1.6-1.6-1.6-.9 0-1.4.5-1.2 1.2zM437.5 623c-1 1.6 1.6 4.3 2.8 3.1 1.1-1.1.2-4.1-1.2-4.1-.5 0-1.3.5-1.6 1zM469 630.6c0 1.4.4 2.3 1 1.9.6-.3 1-1.5 1-2.6 0-1-.4-1.9-1-1.9-.5 0-1 1.2-1 2.6zM433.6 630.7c-1.2 1.2-.6 3.3.9 3.3.8 0 1.5-.6 1.5-1.4 0-1.7-1.4-2.8-2.4-1.9zM450 631c0 .5.5 1 1 1 .6 0 1-.5 1-1 0-.6-.4-1-1-1-.5 0-1 .4-1 1zM476.5 525c-.9 2.8 1.1 5.2 2.5 3 .6-.8.9-2.1.7-2.9-.4-2.3-2.5-2.4-3.2-.1zM325.1 542.4c-1.4 1.7 1.1 4.1 3.4 3.2 2-.7 1.9-3.2-.1-4-2.1-.8-2-.8-3.3.8zM157.4 531.5c-.9 1.4-2 2.2-2.5 1.9-.5-.3-1.8 0-2.9.6-2.9 1.5-2.3 5.2 1 6 1.5.4 2.6 1.5 3 3 .4 1.6 1.3 2.5 2.5 2.5 2.8 0 3.1-3.3.5-6l-2.2-2.3 3.1-1.6c3.3-1.7 3.9-3.4 1.9-5.4-1.7-1.7-2.6-1.5-4.4 1.3zM154.5 556.4c-1 .7-1.5 1.8-1.1 2.4.9 1.5 1.8 1.5 4-.1 1.5-1.1 1.6-1.5.4-2.5-1.1-.9-1.9-.9-3.3.2zM125 585c0 2.2.4 4 1 4 1.2 0 2.4-4.5 1.6-6.5-1.1-2.9-2.6-1.5-2.6 2.5zM124.8 602.2c-.3 14.6.1 32.9.8 33.9 1.8 2.9 2.3-2.4 2.2-21.6-.1-17.3-.4-21.5-1.5-21.5-1 0-1.3 2.3-1.5 9.2zM124.2 641.1c.2.6.8 1 1.3 1s1.1-.4 1.3-1c.2-.6-.4-1.1-1.3-1.1s-1.5.5-1.3 1.1zM431.5 646.2c-1.2 3-.1 10.3 1.5 10.3 1.2 0 1.4-1.1 1.2-5-.4-5.3-1.7-7.9-2.7-5.3zM437.8 647.5c-.3 1.4-.1 2.8.3 3.1 1.5.9 2.9-.6 2.9-3.2 0-3.2-2.6-3.1-3.2.1zM419 649c0 1.1.7 2 1.5 2 1.7 0 1.8-.2.9-2.4-.9-2.3-2.4-2-2.4.4zM412.4 653.5c-.7 2.9-.1 4.1 1.5 3 1.4-.8 1.4-5.5.1-5.5-.5 0-1.2 1.1-1.6 2.5zM460 655.5c0 1 .7 1.5 1.8 1.3 2.1-.4 1.9-2.2-.2-2.6-1-.2-1.6.3-1.6 1.3zM51.2 694.2c-1.5 1.9-1.8 8.6-.5 9.9 2 2 4.3-.8 4.3-5.1 0-4.2-2.1-6.8-3.8-4.8zM227 741.9c0 .5.9 1.1 2 1.4 2.4.6 2.7-.8.4-1.7-2.1-.8-2.4-.8-2.4.3zM14.5.9c-.3.5-.5 10.3-.4 21.8.2 32.3.2 42.5 0 60.7-.1 10.5.2 17.3.8 17.9.6.6 1.2.9 1.5.6.6-.7 2.1-34.5 1.9-44.4-.1-5-.2-19.9-.2-33.3C18 4 17.7 0 16.5 0c-.7 0-1.6.4-2 .9zM34 .9c0 1.8 1.8 2.1 3 .6 1-1.3.9-1.5-.9-1.5C35 0 34 .4 34 .9zM40.8 4.2c-.5 4.5.5 7 2.1 5.2.5-.5 1.1-2.8 1.4-5.2C44.7.6 44.5 0 43 0c-1.4 0-1.9 1-2.2 4.2zM418.3 4.2c.3 2.4.9 6.7 1.2 9.5 1.1 8.5 2.5 6.1 2.5-4.2 0-9-.1-9.5-2.1-9.5-1.9 0-2.1.4-1.6 4.2zM431.1 3.2c-1.4 4.4-2.3 27.6-1 28.3.5.4.9 0 1-.7.1-.7.4-7.2.8-14.3.4-7.2 1.1-13.8 1.5-14.8.5-1 .4-1.7-.2-1.7-.6 0-1.5 1.5-2.1 3.2zM21.5 2.1c-1.1 1.6-.3 38.2 1.3 65.4.8 13 2.7 14.6 2.6 2.2-.3-47.8-.8-66.8-2-67.8-.8-.7-1.4-.6-1.9.2zM29.4 4.1c-.9 1.5 1.2 3.3 3 2.6.9-.4 1.6-1.3 1.6-2.2 0-1.7-3.5-2.1-4.6-.4zM424.8 3.6c-1.1 1-1 13.4.1 13.4.5 0 1.1-1.2 1.4-2.8.6-3.4-.6-11.6-1.5-10.6zM465.5 8.2c.2 2.4.7 12.5 1.1 22.4l.7 18.2L465 50l-2.3 1.2 2.7 2.2 2.7 2.1.2 22.3c.1 17.1.5 22.2 1.4 22.2 2 0 2.1-20.6.4-40.5-.6-6.1-1.3-20.7-1.7-32.5-.3-11.8-.8-21.8-1.1-22.3-1.2-1.9-2-.3-1.8 3.5zM438 10c0 .5.5 1 1 1 .6 0 1-.5 1-1 0-.6-.4-1-1-1-.5 0-1 .4-1 1zM28.1 12.4c-.8 1-.8 1.6.3 2.5 1 .9 1.6.8 2.6-.3 1.2-1.5.6-3.6-.9-3.6-.5 0-1.4.6-2 1.4zM211.6 11.9c-1.2 1.9.4 3.1 4.4 3.1 3.1 0 4.3.6 5.7 2.6 1 1.4 2.8 3.8 4.1 5.4 2.9 3.7 2.8 5.3-.8 10.4-3.3 4.9-4.6 5.6-10 5.6-2.1 0-4.3.6-5 1.5-1 1.2-1 1.5.1 1.6 7.3.5 60.1-.1 61-.7 1.8-1.1-1.9-3.4-5.5-3.4-7.3 0-7.6-.4-7.6-9.4 0-12.2.2-12.6 6.4-12.6 4.7 0 9.9-2 8.6-3.3-.3-.3-14.1-.8-30.6-1.2-21.9-.5-30.3-.4-30.8.4zM235 16c1.3.8 1.2 1.2-.6 3-2 2.1-2 2.1-3.8.1-2.9-3.2.5-5.6 4.4-3.1zm15.3 8c-.1 4.7-.2 9.5-.2 10.6-.1 1.6-.9 2.3-3.2 2.6-2.4.4-3.7-.1-6-2.4-4.1-4.1-4.6-7-1.8-11 4-5.9 7.3-8.9 9.4-8.6 1.8.3 2 1 1.8 8.8zM234 34.4c0 .2.3 1.1.6 2 .5 1.3-.1 1.6-2.5 1.6-3.3 0-3.9-.8-1.9-2.8 1.1-1.1 3.8-1.7 3.8-.8zM34.7 12.6c-1.4 1.4-.7 3.5 1.1 3.2.9-.2 1.7-1 1.7-1.7 0-1.6-1.8-2.5-2.8-1.5zM447.5 17c-.3.5-.1 1 .4 1 .6 0 1.1-.5 1.1-1 0-.6-.2-1-.4-1-.3 0-.8.4-1.1 1zM28.6 27.9c-.3.5.1 1.4.8 2 1.6 1.3 3.2-.2 2.1-1.9-.8-1.2-2.2-1.3-2.9-.1zM438 28c0 .5.7 1 1.5 1s1.5-.5 1.5-1c0-.6-.7-1-1.5-1s-1.5.4-1.5 1zM457 29.5c0 .9.5 1.5 1.1 1.3.6-.2 1.1-.8 1.1-1.3s-.5-1.1-1.1-1.3c-.6-.2-1.1.4-1.1 1.3zM424 35.1c0 2.8.4 3.9 1.3 3.7 1.7-.6 1.8-7.8.1-7.8-1 0-1.4 1.3-1.4 4.1zM429 41.1c0 3.1.4 4.8 1 4.4.6-.3 1-2.6 1-5.1 0-2.4-.4-4.4-1-4.4-.5 0-1 2.3-1 5.1zM448.5 36.9c-.6 1.1.9 2.3 1.9 1.4.9-.9.7-2.3-.3-2.3-.6 0-1.2.4-1.6.9zM435.5 38.9c-.6 1.1.9 2.3 1.9 1.4.9-.9.7-2.3-.3-2.3-.6 0-1.2.4-1.6.9zM32.5 46c-.7 1.2.2 3 1.6 3 .5 0 .9-.9.9-2 0-2.1-1.5-2.7-2.5-1zM421.7 47.8c-.8 1.2-1.7 92-1 97.9 1.5 12.9 2.3 2.7 2.3-29.5 0-19.1.3-42.2.5-51.4.4-14.8-.1-19.9-1.8-17zM427 62c0 4.7-.3 12-.5 16.2-.3 4.6-.1 7.9.5 8.3.5.3 1 .3 1-.2.7-12.9.7-29 0-30.6-.6-1.5-.9.4-1 6.3zM438 60c0 .5.7 1 1.5 1s1.5-.5 1.5-1c0-.6-.7-1-1.5-1s-1.5.4-1.5 1zM37.2 73.4c.1 1 .8 1.7 1.3 1.7 1.5-.1 1.2-2.4-.3-2.9-.9-.3-1.3.2-1 1.2zM32 76c0 1.3.5 2 1.3 1.7.6-.2 1.2-1 1.2-1.7s-.6-1.5-1.2-1.8c-.8-.2-1.3.5-1.3 1.8zM459.5 81c-.4.6-.3 1.6.3 2.2.6.6 1.2.6 1.7-.2.4-.6.3-1.6-.3-2.2-.6-.6-1.2-.6-1.7.2zM454.7 82.4c-.6 1.5.1 2.6 1.5 2.6 1.1 0 1-2.7-.1-3.4-.5-.3-1.1 0-1.4.8zM438 84c0 .5.5 1 1 1 .6 0 1-.5 1-1 0-.6-.4-1-1-1-.5 0-1 .4-1 1zM19.7 96.2c-.9 3.2.5 42.8 1.5 43.4.4.3.8-3 .9-7.3.2-16.6.8-33.4 1.4-34.2.8-1.4-.5-4.1-2-4.1-.7 0-1.5 1-1.8 2.2zM37.2 99.6c.4 2.1 2.2 2.3 2.6.1.2-1-.3-1.7-1.3-1.7s-1.5.6-1.3 1.6zM441.6 99.7c-1.1 1.1-.6 2.3.9 2.3.8 0 1.5-.4 1.5-.9 0-1.3-1.6-2.2-2.4-1.4zM429 106.5c0 .8.5 1.5 1 1.5.6 0 1-.7 1-1.5s-.4-1.5-1-1.5c-.5 0-1 .7-1 1.5zM12.5 112.7c-.7 7.1-2 103.2-1.6 123.8.2 11 1 15.1 2.4 12.8.3-.5.8-29.3 1.1-63.9.3-34.6.8-66.6 1.2-71.2.6-6.9.5-8.2-.8-8.2-1.1 0-1.7 1.7-2.3 6.7zM437.5 108c-.4.6-.3 1.6.3 2.2.6.6 1.2.6 1.7-.2.4-.6.3-1.6-.3-2.2-.6-.6-1.2-.6-1.7.2zM454 111c0 .5.5 1 1 1 .6 0 1-.5 1-1 0-.6-.4-1-1-1-.5 0-1 .4-1 1zM467.4 114.1c2.2 13.4 2.8 77.7 1.1 110.5-.5 10.7-.5 15.3.3 15.8 1.7 1 2-1.8 2.8-23.4.8-21.9.8-33.2-.1-73.3-.7-28.5-1.1-32.7-3.5-33.5-1-.4-1.1.5-.6 3.9zM34.2 113.7c.4 2.1 3.3 2.5 3.3.3 0-.8-.8-1.6-1.8-1.8-1.4-.3-1.8.1-1.5 1.5zM452.7 121.6c-.8.8.1 2.4 1.4 2.4.5 0 .9-.7.9-1.5 0-1.5-1.2-2-2.3-.9zM461.5 126.1c-1 1.5.3 2.5 1.6 1.2.7-.7.7-1.3.1-1.7-.6-.3-1.4-.1-1.7.5zM428.6 127.7c-1.1 1.1-.6 2.3.9 2.3.8 0 1.5-.4 1.5-.9 0-1.3-1.6-2.2-2.4-1.4zM39.3 133.6c-.8 2.1 1.3 4.2 2.8 2.7 1.3-1.3.5-4.3-1.1-4.3-.6 0-1.3.7-1.7 1.6zM30.7 136.7c-1.2 1.1-.8 2.3.8 2.3.8 0 1.5-.7 1.5-1.5 0-1.6-1.2-2-2.3-.8zM18.5 145.9c-.8 1.4-.8 27.1 0 30.4 1.6 6.2 2.3 1.7 2.4-14.3 0-15.3-.5-19.1-2.4-16.1zM422 167.5c0 5.5.4 8.4 1 8 .6-.3 1-3.9 1-8s-.4-7.7-1-8c-.6-.4-1 2.5-1 8zM438.2 175.6c.4 2.1 2.2 2.3 2.6.1.2-1-.3-1.7-1.3-1.7s-1.5.6-1.3 1.6zM449.2 182.2c.6 1.8 2.8 2.1 2.8.4 0-.9-.7-1.6-1.6-1.6-.9 0-1.4.5-1.2 1.2zM432 184.4c0 .8.4 1.7.9 2 1.1.7 3.3-1.8 2.4-2.7-1.2-1.2-3.3-.7-3.3.7zM17.6 190.7c-.9 3-.5 84.9.4 86.4.5.7 1.1 1.1 1.4.9.4-.5.9-54.9.7-79.3-.1-8.9-1.2-12.3-2.5-8zM458.5 196.9c-.6 1.1.9 2.3 1.9 1.4.9-.9.7-2.3-.3-2.3-.6 0-1.2.4-1.6.9zM420.7 198.7c-1.1 1-.8 6.3.3 6.3 1.4 0 2.4-5 1.3-6.1-.5-.5-1.2-.6-1.6-.2zM437.5 203c-.4.6-.3 1.6.3 2.2.6.6 1.2.6 1.7-.2.4-.6.3-1.6-.3-2.2-.6-.6-1.2-.6-1.7.2zM32 208c0 .5.5 1 1 1 .6 0 1-.5 1-1 0-.6-.4-1-1-1-.5 0-1 .4-1 1zM449 214.5c0 .8.5 1.5 1 1.5.6 0 1-.7 1-1.5s-.4-1.5-1-1.5c-.5 0-1 .7-1 1.5zM424.5 224c-1 1.6 1.6 4.3 2.8 3.1 1.1-1.1.2-4.1-1.2-4.1-.5 0-1.3.5-1.6 1zM454.5 230c-.7 1.2.2 3 1.6 3 1.2 0 1.2-2.7 0-3.5-.5-.3-1.2-.1-1.6.5zM421.6 237.8c-.2.4-.1 1.4.4 2.2.7 1.1 1.2 1.2 2.1.3.6-.6.8-1.6.5-2.2-.8-1.3-2.3-1.4-3-.3zM468.2 256c.2 6.4.7 10.4 1.3 10.2 1.3-.3.7-18.3-.6-19.7-.6-.6-.9 3-.7 9.5zM475.8 256.2c-.3 8.6 0 23.5 1.7 84.8.3 12.4 1 22.9 1.6 23.5 1.1 1.1 1 2.6 1.5-17.5.2-9.1-.2-21-.8-26.5-.6-5.5-1.2-18.8-1.3-29.5-.3-37.7-.5-44-1.4-44-.5 0-1.1 4.2-1.3 9.2zM425 254c0 1.3.5 2 1.3 1.7.6-.2 1.2-1 1.2-1.7s-.6-1.5-1.2-1.8c-.8-.2-1.3.5-1.3 1.8zM11.6 253.8c-.7 1.3.1 62.4.9 64.4.4 1 1.1 1.8 1.6 1.8 1.4 0 .6-66.3-.8-66.7-.6-.2-1.4 0-1.7.5zM463 257c0 .5.5 1 1 1 .6 0 1-.5 1-1 0-.6-.4-1-1-1-.5 0-1 .4-1 1zM464.5 266.5c.4 3.8.8 17.1 1.1 29.5.2 12.9.7 22.6 1.3 22.8 1.9.6 1.7-17.9-.4-47.7-.3-4.6-1-9.1-1.6-10-.7-1.1-.8.4-.4 5.4zM420.5 263.9c-.7 1.2 1.2 2.4 2.5 1.6 1.1-.7.4-2.5-1-2.5-.5 0-1.1.4-1.5.9zM420.8 277c-.7 2 .4 15 1.3 15 .5 0 .9-3.6.9-8s-.4-8-.9-8-1.1.4-1.3 1zM470.8 290.5c-.3 3.8-.4 9.7-.2 13 .8 11.5 1.2 26.2 1.3 47.7.1 12 .5 21.8 1 21.8.4 0 1.1-1.8 1.4-4.1.6-4.6-1-64.2-2.1-76.9l-.7-8.5-.7 7zM421 308.2c-.1 2.9-.3 10.5-.6 16.8-.5 10.8.2 15 2.2 13.7.8-.4 1-16.5.5-31.5-.2-6.1-2.1-5.2-2.1 1zM19.4 310.4c-.9 2.3 0 6.9 1.4 7.4.8.2 1.2-1 1.2-4.2 0-4.4-1.5-6.2-2.6-3.2zM429 321.5c0 .8.5 1.5 1 1.5.6 0 1-.7 1-1.5s-.4-1.5-1-1.5c-.5 0-1 .7-1 1.5zM20.1 327c.1 3 .5 6.8.9 8.5.7 2.8.8 2.9 1 .5.4-5.1-.2-12.5-1.1-13.5-.5-.5-.9 1.2-.8 4.5zM447.4 323.1c-.8 1.4 1.1 3.3 2.5 2.5 1.1-.7.4-3.6-.9-3.6-.5 0-1.2.5-1.6 1.1zM13 332.5c-1 1.2-1.1 5.6-.4 21.3.4 10.8.8 45 .9 75.9 0 55.9.2 59.8 3.3 57.9.5-.3.8-7.1.6-16.3-.2-8.7-.5-24.8-.7-35.8-.3-11-.2-25 .2-31 .8-12.4-.8-71.6-1.9-72.8-.4-.4-1.3-.1-2 .8zM435.6 331.7c-1.1 1.1-.6 2.3.9 2.3.8 0 1.5-.4 1.5-.9 0-1.3-1.6-2.2-2.4-1.4zM428.7 335.6c-.8.8.1 2.4 1.4 2.4.5 0 .9-.7.9-1.5 0-1.5-1.2-2-2.3-.9zM33.5 337c-.8 1.3.4 3.2 1.6 2.5 1.2-.8 1.2-3.5 0-3.5-.6 0-1.3.4-1.6 1zM454.2 344.6c.4 2.1 2.2 2.3 2.6.1.2-1-.3-1.7-1.3-1.7s-1.5.6-1.3 1.6zM466 351.7c0 5.1.5 9.5 1 9.8 1.6 1 1.5-16.3-.1-18-.5-.5-.9 2.6-.9 8.2zM20.7 358.7c.4 9.2 1.6 13.5 2.7 10.2.9-2.5-.8-19.2-2-19.6-.9-.3-1 2.4-.7 9.4zM438.2 351.6c.2 1.1 1.1 2 2.2 2.2 1.3.3 1.7-.1 1.4-1.4-.2-1.1-1.1-2-2.2-2.2-1.3-.3-1.7.1-1.4 1.4zM460.4 351.5c-.9 2.3 1 4 2.5 2.2.9-1.1.8-1.7-.4-2.7-1.2-1-1.6-.9-2.1.5zM432.5 353c-1.1 1.7.5 3.2 2.1 1.9.7-.6 1.1-1.5.8-2-.7-1.2-2.1-1.1-2.9.1zM42.6 353.9c-.3.5.1 1.4.9 2.1 1.2 1 1.5 1 1.5-.3 0-1.9-1.6-3.1-2.4-1.8zM34.6 354.9c-.3.5.1 1.4.8 2 1.6 1.3 3.2-.2 2.1-1.9-.8-1.2-2.2-1.3-2.9-.1zM450.5 358.9c-.8 1.5.3 3.1 2.1 3.1.9 0 1.4-.7 1.2-1.7-.4-2-2.4-2.8-3.3-1.4zM70.6 370.9c-.3.5-.6 7.4-.6 15.3.1 102.3.4 119.8 2 119.8.6 0 1-5.6 1-14.8 0-9.6.4-15.2 1.1-15.9.8-.8.9-2.1.3-4-.5-1.5-.9-24.8-.9-51.7 0-36.2-.3-49-1.2-49.3-.6-.2-1.4 0-1.7.6zM40 371.9c0 .6.5 1.3 1 1.6.6.3 1-.1 1-.9 0-.9-.4-1.6-1-1.6-.5 0-1 .4-1 .9zM63 386.5c0 8.3.3 10.5 1.4 10.5 2.1 0 2.4-1.8 1.8-11.8-.3-6.8-.8-9.2-1.8-9.2-1.1 0-1.4 2.3-1.4 10.5zM462 383.5c0 1 .7 1.5 1.8 1.3 2.1-.4 1.9-2.2-.2-2.6-1-.2-1.6.3-1.6 1.3zM32.5 387c-.7 1.2.2 3 1.6 3 1.2 0 1.2-2.7 0-3.5-.5-.3-1.2-.1-1.6.5zM474.7 392.7c-.3.5-.5 7.8-.6 16.3 0 8.5-.4 16.8-.7 18.5-.7 3.9.5 12 1.6 10.9.5-.5 1.2-5.9 1.5-11.9.3-6.1.8-13.9 1.1-17.5.8-10.3-.9-19.7-2.9-16.3zM43.2 396.9c.2.7.7 1.2 1.1 1.2 1.2-.1.9-1.5-.3-2-.7-.2-1.1.2-.8.8zM26 399c0 1.1.5 2 1 2 .6 0 1-.9 1-2s-.4-2-1-2c-.5 0-1 .9-1 2zM28.5 403c-.7 1.2.2 3 1.6 3 1.2 0 1.2-2.7 0-3.5-.5-.3-1.2-.1-1.6.5zM56.5 404c-.7 1.2.2 3 1.6 3 .5 0 .9-.9.9-2 0-2.1-1.5-2.7-2.5-1zM65.4 405.4c-.4 1-.2 2.2.4 2.8.8.8 1.3.7 1.8-.6.4-1 .2-2.2-.4-2.8-.8-.8-1.3-.7-1.8.6zM463.6 404.9c-.4.5-.2 1.2.3 1.5.5.4 1.2.2 1.5-.3.4-.5.2-1.2-.3-1.5-.5-.4-1.2-.2-1.5.3zM44.5 409c-.7 1.2.2 3 1.6 3 1.2 0 1.2-2.7 0-3.5-.5-.3-1.2-.1-1.6.5zM23.5 414c-.4.6-.3 1.6.3 2.2.6.6 1.2.6 1.7-.2.4-.6.3-1.6-.3-2.2-.6-.6-1.2-.6-1.7.2zM33.2 417.4c.1 1 .8 1.7 1.3 1.7 1.5-.1 1.2-2.4-.3-2.9-.9-.3-1.3.2-1 1.2zM61.5 422c-.4.6-.3 1.6.3 2.2.6.6 1.2.6 1.7-.2.4-.6.3-1.6-.3-2.2-.6-.6-1.2-.6-1.7.2zM462.5 423c-.3.6.1 1.3 1 1.6 1.9.8 3 0 2-1.5-.8-1.4-2.2-1.4-3-.1zM20.5 429.7c-.8 6.7-.9 44.3 0 45.1.3.3.7.3 1 .1.9-1 1.6-50.9.7-50.9-.6 0-1.3 2.6-1.7 5.7zM446.5 424.9c-.8 1.5.3 3.1 2.1 3.1.9 0 1.4-.7 1.2-1.7-.4-2-2.4-2.8-3.3-1.4zM63.5 431.1c-1.1 1.6-1.3 77.9-.2 80.8.7 2.1 1 2.2 2.2 1 1.7-1.7 1.8-5.9 1.3-48.8-.4-32.1-.9-36.9-3.3-33zM450.5 434c-1.1 1.7.5 3.2 2.1 1.9.7-.6 1.1-1.5.8-2-.7-1.2-2.1-1.1-2.9.1zM468 436c0 .5.5 1 1 1 .6 0 1-.5 1-1 0-.6-.4-1-1-1-.5 0-1 .4-1 1zM459 439.5c0 1 .7 1.5 1.8 1.3 2.1-.4 1.9-2.2-.2-2.6-1-.2-1.6.3-1.6 1.3zM39.5 465c-.7 1.2.2 3 1.6 3 .5 0 .9-.9.9-2 0-2.1-1.5-2.7-2.5-1zM43.7 480.7c-1.2 1.1-.8 2.3.8 2.3.8 0 1.5-.7 1.5-1.5 0-1.6-1.2-2-2.3-.8zM51.5 486.9c-.7 1.2 1.2 2.4 2.5 1.6 1.1-.7.4-2.5-1-2.5-.5 0-1.1.4-1.5.9zM14.9 499.7c-1 13.1-.4 138.3.6 138 .6-.1 1-7.5 1.1-19.2.1-10.5.5-25.8.9-34 .5-8.3.8-26.5.7-40.5-.1-14-.2-31-.2-37.8 0-9.7-.3-12.2-1.4-12.2-.9 0-1.5 1.7-1.7 5.7zM27.6 506.8c-.3.6-.7 7.5-.8 15.5-.2 10.6 0 14.9 1 15.8 1 1.1 1.2.8 1.4-1.1 0-1.4.2-3.6.3-5 .9-10.8.7-25.4-.2-25.7-.6-.2-1.4 0-1.7.5zM64.8 537.6c-.7.6.1 27.6.9 28.4 1.4 1.5 2-3.8 1.6-14.9-.4-11.7-1-15-2.5-13.5zM36 554.6c0 1.7 2.2 1.4 2.8-.4.2-.7-.3-1.2-1.2-1.2-.9 0-1.6.7-1.6 1.6zM26 559c0 1.6.5 3 1 3 .6 0 1-1.4 1-3 0-1.7-.4-3-1-3-.5 0-1 1.3-1 3zM49.2 564.9c.2.7.7 1.2 1.1 1.2 1.2-.1.9-1.5-.3-2-.7-.2-1.1.2-.8.8zM42 568c0 .5.5 1 1 1 .6 0 1-.5 1-1 0-.6-.4-1-1-1-.5 0-1 .4-1 1zM65.5 572c-.8 1.3-.8 14.5 0 17.1.4 1.1 1.1 1.9 1.7 1.7 1.5-.5 1.6-19 .1-19.5-.6-.2-1.4.1-1.8.7zM25.6 599.7c-.7 15.4-.3 19.9 1.5 18.7 1.2-.7 1.2-34.4 0-34.4-.4 0-1.1 7.1-1.5 15.7zM53.5 591c-.8 1.3.4 3.2 1.6 2.5 1.2-.8 1.2-3.5 0-3.5-.6 0-1.3.4-1.6 1zM38.2 593.9c.4 1.3 1.8 1.6 1.9.4 0-.4-.5-.9-1.1-1.2-.7-.2-1.1.2-.8.8zM60.5 598c-.8 1.3.4 3.2 1.6 2.5 1.2-.8 1.2-3.5 0-3.5-.6 0-1.3.4-1.6 1zM51 607c0 .5.5 1 1 1 .6 0 1-.5 1-1 0-.6-.4-1-1-1-.5 0-1 .4-1 1zM42 608.1c0 .5.5.7 1 .4.6-.3 1-.8 1-1.1 0-.2-.4-.4-1-.4-.5 0-1 .5-1 1.1zM66.5 615.9c-.4.7-.4 3 0 5.2s.2 6.2-.5 8.8c-.9 3.8-.9 5.4 0 7.1 2.3 4.4 3.5.6 3.2-10.3-.4-9.8-1.2-13.2-2.7-10.8zM40.5 617c-.3.5-.1 1 .4 1 .6 0 1.1-.5 1.1-1 0-.6-.2-1-.4-1-.3 0-.8.4-1.1 1zM54 617c0 .5.5 1 1.1 1 .5 0 .7-.5.4-1-.3-.6-.8-1-1.1-1-.2 0-.4.4-.4 1zM61.7 622.7c-.8 3-.3 8.3.8 8.3.6 0 1.1-2.2 1.3-5 .3-4.8-1.2-7-2.1-3.3zM44.6 624.9c-.4.5-.2 1.2.3 1.5.5.4 1.2.2 1.5-.3.4-.5.2-1.2-.3-1.5-.5-.4-1.2-.2-1.5.3zM54 626c0 .5.5 1 1 1 .6 0 1-.5 1-1 0-.6-.4-1-1-1-.5 0-1 .4-1 1zM32 628c0 .5.5 1 1 1 .6 0 1-.5 1-1 0-.6-.4-1-1-1-.5 0-1 .4-1 1zM71.7 633.6c-1.4 1.4-.7 3.5 1.1 3.2.9-.2 1.7-1 1.7-1.7 0-1.6-1.8-2.5-2.8-1.5zM60.7 634.7c-1.2 1.1-.8 2.3.8 2.3.8 0 1.5-.7 1.5-1.5 0-1.6-1.2-2-2.3-.8zM465.5 665.2c-.8 2 2.1 6.8 4.1 6.8 2.1 0 1.7-2.6-1-5.7-2.1-2.4-2.5-2.6-3.1-1.1zM455.5 665.9c-.7 1.2 1.2 2.4 2.5 1.6 1.1-.7.4-2.5-1-2.5-.5 0-1.1.4-1.5.9zM482 668.8c0 2 4.9 7.2 6.7 7.2 2.7 0 2.1-2.1-1.4-5.4-4.3-4-5.3-4.4-5.3-1.8zM478.8 710.7c-2.2.6-3.1 3.5-2.3 7.3.6 2.9.6 2.9-4.4 3.6-9.4 1.2-10.3 5-1.5 6.2 4 .6 5 1.1 5.2 2.8.3 1.9-.3 2.2-5.1 2.8-6.9.9-9.7 2.7-7.8 5 .7.9 2.5 1.6 4 1.6 5.3 0 10.1 1.3 10.1 2.6 0 1-1.3 1.4-3.9 1.4-5.3 0-10.1 1.8-10.1 3.9 0 2.3 1.9 4.1 4.3 4.1 1.5 0 1.8-.5 1.4-2.1-.4-1.5.1-2.3 2.1-3 1.4-.6 3.7-.8 4.9-.4 2.1.5 2.3 1.1 2.3 6.4 0 7.3.6 9.1 3.2 9.1 1.5 0 1.9-.6 1.8-2.8-.1-1.5-.2-4.8-.1-7.5l.1-4.7h5.9c7.5 0 11.1-1.3 11.1-4 0-3.1-4-5-11.1-5.3-8.7-.4-8.1-2.1.9-2.5 9.3-.4 9.4-2.2.2-2.2-5.4 0-7.2-.4-7.7-1.5-.8-2.4-.2-2.6 8.1-2.6 5.8 0 7.6-.4 7.6-1.4 0-1.1-1.9-1.5-7.5-1.7-4.4-.2-7.4-.7-7.3-1.3.3-1 1.5-1.2 8.6-1.4 2.9-.1 4.2-.5 4-1.3-.3-.8-2.8-1.2-7.1-1.3-8.1 0-9.3-1.8-1.7-2.6 3-.3 6.5-.9 7.8-1.3 2.7-.9 2.9-4.1.3-5.6-1.9-1-12.9-1.2-16.3-.3zM489 714c0 .5-1.6 1-3.5 1s-3.5-.5-3.5-1c0-.6 1.6-1 3.5-1s3.5.4 3.5 1zm-12.4 22.9c-.3.4-2 .5-3.8.2l-3.3-.5 3-.6c3.2-.7 4.8-.3 4.1.9zm17.2 5.3c.3 1.5-.5 1.8-5.2 1.8-3 0-5.8-.5-6.1-1-1.3-2.1.8-3.1 5.8-2.8 4 .2 5.3.7 5.5 2z"/><path d="M487.2 751.2c-.8.8-.9 1.5-.1 2.5 1.5 1.7 3.4 1.7 4.8-.1 1-1.2.8-1.7-.8-2.5-2.4-1.4-2.4-1.4-3.9.1zM.2 768.8c-.2.8-.2 4.8.2 9s.7 9.3.6 11.3c-.1 3.5 2.2 7 3.4 5.1.8-1.4.9-8.2.1-12.9-1.1-6.1 0-9.3 3.1-9.3 2.2 0 2.4.3 1.8 2.2-1.1 3.6-.6 14.1.8 14.9 2.2 1.4 2.8-.1 2.8-7.1 0-3.7.3-7.5.6-8.4 1-2.7 3.2-1.8 3.1 1.1-.3 7.9.4 12.4 1.8 13 2.5.9 2.8-.2 2.6-7.7-.1-3.8.2-7 .7-7 1.5 0 3.3 13.8 3.2 25-.1 10.9.7 13.7 3.4 12.7 1.3-.5 1.5-2.5 1.1-13.9-.2-7.3-.7-15.9-1.1-19.1-.4-3.8-.3-5.7.4-5.7 1.7 0 2 1 2.6 11.3.7 11.1 1.1 12.4 3.3 10.5 1.3-1 1.5-2.9 1.1-9.8-.5-8.6.4-13.6 2.2-12.5.5.3 1 4.4 1 8.9 0 6.1.4 8.7 1.5 9.6 2.7 2.2 3.5.1 3-7.8-.6-7.5.3-11.1 2.3-9.8.5.3 1.1 4.4 1.4 9.1.5 8.8 1.8 11.9 4 9.7.8-.8 1.3-4.6 1.3-10.5 0-7.7.3-9.2 1.7-9.5 2.5-.5 3.1 2.9 2.9 17-.1 13.2.6 15.6 3.7 12.4 1.4-1.4 1.7-3.9 1.6-16.1-.1-14.2-.1-14.3 2-13.6 2 .8 2.1 1.7 2.4 12.9.2 9.2.6 12.3 1.8 13.3 2.5 2.1 3.2-.1 3.6-12.4.4-11.3 1.5-15.5 3.4-12.5.5.7.9 6.4.9 12.7 0 6.7.4 11.6 1 11.7 2.5.9 3.9-1.7 4.3-8 .6-8.8 2.2-7.4 2.2 1.9 0 8.2.6 10.5 2.5 10.5 2.4 0 2.9-2.2 3-14.7 0-8.3.4-12.6 1.3-13.5 1.2-1.2 1.5 1 1.7 15.2 0 5.4.9 7 3.7 7 2 0 2.1-.3 1.5-10-.7-11.1-.3-13 2.3-13 2 0 3 4.7 3.5 16.2.4 8.6 1.1 10.8 3.7 10.8 2 0 2-.3 1.3-13.4-.5-9-.3-13.6.4-14 2.2-1.4 3.1 3.9 3.2 20.8.2 18.3 1.1 22.7 4.1 19.8 1-1 1.3-6.1 1.3-21.2 0-12.5.4-20.1 1-20.2 1.5-.4 2.3 7.8 2.4 23.7.1 7.7.4 15 .7 16.2.7 2.5 3.2 3.1 3.9 1 1-3 1.2-23.9.3-30.5-.8-5.3-.8-7.6.1-8.5.6-.6 1.3-.8 1.7-.5.3.4.8 8 1 17 .3 9 .7 16.9.9 17.5.6 1.8 4.2 1.6 4.9-.2.3-.8.1-8.7-.4-17.6-.9-16-.8-17.9 1.1-17.9 1.5 0 1.2 40.3-.3 42.3-1.1 1.3-3.2 1.6-13.3 1.4l-12-.2-.5-5c-.4-4.2-.8-5-2.5-5-1.8 0-2 .6-1.9 5.2l.2 5.3H99c-5.3 0-5.8-.2-6.4-2.5-.9-3.5-4.6-3.5-4.6.1 0 2.1-.4 2.5-2.2 2.2-1.8-.2-2.5-1.2-3.2-4.6-1.1-5-3.9-5.8-5.4-1.5-1 2.8-1 2.8-1.1-.9-.1-4.2-1.5-5.6-3.8-3.7-1.1 1-1.4 2.4-.9 5.6l.6 4.3H54l-.2-4.8c-.1-2.6-.2-6.5-.3-8.6 0-3.9-2-6.1-3-3.4-.6 1.4-1.2 8.3-1.4 14.1-.2 4.5-2.1 2-2.1-2.7 0-2.3-.5-4.7-1.2-5.4-.8-.8-.8-1.5 0-2.5 1.6-1.9.4-2.8-1.9-1.4-1.5 1-1.9 2.4-1.9 7.4 0 3.5-.4 6.3-1 6.3-.5 0-1-1.4-1-3 0-5.7-5.2-5-5.4.7l-.1 2.8H27c-11.4 0-10.7.6-11.5-9.6-.4-4.9-1.1-9.2-1.6-9.4-.4-.3-1.5.5-2.4 1.9-1.3 2-1.5 3.6-.7 9 .9 7 .8 7.6-1.8 7.6-1.7 0-4-7.3-4-12.9 0-3.5-.8-4.3-3.1-3-1.5.8-1.9 2.1-1.9 6.2 0 2.9.5 5.8 1.2 6.5.9.9.9 1.5 0 2.4-2.1 2.1-1.4 4.6 1.5 5.1 1.6.3 113.9.5 249.8.4l247-.2.3-24.9.2-24.9-7.1.7c-7.9.7-140.8.7-150.9-.1-3.6-.3-81.8-.6-173.9-.6-138.5-.2-167.4 0-167.9 1.1zm152.3 22.7c.2 18 .5 21 1.8 21.3.8.2 1.8-.2 2.2-.8.4-.7.7-10.2.7-21.1-.1-11.5.3-19.9.8-19.9 1 0 1.6 3.2 2.5 13.5.6 6.8 2 9.4 4 7.4.6-.6.8-5.1.6-10.9-.2-5.8.1-10 .6-10 .6 0 1.5 3.3 2.2 7.2 2 12.1 2.5 13.3 4.6 13.3 1.4 0 1.9-.6 1.7-2-.1-1.1-.5-5.6-.9-10.1l-.6-8.1 2.9-.6c1.6-.3 3.2-.3 3.6-.1.4.3.7 6.9.8 14.7 0 7.8.4 15.9.9 18 .7 3 .6 3.9-.5 4.4-.8.3-1.4 1.8-1.4 3.4 0 2.6-.3 2.9-3.5 2.9s-3.5-.2-3.5-3c0-2.3-.4-3-2-3-1.4 0-2 .7-2 2.2 0 4.3-1.2 4.9-9.9 4.7-7.7-.2-8.2-.4-9.4-2.8-.7-1.4-2-2.7-3-2.9-1.3-.3-1.7.3-1.7 2.7 0 2-.5 3.1-1.4 3.1-1.1 0-1.4-3.9-1.5-21.4-.1-20 .4-24.4 2.6-22.2.3.3.7 6.6.9 14.1.2 7.5.6 14 .9 14.5.3.6 1.5 1 2.6 1 1.9 0 2-.6 1.8-11.8-.2-17.4 0-19.4 1.2-19 .8.3 1.2 6.8 1.4 21.3zm43.5-14.2c0 6.9 1 9.3 3.4 8.4 1.1-.4 1.6-2.4 1.8-7.3.4-9.4 2.6-9.9 3-.7.2 5.3.7 6.8 1.9 7.1 1.3.2 1.7-1 2.3-6.4.8-7.7 1.1-8.5 3.1-7.7 1.1.4 1.5 2.2 1.5 6.8 0 7.1 1.4 11.9 3.3 11.2.8-.3 1.1-2.5.9-7.5-.3-7.1 1.1-12.3 2.9-10.5.4.4 1.3 4.8 1.8 9.7.6 4.9 1.5 9.4 2.1 10 1.5 1.5 3.4-.8 2.5-3.1-.4-1-.9-5.1-1.1-9-.3-7.1-.3-7.3 2.2-7.9 1.4-.4 3.9-.3 5.6.2 3.1.9 3.8 2 5.2 8.6.4 1.9 1.3 2.8 2.5 2.8 2.4 0 3.2-2.1 2.4-6.2-.6-3-.5-3.1 2.1-2.4 1.9.5 2.8.2 3.2-.9.8-2.1 3.4-1.9 3.4.3 0 2.7 2.1 4.4 3.7 3.1.7-.7 1.3-1.8 1.3-2.5 0-.8.9-1.4 2-1.4 1.8 0 2 .7 2 6.8 0 7.4 1.6 11 4.4 9.9 1.4-.5 1.6-1.9 1.4-8.4l-.3-7.8 2.8-.3c3-.4 3.1.1 2.7 10.8-.1 5.1 2.1 9.2 4 7.4 1.6-1.6 2.4-11.7 1.2-15.3-1.1-3-1-3.1 1.7-3.1h2.8l.5 13.5c.3 7.5.8 13.8 1.1 14.2.4.3 1.3.3 2.2 0 1.2-.5 1.5-2.8 1.5-13.7 0-10.9.3-13.2 1.5-13.7.9-.3 1.9-.2 2.3.2.4.3.8 8.1.8 17.2.2 16.7.9 20.2 3.7 17.4.8-.9 1.2-5.9 1.2-17.9 0-15.1.2-16.7 1.8-17 1.6-.3 1.7.9 1.6 16.1-.1 13.7.2 17.1 1.6 20.1 1.8 3.8 4.2 4.4 3.7 1-.5-3.2-.2-33.8.4-35.7.3-.9 1.5-1.7 2.6-1.7 2 0 2 .5 1.8 13.2-.5 20.2-.2 23.8 1.5 24.5.9.3 1.8.3 2.1 0 .3-.3.7-8.5 1-18.2.2-9.7.6-18.1.9-18.6.4-.5 1.7-.9 3-.9 1.6 0 2.5.7 2.9 2.5.4 1.4.4 3 .1 3.5-.3.5-.5 6.4-.5 13.2 0 6.8-.3 14.7-.7 17.6l-.6 5.4-17.1-.6c-9.4-.3-17.3-.5-17.4-.6-.2 0-.1-1.7.3-3.8.4-2.7.2-4.2-.7-5-2.2-1.8-3.6 0-4 4.7l-.3 4.4-11.5.2c-6.3.1-12 0-12.7-.2-.6-.3-1.5-3-1.9-6-.4-3.3-1.4-6.3-2.5-7.4-1.1-1.1-1.9-3.3-1.9-5.4 0-3.7.8-4.3 2.8-2.3 1 1 1.5 1 2.1-.1 1.3-2.1 0-10.2-2-12.2-1.1-1.1-1.9-2.4-1.9-3 0-.6-1-.9-2.2-.7-2.9.4-3.4 3.3-3.9 19l-.4 12.3 2.8 1.3c2.5 1.2 3.5 4.4 1.5 4.3-.5-.1-1.9-.1-3.3-.1H243v-12.4c0-12.9-.7-15.3-3.8-12.2-1.2 1.2-1.6 4-1.6 13.3l-.1 11.8-7 .2c-3.8.1-7.3-.1-7.7-.3-.3-.2-.3-1.7.2-3.3.9-3.1-.2-5.7-1.8-4.7-.6.4-2.1.1-3.2-.6-2.7-1.7-4.2.3-3.7 4.8.3 3 .1 3.2-3.8 3.6-2.2.3-5.8.3-8.1 0-5.4-.5-7.7-4.1-7.3-11.5.3-4.2 0-5.3-1.4-5.5-1.5-.3-1.6.5-1 8.7l.6 9.1h-10l.1-3.4c.1-1.8.7-4 1.4-4.8.9-1.1.9-3.5.2-9.9-1.1-9.5-.1-24 1.7-24.6.8-.3 1 1.8.7 8-.4 6.4-.2 8.6.9 9.5 2.4 2 3.6-.7 3.8-8.3.3-11.7 3.9-14.6 3.9-3.2zm-111.8-.2l-.9 4.4-.8-3.7c-.8-4.4 0-7.7 1.6-6.1.7.7.8 2.5.1 5.4zm411.5 4.4c.4 4.9.8 14.6.8 21.5v12.5l-10.5.1c-5.8 0-15.2-.2-20.9-.5l-10.4-.6.3-10c.1-5.5.3-14.9.5-20.8.2-11.1.7-12.9 2.7-10.9.8.8 1.3 7.2 1.6 19.3.4 14.7.7 18.2 1.9 18.6 2.8 1.1 3.3-2.2 3-20.2l-.2-18h2.5c1.4 0 2.4.4 2.4 1-1.5 11.1-1.5 12.5.1 13.1 2.7 1.1 3.8-1.1 3.9-7.8.2-5.5.4-6.3 2.1-6.3 1.3 0 1.9.6 1.6 1.5-.2.8-.5 10-.7 20.3-.4 18.8-.4 18.8 1.7 18.5 2.1-.3 2.2-.8 2.5-16.3.2-8.8.7-17.9 1-20.2l.5-4.2 5.7-.3c3.1-.2 6-.1 6.4.2.4.3 1 4.5 1.5 9.5zm-125.2-2.4c0 5 .3 6.4 1.5 6.4 1 0 1.4-.9 1.3-2.9-.3-4.6 3.2-9.6 6.8-9.6h2.9v8.9c0 8.8 1 11.5 3.3 9.2.5-.5 1.3-4.1 1.6-7.8.7-7.7 1.7-7.3 2.7 1.1.6 4.8.4 5.9-1.1 7-1.5 1.1-1.9 3.2-2.3 12-.5 11.3-.1 10.6-5.4 11-.8.1-1.2-.7-1-1.8.6-3.2-.8-8.6-2.2-8.6-2.1 0-2.7 4.1-1.1 7.4 1.8 3.4 1.4 4.2-1.3 2.7-2-1.1-2.2-2.2-3.4-16.6-.2-1.9-.9-3-1.8-3-1.2 0-1.5 1.7-1.4 9.7 0 7-.3 9.8-1.2 9.8-1.7 0-2.4-3.4-2.4-12.2 0-7.9-1.2-10.6-3.5-7.5-1.1 1.5-1.3 12.4-.3 18.2.2 1.1-.2 2-.9 1.9-.7-.1-5.2-.2-9.9-.3l-8.6-.1.6-3.4c.4-2.1.2-3.7-.5-4.1-1.5-1-3 .7-3.3 4.1-.3 2.9-.3 2.9-8 3.2-6.9.3-7.6.1-7.6-1.6 0-1 .3-2.2.8-2.6.6-.6 1.1-15.3 1.1-32.9V773h9.4l-.7 14.2c-.6 11.5-.4 14.7.7 16.2 2.3 3.1 3.5 1.1 3.5-6.1.1-9 1.1-22.4 1.8-23.4.3-.5 1.6-.9 2.9-.9h2.4l.3 15.7c.3 13.3.5 15.8 1.8 15.8 1.2 0 1.5-1.5 1.7-6.5.3-9.4 1.4-23.4 2-24.3 1.2-2 2.8.2 2.5 3.6-.3 3.6 2.3 10.7 3.9 10.7.5 0 .9-3 .9-6.6 0-6.8 1.3-7.9 2.4-1.9.8 4.2 1.9 5 4 2.9 1.2-1.2 1.5-2.5 1-5.1-.5-2.5-.3-3.8.7-4.4 2.6-1.6 3.3-.3 3.4 6.2zm43.4-5.2c.7 1.2.6 6.7-.4 17.1-1.8 18.4-1.5 22 2 20.7 1.2-.5 1.5-2.8 1.5-13.4 0-13.5.7-20.3 2.1-20.3.4 0 .9 2.1 1.1 4.7.2 3.9.6 4.8 2.2 4.8s1.9-.9 2.1-6.8c.1-3.7.5-7.1.9-7.4.4-.4 1.6.3 2.7 1.4 2 2 2.1 3.2 2.1 18.7 0 12.6.3 16.8 1.4 17.7.7.6 1.8.8 2.4.4 1.3-.8 1.3-5.2 0-6-.6-.3-.8-2.3-.5-4.3.7-4.9 1.4-15.2 1.5-22.7.1-4.7.3-5.5 1-3.7.5 1.2 1 9.9 1.1 19.2.2 17.5.7 19.6 3.9 14.7.8-1.2 1.8-2.9 2.2-3.7.4-.8.7.3.7 2.7.1 2.3.4 4.9.7 5.8.6 1.4-.4 1.5-8.7 1.3-7.5-.2-9.4-.6-9.5-1.8-.1-.8-.2-5.7-.2-10.8-.2-8.3-.4-9.2-2.1-9.2-2.1 0-3.3 2.2-2.5 4.3.3.8-.2 2-1.1 2.7-1.9 1.6-1.9 6 0 8.6 3.8 5.1.1 6.8-13.5 6.2-7.9-.3-9.9-1.8-6.2-4.7 1.8-1.3 2.1-2.3 1.6-5.3-.8-4.9-2.3-6-5.4-4.5-2.2 1.1-2.5 2-2.8 7.5-.4 8.8-2.2 6.8-2.2-2.5 0-6.3.4-8.1 2-9.8 2-2.1 2-2.4.4-10-1.8-8.6-.9-12.9 2.4-12.3 1.5.3 1.7 1.4 1.4 8.4-.2 5.9.2 8.5 1.3 9.9 1.3 1.7 1.6 1.8 2.5.5.5-.8.7-2.3.4-3.4-1-3.1-.5-12.7.7-14.2 2.1-2.5 2.7-.4 2.5 8.1-.2 5.7.1 8.9 1 9.5 1.8 1.6 2.6-1.6 2.5-10.2-.2-6.4.1-7.8 1.6-8.7 2.3-1.3 2.1-1.4 3.2.8zM445 783c2.2 1.4 3 .2 3-4.5 0-2.4.4-4.6.9-4.9 1.4-.9 2 7.2 1.7 22.4-.3 17.4-.5 19-1.3 19-.5 0-.7-6.1-.5-13.6.4-14.1-.3-16.9-3.3-14.4-1.1.9-1.5 3.2-1.5 8.8 0 4.1-.3 7.2-.6 6.9-1.2-1.2-2.3-18.1-1.6-24.2l.6-6 .6 4.8c.3 2.7 1.2 5.2 2 5.7z"/><path d="M161.6 797.8c-1 1.6.6 10.1 2 11.3 1.9 1.6 2.6-.6 2.2-6.7-.2-3.6-.7-5-2-5.2-.9-.2-1.9.1-2.2.6zM229.5 779.5c-.4 4.1-.4 8.7 0 10.2.4 1.6 1 6.4 1.2 10.8.2 4.4.8 8.4 1.3 8.9 1.4 1.4 4.3-4.1 3.6-6.9-.4-1.4-.9-8.5-1.2-15.7-.6-14-.7-14.8-2.9-14.8-.9 0-1.5 2.2-2 7.5zM261.2 796.2c-2.6 2.6-1 11.8 2 11.8 1.7 0 1.9-.6 1.6-6.2-.3-6.2-1.4-7.8-3.6-5.6zM270.1 798.8c-1 1.9-.4 7 1.1 8.9 1.5 1.9 3.8.3 3.8-2.7 0-3.6-1.6-8-2.9-8-.6 0-1.5.8-2 1.8zM201.6 800.2c-.9 3.4-.7 6.3.4 9.4 1 2.5 1.2 2.6 2.7 1.2 1.2-1.3 1.4-2.8.9-7.2-.8-5.8-2.8-7.6-4-3.4zM486.3 792.7c.2 19 .7 22.3 3.2 20.3.9-.8 1.3-5.3 1.4-16.8.1-16.7-.6-21.5-3.2-22-1.4-.3-1.6 1.6-1.4 18.5zM329.7 777.2c-1.3 1-1.7 3.3-1.9 11-.3 9.5.6 12.9 3 11.4 1.4-.8 2.7-21.5 1.5-22.7-.6-.6-1.6-.4-2.6.3zM378.3 787.7c-1.6.6-1.8 13.9-.2 14.8 1.6 1.1 1.9.3 2.4-7.3.4-7.1.1-8.3-2.2-7.5zM354.4 793.5c-.4.9-.3 5.3.2 9.8.7 6.6 1.2 8.2 2.7 8.5 1.6.3 1.7-.5 1.5-9.5-.3-8.4-.5-9.8-2.1-10.1-.9-.2-2 .4-2.3 1.3zM328.5 807.2c.4 2.4 1.1 4.7 1.5 5.2 1.4 1.4 3-.4 3-3.4 0-4.2-1-6-3.2-6-1.8 0-1.9.4-1.3 4.2zM346.7 809.6c-1.4 1.4-.7 3.5 1.1 3.2.9-.2 1.7-1 1.7-1.7 0-1.6-1.8-2.5-2.8-1.5zM80.4 830.3c-1.9 1.1-1.8 5.1.1 6.7 1.2 1 2.1 1 4.1.1 3.2-1.4 11.1-1.4 12 0 .4.7.9 4.2 1.2 7.9.3 5.3 0 7.6-1.7 11.5-2.1 4.7-2.1 4.8-6.1 4.2-6.3-.8-9.6-4.8-5-6 1.1-.3 2-1.3 2-2.2 0-1.5-.7-1.7-4.6-1.1-5.8.8-6.4 1.2-6.4 4.4.1 6.2 6.7 9.8 16.1 8.8 11-1.1 12.6-3.2 13.5-18 .4-5.8 1.1-10.7 1.5-10.7.5-.1 1.8-.1 2.9-.1 3.5 0 4 .2 4 1.7 0 2 4.6 2 5.4-.1 1-2.5.7-5.2-.6-6.1-1.7-1.1-36.6-2-38.4-1zM186 830.1c-8.9 1.8-11.9 6.5-8 12.6 2 3.3 2 3.3 10 3.3 7.3 0 8.3.3 10.5 2.5 1.9 1.8 2.5 3.5 2.5 6.8 0 5.7-1.8 7.2-8.4 7.2-5.9 0-10.4-2.7-13.6-8.3-3-5-4.4-3.6-4.7 4.5l-.3 7.1h10.8c13.4.1 17.2-.9 22.2-5.7 3.5-3.4 4-4.3 4-8.4 0-5.4-2.7-8.7-7.1-8.7-1.4 0-4.6-.7-6.9-1.5-2.3-.8-5.8-1.5-7.7-1.5-3.7 0-5.3-2.1-3.3-4.5 1.8-2.2 11.4-1.8 14.4.6 3.2 2.5 4.3 2.4 5-.7.9-3.4-.6-4.9-4.7-5-1.8-.1-4.8-.4-6.7-.7-1.9-.3-5.5-.2-8 .4zM122.5 830.8c-1.1 1.2-.4 3 1.5 3.5 1.8.5 2 1.4 2 10.4.1 14.4 2.9 19.9 10.9 21 2.9.4 4.9 0 7.9-1.7l4-2.3 2.8 2.2c1.4 1.1 3.3 2.1 4.1 2.1 2 0 8.7-3.6 10.2-5.4 2-2.4-1-3.1-4.9-1.1-7 3.6-10.6-2.1-9.7-15.4.5-7.3 1-8.8 2.9-10.3 3.4-2.5 1.2-4-5.6-3.6-5.7.3-7.4 1.6-4 3.2 1.7.8 1.9 2 1.8 11.9l-.2 11.1-3.1 2.8c-3.4 3-3.9 3.2-6 1.9-3-1.9-5.8-25.9-3.1-27.6.6-.3 1-1.3 1-2.1 0-1.1-1.4-1.4-6-1.3-3.2.1-6.2.4-6.5.7zM229.8 830.7c-12.6.3-13.9.5-14.8 2.4-1.2 2.1-.4 5.9 1.4 7.1 1.2.8 3.6-.9 3.6-2.7 0-1.6 2.3-2.5 6.6-2.5h3.4v13.5c0 13.5 0 13.6-2.5 14.5-2.3.9-3.5 3-1.7 3 .4 0 3.6.3 7.2.5 7.7.5 10.1-.4 7.9-3.1-1-1.2-1.5-5.2-1.8-13.6-.3-10.3-.1-12.2 1.4-13.9 1-1 2.8-1.9 4.1-1.9 1.7 0 2.4.8 3.1 3.7 1.2 5.2 3.6 4.9 4.7-.5.6-2.7.5-4.7 0-5.2-1.4-1.4-6.7-1.7-22.6-1.3zM264.2 831.9c-1 .6-.9 1.1.4 2.1 2.6 2.3 3.3 5.2 3.5 17 .2 9.6 0 11.5-1.4 12.5-3.6 2.6-1.9 3.5 5.7 3.1 4.1-.2 7.9-.7 8.5-1 .6-.4.3-1.9-.9-3.9-1.7-2.9-2-5.1-1.8-16.6l.2-13.2-6.5-.4c-3.5-.3-7-.1-7.7.4zM301 833.2c-10 5.2-11.9 13.8-5.1 23.9 4 5.8 8.5 8.2 16.6 8.6 7.7.4 16.6-1.4 17.3-3.6.4-1.1-.4-1.2-4.4-.5-2.7.5-7.1.8-9.8.7-4.3-.2-5.5-.7-9-4.3-3.9-3.8-4.1-4.3-4.1-10 .1-4.8.5-6.4 2.4-8.4 5-5.3 13.1-5.5 13.1-.3 0 1.3.6 3.2 1.4 4.2 2.1 3 4.1.5 4.4-5.4.3-6.3-1-7.1-11-7.1-5.7 0-8.4.5-11.8 2.2zM338 834c0 1.2.9 2.4 2.1 2.9 2 .7 2.2 1.6 2.6 12 .4 10.7.4 11.2-1.9 13.1-3.8 3.1-1.2 4 13.7 4.7l13.7.6 3.9-4.4c2.1-2.4 3.9-4.7 3.9-5.2 0-1.6-3.5-.6-5.9 1.7-2.3 2.2-3.6 2.5-10.4 2.7-4.3.1-8.3-.3-8.8-.8-1.7-1.7-.7-10.4 1.3-11.7 1.4-.9 2.1-.6 3.4 1.3 1.5 2 1.9 2.2 2.8.9.6-.8.9-3.8.8-6.7-.4-4.7-.6-5.2-2.6-4.9-1.5.2-2.1 1-2.1 2.8 0 1.5-.6 2.6-1.7 2.8-1.5.3-1.8-.4-1.8-3.7 0-4.7.3-4.9 6.8-5.7 4.4-.4 5.2-.2 6.6 1.7 1.3 1.9 1.7 2 3.1.9.9-.8 1.5-2.5 1.3-3.9l-.3-2.6-15.2-.3c-14.9-.2-15.3-.2-15.3 1.8zM408 859.5c-1 1.2-.9 2 .4 4 1.8 2.8 4.3 3.2 7.1 1.1 1.7-1.2 1.8-1.8.7-4-1.3-3-6.1-3.6-8.2-1.1z"/></svg>