<svg version="1" xmlns="http://www.w3.org/2000/svg" width="666.667" height="1170.667" viewBox="0 0 500 878"><path d="M0 17v16.9l3.5.7c5.5 1 19.4-1.1 25.7-4 4.5-2 6.1-3.3 7.2-6 2-4.8 5.5-6.9 10-6 3.9.7 6.8 3.7 5.9 6-.7 2-2.3 1.7-5-.8l-2.4-2.2-2.6 2.7c-2.4 2.4-2.7 3.5-3.1 11.7-.5 10.5.5 15.4 5.4 25.4 7.5 15.3 19.6 26 34.9 30.7 5.1 1.6 6.1 1.6 7.5.4 6.1-5.5 18-3.1 15.5 3.3-.5 1.3-1 1.1-2.9-1.3-2.1-2.6-2.6-2.8-4.9-1.8-6.6 3-5.1 17.3 4 38.1 2.9 6.8 5.1 12.8 4.8 13.3-.4.5-1.6.9-2.9.9-2.6 0-9.9 4.6-13.5 8.4-3.2 3.4-4.1 3.3-7.7-.7-3.5-3.6-4.6-6.2-7-16-1.4-6-1.4-7-.1-8.5 1.9-2.2 5.2-9 6.1-12.5.3-1.5 1.1-2.7 1.6-2.7 1.7 0 1.1 7.8-.9 11.2-1.1 1.8-2.3 5-2.6 7-.6 3.4-.5 3.8 1.3 3.8 1.4 0 2.6-1.4 4.1-4.5 2.4-5.1 3.6-5.2 4.4-.2.3 1.9 1.4 5.4 2.5 7.8 1 2.4 2.2 5.2 2.5 6.1 1 2.8 2.3 2.1 3.6-2 1.2-3.6 1.1-4.2-1.1-7.8-6-9.4-10.6-25.4-9.1-31.2.4-1.6-.9-2.3-9.8-5.1C58.3 92.8 52.4 87.8 43.3 71 38.9 62.7 33 48.1 33 45.2c0-1-.6-2.7-1.4-3.8-1.4-1.9-1.5-1.8-6 .4-5.8 2.8-19.8 3.2-23.4.6C.1 41 0 41 0 42.9c0 3.8 14.4 6.2 22.5 3.7 6.3-2 6.6-1.7 11 10.7 9.5 26.6 18 36 39.8 44.2 2.6 1 5 2.2 5.3 2.6.7 1.2-9.4 19.9-10.8 19.9-.4 0-1.4-1.5-2.2-3.3-.7-1.7-3.7-5.4-6.5-8.2-4.3-4.1-5.4-4.8-6.9-3.9-1 .6-1.8 2.6-2 4.8-.4 4.2-1.5 4.6-3.7 1.3-2.1-3.2-6-5-7.4-3.4-3 3.7-3.2 6.9-.8 14.1 8.2 24.1 8.7 29.3 1.5 14.3-4.8-9.8-7.2-12.3-12.2-12.9-2.5-.3-3 .1-3.8 2.7-.4 1.6-.6 3.6-.3 4.3.2.7-.4 2.1-1.5 3.2s-2 2.7-2 3.5c0 .8 2 5.4 4.5 10.2 2.5 4.7 4.5 8.9 4.5 9.3 0 1.3 12.4 23.6 15.7 28.2 1.9 2.6 4.2 4.9 5.1 5.3 2.3.7 9.4 9.1 9.1 10.7-.3 1.4.8 7.7 2.1 12.3.5 1.6 1.1 11 1.4 20.9.4 9.8.9 18.2 1.1 18.6.7 1.1-1.5 2.6-6 4-11.2 3.5-31.5 16.4-36.1 22.9-3 4.2-7.4 16.6-7.4 20.8 0 6.7 1.4 8.6 5.6 7.8 2.6-.4 3.4-.3 3.4.9 0 5.3-8.2 5.2-11.3-.2-1.6-2.7-1.9-5.1-1.8-12.9.1-7.9-.3-11-2.5-17.7-1.4-4.5-3.7-9.2-5-10.6L0 268.5V808h12.3c8.4 0 12.7-.4 13.5-1.2 1-1 1.7-1 3.3 0 1.7 1.1 2.4 1.1 3.7-.1 1.2-1.1 3.7-1.5 8.4-1.4 7.9.2 9.6 2.1 2.3 2.5-2.7.2-5.7.9-6.5 1.7-1.1 1-5 1.4-13.5 1.6-6.6.1-14.6.4-17.7.7l-5.8.5v8.7h500V522.5c0-172.1-.4-298.5-.9-298.5-1.3 0-7.7 7.4-9.6 11-2.5 4.9-5.5 18-5.5 24.4 0 3.7 1 9.3 2.6 14.5 2.9 9.4 3.5 17.6 1.6 23.2-1 2.7-2.4 4.3-6.1 6.3-2.7 1.4-5.9 2.6-7.2 2.6-2.3-.1-2.3-.1-.4-1.2 11.5-6.3 13.8-18.7 5.6-29.8-2.9-4-4.5-5.2-11.6-9.5-11.2-6.7-20.1-9.4-33.1-10.2-8.6-.5-11.5-.2-18.5 1.7-10.9 2.9-15.4 5.3-22.1 11.6-2.1 2-3.1 1.4-5.3-3.3-3.9-8.3-18.3-28.1-22.6-31.1-3.4-2.3-13.9-19.9-13.9-23.2 0-.4 1.2-1.1 2.8-1.4 3.1-.8 10.9-3.7 19.7-7.4 5.8-2.4 14.2-8.4 17.7-12.6 1-1.2 2.5-4.2 3.4-6.9 1-3.2 2.9-5.8 5.5-8 4.3-3.4 7.9-9.3 7.9-12.7 0-3.1-2.4-1.9-2.8 1.3-.3 2-1.7 3.6-5.7 6.2-5.4 3.4-8.5 7.6-8.5 11.5 0 3.2-8.1 10.5-16.2 14.6-4 2-8.6 4.6-10.3 5.9-5.1 3.8-9.2 5.5-13.2 5.5-3.7 0-10.3-3.1-10.3-4.9 0-.8 3.8-2.7 11.5-5.5 2.6-1 6.8-3.4 20.9-12.1 6-3.6 18.7-15.8 23.1-22 5.4-7.7 12.8-21.6 15-27.9 2.2-6.9 4.5-19.2 4.5-24.8 0-6.1-2-14.8-3.8-17.1-3.3-3.8-9.9-.7-7.3 3.5.7 1.1 1 2.2.8 2.4-.7.7-2.4-1.9-3-4.7-1.5-6.2 6.9-7.6 13.2-2.4 1.6 1.4 3.4 2.5 4 2.5 2.6 0 18.9-6.3 24.7-9.5 10.1-5.7 19.8-18 26.6-33.8 4.7-10.7 5-16.6 1.4-20.2-2.9-2.9-5.3-2.4-6.3 1.3l-.6 2.5-1.9-2.2c-2.5-3.2-2.3-5.7.7-7.7 3.2-2.1 7.8-.6 12.9 4.2 3.5 3.3 4.2 3.6 8.5 3.2 2.5-.3 6.3-1.6 8.3-2.9l3.7-2.4.1-13.3V0H0v17zm274.5-7.5c0 1.6-.8 2.1-3.6 2.3-3.4.3-3.7.6-7.7 9.4-2.3 5-4.1 9.3-3.9 9.4.2.2 3.1.4 6.5.5 3.8.1 6.6.7 7.3 1.6.7.7 1 1.5.8 1.7-.2.3-13.4.7-29.3 1-28.3.6-31.6.3-31.6-2.5 0-.5.8-.9 1.8-.9.9 0 3.7-2.3 6.1-5.1 4.1-4.7 4.3-5.2 3-7.6-2-3.7-6.5-7.1-10.5-7.9-1.9-.3-3.3-1.1-3.1-1.8.4-1.2 22-2.1 49.2-2.1 14.3 0 15 .1 15 2zm-62.2 26.7c3.4 2.3 7.3 5.2 8.7 6.4 1.4 1.3 7.3 4.8 13.2 7.8L245 56l14.2-7.7c21.2-11.4 27.8-14.6 28.5-13.9.4.4.1 2.1-.5 3.9-1.6 4.4-1.5 5.7.4 5.7 1.2 0 1.5.8 1.2 3.2-.5 5.3 2.5 4.3 3.8-1.2.9-4 1.5-4.7 5.2-6 4.7-1.6 5.9-1.1 4.2 2-.9 1.7-.9 2.5 0 3.4.9.8 1.7.4 3.6-1.7 1.3-1.5 2.4-3.5 2.4-4.3 0-.8 1-1.4 2.4-1.4 2.3 0 2.4.3 1.9 3.5-.4 2.8-.2 3.5 1.1 3.5.9 0 1.6-.5 1.6-1 0-.6 1.1-2.2 2.5-3.5 1.9-2 3.5-2.5 7.1-2.5 4.6 0 4.7 0 2.9 2-.9 1-1.5 2.6-1.2 3.5.8 1.9 2.3 1.9 3 .1 1.5-3.8 11.7-5.5 11.7-2 0 .8-.4 1.4-.9 1.4-1.2 0-2.3 2.9-1.5 4.1.3.5 2.1-.4 4-2.1 1.9-1.6 4.5-3 5.9-3 5.4 0 7.2 2.5 3.5 4.8-1.1.7-2 2.3-2 3.7 0 2.7 1.7 3.4 2.6 1 .5-1.2 5.7-4.5 7.1-4.5.2 0 2.6 2.1 5.3 4.6 5.2 4.9 6.3 7.4 3.2 7.4-2.1 0-4.2 1.8-4.2 3.7 0 1.6 3.2 1.7 4.7.2.6-.6 2.3-.9 3.9-.7 2.3.2 3 .9 3.5 3.5.6 3.2.5 3.3-2.5 3.3-1.8 0-5 1.3-7.6 3l-4.5 3-1.7-2.3c-2.1-2.6-2.3-4.8-.6-6.5.9-.9.9-1.5 0-2.4-.9-.9-1.7-.6-3.7 1.2-2.2 2-2.5 2.1-3.1.6-.4-.9-.4-3.5 0-5.6.4-2.3.2-4-.3-4-1 0-4.7 4.3-5.4 6.3-.2.8-1 .7-2.8-.4-2-1.4-2.4-2.5-2.4-6.4 0-5.5-1.8-7-3.7-3.1-.9 2-.9 2.9 0 3.8 1.3 1.3 1.6 5.8.5 5.8-.5-.1-2.4-.9-4.3-1.8-3.2-1.6-3.5-2.1-3.8-6.7-.4-5.6-.7-6.4-2.4-4.7-.6.6-1.1 3.1-.9 5.6.2 4.2.1 4.3-2.5 3.8-5.9-1.1-25.8 6.1-30.8 11.1-1.7 1.7-2.1 1.8-3 .5-1.8-2.4-7.7-5.1-8.8-4-2 2 1 5.2 4.7 5.2 1.9 0 3.5.2 3.5.5s-.9 2.4-2 4.6c-1.2 2.2-1.8 4.4-1.5 4.9.3.5 3 2.3 6.1 4.1 8.3 4.7 6.4 5.8-10.9 6.1-7.5.2-13.7.5-13.7.8 0 1.5 7.3 3.1 11.4 2.5 6.7-1 7.6 3.3 1.6 7.5-2.9 2.1-3.1 2.1-9 .4-3.3-.9-6.5-2.3-7.1-3-1.5-1.9-3.5-1.8-4.3.2-.8 2.2 1.1 4.4 5.2 6.1 2.8 1.1 3.2 1.7 2.2 2.8-2.1 2.5 1.1 6.1 6.2 7 8.6 1.7 14.4-.1 21.3-6.5 5.5-5.3 17-11.5 23.1-12.5 4.3-.8 12.2-4.9 14.1-7.4 1.1-1.4 1.2-1.4 1.3.1 0 2.7 2.5 2.1 5.4-1.3 1.4-1.7 2.6-2.5 2.6-1.8s-.7 2.1-1.7 3.1c-.9 1-1.1 1.8-.6 1.8.6 0 1.6-.7 2.3-1.5.7-.8 1.6-1.2 2.1-.9 1.9 1.1.7 2.6-3.8 4.6-2.7 1.2-7.1 3.8-10 6-2.9 2.1-6 3.8-6.9 3.8-1.9 0-5.4 2.7-5.4 4.2 0 1.7 3 .7 9.7-3.1 3.7-2.1 7.1-3.7 7.6-3.4 1.2.7.8 2.3-.5 2.3-.7 0-4.6 1.7-8.7 3.8-7.1 3.5-10 6.2-6.7 6.2 3.5 0 2.3 2-1.8 3.1-2.5.6-6 2.2-7.7 3.5-4 2.9-5.3 3-4.6.4.8-3.2-4.2-2.2-7.3 1.5-5.5 6.3-7.3 10-4.5 8.9 1.9-.8 1.9 1.3 0 4.6l-1.4 2.5-.1-3c-.1-2.8-.1-2.9-1.5-1.1-1 1.3-1.3 3.5-.9 7.6.4 5.1.2 6-2.5 9.4-3.2 4-3.2 5.6 0 5.6 2.7 0 2.4.5-2.1 4.7-2.6 2.2-3.7 4-3.1 4.6 1.4 1.4 5.1-.2 8.3-3.6 1.5-1.7 2.8-2.6 2.8-2 0 .7-1.9 2.7-4.2 4.5-2.3 1.8-6.2 5.4-8.7 7.9-2.5 2.5-6.1 5.6-7.9 6.9-3.6 2.4-3.1 4.7.7 3.5 3.2-1 17.5-13.4 18.5-16.1.6-1.3 1.6-2.4 2.3-2.4 1.9 0 .4 2.5-5.1 8.7-2.9 3.2-4.4 5.7-4 6.6.4 1.1-.9 2.4-4 4.2-4.9 2.9-5.8 4.5-2.6 4.5 2.7 0 2.5 1.4-.5 3.4-2.7 1.8-3.5 4.2-1 3.3 2.7-1.1 2.6 1.3-.1 6.4l-2.8 5.1 2.1 1.6c1.8 1.5 2 2.6 1.8 8-.3 7.1-2 10.2-3.1 5.8-.3-1.5-.1-3.9.5-5.2.6-1.4 1.1-2.9 1.1-3.4 0-2-2.9-.9-5.4 2.1-2.9 3.4-2.8 6.4.3 10.8 3.3 4.7 5 5 8.2 1.2 1.6-1.9 3.2-3.2 3.5-2.8 1.2 1.1-4 7.6-7.3 9.2-2.7 1.3-3.1 1.9-2.4 3.8.5 1.2 1.2 4.5 1.6 7.3.9 6.8-1 10.6-6.4 12.7-6.2 2.5-8.6 7.3-5.9 11.6.6 1 .8 2.6.4 3.6-1.2 3.3-2.4.2-2.8-7.8l-.5-7.8 4-2.7c7.7-5.2 9-7.1 8.2-12.2-.4-2.5-.7-6.2-.6-8.2.1-2.6-.7-5-2.5-7.8-3.3-5-2.9-10.8 1-14.9 3-3.2 3.2-4.3 1-7.6-2.4-3.7-8.3-6.7-14.3-7.4-8-.9-10.4-5.8-2.6-5.3 4.9.4 6.4-2.6 3-5.8-3.3-3.1-3.1-4 .9-4 4.7 0 6.6-.9 6.6-3.1 0-1.5-.7-1.9-3.9-1.9-2.3 0-4.4-.6-5.1-1.5-.7-.9-2.3-1.5-3.4-1.3-2.1.3-2.4 1.8-1.2 4.9.5 1.1-.5 2.9-2.8 5.3l-3.5 3.7-2-2c-3.7-3.7-11.1-1.9-11.1 2.7 0 3.3 1.6 4.4 5.6 4 3.3-.2 3.9 0 4.2 1.8.2 1.6-.5 2.3-3.6 3.2-2.2.7-5.1 1.2-6.4 1.2-3.2 0-9.8 7-9.8 10.4 0 7.2 8.7 4.5 15.5-4.9 1.7-2.3 3.1-2.9 8-3.6 7.4-1 10.3.5 15.2 7.4 3.1 4.4 3.3 5.1 2.7 10.2-.6 4.6-.9 5.3-2.1 4.3-1-.8-1.3-2.2-.9-4.4 1.3-6.6-4.3-12.5-12.3-12.8-2.5-.1-5.3-.4-6.1-.7-1-.3-1.5.3-1.5 1.9 0 1.2-.5 2.6-1.1 3-3 1.9-4.6 7.6-4.1 13.9.5 6.2.4 6.4-1.4 4.7-2.1-1.9-2.5-5.5-.7-8.3 1.2-2 .5-5.1-1.2-5.1-.6 0-1.3 1.4-1.7 3-.5 2.8-.8 3-3.8 2.4-2.8-.5-3.3-.2-3.9 1.8-.7 2.2-.7 2.2-1.6.3-.5-1.1-.9-4.8-.9-8.3-.1-6.7.9-9.2 6.2-14.9 2.9-3.1 2.9-5.3.1-5.3-.8 0-2.8 1.5-4.5 3.2-3.4 3.7-3.8 3-.9-1.7 1.8-2.9 1.8-3.4.5-4.5-.8-.7-2.2-1-3-.6-.8.3-1.5.1-1.5-.4 0-1.7-3.2-4-5.5-4-2.9 0-4.1-1.6-2.6-3.4 1.4-1.7.4-2.6-2.8-2.6-1.4 0-3.9-1-5.6-2.1-2.9-2-2.9-2.1-.5-1.6 9.4 2 11 2.8 16.1 8.2 4.1 4.4 5.7 5.4 7.3 4.9 4.6-1.4 3.9-4.2-1.8-6.9-2.1-1-3.5-2.6-4.1-4.8-.8-2.6-1.5-3.2-3.5-3-4 .3-10.4-1.7-13.6-4.2-4-3.2-2.1-4.5 2.6-1.7 4 2.2 10.4 3 11.5 1.3.6-1.1-1.2-2.4-3.5-2.7-3.2-.3-12-3.7-13.1-5-1-1.2-.8-1.3 1.5-.4 1.5.5 5.1 1.1 7.9 1.2 3.5.1 6.3.9 8.7 2.5 1.9 1.3 4.4 2.4 5.5 2.4 1.1.1.5.4-1.4.8-1.9.3-3.6 1.2-3.9 1.9-.5 1.5 5.6 4.2 9.5 4.2 2.1 0 2.4.3 1.5 1.2-.7.7-1.2 1.8-1.2 2.5 0 2.2 3.7 1.5 7-1.4 2.8-2.3 3-2.8 1.6-3.8-1.4-1.1-1.4-1.4.5-3.1 1.9-1.7 1.9-1.9.3-2.4-1-.4-3.5 0-5.7.7-2.2.8-4.5 1.2-5.1 1-.6-.3 1.1-1 3.7-1.7 3.5-.9 5.1-1.9 5.7-3.5.5-1.3 1.4-2.6 1.9-3 2-1.2 1.2-6.2-1.5-8.8-2-2-4-2.7-8.9-3.2-5.1-.6-7.1-1.3-9.7-3.6-3.5-3.2-6.3-4.3-9.9-3.7-3.5.5-3.4 2.6.3 3.7 2.3.6 2.6.9 1.2 1-1.2.1-2.7.8-3.4 1.6-1.1 1.3-1.5 1.3-4 0-2.9-1.5-6-5.1-6-6.9 0-.5.9-.1 1.9.8 3.3 3 3 .4-1-8.4-2.1-4.7-3.8-9.4-3.8-10.5-.1-2.4-6.5-11.2-12.2-16.9-3.5-3.5-3.9-3.7-3.9-1.8 0 3.2-1.3 2.7-4.9-1.8-1.7-2.2-2.5-3.7-1.6-3.4.9.4 1.5.1 1.5-.9 0-.8-.8-1.8-1.7-2.2-1.7-.6-1.7-.7 0-1.7 1.5-.8 2.4-.5 4.5 1.4 1.5 1.4 5.9 3.9 9.7 5.8 14.9 7 17.1 8.2 20.5 11.6l3.6 3.4 9.5-3c9.8-3 14.9-6 14.9-8.6 0-1.6-2.6-1.9-3.5-.4-1 1.6-7.7 4.8-10.5 5-5.4.5-7.1 0-8.2-2.5-1.3-2.8-.5-4.3 1.4-2.8.7.6 2.7 1.4 4.3 1.7 4.4.9 13.9-4.8 14.3-8.7.4-3.3-1.2-3.5-3.3-.3-2.2 3.3-7.1 5.5-10.4 4.7-3.4-1-3.8-3.7-1-6.7l2.2-2.4h-9.9c-14.8 0-15.6-1.6-4.7-8.6 4.6-2.9 5.3-3.7 4.7-5.8-.4-1.8.3-3.3 3-6.2 3.9-4.2 4.2-4.9 2.6-5.9-.6-.4-2.9.9-5 2.9-4.7 4.2-6.9 4.5-10.6 1.2l-2.8-2.3 3.2-4.1c1.8-2.2 3.2-4.5 3.2-5.1 0-2.2-2.9-1-5.1 2.1-1.2 1.8-2.4 3.5-2.5 3.6-.1.2-1.4-.4-2.8-1.5-2.1-1.6-2.4-2.4-1.9-5.9.3-2.7.1-4.4-.7-4.9-1.6-1-3 1.2-3 4.7V59h-18v-2.8c0-2.7-1.5-5.2-3.2-5.2-.4 0-.8 2-.8 4.4 0 4-.3 4.5-2.9 5.4-3.4 1.2-4.1.8-4.1-2.4 0-2.9-3.3-4.9-4.9-3-.8.9-.7 1.8.4 3.2 2.2 2.9 1.8 5-1.2 7.4l-2.8 2.2-1.2-3c-1.6-4-5.9-7.2-9.7-7.2h-3.1l3.2-3.2c2.5-2.5 3.5-2.9 4.6-2 .7.6 2.8 1.3 4.7 1.4 4.4.4 5.2-1.9 1.1-3.5-3.7-1.3-3.5-2.7.4-4.6 2.2-1 3.3-1.1 4.7-.2 1 .6 2.8 1.1 4 1.1 1.2 0 3 .8 4 1.7 1.2 1.1 2.2 1.3 2.9.6 1.3-1.3-.6-6.3-2.5-6.3-2.6 0-2.8-2-.4-2.9 5.9-2.2 6.5-2.2 7.1-.2.3 1.5 1 1.8 2.7 1.4 1.6-.4 2.8.2 4.5 2.3 2.1 2.6 2.4 2.7 3.1 1.1.3-1 .2-2.9-.5-4.3-1.5-3.5-1.6-3.4 3.3-3.4 4.2 0 4.6.2 7.7 5 1.8 2.7 3.6 5 4.1 5 1.5 0 1.9-2.6.8-5.4-1.5-4.2-.5-4.7 5-2.4 3.4 1.4 4.7 2.4 4.1 3.2-1.2 1.6-.1 8.8 1.3 8.3.6-.2 1.2-1.4 1.4-2.8.6-4.8 1.1-5.3 3.2-3.4 3 2.7 3.1 1.6.4-3.9-2.5-5.2-3.1-8.6-1.4-8.6.6 0 3.8 1.9 7.3 4.2zM130.5 62c.3.6 1.7.7 2.9.4 1.7-.4 3.3.3 6 2.6 2 1.8 3.6 3.6 3.6 4 0 .5-1.4 1.8-3.1 3l-3 2.2-2.4-2.2c-1.5-1.4-4.1-2.4-6.9-2.7-2.5-.3-4.6-1-4.6-1.5s1-2.2 2.2-3.8c2.2-3.1 4.2-3.8 5.3-2zm249.6 12.7c1.3 3.6.5 5.3-2.6 5.3-1.4 0-4.3.9-6.5 2-5.1 2.6-5.7 2.5-6.5-.7-.8-3.5 1.9-6.2 8.2-7.9 6.5-1.7 6.2-1.8 7.4 1.3zm-248.8.6c3 2 3.2 2.5 1.5 6.2-1.2 2.6-2.3 3.2-3.2 1.6-.9-1.5-10.4-2.3-12.7-1-1.2.6-2 .7-1.7.2 1.6-3.5 2.7-6 3.1-7.3.7-2.2 9.5-2 13 .3zm252.2 13.2c0 3.9 0 4-5 5.1-2.7.6-6 1.4-7.1 1.8-1.8.5-2.4.1-3.3-2.5-2-5.9 1.5-9 9.9-8.6l5.5.2v4zm-255.5-1c1.4.9 1.2 5.1-.2 6.2-.7.6-3.5 1.3-6.1 1.6-2.6.2-5.6 1.2-6.6 2.1-2.4 2.2-3.1 2-3.1-.8 0-5 1.3-8.8 3.4-9.7 2.1-.9 10.8-.5 12.6.6zm32.9 7.5c.5 0 1.3.4 1.6 1 1.1 1.7-3.2 1.1-5.5-.8-1.5-1.2-2-2.3-1.5-3.2.6-1 1.2-.8 2.6.8.9 1.2 2.2 2.2 2.8 2.2zm222.9 6.8l.3 5.2H380c-2.3 0-5 .5-6.1 1-2.2 1.3-3 0-3.3-5.2-.1-3.1.2-3.4 4.9-5 7.3-2.4 8-2.1 8.3 4zm-257.1 2.4l-.2 5.3-3.9.6c-2.5.4-4.8 1.6-6.2 3.3-2.6 3-2.9 2.7-3.9-3.2-.5-3-.3-4.8.7-5.9 2.3-2.8 7.2-5.3 10.5-5.3h3.3l-.3 5.2zm42.8 1.4c1.7 1.2 4 2.5 5.3 2.8 2.3.8 7.1 9.1 5.9 10.3-.4.3-1.8-.8-3.2-2.5-2.7-3.2-8.5-5.5-11.1-4.5-.8.3-1.4-.1-1.4-1 0-1 .8-1.3 2.5-.9 1.4.2 2.5 0 2.5-.5 0-2-6.8-6.3-10-6.3-1.9 0-2.6-1.1-1.4-2.2.7-.8 6.9 2 10.9 4.8zm114.2 2.8c-.6 1.4-7.5 3.5-9.5 2.8-2.4-.8-1.3-3.2 1.6-3.2 1.5 0 3.8-.6 5.2-1.3 2.6-1.3 3.6-.7 2.7 1.7zm8.3.1c-2.2 2.3-5 3.4-5 1.8 0-1.5 3.5-4.3 5.3-4.3 2 0 2 .1-.3 2.5zm90.1 2.5c1.9 1.1 2.6 5.4 1.1 7.6-.4.7-3.4 1.3-6.7 1.5-5.8.4-6 .3-6.3-2.2-.2-1.9.5-3.3 2.8-5.3 3.4-2.8 5.9-3.2 9.1-1.6zm-54.6 2c.3.5.1 1-.4 1-.6 0-1.1-.5-1.1-1 0-.6.2-1 .4-1 .3 0 .8.4 1.1 1zm-268 6.7c5.9 12.5 9.8 23 10 27.2.2 2.8.9 4.7 1.9 5.3 2.2 1.2 2 2.8-.2 2.8-1 0-2.9 1.1-4.2 2.5-1.3 1.4-3.2 2.5-4.2 2.5-1.9 0-2.4 1.5-.8 2.5 1.7 1 1.1 2.5-1 2.5-1 0-2.4.9-3 2-1.4 2.6-3.1 2.5-5.3-.1-2-2.2-3.5-2.1-5.1.4-.8 1.2-.6 2.1.7 3.5 1.5 1.7 1.6 2.2.3 4.6-1.3 2.7-1.4 2.7-2.1.7-.3-1.2-1-2.1-1.5-2.1-.4 0-1.1-1.1-1.4-2.5-.4-1.4-1.3-2.5-2.1-2.5-.9 0-1.2-.6-.9-1.5.4-1 0-1.5-1.4-1.5-2.4 0-3.6-1.4-5.1-6-.6-2-3.1-6.8-5.6-10.8-2.5-4-4.5-7.9-4.5-8.8 0-3.2 2.4.2 7.2 10.2 4.8 10 7.6 13 9.9 10.7 1-1-5.8-15.3-7.9-16.6-.7-.5-1-1.2-.7-1.6.2-.5-.1-1.4-.9-2-.8-.7-1.2-2-.9-3 .3-1.1-.1-2.9-.7-4.1-.9-1.8-.9-2.1.1-1.8.7.2 4 5.8 7.4 12.4 3.8 7.4 6.9 12 7.9 12.2 1.1.2 3.4-1.3 5.7-3.7l4-4.1-3.2-4c-1.8-2.2-3.4-4.8-3.5-5.8-.9-5.5-1.5-7.2-3.8-12.2-2.4-5.2-3.4-10-2-10 1.1 0 3.3 3.4 3.4 5.1 0 .9.9 2.3 2 3 1 .8 3.2 5 4.8 9.3 2.9 8.3 7.1 13.1 9.2 11 .8-.8.6-1.5-.5-2.4-.8-.7-1.5-2.8-1.5-4.6 0-1.9-.5-3.4-1.1-3.4-.7 0-.9-1-.7-2.5.3-1.4.1-2.8-.3-3.1-.5-.3-.9-2-.9-3.8 0-1.8-.3-3.6-.7-4-.4-.3-.8-1.2-.9-1.9-.2-.7-.6-2.2-1-3.5-.4-1.6-.2-2.2.9-2.2.8 0 2.7 2.5 4.2 5.7zm67.3-.5c.5 2.9.8 5.6.6 5.9-.2.4-1.9.9-3.9 1.2-1.9.3-4.8 1.5-6.3 2.6l-2.9 2 .3-5.4c.2-4.6.7-5.9 3.3-8.4 1.8-1.7 4.2-3.1 5.5-3.1 2 0 2.5.7 3.4 5.2zM173 117c.8.5 1.1 1 .5 1-.5 0-1.7-.5-2.5-1s-1-1-.5-1c.6 0 1.7.5 2.5 1zm5.1 2.3c.9.7 1.8 2.3 2.1 3.7.3 1.4.6 2.9.8 3.5.1.5.2 2 .1 3.2-.1 1.9-.4 2-3.1 1-2.2-.8-2.7-1.4-1.8-2.4 1.3-1.6.3-4.3-1.7-4.3-.8 0-1.5-.5-1.5-1 0-.6.9-1 2-1 2.3 0 2.6-1 .8-2.8-1.6-1.6.2-1.5 2.3.1zm137.4 2.7c-2.7 1.2-4.3 1.2-2.5 0 .8-.5 2.2-.9 3-.9 1 0 .8.3-.5.9zm-5.3 2.2c-1.7 1.7-1.5 2.8.6 2.8.9 0-.2 1.1-2.6 2.5s-4.8 2.3-5.2 2c-1.7-1.1.4-4.7 3.9-6.5 4.3-2.3 4.9-2.4 3.3-.8zm71 2.8c-.7 6.5-1.7 7.3-8 6.6-3.1-.4-6-1-6.4-1.4-.4-.4-.3-2.4.3-4.4 1-3.9 2.9-4.7 10.9-4.4 3.4.1 3.5.2 3.2 3.6zm-195.2-.2c0 .9 1.1 3.4 2.5 5.4 2.8 4.1 3 4.8 1.5 4.8-.6 0-1.3-.8-1.7-1.8-.3-.9-1.2-2.4-1.9-3.2-.7-.8-1.7-2.7-2.3-4.3-.9-2.2-.8-2.7.4-2.7.8 0 1.5.8 1.5 1.8zm-57.6 4.4c1.8 5.8 1.6 6.2-4.2 9.6-5.2 3-5.7 3.1-6.6 1.5-4.1-6.9-1-11 9.2-12.2.7 0 1.4.5 1.6 1.1zm186.4 2.1c.3 1.4-.2 1.6-2.6 1.1-2-.4-4.4.2-8 2-8 4-8 5.8 0 3.4 2.9-.9 4.1-.9 5 0 .9.9.7 1.2-1 1.2-1.3 0-4 .9-6.2 2-5 2.5-5.6 2.5-6.4-.3-.8-3.2 3-6.5 10.5-9.2 7.2-2.5 8.3-2.5 8.7-.2zm-131.3 2.4c2.5 1.2 3.5 2.3 3.5 4 0 1.3-.4 2.3-1 2.3-2.2 0-6-2.5-6-4 0-.9-.5-2.1-1.2-2.8-1.8-1.8.4-1.5 4.7.5zm-4.7 2.7c-.1.2-1.7.6-3.5.9-3.1.6-3.2.6-1.6-1.3 1.3-1.5 2.1-1.7 3.6-.9 1 .6 1.7 1.2 1.5 1.3zm198-.8c2 .4 2.3.9 1.7 3.1-.3 1.5-1.4 3.2-2.2 3.8-.9.7-1.4 1.9-1 2.7 1.3 3.6-8.2 23.4-12.7 26.4-3.9 2.5-6 1.5-7-3.4-.9-4.5-.9-4.9 3.8-17.7l2.5-7 4.6-.5c5.3-.6 6.4-2.4 1.8-2.8-2.3-.2-3.3-.8-3.3-2.1 0-3.9 2.5-4.4 11.8-2.5zm-242.4 13.1c1.8 5.8 3.4 9.5 6.4 14.5 1.2 2.1 1.4 3.7.6 7.5-.8 4.2-1.2 4.8-3.4 4.8-1.9 0-3.4-1.4-6.8-6.5-6-9.2-10.4-18.6-10-21.7.2-2 1.4-3.3 4.8-5 5.3-2.8 5.7-2.5 8.4 6.4zm175.9-6.2c-.2.9-11.4 3.7-12.1 3-.2-.1 1.2-1.2 3-2.4 3.3-2.1 9.5-2.5 9.1-.6zM191.5 147c1 1.1 1.5 2 1.2 2-1.4 0-5.7-2.4-5.7-3.2 0-1.5 2.7-.8 4.5 1.2zm25 4.6c3.1 1.3 3.6 1.9 3.1 3.9-.5 1.8 0 2.8 1.6 3.9 2.1 1.5 2.4 1.4 4.3-.4 1.7-1.7 1.8-2.3.7-4-1-1.6-1-2 .2-2 2.3 0 4.7 3 4.4 5.3-.2 1.2-1.7 2.9-3.5 3.9-2.9 1.8-3.4 1.8-6.9.3-2.1-.9-5.1-3-6.6-4.8-2.7-3.1-2.8-3.2-3.4-1-.7 2.7-2.2 2.8-7.1.8-1.9-.8-4.3-1.5-5.3-1.5-1.3 0-1.7-.6-1.3-2 .6-2.3 2.3-2.5 6.1-.7 4.3 2 8.6 1.6 9-.9.2-1.1-.4-2.7-1.3-3.4-.8-.7-1.5-1.8-1.5-2.4.1-.6.9-.1 2 1.2 1 1.2 3.5 2.9 5.5 3.8zm-116.8 2.3c-4.1 4.2-8.5 12.9-9.1 18-.7 5.8-3.4 10.1-6.2 10.1-2.2 0-2.4.4-2.4 4.4 0 2.5.5 4.8 1.2 5.2.7.5.4 1-1.1 1.6-1.8.6-2.2 1.3-1.7 3.2.3 1.4.2 2.8-.4 3.1-1.7 1.1-1.1 3.3 1.1 4 1.7.6 1.9.9.8 1.6-1.2.7-1.2 1.3.2 3.6 1.2 2.2 2.2 2.8 4.5 2.6 2.6-.2 2.7-.1 1.2 1.1-1.9 1.4-2.4 4.1-.9 5 .5.3 1.8 2.6 3 5.2 1.7 3.5 2.6 4.4 3.9 3.9 1.4-.5 1.5-.4.5.6-2 2-1.6 4.2.6 3.6 1.5-.4 1.8.1 1.6 3.6-.2 3.9 1.9 8.2 3.6 7.1.4-.2.7.9.7 2.4-.1 3.5.8 5.2 2.8 5.2.9 0 1.4 1.1 1.4 3.1 0 2.3.4 3 1.4 2.6 1.1-.4 1.6.3 1.8 2.6.2 1.8.8 3.1 1.4 3 1.3-.2 2.8 11.6 1.7 14.2-.5 1.5-.2 1.7 1.5 1.3 2.5-.7 2.9 1 1.2 4.3-1.7 3.1 0 4.5 2.2 1.8l1.9-2.4-.7 2.5c-.3 1.4-1 3-1.5 3.6-.9 1.1-.1 5.4 1 5.4.4 0 1.2-.5 1.9-1.2 1.9-1.9 1.5 2.3-.4 5s-1.2 4.1 1.1 2.2c1.3-1 1.5-.9 1.5.7 0 1-.6 2.5-1.2 3.2-1.1 1-.9 1.6 1 2.8 1.2.9 2.2 2.5 2.2 3.6 0 3.2 2.9 5.8 5.1 4.6 2.6-1.4 2.4-4.4-.6-6.7l-2.5-2 2-5.1c1.1-2.9 2-6.8 2-8.9 0-4.5-2.5-16-5-22.4-1.9-5.1-1.7-8.8.6-8.8.8 0 1.4-.6 1.4-1.4 0-.8.7-1.7 1.6-2 1.4-.5 1.4-1-.4-4l-2-3.4 2.5-1.8c2-1.5 2.6-2.9 2.7-6.2 0-2.8.5-4.2 1.4-4.2.7 0 1.2-.8 1-1.8-.1-.9 0-2.2.4-2.7 2.3-3.8 5.5-10.4 4.8-10.2-2 .5-1.2-1.3 1.7-3.7 1.9-1.6 3-3.3 2.6-4.1-.3-1 .2-1.5 1.3-1.6 1.1-.1 2.6-.2 3.4-.3.8 0 1.5-1 1.4-2.2 0-1.3.6-2.1 1.5-2 1.1.1 1.5-.7 1.4-2.4-.3-2.4-.2-2.4 1.2-.6 1 1.3 2.1 1.7 4 1.2 2.4-.6 2.6-1 2-3.9l-.6-3.2 2.1 3.4c1.5 2.3 2.5 3 3.2 2.3.7-.7.6-1.7-.2-3.1-.6-1.2-.9-2.7-.7-3.4.2-.7 1.1.3 2.1 2 .9 1.8 2 3.3 2.5 3.3 1.6 0 2-1.3 1-3.2-1.3-2.3-.5-3.5 1.3-2.1.7.6 2.8 1.1 4.6 1.1 2.8.1 3.2-.2 2.7-1.9-.4-1-.2-1.9.4-1.9.5 0 1.3.9 1.6 2 .9 3 3.7 2.6 2.9-.4-.5-2.1-.2-2.3 2.4-2.2 2.5.1 3.1.6 3.6 2.9.7 3.2 2.9 3.2 3.4 0 .3-2.1 3.4-3.6 5.7-2.7.7.3 1.1 1.4.8 2.5-.4 1.6 0 1.9 2.6 1.9 1.7 0 3.1.4 3.1 1 0 .5.9 1 2 1 2.5 0 2.7 4.1.4 9.6-3 7.1-.4 15.8 6.9 23.7 1.6 1.6 3.5 4.7 4.4 6.9 1.9 4.7 3.8 5.8 9.8 5.8 4.1 0 4.6.2 3.9 1.7-.4 1-.9 3.9-1.2 6.4-.5 6.5 4.3 16.6 11.3 23.5 2.9 2.8 6 6.5 6.9 8.3 1.6 3.1 4.8 4.2 6.1 2 .5-.6 1.3-.2 2.2 1.1 1.2 1.7 2.3 2.1 4.6 1.7 1.6-.2 4.3.3 6 1.1 2.4 1.2 3.8 1.3 8.1.3 4.1-1 7.6-.9 18.1.3 7.2.9 14.6 1.6 16.6 1.6 4.4 0 6.7 2.1 4.4 4-1.4 1.2-1.4 1.5.2 3.3 1.3 1.5 1.5 2.1.6 2.4-2 .7-1.5 2.2 1.5 4.8l2.7 2.4-2.7.1c-3.8 0-3.6 2.4.2 4 3.3 1.4 4.2 3.5 1.1 2.5-2.1-.6-3.8 1-2.1 2 .6.4.8 1.6.4 2.8-.5 1.6.1 2.7 2.7 4.8 2.6 2.2 2.9 2.7 1.3 2.3-3.5-.9-3.7 1.3-.4 3.6 3.2 2.3 4.2 5.7 1.4 4.6-3.1-1.2-3.6.7-.8 2.9 2.4 1.9 2.6 2.5 1.6 3.8-.9 1-1 2.2-.3 4 1.1 2.9-.5 5-4.1 5.2-2.7.2-3.8 2.3-2.7 5.2.5 1.4.9 3.1.9 4 0 1.3-.3 1.3-1.5.3-1.3-1.1-1.8-1-2.9.6-.8 1-1.2 2.3-.9 3 .2.6-.3 1.4-1.1 1.7-.9.4-1.3 1.3-1 2.2.7 1.7-.4 1.9-2.5.6-.9-.6-2.2-.6-3.3 0-1.5.8-1.7 1.7-1.2 4.5.6 3.4.6 3.5-1.4 2.3-1.9-1.2-2.3-1.1-3.5.5-1 1.3-1.6 1.5-2.1.8-1.2-1.9-2.6-1.4-2.6 1 0 1.7-.3 1.9-1.2 1-1.9-1.9-2.8-1.4-2.8 1.2 0 3.4-1.8 4.2-2.2 1-.4-3.7-3.9-4.9-6.9-2.5l-2.3 1.8 2.5 1.3c2.7 1.5 3.9 2.9 3.9 4.8 0 1-.5 1-2 .2-1.1-.6-2-.7-2-.3 0 .4-.7 0-1.5-1.1-1.7-2.2-3.8-1.2-3 1.5.5 1.5.1 1.9-1.4 1.9-1.6 0-2.1-.6-2.1-2.5 0-1.6-.6-2.5-1.6-2.5-1.1 0-1.3-.6-.9-1.9.8-2.7-2.1-5.4-4.5-4.1-2.9 1.5-3.5 3.2-1.7 4.5 2.1 1.5 2.2 6.8.3 8.4-1.1.9-1.5.7-1.9-.9-.5-2.1-2.7-2.8-2.7-.9 0 .5-1.6 1.7-3.6 2.5-3 1.2-3.5 1.9-3.2 4.2.4 3.7 3.7 4 6.8.7 2.7-2.9 4-3.2 4-1 0 .9.7 1.8 1.5 2.1 1.1.5 1.2 1 .2 2.4-.8 1.4-1.5 1.6-2.4.8-2.3-1.9-6.1-.1-6.8 3.2-.7 3.2-1.9 3.9-2.9 1.5-.9-2.4-2.5-1.7-4.1 1.7l-1.5 3.3.5-3.5c.2-1.9.7-4.4 1-5.5.3-1.1.1-2.7-.4-3.5-.8-1.2-1.6-1.3-4-.3-2.4.9-3.1.8-3.5-.3-.3-.8-1.2-1.1-2.1-.8-1.8.7-4.7-2.4-4-4.4.9-2.5-.7-4.2-4.1-4.2-2.6 0-3.7.6-4.8 2.7-1.5 2.8-1.5 2.8-1.4-2 .1-5.8-.6-6.6-3.2-4.2-1.1 1-2 1.4-2 .9 0-1.4 1.3-2.8 3.5-4 2.2-1.2 2.7-4.5.8-5.1-.6-.2-2.2.6-3.4 1.8-1.3 1.3-3.6 2.3-5.5 2.4-2.7.1-3.3-.3-3.1-2 .2-1.5-.4-2-2.3-2-2.1 0-2.5.5-2.5 2.7.1 1.6-.2 2.8-.5 2.8s-2.8-2.3-5.5-5c-4.1-4.1-4.7-5.2-3.5-6 .9-.6 1.9-.5 2.4 0 1.3 1.3 5.3 1.3 6.2-.1.3-.6 0-1.8-.9-2.6-1.1-1.1-1.9-1.2-3.5-.4-1.6.8-2.1.7-2.6-.4-.7-1.8-3.7-2-5.4-.3-.9.9-2 .4-4.7-2.2-3.3-3.2-3.4-3.5-1.5-4.2 1.2-.4 2-1.6 2-3.1 0-3.2-.8-3.8-3.7-2.4-1.8.8-2.3 1.7-2 3.4.5 2.8-.1 2.8-3 .4-2.8-2.4-2.9-4.1-.3-4.1 1.2 0 2.2-.9 2.6-2.4.8-3.2-.2-4.8-2.9-4.5-4.7.3-5 .1-3.3-2.6 1.4-2.2 1.4-2.5 0-3.3-1.4-.8-1.4-1 0-2.1 2.2-1.9 2-3.1-.6-3.1h-2.3l2.5-2 2.5-2-2.2-.6c-2.6-.7-3-2.2-.8-3 .8-.4 1.5-1 1.5-1.5s-.7-.9-1.5-.9c-2 0-1.9-1 .2-2.5 1.4-1 1.5-1.6.5-2.8-1-1.1-.9-1.7.3-2.7 1.4-1.1 1.3-1.4-.2-2.6-1.7-1.2-1.6-1.3 1-2.3 3.2-1.2 3.6-3.1.7-3.1-3 0-2.6-3.6.6-4.4 1.9-.5 2.4-1.1 1.9-2.6-.4-1.2-.2-2 .5-2s1-.7.6-1.5c-.7-1.9 2.8-5.5 5.3-5.5 1.1 0 2.1-.6 2.3-1.2.4-1 5.8-1.3 22.2-1.4 22.7-.2 25.2-.6 23-4.2-.6-.9-2-1.7-3-1.7-1.1 0-2.4-.3-3-.7-1.2-.8-6.1-.4-7.1.5-1.2 1.3-2.3.7-2.3-1.3 0-2.3-2.9-2.7-4.8-.8-.9.9-1.2.9-1.2 0 0-1.7-2.9-1.5-3.6.2-.4 1-1.8 1.3-4.7 1.1-2.3-.1-4.7.1-5.4.7-.7.6-2.5.6-4.9-.1-2.7-.8-4.1-.7-5.2.1-1 .9-1.6.8-2.2-.3-.5-.8-1.5-1.4-2.2-1.5-.7 0-2.6-.6-4.1-1.3-1.6-.6-3.2-.9-3.6-.6-.5.2-1.4-1.4-2.1-3.6-1.1-3.1-1.8-3.9-3.2-3.6-1.4.4-1.8-.1-1.8-2.3 0-1.6.5-4.1 1.2-5.5 1.3-3 .5-4.3-1.7-2.5-1.3 1-1.5.9-1.5-.8 0-1.1.7-2.5 1.5-3.2.8-.7 1.5-1.9 1.5-2.6 0-.8-.7-1.4-1.5-1.4-1 0-1.6-1.2-1.7-3.8-.2-5.4-.2-6.5.7-8.5.5-1.2.3-1.7-.9-1.7-2 0-2-.9 0-3.2 1.3-1.4 1.4-2.1.5-3.2-1.5-1.7-.7-3.6 1.5-3.6.8 0 1.4-.9 1.4-2 0-1.3.7-2 2-2 1.1 0 2-.5 2-1 0-.6-.6-1-1.3-1-.7 0-2.3-1.4-3.5-3-1.3-1.7-2.7-3-3.3-3-1.7 0-3.9 2.8-3.4 4.3.5 1-.1 1.3-2.4.9-2.7-.4-3.2 0-4.6 3.4-.9 2.2-1.9 6-2.2 8.6-.5 4.2-.3 5.1 1.9 7.3 2.9 2.9 4.5 9.1 5.8 22.8.9 9.5.8 10.7-.7 14.4-.4 1-.7 2.7-.7 3.8-.1 1.1-1.1 2.4-2.3 3-2.8 1.2-2.9 2.6-.3 5 1.1 1 2 2.3 2 2.9-.1.6-.9.1-1.9-1.2-1.1-1.2-2.4-2.2-3-2.2-1.9 0-1.1 2.4 1.9 6 3.9 4.5 4 7.4.2 3.7-1.5-1.5-3.1-2.7-3.5-2.7-1.3 0-.7 2.5 1.3 5 2.6 3.3 2.6 5 0 2.2-3.9-4.1-5.5-2-2 2.5 3.2 4.1 2.5 6.2-.9 2.9-4-3.9-5.8-2.9-2.6 1.4 3.2 4.3 3.2 6 .1 3.1-2.3-2.1-4.6-1.5-3.1.9.3.5.1 1-.4 1-2 0-1.1 2.8 1.4 4.8 2.4 1.9 3.3 4.2 1.7 4.2-.5 0-1.7-.9-2.7-2-1.3-1.4-2.2-1.7-2.9-1-.7.7-.1 2 1.9 4 1.6 1.6 2.6 3.2 2.3 3.5-.3.3-1.1-.1-1.8-1-1.8-2.2-4.3-1.9-3.7.4.3 1.2-.1 2.2-1 2.5-1.8.7-.8 2.4 2.1 3.7 1.8.8 1.6.9-1 .5-3.7-.6-4.8.2-3.3 2 .9 1.1.2 1.2-3.8.8-2.9-.4-7.5 0-11.6 1-8.1 1.9-13.8 2.1-15.5.4-.8-.8-1.5-.8-2.5 0-1 .9-1.9.8-3.6-.5-2.2-1.5-2.4-1.4-4.6 1.3-1.3 1.6-2.7 2.6-3.1 2.1-.4-.4.3-1.8 1.6-3.2 2-2.2 2.2-2.8 1.1-5.1l-1.2-2.6-2.6 2.6c-2.4 2.4-5.3 3.5-5.3 1.9 0-.4 1.1-1.9 2.6-3.4 1.9-2 2.4-3.2 1.8-5.3-.7-3.1-1.1-3.2-4.4-.6-2.9 2.3-4 2.5-4 .7 0-.6 1.4-2 3-2.9 3-1.7 4.4-5.5 1.6-4.5-1 .4-1.2 0-.9-1.4.7-2.5-.5-2.4-3.3.2-1.5 1.4-2.9 1.9-4.1 1.4-1.5-.5-1.2-1 2-2.6 2-1.1 3.7-2.6 3.7-3.4 0-1.9-1-1.9-3.8.1-1.3.9-3 1.3-3.8 1-1.9-.7-.9-2.6 1.5-2.6.9 0 2.5-.6 3.5-1.3 1.5-1.1 1.5-1.7.5-4.2-.7-1.7-1.3-3.5-1.3-4-.1-.6-1.9-.9-4.1-.7-4.1.4-4.2-.3-.4-2.2 1.2-.6 2-1.5 1.8-2.1-.2-.5-.6-.9-.9-.8-2.8.8-4.5.6-4.5-.7 0-.8.9-1.6 2-1.8 2.6-.5 4.6-2.2 4-3.3-.3-.5-1.9-.6-3.5-.2-1.8.3-3 .1-3-.5s1.2-1.2 2.7-1.4c4-.5 4.1-2.8.1-2.9-2.1-.1-2.6-.3-1.3-.6 3-.7 3.9-2 4.2-5.8.1-2.5-.2-3.5-1.2-3.5-.9 0-1.2-.6-.8-1.6.5-1.3 0-1.5-2.2-1.2-1.6.2-3-.2-3.2-1-.3-.7.5-1.2 1.9-1.2 3.2 0 5.1-1.9 3.7-3.7-.8-.9-.8-1.7-.1-2.6 1.2-1.4.5-6.4-1-7.3-.5-.4-1.5-.1-2.1.5-1.4 1.4-2.7 1.4-2.7.1 0-.6.6-1 1.4-1 1.8 0 3.9-2.7 3.1-4-.4-.7-1.2-.7-2.6 0-1.3.8-1.9.7-1.9 0 0-.6 1.1-1.6 2.5-2.2 1.8-.8 2.3-1.7 2-3.2-.3-1.2-.6-3.8-.8-5.8-.2-2.1-.7-4.1-1-4.5-.4-.3-.7-1.5-.7-2.5 0-1.2-.7-1.8-2.2-1.8-2.6 0-1.6-1.3 1.5-1.7 3.3-.5 4.5-2.2 2.5-3.7-1-.7-1.4-1.7-.9-2.2 1.4-1.5 2.2-6.2 1.1-6.9-.5-.3-1-1.5-1-2.6 0-1-.4-1.9-.9-1.9s-.6-1.5-.1-3.3c.9-4.1-.5-8.1-2.5-7.3-.8.3-2.2.9-3 1.2-.8.3-1.5.2-1.5-.4 0-.5 1.4-1.2 3-1.6 2.4-.4 3-1.1 3.1-3.3.1-1.6.1-3.2 0-3.7-.1-.4.3-1.4 1-2.2.9-1.1.8-1.5-.5-2-1.4-.5-1.3-1 .9-3.6 1.4-1.6 2.5-4 2.5-5.4 0-2-.5-2.4-2.9-2.4-1.7 0-3.2.4-3.6 1-.3.5-1.2.7-1.9.4-.8-.3-1.7-.1-2.1.5-.9 1.6-2.5 1.3-2.5-.5 0-1.1-.6-1.3-2-.9s-3.2-.5-6.5-3.6c-2.5-2.3-4.5-4.5-4.5-4.9 0-.4 1-1 2.2-1.3 2.6-.7 6.8 1.6 6.8 3.7s2.7 3.8 5 3.1c2.7-.9 2.5-3.6-.5-6.9-3.1-3.4-3.2-5.1-.1-7.1 1.8-1.2 3-1.3 5-.6 2.3.9 2.6 1.6 2.6 5.9 0 2.6.6 5.6 1.3 6.6 1.2 1.7 1.4 1.7 3.7-.2 2.3-1.9 2.4-2.3 1.2-5.4-.6-1.9-1.2-4.5-1.2-5.9 0-3.2 2.8-7.1 4.8-6.7 1 .1 3.3-1 5.3-2.5s4.2-2.7 5-2.7c.8 0 3.4-2.2 5.9-4.9 2.5-2.7 5-4.6 5.8-4.3.9.3.3 1.5-2.1 4.1zm11.7 3.8c5.7 11.2 27.1 30.8 37 34 1.7.5 3.1 1.4 3.3 1.9.5 1.4-7.6 4.1-8.5 2.8-.4-.5-3.7-2.5-7.4-4.3-8.4-4.2-17.4-12.2-23.5-21-5.6-8-7.1-9.3-9.6-8.5-1.6.5-1.9.3-1.4-1.1.4-.9.7-2 .7-2.4 0-1.6 4.2-6.1 5.6-6.1.7 0 2.5 2.1 3.8 4.7zM194 154c.8.5 1.1 1 .5 1-.5 0-1.7-.5-2.5-1s-1-1-.5-1c.6 0 1.7.5 2.5 1zm105.4 4.8c-3.9 3.4-4.5.9-.8-3 2.5-2.5 3-2.7 3.3-1.2.2 1.1-.9 2.8-2.5 4.2zm-229 8.3c-.3.5-1 .7-1.5.3-.5-.3-.7-1-.3-1.5.3-.5 1-.7 1.5-.3.5.3.7 1 .3 1.5zm40.1 11.3c9.9 11.4 15.9 16 25.5 19.6 1.9.8 3.6 1.4 3.8 1.6.2.1-2.4 4-5.8 8.7-6.3 8.9-8 12.7-8 18.7-.1 1.9-.7 4.6-1.5 6-.8 1.4-1.4 3.5-1.5 4.6 0 1.2-.7 2.7-1.6 3.5-.9.7-2.3 3-3.1 5.1-.8 2.1-1.9 3.8-2.3 3.8-.4 0-3.2-5.1-6.2-11.3-5-10.2-7.4-15.8-10.8-25.7-.6-1.9-2.1-5.8-3.2-8.5-4.9-12.5-4.9-18.1 0-26.1 1.8-2.9 3.2-6.5 3.2-8.3 0-1.7.4-3.1.8-3.1.5 0 5.3 5.1 10.7 11.4zm184.8-6c-1 1.4-2.2 2.6-2.6 2.6-.5 0 .2-1.3 1.5-2.9 2.8-3.5 3.7-3.2 1.1.3zm-3.8 4.6c-.3.5-1.1 1-1.6 1-.6 0-.7-.5-.4-1 .3-.6 1.1-1 1.6-1 .6 0 .7.4.4 1zm2.9 7.6c.3.8-.1 1.4-.8 1.4-1.6 0-3.8-2.4-3-3.3.9-.9 3.2.3 3.8 1.9zm-82.4 5c0 .8-.5 1.2-1 .9-.6-.4-.8-1.1-.5-1.6.9-1.4 1.5-1.1 1.5.7zm79.4 0c1.4 3.8.7 4.5-2.4 2.3-1.6-1.2-2.7-2.6-2.4-3.1.9-1.4 4.2-.9 4.8.8zm-81.4 5.9c0 .8-.4 1.5-1 1.5-.5 0-1-.7-1-1.5s.5-1.5 1-1.5c.6 0 1 .7 1 1.5zm77.1 3.4c.5 3.9-.6 6.9-1.5 3.9-1.3-4-1.4-8.9-.3-8.5.7.2 1.5 2.3 1.8 4.6zm18.4 1.1c-.8 3.7.8 4 3.1.5.9-1.4 2.1-2.5 2.7-2.5.5 0 .3.8-.6 1.8-1 1-1.7 2.2-1.7 2.5 0 1.2 3.5.8 4.9-.6 1.1-1 1.3-.9.7.1-1.2 2 2.3 2.7 3.8.7.9-1.3 1.5-1.5 2-.6.5.8 1.5.5 3.4-.9l2.6-2.1.8 2.1c.6 1.7 1.1 1.9 2.8 1 1.7-.9 2-.8 2 1 0 1.1.6 2 1.3 2 .7 0 2.7 1.3 4.4 2.9 1.7 1.5 3.8 3.1 4.6 3.4.8.3 4 3.9 7.1 8 4 5.3 5.9 9 6.8 12.8.7 3 1.7 5.7 2.4 6.1.7.5 1 1.8.6 3-.4 1.7-.2 2 1.1 1.5 1.1-.4 1.7-.1 1.7.8s1 1.5 2.5 1.5c1.9 0 2.5.5 2.3 1.7-.2 1.3.4 1.8 1.8 1.8 2.5 0 5.5 3.4 12.9 14.6 3.5 5.3 5.5 9.4 5.5 11.2 0 2.1 1.1 3.9 4 6.6 4.1 3.7 7 8.2 7 10.6 0 .7.7 1.5 1.5 1.9.8.3 1.5 1.3 1.5 2.3.1 2.9 3.4 9 4.6 8.6 1.3-.4 8.6 11.9 8.2 13.6-.2.6.8 1.7 2.2 2.4 2 1 2.6 2.1 2.8 5.6.2 3.1.7 4.1 1.7 3.8.7-.3 2.1.3 3.1 1.4 1.5 1.7 1.6 2.3.6 4-1 1.6-1 2 .3 2.5.8.4 1.5 1.3 1.5 2.1s1.4 3.6 3.1 6.1c3.5 5.2 7.9 14.7 7.9 17 0 .8.7 2.3 1.6 3.3 1.2 1.4 1.3 2.2.4 3.8-.9 1.7-.8 2.2.5 2.8 1.1.4 1.5 1.3 1.1 2.8-.4 1.4 0 2.8.9 3.5 1.4 1.2 1.4 1.5 0 3-1.4 1.6-1.4 1.8.6 2.3 1.9.5 2 .8.9 2.2-1.1 1.3-1.1 1.8-.1 2.5 1.1.6 1.1.9.1 1.5s-.9 1.1.5 2.1c1.6 1.2 1.7 1.4.2 2-2.3.9-2.1 2.1.5 2.7 2.1.6 2.1.7.5 2.5-2.1 2.3-2.2 4.2-.2 4.2.8 0 1.5.4 1.5.9s-.7 1.1-1.5 1.5c-2.3.8-1.8 2.8.5 2.1 1.2-.4 2-.2 2 .5s-.9 1.4-2 1.7c-1.1.3-2 1.2-2 2 0 1 .6 1.2 1.9.8 2.8-.8 3.4.9 1.1 3-2.6 2.3-2.6 3.8 0 3 1.6-.5 2-.2 2 1.4 0 1.2-.4 2.1-1 2.1-.5 0-1 .4-1 1 0 .5.7 1 1.5 1 2 0 1.9 1.6-.1 2.4-2.3.9-.6 2.8 1.8 2 1.4-.4 1.8-.2 1.4.5-.4.6-1.5 1.1-2.5 1.1-2.7 0-3.5 5.1-.9 5.8 1.8.4 1.8.6.2 2.3-1.6 1.8-1.6 1.9.6 1.9 1.7 0 2 .3 1.2 1.3-1.6 1.9 1.1 5 3.7 4.2 3.5-1.1 8.1.4 8.1 2.6s1.1 2.4 2.8.7c2.1-2.1 1.3.5-.9 2.8-2.1 2.2-2.1 2.3-.3 4.8 1.1 1.4 2.7 2.6 3.7 2.6 2.1 0 2.2 1.3.2 3-1.3 1.1-2.2 1-5.2-.4-2.7-1.3-3.8-1.4-4.9-.5-2.1 1.7-1.7 3.8 1 5.1 1.6.6 2.6 2.1 2.8 3.7.2 2 .9 2.7 3.1 2.9 2.3.3 2.8-.1 3.3-2.7.4-1.7 1-2.8 1.4-2.6 1.1.7.1 4.2-1.6 5.6-1.8 1.5-1.8 4.9.2 8.8.9 1.8 1.4 3.4 1.3 3.6-.6.6-5.3-3.8-7.2-6.8-.9-1.5-2.3-2.7-3-2.7-.7 0-2.8-1.1-4.8-2.4-3.7-2.5-13.6-4.9-14.4-3.6-.3.5-.2 1.5.1 2.4.5 1.2 0 1.6-1.8 1.6-2.1 0-2.4.5-2.5 4.2-.3 6.4-1.9 6.9-4.3 1.3-1.6-3.8-1.9-5.4-1.1-7.9 2.9-8.8 3.1-17.8.7-23.7-.4-1 0-2.3.9-3.3.9-.9 1.5-2.3 1.2-3-.3-.7 0-1.9.6-2.5.9-.9.6-1.3-1.2-1.8-2.3-.6-2.3-.7-.5-2 1.7-1.3 1.7-1.6.4-2.6-.9-.7-1.4-2-1.2-3.1.3-1.6 0-1.8-2.2-1.2-1.9.5-2.6.3-2.6-.8 0-.8.5-1.8 1-2.1.6-.3 1-1.3 1-2.1 0-1.1-.7-1.3-2.7-.8l-2.8.7 2.3-2.5c3-3.3 2.8-4.2-.8-3.5-3.2.7-3.9-.3-1.5-2.3 2.5-2 1.7-3.3-1.5-2.7-3.1.7-3.8-.1-1.9-2 1.8-1.8.1-3.5-2.1-2.3-2.2 1.2-3.3 0-1.9-2 1.5-2.5 1-3.2-1.8-2.5-2.7.6-2.7.6-.9-1.4 2-2.2 1.3-4.6-1.3-3.6-1.3.5-1.4.4-.3-.6 1.9-2.1 1.4-3.2-1.3-2.7-2.2.5-2.5.2-2.3-2.1.3-2.2-.1-2.6-2.5-2.7-3.7-.1-4.3-1-2.3-3.3 2-2.2.4-4-1.9-2.1-1 .8-1.5.9-1.5.2 0-.6.5-1.4 1-1.7 1.7-1 1.1-2.3-1.2-2.7-1.6-.2-3.1-2.2-5.4-6.8-1.8-3.6-3.3-7.3-3.3-8.3-.1-1-1.3-5.9-2.7-11-1.8-6.3-2.6-11.5-2.5-16.5 0-5.5-.3-7.4-1.4-7.9-.8-.3-1.5-1.1-1.5-1.8 0-1.8-2.5-2.6-3.9-1.2-1.5 1.5-1.4.1.4-3.3 1.4-2.6 1.4-3 .1-3-.8 0-2.2 1-3 2.2l-1.6 2.2v-2.1c0-1.2.5-2.5 1-2.8 1.4-.9 1.2-3.5-.3-3.5-.7 0-2 1.2-2.9 2.7-2.2 3.6-2.3 1.5-.2-3.7 2.1-5.3.9-6.4-2.6-2.2-2.7 3.2-2.7 3.2-2.3.7.3-1.4.9-2.8 1.4-3.1.5-.3.9-1.2.9-2 0-2.6-3-1.5-5 1.8-1.9 3.1-2 3.1-2 .9 0-1.3.9-3.8 1.9-5.5 1.3-2 1.7-3.7 1.1-4.5-1.4-2.4-3.7-.4-5.6 5.1l-1.9 5.3-.3-3.5c-.2-1.9.2-5.2.9-7.2.7-2.1.9-4.1.6-4.4-1.5-1.5-3.6.9-4.8 5.5-.7 2.8-1.6 5.1-2.1 5.1-1.6 0-.7-6.3 1.4-10.1 2.4-4.3 1.9-5.7-1.4-4.2-1.4.6-2.7 2.6-3.5 5.4l-1.3 4.4.5-5c.3-2.7 1-5.4 1.5-5.9 1.2-1.2 1.4-5.6.3-5.6-2 .1-3.5 2.1-4.8 6.1-1.2 3.9-1.4 4.1-1.4 1.4 0-1.7.6-4.8 1.4-6.9.8-2.2 1.2-4.3.9-4.8-1.3-2-4.1 1.6-6.1 7.9l-2.1 6.8-.1-5.5c0-3 .6-7.1 1.3-9.1.7-1.9 1.1-4 .8-4.7-.6-1.8-3.2-1.4-4 .5-.5 1.2-.9.1-1.2-3.2-.3-3.5-1-5-2-5.1-3.8-.4-5.8-1.7-5.3-3.2 1.2-3.8 3.9-8.9 6-11.3 2.4-2.7 6.3-12.5 6.3-15.8 0-5.3-6.5-1.5-7.6 4.5-.4 2.1-1.9 4.3-4.5 6.4-5.2 4.2-7.9 9.6-8 16.4-.1 3.1-.7 6.7-1.5 8.1-1.1 2.1-1 2.7.2 3.9 1.9 2 1.8 2.6-.5 2.6-1.1 0-2.2.4-2.6 1-.3.5-1.2.7-2 .3-.8-.3-1.5 0-1.5.6 0 .7-.9.9-2.5.5-1.4-.3-2.5-.2-2.5.3 0 1.6-20.5 1-22.4-.6-1.3-1.1-2.2-1.1-3.9-.3-4.2 2-6.3 2-7.6 0-.9-1.5-1.5-1.7-2.6-.8-.7.6-1.9.9-2.6.8-.8-.2-1.5.7-1.7 2.1l-.4 2.3-1.4-2.1c-.9-1.2-2.6-2.1-4-2.1-2.3 0-2.4-.3-2.4-5.8.1-5.5.1-5.6 1.5-3.1 1.4 2.6 5.6 5.9 7.4 5.9 1.6 0 2.4-8.6 1.2-12.1-.9-2.7-.8-3.7.6-5.8 2.2-3.5 4.4-5 6.9-5.1 1.2 0 3.9-2.2 6.8-5.5l4.8-5.6-.7-7.4c-.6-5.6-.3-8.6.9-12.2 2.4-7.5 4.4-14.5 5.1-18.3 1.2-6.6 1.5-7.1 4.3-6.9 6 .5 7.3 0 8.3-3.1.6-1.7 1.5-3 2.1-3 .5 0 .7 1.3.3 3zm-90.7 24.7c.6 1.2 1.2 2.6 1.2 3.2 0 2.1-1.6 1.1-3.5-2.1-2.1-3.6-2.7-14.8-1-18.3.7-1.5 1.1.1 1.5 6.5.3 4.7 1.1 9.5 1.8 10.7zm70.1-11.3c-.1 4.9-1.4 8.9-2.2 6.6-.3-.8-.8-4.4-1.2-8l-.6-6.4 2 1.8c1.5 1.4 2.1 3.1 2 6zm-41.2 2.4c.8.5.3 1.1-1.3 1.9-2.1 1-2.4.9-2.4-.8 0-2 1.6-2.4 3.7-1.1zm9 3.8c.2.5-.3 1.9-1.1 2.9-1.4 1.9-1.5 1.9-2.1.2-.4-.9-.4-2.4-.1-3.3.6-1.6 2.7-1.5 3.3.2zM69 222.5c-.7.9-1.5 1.3-1.9 1-.3-.3.1-1 .9-1.5 2.1-1.4 2.4-1.2 1 .5zm189.7 5.2c.6.2 1.4-.5 1.8-1.6.9-2.9 1.8-2.6 3.9.9 2.8 4.9 2.5 21-.5 21-.5 0-.9-1.2-.9-2.6 0-3.9-2.1-2.5-5 3.2-3.1 6.2-8.3 13-8.8 11.5-.2-.6 1.1-3.1 2.9-5.6 3.2-4.5 3.3-4.6 2.2-10.8-.9-5.6-.8-6.5 1-9 1.6-2.4 1.8-3.3.8-5.3-1.3-2.9-1.4-6.7-.3-7.8.4-.4.9.7 1.2 2.5.3 1.8 1 3.4 1.7 3.6zm-34.7 0c0 .9-.5 3.1-1.2 4.9-1 2.7-.9 3.7.6 5.9 2.3 3.4 1 4.8-1.5 1.6-1.9-2.3-2.6-9.1-1.3-12.5.8-2.1 3.4-2 3.4.1zm21 4.4c0 2.2.7 5 1.4 6.2.8 1.2 1.8 4.2 2.2 6.7l.6 4.5-3.2-5c-3.2-4.9-3.6-6.5-3.2-13.8.3-5 2.2-3.8 2.2 1.4zm-174 2.3c0 .2-.7.6-1.5 1-.8.3-1.5.1-1.5-.4 0-.6.7-1 1.5-1s1.5.2 1.5.4zm161.3 2.6c-.3 1.1 0 2.7.7 3.5 1.7 2-.4 2-2.4-.1-.9-.8-1.5-1.9-1.3-2.2.2-.4.7-1.5 1-2.5.9-2.4 2.7-1.2 2 1.3zm48.3 9.6c-.4 1.8-1 3.4-1.5 3.4-.9 0-1.3-9.9-.4-11.4 1.1-1.8 2.5 4.4 1.9 8zm-40.6-1.4c1.1 1.3 2.2 3.6 2.6 5.3 1 4.6 1.4 4.8 4 2.4 1.4-1.3 2.4-1.7 2.4-1 0 2.4-2 5-5 6.4-2.5 1.3-3.1 1.3-4.1.1-.6-.8-.9-2.8-.7-4.4.7-4.9-.9-4.5-3.7 1-1.4 2.7-3 5-3.5 5-1.5 0-1.3-.7 2.1-7.6 2.6-5.2 2.9-6.6 1.9-7.9-1-1.2-.9-1.5.5-1.5.9 0 2.5 1 3.5 2.2zm14.7 19.7c0 2.2-.5 3.7-.9 3.5-1.1-.7-1-7.4.1-7.4.6 0 .9 1.8.8 3.9zm-8.4 4.7c5.6 5.4 7.5 9 6.4 11.8-.4 1-2.4-.3-6.6-4.4-5.9-5.6-8.7-10.2-7.5-12.1 1-1.6 2-1 7.7 4.7zM74.5 288c-.3.5-1.2 1-1.8 1-.7 0-.6-.4.3-1 1.9-1.2 2.3-1.2 1.5 0zm2 25c-.3.5-1.2 1-1.8 1-.7 0-.6-.4.3-1 1.9-1.2 2.3-1.2 1.5 0zm372.4 30.2c.4 1.3 1 4.6 1.3 7.5.5 5 .4 5.1-2.4 5.7-3.6.7-3.7 2.8-.1 2.4 2.7-.3 2.8-.2 3.9 7 .9 6 .9 7.5-.3 7.9-1.8.7-1.7 2.3.2 2.3.8 0 1.5.5 1.5 1.1 0 .6-1 .9-2.2.7-1.9-.2-2.8-1.9-5.5-10.3-1.8-5.5-3.3-10.3-3.3-10.7 0-.3 1.4-.9 3-1.3 3.2-.7 4.1-2.5 1.3-2.5-1.6 0-1.6-.1 0-1.3 1.4-1 1.5-1.8.6-5-.9-3.5-1.3-3.8-4-3.3-1.6.3-4.4.9-6.1 1.2l-3.3.5 2.7-1.5c2.8-1.5 5.6-2.2 9.6-2.5 1.5-.1 2.5.6 3.1 2.1zM135 351.6c1.2 1.2.5 1.4-5 1.3-3.6 0-8.7-.7-11.5-1.4l-5-1.4 6 .3c3.3.2 7.1.7 8.4 1.1 2.1.7 2.3.6 1.8-.9-.6-1.4-.3-1.6 1.6-1.1 1.2.4 2.9 1.3 3.7 2.1zm306.7.3c.7 1 .9 2.1.6 2.4-.8.9-4.3-1.6-4.3-3 0-2 2.4-1.5 3.7.6zM143 354.8c-2 .7-4-.7-3.4-2.3.6-1.4.9-1.4 2.6.2 1.2 1 1.5 1.9.8 2.1zm224.1-.8c1.2 0 2.3 1 2.9 2.5.5 1.4 2.2 3 3.7 3.6 3.4 1.3 6.7 5 9.3 10.8 2.3 5 2.3 5.1 1.1 5.1-.5 0-1.1-.9-1.4-2-.3-1.1-1-2-1.6-2-.8 0-1 2-.5 6.7.8 8.1-.6 7.6-2.6-1-1.1-4.7-1.1-6.3-.1-7.8 1.5-2.5.5-4.5-1.5-2.8-.8.7-1.3 1.8-1 2.5.3.7-.6 1.5-2 1.8-2.7.7-3.2 3.5-1.4 8.2 1.5 3.8-.9 5.4-2.8 1.9-.7-1.4-2.2-2.5-3.3-2.5-2.7 0-7.2 4.9-5.9 6.5.7.8.3 1.5-1.6 2.3-3.6 1.7-3.8 1.5-2-1.3 1.6-2.4 1.5-2.5-.9-3.1-4.5-1.1-3.1-2.2 8.3-6.4 2.2-.9 4-2.6 5.2-5 1.2-2.4 2.6-3.7 3.7-3.6 1 0 1.8-.5 1.7-1.2-.1-.6-.2-2-.2-3-.1-1-1.6-2.8-3.3-4.1-3-2.2-3.1-2.2-3.6-.3-.3 1.1-1.4 2.3-2.5 2.5-1.7.5-1.9 1.1-1.4 4 .8 4.5-.1 6.7-2.7 6.7-3 0-12.5 6.8-14.3 10.1-1.8 3.6-1.8 5.3.2 9 1.4 2.8 1.4 3.3-.5 6.5-2.6 4.3-2.7 8-.4 9.3 2.9 1.6 5.3-.5 5.3-4.4 0-4.2 5.5-10.9 9.8-11.8 1.5-.4 4.3-2.1 6.1-3.9 2.2-2 3.2-2.6 2.8-1.5-.4 1-.7 2.3-.7 2.8s-.5.9-1.2.9c-1.9 0-4.8 3.2-4.8 5.2 0 1.5-.3 1.7-1.9.8-2.5-1.3-3.1-1.3-3.1.1 0 .7-.8 1.7-1.7 2.4-1.3.9-1.8 3.2-2.1 8.3-.3 5.5-.7 6.9-1.8 6.5-.8-.3-1.7.2-2 1.1-.3.9-1.5 1.6-2.7 1.6-1.9 0-1.9-.1-.3-1.9 1.9-2.1 1.4-4.1-.9-4.1-.8 0-3 1.6-5 3.5-2.8 2.8-3.4 4.1-2.9 6 .4 1.5.2 2.5-.5 2.5-.6 0-1.1-1.1-1.1-2.5 0-4-2.5-4-8.2-.3-6.8 4.4-8.5 5-9.2 3.2-.3-.8.1-1.4.9-1.4 1.3 0 3.5-2.9 3.5-4.7 0-.4-1.5-1.6-3.3-2.7l-3.2-1.8 2.4-.9c2.1-.8 2.3-1.4 1.7-4.7-.3-2-.9-4.7-1.2-6-.4-1.2-.2-2.2.2-2.2 1.3 0 3.4 7.3 3.4 11.4 0 4 2.2 6.2 5.9 5.8 3-.4 6.1-3.6 6.1-6.3 0-1.1 1-2.3 2.3-2.8 2.1-.8 2.4-1.6 2.4-7 .1-6.5-.9-7-3.1-1.8l-1.4 3.2-.1-3.4c-.1-2.2 1-5.1 3-8.3 3.3-5.2 3.3-7.3-.1-4.3-1.8 1.6-1.7 1.2.5-2.8 1.5-2.6 2.4-5.1 2-5.6-.7-1.3 3-3.7 7-4.7 1.7-.4 3.8-1.4 4.8-2.2 1.8-1.6 2.3-4.7.9-5.6-1.4-.9-12.3 5.2-17.8 10-4.7 3.9-5.2 4.2-5.7 2.4-.7-2.8-1.8-2.5-5.6 1.4-3.3 3.4-4.1 6.9-2.6 11.5.6 2.1.5 2.2-1.7 1.6-1.2-.4-2.7-1.1-3.2-1.5-1.3-1.3 1.4-11 3.5-12.3 1.1-.7 1.9-2.1 1.9-3.2s.7-2.9 1.5-3.9c1.2-1.6 1.7-1.7 3-.6 1.6 1.4 1.8 1 1.5-3.4-.2-2.6 0-2.8 2.4-2.2 2.2.5 2.6.3 2.6-1.4 0-2.3 1.5-2.7 2.4-.5 1 2.6 2.9 1.7 2.2-1-.8-3.1 1.9-3.6 2.9-.5.3 1.1 1.3 2 2.1 2 1.2 0 1.3-.8.8-3.5-.5-3-.4-3.4 1-2.9.9.3 1.6 1.2 1.6 1.9 0 .6.9 2 2 3 1.7 1.5 2 1.6 2.5.2.4-.9 1.4-1.3 2.6-1 1.3.4 1.9 0 1.9-1.1 0-1 .4-1.5.9-1.2.4.3 1.9-.6 3.2-2 1.2-1.3 2.9-2.2 3.7-1.9.7.3 2.2.5 3.3.5zm-245 3.4c1.7 1.4 4.1 2.6 5.4 2.6 1.8 0 2.3.4 1.9 1.5-.4.8-.1 2.1.5 2.9.9 1.1.7 1.5-1.1 2-1.3.3-3.3.6-4.6.6-5.2 0-3.5 3 7.8 13.8 10.9 10.3 11.3 10.8 9.9 13-1.2 2.1-1.9 2.3-5.8 1.8-3.2-.4-4.7-.2-5.5.9-.7 1-1.6 1.2-2.5.6-1.2-.8-1.2-1.3.3-3.6 1.3-2 2.1-2.4 2.9-1.6 1.5 1.5 4.2 1.4 5.7-.3 2.8-3.4-10.9-16.7-15.4-15-.8.3-2.8-.3-4.3-1.3-1.5-1.1-4.6-2.8-6.8-3.8s-3.5-2-2.8-2.2c.6-.2 3.3 1 6.1 2.6 5.6 3.5 7.8 4 6.7 1.3-.4-.9-1.1-3.4-1.5-5.5-.6-3.2-.4-4 1.6-5.6 3.2-2.5 3-2.9-1.2-4.7-3.2-1.4-3.8-1.4-5.3 0-1 .9-2.3 1.6-2.9 1.6-.7 0-1.2.7-1.2 1.5 0 1 1.1 1.5 3.3 1.6 1.8.1.6.5-2.8.9-3.3.4-7.5 1-9.2 1.4-2.6.6-3.3.4-3.3-.7 0-1.8 3.2-4 8.2-5.6 2-.7 4.2-1.9 4.9-2.7 1.8-2.2 7.2-1.2 11 2zm30.5.1c2.6 2.8 4 3.5 6.9 3.5 4.4 0 4.3 2 0 3.2-2.6.6-3.5.3-6.8-3-4.5-4.3-6.3-7.2-4.6-7.2.6 0 2.6 1.6 4.5 3.5zm-10.5 4.9c2.9 1.2 10.1 7.5 7.4 6.5-2.8-1.1-11.5-6.5-11.5-7.2 0-1 .2-.9 4.1.7zm4.2 17c-.3 2-.1 3.6.6 4 .6.4 1.1 1.2 1.1 1.9 0 .6-2-.8-4.4-3.2-2.4-2.4-4.2-4.9-4-5.5.3-.7-.7-2.3-2.1-3.6-4.2-3.9-2.8-4.1 3.4-.4 5.7 3.4 5.9 3.7 5.4 6.8zm35.7-7.2c0 .6-.7.5-1.5-.2s-1.5-1.7-1.5-2.2c0-.6.7-.5 1.5.2s1.5 1.7 1.5 2.2zm-97 4.9c-.7 1.1-1.4 1.8-1.7 1.5-.3-.3 0-1.2.7-2.1 1.8-2.1 2.3-1.9 1 .6zm22.3.2c4.2 1.8 15.1 10.7 14.2 11.5-.3.3-2-.8-3.8-2.5-1.7-1.7-4.2-3.6-5.5-4.2-3.4-1.8-11.4-4.1-12.3-3.5-.4.2-2.2-.4-3.9-1.5l-3.2-1.9 5.4.2c2.9.2 7 1 9.1 1.9zm-12.5 2.9c1.7 1.7-.5 5.3-2.4 3.7-1.8-1.4-1.8-4.9-.1-4.9.7 0 1.8.5 2.5 1.2zm71.1 2c-.2 1.8.5 4.8 1.5 6.7 1.2 2.2 1.3 3.2.5 2.9-.7-.2-2.4-2.5-3.8-5.1-2.4-4.6-2.5-4.7-.5-6.2 2.5-1.9 2.5-2 2.3 1.7zm145.7-.7c-.3.9-1.1 1.3-1.6 1-.8-.5-.7-1.1.1-2.1 1.4-1.8 2.4-1.1 1.5 1.1zm144.1 9.6c1.2 10.6 2.7 22.3 3.7 27.6.4 2.3-1.9 5.1-3.2 3.8-.4-.4-.1-1 .6-1.2 1.9-.7 1.4-2.3-.8-2.3-2.4 0-2.6-1.3-.5-3 .8-.7 1.5-1.7 1.5-2.2 0-.6-.7-.8-1.5-.4-1.8.6-2-.5-.3-2.2.9-.9.7-1.3-.5-1.8-2.1-.8-2.2-4-.2-4.8 2.2-.8 1.8-2.6-.5-2.6s-2.6-1-.8-2.8c.9-.9.8-1.5-.8-2.7-1.9-1.5-1.9-1.5 0-2.6 1.9-1.2 1.9-1.2.1-2.5-1.8-1.4-1.8-1.4.1-2.9 1.9-1.4 1.9-1.4-.3-1.5-2.7 0-4-1.8-1.9-2.6 2-.8 2.1-2.4.1-2.4-.8 0-1.5-.4-1.5-.9 0-1 2.8-2 4.5-1.6.5.1 1.5 5.3 2.2 11.6zm-120.8-6.7c-1.2 2-2.4 3.5-2.6 3.2-.3-.3.5-2.1 1.7-4.1 2.9-4.7 3.7-3.9.9.9zm54.1-1.3c0 .5-.4.9-1 .9-.5 0-1-.7-1-1.6 0-.8.5-1.2 1-.9.6.3 1 1 1 1.6zm-211.6 2c3 3.6 6 8.9 5.3 9.5-.7.7-9.7-9.7-9.7-11.2 0-2.3 1.6-1.6 4.4 1.7zm-68.7 1.1l2.8 1.2-4 .6c-2.9.4-4.3.2-5.2-.9-2.9-3.4-.4-3.8 6.4-.9zm202.3 4.4c0 1.5-.6 2.4-1.5 2.4-1.6 0-1.9-1.7-.9-4.4.9-2.2 2.4-1 2.4 2zM95 390c.8 1.4.8 2.6 0 4.1-1.4 2.5-1.6 2.4-2.3-2.4-.6-4 .6-4.9 2.3-1.7zm22.6 4.8c-.9.8-4.6-2-4.6-3.5 0-1.3.5-1.2 2.5.7 1.4 1.3 2.3 2.5 2.1 2.8zm84.9-3.4c1.3.9 2 2.8 2.2 6.3.1 2.7 1.2 7 2.3 9.4 1.4 3.2 2 6.6 2 12.6 0 9.1-1.5 11.1-2.5 3.5-1.4-9.5-5.3-27.9-6.4-30-1.9-3.6-1-4.3 2.4-1.8zm178.8 3.8c-.3 1.5-.9 2.5-1.4 2.3-.4-.3-.3-1.7.3-3 1.4-3.1 1.8-2.8 1.1.7zm-79.6 7.7c-1.4.6-2.1-.9-2-4.4.2-5.8 1.7-6.5 2.3-1 .3 2.7.1 5.2-.3 5.4zm30.3-6.8c0 1.1.5 2.9 1 3.9.7 1.3.7 2.1 0 2.5-.6.3-1.5-.6-2-2-1.3-3.4-1.3-7.8 0-7 .6.3 1 1.5 1 2.6zm-226.6.8c2.1 2.4 9.8 6.1 12.5 6.1 2.8 0 4.7-2.8 3.4-4.9-.9-1.5-.7-1.7 1.8-1.3 1.6.2 2.9 1 2.9 1.7s.7 1.8 1.5 2.5c2 1.7 1 3-2.4 3-1.6 0-4 .9-5.4 2-3.3 2.6-4.1 2.5-5.5-.5-.6-1.4-2-2.5-3-2.5-2.6 0-11.4-5.8-10.7-7 1-1.6 3-1.2 4.9.9zm117.7 1.4c-1 .9-1.1.8-.5-.6.3-1 .9-1.5 1.2-1.2.3.3 0 1.1-.7 1.8zm46.9 1.3c0 2.3-.1 2.4-1.6.9-.9-.8-1.3-2.2-1-3.1.8-2.2 2.6-.7 2.6 2.2zm7-2.2c0 .8-.7 1.6-1.5 2-1.5.5-2.1-1.4-.8-2.7 1.1-1.2 2.3-.8 2.3.7zm-184.3 2.8c-.3.7-.5.2-.5-1.2s.2-1.9.5-1.3c.2.7.2 1.9 0 2.5zm41.5 2c-1.5 1.5-2.6.4-1.8-1.8.5-1.3.9-1.5 1.8-.6s.9 1.5 0 2.4zM177 401c.6 1.1.8 2 .6 2-.3 0-1-.9-1.6-2-.6-1.1-.8-2-.6-2 .3 0 1 .9 1.6 2zm53.4 2.4c-.3.9-1 1.3-1.6 1-.5-.3-.4-1.2.3-2 1.5-1.8 2.2-1.3 1.3 1zm-35.9 5.8c-.7 3.9-.9 4.1-1.8 2-.7-1.6-.7-2.9.3-4.7 1.8-3.4 2.3-2.5 1.5 2.7zm99.5 7c0 2.1-3.3-1.7-5.1-6-3-6.8-2.2-7.2 1.6-.9 1.9 3.2 3.5 6.3 3.5 6.9zm-140.4-5c-1.2.7-1.5 1.6-1 3.1.6 1.9.5 2-1 .8-1.8-1.5-2.2-4.1-.5-4.1.6 0 .9-.6.6-1.4-.8-2 1.6-2.7 2.7-.8.6 1 .3 1.8-.8 2.4zM263 408c0 .5-.2 1-.4 1-.3 0-.8-.5-1.1-1-.3-.6-.1-1 .4-1 .6 0 1.1.4 1.1 1zm53.3 1.4c.4 1 .1 1.3-.9.9-1.5-.6-1.9-2.3-.5-2.3.5 0 1.1.7 1.4 1.4zm-179 4c.9.7 1.7 2 1.7 2.8 0 .7 2.3 3.8 5.1 6.8 2.8 3.1 5.3 6.8 5.6 8.5.6 2.9.5 2.9-2.5-1.2-1.7-2.2-3.6-4.4-4.2-4.8-.7-.4-1.8-2.1-2.5-3.9-1.1-2.6-1.9-3.1-4.6-3.1-1.9 0-3.4-.6-3.7-1.4-.3-1 .1-1.2 1.7-.8 2.8.7 3.9-1.3 1.6-3-1.1-.7-1.5-1.3-.9-1.3.5 0 1.7.7 2.7 1.4zm87.6 4.8c-2.7 1-3 .8-2.2-2 .5-2.2.6-2.2 2.5-.5 1.9 1.7 1.9 1.7-.3 2.5zm25.6-3.3c.3.5.1 1.2-.5 1.6-.5.3-1-.1-1-.9 0-1.8.6-2.1 1.5-.7zM87 416.4c.6.8 2.1 1.6 3.3 1.8l2.2.3-2.2.7c-1.5.4-2.8-.1-4.4-1.8-1.2-1.3-1.8-2.4-1.2-2.4.6 0 1.6.6 2.3 1.4zm174 .5c0 2.2-6.3 7.7-6.9 6-.2-.6.6-2.1 1.8-3.3 1.2-1.2 2.1-2.8 2.1-3.4 0-.7.7-1.2 1.5-1.2s1.5.9 1.5 1.9zm109.5-.9c-.3.5-1.3 1-2.1 1s-1.4-.5-1.4-1c0-.6.9-1 2.1-1 1.1 0 1.7.4 1.4 1zm-100.2 2c-.7 2.8-2.3 3.6-2.3 1.1 0-1 .6-2.2 1.3-2.4.6-.3 1.3-.6 1.4-.6 0-.1-.1.8-.4 1.9zm-27.5.4c2.9.1 2.8 2-.3 4-1.9 1.3-2.5 1.3-2.5.3 0-.7-.5-1.8-1.1-2.4-1.5-1.5-5.6.3-6.4 2.9-.4 1-1.1 1.8-1.6 1.8-1.3 0-1.2-.4 1.2-4.5 2-3.3 2.4-3.5 5.3-2.9 1.7.5 4.1.8 5.4.8zm158.9.8c-.3.8-.6.5-.6-.6-.1-1.1.2-1.7.5-1.3.3.3.4 1.2.1 1.9zm-91.8 7.2c.6 2.7.9 5.1.7 5.4-.3.3-.7-.1-.9-.9-.2-.8-.9-3-1.6-5-.6-1.9-1.1-4.6-1-6 0-2.2.1-2.2.8-.4.5 1.1 1.4 4.2 2 6.9zM161.5 420c.3.5.1 1-.4 1-.6 0-1.1-.5-1.1-1 0-.6.2-1 .4-1 .3 0 .8.4 1.1 1zm219.5 6.1c.6 2.1.9 4.1.8 4.6-.1.4.1 1.8.6 3.1.5 1.5.2 2.7-.8 3.7-1.8 1.8-2.6 1.9-2.6.2 0-.7-.6-1.9-1.2-2.6-.8-.7-1.3-4-1.3-8.6 0-6.9.1-7.3 1.8-5.8.9.9 2.2 3.3 2.7 5.4zm-194.3-3.9c-.3.8-.6.5-.6-.6-.1-1.1.2-1.7.5-1.3.3.3.4 1.2.1 1.9zm13.2 3.3v2l-.9-2c-.5-1.1-.9-2.9-.9-4v-2l.9 2c.5 1.1.9 2.9.9 4zM361 422c0 .5-.9 1-2 1-1.2 0-2 .7-2 1.7s-.4 2.4-.9 3.2c-.8 1.2-1.2 1.2-2.6-.2-.9-1-2.4-1.7-3.3-1.7-1 0-1.3-.3-.6-.8.6-.4 1.3-1.4 1.6-2.3.7-1.8 9.8-2.6 9.8-.9zm-236 1.5c2.7 1 4.8 1.2 5.9.6 1.3-.7 2.6.2 6.4 4.4 3.8 4.3 4.3 5.4 2.9 5.8-.9.3-2.5.8-3.5 1.2-1.3.6-1.6.3-1.1-.9.6-1.5-4.7-7.6-7.1-8-3.1-.6-8.5-2.9-8.5-3.7 0-1.2 0-1.2 5 .6zm164.4 1.7c.3 1.3.6 3.4.6 4.7 0 2.4 0 2.4-1.5.5-1.6-2.1-2-7.4-.6-7.4.5 0 1.1 1 1.5 2.2zm39.7 2.3c-2.1 2.5-3.1 4.6-3.1 6.9 0 2.8-.5 3.6-3 4.6-4.4 1.8-5.7 3.8-3.6 5.3 1.5 1.1 1.4 1.5-1.4 4.2-1.6 1.6-3 3.2-3 3.6 0 .4-1.4 2.2-3.1 4-2.7 2.9-2.8 3.4-1.5 4.8 1.4 1.3 1.8 1.2 4.1-.9 1.4-1.3 2.5-3.1 2.5-3.9 0-.9 1.6-2.7 3.6-4 3-2.1 3.5-2.9 3-5.2-.3-1.9 0-2.9 1-3.3 2.6-1 3.4-.7 3.4 1.3 0 2.9 3.8 14 6 17.6 2.3 3.7 2.8 7 .6 4-1.3-1.8-1.5-1.8-4-.2-3.4 2.3-6.7 8.7-5.9 11.8.4 1.3 1.6 3.7 2.8 5.4 4 5.5 3.8 6-.6 1.7-4.4-4.1-6.9-5.3-6.9-3.1 0 .6 1.4 2.4 3.1 4 1.8 1.6 2.9 3.3 2.5 3.6-.3.4-1.9-.6-3.4-2-3.8-3.7-5.5-3.5-4.7.3.4 1.7.2 3-.3 3-2.1 0-2 3.1 0 5 1.2 1.1 1.7 2 1 2-.6 0-1.4-.5-1.7-1-.3-.6-1.6-1-2.8-1-1.8 0-1.5.6 2.3 4.5 4.7 4.8 4.7 5.8-.2 2.4-3.6-2.6-4.9-1.7-2 1.4 2.6 2.8 2.8 4.7.6 4.7-1 0-1.4-.6-1.1-1.5.8-1.9-.8-2.8-3.3-2-3 1-2.8 8.7.3 11.2 4.9 4 5.1 5.4.3 2.7-2.5-1.4-4.8-3-5.1-3.5-.4-.5-1-.9-1.6-.9-1.7 0-.9 2.2 1.6 4.2 3.4 2.6 2.2 4.3-1.5 2.1-3.6-2.1-5-1.1-2.4 1.8l1.9 2.2-3.3-1.7c-4.5-2.3-5.5-1-1.7 2 3.9 3.1 2.4 3.1-2.3-.1-2.5-1.7-3.9-2.2-4.7-1.4-.7.7-.4 1.5.9 2.4 2.1 1.6 1.3 3.7-1.1 2.8-1.1-.4-1.4-.3-.9.6.5.7.1 2-.7 2.9-.9.9-1.6 2.1-1.7 2.7-.1.5-1 .9-2.1.8-2-.3-2.6 1.1-.9 2.2.5.3 1.5 1.5 2 2.5.8 1.6.8 1.8-.5 1.4-2.6-1-1.7 2.3 1.2 4.4 3.4 2.5 2.3 4.1-1.1 1.8-4-2.5-5.2-1.9-2.3 1.2 1.5 1.5 2.7 3 2.7 3.3 0 .3-1.6.3-3.5.1-2.8-.3-3.5-.1-3.5 1.4 0 .9-.8 2.6-1.7 3.6-1.4 1.5-1.5 2.3-.5 3.8 1.1 1.8 1 1.8-1.8.2-4.1-2.4-5.1-.6-1.4 2.6 5.5 4.9 6 6.6.8 2.9-5.6-4-6.4-4.3-6.4-2.4 0 .7 2 3 4.5 5.1 2.5 2 4.3 4.2 3.9 4.7-.4.7-1.7.1-3.3-1.3-4.2-3.9-8.2-6.1-9.2-5.1-.6.6 1 2.5 4 4.9 6.1 4.7 6.8 6.6.9 2.4-4.5-3.3-5.8-3.7-5.8-1.7 0 .7 1.8 2.6 4 4.3 2.2 1.6 4 3.2 4 3.6 0 1.2-.3 1-4-1.7-1.9-1.4-3.8-2.5-4.2-2.5-1.7 0-.7 2.5 2 4.6 3.8 3.1 2.2 4-2.2 1.3-2.6-1.5-4-1.9-4.8-1.1-.7.7-.4 1.3 1 2.1 3.1 1.6 5.3 4.1 4.6 5.2-.3.6-2-.1-3.9-1.5-4.6-3.5-7.7-3.3-4.2.3 1 1.1.6 1.2-2.1.6-2.6-.5-3.3-.3-3.9 1.2-1 2.9-4.1 6.4-4.7 5.5-.3-.5.3-1.7 1.4-2.7 1-.9 1.6-2.3 1.3-3.1-.3-.8.3-2.1 1.3-2.9 1.4-1 1.6-1.7.8-2.5s.4-2.7 4.7-7c3.3-3.2 5.9-6.4 5.9-7 0-.7 1.3-2.9 2.9-4.9 1.5-2 3.6-5.1 4.5-6.9 2.4-4.6 10.5-28 9.9-28.6-.2-.2.8-3 2.3-6.1 2.2-4.4 3.2-5.5 4.7-5.1 4.7 1.2 7.3-7.4 4.6-15.3-.9-2.5-.8-3.5.3-4.9 3-3.7 3.9-7.2 2.6-10.3-.7-1.6-1.9-2.9-2.6-2.9-1 0-1.2-1.1-.6-4.8.7-4.9 2-9.2 2.8-9.2.3 0 .3 1.1 0 2.4-.4 2.6 1.6 4.9 3.7 4.1.8-.3 2.4-2.3 3.7-4.5 2.1-3.7 2.2-4.2.7-6.2-2.3-3.4-1.9-4.6 3-9 4.4-4 7.5-10.7 7.5-16.3 0-1.4 1-2.4 2.8-3.1 2.1-.8 3.1-2 3.5-4.2.7-3.5 4.5-7.5 6.5-6.7.7.2 1.5-.2 1.9-1.1.5-1.4 3.5-3.2 5.7-3.3.4-.1-.6 1.5-2.3 3.4zm130.9-1.1c0 1.5-3.7 3.2-4.7 2.2-.9-.8 1.7-3.6 3.3-3.6.8 0 1.4.6 1.4 1.4zm-391.5 8.3c1 1.5 2.7 3.5 3.8 4.4 1.8 1.4 2.4 1.4 4.8.2 1.6-.8 3.1-1.8 3.4-2.3.9-1.4 9.7.1 12.2 2 1.7 1.3 1.9 2 1 2.9-1.6 1.6-2.4 1.4-3-.8-.6-2.5-8.5-4-10.1-1.9-.6.8-1.9 1.7-2.8 2.1-1 .3-1.8 1.3-1.8 2.2 0 1-1 1.5-3 1.5-1.6 0-3 .4-3 1 0 2-1.5.9-4.2-2.9-3.1-4.3-3.7-9.8-1.7-14.8l1.2-2.8.7 3.2c.4 1.8 1.5 4.5 2.5 6zm26.7-6.5c-.6.6-1.5.8-1.9.4-.4-.4-.1-1.1.7-1.6 1.9-1.2 2.7-.3 1.2 1.2zm141 2.5c-2.6 1.9-4.2 1.5-4.2-1.1 0-2.3.2-2.4 2.9-1.3 2.7 1 2.8 1.2 1.3 2.4zm97.2-.9c-.4 2.1.1 3.6 2 5.9 2.9 3.4 3.3 5.3 1.3 5.3-3.5 0-6.1-6.4-4.5-11.1 1.3-3.7 1.9-3.8 1.2-.1zM197 434.2c.5 2.9 1.2 6.5 1.6 8 .6 2.6.4 2.8-2.2 2.8-4.4 0-9.6-3.6-9.2-6.3.2-1.4 1-2.2 2.2-2.2 1.1 0 2.1-.5 2.3-1.2.3-.7 1.1-.9 1.9-.6 1.1.4 1.4-.4 1.4-3.3 0-5.1 1-3.8 2 2.8zm48.1-4.8c-.7.8-1.6 4.3-2 7.8l-.8 6.3-.2-5.2c-.1-5.3 1.4-10.3 3.2-10.3.5 0 .4.6-.2 1.4zm95.6 1.6c1.4 0 1.4.2-.3 1.5-2.8 2.1-3.4 1.8-3.4-1.8.1-2.6.2-2.9 1.1-1.5.5 1 1.7 1.8 2.6 1.8zm-40.8 2.3c.1.5-.3.5-.9.2-.5-.3-1-1.6-.9-2.8 0-2.1.1-2.1.9-.2.5 1.1.9 2.4.9 2.8zm51.6-3.3c-.3.5-1.4 1-2.3 1-1.5 0-1.5-.2-.2-1 2-1.3 3.3-1.3 2.5 0zm12 .1c.4.5 0 1.8-.9 2.8-.9 1-1.6 2.3-1.6 2.9 0 1.1-4 .8-6.3-.5-1.4-.8.4-2.3 2.7-2.3 1.5 0 2.6-.7 2.9-2 .6-2.2 2.2-2.6 3.2-.9zm29.5.3c0 .8-.4 1.8-1 2.1-.5.3-1-.3-1-1.4 0-1.2.5-2.1 1-2.1.6 0 1 .6 1 1.4zM113.5 433c.8 1.6 1.5 3.8 1.5 5 0 3.2-2.9 8-4.8 8-.9 0-2.3-.9-3-2.1-1.1-1.7-.9-2.4 1.3-5.1 2-2.4 2.5-3.7 2-5.9-.9-3.8 1-3.8 3 .1zm232.8-2.3c-.7.2-1.9.2-2.5 0-.7-.3-.2-.5 1.2-.5s1.9.2 1.3.5zm115.1.2c.3.5-.1 1.4-.9 2.1-1.3 1-1.5.9-1.5-.9 0-2.1 1.4-2.8 2.4-1.2zM181 434.4c0 1.8-5.6 8.7-6.4 7.9-1-1-.7-4.5.4-3.8 1.7 1.1 3.1-.5 2.1-2.3-.6-1.1-.4-2 .7-2.8 1.9-1.4 3.2-.9 3.2 1zm189-1.5c0 .5-1.1 1.1-2.5 1.3-2 .4-2.3.3-1.4-.8 1.3-1.6 3.9-1.9 3.9-.5zm-118.8 2.6c-.2 1.4-.6 2.5-.8 2.5-.2 0-.4-1.1-.4-2.5s.4-2.5.9-2.5c.4 0 .6 1.1.3 2.5zm9.8-.5c0 2.2 5.2 12.8 10.8 22.2 2 3.3 3.2 6.6 3 8-.3 1.9-.6 1.4-2-2.3-.8-2.5-3.7-7.5-6.3-11-5.8-7.7-8.8-14.3-8-16.9.8-2.6 2.5-2.6 2.5 0zm86.8-.1c1.1.7 1 1-.3 1.5-1.9.7-3.5 0-3.5-1.5 0-1.1 2-1.2 3.8 0zm51.2.1c0 .5-.5 1-1.1 1-.5 0-.7-.5-.4-1 .3-.6.8-1 1.1-1 .2 0 .4.4.4 1zm63 3.5c-1 1.2-1.6 1.3-2.7.3-1.3-1-1.2-1.4.3-2.5 2.4-1.7 4.2 0 2.4 2.2zM235.2 441c.1 2.8.2 5 0 5s-1.4-1.2-2.7-2.8c-3.7-4.2-3.2-6.2 1.7-7.1.3 0 .8 2.2 1 4.9zm216.8-4c0 .5-.4 1-1 1-.5 0-1-.5-1-1 0-.6.5-1 1-1 .6 0 1 .4 1 1zm-167 2.1c0 .6-.4.7-1 .4-.5-.3-1-1.1-1-1.6 0-.6.5-.7 1-.4.6.3 1 1.1 1 1.6zm-153-.6c0 .9-8.2 4.6-9.3 4.2-1.5-.5 5.2-4.7 7.6-4.7.9 0 1.7.2 1.7.5zm32.4 4c5 3.5 16.6 16.6 19.1 21.4 6.3 12.4 13.5 37.2 12.8 44.6-.4 4.2.2 6.4 3.3 13.5 2 4.7 3.8 10.3 4 12.5.3 4.1 3.6 12.9 5.8 15.5 2 2.3 2.5 5.5 1.1 8-1 1.9-1.3 2-1.8.6-.4-.9-1.3-1.3-2.2-1-1 .4-1.5.2-1.3-.7.2-.9-.5-1.3-1.9-1.2-2.7.3-3-.9-.8-2.7 2.6-2.2.1-3.4-3.3-1.6-3.6 1.9-4.2 1.9-4.2.6 0-.5 1.3-1.6 2.9-2.5 2.4-1.2 2.9-2 2.7-4.2-.4-3-1.7-3.3-6.6-1.9l-2.5.7 2.8-2.4c3-2.5 2.7-4-.8-3.1-2 .5-2.2.2-1.8-2 .6-3-.8-3.3-5.1-1.1-4.5 2.4-4.2 1 .3-1.6 4.3-2.4 5-3.9 2.7-5.8-1.1-.9-2-.9-3.5-.2-3 1.6-3.6 1.3-1.7-.8 1.7-1.8 1.7-2-.1-3-1.7-1-1.7-1 .3-1.1 3.6 0 4.7-2.3 3.4-7-1.2-4.5-3.2-5.9-5.6-3.9-1.2 1-1.4 2.4-1 5.4.2 2.2.3 3.4 0 2.7-.3-.6-1.6-1.2-2.8-1.2-1.2 0-3.3-1.4-4.8-3-1.4-1.7-2.3-3-2-3 .3 0-.9-1.6-2.8-3.5-3.2-3.3-3.5-3.4-5.7-2-2.3 1.5-3.2.8-1.4-1.1.6-.5.5-2.5-.2-5.2-.8-3-1.9-4.5-3.8-5.4-1.6-.7-3-2.1-3.3-3.1-.4-1.5-1-1.8-3-1.3-3.2.8-3.2.4-.1-3 3-3.2 3-3.6.6-5.8-1.5-1.3-2.4-1.4-4.6-.6-2.3.9-2.6.8-2.1-.5.8-2.3-2.2-3-4.3-1.1-3 2.7-3.7-.1-1-3.2 4.2-4.8 5.9-5.4 5.9-2.2 0 2.4 1.3 2.6 3.1.4.7-.9 3.4-2.6 6.1-3.9 4.1-2 4.9-2.1 5.9-.8 1.6 1.9 5.3 1.3 5.7-1 .4-2-4.9-7.7-7.3-7.7-.9 0-3.2 1.2-5.1 2.7-2.9 2.2-3.7 2.4-4.5 1.2-.5-.8-.6-2.1-.3-2.9 1-2.8.9-3.5-.6-3.1-.8.3-3.2.4-5.2.3-2.1-.1-3.8.2-3.8.7 0 .4 1.1 2.5 2.5 4.4 2.3 3.5 2.4 3.7.5 4.7-4 2.2-7 .4-3.2-2 1.2-.8 1.3-1.3.5-1.6-.7-.3-1.3-1.4-1.3-2.4s-.9-2.1-1.9-2.5c-2.1-.6-3.6-3.8-2.7-5.4.3-.5 1.8-1.2 3.2-1.5 2-.5 3.3-.1 5 1.5 3.2 3 5.6 1.9 5.3-2.5-.2-1.9 0-3.8.4-4.2 1.6-1.7.5-2.5-2.5-1.9l-3.3.6 2.9-1.7c2.4-1.3 3.3-1.4 5.2-.4 3.2 1.8 5.2.7 6-3.4.3-2 1.1-3.6 1.8-3.6.6 0 3.3 1.6 6 3.5zm133.6-2.3c-.1 1.5-6.6 5.9-7.4 5-.3-.3.8-1.3 2.4-2.3 1.7-1.1 3-2.3 3-2.9 0-.5.5-1 1-1 .6 0 1 .6 1 1.2zm65 .2c0 .8-.7 1.7-1.6 2-3 1.1-3.7.6-1.9-1.4 2.1-2.3 3.5-2.6 3.5-.6zm103.8.4c.5 1.5-2.3 2.6-4.5 1.8-1.4-.6-1.4-.8.3-2.1 2.1-1.6 3.6-1.5 4.2.3zM101 441c0 .5-.4 1-.9 1-.6 0-1.3-.5-1.6-1-.3-.6.1-1 .9-1 .9 0 1.6.4 1.6 1zm45.5 0c.9 1.5-5.7 5.2-7 3.9-.7-.8-.7-1.3.1-1.6.6-.2 2-1 3-1.8 2.3-1.7 3.1-1.8 3.9-.5zm141 1.9c.3.5.1 1.2-.5 1.6-.5.3-1-.1-1-.9 0-1.8.6-2.1 1.5-.7zm109.1 2.8c-.7 1.7-.8 1.7-1.7 0-1.2-2.1-.2-4.4 1.3-2.9.6.6.8 1.9.4 2.9zM181 444.5c.7.8.9 2.3.5 3.2-.6 1.6-.8 1.6-2.6-.6-1-1.3-1.9-2.7-1.9-3.2 0-1.4 2.6-1 4 .6zm62.7 2.7c-.3.7-.5.2-.5-1.2s.2-1.9.5-1.3c.2.7.2 1.9 0 2.5zm-141.7-.1c0 .5-.4.9-1 .9-.5 0-1-.7-1-1.6 0-.8.5-1.2 1-.9.6.3 1 1 1 1.6zm25.5-1.1c-.3.5-1.4 1-2.3 1-1.5 0-1.5-.2-.2-1 2-1.3 3.3-1.3 2.5 0zm5.5 3c0 .5-.9 1.1-2 1.5-1.1.3-4.3 2.2-7.1 4.2-3.5 2.4-5 3-4.6 1.8.4-.9.7-2.3.7-3 0-.9.7-1.1 2.1-.8 1.3.4 2.6 0 3.3-.8 2.8-3.8 7.6-5.6 7.6-2.9zm98.7-.5c.9 2.5-.4 2.9-1.7.6-.7-1.5-.7-2.1 0-2.1.6 0 1.3.7 1.7 1.5zm125.2 1c1.6 1.8 1.9 2.5.9 2.5-.8 0-2.3.9-3.3 2-1.7 1.9-1.7 2.1 0 4 2.4 2.6 9 2.5 9-.2 0-.9.4-2 .8-2.4.4-.5-.2-1.6-1.5-2.6l-2.3-1.8h2.8c1.5 0 3-.1 3.4-.3.4-.1.9.7 1.2 1.8.2 1.1 1.2 3.1 2.2 4.4 1.1 1.3 1.9 3.2 1.9 4.2 0 2.6 1.5 2.4 3.3-.5.9-1.3 2.9-2.6 4.6-2.9 1.8-.4 3.6-1.7 4.6-3.4 1.5-2.7 1.5-2.7.9-.3-1 3.6-4.1 7.8-6.4 8.5-2.6.8-2.6 3.1.1 3.8 1.7.5 1.9.9 1 2.6-.8 1.4-.8 3.5 0 7.3.6 2.9.9 8.4.6 12.3-.3 4.4 0 8.4.8 10.7 1.1 3.2 1 3.9-.2 5-.9.7-2.7 1.1-4.2 1-1.9-.2-3.5.6-5.6 2.7-1.6 1.7-3.5 3.1-4.2 3.1-.8 0-1.9 1.3-2.4 2.9-.6 1.6-1.8 3.2-2.7 3.5-.9.3-2.3.9-2.9 1.2-.9.4-1.3-.5-1.3-2.9 0-2.1-.7-4.1-2-5.2-2.6-2.3-2.5-4.6.1-6.8 1.6-1.4 1.9-2.5 1.4-4.7-.8-3.7.7-3.9 3.7-.5 1.2 1.4 2.5 2.5 2.9 2.5 1.7 0 2-4.1.5-6.2-2.7-3.8-2-8 1.9-11.8 3.3-3.2 4.5-6 2.6-6-.5 0-1.4.7-2.1 1.6-1.3 1.4-7.3 4.4-9.1 4.4-1.4 0-3.9-3.1-3.9-4.8.1-1.5.2-1.5 1.5.1 1.8 2.5 5.9 1.4 5.2-1.3-.3-1.3.1-2 1.4-2.2 3.3-.5 2.6-2.3-1.1-2.6-1.9-.2-3.9-1-4.3-1.8-.4-.8-1.4-1.4-2.1-1.4-.7 0-1.8-2.3-2.5-5.4-1.3-6.1-2.9-7.9-6.2-7.4-4 .6-3.1-2 1.5-4.7 2.5-1.5 4.6-3.1 4.6-3.6 0-1.7 2.5-.9 4.9 1.6zm22.1 3c-4.2 4.3-6 4.5-6 .5 0-2.2.5-3 1.8-3 1 0 2.7-.6 3.8-1.4 3.6-2.8 4 .2.4 3.9zm-308.8-2.3c-.7.7-1.2.8-1.2.2 0-1.4 1.2-2.6 1.9-1.9.2.3-.1 1.1-.7 1.7zm135.2.2c.3 1.3.9 3.1 1.2 4 .4 1.2 0 1.6-1.5 1.6-2.6 0-3.6-2.1-2.7-5.5.8-3.2 2.2-3.2 3-.1zm16.6 1.2c0 .8-.4 1.2-1 .9-.5-.3-1-1.3-1-2.1s.5-1.2 1-.9c.6.3 1 1.3 1 2.1zm28.6 4.2c-.8.7-2.4-.7-4.7-4.1l-2.2-3.2 3.6 3.4c2 1.9 3.5 3.7 3.3 3.9zm52.4-5.2c0 1.7-2.2 1.4-2.8-.4-.2-.7.3-1.2 1.2-1.2.9 0 1.6.7 1.6 1.6zm-164-.1c0 .3-2.7 1.8-6 3.5s-6 2.5-6 2c0-.6 2.4-2.2 5.3-3.5 5.4-2.5 6.7-2.9 6.7-2zm334.4 4.5c4.4 4.9 4.7 6.1.6 2.7-1.6-1.4-3.9-2.8-5-3.2-2-.6-2.5-1.6-1.3-2.8 1.2-1.2 2-.7 5.7 3.3zm-65.3.2c1.1 2.1 1.1 2.2-.4.9-1-.7-1.7-1.7-1.7-2.2 0-1.5.9-1 2.1 1.3zm-165.8 5.1c-.3.4.3 2.4 1.2 4.3.9 2 1.4 3.8 1.1 4.1-.3.4-.6.1-.6-.5s-1.6-3.1-3.5-5.7c-2.6-3.3-3.4-5.2-2.9-6.7.6-2 .7-1.9 2.9.8 1.3 1.6 2.1 3.3 1.8 3.7zm20.2-.8c2.3 4.1 2.6 6.5.7 6.5-1.4 0-5.2-7-5.2-9.5 0-3.4 1.2-2.6 4.5 3zM224 458c-1.8 1.1-2.2.7-1.4-1.4.5-1.3 1-1.4 1.8-.6.8.8.7 1.3-.4 2zm-127.5-.3c-.3.8-.5 3.7-.5 6.4 0 4.5-.2 5-1.9 4.4-2.3-.7-3.7 1.1-2.2 2.9.9 1.1.5 1.5-2 2-3.3.6-3.5 2.7-.3 3.6 1 .3 1.9 1.2 1.9 2s1 1.6 2.3 1.8c1.2.2 2.2-.2 2.2-.9 0-.6.8-1.8 1.8-2.5 1.6-1.3 1.6-1.5-.2-2.9-1.6-1.2-1.7-1.5-.4-2 .9-.4 1.8-2.3 2.2-4.5.5-3 1.1-3.9 3.2-4.4 1.5-.4 2.7-.6 2.8-.4 0 .2.7 1.3 1.4 2.5 1.8 3.3 1.5 5-1 4.9-1.7-.1-2.8 1.2-5.1 5.7-3.6 7.3-6.3 8.7-11.4 6.3-1.9-.9-3.8-1.5-4-1.2-1.4 1.4 1.1 3.6 5.8 5.4 4.3 1.6 5.3 2.4 5.3 4.4.1 1.4 1.7 4.1 3.6 6.1 3.4 3.6 6.3 4.7 7.5 2.7 1-1.6 3.5-1.2 3.5.6 0 1.1-.6 1.4-2.1.9-2.3-.8-2.3-.1-.4 6.2.6 1.7.3 2.3-.9 2.3-.9 0-2.5.5-3.5 1.1-1.5 1-3 .6-8.7-2.4-3.8-1.9-8.3-4.1-10-4.9-1.7-.7-4.9-3.5-7.2-6.1-4.1-4.7-4.2-4.9-2.7-7.7 1-1.9 1.1-3.1.4-3.5-.7-.5-.6-1.1.2-2.1 1.6-2 .2-3.1-2.1-1.6-2.8 1.7-4.6 1.6-3-.3.7-.8 2.1-1.5 3.1-1.5s2.4-1 3-2.2c.9-1.7.9-2.4-.5-3.3-2.3-1.7-2-4.2.9-7.7 1.7-2 2.3-3.7 1.9-5.3-.6-2.6 1.1-4.3 2-2 .7 1.8 6.7 2 8.4.3.7-.7 1.2-2 1.2-2.9 0-1.3.8-1.7 3-1.7 2.3.1 2.9.5 2.5 1.5zm108 9.3c.7 1.4 1.5 3.8 1.9 5.5l.6 3-1.8-2.5c-.9-1.4-3.1-4.1-4.8-6-3-3.3-5.4-7.2-5.4-8.5 0-1.3 8.3 6.1 9.5 8.5zm-79.4-6c-2.5 2.1-4.1 2.6-4.1 1.2 0-.9 3.8-3 5.5-3.1.6 0-.1.9-1.4 1.9zm288.9-.5c.6.8 1 2.2.8 3.2-.3 1.4-.8 1.2-2.6-1.5-1.8-2.4-2-3.2-.9-3.2.8 0 2 .7 2.7 1.5zm-71.5 4.3c-.8.8-3.5-2-3.5-3.7.1-1.2.5-1.1 2.1.8 1.1 1.3 1.7 2.6 1.4 2.9zm-129.1-2.3c.4 1.1-.3 1.9-2.1 2.6-3.5 1.3-5.5-.5-2.7-2.6 2.5-1.9 4-1.9 4.8 0zM258 465c.6 1.1.8 2 .6 2-.3 0-1-.9-1.6-2-.6-1.1-.8-2-.6-2 .3 0 1 .9 1.6 2zm-25.6-.2c.3.5-.8 2.2-2.4 3.7-3.4 3.2-4.3 1.5-1.2-2.3 1.8-2.3 2.8-2.7 3.6-1.4zM137 466c-.8.5-1.9 1-2.5 1-.5 0-.3-.5.5-1s2-1 2.5-1c.6 0 .3.5-.5 1zm213.3 2.9c2.4 5.3 2.1 6.1-.8 2.1-2.4-3.3-3.2-6-1.7-6 .4 0 1.5 1.8 2.5 3.9zm118.2-2.9c-.3.5-1 1-1.6 1-.5 0-.9-.5-.9-1 0-.6.7-1 1.6-1 .8 0 1.2.4.9 1zm-397.1 2.4c.9 1.4 1.2 2.7.7 3-.8.5-4.1-3.5-4.1-4.9 0-1.3 1.9-.3 3.4 1.9zm52.1-.4c-1 1.1-2.3 2-2.9 2-.6-.1 0-1 1.3-2 3-2.6 3.9-2.6 1.6 0zm269.3.2c-.6 1.8-2.8 2.1-2.8.4 0-.9.7-1.6 1.6-1.6.9 0 1.4.5 1.2 1.2zm-96.9 2.4c-.6.7-1.5 1.1-2.1.8-.5-.3-.4-1.2.3-2 .6-.7 1.5-1.1 2.1-.8.5.3.4 1.2-.3 2zm-84 2.4c0 1-.3.8-.9-.5-1.2-2.7-1.2-4.3 0-2.5.5.8.9 2.2.9 3zm55.1-.2c0 3.7-2.6 12.2-4.5 14.6-1.2 1.6-1.8 1.7-2.7.8-2.1-2.1-4.8-1.3-9.8 2.9-2.7 2.3-5.4 3.9-6.1 3.7-.7-.2 1.1-1.9 3.9-3.7 5.9-3.8 9.9-8.1 10.8-11.7.5-1.8 1.2-2.4 2.8-2.2 1.6.2 2.2-.3 2.4-2.2.4-3.7 1-5 2.2-5 .5 0 1 1.3 1 2.8zm68.6.9c-.4.4-1.1.1-1.6-.7-1.6-2.5-1.1-3.5.7-1.7.9.9 1.3 2 .9 2.4zm82.8 4.3c.5 2.3.4 3-.2 2-.5-.8-1.2-3.3-1.6-5.5-.7-4.8.8-1.9 1.8 3.5zm-292.9-5c-.3.5-1.2 1-1.8 1-.7 0-.6-.4.3-1 1.9-1.2 2.3-1.2 1.5 0zm125.5.5c2.9 3.5-1.9 12.2-7.8 14-2.5.7-8.2-1.1-8.2-2.6 0-1.2 1.4-1.1 2.6.1 1.4 1.4 8-1.4 9.4-3.9 1.4-2.8 1.2-4.1-.6-4.1-1.1 0-1.4-.5-1-1.6.3-.9.6-2 .6-2.5 0-1.5 3.6-1 5 .6zm226-1.1c0 .2-.7.7-1.6 1-.8.3-1.2.2-.9-.4.6-1 2.5-1.4 2.5-.6zm5.5 3.6c-.5.8-1.1.8-1.7.2-.6-.6-.7-1.6-.3-2.2.5-.8 1.1-.8 1.7-.2.6.6.7 1.6.3 2.2zM237 474.9c0 .5-.6 1.4-1.4 2-1.6 1.3-3.2-.2-2.1-1.9.8-1.2 3.5-1.3 3.5-.1zm209 3.1c0 .5-.7 1-1.6 1-.8 0-1.2-.5-.9-1 .3-.6 1-1 1.6-1 .5 0 .9.4.9 1zm-114.9 2.2c2.1 2.5 4.2 5.8 3.6 5.8-.1 0-2.1-1.8-4.2-4s-3.3-4-2.6-4c.7 0 2.1 1 3.2 2.2zm-201.7 1.3c-2.2 1.7-4.8 2-3.9.4.8-1.2 4.8-2.9 5.4-2.3.3.2-.4 1.1-1.5 1.9zm325.5 2.4c1.9 2.4 2.7 4.2 2.1 4.6-2.1 1.3-1 2.7 1.8 2.1 2.5-.6 2.5-.5.9.8-2 1.5-.8 3 1.6 2 .8-.3 1.8-.1 2.1.5.4.6-.5 1.3-1.9 1.7-1.3.3-2.3 1-2 1.4.3.5 1.4.6 2.5.3 3-.8 2.4.6-.7 1.9l-2.8 1.2 3.3.4c6.1.6 3.5 2.5-7.3 5.2-2.7.7-5.8 1.4-6.7 1.7-1 .3-1.8.1-1.8-.5 0-.5 2.7-1.8 6-2.8 3.3-1.1 6-2.2 6-2.7 0-1.2-3.8-.8-7.7.8-4.1 1.7-5.7 1.9-4.8.6.3-.5 2.8-1.7 5.5-2.6 2.8-.9 5-2 5-2.5s.3-1.5.6-2.4c.4-1.1.1-1.6-1.1-1.6-.9 0-1.4-.4-1-1 .3-.5.2-1.7-.3-2.7-1.4-2.7-4.2-9.3-4.2-9.8 0-1.5 2.2 0 4.9 3.4zm-350.4-1c1 1.7-1.2 2.1-2.5.6-1-1.2-1-1.5.3-1.5.9 0 1.8.4 2.2.9zm316.5-.5c0 1.1-1.9 1.5-2.5.6-.3-.5.1-1 .9-1 .9 0 1.6.2 1.6.4zm-287.2 2.8c-1.7 2.5-4.8 3.6-4.8 1.7 0-1.4 3-3.8 4.9-3.9 1.1 0 1.1.4-.1 2.2zM74 487c0 .5-.4 1-1 1-.5 0-1-.5-1-1 0-.6.5-1 1-1 .6 0 1 .4 1 1zm29.4 1.1c-.3.5-1 .7-1.5.3-.5-.3-.7-1-.3-1.5.3-.5 1-.7 1.5-.3.5.3.7 1 .3 1.5zm42.5 1.5c-3.2 3.4-4.4 3-1.8-.6 1.2-1.6 2.6-2.7 3.1-2.4.5.4-.1 1.7-1.3 3zm56.2 2.7c-.8.8-1.1.2-1.1-1.9 0-4 1.4-5.4 1.8-1.9.2 1.5-.1 3.2-.7 3.8zm217.6-2.1c-.3.7-.5.2-.5-1.2s.2-1.9.5-1.3c.2.7.2 1.9 0 2.5zm17.1-.8c.3 1.2-.1 1.7-1 1.4-.7-.3-1.5-1.3-1.6-2.2-.3-1.2.1-1.7 1-1.4.7.3 1.5 1.3 1.6 2.2zm-367 1.9c.2 1.1-.3 1.7-1.4 1.7-1 0-2.6.7-3.6 1.7-2.7 2.4-2.4-.5.4-3.4 2.4-2.6 4.1-2.5 4.6 0zm66.9-1.7c-.3.3-1.2.4-1.9.1-.8-.3-.5-.6.6-.6 1.1-.1 1.7.2 1.3.5zm102.3 4.7c.8.3-.4.6-2.7.6-3 .1-4.9-.5-6.3-1.9-3.4-3.4-2.2-4.1 2.8-1.7 2.6 1.4 5.4 2.7 6.2 3zm118-1.4v2.6l-1.5-2.9c-1.9-3.5-1.9-3.7 0-3 .8.4 1.5 1.8 1.5 3.3zm-6.9-.2c-.8 1.5-1 1.5-1.1.2 0-1.7 1-3.2 1.8-2.5.2.3-.1 1.3-.7 2.3zm60.6 1.1c7.7 5.1 15.7 14.8 22.7 27.5 3 5.4 7.6 12.3 10.2 15.4 2.7 3.1 4.8 6.4 4.6 7.3-.1 1 .4 2.3 1.3 3 .9.7 1.5 2.9 1.5 5.2 0 3-.7 4.5-2.7 6.5-4.4 4-17.6 13.9-25.2 18.8-7.7 5-9 7.2-6.6 10.8 1.1 1.8 1.5 4.5 1.4 9.8-.2 6.7 0 7.4 2.5 9.5 3.3 2.9 3.3 3.4-.4 3.4-3.9 0-5.3-2.4-7.5-12.5-2-9.5-3.1-12.5-4.5-12.5-1.3 0-.3 13 1.5 19 .8 2.5 2.4 8.9 3.6 14.2 2 9.1 2.1 10.6 1.1 25.5-.6 8.7-1.8 18.3-2.7 21.3-.8 3-2.7 10.9-4 17.5-1.4 6.6-3 13.1-3.5 14.5-.5 1.4-1.1 5.4-1.2 8.9-.2 3.9-.9 6.6-1.6 6.9-.7.2-1.2-.6-1.2-1.9 0-2-.2-2.1-1.4-.9-1.9 2-4.7 11.8-3.6 12.5 1.2.7 3.3-3.3 2.4-4.7-.4-.6-.1-.9.7-.6 2.4.8 1.7 21.8-1 29.3-4.1 11.4-9.2 32.8-8.8 37 .3 3.5 1.4 5 7.3 10.5 13.8 13 12.9 12 11.1 13.7-1.4 1.4-1.8 1.4-4.3-.6-2.9-2.3-4.9-2.7-5.9-1.1-.3.6.7 1.8 2.4 2.8 3.8 2.1 3.9 3.2.5 3.2-3.2 0-6.4-1.6-8.6-4.4-.9-1.1-4.5-3.2-8-4.6-6.2-2.5-6.3-2.6-6-6 .1-1.9.4-5.8.6-8.5.2-2.8 1.1-9.1 1.9-14 .8-5 1.3-9.3 1.1-9.6-.2-.4-.4-7.2-.5-15.3 0-10.4.5-16.8 1.7-22.3 1.4-6.5 1.5-9.1.6-16.8-.6-4.9-1.1-15.7-1.1-23.8-.1-8.2-.4-16-.7-17.3-1.2-4.8-2.2-2.2-2.9 7.3-.3 5.4-1 14.5-1.5 20.2-.9 9.3-.8 11.3 1 17.6 1.7 6.2 1.8 7.8.8 12.1-.7 2.8-1.3 14.6-1.4 27.6-.2 12.8-.7 23.6-1.3 24.6-.6 1.1-1.3 5-1.7 8.8l-.7 6.9-7.4 7.2c-4 4-7.8 7.3-8.3 7.3-2 0-2-2.2 0-5.4 2.7-4.4.9-5.8-2.9-2.2-3.1 3-5.1 2-5.1-2.5 0-2.1 1.4-3.7 6.6-7.8 3.7-2.8 7.2-5.1 7.8-5.1.7 0 2.3-1.4 3.6-3.2 2.2-3 2.3-3.4 1.1-11.1-.7-4.4-2.2-10.3-3.3-13.1-1.1-2.8-2.7-8-3.5-11.6-.7-3.6-1.8-8.3-2.4-10.5-2.3-9.2-3-15.3-2.3-20.5 1-7.2.7-9.9-1.6-14.6-1.1-2.1-2-5-2-6.4 0-1.4-1.6-10.6-3.6-20.5s-4-20.1-4.6-22.8c-.5-2.6-.7-12-.4-21 .8-23.3.8-26.6.3-42.2-.2-7.7-.7-14.8-1.2-15.8-1.3-3-3.5-2-3.5 1.7 0 2.2-.6 3.6-1.6 4-1.3.5-1.4.2-.9-1.1 1.4-3.2 1.8-8.3.6-8.3-.6 0-1.8 1.5-2.7 3.2-1.9 3.9-5.3 7.8-6.7 7.8-.6 0-1.8.6-2.6 1.4-.9.8-4.7 2.6-8.6 4.1-3.8 1.5-7.7 3.4-8.6 4.1-.8.8-3 1.4-4.8 1.4-1.7 0-4.9.9-7.1 2-2.1 1.1-4.5 1.7-5.3 1.5-1.6-.7-3.7 3.4-3.7 7.3 0 4.7-3.3 8.8-7.5 9.5-2.1.3-4.6.2-5.5-.3-1-.5-2-.7-2.3-.3-.4.3-1.3 0-2.1-.6-.8-.7-2-1-2.5-.7-.9.6-4.1-3-4.1-4.6 0-1.5 2.8-.8 3.4.8.5 1.3.9 1.4 2 .4 1.2-.9 1.7-.7 2.6.9 1.4 2.8 3.2 2.7 2.8-.1-.2-1.3-1.6-2.9-3.3-3.8l-3.4-1.7c-.2-.1 1.1-1.6 2.8-3.4 2.8-2.8 3.6-3.1 7-2.5 2.7.4 4.2.2 5-.8 1.8-2.2-7.4-2.8-11.6-.8-4.8 2.3-5.4.6-1.1-3.4 2.8-2.5 4.7-3.4 7.2-3.4 4.8 0 9.5-2.2 15.2-7.2 10-8.9 15-12.5 19.6-14.2 2.6-1 5-2.2 5.4-2.7.3-.6.7-3.6.9-6.7.8-12.9 1.6-20.9 2.5-24.2.6-1.9 1-8.2 1-13.8 0-11.3 1.1-15.1 5.6-19.3 2.2-2 3.8-2.4 10.5-2.8 7.8-.3 7.9-.3 7.9 2.2 0 1.3.6 3 1.4 3.6 1 .8 1.3 3.9 1.1 12.9l-.3 11.7-3.1.3c-3.5.4-4.1 2.1-1.1 2.9 2.4.6 2.4.5.1 4.9l-2 3.7-.7-2.7c-1-4.2-2.9-2.5-2.7 2.5.6 11.9.4 14.6-1.6 19.2-3 7-2.8 8.1 2 10 3.6 1.4 4.5 1.5 6.9.2 3.6-1.9 5.8-9.1 4-13.4-1.2-3.1-.3-6.2 2.3-7.8 1.5-.9 3.5-5.2 6.3-13.1 1.3-3.7 2.8-5.9 5.4-7.7 4-2.8 5.6-3.1 6.2-1.3.6 1.6 2.8 0 2.8-2.1 0-1 2-2.7 5.5-4.5 3.2-1.6 5.5-3.4 5.6-4.4.2-4.6.7-6.3 2.2-8 .9-1 1.7-2.4 1.7-3 0-.7 1.1-1.2 2.5-1.2 1.9 0 2.6-.7 3.1-2.8.4-1.5 1.6-3.9 2.6-5.5 2.7-3.8 8.7-3.8 14.5.1zm-19.7-.6c0 2.4-1.8 4.1-3.4 3.5-1.4-.5-1.5-1.1-.6-2.7 1.2-2.2 4-2.7 4-.8zm62 .6c0 .7-6.3 4.2-7.5 4.2-2.6 0 3.5-4.2 7.3-4.9.1-.1.2.3.2.7zm-190.4 4.7c-.9 1.4-2.1 2.5-2.7 2.5-1.1 0-.4-1.5 1.9-4.3 2.2-2.5 2.8-1.2.8 1.8zm-188.1 2.3c-.6.7-3.5-1.8-3.5-3.1 0-.5.9-.2 2 .8s1.8 2 1.5 2.3zm152.6-.8c1.4 1.1 1.8 1.9 1.1 2-1.9 0-5.2-1.9-5.2-3 0-1.6 1.6-1.2 4.1 1zm-156.2 3.6c2.3 2.5 5 4.4 5.9 4.3 3.3-.3 4.4.1 3.9 1.5-.7 1.8 4.7 6.7 10.3 9.6 3.7 1.9 4.4 2 8.3.6 3.6-1.2 4.4-1.2 5.8 0 .8.8 3.4 1.4 5.7 1.4 3.4 0 4.8-.6 7.7-3.5 1.9-2 3.5-4.2 3.5-5 0-2.1-7.2-7.7-8.4-6.5-1.4 1.4-2.6 1.2-2.6-.4 0-4.3 6.3-1.7 10.8 4.5 3.4 4.5 3.3 6.1-.4 7.7L119 519l2 3.5c2.9 5.2 2.6 9.8-.9 13.7-2.6 2.9-3.5 3.3-7.7 3.1-5.6-.2-9.1-2.4-11.9-7.6-3.4-6.3-6.9-4.3-3.6 2.1 2.7 5.3 7.3 9.5 11.8 10.8 3.4.9 3.9 1.6 4.9 5.5.7 2.4 1.2 9 1.3 14.6 0 8.8.4 11 2.5 15.5 1.4 2.9 2.8 7.3 3.1 9.8.4 2.5 1.3 8.1 2.2 12.5 2.1 11 .5 37.5-3.7 60-1 5.5-2.3 12.5-2.9 15.5-.6 3-2.1 12.5-3.5 21-3.9 24.1-5.7 33.4-6.9 34.8-.6.8-1.2 4.7-1.2 8.8-.1 4.2-.7 8-1.3 8.6-.7.7-1.2 2.7-1.2 4.4 0 1.8-.5 4.5-1 6-.6 1.4-1.2 5.5-1.5 9.1-.2 3.5-1 7.2-1.7 8-1.1 1.3-1 1.8.6 2.7 1 .6 3.7 2.5 6 4.1 5.1 3.8 6.8 4.6 13.1 5.9 6.4 1.4 6.7 3.7.7 5-3.2.7-6.1.5-11.1-.7-4.7-1.2-8.8-1.5-12.8-1.1-5.6.6-6.1.5-8-2-1.2-1.4-2.4-2.6-2.7-2.6-.3 0-1.3 1.5-2.2 3.3C76 804.5 71.3 811 68.7 811c-2.2 0-3-3.1-1.2-5 .8-.9 1.5-2 1.5-2.3 0-1.4-3.4-.6-5.4 1.2-1.2 1.1-3 2.1-4.1 2.3-1.7.2-1.9-.2-1.7-2.7.4-3.6 4.1-10.5 5.7-10.5.6 0 2.7-2.1 4.6-4.8 4.9-6.5 6.4-13.8 5.3-24.4-.5-4.6-.9-14.6-.9-22.3.1-13.1.2-14.4 2.9-20.9 2.5-6.1 2.9-8.2 2.7-15.9-.1-5.9-.7-10.1-1.8-12.5l-1.7-3.7-.7 13c-.7 14.9-3.8 28.1-9.2 39.8-4.2 9.1-7.3 11.7-13.7 11.7-4.3 0-5.1-.4-8.2-3.8-3.2-3.6-5.1-7.5-7.6-15.7-.7-2.5-1.4-3-4-3.1-4.2 0-5.1-1.1-2.4-3 1.2-.8 2.2-1.9 2.2-2.4 0-1.6-3.2-4.1-4.6-3.6-1.9.7-4.4-.4-4.4-2 0-.7-.9-1.9-2.1-2.7-1.3-1-2.3-3-2.6-5.7l-.6-4.2 2.5 1.6c2.4 1.6 2.5 1.5 3.6-.9.7-1.4 1.2-3.2 1.2-4 0-.8.4-1.5.9-1.5 1.8 0 3.6 3.4 3.6 6.9 0 2.5.4 3.5 1.4 3.3.7-.1 1.8.4 2.5 1.2.9 1.3 1.5 1.4 3.6.3 2.1-1.1 2.4-1.9 2.2-4.7l-.4-3.5 2.2 2c1.6 1.4 2.4 1.6 2.7.7.3-.6 1.5-1.2 2.8-1.2 1.6 0 3.3-1.2 5.1-3.5 3.3-4.3 5.4-3.3 5.4 2.6 0 3.5.3 3.9 2.5 3.9 1.4 0 2.5.2 2.5.3 0 1.2-8.9 10.1-10.7 10.8-1.2.4-2.3 1.8-2.5 3.1-.2 1.5-1.1 2.4-2.6 2.6-3.5.5-4.3 3.2-2.7 9.1 1.6 6.3 2.8 7.8 7.3 9.7 3.3 1.4 3.7 1.3 5.9-.8 4.7-4.4 10.2-17.8 12.3-30 1.2-6.5.9-22-.5-28.3-.4-1.7-.1-4.4.5-6 1-2.7 1.3-2.8 2.4-1.3 2.3 3.1 2.5.8.5-5.5-2.8-9.2-7-21.1-7.9-22.2-1.1-1.5-4.1-15.8-5.4-26-1.6-12.5.7-26.3 5.8-35.4 3.3-5.8 3.6-7 3.6-14.4 0-12.1-7.4-36.7-10.2-33.9-1.2 1.2-.3 6.6 2.8 16 1.8 5.4 1.8 13.4 0 19.8-.7 2.7-1.9 8.3-2.5 12.4-.7 4.1-1.6 9.1-2.1 11-.5 1.9-1.4 7.8-2 13-.6 5.2-2 12.2-3.1 15.5-1 3.3-1.9 6.9-1.9 8 0 1.1-1 4-2.3 6.5-1.9 3.8-2.9 4.7-6.9 6-5.2 1.7-11.1 6.7-10.4 8.7.8 1.9-.5 7.3-1.7 7.3-1.6 0-.1-10.3 2.1-14.6 1.1-2.2 3-4.8 4.2-5.9 3.7-3.4 6.3-10 6.4-16.8 0-3.4-.3-12.1-.7-19.2-.7-10.4-.5-14.4.7-19.6 1.8-8.1 2.1-13.4 1.2-27.5-.4-6.8-.2-14.6.5-20 .6-4.9 1.2-10.9 1.4-13.4.7-10.8 3.4-17.8 8.9-23 2.6-2.3 12-7.5 14.2-7.9.6 0 3 1.9 5.3 4.5zm167.4-2.2c1.9 1.4 2.3 3.6.7 3.6-.6 0-1.3-.7-1.6-1.5-.4-.8-1.7-1.5-3-1.5s-2.4-.5-2.4-1c0-1.4 4.2-1.2 6.3.4zm12.2 4.3c-.8 3.4-1.1 3.7-2.4 2.9-.7-.5-.7-1.5.1-3.1 1.5-3.4 3.2-3.2 2.3.2zm216.6.8c-.1 1.5-2.4 1.2-2.9-.3-.3-.9.2-1.3 1.2-1 1 .1 1.7.7 1.7 1.3zm-377.1 4c1.3 1.4 2.9 2.5 3.7 2.5.7 0 1.3.4 1.3.8 0 .9-8.6-.1-9.6-1.1-.8-.7.5-4.7 1.5-4.7.4 0 1.8 1.1 3.1 2.5zm373.4-.9c.9.3 1.6 1.4 1.6 2.4s.4 2 1 2.2c.5.1 1.2 1.7 1.6 3.4.5 2.7.2 3.2-2.4 4.3-2.1.9-3.5 2.5-4.7 5.7-1.7 4.6-4.3 7.5-3 3.4.7-2.1.5-2.2-2.7-1.5-3.7.8-6.2 2.5-3.5 2.5.9 0 1.7.4 1.7 1 0 .5-.7 1-1.6 1-.8 0-1.2.5-.9 1 .4.6 1.6.8 2.8.4 2.1-.6 2.1-.5.5 1.2-1.7 1.7-1.8 1.7-3.8-.1-1.1-1-2-2.8-2-4.1 0-1.8 1-2.6 4.8-4 2.6-.9 5.1-2.1 5.7-2.6 1.4-1.2-1.5-.9-6 .7-4.8 1.7-4.5 1.7-4.5.6 0-.5 1.6-1.2 3.6-1.6 4.3-.8 8.4-2.5 8.4-3.6 0-.4-1.7-.2-3.7.3-6.9 1.8-9.6 2.1-9 1.1.4-.5 3.7-1.8 7.4-2.7 10.2-2.6 9.7-2.4 8.3-4.1-.7-.8-1-1.5-.6-1.5s-.1-1.1-1-2.5-2-2.2-2.5-1.9c-1.3.8-11.3 3.3-11.7 2.9-.6-.5 10.2-4.4 12.5-4.4 1.2-.1 2.8.2 3.7.5zm33.8 3.4c-.2 1.6-.8 3-1.3 3-1 0-1.2-3.1-.3-5.4 1-2.6 2.1-.9 1.6 2.4zm-270.8-.6c-.3.9-1 1.6-1.5 1.6-1.4 0-1.1-2.8.4-3.3 1.6-.6 1.9-.3 1.1 1.7zm42 2c.4 1.8.3 4.2-.1 5.2-.6 1.6-.8 1.4-1.4-1.1-1-4.5-1-7.5 0-7.5.5 0 1.2 1.5 1.5 3.4zm109.2-2.3c1 1.7-2.3 4.6-3.8 3.1-.8-.8-.8-1.5.2-2.7 1.5-1.8 2.6-1.9 3.6-.4zm107.8 1c-.7 1.1-4.4 1.2-4.4.1 0-1.5 1.1-2 3-1.5 1.1.3 1.7.9 1.4 1.4zm-323.4-.3c0 .5-1.2 1.4-2.7 2.1-2.8 1.3-2.8 1.3-.9-.8 2-2.2 3.6-2.7 3.6-1.3zm-48 1.2c0 .5-1 1-2.2.9-2.2 0-2.2-.1-.3-.9 1.1-.5 2.1-.9 2.3-.9.1-.1.2.3.2.9zm359.5 0c-.3.5-1.3 1-2.1 1s-1.2-.5-.9-1c.3-.6 1.3-1 2.1-1s1.2.4.9 1zm-18 4c-2.2 1-4.9 1.9-6 1.8-1.1 0 .3-.8 3-1.8 6.4-2.4 8.1-2.4 3 0zM250 519.2c0 1.6-.3 1.9-1.1 1.1-.6-.6-.8-1.6-.5-2.2 1.1-1.7 1.6-1.3 1.6 1.1zm8.7 0c-.3.8-.6.5-.6-.6-.1-1.1.2-1.7.5-1.3.3.3.4 1.2.1 1.9zm-131 5.5c1.7 2.7 3.3 6 3.7 7.5.3 1.6 1.3 2.8 2.1 2.8s1.5.4 1.5.8c0 1.5-3.8 4.4-4.9 3.8-1.7-1.1-2.2 1.1-1.5 7 .6 4.9.9 5.5 2 4 .8-1.1 1.4-1.3 1.9-.7.7 1.3 2.5 1.4 4.3.3 1-.7.9-1.7-.3-5.2-1.6-4.4-1.3-7.6.4-6.6 2.1 1.3 3.1 15 1.2 16.9-.6.6-1.1.7-1.1.2-.1-2.7-1.7-3.6-4.3-2.4-2 .9-2.7 2-2.7 4 0 3.8 1.5 4.4 5 1.9 3.5-2.5 6-2 6 1.1 0 1.8-.2 1.9-1.5.9-2.1-1.7-5.5 1.3-5.6 4.9l-.1 2.6-.7-2.4c-.4-1.4-1.3-2.7-2-2.9-1.1-.4-1.2.8-.6 5.9.4 3.5 1.1 7.4 1.6 8.7.5 1.3.9 3.3.9 4.5 0 3.9 1.4 5.1 3.9 3.5 1.7-1 2.1-2.1 1.9-5.3-.2-3.2-.7-4-2.7-4.5-1.4-.3-2.7-1.2-2.9-1.9-.3-1 .1-1.2 1.3-.7 1.3.5 2.5-.1 4.1-2.1 2.6-3.2 4.3-2.5 2.6 1.2-1.4 3.1-.5 8.3 1.8 11 1 1.1 2 3.3 2.2 5 .3 1.6.9 3.8 1.3 4.7.4 1 .3 1.8-.3 1.8-.5 0-1.7-1.8-2.6-4-.9-2.2-1.9-4-2.4-4-1.8 0-3.1 2.5-2.6 5.4.4 3 .3 2.9-1.5-.9l-2-4v3.5c0 1.9.4 10.3.8 18.6 1.1 17.4 2.1 20.7 8.9 27.9 5.2 5.4 8.4 9.9 9.6 13 .6 1.9.5 1.8-1.6-.2-5.1-5-12-10.3-13.4-10.3-2.7 0-2.7 3 0 7 4.2 6.4 3.5 7.6-2 3.4-2.3-1.8-3.7-3.9-4.4-6.8-.6-2.2-1.9-6.8-2.9-10.1-1.4-4.3-2.1-10.6-2.6-22-.8-18.4-1.4-22.7-4.5-31-2-5.3-2.2-7.8-2.1-20.9.1-14.1.3-15.2 2.7-19.3 1.9-3.4 3-4.3 4.4-3.8 2.2.7 3.7-1.2 2.1-2.8-.6-.6-1.1-1.8-1.1-2.7 0-.9-1.3-3.4-3-5.6-3.1-4.1-3.6-5.4-2.1-5.4.5 0 2.2 2.1 3.8 4.7zm99.6-2.7c.3 1.1.3 2 .1 2-.2 0-.8-.9-1.4-2-.6-1.1-.7-2-.2-2 .6 0 1.2.9 1.5 2zm137.7.5c0 .8-.9 1.5-2 1.5-2 0-2.6-1.1-1.3-2.3 1.2-1.3 3.3-.7 3.3.8zm111.4.4c.3.5-1 1.1-3 1.3-4.2.5-5.7-.9-1.7-1.5 1.6-.2 3.1-.5 3.5-.6.4 0 .9.3 1.2.8zm14.7 3.7c-.5 1.6-1 2.1-1 1.2-.1-1.8 1-5.1 1.5-4.5.2.1-.1 1.6-.5 3.3zm-10.1 2.6c0 2.7-1.7 5.7-5.5 9.8-3.5 3.7-5.1 9.6-2.9 10.4 1.8.7 2.9 7.5 1.5 8.9-.8.8-1.1.6-1.1-.9 0-1.1-1.1-3.5-2.4-5.3-2.4-3.2-2.4-5.1-.3-7.9.6-.8.5-1.7-.3-2.7-1.5-1.8-.5-3.5 2.3-3.5 2.2 0 5.1-3.2 4-4.4-.4-.3-1.6-.7-2.7-.7-1.2-.1-.7-.4 1.2-.8 3.9-.7 4.3-2.2 1.2-3.8-2-1-2.1-1.1-.4-1.5 3.2-.7 5.4.3 5.4 2.4zm-245.1 5.9c1.5 3.3 1.9 5.5 1.3 6.5-.7 1.2-1.2.5-2.1-3.2-.7-2.7-2.2-6.5-3.4-8.4l-2.1-3.5 2.1 1.8c1.2 1 3.1 4.1 4.2 6.8zm-8.9 2.1c1.1 2.4 1.9 5.9 1.9 7.8 0 3.4-.1 3.4-1.3-1.2-.7-2.6-1.7-5.3-2.3-6-.6-.7-1.3-2.2-1.5-3.3-.3-1.1-.9-2.9-1.3-4-1.3-3.5 2.3 1.8 4.5 6.7zm19.2-4c-.9.9-1.2.7-1.2-1.2s.3-2.1 1.2-1.2c.9.9.9 1.5 0 2.4zm55.8.3c1.3 1.4 1.9 2.5 1.4 2.5-1.1-.1-5.4-3.6-5.4-4.4 0-1.3 1.8-.5 4 1.9zm52-1.6c0 2.7-2.3 6.7-4 6.8-1.7.1-1.8-.2-.9-2.5.6-1.4 1.5-3.2 2.1-3.9 1.2-1.5 2.8-1.7 2.8-.4zm108 7.3c-.1 3.6-.3 4-1.3 2.8-.7-.9-2-1.4-3.1-1.2-2 .4-1.6-.6 1.3-4 2.4-2.8 3.1-2.2 3.1 2.4zM345 549c-1.6 1-3.2.9-3.1-.3.1-.4.1-2.6.2-5v-4.2l2.2 4.3c1.8 3.7 1.9 4.4.7 5.2zm137.1 6.3c-.1 3.8.4 5.3 2.4 7.3 2.1 2.1 2.5 3.4 2.5 8.4 0 3.2-.4 6.2-1 6.5-1.9 1.2-1 2.4 1.7 2.2 2.5-.2 2.7.1 3.9 6.8 1.8 10.2 1.8 15.5-.2 15.5-.8 0-1.2-.5-.9-1 .4-.6.4-1.8.1-2.7-.6-1.4-.8-1.4-2.6.2-1.8 1.6-2 1.6-2.6.1-.9-2.4-2.2-2-4.3 1.4l-1.8 3-.1-3.2c-.1-2.3.7-4.2 2.6-6.1l2.7-2.9-3 1.6c-1.6.8-3.7 1.7-4.6 2-.9.2-2.8 2.9-4.4 6-1.6 3.1-3.2 5.6-3.7 5.6-1.4 0-.9-5.7.7-7 2.1-1.7 1.9-2.9-.4-2.3-1.7.4-1.8.1-.7-5.4 1-5.1 1.5-6 4.3-7.3 2-.9 3.3-2.3 3.3-3.4 0-1.5-.3-1.6-1.5-.6-.9.7-1.8 1-2.1.7-.4-.3-2.2.6-4.1 2-2.2 1.7-3 2.9-2.2 3.3.8.6.8.9 0 1.4-.6.4-1.1.3-1.1-.2 0-1.2-4.9-1.2-5.6-.1-.3.5-1.5.9-2.6.9-2.1 0-2.1 0 .1-2.4 1.9-2 2.2-3.1 1.6-5.8-1.2-5.7-.9-9.8.8-11.5 1.5-1.6 1.8-1.5 4 .5 2.5 2.3 5.7 2.8 8.6 1.3.9-.6 3.3-4 5.1-7.6l3.4-6.7-1.5-5.9c-1.4-5.4-1.4-6.1 0-8.2 1.5-2.1 1.6-2.1 2.4 3.3.5 3 .8 7.7.8 10.3zm-183.6-12.5c0 1.8-2 1.5-2.3-.4-.3-1 .1-1.5 1-1.2.7.3 1.3 1 1.3 1.6zm166.3 16.8c.4 2.8-7.3 9.3-9.1 7.5-1.3-1.3 1.3-3.7 5.1-4.7 2.2-.6 3.1-2.4 1.2-2.4-.5 0-1-.7-1-1.6 0-2.3 3.4-1.3 3.8 1.2zm-119.2 3.2c-1.5 1.5-1.6 1.5-1.6-.4 0-2.8 2.4-5.2 2.8-2.8.2.9-.3 2.4-1.2 3.2zM212 568c0 .5-.2 1-.4 1-.3 0-.8-.5-1.1-1-.3-.6-.1-1 .4-1 .6 0 1.1.4 1.1 1zm237.8 1.9c-.5 2.4-4.1 2-4.3-.5-.1-1.7.3-2 2.2-1.6 1.6.3 2.3 1 2.1 2.1zM232 581c1.2 0 1.8.4 1.5 1-.3.5-1.4 1-2.4 1-.9 0-2.5.6-3.5 1.3-1.7 1.2-1.7 1.5.3 5.1l2.2 3.8-2.3-.7c-3.7-1.2-4.3-1.1-4.3.6 0 .9-.6 2.3-1.3 3.2-1.1 1.3-.9 1.8.8 3 1.9 1.3 2 1.8.8 3.6-1 1.6-1 2.3 0 3.3 1.5 1.5 1.6 3.1 0 2.2-.8-.5-.9-.2-.3 1.2 2 5 3.5 10.9 3 12.4-.3.9-1.6 2.7-2.9 3.9l-2.3 2.2-.6-6.3c-.3-3.4-1.1-6.7-1.9-7.3-.7-.5-1.3-1.8-1.3-2.9 0-1-1.5-2.7-3.6-3.9-3.1-1.8-3.9-1.9-5.3-.8-.9.7-1.6 2.6-1.6 4.2 0 3.2-3.5 5.7-6.4 4.6-2.3-.9-2-2.5 1-5.2l2.6-2.5-2.6-1c-4-1.5-6-1.2-8.9 1-3 2.4-7.7 2.7-7.7.5 0-1.6-4.2-3-6.5-2.1-1.8.7-2 3.3-.2 3.9.6.2.3.3-.8.1-2.2-.4-5.5 2.2-5.5 4.3 0 .7.6 1.3 1.4 1.3 2.3 0 3 2 1.1 3.4-1.5 1.1-1.5 1.3-.1 2.5 2.6 2.2 2 4.3-1.1 3.9-2.3-.2-2.8-.8-2.8-3.1 0-1.6-.8-3.4-1.7-4.1-1.1-.8-1.8-2.6-1.8-4.7 0-4.3 5.1-9.9 9.1-9.9 1.4 0 4.3-.7 6.3-1.5 2.9-1.2 4.5-1.3 7.4-.5 4.6 1.2 5.2 1.2 5.2 0 0-.5-1.2-1.6-2.7-2.4l-2.8-1.5 3.5.6c1.9.4 5 1.5 6.9 2.6 3.1 1.9 3.5 1.9 4.6.4.7-1 2.3-1.6 3.6-1.5 3.7.4 2.9-2.4-1-3.4-1.8-.5-3.1-1.1-2.8-1.4.3-.3 2.9.2 5.8 1 6.6 2 7.9 2 7.9.1 0-.8-.1-1.5-.2-1.5-.2 0-2.8-.9-5.8-2l-5.5-2 5 .5c5.2.5 8.2-.5 7.1-2.4-.4-.6-2.2-1.1-4.1-1.1-1.8 0-4-.3-4.9-.6-2.8-1.1-.6-2.4 4-2.4 3.2 0 4.4-.4 4.4-1.5 0-.9-1-1.5-2.6-1.5-1.4 0-2.3-.4-1.9-1 .3-.6 1.5-1 2.6-1s1.9-.7 1.9-1.6c0-1.3-.8-1.5-5.2-.9-6.8.9-5.5-.5 1.4-1.6 2.9-.5 5.7-1.5 6.3-2.3.8-1.2 1.7-.7 5.2 2.9 2.4 2.5 5.2 4.5 6.3 4.5zm214-2.5c0 .8-.4 1.5-.9 1.5-1.3 0-2.2-1.6-1.4-2.4 1.1-1.1 2.3-.6 2.3.9zm-5 2.1c0 .8-.4 1.2-1 .9-.5-.3-1-1-1-1.6 0-.5.5-.9 1-.9.6 0 1 .7 1 1.6zm11.2-.4c-.9.9-1.5.9-2.4 0-.9-.9-.7-1.2 1.2-1.2s2.1.3 1.2 1.2zM341 586.5c0 .6-.7 3.5-1.5 6.3-1.2 4-2 5.2-3.6 5.2-1.1 0-2.2.8-2.6 1.7-.3 1-1.2 2.5-1.9 3.4-1.1 1.2-1.1 2.2-.2 4.6 1.6 4.2-.8 12.6-3.7 13.1-1.1.2-2.7 1.3-3.6 2.4-1.5 2-1.6 1.8-1.5-2.6.1-4.4.3-4.7 2.4-4.3 2.5.5 3 0 4.2-4.3.6-2.1.4-3.2-.5-4-1.1-.9-1.7-.5-2.9 1.7l-1.6 2.8.6-3c.4-1.7 1.8-3.9 3.2-5.1 2-1.7 2.5-3 2.5-6.7 0-4.3.2-4.7 2.4-4.7 2.9 0 5.8-5.6 4.1-7.8-.8-.9-1.4-1-2.2-.2-1.6 1.6-2.5 1.2-1.9-.9.3-1.1 1.2-2.2 2.2-2.4 1.8-.4 6.1 3 6.1 4.8zm95.6 1.2c-1 1-1.9-.5-1-1.8.6-1.1.8-1.1 1.2 0 .2.7.1 1.5-.2 1.8zm-199.7 1c0 2.5-.1 2.6-.9.8-1.2-2.7-1.2-3.5 0-3.5.6 0 1 1.2.9 2.7zm213.6 3.3c1.4 1.5 1.6 2.3.7 3.2-.8.8-1.6.5-3.1-1.3-3.1-3.8-.9-5.5 2.4-1.9zm8 0c-2 2.2-4 2.6-5 1-1.1-1.7.5-3 3.7-3 3 0 3.1 0 1.3 2zm-20 2c-.5.8-1.1.8-1.7.2-.6-.6-.7-1.6-.3-2.2.5-.8 1.1-.8 1.7-.2.6.6.7 1.6.3 2.2zm-177.1-.4c.9 2.2-.3 3.2-1.4 1.4-1.2-1.9-1.2-3-.1-3 .5 0 1.2.7 1.5 1.6zm183.6.9c0 .8-.4 1.5-1 1.5-.5 0-1-.7-1-1.5s.5-1.5 1-1.5c.6 0 1 .7 1 1.5zM238.5 596c.3.5.1 1-.4 1-.6 0-1.1-.5-1.1-1 0-.6.2-1 .4-1 .3 0 .8.4 1.1 1zm224.2 2.5c-1.5 1.4-3.3 2.5-4 2.5-.7 0 .1-1.2 1.6-2.5 1.5-1.4 3.3-2.5 4-2.5.7 0-.1 1.2-1.6 2.5zm-7.1-.4c1 1.7-1.3 3.6-2.7 2.2-1.2-1.2-.4-3.3 1.1-3.3.5 0 1.2.5 1.6 1.1zm-310.7 4.5c.8 3.2 1.8 4.8 3.2 5.1 2 .5 2.3 1.5 3.4 9.1.4 3.5.2 4.4-1.2 4.9-1 .4-2.2 1.2-2.6 2-.4.7-1.2 1.3-1.7 1.3-1.6 0-4.2-4.9-5.1-9.3-.7-3.8-.5-4.4 1.8-6.3 2.3-1.8 2.4-2.3 1.3-4.5-.6-1.3-2.4-3.4-3.8-4.6l-2.7-2.3h3.1c2.9 0 3.3.4 4.3 4.6zm333.1-4.1c0 .3-.4 1.3-.9 2.3-.5.9-1.4 3-2.1 4.7-.7 1.6-1.5 2.4-1.7 1.8-.5-1.5 2.7-9.3 3.9-9.3.4 0 .8.2.8.5zm-48 6c0 .5-.5.3-1-.5s-1-2-1-2.5c0-.6.5-.3 1 .5s1 1.9 1 2.5zm14-1.5c0 .5-.4 1-1 1-.5 0-1-.5-1-1 0-.6.5-1 1-1 .6 0 1 .4 1 1zm16.3 1.6c.9 1-.4 3.4-1.9 3.4-.8 0-1.4-.6-1.4-1.3 0-2.2 1.9-3.5 3.3-2.1zm29.4 1.6c-.3.8-.6.5-.6-.6-.1-1.1.2-1.7.5-1.3.3.3.4 1.2.1 1.9zm-191.4 1.2c3.4.6 4.1 1.3 5.8 5.1 1.1 2.4 2.2 7.7 2.4 11.8.5 6.8.3 7.5-2 9.7-2.8 2.6-3.9 2.2-4.2-1.8-.1-1.5-.4-3.6-.5-4.7-.2-1.4.2-1.9 1.5-1.7 2.2.4 2.2-.3-.3-2.8-2.6-2.6-2.5-4 .1-4 2.9 0 2.2-4.4-.8-4.8-1.3-.2-2-.8-1.7-1.7 1-2.6-1.7-2.5-4.2.2-2.6 2.8-2.6 2.8-.5 4.1 1.8 1.3 1.9 1.6.6 3.5-1.1 1.7-1.2 3.2-.4 6.6.9 3.9.7 4.8-1.5 8.1-1.7 2.6-2.1 4.1-1.4 4.8.7.7.7 1.6 0 2.9-1 1.6-1.2 1.6-2.1-1-1.5-3.9-1.4-5.7.4-6.3.8-.4 1.5-1 1.5-1.5s-.7-.9-1.5-.9c-2.2 0-1.8-1.7.5-2.3 2.3-.6 2.7-2.7.5-2.7-1.8 0-2-2.6-.2-3.3.9-.4.9-.7-.1-1.5-.7-.5-1-1.6-.7-2.4.4-.9-.1-1.8-1.1-2.2-1.3-.5-1.4-.9-.5-2 1-1.1.8-1.6-.5-2.4-1.7-.9-1.6-1.3.9-5.1 2.2-3.3 3.1-4 4.5-3.3.9.5 3.4 1.2 5.5 1.6zM447 606c0 .5-.4 1-1 1-.5 0-1-.5-1-1 0-.6.5-1 1-1 .6 0 1 .4 1 1zm9 .3c0 .8-.9 2.2-2 3.2-2.3 2-2.4 1.7-1-1.9 1-2.7 3-3.5 3-1.3zm-194 1.6c0 .5.3 1.6.6 2.5.3.9.1 1.6-.5 1.6s-1.1-.7-1.1-1.5c0-.7-.8-1.9-1.7-2.4-1.6-.9-1.6-1 .5-1.1 1.2 0 2.2.4 2.2.9zm222.6 2.8c-1 1-1.9-.5-1-1.8.6-1.1.8-1.1 1.2 0 .2.7.1 1.5-.2 1.8zm-26.6-.4c0 1.9-2.7 5.3-3.6 4.5-.9-1 1.2-5.8 2.6-5.8.5 0 1 .6 1 1.3zm-14 1.2c0 .8-.4 1.5-1 1.5-.5 0-1-.7-1-1.5s.5-1.5 1-1.5c.6 0 1 .7 1 1.5zm18 .7c-.1 1.8-3.7 6.4-4.5 5.7-.7-.7 2.7-6.9 3.8-6.9.4 0 .7.6.7 1.2zm-31 1.9c0 .5-.4.9-1 .9-.5 0-1-.7-1-1.6 0-.8.5-1.2 1-.9.6.3 1 1 1 1.6zm18.6 2.6c-1 1-1.9-.5-1-1.8.6-1.1.8-1.1 1.2 0 .2.7.1 1.5-.2 1.8zm-176.6-.3c0 .7.7 1.9 1.6 2.7 1.4 1.1 1.4 1.3 0 2.1-.9.5-1.6 2.2-1.6 3.8 0 3.7-3.7 11-5.6 11-1.7 0-1.9-5.5-.3-6.6.7-.4.8-.9 0-1.7-.7-.7-.6-1.4.3-2.1 2.7-2.1 2.9-5.4.4-6.7-1.9-1-2.4-.9-3.5.8-1.2 1.8-1.9 2-5.6 1.1-2.3-.6-9.5-1.1-15.9-1.2-7.3 0-11.7-.5-11.5-1.1.1-.6 7-1 18-1.1 12.3 0 18.1-.4 18.9-1.2 1.6-1.6 4.8-1.5 4.8.2zm-75.7 1.6c.3 1-.1 2.4-.9 3.1-2.1 1.7-1.7 2.8 1.4 4 2.5 1 2.6 1.2 1 2.3-2.1 1.5-2.3 3.3-.5 3.9.9.3.9.7.1 1.8-1.6 1.9-1.2 5.8.6 6.9 1.2.7 1.2 1.4.4 2.7-.7 1.1-1 7-.8 15.8.1 7.7.3 16.6.3 19.7.1 4.9.4 5.8 2.2 6.3 1.5.5 2.5.2 3.1-.9 1.2-2.2 2-2 7 1.3 2.4 1.6 5.9 3.1 7.8 3.3 3.3.3 3.5.5 4 4.8.3 2.5 1.3 5.6 2.2 6.8 3.3 4.8 10.4 8.2 17.1 8.2 4.8 0 14.2-4.2 15.7-7 1.8-3.4 9.8-11.3 10.8-10.6 1.5.9-.2 7.9-3.1 12.8-5.5 9.4-11.6 12.8-22.9 12.8-9.3 0-15.5-2.8-22-9.8-4.6-4.9-5.8-7.5-4-8.6 1.3-.8.1-6.6-1.3-6.6-.7 0-2 1.1-2.9 2.5l-1.6 2.4-3.8-2.1c-2-1.2-4.7-3-5.9-4.1-1.3-1.1-3.9-2.1-5.9-2.2-2.6-.2-4.6-1.3-7.5-4.1-3.5-3.4-3.9-4.3-3.4-7.2.4-2.4.2-3.2-.9-3.2-.8 0-2.7-1.1-4.3-2.4-2-1.7-3.3-2.2-4.5-1.5-4.3 2.4-13.2-7.6-10.8-12.2.9-1.6.7-2.7-.7-5.1-1-1.7-2.6-3.5-3.5-3.9-1-.5-2.6-1.3-3.5-1.7-.9-.5-2.6-2-3.6-3.4-4.2-5.6 1.9-13.9 6.4-8.6 1 1.3 1.8 2.9 1.9 3.7 0 .8.9 2.5 2.1 3.7 1.6 1.7 1.9 2.7 1.1 4-.7 1.3-.5 2.5 1.1 4.6 1.1 1.5 2.6 2.8 3.3 2.8 1.5 0 9.4 8.6 9.4 10.3 0 .8 1.6 2.8 3.5 4.6 1.9 1.7 3.5 3.6 3.5 4.1 0 1.5 2.6 1.2 4.1-.6 1.1-1.3 1.5-1.2 3.6 1.5 1.4 1.7 2.8 3.1 3.1 3.1.7 0 .8-30.4 0-35-.2-1.4-1.1-4-2.1-5.9-1.6-3.2-1.6-3.6-.1-6 1-1.4 1.3-2.6.7-2.8-.6-.2-1.8-.9-2.7-1.6-1.5-1.1-1.5-1.7-.5-4.2.7-1.7 1.2-3.3 1.1-3.8-.1-.4.9-.7 2.2-.7 1.5 0 2.6.7 2.9 2zm266.7-.5c0 .8-.4 1.5-1 1.5-.5 0-1-.7-1-1.5s.5-1.5 1-1.5c.6 0 1 .7 1 1.5zm6-1.1c0 .3-.4.8-1 1.1-.5.3-1 .1-1-.4 0-.6.5-1.1 1-1.1.6 0 1 .2 1 .4zm8.6 3.3c-1 1-1.9-.5-1-1.8.6-1.1.8-1.1 1.2 0 .2.7.1 1.5-.2 1.8zm-27 1c-1 1-1.9-.5-1-1.8.6-1.1.8-1.1 1.2 0 .2.7.1 1.5-.2 1.8zM208 620c0 .5-.7 1-1.5 1s-1.5-.5-1.5-1c0-.6.7-1 1.5-1s1.5.4 1.5 1zm265 .5c0 .8-.4 1.5-1 1.5-.5 0-1-.7-1-1.5s.5-1.5 1-1.5c.6 0 1 .7 1 1.5zm-188.7.6c-.8.8-1.9.8-4 .1-2.8-1-2.8-1 1.2-1.1 2.8-.1 3.6.2 2.8 1zm182.2-.2c.3.5.1 1.2-.5 1.6-.5.3-1-.1-1-.9 0-1.8.6-2.1 1.5-.7zm-11.3 2.6c0 .5-.5 1.1-1.1 1.3-.6.2-1.1-.4-1.1-1.3s.5-1.5 1.1-1.3c.6.2 1.1.8 1.1 1.3zm15.6 1.2c-.2 1-1.4 2-2.8 2.2-2.5.3-2.5.3-.6-1.8 2.3-2.6 3.9-2.7 3.4-.4zm-7.2 2c-1 1-1.9-.5-1-1.8.6-1.1.8-1.1 1.2 0 .2.7.1 1.5-.2 1.8zm-312.5 3.5c1.1 2.1 1.1 2.2-.4.9-1-.7-1.7-1.7-1.7-2.2 0-1.5.9-1 2.1 1.3zm65.9 0c3.8 4.1 2.1 4.2-3.9.2-.4-.3.8-2.4 1.4-2.4.2 0 1.3 1 2.5 2.2zm-40.5.9c1 3 0 3.3-1.3.4-.6-1.4-.7-2.5-.2-2.5.5 0 1.2.9 1.5 2.1zm146.9 1.1c1.5 2.5-2.8 14.5-6.6 18-2.2 2-2.8 3.5-2.8 6.7 0 4.1-3.6 13.1-5.3 13.1-.5 0-.6-.6-.3-1.3 1.8-4.4 2.8-8.8 2.3-10.1-1-2.6-3.4-1.8-4.7 1.4-.7 1.7-1.7 3.3-2.2 3.6-.4.3.2-1.5 1.4-4 1.4-3 2.8-4.6 4-4.6 2.1 0 4-4 3.7-7.9-.3-4.3 0-6.1 1.2-6.1.6 0 .9.9.6 2-.6 2.4 1.6 4.6 3 2.8.5-.7 1.5-3.5 2.1-6.2 1.4-5.5.4-7.9-2.3-5.6-1.3 1-1.5.9-1.5-.7 0-1.1.3-2.3.7-2.7 1.3-1.2 5.6-.2 6.7 1.6zM217.3 636c1 0 1.5.4 1.2 1-.3.5-1.7 1-3.1 1-1.8 0-2.4-.5-2.4-2.2 0-1.7.3-1.9 1.2-1 .7.7 2 1.2 3.1 1.2zm240.7.7c0 4-1.3 5.8-2.9 4-.9-1.2-.9-2.1 0-4.1 1.6-3.4 2.9-3.3 2.9.1zm-275.8 1c2.3 2.1 2.3 4 0 5.2-2.3 1.2-4.2-.3-4.2-3.4 0-3.7 1.4-4.3 4.2-1.8zm117.8 2.8c0 2.3-1.6 4.2-2.7 3.2-.3-.3-.2-1.9.2-3.6.8-3.5 2.5-3.2 2.5.4zm-82 1.1c0 .9-.7 1.4-1.7 1.2-2.5-.5-2.8-2.8-.4-2.8 1.2 0 2.1.6 2.1 1.6zm73.9 21.9c-.4 6.6-.5 12.3-.2 12.7.2.5 1.9-.3 3.7-1.7 1.8-1.4 4.1-2.5 5.1-2.5 1.4 0 1.6-.5 1-2.7-.5-2.3-.4-2.5.9-1.4 1.2 1 1.6.9 2.5-.6.7-1.3.9-.2.6 4.2-.4 5.6-.7 6.3-5.1 10.2-3.7 3.5-5.3 4.3-8.4 4.3-7.4 0-10 1-11.5 4.6-.8 1.9-2.1 3.4-2.9 3.4-.9 0-1.9 0-2.3.1-1.8.2-1.2-2 .6-2.6 2.5-.8 2.8-3.5.5-3.5-.9 0-2.2-.7-2.8-1.5-1-1.4-1.6-1.3-5.6.7-2.6 1.3-5.1 3.5-5.8 5-1.6 3.3-3.2 3.6-3.2.7 0-3.3 3.6-7.5 8.4-9.8 3.7-1.7 5-1.9 7.7-.9 2.9 1 3.4.8 6.8-2.6 2-2 4.6-4.4 5.9-5.4 2.1-1.5 2.3-2.7 2.7-11.7.7-17.8.6-16.4 1.4-13.5.4 1.4.4 7.9 0 14.5zM442 650.7c0 2.2-.8 3.2-3.6 4.6-2 1-3.9 1.6-4.1 1.3-.4-.4 6.5-8.6 7.3-8.6.2 0 .4 1.2.4 2.7zm-291 3.8c1.9 2.3.1 3.9-2.1 1.9-1-.9-1.9-2.1-1.9-2.6 0-1.3 2.7-.9 4 .7zm-111 2.2c-.1 1.5-3 4.6-3.7 4-.3-.4.2-1.6 1.2-2.7 1.9-2.1 2.5-2.4 2.5-1.3zm211.8 3.2c3.6 2.5 4 3.6 1.6 4.5-1 .4-2.5-.3-4.1-2-1.9-2.1-3-2.5-5.5-2-1.7.3-4.1.6-5.5.6-1.3 0-2.6.7-3 1.7-.8 2.2-2.4 3.4-3.6 2.6-.9-.6 1.7-5.1 4.2-7.1 2.5-2.1 12.1-1.1 15.9 1.7zm189.2 3c0 .6-.4 1.3-1 1.6-.5.3-1-.1-1-.9 0-.9.5-1.6 1-1.6.6 0 1 .4 1 .9zm-6.6 1.8c.9 3.4 1.8 10.3 1.3 10.3-1.9 0-3.7-3.7-3.7-7.6 0-4.4 1.4-6 2.4-2.7zm-187.3 1c1.8 2.1 1.7 10.6-.1 12.8-.7.9-2.4 1.5-3.7 1.3-2.3-.3-2.4-.7-2.7-8.1l-.3-7.7h2.7c1.5 0 3.4.7 4.1 1.7zm202.6 2.5c-.3.8-.6.5-.6-.6-.1-1.1.2-1.7.5-1.3.3.3.4 1.2.1 1.9zM445 670c0 .5-.5 1-1.1 1-.5 0-.7-.5-.4-1 .3-.6.8-1 1.1-1 .2 0 .4.4.4 1zm-208 1.4c0 .8-2.9 3.4-6.4 5.8-3.6 2.4-6.7 5.1-7 6.2-.2 1-1.1 1.6-1.8 1.4-4.1-1.4 1.2-11.2 7.2-13.4 4.8-1.7 8-1.7 8 0zm20.3-.2c1.2.6 2.7 1.7 3.2 2.5.6.8 2.1 1.9 3.4 2.6 2.8 1.4 3.2 2.6 1 4-2.3 1.4-11.8-5-11.8-8.1-.1-2.5 1-2.8 4.2-1zm170.8 8.8c-.8 2.4-.7 3 .5 3 .7 0 1.4.5 1.4 1.1 0 .6.7.3 1.6-.5 2.6-2.7 3.2-1.8 1.4 2.1-2.4 4.9-3.6 10.8-2.1 9.9 1.3-.9 1.4.4.2 2.3-.8 1.2-1.2 1.2-2.5.2-.9-.8-1.6-2.1-1.6-3.1 0-.9-.3-1.9-.6-2.3-1.3-1.2-1-11.4.4-14.7 1.7-4.1 2.9-2.3 1.3 2zm-174.8 3.1c-1.6 5.9-8.6 7.7-14.8 3.6-5.6-3.6-6.2-8.7-.6-5.4 1.6.9 5 1.7 7.5 1.7 4 0 4.8-.4 5.8-2.5 1.6-3.6 3.1-1.6 2.1 2.6zm201.4 3.1c-.2.7-1 1.2-1.7 1-1.9-.4-4 1.8-4 4.4 0 1.3-.4 2.4-1 2.4-2.1 0-.9-3.9 2.1-6.4 3.3-2.8 5.4-3.4 4.6-1.4zm-16.7 1.7c0 1.7 3.4 2.2 4.6.7 1.8-2.5 2.3-.7.7 2.5-1.2 2.4-1.4 5.5-1 14.5.3 6.3.2 11.4-.3 11.4-.9 0-1.5-2.4-2.5-10-.3-2.5-1.1-6.2-1.9-8.3-1.2-3.6-1.3-3.6-2.3-1.5-.5 1.2-1.2 1.8-1.5 1.2-.7-1.2 2.2-11.4 3.3-11.4.5 0 .9.4.9.9zm-147 85.6c-1.1 2.5-1 3.7-1.4-39-.2-18.7 0-36 .3-38.5s.9 13.5 1.2 35.5c.4 21.9.3 40.8-.1 42zm-93-78.4c0 1.1-.4 1.7-1 1.4-.5-.3-1-1.3-1-2.1s.5-1.4 1-1.4c.6 0 1 .9 1 2.1zm-147.6 2c-.8 1.3-2.4.1-2.4-1.8 0-1.3.3-1.3 1.5-.3.8.7 1.2 1.6.9 2.1zm395.8 4.1c-.7.7-1.2.8-1.2.2 0-1.4 1.2-2.6 1.9-1.9.2.3-.1 1.1-.7 1.7zM20.5 701c.3.5.1 1-.4 1-.6 0-1.1-.5-1.1-1 0-.6.2-1 .4-1 .3 0 .8.4 1.1 1zm390.4 16.8c.7 4.1 2 9.1 3 11.2 1 2.2 1.5 4.4 1 5.1-.5.8 0 1.7 1.4 2.4 1.8.9 2.6.9 4-.4 1.8-1.5 1.8-1.4.6 1.2-1.5 3.2-1.5 3.2-5.7.7-2.5-1.5-3.2-2.5-2.7-3.8.8-2.2.8-2.3 0-5-.5-1.6-1.3-2.1-2.5-1.7-1.3.4-2.1-.2-2.9-2.6-.6-1.8-.7-3.8-.2-4.7.5-.9.3-2.5-.5-4.1-1.8-3.4-1.8-6 .1-6.7 1.1-.5 1.2-1 .6-1.8-.6-.7-.7-2.3-.4-3.6.6-2.1.8-1.8 1.9 2.1.7 2.4 1.7 7.7 2.3 11.7zM199 709.5c0 2.4-.4 4.7-1 5-.6.4-1-1.5-1-5s.4-5.4 1-5c.6.3 1 2.6 1 5zm244.8 9.7c.8.8 1.5.8 2.5 0 1.4-1.2 2.7-.6 2.7 1.2 0 .6-1 2.7-2.2 4.6-1.2 1.9-2.3 3.7-2.3 4-.1.3-.5 1.3-.8 2.2-.4 1-.9 2.5-1.2 3.3-.2.8-1.3 1.5-2.3 1.5-1 0-2.7.9-3.7 2-2.6 2.8-3 1.8-.9-2.2 1-1.8 1.8-3.8 1.9-4.3 0-.6.8-2.7 1.8-4.9.9-2.1 1.7-4.9 1.7-6.2 0-2.6 1-3 2.8-1.2zm-245.1 12c-.3.7-.5.2-.5-1.2s.2-1.9.5-1.3c.2.7.2 1.9 0 2.5zm-1.1 26c0 12.3.1 24.9.2 28.1.3 5.6-.1 7.7-1.4 6.5-1.4-1.5-.5-56.8 1-56.8.1 0 .2 10 .2 22.2zM430 735.5c0 1.4-2.5 5.5-3.4 5.6-1.7.2-5-.2-5.5-.7-1-.9 4.4-5.4 6.6-5.4 1.3 0 2.3.2 2.3.5zm50.8 20.7c2.8 2.3 1.3 3.8-3.5 3.6-4.5-.1-4.6-.2-1-.5 4.8-.5 4.4-2.7-.4-2.9-4.7-.2-5.1-.3-4.5-1.2.6-1.1 7.7-.3 9.4 1zm-2 8.9c-1.2.7-2.4.7-3.5 0-1.5-.9-1.2-1 1.7-1s3.2.1 1.8 1zm-5.2 4.4c1.1.8 1.4 1.5.7 1.5-2.9 0-1 2 2 2.1l3.2.1-3.3.9c-3.7 1.1-3.8 3-.1 3.9 2.4.6 2.4.6.2 1.2-2.7.7-3.9 7.1-2.9 15.9.3 3.6.2 5.9-.4 5.9-.6 0-1-3.4-1-7.9 0-10.5-2.5-12.4-8.7-6.8-1.9 1.7-2.3 1.8-2.3.5 0-2.1 1.8-3.4 5.8-4.5 3.8-.9 4.3-2.6 1-3.3-3-.7-3.9-5-1-5 2.4 0 4.8-2.5 3.2-3.5-1.1-.7-.5-2.5.9-2.5.4 0 1.6.7 2.7 1.5zm13.2.2c-1.6.2-4 .2-5.5 0-1.6-.2-.3-.4 2.7-.4s4.3.2 2.8.4zm-194.9 19.8c0 3.8-.3 7.5-.7 8.1-.4.7-.8-3.6-.9-9.5-.1-6.5.2-9.6.7-8.1.4 1.4.8 5.6.9 9.5zm-33.2 7.9c.7.7-4.1 1-16.4 1.1-4.6 0-8.3-.3-8.3-.7 0-1.4 23.4-1.7 24.7-.4zm20.3-.4c0 .5-.4 1-1 1-.5 0-1-.5-1-1 0-.6.5-1 1-1 .6 0 1 .4 1 1zm54.7-.4c-.3.3-1.2.4-1.9.1-.8-.3-.5-.6.6-.6 1.1-.1 1.7.2 1.3.5zm-285.8 1.5c2.7.6 5.5 1.7 6.2 2.5 1.4 1.7.8 1.7-6.4.3-4.7-1-6.3-.9-9.7.5-8 3.2-11.4 1-3.7-2.4 4.9-2.3 6.8-2.4 13.6-.9zm109.6.1c4.4-.1 11-.4 14.7-.7 6.9-.7 17.4.2 16.3 1.4-.4.3-4.6.7-9.3.8-11.9.4-17.1.9-21.3 2-2.5.7-6.3.6-13-.3-14.5-2.1-15.9-2.4-15.9-3.6 0-.7 3.1-.8 10.3-.3 5.6.4 13.8.7 18.2.7zm114.5-.8c0 .8-5.1 1.3-5.6.5-.3-.5.9-.9 2.5-.9 1.7 0 3.1.2 3.1.4zm71.4.6c-.7.7-2.4.7-5 .1l-3.9-.9 5-.1c3.3-.1 4.6.2 3.9.9zm98.6 1.1c0 1.2-26.5.7-27.7-.5-.3-.3 5.7-.6 13.5-.6 9.6 0 14.2.4 14.2 1.1zm12-.1c0 .5-.4 1-1 1-.5 0-1-.5-1-1 0-.6.5-1 1-1 .6 0 1 .4 1 1zm-348.2 1.2c6 1.5 5.2 2.9-1.5 2.7-7.3-.3-14.3-1.8-14.3-3s10.2-1 15.8.3zM27 802c0 .5-.3 1-.7 1-.5 0-5.1.5-10.3 1-5.2.6-10.8.7-12.5.3-2.6-.6-2.2-.8 3.5-1.7 9.3-1.6 20-1.9 20-.6zm196.5.5c-2.9 1.3-2.9 1.4-.8 2.2 1.2.4 7.3.5 13.5.2 11.2-.7 12.8-.6 11.4.8-1.6 1.6-44.7 2.4-56.6 1-2.5-.3-5.7-.5-7.2-.6-1.6-.1-2.8-.6-2.8-1.2 0-.9 2.2-1 7.4-.6 5 .3 7.8.1 8.5-.6.9-.9 1.6-.6 3 1.2 1.7 2.2 2.2 2.3 8.2 1.7 9-1 11.9-1.6 11.9-2.7 0-.5-2.1-.9-4.7-1-10.3-.2-9.6-1.7.7-1.7 9.6 0 10.2.1 7.5 1.3zm54.8.2c-.7.2-1.9.2-2.5 0-.7-.3-.2-.5 1.2-.5s1.9.2 1.3.5zm49.4-.1c-.3.3-1.2.4-1.9.1-.8-.3-.5-.6.6-.6 1.1-.1 1.7.2 1.3.5zm10.9.5c5.6 1.1 9.6 2.9 6.3 2.9-2.2 0-15-2.8-15.7-3.4-.9-.9 3-.7 9.4.5zm116.9.9c.4.6-.9 1-3.2.9-3.8-.1-3.8-.1-.8-.9 1.7-.4 3.1-.8 3.2-.9.1 0 .5.3.8.9zM123 805c0 1.4-1.6 1.9-7 2.4-2.5.2-6.3.9-8.5 1.5-4.7 1.2-23.1 1.3-26 .1l-2-.9 2-.1c1.1 0 6.3-.3 11.5-.6 5.2-.2 10.4-.9 11.5-1.4 1.1-.5 5.4-1.1 9.5-1.3 4.1-.2 7.8-.4 8.3-.5.4-.1.7.3.7.8zm47.3-.3c-1.3.2-3.5.2-5 0-1.6-.2-.5-.4 2.2-.4 2.8 0 4 .2 2.8.4zm276 0c-1.3.2-3.5.2-5 0-1.6-.2-.5-.4 2.2-.4 2.8 0 4 .2 2.8.4zm39.5 0c-1 .2-2.8.2-4 0-1.3-.2-.5-.4 1.7-.4 2.2-.1 3.2.1 2.3.4zm-163.9 1.7c.6.4.9 1.1.6 1.5-.5.9-15.4-1.4-16.4-2.5-.8-.9 14.3.1 15.8 1zM150 808.5c0 .5-1.3.9-2.8.9-1.5-.1-6.3-.3-10.7-.4-5.8-.1-7.3-.4-5.5-1 3.5-1.2 19-.7 19 .5zm115.2 1.5c3.9 0 6.9.3 6.5.6-1.8 1.9-43.5 2.7-43.9.9-.3-.9 25.6-2.5 29-1.8.8.2 4.6.3 8.4.3zm157.1-.3c-.7.2-2.1.2-3 0-1-.3-.4-.5 1.2-.5 1.7 0 2.4.2 1.8.5zm22.5.4c-1.2.6-5.1.7-11.5.1l-9.8-.9 11.5-.1c8.2-.1 11 .2 9.8.9zm-387.3.9c1.3.6-.9.9-6.7.9-5.3.1-8.8-.3-8.8-.9 0-1.2 12.7-1.2 15.5 0zm233.5-.6c0 .8-6 1.2-7.2.4-.8-.4.4-.8 3-.8 2.3 0 4.2.2 4.2.4zm43.5.6c.4.6-1.4 1-4.7.9-4.5-.1-4.9-.3-2.3-.9 4.4-1.1 6.3-1.1 7 0zm17 0c2.2 0 2.6.3 1.5.9-2 1.2-13.1.1-12.4-1.1.4-.6 2.3-.8 4.3-.4 2 .3 5 .6 6.6.6zm28 .1c11.1.2 1.7 1.6-11.7 1.8-9 .1-12.8-.2-12.8-1 0-.7.9-.9 2.3-.6 1.2.3 3.8.2 5.7-.3 1.9-.5 5.1-.7 7-.5 1.9.3 6.2.5 9.5.6z"/><path d="M224.4 12.1c-.4.7.4 2 1.7 3 2.3 1.7 2.5 1.7 4.6-.3 1.2-1.2 2-2.5 1.7-2.9-.8-1.3-7.2-1.1-8 .2zM236.8 16.5c-2.1 2.4-3.8 4.7-3.8 5.1 0 .4 1.5 2.6 3.4 4.8 3.2 4 3.7 4.2 9.5 4.4 4 .2 6.1-.1 6.1-.9 0-1.9-9.4-17.9-10.5-17.9-.5.1-2.7 2-4.7 4.5zM248.7 12.6c-1 1.1 6 13.4 7.6 13.4.5 0 4.7-11.7 4.7-13.2 0-.9-11.4-1.1-12.3-.2zM227.2 27.2c-2.1 2.1-1.3 3.8 1.7 3.8 3.5 0 4.8-1.5 3.1-3.5-1.5-1.8-3.2-1.9-4.8-.3zM275 44.1c-19.6 11-25 14.1-25 14.4 0 .6 9 6.5 9.9 6.5.5 0 1.4.6 2.1 1.4 1.7 2.1 3.6 1 6-3.6 1.1-2.2 3.4-5.1 5-6.5 1.7-1.4 3-2.9 3-3.4 0-.4 1.4-3 3-5.6 4.7-7.4 4.2-7.8-4-3.2zM212 42.6c0 .4 1.7 3.7 3.9 7.4 2.1 3.7 4.1 8.3 4.5 10.2.3 1.9 1.5 4.3 2.7 5.4 1.9 1.7 2.1 1.7 8.7-1.8 3.7-2 6.8-4.1 7-4.7.2-.5-1.4-1.9-3.5-3-2.1-1.2-8-4.8-13.2-8.1-9.6-6.2-10.1-6.5-10.1-5.4zM314.7 47.7c-1.3 1.3-.7 5 1.1 6.6 4.1 3.7 5.5 1.1 2.5-4.2-1.8-3.2-2.5-3.6-3.6-2.4zM173.2 52.7c.2 2.7.8 3.9 2.1 4.1 1.6.3 1.8-.2 1.5-3.5-.2-2.7-.8-3.9-2.1-4.1-1.6-.3-1.8.2-1.5 3.5zM208.7 52.7c-.6 3.3-.1 4.3 1.9 4.3 1.1 0 1.4-.9 1.2-3.2-.4-4-2.4-4.7-3.1-1.1zM303.1 51.9c-.8 1.4-.4 2.4 1.7 4.5 1.6 1.4 3.1 2.6 3.5 2.6 1.3 0 .7-4.5-.9-6.8-1.9-2.7-3-2.8-4.3-.3zM292.2 57.2c-1.8 1.8-1.5 2.6 1.8 4.3 6 3.1 8.4.6 3-3.3-3.4-2.6-3.3-2.5-4.8-1zM278.4 58.4c-.8 2.2.3 3.3 1.8 1.8.9-.9.9-1.5 0-2.4-.9-.9-1.3-.7-1.8.6zM234.6 67c-9.9 6.2-10 6.3-9.2 9.4.7 2.8 2.6 3.6 2.6 1.1 0-2.6 1.7-1.7 3.1 1.6 1.1 2.8 1 3.3-.4 4.4-.9.7-1.7 1.5-1.7 1.9 0 .4 6.4.5 14.2.4l14.1-.3 1.4-4.7c.7-2.6 1.8-5 2.3-5.3 1.9-1.2 1-2.4-4.2-6.3-6-4.4-11.1-7.2-13-7.2-.7.1-4.9 2.3-9.2 5zM267.6 65.9c-.4.7-.5 1.5-.2 1.8.9.9 1.9-.4 1.4-1.8-.4-1.1-.6-1.1-1.2 0zM216.6 70.9c-.4.7-.5 1.5-.2 1.8.9.9 1.9-.4 1.4-1.8-.4-1.1-.6-1.1-1.2 0zM261 81c0 .5.5 1 1 1 .6 0 1-.5 1-1 0-.6-.4-1-1-1-.5 0-1 .4-1 1zM220.2 83.2c-1.7 1.7-1.5 2.8.6 2.8 2.4 0 3.2-.8 2.5-2.6-.6-1.7-1.5-1.8-3.1-.2zM204.5 85.6c-1.9 1.5-1.9 1.5 1 1.2 1.7-.2 2.9-.7 2.8-1.3-.3-1.6-1.7-1.5-3.8.1zM283 86c0 .5.7 1 1.6 1 .8 0 1.2-.5.9-1-.3-.6-1-1-1.6-1-.5 0-.9.4-.9 1zM245.7 91.7c-6.2.3-8.3.8-10.2 2.5-2.9 2.5-3.1 4-1 5.8 1.2 1 2.7 1.1 6.2.3s5.7-.8 9.1.2l4.4 1.4-.6-2.5c-.5-2-.2-2.6 1.9-3.4 1.7-.7 2.5-1.6 2.3-2.8-.4-1.9-1-2-12.1-1.5zM333 94.1c0 .5.5.7 1 .4.6-.3 1-.8 1-1.1 0-.2-.4-.4-1-.4-.5 0-1 .5-1 1.1zM326 98c-.8.5-1.1 1.2-.7 1.6.4.4 1.5 0 2.4-.9 1.8-1.8.8-2.3-1.7-.7zM240.3 103.5c-4.7 2.1-4.2 3.6 1 3l4.2-.5-3.7 1.6c-5.7 2.5-4.9 4.1 1.9 3.9 4.2-.2 5.9-.7 7-2 1.7-2.4 1.7-6.5-.1-6.5-.7 0-2.6-.2-4.2-.5-1.6-.2-4.4.2-6.1 1zM255.3 110.6c-.6 1.7 3.3 6.4 5.3 6.4 2.6 0 2.5-2.3-.2-5.1-3.1-3.3-4.2-3.6-5.1-1.3zM228.4 114.5c-1.4 2.7-1.6 3.9-.8 5.3 1.7 2.7 3.5 2 4.8-1.8 2.3-7-.7-9.7-4-3.5zM308.5 114c-.8 1.3.4 3.2 1.6 2.5 1.2-.8 1.2-3.5 0-3.5-.6 0-1.3.4-1.6 1zM254.1 129.8c-1.4 1.5-3.8 4.1-5.3 5.9-3.4 3.7-4 9.3-1.4 12.2 1.3 1.4 1.5 2.8 1 5.9-.5 3.2-.2 4.7 1.5 7 1.8 2.5 1.9 3.1.6 3.6-.8.3-1.5 1.4-1.5 2.4 0 3.9 8.7 8.6 11.5 6.2 2.5-2.1 1.7-3.7-2.1-4.4-1.9-.4-3.8-1.4-4.1-2.2-.8-2.2.2-2.7 2.8-1.4 6 3.3 17.9-5.3 17.9-13 0-3.5-4.2-2.2-5.2 1.6-1.6 6.3-9.6 10-13.9 6.5-2.1-1.7-2.2-2.1-1.1-6 1.5-4.9 2.8-5.6 11-6.5 9.1-.9 15.2-4.6 15.2-9.3 0-2.3-.1-2.3-2.7-.8-1.6.8-3.9 2.4-5.3 3.5-1.6 1.3-4.8 2.2-9 2.6-3.6.4-7.5 1.2-8.7 2-1.7 1.1-2.3 1.1-3.2.1-1.6-2-.2-5.7 4.1-11.1 2.1-2.7 3.7-5.4 3.5-6-.7-2.1-3.2-1.6-5.6 1.2zM223.1 129.4c-.9 1.1-.4 2.1 2.5 4.7 7 6.4 8.2 8 8.9 12 1.1 6.3 5.5 4.5 5.5-2.3 0-3.4-.6-4.2-7.2-9.8-4-3.3-7.6-6-7.9-6-.4 0-1.2.6-1.8 1.4z"/><path d="M258.7 151.7c-1.3 1.2-.7 5.1.9 5.7 1.7.7 5.4-.9 5.4-2.4 0-3.3-4.2-5.5-6.3-3.3zM230.7 179.1c-2 1.2-2.3 2.9-.3 2.9 1.7 0 4-2.6 2.9-3.3-.5-.3-1.6-.1-2.6.4zM261 191c-1.3.9-1.1 1.3 1 3 4.2 3.2 7.9 4.5 9.3 3.1.9-1 .4-1.9-2.3-4.2-3.6-3.1-5.5-3.5-8-1.9zM177.8 276.1c-3.5 2-1.5 4.9 3.3 4.9 2.4 0 2.7-4.5.3-5.4-1.9-.7-1.5-.8-3.6.5zM297.5 365.4c-1.6 1.2-1.7 1.6-.6 3 1.8 2.1 2.8 2 4-.3 1.5-2.7-.9-4.6-3.4-2.7zM277.1 366.4c-.9 1.1-1 2-.1 3.6 1.3 2.4 3.8 2.3 5.3-.1 2.3-3.7-2.5-6.8-5.2-3.5zM241.2 370c-1.8 1.1-3.1 2.4-2.8 2.9.3.5 2.6 1.4 5.1 2 4.8 1.2 5.9 2.8 2.3 3.3-4 .6-3.3 2.8.9 2.8 9.6 0 11.6-9.4 2.5-12-4.7-1.3-4.1-1.3-8 1zM212 373.8c-1.3 1.1-1.9 2.3-1.5 3.4 1.5 4 6.5 2.7 6.5-1.7 0-3-2.4-3.8-5-1.7zM286.3 373.6c-.9 2.3 2.5 4.8 4.4 3.3.7-.6 1.3-2 1.3-3 0-2.4-4.8-2.6-5.7-.3zM269.5 375c-1.5 1.6-1.5 2.2-.5 3.5 2.8 3.4 8.1.5 6-3.4-1.4-2.6-3.2-2.7-5.5-.1zM227.5 377.4c-1.6 1.2-1.8 1.9-.9 3.2 1.6 2.7 3.1 2.8 4.4.3 1-1.7.9-2.4-.2-3.5-1.2-1.2-1.7-1.2-3.3 0zM252.5 386.4c-1.9 1.4-1.9 1.6-.2 3.3 1.6 1.6 1.8 1.6 3.4 0 1.5-1.5 1.6-1.9.2-3.2-1.3-1.3-1.7-1.3-3.4-.1zM240.2 392.7c-1.2 2.4-.4 4.3 1.8 4.3 2.3 0 4.4-2.6 3.6-4.5-.7-2.1-4.3-1.9-5.4.2zM301.6 275.3c-2.5 1.8-1.5 4.4 1.9 5.3 3.9 1 5.7-.2 5.3-3.3-.2-2.1-.9-2.9-2.8-3.1-1.4-.2-3.4.3-4.4 1.1zM261 237.4c0 .8.5 1.8 1 2.1.6.3 1-.3 1-1.4 0-1.2-.4-2.1-1-2.1-.5 0-1 .6-1 1.4zM446.3 363.2c.2.7 1 1.3 1.7 1.3s1.5-.6 1.8-1.3c.2-.7-.5-1.2-1.8-1.2s-2 .5-1.7 1.2zM321 460.3c0 1.9 5 4.1 6.3 2.8.6-.6-.2-1.5-2.1-2.5-3.8-1.9-4.2-2-4.2-.3zM317 462.4c0 1.5 5.7 4.3 6.7 3.3.7-.8-3.7-4.6-5.4-4.7-.7 0-1.3.6-1.3 1.4zM313 465.5c0 1.9 6.1 4.6 7.5 3.3.6-.6.1-1.6-1.5-2.8-3-2.3-6-2.6-6-.5zM310 468.8c0 .7 6.3 4.2 7.5 4.2 1.6 0 .1-2.9-2-3.8-3-1.4-5.5-1.5-5.5-.4zM302.5 473c-1.8 1.9-2.5 3.4-1.9 3.9 1.3 1.3 10.3 1.8 10.5.6.1-.6.9-1.5 1.8-2.2 1.4-1 1.4-1.2-.4-1.8-1.1-.4-3.2-1.3-4.6-2-2.4-1.3-2.8-1.2-5.4 1.5zM299.5 482c-.6 1 .1 1.4 4.6 2.4 3.1.7 4.3-.2 2.8-2.1-1.3-1.5-6.5-1.8-7.4-.3zM296.3 487.9c-.8 1.2-.9 2.2-.3 2.6.6.4.5 1.3-.2 2.5-1 1.5-1 2.2-.1 3.1.9.9 2.2.3 5.4-2.9 2.2-2.3 3.9-4.7 3.7-5.4-.3-.7-2-1.4-3.9-1.6-2.5-.2-3.7.2-4.6 1.7zM157.3 449.7c-3.1 1.6-4.5 4.3-2.3 4.3.6 0 2.7 1.6 4.6 3.5 2.5 2.5 4.1 3.4 5.4 3 1-.3 2.8 0 3.9.7 1.7 1.1 2.3 1 3.7-.4 2.1-2 .9-4.4-4.8-9.2-4.6-4-5.8-4.2-10.5-1.9zM136.5 458.1c-.4.6-.4 1.3-.1 1.6.8.8 3.6-.5 3.6-1.7 0-1.3-2.7-1.3-3.5.1zM174.3 466.7c-2.2.8-1.5 5.8 1.2 8.3 2.4 2.2 2.7 2.3 4.2.7 1.6-1.5 1.5-1.9-.3-5.3-2-3.9-3-4.6-5.1-3.7zM157.6 482.9c-.9 1.4 3.2 10.8 4.9 11.5.7.2 2.1-.1 3.1-.8 1.7-1.3 1.7-1.6-.2-6.2-1.6-3.9-2.6-5-4.6-5.2-1.4-.2-2.9.1-3.2.7zM336.2 511.2c-1.4 1.4-1.6 3.8-.3 3.8 1.5 0 4.2-3.1 3.6-4.1-.8-1.2-1.9-1.1-3.3.3zM408.6 515.2c-1.7 8.3-1.1 10.7 1.7 6.5 2.3-3.6 2.6-8.1.5-8.5-1.1-.2-1.9.5-2.2 2zM335.6 517.8c-.9 1.5 2.7 10.2 4.2 10.2 1 0 1.2-.7.7-2.3-.3-1.2-1-3.5-1.4-5.1-.7-3-2.5-4.4-3.5-2.8zM390.5 527c-.3.6 0 1.3.8 1.6 2.5.9 10 0 10.5-1.4.5-1.5-10.4-1.7-11.3-.2zM409.4 529.1c-.5.8-.9 4.1-1 7.4-.1 3.3-1.1 11.6-2.4 18.4-2.1 11.2-2.2 12.9-1 19.5.7 3.9 1.6 7.5 2 7.9.4.5 1.9-1.4 3.3-4.2 3.3-6.1 11.7-19.1 15.1-23.2 3.5-4.1 3.3-5.7-1.1-10-2.1-2-5.4-5.7-7.3-8.4-6.8-9.1-6.6-9-7.6-7.4zM431.3 544.7c-.7.2-1.3 1.1-1.3 1.9 0 1 1.3 1.4 4.5 1.4s4.5-.4 4.5-1.4c0-2.2-4.4-3.3-7.7-1.9zM372.9 580.9c-2.8 2.3-2 3.5 2.8 4.4 4 .8 5-.6 2.9-3.8-2-3-2.7-3.1-5.7-.6zM359 603.6c0 2.4 9.6 10.7 15.1 13.1 5 2.2 17.1-2.1 13-4.7-.9-.5-2.2-.5-3.1 0-4.2 2.3-15.6-1.5-20.4-6.9-1.8-2-4.6-2.9-4.6-1.5zM276.5 607c1.8 3.4 3.5 3.9 3.5 1 0-1.3.5-1.8 1.5-1.4.8.4 1.5.2 1.5-.4 0-1.2-2.4-2.2-5.6-2.2-2.4 0-2.4.1-.9 3z"/><path d="M364.4 615.5c-.4.9.6 3.5 2.2 5.8 2.1 3.3 2.8 5.5 3 10.2.1 3.3.3 6.5.3 7.2.1.6 1.2 2.5 2.6 4.1 2 2.4 2.5 4.1 2.5 8.5 0 3.1.4 6.6.9 7.9.5 1.3 1.2 3.5 1.5 5 .4 1.6 1.1 2.8 1.6 2.8.7 0 .8-3.7.4-10-.7-10-.7-10.1 2-12.9 1.8-1.9 3.2-5 4.2-9.2.8-3.5 2.1-8.1 2.9-10.2 2-5 1.9-6.9-.2-6.5-1.2.2-2.6 2.6-4 6.8-1.3 3.6-2 5.1-1.7 3.3.5-3.1-.9-5.3-2.1-3.3-.5.7-1.2.5-2-.7-1.7-2.3-2.5-1.4-3.2 3.6-.7 4.7 1.6 9.1 4.7 9.1 2.3 0 2.6 1 .8 2.8-1.5 1.5-5.5 1.6-6.4.1-.4-.7-.8-4.5-1-8.6-.2-6.3-.7-8.1-3.4-12.4-3.4-5.1-4.7-5.9-5.6-3.4zM387 708.8c0 3 .8 4.5 2 3.7.9-.6 0-6.5-1.1-6.5-.5 0-.9 1.3-.9 2.8zM396 707.5c0 .8.5 1.5 1 1.5.6 0 1-.7 1-1.5s-.4-1.5-1-1.5c-.5 0-1 .7-1 1.5zM359.4 710.7c.4 1.6 1 4.6 1.4 6.8.8 4.3 3.9 5.9 3.5 1.7-.2-1.6.3-2.2 1.6-2.2 1.9 0 3.1-2.5 2.4-4.8-.8-2.1-2.2-1.3-2.6 1.5-.3 2.7-.4 2.7-2.3-1.4-2.2-4.9-5.1-6-4-1.6zM391 716c0 .5.5 1 1 1 .6 0 1-.5 1-1 0-.6-.4-1-1-1-.5 0-1 .4-1 1zM115.2 529.2c-.8.8-.9 1.5-.1 2.5 1.8 2.1 4.1 1.6 3.7-.9-.4-2.6-1.9-3.3-3.6-1.6zM68.1 529.9c-1.2.8-1.2 1.2-.2 2.5 2 2.4 4.3 2 3.9-.6-.3-2.5-1.7-3.2-3.7-1.9z"/><path d="M83.6 529.7c-.3.3-.6 1.4-.6 2.4 0 4.1-10.9 9.7-16.4 8.3-3.2-.8-4.7-2.6-5.5-6.7-.8-3.7-4.1-5.2-4.1-1.7s3.7 9.4 7.4 11.9c3.1 2 4.3 2.3 8.7 1.7 2.8-.4 6.2-1.4 7.4-2.2 2.8-1.8 5.5-7.2 5.5-10.7 0-2.6-1.2-4.2-2.4-3zM97.5 586.4c-2.2 1.6-1.6 2.5 2.7 4.4 2.1.9 2.9.8 3.9-.4 2.9-3.5-2.8-6.8-6.6-4zM90 621.5c0 .2 1.8 2.3 4 4.7 2.2 2.4 4.4 5.4 4.8 6.8 1.2 4.2.8 40.9-.6 48.7-.7 4-1.7 10.3-2.4 14-.6 3.8-1.9 9-2.9 11.6-2.2 5.6-2.4 9.3-.5 10.4 2.2 1.4 2.4 5.9.4 13.5-1.1 4-2.3 9.4-2.8 12-.5 2.7-1.2 5.3-1.5 5.8-.4.6-1.1 3.9-1.6 7.3-3.3 21.9-3.4 26.7-.5 26.7 1.1 0 1.4-2.2 1.3-9.7 0-8 .6-11.9 3.2-21.3 6.1-22 7.6-33.1 4.9-35.8-.8-.8-.6-2.5.9-6.9 4.2-11.9 6.2-26.1 7.2-52.5.7-18.4.9-19.9 2.9-22.1 1.2-1.3 2.2-2.8 2.2-3.3s1.4-2.7 3.1-4.7c4.6-5.6 2.3-6.2-4.3-1.1L102 630l-1.6-2.5c-2.3-3.5-10.4-8.2-10.4-6zM83.5 786c-.4.6-.3 1.6.3 2.2.6.6 1.2.6 1.7-.2.4-.6.3-1.6-.3-2.2-.6-.6-1.2-.6-1.7.2zM144.5 611.3c-1.4 1.1-1.6 2.2-1 6.5.7 5.6 2.1 6.5 4.9 3.3 1.3-1.4 1.6-2.8 1.1-5.5-.9-4.5-2.6-6-5-4.3zM155.5 638c-.9 1.4 1.3 5 3 5 1.8 0 2-3.1.3-4.8-1.5-1.5-2.5-1.5-3.3-.2zM168 658c0 2.1 3.1 7 4.4 7 2 0 2.6-1.1 1.6-3.1-2.1-3.8-6-6.4-6-3.9zM188.7 676.6c-.8.8.2 3.5 2.1 5.6 1.1 1.4 1.8 1.5 2.9.7 1.9-1.7 1.6-3.6-.9-5.3-2.4-1.7-3.2-1.9-4.1-1zM206 689c0 1.1 4 3.4 4.7 2.6.3-.3.3-1.2 0-2.1-.7-1.6-4.7-2.1-4.7-.5zM295.7 676.8c-2 2.2-2.2 6.2-.4 6.2 2.1 0 6-4.7 5.4-6.4-.8-2.1-3-2-5 .2zM466.2 776.2c.5 1.5 3.7 1.8 4.1.3.1-.6-.9-1.2-2.2-1.3-1.6-.3-2.2.1-1.9 1zM484.3 43.8c-3 2.5-3.3 3.3-3.6 9.2-.2 5.2-1.1 8.1-4.1 14-2 4.1-5 8.8-6.5 10.5-1.5 1.6-3.8 4.4-5 6.2-1.2 1.7-3 3.5-4.1 3.8-2.2.7-2.7 3.1-.7 3.8 1.7.6 6.5-2 7.7-4.3.6-1 3.2-4.7 5.8-8.2C481 69.5 487 58 487 53.7c0-2.4.9-4.6 2.6-6.6 4.8-5.7.6-8.3-5.3-3.3zM453.2 94.9c-1.8 2.5-2.7 2.9-6.2 2.7-4.1-.2-6.7 1.4-5.5 3.4 1 1.6 9.4 1.2 12.5-.7 3.2-1.9 5.6-5.6 4.6-7.2-1.2-1.9-3.1-1.2-5.4 1.8zM422.8 101.6c-1.8 1.7-.6 4.6 2.7 6.5 2.8 1.7 3.5 2.7 3.5 5.2 0 1.6 2 8 4.4 14.1 6.2 15.6 8.1 21.5 11.5 34.6 3.3 12.4 4.3 15.5 9.1 27 1.7 4.1 4.9 14.5 7.1 23 2.2 8.5 4.8 18 5.8 21 4 11.8 5.1 15.8 7 24.4 2.2 10 3.5 12.1 5.7 9.2 2.4-3.4 1.3-11.5-4-27.6-1.3-4.1-4.5-16.1-7.1-26.5-2.6-10.5-6.5-23.7-8.7-29.5-2.2-5.8-5.3-15.4-6.9-21.5l-2.9-11 2.6-2 2.5-2-1.5-7.5c-.9-4.1-2.5-10.4-3.6-14-1.1-3.6-2.5-8.7-3.2-11.4-1.4-5.3-3.9-7.9-5.9-5.9-1.2 1.2.6 11.1 3.7 20.1.8 2.3 1.4 4.8 1.4 5.4 0 4.7-8.1-15.4-8.9-22.1-.5-4.2-1.2-5.8-3.1-7.2-2.7-2-10.1-3.5-11.2-2.3z"/><path d="M423.2 117.2c-.6 1.3-1.3 5.6-1.6 9.6-.4 4.9-1.5 9-3.1 12.2-2.6 5-5.7 17.8-4.7 19.4 1.4 2.4 7.9-15.8 10.2-28.9.7-3.9 1.9-8.5 2.6-10.4 1.7-4.2 1.8-4.1-.4-4.1-1 0-2.4 1-3 2.2zM100.9 833c-2.5.4-10.8.8-18.6.8-7.7-.1-14.6.2-15.2.6-1.2.8-1.4 3.6-.3 5.2.4.6 1.9 1.4 3.5 1.8 2.3.5 2.9.3 3.7-1.9.8-2.1 1.6-2.5 4.9-2.5 2.1 0 4.3.6 4.9 1.3.6.7 1.1 6.4 1.1 13 0 9.1-.3 12.4-1.5 14.2-2.5 3.8-1 4.6 7.8 4.3 8.6-.3 11.3-1.9 6.4-3.8-2.6-.9-2.7-1.2-2.5-8.7.1-4.3.3-10.4.6-13.6l.5-5.7h4.8c3.9 0 4.9.4 5.3 2 .7 2.8 3.5 2.5 4.3-.6.8-3.3-1-7.4-3.3-7.3-1 .1-3.8.5-6.4.9zM282.4 832.9c-1.1 1.1-.2 2.9 1.6 3.4 1.9.5 2 1.4 2 14 0 12.2-.2 13.6-2 15.2-1.1 1-1.7 2.2-1.3 2.6.7.6 19.6 1.4 24.1 1 1.6-.1 7.2-5.5 7.2-7 0-1.8-4-1.3-6.7.9-1.9 1.5-4.1 2-8.5 2h-5.9l.3-6.7c.2-4.2.8-6.8 1.6-7.1.6-.2 1.2.3 1.2 1.2 0 .8.9 2 1.9 2.6 1.6.8 2.3.6 3.5-1.2 2-2.9 2-8.2 0-9.9-1.3-1-1.9-.8-4.1 1.5-3.2 3.5-4.5 2.3-4.1-3.5l.3-4.4h4.5c3.8 0 4.5.3 5 2.4.3 1.4 1.1 2.6 1.7 2.8 1.4.5 4.3-3.5 4.3-5.8 0-3.5-2.9-4.4-14.7-4.4-6.3 0-11.6.2-11.9.4zM115.7 833.6c-.3.4-.2 1.4.3 2.4.5.9 1 7.9 1.1 15.5.2 12.1 0 14-1.6 15.1-3.1 2.3-.7 3.5 6 3.1 6.7-.3 8.9-1.2 6.5-2.7-1.3-.8-3.3-12.7-2.4-14.2.6-1 7.4-1 12.7-.1l3.9.6-.5 6.1c-.3 3.4-.6 7-.8 8.1-.4 1.8.2 2 6.9 2.3 3.9.2 7.2-.1 7.2-.5 0-.5-.9-1.6-2-2.6-1.8-1.5-2-2.9-2-15.5 0-8.2.4-14.2 1-14.8 1.8-1.8-1.5-3.5-6.2-3.2-3.6.3-4.3.6-4 2.3 1.8 13.6 1.5 14-8.5 12.8l-6.8-.8v-14l-5-.3c-2.8-.2-5.4 0-5.8.4zM164.5 833.8l-5.1.3-.2 15.7c-.2 9.5-.7 16.2-1.4 17-2.1 2.5.7 3 13.4 2.3 12.3-.6 12.8-.7 15.7-3.5 2.4-2.3 2.8-3.3 2-4.3-1.6-1.8-2.4-1.7-5.5 1.2-2.4 2.2-3.6 2.5-8.3 2.3l-5.6-.3-.3-5.8c-.2-4.4 0-5.7 1.1-5.7.8 0 1.7.9 2 2.1 1 3.9 3.2 1.5 3.1-3.5 0-5.2-1.6-7.8-3.6-5.8-2.2 2.2-2.9 1.3-2.6-3.1l.3-4.2 5.2-.3c4.4-.3 5.3 0 6.7 2 2.3 3.2 4 1.2 2.8-3.3l-.8-3.4h-7c-3.8 0-9.2.1-11.9.3zM236.3 834.4c-.3.5.5 1.7 1.8 2.7 2.3 1.7 2.4 2.1 2.1 15.1-.2 11.1-.5 13.5-1.9 14.5-1.9 1.5-1.8 1.5 5.7 1.3 10.6-.3 24-2.6 26.8-4.7 5.3-3.9 6.7-7 6.6-13.9-.1-7.4-1.9-10-8.9-13.7-3.4-1.7-6-2-17.8-2.1-7.7-.1-14.1.3-14.4.8zm27.5 7.9c4.3 4 2.3 16.4-3.2 20.1-3 1.9-8.2 2.4-9.7.9-1.1-1.1-2.2-17.6-1.4-21.4.6-2.7.8-2.7 6.3-2.2 3.8.4 6.5 1.3 8 2.6zM315.4 834.1c-.4.7.2 1.9 1.3 2.8 2.6 2 4.1 5.1 8.8 17.9 3.1 8.4 3.5 10.5 2.5 11.8-2 2.3-.2 3.2 7 3.6 5.5.2 6.5 0 6.8-1.5.2-1-.3-1.7-1.2-1.7-2.9 0-2.6-2 2.5-13.7 2.8-6.5 5.7-13.3 6.5-15.1 1.2-2.6 1.2-3.3.2-3.6-6.5-2-8.9-1.3-6.7 2.1.8 1.4.4 3.4-2.4 9.8-1.9 4.4-3.7 8.8-4 9.7-1 2.8-2.4 2.1-3.5-1.5-3.6-11.6-4.5-16.7-3.3-18.1.7-.8 1-2 .6-2.6-.9-1.4-14.2-1.3-15.1.1zM360.5 834c-.3.5.1 2 .9 3.2 1.2 1.8 1.4 4.5 1 11.8-.6 12-1 16.1-1.9 18.3-.6 1.3-.2 1.7 1.8 1.7 1.3 0 3.7.2 5.3.5 1.6.3 3.6.1 4.3-.4 1.3-.8 1.2-1.4-.3-4.3-1.6-2.9-1.8-5.1-1.4-14.8.3-6.3.8-12.3 1.3-13.2.5-1.3 0-2-2-2.8-3.3-1.3-8.2-1.3-9 0zM381.5 834c-.3.5.4 2.3 1.5 3.8 2 2.7 2.1 3.9 1.8 15-.3 10.7-.5 12.3-2.3 13.6-1.6 1.2-1.7 1.6-.6 3 1.1 1.3 3.3 1.5 12.9 1.3l11.5-.3 3.4-3.9c1.8-2.2 3.2-4.6 3.1-5.4-.5-2.7-3.5-2.3-6.4.8-3.3 3.4-9.4 5-11.2 2.9-2.3-2.9-1.6-25.3 1-28.5.5-.7.7-1.7.3-2.3-.8-1.3-14.2-1.3-15 0zM440.7 861.6c-1.2 1.2-.8 5.1.7 6.4 3.5 2.8 9.3-1.1 7-4.8-1.1-1.7-6.4-2.9-7.7-1.6z"/></svg>