<?xml version="1.0" encoding="UTF-8" standalone="no"?> <!-- Created with Vectornator for iOS (http://vectornator.io/) --><!DOCTYPE svg PUBLIC "-//W3C//DTD SVG 1.1//EN" "http://www.w3.org/Graphics/SVG/1.1/DTD/svg11.dtd">
<svg style="fill-rule:nonzero;clip-rule:evenodd;stroke-linecap:round;stroke-linejoin:round;" xmlns:vectornator="http://vectornator.io" viewBox="0 0 500 878" height="100%" xml:space="preserve" xmlns="http://www.w3.org/2000/svg" width="100%" xmlns:xlink="http://www.w3.org/1999/xlink" version="1.1">
<metadata>
<vectornator:setting value="true" key="VNDimensionsVisible"/>
<vectornator:setting key="WDSnapToEdges" value="false"/>
<vectornator:setting key="WDDisplayWhiteBackground" value="false"/>
<vectornator:setting value="false" key="UndoHistoryDisabled"/>
<vectornator:setting key="WDGuidesVisible" value="true"/>
<vectornator:setting value="Points" key="WDUnits"/>
<vectornator:setting key="WDIsolateActiveLayer" value="false"/>
<vectornator:setting value="false" key="VNPencilOnly"/>
<vectornator:setting value="true" key="WDRulersVisible"/>
<vectornator:setting value="false" key="WDCMYKEnabledKey"/>
<vectornator:setting value="false" key="WDDynamicGuides"/>
<vectornator:setting key="IsTimeLapseWatermarkDisabled" value="false"/>
<vectornator:setting key="WDOutlineMode" value="false"/>
<vectornator:setting value="true" key="VNSnapToGuides"/>
<vectornator:setting key="WDSnapToGrid" value="false"/>
<vectornator:setting value="false" key="WDSnapToPoints"/>
</metadata>
<defs/>
<g vectornator:layerName="Untitled" id="Untitled">
<path d="M0+122.9L0+245.8L4.1+246.5C9.2+247.4+10.9+246.1+9.1+242.6C7.4+239.5+8.2+238.2+12.7+237.4C15.9+236.8+16.7+237.1+18.7+239.4C20+240.9+21+242.7+21+243.4C21+246+23.6+247.2+26.3+245.9C28.4+245+29.2+245.1+31.7+246.9C34.4+248.9+38+249+38+247C38+246.5+39.2+244.8+40.6+243.1C43.8+239.2+45.4+233.7+44.1+231.1C43.5+230+41.5+228.9+39.3+228.6C33+227.5+32+227+32+225C32+222.5+26.6+217+24.2+217C23.1+217+21.5+215.9+20.6+214.5C19.7+213.1+18.3+212+17.6+212C14.9+212+13.6+203.6+14.9+194.2C16.7+181+17.5+179+23+173.2C28.8+167.1+36.7+163+42.5+163C46.2+163+46.6+163.3+48.2+167.1C49.9+171+50+171.1+53.7+170.5C59.5+169.5+60+169.2+60+167C60+164.5+60.8+164.5+63.6+167.1C65.9+169.3+68.6+169.7+73.1+168.5C76.6+167.6+78.9+171.2+80+179.3C80.9+185.3+80.8+185.6+77.9+188.6C75.2+191.4+75+192.1+76+194C77.1+196+76.9+196.5+74.9+198.1C72.9+199.6+72.8+200+73.9+201.4C74.6+202.3+75.7+203+76.3+203C76.9+203+78.6+204.4+80+206.2L82.7+209.4L86.9+207.5C89.2+206.5+92+204.3+93.2+202.8C95+200.1+95.6+199.9+99.2+200.5C102.2+201+103.6+200.8+105+199.5C106.8+197.9+107.1+198+111+201.1C114.7+204.2+115.1+204.9+114.7+208.1C114.1+212.9+115.4+215+119+215C120.9+215+122.3+215.7+123+217.1C123.9+218.7+124.7+219+127.1+218.5C128.7+218.1+130+218.3+130+218.8C130+220.4+133.2+221.1+134.7+219.8C135.5+219.2+135.9+217.7+135.6+216.6C134.3+211.7+139.5+201.9+144.1+200.5C146.4+199.7+153.6+203.4+155+206C155.6+207+155.8+209.7+155.4+211.8C155+214.4+155.3+216.7+156.3+218.7C158.4+222.7+156.5+234.7+153.2+238.2C150.1+241.5+150.4+242.7+154.7+244.5C159.1+246.4+160.7+245.9+162+242.5C163.2+239.3+165+238.6+169.4+239.4C172+239.9+173+240.6+173.2+242.3C173.4+244.1+174.1+244.5+176.6+244.3C179.8+244+179.8+244.1+180.9+250.4C181.5+253.9+181.8+257.4+181.5+258.1C180.9+259.7+180.3+276.9+180.1+294.7L180+306.9L175.8+307.2C172.4+307.4+171.4+308+170+310.5C167+315.9+158.9+316.2+160.6+310.8C161.2+308.6+155.2+304+151.6+304C149.8+304+148.7+304.7+148.1+306.2C146.2+311.2+136.4+315.3+133.8+312.3C133+311.3+133+310.6+133.8+309.8C135.5+308.1+135.3+305+133.5+304.4C131.5+303.6+127.2+305.4+123.6+308.5C117.5+313.7+110.3+311.1+106.5+302.2C104.9+298.6+104.8+297.3+105.8+294.6C107.4+290.2+107.3+288.6+105.2+286.7C101.1+283+94.3+286.4+95.6+291.5C96.3+294.4+90.3+297.3+85.4+296.4C83+296+81.2+296.3+79.4+297.4C77+299.1+76.7+299+72.5+296.5C70+295.1+67.6+293.1+67+292.1C66.5+291.1+66.1+286.9+66.2+282.8C66.3+278.7+66.1+274.9+65.7+274.3C65.2+273.6+63.6+273.6+60.1+274.4C55+275.5+51+278.3+51+280.7C51+281.4+50.3+282+49.5+282C47.6+282+47.5+284.6+49.5+285.3C51.2+286+50.8+295.4+48.7+301.5C46.9+306.6+40+311+34.1+310.7C30.9+310.6+29.4+311.2+27.2+313.3C23.6+316.8+21.5+316.7+15.6+313C10.4+309.7+7+309.7+7+313.1C7+315.5+4.3+315.6+1.8+313.3C0.0999995+311.7-4.24683e-07+312.2-4.24683e-07+325.2L-4.24683e-07+338.7L3.7+339.3C12.3+340.5+15.8+344.2+16.5+353C16.7+354.9+17+357.2+17.2+358C17.9+361+13.3+360.2+9.8+356.7C7.9+354.9+5+352.6+3.2+351.8L0+350.2L0+392L4.4+392C8.2+392+9.2+392.5+12+395.6C14.8+398.9+15.1+399.7+14.5+403.4C14.2+405.7+13.9+408.8+13.8+410.3C13.7+412.7+13.4+413.1+11.1+412.8C9.1+412.6+7.8+411.1+5+406.3C3.1+402.8+1.2+400+0.8+400C0.3+400+2.38419e-07+407.2+2.38419e-07+416C2.38419e-07+428.1+0.3+432+1.3+432C1.9+432+3.8+433.1+5.5+434.4C8.2+436.6+8.3+437+7.2+439.4C5.4+443.4+5.7+447.1+8.1+449.7C9.9+451.5+10.1+452.2+9.1+453.4C7+455.9+4+456.3+1.9+454.4C2.38419e-07+452.7+2.38419e-07+452.9+2.38419e-07+461.6L2.38419e-07+470.5L6.1+470.5C11.3+470.5+12.4+470.8+14.1+473C17.3+477+18.1+479.7+16.8+482.5C15.9+484.5+16+485.3+17.4+486.9C19.2+488.9+18.8+491+16.7+491C12.8+491+7.7+488.4+4.1+484.7L0+480.5L0+614.3C0+730+0.2+748+1.4+748C3.6+748+4.1+746.5+3+743.3C1.3+738.6+4.7+731.8+10.6+728.1C16.9+724.3+21.9+724.7+27.2+729.8C31.2+733.6+34+733.6+34+729.9C34+728.7+34.8+727.2+35.7+726.5C37.2+725.4+37.2+725+36.1+723.6C35.4+722.7+34.1+722+33.3+722C32.2+722+31.9+721.3+32.3+719.8C33+717.2+31.5+715+28.9+715C25.5+715+18.3+702.9+16+693.2C15+688.7+15+687.6+16.4+685.5C17.3+684.2+18+682.2+18+681.2C18+678.5+22.7+672.9+29.6+667.3L35.5+662.5L44.5+662.5C52.7+662.5+53.9+662.7+57.7+665.3C60.1+666.9+62+668.5+62+669C62+670.2+70.5+676+72.2+676C72.9+675.9+74.8+674.8+76.5+673.5C79.2+671.3+79.4+670.8+78.2+668.9C77+667+77.1+666.4+79.7+663.8C87.5+655.5+101.5+656.2+111.3+665.5C114.1+668.2+118+675+118+677.3C118+678+119.1+679.7+120.4+680.9C122.6+682.9+123.3+683.1+125.9+682.2C129+681.1+129+681.2+131.5+686.4C133+689.6+135+692.1+136.5+692.8C139+694+140+698.2+138.1+699.4C136.8+700.3+132+696.1+132+694.1C132+693.1+131.2+691.6+130.2+690.7C128.5+689.1+128.1+689.2+124.8+692.3C121.7+695.1+121.2+696.2+121.1+700.5C120.6+713.7+120.8+717.2+122.3+718.8C124.3+720.7+126+719.5+129.1+714C130.3+711.9+133.2+709+135.6+707.5C138.1+705.9+140.3+703.7+140.5+702.6C142.5+693.9+143+691.1+143+688.4C143+686+143.4+685.3+144.7+685.4C146+685.5+146.8+684.3+147.6+681C148.8+676.5+149.4+676.8+150.3+682.5C150.7+684.8+150.2+686.1+148.3+688.1C146.4+690.2+145.7+692.1+145.3+697.1C144.8+704.1+142.7+714.1+140.6+719.2C139.9+721+139+725.5+138.6+729.2C138.1+734.8+134.9+745+133.8+745C133.6+745+133.6+742+133.8+738.2C134.2+728.6+133+722.6+130.4+722.2C127.8+721.8+125.7+724.3+123.5+730.5C122.5+733.2+121+736.4+120.3+737.5C119.6+738.6+119+740.4+119+741.6C119+744.1+116+750.4+115.2+749.5C114.9+749.2+114.5+741.4+114.5+732.2C114.3+717.6+114.6+714.3+116.7+706C118+700.8+119.9+695.3+121+693.8C123.4+690.6+123.5+690+121.6+690C119.5+690+115.2+695.9+113.6+701.1C112+705.8+110.5+716.3+110.9+719.3C111+720.4+110.6+723.4+110+726.1C109.1+729.6+108.3+731+107.1+731C105.2+731+100.9+735.1+99.1+738.7C98.5+739.9+98+744.2+97.9+748.2C97.9+752.2+97.3+759.2+96.7+763.7C95.6+771.3+95.3+772+92+774.4C90.1+775.8+87+777.7+85.2+778.5C82.2+779.9+81.6+779.9+78.5+778.4C76.5+777.5+74.8+775.8+74.6+774.6C73.1+767.2+72.9+766.8+69.4+765.4C61.8+762.2+58+765.1+58+774.2C58+778.3+57.5+779.5+54.2+783L50.3+787L41.6+787C31.3+787+25.7+784.8+24.4+780.3C22.9+775+23.2+764.7+25+760.5C27.2+755.3+28.5+754.3+34.5+753.3C38.6+752.6+39.6+752.1+39.8+750.2C40.6+744.8+35+743.4+27.7+747.1C23.5+749.3+22.8+750+17.8+757.2C14.4+762.2+13+771.2+15.3+773.8C16.2+774.7+17.1+776.7+17.5+778.2C18.1+780.5+17.7+781.1+14.9+782.5C11.3+784.4+5.7+784.9+2.2+783.7L2.6226e-06+782.9L2.6226e-06+819.8L41.3+819.5C104.6+819+163.3+818+221+816.5C231.2+816.2+267+815.7+300.5+815.4C361.3+814.9+378.5+814.7+425.1+813.5C444.7+813+484.6+812.2+497.8+812L500+812L500+486L497.7+486.5C495+487.2+492.4+484.7+491.8+481C491.3+477.4+486.4+476.9+485.1+480.3C484+483.2+480.9+484.2+476.9+482.8C475.3+482.3+473.3+482.1+472.4+482.4C468.9+483.7+462+476+460.7+469.1C459.7+464.4+462.9+457.5+466.4+456.6C469.7+455.8+469.6+455.1+465.9+452.2C463.9+450.5+462.6+450.1+461.7+450.8C461+451.3+457.8+452+454.5+452.4L448.5+453L443.9+448.3C438.2+442.5+437.1+440.4+436+433.7C434.7+425.8+436.5+419.3+441+414.7C444.1+411.7+445.5+411+448.7+411C450.8+411+453.4+411.6+454.5+412.3C458.3+414.9+461.1+415+463.4+412.6C465+410.8+466.3+410.4+468.7+410.7C471.2+411.1+471.9+410.8+472.5+409.1C472.9+407.9+472.6+406.3+472+405.5C471.4+404.7+471.1+403.3+471.4+402.3C472.2+400+480+393+486.5+388.8C492.8+384.6+498.3+374.9+497.8+368.6C497.7+366.2+498+364.5+498.8+364.2C500.8+363.6+500.1+361.1+497.7+360.5C495.1+359.8+490+361.4+490+362.9C490+363.4+490.5+364.2+491.1+364.6C493.1+365.8+491.4+375.8+488.3+380.9C484.7+386.7+480.2+389+471.8+389.3C462.6+389.5+454.2+385+451.3+378.2C450.5+376.3+449.3+375+448.2+375C447.2+375+446+373.8+445.3+372C443.9+368.2+441.4+367.3+438.2+369.3C434.7+371.4+434.5+372.4+437.1+374.9C440.2+377.8+440.2+381.8+437+386C435.6+387.9+433.8+391.3+433.2+393.6C432.6+395.8+430.9+398.7+429.5+400C427.1+402.3+427+402.3+425+400.5C423.3+398.9+422.6+398.8+421.2+399.8C420.3+400.5+418.5+401.5+417.2+402C415.6+402.7+415+403.7+415.2+405.2C415.6+408.3+413.2+408.6+407.9+406.2C401.3+403.2+400.2+403+399.1+404.4C398.3+405.3+398.4+406.6+399.6+408.9C400.4+410.6+401+412.8+400.8+413.7C400.2+416.9+398.2+416+396+411.5C391.3+401.8+383.6+398.3+370.9+400C366.5+400.6+362.3+401.3+361.6+401.6C360.7+402+360+400.9+359.6+398.5C358.8+394.6+354.6+385.5+352.2+382.7C351.4+381.8+349.9+381+348.9+381C346.8+381+342.9+387.4+341+394C340.3+396.5+339.6+399.1+339.4+399.9C339.1+400.9+338+400.4+335.5+398C332.5+395.1+332+393.9+332+390.1C332+385.8+330.8+371.7+329.1+356.7C328.5+350.9+328.6+349.7+330.2+348.3C331.3+347.3+331.8+345.9+331.4+344.8C330.7+342.4+334.8+334.2+337.3+333.4C338.3+333.1+339.7+333.3+340.3+333.9C342.1+335.7+347.5+335.2+350.4+332.9C354.9+329.4+355.3+327.5+352.5+324.2C348+318.8+349.8+310.3+356.2+306.9C357.8+306+358.5+306.2+359.7+307.9C361.6+310.7+363.4+310.5+366.4+307.5C367.8+306.1+369.9+305+371.2+305C373.6+305+379.4+310.7+383.1+316.6C386.9+322.8+390.7+320.7+391.1+312.2C391.4+307.5+391.1+306.6+388.8+304.7C387.4+303.5+385.7+301.5+385+300.2C384.4+299+383.5+298.2+383+298.5C381.6+299.4+381.2+297.7+382.1+295.2C382.8+293.5+383.5+293+384.9+293.5C387.5+294.3+389.2+291.2+388.4+287.1C387.8+284.3+388+284+390.4+284C392.1+284+393.3+283.3+393.6+282.2C393.9+281.3+394.5+279.8+395+279C395.5+278.2+396.8+275.7+397.8+273.4C399.9+269.1+406.5+264.2+413.2+262C417.7+260.6+421.5+261.6+430+266.3C437.9+270.6+439.9+272.7+443.2+280C446.2+286.6+446.8+289.9+445.5+293.7C444.9+295.5+445.4+296+448.4+297.1C451.4+298.2+452+298.9+452+301.2C452+304.4+454.8+305.1+457+302.5C457.7+301.7+459.1+301+460.2+301C463.4+301+466+299.1+466+296.6C466+294.2+468.2+291.8+471.3+290.7C473.2+290+473.7+284.6+472+283.5C471.2+283+471.3+282.4+472.1+281.4C472.7+280.7+473.6+280.3+474.1+280.6C474.6+280.9+475.8+279.8+476.8+278.1C477.7+276.4+479.1+274.8+479.8+274.5C481.8+273.8+490.9+278+492.1+280.2C493.3+282.3+496.8+284+498.8+283.3C499.7+282.9+500+253.6+500+141.4L500+0L334.5+0C169.2+0+168.9+0+170+2C170.6+3.1+171.7+4+172.5+4C173.4+4+173.9+4.8+173.7+6.2C173.6+7.6+174.3+8.8+175.7+9.5C177.3+10.3+177.6+11+176.9+11.7C175.3+13.3+176.8+15.2+179.2+14.4C180.8+13.9+181.1+14.2+180.8+16.2C180.6+18.1+180.9+18.5+182.8+18.3C184.5+18.1+185+18.5+185+20.5C185+22.5+185.5+23+187.7+23C189.1+23+190+23.3+189.7+23.7C188.8+24.5+191+27.1+192+26.5C192.5+26.2+194.3+27.3+196.2+29C199.5+32+199.5+32.2+199.5+40.8C199.5+49.6+198.6+53.4+193.3+66.9C190.8+73.2+190.8+73.4+192.7+74.9C197+78.5+198.2+81.8+197.5+88.4C196.8+94.2+197+94.9+199.9+99.2C201.6+101.7+203+104.4+203+105.2C203+107.5+206+111.1+207.7+110.8C208.8+110.6+209.9+112+211.1+115.5C212.2+118.6+214.4+121.9+217+124.3C220.6+127.7+221.6+128.1+224.3+127.6C226+127.3+228.4+126.1+229.5+125C230.7+123.9+231.9+123+232.3+123C233.4+123+235+130.4+235+136C235+140.9+234.7+141.6+232.5+142.7C230.4+143.6+229.8+143.5+229+142.2C228.2+140.9+228.1+141.6+228.5+144.7C228.9+147.1+228.9+149+228.5+149C227.2+149+220.3+145.1+219.1+143.6C218.4+142.8+218.1+141.2+218.5+140C219.3+137.3+216+132.1+207.8+123.3C204.5+119.8+201.1+115.2+200.3+113.2C198.7+109.7+198.6+109.6+198.1+111.9L197.4+114.4L195.3+111.4C193.9+109.6+193.1+109.1+193+110C193+113.6+195.3+118.9+199+123.7C203.6+129.8+202+131.1+196.9+125.5C192.7+121+191.2+121+194+125.6C195.2+127.5+195.9+129.4+195.5+129.8C195.2+130.2+194.4+129.7+193.9+128.7C193.3+127.8+192.4+127+191.8+127C191.1+127+191.9+128.3+193.4+129.9C197.1+133.7+195+134.5+188.9+131.4C182.8+128.4+179+123.8+179+119.5C179+115.8+181.4+112.9+182.4+115.5C183.1+117.5+187.4+117.4+189.1+115.4C190.2+114.1+190+112.5+187.7+105.7C184.5+96.1+184.5+96.5+186.9+91.4C189.1+86.6+190.3+80+188.9+80C188.3+80+187.3+81.5+186.7+83.2C182.8+93.9+167.2+121.5+163.8+123.6C161.1+125.3+162.2+122.4+166.2+117.3C171.6+110.3+179.8+96+184.1+85.9C187+79.1+187.2+78.1+186.1+74.2C185.5+71.9+185+68.9+185+67.5C185+63.9+183.5+64.4+181.7+68.7C180.8+70.8+180.3+71.4+180.6+70C181+68.6+182.5+64.5+184.2+60.7C185.8+57+186.9+53.6+186.6+53.1C186.3+52.6+186.8+51.6+187.7+50.9C189.2+49.6+189.3+49.8+188.5+52C188.1+53.4+187.7+57.6+187.6+61.5C187.5+67.1+187.8+68.5+189+68.5C190.9+68.5+196.5+52+197.4+43.7C198.2+36.9+196.7+33+192.8+31.6C189.4+30.4+188.2+31.4+189.8+34C191.7+37.1+191.2+38.6+189+36.2C187.8+35+186.3+34+185.6+34C183.4+34+173+42.6+167.9+48.6C159.7+58.3+143+87+143+91.3C143+92+142.6+93+142.1+93.5C140.3+95.5+134+116.2+133.4+122.4C132.8+128.2+132.9+128.9+134.8+129.9C137.7+131.5+139.5+131.3+144.3+129L148.5+127L145.1+130.1C142.1+132.9+141.4+133.1+136.9+132.5C133.5+132+132+132.2+132+133C132+135.3+134+137.8+136.8+138.9C139.2+139.9+140.4+139.8+143.5+138.6C148.3+136.6+148.9+137.1+145.3+140C143+141.8+141.7+142.1+138.1+141.6C135.6+141.3+132.6+140.3+131.4+139.5C128.3+137.5+126.3+137.6+125.1+139.7C124.2+141.3+124.1+141.3+124+139.2C124+136.7+121.5+136.2+120.6+138.5C119.8+140.7+118.2+140.3+117.8+137.8C117.4+134.8+114.4+134.3+113.5+137C112.8+139.2+110.5+139.2+110.5+137C110.5+134.8+108.2+134.7+107+136.9C105.1+140.6+99.1+138.6+99+134.3C99+132.8+103.6+130.3+110.1+128.4C112.8+127.6+115+126.6+115+126.1C115+124.4+111.1+121.9+107.7+121.3C104.8+120.9+104.3+120.4+104.8+118.7C105.2+117+104.9+116.8+103.2+117.2C100.6+117.9+99.4+116.5+100.9+114.6C101.8+113.5+101.7+112.8+100.5+111.6C99.6+110.7+98.4+110.2+97.9+110.5C96.2+111.6+94.8+109.9+96.1+108.4C98+106.1+95.7+102+92.5+102C89.7+102+89.5+101.7+91.2+99.1C93+96.2+90.7+91.6+88+92.5C85.5+93.3+85.3+91.5+87.7+90.1C89.1+89.3+89.3+88.7+88.4+86.3C87.8+84.6+86.7+83.5+85.6+83.5C82.8+83.5+82.5+81.3+85+80C87.8+78.5+87.5+72.5+84.6+72.5C81.6+72.5+81.5+70.1+84.5+69C86.8+68.1+87.1+67.5+86.8+64.3C86.6+62.2+86+60.5+85.3+60.5C82.9+60.5+82.7+58.9+85+56.5C87+54.4+87.1+53.8+85.9+52.4C84.8+51+84.9+50.6+87+49C89.7+47+89.2+45.8+85.8+45.5C83.2+45.3+81.1+42.5+82.5+41.1C83.2+40.4+84.7+40.7+86.8+41.7C90.9+43.7+93.4+42.2+90.7+39.2C88.5+36.8+90.3+34.6+93.2+36.1C95.1+37.1+95.2+37+95.4+33C95.5+31.1+96.1+30.5+97.7+30.5C100.4+30.5+101.5+29.4+101.5+26.7C101.5+25+102.1+24.6+105+24.6C107.9+24.5+108.5+24.1+108.5+22.3C108.6+19.3+109.5+18.6+111.8+19.9C114+21.1+118+18.9+118+16.4C118+15.2+118.8+15.1+121.5+15.6C124.6+16.1+125.1+15.9+126+13.6C127.1+10.6+128.2+10.3+130.1+12.6C131.6+14.4+135.8+13.7+137.6+11.2C138.6+9.8+139+9.8+140.4+10.9C141.4+11.8+143.4+12.1+146+11.7C148.5+11.4+150.5+11.7+151.7+12.6C154.1+14.4+158.9+14.4+159.6+12.5C160.5+10.2+161.7+10.7+163.2+13.7C163.9+15.3+165.5+16.6+166.8+16.8C168.8+17.1+169+16.8+169+11.6C169+7+168.6+5.9+166.9+4.9C165.5+4.2+165+3.2+165.3+1.9C165.8+0+164.1+0+82.9+0L0+0L0+122.9ZM298.5+4.6C302.7+5.7+306.6+7.4+308.2+8.8C310.5+10.9+311.2+11.1+312.5+10C313.8+9+314+9.1+314+10.8C314+11.9+314.7+13.6+315.6+14.5C316.5+15.4+317.3+17.4+317.5+19.1C317.6+21.2+318.9+23.1+321.9+25.6C326.5+29.6+328.6+33+330.4+39.9C331.7+44.6+331.8+50.5+330.7+51.7C330.3+52+330+53.4+330+54.7C330+57.4+332+57.7+335.3+55.5C337.1+54.4+338.8+54.2+343+54.9C352.2+56.4+356.6+63.9+354+73.8C352.3+80.1+351+82+346.3+85.3C342.8+87.7+341.9+87.9+339.7+86.9C337.5+85.9+336.6+86.1+333.3+88C331.2+89.3+327.2+92.4+324.5+94.9C321.7+97.4+316.1+101.7+312.1+104.5C308.1+107.2+301.6+112.1+297.5+115.2C293.5+118.4+289.9+121+289.5+121C288.6+121+289.5+116.8+294.8+98.2L299.4+81.9L297.3+79.9C295.6+78.2+294.8+78+293.2+78.9C290.5+80.4+281.1+94.9+271.2+113C265.9+122.7+260.6+131.5+259.8+131.8C259.4+132+257.5+134.3+255.8+136.8C253.5+140.2+252.4+141+252.2+139.8C252+138.9+252.5+137.1+253.3+135.8C255.5+132.3+257.3+120.5+256.6+114.5C256.2+110.7+256.5+108.1+257.6+105.4C258.7+102.8+259.1+99.8+258.8+96.2C258.3+90.6+257+88.8+253.5+89.2C250.7+89.6+250.4+92.6+253.1+93.3C255.1+93.8+255.2+94.3+254.5+98.7C254.2+101.3+252.8+105.5+251.4+107.9C250.1+110.3+249+112.8+249+113.5C249+114.2+247.8+116.4+246.4+118.5C245+120.6+243.4+124.7+242.8+127.6C242.2+130.6+241.3+133+240.9+133C239.4+133+239.9+125.2+241.6+119.9C242.5+117.2+243+114.7+242.7+114.4C242.4+114.1+241.5+116.4+240.6+119.4C239.7+122.5+238.5+125+238+125C236.5+125+233+119.9+233+117.6C232.9+114.4+228.8+105.1+224.7+98.9C219.2+90.5+219.8+81.7+225.6+87.1C227+88.4+228+90.5+228+92.1C228+93.5+228.7+95.3+229.5+96C230.3+96.7+231.5+99.1+232.1+101.4C232.7+103.6+233.7+106.7+234.2+108.2C235.9+112.8+239.8+112.9+241.9+108.4C242.8+106.4+243.5+106.1+245.5+106.6C247.6+107.1+248+106.9+248+104.8C248+103.5+248.9+100.7+250+98.5C251.9+94.7+251.8+91.8+249.9+95.3C248.5+97.7+247+97.4+247+94.7C247+90.3+245.8+88+243.1+87.4C236.9+85.9+231.5+78+232.5+72C233.1+68.4+233+68.2+228.6+65.6C225.7+63.9+224+62.2+224+61C224+60+222+57.4+219.5+55.3C213.8+50.6+211+44.8+210+35.9C208+17.7+213.6+7.5+227.4+3.9C236.4+1.6+288.3+2.1+298.5+4.6ZM481.6+27C482.2+66.9+483+91.2+483.9+98.2C484.8+104.8+484.3+117+483.1+117C482.8+117+477.1+112+470.5+105.9C463.9+99.9+454.7+92.3+450+89.1C445.3+85.9+437.6+79.3+432.9+74.4C416.9+57.9+405.1+48+401.5+48C396.7+48+396.5+50.2+399.8+61.3C401.5+66.9+403.7+74.6+404.5+78.5C405.4+82.3+406.9+88.4+408+92C409+95.6+410.4+101.2+411.1+104.5C411.8+107.8+413.3+113.7+414.6+117.6C418.6+130.2+421.3+142.1+420.4+143C419.5+143.8+407.2+138.2+404+135.6C403.2+134.9+399.7+132.6+396.3+130.6C392.8+128.5+390+126.5+390+126C390+125.6+388.2+124.5+386.1+123.7C383.9+122.8+381.9+121.6+381.6+121.1C381.2+120.6+378.4+119.2+375.2+118C372.1+116.8+368.8+115.2+367.9+114.4C365.4+112.1+341+100+339+100C335.9+100+335.8+101.7+338.5+106.4C340.9+110.5+341+111.1+339.7+114.2C337.2+120+334+122.1+327.2+122.3C317.2+122.6+317.1+121.1+326.3+112.7C330.5+108.7+334+105.2+334+104.7C334+102.6+330.6+104.7+323.9+111C319.9+114.8+313.6+120+310+122.5C294.9+132.9+295+133.2+314.3+134.9C322.3+135.6+329.3+136+329.8+135.6C331.4+134.6+334+136.1+334+138C334+140.2+333.4+140.4+324+141.9C319.9+142.6+314.3+143.8+311.5+144.6C303.4+147.1+285.7+149.8+283.8+148.8C282.6+148.2+281.8+148.5+281+149.9C279.5+152.8+279.8+155.5+282.1+159.9C284.8+165.2+284.3+167.8+280.2+169.6C277+170.9+276.9+170.9+277.6+168.7C277.9+167.5+278.9+165.7+279.8+164.7C281.2+163.2+281.2+163+279.7+163C278.8+163+277.8+163.4+277.5+164C277.2+164.5+276.3+165+275.5+165C274+165+274.5+158+276.2+154.7C277.7+151.8+276.3+151.4+273+153.9C271.3+155.1+270+155.7+270+155.2C270+153.5+278.1+144.1+280+143.5C282.2+142.8+282.7+141+280.8+141C278.8+141+271+146+271+147.4C271+148.1+269.2+150.8+267+153.3C264.8+155.8+263+158.3+263+159C263+159.6+262.6+159.9+262.1+159.5C261.5+159.2+261.2+157.1+261.3+154.9C261.4+151.5+261+150.4+258.6+148.5L255.8+146.3L257.9+142.3C259+140.1+261.4+136.3+263.2+133.9C265.1+131.5+268.1+126.8+270+123.5C271.8+120.2+276+113.6+279.2+108.8C282.4+104+285+99.5+285+98.7C285+98+285.7+96.5+286.5+95.4C287.3+94.4+288+92.9+288+92.2C288+90.2+292.4+84+293.8+84C295.5+84+295.3+85+292.6+91.1C291.3+94.1+290+98.7+289.6+101.4C289.2+104+287.8+109.6+286.4+113.8C283.4+123.3+283.4+124.8+286.3+126.1C288.4+127.1+289.6+126.5+296.9+120.8C301.4+117.4+307.3+112.9+309.9+111C312.6+109.1+317.2+105.6+320.1+103.3C323.1+101+328.1+97+331.3+94.5C334.4+92+337.5+90+338.1+90C338.7+90+341.4+91.1+344.2+92.5C346.9+93.9+349.7+95+350.3+95C351+95+354.3+96.5+357.7+98.3C361.1+100+370.5+104.8+378.7+108.9C386.8+113+395.2+117.4+397.2+118.7C401.6+121.4+403.3+121.6+405+119.5C406+118.3+405.6+116.1+403.2+108.3C398.4+92.4+392.3+71.1+390.1+62.5C389+58.1+386.7+49.5+385+43.5C380.7+27.8+380.5+27+382+27C384.7+27+394.3+32.3+402.8+38.4C407.6+41.9+413+45.5+414.8+46.4C416.6+47.3+419.8+49.6+421.8+51.4C423.8+53.2+427.5+56+430+57.5C432.5+59+437.4+62.8+440.9+65.9C444.4+69+449+72.6+451.1+74C453.1+75.4+456.8+78.1+459.2+80.1C464.1+84.2+468.2+85.6+469.8+83.7C471.9+81.2+472.3+69.6+470.7+61.9C469.9+57.8+469.2+49.8+469.2+44C469.2+38.2+468.7+29.7+468.1+25C467.5+20.4+467+13.5+467+9.7L467+2.9L474.1+3.2L481.2+3.5C481.2+3.5+481.6+27+481.6+27ZM190.1+44.1C189.2+46.3+189.1+46.3+189.1+44.4C189+43.3+189.3+42+189.7+41.7C190.9+40.5+191.1+41.7+190.1+44.1ZM178.5+76.6C177.7+78.6+177+80.5+177+80.8C177+81.1+176.8+81.1+176.5+80.8C175.9+80.3+178.7+73+179.5+73C179.8+73+179.3+74.6+178.5+76.6ZM172.6+91.6C170.6+95.7+169+99.5+169+99.9C169+100.3+168.1+101.5+167+102.5C165.9+103.5+165+104.8+165+105.3C165+106.4+160.4+112.9+154.9+119.5C152.8+121.9+151+124.5+150.7+125.2C150.5+125.9+149.9+126.2+149.5+125.8C149.1+125.4+150.1+123.4+151.7+121.3C159+111.8+164.9+102.6+170+92.8C176.2+80.7+178+79.9+172.6+91.6ZM219.5+86C219.5+88.2+216.6+87.8+216.2+85.7C215.9+84.3+216.3+83.9+217.7+84.2C218.7+84.4+219.5+85.2+219.5+86ZM225+101.9C226.7+105.2+226.2+106.5+224+104.5C221.9+102.6+221.3+100+223+100C223.5+100+224.4+100.9+225+101.9ZM251.3+124.7C250+131.9+247.7+135.7+246+133C244.3+130.3+245+124.9+247.6+120.4C251.3+114.1+252.8+115.8+251.3+124.7ZM157.1+127.2C159.2+125.8+161.7+126.7+164+129.5C165+130.7+166.3+131+169+130.5C172.4+129.9+173+130.2+175.1+133C181.7+141.8+186.2+143.5+193.9+140.5C196.4+139.5+201.1+138.3+204.3+137.7C209.9+136.7+210.3+136.8+212.6+139.3C213.9+140.8+214.6+142.2+214+142.5C213.4+142.8+213+145.8+213+149C213+154.5+213.2+155+216.7+157.9C218.8+159.6+222.2+161.6+224.5+162.3C227.9+163.5+228.5+164.1+228.5+166.5C228.5+169.1+227.9+169.6+222.8+171.7C216.3+174.3+213.5+173.8+208.8+169.3L206+166.6L203.7+168.8C201.1+171.2+195+171.9+195+169.7C195+169.1+195.9+167+197+165.2C198.1+163.4+199+161.3+199+160.5C199+158.8+195.9+157+192.9+157L190.6+157L193+154.8L195.3+152.6L192.5+151.8C190.9+151.4+188.6+151.3+187.3+151.6C185.6+152.1+185+151.8+185+150.6C185+149.5+184.1+149+181.9+149C180.1+149+179.1+149.4+179.5+150C179.9+150.6+179.8+151.9+179.4+152.8C179+153.7+178.7+155.4+178.6+156.5C178.4+160.7+166.7+163.7+162.6+160.7C159.7+158.6+161.1+156.6+165.6+156.6C170.5+156.5+170.9+154+166.2+152.6C164.2+152.1+160.8+149.4+157.5+145.9C152.8+140.7+152.1+139.4+151.5+134.5C150.6+127.7+151.3+125.2+153.6+127.1C154.8+128.1+155.6+128.1+157.1+127.2ZM460.3+133.3C463.2+135.5+464+140.6+461.8+142.8C460.9+143.7+460.9+144.3+461.8+145.2C463.7+147.1+463.2+148+460.2+148C458.1+148+456.2+146.8+452.9+143.2C450.4+140.6+447.4+137.7+446.1+136.7C443.3+134.5+444.6+132.4+449.4+131.2C453.4+130.1+456.8+130.8+460.3+133.3ZM96.7+136.6C97.6+138.9+95.6+140.4+94.1+138.6C92.8+137+93.4+135+95.1+135C95.6+135+96.3+135.7+96.7+136.6ZM247.4+144.4C248.8+147.1+250+150.8+250+152.5C250+155.2+249.6+155.9+247.5+156.2C245.6+156.6+245+156.3+245+154.9C245+152+242.9+148.1+240.3+146.5C237.4+144.5+237.4+143.5+240.6+140.3C243.5+137.4+243.8+137.6+247.4+144.4ZM359.2+144.2C359.5+145.9+359.4+148.8+359+150.7C358.4+153+358.6+154.3+359.6+155.1C360.4+155.7+361+156.7+361+157.2C361+159.1+354.2+165+352.1+165C350.9+165+350+165.5+350+166.1C350+166.6+349.5+166.8+348.9+166.4C348.1+166+348.2+166.4+349+167.9C349.8+169.4+350.7+169.9+352+169.5C353.3+169.1+354.6+169.9+356.5+172.4C358+174.3+360.1+176+361.3+176.2C365.1+176.8+370.4+174.9+374.3+171.4C376.4+169.4+379.1+168+380.5+168C383.4+168+383.7+168.8+381.3+170.6C379.7+171.8+379.8+171.9+382.6+172C384.3+172+386.3+171.3+387+170.5C388.5+168.7+396.1+168.8+396.7+170.5C396.9+171.1+395.2+172.7+393+174C388.6+176.8+388.3+177.5+390.8+178.9C393.9+180.8+390.2+181.9+382.5+181.3L375.3+180.7L371.6+184.5C366.6+189.5+367.1+191.5+373.5+191.6C376.2+191.6+378.5+192.1+378.7+192.7C378.9+193.2+377.2+194.5+375+195.5C368.9+198.2+368.3+199.6+372.1+201.5C375+203.1+375.1+203.3+373.6+204.8C372.2+206.2+371.4+206.3+367.3+205.2C364.2+204.3+362.3+204.3+361.7+204.9C360.4+206.2+362.6+209+365+209C367.8+209+370+210.1+370+211.5C370+213.2+367.7+214+362.8+214C359.7+214+358.2+213.3+355.9+211C352.9+208.1+352.8+206+355.5+206C356.3+206+356.6+205.3+356.3+204.1C356+202.7+356.5+202+358.1+201.5C360.2+200.8+360+200.6+356+199.1C353.6+198.2+351.5+196.9+351.2+196.1C350.8+195+351.2+194.9+352.6+195.5C353.7+195.9+356.1+196.5+358+196.8L361.5+197.3L359+195.2L356.5+193.2L359.7+191.3C364.3+188.8+363.8+187.8+358.9+189.5C356.6+190.3+354.3+190.7+353.8+190.3C352.6+189.6+359.5+186+361.9+186C362.8+186+364.1+185.1+364.8+184C365.8+182.4+365.8+182+364.7+182C364+182+362.9+182.5+362.3+183.1C361.8+183.6+360.1+183.8+358.6+183.4C356+182.8+355.9+182.7+357.7+180.6C359.5+178.5+359.4+178.5+357+180.7C355.6+181.9+353.2+183.2+351.6+183.6L348.8+184.3L350.5+181.6C352.5+178.6+352+178.3+348.4+180.6C344.7+183.1+344.2+181.4+347.6+177.9C349.8+175.5+350+175+348.4+175.8C347.3+176.4+345.8+177.6+345+178.4C344.3+179.3+343.1+180+342.3+180C341.2+180+341.3+179.2+343+176.5C344.2+174.6+344.7+173+344.1+173C343.5+173+342.4+174.3+341.5+176C340.6+177.6+339.5+179+338.9+179C338.3+179+339.1+176.9+340.6+174.2C342.1+171.6+344.1+167.8+345.1+165.8C347.1+161.9+348.6+160.6+350.9+160.5C351.7+160.5+352.5+160+352.7+159.3C353+158.5+352.2+158.2+350.5+158.4C348.7+158.6+347.1+159.8+345.7+162.1C344.5+164+343+166.1+342.3+166.8C341.6+167.5+341+168.5+341+168.9C341+169.4+338.7+172.6+335.9+176.1C333.1+179.6+330.4+183.5+329.9+184.7C329.4+186+328.6+187+328+187C325.9+187+327.1+183.3+330.8+178.5C333.7+174.7+334.4+173+333.7+171.9C333+170.8+333.5+169.2+335.5+166C337.8+162.3+338.4+161.9+339.2+163.4C340.4+165.6+341.8+164.6+343.6+159.9C344.7+157.2+346.5+155.3+349.2+153.8C353.3+151.5+356+147.6+356+144.2C356+140+358.6+139.9+359.2+144.2ZM314.2+153.5C318.6+157.6+319.2+161.1+318.1+178.5C317.3+191.8+317.3+194.6+318.6+196.5C320.4+199.2+324.7+201.4+327.8+201.1C330+200.9+330.8+202.4+329+203.5C328.5+203.8+328+205.1+328+206.2C328+208.6+325.4+210.9+322.7+211C320.2+211+314.3+206.4+313.7+204C313+201.4+313.8+201.5+315.9+204.2C317.2+205.7+318.2+206.1+319.6+205.6C321.4+204.9+321.4+204.8+319.7+203.8C315.5+201.5+312.3+187.3+314.9+183C316.2+181+315.1+179.6+313.4+181.1C312.2+182.1+312+181.4+312+177.1C312+173.9+311.6+172.1+311+172.5C309.5+173.4+309.8+171.2+311.7+166.1C313.3+162+313.3+161.4+311.7+157C309.2+149.9+309.7+149.3+314.2+153.5ZM273+161.1C271.8+165.2+271.3+165.6+270.5+163.1C269.8+160.8+271.6+156.6+273+157.5C273.5+157.8+273.5+159.4+273+161.1ZM304.6+161.1C306+162.7+306.5+164.7+306.5+169.1C306.5+172.9+306.9+175.1+307.7+175.5C308.7+175.8+308.7+176.5+307.8+178.5C306.6+181.2+305.1+181.7+303.2+179.8C302.2+178.8+301.8+179+301.4+180.8C300.7+183.4+299+183.8+299+181.2C299+180.3+299.7+177.3+300.5+174.6C302.8+167.2+302.6+165.8+299.3+166.6C295.2+167.6+294.9+168+296.3+170C297.4+171.5+297.4+173.2+296.7+177.4C296+181.4+296+184.1+297+187.5C298.4+192.5+300.7+194.4+304.3+193.5C306.6+192.9+306.8+193.1+307.4+199.2C308.2+206.1+311.4+214+313.5+214C315.3+214+316+216.3+316+221.9C316+224.6+316.8+228.2+317.9+230.4C319.5+233.5+319.7+234.6+318.7+236.1C317.8+237.6+317.9+238.5+319.1+240.7C321.1+244+321.9+264.8+322.1+309.5C322.2+325.4+322.6+343.4+323.2+349.5C323.7+355.5+324.3+363+324.5+366C324.6+369+325.1+375.7+325.5+380.7C326.3+390.3+326+391.1+322.6+388.5C321.5+387.7+319.6+387+318.4+387C314.9+387+312.9+384.4+314+381.4C315.3+378.1+314+373.4+309.7+365.5C305+356.7+302.4+357+295.8+367.3C293.4+371.1+292.6+373.3+292.8+376.4C292.9+378.7+292.5+381.5+291.8+382.7C290.4+385.4+292.4+388.1+297.1+390.1C301.2+391.7+298.9+393.1+293.5+392.3C288.2+391.6+284.7+388.1+282.5+381.6C280.9+376.9+280.8+375.7+282+371.6C283.6+365.7+286.1+362.5+291.1+360C293.2+358.9+295.7+356.6+296.6+354.8L298.2+351.6L299.6+354.8C300.9+358.1+303.4+359+304.3+356.7C305.2+354.2+301.1+341.6+298.8+339.6C296.7+337.9+296.5+336.9+296.4+327.1C296.3+292.5+295.7+265.1+294.9+255.5C294.5+249.4+293.8+240+293.6+234.5C293.3+229+292.7+218.6+292.3+211.5C291.9+204.3+291.6+194.9+291.5+190.5C291.5+186.1+291.1+178.4+290.6+173.5L289.8+164.5L295.7+161.8C302.8+158.5+302.3+158.5+304.6+161.1ZM442+160.9C444.7+161.6+449.9+170.6+450+174.7C450+177.3+447.9+177.6+442+176C439.2+175.2+438.1+174.2+437.2+171.7C435.7+167.6+433.3+165.3+430.1+164.8C428.7+164.7+427.5+164+427.3+163.5C426.5+161+435.9+159.3+442+160.9ZM193.4+162.9C193.7+163.3+192.4+165.5+190.5+167.7L187.1+171.7L189.1+173.6C190.7+175+193+175.5+198.4+175.7C202.3+175.8+206.8+176.4+208.3+176.9C209.9+177.5+212.4+178+214+178C217.2+178+227.3+174.5+231+172C233+170.7+234.1+170.6+236.3+171.4C238.6+172.2+239.9+171.9+244.3+169.7C247.1+168.2+250.3+166.5+251.2+165.8C252.7+164.7+253.6+165.2+257.5+169C260+171.4+262+173.8+262+174.2C262+176.2+258.9+174.6+255.6+171C253.6+168.7+251.5+167.2+251+167.5C249.5+168.5+249.8+172.6+251.6+174C252.4+174.8+253.7+176.9+254.5+178.7C256.2+182.7+261.2+185.1+268+185.4C273.7+185.5+277.3+183.1+280.9+176.5C282.4+173.8+284.1+171.5+284.8+171.2C286.2+170.8+286.4+174.6+285+175.5C283.6+176.4+283.8+178.7+285.6+182.6C286.7+184.9+287+187.3+286.6+189.8C286.3+191.8+286.4+200.2+287+208.5C289.9+254.4+291+278.6+291.4+305.7L291.7+336L289.1+335.4C284.1+334.3+284+334.2+284+329.1C284+324.6+283.7+324+281.3+322.8C279.3+321.9+278.4+320.6+278.2+318.5C278+316.8+277.4+315.1+276.9+314.5C275.1+312.7+276+310.4+278.9+309.3C282.5+308+283+308.4+283+312.4L283.1+315.5L285.1+313.1C286.4+311.5+287+309.5+286.8+307.6C286.5+304.8+286.2+304.5+283.3+304.6C279.5+304.8+279.5+304.7+281.6+298.9C283.8+292.8+282.8+287.1+278.8+281.7C274.1+275.4+271.6+270.8+271.9+268.8C272.2+266.8+270.3+263+269+263C268.5+263+267.9+263.9+267.5+264.9C267.2+266+266.2+267.1+265.4+267.4C264.1+267.9+264+267.6+264.6+266.3C265+265.3+265.5+261+265.5+256.7C265.7+251+265.4+249+264.4+249C262.3+249+262.1+250.3+263.2+255.3C264+259.5+263.9+260.6+261.6+265.4C260.2+268.4+259+271.2+259+271.5C259+271.8+260.4+274.8+262+278.2C263.7+281.5+265+284.4+265+284.6C265+284.8+263.9+285+262.6+285C259.2+285+257+288.5+257+293.7C257+296.6+256.6+298+255.7+298C252.8+298+250.9+300.6+250.5+305.3C250.2+309.4+250.4+310.1+251.8+309.8C252.9+309.6+253.7+308.2+254+306.1C254.4+303.1+256.9+300.4+257.1+302.7C257.1+303.1+257.3+305.2+257.5+307.3C257.9+310.6+257.6+311.2+255.5+312C254.1+312.5+252.3+312.7+251.5+312.4C249.5+311.6+249.6+312.9+252+320.1C253.2+323.5+254.1+328.8+254.2+331.9C254.2+335+254.4+343.1+254.5+350L254.8+362.5L259+362.8C264.1+363.2+266.4+361.6+264.9+358.9C263.7+356.5+264.1+345.5+265.5+345.5C266.1+345.5+266.6+346.7+266.8+348.2C267+350.1+268.4+351.9+271+353.7C273.2+355.3+275+357+275+357.7C275+358.4+272.8+359.9+270.2+361C266.7+362.5+264.9+364+263.9+366.3C263.1+368.1+261.9+369.4+261.2+369.3C260.6+369.1+259.3+370.2+258.3+371.6C256.9+373.8+256.8+374.7+257.9+377.8C259.3+381.8+265.1+391.1+268.3+394.7C270+396.6+270.1+397+268.7+397C266.8+397+263.2+392.6+262.4+389.3C261.7+386.5+261.2+386.5+258.1+388.9L255.7+390.8L258.8+394.8C260.6+397+262+399+262+399.4C262+399.7+260+400.9+257.6+402C255.1+403.1+252.8+404.5+252.5+405.1C252.1+405.7+252.1+409.1+252.5+412.6C253.1+418.5+253.5+419.3+256.3+421.1C258.1+422.1+261.1+423+263+422.9C264.9+422.9+269.2+423.4+272.4+424.1C277.1+425+278.8+425+280.3+424C281.9+423+283+423.1+286.1+424.5C290.7+426.6+291.4+428.1+289.3+431.8C287.8+434.3+287.8+435.2+289+439.5C289.8+442.2+291.9+446.1+293.7+448.1C295.6+450.2+296.7+452.1+296.2+452.4C295.7+452.7+296.4+456.2+297.7+460.2C299.7+466.2+300.1+469.6+300.1+479C300.1+485.3+300.2+503.1+300.4+518.5C300.7+544.9+300.8+546.9+303.1+554C305.4+561.1+305.5+562.8+305.5+587C305.5+610+305.7+612.9+307.3+615.4C308.4+617+309.8+618+310.8+617.8C312.2+617.5+312.5+616+312.7+608.2C312.7+603+313+598.6+313.3+598.4C313.5+598.1+314.6+600.2+315.6+603C317.7+608.8+319.2+610.5+321.6+609.6C322.7+609.2+323+608.3+322.6+606.7C319.6+596.5+319.2+594.1+320+590.4C321.4+583.8+319.5+559.4+317.1+555.2C315.7+552.6+312.4+552.6+312.6+555.3C312.7+556.2+312.5+557+312.1+557C311.7+557+310.6+553.7+309.7+549.7C308.5+544.5+307.9+535.2+307.4+515.5C307+500.6+306.6+483.8+306.5+478C306.3+472.2+305.6+465.1+304.9+462.2C304.2+459.4+303.9+456.7+304.2+456.4C304.6+456.1+306.5+456.3+308.6+456.9C311.1+457.6+314.2+459.9+318.4+464.3C321.8+467.9+325.4+471.2+326.5+471.8C328.2+472.7+328.3+473.1+327.1+475.3C326+477.4+326.1+478.2+327.4+480.8C330.1+486.1+332.1+499.5+332.5+515.4C332.7+523.7+333.3+534.1+333.9+538.5C334.8+545.7+335.5+554.3+338+587.5C338.4+593+339.2+598.5+339.8+599.6C340.4+600.7+340.7+603.4+340.5+605.4C340.3+607.5+340.8+611+341.6+613.2C342.4+615.5+343+619.2+343+621.6C343+628.3+344.9+635.8+347.5+638.8C348.7+640.3+349.9+642.4+350.1+643.5C350.3+644.5+351.4+645.7+352.5+646C356.6+647.1+361+650.1+361+651.8C361+652.8+361.6+654.5+362.4+655.5C363.3+656.9+363.7+659.9+363.6+664.9C363.4+672+363.3+672.3+360.4+673.5C358.8+674.1+354.8+675+351.6+675.4C345+676.1+342.7+677.4+343.5+679.9C343.9+681.3+342.7+681.5+332.7+681.3C326.6+681.2+320.6+681.1+319.5+681C318.4+681+315.4+681.3+312.8+681.6C310+682+308+681.8+308+681.2C308+680.7+310.7+680+314.1+679.6C321.3+678.9+329+675.8+329+673.6C329+671.3+324+669.2+316.6+668.4C312.9+668+309.7+667.3+309.4+666.9C308.7+665.6+297.8+665.8+290.5+667.2C285.5+668.1+282.6+668+276.6+667C272.4+666.2+269+665.2+269+664.8C269+664.4+269.7+664+270.5+664C271.4+664+274.8+663.1+278.1+662C283.4+660.2+284.7+660.1+289.9+661.1C295.7+662.3+295.8+662.3+303.6+658.6C307.9+656.6+311.8+654.3+312.2+653.7C312.6+653+313.2+649.9+313.6+646.7C314.2+641.9+314.5+641+315.9+641.6C318.7+642.8+321.2+642.2+323.7+639.8L326.2+637.5L328.8+640.7C330.7+642.9+332.8+644.1+335.5+644.6C337.7+645+340.4+645.9+341.5+646.6C344.2+648.5+347.7+648.3+348.5+646.3C349.4+643.9+346.1+641.4+341+640.5C338.3+640+336.4+639+335.3+637.4C334.4+636+332.8+634.4+331.6+633.8C329.2+632.5+321.8+630.9+317.7+630.8C314.5+630.7+310.4+626.1+309.8+622C309.4+618.9+305.1+618.1+301.8+620.4C300.6+621.3+298.6+622+297.3+622C294.8+622+292+625.4+292+628.4C292+629.5+290.8+631.7+289.3+633.2C287.6+635+286.4+637.5+286.1+640.2C285.6+643.6+285.1+644.6+283.3+644.8C279.5+645.4+271.3+641.1+269.1+637.5C268+635.5+266.2+634+264.8+633.8C262.3+633.5+262.3+633+263.6+625.3C264.2+621.3+264.1+621+261.6+620C258.6+618.9+253+618.7+250.6+619.6C249.6+620+249+621.4+249+623.3C249+627.7+247.7+625.8+244.5+617C240.8+606.4+240+602.9+241+600.9C242.9+597.5+238.5+596.9+233.5+600C230.4+601.9+230.3+602.1+229.7+611.3C229.4+616.4+228.4+622.3+227.5+624.3C226.5+626.6+226.2+629.4+226.5+631.3C227+633.9+226.6+635+224.5+637C222.1+639.2+221.1+639.5+214.5+639.3L207.2+639.1L206.1+642.2C204.8+645.9+195.2+655.2+193.1+654.8C192+654.6+191.2+652.1+190.3+646C188.9+636.9+187.5+632.5+185.3+629.8C184.5+628.9+183.5+625.1+183.2+621.3C182.6+615.2+182.3+614.5+180.2+614.2C176.2+613.6+175.2+615.4+175.6+622.4C176.1+631.2+174.3+636.3+170.2+637.1C165.6+638+162.1+640.7+161.4+643.8C160.2+649.4+160.1+649.5+157.2+646.7C153.6+643.3+152.8+643.3+153.1+646.8C153.3+648.3+153.1+650+152.7+650.6C152+651.7+155.9+655+157.9+655C158.4+655+159.6+655.7+160.5+656.6C162.3+658.4+161.7+661.8+159.2+663.7C156.8+665.6+156.1+665.3+155.2+661.8C154.2+657.8+152.3+657.1+151+660.2C149.9+662.8+150.2+658.3+151.8+647.1C152.6+641.2+153.1+640.3+157.2+636.5C159.7+634.2+162.8+630.4+164+627.9C165.2+625.5+167.2+622.5+168.4+621.2C170.7+618.7+171+615.7+172.4+581C172.7+573+173.5+559.5+174+551C174.6+542.5+175.5+522+176+505.5C177.8+455.4+178.1+448.6+179+446C180.3+442.4+181.4+408+181+382C181+375.6+181.6+365.9+182.5+360C184.9+344.5+185.1+340.3+184.9+320.5C184.7+297.9+184.8+295.5+185.7+273.3C186.1+263.4+186.2+253.5+185.8+251.3C185+247.4+185+244.1+185.3+191.8L185.5+162L189.2+162C191.2+162+193.1+162.4+193.4+162.9ZM264.8+166.2C264.5+166.9+263.7+167.5+263+167.5C262.3+167.5+261.5+166.9+261.3+166.2C261+165.5+261.7+165+263+165C264.3+165+265+165.5+264.8+166.2ZM476.6+167.5C481.4+169.9+482.3+170.9+484.9+177.3C486.3+180.8+485.3+185.3+483.3+184.6C482.5+184.3+481.5+184+481+184C477.5+184+470.3+173.8+469.5+167.7C469+164.3+470.1+164.3+476.6+167.5ZM276.4+178.7C272.9+181.2+272.1+180.2+274.3+176L276.5+172.1L277.4+174.7C278.1+176.8+277.9+177.6+276.4+178.7ZM326+179.9C321.1+184.1+320.5+184.3+321.5+181.1C322.5+177.9+324.9+176+327.8+176C330.4+176+330.4+176.1+326+179.9ZM311+184.1C311+184.7+310.6+184.8+310+184.5C309.5+184.2+309+183.4+309+182.9C309+182.3+309.5+182.2+310+182.5C310.6+182.8+311+183.6+311+184.1ZM325.5+187.6C325.7+190.7+324.3+193.3+322.9+192.4C321.8+191.8+321.7+185.6+322.7+184.6C324+183.3+325.3+184.7+325.5+187.6ZM411.7+190.5C415.2+194+415.2+194.1+414.5+200.2C414.1+203.7+413.6+206.7+413.4+206.9C412.6+207.8+404.8+204.8+402.8+202.8C401.2+201.2+400.9+200.1+401.4+197.2C401.8+195.1+402.1+192+402+190.2C402+187.3+402.3+187+405.1+187C407.3+187+409.2+188+411.7+190.5ZM340.4+193.9C340.7+194.3+340.7+195+340.4+195.3C339.6+196.1+337+195+337+193.9C337+192.8+339.7+192.7+340.4+193.9ZM348.7+196.4C348.2+197.8+346.1+197.9+343.5+196.6C341.6+195.7+341.6+195.6+344+195C347+194.2+349.2+194.8+348.7+196.4ZM342.3+198C344.5+198+345+198.4+345+200.5C345+203.5+344.8+203.5+339.3+200.9C334.8+198.7+333.4+196.3+337.3+197.4C338.5+197.7+340.7+198+342.3+198ZM460.3+205.8C461.7+208.4+463.1+212+463.5+213.7C464.1+216.8+464+217+461.3+217C456.9+216.9+451.7+213.8+451+211C450.7+209.6+449.4+208+448.2+207.4C447+206.8+445.7+206.1+445.4+205.8C444.6+204.9+455+200.1+456.4+200.6C457.2+200.9+458.9+203.2+460.3+205.8ZM407.7+224.2C408.8+225.3+410.1+227.7+410.4+229.5C410.8+231.3+411.7+233.3+412.5+234C413.3+234.7+414+236.3+414+237.6C414+239.5+413.5+240+411.5+240C407.7+240+402.2+236+400.9+232.2C400.3+230.4+398.7+228.2+397.4+227.3C394.1+225.2+394.4+223.5+398.3+222.3C402.2+221+404.8+221.6+407.7+224.2ZM490+230C493.3+231.8+495.4+243.2+492.8+245.8C492+246.6+490.5+245.8+486.7+242.5C484+240+481.3+238+480.8+238C479.4+238+480.8+230.7+482.3+229.8C484+228.7+487.8+228.8+490+230ZM366.9+237.3C371.6+239.7+374.6+244.1+375.2+249.5C375.4+251.9+375+252.6+372.9+253.3C371.5+253.9+369.1+254+367.8+253.7C363.9+252.7+359+247.6+359+244.7C359+241.7+355.7+239+352.2+239C349.1+239+349.8+236.6+353.1+236.2C354.4+236+355.9+235.4+356.5+234.9C357.8+233.6+361.3+234.5+366.9+237.3ZM457.7+241.4C459.1+242.7+460.2+245.3+460.6+248.2C461.7+256.2+461.1+256.5+452.9+252.2C448.9+250.1+444.7+247.2+443.6+245.7C441.7+243.2+441.7+243+443.4+241.1C446.6+237.6+453.9+237.7+457.7+241.4ZM269.5+273.6C270.3+278.1+269.6+278.9+267+276.5C265.1+274.8+264.3+270.1+265.7+268.7C266.8+267.5+268.8+270+269.5+273.6ZM366+271.3C368.8+272.7+374+282.1+374+285.8C374+288.1+373.7+288.2+370.4+287.7C366.3+287+363.5+284.8+361.4+280.8C360.4+279+359.1+278+357.7+278C356.4+278+354.5+277.3+353.4+276.5C351.6+275+351.6+274.9+354.5+272.5C357.8+269.8+362.1+269.3+366+271.3ZM274.7+282.9C276.6+281+278.3+285.1+278.7+292.8C278.9+297.1+278.7+301.8+278.1+303.3C276.8+306.6+274+307+274.7+303.7C274.9+302.5+274.2+303.4+273.1+305.8C272+308.2+270.6+309.9+270+309.5C269.4+309.1+269.8+307.4+271+305C272.6+301.8+272.9+299.9+272.4+294.3C272.1+290.6+271.2+286.2+270.4+284.6C268.6+280.9+269.7+279+272+281.8C273.1+283.2+274.1+283.5+274.7+282.9ZM264.2+291.1C263.7+295.3+263.7+296.5+264.1+297.9C264.3+298.7+263.8+299.5+262.9+299.7C261.6+300+261.1+299.2+260.8+296.1C260.4+291.3+261.5+287.7+263.2+288.3C263.9+288.5+264.4+289.8+264.2+291.1ZM268.6+295.5C268.5+300.1+267.9+302.5+266.5+304C265.5+305.1+264.3+306+263.8+306C262.6+306+264+300.9+265.6+298.9C266.4+298.1+267+295.5+267+293.2C267+290.9+267.4+289+267.9+289C268.4+289+268.7+291.9+268.6+295.5ZM131.5+310.7C131.1+312.3+130.8+315.7+130.9+318.5C131+321.2+130.5+326.3+129.9+329.7L128.6+335.9L132.4+343L136.1+350.1L134+352.7C132.9+354.1+132+356.3+132+357.5C132+358.7+131.1+360.8+130.1+362.2C127.5+365.4+126.3+370+128+370C128.8+370+129.1+370.9+128.7+372.9C128.3+374.6+128.7+376.5+129.5+377.7C131.4+380.3+130.2+381.5+127.8+379.3C126.8+378.4+126+376.4+126+374.8C126+373.2+125.4+370.4+124.6+368.6C123.8+366.7+122.9+362.2+122.5+358.6C121.9+353.2+121.1+351.1+118.3+347.4C116.4+344.9+113.7+342.5+112.4+342C108.4+340.4+109.2+336.7+114.4+333C119.2+329.5+124+320.5+124+314.9C124+311.5+127.1+308+130.1+308C131.9+308+132.1+308.4+131.5+310.7ZM74.7+311.9C78.1+312.3+81.1+312.8+81.4+313.1C82+313.6+82.4+317.7+82.2+321.3C82+324+82+324+76.3+323.4C73.1+323+69.8+322.4+68.9+321.9C66.9+320.9+64+315+64+312C64+310.2+64.4+310+66.3+310.6C67.5+311+71.3+311.6+74.7+311.9ZM257.8+315.2C257.5+315.9+256.5+316.7+255.4+316.9C253.8+317.2+253.7+317+254.9+315.6C256.5+313.7+258.3+313.5+257.8+315.2ZM261.4+316.9C261.7+317.3+261.1+318.5+260+319.5C258.1+321.2+258+321.2+257.4+319.5C256.5+317.2+260.1+314.8+261.4+316.9ZM273+318C273+319.5+269.1+321.2+267+320.5C264.9+319.8+264.5+318.8+265.7+317.7C266.7+316.6+273+316.9+273+318ZM60.7+322.6C64+325.1+65.9+330.5+64.2+332.2C62.7+333.7+54.7+331.8+51+329.1C48.5+327.3+44.8+321.2+45.5+320C46.3+318.6+58+320.6+60.7+322.6ZM40.2+338.6C41.7+339.6+45+347.1+45+349.9C45+352+44.7+352.2+42.3+351.5C40.2+351+30.4+349+25.3+348C24+347.8+20+342+20+340.4C20+338.3+22.4+336.5+23.9+337.5C24.3+337.7+26+337.6+27.6+337.1C30.4+336.4+38+337.3+40.2+338.6ZM287.9+340.9C290.7+343.5+291+344.4+291+349.4C291+355.4+288.8+359+285.2+359C281.1+359+275+368.7+275+375.2C275+379.3+278.9+387.7+282.1+390.7C285.2+393.6+291.1+396+295+396C296.6+396+298+396.5+298+397C298+397.6+299.1+398.6+300.5+399.2C302.5+400.1+303.3+400+304.7+398.8C305.7+398+307.7+397+309.2+396.6C311.9+396+314.5+393.9+315.2+392C315.4+391.3+317.1+391.8+319.6+393.1C323+395+323.6+395.8+323.6+398.5C323.6+401.6+323.5+401.7+320.8+400.8C311.8+397.6+300+408.8+303.1+417.5C304+419.9+304+421.9+303.2+425.1C301.9+430.6+303.2+438.4+306.2+442.4C307.4+444+308.6+446.7+309+448.4C309.4+450.5+310.5+452+312.5+453C314.8+454.1+315.1+454.5+313.8+454.8C312.8+455+310.8+454.4+309.3+453.6C307.8+452.8+305.1+451.4+303.5+450.6C299.1+448.5+297.3+446.1+295.8+440.7C294.7+436.5+294.8+435.6+296.4+432.5L298.3+429L295.9+426.4C293.3+423.6+283.1+418.5+278.3+417.5C275.8+417+274.9+417.3+273.7+419.1C272.3+421+271.8+421.1+269.3+420.2C267.8+419.6+264.9+418.9+263+418.8L259.5+418.5L259.2+412.8C258.9+407.4+259+407+261.9+405.6C263.7+404.6+267.5+404+271.4+404C275+404+278.2+403.5+278.5+403C278.9+402.4+281.9+402.2+285.7+402.4C290.5+402.7+292.8+403.3+294.2+404.8C296.3+406.9+295.9+409+293.4+409C290.2+409+293.1+421.1+296.6+422.4C297.6+422.8+298.8+422.6+299.3+422.1C300.6+420.8+301.1+403.9+299.9+402.4C298.9+401.1+283.4+395.8+277.2+394.5C274.9+394+273.1+392.6+271+389.5C269.3+387+266.6+383.6+265+381.8C260.7+377.2+260.9+370.8+265.2+373.1C268+374.6+269.8+372.6+270.2+367.7C270.5+363.3+271+363+278.2+361.5C279.7+361.2+281.7+359.9+282.5+358.6C284.4+355.7+283.2+351.9+278.9+347.5L276+344.4L279+341.2C282.6+337.3+283.9+337.2+287.9+340.9ZM277.3+350.6C280.8+354.8+280.4+358.1+276.7+355.8C273+353.3+270.9+347+273.8+347C274.2+347+275.8+348.6+277.3+350.6ZM80+351.6C80.6+353+81+355.4+81+356.9C81+358.4+81.9+360.5+82.9+361.4C85.1+363.4+86.6+366.9+87.5+372.2C87.8+374.3+88.9+376.4+89.8+376.9C93+378.5+100.4+378.9+102+377.6C102.8+376.8+105.6+375.9+108.3+375.6C112.2+375+113.1+375.2+113.7+376.6C114.1+377.7+113.6+378.8+112.5+379.6C110.4+381.1+110+383.9+109.7+396L109.5+404.5L106.5+404.5C104+404.5+103.3+404+102.4+401.2C101.6+398.7+99.8+396.9+94.9+394C89.5+390.6+87.6+390+83.1+390C79.6+390+77+389.4+76+388.5C74.4+387+74.4+386.7+76.2+383C78.1+379.2+78.1+378.8+76.6+372.7C75+366.4+74.4+353.6+75.6+350.6C76.5+348.2+78.9+348.7+80+351.6ZM142+352.5C143+353.7+142.8+354.1+140.8+354.9C138+356+135.4+358.8+136.4+359.8C136.8+360.1+138.5+359.7+140.1+358.7C143.5+356.8+147.6+356.5+148.5+358.1C149.6+359.8+148+366+146.6+366C144.8+366+143.8+363.3+145.1+362.4C145.8+362+145.8+361.4+145.2+360.8C144.6+360.2+142.9+360.8+140.5+362.4C134.1+366.8+132.7+365.6+135.4+358.3C136.2+356.2+137.1+353.7+137.4+352.7C138.1+350.6+140.3+350.5+142+352.5ZM303.1+373.3C302.3+374.1+302+373.7+301.9+371.9C301.6+365.6+303.3+361.9+303.8+367.9C304+370.3+303.6+372.8+303.1+373.3ZM146+369.3C146.8+370.5+149.1+373.3+151.1+375.5C153.1+377.7+157.7+383.8+161.3+389.2C167.6+398.4+167.8+398.9+166.1+400.4C164.6+401.8+163.8+401.9+161.7+400.9C158.1+399.3+155+400.3+148.8+405.4C143.9+409.4+141.5+410.5+138.5+410.1C138+410.1+139.3+408.2+141.4+406.1C143.9+403.6+145.1+401.6+144.7+400.6C143.8+398.3+142.4+398.6+140.3+401.8C139.3+403.4+136.6+406.3+134.4+408.3C130.6+411.7+129.9+411.9+127.4+411C125.1+410.1+124.9+409.7+126+409C126.8+408.4+128.3+408+129.3+408C133+408+129.9+406.3+125.1+405.7C120.2+405.1+115.7+403+113.3+400C112.4+399+112.2+396.5+112.6+392C113.3+384.6+114.8+382.6+118.7+384.1C120+384.6+122.8+385+124.9+385C128.4+385+129.2+385.5+133+390.6C137.2+395.9+139.7+398+141.9+398C143.8+398+143.1+396.3+139+390.4C135.7+385.7+130+371.3+131.2+370.6C139.9+365.8+143.3+365.5+146+369.3ZM23.6+376.2C26.4+377.5+28+381.1+28+386.1C28+388.3+28.5+391.1+29.1+392.2C30+393.9+29.8+394.6+28.2+396.2C26.6+397.8+25.8+398+24.2+397.1C20.9+395.3+17.1+390.1+16+385.7C15.4+383.4+14.5+380.2+14+378.7C13.3+376.3+13.5+375.8+15.3+375C17.6+374.1+20.1+374.4+23.6+376.2ZM308+391.9C308+392.4+306.4+393+304.5+393.2C301.1+393.6+300.2+393.1+301.7+391.7C302.7+390.7+308+390.9+308+391.9ZM388.2+408.7C389.7+410.6+391.6+414.1+392.3+416.4C393.7+420.2+398+441.3+398+443.9C398+444.5+396.3+443.9+394.3+442.5C392.2+441.1+389.9+440+389.2+440C388.5+440+386.6+439.1+385.1+437.9C382.6+436.1+382.3+435.3+382.7+432C383.5+425.9+379.3+425.5+376.3+431.3C374.7+434.4+374.7+434.4+373.9+432.1C372.5+428.4+374+419.2+376.7+415.3C380.7+409.4+377.3+406.7+371.9+411.3C368.9+413.8+367+417.1+365.9+421.5C365.2+424.4+365.2+424.3+365.1+420.5C365+418.1+365.8+415.2+367+413.2C368.1+411.4+369+409.3+369+408.6C369+406.3+372+404.6+376.9+404C382.6+403.3+384.8+404.2+388.2+408.7ZM157+404.4C157+405.1+148.8+410.1+148.3+409.7C148.1+409.4+149.6+408+151.7+406.6C155.2+404.2+157+403.4+157+404.4ZM335.3+407.1C335.7+408.7+335.6+408.9+334.4+407.9C332.8+406.6+332.5+405+333.9+405C334.4+405+335+405.9+335.3+407.1ZM314.7+408C313.3+409.1+311.8+410+311.3+410C310.2+409.9+315+406+316.2+406C316.8+406+316.1+406.9+314.7+408ZM359.7+408.7C358.8+409.6+357.8+410.1+357.4+409.8C356.4+408.8+358+407+359.8+407C361.3+407+361.3+407.1+359.7+408.7ZM120.5+411.1C123.3+411.9+123.3+411.9+119.8+411.5C116.6+411.2+115.7+411.6+113.4+414.3C111.9+416+110.3+418.7+109.8+420.2C109.2+421.8+108.3+422.7+107.5+422.4C106.7+422.1+105.5+423+104.6+424.7L103+427.5L103.4+423.3C103.7+420.9+104.4+418.2+105+417.3C106+415.8+106.1+415.8+105.6+417.2C105.4+418.1+105.4+419.1+105.7+419.4C106.7+420.4+110+416.9+110+414.9C110+410.7+114+409.3+120.5+411.1ZM168.3+411.1C167.7+411.7+167.5+414+167.7+416.4C168.1+419.5+167.6+422.1+166+425.6C164.8+428.3+163.6+432+163.4+433.8C162.7+438.8+161+442.4+153.2+455C148.5+462.4+146.2+467.1+146.6+468.2C147.2+470.2+145.4+483.5+143.8+488.7C142.7+492.5+142.4+492.6+137+490.4C133.2+488.9+133+488.6+134.5+487.1C136.8+484.5+139.2+475.8+137.9+474.5C137.2+473.8+136.6+474.1+135.9+475.2C135.3+476.2+134.2+477+133.5+477C131.9+477+131.6+478.4+132+484.3L132.2+488.1L129.2+486.6L126.2+485.1L128.5+479.3C132.1+470.4+132.7+466+130.4+464.3C128.8+463.2+128.8+462.6+129.8+459.7C133.9+448+136.6+425.3+133.8+426.2C133.1+426.5+132.4+428+132.2+429.6C132+431.2+131.5+432.9+131+433.4C130.5+433.9+130.4+436.5+130.7+439.1C131.1+442.2+130.8+444.5+130.1+445.4C129.5+446.2+129.1+447.2+129.2+447.6C129.4+448.1+129.1+448.7+128.5+448.8C128+449+127.1+447.5+126.6+445.5C124.3+435.8+135.9+412+143+412C143.9+412+143.4+412.9+141.5+414.4C139+416.4+138.7+417+139.9+418.4C141.6+420.5+142.7+420.4+147.2+418.1C149.1+417+151+416.4+151.3+416.7C151.6+417+152.5+416.3+153.2+415.1C154.8+412.4+156+412.4+156+415C156+416.1+155.2+417.3+154.3+417.6C149.9+419+136.7+426.3+136.3+427.5C136.1+428.1+136.7+429.5+137.5+430.5C139+432.5+139.1+432.5+140.6+430.2C141.5+429+143+428+143.9+428C144.9+428+147.1+426.9+149+425.5C150.8+424.2+153.8+422.6+155.6+422C158.3+421.1+158.9+420.3+159.5+417.2C159.8+415.1+160.6+412.8+161.1+412C162.1+410.5+162+411.4+160.4+417.2C160.1+418.2+160.4+419+161+419C161.6+419+162.3+418.2+162.7+417.2C163.3+415.4+168+410+168.9+410C169.2+410+168.9+410.5+168.3+411.1ZM349.5+412.8C350.1+413.2+350.3+415.3+350+417.5L349.5+421.5L348.2+418.1C346.3+412.8+346.8+410.8+349.5+412.8ZM317.8+414.9C316.9+416.4+317+417.3+318.3+419.4C320+422+322+422.9+322+421C322+419.4+329.3+415+332.1+415C335+415+338.6+418.3+337.5+419.9C336.6+421.5+344.7+428.7+351.3+432.1C354.4+433.7+357+435.4+357+435.9C357+436.9+350+435.7+345.5+434C343.9+433.4+341.1+431.6+339.5+430C336.4+427+333.4+427.2+334.5+430.2C336.5+435.3+350.2+440.1+363.8+440.4C373+440.7+373.9+440.9+381.6+444.9C386+447.2+390.9+450.4+392.5+452C395.8+455.5+397+455.8+397+453.1C397+452+397.4+450.9+398+450.5C399.4+449.6+401.9+455.2+401.3+458.2C400.9+460.4+401.5+461.2+405.3+463.9C409.9+467+415.4+472.9+414.6+473.7C414.4+474+412.9+473.2+411.3+472.1C406.2+468.3+391.3+463+387.9+463.7C385.6+464.1+384.1+463.7+381.7+461.9C379.4+460.2+376+459.2+369.8+458.4C365+457.7+359.6+456.5+357.9+455.6C356.1+454.7+354.1+454+353.4+454C352.7+454+350.6+452.5+348.7+450.6C346.8+448.8+343.6+446.7+341.4+446C339.2+445.3+335.5+442.8+332.9+440.1C325.7+432.9+322.1+430.5+320.1+431.7C319.2+432.3+318.3+433.5+318.2+434.4C317.8+436.4+320.7+440+322.6+440C323.3+440+325.4+441.9+327.2+444.1C330.1+447.8+339.8+455+341.8+455C342.2+455+343.6+455.7+344.8+456.6C347+458.1+347+458.3+345.5+460C344+461.7+343.7+461.7+338.3+459.6C335.1+458.4+330.8+455.7+328.2+453.1C324.4+449.4+323.4+448.9+321.8+449.9C319.4+451.4+319.3+451.4+318.5+448.3C318.1+446.4+318.3+445.4+319.5+444.7C320.8+444+320.9+443.5+319.9+442.4C319.3+441.6+318.3+441+317.7+441C316.2+441+312+436.9+312+435.4C312+434.8+311.3+433+310.5+431.4C308.8+428.2+309.4+424.8+312.3+420.5C315.8+415.3+320.6+410.4+317.8+414.9ZM361.4+428.2C361.9+429.2+361.8+430+361.4+430C357.8+429.9+355.5+424.1+357.1+419.1C359+413.1+359.5+413.2+360.1+420C360.4+423.6+361+427.3+361.4+428.2ZM121+420C121.5+420+122.3+419.2+122.9+418.3C123.4+417.3+124.2+416.8+124.6+417.3C125+417.7+124.7+418.8+123.9+419.7C123.1+420.7+121.4+423.5+120.1+425.9C117.9+429.9+117.8+431.1+118.3+439.7C118.9+450.1+117.9+451.4+116.8+441.7C116.4+438.3+115.7+432.8+115.1+429.5C114.1+423.8+114.2+423.3+116.8+419.5C119.2+415.9+119.5+415.7+119.8+417.7C120+419+120.5+420+121+420ZM133+416.5C133+416.8+131.7+418.8+130.1+421C128.5+423.2+126.9+426.6+126.6+428.5C126.2+430.4+125.5+432.2+125+432.5C123.7+433.3+123.7+428.8+125+425.4C126.6+421.2+133+414.1+133+416.5ZM108.7+430.2C108.5+431.5+108.3+430.7+108.3+428.5C108.2+426.3+108.4+425.3+108.7+426.2C108.9+427.2+108.9+429+108.7+430.2ZM392.5+446.4C394.1+447.6+394.2+447.9+392.9+448C392.1+448+390.3+446.8+388.9+445.4C386.9+443.2+386.8+442.9+388.5+443.8C389.6+444.4+391.4+445.5+392.5+446.4ZM116+452.5C117.1+453.8+117+453.9+115.7+453.5C114.7+453.1+114+453.6+113.5+454.9C112.8+457.3+111+457.7+111+455.6C111+451.3+113.7+449.7+116+452.5ZM123.3+458.2C120.5+463.9+119.1+470.2+120.1+472.1C121.2+474.3+122.1+474.5+123.9+472.7C125+471.7+125.1+472+124.5+474C123.4+477.7+122.5+478.3+120.2+476.9C119+476.2+117.7+475.9+117.3+476.3C116+477.6+118.6+480.5+121.4+480.8C122.8+481+124+481.5+124+481.9C124+483.7+122.6+483.7+119.5+481.9C116.9+480.4+116.1+479.1+115.6+475.9C115.1+472.6+115.3+471.5+116.7+470.5C118.4+469.2+118.4+469.1+116.5+467C115.2+465.6+114.9+464.5+115.5+463.6C116.1+462.9+117.8+460.4+119.3+458C121.4+454.9+122.5+454.1+123.3+454.9C124.1+455.7+124.1+456.6+123.3+458.2ZM115.1+459.3C114.1+460.2+114+460.1+114.6+458.7C114.9+457.7+115.5+457.2+115.8+457.5C116.1+457.8+115.8+458.6+115.1+459.3ZM331.8+464.4C332.7+466.4+332.7+467+331.7+467C329+467+323.1+461.8+323+459.3C323+457.3+330.5+461.7+331.8+464.4ZM367+464.6C367+464.8+366.1+465+365+465C363.9+465+363+464.6+363+464.1C363+463.6+363.9+463.4+365+463.7C366.1+464+367+464.4+367+464.6ZM337+469C337+469.5+336.8+470+336.6+470C336.3+470+335.8+469.5+335.5+469C335.2+468.4+335.4+468+335.9+468C336.5+468+337+468.4+337+469ZM393.2+469.9C396.1+471+400.3+472.2+402.5+472.6C404.7+472.9+407.6+473.9+409+474.7C412.7+476.9+419.8+486.7+421.1+491.4C422.4+496.3+429.2+505.7+432.5+507.2C435.4+508.5+441+516.1+441+518.8C441+526.5+452.4+538.3+458.1+536.5C461.8+535.3+467.2+535.7+468.8+537.4C470.3+538.9+470.2+539+467.9+539C466.5+539+464.9+538.5+464.3+537.9C462.6+536.2+456.6+537.7+454+540.5C451.2+543.5+452.4+545.9+455.8+544.1C456.8+543.5+458+543.3+458.3+543.7C458.7+544+460.6+543.5+462.6+542.5C465+541.4+466.5+541.1+467.2+541.8C467.9+542.5+467.5+543.2+466.1+543.9C465+544.6+463.3+546.5+462.4+548.2C461.1+550.7+461+552+461.9+555.6C462.5+557.9+463+561+463+562.4C463+565.8+467.4+570.9+469+569.4C469.8+568.6+469.9+567.6+469.2+566.4C468.7+565.3+467.7+561.2+467.1+557.1C466.1+550.7+466.1+549.4+467.4+548.1C468.8+546.8+469.2+546.8+470.9+548.4C473.1+550.4+476+549.9+476+547.7C476+546.9+475.3+545.7+474.5+545C472.6+543.4+472.6+541+474.5+541C476.3+541+477.2+542.8+477.4+546.8C477.5+548.3+479.2+551.9+481.2+554.8C485.2+560.2+485.5+563.7+482.5+568.5C481.2+570.7+481+571.3+477.5+584.7C476.2+589.7+474.7+594.7+474.1+595.9C472.5+598.9+472.7+606.5+474.5+608C475.5+608.8+475.8+610.1+475.4+611.3C475+612.6+475.2+613+475.9+612.6C477.4+611.6+483+615.7+483+617.7C483+619.1+482.7+619.1+480.8+617.6C475+613.4+474+614.3+476.9+621.1C478.1+623.9+478.9+626.4+478.6+626.8C478.3+627.1+477.1+625.2+476+622.7C472.6+615+470.6+616.9+473.5+625C475+629.4+474.7+631.7+472.9+629C472.4+628.2+471.7+626.4+471.4+625C470.7+621.5+469.6+619.7+468+619.2C467+618.8+466.8+619.7+467.3+622.6C467.6+624.8+468.1+627.3+468.5+628.2C468.9+629.2+468.8+630+468.2+630C467.7+630+466.7+628+466+625.5C465.3+623+464.3+620.7+463.9+620.4C462+619.3+463.1+615.7+466.1+612.9C468.5+610.6+468.9+609.9+467.7+609.4C465.7+608.7+462+610.7+462+612.4C462+613.8+457.8+617+456+617C455.4+617+456.2+615.1+457.8+612.7C459.5+610.4+461.3+606.9+461.9+605C464.1+597.8+466.9+584.3+467.3+579.3C467.7+574.5+467.5+573.9+464.4+570.9C462.2+568.7+460.9+566.4+460.5+563.6C459.7+558.4+458+554+456.9+554C456.4+554+455.5+552.9+455+551.5C454.5+550.1+453.4+549+452.7+549C451.9+549+450.5+548.1+449.5+547C447.3+544.6+445.7+544.5+444+546.5C443.3+547.3+442.4+547.8+442+547.5C440.9+546.8+442+542.2+443.6+540.9C445.5+539.4+445.4+533.6+443.5+532C441.6+530.4+439.1+531.4+438.8+533.7C438.7+534.7+438.4+533+438.1+530C437.6+525.9+437.9+524.2+438.9+523.4C440.1+522.4+440.2+521.8+439+519.1C438.3+517.3+436.6+515.1+435.3+514.3C434+513.4+432.2+511.4+431.4+509.8C430.6+508.2+428.3+505.9+426.4+504.8C424.5+503.7+423+502.3+423+501.7C423+499.5+417.4+492.2+408.6+483.3C401.6+476.1+398.4+473.6+394.1+471.9C384.9+468.2+384.1+466.6+393.2+469.9ZM348.2+474.1C350.9+475.5+355.1+476.4+360.4+476.8C372.7+477.6+382.3+482.6+380+487C378.4+490+379.3+490.6+385.5+491.4C393.4+492.3+397.9+495.5+401.4+502.6C403+505.9+405.3+509.8+406.5+511.5C412.2+519.3+414.3+524+413.7+527.8C413.2+530.4+413.5+531.9+414.7+533.2C415.6+534.2+416+535.3+415.6+535.7C415.2+536.1+414.5+535.8+414.1+535.1C412.9+533.2+411+534.7+411+537.5C411+540.7+409.3+541.6+407.1+539.6C404.1+536.9+403+537.7+402.9+542.7C402.9+546.3+402.6+547+402+545.5C401.5+544.4+401.1+542.3+401.1+540.7C401+539.2+400.1+537.2+399+536.3C397.9+535.3+396.5+533.1+395.9+531.2C394.9+528.2+395+527.7+396.8+526.4C398.9+524.9+399.1+520.1+397.2+516.4C396.6+515.3+395.4+512.6+394.4+510.2C392.3+504.9+387.9+501.5+385.2+502.9C383.9+503.6+382.8+503.4+381.2+502.1C379+500.5+379+500.4+383+500.8C387.7+501.3+390.7+499.5+388.9+497.4C388.3+496.6+386.1+496+384.1+496C380.6+496+377+494.6+363.9+488C357.8+484.9+355.3+485.3+356.3+489C356.7+490.7+355.7+490.1+352.1+486.4C343.8+477.8+340.1+472+343+472C343.6+472+345.9+472.9+348.2+474.1ZM64+477C65+478.9+65+479+63.1+477.8C60.9+476.5+60.3+475+62+475C62.5+475+63.4+475.9+64+477ZM395+482.5C397.9+485.5+400.1+488.2+399.7+488.6C399.2+489.2+397.8+488.3+391.3+483.2C389.1+481.4+387.2+477+388.7+477C389.2+477+392+479.5+395+482.5ZM56+483.5C56+484.3+55.4+485+54.6+485C53.9+485+53+485.9+52.7+487.1C52.4+488.3+51.7+488.9+51.1+488.5C49.2+487.4+49.9+485.1+52.8+483.6C56.2+481.7+56+481.7+56+483.5ZM69.9+484.6C68.5+486.4+67.5+485.7+68.4+483.5C68.7+482.6+69.5+482.2+70+482.5C70.8+483+70.7+483.6+69.9+484.6ZM64.4+489.5C65.1+492.3+65+492.4+63.7+490.5C62.9+489.4+62+487.1+61.6+485.5C60.9+482.7+61+482.6+62.3+484.5C63.1+485.6+64+487.8+64.4+489.5ZM69.7+489.2C69.4+490+69.1+489.7+69.1+488.6C69+487.5+69.3+486.9+69.6+487.3C69.9+487.6+70+488.5+69.7+489.2ZM58.8+489.8C59.4+491.6+57.3+491.2+56.6+489.4C56.2+488.4+56.5+488+57.2+488.2C57.8+488.4+58.6+489.2+58.8+489.8ZM37.1+492.5C37.4+492.3+38.2+493.1+38.9+494.3C40.2+496.3+40.2+496.4+38.6+495.1C37.3+494+36.6+494+35.8+494.8C33.7+496.9+31+496.2+31+493.7C31+490.4+31.9+489.9+34.4+491.6C35.7+492.4+36.9+492.8+37.1+492.5ZM46.4+492.4C48.6+492+49.1+492.1+48.1+492.8C47.4+493.3+46.5+494.3+46.1+494.9C45.6+495.6+44.5+495.1+42.9+493.3C41.6+491.7+41.2+491+41.9+491.7C42.7+492.4+44.7+492.7+46.4+492.4ZM75.9+496C76+497.3+75.9+497.3+75+496C74.5+495.2+74.1+493.6+74.1+492.5L74.1+490.5L75+492.5C75.5+493.6+75.9+495.2+75.9+496ZM415.7+501.8C419.1+506.2+425.1+520.4+423.8+520.9C422.5+521.3+420+518.3+420+516.3C420+515.6+418.7+512.9+417.1+510.3C415.5+507.6+413.9+504.4+413.5+503.2C413+501.6+412.2+501+411.2+501.3C406.9+502.5+406.5+502.5+406.9+501C407.1+500.2+407.5+498+407.8+496.1L408.3+492.6L410.9+495.8C412.3+497.5+414.5+500.2+415.7+501.8ZM369+496L371.5+498L368.3+497.1C366.6+496.6+364.3+495.7+363.3+495.1C361.7+494.2+361.8+494.1+364+494.1C365.4+494+367.6+494.9+369+496ZM67.7+499.7C67.4+500.7+67.2+500.1+67.2+498.5C67.2+496.8+67.4+496.1+67.7+496.7C67.9+497.4+67.9+498.8+67.7+499.7ZM39.1+509.8C39.2+518.2+39+519.2+37.7+518.7C37.1+518.5+36.7+517.6+36.9+516.9C38.2+512.8+38+507.6+36.6+504C34.4+498.4+34.7+496.7+37.1+501.3C38.3+503.5+39.1+507.1+39.1+509.8ZM78.7+501.2C78.4+502+78.1+501.7+78.1+500.6C78+499.5+78.3+498.9+78.6+499.3C78.9+499.6+79+500.5+78.7+501.2ZM20.3+504.8C22.8+507.2+23+507.9+22.8+514.1L22.7+520.8L18.6+519C16.3+517.9+13.3+516.9+11.8+516.6C10.3+516.2+8.90001+515.2+8.50001+514.1C8.20001+513.1+6.80001+511.8+5.50001+511.2C4.10001+510.6+3.00001+509.6+3.00001+509.1C3.00001+508.6+4.80001+506.6+7.10001+504.6C10.6+501.4+11.6+501+14.3+501.5C16.1+501.9+18.7+503.4+20.3+504.8ZM79.6+510.5C79.5+517+78.7+518.8+77.5+515.1C77+513.4+77.3+510.8+78.7+505.7C79.5+502.8+79.6+503.7+79.6+510.5ZM73.1+508.1C72.2+510.3+72.1+510.3+72.1+508.4C72+507.3+72.3+506+72.7+505.7C73.9+504.5+74.1+505.7+73.1+508.1ZM56.5+510.8C55+512.4+54.9+512.3+56.1+509.6C56.8+508.1+57.6+507.3+57.8+508C58.1+508.7+57.5+509.9+56.5+510.8ZM413+511C413+511.5+412.6+512+412+512C411.5+512+411+511.5+411+511C411+510.4+411.5+510+412+510C412.6+510+413+510.4+413+511ZM64.5+517C64.8+517.5+66.3+518+67.6+518C69.1+518+71.4+519.2+73+520.9C74.6+522.5+76.6+524+77.4+524.3C78.5+524.7+78.7+525.8+78.4+528.2C78.1+530+78.4+533.5+79+536C79.6+538.5+80.1+541.4+80.1+542.4C80.1+545.4+78+549.8+76.3+550.5C74.2+551.2+66.2+547.3+65+544.9C64.4+543.9+62.5+542.3+60.7+541.4C58.9+540.5+57.2+539.2+56.8+538.6C55.9+537.2+58+535.9+60.2+536.6C63.5+537.6+63.1+534.8+59.4+531.4C56.4+528.5+55.1+527.9+52.9+528.4C50.7+528.8+50.3+528.6+50.7+527.2C50.9+526.2+52.5+524.7+54.1+523.7C55.8+522.8+56.8+521.5+56.4+520.9C56+520.1+56.4+520.2+57.9+521C59.9+522+60.2+521.8+61.3+519.1C62.5+515.9+63.4+515.3+64.5+517ZM430.3+526.6C430.6+526.9+430.4+528.5+429.8+530.2C428.5+533.8+426.6+532.5+427.6+528.6C428.2+526.1+429.1+525.4+430.3+526.6ZM44+529.1C44+529.7+43.6+529.8+43+529.5C42.5+529.2+42+528.4+42+527.9C42+527.3+42.5+527.2+43+527.5C43.6+527.8+44+528.6+44+529.1ZM423.8+533.2C423.2+535+421+535.3+421+533.6C421+532.7+421.7+532+422.6+532C423.5+532+424+532.5+423.8+533.2ZM394.4+539.4C394.8+541.8+396+544.6+397.1+545.6C398.4+546.8+399+548.5+398.9+550.5C398.5+557+399+560+400.5+560C401.3+560+402+560.8+402+561.8C402+562.8+402.5+564.1+403.2+564.8C403.8+565.4+404.1+566.3+403.7+566.7C403.3+567.1+402.4+566.8+401.8+566.2C400+564.4+399+564.7+399+567C399+568.3+398.3+569+397.1+569C396+569+394.9+569.4+394.5+569.9C393.7+571.2+390+570.8+390+569.5C390+567.7+382.6+564+379.1+564C373.8+564+366.5+567.9+368.4+569.7C368.7+570+370.8+569.5+373.1+568.6C375.6+567.6+378.4+567.2+380.1+567.5C384.5+568.5+384.5+569.9+380.1+569.3C377.8+569+376+569.2+375.6+569.9C375.1+570.6+375.8+571+377.4+571C378.8+571+380.2+571.5+380.5+572.1C380.9+572.6+382.2+573+383.3+572.9C388.6+572.5+390+573+390.6+575.5C391+577.2+390.7+578.7+389.6+579.9C388.4+581.3+388+583.3+388.2+587.9C388.3+591.6+388+594.4+387.2+595.2C386.5+595.9+386+596+386+595.4C386+594.9+385.3+595.8+384.5+597.3C383.4+599.5+383.3+602+383.9+609.9C384.4+615.2+384.6+620.8+384.3+622.3C383.4+626.7+386.3+630+391+630C395+630+397+631.8+397+635.5C397+637.1+396.8+637.1+394.5+635.6C393.2+634.7+390.5+634+388.6+634C386.7+634+384.8+633.5+384.5+633C383.5+631.4+381+631.8+381.6+633.5C381.9+634.3+384.1+635.3+386.3+635.7C389.7+636.4+390.8+637.2+392.2+640C393.2+642+394.1+644.4+394.2+645.5C394.6+648.1+392.6+649.1+392.2+646.5C391.8+643.8+388.7+638+387.8+638C386.7+638+388+645.9+389.6+649.2C390.6+651+390.7+652.1+389.9+652.5C388.4+653.5+388.1+653+386.2+645.9C383.9+637.4+381.6+637.1+381.2+645.2C380.8+653.2+379+652.5+379+644.5C379+636.5+377.1+634.9+373.3+639.6C370.5+643.2+370.2+640.8+373+636.5C375.3+633+374.8+627.1+371.5+619.5C370.3+616.7+369.5+614+369.7+613.3C369.9+612.7+369.4+610.7+368.5+609C366.3+604.8+364.9+588.8+366.5+587.1C366.8+586.8+368+587.1+369+587.8C370.1+588.5+372.2+589+373.8+589C375.9+589+377+589.8+378.4+592.5C380.3+596+383+597.2+383+594.6C383+593.8+383.7+592.9+384.6+592.6C386+592.1+386.2+591+385.7+587.1C385.2+583+385.5+581.9+387.1+580.4C388.3+579.3+388.7+578.3+388.1+577.7C387.2+576.8+380.8+580.9+378.4+584C377.4+585.2+377+585.2+375.6+584.1C373.3+582.2+373.6+581.4+376.8+581.5C379.2+581.5+379.5+581.2+379.5+578C379.5+575.1+379.1+574.4+377.2+574.2C375.9+574+374.4+574.2+373.7+574.7C373+575.2+370.9+575.6+369+575.6C365.7+575.5+365.5+575.3+365.2+572C364.9+567.6+367.8+562+371.6+559.9C373.4+559+375.6+556.1+377.5+552.3C379.2+549+381.7+544.9+383.3+543.1C384.8+541.3+386+539.4+386+538.9C386+538.4+387+538.1+388.2+538.3C389.6+538.4+390.5+537.9+390.6+537C390.9+532.8+391+532.7+392.4+533.9C393.2+534.5+394.1+537+394.4+539.4ZM431+539.5C431+543+430.5+544.4+428.4+546.3C425.9+548.7+425.8+548.8+427.5+551.4C428.4+552.8+429+554.7+428.6+555.5C427.9+557.4+424.1+557.4+423.4+555.5C422.5+553.3+419.9+553.7+419.3+556C419+557.2+417.2+558.7+415.4+559.5C412.1+560.9+410.4+563.8+413.6+562.6C417.2+561.2+420.1+560.8+421.7+561.5C423.4+562.1+423.4+562.2+421.8+563.1C420.8+563.7+420+564.7+420+565.4C420+567.1+417.3+568.3+416.5+567C415.6+565.5+414+565.8+414+567.5C414+569.5+417.7+571.3+420.6+570.6C422.2+570.2+423.2+568.9+423.7+566.9L424.6+563.8L428.8+567.9C432.4+571.4+433.3+571.8+435.4+571C437.9+570.1+439+570.5+439+572.6C439+573.3+437.8+574+436.3+574.2C433.9+574.5+433.5+574.9+433.5+577.7C433.5+581.5+433.6+581.4+431+579.8C427.9+577.8+424+580.5+424+584.6C424+586.6+424.6+588+425.6+588.4C428.3+589.5+431.7+589+433+587.5C434.4+585.8+436+585.5+436+587C436+589.5+419.9+594.9+416.4+593.6C414.9+593+415+592.7+417.8+591C421.9+588.5+422.3+587.4+421.1+582.2C420.3+578.4+420.4+577.8+422.3+576.5C425.3+574.4+423.3+572.5+419.7+573.9C417.8+574.7+417+575.7+417+577.4C417+579.1+416.2+580.3+414.3+581.2C412.3+582.1+411.2+583.7+410.6+586.3C409.7+589.9+407+591.6+407+588.5C407+586.6+405.7+586.6+402+588.5C400.3+589.4+399+590.8+399+591.6C399+592.5+398.1+593.4+397+593.7C395.5+594.1+395.1+595+395.3+597.3C395.6+601.5+393.7+601.7+392.4+597.5C391.4+594.2+391.5+593.6+394.2+590.2C395.8+588.2+398.3+586.3+399.7+586C401.2+585.7+402.5+584.9+402.8+584.2C403.4+582.4+398.9+582.7+396.2+584.6C394.9+585.5+393.6+585.9+393.3+585.6C392.4+584.8+395+582+396.6+582C397.4+582+398.9+581.5+399.9+580.8C401.4+579.9+402.3+580+404.4+581.3C407.5+583.4+408.1+583.4+407.3+581.5C407+580.6+407.4+578+408.3+575.7C410.4+569.8+411.1+565.2+410+564.5C408.3+563.5+408.9+560.9+411.5+557.8C413.1+556+414+553.6+414+551.6C414+544.6+418.1+539+423.2+539C424+539+425.3+538.1+426.3+537C429.2+533.5+431+534.4+431+539.5ZM47+540C47+540.5+46.5+541+45.9+541C45.4+541+45.2+540.5+45.5+540C45.8+539.4+46.3+539+46.6+539C46.8+539+47+539.4+47+540ZM139+544.4C139.6+548.5+139.5+548.7+137.8+547.7C136+546.5+135.2+541.1+136.7+539.7C137.7+538.6+138.3+539.7+139+544.4ZM26.3+544C30.8+549.3+32.3+559.1+28.8+559.8C27.9+560+24.5+558.1+21.2+555.6C17.9+553.1+14.5+551+13.6+551C11.8+551+8.4+546.3+9.4+545.2C10.8+543.8+18.5+541.1+21.2+541.1C22.9+541+24.7+542+26.3+544ZM130.3+550.7C130+552.8+129.1+555.5+128.4+556.7C126.3+560+126.7+561.3+129.5+560.8C130.9+560.5+132+560.4+132+560.5C132+560.6+131.4+562.3+130.6+564.2C129.8+566.1+129.5+568.2+129.9+568.8C130.9+570.4+134+569.3+136.2+566.6C138.7+563.6+138.5+566.5+136+570C133.4+573.6+128+577+124.8+577C121.9+577+118.7+573.8+117.2+569.3C116.2+566.4+116.4+565.9+118.1+565C120.5+563.7+120.6+560.8+118.3+561.2C116.2+561.5+114+560.3+114+558.8C114+558.1+114.5+558.2+115.4+558.9C117.7+560.8+118.2+558.5+116+556.5C113.1+553.8+113.5+553.3+119+552.6C122.1+552.2+125+551+126.7+549.5C130.5+546.2+131+546.4+130.3+550.7ZM435.5+549.1C435.1+549.6+434.2+550+433.3+550C432+550+432+549.7+433+548.5C434.3+547+436.5+547.4+435.5+549.1ZM410+548.4C410+548.7+409.6+549.2+409+549.5C408.5+549.8+408+549.6+408+549.1C408+548.5+408.5+548+409+548C409.6+548+410+548.2+410+548.4ZM409.4+554.1C408.6+555.4+407+554.2+407+552.3C407+551+407.3+551+408.5+552C409.3+552.7+409.7+553.6+409.4+554.1ZM450.5+552.9C450.2+553.9+450.6+555.3+451.5+556C452.3+556.7+453+557.8+453+558.6C453+559.6+452.5+559.6+450.3+558.5C446.3+556.4+445.7+554.8+448.3+552.8C451.1+550.6+451.3+550.6+450.5+552.9ZM136.6+556.6C136.3+557.4+135.3+558+134.5+558C133.1+558+133.1+557.6+134.7+554.9C136+552.7+136.6+552.3+136.8+553.5C137+554.4+136.9+555.8+136.6+556.6ZM441.8+552.6C445.9+553.7+444.2+555.3+439.5+554.7C437+554.3+434.8+554.5+434.5+555C434.1+555.6+433.4+555.8+432.9+555.4C432.3+555+432.3+554.3+433.1+553.4C434.3+551.9+437.9+551.6+441.8+552.6ZM142.8+571.1C142.8+577.9+142.7+578.4+139.4+581.7C137.5+583.5+136+585.5+136+586.1C136+586.6+134.1+589.2+131.7+591.8C126.4+597.5+121+606.8+121+610.3C121+612.1+122.5+614.1+126.5+617.5C129.5+620+132+622.8+132+623.6C132+625.6+130.6+625.3+128.5+623C127.5+621.9+125.8+621+124.7+621C123.2+621+122.9+621.5+123.4+623.2C123.8+624.5+124.3+626.8+124.5+628.5C125+631.2+124.9+631.3+124.2+629C122.7+624.7+120+620+119+620C117.7+620+117.7+622.2+119+625.5C119.6+627+120.2+630.5+120.5+633.3L121+638.5L119.5+633.2C117.9+627.5+114.2+621.8+112.5+622.3C112+622.5+111.3+625.8+111+629.6C110.3+638.9+109+636.3+108.9+625.3C108.8+620.5+108.3+615.9+107.7+615.2C106.2+613.3+103.1+613.8+100.4+616.5C97.4+619.5+97+619.6+97+617C97+614.8+105+609+108+609C111+609+113.8+606+114.5+602.3C115.7+595.7+119.2+589.5+122+589.2C126.6+588.6+131.3+585.8+136.8+580.3C139.7+577.3+141.9+574.6+141.7+574.3C141.4+574.1+139.7+574.6+137.8+575.6L134.5+577.3L136.6+574.9C141.1+569.7+142.3+566.9+141.1+564.3C139.6+561.1+139.8+560.1+141.4+562.3C142.2+563.3+142.7+566.8+142.8+571.1ZM435+567C435+567.5+434.8+568+434.6+568C434.3+568+433.8+567.5+433.5+567C433.2+566.4+433.4+566+433.9+566C434.5+566+435+566.4+435+567ZM442.7+568.2C442.4+569+442.1+568.7+442.1+567.6C442+566.5+442.3+565.9+442.6+566.3C442.9+566.6+443+567.5+442.7+568.2ZM12.7+569C16.8+571.4+18.7+575.3+19.1+581.5C19.5+587.1+18.1+588.3+14.7+585.2C13.5+584.1+10.8+582.7+8.7+582C6.6+581.3+4.6+580.1+4.4+579.1C4.1+578.2+3.4+576.7+2.9+575.8C2.4+574.8+2+572.7+2+571.1C2+568.5+2.4+568.1+5.3+567.7C7+567.5+8.7+567.2+9+567.2C9.3+567.1+10.9+567.9+12.7+569ZM449.8+568.2C449.5+568.9+448.5+569.7+447.4+569.9C445.8+570.2+445.7+570+446.9+568.6C448.5+566.7+450.3+566.5+449.8+568.2ZM456+567.9C456+568.5+455.6+569.2+455+569.5C453.3+570.5+453.9+572+456+572C458.4+572+458.6+574.2+456.5+576C455.3+577+454.7+577+453.5+576C452.7+575.4+451.6+575.1+451.1+575.4C448.9+576.8+449.3+574.1+451.7+570.7C454.2+567.1+456+566+456+567.9ZM116+573.4C116+576+115.4+575.2+114.6+571.5C114.1+569.3+114.2+568.9+115+570C115.5+570.8+116+572.4+116+573.4ZM70.5+575.5C67+578.9+64.7+582+64.5+583.6C64.1+587.7+59.7+591.4+55.8+591.2C46.1+590.4+46.5+590.3+46.2+593C46+594.7+46.8+596.4+48.4+597.9C50.5+599.9+51.2+600.1+52.5+599C53.6+598.1+53.8+597.4+53+596.6C51.6+595.2+51.7+594.3+53.5+593.6C54.7+593.2+55+593.8+55+596.4C55+599.2+54.4+600.2+51.5+601.9C49.6+603+47.2+605.3+46.1+607C44.1+610.4+40.2+613.6+39.3+612.6C39+612.3+39.3+611.4+40+610.5C41+609.3+40.9+608.9+39.6+608.4C36.9+607.4+35.3+608.6+31+615.1C24.9+624.2+24+626.4+23.9+631.7C23.8+635.7+23.7+636+23.1+633.5C22.2+629.2+19.7+629.7+18.9+634.3C18.6+636.4+17.8+638.6+17.2+639.2C16.3+640.1+16.3+639.5+17+636.9C18.6+631.4+18.3+629.8+15.8+630.2C14.6+630.4+13.3+631.4+13+632.5C12.3+635.3+7.7+643+6.80001+643C5.30001+643+6.00001+640.5+9.20001+634.3C12.5+627.9+12.3+624.5+9.00001+629C3.70001+636.1+2.70001+637.1+1.90001+636.3C0.700005+635.1+3.60001+629.3+6.10001+628C7.10001+627.4+8.00001+626.4+8.00001+625.8C8.00001+625.2+8.70001+623.9+9.60001+622.9C10.9+621.5+11.7+621.3+13.8+622.1C16.5+623.2+19.5+622.6+18.6+621.1C18.3+620.7+16.2+620+14+619.6C11.8+619.3+10+618.5+10+618C10+617.4+9.10001+617+7.90001+617C6.50001+617+6.00001+616.5+6.20001+615.2C6.70001+612.4+12+612.5+16.4+615.5C19+617.3+20.6+617.8+21.3+617.1C22+616.4+21.9+615.6+21.1+614.6C20+613.4+20.5+612.4+23.8+608.8C27.6+604.8+28+604.6+30.3+605.9C33.8+607.8+36.2+606.8+33+604.8C29+602.3+25.3+601.8+23.6+603.6C21.4+605.8+21.6+603.7+23.9+600.9C25.4+599+26+598.8+27.2+599.8C28.4+600.8+29.3+600.4+31.8+598C33.6+596.3+35.4+595+36+595C36.5+595+37+593.7+37+592.1C37+588.8+40.6+585.3+44.9+584.4C60.9+581.2+66.4+577.9+58.5+576.4C55.4+575.9+54.4+576.2+52.1+578.4C47.8+582.5+45+581.1+48.4+576.4C49.6+574.8+51.1+574.5+57.4+574.4C61.7+574.3+66.3+573.6+68.2+572.8C76.7+568.9+76.9+569.2+70.5+575.5ZM405.6+573.7C405.4+575.2+404.7+576.6+404+576.8C403.1+577.1+402.9+576.7+403.3+575.6C403.7+574.6+404+573.2+404+572.4C404+571.6+404.4+571+404.9+571C405.4+571+405.7+572.2+405.6+573.7ZM397.8+577.7C396.6+579+395.3+580+394.8+580C393.3+580+394+577.6+396.2+575.3C397.8+573.6+398.6+573.3+399.1+574.2C399.6+575+399+576.4+397.8+577.7ZM315+576.9C315+578.6+314.6+580.2+314+580.5C313.4+580.9+313+579.7+313+577.6C313+575.6+313.5+574+314+574C314.6+574+315+575.3+315+576.9ZM440+577.4C440+579+438.2+580.5+437.3+579.6C436.5+578.8+437.8+576+439+576C439.5+576+440+576.6+440+577.4ZM117.1+579.7C116.6+580.7+115.5+582.4+114.6+583.5C113.1+585.4+113.1+585.4+113+582.8C113+581.3+113.8+579.7+114.8+579.1C117.4+577.6+118.2+577.8+117.1+579.7ZM133.1+579.9C132.1+581.7+128.1+583+122.8+583.3C120.3+583.5+120.3+583.4+121.7+581.7C122.7+580.7+124.8+580+126.9+580C128.9+580+131.2+579.5+132+579C134.1+577.6+134.2+577.7+133.1+579.9ZM367.8+583.2C364.9+585.4+364.5+584.8+366.1+581C367.4+578.2+367.6+578.1+368.8+579.7C369.9+581.2+369.7+581.7+367.8+583.2ZM38.5+583.3C37.6+584.7+36.2+586.1+35.3+586.4C34.5+586.8+35.1+585.5+36.6+583.7C39.9+579.8+40.9+579.6+38.5+583.3ZM430+582C430+582.5+429.8+583+429.6+583C429.3+583+428.8+582.5+428.5+582C428.2+581.4+428.4+581+428.9+581C429.5+581+430+581.4+430+582ZM314.4+586.8C313.5+591.1+312.3+590+312.8+585.5C313.1+583.3+313.6+582.2+314.1+582.7C314.6+583.2+314.7+585.1+314.4+586.8ZM441.9+582.9C442.7+583.4+443+584.5+442.5+586C441.8+588.2+441.8+588.2+440.4+585.5C438.4+581.7+438.8+581+441.9+582.9ZM32.2+590.2C31.5+590.9+31+591+31+590.4C31+589+32.2+587.8+32.9+588.5C33.1+588.8+32.8+589.6+32.2+590.2ZM413+592C413+592.5+412.6+593+412+593C411.5+593+411+592.5+411+592C411+591.4+411.5+591+412+591C412.6+591+413+591.4+413+592ZM450+597.7C455.7+597+455.5+599.9+449.7+602.2C444.8+604.3+442.7+604.4+439.9+603C437.1+601.4+435.9+602.6+437.2+605.5C438.7+608.9+437.9+609.4+434.2+607.3C431.7+605.9+431+605.8+429.6+606.9C427.9+608.4+427.5+611.1+428.9+612.5C430+613.8+426.3+622+424.6+622C422.1+622+418.1+616.1+417.4+611.5C416.7+606.3+415.8+605.4+413.7+607.5C411.7+609.4+410+609.4+410+607.5C410+605.2+408.9+605.7+405.5+609.4C401.9+613.3+397.9+614.7+394.7+613.2C393.5+612.6+391.7+611.9+390.8+611.6C388.2+610.8+388.6+609+391.4+609C394.9+609+399.2+605+402+599.1C403.3+596.3+404.7+594+405.2+594C405.7+594+407.7+594.7+409.7+595.5C413.6+597.2+420.6+597.5+424.2+596.1C428.6+594.5+434.2+593.8+433.5+595C433.1+595.6+433.4+596.7+434+597.5C436.9+600.9+442.5+597.6+440.2+593.9C438.1+590.5+438.9+590.8+442.5+594.6C445.7+597.9+446.4+598.2+450+597.7ZM439+595.5C439+596.3+438.6+597+438.1+597C437.6+597+437+596.3+436.6+595.5C436.3+594.6+436.6+594+437.5+594C438.3+594+439+594.7+439+595.5ZM390+600.6C390+601.4+389.5+601.8+389+601.5C388.4+601.1+388.2+600.4+388.5+599.9C389.4+598.5+390+598.8+390+600.6ZM72.8+613.7C78+616.8+78.9+619.6+76.6+626.1C75.6+628.8+75.1+631.3+75.3+631.8C75.6+632.2+75.5+633.2+75.1+633.9C74.5+634.9+73.2+634.4+69.7+631.8C64.6+628.1+62.5+624.3+63.4+620.5C63.8+619+63.4+616.8+62.5+615C61.6+613.3+61.2+611.5+61.5+611C62.4+609.6+67.9+611+72.8+613.7ZM411+611.9C411+613.1+409+614.4+408.3+613.7C407.6+613+408.9+611+410.1+611C410.6+611+411+611.4+411+611.9ZM239.8+630.5C239.6+631.6+238.8+632.5+238+632.5C236.3+632.5+235.5+628.8+236.5+626.2C237.1+624.7+237.3+624.7+238.6+626.5C239.4+627.6+239.9+629.4+239.8+630.5ZM308.9+635.3C310.6+638.6+310.6+639+309.1+638.9C306.3+638.8+304.2+637.6+302+634.7L299.8+632L302.2+631.1C305.2+630+306.6+630.8+308.9+635.3ZM249.2+640.3C246.8+647.2+241.6+658+242.5+654C242.8+652.6+243.8+648.8+244.7+645.5C245.6+642.2+246.3+638.7+246.2+637.8C246.1+636.1+249.9+632.6+250.8+633.5C251.1+633.7+250.3+636.8+249.2+640.3ZM221.3+647.9C214+655+212.8+657.6+216+660.2C217.2+661.2+219+662+220.1+662C222.7+662+223.2+663.4+221.5+666.6C220.2+669+220+673.4+220.2+691.5C220.5+711.4+220.3+714+218.6+717.8C216.8+721.8+216.8+722.9+218+737.3C218.7+745.6+219.6+761.3+220+772C220.4+782.7+221.1+795.8+221.5+801.1C222.3+810.4+222.2+810.8+220.1+811.5C215.9+812.8+216+813+213.1+786.5C209.3+752.3+208.7+744.7+209.4+737.8L210+731L207.1+731C202.7+731+201+734.1+201+742C201.1+749.1+202.3+762.1+204+774.5C205.5+784.9+207.8+810.3+207.3+811.2C207.1+811.6+205.9+811.8+204.7+811.6C202.6+811.3+202.5+810.9+201.8+792.9C201.5+782.8+200.7+772+200+769C199.4+766+198.7+758.3+198.4+752C198.2+745.7+197.8+737.7+197.5+734.2C197.1+728.8+197.3+728+198.8+728C199.8+728+201.5+727.3+202.7+726.5C204.5+725.2+204.7+724.3+204.3+718.3C204.1+714.5+203.2+708.3+202.4+704.5C201.6+700.6+200.9+691.6+200.7+684.5C200.5+671.7+200.5+671.4+203.3+667.3C206.9+662.1+206.6+659.6+202.2+659.2C200.5+659+199+658.7+199+658.4C199+658.1+201.7+655.4+205.1+652.3C211.1+646.7+219.3+642.8+226.5+642.1C227.1+642.1+224.7+644.7+221.3+647.9ZM235.7+651.3C234.3+653.5+234.3+655.3+234.9+716.5C234.9+719.8+234.5+729.2+233.9+737.5C233.3+745.7+233.1+756.5+233.4+761.5C233.8+766.4+234.3+775.9+234.5+782.5C235+795.5+235.8+806.7+236.5+808.8C237.4+811.3+233.8+811.4+232+808.9C229.7+806+229.2+801.5+228+775C227.5+763.2+226.6+746.1+226+737.2C225.1+721.8+225.2+720.6+227+717C228.8+713.4+229+711.3+228.7+691.4C228.5+672.1+228.6+669.3+230.2+666.3C233.3+660.5+232.1+657+226.9+657C222+657+222.7+655.1+229.7+648.4L236.5+641.8L236.8+645.5C237+647.5+236.5+650.1+235.7+651.3ZM172.4+646.2C173+649.4+172.7+655.3+171.4+673.7C170.9+680+171.1+684.3+172+687.7C173.4+692.5+173.7+701.2+174.5+748.5C174.8+762.8+175.1+780.9+175.3+788.7C175.6+801.1+175.4+803+174.1+803C171.3+803+162.6+807.6+160.1+810.4C158.2+812.4+156.7+813+153.3+813C148.7+813+148+811.9+150.4+808.5C151.2+807.2+152+801.7+152.5+793.5C153+786.3+153.4+780+153.5+779.5C153.6+778.9+153.8+778.1+153.8+777.6C153.9+777+154.6+777.5+155.4+778.6C156.6+780.1+157.1+780.2+158.1+779.3C159+778.4+159.3+772.6+159.1+757.8C159+743.3+159.3+738+160+739.2C160.6+740.2+161.3+745.1+161.6+750.2C163.4+782.6+163.6+783.6+167.6+782.8C170.3+782.3+171.1+777.6+170.4+766.3C169.9+758.7+169.3+756+168.3+755.5C167.1+755.1+166.9+752.7+167.1+741.8C167.4+730.6+167.3+728.5+166+728.2C164.7+728+164.5+724.2+164.6+700.7C164.6+674.1+165.2+665.6+167.1+664.4C167.6+664.1+168+661.6+168+658.7C168+653.2+170+643+171.1+643C171.5+643+172+644.5+172.4+646.2ZM182.5+648.3C183.6+660.7+187+671.3+190.4+672.6C191.8+673.1+192.9+680.8+193.6+695.4C193.8+699.7+194.7+705.4+195.5+708.1C196.4+710.7+197+715+196.8+717.7C196.5+722.1+196.2+722.6+192.9+724.2L189.2+725.9L189.6+739.7C189.9+747.3+190.7+758+191.5+763.5C193.5+777.9+194.1+785.1+194.4+797.5C194.5+803.5+195+809.3+195.4+810.2C196.1+811.8+195.6+812+190.1+812C182.4+812+182.5+812+182.7+809C182.9+807.6+182.9+799.3+182.8+790.5C182.7+781.7+182.7+772.5+182.7+770C183+753.8+182.9+735.4+182.4+729C182.1+724.9+181.7+715.6+181.6+708.5C181.5+701.3+180.8+692+180.1+687.7C179.2+682+179.2+678+179.9+672.4C180.5+668.3+181+660.3+181+654.8C181+649.2+181.3+645+181.7+645.3C182+645.7+182.4+647+182.5+648.3ZM253.1+650.7C252.3+652.2+252.1+652.2+252+650.9C252+649.2+253+647.7+253.8+648.4C254+648.7+253.7+649.7+253.1+650.7ZM272.9+648.7C272.9+649.2+272.5+650.4+272+651.5C271.2+653.3+271.1+653.2+271.1+650.7C271+649.2+271.5+648+272+648C272.6+648+273+648.3+272.9+648.7ZM288+652.5C288+653.9+287.8+655+287.6+655C287.4+655+287+653.9+286.8+652.5C286.5+651.1+286.7+650+287.1+650C287.6+650+288+651.1+288+652.5ZM243.3+660C243.6+661.1+243.4+661.8+242.9+661.4C242.4+661.1+242+660.2+242+659.4C242+657.4+242.7+657.7+243.3+660ZM152+666C152+668+150.9+670+148.5+672.4C146.6+674.4+145+676.7+145+677.6C145+678.6+144.7+679.1+144.4+678.7C143.2+677.6+146.2+670.9+148.6+669.3C150+668.4+151+666.8+151+665.4C151+664.1+151.2+663+151.5+663C151.8+663+152+664.3+152+666ZM367.7+667.2C367.4+668+367.1+667.7+367.1+666.6C367+665.5+367.3+664.9+367.6+665.3C367.9+665.6+368+666.5+367.7+667.2ZM158.5+671.6C158.7+673.2+158.6+676.1+158.3+678C157.8+680.9+157.6+681.2+156.9+679.5C155.7+676.3+155.8+666.4+157.1+667.7C157.7+668.3+158.3+670+158.5+671.6ZM243.6+671.2C243.4+673.6+243.1+677+243.1+678.8C243+680.7+242.6+681.9+242+681.5C241.1+681+241.4+675.1+242.6+669.2C243.4+665.4+244.1+666.8+243.6+671.2ZM280.5+671.7C285+672.1+286.9+672.7+288.2+674.4C290.5+677.2+290.5+678.7+288.2+676.7C285.1+673.9+274+674.9+274+677.9C274+680.2+276+682+278.5+682C281.4+682+283.6+687.3+284.5+696C284.9+699.6+285.4+720.5+285.6+742.4C285.9+781+286+782.5+288+784.4L290+786.4L292.2+784.2C293.9+782.6+294.4+780.9+294.3+777.7C294.3+775.4+294+757.7+293.7+738.5C293.5+719.2+292.9+702+292.5+700.2C292.1+698.5+292.1+697+292.6+697C293.1+697+294.5+696.7+295.7+696.4C297.8+695.8+297.8+696.1+298.1+706.2C298.5+719.1+298.4+742.1+297.9+765.5C297.7+775.4+297.9+785.2+298.3+787.2C299+790.8+298.9+791+295.6+792.4C291.8+794+290.9+796.5+291.3+805C291.5+809.2+291.3+809.5+288.7+809.8C286.9+810+285.8+809.6+285.4+808.6C284.6+806.5+283.2+806.6+278.7+809C276.7+810.1+274.6+811+274.2+811C273.8+811+272.4+808.9+271.2+806.4C269.1+802.1+269+800.6+268.9+775.7C268.9+761.3+269.3+747.5+269.8+745C270.2+742.5+270.3+736.7+269.9+732C269.4+726.7+269.5+721.4+270.2+717.7C270.8+714.4+271+708.9+270.6+704.7C270.2+700.8+269.7+693.5+269.5+688.7C269.3+682.3+268.6+678.9+267.1+675.9C264+670.1+264.3+669.6+269.8+670.4C272.4+670.8+277.2+671.4+280.5+671.7ZM365.1+676.9C362.9+678.5+351.3+680.7+350.3+679.6C350+679.4+353+678.7+356.9+678C360.8+677.4+364.2+676.4+364.6+675.9C364.9+675.4+365.7+675+366.3+675C367+675+366.4+675.9+365.1+676.9ZM255.2+699.5C255.3+703.3+255.3+711.2+255.2+717C254.9+726.9+255.6+735.3+258+749.3C259.1+755.8+259.3+758.2+260.5+790.8L261.3+811.2L258.4+810.8C255.6+810.5+255.5+810.3+255.4+805.5C255.4+802.7+255+794.4+254.6+787C254.2+779.6+253.7+764+253.5+752.5C253.4+740.9+252.8+726.8+252.1+721C250.7+707.8+249.8+682.2+250.7+680.7C251.8+678.9+254.9+692+255.2+699.5ZM367.1+682.9C365.9+684.5+364.5+685.8+363.8+685.7C360.3+685.6+359.1+686.2+358.3+688.7C356.8+693.2+357.8+735.7+359.5+740.8C360.3+743.1+361+745.8+361+746.7C361+747.6+361.4+749.7+362+751.4C362.5+753.1+363.6+759+364.5+764.5C365.3+770+366.7+778.1+367.5+782.5C369.3+792.7+369.5+807.9+367.8+808.5C364+809.8+362.6+809.4+362+807C361.7+805.5+360.5+804.4+359+804C357.1+803.6+356.4+802.7+356.2+800.2C356+797.8+355.2+796.6+353.4+796C351.1+795.1+351+794.8+351.7+789.3C352.5+783.8+352.6+729.8+351.9+716C351.7+712.4+352.4+705.7+353.3+701C354.2+696.3+355.1+690.9+355.3+689C355.5+685.9+356+685.4+359.4+684.2C361.5+683.6+364.1+682.3+365.3+681.5C368.6+679.2+369.3+679.7+367.1+682.9ZM291.5+684C291.8+684.5+291.6+685+291.1+685C290.5+685+290+684.5+290+684C290+683.4+290.2+683+290.4+683C290.7+683+291.2+683.4+291.5+684ZM334+691.2C334+712.6+334.7+729.9+335.8+733C337.6+738.2+338.1+745.5+337+750.6C335.1+758.9+333.8+802.7+335.3+806.7C336.1+808.8+335.9+809+332.3+809L328.4+809L328.3+787.7C328.1+725.4+327.5+703.3+326.1+701.6C324.4+699.6+322+701.2+322.7+703.9C323+704.9+322.6+706.1+322+706.5C321.1+707.1+320.9+704.7+321.4+696.9C321.7+691.2+322+686.4+322+686.3C322+686.1+327.7+685.4+331.3+685.2C334+685+334.1+685+334+691.2ZM372+700C372+704.1+372.7+709.3+373.4+711.5C374.6+714.9+375.4+715.6+378.8+716.5C383.7+717.7+386+719.6+386+722.4C386+723.6+386.7+725.5+387.5+726.7C388.6+728.3+389+731.1+388.9+736.8C388.6+745.9+389.2+747.3+392.3+746.1C395.4+744.9+398.1+746.2+401.8+750.4C404.8+753.9+405.4+755.1+405.1+757.6C405+758.2+405.9+759.5+407+760.5C409.5+762.7+409.6+765.3+407.3+764.8C405.7+764.5+405.2+763.4+403.1+756C402.1+752.1+399.5+752.8+399.5+757.1C399.5+759.1+398.9+761.4+398.2+762.2C397.1+763.6+397.2+763.9+399.2+764.6C404.3+766.2+408.8+769.9+409.5+773C410.3+776.7+412.2+777.7+415.6+776.1C417.8+775.1+418.2+775.3+419.1+777.7C419.6+779.1+419.9+784+419.8+788.4C419.5+796.4+419.5+796.5+418+793.4C417.2+791.8+414.9+788.5+412.8+786.1C409.9+782.7+408.6+781.9+406.3+782.2C403.9+782.5+403.5+782.9+403.7+785.4C403.8+787+404.8+789.3+406+790.5C407.1+791.7+408+793.1+408+793.7C408+794.3+408.8+795.8+409.8+797.1C410.9+798.4+412+800.6+412.3+802C412.8+804.2+412.4+804+409.3+800.5C402+792.3+400.6+789.3+400.5+782.1C400.4+777.2+399.8+774.6+398.2+772C397+770.1+396+767.7+396+766.7C396+765.6+395.1+763.5+393.9+761.9C392.1+759.3+391.4+759.1+388.1+759.6C384.5+760.2+384.3+760+382.6+756.2C381.5+753.8+381.1+751.4+381.5+750L382.2+747.8L383.7+749.9C385.4+752.4+387.3+752.6+389+750.5C389.9+749.4+389.8+748.6+388.6+746.8C387.4+745.2+387+742.2+387+735.9C387+729.4+386.6+726.9+385.5+726C384.7+725.3+384+723.7+384+722.3C384+721+383.4+719.8+382.8+719.6C382.1+719.4+379.7+718.8+377.6+718.4C374+717.6+373.5+717+371.9+712.5C370.6+708.8+370.2+704.5+370.2+696C370.2+687.3+370.4+685.5+371.1+688.5C371.5+690.7+371.9+695.9+372+700ZM316.3+693.2C316.5+697.2+316.5+714+316.2+730.5C316+747+315.7+765+315.6+770.6C315.6+776.2+315+781.3+314.4+782.1C312+785.2+311+790.2+312+794.4C312.5+796.6+312.9+799.4+312.7+800.5C312.5+802.1+313+802.5+315.3+802.3C320+802+321.3+800.2+320.5+795.5C320.1+793.3+319.8+790.4+319.7+789C319.6+784+321+755.7+321.4+755.3C323.3+753.3+323.7+806.4+321.8+808.8C321+809.7+318.6+810+314.2+809.8L307.8+809.5L307.3+804.5C307.1+801.7+306.7+778.6+306.5+753C306.1+687+306.1+687.7+306.6+686.8C306.9+686.4+309.1+686+311.5+686L315.8+686C315.8+686+316.3+693.2+316.3+693.2ZM243+695.7C243+699.8+242.7+701.1+241.9+700.3C240.9+699.3+241.6+690+242.6+690C242.8+690+243+692.6+243+695.7ZM345.6+699C345+702.6+344.6+712.5+344.7+721C344.9+735.9+344.9+736.3+343.4+732.5C342.3+729.6+341.9+725.3+342.1+717C342.4+696.8+342.6+694+344.4+691.1C346.2+688.3+346.8+692.4+345.6+699ZM158.5+711.1C158.7+722.3+158.6+728.2+158+726.1C157.1+722.3+156.6+691.3+157.5+692.2C157.9+692.5+158.3+701.1+158.5+711.1ZM128.1+700.7C126.6+703.5+124.1+706.6+124+705.7C124+704.1+127.1+699+128.1+699C128.7+699+128.7+699.6+128.1+700.7ZM244.6+712.6C245.8+714.3+245.9+715.4+245.1+716.8C244.4+718.2+244.4+721.4+245+727.1C245.9+734.3+247.2+788.4+247+804.9C246.9+810.2+246.5+811.9+245.5+810.9C244+809.3+241.4+766.7+241.7+748.5C241.8+741.9+242.1+728.6+242.2+719C242.4+709.4+242.6+703.5+242.8+705.9C243+708.3+243.8+711.3+244.6+712.6ZM127.1+709.1C125.9+711+125+712.1+125+711.7C125+710.3+128.1+704.8+128.6+705.3C128.9+705.6+128.2+707.3+127.1+709.1ZM152+725.5L152.3+735.5L148.8+735.6C146.9+735.7+144.7+736.1+144+736.5C143+737.1+142.8+736.8+143.4+735.5C143.8+734.4+144.3+731.5+144.6+729C144.9+726.5+146.3+720.5+147.8+715.7L150.5+706.8L151.1+711.2C151.5+713.5+151.9+720+152+725.5ZM368+723.6C368+729.9+370.3+735.8+373.8+738.6L376.4+740.7L374.7+745.1C372.6+750.6+372.6+753.3+374.5+757C376.3+760.6+380.6+778.6+381.4+786.5C382+792.1+381.9+792.6+379.6+793.6C377.3+794.7+377.2+794.5+376.6+789.6C376.3+786.8+375.3+780.9+374.5+776.5C373.7+772.1+372.5+765.3+371.9+761.5C371.3+757.6+370.1+751.2+369.3+747.2C368.4+743.2+368+739.7+368.3+739.3C368.7+739+368.2+737.8+367.3+736.8C366+735.4+365.5+732.7+365.3+726.7C365.1+722.2+364.9+717.8+364.9+717C364.8+716.2+364.8+713.7+364.9+711.5L365.2+707.5L366.5+713C367.3+716+367.9+720.8+368+723.6ZM322.7+732.3C322.5+734.6+322.4+732.4+322.4+727.5C322.4+722.5+322.5+720.7+322.7+723.3C322.9+725.9+322.9+730+322.7+732.3ZM380.3+725.5C381.4+730.8+382.1+737.9+381.4+736C381+735.2+380.1+733.9+379.2+733.2C377.5+731.9+375.1+724.1+375.8+722.1C376.7+719.5+379.5+721.6+380.3+725.5ZM108.4+736.6C108.7+737.5+108.7+738.6+108.4+739.1C108.1+739.7+108.2+740.9+108.6+741.8C109+742.7+109.2+744.5+109.1+745.7C109+746.8+109.4+748.1+109.9+748.5C110.5+748.8+111+749.8+111+750.6C111+751.4+110.5+751.8+110+751.5C109.4+751.1+108.2+751.1+107.4+751.4C106.1+751.9+106+752.3+107.3+754.7C108.2+756.3+109.3+762.3+109.9+768.1C111.2+780+110.4+783.6+106.3+784.6C104.7+785+103.7+786.3+103+789.1C101.8+793.6+98.2+801.3+95.5+805.4C93.5+808.4+85+813+81.3+813C76.9+813+77.6+810.4+84.3+801.9C85.9+799.9+87.5+796.5+88+794.4C88.5+792.2+89.3+787.9+90+784.7C91+779.7+91.5+778.8+94.3+777.6C96.1+776.9+98+775.7+98.6+774.9C99.8+773.3+102.3+750.8+102.1+743.8C102+741.2+102.4+738.1+103+737C104.3+734.6+107.5+734.4+108.4+736.6ZM127.8+743.4C127.2+750.4+129.4+755.5+133+755.5C135.7+755.5+136.4+754.3+140.2+744.2C142.3+738.5+142.5+738.1+143+740.7C143.3+742.2+144.4+745.1+145.4+747C147.1+750.2+147.2+752.3+146.7+777.4C146.2+803.5+146.2+804.4+144.1+806C142.9+806.9+141.3+808.7+140.7+810C139.8+811.9+138.5+812.6+135.7+812.8C133.7+813+132+812.9+132+812.7C132+812.5+132.8+810.8+133.7+808.9C135+806.4+135.4+803.5+135.2+797.9C135+791.6+135.2+790+137+787.8C138.3+786.1+139+783.7+139+780.8C139+774.4+140.8+765+142.7+761.2C145.6+755.5+141.1+754.2+137.8+759.8C135.9+763+132.5+779.4+133.4+780.9C133.8+781.5+132.9+784.4+131.5+787.3C130+790.6+129+794.5+129+797.2C129+802.7+126.4+810.6+124.3+811.4C121.7+812.4+112.2+813.3+110.5+812.6C109+812.1+109.1+811.7+111.1+808.9C112.3+807.2+113.8+804+114.5+801.7C115.7+797.5+116.4+796.9+121.5+795.3L124.5+794.4L124.5+786C124.5+781.3+124.9+777+125.3+776.4C125.7+775.7+125.3+774.7+124.5+774C123.4+773+122.6+773.3+120.7+775.4C118.6+777.6+118.1+777.8+117.6+776.4C116.6+773.8+116.9+772+118.5+772C121.1+772+122.4+767.7+122.5+758.7C122.6+753.5+123.1+749.5+123.8+748.8C124.5+748.1+125+746.6+125+745.4C125+742.7+126.7+738+127.6+738C128+738+128+740.4+127.8+743.4ZM322.5+746C322.1+749.9+321.6+752.9+321.3+752.7C321.1+752.4+321.2+749+321.6+745.1C321.9+741.1+322.5+738.1+322.7+738.4C323+738.7+322.9+742.1+322.5+746ZM153.9+747.7C154+748.4+153.6+749+153+749C152.5+749+152+747.3+152.1+745.2C152.2+741.9+152.3+741.8+153+744C153.4+745.4+153.8+747.1+153.9+747.7ZM480.5+750.1C481+750.7+481+751.4+480.3+752.1C479.5+752.9+479+752.9+478.6+752.1C478.2+751.5+476.6+751+475+751C472.1+751+470.5+749.8+471.7+748.6C472.5+747.8+479.2+748.9+480.5+750.1ZM116.7+756.7C116.4+757.7+116.2+757.1+116.2+755.5C116.2+753.8+116.4+753.1+116.7+753.7C116.9+754.4+116.9+755.8+116.7+756.7ZM153.7+755.2C153.4+756+153.1+755.7+153.1+754.6C153+753.5+153.3+752.9+153.6+753.3C153.9+753.6+154+754.5+153.7+755.2ZM474.7+754C478.2+754+477.3+754.6+472.8+755.3C469.8+755.8+469+755.6+469+754.3C469+753.3+469.6+753+470.6+753.4C471.5+753.7+473.3+754+474.7+754ZM344.9+767.2C344.9+773.4+344.5+781.4+344.1+785C343.6+789.5+343.4+786+343.6+774C343.9+754.8+343.8+756+344.4+756C344.6+756+344.8+761.1+344.9+767.2ZM478+758.9C486.2+759.8+483.1+760.9+471.6+761.3C466.3+761.4+463.5+761.9+463.2+762.7C462.7+764.4+465.9+765.5+467.9+764.4C468.8+763.9+474+763.7+479.5+764.1C485+764.4+489.3+764.7+489+764.9C488.7+765+485.6+765.3+482+765.5C473.2+766.1+471+766.8+471+768.6C471+769.9+472.5+770.1+481+769.9C486.5+769.7+491.3+769.9+491.6+770.3C492+770.7+489.9+771+486.9+771.1C471.4+771.3+465.2+774.5+479+775.2C488+775.6+490.6+777.2+489.1+781.3C488.4+783.2+487.4+783.5+482.4+783.8C479.2+783.9+475.4+784.3+474.1+784.6L471.7+785.1L472.4+796.4C473+806.2+472.9+807.8+471.5+808.4C469.2+809.2+468.9+807.5+469.2+795.9L469.5+785.5L464.6+785.8C457.4+786.3+455.9+787.3+456.7+791.3L457.2+794.5L455+792.3C450.2+787.8+454.5+783.3+464.8+782.3C471.2+781.6+471.2+779.8+464.7+778.8C459.1+778+458+777.4+458+775.1C458+772.5+460.3+770.9+465+770.3C469.1+769.7+470+767.8+466.4+767.2C460.8+766.4+460+765.9+460+763.6C460+762.3+460.6+760.8+461.3+760.3C463.3+758.6+468.4+757.1+470+757.7C470.8+758+474.4+758.6+478+758.9ZM153.1+765C152.2+767.4+152.1+767.4+152.1+764.3C152+762.6+152.3+760.3+152.8+759.3C153.4+757.8+153.5+757.9+153.8+760C154+761.4+153.6+763.7+153.1+765ZM428.1+766C428.2+769.6+428.1+773.1+427.9+773.8C427.7+774.4+428.6+775.6+430+776.3C432.1+777.4+432.6+778.5+433.3+784C434.2+791.1+436.3+794.3+441.6+796.6C446+798.4+453.2+807+450.5+807C450.2+807+448.2+805.2+446.1+803C444+800.8+441.5+799+440.4+799C437.3+799+433+792.6+431.8+786.2C430.3+778.2+430.2+778+428.5+778C427.5+778+427+779+427+781.2C426.9+784.2+426.7+783.9+425+779C423.9+776+423.1+773.4+423+773.2C423+773.1+423.7+773+424.5+773C426.6+773+426.4+770.6+424+768.5C422.1+766.8+418.7+766.8+414.8+768.5C413.4+769+413+768.7+413+767.2C413+765.7+413.9+765.1+416.8+764.6C419.2+764.3+421.7+762.9+423.5+761C425.1+759.3+426.7+758.3+427.2+758.8C427.6+759.2+428+762.4+428.1+766ZM392.5+776C392.9+777.2+392.9+779.9+392.5+782.1C391.9+785.4+392.3+786.9+395.1+791.8C396.8+794.9+400.2+799.7+402.6+802.4C405+805+407+807.6+407+808.1C407+808.7+402.8+808.9+397.3+808.8L387.5+808.5L387.2+805.7C387+803.8+387.3+803+388.4+803C390.6+803+393+800.1+393+797.4C393+796.1+391.9+793.3+390.7+791.2C388.3+787.5+388.1+784.9+389.5+777.7C390.3+773.6+391.5+772.9+392.5+776ZM119.2+784.2C119.7+789+118.7+791+115.9+791C113.6+791+110.5+795.7+108.6+802.2C106.5+809+103.3+813+99.8+813L96.9+813L101.5+806.4C104+802.7+106.8+797.5+107.8+794.8C108.7+792+110.6+789+112.1+787.9C113.6+786.9+115.3+784.7+116+783C117.7+778.9+118.7+779.2+119.2+784.2ZM433.4+798.5C436.3+801.3+438.3+802.5+440.4+802.5C442+802.5+443.5+803.1+443.8+803.9C444.2+805+443.4+805.2+439.6+804.7C433.7+803.9+431+802.4+431+800.1C431+799.1+430.3+797.7+429.5+797C428.7+796.3+428+794.8+428.1+793.6C428.1+792.2+428.3+792+428.7+793C429+793.8+431.1+796.3+433.4+798.5ZM344.1+808.5C343.3+810.1+341.9+800.7+342.7+799C343.1+798.1+343.6+799.5+344+802.5C344.3+805.2+344.3+807.9+344.1+808.5ZM422+802.1C422+802.7+421.6+802.8+421+802.5C420.5+802.2+420+801.4+420+800.9C420+800.3+420.5+800.2+421+800.5C421.6+800.8+422+801.6+422+802.1ZM379+806.1C379+807.9+378.6+808.9+378+808.5C377.5+808.2+377+806.5+377+804.9C377+803.1+377.4+802.1+378+802.5C378.6+802.8+379+804.5+379+806.1ZM416+806.5C416.7+807.3+416.8+808+416.2+808C415.7+808+414.7+807.3+414+806.5C413.3+805.7+413.2+805+413.8+805C414.3+805+415.3+805.7+416+806.5Z" opacity="1" fill="#000000"/>
</g>
<g id="Layer 1" vectornator:layerName="Layer 1">
<g opacity="1">
<path opacity="1" d="M149.177+857.291C149.683+857.237+149.997+857.151+150.117+857.031C150.237+856.911+150.297+856.757+150.297+856.571L150.297+841.611L143.417+841.611C143.203+841.611+143.043+841.684+142.937+841.831C142.83+841.977+142.75+842.277+142.697+842.731L142.217+842.731L142.217+835.611L142.697+835.611C142.75+836.064+142.83+836.364+142.937+836.511C143.043+836.657+143.203+836.731+143.417+836.731L163.177+836.731C163.39+836.731+163.55+836.657+163.657+836.511C163.763+836.364+163.843+836.064+163.897+835.611L164.377+835.611L164.377+842.731L163.897+842.731C163.843+842.277+163.763+841.977+163.657+841.831C163.55+841.684+163.39+841.611+163.177+841.611L156.297+841.611L156.297+856.571C156.297+856.757+156.357+856.911+156.477+857.031C156.597+857.151+156.91+857.237+157.417+857.291L157.417+857.771L149.177+857.771L149.177+857.291Z" fill="#000000"/>
<path fill="#000000" d="M174.457+856.571C174.457+856.864+174.563+857.051+174.777+857.131C174.99+857.211+175.257+857.264+175.577+857.291L175.577+857.771L167.977+857.771L167.977+857.291C168.297+857.264+168.563+857.211+168.777+857.131C168.99+857.051+169.097+856.864+169.097+856.571L169.097+841.371C169.097+841.077+168.99+840.891+168.777+840.811C168.563+840.731+168.297+840.677+167.977+840.651L167.977+840.171L175.577+840.171L175.577+840.651C175.257+840.677+174.99+840.731+174.777+840.811C174.563+840.891+174.457+841.077+174.457+841.371L174.457+846.411L183.297+846.411L183.297+841.371C183.297+841.077+183.19+840.891+182.977+840.811C182.763+840.731+182.497+840.677+182.177+840.651L182.177+840.171L189.777+840.171L189.777+840.651C189.457+840.677+189.19+840.731+188.977+840.811C188.763+840.891+188.657+841.077+188.657+841.371L188.657+856.571C188.657+856.864+188.763+857.051+188.977+857.131C189.19+857.211+189.457+857.264+189.777+857.291L189.777+857.771L182.177+857.771L182.177+857.291C182.497+857.264+182.763+857.211+182.977+857.131C183.19+857.051+183.297+856.864+183.297+856.571L183.297+850.491L174.457+850.491L174.457+856.571Z" opacity="1"/>
<path opacity="1" fill="#000000" d="M212.497+854.251C213.03+854.251+213.377+853.917+213.537+853.251L214.017+853.251L214.017+858.491L213.617+858.491C213.483+858.117+213.343+857.904+213.197+857.851C213.05+857.797+212.817+857.771+212.497+857.771L194.657+857.771L194.657+857.291C194.95+857.264+195.21+857.211+195.437+857.131C195.663+857.051+195.777+856.864+195.777+856.571L195.777+841.371C195.777+841.077+195.663+840.891+195.437+840.811C195.21+840.731+194.95+840.677+194.657+840.651L194.657+840.171L212.817+840.171C212.977+840.171+213.137+840.117+213.297+840.011C213.457+839.904+213.537+839.664+213.537+839.291L214.017+839.291L214.017+844.651L213.537+844.651C213.537+844.251+213.457+843.991+213.297+843.871C213.137+843.751+212.977+843.691+212.817+843.691L201.137+843.691L201.137+846.931L208.657+846.931C208.817+846.931+208.977+846.871+209.137+846.751C209.297+846.631+209.377+846.384+209.377+846.011L209.857+846.011L209.857+851.211L209.377+851.211C209.377+850.837+209.297+850.591+209.137+850.471C208.977+850.351+208.817+850.291+208.657+850.291L201.137+850.291L201.137+854.251L212.497+854.251Z"/>
<path fill="#000000" opacity="1" d="M245.937+845.611C247.11+845.611+247.917+845.391+248.357+844.951C248.797+844.511+249.017+843.997+249.017+843.411C249.017+842.824+248.797+842.311+248.357+841.871C247.917+841.431+247.11+841.211+245.937+841.211L239.217+841.211L239.217+845.611L245.937+845.611ZM239.217+856.571C239.217+856.757+239.277+856.911+239.397+857.031C239.517+857.151+239.83+857.237+240.337+857.291L240.337+857.771L232.097+857.771L232.097+857.291C232.603+857.237+232.917+857.151+233.037+857.031C233.157+856.911+233.217+856.757+233.217+856.571L233.217+837.931C233.217+837.744+233.157+837.591+233.037+837.471C232.917+837.351+232.603+837.264+232.097+837.211L232.097+836.731L246.737+836.731C249.697+836.731+251.843+837.271+253.177+838.351C254.51+839.431+255.177+841.104+255.177+843.371C255.177+845.211+254.637+846.651+253.557+847.691C252.477+848.731+251.11+849.477+249.457+849.931L254.177+856.571C254.497+857.051+254.883+857.291+255.337+857.291L255.337+857.771L247.017+857.771L247.017+857.291C247.603+857.264+247.897+857.024+247.897+856.571C247.897+856.517+247.79+856.331+247.577+856.011C247.363+855.691+247.097+855.304+246.777+854.851C246.457+854.397+246.103+853.911+245.717+853.391C245.33+852.871+244.957+852.371+244.597+851.891C244.237+851.411+243.923+850.984+243.657+850.611C243.39+850.237+243.217+849.984+243.137+849.851L239.217+849.851L239.217+856.571Z"/>
<path fill="#000000" d="M278.017+854.251C278.55+854.251+278.897+853.917+279.057+853.251L279.537+853.251L279.537+858.491L279.137+858.491C279.003+858.117+278.863+857.904+278.717+857.851C278.57+857.797+278.337+857.771+278.017+857.771L260.177+857.771L260.177+857.291C260.47+857.264+260.73+857.211+260.957+857.131C261.183+857.051+261.297+856.864+261.297+856.571L261.297+841.371C261.297+841.077+261.183+840.891+260.957+840.811C260.73+840.731+260.47+840.677+260.177+840.651L260.177+840.171L278.337+840.171C278.497+840.171+278.657+840.117+278.817+840.011C278.977+839.904+279.057+839.664+279.057+839.291L279.537+839.291L279.537+844.651L279.057+844.651C279.057+844.251+278.977+843.991+278.817+843.871C278.657+843.751+278.497+843.691+278.337+843.691L266.657+843.691L266.657+846.931L274.177+846.931C274.337+846.931+274.497+846.871+274.657+846.751C274.817+846.631+274.897+846.384+274.897+846.011L275.377+846.011L275.377+851.211L274.897+851.211C274.897+850.837+274.817+850.591+274.657+850.471C274.497+850.351+274.337+850.291+274.177+850.291L266.657+850.291L266.657+854.251L278.017+854.251Z" opacity="1"/>
<path d="M294.377+844.171C293.63+844.171+292.923+844.284+292.257+844.511C291.59+844.737+291.003+845.057+290.497+845.471C289.99+845.884+289.597+846.384+289.317+846.971C289.037+847.557+288.897+848.224+288.897+848.971C288.897+849.717+289.037+850.384+289.317+850.971C289.597+851.557+289.99+852.057+290.497+852.471C291.003+852.884+291.59+853.204+292.257+853.431C292.923+853.657+293.63+853.771+294.377+853.771C295.15+853.771+295.863+853.657+296.517+853.431C297.17+853.204+297.75+852.884+298.257+852.471C298.763+852.057+299.157+851.557+299.437+850.971C299.717+850.384+299.857+849.717+299.857+848.971C299.857+848.224+299.717+847.557+299.437+846.971C299.157+846.384+298.763+845.884+298.257+845.471C297.75+845.057+297.17+844.737+296.517+844.511C295.863+844.284+295.15+844.171+294.377+844.171ZM294.377+839.931C295.63+839.931+296.89+840.104+298.157+840.451C299.423+840.797+300.57+841.337+301.597+842.071C302.623+842.804+303.457+843.744+304.097+844.891C304.737+846.037+305.057+847.397+305.057+848.971C305.057+850.571+304.737+851.937+304.097+853.071C303.457+854.204+302.623+855.131+301.597+855.851C300.57+856.571+299.423+857.091+298.157+857.411C296.89+857.731+295.63+857.891+294.377+857.891C293.123+857.891+291.863+857.731+290.597+857.411C289.33+857.091+288.183+856.571+287.157+855.851C286.13+855.131+285.297+854.204+284.657+853.071C284.017+851.937+283.697+850.571+283.697+848.971C283.697+847.397+284.017+846.037+284.657+844.891C285.297+843.744+286.13+842.804+287.157+842.071C288.183+841.337+289.33+840.797+290.597+840.451C291.863+840.104+293.123+839.931+294.377+839.931Z" opacity="1" fill="#000000"/>
<path d="M321.057+847.851C321.91+847.851+322.583+847.671+323.077+847.311C323.57+846.951+323.817+846.411+323.817+845.691C323.817+845.077+323.61+844.564+323.197+844.151C322.783+843.737+321.977+843.531+320.777+843.531L315.377+843.531L315.377+847.851L321.057+847.851ZM310.337+841.371C310.337+841.077+310.243+840.891+310.057+840.811C309.87+840.731+309.67+840.677+309.457+840.651L309.457+840.171L322.297+840.171C324.297+840.171+325.89+840.637+327.077+841.571C328.263+842.504+328.857+843.891+328.857+845.731C328.857+847.171+328.437+848.311+327.597+849.151C326.757+849.991+325.697+850.651+324.417+851.131L327.977+856.491C328.11+856.704+328.303+856.891+328.557+857.051C328.81+857.211+329.083+857.291+329.377+857.291L329.377+857.771L321.297+857.771L321.297+857.291C321.483+857.291+321.69+857.257+321.917+857.191C322.143+857.124+322.257+856.984+322.257+856.771C322.257+856.637+322.117+856.304+321.837+855.771C321.557+855.237+321.237+854.664+320.877+854.051C320.517+853.437+320.17+852.851+319.837+852.291C319.503+851.731+319.297+851.371+319.217+851.211L315.377+851.211L315.377+856.571C315.377+856.864+315.477+857.051+315.677+857.131C315.877+857.211+316.123+857.264+316.417+857.291L316.417+857.771L309.537+857.771L309.537+857.291C309.697+857.264+309.87+857.211+310.057+857.131C310.243+857.051+310.337+856.864+310.337+856.571L310.337+841.371Z" fill="#000000" opacity="1"/>
<path fill="#000000" d="M352.897+853.651C352.897+853.917+352.963+854.157+353.097+854.371C353.23+854.584+353.417+854.691+353.657+854.691L354.017+854.691L354.017+855.171C353.377+855.491+352.643+855.817+351.817+856.151C350.99+856.484+350.097+856.784+349.137+857.051C348.177+857.317+347.19+857.524+346.177+857.671C345.163+857.817+344.15+857.891+343.137+857.891C341.59+857.891+340.163+857.731+338.857+857.411C337.55+857.091+336.437+856.564+335.517+855.831C334.597+855.097+333.877+854.164+333.357+853.031C332.837+851.897+332.577+850.544+332.577+848.971C332.577+847.397+332.87+846.044+333.457+844.911C334.043+843.777+334.83+842.844+335.817+842.111C336.803+841.377+337.93+840.831+339.197+840.471C340.463+840.111+341.777+839.931+343.137+839.931C344.15+839.931+345.077+839.991+345.917+840.111C346.757+840.231+347.497+840.371+348.137+840.531C348.777+840.691+349.303+840.831+349.717+840.951C350.13+841.071+350.403+841.131+350.537+841.131C350.75+841.131+350.89+841.091+350.957+841.011C351.023+840.931+351.11+840.837+351.217+840.731L351.697+840.811L349.617+846.091L349.137+845.851L349.137+845.571C349.137+845.331+348.957+845.104+348.597+844.891C348.237+844.677+347.79+844.484+347.257+844.311C346.723+844.137+346.157+844.004+345.557+843.911C344.957+843.817+344.417+843.771+343.937+843.771C343.11+843.771+342.323+843.864+341.577+844.051C340.83+844.237+340.183+844.544+339.637+844.971C339.09+845.397+338.657+845.937+338.337+846.591C338.017+847.244+337.857+848.037+337.857+848.971C337.857+849.931+338.017+850.751+338.337+851.431C338.657+852.111+339.097+852.671+339.657+853.111C340.217+853.551+340.87+853.877+341.617+854.091C342.363+854.304+343.177+854.411+344.057+854.411C344.723+854.411+345.377+854.364+346.017+854.271C346.657+854.177+347.297+854.024+347.937+853.811L347.937+851.211L344.577+851.211C344.257+851.211+344.057+851.331+343.977+851.571C343.897+851.811+343.857+852.011+343.857+852.171L343.377+852.171L343.377+847.211L343.857+847.211C343.857+847.371+343.897+847.571+343.977+847.811C344.057+848.051+344.257+848.171+344.577+848.171L352.897+848.171L352.897+853.651Z" opacity="1"/>
</g>
</g>
</svg>
