<svg version="1" xmlns="http://www.w3.org/2000/svg" width="666.667" height="1170.667" viewBox="0 0 500 878"><path d="M0 122.9v122.9l4.1.7c5.1.9 6.8-.4 5-3.9-1.7-3.1-.9-4.4 3.6-5.2 3.2-.6 4-.3 6 2 1.3 1.5 2.3 3.3 2.3 4 0 2.6 2.6 3.8 5.3 2.5 2.1-.9 2.9-.8 5.4 1 2.7 2 6.3 2.1 6.3.1 0-.5 1.2-2.2 2.6-3.9 3.2-3.9 4.8-9.4 3.5-12-.6-1.1-2.6-2.2-4.8-2.5C33 227.5 32 227 32 225c0-2.5-5.4-8-7.8-8-1.1 0-2.7-1.1-3.6-2.5-.9-1.4-2.3-2.5-3-2.5-2.7 0-4-8.4-2.7-17.8 1.8-13.2 2.6-15.2 8.1-21 5.8-6.1 13.7-10.2 19.5-10.2 3.7 0 4.1.3 5.7 4.1 1.7 3.9 1.8 4 5.5 3.4 5.8-1 6.3-1.3 6.3-3.5 0-2.5.8-2.5 3.6.1 2.3 2.2 5 2.6 9.5 1.4 3.5-.9 5.8 2.7 6.9 10.8.9 6 .8 6.3-2.1 9.3-2.7 2.8-2.9 3.5-1.9 5.4 1.1 2 .9 2.5-1.1 4.1-2 1.5-2.1 1.9-1 3.3.7.9 1.8 1.6 2.4 1.6.6 0 2.3 1.4 3.7 3.2l2.7 3.2 4.2-1.9c2.3-1 5.1-3.2 6.3-4.7 1.8-2.7 2.4-2.9 6-2.3 3 .5 4.4.3 5.8-1 1.8-1.6 2.1-1.5 6 1.6 3.7 3.1 4.1 3.8 3.7 7-.6 4.8.7 6.9 4.3 6.9 1.9 0 3.3.7 4 2.1.9 1.6 1.7 1.9 4.1 1.4 1.6-.4 2.9-.2 2.9.3 0 1.6 3.2 2.3 4.7 1 .8-.6 1.2-2.1.9-3.2-1.3-4.9 3.9-14.7 8.5-16.1 2.3-.8 9.5 2.9 10.9 5.5.6 1 .8 3.7.4 5.8-.4 2.6-.1 4.9.9 6.9 2.1 4 .2 16-3.1 19.5-3.1 3.3-2.8 4.5 1.5 6.3 4.4 1.9 6 1.4 7.3-2 1.2-3.2 3-3.9 7.4-3.1 2.6.5 3.6 1.2 3.8 2.9.2 1.8.9 2.2 3.4 2 3.2-.3 3.2-.2 4.3 6.1.6 3.5.9 7 .6 7.7-.6 1.6-1.2 18.8-1.4 36.6l-.1 12.2-4.2.3c-3.4.2-4.4.8-5.8 3.3-3 5.4-11.1 5.7-9.4.3.6-2.2-5.4-6.8-9-6.8-1.8 0-2.9.7-3.5 2.2-1.9 5-11.7 9.1-14.3 6.1-.8-1-.8-1.7 0-2.5 1.7-1.7 1.5-4.8-.3-5.4-2-.8-6.3 1-9.9 4.1-6.1 5.2-13.3 2.6-17.1-6.3-1.6-3.6-1.7-4.9-.7-7.6 1.6-4.4 1.5-6-.6-7.9-4.1-3.7-10.9-.3-9.6 4.8.7 2.9-5.3 5.8-10.2 4.9-2.4-.4-4.2-.1-6 1-2.4 1.7-2.7 1.6-6.9-.9-2.5-1.4-4.9-3.4-5.5-4.4-.5-1-.9-5.2-.8-9.3.1-4.1-.1-7.9-.5-8.5-.5-.7-2.1-.7-5.6.1-5.1 1.1-9.1 3.9-9.1 6.3 0 .7-.7 1.3-1.5 1.3-1.9 0-2 2.6 0 3.3 1.7.7 1.3 10.1-.8 16.2-1.8 5.1-8.7 9.5-14.6 9.2-3.2-.1-4.7.5-6.9 2.6-3.6 3.5-5.7 3.4-11.6-.3-5.2-3.3-8.6-3.3-8.6.1 0 2.4-2.7 2.5-5.2.2-1.7-1.6-1.8-1.1-1.8 11.9v13.5l3.7.6c8.6 1.2 12.1 4.9 12.8 13.7.2 1.9.5 4.2.7 5 .7 3-3.9 2.2-7.4-1.3-1.9-1.8-4.8-4.1-6.6-4.9L0 350.2V392h4.4c3.8 0 4.8.5 7.6 3.6 2.8 3.3 3.1 4.1 2.5 7.8-.3 2.3-.6 5.4-.7 6.9-.1 2.4-.4 2.8-2.7 2.5-2-.2-3.3-1.7-6.1-6.5-1.9-3.5-3.8-6.3-4.2-6.3-.5 0-.8 7.2-.8 16 0 12.1.3 16 1.3 16 .6 0 2.5 1.1 4.2 2.4 2.7 2.2 2.8 2.6 1.7 5-1.8 4-1.5 7.7.9 10.3 1.8 1.8 2 2.5 1 3.7-2.1 2.5-5.1 2.9-7.2 1-1.9-1.7-1.9-1.5-1.9 7.2v8.9h6.1c5.2 0 6.3.3 8 2.5 3.2 4 4 6.7 2.7 9.5-.9 2-.8 2.8.6 4.4 1.8 2 1.4 4.1-.7 4.1-3.9 0-9-2.6-12.6-6.3L0 480.5v133.8C0 730 .2 748 1.4 748c2.2 0 2.7-1.5 1.6-4.7-1.7-4.7 1.7-11.5 7.6-15.2 6.3-3.8 11.3-3.4 16.6 1.7 4 3.8 6.8 3.8 6.8.1 0-1.2.8-2.7 1.7-3.4 1.5-1.1 1.5-1.5.4-2.9-.7-.9-2-1.6-2.8-1.6-1.1 0-1.4-.7-1-2.2.7-2.6-.8-4.8-3.4-4.8-3.4 0-10.6-12.1-12.9-21.8-1-4.5-1-5.6.4-7.7.9-1.3 1.6-3.3 1.6-4.3 0-2.7 4.7-8.3 11.6-13.9l5.9-4.8h9c8.2 0 9.4.2 13.2 2.8 2.4 1.6 4.3 3.2 4.3 3.7 0 1.2 8.5 7 10.2 7 .7-.1 2.6-1.2 4.3-2.5 2.7-2.2 2.9-2.7 1.7-4.6-1.2-1.9-1.1-2.5 1.5-5.1 7.8-8.3 21.8-7.6 31.6 1.7 2.8 2.7 6.7 9.5 6.7 11.8 0 .7 1.1 2.4 2.4 3.6 2.2 2 2.9 2.2 5.5 1.3 3.1-1.1 3.1-1 5.6 4.2 1.5 3.2 3.5 5.7 5 6.4 2.5 1.2 3.5 5.4 1.6 6.6-1.3.9-6.1-3.3-6.1-5.3 0-1-.8-2.5-1.8-3.4-1.7-1.6-2.1-1.5-5.4 1.6-3.1 2.8-3.6 3.9-3.7 8.2-.5 13.2-.3 16.7 1.2 18.3 2 1.9 3.7.7 6.8-4.8 1.2-2.1 4.1-5 6.5-6.5 2.5-1.6 4.7-3.8 4.9-4.9 2-8.7 2.5-11.5 2.5-14.2 0-2.4.4-3.1 1.7-3 1.3.1 2.1-1.1 2.9-4.4 1.2-4.5 1.8-4.2 2.7 1.5.4 2.3-.1 3.6-2 5.6-1.9 2.1-2.6 4-3 9-.5 7-2.6 17-4.7 22.1-.7 1.8-1.6 6.3-2 10-.5 5.6-3.7 15.8-4.8 15.8-.2 0-.2-3 0-6.8.4-9.6-.8-15.6-3.4-16-2.6-.4-4.7 2.1-6.9 8.3-1 2.7-2.5 5.9-3.2 7-.7 1.1-1.3 2.9-1.3 4.1 0 2.5-3 8.8-3.8 7.9-.3-.3-.7-8.1-.7-17.3-.2-14.6.1-17.9 2.2-26.2 1.3-5.2 3.2-10.7 4.3-12.2 2.4-3.2 2.5-3.8.6-3.8-2.1 0-6.4 5.9-8 11.1-1.6 4.7-3.1 15.2-2.7 18.2.1 1.1-.3 4.1-.9 6.8-.9 3.5-1.7 4.9-2.9 4.9-1.9 0-6.2 4.1-8 7.7-.6 1.2-1.1 5.5-1.2 9.5 0 4-.6 11-1.2 15.5-1.1 7.6-1.4 8.3-4.7 10.7-1.9 1.4-5 3.3-6.8 4.1-3 1.4-3.6 1.4-6.7-.1-2-.9-3.7-2.6-3.9-3.8-1.5-7.4-1.7-7.8-5.2-9.2-7.6-3.2-11.4-.3-11.4 8.8 0 4.1-.5 5.3-3.8 8.8l-3.9 4h-8.7c-10.3 0-15.9-2.2-17.2-6.7-1.5-5.3-1.2-15.6.6-19.8 2.2-5.2 3.5-6.2 9.5-7.2 4.1-.7 5.1-1.2 5.3-3.1.8-5.4-4.8-6.8-12.1-3.1-4.2 2.2-4.9 2.9-9.9 10.1-3.4 5-4.8 14-2.5 16.6.9.9 1.8 2.9 2.2 4.4.6 2.3.2 2.9-2.6 4.3-3.6 1.9-9.2 2.4-12.7 1.2l-2.2-.8v36.9l41.3-.3c63.3-.5 122-1.5 179.7-3 10.2-.3 46-.8 79.5-1.1 60.8-.5 78-.7 124.6-1.9 19.6-.5 59.5-1.3 72.7-1.5h2.2V486l-2.3.5c-2.7.7-5.3-1.8-5.9-5.5-.5-3.6-5.4-4.1-6.7-.7-1.1 2.9-4.2 3.9-8.2 2.5-1.6-.5-3.6-.7-4.5-.4-3.5 1.3-10.4-6.4-11.7-13.3-1-4.7 2.2-11.6 5.7-12.5 3.3-.8 3.2-1.5-.5-4.4-2-1.7-3.3-2.1-4.2-1.4-.7.5-3.9 1.2-7.2 1.6l-6 .6-4.6-4.7c-5.7-5.8-6.8-7.9-7.9-14.6-1.3-7.9.5-14.4 5-19 3.1-3 4.5-3.7 7.7-3.7 2.1 0 4.7.6 5.8 1.3 3.8 2.6 6.6 2.7 8.9.3 1.6-1.8 2.9-2.2 5.3-1.9 2.5.4 3.2.1 3.8-1.6.4-1.2.1-2.8-.5-3.6-.6-.8-.9-2.2-.6-3.2.8-2.3 8.6-9.3 15.1-13.5 6.3-4.2 11.8-13.9 11.3-20.2-.1-2.4.2-4.1 1-4.4 2-.6 1.3-3.1-1.1-3.7-2.6-.7-7.7.9-7.7 2.4 0 .5.5 1.3 1.1 1.7 2 1.2.3 11.2-2.8 16.3-3.6 5.8-8.1 8.1-16.5 8.4-9.2.2-17.6-4.3-20.5-11.1-.8-1.9-2-3.2-3.1-3.2-1 0-2.2-1.2-2.9-3-1.4-3.8-3.9-4.7-7.1-2.7-3.5 2.1-3.7 3.1-1.1 5.6 3.1 2.9 3.1 6.9-.1 11.1-1.4 1.9-3.2 5.3-3.8 7.6-.6 2.2-2.3 5.1-3.7 6.4-2.4 2.3-2.5 2.3-4.5.5-1.7-1.6-2.4-1.7-3.8-.7-.9.7-2.7 1.7-4 2.2-1.6.7-2.2 1.7-2 3.2.4 3.1-2 3.4-7.3 1-6.6-3-7.7-3.2-8.8-1.8-.8.9-.7 2.2.5 4.5.8 1.7 1.4 3.9 1.2 4.8-.6 3.2-2.6 2.3-4.8-2.2-4.7-9.7-12.4-13.2-25.1-11.5-4.4.6-8.6 1.3-9.3 1.6-.9.4-1.6-.7-2-3.1-.8-3.9-5-13-7.4-15.8-.8-.9-2.3-1.7-3.3-1.7-2.1 0-6 6.4-7.9 13-.7 2.5-1.4 5.1-1.6 5.9-.3 1-1.4.5-3.9-1.9-3-2.9-3.5-4.1-3.5-7.9 0-4.3-1.2-18.4-2.9-33.4-.6-5.8-.5-7 1.1-8.4 1.1-1 1.6-2.4 1.2-3.5-.7-2.4 3.4-10.6 5.9-11.4 1-.3 2.4-.1 3 .5 1.8 1.8 7.2 1.3 10.1-1 4.5-3.5 4.9-5.4 2.1-8.7-4.5-5.4-2.7-13.9 3.7-17.3 1.6-.9 2.3-.7 3.5 1 1.9 2.8 3.7 2.6 6.7-.4 1.4-1.4 3.5-2.5 4.8-2.5 2.4 0 8.2 5.7 11.9 11.6 3.8 6.2 7.6 4.1 8-4.4.3-4.7 0-5.6-2.3-7.5-1.4-1.2-3.1-3.2-3.8-4.5-.6-1.2-1.5-2-2-1.7-1.4.9-1.8-.8-.9-3.3.7-1.7 1.4-2.2 2.8-1.7 2.6.8 4.3-2.3 3.5-6.4-.6-2.8-.4-3.1 2-3.1 1.7 0 2.9-.7 3.2-1.8.3-.9.9-2.4 1.4-3.2.5-.8 1.8-3.3 2.8-5.6 2.1-4.3 8.7-9.2 15.4-11.4 4.5-1.4 8.3-.4 16.8 4.3 7.9 4.3 9.9 6.4 13.2 13.7 3 6.6 3.6 9.9 2.3 13.7-.6 1.8-.1 2.3 2.9 3.4s3.6 1.8 3.6 4.1c0 3.2 2.8 3.9 5 1.3.7-.8 2.1-1.5 3.2-1.5 3.2 0 5.8-1.9 5.8-4.4 0-2.4 2.2-4.8 5.3-5.9 1.9-.7 2.4-6.1.7-7.2-.8-.5-.7-1.1.1-2.1.6-.7 1.5-1.1 2-.8.5.3 1.7-.8 2.7-2.5.9-1.7 2.3-3.3 3-3.6 2-.7 11.1 3.5 12.3 5.7 1.2 2.1 4.7 3.8 6.7 3.1.9-.4 1.2-29.7 1.2-141.9V0H334.5C169.2 0 168.9 0 170 2c.6 1.1 1.7 2 2.5 2 .9 0 1.4.8 1.2 2.2-.1 1.4.6 2.6 2 3.3 1.6.8 1.9 1.5 1.2 2.2-1.6 1.6-.1 3.5 2.3 2.7 1.6-.5 1.9-.2 1.6 1.8-.2 1.9.1 2.3 2 2.1 1.7-.2 2.2.2 2.2 2.2s.5 2.5 2.7 2.5c1.4 0 2.3.3 2 .7-.9.8 1.3 3.4 2.3 2.8.5-.3 2.3.8 4.2 2.5 3.3 3 3.3 3.2 3.3 11.8 0 8.8-.9 12.6-6.2 26.1-2.5 6.3-2.5 6.5-.6 8 4.3 3.6 5.5 6.9 4.8 13.5-.7 5.8-.5 6.5 2.4 10.8 1.7 2.5 3.1 5.2 3.1 6 0 2.3 3 5.9 4.7 5.6 1.1-.2 2.2 1.2 3.4 4.7 1.1 3.1 3.3 6.4 5.9 8.8 3.6 3.4 4.6 3.8 7.3 3.3 1.7-.3 4.1-1.5 5.2-2.6 1.2-1.1 2.4-2 2.8-2 1.1 0 2.7 7.4 2.7 13 0 4.9-.3 5.6-2.5 6.7-2.1.9-2.7.8-3.5-.5-.8-1.3-.9-.6-.5 2.5.4 2.4.4 4.3 0 4.3-1.3 0-8.2-3.9-9.4-5.4-.7-.8-1-2.4-.6-3.6.8-2.7-2.5-7.9-10.7-16.7-3.3-3.5-6.7-8.1-7.5-10.1-1.6-3.5-1.7-3.6-2.2-1.3l-.7 2.5-2.1-3c-1.4-1.8-2.2-2.3-2.3-1.4 0 3.6 2.3 8.9 6 13.7 4.6 6.1 3 7.4-2.1 1.8-4.2-4.5-5.7-4.5-2.9.1 1.2 1.9 1.9 3.8 1.5 4.2-.3.4-1.1-.1-1.6-1.1-.6-.9-1.5-1.7-2.1-1.7-.7 0 .1 1.3 1.6 2.9 3.7 3.8 1.6 4.6-4.5 1.5-6.1-3-9.9-7.6-9.9-11.9 0-3.7 2.4-6.6 3.4-4 .7 2 5 1.9 6.7-.1 1.1-1.3.9-2.9-1.4-9.7-3.2-9.6-3.2-9.2-.8-14.3 2.2-4.8 3.4-11.4 2-11.4-.6 0-1.6 1.5-2.2 3.2-3.9 10.7-19.5 38.3-22.9 40.4-2.7 1.7-1.6-1.2 2.4-6.3 5.4-7 13.6-21.3 17.9-31.4 2.9-6.8 3.1-7.8 2-11.7-.6-2.3-1.1-5.3-1.1-6.7 0-3.6-1.5-3.1-3.3 1.2-.9 2.1-1.4 2.7-1.1 1.3.4-1.4 1.9-5.5 3.6-9.3 1.6-3.7 2.7-7.1 2.4-7.6-.3-.5.2-1.5 1.1-2.2 1.5-1.3 1.6-1.1.8 1.1-.4 1.4-.8 5.6-.9 9.5-.1 5.6.2 7 1.4 7 1.9 0 7.5-16.5 8.4-24.8.8-6.8-.7-10.7-4.6-12.1-3.4-1.2-4.6-.2-3 2.4 1.9 3.1 1.4 4.6-.8 2.2-1.2-1.2-2.7-2.2-3.4-2.2-2.2 0-12.6 8.6-17.7 14.6C159.7 58.3 143 87 143 91.3c0 .7-.4 1.7-.9 2.2-1.8 2-8.1 22.7-8.7 28.9-.6 5.8-.5 6.5 1.4 7.5 2.9 1.6 4.7 1.4 9.5-.9l4.2-2-3.4 3.1c-3 2.8-3.7 3-8.2 2.4-3.4-.5-4.9-.3-4.9.5 0 2.3 2 4.8 4.8 5.9 2.4 1 3.6.9 6.7-.3 4.8-2 5.4-1.5 1.8 1.4-2.3 1.8-3.6 2.1-7.2 1.6-2.5-.3-5.5-1.3-6.7-2.1-3.1-2-5.1-1.9-6.3.2-.9 1.6-1 1.6-1.1-.5 0-2.5-2.5-3-3.4-.7-.8 2.2-2.4 1.8-2.8-.7-.4-3-3.4-3.5-4.3-.8-.7 2.2-3 2.2-3 0s-2.3-2.3-3.5-.1c-1.9 3.7-7.9 1.7-8-2.6 0-1.5 4.6-4 11.1-5.9 2.7-.8 4.9-1.8 4.9-2.3 0-1.7-3.9-4.2-7.3-4.8-2.9-.4-3.4-.9-2.9-2.6.4-1.7.1-1.9-1.6-1.5-2.6.7-3.8-.7-2.3-2.6.9-1.1.8-1.8-.4-3-.9-.9-2.1-1.4-2.6-1.1-1.7 1.1-3.1-.6-1.8-2.1 1.9-2.3-.4-6.4-3.6-6.4-2.8 0-3-.3-1.3-2.9 1.8-2.9-.5-7.5-3.2-6.6-2.5.8-2.7-1-.3-2.4 1.4-.8 1.6-1.4.7-3.8-.6-1.7-1.7-2.8-2.8-2.8-2.8 0-3.1-2.2-.6-3.5 2.8-1.5 2.5-7.5-.4-7.5-3 0-3.1-2.4-.1-3.5 2.3-.9 2.6-1.5 2.3-4.7-.2-2.1-.8-3.8-1.5-3.8-2.4 0-2.6-1.6-.3-4 2-2.1 2.1-2.7.9-4.1-1.1-1.4-1-1.8 1.1-3.4 2.7-2 2.2-3.2-1.2-3.5-2.6-.2-4.7-3-3.3-4.4.7-.7 2.2-.4 4.3.6 4.1 2 6.6.5 3.9-2.5-2.2-2.4-.4-4.6 2.5-3.1 1.9 1 2 .9 2.2-3.1.1-1.9.7-2.5 2.3-2.5 2.7 0 3.8-1.1 3.8-3.8 0-1.7.6-2.1 3.5-2.1 2.9-.1 3.5-.5 3.5-2.3.1-3 1-3.7 3.3-2.4 2.2 1.2 6.2-1 6.2-3.5 0-1.2.8-1.3 3.5-.8 3.1.5 3.6.3 4.5-2 1.1-3 2.2-3.3 4.1-1 1.5 1.8 5.7 1.1 7.5-1.4 1-1.4 1.4-1.4 2.8-.3 1 .9 3 1.2 5.6.8 2.5-.3 4.5 0 5.7.9 2.4 1.8 7.2 1.8 7.9-.1.9-2.3 2.1-1.8 3.6 1.2.7 1.6 2.3 2.9 3.6 3.1 2 .3 2.2 0 2.2-5.2 0-4.6-.4-5.7-2.1-6.7-1.4-.7-1.9-1.7-1.6-3C165.8 0 164.1 0 82.9 0H0v122.9zM298.5 4.6c4.2 1.1 8.1 2.8 9.7 4.2 2.3 2.1 3 2.3 4.3 1.2 1.3-1 1.5-.9 1.5.8 0 1.1.7 2.8 1.6 3.7.9.9 1.7 2.9 1.9 4.6.1 2.1 1.4 4 4.4 6.5 4.6 4 6.7 7.4 8.5 14.3 1.3 4.7 1.4 10.6.3 11.8-.4.3-.7 1.7-.7 3 0 2.7 2 3 5.3.8 1.8-1.1 3.5-1.3 7.7-.6 9.2 1.5 13.6 9 11 18.9-1.7 6.3-3 8.2-7.7 11.5-3.5 2.4-4.4 2.6-6.6 1.6-2.2-1-3.1-.8-6.4 1.1-2.1 1.3-6.1 4.4-8.8 6.9-2.8 2.5-8.4 6.8-12.4 9.6-4 2.7-10.5 7.6-14.6 10.7-4 3.2-7.6 5.8-8 5.8-.9 0 0-4.2 5.3-22.8l4.6-16.3-2.1-2c-1.7-1.7-2.5-1.9-4.1-1-2.7 1.5-12.1 16-22 34.1-5.3 9.7-10.6 18.5-11.4 18.8-.4.2-2.3 2.5-4 5-2.3 3.4-3.4 4.2-3.6 3-.2-.9.3-2.7 1.1-4 2.2-3.5 4-15.3 3.3-21.3-.4-3.8-.1-6.4 1-9.1 1.1-2.6 1.5-5.6 1.2-9.2-.5-5.6-1.8-7.4-5.3-7-2.8.4-3.1 3.4-.4 4.1 2 .5 2.1 1 1.4 5.4-.3 2.6-1.7 6.8-3.1 9.2-1.3 2.4-2.4 4.9-2.4 5.6 0 .7-1.2 2.9-2.6 5-1.4 2.1-3 6.2-3.6 9.1-.6 3-1.5 5.4-1.9 5.4-1.5 0-1-7.8.7-13.1.9-2.7 1.4-5.2 1.1-5.5-.3-.3-1.2 2-2.1 5-.9 3.1-2.1 5.6-2.6 5.6-1.5 0-5-5.1-5-7.4-.1-3.2-4.2-12.5-8.3-18.7-5.5-8.4-4.9-17.2.9-11.8 1.4 1.3 2.4 3.4 2.4 5 0 1.4.7 3.2 1.5 3.9.8.7 2 3.1 2.6 5.4.6 2.2 1.6 5.3 2.1 6.8 1.7 4.6 5.6 4.7 7.7.2.9-2 1.6-2.3 3.6-1.8 2.1.5 2.5.3 2.5-1.8 0-1.3.9-4.1 2-6.3 1.9-3.8 1.8-6.7-.1-3.2-1.4 2.4-2.9 2.1-2.9-.6 0-4.4-1.2-6.7-3.9-7.3-6.2-1.5-11.6-9.4-10.6-15.4.6-3.6.5-3.8-3.9-6.4-2.9-1.7-4.6-3.4-4.6-4.6 0-1-2-3.6-4.5-5.7-5.7-4.7-8.5-10.5-9.5-19.4-2-18.2 3.6-28.4 17.4-32 9-2.3 60.9-1.8 71.1.7zM481.6 27c.6 39.9 1.4 64.2 2.3 71.2.9 6.6.4 18.8-.8 18.8-.3 0-6-5-12.6-11.1-6.6-6-15.8-13.6-20.5-16.8-4.7-3.2-12.4-9.8-17.1-14.7-16-16.5-27.8-26.4-31.4-26.4-4.8 0-5 2.2-1.7 13.3 1.7 5.6 3.9 13.3 4.7 17.2.9 3.8 2.4 9.9 3.5 13.5 1 3.6 2.4 9.2 3.1 12.5.7 3.3 2.2 9.2 3.5 13.1 4 12.6 6.7 24.5 5.8 25.4-.9.8-13.2-4.8-16.4-7.4-.8-.7-4.3-3-7.7-5-3.5-2.1-6.3-4.1-6.3-4.6 0-.4-1.8-1.5-3.9-2.3-2.2-.9-4.2-2.1-4.5-2.6-.4-.5-3.2-1.9-6.4-3.1-3.1-1.2-6.4-2.8-7.3-3.6-2.5-2.3-26.9-14.4-28.9-14.4-3.1 0-3.2 1.7-.5 6.4 2.4 4.1 2.5 4.7 1.2 7.8-2.5 5.8-5.7 7.9-12.5 8.1-10 .3-10.1-1.2-.9-9.6 4.2-4 7.7-7.5 7.7-8 0-2.1-3.4 0-10.1 6.3-4 3.8-10.3 9-13.9 11.5-15.1 10.4-15 10.7 4.3 12.4 8 .7 15 1.1 15.5.7 1.6-1 4.2.5 4.2 2.4 0 2.2-.6 2.4-10 3.9-4.1.7-9.7 1.9-12.5 2.7-8.1 2.5-25.8 5.2-27.7 4.2-1.2-.6-2-.3-2.8 1.1-1.5 2.9-1.2 5.6 1.1 10 2.7 5.3 2.2 7.9-1.9 9.7-3.2 1.3-3.3 1.3-2.6-.9.3-1.2 1.3-3 2.2-4 1.4-1.5 1.4-1.7-.1-1.7-.9 0-1.9.4-2.2 1-.3.5-1.2 1-2 1-1.5 0-1-7 .7-10.3 1.5-2.9.1-3.3-3.2-.8-1.7 1.2-3 1.8-3 1.3 0-1.7 8.1-11.1 10-11.7 2.2-.7 2.7-2.5.8-2.5-2 0-9.8 5-9.8 6.4 0 .7-1.8 3.4-4 5.9-2.2 2.5-4 5-4 5.7 0 .6-.4.9-.9.5-.6-.3-.9-2.4-.8-4.6.1-3.4-.3-4.5-2.7-6.4l-2.8-2.2 2.1-4c1.1-2.2 3.5-6 5.3-8.4 1.9-2.4 4.9-7.1 6.8-10.4 1.8-3.3 6-9.9 9.2-14.7 3.2-4.8 5.8-9.3 5.8-10.1 0-.7.7-2.2 1.5-3.3.8-1 1.5-2.5 1.5-3.2 0-2 4.4-8.2 5.8-8.2 1.7 0 1.5 1-1.2 7.1-1.3 3-2.6 7.6-3 10.3-.4 2.6-1.8 8.2-3.2 12.4-3 9.5-3 11-.1 12.3 2.1 1 3.3.4 10.6-5.3 4.5-3.4 10.4-7.9 13-9.8 2.7-1.9 7.3-5.4 10.2-7.7 3-2.3 8-6.3 11.2-8.8 3.1-2.5 6.2-4.5 6.8-4.5.6 0 3.3 1.1 6.1 2.5 2.7 1.4 5.5 2.5 6.1 2.5.7 0 4 1.5 7.4 3.3 3.4 1.7 12.8 6.5 21 10.6 8.1 4.1 16.5 8.5 18.5 9.8 4.4 2.7 6.1 2.9 7.8.8 1-1.2.6-3.4-1.8-11.2-4.8-15.9-10.9-37.2-13.1-45.8-1.1-4.4-3.4-13-5.1-19-4.3-15.7-4.5-16.5-3-16.5 2.7 0 12.3 5.3 20.8 11.4 4.8 3.5 10.2 7.1 12 8 1.8.9 5 3.2 7 5 2 1.8 5.7 4.6 8.2 6.1 2.5 1.5 7.4 5.3 10.9 8.4 3.5 3.1 8.1 6.7 10.2 8.1 2 1.4 5.7 4.1 8.1 6.1 4.9 4.1 9 5.5 10.6 3.6 2.1-2.5 2.5-14.1.9-21.8-.8-4.1-1.5-12.1-1.5-17.9 0-5.8-.5-14.3-1.1-19-.6-4.6-1.1-11.5-1.1-15.3V2.9l7.1.3 7.1.3.4 23.5zM190.1 44.1c-.9 2.2-1 2.2-1 .3-.1-1.1.2-2.4.6-2.7 1.2-1.2 1.4 0 .4 2.4zm-11.6 32.5c-.8 2-1.5 3.9-1.5 4.2 0 .3-.2.3-.5 0-.6-.5 2.2-7.8 3-7.8.3 0-.2 1.6-1 3.6zm-5.9 15c-2 4.1-3.6 7.9-3.6 8.3 0 .4-.9 1.6-2 2.6s-2 2.3-2 2.8c0 1.1-4.6 7.6-10.1 14.2-2.1 2.4-3.9 5-4.2 5.7-.2.7-.8 1-1.2.6-.4-.4.6-2.4 2.2-4.5 7.3-9.5 13.2-18.7 18.3-28.5 6.2-12.1 8-12.9 2.6-1.2zm46.9-5.6c0 2.2-2.9 1.8-3.3-.3-.3-1.4.1-1.8 1.5-1.5 1 .2 1.8 1 1.8 1.8zm5.5 15.9c1.7 3.3 1.2 4.6-1 2.6-2.1-1.9-2.7-4.5-1-4.5.5 0 1.4.9 2 1.9zm26.3 22.8c-1.3 7.2-3.6 11-5.3 8.3-1.7-2.7-1-8.1 1.6-12.6 3.7-6.3 5.2-4.6 3.7 4.3zm-94.2 2.5c2.1-1.4 4.6-.5 6.9 2.3 1 1.2 2.3 1.5 5 1 3.4-.6 4-.3 6.1 2.5 6.6 8.8 11.1 10.5 18.8 7.5 2.5-1 7.2-2.2 10.4-2.8 5.6-1 6-.9 8.3 1.6 1.3 1.5 2 2.9 1.4 3.2-.6.3-1 3.3-1 6.5 0 5.5.2 6 3.7 8.9 2.1 1.7 5.5 3.7 7.8 4.4 3.4 1.2 4 1.8 4 4.2 0 2.6-.6 3.1-5.7 5.2-6.5 2.6-9.3 2.1-14-2.4l-2.8-2.7-2.3 2.2c-2.6 2.4-8.7 3.1-8.7.9 0-.6.9-2.7 2-4.5 1.1-1.8 2-3.9 2-4.7 0-1.7-3.1-3.5-6.1-3.5h-2.3l2.4-2.2 2.3-2.2-2.8-.8c-1.6-.4-3.9-.5-5.2-.2-1.7.5-2.3.2-2.3-1 0-1.1-.9-1.6-3.1-1.6-1.8 0-2.8.4-2.4 1 .4.6.3 1.9-.1 2.8-.4.9-.7 2.6-.8 3.7-.2 4.2-11.9 7.2-16 4.2-2.9-2.1-1.5-4.1 3-4.1 4.9-.1 5.3-2.6.6-4-2-.5-5.4-3.2-8.7-6.7-4.7-5.2-5.4-6.5-6-11.4-.9-6.8-.2-9.3 2.1-7.4 1.2 1 2 1 3.5.1zm303.2 6.1c2.9 2.2 3.7 7.3 1.5 9.5-.9.9-.9 1.5 0 2.4 1.9 1.9 1.4 2.8-1.6 2.8-2.1 0-4-1.2-7.3-4.8-2.5-2.6-5.5-5.5-6.8-6.5-2.8-2.2-1.5-4.3 3.3-5.5 4-1.1 7.4-.4 10.9 2.1zm-363.6 3.3c.9 2.3-1.1 3.8-2.6 2-1.3-1.6-.7-3.6 1-3.6.5 0 1.2.7 1.6 1.6zm150.7 7.8c1.4 2.7 2.6 6.4 2.6 8.1 0 2.7-.4 3.4-2.5 3.7-1.9.4-2.5.1-2.5-1.3 0-2.9-2.1-6.8-4.7-8.4-2.9-2-2.9-3 .3-6.2 2.9-2.9 3.2-2.7 6.8 4.1zm111.8-.2c.3 1.7.2 4.6-.2 6.5-.6 2.3-.4 3.6.6 4.4.8.6 1.4 1.6 1.4 2.1 0 1.9-6.8 7.8-8.9 7.8-1.2 0-2.1.5-2.1 1.1 0 .5-.5.7-1.1.3-.8-.4-.7 0 .1 1.5.8 1.5 1.7 2 3 1.6 1.3-.4 2.6.4 4.5 2.9 1.5 1.9 3.6 3.6 4.8 3.8 3.8.6 9.1-1.3 13-4.8 2.1-2 4.8-3.4 6.2-3.4 2.9 0 3.2.8.8 2.6-1.6 1.2-1.5 1.3 1.3 1.4 1.7 0 3.7-.7 4.4-1.5 1.5-1.8 9.1-1.7 9.7 0 .2.6-1.5 2.2-3.7 3.5-4.4 2.8-4.7 3.5-2.2 4.9 3.1 1.9-.6 3-8.3 2.4l-7.2-.6-3.7 3.8c-5 5-4.5 7 1.9 7.1 2.7 0 5 .5 5.2 1.1.2.5-1.5 1.8-3.7 2.8-6.1 2.7-6.7 4.1-2.9 6 2.9 1.6 3 1.8 1.5 3.3-1.4 1.4-2.2 1.5-6.3.4-3.1-.9-5-.9-5.6-.3-1.3 1.3.9 4.1 3.3 4.1 2.8 0 5 1.1 5 2.5 0 1.7-2.3 2.5-7.2 2.5-3.1 0-4.6-.7-6.9-3-3-2.9-3.1-5-.4-5 .8 0 1.1-.7.8-1.9-.3-1.4.2-2.1 1.8-2.6 2.1-.7 1.9-.9-2.1-2.4-2.4-.9-4.5-2.2-4.8-3-.4-1.1 0-1.2 1.4-.6 1.1.4 3.5 1 5.4 1.3l3.5.5-2.5-2.1-2.5-2 3.2-1.9c4.6-2.5 4.1-3.5-.8-1.8-2.3.8-4.6 1.2-5.1.8-1.2-.7 5.7-4.3 8.1-4.3.9 0 2.2-.9 2.9-2 1-1.6 1-2-.1-2-.7 0-1.8.5-2.4 1.1-.5.5-2.2.7-3.7.3-2.6-.6-2.7-.7-.9-2.8 1.8-2.1 1.7-2.1-.7.1-1.4 1.2-3.8 2.5-5.4 2.9l-2.8.7 1.7-2.7c2-3 1.5-3.3-2.1-1-3.7 2.5-4.2.8-.8-2.7 2.2-2.4 2.4-2.9.8-2.1-1.1.6-2.6 1.8-3.4 2.6-.7.9-1.9 1.6-2.7 1.6-1.1 0-1-.8.7-3.5 1.2-1.9 1.7-3.5 1.1-3.5-.6 0-1.7 1.3-2.6 3-.9 1.6-2 3-2.6 3-.6 0 .2-2.1 1.7-4.8 1.5-2.6 3.5-6.4 4.5-8.4 2-3.9 3.5-5.2 5.8-5.3.8 0 1.6-.5 1.8-1.2.3-.8-.5-1.1-2.2-.9-1.8.2-3.4 1.4-4.8 3.7-1.2 1.9-2.7 4-3.4 4.7-.7.7-1.3 1.7-1.3 2.1 0 .5-2.3 3.7-5.1 7.2s-5.5 7.4-6 8.6c-.5 1.3-1.3 2.3-1.9 2.3-2.1 0-.9-3.7 2.8-8.5 2.9-3.8 3.6-5.5 2.9-6.6-.7-1.1-.2-2.7 1.8-5.9 2.3-3.7 2.9-4.1 3.7-2.6 1.2 2.2 2.6 1.2 4.4-3.5 1.1-2.7 2.9-4.6 5.6-6.1 4.1-2.3 6.8-6.2 6.8-9.6 0-4.2 2.6-4.3 3.2 0zm-45 9.3c4.4 4.1 5 7.6 3.9 25-.8 13.3-.8 16.1.5 18 1.8 2.7 6.1 4.9 9.2 4.6 2.2-.2 3 1.3 1.2 2.4-.5.3-1 1.6-1 2.7 0 2.4-2.6 4.7-5.3 4.8-2.5 0-8.4-4.6-9-7-.7-2.6.1-2.5 2.2.2 1.3 1.5 2.3 1.9 3.7 1.4 1.8-.7 1.8-.8.1-1.8-4.2-2.3-7.4-16.5-4.8-20.8 1.3-2 .2-3.4-1.5-1.9-1.2 1-1.4.3-1.4-4 0-3.2-.4-5-1-4.6-1.5.9-1.2-1.3.7-6.4 1.6-4.1 1.6-4.7 0-9.1-2.5-7.1-2-7.7 2.5-3.5zm-41.2 7.6c-1.2 4.1-1.7 4.5-2.5 2-.7-2.3 1.1-6.5 2.5-5.6.5.3.5 1.9 0 3.6zm31.6 0c1.4 1.6 1.9 3.6 1.9 8 0 3.8.4 6 1.2 6.4 1 .3 1 1 .1 3-1.2 2.7-2.7 3.2-4.6 1.3-1-1-1.4-.8-1.8 1-.7 2.6-2.4 3-2.4.4 0-.9.7-3.9 1.5-6.6 2.3-7.4 2.1-8.8-1.2-8-4.1 1-4.4 1.4-3 3.4 1.1 1.5 1.1 3.2.4 7.4-.7 4-.7 6.7.3 10.1 1.4 5 3.7 6.9 7.3 6 2.3-.6 2.5-.4 3.1 5.7.8 6.9 4 14.8 6.1 14.8 1.8 0 2.5 2.3 2.5 7.9 0 2.7.8 6.3 1.9 8.5 1.6 3.1 1.8 4.2.8 5.7-.9 1.5-.8 2.4.4 4.6 2 3.3 2.8 24.1 3 68.8.1 15.9.5 33.9 1.1 40 .5 6 1.1 13.5 1.3 16.5.1 3 .6 9.7 1 14.7.8 9.6.5 10.4-2.9 7.8-1.1-.8-3-1.5-4.2-1.5-3.5 0-5.5-2.6-4.4-5.6 1.3-3.3 0-8-4.3-15.9-4.7-8.8-7.3-8.5-13.9 1.8-2.4 3.8-3.2 6-3 9.1.1 2.3-.3 5.1-1 6.3-1.4 2.7.6 5.4 5.3 7.4 4.1 1.6 1.8 3-3.6 2.2-5.3-.7-8.8-4.2-11-10.7-1.6-4.7-1.7-5.9-.5-10 1.6-5.9 4.1-9.1 9.1-11.6 2.1-1.1 4.6-3.4 5.5-5.2l1.6-3.2 1.4 3.2c1.3 3.3 3.8 4.2 4.7 1.9.9-2.5-3.2-15.1-5.5-17.1-2.1-1.7-2.3-2.7-2.4-12.5-.1-34.6-.7-62-1.5-71.6-.4-6.1-1.1-15.5-1.3-21-.3-5.5-.9-15.9-1.3-23-.4-7.2-.7-16.6-.8-21 0-4.4-.4-12.1-.9-17l-.8-9 5.9-2.7c7.1-3.3 6.6-3.3 8.9-.7zm137.4-.2c2.7.7 7.9 9.7 8 13.8 0 2.6-2.1 2.9-8 1.3-2.8-.8-3.9-1.8-4.8-4.3-1.5-4.1-3.9-6.4-7.1-6.9-1.4-.1-2.6-.8-2.8-1.3-.8-2.5 8.6-4.2 14.7-2.6zm-248.6 2c.3.4-1 2.6-2.9 4.8l-3.4 4 2 1.9c1.6 1.4 3.9 1.9 9.3 2.1 3.9.1 8.4.7 9.9 1.2 1.6.6 4.1 1.1 5.7 1.1 3.2 0 13.3-3.5 17-6 2-1.3 3.1-1.4 5.3-.6 2.3.8 3.6.5 8-1.7 2.8-1.5 6-3.2 6.9-3.9 1.5-1.1 2.4-.6 6.3 3.2 2.5 2.4 4.5 4.8 4.5 5.2 0 2-3.1.4-6.4-3.2-2-2.3-4.1-3.8-4.6-3.5-1.5 1-1.2 5.1.6 6.5.8.8 2.1 2.9 2.9 4.7 1.7 4 6.7 6.4 13.5 6.7 5.7.1 9.3-2.3 12.9-8.9 1.5-2.7 3.2-5 3.9-5.3 1.4-.4 1.6 3.4.2 4.3-1.4.9-1.2 3.2.6 7.1 1.1 2.3 1.4 4.7 1 7.2-.3 2-.2 10.4.4 18.7 2.9 45.9 4 70.1 4.4 97.2l.3 30.3-2.6-.6c-5-1.1-5.1-1.2-5.1-6.3 0-4.5-.3-5.1-2.7-6.3-2-.9-2.9-2.2-3.1-4.3-.2-1.7-.8-3.4-1.3-4-1.8-1.8-.9-4.1 2-5.2 3.6-1.3 4.1-.9 4.1 3.1l.1 3.1 2-2.4c1.3-1.6 1.9-3.6 1.7-5.5-.3-2.8-.6-3.1-3.5-3-3.8.2-3.8.1-1.7-5.7 2.2-6.1 1.2-11.8-2.8-17.2-4.7-6.3-7.2-10.9-6.9-12.9.3-2-1.6-5.8-2.9-5.8-.5 0-1.1.9-1.5 1.9-.3 1.1-1.3 2.2-2.1 2.5-1.3.5-1.4.2-.8-1.1.4-1 .9-5.3.9-9.6.2-5.7-.1-7.7-1.1-7.7-2.1 0-2.3 1.3-1.2 6.3.8 4.2.7 5.3-1.6 10.1-1.4 3-2.6 5.8-2.6 6.1 0 .3 1.4 3.3 3 6.7 1.7 3.3 3 6.2 3 6.4 0 .2-1.1.4-2.4.4-3.4 0-5.6 3.5-5.6 8.7 0 2.9-.4 4.3-1.3 4.3-2.9 0-4.8 2.6-5.2 7.3-.3 4.1-.1 4.8 1.3 4.5 1.1-.2 1.9-1.6 2.2-3.7.4-3 2.9-5.7 3.1-3.4 0 .4.2 2.5.4 4.6.4 3.3.1 3.9-2 4.7-1.4.5-3.2.7-4 .4-2-.8-1.9.5.5 7.7 1.2 3.4 2.1 8.7 2.2 11.8 0 3.1.2 11.2.3 18.1l.3 12.5 4.2.3c5.1.4 7.4-1.2 5.9-3.9-1.2-2.4-.8-13.4.6-13.4.6 0 1.1 1.2 1.3 2.7.2 1.9 1.6 3.7 4.2 5.5 2.2 1.6 4 3.3 4 4 0 .7-2.2 2.2-4.8 3.3-3.5 1.5-5.3 3-6.3 5.3-.8 1.8-2 3.1-2.7 3-.6-.2-1.9.9-2.9 2.3-1.4 2.2-1.5 3.1-.4 6.2 1.4 4 7.2 13.3 10.4 16.9 1.7 1.9 1.8 2.3.4 2.3-1.9 0-5.5-4.4-6.3-7.7-.7-2.8-1.2-2.8-4.3-.4l-2.4 1.9 3.1 4c1.8 2.2 3.2 4.2 3.2 4.6 0 .3-2 1.5-4.4 2.6-2.5 1.1-4.8 2.5-5.1 3.1-.4.6-.4 4 0 7.5.6 5.9 1 6.7 3.8 8.5 1.8 1 4.8 1.9 6.7 1.8 1.9 0 6.2.5 9.4 1.2 4.7.9 6.4.9 7.9-.1 1.6-1 2.7-.9 5.8.5 4.6 2.1 5.3 3.6 3.2 7.3-1.5 2.5-1.5 3.4-.3 7.7.8 2.7 2.9 6.6 4.7 8.6 1.9 2.1 3 4 2.5 4.3-.5.3.2 3.8 1.5 7.8 2 6 2.4 9.4 2.4 18.8 0 6.3.1 24.1.3 39.5.3 26.4.4 28.4 2.7 35.5 2.3 7.1 2.4 8.8 2.4 33 0 23 .2 25.9 1.8 28.4 1.1 1.6 2.5 2.6 3.5 2.4 1.4-.3 1.7-1.8 1.9-9.6 0-5.2.3-9.6.6-9.8.2-.3 1.3 1.8 2.3 4.6 2.1 5.8 3.6 7.5 6 6.6 1.1-.4 1.4-1.3 1-2.9-3-10.2-3.4-12.6-2.6-16.3 1.4-6.6-.5-31-2.9-35.2-1.4-2.6-4.7-2.6-4.5.1.1.9-.1 1.7-.5 1.7s-1.5-3.3-2.4-7.3c-1.2-5.2-1.8-14.5-2.3-34.2-.4-14.9-.8-31.7-.9-37.5-.2-5.8-.9-12.9-1.6-15.8-.7-2.8-1-5.5-.7-5.8.4-.3 2.3-.1 4.4.5 2.5.7 5.6 3 9.8 7.4 3.4 3.6 7 6.9 8.1 7.5 1.7.9 1.8 1.3.6 3.5-1.1 2.1-1 2.9.3 5.5 2.7 5.3 4.7 18.7 5.1 34.6.2 8.3.8 18.7 1.4 23.1.9 7.2 1.6 15.8 4.1 49 .4 5.5 1.2 11 1.8 12.1.6 1.1.9 3.8.7 5.8-.2 2.1.3 5.6 1.1 7.8.8 2.3 1.4 6 1.4 8.4 0 6.7 1.9 14.2 4.5 17.2 1.2 1.5 2.4 3.6 2.6 4.7.2 1 1.3 2.2 2.4 2.5 4.1 1.1 8.5 4.1 8.5 5.8 0 1 .6 2.7 1.4 3.7.9 1.4 1.3 4.4 1.2 9.4-.2 7.1-.3 7.4-3.2 8.6-1.6.6-5.6 1.5-8.8 1.9-6.6.7-8.9 2-8.1 4.5.4 1.4-.8 1.6-10.8 1.4-6.1-.1-12.1-.2-13.2-.3-1.1 0-4.1.3-6.7.6-2.8.4-4.8.2-4.8-.4 0-.5 2.7-1.2 6.1-1.6 7.2-.7 14.9-3.8 14.9-6 0-2.3-5-4.4-12.4-5.2-3.7-.4-6.9-1.1-7.2-1.5-.7-1.3-11.6-1.1-18.9.3-5 .9-7.9.8-13.9-.2-4.2-.8-7.6-1.8-7.6-2.2 0-.4.7-.8 1.5-.8.9 0 4.3-.9 7.6-2 5.3-1.8 6.6-1.9 11.8-.9 5.8 1.2 5.9 1.2 13.7-2.5 4.3-2 8.2-4.3 8.6-4.9.4-.7 1-3.8 1.4-7 .6-4.8.9-5.7 2.3-5.1 2.8 1.2 5.3.6 7.8-1.8l2.5-2.3 2.6 3.2c1.9 2.2 4 3.4 6.7 3.9 2.2.4 4.9 1.3 6 2 2.7 1.9 6.2 1.7 7-.3.9-2.4-2.4-4.9-7.5-5.8-2.7-.5-4.6-1.5-5.7-3.1-.9-1.4-2.5-3-3.7-3.6-2.4-1.3-9.8-2.9-13.9-3-3.2-.1-7.3-4.7-7.9-8.8-.4-3.1-4.7-3.9-8-1.6-1.2.9-3.2 1.6-4.5 1.6-2.5 0-5.3 3.4-5.3 6.4 0 1.1-1.2 3.3-2.7 4.8-1.7 1.8-2.9 4.3-3.2 7-.5 3.4-1 4.4-2.8 4.6-3.8.6-12-3.7-14.2-7.3-1.1-2-2.9-3.5-4.3-3.7-2.5-.3-2.5-.8-1.2-8.5.6-4 .5-4.3-2-5.3-3-1.1-8.6-1.3-11-.4-1 .4-1.6 1.8-1.6 3.7 0 4.4-1.3 2.5-4.5-6.3-3.7-10.6-4.5-14.1-3.5-16.1 1.9-3.4-2.5-4-7.5-.9-3.1 1.9-3.2 2.1-3.8 11.3-.3 5.1-1.3 11-2.2 13-1 2.3-1.3 5.1-1 7 .5 2.6.1 3.7-2 5.7-2.4 2.2-3.4 2.5-10 2.3l-7.3-.2-1.1 3.1c-1.3 3.7-10.9 13-13 12.6-1.1-.2-1.9-2.7-2.8-8.8-1.4-9.1-2.8-13.5-5-16.2-.8-.9-1.8-4.7-2.1-8.5-.6-6.1-.9-6.8-3-7.1-4-.6-5 1.2-4.6 8.2.5 8.8-1.3 13.9-5.4 14.7-4.6.9-8.1 3.6-8.8 6.7-1.2 5.6-1.3 5.7-4.2 2.9-3.6-3.4-4.4-3.4-4.1.1.2 1.5 0 3.2-.4 3.8-.7 1.1 3.2 4.4 5.2 4.4.5 0 1.7.7 2.6 1.6 1.8 1.8 1.2 5.2-1.3 7.1-2.4 1.9-3.1 1.6-4-1.9-1-4-2.9-4.7-4.2-1.6-1.1 2.6-.8-1.9.8-13.1.8-5.9 1.3-6.8 5.4-10.6 2.5-2.3 5.6-6.1 6.8-8.6 1.2-2.4 3.2-5.4 4.4-6.7 2.3-2.5 2.6-5.5 4-40.2.3-8 1.1-21.5 1.6-30 .6-8.5 1.5-29 2-45.5 1.8-50.1 2.1-56.9 3-59.5 1.3-3.6 2.4-38 2-64 0-6.4.6-16.1 1.5-22 2.4-15.5 2.6-19.7 2.4-39.5-.2-22.6-.1-25 .8-47.2.4-9.9.5-19.8.1-22-.8-3.9-.8-7.2-.5-59.5l.2-29.8h3.7c2 0 3.9.4 4.2.9zm71.4 3.3c-.3.7-1.1 1.3-1.8 1.3s-1.5-.6-1.7-1.3c-.3-.7.4-1.2 1.7-1.2 1.3 0 2 .5 1.8 1.2zm211.8 1.3c4.8 2.4 5.7 3.4 8.3 9.8 1.4 3.5.4 8-1.6 7.3-.8-.3-1.8-.6-2.3-.6-3.5 0-10.7-10.2-11.5-16.3-.5-3.4.6-3.4 7.1-.2zm-200.2 11.2c-3.5 2.5-4.3 1.5-2.1-2.7l2.2-3.9.9 2.6c.7 2.1.5 2.9-1 4zm49.6 1.2c-4.9 4.2-5.5 4.4-4.5 1.2s3.4-5.1 6.3-5.1c2.6 0 2.6.1-1.8 3.9zm-15 4.2c0 .6-.4.7-1 .4-.5-.3-1-1.1-1-1.6 0-.6.5-.7 1-.4.6.3 1 1.1 1 1.6zm14.5 3.5c.2 3.1-1.2 5.7-2.6 4.8-1.1-.6-1.2-6.8-.2-7.8 1.3-1.3 2.6.1 2.8 3zm86.2 2.9c3.5 3.5 3.5 3.6 2.8 9.7-.4 3.5-.9 6.5-1.1 6.7-.8.9-8.6-2.1-10.6-4.1-1.6-1.6-1.9-2.7-1.4-5.6.4-2.1.7-5.2.6-7 0-2.9.3-3.2 3.1-3.2 2.2 0 4.1 1 6.6 3.5zm-71.3 3.4c.3.4.3 1.1 0 1.4-.8.8-3.4-.3-3.4-1.4 0-1.1 2.7-1.2 3.4 0zm8.3 2.5c-.5 1.4-2.6 1.5-5.2.2-1.9-.9-1.9-1 .5-1.6 3-.8 5.2-.2 4.7 1.4zm-6.4 1.6c2.2 0 2.7.4 2.7 2.5 0 3-.2 3-5.7.4-4.5-2.2-5.9-4.6-2-3.5 1.2.3 3.4.6 5 .6zm118 7.8c1.4 2.6 2.8 6.2 3.2 7.9.6 3.1.5 3.3-2.2 3.3-4.4-.1-9.6-3.2-10.3-6-.3-1.4-1.6-3-2.8-3.6-1.2-.6-2.5-1.3-2.8-1.6-.8-.9 9.6-5.7 11-5.2.8.3 2.5 2.6 3.9 5.2zm-52.6 18.4c1.1 1.1 2.4 3.5 2.7 5.3.4 1.8 1.3 3.8 2.1 4.5.8.7 1.5 2.3 1.5 3.6 0 1.9-.5 2.4-2.5 2.4-3.8 0-9.3-4-10.6-7.8-.6-1.8-2.2-4-3.5-4.9-3.3-2.1-3-3.8.9-5 3.9-1.3 6.5-.7 9.4 1.9zM490 230c3.3 1.8 5.4 13.2 2.8 15.8-.8.8-2.3 0-6.1-3.3-2.7-2.5-5.4-4.5-5.9-4.5-1.4 0 0-7.3 1.5-8.2 1.7-1.1 5.5-1 7.7.2zm-123.1 7.3c4.7 2.4 7.7 6.8 8.3 12.2.2 2.4-.2 3.1-2.3 3.8-1.4.6-3.8.7-5.1.4-3.9-1-8.8-6.1-8.8-9 0-3-3.3-5.7-6.8-5.7-3.1 0-2.4-2.4.9-2.8 1.3-.2 2.8-.8 3.4-1.3 1.3-1.3 4.8-.4 10.4 2.4zm90.8 4.1c1.4 1.3 2.5 3.9 2.9 6.8 1.1 8 .5 8.3-7.7 4-4-2.1-8.2-5-9.3-6.5-1.9-2.5-1.9-2.7-.2-4.6 3.2-3.5 10.5-3.4 14.3.3zm-188.2 32.2c.8 4.5.1 5.3-2.5 2.9-1.9-1.7-2.7-6.4-1.3-7.8 1.1-1.2 3.1 1.3 3.8 4.9zm96.5-2.3c2.8 1.4 8 10.8 8 14.5 0 2.3-.3 2.4-3.6 1.9-4.1-.7-6.9-2.9-9-6.9-1-1.8-2.3-2.8-3.7-2.8-1.3 0-3.2-.7-4.3-1.5-1.8-1.5-1.8-1.6 1.1-4 3.3-2.7 7.6-3.2 11.5-1.2zm-91.3 11.6c1.9-1.9 3.6 2.2 4 9.9.2 4.3 0 9-.6 10.5-1.3 3.3-4.1 3.7-3.4.4.2-1.2-.5-.3-1.6 2.1s-2.5 4.1-3.1 3.7c-.6-.4-.2-2.1 1-4.5 1.6-3.2 1.9-5.1 1.4-10.7-.3-3.7-1.2-8.1-2-9.7-1.8-3.7-.7-5.6 1.6-2.8 1.1 1.4 2.1 1.7 2.7 1.1zm-10.5 8.2c-.5 4.2-.5 5.4-.1 6.8.2.8-.3 1.6-1.2 1.8-1.3.3-1.8-.5-2.1-3.6-.4-4.8.7-8.4 2.4-7.8.7.2 1.2 1.5 1 2.8zm4.4 4.4c-.1 4.6-.7 7-2.1 8.5-1 1.1-2.2 2-2.7 2-1.2 0 .2-5.1 1.8-7.1.8-.8 1.4-3.4 1.4-5.7 0-2.3.4-4.2.9-4.2s.8 2.9.7 6.5zm-137.1 15.2c-.4 1.6-.7 5-.6 7.8.1 2.7-.4 7.8-1 11.2l-1.3 6.2 3.8 7.1 3.7 7.1-2.1 2.6c-1.1 1.4-2 3.6-2 4.8 0 1.2-.9 3.3-1.9 4.7-2.6 3.2-3.8 7.8-2.1 7.8.8 0 1.1.9.7 2.9-.4 1.7 0 3.6.8 4.8 1.9 2.6.7 3.8-1.7 1.6-1-.9-1.8-2.9-1.8-4.5s-.6-4.4-1.4-6.2c-.8-1.9-1.7-6.4-2.1-10-.6-5.4-1.4-7.5-4.2-11.2-1.9-2.5-4.6-4.9-5.9-5.4-4-1.6-3.2-5.3 2-9 4.8-3.5 9.6-12.5 9.6-18.1 0-3.4 3.1-6.9 6.1-6.9 1.8 0 2 .4 1.4 2.7zm-56.8 1.2c3.4.4 6.4.9 6.7 1.2.6.5 1 4.6.8 8.2-.2 2.7-.2 2.7-5.9 2.1-3.2-.4-6.5-1-7.4-1.5-2-1-4.9-6.9-4.9-9.9 0-1.8.4-2 2.3-1.4 1.2.4 5 1 8.4 1.3zm183.1 3.3c-.3.7-1.3 1.5-2.4 1.7-1.6.3-1.7.1-.5-1.3 1.6-1.9 3.4-2.1 2.9-.4zm3.6 1.7c.3.4-.3 1.6-1.4 2.6-1.9 1.7-2 1.7-2.6 0-.9-2.3 2.7-4.7 4-2.6zM273 318c0 1.5-3.9 3.2-6 2.5-2.1-.7-2.5-1.7-1.3-2.8 1-1.1 7.3-.8 7.3.3zm-212.3 4.6c3.3 2.5 5.2 7.9 3.5 9.6-1.5 1.5-9.5-.4-13.2-3.1-2.5-1.8-6.2-7.9-5.5-9.1.8-1.4 12.5.6 15.2 2.6zm-20.5 16c1.5 1 4.8 8.5 4.8 11.3 0 2.1-.3 2.3-2.7 1.6-2.1-.5-11.9-2.5-17-3.5-1.3-.2-5.3-6-5.3-7.6 0-2.1 2.4-3.9 3.9-2.9.4.2 2.1.1 3.7-.4 2.8-.7 10.4.2 12.6 1.5zm247.7 2.3c2.8 2.6 3.1 3.5 3.1 8.5 0 6-2.2 9.6-5.8 9.6-4.1 0-10.2 9.7-10.2 16.2 0 4.1 3.9 12.5 7.1 15.5 3.1 2.9 9 5.3 12.9 5.3 1.6 0 3 .5 3 1 0 .6 1.1 1.6 2.5 2.2 2 .9 2.8.8 4.2-.4 1-.8 3-1.8 4.5-2.2 2.7-.6 5.3-2.7 6-4.6.2-.7 1.9-.2 4.4 1.1 3.4 1.9 4 2.7 4 5.4 0 3.1-.1 3.2-2.8 2.3-9-3.2-20.8 8-17.7 16.7.9 2.4.9 4.4.1 7.6-1.3 5.5 0 13.3 3 17.3 1.2 1.6 2.4 4.3 2.8 6 .4 2.1 1.5 3.6 3.5 4.6 2.3 1.1 2.6 1.5 1.3 1.8-1 .2-3-.4-4.5-1.2-1.5-.8-4.2-2.2-5.8-3-4.4-2.1-6.2-4.5-7.7-9.9-1.1-4.2-1-5.1.6-8.2l1.9-3.5-2.4-2.6c-2.6-2.8-12.8-7.9-17.6-8.9-2.5-.5-3.4-.2-4.6 1.6-1.4 1.9-1.9 2-4.4 1.1-1.5-.6-4.4-1.3-6.3-1.4l-3.5-.3-.3-5.7c-.3-5.4-.2-5.8 2.7-7.2 1.8-1 5.6-1.6 9.5-1.6 3.6 0 6.8-.5 7.1-1 .4-.6 3.4-.8 7.2-.6 4.8.3 7.1.9 8.5 2.4 2.1 2.1 1.7 4.2-.8 4.2-3.2 0-.3 12.1 3.2 13.4 1 .4 2.2.2 2.7-.3 1.3-1.3 1.8-18.2.6-19.7-1-1.3-16.5-6.6-22.7-7.9-2.3-.5-4.1-1.9-6.2-5-1.7-2.5-4.4-5.9-6-7.7-4.3-4.6-4.1-11 .2-8.7 2.8 1.5 4.6-.5 5-5.4.3-4.4.8-4.7 8-6.2 1.5-.3 3.5-1.6 4.3-2.9 1.9-2.9.7-6.7-3.6-11.1l-2.9-3.1 3-3.2c3.6-3.9 4.9-4 8.9-.3zm-10.6 9.7c3.5 4.2 3.1 7.5-.6 5.2-3.7-2.5-5.8-8.8-2.9-8.8.4 0 2 1.6 3.5 3.6zm-197.3 1c.6 1.4 1 3.8 1 5.3s.9 3.6 1.9 4.5c2.2 2 3.7 5.5 4.6 10.8.3 2.1 1.4 4.2 2.3 4.7 3.2 1.6 10.6 2 12.2.7.8-.8 3.6-1.7 6.3-2 3.9-.6 4.8-.4 5.4 1 .4 1.1-.1 2.2-1.2 3-2.1 1.5-2.5 4.3-2.8 16.4l-.2 8.5h-3c-2.5 0-3.2-.5-4.1-3.3-.8-2.5-2.6-4.3-7.5-7.2-5.4-3.4-7.3-4-11.8-4-3.5 0-6.1-.6-7.1-1.5-1.6-1.5-1.6-1.8.2-5.5 1.9-3.8 1.9-4.2.4-10.3-1.6-6.3-2.2-19.1-1-22.1.9-2.4 3.3-1.9 4.4 1zm62 .9c1 1.2.8 1.6-1.2 2.4-2.8 1.1-5.4 3.9-4.4 4.9.4.3 2.1-.1 3.7-1.1 3.4-1.9 7.5-2.2 8.4-.6 1.1 1.7-.5 7.9-1.9 7.9-1.8 0-2.8-2.7-1.5-3.6.7-.4.7-1 .1-1.6-.6-.6-2.3 0-4.7 1.6-6.4 4.4-7.8 3.2-5.1-4.1.8-2.1 1.7-4.6 2-5.6.7-2.1 2.9-2.2 4.6-.2zm161.1 20.8c-.8.8-1.1.4-1.2-1.4-.3-6.3 1.4-10 1.9-4 .2 2.4-.2 4.9-.7 5.4zm-157.1-4c.8 1.2 3.1 4 5.1 6.2 2 2.2 6.6 8.3 10.2 13.7 6.3 9.2 6.5 9.7 4.8 11.2-1.5 1.4-2.3 1.5-4.4.5-3.6-1.6-6.7-.6-12.9 4.5-4.9 4-7.3 5.1-10.3 4.7-.5 0 .8-1.9 2.9-4 2.5-2.5 3.7-4.5 3.3-5.5-.9-2.3-2.3-2-4.4 1.2-1 1.6-3.7 4.5-5.9 6.5-3.8 3.4-4.5 3.6-7 2.7-2.3-.9-2.5-1.3-1.4-2 .8-.6 2.3-1 3.3-1 3.7 0 .6-1.7-4.2-2.3-4.9-.6-9.4-2.7-11.8-5.7-.9-1-1.1-3.5-.7-8 .7-7.4 2.2-9.4 6.1-7.9 1.3.5 4.1.9 6.2.9 3.5 0 4.3.5 8.1 5.6 4.2 5.3 6.7 7.4 8.9 7.4 1.9 0 1.2-1.7-2.9-7.6-3.3-4.7-9-19.1-7.8-19.8 8.7-4.8 12.1-5.1 14.8-1.3zm-122.4 6.9c2.8 1.3 4.4 4.9 4.4 9.9 0 2.2.5 5 1.1 6.1.9 1.7.7 2.4-.9 4s-2.4 1.8-4 .9c-3.3-1.8-7.1-7-8.2-11.4-.6-2.3-1.5-5.5-2-7-.7-2.4-.5-2.9 1.3-3.7 2.3-.9 4.8-.6 8.3 1.2zM308 391.9c0 .5-1.6 1.1-3.5 1.3-3.4.4-4.3-.1-2.8-1.5 1-1 6.3-.8 6.3.2zm80.2 16.8c1.5 1.9 3.4 5.4 4.1 7.7 1.4 3.8 5.7 24.9 5.7 27.5 0 .6-1.7 0-3.7-1.4-2.1-1.4-4.4-2.5-5.1-2.5-.7 0-2.6-.9-4.1-2.1-2.5-1.8-2.8-2.6-2.4-5.9.8-6.1-3.4-6.5-6.4-.7-1.6 3.1-1.6 3.1-2.4.8-1.4-3.7.1-12.9 2.8-16.8 4-5.9.6-8.6-4.8-4-3 2.5-4.9 5.8-6 10.2-.7 2.9-.7 2.8-.8-1-.1-2.4.7-5.3 1.9-7.3 1.1-1.8 2-3.9 2-4.6 0-2.3 3-4 7.9-4.6 5.7-.7 7.9.2 11.3 4.7zM157 404.4c0 .7-8.2 5.7-8.7 5.3-.2-.3 1.3-1.7 3.4-3.1 3.5-2.4 5.3-3.2 5.3-2.2zm178.3 2.7c.4 1.6.3 1.8-.9.8-1.6-1.3-1.9-2.9-.5-2.9.5 0 1.1.9 1.4 2.1zm-20.6.9c-1.4 1.1-2.9 2-3.4 2-1.1-.1 3.7-4 4.9-4 .6 0-.1.9-1.5 2zm45 .7c-.9.9-1.9 1.4-2.3 1.1-1-1 .6-2.8 2.4-2.8 1.5 0 1.5.1-.1 1.7zm-239.2 2.4c2.8.8 2.8.8-.7.4-3.2-.3-4.1.1-6.4 2.8-1.5 1.7-3.1 4.4-3.6 5.9-.6 1.6-1.5 2.5-2.3 2.2-.8-.3-2 .6-2.9 2.3l-1.6 2.8.4-4.2c.3-2.4 1-5.1 1.6-6 1-1.5 1.1-1.5.6-.1-.2.9-.2 1.9.1 2.2 1 1 4.3-2.5 4.3-4.5 0-4.2 4-5.6 10.5-3.8zm47.8 0c-.6.6-.8 2.9-.6 5.3.4 3.1-.1 5.7-1.7 9.2-1.2 2.7-2.4 6.4-2.6 8.2-.7 5-2.4 8.6-10.2 21.2-4.7 7.4-7 12.1-6.6 13.2.6 2-1.2 15.3-2.8 20.5-1.1 3.8-1.4 3.9-6.8 1.7-3.8-1.5-4-1.8-2.5-3.3 2.3-2.6 4.7-11.3 3.4-12.6-.7-.7-1.3-.4-2 .7-.6 1-1.7 1.8-2.4 1.8-1.6 0-1.9 1.4-1.5 7.3l.2 3.8-3-1.5-3-1.5 2.3-5.8c3.6-8.9 4.2-13.3 1.9-15-1.6-1.1-1.6-1.7-.6-4.6 4.1-11.7 6.8-34.4 4-33.5-.7.3-1.4 1.8-1.6 3.4-.2 1.6-.7 3.3-1.2 3.8s-.6 3.1-.3 5.7c.4 3.1.1 5.4-.6 6.3-.6.8-1 1.8-.9 2.2.2.5-.1 1.1-.7 1.2-.5.2-1.4-1.3-1.9-3.3-2.3-9.7 9.3-33.5 16.4-33.5.9 0 .4.9-1.5 2.4-2.5 2-2.8 2.6-1.6 4 1.7 2.1 2.8 2 7.3-.3 1.9-1.1 3.8-1.7 4.1-1.4.3.3 1.2-.4 1.9-1.6 1.6-2.7 2.8-2.7 2.8-.1 0 1.1-.8 2.3-1.7 2.6-4.4 1.4-17.6 8.7-18 9.9-.2.6.4 2 1.2 3 1.5 2 1.6 2 3.1-.3.9-1.2 2.4-2.2 3.3-2.2 1 0 3.2-1.1 5.1-2.5 1.8-1.3 4.8-2.9 6.6-3.5 2.7-.9 3.3-1.7 3.9-4.8.3-2.1 1.1-4.4 1.6-5.2 1-1.5.9-.6-.7 5.2-.3 1 0 1.8.6 1.8s1.3-.8 1.7-1.8c.6-1.8 5.3-7.2 6.2-7.2.3 0 0 .5-.6 1.1zm181.2 1.7c.6.4.8 2.5.5 4.7l-.5 4-1.3-3.4c-1.9-5.3-1.4-7.3 1.3-5.3zm-31.7 2.1c-.9 1.5-.8 2.4.5 4.5 1.7 2.6 3.7 3.5 3.7 1.6 0-1.6 7.3-6 10.1-6 2.9 0 6.5 3.3 5.4 4.9-.9 1.6 7.2 8.8 13.8 12.2 3.1 1.6 5.7 3.3 5.7 3.8 0 1-7-.2-11.5-1.9-1.6-.6-4.4-2.4-6-4-3.1-3-6.1-2.8-5 .2 2 5.1 15.7 9.9 29.3 10.2 9.2.3 10.1.5 17.8 4.5 4.4 2.3 9.3 5.5 10.9 7.1 3.3 3.5 4.5 3.8 4.5 1.1 0-1.1.4-2.2 1-2.6 1.4-.9 3.9 4.7 3.3 7.7-.4 2.2.2 3 4 5.7 4.6 3.1 10.1 9 9.3 9.8-.2.3-1.7-.5-3.3-1.6-5.1-3.8-20-9.1-23.4-8.4-2.3.4-3.8 0-6.2-1.8-2.3-1.7-5.7-2.7-11.9-3.5-4.8-.7-10.2-1.9-11.9-2.8-1.8-.9-3.8-1.6-4.5-1.6-.7 0-2.8-1.5-4.7-3.4-1.9-1.8-5.1-3.9-7.3-4.6-2.2-.7-5.9-3.2-8.5-5.9-7.2-7.2-10.8-9.6-12.8-8.4-.9.6-1.8 1.8-1.9 2.7-.4 2 2.5 5.6 4.4 5.6.7 0 2.8 1.9 4.6 4.1 2.9 3.7 12.6 10.9 14.6 10.9.4 0 1.8.7 3 1.6 2.2 1.5 2.2 1.7.7 3.4-1.5 1.7-1.8 1.7-7.2-.4-3.2-1.2-7.5-3.9-10.1-6.5-3.8-3.7-4.8-4.2-6.4-3.2-2.4 1.5-2.5 1.5-3.3-1.6-.4-1.9-.2-2.9 1-3.6 1.3-.7 1.4-1.2.4-2.3-.6-.8-1.6-1.4-2.2-1.4-1.5 0-5.7-4.1-5.7-5.6 0-.6-.7-2.4-1.5-4-1.7-3.2-1.1-6.6 1.8-10.9 3.5-5.2 8.3-10.1 5.5-5.6zm43.6 13.3c.5 1 .4 1.8 0 1.8-3.6-.1-5.9-5.9-4.3-10.9 1.9-6 2.4-5.9 3 .9.3 3.6.9 7.3 1.3 8.2zM121 420c.5 0 1.3-.8 1.9-1.7.5-1 1.3-1.5 1.7-1 .4.4.1 1.5-.7 2.4-.8 1-2.5 3.8-3.8 6.2-2.2 4-2.3 5.2-1.8 13.8.6 10.4-.4 11.7-1.5 2-.4-3.4-1.1-8.9-1.7-12.2-1-5.7-.9-6.2 1.7-10 2.4-3.6 2.7-3.8 3-1.8.2 1.3.7 2.3 1.2 2.3zm12-3.5c0 .3-1.3 2.3-2.9 4.5-1.6 2.2-3.2 5.6-3.5 7.5-.4 1.9-1.1 3.7-1.6 4-1.3.8-1.3-3.7 0-7.1 1.6-4.2 8-11.3 8-8.9zm-24.3 13.7c-.2 1.3-.4.5-.4-1.7-.1-2.2.1-3.2.4-2.3.2 1 .2 2.8 0 4zm283.8 16.2c1.6 1.2 1.7 1.5.4 1.6-.8 0-2.6-1.2-4-2.6-2-2.2-2.1-2.5-.4-1.6 1.1.6 2.9 1.7 4 2.6zM116 452.5c1.1 1.3 1 1.4-.3 1-1-.4-1.7.1-2.2 1.4-.7 2.4-2.5 2.8-2.5.7 0-4.3 2.7-5.9 5-3.1zm7.3 5.7c-2.8 5.7-4.2 12-3.2 13.9 1.1 2.2 2 2.4 3.8.6 1.1-1 1.2-.7.6 1.3-1.1 3.7-2 4.3-4.3 2.9-1.2-.7-2.5-1-2.9-.6-1.3 1.3 1.3 4.2 4.1 4.5 1.4.2 2.6.7 2.6 1.1 0 1.8-1.4 1.8-4.5 0-2.6-1.5-3.4-2.8-3.9-6-.5-3.3-.3-4.4 1.1-5.4 1.7-1.3 1.7-1.4-.2-3.5-1.3-1.4-1.6-2.5-1-3.4.6-.7 2.3-3.2 3.8-5.6 2.1-3.1 3.2-3.9 4-3.1.8.8.8 1.7 0 3.3zm-8.2 1.1c-1 .9-1.1.8-.5-.6.3-1 .9-1.5 1.2-1.2.3.3 0 1.1-.7 1.8zm216.7 5.1c.9 2 .9 2.6-.1 2.6-2.7 0-8.6-5.2-8.7-7.7 0-2 7.5 2.4 8.8 5.1zm35.2.2c0 .2-.9.4-2 .4s-2-.4-2-.9.9-.7 2-.4c1.1.3 2 .7 2 .9zm-30 4.4c0 .5-.2 1-.4 1-.3 0-.8-.5-1.1-1-.3-.6-.1-1 .4-1 .6 0 1.1.4 1.1 1zm56.2.9c2.9 1.1 7.1 2.3 9.3 2.7 2.2.3 5.1 1.3 6.5 2.1 3.7 2.2 10.8 12 12.1 16.7 1.3 4.9 8.1 14.3 11.4 15.8 2.9 1.3 8.5 8.9 8.5 11.6 0 7.7 11.4 19.5 17.1 17.7 3.7-1.2 9.1-.8 10.7.9 1.5 1.5 1.4 1.6-.9 1.6-1.4 0-3-.5-3.6-1.1-1.7-1.7-7.7-.2-10.3 2.6-2.8 3-1.6 5.4 1.8 3.6 1-.6 2.2-.8 2.5-.4.4.3 2.3-.2 4.3-1.2 2.4-1.1 3.9-1.4 4.6-.7.7.7.3 1.4-1.1 2.1-1.1.7-2.8 2.6-3.7 4.3-1.3 2.5-1.4 3.8-.5 7.4.6 2.3 1.1 5.4 1.1 6.8 0 3.4 4.4 8.5 6 7 .8-.8.9-1.8.2-3-.5-1.1-1.5-5.2-2.1-9.3-1-6.4-1-7.7.3-9 1.4-1.3 1.8-1.3 3.5.3 2.2 2 5.1 1.5 5.1-.7 0-.8-.7-2-1.5-2.7-1.9-1.6-1.9-4 0-4 1.8 0 2.7 1.8 2.9 5.8.1 1.5 1.8 5.1 3.8 8 4 5.4 4.3 8.9 1.3 13.7-1.3 2.2-1.5 2.8-5 16.2-1.3 5-2.8 10-3.4 11.2-1.6 3-1.4 10.6.4 12.1 1 .8 1.3 2.1.9 3.3-.4 1.3-.2 1.7.5 1.3 1.5-1 7.1 3.1 7.1 5.1 0 1.4-.3 1.4-2.2-.1-5.8-4.2-6.8-3.3-3.9 3.5 1.2 2.8 2 5.3 1.7 5.7-.3.3-1.5-1.6-2.6-4.1-3.4-7.7-5.4-5.8-2.5 2.3 1.5 4.4 1.2 6.7-.6 4-.5-.8-1.2-2.6-1.5-4-.7-3.5-1.8-5.3-3.4-5.8-1-.4-1.2.5-.7 3.4.3 2.2.8 4.7 1.2 5.6.4 1 .3 1.8-.3 1.8-.5 0-1.5-2-2.2-4.5-.7-2.5-1.7-4.8-2.1-5.1-1.9-1.1-.8-4.7 2.2-7.5 2.4-2.3 2.8-3 1.6-3.5-2-.7-5.7 1.3-5.7 3 0 1.4-4.2 4.6-6 4.6-.6 0 .2-1.9 1.8-4.3 1.7-2.3 3.5-5.8 4.1-7.7 2.2-7.2 5-20.7 5.4-25.7.4-4.8.2-5.4-2.9-8.4-2.2-2.2-3.5-4.5-3.9-7.3-.8-5.2-2.5-9.6-3.6-9.6-.5 0-1.4-1.1-1.9-2.5s-1.6-2.5-2.3-2.5c-.8 0-2.2-.9-3.2-2-2.2-2.4-3.8-2.5-5.5-.5-.7.8-1.6 1.3-2 1-1.1-.7 0-5.3 1.6-6.6 1.9-1.5 1.8-7.3-.1-8.9-1.9-1.6-4.4-.6-4.7 1.7-.1 1-.4-.7-.7-3.7-.5-4.1-.2-5.8.8-6.6 1.2-1 1.3-1.6.1-4.3-.7-1.8-2.4-4-3.7-4.8-1.3-.9-3.1-2.9-3.9-4.5-.8-1.6-3.1-3.9-5-5s-3.4-2.5-3.4-3.1c0-2.2-5.6-9.5-14.4-18.4-7-7.2-10.2-9.7-14.5-11.4-9.2-3.7-10-5.3-.9-2zm-45 4.2c2.7 1.4 6.9 2.3 12.2 2.7 12.3.8 21.9 5.8 19.6 10.2-1.6 3-.7 3.6 5.5 4.4 7.9.9 12.4 4.1 15.9 11.2 1.6 3.3 3.9 7.2 5.1 8.9 5.7 7.8 7.8 12.5 7.2 16.3-.5 2.6-.2 4.1 1 5.4.9 1 1.3 2.1.9 2.5-.4.4-1.1.1-1.5-.6-1.2-1.9-3.1-.4-3.1 2.4 0 3.2-1.7 4.1-3.9 2.1-3-2.7-4.1-1.9-4.2 3.1 0 3.6-.3 4.3-.9 2.8-.5-1.1-.9-3.2-.9-4.8-.1-1.5-1-3.5-2.1-4.4-1.1-1-2.5-3.2-3.1-5.1-1-3-.9-3.5.9-4.8 2.1-1.5 2.3-6.3.4-10-.6-1.1-1.8-3.8-2.8-6.2-2.1-5.3-6.5-8.7-9.2-7.3-1.3.7-2.4.5-4-.8-2.2-1.6-2.2-1.7 1.8-1.3 4.7.5 7.7-1.3 5.9-3.4-.6-.8-2.8-1.4-4.8-1.4-3.5 0-7.1-1.4-20.2-8-6.1-3.1-8.6-2.7-7.6 1 .4 1.7-.6 1.1-4.2-2.6-8.3-8.6-12-14.4-9.1-14.4.6 0 2.9.9 5.2 2.1zM64 477c1 1.9 1 2-.9.8-2.2-1.3-2.8-2.8-1.1-2.8.5 0 1.4.9 2 2zm331 5.5c2.9 3 5.1 5.7 4.7 6.1-.5.6-1.9-.3-8.4-5.4-2.2-1.8-4.1-6.2-2.6-6.2.5 0 3.3 2.5 6.3 5.5zm-339 1c0 .8-.6 1.5-1.4 1.5-.7 0-1.6.9-1.9 2.1-.3 1.2-1 1.8-1.6 1.4-1.9-1.1-1.2-3.4 1.7-4.9 3.4-1.9 3.2-1.9 3.2-.1zm13.9 1.1c-1.4 1.8-2.4 1.1-1.5-1.1.3-.9 1.1-1.3 1.6-1 .8.5.7 1.1-.1 2.1zm-5.5 4.9c.7 2.8.6 2.9-.7 1-.8-1.1-1.7-3.4-2.1-5-.7-2.8-.6-2.9.7-1 .8 1.1 1.7 3.3 2.1 5zm5.3-.3c-.3.8-.6.5-.6-.6-.1-1.1.2-1.7.5-1.3.3.3.4 1.2.1 1.9zm-10.9.6c.6 1.8-1.5 1.4-2.2-.4-.4-1-.1-1.4.6-1.2.6.2 1.4 1 1.6 1.6zm-21.7 2.7c.3-.2 1.1.6 1.8 1.8 1.3 2 1.3 2.1-.3.8-1.3-1.1-2-1.1-2.8-.3-2.1 2.1-4.8 1.4-4.8-1.1 0-3.3.9-3.8 3.4-2.1 1.3.8 2.5 1.2 2.7.9zm9.3-.1c2.2-.4 2.7-.3 1.7.4-.7.5-1.6 1.5-2 2.1-.5.7-1.6.2-3.2-1.6-1.3-1.6-1.7-2.3-1-1.6.8.7 2.8 1 4.5.7zm29.5 3.6c.1 1.3 0 1.3-.9 0-.5-.8-.9-2.4-.9-3.5v-2l.9 2c.5 1.1.9 2.7.9 3.5zm339.8 5.8c3.4 4.4 9.4 18.6 8.1 19.1-1.3.4-3.8-2.6-3.8-4.6 0-.7-1.3-3.4-2.9-6-1.6-2.7-3.2-5.9-3.6-7.1-.5-1.6-1.3-2.2-2.3-1.9-4.3 1.2-4.7 1.2-4.3-.3.2-.8.6-3 .9-4.9l.5-3.5 2.6 3.2c1.4 1.7 3.6 4.4 4.8 6zM369 496l2.5 2-3.2-.9c-1.7-.5-4-1.4-5-2-1.6-.9-1.5-1 .7-1 1.4-.1 3.6.8 5 1.9zm-301.3 3.7c-.3 1-.5.4-.5-1.2 0-1.7.2-2.4.5-1.8.2.7.2 2.1 0 3zm-28.6 10.1c.1 8.4-.1 9.4-1.4 8.9-.6-.2-1-1.1-.8-1.8 1.3-4.1 1.1-9.3-.3-12.9-2.2-5.6-1.9-7.3.5-2.7 1.2 2.2 2 5.8 2 8.5zm39.6-8.6c-.3.8-.6.5-.6-.6-.1-1.1.2-1.7.5-1.3.3.3.4 1.2.1 1.9zm-58.4 3.6c2.5 2.4 2.7 3.1 2.5 9.3l-.1 6.7-4.1-1.8c-2.3-1.1-5.3-2.1-6.8-2.4-1.5-.4-2.9-1.4-3.3-2.5-.3-1-1.7-2.3-3-2.9-1.4-.6-2.5-1.6-2.5-2.1s1.8-2.5 4.1-4.5c3.5-3.2 4.5-3.6 7.2-3.1 1.8.4 4.4 1.9 6 3.3zm59.3 5.7c-.1 6.5-.9 8.3-2.1 4.6-.5-1.7-.2-4.3 1.2-9.4.8-2.9.9-2 .9 4.8zm-6.5-2.4c-.9 2.2-1 2.2-1 .3-.1-1.1.2-2.4.6-2.7 1.2-1.2 1.4 0 .4 2.4zm-16.6 2.7c-1.5 1.6-1.6 1.5-.4-1.2.7-1.5 1.5-2.3 1.7-1.6.3.7-.3 1.9-1.3 2.8zm356.5.2c0 .5-.4 1-1 1-.5 0-1-.5-1-1 0-.6.5-1 1-1 .6 0 1 .4 1 1zm-348.5 6c.3.5 1.8 1 3.1 1 1.5 0 3.8 1.2 5.4 2.9 1.6 1.6 3.6 3.1 4.4 3.4 1.1.4 1.3 1.5 1 3.9-.3 1.8 0 5.3.6 7.8s1.1 5.4 1.1 6.4c0 3-2.1 7.4-3.8 8.1-2.1.7-10.1-3.2-11.3-5.6-.6-1-2.5-2.6-4.3-3.5-1.8-.9-3.5-2.2-3.9-2.8-.9-1.4 1.2-2.7 3.4-2 3.3 1 2.9-1.8-.8-5.2-3-2.9-4.3-3.5-6.5-3-2.2.4-2.6.2-2.2-1.2.2-1 1.8-2.5 3.4-3.5 1.7-.9 2.7-2.2 2.3-2.8-.4-.8 0-.7 1.5.1 2 1 2.3.8 3.4-1.9 1.2-3.2 2.1-3.8 3.2-2.1zm365.8 9.6c.3.3.1 1.9-.5 3.6-1.3 3.6-3.2 2.3-2.2-1.6.6-2.5 1.5-3.2 2.7-2zM44 529.1c0 .6-.4.7-1 .4-.5-.3-1-1.1-1-1.6 0-.6.5-.7 1-.4.6.3 1 1.1 1 1.6zm379.8 4.1c-.6 1.8-2.8 2.1-2.8.4 0-.9.7-1.6 1.6-1.6.9 0 1.4.5 1.2 1.2zm-29.4 6.2c.4 2.4 1.6 5.2 2.7 6.2 1.3 1.2 1.9 2.9 1.8 4.9-.4 6.5.1 9.5 1.6 9.5.8 0 1.5.8 1.5 1.8s.5 2.3 1.2 3c.6.6.9 1.5.5 1.9-.4.4-1.3.1-1.9-.5-1.8-1.8-2.8-1.5-2.8.8 0 1.3-.7 2-1.9 2-1.1 0-2.2.4-2.6.9-.8 1.3-4.5.9-4.5-.4 0-1.8-7.4-5.5-10.9-5.5-5.3 0-12.6 3.9-10.7 5.7.3.3 2.4-.2 4.7-1.1 2.5-1 5.3-1.4 7-1.1 4.4 1 4.4 2.4 0 1.8-2.3-.3-4.1-.1-4.5.6-.5.7.2 1.1 1.8 1.1 1.4 0 2.8.5 3.1 1.1.4.5 1.7.9 2.8.8 5.3-.4 6.7.1 7.3 2.6.4 1.7.1 3.2-1 4.4-1.2 1.4-1.6 3.4-1.4 8 .1 3.7-.2 6.5-1 7.3-.7.7-1.2.8-1.2.2 0-.5-.7.4-1.5 1.9-1.1 2.2-1.2 4.7-.6 12.6.5 5.3.7 10.9.4 12.4-.9 4.4 2 7.7 6.7 7.7 4 0 6 1.8 6 5.5 0 1.6-.2 1.6-2.5.1-1.3-.9-4-1.6-5.9-1.6-1.9 0-3.8-.5-4.1-1-1-1.6-3.5-1.2-2.9.5.3.8 2.5 1.8 4.7 2.2 3.4.7 4.5 1.5 5.9 4.3 1 2 1.9 4.4 2 5.5.4 2.6-1.6 3.6-2 1-.4-2.7-3.5-8.5-4.4-8.5-1.1 0 .2 7.9 1.8 11.2 1 1.8 1.1 2.9.3 3.3-1.5 1-1.8.5-3.7-6.6-2.3-8.5-4.6-8.8-5-.7-.4 8-2.2 7.3-2.2-.7s-1.9-9.6-5.7-4.9c-2.8 3.6-3.1 1.2-.3-3.1 2.3-3.5 1.8-9.4-1.5-17-1.2-2.8-2-5.5-1.8-6.2.2-.6-.3-2.6-1.2-4.3-2.2-4.2-3.6-20.2-2-21.9.3-.3 1.5 0 2.5.7 1.1.7 3.2 1.2 4.8 1.2 2.1 0 3.2.8 4.6 3.5 1.9 3.5 4.6 4.7 4.6 2.1 0-.8.7-1.7 1.6-2 1.4-.5 1.6-1.6 1.1-5.5-.5-4.1-.2-5.2 1.4-6.7 1.2-1.1 1.6-2.1 1-2.7-.9-.9-7.3 3.2-9.7 6.3-1 1.2-1.4 1.2-2.8.1-2.3-1.9-2-2.7 1.2-2.6 2.4 0 2.7-.3 2.7-3.5 0-2.9-.4-3.6-2.3-3.8-1.3-.2-2.8 0-3.5.5-.7.5-2.8.9-4.7.9-3.3-.1-3.5-.3-3.8-3.6-.3-4.4 2.6-10 6.4-12.1 1.8-.9 4-3.8 5.9-7.6 1.7-3.3 4.2-7.4 5.8-9.2 1.5-1.8 2.7-3.7 2.7-4.2s1-.8 2.2-.6c1.4.1 2.3-.4 2.4-1.3.3-4.2.4-4.3 1.8-3.1.8.6 1.7 3.1 2 5.5zm36.6.1c0 3.5-.5 4.9-2.6 6.8-2.5 2.4-2.6 2.5-.9 5.1.9 1.4 1.5 3.3 1.1 4.1-.7 1.9-4.5 1.9-5.2 0-.9-2.2-3.5-1.8-4.1.5-.3 1.2-2.1 2.7-3.9 3.5-3.3 1.4-5 4.3-1.8 3.1 3.6-1.4 6.5-1.8 8.1-1.1 1.7.6 1.7.7.1 1.6-1 .6-1.8 1.6-1.8 2.3 0 1.7-2.7 2.9-3.5 1.6-.9-1.5-2.5-1.2-2.5.5 0 2 3.7 3.8 6.6 3.1 1.6-.4 2.6-1.7 3.1-3.7l.9-3.1 4.2 4.1c3.6 3.5 4.5 3.9 6.6 3.1 2.5-.9 3.6-.5 3.6 1.6 0 .7-1.2 1.4-2.7 1.6-2.4.3-2.8.7-2.8 3.5 0 3.8.1 3.7-2.5 2.1-3.1-2-7 .7-7 4.8 0 2 .6 3.4 1.6 3.8 2.7 1.1 6.1.6 7.4-.9 1.4-1.7 3-2 3-.5 0 2.5-16.1 7.9-19.6 6.6-1.5-.6-1.4-.9 1.4-2.6 4.1-2.5 4.5-3.6 3.3-8.8-.8-3.8-.7-4.4 1.2-5.7 3-2.1 1-4-2.6-2.6-1.9.8-2.7 1.8-2.7 3.5s-.8 2.9-2.7 3.8c-2 .9-3.1 2.5-3.7 5.1-.9 3.6-3.6 5.3-3.6 2.2 0-1.9-1.3-1.9-5 0-1.7.9-3 2.3-3 3.1 0 .9-.9 1.8-2 2.1-1.5.4-1.9 1.3-1.7 3.6.3 4.2-1.6 4.4-2.9.2-1-3.3-.9-3.9 1.8-7.3 1.6-2 4.1-3.9 5.5-4.2 1.5-.3 2.8-1.1 3.1-1.8.6-1.8-3.9-1.5-6.6.4-1.3.9-2.6 1.3-2.9 1-.9-.8 1.7-3.6 3.3-3.6.8 0 2.3-.5 3.3-1.2 1.5-.9 2.4-.8 4.5.5 3.1 2.1 3.7 2.1 2.9.2-.3-.9.1-3.5 1-5.8 2.1-5.9 2.8-10.5 1.7-11.2-1.7-1-1.1-3.6 1.5-6.7 1.6-1.8 2.5-4.2 2.5-6.2 0-7 4.1-12.6 9.2-12.6.8 0 2.1-.9 3.1-2 2.9-3.5 4.7-2.6 4.7 2.5zM47 540c0 .5-.5 1-1.1 1-.5 0-.7-.5-.4-1 .3-.6.8-1 1.1-1 .2 0 .4.4.4 1zm92 4.4c.6 4.1.5 4.3-1.2 3.3-1.8-1.2-2.6-6.6-1.1-8 1-1.1 1.6 0 2.3 4.7zM26.3 544c4.5 5.3 6 15.1 2.5 15.8-.9.2-4.3-1.7-7.6-4.2s-6.7-4.6-7.6-4.6c-1.8 0-5.2-4.7-4.2-5.8 1.4-1.4 9.1-4.1 11.8-4.1 1.7-.1 3.5.9 5.1 2.9zm104 6.7c-.3 2.1-1.2 4.8-1.9 6-2.1 3.3-1.7 4.6 1.1 4.1 1.4-.3 2.5-.4 2.5-.3 0 .1-.6 1.8-1.4 3.7-.8 1.9-1.1 4-.7 4.6 1 1.6 4.1.5 6.3-2.2 2.5-3 2.3-.1-.2 3.4-2.6 3.6-8 7-11.2 7-2.9 0-6.1-3.2-7.6-7.7-1-2.9-.8-3.4.9-4.3 2.4-1.3 2.5-4.2.2-3.8-2.1.3-4.3-.9-4.3-2.4 0-.7.5-.6 1.4.1 2.3 1.9 2.8-.4.6-2.4-2.9-2.7-2.5-3.2 3-3.9 3.1-.4 6-1.6 7.7-3.1 3.8-3.3 4.3-3.1 3.6 1.2zm305.2-1.6c-.4.5-1.3.9-2.2.9-1.3 0-1.3-.3-.3-1.5 1.3-1.5 3.5-1.1 2.5.6zm-25.5-.7c0 .3-.4.8-1 1.1-.5.3-1 .1-1-.4 0-.6.5-1.1 1-1.1.6 0 1 .2 1 .4zm-.6 5.7c-.8 1.3-2.4.1-2.4-1.8 0-1.3.3-1.3 1.5-.3.8.7 1.2 1.6.9 2.1zm41.1-1.2c-.3 1 .1 2.4 1 3.1.8.7 1.5 1.8 1.5 2.6 0 1-.5 1-2.7-.1-4-2.1-4.6-3.7-2-5.7 2.8-2.2 3-2.2 2.2.1zm-313.9 3.7c-.3.8-1.3 1.4-2.1 1.4-1.4 0-1.4-.4.2-3.1 1.3-2.2 1.9-2.6 2.1-1.4.2.9.1 2.3-.2 3.1zm305.2-4c4.1 1.1 2.4 2.7-2.3 2.1-2.5-.4-4.7-.2-5 .3-.4.6-1.1.8-1.6.4-.6-.4-.6-1.1.2-2 1.2-1.5 4.8-1.8 8.7-.8zm-299 18.5c0 6.8-.1 7.3-3.4 10.6-1.9 1.8-3.4 3.8-3.4 4.4 0 .5-1.9 3.1-4.3 5.7-5.3 5.7-10.7 15-10.7 18.5 0 1.8 1.5 3.8 5.5 7.2 3 2.5 5.5 5.3 5.5 6.1 0 2-1.4 1.7-3.5-.6-1-1.1-2.7-2-3.8-2-1.5 0-1.8.5-1.3 2.2.4 1.3.9 3.6 1.1 5.3.5 2.7.4 2.8-.3.5-1.5-4.3-4.2-9-5.2-9-1.3 0-1.3 2.2 0 5.5.6 1.5 1.2 5 1.5 7.8l.5 5.2-1.5-5.3c-1.6-5.7-5.3-11.4-7-10.9-.5.2-1.2 3.5-1.5 7.3-.7 9.3-2 6.7-2.1-4.3-.1-4.8-.6-9.4-1.2-10.1-1.5-1.9-4.6-1.4-7.3 1.3-3 3-3.4 3.1-3.4.5 0-2.2 8-8 11-8s5.8-3 6.5-6.7c1.2-6.6 4.7-12.8 7.5-13.1 4.6-.6 9.3-3.4 14.8-8.9 2.9-3 5.1-5.7 4.9-6-.3-.2-2 .3-3.9 1.3l-3.3 1.7 2.1-2.4c4.5-5.2 5.7-8 4.5-10.6-1.5-3.2-1.3-4.2.3-2 .8 1 1.3 4.5 1.4 8.8zM435 567c0 .5-.2 1-.4 1-.3 0-.8-.5-1.1-1-.3-.6-.1-1 .4-1 .6 0 1.1.4 1.1 1zm7.7 1.2c-.3.8-.6.5-.6-.6-.1-1.1.2-1.7.5-1.3.3.3.4 1.2.1 1.9zm-430 .8c4.1 2.4 6 6.3 6.4 12.5.4 5.6-1 6.8-4.4 3.7-1.2-1.1-3.9-2.5-6-3.2-2.1-.7-4.1-1.9-4.3-2.9-.3-.9-1-2.4-1.5-3.3-.5-1-.9-3.1-.9-4.7 0-2.6.4-3 3.3-3.4 1.7-.2 3.4-.5 3.7-.5.3-.1 1.9.7 3.7 1.8zm437.1-.8c-.3.7-1.3 1.5-2.4 1.7-1.6.3-1.7.1-.5-1.3 1.6-1.9 3.4-2.1 2.9-.4zm6.2-.3c0 .6-.4 1.3-1 1.6-1.7 1-1.1 2.5 1 2.5 2.4 0 2.6 2.2.5 4-1.2 1-1.8 1-3 0-.8-.6-1.9-.9-2.4-.6-2.2 1.4-1.8-1.3.6-4.7 2.5-3.6 4.3-4.7 4.3-2.8zm-340 5.5c0 2.6-.6 1.8-1.4-1.9-.5-2.2-.4-2.6.4-1.5.5.8 1 2.4 1 3.4zm-45.5 2.1c-3.5 3.4-5.8 6.5-6 8.1-.4 4.1-4.8 7.8-8.7 7.6-9.7-.8-9.3-.9-9.6 1.8-.2 1.7.6 3.4 2.2 4.9 2.1 2 2.8 2.2 4.1 1.1 1.1-.9 1.3-1.6.5-2.4-1.4-1.4-1.3-2.3.5-3 1.2-.4 1.5.2 1.5 2.8 0 2.8-.6 3.8-3.5 5.5-1.9 1.1-4.3 3.4-5.4 5.1-2 3.4-5.9 6.6-6.8 5.6-.3-.3 0-1.2.7-2.1 1-1.2.9-1.6-.4-2.1-2.7-1-4.3.2-8.6 6.7-6.1 9.1-7 11.3-7.1 16.6-.1 4-.2 4.3-.8 1.8-.9-4.3-3.4-3.8-4.2.8-.3 2.1-1.1 4.3-1.7 4.9-.9.9-.9.3-.2-2.3 1.6-5.5 1.3-7.1-1.2-6.7-1.2.2-2.5 1.2-2.8 2.3-.7 2.8-5.3 10.5-6.2 10.5-1.5 0-.8-2.5 2.4-8.7 3.3-6.4 3.1-9.8-.2-5.3-5.3 7.1-6.3 8.1-7.1 7.3-1.2-1.2 1.7-7 4.2-8.3 1-.6 1.9-1.6 1.9-2.2 0-.6.7-1.9 1.6-2.9 1.3-1.4 2.1-1.6 4.2-.8 2.7 1.1 5.7.5 4.8-1-.3-.4-2.4-1.1-4.6-1.5-2.2-.3-4-1.1-4-1.6 0-.6-.9-1-2.1-1-1.4 0-1.9-.5-1.7-1.8.5-2.8 5.8-2.7 10.2.3 2.6 1.8 4.2 2.3 4.9 1.6.7-.7.6-1.5-.2-2.5-1.1-1.2-.6-2.2 2.7-5.8 3.8-4 4.2-4.2 6.5-2.9 3.5 1.9 5.9.9 2.7-1.1-4-2.5-7.7-3-9.4-1.2-2.2 2.2-2 .1.3-2.7 1.5-1.9 2.1-2.1 3.3-1.1 1.2 1 2.1.6 4.6-1.8 1.8-1.7 3.6-3 4.2-3 .5 0 1-1.3 1-2.9 0-3.3 3.6-6.8 7.9-7.7 16-3.2 21.5-6.5 13.6-8-3.1-.5-4.1-.2-6.4 2-4.3 4.1-7.1 2.7-3.7-2 1.2-1.6 2.7-1.9 9-2 4.3-.1 8.9-.8 10.8-1.6 8.5-3.9 8.7-3.6 2.3 2.7zm335.1-1.8c-.2 1.5-.9 2.9-1.6 3.1-.9.3-1.1-.1-.7-1.2.4-1 .7-2.4.7-3.2 0-.8.4-1.4.9-1.4s.8 1.2.7 2.7zm-7.8 4c-1.2 1.3-2.5 2.3-3 2.3-1.5 0-.8-2.4 1.4-4.7 1.6-1.7 2.4-2 2.9-1.1.5.8-.1 2.2-1.3 3.5zm-82.8-.8c0 1.7-.4 3.3-1 3.6-.6.4-1-.8-1-2.9 0-2 .5-3.6 1-3.6.6 0 1 1.3 1 2.9zm125 .5c0 1.6-1.8 3.1-2.7 2.2-.8-.8.5-3.6 1.7-3.6.5 0 1 .6 1 1.4zm-322.9 2.3c-.5 1-1.6 2.7-2.5 3.8-1.5 1.9-1.5 1.9-1.6-.7 0-1.5.8-3.1 1.8-3.7 2.6-1.5 3.4-1.3 2.3.6zm16 .2c-1 1.8-5 3.1-10.3 3.4-2.5.2-2.5.1-1.1-1.6 1-1 3.1-1.7 5.2-1.7 2 0 4.3-.5 5.1-1 2.1-1.4 2.2-1.3 1.1.9zm234.7 3.3c-2.9 2.2-3.3 1.6-1.7-2.2 1.3-2.8 1.5-2.9 2.7-1.3 1.1 1.5.9 2-1 3.5zm-329.3.1c-.9 1.4-2.3 2.8-3.2 3.1-.8.4-.2-.9 1.3-2.7 3.3-3.9 4.3-4.1 1.9-.4zM430 582c0 .5-.2 1-.4 1-.3 0-.8-.5-1.1-1-.3-.6-.1-1 .4-1 .6 0 1.1.4 1.1 1zm-115.6 4.8c-.9 4.3-2.1 3.2-1.6-1.3.3-2.2.8-3.3 1.3-2.8s.6 2.4.3 4.1zm127.5-3.9c.8.5 1.1 1.6.6 3.1-.7 2.2-.7 2.2-2.1-.5-2-3.8-1.6-4.5 1.5-2.6zm-409.7 7.3c-.7.7-1.2.8-1.2.2 0-1.4 1.2-2.6 1.9-1.9.2.3-.1 1.1-.7 1.7zM413 592c0 .5-.4 1-1 1-.5 0-1-.5-1-1 0-.6.5-1 1-1 .6 0 1 .4 1 1zm37 5.7c5.7-.7 5.5 2.2-.3 4.5-4.9 2.1-7 2.2-9.8.8-2.8-1.6-4-.4-2.7 2.5 1.5 3.4.7 3.9-3 1.8-2.5-1.4-3.2-1.5-4.6-.4-1.7 1.5-2.1 4.2-.7 5.6 1.1 1.3-2.6 9.5-4.3 9.5-2.5 0-6.5-5.9-7.2-10.5-.7-5.2-1.6-6.1-3.7-4-2 1.9-3.7 1.9-3.7 0 0-2.3-1.1-1.8-4.5 1.9-3.6 3.9-7.6 5.3-10.8 3.8-1.2-.6-3-1.3-3.9-1.6-2.6-.8-2.2-2.6.6-2.6 3.5 0 7.8-4 10.6-9.9 1.3-2.8 2.7-5.1 3.2-5.1s2.5.7 4.5 1.5c3.9 1.7 10.9 2 14.5.6 4.4-1.6 10-2.3 9.3-1.1-.4.6-.1 1.7.5 2.5 2.9 3.4 8.5.1 6.2-3.6-2.1-3.4-1.3-3.1 2.3.7 3.2 3.3 3.9 3.6 7.5 3.1zm-11-2.2c0 .8-.4 1.5-.9 1.5s-1.1-.7-1.5-1.5c-.3-.9 0-1.5.9-1.5.8 0 1.5.7 1.5 1.5zm-49 5.1c0 .8-.5 1.2-1 .9-.6-.4-.8-1.1-.5-1.6.9-1.4 1.5-1.1 1.5.7zM72.8 613.7c5.2 3.1 6.1 5.9 3.8 12.4-1 2.7-1.5 5.2-1.3 5.7.3.4.2 1.4-.2 2.1-.6 1-1.9.5-5.4-2.1-5.1-3.7-7.2-7.5-6.3-11.3.4-1.5 0-3.7-.9-5.5-.9-1.7-1.3-3.5-1-4 .9-1.4 6.4 0 11.3 2.7zm338.2-1.8c0 1.2-2 2.5-2.7 1.8-.7-.7.6-2.7 1.8-2.7.5 0 .9.4.9.9zm-171.2 18.6c-.2 1.1-1 2-1.8 2-1.7 0-2.5-3.7-1.5-6.3.6-1.5.8-1.5 2.1.3.8 1.1 1.3 2.9 1.2 4zm69.1 4.8c1.7 3.3 1.7 3.7.2 3.6-2.8-.1-4.9-1.3-7.1-4.2l-2.2-2.7 2.4-.9c3-1.1 4.4-.3 6.7 4.2zm-59.7 5c-2.4 6.9-7.6 17.7-6.7 13.7.3-1.4 1.3-5.2 2.2-8.5.9-3.3 1.6-6.8 1.5-7.7-.1-1.7 3.7-5.2 4.6-4.3.3.2-.5 3.3-1.6 6.8zm-27.9 7.6c-7.3 7.1-8.5 9.7-5.3 12.3 1.2 1 3 1.8 4.1 1.8 2.6 0 3.1 1.4 1.4 4.6-1.3 2.4-1.5 6.8-1.3 24.9.3 19.9.1 22.5-1.6 26.3-1.8 4-1.8 5.1-.6 19.5.7 8.3 1.6 24 2 34.7.4 10.7 1.1 23.8 1.5 29.1.8 9.3.7 9.7-1.4 10.4-4.2 1.3-4.1 1.5-7-25-3.8-34.2-4.4-41.8-3.7-48.7l.6-6.8h-2.9c-4.4 0-6.1 3.1-6.1 11 .1 7.1 1.3 20.1 3 32.5 1.5 10.4 3.8 35.8 3.3 36.7-.2.4-1.4.6-2.6.4-2.1-.3-2.2-.7-2.9-18.7-.3-10.1-1.1-20.9-1.8-23.9-.6-3-1.3-10.7-1.6-17-.2-6.3-.6-14.3-.9-17.8-.4-5.4-.2-6.2 1.3-6.2 1 0 2.7-.7 3.9-1.5 1.8-1.3 2-2.2 1.6-8.2-.2-3.8-1.1-10-1.9-13.8-.8-3.9-1.5-12.9-1.7-20-.2-12.8-.2-13.1 2.6-17.2 3.6-5.2 3.3-7.7-1.1-8.1-1.7-.2-3.2-.5-3.2-.8 0-.3 2.7-3 6.1-6.1 6-5.6 14.2-9.5 21.4-10.2.6 0-1.8 2.6-5.2 5.8zm14.4 3.4c-1.4 2.2-1.4 4-.8 65.2 0 3.3-.4 12.7-1 21-.6 8.2-.8 19-.5 24 .4 4.9.9 14.4 1.1 21 .5 13 1.3 24.2 2 26.3.9 2.5-2.7 2.6-4.5.1-2.3-2.9-2.8-7.4-4-33.9-.5-11.8-1.4-28.9-2-37.8-.9-15.4-.8-16.6 1-20.2 1.8-3.6 2-5.7 1.7-25.6-.2-19.3-.1-22.1 1.5-25.1 3.1-5.8 1.9-9.3-3.3-9.3-4.9 0-4.2-1.9 2.8-8.6l6.8-6.6.3 3.7c.2 2-.3 4.6-1.1 5.8zm-63.3-5.1c.6 3.2.3 9.1-1 27.5-.5 6.3-.3 10.6.6 14 1.4 4.8 1.7 13.5 2.5 60.8.3 14.3.6 32.4.8 40.2.3 12.4.1 14.3-1.2 14.3-2.8 0-11.5 4.6-14 7.4-1.9 2-3.4 2.6-6.8 2.6-4.6 0-5.3-1.1-2.9-4.5.8-1.3 1.6-6.8 2.1-15 .5-7.2.9-13.5 1-14 .1-.6.3-1.4.3-1.9.1-.6.8-.1 1.6 1 1.2 1.5 1.7 1.6 2.7.7.9-.9 1.2-6.7 1-21.5-.1-14.5.2-19.8.9-18.6.6 1 1.3 5.9 1.6 11 1.8 32.4 2 33.4 6 32.6 2.7-.5 3.5-5.2 2.8-16.5-.5-7.6-1.1-10.3-2.1-10.8-1.2-.4-1.4-2.8-1.2-13.7.3-11.2.2-13.3-1.1-13.6-1.3-.2-1.5-4-1.4-27.5 0-26.6.6-35.1 2.5-36.3.5-.3.9-2.8.9-5.7 0-5.5 2-15.7 3.1-15.7.4 0 .9 1.5 1.3 3.2zm10.1 2.1c1.1 12.4 4.5 23 7.9 24.3 1.4.5 2.5 8.2 3.2 22.8.2 4.3 1.1 10 1.9 12.7.9 2.6 1.5 6.9 1.3 9.6-.3 4.4-.6 4.9-3.9 6.5l-3.7 1.7.4 13.8c.3 7.6 1.1 18.3 1.9 23.8 2 14.4 2.6 21.6 2.9 34 .1 6 .6 11.8 1 12.7.7 1.6.2 1.8-5.3 1.8-7.7 0-7.6 0-7.4-3 .2-1.4.2-9.7.1-18.5s-.1-18-.1-20.5c.3-16.2.2-34.6-.3-41-.3-4.1-.7-13.4-.8-20.5-.1-7.2-.8-16.5-1.5-20.8-.9-5.7-.9-9.7-.2-15.3.6-4.1 1.1-12.1 1.1-17.6 0-5.6.3-9.8.7-9.5.3.4.7 1.7.8 3zm70.6 2.4c-.8 1.5-1 1.5-1.1.2 0-1.7 1-3.2 1.8-2.5.2.3-.1 1.3-.7 2.3zm19.8-2c0 .5-.4 1.7-.9 2.8-.8 1.8-.9 1.7-.9-.8-.1-1.5.4-2.7.9-2.7.6 0 1 .3.9.7zm15.1 3.8c0 1.4-.2 2.5-.4 2.5s-.6-1.1-.8-2.5c-.3-1.4-.1-2.5.3-2.5.5 0 .9 1.1.9 2.5zm-44.7 7.5c.3 1.1.1 1.8-.4 1.4-.5-.3-.9-1.2-.9-2 0-2 .7-1.7 1.3.6zm-91.3 6c0 2-1.1 4-3.5 6.4-1.9 2-3.5 4.3-3.5 5.2 0 1-.3 1.5-.6 1.1-1.2-1.1 1.8-7.8 4.2-9.4 1.4-.9 2.4-2.5 2.4-3.9 0-1.3.2-2.4.5-2.4s.5 1.3.5 3zm215.7 1.2c-.3.8-.6.5-.6-.6-.1-1.1.2-1.7.5-1.3.3.3.4 1.2.1 1.9zm-209.2 4.4c.2 1.6.1 4.5-.2 6.4-.5 2.9-.7 3.2-1.4 1.5-1.2-3.2-1.1-13.1.2-11.8.6.6 1.2 2.3 1.4 3.9zm85.1-.4c-.2 2.4-.5 5.8-.5 7.6-.1 1.9-.5 3.1-1.1 2.7-.9-.5-.6-6.4.6-12.3.8-3.8 1.5-2.4 1 2zm36.9.5c4.5.4 6.4 1 7.7 2.7 2.3 2.8 2.3 4.3 0 2.3-3.1-2.8-14.2-1.8-14.2 1.2 0 2.3 2 4.1 4.5 4.1 2.9 0 5.1 5.3 6 14 .4 3.6.9 24.5 1.1 46.4.3 38.6.4 40.1 2.4 42l2 2 2.2-2.2c1.7-1.6 2.2-3.3 2.1-6.5 0-2.3-.3-20-.6-39.2-.2-19.3-.8-36.5-1.2-38.3-.4-1.7-.4-3.2.1-3.2s1.9-.3 3.1-.6c2.1-.6 2.1-.3 2.4 9.8.4 12.9.3 35.9-.2 59.3-.2 9.9 0 19.7.4 21.7.7 3.6.6 3.8-2.7 5.2-3.8 1.6-4.7 4.1-4.3 12.6.2 4.2 0 4.5-2.6 4.8-1.8.2-2.9-.2-3.3-1.2-.8-2.1-2.2-2-6.7.4-2 1.1-4.1 2-4.5 2-.4 0-1.8-2.1-3-4.6-2.1-4.3-2.2-5.8-2.3-30.7 0-14.4.4-28.2.9-30.7.4-2.5.5-8.3.1-13-.5-5.3-.4-10.6.3-14.3.6-3.3.8-8.8.4-13-.4-3.9-.9-11.2-1.1-16-.2-6.4-.9-9.8-2.4-12.8-3.1-5.8-2.8-6.3 2.7-5.5 2.6.4 7.4 1 10.7 1.3zm84.6 5.2c-2.2 1.6-13.8 3.8-14.8 2.7-.3-.2 2.7-.9 6.6-1.6 3.9-.6 7.3-1.6 7.7-2.1.3-.5 1.1-.9 1.7-.9.7 0 .1.9-1.2 1.9zm-109.9 22.6c.1 3.8.1 11.7 0 17.5-.3 9.9.4 18.3 2.8 32.3 1.1 6.5 1.3 8.9 2.5 41.5l.8 20.4-2.9-.4c-2.8-.3-2.9-.5-3-5.3 0-2.8-.4-11.1-.8-18.5s-.9-23-1.1-34.5c-.1-11.6-.7-25.7-1.4-31.5-1.4-13.2-2.3-38.8-1.4-40.3 1.1-1.8 4.2 11.3 4.5 18.8zm111.9-16.6c-1.2 1.6-2.6 2.9-3.3 2.8-3.5-.1-4.7.5-5.5 3-1.5 4.5-.5 47 1.2 52.1.8 2.3 1.5 5 1.5 5.9 0 .9.4 3 1 4.7.5 1.7 1.6 7.6 2.5 13.1.8 5.5 2.2 13.6 3 18 1.8 10.2 2 25.4.3 26-3.8 1.3-5.2.9-5.8-1.5-.3-1.5-1.5-2.6-3-3-1.9-.4-2.6-1.3-2.8-3.8-.2-2.4-1-3.6-2.8-4.2-2.3-.9-2.4-1.2-1.7-6.7.8-5.5.9-59.5.2-73.3-.2-3.6.5-10.3 1.4-15 .9-4.7 1.8-10.1 2-12 .2-3.1.7-3.6 4.1-4.8 2.1-.6 4.7-1.9 5.9-2.7 3.3-2.3 4-1.8 1.8 1.4zm-75.6 1.1c.3.5.1 1-.4 1-.6 0-1.1-.5-1.1-1 0-.6.2-1 .4-1 .3 0 .8.4 1.1 1zm42.5 7.2c0 21.4.7 38.7 1.8 41.8 1.8 5.2 2.3 12.5 1.2 17.6-1.9 8.3-3.2 52.1-1.7 56.1.8 2.1.6 2.3-3 2.3h-3.9l-.1-21.3c-.2-62.3-.8-84.4-2.2-86.1-1.7-2-4.1-.4-3.4 2.3.3 1-.1 2.2-.7 2.6-.9.6-1.1-1.8-.6-9.6.3-5.7.6-10.5.6-10.6 0-.2 5.7-.9 9.3-1.1 2.7-.2 2.8-.2 2.7 6zm38 8.8c0 4.1.7 9.3 1.4 11.5 1.2 3.4 2 4.1 5.4 5 4.9 1.2 7.2 3.1 7.2 5.9 0 1.2.7 3.1 1.5 4.3 1.1 1.6 1.5 4.4 1.4 10.1-.3 9.1.3 10.5 3.4 9.3 3.1-1.2 5.8.1 9.5 4.3 3 3.5 3.6 4.7 3.3 7.2-.1.6.8 1.9 1.9 2.9 2.5 2.2 2.6 4.8.3 4.3-1.6-.3-2.1-1.4-4.2-8.8-1-3.9-3.6-3.2-3.6 1.1 0 2-.6 4.3-1.3 5.1-1.1 1.4-1 1.7 1 2.4 5.1 1.6 9.6 5.3 10.3 8.4.8 3.7 2.7 4.7 6.1 3.1 2.2-1 2.6-.8 3.5 1.6.5 1.4.8 6.3.7 10.7-.3 8-.3 8.1-1.8 5-.8-1.6-3.1-4.9-5.2-7.3-2.9-3.4-4.2-4.2-6.5-3.9-2.4.3-2.8.7-2.6 3.2.1 1.6 1.1 3.9 2.3 5.1 1.1 1.2 2 2.6 2 3.2 0 .6.8 2.1 1.8 3.4 1.1 1.3 2.2 3.5 2.5 4.9.5 2.2.1 2-3-1.5-7.3-8.2-8.7-11.2-8.8-18.4-.1-4.9-.7-7.5-2.3-10.1-1.2-1.9-2.2-4.3-2.2-5.3 0-1.1-.9-3.2-2.1-4.8-1.8-2.6-2.5-2.8-5.8-2.3-3.6.6-3.8.4-5.5-3.4-1.1-2.4-1.5-4.8-1.1-6.2l.7-2.2 1.5 2.1c1.7 2.5 3.6 2.7 5.3.6.9-1.1.8-1.9-.4-3.7-1.2-1.6-1.6-4.6-1.6-10.9 0-6.5-.4-9-1.5-9.9-.8-.7-1.5-2.3-1.5-3.7 0-1.3-.6-2.5-1.2-2.7-.7-.2-3.1-.8-5.2-1.2-3.6-.8-4.1-1.4-5.7-5.9-1.3-3.7-1.7-8-1.7-16.5 0-8.7.2-10.5.9-7.5.4 2.2.8 7.4.9 11.5zm-55.7-6.8c.2 4 .2 20.8-.1 37.3-.2 16.5-.5 34.5-.6 40.1 0 5.6-.6 10.7-1.2 11.5-2.4 3.1-3.4 8.1-2.4 12.3.5 2.2.9 5 .7 6.1-.2 1.6.3 2 2.6 1.8 4.7-.3 6-2.1 5.2-6.8-.4-2.2-.7-5.1-.8-6.5-.1-5 1.3-33.3 1.7-33.7 1.9-2 2.3 51.1.4 53.5-.8.9-3.2 1.2-7.6 1l-6.4-.3-.5-5c-.2-2.8-.6-25.9-.8-51.5-.4-66-.4-65.3.1-66.2.3-.4 2.5-.8 4.9-.8h4.3l.5 7.2zm-73.3 2.5c0 4.1-.3 5.4-1.1 4.6-1-1-.3-10.3.7-10.3.2 0 .4 2.6.4 5.7zm102.6 3.3c-.6 3.6-1 13.5-.9 22 .2 14.9.2 15.3-1.3 11.5-1.1-2.9-1.5-7.2-1.3-15.5.3-20.2.5-23 2.3-25.9 1.8-2.8 2.4 1.3 1.2 7.9zm-187.1 12.1c.2 11.2.1 17.1-.5 15-.9-3.8-1.4-34.8-.5-33.9.4.3.8 8.9 1 18.9zm-30.4-10.4c-1.5 2.8-4 5.9-4.1 5 0-1.6 3.1-6.7 4.1-6.7.6 0 .6.6 0 1.7zm116.5 11.9c1.2 1.7 1.3 2.8.5 4.2-.7 1.4-.7 4.6-.1 10.3.9 7.2 2.2 61.3 2 77.8-.1 5.3-.5 7-1.5 6-1.5-1.6-4.1-44.2-3.8-62.4.1-6.6.4-19.9.5-29.5.2-9.6.4-15.5.6-13.1.2 2.4 1 5.4 1.8 6.7zm-117.5-3.5c-1.2 1.9-2.1 3-2.1 2.6 0-1.4 3.1-6.9 3.6-6.4.3.3-.4 2-1.5 3.8zm24.9 16.4l.3 10-3.5.1c-1.9.1-4.1.5-4.8.9-1 .6-1.2.3-.6-1 .4-1.1.9-4 1.2-6.5.3-2.5 1.7-8.5 3.2-13.3l2.7-8.9.6 4.4c.4 2.3.8 8.8.9 14.3zm216-1.9c0 6.3 2.3 12.2 5.8 15l2.6 2.1-1.7 4.4c-2.1 5.5-2.1 8.2-.2 11.9 1.8 3.6 6.1 21.6 6.9 29.5.6 5.6.5 6.1-1.8 7.1-2.3 1.1-2.4.9-3-4-.3-2.8-1.3-8.7-2.1-13.1s-2-11.2-2.6-15c-.6-3.9-1.8-10.3-2.6-14.3-.9-4-1.3-7.5-1-7.9.4-.3-.1-1.5-1-2.5-1.3-1.4-1.8-4.1-2-10.1-.2-4.5-.4-8.9-.4-9.7-.1-.8-.1-3.3 0-5.5l.3-4 1.3 5.5c.8 3 1.4 7.8 1.5 10.6zm-45.3 8.7c-.2 2.3-.3.1-.3-4.8 0-5 .1-6.8.3-4.2.2 2.6.2 6.7 0 9zm57.6-6.8c1.1 5.3 1.8 12.4 1.1 10.5-.4-.8-1.3-2.1-2.2-2.8-1.7-1.3-4.1-9.1-3.4-11.1.9-2.6 3.7-.5 4.5 3.4zm-271.9 11.1c.3.9.3 2 0 2.5-.3.6-.2 1.8.2 2.7.4.9.6 2.7.5 3.9-.1 1.1.3 2.4.8 2.8.6.3 1.1 1.3 1.1 2.1s-.5 1.2-1 .9c-.6-.4-1.8-.4-2.6-.1-1.3.5-1.4.9-.1 3.3.9 1.6 2 7.6 2.6 13.4 1.3 11.9.5 15.5-3.6 16.5-1.6.4-2.6 1.7-3.3 4.5-1.2 4.5-4.8 12.2-7.5 16.3-2 3-10.5 7.6-14.2 7.6-4.4 0-3.7-2.6 3-11.1 1.6-2 3.2-5.4 3.7-7.5.5-2.2 1.3-6.5 2-9.7 1-5 1.5-5.9 4.3-7.1 1.8-.7 3.7-1.9 4.3-2.7 1.2-1.6 3.7-24.1 3.5-31.1-.1-2.6.3-5.7.9-6.8 1.3-2.4 4.5-2.6 5.4-.4zm19.4 6.8c-.6 7 1.6 12.1 5.2 12.1 2.7 0 3.4-1.2 7.2-11.3 2.1-5.7 2.3-6.1 2.8-3.5.3 1.5 1.4 4.4 2.4 6.3 1.7 3.2 1.8 5.3 1.3 30.4-.5 26.1-.5 27-2.6 28.6-1.2.9-2.8 2.7-3.4 4-.9 1.9-2.2 2.6-5 2.8-2 .2-3.7.1-3.7-.1s.8-1.9 1.7-3.8c1.3-2.5 1.7-5.4 1.5-11-.2-6.3 0-7.9 1.8-10.1 1.3-1.7 2-4.1 2-7 0-6.4 1.8-15.8 3.7-19.6 2.9-5.7-1.6-7-4.9-1.4-1.9 3.2-5.3 19.6-4.4 21.1.4.6-.5 3.5-1.9 6.4-1.5 3.3-2.5 7.2-2.5 9.9 0 5.5-2.6 13.4-4.7 14.2-2.6 1-12.1 1.9-13.8 1.2-1.5-.5-1.4-.9.6-3.7 1.2-1.7 2.7-4.9 3.4-7.2 1.2-4.2 1.9-4.8 7-6.4l3-.9V786c0-4.7.4-9 .8-9.6.4-.7 0-1.7-.8-2.4-1.1-1-1.9-.7-3.8 1.4-2.1 2.2-2.6 2.4-3.1 1-1-2.6-.7-4.4.9-4.4 2.6 0 3.9-4.3 4-13.3.1-5.2.6-9.2 1.3-9.9.7-.7 1.2-2.2 1.2-3.4 0-2.7 1.7-7.4 2.6-7.4.4 0 .4 2.4.2 5.4zm194.7 2.6c-.4 3.9-.9 6.9-1.2 6.7-.2-.3-.1-3.7.3-7.6.3-4 .9-7 1.1-6.7.3.3.2 3.7-.2 7.6zm-168.6 1.7c.1.7-.3 1.3-.9 1.3-.5 0-1-1.7-.9-3.8.1-3.3.2-3.4.9-1.2.4 1.4.8 3.1.9 3.7zm326.6 2.4c.5.6.5 1.3-.2 2-.8.8-1.3.8-1.7 0-.4-.6-2-1.1-3.6-1.1-2.9 0-4.5-1.2-3.3-2.4.8-.8 7.5.3 8.8 1.5zm-363.8 6.6c-.3 1-.5.4-.5-1.2 0-1.7.2-2.4.5-1.8.2.7.2 2.1 0 3zm37-1.5c-.3.8-.6.5-.6-.6-.1-1.1.2-1.7.5-1.3.3.3.4 1.2.1 1.9zm321-1.2c3.5 0 2.6.6-1.9 1.3-3 .5-3.8.3-3.8-1 0-1 .6-1.3 1.6-.9.9.3 2.7.6 4.1.6zm-129.8 13.2c0 6.2-.4 14.2-.8 17.8-.5 4.5-.7 1-.5-11 .3-19.2.2-18 .8-18 .2 0 .4 5.1.5 11.2zm133.1-8.3c8.2.9 5.1 2-6.4 2.4-5.3.1-8.1.6-8.4 1.4-.5 1.7 2.7 2.8 4.7 1.7.9-.5 6.1-.7 11.6-.3 5.5.3 9.8.6 9.5.8-.3.1-3.4.4-7 .6-8.8.6-11 1.3-11 3.1 0 1.3 1.5 1.5 10 1.3 5.5-.2 10.3 0 10.6.4.4.4-1.7.7-4.7.8-15.5.2-21.7 3.4-7.9 4.1 9 .4 11.6 2 10.1 6.1-.7 1.9-1.7 2.2-6.7 2.5-3.2.1-7 .5-8.3.8l-2.4.5.7 11.3c.6 9.8.5 11.4-.9 12-2.3.8-2.6-.9-2.3-12.5l.3-10.4-4.9.3c-7.2.5-8.7 1.5-7.9 5.5l.5 3.2-2.2-2.2c-4.8-4.5-.5-9 9.8-10 6.4-.7 6.4-2.5-.1-3.5-5.6-.8-6.7-1.4-6.7-3.7 0-2.6 2.3-4.2 7-4.8 4.1-.6 5-2.5 1.4-3.1-5.6-.8-6.4-1.3-6.4-3.6 0-1.3.6-2.8 1.3-3.3 2-1.7 7.1-3.2 8.7-2.6.8.3 4.4.9 8 1.2zM153.1 765c-.9 2.4-1 2.4-1-.7-.1-1.7.2-4 .7-5 .6-1.5.7-1.4 1 .7.2 1.4-.2 3.7-.7 5zm275 1c.1 3.6 0 7.1-.2 7.8-.2.6.7 1.8 2.1 2.5 2.1 1.1 2.6 2.2 3.3 7.7.9 7.1 3 10.3 8.3 12.6 4.4 1.8 11.6 10.4 8.9 10.4-.3 0-2.3-1.8-4.4-4-2.1-2.2-4.6-4-5.7-4-3.1 0-7.4-6.4-8.6-12.8-1.5-8-1.6-8.2-3.3-8.2-1 0-1.5 1-1.5 3.2-.1 3-.3 2.7-2-2.2-1.1-3-1.9-5.6-2-5.8 0-.1.7-.2 1.5-.2 2.1 0 1.9-2.4-.5-4.5-1.9-1.7-5.3-1.7-9.2 0-1.4.5-1.8.2-1.8-1.3s.9-2.1 3.8-2.6c2.4-.3 4.9-1.7 6.7-3.6 1.6-1.7 3.2-2.7 3.7-2.2.4.4.8 3.6.9 7.2zm-35.6 10c.4 1.2.4 3.9 0 6.1-.6 3.3-.2 4.8 2.6 9.7 1.7 3.1 5.1 7.9 7.5 10.6 2.4 2.6 4.4 5.2 4.4 5.7 0 .6-4.2.8-9.7.7l-9.8-.3-.3-2.8c-.2-1.9.1-2.7 1.2-2.7 2.2 0 4.6-2.9 4.6-5.6 0-1.3-1.1-4.1-2.3-6.2-2.4-3.7-2.6-6.3-1.2-13.5.8-4.1 2-4.8 3-1.7zm-273.3 8.2c.5 4.8-.5 6.8-3.3 6.8-2.3 0-5.4 4.7-7.3 11.2-2.1 6.8-5.3 10.8-8.8 10.8h-2.9l4.6-6.6c2.5-3.7 5.3-8.9 6.3-11.6.9-2.8 2.8-5.8 4.3-6.9 1.5-1 3.2-3.2 3.9-4.9 1.7-4.1 2.7-3.8 3.2 1.2zm314.2 14.3c2.9 2.8 4.9 4 7 4 1.6 0 3.1.6 3.4 1.4.4 1.1-.4 1.3-4.2.8-5.9-.8-8.6-2.3-8.6-4.6 0-1-.7-2.4-1.5-3.1-.8-.7-1.5-2.2-1.4-3.4 0-1.4.2-1.6.6-.6.3.8 2.4 3.3 4.7 5.5zm-89.3 10c-.8 1.6-2.2-7.8-1.4-9.5.4-.9.9.5 1.3 3.5.3 2.7.3 5.4.1 6zm77.9-6.4c0 .6-.4.7-1 .4-.5-.3-1-1.1-1-1.6 0-.6.5-.7 1-.4.6.3 1 1.1 1 1.6zm-43 4c0 1.8-.4 2.8-1 2.4-.5-.3-1-2-1-3.6 0-1.8.4-2.8 1-2.4.6.3 1 2 1 3.6zm37 .4c.7.8.8 1.5.2 1.5-.5 0-1.5-.7-2.2-1.5-.7-.8-.8-1.5-.2-1.5.5 0 1.5.7 2.2 1.5z"/><path d="M217.3 19.1c-2.4 2.5-1.5 3.9 2.6 3.9 3.2 0 4.4.6 7.5 4 2 2.2 3.6 4.3 3.6 4.6 0 .3-1.8 2.7-4.1 5.2-3 3.5-5 4.8-7.7 5.2-4 .6-4.8 1.8-3 4.2 1.2 1.5 5.4 1.7 40.8 2l39.5.3.3-2.3c.3-1.9-.1-2.2-3.2-2.2H290V24h2.9c3.6 0 4.6-1.3 2.4-3.1-1.3-1.1-7.8-1.4-30.2-1.6-15.7-.1-32.6-.5-37.6-.8-6.6-.5-9.3-.3-10.2.6zm21.1 4.8c.3.5-.1 1.5-1 2.2-1.7 1.4-4.4.4-5.2-1.9-.4-1.4 5.4-1.7 6.2-.3zm19 9.1c2.4 5.2 4.2 9.8 3.9 10.2-.2.5-3.5.8-7.3.8-6.2 0-7.1-.2-8.1-2.3-.7-1.2-2.5-3.8-4.1-5.7-1.5-1.9-2.8-3.9-2.8-4.4 0-.6 1.7-2.7 3.7-4.9 3.1-3.1 4.4-3.7 7.1-3.5 3.1.3 3.5.8 7.6 9.8zm15.1-8.5c-.1 1.9-6 11.5-7.1 11.5-.9 0-5.4-10.2-5.4-12.1 0-.2 2.8-.4 6.3-.4 3.4 0 6.2.5 6.2 1zm10.3.8c.7.8.9 4.2.4 9.7l-.7 8.5-6.7.3c-4.1.2-6.8-.1-6.8-.7 0-1 5.6-11.9 8.7-16.9 1.5-2.5 3.5-2.8 5.1-.9zm-46.1 13.9c3.3 3.1 2.9 3.8-2.2 3.8-4.9 0-5.6-1.1-2.8-4.2 2-2.3 2.2-2.3 5 .4zM235 74.4c0 1.5 4.1 7.6 5.1 7.6 1.8 0 .8-2.7-2.1-5.5-1.6-1.6-3-2.5-3-2.1zM286 143c0 .5.5 1 1.1 1 .5 0 .7-.5.4-1-.3-.6-.8-1-1.1-1-.2 0-.4.4-.4 1zM156.7 130.7c-1.2 1.1-.8 2.3.8 2.3.8 0 1.5-.7 1.5-1.5 0-1.6-1.2-2-2.3-.8zM180.3 146.7c.9.2 2.5.2 3.5 0 .9-.3.1-.5-1.8-.5-1.9 0-2.7.2-1.7.5zM204.1 163c-3.4 5.5-2.7 6.7 1.2 2 2.8-3.3 4.2-3.7 5-1.6 1 2.4 7.6 6.9 9.3 6.2 1.2-.5.6-1.5-3-5.1-2.5-2.4-4.6-4.9-4.6-5.5 0-.5-1.1-1-2.4-1-1.8 0-3.2 1.2-5.5 5zM353.5 177c-.3.5-.1 1 .4 1 .6 0 1.1-.5 1.1-1 0-.6-.2-1-.4-1-.3 0-.8.4-1.1 1zM236.7 176.8c-1 1-1.7 2.9-1.7 4.2 0 2.8-9.9 12.7-14.1 14.2-4.7 1.6-5.9 6.9-6.5 29.3-.5 19.2-.5 20.1 1.5 21.9 1.5 1.4 1.9 2.6 1.4 4.8-.7 3.6 1.1 5.2 4.1 3.6 1.2-.6 5.7-1.2 10.1-1.4 4.4-.1 9.4-.4 11-.8 1.7-.3 4.2-.1 5.6.5 1.7.7 3.4.7 5.4-.1 2.8-1.1 2.8-1.1 2.2-7.9-.8-9.7-.4-10.8 4.3-10.8 5 0 8.1-2.5 13.7-11 5.3-8.1 7.6-13.3 7.1-16.5-.5-3.5-3.5-3.3-7.8.6-4.4 4-8.4 5.4-10.4 3.7-1.8-1.5-2.7-4.9-1.5-5.7 1.4-.8 1.1-4-.8-7.9-2-4.2-4.4-4.5-10.4-1.4-2.3 1.1-4.4 1.8-4.7 1.4-.3-.3-.5-2.7-.3-5.4.1-2.7-.2-5.2-.8-5.6-.6-.3-1.1-1.9-1.1-3.5 0-4-1.7-8-3.3-8-.8 0-2.1.8-3 1.8zm4.3 5.3c0 2-5.6 8.6-6.6 7.6-.6-.6 4.8-9.6 5.9-9.7.4 0 .7.9.7 2.1zm.5 13.4c0 4.9.4 7 1.4 7.3.7.2 4-.8 7.2-2.3 4.8-2.4 6.1-2.6 7.4-1.5 2.3 1.9 1.9 2.6-2.6 3.9-2.9.9-3.9 1.7-3.7 2.9.2 1.1 1.1 1.6 2.5 1.4 2.7-.4 3.7 1.2 1.8 2.8-3 2.5-1.8 4 3.3 3.8 2.6 0 6.5 0 8.6.2 3.3.3 4.3-.1 6.8-2.9 1.6-1.7 3.3-2.9 3.8-2.6 1.1.7-3.7 7.9-7.9 11.9-1.7 1.7-3.1 3.5-3.1 4 0 2-1.6 3.5-5.2 5-3.4 1.5-3.8 1.4-6-.4l-2.3-1.9 2.8-.1c3.2 0 8.4-2.7 9.1-4.6.3-.8-.1-1.1-1-.7-.9.3-1.4-.1-1.4-1.5 0-1.6-.5-1.8-2.7-1.4-1.6.2-3.3.9-4 1.4-1.3 1-6.5 0-7.5-1.5-.3-.6-.4-2.4-.2-4.1.6-3.9-1-6.6-2.8-4.8-1.7 1.7-2.8 1.5-2.8-.7 0-1-.7-2.2-1.6-2.5-.9-.3-1.4-1.3-1-2.1.3-.8.1-1.7-.4-2-1.6-1-1.3-14.8.3-14.2.8.2 1.2 2.6 1.2 7.2zm7.9 30.4c-.7.7-4.4-3.1-4.4-4.6 0-.8 1-.2 2.4 1.4 1.3 1.5 2.2 3 2 3.2zM201.3 262.2c-1.3 1.7-8.2 17.4-9.5 21.7-.7 2.6-.6 4.4.7 7.8 1.7 4.3 1.7 4.5-.3 5.9-4.8 3.3-3.1 12.9 2.6 15.3 1.6.7 3.3 2.2 3.6 3.4.9 3.5.7 15.8-.5 24.6-.8 6.1-.8 8.6 0 9.4.6.6 1.1 2.7 1.1 4.7 0 5.3 1.3 6 11.1 6 4.8 0 9.1.4 9.4 1 1 1.7 2.1 1.2 6.8-3.3l4.5-4.3-.4-7c-.1-3.8-.6-8.3-1-9.9-.4-1.7-.7-9.9-.8-18.3-.1-17.3-.3-17.7-6.8-15.5-5.4 1.8-7 .5-6.1-5 .5-3.6.6-3.7 2-1.7 1.8 2.5 3.3 1.7 3.3-1.7 0-1.5 1.4-4.1 3.4-6.4 3.6-3.9 5.3-9.1 4.2-13.2-.6-2.4-5.2-7.7-6.7-7.7-.5 0-1.7 1.7-2.8 3.7-1 2.1-2.8 4.6-3.9 5.6s-2.6 3.2-3.3 4.8c-1.3 3.4-2.9 2.3-2.9-2.1 0-1.3-.6-4.2-1.4-6.5-.8-2.2-1.8-5.8-2.2-7.9-1-4.2-2.5-5.5-4.1-3.4zm3.1 17.7c.1 6.6.5 10.4 1.4 11.3 1.7 1.7 1.5 2.8-.6 2.8-3.5 0-4.2-2.1-4.2-12.6 0-11 .6-14.2 2.3-12.5.6.6 1.1 5.5 1.1 11zm20.6 0c0 2.8-.9 4.5-3.6 7.4-4.1 4.3-5.3 4.3-3-.2 1.9-3.6 2.1-5 .4-3.3-.7.7-1.6 1.2-2 1.2-1.4 0-.9-2.8.9-4.6 1.6-1.5 1.7-1.5 2.4.2.5 1.2.8.2.8-3 .1-4.8.1-4.9 2.1-3.1 1.3 1.2 2 3.1 2 5.4zM197.5 301c.3.5-.3 1-1.4 1-1.2 0-2.1-.5-2.1-1 0-.6.6-1 1.4-1 .8 0 1.8.4 2.1 1zM310.6 518.6c-.8 2.2-.6 9.5.3 11.9.5 1.1.4 3.3-.2 4.8-1.1 3.3.4 7.7 2.7 7.7.8 0 1.9-1.5 2.5-3.3 1.1-3.6 1-19.5-.2-21.5-1.1-1.7-4.4-1.5-5.1.4zM104.2 381.6c.2 1.1 1.1 2 2.2 2.2 1.3.3 1.7-.1 1.4-1.4-.2-1.1-1.1-2-2.2-2.2-1.3-.3-1.7.1-1.4 1.4zM101 388.4c0 .9.7 1.6 1.6 1.6.9 0 1.4-.5 1.2-1.2-.6-1.8-2.8-2.1-2.8-.4zM152 426c0 .5.5 1 1 1 .6 0 1-.5 1-1 0-.6-.4-1-1-1-.5 0-1 .4-1 1zM146.2 452.7c-1.9 4.3-4.3 7-4.9 5.5-.8-2.2-2.4-1.3-1.7 1.2.4 1.7-.1 2.8-2 4.4-3.3 2.6-3.3 3.6.3 6.1 3.5 2.5 4.5 1.6 5.5-4.6.3-2.4 2-6.3 3.7-8.7 1.7-2.4 2.8-4.9 2.5-5.5-1.1-1.7-2-1.3-3.4 1.6zM356.8 442.4c-1 .7-1.8 2-1.8 2.9 0 2 4.9 4.7 8.5 4.7 1.5 0 6 1.5 9.9 3.4 7 3.4 23.8 7.2 25.8 6 1.5-.9-1.3-3.5-3.1-2.9-1 .3-2.6-.2-3.7-1-1-.8-2.9-1.5-4.2-1.5-1.2 0-2.5-.8-2.9-1.8-1.4-3.9-3.5-5.2-8.7-5.2-5.6 0-10.7-1.5-14.6-4.3-2.9-2-3-2-5.2-.3zM451.1 537.9c-.7.5-1 1.4-.6 2 .5.9 1 .9 2.1 0 2.6-2.2 1.4-3.8-1.5-2zM62.5 523c-2.2 2.4-1.3 6.5 1.8 8.4 1.5.9 2.3.6 4.3-1.7 2.9-3.4 3.1-6.3.5-7.7-2.9-1.5-4.6-1.2-6.6 1zM68.8 540.1c-2.4 1.3-2.3 4.2.2 6.4 3.6 3.3 8.3-1.3 5.4-5.3-1.7-2.4-3-2.7-5.6-1.1zM383 547.5c-1.5 1.8-1.4 2 2.2 2.9 3.1.7 4.5-.8 2.8-2.9-1.6-1.9-3.4-1.9-5 0zM378.2 555.2c-2.1 2.1-1.3 2.8 3.2 2.8 4.1 0 6.7-1.2 4.9-2.3-2.3-1.3-7-1.6-8.1-.5zM55.2 588.2c.6 1.8 2.8 2.1 2.8.4 0-.9-.7-1.6-1.6-1.6-.9 0-1.4.5-1.2 1.2zM39.5 601.4c-1.9 1.4-1.9 1.6-.2 3.3 1.6 1.7 1.9 1.7 5.2-.1 3.9-2.1 4.5-3.6 1.6-3.6-1.1 0-2.5-.2-3.3-.5-.7-.3-2.2.1-3.3.9zM404 598.5c-1 1.2-1 1.8 0 3 1.5 1.8 3.3 1.9 7.7.3 3.3-1.2 4-3.3 1-3.3-.8 0-1.9-.4-2.3-.8-1.3-1.2-5.1-.8-6.4.8zM420.9 599.8c-1.9 1.6-1.9 1.9-.6 3.1 2.1 1.7 5.7.5 5.7-1.9 0-2.6-2.5-3.2-5.1-1.2zM427.6 598.9c-.8 1.2 2.1 3.4 3.3 2.7.6-.4.8-1.3.4-2.1-.6-1.7-2.9-2-3.7-.6zM443 600c0 .5.5 1 1 1 .6 0 1-.5 1-1 0-.6-.4-1-1-1-.5 0-1 .4-1 1zM401.3 605.2c.2.7 1 1.3 1.7 1.3s1.5-.6 1.8-1.3c.2-.7-.5-1.2-1.8-1.2s-2 .5-1.7 1.2zM423 607.6c0 .8.5 1.2 1 .9.6-.3 1-1 1-1.6 0-.5-.4-.9-1-.9-.5 0-1 .7-1 1.6zM398 609c0 .5.5 1 1 1 .6 0 1-.5 1-1 0-.6-.4-1-1-1-.5 0-1 .4-1 1zM423.5 612.1c-1 1.5.3 2.5 1.6 1.2.7-.7.7-1.3.1-1.7-.6-.3-1.4-.1-1.7.5zM422.5 617.9c-.3.5-.1 1.2.5 1.6 1.2.7 3-.2 3-1.6 0-1.2-2.7-1.2-3.5 0zM393 748.8c0 1.3 5 4.5 5.8 3.7 1.1-1-1.4-4-3.7-4.3-1.1-.2-2.1.1-2.1.6zM463.2 773.2c-1.9 1.9-1.4 2.8 1.6 2.8 3.4 0 5.7-1.4 4.8-2.9-.9-1.5-4.9-1.4-6.4.1zM472.7 778.6c-.4.4-.7 1.4-.7 2.1 0 1.1 1.7 1.3 7.8 1.1 6-.2 7.7-.6 7.7-1.8 0-1.2-1.6-1.6-7-1.8-3.9-.1-7.4 0-7.8.4zM123.8 21.9c-6.2 3.2-10.8 6.2-10.8 7.2 0 2.3 3.3 2.1 5.1-.2 1.6-2.1 1.8-2.2 2.4-.6 1 2.4 5.2 2.2 6.6-.5 1.1-2 1.2-2 2.1-.4.7 1.3 1.7 1.6 3.5 1.1 1.4-.3 3.1-.1 4 .7 1.2 1 1.8.9 2.9-.7 1.3-1.7 1.5-1.7 4.9 1.8 3.8 3.9 7.3 5.1 5.7 1.9-.5-.9-.7-2.2-.5-2.9.2-.6-.1-1.4-.6-1.8-1.8-1.1-1.2-2.3 1.2-2.7 1.4-.2 2.2-1 2.2-2.2 0-1.8-.9-2-12.5-2.3-10.7-.2-13 0-16.2 1.6zM107 31.2c-5 3.4-5 5.3-.1 2.7 2.3-1.1 4.1-2.7 4.1-3.5 0-1.8-.1-1.8-4 .8zM122.4 40c-10 .9-19.3 4.4-21.9 8.3-2.4 3.9-2.9 9.3-1 13.9 4.8 12.3 15 25.8 19.4 25.8 1 0 2.4.7 3.1 1.5.9 1.1 1.6 1.3 2.3.6.7-.7-.2-2.3-2.6-4.8-4.3-4.4-4.6-6.6-1.2-8.9 3-1.9 3.2-3.4.6-3.4-1 0-2.1-.7-2.5-1.5-.3-.8-1.7-1.5-3.1-1.5-1.4 0-2.4-.5-2.2-1.2.1-.6-1-1.8-2.5-2.5-1.6-.8-2.8-2.2-2.8-3.1-.1-2.4-2.2-4.9-4.5-5.3-2.3-.5-3.4-3.9-1.2-3.9.8 0 2 .7 2.7 1.5.7.8 1.7 1.2 2.2.9 1.6-1 6-1.2 8.9-.4 1.7.5 3.1.4 3.8-.3.8-.8 1.5-.6 2.5.8.7 1.1 2 1.6 2.9 1.2.9-.3 1.8.1 2.1.9.3.9 1 1.2 1.6.9 1.5-1 1.2-3.6-.7-5-.9-.7-1.3-1.7-.9-2.3 1.2-2 4.2-1.3 5.6 1.4 1.2 2.1 1.9 2.4 4 1.8 1.4-.4 3.3-.6 4.3-.6 2.1.1 2 .2.2-3.4-.8-1.7-1.2-4.7-1-7 .3-4.1.3-4.2-3.3-4.8-2-.3-4.1-.5-4.7-.4-.5 0-5.1.4-10.1.8zM116 79.5c0 .8-.4 1.5-1 1.5-.5 0-1-.7-1-1.5s.5-1.5 1-1.5c.6 0 1 .7 1 1.5zM92 74.8c0 .5.7 1.6 1.6 2.3 1.4 1.2 1.6 1.1 1.3-.5-.4-2-2.9-3.5-2.9-1.8zM94 80.2c.1.7.7 3.8 1.4 6.9 2.3 9.7 12 25.9 13.3 22.3.2-.7 2.4-.9 5.8-.6 3.7.3 5.5.1 5.5-.7 0-.6-1.1-1.1-2.5-1.1-1.6 0-2.5-.6-2.5-1.5 0-.8-.4-1.5-1-1.5-.5 0-.7-1.3-.3-3 .5-2.6.2-3-1.5-3-1.4 0-2.2-.8-2.4-2.3-.2-1.6-1.1-2.3-3-2.5-2.4-.3-2.8-.8-2.8-3.3 0-1.6-.6-3-1.2-3.1-.7 0-2-.2-2.8-.2-1-.1-1.4-1-1.2-2.8.2-1.8-.3-3-1.7-3.7-2.5-1.4-3.1-1.4-3.1.1zM415.4 827.4c-.8 2-.9 9.6-.5 22.9.3 8.3.1 10-1.4 11.7-2.1 2.3-1.9 2.3 5.5 2 6.1-.2 8.5-1.5 5.8-3.1-1.4-.8-1.8-2.3-1.8-7 0-8.9 1.5-8.7 11 1.4 7.2 7.6 8.4 8.5 12.2 9 4.2.4 8.8-1.3 8.8-3.2 0-.5-1.6-1.1-3.6-1.4-3.9-.7-11-6-14.5-10.8l-2.1-3 2.4-2.7c6.6-7.2 7.6-12 3.1-14.9-3.9-2.6-24-3.3-24.9-.9zm17.4 3.8c1.7 1.7 1.5 4.5-.5 7.9-2 3.4-2.8 3.8-7 3.2-3.2-.5-3.3-.7-3.3-5.2 0-5.6 1.2-7.1 6-7.1 2 0 4.1.5 4.8 1.2zM357.3 828.5c-.3.9.2 2.1 1 2.8 1.5 1.1 1.4 1.7-.6 6.7-1.2 3-2.7 5.5-3.2 5.4-.6 0-2.5-2.9-4.3-6.3-3.8-7.1-6.8-9.5-10.6-8.5-2.1.5-3.5 2.4-6.7 9.1-2.2 4.7-4.4 8.1-4.9 7.7-.5-.5-1.8-3.4-2.9-6.3-1.9-5.1-1.9-5.6-.4-7.3.9-1 1.3-2.1 1-2.4-.9-.9-16.1-.9-17.5 0-1.8 1.1-.2 3.8 1.9 3.3 2.2-.6 3.1.4 5.4 6.8 1 2.7 3.8 8.9 6.2 13.7 3.7 7.6 4.1 9.1 3.1 10.8-2 3.1-.1 4 6.9 3.1 3.5-.4 6.5-1 6.9-1.3.3-.4-1.3-2.5-3.5-4.7-2.3-2.3-4.1-5-4.1-6.1 0-2.1 8-16.9 9.2-17 .7 0 3.7 4.8 8.3 13.2 2.4 4.5 2.4 5 1.1 8.2-.8 1.9-2.4 3.7-3.5 4.1-1.2.3-2.1 1.3-2.1 2.1 0 1.1 1.5 1.4 5.9 1.4 6.4 0 8.6-1.4 5.6-3.6-1.7-1.3-1.7-1.6-.2-6.1 3.6-10.7 10.2-24.6 11.9-25.1 1-.2 1.8-1.1 1.8-1.8 0-3.1-10.6-4.7-11.7-1.9zM379.5 827.8c-4.2.5-5.2 1.8-3.2 4 1.3 1.5 1.8 4.8 2.4 15.6l.6 13.7-3.1 1.1c-7.4 2.8-2 3.7 15.3 2.4 6.6-.4 12.5-1.3 13.2-1.8.7-.5 1.1-2.7 1-4.9-.1-3-.5-3.9-1.9-3.9-1 0-2.3 1.1-2.9 2.4-1.2 2.5-3.5 3.6-8.2 3.6-3.1 0-4.7-2.8-4.7-8.5 0-4.3 1.8-5.5 4.1-2.7 2.2 2.7 3.6 2.8 4.4.2.9-2.7-.4-8-1.9-8-.6 0-2 .9-2.9 2.1-1.5 1.6-2.1 1.8-3.3.9-1.6-1.4-1.9-8.6-.5-10.9 1.1-1.7 11.4-1.9 13.4-.3 1.8 1.5 2.7.5 2.7-3V827l-10.7.2c-6 .1-12.1.4-13.8.6zM230 830.8c-6.8.1-12.9.7-13.4 1.2-1.3 1.3-.9 8 .6 9.7 1.8 2.2 3.6 1.5 4.3-1.6.5-2.5 1.2-3 4.7-3.6 6.4-1.1 7 .4 6.4 15.3-.3 6.8-1 12.9-1.5 13.6-1.7 2-.2 2.6 6.5 2.6 6.8 0 8.9-1.4 5.8-3.7-1.7-1.2-1.9-2.7-1.7-14.5.1-7.2.5-13.4 1-13.9.4-.4 2.9-.5 5.6-.2 3.5.4 4.7 1 4.7 2.2 0 1 .6 2.5 1.3 3.6 1.3 1.7 1.5 1.7 3-.6 1-1.3 1.7-4 1.7-6.1v-3.7l-5.2-.4c-2.9-.3-6.6-.4-8.3-.3-1.6 0-8.6.2-15.5.4zM278 831.1c-8 2.2-13.3 13.2-11 22.8 1.3 5.7 3.5 8.3 9.2 11.2 3.4 1.7 5.4 2 10.5 1.6 8.2-.6 12.2-3 15.3-9.2 3.7-7.5 3.4-14.6-.7-20.6-2.3-3.3-4.2-4.9-7.1-5.7-4.6-1.4-11.2-1.4-16.2-.1zm12.6 5c1.6 1.7 2 4 2.2 12.8.3 9.2.1 10.9-1.4 12.2-1.8 1.5-10.7 2-12.1.6-.4-.5-.7-6.3-.7-13 .2-10.4.4-12.2 2-13.4 2.7-2 7.8-1.6 10 .8zM125.7 832.7c-.9.8 1.2 3.3 2.8 3.3 1.4 0 2.5 3 2.5 6.8 0 3.2-4.1 4.5-11.5 3.7-3.3-.3-6.6-.9-7.2-1.3-.7-.4-1.3-3-1.5-5.7l-.3-5-5.5-.7c-6.5-.8-7.4-.4-5.6 2.5 2 3.2 2.8 27.9 1 30.5-.7 1.1-1 2.2-.7 2.6.3.3 4.2.6 8.5.6 6.3 0 7.8-.3 7.8-1.5 0-.8-.9-1.5-1.9-1.5-1.6 0-2.1-.9-2.6-4.3-.4-2.4-.5-5.6-.3-7.3l.3-2.9 8-.3c5.5-.2 8.6.1 9.8 1 2.6 1.9 3.3 8.7 1.3 12.5-.8 1.7-1.2 3.3-.9 3.7 1 .9 10.1.7 10.7-.3.3-.4.1-2.3-.4-4.2-1.2-4-1.5-23.9-.5-29.3l.7-3.6h-6.9c-3.8 0-7.3.3-7.6.7zM144.7 833.9c-.9 1-.5 1.8 1.7 3.6 2.7 2.2 2.8 2.5 2.8 12.6.1 7.8-.3 11.2-1.5 13.6-2.8 5.2-1.5 6.4 6.2 5.9 3.6-.3 9.8-.5 13.8-.5 8.3-.1 10.3-1.4 10.3-6.6 0-5.3-3.6-5.9-5.8-.9-1 2.1-1.8 2.4-7.1 2.4-6.3 0-7.1-.6-7.1-5.8 0-3.6 1-4.9 4.3-5.7 2.3-.6 2.7-.4 2.7 1.3 0 1.2.4 2.3.8 2.6 1.7 1 2.9-1.1 3.4-6.1.5-5.8-1.1-7.7-3.5-4.3-.8 1.1-2.8 2.3-4.5 2.6-3.1.6-3.2.6-3.2-3 0-5.4 2.9-7.8 8.8-7.4 3.8.2 4.7 0 5-1.5.8-4-1.3-4.7-14-4.4-8.7.1-12.3.6-13.1 1.6zM64.3 834c-8.3.3-15.4.8-15.8 1.2-.3.3-.1 2.4.6 4.7 1.3 4.4 4.3 5.6 5.4 2.2.4-1.3 1.9-2.1 5.1-2.6 2.5-.3 4.9-.4 5.2 0 .4.4.8 6.7 1 14 .4 12.7.3 13.4-1.7 14.7-1.2.7-2.1 1.6-2.1 2 0 1.2 8.9 1 13.3-.3 3.7-1 3.8-1.1 2.2-2.9-1.3-1.4-1.8-4.6-2.2-13.9-.6-14.1-.2-15.1 6.3-15.1 3.9 0 4.5.3 6 3.2 2.2 4.3 2.1 4.3 3.9 2.8 1.8-1.5 2-8.9.3-9.5-2.3-.8-12.1-1-27.5-.5zM464.8 856.1c-2.2 1.2-2.3 4.2-.3 5.9 1.8 1.5 6.2 0 7.1-2.5 1.3-3.4-3.1-5.6-6.8-3.4z"/></svg>