<svg version="1" xmlns="http://www.w3.org/2000/svg" width="666.667" height="1170.667" viewBox="0 0 500 878"><path d="M68.4 2.5C61.1 6.1 58.2 9.6 57 16.2c-.8 4.4-.8 6.5.4 9.9 1.5 4.2 1.5 4.4-1.4 8.8-3.1 4.6-3.6 6.6-2.1 9 1.4 2.1 2.8.5 3.5-3.9.4-2.5 1.6-5.1 3.2-6.5 2.4-2.3 2.5-2.5 1-4.7-1.1-1.5-1.6-4.4-1.6-8.5 0-6 .2-6.6 4.1-10.8 2.5-2.8 5.7-4.9 8-5.7 2.2-.6 4.4-1.7 5-2.5C79-.9 73.9-.3 68.4 2.5z"/><path d="M126.7.7c-.4.3-.7 1.3-.7 2.2 0 1.6-12.8 11.1-15 11.1-.6 0-3.3 1.1-6 2.5S98.6 19 96.8 19c-4.9 0-17.1 3.9-20.3 6.4-2.3 1.8-2.7 2.8-2.1 4.9.8 3.5 2.4 3.5 2.8-.1.2-2.2 1.3-3.2 6-5.4 3.2-1.5 8.8-3.2 12.5-3.8 6.9-1.1 15.8-4.9 26.7-11.5 6.6-3.9 8.8-3.8 3.9.3C120.2 14.9 93 27 87.6 27c-.8 0-3.3 1.7-5.6 3.8-3 2.9-4 4.7-4 7 0 1.7-.3 3.7-.6 4.6-.8 2.2-2.7 2-2-.2.7-2.2-.7-7.5-2.1-7.9-1.8-.6-2.2 12.8-.4 15 1.3 1.5 1.2 2.1-.6 4.6-1.2 1.5-2.6 5.7-3.1 9.2-1.1 6.4-1.1 6.4 1.9 9.1 1.6 1.6 3.4 2.8 3.9 2.8 1.9 0 7-11.5 7-15.8 0-1.8.4-2.2 1.9-1.7 2.3.7 3.8-1.2 2.2-2.8-2-2-1.2-6.4 1.8-9.6 3.1-3.3 3.8-3.6 6.1-2.1 2.2 1.4.1 4.2-4.1 5.7-5.3 1.8-3.8 4.6 3.1 5.7 3 .5 3.9 1.1 4.4 3.2.5 1.9.2 3-1 3.9-1.5 1.1-1.6 1.6-.5 4.3 1.5 3.5.3 6.7-2.5 6.7-.9 0-1.9.6-2.1 1.2-.3.7.2 1.3 1 1.3 1.2 0 2.7 1.9 2.7 3.6 0 .2-1.8.4-4 .4-3.7 0-4 .2-4 2.8 0 3.2 1.6 5.2 4.1 5.2.9 0 2.8 1 4.3 2.1 2.6 2.1 2.8 2.1 4.1.3 1.3-1.7 1.6-1.7 2.5-.4.5.8 1 2.7 1 4.2 0 2.8.4 2.7-15.5 4-1.6.2-3 .7-3 1.3 0 .5 2 .8 4.4.6l4.4-.3-.7 3.4c-.4 1.8-1.3 6.6-2.1 10.6-1.5 8.2-2.5 10.3-2.5 5 0-3.5-2.3-6.8-3.4-5-.8 1.4.5 11.2 1.7 11.9.5.3 1.3-.1 1.9-.8.7-1.1.8-.9.6.6-.2 1.4-1.1 2-2.8 2-2.2 0-2.6-.6-3.6-5-.5-2.8-.8-6.4-.4-8 .5-2.7.9-3 3.8-2.7 3.3.4 4.5-1.4 1.7-2.4-.8-.4-1.3-1-1-1.4 1-1.6-1-1.8-7.1-.8-5.4.8-6.7.6-10.7-1.2-5.2-2.4-6.8-4.9-3.7-5.7 2.2-.6 2.6-1.8.9-2.8-1.4-.9-6.9-.9-10.9 0-3.2.7-3.3.7-2.6-2.1 1-3.8 2.4-5 6.7-5.8 3.2-.6 4.3-.2 8.9 3.5 5 3.9 5.2 4 7.1 2.3 1.8-1.6 1.8-1.8.2-3.7-1-1-3-2.6-4.6-3.3-1.5-.8-2.5-1.9-2.2-2.4 1-1.5 5.8.8 8.6 4.2 2.5 3 3.1 3.2 10.4 3.6 6 .2 7.6 0 7.3-1-.3-.8-2.4-1.3-5.7-1.5-7.2-.2-11.1-3.7-11.1-10 0-2.4-.2-4.3-.5-4.3s-2.3 1.1-4.4 2.4c-2.1 1.4-4.7 2.3-5.8 2-1.1-.3-2.6.3-3.7 1.5S61 84 60.2 84C58 84 48.5 88.6 47 90.5c-.7.8-1.8 1.5-2.4 1.5-1.5 0-6.9 5.6-8.5 8.8-1.5 2.8-3.5 1.8-2.7-1.4.7-2.7-.4-3-3.4-1.2-2.8 1.8-3.6.2-1.8-3.6 1-2 3.5-4.4 6.3-6 5.3-3.2 6.9-2.7 3.5.9-1.3 1.4-2.1 2.7-1.8 3 1.1 1.1 5.9-1.6 7-3.9.6-1.4 2.9-3.7 5.2-5.2 4.9-3.3 3.4-4.2-3.1-2-5.8 2-7.3 2-7.3.2 0-2.2 5-5.2 9.8-6 4.1-.6 4.3-.5 6.3 2.9 2.3 3.8 5.7 4.7 7.9 2 1-1.3.9-1.5-1.2-1.5-1.9 0-3.5-1.9-8.8-10.7-3.6-5.9-7-12.7-7.7-15.1-.7-2.4-1.9-5.2-2.7-6.1-1-1.1-1.3-3-.9-6.3l.5-4.6-4.8-.8c-2.9-.4-10.3-3.4-17.7-7.1-7.1-3.6-13.1-6.2-13.4-5.9-.3.3 1.1 1.5 3.1 2.7 2.4 1.4 3.5 2.7 3.2 3.6-.3.8-.6 2.3-.6 3.4 0 2.7-1.1 2.4-6.4-1.6L0 26.9v6.2c0 3.4.3 5.9.7 5.6.3-.4 2.7 1.3 5.3 3.7 2.7 2.5 6.5 4.9 8.6 5.5 5.2 1.4 8.2 3.6 8.6 6.4.2 1.3 1.6 2.9 3.7 3.9 4.8 2.4 5.8 3.6 3.7 4.4-.9.4-2.4 0-3.4-.8-.9-.9-2.8-1.8-4.2-2.2C18.3 58.5 8.2 51.2 4.1 46L0 40.8V53c0 9.5.3 12.5 1.5 13.6 1.9 2 1.9 4.8 0 6.4-.8.7-1.5 2.7-1.5 4.4l.1 3.1 1.5-2.7c2.5-4.7 4.7-5.1 8.3-1.6 1.8 1.7 3.5 4.5 3.8 6.1.8 4 6.7 9.7 9.9 9.7 2.1 0 2.5.3 1.9 1.7-.4 1-1 3-1.3 4.5-.3 2.1 0 2.8 1.2 2.8 2.4 0 8.6 5.2 8.6 7.2 0 .9 1 2.9 2.3 4.4 2 2.3 2.6 2.5 4.5 1.5 2.6-1.4 2.9-.8 2.6 5.4-.1 2.7.3 6.6.9 8.5 1 3.4 6 10.8 8.3 12.2.7.5 1 1.7.7 2.8-.4 1.3 0 2 1 2 1.6 0 3 4.7 1.6 5.6-1.1.7-1.1 6.8 0 11.7.5 2 2.5 5.5 4.5 7.7s3.6 4.4 3.6 5c0 .5 1.4 1.7 3.2 2.6 2.6 1.4 5.4 1.6 16.7 1.2 12.6-.5 14-.3 18.9 1.8 11 4.8 18.9 14.2 16.3 19.3-.5.9-.4 4.1.2 7.2.7 4.3.7 6.6-.4 10-1.5 4.6-2.7 5.1-7.5 3.6-1.1-.4-2.8-.1-3.9.6-1.5 1.2-1.6 1.9-.7 4.6 1 2.7.8 3.4-1 5.1-2.4 2.2-2.1 2.4 1.7 1 2.5-.9 2.6-1.3 1.9-5.7-.7-4.5-.6-4.6 1.7-3.8 1.3.4 3.9.9 5.7 1.2 3.6.6 3.6 1.3.6 8.1-1.6 3.5-9.4 8.2-13.7 8.2-1.3 0-2.8.5-3.4 1.1-.7.7-4 1-8.7.7-5.8-.2-8.2-.8-10.5-2.6-1.7-1.2-4.3-2.2-5.9-2.2-2.8 0-3 .3-3.4 5-.7 7.4-4.3 12-11.8 14.8-6.4 2.5-8.1 5.2-3.2 5.2 6.3 0 11.4 7.6 11.3 16.9 0 4.9-.4 5.9-3.1 8.3-1.7 1.6-3.7 2.8-4.5 2.8-3.5 0-1 2 4.8 3.9 12.4 4.2 16.6 8.9 18.8 21.6 1.7 9.9.7 17.7-3.3 26.5-4.9 10.5-14.8 19.3-24.9 22-6.6 1.8-19.5 1.5-22.6-.5-2.2-1.5-2.7-1.5-4-.2-1.3 1.3-1.3 1.8.2 4.7 3 5.8-.1 10.5-7.5 11.3-3.3.3-4.5.7-9.8 2.8-2.4.9-3 2.9-.9 2.9 3.2 0 9.4 5.9 12 11.4 3.1 6.5 3.5 12.9 1.2 19.7-3.1 9-7.9 12.8-20.2 15.9L0 433.1v11.2c0 12.1-.3 11.9 4.3 3.3 1.1-2.1 1.4-4.3 1-7.3-.5-3.6-.3-4.3 1.3-4.8 4.6-1.4 12.3-5.8 15.5-8.9 4.4-4.3 8.4-15 8.2-22.1-.2-6.2-2.5-12.7-5.9-16.8l-2.7-3.2 3.8-.8c2.1-.4 4.5-1.3 5.2-1.9 2.2-1.8 5.3-8.4 5.3-11.3 0-2.5 0-2.5 9.3-2.5h9.2l-3.2 2c-4.1 2.4-5 5.8-2.8 10.3 1.3 2.7 3 4.1 7.8 6.2 6.9 3.1 8.2 4.4 6.3 6.3-1 1-2.8 1.1-7.7.5-11.2-1.5-17.9 1.9-17.9 9.2 0 4.1 4.1 7.9 10.3 9.6 6.3 1.6 7.2 2.3 7.5 5.7.5 4.8-2.5 6.2-13.6 6.2-10.8 0-14 1.3-16.6 6.7-3 6.3-1.5 11.8 4.2 14.7 1.5.7 5.9 1.9 9.9 2.6 6.3 1 7.6 1.6 10.3 4.6 3.7 4.3 4 8.7.7 10.9-1.3.8-7.3 2.2-13.3 3-16.5 2.3-20.2 3.2-25 6.6l-4.4 3v7c0 7.4 1.2 10.9 5.2 14.6 4.4 4.1 7.4 4.6 26.8 4.7 16.8.1 18.8.3 22 2.1 2.6 1.6 3.6 2.9 3.8 5.1.4 4.5-3.1 7.2-11.9 8.9-9.5 2-19.7 7-22.5 11.3-3 4.4-4 11.9-2.1 16.4 2.1 5 4.3 6.2 3.1 1.7-1.4-5.8-1-14.1 1-17.1 2.5-3.9 12.9-8.7 21.1-9.9 8.1-1.1 12.5-3.4 14.4-7.4 4.6-9.6-8.8-15.3-33.3-13.9-6.2.4-12.5.4-13.9 0-3.8-.9-9.5-6.3-11.2-10.4-3-7-1.3-11.7 5.3-15.1 4.1-2.1 17.6-5.1 22.7-5.1 5.7 0 13.5-2.3 16.1-4.6 2.8-2.6 3-5 1-9.9-1.8-4.3-9.1-8.2-17.1-9.1-9.7-1.2-13.6-6.3-10.1-13.3 2.5-4.8 4.2-5.4 15.5-6.2 6-.4 11.8-1.2 12.9-1.8 1.3-.7 2.4-2.6 2.8-4.8.6-3.3.4-4-2.7-6.5-2.1-1.8-4.5-2.8-6.5-2.8-4.5 0-9.4-4.2-9.4-8.1 0-2.2.8-3.4 3.3-5 2.8-1.7 4.2-1.9 11-1.3 6.6.5 8.1.4 9.8-1.1 3.7-3.5 1.7-7.2-5.2-9.4-5-1.6-8.1-5.2-7.7-8.7.5-4.4 3.8-5.6 13.6-4.9l8.2.6v-4c0-2.2.7-4.6 1.5-5.5 1.9-1.9 1.9-2.6 0-2.6-2.3 0-5.5 3.7-5.5 6.5 0 2.1-.5 2.5-2.7 2.4-1.6 0-3.7-.4-4.7-.8-1.7-.6-1.4-1 2-3.1 2.1-1.3 6.9-5 10.7-8.3 6.8-6 8.3-6.1 4.6-.1l-2.1 3.4h2.1c1.3 0 2.6-1 3.3-2.5 1.3-2.8 2.8-3.3 2.8-1 0 2.5-3.1 6.5-4.9 6.5-1 0-2.6.6-3.6 1.4-1.7 1.2-1.7 1.7-.5 4.5 1.2 3 1.1 3.4-.8 5.4-2 2-2.5 2-6.7.9-6.1-1.6-11-1.5-12.5.3-1.9 2.3 1.2 6.2 5.7 7.4 5.5 1.5 8.3 3.8 8.3 6.7 0 4-1.6 6-6.1 7.8-3.4 1.4-5.1 1.5-10.1.6-6.5-1.2-8.8-.4-8.8 3.1 0 2 2.2 3.2 11.1 6.3 2.6.9 5.4 2.5 6.4 3.6 2.5 2.8 3.2 10.3 1.1 13.5-3.1 4.7-6 5.8-15.9 6-10.6.3-14.7 1.5-14.7 4.5 0 2.5 3.3 4.6 8.5 5.6 5.7 1 14.5 5.1 17.8 8.2 3.6 3.4 5.2 9.2 3.7 13.7-1.9 5.9-13.7 11.5-24.1 11.5-5.7 0-15.2 2.3-18.6 4.6-2.2 1.4-2.4 2-1.8 5.7 1.6 9.4 8.2 12.1 27.2 11.1 17.5-.9 23.4 1.1 29 9.9 2.1 3.3 2.4 4.9 2 8.6-.7 6.1-2.8 7.5-13.9 9.6-15.9 2.9-23 6.7-24.8 13.4-.8 3-.7 4.6.5 7.3 2.2 5.4 5.9 6.6 27.6 9.3 7.6.9 16.4 5.7 20.1 11 1.8 2.6 3.6 5.7 4 7 .5 2.1.3 2.4-1.5 2.2-2.1-.2-2.2.2-1.8 6.1.3 7-.2 7.4-5.4 4.2-2.9-1.8-3.2-2.4-3.3-7.9-.1-3.2-.6-7-1.1-8.4-1.9-5-8.3-7.8-20.6-9.2-3.3-.4-9.3-1.5-13.4-2.6-4.1-1-7.6-1.7-7.8-1.5-1.7 1.6 10.2 5.3 21.5 6.7 8.9 1 15.5 3.6 17.2 6.8.5 1.1 1 4.7 1 8.1 0 5.2.4 6.5 2.5 8.6 1.4 1.4 3.9 3.1 5.7 3.8 2.8 1.2 3.5 1.2 5.6-.2 1.9-1.2 2.8-1.3 4.3-.4 1 .7 2.7 1.2 3.7 1.2 2.6 0 4.2 2 4.2 5.1 0 3.3 1.9 4.8 3.2 2.5.5-.9 1.6-1.6 2.3-1.6.8 0 1.5-.7 1.5-1.5s-.4-1.5-.9-1.5c-.4 0-2.2-1.3-3.9-3-2.1-2-4.2-3-6.2-3-3.6 0-5-2.4-2.8-4.7 3.2-3.2-3.2-16.9-10.9-23.2-5.3-4.3-13.3-6.8-26.5-8.2-13.4-1.4-15.8-2.7-15.8-8.4 0-8.5 4.8-11.9 21.8-15.5 11.5-2.4 16.9-5 17.8-8.6.6-2.2 1.4-1.2 6.1 7.3 14.4 25.7 37.5 50.2 61.6 65.6 1.6 1 4.5 3.3 6.5 5.1 2 1.8 5.5 3.7 7.7 4.4 2.2.6 4.9 1.8 6 2.6 1.9 1.4 1.9 1.5-1.7 3-2.1.9-4.5 2.8-5.5 4.4-1 1.5-3.8 4.8-6.4 7.3-3.8 3.8-6.1 5-13.5 7.4-14.7 4.6-17.1 7.4-8.2 9.5 3.8 1 8.6 1.1 18.2.4 20.6-1.4 40.8-1 53.6.9 13 2 13.6 2.1 20.5 5.2 2.8 1.3 7.5 3.3 10.5 4.6 3 1.2 8 3.6 11 5.2 7.3 3.9 17.6 8.2 28 11.6 4.7 1.5 14.1 5.6 21 8.9 13.2 6.6 17.2 7.4 21.1 4.3 1.3-1 4.4-2.8 6.8-4 2.4-1.3 5.7-3.5 7.5-5.1 1.7-1.5 5.9-4.8 9.3-7.1 20.1-14.3 25.6-18.5 32.5-25.6 23.4-23.6 31.6-32.1 31.9-33 .7-2.1 12.9-14.3 14.2-14.3 2.1 0 14.8-13 21.9-22.5 7.7-10.1 11.1-18.1 13.4-30.5.9-4.7 2.1-9.4 2.7-10.5.6-1.1 1.2-5.4 1.3-9.5.4-10.2 2-22 3.2-23.2 1.8-1.8 7.6 1 12.3 5.8 5.2 5.3 8.7 7.4 12.7 7.4 8 0 8.5-5.5 2.3-27.5-3-10.5-4.4-17.7-4.8-24-.4-7.7-1-10-4-15.9-4.3-8.4-11.5-34.1-12.5-44.6-.5-4.9-3.2-2.7-5.5 4.4-2.3 6.9-2.3 7.1-.7 18.4 1.9 13 2 12.6-5.8 13.7-4.7.7-7.8 2.7-5.9 3.9.5.4 3 .1 5.5-.6 5-1.3 6-1 5 1.6-.5 1.2-1.4 1.6-2.9 1.2-1.2-.3-3.1.1-4.2.9-4.1 2.9-5.6 1-6.6-8.2-.3-2.2-2.6-8.8-5.2-14.5-2.6-5.6-5.1-11.4-5.5-12.8-1-3.9-3.4-3.6-4.9.6-1.5 4-1.7 28.3-.7 55.4.7 15.9-.4 23.7-3.4 26.5-1.1 1-2 2.4-2 3.1 0 .7-.9 1.6-2 1.9-1.1.3-2 1-2 1.4 0 .3-1.3 1.5-3 2.4-1.6 1-3 1.7-3 1.5 0-.2 1.1-3.7 2.4-7.8 1.5-4.8 2.6-11.1 3-17.5.3-5.5 1-15.2 1.5-21.5.9-12 0-21.8-3.5-38-4-18.1-13.9-41.6-25.1-59.2-2.5-3.9-1.2-4.3 4.5-1.3 12.6 6.6 36.7 3.2 45-6.3l3.2-3.7 3.8 4.5c6.3 7.6 8 8.7 16 10.7l7.7 1.9-.3 3.8c-.5 5.3 3.5 10.8 9.8 13.5 4.7 2 4.9 2.2 4.7 6-.2 5.5 3 8.9 9.6 10.5 2.4.6 2.7.4 2.7-1.9 0-1.4-.6-2.5-1.3-2.5-4 0-6-6.7-3.2-10.4 2.3-3 1.8-3.6-2.4-3.6-4.8 0-10-2.9-12.3-6.7-2.8-4.9-.3-13 4.5-14.6 1.6-.5-.2-2.7-2.1-2.7-.9 0-3.3 1-5.2 2.1-2.8 1.8-4.4 2-8.8 1.5-10.9-1.3-15.7-5.8-16.7-16-.6-5.5-.2-7.1 5.3-17.9.8-1.5-3.5-.6-5.1 1-.8 1-3.1 5.5-5 9.9-6.7 16-13.2 20.6-29.2 20.8-12.1.1-18-1.9-24.8-8.8-3.4-3.4-5.7-6.8-6.8-10.1-2.6-7.5-7.7-7.3-6.4.2.3 1.8.3 3.3-.1 3.3-.3 0-2.7-2.1-5.3-4.7-7.6-7.8-20-18-30.5-25.1l-10-6.7 4.7-.7c14.2-2 18.9-6.3 19.5-17.8.5-8.1-1.3-12.5-7.3-18.5-3.4-3.4-5.7-4.5-15-7.4-6-1.8-11.7-3.7-12.5-4.1-.8-.4-1.8-2.5-2.2-4.8-.7-4.3-1.8-6.2-11-18.8-6.3-8.8-9.5-12-15.1-15.2-3.8-2.2-8.7-2.9-8.7-1.4 0 1.1 4.4 5.2 5.6 5.2 3.1 0 26.3 27.3 26.5 31.1.4 10.4.2 11.2-2.4 12.5-3.5 1.9-4.3 7.3-2.3 15.2 1.2 4.5 1.3 6.7.6 8.8-1.3 3.4 0 5 2.8 3.3 1.6-1 2.7-.9 5.9.4 2.2.8 6.7 1.5 10.1 1.6 5.1 0 6.7-.4 9.1-2.4 5-4.2 4.7-10.6-.9-18.3-2.5-3.5-4-4.4-11.4-6.8-4.8-1.6-8.6-3.1-8.6-3.4 0-.3.6-1.5 1.4-2.6 1.4-1.9 1.6-1.9 6.3-.1 2.6 1 6.8 2.5 9.3 3.3 10.1 3.2 16.4 11.7 16.2 21.7-.3 10.2-4 14.1-14.4 15.3-4.8.5-6 .2-12.1-3-5.6-2.9-7.2-3.3-9.1-2.5-1.8.8-3.5.5-8.2-1.4-3.2-1.3-7.7-3-9.9-3.7-2.2-.7-4.5-1.7-5.1-2.2-.7-.5-3.5-1.1-6.3-1.5-4.4-.5-4.9-.8-4.1-2.4 1.8-3.3 1-5.5-3.5-9.9-2.5-2.4-4.5-5-4.5-5.7 0-2.6-4.8-6.2-11.5-8.7-8.9-3.3-10.6-4.5-14.4-10.3-5.5-8.3-3.9-18.8 3.9-26.5 3.8-3.6 6-4.9 10.3-5.9 4.9-1 5.9-1 8.1.5 3.3 2.1 3.8 2 3.4-.7-.2-1.3-1.7-2.9-3.9-4.1-3.5-1.9-3.8-1.9-8-.3-2.4.9-6.8 3.5-9.7 5.7-5.7 4.3-7.3 4.8-9.2 2.5-1.2-1.5-.5-2.4 10.8-13.7 5-5.1 9.1-5.1 15.8-.3 6.9 5 10.6 6.5 16 6.5 5.3 0 11.5-3 13.4-6.5 3.4-6.4-1.6-22-9.4-29.7-5.3-5.2-5.8-4-.8 1.8 6.8 7.6 10.8 22.6 7.2 26.9-4.9 5.8-13.8 6.2-20.7.8-3.4-2.7-9.9-6.1-14.5-7.6-1.8-.6-9.1 4.9-13.5 10.1-2.1 2.5-2.2 2.5-1.6.4.8-3.3-1.2-2.7-4.3 1.3-3.2 4.2-4.2 4-1.9-.5.9-1.7 1.5-3.9 1.3-4.8-.3-1.2-1.2-.5-3.1 2.5-4.3 6.7-6.5 5.1-3-2.2.9-1.9 1.3-3.8.9-4.2-.8-.8-4 2.6-4.9 5-.2.6-.8.9-1.2.5-2.2-2.1 5.2-14.6 10.2-17 1.4-.7 3-2.1 3.5-3.1 1.4-2.9 2.2-4.2 7.1-11.8 2.6-4.1 9-14.2 14.1-22.4 5.1-8.3 12-19.3 15.4-24.5 3.4-5.2 8.4-13.2 11.3-17.8 2.9-4.5 5.4-8 5.6-7.8.3.2-.2 1.5-1 2.8-.8 1.2-2.4 3.9-3.4 5.8s-4 6.9-6.6 11c-2.6 4.1-8.4 13.3-12.9 20.5-4.5 7.1-11.9 19-16.4 26.3-4.6 7.3-8.8 14-9.3 15-.9 1.6 0 1.7 13.6 1.6 13-.1 14.7-.3 16-2 1.7-2.4 1.2-3.8-1.5-4.2-1.6-.3-2.2.2-2.2 1.6 0 1.5-.8 2.1-3.4 2.4-1.9.2-4.5 0-5.6-.4-2.1-.8-2.1-1 2-8.6 2.3-4.2 4.6-8.1 5.1-8.6.4-.5 2.6.7 5 2.8 2.3 2 4.9 3.6 5.6 3.6 2.6 0 1.2-2.9-3.2-6.8-2.5-2.2-4.5-4.4-4.5-4.9 0-1.2 12-22.7 26.1-47.1 5.2-8.9 11.1-19.4 13.1-23.3 2-3.9 4.6-8.1 5.7-9.3 1.2-1.3 2.2-4 2.5-7.1.3-3.5.8-4.9 1.8-4.7.7.2 3 .7 5.1 1 2.1.4 3.9 1.1 3.9 1.7 0 .5 1.4 2.6 3.2 4.6 1.7 2 4.2 5.5 5.6 7.8 2.4 4 4 5.2 4 2.9 0-2.2-4-9.5-6.5-11.8-3.9-3.7-3.2-4.7 4-5.5 4.4-.4 7.6-1.5 10.1-3.1 4.3-3 6.4-2.5 6.4 1.3 0 4-3.7 13.5-5.9 15.3-1.1.8-3.7 4.3-5.9 7.8-4.7 7.3-6.1 15.2-4.2 23.7 1.8 8.1 1.8 9-.5 8.7-3.2-.6-5.5-3.3-5.5-6.6 0-4.3-.9-5.2-5.4-5.9-4.2-.7-5.3-1.3-4.2-2.4.3-.4 2.7-.2 5.1.5 5 1.3 7.7.7 7.3-1.7-.2-1-1.4-1.6-3.3-1.6-3.1 0-3.3-.4-2-4.3.5-1.4 1.5-2.2 3.1-2.2 1.3 0 2.4-.4 2.4-.8 0-1.5-2.4-3.2-4.6-3.2-1.2 0-3.2-.9-4.5-1.9-2.2-1.8-2.2-2-.6-2.6 2.5-1 2.1-2.2-1.2-4-1.6-.8-3.1-2.5-3.3-3.7-.4-2.8-2.8-3.6-2.8-.9 0 1.1.5 2.3 1 2.6 2.5 1.5.8 2.6-3 2-3.2-.5-4-.4-4 .9 0 .9 1.6 2 4 2.7 2.3.7 4.7 2.3 5.7 3.8.9 1.4 2.4 3.1 3.2 3.8 1 .8 1.1 1.2.4 1.3-.6 0-1.5-.5-1.8-1-.3-.6-1.9-1-3.4-1s-4.9-.6-7.4-1.4c-4.9-1.4-6.6-.3-2.2 1.4 1.4.5 2.5 1.6 2.5 2.4 0 1.8 2.2 2.6 7.1 2.6 3.3 0 3.9.3 3.9 2.1s-.4 2-3.2 1.4c-1.8-.3-5.5-1.7-8.1-3.1-5.1-2.5-6.7-2.9-6.7-1.7 0 1 8.4 6.3 9.9 6.3.7 0 2.2 1.2 3.5 2.6 1.2 1.5 3.8 3.2 5.7 3.8 2.6.9 3.5 1.7 3.7 3.8.4 3.4-1 3.6-3.1.5-1.2-1.6-1.6-1.8-1.6-.6-.1 2.5 3.6 5.7 7.9 6.9 2.1.6 4.2 1.5 4.6 2.1.3.6 1.6.8 2.9.5 1.8-.5 2.8.2 5 3.2 1.5 2 5.1 5.9 8.1 8.7 2.9 2.7 5.6 6 5.9 7.3.7 2.3.5 2.3-3.7 1.8-12.4-1.6-21.5-1.7-22.4-.4-.7.8-.8 4.6-.3 10.3 1.4 17.8 2.2 15.6-9.6 27.9-9.5 9.8-10.5 11.2-10.5 14.6 0 2.1.6 4.2 1.3 4.8.6.5 7.1 1.7 14.2 2.6 17.6 2.3 21.7 3.1 23 4.9.6.8 2.2 1.4 3.6 1.4 1.3 0 4.5 1 6.9 2.1 3.5 1.6 4.8 1.8 5.6.9.7-.7 3.1-5.5 5.4-10.7 4.3-9.6 4.8-10.4 11.6-17.3 4.7-4.6 9.1-5 13.6-1.2 3.5 3 6.8 3.3 6.8.6 0-3.9-2.2-8.1-4.6-8.7-2.7-.7-3-1.6-1-3.3 2-1.6-1.2-8.3-3.6-7.7-1 .2-2.1 0-2.4-.5-1.1-1.9-3.2-.8-3.7 2.1-.7 3-2.7 4.2-2.7 1.5 0-1.8-2.2-7.1-6-14.5-1.7-3.3-3.1-8.1-3.6-11.8-1-9.4-3.8-9.4-3.6-.1.1 5.4-1.2 5.7-3.9 1-.9-1.5-2.8-3.1-4.3-3.5-3.5-.9-11.4-6.9-15.2-11.6-1.7-2.1-4.4-6.7-5.9-10.2-2.5-5.3-2.9-7.5-2.8-14 .2-8.8 2.4-14 9.8-22.7 5.1-5.9 8.5-16.4 6.6-19.9-1.9-3.5-5.6-3.8-9.9-.9-4.3 3-8.7 4.3-9.6 2.9-.3-.5.5-1.7 1.9-2.6 5.5-3.6 1.1-4.8-7.1-2-2.5.8-4.8 1.4-5 1.1-1.2-1.2 1.1-3.4 4.8-4.7 3.4-1.2 4.4-2.1 5-4.7 1-4 5.1-7.3 9.2-7.3 1.7-.1 4.7-1 6.6-2.1l3.5-2-6.3.5c-3.5.3-7.3 1.1-8.5 1.7-3.6 1.9-7.7 6.1-7.7 8.1 0 1.1-1.3 2.3-3.3 3.2-4.3 1.8-8.9 7.2-8.2 9.7.5 1.6.2 1.7-2.6.9-4.7-1.4-7.9-3.8-9.7-7.3-2.6-4.9-10.6-12.7-13.1-12.7-2.7 0-2.8-2.6-.1-4 1.4-.8 2.9-.7 5.6.5 2 .8 4.4 1.5 5.3 1.5 1.9 0 3.7-4.1 4.7-11 .4-2.5 1.5-5.9 2.5-7.5 1.9-3.3 7.1-7.5 9.1-7.5.7 0 2.9-.8 4.8-1.8 2.6-1.4 5.1-1.8 9.4-1.5 7.3.5 11.3 2.3 17.3 7.9 2.5 2.4 5.6 4.4 6.7 4.3 1.3 0 3.5-1.9 5.8-4.9 2.1-2.7 5-5.7 6.5-6.7C387 3.1 394 3 396.5 5c1 .8 3.6 1.6 5.9 1.6 3.2.1 4.7-.5 7.2-2.8l3-2.8 6.5 1.6c7.1 1.8 8.8 3 13.1 9.1 2.6 3.9 2.8 4.7 1.9 8-.6 2-.9 3.9-.7 4.1.2.2 4.4-1.1 9.3-2.8 4.8-1.8 9.6-3.4 10.6-3.7 3.1-.9 1.8 1.3-2 3.5-2.1 1.2-5.1 3.3-6.8 4.7l-3 2.6 4-.6c2.2-.3 5.2-.8 6.8-1.1 1.6-.4 2.7-.1 2.7.6 0 1.6-6.3 4-8.8 3.3-1.3-.3-2.2-.1-2.2.6 0 2.6 12.3-.1 16.2-3.6 2.9-2.6.6-4.3-4.4-3.1-5.4 1.2-7.2-.4-2.9-2.7 1.7-.9 3.7-1.2 4.4-.8.7.4 3.2.8 5.6.8 4 0 4.5.3 5.2 2.8.6 2.3.3 3.1-2.4 5.1-6.3 4.7-9.3 5.7-15.2 5-3.8-.5-5.5-.3-5.5.5 0 .6.9 1.1 1.9 1.1 3.3 0 3.6 2.2.8 4.6-2.6 2.2-17.3 8.4-20.1 8.4-.7 0-2.1-1.1-2.9-2.4-.9-1.3-2.4-2.3-3.4-2.2-1.3.1-2-1-2.7-4.4-.5-2.5-1-4.6-1.1-4.8-.1-.1-1.8.4-3.7 1.2-2.2 1-5.2 3.9-8.5 8.3l-5 6.8-.6 11c-.7 12.6-1.9 17.5-5.3 22.5-1.3 2-2.6 5-3 6.8-.6 2.8-.3 3.4 2.5 4.9 1.7 1 3.1 2.3 3.1 2.9 0 .6.9 1.9 2 2.9 1.5 1.3 2 3.1 2 6.5 0 5.1 1.3 7 4.7 7 1.8 0 2.3.6 2.3 2.5s-.4 2.3-1.7 1.8c-1.4-.5-1.5-.2-.8 2.8.7 3.2 1.2 10.7 1.8 28.8.3 8.1 2.1 10.7 3.3 4.7.3-2 .9-3.8 1.3-4 .4-.3 2.6.9 5 2.5 2.6 1.7 5.7 2.9 7.6 2.9 1.7 0 6 1.2 9.5 2.6 4.3 1.7 7.4 2.4 9.3 2 1.7-.3 6.7.1 11.3 1 11.3 2.1 17.6 1.6 18.9-1.4.5-1.2 1.8-2.5 2.8-2.8.9-.3 2.5-1.7 3.4-3.1 1-1.4 3.8-3.6 6.3-4.7 7.2-3.5 9-4.9 9-7.4 0-2.1-.3-2.2-3.5-1.6-2 .3-11.3.7-20.8.7-13.7 0-18.1-.3-21.7-1.6-2.5-.9-5.3-1.7-6.2-1.7-1 0-1.8-.5-1.8-1 0-.6 2.3-1 5-1 5.5 0 6.2-1.2 3.5-6-.8-1.4-1.4-5.2-1.5-8.7 0-6.1 0-6.2 5.5-11.7 4.4-4.6 6.1-5.6 8.8-5.6 1.8 0 4.3-.7 5.5-1.6 1.2-.8 5.1-1.8 8.6-2 7.7-.6 13.4 1.6 18.5 7 4.1 4.3 5.1 4.5 5.1 1.1 0-3-4.7-8.1-10.2-10.9-3.3-1.8-4.4-1.9-12.5-.9-18 2.2-26.8 5.9-32.1 13.8-3.2 4.5-4.4 10.5-3.3 15.5.8 3.8.8 4-2.7 6.1-3.2 1.8-4.1 1.9-7.4 1-3.3-1-3.8-1.6-3.8-4.1 0-4.2-3.1-5.7-7-3.3-3 1.7-3 1.7-6.4-1.6-3.4-3.3-5.6-8.9-4.8-12.4.4-1.8.4-1.8 1.8 0 .7 1 1.4 2.8 1.4 3.9 0 2.2 3.5 7.4 5 7.4.5 0 .3-1.5-.5-3.3-1.6-3.8-1-7.7 1.1-7.7 1.8 0 3.2 3.2 1.6 3.8-1.7.5-1.5 3.7.3 5.2.9.7 1.5.8 1.5.2 0-.5 1.4-1.5 3-2.1 1.7-.5 3-1.4 3-1.9 0-.4-1.6-2.3-3.5-4.2-1.9-1.9-3.5-3.8-3.5-4.2 0-.4 2-1.7 4.5-2.9 5.1-2.4 5.8-3.1 5.9-6.8.1-1.9 1-3.1 3.6-4.3 6.8-3.4 15-13.3 15-18.1 0-.7 1.6-2.9 3.6-4.8 4.4-4.2 6.4-7.9 6.4-11.8 0-2.3 1.3-4.1 6.4-8.8 6.7-6.1 13.6-16.2 13.6-20.1 0-1.3 1.6-3.6 3.8-5.7 2-1.9 6.2-5.7 9.2-8.5 4.5-4.2 5.1-5 3-4.6-14.4 2.9-24.1 4.6-25.6 4.6-1.8-.1-1.8-.2.1-1.6 1.9-1.5 1.7-1.6-2.5-.9-14.3 2.2-15.7.6-3.5-4l4-1.5-3.5.6c-1.9.3-7.1 2.1-11.5 3.9-4.4 1.9-9.3 3.7-10.9 4.1-2.5.6-2.8.5-2.3-1.1 1.4-3.5-1.2-9.1-6.3-13.9L429.1 0h-21.5c-12.7 0-22.6.4-24.3 1.1-1.5.5-4.6 2.6-6.9 4.5-2.3 1.9-4.5 3.4-4.9 3.4-.4 0-2-1.4-3.7-3-5.2-5.2-8.1-6.2-16.6-5.7-11.7.7-16.1 2-22.8 6.5-7 4.6-8.5 6.7-11.3 14.8l-2 5.9-5.1.6c-2.8.4-6.8 1.8-8.9 3.2l-3.8 2.5-5.4-1.8c-3-1-7.6-2.7-10.1-3.9-5.5-2.5-10.8-2.7-14.8-.6-4.2 2.2-3.7 2.7 1.9 1.9 5.8-.8 11.2 1 21.2 6.8 3.7 2.1 8.4 4.1 10.5 4.4 7.3 1 8.2 1.4 10.2 4.6 1.2 1.8 3.5 5.3 5.2 7.7l3.2 4.4-2.4 1.8c-1.4 1.2-3.2 1.6-4.8 1.2-4.4-1-14.9-7.3-15.5-9.3-.8-2.6-2.5-2.6-3.2 0-.6 2.3-2.3 2.6-4.1.8-.7-.7-1.2-.8-1.2-.2 0 1.6 10.3 8.8 13 9.1 3.4.3 12 3.4 12 4.2 0 .4-.6 1.5-1.3 2.5-1.3 1.7-1.5 1.7-4.5.2-3.8-2-4.2-2-4.2-.2 0 .8.9 1.7 1.9 2.1 2.5.8 3.4 3.1 2.1 5.6-1.3 2.3-3.3 2.5-5 .4-1.3-1.5-.5-3.9 1.1-3 .5.4.9.2.9-.4 0-.5-2-1.9-4.4-3.1-3.4-1.6-4.6-2.8-5.1-5.1-.5-2-2.4-4.4-5.7-6.9-5.7-4.5-6.9-4.9-6.5-1.9.3 3.4-4 5.9-8.8 5-6.3-1.1-11.9 1.3-18.6 8-3.8 3.8-6.2 7.1-6.8 9.6-2.1 7.5-3 8.1-13.9 8.6-5.3.3-11.1.8-12.9 1.2-2.2.5-3.8.2-5.5-.9-4.8-3.4-12.1-.8-15.4 5.6l-1.6 3-3.4-3.3c-3-2.9-3.9-3.2-9-3.1-3.1.1-6.2.6-6.9 1.2-1.6 1.3-2.7-.1-4.6-6-1.7-5.5-8.4-12.5-12.8-13.5-6.5-1.4-2.9-4.1 6.4-4.7 8.2-.6 13.6-3 21.3-9.5 11.9-10.1 16.5-29.7 10.2-42.8C196.5 6.3 183.3-1 175.9.2c-2.3.4-2.3.5.6 1.7 10.2 4.3 16.1 7.8 17.3 10.3 2.1 4.5 3.4 14 2.8 20.3-.8 8.4-5.5 17.2-11.4 21.7-8.4 6.4-10.5 7-20.6 6.7-8.8-.4-9.1-.3-9.2 1.8-.2 3.3-2.3 5.4-5.3 5.1-3.1-.4-4.3 2.9-1.4 3.8 1 .3 2.6 1 3.5 1.5 1 .5 2.7.9 3.9.9 8.9 0 18 18.1 13.4 26.9-.9 1.8-1.4 3.6-1 3.9 1.2 1.2 4-1.4 6-5.5 2-4.2 6.6-7.3 10.7-7.3 1.1 0 3.6 1.3 5.5 3 1.8 1.6 4 3 4.8 3 .8 0 1.5.5 1.5 1.1 0 1.4-4.5 18.2-6.4 24-.8 2.4-1.7 6.3-2.1 8.5-.6 3.8-.4 4.3 2.4 6.3 2.2 1.6 3.5 3.8 4.7 7.8 1.8 6 4.6 11.5 7.8 15.1 1.8 2 2 3.6 2 12 0 5.3-.4 11.8-.8 14.4-1.2 7 0 11.4 4.5 16.3 2.1 2.3 5.2 7.2 6.9 10.8 2.9 6.4 2.9 6.8 1.4 9.9-.9 1.8-3 4.2-4.7 5.3-8.1 5.2-1.4 15.1 8.1 12 2.3-.8 2.3-.7 2 7.5-.3 7.5-.5 8.4-2.8 10.2-1.4 1-5.6 4.3-9.4 7.3-7.1 5.7-11.4 7.5-17.8 7.5-3.5 0-4.7.8-3.3 2.2.9.8 11.8-1.2 15.5-2.9 1.9-.9 6-3.7 9-6.3 7.1-6 11.4-8.6 18.6-11 6.8-2.4 14.4-2.6 18.4-.5 3.5 1.8 3.6 2.2 1.4 4.6-1.3 1.4-2.6 1.7-6.3 1.2-7.3-.8-14.9 1.2-20.6 5.5-7.6 5.8-10.3 7-19.4 8.8-4.7.9-11.9 2.8-16 4.2-6.2 2-10 2.6-20.6 2.9-7.1.1-14.6.2-16.5.1-1.9-.1-5-.1-6.8 0-5 .1-3.4-2.2 1.9-2.8 8.3-1 8.8-2.6 2-5.8-6.1-2.7-8.4-2.8-12.7-.1-4.5 2.7-4.3.9.2-3.1 4.6-4 6.3-4.6 15.2-5.5 3.9-.4 7.2-1 7.2-1.4 0-.4-1.6-1.5-3.5-2.4-4.6-2.2-4.4-3.4.8-3.9 3.5-.4 5 .1 8.9 2.9 2.6 1.8 5.8 3.3 7.1 3.3 2.1 0 8.7 5.5 8.7 7.3 0 .4-1.1.7-2.5.7s-2.5.4-2.5 1c0 .5.4 1 .9 1 .4 0 2.5 1.1 4.6 2.5 4.2 2.9 4 2.9 4.8-.6.9-3.8-7.6-13.9-11.7-13.9-1.6 0-4.5-1.2-6.4-2.7-1.9-1.4-4.8-2.9-6.5-3.2-4.3-.9-7.1-5.2-7.2-10.9 0-4.5-.1-4.7-3.2-5-2.3-.2-3.7.3-5.6 2.4-1.9 2-3.7 2.8-7.4 3.1-5.8.6-9-.8-14.6-6.2l-3.8-3.7 2-4.9c1.2-2.6 2.1-6.3 2.1-8.1 0-4.7 1.2-6 4.4-5.2 1.7.4 3.5.1 5.1-1 3.2-2.1 5.4-2 8.5.4 2.3 1.8 2.4 2 .5 2.1-1.1.1-4.2.1-6.9-.1-7-.3-4.9 1.6 2.5 2.3 6.3.5 10.9-.4 10.9-2.3 0-.6-1.6-2-3.5-3.1-3.6-2.1-4.5-4.9-2.2-6.6 2.2-1.8 5.6-2.1 6.8-.7.7.8 2.9 1.3 5.8 1.2 4.9-.1 18.5 2.2 19.7 3.5.4.4 1.7.7 3 .7 3.2 0 8.1 4.4 9.4 8.6 1.8 5.4.5 10.9-3.2 14.5-3.4 3.2-4.4 3.3-12 1.4-2.1-.6-2.8-.4-2.8.8 0 2.8 11.2 3.7 15.8 1.3 1.5-.8 4.1-2.8 5.7-4.6 2.6-2.7 3-3.8 3-9 0-4.4-.5-6.6-2.1-8.7-3-4-8.2-7.3-11.6-7.3-2.2 0-2.8-.4-2.6-1.8.2-1.2-1.8-2.7-7.7-5.7l-8-4 .3-3.8c.2-3.2-.5-5-5.1-11.5-3-4.2-8.9-12.9-13.2-19.2-4.3-6.3-8.8-12.7-10.2-14.1-2.3-2.5-2.3-2.7-.8-6.3 1.9-4.6 1.2-9.3-2.2-14.3-2-3-2.3-4.1-1.4-5.5 1.3-2.1 5.1-11.9 5.1-13.2 0-.4-.7-.6-1.5-.2-.9.3-1.5 0-1.5-.7 0-3.1-5.6-6.6-14-8.7-4.7-1.2-9.1-2.3-9.8-2.6-1-.3-.7-1.2 1.2-3.5 3-3.6 3.2-5.6 1-8.8-1.6-2.2-1.6-2.5.3-4 1-.9 2.7-2.8 3.6-4.3 1-1.6 3.3-3.4 5.2-4.2 3.5-1.5 5.4-4 4-5.4-.3-.4-1.2.1-1.9 1.1-1.7 2.2-3.2 2.2-5.9-.4l-2.2-2 2.6.6c3.3.8 8.5-1.7 9.4-4.5.3-1.1 2.6-3.6 5-5.6 4.5-3.6 7.7-8.6 8.9-13.9.6-2.8.5-2.9-.9-1.1-.8 1.1-1.5 2.4-1.5 3 0 .6-.7 0-1.6-1.2-1.5-2.2-1.7-2.2-3.5-.6-1.5 1.3-1.6 2-.7 3.1 1.8 2.2-4.3 7.9-9.4 8.7-2.2.4-4.2.5-4.4.3-.2-.2 2.7-3.5 6.5-7.3 4.8-4.9 7.9-9.3 10.5-14.6 4.1-8.5 6.6-11.5 6.6-7.9 0 1.9-1.4 5.1-5.7 12.5-1.6 2.7-.8 3.4 1.5 1.3 1-1 2.4-1.7 3-1.7.7 0 1.2-1.1 1.2-2.3 0-1.5.9-2.8 2.4-3.5 1.7-.8 3.9-4.1 7.1-10.8 5.8-12.2 5.3-14.9-.6-3.2-2.4 4.9-4.6 8.8-4.9 8.8-1.2 0 .3-6.5 1.9-8.5 1.9-2.3 5.9-11 6.3-13.9.5-3.2 2.8-3.1 2.8.1.1 2.6.1 2.6 1.2.8.6-1.1 2-3 3.1-4.3l2-2.2h-18c-9.9 0-18.3.3-18.6.7zM145 5.2c0 3.5-5.8 11.1-11.7 15.4-5.6 4-5.8 5.7-.3 2.9 1.8-.9 3.4-1.5 3.6-1.3 1 1.1-5.1 7.8-10.4 11.6-5 3.5-6.5 4.1-9.1 3.6-1.7-.4-3.1-1-3.1-1.5s2.3-2.5 5.1-4.5c3.4-2.5 5.2-4.6 5.6-6.6.4-2.1 1.8-3.6 5.2-5.6 6-3.5 9.5-7.8 11.5-14.5.8-2.5 3.6-2.1 3.6.5zm-7-.2c0 4.1-5.8 10.2-13.6 14.3-7.6 4-8.9 3.3-1.6-.9 3.6-2.1 6.2-4.2 6.2-5.1 0-.9 1.7-3.4 3.8-5.4C136.6 4 138 3.3 138 5zm13.5.1c1.4 2.2-7.3 16.4-9 14.8-.6-.7 6.7-15.9 7.6-15.9.4 0 1.1.5 1.4 1.1zm338 15.6c-3.2 2.5-11.8 6.3-14.2 6.3-1.9 0-2.3-.6-2.3-2.9 0-3.8 1-4.4 9.5-5.7 7.6-1.1 10.3-.3 7 2.3zm-380 3.2c-1.6 1.4-5.5 2.3-5.5 1.3 0-1.2 1.7-2 4.5-2.1 1.1-.1 1.5.3 1 .8zM121 27c-2.5 4.7-19.1 11.9-20.2 8.8-1.2-3.3.8-6 5.2-7.5 2.5-.7 5.4-1.8 6.5-2.3 2.2-1 7.6-1.8 8.8-1.2.4.2.3 1.2-.3 2.2zm-22 1c0 .5-.4 1-1 1-.5 0-1-.5-1-1 0-.6.5-1 1-1 .6 0 1 .4 1 1zm378.2 2.1c-.2.8-1.3 2.2-2.5 3.1-2.5 1.9-20.1 11.8-21.1 11.8-.3 0-.6-1.6-.6-3.5 0-3.3.3-3.7 4.8-5.5 2.6-1.1 5.4-2.5 6.2-3 6.1-4.2 13.9-5.9 13.2-2.9zM19.5 31c2.5 1 5 5.4 4 7.1-.7 1-4.5-.8-8.4-3.9-4-3.2-1.1-5.3 4.4-3.2zM4.9 34.1c1.7 1.6 2 2.4 1.1 3.3-.9.8-1.6.5-3.1-1.3-3.4-4.2-2-5.7 2-2zm92.1-.2c0 1.5-6.4 6-9 6.3-3.1.4-3.7-1.8-.8-2.8 1.3-.4 3.4-1.5 4.7-2.5 2.5-2 5.1-2.5 5.1-1zm32.3 5.6c-.3 3.5-8.1 11.8-16.5 17.6-6.3 4.3-7.1 5.5-3.4 4.5 1.4-.3 2.7-.2 3 .3 1.2 1.9-.7 4.1-5 5.7-4.9 1.9-5.4 2.8-2.3 4.5 2 1 2 1.1.2 2.4-1 .7-2.7 1.5-3.8 1.7-1.7.3-1.9-.3-1.6-4.7.1-2.8.9-5.7 1.7-6.6.8-.8 1.4-2.3 1.4-3.3 0-.9 1.4-2.5 3.2-3.4 4.6-2.5 10.5-7.9 11.1-10.2.3-1.2-.1-2.3-1-2.8-1.2-.7-.2-1.8 4.4-5 6.7-4.7 8.9-4.9 8.6-.7zM36.8 38c.6 0 1.2.7 1.2 1.5 0 1.5-2.6 2-5.4.9-2.6-1-2-3.7.7-3 1.2.3 2.8.6 3.5.6zm69 1.2c.8.8 1.5.8 2.7-.2.8-.7 1.5-.8 1.5-.2 0 1.7-6.9 7.2-9 7.2-2.1 0-5.5-5.4-4.5-7 .9-1.4 7.9-1.2 9.3.2zm8.6 1.9c-2.5 2.7-3.7 2.3-1.8-.6.9-1.4 2-2.2 2.6-1.9.5.3.2 1.4-.8 2.5zm-102-1.2c.3.4 1.9 1.1 3.6 1.4 2.1.5 3.4 1.5 4 3.3 1.3 3.4 1 3.7-3.1 2.2C12.5 45.3 8 42 8 40.3c0-1.4 3.6-1.8 4.4-.4zm403.3.7c.4 1.2-2.4 6.3-6.4 11.3-.2.3-1-.4-1.7-1.5-1.3-1.7-1.2-2.3.6-5.4 3.4-5.7 6.3-7.4 7.5-4.4zm52.3.2c0 1.1-13.1 8.9-16.4 9.8-2.2.5-2.8.4-2.4-.7.2-.7 1.9-1.7 3.6-2.1 1.8-.5 5.8-2.4 8.9-4.3 6.4-3.9 6.3-3.8 6.3-2.7zm6.1 1c-2.2 4.1-19.5 19.4-25.1 22.2-7.2 3.6-18.1 6.4-21.5 5.6-3.7-.9-2.3-2.2 3.2-3 2.7-.3 7.1-1.7 10-3 8.6-4.1 12.4-9.6 5-7.5-4.9 1.4-6.2 1.2-4.7-.6.7-.8 2.5-1.5 4-1.5 4.9 0 13.7-3.7 21.1-8.9 7.7-5.4 9.6-6.2 8-3.3zM83.7 43.6c.7 1.8-2.3 4.7-3.8 3.8-1-.6 1.1-5.4 2.3-5.4.5 0 1.1.7 1.5 1.6zm-55.8 1.1c.6 1.2 3 2.2 6.8 2.8 4.9.9 5.8 1.3 6.1 3.3.3 2.2.1 2.3-3.5 1.6-2.1-.3-4.9-1.7-6.3-2.9-1.4-1.3-3.5-2.6-4.7-3-1.3-.3-2.3-1.3-2.3-2.1 0-2 2.7-1.8 3.9.3zm422.1-1c-.1 1.9-9.1 10.3-11 10.3-.4 0-1.2-1.1-1.8-2.5-1.1-2.4-.9-2.6 4.6-5.4 5.8-3 8.2-3.7 8.2-2.4zm-339.1 3.9c-1.1 1.3-.9 1.4 1.4.9 4.1-1.1 2.5 1.8-3 5.5l-4.6 3-4.1-3.7c-5-4.5-5.3-5.1-2.4-5.2 4.7-.1 12.1-1.1 12.6-1.6 1.2-1.2 1.3-.4.1 1.1zM17.8 59c5.9 3.2 6.6 3.9 7.8 8 .8 2.5 1.4 4.5 1.4 4.6 0 0-2.8-1.3-6.2-3-6.2-3.1-14.5-10.5-17.9-16.1-3.3-5.3-2.1-5.7 3.2-1.3 2.8 2.4 8.1 5.9 11.7 7.8zm403.7-11c.8 1.3-4.3 6-6.6 6-2.4 0-2.4-.6.4-4 2.2-2.9 5.1-3.8 6.2-2zm12.9 3.5c1.1 2.9-2.2 4.5-9.2 4.5h-6.6l2.1-2.2c1.9-1.8 5.7-3 11.9-3.7.7 0 1.4.6 1.8 1.4zm-398 3c4.6 2 4.8 4.5.4 4.4-4.7-.1-10.2-2.3-10.6-4.2-.4-2.2 5.1-2.3 10.2-.2zm95.8.7c-.7.7-1.2.8-1.2.2 0-1.4 1.2-2.6 1.9-1.9.2.3-.1 1.1-.7 1.7zm209.8-.4c0 1.5-2.4 3.2-4.7 3.2-2.9 0-3-1.4 0-2.8 2.7-1.3 4.7-1.5 4.7-.4zm63.8 1.3c-.2.6-.8 1-1.3 1s-1.1-.4-1.3-1c-.2-.6.4-1.1 1.3-1.1s1.5.5 1.3 1.1zm30 2.1c-.3.7-1.7 1.5-3.3 1.6-1.6.2-4 1.2-5.3 2.3-2.8 2.2-7.2 2.5-7.2.6 0-2.3 2.3-3.7 6-3.8 1.9 0 4.4-.4 5.5-.9 3-1.3 4.7-1.2 4.3.2zM125 59c0 .5-1.3 1.6-3 2.5-3.4 1.7-4.1 4-1 3.2 1.1-.3 2-.1 2 .4s-1.1.9-2.5.9c-4.9 0-4.4-5.7.6-7.1 3.5-1 3.9-1 3.9.1zm320-.1c0 1.3-6.5 4.2-10.8 4.8l-3.7.5 2.5-1.8c3.9-3 12-5.3 12-3.5zm-29.1 1.7c-1.8 2.1-4.4 2.5-7.2 1.1-3.5-1.8-2.8-2.3 3.3-2.4 4.1-.1 4.8.2 3.9 1.3zm-126.4 0c.9.4 2.5 2.4 3.6 4.6 1.1 2.1 2.6 4.1 3.4 4.5.8.3 1.5 1.7 1.5 3.1 0 1.4 1.2 3.8 2.7 5.4 3.3 3.5 4.4.9-12.2 27.2-4.4 7-9 14.5-10.3 16.6-1.3 2.2-2.7 4-3 4-.4 0-2.3-4.2-4.2-9.3-1.9-5-4.9-12-6.7-15.4-1.8-3.4-3.3-7.1-3.3-8.3 0-1.1-1.8-4-4-6.4-4.6-4.9-4.9-7.2-1.8-12.7 3.1-5.6 5.2-6.5 14.1-6.7 7.7-.1 7.9-.1 9.5 2.8.9 1.6 2.8 3.2 4.1 3.5 3 .8 4.9-.8 3.3-2.8-1.7-2.1-1.9-8.7-.2-9.7 1.8-1.2 1.5-1.1 3.5-.4zm33 .5c.4.5.4 2.1.1 3.5-.5 1.9-1.1 2.4-2.6 1.9-1.3-.4-2.3.1-3.3 1.7-7.6 12.3-9.5 15.3-11.6 18.1-1.8 2.6-2.2 2.7-1.6.9.4-1.3 1.6-3.8 2.7-5.5 1.1-1.8 4.1-6.7 6.7-10.9 6.8-11 8.1-12.3 9.6-9.7zM9.6 65.5c3.3 1.9 7.8 4.4 10.2 5.5 2.3 1.2 4.2 2.3 4.2 2.4 0 .2-1.6 1.3-3.5 2.5-3.3 1.9-3.8 2-6 .5C10.4 73.7 1.3 62 3.4 62c.2 0 3 1.6 6.2 3.5zm34.3-1.9c3.2.7 3.9 3.2.7 2.6-1-.2-3.3.6-5.2 1.7-4.5 2.7-9 2.7-10.4.2-1.2-2.3-.4-3 4.4-4.2 4.2-.9 6.7-1 10.5-.3zm364 1.7c1.3 1.6.5 2.7-2.1 2.7-1.1 0-1.8-.7-1.8-2 0-2.3 2.2-2.7 3.9-.7zM456 67c0 1.8-8.5 9.6-13.6 12.5-2.7 1.6-5.8 3.6-6.9 4.5-1.1 1-2.7 2-3.5 2.3-1 .3-.7.6.8.6 1.2.1 4-.8 6.2-1.9 4.5-2.3 6-2.5 6-.8 0 2.1-10 10.9-14.7 13l-4.5 2-1.9-2.1c-2.1-2.2-3.9-2.7-3.9-1.2 0 .6.5 1.3 1 1.6 1.5.9 1.2 4.5-.4 4.5s-2.6-2.1-2.6-5.4c0-1.6.9-2.4 3.3-3.1 2.5-.8 3.2-1.6 3.2-3.4 0-1.9-.8-2.7-3.4-3.6-5.4-1.8-4.7-3 1.9-3.1 4.4-.1 6.6-.6 8.1-2 2-1.8 2-1.8-1.3-3-2.9-1-3.1-1.3-1.3-1.9 1.1-.5 2.9-1.6 4-2.5 1.1-1 4-2.1 6.5-2.4 2.5-.4 6.8-1.7 9.5-3 5.6-2.7 7.5-3.1 7.5-1.6zm-28.8 5c1.1 0 1.8.5 1.6 1.2-.6 1.7-6.4 2.2-10.8.9-1.9-.5-4.8-1.3-6.5-1.6l-3-.7 2.2-1.8c2.2-1.7 2.5-1.7 8.4.1 3.3 1 7 1.9 8.1 1.9zM48.8 70.7c.2.9-.8 1.3-3.2 1.3-3.4 0-5.2-1.1-3.9-2.4 1.1-1.1 6.6-.2 7.1 1.1zm66 2.2c.5 3-1 4.5-3.6 3.7-2.7-.9-3.4-3.2-1.5-5.1 2.1-2.2 4.7-1.5 5.1 1.4zm289.2-.3c0 .8-.4 1.2-1 .9-.5-.3-1-1-1-1.6 0-.5.5-.9 1-.9.6 0 1 .7 1 1.6zM38.9 73.9c1.9 1.2.5 3.1-2.4 3.1-1.3 0-4.5 1.1-7.1 2.5-3.5 1.9-5.1 2.2-6.5 1.4-2.6-1.3-2.4-2.4.9-4.7 3.7-2.7 12.4-4 15.1-2.3zm370.5 2.7c1.7 1.6 2.2 4.4.8 4.4-1.3 0-3.9-2.4-4.5-4.3-.8-2.2 1.6-2.3 3.7-.1zm-6.4 2.5c0 .5-.4.9-1 .9-.5 0-1-.7-1-1.6 0-.8.5-1.2 1-.9.6.3 1 1 1 1.6zm20.3 0c4.8 1.2 4.8 2.9-.1 2.9-3.6 0-8.2-2.2-8.2-4 0-.8.9-.7 8.3 1.1zm-313.4-.2c2.5 1.6.1 3.4-3.9 2.8-3.2-.4-3.9-.2-4.3 1.4-.7 2.5-2.4 2.4-3.7-.1-.9-1.7-.7-2.2 1.2-2.9 1.3-.4 3-1.1 3.8-1.4 2.3-.8 5.4-.8 6.9.2zm-75.1 4.8c.2 1.6-.5 2.6-2.7 3.7-6.2 3.3-8.8 1.1-4.2-3.5 3.5-3.4 6.4-3.5 6.9-.2zM22 85.4c0 .7-.3 1.6-.7 1.9-1 1.1-3.3-1.3-3.3-3.5 0-1.6.3-1.7 2-.8 1.1.6 2 1.7 2 2.4zm393 1.2c1.4.7 3.3 1.5 4.3 1.8 1 .3 1.7 1.2 1.5 1.9-.8 2.2-3.7 1.9-7.3-1-1.9-1.5-4-2.8-4.7-2.8-.6 0-1.3-.6-1.6-1.3-.5-1.5 3.7-.8 7.8 1.4zm-307.2 0c1.7 1.2 2.2 2.4 2 4.7-.2 2-.8 3.2-1.8 3.2-1.1 0-1.4-.8-1.2-2.9.2-1.6-.4-3.6-1.4-4.7-2.1-2.3-.7-2.5 2.4-.3zm289.5 3.8c-.9 4-3 4.6-2.5.7.4-3.1 2.4-6.9 2.9-5.5.2.6 0 2.7-.4 4.8zM404 93c0 5.9-1.1 8.7-2.9 7.6-1.4-.9-1.4-6.8.1-11.8 1.5-5 2.8-3.1 2.8 4.2zm-96-3.1c-1.1 2.2-3.4 6.4-5.1 9.3-6.3 10.6-17.6 30.4-19.1 33.3-.8 1.6-6.3 11.3-12.1 21.5-7 12.1-11.4 18.7-12.8 19.2-4.8 1.8-3.8-1.1 5.4-14.9 4.1-5.9 9.3-14.2 11.7-18.3 2.4-4.1 4.9-8.2 5.6-9 .6-.8 2.4-4 4-7 1.5-3 5.5-9.7 8.8-14.7 3.4-5.1 7.4-11.4 9-14 1.6-2.7 3.5-5.8 4.3-7.1 2.2-3.7 2.5-2.5.3 1.7zm-55-2.3c0 .3-.9 1.7-2 3.1-2.2 2.9-4.4 9.8-3.5 11.3 1.2 1.9-.7 8-2.4 8-1.3 0-1.3-.2-.2-.9.9-.6 1.1-1.8.6-4.2-1.3-5.7-.7-14 1.1-16 1.6-1.7 6.4-2.7 6.4-1.3zm-39.3 1.6c.6.7 1.3 5.2 1.7 10 .7 8.4.6 8.8-1.3 8.8s-2.1-.6-2.1-8c0-6.9-.3-8.1-2-9-1.1-.6-1.8-1.5-1.5-2.1.9-1.3 4.1-1.1 5.2.3zm24.4 8.8c.3 7.5-.5 11-2.2 9.3-1.4-1.4-1.9-15.6-.6-17.1 1.7-2.2 2.5 0 2.8 7.8zm-11-4.5c.4 1.7.7 5.5.8 8.6.1 5-.1 5.7-2.1 6.2-3.7 1-4.8-.9-4.8-8.7 0-7.4 1.1-9.9 4-9.4.8.2 1.8 1.7 2.1 3.3zm30.4.7c-.4 1.2 0 2.7 1 3.8 1.7 1.9 1.6 2-.9 3-3.4 1.3-6.6 1.3-6.6.1 0-1.8 2.1-6.6 3.7-8.3 1.9-2.2 3.6-1.3 2.8 1.4zM48.4 96.7c-.3 2.7-1.1 5.6-1.6 6.6-1.1 2.2-4.1 1.8-4.6-.5-.5-2.7 3.5-10.8 5.3-10.8 1.4 0 1.5.8.9 4.7zm366.5 8c.1 9-1.8 8.5-3.5-1-.8-4.6-2.4-5.8-2.5-2l-.1 2.8-.7-2.5c-.5-1.8 0-3.5 1.8-6.1l2.6-3.7 1.2 3.2c.6 1.7 1.2 5.9 1.2 9.3zm-312.6-5.2c1.3.8 6.5 2.6 11.7 3.9 12.4 3.2 14.7 4.1 15.4 6.4.6 1.8-5.7 22.5-7.6 24.9-.7.9-2.2.7-6.1-.6-7.9-2.7-10.7-3.3-10.7-2.1 0 .5 1.8 1.3 3.9 1.6 4.7.8 10.5 4 9.6 5.4-1.7 2.7-20.5 15-22.9 15-.8 0-4.2-1.2-7.5-2.6-5.4-2.4-6-2.9-5.5-5 .6-2.5.4-2.7-4.8-3.8-1.6-.4-2.8-.2-2.8.4 0 .5 1.1 1 2.5 1s2.5.4 2.5 1c0 .5-.7 1-1.5 1-2 0-1.9 1.8.5 6.5s2 5.4-1.7 2.9c-1.5-1-3.5-1.8-4.3-1.6-1 .1-1.1-.1-.2-.4 1.6-.8 1.5-2.9-.3-4.4-1.9-1.6-1.9-4.9 0-5.6 1.1-.5 1.3-1 .5-1.9-.7-.9-.7-2 .1-3.8 1.3-3 .4-9.6-1.5-10.3-.7-.3-1.3-2.4-1.4-5.2-.2-7.3-.7-11-1.5-11.8-1.4-1.4-.7-2.5 1.6-2.2 2.3.3 2.5 1 4.2 15 .8 6.4 3.5 6.7 3.6.5v-4.2l1.5 4.5c1.8 5.9 1.9 5.7-1.7 7.5-6.1 3.2-1.8 2.8 5.2-.5 6.4-2.9 7.5-3.1 10.7-2.2 4.5 1.4 5.3.8 1.5-1-2.6-1.3-2.8-1.7-2.5-6.3.3-6.4 2.2-18.4 3.3-21.3 1-2.6 3-2.8 6.2-.7zm106.1 1.1c.4 1.5.2 3.2-.3 3.7-1.4 1.4-1.7.9-2.6-3.1-.5-2.5-.3-3.2.8-3.2.8 0 1.8 1.2 2.1 2.6zm-5.4 3c0 1.6-1.6 1.9-2.5.4-.8-1.3.4-3.2 1.6-2.5.5.4.9 1.3.9 2.1zm-144-.8c0 .4 1.1 1.9 2.5 3.4s2.1 3 1.5 3.3c-2.6 1.6 0 14.9 3.2 16.6 1 .5 2.5 2.3 3.3 3.9 1.4 2.7 1.3 3.5-1.1 11.1-1.4 4.6-2.8 8.8-3 9.4-.6 1.4 7.2 6.9 10 7.2 5.7.4 10.8 1.8 17.4 5 8.1 3.8 9.8 3.7 13.6-.8 1.4-1.6 2.9-2.9 3.4-2.9 1.4 0 10.2-8 10.2-9.3 0-.7.7-2.1 1.6-3.2 1.4-1.9 1.5-1.9 4.1 1.3 1.4 1.8 3.1 3.1 3.8 2.8 1.2-.4 10.5 9.2 10.5 10.8 0 .3 1.4 2.5 3 4.8 1.7 2.4 6 8.7 9.6 14 3.6 5.4 7 10 7.5 10.4 2.9 1.7-2.8 10.4-6.9 10.4-1.1 0-2.7 1.1-3.6 2.5-1.1 1.6-2.6 2.5-4.3 2.5-1.5 0-3.4.7-4.4 1.6-1.6 1.4-1.7 1.1-2.4-4.5-.4-3.3-.4-7.7-.1-9.8 1.5-8.6-3.2-33.2-6.9-36.3-2.4-2-2.7.8-.7 6.3 1.1 2.8 2.3 8.1 2.6 11.7.4 3.6.9 8.5 1.2 11 .9 7.9 1.3 22.4.7 24.7-1.2 5.3-3.3 1.1-5.2-10.9-.6-3.6-2-9.4-3.1-12.8-1.1-3.5-2-6.8-2-7.4 0-1.8-2.7-5.2-3.5-4.4-.4.4.4 5.3 1.8 11 2.6 10.7 4.7 22.1 4.2 22.6-.4.4-3.1-8.5-4-13.3-.7-3.3-7.2-10-13.4-13.9-5.9-3.7-12.8-5.4-20-4.9-8.9.7-19.1-.5-19.1-2.2 0-.8-1.5-2.1-3.4-3-5.4-2.6-8.9-6.9-8.8-11 .1-7.9.1-7.8 2.2-7.2 3.2.8 2.5-2.7-1.3-6-1.8-1.5-4.5-5.4-6-8.6-1.5-3.1-3.1-5.7-3.7-5.7-.5 0-1.7-1.2-2.7-2.6-1.3-2.1-1.7-4.5-1.5-11.1.3-10 2.2-14.2 7.3-16 4-1.4 5.9-1.6 5.9-.5zm368 .8c0 1.2-3.4 3.3-5.2 3.4-2.5 0-2.2-1.5.5-2.8 2.5-1.2 4.7-1.5 4.7-.6zm-383.4 5.8c-.1.5-1.2 1.3-2.4 1.7-2.6 1-4.7-2-3.7-5.2.6-1.9.7-1.9 3.5.3 1.6 1.3 2.8 2.7 2.6 3.2zM406 108c0 2.2-.4 4-1 4-.5 0-1-1.8-1-4s.5-4 1-4c.6 0 1 1.8 1 4zm-142-.1c1.7 3.2 1.2 3.7-4.7 5.4-6.5 1.8-7.3 1.6-7.3-1.7 0-4.8 9.8-7.8 12-3.7zm-24.3 3.1c-5 1.5-5.9 2.9-5.6 8.9.3 4.9 0 5.6-1.7 5.9-2.9.6-4 2-2.1 2.8 2.3.9 1.1 2.4-1.9 2.4-3.6 0-2.9 2.3 1.4 4.1 3.5 1.5 3.9 1.5 7.4-.5 4.3-2.4 4.6-3.1 1.7-3.9-1.7-.5-1.9-.9-1-2.5.6-1 .9-3.2.8-4.8-.2-2.3.3-3 2-3.2 1.2-.2 3.3-1.4 4.6-2.8 1.4-1.4 2.8-2.1 3-1.7.8 1.3-2.1 13.4-4 16.8-2.6 4.9-6.5 8.5-9.1 8.5-1.3 0-4.2-1-6.3-2.2-2.1-1.2-4.2-1.8-4.6-1.5-.7.8 3.3 5.4 5.9 6.8 1.6.9 6.9.1 11.1-1.6 1.4-.6 1.7-.2 1.7 2.6 0 8.8-4.9 29.9-7 29.9-1.1 0-8.3-9.9-10.3-14.2-2.4-5.4-4.8-15.4-4.9-20.2 0-2.3-1.2-6.8-2.8-10.1-3-6.5-4.8-17.9-3-19 .6-.4 1 .4 1 2 0 3.6 4.3 7.7 7.7 7.3 3.4-.4 4.3-2.8 1.1-2.8-2-.1-2.1-.2-.5-1.1.9-.5 2.1-.8 2.6-.4 1.5.8 2.5-1.5 1.2-2.8-2.4-2.4-.6-2.9 11.9-3.4 2.4-.1 2.4-.1-.3.7zm-162 4.7c-.3 1-.5.2-.5-1.7s.2-2.7.5-1.8c.2 1 .2 2.6 0 3.5zm131.4-3.7c2.5 1.4 2.3 5.5-.3 5.4-1 0-3.8-.1-6.3-.2-4.8-.2-6.7-2.1-4.7-4.5 1.4-1.7 8.6-2.1 11.3-.7zm59.3 7.2c2.6 3.7 2 4.8-2.6 4.8-2.4.1-6.1.7-8.3 1.5-3.9 1.4-7.5 1.9-7.5 1 0-2.4 3-5.6 6.8-7.3 6.3-2.7 9.7-2.7 11.6 0zm-200.5 3c.1.5-.6.8-1.4.8-1.6 0-1.9-.9-.8-3.6.6-1.6.7-1.6 1.4.2.4 1 .8 2.2.8 2.6zm141.1.8c1.4.8 5 6.2 5 7.6 0 .3-16.1-.6-18.7-1.2-2.7-.5-3-3.5-.7-5.8 1.8-1.8 11.4-2.2 14.4-.6zm209.9 9.1c4.7 1 14.1 7.4 14.1 9.5 0 .9-1 1.4-2.7 1.4-2.6 0-2.6.1-.7 1.5 2.7 2 5.2 1.9 6.6-.4 1.2-1.9 1.3-1.9 6 .7 2.7 1.5 4.6 3.2 4.4 3.9-.9 2.3 1.8 2.7 17.8 2.5 17.8-.3 19.1.8 4.3 3.4-12.3 2.2-24 .2-25.7-4.2-.6-1.4-1.8-2.4-3-2.4-2.4 0-2.6 1.7-.5 4 1.4 1.5 1.2 1.6-1.8 1.3l-3.2-.4 3.2 2.9c3.8 3.7 3.3 4.5-1.7 2.7-7.3-2.6-11.9-6.8-6.8-6.2 3.7.4 3.3-2.7-.7-4.6-2.3-1.1-3.5-2.4-3.5-3.7 0-2.4-2.6-3.8-4.2-2.2-.7.7.1 2 2.6 4.2 4 3.7 3.8 5.5-.7 4.6-1.6-.3-3.6-.1-4.3.5-1.4 1.2-6.9-1.4-7.8-3.7-.4-1-.9-16.5-.7-19.8.1-.5 1.2.1 2.5 1.3 1.3 1.3 4.3 2.7 6.5 3.2zM269 129.3c-.1 2.1-8.5 7.7-11.6 7.7-1.6 0-4.6.4-6.7.9-4.3 1-5.5 0-3.7-3.4.9-1.7 2.4-2.4 5.9-2.9 2.5-.3 5.7-1.2 7.1-1.9 3.2-1.6 9-1.9 9-.4zm-136.8 6.9c.6 1.7.4 3.7-.6 5.9l-1.4 3.4.5-3.8c.6-3.7.5-3.8-2.1-3.1-3 .7-3.2.2-1-3.2 2-3 3.5-2.7 4.6.8zm135.1 3.1c-3.2 5.3-4.3 5.8-4.3 2.1 0-1.6 1.2-3.7 3.2-5.6 4.2-3.9 4.6-2.3 1.1 3.5zm-57.8-3.4c.3.6 2.1.7 4 .4 3.4-.5 3.5-.4 3.5 2.5v3.1l-9.2.3-9.1.3-1.8-2.9c-1-1.6-1.6-3.3-1.4-3.7.7-1 13.3-1 14 0zm172 7.5c2.2.7 6.5 6.7 6.5 9.1 0 .8.9 3.2 2 5.2 1.1 2.1 2 4.7 2 5.8 0 1.2.5 2.6 1.2 3.3.8.8.9 1.5.2 2.2-.8.8-1.5.6-2.4-.5-.7-.8-1.8-1.5-2.4-1.5-2 0-5.9-4.7-4.7-5.5 1.8-1 1.3-2.1-2.9-6.5-4.4-4.6-7.2-9.4-8.8-15.2-1.4-5.2-.4-5.5 3.7-1 2 2.2 4.5 4.2 5.6 4.6zm-15.8-3.7c2.8.4 3.7 1.4 6.8 7.7 2 3.9 4.6 8.1 5.7 9.3 1.9 2 1.9 2.6.8 5.3-.9 2.2-1.6 2.8-2.3 2.1-.6-.6-2.1-1.1-3.3-1.1-1.3 0-2.6-.5-3-1.1-.4-.7-2.7-1-6-.7-3 .3-5.4.2-5.4-.2 0-3 7.6-4 12-1.5 2.9 1.6 5 1.9 5 .6 0-1.4-5.9-3.1-10.8-3.1-5.6 0-15.2 5.1-15.2 8.1 0 1.4-.7 1.9-2.7 2l-2.8.1 3.2 1.4c1.7.7 3.6 2.1 4.1 3 1.2 2.2 3.2.9 3.2-2.1 0-4.5 8.9-4.4 13.1.1 2.1 2.2 2.1 2.5.6 4.2-1.9 2.1-2.3 6.7-.6 7.8.7.4 1.9-.2 2.8-1.3 2.6-3.1 10.1-5.7 10.1-3.4 0 .5-1.6 1.8-3.5 3-3.2 1.9-3.5 2.4-3.5 6.9 0 3.2-.5 5.4-1.5 6.2-.8.7-1.9 2.7-2.3 4.4-1 3.5-1.4 3.5-11.7 1.7-3.3-.6-11.7-1.9-18.8-3-7-1.1-13.2-2.3-13.7-2.6-.6-.3-1-1.5-1-2.6 0-1.7.5-1.9 5.8-1.4 3.1.3 7.5.8 9.7 1.1 2.2.3 7.9.9 12.6 1.4 4.8.4 9.6 1.4 10.7 2.1 2.2 1.4 4.3.5 2.6-1-.5-.5-8.8-1.9-18.4-3.1-16.5-2.2-22-3.7-22-6.1 0-.5.7-1.2 1.5-1.6 1.6-.5 9.8-8.9 14.9-14.9 2.6-3.1 2.6-3.2 1.8-15-.5-6.6-.6-12.5-.4-13.3.4-1.1 2.4-1.2 9.6-.7 5 .4 10.5.9 12.3 1.3zm82.1 3.2c4.9 2 11.8 2.8 24.7 3.1 10.6.3 3.6 1.9-9 2.2-9 .1-10.6-.1-15.7-2.6-3.2-1.4-5.8-3.1-5.8-3.6 0-1.3.2-1.3 5.8.9zm-188.3 2.5c0 2.6-.4 3-5.4 4.3-6.7 1.7-8.1 1.2-8.1-2.7 0-2.4.4-3 2.3-2.9 1.2 0 3.6-.4 5.2-.9 4.6-1.6 6-1.1 6 2.2zm-139.7-.1c.3 1.5-7.3 9.3-10.7 11-.9.5.5-1.2 3.2-3.7 2.6-2.5 4.3-4.7 3.7-5.1-.5-.3-1.4-.3-2 0-2 1.3-.9-1.4 1.2-2.9 2.6-1.9 4.2-1.6 4.6.7zm98.9 6.1c.8 2.4 1 4.3.4 4.9-.5.5-3.8.6-7.5.2-6-.7-6.9-1.1-9.1-4-1.4-1.7-2.5-3.5-2.5-3.8 0-.6 10.8-1.4 15.4-1.3 1.3.1 2.3 1.4 3.3 4zm-109.8.3c-4.4 5.5-9 7.3-7.3 2.9.7-1.8 5-4.5 7.3-4.6 1.1 0 1.1.3 0 1.7zm-19.6 2.9c6.3 3.2 7.8 4.4 7.1 5.5-.6 1-10.2-2.6-12.6-4.8-1.5-1.4-1.6-3.3-.2-3.3.3 0 2.8 1.2 5.7 2.6zm167.1 1.2c.6 1-3.9 8.1-6.2 9.9-.9.7-2.6 1.3-3.9 1.3-1.9 0-2.3-.5-2.2-2.8.1-4.9 1.4-6.5 6-7.8 5.9-1.5 5.7-1.5 6.3-.6zm197.6 2.9c9.1 1.8 10.5 2.7 3 2-8.4-.8-13.3-2.1-13.8-3.6-.3-1 0-1.2 1.4-.6 1.1.4 5.3 1.4 9.4 2.2zm-230 8.4c0 3.1-6.5 2.6-9.6-.8-2.8-3.1-2.3-4 2.6-4.5 3.9-.4 7 2 7 5.3zm177.4.4c.3.9 2.2 2.3 4.1 3.1 5.6 2.3 4.5 4.2-1.5 2.5-3.5-1.1-10.6 1.2-15.1 4.8-2.1 1.7-4.6 3.1-5.6 3.1-1.5 0-1.4-.4.7-2 2.5-2 2.5-2 .5-3.6-1.5-1.1-3.3-1.4-6.7-1-4.9.5-6.5-.7-2.5-2 1.2-.4 6.3-.8 11.3-.9 10-.3 11.4-.7 11.4-3.6 0-2.3 2.5-2.6 3.4-.4zM211 168.9c0 1.5 13.9 11.2 18.6 12.9 3.9 1.4 4.6 1.5 5.4.2.5-.8 1.2-1.1 1.6-.7.4.4-.6 2.2-2.3 4-1.9 2-3.5 5.1-4.3 8.4-1.2 5.5-1.6 5.9-3.9 4.4-2-1.3-5.6.6-7 3.6-1.6 3.6-4.9 2.6-8.8-2.5-2.6-3.4-3.3-5.3-3.3-8.8 0-2.5.5-5.4 1.1-6.6.6-1.1 1.1-5.1 1.2-8.9.1-3.8.5-6.9 1-6.9.4 0 .7.4.7.9zm33.7 4.7c.1.5-.6 2-1.7 3.4-1.5 1.9-2.2 2.2-3.1 1.3-.9-.9-.8-1.8.5-3.8 1.7-2.5 3.6-2.9 4.3-.9zm-15.3.4c2.6 1 3.8 5 1.5 5-1.7 0-7.9-4-7.9-5.1 0-1.2 3.2-1.2 6.4.1zM382 185.8c0 .4-.6 1.6-1.3 2.7-.8 1.1-2.4 4.8-3.6 8.2-1.3 3.5-2.7 6.3-3.2 6.3-1.6 0-1-4.4 1.1-8 1.1-1.9 2.7-5 3.5-6.8 1.4-2.9 3.5-4.4 3.5-2.4zm-218.5 16.5c1.1.7 4.1 2.1 6.6 3.1 2.6.9 5.5 2.6 6.5 3.7 1.8 2 1.8 2-1.1 1.3-1.7-.4-4-1.1-5.3-1.5-1.3-.5-5.2-.9-8.8-.9-5.7 0-6.4-.2-6.4-2 0-1.1 1.2-2.6 2.8-3.4 3.4-1.9 3.3-1.9 5.7-.3zm67.9 1.6c4.3.9 4.6 3.1.4 3.1-3.5-.1-6.8-1.9-6.8-4 0-.8.6-1 1.8-.5.9.4 3 1 4.6 1.4zm-7.6 5.4c.2.9-.3 2.6-1.1 3.8-1.5 2.1-1.5 2.1-3.1-.9-1.5-2.9-1.5-3.2.2-4.1 2.2-1.3 3.6-.9 4 1.2zm20.6 1.8c3.1 2.4 3.3 3.9.7 3.9-2.6 0-6.6-3.4-5.7-4.8 1-1.7 1.9-1.5 5 .9zm-14 3.6c-.9 2.1-2 4.6-2.5 5.5-.5 1-.6 2.4-.3 3.1.7 2-5.5 7.2-6.9 5.8-.7-.7-.6-1.6.5-2.8.9-1 2.5-4 3.7-6.8 2.2-5 4.8-8.5 6.2-8.5.5 0 .1 1.7-.7 3.7zm16.6 4c1.1.3.5 1.3-2.4 3.7-4.6 3.9-5.8 8.7-4.9 19.2.7 8.7-.2 10.6-5.9 12.1-2.3.6-5.1 1.5-6 1.8-1.6.7-1.8-.2-1.8-9.9 0-11.8.1-12.1 10-23.4 4.6-5.1 5.4-5.4 11-3.5zm-26.6 15.9c.8 2.5-1.6 5.4-4.3 5.4-4.7 0-5.6-7.9-1.1-9.1 2.8-.7 4.5.5 5.4 3.7zm27.6 5.5c0 2.5 4.6 7.2 10.6 11 3.5 2.3 6.4 4.4 6.4 4.9 0 .4-1.2 1-2.7 1.3-2 .4-3.7-.2-6.1-1.9-1.7-1.4-5.1-2.8-7.5-3.3-4.2-.7-4.2-.7-3.9-4.6.3-5.7 1.1-8.5 2.2-8.5.6 0 1 .5 1 1.1zm-126.6 3c3.2 5.3 11 7.2 20.1 4.8 7.2-1.9 7.5-1.8 9.2 3 1.5 4.3 1.4 4.5-.8 6.2-2.2 1.7-2.3 1.8-.6 3.7 2.1 2.3 1.3 3.2-2.5 3.2-4 0-8.5 2.5-13.5 7.3-4.9 4.7-5.8 8.7-2 8.7 1.2 0 3.1-.6 4.2-1.3 1.1-.8 3.3-2.2 4.9-3.2l2.9-1.9-.8 2.4c-.4 1.4-1.4 3.3-2.3 4.3-1.4 1.6-1.4 1.9-.1 3.3 1.2 1.1 4.5 1.6 14 1.8 6.8.1 13.9-.1 15.9-.5 1.9-.4 3.6-.7 3.7-.5.2.2-4.1 2.5-9.5 5.3-28.8 14.7-54.4 36.8-71.9 62.1l-3.3 4.7v-3.1c0-3.4-1.5-5.4-4.2-5.4-2 0-2.3-1.1-.8-2.6 2.4-2.4 5.7-14.2 5.9-21.3.4-14-3.4-24.2-10.7-29.1-2.5-1.6-5.3-3-6.1-3-.9 0-2.2-.4-3-.9-1.2-.8-1-1.6 1.4-5 2.5-3.7 2.7-4.7 2.2-9.9-.5-5.6-2.3-10.8-5.2-14.7-1.4-2-1.2-2.4 2.9-6.7 2.7-2.9 4.6-6 5-8.2l.7-3.6 3 1.6c1.9.9 6.8 1.7 13.2 2 10.1.5 10.3.4 16.7-3 3.6-1.8 7.2-3.4 8-3.5.9-.1 2.4 1.3 3.4 3zm208.9 16.4c6.8 2.8 9.6 5.5 11.6 11.7 1 3.1 1 4.2-.4 6.7-1.4 2.9-1.9 3.1-6.9 3.1-3.2 0-7.3-.8-10-1.9-3.9-1.7-4.6-2.4-5.1-5.8-.3-2.1-1-4.8-1.6-6.1-1.1-2.9-1.1-4.4.1-7.6 1.2-3.4 4.1-3.4 12.3-.1zm-51.5 6.3c2.1 2.3 3.2 4.6 3.2 6.5 0 2.5-.2 2.8-1.5 1.7-.8-.7-1.5-1.9-1.5-2.6 0-1.9-2.9-1.8-3.6.1-.4.8-1.3 1.5-2 1.5-1.2 0-1.2-.4-.4-2.1 1.5-2.7-.5-5.6-2.6-3.8-.7.6-1.2 1.6-1.1 2.2.1.6-.8 1.3-2 1.5-1.2.2-2.5 1.2-2.8 2.3-.8 2.5-3.5 2.5-3.5-.1 0-1-.6-2.3-1.4-2.7-.8-.4-1.4-1.7-1.3-2.8.3-3.4-2.5-2.2-3.8 1.5-1.4 4.2-3 3.8-2.9-.8.2-4.7 2.5-6.5 9.7-7.8 7.7-1.3 12.7.2 17.5 5.4zm-33.4-1.5c2.9 2.1 1.6 5.1-2.2 5.5-3.4.3-3.7-.2-2.2-4.2 1.1-2.9 1.9-3.2 4.4-1.3zm-9.4 2.6c0 2.7-.4 3-5 4-6.1 1.3-6 1.3-6 .2 0-.9 8.7-6.9 10.3-7 .4-.1.7 1.2.7 2.8zm9.8 14.2c1.7 1 2.7 1 6 0 2.9-1 4.4-1 5.9-.2 1.4.7 3.1.7 5.4 0 1.9-.5 5.2-.6 7.4-.3 2.2.4 4.9.8 6 .9 4.9.6 20.3 4.7 26.3 7 25.4 9.7 45.5 22.6 63.2 40.4 17.5 17.7 28.8 35.7 37 58.6 6.8 19.4 9 33.3 9 58.4.1 14.7-.1 16.7-2 19.8-1.5 2.5-1.8 3.9-1 4.8 1.8 2.2-2.2 18.8-8.6 34.7-7.9 19.8-18.8 36.5-36 54.7-9.8 10.5-12 11.7-22.9 13.1-5 .7-11.3 2.1-14.2 3.2-5.8 2.1-11.9 8.1-12.9 12.5-1.4 6.5-2.6 8.3-7.3 10.4-9.3 4.1-19.3 6.9-28.2 7.9-5.1.6-9.5 1.2-9.9 1.5-.4.2-9 .7-19.1.9-41.5 1.2-73.4-8.1-105.1-30.6-24.5-17.3-47.6-45.3-56.3-68.1-1.3-3.4-3.2-8.2-4.3-10.7-3.3-7.2-7.1-23.3-8.7-36.7-1.8-14.7-1.3-32.4 1.5-49 1.8-10.5 5.4-24.6 6.9-26.8.4-.6 1.3-2.8 2-5 2.1-6.3 10.5-22.7 14.5-28.6 7.2-10.4 8.8-12.5 15.1-19.6 7.2-7.9 22.2-20.6 32.3-27.1 13.1-8.4 40.5-20.7 50.3-22.6 1.3-.2 5.3-1.2 8.9-2.1 3.6-1 9.2-2.1 12.5-2.5 8.5-1.1 23.8-.5 26.3 1.1zM84 367.1c-2.2 4.2-4.3 4.7-4.8 1.1-.2-1.4.3-2.4 1.5-2.8 1-.3 2.5-.9 3.3-1.4.8-.5 1.6-.9 1.8-.9.1-.1-.7 1.7-1.8 4zM70.4 378c3.5.7 5.3.7 6.3-.1 2.6-2.2 2.4-.1-.5 8.3-1.7 4.6-4 13.1-5.2 18.8-2.1 10.2-2.9 12.5-3.6 10.5-2.2-5.8-6.7-9.4-13.9-11-3.6-.8-5.5-2.2-5.5-4.1 0-1.7 3.9-1.8 8.9-.3 2.9.9 4.5.7 8.6-.8 5.4-2 7.5-4.7 7.5-10 0-3.7-3.1-6.3-9.7-8.3-4.1-1.2-5.2-2.7-3.6-4.4.4-.4 1.9-.5 3.3-.2s4.7 1 7.4 1.6zm-3.5 62.7v15.7l-2-3.5c-4.6-7.5-9.9-11.5-18.8-13.9-8.3-2.2-9.5-2.9-8.1-4.5.9-1.1 3.5-1.5 10.4-1.5 9.7 0 14.3-1.6 16.6-5.9.6-1.2 1.3-2.1 1.5-2.1.3 0 .5 7.1.4 15.7zm412.2 11.5c-1 2.8-2.2 3.2-4.6 1.3-2-1.4-2-1.4.2-1.5 1.2 0 2.5-.5 2.8-1 1.2-1.9 2.4-1 1.6 1.2zm-26-.2c1.9 1.1 2.6 3 1 3-.5 0-1.9-.9-3.2-2-2.6-2.1-1.1-2.7 2.2-1zm-3.6 5c1.7 1.1 3.8 1.7 4.8 1.4 2.7-.9 2 .3-1.3 2-1.6.8-3 1-3 .5s-.6-.9-1.4-.9c-1.6 0-4.6-2.6-4.6-4.1 0-1.5 2.3-1 5.5 1.1zM71.9 486.7c2.7 9.7 3.3 12.5 2.4 12.1-.5-.1-3.5-1.7-6.8-3.3-5.3-2.6-7-3-14.5-3-4.7 0-11.2.2-14.5.5-7.8.5-15.5-2.8-16.6-7.3-1.6-5.9.5-7 17.1-9.2 14.4-1.9 21.9-4.9 25.9-10.5l2.6-3.7 1.2 8.8c.7 4.9 2.1 11.9 3.2 15.6zm349.1 9.7c0 .3-.4.8-1 1.1-.5.3-1 .1-1-.4 0-.6.5-1.1 1-1.1.6 0 1 .2 1 .4zm33.1 6.9c-.8.8-1.1.7-1.1-.4 0-2 1.3-3.4 1.8-1.9.3.7-.1 1.7-.7 2.3zM415 503c0 .5-.4 1-1 1-.5 0-1-.5-1-1 0-.6.5-1 1-1 .6 0 1 .4 1 1zm6 26c0 .5-.5 1-1.1 1-.5 0-.7-.5-.4-1 .3-.6.8-1 1.1-1 .2 0 .4.4.4 1zm4 .4c0 .3-.4.8-1 1.1-.5.3-1 .1-1-.4 0-.6.5-1.1 1-1.1.6 0 1 .2 1 .4zm-10.3 5.8c-.3.8-.6.5-.6-.6-.1-1.1.2-1.7.5-1.3.3.3.4 1.2.1 1.9zm8 1c-.3.8-.6.5-.6-.6-.1-1.1.2-1.7.5-1.3.3.3.4 1.2.1 1.9zm-23.6 7.5c-.8 1.5-1 1.5-1.1.2 0-1.7 1-3.2 1.8-2.5.2.3-.1 1.3-.7 2.3zm36.2 10.6c-.3 2-1 3.7-1.5 3.7s-.6-1-.3-2.3c.4-1.2.9-3 1.2-4 .8-3.1 1.3-1.3.6 2.6zM410 552c0 .5-.4 1-1 1-.5 0-1-.5-1-1 0-.6.5-1 1-1 .6 0 1 .4 1 1zm12.7 5.2c-.3.8-.6.5-.6-.6-.1-1.1.2-1.7.5-1.3.3.3.4 1.2.1 1.9zm-45.3 3.3c-.4.8-1.1 1.5-1.6 1.5-.6 0-.5-.6.2-1.5.7-.8 1.4-1.5 1.6-1.5.2 0 .1.7-.2 1.5zm50.2 5.2c-1.1 1.1-1.7-.4-.9-2.3.7-1.8.8-1.8 1.1-.1.2 1 .1 2.1-.2 2.4zm-33.9.5c-.3.8-.6.5-.6-.6-.1-1.1.2-1.7.5-1.3.3.3.4 1.2.1 1.9zM385 570c0 .5-.5 1-1.1 1-.5 0-.7-.5-.4-1 .3-.6.8-1 1.1-1 .2 0 .4.4.4 1zm25.7 1.2c-.3.8-.6.5-.6-.6-.1-1.1.2-1.7.5-1.3.3.3.4 1.2.1 1.9zm8.3-.7c0 .8-.4 1.5-1 1.5-.5 0-1-.7-1-1.5s.5-1.5 1-1.5c.6 0 1 .7 1 1.5zm7 0c0 .8-.4 1.5-1 1.5-.5 0-.7-.7-.4-1.5.4-.8.8-1.5 1-1.5.2 0 .4.7.4 1.5zm-20.4 8.2c-1 1-1.9-.5-1-1.8.6-1.1.8-1.1 1.2 0 .2.7.1 1.5-.2 1.8zm3.1-.5c-.3.8-.6.5-.6-.6-.1-1.1.2-1.7.5-1.3.3.3.4 1.2.1 1.9zm7.9-.6c-.3.9-.6 1.8-.6 2 0 .3-.4.3-1-.1-1.1-.7-.2-3.5 1.2-3.5.6 0 .7.7.4 1.6zM332 580c0 .5-.2 1-.4 1-.3 0-.8-.5-1.1-1-.3-.6-.1-1 .4-1 .6 0 1.1.4 1.1 1zm50.7 1.2c-.3.8-.6.5-.6-.6-.1-1.1.2-1.7.5-1.3.3.3.4 1.2.1 1.9zM360 583c0 .5-.5 1-1.1 1-.5 0-.7-.5-.4-1 .3-.6.8-1 1.1-1 .2 0 .4.4.4 1zm5.7 1.2c-.3.8-.6.5-.6-.6-.1-1.1.2-1.7.5-1.3.3.3.4 1.2.1 1.9zm32.3-.7c0 .8-.4 1.5-1 1.5-.5 0-1-.7-1-1.5s.5-1.5 1-1.5c.6 0 1 .7 1 1.5zm9.6 1.2c-1 1-1.9-.5-1-1.8.6-1.1.8-1.1 1.2 0 .2.7.1 1.5-.2 1.8zm-10.6 3.8c0 .8-.4 1.5-1 1.5-.5 0-.7-.7-.4-1.5.4-.8.8-1.5 1-1.5.2 0 .4.7.4 1.5zm10-.6c0 .6-.4 1.3-1 1.6-.5.3-1-.1-1-.9 0-.9.5-1.6 1-1.6.6 0 1 .4 1 .9zm-3 .5c0 .3-.4.8-1 1.1-.5.3-1 .1-1-.4 0-.6.5-1.1 1-1.1.6 0 1 .2 1 .4zm-58.5 2.5c.3.5.1 1.2-.5 1.6-.5.3-1-.1-1-.9 0-1.8.6-2.1 1.5-.7zM392 593c0 .5-.5 1-1.1 1-.5 0-.7-.5-.4-1 .3-.6.8-1 1.1-1 .2 0 .4.4.4 1zm3.2 6.2c-.9.9-1.2.7-1.2-1.2s.3-2.1 1.2-1.2c.9.9.9 1.5 0 2.4zM358 601c0 .5-.5 1-1.1 1-.5 0-.7-.5-.4-1 .3-.6.8-1 1.1-1 .2 0 .4.4.4 1zm9.7 1.2c-.3.8-.6.5-.6-.6-.1-1.1.2-1.7.5-1.3.3.3.4 1.2.1 1.9zm16.8 4.7c.3.5.1 1.2-.5 1.6-.5.3-1-.1-1-.9 0-1.8.6-2.1 1.5-.7zm-210 2.1c1.7 1.8 1.7 2 .2 1.4-1.3-.5-1.7 0-1.8 1.7-.1 2-.2 1.9-.8-.6-.4-1.7-1.3-2.9-2-2.7-.7.1-1-.2-.6-.8 1-1.6 3-1.2 5 1zm206.5-1c0 .5-.2 1-.4 1-.3 0-.8-.5-1.1-1-.3-.6-.1-1 .4-1 .6 0 1.1.4 1.1 1zm-192.3 2.1c2.5.9 7.8 2.5 16.8 4.9 2.2.6.8.8-5.3.9-8.7.1-12.1-.9-15.6-4.8-1.6-1.8-1.7-2.1-.3-2.1.9 0 2.8.5 4.4 1.1zm-20 3.1c-.3.8-.6.5-.6-.6-.1-1.1.2-1.7.5-1.3.3.3.4 1.2.1 1.9zm205 0c-.3.8-.6.5-.6-.6-.1-1.1.2-1.7.5-1.3.3.3.4 1.2.1 1.9zm-3.2-.2c.3.5.1 1-.4 1-.6 0-1.1-.5-1.1-1 0-.6.2-1 .4-1 .3 0 .8.4 1.1 1zm-123 2c.3.6 1.7.7 3 .4 1.7-.4 3.4.2 5.8 2 1.9 1.4 3.7 2.6 4 2.6.3 0 1.8.5 3.4 1.2l2.8 1.1-3 .7c-1.6.3-3.5.2-4.2-.2-.6-.5-2.2-1-3.6-1.2-1.3-.1-3.4-1.2-4.7-2.4-1.3-1.2-2.7-1.9-3.1-1.6-.4.2-1 0-1.4-.6-.7-1.2-4.8-1.4-5.9-.3-.4.4-2.2.8-3.9.9-6 .2-6.7.4-6.7 1.7 0 .9-1.2 1.4-3 1.4-3.8 0-3.4-1.8.6-3 1.6-.5 4.9-1.4 7.4-2.2 5.5-1.6 11.7-1.9 12.5-.5zm-67.5 2.1c0 1.1-.4 1.7-1 1.4-.5-.3-1-1.3-1-2.1s.5-1.4 1-1.4c.6 0 1 .9 1 2.1zm96.5-.1c-.3.5-1.3 1-2.1 1s-1.2-.5-.9-1c.3-.6 1.3-1 2.1-1s1.2.4.9 1zm33 0c.3.5.1 1-.4 1-.6 0-1.1-.5-1.1-1 0-.6.2-1 .4-1 .3 0 .8.4 1.1 1zm17.5 0c0 .5-.5 1-1.1 1-.5 0-.7-.5-.4-1 .3-.6.8-1 1.1-1 .2 0 .4.4.4 1zm-144 1c0 .5-.2 1-.4 1-.3 0-.8-.5-1.1-1-.3-.6-.1-1 .4-1 .6 0 1.1.4 1.1 1zm19 3.4c0 .8-.4 1.8-1 2.1-.5.3-1-.3-1-1.4 0-1.2.5-2.1 1-2.1.6 0 1 .6 1 1.4zm17.5-.4c.9 1.5-.6 8.1-1.7 7.4-.5-.3-.6-1.9-.3-3.5.6-2.8.5-2.9-3.2-3-3 0-3.4-.2-1.8-.9 2.8-1.2 6.3-1.2 7 0zm-13.7 1.1c-.2.6-.8 1-1.3 1s-1.1-.4-1.3-1c-.2-.6.4-1.1 1.3-1.1s1.5.5 1.3 1.1zm3.2.5c0 .8-.5 1.2-1 .9-.6-.4-.8-1.1-.5-1.6.9-1.4 1.5-1.1 1.5.7zm-11-.2c0 .3-.4.8-1 1.1-.5.3-1 .1-1-.4 0-.6.5-1.1 1-1.1.6 0 1 .2 1 .4zm67 4.2c0 .8-.5 1.2-1 .9-.6-.4-.8-1.1-.5-1.6.9-1.4 1.5-1.1 1.5.7zm11-.6c0 .5-.5 1-1.1 1-.5 0-.7-.5-.4-1 .3-.6.8-1 1.1-1 .2 0 .4.4.4 1zm-36 3c0 .5-.2 1-.4 1-.3 0-.8-.5-1.1-1-.3-.6-.1-1 .4-1 .6 0 1.1.4 1.1 1zm7.5-.1c.3.5.1 1.2-.5 1.6-.5.3-1-.1-1-.9 0-1.8.6-2.1 1.5-.7zm28.5 2.2c0 .5-.4.9-1 .9-.5 0-1-.7-1-1.6 0-.8.5-1.2 1-.9.6.3 1 1 1 1.6zm4-.7c0 .3-.4.8-1 1.1-.5.3-1 .1-1-.4 0-.6.5-1.1 1-1.1.6 0 1 .2 1 .4zm-32 3.6c0 .5-.4 1-1 1-.5 0-1-.5-1-1 0-.6.5-1 1-1 .6 0 1 .4 1 1zm20 1c0 .5-.5 1-1.1 1-.5 0-.7-.5-.4-1 .3-.6.8-1 1.1-1 .2 0 .4.4.4 1zm39 8.4c0 1.1-1.9 1.5-2.5.6-.3-.5.1-1 .9-1 .9 0 1.6.2 1.6.4zm-29 6.6c0 .5-.4 1-1 1-.5 0-1-.5-1-1 0-.6.5-1 1-1 .6 0 1 .4 1 1zm47 4c0 .5-.4 1-1 1-.5 0-1-.5-1-1 0-.6.5-1 1-1 .6 0 1 .4 1 1zm-3.5 2.9c.3.5.1 1.2-.5 1.6-.5.3-1-.1-1-.9 0-1.8.6-2.1 1.5-.7zm12.5.1c0 .5-.4 1-.9 1-.6 0-1.3-.5-1.6-1-.3-.6.1-1 .9-1 .9 0 1.6.4 1.6 1zm-40 1.6c0 .8-.5 1.2-1 .9-.6-.4-.8-1.1-.5-1.6.9-1.4 1.5-1.1 1.5.7zm10-.6c0 .5-.4 1-1 1-.5 0-1-.5-1-1 0-.6.5-1 1-1 .6 0 1 .4 1 1zm24 2c0 .5-.5 1-1.1 1-.5 0-.7-.5-.4-1 .3-.6.8-1 1.1-1 .2 0 .4.4.4 1zm-4 4.3c0 .4-.3.6-.7.4-.5-.2-1.6-.7-2.6-1-1-.4-1.6-1.1-1.2-1.7.7-1.1 4.5.9 4.5 2.3z"/><path d="M105 50.5c-2.1 2.5-.1 3.1 2.3.7 1.7-1.8 1.8-2.2.5-2.2-.8 0-2.1.7-2.8 1.5zM122 152.3c0 1.4 3.5 3.9 4.4 3 .7-.7-2.3-4.3-3.6-4.3-.4 0-.8.6-.8 1.3zM359.2 168.9c-1 .6-.4 1 1.8 1.5 4.5.8 5.6.8 4.5-.3-1.6-1.5-4.9-2.1-6.3-1.2zM213.3 190.6c-.8 2 1.7 3.6 3.4 2.2 1-.8 1-1.4.2-2.4-1.5-1.8-2.8-1.8-3.6.2zM262.7 264.7c-.4.3-.7 1.9-.7 3.5 0 3.3 2.4 3.8 4 .9 1.7-3.2-1-6.8-3.3-4.4zM235 286.7c-7.7.6-9 1.1-9 3.7 0 1.2.9 3.1 2 4.1 1.7 1.5 2.4 1.6 4.9.5 2.6-1 3.3-1 4.6.4.9.9 2.1 1.6 2.6 1.6s.9 2.1.9 4.7c.1 9.6.4 10.7 3 12 3.2 1.6 4.2 1.6 6.4 0 1.6-1.1 1.8-2.7 1.7-10.1l-.2-8.8 7.3.3c7.1.4 7.2.4 8.2-2.4 1.9-5.4.5-5.9-14.4-6.2-7.4-.1-15.5 0-18 .2zM148.5 320.9c-1.6 1-3.9 2.8-5 4.1-2.5 2.8-9 7-10.9 7-2.5 0-7 4.5-6.3 6.3 1.3 3.4 8.8.9 18.9-6.2 5.8-4 5.8-4 6.9-1.8.7 1.2 3 4.6 5.1 7.4 3.2 4.4 4.4 5.3 6.9 5.3 4.1 0 4.5-2.1 1.6-7.2-1.4-2.4-2.7-5.5-3.1-7-.8-3.4-6.8-9.8-9.2-9.8-1.1 0-3.2.8-4.9 1.9zM346.8 325.2c-3.2 1.1-3.5 2.5-1.2 4.3 1.6 1.1 1.5 1.7-.6 7.7l-2.4 6.5 2 3.4c2.6 4.4 11.7 9.3 14.5 7.8 2.3-1.2 2.3-1.8.4-4.3-1.8-2.4-1.9-4.9-.3-9.2 1.4-4 0-9.5-3.4-13.6-2.8-3.2-5.4-4-9-2.6zM234.5 327.6c-8.8.9-23.4 3.8-30.5 6.1-33.9 10.9-61.2 36.7-73 69.1-9 24.6-10.6 44.7-5.3 67.2 2.2 9.3 3.9 13.8 9.1 23.5 8.3 15.7 13.8 23.2 24.2 33.3 13.8 13.5 30.7 23.6 50 29.6 4.6 1.5 9.9 3.6 11.8 4.8 2.5 1.5 4.1 1.9 7 1.3 2-.3 8.2-.6 13.7-.5 21.9.3 48.4-7.2 66.5-18.8 6.4-4 20.6-16 26.6-22.4 10.7-11.2 21.5-32 25.5-48.8 4-16.7 3.5-42.7-1.1-55.3-1-2.9-2.8-8.3-4-12.1-6.3-20.2-19.8-38.1-40.4-53.8-7.9-5.9-25.7-15.2-35.1-18.2-11.3-3.6-33.9-6.1-45-5zm24.5 7.5c11.9 1.4 20.8 4 32.5 9.5 11.7 5.4 19.3 10.6 28.8 19.4 18.5 17.3 30.2 40.2 33.7 65.8 1.7 12 .7 32.2-1.9 41.7-9.1 33.4-28.5 57.5-58.2 72.1-16.8 8.3-39.3 12.6-56.4 10.7-6.7-.8-6.9-.9-7.6-3.9-.8-4-1.7-5.4-3.5-5.4-1.2 0-1.5.9-1.3 3.4.2 1.9.1 3.8-.3 4.1-1.2 1.2-20.4-4.3-29.3-8.5-23.2-10.7-43.7-30.6-53.8-52.1-5.9-12.7-10.9-32.6-10.8-42.9.5-27.5 4.7-42.9 17.8-65.2 6-10.1 21.3-24.8 35.3-34 6.4-4.1 20.9-10.5 25.9-11.3 1.9-.3 3.9-.9 4.5-1.3 1.6-1 19-2.9 28.1-3.1 4.4 0 11.9.4 16.5 1z"/><path d="M240.6 337.3c-1.3.9-1.6 2.4-1.4 6.2.4 8.2-.1 15.5-1.2 15.5-.5 0-1.3-1.8-1.6-4-.8-5-2.6-7.5-4.8-6.7-3.3 1.3-1.3 13.7 2.5 15.8 2.5 1.3 2.4 3.1-.2 4.7-1.1.7-2.7 2.9-3.5 4.8-1.2 2.9-1.2 3.9 0 6.7 1.4 3.5 5.9 7.7 8.2 7.7.8 0 1.4 1.1 1.4 2.5 0 2.3-.3 2.5-4.1 2.3-3-.2-4.4.2-5.2 1.4-1.5 2.3 0 3.8 4.5 4.7 2.9.6 3.3 1.1 3.6 4 .4 3.7-.9 5.1-4.8 5.1-1.4 0-5.7 1.6-9.7 3.6l-7.2 3.7-4.9-5.4c-2.7-3-6.8-7.7-9-10.4-2.2-2.8-8.5-10-14-16-8-8.7-10.1-11.6-10.2-14-.1-8.1-2.8-9.6-8-4.4-4.2 4.3-3.9 8.3.7 8.7 2.5.3 4.6 1.9 10 7.9 3.7 4.1 10.3 11.4 14.5 16 7.7 8.4 16.8 20.4 16.8 22 0 .5-1.6 3.2-3.6 6.2-2 2.9-4.1 7.4-4.8 10l-1.1 4.6-10.2.3-10.3.3-2.1-4.6c-2.4-5.2-3.8-6.2-10.8-7.5-7.5-1.4-14.1 1.4-16.2 6.7-.6 1.6-1.7 2.3-3.6 2.3-1.6 0-3.8.3-5 .6-1.8.5-2.5.1-3.3-2-1.7-4.7-5.1-3-5.7 2.9-.1 1.6-.5 4.4-.8 6.2-.5 2.5-.1 3.4 1.4 4.3 1.7.9 2.4.6 4.2-2 1.9-2.5 3-3 6.6-3 3.7 0 4.4.4 5.7 2.9.9 1.6 3 4.1 4.8 5.6 2.9 2.4 3.8 2.7 9.5 2.3 5.9-.4 6.6-.7 10.7-4.7l4.3-4.2 10.4.3 10.3.3.8 4.5c.4 2.5 2.3 7.6 4.2 11.4 2 3.8 3.2 7.4 2.8 8.1-.4.7-9 9.9-19.2 20.4-14.9 15.3-19.1 19.1-21.2 19.1-3.7 0-4.7 3.4-2.1 6.9 2.8 3.6 6.9 4 7.7.7.3-1.4 3.2-5.3 6.4-8.6 9-9.6 32.1-32.3 33.7-33.3 1-.5 3 .1 5.9 1.8 2.4 1.4 7.3 3.2 10.7 3.9 5.3 1.1 6.5 1.7 7 3.7 1.1 3.8 1 22.7-.1 23.4-.5.3-2.2 0-3.7-.8-3-1.5-5.3-1.2-6.6 1-.5.8-1.6 1.1-2.6.8-1-.3-2.4.1-3 .9-1.1 1.3-.7 1.9 2.1 3.6 2.2 1.4 4.2 1.9 5.8 1.5 5.1-1.3 7.4-1 7.8.8.2 1-.4 2-1.5 2.4-1 .3-2.5 1.2-3.4 2-1.3 1.1-1.8 1-3.4-.7-2.1-2.3-3.8-2.5-5.4-.7-1.2 1.6 1 4.1 6.8 7.5 2.6 1.6 3.9 1.8 5.3 1.1 2.1-1.1 2-1.3 1.8 6.6-.1 3.6-.7 6.6-1.6 7.6-1.7 1.9-1.8 4.3-.1 5.7 2.1 1.7 7.5 2.4 9.6 1.2 2.5-1.3 2.7-4.5.5-5.8-1.2-.7-1.7-2.8-1.9-8.6-.1-4.2.1-7.9.6-8.2.5-.3 1.8 0 3 .6 1.5.9 2.4.9 3.2.1.6-.6 1.8-1.1 2.6-1.1s3.2-1.2 5.3-2.6c5.7-4 4.8-7.3-1.1-4-1.8 1-3.2 1.1-5.3.4-1.6-.6-3.9-.7-5.2-.4-2.1.5-2.5.2-3.1-2.5-1-4.3.6-5.5 3.5-2.4s5.4 3.2 9.1.1c1.5-1.3 3.4-2.6 4-2.8.7-.2 1-1.2.6-2.1-.6-1.6-.9-1.6-4.7-.1-3.7 1.5-4.2 1.5-5.8.1-.9-.9-3-2-4.5-2.6l-2.8-1.1.3-11.7.3-11.6 5.5-1.2c3-.6 7-1.9 8.8-2.8 1.8-1 3.7-1.5 4.3-1.2.5.4 2.8 3 5.1 5.8 2.2 2.9 9.5 10.8 16.2 17.7 13.4 13.8 17.6 19 19.1 23.5 1.2 3.6 4.5 4.4 8.1 2 2-1.3 2.5-2.3 2.2-4.8-.3-3-.6-3.2-4.3-3.5-3.4-.3-4.5-.9-6.9-4.4-4-5.6-9.6-11.8-19.6-21.8-8-7.9-16-17.1-16-18.2 0-.3 1.1-1.7 2.5-3.2 3.9-4.2 9.5-14.5 9.5-17.4 0-3.7 1-5 4-5.2 4.4-.4 5.2-.1 4.6 1.8-.4 1 0 2.6.6 3.5 1.1 1.4 1.7 1.5 3.8.4 1.4-.7 2.6-2.3 2.8-3.5.3-1.7 1-2.2 3.2-2.2 2.7 0 2.9.3 3.5 4.7 1.1 8.9 1.6 9.8 5.9 9.7 3.6-.1 21.2-8.1 27.8-12.6 3.5-2.4 7.5-2.4 8.3.1.3 1.1 1.3 2.5 2.1 3.2 3.3 2.7 6.7-5.7 4.5-11.4-1.5-3.9-4-4.6-6.3-1.7-1.7 2.2-2.1 2.2-6 1-2.3-.6-6.6-2.7-9.5-4.6-7.5-4.8-18.9-10.4-21.2-10.4-2.9 0-3.8 1.9-4.6 9.3-.7 6.6-.7 6.8-3.3 6.5-2.4-.3-2.7-.8-3.2-5.3-.6-5.6-2.4-6.8-6.5-4.1-1.7 1.1-2.5 2.7-2.7 5.3-.3 3.5-.6 3.8-3.3 3.8-2.7 0-3.1-.5-5-6-1.1-3.3-3.1-7.7-4.3-9.8-2.7-4.2-2.5-4.8 3.8-10.2 2.5-2.2 11.6-10.9 20.2-19.3 8.6-8.5 16.2-15.9 17-16.3.7-.5 2.6-.9 4.1-.9 3.3 0 4.3-2 2.7-5.2-3.6-6.8-9-9.2-9-3.9 0 2.4-1.5 4.4-7.6 10.3-4.1 4-14.1 13.7-22.1 21.5-8 7.9-15.2 14.3-16 14.3-1.9 0-5.3-1.8-8-4.2-1.2-1.1-5.2-2.8-9-3.8-7-1.8-8.1-2.9-6.9-7.3.3-1.2 1.5-2.7 2.8-3.2 3.3-1.4 3.5-4.3.4-5.5-3.6-1.3-3.3-4.5.9-8.4 5-4.8 4.7-9.4-1.2-15.7l-2.4-2.6 2.4-1.6c3.4-2.2 5-6.7 3.9-10.8-.8-3-1.2-3.4-4-3.3-2.7.2-3.2-.2-3.2-2 0-1.3 1.1-3.3 2.5-4.6 2.7-2.6 3.2-4.9 1.3-6.8-1.6-1.6-6-1.5-8.2.1zm-1.6 38.8c0 2-.4 2.9-1.2 2.7-1.5-.5-2.2-3.3-1.4-5.4.9-2.4 2.6-.6 2.6 2.7zm7.7 4.1c-.3.7-.5.2-.5-1.2s.2-1.9.5-1.3c.2.7.2 1.9 0 2.5zm-7.4 38.2c.6 3.5.4 5.2-.7 6.7-1.2 1.8-1.2 2.4 0 4.7 1.6 3.2 1.8 7.1.3 9.2-.9 1.2-1.1 1.3-1.6.1-.3-.7-4-5.2-8.1-9.9l-7.6-8.5 2.7-2.1c3-2.2 11.5-5.6 13.2-5.2.5.1 1.3 2.4 1.8 5zm13.2-3.3c6.7 2.3 11.5 5.4 11.5 7.4 0 1.3-10.5 11.6-15.7 15.3l-3 2.1-.7-5.2c-.8-6.7-.8-18.1 0-20.1s.8-2 7.9.5zm-28.8 14.6c5.4 6.4 8.3 10.3 8.3 11.5 0 1.1-20.7 1-21.4 0-1.5-2.4 4.9-17.2 7.4-17.2.4 0 2.9 2.6 5.7 5.7zm47.7 1.2c1.9 3.5 3.2 11.1 2 11.2-.5 0-5 .2-10 .3l-9.1.3 7.1-7.3c3.9-4 7.4-7.3 7.8-7.4.4 0 1.4 1.3 2.2 2.9zm-98.2 5.8c2.6 2.3 1.3 3.3-4 3.3-6.2 0-9.2-.9-9.2-2.6 0-3.2 9.8-3.7 13.2-.7zm146.9 2.5c4.6 2.9 5 3.3 2.9 3.6-1.3.2-4.3.1-6.7-.3-3.6-.5-4.3-1-4.3-2.9 0-4.5 1.3-4.6 8.1-.4zM171 447.1c0 1.1-4.7 2-6.4 1.3-.9-.3-1.4-.9-1.2-1.3.6-.8 7.6-.8 7.6 0zm63.2 1.8c.9.8-14.7 17.1-16.3 17.1-2.9 0-9.2-15.1-7.4-17.9.6-1.1 22.4-.3 23.7.8zm37.9.1c1.2 0 1.9.7 1.9 1.7-.2 5.4-7 17.3-9.9 17.3-1.7-.1-15.4-15.2-16-17.7-.2-1.2.3-1.5 2.5-1.1 1.6.3 5.4.2 8.4-.2s6.8-.6 8.4-.4c1.6.2 3.7.4 4.7.4zm56.4.3c1.3.1-.5 1.6-5.6 4.5-10 5.5-10.9 5.5-10.9-.6v-4.8l7.3.4c3.9.1 8.1.4 9.2.5zM240 466v11h-2.7c-3 0-12.6-4.1-13.7-5.8-.3-.5.9-2.5 2.7-4.3 3.7-3.8 12.8-11.9 13.3-11.9.2 0 .4 4.9.4 11zm17.8 5.9c-.3 1.6-10.6 5.7-11.6 4.6-.4-.3-.8-4.9-.9-10.3l-.4-9.7 6.6 6.9c3.6 3.8 6.5 7.6 6.3 8.5zM151.5 393c.3.5.8 1 1.1 1 .2 0 .4-.5.4-1 0-.6-.5-1-1.1-1-.5 0-.7.4-.4 1zM136.7 340.8c-2.3 2.6-2.1 4.5.9 8.1 2.3 2.7 3 4.4 3.3 7.3.1.5 1.2.8 2.6.8 2.3 0 3-1 2.6-3.4-.1-.4.4-1.4 1-2.2.9-1.1.3-2.5-3-6.9-2.3-3-4.5-5.5-5-5.5-.4 0-1.5.8-2.4 1.8zM93.7 423c-8.2 2-11.4 4.2-13.8 9.3-3.7 8.3-1.7 15.5 6.2 21.6 4.2 3.2 4.7 3.3 11.1 2.9 12.5-.9 19-7 18.4-17.4-.4-7.9-6.8-16.8-12.6-17.6-1.6-.3-5.8.3-9.3 1.2zm6.8 8.4c5 1.5 7.4 12.3 3.3 15-2.6 1.7-9.1.8-11.5-1.7-2.7-2.7-1.4-11.6 2.1-13.9 1.1-.7 1.7-.7 6.1.6zM372 432.9c-1.4 2.7-1.3 7.1.3 7.5.6.1 4.6 1.4 8.7 2.8l7.5 2.5.3 4.4c.1 2.4-.2 5-.7 5.8-.5.7-4.3 2.1-8.6 3.2-8.2 1.9-12.5 4.1-12.5 6.3 0 1.5 5.4 4.1 6.8 3.2.5-.3 3.7-.8 7.3-1.1 3.5-.3 7.5-.8 8.9-1.1 1.4-.3 4.5-.8 7-1 5.8-.6 10.7-2.2 11.3-3.7.3-.7.5-5.4.6-10.4.2-9.7-.2-10.6-4.9-10.9-1.4-.1-8.3-2.3-15.5-4.8-7.1-2.5-13.5-4.6-14.2-4.6-.7 0-1.7.9-2.3 1.9zm27 19.1c0 2-.5 3-1.5 3s-1.5-1-1.5-3 .5-3 1.5-3 1.5 1 1.5 3zM335.1 532.9c-2 3.7-1.3 8.9 1.3 10.7 1.4.8 3.4 3.1 4.5 5 2.3 3.9 4.3 3.7 6.1-.6 1.3-3.3.4-5.8-3.3-8.7-1.3-1-2.8-3.2-3.4-4.8-1.2-3.6-3.8-4.4-5.2-1.6zM148.1 536.7c-7.9 7.5-16.1 17.4-16.1 19.4 0 1.2 1.6 3.6 3.5 5.3 2.6 2.4 3.5 4.1 3.5 6.4 0 3 .2 3.2 3.5 3.2 6.8 0 8.5-8.6 3-14.6-1.4-1.5-2.5-2.8-2.5-3 0-.1 2.5-2.8 5.5-5.9 6.8-6.9 8.9-10 8.1-12-.9-2.4-5.3-1.7-8.5 1.2z"/><path d="M318.5 546.1c-1.5 2.4.6 7.9 4 10.5 1.9 1.4 4.4 4.2 5.6 6.1 3.1 5 6.2 6.8 9.1 5.2 1.3-.6 3.3-2 4.5-3.1 1.2-1.1 4.9-3.6 8.4-5.6 4.3-2.6 6.5-4.6 7.2-6.5.5-1.6.7-3.1.4-3.4-1.5-1.4-8.2 1.2-14.3 5.8-6.3 4.6-6.9 4.9-8.1 3.3-.7-1-1.3-2.3-1.3-3 0-.6-2.4-3.2-5.4-5.8-5.3-4.5-8.8-5.7-10.1-3.5zM226.4 567.7c-1.2.2-2.9 1.2-3.9 2.3-1.6 1.7-1.3 2.2 3.9 8.4 6 7 6.8 9.4 3.6 11.4-1.2.7-2.5 2.4-3.1 3.8-1.3 3.6 2 8.9 6.4 10.3 5.1 1.6 15.2 2.3 20.8 1.6l5.2-.7-.6-16.9c-.4-10.3-.2-16.9.4-16.9.5 0 .9-.6.9-1.4 0-1.7-3.8-2.6-9.5-2.3l-4 .2.4 8.7c.2 7.3.1 8.8-1.2 8.8-1.9 0-6.2-5-8.9-10.4-2-4.2-5.5-7.6-7.3-7.4-.5 0-2 .3-3.1.5zm20.4 29.6c.4 2-1.9 3.1-5.1 2.3-6.3-1.7-5.9-4.9.6-4.4 3 .2 4.3.8 4.5 2.1zM493.9 8.4c-.2.2-5.3.7-11.4 1.1-11.9.7-15.2 1.5-6.2 1.5 6.3 0 7.6 1.5 2.2 2.6-1.9.3-3.8 1-4.1 1.5-.7 1.2 5 0 12.7-2.7 3.7-1.3 8.1-2.4 9.8-2.4 1.7 0 3.1-.5 3.1-1 0-.9-5.2-1.5-6.1-.6zM0 13.1c0 1.1.4 1.8.8 1.5.5-.3 3.9 1 7.7 2.9 7.4 3.7 8.5 4.1 8.5 2.5 0-.8-15.2-9-16.7-9-.1 0-.3.9-.3 2.1zM228.8 12.5c-.4.4-2.2 1-4 1.4-1.9.4-3.3 1.3-3.3 2.1 0 1.1 1.6 1.6 6.3 1.8 3.4.2 6.2.7 6.2 1.2 0 .4 2.3 3.3 5 6.3 3 3.3 5 6.4 5 7.8 0 1.5-1.8 4.4-4.6 7.4-4.2 4.4-5.2 5-9.8 5.5-3.9.4-5.2.9-5.4 2.4-.4 1.8.2 1.8 11 1.2 6.2-.4 16.2-.9 22.2-1.2 10.9-.5 15-1.5 14.3-3.7-.2-.7-2.2-1.3-4.4-1.5-4.5-.3-9.1-4.3-11.3-9.9-1.7-4.4-.8-7.1 4.1-12.6 3.8-4.4 4.4-4.7 9-4.7s6.2-1.1 3.9-2.5c-.6-.4-8.1-.6-16.8-.4-19.8.3-21.2.3-24.2-.6-1.4-.3-2.8-.3-3.2 0zm26.6 4.3c.7 1.2-3.9 7.8-6 8.6-1.9.7-8.7-5-8.1-6.9.2-.5 2.3-1.3 4.8-1.6 7-.9 8.7-1 9.3-.1zm-4.3 22.4c3.4 4.2 2 5.8-5.3 5.8h-4l3.2-4c1.7-2.2 3.4-4 3.7-4 .3 0 1.3 1 2.4 2.2zM18.5 22c.3.5 1.3 1 2.1 1s2.2.4 3.2 1c.9.5 5.8 2.3 10.7 4 12.2 4.1 13.4 5.7 15 19.9.2 1.9 1 5.1 1.8 7 .9 2 2.1 5.7 2.7 8.3.7 2.7 2.7 6.4 4.6 8.5 3.9 4.5 4.4 2.9 1-3-3.5-6.1-7.6-18.3-7.6-22.6 0-4.6-2.7-13-4.9-15.2-1.6-1.6-24.9-9.9-27.8-9.9-.8 0-1.1.4-.8 1zM425 26.4c-2.5 1.3-6.2 2.6-8.4 3-2.1.4-5.5 1.6-7.4 2.6-3.2 1.8-3.8 1.8-5.3.5-1.2-1.2-2.3-1.3-4.1-.6-5 1.9-11.1 14.9-10.2 21.7.8 6.1.5 14.5-.7 19.9-1 4.7-1.6 5.5-3.5 5.5-3.1 0-3.4-1.7-1.8-10.1 2.1-10.9 1.8-15.6-1.4-21.8-1.5-3-3.6-5.9-4.7-6.5-1.1-.6-3.7-2.1-5.7-3.4-2.1-1.4-4.4-2.2-5.3-1.8-2.2.8-1.8 2.6.6 2.6 5.1 0 11.2 5.5 14.6 13 2.3 5.2 2.3 5.9 1.2 12-.6 3.6-1.9 8.6-2.9 11.2-2 5-1.6 5.9 2.8 7.3 4 1.2 6.9-.2 8.2-3.9 2-6.2 2.7-13.4 1.9-19.5-1-7.3.9-16.1 4.3-20 1.3-1.4 2.6-3 2.9-3.4.4-.5 1.6-.3 2.8.4 1.8 1.2 2.8 1 7.3-1.2 2.9-1.5 6.8-3 8.7-3.4 3.4-.7 13.1-5.2 13.1-6.1 0-1-2.7-.2-7 2z"/><path d="M428 31.5c-6.2 2.3-8.1 3.7-6.2 4.8.4.3 4.1-.3 8.1-1.3 11.3-3 12.2-.8 1.7 4.1-6.8 3.1-6.5 3.7 1 1.4 6.4-1.9 11-5.6 10.1-7.9-.6-1.5-1.4-1.7-4.3-1.1-3.1.5-3.6.4-3.1-.9.8-2 .7-2-7.3.9zM265 36.5c0 1 1 1.5 3 1.5 2.3 0 3.3.6 4.2 2.4 1.5 3.4 4.1 4.4 2.8 1.2-.6-1.6-.5-2.7.3-3.5 1.7-1.7-.9-3.1-6-3.1-3.2 0-4.3.4-4.3 1.5zM284 42c3.6 3 5 3.6 5 2.2 0-1.2-5.7-5.2-7.2-5.2-.7 0 .3 1.4 2.2 3zM421.5 42c-.3.5-.1 1 .4 1 .6 0 1.1-.5 1.1-1 0-.6-.2-1-.4-1-.3 0-.8.4-1.1 1zM349.4 43.1c-.3.6-.2 1.4.2 1.9 1.1 1 5.4-.6 5.4-2 0-1.3-4.7-1.3-5.6.1zM280 46c0 .5.5 1 1 1 .6 0 1-.5 1-1 0-.6-.4-1-1-1-.5 0-1 .4-1 1zM295.2 47.2c.2.6 3.5 2.2 7.4 3.6 3.8 1.3 7.7 3.1 8.7 4 1.2 1.1 2.1 1.2 2.8.5 1.3-1.3-4.2-6.1-7.9-6.9-1.5-.3-3.7-1-5-1.5-3.2-1.3-6.4-1.1-6 .3zM85.8 60.7c-2.2.6-2.3 2.9-.2 3.7 3.1 1.2 4.5.7 4.2-1.6-.3-2.3-1.3-2.8-4-2.1zM331.8 69.5c-.5.5 11.5 13.5 12.5 13.5 1.8 0 .4-3.4-3-7.1-3.5-3.9-8.6-7.3-9.5-6.4zM.1 90.1c-.2 6.4 7.3 15.7 14.3 17.5 1.8.4 2.6 1.2 2.4 2.3-.2 1.2-1.9 1.7-6.9 2.1-6.2.5-9.9 2-9.9 4.2 0 .5.9.4 1.9-.2 1.1-.5 4.7-1 8-1 6 0 6.1 0 11.4 5.5 5.3 5.5 7.7 6.7 7.7 4.2 0-2.1-5.3-9-8.4-11.1-2.6-1.7-2.7-1.9-1.1-3.6 2.3-2.5 1.1-4-3.1-4C10.5 106 2 96.8.7 89c-.3-1.9-.5-1.6-.6 1.1zM30.5 154.9c-6.5 1.1-12.6 4.2-18.4 9.5-6.7 6.1-10.2 8.6-11.2 8-.5-.3-.9.9-.9 2.6v3.1l4-2.4c2.2-1.3 6.2-4.3 8.8-6.6 7.8-7.1 12.2-9.2 20.5-9.8 6.2-.5 7.9-.2 11.5 1.6 6.2 3.2 8.6.7 3.8-3.8-2.7-2.6-10-3.4-18.1-2.2zM151.3 267.7c-3.7 1.9-4.3 3.3-1.3 3.3 1.1 0 4.3 1.6 7 3.5 4.9 3.4 7 4.3 7 2.7 0-1.3-1.5-2.9-3.7-4.1-1.3-.6-2.3-1.6-2.3-2.1 0-1.5 8.2-1.1 11 .5 2.9 1.7 5 1.9 5 .5 0-1.8-6.4-4.3-11.7-4.4-2.9 0-5.3-.4-5.3-.9 0-1.1-2.2-.7-5.7 1zM288 268c0 .5 2 2.1 4.4 3.5 2.4 1.4 5 3.2 5.6 4 1.7 2 3 1.9 3-.3 0-2.2-2.2-4.3-6.7-6.6-3.6-1.8-6.3-2.1-6.3-.6zM304.5 275.1c-1 1.5.3 2.5 1.6 1.2.7-.7.7-1.3.1-1.7-.6-.3-1.4-.1-1.7.5zM82.5 577.1c-1 1.5.3 2.5 1.6 1.2.7-.7.7-1.3.1-1.7-.6-.3-1.4-.1-1.7.5zM7.5 585.1c-2.7 1.1-5.6 2.1-6.2 2.2-.7 0-1.3 1.3-1.3 2.9v2.9l3.9-3.2c3.2-2.5 5.3-3.3 10.9-3.9 12.4-1.3 17.6.3 25.4 8.1 5.2 5.2 6.8 9.4 6.8 18.3 0 10.8 0 10.7 7.9 10 6.3-.6 6.9-.5 10 2.1 3.1 2.7 3.2 3.1 2.9 8.6-.3 5.6-.2 5.8 2.2 6.1 2.8.3 4 3.9 2 6.4-1 1.1-.9 1.4.9 1.4 1.2 0 3.8-.7 5.8-1.5 5.9-2.5 13.5-1.9 20.2 1.5 9.7 4.9 14.6 12.6 14 22.4-.5 9.3.8 10.8 5.5 6.1 2.7-2.7 3.5-2.6 8 1 1.6 1.2 1.9 2.6 1.7 6.8-.1 3.9.2 5.7 1.4 6.7 2.2 1.8 3.5-.1 3.5-5.3 0-8.7 6.8-15 18.5-17.5 7.5-1.6 10.7-.5 17.5 6.1 5.7 5.5 6 6.1 6 10.6 0 3.1-.5 5.3-1.5 6.1-3.9 3.2.9 5.7 5.1 2.5 2.3-1.7 11.7-2 16.2-.4 7.1 2.5 11.7 16 7.3 21.9-1.1 1.6-2.1 3.4-2.1 4 0 .6-2.5 2.2-5.6 3.7-3.7 1.7-5.2 2.9-4.5 3.6.7.7 3 .2 7.3-1.6 6.2-2.7 6.4-2.7 12.1-1.2 12.6 3.3 19 7.9 23.3 17 2.7 5.7 2.9 7.6 1.2 15.7-1.5 7.2-6.6 13.6-11.7 14.7-1.9.3-3.6 1.2-3.8 1.8-.6 1.8 4.4 2.7 7.3 1.4 2.1-.9 2.6-.8 3.4 1.2.6 1.2 1.4 2.9 1.8 3.7.5.8 1.8 3.3 2.9 5.5 2.5 4.9 8.9 8.7 13 7.6 3.3-.9 4.3-3.1 1.3-3.1-3.4 0-7.5-2.6-8.9-5.7-.8-1.5-2.1-4.2-2.9-5.9-2.2-4.6-.9-9.6 3.8-14.5 3.9-4.1 3.9-4.1 10.1-3.7 6.4.5 6.3.4 11 7 1.4 1.9 1.9 2.1 3.3.9 1.2-1 1.4-2.3 1-5.2-1.1-6.5 3.8-12.3 12.8-15.2.9-.3 2.8.3 4.3 1.5 2.1 1.6 2.8 1.8 4 .8 2.3-1.9 1.8-5.8-1.2-9.7-2.6-3.4-2.8-4.3-2.7-12.7.1-8 .4-9.7 2.8-13.8 2.6-4.6 7.5-9.1 12.4-11.7 4-2.1 17.6-1.6 22.5.8 2.4 1.2 5 2.1 5.7 2.1.8 0 3.2-1.9 5.2-4.1 3.3-3.6 4.2-4 6.5-3.4 1.6.4 4.8.8 7.3.9 4.1.1 4.5-.1 5.3-2.9 1.6-5.2 2.3-6 6.5-6.7 2.3-.4 5-1.2 6.1-1.8 2.8-1.4 4.9 0 8.4 5.7 2.4 4 3.1 4.4 5.5 3.9 1.5-.4 3.5-1.6 4.5-2.8 1.8-2.2 2.3-7.3.8-8.3-.5-.3-.7-3.1-.4-6.3 1.1-11.8 5.7-25.2 8.7-25.2.8 0 3.6-1.5 6.2-3.3 9.5-6.5 22.4-9.2 30.4-6.2 2.5.9 5.9 2 7.5 2.6 4.9 1.4 13.3 11.1 16.4 18.7 2.7 6.6 6.1 9.6 6.1 5.4 0-1.1.7-2.5 1.5-3.2.8-.7 1.5-2.1 1.5-3 0-1 1.2-3.2 2.6-4.9 2.2-2.6 3.3-3.1 7-3.1 3.8 0 4.5.4 5.9 3 1.8 3.4 7.4 6.6 9.9 5.7 2.4-1 1.9-2.3-1.8-5.2-1.9-1.5-3.8-3.9-4.1-5.5-1-4.6 1.1-10.5 5.2-14 3.4-3.1 4-3.2 9.5-2.7 5.7.5 5.8.5 5.8-2.1 0-1.4-.2-2.3-.5-2-.4.3-2.4.2-4.6-.3-3.3-.8-4.7-.5-8.8 1.6-5.5 2.7-10.8 8.5-11.9 13-.7 2.7-1.2 3-5.4 3.3-3.7.2-5.5 1.1-9.1 4.3-2.5 2.1-4.7 3.9-4.9 3.9-.2 0-3-3.2-6.3-7.1-5-6.1-7-7.7-13.2-10.6-15-6.9-28-5.1-46.1 6.5-4.5 2.8-5.9 4.5-8.4 9.8-3.8 8.1-5.7 18.7-4 21.5.7 1.1 1 2.4.7 3-.4.5 0 2.2.8 3.9.8 1.6 1.2 3.1.9 3.4-1.4 1.5-4.9.3-7.8-2.5-3-2.9-3.9-3.2-10.3-3.3-6.2-.1-7.3.2-9.8 2.5-4.6 4.2-7.8 5.8-9.4 4.8-2.8-1.8-6.5-.8-11.7 3.1-4.7 3.6-5.5 3.9-7.5 2.8-1.3-.7-6.4-1.2-12.7-1.3-10.2 0-10.7.1-18 3.7-6 3-8.2 4.7-10.7 8.5-4.5 6.7-5.2 9.2-5.4 18.1-.1 5.3.3 8.9 1.5 11.6.9 2.2 1.3 4.3.9 4.6-.5.4-2.9 1.5-5.5 2.4-3.1 1.1-6.2 3.4-8.8 6.3-3.8 4.4-4.3 4.6-9.8 4.8-3.1.1-7.5.5-9.7.9l-4.1.7v-7.3c0-5.6-.5-8.3-2.2-11.5-4.7-8.9-13.7-15-25.6-17.4-8.1-1.6-7.9-1.5-5.5-4.8 1.8-2.4 2.1-3.9 1.7-8.9-.3-4.8-1.1-6.9-3.9-10.7-4.3-6-8.5-8.2-17.4-9.2l-7-.8-.6-3.6c-1-6.7-10.9-16.3-18.9-18.4-8.2-2.2-20.7 1.2-27.2 7.3-2.6 2.4-2.8 2.4-5.2.8-1.4-.9-4.1-1.6-6.1-1.6-3.1 0-3.5-.3-3.5-2.5 0-8.8-8.1-19.7-17.7-23.6-4.4-1.8-6.7-2.1-13-1.7l-7.6.5-3.8-3.8c-3-3-3.9-4.7-3.9-7.3 0-7-7.8-13-16.2-12.4l-5.1.3-.1-7.5c-.1-8.9-2-13.4-8-19.2-9-8.8-9.7-9.1-20.9-9.4-8.5-.3-11.1 0-15.2 1.7z"/><path d="M19.4 614.5c-.4.9-.3 4.1.1 7.3.3 3.1.8 7.3.9 9.2.2 1.9.8 4.8 1.5 6.4.7 1.9.8 3.3.2 3.9-1.4 1.4-13.1-5.4-15.9-9.2-3-4.1-6.2-4.2-6.2-.2 0 1.6.6 3.1 1.5 3.5.8.3 1.5 1.1 1.5 1.8s.9 2.4 2 3.8c3.1 3.9 2.6 5.3-1.5 4.6l-3.5-.7v5.8c0 5.7.1 5.8 4.5 8.8 2.9 1.9 4.5 3.7 4.5 5.1 0 1.1.5 2.5 1.2 3.2 1.5 1.5 4.2 1.6 3.2.1-1.2-2 1.8-2.7 5.9-1.3 2.2.8 5.3 1.4 6.9 1.4 3.2 0 9.2 3.6 8.3 5-.4.7-5.7-.1-10.7-1.6-1-.3-1.8-.1-1.8.4s3.1 1.5 7 2.2c5.7 1.1 7.6 2 11 5.2 2.3 2.1 4.6 3.8 5.1 3.8s.9.5.9 1.1c0 2.9-17.3-2.7-22.5-7.2-1.8-1.6-3.5-2.9-3.9-2.9-1.3 0-.5 2.1 1.4 3.7 1.5 1.3 1.9 2.5 1.4 4.8-.4 2.4.1 3.9 2.6 7 3.6 4.5 13.9 11.9 18.8 13.6 1.7.6 3.2 1.5 3.2 2 0 1.3-3.2 1.1-7.8-.5-2.2-.8-4.3-1.2-4.6-.9-1.4 1.4-.4 2.3 3.7 3.3 2.3.6 5.3 1.6 6.7 2.1l2.5 1.1-2.2.9c-1.3.5-2.3 1.4-2.3 2 0 1.1-1.6.9-5.2-.6-1.3-.5-1.8-.2-1.8.8 0 .9.9 1.9 2 2.2 1.9.6 2.4 1.6 2.1 4.2-.2 1.7 3.8 4.1 8 4.9 1.8.4 4.5 1.5 5.8 2.6 1.3 1 3.1 1.8 4 1.8 1.2 0 1-.5-.8-1.9-1.5-1.1-2.1-2.3-1.6-3.1 1.2-1.9 13.6-.6 15.2 1.6 1.6 2.2.8 3.4-2.3 3.4-2.2 0-2.4.3-1.8 2.7.4 1.6.7 3.2.8 3.8.1 1.3-13.1 1.6-21.5.4-8.7-1.2-15 1.1-21.6 7.6-2.5 2.6-5.7 5.4-7 6.2-2.6 1.7-6.7 8.2-7.8 12.3-.3 1.4 1.5-.7 4.2-4.7 2.6-4 6.7-8.6 9-10.2 2.3-1.7 5-4.2 5.9-5.6.9-1.4 2.4-2.5 3.3-2.5.9 0 2.9-.7 4.4-1.5 2.3-1.2 3.3-1.2 5-.3 1.4.8 5.9 1.2 12.7 1 11.8-.2 26.4 1.4 29.6 3.3 1.1.7 3.1 1.5 4.4 1.7 1.6.2 2.6 1.1 3 2.8.4 1.8 1.6 2.7 4.7 3.5 2.3.5 5 1.7 6 2.6 2.3 1.9 7 4.9 7.9 4.9.3 0 .4-.7.1-1.5-.4-.8-.2-1.7.4-2.1.6-.3 1.3.3 1.6 1.5.7 2.7 1 2.6 5.7-.9 2.2-1.7 4.7-3 5.7-3 4.2 0 2-8.4-3.5-12.9-3.3-2.8-1.9-3.9 5.5-4 7.4-.1 9.9-1 13.8-4.7 3.3-3.4.4-3.2-4.6.2-2.9 2-4.6 2.4-7.2 2-5.3-.8-5.8-2.2-1.4-3.6 3.6-1.2 8.3-4.6 8.3-6.1 0-.3-1.5-1.2-3.2-1.9-4.3-1.7-8.8-5.9-8.8-8.2 0-2.5.9-2.3 4.5 1.1 1.6 1.6 4.7 3.9 6.9 5.1l3.9 2.1 2.1-2c1.2-1.2 2.8-2.1 3.4-2.1.7 0 3-1.1 5.2-2.5 3.2-2.1 4.4-2.3 6.6-1.5 2.5 1 2.6 2.5.1 2.5-.7 0-1.1 1.2-.9 2.8.3 2.6.1 2.7-1.8 1.7-1.6-.9-2.2-.8-2.6.5-1.7 4.3 4.8 3.2 9.1-1.5 3.5-3.8 14.8-1.8 13.2 2.4-.4 1.1-1.8 1.6-4.6 1.6-7.4 0-8.3 3.5-2.9 12 2.2 3.5 2.8 5.2 2.3 7.7-.3 1.8-.1 3.4.5 3.8 1.6 1-1.5 4.2-4.7 5-1.6.4-3.9-.1-6.4-1.5-5.3-2.7-6.3-2.6-8.4 1.4-1.8 3.2-1.8 3.6-.2 6s3.6 3.1 7.9 2.7c2.8-.3 8.6 2.6 10.3 5.3 2.1 3.2.8 8-3.5 12.1-2.7 2.5-3.4 2.7-8.1 2.2-2.8-.4-5.7-1.1-6.5-1.8-.7-.6-1.8-.8-2.4-.4-.8.5-1-.5-.8-3.1.2-2.8.8-4 2.1-4.2 2.8-.6 4.9 1.6 3.6 3.9-1.1 2.2.1 2.5 3.2.9 4.4-2.4.5-8.4-5.2-7.8-3.1.3-3.2.2-4.9-6-1-3.4-2-6.6-2.4-6.9-1.6-1.6-1.6 1.2-.1 7.4 1.1 4.4 1.5 8.8 1.2 12.5-.6 6.7-.9 6.5 12.9 7.5 7.5.5 10.1.2 14.5-1.3 3-1 6-2.2 6.7-2.7.8-.7 1.2-.3 1.2 1.2 0 1.3.6 2.1 1.6 2.1 1.3 0 1.5.6 1 2.7-.8 3.2-4 6.3-6.6 6.3-1.6 0-1.8-.6-1.3-3.6.5-2.9.3-3.6-.8-3.2-.8.3-1.3 1.4-1.2 2.6.3 2.6-.9 3.5-8.7 6.1-5.3 1.8-9.7 2.3-23.8 2.8-19.9.6-21.2.2-21.2-6.8 0-3.7-1.7-6.3-2.4-3.7-1.8 6.7-2.2 7.3-4.9 7.3-1.5-.1-2.7.3-2.7.7 0 .4 1.4.8 3.1.8 1.8 0 4.8 1 6.8 2.2 3.4 2.2 4.6 2.3 18.9 2.1 13.6-.1 15.2 0 15.2 1.5 0 .9-.4 2.3-.9 3.1-.6.9-.5 2.3.2 3.8 1 2.3 1.3 2.3 14.6 2.2 7.5-.1 12.5-.4 11.1-.6-1.4-.2-2.9-1-3.5-1.7-.6-.7-4.5-1.5-9.4-1.9-9.2-.7-11.2-1.7-9.5-4.5 2-3.2 13.7-7.3 18.9-6.5 4 .5 9-2.7 9.9-6.4 1-3.6 3.4-6.3 5.8-6.3 1.1 0 1.7-.4 1.3-.9-.3-.5-2.1-.7-4-.4-3 .5-3.6.2-4.5-2.1-.5-1.4-1.2-2.6-1.4-2.6-.3 0-2.6 1.3-5 2.9-3 1.9-5.4 2.7-7.1 2.3-3.1-.5-3.1-.6-.1-4.5 4.8-6.5 4-11-2.3-13.7-1.7-.7-3.1-1.8-3.1-2.5 0-1.6 2.9-4.1 5.8-5 1.2-.3 2-1 1.7-1.5-.3-.5.2-2.1 1.1-3.5 1.8-2.7 1.3-7.8-1.1-12.5-.7-1.4-1.4-4.3-1.6-6.5-.4-3.7-.2-4 2.5-4.5 1.6-.3 3.9-1.9 5.3-3.7l2.5-3.2-3.9-1.7c-2.1-.9-5.4-1.7-7.3-1.8-4.8-.1-6.3-1.2-5-3.6 3-5.6-.7-16.2-6.6-18.6-6.1-2.6-11.2.5-6.3 3.8 1.6 1 2.3 2.7 2.6 6.3.7 7.3-.6 9.7-6.3 11.8-8.1 2.9-10.9 2.4-15.6-2.8-2.3-2.5-4.9-4.5-5.9-4.5-2.5 0-4.2 3.6-3.4 6.8.7 3 5.2 8.2 7.1 8.2.6 0 1.7.6 2.3 1.4 1 1.2.8 1.8-1.1 2.9-1.3.8-3.5 1.8-5.1 2.1-1.5.4-3.6 1.5-4.7 2.6-1.9 1.9-2.2 1.9-4.3.5-5.2-3.4-10.9-15.4-12.1-25.5-.7-5.3-5.8-20.7-8.1-24.2-.6-.9-4-3.8-7.5-6.4-3.6-2.6-8.2-6.3-10.2-8.1-2.1-1.8-6.6-4.7-10-6.4-18.8-9.5-32.9-20-36.5-27.1-3.1-6.1-7.3-16.4-7.3-17.6 0-1.9-2-2.4-2.6-.7zm3.6 6.7c0 .7 1.2 4.4 2.7 8.3 3.1 7.8 9.5 14.8 19.3 21.2 3 2 6.7 4.4 8.2 5.4 1.5 1.1 3 1.9 3.3 1.9 1.2 0 13.6 7.2 13.2 7.6-1.2 1.2-40.7-18.4-41.4-20.5-.2-.9-1.4-3.4-2.6-5.6-1.1-2.1-2.4-6-2.8-8.5-.4-2.5-1.1-6-1.5-7.8-.4-2.1-.3-3.2.5-3.2.6 0 1.1.6 1.1 1.2zm-1.5 24.2c2.8 1.8 6.4 4 8 4.9 9.1 4.6 28.4 13.7 29.1 13.7 1.2 0 26.5 12.9 29.4 15 3.6 2.6 8.8 16.1 10.6 27.5 1.5 10.2 4.5 16.8 10.5 23.5 13.5 15.2 16.6 20.1 11.7 18.5-1.3-.4-4.4-.6-7-.6-5.8.2-7-1.4-3.2-4.4 2.9-2.3 2.9-2.3 1-4.4-1.1-1.2-3.3-3-5-4.1-4.4-2.7-14.5-23.9-16.1-33.6-.3-2.1-1.3-6.6-2-9.9-.8-3.3-1.6-7.1-1.7-8.4-.2-1.9-1.3-2.8-4.8-4.1-2.5-.9-5.6-2.1-7-2.7-3.8-1.6-13.4-4.3-15.4-4.3-1.6 0-10-3.9-18.6-8.5-1.4-.7-6.8-3.6-12-6.5-8.7-4.7-14.6-9.6-17.2-14.4-.9-1.7-.7-1.8 1.8-1.2 1.6.4 5.2 2.2 7.9 4zm-7.7 5.2c-1 1-2.8-.6-2.8-2.4 0-1.5.1-1.5 1.7.1.9.9 1.4 1.9 1.1 2.3zm-7.5 0c3.7 3.1 14.7 8.5 15.9 7.8 1.3-.8 10.7 1.8 12 3.3.8 1 .6 1.3-1 1.3-1.2 0-2.4-.5-2.7-1-.3-.6-1.7-1-3.1-1-1.7 0-2.4.5-2.4 2 0 2.6-2.4 2.6-9.7-.2-7.3-2.7-10.8-5.3-12.8-9.4-2.8-6-1.3-7.1 3.8-2.8zm32.5 14.9c6.1.3 7.3 1.9 4 5.2l-2.6 2.6-4.8-3.4c-5.4-3.9-7.1-6.6-3.3-5.3 1.3.4 4.3.8 6.7.9zm16.7 7.3c2.2.4 3.9 1.1 3.8 1.7-.1.5.8 2 1.9 3.2 2.8 3 .9 3-5.1-.1-2.5-1.3-5.8-3-7.3-3.7-1.6-.7-2.8-1.7-2.8-2.2 0-.5 1.2-.6 2.8-.3 1.5.4 4.5 1 6.7 1.4zm19 5.6c4.9.5 8.3 1.7 8.9 3.2.6 1.7-.9 1.7-8.5.1-3-.7-6.6-2-8-2.9l-2.4-1.7 3.5.5c1.9.3 4.9.7 6.5.8zm-20 5.5c2.2 2.1 6 4.3 8.5 5 2.5.7 5.4 1.9 6.5 2.7 1.9 1.4 1.9 1.4-.2 3.5-1.9 1.9-2.4 2-5.9.9-9.9-3.1-16.1-8-9.1-7.2 3.7.5 3.4-1.5-.5-3.3-1.8-.9-5.1-2.7-7.3-4.1l-4-2.5 4 .6c2.6.4 5.4 2 8 4.4zm15.2-.5c4.9.1 6.1 1 4.3 3.1-1.5 1.9-.1 3.9 4.3 6.2 2 1 2.6 1.8 1.8 2.2-.7.5-.2 1.2 1.6 2 1.5.7 2.5.9 2.1.5-.4-.4-.3-1.3.3-2 .8-1 .1-1.8-2.9-3.3-6.5-3.3-6.2-6.7.5-5.9 2.4.3 2.9.9 3.6 4.3 1.3 6 2 13.5 1.3 13.5-1.4 0-14.6-7.1-14.6-7.8 0-.4.4-1.2 1-1.8 1.8-1.8-1.7-5-8-7.3-3.3-1.2-6-2.6-6-3.1 0-1.3 2.3-2 4.5-1.3 1.1.3 3.9.6 6.2.7zM31 685.9c0 2.6-1.7 3.6-3.5 2.1-2.3-1.9-1.8-4 1-4 1.8 0 2.5.5 2.5 1.9zm11.3 1.7c1.8 1 4.6 2.7 6.2 4 1.7 1.2 4.6 2.9 6.5 3.7l3.5 1.5-3.7.1c-4.6.1-16.6-4.4-19-7.1-3.4-3.8.7-5.1 6.5-2.2zM158 699c1.5 3.7 1 9.5-1 9.5-1 0-1.8-1.8-2.6-6-.6-3.3-1.2-6.5-1.4-7-1-4 3-1.2 5 3.5zm-113.9-2.5c.6.4 4.3 1.5 8.2 2.4 10.1 2.5 10.3 4.6.4 3.8-5.7-.4-8.7-1.2-12.1-3.2-4.5-2.6-5.2-3.5-4-4.7.6-.6 5.5.5 7.5 1.7zM79 703c3.7 1.9 5.3 4 3 4-1.8 0-1 2.3 1.7 5.2 2.5 2.7 2.6 2.8.9 4.7-1.8 2-2.6 2.1-11.8.5-4-.7-8.4-4.6-7.3-6.4.4-.7 2.8-1.1 5.9-1 6.7.3 7.6.2 7.6-1 0-.5-1.9-1.4-4.2-2-9.1-2.3-11.5-4.5-5.5-5.3 1.7-.2 3.8-.5 4.5-.5.7-.1 3.1.7 5.2 1.8zm-12.5 3.5c2.4 1 2.6 1.4 1 1.4-1.1.1-3.3.8-4.9 1.6-3.6 1.9-5.7 1.9-10.2 0-4.1-1.7-3.7-4 .5-3.2 1.5.3 3.3.2 4.1-.4 2.1-1.3 6-1 9.5.6zm24.9 6.4c2.5 7.9 2 9.6-1.9 6.7-1.7-1.2-1.8-1.6-.5-3.1s1.1-2-1.3-3.9c-3.3-2.7-3.5-4.6-.3-4.6 2 0 2.6.9 4 4.9zm-26.8 3.2c1.7 1 3.9 1.9 4.8 1.9.9 0 1.6.4 1.6.9s-2.5 1.3-5.5 1.6c-4.8.6-6.2.4-12-2.3-3.6-1.7-6.5-3.6-6.5-4.3 0-1.8 13.8-.1 17.6 2.2zm-15.1 2.6c6 2.9 3.4 5.5-2.9 2.9-4.5-1.9-4.7-3.1-.9-4.5.1-.1 1.8.7 3.8 1.6zm33.3 7.2c.4 2.2.1 2.4-3.4 1.8-2-.4-4.2-1.1-4.8-1.7-1.6-1.6 1.2-3.1 4.9-2.8 2.3.2 3.1.9 3.3 2.7zm15.2 2.4c1.1 2 2 3.9 2 4.2 0 .9-5.2-.6-9.2-2.6-6.6-3.3-6.3-5.4.6-5.4 4.3.1 4.8.3 6.6 3.8zm-20.6 4.5c-1.4 2.1-5.8 2.3-6.2.2-.1-1 .8-2 2.5-2.6 3.4-1.3 5.2-.1 3.7 2.4zm12.6-.7c2.2 1.2 4 2.8 4 3.6 0 1.2-1 1.4-5.2.8-6.3-.8-8.8-2.6-6.8-4.9 1.7-2.1 3.2-2 8 .5zm16.1 5c1.6 1.1 2.9 2.5 2.9 3 0 1.5-6.4 1-8.9-.8-2.3-1.5-2.3-1.7-.6-3 2.5-1.7 3.2-1.7 6.6.8zM76 737c0 .5-.2 1-.4 1-.3 0-.8-.5-1.1-1-.3-.6-.1-1 .4-1 .6 0 1.1.4 1.1 1zm14 2c0 .5-.7 1-1.6 1-.8 0-1.2-.5-.9-1 .3-.6 1-1 1.6-1 .5 0 .9.4.9 1zm11 4.6c0 .5-6.1-.5-6.9-1.2-.1-.1 0-.7.4-1.3.6-1.1 6.5 1.2 6.5 2.5zm-3.6 2c2.2.9 2 2.4-.3 2.4-2.1 0-3.4-1.3-2.4-2.4.8-.7.8-.7 2.7 0zm9.6 5c0 .8-.4 1.4-1 1.4-1.2 0-3.1-3.5-2.3-4.4.9-.8 3.3 1.4 3.3 3zm10 .4c0 .5-.9 1-1.9 1-1.1 0-2.3-.5-2.6-1-.4-.6.5-1 1.9-1s2.6.4 2.6 1zm37.4 3.5c2 .9 3.4 2 3.1 2.5-1 1.7-3 1.1-5.5-1.5-2.7-2.9-2.5-3 2.4-1zM157 805c1.3.8 1.3 1-.2 1-.9 0-2-.5-2.3-1-.8-1.3.5-1.3 2.5 0z"/><path d="M16.6 669.9c-.3.5.1 1.1.9 1.5 1.5.6 2.9-.7 1.8-1.8-.9-.9-2.1-.8-2.7.3zM13.7 677.6c-.4.4-.7 1.5-.7 2.4 0 2-6.9 6-10.4 6-1.4 0-2.6.4-2.6 1 0 1.9 6.6.9 11.5-1.8 3.9-2.1 5-3.3 5-5.1 0-2.4-1.5-3.7-2.8-2.5zM459 684.2c-4.1 1.6-10 4.1-13 5.5-3 1.4-7.7 3.3-10.5 4.3-2.7 1-11.1 4.8-18.5 8.4-12.8 6.3-23.3 13.6-31.5 21.8-1.6 1.7-4 3.8-5.3 4.6-2.2 1.4-2.5 1.3-5-1.1-1.5-1.5-3.1-4.6-3.7-6.9l-1-4.3h-5c-5.9 0-11.8-1.9-16.1-5.2-4.3-3.2-6.9-2.9-11.2 1.4-2 2.1-5.8 5.6-8.3 7.8-3.4 2.9-5.9 6.7-9.4 13.7-4.8 9.6-4.8 9.8-3 11.8 3.3 3.6.6 4.4-6.6 2-3.5-1.2-7.1-2.6-8-3-1.9-1.1-3.4.4-10.4 10.3-4.4 6.4-5.4 7.2-13.6 11-4.9 2.3-9.1 4.9-9.4 5.9-.3.9-1.9 3.3-3.5 5.3-1.7 2.1-3 4.4-3 5.1 0 1.5.6 1.5 12.5 1.9 9.2.3 27.1 3.2 31.6 5.2 4.2 1.7 6.7 1.2 12.1-2.4 3.6-2.4 4.3-2.5 11-1.8 9.4 1.1 26.5 1.2 30 .2 1.5-.4 4.4-2.2 6.4-3.9 2.9-2.5 4.5-3.2 8.2-3.3 3.6 0 4.8-.5 5-1.8.2-1.1-.1-1.5-1.1-1.1-.8.3-1.7-.1-2-.9-.3-.9-2-1.5-4.6-1.5-3.7-.1-4.2.3-5.7 3.4-2.1 4.3-4.5 6-10.4 7-6.8 1.1-10 1.1-16 .2-7.2-1-17.6-1.2-22.1-.3-4.1.8-5-.3-4.2-4.7l.5-2.5 13.6.2c11.9.2 14.1 0 17.3-1.7 4.2-2.2 11.3-9.4 10.4-10.7-.2-.5.1-1.4.9-2 .9-.8 1.2-2.6.8-6.1-.3-3.6 0-5.7 1.3-7.6 2.4-3.7 2.9-2.3 1.4 3.5-1 4.1-1 5.3.1 6.6 2 2.4 3.2 1.3 3.5-3 .1-2.2.6-5.7 1-7.8.7-3.4.5-4-2.8-7.2-5.2-5-10.7-4.4-10.7 1.1 0 3.3 1.6 3.8 3.4 1.2 1.7-2.4 2.1-1.2 1 2.9-.6 2-3.3 2.6-5.9 1.2-2.3-1.2-6.3-.8-6.9.7-.3.8-1 1.3-1.6.9-.5-.3-2.3.1-3.9 1-3.6 1.8-4.1 1.9-4.1.3 0-.7 1.2-2.2 2.7-3.3 3.8-3.1 2.2-4.9-2.5-2.8-11.3 4.9-10.6 4.9-11.6.2-.4-2.1-.1-4 .8-5.3.7-1.2 1.7-3.7 2.1-5.5.5-2.3 2.7-5.3 6.9-9.3 11.7-11.4 10.8-10.8 13.4-9.1 1.2.9 2.2 2 2.2 2.6 0 .6 1.2 2.8 2.6 4.8 2.6 3.8 2.6 6.3 0 5.3-.7-.3-2.6.6-4.2 1.9-2.8 2.5-2.9 2.5-1 4.6 2.2 2.4 4.2 2.6 8.3 1 1.5-.6 3.9-1.6 5.3-2.1 4.8-1.9 5.5-2.5 5.8-4.7.2-1.3-.2-2.1-1.2-2.1-2.6 0-2.9-2.1-.5-4.6 2.3-2.4 2.3-2.4 4.3-.5 1.8 1.9 1.8 2.1.2 4.6-2.1 3.1-1.2 4.9 2 4.1 3-.8 3.1.6.3 4.5-1.3 1.8-1.8 3.7-1.4 4.7.6 1.5.9 1.4 2.8-.9 1.2-1.4 2.7-3.3 3.2-4.3.7-1.1 1.4-1.3 2.5-.6 1.1.7 1.2 1.3.5 2.3-5.6 7.8-6.7 9.9-5.8 10.8.7.7 2-.2 4.1-2.9 2.5-3.2 3.7-3.8 5.7-3.4 2.6.5 3.3-.6 1.4-2.5-.6-.6-.8-2.1-.4-3.3 1-3.1 8.5-11.1 9.7-10.4.5.3 1.4.1 2.1-.4 1.1-1 13.3-5 22.2-7.3 2.2-.6 5-1.5 6.3-2 1.2-.5 2.2-.5 2.2 0 0 1.4-4.7 4.1-8.3 4.7-7.1 1.3-17.7 5.2-17.7 6.5 0 1.4 3.3 1.1 10.1-1.1 3.5-1 6.5-1.7 6.7-1.5.8.8-6.4 4.6-11.8 6.1-8 2.4-10 3.2-10 4.4 0 .7 1.9.9 5.3.5l5.2-.5-5 2.4c-4.4 2.2-8.1 3.2-12.2 3.5-1.6.1-1.7 3.1-.2 3.1.5 0 .7.4.4 1-.3.5-1.7 1-3.1 1-2.1 0-2.4.4-1.9 2 .4 1.3.2 2-.6 2-1.9 0-10.8 6.3-10.9 7.7 0 1.8 1.4 1.6 4.3-.7 3.1-2.5 5.7-2.6 5.7-.3.1 2.2 4.8 9.2 7.3 10.7 1.3.8 2.4.7 4.7-.6 2.5-1.4 3.1-1.4 4.1-.2 1.8 2.1 4.8 1.7 6-.9 1-2.2 1.4-2.3 4.9-1.4 6.5 1.8 9.1-2.3 4.9-7.7-2.3-3-2.4-2.9 5.3-2.6 7 .2 9.7-.6 10.7-3.3.4-1.1 2.3-2.6 4.2-3.2 3.4-1.2 3.1-1.2 15.3 3.5 2.8 1 2.8 1.1 1 2.4-1 .7-3.5 1.8-5.5 2.5-2 .6-4.5 2.2-5.7 3.4-2.7 3-5.2 9.2-5.2 13.1 0 4.7-1.2 5.4-9.5 4.8-4-.2-8.6-.1-10.1.2-5.3 1.4-.8 2.6 10.4 2.8 10.3.3 11.5.5 13.4 2.5l2.1 2.3h-3.7c-4.3 0-9.1 2.2-10 4.6-.4.9.1 2.8 1 4.1 1.2 1.9 2.1 2.3 3.7 1.8 2.3-.6 15.9-2.1 28.7-3.1 13.1-1 13.2-1.1 14.9-13.7.8-5.3.6-7.7-.5-10.9-.8-2.2-1.4-4.9-1.4-5.9s-1.8-3.7-4-6.1l-4.1-4.2 5.9-6c3.3-3.4 7.6-9 9.7-12.6 2-3.5 6.1-8.8 9.1-11.6 5.1-4.9 6.7-8.5 4.4-9.9-.6-.4 0-2.6 1.5-5.6 1.4-2.7 2.3-5.4 2-5.9-.7-1.2-6.2 1.5-12.3 6-5.1 3.7-7.6 8.7-6.8 13.9.3 2 0 5-.7 6.8-1.3 3.5-8.5 11.4-16.5 18.1-5.4 4.5-7.9 4.8-12.7 1.6-1.1-.8-2.7-1.4-3.7-1.4s-3.3-1.4-5-3.1c-2.6-2.5-3-3.2-1.8-3.9.8-.6 2.5-1 3.6-1 1.2 0 3.4-1 5-2.2 5-3.9 5.5-5.4 2.2-6.7l-2.3-.8 2.4-.8c1.3-.4 7.9-6.4 14.7-13.2 11.8-11.9 12.7-13.3 12.3-18.1-.1-1.5-4.8-.3-14.1 3.7-5.2 2.3-10.1 4.1-10.9 4.1-2.4 0 5.5-7.1 12.2-11.1 6.9-4 8.6-6.1 6.6-7.7-.8-.7-3.7 0-8.7 2zm4.6 1.6c-.3.5-4.6 2.6-9.6 4.7s-9.9 4.9-11 6.2c-1 1.3-3.8 3-6.1 3.8-2.4.9-7.5 3.8-11.4 6.4-4.8 3.3-10.4 6-17.9 8.5-6 2-11.1 3.4-11.3 3.2-1.9-1.9 39.2-23.7 57.7-30.6 1.9-.7 3.9-1.7 4.5-2.2 1.2-1.1 5.8-1.1 5.1 0zM447.5 698c-1 1.1-2.3 2-2.8 2-.6 0-.2-.9.8-2s2.3-2 2.8-2c.6 0 .2.9-.8 2zm17.9.5c-4.6 3.4-32 16.5-34.6 16.5-1.6 0-.7-3.8 1-4.5.9-.3 7-2.7 13.4-5.1 6.4-2.5 13.9-5.6 16.5-6.9 5.1-2.4 7-2.5 3.7 0zm1.6 3.3c0 1.1-11.1 11.8-13.5 13-1.1.5-3.8 1.3-6 1.6l-4 .8 4.5-4.6c2.4-2.6 7.4-6.2 11-8.1 6.8-3.6 8-4 8-2.7zm22.4 3.9c-.4 1-.8 3.4-.9 5.3-.3 5.7-.3 5.9-4.5 8.5-5.5 3.5-5.6 3.2-1-1.7 4.4-4.4 4.8-7.1 1.2-7.6-2.9-.4-2.8-1.6.4-4.1 3.3-2.6 5.9-2.8 4.8-.4zm-56.4.8c-.7.8-1.7 1.5-2.2 1.5-.6 0-.5-.7.2-1.5s1.7-1.5 2.2-1.5c.6 0 .5.7-.2 1.5zm47.6 9.2c-1 1-1.9-.5-1-1.8.6-1.1.8-1.1 1.2 0 .2.7.1 1.5-.2 1.8zm-50.6 3.1c0 .9-5.8 3.2-8 3.2-2.5 0 .5-2.1 4.2-3 1.8-.4 3.4-.8 3.6-.9.1-.1.2.3.2.7zm18.5 2.5c-1.1.7-3.8 1.9-6 2.7-4.6 1.8-5.3 4.4-1.2 4.8 2.9.4 3.4 1.4 1.5 2.9-2 1.6-5.8 2.2-15.6 2.8-5 .3-10.5 1-12.4 1.5-4.2 1.3-8.8 1.3-8.8.1 0-1.5 1.2-2 10.7-4.7 8.5-2.5 17.3-6.4 20.3-8.9 1.9-1.6 4.4-2.2 9.5-2.4 3.6 0 3.8.1 2 1.2zm-26 5.7c-2.8 1.2-5.7 1.2-5 0 .3-.6 2.1-1 3.8-.9 2.7 0 2.9.2 1.2.9zm51.3 6.9c-.1.5-2.4 3.3-5 6.3-2.5 2.9-5.7 6.6-7.1 8.3-2.4 2.8-2.7 2.9-4.2 1.4-1.6-1.6-1.4-1.9 2.7-4.7 2.3-1.7 6.3-5.1 8.8-7.6 4.4-4.6 5.5-5.4 4.8-3.7zm-41.4 5.2c2.5 2.9.7 4.4-5.2 4.3-6.3-.1-26.5-2.6-27.4-3.3-.4-.3 3.9-.7 9.5-.8 5.6-.1 12.2-.6 14.7-1.1 6.5-1.4 6.4-1.4 8.4.9zm-18 6.3c3.6.3 7 .7 7.6 1.1 2.3 1.4.7 2.5-3.6 2.5-5.6 0-15.1-2.9-13.3-4.1.7-.4 1.6-.6 2-.3.4.2 3.7.6 7.3.8zm-21 2.5c2.9 3 2.5 4.4-.9 3.1-2.7-1-4.8-3.6-4-5 1-1.6 1.9-1.2 4.9 1.9zM309 750c3 1.1 6.2 1.9 7.1 2 2.6 0 4.2 2.5 2.5 3.9-.7.6-1.3 2.6-1.2 4.3.1 2.7.7 3.3 4.1 4.5 3.5 1.3 4.4 1.2 7.1-.2 1.8-.9 3.9-1.5 4.8-1.3 1.4.2 1.1.9-1.3 3.5-3.5 3.8-6.4 4.1-17.6 1.9-16-3.2-22.5-5.2-22.5-7.3 0-3 7.7-13.3 9.9-13.3.9.1 4.1.9 7.1 2zm34.5 2.1c-1 1.5-2.5 1-1.9-.6.4-.8 1-1.2 1.5-.9.5.3.7 1 .4 1.5zm6.4-.9c0 .7-.4 2.2-.9 3.3-.7 1.7-.9 1.5-.9-1.3-.1-1.7.4-3.2.9-3.2.6 0 1 .6.9 1.2zm35.6-.2c.3.5.1 1-.4 1-.6 0-1.1-.5-1.1-1 0-.6.2-1 .4-1 .3 0 .8.4 1.1 1zm-57.5 1c0 .5-.5 1-1.1 1-.5 0-.7-.5-.4-1 .3-.6.8-1 1.1-1 .2 0 .4.4.4 1zm80.1 2.4c2.4 3 1.9 5.9-.8 4.9-2-.6-8.3-6.3-8.3-7.3 0-.4 1.6-.6 3.5-.5 2.4.2 4.1 1 5.6 2.9zm47.3 2c-.5 1.3-.9 1.4-2 .5-1.1-.9-1.2-1.5-.3-2.6 1.5-1.7 3.2-.2 2.3 2.1zm9.5 0c3.1 3.2 3.3 3.8 3.8 12.7.5 9.7-.4 16-2.5 16.7-.7.2-1.2-.3-1.2-1.2 0-1.8-2.5-2.2-3.5-.6-1.3 2.1-10 1.1-14.6-1.8-2.5-1.5-5.4-3.2-6.5-3.8-3.3-1.9-5.8-7.5-5-11.7 1.3-7.1 8.7-12.6 12.5-9.4 2.2 1.8 9 5.7 10.1 5.7 1.1 0 4-2.9 4-4 0-.5-.8-1-1.9-1.2-1.5-.2-1.7-.8-1-2.6 1.1-3 1.9-2.8 5.8 1.2zm-128.9.1c2.5 2.7 2.3 2.9-4.2 3.8-2.1.3-4 .1-4.4-.4-.3-.6-1.2-.8-2-.5-.8.3-1.4-.1-1.4-.8 0-.8-.6-1.7-1.2-1.9-.7-.3.3-.6 2.2-.7 1.9-.1 4.4-.5 5.5-1 2.9-1.2 2.9-1.2 5.5 1.5zm53.9 1.7c1.8 5.2-1.9 6.6-3.9 1.4-.7-2 .4-4.6 2-4.6.5 0 1.3 1.4 1.9 3.2zm8.1-1.3c1.3 2.5 1.3 5.1 0 5.1-1.4 0-4.3-4.8-3.5-6 1-1.6 2.3-1.2 3.5.9zm-56 6.8c-.1 1.4-7.7 9.3-8.4 8.6-1.2-1.2-.6-2.8 2.5-6.1 2.7-2.9 6-4.3 5.9-2.5zm-49.9 1.3c1 .6 3.8 1.4 6.1 1.9 2.4.5 7 1.6 10.3 2.4 3.3.9 8.6 1.8 11.8 2.2 3.1.4 5.7 1 5.7 1.3 0 .4-3.1.7-6.9.7-5 0-7.4.5-8.7 1.7-1.6 1.4-3.1 1.5-9.9.8-4.4-.4-9.6-1.1-11.5-1.4-1.9-.3-6-.8-8.9-1.1-3-.3-5.7-.8-6-1.1-.9-.9 3.8-4.3 6.8-5.1 1.4-.3 3.5-1.2 4.6-1.9 2.3-1.7 4-1.7 6.6-.4zm53.2 2.7c-.8 2.4-5.3 6.7-6 5.9-.5-.5 5.4-7.6 6.4-7.6.1 0 0 .8-.4 1.7zM290 777c10.9 1.6 14.7 2.5 15.5 3.7.6.9 2.1 2.7 3.4 4 2.4 2.3 2.3 4.5-.1 2.6-2.1-1.7-18.3-4.5-30.1-5.2-6.5-.3-11.2-1-11.4-1.7-.2-.6.6-2.3 1.7-3.7 1.5-1.9 2.8-2.6 4.3-2.2 1.2.3 8.7 1.4 16.7 2.5zm156.1 8.5c4.9 2.6 2.4 3.6-8.2 3.4-8.1-.2-9.7-.5-8.8-1.6.7-.7 3.2-1.3 6-1.3 2.6 0 5.1-.5 5.4-1 .9-1.4 2.1-1.3 5.6.5z"/><path d="M435 728c0 .5.5 1 1 1 .6 0 1-.5 1-1 0-.6-.4-1-1-1-.5 0-1 .4-1 1zM23.7 695.9c-.6 2.5 2.8 7 4.3 5.5.8-.8.7-1.4-.5-2.4-.8-.7-1.5-2.1-1.5-3.1 0-2.4-1.6-2.5-2.3 0zM142.6 721.9c-1 1.1-1.3 2.1-.7 2.5.5.4 1.3.1 1.7-.5.4-.8.9-.7 1.5.2 1.1 1.9 3.4-.4 2.6-2.5-.8-2.2-3-2-5.1.3zM388.2 729.1c.2.6.8 1 1.3 1s1.1-.4 1.3-1c.2-.6-.4-1.1-1.3-1.1s-1.5.5-1.3 1.1zM328.4 731.5c-.4.9-.2 2.1.4 2.7 1.6 1.6 4.7.5 4.7-1.7 0-2.6-4.2-3.4-5.1-1zM385.2 731.9c.2.7.7 1.2 1.1 1.2 1.2-.1.9-1.5-.3-2-.7-.2-1.1.2-.8.8zM142.7 732.7c-1.1 1 2.4 4.3 4.5 4.3 1.3 0 1.8-.7 1.8-2.5 0-2.1-.5-2.5-2.8-2.5-1.6 0-3.2.3-3.5.7zM389 735.1c0 .5.5.7 1 .4.6-.3 1-.8 1-1.1 0-.2-.4-.4-1-.4-.5 0-1 .5-1 1.1zM482.6 735.9c-2.6.5-3.1 1.2-4 5.6-.9 4-1.6 5-3.6 5.5-1.7.4-2.7 1.6-3.4 3.8-.8 2.9-.6 3.6 1.7 6 1.6 1.7 2.7 3.9 2.7 5.6 0 2.2.3 2.6 1.3 1.8.7-.7 1.8-.7 2.7-.2 1.1.7 1.1 1.1.1 2.4-1 1.2-1.7 1.4-2.7.5-1.1-.9-1.5-.7-2.1.6-.4 1.2.1 2.4 1.5 3.6 2.8 2.2 2.8 3.3-.3 5.3-3 2-2.4 3.6 1.2 3.6h2.6l-.6 8.4c-.5 7-.3 8.5.9 9 2.9 1.1 3.5-.5 3.3-9.6-.2-10.3.5-11.6 5.1-9.9 2.5.8 3.8.7 6.1-.4 5.7-3 2.3-8.4-5.6-9-2.6-.1-5.2-.8-5.8-1.4-2-2 1.3-3.2 7.2-2.5 4.2.4 5.2.3 4.9-.8-.3-.8-2.5-1.4-5.9-1.6-5.6-.4-7.9-1.5-7.9-3.8 0-1.1 1.6-1.4 6.5-1.4 8.2 0 8.5-1.6.5-2.5-4.1-.5-6-1.1-6-2.1 0-1.1 1.6-1.4 6.5-1.4 3.7 0 6.5-.4 6.5-1s-1.9-1-4.2-1c-5.7 0-8.8-.9-8.8-2.6 0-1.4 1.5-1.8 5.7-1.4 5.2.4 9.6-5.8 5.6-7.8-2.6-1.3-8.3-1.9-11.7-1.3zm9.2 2.6c.3.2.2 1.1-.1 2-.5 1.1-1.7 1.4-4.9 1.1-3.5-.3-4.4-.8-4.6-2.6-.3-2.1-.1-2.2 4.4-1.5 2.7.3 5 .8 5.2 1zM480 753c0 .5-.9 1.4-2 2-1.6.9-2.2.8-2.6-.5-.3-.8-.3-2.2 0-3 .4-1.3 1-1.4 2.6-.5 1.1.6 2 1.5 2 2zm13.4 19c1.9 1.9-.3 4-4.2 4-5.1 0-7.6-2.5-4.7-4.6 2-1.5 7.1-1.1 8.9.6zM324.7 742.7c-1.2 1.2-.7 2.2.8 1.7.8-.4 1.5-1 1.5-1.5 0-1.1-1.4-1.2-2.3-.2zM156.4 745.1c-1 1.7 1.3 3.6 2.7 2.2 1.2-1.2.4-3.3-1.1-3.3-.5 0-1.2.5-1.6 1.1zM376 745c0 .5.7 1 1.5 1s1.5-.5 1.5-1c0-.6-.7-1-1.5-1s-1.5.4-1.5 1zM199.6 754c-.3 1.7-.9 6.7-1.2 11.3-.7 8.9-1.7 11.7-3.9 11.7-.8 0-1.5.4-1.5 1 0 .5.7 1 1.6 1 .9 0 1.4.6 1.1 1.3-.3.7-1.9 5.7-3.7 11l-3.1 9.6-8 .7c-7.2.6-9.3 1.4-7.1 2.8.4.3 2.4.2 4.3-.2 3.9-.9 7.9-.5 7.9.8 0 .5-1.2 1.1-2.7 1.3-1.7.2-.9.5 2 .6 9.4.2 11.4-2.3 13.8-17.2.6-3.3 1.4-6.7 1.8-7.6.5-.9 1.1-3 1.4-4.7.3-1.8 2.7-6.2 5.3-9.8 4.4-6.4 4.5-6.8 2.5-7.3-1.7-.4-2.1-1.2-1.9-3.6.2-1.7-.2-3.2-.9-3.4-.8-.3-1.3.4-1.3 1.7 0 2.1-2.6 8-3.6 8-.7 0 .7-7.3 1.7-8.6.9-1.2-.8-3.4-2.7-3.4-.6 0-1.4 1.4-1.8 3zm9.4 7.5c0 1-5.3 8.5-5.7 8.1-.9-.8 3-8.6 4.3-8.6.8 0 1.4.2 1.4.5zm-15.4 37.2c-1.8 3.4-2 1.3-.4-4.2 1.1-3.7 1.2-3.8 1.6-1.3.2 1.5-.4 4-1.2 5.5z"/><path d="M41 764.4c0 .3 3.2 2.7 7 5.6 8.3 5.9 10.1 8.9 8 12.7-1.4 2.5-9.3 5.8-11.1 4.7-1-.6-7.9 7.6-7.9 9.3 0 1.1 1 1.3 4.8.7 2.6-.4 5.7-1.1 7-1.5 3.3-1.3 4-1.1 5.2 1.1.9 1.6.6 2.2-1.7 3.4-2.6 1.4-2.6 1.5-.6 1.6 2.5 0 2.8.4 3.7 4.6l.7 3.1-27 .1c-14.8 0-27.4.3-28 .7-.6.3-1.1 1.2-1.1 2 0 1.9 5.9 2.9 12 2.1 4.2-.6 76.5-.7 170.5-.2 16 0 82.8-.3 148.5-.7 65.7-.5 130.6-.9 144.2-1 19.1-.2 24.8-.5 24.8-1.5 0-.9-4.2-1.2-17.7-1.2-40.6-.1-109 .1-174.8.6-87.5.6-166.9.8-201.8.6l-26.8-.2-.9-2.6c-.6-1.4-1-4-1-5.8 0-2.5-.9-3.9-4.4-6.9-2.5-2-5.2-3.7-6.1-3.7-1.9 0-7.7-5.8-7-6.9.2-.5 3 .5 6.2 2 6.3 3 13.3 4.6 13.3 3 0-.5-1.7-1.2-3.8-1.6-5.7-.9-14.6-5.7-15-8-.8-5.2-2.8-7.8-9.1-12-5.7-3.8-10.1-5.6-10.1-4.1zm17.8 26.1c1.1 1.4 2.3 4.5 2.7 6.8 1.1 7 2.8 8.7 8.5 8.7 3.9 0 5.2.4 6 2 1.2 2.2.2 2.5-7.5 2-6.8-.4-9.4-3-10.2-9.9-.8-6.9-4.3-9.6-11.2-8.6l-3.6.5 4-2c5.5-2.7 8.9-2.5 11.3.5zm11.9 7.1c4.3 3.3 4.3 5.4 0 5.4-4 0-5.7-1.5-5.7-5.2 0-3.5 1.4-3.5 5.7-.2z"/><path d="M6.1 772.4c-1.5 6-1.4 10 .3 14 1.9 4.5 5.2 6.6 10.2 6.6 4.6 0 6.8 1.7 5.4 4-1.3 2-1.3 5.7 0 6.5 1.6 1 19.4.7 22.1-.4 1.8-.8-.2-1-7.8-.8-8.2.2-10.5-.1-11.8-1.4-1.5-1.5-1.4-2 1-6 1.5-2.4 4.9-6.1 7.6-8.2 5.6-4.4 5.7-6.4.2-3.6-2.1 1-4.3 1.9-5 1.9-.7 0-1.3.4-1.3 1 0 .5.8 1 1.7 1 1.3 0 1.2.5-.8 2.6s-3 2.5-5.9 2c-1.9-.4-4.6-.6-6-.6-1.4 0-3.8-1.1-5.5-2.4-3-2.4-3-2.5-2.7-11.5.1-5 0-9.1-.2-9.1s-.9 2-1.5 4.4z"/><path d="M9 775.2c.1 5 7.4 11.8 12.7 11.8 3.5 0 2.8-1.2-2.7-4.3-2.8-1.6-5.7-4.1-6.5-5.8-1.6-3-3.5-3.9-3.5-1.7zM402.6 774.7c-1.1 1.1-.6 2.3.9 2.3.8 0 1.5-.4 1.5-.9 0-1.3-1.6-2.2-2.4-1.4zM395 776c0 .5.5 1 1 1 .6 0 1-.5 1-1 0-.6-.4-1-1-1-.5 0-1 .4-1 1zM382 777.5c0 .8.5 1.5 1 1.5.6 0 1-.7 1-1.5s-.4-1.5-1-1.5c-.5 0-1 .7-1 1.5zM388.5 776.9c-.6 1.1.9 2.3 1.9 1.4.9-.9.7-2.3-.3-2.3-.6 0-1.2.4-1.6.9zM252.7 788.6c-.8.8.1 2.4 1.4 2.4.5 0 .9-.7.9-1.5 0-1.5-1.2-2-2.3-.9zM82.3 790.7c.9.2 2.5.2 3.5 0 .9-.3.1-.5-1.8-.5-1.9 0-2.7.2-1.7.5zM90 790.9c0 .7 2.4 1.1 6.2 1.1 7.4 0 7.3-.5-.4-1.4-3.9-.5-5.8-.4-5.8.3zM80 823.9l-3.5.6v14l-4.9.3c-6 .4-6.7-.5-6.4-7.8l.3-5.5-9.8.2c-9.8.1-13.1.9-8.9 2 1.2.3 2.2 1 2.2 1.7 0 1.5-6 16.9-6.9 17.9-1 1-8.1-12.3-8.1-15 0-1 .5-2.4 1.1-3 .7-.7.9-1.9.6-2.7-.5-1.2-2.2-1.6-7.2-1.6-6.7 0-8.1.8-4.3 2.5 3.7 1.7 4.5 4.1 2.6 7.7-.9 1.8-2.4 5-3.2 7.1-.9 2.1-2 3.6-2.5 3.3-1.3-.9-5.2-11.4-5.7-15.6-.3-1.9-1.2-4.1-2.1-4.8-2.2-1.6-7.8-1.5-9.2.1-1.3 1.6-.5 2.7 1.9 2.7.9 0 2.4 1.5 3.2 3.2 1.7 3.5 7.3 17.1 9.3 22.7 2.2 6 5.5 6.1 6 .2.4-3.8 5.4-14.3 6.7-13.9.6.2 2.9 3.8 5.2 8 4.7 8.7 6.6 11.2 7.6 10.1.4-.4 2-5.1 3.5-10.3 3.3-11.2 7.3-20.2 8.9-19.7.7.2 1.2 5 1.4 13.7.2 11.2 0 13.6-1.4 15.1-1.9 2.1-1.6 2.3 4.3 3.3 4 .7 5.5-1 4.5-5-.4-1.6-.5-5.2-.2-7.9l.5-5 5.3-.5c2.9-.3 5.5-.4 5.8-.1.2.2.4 4.4.4 9.3 0 8.7.1 8.9 2.7 9.9 4.1 1.5 5.6.5 4.7-3.3-.8-3.7-.8-21.1.1-28.7.3-2.7.2-5.1-.2-5.3-.5-.2-2.4-.2-4.3.1zM91.2 824.8c-.4.1-.7 8.4-.7 18.5v18.2l3.5-.1c14-.5 16.3-.9 17.7-3.1 1.6-2.4 1.2-5.3-.7-5.3-.6 0-1.6 1.1-2.2 2.5-1 2.2-1.8 2.5-5.9 2.5-4.7 0-7.1-1.7-6.3-4.5.1-.6.5-2.7.9-4.8.6-4 1.9-4.6 4.6-2.1 2.6 2.4 4.1.9 3.3-3.4-.9-4.9-1.9-5.9-4.2-3.9-3 2.7-4.1 2.1-3.8-2.1.2-2 .4-4.7.5-5.9 0-1.2 1-2.4 2.1-2.7 1.1-.3 2.9-.9 4-1.2 1.5-.4 2.2.1 3 2.1.8 2.2 1.3 2.5 2.4 1.6 1.5-1.3 1.1-4.7-.7-5.8-1-.6-15.9-1.1-17.5-.5zM247.4 827.3c.4 1.8.1 9.5-.5 17.1-1.1 13.2-1.1 14 .7 15.3 1.3 1 3.2 1.2 6.4.8 5.6-.8 6.9-1.9 4.1-3.7-1.7-1-2.1-2.3-2.1-6.5 0-4 .4-5.3 1.4-5.3.8 0 1.8.4 2.1 1 2.1 3.4 5.5-2.4 4-7-.8-2.6-3.5-2.6-4.2 0-1 4-2.8 1.4-2.8-4.1v-5.4h6c5.9 0 5.9 0 6.6 3.3.8 4 1.4 4.6 3.4 3.9 1.9-.8 2.2-10.5.3-11.2-.7-.2-6.9-.6-13.7-.9l-12.3-.5.6 3.2zM117.5 825.7c-1.9.4-2 1.2-2 18.1 0 9.7.4 18 .9 18.3.5.4 2.3.3 4-.2 1.7-.5 5-.9 7.3-.9s4.8-.3 5.7-.6c1.9-.7 2.1-5.3.3-7.8-1.3-1.7-1.4-1.7-3-.1-.9.9-1.7 2.2-1.7 3 0 1.4-2.1 2.5-5.1 2.5-1.5 0-1.9-.7-1.9-3.3 0-1.7-.3-4.9-.6-7-.5-3-.4-3.7.9-3.7.9 0 2.1.9 2.7 2 .6 1.1 1.5 2 2 2 1.4 0 2.2-3.8 1.5-7-.7-3.3-2.2-3.8-4-1.3-1.9 2.5-3.5.6-3.5-4.1 0-5.4 1.7-7.1 6.5-6.2 2.9.6 3.5 1.1 3.5 3.2 0 1.9.5 2.5 1.8 2.2 1.2-.2 1.8-1.4 2-4 .4-4.2-1.1-5-7.8-4.6-1.9.2-4.4 0-5.5-.3-1.1-.3-2.9-.4-4-.2zM288.5 825.7c-6.5 1.6-12.8 14.8-10.5 21.8 1.4 4.1 10.1 12.5 13.2 12.6 8.8.4 14.9-2.6 18.9-9.5 8.6-14.6-4.1-29.2-21.6-24.9zm13.4 4.2c2.6 2.6 3.5 7.8 2.8 15.5-.7 7.9-1.4 9.5-4.3 10.2-3.1.8-8.5-.2-10.9-2-1.6-1.2-1.9-2.8-1.9-11.6-.1-9.5.1-10.3 2.3-12.1 3.1-2.5 9.5-2.5 12 0zM444.3 826c-3.1 1.3-2.9 2.8.5 3.2l2.7.3.3 9.2c.2 5.4-.1 9.3-.7 9.3-.5 0-3.6-4.5-6.8-9.9-3.2-5.5-6.8-10.4-8.1-11-3-1.4-10.9-1.4-11.8.1-.4.6 0 1.6.9 2.3 1.4 1 1.7 3.3 1.7 13.8 0 11.7-.1 12.7-2.1 13.7-1.6.9-1.8 1.4-.9 2.5.8 1 3 1.3 7.3 1.1 5.9-.3 8.6-1.9 5.3-3.2-1.3-.5-1.6-2.3-1.6-9.7v-9.2l3.9 6c4.9 7.3 14.5 17 16 16 .6-.3 1.1-1.6 1-2.8-.1-1.2-.1-7.9-.1-14.8.2-11.8.3-12.7 2.2-13.2 3-.8 2.4-2.5-1.2-3.2-1.8-.4-4-.8-4.8-1-.8-.2-2.5 0-3.7.5zM464.7 826.7c-1.6.8-2.7 2.3-2.8 3.6-.1 1.2-.3 3.5-.4 5.2-.6 5.8-1.2 23-.8 24.1.2.8 3.5 1 10.1.7 11-.6 12.2-1.3 12.2-7.6 0-3.1-.3-3.8-1.7-3.5-.9.2-2.1 1.8-2.5 3.6-.8 3.1-1.1 3.2-5.8 3.2h-5v-5.5c0-4.1.4-5.5 1.5-5.5.7 0 1.8.7 2.3 1.7 1.4 2.5 4.6.9 3.8-2-.3-1.2-.6-3.4-.6-5 0-3.2-2.5-3.7-3.5-.7-.7 2.1-2 2.6-3 1-.3-.5-.3-3.2.1-6 .7-5 .7-5 4.3-5 3.2 0 3.8.4 4.8 3.1 1.1 2.7 1.5 3 2.8 1.9 1.6-1.3 2-4.7.7-6.6-1.2-1.8-13.4-2.4-16.5-.7zM139.4 843.2l.2 17.3 8-.3c12-.4 13.2-.8 14.9-5 2.3-5.4.3-6.4-3.9-1.9-2.9 3.1-4.2 3.7-7.5 3.7-2.2 0-4.3-.5-4.6-1.1-.8-1.3-.7-24.3.2-26.4.3-.8 1.1-1.5 1.9-1.5.8 0 1.4-.5 1.4-1 0-.6-2.4-1-5.4-1h-5.4l.2 17.2zM317.4 827.1c-.4.7.1 1.6 1.1 2.1 1.5.9 1.6 2.4 1 16-.8 16.5-.7 17.1 5 16.1 5.8-.9 6-1.2 3.6-3.6-2.3-2.5-2.9-9.5-1-11.4 1.7-1.7 4.6-.3 5.2 2.5 1.3 5.9 19.7 17 19.7 11.9 0-.9-1.7-2.5-3.8-3.6-3.3-1.7-11.2-9.8-11.2-11.5 0-.3 1.3-1.2 3-2.1 3.4-1.8 5.4-7.3 4-11.1-1.8-4.6-6.5-6.4-16.7-6.4-5.8 0-9.4.4-9.9 1.1zm15.8 2.8c2.1.8 2.3 1.4 2 6.5l-.4 5.7-3.6-.3-3.7-.3-.3-5.4c-.4-6.7 1-8.1 6-6.2zM349.2 827.2c-1.7 1.7-1.5 6.7.2 7.4.8.3 2.4-.4 3.5-1.5 2-2 6-2.9 6.1-1.4.1.5.1 6.3.2 13.1 0 10-.3 12.6-1.6 14.1-2.2 2.4-1.1 3.1 4.4 3.1 5 0 7.6-1.5 5.9-3.6-.5-.7-1.1-6.4-1.2-12.8-.2-9.8.1-11.8 1.6-13.3 1.4-1.5 2-1.5 3.5-.5 3.3 2.4 4.5 2.5 5.8.8.8-1.1 1-2.6.5-3.9-.8-2.1-1.5-2.2-14.2-2.5-9.6-.2-13.8.1-14.7 1zM401.5 827c-.9 1.4.3 3 2.2 3 1.4 0 1.5 1.2.9 9.7-.9 13-3.7 17.4-9 14-4.1-2.7-5.4-11.7-3.4-24.2.3-1.8-.3-2-5.2-2-4.4 0-5.5.3-5.8 1.7-.2 1.1.3 1.8 1.1 1.8 1.3 0 1.6 2.1 1.9 11.4.3 12.7 1.3 14.7 8.4 18.1 3.2 1.5 3.7 1.5 7.8-.4 4.1-1.8 4.8-1.8 8.6-.5 4.7 1.6 7 .7 7-2.8 0-1.6-.5-1.9-2.5-1.4-3.8 1-4.6-1.8-3.9-13.1.5-6.6 1.2-10.4 2.2-11.6.9-1 1.2-2.1.6-2.6-1.5-1.4-10.1-2.3-10.9-1.1zM209.1 833.9c-3.7 3.7-2.8 6.8 4.5 15.8 3.3 4 4.4 6.3 4.4 8.8 0 4.7-.9 6.5-3.7 7.6-2.1.8-2.3 1.2-1.3 2.4 1.8 2.2 3.3 1.8 6.8-1.8 3.4-3.5 3.8-5.5 2.6-12.4-.5-3.5-.4-4.3.9-4.3 3.5 0 3.2-5.1-.4-7-1.6-.9-2.1-.7-2.9 1.5-1.2 3.3-2 3.2-5.9-.9-3.6-3.8-3.6-7 0-7.9 1.2-.3 1.9-1.2 1.7-1.9-.7-2.1-4.5-2.1-6.7.1z"/><path d="M196.2 848.8c-3.3 2.8-3.6 5.7-1 8.6 3.2 3.7 8.9 4.5 11.7 1.7 2.8-2.8 2.7-4.5-.6-8-3.6-3.7-7.4-4.7-10.1-2.3zm7.5 4.8c.8 2.2-1.1 3.7-3.6 2.9-3.1-1-2.8-4.5.4-4.5 1.4 0 2.8.7 3.2 1.6zM490.1 855.4c-2.6 3.1 1.4 7.1 4.5 4.5 2.1-1.7 1.4-5.3-1.2-5.7-1.1-.2-2.6.4-3.3 1.2z"/></svg>