<svg version="1" xmlns="http://www.w3.org/2000/svg" width="666.667" height="1170.667" viewBox="0 0 500 878"><path d="M228.2 8.7c-1.1 2.1-.5 4.3 1.1 4.3.7 0 3.6 2.2 6.6 4.9l5.4 4.8-4.1 5.6c-2.4 3.2-5.1 5.7-6.3 5.9-1.2.2-2.7 1.1-3.3 2-1.7 2.7 1.1 4.7 5.7 4.1 3.5-.5 4-1 6.8-6.4 1.6-3.3 3.6-5.9 4.3-5.9 2.1 0 7.6 7 7.6 9.6 0 2.5 1.7 3.4 6.6 3.4 5.5 0 5.1-2.2-2-9.3-3.8-3.7-6.6-7.4-6.6-8.5 0-2.6 4.7-8.2 6.9-8.2 2.4 0 4.1-2 4.1-4.7 0-1.8-.6-2.2-2.7-2.2-1.6-.1-4.4-.2-6.3-.3-3.4-.3-3.5-.2-3.2 3.3.2 2.6-.3 4.1-1.8 5.4-2 1.8-2.1 1.8-4.3-.3-1.3-1.4-2.2-3.5-2.2-5.3 0-3-.1-3.1-5.7-3.5-4.7-.4-5.9-.2-6.6 1.3zM231.7 53.6c-.9.9-.8 14.6.1 19.8.8 4.5 2.2 5.4 4.6 3 1.3-1.2 1.5-2.5 1-4.8-.4-1.7-.9-6.5-1.3-10.6-.4-5.6-1-7.6-2.1-7.8-.9-.1-1.9 0-2.3.4zM258.1 56.2c-1.1 3-3.1 13.7-3.1 17 0 1.8.7 2.9 2.1 3.3 2.7.9 3.3.2 3.6-4.2.1-2 .7-4.9 1.3-6.3 1.7-4.1.9-11.4-1.2-11.8-1.1-.2-2.1.5-2.7 2zM266.5 56.3c-.2.6-1.1 5-1.9 9.7-1.5 7.8-1.5 8.6 0 9.7.9.6 2.2.9 2.9.7 1.4-.6 3.9-16.2 2.9-18.7-.7-2-3.4-3-3.9-1.4zM277.3 57.2c-1.2 1.9-4.2 13.9-4.2 17-.1 1.7.6 3.1 1.8 3.8 3.3 1.7 4.1 1.2 4.1-2.8 0-2.2.7-6.1 1.5-8.8.8-2.7 1.5-5.7 1.5-6.6 0-2.3-3.6-4.3-4.7-2.6zM215.8 58.1c-1.5.8-1.8 2.3-1.7 8.2.1 9.2 1 12.1 3.5 12.5 3.6.5 4.2-1.6 3-11-1.2-9.5-2.1-11.2-4.8-9.7zM285.6 58.2c-.2.7-1.1 3.8-2 6.9-2.3 7.8-2.1 13.5.3 14.2 2.6.6 4.1-1.1 4.1-4.8.1-1.6.7-5.7 1.5-9 1-4.2 1.1-6.3.3-7.2-1.3-1.7-3.8-1.7-4.2-.1zM224.1 61.4c-1.6 1.9-1.1 14.4.6 15.8 2.4 2 5.3-1.9 5.3-7.1 0-7.2-3.2-11.9-5.9-8.7zM292.5 69.1c-3 9.7-3 9.6-.4 10.9 2.8 1.5 4.9-.3 4.9-4.4 0-1.7.7-5.1 1.6-7.6 1.4-4.1 1.4-4.5-.2-5.7-1-.7-2.1-1.3-2.5-1.3-.5 0-2 3.6-3.4 8.1zM205.4 63.4c-.3.8-.2 5 .3 9.3.8 7.9 1.9 9.5 5.1 7.4 1.7-1 1.8-8.2.2-13.9-.8-3.2-1.6-4.2-3.1-4.2-1.1 0-2.2.6-2.5 1.4zM239.7 65.7c-1 .9-.8 8.6.2 10.1.5.8 1.7 1.2 2.7 1 3.6-.6 2.7-11.8-1-11.8-.7 0-1.6.3-1.9.7zM247.6 65.8c-.3.5-.8 2.7-1.2 4.8-.5 3.2-.2 4.3 1.5 5.8 3.2 2.9 5 1.5 4.8-4.1-.1-2.6-.6-5.4-1-6.1-.9-1.4-3.3-1.6-4.1-.4zM196.5 67.1c-.7 1 .1 8.8 1.2 11.5.3.8 1.9 1.4 3.5 1.4 3 0 3.1 0 2.5-4.3-.9-6.6-2.4-9.7-4.6-9.7-1.1 0-2.3.5-2.6 1.1zM304.4 67.7c-.3 1-1.4 3.5-2.4 5.5-2.6 4.9-2.6 8.5.1 9.3 2.7.9 3.4.1 5.3-6.7 2-7.1 2-7.5-.4-8.8-1.7-.9-2.1-.8-2.6.7zM181.1 67.9c-.9.6-1.2 1.9-.7 4.2.3 1.9.9 5.3 1.2 7.7.8 5.1 1.9 6 4.5 3.6 2.3-2.1 2.4-4.2.2-11.1-1.7-5.3-2.6-6.1-5.2-4.4zM161.3 69.1c-.8.8-.7 2.1.3 4.7.7 2.1 2 6.3 2.9 9.4.8 3.2 1.9 5.8 2.4 5.8.4 0 1.6-.9 2.6-2 1.6-1.8 1.6-2.2-.5-9.2-2.9-9.6-4.7-11.7-7.7-8.7zM172.6 69.3c-1.7 1.3-1.8 1.9-.6 8 1.7 8.5 2.2 9.2 4.9 7.8 2.7-1.5 2.8-6.8.4-12.8-2-4.8-2.1-4.9-4.7-3zM189.4 69c-1.2 1.2-.6 11 .7 12.4.5.6 1.7.2 2.9-.9 2-1.8 2.1-4.4.3-10.8-.5-1.9-2.4-2.2-3.9-.7zM312 75.6c-2.5 5.8-2.5 7.1 0 7.9 2.8.9 3.6.2 5-5 1-3.6 1-4.8 0-6-1.9-2.3-2.8-1.8-5 3.1zM143.7 74.5c-1.2 1.1-1.4 2.2-.7 4.3.5 1.5 1.6 5.3 2.5 8.4 1.6 5.9 3.2 7.1 5.4 4.4 1-1.1.6-3.1-1.5-9.3-3.1-9.2-3.6-9.9-5.7-7.8zM153.5 74.9c-.6 1.1 1.1 9.5 2.6 12.2 1.1 2.2 3.2 2.5 4.8.6 1.7-2.1-2.5-13.7-4.9-13.7-1 0-2.1.4-2.5.9zM322.2 79.5c-1.3 2.9-2.1 5.9-1.7 6.4.5.9 6.5 1.7 6.5.8 0-.1.7-2.3 1.5-4.9 1.2-4.2 1.2-4.9-.1-6.3-2.5-2.5-3.8-1.7-6.2 4zM333.1 75.4c-.7.8-1 2-.6 2.6.3.5-.3 2.3-1.4 3.9-2.7 3.7-2.7 7.7-.2 9.1 2.9 1.5 3 1.4 5.2-3.7 3.4-8 1.2-16.9-3-11.9zM133.6 78.8c-.7 1.1 3.7 15.9 5.2 17.4 1 1 1.6.9 2.9-.5 1.5-1.5 1.6-2.3.5-6.3-2.2-8.1-3.9-11.4-6.1-11.4-1.1 0-2.2.4-2.5.8zM341.2 84.2c-3.5 4.6-4.2 8.3-1.4 9 2.8.8 4.1-.2 6.3-4.4 4.1-8.1.5-11.6-4.9-4.6zM123.3 82.1c-1.3 1.3 2 11.6 5.1 16.5 1.7 2.5 1.8 2.5 3.7.8 2.2-2 2-2.8-2.2-12.2-2.8-6.1-4.4-7.3-6.6-5.1zM350 86.9c-3.4 6.8-3.7 8.6-1.5 9.5 2.5.9 4.3-.4 6.5-4.9 3-6.2 3.1-9.9.3-10.3-1.8-.3-2.8.8-5.3 5.7zM115.1 88.3c-.8 1.1-.3 3.1 2.2 8.5 3.3 7.4 4.1 8.1 7.1 5.9 1.7-1.2 1.6-1.6-.7-6.8-2.3-5.3-5-8.9-6.6-8.9-.5 0-1.4.6-2 1.3zm6.3 8.2l.6 3-2-3.5c-2.3-4.1-2.6-6-.6-4 .7.8 1.6 2.8 2 4.5zM214.5 88.1c-4.4.5-8.4 1.4-8.9 1.9-.7.7-.5 1 .3 1 1.1 0 1.1.3.1 1.5-2.4 2.8.2 3.4 8.5 2 5.9-1.1 8.4-1.9 9.4-3.5 1.4-2 5.5-2.8 6.5-1.1.3.5-.3 1.1-1.4 1.4-1.1.3-2 1.1-2 1.7 0 .9 1.9 1.1 7.3.6l7.2-.6-3.5 2.2c-1.9 1.2-4.8 2.7-6.5 3.3-2.3.7-3 1.6-3 3.5 0 2.4.3 2.5 5.2 2.3l5.2-.2-1.4 3.2c-1.1 2.8-2 3.3-6 3.9-6.7 1-7.7 1.5-7.3 4 .3 2.1.8 2.3 5.1 2.1 4.1-.3 4.8 0 4.5 1.5-.2 1.3-1.6 1.8-5.3 2.2-4.6.5-5 .7-4.7 3 .3 2.8 1.7 3.9 4.2 3.3 1-.3 2.1 0 2.4.6.5.7-.4 1.1-2.3 1.1-2.1 0-3.4.7-4.2 2.2-.7 1.3-1.2 2.5-1.1 2.8.1.3-.4.5-1 .5-.8 0-1.2-1.1-1-3 .2-1.7-.8-5.6-2.2-8.8-3.1-6.9-3.2-7.7-.7-7.7 2.8 0 3.5-1.7 1.8-4.4-1.4-2-1.4-2.5-.1-3.8 2-2 .8-4.6-2.4-5-1.6-.2-2.7-.9-2.7-1.8 0-1-1.2-1.6-3.5-1.8-6.3-.5-8.1-1.2-9.1-3.9-.7-1.9-1.3-2.3-2.1-1.5-.8.8.9 5.3 6.7 16.9 4.2 8.7 8.4 16.6 9.3 17.6 1.2 1.3 1.3 2.2.5 4-.8 1.7-.7 3 .2 4.7 1 1.9 1.1 4.6.5 10.5-1.4 13.3-9 33.8-10.7 28.7-.3-.7-2-3-3.8-5.2-1.8-2.2-6.1-9.1-9.4-15.5-4.8-8.9-6-12-5.5-14 .4-1.5.1-3.7-.6-5.1-1.1-2-1-4.8.3-16.1 1.9-15.5 2.1-21.1.7-23.3-1.8-2.9-12.7-1.6-24.5 3-11.2 4.3-15.6 6.5-17.5 8.5l-2.3 2.4 4.7 6.9c2.5 3.8 4.6 7.6 4.6 8.5 0 .9.6 1.7 1.3 1.7.7 0 4 3 7.2 6.7 4.6 5.2 5.9 7.3 5.7 9.4-.2 1.8.3 3.1 1.5 3.7 1.4.9 1.8 2.2 1.7 6.9-.2 6.5-3.6 23.5-6 29.1-1.4 3.3-1.3 3.7.5 5.6 2.3 2.2 9 3.4 20.4 3.5 8.5.1 10.4-.7 16.7-6.6 1.9-1.8 3.7-3.3 4.1-3.3.4 0 3.3 1.3 6.5 2.9 6.6 3.2 7.6 3.2 24.7-.8 11.2-2.7 12.9-2.6 19.5.5 6 2.8 9.7 2.8 15.4-.1 6.5-3.2 10.1-3 16.5.8 3.3 1.9 7.6 4 9.6 4.6 2 .7 3.9 1.7 4.2 2.2.4.5 1.4.5 2.5-.1 1-.5 3.1-1 4.7-1 1.5 0 4.9-.7 7.5-1.5 4.2-1.2 4.9-1.2 6.3.1.8.9 1.5 2 1.5 2.5 0 2.3 8.3 6.7 14.7 7.9 3.8.7 9.2 2.1 12 3.2 2.9 1.1 6.7 1.8 8.5 1.6 3.2-.3 3.3-.4 2.8-4.3-1.8-14.1 1-31.4 6.3-39.8 1.7-2.6 7.1-8.2 12-12.5 8.6-7.4 9.7-8.2 13.4-10 2.5-1.2 3.7-3.7 2.9-5.8-.7-1.7-.9-1.6-2.2.8-1 1.8-2.2 2.8-3.7 2.7h-2.2l2.3-.9c2.4-1 3.1-4 .8-4-.7 0-1.9.7-2.6 1.5-1.4 1.6-4.6 2-5.4.6-.3-.5-3.1-2.1-6.2-3.6-3.9-1.9-5.3-3-4.5-3.8.7-.7 2.3-.5 5.1.8s4.4 1.5 5.1.8c1.2-1.2-6.9-6.7-11.4-7.8-3.8-1-4.8-3-1.1-2.2 2.1.5 1.7 0-1.6-1.5-2.5-1.2-6.5-2.2-8.9-2.2-4.3-.1-4.4-.1-5.6 4.4-2 7.3-3.4 15-4 22.5-.3 3.9-1.2 7.7-2.1 8.6-.7.8-1.4 2.8-1.4 4.4 0 1.5-1.4 5-3.1 7.6-3.6 5.7-22.9 24.3-24 23.2-1.4-1.5-2.8-17.8-2.2-26.3.5-8 .7-8.7 3.5-10.9 2.6-2.1 2.9-2.9 2.5-5.8-.5-3.1 0-4.2 4.8-10.1 3-3.6 5.5-7.1 5.5-7.7 0-.6 2.5-3.5 5.5-6.5s5.5-6 5.5-6.6c0-1.6-5.9-5.9-6.7-5-.4.4.3 1.3 1.5 2.2 2.9 2 2.8 5.2-.1 6.5-2.4 1.1-8.7-.4-13.4-3.1-2.8-1.5-13.4-6-14.4-6-2.2 0-.5 1.8 3.6 3.8 4 1.9 4.4 2.4 3.4 4.1-2.4 3.8 1.6 7.1 8.9 7.4 3.5.1 4 .8 1.7 2.7-1.2 1-2.3.9-5.5-.4-5.4-2.1-7.7-2-8.3.4-.6 2.2 1.7 4.2 6.2 5.5 1.6.5 2 1 1.2 1.8-.7.7-1.8.7-3.6-.1-4-1.8-6.1-1.4-7.3 1.3-.7 1.5-1.7 2.2-2.5 1.9-1.1-.4-1.5-4-2-15.1-.3-8.1-1.1-15.1-1.6-15.6-1.7-1.7-1.3-4.5.7-5.6 1-.5 3.6-.6 6-.1 6.5 1.1 6.4 2.2-.1 1.4-4.7-.6-5.7-.4-5.7.8 0 2.4 2.6 4.1 4.6 3 1.9-1.1 7.7.2 10.9 2.4 2.3 1.6 7.1 1.9 8 .4.3-.6 1.6-1 2.8-1 3.7 0 .6-1.9-8.9-5.4-12.3-4.6-17.7-5.3-20.3-2.7-2 2-2 2.8-1.4 18.9.5 14.7.4 17.1-1.1 19.4-1.3 1.9-1.4 3.1-.7 5.1 1.4 3.6-.6 9.9-6 19-8.3 14.1-13.4 18.5-15.9 13.7-1.9-3.6-7.9-30.6-7.3-33.1.3-1.3 1.2-3.1 2-4 .7-.9 1.3-2.9 1.1-4.5-.2-2.8 7.8-22.3 12.3-29.9l2.2-3.6-2.3-2.4c-3.2-3.4-18-6.3-18-3.5 0 .7-2.5.9-7.5.4-6.5-.6-7.5-.5-8.1 1.1-.4 1-.1 2 .6 2.5 1.1.7 1.1 1.4-.2 4-1.2 2.4-1.7 2.8-2.1 1.6-.4-.9-.4-2.3-.1-3.1.4-.9-.1-1.8-1-2.1-1.2-.5-1.6-1.6-1.4-3.8.2-2.2-.1-3.1-1.2-3.1-1 0-1.6 1.2-1.8 3.5-.4 4.6-2.2 6.5-2.2 2.4 0-5.2-2.6-6.5-13.2-6.9-5.1-.2-12.9.1-17.3.6zm69.9 6.9c.7.7.7 1.3-.1 2.1-1.4 1.4-23.9.7-25.4-.8-.7-.7 1.7-.9 7.6-.7 7 .2 8.7-.1 9.2-1.3.4-1.1 1.5-1.4 4.1-.9 1.9.3 4 1 4.6 1.6zm-101.9 2c-2.8 1.2-6.7 1.2-6 0 .3-.6 2.3-1 4.3-.9 3 0 3.3.2 1.7.9zm-7.9 1.7c-.1 1.4.6 1.7 3.3 1.5 6.1-.6 2.9 2.1-7.3 6.1-10.9 4.2-21.1 5.6-21.1 2.7 0-.8 2-2.5 4.5-3.7 7.8-3.8 13.9-6.3 15.4-6.3.8 0 1.8-.5 2.1-1 1-1.7 3.3-1.1 3.1.7zm89.3 2.2c.8 1.5 2.5 2 8 2.3 3.9.2 7.3.7 7.7 1.1 1.5 1.5-.9 2.2-7.2 2.2-4.1 0-6.4.4-6.4 1.1 0 1.6 2.4 2.4 7 2.4 2.1 0 4.2.4 4.5 1 .4.6-2 1-6.3 1-5.1 0-7.1.4-7.5 1.4-.9 2.4 1.6 4.5 5.8 4.8 5.1.4 4.3 2.3-1 2.3-2.2 0-4.6.4-5.3.8-1.9 1.3.4 4.7 3.2 4.7 1.3 0 2.7.7 3 1.6.9 2.4.7 5.4-.4 5.4-.5 0-1-.9-1-2 0-1.6-1.1-2.6-2.2-1.8-.2.1-1.3-.4-2.5-1-1.5-.9-2.9-3.4-4.3-8l-2.1-6.7 2-1.4c2.2-1.4 2.8-5.5 1.1-6.6-.5-.3-1-1.9-1-3.6 0-2.2.5-2.9 2-2.9 1 0 2.4.8 2.9 1.9zm62.6.2c1.6 1.6-2 1-4.1-.7-1.8-1.4-1.8-1.5.6-.8 1.4.3 2.9 1 3.5 1.5zm-79 2.1c.4 1.7 1.3 3.8 2 4.5.8.7 1.7 3.9 2.1 7 .3 3.2 1.3 7.1 2.1 8.6 1.3 2.6 1.3 3.1-.2 4.7-1 1.1-1.5 3-1.3 4.7.3 2.7.5 2.8 6.3 2.8 5.5 0 6 .2 7.5 2.8 1.4 2.6 1.4 2.9-.2 4.1-2.2 1.6-2.3 4.5-.3 5.2 2.2.9 1.8 2.4-.5 2.4-1.3 0-2 .7-2 1.9 0 2 2.7 4.8 3.7 3.8 1.2-1.3 3.3 1.6 3.3 4.5 0 2.2-.4 2.9-1.4 2.5-2.4-.9-3.8 1.7-2.2 3.9 1.2 1.5 1.7 1.7 2.7.6 1.9-1.8 2.9-1.5 2.9.8 0 1.4-.7 2-2.2 2-1.3 0-2.9.4-3.7.9-2.3 1.5-.2 3.1 4 3.1 5.1 0 5 1.6-.2 2.5-3.6.6-6 2.7-4.7 4 .3.3 3.1-.4 6.3-1.5 5.5-1.9 8-2 5.9-.1-.5.4-3.2 1.6-6 2.6-5.1 1.8-5.3 1.8-10.5-.3-3-1.1-6.5-2.4-7.7-2.7-2.7-.8-2.8.3 1.7-16.2 3.6-12.8 5.3-23.4 4-24.7-.4-.5-1.9-.2-3.3.8-2 1.3-2.6 2.5-2.6 5.4-.1 4.8-5.2 24.7-6.4 24.7-1.2 0-6.2-14.9-8-23.5-1.2-5.5-1.2-6.8 0-8.5 1.8-2.6 1.8-4.4-.3-6.7-1.5-1.7-1.4-2.5 1.5-12.1 1.7-5.6 3.5-11.6 3.8-13.2 1.3-5.6 2.9-6.2 3.9-1.3zm-62.5.5c0 .5-.7 5.1-1.4 10.3-2 13.2-2.2 21.1-.7 23.9 1.1 2 1 2.6-1.3 5-1.4 1.5-2.6 3.2-2.6 3.9 0 1.4-2.6 1.6-3.5.3-.3-.6.3-1.5 1.4-2.1 1.3-.6 1.8-1.6 1.4-2.6-.4-1 .2-1.7 1.6-2.1 1.6-.4 1.9-.9 1-1.9-.6-.7-1.6-1.1-2.4-.8-.7.3-2.2-.7-3.4-2.2-1.8-2.3-2.6-2.5-5.6-2-3.3.6-3.5.5-3.5-1.9 0-2.6.9-3.2 2.6-1.6.5.5 1.9.5 3.3 0 2.2-.9 2.2-1.1.9-3.2-1.8-2.7-5-3.3-9-1.6-2.1.9-3.2.9-4 .1-1.3-1.3-.5-1.7 5.3-2.6 1.9-.4 4.4-1.3 5.5-2.1 1.6-1.3 1.7-1.6.4-2.5-2.2-1.4-4-1.2-4 .5 0 1.2-.4 1.4-1.6.7-1-.6-2.9-.5-4.9.1-3.5 1-6.5.5-6.5-1.3 0-.5 1.8-1 3.9-1 2.2 0 4.3-.5 4.6-1 .3-.6 1.8-1 3.3-1 6.3 0 9.7-2.8 5.5-4.5-1.5-.6-1.3-.9 1.2-2.3 3.1-1.8 10.5-4.9 11.8-5.1.4-.1.7.2.7.6zm180.6 21.9c2.1 1.5 6.8 4.2 10.4 6.1 7.1 3.8 8.7 5 7.8 5.9-.4.3-3.3-.6-6.7-2.1-6.2-2.8-8.1-2.7-8.1.4 0 2.3 1.4 3.5 6.3 5.2 2 .7 3.7 1.6 3.7 1.9 0 1.9-1.8 1.7-6.1-.6-2.6-1.5-5.5-2.4-6.3-2.1-2.8 1.1-1.8 4.2 1.9 6 1.9.9 3.5 2.1 3.5 2.7 0 1.3.1 1.3-4.5-1-4-2-6.5-1.4-6.5 1.6 0 1.6-1.8 1.8-3.8.5-2.4-1.5.8-27.1 3.3-27.1.7 0 3 1.2 5.1 2.6zM259.5 130c.3.5.1 1-.4 1-.6 0-1.1-.5-1.1-1 0-.6.2-1 .4-1 .3 0 .8.4 1.1 1zm-27 10.1c-.2 5.7-.8 9.5-1.5 9.9-1.9 1.2-.7 4.4 2 5.1l2.5.6-2.7 1.1c-2.6 1.1-2.7 1.5-2.4 6 .5 6.7 1 7.3 5.4 6.6 3.6-.6 3.8-.5 6 4 1.3 2.5 2.1 5 1.7 5.5-.3.5-3.1 1.3-6.3 1.6-3.1.4-7.9 1.3-10.5 2.2-2.7.8-5 1.3-5.3 1.1-.2-.3.1-2.9.7-5.9.6-3 1.2-6.1 1.3-6.9.1-.8.5-2.2.8-3 .4-.8.9-7.3 1.3-14.4.5-11.4.4-12.8-.9-12.3-.9.4-1.6.4-1.6.2 0-.9 3.6-4.1 5.3-4.8.9-.3 1.9-1.8 2.3-3.2 1.3-5.2 2.2-2.2 1.9 6.6zm75.8-2.3c-.6 2.4-2.3 3-2.3.9 0-1.3 2.1-3.9 2.6-3.4.2.2.1 1.3-.3 2.5zm9.2-1.8c.3.5.1 1-.4 1-.6 0-1.1-.5-1.1-1 0-.6.2-1 .4-1 .3 0 .8.4 1.1 1zm-143.9 6.1c.1 2.4-.7 3.1-2.1 1.9-1.6-1.3-.8-4.3.9-3.7.6.2 1.1 1 1.2 1.8zm146.8.4c-.4.8-1 1.5-1.5 1.5-.4 0-.6-.7-.3-1.5.4-.8 1-1.5 1.5-1.5.4 0 .6.7.3 1.5zm-8.7 2.9c-.2.6-1.3 1.2-2.5 1.4-2.4.4-2.5.2-1.6-2.1.6-1.7 4.7-1.1 4.1.7zm-124.2 8.1c8.9 16.3 9.7 17.5 11.6 17.5 2 0 2.3.4 3.3 5.2.7 3.2-.9 3.8-1.9.8-.8-2.4-3.2-2.6-6.2-.5-2 1.4-2.3 1.4-3.1-.2-1-1.8-8.2-27.3-8.2-28.8s1.7.8 4.5 6zm35.2 5.4c-.8 11.4-1.3 13.1-3.6 13.1-2.8 0-2.9-.6-.6-7.7 1.3-3.8 2.6-8.7 3-11.1 1.2-7.4 1.8-4.5 1.2 5.7zm86.8-.9c-.4 3-.9 5.8-1.2 6.2-.2.5-1.7.1-3.3-.7-3.3-1.7-4.3-.9-3.9 3.3.2 1.5-.1 3.3-.5 4.1-1.2 1.8 3.2 5.7 4.7 4.2.7-.7.6-1.5-.1-2.3-.8-1.1-.6-1.7.9-2.6 1.8-1.2 1.9-.9 1.9 5.5v6.6l-2.8-2.7c-1.5-1.6-4.3-3.4-6.2-4.1-1.9-.7-4.3-1.6-5.2-2-1.4-.5-1.8-.2-1.8 1.4 0 1.5 1.5 2.9 6 5.1 3.3 1.7 6 3.4 6 4 0 3.2-6.5 1.1-12.3-4l-3.7-3.2 3.3-3.8c1.9-2 5.3-6.5 7.7-10 2.9-4.2 4.5-5.8 5-5 .4.7 1.5 1 2.4.7 1.8-.7 2.1-3.2.6-4.2-1.7-1-1.1-2.1 1.1-2.1 1.9 0 2 .4 1.4 5.6zm-129.1-3.5c.4 1.1-.1 1.5-1.9 1.5-2.5 0-3.9-1.2-2.8-2.4 1.2-1.1 4.1-.6 4.7.9zm177 1.5c1.4 0 1.4.3.4 2l-1.3 2.1-1.7-2.2c-1-1.2-1.8-2.9-1.8-3.8.1-1.4.2-1.4 1.4.1.7 1 2.1 1.8 3 1.8zM184 168.3c1.1 4 3.4 9.8 5 13 2.3 4.7 2.5 5.9 1.4 6.4-2.5.9-20.3-.2-21.5-1.4-.8-.8-.6-2.6 1-6.7 1.2-3.1 2.1-7 2.1-8.6 0-3.5 1.3-4.5 4.1-3 1.1.6 2.7.9 3.5.6 2.1-.8 0-4.4-3.2-5.6-3.5-1.4-2.3-2.7 1.9-2.2 3.4.4 3.6.6 5.7 7.5zm169-7.1c0 1.8-13.1 21-18.8 27.7-2.2 2.5-2.2 2.6-3.7.7-.8-1.1-1.5-2.6-1.5-3.3 0-.7 4.1-5.2 9-9.9 5-4.8 10-10.5 11.2-12.6 2.2-3.8 3.8-4.9 3.8-2.6zm6.5.7c.3.5-.5 2.9-1.7 5.2-1.7 3.4-2.3 6.5-2.6 13.9-.4 10.1-.9 11.4-3.5 10.4-1.3-.5-1.4-.9-.4-2.5.9-1.5.8-2.2-.5-3.5-2-2.1-4.8-1.2-4.8 1.6 0 1.3-.7 2-1.9 2-2.4 0-4.5 2.5-3.7 4.5.3.9 1.6 2 2.8 2.5 2.7 1 1.3 1.2-3.1.4-1.7-.4-3.1-1.2-3.1-1.8 0-.6 3.6-6.3 8-12.6 4.5-6.3 9.1-13.6 10.3-16.2 2.2-4.8 3.1-5.6 4.2-3.9zm-123 1.1c-.3.5-1 1-1.6 1-.5 0-.9-.5-.9-1 0-.6.7-1 1.6-1 .8 0 1.2.4.9 1zm76.2 6.2c-.3.7-.5.2-.5-1.2s.2-1.9.5-1.3c.2.7.2 1.9 0 2.5zm-93.7 10c0 1.2-3.8 1-4.5-.2-.4-.6-.4-1.8-.1-2.7.6-1.4.9-1.4 2.6.2 1.1 1 2 2.2 2 2.7zm-21 3.8c0 .5-.5 1-1.1 1-.5 0-.7-.5-.4-1 .3-.6.8-1 1.1-1 .2 0 .4.4.4 1zm117 .9c0 1.4-1.8 2.3-3 1.6-.6-.4-.8-1.1-.5-1.6.8-1.2 3.5-1.2 3.5 0zm40.5 14.1c.4.6-.6 1-2.2 1-2.2 0-2.5-.2-1.3-1 1.9-1.2 2.7-1.2 3.5 0z"/><path d="M258.3 160.6c-.8 2.1 1.3 4.2 2.8 2.7 1.3-1.3.5-4.3-1.1-4.3-.6 0-1.3.7-1.7 1.6zM256.3 169.6c-.4 1.1.1 2.2 1.2 3.1 1.6 1.1 2.1 1.1 3.4-.1 1.2-1.2 1.2-1.8.1-3-1.6-2.1-3.9-2-4.7 0zM232.8 172.7c-4.3.5-6.2 2.4-5.3 5.4.6 1.8 1.2 2 4.5 1.5 6.3-1 9-2.4 9-4.6 0-1.1-.4-2-.9-2s-1.5-.1-2.3-.3c-.7-.2-3-.2-5 0zM171.5 180c-1.2 1.9 1.6 3.6 7.9 4.9 6.1 1.1 7.6.9 7.6-1.4 0-2-2.7-3.2-9.1-4-4-.5-5.9-.3-6.4.5zM361.2 92.6c-3.4 4.5-4 6-3 7.1.6.8 2.3 1.3 3.7 1.1 3.5-.4 9-10 7.1-12.3-2.1-2.5-3.5-1.7-7.8 4.1zM374.9 96.5c-5.1 6.4-5.5 8.6-1.7 9.6 3.1.8 3.2.7 7.8-7.5 2.6-4.7 3-6 1.9-6.7-2.5-1.6-3.5-1-8 4.6zM105.1 94.3c-.8 1-.2 3.1 2.7 8.5 3.8 7.4 5 8.3 7.2 5.7 1.1-1.3.8-2.5-1.5-6.8-3-5.5-5.3-8.7-6.5-8.7-.4 0-1.3.6-1.9 1.3zM386.1 101c-6.1 7.7-6.3 10.9-.8 11 1.6 0 9.7-11 9.7-13.1 0-.8-3.2-2.9-4.4-2.9-.3 0-2.3 2.3-4.5 5zM96 99.5c0 .8 1.7 4.2 3.8 7.5 2.7 4.5 4.2 6 5.7 5.8 3.4-.5 2.8-3.7-1.5-9.4-4.1-5.2-8-7.1-8-3.9zM89 103.9c0 .6.4 1.1.8 1.1.9 0 3.2 4.4 3.2 5.8-.1.4-1.6-1.1-3.5-3.3-1.8-2.2-3.7-3.7-4-3.3-.6.6 4.5 9.7 7.3 13 1.8 2.2 2.3 2.2 4.7.5 1.7-1.3 1.6-1.7-2.4-7.5-4.2-6.2-6.1-8.2-6.1-6.3zM396.1 109.2l-4.5 6.1 2.3 1.8c3.1 2.5 3.6 2.4 6.5-1.4 3.8-5 5.8-10.1 4.4-11.5-2.3-2.3-4.3-1-8.7 5zM337.2 109.1c.1 1.3.8 2.3 1.3 2.1 1.5-.3 1.2-3.5-.3-4-.9-.3-1.3.3-1 1.9zM76 112.3c0 2.1 7.7 13.7 9.1 13.7 1.8 0 .8-2.1-3.7-7.8-5.8-7-5.4-6.7-5.4-5.9zM407.6 117.6c-2.5 3.1-4.6 6.2-4.6 6.9 0 .6 1.1 1.7 2.4 2.3 2.2 1 2.8.7 6.1-2.9 4.3-4.7 6-8.2 5.2-10.3-1.2-3.1-4.4-1.6-9.1 4zM82 114.5c0 .4 3.7 6.6 5.7 9.4.2.2.6.1.9-.2.4-.4-.6-2.5-2.1-4.7-2.7-4-4.5-5.7-4.5-4.5zM112.7 121.1c-5 2-8.3 4.2-17.2 11.4-10.8 8.8-12.8 12.2-8.2 14.6 1.2.7 3.8 2.6 5.8 4.3 2 1.7 7.3 5.8 11.8 9.1 7.1 5.2 8.1 6.3 7.8 8.4-.4 1.8.3 3.2 2.4 5.2 1.7 1.6 2.9 3.7 2.9 5.1 0 1.4.9 5.1 2 8.3 2.3 6.6 2.8 21.3.8 23.3-.9.9-.8 1.2.3 1.6 5.4 1.5 10.1 2.6 14.6 3.2l5.1.6 10.9-11.2c5.9-6.1 10.9-11.5 11-11.8.2-.4-2.6-2.5-6.2-4.7s-9.7-7.2-13.6-11.2c-6.6-6.7-7.1-7.4-6.1-10 1.2-3.7-.1-7.1-3.2-8.3-2.9-1.1-4.1-3-5-8.5-4.9-27.3-5.2-28.3-6.6-29.9-1.6-2-3.4-1.9-9.3.5zm7.9 5.6c.1 6.8 2.3 21.7 3.9 26.7 1.4 4.6 1.4 5.1-.2 6.9-2.7 2.9-7 4.9-7.9 3.6-.4-.7.1-1.6 1-2.1 2-1.1 2.1-3.2 0-4.9-1.3-1-2-.9-4.6.5-2.7 1.7-3.1 1.7-4.6.3-1.4-1.4-1.1-1.8 3.1-3.8 5.3-2.6 5.9-4.4 2.2-6.1-2.2-1-3.1-.8-7.1 2.1-3.6 2.5-4.9 2.9-6 2-1.9-1.5-1.1-2.5 3.4-4 6-2 11.6-5.9 10.3-7.2-.8-.8-1.8-.4-3.9 1.6-1.5 1.5-3.8 2.7-4.9 2.7-1.2 0-3.5 1.1-5.1 2.5-3.4 2.8-5.4 3.1-7.1 1.1-.9-1.1-.6-1.8 1.6-3.5 2.6-1.9 2.7-2 .6-2.1-1.2 0-2.5.4-2.8 1-1 1.5-3.5 1.2-3.5-.5 0-.9.9-1.5 2.5-1.5 2.1 0 5.2-1.4 8.4-3.7.2-.2-.4-1.2-1.4-2.3-1.3-1.4-1.5-2.4-.8-3.1.8-.8 1.7-.4 3.1 1.1l2 2.1 5.4-3c2.9-1.7 6.9-4.6 8.8-6.6 1.9-1.9 3.4-3.5 3.4-3.5.1 0 .1 1.7.2 3.7zm8.4 41.4c0 .3-1.4 1.6-3.1 2.8-3 2.2-3.2 3.1-1.4 7.3.4 1.1.3 1.8-.4 1.8-.6 0-1.4-1.4-1.8-3-.3-1.7-1.5-3.7-2.6-4.5-2-1.4-2-1.6-.4-3.2 1.3-1.3 2-1.5 2.9-.5 2.1 2.1 4.1 1.4 3.6-1.2-.4-2.1-.3-2.3 1.4-1.3 1 .7 1.8 1.4 1.8 1.8zm7.7 8.5c3.4 4.1 13.8 12.9 18.9 16 1.8 1.1 1.7 1.3-1 4.3-2.9 3-5.1 3.6-2.6.6 1.6-1.9.6-4.5-1.9-4.5-2.4 0-11.3 9.7-10.9 11.9.2.9 1.3 1.7 2.6 1.9 2.7.4 2.8 1.8.3 3.1-2.5 1.4-3.7-.1-4.6-5.9-1.1-7.1-5.5-21.1-8.2-25.8-2.7-4.7-2.4-6.2 1.2-6.2 1.6 0 3.6 1.5 6.2 4.6zm-7.9 11.9c1.4 3.1 1.6 6.5.2 6.5-1.1 0-2.5-2.5-3.4-6.3-.8-3.6 1.6-3.7 3.2-.2zM132 200c0 1.2-2.8 2.5-3.6 1.7-.9-.9.6-2.7 2.2-2.7.8 0 1.4.5 1.4 1zm17 3c0 .5-.5 1-1.1 1-.5 0-.7-.5-.4-1 .3-.6.8-1 1.1-1 .2 0 .4.4.4 1zm-16.7 5.1c-.8.8-1.6.8-3 0-1.6-.9-1.4-1 1.2-1.1 2.1 0 2.6.3 1.8 1.1zM418.6 125c-4.6 4.8-5.6 6.3-4.7 7.4 2.7 3.2 5 2.5 10.1-3.1 2.8-3.1 4.9-6 4.7-6.6-.2-.6-1.2-1.6-2.3-2.4-1.9-1.2-2.5-.8-7.8 4.7zM73 120.6c0 .6 1.4 2.8 3 4.9 1.7 2.1 3 3.2 3 2.4-.1-1.7-5.9-8.9-6-7.3zM340.1 126.2c.1 3.7.2 3.9.9 1.8 1.2-3.6 1.2-6 0-6-.5 0-1 1.9-.9 4.2zM70 124.2c0 1.8 3.7 6.8 5.1 6.8 1.8 0 .8-2.7-2.1-5.5-2.1-2.1-3-2.4-3-1.3zM57.5 126c-.8 1.3 6.7 12.4 8.6 12.7.8.2 2.1-.1 2.9-.6 1.1-.8.5-2.1-3.6-6.7-5.4-6.2-6.8-7.2-7.9-5.4zM430.5 131.2c-6.8 6.5-7.7 8.5-4.6 10.5 1.5 1 2.4.6 5.4-2.5 6.9-7.1 9.9-11.2 9.3-12.7-1-2.7-3.4-1.6-10.1 4.7zM48.4 134.4c-.6 1.5 4.1 9.1 7 11.5 2 1.7 4.6.7 4.6-1.7 0-1.7-8.9-11.2-10.5-11.2-.3 0-.8.7-1.1 1.4zM438.3 138.9c-2.9 2.6-5.3 5.4-5.3 6.2 0 1.8 1.9 3.9 3.5 3.9 1.8 0 10.7-12 10.1-13.6-.9-2.3-2.9-1.5-8.3 3.5zM39 144.3c0 2.2 8.7 10 10.4 9.4 2.6-1 1.8-3.3-2.4-7.1-4-3.6-8-4.8-8-2.3zM409.7 143.6c-.4.4-.7 3-.7 5.9 0 2.8-1.2 9.1-2.6 14-1.4 4.9-2.6 9.7-2.7 10.8-.1 1.1-1.3 2.7-2.7 3.5-3.4 2.2-4 3.2-4 6.8 0 2.5-1.1 3.9-6.5 8.2-3.5 2.9-6.6 5.2-6.9 5.2-.2 0-2.8 1.6-5.7 3.5-3 1.9-5.9 3.5-6.7 3.5-.7 0-2.6.7-4.3 1.5-2.5 1.3-2.8 2-2.3 4.3.4 1.5 1.3 3.8 2.2 5.2.8 1.3 2.1 4.2 2.7 6.4 1.1 3.8 1.4 4 9.6 6.6 4.6 1.6 10.2 3.7 12.4 4.9 5.8 3.1 7.5 2.8 7.5-1.2 0-4.8 3.6-16.9 7.7-25.8 3-6.6 3.4-8.1 2.3-9.4-.9-1.1-1.6-1.3-2.4-.5-1.5 1.5-3.6 1.2-3.6-.5 0-2.5 3-3 6.5-1.1 3.9 2.1 7.1 1 8.1-2.9.7-2.9 5.5-6.3 14.9-10.6 3.9-1.8 8.9-4.5 11.2-6.1l4.3-2.9-1.9-3.8c-2.4-4.6-19-20-24.6-22.9-4.7-2.3-10.7-3.7-11.8-2.6zm5.8 4.6c-.8 3 8.4 12.4 11.1 11.4 1.1-.4 2.5.1 4 1.5 1.2 1.1 2.7 1.8 3.3 1.5.6-.4 2.1 0 3.4.9 2.9 1.8 5.1 6.1 3.6 7-1 .7-13.7-7-22.1-13.3-6.4-4.8-8.8-11.2-4.2-11.2 1 0 1.3.7.9 2.2zm13.6 6.5c1.3 1.6 1.2 1.7-.3.4-1-.7-1.8-1.5-1.8-1.7 0-.8.8-.3 2.1 1.3zm-8.2 6.6c3.6 2.9 9 6.8 11.9 8.6 2.9 1.9 5 3.6 4.7 3.9-.3.3-3.2-1.3-6.4-3.6-5.8-4.1-6-4.1-8.2-2.3-2.2 1.8-2.2 1.8-.3 3.7 1.1 1 3.2 2.9 4.8 4.2 4.4 3.4 2.6 3.6-2.8.2-5.3-3.4-6.8-3.7-8.7-1.4-1.1 1.4-.8 2.1 2.4 5 2 1.9 3.7 3.6 3.7 3.9 0 1.3-2.9.3-4.5-1.5-2.2-2.5-6.1-2.6-7.4-.3-1.2 2.2-1.8 1.6-2.3-2.2-.3-2.7 5.1-23.5 6.1-23.5.2 0 3.4 2.4 7 5.3zM404.5 183c.3.5.1 1-.4 1-.6 0-1.1-.5-1.1-1 0-.6.2-1 .4-1 .3 0 .8.4 1.1 1zm-7.6 12.3c-3.5 2.9-9.9 8.6-14.2 12.6-6 5.8-7.5 7.7-6.6 8.7 1.6 1.9 4.1.4 12.5-7.7 4-3.8 7.8-6.9 8.4-6.9.9 0 .8.6-.3 1.8-2.3 2.5-2.1 4 .5 6.2 2.1 1.7 2.1 2 .8 6.1-.7 2.4-1.5 4.7-1.7 5.1-.2.3-3-.3-6.2-1.5-5.8-2.1-6-2.1-8-.3-1.2 1.1-2.1 2.3-2.1 2.8 0 1 3.7 2.6 10 4.3 2.6.7 4.5 1.8 4.5 2.6 0 1.6-.1 1.5-10.3-1.9-4.9-1.7-7.1-3-6.8-3.8.3-.8-.3-1.9-1.4-2.7-2.5-1.7-5.4-8.1-4.7-10.1.4-.9 1.7-2.1 2.9-2.6 3.9-1.6 14.3-8.2 20.8-13.3 8.4-6.4 9.8-6 1.9.6zM446 147.9c-4.7 4.2-5.3 5.1-4.1 6.5.7.9 1.9 1.6 2.6 1.6 2.2 0 9.6-8.3 9.3-10.4-.5-3.3-2.3-2.8-7.8 2.3zM29 153c0 .5 2 3 4.4 5.6 3.5 3.6 4.9 4.4 6.5 3.9 3.2-1 2.5-3-2.3-6.9-4.1-3.4-8.6-4.8-8.6-2.6zM458.4 154.2c-1.6 1.2-4.4 3.5-6.1 5.2-3.1 2.8-3.2 3.1-1.6 4.8.9 1 2 1.8 2.5 1.8 1.9 0 12.7-11.2 12.1-12.6-.8-2-3.6-1.7-6.9.8zM57.5 159.6c-9.3 5.6-15.2 11.7-22.3 23.5l-2.2 3.7 7.4 4.1c4.1 2.3 8.1 4.1 8.9 4.1 2.3 0 23.1 11 26 13.7 1.5 1.5 3.6 4.6 4.8 7 2.1 4.4 7.8 23.5 7.9 26.4 0 2.1 1.9 2.9 4.5 1.8 1.1-.4 4.3-.8 7.1-.8 2.7-.1 5.7-.7 6.5-1.4 1.6-1.2 11.7-17.8 14-23 1.6-3.5.7-4.4-5.9-5.7-2.8-.5-6.9-1.8-9-2.9-5.6-2.9-17.8-12.8-20.1-16.5-1.2-1.7-2.5-3.8-3.1-4.6-2.4-3.6-7.3-16-9-22.8-1-4-2.4-8-3-8.7-2-2.4-6.1-1.7-12.5 2.1zm10.3.6c1.8 1.8 1.5 3.7-1.2 6.9C63.3 171 49.5 183 48.3 183c-.6 0-1.6.7-2.3 1.5-.7.8-2.2 1.5-3.4 1.5-2.1-.1-2.1-.1-.1-1.3 1.1-.7 4.4-3.4 7.3-6.1 2.9-2.7 6.1-5.6 7.2-6.3 1.1-.8 2-1.8 2-2.4 0-1.7-3.9-.9-7.6 1.6-5 3.4-6.1 3.1-3.2-.8 2.7-3.5 8.5-8 13.3-10.2 3.7-1.8 4.8-1.8 6.3-.3zm-3.7 15.9c-2.4 3.3-2.1 6.9.7 6.9.9 0 2.8-1.2 4.3-2.6 1.5-1.4 2.9-2.1 3.3-1.6.3.5-.3 1.7-1.4 2.7-2.2 2-2.7 6-.9 7.1.6.3 1.6.1 2.2-.5 1.8-1.8 3.2-1.3 4.9 1.7 1.3 2.1 1.4 3.2.6 4-.8.8-.7 1.6.3 2.8 1.3 1.6 1.2 1.7-.7 1.2-3-.8-5.3.7-3.6 2.4.6.6 1.2 1.6 1.2 2 0 1.5-1.9.8-6.4-2.3-4.2-3-4.4-3.3-3-5.4 1.3-2 1.2-2.4-.6-4-2-1.8-2.1-1.8-4.8.8-2.2 2.1-3.1 2.4-4.6 1.5-1.8-1-1.7-1.3 1.4-3.8 2.3-1.8 3.1-3.2 2.7-4.4-1-2.6-4.4-1.9-8.6 1.9-3.4 3.1-4 3.3-5.1 2-1.6-1.9-1-2.6 5.5-5.9 2.8-1.3 7-4.5 9.5-7.1 4.7-4.8 6.8-4.4 3.1.6zM91 204.5c3.6 3.1 10.2 7.4 14.7 9.5 4.6 2.2 8.3 4.5 8.3 5.1 0 .6-1.3 2.8-2.8 4.8-1.5 2-3.9 5.3-5.2 7.3-2.6 3.8-10.9 8.4-13.5 7.4-1.4-.5-2.9-7.1-2-8.6.3-.6 1.6-1 2.7-1 2.1 0 2.1.1.3 2-1.7 1.8-1.7 2.2-.4 3.5 1.8 1.8 7.8 1 8.6-1.1.6-1.6-7.9-17.6-13.6-25.4-2.6-3.6-5.1-6-6.2-6-1.9 0-2.5-1.1-1.2-2.3 1.6-1.6 4.4-.3 10.3 4.8zm-5.6 6.3c2.7 3.9 3.3 6.2 1.6 6.2-.9 0-6-7.9-6-9.3 0-1.8 2-.3 4.4 3.1zm6.1 11.3c0 .7-.8 1.5-1.7 1.7-1.8.3-2.5-1.8-1.1-3.2 1-1 2.8-.1 2.8 1.5z"/><path d="M104.6 219.1c-4 4.8-4.7 9.9-1.2 9.9.7 0 2.7-1.8 4.5-4 3.1-3.9 3.2-4.2 1.7-6.5-.9-1.4-1.8-2.5-2-2.5-.2 0-1.6 1.4-3 3.1zM19.4 162.1c-.8 1.4 8.5 10.9 10.8 10.9 3.5 0 2.9-2.3-1.8-7.1s-7.6-6-9-3.8zM465.9 169c-5.2 2.7-6.3 4.4-4.7 6.9 1.9 3 3.2 2.6 8.3-2.4 6.4-6.1 4.3-8.7-3.6-4.5zM13.3 169.6c-.6 1.7 7.2 10.4 9.4 10.4 3.2 0 2.4-3.3-1.8-7.6-4.6-4.7-6.6-5.4-7.6-2.8zM7.4 178.2c-.5.7 1.1 2.9 4.1 5.5 4.5 4.1 4.9 4.3 6.6 2.7 2.3-2 1.4-3.4-4.3-7-4.2-2.7-5.4-2.9-6.4-1.2zM474 180.9c-5 3-5.9 5-3.5 7.5 2.4 2.4 3.4 2 7.7-2.6 6.3-6.9 3.8-9.8-4.2-4.9zM458.8 190.7c-2.5 3.1-5.1 7.5-10.3 17.7-4.2 8.1-5.7 10.1-7.9 10.7-3.6 1-5.6 2.7-5.6 4.9 0 1-1.1 2.7-2.5 3.8-3.2 2.5-21.7 9.9-27 10.7-2.2.4-4.8.9-5.7 1.1-2.6.7-3.2 4.1-1.3 7 .9 1.4 1.4 2.8 1.1 3.1-.3.3 3.1 4.4 7.5 9 4.4 4.7 8.9 10.3 9.9 12.4 2.3 4.3 4 4.8 8.8 2.3 2-.9 3.4-2.6 3.8-4.2 2.6-11.7 4.8-16.3 11.5-24.2 3.5-4.2 4.7-4.9 8.2-5.2 3.3-.2 4.3-.8 5.7-3.3 1.7-3.1 6.5-5.1 26-11 6.8-2 7.5-2.5 7.2-4.6-.1-1.3-1.6-3.5-3.2-4.9-1.7-1.4-3-3-3-3.5 0-.6-2.5-3.9-5.5-7.4-3-3.5-5.5-7.3-5.7-8.4-.3-2.4-7-4.7-7.6-2.8-.2.6-.8.8-1.3.5-1.6-.9 1-3.4 2.9-2.8 1.4.5 1.3.2-.2-1-2.5-2.1-3.9-2-5.8.1zm3.3 10c.5 1.4 2.3 4.1 3.9 6 3.4 3.8 3.6 4.8 1.5 5.7-2 .7-1.9 4 .1 5.6.8.8 2 2.3 2.5 3.4.6 1.2-.5.4-2.4-1.7-1.9-2-4.2-3.7-5.1-3.7-2.6 0-3.1 3-1.2 6.4l1.8 3.1-2.6-2.4c-2.5-2.4-2.6-2.4-4.7-.5-1.2 1-2.9 1.8-3.9 1.6-1-.2-2.1.2-2.5.8-1 1.6-2.5 1.2-2.5-.9 0-1 2.3-6.4 5-11.9 2.8-5.5 5-10.4 5-10.9 0-1.1 2.1-3.3 3.2-3.3.5 0 1.3 1.2 1.9 2.7zm7 1.9c.7.9 1.8 2.6 2.4 3.8.6 1.1 1.9 2 2.8 1.8 1.2-.2 1.7.4 1.7 1.8 0 1.3 1.2 2.8 2.9 3.8 3.3 1.8 7 8.2 4.8 8.2-1.6 0-8.7-7.3-12.1-12.5-1.4-2.2-3.3-5-4.2-6.3-1.9-2.5-.4-3.1 1.7-.6zM442 224.5c-.7.9-1.5 1.3-1.7 1.1-.7-.7.7-2.6 1.9-2.6.6 0 .6.6-.2 1.5zm3.2 5.7c-.7.7-1.2.8-1.2.2 0-1.4 1.2-2.6 1.9-1.9.2.3-.1 1.1-.7 1.7zm-1.2 3.1c0 .2-1 1.2-2.2 2.3l-2.3 1.9 1.9-2.3c1.8-2.1 2.6-2.7 2.6-1.9zm-22.5 6.4c-4.6 2.5-14.7 6.3-16.7 6.3-1 0-1.8-.4-1.8-.9 0-1.6 2.5-2.8 7.3-3.5 2.6-.4 6.5-1.3 8.5-2.1 5.1-1.9 6.3-1.8 2.7.2zm11.5 1.1c-2.7.8-4 3.2-2.8 5.2.9 1.4.8 2.7-.4 5.7-.9 2.1-2 4.9-2.5 6.2-.9 2.3-1.1 2.2-5.7-3.8-2.6-3.5-4.6-6.5-4.4-6.7 1.4-1.3 15.5-7.9 16.3-7.5.5.3.2.7-.5.9zm-20.5 9.1c-.5.9 6.8 12.3 10.8 16.8 1.1 1.3 1.6 2.3 1 2.3-.6 0-1.8-1.1-2.7-2.5-.9-1.3-4.4-5.4-7.8-9-4.9-5.3-5.9-6.8-4.7-7.6 1.8-1.2 4.2-1.2 3.4 0zM1 191.9c0 4.3 7.9 9.3 9.3 5.8.7-1.7 0-2.7-4-5.5-3.9-2.7-5.3-2.8-5.3-.3zM243.2 191.1c-2.3.9-2.3 1-1.6 12.6.3 6.5.9 12.1 1.3 12.4.3.4 1.7.3 3-.2 2.4-.9 2.4-.9 1.7-12.6-.3-6.5-1-12-1.4-12.4-.4-.4-1.7-.3-3 .2zM254.3 192.2c-.6.8-.7 2.1-.2 3.3.4 1.1.8 4.3.8 7.1.1 5.8 2.1 8.5 4.9 6.7 1.3-.8 1.6-2.2 1.4-6.7-.5-8.2-1.5-11.1-3.9-11.4-1.1-.2-2.4.3-3 1zM266.7 192.7c-.2.5-.3 5-.2 10.1.2 9.9 1.2 12.5 4.3 10.6 1.3-.9 1.8-2.9 2-9.5.3-7.6.1-8.6-1.9-10.2-2.3-1.8-3.6-2.1-4.2-1zM207.5 194.4c-1.6 1.1-1.7 2.2-1.1 8.7.9 8.8 2.5 15.7 3.8 16.5.6.4 1.8-.2 2.9-1.2 1.7-1.8 1.8-2.3.4-7.4-.8-3-1.5-7.8-1.5-10.6 0-6-1.6-8.1-4.5-6zM233.7 194.8c-2.3 2.5-2.5 16-.2 16.8 3.4 1.3 4.6-1.5 4.3-9.9-.3-8.4-1.3-10-4.1-6.9zM279.7 193.7c-.9 1.5-.5 18.8.4 20.5 1.4 2.6 3.8 2.2 4.9-.8 1.6-4.1 1.2-15.6-.6-18.2-1.5-2.2-3.9-2.9-4.7-1.5zM482.6 194.9c-4.3 2.5-5.4 4.7-3.4 6.7 2.3 2.3 6.1 1.1 8.8-2.6 3.8-5.3.7-7.7-5.4-4.1zM223 195.6c-.8.8-1.4 3.7-1.4 6.2-.1 4.1.2 4.7 2.1 5 2.6.4 3.6-2.3 3.1-8.3-.3-4.3-1.8-5.4-3.8-2.9zM215.2 196.3c-.6.7-1.3 2.9-1.4 4.8-.3 2.9.1 3.4 1.9 3.7 1.7.2 2.4-.3 2.8-2.1 1.4-5.3-.8-9.4-3.3-6.4zM197.6 197.9c-.9 1.4.5 6.9 2 8.2 3.4 2.8 5.9-2.5 3.4-7.2-1.1-2-4.5-2.6-5.4-1zM295.3 199.2c-1.3 1.6-3.5 16.6-2.7 17.9.9 1.6 4.3 1 5.3-1 1.9-3.4 3.3-15.2 2-16.7-1.4-1.7-3.3-1.8-4.6-.2zM26.3 201.8c-.2 1-1.8 2.3-3.5 3-3.5 1.3-5.3.6-2.5-.9.9-.6 1.7-1.5 1.7-2 0-.6-1.3-.1-3 1.1-1.6 1.2-3 3-3 4.1 0 1-.7 1.9-1.5 1.9-.9 0-1.2.6-.9 1.5.4.9 0 1.5-1 1.5-2.1 0-12.8 16.4-12.4 19.2.2 1.7.8 1.1 2.7-2.8 1.3-2.7 4-6.5 6-8.4 2-1.9 4.6-4.9 5.8-6.5l2.2-3 2.6 3 2.5 3 2-2.5c1.1-1.4 2.5-4 3.1-5.8.6-1.7 1.4-3.2 1.9-3.2.4 0 .8 1.5.7 3.2 0 2 1.7 7 4.2 12.3 6.5 13.7 6.4 16.8-.9 19-2.4.7-2.5.7-.7-1.2 1.9-2.2 1.5-4.8-1-5.7-2.1-.8-3.3.1-4.9 4-1.5 3.6-3.1 4.4-4.1 1.8-.3-.9.8-3.4 2.7-6.1 2.6-3.5 3.1-4.9 2.3-6.2-.6-.9-1.6-1.6-2.3-1.6-1.4 0-9.3 9.1-10.2 11.6-.5 1.2-.9 1.2-2.8.1-1.9-1.1-2.5-1.1-3.9.2-2.4 2.2-4.7 2-6.5-.6-1.6-2.2-1.6-2.2-1.6-.1 0 3 2.1 4.3 8.9 5.3 3.3.5 6.5 1.1 7 1.5.6.3 3.1.6 5.7.7 3.6 0 5.3.6 6.9 2.4 1.1 1.2 3.3 2.6 4.8 2.9 4 1.1 13.4 17.3 15.2 26.2.4 1.8 1.5 4.4 2.6 5.8 1.7 2.1 2.9 2.5 7 2.5 6.7 0 11.3-2.1 14.4-6.7C75.4 272.2 86 253 86 252c0-.3-.9-1.6-2-2.8-1.5-1.6-3.3-2.2-6.3-2.3-2.3 0-7.8-1.3-12.2-2.8-15.9-5.6-15.9-5.6-16.6-9.1-.7-3.1-3.3-5.9-5.6-6-.7 0-1.3-.6-1.3-1.3 0-.8-1.7-4.9-3.9-9.3-2.1-4.3-4.8-10-5.9-12.5-2.3-5.1-5.1-7.1-5.9-4.1zm28.7 43c6.7 2.7 11.1 3.9 20.3 5.7 1.5.3 2.7 1.1 2.7 1.8 0 2.3-3.8 9.3-7.5 13.7-2 2.4-4.6 6.1-5.8 8.2-2 3.5-5.4 5.5-4.4 2.5.6-1.8-2.6-10.4-6.7-17.6-2.7-4.8-3.4-6.7-2.5-7.7 1.6-1.9-.6-5.2-3.7-5.6-3.2-.4-5-2.8-4-5.3.6-1.6.8-1.6 2.4-.2.9.9 5.1 2.9 9.2 4.5zm-17.4 0c-.9.9-3.7-.8-3.1-1.8.5-.8 1.1-.7 2.1.1.8.6 1.2 1.4 1 1.7zm15.3 22.8c3.2 6.8 3.8 9.4 2.2 9.4-.5 0-1.7-2.1-2.7-4.8-.9-2.6-2.3-6.2-3.1-8.1-1.5-4-1.6-4.4-.4-3.7.5.4 2.3 3.6 4 7.2z"/><path d="M59.1 254.7c-.8 1.5-1.2 1.6-2.2.5-.7-.6-1.7-1.2-2.1-1.2-1.6 0-.7 2.6 2.1 5.9 3 3.7 4.6 3.5 6.2-.6.6-1.6.5-3.1-.1-4.4-1.3-2.4-2.6-2.4-3.9-.2zM66 259.2c-1.9 2.8-3.9 5.7-4.5 6.4-.7 1-.5 1.9.7 3.1 1.7 1.6 2 1.5 5.2-2.3 5-5.6 6.2-8.2 5-10.2-1.8-2.8-2.8-2.3-6.4 3zM171.2 201.3c-.9 1.1-.9 2.3.1 5.3.8 2.1 2 6.4 2.7 9.4.7 3 1.9 6.3 2.8 7.2 1.5 1.8 4.7 2.4 5.5 1 .3-.4-1.2-5.9-3.2-12.2-3.7-11.5-5.4-13.7-7.9-10.7zM183.2 201.3c-.8.9-.8 2.4-.1 5.1.8 3 1.5 3.7 3.1 3.4 2.7-.4 4-3.9 2.4-6.9-1.4-2.8-3.8-3.5-5.4-1.6zM0 204.5c0 3.1.3 3.5 2.5 3.5 3.6 0 4.4-2.8 1.4-5.1-3.4-2.6-3.9-2.4-3.9 1.6zM307.6 203.7c-1.8 6-2.8 15.5-1.7 16.6 1.5 1.5 4.2-.1 5.9-3.5 2-4.1 2.7-11.5 1.2-13.3-1.7-2-4.7-1.9-5.4.2zM321.2 205.2c-1.3 1.7-4.2 12.8-4.2 16.3 0 2.3.4 2.6 2.7 2.3 2.5-.3 2.9-1 5.1-8.6 1.3-4.6 2.1-9 1.8-9.8-.7-1.7-4-1.8-5.4-.2zM160.1 207.4c-2.2 2.6 2.9 7.9 5.9 6.1 1.6-1 1.2-4-.8-5.8-2.3-2.1-3.6-2.1-5.1-.3zM487.9 208.9c-2.3 1.9-2.4 1.9-.5 4 2.5 2.7 3.7 2.6 6.6-.3 4.3-4.7-1-7.9-6.1-3.7zM331.8 209.3c-2.5 2-6.9 15.8-5.6 17.4 2.8 3.4 5.8.3 8.7-9.1 2.5-8.2 2.5-7.3.2-8.5-1.3-.7-2.3-.7-3.3.2zM152.6 213.3c-1.5 1.1-1.6 1.8-.8 3.3.6 1 1.8 4 2.8 6.6.9 2.6 2.3 4.9 3.1 5.3 2 .7 4.3-1.2 4.3-3.5 0-3.8-4.9-13-7-13-.3 0-1.4.6-2.4 1.3zM340.7 214.8c-1 1.1-2.7 4.5-3.8 7.7-1.8 5.1-1.9 6-.5 7.3.8.8 2.2 1.2 3.1.9 2-.8 7.8-13 7.3-15.4-.5-2.5-4.1-2.8-6.1-.5zM.2 216c0 1.4.2 1.9.5 1.2.2-.6.2-1.8 0-2.5-.3-.6-.5-.1-.5 1.3zM144 218.8l-2.2 1.8 2.1 5.3c2.2 5.9 6.6 13.1 8 13.1 2.1 0 4.1-1.3 4.1-2.6 0-1.8-7.7-18.1-8.9-18.8-.5-.3-1.9.2-3.1 1.2zM20.1 220.9c-1.2 1.6-2.1 3.3-2.1 3.9 0 .5-.7 1.5-1.5 2.2-.9.7-1.3 1.5-1.1 1.8.3.2 1.8-1 3.3-2.8 4.5-5.4 5.4-6.8 4.4-7.4-.5-.4-1.9.7-3 2.3zM495.2 218.9c-2.2 1.3-1 4.4 2.1 5.2 2.5.7 2.7.5 2.7-2.1 0-1.6-.7-3-1.6-3.4-1.9-.7-1.6-.8-3.2.3zM124.1 221.9l-2 2 4.9 10.2c2.7 5.6 5.5 10.6 6.3 11 .9.6 2.1.2 3.2-1.1 2-2.2 2.1-1.9-4.8-15.8-4-8.1-5-8.9-7.6-6.3zM132.4 222.4c-.6 1.6 3.4 8.6 4.9 8.6 2.8-.1 4-1.8 3.3-4.6-.4-1.6-1.2-3.5-1.8-4.1-1.4-1.7-5.7-1.6-6.4.1zM350.7 222.8c-2.9 3.2-5.7 10.5-4.5 11.9 2.6 3.2 6 1 9.8-6.5 1.8-3.4 2-4.5 1-5.7-1.7-2-4.3-1.9-6.3.3zM360.1 232.9c-3.8 5.9-4 10.4-.4 10.9 1.7.3 2.9-.8 5.3-4.5 2.9-4.6 4.6-9 3.9-9.8-.2-.2-1.6-.6-3-1-2.3-.6-3-.1-5.8 4.4zM499.3 231.5c0 2.2.2 3 .4 1.7.2-1.2.2-3 0-4-.3-.9-.5.1-.4 2.3zM475.6 233c-2.6 2.2-5.6 4-6.6 4-.9 0-2.5.9-3.6 2.1-1.9 2.1-1.8 2.1.5 4s7.6 2.6 8.3 1.1c.2-.4 2.9-2.9 6.1-5.7 6.1-5.2 6.8-6.8 3.8-8.5-2.9-1.5-3.2-1.4-8.5 3zM6.5 231.1c-.4.6-.5 1.3-.2 1.6.7.7 2.7-.6 2.7-1.8 0-1.2-1.7-1.2-2.5.2zM117.6 232.5c-2.2 2.2-2.1 2.6 1.5 7.1 3.3 4.2 5.6 4.9 7.3 2.2.8-1.4.4-2.6-1.9-5.9-3.5-5-4.7-5.6-6.9-3.4zM486.5 237.2c-4.4 2.5-10.3 8-12 11.2-1.6 2.9-1.7 3.7-.6 5 .8.9 1.9 1.6 2.7 1.6.7 0 5-3.5 9.5-7.9l8.1-7.8-2.3-1.7c-2.7-1.9-2.8-1.9-5.4-.4zM370.2 240.2c-6.8 11.2-7.4 13.3-4 14.4 1.8.5 3-.1 6-3.5 3.9-4.4 6.4-10.2 5.4-12.6-1-2.8-5.3-1.7-7.4 1.7zM499.2 241c0 1.4.2 1.9.5 1.2.2-.6.2-1.8 0-2.5-.3-.6-.5-.1-.5 1.3zM108.4 245.1c-1.8 2-1.8 2.1 3.9 7.6 5.2 5 6 5.4 7.4 4.1 1.2-1.3 1.3-2 .3-3.9-1.3-2.6-8-9.9-9-9.9-.4 0-1.5.9-2.6 2.1zM1.3 244.7c-3.1 1.2.1 5.5 6.5 8.7 2.6 1.4 3.7 1.5 4.8.5 2.3-1.9 1.7-3.3-2.8-6.7-4-3.1-5.9-3.6-8.5-2.5zM452.4 246.9c-6.4 4.7-11.7 10.8-11.1 12.5 1.3 3.2 5.2 1.5 12.7-5.5 7.1-6.7 7.4-7.1 5.6-8.5-2.6-1.9-2.7-1.8-7.2 1.5zM379.8 249.7c-4.5 4.6-6.3 8.9-4.7 10.9 2.2 2.7 4.8 1.4 8.8-4.3 4.6-6.3 4.9-7.8 2.2-9.3-2.6-1.3-2.2-1.5-6.3 2.7zM488.2 250.5c-2.2 1.9-4.2 3.2-4.6 3-.3-.3-.4-.2-.1.1.2.4-.4 2.3-1.5 4.3-1.9 3.8-1.7 4.6 1.1 6.8 1.3 1.1 2 .9 4-.8 2.2-1.9 2.4-1.9 2.7-.4.2.9-.1 2.2-.7 2.8-1.5 1.5-1.4 7 .1 8.5 2 2 4.5 1.3 7.2-2.1l2.6-3.2v5.7c0 4.8-.3 5.8-2 6.3-2.4.8-2.7 5.3-.4 6.2.9.3 2 1.5 2.4 2.7.6 1.3.9-3.5.9-12.7l.1-14.7h-3.3c-1.8 0-4.1-.6-5.1-1.3-1.7-1.2-1.5-1.6 2.3-5.8 6-6.6 6.1-6.7 6.1-8.1 0-1-.2-1-.9.1-.6 1-1.3 1.1-2.9.2-3.1-1.6-3.8-1.4-8 2.4zM90.7 251.2c-.9 2.7 12.1 16.8 15.5 16.8 4 0 2.8-2.9-4.4-10.4-7-7.3-10.1-9.1-11.1-6.4zM102.2 252.2c-1.9 1.9-1.4 3.7 1.3 5 2.1.9 2.9.9 4-.3 1.3-1.3 1.3-1.7-.1-3.7-1.7-2.5-3.4-2.8-5.2-1zM0 255.1c0 1.2.8 2.8 1.8 3.6 1.6 1.4 1.6 1.4 0 .9-3-.9-2.1 2 1.3 4.2 3.7 2.3 8.4 2.4 8.4.1 0-.9-2.6-3.7-5.7-6.3-5.2-4.2-5.8-4.5-5.8-2.5zM451.6 262c-6.6 5.4-8 7.4-7.2 9.6 1.1 2.8 4.7 1.3 12-5.4 5.5-5 7.2-7 6.4-8-1.9-2.3-5.3-1.2-11.2 3.8zM388.7 262.9c-4.2 5.4-4.6 7.6-1.7 9.1 1.6.8 2.6.4 5.5-2.1 2-1.8 4.3-4.6 5.2-6.2 1.4-2.8 1.4-3.2-.3-4.4-3-2.2-4.8-1.5-8.7 3.6zM437 262.5c0 1.9 3.2 3.6 5 2.5 1.1-.7 1.1-1.1.1-2.4-1.7-2-5.1-2.1-5.1-.1zM86.7 262.7c-1.5 1.5-.4 3.6 4.1 7.8 5 4.7 7.8 5.6 8.9 2.8.5-1.2-.9-3-4.6-6.5-5-4.6-7-5.6-8.4-4.1zM21.7 266.7c-1.4 1.3-.6 3.5 2.1 5.8 1.5 1.3 3.3 2.5 4 2.5.6 0 1.2.4 1.2 1 0 .5 1.6 1.7 3.6 2.5 3.6 1.5 6.4.8 6.4-1.5 0-1.3-13.3-11-15.1-11-.9 0-1.9.3-2.2.7zM0 269.9c0 3.5 2.7 4.9 4.9 2.6 1.5-1.5 1.4-1.8-.8-3.6-3.2-2.6-4.1-2.4-4.1 1zM398 269.6c-3.6 3.1-6.4 8-5.6 10 1.2 3.2 5.4 1.5 10.1-4.1 4-4.6 4.5-5.8 3.5-7-1.8-2.2-4.4-1.8-8 1.1zM458.4 269.9c-7.7 5.8-8.6 6.8-8.3 8.6.2 1 1.1 2.2 2 2.8 1.3.8 2.9 0 7.8-4.3 6.1-5.3 7.5-8.2 4.5-9.4-2.1-.8-1.6-1-6 2.3zM81.6 272.9c-1.6 1.7-1.5 2 1.8 4.9 3.5 3 8.7 4.9 10.6 3.7 1.7-1.1 1.1-3.4-1.2-4.6-1.3-.7-3.6-2.3-5.1-3.5-3.4-2.9-3.9-2.9-6.1-.5zM16.4 276.7c-1.6 1.6-1.4 1.9 2.2 4.9 2.1 1.8 6 4.3 8.6 5.5 3.9 1.8 5 2 6.3.9.8-.7 1.5-1.5 1.5-1.9 0-.7-15.4-11.1-16.4-11.1-.3 0-1.2.8-2.2 1.7zM463.6 279.9c-5.5 4.3-7 6.5-6.2 8.7.9 2.4 4.2 1.5 9.6-2.7 6-4.8 7-6.7 4.5-8.5-2.5-1.9-2.3-1.9-7.9 2.5zM0 280c0 1.4 1.5 3 4.5 4.8 2.5 1.5 7.8 4.8 11.8 7.3 10.7 6.8 13.8 8.2 14.9 7.1 1.6-1.6.3-3.9-3.2-5.7-1.7-.9-5.4-3.4-8.3-5.5-2.9-2.2-5.9-4-6.8-4-.9 0-4.2-1.4-7.3-3-5.3-2.9-5.6-2.9-5.6-1zM407 282.9c-4.2 4-4.5 6.5-.9 7.6 2.2.7 7.1-2.6 8.9-6.1 1.1-1.9 1.1-2.6 0-3.9-1.9-2.3-3.6-1.8-8 2.4zM77.7 281.1c-3.1 1.8-1.9 4.6 3.4 7.9 4 2.4 5.4 2.8 6.5 1.9 2.2-1.8 1.7-3.5-2.3-6.6-5.3-4.1-5.6-4.3-7.6-3.2zM423.9 286.6c-.8.9-2.8 2.3-4.5 3-1.7.7-4.6 2.7-6.4 4.4-3.2 3-3.2 3.1-1.5 5 1 1.1 2.4 2 3.1 2 .7 0 4.4-2.6 8.4-5.7 5.3-4.2 7-6.2 6.8-7.7-.4-2.7-4-3.3-5.9-1zM470.1 289.5c-6.8 5.5-7.8 7.2-5.7 9.3 1.4 1.4 1.9 1.4 4.3.1 1.5-.8 5-3.6 7.8-6.2 4.8-4.6 4.9-4.9 3.1-6.3-2.8-2-3.5-1.8-9.5 3.1zM64.2 287.2c-2.6 2.6-1.8 3.5 10.3 9.7 6.3 3.3 8.5 3.4 8.5.3 0-2-2.9-4.4-10.6-8.5-5.8-3.1-6.5-3.2-8.2-1.5zM0 290.8c0 2.1 17.2 16.2 19.7 16.2.3 0 2.1 1.2 4 2.6 2.7 2.1 3.7 2.3 4.8 1.4 2.8-2.3 3.7-1.5-17.4-15.7C6 291.8 1.3 289 .9 289c-.5 0-.9.8-.9 1.8zM431.5 293.9c-5.2 2.4-13.5 9.8-13.5 12 0 2 1.9 4.1 3.7 4.1.7 0 3.2-1.7 5.6-3.9 2.3-2.1 5.6-4.6 7.4-5.5 3.6-1.8 5.7-5 4.9-7.2-.7-1.9-3.3-1.7-8.1.5zM56.7 295.7c-1.7 1.6-.3 3.4 4.7 6.2 6.3 3.7 12.8 4.6 13.4 1.9.2-1.3-1.6-2.7-6.7-5.3-6.8-3.4-10.1-4.2-11.4-2.8zM477.1 300c-5.9 4.7-7.5 7.2-5.9 8.8 2.3 2.3 5.4 1.1 11.3-4.2 5.2-4.7 5.8-5.5 4.6-7-2.1-2.5-4.5-1.9-10 2.4zM441.3 304.1c-1.8.5-3.3 1.4-3.3 1.9 0 .6-.9 1-1.9 1-2.4 0-10.1 9-10.1 11.8 0 1.1.7 2.5 1.5 3.2 1.1.9 2 .8 4.6-1 1.7-1.3 3.9-3.6 4.8-5.1 1-1.6 3.3-3.9 5.2-5.2 2.2-1.5 3.5-3.2 3.7-5 .4-2.9.3-3-4.5-1.6zM0 306.7c0 1 1.3 2.7 2.9 3.8 16.8 11.8 17.1 11.9 18.9 10.1 1.6-1.6 1.5-1.9-1.4-4.4-1.7-1.5-4.6-3.6-6.5-4.7-11.8-7-13.9-7.7-13.9-4.8zM46.7 305.7c-1.4 1.4-.6 3.3 1.4 3.3 1.1 0 4.8 1.6 8 3.5 3.3 1.9 6.4 3.5 6.9 3.5 1.8 0 2.2-4.1.5-6-3-3.3-14.8-6.3-16.8-4.3zM482.2 312.8c-2.9 2.7-5.2 5.3-5.2 5.9 0 1.2 2.7 4.3 3.7 4.3 1.4 0 13.3-10.3 13.3-11.6 0-1.4-3-3.4-5.2-3.4-.8 0-3.7 2.2-6.6 4.8zM36.2 316.3c-1.5 1.8-.1 3.2 4.3 4.3 1.7.4 5.5 1.9 8.6 3.5 5.6 2.8 7.9 2.6 7.9-.6 0-1.5-3.5-4.7-4.6-4.3-.5.1-2-.5-3.4-1.4-3.7-2.4-11.3-3.3-12.8-1.5zM439.8 321c-5.2 5.4-5.9 7.4-2.8 9 1.6.8 2.6.6 4.7-.8 1.6-1.1 5.2-3.5 8.1-5.3 4-2.5 5.2-3.8 5-5.3-.3-1.8-1.1-2.1-5.3-2.3-4.8-.2-5.2 0-9.7 4.7zM0 320c0 3.3 10.8 11.8 15.1 12 .9 0 2.2-.6 2.8-1.4 1.4-1.6-1.5-4.1-11-9.4C.2 317.4 0 317.4 0 320zM488.1 323c-3.4 2.8-6.1 5.3-6.1 5.6 0 .5 2 4.6 2.6 5.3.6.6 13.2-9.9 13.8-11.5.7-1.9-1-4.4-3-4.4-.7 0-4 2.3-7.3 5zM31.8 327.6c-2.6 2.5.4 4.4 10.5 6.5 5 1.1 6 1 6.8-.2 1.3-2 .6-3.2-2.5-4.8-3.3-1.5-13.8-2.7-14.8-1.5zM449 331c-.6 1.1-1.9 2-2.8 2-4.1 0-5.7 5.1-2.2 7 2.1 1.1 6-.2 6-2 0-.6 1.4-1 3.1-1 5.8 0 8.9-3.6 5.7-6.8-2-2-8.6-1.5-9.8.8zM0 333.5c0 2.1 1 3 5.5 5.2 5.3 2.6 5.6 2.6 7.3.9 1.6-1.6 1.6-1.8-.7-3.7-1.3-1-3.5-2.2-5-2.5-1.4-.3-3.6-.9-4.8-1.4-2-.8-2.3-.7-2.3 1.5zM490.2 336.7c-1.1 1-2.3 3.5-2.6 5.5-.9 5 1 5 6.4.2 3.8-3.5 4-3.8 2.4-5.5-2.1-2.4-3.6-2.4-6.2-.2zM29.8 338.6c-1.2 2.5-1 2.9 3.2 6.6 4.9 4.4 6.9 4.5 8.8.5 1.4-3 .3-5.7-2.3-5.7-.7 0-2.4-.9-3.8-2-3.3-2.6-4.5-2.5-5.9.6zM458 340c-7.9 1.3-12 4.4-12 9 0 3 1.7 3.3 5.8 1.1 2-1.1 5.4-2.5 7.5-3.1 2.1-.7 3.7-1.8 3.7-2.7 0-.9-.6-1.3-1.5-.9-.8.3-2.3.8-3.2 1.1-1.9.6-2 .7 3.4-3.1 2.2-1.5.5-2.1-3.7-1.4zM0 345.4c0 2 .6 2.5 4 3.1 2.1.4 4.4.4 5 0 2-1.2 1-3.3-2.1-4.4-5.1-1.8-6.9-1.4-6.9 1.3zM28.2 350.2c-1.6 1.6-1.6 5.3.1 6.6 3.8 3.2 9.7 2.1 9.7-1.8 0-3.6-7.3-7.3-9.8-4.8zM456 352.5c-2.7 1-3.6 1.9-3.8 4-.4 3.5 1.2 5.3 3.2 3.6.9-.7 2.1-1.1 2.8-.8 1.5.5 6.8-2.3 6.8-3.6 0-.5-.9-.5-2-.2-2.3.7-2.8-1.3-.5-2.1.8-.4 1.5-1 1.5-1.5 0-1.2-3.7-.9-8 .6zM489 354.7c-2.4 3.1-1.3 5.1 1.8 3.4 1.1-.6 3.7-1.1 5.6-1.1 3.2 0 3.6-.3 3.6-2.5 0-2.3-.4-2.5-4.4-2.5-3.6 0-4.8.5-6.6 2.7zM0 357c0 1.7.7 2 3.9 2 3.7 0 6.8-1.9 5.4-3.3-.3-.4-2.6-.7-5-.7-3.6 0-4.3.3-4.3 2zM29.2 360.2c-1.9 1.9-1.5 6.5.7 7.1 4.3 1.1 6.8-3.5 3.5-6.7-1.9-1.9-2.6-2-4.2-.4zM492.5 361.2c-4.4 2.5-4.9 6.4-.7 5.4 5.1-1.3 8.2-3.1 8-4.6-.4-1.9-4.6-2.4-7.3-.8zM460 362.4c-.6.8-2.1 1.6-3.3 1.8-1.6.2-2.3 1.1-2.5 3.2-.5 4 1 5.1 4.5 3.3 1.5-.8 4-2 5.6-2.6 3.7-1.5 3.5-3.4-.3-2.6-3.6.8-4-.2-.5-1.5 1.4-.5 2.5-1.4 2.5-2 0-1.5-4.6-1.2-6 .4zM1.6 364.2c-2.6 1.4-2 4.4.8 4.3 2.7-.2 5.8-2.3 5.1-3.5-.8-1.3-4.1-1.8-5.9-.8zM495.8 369.9c-2.2 2.2-2.3 4.1-.3 4.1.8 0 1.5-.9 1.5-2s.5-2 1-2c.6 0 1-.5 1-1 0-1.5-1.3-1.1-3.2.9zM29.7 370.7c-1.3 1.3-.7 6.1.9 6.7 2.2.8 3.4-.1 3.4-2.8 0-3.2-2.7-5.6-4.3-3.9zM461 373.1c-5.5 5.8-4.9 11.2.8 6.5 1.6-1.4 3.9-2.6 5-2.6s2.5-.7 3.2-1.5c1.3-1.6.9-1.8-3-1.6-2.3.2-2.4.1-.7-1.2 2.3-1.9 2.2-2.7-.4-2.7-1.2 0-3.4 1.4-4.9 3.1zM4.5 375c-.3.5-.1 1 .4 1 .6 0 1.1-.5 1.1-1 0-.6-.2-1-.4-1-.3 0-.8.4-1.1 1zM493.7 380.1c-1.7 2.3-1.3 4.9.8 4.9 1.8 0 3.7-2.6 3.3-4.6-.5-2.6-2.4-2.8-4.1-.3zM460.5 387c-1.4 2.8-1.4 3.1.1 3.7 3.4 1.3 7.3-3.9 4.2-5.8-2.1-1.4-2.6-1.1-4.3 2.1zM30.6 385.7c-.9 1-.7 4.3.3 4.3 1.1 0 2.1-3.9 1.1-4.5-.4-.2-1-.2-1.4.2zM457.9 396.7c-.5 1.5-.6 3-.1 3.5 1.3 1.3 4-.1 4.7-2.3 1.4-4.3-2.9-5.5-4.6-1.2zM30 397.6c0 .8.5 1.2 1 .9.6-.3 1-1 1-1.6 0-.5-.4-.9-1-.9-.5 0-1 .7-1 1.6zM460.4 404.5c-.3 1.4-.3 2.9.1 3.3.8.8 3.7-2.8 3.2-4.2-.7-2.1-2.7-1.6-3.3.9zM71.7 502.7c-.4.4-.4 2.2-.1 4 .6 3.1.4 3.3-2 3.3-2.8 0-7.4-2-11.7-5.2-2.7-2.1-7.3-1.7-8.2.6-1.5 3.9 7.3 14.7 14.9 18.3 3.4 1.7 5.3 5.1 4 7.2-1.1 1.7 2.3 7.1 4.4 7.1 1.7 0 1.9.5 1.4 4.3-.6 4.1-.4 4.6 5.4 11.5 3.4 4 6.3 8.1 6.7 9.1.8 2.6 7.3 7.4 9 6.7.8-.3 1.5-.2 1.5.2 0 .5 2.1 3 4.8 5.7 3.3 3.4 5.8 5.1 8.2 5.5 2.5.4 3.6 1.1 3.8 2.5.8 6.1 3.7 18 6 24.8 1.9 5.7 2.3 8 1.4 8.9-1.7 1.7-4.2.2-5.4-3.2-1.6-4.7-5.2-6.1-11.1-4.2-5.6 1.8-7.6.8-5.7-2.8 1.5-2.8.6-6.3-3.1-11.7-2.9-4.2-3.1-4.3-8.1-4.2-4.7.2-5.4-.1-7.8-2.9-5.3-6.4-14.2-3.1-15.6 5.7-.4 2.3-1.1 4.1-1.6 4.1-.6 0-2.6-1.4-4.5-3-3.6-3.2-4.9-3.5-7.2-2.1-1.2.8-.8 1.7 2 5 8.4 10.1 20.7 22.4 23.4 23.7l3 1.3-4.3.1c-2.9 0-4.5.5-4.9 1.6-.9 2.4.7 3.3 9 4.6 7.1 1.1 7.8 1 9.8-.8 1.8-1.6 3.5-1.9 10-1.7 4.3 0 9.4.6 11.2 1.2 4.3 1.5 6.7.5 6.7-2.5 0-2.8 2.5-4.3 4.3-2.5.8.8.6 1.5-1 2.6-2 1.4-4.7 10.7-5.5 19-.3 2.4-.9 3.1-3.8 3.8-5.9 1.4-14.1 2.5-23.5 3.1-24.1 1.6-28.4 2.4-28.5 5.7 0 .4-5.1 1-11.2 1.4-25.2 1.7-27.4 2.2-31.2 6-2.5 2.4-4.4 3.4-8.4 3.9-7 .9-8.2 1.5-8.2 3.8 0 1.4.5 1.8 1.5 1.4.8-.3 4.6-.8 8.3-1.1 10.2-.9 11.2-1.3 12.3-4.4.9-2.6 1.5-2.9 8-3.5 3.8-.3 12.4-.9 19-1.3 10.1-.5 12.5-1 14.7-2.7 2.7-2.2 19.1-4.9 27.7-4.7 2.2.1 7.8-.5 12.5-1.4 10.8-1.9 10.3-1.9 9.4.7-.8 2.9-.8 2.9-3.6 3.2-3.7.4-13.1 2.8-15 3.8-1 .5-1.8 1.8-1.8 2.8 0 1.1-.9 2.5-2 3.2-1.2.8-2 2.4-2 4 0 2.6-2.8 4.6-4.7 3.5-1.3-.8-24.9 3.1-28.8 4.7-2.8 1.2-3.5 2-3.5 4.3 0 3.8.9 4.9 4.7 5.8 7.9 1.7 4 3.9-8.7 4.9-10.9.9-31.1 4.5-32.8 5.8-.6.6-1.2 1.7-1.2 2.4 0 1.6-4 3.4-7.6 3.4-1.5 0-2.4-.6-2.4-1.6 0-1.1-.5-1.4-1.6-1-.9.3-1.8.6-2 .6-.2 0-.4 1.5-.4 3.4 0 3 .3 3.4 3.3 4 1.8.3 4.7.2 6.3-.3 1.6-.5 4.6-1.2 6.6-1.6 2.9-.4 3.9-1.2 4.4-2.9.4-1.6 1.7-2.7 4.2-3.4 4.5-1.4 17.7-3.1 25.2-3.3 7-.3 14.2-2.3 16.4-4.8 2.7-3 1.8-7.4-1.9-8.5-6.5-1.9-7.8-2.7-6.7-3.8 1.4-1.4 9.2-2.6 21.7-3.4 11.1-.6 14.8-2.2 15.3-6.6.3-2.1.7-2.5 2.4-2 1.7.4 2 .2 1.5-1.2-1.5-3.9 3.6-7.6 10.4-7.6 2.2 0 2.7.4 2.2 1.6-.3.8.4 2.8 1.6 4.4 1.1 1.6 2.1 3.4 2.1 4 0 .5 1.1 2 2.5 3.2 1.4 1.2 2.5 2.7 2.5 3.4 0 .8.8 1.8 1.9 2.3 1 .6 2.1 2.5 2.4 4.3.6 3.1 1.7 7.2 6.7 24.7 1.1 4 1.9 7.6 1.6 7.8-.3.3-11.7.5-25.3.6-13.6 0-25.8.3-27 .8-1.2.4-3.6.4-5.5-.1-1.8-.5-19.4-1-39-1.2L0 718.4v3.8c0 3.8 0 3.8 4.3 3.9 2.3.1 30.5.3 62.7.5 32.2.3 60.1.6 62 .7 3.3.2 3.5.4 4.3 5.2.4 2.7 1.3 5.5 1.9 6.2.8 1 .6 1.8-.6 3.1-2.4 2.7-2 7.2 1 10.3 2 2 2.8 4.5 3.9 11.5.8 4.9 1.5 9.2 1.5 9.6 0 .4-1.4 2.3-3.1 4.2-2.5 2.9-3.5 3.4-5.8 3-3.8-.8-6.8 1-8.5 4.9-1.2 2.9-1.1 3.4.6 5.3 1.7 1.9 3.5 2.3 14.1 2.9 6.7.4 12.7 1.1 13.2 1.5.6.4 2.6 1.1 4.5 1.5 3.1.7 3.7.4 6.5-2.9 2.6-3.1 3.8-3.7 8.3-4.3 3-.3 6.2-1.3 7.3-2.2 2-1.6 2-1.7.1-6.1-1.1-2.5-3.1-5.6-4.6-6.9-1.8-1.7-2.6-3.5-2.6-5.9 0-6.4 2.2-16.7 4-18.7 3.1-3.6 3.1-6.3-.1-9.9-2.5-2.9-2.9-4.2-2.9-9v-5.7l3.2.3c3 .3 3.3.6 4.9 7.1 1.7 6.8 4.1 10.7 6.5 10.7 1.6 0 2.7 3.9 5.4 19.9 1.1 6.8 2.3 12.8 2.6 13.3.3.4 1.6.8 2.9.8 1.3 0 4 1.5 6.1 3.5 4.3 4.1 7.6 5.2 11 3.6 1.5-.6 2.4-.7 2.4-.1 0 1.5 7.1 9 8.4 9 .7 0 4 1.3 7.4 3 7.2 3.5 8 3.6 11 1.4 1.5-1 2.2-2.5 2.2-4.6v-3.1l5.2.7c2.9.4 5.8 1.2 6.4 1.7 2.1 1.7 7.1 2.8 8.2 1.7.7-.7 2.1-.7 4.4 0 11.6 3.6 13.3 3.6 12.5-.5-.4-2.3-.3-2.4 3.3-1.8 2.7.5 4.6.2 6.3-1 2.1-1.3 3.2-1.4 7.3-.4 2.7.6 5.7 1.5 6.6 2 2.4 1.2 4.8 1.1 4.8-.1 0-4.2-6.8-12-10.4-12-.8 0-2.4-1.3-3.6-3-1.2-1.6-4.2-4.2-6.8-5.7-2.6-1.4-6.9-4.3-9.7-6.4-2.7-2.1-7-4.6-9.5-5.7-6.2-2.6-7.7-4.6-6-7.7 1-1.9 1-3.2-.3-7.2-1.9-5.6-4.7-17.5-4.7-19.7 0-1.4 3.7-1.5 29.8-1.4 32.8.1 43.8 1.2 49.2 4.6 1.9 1.2 4.4 2.2 5.6 2.2 1.7 0 2.2 1 3.3 6.5 1.1 6.2 1 6.8-.9 9.2-1.1 1.5-2.9 3.3-4 4-1.6 1.1-1.8 2.4-1.5 9.3.2 7.6-.6 11.8-3.3 16.6-3.5 6.3 15 15.6 25.6 12.8 1.2-.4 2.2-1.1 2.2-1.6s-2.2-3.5-4.9-6.8c-4.7-5.6-4.8-6-4.1-10.2.5-2.3 1-7.2 1.1-10.8.3-5.9.1-6.8-2.4-9.4-2.1-2.3-2.4-3.2-1.6-4.8.7-1.4.7-2.9 0-5-1.9-5.5-1.4-9.3 1.4-10.6 3.5-1.6 3.1-3.5-1-5.5-3.6-1.7-4.8-5-2.2-6 .9-.3 1.2-2.2 1.1-5.6-.1-2.8.3-5.4.7-5.7.5-.3.9 2.1 1 5.3 0 3.2.4 6.7.8 7.7.7 1.8.8 1.8 1.4.2.4-.9 1.2-1.4 1.7-1.1 1.5.9 4-1.4 4-3.5 0-2.4 4.4-7.6 7-8.3 1.1-.3 2-.1 2 .4s-.5.9-1 .9c-2 0-6 5.3-6 7.9 0 1.4-.9 3.9-2 5.6-2.4 3.6-2.5 5.5-.5 5.5 2.2 0 3.8 3.8 3.1 7.9-.4 2-1 6.4-1.5 9.9s-1.4 6.9-2 7.5c-2.5 2.5-1.1 6.2 4.2 11.4 2.8 2.8 6.3 5.6 7.8 6.1 3.4 1.3 7.9.4 7.9-1.7-.1-2.7-2.7-9.1-4.5-11.1-2.1-2.3-1.2-7.5 1.5-9 .9-.5 2.5-3.3 3.4-6.2.9-2.9 2.3-6.7 3.1-8.3.8-1.7 2.1-4.7 2.9-6.8 1.3-3.2 1.9-3.7 4.8-3.7s3.5.5 4.6 3.2c1 2.7.9 4-.5 7.8-.9 2.5-2.4 5.4-3.3 6.5-3.8 4.5-3.5 6.7 1.1 9 4.2 2.2 6.1 1.9 13.6-2.4 7.2-4.1 9.5-4.1 10.8-.2.3 1.1 1.4 2.2 2.3 2.6 3 .9 6.2 11.1 5.8 18.5-.2 3.6-.5 6.9-.6 7.5-.6 2.3.1 3.6 2.5 4.7 2.1.9 3 .7 6.5-1.7 2.3-1.6 4.8-4.1 5.5-5.5 1.9-3.7 2.3-18.3.6-20.4-.9-1-1.1-2.8-.7-5.1.6-2.8 1.7-4.2 5.6-6.8 6.2-4 8.9-8.5 7.2-12.1-1.4-3.2-.5-3.8 5.6-3.6 2.6.1 12.7.1 22.5.1l17.7-.1v-3c0-1.7-.5-3-1.2-3-.7-.1-10.5-.3-21.8-.6s-21.4-.7-22.5-.9c-1.1-.2-3.2-.4-4.6-.4-1.8-.1-2.8-.8-3.2-2.1-.5-2.1-5-2.9-6.2-1-1.1 1.8 2.4 12.2 4.9 14.9 3.4 3.6 3.3 4.5-1 7.7-3.3 2.5-4.4 2.8-12.7 2.9-11.1.1-12.7-.4-17.5-5.3-2-2.2-4.4-4.3-5.3-4.8-2.6-1.5-8.2-12.3-7.6-14.7 1.1-4.4 3.4-9.8 4.9-11.3 1.3-1.3 1.9-1.4 3.6-.3 1.6 1 2.6 1 5 0 2.8-1.2 3-1.7 3-6.3.1-2.8.5-5.4.9-5.9.4-.4 3.3.2 6.3 1.3s6.7 2.3 8.3 2.5c1.5.3 2.7 1 2.6 1.7-1 8.5 1.7 16.5 5.2 15.1 1.2-.5 1.6-2.2 1.7-7.2.1-5.3.6-7.1 2.3-8.9 2.5-2.7 4.2-9 4.1-15.2-.1-4.1 0-4.4 2.2-3.8 3.7.9 7.6-2.7 7.6-7.1 0-2.6-.5-3.6-2-4-2.6-.7-2.5-1.9.1-3.3 2-1.1 1.9-1.3-1.8-4.5-13.8-12.1-17.1-13.3-25-9.2-2.6 1.4-5.6 2.8-6.5 3.1-1 .3-1.9 1.6-2 2.8-.1 1.3-.2 3.1-.3 4 0 .9-.4 2-.8 2.4-2 2.1-.4 5.5 4.9 10.2 3.2 2.8 5.1 5.3 4.5 5.6-.6.4-4.9.4-9.6.1-5.1-.3-9.4-.1-10.5.5-1.5.8-2.1.6-3-1-.7-1.2-2.1-2-3.8-2-1.5 0-3.8-.9-5.2-2-2.6-2.1-6.5-2.6-7.4-1.1-.3.5.1 1.2.9 1.5 1.4.5 1.4.8-.1 3.1-.9 1.4-1.2 2.5-.6 2.5s1.4-.5 1.8-1.1c.4-.8.9-.7 1.5.2.5.8.9 1.6.9 1.9 0 .9-9 3.3-9.7 2.6-.4-.3.6-1.9 2.2-3.6 3-3.1 2.9-6-.3-6-1.1 0-2.4-1.1-3.1-2.6-1.1-2.4-1.3-2.5-3.4-1.1-1.8 1.2-2.1 2.2-1.9 5.7.5 5.2-1.1 6.5-5.1 4.2-2.2-1.3-2.7-2.3-2.4-4.2.2-1.4.1-3.6-.3-5l-.8-2.5-.1 2.8c-.1 3.7-2.1 2.5-2.1-1.3 0-1.6-.4-3.2-1-3.5-.6-.4-1 1.5-1 4.9 0 4.3-.3 5.6-1.5 5.6s-1.5-1.3-1.5-5.8c0-5.9-1.4-10.1-2.4-7.2-.3.8-.7 2.4-.9 3.5-.3 1.1-.5.1-.6-2.3 0-2.3.1-4.2.3-4.2 1.4 0 7.6 2.8 10.4 4.7 3.8 2.5 6.7 2.9 7.8 1.1 1-1.5-3.9-5.3-10.3-7.9-5.8-2.3-7.2-4.5-2.3-3.5 2.3.4 3.5.1 4.9-1.5 1.1-1.2 2.3-2.5 2.7-3 .5-.6 1.8-1.6 2.8-2.3 1.7-1.2 1.8-1.7.7-4.4-1.1-2.5-1-3.5.4-6.1 2.2-4.3.4-7.9-4.8-9.6-2.1-.7-4.6-2-5.6-2.9-1.2-1.1-3.7-1.6-7.7-1.6-4.9 0-6.6.5-10.4 3-2.5 1.7-6 3.7-7.8 4.5-3.9 1.7-5 3.9-3 6.3.8.9 1.9 2.9 2.6 4.4.7 1.8 1.9 2.8 3.3 2.8 1.1 0 3.8 1.8 6 4s5 4 6.2 4.1h2.2l-2.3.9c-1.8.8-2.1 1.5-1.6 3.5.5 1.9.2 2.5-.9 2.5-.9 0-2.2 1.2-2.9 2.7-2.2 4.5-4 4.1-3.7-.8.4-7.3-1.5-5.5-2.6 2.3-1 6.4-1.2 6.9-1.8 4-.5-2.4-1.1-3.2-2.4-3-3.5.6-.2-7.2 5.1-12.1 1.4-1.4 2.6-2.8 2.6-3.3 0-2-3.5-.4-7.9 3.7-4.1 3.8-5 5.4-6.1 10.4-1.3 6.2-.5 13.7 2.6 26.4 1.8 7.1 1.1 8.6-6.9 14.5-2.8 2.2-6 4.8-7 5.9-1.7 1.9-1.7 2.2-.2 3.7 1 .9 1.4 2.3 1.1 3.1-.6 1.6-4.4 1.8-44.1 1.6-15.3-.1-21.1-.5-21.7-1.4-.4-.6-1.2-3.4-1.8-6-.5-2.6-1.7-5.8-2.5-7.1-1.3-1.9-1.3-2.9-.4-5.2 1.7-4.2 1.5-19.7-.4-28.6-.9-4.2-1.9-11-2.2-15l-.5-7.3 4.3-.1c6.5-.1 9.2-1.1 10.7-3.9 1-1.9 1.1-2.8.2-3.7-.9-.9-1.7-.7-3.5 1-1.3 1.2-2.6 2-2.8 1.7-.3-.2-3-.5-6.1-.6-4.9-.2-5.8-.5-6.7-2.6-1.9-4.2-1.5-5.4 1.4-3.9 2.9 1.5 7.4 1 8.2-.9.6-1.6 12.6-1.3 14.6.3.7.6 2.4.9 3.8.6 1.8-.4 1.5 0-1.4 1.7-4.1 2.5-5.6 6.1-3.7 8.4 1.8 2.2 3.6 1.8 6.7-1.3 1.5-1.6 5.5-3.9 8.8-5.1 3.3-1.3 6.5-3 7.1-3.7.7-.9 2.1-1 4.7-.5 3.4.8 8.8.2 16.6-1.9 2-.5 5.4-1.1 7.5-1.4 4.5-.6 9.7-4.9 8-6.6-.7-.7-2-.7-4 0-1.6.6-5.8 1.4-9.4 1.9-3.6.5-8.6 1.5-11.2 2.1-3.4.8-8 .9-16.3.2-6.4-.6-12.9-.6-14.5-.2-3.7 1.1-4.2.4-2.5-3 1.5-2.9 3.3-4 6.5-4 1 0 2.5-.6 3.2-1.4.8-.8 2.3-1.6 3.4-1.8 1.2-.2 2.1-1.4 2.4-3.3.5-2.8.9-3.1 6.8-4.1 3.4-.6 6.6-1.4 6.9-1.8.4-.3 1.7.4 2.9 1.5 1.7 1.6 2.7 1.9 3.6 1.2 1.6-1.3 17-.8 19.6.6 1.1.6 2.4.6 3.3 0 .7-.5 2.6-.7 4-.4 3.5.8 5.3-1.4 3.9-4.9-1.6-4.4-1.1-5.4.9-1.9 2.4 3.9 5.4 5 8.4 3 1.2-.8 3.4-1.5 4.7-1.5 1.4 0 5.2-.7 8.5-1.6 9.7-2.6 14.8-1.9 20.1 2.9 1.3 1.1 3.8 2 6 2.1 2.8.1 4.3.8 6 2.9 2.7 3.4 6.8 3.6 11.8.7 3.2-1.9 3.3-1.9 4.4-.1.7 1.1 2 1.9 3 1.9s2.3.5 2.8 1c.7.7 2.2.6 4.7-.5 6.5-2.7 6-5.6-1.2-5.7-4.2 0-10.9-3.5-10.3-5.3.4-1.7 8.1-.8 12.8 1.4 2.4 1.2 5.9 2.1 7.8 2.1 1.9 0 3.8.5 4.1 1.1.4.5 1.9 1.5 3.3 2.1 2.5 1 2.6 1.1.7 1.8-1.1.5-3.6.9-5.6.9-2 .1-4.2.8-4.9 1.6-.7.8-2.3 1.5-3.7 1.5-1.3 0-3.3.5-4.4 1.1-1.6.8-3 .7-6-.5-6.6-2.7-12.5-2.1-18.1 1.6-2.7 1.9-4.7 4-4.5 4.8.4 2.5 4.6 2.3 8.2-.4 3.6-2.8 6.8-3.2 11.2-1.5 2.7 1 2.5 1.2-4.6 3-9.9 2.5-11.7 4.1-8.5 7.3 2.1 2.2 5.3 2 7.9-.4 2.6-2.5 5.8-2.7 11-.9 4.6 1.7 12.5 2.3 14 1.2.6-.5 1.8-2 2.7-3.4 1.1-1.8 2.9-2.8 5.5-3.3 2.1-.3 4.5-1 5.3-1.6 1.3-.8 1.3-1.1-.1-2.5-2.5-2.6-11.6-1-15.2 2.6-2.5 2.5-3.3 2.8-6.4 2.1l-3.7-.8 3.8-2.2c2-1.2 4.8-2.2 6-2.2 1.3 0 3.5-.9 4.9-2.1 2.2-1.6 3-1.8 4.8-.9 1.1.7 6 1.2 10.7 1.1 4.8 0 11.6.1 15.2.1 3.6 0 7.2.1 8 .1.8 0 2.2-.2 3-.4 1.1-.3 1.4.3 1.2 1.8-.2 1.4.2 2.3 1 2.4 6 .4 11-.2 13.6-1.5 1.7-.9 5.4-1.6 8.2-1.6 4.3 0 5-.3 5-2 0-1.8-.7-2-8.4-2-6.8 0-8.8-.4-10.9-2-2-1.6-3.4-1.9-7.1-1.4-5.4.8-9.6-.9-9.6-3.8 0-2 2.1-2.4 4.8-.7 2.7 1.7 7.7-1.3 10.1-5.9 6.1-11.9 4.5-17.9-6.6-25.5-3.8-2.6-7.4-4.7-8-4.7-.5 0-2-1.1-3.3-2.5-4.8-5.1-13.1-4-16 2.3-.9 1.8-3 4.1-4.7 5.2-4.8 2.9-6.9 6.6-5.6 9.9.5 1.5.8 5.2.5 8.2-.3 4.6-.1 5.7 1.7 7.3 1.3 1.2 3.4 1.9 5.5 1.8 2.4-.1 3.9.6 5.6 2.5 1.7 2 1.9 2.5.5 2-.9-.4-3.5-1-5.8-1.3-2.3-.4-5.8-1.5-7.7-2.4-1.9-1-4.3-2.1-5.4-2.4-1.6-.6-1.8-1.4-1.4-7 .4-4.2.1-7.4-.9-9.7-.8-1.8-1.1-4.4-.8-5.7.5-1.9 0-2.5-2.7-3.6-2.8-1.2-3.8-1.2-6.8 0-1.9.8-4.8 2.4-6.4 3.5-1.5 1.2-4.2 2.2-5.9 2.3-2.5.1-3.5-.6-5.8-3.9-2.6-3.7-4.9-9.3-6.3-15.5-.6-2.6-6.4-7-9.1-7-.9 0-2.5 2.3-4 5.5l-2.4 5.5h-33l-1.6-2.9c-4.3-8.5-20.4-13.8-28.6-9.5-2.3 1.1-2.9 2-2.4 3.4.5 1.6-.4 2.6-4 4.7-7.4 4.4-7.6 4.6-8 9.3-.6 6.1-5.1 10-10.7 9.3-3.3-.5-3.9-.3-4.9 2.1-1.7 3.6.1 5.7 3.2 3.8 1.8-1.2 2.4-1.1 4.3.7 1.6 1.5 2.5 1.7 3.9 1 .9-.6 1.7-1.6 1.7-2.2 0-.7.9-2 2-3 1.1-.9 2-2.8 2-4.1 0-1.3 1-3 2.2-3.8 2-1.4 2.4-1.3 4 .6 1.3 1.7 2 1.9 3.5 1 1-.6 1.9-2.2 2.1-3.6.2-1.5 1.3-3 2.8-3.6 1.3-.7 2.4-2 2.4-3s1.2-2.2 3-2.9c2-.8 3-1.8 3-3.2 0-1.2-.5-2.1-1.2-2.1-.6 0-.9-.3-.5-.6.3-.3 2 .4 3.8 1.7 1.8 1.2 3.9 2.3 4.8 2.4 5.7.7 6.6 3.5 1.9 5.6-2.2.9-3.3 2.1-3.3 3.4 0 1.8.6 2 6.6 1.7 5-.3 6.8 0 7.8 1.2.8.9 1.9 1.6 2.6 1.6 1.9 0 4.8 8.5 4 11.9-.6 2.9-4.3 7.6-5.2 6.7-.3-.3 0-1.2.7-2.1 1.8-2.2.5-4.9-2.1-4.2-1.5.4-2.3 0-2.6-1.4-.3-1-1.3-1.9-2.3-1.9-1 0-2.1-.6-2.3-1.3-.3-.7-.6-.5-.6.5-.1 1.6-1.9 2.3-4.5 1.9-.4-.1-1.4.4-2.2 1-1.7 1.4-4.3-.4-4.5-3 0-.9-.5 0-1.1 1.8-.5 1.9-1.7 4.1-2.6 4.8-1.6 1.2-1.5 1.3.4 1.1 2.1-.3 8.7 4.5 7.7 5.6-.4.3-2.5.6-4.7.6-5.1 0-8.9-2.4-8.1-5.1.5-1.5.1-1.9-2-1.9-1.4 0-2.4.4-2.1.9.3.5-.3 1.9-1.3 3.2-1.8 2.3-2 2.3-3.8.6-2.4-2.1-4.1-2.2-6.4-.1-3 2.7-8.6 1.1-11.1-3.1-1.7-2.9-2.3-3.3-3.9-2.5-1 .6-1.9 2.1-1.9 3.4 0 3.2 6.2 8.6 9.8 8.6 3.2 0 5.9 1.5 4.4 2.4-.6.3-3.2.9-5.9 1.2-9.2 1-9 1-17.8 9.2-2.3 2.2-7.8 5.2-9.6 5.2-.7 0-.9-1.2-.5-3.8.4-2 .7-4.7.7-6 .1-1.3 1.1-3 2.4-3.8 3-1.9 6-9.7 4.7-12.1-.6-1-.7-2.6-.1-4.1 1.1-2.8.1-4.9-3.1-6.5-1.3-.7-2.7-2.5-3.1-4-.4-1.6-1.6-3.5-2.6-4.3-4.1-3.1-10.3-.5-10.3 4.4 0 1.2-.8 2.3-2.1 2.7-2.9 1-3.8 4.2-3.6 13.3.3 8.6 1.2 10.7 5.5 11.5 3.4.7 6.2 5.3 6.2 10 0 4.3-1.9 5.2-9.8 4.8-3-.1-5.9.3-6.6.8-1 .9-1.2.1-.8-3.8.6-7.1-.1-9-5.8-14.6-4.4-4.4-5-5.5-5-9.2 0-5.9 3.8-15.3 6.6-16.3 1.3-.5 2.8-1.8 3.4-2.9.5-1.1 2.8-2.5 4.9-3.1 2.1-.5 4.6-1.9 5.7-3.1 1-1.2 5.1-4.3 9.1-7 3.9-2.7 7.4-5.3 7.8-5.9.3-.5 1.4-1 2.4-1 .9 0 3.3-1.6 5.2-3.6 1.8-1.9 5.5-4.9 8.1-6.6 3.9-2.4 5-3.8 5.8-7.1 1.4-5.8 2.1-6.8 7.1-10.4 5.9-4.3 10.6-9.2 12-12.6 1.6-3.7.7-4.3-4.3-2.8-3.7 1.2-4.3 1.1-5.5-.4-.7-1-1.4-2.3-1.6-2.8-.2-.6-2.4.3-4.9 2.1-3.1 2.1-5.2 4.6-6.7 7.9-1.2 2.6-2.6 5.5-3.3 6.4-.9 1.2-.6 2.3 1.2 4.7 1.9 2.6 2.1 3.4 1 4.7-.7.8-1.8 1.5-2.6 1.5-.7 0-2 1-2.8 2.2-1.7 2.4-1.7 2.4-3.5-1.6-1.1-2.7-1-3.1 1.6-5.2 2.1-1.7 2.5-2.5 1.7-3.4-.9-.9-1.9-.8-4.3.4-1.7.9-3.1 2.1-3.1 2.6s-1 1.2-2.2 1.5c-5.8 1.7-12.6 5.6-13.1 7.4-.5 2.1-1.1 2.1-11 .6-1.8-.3-3.4.2-4.7 1.5-1.1 1.1-2.6 2-3.4 2-5.5 0-6 3.5-.8 5.6 4.1 1.7 8.2 5.1 8.2 6.8 0 .6-1-.2-2.3-1.8-2-2.4-2.8-2.7-5.4-2.2-2.8.6-3.2.4-4.1-2.3-1.3-3.8-2.5-3.9-7.5-.4-3.7 2.6-3.9 2.9-3.3 7 .5 3.5.2 4.6-1.7 6.5-2.7 2.8-5.4 15.2-3.7 17.3.7.9.6 1.6-.6 2.6-1.3 1.1-1.9 1-3.7-.1-1.2-.7-3.5-2-5.2-2.8-1.6-.8-3.1-1.6-3.2-1.7-.2-.1.6-1.9 1.7-4 1.1-2.2 2-4.5 2-5.2 0-.7.5-1.3 1.1-1.3.6 0 .8.7.5 1.6-1.6 4.1-1.6 6.1-.2 7.3.8.7 2 1 2.7.6 1.9-1.3 3.9-7.2 3.9-12 0-2.5.4-4.5.9-4.5s1.7-.7 2.6-1.6c2.2-2.2.2-4.6-3.1-3.8-1.5.4-2.4.2-2.4-.6 0-.6-1.1-1-2.7-.8-3 .3-3.1.7-1.8 8.3.5 3 .4 3.6-.4 2.5-.6-.8-1.1-2.4-1.1-3.5 0-3.2-3.7-8.5-5.9-8.5-3 0-3.3 1.4-1.1 6.2 1.8 4.2 1.8 4.6.2 10.6-.9 3.4-1.9 6.2-2.3 6.2-.4 0-1.9-1.4-3.3-3.1-2.2-2.6-3.2-3-5.6-2.5-2 .4-3 .1-3.1-.7-.2-3.1-.9-5-2.5-6.8-1.6-1.8-1.6-1.9.5-1.9 1.7 0 2.7-1 3.8-4 2.3-5.7 9.4-10.4 14.6-9.6 2.1.4 4.6 1.2 5.7 1.8 2.1 1.4 5-.3 5-2.9 0-1.1.5-1.3 1.8-.7 3 1.4 14.5.4 16.5-1.4 3.4-3 4.8-7.9 3.7-12.7-.5-2.4-.7-6.5-.3-9 .6-4.5.4-4.8-3.8-9.1-4.1-4.1-4.6-4.4-9.8-4.4-5.9 0-12.5 2.6-15.7 6.1-1.9 2.1-2.3 8.8-1.2 21.3l.3 3.9-5 1.2c-2.7.6-6.4 1.9-8.1 2.7-4.4 2.4-9.5 7.9-10.1 11-.7 3.4-1.1 3.4-4.6.4-1.6-1.4-4.2-2.8-5.7-3.1-1.6-.3-3.4-1.3-4-2-.7-.8-2.6-1.4-4.3-1.3-3.6.1-11.7-4.7-11.7-6.9 0-.8.8-1.6 1.8-1.9.9-.3 2.4-1 3.2-1.5.8-.5 2.5-1.3 3.8-1.9 2.2-.9 3-3.4 1.3-4.4-.4-.3-1.1-3.5-1.4-7.1-.6-8.2-4.7-15.5-9.2-16.9-1.7-.4-3.8-1.2-4.7-1.7-2.4-1.2-2.8-1.1-2.8.6 0 .8-.7 1.5-1.5 1.5-1.8 0-1.8.5-.5 3 .8 1.5.6 2.4-1 4-1.1 1.1-2 3.4-2.1 5.2-.1 3.1-.1 3.1-.9.8-.5-1.8-.1-3.5 1.3-5.9 1.7-2.7 1.8-3.5.6-4.2-.8-.5-1.8-.9-2.4-.9-.5 0-.3-.6.6-1.3 1.8-1.4 1.4-3.7-.6-3.7-1.9 0-7.5 4.9-7.5 6.6 0 .8-.7 1.7-1.5 2-.8.4-1.5 1.6-1.5 2.9 0 1.2-.6 2.8-1.4 3.4-1.1 1-1.2 1.9-.4 4.2.8 2.2.7 3.3-.3 4.5-1.1 1.3-1 1.7.4 2.5.9.6 1.7 1.6 1.7 2.4 0 .8.9 2 2 2.7 5 3.1 0 9.5-5.5 7-1.4-.6-3.2-.9-4-.6-.8.4-2.9.1-4.5-.6-2.4-1-3.3-1-4.6.1-1.3 1.1-1.7 1-2.6-.4-1-1.9-9.8-6.7-12.3-6.7-.8 0-1.5-.8-1.5-1.8s-3.4-5.2-7.5-9.4c-5.4-5.5-7.5-8.3-7.5-10.2 0-3-4.5-13.6-5.8-13.6-.5 0-1.2.3-1.5.7zm4 8.5c-.3.8-.6.5-.6-.6-.1-1.1.2-1.7.5-1.3.3.3.4 1.2.1 1.9zm-9.2.2c2.1.8 4.1 1.9 4.3 2.5.7 2-3.2 1.1-6.3-1.4-3.5-2.8-3.3-2.9 2-1.1zm227.5 4.1c0 1.1 1 1.4 4.8 1l4.7-.5-3.3 1.5c-2.5 1.2-3.2 2-2.7 3.3.8 2.7-3.6 6.4-7.1 6-3.9-.4-4.2-3.5-.9-8.7 2.6-4.2 4.5-5.3 4.5-2.6zm-225.2 2.3c.6 1.8-1.5 1.4-2.2-.4-.4-1-.1-1.4.6-1.2.6.2 1.4 1 1.6 1.6zm84 3.5c-.2 1.6-1.1 2.3-3 2.5-3.1.4-3.7-1.3-1.8-4.9.9-1.6 1.5-1.7 3.1-.8 1.3.6 1.9 1.8 1.7 3.2zm-20.8 4.8c0 1.1-.4 1.7-1 1.4-.5-.3-1-1.3-1-2.1s.5-1.4 1-1.4c.6 0 1 .9 1 2.1zm-46.4 9.3c0 1.3-.3 2.2-.5 2-.2-.2-1 .1-1.8.8-2.4 2-2.7-.1-.3-2.7 2.9-3.1 2.8-3.1 2.6-.1zm7.4 2.5c0 .6-.4 1.3-1 1.6-.5.3-1-.1-1-.9 0-.9.5-1.6 1-1.6.6 0 1 .4 1 .9zm177 5.3l-.1 4.3-1.4-4c-1.8-4.9-1.8-4.5 0-4.5 1.1 0 1.5 1.1 1.5 4.2zm-182.3-1c-.3.8-.6.5-.6-.6-.1-1.1.2-1.7.5-1.3.3.3.4 1.2.1 1.9zm55.2-.5c4.2 2.4 3.9 3.7-.6 3-4.1-.7-5.9-2-4.9-3.6 1-1.5 1.9-1.4 5.5.6zM95 545c0 .5-.2 1-.4 1-.3 0-.8-.5-1.1-1-.3-.6-.1-1 .4-1 .6 0 1.1.4 1.1 1zm116.7-.4c-.3.3-1.2.4-1.9.1-.8-.3-.5-.6.6-.6 1.1-.1 1.7.2 1.3.5zm40.4 2.5c4.7 1.6 5.1 2.1 3.8 5.6-.8 2.6-3.7 5.2-4.3 4.1-2-3.6-5.9-8.8-6.6-8.8-.6 0-1-.5-1-1 0-1.3 3.9-1.3 8.1.1zm10.6 1.1c-.3.8-.6.5-.6-.6-.1-1.1.2-1.7.5-1.3.3.3.4 1.2.1 1.9zM99 547.9c0 .5.9.7 2 .4 2.2-.6 2.3-.3 1.4 2.1-.3.9-1.2 1.6-2 1.6s-1.4.6-1.5 1.2c-.1.7-.5.2-.9-1.2-1.1-3.6-1.1-5 0-5 .6 0 1 .4 1 .9zm11.1 3.8c-.9 1.7-1 1.7-1.6 0-.4-.9-.4-2.5 0-3.5.6-1.6.7-1.6 1.6 0 .7 1.2.7 2.4 0 3.5zM92 554c0 6 1 7.5 2.9 4.2.9-1.4 1-1.2 1.1 1.5 0 4.3-1.4 4.9-3.8 1.5-2.5-3.5-3.4-13.2-1.2-13.2.6 0 1 2.7 1 6zm13.8 1c-.1 6.6-1.2 9.1-2.4 5.2-.3-.9-1-2.5-1.5-3.4-.6-1.2-.4-2.2.6-3.2.8-.8 1.5-2.1 1.5-2.9 0-1.2.9-2.7 1.6-2.7.2 0 .3 3.1.2 7zm32 17.4c-.3 19.9-.7 25-2.2 23.5-.9-.8.7-45.9 1.6-45.9.5 0 .7 10 .6 22.4zm-21.9-14.7c0 6.7-1.1 11.5-2.1 9.7-.8-1.5.4-16.4 1.3-16.4.5 0 .9 3 .8 6.7zm27.3-5.5c1.1 3.3.9 16-.4 17.5-1.1 1.4-1.3 1.3-1.8-.6-.8-3.2 0-18.1 1-18.1.4 0 1 .6 1.2 1.2zm8.3.7c.3.5.1 1.2-.5 1.6-.5.3-1-.1-1-.9 0-1.8.6-2.1 1.5-.7zm-21.2 6.8c-.8 9.1-1.3 9.2-1.3.5 0-4 .4-7.2 1-7.2.5 0 .7 2.7.3 6.7zm-9.7 2.4c-.5 6.7-1.6 7.6-1.6 1.2 0-4.3.5-6.3 1.6-6.3.2 0 .2 2.3 0 5.1zm5 8.9c-.1 7.2-.6 13.1-1.2 13.3-1.1.2-1.8-17-.9-23.1 1.2-8.2 2.3-3 2.1 9.8zm42.3-11.7c1.4 1.8.2 3-1.5 1.6-1.4-1.2-1.8-.7-2.7 3.6-.3 1.7-.5 1.7-1.1.4-.9-2.1 1-6.9 2.8-6.9.7 0 1.9.6 2.5 1.3zm4.2 2.9c.1 1.3 0 3.1-.1 4.2s.3 1.5.9 1.2c.6-.4 1.1-1.4 1.1-2.3 0-.9.2-1.4.5-1.1 1 .9 1.5 13.8.6 13.8-1 0-2.1-3.5-2.1-6.8 0-1.3-.4-2.1-.9-1.8-1 .7-2.1-2.7-2.1-6.7 0-3.2 1.9-3.7 2.1-.5zm-62.1 3.4c0 1.9-.4 3.4-1 3.4-.5 0-1-1.8-1-4.1 0-2.4.4-3.8 1-3.4.6.3 1 2.2 1 4.1zm41.9 4.1c.1 5-1.8 7-2 2.1-.2-4.1-.2-7.8.1-9.8.3-2.6 1.8 3.3 1.9 7.7zm4.5-4.3c-.3 1.4-1 2.6-1.5 2.6-1 0-1.2-5.3-.2-6.4 1.3-1.2 2.4 1.1 1.7 3.8zm3.6-2.4c0 .5-.2 1-.4 1-.3 0-.8-.5-1.1-1-.3-.6-.1-1 .4-1 .6 0 1.1.4 1.1 1zm0 4c0 .5-.4 1-1 1-.5 0-1-.5-1-1 0-.6.5-1 1-1 .6 0 1 .4 1 1zm8 1.1c0 1.1-.4 1.8-1 1.4-.5-.3-.7-1.2-.3-2 .7-2.1 1.3-1.9 1.3.6zm12.6 1.1c2.5 2.4 3.4 9.1 1.4 10.3-.6.4-1-1.2-1-4 0-3.8-.3-4.5-1.7-4.3-1.2.2-1.9-.4-2.1-2-.2-1.2 0-2.2.3-2.2.4 0 1.8 1 3.1 2.2zm129.4-1.4c0 .4-.9 1.3-2 2-1.8 1.1-2 1-2-.8 0-1.3.7-2 2-2 1.1 0 2 .3 2 .8zM164 569c0 .5-.4 1-1 1-.5 0-1-.5-1-1 0-.6.5-1 1-1 .6 0 1 .4 1 1zm-8 3.6c0 2.1-.4 3.3-1 2.9-1.7-1-1.1-6.5.7-6.5.2 0 .3 1.6.3 3.6zm4 11.7c.1 6.7.2 15.3.3 19.1.1 3.9-.2 7.1-.8 7.3-.6.2-1-2.4-1.1-6.4 0-7-2-21.9-2.3-17.1-.2 5.2-2.1 2.8-2.1-2.7 0-4.4.4-5.6 2-6.5 1.3-.7 2-2.1 2-4.1 0-1.7.4-2.8.9-2.4.6.3 1 6 1.1 12.8zm7.7-11.1c-.3.8-.6.5-.6-.6-.1-1.1.2-1.7.5-1.3.3.3.4 1.2.1 1.9zm289.1.4c.2 1.6-.4 2.3-2.3 2.8-4.1 1-4.8 0-3.6-5.2.1-.2 1.3-.2 2.9 0 1.9.2 2.8.9 3 2.4zm-313.2 3.6c-.3 2.9-.5 6.2-.5 7.2-.2 4.3-1.5.2-1.7-5.2-.2-6 .1-7.2 1.7-7.2.6 0 .8 2.1.5 5.2zm20.4-.1c0 1.1-.4 1.8-1 1.4-.5-.3-.7-1.2-.3-2 .7-2.1 1.3-1.9 1.3.6zm27.8 6.3c.2 3.6 0 4.7-1 4.4-.8-.3-1.4-2.4-1.6-5.2-.2-3.6 0-4.7 1-4.4.8.3 1.4 2.4 1.6 5.2zm-39.8 4.3c-.1 4.9.1 9.8.5 10.9.4 1.3.2 2.5-.4 2.8-.6.4-1.1.4-1.2-.1 0-.4-.3-1.7-.6-2.8-.5-2.1-1.1-5.9-1.2-8.4-.1-1.1-.4-1.1-1.6-.1-1.3 1.1-1.5.8-1.5-1.8 0-2.3.4-3 1.4-2.6 1.4.6 3-2.2 2-3.7-.7-1.1.4-2.9 1.7-2.9.7 0 1 3.3.9 8.7zm12.6 6.3c.1 7.1-.2 13.2-.7 13.6-.9.5-1.1-1.8-1.2-14.1-.1-9.5.2-13.9 1-13.2.3.4.8 6.6.9 13.7zm-42.6-9.4c0 .8-.4 1.4-1 1.4-.5 0-1-.9-1-2.1 0-1.1.5-1.7 1-1.4.6.3 1 1.3 1 2.1zm354-1.1c.6.8 1.3 3.1 1.5 5.2.1 2.1.1 3-.2 2.1-.2-1-1.8-3.1-3.4-4.9-1.6-1.7-2.9-3.3-2.9-3.5 0-1.1 3.9-.2 5 1.1zM200.8 585c2.2 1.1 4.6 2 5.2 2 1.6 0 1.2 1.8-.9 3.2-1.3.9-2 3-2.3 7.1-.4 5.3-.3 6 1.6 6.7 1.2.5 1.5.9.9.9-.7.1-1.3.5-1.3 1.1 0 2.1 2.4.9 6-3 2-2.2 4.2-4 4.8-4 .6 0 1.6 1.3 2.4 3 1.3 3 4.3 4 5.1 1.7.4-.9.7-.9 1.8.1 1.2 1.1 1.2 1.4-.1 2.2-.8.6-2 .8-2.7.5-.7-.2-1.5 0-1.8.5-.9 1.5-2.5 1.2-2.5-.5 0-2-1.4-1.9-8.4.6-3.8 1.3-6.9 1.8-8.8 1.3-2.8-.6-3-.8-2.4-4.3.3-2 .6-5 .7-6.6 0-2.8.1-2.8.9-.8 1.5 3.6 2 2.7 2-3.3 0-4.8-.2-5.5-1.6-5-2.1.8-4.4-1.1-4.4-3.5s.6-2.4 5.8.1zm240.2-.4c0 .8-.5 1.2-1 .9-.6-.4-.8-1.1-.5-1.6.9-1.4 1.5-1.1 1.5.7zm-176 3.9c0 .7-.7 1.8-1.5 2.5s-1.5 1.8-1.5 2.5.7 1.8 1.5 2.5c1.9 1.6 1.9 4 0 6.7-1.3 1.9-1.8 2-5.4.9-5.3-1.5-5.9-2.3-3.3-4.2 2.1-1.4 2.1-1.7.7-4.4-2.3-4.5-1.9-7.7 1.1-9.3 2.3-1.2 3.1-1.2 5.5 0 1.6.8 2.9 2 2.9 2.8zm102-1.5c0 .5-.7.7-1.5.4-.8-.4-1.5-.8-1.5-1 0-.2.7-.4 1.5-.4s1.5.4 1.5 1zm43.5.2c2.2-.1 5.5 2.5 5.5 4.5 0 1.6-.2 1.6-5.4.1-6.4-1.8-11-6.7-4.8-5.1 1.5.3 3.6.6 4.7.5zm50.5 1.4c.9 1 2.6 1.4 4.9 1.2 2.7-.2 3.6.1 3.9 1.4.3 1.3-.3 1.8-2.1 1.8-1.4 0-3 .7-3.7 1.5-1 1.2-1.6 1.3-3.8.1-2.9-1.5-8.5-.5-11.5 2.2-.9.8-2 1.2-2.4.9-.3-.4 0-.7.7-.7s1.1-.3.7-.6c-.3-.3.7-1.7 2.3-3.1 1.6-1.3 3.2-3.3 3.5-4.3.8-2.5 5.7-2.7 7.5-.4zm-328.3 2.6c-.3.7-.5.2-.5-1.2s.2-1.9.5-1.3c.2.7.2 1.9 0 2.5zm10.6.4c-.2.7 0 2.1.6 3.2.7 1.4.7 2.4-.2 3.7-1.2 1.5-1.4 1.5-2.6.2-.9-1.2-1-2.1-.1-3.7.6-1.1.8-2.5.5-3.1-.4-.5-.4-1.7 0-2.7.5-1.3.8-1.4 1.5-.3.4.8.6 2 .3 2.7zm24.4-1.4c-.3.8-.6.5-.6-.6-.1-1.1.2-1.7.5-1.3.3.3.4 1.2.1 1.9zm5.5.3c0 .5-.5 1.1-1.1 1.3-.6.2-1.1-.4-1.1-1.3s.5-1.5 1.1-1.3c.6.2 1.1.8 1.1 1.3zm36.4 2.1c-.4 1.2-1 1.4-1.7.7-.5-.5-.7-1.7-.3-2.7.4-1.2 1-1.4 1.7-.7.5.5.7 1.7.3 2.7zm9-.9c-1 1-1.9-.5-1-1.8.6-1.1.8-1.1 1.2 0 .2.7.1 1.5-.2 1.8zm182.4 1.5c0 1.1-11.8 1-12.5-.2-.3-.5.7-1.2 2.2-1.6 1.5-.3 3.9-.9 5.3-1.4 2.4-.7 5 .9 5 3.2zm-328.6 1.6c-.8 1.8-2 3.2-2.5 3.2-1.4 0-1.1-.8 1.3-4 2.7-3.7 3.3-3.3 1.2.8zM366 593c.7.4 1 1.6.8 2.6-.4 2-4.1 3.1-13.8 3.9l-5.5.5 3-2.2c1.6-1.3 3.6-3.1 4.4-4 1.5-1.8 8.7-2.3 11.1-.8zm-178.2 1.8c.2.7-.2 1-1.2.6-.9-.3-1.6-1.1-1.6-1.6 0-1.3 2.3-.5 2.8 1zm25.2-.8c0 .5-.4 1-1 1-.5 0-1-.5-1-1 0-.6.5-1 1-1 .6 0 1 .4 1 1zm-56.1 6.8c0 8.5-1.5 9.6-2.2 1.5-.5-6.9-.2-8.7 1.3-7.8.5.3.9 3.1.9 6.3zm-81.2-3.6c-.3.8-.6.5-.6-.6-.1-1.1.2-1.7.5-1.3.3.3.4 1.2.1 1.9zM222 596c0 .5-.2 1-.4 1-.3 0-.8-.5-1.1-1-.3-.6-.1-1 .4-1 .6 0 1.1.4 1.1 1zm-13 2c0 1.1-.2 2-.4 2s-.6-.9-.9-2c-.3-1.1-.1-2 .4-2s.9.9.9 2zm200.5-1c-.3.5-1 1-1.6 1-.5 0-.9-.5-.9-1 0-.6.7-1 1.6-1 .8 0 1.2.4.9 1zM137 598.5c0 .8-.4 1.5-1 1.5-.5 0-.7-.7-.4-1.5.4-.8.8-1.5 1-1.5.2 0 .4.7.4 1.5zm286-.6c0 1.5-1.5 2.1-3.8 1.4-3.2-.8-2.7-2.3.8-2.3 1.7 0 3 .4 3 .9zm-227 2.7c0 1.4-.4 2.3-.9 2-.5-.4-1.1 0-1.4.6-.3 1-.8 1-1.7.2-.9-.9-.9-1.6.2-3.3 1.8-2.9 3.8-2.6 3.8.5zm-48 .9c0 1.4-.3 2.5-.7 2.5-.5 0-.8-1.1-.8-2.5s.3-2.5.8-2.5c.4 0 .7 1.1.7 2.5zm171 3.1c0 .2-2 .4-4.5.4-4.3 0-4.5-.1-4.5-2.9v-3l4.5 2.6c2.5 1.3 4.5 2.7 4.5 2.9zm80-.6c0 2.7-.4 5-.9 5-2.2 0-8-4.6-8.1-6.5 0-1.5.3-1.6 1.2-.7 1.8 1.8 4.6 1.4 5.8-.8 1.6-3 2-2.5 2 3zm76-3.6c0 1.6-2.8 4.2-3.6 3.3-.8-.7 1.4-4.7 2.6-4.7.6 0 1 .6 1 1.4zm-381.9 4.5c-1.7 3.2-3.1 2.5-1.8-.9.6-1.7 1.5-2.6 2-2.1s.4 1.8-.2 3zm44.8 1.9c0 4.3-1.5 10-2 7.7-.4-2.3-.5-11.1-.1-12.2.9-2.7 2.2 0 2.1 4.5zM70 603.9c0 1.1.5 2.3 1 2.6.6.3 1 1.1 1 1.8 0 .6-1.2 0-2.6-1.5-1.5-1.4-2.3-3.1-2-3.7 1.1-1.8 2.6-1.3 2.6.8zm56-1.5c0 .3-.4.8-1 1.1-.5.3-1 .1-1-.4 0-.6.5-1.1 1-1.1.6 0 1 .2 1 .4zm16.5 1.5c.3.5.1 1.2-.5 1.6-.5.3-1-.1-1-.9 0-1.8.6-2.1 1.5-.7zm9.4 7.5c-.5.6-.9.8-1 .5-1-5.7.1-10.3 1.2-4.9.4 1.9.3 3.9-.2 4.4zm29.5-4.7c-.4 1-1.2 6-1.7 11-.5 5.1-1.3 9.3-1.8 9.3-1.2 0-1.1-8.4.1-12.9.5-2 1.2-4.8 1.5-6.4.3-1.5 1-2.7 1.6-2.7.7 0 .8.7.3 1.7zm-32.9 4c0 2-.6 3.8-1.2 4-1.4.5-1.9-5.8-.6-7 1.3-1.4 1.9-.6 1.8 3zm-55.9 0c-1 1-1.9-.5-1-1.8.6-1.1.8-1.1 1.2 0 .2.7.1 1.5-.2 1.8zm-4.2-1.1c.8.3 1.2 1.2.9 2.1-.4.9 0 1.3 1 1.1 1.6-.3 1.9.6 1 2.9-.6 1.4-2.9 1.7-3.6.5-.8-1.2-1.9-7.2-1.4-7.2.3 0 1.2.3 2.1.6zm129.9.6c.2.7-.1 2-.6 2.9-.7 1.1-.1 4.3 2.1 11 5.5 17 7.9 35.2 8.5 63.1.2 13.3.2 13.7-2 14.7-1.4.7-2.5 2.4-3.1 5.3l-.9 4.3-1.6-3.6c-3.7-8.4-4.9-16.9-4.5-33.4.7-34.5 0-42.5-3.8-42.5-1.6 0-4.1-4.6-3.1-5.7.4-.3 1.5.1 2.5 1 2.5 2.3 4.2.5 4.2-4.4 0-4-1.9-6.3-4.4-5.3-.9.3-1.6.1-1.6-.5 0-.7-1-1.6-2.2-2-2.2-.9-2.2-.9.7-2 1.7-.6 4.1-1.7 5.5-2.5 3.2-1.8 3.7-1.9 4.3-.4zm-61.3 2.5c0 1.3.3 1.3 1.5.3 1.3-1.1 1.5-.6 1.5 3.1 0 3.4-.5 4.7-2.1 5.7-1.2.7-2.2 1.2-2.4 1-.3-.3-.8-9.1-.6-11.6.1-1.8 2.1-.4 2.1 1.5zm-4.5 2.6c0 2.6-2 2.5-2.3-.2-.3-1.6.1-2.2 1-1.9.7.3 1.3 1.2 1.3 2.1zm82.9-.7c.9.8 1.6 2.3 1.6 3.2-.1 1.4-.5 1.2-2-.7-3-3.5-2.6-5.6.4-2.5zm-154.6 1.2c.2.7-.3 1.2-1.2 1.2-.9 0-1.6-.7-1.6-1.6 0-1.7 2.2-1.4 2.8.4zm121.4-.8c2.6 0 2.9.2 1.8 1.5-.9 1.1-1 2.2-.2 4.2.6 1.6 1.4 11.9 1.7 23.1.4 12.6 1.3 22.4 2.2 26 .8 3.1 1.8 9.3 2.3 13.7 1.2 11.6 3 21.4 5 26.6 1.9 4.7 2.4 8.1 2.2 13.6-.2 2.7-.6 3.3-2.5 3.3-2.1 0-2.6-1.1-5.2-9.8-2.5-8.1-3-11.6-3.1-21.7-.2-17.1-.2-17.2-2-19-1.5-1.5-1.8-1.5-3.4 0-2 1.8-3.9 11-4.1 19.1-.1 4.8-.1 4.9-1 1.4-1-4.4-3.8-25-3.6-27 .1-.8-.2-8.3-.7-16.6-.5-10.6-.4-16.3.4-19.3.6-2.4 1.2-7.9 1.3-12.3l.2-7.9 2.9.5c1.6.3 4.2.6 5.8.6zm-93.8 1.6c1.2 3 .6 4.4-1.8 4.4-3.6 0-8.6-1.2-8.6-2 0-.4 1.1-.5 2.4-.3 1.7.4 3-.2 4.2-1.6 2.2-2.5 3-2.6 3.8-.5zm39.7 2.7c-1.3 1.3-2.6.3-1.6-1.2.3-.6 1.1-.8 1.7-.5.6.4.6 1-.1 1.7zm-5.1.3c0 .8-.5 1.2-1 .9-.6-.4-.8-1.1-.5-1.6.9-1.4 1.5-1.1 1.5.7zm-13 .3c0 .5-.7 1.4-1.5 2.1-1.3 1-1.5.9-1.5-.9 0-1.2.6-2.1 1.5-2.1.8 0 1.5.4 1.5.9zm-42.2 3c1.9 1.2-.8 2.2-3.8 1.4-1.6-.4-1.8-.8-.8-1.4 1.7-1.1 2.9-1.1 4.6 0zm74.5 1.1c.3 1.1.1 2.3-.4 2.6-.5.3-.9-.6-.9-2 0-3.1.6-3.4 1.3-.6zm-11.2 9.3c-.8.8-1.1-.4-1.1-3.9 0-6.6 1.4-8 1.8-1.9.2 2.6-.2 5.3-.7 5.8zm-16.9-5.1c-.7.7-1.2.8-1.2.2 0-.6.3-1.4.7-1.7.3-.4.9-.5 1.2-.2.2.3-.1 1.1-.7 1.7zm35.8-.1c0 .5-.4.9-1 .9-.5 0-1-.7-1-1.6 0-.8.5-1.2 1-.9.6.3 1 1 1 1.6zm14.7 2.1c-.3.7-.5.2-.5-1.2s.2-1.9.5-1.3c.2.7.2 1.9 0 2.5zM139 629c0 .5-.5 1-1.1 1-.5 0-.7-.5-.4-1 .3-.6.8-1 1.1-1 .2 0 .4.4.4 1zm9-.6c0 .3-.4.8-1 1.1-.5.3-1 .1-1-.4 0-.6.5-1.1 1-1.1.6 0 1 .2 1 .4zm-5 3c0 1.4.4 2.7.9 3 .5.4.3 1.9-.6 3.6-1.9 3.9-3.6 2.8-2.8-1.9.3-2 .6-4.4.6-5.4 0-.9.4-1.7 1-1.7.5 0 .9 1.1.9 2.4zm9 6.8c0 1.9-.2 2-1 .8-1.3-1.9-1.3-3 0-3 .6 0 1 1 1 2.2zm88.1 6.8c1.1 4.1 2.6 10.8 3.4 14.9.8 4.2 1.9 9.8 2.5 12.6 1.6 7.3 1.8 21.1.5 27.5l-1.1 5.5-1.7-11c-.9-6.1-1.8-16.4-1.9-23-.2-11.5-1.7-20.8-3.7-22.8-1.6-1.6-4.1.1-4 2.5 0 1.3.6 5.4 1.3 9.3 1.2 7.1 2.3 47.5 1.2 46.4-1.7-1.6-3.5-18.4-3.2-28.9.4-11.8-.9-29.2-2.5-34.4-.9-2.9-.9-2.9 1.1-1.1 2.7 2.4 5 1.3 5-2.6 0-4.5.7-3.3 3.1 5.1zm-101.9 2.7c-.4 9.9-.7 11.2-1.9 10-.7-.8-.6-15.3.3-17.9 1.3-4.3 2-1.1 1.6 7.9zm-7.2-6.5c0 1.6-.3 1.9-1.1 1.1-.6-.6-.8-1.6-.5-2.2 1.1-1.7 1.6-1.3 1.6 1.1zm26 .4c0 .8-.4 1.2-1 .9-.5-.3-1-1-1-1.6 0-.5.5-.9 1-.9.6 0 1 .7 1 1.6zm27.7 2.1c-.3 1-.5.4-.5-1.2 0-1.7.2-2.4.5-1.8.2.7.2 2.1 0 3zm-13.1 6.2c.4 3.4 1.4 6.9 2.2 7.7 1 1.1 1.1 1.8.3 2.8-1.5 1.7-.7 9.1 1.3 12.1 1.4 2.1 1.4 2.5.2 2.5-.7 0-1.6 1-1.9 2.2-.9 3.2-2 1.4-2.3-3.5-.3-4.3-1.4-7.8-3.6-11-1.1-1.5-1-2 .4-3 1.7-1.4 1.5-6-.5-8.5-.7-.9-.7-1.6.1-2.4.7-.7 1.2-2.6 1.2-4.2 0-5.3 1.9-1.4 2.6 5.3zm-29.4-3.4c-.2 1.4-.8 2.5-1.3 2.5-1 0-1.2-4.3-.3-5.3 1.3-1.2 2.1.3 1.6 2.8zm-15.1 2.8c-1.3 1.3-1.5-1.1-.4-4 .7-1.6.8-1.5 1.1.6.2 1.3-.1 2.8-.7 3.4zm3.5-1.6c-1 1-1.9-.5-1-1.8.6-1.1.8-1.1 1.2 0 .2.7.1 1.5-.2 1.8zm81.4-.5c0 .7-.5 2-1 2.8-.8 1.2-1 .9-1-1.3 0-1.5.5-2.7 1-2.7.6 0 1 .6 1 1.2zm155.7 1c-.4 1.4-3.6 1.2-5.1-.3-.6-.5.3-.9 2.3-.9 2.2 0 3.1.4 2.8 1.2zM153 652.7c-.1 3.2-.4 4.3-.9 3.3-.8-1.4-.4-8 .5-8 .2 0 .4 2.1.4 4.7zm12.2 7.3c.3 9.4-.2 12-1.6 8.4-1-2.5-.7-18.4.3-18.4.5 0 1.1 4.5 1.3 10zm-38-.6c0 4.2.4 7.6.9 7.6s.9-.5.9-1.2c0-2.2 1.8.6 2.5 3.9.5 2.5.2 3.6-1.5 5.3-1.2 1.2-2.7 1.9-3.3 1.7-1.2-.4-1.3-1.6-.9-17.4.2-10.5 1.4-10.4 1.4.1zM143 661c0 4.5.5 8.2 1.1 8.5.6.5.4 1.1-.7 1.9-1.3 1-1.4 1.7-.5 3.4 1.5 2.9 3.7 2.8 3.6-.1 0-3.6 2-3.1 2.6.8.9 5.4 1.9 5.4 2-.1l.1-4.9.9 3.5c1.5 5.5 1.5 6.2-.3 7.3-1.1.8-3.1.7-7.1-.3-5.5-1.3-8.7-1-8.7.9 0 1.4 5.4 4.1 8.3 4.1 1.3 0 3.3.9 4.5 2 2.1 1.9 2.1 2.7 1.8 16.8-.3 13.8-.1 15 2.1 19.2 3.1 6.1 3 8.8-.4 9.6-1.5.4-4.2 1.6-6.1 2.7-5.2 3.1-6.4 1.2-6.7-11-.3-9.4-1.8-16.5-7.2-33.1-1.4-4.6-1.5-5.8-.4-8.9 1.2-3.2 1.2-3.8-.4-4.9-2.2-1.6-1.1-3.4 2.1-3.4 1.8 0 2.4-.5 2.4-2.1 0-2.7 2.4-1.9 2.8.9.5 3.1 1.9 2.7 2-.6.2-4.9.2-6.6-.4-12.5-.6-6.2 0-9.2 1.6-8.2.5.3 1 4.2 1 8.5zm30.7-6.8c-.3.8-.6.5-.6-.6-.1-1.1.2-1.7.5-1.3.3.3.4 1.2.1 1.9zm-26.3 3.2c-1.2 5.6-2.1 6.2-2.9 1.8-.8-4.7-.1-6.4 2.1-5.5 1.1.4 1.3 1.4.8 3.7zm209.6 6.8c0 4.5-.3 5.9-1.1 5.1-1-1-.4-11.3.7-11.3.2 0 .4 2.8.4 6.2zm76-3.8c0 .2-.7.9-1.5 1.6-1.2 1-1.5 1-1.5-.4 0-.9.7-1.6 1.5-1.6s1.5.2 1.5.4zM135 668c0 1.6-.4 3.2-1 3.5-.6.4-1-1-1-3.5s.4-3.9 1-3.5c.6.3 1 1.9 1 3.5zm14-1.6c0 .3-.4.8-1 1.1-.5.3-1 .1-1-.4 0-.6.5-1.1 1-1.1.6 0 1 .2 1 .4zm291.2 3c1 1.5-.1 2.3-4.3 3.1-3.5.7-3.6.6-3.5-2.4.1-3 .2-3.1 3.6-2.5 1.9.4 3.8 1.2 4.2 1.8zm-270.3 8.8c.1 2.1-.4 2.8-1.7 2.8-1 0-2.3.5-2.9 1.1-.7.7-2.4.8-4.2.4-3.3-.7-4-1.9-1.6-2.9.8-.3 1.5-.1 1.5.4 0 .6.5 1 1 1 .6 0 1-.9 1-2s.5-2 1-2c.6 0 1 .5 1 1.1 0 1.6 2.5.5 2.6-1.2 0-.8.2-3.2.4-5.4l.2-4 .9 4c.4 2.2.8 5.2.8 6.7zm191.1-7.6c0 .8-.4 1.4-1 1.4-.5 0-1-.9-1-2.1 0-1.1.5-1.7 1-1.4.6.3 1 1.3 1 2.1zm-14 4.4c0 1.6-.4 3-1 3-1.1 0-1.4-4.3-.3-5.3 1.1-1.2 1.3-.8 1.3 2.3zm98-1c0 .5-.5 1-1.1 1-.5 0-.7-.5-.4-1 .3-.6.8-1 1.1-1 .2 0 .4.4.4 1zm-92 3.5c.6 1.7 1.4 2.3 2.5 1.9 1.3-.5 1.5-.2 1 1.9-.4 1.3-.2 2.8.3 3.1.5.3 1.2-.4 1.5-1.5.4-1.4 1-1.8 1.9-1.3.7.5 2 .7 2.9.6 1.6-.3 3.9 3.6 3.9 6.5 0 1.9-4.7 6.4-6.3 6.2-.7-.1-2 .1-2.9.5-3.1 1.4-4.8-.1-4.8-3.9 0-1.9-.3-3.5-.7-3.5-.5 0-.8 4.5-.8 10s-.3 10-.7 10c-.4 0-.8-3.9-.8-8.6 0-6.4-.4-9-1.4-9.8-.8-.6-1.8-2.8-2.1-4.9-.7-3.5-.6-3.7 1.6-3.5 2 .3 2.4-.2 2.7-3 .4-3.8.9-4 2.2-.7zm49.3 2.5c.4 1.5 0 2-1.3 2-2.8 0-3.4 1.8-1.6 4.5 1.3 1.9 2.3 2.3 5.5 2 2.1-.1 4.4-.6 5-.9 1.7-1.1 3.5.4 2.2 1.7-.6.6-1.1 2.7-1.1 4.7 0 3.4-.2 3.6-4.5 4.8-4.8 1.3-9.3 6.2-11.7 12.8-2.7 7.6-10.8 3.7-10.8-5.3 0-3.5-.5-4.6-3.4-7-2.3-1.9-3.6-4-4.1-6.8-.4-2.2-1.2-4.6-1.8-5.4-1-1.2-.8-1.3 1.3-.6 4.3 1.3 12.2 1.7 14.4.7 1.1-.6 2.9-1.3 3.9-1.6.9-.3 2-1.4 2.4-2.3.7-2.2 3.3-5.3 4.3-5.3.4 0 1 .9 1.3 2zm40.5 1.5c.2 1.1.8 2.4 1.3 2.9 1.3 1.4 1.1 5.6-.3 5.6-.6 0-1.9-.6-2.7-1.4-1.8-1.6-6.1-2.4-7.7-1.3-.7.4-1.7 0-2.4-.8-1-1.2-1.6-1.3-2.6-.4-1.1.9-1.8.9-2.8 0-.8-.6-1.8-1.1-2.2-1-3.2.6-5.4-.3-5.4-2.1 0-3 2-3.5 13.7-3.5 9.9 0 10.8.2 11.1 2zm-29.8 1c0 1.4-.4 2.5-1 2.5-.5 0-1-1.1-1-2.5s.5-2.5 1-2.5c.6 0 1 1.1 1 2.5zm-248 8.4c1.4 1 2.9 3.3 3.4 5.1 1.2 4.2-.6 17.5-2.8 19.9-2 2.2-2 4.4-.2 7.9.7 1.5 1.6 4.9 2 7.6.5 4.1.4 4.7-1 4.2-.9-.3-2.4-.6-3.5-.6-1.5 0-1.9-.7-1.9-3.8 0-2-1.1-5.7-2.4-8.2-2.2-4.2-2.4-5.7-2.4-19.9l-.1-15.3 3.2.6c1.8.3 4.3 1.5 5.7 2.5zm12.8 19.6c-.3 6.9-.3 7-3.2 7.3-2.5.3-2.8.1-2.3-2 .3-1.3.8-4.6 1.2-7.3.3-2.8 1.1-8.2 1.7-12l1.2-7 .8 7c.5 3.8.7 10.1.6 14zm192.2-17c0 1.4-.4 2.5-.9 2.5-1.2 0-2.3-2.9-1.5-4.1 1-1.8 2.4-.9 2.4 1.6zm-180 1.7c0 .5-.4.8-1 .8-.5 0-1-1-1-2.3 0-1.8.2-1.9 1-.7.5.8 1 1.8 1 2.2zm155 2.7c0 1.6-1.1 5.1-2.4 7.7l-2.4 4.8.3-7c.2-3.8.4-7.2.4-7.7.1-.4 1-.7 2.1-.7 1.5 0 2 .7 2 2.9zm3 .5c0 1.4-.4 2.8-1 3.1-.6.4-1-.7-1-2.4s.5-3.1 1-3.1c.6 0 1 1.1 1 2.4zm15 4.1c0 .8-.4 1.5-1 1.5-.5 0-1-.7-1-1.5s.5-1.5 1-1.5c.6 0 1 .7 1 1.5zm-4.4 4.4c-.2 7-1.6 7.6-1.6.8 0-3.2.4-5.7.8-5.7.5 0 .8 2.2.8 4.9zm-27.6.6c-.7.9-1.5 1.3-1.8 1-.3-.2.1-1.1.8-2 .7-.9 1.5-1.3 1.8-1 .3.2-.1 1.1-.8 2zm-136.8 7.6l-.8 4.4-1.2-5.9c-1.6-7.9-1.5-8.3.8-5.4 1.6 2.1 1.8 3.3 1.2 6.9zm-7.8-1.9c.9 3.6.7 9.6-.4 10.3-.6.4-1-1.3-1-4.4 0-2.7-.3-5.6-.6-6.5-.3-.9-.2-1.6.4-1.6.5 0 1.2 1 1.6 2.2zm16.1.5c1 3.3 1.3 30.3.4 30.3-1.1 0-2.9-7.4-3.1-12.5-.4-9.7.2-20.5 1.1-20.5.5 0 1.2 1.2 1.6 2.7zm178.4-.6c2.5 2.3 2.5 2.9.5 17.4-1.1 8.5-5.9 11.5-8.2 5-1.1-2.8-1-3.9.2-6.3.8-1.6 2.2-3.4 3-4.1 2.3-2 2-3.5-1.4-5.9-3.4-2.6-3.7-3.8-1.3-6.4 2.1-2.4 4.4-2.3 7.2.3zm-38.3 4.9c1.7 0 2.3.8 2.7 3.2.6 4.2.3 4.4-3 2.2-1.5-1-3.8-1.7-5-1.5-2.8.3-10.6-3.7-10-5.2.2-.7 1.6-1.1 3-.9 1.4.1 2.8-.2 3.2-.7.3-.6 1.8-.2 3.8.9 1.8 1.1 4.2 2 5.3 2zm-147.1 24c.3.5.1 1-.4 1-.6 0-1.1-.5-1.1-1 0-.6.2-1 .4-1 .3 0 .8.4 1.1 1zm208.4.9c1.1.7 1 1.1-.7 2-2.2 1.2-3.9 0-2.7-1.9.8-1.2 1.6-1.2 3.4-.1zm-26.6 4c-.5 1.9-3.9 3.5-5.5 2.5-1.8-1.1-.6-3.3 2-3.7 1.5-.2 3-.5 3.4-.6.3 0 .4.8.1 1.8zm-222.8 7.2c.6.6.9 6 .7 14.2-.3 10.5 0 13.8 1.2 16.2 2.9 5.6 1.6 7.3-4.2 5.4-2-.7-4.7-2.4-5.9-3.8-2.1-2.4-2.2-2.4-4.8-.7-3.9 2.5-5.5.5-1.9-2.3 5.3-4.2 7.7-9.9 6.4-15.4-1.3-5.9-1.2-13.1.3-14.6 1.3-1.3 6.4-.8 8.2 1zm11.6 11.1c-.1 10.6 1.6 17.4 4.3 17.2 2.6-.3 1.3 1.9-1.7 2.9-3.7 1.2-5.3.4-7.2-3.3-1.4-2.7-1.5-4.7-.6-15.1 1.1-13.3 1.6-14.8 3.8-12.6 1.1 1.1 1.5 3.8 1.4 10.9zm186.7-9.9c.2 1.1-.3 1.7-1.7 1.7-2.3 0-3.5-1.5-2.6-3.1 1-1.5 3.9-.6 4.3 1.4zm16.7-.3c-.3.5-1 1-1.6 1-.5 0-.9-.5-.9-1 0-.6.7-1 1.6-1 .8 0 1.2.4.9 1zm65.5 1.2c0 1.8-.2 2-.9.8-.6-.8-.7-1.8-.5-2.2.9-1.4 1.4-.9 1.4 1.4zM347.5 777c.3.5 1.7 1 3 1 2 0 6.1 3.7 5.1 4.7-.6.6-10.6-4.9-10.6-5.8 0-1.2 1.7-1.1 2.5.1zm-134.7 2.1c-.2.6-.8 1-1.3 1s-1.1-.4-1.3-1c-.2-.6.4-1.1 1.3-1.1s1.5.5 1.3 1.1zm11.9 5.1c-.3.8-.6.5-.6-.6-.1-1.1.2-1.7.5-1.3.3.3.4 1.2.1 1.9z"/><path d="M212.5 602.6c-1.8 1.4-1.8 1.4.2 1.4 2.3 0 3.9-1.5 2.6-2.3-.5-.3-1.7.1-2.8.9zM199 605.9c0 .6.5 1.3 1 1.6.6.3 1-.1 1-.9 0-.9-.4-1.6-1-1.6-.5 0-1 .4-1 .9zM156.6 615.8c-.2.4-.1 1.4.5 2.2.7 1.2.9 1 .9-.8 0-2.3-.5-2.8-1.4-1.4zM39.3 549.7c-3.4.6-6.5 5.1-5.8 8.3.9 4.1-.8 7.2-4.6 8.4-4.8 1.6-4.9 4.5-.5 11.2 3 4.5 4.1 5.4 6.6 5.4 1.6 0 3.2-.5 3.5-1 1.3-2.2 3.3-.8 3.8 2.7.8 4.9-.3 6.4-5.4 7.8-2.4.7-5.2 1.5-6.1 2-1.3.5-1.8.3-1.8-.9 0-.8-1.3-3.1-3-4.9-1.6-1.9-3-3.9-3-4.4 0-.6-1.1-2.2-2.5-3.7-4.6-5-14.6-2.9-13.7 2.8.2 1.2.8 2.6 1.4 3.3.6.8-.3 2.5-2.9 5.4-3.2 3.5-3.8 4.9-3.8 8.5 0 2.4-.3 4.4-.7 4.4-.5 0-.8 1.4-.8 3.1 0 1.6.3 2.8.8 2.5.4-.2 1.8.2 3.2.9l2.5 1.4-3.3 1.1c-2.4.9-3.2 1.8-3.2 3.6 0 1.5.6 2.4 1.5 2.4s1.5 1 1.5 2.6c0 1.9-.4 2.5-1.5 2-1-.4-1.5.1-1.5 1.6 0 2.1 0 2.1 2.3.2 1.2-1 2.6-2.5 3-3.1.6-1 1.2-1 2.6-.2 1.7 1.1 2.1 1 10.5-3.8 3.1-1.8 3.1 0 .1 4.6-2.7 4-8.7 7.7-10.5 6.6-.6-.3-2.6-.1-4.5.6C1 632 0 633 0 634.5c0 1.9.4 2 6.3 1.5 7.6-.6 13.1-3.8 17.8-10.3 3.4-4.8 9.7-10.2 10.6-9.3.4.3-.4 1.7-1.7 3.1-1.6 1.7-1.9 2.5-.9 2.5.8 0 3.8-2.7 6.8-6 7.1-7.8 9.4-14 9.2-24.3l-.2-7.7h4.3c5.4 0 8.5-2.1 10.9-7.4 3.5-7.7 1.8-12.9-5.1-15.4-1.9-.7-2.5-1.7-2.6-4.2-.1-1.8-1-4-2-5-1.9-1.8-9.8-3-14.1-2.3zm8.6 6.2c1.4.9 1 3.5-1.1 7.8-1.7 3.5 1 9.8 4.2 9.8 2.1 0 2.5-.5 2.5-3.1 0-2.4.4-3 1.7-2.6 3.6.9 4.1 2.9 1.7 7.2-1.2 2.2-3.1 4.1-4.1 4.1-1 .1-2.4.2-3 .3-.7.1-1.3-.7-1.3-1.8 0-1-.7-2.2-1.5-2.6-7.4-3.7-10-3.7-10 0 0 2.9-2.5 2.5-3.9-.8-1.2-2.6-1.1-2.9 2.9-6.4 3.6-3.2 4.1-4.2 4-7.5-.1-2.1-.2-4.1-.1-4.6.1-1 6.3-.9 8 .2zM17 586.2c0 1.8.9 3.8 2.5 5.3 3.6 3.2 2.6 7.5-1.6 7.5-1.8 0-3.2.7-3.9 2-1.3 2.5-1.8 2.5-5.4-.4-2.4-2-2.7-2.6-1.7-4.5.7-1.1 2-2.1 3.1-2.1 2.6 0 3.3-1.5 3.6-7.4.1-2.8.3-5.3.3-5.5.1-.2.8.2 1.6.9s1.5 2.6 1.5 4.2zM42 598c0 .5-.6 1-1.4 1-.7 0-3 1.3-5.1 3-5.4 4.3-6.6 3.7-2-1 3.6-3.7 8.5-5.4 8.5-3zm-19 8c0 .5-.4 1-1 1-.5 0-1-.5-1-1 0-.6.5-1 1-1 .6 0 1 .4 1 1zM307.2 581.2c-1.4 1.4-1.6 3.8-.3 3.8.5 0 1.1-1.1 1.3-2.5.6-2.9.6-2.9-1-1.3zM316.5 586.9c-1.9.8-1.9.8.3 2 1.9 1 2.2.9 2.2-.9 0-1.1-.1-2-.2-1.9-.2 0-1.2.4-2.3.8zM307.5 588c.3.5.8 1 1.1 1 .2 0 .4-.5.4-1 0-.6-.5-1-1.1-1-.5 0-.7.4-.4 1zM341.3 620c-2.6 1-3.1 3.8-.9 4.6 2 .8 7.6-2.3 7.6-4.1 0-1.7-3.2-1.9-6.7-.5zM444.3 622.6c-1 2.7 1.3 3.6 10.9 4.4 8.9.6 12.8 0 12.8-2 0-1.8-3.6-2.7-13.3-3.3-8.3-.6-9.9-.4-10.4.9zM330.5 627c-1.6 1.6-3.6 3-4.6 3-2.2 0-4.1 2.4-3.4 4.2.7 1.8-2.1 2.8-8.1 2.8-4.6 0-8.3 2.3-8.8 5.5-.2 1.1-1.6 2.5-3.3 3.2-2.9 1.1-3.1 1.1-2.6-.7.4-1.4-.2-2.3-2.1-3.2-2.2-1-3.7-.9-7.9.5-2.9.9-6.8 1.6-8.7 1.5-2.5-.1-5.5 1-10.6 4-5.4 3.3-8 4.2-11.5 4.2-2.5 0-5.4.6-6.4 1.4-1.9 1.4-1.9 1.4 0 3.6 1.7 1.8 2.6 2 6.9 1.5 2.7-.4 8-2.3 11.8-4.3 4-2 8.9-3.6 11.4-3.8 2.5-.2 4.9-.6 5.3-.9.5-.3 1.6.6 2.5 2 1.2 1.8 2.5 2.5 4.9 2.5 5.9-.1 16.7-6.3 16.7-9.7 0-.7.6-1.4 1.3-1.5.6 0 1.7-.2 2.2-.3.6-.2 3-.3 5.4-.4 3.5-.1 4.9-.7 7.5-3.5 6.1-6.7 10.6-12.8 10.1-13.7-1.2-1.9-5.2-.8-8 2.1zM59.8 627.2c-3.1 1.1-3.6 2.9-1.4 4.7 2.7 2.2 8.5-2.1 6.4-4.6-1.2-1.5-1.3-1.5-5-.1zM26.7 634.1c-4.2 3.4-7.7 6.5-7.7 6.9 0 1.3-7.2 2-9.2.9-1.1-.6-3.7-.8-5.9-.4-3.8.7-3.9.8-3.9 4.6v3.9l4.2-.6c2.4-.4 5.1-1.1 6-1.5.9-.5 3.5-.9 5.8-.9 3.5 0 4.8-.7 10.3-5.8 3.4-3.1 7.8-6.9 9.6-8.3 3.5-2.6 3.6-4.9.2-4.9-.9 0-5.2 2.8-9.4 6.1zM74 631.9c-4.2.6-4.6 1-4.1 4.1 0 .5 2.5 1 5.4 1 2.8 0 5.8.4 6.6.9.8.5 2.5.5 4.2-.1 2.2-.7 3.8-.4 8.2 1.6 5.5 2.7 13.8 3.5 16.6 1.7 2.5-1.6-.5-3.8-5.7-4.3-2.6-.3-6.3-1.2-8.2-2.1-1.9-.9-6-1.8-9-2-3-.2-6.4-.7-7.5-.9-1.1-.3-4-.3-6.5.1zM42.5 635.1c-3.8 1.6-8.7 3.7-10.7 4.6-3.6 1.5-5.1 4.4-2.9 5.7.4.3 4.2-.8 8.2-2.6 4.1-1.7 9.2-3.7 11.4-4.5 5.9-2.2 7-2.9 7-4.4 0-2.5-5.7-1.9-13 1.2zM401.4 635c-6.4.9-14.4 4.5-14.4 6.3 0 .8.7 2 1.5 2.7 1.3 1.1 2.2 1 5.3-.7 2-1.2 6.4-2.4 9.7-2.8 6.8-.8 9.5-2 9.5-3.9 0-2.6-2.5-2.9-11.6-1.6zM374.7 668.6c-1 1.1-.9 7.2.2 7.8 1.3.8 2.4-5 1.4-6.9-.5-.9-1.2-1.2-1.6-.9zM412.3 670.4c-3.1 2.7-2.5 4.6 1 2.8 1.2-.6 3.4-1.6 5-2.2 1.5-.5 2.7-1.4 2.7-2 0-1.9-5.9-1-8.7 1.4zM421.5 695c-.7 1.1.2 9.7 1.2 11.4 1.2 1.8 2.2-2.1 1.6-6.4-.6-4.9-1.7-6.8-2.8-5zM408.9 706.6c-4.8 2.5-5.5 4.1-3.1 7.3 1.4 2 2.1 4.2 1.9 6.9-.1 3.3.4 4.6 2.6 6.6 1.5 1.4 2.7 3 2.7 3.6 0 1 5.7 5 7.2 5 .4 0 1.2-.9 1.8-2 .8-1.5.5-2.5-1.8-5.2-2.8-3.2-5.2-7-5.2-8.3 0-.3 1.1-.3 2.4.1 5.2 1.3 5.1-7.3-.2-12.9-2.8-3-4.4-3.2-8.3-1.1z"/><path d="M423.3 717.2c.4 2.9.2 3.5-1.1 3.4-3-.2-2.4 3.8 1.3 8.7 3.6 4.7 7.1 7.4 8.3 6.2.3-.3.1-1.5-.6-2.5-.6-1.1-.9-2.6-.6-3.4.3-.8 0-2.5-.8-3.8-.7-1.3-2-4.3-2.8-6.7-1.9-5.7-4.6-7-3.7-1.9zM291 794.5c-1 1.1-1 1.9-.2 2.7 1.5 1.5 4.4.2 4-1.9-.4-2.3-2.2-2.7-3.8-.8zM468.3 794.6c-3.6 1.5-5.3 4-5.3 7.7 0 3.2-1.5 4.3-6.9 5-8.3 1-9.3 5.4-1.9 8.6l4.3 1.8-5.1.6c-8.2 1.1-12 5.2-7.3 7.8 1.2.6 5.4 1.5 9.3 1.9 6 .6 6.4.8 2.4.9-5.2.1-7.8 2-7.8 5.6 0 3.9 3.9 4.4 6.7.9 2.1-2.7 2.4-2.8 3.9-1.2 1.4 1.4 1.7 3.7 1.6 14.4-.1 14.6.5 16.7 5.1 16.2 2.6-.2 3.1-.7 2.9-2.3-.5-2.7-.5-7.3-.2-18.8l.2-9.7 8 .6c12.6 1.1 18.9-3 14.4-9.1-1.2-1.7-3-2-12.2-2.4-8.8-.4-10.1-.6-6.9-1.2 2.2-.4 6.1-.8 8.6-.8 2.9-.1 5.1-.7 5.9-1.6.7-.8.9-1.5.5-1.5-.5 0 0-.9.9-1.9 3-3.4 1.1-4.1-10.5-4.1-6.8 0-10.9-.4-10.9-1 0-.7 2.6-1 6.6-.9 6.4.2 9.3-.9 8-3-.4-.6-1.9-1.1-3.3-1.1h-2.7l2.8-2.9c2.7-2.8 2.8-2.9 1-5.6-1.7-2.6-5.2-4.6-7.7-4.4-.7 0-2.6.7-4.4 1.5zm5 5.1c-.7.2-2.1.2-3 0-1-.3-.4-.5 1.2-.5 1.7 0 2.4.2 1.8.5zM461.5 811c.3.5-.1 1-.9 1-.9 0-1.6-.5-1.6-1 0-.6.4-1 .9-1 .6 0 1.3.4 1.6 1zm16.7 6.2c-.8.8-1.7.8-3.4 0-2.2-1-2.1-1.1 1.2-1.1 2.6-.1 3.1.2 2.2 1.1zm-16.9 5.9c-.5.5-2.5.6-4.4.2l-3.4-.7 3.5-.6c3.9-.7 5.6-.2 4.3 1.1zm24.2 5.9c0 1.2-1.5 1.5-7.7 1.5-7.8 0-9.5-.5-8.3-2.5.4-.7 3.5-1 8.3-.8 6.1.2 7.7.6 7.7 1.8z"/><path d="M473 842.4c-1 1.3-.9 1.7.3 2.2 2.4.9 5.2 0 5.2-1.6 0-2.1-3.9-2.4-5.5-.6z"/></svg>