<svg version="1" xmlns="http://www.w3.org/2000/svg" width="666.667" height="1170.667" viewBox="0 0 500 878"><path d="M242.2 12.2c.3.7 2 1.5 3.9 1.8l3.4.5v8.4c0 9.9-1 12.7-4.5 12.3-3-.3-5.5 1.2-4.6 2.6.9 1.4 37.4 1.4 40 0 1.8-1 1.8-1.1.2-2-.9-.5-2.6-.6-3.7-.3-3.9 1.3-4.9-1-4.9-11.6v-9.8l4.7-.3c2.6-.2 4.8-.9 5.1-1.6.3-.9-4.1-1.2-19.8-1.2-15.7 0-20.1.3-19.8 1.2zm23.1 3.1c.8 2.1-.2 19-1.2 20-1.6 1.6-7.8-.1-8.4-2.3-.3-1-.2-5.7 0-10.4l.6-8.6h4.2c2.6 0 4.5.5 4.8 1.3zM164 52.4c-1.9 1.7-8.9 3.5-20 5.1-8.4 1.3-16 3.6-18.3 5.6-4.4 3.7-12.5 7.9-15.5 7.9-2.3 0-6.1 1.7-12.2 5.4-6.4 3.9-9.8 5.4-12.4 5.4-4.2 0-5.7 1-9.7 6.9-2.1 3-3.7 4.3-5.3 4.3-1.7 0-3.3 1.4-5.9 5.2-1.9 2.9-3.9 6.4-4.3 7.8-.4 1.4-1.7 3.8-3 5.5-1.2 1.6-2.6 4.8-2.9 7-.4 2.2-1.6 4.9-2.6 6-.9 1.1-2.4 3.8-3.2 6-.8 2.2-1.8 4.8-2.2 5.8-.6 1.4-.2 2 1.4 2.4 1.1.3 1.8.9 1.5 1.5-.3.5-1.1.5-1.9-.2-1-.8-2-.3-4.4 2.2-1.7 1.8-3.1 3.9-3.1 4.5 0 .7-.9 2.7-2 4.5-4.7 7.7-.6 11 7.7 6.2 2.6-1.5 6.4-4 8.4-5.5 2-1.6 4.4-2.8 5.5-2.8 6.5 0 10.7-1.1 16.6-4.4 3.7-2.1 7-4.2 7.3-4.7.3-.6 2.1-1 4-1s4.6-.5 6.2-1.1c3.6-1.5 8-2.6 17.6-4.5 7.4-1.4 8-1.4 9.1.2 1.1 1.5 2.4 1.6 8.5 1.1 6.7-.6 7.2-.5 6.6 1.3-1.8 5.8 16.3 7 26.4 1.7 4.9-2.5 5.5-2.6 7.1-1.2.9.8 2.2 1.5 2.8 1.5.7 0 2.3 1.8 3.7 4 3.7 5.8 6.3 7.2 14.2 7.2 3.8.1 7.8-.2 8.9-.6 1.7-.5 2.4 0 3.4 2.5 1.2 2.9 1.6 3 5.6 2.6 3.9-.5 4.2-.4 4.7 2.1 2.1 10.9 5.9 16.2 11.5 16.2 1.8 0 3.8 1 5.3 2.6 3.5 3.8 7.2 5.4 12.2 5.4 3.6 0 5.3.7 9.1 3.7 4.4 3.6 4.7 4 4.2 7.5-.4 2.4 0 5.4 1.2 8.5 1.4 3.8 1.8 7.3 1.6 16.7-.1 6.5-.6 12.2-1.1 12.7-.5.5-3.9-1.5-7.8-4.4-8.6-6.5-19.6-21.7-17.5-24.2 1.5-1.8 3.1-2 2.7-.3-.3 1.8 6.2 1.4 8.1-.5 1.3-1.4 1.3-1.9-.1-5-2-4.1-2.9-4.9-8.7-7-9.2-3.4-16.4-1.2-16.2 4.9.1 4.1 4 15 7 19.9 3.8 6.1 14.2 15.7 20.5 18.9 3.2 1.6 5.7 3 5.7 3.2 0 .2-1.7 1.2-3.8 2.3-5.5 2.8-11.9 10.2-12.8 14.6-1.5 7.9.2 16 5.2 25 3.1 5.6 5.6 8.8 7.3 9.5 1.4.6 3.7 1.9 5 2.9l2.5 1.9-2 2.8c-1 1.6-2.1 4.7-2.4 6.9-.5 4-.5 4-4.5 3.7-2.2-.2-7.1-1-10.8-1.8-15.4-3.2-45.2-.1-52.6 5.4-3.8 2.8-4.3 7.5-1 9.4 3.3 2 4.4 5.3 12.5 34.8 1.6 5.9 2.4 10.9 2.1 13.2-.3 2.3 0 4.4.9 5.5 2.2 2.9 1.7 3.7-4.4 7-4.8 2.7-6.4 3.1-10 2.6-2.6-.4-5.2-.1-6.6.7-5.4 2.8-6.1 1.8-15.2-20.3-2.8-7-6.4-14.6-7.9-16.7-1.5-2.2-3.4-5.3-4.4-6.9-5.2-9.7-13.5-22.1-16.9-25.4-2.2-2.2-5.8-4.4-8.3-5.1-3.9-1.2-4.4-1.7-4.7-4.5-.4-4.3 2.2-7.3 5.5-6.5 3.1.8 6.3-2 6.3-5.5 0-1.4.7-3.7 1.5-5.1.8-1.4 1.8-3.3 2.1-4.3.3-.9 1.4-1.7 2.3-1.7 1 0 2.4-.6 3.3-1.3 1.3-1 1.4-2.2.5-8.5-.9-6.2-.8-7.7.6-10.8 1-1.9 2.2-7 2.8-11.2.7-5.3 1.7-8.3 3-9.5 1.9-1.8 2.5-3.7 1.2-3.7-.5 0-1.5-.5-2.3-1-1.2-.7-1.1-1.3.9-3.4 1.4-1.4 2.2-2.8 2-3.1-.9-.8-7.3-.9-9.2 0-1.5.6-1.8.4-1.5-1.1.3-1.7-.4-1.9-6.7-1.9-3.8 0-7.9-.5-9-1.1-1.1-.7-6.1-1.5-11.2-1.9-9.4-.7-12.6-.2-24.9 4.2-5.4 1.9-13.5 10.3-16.5 17-1.8 4.1-2.9 5.3-4.6 5.3-3 0-5.4 7.1-3.5 10.1 1 1.6 1 2.4-.3 4.2-2.5 3.6-1.9 5.7 1.5 5.7 3.5 0 3.5.1 1.4 4.2-1.5 2.9-1.5 3.1 1.1 5.8 2.2 2.3 2.5 3.1 1.6 4.8-.9 1.7-.7 2.6 1.2 4.8 1.3 1.5 3.5 2.8 4.8 2.9 1.3.1 2.4.7 2.3 1.3-.1.7-.2 2.3-.2 3.7-.2 3.3-4.4 7.1-8.6 7.9-3.3.6-11 7.6-13.3 12.2-1.4 2.5-2.7 15.6-2.9 27.4-.2 18.7-1.4 42.1-2.4 46.3-.5 2.3-.8 15.9-.6 30.2.2 16.5-.2 32.4-1.1 43.5-.8 9.6-1.6 29.6-1.9 44.5-.2 14.8-.7 36-1 47-.4 11-.6 44.4-.5 74.2L41 682h-3.6c-2.1 0-6 1.1-8.8 2.4-3.5 1.7-8.7 2.9-16.6 3.8L.5 689.5l-.3 3.3c-.3 3 0 3.4 4.3 5.2 3.8 1.6 6.9 2 17 2 11.9 0 15.1-.8 12.8-3.1-.4-.4-7.2-.9-15-1-11-.1-14.5-.4-15.4-1.5-.6-.8-1-1.6-.8-1.9.3-.2 5.7-.8 12.2-1.4 9.4-.8 12.2-1.4 14.6-3.2 1.7-1.2 4.6-2.2 6.8-2.3 3.6-.1 3.8.1 4.1 3.1.2 1.8-.4 4.3-1.3 5.6-.9 1.4-1.5 2.9-1.4 3.3.8 4.4.7 4.4-15.9 3.7-12-.4-16.1-.3-16.6.6-1.3 2.1.3 2.6 9.2 2.7 4.8.1 12 .5 16 .9l7.2.8v4.2c0 4.3 2.8 8.4 4.8 7.1 1.8-1.1 2.9 1.9 3.1 8.2l.2 6.3-15.8-.1c-28.1-.2-30.3-.1-30.3 1.4 0 2.2 7.5 2.8 32.3 2.5 22.6-.3 23-.3 24.4 1.8.8 1.2 1.2 2.7.8 3.3-.4.6-9.9 1-28.1 1-15.1-.1-27.9.2-28.4.5-.6.4-1 1.3-1 2.1 0 1.2 4.4 1.4 29 1.4h29v2.8c0 1.5.9 5.1 1.9 8 1.1 3 1.8 5.9 1.5 6.5-.3.7-3.1 2.4-6.4 3.9-3.2 1.4-6.6 3.8-7.6 5.3-1.5 2.3-1.5 3.1-.3 6.7 2.2 6.6 3.1 7.1 12.6 6.5 8.1-.5 8.4-.4 8.1 1.7-.3 2 .1 2.1 5.7 1.8 7.8-.4 12.3-1.8 15.7-5 2.7-2.5 2.8-2.5 4.8-.7 1.1 1 4.4 2 8.2 2.5 3.7.4 8.8 1.9 12.3 3.7 8.9 4.5 21.6 5 39.3 1.7 3.3-.6 3.1-6.7-.3-9-4.6-3-3.1-4.2 6.1-4.9 7-.6 9.1-1.2 11.5-3.2 2.4-2 2.7-2.8 1.8-3.9-1-1.3-1.7-22-.7-22.9.1-.1 47.1-.4 104.3-.6l104-.4.3 3.4c.6 5.9-.7 9.7-4.9 14.5-4.4 4.9-13.6 9.9-24.4 13.2-21.8 6.5-24.7 16.3-5.7 19.5 14.6 2.4 32.8.5 54.5-5.5 3.2-.9 6.8-1.6 8.1-1.6 1.3 0 3.5-.9 5-2.1 2.2-1.7 2.6-2.7 2.4-6.2-.3-4-.2-4.1 3.2-4.8 3-.5 7.2-1.7 24.5-7 1.6-.5 4.7-.9 6.8-.9 10.4 0 15.4-8.1 10.8-17.6-1.1-2.1-1.8-4-1.6-4.2.1-.1 9.3-.4 20.4-.4l20.1-.2v-2.4c0-2.3-.2-2.4-4.5-1.8-7.6 1.2-36.4.4-38.7-1.1-.5-.2-.8-1.4-.8-2.7v-2.3l22 .4c21.4.3 22 .2 22-1.7s-.8-2-16.2-2.2c-31.1-.3-27.9.1-29.9-3.4-.9-1.7-1.9-6-2.2-9.5-.3-3.5-.8-7.8-1.1-9.4-.4-1.7-1.1-5.5-1.7-8.5-.6-3-1.5-7.2-2.1-9.2-.9-3-.8-4.6.6-8.2.9-2.4 2.4-4.7 3.2-5 1.8-.7 22.5 1.9 25.1 3.2 6.3 3.1 9.4 4.2 13.8 4.9 3.7.6 5.1 1.3 5.3 2.7.3 1.6-.1 1.7-3.8 1.1-3.3-.6-4.1-.4-3.8.6.4 1.2 3.1 2.2 10.1 3.6 2.6.5 2.7.4 2.7-4 0-4.5 0-4.5-4.4-5.6-2.5-.6-5.6-1.1-6.9-1.1-1.4 0-3-.7-3.7-1.4-.6-.8-2.7-2-4.6-2.6-4-1.4-4.3-2.7-1-4 4.5-1.7 6.3-9 2.9-10.9-1-.5-2.9-3.4-4.3-6.5-2.1-4.9-3-5.8-6.2-6.8-4-1.2-6.8 0-6.8 2.7 0 .8-1.3 1.6-3 2-4 .9-7.3 5.2-6.5 8.5 1.6 6.8 1.8 11 .4 11-4.3-.1-5.6-1.2-5.6-4.8 0-2.5-1.1-5.2-3.2-8.3-1.7-2.6-3.1-5.9-3.1-7.3 0-1.6-1-3.5-2.6-4.9-1.4-1.2-4.4-4.2-6.7-6.6-2.3-2.4-6.7-6.9-9.8-10-12.6-12.7-19.1-26.8-16.9-36.7.5-2.3 1.1-8.9 1.3-14.7.3-6.5.9-11.3 1.7-12.2 1.6-1.9 5.4-1.9 8.4.1 2.2 1.3 2.8 1.3 6 0 2.8-1.2 3.6-2.1 3.6-4 0-2.8.9-3.3 2.8-1.4 1.8 1.8 5.9-.5 8.3-4.7 1.2-1.9 2.8-3.5 3.6-3.5 2.7 0 10.2-5.1 13.4-9.1 2.7-3.4 3-4.4 2.1-6.3-.8-1.8-.7-2.7.6-4 1.6-1.5 1.5-2-.1-6.4-6-16-10-29.2-15.3-49.7-4.4-17.4-8.4-28.6-12.4-35.5-2.2-3.6-4-7-4-7.4 0-.5-1.8-3.5-4-6.7-4.2-6.1-4.8-9.1-2.9-14.3.8-2.3 2.4-3.7 6-5.3 4.7-2.1 5.1-2.6 10-12.8 3.7-7.6 5.4-12.6 5.9-17.3 1.2-8.8 3.6-18.1 5.4-20.1.7-.9 2.2-3.6 3.3-6.1 1.1-2.5 3.2-5.6 4.7-6.9 1.4-1.4 2.6-3 2.6-3.8 0-.7.5-1.3 1.1-1.3 1.5 0 .6-19.2-1.1-23.5-.6-1.7-1.6-5.5-2.2-8.5-1.6-8.7-4.3-12.8-15.9-24.2-6-5.8-10.9-10.9-10.9-11.3 0-2.1-9-7.6-13.9-8.4-2.8-.5-3.8-1.4-6.3-6.3-3.3-6.4-3.1-8.2.9-6.7 3.2 1.2 6-.6 4.2-2.7-.9-1.1-.8-1.8.1-2.9 1.3-1.6 1.1-1.8-4.3-2.9-4.5-1-2-2.8 2.9-2 5.1.7 6.1-1 1.7-2.7l-2.8-1.1 2.4-1.2c4.2-2.3 3.8-15-.5-16.6-3.3-1.3-9.8-7.8-12-12.2-2.6-5.1-11.1-10.5-21.8-13.8-7.4-2.4-23.6 1-32.3 6.7-1.3.9-3.5 1.3-5 1-1.7-.3-4.3.3-6.8 1.5-6.5 3.3-7.5 4.6-7.5 9.9 0 2.6-.4 5.1-1 5.4-1.8 1.1-1.2 7.3.9 8.4 2.2 1.2 3.5.3 2-1.5-1.6-2-.2-6.6 1.9-6.2 1.1.2 1.7 1.4 1.8 3.6.1 2.1.9 3.9 2.2 4.8 1.1.7 2.2 2.8 2.5 4.6.3 1.8 1 5.2 1.6 7.6.6 2.4 1.2 6.5 1.2 9.2.2 5.2 1.7 7.5 5.4 8.2 1.3.2 3.3 2.8 5.6 7.3 2 3.9 4.2 7.6 4.8 8.2 1.6 1.8 5.6 1.6 9.3-.3 2-1 3.4-1.2 4-.6.7.7-.1 1.2-2.1 1.7-1.7.3-3.3 1.1-3.7 1.6-.3.5-2.6 2-5.2 3.3-2.6 1.4-5.2 3.3-5.9 4.4-.6 1.1-2.7 2.2-4.5 2.6-1.8.4-4 1.2-4.9 1.9-3 2.4-9.9 11.9-9.9 13.8 0 2.3-2.2 2.4-8 .4-2.3-.8-7-1.5-10.4-1.4l-6.1.1 7.5 1.7c12.2 2.9 17.7 5 18.3 7.1.7 2.8-.3 3.2-3 1-3.4-2.7-12.3-4.4-22.8-4.3-9.4 0-13.5.8-13.5 2.4 0 1.2 8.7 1.2 9.5-.1 1.4-2.2 23.5.8 23.5 3.2 0 .6-.9.8-2.2.4-5.4-1.4-15.8-1.6-22.7-.4-10.7 1.9-10.4 3.7.6 3.1 10-.5 23.4 1.5 24.1 3.6.3.9-.2 1.1-1.4.8-1.1-.3-5.7-.9-10.3-1.2-6.8-.6-8.3-.5-7.9.6.3.9 3.4 1.8 8.9 2.5 4.6.6 8.5 1.2 8.7 1.3.1 0-.2 1-.8 2.1-.8 1.5-1.5 1.8-3.3 1.1-4-1.6-13.3-4.1-15-4.1-.9 0-1.9.4-2.2 1-.7 1.1 4.4 3.4 10 4.4 4.7.9 7.7 2.4 7.1 3.5-.3.5-2.9.2-5.8-.5-6.7-1.8-13.1-1.8-12.6-.2.3.7 3.7 1.7 7.6 2.3 4 .6 7.7 1.6 8.3 2.2 2 2-.9 2.5-6.7 1.3-4-.8-5.9-.9-6.7-.1-1.2 1.2-.3 1.7 6.8 3.4 6.5 1.7 5.2 3.3-2.4 2.9-8-.4-8.1 1.8-.1 3.3 3 .6 5.5 1.6 5.8 2.3.5 1.5-.7 1.5-6.4.1-3.3-.9-4.8-.9-5.6-.1-1.6 1.6-.8 2.2 4.8 3.6 7.2 1.8 6.8 3.5-.7 2.9-5-.5-6.1-.3-5.7.8.3.8 2.2 1.5 4.6 1.7 3.4.3 5 1.2 8.9 5 7.3 7.2 7.8 7.9 6.3 9.7-.7.8-2 1.5-3 1.5-1.4 0-1.8-.8-1.7-3.6.1-2.9-.5-4.1-2.8-6-1.8-1.4-3.7-2.1-4.8-1.8-1 .3-2.9-.1-4.2-1-1.7-1.1-4.1-1.4-8.9-1.1-4.4.3-6.6.1-6.6-.6s1.2-.9 3-.7c1.7.3 3.4 0 3.7-.5.8-1.3-1.9-2.8-3.9-2.1-1 .3-1.8.1-1.8-.5 0-.5 1.7-1.1 3.7-1.3 5.5-.5 5.7-3 .2-2.8-6.3.3-6.9.2-6.9-1.4 0-1.7 2.2-2.6 6.6-2.6 2.1 0 3.3-.4 2.9-1-.3-.6-3.1-1-6.1-1-4.1 0-5.4-.4-5.4-1.5s1.2-1.5 4.5-1.5c2.5 0 4.5-.5 4.5-1 0-1.2-1.1-1.4-6.1-1.1-2.2.2-4-.4-4.8-1.3-1.8-2.1-.6-3.4 2.4-2.8 2.8.5 3.4-1.2.8-2.6-1.4-.9-1.4-1.1.6-2.1 3.1-1.7 1.6-3.2-1.9-1.9-1.9.6-2.9 1.6-2.8 2.6.6 3.1-2.3 2.3-3.6-1-2.5-5.9-3-8.8-1.5-8.8 2.8 0 8.9-2.1 8.9-3 0-.6-1.9-1-4.2-1-4.2-.1-8.4-2-7.1-3.3.3-.4 2.5-.7 4.7-.7 2.3 0 4.7-.4 5.5-.9 1.9-1.2 2.2-5.1.5-5.8-1.4-.5-14.1 3.4-16.1 5-1 .7-1.3.3-1.3-1.6 0-3 1.7-4.5 5-4.5 1.4 0 4.5-.5 7-1.2 5.2-1.3 6.4-1.5 18-3.4 4.7-.7 8.1-1.5 7.5-1.6-6.4-1.5-24.2-.1-31.9 2.6-2.2.8-4.2 1.2-4.5.9-.3-.3-.4-2.3-.3-4.3.2-3.5-.5-5.1-5-11.5-1.1-1.5-.5-2.4 4.9-7.2 10.1-9 14.8-22.6 11-31.8-2-4.6-9.3-13.4-11.8-14.2-3.1-1-2.2-2 4.9-5.3 12.9-6.2 21-13.1 25.5-22.2 3.7-7.3 3.8-16.6.4-19.8-2.8-2.7-12.7-3.3-12.7-.8 0 .8-.7 1.2-1.7 1-2-.5-7.3 3.9-7.3 6 0 2.3 4.5 5.6 7.7 5.6 3 0 8.3-3.8 8.3-6 0-.5.7-1 1.5-1 2.1 0 1.9 2.6-.4 4.2-1 .7-2.2 2.9-2.6 4.8-.9 4.3-8.2 14.8-13.1 18.8-3.9 3.2-14 7.6-15.5 6.6-1-.6-1.2-16.8-.3-23.7.5-3.7 1.1-4.7 2.8-4.9 1.6-.2 2.2-1.1 2.4-3.5.4-3.8 3.4-6.5 13-11.3 3.5-1.8 8-5 10-7.1 3.1-3.3 4.3-3.9 7.8-3.9 3.6 0 4.7-.6 7.8-4 2-2.2 3.6-5 3.6-6.3 0-1.3 1.3-3.6 2.9-5.1 1.6-1.5 3.7-4.5 4.7-6.7 1.3-3 2.1-3.8 3.3-3.2 3.2 1.5 15.3 1.5 19 0 2-.8 7.2-2.9 11.6-4.7 4.4-1.8 9.5-3.4 11.3-3.5 5.9-.5 10.5-1.6 12.5-3 1.3-.9 2.7-1.1 4.1-.5 2.5.9 10.9.5 12.7-.6.7-.4 4.2-.7 7.8-.6 3.5.1 7.9-.3 9.8-1 3-1.1 3.5-1 6 1.4 5.4 5.2 15.4 6.6 18.8 2.8 1.6-1.7 2.6-2 6.2-1.4 3.6.5 4.8.3 6.6-1.4 2.9-2.7 8.8-2.9 14.9-.5 4 1.5 5.3 1.6 7.9.6 2.8-1.1 3.5-1 5.7.7 3 2.4 3.6 2.5 5.6.4 2.8-2.8 2.2-5.8-3.5-16.5-4.7-8.8-18.4-23.9-21.8-23.9-1.1 0-3.4-2.3-5.8-6-5-7.6-17.2-17-22.1-17-2.5 0-3.5-.5-4.1-2.4-.9-2.2-7.2-5.6-10.6-5.6-.8 0-3.1-1.4-5-3.2-3.4-2.9-4.3-3.2-14.7-4-6.2-.5-11.6-1.2-12.2-1.7-.6-.4-2.3-1.1-3.9-1.5-2-.5-2.9-.2-3.4 1-.5 1.5-.8 1.5-1.7.2-1.6-2.1-11.2-5-17.8-5.4-9.3-.6-17.2 3.9-19.5 11-.5 1.8-.5 5.7 0 9.9 1.1 8.5.1 12.4-5.4 21.8-2.6 4.3-5.2 7.3-7.3 8.4l-3.4 1.9-2.8-3.3c-3.7-4.4-5.2-5.9-7.2-7-1.5-.8-1.5-1.4.1-8.3 1-4 1.7-7.8 1.7-8.4 0-1.3-6.3-3.4-8.7-2.9-1 .2-4 .6-6.7.9l-4.8.6 2.7-3.6c3.3-4.3 2.4-5.9-2.3-4.3-2.8.9-4.1.8-8.3-1.1-3.5-1.4-6-1.9-8-1.5-2.2.5-3.6.2-5-1.1-1.9-1.7-2.1-1.7-4.8-.1-4.4 2.6-5.8 2.1-11-3.2-3.6-3.7-5.1-4.7-6-3.8-.6.6-1.1 1.6-1.1 2.2 0 1.6-3.7 4.8-4.7 4.2-.5-.3-2.2.3-3.9 1.4-1.6 1-4.2 1.9-5.7 1.9-4.1 0-6.7 1.7-6.7 4.4 0 2-.6 2.4-4.2 2.9-2.3.3-5.5.3-7 0-3.9-.8-7.1 2.1-6.4 5.6.3 1.4 0 5-.7 8-1.2 5.3-1.2 5.3-5.1 5.6-6.9.4-10.7 7.1-7 12.3 2.7 3.8.4 4-2.8.2-7.1-8.3-9.5-17.3-6.3-23.4 2.8-5.3 1.3-15.9-3-20.6-1-1.1-2.3-3-2.9-4.2-.8-1.4-3.7-3-9.6-4.9-4.7-1.6-8.5-2.8-8.5-2.9-.1 0-.7.6-1.5 1.4zm8.5 5.1c2.8 1.4 5.6 2.5 6.3 2.5 1.7 0 1.5 2.7-.2 3.3-.8.3-2.4-.5-3.5-1.7-1.8-1.9-3-2.3-6.3-2-2.3.2-4.6.8-5.2 1.4-1.6 1.6-2.3 1.2-2.2-1.3.1-1.3 1.1-2.7 2.6-3.4 3.3-1.5 2.8-1.6 8.5 1.2zM358 55.9c0 1.2-5.6 3.1-8.9 3.1-2.5-.1-2.5-.2.9-1.9 3.8-2 8-2.6 8-1.2zM158.2 62c-.9 2.2-2.1 4-2.6 4-.4 0-.5-.8-.1-1.8.4-.9 1-2.7 1.2-4 .3-1.2 1.1-2.2 1.8-2.2 1.1 0 1 .9-.3 4zm-20.8 1c-.6.6-2.1 1.3-3.4 1.5-1.3.2-2.8.9-3.4 1.5-.5.5-1.9 1-3 .9-1.4 0-.3-.9 2.9-2.4 5.4-2.5 8.6-3.2 6.9-1.5zm269.7 1.6c1.4 1.7.8 1.7-4.4.2-3.1-.9-3.5-1.3-2.1-1.8 2.4-.9 5-.2 6.5 1.6zm-239.8 3.1c-.7.2-2.1.2-3 0-1-.3-.4-.5 1.2-.5 1.7 0 2.4.2 1.8.5zM140 69.4c0 .3-.4.8-1 1.1-.5.3-1 .1-1-.4 0-.6.5-1.1 1-1.1.6 0 1 .2 1 .4zm264.6 2.3c-.7.7-2.6-.7-2.6-1.9 0-.6.6-.6 1.5.2.9.7 1.3 1.5 1.1 1.7zM183 70.4c0 .3-.4.8-1 1.1-.5.3-1 .1-1-.4 0-.6.5-1.1 1-1.1.6 0 1 .2 1 .4zm83 .5c0 1.5-1.6 2.2-3.4 1.5-2.5-.9-1.9-2.4.9-2.4 1.4 0 2.5.4 2.5.9zm14.7-.3c-.3.3-1.2.4-1.9.1-.8-.3-.5-.6.6-.6 1.1-.1 1.7.2 1.3.5zM187 73.8c0 1.5-.2 1.5-1 .2-1.3-2-1.3-3.3 0-2.5.6.3 1 1.4 1 2.3zm-41.5.2c-.3.5-1.1 1-1.6 1-.6 0-.7-.5-.4-1 .3-.6 1.1-1 1.6-1 .6 0 .7.4.4 1zm22.2-.4c-.3.3-1.2.4-1.9.1-.8-.3-.5-.6.6-.6 1.1-.1 1.7.2 1.3.5zM142 76.4c0 .2-.7.7-1.6 1-.8.3-1.2.2-.9-.4.6-1 2.5-1.4 2.5-.6zm44.1 1.9c-1.3 1.3-2.6.3-1.6-1.2.3-.6 1.1-.8 1.7-.5.6.4.6 1-.1 1.7zm106.3.2c-.4.8-1.2 1.5-2 1.5-1.7 0-1.8-1.7-.1-2.3 2.2-.9 2.7-.7 2.1.8zm144.1 1.6c1.1 1.7-.1 2.1-1.5.4-.8-.9-.8-1.5-.2-1.5.6 0 1.4.5 1.7 1.1zm-24 .9c.3.5.1 1-.4 1-.6 0-1.1-.5-1.1-1 0-.6.2-1 .4-1 .3 0 .8.4 1.1 1zm7.1 3.5c1.4 1.1 1.5 1.4.4 1.4-.8 0-2.4-.6-3.4-1.4-1.5-1.1-1.6-1.5-.5-1.5.8 0 2.4.7 3.5 1.5zm22.2 1.4c.3 1.6-.1 2.2-1 1.9-.7-.3-1.5-1.5-1.6-2.7-.3-1.6.1-2.2 1-1.9.7.3 1.5 1.5 1.6 2.7zM85.5 85c.3.5.2 1-.3 1s-1.4 1.2-2.1 2.7c-1.2 2.5-1.4 2.6-2.3 1-1.5-2.8 3-7.4 4.7-4.7zm346 3c.3.5.1 1-.4 1-.6 0-1.1-.5-1.1-1 0-.6.2-1 .4-1 .3 0 .8.4 1.1 1zm17.9 2.5c1.8 2.7 1.5 3-1.5 1.5-1-.6-1.9-1.7-1.9-2.5 0-2.3 1.6-1.8 3.4 1zm-176.9.5c.3.5.1 1-.4 1-.6 0-1.1-.5-1.1-1 0-.6.2-1 .4-1 .3 0 .8.4 1.1 1zM79 92.9c0 1.7-1.2 4.1-2.1 4.1-1 0-1.2-3.3-.2-4.3.9-1 2.3-.9 2.3.2zM380 94c0 .5-.2 1-.4 1-.3 0-.8-.5-1.1-1-.3-.6-.1-1 .4-1 .6 0 1.1.4 1.1 1zm55.7 1.2c-.3.8-.6.5-.6-.6-.1-1.1.2-1.7.5-1.3.3.3.4 1.2.1 1.9zm-172.7.9c0 .5-.4.9-1 .9-.5 0-1-.7-1-1.6 0-.8.5-1.2 1-.9.6.3 1 1 1 1.6zM124 96c0 .5-.4 1-1 1-.5 0-1-.5-1-1 0-.6.5-1 1-1 .6 0 1 .4 1 1zm166.7 1.6c-.9.9-2.8-.6-2.1-1.8.4-.6 1-.6 1.7.1.6.6.8 1.3.4 1.7zM134 97.4c0 .3-.4.8-1 1.1-.5.3-1 .1-1-.4 0-.6.5-1.1 1-1.1.6 0 1 .2 1 .4zM249.3 99c-.3 1.1-.7 2-.9 2-.2 0-.4-.9-.4-2s.4-2 .9-2 .7.9.4 2zm154.7 1.6c2.6 4.1 2.1 5.5-.9 2.5-1.2-1.2-3-2.1-4-2.1-2.7 0-3.5-1.7-1.4-2.9 2.9-1.7 4-1.3 6.3 2.5zm35-2.3c0 .7-.9 2-2 3-2.2 1.8-2.6.7-1-2.4 1.2-2.2 3-2.6 3-.6zm-353 .1c0 .2-.8 1-1.7 1.7-1.6 1.3-1.7 1.2-.4-.4 1.3-1.6 2.1-2.1 2.1-1.3zm226 1.1c1 1.2 1 1.5-.3 1.5-.8 0-1.7-.7-2.1-1.5-.3-.8-.2-1.5.3-1.5s1.4.7 2.1 1.5zm-136 .5c0 .5-.2 1-.4 1-.3 0-.8-.5-1.1-1-.3-.6-.1-1 .4-1 .6 0 1.1.4 1.1 1zm69.5 0c.3.5.1 1-.4 1-.6 0-1.1-.5-1.1-1 0-.6.2-1 .4-1 .3 0 .8.4 1.1 1zm17.5 1.5c0 .8-.4 1.5-.9 1.5-1.3 0-2.2-1.6-1.4-2.4 1.1-1.1 2.3-.6 2.3.9zm-59.6 1c-.4.8-.8 1.5-1 1.5-.2 0-.4-.7-.4-1.5s.4-1.5 1-1.5c.5 0 .7.7.4 1.5zM80 104.4c0 .3-.4.8-1 1.1-.5.3-1 .1-1-.4 0-.6.5-1.1 1-1.1.6 0 1 .2 1 .4zm37 .6c0 .5-.5 1-1.1 1-.5 0-.7-.5-.4-1 .3-.6.8-1 1.1-1 .2 0 .4.4.4 1zm79.6 8.5c.5 1.2 1.9 2 3.4 2 2.8 0 3.8 2.6 1.7 4.4-1.1.9-1.7.8-2.7-.4-.7-.8-1.8-1.5-2.4-1.5-.6 0-2.2-1.8-3.6-4-1.3-2.2-3-4.2-3.7-4.4-.7-.3-1.3-1.5-1.3-2.7 0-2 .3-1.9 3.8 1.2 2.1 1.9 4.3 4.3 4.8 5.4zm15.4-6.9c0 .8-.5 1.2-1 .9-.6-.4-.8-1.1-.5-1.6.9-1.4 1.5-1.1 1.5.7zm219 .5c0 .4-.7.6-1.5.3-.8-.4-1.5-1-1.5-1.5 0-.4.7-.6 1.5-.3.8.4 1.5 1 1.5 1.5zm41.7 6.8c1.4 2.5 3.2 5 4 5.4.7.5 1.1 1.3.7 1.8-.3.6-1.2.3-2-.8-.7-1-1.4-1.4-1.4-.9 0 .5-.6.3-1.4-.4-.8-.6-1.2-1.8-.9-2.6.3-.8-.1-1.4-1.1-1.4-.9 0-1.6-.5-1.6-1.1 0-.5-.5-.7-1.2-.3-.7.4-.8.3-.4-.4s0-2.2-.8-3.4c-.9-1.2-1.6-2.9-1.6-3.7 0-2.2 4.5 2.4 7.7 7.8zM69 106.4c0 .2-.8 1-1.7 1.7-1.6 1.3-1.7 1.2-.4-.4 1.3-1.6 2.1-2.1 2.1-1.3zm223.9 2.3c0 2.5-.1 2.5-.8.8-.5-1.1-.7-2.3-.4-2.8.8-1.4 1.3-.7 1.2 2zM76 107.9c0 .6-.4 1.3-1 1.6-.5.3-1-.1-1-.9 0-.9.5-1.6 1-1.6.6 0 1 .4 1 .9zm222.4-.3c2.2.8 2 1.9-.4 2.1-1.1.1-2-.4-2-1.3 0-1.6.2-1.6 2.4-.8zm110.6.4c0 .5-.2 1-.4 1-.3 0-.8-.5-1.1-1-.3-.6-.1-1 .4-1 .6 0 1.1.4 1.1 1zm-30 1c0 .5-.5 1-1.1 1-.5 0-.7-.5-.4-1 .3-.6.8-1 1.1-1 .2 0 .4.4.4 1zm-171.7 3.3c-.3.5-1 .4-1.5-.1-.6-.6-.7-1.6-.3-2.2.6-.9.9-.9 1.6.1.4.7.5 1.7.2 2.2zm56.2-2.3c-.3.5-1 1-1.6 1-.5 0-.9-.5-.9-1 0-.6.7-1 1.6-1 .8 0 1.2.4.9 1zm16 0c.3.5.1 1-.4 1-.6 0-1.1-.5-1.1-1 0-.6.2-1 .4-1 .3 0 .8.4 1.1 1zm175.5-.6c0 .2-.6 1.5-1.3 2.9-1.1 2-1.7 2.3-2.5 1.5-.7-.7-1.2-.9-1.2-.5s-1.5 0-3.2-.9c-3-1.6-3.1-1.8-1.3-2.5 2.1-.8 9.5-1.2 9.5-.5zm-388 2.5c0 .6-.4 1.3-1 1.6-.5.3-1-.1-1-.9 0-.9.5-1.6 1-1.6.6 0 1 .4 1 .9zm19.1.8c.8 1 .9 1.4.2 1-.6-.4-1.4-.3-1.8.3-.8 1.3-2.5.3-2.5-1.6 0-1.9 2.4-1.8 4.1.3zm162-.7c.5 0 .9.4.9 1 0 1.2-4.7 1.3-5.4.1-.8-1.2.6-2.2 2.2-1.6.7.3 1.8.5 2.3.5zm144.4 1c-.3.5-1.3.6-2.1.3-1.2-.4-1.3-.8-.3-1.4 1.5-.9 3.2-.2 2.4 1.1zm-300.4.3c-.1 1.2-1.5.9-1.9-.4-.3-.6.1-1 .8-.8.6.3 1.1.8 1.1 1.2zM465 113c0 .5-.2 1-.4 1-.3 0-.8-.5-1.1-1-.3-.6-.1-1 .4-1 .6 0 1.1.4 1.1 1zm-334 .4c0 .2-.7.6-1.5 1-.8.3-1.5.1-1.5-.4 0-.6.7-1 1.5-1s1.5.2 1.5.4zm148.8 1.2c-.2.9-1.3 2.3-2.5 3.2-2.1 1.3-2.3 1.3-2.3-.1 0-1 .6-1.4 1.5-1.1 1 .4 1.5 0 1.5-1.5 0-1.2.5-2.1 1.1-2.1.6 0 .9.7.7 1.6zm59.2-.6c0 .5-.4 1-1 1-.5 0-1-.5-1-1 0-.6.5-1 1-1 .6 0 1 .4 1 1zm-44.3 3c.1 1.1-.4 2-1.3 2-.8 0-1.4-.9-1.4-2s.6-2 1.3-2c.7 0 1.3.9 1.4 2zm-211.4 1.5c-.7 2.1-1.3 1.9-1.3-.6 0-1.1.4-1.8 1-1.4.5.3.7 1.2.3 2zm217.5-.7c.2.7-.3 1.2-1.2 1.2-.9 0-1.6-.7-1.6-1.6 0-1.7 2.2-1.4 2.8.4zm165.2.7c1.9 1.4 3.1 2.5 2.8 2.5-1.3 0-6.8-3.3-6.8-4.1 0-1.3.2-1.2 4 1.6zm-229.5 2.9c2.5 2 4.5 4.1 4.5 4.6 0 .4-1.6.8-3.5.7-2.7-.1-3.2-.4-2.3-1.4.8-1 .6-1.8-.7-3.3-1-1.1-2.4-2-3-2-.7 0-1.5-.6-1.8-1.4-.9-2.4 2.1-1.2 6.8 2.8zM387 118c0 .5-.4 1-1 1-.5 0-1-.5-1-1 0-.6.5-1 1-1 .6 0 1 .4 1 1zm73 2.7c2.8 3.6.7 4.3-2.5.8-2.9-3-3-3.5-1.1-3.5.8 0 2.4 1.2 3.6 2.7zm-162 .3c0 .5-.2 1-.4 1-.3 0-.8-.5-1.1-1-.3-.6-.1-1 .4-1 .6 0 1.1.4 1.1 1zm14 .5c1.4 1.6 1 1.8-1.4.9-.9-.3-1.6-1-1.6-1.5 0-1.4 1.6-1.1 3 .6zm88.2 1.7c-.9.9-1.2.7-1.2-1.2s.3-2.1 1.2-1.2c.9.9.9 1.5 0 2.4zm-153.6.3c-1 .8-2.3 1.2-2.8.9-.6-.4.1-1.2 1.4-1.8 2.9-1.6 3.9-.9 1.4.9zm-107.3-.8c-.7.2-2.1.2-3 0-1-.3-.4-.5 1.2-.5 1.7 0 2.4.2 1.8.5zm73.7.3c0 .5-.7.7-1.5.4-.8-.4-1.5-.8-1.5-1 0-.2.7-.4 1.5-.4s1.5.4 1.5 1zm119.9 1.6c-1 1.2-1.4 1.2-2 .2-.4-.7-.3-1.6.4-2 1.8-1.1 2.9.2 1.6 1.8zm4.4 1.7c-.9 1.6-2.6-1.2-1.8-3 .7-1.7.8-1.7 1.5.2.4 1.1.5 2.4.3 2.8zM390 123c0 .5-.7 1-1.5 1s-1.5-.5-1.5-1c0-.6.7-1 1.5-1s1.5.4 1.5 1zm35.1 1.6c.7.8.9 1.7.6 2-.6.6-5.6-2.7-5.7-3.8 0-1 3.9.3 5.1 1.8zm12.7-1.4c.7.7 1.2 1.6 1.2 2 0 1.5-1.5.8-2.8-1.2-1.3-2.2-.3-2.7 1.6-.8zm-380 3.3c1.5 3.3 1.5 3.5-.3 3.5-.8 0-1.5-.6-1.5-1.4 0-.8-.3-2.1-.6-3-1-2.7 1.2-1.8 2.4.9zm376.9.5c.6 1.3 1 2.6.7 2.9-.6.6-5.4-4-5.4-5.1 0-1.9 3.5-.2 4.7 2.2zm34.1-1.3c.6 1.9-4.5 1.6-5.2-.3-.5-1.2 0-1.5 2.1-1.2 1.4.2 2.8.9 3.1 1.5zM280 128c0 1.9-2.8 1-3.3-1-.4-1.7-.2-1.8 1.4-.9 1 .5 1.9 1.4 1.9 1.9zm127.4-1.5c.4 1.1-.2 1.5-2.1 1.5-2.1 0-2.4-.2-1.3-1.5.7-.8 1.6-1.5 2-1.5.4 0 1 .7 1.4 1.5zm35.6.1c0 1.7-2.2 1.4-2.8-.4-.2-.7.3-1.2 1.2-1.2.9 0 1.6.7 1.6 1.6zm-244 .3c0 1.2-2 2.5-2.7 1.8-.7-.7.6-2.7 1.8-2.7.5 0 .9.4.9.9zm249 .1c0 .5-.6 1-1.4 1-.8 0-1.8-.5-2.1-1-.3-.6.3-1 1.4-1 1.2 0 2.1.4 2.1 1zm-54 2.6c0 2-5.4 1.8-7.3-.4-1.5-1.6-1.3-1.7 2.9-1.4 2.9.3 4.4.9 4.4 1.8zm61.8.3c-.5 2.4-3.8 2.7-3.8.3 0-1 .3-2.1.6-2.5 1.1-1.1 3.5.5 3.2 2.2zm-383.1 1.5c-.4.9-1.1 1.6-1.7 1.6-1.1 0-1.4-3.3-.3-4.3 1.1-1.1 2.6 1 2 2.7zm242.8-2.3c1.1 1.7-.1 2.1-1.5.4-.8-.9-.8-1.5-.2-1.5.6 0 1.4.5 1.7 1.1zm81.5.5c0 .8-.5 1.2-1 .9-.6-.4-.8-1.1-.5-1.6.9-1.4 1.5-1.1 1.5.7zm-105 3c0 .8-.4 1.4-1 1.4-.5 0-1-.4-1-.9s-.3-1.8-.7-2.8c-.6-1.6-.5-1.6 1-.4.9.7 1.7 2 1.7 2.7zm115.6 1.1c-1 1-1.9-.5-1-1.8.6-1.1.8-1.1 1.2 0 .2.7.1 1.5-.2 1.8zm4.4-1.7c0 .5-.4 1-1 1-.5 0-1-.5-1-1 0-.6.5-1 1-1 .6 0 1 .4 1 1zm35 2.1c0 .3-1.3.6-3 .7-2.7.1-4-1.5-2.5-3 .7-.6 5.5 1.4 5.5 2.3zm-224.4 1.5c.9 2.8.9 3.4-.2 3-.7-.3-1.7 0-2.1.7-.5.8-.9.3-1.3-1.3-.6-2.3.7-6 2-6 .3 0 1 1.6 1.6 3.6zM298 133c0 .5-.5 1-1.1 1-.5 0-.7-.5-.4-1 .3-.6.8-1 1.1-1 .2 0 .4.4.4 1zm44 3.2c0 1.3-2.4.9-4.8-.8-1.2-.8-2-1.9-1.7-2.4.6-1 6.5 2 6.5 3.2zm10.3 1.7c-.9 1.1-3.3-2.7-2.7-4.3.6-1.6.9-1.4 1.9 1 .7 1.6 1 3.1.8 3.3zm119.1-5c.9 1.4-4.2 2.3-6.4 1.1-1.1-.6-2-1.3-2-1.5 0-.9 7.9-.5 8.4.4zm-404.5 2.7c-1.4 1.8-2.4 1.1-1.5-1.1.3-.9 1.1-1.3 1.6-1 .8.5.7 1.1-.1 2.1zm134.7 1c-.5 1.3-1 1.4-1.8.6-.6-.6-.8-1.8-.4-2.8.5-1.3 1-1.4 1.8-.6.6.6.8 1.8.4 2.8zM58 135.5c-.7.9-1.5 1.3-1.7 1.1-.7-.7.7-2.6 1.9-2.6.6 0 .6.6-.2 1.5zm23.7 1.1c-1.5 1.4-3.3 2.4-3.9 2.2-.6-.2.4-1.4 2.3-2.6 4.5-2.9 5-2.8 1.6.4zm293.6-1.9c-.7.2-1.9.2-2.5 0-.7-.3-.2-.5 1.2-.5s1.9.2 1.3.5zm-12.8 1.2c.9 1.6-1.5 2.4-3 1.1-1.2-1-1.5-.9-1.5.4 0 1-.4 1.5-1 1.1-.5-.3-.7-1.2-.3-2 .6-1.6 4.8-2 5.8-.6zm70.3 1.5c.4 1.6 0 1.8-2.9 1.2-4-.8-4.8-1.4-2.9-2.7 2.3-1.4 5.4-.6 5.8 1.5zm-158.3.6c.3.6-.1 1.3-1 1.6-1.9.8-3 0-2-1.5.8-1.4 2.2-1.4 3-.1zm-42 1c-.3.5-1 1-1.6 1-.5 0-.9-.5-.9-1 0-.6.7-1 1.6-1 .8 0 1.2.4.9 1zM76 140c0 .5-.5 1-1.1 1-.5 0-.7-.5-.4-1 .3-.6.8-1 1.1-1 .2 0 .4.4.4 1zm109.3 3.5c-.7 1.9-1.2 1.9-3.5-.2-3-2.7-2.3-4.4 1.2-2.7 1.8 1 2.7 2 2.3 2.9zM208 140c0 .5-.5 1-1.1 1-.5 0-.7-.5-.4-1 .3-.6.8-1 1.1-1 .2 0 .4.4.4 1zm61 0c0 .5-.2 1-.4 1-.3 0-.8-.5-1.1-1-.3-.6-.1-1 .4-1 .6 0 1.1.4 1.1 1zm-215.8 4.8c-.3 3.5-.9 4.5-3.4 5.8-3.9 2-4.8 1-1.7-1.8 1.4-1.3 3.1-3.8 3.8-5.6 1.7-4.1 1.9-3.8 1.3 1.6zm184.3-3.7c1.1 1.7-.1 2.1-1.5.4-.8-.9-.8-1.5-.2-1.5.6 0 1.4.5 1.7 1.1zm80.6 4.2c-.8.8-1.1.4-1.1-1.4 0-3.3 1.4-4.7 1.8-1.9.2 1.2-.1 2.7-.7 3.3zM58 142.4c0 .8-.4 1.8-1 2.1-.5.3-1-.3-1-1.4 0-1.2.5-2.1 1-2.1.6 0 1 .6 1 1.4zm191.5.6c.3.5.1 1-.4 1-.6 0-1.1-.5-1.1-1 0-.6.2-1 .4-1 .3 0 .8.4 1.1 1zm22.8.7c-.7.2-1.9.2-2.5 0-.7-.3-.2-.5 1.2-.5s1.9.2 1.3.5zM226 146c0 1.3-2.8 2.5-3.8 1.6-.3-.4 0-1.1.8-1.6 2-1.3 3-1.2 3 0zm57-.6c0 .3-.4.8-1 1.1-.5.3-1 .1-1-.4 0-.6.5-1.1 1-1.1.6 0 1 .2 1 .4zm-46 1.6c0 .5-.4 1-1 1-.5 0-1-.5-1-1 0-.6.5-1 1-1 .6 0 1 .4 1 1zm3 1c0 .5-.4 1-1 1-.5 0-1-.5-1-1 0-.6.5-1 1-1 .6 0 1 .4 1 1zm38 1.9c0 .5-1.1 1.1-2.5 1.3-2.6.5-3.5-.6-1.2-1.5 2-.9 3.7-.8 3.7.2zm6.7 1.7c-.3.3-1.2.4-1.9.1-.8-.3-.5-.6.6-.6 1.1-.1 1.7.2 1.3.5zm-62.7 3.6c0 .5-.7.8-1.5.8-1.5 0-2-2.1-.8-3.3.7-.7 2.3 1.1 2.3 2.5zm14.6.5c-1.1 1.1-1.9-.6-1.1-2.4.8-1.7.8-1.7 1.2 0 .3 1 .2 2.1-.1 2.4zM271 154c0 .5-.4 1-1 1-.5 0-1-.5-1-1 0-.6.5-1 1-1 .6 0 1 .4 1 1zm7 1c0 .5-.4 1-1 1-.5 0-1-.5-1-1 0-.6.5-1 1-1 .6 0 1 .4 1 1zm10.6 6.7c-1.1 1.1-1.9-.6-1.1-2.4.8-1.7.8-1.7 1.2 0 .3 1 .2 2.1-.1 2.4zm-2.8 1.5c-.2 1.3-.7 2.3-1.3 2.3-.5 0-1.1-1-1.3-2.3-.2-1.5.2-2.2 1.3-2.2s1.5.7 1.3 2.2zm-8.8-.2c0 .5-.5 1-1.1 1-.5 0-.7-.5-.4-1 .3-.6.8-1 1.1-1 .2 0 .4.4.4 1zm-52.7.6c.3.3.3 1.2 0 2-.4 1.1-.9 1.2-1.9.3-.8-.6-1.1-1.5-.8-2 .6-1 1.8-1.2 2.7-.3zm79.1 7.1c-2.5 1.8-6.4 1.7-6.4-.3 0-1 .6-1.4 1.4-1.1.8.3 2.5-.5 3.8-1.8 2.3-2.4 2.3-2.4 2.6-.3.2 1.3-.4 2.7-1.4 3.5zm4.6-4.7c0 .5-.5 1-1.1 1-.5 0-.7-.5-.4-1 .3-.6.8-1 1.1-1 .2 0 .4.4.4 1zm-38 1c0 .5-.5 1-1.1 1-.5 0-.7-.5-.4-1 .3-.6.8-1 1.1-1 .2 0 .4.4.4 1zm-28 3c0 .5-.5 1-1.1 1-.5 0-.7-.5-.4-1 .3-.6.8-1 1.1-1 .2 0 .4.4.4 1zm7.2 2.2c-.7.7-1.2.8-1.2.2 0-1.4 1.2-2.6 1.9-1.9.2.3-.1 1.1-.7 1.7zm27.8 0c0 1.6-.3 1.9-1.1 1.1-.6-.6-.8-1.6-.5-2.2 1.1-1.7 1.6-1.3 1.6 1.1zm-7 1.2c0 .7-.9 1.6-2.1 1.9-1.2.3-1.8 1-1.5 1.6.4.5.2 1.2-.4 1.6-1.8 1.1-1.1-3.7.8-5.1 2.2-1.7 3.2-1.7 3.2 0zm-13 4.1c0 .8-.4 1.5-1 1.5-.5 0-1-.7-1-1.5s.5-1.5 1-1.5c.6 0 1 .7 1 1.5zm3 15.5c0 .5-.4 1-1 1-.5 0-1-.5-1-1 0-.6.5-1 1-1 .6 0 1 .4 1 1zm-32 6.3c0 .6-.9.2-2-.8s-1.7-2.2-1.3-2.8c.6-1 3.3 1.9 3.3 3.6zm33 .2c0 .8-.2 1.5-.4 1.5s-.6-.7-1-1.5c-.3-.8-.1-1.5.4-1.5.6 0 1 .7 1 1.5zm114 .5c1.2.8.9 1-1.2 1-1.6 0-2.8-.5-2.8-1 0-1.3 2-1.3 4 0zm-113 3c0 .5-.4 1-1 1-.5 0-1-.5-1-1 0-.6.5-1 1-1 .6 0 1 .4 1 1zm113.4 9.6c2.5 2.4 1.9 3.8-.9 2-1.3-.9-3.1-1.6-4-1.6-.9 0-1.3-.5-1-1 .9-1.5 4.2-1.2 5.9.6zM394 218c0 .5-.2 1-.4 1-.3 0-.8-.5-1.1-1-.3-.6-.1-1 .4-1 .6 0 1.1.4 1.1 1zm9.3 5.7c-4.8 1.6-7.1 1-5.2-1.3 2.2-2.7 5.2-3.4 7.2-1.6 1.6 1.4 1.5 1.6-2 2.9zM134 225c0 1.5-3.8 3.2-4.5 2-.3-.5-.3-1.5 0-2 .8-1.3 4.5-1.3 4.5 0zm-10 1.4c0 .8-.5 1.8-1 2.1-1.7 1.1-4-.3-3.4-2 .8-1.9 4.4-2 4.4-.1zm221.6 2.1c1 .8 2.9 1.5 4 1.5 2.2 0 4.8 2.2 3.9 3.2-.3.3 1.7.5 4.5.4 4.4-.2 5 .1 5 1.8 0 1.1 1 3 2.2 4.3 1.7 1.8 3.2 2.3 7.4 2.3 3.9 0 5.3.4 5.8 1.6.6 1.5.8 1.5 2.6-.1 1.9-1.7 2-1.7 2 .2 0 1.1-.9 2.8-2 3.8s-2 2.4-2 3.2c0 1.8 3 1.6 5.2-.4 1.7-1.5 1.9-1.5 3.6 0 2.3 2.1 5.2 2.2 5.2.3 0-1 .7-1.2 2.3-.9 2.7.7 5.7 3.2 5.7 4.8 0 1.7 9.2 15.5 11.8 17.9 1.2 1.1 2.2 2.2 2.2 2.6 0 .6-7.8 5.8-15.9 10.8-3.2 1.9-3.6 1.9-6.8.4-3.1-1.5-3.4-1.5-5.5.5-1.7 1.5-3.2 1.9-5.5 1.6-3.7-.6-3.7-.6-2.3-3.1.5-.9 1.6-5.1 2.4-9.2.8-4.1 1.8-8.5 2.2-9.8.8-2.9-.9-2.9-4.9.2-2.9 2.2-16 7.6-18.5 7.6-.5 0-1.2-1.2-1.4-2.8-.3-1.5-.9-3.5-1.3-4.5-.5-1.3-.2-1.7 1.3-1.7 1.2 0 2.4-.5 2.8-1.1 1.1-1.8-1.5-3.4-5.1-3-3 .2-3.5 0-3.5-1.9 0-2-.4-2.2-3.5-1.6l-3.5.7v-8.5c0-4.7-.5-8.8-1-9.1-1.9-1.1-4.5-8-4.2-10.8.4-3 1.9-3.4 4.8-1.2zm-233.1 2.6c0 1.5-.7 2.5-1.7 2.7-1.3.3-1.8-.3-1.8-2.1 0-1.3.3-2.7.7-3.1 1.3-1.2 2.8.1 2.8 2.5zM361 230c0 .5-.4 1-1 1-.5 0-1-.5-1-1 0-.6.5-1 1-1 .6 0 1 .4 1 1zm-258.2 6.1c-.4 3.3-3.8 3.9-3.8.7 0-2.8 2-5.2 3.3-3.9.5.5.7 1.9.5 3.2zm24.5-1.3c.9.8 1.7 1.9 1.7 2.4 0 1.4-4.4.9-6.9-.9-2.3-1.5-2.3-1.7-.6-2.9 1.9-1.4 2.8-1.2 5.8 1.4zm10.1-.3c1.9 2.9 2 3.5.4 3.5-2.2-.1-6.1-3.7-5.4-4.9 1.2-1.8 3.3-1.3 5 1.4zm234.1-1.5c.3.5 1.8 1 3.3 1 1.7 0 2.3.3 1.6 1-1.2 1.2-6.6-.2-7.2-1.8-.4-1.4 1.4-1.6 2.3-.2zm-254.1 5.3c1.6 1.1 1.5 1.4-1.3 3.5L113 244l-.6-2.4c-1-4.3 1.4-5.9 5-3.3zm-27.2 2.8c-.3 2.7-3.1 6.1-4.3 5.3-1-.6-.1-5.3 1.4-7.2 1.5-1.9 3.2-.8 2.9 1.9zm313.3-2.1c.3.5-.3 1-1.4 1-1.1 0-2.3-.5-2.6-1-.3-.6.3-1 1.4-1 1.1 0 2.3.4 2.6 1zm-146.4 9c.5 27.5.1 35-1.6 35-.8 0-3.7-2.7-6.4-6-9.3-11.2-10.1-21.9-2.4-31 3.4-3.9 6.2-5.8 9.1-5.9.8-.1 1.2 2.2 1.3 7.9zm135.4-6c.3.5.1 1-.4 1-.6 0-1.1-.5-1.1-1 0-.6.2-1 .4-1 .3 0 .8.4 1.1 1zm-313.7 5.4c-.2 1.7-.7 3.1-1.3 3-1.4-.1-2.9-4.9-2.1-6.9 1.1-2.9 3.8.2 3.4 3.9zm29.3-3.4c2.1 1.7 2.2 2.1.9 3-.8.5-2.3 1-3.2 1-2.2 0-6.1-3.7-5.3-5 1-1.7 5.1-1.1 7.6 1zm160.6.9c5.9 5 7.4 10.9 5.1 20.9-1.2 5.1-6.8 13.5-8.2 12.2-.5-.5-1-21.8-.7-30.8.1-4.7.6-5 3.8-2.3zM139.2 248c.9 2.5-.4 7.8-2.8 11.7-1.2 1.9-1.2 3 .1 8 2.1 8 2 8.6-1.2 8-3.3-.6-5.3.1-5.3 1.9 0 .8-.4 1.4-.9 1.4s-2.2.5-3.7 1c-2.6 1-2.6 1.1-.8 3.1s2.8 8.6 1.4 9.4c-1.3.8-10.3-2.7-14.6-5.6-2.3-1.6-4.4-4-4.8-5.4-.4-1.4-1.3-2.5-2.1-2.5-2.4 0-1.8 4.5 1.1 7.9 2.3 2.8 2.5 3.7 2.3 10.8-.2 4.4.2 8.7.9 9.9.6 1.1 3.1 3.2 5.6 4.5 2.6 1.3 4.6 2.7 4.6 3.1 0 .9-8.3-2.8-20.1-9-5.3-2.8-11.7-5.3-14.3-5.7-5.1-.8-5.5-1.8-3-6.6.8-1.7 2.4-5.8 3.5-9.2 2.3-7.2 4.4-10.7 6.3-10.7.8 0 2.7-1 4.3-2.3 1.5-1.3 3.6-2.7 4.6-3 1.7-.7 1.6-1-1.3-4.3-1.7-2-2.9-3.9-2.6-4.2.4-.3 1.3.3 2.1 1.4 1.2 1.5 1.6 1.6 2.4.5.6-.9 1.8-1.1 4.1-.6 2.6.6 3.7.2 5.8-1.8 1.5-1.4 4.4-3.2 6.4-4 2-.9 4.1-2.5 4.7-3.6.7-1.1 2.8-3.2 4.9-4.6 4.8-3.3 11.1-3.1 12.4.5zm-69 3.2c-.9.9-1.2.7-1.2-1.2s.3-2.1 1.2-1.2c.9.9.9 1.5 0 2.4zm26.7-1.8c1.8 2.2-4.1 4.3-7.7 2.7-2.6-1.2-2.6-1.3-.7-2.7 2.4-1.8 6.9-1.8 8.4 0zm-32.9 3c0 1.4-.4 2.8-1 3.1-.6.4-1-.7-1-2.4s.5-3.1 1-3.1c.6 0 1 1.1 1 2.4zm47.2 1.8c-.7.7-1.2.8-1.2.2 0-1.4 1.2-2.6 1.9-1.9.2.3-.1 1.1-.7 1.7zm-26.5 1.1c1.7 3.6.1 5.3-3 3.2-1.4-.9-2.8-2.2-3-3-1.3-3.3 4.5-3.5 6-.2zM73 258.5c0 .8-.4 1.5-1 1.5-.5 0-1-.7-1-1.5s.5-1.5 1-1.5c.6 0 1 .7 1 1.5zm19 2.9c0 1.6-1.8 3.1-2.7 2.2-.8-.8.5-3.6 1.7-3.6.5 0 1 .6 1 1.4zm-26.7 1c.3 1.2-3 3.2-3.9 2.4-1.1-1.2.5-4 2.1-3.6.9.2 1.7.7 1.8 1.2zm12.3 2.3c-1.1 1.1-1.9-.6-1.1-2.4.8-1.7.8-1.7 1.2 0 .3 1 .2 2.1-.1 2.4zm347.2 11.5c.7.7 1.2 1.5 1.2 1.9 0 .4-4 2.7-9 5.1-6.3 3-9 4.8-9 6.1 0 2.5-7.6 10.4-13.8 14.4-5.4 3.5-7.8 3.5-6.9.2.6-2.3-1.2-3.7-2.4-1.8-.5.8-.9 2.6-.9 4 0 2.5-1.6 3.9-4.2 3.9-.6 0-.7-1.6-.3-4.3l.6-4.2-2.1 2.4c-1.1 1.3-2 2.9-2 3.6 0 .8-1.2 2.3-2.7 3.5-4.3 3.4-5 .9-1.4-4.9 3.4-5.6 3.6-6.1 2.1-6.1-.5 0-2.6 2.4-4.5 5.4-2.8 4.1-3.5 5.9-3 7.9.5 1.9 0 3.5-2 6.1-1.5 2-3.1 3.6-3.6 3.6-1.9 0-.8-4.8 1.3-6.2 1.7-1.2 2-1.9 1.2-2.9-.6-.8-1.2-3.9-1.2-7-.1-5 .2-6 3.3-9.7 1.9-2.2 3.5-4.5 3.5-5.1 0-.7 1.3-.2 3 1 2.3 1.8 4.4 2.3 9.2 2.3 7.7 0 14.2-2.9 29.8-13.3 5.8-3.9 11-7.1 11.6-7.1.5 0 1.5.5 2.2 1.2zm-56.8 7.7c0 .6-1 2.2-2.3 3.6-2.1 2.5-2.4 2.5-5 1.2l-2.8-1.5 3.8-2c4.2-2.3 6.3-2.7 6.3-1.3zm-9.7 10.1c-.3.8-.7 2.7-.7 4.2-.1 1.5-.4 2.4-.7 2-1-1.1-1.9-9.9-1.1-10.6 1.1-1.1 3.3 2.7 2.5 4.4zm58.1.3c1.4 2.1 2.6 4.4 2.6 5.1 0 .7.9 2.1 1.9 3 2.2 2 7.1 1.5 9.2-1 .6-.8 2.6-1.4 4.4-1.4 1.8 0 4.4-.9 5.8-2 1.4-1.1 2.8-2 3.1-2 .8 0 5.2 9 6 12.3.5 2.3.2 2.9-1.8 3.8-2 1-3 .8-5.4-1-1.7-1.1-3.6-2.1-4.4-2.1-.8 0-1.8-.4-2.3-.9-.6-.5-3.5-.5-7 0-4.9.6-6.3.5-7.7-.8-1.6-1.4-1.8-1.4-2.4.3-1 3.3-2 4.8-4.7 6.8-3.3 2.5-4.4 1.6-2.2-1.8 1-1.5 1.4-3.3 1-4.6-1-3-5-5.3-8-4.6-1.7.4-2.5.2-2.5-.6 0-1.2 11.1-13.1 11.6-12.5.2.1 1.4 1.9 2.8 4zM257.8 306c-.1 10.4-.8 11.5-3.5 5.3-2.1-5.1-.3-15.3 2.7-15.3.5 0 .8 4.5.8 10zm8.6-4.9c.9 3.8-.9 14.9-2.5 14.9-.5 0-.9-4.3-.9-9.6 0-7.2.3-9.5 1.3-9.2.6.3 1.6 2 2.1 3.9zm-177.9 5.6c3.3 1.6 10.7 5.3 16.4 8.3 10.9 5.6 16.9 7 22 5.2 3.6-1.3 3.1-1.9 14.4 16.9 8.7 14.6 20.2 40.9 21.1 48.8l.7 5.4-6-.7c-3.9-.4-6.8-.3-8.2.4-3.1 1.7-1.8 2.6 4.1 2.9 4.8.2 4.8 2.7.3 7.4-7.7 8-6.4 14.1 3.6 17.1 3.3 1 6.4 1.5 7 1.2 1.2-.8 4.3 2.2 3.6 3.4-.7 1.1-6.4.2-8.3-1.3-.8-.6-3.6-.6-8.5.2-9.5 1.5-25.6 1.9-25.9.6-.2-.6 3.8-1.1 9.7-1.3 5.5-.2 10.9-.9 12-1.5 1.6-1 .4-1.2-7-1.5-7-.2-9.3-.6-10.3-1.9-.6-1-3.6-2.3-6.5-3-6.9-1.8-10.1-4.2-10.5-8.1-.4-3.9 1.8-4.6 9.8-3.5 4.7.7 5.5 1.2 5.8 3.1.4 2.9 3.6 4.8 9 5.5 3.9.5 4.6.2 8.3-3.2 6.2-6 4.9-8.7-1.5-3-4.2 3.6-7.4 3.5-9.6-.3-1.3-2.5-1.3-2.9.1-4.4.9-.9 3.4-1.7 5.5-1.8 7-.3 7.9-2 3.9-7.2-1.6-2.1-4.1-3.8-6.6-4.5-2.6-.8-4.5-2.2-5.4-3.8-.7-1.4-2.2-3.5-3.4-4.5-1.2-1.1-2.1-2.8-2.1-3.9 0-1-2.9-5.7-6.6-10.4-3.6-4.6-8.1-11.5-10-15.1-2-3.7-5-8.2-6.7-10-7.2-7.4-24-12.3-34.3-10-2.7.6-3.3.4-3.7-1.4-.5-1.6-1.1-1.9-3.1-1.4-1.4.3-2.8.1-3.1-.4-.4-.6-1.5-.8-2.4-.5-1.5.4-1.7 0-1.3-2.5.3-2.5.9-3 3.1-3 1.4 0 4.6-.9 7-2 4.9-2.3 10.3-2.8 8.3-.8-1.9 1.9-1.4 2.7 2.3 3.4 1.9.3 5.6 2 8.2 3.6 4.6 3 4.8 3 6.2 1.1 1.5-2 1.6-2 7.8.1 5.9 1.9 6.4 1.9 8 .3 1.6-1.5 1.4-1.7-2.3-3.2-2.1-.8-6.1-2.7-8.8-4.2l-4.9-2.6-1.8 2.2c-1.8 2.3-3.3 1.4-2.3-1.3.3-.9.1-2.3-.5-3-1.9-2.2-10.1-2.9-14.8-1.3-3.3 1.1-4.4 1.1-5.8.1-1.2-.9-2.5-1-4.1-.4-1.3.5-2.4.7-2.4.3 0-1.4 4.4-5.3 5.9-5.3.9 0 3.4-.7 5.6-1.5 5.6-2.1 12-1.4 19 2.2zm145-.6c2.2.5 6.1.9 8.8.9 4 0 4.9.4 5.9 2.4 1.1 2.5.6 5.6-.9 5.6-.5 0-1.3-1-1.8-2.3-.7-1.5-1.9-2.2-4-2.4-1.6 0-5.4-.4-8.4-.9-4.9-.6-5.3-.6-4.9 1.2.3 1.6 1.3 1.9 7.1 1.9 6.5 0 9.8 1.7 4.5 2.3-3.1.4-3.5 1.1-1.5 3.1 1 1 .9 1.4-.6 2.2-1.3.8-1.5 1.4-.7 2.9 1.4 2.7 1.3 2.9-1.7 4.1-2.6 1-2.7 1.2-1 2.3.9.7 1.7 2.1 1.7 3 0 1.4-.7 1.7-3.2 1.4-4.1-.4-4.7 1.7-.8 3 1.7.6 3 1.8 3 2.8 0 1.1-.5 1.4-1.7.9-4.2-1.7-5.3-1.7-5.3 0 0 .9 1.3 2.2 3 2.8 1.8.7 3 1.9 3 2.9 0 1.5-.6 1.7-4.6 1.1-3.8-.5-4.6-.3-4.2.8.2.8 2.1 1.8 4.1 2.3 2.1.5 3.6 1.4 3.3 2-.2.6-1 .9-1.7.7-4.6-1.3-6.9-1.3-6.9.2 0 .8 1.1 1.8 2.5 2.1 1.6.4 2.5 1.3 2.5 2.6 0 1.1-.2 2-.4 2s-2.8-1.3-5.9-3c-5.9-3.1-5.2-3.1-19.7-.5-3.4.6-3.4.6-1.5-1 3.3-2.8 8.2-4.5 13.1-4.5 3.2 0 4.4-.4 4.2-1.3-.7-1.8-4.5-2.1-12.1-.7-3.8.7-7.1 1-7.4.7-1.3-1.3 6.2-3.8 11.7-3.8 4.4-.1 6-.5 6-1.5 0-2.2-8.3-2.3-15.8-.3-2.3.7-4.5.9-4.8.7-1.1-1.1 7.4-4.1 12-4.3 5.1-.2 7.2-1.8 3.8-3-2-.6-12.1.7-15.3 2-1.1.4-2.2-.3-3.3-1.9-.9-1.5-1.5-2.6-1.4-2.7.2 0 4.7-.2 10.2-.4 5.4-.2 10.3-.8 10.9-1.4 1.5-1.5-3.5-2.5-9.4-1.8-4.8.6-7.1-.4-4.7-2 .7-.4 4.9-.8 9.3-.8 6.4 0 8-.3 8-1.5 0-3.3-19.7-1.8-22.3 1.8-1.3 1.6-1.4 1.6-2.8-.3-2.8-3.8-.6-4.7 14.4-6.3 4-.4 7.3-1.2 7.5-1.7.4-1.7-10.5-1.7-16.6 0-5.2 1.5-8 1.5-6.5 0 .5-.6 15-3.3 19.7-3.7 1.9-.2 3.6-.9 3.9-1.6.5-1.7-6.3-1.6-17.1.4-6.7 1.2-9.1 1.4-10 .5-1.4-1.4 1-3.3 3.3-2.6.8.3 5.3 0 10-.7 4.7-.6 11-1.1 14-1.2 4.2-.1 5.5-.5 5.5-1.6s-1.4-1.6-5.4-1.8c-7.1-.4-25.6 1.5-28.2 2.9-2.6 1.3-3.8.3-1.8-1.5 1.5-1.4 12-4.3 17.9-5 5.3-.5 27 .5 31.5 1.5zM358 311c-1.2 4.1-1.9 5-3.9 5-1.7 0-4.1 1.8-4.1 3.1 0 .4 1.2.9 2.7 1.1 1.8.2 2.9 1 3.1 2.2.6 3-1.3 4.1-3.9 2.2-3.1-2.1-5.5-2-7.9.4-2.6 2.6-2.5 6.1.2 9.6 1.3 1.6 2.1 3.9 2 5.4-.2 1.6.5 3.3 2 4.6 4 3.7 5.7 3.7 9.1.2 1.8-1.8 4.8-4.1 6.7-5.2 6-3.2 6.3-5 1.9-10-3.2-3.6-3.1-5.6 0-5.6 1.1 0 2.5-1.4 3.5-3.4 1.9-4 6.5-7.1 11.9-7.9 3.6-.6 3.7-.5 3.7 2.4 0 1.8.4 2.8 1 2.4.6-.3 1-2.2 1-4.1 0-2.2.5-3.4 1.4-3.4 2 0 2.7 5.2.9 7.2-1.9 2.1-1 5.1 2.4 7.8 2.4 1.8 2.8 1.9 4.9.5 3-2 8.4-1 8.4 1.6s-3.4 4.3-5 2.4c-1.5-1.8-6-1.6-6.8.3-.6 1.7 1.5 3.2 4.6 3.2 2 0 2.2.4 1.6 2.2-.9 3.2-1 3.3-3.9 1.4-1.6-1-3.4-1.4-5-1-2.2.5-2.6.2-3.1-2.5-.7-3.2-4.5-7.1-7-7.1-1.7 0-6.4 6.2-6.4 8.4 0 1 .9 3 2.1 4.4l2 2.7-3.9 1.6c-4.8 2.1-5.9 4.5-3.4 7.8 3.1 4.2 4.9 4.8 8.2 2.9 2.9-1.7 3-1.6 5 1.3 4.1 5.7 9.8 3 8.6-4.1-.5-3.2-.3-4.1 1.3-4.9 1-.6 2.1-.7 2.5-.4.9.9-.4 7.5-2 9.8-1.6 2.3-1.8 7.1-.4 8 1.3.8 1.3 7.5 0 7.5-.6 0-2.2-.7-3.5-1.6-1.3-.9-2.9-1.3-3.5-.9-.5.3-1 .1-1-.6 0-1-.3-1-1.2-.1-1 1-1.5.6-2.4-2-1.3-4-2.7-4.5-5.3-1.9-1.7 1.7-1.9 2.8-1.4 7.3.6 5.1 1.8 7.2 3.5 6.2.5-.3.6-.9.3-1.4-.8-1.3.6-6.1 1.5-5.5.5.3.6 2.1.3 3.9-.5 2.9-.1 3.7 2.6 5.7 2.1 1.5 3.1 3 2.8 4.1-.4 1.2.6 2.6 2.6 4 4.2 2.9 5.6 4.8 5.7 7.5 0 2.8 1.7 3.8 3.6 2.2 1.1-.9 1.4-2.3 1-4.7-.4-2.7-.1-3.8 1.5-5.1 2-1.6 2-1.6 0-5.5-2.1-4.1-2-5.6.5-5.6 2.2 0 1.7-2.4-1.1-5-1.4-1.3-2.5-3.1-2.5-4 0-1 2.3-4.8 5.1-8.5 4.9-6.7 5.6-9.1 1.9-6.7-2.5 1.5-3 1.5-3-.1 0-.8 1.6-2.2 3.5-3.3 1.9-1 3.5-2.2 3.5-2.6 0-1.3 11.9-7.7 17.3-9.3 5-1.5 5.6-1.4 11.6.8 3.9 1.4 7.2 3.2 8.4 4.9l1.9 2.6-4.6 18.2c-2.5 10-4.6 19.6-4.6 21.3 0 1.8-1.7 6.7-3.7 10.9-2.8 5.7-5.2 8.9-9.2 12.3-2.9 2.5-5.9 4.4-6.5 4.2-.6-.2-1.4-2.2-1.8-4.5-.4-2.3-1-4.7-1.3-5.2-1.3-2.1-2.2.2-1.8 4.4.4 2.8.1 4.6-.7 5.1-1.9 1.2-3.1-.9-3.4-5.9-.2-2.6-.6-4.9-.9-5.2-1.5-1.5-2.7 1.2-2.7 5.7 0 3-.4 4.8-1 4.4-.5-.3-.9-3.1-.9-6.1.1-3.8-.4-6.1-1.5-7.2-1.4-1.4-1.6-1.4-2.2.2-.3.9-.4 4.3-.2 7.6.4 5.7-.3 7.8-1.6 4.5-.9-2.5-2.6-1.7-2.6 1.3 0 3.7-2.1 6.5-4.6 6-1.5-.3-1.9-1.1-1.7-3.8.2-1.9 0-4.6-.3-6-.5-2.4-.6-2.4-2-.6-.8 1.1-1.4 3.9-1.4 6.3 0 3.2-.5 4.5-1.9 5.3-2.7 1.4-5 .3-5.7-2.9-1.4-5.5-4.4-6.4-4.4-1.2 0 3.6-1.8 5.8-5.4 6.7l-2.8.7.3-5.4c.3-4.3.1-5.4-1.1-5.4-.9 0-1.7 1.5-2.2 4.4-.8 4.6-3.6 8.7-4.9 7.4-.5-.5-.2-2.6.6-4.8 2-5.5 1.9-7.7-.2-7.3-1 .2-2.4 2.2-3.3 4.5-2.3 6.2-4.6 8.3-9.2 8.3-4.8 0-5.6-1.6-3.4-7 .9-2.2 1.6-5.3 1.6-6.8.1-1.5.9-4.5 2-6.7s1.9-5 2-6.3c0-1.2.4-2.2.9-2.2 1.6 0 3.6 6.4 3.5 11.3-.1 5 1.3 5.8 3.1 1.9.5-1.2 1.7-2.2 2.6-2.2 2.6 0 3-4.9.9-9.8-2-4.4-3.3-4.9-11.2-4.3-3.2.2-9.1-2.6-8.3-3.9.4-.6 1.4-.5 2.5.2 2.4 1.5 4.4 0 3.4-2.5-1.1-2.9-5.2-2.1-6.9 1.3-2.1 4.1-3.5 3.8-3.5-.9 0-3.4.4-4.2 2.8-5.3 2-1 2.7-2.1 2.7-4.3 0-2.2.5-3 1.8-3 1.1 0 2.8-1.1 3.9-2.4 2.1-2.7 1.8-6.4-.7-9-1.1-1.2-1.1-1.7.2-3.7 2.8-4.4-.8-11.4-5.9-11.4-1.4 0-1.8-.8-1.8-3.5 0-2.4.5-3.5 1.5-3.5.8 0 1.5-.4 1.5-.9s-.7-1.4-1.5-2.1c-.8-.7-1.5-2-1.5-3 0-1.5-.7-1.7-4.5-1.2-5.2.5-5.8-.6-2.1-4.2 1.2-1.3 2.6-3.1 2.9-4 .4-.9 1.8-2.1 3.1-2.6 1.4-.5 3-1.8 3.6-2.9.6-1.2 1.6-1.8 2.5-1.5 2.4 1 6.5-2.3 6.5-5.1 0-2.2.4-2.4 2.3-2 1.5.4 2.8.1 3.6-.9 1.9-2.3 2.1-2 1.1 1.4zm-71.3 2.6c-.3.3-1.2.4-1.9.1-.8-.3-.5-.6.6-.6 1.1-.1 1.7.2 1.3.5zm154.8 1.4c4 4.5 6.8 23.2 3.2 21.6-.7-.3-3.1-1-5.4-1.7-2.4-.6-4.3-1.7-4.3-2.3 0-1.9 2.3-4.4 4.5-4.8 1.3-.2 2.1-1.2 2.3-3.1.3-2.1-.2-2.9-2.2-3.7-2.1-.8-2.6-1.6-2.6-4.5 0-4 1.7-4.6 4.5-1.5zm-20.1-.2c.8 1.4-.8 3-3.9 3.8l-3 .7 2.4-2.7c2.5-2.7 3.6-3.2 4.5-1.8zm-167.2 5.9c2.2 2 2.3 5.4.2 9.5-3.1 6-1.9 16.4 3.1 25.8 2.7 5.1 7.4 3 11.2-5.3 4.4-9.2 3.9-17.2-1.4-22.9-2.7-2.8-2.7-5.5-.1-7.2 2.2-1.4 5.4 1.5 6.4 5.8.3 1.7 2.6 6.9 5 11.6 2.5 4.7 5.4 12.4 6.6 17.2 2 8.3 2 8.9.4 10.7-.9 1-1.9 3.2-2 4.7-.2 1.6-.4 3.1-.5 3.3 0 .2-.9-.3-1.8-1.1-1-.8-5.6-3.4-10.3-5.8-4.7-2.3-9.6-4.8-11-5.5-3.7-1.9-20.7-2.9-21.3-1.3-.2.7-.8 1-1.2.6-.4-.4 0-4 .9-8 .8-4 2.5-11.8 3.6-17.3 3.4-15.9 3.6-16.5 7.2-16.5 1.8 0 4 .7 5 1.7zm158.6 2.5c.3 2.8 4.4 6.8 6.8 6.8 1.6 0 3.7 3.7 2.9 5-1 1.7-3.5 1.1-6.3-1.5-4-3.7-5.5-2.9-6.8 3.8-1.2 6.1-2.8 8.7-5 8.7-.8 0-1.4-.1-1.4-.3 0-.1 1.6-4.7 3.5-10.2 2.5-6.9 3.4-10.9 2.9-12.8-.5-2.4-.3-2.8 1.3-2.5 1.1.2 1.9 1.3 2.1 3zm40.8 3.5c-1.4 7.8-1.8 9.3-2.6 9.3-1.2 0 0-10.1 1.3-11.8 1.6-2 2-1.4 1.3 2.5zM60.5 330c-.3.5-1 1-1.6 1-.5 0-.9-.5-.9-1 0-.6.7-1 1.6-1 .8 0 1.2.4.9 1zm204.6.6c1.7 2.1 1.9 16.1.2 18.9-1 1.6-1.2.4-1.1-7.1 0-5-.5-10.1-1.1-11.3-1.4-2.5.1-2.8 2-.5zm-5.6 9.4c0 9.5-.5 12-1.9 8.4-.8-2.1-.8-16.9.1-17.7 1.5-1.6 1.8-.2 1.8 9.3zm-179-7.1c.3.5-1.3 2-3.5 3.2-2.2 1.3-4 2.8-4 3.4 0 1.7 2.2 3.5 4.3 3.5 1.5 0 1.8-.5 1.4-2.1-.4-1.5.3-3 2.3-5 2.8-2.8 2.9-2.9 6.6-1.3 5.5 2.3 16.7 13.3 16 15.8-.7 2.6 1 5.5 5.3 9.3 4.1 3.5 3.7 5.7-.5 2.4-1.5-1.1-3.1-2.1-3.7-2.1-.5 0-1.5-.7-2.1-1.6-.6-.8-3.1-2-5.5-2.5s-5.5-1.9-6.9-2.9c-1.8-1.5-4-2-8.2-2-5.1 0-6.1-.4-9.4-3.3-2.3-2.2-3.4-3.9-3.1-4.9 1-2.5-1.3-3.1-2.7-.8-1.7 2.7-2.8 2.5-2.8-.4 0-2.8 4.1-6.1 9.9-8.2 4.4-1.6 5.8-1.7 6.6-.5zM61 336c-2.2 3.1-4 4.6-4 3.4 0-.8 5.1-6.4 5.8-6.4.2 0-.6 1.3-1.8 3zm354.2 1.2c-.7.7-1.2.8-1.2.2 0-1.4 1.2-2.6 1.9-1.9.2.3-.1 1.1-.7 1.7zm-4.1 2.5c-1.2 2-1.4 1.4-.5-1.2.4-.9.9-1.4 1.1-1.1.3.2 0 1.3-.6 2.3zm45.9-.3c0 2.8-1.7 4.3-3.2 2.8-.6-.6-.5-1.7.4-3.1 1.7-2.8 2.8-2.7 2.8.3zm-399 6.1c0 .9-.9 1.5-2.1 1.5-1.8 0-1.9-.2-.9-1.5.7-.8 1.6-1.5 2.1-1.5s.9.7.9 1.5zm1.5 7.5c0 1.7-3.4 2.4-5.4 1.1-.7-.5-1-1.4-.6-2 1-1.7 6-.9 6 .9zm31 5.4c1.1.7 3.8 1.6 5.9 2 2.2.4 5.8 2.2 8.2 3.9 2.3 1.8 5.5 3.9 7.1 4.8 3.1 1.7 6.6 7.9 6.1 10.7-.3 1.3-1.6 1.8-6.3 2-5.6.2-6.4 0-11.2-3.5-2.9-2.1-5.2-4.4-5.2-5-.1-.7-1.6-3-3.5-5-4.1-4.7-5.9-8-5.2-9.9.7-1.8 1.6-1.8 4.1 0zm120.8.3c-.7.2-1.9.2-2.5 0-.7-.3-.2-.5 1.2-.5s1.9.2 1.3.5zM60 360c0 .5-1.3 1-2.9 1-1.7 0-3.3-.5-3.6-1-.4-.6.8-1 2.9-1 2 0 3.6.4 3.6 1zm162 2c1.3 2.5-.1 5.5-2.9 6.3-3.8 1-5.4-3.2-2.4-6.5 2.1-2.3 4-2.3 5.3.2zm111.7-.8c-.5 1.5-4.6 1.3-6.1-.2-.7-.7.3-1 2.8-1 2.6 0 3.6.4 3.3 1.2zm-68.2 6c4.4 2.1 9.8 5.2 12 6.8 2.2 1.7 4.8 3.3 5.8 3.6 2.1.8 6.1 8 5.2 9.4-.9 1.5-3.1 1.2-4.5-.5-.9-1-3.1-1.5-7.2-1.5-6.9 0-9.1-.9-13.8-6-2.9-3-4.4-3.8-8.8-4.4-6.6-.9-8.2-1.5-8.2-3.2 0-2.1 7-1.8 14.2.7 7.3 2.4 9.8 1.3 4.2-2-4.9-2.9-11.2-5.1-14.9-5.1-1.6-.1-4.3-.7-6-1.5-2.7-1.2-2.2-1.3 5.5-.8 7.2.5 9.8 1.2 16.5 4.5zm-54.7-.9c.3 2.2-.1 2.7-1.8 2.7-2.6 0-3.7-2.5-2-4.5 1.8-2.2 3.4-1.3 3.8 1.8zm20 1.3c-1.7 1.7-4.8 1.3-4.8-.6 0-1.5 4.3-3 5.5-1.9.6.6.3 1.5-.7 2.5zm9.1-2.2c1.8 2.1-.3 6.2-3.4 7-3.7.9-4.1.2-1.6-3 1.1-1.5 2.1-3.3 2.1-4 0-1.8 1.4-1.8 2.9 0zm-180.4.6c.4.6-.8 1-2.9 1-2 0-3.6-.5-3.6-1 0-.6 1.3-1 2.9-1 1.7 0 3.3.4 3.6 1zm26.9 3c2 2.2 3.6 4.9 3.6 5.9 0 1.1 1.5 2.8 3.5 4 4.3 2.5 5.4 4.9 3.1 6.6-2.6 1.9-5.1.7-6.5-3.1-.7-1.9-2.3-4.7-3.7-6.3-2.1-2.5-5.4-9-5.4-10.6 0-1.5 2.1-.1 5.4 3.5zm221.6-2c2.6 2.6 1.2 6-2.5 6-2.9 0-4.5-4.1-2.5-6.5 1.7-2 2.6-1.9 5 .5zm-105.5 1.6c1.9 2.9 1.2 4.4-1.3 2.8-1.8-1.2-2.9-5.4-1.4-5.4.5 0 1.7 1.2 2.7 2.6zm90.2-1.4c.6.7 1.3 3 1.6 5 .4 2.7.2 3.8-1 4.2-2.2.9-3 .7-4.7-1-2.1-2-2-5.3.1-7.6 1.9-2.1 2.7-2.2 4-.6zm-214 7.4c-.9.9-4.5-1.9-5.6-4.3-1.8-3.9-1.3-3.9 2.5 0 2 2.1 3.4 4 3.1 4.3zm237.3-3.4c0 1.7-2.5 3.6-3.6 2.6-.2-.3-.1-1.9.2-3.7.5-2.5.9-2.9 2-2 .8.6 1.4 2 1.4 3.1zm13.7-2c1.8 1.7 2.3 3.2 2.3 7.1 0 4.3-.2 4.8-1.5 3.7-1.2-1-1.8-1-3 0-1.3 1-1 1.8 2.1 5.6 4.5 5.4 3.3 5.6-2.3.5-4.9-4.4-5.3-6.2-1.8-8.5 2.6-1.7 3.5-6.8 1.5-8.1-1.1-.7-1.4-2.5-.3-2.5.4 0 1.7 1 3 2.2zm-30.2 2.8c.9 1.6 1.1 3 .6 3-1.1 0-3.1-3.2-3.1-4.9 0-1.9.9-1.2 2.5 1.9zm-239.6.6c1 .9-.6 1.1-3.6.7-1.8-.3-3.3-.9-3.3-1.4 0-.8 5.9-.1 6.9.7zm166.1.4c1.8 1.2 1.8 1.2-4.2 1.5-5.1.3-10.2 2.9-9.5 4.8.5 1.7 8.4 2.1 13.1.7 2.7-.8 4.2-.8 4.9-.1 1.3 1.3-3.1 3.1-7.8 3.1-3.1 0-6.5 2.1-6.5 3.9 0 .5.7 1.4 1.5 2.1 1.1.9 1.9.8 3.7-.4 1.2-.9 3.2-1.6 4.3-1.6 1.6 0 1.3.4-1.3 2-3.8 2.4-3.7 4.6.2 4.3 4.1-.3 2.4 1.1-8.4 7.2-6.8 3.8-11.8 5.9-15.7 6.5-3.2.6-8.2 1.7-11.1 2.7-6.7 2-7.5 1.2-6.6-6.6.8-7.6.8-7.6 8.1-12.1 6.1-3.9 16.3-13.4 16.3-15.3 0-2.8 15.4-5 19-2.7zm87.3 6.6c2.3 1.5 5.3 3.7 6.7 5 1.4 1.2 3.7 2.7 5.2 3.3 2.9 1.1 6.4 6 9.1 12.8 1.3 3.2 1.4 4.9.6 7.1-.9 2.5-1.8 3.1-6.3 4-5.9 1.2-12.4 0-14-2.6-1.3-2.2-8.7-5.2-12.8-5.2-2.1 0-3.8-.5-3.8-1 0-.6 2-1 4.5-1 3.8 0 4.5-.3 4.5-2s-.7-2-4.2-2.1c-2.4 0-5.2-.4-6.3-.9-1.9-.7-1.9-.8-.2-1.5 1-.4 3.6-.5 5.7-.2 4.1.5 6-.7 4.2-2.5-.6-.6-3.8-1.2-7.3-1.4-7.2-.5-8.4-1.1-6.8-3 .7-.9 3.2-1.4 7-1.4 6.1 0 7.9-1.1 5.9-3.6-1-1.1-2.5-1.3-6.1-.8-4.1.5-4.9.4-4.9-.9 0-2.2 1.5-2.9 7.9-3.7 3.1-.4 5.9-.8 6.4-.9.4 0 2.6 1.1 5 2.5zm-116.4 1c-3.8 4.1-11 8.6-12.7 7.9-2-.7-1-1.7 6.9-6.6 7.4-4.5 9.2-4.9 5.8-1.3zm-120.1-.4c.7.7 1.2 2 1.2 3 0 1.1.9 3.7 2.1 5.9 1.1 2.2 1.9 4.5 1.7 5.1-.4 1.2-8.8-12.3-8.8-14.1 0-1.5 2.3-1.4 3.8.1zm166.8 3.8c2.3.5 5.7 1.8 7.6 2.9 1.8 1.1 6.7 2.5 10.8 3.1 4.1.6 9.8 1.5 12.7 2 2.9.4 6.6 1.8 8.2 2.9 1.6 1.2 4 2.1 5.4 2.1 1.6 0 2.7.7 3 1.7.7 2.5.2 14.2-.8 17.8-2.9 11.6-6.2 22-10 31.5-2.5 6-4.2 11.7-3.8 12.5.3.9 2.2 2.4 4.2 3.4 7.4 3.7 13.6 7.2 15.3 8.8 1.6 1.4 1.8 1.4 2.4-.1.9-2.4-1.1-4.2-9.7-8.4-8.8-4.4-8.8-4.5-3.6-17.9 3.8-9.6 7.8-22.6 9.6-31.5 1.4-6.5 2.9-8.1 6.4-7.3 3.5.9 4.1 6.3 2.7 24-2.1 25.9-2.8 40-1.9 40.9.5.6 2.9.1 6.1-1.2 8.3-3.3 20.4-7.2 22.8-7.2 3.3 0 3.3-2.4 0-7.6-4-6.3-8.7-22.7-10.6-36.7-.5-3.8-.3-4.7.9-4.7 3.3 0 6.5 1.9 7.1 4.3.3 1.3 1.5 3.6 2.7 5.1 1.9 2.4 2.7 2.7 5.6 2.1 2.1-.4 4-.2 4.9.6 2.3 1.9 1.6 2.9-1.1 1.9-3.7-1.4-4.2.8-2.2 9.4 1 3.9 1.4 8.1 1.1 9.4-.5 1.6-.1 2.9 1.3 4.2 1.4 1.2 1.9 2.7 1.6 4.3-.3 1.4 0 2.8.5 3.1.7.4.6 1.7-.3 3.9-.7 1.7-2.1 8.4-3 14.7-.9 6.3-2.4 14.4-3.5 18-1 3.6-3.5 12.7-5.5 20.2-1.9 7.5-4.9 17-6.7 21-1.7 4-3.3 9.1-3.5 11.4-.4 3.8-.1 4.4 5.1 9.8 4 4.2 6.4 5.9 9 6.3 3.1.5 3.6.9 3.6 3.4 0 4.4 2.9 5.8 9.4 4.6 6.8-1.3 8.1-.4 9.1 6.1.3 2.6 1.3 7.1 2.1 10 1.1 3.5 1.6 10.5 1.7 21.5.2 14.9.4 16.5 2.6 20.7 1.3 2.4 2.5 6 2.6 8 .2 1.9.8 7.9 1.5 13.3.6 5.5.9 10.1.6 10.4-.9.9-2.6-.8-2.6-2.7 0-1-1.1-2.7-2.4-3.7-1.8-1.5-2.4-3.1-2.8-7.6-.3-4.2-1.1-6.4-2.9-8.3-5-5.4-11-6.9-13.1-3.3-2.1 3.3-8.7 6.4-13.3 6-2.9-.2-4.8.3-6.6 1.8l-2.6 2-2.7-4c-1.4-2.3-2.6-4.5-2.6-4.9 0-.5-1.4-1.1-3.1-1.5-2.2-.5-3.6-.2-4.9 1-1.5 1.4-2.9 1.6-6.7 1-2.6-.4-5.6-1.1-6.5-1.6-1.2-.6-2.4-.2-4.5 1.5-6.9 5.7-8 5.5-8.5-1.8-.3-3.7-.6-4-7.5-7.6-4-2-7.9-4.3-8.8-5-2.4-2-8.1-.4-10.6 3.1-1.7 2.5-2 3.8-1.4 7.5.4 2.7.1 5.7-.6 7.9-1.2 3.1-1.1 3.8.9 6.4 1.7 2.3 1.9 3.1.8 4-.9.8-1.8.3-3.5-1.9-2.7-3.7-5.6-3.8-10.1-.5-1.9 1.4-4.4 2.5-5.7 2.5-3.1 0-4.9 3.5-3.4 6.7.8 1.8.8 2.4-.2 2.7-.6.2-3.6.9-6.5 1.6-6.1 1.4-10.3 3.3-14.9 6.7-3 2.3-3.7 2.4-16.7 2-7.4-.2-13.8-.5-14-.8-1.5-1.5-2.8-17.4-3.1-37.9-.3-22.6-2.5-63.1-4.6-85-2.2-22.9-2.8-31.5-3.4-55.5-.4-13.8-.9-27.7-1.2-31-.2-3.3-.7-12.6-1-20.6l-.6-14.6 3.9-.8c5.2-.9 5.8-1.4 4.1-3.3-2.5-2.9-5-10.9-4.3-13.8 1-3.8-.9-5.6-5.3-4.8-5.4 1-6.9 2.1-7.6 5.6-.6 2.7-.9 2.9-1.7 1.4-1.7-3.1 0-8 4.4-12.4 4.8-4.9 7-5.4 6.6-1.6-.4 3.8 1.9 4.1 3.9.5 1-1.8 2.6-3.1 3.7-3.1s2.7-.7 3.7-1.6c2.5-2.3 4.3-.9 2.5 1.9-.8 1.2-1.8 5.5-2.2 9.4-.4 4.8-1.1 7.3-1.9 7.3-2.1 0-3.8 2.8-3.1 5.5.8 3 4.3 5.2 5.9 3.6.6-.6 2.4-1.1 3.9-1.1 3.4 0 7.8-2.6 7.8-4.6 0-1.6 3.6-3.3 8.7-4.1 2.4-.4 3.4-.1 3.9 1 1.4 3.8-15.3 39.4-19.7 41.7-4.3 2.4-1.9 5.2 11.4 13.4 2.7 1.7 5.3 1.4 4.2-.5-.4-.5-3.1-2.5-6.1-4.4-3-1.9-5.4-4.1-5.4-4.8 0-.7 1.6-3.7 3.6-6.7 5-7.4 11.6-21.6 15.3-32.4 3.1-9.3 5-12.2 7.4-11.3 1.1.4 1.2 1.7.6 6.9-2.3 17.6-4.4 27.6-8.5 40.6-2.5 7.9-4.3 14.9-4.1 15.6 1.3 3.4 12.3 2.7 30.2-1.9 5.5-1.4 11.2-2.5 12.7-2.5 3.7 0 4.4-1.7 1.9-4.4-1.2-1.2-2.1-2.8-2.1-3.5 0-.7-1.8-6.4-3.9-12.7-2.2-6.3-4.7-16.2-5.6-22.1-.9-6-2.3-14.4-3-18.7-1.4-7.9-1.4-7.9 1.1-10.8 1.3-1.7 2.2-3.4 1.8-3.9-.3-.5 0-2.5.6-4.5.9-2.6 1.6-3.4 2.8-2.9.8.3 3.5 1 5.8 1.5zm-183.1 0c-.3.5-2.4 1-4.6 1-2.1 0-3.9-.5-3.9-1 0-.6 2.1-1 4.6-1 2.7 0 4.3.4 3.9 1zm119.5.9c0 1-.6 2.3-1.2 2.8-2.4 1.8-7.9 3.6-8.6 2.8-.4-.4-.1-1 .7-1.3.7-.2 2.8-1.7 4.5-3.3 3.7-3.4 4.6-3.6 4.6-1zm-62.7 1.7c3.7 2.5 3.9 2.5 5.8.8 1.8-1.6 2.1-1.6 5.2-.1 1.7.9 4.4 1.9 6 2.2 1.5.3 2.7 1.2 2.7 2 0 1.9-.5 1.9-6.6 0-2.7-.8-6.6-1.5-8.8-1.5-3.8 0-10.6-3.3-10.6-5.1 0-1.6 2.4-1 6.3 1.7zm-41.9 8.2c1.8 3.7 3.7 7.6 4.4 8.7.6 1.1 1.4 3.6 1.7 5.7.6 4.2 4.6 8 14.5 14.2 5.7 3.6 6.6 3.8 11.3 3.2 2.9-.4 5.7-.6 6.2-.6.6.1 4.3.4 8.3.6 7.9.6 7.8.5 8.4 8.4l.3 3.5-7.5.3c-4.5.2-9.7-.3-13-1.2-9.5-2.5-21.4-4.9-23.6-4.8-1.4.1-2.4-.6-2.7-1.8-.4-1.5 0-1.9 1.7-1.7 1.8.2 2.1-.3 2.1-3.1 0-3.7-1.6-4.4-3-1.3-.5 1.1-1.2 2.1-1.5 2.1-1.1 0-11.6-30.3-12.4-35.8-.9-5.9.7-4.7 4.8 3.6zm-14.6-4.1c.2.9-1 1.3-4.2 1.3-4.3 0-6.3-1-4.9-2.4 1.2-1.1 8.6-.2 9.1 1.1zm50.8.7c2.4 1.8 1.1 4.4-3.1 6.5-7.5 3.7-15.2 1.9-19.3-4.4L87 390h11.3c8.3 0 11.8.4 13.3 1.4zm16.7 3.2c4.3.8 4.6 1.7 1.4 3.9-3.9 2.5-15.2-.3-13.3-3.4.8-1.2 6.1-1.4 11.9-.5zm-67.4 3.9c.3 1.6.1 1.7-1.1.8-.8-.7-3.3-1.5-5.6-1.9-5.7-.9-4.5-2.1 1.5-1.5 3.7.5 4.9 1 5.2 2.6zM228 400c0 .5-.5 1-1.1 1-.5 0-.7-.5-.4-1 .3-.6.8-1 1.1-1 .2 0 .4.4.4 1zm112.9 12.4c-1.5 7-4.8 11.6-6.7 9.4-.9-1.2-.7-2.1 1.3-4.8 1.3-1.8 2.9-5.8 3.6-8.9 1.6-7.9 2.2-9.2 2.7-5.1.2 1.9-.2 6.1-.9 9.4zm-248.4-7.2c2 6 4 8.4 8.9 10.7 5.1 2.4 7.8 2.6 10.4 1 2.1-1.3 12.7 0 12.7 1.6 0 .6-2.8 1.2-6.2 1.5-3.4.3-6.8 1.1-7.5 1.7-1.7 1.8-5.5 1.6-6.2-.2-.3-.8-1.6-1.5-2.8-1.5-2.9 0-11.5-5.6-14.1-9.2-2.7-3.6-1.7-10.1 1.5-9.6 1.3.2 2.4 1.6 3.3 4zm-30.9 5.9c.2 8.8.1 9-1.7 7.3-1.3-1.2-2.9-1.5-5.4-1.1-2 .3-3.7.1-4.1-.5-.9-1.5 1.3-2.6 4.2-2 3.2.6 5.4-1.4 5.4-4.9 0-2.5-.5-3-4.2-3.9-6.5-1.6-7-1.9-6.3-3 .3-.5 3.2-1 6.3-1h5.7l.1 9.1zm44.1-7.7c-.3.7.6 3.2 1.9 5.6 1.4 2.4 2.2 4.5 2 4.8-1.2 1.1-8.3-2.8-10.4-5.8-2.5-3.7-2.1-4.6 2.3-5.3 1.7-.2 3.4-.5 3.9-.6.4 0 .6.5.3 1.3zm121.3 1.1c0 .5-1.4 1.5-3.1 2-3.3 1.1-2.9 2.5.6 2.5 2.3 0 5.2 2.5 3.8 3.3-.4.2-2.1.7-3.8 1.1-1.6.4-3.9.9-4.9 1.3-1.7.5-1.8.1-1.2-3.8 1-6.3 2.9-8.9 6.1-8.1 1.3.4 2.5 1.1 2.5 1.7zm86.4 8.7l2.8 3.2-2.4 1.8-2.3 1.8h2.3c1.5 0 2.6.9 3.3 2.7 1.1 2.9 0 4.3-3.3 4.3-2.8 0-2.1 1.8.9 2.2 3.9.4 4.2 2.8.4 2.8-4.4 0-3.8 1.8.7 2.2 4.9.4 5.1 3.1.3 3.8-5.3.8-5.3 3.2-.1 2.8 5.4-.4 6.4 1.6 1.6 3.2-4.7 1.5-4.7 3.4-.1 2.7 1.9-.3 3.7-.1 4 .4.7 1.1-4 3.1-6.3 2.7-.8-.2-1.7.3-2 1.1-.4 1.1.6 1.3 5.2.7 4.3-.5 5.6-.3 5.6.7 0 .8-1.9 1.7-4.7 2.3-5 1-7.1 3.4-3.1 3.5 2.2 0 2.2.1.3.9-1.1.5-2.9 1.1-3.9 1.4-1.2.4-1.6 1-1 1.6.6.6 3.5.2 7.8-1.1 3.7-1.1 7-1.8 7.3-1.5.8.8-.7 2.6-2.3 2.6-.8 0-5.2 1.3-9.8 2.9-4.6 1.6-8.6 2.8-8.8 2.6-.2-.2.2-6.2.9-13.2.7-7 1.5-19.8 1.8-28.3.2-8.5.5-15.6.5-15.8.1-1 2 .3 4.4 3zm-84.9 4.8c0 .9-1.1 1.6-2.5 1.8-8.4.9-9 3.2-.9 3.2 4.2 0 4.9.3 4.9 2 0 1.8-1.4 2.3-8.9 3.3-.8.1-1.6.8-1.8 1.4-.4 1 1 1.1 5.7.6 5.7-.6 6.2-.5 5.8 1.3-.2 1.4-1.6 2.1-5.6 2.7-7.2 1.2-6.5 2.7 1.3 2.7 3.6 0 6.5.4 6.5.9 0 .8-6.3 2.5-12.4 3.3-1.1.2-1.8.7-1.5 1.3.5 1.2 5.9 1.2 11.3.1 3.1-.7 3.8-.6 3.4.5-.3.9-2.2 1.5-4.9 1.7-6.2.3-8.9 1.1-8.9 2.3 0 .7 2.7 1 7.8.9 9.6-.3 9.7-.3 8.2 1.4-.7.9-4 1.8-8.1 2.2-6.8.6-9.5 1.9-6.6 3 .8.3 4.8.1 8.8-.5 4.6-.6 7.8-.6 8.3-.1 1.8 1.8-.5 2.5-11.2 3.5-10.6 1-14 2.6-7.2 3.4 3.2.4 3.3.4 1 1.1-1.5.4-2.4 1.3-2.4 2.3.2 1.8-4.3 3.7-8.7 3.7-3.7 0-3.7-1.4.1-13.2 2.9-8.8 6.1-23.4 7.5-34.1l.6-4.8 5.2.3c3.8.2 5.2.7 5.2 1.8zm-176 4c0 .7-.6 1.5-1.2 1.7-.8.3-1.3-.4-1.3-1.7 0-1.3.5-2 1.3-1.8.6.3 1.2 1.1 1.2 1.8zm344.5 3c3.7 3.7 3.8 4 2 5-2.6 1.4-2.9 1.3-4-1.5-.8-2-1.6-2.5-4.4-2.5-3.8 0-6.8 2.3-6 4.5.5 1.1-.1 1.5-2 1.5-3.5 0-8.2 2.4-9 4.7-.4 1 .1 2.8 1.4 4.5l2 2.8-3.6 1.5c-4.4 1.8-5.2 1.9-3.6.3.7-.7 1.2-2 1.2-3 0-2-4.4-2.5-7-.8-1.3.9-1 1.4 1.5 3.5 2.7 2.2 2.8 2.5 1 3-1.1.4-3.2 1.1-4.7 1.7-4.2 1.6-6.1.4-5.3-3.3.5-2.3.2-3.6-1.3-5.2-2.8-3.1-3.1-6.3-.7-8.1 2-1.4 2-1.5-.4-4-1.7-1.8-2-2.6-1-2.6 3.5 0 5.6 1.3 6.6 4.1 1.4 3.7 3.1 4.3 8.2 2.9 2.9-.7 4.5-1.9 5.6-3.9.8-1.6 1.1-3.1.8-3.5-.7-.7 2.6-4.6 4-4.6.5 0 .7.6.4 1.4-.9 2.2 1.9 4.1 3.8 2.6.8-.7 1.5-1.8 1.5-2.6 0-1.2 2.2-2 6.8-2.3 1.4 0 3.7 1.4 6.2 3.9zm14.5 2.5c-2 2.5-4 4.5-4.4 4.5-.4 0-2.6 1.8-4.9 4-2.2 2.2-4.8 4-5.6 4-.8 0-2.4 1.2-3.5 2.6-1.1 1.4-2.5 2.3-3.1 1.9-.5-.3-1 .1-1 .9 0 1.5-3.7 4.2-4.6 3.3-.3-.2-1.8.8-3.5 2.4-2.7 2.5-10.4 4.9-13.3 4.1-.4-.2-1.4.3-2.2.9-.8.7-1.7.9-2.1.6-.3-.4-1.1-.3-1.7.2-1.3 1.1-13.3 1.8-14.2.8-.4-.3-.4-1.3-.1-2.2.5-1.2 2.3-1.5 8.3-1.5 6.3 0 8.5-.4 11.8-2.4 2.3-1.3 5.2-2.7 6.5-3.1 5.2-1.6 33.1-19.8 37.6-24.5 4.3-4.5 4.3-1.7 0 3.5zm-251.7-2.1c.5.6 1.2 8.3 1.6 17.1.3 8.8.8 18.7 1 22 1.2 17.3 1.8 33.4 1.7 45-.1 13.7 1.3 32.9 3 43 .6 3.3 1.2 12.3 1.5 20 .2 7.7.8 17.8 1.4 22.5.6 4.7 1.2 25.6 1.4 46.5.2 20.9.6 39.6 1 41.5.3 1.9 1.3 6.9 2.1 11s1.9 14.5 2.5 23c.6 8.5 1.3 16.3 1.6 17.2.3 1.1-.5 2.3-2.2 3.4-2.5 1.7-2.7 1.7-3.9.1-.7-1-3.3-1.9-6.8-2.3-5.1-.6-5.7-.9-5.7-3 0-2.4-3.3-5-5.1-3.9-1.1.7-3.9-1.2-3.9-2.6 0-.5 1.2-1.4 2.6-1.9l2.7-1-.7-10.8c-.3-5.9-.8-26.2-1.1-45.2-.6-35-2.1-65.7-3.4-69.3-.7-1.7-1-1.5-2.3 1.9-1.3 3.3-1.4 6.2-.7 18.4.4 8 1 34.5 1.1 59l.3 44.5-4.5-.3c-2.5-.2-4.9-.8-5.4-1.3-1.3-1.2-.8-111.9.5-125.9 1.2-13.1 1.8-90.4.8-98.5-.4-3.3-1-8.3-1.4-11-2.2-17.1-3.3-29.8-2.8-33.4.3-2.2 0-8.4-.7-13.6-.7-5.3-1.1-9.8-.8-10 .3-.3 3.2-.7 6.5-1 3.3-.2 7-.8 8.2-1.3 3.4-1.2 8.9-1.2 9.9.2zM62 428c0 .6-2.5 1-5.7 1-5.9 0-6.2-.8-1-2.6 3.2-1.1 6.7-.3 6.7 1.6zm287.5 2c-.3.5-1.5 1-2.6 1s-1.7-.5-1.4-1c.3-.6 1.5-1 2.6-1s1.7.4 1.4 1zm-6.5 3.1c-.7 1.1-1.4 1.9-1.6 1.6-.7-.7.7-3.7 1.7-3.7.6 0 .5.9-.1 2.1zm77.2.4c1.2 2.6.4 4.6-1.1 2.9-.5-.5-1.2-1.9-1.6-3.2-.9-3.1 1.2-2.9 2.7.3zM51 434.6c0 .8-.5 1.2-1 .9-.6-.4-.8-1.1-.5-1.6.9-1.4 1.5-1.1 1.5.7zm6-1.2c0 .2-.7.6-1.5 1-.8.3-1.5.1-1.5-.4 0-.6.7-1 1.5-1s1.5.2 1.5.4zm355.4 2c-.5 2 0 2.7 2.5 4.1 3.8 1.9 4.2 4.4.6 3.8-1.3-.3-3.1-1.6-4-2.9-.8-1.3-2.1-2.1-2.9-1.8-2.6 1-3-1.8-.5-3.7 3.4-2.6 5.1-2.4 4.3.5zm-23.9.6c-.3.5-1.1 1-1.6 1-.6 0-.7-.5-.4-1 .3-.6 1.1-1 1.6-1 .6 0 .7.4.4 1zM62 439.4c0 2.2-1.3 2.6-5.4 1.9-3.7-.6-3.8-1.7-.1-2.6 3.8-.9 5.5-.7 5.5.7zm30 3c0 2.2 1.7 2.8 3.8 1.5 1.5-.9 3.1-.8 7.8.8l5.9 2 .2 22.4c.1 12.3-.3 27.8-.9 34.4-.7 7.4-.8 19.6-.3 31.7.7 18.4.8 19.7 2.7 20.1 1.3.4 1.8 1.1 1.5 2.4-2.1 7.3-2.5 50.4-.7 75.8 1.3 18.7 1.6 42 .6 52.5-1.4 16.1-1.4 37-.1 37 1.8 0 2.6-4.1 2.5-12.4-.1-3.9.4-13.6 1-21.6 1-11.7 1-19.9-.1-42.5-2.1-42.8-1.5-89.7 2-141 .5-7.7.8-14.2.5-14.4-.2-.3-1.2.2-2 1.1-1.2 1.2-1.8 5.2-2.4 17.4-.5 8.8-.9 16.1-.9 16.4-.1.2-.5 0-1.1-.6-.6-.6-.6-7.4.1-18.9.5-9.9 1.1-27.1 1.3-38.3.2-11.2.5-20.5.7-20.7.2-.1 4.1-.5 8.7-.7l8.2-.3v8.2c0 4.4.6 13.4 1.4 20 1.6 14.6 1.5 10.7 2.1 65.3.5 46.6 0 70-1.6 70-.5 0-.9-.9-.9-1.9 0-1.1-.5-2.3-1.1-2.7-2.2-1.3-2.7 1.2-1.4 6.2.8 3.3 1.1 7.2.6 11-.3 3.2-.5 8.6-.4 11.9.2 3.3.5 13.2.7 22 1.1 42.4 2 61.4 3.2 68.5.3 1.9.9 8.9 1.3 15.5.9 12.6 1.6 15.8 3.5 15.2.7-.3.9-2.1.6-5.3-.3-2.7-.5-9-.5-13.9v-9h3.5c2.8 0 3.5.4 3.5 2 .1 1.1.4 2.5.7 3 .4.6 1 6.1 1.4 12.3.7 10.8 1.7 14.3 3.1 10.7.3-1 .6-5.8.7-10.9.1-5 .5-9.1 1-9.1s1.1 5.6 1.3 12.5c.2 6.9.6 13.1.9 13.9.9 2.6-1.7 4.1-7 4.1-2.9 0-5.7.5-6.4 1.2-.9.9-1.7.7-3.5-1-1.3-1.2-3-2.2-3.9-2.2-1.9 0-2.8-2.9-2.8-9.5 0-2.8-.5-7.7-1-11-.6-3.3-1.2-10.5-1.5-16-.3-5.5-1-12.3-1.6-15.1-.5-2.9-.9-7.1-.8-9.5.3-5.3-1.5-33.9-3.9-61.4-1.9-22.5-2.1-45.1-.3-53.9 1.3-7.1 1.5-35.2.2-36.1-1.9-1.1-2.3 1.9-2.7 17.8-.2 8.9-.8 21.4-1.4 27.7-1.2 12.4-.7 25.6 1.5 44.5.8 6.6 1.9 23.9 2.5 38.5.6 14.6 1.5 31.4 2 37.5 2.8 33.3 4.1 46.8 4.6 47.6.2.4 1 .6 1.7.3.7-.2 3 1.3 5.1 3.5 3.8 3.9 3.9 4 1.5 4.5-1.3.3-5.1.7-8.3 1-3.6.3-7 1.2-8.5 2.4-1.4 1-3.6 2.4-4.9 3.1-2.8 1.5-4.8.5-3.1-1.5 1.6-2-1.3-2.9-4.9-1.6-9.2 3.5-12.2 2.3-12.2-4.9v-5.1l3.1 3.1c2.6 2.6 3.8 3.1 8.1 3.1 5 0 10.3-2.2 11.2-4.7.8-1.9-1.7-1.6-6.1.6-7.7 4-12.4.6-12.7-9.2-.2-4.9-.8-7.1-2.6-9.8-2.9-4-2.9-3-.6-38.5 1.1-17.8 1.3-29.5.8-40.5-.5-8.8-.5-15.9.1-16.6 1-1.4-.1-10.1-1.4-10.9-.5-.3-.5-1.2 0-2.2.5-.9.9-6.4 1-12.2.1-5.8.4-12.5.7-15 .5-4.8-.5-9.8-2.1-10.2-.6-.2-1.1 5.3-1.4 13.7-.5 18.7-.6 20.8-.3 29.5.1 4.1.3 14.5.3 23s.2 15.8.5 16.2c.3.4 0 4.5-.5 9-.6 4.6-1.3 15-1.5 23.3-.3 8.2-.8 17.5-1.2 20.6-.5 4.5-.2 6.5 1.5 10.3 2.1 4.8 2.1 4.8.1 7.3-1.7 2.2-2 3.9-1.8 11.2.3 10.5-.6 12.5-7.5 15.7-6.5 3-10.7 3.2-10.7.5 0-2.3-1.8-3.1-4.5-2-1.1.4-4.8.8-8.2.8-6 .1-6.3 0-7.8-3-2.1-3.9-1.5-5.2 3.4-8.4 3.5-2.1 4.4-2.3 6.1-1.3 1 .7 2.2 1 2.5.6.3-.3.6-3.8.7-7.7 0-6.4.4-7.5 3-10.9 6.8-8.5 7.8-11.2 8.9-24.4.6-6.8 1.1-19 1.2-27.2.2-12.2.5-15 1.7-15.4.8-.3 1.8-1 2.2-1.6.4-.6.6 14.4.5 33.4-.2 38.7-.1 38.2-7.8 45-4.8 4.2-6.4 8.9-4.2 12 .9 1.3 2.3 2 3.8 1.8 1.2-.1 3 .4 3.9 1.1 1.5 1.3 2 1.2 3.8-.6 2.9-2.9 1.7-5.8-2-4.9-4.9 1.2-5.6 1.1-6-.6-.2-.9 1.7-3.9 4.2-6.7 2.6-2.9 4.6-6.1 4.6-7.2 0-1.1.7-3.6 1.6-5.7 1.5-3.3 1.7-13.6 1.9-97.7.2-58.4.7-95.2 1.3-97.2 1-3.1.7-4.3-.9-4.3-2.7 0-3.3 9.7-3.2 53.5l.1 45-1.9-9.5c-1.7-8.4-2-14.4-2.1-53.5-.1-24.2-.1-51.1.1-59.9.2-13.9 0-16-1.5-17.1-1.5-1.1-1.6-2.4-.9-11.6.4-5.7.8-11.6.8-13.2 0-2.1.5-2.7 2.2-2.7 2.4 0 3.1-2.3 3.8-14.5.7-10.9 2-18.2 3.9-22.8 1.9-4.4 4.8-6.4 4.8-3.3zm-7 .1c0 .3-.4 1.3-1 2.3-1.9 3.4-6 14.2-6 15.8 0 2.2-4.2 13.6-4.8 13-.4-.5.3-4 3.3-17.3 1.4-6.2 5.7-14.3 7.5-14.3.6 0 1 .2 1 .5zm-24.2 4.1c2.2.6 1.3 2.5-1 2-1.3-.3-4-.8-6-1.1-5.6-.9-4.7-2.6 1-1.9 2.6.3 5.3.7 6 1zm285.2 1.6c0 .5-.4.8-1 .8-.5 0-1-1-1-2.3 0-1.8.2-1.9 1-.7.5.8 1 1.8 1 2.2zm87 9.8c1.7 3.9 3 8.1 3 9.2 0 1 .5 2.8 1 3.9.9 1.5.7 2.1-.6 2.6-2.1.8-3.2-1.1-4-7-.4-2.6-1.1-4.7-1.6-4.7s-1.8-2-2.9-4.5c-1.6-3.6-1.8-4.9-.8-6.6 1.5-2.8 2.4-1.8 5.9 7.1zm-376-4.4c-5.7 1.4-8.6 1.2-7.5-.6.3-.5 3.4-1 6.8-.9l6.2.1-5.5 1.4zm349.3 4.6c2.1 5.7 3.7 12.1 3.2 12.6-.8.8-2.5-1-2.5-2.7 0-.9-.4-2.1-.9-2.7-.5-.5-1.1-2.3-1.3-3.9-.2-2.4-.7-3-2.5-2.8-2.7.3-3.8-2.3-1.5-3.6 2.9-1.8 3.9-1.2 5.5 3.1zm-22.1.2c.9 1.9 1.4 4.2 1.2 5.3-.3 1 .4 6.3 1.5 11.7 3.1 14.6 2.9 16.2-1.6 18.3-2.1.9-4.1 1.8-4.4 2-.7.4-2.9-12.3-2.9-17.1 0-3.8 1-4.9 3.3-4 2 .7 2.7 6.1 1 7.5-1.7 1.5-1.7 4.3.1 5.8 1 .8 1.6.8 2.5-.3.9-1.1.9-2.9-.3-7.8-.8-3.4-1.2-7.5-.9-9 .9-4.5-.4-7.5-3.7-8.6-3.2-1.2-3.3-3.5-.2-6 2.3-1.8 2.7-1.6 4.4 2.2zm42.1 3.8c4.5 10.5 6.9 20.3 5.6 23.2-1 2-.9 3 .5 5.1.9 1.4 2.1 2.5 2.7 2.5 1.3 0 3.9 6.2 3.9 9.2 0 2.1-.5 2.3-4.9 2.4-4.2.2-5-.1-5.5-1.9-.7-2.6 0-3.7 2.5-3.7 3.2 0 1.6-4.8-2.2-6.2-.9-.4-1.9-2.1-2.3-3.9-.3-1.7-1.3-3.7-2.2-4.4-1.2-.8-1.5-2-.9-4.4.6-2.6.9-3 2.1-2 1.1.9 1.8.9 2.6.1.9-.9.8-1.6-.6-3-1.4-1.2-2-1.4-2.3-.5-.9 2.6-2.1 1.2-3.4-4-.6-2.8-1.8-6.6-2.6-8.4-2-4.9-1.6-5.6 3.2-6.2.6 0 2.3 2.7 3.8 6.1zm-11.1-1.1c2.3 4.6 2.4 9.2.1 8.7-1.5-.3-4.2-7.6-4.3-11.6 0-2.4 2.4-.7 4.2 2.9zm-353.9-2c-1.4 1.4-6.1 1.9-9.3 1.1-2.2-.6-2.1-.7 1.5-1.3 6.8-1.1 9-1 7.8.2zm337.2 5.8l1.5 4.5-2.9 2.7c-2.8 2.5-2.9 3.1-2.6 9 .2 3.5.6 7.1.9 7.9.8 1.9 6.2 4.4 8.1 3.7.7-.3 1.8 0 2.3.6.9 1.2 5.5 18.8 5.3 20.4 0 .5-1.7.9-3.8 1-4.5.3-5.6 1.8-3.7 5.5 1.3 2.5 1.2 2.8-.5 3.8-1.7.8-2.2.4-4-3.3-2.2-4.5-2.8-9.7-1.2-9.7.5 0 1.3.9 1.6 2 1.1 3.4 2.2 2.2 2.3-2.3 0-4.5-1.8-7.4-5.5-8.8-1.3-.5-2.3-1.6-2.4-2.6-.1-4.4-1.9-17.4-3.2-23.8-.8-3.9-1.7-9.3-2-12.1l-.6-5 4.5 1c4 1 4.5 1.4 5.9 5.5zm-25.8-4.4c.2.6-1.4 1.8-3.4 2.7-3.5 1.4-3.8 1.5-4.2 0-.7-3.1 6.6-5.7 7.6-2.7zm-12.2 3.6c1.7 3.2 1.1 5.7-.6 2.6-1.2-2-6.2-2.3-7.7-.4-.6.7-1.2 4-1.4 7.2-.3 4.5-.8 6-1.8 6-1.2 0-1.4-1-1.1-4.5.2-2.5.5-6.3.5-8.5.1-3.6.4-4 3.1-4.6 6.1-1.3 7.4-1 9 2.2zm-299.7 1.8c.4 1.3-11.4 1.6-12.2.2-.9-1.4 0-1.6 6-1.5 3.3.1 6 .7 6.2 1.3zm162.5-.2c-.7.2-1.9.2-2.5 0-.7-.3-.2-.5 1.2-.5s1.9.2 1.3.5zm187 13.9c-1.7 1.3-1.7 1.4.4 2 3 .8 3.5 2.9 1.3 4.9-1.5 1.3-1.7 2.2-1 3.6 1.2 2.2 1.3 4.9.2 4.9-.5 0-1.6-2.8-2.6-6.3-1-3.4-2.2-7.5-2.7-9.1-.5-1.6-.9-3.8-.9-4.9 0-1.7.2-1.8 1.6-.6 1.4 1.1 1.8 1 2.7-.6 1-1.8 1.1-1.7 1.9 1.4.7 2.7.6 3.6-.9 4.7zm-331.6-3.4c-.3.8-.6.5-.6-.6-.1-1.1.2-1.7.5-1.3.3.3.4 1.2.1 1.9zm288.1.4c2.9 2 2.8 3.2-.3 4.4-5.2 2-1.2 9 5.1 9 1.9 0 3.7.6 3.9 1.2.9 2.5 5.4 42.2 4.9 42.7-.3.3-.8.1-1.2-.5-.4-.6-1.7-1.6-2.9-2.3-1.3-.6-2.3-1.8-2.3-2.5 0-.8-.7-1.9-1.5-2.6-.8-.7-1.5-2.1-1.5-3.2 0-1.5.5-1.8 2-1.3 1.4.4 2 .2 2-.9 0-2.7-1.2-4.6-3-4.6-1 0-2.1-.8-2.3-1.8-.3-.9-.5.4-.6 3 0 2.6-.6 5-1.1 5.3-.6.4-.8 1-.5 1.5.3.4-.2 1-1 1.4-1.7.6-1.6.8-2-5.9-.2-2.8-.8-12.2-1.4-21-1.7-25.2-1.6-25.7 3.7-21.9zm-294.1 1.6c-.3.8-.6.5-.6-.6-.1-1.1.2-1.7.5-1.3.3.3.4 1.2.1 1.9zm.5 6c-1 2.2-1.1 2.1-1.1-1.2-.1-2.6.2-3.1 1.1-2.2.8.8.8 1.7 0 3.4zm285.4 4.2c.5 5.1.3 5.6-1.6 5.6-1.4 0-2.1-.7-2.2-2.3-.1-1.2-.2-3.1-.3-4.2-.1-1.9 2.4-5.9 3.2-5.1.3.2.7 2.9.9 6zm-297.8.8c.3 1.6-.5 1.8-6.8 1.8-5.2 0-7.1-.3-6.8-1.2 1.1-3.1 13-3.5 13.6-.6zM400 488c0 .5-.5 1-1.1 1-.5 0-.7-.5-.4-1 .3-.6.8-1 1.1-1 .2 0 .4.4.4 1zm-49.3 18.7l-.2 13.6-2.8 1c-1.6.5-3.1.7-3.4.4-.3-.3-.2-4.3.2-8.8.6-6.8 1-8.2 2.6-8.6 2.3-.6 2.5-3.1.4-3.9-2.1-.8-1.9-6.1.2-7.3 1-.5 2.1-.7 2.5-.5.4.2.6 6.6.5 14.1zM61 496.4c0 1-1.7 1.5-6.1 1.8-6.9.3-9-.8-3.2-1.7 2.1-.4 4.5-.8 5.3-1 3.2-.6 4-.5 4 .9zm11.5 19.1c.2 10.6-.1 18.5-.6 18.5s-.9-4.7-.8-10.5c0-5.7-.2-10.9-.6-11.5-.8-1.2.5-16.4 1.3-15.6.2.3.6 8.9.7 19.1zm353.1-10.9c1.6 5.9 1.6 6.4.6 6.4-1.9 0-4.8-7.5-4.3-11.3.3-2.4 2.6.5 3.7 4.9zm-87.1 2.1c-.8 6.2-1.2 7.3-2.5 7.3-.7 0-.9-1.1-.6-3 .3-1.7.9-4.4 1.2-6 .9-5 2.6-3.5 1.9 1.7zm-278-2.6c.4.6.5 1.2.4 1.4-.8.7-9.9-.8-9.9-1.6 0-1.3 8.8-1.1 9.5.2zm386.1 2c.7 1.3 1.5 3.9 1.9 5.6.5 2.6.3 3.3-.9 3.3-.9 0-1.8-1.2-2.2-2.8-.3-1.5-1-3.7-1.5-5-.5-1.3-.9-2.8-.9-3.3 0-1.8 2.5-.4 3.6 2.2zm-25.2 7.1c4.1 13.6 7.2 22.7 8.7 25.8 1.1 2.2 1.9 4.3 1.9 4.9 0 1.7-2 2.3-3.5 1.1-.8-.6-2.4-1-3.7-.8-2 .3-2.4-.4-4.4-8.2-3.7-14.7-5.3-22.4-4.8-23.2.8-1.3 5.4-.9 5.8.4zM61 515c0 .5-.7 1-1.5 1s-1.5-.5-1.5-1c0-.6.7-1 1.5-1s1.5.4 1.5 1zm298.7 2.4c.1.1.5 7.3.7 15.9l.5 15.7H358c-2.7 0-3-.3-3-3.4 0-2.5.5-3.5 2-3.9 1.1-.3 2-1 2-1.6 0-.6-.9-1.1-2-1.1-1.7 0-2-.7-2-4.9 0-4 .3-5 2-5.4 2.8-.7 2.5-2.6-.5-3.7-2-.8-2.5-1.6-2.5-4.3 0-1.9.3-3.7.7-4 .5-.6 4.1 0 5 .7zm32.3 2.8c1.6-1 2.1-.9 3 .8.9 1.7 3.8 14.2 4.3 18.8.1.9-1.1 1.5-3.5 1.6-3.1.2-3.8-.1-3.8-1.5 0-2.4-1.4-3.1-3.4-1.6s-1.1 5.1 1 4.3c1-.4 1.4.4 1.4 2.8 0 3.1-2.3 5.6-3.8 4.2-.3-.3-.8-4.3-1.2-8.8-.4-4.6-1.1-11.3-1.5-15l-.7-6.7 3.1 1.2c2.4.9 3.6.9 5.1-.1zm60.8 5.3c1.1 3.3 1.9 6.1 1.7 6.3-1.6 1.6-6.2-8.6-5.1-11.4.9-2.2 1.1-1.9 3.4 5.1zM51.5 522c-.3.5-1.3 1-2.1 1s-1.4-.5-1.4-1c0-.6.9-1 2.1-1 1.1 0 1.7.4 1.4 1zm9.5 0c0 .5-.9 1-1.9 1-1.1 0-2.3-.5-2.6-1-.4-.6.5-1 1.9-1s2.6.4 2.6 1zm-1.4 5.7c-.7.7-9.8.5-10.5-.3-.2-.2 2.2-.4 5.4-.4s5.5.3 5.1.7zm386.6 3.3c2.6 0 6.4 7.8 4.9 10.2-1.6 2.6-1.4 3.1 1.4 2.6 7.2-1.4.8 7.8-6.7 9.7l-2.7.7.6-5.4c.5-4.7.2-5.6-2.1-8.1-6.9-7.5-7.2-11.4-.8-10.3 2 .3 4.5.6 5.4.6zm-106.9 12.2c-.5 6.7-.8 7.8-2.4 7.8-1.5 0-1.9-.7-1.9-3.1 0-4.4 3-14.3 4-13.2.5.4.6 4.3.3 8.5zm67.9-4c-.4 3.4 2.1 5.2 6.2 4.5 2.1-.3 3.8-.1 4.4.6.5.7 2.1 5.7 3.6 11.2 1.5 5.5 3 10.8 3.2 11.7.7 2.4-1.5 2.2-4.5-.2-1.8-1.5-2.1-2.3-1.2-3.3 1.3-1.7.5-2.8-1.5-2-.9.3-1.2 1.3-.9 2.4.5 1.5.1 1.9-1.8 1.9-3.4 0-4.4-1.6-6.2-9.8-.8-4-1.9-8-2.4-8.9-.9-1.9-3.1-10.5-3.1-12.4 0-.7.8-.6 2.3.4 1.5 1 2.1 2.3 1.9 3.9zM60 536c0 .5-.4 1-1 1-.5 0-1-.5-1-1 0-.6.5-1 1-1 .6 0 1 .4 1 1zm-9 1c0 .5-.4 1-.9 1-.6 0-1.3-.5-1.6-1-.3-.6.1-1 .9-1 .9 0 1.6.4 1.6 1zm387.6 6.5c1.9 2.6 2.4 3.9 1.6 4.7-.7.7-1.6-.1-3.1-3-3.3-6.4-2.7-7.1 1.5-1.7zm-387.1-1.4c.4.6.5 1.3.2 1.5-.7.8-5.7-.7-5.7-1.7 0-1.3 4.7-1.1 5.5.2zm330.5 3.7c0 2.6.4 6.2 1 8.1 1.1 4.1.5 5.4-1.9 4.2-1.2-.7-2.6-.6-4.2.3-2 1-2.7 1-3.7-.1-1-1-1.8-1-3.3-.3-2.3 1.3-1.5 3.4 1.2 2.7 1.4-.4 1.8 0 1.6 2.2 0 1.4.2 3.6.7 4.9.5 1.6.3 2.4-.8 2.8-2.6 1-4.5-1.4-5.1-6.4-.4-2.6-.9-5.9-1.1-7.5-.5-2.5-.3-2.7 3-2.7 2.8 0 4-.7 6-3.3 1.5-1.9 2.6-4.5 2.6-5.9 0-2.8.7-3.8 2.7-3.8.9 0 1.3 1.5 1.3 4.8zM60.5 543c.3.5-.1 1-.9 1-.9 0-1.6-.5-1.6-1 0-.6.4-1 .9-1 .6 0 1.3.4 1.6 1zm271.1.2c.7 1-1.4 3.2-4 4.1-.7.3-.5 1.1.7 2.4 3.2 3.6 1.1 6.9-2.4 3.7-2.2-2-2.4-3.8-.8-8.3.8-2.3 1.7-3.1 3.4-3.1 1.3 0 2.7.5 3.1 1.2zm-259.9 4c-.3.7-.5.2-.5-1.2s.2-1.9.5-1.3c.2.7.2 1.9 0 2.5zm-14.7.4c1.7.4 3.4 1.3 3.7 2.1.9 2.3-.3 2.6-3.6.9-1.6-.9-4.8-1.6-7.1-1.6-2.5 0-3.9-.4-3.5-1 .7-1.1 5.7-1.3 10.5-.4zm293.4 2.5c.5.5 1.2 4.7 1.4 9.3l.4 8.5-3.5.6c-2 .4-4 .4-4.6.1-.9-.6-1.3-18.4-.4-19.9.5-.8 5.4.2 6.7 1.4zm-278.7 2.1c-.3.7-.5.2-.5-1.2s.2-1.9.5-1.3c.2.7.2 1.9 0 2.5zM52 554c0 .5-1.5 1-3.2.9-2.8 0-3-.2-1.3-.9 2.8-1.2 4.5-1.2 4.5 0zm9 1.4c0 2.1-2 3-3.3 1.7-.9-.9-.8-1.4.3-2.1 2.1-1.4 3-1.2 3 .4zm276.3.2c1 .4 1.7 1.7 1.7 3.1 0 2.1-.4 2.4-2.7 2.1-2.4-.2-2.9-.8-3.1-3.7-.3-2.5 0-3.2 1-2.7.7.3 2.1.9 3.1 1.2zM72.9 586.7c-.1 30.8-1.1 37.1-2.2 13.3-.5-11.5.5-43 1.3-42.5.7.4 1 10.9.9 29.2zM52 561c0 .5-.4 1-1 1-.5 0-1-.5-1-1 0-.6.5-1 1-1 .6 0 1 .4 1 1zm344 5.7c2.5 4.3 2.5 4.3-.5 4.3-2.6 0-4.8-2.7-5.9-7.2-.6-2.7-.5-2.7 1.9-1.6 1.4.6 3.4 2.6 4.5 4.5zm-335.5-2.4c0 2.6-2 2.5-2.3-.2-.3-1.6.1-2.2 1-1.9.7.3 1.3 1.2 1.3 2.1zm-7.7 4.8c.2 1.3-.3 1.5-2.5 1.2-4.5-.7-5.5-1.2-4.8-2.3 1.1-1.7 6.9-.8 7.3 1.1zm310.2-1.2c0 .9-4.1 2.3-4.8 1.6-.2-.2-.1-.8.3-1.4.8-1.3 4.5-1.5 4.5-.2zm-301.4 4.2c1 1.7-1.3 3.6-2.7 2.2-1.2-1.2-.4-3.3 1.1-3.3.5 0 1.2.5 1.6 1.1zm326.4.4c1.5 1.8 9.2 2 13.9.4 1.8-.6 3.4-.9 3.7-.6.3.3-.1 4.3-1 8.9-7 36.9-7.8 43.5-5 46.3.9.9 2.7 5.9 4 11 1.3 5.2 2.8 10.4 3.4 11.4.5 1.1 1 6.2 1 11.5 0 7.3-.4 9.8-1.6 11-2.4 2.5-9.2 6.1-17.9 9.6-4.4 1.8-8.4 3.7-8.9 4.1-1.6 1.5-3.5 1-4.6-1-.5-1.1-1.5-7.7-2-14.8-1.3-16-4-34.2-5.1-34.9-.5-.3-.9-1.6-.9-2.8 0-1.3-.7-4.1-1.6-6.2-1.4-3.1-1.7-6.8-1.5-18.2.1-10-.2-15.9-1.2-19.5-2.6-9.2-3-14.2-1.2-15.7 1.4-1.1 2.1-1.1 4.6.4 2.5 1.4 3.8 1.6 8.2.8 2.8-.6 6.6-1 8.2-.9 1.9.1 2.9-.2 2.8-1.1-.4-1.7 1.2-1.5 2.7.3zm-335.8 4.7c-.7.7-2 .7-3.8.1-4.2-1.4-4.1-3.1.3-3.5 3.9-.3 5.6 1.3 3.5 3.4zm10.2 5.3c-.7 1.6-4.4.8-4.4-1 0-.7.6-1.5 1.3-1.8 1.7-.6 3.7 1.2 3.1 2.8zm-9.6 1.8c.3 1.4-.4 1.7-3.7 1.7-4.6 0-5.2-1-1.8-2.7 3-1.5 5.1-1.1 5.5 1zm10.3 19.5c.3 27.8-.2 55.7-1.1 56.5-.4.5-1.8.7-3.1.5-2.9-.4-3.2-3.3-.5-3.3 1.1 0 2.1-.6 2.4-1.3.2-.7-.5-1.2-1.7-1.2-2.6 0-2.9-3.7-.3-5.6 1.6-1.3 1.6-1.5 0-2.5-2.4-1.4-2.3-5 .2-5.6 1.1-.3 2-1 2-1.5s-.9-1.2-2-1.5c-1.1-.3-2-1.4-2-2.4s.9-2.3 2-2.9c2.5-1.3 2.6-2.6.1-3.3-1.4-.3-1.8-1.1-1.4-3.3.3-1.6 1.3-3.7 2.1-4.7 1.4-1.6 1.4-1.9-.4-3.1-1.8-1.4-1.8-1.5 0-3.5 1.9-2.1 1.9-2.2-1.2-5.4-3.2-3.3-4-6.1-2.2-7.2.6-.4 1.8-.1 2.6.6 2.2 1.8 3 .2.9-2.1-1.7-1.9-1.7-2.1 0-4s1.7-2.1.2-3.8c-1-1-1.7-2.6-1.7-3.5 0-1.7 2.9-3.9 4.2-3.1.3.2.8 8 .9 17.2zm-10.6-10.6c-.9 2.7-1.2 3.1-4.7 4.6-2.4 1-2.8.9-2.8-.4 0-1.7 4.9-6.3 6.8-6.4.9 0 1.1.7.7 2.2zm-1.2 20.5c.3 6.8.2 12.3-.2 12.3-1.4 0-6.1-2.5-6.1-3.3 0-.4.7-.7 1.5-.7s1.5-.5 1.5-1c0-.6-.7-1-1.5-1-2 0-1.9-1.7.3-3 1.6-1 1.6-1 0-2-2.4-1.5-2.2-2.6.5-3.4 2.2-.6 2.2-.7.3-2.1-1.6-1.2-1.7-1.8-.8-2.7 1.6-1.6 1.5-2.8-.3-2.8-2.4 0-1.7-2.8.8-3.2 1.2-.2 2.5-.2 2.8.1.4.4.9 6.1 1.2 12.8zm354.3 3.8c.3 1.9 2 5.2 3.6 7.3 1.7 2 4.4 5.8 6 8.4 2.1 3.4 3.6 4.8 5.2 4.8 4.4 0 10.8 9.6 12.1 18 .8 5.5-1.2 8.6-8.1 12.6-5 2.9-5.6 2.7-7.4-2.9-.6-2-2-4.2-3.1-4.7-1.2-.7-1.9-2.1-1.9-3.8 0-1.5-.7-5.2-1.5-8.2-.8-3-2.4-9.1-3.6-13.5-1.1-4.4-2.7-9-3.5-10.2-1.4-2.2-2-10.4-.8-11.6 1.2-1.2 2.3.3 3 3.8zM51.3 628.8c1 1 1.4 2.1 1.1 2.5-1 .9-6.6-2.2-5.9-3.3 1-1.5 3-1.2 4.8.8zm213.2.2c1 1.2 2.6 1.8 3.5 1.5.9-.3 2.5.3 3.5 1.5 1 1.1 2.4 2 3 2 3.3 0 4.2 4.9 1.6 8.9-1.3 2.1-15 5.2-17.3 4-1.7-.9-1.7-1.1-.3-2.6.9-.8 1.4-2.2 1.1-2.9-.3-.8.4-1.8 1.4-2.4 2.4-1.3 2.6-3.9.5-4.5-4.9-1.6-4.7-1.2-3-4.5 1.8-3.5 3.5-3.8 6-1zm-213.1 6.1c-.6 1.1-2.4.2-2.4-1.1 0-.5.7-.7 1.5-.4.8.4 1.2 1 .9 1.5zM51 638c0 .5-.9 1-2 1s-2-.5-2-1c0-.6.9-1 2-1s2 .4 2 1zm21.2 22.4c1.2 17.5 1.4 39.3.3 40.4-1.9 1.9-3.2-6.7-4.1-27.9-.7-16.5.4-38.3 1.7-33.5.4 1.6 1.4 11 2.1 21zm281.4-18.5c1.9 2.9 2.4 4.9 2.2 7.7-.3 3.7-.5 3.9-3.5 3.6-3.8-.4-5.1 1.3-2.9 3.7.9 1 1.6 2.7 1.6 3.9 0 3 2.8 2.8 3.6-.3.7-2.7 2.4-3.1 5.5-1.5 1.8 1 1.8 1.3.3 4.2-1.1 2.2-1.3 3.3-.5 4.1 1.8 1.8 1.3 3.7-.9 3.7-1.3 0-2.4-1-3-2.5-1.1-3-2.6-3.2-4.2-.6-1.2 1.9-1.2 1.9-2.3-.2-.7-1.5-2.4-2.4-5-2.8-2.7-.5-4.8-1.6-6.6-3.9-2.1-2.5-3.3-3.1-5.1-2.7-3.1.8-4.2-.1-5.7-4.8-.7-2.2-1.5-4.6-1.7-5.3-1.1-2.4 3.8-3 7.8-1 4.1 2.1 5.8 1.8 5.8-1.3 0-1.5.5-1.8 2.4-1.3 1.6.4 2.5.1 2.9-1 .4-.9 1.6-1.6 2.7-1.6 1.3 0 2-.7 2-2 0-3.1 1.7-2.4 4.6 1.9zm-57.6 0c0 .6-.5 1.3-1.1 1.7-1.4.8.5 2.9 2.7 2.9 1.3 0 5.3 6.2 7.8 12 .3.5 1.1.2 2-.8 1.9-2.4 5-1.8 5.4 1.1.3 1.9-.1 2.2-3 2.2-5.2-.1-10.9-2.6-13.6-5.9-1.3-1.7-2.8-3.1-3.4-3.1-1.3 0-6.8-3.9-6.8-4.9 0-1.1 7.2-6.1 8.7-6.1.7 0 1.3.4 1.3.9zm-244 3c0 1.6-.6 3.2-1.2 3.5-1 .3-.9.8.3 1.5 1.3.8 1.4 1.9.8 5.8-.4 2.6-.8 6.9-.8 9.4-.1 3.4-.6 4.9-1.7 5.3-2.3.9-2.9 0-1.3-2 1.1-1.4 1.1-1.8-.4-2.9-1.6-1.1-1.5-1.3.3-3 2-1.8 1.9-3-.3-3-1.7 0-2-2.5-.3-3.1 2.3-.9 1.9-3.1-.6-3.8l-2.3-.6 2.3-1.8c2.1-1.6 2.2-2 .8-3.1-3-2.5-1.7-4.8 2.7-5 1.2-.1 1.7.7 1.7 2.8zm263-.9c0 .5-.2 1-.4 1-.3 0-.8-.5-1.1-1-.3-.6-.1-1 .4-1 .6 0 1.1.4 1.1 1zM78.1 659.5c0 5.9-.2 11-.5 11.3-.4.3-.6-4.8-.6-11.3 0-6.5.2-11.6.5-11.3.3.3.6 5.4.6 11.3zm189.5-6.6c2 1.6 3.1 1.8 5.7 1 2.5-.7 3.7-.5 5.7.9 1.4 1.1 4.2 2.2 6.4 2.6 2.1.4 5 1.9 6.5 3.4 2 2 3.7 2.7 7.1 2.9 11.8.5 23 2.2 28 4.2 7.4 3 20.6 5.4 35.9 6.5 5 .4 7.6 1.9 6.4 3.9-.9 1.6-16.7-.6-25.7-3.5-9.3-3.1-12.6-3.5-16.4-2.3-1.9.6-2.4.3-2.9-1.3-.5-2.2-3.8-3.6-11-4.6-3.4-.5-4.3-.3-4.7 1.2-.5 1.5-1.9 1.8-8.4 2-4.2.2-11.7 1.4-16.7 2.7-4.9 1.3-11.7 2.8-15 3.4-6.6 1.2-10.8 4.2-8.7 6.3 1 1 1.8.9 4.1-.5 1.6-.9 6.4-2.2 10.7-2.8 4.4-.6 9.3-1.7 10.9-2.5 1.7-.9 7.1-1.8 12.5-2.1 7.1-.4 9.8-.9 10.8-2.2 1.2-1.5 1.4-1.5 2.3.1 1.3 2.4 19.3 6.5 21.4 4.8 1.6-1.3 2.8-1 12.8 2.7 4.8 1.8 6.7 3 6.7 4.2 0 1.3 1.6 2.2 6.3 3.6 3.4.9 6.8 1.9 7.5 2.1.7.2 1 .9.6 1.5-.3.6.3 2.3 1.4 3.9 1.1 1.5 1.7 3.1 1.3 3.6-.4.5-.5 4-.2 7.8.7 7.1 2.3 9.6 6.3 9.6 2 0 2.7 2.1 3 10l.3 5.5-95.9.3c-53.1.2-96.2 0-96.7-.5-1.3-1.3-2.3-25.3-1-25.3.5 0 1.4.8 1.9 1.7 1.2 2 4.7 2.1 16.7.4 9.3-1.4 12.7-2.4 23-7.1 4.5-2 6.4-2.5 7.7-1.7 1.2.8 3.2.4 7.9-1.7 7.8-3.6 12.9-6.6 12.9-7.6 0-2.1-2.2-1.6-10.1 2-8 3.8-8.4 3.9-9.1 2-.7-1.9-1.2-1.8-9 2.4-9.3 4.9-18.1 8.1-20.3 7.2-.8-.3-2.8 0-4.5.6-2.5.8-3.4.7-5-.7-1.2-1.1-2.8-1.5-4.7-1.1-1.5.3-4.4.2-6.3-.2-3.1-.7-3.5-1.2-4.3-5.2-1.8-9-1.8-9.1 4.3-11 9.5-3 12-3.4 12-1.6 0 3.6 3.9 2.9 16.5-2.9 3.9-1.8 7.8-3.5 8.8-3.8.9-.4 1.7-1.3 1.7-2 0-.8 1.5-1.8 3.3-2.3 4.6-1.4 4.2-3.8-.8-4.4-4.5-.6-3.5-1.9 1.6-2.1 1.9-.1 7.4-1.5 12.3-3.1 4.8-1.6 9.4-2.7 10.2-2.4.8.3 2.2-.4 3.2-1.5 3.8-4.6 8.4-8.9 9.4-8.9.5 0 2.1.9 3.4 1.9zm-19.2 1.5c.9 1.3.7 2-.7 3.1-2.6 1.9-8.7 2.9-10.1 1.5-.8-.8-.7-1 .4-.5 1.6.5 7-3.8 7-5.6 0-1.5 2.2-.6 3.4 1.5zm36.3-1.8c-.3.3-1.2.4-1.9.1-.8-.3-.5-.6.6-.6 1.1-.1 1.7.2 1.3.5zm36.4.7c-.1 1.2-1.5.9-1.9-.4-.3-.6.1-1 .8-.8.6.3 1.1.8 1.1 1.2zm152 4.1c.1.6.1 1.8 0 2.7-.1.9.5 1.9 1.3 2.2.9.4 1.3 1.3 1 2-.3.9.7 2.3 2.5 3.6 3.8 2.7 3.2 5.6-1 4.7-1.9-.4-3.4 0-4.5 1.2-1 .9-3.5 1.8-5.6 1.9-3.6.1-4.9-.9-2.8-2.2 1.9-1.2 1-3-2.3-4.5-3.9-1.8-4.5-4.2-1.7-7 1.7-1.7 2.9-2.1 5.1-1.6 2.3.4 2.9.2 2.9-1.2 0-3.5 4.8-5.2 5.1-1.8zm-152.5 1.7c.9 1.6-1.8 3-3.3 1.7-.7-.6-1-1.4-.7-1.9.7-1.3 3.1-1.1 4 .2zm121.9 4.4c1 3 2.4 6 3.1 6.6 1.8 1.5 1.8 5.3-.1 6.9-.8.7-2.8 4-4.4 7.4-3.8 8-10.1 15.1-16.4 18.3l-5.1 2.5 2.8-3.3c1.9-2.2 2.6-3.9 2.2-5.4-.4-1.4 0-2.8.9-3.5 1.5-1.3 2.1-5 .8-5-.5 0-1.9.9-3.3 2-3.1 2.5-5.3 2.6-4.6.2.3-.9.8-5 1.2-8.9l.7-7.3 5.2-2.9c2.8-1.6 6.4-4.3 7.8-6 1.4-1.7 3-3.1 3.6-3.1.6 0 1.5-.9 2.1-2 .6-1.1 1.2-2 1.4-2 .2 0 1.2 2.5 2.1 5.5zm-111.5.6c0 1.4-3.6 1-5-.6-2-2.4-.2-3.7 2.6-1.9 1.3.9 2.4 2 2.4 2.5zM62.5 664c1.1 1.8-1.5 5-4 5-3.4 0-3.6-4.6-.2-5.3 1.2-.2 2.5-.5 2.9-.6.4 0 1 .3 1.3.9zm-1 9.6c0 1.3-.8 2-2.7 2.2-3.2.4-3.9-2.1-1-3.7 2.3-1.4 3.7-.8 3.7 1.5zm353.5.3c2 3.9 2 3.9-16.1 12-2.5 1.2-5 2.1-5.7 2.1-1.7 0-2.6 2.1-1.2 3 1.6 1 6.9-.5 14.4-4.1 6.9-3.4 9.1-3.2 8.3.9-1.9 10.2-5 14-16 19.6-8.7 4.4-10.2 4.8-16.9 5l-7.3.1-.3-3.3c-.3-3.1-.2-3.2 3.2-3.2 5.1 0 4.8-2.6-.4-4-4.2-1.1-5.6-3.2-1.9-2.7 3.6.4 3.2-1.9-.6-4.3-2-1.2-3.4-2.7-3.2-3.4.2-.6 2.5-1.3 5-1.6 2.6-.3 5.2-1.1 5.9-1.8.7-.7 1.8-1.2 2.5-1.2 2.5 0 21.8-9.7 24.6-12.3 3.3-3.2 4.3-3.3 5.7-.8zm-198 .1c0 .5-1.9 1.9-4.2 3.1l-4.3 2.1 3.5-3.1c3.7-3.2 5-3.7 5-2.1zm-166 .9c0 1.7-2.5 3-4 2-1.3-.8-1.3-1 0-1.9 1.9-1.2 4-1.3 4-.1zm141.8 1.9c2.3.1 4.2.6 4.2 1 0 .7-13.7 4.6-16.5 4.7-1.1 0-1.9-3-1.2-4.9.5-1.1 1.5-1.2 13.5-.8zm-130.4 2.8c.3.9.6 4.5.6 8 0 5.7-.2 6.4-1.9 6.4-2.7 0-3.7-3.7-1.7-5.9 2.1-2.3 2-2.8-.4-3.4-2.5-.6-2.6-4.2-.2-5.6 2.4-1.4 2.9-1.3 3.6.5zm19.3 1.6c-.3.7-.5.2-.5-1.2s.2-1.9.5-1.3c.2.7.2 1.9 0 2.5zm-30.9-1c-.3.7-1.5 1.4-2.9 1.6-2.4.4-2.4.3-.4-1.2 2.4-1.9 3.8-2 3.3-.4zM207 680c-.8.5-1.9 1-2.5 1-.5 0-.3-.5.5-1s2-1 2.5-1c.6 0 .3.5-.5 1zm160.5 2.9c.3.5 0 1.3-.5 1.6-1.5.9-8-.4-8-1.5 0-1.3 7.7-1.3 8.5-.1zm-317 3.1c-.3.5-1.3 1-2.1 1s-1.2-.5-.9-1c.3-.6 1.3-1 2.1-1s1.2.4.9 1zm-.5 6c0 .5-.7 1-1.5 1s-1.5-.5-1.5-1c0-.6.7-1 1.5-1s1.5.4 1.5 1zm392.9 8.4c.6 4.1 1.8 9.5 2.7 12.2.9 2.6 1.4 6.3 1.1 8.3-.3 2.4.2 4.5 1.3 6.1 1 1.4 2 5.4 2.4 9 .5 4.7 1.8 8.5 4.7 13.8 6 11.2 5.3 13.3-4.2 13.7-3.5.2-7-.2-7.6-.7-1.8-1.4-4.4-.2-3.7 1.7.3.8.1 1.5-.5 1.5s-1.1-.4-1.1-.9-.7-1.7-1.6-2.6c-2.3-2.2-4.9-.2-3.1 2.5 1.7 2.9 0 3.7-2.4 1.1-2.5-2.7-5-1.3-4.1 2.2.5 2.2.5 2.2-1.6.4-2.2-2-5.9-1.9-5.4.1.3 1.5-1.3 1.5-3.9.2-1.3-.8-1.9-2.1-1.9-4.6 0-4.8 1.4-7 5.2-8.3 3.7-1.2 7.8-7.3 7.8-11.5 0-1.6 1.2-3.6 3-5.3 2-1.7 2.7-3 2.1-3.6-.7-.7-1.6-.6-2.6.3-2.2 1.8-1.9.1.4-1.8 1.1-1 2.2-2.8 2.6-4.1.6-2.1.4-2.3-1.3-1.9-1.6.5-2.2.1-2.4-1.6-.2-1.5-.9-2-2.5-1.8-3.4.5-2.9-2.4.6-4.3 2.2-1.1 2.8-2 2.4-3.5-.4-1.3.1-2.6 1.2-3.4 3.1-2.2.9-3.8-3.1-2.1-4.2 1.7-4.5.6-.4-1.9 4.5-2.6 9.5-8.1 11.5-12.6 1-2.2 2.1-4 2.5-4 .4 0 1.3 3.3 1.9 7.4zm-394.1-2.2c-.3.7-1.1 1.3-1.8 1.3s-1.5-.6-1.7-1.3c-.3-.7.4-1.2 1.7-1.2 1.3 0 2 .5 1.8 1.2zm368.6.3c-.4.8-.8 1.5-1 1.5-.2 0-.4-.7-.4-1.5s.4-1.5 1-1.5c.5 0 .7.7.4 1.5zM66 700.9c0 .5-.5 1.1-1.2 1.3-2.6.9.5 2.9 4 2.6 2-.1 3.7.2 3.9.8.3.8-1.2 1.1-4.2 1-4.8-.1-7.3-2.2-6.1-5.2.6-1.5 3.6-2 3.6-.5zm-16.1 3.4c.8 1.1.5 1.6-1.5 2.5-3.3 1.6-3.4 1.5-3.4-.7 0-1.7 1.1-2.8 3.1-3 .4-.1 1.2.5 1.8 1.2zm360.1 3.4c0 1.6-1.6 3.1-3.8 3.8-1.5.4-2.1 1.2-1.8 2.2.3.8.6 1.9.6 2.4s1.1 1.4 2.5 1.9c2.1.8 2.4 1.4 1.9 3.6-.4 1.5-.7 7-.8 12.3l-.1 9.6-3.3 1c-4.1 1.4-5.7 2.9-4.6 4.7.5.7.9 1.9.9 2.6 0 .7 1.3 2 2.9 3 1.9 1.1 3 2.7 3.3 4.7.7 6.2.8 12.6.2 13.7-.4.7-.2 2.3.6 3.7 1.3 2.7.9 9.4-.6 8.9-.5-.2-1.9-2.3-3.1-4.7-2.7-5.3-6.4-8.2-7.3-5.8-.4.8.5 3.1 1.9 5.1 2.5 3.8 2.5 6.6 0 6.6-.7 0-1.6-1.1-2-2.4-.3-1.4-1.4-3.2-2.5-4.2-1.5-1.4-2.1-1.4-3.4-.4-1.3 1.1-1.2 1.5.5 3.8 1.8 2.2 1.9 2.7.6 4-1.7 1.7-3.6.8-3.6-1.7 0-1-.9-2.6-2-3.6-1.9-1.7-2.2-1.7-3.7-.2-1.5 1.4-1.5 1.8 0 4 .9 1.4 1.3 2.7 1 3-.3.3-1.9-1.5-3.7-4-3.7-5.5-6.1-7.2-7.7-5.6-.8.8-.3 2.2 2 5.3 1.7 2.4 3.1 4.9 3.1 5.7 0 2.6-2.5 1.2-5-2.8-2.7-4.5-5.8-6.3-7.8-4.6-1 .8-.8 1.6 1.1 3.6 2.4 2.5 4.2 6.1 3.1 6.1-.3 0-1.7-1.4-3.1-3-1.3-1.7-3.3-3-4.4-3-2.1 0-2.5 2-.7 3.8 1.7 1.7-1.3 1.6-5.7-.2-3.1-1.3-3.6-1.3-5.6.5-3.7 3.2-13.5.6-10.7-2.8 1.7-2.1 7.3-4.8 14.3-6.9 3.3-1 7.1-2.6 8.5-3.5 1.4-.9 4.3-2.4 6.5-3.3 4.4-1.8 11.5-8.3 14.5-13.2 1.4-2.1 2.2-5.9 2.6-11.9.6-7.3 1-8.8 2.6-9.3 2.5-.6 2.3-3-.4-3.4-1.3-.2-2.4-1.1-2.6-2.1-.3-1.4.4-1.7 3.2-1.7 2.4 0 3.6-.5 3.6-1.4 0-1.6-2.1-2.6-5.8-2.6-3.7 0-1.6-1.7 3.3-2.8 2.5-.5 4-1.4 4-2.2 0-1.2-1.2-1.4-5.2-1.2-6.8.3-6.8-1.3-.1-2.7 6.4-1.4 11.8-4.7 11.8-7.1 0-1.1 1.5-2.6 3.8-3.8 3.9-2.2 6.2-2.7 6.2-1.5zm-341.1 2.9c4.2.9 3.9 2.2-.6 2.6-4.7.4-5.2 3-.9 3.8 4.4.8 4.4 2.8-.1 3.2-2.7.2-3.8.8-3.8 1.9 0 .9-.6 2.3-1.3 3.1-1.6 2-.1 3.3 5.1 4.2 3.4.6 5 2.7 2.9 4-1 .6-9.3-1.4-10.9-2.7-1.9-1.4-1.6-4.5.7-7.4 1.1-1.4 2-3.8 2-5.4 0-3.4 1.6-7.9 2.9-7.9.4 0 2.3.3 4 .6zm348.5 11.9c-.3.8.6 2.9 2 4.8 3.4 4.4 3.3 4.9-.6 4.5-3.1-.3-3.3-.5-3.6-4.7-.4-4.9.3-7.5 1.7-6.6.6.3.8 1.2.5 2zM70 725c0 1.3-2 1.3-4 0-1.2-.8-.9-1 1.3-1 1.5 0 2.7.4 2.7 1zm310.1 12.2c.5.7.9 2.1.9 3 0 1.7-3.1 1.8-51.7 1.8-28.5 0-72.5.2-97.8.5-43.1.5-52.5.2-52.5-1.4 0-.3 1.2-1.4 2.5-2.4 2.3-1.6 7-1.8 63.7-2.2 33.6-.3 61.4-.7 61.6-.9.2-.3 16.6-.3 36.4-.1 28.6.3 36.3.6 36.9 1.7zm42.4.8c.9 2.9-.2 4-4.1 4-3.1 0-3.4-.2-3.4-3s.3-3 3.4-3c2.6 0 3.6.5 4.1 2zm-262.6 13.2c-.2 9.9-.1 11.3 1.4 11.6 1.4.3 1.7-.5 1.7-5 0-2.9.3-7.7.6-10.6.6-4.2.9-5 2-4.1 1.5 1.2 1.8 6.3.7 14.7-.5 4.8-1 5.6-4.5 7.9-2.1 1.4-3.9 2.4-4.1 2.2-.8-1.3.6-27.9 1.5-27.9.6 0 .9 4.3.7 11.2zm261.5-4.4c.8 1.3-4.4 7.2-6.5 7.2-2.3 0-2.3-.1-.2-4.5 1.2-2.5 2.3-3.5 3.9-3.5 1.3 0 2.5.4 2.8.8zm-291.7 31.8c-.3.3-1.2.4-1.9.1-.8-.3-.5-.6.6-.6 1.1-.1 1.7.2 1.3.5z"/><path d="M342.5 231c-.3.5-.1 1 .4 1 .6 0 1.1-.5 1.1-1 0-.6-.2-1-.4-1-.3 0-.8.4-1.1 1zM345.2 232.6c-2.9 2-2.8 2.8 1 7.5 3.5 4.4 4.2 4.6 8.7 2.3 4.1-2.1 3.5-3.8-1.5-4.2-4.6-.4-6.3-1.7-4.6-3.4 1.6-1.6 1.5-3.8-.1-3.8-.7 0-2.3.7-3.5 1.6zM129.5 250.9c-.3.5-.1 1.2.5 1.6 1.8 1.1 1.1 3.5-.9 3.2-2.2-.2-2.3.4-.7 4.5.6 1.6 1.5 2.8 2.2 2.8 1.3 0 3.7-2.6 5.3-5.8 1-1.9.8-2.5-1.5-4.7-2.9-2.7-4-3-4.9-1.6zM399.6 293.9c-.4.5-.2 1.2.3 1.5.5.4 1.2.2 1.5-.3.4-.5.2-1.2-.3-1.5-.5-.4-1.2-.2-1.5.3zM366 301.2c-2.2 4.8-2.5 6.8-1 6.8.5 0 1.7-1.7 2.5-3.7.9-2.1 2.3-4.5 3.2-5.5 1.5-1.7 1.5-1.8-.6-1.8-1.6 0-2.7 1.1-4.1 4.2zM392.2 298.4c.1 1 .8 1.7 1.3 1.7 1.5-.1 1.2-2.4-.3-2.9-.9-.3-1.3.2-1 1.2zM411.4 297.1c-1 1.7 1.3 3.6 2.7 2.2 1.2-1.2.4-3.3-1.1-3.3-.5 0-1.2.5-1.6 1.1zM441 302.8c0 2.2 1.3 4.2 2.7 4.2 2.1 0 1.2-4.4-.9-4.8-1-.2-1.8.1-1.8.6zM379.2 316.6c-1.2.8-2.2 2.2-2.2 3 0 1.7-1.2 1.8-2.7.3-.6-.6-1.6-.8-2.2-.5-1.7 1.1-1.3 2.6.4 2 1-.4 1.5 0 1.5 1.3 0 2.8.8 3.3 4.1 2.1 3.2-1.1 4.9-3.5 4.9-6.7 0-2.8-1.3-3.3-3.8-1.5zM431.6 342.2c-.2 1.3-.9 5.7-1.5 9.8-.6 4.1-1.4 8.6-1.8 10-.5 2.1-.3 2.3.8 1.2 2.7-2.5 6.4-23.2 4.1-23.2-.7 0-1.4 1-1.6 2.2zM417 346.1c-1.8 2.2-4.4 7.1-5.7 10.7-1.4 3.7-3.2 8.2-4 10-1.5 3.4-1.3 4.9.6 3.7.6-.3 1.1-1.6 1.1-2.8 0-1.2 1-3.8 2.2-5.7 1.3-1.9 2.9-5.3 3.8-7.4.8-2.2 2.1-4.1 2.9-4.4 1-.3 1.2 0 .7 1.4-.4 1.1-1 4.4-1.3 7.4-.3 3-1.3 6.6-2.2 8-1.7 2.5-4.1 7.6-4.1 8.6 0 .3.5.2 1-.1 2-1.3 6.9-13.1 8.5-20.5.8-4 2-7.9 2.6-8.7.9-.9.8-1.7-.1-2.8-1.8-2.2-2.3-1.9-6 2.6zM437.5 345.5c-.3.8-.7 2.2-1 3.1-.3.8-.8 6.8-1.1 13.2-.6 11.5-2.6 19.9-6.9 28.2-.9 1.8-1.1 3.1-.5 3.5 1 .6 5-7.5 7.9-16.5 1.1-3.3 2.1-10.1 2.4-17 .4-6.3.9-12.5 1.3-13.8.7-2.5-1.4-3.2-2.1-.7zM351.1 353.4c-.9 1-.8 1.6.4 2.6 2.1 1.7 5.1-.6 3.4-2.6-.6-.8-1.5-1.4-1.9-1.4-.4 0-1.3.6-1.9 1.4zM364.3 353.7c-1.8.7-1.6 3.8.2 5.3s4.3.7 5.2-1.6c.4-1.1-.1-2.2-1.2-3-2-1.5-2.3-1.5-4.2-.7zM353.3 363.6c-2.5 2.5-2.7 4.2-.8 10.1.5 1.6.2 2.4-1.4 3.3-1.8.9-2.3.8-2.9-1.1-.8-2-.9-2-2.5-.4-2 1.9-2.3 5.9-.5 5.3.7-.3 2.3.8 3.6 2.4 1.3 1.5 3.4 2.8 4.5 2.8 1.2 0 3.1.7 4.1 1.5 1.1.8 4 1.5 6.5 1.6l4.6.1-3.4 1.4-3.4 1.5 2.9 3.2c1.6 1.8 3.2 3.6 3.6 4.1.4.5 1.4.4 2.3-.4.8-.7 1.8-1 2.2-.7.3.4 1.2.2 2-.5 1.1-.9 1.7-.6 2.9 1 2.3 3.3 3.7 2.7 3.1-1.3-.6-3.9-.1-4.4 1.9-1.8 1.2 1.7 1.3 1.7 2-.1.6-1.5-.2-2.8-3.7-5.8-2.4-2.1-5-3.8-5.7-3.8-1.9 0-2.7 3.1-1.1 4.2 1 .7.7.8-1.1.4-1.4-.3-2.9-.6-3.3-.6-.4 0-.3-.9.3-2 .6-1.2.9-3.7.5-5.7-.3-2.4-.1-3.9.9-4.7.7-.6 1.6-3.4 1.9-6.1.5-4 .4-4.5-.4-2.5-1 2.3-1.1 2.4-2.3.7-.8-1-2.6-1.7-4.4-1.7-2.2 0-3.2-.6-3.7-2-.8-2.6-3.3-5-5.1-5-.8 0-2.6 1.2-4.1 2.6zM423.7 367.7c-.4.3-.7 1.1-.7 1.7 0 .6.5.5 1.2-.2.6-.6.9-1.4.7-1.7-.3-.3-.9-.2-1.2.2zM410.5 381c-.3.5-.2 1 .4 1 .5 0 1.3-.5 1.6-1 .3-.6.2-1-.4-1-.5 0-1.3.4-1.6 1z"/><path d="M381.5 385c-.3.5-.1 1 .4 1 .6 0 1.1-.5 1.1-1 0-.6-.2-1-.4-1-.3 0-.8.4-1.1 1zM347 419c-1.3.9-1.3 1.1 0 1.9 1.6 1.1 4.3-.5 3.4-2-.7-1.1-1.5-1.1-3.4.1zM441.4 330.1c-1 1.7 1.3 3.6 2.7 2.2 1.2-1.2.4-3.3-1.1-3.3-.5 0-1.2.5-1.6 1.1zM89.3 344.7c-2 .8-1.5 3.3.6 3.3 1.9 0 3.5-2.3 2.4-3.4-.7-.7-1.3-.7-3 .1zM358.2 438.6c.4 2.1 2.2 2.3 2.6.1.2-1-.3-1.7-1.3-1.7s-1.5.6-1.3 1.6zM360 446c-1.2.7-1.2 1.2-.2 2.2.9.9 1.5.9 2.4 0 1.6-1.6-.2-3.4-2.2-2.2zM91.5 448.2c-1.1.6-2.2 1.2-2.4 1.4-1.3 1.1-2.2 12-2.6 32.7-.2 13.1-1.1 27.9-1.9 33-.8 5.1-1.7 11.9-2.1 15.2-.3 3.3-.8 6.7-1 7.5-.3.8 0 2.2.5 3 1.9 3 3-.8 4.9-16.1 1.8-14.7 2.4-22.1 3.6-44.4.9-16.8 1.5-21.8 3.2-26.8 1.9-5.3 1.1-7.3-2.2-5.5zM100.6 447.8c-1.5 2.4-4.5 20.7-3.6 21.6 1.6 1.6 2.8-.5 4-7.4.7-3.6 1.4-7.6 1.7-8.9.2-1.4.8-2 1.3-1.5s.3 3.4-.5 6.9c-1.9 7.8-1.9 12.9 0 14.5 1.2 1 1.6 1 1.9-.1.5-1.7 1.9-16 2-21.4.1-3.8-.1-4-3.1-4.3-1.7-.2-3.4.1-3.7.6zM423.2 467.2c.6 1.8 2.8 2.1 2.8.4 0-.9-.7-1.6-1.6-1.6-.9 0-1.4.5-1.2 1.2zM431.1 482.6c0 1.1.3 1.4.6.6.3-.7.2-1.6-.1-1.9-.3-.4-.6.2-.5 1.3zM392.2 465.2c.6 1.8 2.8 2.1 2.8.4 0-.9-.7-1.6-1.6-1.6-.9 0-1.4.5-1.2 1.2zM400.2 497.2c.6 1.8 2.8 2.1 2.8.4 0-.9-.7-1.6-1.6-1.6-.9 0-1.4.5-1.2 1.2zM403.7 507.1c-.5 1.7 0 3 1.3 4.4 2 1.9 2 1.9 2 0-.1-1.1-.7-3.1-1.4-4.4l-1.3-2.3-.6 2.3zM368.2 500.7c-.5 1.1-.3 3.2.4 5.3 1 2.7 1.3 3 1.3 1.2.1-1.3.7-2.2 1.6-2.2 2.2 0 1.8-3.7-.5-5-1.5-.8-2.1-.7-2.8.7zM346 513c0 .5.7 1 1.5 1s1.5-.5 1.5-1c0-.6-.7-1-1.5-1s-1.5.4-1.5 1zM418 520c0 .5.7 1 1.5 1s1.5-.5 1.5-1c0-.6-.7-1-1.5-1s-1.5.4-1.5 1zM424.1 535.9c-1.5 1-.8 4.1.9 4.1 1.5 0 2.5-2.9 1.4-4-.5-.5-1.5-.5-2.3-.1zM388.2 528.3c-.9 1.1-.6 1.8 1.3 3.5 2.1 1.8 2.7 2 3.1.8 1.5-3.9-2-7.3-4.4-4.3zM444.8 533.7c-2.8.7-2.2 3.3.7 3.3 1.5 0 2.5-.6 2.5-1.4 0-1.8-1-2.4-3.2-1.9zM445.5 549c-.7 1.2.2 3 1.6 3 1.2 0 1.2-2.7 0-3.5-.5-.3-1.2-.1-1.6.5zM412.3 549.1c-.9.9-.9 1.6-.2 2.5 1.4 1.7 5.1.5 4.7-1.5-.4-2-3-2.5-4.5-1zM345.5 556.9c-.9 1.6.3 3.1 2.6 3.1 1.4 0 1.9-.6 1.7-1.7-.4-2-3.3-2.9-4.3-1.4zM338.5 680.9c-.3.5.2 1.7 1.1 2.5 2 2 6.4 2.1 6.4.1 0-2.6-6.1-4.7-7.5-2.6zM184.5 689c-.4.7 0 1.9.9 2.8 1.3 1.3 2 1.4 3.4.6.9-.6 1.7-1.7 1.7-2.5 0-1.7-5-2.4-6-.9zM437.1 675.7c-.8 1.8-.9 2.9-.1 3.7 1.3 1.3 2.6-.1 3.5-3.7.9-3.6-1.7-3.7-3.4 0zM406.3 688.7c-.7.2-1.3 1.1-1.3 1.9 0 1.5 1.2 1.7 4.8.8 1.2-.4 2.2-1.3 2.2-2 0-1.4-3.2-1.8-5.7-.7zM285.3 327c-3.6 1.5-2.8 3.3 1 2.5 4.1-.9 4.9-1.4 4.2-2.6-.7-1.1-2.3-1.1-5.2.1zM452.3 684.2c.2.7.9 1.3 1.5 1.2.7-.1 2.6-.2 4.3-.3 4.5-.2 2.5-2.1-2.2-2.1-2.8 0-3.9.4-3.6 1.2zM464.5 686.1c-.9 1.4-.8 1.4 5 2.7 2.8.6 6.9 1.6 9.3 2.3 3 .8 4.6.9 5.4.1 1.8-1.8 0-3-7.2-4.6-8.1-1.9-11.6-2-12.5-.5zM463.6 804.1c-2.2 1.8-2.6 2.6-2 5.4.6 3.1.4 3.3-3.8 4.6-5.4 1.7-5.6 4-.5 5.4 3.8 1.1 6 3.2 5.1 4.7-.3.4-2.3.8-4.5.8-4 0-9.9 2.3-9.9 3.9 0 1.8 2.7 3 8.5 3.8 3.2.4 5.9 1.2 6 1.8 0 .5-2.4 1.2-5.2 1.5-5.8.6-9 2.8-7.9 5.5.6 1.6.8 1.6 3.2.1 1.6-1.1 4-1.6 6.7-1.4l4.2.3.1 6.5c.1 7.9 1.4 17 2.4 17 2 0 2.8-3.1 2.4-10-.4-8.5.1-9.8 3.6-9.6 1.6.1 2.5-.4 2.5-1.4 0-.9-1-1.5-2.5-1.5s-2.5-.6-2.5-1.5c0-1.1 1.7-1.6 7-2 6.4-.5 7-.7 7.3-2.9.5-3.4-.8-4.2-7.4-4.8-10.7-.8-11.5-2.5-1.3-2.7 3.9-.1 6.4-.6 6.6-1.3.3-.9-1.7-1.3-6.9-1.5-5.7-.2-7.3-.6-7.3-1.8 0-.9.8-1.4 2-1.2 3.5.4 13.5-1 13.5-1.9 0-.4-3.4-.9-7.5-1.1-8.3-.3-10.5-2-3.6-2.8 6.5-.7 6.6-3 .2-3-4.3 0-5.1-.3-5.1-1.9 0-1.6.7-1.8 4.4-1.5 3.2.2 5.1-.2 6.8-1.5 2.2-1.9 2.3-1.9.4-4-2.7-3-11.2-3-15 0zm10.4.8c0 1.1-2.5 2.1-5.1 2.1-1.9 0-2.5-1.1-1.2-2.3 1-1 6.3-.8 6.3.2zM463 829c0 .5-2 1-4.5 1s-4.5-.5-4.5-1c0-.6 2-1 4.5-1s4.5.4 4.5 1zm16 5.5c0 1.5-10.2 1.3-10.8-.3-.3-1 .9-1.2 5.2-1 3.1.2 5.6.7 5.6 1.3z"/></svg>