<svg version="1" xmlns="http://www.w3.org/2000/svg" width="666.667" height="1170.667" viewBox="0 0 500 878"><path d="M223.4 10.1c-.9 1.5.6 2.7 4.1 3.1l3 .3.3 11.2.3 11.3H228c-2 0-3 .5-3 1.5 0 1.3 3.2 1.5 23.9 1.4 13.1-.1 24.4-.5 25.1-.9 2.5-1.6-.1-3.2-4.1-2.6l-3.9.6V24.5c0-12.3-.3-11.5 5-11.9 2.2-.1 4.1-1.6 3.5-2.7-.9-1.3-50.2-1.2-51.1.2zm36 13.1c.7 10.6.1 12.8-3.5 12.8-2.8 0-3.2-1.7-3.1-12.4.2-10.2.8-11.8 4.2-10.9 1.4.4 1.8 2.1 2.4 10.5zm-13.9.4c.4 6.6.3 11-.3 11.6-.5.5-2.2.8-3.8.6l-2.9-.3-.8-9.8c-.5-5.4-.6-10.4-.3-11.2.3-.9 1.9-1.5 3.9-1.5h3.5l.7 10.6zM242 55.1c-2.4.5-8.9 2.3-14.3 4-8.3 2.6-10.2 3.6-11.7 6.2-2.1 3.4-1.5 5.6 2.4 8.9 1.6 1.4 3.3 1.8 7.3 1.5 6.3-.4 7.6.7 12.1 9.8 3.1 6.2 10.2 23.4 10.2 24.6 0 .3-1.4.9-3 1.3-2.2.4-3.5 1.5-4.4 3.8-1.7 4-1.2 5.4 2.6 6.7l3.1 1.1-1.9 2.3c-1.1 1.2-3.5 5.3-5.4 9.2-1.9 3.8-4 7.7-4.7 8.6-1.6 2-5.3 9-5.3 10.1 0 .4.6.8 1.3.8.7 0 3.5-3.6 6.1-8 2.6-4.4 5.1-8.2 5.5-8.5.5-.2 1.9-3.2 3.1-6.5 1.9-5.2 2.8-6.3 5.9-7.6 4.3-1.8 10.4-.8 10.9 1.9.3 1.5-.2 1.7-3.5 1.1-5.1-.8-8.1 2.3-8.8 8.9-.2 2.7-1.2 6.4-2.2 8.4-.9 2-1.7 4.5-1.9 5.7-.1 1.1-1.1 4.5-2.2 7.4-1.1 2.9-2.6 8.5-3.2 12.5-.6 4-1.9 8.3-2.8 9.7-.9 1.4-4.4 8.6-7.8 16.1-3.3 7.4-7.6 15.6-9.5 18l-3.3 4.5-2.1-2.4c-1.3-1.5-3.5-2.5-6.5-2.9-5.6-.7-6.7-1.6-8.1-6.3-1-3.2-.8-4.6 1-9.5 3.8-10.2 5.4-12.5 21.9-31.8 2.8-3.4 5.2-6.5 5.2-6.9 0-1.9-2.2-.5-5.7 3.8-2.1 2.5-7 8.3-10.9 12.9-3.9 4.6-8.8 11.3-10.8 14.9-3.6 6.3-5.6 7.7-5.6 3.6 0-1-1.8-3.3-4.1-5-3.4-2.7-3.9-3.7-3.4-5.9.3-1.6 0-3.4-.9-4.6-1.9-2.5-1.9-4.9-.2-9.5.8-1.9 3-8 5-13.5 5-13.9 7.8-19.5 9.7-19.5 2.1 0 4.9-3.2 4.9-5.6 0-6-6-7.4-36.5-8.9-18.3-1-30.2.4-34.9 4-5.2 4-5 9.3.6 11.4 3.4 1.3 9.1 10.2 11.9 18.4 1.8 5.4 4.1 10 9.9 19.2 1.4 2.2 1.3 2.6-1.4 5.4-2.3 2.4-2.6 3.2-1.7 4.9.6 1.2 2.5 2.9 4.1 3.9 3.5 2 3.9 5.2 1 7.8-1.3 1.2-1.8 2.5-1.4 3.8.3 1 .7 4.9.8 8.5.1 3.7.7 7.6 1.3 8.6.8 1.4.8 2.6 0 4.3-.9 2-.6 2.8 1.8 5.3 2.7 2.9 2.8 2.9 1.3 7.4-.9 2.6-1.2 4.6-.8 4.6 1 0 4.1-7.6 3.7-9.2-.1-.7.6-1.4 1.6-1.6 1.6-.3 1.8 0 1.2 1.8-.4 1.4-.2 2.5.5 3 2 1.3.3 5.6-3.7 9.5-5.4 5.3-7.4 8.5-6.3 10.5 1.2 2.2 1.6 8.2.7 9.7-2 3.2 8 19.3 11.8 19.3 1.3 0 3.5 4.2 3.5 6.7 0 1-1.4 3.2-3.2 5-2.2 2.2-3.3 4.6-3.7 7.5-.6 4.1-.7 4.2-4.4 4.3-7.4.3-11.5 8.5-8.8 17.7 1.6 5.1-.4 8.8-4.9 8.8-5 0-6.3 2.4-5.6 10.1.8 7.4.8 7.3-9.7 29.9-1.9 4.1-4.2 9.8-5.1 12.7-.9 2.8-4 10.3-6.7 16.5-8 17.9-11.7 29.1-12.4 36.9-.2 2.4-1.2 6.5-2.4 9.1-1.1 2.6-1.9 5.9-1.8 7.4.1 1.5-.4 2.9-1.2 3.2-1.1.4-1.2-.8-.6-5.9 1.7-15.5 3.5-25.3 5-26.9 1.2-1.3 1.4-2.8 1-5.2-.5-2.7-.2-3.7 1.9-5.7 2.1-1.9 2.3-2.7 1.5-4.4-.9-1.5-.7-2.5 1-4.7 1.8-2.5 1.8-3 .5-4.1-1.3-1.1-1.2-1.5 1.1-3.8 2.3-2.5 2.4-2.8.8-4.3-1.5-1.6-1.4-1.8 1-2.9 2.8-1.3 3.4-2.4 1.7-3.4-2-1.3-1-4.5 2-6 3.2-1.7 4-3.5 1.4-3.5-2.8 0-1.1-3.5 1.9-3.8 3.4-.4 3.5-2 .1-3.2-3.3-1.3-2.6-3.4 1.2-3.8 5.5-.5 6.1-1.1 3.4-3.2-2.6-2-2.8-1.8 2.6-3.5.9-.3 1.3-1.2 1-2.3-.5-1.3.2-2.1 2.7-3 2.4-.9 2.8-1.5 1.8-2.1-.7-.5-2.2-.6-3.3-.3-2.6.6-2-1.9.8-3.3 1-.6 3.1-2.2 4.6-3.8 2.7-2.7 2.7-2.7.9-6-2.4-4.3-5.6-4.5-10.1-.8-4.2 3.5-3.3 5.4 1.1 2.2 6.7-5 5.8 2.4-.9 7.8-4.4 3.4-6.2 3.9-6.2 1.6 0-2.4-5.7-2-6.5.5-.8 2.7 0 3.8 4.1 5.5 4 1.7 4.3 3.2 1 4.5-1.4.5-2.9 1.7-3.5 2.8-.5 1-2.7 2.4-4.9 3-5 1.5-5.2 1.5-5.2-.3 0-.8-.4-1.5-.9-1.5s-1.4.7-2.1 1.5c-1.6 1.9-5 2-5 .1 0-.8-1.3-3-3-4.8-1.6-1.8-3.1-4.4-3.1-5.8-.2-2.4-.4-4.5-.8-6.5-.1-.6-.8-.1-1.6.9-1.7 2.3-2 9.2-.5 10.1 1.5.9 4.1 7.5 3.4 8.6-1.1 1.9-2.4.7-3.4-3.4-.6-2.3-2.1-6.5-3.4-9.2-1.3-2.8-2.6-6.4-3-8.1-1-4.5 1.9-16 4.9-19.6 1.4-1.6 2.5-3.5 2.5-4.2 0-.7 1.3-3 2.9-5.1 1.6-2.2 2.7-4.5 2.4-5.2-.9-2.4-3.4-1.3-4.9 2.2-.8 1.9-2.1 3.5-2.9 3.5-2.2 0-1.9-.7 2.3-5.9 2.1-2.5 4.4-6.1 5.1-7.9.8-1.7 2.1-3.2 3-3.2.9-.1 2.8-1.1 4.3-2.3 3.2-2.6 5.2-10.2 5-18.7-.1-3-.1-6.6-.1-8v-4.5c-.1-1.1-.1-5.6-.2-9.9 0-5.1-.6-8.7-1.4-10-1.3-1.7-1.2-2.1.8-3.1 1.7-.9 2.1-1.8 1.9-4.5-1.5-17.9-1.8-16.1 2.7-20.8 2.2-2.3 4.8-4.2 5.7-4.2 1 0 2.5-.7 3.5-1.6 1.1-1 2.3-1.3 3.1-.7 1.4.9 5.9 1.3 13 1.3 2.5 0 4.9.4 5.3 1 .3.5-.1 1-.9 1-2.3 0-2 1.3.8 3.9 3.1 2.9 3.8 7.1 2.6 14.1-1.1 6-1.6 9.2-2.5 16-.4 2.5-1.3 5.6-2.2 6.9-1.5 2.3-1.9 2.3-9.9 1.8-6.3-.3-8.6-.1-9.5.9-1.5 1.8-.5 3 3.2 3.8 2.8.5 9.9 6.8 9.9 8.8 0 .4-3.2 3.3-7.1 6.4-7.6 6.1-10.9 10.4-10.9 14.5 0 1.5-.6 3.2-1.4 3.8-1.4 1.2-3 6.5-2.7 9.2.1.9-1.4 2.6-3.4 3.8-3.8 2.2-5.8 2.1-4.9-.3.8-2-1.4-3-3.1-1.6-2.1 1.7-1.9 4.6.6 7.9l2.1 2.8-2.6 4.2c-1.4 2.2-2.6 4.5-2.6 5.1 0 3.2 5.5-2.1 8.5-8.3 4.2-8.5 6-4.9 2.5 5-2.4 6.9-2.4 6.3-.1 6.3 2 0 3.1-2.6 3.1-7.7 0-3 1.1-6.4 4.7-13.8.7-1.7 1.1-3.8.8-4.7-.3-.8.8-5 2.6-9.2 3.3-7.8 7.9-12.9 18-19.7 6.9-4.7 14.9-15.8 14.9-20.9 0-1.6-.4-3-.8-3-.5 0-3.5 3.8-6.7 8.5s-6 8.5-6.2 8.5c-.1 0-.3-1.3-.3-2.9 0-1.9 1.3-4.4 3.5-7.1 1.9-2.3 3.5-5 3.5-6.1 0-3.6 4.1-12.1 7.1-14.9 2.3-2.1 3-3.3 2.4-4.7-.4-1-.9-4.1-1-7-.3-5.7-3.1-10.4-6.6-11.3-2.4-.6-2.1-2.6.3-2.3 2.5.4 4.2-3.1 2.3-4.7-.8-.7-2.2-1-3-.6-2 .7-1.9-.3.1-2.6 1.6-1.6 1.5-1.8 0-2.4-1-.4-2.2-.2-2.9.5-2.8 2.8-7.1-.5-4.6-3.5.6-.7.8-1.8.4-2.4-1.1-1.7-3.5-1.1-6.1 1.5-3.2 3.2-5.2 3.2-6.4-.1-.8-2.1-1.5-2.5-3.4-2-1.6.4-2.9-.1-4.1-1.4-3.2-3.5-8.4-1.5-6.9 2.5.9 2.2-2 4.5-5.6 4.5-1.5 0-3.5.9-4.5 2-1.6 1.8-2 1.8-4.4.4-2-1.2-3.2-1.3-5.4-.5-3.2 1.2-3.4 2.2-.7 4.6 2.5 2.3 1.7 3.5-1.8 2.6-1.7-.5-2.7-1.4-2.7-2.7 0-2.7-3.9-2.6-4.1.1-.1 1.1-.2 2.4-.3 2.9-.1.6-.6.5-1.3-.2-.7-.7-1.6-1.2-2-1.2-1.3 0-.9 2.7.7 4 .9.8 1.1 1.7.5 2.8-.5 1-1.1 2.5-1.4 3.4-.3 1-1.1 1.5-1.9 1.3-2.4-1-5.9 3.9-5.5 7.6.3 3.1.6 3.4 3.5 3.4 4.4 0 5.2 1.3 2.3 3.5-2 1.5-2.2 2.2-1.3 3.1 1 1 1.8 1 3.8.1 3.1-1.5 3.2-.9 0 2.2-1.3 1.4-2.7 2-3 1.5-1.1-1.6-3.7-1-3.3.8.2 1 1 1.8 1.8 1.8s2.1.8 2.8 1.8c1 1.3 2.1 1.7 4.3 1.2 4.1-.9 3.8 1.6-.6 5-3.4 2.5-3.6 2.9-2.9 7 .8 5.5-.2 9.1-2.1 7.5-1.8-1.5-5.5-.3-5.5 1.6 0 2 2.7 2.9 4.5 1.4 1.7-1.4 1.7-1.5 3.3 2.3.7 1.6.9 3.9.6 5.2-.4 1.8 0 2.7 2 4 3.6 2.4 3.2 3.7-.8 3-3-.6-3.6-.3-5.6 2.5-2.2 3.1-2.2 3.4-.6 6 2.3 4 2.1 4.3-2.8 3.8-5.3-.6-8.1 1.6-9.2 7.1-.7 3.3-.7 3.4 2.2 2.7 1.6-.4 3.6-1.4 4.5-2.2.8-.8 3.2-1.4 5.2-1.4s3.9-.5 4.2-1c.3-.6 1.1-1 1.6-1s0 1.8-1.1 4.1c-2 3.8-2 4.2-.5 5.9 1.3 1.4 1.4 2.2.4 4.3-1.3 2.9 0 5.7 2.7 5.7 2.6 0 2.5 2.2-.6 7.8-2.4 4.3-3.3 7.4-3.7 12.7-.5 6.3-.2 7.6 2.5 13.5 6 12.9 7.5 26.1 4.7 41-2.8 14.6-4.4 26.6-4.9 37-.6 10.3-2.2 23.5-3.1 25-.7 1.1-3.4 15.2-3.6 18.5-.1 1.6.1 3.7.5 4.6.5 1.2-.5 2.7-3.8 5.4-6.5 5.3-10.9 12.6-10.8 18 0 5.5 3.4 13.2 7.4 16.8 2.7 2.5 2.9 3.2 2.2 6-2.3 8.2-.2 31.2 3.7 42.2 1.6 4.5 4.3 9.5 5 9.5.3 0 2.2 2.6 4.2 5.7 4.2 6.7 16.8 20 24.3 25.7 2.9 2.1 7.4 4.8 10.1 6 7.3 3.2 11.6 8.1 15.2 17.6 1.7 4.5 3.1 9.6 3.1 11.3 0 1.7.7 3.8 1.6 4.8 2.3 2.5 1.1 5.3-1.8 4.3-1.3-.5-3.3-.8-4.5-.7-1.9.1-2.3-.4-2.3-2.9 0-1.8.8-3.6 1.8-4.4 2.4-1.8 0-4.4-2.6-2.8-1 .7-3.2 1.5-5 1.8-3.9.9-5 2.5-2.9 4.1 2.1 1.5 2.2 3.1.2 3.9-2.7 1-4.5-.5-4.5-3.9 0-1.8-.8-4.2-1.8-5.4-3.5-4.4-14.2-3.5-14.2 1.2 0 2-.5 2.3-4.2 2.4-2.3.1-4.5 0-4.9-.3-.7-.4 2.5-8.6 5.2-13.7 1.4-2.6.3-3.6-3.4-3.2-1.7.2-5.8.6-8.9.9-5.5.4-5.7.3-4.8-1.5 1-1.7.7-1.9-2.8-1.9-2.4 0-4.5.6-5.3 1.6-1.1 1.4-.9 2 2 4.6 3 2.7 3.2 3.3 2.5 6.6-.4 2-.7 4.6-.6 5.8.2 1.4-.6 2.5-2.3 3.2-3.5 1.6-3.8 1.5-1.6-.7 1.4-1.4 1.9-3.4 1.9-7 .1-4.8-.1-5.1-2.4-5.1-1.8 0-2.4-.5-2.2-1.7.4-2.5-2.8-2.8-3.5-.3-.3 1.3-1.3 2-2.9 2-3.2 0-4.2-.9-6.3-5.3-2.3-4.9-5.1-6-14.6-5.5-8.8.5-13.9 3-15.9 7.8-1.7 4.2-.1 5.8 6.3 6.2 3.9.2 5.3.7 5.5 2 .5 2.5-3.5 3.4-5.9 1.3-1.5-1.5-2.1-1.6-3.4-.5-.9.8-1.3 2.1-1 3.2.4 1 .1 3.3-.5 5.2-.9 2.9-1.7 3.4-5 4-2.1.3-4.6.3-5.4 0-.9-.3-2.4-.3-3.3.1-1.6.6-1.6.8-.3 1.8.9.7 1.5 2.9 1.5 5.2.1 2.2.5 4.9.9 6 .7 1.6.7 1.8-.5.8-1.5-1.5-5.1-1.7-6.5-.4-.5.4-3 1.4-5.6 2.1L0 673.3v21.3c0 18 .2 21.4 1.4 21.4 2.3 0 2.8-1.7 1.8-5.4-.8-2.7-.6-4 .9-6.5 2.3-3.8 4.2-3.9 8.4-.3 1.7 1.5 4 3.1 4.9 3.7 1.5.9 1.2 1.3-1.9 3.8-2.8 2.2-3.9 2.6-5 1.7-1.7-1.4-4.9.1-6.6 3.1-.6 1.2-1.7 1.8-2.5 1.5-.9-.3-1.4.1-1.4 1.4 0 1.1.7 2 1.5 2 1.9 0 2.1 5.3.2 6.8-2.1 1.8-1.9 9.9.3 14.2 2.1 4.2 4.6 6 7.9 6 1.2 0 2.1.4 2.1 1 0 1.5-6.4 1.2-8.6-.5-2.7-2-3.4-1.9-3.4 1 0 1.8.7 2.6 2.6 3.1 2.2.6 2.5 1 1.8 3.3-.4 1.4-.8 4-.9 5.6-.1 1.7-.7 4-1.3 5.1-1.3 2.5-.7 3.4 2.5 3.4 2 0 2.3.5 2.3 3.7 0 4.2 2.6 10.1 5.2 11.7 2.2 1.3 6.8-.8 7.5-3.4.6-2.3 2.3-2.7 2.3-.7 0 1.7 3.2 4.7 5 4.7.8 0 2.4-1 3.7-2.2 1.7-1.6 2.6-1.9 3.4-1.1.8.8.5 1.6-1 2.9-2.9 2.5-2.6 4.2.7 4.6 1.9.2 2.8.9 3 2.5.5 3.3 5 6.6 8.2 5.8 3.6-.9 4.4-2.1 4.2-6-.3-3.6.3-4.1 2.6-2.6 1.1.7 1.1 1.2.1 2.8-1.7 2.8-.5 5.5 2.3 5.1 1.6-.2 2.4-1.1 2.8-3.2.5-3 3-4.9 3-2.3 0 3.2 3.9 6.5 8.7 7.2 4.1.6 4.9.4 6.5-1.5 2-2.5 2.3-7.6.7-13.4-.9-3.3-.8-4.1 1-6 2.4-2.6 2.5-3.6 1-10.6-.8-3.6-1.5-5-2.8-5-2.3 0-4.1 2-4.1 4.5 0 2.3-1.9 4.4-5.8 6.5-2.1 1-2.9.8-6-1.4-3-2.1-3.7-3.3-3.7-5.9 0-2.5-.5-3.3-2.1-3.5-3-.4-5.1 2.3-3.3 4.5 1.1 1.3 1.2 1.7.1 2.1-.7.2-2.2 1.3-3.2 2.4l-1.9 2-2.5-2.8c-3.1-3.6-3.2-4.2-.3-5.3 4.2-1.6 8-6 7.4-8.7-.5-3.1.3-3 3.3.1 2.7 2.9 4.2 3.1 6 1 1.2-1.5.7-4.8-1.7-11.1-.4-1 .3-1.4 2.3-1.4 1.6 0 3.6-.4 4.4-1 1.1-.7.4-1.3-3-2.8-2.5-1-5.5-2.2-6.7-2.6-3-1-2.9-2.2.2-3 3.8-1 7.6.3 11.4 3.8l3.4 3.1-.7-2.8c-.6-2.4-.4-2.7 2.1-2.7 4.4 0 5.9-1.4 4.6-4.2-2.1-4.7-6.4-8.8-9.1-8.8-2.5-.1-2.5-.2-1-1.4 1.4-1 2.7-1.1 6.5-.1 4 1 4.9 1.7 5.8 4.5 2 6 12.2 9 18.9 5.5 3.1-1.7 4.6-.8 4.6 2.6 0 .8 1.3 2.8 2.9 4.3 2.5 2.4 3.5 2.8 6.2 2.2 1.8-.3 4.6-1.7 6.3-3 5.5-4.1 7-4.6 11-3.5 4.1 1.1 4.3 1.7 1.9 6.2-2.5 4.8-3.5 14.5-1.7 17.9 2.5 4.9 8.2 6.2 14.8 3.4 4.4-1.8 19.8-2.5 21.7-.9.8.7 3.4 1.6 5.8 2.2 3.7.8 4.5.7 5.9-1 2.2-2.5 2.8-2.4 4.4.9 1.5 2.9 4.4 3.4 12.1 1.8 3.3-.7 3.7-.6 3.7 1.2 0 1.2-.5 2.4-1 2.7-1.9 1.2-1 8.3 1.5 13.1 2.2 4.1 2.5 6 2.5 14.1 0 11.2 1.5 17.9 4.2 19.4 1.1.6 9.7 1.5 19.2 2 9.4.5 17.6 1.1 18.3 1.4.7.2 1.5 0 1.8-.5.8-1.3-4.2-7.8-6.5-8.5-2.9-.9-5-6.2-5-12.2 0-3-.5-6.4-1.2-7.6-.6-1.2-1.1-5-1-8.4.1-12.1.6-13.2 4.3-11.2 4.3 2.2 15.8.6 25.6-3.7 1.7-.8 3.6-1.4 4.1-1.4.6 0 2.3-1 3.9-2.3 2.4-1.9 3.7-2.2 9-1.9 4.9.3 6.3.7 6.8 2.2.3 1 1.2 2.1 2 2.4.8.3 1.5 1.2 1.5 2 0 2-5.4 4.8-7.5 4-3.5-1.4-15.7 3.4-18.1 7.1-2.3 3.5-.8 4.9 7 6.4 3.3.6 6.7 1.7 7.5 2.5 3.4 3 9.9 5.4 16.3 6 3.7.4 8.8 1.5 11.4 2.6 8.7 3.8 16.4 3.5 16.4-.5 0-1.8-.5-1.8-2.9-.5-2.1 1.1-10.5-1.2-13.1-3.5-1-.9-2.8-1.8-4-2-1.3-.3-2.8-.9-3.4-1.5-.5-.5-2.3-1-3.9-1-2 0-3-.6-3.4-2-.6-2.3-1.4-2.5-3.1-.8-2.1 2.1-3.3-.4-1.7-3.5 1.9-3.8.1-4.3-2.5-.7-1.2 1.6-3 3-4.1 3-2.3 0-2.5-1.3-.4-3 2.3-1.9 1.8-2.7-2.1-3.2-2.5-.3-4.3.1-5.9 1.4-2.5 2-5.5 2.4-5.5.7 0-1.6 5.9-3.6 14.5-4.7 4.5-.6 8.8-1.4 9.7-1.7 1.1-.4 2 .1 2.8 1.4 1.5 3 2.9 2.6 4.5-1.3 1.7-3.9 2.6-4.3 11.1-4.5 3.9-.1 6.5.3 7.1 1.1.6.7 1.3 4.2 1.7 7.7.8 8.6 3.6 16.1 5.8 16.1 1.3 0 1.8-.8 1.8-3.1 0-1.7-.4-3.8-.9-4.8-.6-1-1.3-5.2-1.7-9.5-.6-7.2-.5-7.8 1.7-10.2 2.3-2.4 2.4-3.2 2.2-13.4-.3-9.7-.1-10.8 1.6-11.3 2.2-.5 4.6.7 8.4 4.2 3.7 3.4 6.3 2 6-3.3-.2-2.8.1-3.6 1.5-3.6 1 0 2.7-.6 3.8-1.4 1.8-1.3 2.7-1.3 7.2 0 3.7 1.1 5.6 1.2 7.1.5 1.1-.6 2.8-1.1 3.8-1.1 1.7.1 1.7.1 0 1.4-2 1.5-2.3 4.2-.4 4.8 2.5 1 3.7-.4 3.7-4.3 0-5.2-3.2-7.4-9.4-6.5-3.8.6-4.7.4-6.5-1.5-1.2-1.3-2.1-2.6-2.1-3.1 0-.4-1.5-1.5-3.2-2.4-1.8-.9-3.4-1.7-3.5-1.8-.7-.6-3.3-17.2-4.3-27.8-1.1-11.5-1-17.6.7-25.9.8-3.9-2.3-4-3.8-.2-1.4 3.5-1.7 20.3-.6 35.1l.9 11.4-2.3-.4c-4.1-.6-5.5-12.2-3.3-27.3 4.4-29 4.9-40 4.1-85.2-.2-12.3.3-16.1 1.6-11.4.2 1.1 2.2 2.9 4.3 4 2.2 1.2 4.7 2.7 5.6 3.3 1.4 1 2.4 1 5 0 2.8-1 3.5-.9 5.2.7 2.5 2.2 6 4.1 8.7 4.6 1.1.2 4.3 2.4 7 4.9 6.1 5.5 15.2 8.6 25.2 8.6 3.7 0 6.9.5 7.3 1.1.3.6.9 3.4 1.3 6.3.4 3.5 1.1 5.1 2 5.1 1.1 0 1.4-1.5 1.4-6.5-.1-4.4.1-5.5.5-3.5.4 1.7 1.5 3.1 2.5 3.3 1.3.3 1.7-.4 1.7-3.2 0-2.9.5-3.8 2.8-5 1.6-.8 3.4-2.2 4.1-3 .8-.9 1.7-1.6 2.2-1.6 1.2 0 1.1 3.6 0 5.8-2.7 4.9-5.1 23.6-5.1 38.8 0 12.2-.4 17.5-2 24.3-2 8.3-3.4 12.1-4.3 11.1-.2-.3 0-13.2.6-28.8 1-29.4.7-32.1-2.8-29.2-1.1.9-1.4 2.2-.9 4.3.3 1.6-.1 8.6-1 15.6-.8 6.9-2 17.7-2.6 23.9-1.5 15.6-1.9 17.2-4.7 18.5-3.3 1.5-5.6-.1-6.4-4.3-.7-3.3 2.1-28.5 4.2-37 .5-2.5 1.7-5.8 2.5-7.4.8-1.6 1.4-3.8 1.4-4.8 0-3.4-2.4-1.4-5.3 4.2-2.1 4.2-3.3 9.4-5.2 22-1.4 9.1-2.5 19.1-2.5 22.2 0 4.9.3 5.9 2.6 7.7 1.5 1.2 3.3 2.1 4.1 2.1 2.4 0 2.6 2.8.3 6-1.2 1.7-2.1 4.1-2.1 5.3.1 1.2.1 6.7.1 12.2-.1 7.2.3 10.5 1.3 11.9 1.3 1.7 1.1 2.5-1.1 6.8-2.4 4.7-2.6 4.8-7.1 4.8-2.5 0-6.6.5-9.1 1.1-2.5.6-6.5 1.1-8.9 1.2-4 .2-4.7.6-6.5 3.8-1.2 2-3.6 5.8-5.3 8.4-3.5 5.2-4.2 9.5-1.9 11.4 2.4 2 16.3.5 22.1-2.4 5.8-2.8 17.9-13.4 19.7-17.3 1-2.1 2.3-2.8 5.8-3.4 7.2-1.2 8.8-1.7 10.5-3.4 1.4-1.4 2-1.5 4.1-.4 2.2 1.2 2.7 1.1 5.4-1.5 1.7-1.6 3-3.9 3-5.2 0-2.2.3-2.3 3.3-1.8 3 .6 3.7.2 6.9-3.3 2-2.2 3.9-5.4 4.3-7.1.7-3.3 2.5-4.3 2.5-1.3 0 1 .5 2.3 1.2 3 .9.9.7 1.7-1.1 3.6-2.2 2.3-2.2 4.6 0 4.6.6 0 3.1-1.6 5.6-3.5 5.3-4.1 6.3-4.2 8.8-1.5 1.8 2 1.8 2.1-.3 4.3-2.9 3.1-3 8.3-.1 9.2 1.2.4 2.6.2 3.2-.4 1.7-1.7 8.5-1.3 11.7.6 2.5 1.4 3.5 1.5 6.9.4 5.7-1.7 5.5-3.1-1.1-8.8-2.6-2.2-5.6-3.5-9.9-4.4-3.8-.8-6.3-1.8-6.7-2.8-.8-2.2-3.3-4-5.4-4.1-2.9 0-2.1-2 .8-2 4.9 0 12.4-5.1 12.4-8.5 0-2.2 4.5-7.3 5.6-6.3.3.3 0 1.5-.7 2.6-1.1 1.7-1 2.4.3 3.9.9 1 1.8 2.7 1.9 3.7.6 2.9 5.2 5.8 10.3 6.3 5.7.7 8-.9 7.2-4.8-.7-3.5 2.6-7.9 6-7.9h2.4v-53.1l-2.7-2.6c-3.7-3.3-6.2-4.2-9.5-3.2-1.8.5-3 .3-3.5-.4s-.9-9.1-1-18.8c-.3-14.8 0-17.9 1.2-18.9.9-.7 1.8-1 2.2-.7.8.9 7.6-2.1 9.1-4 1.8-2.5 1.5-4.2-1.2-5.4-1.3-.6-2.6-2-2.9-3-.3-1.2-1.6-1.9-4.3-2.1-3.1-.2-3.9-.7-3.9-2.3 0-1.7.9-2.1 5.9-2.7 6.5-.8 7.1-1.1 6.1-2.8-.5-.7-2.8-1-6.4-.8-4.3.2-5.6 0-5.6-1.1 0-1 1.2-1.5 4-1.5 5.6-.1 5.5-2-.1-2.6-6-.6-6.6-2.4-1.6-4.9 5.3-2.7 6.8-4.6 5.2-6.6-1.6-2-7.9-1.9-10.8.1-1.7 1.2-2.2 2.5-2.2 5.9 0 5-.3 5.3-6.2 6.3-4.1.7-4.3.9-4.3 4.2v3.5l5.5.5c4.6.4 5.5.8 5.5 2.5 0 1.6-1 2.1-6 3-4.2.7-6.1 1.5-6.3 2.7-.4 2.1 1.2 3.1 7.3 4.3 6.4 1.3 6 3-.6 2.6-5.1-.3-7.9 1-7.9 3.6 0 2.2 2.9 2.7 5 .8 1.6-1.4 2.6-1.6 5.2-.9l3.3 1V633c.1 9.1.4 17.6.8 19 .6 2.1.1 3-3.3 5.9-2.3 1.8-4.4 3.1-4.7 2.8-.3-.3 0-2.1.5-3.9.6-1.8 1.3-5.5 1.6-8.1.7-5.5-1.1-7.2-4.3-4.2-1.1.9-4.5 2-7.5 2.4-3.1.4-6.2 1.3-6.8 1.9-1.9 1.9-3.1 1.4-2.5-.9.7-2.8-1.9-3.6-4.3-1.4-2.5 2.3-2.5 3.7 0 6 3 2.7 2.4 8.2-1.2 10.8-1.5 1.2-3.1 1.8-3.4 1.4-.4-.4-.1-4.6.6-9.3.7-4.8 1.4-12.1 1.6-16.3.1-4.2.8-9.4 1.5-11.6.7-2.2 1.4-7.4 1.5-11.5.1-4.1.4-8.2.6-9 .4-2-1.9-13.9-4.2-21.6-1-3.4-1.6-7.1-1.3-8.2.2-1.1-.2-3.3-.9-4.8-2-4-1.3-19.5.8-18.7.8.3 1.4 1.5 1.4 2.7 0 1.1.9 3.6 2 5.3 2.7 4.5 6.8 4.5 10.5.1 2.2-2.6 2.5-3.7 2-6.7s-.2-4.1 1.4-5.6c1.2-1 2.1-2.4 2.1-3.1 0-.7 1.8-3.1 4.1-5.3 3.6-3.7 3.9-4.4 3.3-7.6-.3-1.9-.2-3.5.2-3.5 2.9-.1 5.8-4.1 6.6-9.1 2.2-13.4 2.3-12.6-1.5-16.4-2-2-3.5-4.4-3.4-5.7 0-1.3-.3-3.1-.7-4-.6-1.4.1-2.1 3.6-3.7 2.3-1.1 5.1-2.2 6.1-2.5 1.5-.5 1.6-1.2 1-4.8-.9-5.2-.9-9.5.2-12.6.6-1.8.4-2.2-1.4-2.2-1.2 0-3.1.4-4.1 1-2.2 1.2-5.3.3-4.7-1.4.3-.6-.2-1.9-1-2.8-1.4-1.5-1.2-2 1.3-4.2 2.7-2.3 2.8-2.5 1-3.2-1.2-.5-3.5.1-6.3 1.6l-4.4 2.3-2.2-2.2-2.2-2.2 2.8-2.4c1.5-1.3 2.7-2.8 2.7-3.4 0-2.5-2.3-1.8-6.5 2-3.9 3.6-4.8 4-7.2 3.3-1.6-.4-4.5-.8-6.5-.9-6.7-.2-12.7-9-12.8-18.4 0-1.4-1-4.6-2.1-7.1-1.8-3.9-2.2-6.8-2.5-22.5-.3-19.1-.1-20.9 5-31.9 1.3-2.8 2.9-8.5 3.6-12.6.6-4.1 1.9-10.2 2.7-13.5.9-3.6 1.6-10 1.5-16 0-8.4-.4-10.9-2.4-15.5-1.4-3-3-8.4-3.7-11.9-1.6-8.1-8-16.9-13.6-18.7-1.1-.3-3.3-1.9-5-3.4-1.6-1.5-4.3-3.2-6-3.7-2.4-.8-3.1-1.6-3.3-4.1-.2-1.8.1-3.2.7-3.2s1.1.4 1.1 1c0 .5 1 1 2.1 1 1.2 0 2.7.7 3.4 1.7 1.7 2.2 4.9 1 4.2-1.7-.6-2.1 2-2.9 3.9-1.1 1.2 1.3 8.4.3 10.8-1.5 1.5-1.1 1.7-1.6.7-2.8-.9-1.1-2.6-1.3-6.8-.9-4.1.5-5.4.3-4.9-.5.4-.7 2.2-1.2 4.1-1.2 3.2 0 6.5-2.1 6.5-4.1 0-1.7-3.2-2.3-5.2-1-1.1.7-1.8.9-1.6.4 3-6.3 3-6.3 6.7-5.7 2 .4 4.4 1.3 5.4 2.2 1.4 1.2 2.2 1.3 4.2.4 2.9-1.3 3.1-2.8.8-5.4-2.5-2.8-.8-3.3 2.6-.7 2.5 1.8 3.3 2 4.6.9.8-.7 1.5-2 1.5-2.9 0-2.1-2.6-9.8-4.7-13.7-1.4-2.7-1.4-3.3 0-6.1 2.3-4.3.2-7.1-5.5-7.5-4.5-.3-6.2-2.2-2.9-3.3 2.3-.7 2.7-3.5 1-6.6-.8-1.7-1.9-2-5.2-1.7-3.9.3-4.1.1-4.8-2.8-.3-1.8-1.6-4.7-2.8-6.7-2.6-4.3-2.6-5 .1-6.2 2.8-1.3 3.4-3.3 1.3-4.1-.9-.4-2.8.2-4.5 1.4-2.2 1.6-3.4 1.9-5.6 1.2-2.6-.8-2.7-.9-.9-1.5 2.5-.8 5.8-5.2 5-6.5-1-1.7-4.4-1.1-5.7 1-1.7 2.6-2.8 2.5-2.8-.3 0-1.2-.4-2.8-.9-3.6-1.3-2-6.3-2.2-8.3-.4-1.7 1.5-1.8 1.4-1.8-.5 0-2.4-1.4-2.9-2.6-1.1-.6 1.1-.8 2-1.3 6.7-.1 1-.5 1-2.1 0s-2.3-1-3.6.4c-1.4 1.4-1.5 2-.4 3.2.9 1.2.9 2 .2 2.9-.7.8-.7 1.8-.2 2.7 1.4 2.2 1.2 4-.4 4-.8 0-1.6-1-1.8-2.3-.3-1.9-.8-2.2-4.1-2-4.4.3-4.5-.2-1.1-3.8 1.7-1.8 2.4-3.4 2-4.4-.9-2.3-4-1.4-4.4 1.2-.4 3-5.3 6.4-8 5.6-3.3-.8-5.7.4-4.3 2.1 1.8 2.1-.6 3.2-2.8 1.2-1.1-1-1.8-3.2-1.9-6-.1-2.4-.9-6-1.7-8-1.8-4.3-.7-7.6 2.6-7.6 1.1 0 1.9-.3 1.7-.8-3.5-7.2-4.8-8.1-4.8-3.2 0 3.1-1.6 4.1-2.6 1.5-.9-2.2 2.4-15.9 5.2-21.8 1.3-2.9 2.4-6.1 2.4-7.2 0-2.7 7.1-14.1 10.9-17.6 1.7-1.5 3.1-3.5 3.1-4.4 0-3.4-3.3-7.2-8.3-9.6-4.7-2.2-6.7-2.4-23.2-2.9-25.6-.7-31.9.4-38.7 6.8-3.8 3.5-3.6 6.5.5 9.6 1.9 1.5 3.8 2.6 4.4 2.6 2.4 0 5.7 5.6 9.9 16.4 2.4 6.4 4.7 13.7 5.1 16.1l.6 4.5H328c-6.1 0-8.2 7.1-3.2 11 3.4 2.7 4.3 5.1 2.7 7-.7.8-2.5 4.6-4 8.4-2.8 6.9-2.9 8-3.4 27.7-.1 5.3-1.9 9-5 10-.8.4-2.4 15.6-2.4 23.1 0 3.2-.8 3.5-2.3 1-.9-1.4-2.8-1.8-9.5-2-4.6-.2-11.3-.9-14.9-1.7-3.6-.7-9.4-1.9-13-2.5-12.8-2.4-28.5-10.8-44-23.5-3-2.5-6.3-4.8-7.2-5.1-2.5-.9-2.3-1.5 2-8.2 2-3.3 4.2-6.7 4.7-7.7.9-1.5 2.2-1 11.9 4.5l10.9 6.2 15.1-2.2c8.3-1.1 16.8-2.6 18.8-3.1 6.1-1.6 6.2-3.1.8-14.4-2.7-5.7-5.5-13.4-6.5-18-.9-4.4-2.3-10.9-3.1-14.3-1.4-5.7-1.4-7.7.1-19.3 1.5-11.3 1.5-13.3.3-15.2-2.8-4.3-3.8-8.5-2.7-11.6.7-2 .7-3.6 0-4.8-1.3-2.6 1.8-18.2 5.2-25.3 4.2-8.9 7.8-13.3 11.5-14.1 6.1-1.2 9.9-6.2 8-10.4-1.3-2.9-10.2-7.5-14.4-7.5-1.2 0-3.4-.4-4.8-1-3.4-1.2-31.9-1.9-37.6-.9zm37.5 5c9.9 2.3 12.9 3.5 11.9 5-.3.6-4.3.7-10.6.3-8.4-.6-10-.5-9.6.7.3.9 2.5 1.6 6.4 1.9 6.5.6 9.1 1.7 7.6 3.2-.6.6-2.3.5-4.8-.2-4.5-1.3-9.6-1-10.1.6-.2.7 1.7 1.4 4.8 1.7 2.9.4 5.7 1.1 6.2 1.6s-.5 2.9-2.4 5.9c-3.1 4.5-3.7 5-6.4 4.5-3.5-.6-10.5 2-10.5 3.8 0 .7.8.9 2.3.5 4.6-1.4 8.5-1.8 9-1 .2.5.1 1.9-.4 3.2-.8 2-1.4 2.3-3.9 1.7-3.3-.7-7 .1-7 1.6 0 .5 1.8.9 3.9.9 6.9 0 6.4 4.2-.5 4.7-2.3.1-4.4 1.1-5.9 2.7-2.8 3-2.5 3.3 4.4 4.2 2.9.4 4.9 1 4.4 1.5-1 1-8 1.5-8.9.6-.4-.3-1.6-.2-2.6.4-2.8 1.5-3.9 0-7.3-9.6-7.2-20.4-19.1-36.6-24-32.5-1.1.9-1.3 1.6-.5 2.4.5.5 1 1.4 1 1.8 0 1.4-2.8.9-4.4-.8-2.5-2.5-1.9-5.2 1.5-6.9 2.7-1.5 13.9-5.4 19.4-6.8 4.2-1.1 28.2.5 37 2.4zm-27.6 55.6c.6 2.1 1.1 4.1 1.1 4.5 0 1.4-2.4.8-4.8-1-2.1-1.6-2.2-2.1-1.1-4.5 1.7-3.8 3.6-3.4 4.8 1zm8-.9c.6 1.1.6 2.4.1 3.3-.8 1.2-1.3 1-3.1-.7-2.2-2.2-1.9-4.4.6-4.4.8 0 1.9.8 2.4 1.8zm10.2 1.9c1.5 1.8-.1 3.6-2.7 3.1-1.2-.2-2-1.3-2.2-3-.3-2.2 0-2.6 1.7-2.1 1.1.3 2.6 1.2 3.2 2zm89.1-.6c2.6.6 5.1.8 5.7.5.5-.4 2.8.1 5.1 1 6.8 2.7 8 8.7 1.3 6.3-3.5-1.2-12.3-.8-12.3.6 0 .5 1 .9 2.2 1 5.9.4 12.8 1.8 12.8 2.6 0 1 .1 1-10 1.2-9.1.2-10.5 2-1.9 2.3 3.4.2 6.6.7 7.1 1.2 1.4 1.4-.1 3.6-1.5 2.4-2-1.6-8.3-2.3-11.1-1.2-4.4 1.7-2.9 2.8 3.9 2.7 3.5 0 6.7.2 7.1.5 1.4 1.4-.9 2.8-4.6 2.8-4.7 0-9.3 1.6-8.5 3 .3.5 2.5.7 4.9.4 2.7-.4 4.6-.2 5 .5.8 1.3-.2 1.7-6.6 2.6-5.9.8-6.2 2.3-.5 2.7 5.5.4 5 2.2-.8 2.8-5.6.6-6.4 2.4-1.2 2.8 2 .2 3.7.7 3.7 1.1 0 1.9-2.5 2.8-6.7 2.3-3.6-.4-4.5-.2-4.1.9.2.8 2.2 1.6 4.4 1.9 2.6.3 3.9 1 3.9 2 0 1.1-1.4 1.6-5.2 1.8-3.5.2-5.3.7-5.3 1.6 0 1.4-4.1 3.6-6.8 3.6-2.3 0-4.2-1.9-4.2-4.1 0-.9-.9-4.5-2-7.9-1.1-3.4-2-6.8-2-7.5 0-1.2 5.4-3.2 10-3.7 1.4-.2 2.5-.8 2.5-1.3 0-1.9-5.6-1.6-9.6.4L330 148l-1.7-3.6c-2-4.1-1.3-4.9 4.7-6 1.9-.3 4.1-.7 4.8-1 1.9-.6.4-2.4-2-2.4-1.4 0-1.8-.5-1.4-1.6.4-1.1-.1-1.8-1.4-2.1-1.2-.3-2.7-2.1-3.5-3.9-1.7-4.2-3.1-4.2-8.3-.4-3.6 2.6-4.5 2.8-6.7 1.8-8.5-3.8 1-12.7 13.7-12.9 3.5 0 7.2-.4 8.3-.8 2.5-1 16.6-.4 22.7 1zm-171.9 9.5c7.1.5 9.3 1.1 10.8 2.7 2.8 3 2.4 4-1.3 3.2-5.5-1.3-22.1-1.1-22.5.1-.3.8 2.4 1.3 8.6 1.5 12.4.5 13.3 1.5 9.3 9.6l-3 5.9-6.7-.4c-9.4-.6-10.8 1.4-1.5 2.3 6.5.7 7.1.9 6.8 2.9-.3 1.8-.8 2-4.3 1.7-6.9-.7-8.8-.6-9.2.5-.2.7 1.9 1.4 5.7 1.8 3.3.4 6 .8 6 .9 0 .1-1.1 2.8-2.3 5.9-2.6 6.3-4.3 8.8-6.2 8.8-.7 0-1.5.6-1.8 1.4-.4 1-2 1.5-4.6 1.4-3.2 0-4.2-.5-4.7-2.1-.4-1.2-.2-2.3.5-2.5 2.8-.9.7-2.3-3.1-2-3.3.2-4.3 0-4.3-1.2 0-1 1.2-1.6 3.8-1.8 5.3-.5 4.6-2.4-.8-2.1-5.3.3-6.6-1.4-1.5-1.9 6.4-.6 5.7-2.2-.9-2.2-5.3 0-6.2-.3-5.9-1.7.2-1 2.3-2.3 5.2-3.2 6.3-2 7.3-4.1 1.7-3.4-2.2.3-4.8.2-5.8-.2-1-.5-2.6-.7-3.6-.6-1.4.2-1.8-.3-1.5-1.6.2-1 1.1-1.6 1.9-1.4 1.8.5 8.2.2 8.8-.4 1.1-1.1-1.3-1.9-6.7-2-4-.1-5.7-.6-5.7-1.5s1.2-1.4 3-1.4c5.4-.1 3.7-2.1-1.8-2.2-6.3 0-7.7-.7-7.7-3.9 0-1.9.8-2.6 3.8-3.4 2-.6 5.8-1.1 8.4-1.1 5.2 0 8-.8 7.3-2-.9-1.5-17 .3-23.1 2.7-2.1.8-1.8-3.3.4-4.2.9-.4 4.9-1.5 8.7-2.5 7.2-1.9 18.4-2 39.8-.4zm83.1 3.2c-1.3 2-6 3.9-7.1 2.8-.4-.4.8-2 2.7-3.6 3.7-3 6.5-2.5 4.4.8zm54.6-.9c0 .5-.7 1.1-1.5 1.5-1.5.5-2-.5-.8-1.7.9-1 2.3-.9 2.3.2zm-66 4c0 1.9-2.2 2.3-3.8.7-1.5-1.5-1.4-1.6 1.1-1.6 1.5 0 2.7.4 2.7.9zm68.3 3c3.8-.3 4.3.1 1.7 1.6-1.4.8-2.9 1.4-3.3 1.5-1.1 0-2.6-4.3-1.9-5.5.4-.6.8-.2 1 .8.2 1.2 1.2 1.8 2.5 1.6zm-64.8 2c-.3 1.1-.1 2.2.5 2.6.5.3 1 1.9 1 3.5s.5 3.2 1.1 3.6c.6.3.8 1.7.5 3-.5 2-.1 2.7 2.1 3.7 2.4 1 2.8 1.9 3.1 5.5.2 3.1-.2 4.4-1.3 4.8-2.2.9-1.9 2.4.5 2.4 1.4 0 2 .7 2 2.1 0 1.2-.8 2.3-2 2.6-2.9.8-2.5 2.1.8 2.5 3.9.4 3.8 4.1-.2 4.8-1.6.3-3.1 1.1-3.4 1.9-.3 1 .4 1.2 3.7.6 3.2-.5 4.1-.4 4.1.7 0 1.9-2 3.8-4.1 3.8-1.9 0-3.5 1.8-2.5 2.8.4.3 2.1.1 3.8-.6 3.5-1.3 5.7-.2 3.5 1.6-.7.6-4.4 1.9-8.2 2.9-3.7 1-7 2.4-7.3 3.1-.5 1.7 6.8.6 12.7-1.9 2.4-1.1 4.5-1.9 4.7-1.9.2 0 1.4 2.1 2.6 4.6 1.7 3.7 1.9 5 1 6.5-1.7 2.6-1.5 2.9 1.4 2.9 4 0 2.7 3.3-1.6 4.1-18.2 3.7-26.9 4.6-26.2 2.6.1-.4.2-2.8.2-5.3 0-3.7.3-4.5 1.5-4 .8.3 4.2-.4 7.6-1.4 3.4-1.1 7.2-2 8.5-2 1.3 0 2.4-.5 2.4-1 0-2.1-3.3-2.2-9.3-.5-3.4.9-7.1 2-8.1 2.3-2.1.6-2.2 3.2.8-29.8.8-9.1 1.8-20.7 2.1-25.8.4-5 1.1-9.2 1.7-9.2.5 0 .7.9.3 1.9zm10.3-.7c-.3.7-2 1.4-3.9 1.6-3.2.2-3.3.1-1.5-1.3 2.4-1.8 5.9-2 5.4-.3zm-17.3.7c.3.5.1 1.2-.5 1.6-.5.3-1-.1-1-.9 0-1.8.6-2.1 1.5-.7zm16 6.2c1 1.5-.1 2.3-2 1.5-.9-.3-1.3-1-1-1.6.8-1.3 2.2-1.3 3 .1zm-16.1 5.3c.3 1.4.4 3 .1 3.8-.2.7-.6 5.1-.9 9.8-.7 10-2.2 26.1-3.6 38-.5 4.7-.7 9.3-.4 10.2.8 2.6-.7 2.2-7.9-1.7-3.5-1.9-7.1-3.5-7.9-3.5-.9 0-2.1-.7-2.8-1.5-1-1.2-.6-2.7 2.1-8 3.6-7.2 5.6-9.5 4.5-5.2-.5 2.3-.1 3 3.3 5.3 4.1 2.6 6.7 2.5 5.6-.4-.3-.8 0-1.9.7-2.4 1.6-1-.9-3.2-5.9-5.4-1.8-.8-3.3-2.1-3.3-2.9 0-2 .4-1.9 5 .7 3 1.8 4.2 2 5.1 1.1.9-.9-.1-1.8-4-3.7-2.8-1.5-5.1-3.1-5.1-3.6 0-2.1 3-2.1 5.8 0s5.2 2.1 5.2 0c0-.4-1.8-1.5-4-2.4-4.2-1.7-4.6-2.8-3-7.1.9-2.5 1.1-2.5 3.9-1.1 2.7 1.4 4.1 1.3 4.1-.5 0-.4-1.3-1.2-3-1.8-1.6-.5-3-1.6-3-2.4 0-2.1 1.2-2.8 2.6-1.6.7.6 1.8.7 2.5.3.8-.5.5-1.2-1.1-2.4-2.5-1.9-2.1-5.7.4-4.7 2.2.9 2.8-.5 1.1-2.3-1.2-1.3-1.3-2.3-.6-4.4 1.3-3.3 3.7-3.4 4.5-.2zm82.7 25.7c.9 3.6-.9 5.4-3.2 3.3-2.2-2-2.4-3.5-.7-5.2 1.7-1.7 3.1-1 3.9 1.9zm9.9-1.2c1.4 2.7.2 5.3-2.3 4.9-2.5-.4-4.2-3-3.4-5.2.9-2.2 4.4-2 5.7.3zm7.4-.2c.4.9 0 2.3-.8 3.2-1.4 1.3-1.6 1.3-2.2-.2-.7-2 .1-4.7 1.5-4.7.5 0 1.2.8 1.5 1.7zm-25.4 4.5c0 .5-.8.8-1.7.6-1.2-.2-1.9-1.4-2.1-3.3l-.2-3 2 2.4c1.1 1.3 2 2.8 2 3.3zm-147.9 1.9c1.3 2.4-.3 6.4-2.9 7.4-2.1.8-2.5 0-1.3-2.3.6-1.2 1.1-3.2 1.1-4.6 0-3.2 1.5-3.4 3.1-.5zm-8.3 2.8c-.3 3-3.5 3.6-5.1.9-1.5-2.2.7-4.8 3.4-4.1 1.5.4 1.9 1.2 1.7 3.2zm182-.7c.2 1.9-.6 3.2-3 5.2-1.8 1.4-3.9 3.1-4.6 3.7-1.7 1.4-1.1 4.3 1 4.7.9.2 3.1-1.1 4.9-2.8 2.1-1.9 3.6-2.7 4.2-2.1 1.6 1.6.1 3.8-4.3 6.6-4.7 3-5.5 6-1.2 5.2 1.5-.3 3.7-.8 5-1.2 1.6-.5 2.2-.3 2.2.8 0 2-1.9 3.4-6.6 5.1-2.7.9-3.9 1.9-3.9 3.2 0 2.6 3.2 3 5.7.7 1.2-1 1.9-1.3 1.7-.7-.2.6-3.1 3.4-6.5 6.2-6 4.9-6.1 5.1-7.8 13.1-1.6 7.4-1.6 8.3-.2 11.2 2 4.1 2 4.2-.6 3.6-1.2-.4-2.8-.1-3.5.5-1.5 1.2-9.4-.5-13.2-2.9-1.8-1.2-2-1.7-1-2.3 1-.7 1-1.4.1-3.5-1-2.1-.9-3.1.2-5.4.9-1.6 1.3-4.3 1-6.7-.3-2.1 0-8.4.5-13.9.6-5.5 1.1-10.7 1.1-11.5 0-9 .3-9.6 5-7.6 3.7 1.5 6.2.7 8.8-2.7.8-1 2.6-1.7 4.8-1.7 1.9 0 3.4-.5 3.4-1 0-1.8 4.3-7.1 5.5-6.7.5.2 1.1 1.5 1.3 2.9zm-192.8-1c0 .7.3 2.3.6 3.5.8 2.8-1.1 3.1-3.7.7-1.4-1.3-1.6-2.1-.8-3.5 1.1-2.1 3.9-2.6 3.9-.7zm23.1 8.4c3.2 1.6 6.1 7.1 7.2 13.4.3 1.9.8 4.3 1.2 5.2.5 1.3-.2 1.9-3.1 2.7-2 .6-4.1.8-4.6.5-1.4-.9-.9-4.6.9-5.9 1.6-1.2 1.6-1.5.2-3.2-.8-1-2-3.1-2.7-4.6-1.2-2.7-1.3-2.8-8.8-2.5-8.3.3-10.8-1.1-5.2-3 1.8-.6 5.1-1.7 7.3-2.6 2.2-.8 4.1-1.5 4.3-1.6.2 0 1.7.7 3.3 1.6zm220.7 3.2c.7 2 1.4 4.5 1.4 5.4-.1.9.6 2.2 1.4 2.9.8.6 1.4 1.8 1.4 2.6 0 1-.4 1.1-1.9.3-3.3-1.7-4.2-1.3-3 1.6 1.3 3.6.5 4-2.1 1.4-1.3-1.3-2.9-2-4.1-1.7-1 .3-1.9.2-1.9-.2 0-1.3 2.4-3.1 4.2-3.1 2 0 2.2-1.1.9-5.8-.7-2.3-.6-4.1.1-5.8 1.3-2.8 1.7-2.6 3.6 2.4zm-8.1 5.8c-.9.9-2.8-.6-2.1-1.8.4-.6 1-.6 1.7.1.6.6.8 1.3.4 1.7zM166.8 199c3.4 2.1 4 3.8 2 5.8-.9.9-1 1.5-.2 2 1.5 1 2.5 4 1.5 4.6-.4.3-2.3-.4-4.1-1.6-3.2-1.9-3.3-2.1-1.6-3.4 1.8-1.2 1.7-1.4-.8-4.4-4.3-5.2-2.8-6.7 3.2-3zm-48.3 4c-1 1.1-2.2 1.7-2.7 1.4-1.2-.8 1.1-3.4 3-3.4 1.3 0 1.2.3-.3 2zm299.1-1.2c3.3 2.1 5.4 7.8 5.4 14.5 0 5.1-.3 6.8-1.2 6.4-.8-.2-1.2-1.7-1-3.4.2-1.9-.4-3.7-1.4-4.7-1.2-1.3-1.4-2-.6-2.8 1.5-1.5-.3-3.8-2.9-3.8-2.2 0-3.5-3.6-1.9-5.5 1.4-1.7 2-1.8 3.6-.7zM175.5 203c.3.5.1 1-.4 1-.6 0-1.1-.5-1.1-1 0-.6.2-1 .4-1 .3 0 .8.4 1.1 1zm220.5 3.8c0 1.3-1.2 2.2-2.2 1.6-1-.6-.1-2.4 1.3-2.4.5 0 .9.4.9.8zm-6.4 2.8c-.4.9-.9 1.5-1.1 1.2-.3-.3-.3-1.3.1-2.2.4-.9.9-1.5 1.1-1.2.3.3.3 1.3-.1 2.2zm-22.6.4c0 .5-.7 1-1.5 1s-1.5-.5-1.5-1c0-.6.7-1 1.5-1s1.5.4 1.5 1zm35-.6c0 .3-.4.8-1 1.1-.5.3-1 .1-1-.4 0-.6.5-1.1 1-1.1.6 0 1 .2 1 .4zm-31.9 1.9c-.1 1.2-1.5.9-1.9-.4-.3-.6.1-1 .8-.8.6.3 1.1.8 1.1 1.2zm45.4-.3c.3.5-.1 1-.9 1-.9 0-1.6-.5-1.6-1 0-.6.4-1 .9-1 .6 0 1.3.4 1.6 1zm-40.8 2.2c-.3.8-.6.5-.6-.6-.1-1.1.2-1.7.5-1.3.3.3.4 1.2.1 1.9zm-207.6 1.3c1.9 1 2.7 2 2.2 2.8-.4.7-.8 2.3-.8 3.7 0 1.5-.6 2.6-1.8 2.8-2.1.4-3.5-2.7-1.6-3.8 1.1-.7 1-1.2-.4-2.8-1.6-1.8-2.3-4.2-1.2-4.2.4 0 1.9.7 3.6 1.5zm7.8 3.6c-1.3 2.6-2 2.1-1.2-.9.3-1.2.9-1.9 1.4-1.6.5.3.4 1.4-.2 2.5zm203.7-.4c-.7.7-2.6-.7-2.6-1.9 0-.6.6-.6 1.5.2.9.7 1.3 1.5 1.1 1.7zm-272.7 1.7c-1.1 2.4-2.9 3.6-2.9 1.8 0-1.2 3.1-5.4 3.6-4.9.3.2-.1 1.6-.7 3.1zm90.4-.2c-1.3 1.2-2.6 1.8-3 1.4-.4-.4.1-1.4 1.1-2.2 3.1-2.2 4.3-1.7 1.9.8zm159.4 2.4c-1.1 6.5 5.5 35.7 8.9 39.5 1.9 2.1 1.8 3.9-.2 3.9-.8 0-2.2.7-3 1.5-2 1.9-6.3 3-7.5 1.8-.5-.5-.5-2.1 0-4 1.1-3.7.6-16.9-.8-20.5-.5-1.3-.6-3-.1-3.8 1.4-2.2-.4-6.4-3.1-7-2-.5-2.4-1.2-2.6-4.9-.1-3.8.3-4.8 3.5-7.7 4.2-3.8 5.6-3.5 4.9 1.2zm5.3-3.6c0 .5-.4 1-1 1-.5 0-1-.5-1-1 0-.6.5-1 1-1 .6 0 1 .4 1 1zm-152.2 1.8c.3.9-.2 1.3-1.4 1-.9-.1-1.9-.9-2.2-1.6-.3-.9.2-1.3 1.4-1 .9.1 1.9.9 2.2 1.6zm165.3-.2c1 .9 4 1.9 6.6 2.2 2.6.3 5.9 1.3 7.2 2.3 3.3 2.6 5.7 2.4 11-1 4.7-3 10-4.4 10-2.6 0 .5-1.1 1.3-2.5 1.7-3.9 1-6.4 3.8-6.4 6.9 0 2.8 2.8 4.7 5 3.4 1.6-1 1.2 1.1-.6 2.5-1.1 1-1.4 2.3-.9 5 .5 2.8.1 4.2-1.4 6.2-1.2 1.4-2.1 3.3-2.1 4.1 0 .9-.4 1.9-1 2.2-1.2.7-1.3 4.8-.2 5.9.6.7 1.2 8.1.9 13.1-.4 9.6.1 13.6 2.4 17.9 2.6 5 5.8 6.7 8.4 4.6 1.8-1.5 1.8-1.2.4 2.9-.9 2.6-.9 3.4.4 4.4.9.7 1.7 2.1 1.9 3.2.3 1.8-.3 2-5.2 2s-5.5.2-5.8 2.3c-.2 1.2-1.2 2.7-2.3 3.2-1 .6-1.9 1.5-1.9 2 0 1.6 2.5 1.1 5.1-.9 1.3-1 4.1-2.1 6.2-2.5 2.1-.4 5.2-2 6.9-3.5 3-2.7 3.1-2.9 1.5-5.1-1.4-2.1-1.4-2.6-.1-5.2.8-1.6 1.9-2.6 2.4-2.3.6.4.5 1.3-.1 2.3-.9 1.5-.5 2.8 2.2 6.8 1.9 2.7 3.8 5.2 4.4 5.6.5.4.6 1 .3 1.3-.4.4-1.7 0-3-.9-2.8-2-4.8-2-4.8-.1 0 .8.5 1.5 1 1.5.6 0 2 1.6 3.2 3.6 1.7 2.8 2.6 3.5 4.4 3.1 1.3-.2 2.8.1 3.3.7 2.7 3.3 4.3 23.2 1.9 22.4-.7-.3-1.4-1.5-1.6-2.9-.6-5-1.2-6.7-2.9-7.3-1-.3-3.3-1.7-5.2-3.1-2.6-1.9-3.7-2.2-4.7-1.4-1.9 1.6-1.7 2.9.3 2.9 2.5 0 7.3 5 7.3 7.7 0 2.1-.4 2.3-4.6 2-7-.3-6.7 1.9.3 2.9l5.8.9.3 4c.3 3.1-1.1 10.2-2.3 12.3-.1.1-1.5-.4-3.1-1.2-4-2-7.6-2.3-8.1-.8-.3.7.7 1.5 2.6 1.8 1.7.4 3.6 1.3 4.2 2 .6.8 1.8 1.4 2.5 1.4 1.9 0 1.7 2.8-.5 8.6-1 2.7-2.4 8.7-3 13.3-.9 7.1-.8 8.8.4 10.7 1 1.6 1.2 3.1.5 5.3-.5 1.8-.5 8.2 0 15.3 1.3 17.3 1.3 16.7-1 16.1-2.5-.7-7 .4-7 1.7 0 .6 1.1 1 2.5 1 3.6 0 7.5 2.1 7.5 4.1 0 1.4-1 1.9-4.2 2.1-5.5.4-6.4 2.8-1.1 2.8 4 0 6.3 1.4 6.3 3.8 0 1-.7 1.2-2.5.8-2.8-.7-7.5.2-7.5 1.4 0 .4 1.5 1.1 3.3 1.4 1.9.3 4.2 1.3 5.3 2.1 1.7 1.3 1.5 1.4-2.9 1.5-5.7 0-6.2 2.3-.6 2.8 1.9.2 4 .9 4.8 1.5 1.1 1 .5 1.3-3.4 1.7-6.6.7-6.7 2.4-.3 3.6 4.4.7 5.4 1.3 5.6 3.1.3 2.1-.1 2.3-3.7 2.3-5.7 0-5.6 2.6.2 3.7 3.2.7 4.2 1.3 4.2 2.8 0 1.2-.8 2.1-2 2.3-3.7.7-4 2.2-.7 3.4 4.1 1.6 4.1 2.8.1 2.8-3.6 0-3.5 2.1.1 3 3.3.8 3.8 3 .7 3-6.1 0-7.8 2.7-2 3.2 4.1.3 5.9 2.8 2.1 2.8-3.4 0-6.8 1.1-6.8 2.1 0 .5 1.8.9 4 .9 2.9 0 4.2.5 5 2 1.3 2.5.3 4.7-1.3 3.1-1.4-1.4-5.4-1.4-6.2-.1-.7 1.2 4.3 3.3 6.1 2.6.8-.3 1.6-.1 1.9.5.4.5 0 1.1-.7 1.3-.7.2-3.2.9-5.5 1.5-5.9 1.6-5.4 3.1 1 2.8 4.9-.2 5.2 0 5.5 2.3.3 2.3 0 2.5-3.9 2.5-2.6 0-4.4.5-4.7 1.3-.3 1 .7 1.3 4.4 1.1l4.9-.3.2 9.8c.1 9.6.1 9.8-2 9.1-3.6-1.1-7-1.1-7.4.1-.2.6 1.7 1.8 4.2 2.5 4.2 1.2 4.5 1.6 4.5 4.6 0 3.7-.7 4.2-1.8 1.3-.6-1.7-1-1.8-3.2-.7-2.6 1.3-4.1 5-1.8 4.6 2.4-.5 7 1.2 6.5 2.4-.2.7-1.9 1.3-3.8 1.3-1.9.1-3.8.2-4.2.3-.9.1 4.7 6.1 5.7 6.1.3 0 .6-.7.6-1.5s.5-1.5 1-1.5c.6 0 1 1.1 1 2.5 0 2.1-.5 2.5-2.7 2.5-3.7 0-7.3 1-7.3 2.1 0 .4 1.5.5 3.3.3 3.9-.7 7.3 1.5 6.4 4-.4 1-1.5 1.6-2.4 1.5-2.3-.4-6.3 1-6.3 2.1 0 .5 1.9 1 4.3 1.2 3.5.3 4.3.7 4.5 2.6.3 2.1.1 2.3-3 1.7-2.8-.5-3.7-.2-5.6 1.9-1.2 1.5-2.2 2.7-2.2 2.9 0 .2 2.3.3 5.2.2 5.8 0 7.6 1.9 3.1 3.6-2.9 1.1-7.3 4.7-7.3 5.9 0 .4 1.8-.2 4.1-1.3 3.8-1.8 4.2-1.9 5.7-.3 2.2 2.2.7 4.6-3.8 6.1-3.3 1.1-7.9 5.9-6.8 7.1.3.3 2.5-.8 4.9-2.5 4.9-3.6 5.9-3.8 5.9-1.3 0 1.1-1.3 2.3-3.5 3.1-1.9.7-5.2 3.2-7.2 5.7-4.7 5.6-8.4 6.7-19.4 6.2-11-.6-18.3-3.4-24.9-9.8-2.8-2.7-6.4-5.1-8-5.5-2.2-.5-3.2-1.4-3.6-3.3-1.1-4.5-2.4-5.4-6.6-4.7-3.3.6-3.7.4-3.2-1 .5-1.1 0-1.8-1.5-2.2-1.1-.3-2.1-1-2.1-1.5 0-.6 1.1-.7 2.4-.4 3.1.8 5.6-.2 5.6-2 0-.8.7-1.7 1.5-2 2.6-1 1.6-2.9-2.2-4.1-4.4-1.4-7 0-4 2.1.9.7 1.7 1.6 1.7 2 0 1.2-2 .6-5.7-2-3.5-2.4-4.4-2.6-12.6-2.2-8.1.4-9 .2-10.2-1.6-.9-1.5-1.4-9.4-1.9-27.1-.3-13.8-1.1-31.1-1.8-38.5-.6-7.4-1.2-18.5-1.2-24.5l-.1-11 4.8-9.8c2.6-5.3 5.1-11.6 5.6-14 2.7-11.8 3.2-14.9 3.7-22.7.4-5.1 1.2-9.1 2-10.1 1.4-1.6 4-10 5.3-16.9.7-4.1 2.7-4.8 8.3-2.9 2.6.8 3.8 1.8 3.8 3.1 0 2-1.1 2.3-2.6.8-1.4-1.4-7.6-1.7-8.1-.3-.2.6.6 1.4 1.9 1.8 5.5 1.5 7.8 2.9 7.8 4.5 0 .9-2 7.9-4.5 15.6-5 15.1-5.5 20.9-2 20.9 1.7 0 2.1-.9 2.7-7 .4-3.9 1.3-8.1 1.9-9.5 1.8-4.1 6.6-20.2 7.4-24.7.9-5.5-.1-9.7-3.2-13.3-2.5-3.1-7.2-4-10.2-2.1-2 1.3-.2 3.4 2.3 2.7 2.4-.6 6.6 1.7 5.4 2.9-.4.4-2.8.8-5.3.9l-4.5.1.2-5.6.2-5.6 6.6.2c6.4.1 6.5.2 7 3.1.6 3.2 2.7 3.8 4.3 1.2 1.4-2.2-.6-10.4-4.1-17.3-7.2-13.9-8.8-20.5-5.1-20.5 1.7 0 2 .4 1.5 2.4-.4 1.7-.1 2.8.8 3.3.8.4 2.9 4.4 4.7 8.8 1.7 4.4 4.2 10 5.4 12.5 1.2 2.5 3.1 8.1 4 12.5 1.9 8.4 3.5 11.2 5.5 10 .9-.5 1-2.6.5-7.1l-.7-6.4 4.6.6c3.9.6 4.6.4 4.6-1 0-2.3-2.4-3-6.2-1.7-3.7 1.3-4.3.8-5.3-3.8l-.7-3.4 5.6.5c5.6.5 8.2-.6 5.5-2.3-.8-.5-4-.9-7.2-.9h-5.8l-2.5-5.8c-5.3-12.1-6.3-14.8-6.9-19.2-.6-4.8-4.7-10-7.9-10-.9 0-1.6-.4-1.6-.9 0-2.1 3.3-13.7 5.2-18 1.6-3.8 1.9-6.5 1.7-16.6-.2-6.6 0-12.6.4-13.2.5-.8 2-.7 5.4.3 2.7.8 5.8 1.2 7.1.9 1.5-.4 2.2-.1 2.2 1 0 .8-.9 1.5-2.1 1.5-2.6 0-5.9 1.7-5.9 3.1 0 .7 1.2.8 2.9.4s4-.1 5.2.6c1.9.9 2.5.9 3.4-.5 1.6-2.2 4.7-2 7.8.4 3.8 3 16.4 6.7 17.9 5.2.9-.9.7-1.7-.7-3.2-1-1.1-2.3-2-2.9-2-.7 0-2.9-.9-5.1-2-2.2-1.1-4.8-2-6-2-3.4 0-8.9-4.5-11.3-9.2-2.7-5.6-2.8-7.5-.2-8.3 1.1-.3 2-1.2 2-1.8 0-.7.9-1.8 2-2.5s2-1.9 2-2.7c0-2.3 4.1-4.5 8.5-4.5 4.3 0 8.6-2.2 6.7-3.3-.5-.4-3.7-.3-6.9.1-8.7 1.2-13.2-.3-16-5.3-1.3-2.2-2.3-4.7-2.3-5.5.1-1 .4-.9 1.2.5 1.7 3.2 3.9 4.5 6.7 3.9 1.4-.3 3.6-.7 4.9-1 2.7-.5 3-3.4.3-3.4-1.1 0-3.9-.8-6.3-1.8s-5.1-1.6-6-1.4c-1.7.3-1.8-.9-1.8-14.5 0-10.3.4-15.3 1.2-16.1 1.5-1.5 1.8-1.5 3.9.4zM201 222.7l-.1 3.8-2-2.5c-2-2.3-2-2.5-.3-3.7 2.4-1.8 2.4-1.8 2.4 2.4zm-23-.8c0 1.2-2 2.5-2.7 1.8-.7-.7.6-2.7 1.8-2.7.5 0 .9.4.9.9zm185 1.7c0 .9-.5 1.4-1.2 1.2-1.8-.6-2.1-2.8-.4-2.8.9 0 1.6.7 1.6 1.6zM212 228c-3.2 2.4-3.7 1.8-1.5-1.6 1.3-2 2-2.3 2.8-1.5.9.9.6 1.7-1.3 3.1zm-122-1c0 .5-.2 1-.4 1-.3 0-.8-.5-1.1-1-.3-.6-.1-1 .4-1 .6 0 1.1.4 1.1 1zm8 .9c1.5 2.8 1.3 3.3-1 2.1-1.1-.6-2-1.7-2-2.5 0-2.1 1.7-1.8 3 .4zm327.8 3.3c.2 2.7-.1 4.8-.7 4.8-.5 0-.7-.8-.4-1.8.2-1-.5-2.6-1.6-3.6-2.7-2.5-2.7-4.4.2-4.2 1.9.1 2.2.7 2.5 4.8zm-319.2-3.1c1 1.7-1.3 3.6-2.7 2.2-1.2-1.2-.4-3.3 1.1-3.3.5 0 1.2.5 1.6 1.1zm85.5 3.6c-1.4 2.9-2.4 3.6-4.8 3.7-3 .1-3.1.1-1.7-2.6 1.4-2.6 6.2-5.8 7.6-5.1.5.2 0 2-1.1 4zm7-1.3c-1.4 3.6-2.2 3.3-.9-.5.6-1.6 1.2-2.8 1.4-2.6.3.2 0 1.6-.5 3.1zm32.1 3c4.6 3.5 9.7 7.1 11.3 8 1.7.9 4.6 2.6 6.5 3.8 7.7 4.6 15 7.6 24.5 10 13.7 3.5 23.1 5.5 29 6.3l5 .7-3.5 3c-6.3 5.4-7.9 5.7-23.8 4.5-13.1-.9-14.2-1.2-13.6-2.9.7-2.2-1.8-2.5-3.6-.3-1.9 2.3-10.2 1.9-15.2-.6-3.4-1.8-4.7-1.9-7.5-1.1-2.6.8-3.6.7-4.8-.5-1.9-1.8-1.9-2.7 0-4.3 1.5-1.3 2-5.1.8-6.3-.3-.4-1.5 0-2.5 1-1.7 1.5-1.8 1.5-1.8-.5 0-1.1-.4-2.3-.9-2.6-2-1.2-7.1-13.8-6.5-16 .3-1.4-.1-3.8-1-5.5-.9-1.7-1.4-3.1-1.1-3.1.2 0 4.2 2.9 8.7 6.4zm201.8-4.9c.7.8 2.3 1.5 3.5 1.5 2.1 0 2.3.4 2.2 4.4-.1 3 .4 5 1.6 6.3 2.3 2.7 2.1 4.3-.6 4.3-3.4 0-6.7 2.8-6.7 5.6 0 3.3-1.4 3-4.1-.7-2.1-3-2.1-3.2-.5-8.7.9-3.2 1.5-6.4 1.4-7.2-.3-3.3.2-7 1.1-7 .5 0 1.4.7 2.1 1.5zm-253.1.1c2.7.6 3 .9 2.4 3.3-1 4.5-2.2 5.9-4.2 5.4-1.3-.3-1.7-1.1-1.4-2.4.4-1.4 0-1.9-1.6-1.9-2.4 0-2.5-.4-1.1-3.1 1.2-2.1 1.4-2.2 5.9-1.3zm241 4.4c1.5 2.3 1.5 2.4-.4 1.6-4.7-2-7.6-1.9-10.1.5-1.3 1.2-2.4 1.8-2.4 1.2 0-2.1 7-6.4 9.9-6 .7.1 2.1 1.3 3 2.7zm-208.1 3.9c-1.3 1.7-2.9 3-3.6 3-.7.1.2-1.7 2-4 1.8-2.2 3.4-3.6 3.6-3 .2.6-.7 2.4-2 4zM98 234c0 .5-.7 1-1.5 1s-1.5-.5-1.5-1c0-.6.7-1 1.5-1s1.5.4 1.5 1zm98.2 2.2c-.7.7-1.2 2-1.2 3.1 0 1-.4 1.5-1 1.2-.6-.4-.4-1.7.6-3.6.8-1.7 1.8-2.8 2.2-2.5.3.4 0 1.2-.6 1.8zm152 3c-.9.9-1.2.7-1.2-1.2s.3-2.1 1.2-1.2c.9.9.9 1.5 0 2.4zm-157.9 4.7c.3 2.7 1.2 5.9 1.9 7 1.8 3 0 4-2.3 1.2-1.4-1.7-1.9-3.9-1.9-8.3 0-7 1.5-7 2.3.1zM423 239c0 .5-.5 1-1.1 1-.5 0-.7-.5-.4-1 .3-.6.8-1 1.1-1 .2 0 .4.4.4 1zm-328 2.5c0 1.4-.4 2.5-1 2.5-.5 0-1-1.1-1-2.5s.5-2.5 1-2.5c.6 0 1 1.1 1 2.5zm126.5 2.2c.9 2.7 2.4 6.1 3.3 7.8 2.5 4.9 2.9 5.7 5 12.8 2.9 9.7 1.4 12.1-4.9 7.6-4.5-3.2-7-.1-2.9 3.6 2 1.9 2 1.9-1.5 5.5-1.9 2-3.5 4.3-3.5 5.2 0 .8-.9 2.7-2 4.1-1.1 1.4-2 2.8-2 3.1 0 .8-4.9 5.5-7 6.6-3.1 1.6-3.8 1.2-4.3-2.8-.4-3.9.6-7.2 2.4-7.2.6 0 2.5-1.1 4.3-2.5 7.2-5.5 11.5-20 8.2-27.9-1.7-4-2.1-6.4-.9-5.3.3.4 1.2.2 1.9-.4 1-.8 1-1.7.3-3.7-1.1-2.9-.3-11.2 1.1-11.2.4 0 1.6 2.1 2.5 4.7zm197.9-1.1c.7 1.9-.2 3.7-1.5 2.9-1.2-.8-1.2-4.5 0-4.5.5 0 1.2.7 1.5 1.6zM213 243c0 .5-.4 1-1 1-.5 0-1-.5-1-1 0-.6.5-1 1-1 .6 0 1 .4 1 1zm198 1.1c0 .6-.4.7-1 .4-.5-.3-1-1.1-1-1.6 0-.6.5-.7 1-.4.6.3 1 1.1 1 1.6zM200.5 249c1.9 0 2.9 2 1.6 3.3-.7.7-1.8.7-3.6-.1-2.7-1.3-3.4-4.9-1.2-7.1 1-1 1.3-.7 1.5 1.3.2 1.4 1 2.6 1.7 2.6zm-24.1.9c.7 1-1.8 3.4-2.7 2.5-.7-.8.3-3.4 1.3-3.4.5 0 1.1.4 1.4.9zm-10.7 4.8c-.9 2.1-1.3 2.3-1.5.9-.5-2.4.6-4.9 1.8-4.1.6.3.5 1.6-.3 3.2zm20.2-.2c.3 1.7.1 1.8-1.3.6-2.3-2-3.1-.6-1.2 2.1 2.9 4.1 1.5 5.2-2.2 1.8-2.7-2.5-3.7-2.5-7.4.1-3.9 2.8-4.5 1.9-1.3-2 1.6-1.8 3.6-3.1 5-3.1 1.3 0 2.7-.5 3-1.1 1.1-1.7 4.9-.6 5.4 1.6zm-87.8.6c.8 1.6.8 2.4 0 3.2-1.4 1.4-3.1-.6-3.1-3.6 0-2.3 1.7-2.2 3.1.4zm320.9 2.6c-1.1 1.7-1.1 1.7-.6 0 .3-1 .7-2.6.7-3.5.1-1.5.2-1.5.6 0 .2 1-.1 2.5-.7 3.5zm-14-1.7c.8.5 1.1 1.2.7 1.6-.4.4-1.5 0-2.4-.9-1.8-1.8-.8-2.3 1.7-.7zm-300 2.5c0 1.5-1.8 3-2.7 2.2-.2-.3-.2-1.5.2-2.6.7-2.3 2.5-1.9 2.5.4zm94 1.6c-.9 1.5-.7 1.9.5 1.9 2 0 2 .2-1.2 6.8-3.2 6.3-8.2 12.2-10.7 12.2s-1.9-1.6 1.2-2.9c2.8-1.2 6.8-7.1 8.2-12.2.8-2.7.7-2.9-1.4-2.3-2.5.6-5.5-1.9-3.6-3.1.5-.3 1.4-.4 1.9-.1.4.3 1.6-.3 2.6-1.4 2.2-2.4 3.9-1.6 2.5 1.1zm-34.3 1.1c-.3.7-.5.2-.5-1.2s.2-1.9.5-1.3c.2.7.2 1.9 0 2.5zm45.3 1.7c0 3.4-.6 5.6-2 7.2l-2 2.4 1-2.9c.6-1.6 1.1-4.8 1.2-7.2.3-6 1.8-5.6 1.8.5zm101.7.1c.7 1 .9 2.1.5 2.4-.4.2-1.2-.7-1.9-2-1.3-2.9-.3-3.2 1.4-.4zm100.3 0c0 1.1-.4 2-1 2-.5 0-1-.9-1-2s.5-2 1-2c.6 0 1 .9 1 2zm-238.7 9.2c2 2.1 2.2 3.8.4 3.8-2.6 0-8.7-8-8.7-11.5 0-1 1.2-.2 3.3 2.2 1.7 2 4 4.5 5 5.5zm5.7-8.2c0 .5-.2 1-.4 1-.3 0-.8-.5-1.1-1-.3-.6-.1-1 .4-1 .6 0 1.1.4 1.1 1zm228 .4c0 1.6-1.8 3.1-2.7 2.2-.8-.8.5-3.6 1.7-3.6.5 0 1 .6 1 1.4zm-220.9 4.9c-1.3 1.3-1.5-.1-.4-3 .7-1.7.8-1.7 1.1.1.2 1-.1 2.3-.7 2.9zm-10.1-.7c0 .8-.4 1.2-1 .9-.5-.3-1-1-1-1.6 0-.5.5-.9 1-.9.6 0 1 .7 1 1.6zm37.7.6c-.3.8-.6.5-.6-.6-.1-1.1.2-1.7.5-1.3.3.3.4 1.2.1 1.9zm26.3.8c0 .5-.7 1-1.5 1s-1.5-.5-1.5-1c0-.6.7-1 1.5-1s1.5.4 1.5 1zm-145 1.4c0 .7-.6 1.9-1.4 2.5-1.1.9-1.5.8-2-.5-1-2.6-.7-3.4 1.4-3.4 1.1 0 2 .6 2 1.4zm172.4.5c.3.5-.5 1.2-1.8 1.5-1.3.3-3.1.9-4 1.2-2.5.9-1.9-1 .7-2.2 2.9-1.5 4.4-1.6 5.1-.5zm42.4 3.4c.2 1.6.1 3.6-.3 4.5-.5 1.4-.7 1.4-1.5.2-.5-.8-.7-2.2-.4-3.2.2-.9 0-1.9-.6-2.3-1.6-1-1.1-2.7.8-2.3 1 .2 1.8 1.4 2 3.1zm105.2-1.9c0 .3-.4.8-1 1.1-.5.3-1 .1-1-.4 0-.6.5-1.1 1-1.1.6 0 1 .2 1 .4zm-203.3 2.8c-.3.8-.6.5-.6-.6-.1-1.1.2-1.7.5-1.3.3.3.4 1.2.1 1.9zm148 3.8c1.2 0 2.3-.5 2.3-1.2 0-1.7 1.4-.1 3.9 4.5 2.6 4.7 2.8 7.2.4 6.2-1-.3-3-.9-4.5-1.2-3.1-.6-3.2-.7-1.8-3.3.8-1.5.4-2.3-2-4-1.7-1.2-3-2.9-2.9-3.8 0-1.3.3-1.1 1.1.5.7 1.4 2 2.3 3.5 2.3zm-79 .2c-.3.8-.6.5-.6-.6-.1-1.1.2-1.7.5-1.3.3.3.4 1.2.1 1.9zm-21.1 6.7c-1.3 2-2.6 1.1-2.6-1.6 0-2.5.1-2.6 1.6-1.1.9.9 1.3 2.1 1 2.7zm-161 .9c.3 1 1.1.8 3.3-.7 5.8-4.2 7.1-1.4 1.5 3.3-2.5 2.1-3.8 2.5-4.7 1.8-.7-.6-2.3-.9-3.5-.5-1.7.4-2.2.1-2.2-1.3 0-2.3 4.3-7 4.8-5.2.2.7.5 1.9.8 2.6zm85.9-1.9c.3.5.1 1.3-.5 1.6-1.5.9-4.3-.3-3.5-1.5.8-1.3 3.2-1.3 4-.1zM310 288c0 1.1-.7 2-1.5 2s-1.5-.9-1.5-2 .7-2 1.5-2 1.5.9 1.5 2zm100.8 2.6c-.4.3-1.2-.5-1.8-1.8-1.2-2.2-1.2-2.2.6-.6 1 1 1.5 2 1.2 2.4zm-217.9 0c-.6.8-1.8 1.4-2.6 1.4s-2.1 1.6-2.9 3.5c-.8 1.9-1.6 3.5-1.8 3.5-2 0-3.6-1.6-3.6-3.5 0-3.7 1.8-3.9 2.2-.3l.3 3.3 1.7-3c2.3-4.2 5.7-7.7 6.9-6.9.6.4.6 1.1-.2 2zm96.1 0c0 .8-.4 1.2-1 .9-.5-.3-1-1-1-1.6 0-.5.5-.9 1-.9.6 0 1 .7 1 1.6zm-198 1c0 .8-.4 1.2-1 .9-.5-.3-1-1-1-1.6 0-.5.5-.9 1-.9.6 0 1 .7 1 1.6zm13.1 2.7c-1.3 1.3-2.6.3-1.6-1.2.3-.6 1.1-.8 1.7-.5.6.4.6 1-.1 1.7zm139.9 4.2c0 .8-.4 1.5-1 1.5-.5 0-1-.7-1-1.5s.5-1.5 1-1.5c.6 0 1 .7 1 1.5zm-65 2.9c0 3-1.6 4.2-3.5 2.6-1.2-1-1.1-1.4.3-3 2.3-2.5 3.2-2.4 3.2.4zm73.4.2c.4.9.4 1.9.1 2.2-.7.8-3.5-1.9-2.9-2.9.8-1.4 2.1-1.1 2.8.7zm8.6.3c0 .6-.4 1.3-1 1.6-.5.3-1-.1-1-.9 0-.9.5-1.6 1-1.6.6 0 1 .4 1 .9zm53.8 5.3c.8 2.4 2.3 7.9 3.3 12.3 1.1 4.4 2.6 9.6 3.4 11.5 1.7 4.4 4.6 17.7 4.6 21.6 0 12.6.7 25.2 1.8 31.9 1 5.7 1.1 8.8.3 11-2.4 6.9-2.4 9.2-.3 9.8 2.2.5 2.9 4.1 1.2 5.2-2.2 1.3-4.3 12-3.8 19 .2 3.8.1 8.1-.3 9.5-1.2 4.3-2-4.6-2.5-28-.6-30.1-1.5-50.1-2.1-51.2-.4-.6-1.4-.8-2.4-.5-1.9.5-1.9.7-2-10.5 0-2-.5-4-1-4.3-.6-.4-.4-1.5.5-2.8 2-2.9 2-6.8 0-6.1-1 .4-1.5 0-1.5-1.5 0-1.2-.4-2.1-1-2.1-.5 0-.8-1.9-.6-4.5.3-2.4 0-4.7-.5-5-.5-.4-.9-1.3-.9-2.1 0-1.1.6-1.3 2-.9 2.5.8 2.6-.9.5-8.8-1.7-6.6-1.8-7.7-.7-7.7.4 0 1.3 1.9 2 4.2zm-138.4 1.1c-.7 1.9-3.4 3.1-3.4 1.5 0-1 3.2-3.9 3.8-3.4.1.2 0 1-.4 1.9zm77.7 0c-1.3 1.3-2.6.3-1.6-1.2.3-.6 1.1-.8 1.7-.5.6.4.6 1-.1 1.7zm-69.7-.2c-.4.7-.7 2.1-.8 3.3-.2 3.7-12.6 9.2-12.6 5.5 0-.4 2-1.7 4.5-2.8 2.5-1.1 4.5-2.5 4.5-3.2 0-1.2 2.9-3.8 4.3-3.9.5 0 .5.5.1 1.1zm-16.6 2.2c1.1.9 1.1 1.3-.4 2.4-2.1 1.5-5.4 1.7-5.4.3 0-.6-.7-1-1.5-1-1.2 0-1.5 1.1-1.2 5.5.2 3.1.9 6.1 1.5 6.7 1.6 1.6 1.5 5-.2 7.4-1.9 2.6-3 1.3-1.5-2 1-2.2.9-2.9-.6-4.6-1.4-1.5-1.7-3.2-1.3-8.5.2-3.7.9-7 1.6-7.4 1.6-1 7.3-.2 9 1.2zm25.7-1.3c.3.5-.1 1-1 1s-1.3-.5-1-1c.3-.6.8-1 1-1 .2 0 .7.4 1 1zm63.5 5.5c0 .8-.7 1.5-1.6 1.5-1.4 0-1.4-.3-.4-1.5.7-.8 1.4-1.5 1.6-1.5.2 0 .4.7.4 1.5zm-85.5 5.5c.3.5 1.9 1 3.6 1 3.7 0 3.7.9 0 4.1l-2.9 2.6.1-2.5c.3-3.3-2.6-5.1-5.3-3.4-2.5 1.5-3 1.5-3-.2 0-2.2 6.3-3.5 7.5-1.6zm85.5 1c0 .5-.4 1-1 1-.5 0-1-.5-1-1 0-.6.5-1 1-1 .6 0 1 .4 1 1zm41 1.1c0 .5-.7.9-1.5.9-1.5 0-2-1.2-.9-2.3.8-.8 2.4.1 2.4 1.4zm-8.2 4.7c.2.7-.3 1.2-1.2 1.2-.9 0-1.6-.7-1.6-1.6 0-1.7 2.2-1.4 2.8.4zm-49.8 1.1c0 1.2-2 2.5-2.7 1.8-.7-.7.6-2.7 1.8-2.7.5 0 .9.4.9.9zm20.4 1.6c.3.8.1 1.5-.3 1.5-.5 0-1.1-.7-1.5-1.5-.3-.8-.1-1.5.3-1.5.5 0 1.1.7 1.5 1.5zm-90.6 1.3c-2.5 3.4-12.9 12.3-13.8 11.7-1.5-.9 1.2-5.5 3.2-5.5 1.1 0 3.7-1.8 5.9-4 4.1-4.1 7.1-5.5 4.7-2.2zm-15.5 3.4c-.6.7-1.3 2.5-1.7 3.9-.7 3.1-3 4.3-4.5 2.5-.9-1-.5-2.1 1.6-4.5 2.6-3 6.8-4.7 4.6-1.9zm144.2 2.8c.3.5.1 1-.4 1-.6 0-1.1-.5-1.1-1 0-.6.2-1 .4-1 .3 0 .8.4 1.1 1zm-87 4.8c-.8.9-2.5-2-1.8-3.1.3-.5 1-.2 1.5.7.6 1 .7 2 .3 2.4zm62.5 1.9c0 2-.3 2.4-1.1 1.6-.7-.7-.9-1.9-.6-2.7 1-2.4 1.7-1.9 1.7 1.1zm-65 1.4c0 .6-.4.7-1 .4-.5-.3-1-1.1-1-1.6 0-.6.5-.7 1-.4.6.3 1 1.1 1 1.6zm101-.1c0 .5-.2 1-.4 1-.3 0-.8-.5-1.1-1-.3-.6-.1-1 .4-1 .6 0 1.1.4 1.1 1zm42.9.6c.8.8-2.4 3.4-4.7 3.9-1.2.2-2.7.7-3.2 1-1.4.9-1.2-.1.6-3.6 1.3-2.6 1.9-3 4.2-2.4 1.5.4 2.9.9 3.1 1.1zm-54.9.4c0 .5-.5 1-1.1 1-.5 0-.7-.5-.4-1 .3-.6.8-1 1.1-1 .2 0 .4.4.4 1zm5.2 3.2c-.9.9-1.2.7-1.2-1.2s.3-2.1 1.2-1.2c.9.9.9 1.5 0 2.4zm-56.2-1.8c0 .3-.4.8-1 1.1-.5.3-1 .1-1-.4 0-.6.5-1.1 1-1.1.6 0 1 .2 1 .4zm-37.1 2.5c.7.5 1.2 1.4.9 2.1-.2.7-1 .4-2.2-.9-1.9-2.1-1.2-2.8 1.3-1.2zm-56.5 3.3c1.5 2.5-1.9 12.5-6 17.1-1.9 2-3.4 4.7-3.4 6-.1 4-2.5 11.1-5.3 15.8-1.5 2.5-2.7 6.1-2.7 7.9 0 2.2-1 4.3-3 6.7-2.3 2.6-2.9 4-2.4 5.9.5 1.8.1 2.9-1.2 3.8-1.6 1.2-1.6 1.6-.5 3 1.2 1.4 1.1 2.6-.5 7.9-1 3.4-2.6 7.3-3.6 8.7-1.1 1.6-2.2 5.6-2.7 10.2-.9 8.4-1 8.5-5.9 14.4-2.4 2.9-4 4-5.3 3.7-1-.3-1.9-.8-1.9-1 0-1.9 3.5-13.6 5.2-17.3 2.8-6 5.8-13.1 5.8-13.5 0-.1-1.1-.6-2.5-.9-3.7-.9-2.7-6.1 1.2-6.1 1 0 1.8-.7 1.8-1.5 0-.9-.7-1.4-1.7-1.2-1.2.2-1.8-.3-1.8-1.5.1-2.3 3.6-7 4.6-6.1.8.9 4.4-.9 4.4-2.2 0-.5-.9-1.2-2-1.5-2.7-.9-2.5-2.4.7-5.7 1.5-1.6 2.7-4 2.8-5.5 0-2 .8-3.1 2.8-4.1 2.7-1.3 2.8-1.5 1.1-3.3-1.9-2.1-1.2-3.5 2.1-4.1 2.3-.4 2.7-3.3.5-3.3s-1.8-2.9.5-3.3c3.3-.6 4.2-2.2 2.1-3.7-1.8-1.4-1.8-1.5.8-2.4 2.7-1.1 3.3-2.5 1.6-3.6-1.8-1.1-.1-2.3 2.5-1.7 2.9.5 3.4-1.4.8-3.3-1-.8-1.4-1.9-.9-3 .5-1.4 1.4-1.6 4-1.2 1.9.3 3.7.3 4 0 1-1-1.5-3.3-3.6-3.3-1.3 0-1.8-.6-1.6-1.8.2-1.1 1.3-1.7 3-1.7 3.7-.1 4.4-1.1 1.9-2.5-1.2-.6-2.1-1.5-2.1-2.1 0-1.6 5.2-.6 6.4 1.3zm81.2 1.5c-.7.7-2.6-.7-2.6-1.9 0-.6.6-.6 1.5.2.9.7 1.3 1.5 1.1 1.7zm109.4 1.2c0 2.3-1.6 3.6-2.5 2.1-.9-1.4.1-4 1.5-4 .5 0 1 .9 1 1.9zm-39.5 2.8c-.7 3.8-1.2 5-1.9 4.2-.7-.9.7-7.9 1.6-7.9.6 0 .8 1.4.3 3.7zm-56.7 1.7c.3 1.2-.1 1.7-1 1.4-.7-.3-1.5-1.3-1.6-2.2-.3-1.2.1-1.7 1-1.4.7.3 1.5 1.3 1.6 2.2zm50.8 3.3c-1 1-1.9-.5-1-1.8.6-1.1.8-1.1 1.2 0 .2.7.1 1.5-.2 1.8zM338 388c0 6.9-1 15.3-1.6 14.7-1-1-2.5-12.3-3-22.2-.2-6.1-.7-12.3-.9-13.9-.3-1.6 0-3.6.7-4.4 1-1.2 1.6.4 3.1 8.9 1 5.7 1.8 13.3 1.7 16.9zm8.5-24c.3.6-.6 1.5-2 2-3.8 1.4-4.5 1.3-4.5-1 0-1.5.7-2 2.9-2 1.7 0 3.3.5 3.6 1zM119 369.4c0 1.3-1.1 5.7-2.4 9.7-1.3 4.1-3.1 10.1-4.1 13.4-.9 3.3-2.1 7.3-2.6 8.9-.5 1.6-.9 4.1-.9 5.5 0 1.4-.7 4.6-1.6 7.1-2.4 6.7-4.2 14.2-4.2 17-.1 1.4-.6 5-1.1 8-.6 3-1.4 8.8-1.7 12.9-.3 4-.9 8.4-1.4 9.7-1.1 2.8.4 4.1 2.5 2.4 1.2-1 1.8-1 3 0 2.1 1.7 1.9 3-.5 3-2.6 0-2.6 1.6 0 3 2.7 1.4 2.6 5.3-.2 8.5-1.9 2-3.7 2.7-9.3 3.4-3.8.5-8.5 1.3-10.2 1.6-4 .9-4.4-.7-1-3.6 1.9-1.6 1.9-1.8.5-1.9-2.8 0-2.1-1.7 1.2-2.9 3.4-1.1 3.8-2.5 1.3-4-1.6-.9-1.6-1.2-.3-2.1.8-.5 2.3-1 3.3-1 2.6 0 2.1-1.7-1-3.4l-2.8-1.5 3.3-.1c2.9 0 3.2.3 3.2 3 0 1.7-.7 4.5-1.6 6.2-1.6 3-1.2 7.8.6 7.8.5 0 1.2-1.2 1.6-2.8 1.1-5.3 1.2-5.4 3.4-4 1.7 1.1 2.2 1 3-.2 1.4-2.2 1.2-4-.5-4.6-.9-.4-1.7-2.6-2.1-5.5-.7-5-1.8-6-3.8-3.5-.8 1-1.8 1.2-3.3.5-2.9-1.1-2.9-2.7-.1-3.1 2.1-.3 2.2-.7 2-8.8-.1-5 .4-11 1.2-14.5 1.5-5.7 1.4-6.1-.4-7.4-2.1-1.4-2.8-5.1-1-5.1 1.9 0 4-4.7 4.5-10 1.2-12.1 4.6-27.3 6.4-28.5 1-.5.2-5.5-1.1-7.2-.6-.7-.3-1.3 1-1.7 1.1-.4 2.3-1.7 2.8-2.9.5-1.5.9.3 1.1 5.8.3 6.9 0 9.3-3.1 18.5-3.3 10.2-7.5 27.9-7.6 33-.1 1.4-.3 7.6-.6 13.7-.3 7.4-.2 11.3.5 11.3 2.1 0 2.8-3.8 3.5-16.8.7-13.4 3.9-31.5 7.1-40.2.9-2.5 2.1-6 2.6-7.7.5-1.8 1.7-3.7 2.7-4.3 1.2-.8 1.4-1.3.5-1.6-2-.8-1.5-3.2.7-4.4 1.1-.6 2-1.7 2-2.5 0-.9.4-2.3.9-3.3.5-.9 1.2-2.5 1.5-3.5.8-2.5 2.6-2.1 2.6.7zm163.5-1.1c2.1 1.6.8 2.8-2.3 2.1-1.2-.4-1.9-1.1-1.5-2 .6-1.7 1.4-1.8 3.8-.1zm65.9 1.6c.5.8-4.1 2.4-5.9 2.2-1.4-.2-.3-1.7 1.7-2.3 3.4-.9 3.6-.9 4.2.1zM245 372c0 .5-.5 1-1.1 1-.5 0-.7-.5-.4-1 .3-.6.8-1 1.1-1 .2 0 .4.4.4 1zm48 .5c0 .8-.7 1.5-1.5 1.5-1.6 0-2-1.2-.8-2.3 1.1-1.2 2.3-.8 2.3.8zm-12.9 1.8c-1.3 1.3-2.6.3-1.6-1.2.3-.6 1.1-.8 1.7-.5.6.4.6 1-.1 1.7zm65.4 1.8c-.8 1.2-3.5 1.2-3.5 0 0-1.1 2.2-2 3.3-1.4.4.2.5.9.2 1.4zM281 378c0 .5-.4 1-1 1-.5 0-1-.5-1-1 0-.6.5-1 1-1 .6 0 1 .4 1 1zm72.8 2.9c.3 1-.3 1.1-2.7.6-2.2-.5-3.9-.2-5.7 1-2.9 1.8-3.8 1.6-2.8-.8 1-2.7 10.3-3.4 11.2-.8zM177 383c0 .5-.2 1-.4 1-.3 0-.8-.5-1.1-1-.3-.6-.1-1 .4-1 .6 0 1.1.4 1.1 1zm109.3.6c.8.8-.3 3.4-1.4 3.4-.5 0-.9-.9-.9-2 0-1.9 1.1-2.6 2.3-1.4zm-47.3 2c0 .2-.7.4-1.5.4s-1.5-.4-1.5-1c0-.5.7-.7 1.5-.4.8.4 1.5.8 1.5 1zm4.6 2.1c-1.1 1.1-1.9-.6-1.1-2.4.8-1.7.8-1.7 1.2 0 .3 1 .2 2.1-.1 2.4zM301 385c0 .5-.4 1-1 1-.5 0-1-.5-1-1 0-.6.5-1 1-1 .6 0 1 .4 1 1zm-48 1c0 .5-.4 1-1 1-.5 0-1-.5-1-1 0-.6.5-1 1-1 .6 0 1 .4 1 1zm-71 .9c0 1.2-2 2.5-2.7 1.8-.7-.7.6-2.7 1.8-2.7.5 0 .9.4.9.9zm74.8 4c.3.8-.1 1.2-.9.9-.7-.2-1.5-1-1.7-1.7-.3-.8.1-1.2.9-.9.7.2 1.5 1 1.7 1.7zm28.8 3.5c.8 1.8.8 2.8.1 3.5-1.9 1.9-2.5 1.2-2.4-2.4.1-4.1.8-4.4 2.3-1.1zm-100.6.7c0 .5-.4.9-1 .9-.5 0-1-.7-1-1.6 0-.8.5-1.2 1-.9.6.3 1 1 1 1.6zm48 .5c0 .8-.4 1.2-1 .9-.5-.3-1-1-1-1.6 0-.5.5-.9 1-.9.6 0 1 .7 1 1.6zm71 1.4c0 .5-.4 1-1 1-.5 0-1-.5-1-1 0-.6.5-1 1-1 .6 0 1 .4 1 1zm-34.5 1.8c0 1.8-2 1.5-2.3-.4-.3-1 .1-1.5 1-1.2.7.3 1.3 1 1.3 1.6zm-82.5 1.3c0 .6-.4.7-1 .4-.5-.3-1-1.1-1-1.6 0-.6.5-.7 1-.4.6.3 1 1.1 1 1.6zm64 1.6c0 2.4-2.5.9-2.8-1.7-.3-2.1-.2-2.2 1.2-1.1.9.7 1.6 2 1.6 2.8zm-89-1.2c0 .8-.4 1.5-1 1.5-.5 0-.7-.7-.4-1.5.4-.8.8-1.5 1-1.5.2 0 .4.7.4 1.5zm120-.5c0 .5-.4 1-1 1-.5 0-1-.5-1-1 0-.6.5-1 1-1 .6 0 1 .4 1 1zm23.1 1.3c-1.3 1.3-2.6.3-1.6-1.2.3-.6 1.1-.8 1.7-.5.6.4.6 1-.1 1.7zm-40.1.4c2.2 1.9 2.8 4.8.8 3.9-.7-.3-2.1-.9-3-1.2-1.9-.7-2.5-4.4-.8-4.4.5 0 1.9.8 3 1.7zm20.2.5c-.7.7-1.2.8-1.2.2 0-.6.3-1.4.7-1.7.3-.4.9-.5 1.2-.2.2.3-.1 1.1-.7 1.7zm-53.6 3.3c.3 1.4 1 2.5 1.5 2.5s.9.5.9 1.2c0 .6-1.1.1-2.5-1.2-2.5-2.4-3.3-5-1.5-5 .5 0 1.2 1.1 1.6 2.5zm24.9-.2c0 2.6-2 2.5-2.3-.2-.3-1.6.1-2.2 1-1.9.7.3 1.3 1.2 1.3 2.1zm-164.8 3.9c-.3.7-.5.2-.5-1.2s.2-1.9.5-1.3c.2.7.2 1.9 0 2.5zm168.5-.7c0 .5-.5 1.1-1.1 1.3-.6.2-1.1-.4-1.1-1.3s.5-1.5 1.1-1.3c.6.2 1.1.8 1.1 1.3zm-89.5 3.1c-.9.9-2.8-.6-2.1-1.8.4-.6 1-.6 1.7.1.6.6.8 1.3.4 1.7zm78.3-1.2c0 .3-.4.8-1 1.1-.5.3-1 .1-1-.4 0-.6.5-1.1 1-1.1.6 0 1 .2 1 .4zm34 1.7c0 .5-.4.9-1 .9-.5 0-1-.7-1-1.6 0-.8.5-1.2 1-.9.6.3 1 1 1 1.6zm-191 1.3c0 1.4-.4 2.8-1 3.1-.6.4-1-.7-1-2.4s.5-3.1 1-3.1c.6 0 1 1.1 1 2.4zm145-.4c0 1.1.5 2 1 2 .6 0 1 .7 1 1.5 0 2.4-1.4 1.7-2.7-1.2-1.6-3.3-1.6-4.3-.3-4.3.6 0 1 .9 1 2zm14.5 0c.3.5.1 1-.4 1-.6 0-1.1-.5-1.1-1 0-.6.2-1 .4-1 .3 0 .8.4 1.1 1zm52.3 1.2c-.2 1.3-.7 2.3-1.3 2.3-.5 0-1.6.4-2.2.8-.8.5-1.3.4-1.3-.2 0-.6.4-1.1.9-1.1s1.3-.9 1.6-2c.9-2.7 2.7-2.5 2.3.2zm-24.8 4.4c0 3.5.8 4.2 2.7 2.3.8-.8.9-.2.4 2.2-.8 4.1-2.8 4.8-4.1 1.4-1.3-3.5-1.3-10.8 0-10 .6.3 1 2.2 1 4.1zm-32.1 2.1c-.2 3.2-1.5 6.8-2.1 5.8-.8-1.4.2-7.5 1.3-7.5.5 0 .9.8.8 1.7zm11.6-.7c.3.5-.1 1-1 1s-1.3-.5-1-1c.3-.6.8-1 1-1 .2 0 .7.4 1 1zm-47.3 2.2c-.7.7-1.2.8-1.2.2 0-1.4 1.2-2.6 1.9-1.9.2.3-.1 1.1-.7 1.7zm91.2-1.4c.2.4.1 1.4-.4 2.2-.7 1.1-1.2 1.2-2.1.3-.6-.6-.8-1.6-.5-2.2.8-1.3 2.3-1.4 3-.3zm-51.4 1.6c0 .8-.4 1.8-1 2.1-.5.3-1-.3-1-1.4 0-1.2.5-2.1 1-2.1.6 0 1 .6 1 1.4zm-76 1c0 .3-.4.8-1 1.1-.5.3-1 .1-1-.4 0-.6.5-1.1 1-1.1.6 0 1 .2 1 .4zm22 1.5c0 .5-.7 1.4-1.5 2.1-1.2 1-1.5 1-1.5-.2 0-.8.3-1.8.7-2.1.9-1 2.3-.9 2.3.2zm56.5 2c.3.5.1 1.2-.5 1.6-.5.3-1-.1-1-.9 0-1.8.6-2.1 1.5-.7zm3.2 1.3c-.3.8-.6.5-.6-.6-.1-1.1.2-1.7.5-1.3.3.3.4 1.2.1 1.9zm46.3-.2c0 1.1-.4 2-1 2-.5 0-1-.9-1-2s.5-2 1-2c.6 0 1 .9 1 2zm-27 .5c0 .8-.4 1.5-1 1.5-.5 0-1-.7-1-1.5s.5-1.5 1-1.5c.6 0 1 .7 1 1.5zm23 2.5c0 .5-.2 1-.4 1-.3 0-.8-.5-1.1-1-.3-.6-.1-1 .4-1 .6 0 1.1.4 1.1 1zm-136.2 3.9c.3 1.6-.1 2.2-1 1.9-.7-.3-1.5-1.5-1.6-2.7-.3-1.6.1-2.2 1-1.9.7.3 1.5 1.5 1.6 2.7zm114.9-.3c-.9.9-2.8-.6-2.1-1.8.4-.6 1-.6 1.7.1.6.6.8 1.3.4 1.7zm-61.7-.9c0 1.4-1.9 3.8-2.5 3.2-.8-.8.5-3.9 1.6-3.9.5 0 .9.3.9.7zm37 .9c0 .8-.5 1.2-1 .9-.6-.4-.8-1.1-.5-1.6.9-1.4 1.5-1.1 1.5.7zm48 5.2c0 2.7-.4 4.2-.9 3.6-1-1.1-2.2-8-1.4-8.8 1.3-1.3 2.3.8 2.3 5.2zm-131-.2c0 .3-.7.1-1.5-.6s-1.5-.9-1.5-.4c0 .4-.5.3-1.1-.3-.6-.6-.8-1.6-.4-2.3.5-.8 1.3-.5 2.6.9 1 1.1 1.9 2.3 1.9 2.7zm48.3 1c-.4 1-.9 1.2-1.5.6-1.2-1.2-.1-3.5 1.2-2.7.5.3.6 1.3.3 2.1zm38.4-2c-.3.3-1.2.4-1.9.1-.8-.3-.5-.6.6-.6 1.1-.1 1.7.2 1.3.5zm14.3.4c0 .5-.7 1-1.5 1s-1.5-.5-1.5-1c0-.6.7-1 1.5-1s1.5.4 1.5 1zm22.6 4.3c.1 1.8-.1 3.6-.4 4.2-.7 1-1.9-3.3-2.1-7.5-.1-1.9.2-2.1 1.1-1.2.7.7 1.3 2.7 1.4 4.5zM187 440c0 .5-.4 1-1 1-.5 0-1-.5-1-1 0-.6.5-1 1-1 .6 0 1 .4 1 1zm75.3 2c.7 2.8-.4 3.1-3.1 1-2.3-1.9-2.1-2.1 1.9-2.9.4 0 .9.8 1.2 1.9zm16.7-1.6c0 .3-.4.8-1 1.1-.5.3-1 .1-1-.4 0-.6.5-1.1 1-1.1.6 0 1 .2 1 .4zM170 443c0 .5-.5 1-1.1 1-.5 0-.7-.5-.4-1 .3-.6.8-1 1.1-1 .2 0 .4.4.4 1zm16.3 1.4c.6 1.5-.1 2.6-1.5 2.6-.4 0-.8-.9-.8-2 0-2.3 1.5-2.7 2.3-.6zm3.7 3.2c0 .8-.7 1.4-1.5 1.4-1.5 0-2.1-2.1-.9-3.3 1-.9 2.4.2 2.4 1.9zm40 .6c0 .7-.5 2-1 2.8-.8 1.2-1 .9-1-1.3 0-1.5.5-2.7 1-2.7.6 0 1 .6 1 1.2zm69 .5c0 1-.4 2.4-.9 3.2-.7 1.1-1 .9-1.6-.8-.7-2.2 0-4.1 1.6-4.1.5 0 .9.8.9 1.7zm-123 3.9c0 .8-.4 1.2-1 .9-.5-.3-1-1-1-1.6 0-.5.5-.9 1-.9.6 0 1 .7 1 1.6zm16.5 1.4c-.5.8-1.1.8-1.7.2-.6-.6-.7-1.6-.3-2.2.5-.8 1.1-.8 1.7-.2.6.6.7 1.6.3 2.2zm98.1 1.7c-1 1-1.9-.5-1-1.8.6-1.1.8-1.1 1.2 0 .2.7.1 1.5-.2 1.8zm149.3 8.2c1 .6 2 .8 2.3.6.2-.2 2-.5 3.9-.6 1.8-.2 4-.7 4.6-1.2 1.4-1 7.3.9 7.3 2.4 0 .4 2 2.9 4.5 5.5 2.5 2.5 4.5 5.2 4.5 6 0 2.3-5.7-1.4-7-4.6-.6-1.4-3.1-3.6-5.6-4.9l-4.6-2.5-4.3 2.4c-3.8 2.1-4.7 2.2-7.1 1.1-2.2-1-3-1-4.1.2-1.2 1.2-1.2 1.8-.2 3.4.8 1.3.9 3 .4 4.9-.5 1.6-1 3.6-1 4.4-.1.8-.3 1.9-.5 2.5-.3 1.2-2.8-21.6-2.9-26.8l-.1-3.9 4 5.1c2.2 2.7 4.8 5.5 5.9 6zm-218.7-6.7c-.7.7-1.2.8-1.2.2 0-1.4 1.2-2.6 1.9-1.9.2.3-.1 1.1-.7 1.7zm75.4-.1c.7 1.3-3.5 10.9-4.8 10.9-.5 0-.7-.9-.3-1.9.3-1.1 0-2.9-.7-4-1-1.7-1-2.3.1-3.3 1-1.1 1.2-.9.9.8-.1 1.1.2 2.1.7 2.2.6.1.9-1.2.7-2.8-.2-2.1.1-3 1.2-3 .8 0 1.8.5 2.2 1.1zm-70.6 1.7c0 .4-1.1 1.2-2.5 1.8-2.3 1.1-2.4 1.1-.8-1.2 1.3-2.1 3.3-2.5 3.3-.6zm94 .3c0 1.1-.4 1.7-1 1.4-.5-.3-1-1.3-1-2.1s.5-1.4 1-1.4c.6 0 1 .9 1 2.1zm-123.5 1.7c0 1.8-2 1.5-2.3-.4-.3-1 .1-1.5 1-1.2.7.3 1.3 1 1.3 1.6zM177 462c0 .5-.4 1-.9 1-.6 0-1.3-.5-1.6-1-.3-.6.1-1 .9-1 .9 0 1.6.4 1.6 1zm50.9.4c.9 1.1.8 1.8-.4 3-2 2-4.5 2.1-4.5.2 0-1.2 2.5-4.6 3.4-4.6.2 0 .9.6 1.5 1.4zm18.1.1c0 .8-.4 1.5-1 1.5-.5 0-1-.7-1-1.5s.5-1.5 1-1.5c.6 0 1 .7 1 1.5zm-92.2 1.3c.2.7-.3 1.2-1.2 1.2-.9 0-1.6-.7-1.6-1.6 0-1.7 2.2-1.4 2.8.4zm128.2.7c0 .8 0 1.8.1 2.2 0 .4-.4.9-1 1.1-.6.2-1.1-.8-1.1-2.2 0-1.4.5-2.6 1-2.6.6 0 1 .7 1 1.5zm-86 1.1c0 .8-.4 1.2-1 .9-.5-.3-1-1-1-1.6 0-.5.5-.9 1-.9.6 0 1 .7 1 1.6zm60-.2c0 .8-.4 1.8-1 2.1-.5.3-1-.3-1-1.4 0-1.2.5-2.1 1-2.1.6 0 1 .6 1 1.4zm-70 .6c0 .5-.4 1-1 1-.5 0-1-.5-1-1 0-.6.5-1 1-1 .6 0 1 .4 1 1zm75.7 3.2c-.3.7-.5.2-.5-1.2s.2-1.9.5-1.3c.2.7.2 1.9 0 2.5zm17.3 1.4c0 3.7-1.5 4.6-2.5 1.4-.8-2.5.3-6.2 1.6-5.5.5.4.9 2.2.9 4.1zm-43.4 2.3c.2 5.2 1.4 8.7 1.4 3.8 0-1.4.3-3.2.6-4.1.5-1.4.9-1.4 2.7-.1 2.6 1.8 2.9 8 .5 10.2-1 .9-1.8 2.2-1.8 3 0 .7-.4 1.3-1 1.3-.5 0-1-.7-1-1.6 0-1-.6-1.4-1.5-1-.9.3-1.5 0-1.5-1s-.6-1.4-1.5-1c-.8.3-1.5.1-1.5-.3 0-.5.4-1.1.8-1.3.5-.2 1.2-1.6 1.6-3.1.5-2.3.4-2.8-1.1-2.5-2.5.4-3-4.4-.7-6.6 2.6-2.7 3.9-1.3 4 4.3zm-7 2.7c-1.1 3-2.4 1.2-2.1-2.9.5-5.7.5-5.7 1.7-1.8.5 1.8.7 4 .4 4.7zm37.3-4.4c-.1.7-.5 2.4-.9 3.8-.7 2.2-.8 2.1-.9-1.3-.1-2 .4-3.7.9-3.7.6 0 1 .6.9 1.2zm22.5 1.4c-1.2 1.7-2 2.2-2.7 1.5-.8-.8-.5-1.5.9-2.6 2.9-2.2 3.6-1.8 1.8 1.1zm-130.3.6c2.2 2.5 2.4 3.8.6 3.8-1.9 0-3.7-2.1-3.7-4.2 0-2.4.9-2.3 3.1.4zm42.6 0c-.3.8-.6.5-.6-.6-.1-1.1.2-1.7.5-1.3.3.3.4 1.2.1 1.9zm53.3 2.4c0 2.1-.4 3.3-1 2.9-1.7-1-1.1-6.5.7-6.5.2 0 .3 1.6.3 3.6zm21 .9c0 .5-.5.3-1-.5s-1-2-1-2.5c0-.6.5-.3 1 .5s1 1.9 1 2.5zm19 1.4c0 .6-.4 1.3-1 1.6-.5.3-1-.1-1-.9 0-.9.5-1.6 1-1.6.6 0 1 .4 1 .9zm-45.8 7.1l-2.2 2.1v-2.9c0-3.7 1-4.6 2.9-2.7 1.3 1.3 1.3 1.7-.7 3.5zm205.2 3.7c-.6 5.4-.5 6.5.7 6.1.9-.3 1.7-2.7 2.1-6.3.8-6.4 2.1-8.6 3.9-6.8.8.8.8 2.6-.1 6.7-.9 4.6-1.7 5.9-4 7.1-6.4 3.3-10-2.8-6.6-11 1.1-2.5 1.9-3.3 3.1-2.9 1.3.5 1.4 1.7.9 7.1zm-177.2 6c-.3 4.6-.8 6.3-1.8 6.3-1.7 0-2-8.5-.3-9.6.6-.4.8-2 .4-4-.3-1.9-.2-4 .2-4.7 1.1-1.8 1.9 4.6 1.5 12zm11.3-8.7c-.5.8-1.1.8-1.7.2-.6-.6-.7-1.6-.3-2.2.5-.8 1.1-.8 1.7-.2.6.6.7 1.6.3 2.2zm16.5-.5c0 1.4-.4 2.5-.9 2.5-1.2 0-1.9-2.1-1.3-3.8.8-2.1 2.2-1.3 2.2 1.3zm142.3 2.3c-.3 2-1.2 4.9-1.9 6.4-.8 1.5-1.1 3.4-.8 4.2.5 1.2-.1 1.6-2.1 1.6-2.7 0-2.8-.1-1-2 2.2-2.4 1.3-5.9-1-4-.8.7-1.5 2.1-1.5 3.2s-1.1 3.3-2.5 5l-2.5 3v-6.1c0-5.4.2-6.1 2-6.1 2.5 0 2.7-3 .3-3.1-1.4 0-1.3-.2.4-.9 1.2-.5 2.7-1.8 3.3-3 .8-1.4 1.7-1.9 3-1.5 1 .3 2.1.1 2.5-.5 1.3-2.1 2.4.1 1.8 3.8zm-253.9-3.2c1.5.6 2.3 3.4 1 3.4-1.3 0-4.4-2.1-4.4-3 0-1.1 1.1-1.3 3.4-.4zm273 .9c.3.9 0 1.5-.9 1.5-.8 0-1.5-.7-1.5-1.5s.4-1.5.9-1.5 1.1.7 1.5 1.5zm-357.8 6.2c2 4.5 1.8 6.3-.7 6.3-1.1 0-3.5 1.1-5.3 2.5-1.8 1.4-4.5 2.5-6 2.5-5.1 0-12.9 4.6-16.9 9.9-2 2.8-3.7 5.5-3.7 6.1 0 .5-.4 1-1 1-1.4 0 0-6.1 2.2-9.2 1-1.5 3.7-4.3 6-6.3 3.2-2.7 3.9-3.8 3-4.7-1.7-1.7-8 2-11 6.4-2.7 3.8-4.6 4.9-3.4 2 .9-2.4 4.8-7.8 8.5-11.5 6.2-6.5 1-6.4-5.6 0-4.2 4.1-4.7 4.4-3.3 1.8 2.2-4.1 5.6-8 8.5-9.5 1.3-.7 7.4-1.8 13.5-2.4 12.3-1.4 12.4-1.4 15.2 5.1zm135.4-3.2c0 3.4-1.2 4.6-2.5 2.4-.9-1.4.3-5.9 1.5-5.9.6 0 1 1.6 1 3.5zm7.8.7c-.4 4.1-2.8 5-2.8 1 0-1.6.3-3.2.7-3.5 1.5-1.6 2.4-.5 2.1 2.5zm4.2-1.7c0 .8-.4 1.5-.9 1.5-1.3 0-2.2-1.6-1.4-2.4 1.1-1.1 2.3-.6 2.3.9zM152 491c0 .5-.4 1-1 1-.5 0-1-.5-1-1 0-.6.5-1 1-1 .6 0 1 .4 1 1zm103.8 3.6c-.2 1.9-1 3-2.1 3.2-1.7.3-1.8-.1-1.2-3 .4-1.8 1-3.7 1.2-4.1 1-1.7 2.5 1.1 2.1 3.9zm4.2-2.5c0 .5-.4.9-1 .9-.5 0-1-.7-1-1.6 0-.8.5-1.2 1-.9.6.3 1 1 1 1.6zm26.3.1c.6 2.3.1 3.8-1.3 3.8-1.2 0-2.3-3.7-1.5-5 1-1.6 2.2-1.1 2.8 1.2zM297 491c0 .5-.5 1-1.1 1-.5 0-.7-.5-.4-1 .3-.6.8-1 1.1-1 .2 0 .4.4.4 1zm-124.3 1.7c.7 1.9-2.3 2.2-3.4.4-.9-1.5-.7-1.7 1-1.6 1.1.1 2.2.6 2.4 1.2zm36.3.3c0 .5-.4 1-1 1-.5 0-1-.5-1-1 0-.6.5-1 1-1 .6 0 1 .4 1 1zm55 .6c0 .8-.5 1.2-1 .9-.6-.4-.8-1.1-.5-1.6.9-1.4 1.5-1.1 1.5.7zm17.4.6c.8 3.3.8 3.8-.7 3.8-1.6 0-4-3.8-3.2-5 1.1-1.8 3.3-1 3.9 1.2zm184.5 1.4c1.1 3 1.1 3.8 0 5-2.4 2.4-4.1.2-3.3-4.4.4-2.3 1-4.2 1.3-4.2.4 0 1.3 1.6 2 3.6zM176 493.9c0 .6-.4 1.3-1 1.6-.5.3-1-.1-1-.9 0-.9.5-1.6 1-1.6.6 0 1 .4 1 .9zm71.4 1.2c-.3.5-1 .7-1.5.3-.5-.3-.7-1-.3-1.5.3-.5 1-.7 1.5-.3.5.3.7 1 .3 1.5zm12.6 1.6c0 1.9-.3 2.4-1 1.7-.6-.6-.8-1.8-.4-2.7.9-2.4 1.4-2.1 1.4 1zm9.8-1.5c-.6 1.8-2.8 2.1-2.8.4 0-.9.7-1.6 1.6-1.6.9 0 1.4.5 1.2 1.2zm-5.4 5.3c-.6 1.4-3.4 2.9-4.1 2.1-.3-.2.3-1.3 1.3-2.5 1.9-2.1 3.7-1.9 2.8.4zm5.6-.1c0 .8-.4 1.7-.9 2.1-1.2.7-2.4-1.2-1.6-2.5.9-1.5 2.5-1.2 2.5.4zm-151.5.5c.3.5-.4 1.1-1.6 1.3-2.7.4-5 3.8-3.1 4.5 1 .4.9.8-.4 1.7-.9.7-1.4 1.8-1 2.4.4.7 2.7.3 7.2-1.4 6.9-2.6 8.4-2.5 8.4.7 0 1.6-.7 1.9-4.2 1.9-4.3 0-7.8 2.1-7.8 4.7 0 1.5.9 1.4 7.6-.9 3.3-1.2 6.4-.6 6.4 1.1 0 .6-1.8 1.5-4.1 2.1-5.2 1.4-4.6 3.5 1.2 3.6 6.5.1 6.7.2 3.4 2.9-2.5 2-2.8 2.6-1.5 3.4.8.6 1.5 1.8 1.5 2.8 0 1.5.7 1.7 4.3 1.5 4.5-.4 5.4.6 2.2 2.6-1.4.8-2 2.3-2 4.6 0 3 1.2 4.5 10.3 13.1 5.6 5.4 10.7 10.7 11.4 11.9 2 3.5 1.6 8.3-.9 10.1-2 1.3-2.1 1.8-1 3.6 1.9 3 .8 3.5-3.5 1.6-2.1-.9-7.1-2.6-11.1-3.8-4-1.2-7.5-2.6-7.8-3.1-.6-1-3.4.9-3.4 2.3 0 .5 1 1.4 2.3 1.9 1.2.6 2.9 1.4 3.7 1.9 2.2 1.3 16.3 5.6 17.8 5.5 1.6-.2 1.5.8-.5 5.1-1.6 3.3-3.3 4.6-3.3 2.5 0-.6-.4-1-1-1-1.3 0-4.2 5.8-3.5 7 1 1.6 2.1 1.2 3.3-1.3l1.1-2.2v2.5c.1 4.3-1.1 5.2-4.7 3.5-2.7-1.4-16.4-2.4-19.7-1.4-3.4 1-15.5-9.1-15.5-12.9 0-1.1-.6-2.2-1.4-2.5-.8-.3-2.5-2.4-3.8-4.6-3-5.2-4.6-5.3-4.2-.1.6 8.4 1.9 10.3 13 19.1l7.9 6.3 10.2-.3c5.6-.1 11 .2 12 .8 1 .5 2.6 1.2 3.6 1.5.9.3 1.7 1.3 1.7 2.2 0 .9 1.2 4.3 2.6 7.5 1.5 3.3 2.4 6.2 2.1 6.5-.3.4-2.7-.6-5.2-2-4-2.4-4.4-2.9-3.4-4.7 1.2-2.4.8-7.4-.6-7.3-.5 0-1.2 1.3-1.5 3-.6 3.4-2.5 3-2.6-.6-.2-5.3-.4-5.6-1.9-3.6-.8 1.1-1.5 2.8-1.5 3.9 0 1-.5 1.7-1.2 1.4-.7-.2-1.3-1.7-1.3-3.2-.1-1.6-.6-3-1.2-3.2-1.3-.5-2.7 3.2-1.8 4.6.3.6-.2 1.4-1.1 1.9-4 2.2-19.7-8.6-30.5-21-14.5-16.5-19.4-27.7-21.3-47.8l-.6-6.5 3.8-2.8c2-1.6 4.6-3.4 5.7-4.2 1.5-1 1.7-1.7.9-2.5-.9-.8-2.1-.7-4.9.4-2.1.9-3.9 1.6-4.2 1.6-.2 0 1-1.8 2.8-4 2.4-2.9 4.2-4.1 7.3-4.8 5-.9 5-2.5-.1-3.2-4.4-.6-3.1-2 2.7-3 4.3-.7 4.8-3.3.8-3.8-1.6-.2-2.8-.8-2.8-1.3 0-1.6 2.9-2.2 4.5-.9 1.8 1.5 6.5-.1 6.5-2.3 0-1.7 5-4.6 10.8-6.2 6.1-1.6 7-1.7 7.7-.6zm336.7.8c1 .9 1.8 2.3 1.8 3.1 0 1.3-.3 1.3-1.8-.1-1-1-3.1-1.7-4.5-1.7-2.6 0-3.4-.9-2-2.3 1.2-1.2 4.6-.7 6.5 1zM217 505.5c0 .8-.4 1.5-1 1.5-.5 0-1-.7-1-1.5s.5-1.5 1-1.5c.6 0 1 .7 1 1.5zm225.6-.1c1.2 1 1.6 1.8.9 2.4-1.4 1.4-5.5-.4-5.5-2.3s2-1.9 4.6-.1zm29.3 3.1c.9.9 1.1 2.3.6 4.4-.8 3.7-2.1 4.7-4 3.1-.8-.6-1.9-.9-2.5-.5-.5.3-1 .2-1-.4 0-.5.5-1.3 1-1.6 1.5-1 0-2.7-1.7-2.1-.9.4-2.2.1-3-.5-1.1-1-1.1-1.5.3-3 1.8-2 7.9-1.6 10.3.6zM165 509.9c0 2.2-1.6 3.6-2.4 2.2-.8-1.2.3-4.1 1.5-4.1.5 0 .9.9.9 1.9zm50.7 2.7c-.9.9-2.8-.6-2.1-1.8.4-.6 1-.6 1.7.1.6.6.8 1.3.4 1.7zM227 511c0 .5-.4 1-1 1-.5 0-1-.5-1-1 0-.6.5-1 1-1 .6 0 1 .4 1 1zm220 2c0 1.2-2.8 2.5-3.6 1.7-.9-.9.6-2.7 2.2-2.7.8 0 1.4.5 1.4 1zm-227.2 1.1c-.2.6-.8 1-1.3 1s-1.1-.4-1.3-1c-.2-.6.4-1.1 1.3-1.1s1.5.5 1.3 1.1zm-56.8 2.3c0 .8-.4 1.7-.9 2.1-1.2.7-2.4-1.2-1.6-2.5.9-1.5 2.5-1.2 2.5.4zm288 1.6c0 1.2-4.2 5.1-4.8 4.5-.5-.5 3.7-5.5 4.5-5.5.2 0 .3.4.3 1zm-286 5.1c0 .5-.4.9-1 .9-.5 0-1-.7-1-1.6 0-.8.5-1.2 1-.9.6.3 1 1 1 1.6zm301.4 1.3c2.3.5 3.5 1.1 2.9 1.7-.5.5-2.2.4-4.3-.3-1.9-.6-4.1-1.2-4.7-1.4-.7-.2-1.3-.8-1.3-1.4 0-.7.6-.8 1.8-.2.9.5 3.4 1.3 5.6 1.6zm-149.4.7c0 1.1-.4 1.7-1 1.4-.5-.3-1-1.3-1-2.1s.5-1.4 1-1.4c.6 0 1 .9 1 2.1zm-122 1.7c0 .4-.5 1.4-1 2.2-.9 1.3-1.1 1.3-1.9 0-.6-.9-.6-1.9.1-2.7 1-1.2 2.8-.9 2.8.5zm27 .6c0 .3-.4.8-1 1.1-.5.3-1 .1-1-.4 0-.6.5-1.1 1-1.1.6 0 1 .2 1 .4zm66 0c0 .2-.7.7-1.6 1-.8.3-1.2.2-.9-.4.6-1 2.5-1.4 2.5-.6zm-4.8 3.8c-.7.7-1.2.8-1.2.2 0-.6.3-1.4.7-1.7.3-.4.9-.5 1.2-.2.2.3-.1 1.1-.7 1.7zm33.5 0c-.3.8-.6.5-.6-.6-.1-1.1.2-1.7.5-1.3.3.3.4 1.2.1 1.9zm134.3.6c0 1.4-2.3 3.2-4.2 3.2-1 0-1.8-.2-1.8-.4s-.3-1.1-.6-2c-.5-1.3.1-1.6 3-1.6 2 0 3.6.4 3.6.8zm11.5.8c1.4.9 2.5 2.6 2.4 3.8 0 2-.1 2-1-.2-.7-1.8-1.4-2.2-3-1.7-2.2.7-4.3-1.1-3.3-2.7.8-1.2 2.2-1 4.9.8zm-228.5 3c0 1.6-1.6 1.9-2.5.4-.8-1.3.4-3.2 1.6-2.5.5.4.9 1.3.9 2.1zm21.7 1c-.9.9-2.8-.6-2.1-1.8.4-.6 1-.6 1.7.1.6.6.8 1.3.4 1.7zM200 536c0 .5-.4 1-1 1-.5 0-1-.5-1-1 0-.6.5-1 1-1 .6 0 1 .4 1 1zm69 .9c0 .6-.4 1.3-1 1.6-.5.3-1-.1-1-.9 0-.9.5-1.6 1-1.6.6 0 1 .4 1 .9zm-52 2.7c0 .8-.4 1.2-1 .9-.5-.3-1-1-1-1.6 0-.5.5-.9 1-.9.6 0 1 .7 1 1.6zm-15.8 2.6c-.9.9-1.2.7-1.2-1.2s.3-2.1 1.2-1.2c.9.9.9 1.5 0 2.4zm251.6-1.5c-.2 1-1 1.8-1.8 1.8s-1.6-.8-1.8-1.8c-.2-1.2.3-1.7 1.8-1.7s2 .5 1.8 1.7zm-220.8.2c0 .6-.4 1.3-1 1.6-.5.3-1-.1-1-.9 0-.9.5-1.6 1-1.6.6 0 1 .4 1 .9zm24.7 2.5c-.4.9-1.1 1.6-1.7 1.6-1.1 0-1.4-3.3-.3-4.4 1.1-1 2.6 1.1 2 2.8zm187.1-2.2c-.6 1.8-2.8 2.1-2.8.4 0-.9.7-1.6 1.6-1.6.9 0 1.4.5 1.2 1.2zm-124.7 1.3c-.1 1.5-2.4 1.2-2.9-.3-.3-.9.2-1.3 1.2-1 1 .1 1.7.7 1.7 1.3zm-82.6.4c.7 1.2-1.2 2.4-2.5 1.6-1.1-.7-.4-2.5 1-2.5.5 0 1.1.4 1.5.9zM253 545c0 .5-.4 1-1 1-.5 0-1-.5-1-1 0-.6.5-1 1-1 .6 0 1 .4 1 1zm16 0c0 .5-.2 1-.4 1-.3 0-.8-.5-1.1-1-.3-.6-.1-1 .4-1 .6 0 1.1.4 1.1 1zm188 2.5c-.7.8-1.8 1.5-2.4 1.5-.8 0-.8-.3 0-.8.6-.4 1.4-1.6 1.8-2.7.6-1.3 1-1.6 1.3-.7.3.7-.1 1.9-.7 2.7zM199 546c0 .5-.2 1-.4 1-.3 0-.8-.5-1.1-1-.3-.6-.1-1 .4-1 .6 0 1.1.4 1.1 1zm3.7 1.2c-.3.8-.6.5-.6-.6-.1-1.1.2-1.7.5-1.3.3.3.4 1.2.1 1.9zm245.8.6c0 1.8-2 1.5-2.3-.4-.3-1 .1-1.5 1-1.2.7.3 1.3 1 1.3 1.6zM234 548c0 .5-.4 1-1 1-.5 0-1-.5-1-1 0-.6.5-1 1-1 .6 0 1 .4 1 1zm200.5 5c.7 4.9.2 7-1.6 7-.5 0-.9-2.7-.9-6 0-7.3 1.5-7.9 2.5-1zm-210.7 1.8c.2.7-.2 1-1.2.6-.9-.3-1.6-1.1-1.6-1.6 0-1.3 2.3-.5 2.8 1zm93.9 2.9c-.3 1-.5.2-.5-1.7s.2-2.7.5-1.8c.2 1 .2 2.6 0 3.5zm136.3 1.1c0 1.3-1.2 2.2-2.2 1.6-1-.6-.1-2.4 1.3-2.4.5 0 .9.4.9.8zM206 560c0 .5-.4 1-1 1-.5 0-1-.5-1-1 0-.6.5-1 1-1 .6 0 1 .4 1 1zm21.6 5.6c.1 1 .8 3.5 1.7 5.4 1.5 3.5 2.6 12.5 1.5 13.5-.4.5-1.6-3-2.3-7-.1-.6-.7-2.1-1.2-3.5-.6-1.4-1.4-4.5-1.8-6.9-.6-3.4-.4-4.2.6-3.9.8.3 1.4 1.3 1.5 2.4zm206 7.5c-.8 1.9-1.5 2.6-1.5 1.7-.1-2.3 2-7.5 2.6-6.2.2.7-.3 2.7-1.1 4.5zm-115-.4c-1 1-1.9-.5-1-1.8.6-1.1.8-1.1 1.2 0 .2.7.1 1.5-.2 1.8zm-158.9 7.5c-.3.7-.5.2-.5-1.2s.2-1.9.5-1.3c.2.7.2 1.9 0 2.5zm159.2.5c0 2.5-.1 2.6-.9.8-1.2-2.7-1.2-3.5 0-3.5.6 0 1 1.2.9 2.7zM485 579c0 .5-.7 1-1.5 1s-1.5-.5-1.5-1c0-.6.7-1 1.5-1s1.5.4 1.5 1zm-278 4c0 .5-.4 1-1 1-.5 0-1-.5-1-1 0-.6.5-1 1-1 .6 0 1 .4 1 1zm112.1 6.5c-.9 3-.9 3-1-1-.1-2.5.2-3.6.9-2.9.6.6.6 2.1.1 3.9zm-161.5 6.1c-3.4 13.4-5.6 17-5.6 9 0-2.8 1.1-6.9 3.2-11.3 3.5-7.7 4.7-6.6 2.4 2.3zm184.9-4.7c.3.5 1.9 1.2 3.5 1.6 1.7.4 2.8 1.1 2.4 1.6-1 1.7-4.9.9-7.9-1.6-2.8-2.3-2.8-2.5-.8-2.5 1.2 0 2.4.4 2.8.9zm91.5 2.6c-.7.8-1.8 1.5-2.4 1.4-.7 0-.6-.2.2-.6.6-.2 1.2-1.4 1.2-2.6 0-1.6.3-1.8 1.2-.9.8.8.8 1.5-.2 2.7zm43.3-.4c-1.3 1.3-5.9.8-5.6-.6.1-.6 1.2-1.3 2.5-1.6 2.8-.7 4.7.6 3.1 2.2zM197 594c0 .5-.4 1-1 1-.5 0-1-.5-1-1 0-.6.5-1 1-1 .6 0 1 .4 1 1zm122 6.7c0 3.5-.3 4.4-1 3.3-1.6-2.5-1.1-8 .7-8 .2 0 .3 2.1.3 4.7zm116.9-1.6c-1.9 1.2-2.4.2-.8-1.7.9-1.1 1.4-1.3 1.7-.4.3.7-.2 1.6-.9 2.1zm-221.5 1.1c.9 1.2 1.4 2.4 1.2 2.6-.7.7-4.6-2.3-4.6-3.5 0-2 1.7-1.5 3.4.9zm113.1 4.5c-1.4 5.7-2.4 16.9-1.8 21.1.3 2.3.2 7.3-.3 11l-.8 6.7-.7-5c-.4-2.8-.8-10.9-.8-18-.3-19.9-.5-18.5 2.5-18.5 2.4 0 2.6.3 1.9 2.7zm111.4 3.7c1.5 3.1 2.4 6.5 2.4 9.5 0 2.5.4 5.1.9 5.8 1.2 1.5.1 8.5-1.7 11-1.3 1.6-1.5 1.7-2.7.2-1.2-1.5-1.7-1.5-4.6-.2-2.6 1-3.2 1.8-2.7 3.1 1.6 3.9 2.5 9.3 3 19.2.6 10.3.5 10.7-3 19.2-4.3 10.7-4.9 19-1.4 20.9 1.9 1 2.1 1.7 1.5 5.9-.5 3.5-.1 7.2 1.4 12.6 2.4 9.3 2.5 11.6.5 15.4-1.9 3.6-3 3.7-6.1.7-1.9-1.8-2.4-3.2-2.4-7.7 0-3 .7-8.4 1.4-12 1.5-7.1 1.4-8-1.2-6.4-2.9 1.9-4.4 9.2-4.6 23.1-.1 7.2-.4 13.5-.8 13.8-2.9 2.9-7.6-5.7-6.1-11.2.4-1.5.6-3.6.4-4.6-.1-1 .2-2.4.7-3 1.4-1.6 4.9-15.9 5.7-23.2.8-7.1 4.4-21.4 5.9-23.4.6-.8 1.2-3.7 1.2-6.5.1-2.8.5-9.4.9-14.8.5-6.7.4-10.6-.4-13-1.7-4.6-3.1-21.6-2.1-24.4.5-1.3.5-3.6 0-5.5-.8-2.6-.6-3.7.7-5.1.9-1 2-1.8 2.5-1.8 1.2 0 1 12.4-.3 13.7-1.5 1.5-1.4 9 .1 10.9 1.9 2.2 3 0 3-6.2 0-2.7.4-5.4.9-6 .6-.5.6-3.6.2-7.4-.8-6.7-.2-8.3 2.9-7.7.8.1 2.6 2.4 3.9 5.1zM479 605c0 .5-1.2 1-2.7.9-2.5 0-2.6-.1-.8-.9 2.7-1.2 3.5-1.2 3.5 0zm9 0c1.1.7.7 1-1.8 1-2 0-3.1-.4-2.7-1 .8-1.3 2.6-1.3 4.5 0zm-275.2 5.9c.3 1.6-.1 2.2-1 1.9-.7-.3-1.5-1.5-1.6-2.7-.3-1.6.1-2.2 1-1.9.7.3 1.5 1.5 1.6 2.7zm7-1.1c.2.7-.3 1.2-1.2 1.2-.9 0-1.6-.7-1.6-1.6 0-1.7 2.2-1.4 2.8.4zm271.2.3c0 1.5-4.7 3.2-6.7 2.5-1.7-.7-1.7-.8 0-2 2-1.5 6.7-1.8 6.7-.5zm-274 6.2c0 .7-.9 2-2 3-1.8 1.5-2.1 1.6-2.7.2-.3-.9.2-2.2 1.3-3 2.4-1.8 3.4-1.9 3.4-.2zm-8 3.3c0 .8-.4 1.4-1 1.4-.5 0-1-.9-1-2.1 0-1.1.5-1.7 1-1.4.6.3 1 1.3 1 2.1zm-68.3 3.7c1.7 1.5 2 2.3 1.2 3.4-1.7 2-2.7 1.6-4.4-1.7-2.8-5.4-1.6-6.1 3.2-1.7zm179.5 1.2c-.2 1.4-.6 2.5-.8 2.5-.2 0-.4-1.1-.4-2.5s.4-2.5.9-2.5c.4 0 .6 1.1.3 2.5zm-169.9 4.9c-.1.5-1.6 1.4-3.4 2-3.8 1.3-5.1 3.6-1.9 3.6 2.6 0 6.1-1.8 7.7-3.9 1.6-2.2 2.2-1.2 2.5 4.4.2 3.3-.1 4.9-1 5.3-1.1.3-1.2 0-.3-1.6 2-3.8-.9-3.6-4.8.3-2.3 2.4-3.2 3.9-2.3 4.2 1.5.6 1.6 2.9.1 3.9-1.5.9-2.9-1.4-2.9-4.8 0-1.4-.9-4.7-2-7.2l-1.9-4.6 3.2-1.4c3.5-1.6 7.3-1.7 7-.2zm169.4 1.8c-.3.7-.5.2-.5-1.2s.2-1.9.5-1.3c.2.7.2 1.9 0 2.5zM51 632c1 .5 3.2 3.9 4.9 7.5 2.6 5.4 3.5 6.5 5.6 6.5 1.4 0 2.9-.8 3.5-2.1.7-1.3 1.9-1.9 3.3-1.7 2.4.3 3.2 2.5 1.7 4.8-.7 1.2-1.2 1.2-2.2.2-1.9-1.9-2.8-1.4-2.8 1.3 0 1.4-.4 2.5-1 2.5-.5 0-1-.6-1-1.4 0-2.6-2.1-2.9-4.4-.7-1.2 1.2-2.8 2.1-3.5 2.1-2.6 0-7.1 3.2-7.7 5.4-1 3.9-7.2 3.9-11.6 0-2.4-2.2-1.1-4.4 2.6-4.4 2.3 0 3.8-.8 5.8-3.4 2.7-3.3 2.7-3.6 1.3-7-1.6-3.7-4.1-5.7-6.3-4.9-.7.3-2.5.2-3.9-.2-2-.5-2.3-.9-1.4-1.8C37 631.6 47.2 630 51 632zm41.4 3.9c.3.4-.5 2.8-1.7 5.2-1.5 3-3 4.5-4.9 5-2.3.6-2.8.4-2.8-1.1 0-2.6 2.8-8.7 4.2-9.3 2.1-.9 4.6-.8 5.2.2zm348.3 3.2c.7.7.8 2.1.2 4.2-.5 1.8-.9 4.8-.9 6.7 0 7.1-1.7 6.2-2.4-1.3-.8-9.4.2-12.5 3.1-9.6zm-17.7 5.1c1.9 7.7-.3 30.5-3.2 33.3-.7.7-.8.1-.4-1.8.4-1.5.7-10.4.7-19.7 0-9.4.4-17 .9-17 .4 0 1.4 2.3 2 5.2zm-265 .8c0 1.3-4.8 3.6-5.6 2.7-.4-.4-.1-1.3.6-2.2 1.4-1.7 5-2 5-.5zm-44.6 2.3c1.6 1.1 1.7 1.7.6 3.6-1.1 2.2-1.2 2.2-3.1.5-3.9-3.5-1.6-7.1 2.5-4.1zm-10.1 5.8c-1.3 1.3-5.9.8-5.6-.6.1-.6 1.2-1.3 2.5-1.6 2.8-.7 4.7.6 3.1 2.2zm363.7-.5c0 2.5-5.3 10.3-7 10.3-4.9 0-6.9-7.4-2.8-10.3 3.1-2.2 9.8-2.1 9.8 0zm-396.6 3.7c.9 1.5.7 2.1-.9 3.3-1.1.8-2.6 1.3-3.5 1.2-1.9-.4-2.5-3.5-.9-5.4 1.5-1.9 3.8-1.5 5.3.9zm21.6-1.7c0 1.7-4.5 8.4-5.6 8.4-2 0-2.5-1.7-.9-3 .8-.7 1.5-1.8 1.5-2.4 0-.7.5-1.7 1.2-2.4 1.3-1.3 3.8-1.6 3.8-.6zM55.3 658c-.3 1.1-.9 2-1.4 2-1 0-1.2-3.3-.3-4.3 1.2-1.2 2.2.3 1.7 2.3zm63.1-.2c.8 1.4-2.8 5-6.8 6.6-2.2.9-4.1 1.4-4.3 1.2-.8-.8 1.8-4.6 3.1-4.6.8 0 2.4-.9 3.7-2 2.6-2.1 3.5-2.4 4.3-1.2zm9.6.7c0 .8-.7 1.5-1.6 1.5-1.4 0-1.4-.3-.4-1.5.7-.8 1.4-1.5 1.6-1.5.2 0 .4.7.4 1.5zm-24.5.5c.3.5-.1 1-.9 1-.9 0-1.6-.5-1.6-1 0-.6.4-1 .9-1 .6 0 1.3.4 1.6 1zm32.9-.4c.9.3 1.6 1 1.6 1.5 0 1.4-2.6 1-4-.6-1.3-1.6-.3-2 2.4-.9zm346.4 5.1c-.2 3.1-.7 3.9-2.7 4.1-2.1.3-2.3.1-1.7-2 .4-1.2.9-3 1.1-3.8.2-.8.4-1.6.4-1.8.1-.1.8-.2 1.7-.2 1.2 0 1.4.9 1.2 3.7zm8.8 0c-.6 1.4-.9 1.5-1.6.4-1.1-1.9-.1-4.6 1.3-3.2.5.5.7 1.8.3 2.8zm-465.1.3c1.4 2.7 1.4 3.1 0 3.6-2.9 1.1-6-3.7-3.8-5.9 1.2-1.3 2.3-.7 3.8 2.3zm9-1.7c1.7 1.3 1.7 1.4-.3 1.9-1.4.4-2.2 0-2.5-1.3-.6-2.2.2-2.4 2.8-.6zM96 662c0 .5-.4 1-.9 1-.6 0-1.3-.5-1.6-1-.3-.6.1-1 .9-1 .9 0 1.6.4 1.6 1zm6 .6c0 .8-.5 1.2-1 .9-.6-.4-.8-1.1-.5-1.6.9-1.4 1.5-1.1 1.5.7zm-28.4 1.9c.2 2.1-.1 2.4-1.2 1.4-1.7-1.4-1.8-3.9-.1-3.9.6 0 1.3 1.1 1.3 2.5zm-28.6 2c0 .8-.4 1.5-1 1.5-.5 0-1-.7-1-1.5s.5-1.5 1-1.5c.6 0 1 .7 1 1.5zm73.7 2.5c-.3 2.2-.1 4.3.4 4.6 1.2.7 1.2 3.4-.1 3.4-.5 0-1.2-1.6-1.6-3.5-.7-4-2-5.3-3.7-3.6-1.5 1.5-2.7 1.4-2.7-.3 0-1.1 5.5-4.2 7.9-4.5.2-.1.1 1.7-.2 3.9zm-32.3-2c1.4.5 2.6 1.6 2.6 2.4 0 2.9-2.3 2.8-5.3-.3-3.4-3.3-2.4-4.1 2.7-2.1zm17.9 2.8c2.1 3.6 1.6 5.2-1.7 5.2-1.3 0-3.5.9-4.9 2-3.4 2.7-4.1 2.5-3.3-1.1.3-1.9.1-3.8-.5-4.6-1.4-1.6-1.5-1.4 3.1-3.6 4.3-2 5-1.8 7.3 2.1zm359.1 2.1c.9 1.2.7 1.3-1.4.8-1.4-.4-3.3-.7-4.2-.7-1 0-1.8-.5-1.8-1 0-.6.6-1 1.4-1 .7 0 2-.7 2.7-1.7 1.3-1.5 1.4-1.5 1.8.3.2 1 .8 2.5 1.5 3.3zm-327.7-1.3c-.9.9-2.8-.6-2.1-1.8.4-.6 1-.6 1.7.1.6.6.8 1.3.4 1.7zm-97 0c.3.8.1 2-.4 2.5-1.2 1.2-4.8-1.4-3.9-2.9 1-1.7 3.6-1.5 4.3.4zm22.2-.1c4.8 2.4 6.5 10.9 3.1 15.1-1.6 1.8-3.4 1.8-2.6-.1.9-2.4-4.8-1.2-9.4 2-3.3 2.3-4.2 2.5-5.5 1.5-.8-.7-1.5-2-1.5-3s-.6-2-1.4-2.3c-2.1-.8-3.2-6.7-1.5-7.8.8-.5 1-.9.6-.9-1.5 0 1.5-4.1 3.6-5 3.5-1.4 11.5-1.1 14.6.5zm377.3.7c-.7.7-1.2.8-1.2.2 0-1.4 1.2-2.6 1.9-1.9.2.3-.1 1.1-.7 1.7zm10.9-1.1c2.3 1.2 1.6 2.9-1.1 2.9-2.1 0-3.4-1.5-2.5-3 .8-1.3 1.2-1.2 3.6.1zM74 671.5c0 2-3.7 3.9-4.3 2.2-.7-2 .4-3.7 2.4-3.7 1 0 1.9.7 1.9 1.5zm53.4-.6c.3.5-.5 1.1-1.9 1.3-2.8.6-3.5-.8-.7-1.5.9-.3 1.8-.5 1.9-.6.1 0 .4.3.7.8zm356.2 2.2c.3.6-.6 2.3-2 3.8-2.9 3-3.4 6.2-1.1 8.1 2.2 1.9 1.9 3.3-1.8 6.8-3.2 3.1-3.6 3.2-9 2.6-3.1-.4-5.7-.9-5.7-1.1 0-.3.9-1.6 2-3 2.1-2.7 1.9-4.3-.6-4.3-.8 0-1.2-.5-.9-1 .7-1.2 5.7-.2 6.7 1.4.5.8 1.1.7 1.9-.1 1-1 1-2.1 0-5.3-1.9-6.3-.2-8.1 8.1-8.9.9 0 2 .4 2.4 1zm8.2 4.9c-.1 6.2-.6 7.1-2.9 4.4-1-1.2-1-2-.1-3.5.7-1 1.2-3 1.2-4.4 0-1.4.4-2.5.9-2.5.6 0 .9 2.7.9 6zm-462.4-3.9c5.5 2.6 10.8 15.3 6.9 16.6-.7.3-1.3-.3-1.3-1.4-.1-2.8-2.6-6.8-3.4-5.4-1 1.6-2.6 1.4-2.6-.4 0-.9.7-1.8 1.5-2.2 1.4-.5 1.4-.8-.1-2.4-.9-1.1-2.5-1.9-3.6-1.9s-1.8-.7-1.8-2c0-2.3.9-2.5 4.4-.9zm107.3 1.2c1.8 1.3.6 2.7-2.1 2.7-2.2 0-4.2-3.1-2.9-4.4.6-.6 3.3.3 5 1.7zM8 678c0 2.4-2.6 3.8-4.2 2.2-1.6-1.6-.2-4.2 2.2-4.2 1.3 0 2 .7 2 2zm79.3 1.8c3.4 3.2 3.4 4.5.1 7.1-2.8 2.2-4.9 2.8-3.9 1 .4-.5.1-2.4-.5-4-1-2.2-1.6-2.7-2.4-1.9-.8.8-.7 1.5.4 2.3 1.1.9 1.5 3.1 1.5 7.9 0 7.4-1.1 9-8.9 12.2-4.4 1.8-5.6 2-5.6.6 0-.5 1.8-1.4 4.1-2 7.2-2 10.7-8.3 5.7-10.5-2.1-.9-3.9-4.7-2.1-4.4 2.1.4 3.3-.2 3.3-1.6 0-.8-.6-1.5-1.4-1.5-3.3 0-2.7-6.2.7-7.7 2.9-1.3 5.6-.5 9 2.5zm350.8 2.4l-.9 3.3-.1-3.6c-.1-2 .2-3.9.6-4.3 1.3-1.2 1.5 1 .4 4.6zm59.6-3c-.3.8-.6.5-.6-.6-.1-1.1.2-1.7.5-1.3.3.3.4 1.2.1 1.9zm-39.2.8c1 1.1 2.6 2.2 3.7 2.6 1.9.6 1.9.7.2 2.5-1.7 1.9-4.5 2.5-5.8 1.2-.4-.4-1.5-.8-2.4-.8-2.3 0-2.7-3.3-.6-5.6 2.1-2.4 2.7-2.4 4.9.1zm-442 .1c-.4.5-1.5.9-2.6.9-2.6 0-1.7-1.5 1-1.7 1.2-.1 1.9.2 1.6.8zm97.4.3c.8 1 .9 1.6.1 2.1-1.5.9-12.1-1.5-11.5-2.6 1-1.5 10.1-1.1 11.4.5zM416.5 692c-.7 3.6-2 10.8-3 16-1.6 9.1-3.1 13.7-4.1 12.7-.9-.9 2.9-23.3 4.6-26.7.9-1.9 2-4.8 2.4-6.4 1.3-5.3 1.4-2.1.1 4.4zM26 687c0 .5-.4 1-1 1-.5 0-1-.5-1-1 0-.6.5-1 1-1 .6 0 1 .4 1 1zm69.5 3.2c-.9 5.3-2 6.8-5.1 6.8-1.7 0-2.8-.8-3.5-2.7-.5-1.4-.6-2.9-.2-3.3 7.5-6.3 9.7-6.5 8.8-.8zm11.8-3.2c1 0 1.7.8 1.7 2 0 2.7-2.3 2.5-5.7-.6l-2.8-2.6 2.5.6c1.4.3 3.3.6 4.3.6zm13.7.6c0 .8-.4 1.2-1 .9-.5-.3-1-1-1-1.6 0-.5.5-.9 1-.9.6 0 1 .7 1 1.6zm-53.5 3.8c-1 .6-2.7 1.9-3.8 3-1.8 1.7-1.8 1.9-.3 3.4s1.8 1.4 4.2-1.1c2.4-2.6 2.8-2.7 4.7-1.4 3 2 2.7 3.9-.6 5-8.6 2.8-15-6.6-7.4-11 2.8-1.7 3.3-1.8 4.1-.4.7 1.1.4 1.8-.9 2.5zM56 694c0 3.2-.5 4.3-2.6 5.6-2.2 1.5-2.7 1.5-3.5.3-1.5-2.4-1-4.9 1.6-7.4 3.4-3.5 4.5-3.1 4.5 1.5zm434-2.5c0 .8-.4 1.5-1 1.5-.5 0-1-.7-1-1.5s.5-1.5 1-1.5c.6 0 1 .7 1 1.5zm-470.4 2.7c.1 1.6-.2 2.8-.7 2.8-.5 0-.9-.5-.9-1 0-.6-1.2-1.5-2.6-2-3.1-1.2-2.5-2.6 1.2-2.5 2.2 0 2.7.5 3 2.7zm10.6-1.5c.7 1 2.2 2.3 3.2 2.8 2.3 1.3 2.3 2.9-.1 3.4-2.1.4-8-2.6-8.7-4.6-1.3-3.4 3.3-4.7 5.6-1.6zm14.2.2c.3.4-.1 1.7-.9 2.7-1.5 1.9-1.5 1.9-3 0-1.7-2.2-1.1-3.6 1.5-3.6 1 0 2.1.4 2.4.9zm-41.3 2.4c-1.3 1.3-2.6.3-1.6-1.2.3-.6 1.1-.8 1.7-.5.6.4.6 1-.1 1.7zm440.9-.4c0 .6-.4 1.3-1 1.6-.5.3-1-.1-1-.9 0-.9.5-1.6 1-1.6.6 0 1 .4 1 .9zm-332 .5c0 .3-.4.8-1 1.1-.5.3-1 .1-1-.4 0-.6.5-1.1 1-1.1.6 0 1 .2 1 .4zm326.1 1.1c-.1 1.5-2.4 1.2-2.9-.3-.3-.9.2-1.3 1.2-1 1 .1 1.7.7 1.7 1.3zm12.9.4c1.4 2.8 1.3 3.1-1.4 3.1-1.9 0-2.2-.4-1.8-2.5.5-3 1.8-3.2 3.2-.6zm32.7 2.2c-.6 2.2 1.7 4.9 4.2 4.9 2 0 4.1 1.9 4.1 3.7 0 .8-.9 2.3-2 3.5-1.8 2-2 2-2.7.3-.4-1.1-.2-2 .5-2.3 1.7-.5.4-2.2-1.7-2.2-1 0-2.4-.7-3.1-1.5-.9-1.1-1.7-1.2-3.2-.4-3 1.6-3.2.5-.3-2.9 1.4-1.7 2.5-3.4 2.4-3.9-.3-1.7.1-2.4 1.2-1.7.6.3.9 1.5.6 2.5zm13 1.1c-.3.7-.5.2-.5-1.2s.2-1.9.5-1.3c.2.7.2 1.9 0 2.5zM101 698.6c0 2.3-2.4 4.4-5.1 4.4h-3l2.7-2.5c2.5-2.3 5.4-3.3 5.4-1.9zm304.6 5.3c-2.6 18-2.5 17.9-5.7 18.3-2.7.4-2.9.2-2.9-2.5 0-2.6 2.1-9 6-18.5 1.5-3.4 3.2-1.6 2.6 2.7zM474 700c0 .5-.4 1-1 1-.5 0-1-.5-1-1 0-.6.5-1 1-1 .6 0 1 .4 1 1zm-365.9 2.3c-1.3 1.3-2.6.3-1.6-1.2.3-.6 1.1-.8 1.7-.5.6.4.6 1-.1 1.7zM41 702c0 .5-.4 1-.9 1-.6 0-1.3-.5-1.6-1-.3-.6.1-1 .9-1 .9 0 1.6.4 1.6 1zm395.8 6.2c0 4-.2 4.7-.8 2.8-1.1-3.5-1.2-9.2-.1-8.6.4.3.8 2.9.9 5.8zm28.4-3.8c.6-.4 1.4 0 1.9.7 1.3 2.1 1.1 2.9-.8 2.9-2.5-.1-5.3-2.4-5.3-4.4 0-1.6.1-1.6 1.6-.2.8.9 2 1.3 2.6 1zm-431.4.3c.2.8-.6 1.3-2.2 1.3-2.6 0-4-1.2-2.9-2.4 1.1-1.1 4.6-.2 5.1 1.1zm28.6-.4c1.7 1.2 1.7 1.4-.2 3.7-1.2 1.5-2.5 2.1-3.6 1.7-2.3-.9-3.1-3.4-1.6-5.2 1.5-1.8 3.1-1.9 5.4-.2zm22.6-.5c0 .5-1.3 1.8-2.9 3-3.3 2.4-5 8.4-3 10.8.9 1.1.9 1.8.1 2.6-1.4 1.4-8.4-.7-10.8-3.3-1.5-1.6-1.3-1.9 2.4-3.8 2.2-1.1 4.2-2.9 4.5-4.1.3-1.2 1.3-2 2.6-2 1.1 0 2.6-.9 3.3-2 1.3-2 3.8-2.8 3.8-1.2zm238.7 3.8c-.9.9-2.8-.6-2.1-1.8.4-.6 1-.6 1.7.1.6.6.8 1.3.4 1.7zM48.5 707c.3.5.1 1-.4 1-.6 0-1.1-.5-1.1-1 0-.6.2-1 .4-1 .3 0 .8.4 1.1 1zm43 2.7c-.9 1.7-2.2 3.6-3 4.3-.8.7-1.5 1.9-1.5 2.6 0 1.8-1.4 1.8-2.9 0-1.2-1.5-.4-7.3 1.2-8.3 1.1-.6 7-2.1 7.5-1.8.1.1-.5 1.6-1.3 3.2zm-65-.6c.4 1.1.4 2.3 0 2.7-.7.7-2.5-1.7-2.5-3.6 0-2 1.8-1.4 2.5.9zm14 0c-.4.5-1.8.9-3.3.9h-2.7l2.5-1.4c2.6-1.3 4.4-1.1 3.5.5zm404.3-.4c-.5 2.6-3.8 2.9-3.8.4 0-1.5.6-2.1 2.1-2.1 1.4 0 1.9.5 1.7 1.7zm-375.5.8c.1.6-1.1 1.6-2.6 2.3-2.2 1.1-2.6 1.7-1.7 2.7.8.9.8 1.5 0 2-2.1 1.3-2.1-2.5 0-5.5 2.1-2.9 4-3.6 4.3-1.5zm33.1 1.7c.8 2.4 0 8.5-2 15.5-.6 2.1-8.9 5.6-11.5 5-3.6-.9-6.9-4.4-6.9-7.2s.3-2.9 3.1-1.5c2.8 1.6 5.5-.3 6.9-4.7.7-2.1 1.8-4.5 2.5-5.3.6-.8 1.5-2.3 1.8-3.3 1-2.8 5-1.8 6.1 1.5zm357.5.4c1.2 1.5 2.1 3.5 2.1 4.5 0 2.2-3.7 4.9-6.7 4.9-2.6 0-6.9-3.7-7.8-6.7-.5-1.9 0-2.5 2.7-3.7 5-2.2 7.4-1.9 9.7 1zM20 714.5c.9 1.1 2.2 1.4 4.3.9 2.7-.5 2.9-.4 2.2 1.2-.5 1.1-1 3.6-1.3 5.7-.5 4.3-1.4 5.1-4.8 4.3-2.7-.7-6.4-5.9-6.4-9.2 0-3.9 3.7-5.7 6-2.9zm31.3 1.5c6.9 5.4 4.2 18-3.8 18-.9 0-1.5-.6-1.3-1.2.3-.7 1.3-1.3 2.3-1.3 1.2 0 1.9-.9 2.1-2.8.1-1.5-.2-2.7-.7-2.7-.5 0-.9.6-.9 1.4 0 .8-.5 1.8-1.1 2.2-1.2.7-1-.8.7-6.6.7-2.5.7-2.5-1.3-.7-1.2 1-2.4 1.4-2.7.9-.3-.5.1-1.6 1-2.3 1.1-.9 1.4-2.2 1-4.1-.7-3.4 1-3.7 4.7-.8zm6.1.1c-.3.5-1 .7-1.5.3-.5-.3-.7-1-.3-1.5.3-.5 1-.7 1.5-.3.5.3.7 1 .3 1.5zm-23.4.8c0 .5-.7 1.4-1.5 2.1-1.2 1-1.5 1-1.5-.2 0-.8.3-1.8.7-2.1.9-1 2.3-.9 2.3.2zm4-.5c0 .3-.4.8-1 1.1-.5.3-1 .1-1-.4 0-.6.5-1.1 1-1.1.6 0 1 .2 1 .4zM7 718c0 .5-.4 1-1 1-.5 0-1-.5-1-1 0-.6.5-1 1-1 .6 0 1 .4 1 1zm476.4 0c2.8 1 3.7 5 1.2 5-1.9 0-4.6-2.7-4.6-4.6 0-1.7.1-1.7 3.4-.4zm-445.3 5.3c-1.3 1.3-2.6.3-1.6-1.2.3-.6 1.1-.8 1.7-.5.6.4.6 1-.1 1.7zm4 0c-1.3 1.3-2.6.3-1.6-1.2.3-.6 1.1-.8 1.7-.5.6.4.6 1-.1 1.7zm-8-.3c.6 0 .7.4.4 1-1 1.6-4.5 1.2-4.5-.6 0-1.1.5-1.4 1.6-1 .9.3 2 .6 2.5.6zm295.9 0c0 .5-.2 1-.4 1-.3 0-.8-.5-1.1-1-.3-.6-.1-1 .4-1 .6 0 1.1.4 1.1 1zm-318 5.1c0 2.6-2 3.4-3.8 1.6-1.3-1.4-1.4-2.1-.3-4.4 1.2-2.7 1.3-2.7 2.7-.8.8 1 1.4 2.7 1.4 3.6zm56.9 1.5c.1 1 1 2.7 1.9 3.6 1.4 1.7 1.3 1.8-1.1 1.8-2.9 0-10.7-2.8-10.7-3.9 0-.9 7.3-4.1 8.5-3.7.6.1 1.2 1.1 1.4 2.2zm267.1-1.1c0 .8-.7 1.5-1.5 1.5-1.6 0-2-1.2-.8-2.3 1.1-1.2 2.3-.8 2.3.8zm71.5 13.3c-.5 3.2-1.2 4.6-3.1 5.4-3.6 1.7-4 .3-1-4 1.7-2.6 2.6-5.1 2.6-7.8 0-2.3.3-4.4.8-4.8 1-1.1 1.5 6 .7 11.2zM44 732.9c0 1.4-1.8 2.3-3 1.6-.6-.4-.8-1.1-.5-1.6.8-1.2 3.5-1.2 3.5 0zm-26.3 3.5c-2 1.8-4.1 4.5-4.7 6-.8 2.2-1.3 2.5-2.7 1.7-4.3-2.5-6.6-4.9-6-6.4.5-1.3 1.1-1.4 3.6-.4 2.8 1 3.4.9 5.8-1.6 1.5-1.5 3.9-2.7 5.2-2.7 2.4 0 2.4.1-1.2 3.4zm326.3-2c0 .3-.4.8-1 1.1-.5.3-1 .1-1-.4 0-.6.5-1.1 1-1.1.6 0 1 .2 1 .4zm-16 2.6c0 1.1-.4 2-.9 2-1.4 0-2.3-1.8-1.6-3 1-1.7 2.5-1.1 2.5 1zm-294.5 0c.3.5 1.7 1 3.1 1 3.4 0 3.1 2.6-.6 4.5-4.2 2.2-4.8 1.9-4.6-2.5.1-3.9.9-5 2.1-3zm-6.5.8c0 1.5-6.1 7.3-7.3 6.9-1.5-.5-1-3.7 1-6 1.6-1.7 6.3-2.4 6.3-.9zm20.5 5.2c1.5 0 10 11.8 9.2 12.7-.9.9-4.5-1.6-5.2-3.6-.3-1.2-1.9-2.1-4-2.5-4.1-.8-7-4.3-5.3-6.3.6-.8 1.8-1.1 2.5-.8.8.3 2.1.5 2.8.5zm-23.1 5.1c-.3.5-1 .7-1.5.3-.5-.3-.7-1-.3-1.5.3-.5 1-.7 1.5-.3.5.3.7 1 .3 1.5zm15.3 2.1c4.9 5.2 5.7 7.5 3.8 10.4-1.6 2.5-3.1 2.9-5.2 1.6-1.8-1.1-3.2-5.5-2.6-8.3.3-1.6-.1-3-1.1-3.8-2.1-1.8-2-3.1.2-3.1 1 0 3.2 1.5 4.9 3.2zm-22.7.4c0 1.4-.3 1.4-1.5.4-.8-.7-1.5-1.4-1.5-1.6 0-.2.7-.4 1.5-.4s1.5.7 1.5 1.6zm356.8 6.2c.6 1.8.6 3.5 0 4.5-.7 1.3-.5 1.7.7 1.7 2.5 0 1.7 2.7-1.2 3.8-5 1.8-13.5 4.2-14.9 4.2-1.5 0-1.7-2-.6-5.7.4-1.2 2.6-4.2 5-6.7 5.3-5.6 9.4-6.3 11-1.8zm-359 .3c.2 1.1-.8 2-2.7 2.7-3.6 1.3-4.7.2-3.1-2.8 1.3-2.5 5.3-2.4 5.8.1zm16.9-.5c.4 1-.1 2.2-1.2 3-2.3 1.7-2.9 1.2-2.1-2.1.7-2.8 2.4-3.3 3.3-.9zm-9.5 2.6c-.7.7-1.2.8-1.2.2 0-1.4 1.2-2.6 1.9-1.9.2.3-.1 1.1-.7 1.7zm181.5 1.6c-2.1 2.1-2.7 2.3-2.7 1 0-1.7 4-5.2 4.9-4.2.3.2-.7 1.7-2.2 3.2zm-186.7.6c0 .3-.4.8-1 1.1-.5.3-1 .1-1-.4 0-.6.5-1.1 1-1.1.6 0 1 .2 1 .4zm210.5 1.3c-.4 1-1.1 3.1-1.5 4.8-.4 1.6-1.3 4.3-1.9 5.8-1.1 2.8-1 5 1.1 18.4.8 5.6.8 7.6-.1 8.7-1.8 2.1 2.5 8.4 8.9 13.1 6.5 4.7 5.4 6.1-3 3.9-8.3-2.1-9.6-3-12.2-8.2-1.9-4-2-4.9-.8-9.6 2.1-8.9-.3-25.6-4.5-31.1-3.7-5-2.9-7.6 1.7-5.5 1.8.9 3 .8 5.3-.4 4.2-2.2 7.9-2.1 7 .1zm-192.8 1.7c-.3.7-.1 1.8.5 2.4.6.6.6 1.2-.1 1.6-.5.4-1.5-.3-2.1-1.4-.7-1.3-1.8-1.9-2.6-1.6-.8.3-1.4.1-1.4-.4 0-.8 2.1-1.6 4.9-1.9.7 0 1.1.5.8 1.3zM256 764c0 .5-.5 1-1.1 1-.5 0-.7-.5-.4-1 .3-.6.8-1 1.1-1 .2 0 .4.4.4 1zm62 0c0 .5-1 1-2.2 1-1.9 0-2-.2-.8-1 1.9-1.3 3-1.3 3 0zm-302.5 9.5c0 6.4-1 8.6-2 4.2-1.3-5.8-.9-10.7.8-10.7.8 0 1.2 2 1.2 6.5zm58.6 2.9c-.6.7-2.6 1.3-4.4 1.4l-3.3.1 4.1-4.2 4-4.3.3 2.9c.2 1.6-.1 3.4-.7 4.1zm-36-2.3c.7 1.3.7 2.5.2 3-1.3 1.3-5.8-2.4-4.9-3.9 1.1-1.9 3.4-1.4 4.7.9zM53 773c0 .5-.5 1-1.1 1-.5 0-.7-.5-.4-1 .3-.6.8-1 1.1-1 .2 0 .4.4.4 1zm6.4 5.5c1.6 1.2 1.7 1.5.4 1.5-2.4 0-4.8-1.1-4.8-2.1 0-1.3 2.3-1 4.4.6zm143.4-.3c-.3.7-1.3 1.5-2.4 1.7-1.6.3-1.7.1-.5-1.3 1.6-1.9 3.4-2.1 2.9-.4zm-158.2 4.5c-.4 2.7-.7 6.3-.6 8.2.1 2.9-.1 3.2-1.4 2.2-2.4-2-3-7.3-1.2-11.4 2.2-5.4 4-4.8 3.2 1zM29 780c0 .5-.5 1-1.1 1-.5 0-.7-.5-.4-1 .3-.6.8-1 1.1-1 .2 0 .4.4.4 1zm27.5 5.1c.3.4.1 1-.5 1.4-1.3.8-5.2-1.3-4.5-2.5.6-.9 4.3-.2 5 1.1zm14.4 3.5c1.4 5.6.4 7.3-3.3 5.6-2.3-1-2.4-1.4-1.5-4.9 1.6-5.9 1.8-6.5 2.8-5.9.5.3 1.4 2.7 2 5.2z"/><path d="M237 62.1c-3.6.9-6.7 1.8-6.9 1.8-.3.1-.1.5.5 1 .5.6 3.7.4 8.4-.5 4.1-.8 11.2-1.4 15.8-1.5 5.8-.1 8.2-.4 7.9-1.2-.6-2-18.2-1.7-25.7.4zM244.8 66.9c-3.7 1-7.1 2-7.4 2.4-1.4 1.4.2 1.6 4.6.5 2.5-.6 6.2-1 8.3-.9 2.6.1 3.7-.2 3.7-1.3 0-2.3-2.1-2.5-9.2-.7zM243 73c-1.1.7-.7 1 1.8 1 1.7 0 3.2-.5 3.2-1 0-1.3-3-1.3-5 0zM266.6 77.5c-1.5 1.4-2.6 2.8-2.3 3.1.2.2 2.6.7 5.3 1 4.3.5 5.2.3 7.2-1.9 2.6-2.8 2.2-3.4-3.4-4.3-3.3-.5-4.3-.2-6.8 2.1zM243.5 77c-.3.6.1 1.3 1 1.6 1.9.8 3 0 2-1.5-.8-1.4-2.2-1.4-3-.1zM247 85c0 .5.5 1 1 1 .6 0 1-.5 1-1 0-.6-.4-1-1-1-.5 0-1 .4-1 1zM318 121.8c-3.3 1.7-5.2 4.2-3.1 4.2 1.7 0 8.2-4.8 7.3-5.4-.5-.3-2.4.3-4.2 1.2zM334.1 140.3c-4.1 1.4-5.8 4.4-2 3.3 1.3-.4 4.1-1 6.2-1.3 2.1-.3 3.6-1.1 3.4-1.7-.5-1.6-3.7-1.7-7.6-.3zM335.4 151.4c-1 .8-1.6 1.7-1.2 2.1.9.9 7.8-1.4 7.8-2.6 0-1.4-4.4-1.1-6.6.5zM335.5 157.9c-.3.5-.2 1.2.3 1.5 1.2.7 5.2-.4 5.2-1.5 0-1.2-4.7-1.2-5.5 0zM336 164c0 .5.5 1 1.1 1 .5 0 .7-.5.4-1-.3-.6-.8-1-1.1-1-.2 0-.4.4-.4 1zM146.8 135.7c-1 .2-1.8.9-1.8 1.5s1 .8 2.3.4c1.2-.3 3.7-.6 5.5-.6 1.7 0 3.2-.5 3.2-1 0-1-5.9-1.2-9.2-.3zM179.3 135.8c-4.5.6-2.2 1.9 4.4 2.5 4.1.4 7.1.3 7.8-.4 2.3-2.3-3.5-3.3-12.2-2.1zM176 142.9c0 1.1 8.6 2.5 10 1.6.6-.4.8-1.1.5-1.6-.8-1.2-10.5-1.2-10.5 0zM175.7 160.6c-.4.4-.7 1.1-.7 1.6 0 1.3 5 .6 5.3-.7.2-1.2-3.6-1.9-4.6-.9zM175.5 167.1c-1 1.5.1 2.3 2 1.5.9-.3 1.3-1 1-1.6-.8-1.3-2.2-1.3-3 .1zM268 203.2c-8 2.5-9.3 3.1-9.1 4.3.4 2.3 17.6-2.1 17.6-4.5 0-2-1.4-2-8.5.2zM245.5 173c1.9 2.1 5.5 2.7 5.5 1 0-1-4.1-3-6.2-3-.6 0-.3.9.7 2zM236.1 199.6c3 3.3 7.7 5.7 9.5 5 2.5-.9 1.5-2.1-3.9-4.9-6.9-3.4-8.8-3.5-5.6-.1zM370.5 225c-.9 1.4 2 6.5 4.8 8.3 2.8 1.8 4.7.7 4.7-2.9 0-3.7-7.8-8.2-9.5-5.4zM387.2 233.6c-3.1 2.2-2.4 3.5 2.7 5 3.7 1.1 4.7 1 6.7-.3 3-1.9 3-2.7-.1-4.7s-6.4-2-9.3 0zM373.1 244.4c-1 1.2-.7 1.8 1.3 3.2 2.2 1.4 2.9 1.4 4.2.3 1.5-1.2 1.4-1.5-.6-3.1-2.7-2.2-3.4-2.2-4.9-.4zM402.5 302c-.3.5.1 1 .9 1 .9 0 1.6-.5 1.6-1 0-.6-.4-1-.9-1-.6 0-1.3.4-1.6 1zM379.1 306.4c-1 1.2-.3 1.9 3.8 4.2 5.7 3.2 6.3 4.3 8.3 13.4 1.2 5.4 1.8 6.6 3.6 6.8 1.9.3 2.2 1 2.2 4.5 0 5.1 1.1 7 3.6 6.5 1.5-.2 2-1.4 2.2-5.4.4-6.2-1.2-10.8-3.3-10-1.6.6-2.4-.7-5.5-9.9-1.5-4.3-2.5-5.4-7.1-8.2-6.3-3.7-6.3-3.7-7.8-1.9zM418.5 316.2c-.8 1.9 5.1 9.8 7.3 9.8s1.2-2.4-2.8-7c-3.2-3.7-4-4.2-4.5-2.8z"/><path d="M401.8 318.6c-3.9 2.5-4.6 3.8-2.7 5 .6.3 3-1.2 5.2-3.5 4.6-4.6 3.3-5.4-2.5-1.5zM358.5 320.1c-.4.6-.5 1.3-.2 1.6.7.7 2.7-.6 2.7-1.8 0-1.2-1.7-1.2-2.5.2zM355.1 326.4c-.9 1-.9 1.6-.1 2.1 1.7 1 3.7-1.2 2.4-2.5-.8-.8-1.5-.6-2.3.4zM353.7 333.7c-1.2 1.1-.8 2.3.8 2.3.8 0 1.5-.7 1.5-1.5 0-1.6-1.2-2-2.3-.8zM389.5 336.4c-1.2 1.8-1.7 4.6-1.7 9.1 0 5.7-.2 6.4-1.8 6.2-2.6-.3-2.7 1.6-.1 2.8 3 1.4 2.6 2.5-.9 2.5-2.7 0-3.3-.7-6.2-6.6-3.4-6.9-4.4-7.7-14.2-11.8-4.6-2-5.5-1.4-3.4 2.2.8 1.5 2.1 4.5 2.8 6.7.7 2.2 1.7 4.6 2.3 5.3.9 1.1.6 1.3-1.3 1-3.7-.5-3.5 2 .4 4.3 4 2.3 4.7 3.4 1.6 2.4-1.1-.3-2.5-.3-3 0-1.8 1.1.7 3.1 5.6 4.5 3.8 1.1 4.8 1.1 6-.1 1.2-1.3 1.1-2.1-.4-6.1-1-2.6-2.1-5-2.5-5.4-1.4-1.4-.7-3.4 1.3-3.4 1.9 0 2.4 1 2.1 3.8-.4 2.5 2 8 3.7 8.7 1 .3 2.1 0 2.8-.9.6-.9 2.4-1.6 4.1-1.6 2.4 0 3.1.6 4.2 3.5 2.4 6.7-1.3 13.1-4.1 7-1.6-3.6-5.6-3.2-4.9.5 0 .3.8 2.5 1.7 5 1 2.5 2 9.1 2.3 15 .6 9.6.8 10.5 2.6 10.5s2-.7 2.1-7.5c.1-4.1-.2-9.4-.6-11.8-.5-2.6-.4-4.5.3-4.9 1.9-1.2 3.5 2.9 4.3 10.5.6 6.4.4 7.7-1 8.7-.9.7-1.6 1.7-1.6 2.3 0 2.2 2.6 1.7 5.3-.9l2.8-2.8-1.1-12.8c-.7-7.5-2.2-16.5-3.7-21.8-1.7-5.9-2.7-11.9-2.8-17.3-.1-4.5-.5-8.5-.8-8.8-.3-.3-1.3.6-2.2 2zm-17.7 9.3c.6 1.9-2.5 1.6-3.2-.3-.4-1.1-.1-1.4 1.1-1.2.9.2 1.8.9 2.1 1.5zM416.8 346.7c-3.8 1-.8 3.6 3 2.6 1.1-.2 2.3 0 2.6.6.8 1.3 4.6 1.5 4.6.2 0-2.4-6.4-4.5-10.2-3.4z"/><path d="M383.5 363.9c-.7 1.3 1.7 2.4 4 1.9.9-.1 1.6-.8 1.6-1.3 0-1.4-4.8-1.9-5.6-.6zM409.5 364c-.3.5.7 1.2 2.2 1.5 1.5.4 3.9 1.1 5.2 1.6 3.4 1.4 5.4-.7 2.7-2.7-2.2-1.6-9.2-1.9-10.1-.4zM366.5 367.9c-.8 1.4 2.7 3 8 3.7 3.7.6 4.5.4 4.5-.9 0-1.1-1.2-1.8-3.7-2.2-2.1-.3-4.8-.8-6-1.1-1.2-.2-2.4 0-2.8.5zM409.9 371c-1 .7-.4 1.3 2.3 2.5 2.1.8 4.4 1.5 5.3 1.5 2.6 0 1.6-2.9-1.2-3.6-1.6-.3-3.3-.7-3.9-.9-.6-.2-1.7.1-2.5.5zM410 384.5c0 1.8 4.8 3.1 6.2 1.7.8-.8.4-1.4-1.6-2.2-3.7-1.4-4.6-1.3-4.6.5zM412.2 395.2c.5 1.5 5.7 1.8 6.1.3.1-.6-1.3-1.1-3.2-1.3-2.4-.3-3.2 0-2.9 1zM377 397.4c0 1.8 3.1 2.9 4.4 1.6.8-.8.7-1.4-.4-2-2.2-1.4-4-1.2-4 .4zM378.5 402.3c-1 .8-1.4 1.6-.9 2 1.6.9 6.4-.5 6.4-1.9 0-1.8-3.1-1.8-5.5-.1zM413.7 403.7c-1.4 1.3-.6 2.3 1.8 2.3 1.6 0 2.5-.6 2.5-1.5 0-1.5-3.1-2.1-4.3-.8zM399.5 410.6c-.6 4.1-.3 18.8 1 43.4.3 5.2.8 22.1 1.1 37.5.6 27.6 1.2 32.7 3.8 30.6 1.4-1.2 1.4-4.8.1-48.1-1.3-40.6-1.4-47.6-1.5-54.5-.1-9-.9-13.5-2.5-13.5-.7 0-1.6 1.9-2 4.6zM378.2 408.1c.6 1.8 7 4 8.3 2.8 1.4-1.3-.4-2.6-4.9-3.5-3.1-.5-3.8-.4-3.4.7zM341.4 411.1c-.9 1.6.6 2.6 4.9 3.4 3 .6 3.7.4 3.7-.9 0-2.9-7-5-8.6-2.5zM414.4 413.1c-.8 1.4.5 2.9 2.7 2.9 1 0 1.9-.6 1.9-1.4 0-1.6-3.7-2.8-4.6-1.5z"/><path d="M390.2 415.6c-.5 1-.7 3.5-.4 5.7.5 3.9.4 4-2.1 3.3-2.1-.5-2.7-.3-2.7 1 0 .9.9 1.8 2 2.1 1.1.3 2.3 1.6 2.6 2.9.7 2.6-.3 4.7-1.7 3.9-1.4-.9-2.9.4-2.3 1.9.3.8 1.4 1.6 2.5 1.9 2.6.7 2.6 4.7 0 4.7-2 0-3.7 1.7-2.7 2.7.3.3 1.6.6 2.8.7 1.8.1 2.3.7 2.3 2.6 0 2.1-.5 2.5-3 2.5-1.9.1-3 .6-3 1.5s1.3 1.7 3 2c2.1.4 3.1 1.2 3.3 2.7.3 1.8-.2 2.2-3.3 2.5-4.5.4-4.6 2.2-.1 2.6l3.4.3.7 7.2c.9 8.6.8 102.8-.1 113.9-.6 6.8-.5 7.8 1 7.8.9 0 2.1-1.2 2.6-2.6.8-1.9 1.5-2.4 2.8-1.9 2.6 1.1 3.7 1.1 4 0 .2-.6-1-1.4-2.7-2-2.4-.7-3.1-1.4-2.9-3 .2-1.6.9-1.9 3.6-1.7 2.4.2 3.2-.1 3.2-1.2 0-1.2-1-1.6-3.5-1.6-3.1 0-3.5-.3-3.5-2.5 0-2.3.4-2.5 4-2.5 4.6 0 5.4-1.7 1.3-2.6-5-1-5.3-1.3-5.3-4.4 0-2.9.2-3 4.5-3 7.1 0 5.8-2-2-3.2-2-.3-2-1.1-2.1-41.3 0-22.6-.4-48.2-.8-57-.4-8.8-1.1-22.9-1.4-31.4-.7-15.2-1.6-18.7-4-14.5zM382.2 416.2c.5 1.5 5.8 2.4 5.8 1 0-1.1-2.4-2.2-4.7-2.2-.8 0-1.3.6-1.1 1.2zM340.7 418.7c-1.2 1.2-.7 2 2 3.2 3.5 1.6 5.6-.2 2.7-2.4-2.1-1.6-3.7-1.9-4.7-.8zM414.6 420.9c-.3.4.3 1.6 1.3 2.5 2.1 1.9 3.7.7 2.7-1.9-.6-1.6-3.2-2-4-.6zM342 427.5c0 .8.7 1.5 1.5 1.5s1.5-.7 1.5-1.5-.7-1.5-1.5-1.5-1.5.7-1.5 1.5zM353.1 431.4c-.6.7-2.3 6.4-3.7 12.7-7.2 31.4-7.5 35.3-4.4 52.5 1.8 9.4 1.9 11.9.9 18.3-1.3 9 .5 27.9 2.8 28.8 3 1.2 3.4-1.3 2-11.6-.9-6.4-1.1-11.8-.6-14.4 1.4-7 1-14.7-1.2-25.7-2.7-13.9-2.3-18.2 5-50 1.1-4.7 2-9.3 2-10.3.1-2-1.2-2.2-2.8-.3zM340 448.4c0 2.1 2 3 3.3 1.7.9-.9.8-1.4-.3-2.1-2.1-1.4-3-1.2-3 .4zM337.7 453.7c-1 1 1.3 3.3 3.4 3.3 2.4 0 3.5-2 1.8-3.1-1.7-1-4.3-1.2-5.2-.2zM336.5 460.9c-.7 1.3 1.7 2.4 4 1.9.9-.1 1.6-.8 1.6-1.3 0-1.4-4.8-1.9-5.6-.6z"/><path d="M332.4 462.2c-.4.6-.8 2.6-.8 4.2-.1 2.3-.6 3.1-2.5 3.6-3.2.7-3.8 2.8-.9 3.2 3.2.4 3.9 4.8.8 4.8-2.5 0-6 1.7-6 3 0 .5 1.7 1 3.8 1.2 2.9.2 3.7.7 3.7 2.3 0 1.4-.6 1.9-2 1.8-2.3-.2-5.5 1.4-5.5 2.7 0 .5 1.7 1 3.8 1.2 2.9.2 3.8.8 4 2.4.3 1.9-.2 2.1-3.5 2-2.8-.1-3.8.3-4.1 1.6-.3 1.5.4 1.8 3.7 1.8 5.1 0 5.4 1.8.4 2.2-5.2.4-5.2 3.1 0 3.8 4.6.6 4.9 2.2.7 3.4-4 1.2-3.7 4 .5 4.1 2.3 0 3.1.5 3.3 2.2.3 2-.1 2.3-2.7 2.3-1.6 0-3.3.5-3.7 1.1-.9 1.5 1.6 3 3.8 2.3 1.3-.4 2.1.2 2.8 2.1 1.6 4.3 1.2 6.3-1.2 6.7-1.3.2-2.4 1.1-2.6 2-.3 1.4.3 1.8 2.6 1.8 2.7 0 4.2 1.4 4.2 4.1 0 .5-1.3.9-2.9.9-3.5 0-5.1 1.8-2.4 2.6 3.6 1.1 6.8 3.3 7.1 4.9.3 1.3-.3 1.4-3.7.9-3.3-.5-4.1-.4-4.1.9 0 1 1.8 2.2 4.9 3.2 3.8 1.2 5.1 2.2 5.6 4.2.8 3.3.5 3.5-3.2 2.1-3-1.1-6.3-.6-6.3 1 0 1.3 8.4 3.2 9.5 2.1 1-1 6.5 13.7 6.5 17.4 0 2.8 2.5 1.4 2.8-1.6.3-2.3.7-2.6 3.7-2.4 4.9.3 4.7-1.5-.4-3.4-5.3-1.9-5.2-1.6-11.1-25.3-4.2-17.2-6.2-29.3-4.9-30.2.4-.2 1.4-.1 2.3.2 1.8.7 4.9-1.4 4-2.7-.3-.5-2.1-.9-4-.9-3.2 0-4.2-.8-2.7-2.3.3-.4 1.2-.2 1.9.4 1.7 1.4 6.7.3 6.1-1.4-.2-.7-2.1-1.2-4.6-1.1-3.2.1-4.1-.2-3.6-1.3.3-.8.5-2 .5-2.7 0-.9.9-1.2 2.4-.9 2.6.5 4.4-1.3 2.8-2.9-.7-.7-1.6-.6-3 .1-2.6 1.4-3.2-.7-3.2-12.1 0-9.6.5-11.9 2.5-11.1.8.2 1.9.2 2.5-.2 1.6-1-.7-3.5-2.5-2.9-1.1.4-1.5-.7-1.7-4.7-.3-5.1-1.8-7.3-3.4-4.7z"/><path d="M338.6 466.9c-.9 1.4.5 4.2 1.8 3.8 1.5-.5 1.4-3.9-.1-4.4-.6-.2-1.4 0-1.7.6zM384.7 468.6c-1.1 1.2.3 2.4 2.9 2.4 1.6 0 2.4-.5 2.2-1.3-.5-1.3-4-2.2-5.1-1.1zM386 476.5c0 1 .7 1.5 1.8 1.3 2.1-.4 1.9-2.2-.2-2.6-1-.2-1.6.3-1.6 1.3zM337.5 482c-.3.5-.4 1.4 0 2 .8 1.3 3.5.1 3.5-1.6 0-1.6-2.6-1.9-3.5-.4zM385.5 487.9c-.3.5-.1 1.2.5 1.6 1.2.7 3-.2 3-1.6 0-1.2-2.7-1.2-3.5 0zM337.7 491.6c-.4.4-.7 1.1-.7 1.6 0 1.3 5 .6 5.3-.7.2-1.2-3.6-1.9-4.6-.9zM386.7 494.6c-.8.8.1 2.4 1.4 2.4.5 0 .9-.7.9-1.5 0-1.5-1.2-2-2.3-.9zM337.7 516.6c-.9 1 .2 2.4 1.9 2.4.8 0 1.4-.7 1.4-1.5 0-1.5-2.1-2.1-3.3-.9zM338.5 524.1c-.9 2.8.8 4.5 2.5 2.5 1.3-1.7.7-4.6-.9-4.6-.5 0-1.3.9-1.6 2.1zM420.7 524.7c-1.2 1.1-.8 2.1 1.2 2.6 2.4.6 4.6-.7 3.7-2.2-.8-1.2-3.9-1.5-4.9-.4zM422.2 532.2c.7 2 4.8 2.3 4.8.4 0-1.1-.9-1.6-2.6-1.6-1.6 0-2.4.5-2.2 1.2zM342 537.5c0 .8.7 1.5 1.5 1.5s1.5-.7 1.5-1.5-.7-1.5-1.5-1.5-1.5.7-1.5 1.5zM399 538.5c0 .8.9 1.5 2 1.5s2-.7 2-1.5-.9-1.5-2-1.5-2 .7-2 1.5zM398.6 544.9c-.9 1.4 2.2 3.4 4 2.7 1.3-.5 1.4-.9.4-2.1-1.4-1.7-3.6-2-4.4-.6zM345.4 547.5c-1.4 1-1.6 1.7-.8 2.5 1.3 1.3 4.4.3 4.4-1.5 0-2.1-1.5-2.6-3.6-1zM398 552.8c0 1.2 2.4 2.2 5.2 2.2 1.1 0 1.8-.5 1.6-1.3-.5-1.4-6.8-2.3-6.8-.9zM347.2 559.2c.5 1.5 5.7 1.8 6.1.3.1-.6-1.3-1.1-3.2-1.3-2.4-.3-3.2 0-2.9 1zM334.3 564.5c-.7 2-.5 2.1 3.5 3 2.5.5 3.2.3 3.2-.9 0-1.5-2.9-3.6-5-3.6-.6 0-1.3.7-1.7 1.5zM337.7 572.7c-1.2 1.1-.8 2.2 1.4 3.4 3.1 1.6 5.2-.7 2.5-2.7-2.2-1.6-3-1.7-3.9-.7zM366 591.4c0 .8.5 1.8 1 2.1.6.4.8 1.5.5 2.5-.6 1.7 1.7 5 3.5 5s2.2-2.3.6-3.2c-1.2-.7-1.6-1.7-1.2-3.4.5-1.7.1-2.6-1.3-3.4-2.6-1.3-3.1-1.3-3.1.4zM396 593c0 1 3.2 3 4.9 3 1.7 0 1.3-2.7-.5-3.4-2.3-.9-4.4-.7-4.4.4zM380 597.7c0 .4 1 1.7 2.1 3 1.7 1.7 1.9 2.5 1 3.6-1.4 1.8 0 3 4.9 4.4 4 1.2 16.4 1.2 17.6 0 1.4-1.4-.4-1.8-9.9-1.8-9.8 0-11.9-.8-9.6-3.5 1-1.2.8-1.9-1.1-3.9-2.2-2.3-5-3.3-5-1.8z"/><path d="M394.7 601.6c-1.1 1.2.3 2.4 2.9 2.4 1.6 0 2.4-.5 2.2-1.3-.5-1.3-4-2.2-5.1-1.1zM237 259.9c-.7 1.4-.7 2.2 0 2.6 1.3.8 4-1.3 4-3.1 0-2.1-2.8-1.7-4 .5zM244.3 258.7c-1.8.6-1.6 3.3.1 3.3 1.9 0 3.1-1.9 2-3-.5-.4-1.5-.5-2.1-.3zM249 262.5c-.9 1.1-1 1.9-.2 2.7 1.4 1.4 3.2.1 3.2-2.3 0-2.3-1.3-2.5-3-.4zM255.1 263.4c-.7.9-.8 1.7-.2 2 1.3.9 4.3-.4 3.8-1.7-.5-1.7-2.3-1.9-3.6-.3zM314.5 325c-.7 1.2.2 3 1.6 3 1.2 0 1.2-2.7 0-3.5-.5-.3-1.2-.1-1.6.5zM325.5 408c.3.5.8 1 1.1 1 .2 0 .4-.5.4-1 0-.6-.5-1-1.1-1-.5 0-.7.4-.4 1zM103 515.5c-1.7 2.1-.8 14.2 1.3 16.2 2.7 2.7 3.9.6 3.1-5.1-.4-2.8-.8-6.6-.8-8.5-.1-3.8-1.6-5-3.6-2.6zM121 532.1c-.7 1.1-.9 3.3-.5 4.7.9 3.9 5.7 14.2 6.5 14.2.4 0 3.3 2.3 6.4 5 6.6 5.7 11.2 8.4 13.2 7.6 2.2-.9 1.6-3.2-1.2-4.5-1.4-.6-5.9-4.1-9.9-7.7-6.7-6-7.4-7-9.6-13.9-1.3-4.1-2.7-7.5-3.1-7.5-.4 0-1.2.9-1.8 2.1zM82.7 539.8c-1.7 1.9-2.3 5.2-.9 5.2 1.2-.1 6.2-4.8 6.2-6 0-1.7-3.6-1.1-5.3.8zM106.4 541.5c-1.3 3.4 2.1 9.2 10.1 17.2 9 9.1 15.8 13 24.8 14.2 2.9.4 6.2 1.4 7.4 2.1 1.8 1.2 2.5 1.2 3.5.2 1.1-1.1.8-1.8-1.5-3.8-1.5-1.3-3.6-2.4-4.5-2.4-11.2 0-28.6-12-34.7-24-2.6-5.1-4.1-6.2-5.1-3.5zM83.6 550.6c-2.3 2.3-.6 4 2.4 2.4 2.1-1.1 2.3-3.1.3-3.7-.6-.2-1.8.4-2.7 1.3zM102.5 552c-2.4 2.7-.6 5 1.9 2.5.9-.9 1.6-2 1.6-2.5 0-1.9-1.8-1.9-3.5 0zM106.1 557.4c-2.7 2.9-2.3 6.8.5 4.5 2.3-1.9 3.7-5 2.7-6-.6-.6-1.9.1-3.2 1.5zM84.4 560.4c-.9 2.2.2 4.6 2.1 4.6 1.2 0 1.5-.8 1.3-2.7-.3-3-2.5-4.2-3.4-1.9zM112.1 563.6c-2.3 3-2.8 6.4-.8 6.4 1.6 0 4.9-7.2 3.8-8.3-.5-.5-1.8.4-3 1.9zM149.4 565.5c-.8 1.9.3 3.5 2.5 3.5 2.5 0 3.2-1 2-3.1-1.2-2.3-3.7-2.5-4.5-.4zM118.5 568.4c-1.9 4.5-1.9 7.6-.1 7.6 1.5 0 2-1 3.1-6.7.9-4.5-1.2-5.2-3-.9zM87.7 570.6c-.8.8.1 2.4 1.4 2.4.5 0 .9-.7.9-1.5 0-1.5-1.2-2-2.3-.9zM124 572.6c-1.3 3.2-1.3 5.4 0 5.4s3-3.4 3-5.9c0-2.9-1.9-2.6-3 .5zM113.4 587.5c-.8 2 .3 4.8 1.6 4 1.3-.8 1.3-5.5 0-5.5-.6 0-1.3.7-1.6 1.5zM119.4 591.4c-.3 1.4-.3 3 .1 3.6 1.1 1.7 3.5-.8 3.5-3.6 0-3.2-2.8-3.1-3.6 0zM134.2 590.3c-1.6 1.9-2.5 6.4-1.3 7.1 1.1.7 4.1-4.3 4.1-6.9 0-1.8-1.4-2-2.8-.2zM127 592.6c-1.3 3.3-1.3 4.1.1 5 1.5.9 2.9-1.4 2.9-4.9 0-3.4-1.7-3.5-3-.1zM139 593.6c-1.2 3 0 5.3 1.7 3.2 1.7-2 1.9-5 .6-5.5-.7-.3-1.8.8-2.3 2.3zM123.4 608.4c-.6 1.7.2 3.6 1.7 3.6 1.2 0 1.2-3.7-.1-4.5-.6-.3-1.3.1-1.6.9zM103 200c0 .5.7 1 1.5 1s1.5-.5 1.5-1c0-.6-.7-1-1.5-1s-1.5.4-1.5 1zM120.3 224.8c-3.1 2.4-3.5 6.6-.7 6.8 2.9.2 8.4-2.2 8.4-3.6 0-2.2-2.1-5-3.8-5-.9 0-2.7.8-3.9 1.8zM138.2 224.6c-4.1 2.9-2.4 6.4 3.3 6.4 3.5 0 5.1-6.2 1.9-7.4-2.2-.9-2.7-.8-5.2 1zM114 235c0 .5.5 1 1 1 .6 0 1-.5 1-1 0-.6-.4-1-1-1-.5 0-1 .4-1 1zM132.2 238.2c-1.8 1.8-1.5 3.6.8 4.3 2.6.8 6.2-1.2 5.8-3.3-.4-2.1-4.8-2.8-6.6-1zM137.5 243.9c-.2.4-2.1.8-4.1.9-5.5.2-6.5 1.9-2.9 4.8 5 4 10.1 2.6 10.7-3 .2-2.1-.2-2.9-1.4-3.1-1-.2-2 0-2.3.4zM76.4 261.1c-.3.6.3 2 1.4 3.2 1.9 1.9 2.2 1.9 2.8.4 1.3-3.5-2.3-6.6-4.2-3.6zM150.7 270.9c-2.6 2.7-5.7 5.8-7 6.8-1.2 1-3.8 4.3-5.6 7.3-1.9 3-4.4 6.7-5.6 8.2-1.2 1.5-2.6 4.3-3 6.4-.3 2.1-2 6.4-3.6 9.7-1.7 3.2-2.7 6.2-2.4 6.5.9 1 2.8-1.9 8.2-12.2 2.5-5 5.7-10.8 7-12.9 1.3-2.1 2.2-4.1 1.9-4.5-.8-1.4 2.7-5.8 9.7-12.2 6.2-5.8 7.9-8 5.9-8-.5 0-3 2.2-5.5 4.9zM80.1 274.9c-.8.5-1 1.4-.7 2 .9 1.3 3.3 1.5 4 .2.9-1.4-1.8-3.1-3.3-2.2zM422.8 278.1c-2.2 1.2-2.3 4.5-.3 5.3 1.8.7 5.8-3 5.2-4.7-.5-1.6-2.8-1.9-4.9-.6zM135.5 307.2c-2.7 7.6-3.8 11.4-5.1 17.8-1.8 9.5-1.8 10 .6 7.1 1.1-1.3 2-3.7 2-5.5 0-1.7 1.1-6.7 2.5-11s2.5-8.3 2.5-8.7c0-1.4-2-1.1-2.5.3zM140.6 311.5c-.3.9-.4 2.1 0 2.6.3.5-.2 1.6-1 2.5-2.2 2.2-2 9 .3 12 1.1 1.4 2.2 2.1 2.4 1.7 1.1-1.8 1.2-19.6.1-20-.6-.2-1.4.4-1.8 1.2zM118.6 322.5c-2.5 5.1-2.6 16.9-.4 19.2 2.6 2.5 4.6.4 3-3.2-1.6-3.4-1.4-11.1.2-15.8 1.8-5-.5-5.2-2.8-.2zM111.5 348.5c-3.2 7.4-3.2 8.7.3 8.3 2.8-.3 3.2.8 1.7 4.4-1.2 3 1.2 2 3.3-1.4 2.5-3.8 1.4-7.1-2.1-6.6-1.5.2-2.1-.2-1.8-1.2 2.6-10.5 2.2-11.5-1.4-3.5zM103.1 348.6c-2.4 3.1-2.7 7.2-.7 10 1.3 1.7 1.6 1.7 2.9.4.8-.8 1.7-4.1 1.9-7.3.5-6.5-.7-7.4-4.1-3.1zM448.6 448.9c-3.7 4.1 2.2 8.1 6.9 4.7 1.7-1.2 1.8-1.8.7-4-1.4-3.2-5.1-3.5-7.6-.7zM448.7 570.8c-1.6 1.7-1.6 2-.2 3.2 2.3 1.9 7 .1 7-2.5 0-2.8-4.5-3.2-6.8-.7zM449.2 582.2c-1.9 1.9-1.4 3 1.1 2.6 1.2-.2 2.2-.9 2.2-1.7 0-1.9-1.8-2.4-3.3-.9zM338.7 603.6c-1.2 1.3-.7 5 1.2 9.5 2.7 6.1 3.6 18.2 3.3 40.4-.3 20.1 0 23.5 2.2 23.5 1 0 1.4-2.6 1.5-11.8.1-6.4.2-14.9.3-18.7.4-12.1-1.4-28.6-3.7-36-2.2-6.7-3.3-8.3-4.8-6.9zM367 619c0 .5.5 1 1 1 .6 0 1-.5 1-1 0-.6-.4-1-1-1-.5 0-1 .4-1 1zM487.7 620.6c-1.1 1.2-.8 4.1.6 5.2.7.6 2.1.6 3.5.1 3.3-1.2 2.7-5.3-.8-5.7-1.4-.2-2.9 0-3.3.4zM76.1 622.9c-1.6 1.1-.2 4.3 1.8 3.9.9-.2 1.7-1 1.9-1.9.3-1.9-1.9-3.1-3.7-2zM399 624.6c-1.3 3.4-1.3 12.4 0 12.4 1.4 0 1.7-1.2 2.4-8.8.6-6.5-.6-8.4-2.4-3.6zM451.4 632.6c-1.3 1.9-1.4 2.8-.5 3.7 1.5 1.5 4.5-.3 4.9-3 .5-3.2-2.5-3.6-4.4-.7zM17.8 634.1c-1 .6-1.8 1.4-1.8 1.9 0 1.4 3.7 1.2 4.6-.1 1-1.7-.9-2.9-2.8-1.8zM123.8 637.6c-2.9 1.5-3.5 2.8-1.9 3.8 1.4.9 8.3-2.4 7.8-3.7-.5-1.7-2.8-1.7-5.9-.1zM458.7 637.6c-1.4 1.4-.7 3.5 1.1 3.2.9-.2 1.7-1 1.7-1.7 0-1.6-1.8-2.5-2.8-1.5zM21.3 643.7c-1.3.5-1.9 3.3-.7 3.3.3 0 1.4-.5 2.5-1 3.4-1.9 1.9-3.8-1.8-2.3zM96.4 645.1c-.9 1.6 1.8 3 3.3 1.7.7-.6 1-1.4.7-1.9-.7-1.3-3.1-1.1-4 .2zM22.4 650.1c-.9 1.6 2.1 4.3 4 3.6.9-.4 1.6-1.6 1.6-2.7 0-1.5-.7-2-2.4-2-1.4 0-2.8.5-3.2 1.1zM364.7 665c-.9 6.9-5.6 31.2-6.1 31.7-.2.3-.7-2.6-1.1-6.4-.9-9.7-.9-9.6-2.2-10.1-1-.3-1.3 2.1-1.3 9.7 0 10.2.7 12 3.8 8.9.9-.9 1.1.3 1 5.3-.3 9.1 2.2 24.9 3.9 24.9 2.4 0 2.6-3 .9-11.5-.9-4.6-1.6-10.4-1.6-12.8 0-4.3 3.1-27.3 4.4-32.7.4-1.4.3-4.5-.2-7l-.9-4.5-.6 4.5zM10 663c-1.2.8-1.2 1 .2 1.5 1.9.7 3.8-.1 3.8-1.6 0-1.2-2.1-1.1-4 .1zM353.3 707.2c-.4.7-.8 5.1-.8 9.8 0 4.7-.4 9.3-.9 10.2-1.6 3.3 2.3 2 4-1.4 1.3-2.5 1.5-4.7.9-11.5-.7-8-1.5-9.7-3.2-7.1zM462.7 723.6c-1.3 1.3-.7 6.2.9 7.8 2 2.1 4.7 2 7.4-.2 2-1.6 2.1-2.3 1.3-4.8s-1.5-2.9-4.9-3.2c-2.2-.2-4.3 0-4.7.4zM355.7 744.1c-1.7 2.3-1.3 4.4.8 5.3 1.9.7 3.7-1.8 3.3-4.5-.4-3.1-2.3-3.4-4.1-.8zM327.3 747.2c-2.7 1.3-3.5 4.3-1.6 5.9 1.2 1 2 .9 4.1-.3 1.5-.9 2.8-2.3 3-3.2.5-2.1-2.8-3.6-5.5-2.4zM45.3 765.7c-1.8.6-1.6 3.3.1 3.3 1.9 0 3.1-1.9 2-3-.5-.4-1.5-.5-2.1-.3zM449.1 771.1c-4.9 1-9.4 5.9-9.5 10.3-.1 4-1.1 4.7-2.1 1.6-1.3-4-8-3.8-17.3.5-4.1 1.9-5.6 3.2-6.8 6.1-.9 2-1.3 4.6-1 5.8.3 1.2.1 2.8-.4 3.6-.9 1.3-1.3 1.2-2.8-.6-2.4-3-5.5-4.4-9.6-4.4s-6.6 2.1-5.9 5c.6 2.4-.5 2.5-3.6.4-1.5-1.1-4.6-1.7-9-1.8-5.7-.1-7.3.3-10.7 2.5-2.3 1.5-4.8 4.2-5.7 6-1.4 3-2.1 3.4-5.4 3.5-5 .1-15.3 3-17.2 4.8-1.2 1.3-1.8 1.3-4.3 0-3.2-1.7-2.9-3.4.7-3.4 2.7 0 4.2-1.7 2.7-3.2-1.3-1.3-11.9 1.9-12.6 3.9-.7 1.8 1 4.3 2.9 4.3.7 0 1.7.6 2.3 1.3.8 1 .2 2-2.4 4.1-4 3.2-5 3-3.3-.6 2.4-5.4-3.6-10.1-9.1-7.3-2.8 1.5-5 4.2-5 6.4 0 .5.8 1.7 1.7 2.6 2.7 2.8.5 5-5 5-3.2 0-5.6.8-7.6 2.3-2.5 1.8-3.4 2-5.5 1.1-4.9-2.3-12 2.8-11.4 8.2.2 1.6-.3 2.4-1.7 2.7-3.3.6-4 2-2.1 4.1 1.7 1.8 1.6 1.9-1.3 2.6-3.7.8-5.1.1-5.1-2.8 0-7.8-4.2-12.7-10.8-12.7-3.6 0-8 3.3-8.4 6.3-.2 1.8-.8 2.1-3.5 1.9-4.5-.5-7.7 2.7-6.3 6.4 1.2 3.1.5 4.3-1.2 2.6-.7-.7-1.1-2.8-1-4.7.6-6.8-5.3-9.1-11.9-4.5-2.2 1.5-2.8 1.6-4.4.4-2.7-2-6.9-1.7-11.2.8-3.1 1.9-5.4 2.3-11.9 2.4-9.1 0-13 1.7-13.6 5.6-.5 3.5-4.6 3.2-9.5-.8-4.6-3.7-6.6-4.3-6.1-1.7.7 3.6 12.9 9.1 14.7 6.6.3-.4 1.5-.8 2.6-.8 1.2 0 2.5-1.1 3.3-2.7 1.1-2.4 1.9-2.8 5.3-2.8 3.9 0 3.9 0 3.9 3.8 0 5.9 4.5 8.6 7.2 4.2 1.2-1.8 1.3-1.8 3.1-.2 1.7 1.5 2.1 1.5 4.5.1 2.8-1.6 3.2-3.8 1.7-9.2-.5-2.1-.4-2.7.8-2.7 1.6 0 2.7 2.9 2.7 7.2 0 3.9 4 6.4 8.3 5.1 3.1-.9 3.2-1 3.2-6.9 0-7.6 1.9-8.8 2.3-1.4.2 3.7.8 5.9 1.9 6.7 2.4 1.8 9.8 1.6 11.3-.2 1.2-1.4 1.6-1.3 3.7.7 2.7 2.5 4.3 2 7.7-2.5l2-2.7-2.2-4.5c-2.8-5.7-2.8-7.2 0-8.1 3.1-1 5.8 2.7 5.8 8 0 5.7 1.9 8 6.3 8 2.9 0 3.7.4 4.2 2.3.4 1.6 1.3 2.3 2.9 2.3 2.9 0 4.8-2.1 3.6-3.9-1.3-2.2 3-8.1 6-8.1 1.4 0 3.4-.2 4.5-.5 1.5-.4 2.6.4 4.2 3 2.1 3.4 1.4 6-1 3.6-.6-.6-2.1-1.1-3.3-1.1-2.6 0-8.4 4.5-8.4 6.5 0 3 2.4 6.5 5.5 8 4.3 2 7.5 1.9 10.5-.4 2-1.6 2.5-2.8 2.5-6.8v-4.8l4.5-.8c2.5-.4 6.8-1.1 9.5-1.5 2.8-.4 5.5-1.1 6.1-1.5.6-.3 2.2.2 3.5 1.3 2.9 2.6 6.2 3.4 8.6 2.2 2.8-1.5 13.3-1.1 13.3.5 0 .7 1.4 2 3.1 2.9 2.6 1.3 3.7 1.4 5.8.4 3.1-1.4 3.7-1.3 3.3.5-1 4.9 5.6 10.3 10.3 8.5 1.5-.6 5.1-1 8-1 4.4 0 5.7-.4 6.9-2.2l1.5-2.1 3.1 3.3c2.9 3.1 3.3 3.3 8.9 2.7 8.8-.8 17.1-5.6 15.7-9.2-.8-2.3-5.3-1.9-6.1.5-.8 2.5-5.5 5-9.5 5-2.3 0-3.3-.6-4.2-2.6-2.3-5-12-7.5-13.3-3.4-.6 1.9-.8 1.8-2.9-1.2-4.4-6.6-11.4-3.6-10 4.2.4 2 .3 3.1-.2 2.7-.5-.5-1.3-3.4-1.9-6.5-.8-4.3-1.5-5.9-3.3-6.8-3.7-1.8-9.2-7.1-9.2-8.7 0-.9-2-3.2-4.5-5.3l-4.6-3.7-3.5 1.6c-1.9.9-4 2.8-4.6 4.2-.6 1.4-1.8 2.5-2.5 2.5-2 0-.7-6.1 1.5-7.5 3.1-2 6.2-5.8 6.2-7.8 0-3 6.8-11.7 9.1-11.7.4 0 1.6 1.5 2.7 3.3 1.3 2.4 1.7 3.9 1 5-.5 1.1-.5 2.4.2 3.7 1 1.8.7 2.2-1.9 3.1-3.9 1.4-4.5 3.4-1.7 5.6 1.2 1 3.5 3.8 5.1 6.1 4.7 7.1 10.1 8.9 16 5.2l3.2-2 2.5 4.8c2.4 4.7 2.4 4.7 8 5 4 .2 6-.1 7.1-1.3 1-.9 3.5-1.5 6.9-1.6 2.9 0 6.2-.4 7.3-.8 1.2-.5 3-.3 4.8.6 1.9 1 4.5 1.2 9.2.7 6.3-.7 7.8-1.7 5.5-4-.8-.8-.6-1.5.4-2.3 1.3-1.1 2-.8 4 1.6 2.8 3.3 9.8 6.3 10.4 4.4.3-.8.8-.9 1.7-.1.9.7 1.6.6 2.5-.5 1.1-1.4 1.4-1.3 2.7.5 1.7 2.4 5.3 2.6 9.2.5 2-1 3.4-3 4.7-6.6 1.3-3.6 2.7-5.5 4.7-6.6 1.6-.8 3.1-1.2 3.4-.9.3.3-.6 1-2.1 1.6-3 1.1-3 3.3 0 3.8 3.4.4 8.1-3.3 8.8-7 .3-1.9 1.2-4.3 2-5.3 1.2-1.6 1.6-1.7 2.9-.6.9.7 1.9 2.6 2.2 4.2.4 1.6 1.6 3.6 2.8 4.4 1.9 1.3 2.3 1.3 3.6.1 1.2-1.3 1.2-2.1-.3-6-2-5.2-2.7-5.8-7.5-6.5-3.1-.5-3.4-1-3.8-4.3-.2-2.3.3-5.1 1.3-7 1.9-3.6 1.5-7.6-1.5-14.2-1.4-3.3-2.6-4.6-4.1-4.6-1.3 0-2.4-.9-3-2.4-.5-1.4-1.7-2.9-2.7-3.5-4.6-2.7-4.7-2.8-2.9-4.7 1.5-1.4 1.5-1.9.3-3.1-1.8-1.9-7.2 0-6.3 2.2.4 1.2-.3 1.5-2.9 1.5-3.9 0-4.8-1.7-1.2-2.2 1.4-.2 2.3-1.1 2.5-2.6.3-2.1-.5-2.7-3.5-2.3-.7.1-2.2-.3-3.4-1-2-1-2.1-.9-1.5 1.5.6 2.3.3 2.6-1.8 2.6-1.4 0-3.7.5-5.1 1.2-3.4 1.5-4.8.1-3.2-3.2.7-1.4 2.8-3 4.7-3.6 3.3-1.1 5.1-3.7 3.3-4.6-.4-.3-2.3-.1-4.2.3zm-15.3 15.4c.4 3.4-1.8 5.5-5.7 5.5-1.4.1-4.3.7-6.4 1.4-4.3 1.6-4.9 1.1-3.9-3 .9-3.5 8-7.5 12.7-7.1 2.5.2 3.1.7 3.3 3.2zm17.2 1.6c0 2.3-2.8 2.6-3.7.3-.6-1.6 1.5-3.7 2.9-2.8.4.3.8 1.4.8 2.5zm19.8 3.3c4.5 2.8 8.9 9.4 9.8 14.7.5 3.3.5 3.3-1.1 1.4-.9-1.1-2.5-3.1-3.7-4.4-1.1-1.4-2.1-3.4-2.2-4.5-.1-1.4-.8-2.1-2-2.1-1.1 0-2.1-.6-2.4-1.3-.2-.6-.9-1.2-1.7-1.2-.7 0-1.9-1-2.7-2.2-1.5-2.2-1.6-2.2-4.2-.5-3.4 2.3-5.4 1.2-2.9-1.5 2.3-2.6 7.4-2 13.1 1.6zm-28.3.7c.4.6.5 1.2.2 1.5-.7.7-3.7-.7-3.7-1.7 0-1.3 2.7-1.1 3.5.2zm-8.9 5l1.9 2.1-3.1-.6c-2.2-.5-3.5-.2-4.4.9-1.2 1.4-1 2 1.6 4 1.6 1.3 2.6 2.7 2.1 3.1-.4.4-1.3.2-1.9-.4-1.6-1.6-4.3-1.5-5.8.2-.9 1.2-.8 1.7.8 2.7 2 1.2 2 1.3-.2 3.1-2.1 1.8-2.1 1.8-.2 3.3 1.1.8 2.6 1.5 3.2 1.5 1.3 0 3.4 5.8 3.4 9.4 0 1.2-.5 1.6-1.6 1.2-.9-.3-1.8-.6-2-.6-.3 0 0-.9.6-2.1.8-1.5.8-2.4 0-3.4-1.8-2.1-4.9-2.8-6.6-1.4-1.3 1-1.2 1.4.2 3 1.6 1.7 1.5 2-.7 3.8-1.6 1.3-2.1 2.3-1.4 2.9 1.3 1.3 8.6 3.3 9.7 2.6.4-.3.8.4.8 1.5 0 2.5 0 2.5-4.5.4-3.3-1.6-3.7-1.6-5.2 0-1.6 1.5-1.5 1.8.3 3.8 1.4 1.6 1.5 2.3.7 2.6-.7.3-1.3 1.1-1.3 1.8 0 1.4 3 2.4 7 2.5l2.5.1-2.4 1.3c-4.7 2.6-10.3-1.6-16.9-12.5-2.8-4.6-2.8-5.7.1-6.1 1.9-.3 2.2-.8 1.9-4.3-1-15.1-.1-19.3 5.5-23.9 3-2.6 7.3-4.1 12.4-4.5.9 0 2.4.9 3.5 2zm30.8 2.1c5 2.5 6.9 4.3 10.4 9.5 4 6 4.2 6.7 4.2 13.6 0 8.7-1.7 11.5-7 11.9-4 .2-6-.7-6-2.7 0-.9 1.1-1.3 2.9-1.3 1.5.1 3.3-.2 4-.6 1.8-1.1 1.3-2.6-.9-2.6-1.3 0-2-.7-2-1.9 0-1-.8-2.2-1.7-2.5-1.2-.5-1.4-.9-.5-1.8 1.7-1.7 1.5-2.8-.4-2.8-1.1 0-1.4-.6-.9-2 .5-1.5 0-2.1-2.2-2.6-5.4-1.1-5.5-1.2-4.1-3.4 1.1-1.8 1-2.3-.4-3.4-1.2-.9-1.4-1.6-.7-2.3 1.5-1.5.3-3.3-2.1-3.3-2.5 0-3.5-1.7-2-3.5 1.7-2.1 2.5-1.9 9.4 1.7zm-60.4 4.4c0 1.7.4 2.2 1.5 1.8 1.8-.7 1.8-.5.4 5.1-.8 3.1-.8 5.3-.1 7.4.9 2.6.7 3.3-1.4 5.6-3.5 3.8-3 6.9 2.5 15.1 2.7 4 4.7 7.5 4.4 7.8-1.4 1.3-3.9.4-6.8-2.4-3.7-3.6-5.6-3.3-8.4 1.6-2.9 4.9-7.1 4.1-7.1-1.4 0-6.7-5.2-8.2-11-3.2-4.2 3.5-5.3 3.7-8.1.8-1.8-2-2-3.1-1.5-7.8.7-5.9 3.5-9.8 8.9-12.6 3.1-1.6 3.4-4.1 1.2-8.3-1.8-3.5-3.7-4.3-8.2-3.5l-3.5.7 2.1-4.1c1.2-2.3 3.1-4.7 4.3-5.3 3-1.6 11.9-.4 16.4 2.3 3.7 2.2 3.7 2.2 1.6 3.6-3 2-2.8 2.8 1.8 5.7 5 3.1 6.5 3.1 8.6 0 1.5-2.2 1.5-3.2.4-6.8-.6-2.3-1.6-4.7-2.2-5.4-.5-.7-.6-1.8-.2-2.4 1-1.7 4.4 2.6 4.4 5.7zm43.4-4.7c.9 1 2.1 3.1 2.5 4.7.5 1.6 1.2 3.7 1.6 4.6.5 1.4.2 1.8-1.3 1.8-3 0-4.6 2.4-2.7 4 1.2 1 2.1 1 4.1.1 1.4-.6 3-.9 3.5-.6 1.7 1.1.9 2-1.7 2.1-3.2.2-3.8.9-3 3 .4 1.1 1.4 1.5 3.1 1.2 1.6-.4 2.5-.1 2.5.7 0 .8-.8 1.1-1.8.8-2.1-.5-4.7 2.1-3.7 3.7.3.5 2 1 3.6 1 3.8 0 3.4 2.4-.4 2.8-2.7.3-3.6 2.5-1.7 3.7.6.3 1 2 1 3.6 0 3.6 4 5.7 7.7 4 1.3-.6 2.5-.6 2.8-.1 1 1.6-1.7 2.3-8.9 2.5-3.9.1-8.4.5-9.9 1-3.8 1-4.7-.2-1.1-1.6l2.9-1.1-3-2.4c-2.3-1.8-2.7-2.6-1.7-3.6 1.9-1.9 1.4-3.6-1.5-5.2-2.5-1.4-2.6-1.5-.7-1.6 1.2 0 2.7-.7 3.4-1.5 1.1-1.3.8-1.7-1.9-2.6-2.3-.8-2.9-1.4-2.2-2.3 1.2-1.4-.4-3.6-2.6-3.6-1.6 0-1.7-5-.1-8.5.9-1.9.9-2.8 0-3.7-1.6-1.6-1.5-2.8.2-2.8 2.2 0 2.9-1.9 1.4-3.7-1.1-1.4-1-1.5.7-1 1.1.4 2.7.2 3.5-.3 2.2-1.4 3.5-1.2 5.4.9zm-73.6 18c.5 3.1-1 4.3-4.2 3.5-3.2-.8-3.4-2.8-.4-4.8 2.8-2 4.2-1.6 4.6 1.3zm-50.5 1.2c.3 1.3 0 2.2-.9 2.6-2 .7-3.8-1.1-3.1-3.1.9-2.3 3.4-2 4 .5zm17 5.1c.7 2.1-.4 3.8-2.3 3.8-2.3 0-3.4-1.6-2.6-3.5.7-1.8 4.3-2 4.9-.3zm-16.7 5.9c1 1.7-1.3 3.6-2.7 2.2-1.2-1.2-.4-3.3 1.1-3.3.5 0 1.2.5 1.6 1.1zm-13.8 4.6c-.4 3.3-2.4 4.1-3.3 1.4-.8-2.5.1-4.1 2.1-4.1 1.1 0 1.4.8 1.2 2.7zm22.7.3c.3.5.1 1-.4 1-.6 0-1.1-.5-1.1-1 0-.6.2-1 .4-1 .3 0 .8.4 1.1 1zm128.4.3c.6.8.8 1.6.5 2-1 .9-3.4-.4-3.4-1.9 0-1.8 1.4-1.8 2.9-.1zm-165.1 4.3c-1.4 2.9-3.2 2.6-3.6-.6-.4-2.6 1.7-4.4 3.5-2.9.9.8.9 1.6.1 3.5zm24.7-1.6c1.8.7 1.9.8.3 1.5-2.1.8-4.8 0-4.8-1.5 0-1.2 1.7-1.2 4.5 0zm111.2 3.6c-.3.3-1.2.4-1.9.1-.8-.3-.5-.6.6-.6 1.1-.1 1.7.2 1.3.5zm-119.5 1.6c2.7 2.2 3.2 5.5.9 6.8-4.1 2.1-8.5-2.8-5.5-6.1 2-2.2 2.5-2.3 4.6-.7zm13.5 1.4c.8 2.1-1.3 4.2-2.8 2.7-1.3-1.3-.5-4.3 1.1-4.3.6 0 1.3.7 1.7 1.6zm27.8-.6c.4.6-.1 2.2-.9 3.5-2 3-6.1 3.3-7.6.6-1.7-3.2-1.2-4 2.8-4.4 2-.2 4-.4 4.4-.5.4-.1 1 .3 1.3.8zm106.1 4.7c-1 1-1.9-.5-1-1.8.6-1.1.8-1.1 1.2 0 .2.7.1 1.5-.2 1.8zM339 848c0 .5-.4 1-1 1-.5 0-1-.5-1-1 0-.6.5-1 1-1 .6 0 1 .4 1 1zm-107.3 2.2c-.3.8-.6.5-.6-.6-.1-1.1.2-1.7.5-1.3.3.3.4 1.2.1 1.9zM359 850c0 .5-.7 1-1.6 1-.8 0-1.2-.5-.9-1 .3-.6 1-1 1.6-1 .5 0 .9.4.9 1zm-61 7c.6 1.1 1.8 2 2.6 2 2.3 0 1.1 2.4-1.4 2.8-2.3.4-5.8-4-4.7-5.8 1-1.6 2.3-1.2 3.5 1zM463.6 771.9c-.8 1.2 2.1 3.4 3.4 2.6 1.7-1.1 1.1-3.5-.9-3.5-1.1 0-2.2.4-2.5.9z"/><path d="M351.8 821.1c-1 .5-1.8 2-1.8 3.2 0 1.3-.5 2.8-1.1 3.4-1.4 1.4-.3 3.3 2 3.3 2.9 0 5.3-3.4 4.9-7.1-.3-3.6-1.4-4.3-4-2.8zM480.4 841.8c-1.2.9-2.7 2.7-3.4 4-1 2-.9 2.7.6 4.3 2 2.3 7.2 2.5 10 .5 1.8-1.4 1.8-1.7.4-5.8-1.7-4.9-4.2-5.9-7.6-3zM467.1 852.4c-4.3 3-5.5 6-3.6 9.5 3 5.9 10 6.1 14.4.5 3.9-5 2.2-9.9-4.1-11.3-3-.7-4.2-.5-6.7 1.3zm7.7 4.9c.2 1-.4 2.7-1.4 3.8-1.6 1.8-1.8 1.8-3.6.3-2.1-2-2.3-3.5-.6-5.2 1.8-1.8 5.2-1.1 5.6 1.1z"/></svg>