<svg version="1" xmlns="http://www.w3.org/2000/svg" width="666.667" height="1170.667" viewBox="0 0 500 878"><path d="M93.6 3.7c-.9 6-.7 15.2.5 17.6.6 1.2 2.3 3.4 3.7 4.9 2.3 2.5 2.4 3 1.3 5.5-.7 1.4-1.5 6.3-1.8 10.8-.5 6.9-.3 8.6 1.6 12.2 1.1 2.3 3.6 5.4 5.5 6.8 1.9 1.4 3.7 3.7 4 5 .4 1.4 1.7 4 3 5.9 1.3 1.9 2.6 5.4 3 7.7.5 2.8 1.7 5.2 4 7.5 2.9 2.9 4.1 3.4 7.9 3.4 4.9 0 6.7-1.2 9.3-6.2 1-2 1.3-4.2.9-6.8-.5-3.2-.3-4 1.4-4.9 1.1-.7 2.7-2.3 3.4-3.7l1.4-2.6 2.2 3c2.3 3.3 7.7 5.7 10.4 4.6 3.1-1.2 7.7-10.8 9-18.9.8-5.4 1.7-8 2.9-8.6 1-.5 2.5-2.3 3.3-3.9 2.4-4.6 3.6-4.1 4.9 2 .7 3.6 4.2 7 7.1 7 1.3 0 3.1 1 3.9 2.1 1.9 2.7 4.4 1.9 5.7-2 .7-1.9 2.2-3.3 4.8-4.3 4.2-1.7 7.5-7.1 7.3-12.2 0-1.9.6-3.5 1.9-4.4 3-2.1 5.8-9.3 6.5-17 .4-3.7 1.1-7.3 1.7-8 .5-.6 2.8-1.2 5.1-1.2 3.2 0 4.8-.6 6.5-2.4l2.3-2.5h-15.6L196.9 0l1.2 2.2c1.6 3 1.5 12.8-.1 13.8-.7.5-3.2 1.1-5.5 1.4-3.7.6-4.2 1-5.1 4.5-.9 3.1-.7 4.7.7 8.2 2.2 5.5 2.3 8.4.3 14.2-1.4 4.2-3.4 6.3-3.4 3.8 0-.5-.8-1.2-1.8-1.6-5.4-1.6-4.8-23.5.5-23.5 1.2 0 1.4-.3.6-.8-.6-.4-1.5-2.3-2-4.2-.8-3.1-1.3-3.5-4.7-3.8-4.2-.4-6.5 1.6-6.6 5.5 0 2.5-1.5 3.9-2.5 2.3-.4-.6-1-.8-1.5-.5-3 1.8-2-13 1.2-18.3l2-3.2H150l1.2 2.6c1 2 .9 3-.5 5.4-2.5 4.2-2.2 8.6.9 11.7 1.8 1.8 3.2 2.4 5.1 2 1.9-.4 3.2.2 4.9 2.2 3.1 3.5 3 4.2-.5 3-3.1-1.1-5.5-.4-8.5 2.7-2.3 2.3-2 3.7 1.9 8 2.3 2.5 3.3 4.4 2.9 5.4-.4.8-.7 2.6-.6 4 .7 11.2-.6 17-3.9 17-1.6 0-1.8-.8-1.5-7.5.4-8.3-1.7-13.5-5.3-13.5-1.1 0-2.3-.5-2.6-1-1-1.7-4.4-1.1-5.7 1-2.9 4.5-3.8.7-1.3-5.3.8-2 1.9-3.8 2.5-4.2 1.6-1 1.3-10.5-.3-10.5-.7 0-2.3-1.1-3.5-2.5-1.2-1.4-2.7-2.5-3.3-2.5-.6 0-2.9 2-5.1 4.5-2.2 2.5-4.4 4.2-4.9 4-1.1-.7-.1-11.9 1.1-12.3.5-.2.7-1.4.4-2.7-.3-1.2-.1-2.6.5-2.9.7-.4 1.1.1 1.1 1.3 0 2.5.1 2.5 4.6.6 3.8-1.6 4.3-3.9 1.2-5.9-1.3-.8-2.1-.6-3.6.7-2.5 2.3-3.5 2.2-2.2-.2 2-3.9 1.3-5.1-3.3-5.1-3.9 0-4.4.3-5.7 3.2l-1.3 3.3-.4-3.3c-.4-2.9-.7-3.2-4-3.2-2.6 0-3.6.5-4 2-.3 1.1-.9 2-1.3 2-.9 0-.7 8.4.3 9.1.5.3.4 2.1 0 4-.7 2.4-1.5 3.4-2.9 3.4-1.6 0-1.9-.8-2.1-5.5-.1-3 .3-6.3.9-7.3.8-1.5.7-1.8-.2-1.2-.9.6-1.1-.2-.8-2.9.4-3.5.3-3.6-2.8-3.6-2.9 0-3.2.3-3.8 3.7zM112 21c0 1.1-.4 2-1 2-.5 0-1-.9-1-2s.5-2 1-2c.6 0 1 .9 1 2zm93 2.9c-.6 1.2-1.7 2.1-2.5 2.1-2 0-1.9-.5.8-4.1 1.6-2.2 2.3-2.7 2.5-1.5.2.8-.2 2.4-.8 3.5zm-90 5.7c0 1.7 5.5 6.5 7.6 6.6 1 .1 2.9-.2 4.2-.6 2.3-.8 2.3-.8.7 2.9-.8 2.1-1.5 5.3-1.5 7.1 0 3.7-1.5 4.6-2.5 1.4-1-3.1-6-5.3-8.8-3.9-3.8 2-5.6 5-5 8.6.5 3 .3 3.3-2 3.3s-2.5-.4-2.9-4.8c-.3-2.6-.2-5.1 0-5.6.3-.5.7-2.7.9-5 .3-2.3.6-4.8.7-5.6.3-1.9 3.2-8.3 4.2-9.3.9-.8 4.3 3 4.4 4.9zm83-2.7c0 1.1-2.6 2.2-3.4 1.4-1.2-1.2-.5-2.3 1.4-2.3 1.1 0 2 .4 2 .9zm-.1 10.6v2l-.9-2c-.5-1.1-.9-2.7-.9-3.5-.1-1.3 0-1.3.9 0 .5.8.9 2.4.9 3.5zm-1.2 4.7c-.3.8-.6.5-.6-.6-.1-1.1.2-1.7.5-1.3.3.3.4 1.2.1 1.9zM133 56.1c7.4.7 8 .7 8-.9 0-.8.3-1.2.7-.9.3.4-.2 2.5-1.2 4.7-1.7 3.7-2.1 4-4.6 3.5-4.5-1-6.4 3-6.4 13.4-.1 9.3-.9 10.6-5.6 8.1-2.1-1.2-2.1-1.6-1.4-8.9.4-4.2.7-8.8.7-10.3-.1-1.5.3-3 .8-3.3.6-.4 1-1.8 1-3.3 0-1.5.3-3.7.6-4.9l.6-2.2 2.6 2.5c1.5 1.3 3.4 2.5 4.2 2.5z"/><path d="M270 2.2c0 5.2 2.1 9.8 5 11.3 3.5 1.8 3.4 1.4 1.4 5.4-.9 1.9-1.4 4.6-1.1 6.4.4 3.1-1.5 8.5-3.6 9.9-.6.3-1.8.1-2.8-.5-1.3-.8-2.3-.7-4.3.6-2.7 1.8-12 2.3-14.4.9-1-.7-.9-1.7.3-5.1.8-2.4 1.6-6.3 1.7-8.6.3-4.2.4-4.3 4.1-4.8 4.5-.6 5.2-1.1 4.4-3.2-.6-1.3-3.5-1.4-22.8-1-12.2.3-22.5.7-22.8 1-1.1 1.2 1.7 4 4.5 4.5 2.9.5 2.9.5 3.2 8.9.2 4.6-.1 8.8-.5 9.2-.5.5-2.3.5-4 0-4-1.2-6.4.9-4.2 3.5 1.2 1.5 3.5 1.6 19.6 1.1 10.1-.4 19.7-.4 21.3 0l3 .5v10.9c0 10.1.2 11.2 2.6 14.9 1.4 2.1 3.6 4.6 4.9 5.4 1.5 1 2.4 2.8 2.8 5.5.3 2.2 1.5 5.4 2.6 7 2.6 3.6 4.9 3.2 8.5-1.7 2.3-3.2 2.5-3.2 3.1-1.2.4 1.4.1 2.8-.9 3.9-1.3 1.5-1.5 5-1.4 25.2.1 12.9.1 27.9-.1 33.4-.6 20.2-.5 28.3.7 41.5 1.2 13.6 1.5 21.7 2.9 72 .8 29.3.7 39.3-.4 61.5-.4 7.7-.7 15.6-.6 17.5 0 1.9.3 27.8.6 57.5.4 43.2.8 56 2.1 64 .9 5.5 1.9 11.6 2.2 13.5.5 2.8-.2 5-3.2 10.9-4.6 9.2-5.5 15.6-2.5 19 2.2 2.6 2.7 5.1 1.2 6.6-2.2 2.4-9.4 26.4-9.8 33-.6 7.5-2.3 11.5-5.1 11.5-1.1 0-3.3 2.8-6.1 7.6-3.7 6.5-5.4 8.2-11.1 11.9-5.5 3.5-7.3 4.2-10.8 3.9-2.3-.1-4.5-.5-5-.8-1.4-.9-5 2.2-5.4 4.6-.2 1.6-1.8 2.8-5.8 4.4-3 1.2-6.8 3.4-8.5 4.9-1.6 1.5-7.5 5.1-12.9 7.9-11.4 5.9-14 8.9-13 14.9.5 3.4.2 4.1-2.6 6.5-7.4 6.3-8 7.1-8 10.5 0 2.5-.6 3.9-2.3 5-2.2 1.4-2.5 1.3-5.6-1.4-4.7-4-7.1-3.8-10.3.8l-1.5 2.3-1.9-3.5c-1-1.9-2.6-3.8-3.6-4.1-1-.3-2.2-2.3-2.8-4.5-2.3-8.3-10.3-8.6-12.7-.4-.6 2.2-1.4 5.2-1.7 6.7-.9 4.2-2.5 3.4-2.4-1.2 0-5-2.4-8.9-6.2-9.7-2.4-.4-3.1-1.2-3.6-3.9-.7-3.8-1.8-5-5.7-5.9-3.4-.9-3.5.1-.1 2.8 2.5 1.9 2.5 2.1.9 3.3-2.3 1.7-1.2 4.8 1.5 4.1 2.4-.6 2.6 1.1.4 2.7-1.8 1.4-.9 4.6 1.3 4.6.8 0 1.7-.9 2-2 .3-1.2 1.4-2 2.5-2 1.8 0 2 .5 1.4 3.1-.3 1.7-.6 3.6-.6 4.1 0 .7-.4.7-1.2 0-2.2-1.7-7.3-1.9-7.3-.2 0 .8.8 1.5 1.7 1.5 2.3 0 4.5 2.2 3.2 3.4-1.6 1.6-8.3 3-9 1.9-.3-.5.3-1.2 1.5-1.5 1.2-.3 2.1-1.2 2.1-1.9 0-1.6-1.4-1.8-4-.4-1.5.8-1.7.6-1.3-1 .4-1.5 0-2-1.5-2-1.4 0-2.4-1-3.1-3.2-.6-1.7-1-3.2-.9-3.2.2-.1 1.2-.7 2.3-1.4 1.1-.6 3-1.7 4.3-2.2 2.7-1.1 2.6-3.7-.1-5.4-1.5-.9-2.2-.6-3.8 1.6-1.2 1.6-2.5 2.8-3.1 2.8-.6 0-2.4 1.4-4 3.1-3.6 3.7-4.5 3.3-2.1-.9 1.3-2.2 1.5-3.4.7-4.2-.7-.7-2.2.5-5.1 3.9-3.5 4.4-4.1 5.8-4.6 11.7-.7 6.9-.1 9.1 3.5 13.1l2 2.1-4.1 2.6c-2.5 1.6-4.1 3.4-4.1 4.6 0 1-.5 2.2-1 2.5-2.2 1.4-20.5 1.3-23.9-.1-1.8-.8-4.8-1.4-6.6-1.4-1.7 0-3.5-.3-3.9-.7-1.6-1.6-10.3-4.3-13.9-4.3-2 0-5.4.9-7.4 2-2.3 1.2-5.7 2-8.7 2-4.6 0-5.2-.3-9-4.5-2.3-2.5-4.9-4.5-5.7-4.5-.8 0-3.4 1.2-5.7 2.7-3 2-4.2 3.4-4.2 5.1 0 2.3.1 2.3 5-1.3l5-3.7 2.1 3.7c1.2 1.9 3.4 4.2 5 5 4.1 2.2 12.1 1.9 17.4-.6 5.2-2.5 6.4-2.4 22.5 1.9 10.3 2.7 12.6 2.9 21.8 2.5 6-.4 10.2-.2 10.2.4 0 .5-1.5 2.3-3.3 4.1-3.4 3.3-7.9 4.2-11.6 2.3-1.9-1.1-14.2.2-19.9 2-2.4.8-3.7.8-4.6-.1-.8-.6-1.7-.7-2-.2-.3.5-3.2.7-6.3.5-17.6-1.3-25.8 0-35.9 5.7-3.8 2.2-5.4 3.8-5.4 5.2 0 1.6.3 1.8 1.4.9.7-.6 4.7-2.8 8.7-4.8 8.4-4.1 15.7-4.9 24.4-2.6 6.6 1.7 8.2 1.6 10.3-.5 1.5-1.5 3.4-1.8 10.5-1.7 4.7 0 9.4-.2 10.4-.6 1-.4 3.5.2 5.6 1.3 2.8 1.4 4.2 1.6 5.2.8.8-.6 3.3-.8 6.6-.4 4.7.5 7 .1 17.4-3.6 6.6-2.3 14.9-4.5 18.5-4.9 3.6-.4 7.4-1.2 8.5-1.8 9.4-5.4 15.5-6.8 26.5-6.2 1.4.1 4.8-1.2 7.6-2.8 2.7-1.7 6.6-3.5 8.5-4.2 4-1.3 8.3-5.3 9.8-9.2.7-1.9 1.9-2.8 4.5-3.3 3.9-.7 4.3-1.2 5.6-5.7.8-2.6.7-2.9-.9-2.4-2.3.7-3.4-1.7-1.8-3.8.7-.9 3.1-2.5 5.5-3.8 4.2-2.1 4.3-2.1 5.7-.3 1.2 1.7 1 2.1-2.1 3.7-1.9.9-3.4 2.3-3.5 3 0 .6-.2 3-.4 5.3-.4 5.6.5 6.8 3.8 5.3 1.5-.7 2.7-2 2.7-3.1 0-2.2 1.3-2.3 3-.3 1.5 1.8 3.3 1.9 6.3.2 4-2.2 5.7-4 5.7-5.9 0-2.6-2.7-3.4-4.8-1.5-1.1 1.1-2.2 1.3-3.2.7-.8-.5-2.1-.5-3.2.1-1.3.7-1.8.6-1.8-.5 0-.7.7-1.6 1.5-2 1-.4 1.5-1.9 1.5-4.9 0-4 .3-4.6 2.9-5.6 1.5-.7 3.7-2.9 4.8-4.9 1-2.1 2.8-3.8 3.9-4 1.7-.2 1.9.2 1.7 3.5-.4 4.6 2.5 9 5.2 8 1.4-.6 1.6-1.8 1.3-6.9-.2-4.3.1-6.3 1-6.5.8-.3 1.2.6 1.2 2.5 0 3.3 1.3 4.7 5.1 5.7 2.1.5 3 .2 4.3-1.6 2-2.9 2.1-5.8.1-6.4-.8-.3-2.3-.8-3.2-1.2-1-.3-2.5-.5-3.3-.4-2.6.4 4.6-3.7 9.7-5.4 2.6-.9 5.7-2.2 6.8-2.9 1.1-.7 3.5-1.6 5.3-1.9 1.9-.4 4.5-1.6 5.9-2.7 3.4-2.7 5.1-2.5 6.5.5 1.2 2.6 2.3 3.1 3.3 1.5.3-.6 1.5-1 2.6-1 1 0 1.9-.5 1.9-1 0-.6 1.2-1.5 2.6-2 2.5-1 2.5-1.1 1-3.5-.9-1.3-1.6-3.5-1.6-4.7 0-3.9-1.5-5.4-4.2-4.1-1.3.6-4.3 1.6-6.8 2.3-6.5 1.7-15 7.6-15 10.3 0 1.7-.2 1.9-.9.8-1.4-2.2-7.5-.2-7.9 2.7-.4 2.6-1.1 2.8-2.7.5-1.1-1.5-1.7-1.5-4-.5-1.5.7-2.9 2.1-3.2 3.2-.4 1.5-.8 1.7-2.3.8-1.4-.9-2.4-.8-4.4.5-2.9 1.9-5.1 2.2-4.1.6.4-.6-.2-1.3-1.3-1.6-2-.5-1.9-.7 1.3-4 3-3.1 4.6-3.8 10.7-4.8 4-.7 9.6-1.9 12.5-2.7 8.6-2.4 21.7-14.2 26-23.5l2.7-5.8.5 6.5c1 11.4 8.3 20 16.9 20 2.1 0 3.1.6 3.5 2 .3 1.1 1.7 2.4 3.1 3 1.4.5 2.6 1.1 2.6 1.4 0 .5-7.7 4.2-10.5 5-1.7.5-2 .1-2.2-3.4-.2-6.1-3.4-8.9-6.3-5.5-.7.8-.8 1.5-.2 1.5.5 0 .9 1.4.7 3.1-.2 2.8-.8 3.4-4.6 4.9-2.4.9-6.3 2.8-8.6 4.3-2.4 1.5-4.7 2.7-5.2 2.7-2.7 0-24.9 20.9-27.6 26-2.1 4.1-2.2 7.6-.1 9.9 1.9 2.1 1.9 2.2-.3 6.2-2.1 3.7-2.2 4.1-.7 6.4.9 1.3 1.6 3.1 1.6 4 0 3 3 7.5 5 7.5 1.1 0 2 .6 2 1.4 0 .8 2.3 3.8 5 6.6 5.4 5.6 6.1 7 3.1 7-2.1 0-4.5 3-7.9 9.5-3.3 6.4-7.4 10.2-11.8 10.9-3.4.6-10.4 5.5-10.4 7.2 0 1.4 5.3 9.3 6.5 9.8.8.3 1.5 1.8 1.5 3.3 0 1.6.6 3.7 1.4 4.8.7 1.1 1.9 3.8 2.6 6 .7 2.2 2 5.1 2.9 6.5 1 1.4 2.5 5.2 3.6 8.5 3.5 11.5 4.2 13 7 14.4l2.9 1.4-4.4 3.7c-3.9 3.4-4.5 4.3-4.5 8 0 3.6.6 4.6 4.3 8 4.6 4.3 5 5.6 2.7 10-.8 1.6-1.7 5.3-1.9 8.2-.3 2.9-1.5 8.7-2.7 12.8-1.1 4.1-2.8 10-3.6 13-.8 3-3.2 8.4-5.3 12-7.6 12.8-11 19.9-10.4 21.4 1 2.6 6.7 5.5 14 7 3.8.8 8.3 2 9.9 2.7 2.7 1.1 5.2 1.7 15 3.5 5.6 1.1 13 .7 19-.9 3.3-1 8-1.9 10.5-2.2 8.3-.9 11.5-1.7 13.3-3.2 2.4-2.2 2.1-3.9-1.2-8.2-1.5-2-4.3-6.3-6.2-9.6-1.8-3.3-3.8-6.3-4.5-6.7-.6-.4-1.5-2.5-1.9-4.5-.4-2.1-1.3-4.9-2-6.3-2.5-4.8-6.8-22.2-8.6-34.5-.5-3.9-1.2-8.2-1.4-9.6-.3-1.7.1-3.2 1.1-4 .8-.7 2.2-2.6 3.1-4.2 1.2-2.5 1.3-3.7.3-7.4-.7-2.4-2-4.8-2.9-5.3-1.5-.8-1.4-1.3.2-5.7 1-2.6 3.1-9.1 4.7-14.2 1.6-5.2 3.6-10.9 4.4-12.5 2.5-5.2 6.1-15 6.2-17.1.3-3 1.1-6.1 2.3-8.4 1.6-2.8 1.4-3.8-1.1-6.3-1.9-1.9-1.9-2.1-.2-1.3 1 .4 6.2.9 11.4 1 7.6.2 10.8.8 16 3 3.6 1.4 10.6 3.7 15.5 5 15.5 4.1 23.9 6.7 27 8.3 1.7.8 4.2 2.1 5.8 2.9 1.5.8 3.2 1.1 3.7.8 1-.6 1.4.1 2.4 4.5.7 3.4 9.3 12.3 11.1 11.6 1.1-.4 1.5.2 1.5 2 0 1.6 1.9 4.7 5.3 8.5 2.8 3.3 5.2 6.7 5.3 7.7.2 2.9 1.5 6.2 2.5 6.2.5 0 .9.9.9 1.9 0 1.1 1 2.8 2.3 3.8 1.3 1 2.7 3 3 4.4.8 3.3 7.1 9.7 10.3 10.5 2.4.6 8.4-1.2 8.4-2.6 0-.4 1.1-1.9 2.5-3.4 3-3.3 3.2-5.6.5-6.3-2.3-.6-2.2 0-2.4-16.3l-.1-12.5-4.2-6.5c-2.4-3.6-4.3-7.1-4.3-7.8 0-.7-.8-3.1-1.9-5.5-2.6-5.7-4.7-18.5-3.4-19.8.6-.6 2.8-1.2 4.9-1.5 2.1-.2 5.1-.7 6.7-1 1.5-.3 7.6-.7 13.5-.9 9.3-.3 11.6-.7 16-2.9 2.8-1.4 5.7-2.6 6.4-2.6 2.2-.1 6.8-4.8 8.4-8.6.9-2.1 1.5-6.6 1.5-10.7-.1-4 0-8 0-9s-.5-4.3-1.1-7.3c-1-4.8-.9-5.8.4-7.3 2.4-2.7 2-7.5-1-11.1-2.6-3-11-8-13.6-8-.6 0-2.1-.8-3.2-1.9-2.1-1.8-9.5-5.8-14.9-8-1.5-.6-3.2-2.1-3.8-3.4-.6-1.4-2.6-3.2-4.5-4-1.9-.9-3.4-2-3.4-2.4 0-.5 2.1-1.6 4.8-2.5 3.2-1.2 5.3-2.7 6.5-4.7 1-1.7 2.6-3.5 3.6-4.1 1-.5 3.5-3.1 5.5-5.8l3.7-4.9 3.3 3.1c7 6.6 9.7 8.6 12.3 9.2 1.6.4 3.8 1.3 5.1 2 1.5 1 2.8 1.2 4 .6.9-.5 2.2-.8 2.8-.5.6.2 1.7-.3 2.4-1.2 1.8-2.2 2.7-1.9 3.5 1.2 1.6 6.8 5.6 9.3 7.6 4.9 1-2.1 1.4-2.2 3.9-1.3 3.5 1.3 6 .3 6-2.4 0-1.5-.5-1.9-1.5-1.5-1 .3-2-.5-3.1-2.5-1.3-2.7-2-3-4.5-2.5-3.1.6-3.5-.1-4.1-6.9-.4-3.8-4.6-5-5.5-1.5-.3 1.2-1.5 2.6-2.7 3.1-1.1.6-3.2 1.6-4.6 2.5-3.1 1.8-6.4 1-10.6-2.4-6-4.9-10-7-11.8-6-1.4.8-1.6.4-1.2-3.7.2-2.5 1-5.3 1.8-6.3.8-.9 2.5-6 3.7-11.2 1.3-5.2 2.9-10.4 3.6-11.5 2.7-4.5 3.2-10.2 1.9-26.5-.8-11.1-2.3-19.9-3.9-23.1-.8-1.5-1.5-3.7-1.5-4.9 0-1.2-.7-2-1.7-2-1.4 0-1.5-.2-.1-1.8 5.3-6-9.9-27-25.2-34.7-3.6-1.8-7.8-4-9.5-4.8-5.8-3.2-12.6-5.8-14.3-5.5-.9.1-2.8-.5-4.2-1.5-1.3-.9-3.6-1.7-5.1-1.7-1.5 0-3.2-.7-3.9-1.5-1.8-2.1-4.4-2.7-7.4-1.6L382 443l2 3.2c1.1 1.8 2 4.1 2 5.1 0 5.6-6.3 10.7-15 12.2-4.7.8-11.4 3.7-12.5 5.5-.9 1.4-2.5 1.2-2.5-.3 0-1.9-4-5.3-7.2-6.1-1.5-.3-3.9-1.6-5.4-2.9-2.2-1.9-2.5-2.7-1.6-4.3.6-1 1.6-3.4 2.2-5.2 1-2.5 1.7-3.1 3.1-2.7 1.8.6 2.4-.3 2-3.3-.3-2.1 1.6-1.3 2.2.9.7 2.6 5.3 2.3 5.1-.4-.1-1.2.6-1.7 2.7-1.7 3.1 0 3.7-1.1 1.7-2.7s-10.7-2.4-12.9-1.3c-1.6.9-2.2.5-3.9-2.2-1.1-1.8-2.3-4.4-2.6-5.8-.3-1.4-.9-3.2-1.4-4.1-.5-.9-1.4-4.4-2.1-7.9-1-5.2-1-6.3.2-7.1 1.1-.6 1.1-1.1.1-2.1-1.4-1.4-1.6-7.4-.2-8.3.6-.4 1 .5 1 1.9 0 3.6 1.6 3.2 2.9-.6 1-2.8 1.2-3 2.4-1.4.7.9 2.8 1.8 4.7 2 1.9.2 4.2.5 5 .9 3.3 1.2 6.5 1.6 7.4.8.6-.5 3-1.1 5.2-1.5 3.7-.5 4.2-.3 4.7 1.5.3 1.3 1.1 1.9 1.9 1.7 1-.4 1.4 1.4 1.6 7.5.1 5.6.6 8.4 1.6 8.9.8.4 1.1 1.7.9 3.3-.4 1.7 0 2.7 1.1 3.1 1.7.7 2.3 5.9.7 6.9-.5.3-1.2 1.9-1.6 3.6-.6 2.5-.9 2.8-2.2 1.8-1.2-1.1-2-.7-4.6 2.2-4.7 5.1-13.6 8.1-17.7 5.9-2.9-1.6-4.5-.2-2.4 2.1 1.2 1.4 3.1 1.9 6.7 1.9 4.8 0 7.5-1.3 12.9-6.2 2.9-2.7 5.3-3.5 6.9-2.5 1.4.9 1.4 1.2-.3 2.9-2.2 2.2-1.7 7.1.8 9.8 1.2 1.2 1.6 1.2 3-.2 2-2 2.7-9.8.9-10.4-1.4-.6-1.7-5.4-.4-5.4.5 0 .9-1.4.9-3 0-3.2.9-3.7 2.7-1.9.8.8 1.9.7 4.1-.3 2.4-1.3 3.2-1.3 4.7-.2 2.6 1.9 5.9-.9 4.5-3.7-1.8-3.3-1.2-8.7 1.1-10.3 1.9-1.3 2-1.9 1.1-4.3-.6-1.5-1-4.2-.9-5.8.1-1.7-.2-4.5-.7-6.2-.7-2.9-.5-3.2.9-2.6 1.4.5 1.6.2 1.1-1.3-.3-1-1-4.3-1.6-7.3-.5-3-2.1-7.4-3.5-9.9-1.4-2.4-2.5-5.3-2.5-6.4 0-1.1-1-2.2-2.5-2.8-1.4-.5-3-2.1-3.7-3.5-.9-2.1-.8-2.7 1.3-4.4 1.3-1.1 2-2.1 1.4-2.2-1.4-.2-4.9-.6-14-1.4-4.5-.4-8.7-1.4-9.7-2.2-1.4-1.3-2-1.2-4.7.2-1.8.9-3.5 1.3-4 1.1-1.5-1-1.8-6.6-.4-7.7 1.6-1.4 1.7-12.3.3-23.1-.5-4-1.5-19.9-2.1-35.3-1.2-29.1-1.3-31.3-1.1-53.5.1-7.4-.1-15.5-.4-18-.3-2.5-.6-23-.8-45.5-.3-40.2-.4-41.1-2.6-46.8l-2.4-5.9 3.3-5.9c2.8-5.2 3.4-7.3 4.1-16.7.9-11.6 2.4-17.2 4.6-17.2 1.8 0 1.8 1-.2 7.7-1.9 6.6-1.3 11.1 2.1 14.3 3.1 2.9 3.1 3.8.2 7.8-3.6 4.8-6.1 13.2-5.3 17.5.8 4.5 4.5 8.9 9.1 11.1 3.3 1.6 3.5 1.9 3 5.4-.7 4.8 2.8 11.1 7.2 13.2 2.2 1 3.6 2.6 4.4 5 2.5 7.7 8.8 10.4 13.6 5.8 3.5-3.3 3.9-1.4 1 4.5-2.9 5.5-3.6 13.1-1.7 16.7.6 1.1 2.8 2.4 5 3 4.7 1.3 5.1 3.3 2 10.1-3 6.8-2.6 11.9 1.3 17.1 2.6 3.3 4.2 4.5 7.5 5.2 3.7.8 4.5.6 6.7-1.4 1.3-1.2 3.3-5.2 4.5-8.9 2.6-8.4 2.8-8.7 7.2-10.5 4.3-1.8 5-3.5 4.8-11.8 0-3.5.2-8.2.6-10.5.4-2.6 0-6.1-.9-9.3-1.5-4.9-1.4-5.2.5-6.8 4.8-4 6.5-11.7 4.7-21.6-.8-5-.8-7.1 0-7.9 2-2 1.2-7.4-1.5-10.7-2.3-2.7-2.5-3.4-1.5-5.6 1.9-4.2 1.3-9.6-1.9-15.3l-3-5.3 2-2.6c3.6-4.5 2.3-11.4-3.1-17.3-2.2-2.3-3.9-4.9-3.9-5.8 0-1.1.8-.6 2.5 1.4 1.3 1.6 2.4 3.3 2.5 3.7 0 .4 1.4 1.4 3 2.3 2.3 1.2 3.5 1.3 5 .5 2.4-1.3 2.6-.9 3.4 7.4.5 4.1 1.5 7.2 3.5 10.1 2.6 3.9 2.8 4.8 2.4 11.6-.4 6.8-.2 7.9 2.9 13.9 3.3 6.5 8.2 11 12 11 1 0 3-1.1 4.3-2.4 2.3-2.3 2.3-2.3 2.9-.2.3 1.1.6 2.9.6 3.9 0 6.6 8.9 14.7 16.1 14.7 5.1 0 10.2-3.5 12.8-8.8 2-4 2.1-5.9 2.1-28.6 0-23.4-.1-24.5-2.5-31.7-3.3-9.5-3.4-12.8-.6-21.4 3-9 3.8-23 1.6-25.5-1.2-1.4-1.3-2.3-.5-4.5.8-2.1.8-4.1-.1-7.5-1-3.9-.9-5.1.5-7.7 1.9-3.7 2.1-10.9.3-13.9-.7-1.1-2.5-3.7-4.2-5.7C491.9.5 491 0 487.1 0c-3.7 0-4.2.2-3.1 1.5.7.8 1.6 1.2 2.2.9 1.2-.8 3.8 1.5 3.8 3.4 0 .8.7 2 1.5 2.6C495 11 494.1 25 490.4 25c-1.9 0-1.8 2.4.1 4 1.9 1.6 1.9 8.9 0 11.4s-1.9 4.6-.1 4.6c1 0 1.3 1.1 1 4.2-.2 2.4-.5 7.9-.8 12.3-.5 9.6-1.8 12.8-5.9 14.6-4.1 1.8-4.2 4.3-.2 4.4 2.9 0 3.1.3 4.3 6 .7 3.3 2.2 9.1 3.5 13 1.8 5.7 2.2 8.9 2 17.8-.2 9.7-.1 11.1 1.9 13.7 2 2.7 2 3.3.9 7.2-.7 2.4-1.7 5.2-2.1 6.3l-.9 2-.2-2c-.5-5.3-.7-6.3-1.3-7.4-.5-.7.1-1.1 1.3-1.1 2.6 0 2.7-1.2.1-3.5-4.3-3.9-9.8 1.1-6.6 6 2.9 4.5 1.2 18-2.2 17.3-2.2-.4-6-6.2-6.8-10.4-.6-3.4 3.8-19.8 5.7-20.9 1.8-1.2 4-6.6 3.4-8.6-.4-1.1-1.6-2.6-2.9-3.4-1.9-1.3-2.6-1.3-5.9.2-3.6 1.7-4.9 4.4-2.6 5.8.7.5.3 1.5-1.1 3-1.8 2-2.6 2.2-4.1 1.2-3.3-2.1-4.3-6.2-3-12.3 1.5-6.7 8.5-20.2 11.7-22.7 3.1-2.4 3.1-4.7 0-4.7-1.6 0-3.1-1.2-5-4-4.5-6.8-3.5-16.2 2.5-25.3 2.3-3.5 2.9-5.4 2.5-7.2-.7-2.7-3.4-3.3-5.4-1.3-3.3 3.3-4.4-6.9-1.2-11.7 3.2-4.8 2-12.7-2.1-14-2.8-.9-7.5 2.1-8.9 5.7-2.6 7.1-3 7.8-4.4 7.8-2.6 0-3.9-3.9-3.2-9.3.7-4.8 3.3-11.5 7.7-20l2-3.7h-9.8l-3.6 7.2c-4.2 8.6-5.7 13.6-5.7 19.9 0 3.7.7 5.4 3.6 9.2 3.2 4.1 4.1 4.7 7.5 4.7 2.1 0 4.1-.5 4.4-1 1.3-2.1 2.5-.9 2.5 2.5 0 4.2 1.9 8.5 3.7 8.5 1.8 0 1.7 4-.3 6.1-2 2.3-3.8 13.6-3 19.3.5 3.1 1.6 5.5 3.7 7.5l3 3-3.9 5.8c-2.2 3.2-4.5 7.5-5.2 9.5-.6 2.1-1.5 3.8-1.8 3.8-.4-.1-2.5-1.6-4.7-3.5l-4-3.4-.1-13.4c0-7.4-.4-13.9-.8-14.5-1.1-1.8-4-1.4-6.4.8-1.6 1.5-2.2 3.2-2.2 6.5 0 11.5-6.5 2.8-7.7-10.3l-.6-6.7 3.2 2.8c3.9 3.2 4.6 3.3 8.8.8l3.1-2 1.6 2.5c2 3 6.5 3.2 9.1.4 1.7-1.9 1.7-2.1 0-4.6-1.2-1.8-1.7-4.5-1.6-8 .1-7.9-3.1-10.4-8.2-6.4-2.4 1.9-2.5 2.5-2 7 .5 4.1.3 5-1 5-1.8 0-5.8-6.4-6.3-10.3-.2-1.5-.6-3.3-1-3.9-1.8-2.9-.2-14.6 3.2-23.8 3.7-9.8 5.5-17.5 4.7-19.7-.3-.8-2.4-1.3-5.5-1.3-4.8 0-5 .1-4.4 2.4.3 1.4.2 2.7-.4 3.1-.5.3-.7 1.2-.3 2.1.5 1.4-3.1 13-4.6 14.7-.4.4-1.5-2.3-2.6-5.9-2.3-8-8.2-15.4-12.4-15.4-3 0-7.1 2.5-7.1 4.3.1.7 2 2.4 4.3 3.9 4 2.5 4.4 3.3 7.6 13.2 2.4 7.6 3.2 11.6 2.8 14.2-.3 2-.8 3.9-1.1 4.2-.9.9-4.5-4.2-4.6-6.4 0-1.1-.6-2.9-1.4-4-1.5-1.9-1.5-1.9-5.3.1-4.5 2.4-5.1 4.7-2.9 11.2 3.2 9.4 1.4 19.3-3.6 19.3-1.5 0-1.9-.5-1.5-2 .3-1.1.1-2-.4-2-1.5 0-1-8.4.7-10.8.8-1.2 1.4-3.2 1.2-4.5-.3-1.9-.9-2.2-4.1-2-4.4.3-4.9-1.5-1.4-4.7 1.6-1.6 1.7-1.9.5-1.5-2.8 1.1-2.2-.5 1.8-4.8 1.3-1.4.2-5.1-2.3-7.9-1.2-1.3-2-1.5-3.9-.6-3.4 1.6-3.8.6-2.3-4.9.9-3.2 3-6.4 6.2-9.7 2.6-2.8 4.7-5.1 4.7-5.3 0-.2-1.5-.3-3.3-.3-2.7 0-4.3 1-8.8 5.7-6.3 6.5-8.9 11.4-8.9 16.6 0 2-.9 5.2-2.1 7.1-1.7 2.9-2.4 3.4-3.9 2.6-.9-.5-2.3-2.3-3-4-1.1-2.7-1-3.8 1-8.8 2.8-7.2 2.8-9.9-.2-12.9l-2.5-2.4-3.9 2.2c-4.8 2.8-5 3.2-5.8 8-.3 2.2-1.1 3.9-1.6 3.9-1.3 0-.2-5.6 2.1-10.7 1-2.4 1.9-4.7 1.9-5.2s.6-1.2 1.3-1.4c.6-.3-1-.6-3.6-.6-4.4-.1-4.9.2-6.8 3.4-1.2 1.9-2.5 3.5-3 3.5-.4 0-1.1-1.6-1.5-3.5-.6-3.3-.9-3.5-4.4-3.5-4.4 0-5.7 2.4-3.5 6.8.8 1.5 1.6 3.5 1.9 4.4.4 1.2 1.5 1.8 3.6 1.8 2.7 0 3 .3 3 3 0 2.3-.6 3.3-2.5 4-1.9.7-2.5 1.7-2.5 4 0 3.4 0 3.4-3.5 1.8-2.3-1-3.3-3.7-1.9-5.1 1.2-1.1 1.2-7 .1-9.1-.5-1.2-1.3-2.8-1.7-3.6-.9-1.7-5.7-1.7-7.3-.1-.6.6-1.4 3.8-1.9 7.3-.5 4-1.5 7-2.8 8.2-1.9 1.9-1.9 1.9-3.2-1-1.5-3.7-1.5-17.2.1-20.2l1.2-2.2h-20.3c-18.3.1-20.1.2-18.3 1.6 1.1.8 2 2.1 2 2.8 0 .8 1.7 3 3.8 5.1 3.5 3.4 5.2 8.3 2.5 7.2-.8-.3-1.3.5-1.4 2.2-.1 1.4.1 2 .3 1.3.7-1.8 2.3-.4 2.3 1.9 0 1.9-.1 1.9-2.2.5-2.9-2-5.2-2-7.2 0-1.4 1.4-1.7 1.4-2.2 0-.3-.8-1.3-1.3-2.2-1-.9.3-.7 0 .4-.7 2.9-1.5 4.8-5.7 3.4-7.4-.6-.7-3.1-1.8-5.5-2.4-4.8-1.2-6.2-3.6-5.3-8.6.5-2.3.2-2.5-2.8-2.5-2.9 0-3.4.4-3.4 2.2zm43.8 15.5c.1 2.6 1.1 6.2 2.2 8 1.7 2.9 1.8 4 .9 8.3-1.1 5.1-3.3 8.5-5 7.5-.5-.4-.9-1.4-.9-2.4s-.3-2.1-.7-2.5c-1.8-1.7-2.1-15.2-.4-16.9.7-.7.7-1.6 0-2.9-1.2-2.2-.4-3.8 1.9-3.8 1.3 0 1.8 1.1 2 4.7zm-66.1 1.8c.3.9-.1 2.3-.9 3.3-.9.9-1.8 3-2.2 4.6l-.7 3-3-5.4c-1.6-2.9-2.9-5.7-2.9-6.2 0-.4 2-.8 4.5-.8 3.2 0 4.7.5 5.2 1.5zm-12.3 8c2 4.2 3.4 8 3.1 8.5-.3.6-2.4 1-4.6 1-3.6 0-3.9-.2-4-2.8-.1-1.5-.3-5-.5-7.7-.7-9.9.8-9.7 6 1zm133.6-5c0 .8-.4 1.5-1 1.5-.5 0-1-.7-1-1.5s.5-1.5 1-1.5c.6 0 1 .7 1 1.5zm-12.1 1.9c.6.8 2.5 1.9 4.1 2.6 3.3 1.4 3.9 3.4 1.4 4.8-1.6.9-9.4 11.9-9.4 13.3 0 1.4-8.2 13.2-10.5 15.1-1.1.9-2.8 1.5-3.7 1.2-.9-.3-2.6.1-3.7.8-1.6 1-2.3 1-3.3 0-1.8-1.8-4-11.4-2.9-12.5.5-.5.7-1.7.4-2.6-.3-.9.7.1 2.3 2.2 2.8 3.6 3.1 3.8 7.8 3.4 4.1-.4 5.3-1 8.3-4.3 5.1-5.7 7-12.3 4.2-15.1-.8-.8-.4-2 1.5-4.5 2-2.7 2.3-3.7 1.4-4.6-.8-.8-.8-1.2-.1-1.2.6 0 1.6.6 2.2 1.4zM335 27.3c0 .1-1.3 2.9-3 6.2-1.9 3.9-2.9 5.2-3 3.8 0-1.2-.3-2.8-.6-3.7-.4-1 .3-1.9 2-2.7 1.4-.7 2.6-1.8 2.6-2.6 0-.7.5-1.3 1-1.3.6 0 1 .1 1 .3zm56 3c0 .1-.9 2-2 4.2-2.4 4.8-2.5 7.3-.4 10.4 1.4 1.9 1.5 2.9.5 6.3-1 3.3-1.5 3.7-2.7 2.8-.7-.7-1.9-2.9-2.5-5-.9-3.1-.8-4.7.6-9.1 2-5.9 4.2-9.9 5.6-9.9.5 0 .9.1.9.3zm-104.8 3.4c1.5 1.8 3.8 8.8 3.8 11.4 0 .8-.9 2.5-1.9 3.8l-1.8 2.4-1.9-2.1c-2.7-3.2-4.7-2.7-6.8 1.9-2.5 5.1-2.4 10.1.3 13.5 2.3 3 2.7 8.3 1 13.3-.6 1.8-1.6 3-2.2 2.8-1.8-.6-3-6.9-1.8-8.9 1.7-2.7 1.4-3.3-2.9-5.2-2.2-1-4.5-2.6-5.1-3.7-1.3-2.4-1.5-12-.4-17.8l.8-4.3 4.6.6c4.3.5 4.7.4 5.9-2.1.6-1.5 1.2-3.4 1.2-4.3 0-.9.3-2 .7-2.3 1.2-1.3 5-.7 6.5 1zm56.5.9c2.6.7 3.5 3.7 2.2 7.2-1.3 3.4-2.8 4.3-5.1 3.1-1.8-1-2.5-6-1.2-9.3.7-1.8.9-1.8 4.1-1zm27.5 3.7c.8 1.6.7 2.3-.7 3.3-.9.7-1.5 2.1-1.3 3.1.2 1.2-.7 2.3-2.7 3.3-3 1.5-3.3 2.6-2.2 7.2.5 1.9.2 2.3-1.9 2.5-4.3.2-4.9 1.6-3.4 7.7 1.3 5.3.8 8.2-1.1 7-.6-.3-1.9.3-2.9 1.4-1.4 1.5-1.7 2.9-1.3 6 .3 2.2.3 5.2-.1 6.6l-.6 2.5-3.7-2.5-3.7-2.5-2.5 2.6-2.5 2.5 4.3 4.4c3.3 3.3 4.4 5.4 4.7 8.2.2 2 .1 4.1-.2 4.5-.7 1.2-6.1-1.7-7.4-4-.5-1.1-2.3-2.2-3.9-2.6-2-.4-3.3-1.5-3.9-3.5-.6-1.5-.8-3.1-.5-3.4.4-.3.1-.6-.5-.6s-1.8-1.4-2.6-3.2c-1.9-3.7-1.9-3.8-.6-3.8.6 0 1 .7 1 1.5s.9 1.5 1.9 1.5c2.3 0 3.8-3.7 2.2-5.3-1.7-1.7-1.3-3.6.7-3 2.2.5 4.7-2.1 3.9-4.1-.3-.8.1-2 .9-2.6.8-.7 1.4-1.9 1.4-2.6 0-.7 1.2-2 2.8-2.8 4.4-2.4 11.9-10.2 12.6-13.3.4-1.5 2-4.8 3.5-7.3s3.5-6.2 4.4-8.2c1.9-4 3.9-4.2 5.9-.5zM423 54.5c-.7 2.1-.8 5.7-.4 9.5l.7 6-3.4-3.1c-2.8-2.6-3.9-3-6.7-2.5-3.4.5-6.2 2.2-6.2 3.6 0 .5 1.3 1.3 2.9 1.8 5 1.7 7.8 9.4 4.9 12.9-1.5 1.8-.2 4.3 2.1 4.3 1.9 0 5.5 4 8.1 8.9.9 1.8.9 3.4 0 6.9-1.3 5.3-2.6 6.5-5.2 4.9-1.3-.9-2.3-.9-3.5-.1-2.4 1.5-3 3-4.4 11.2-1 5.9-1.7 7.7-3.7 9-3 2-3.9.8-4.7-6.3-.7-5.2.9-11.4 4-15.8 1.7-2.5 2-6.3.4-7.2-2.1-1.4-6.8 1.7-8.6 5.6-1.8 4.2-3.2 5-3.5 2.1-.3-3.2.2-5.3 2.1-9.5 3.3-7.3 3.5-8.7 1.3-8.7-1.1 0-3.1.9-4.6 2.1-3.2 2.5-4.6 1.8-4.6-2.6 0-4.9 1.3-7.5 6.3-12.8 3.1-3.4 4.3-5.4 4-6.7-.4-1.4 0-2 1.1-2 2.4 0 10.1-3.8 13-6.5 1.6-1.5 2.7-3.9 3.1-6.9.6-3.9 1-4.6 2.5-4.1 1 .3 2.2 0 2.7-.7 1.3-2.1 1.6 2.8.3 6.7zm-107.6-5c-.4.8-1.7 1.5-3.1 1.5-2.2 0-2.4-.2-1.3-1.5.7-.8 2.1-1.5 3.1-1.5 1.2 0 1.6.5 1.3 1.5zm57.6 5.1c0 .8-.4 1.2-1 .9-.5-.3-1-1.3-1-2.1s.5-1.2 1-.9c.6.3 1 1.3 1 2.1zm-67.9 6.7c-1.2 1.2-4.1-.8-4.1-2.9 0-1.2.5-1.1 2.6.2 1.7 1.1 2.2 2 1.5 2.7zm90.5-1.6c.4 1.6 1.1 3.4 1.7 4 .7 1 .2 1.3-1.9 1.3-2.7 0-2.9-.3-3-4-.2-4.7 2.2-5.6 3.2-1.3zm-11.8.3c.9 0 1.1.7.6 2.2-.4 1.3-.7 3-.7 3.8 0 .8-.8 2.7-1.8 4.2-3.4 4.7-2.1 7.9 1.9 4.8 5-4 5.6-1.9 1.2 4.2-2.5 3.4-3 5.1-3 9.6 0 4.4-.3 5.3-1.5 4.8-2.3-.8-7.4 4.1-8.5 8.5-2 7.2-7 4-7-4.5 0-4.8 4.1-12 9.5-17 4.3-3.8 4.6-4.5 3.6-6.4-.6-1.2-1.8-2.2-2.6-2.2-1.9 0-1.9-1.7-.1-5.1.7-1.4 1.6-3.8 2-5.3.6-2.3 1.1-2.7 2.9-2.2 1.2.3 2.8.6 3.5.6zm-87.5 7.1c.6 1 .3 2.5-1.3 4.9-1.2 1.9-1.9 2.7-1.6 1.7.3-1 .1-2.7-.5-3.9-2.1-3.9 1-6.4 3.4-2.7zm29.4.5c.3.8 1.1 1.4 1.9 1.4.8 0 1.4.4 1.4 1 0 1.3-1.6 1.3-4.2-.1-1.8-1-2.4-.8-4 1.2l-1.8 2.4-2-2.5c-2.6-3.3-2.5-3.4 1.3-4.6 3.8-1.1 6.7-.7 7.4 1.2zM304.1 71c2.8 1.6 2.3 3.2-.6 1.8-1.4-.6-2.5-1.5-2.5-2 0-1.1.7-1 3.1.2zM326 81.4c0 .6-.9 0-2-1.4-2.6-3.3-2.5-5.2 0-2.1 1.1 1.3 2 2.8 2 3.5zm-13.9 2.2c1.1 2.6 1.8 4.9 1.5 5.1-.8.8-4.6-5.5-4.6-7.6 0-3.3.9-2.5 3.1 2.5zM323 89c0 .5-.2 1-.4 1-.3 0-.8-.5-1.1-1-.3-.6-.1-1 .4-1 .6 0 1.1.4 1.1 1zm-33 .8c0 1.1-3.7 3.2-4.4 2.5-.8-.9 1.4-3.3 3-3.3.8 0 1.4.3 1.4.8zm17.7 4.9c1.6 1.5 1.7 4 .1 4.5-1 .4-.9 1.4.1 4.7 1.2 4 1.1 4.4-.8 5.8-1.2.8-2.1 2.1-2.1 2.9 0 2.2 4.7 6.5 6.3 5.8.8-.3 1.7.1 2 .9.4 1-.2 1.7-1.5 2-1.7.5-2 1.1-1.5 3.6.5 2.4.2 3.1-1.3 3.6-3.9 1.2-4.2 4-1 8 1.6 2.1 2.7 4.2 2.3 4.9-1.9 3.4-2.5 3.5-5.4 1.4-1.9-1.4-2.5-2.4-1.8-2.9 1.5-.9.2-2.9-1.9-2.9-1 0-2.8.7-4.1 1.7-2.3 1.5-2.3 1.7-.6 2.9 1.7 1.3 1.5 1.6-2.5 5.2-3.4 3-4.1 4.2-3.6 6 .7 2.2 3.6 3.1 3.6 1.2 0-1.6 3-1.1 3.7.6.3.9 0 2.6-.7 3.7-1 1.7-1 2.3.6 3.4 2.2 1.6 5 1.7 6 .1.5-.7 1-.4 1.6 1.1.8 2.2 1 2.2 3.1.8 2.2-1.4 2.3-2.2 2.6-12 .1-3.9 1.3-3.3 3.9 2.1 2.8 6 3 10.6.4 9.8-3-1-4.6 3.3-3.8 10.1.8 6.8 1.4 15.2 2 27.9.4 9.5.9 11.4 3 11.4.7 0 1.9 2.1 2.6 4.7 1.2 4.4 1.3 8.6.8 23.8-.1 3.3.6 6.7 2 9.8 1.9 4.3 2.3 4.7 4.2 3.7 1.6-.9 2-.8 2 .5 0 .9-.7 2.7-1.6 4-1.4 2.2-1.4 2.6.4 5.2 2.6 3.9 8.2 13.3 8.2 13.9 0 .3-1-.2-2.2-1-2.9-2-6.4-2-7.2 0-1.1 2.7-.7 4.2 1.3 4.9 1.1.3 3.6 1.9 5.7 3.6 2.3 1.8 4.4 2.7 5.5 2.4 1.3-.4 2.4.5 4.3 3.8 3.2 5.3 3.2 6.4.5 6.3-3.6-.2-4.5 2.7-2.1 6.2 2.7 3.7 2.7 3.8.1 4.5-2 .5-2 .6.6 5.4 1.5 2.6 3.3 5.5 4.1 6.4 1.3 1.4 1.2 1.8-.1 2.9-1.8 1.5-2.7.8-3.2-2.1-.6-4.3-6.5-13.2-10-15.2-.9-.6-2.1-.3-3.4.9-2.5 2.3-2.4 2.7 1.1 6.6 1.7 1.8 3 3.7 3 4.3 0 .6.5 1.6 1.2 2.3 1.3 1.3 3.9 8.4 3.3 9-.2.2-1.5-.4-3-1.4-2.6-1.7-2.8-1.7-4.1.1-1.8 2.5-1.8 3.7.4 5.6.9.9 2.9 3 4.5 4.7 1.5 1.8 3.1 3.2 3.7 3.2 1.5 0 2.9-3.5 2.4-5.7-.7-2.6 1.2-3.9 3.1-2.3 2.3 1.9 4.8 7.4 3.5 7.8-.5.2-1 1-1 1.8s-.7 1.4-1.6 1.4c-1.9 0-1.4 3.5 1.3 8.7 1.6 3 1.6 3.3-.2 5.3-1.5 1.7-1.6 2.4-.6 4.6 1.2 2.7.7 4.4-1.3 4.4-.6 0-3.3 1.3-5.8 2.9-3.3 2.1-4.9 4-5.8 6.7-.7 2.1-2.3 4.7-3.6 5.6-1.2 1-2.7 3.3-3.3 5.1-1.2 3.9-1.3 12.5 0 13.2.5.3.3 1.4-.3 2.5-1 1.6-.8 2.3 1.1 4.4 1.9 2.1 2.3 3.2 1.8 6.2-.4 2.1-.2 4.3.3 4.9.6.7 1.3 3.4 1.6 6.1.8 5.8 2.1 7.7 4.6 7.1 1.2-.4 2.4.3 3.5 2 1.7 2.5 1.6 2.6-1.9 5.7-6.1 5.2-9.5 7.6-11 7.6-.7 0-4 1.3-7.3 2.9-3.7 1.7-6.6 2.6-7.5 2.1-2.8-1.4-11.7 3.5-15.1 8.4-3.3 4.7-4.9 5.1-4.9 1.2 0-1.2-.4-2.6-1-3.2-2.5-2.5-2.9-101.5-.4-100.6.5.2.8 1.3.6 2.5-.4 3.5.6 5.1 2.2 3.7 1-.8 1.4-2.7 1.1-6.1-.4-5.9-1.2-7.2-3.6-6.6-1.5.4-1.9 0-1.9-2.3 0-2.5.5-3.1 3.8-3.9 2-.6 4.7-1.1 5.9-1.1 4.7 0 4-5.7-.9-6.7-2.4-.5-2.7-.8-1.4-1.5 2.1-1.2 2-5.5-.2-6.7-.9-.5-3-.7-4.5-.4-1.6.3-2.7.1-2.7-.6 0-.6 1.1-1.1 2.5-1.1 1.5 0 2.8-.7 3.2-1.6.9-2.4-1.1-5-3.6-4.6-2.2.3-2.9-2-1.2-4.6.6-1 1-.9 1.4.7.6 2.3 4.2 2.9 5 .8.2-.6 0-2.3-.4-3.6-.7-1.9-1.4-2.2-3.4-1.7-2.1.5-2.5.3-2.5-1.4 0-1.2.6-2 1.3-1.9 3.6.5 4.8-.2 4.5-2.4-.2-1.6-1.1-2.3-3-2.5-1.7-.2-2.8-.9-2.8-1.8 0-1.1.6-1.3 2-.9 1.6.5 2 .2 2-1.9 0-1.6-.6-2.6-1.5-2.6-1.1 0-1.5-1.2-1.6-4.8-.1-2.6-.2-6.1-.3-7.7-.1-1.7-.4-10.7-.6-20l-.4-17 3.2-.3c2.3-.2 3.2-.8 3.2-2.1 0-2.6-2.5-4.4-5-3.6-1.1.4-2 .2-2-.4 0-.6.6-1.1 1.3-1.1.6-.1 2.3-1 3.6-2.1 2.4-2 2.4-2.1.7-5-.9-1.6-1.4-3.5-1-4.1.4-.7 1-2.8 1.4-4.8.5-3 .9-3.5 3.7-3.8 3.7-.4 6.8-3.4 5.9-5.8-.4-1.2-1.4-1.5-3.4-1.1-1.5.2-3.5.2-4.5-.2-1.2-.5.2-1.1 4.5-2 3.5-.8 6.6-1.9 7-2.5.4-.6-.2-2.5-1.4-4.4-1.9-3.1-1.9-3.4-.3-5.2 2.7-3 .3-5.3-4.9-4.8-2.7.3-5.2-.2-7.4-1.4-1.8-1-4-1.8-4.8-1.8-1.4 0-1.5-.9-.9-5.5.4-3.9.2-6.4-.8-8.7-2.3-5.1-2.7-9.3-1.5-15.3.9-4.5.8-5.8-.5-7.8-1.4-2.2-1.4-2.4.4-3.5 1.3-.8 1.9-2.4 1.9-4.6 0-2.8.4-3.5 2.2-3.8 2.2-.3 3.7-3.9 4.1-9.8.2-2.2-.3-2.6-3.8-3.1-2.7-.4-3.2-.7-1.4-.8 4.7-.2 6.3-5.2 2.5-7.3-1.6-.9-1.6-1.2-.3-2.6.9-1 1.9-2.9 2.2-4.5.4-1.5 1.1-2.7 1.5-2.7 1.5 0 1.7 5.9.2 7.3-1.2 1.2-1 1.7 1.3 3.6 3.3 2.5 4.7 1.9 4.3-1.9-.1-1.5.3-3.4 1-4.2 2.4-3 2.6-7.4.2-9.8-2.3-2.3-2-3.5.8-3.5 2.1 0 2.8-3.1 1.2-5-.7-.8-2.4-1.5-3.9-1.5l-2.6-.1 2.5-1.4c1.4-.7 2.6-1.8 2.6-2.4.1-.6.2-1.3.3-1.6.1-.6 4 1.5 5.8 3.2zm80.1 3.3c1.5 0 1.5.6 0 4.6-.8 2.3-.9 4-.1 5.6.9 2.1.6 2.5-3.4 4.5-2.3 1.2-4.3 1.8-4.3 1.3 0-.6.9-3.7 2.1-7 1.4-4.1 1.8-7 1.4-9.3-.7-3.1-.7-3.2 1.2-1.5 1.1 1 2.5 1.8 3.1 1.8zm-95.8 8.4c0 .8-.7 1.6-1.5 2-1.7.6-1.8.4-.9-1.8.8-2 2.4-2.1 2.4-.2zm41 1.6c0 2.3.4 2.4 2.9 1 1.4-.7 2.4-.3 4.2 1.6l2.4 2.5-2.5 1.9c-2.1 1.6-2.2 2-1 3.5.9 1.1 2.2 1.4 4.2 1 1.5-.4 2.8-.3 2.8.2 0 1.7-5.9 6.6-7.3 6-.7-.3-3.2-4.2-5.5-8.7-3.3-6.4-4-8.6-3.1-9.6 1.6-2 2.9-1.7 2.9.6zm-15 3.6c0 .8-.4 1.2-1 .9-.5-.3-1-1.3-1-2.1s.5-1.2 1-.9c.6.3 1 1.3 1 2.1zm107.8 5.7c1.9 6.4 1.3 11.1-1.5 11.5-3.7.5-4.8-3-3.3-11 1.5-7.6 2.7-7.8 4.8-.5zm-77.8-3.2c0 1.8-.2 1.9-1.5.9-1.5-1.2-1.2-3 .6-3 .5 0 .9 1 .9 2.1zm45.4 7.5c-.5 6.4-.4 7.4 1.4 9.2l2 2-2.4 2.1c-2.8 2.5-6.4 3-4.5.7.9-1.1.9-1.6 0-2.2-.7-.4-1.8.1-2.5 1.1-1.2 1.7-1.4 1.7-2 .1-1-2.6.4-7.8 2.8-10.3 1.6-1.7 2.2-3.6 2.2-7.2.1-4.4.3-4.7 1.9-3.7 1.6 1 1.7 2 1.1 8.2zm63.3-5.5c-.6 4.6 1.1 9.5 4.2 12.3 1.4 1.3 3.1 1.7 6.1 1.4 2.2-.2 4-.3 4-.3s-.7 1.8-1.5 4-1.4 3.2-1.5 2.3c0-2.6-1.6-3-4.8-1.4-3 1.5-3.7 1.3-6.5-2-1.3-1.6-1.9-4.5-2.3-11.3-.5-8.2-.4-9.1 1.1-9.1s1.7.7 1.2 4.1zm-80.4 5c1.8.8 3 .8 4.7-.1 1.2-.6 2.4-.9 2.7-.6.3.3-.6 1.1-2.1 1.7-1.5.7-2.9 2.3-3.2 3.6-.4 1.5-1.4 2.3-2.8 2.3-3.6.1-6.3 3.4-8.1 9.7-.8 2.9-2 2.9-3.9.1-3.4-4.8-1.2-14.5 4.6-20.5l3.2-3.3 1.2 3c.7 1.7 2.4 3.5 3.7 4.1zM326 119c0 .6 1 2.1 2.3 3.3 2.3 2.4 4.7 6.9 4.7 9 0 .7-.5 1.9-1 2.7-.9 1.3-1.1 1.3-1.9 0-.5-.8-.7-2.6-.4-4.2.4-2.2-.2-3.4-3.6-6.8-2.2-2.2-4.1-4.3-4.1-4.5 0-.3.9-.5 2-.5s2 .5 2 1zm87.5 16c-2 2.2-1.9 3.9.3 4.7 3.5 1.3 12.8 9.6 14.6 13.1 2.2 4.3 3.4 14.6 1.7 15.6-.6.4-2.5-.4-4.2-1.8-3.7-3.1-4-3.1-7-.7-2.4 2-2.4 2-.6 5.1.9 1.8 1.7 3.6 1.7 4.2 0 .5 1.6 2.8 3.5 5.1 3.9 4.5 4.5 8.2 1.6 9.2-4.3 1.3-4.6 3.2-1.6 9.6 3 6.3 2.9 8.3-.8 10.1-.9.4-2.4 1.1-3.3 1.5-1.5.8-5.3 10.2-5.4 13.5-.1 4.9-5.1 1.7-7.4-4.8-1.3-3.7-1.2-4.6.5-9.4 1-3 1.9-6.6 1.9-8 0-3.1-5.2-8.5-7.4-7.7-4 1.6-4.1-6.4 0-14.8 3.2-6.8 3.8-10.6 2.1-13-1.3-1.7-1.8-1.8-4.1-.7-1.5.7-3.5 1.2-4.6 1.2-1 0-2.7 1.2-3.8 2.7l-2.1 2.8-1-2.8c-.6-1.6-1.1-3.5-1.1-4.2 0-3.1 3.5-10.2 7.2-14.8 4.5-5.4 4.7-8.2.5-8.2-1.5.1-2.7-.3-2.7-.7 0-.4.6-.8 1.4-.8.8 0 2.7-1.3 4.4-2.8 1.7-1.6 4.8-3.4 7-4 2.2-.7 4.5-1.9 5.2-2.7 1.1-1.4 1.5-1.4 3.2.1 1.6 1.5 1.7 1.9.3 3.4zm-68.5 5.1c0 1.7-.5 2.9-1.3 2.9-.7 0-1.8 1.3-2.4 2.9-.9 2.4-.8 3.2.6 4.5 1.2 1.3 1.3 1.9.4 2.4-.7.5-1.5 2.2-1.9 3.8-.4 2.4 0 3.8 2.2 6.5l2.8 3.4-3.5-3c-4.2-3.7-9.6-7.5-10.6-7.5-.4 0-2.1 1-3.6 2.3-2 1.6-2.7 3.1-2.7 5.2.3 10.1.9 13.4 3.1 17.5 3.3 6.2 4 9 2.8 11.2-1.3 2.4-3.9 2.3-3.9-.1 0-1.1-.5-2.3-1-2.6-.6-.4-.8-1.5-.5-2.6.4-1.2.1-2.1-.9-2.5-.9-.3-1.6-1.7-1.6-3 0-1.4-.7-4.1-1.5-6.1-1.4-3.4-1.4-4.2.1-9 1-3.1 1.5-6.9 1.1-9.2-.3-2.9-.2-3.8.7-3.5 1.6.6 3-1.2 4.3-5.1l1-3 .6 4.2c.6 3.3 1.3 4.5 3.9 5.7 4.1 2.1 4.6 2 6-.9.9-2.1.7-2.9-2.1-6-3.3-3.8-3.9-5.5-1.8-5.5.8 0 2.2-.9 3.2-2.1 1.6-1.7 1.7-2.5.8-4.9-.8-2.1-.8-3 .1-3.4 1.8-.7 5.6 4.3 5.6 7.5zm84.9-2.9c1.8 3.2.8 4.8-1.6 2.5-1-.8-3-2-4.6-2.6-4-1.5-3.4-3.3 1-2.9 2.8.2 4.1.9 5.2 3zm-46 9.5c1.2 3.9 1.1 4.5-1.5 9.2-1.5 2.8-3 5.1-3.4 5.1-1.5 0-2.6-17.2-1.4-20.4 1-2.6 4.9 1.1 6.3 6.1zm-62.3 3c-1 1-1.9-.5-1-1.8.6-1.1.8-1.1 1.2 0 .2.7.1 1.5-.2 1.8zm17.7 22c.9.3 1.7 1 1.7 1.7 0 .6.9 2.2 2 3.6 2.3 2.9 2.9 10 .7 8.2-.7-.6-2.2-.9-3.3-.6-1.6.4-2.4-.4-4.1-4.3-1.2-2.6-2.4-6.6-2.8-8.7l-.7-3.9 2.4 1.7c1.3.9 3.1 1.9 4.1 2.3zm3.2 22.6c3.8 5.4 4 5.7 2.2 5.7-.8 0-2 .7-2.7 1.5-1.8 2.2-2.6 1.9-4.9-2.1-2.4-4-2.6-6.5-.9-8.2 1.9-1.9 3.1-1.4 6.3 3.1zm-20.6 2.4c1.2 4.1 1 4.6-1.1 3.8-2-.8-4.2-5-3.4-6.4 1.4-2.2 3.5-1 4.5 2.6zm-31.9 4.2c0 1.2-2 2.5-2.7 1.8-.7-.7.6-2.7 1.8-2.7.5 0 .9.4.9.9zm9.4 3.7c.4 1.1.1 1.4-1.1 1.2-.9-.2-1.8-.9-2.1-1.6-.6-1.8 2.5-1.5 3.2.4zm39.3 3.6c1-.5 2.9-.6 4.3-.2 2.1.5 2.6 1.4 3.3 5.9.5 2.9.6 5.5.3 5.8-1.3 1.3-5.7-1.8-8.3-5.9-1.5-2.4-3.6-5.4-4.7-6.8l-2.1-2.5 2.7 2.3c2 1.8 3.1 2.1 4.5 1.4zm-8.7 7.6c0 1 .5 2.3 1.2 3 .6.6.9 1.4.6 1.8-.4.3-1.4-.8-2.2-2.5-1.9-3.5-1.9-4.1-.6-4.1.6 0 1 .8 1 1.8zm5 8.2c1 .5 2.7 2.6 3.9 4.6 1.9 3.1 2.6 3.6 5.1 3.2 2.4-.4 2.7-.2 1.8.9-.8 1-.8 1.7 0 2.5.7.7 1.2 2.3 1.2 3.6 0 2.1-.2 2.2-1.5 1.2-.8-.7-2.2-1-3-.6-1.1.4-1.9-.3-2.5-1.9-.5-1.4-1.4-2.5-2-2.5-.6 0-.8-.5-.4-1.2.4-.6 0-1.6-.8-2.2-1.4-1-4.8-6.8-4.8-8.1 0-.8.9-.6 3 .5zm-6.7 11.2c.4 1.6 1.2 2.8 1.7 2.8.6 0 1 .6 1 1.4 0 .7.7 1.9 1.6 2.6 2 1.8 4.6 8 3.9 9.8-1 2.7 1.4 5.1 6 5.8 2.5.3 4.5 1 4.5 1.5s-.5.9-1.2.9c-.6 0-1.9.7-2.9 1.6-1.6 1.5-1.6 1.8.7 6.9 2.3 5 4.9 16.4 3.9 17.3-.7.8-2.5-.9-2.5-2.4 0-.9-1.6-5.2-3.5-9.5-1.9-4.4-3.5-9-3.5-10.3 0-4.2-2.2-8.7-4.6-9.6-1.3-.5-2.4-1.6-2.4-2.4 0-.8-1.3-3.8-2.8-6.8-1.9-3.5-3.1-7.6-3.5-11.7l-.5-6.4 1.7 2.9c1 1.6 2.1 4.1 2.4 5.6zm10.5 49.3c-.3.3-.9-.2-1.2-1.2-.6-1.4-.5-1.5.5-.6.7.7 1 1.5.7 1.8zM292 337.9c0 .5-.7 1.2-1.6 1.5-2.2.9-2.4.8-2.4-.9 0-.8.9-1.5 2-1.5s2 .4 2 .9zm50 103.5c0 .3-.4.8-1 1.1-.5.3-1 .1-1-.4 0-.6.5-1.1 1-1.1.6 0 1 .2 1 .4zm55 10.5c1.2 2.4 1.3 4.1.1 4.1-.5 0-1.4-1.4-2-3-1.1-3.3.2-4.1 1.9-1.1zm-81.7 8.2c.4 1.6 1.1 1.9 2.7 1.4 2-.6 2.1-.4 1.5 2.9-.6 2.8-.4 3.7.9 4.2.9.3 1.6 1.6 1.6 2.8 0 1.2 1.9 4.5 4.3 7.2 2.3 2.8 5.8 7.1 7.7 9.6 1.9 2.5 5.8 6.1 8.7 7.9 3.3 2.2 5.2 4.1 5.3 5.4 0 1.1.4 2.5.8 3.1 1.2 1.8 5.3 3.6 6.8 3 1.2-.4 1.4.4 1.4 4.2-.1 2.6.1 6.3.4 8.2.2 1.9-.2 6-1.1 9-.8 3-1.6 5.9-1.8 6.5-.3 1-7.1 1.2-8.1.2-.3-.3.4-1.1 1.6-1.7 1.4-.8 2-1.9 1.8-3.5-.2-1.5.6-3 2.1-4.2 4-3.3 1.9-4.3-8.9-4.3-8.9 0-10 .2-11.4 2.1-2 2.9-1 4.7 3 5.5 3.2.6 3.2.7 1.9 2.8-.9 1.3-1.2 2.6-.9 2.9.8.7-.1 1.1-6.3 2.7-3.6.9-4.3 1.5-4.3 3.5 0 3.1-1.6 4.1-2.9 1.8-.7-1.4-.3-2.5 1.4-4.6 2-2.6 2.1-3.2.9-6.5-.7-2-1.3-4.9-1.4-6.4 0-1.9-1-3.5-3.1-5-1.7-1.3-4.2-4.2-5.6-6.6-1.4-2.4-3.4-4.4-4.6-4.6-14-2.7-19.7-4.5-14.1-4.6 1.8 0 4.2-.8 5.5-1.9l2.3-1.8-5-2.3-4.9-2.4 5-.5c9.1-1.1 9.8-3 2.2-6.6-6-2.8-7.8-3-9.5-1.3-1.7 1.7-1.5 3.8.6 6.1 1.7 2 1.7 2-1.1.2-1.5-1-2.6-2.1-2.5-2.4.2-.4 1.2-2.9 2.2-5.7 1.8-5 2-5.1 4.7-4.1 2.7 1.1 5.9-.2 5.9-2.4 0-1.6-3.1-3.8-4.5-3.3-2.4 1-1.7-1.4 2.1-7.6 5.3-8.7 7.5-10.3 14.5-10.9.9 0 1.9.8 2.2 2zm103.6 5.9c1 0 2.4-.7 3.1-1.5 1.8-2.2 2.6-1.9 9 2.7 3.5 2.6 6.7 6 8 8.6 1.3 2.3 3.8 5.6 5.7 7.2 3.8 3.4 4 4 1.4 4-1.1 0-5.4 3.5-9.8 7.8-7.3 7.4-8 7.8-11.4 7.4-8-.9-15.9 6.1-20.9 18.3-5 12.5-5 12.5-12.3 12.5-3.4.1-10.5.7-15.8 1.4-8.4 1.1-10.2 1.7-13.8 4.6l-4.2 3.2.7-5.3c.7-5.7 1.4-7.7 1.4-4.1 0 1.3.6 2.2 1.5 2.2 1 0 1.5-1 1.5-2.9 0-4.5 2.8-10.5 4.3-9.2 1.8 1.4 6.2-1 6.2-3.4 0-2.8-3.9-3.2-5.8-.5-1.4 2-1.5 1.8-2-3.2-.5-5.4.4-7.8 2.9-7.8 1.1 0 1.2.4.3 1.9-1.3 1.9-.6 5.1 1 5.1.5 0 2.2-1 3.7-2.3 2.5-2.1 2.5-2.4 1-4-1.5-1.5-1.4-1.8 1.4-3.8 3.1-2.4 3.8-4.7 1.9-6.6-.8-.8.3-2.1 3.8-4.8 5.2-4 6.8-6 5.8-7.5-1.1-1.8-3.4-1-7.2 2.6-2.1 1.9-4.7 4-5.8 4.5-2 1 .5-1.4 12.8-12.5 6-5.5 12.1-12.5 15.4-18.1 1.7-2.8 1.6-1.1-.3 3.3-.8 2-2.7 4.7-4.2 5.9-2 1.6-2.4 2.4-1.6 3.3 1.7 1.7 5.5-1.1 8.3-6.1 2.1-3.7 2.4-3.9 4-2.5s1.9 1.4 3.8-.4c1.2-1.1 2.5-3 3-4.2.7-2.1.8-2 1.1.9.2 2.4.8 3.3 2.1 3.3zm-56.9 9c0 .5-.2 1-.4 1-.3 0-.8-.5-1.1-1-.3-.6-.1-1 .4-1 .6 0 1.1.4 1.1 1zm-9 2.2c0 1.8-.2 2-.9.8-.6-.8-.7-1.8-.5-2.2.9-1.4 1.4-.9 1.4 1.4zm-10.4 13.5c4.5 4.2 4.5 4.3.8 1.5-2.2-1.7-4.7-3.8-5.4-4.7-2.4-2.9-.3-1.5 4.6 3.2zm24.9 7.9c-1.3 2-1.4 2.8-.4 4 .6.8.7 1.4.2 1.4-.5 0-1.6-1.2-2.4-2.6-1.2-2.3-1.2-2.7.6-4 3-2.2 3.9-1.7 2 1.2zm-6.1 6c.9 2.3.7 3.6-.3 3-1.2-.8-2.1-4.6-1.1-4.6.4 0 1.1.7 1.4 1.6zm1.6 14.8c0 1.2-.4 2.7-.9 3.5-.7 1-.9.8-.8-1 .1-1.3-.2-3.8-.6-5.4-.7-2.8-.6-2.9.8-1.1.8 1.1 1.5 2.9 1.5 4zm29.9 20c.8.6 3.7 1 6.5.9 4.6-.2 4.8-.1 2 .7-4.3 1.4-5.9 3.4-3.9 5 1.2 1 2.1 1 4.1.1 1.4-.6 3.4-1.1 4.6-1.1 1.7 0 1.9.2.7 1.6-.7.8-2.1 1.3-3.1 1.1-1.8-.5-9.1 1.3-10.4 2.6-1.2 1.2-4.4.8-7.5-1-2.4-1.5-3.5-1.5-7.6-.5-6.7 1.7-10.4 1-11.5-1.9-1.5-4-.6-6.3 2.5-6.6 1.6-.1 3.4-.6 4-1.2 2.7-2.1 16.8-1.9 19.6.3zM295 541c0 .5-.5 1-1.1 1-.5 0-.7-.5-.4-1 .3-.6.8-1 1.1-1 .2 0 .4.4.4 1zm56.5 36.2c1.1.2 1.9.9 1.8 1.6-.2.6 1.3 3.7 3.2 6.7 3.2 5 3.4 5.5 1.6 5.5-3.5 0-4.4 3.3-3 11.1.7 3.9 1.7 7.3 2.2 7.6.6.3 1.9-.5 3-1.8 1.4-1.8 1.7-3.3 1.3-6.1-.5-3.1-.3-3.6.9-3.2.8.4 1.5.1 1.5-.6s1.5-.1 3.4 1.4c1.9 1.4 4.7 3.1 6.2 3.6 2.1.8 2.4 1.4 1.6 2.2-1.7 1.7-1.5 2.6.6 3.2 1 .4 2.6 2.2 3.5 4.1 2.1 4.4 2.1 4.5-.2 4.5-2.4 0-7.3 3.9-6.5 5.1.7 1.1 6.3.2 7.9-1.2 1.3-1.3 2.5-1.1 2.5.5 0 1.5-3 2.6-7.1 2.6-3.6 0-7.9 3.6-7.9 6.5 0 1.3-.4 2.7-1 3-1.7 1 2.7 8.5 5 8.5 1.3 0 2 .7 2 1.9 0 2-3.2 3.9-3.8 2.2-.2-.6-1.9-1.8-3.8-2.7-1.9-.9-3.4-2.1-3.4-2.6s.5-.6 1-.3c.6.4 1.7.4 2.5.1 1.1-.4.6-1.4-2-4.3l-3.4-3.8-3.6 3.9c-3.6 4-4.4 7.3-2.3 9.4.7.7-.1.6-1.9-.3-4.2-2.1-4.5-2.6-2.8-5.9 1.7-3.2.9-5.3-2.9-8.3-1.3-1-3-3.2-3.9-4.8-2-3.7-12.1-14.5-13.6-14.5-1.9 0-1.2 2.8.9 3.5 1.1.3 2 1.1 2 1.6 0 1.1-3.5-.5-4.5-2.1-.9-1.4-2.5-1.2-2.5.3 0 .7.9 1.8 2 2.5 2.1 1.3 2.7 3.2 1 3.2-.5 0-2.5-1.4-4.5-3.1-2.8-2.5-3.8-2.9-5-1.9-1.6 1.3-1 3.6 1.9 6.9l2.1 2.4-2.3-1.2c-6.8-3.6-21.4-14.6-20.5-15.5.7-.7-.9-1.2-5.9-2.1-2.9-.4-3.8-.2-4.2 1.2-.7 2.1-7.6 4.6-9 3.3-.5-.5-1.4-.6-2.1-.4-.7.3-2.9-.6-4.8-1.9-2.5-1.7-4.5-2.3-6.3-1.9-3.5.6-2.5-1.2 1.8-3.4 3.3-1.7 18.1-3 22.3-2 1.3.3 3.7 1.7 5.3 3.1 2.7 2.2 3 2.3 5.1.8 1.5-1 2.1-2.2 1.8-3.4-.6-2.3-.3-2.3 2.8-.3 2.7 1.8 6.5.5 6.5-2.2 0-1.4.6-1.3 3.6.5 4.3 2.6 5 2.6 10.2.1 4.3-2.1 5.1-3.7 3-5.9-1.1-1-.8-1.6 1.1-3.2 1.3-1 3.1-1.9 4-1.9 2.1-.1 5.1-2.4 5.1-3.9 0-.6 1.2-3.4 2.6-6.2 2.3-4.6 2.7-5 4.2-3.6.9.8 2.6 1.7 3.7 1.9zm10.9 17.3c.3.8.1 1.5-.4 1.5-.6 0-1-.7-1-1.5s.2-1.5.4-1.5.6.7 1 1.5zm-149.8 5c.2 1.9-.8 3.2-3.7 5.3-2.4 1.7-3.9 3.5-3.9 4.9 0 2.2-1.6 4-2.2 2.4-.2-.5-1.3-.5-2.5 0-1.7.6-2.3 1.7-2.4 4.1 0 3.1-.1 3.2-1 .9-.7-1.8-.6-2.8.6-4.1 1.7-1.9 2-4 .5-4-1.7 0-1.1-3.6.9-5.4 1.1-1 4.6-2.8 7.8-4.2 3.2-1.3 5.8-2.4 5.8-2.4s.1 1.1.1 2.5zm187.2 6.4c1.8.1 2.2.5 1.7 2-.8 2.5 2.2 4.3 4.8 3 1-.6 2.3-.8 3-.6.7.3-.1.8-1.6 1.2-3.2.9-3.1 2.5.4 4.2 1.3.7 3.4 2.4 4.6 3.9l2.1 2.7 2.6-2.8c1.4-1.5 2.7-2.4 2.7-1.9.1.5.3 1.6.4 2.4.7 5.1 3.8 8 8.5 8 1 0 2.2.4 2.5 1 .3.5-.3 1-1.4 1-1.1 0-2.3.5-2.7 1.1-.6 1.1-3.2.9-6.9-.7-1.7-.7-1.8-.6-.8.8 1.1 1.2.9 1.7-1.3 2.7-2.6 1.1-2.6 1.1-2.2-1.9.6-3.7-1.4-5.9-3.7-4-1.9 1.6-3.2.5-1.6-1.3 1.6-2 .3-5-2-4.4-1.4.4-1.9 0-1.9-1.3 0-2.9-4.6-7.3-7-6.7-1.5.4-2 0-2-1.3 0-3-1.7-3.2-6.5-1.1-4.3 1.9-4.5 1.9-5.5.2-.6-1.3-.5-2.7.3-4.4 1.1-2.4 1.6-2.6 6.2-2.3 2.8.2 6 .4 7.3.5zm-139.5 4.6c-.3.9-.8 1.4-1 1.1-.3-.3-.2-.9.2-1.5.9-1.6 1.5-1.3.8.4zm29.3 4.2c-1 1-1.9-.5-1-1.8.6-1.1.8-1.1 1.2 0 .2.7.1 1.5-.2 1.8zm126.1-.1c-.3.3-1.2.4-1.9.1-.8-.3-.5-.6.6-.6 1.1-.1 1.7.2 1.3.5zm-141 3.4c-.1.4.3.8.8.8.6 0 .9-.4.8-.9-.5-1.4 1.3-1 2.7.6 1.7 2.1.8 2.7-3.9 2.9-4.8.1-5.6-.6-4.2-3.3 1.1-1.9 4.3-2 3.8-.1zm118.3-.6c0 .3-.4.8-1 1.1-.5.3-1 .1-1-.4 0-.6.5-1.1 1-1.1.6 0 1 .2 1 .4zM250 620c0 .5-.4 1-.9 1-.6 0-1.3-.5-1.6-1-.3-.6.1-1 .9-1 .9 0 1.6.4 1.6 1zm179.5 1.1c1 1.5.4 1.8-2.7 1.2-1.5-.3-2.5-.9-2.2-1.4.7-1.2 4.1-1.1 4.9.2zM144 625.6c0 3.6 1.7 6.4 3.9 6.4 1 0 2.9.8 4.2 1.9 2 1.6 2.1 2.1 1 3.5-1.9 2.2-5.4 2-7.7-.5-1.9-2.1-4.6-11.7-3.8-13.1 1.1-1.7 2.4-.7 2.4 1.8zm111.9 1.1c-.6 3.6 2.5 5.8 13.4 9.5 3.5 1.2 3.8 1.5 3.3 4.3-.8 4-.1 4.8 7.4 8.6 6.1 3.1 7.4 3.3 20 4 19.9 1 23.3 2.4 40.2 16.3 11.3 9.3 17.5 16 17 18.5-.2 1.2-.1 1.3.6.3.6-.9 1.3-.6 2.9 1.2 1.2 1.3 5.1 3.8 8.7 5.6 3.6 1.8 6.6 3.7 6.6 4.1 0 .5.3.8.8.7.4-.1 2.5.4 4.7 1.1l4 1.3-.5 7.1c-.5 6.5-.3 7.7 2.2 12.4 3.2 6 3.3 6.3 1.6 6.3-1.3 0-5.8-6.2-5.8-7.9 0-.5-.7-1.4-1.5-2.1-.9-.7-1.3-2-1-2.7.3-.8-.3-2.2-1.2-3.1-1.6-1.6-1.6-1.6-1.1.5.4 1.5.2 2-.7 1.6-.8-.2-1.6-1.1-1.9-1.8-.2-.7-1.8-1.6-3.5-2-1.7-.4-3.1-1-3.1-1.4 0-.4-.9-.7-2.1-.8-1.2-.1-4.9-1.1-8.2-2.3-3.4-1.1-11.8-3.6-18.7-5.6-6.9-1.9-12.9-4-13.5-4.5-.5-.5-1.9-.9-3.1-.9-1.3 0-2.5-.4-2.8-.9-.5-.7-3.4-1.6-9.6-2.7-.8-.1-4-1-7-1.9-3-.9-6.8-1.8-8.5-2.1-1.6-.2-3.5-1-4-1.7-1.6-1.9-5.5-3.9-5.5-2.7 0 1.5-5.5-1.5-7.7-4.2-1.2-1.5-3-2.3-5.3-2.4-4-.2-11.3-2-14.9-3.7-3.7-1.8-8.1-6-8.1-7.7-.1-2-2.1-4.5-4.3-5.3-2.6-1-3.1-3.4-1.4-6.1 1.5-2.3 1.5-2.4-.8-3-1.3-.3-3-.4-3.7-.1-2.4.9-1.9-3.6 1-8.3 3.4-5.5 8.7-11.2 10.5-11.2.8 0 1.9-1.1 2.5-2.5 1.1-2.3 2.3-3.4 2.1-1.8zm-14.9 3.4c0 .3-.9 1.4-2 2.4-2.9 2.6-4.9.6-3-2.9 1.1-2.1 1.5-2.3 3.1-1.3 1.1.7 1.9 1.5 1.9 1.8zm204.5-.6c0 2.2-.2 2.2-2.9 1.1-4.2-1.7-4.4-3.4-.4-3.4 2.8 0 3.3.4 3.3 2.3zm-346 .5c.3.5.1 1-.4 1-.6 0-1.1-.5-1.1-1 0-.6.2-1 .4-1 .3 0 .8.4 1.1 1zm6 1.1c0 .8.8 1.4 1.7 1.4 2.9 0 3.9 1.8 2.6 4.6-1.4 3.1-6.4 3.5-7.2.6-.2-1 .1-1.7.9-1.7 1.9 0 2.6-2.7.9-4-1.7-1.5-1.9-3.3-.1-2.8.6.3 1.2 1.1 1.2 1.9zM390 633c.9 1.8.8 2-1.5 2s-2.4-.2-1.5-2c.6-1.1 1.3-2 1.5-2 .2 0 .9.9 1.5 2zm-290 1.4c0 .3-.4.8-1 1.1-.5.3-1 .1-1-.4 0-.6.5-1.1 1-1.1.6 0 1 .2 1 .4zm284 0c0 .2-.7.7-1.6 1-.8.3-1.2.2-.9-.4.6-1 2.5-1.4 2.5-.6zm64.2 1.5c.4.3-2.9.6-7.3.6-7.3.1-8.8-.3-7.4-1.7.8-.7 13.8.2 14.7 1.1zm-36.2 0c0 .6-.4 1.3-1 1.6-.5.3-1-.1-1-.9 0-.9.5-1.6 1-1.6.6 0 1 .4 1 .9zm51 2.1c4.2 4.2.8 8-3.5 4-2-1.9-2.2-2.5-1.2-4.1 1.5-2.4 2.2-2.4 4.7.1zm-365 2.2c0 2.6-1.3 1.6-1.7-1.3-.2-1.2.1-1.8.7-1.4.5.3 1 1.6 1 2.7zm70.5-1.4c0 1.8-2 1.5-2.3-.4-.3-1 .1-1.5 1-1.2.7.3 1.3 1 1.3 1.6zm-32.7.9c.5 1.6-2.2 2.7-4.4 1.9-1.3-.5-1.4-.9-.4-2.2 1.5-1.7 4.1-1.5 4.8.3zm284.2 1.2c0 1.1-.4 2.3-1 2.6-.5.3-1 1.6-1 2.8 0 2.4-1.4 1.3-2.4-1.9-.4-1.4-.1-2.8.9-3.8 2.2-2.1 3.5-2 3.5.3zM284.2 643c3.1 3.1 3 3.7-.2 2-1.9-1-4.6-5-3.5-5 .4 0 2 1.3 3.7 3zm118.8-1.1c0 1.4-11.9 6.8-16.5 7.5-3.3.6-2.6.1 3.9-2.8 4.4-2 8.4-4 9-4.6 1.2-1.2 3.6-1.3 3.6-.1zm42.9.2c8.6 1.5 12.4 4.3 15 11.4 2.9 7.8 2.9 21.9.1 27.6-3 5.8-8.9 8.3-20 8.5-4.7 0-11.9.5-16 1-4.1.4-8.7.7-10.2.6-1.5-.2-3.5.1-4.5.6-1.3.8-2.4.5-4.2-.9-3.2-2.6-8.5-2.4-14.9.6-6.4 2.9-6.6 3-5.8.9.5-1.2.2-1.5-1-1-2.1.8-5.6-.2-4.9-1.5.3-.5-.1-.6-.9-.3-2.1.8-15.4-8.1-16.6-11.1-.5-1.4-1.6-2.5-2.4-2.5-.7 0-1.6-.8-1.9-1.9-.2-1-3.3-3.5-6.8-5.6-5.6-3.2-5.9-3.6-2.9-3 6.9 1.4 14.1.5 22.5-3 10.8-4.5 20.9-6.5 32.8-6.5 10.8 0 15.2 1.3 18.4 5.4 2.4 3 3.8 3.2 6 1 2-2 .5-5.6-3.4-8-1.5-1-3-1.9-3.2-2.1-.8-.6 6.4-6.2 8-6.3.9 0 2.3-.7 3-1.6 1.3-1.6 4.4-3.2 6.3-3.3.5-.1 3.9.4 7.5 1zM139 644.7c0 .5-.4 1.5-1 2.3-1.1 1.8-2.5.7-1.7-1.5.6-1.5 2.7-2.1 2.7-.8zm168 .8c1.6 1.9 0 1.9-2.6 0-1.6-1.2-1.6-1.4-.3-1.5.9 0 2.2.7 2.9 1.5zm-184.6 6.7c-1.2 1.9-2.4.5-2.4-2.5l.1-3.2 1.3 2.5c.8 1.4 1.2 2.8 1 3.2zm-11.4-2c0 1.9-.2 2-1.7.6-1-.9-2.5-1.8-3.3-2.1-.8-.3 0-.6 1.8-.6 2.6-.1 3.2.3 3.2 2.1zm231.5-1.2c.3.5.1 1-.4 1-.6 0-1.1-.5-1.1-1 0-.6.2-1 .4-1 .3 0 .8.4 1.1 1zm31.1 3.9c-1.6 1.1-3.5 1.7-4.2 1.4-2.1-.8-1.7-1.1 1.9-2.2 4.9-1.4 5.5-1.3 2.3.8zM105.1 654c1 .6 1.9 2 1.9 3 0 2.2-2 2.6-3.7.9-.8-.8-2-.5-4.2 1.2-3.4 2.5-3.5 3.9-.3 5.5 1.9 1 1.7 1.2-3.4 3.7-6.3 3.1-6.4 3.1-6.4 1.3 0-.8 1-1.8 2.3-2.2 3.1-.9 3.7-2.2 3.7-7.6 0-3.4.5-5 1.8-5.7 2.2-1.3 5.8-1.4 8.3-.1zm33.9 0c0 .5-.7 1-1.5 1s-1.5-.5-1.5-1c0-.6.7-1 1.5-1s1.5.4 1.5 1zm-12 5c-2 1.3-3.3 1.3-2.5 0 .3-.6 1.4-1 2.3-1 1.5 0 1.5.2.2 1zm155.7 42.2c4.1-.2 6.4 1.1 4.6 2.9-.5.5-5.4 1.4-11 2-10.2 1.2-10.2 1.2-13.1-1.3l-3-2.5 2.7-1.1c1.5-.6 5.2-.8 9.1-.4 3.6.4 8.4.5 10.7.4zm-29.4 11.6c2.3 2.1 15.3 2.5 22.2.7 2.7-.8 5.4-1 5.9-.5 1.7 1.7-4 3.2-14.1 3.8-8.8.4-10.3.7-10.1 2.1.4 2 7 2.6 15 1.3 6.3-1 8.2-.4 7.2 2.1-.7 1.8-4 2.6-12.9 3-4.6.1-6 .6-6 1.7 0 1.2 1.6 1.5 8.2 1.5 8.7 0 10.3.6 8.3 3-.8 1-2.9 1.4-6.9 1.3-6.1-.2-8.1.5-8.1 2.7 0 1.7 4.3 2.7 8.6 1.9 3.3-.6 3.5-.5 3.2 1.7-.3 2-1 2.5-5 2.9-5.4.7-8.2 2.5-5.4 3.6.9.4 3.2.4 5.1.1 2.1-.4 3.5-.1 3.8.7.3.6-.7 4.8-2.2 9.3-2.2 7-3 8.4-5.8 9.7-3.1 1.5-3.2 1.6-2.6 6.8.6 5.7-.9 8.5-3.6 6.9-1-.7-1.1-1.3-.1-3.1.7-1.2 1-3.4.7-4.8-.3-1.4-.1-3.7.4-5.1 1.2-3-.1-4.1-5.4-4.1-3.1 0-4-.5-5.7-3.3-1.1-1.7-2-3.8-2-4.4 0-1.2-4.7-12.5-10.2-24.3-2.5-5.5-2.5-5.4.4-6.1 2.3-.6 2.3-.6-.5-1.8-3.4-1.3-2.8-3 .8-2.3 1.4.2 2.5 0 2.5-.6s-1.8-1.3-4-1.7c-4.5-.8-5.4-2.5-1.3-2.5 2.9 0 2.1-1.6-1.1-2.2-1.1-.1-2.1-.9-2.4-1.7-.7-2 20.6-.5 23.1 1.7zm-.8 60.2c.4 5.3.9 6.8 2.7 8.2 6 4.5 6 4.4 5.4 13.1-.8 11.2-2.5 50-2.6 57.4 0 2.4-2.7 3.2-4.6 1.3-.9-.9-10.2-4-17.2-5.7-1.2-.3-2.9 0-3.7.7-2.5 2.1.8 4.7 8.9 7.1 3.9 1.2 8.3 2.7 9.7 3.5 2.2 1.1 2.9 1.1 4.7-.2 2-1.4 2.2-1.3 2.8 1 .9 3.6-.3 4.8-3.9 4.1-4.4-.9-26-7.7-26.9-8.4-.7-.6 3.5-9.5 10.1-21.3 3.5-6.3 7-17.5 9.6-31.3 1-4.9 2.4-10.7 3.1-12.9 2.5-6.9 1.9-9.4-3.2-14.2-4.9-4.6-5.2-6.7-1.3-7.2 1.3-.2 2.8-.8 3.4-1.3 1.9-1.8 2.6-.3 3 6.1zm20.3-3.8c1.5 2.6 1.5 2.8-.8 5.3-2.8 3-4 3.2-3.3.5.3-1.1.1-3.3-.5-4.9-1.7-5 1.7-5.7 4.6-.9zM269 795c0 .5-.5 1-1.1 1-.5 0-.7-.5-.4-1 .3-.6.8-1 1.1-1 .2 0 .4.4.4 1zm0 7c0 .5-.5 1-1.1 1-.5 0-.7-.5-.4-1 .3-.6.8-1 1.1-1 .2 0 .4.4.4 1zm3.8 8.2c.3 2.2-.1 2.8-1.7 2.8-1.1 0-2.3.4-2.6 1-1.3 2-2.5.9-2.5-2.3 0-4.1.2-4.3 3.7-4.2 2.3 0 2.9.5 3.1 2.7zm2.2 8.8c0 .5-1.2 1.2-2.7 1.6-1.6.3-3.4.8-4.1 1-2.2.7-3.4-.6-2.1-2.2 1.3-1.6 8.9-1.9 8.9-.4zm2.9 8.2c1 2.8-.2 3.8-4.7 3.8-1.8 0-4.2.5-5.3 1-1.5.9-2.1.7-2.6-.6-1.3-3.5 1.5-5.3 10.5-6.3.7 0 1.6.9 2.1 2.1zm2.9 11.1c.3 2.3-.2 2.7-4 3.7-5.6 1.5-6.1 1.9-4.8 3.5.7.9 2.2 1 5.3.5 4.3-.8 5.7-.6 5.7 1.1 0 .5-1.5.9-3.2.9-3.8 0-9.6 3.4-7.8 4.5 2 1.2 12.9-.6 14-2.3.8-1.5 1.1-1.5 2-.2 2 3.1-.8 4.7-8.7 4.9-5.3.1-9.3 1.6-9.3 3.5 0 2.5 1.8 2.8 9.1 1.6 5-.9 7.4-.9 8.2-.1.7.7.3 1.3-1.4 1.9-3.2 1.2-18.7 3.4-19.7 2.8-.4-.2-.9-4.8-1-10.1l-.2-9.6 3-1c1.6-.6 3-1.7 3-2.5 0-1.7-2.2-1.8-3.8-.2-.9.9-1.3.7-1.8-.5-1.1-2.9.4-5 3.1-4.5 1.3.3 4.1.2 6.2-.2 5.1-1 5.7-.8 6.1 2.3zM293 859c0 .5-.5 1-1.1 1-.5 0-.7-.5-.4-1 .3-.6.8-1 1.1-1 .2 0 .4.4.4 1z"/><path d="M288.6 159.5c-3.8 3.9.1 10.5 6.3 10.5 2.5 0 3.2-.4 2.7-1.5-.4-1.2 0-1.4 1.9-.9 1.9.5 2.5.2 2.5-1 0-.9-.8-1.6-2-1.6-1.1 0-3.8-1.6-5.9-3.5-3.6-3.3-4-3.4-5.5-2zM288.8 173.6c-1.1 2.4-.9 2.9 3 6.6 3.7 3.5 4.7 3.9 8.4 3.6 3.4-.2 4.5-.8 5.8-3 1.3-2.5 1.3-2.9-.2-4.4-1.4-1.4-2.1-1.5-4.6-.5-3.5 1.5-7.7-.1-8.5-3-.7-2.7-2.5-2.3-3.9.7zM289.5 186c-.8 1.3 2.2 5 4.2 5 .7 0 2.2.5 3.3 1.2 2.7 1.7 7.4-.1 7.8-3 .4-2.6-.2-2.8-8.5-3.7-4-.4-6.4-.2-6.8.5zM297.9 225.1c-.9 1.7-.8 2.3.2 3 1.9 1.2 2.5 1.1 3.9-.6 1.5-1.8.6-4.5-1.4-4.5-.9 0-2 1-2.7 2.1zM292.2 254.7c.3 3.1 3 4.2 5.4 2.2 1.3-1 1.2-1.4-.2-3-1-1.1-2.6-1.9-3.6-1.9-1.5 0-1.9.6-1.6 2.7zM293.7 271.7c-.3.4-.8 2.6-1.1 4.9-.6 3.1-.3 4.4.8 5.4 2.2 1.8 5.2-.5 3.5-2.7-.9-1.1-.8-1.7.7-2.8 1.5-1.1 1.7-1.7.8-3.2-1.2-2-3.9-2.9-4.7-1.6zM294.2 289.1c.1 1.2.9 2.4 1.6 2.7.9.3 1.3-.3 1-1.9-.1-1.2-.9-2.4-1.6-2.7-.9-.3-1.3.3-1 1.9zM335 294.5c-1.5 1.8-.6 4.5 1.4 4.5 1.8 0 3.5-2.9 2.9-4.8-.6-1.6-2.8-1.5-4.3.3zM331.8 343.6c-1.1 2.4-.9 2.9 1.7 5.1l2.9 2.5 1.8-2.2c1.8-2.3 1.8-2.4-.9-5.2-3.3-3.5-4-3.5-5.5-.2zM333.1 354.2c-.5 1.3-.7 2.5-.5 2.7.7.7 3.4-2.1 3.4-3.5 0-2.2-2-1.6-2.9.8zM292.7 370.6c-1.1 1.1-.8 4.4.3 4.4 1.5 0 2.4-3 1.3-4.1-.5-.5-1.2-.6-1.6-.3zM324.5 410.9c-.6 1.1.9 2.3 1.9 1.4.9-.9.7-2.3-.3-2.3-.6 0-1.2.4-1.6.9zM345.3 513.1c-2.5.9-4 4.6-2.5 6.1 1.4 1.4 7.6.2 9.2-1.7 2.4-2.9-2.4-6-6.7-4.4zM368 527c-2.3 2.3-2.6 4.6-.7 5.2.6.3 3.2.3 5.7 0 5.4-.4 9.6-3.2 8.7-5.6-1-2.5-11.1-2.2-13.7.4zM370 605.1c0 .5.5.7 1 .4.6-.3 1-.8 1-1.1 0-.2-.4-.4-1-.4-.5 0-1 .5-1 1.1zM353.5 620.6c-1.4 1.5-2.5 3.3-2.5 4 0 .8-.4 1.4-1 1.4-1.4 0 3.9 7.4 5.8 8.1 3 1.1 4.6-1.9 4.4-8.3-.1-3.3-.4-6.4-.7-6.9-1.1-1.7-3.6-.9-6 1.7zM362.2 631.7c.5 2.5 2.8 2.8 2.8.4 0-1.2-.6-2.1-1.6-2.1-.9 0-1.4.7-1.2 1.7zM249 656.1c0 .5.5.7 1 .4.6-.3 1-.8 1-1.1 0-.2-.4-.4-1-.4-.5 0-1 .5-1 1.1zM255 664c0 .5.5 1 1 1 .6 0 1-.5 1-1 0-.6-.4-1-1-1-.5 0-1 .4-1 1zM309.5 670.1c-1 1.4-.1 2.1 1.9 1.3.9-.3 1.3-1 1-1.5-.7-1.2-2.1-1.1-2.9.2zM378.8 673.7c.7.3 1.6.2 1.9-.1.4-.3-.2-.6-1.3-.5-1.1 0-1.4.3-.6.6zM237.6 713.9c-.7 1 3.3 2.3 4.7 1.4 1-.6-1.1-2.3-3-2.3-.6 0-1.4.4-1.7.9zM259.8 753.7c-2.1.5-2.4 2.9-.4 3.6 2.4.9 10.8-1.5 9.5-2.7-.7-.8-7.4-1.4-9.1-.9zM243.5 843.3c-2.2 1.7-1.4 3.2 2.4 4.5 2.4.8 3.2.7 4.3-.5 1-1.3.9-1.8-1.1-3.4-2.8-2.3-3.2-2.3-5.6-.6zM497.6 2.2c1 1.3 2 2.5 2.1 2.7.2.2.3-.8.3-2.2 0-2.1-.5-2.7-2.2-2.7-2.1 0-2.1 0-.2 2.2zM184.6 10.3c.3 1 .9 1.5 1.2 1.2.3-.3 0-1.1-.7-1.8-1-.9-1.1-.8-.5.6zM125 15.6c0 .8.5 1.2 1 .9.6-.3 1-1 1-1.6 0-.5-.4-.9-1-.9-.5 0-1 .7-1 1.6zM91.4 345.4c-6.2 1.9-14.4 6.9-18.9 11.5-3.9 3.9-4 3.9-5.8 2-2.7-2.9-6.4-3.4-12.6-1.4-7.7 2.4-11.9 5.8-14.8 12.2-2.8 6.2-2.7 10 .7 17.4 2.7 6 2.6 7.9-.4 7.9-3.5 0-7.6 3.9-8.1 7.7-.4 3.4.6 4.7 4.5 5.6 3.7.9 5.4-.4 3.5-2.9-2.4-3.2-1.8-5.4 1.9-6.9 1.9-.8 4.2-1.2 5-.9 1.3.5 1.3 1 .1 3.7-.7 1.8-1.7 5-2.2 7.2-.7 3.4-1.2 4-3.2 3.7-3.8-.4-11.9 2.7-15.8 6.1-4.1 3.6-8.8 12.5-9.8 18.5-.6 3.7-.2 5.3 2.4 10.6 4.5 9.3 13.6 14.8 20.6 12.7 1.6-.5 5.3-1.2 8-1.6 4.5-.6 5.3-.4 7.4 1.9 3.2 3.4 8.2 3.5 10.3.4l1.5-2.3 3.7 2.9c5.7 4.3 16 8.6 22.5 9.3 5.2.5 6.7.2 12.3-2.4 3.5-1.6 7.7-4.4 9.3-6.1 1.6-1.8 4-3.2 5.2-3.2 4.1 0 11.2-3.8 13.3-7.2 3.9-6.4 1.5-17.2-4.7-21.3-1.5-1-4.7-1.9-7.3-1.9-2.5-.1-4.9-.4-5.5-.8-.5-.3-2.5-.9-4.2-1.3-2.7-.5-3.3-.3-3.3.9 0 .9-1.2 3.9-2.6 6.6-2 3.8-3.9 5.7-7.9 8-2.9 1.6-6.4 3-7.7 3-1.4 0-4.2.7-6.2 1.5-2.3 1-5 1.3-7.6.9-4.2-.7-5.6-1.7-6.2-4.9-.2-1.1-1.7-2.6-3.3-3.4-5-2.3-8.4-6.2-12-13.7-3-6.3-3.5-8.2-3.5-14.7 0-8 2-15.1 4.8-17.4.9-.7 4.7-2.9 8.3-4.7 8.6-4.5 8.9-5 7.7-11.2-.9-4.7-.8-5.7 1.7-11.3 3.3-7.3 6-9.7 16-14.7l7.5-3.7 7.6 1.1c8.5 1.1 12.8 3.8 17.5 10.7 2.9 4.2 7.9 6.5 14.5 6.5 7.3 0 14 6.5 17.8 17.1 1.6 4.2 1.6 5 .2 8.3-1.9 4.6-5.1 4.9-5.9.6-1.6-7.8-16.9-9.7-34.6-4.2-5.9 1.8-8.3 4.5-8.6 9.5-.2 1.8-.6 6.3-1 10.2-.5 5.4-.3 7.8.9 10.7 2.4 5.6 4 4.9 3.2-1.4-.7-4.9.9-14.9 3.5-21.5 1.3-3.4 5.2-5.4 12.9-6.6 8.9-1.3 17.5.8 19 4.9.5 1.3 1.6 2.4 2.4 2.4 1.9 0 7.5 6.4 8 9.3.3 1.2.8 3.5 1.1 5.1.5 2.4 0 3.4-3.8 7.1-5.5 5.3-13.5 7.1-20.1 4.5-3.3-1.2-3.3-3.7-.1-7 3.5-3.7 2-5.7-3-4-2.7.9-4.1 2.1-5.1 4.6-3.8 9.1 8.2 17.8 17.3 12.4 3.3-1.9 3.7-2 5.4-.4 4 3.6 4.4 8.9 1 14.4-.5.8-1.2 2.3-1.5 3.2-.3 1.2-1.5 1.8-3.4 1.8-5 0-7.6 4.6-5.2 9.1.9 1.6 2.2 1.9 7.3 1.9 4.9 0 7 .5 9.7 2.3 3.3 2.2 16.9 7.1 26.8 9.7 3.3.8 4.2 1.5 3.8 2.8-.3.9-.8 3.9-1.2 6.7-.6 5-4.4 21.4-6.2 27-1.9 5.6-7.4 17-9.4 19.2l-2 2.1 7 10.9c3.9 5.9 7.8 11.8 8.9 13.1l1.8 2.3 8.5-2.4c8.6-2.4 23.5-6 30-7.2 7.4-1.4 14-3.7 14-4.9 0-.7-2.2-4.4-4.9-8.4-7.2-10.5-14.4-32-15.5-47.1-.4-4-.9-9.1-1.2-11.2-.5-2.8-.2-4.5.8-5.7 2.7-3.1 2.9-6.7.7-11.7l-2.1-4.8 2.3-4.1c1.2-2.2 3.1-5.2 4.1-6.5 2.4-3.2 2.3-7-.5-10.5l-2.4-2.9 3.8-10.5c2.1-5.7 5.5-13.9 7.5-18.1 4.2-8.8 4.2-8.7 8.8-20.7 5.9-14.9 4.6-18.9-6.9-21.9-12.8-3.3-37.7-4.6-47.3-2.4-18.8 4.2-21.1 6.1-16.1 13 3 4.3 13.6 31 16 40.4 1.1 4.4 2.7 9 3.5 10.2 2.1 3.3 1.7 6.7-1.1 10.9-1.4 2.1-2.3 4.4-2.1 5.3.2.9.7 2.6 1.1 3.8.5 1.9 0 2.5-3.1 3.8-2 .8-5.6 1.5-8 1.5-3.9 0-4.9-.5-9.3-4.9-2.7-2.7-5.3-5-5.8-5.2-.5-.2-1.9-2.1-3.1-4.2l-2.1-3.7 4.2-4.5c4.3-4.4 4.3-4.5 4.1-11.1-.1-3.6-.7-7.1-1.3-7.7-1.4-1.4-1.4-7.7-.1-11.2 1.2-3.2-1.7-12.1-5.9-17.9-3.8-5.3-11.7-9.7-17.3-9.7-6.9 0-9.8-.8-9.8-2.9 0-2-7.3-9.1-11.6-11.3-2.7-1.4-14.3-3.8-17.5-3.6-.8 0-3.3.6-5.5 1.3zM226.3 359c2.6.7 5.4 2.2 6.3 3.4 1.3 1.9 1.3 2.2-.5 3.7-4.8 3.9-35.5 5.6-45.4 2.4-2.9-.9-6.1-2.3-7.2-3.1-1.7-1.3-1.8-1.6-.5-2.4 2.3-1.5 11-4 13.9-4 1.4 0 3.2-.4 4-.9 2.1-1.3 23.7-.6 29.4.9zm-164.6 3.3c1 1.3 2.4 2.6 3.1 2.8.8.3 1.4 3.4 1.7 9.5l.5 9.1-6.5 3.2c-3.6 1.8-7 4.1-7.5 5.2-.6 1-1.6 1.9-2.3 1.9-1.9 0-5.3-6-7.2-12.4-1.5-5.5-1.5-6.2 0-10.1 1.8-4.9 5.3-8.5 9.8-10.1 4.9-1.8 6.4-1.6 8.4.9zm120.8 9.1c3.3.8 9 1.7 12.8 2.1 6.8.7 7.6 1.2 5.5 3.3-.9.9-.7 1.2 1.2 1.2 3 0 4.4.9 5.3 3.2.5 1.5 1.8 1.8 6.9 1.8 3.5 0 7.8-.4 9.5-.9 2.2-.6 3.5-.6 3.9.1.4.6-1.8 6.1-4.8 12.2-7.5 15.1-8.8 18.3-8.8 20.9 0 1.2-.7 3.1-1.5 4.1-2.2 3-1.9 9.5.6 12.2l2.1 2.2-2.6 5.4c-1.4 3-2.6 6-2.6 6.7 0 .7-1.5.1-3.3-1.3-1.9-1.5-3.8-2.6-4.4-2.6-.5 0-1.7-1.8-2.7-4.1l-1.8-4.1 2.8-2.9c2.3-2.4 2.5-2.9 1.1-3.5-.9-.3-3.1.3-4.9 1.3-2.9 1.7-3.9 3.4-5.4 9-.2.7-1 1-1.9.7-1.1-.5-1.3-1-.5-1.9.5-.7.7-2.6.4-4.2-.5-2.4-.1-3.4 1.5-4.5 1.8-1.3 1.9-2 1.2-6.4-1.2-6.8-11.1-35.2-13.3-38.1-1.5-2-4.8-11.5-4.2-12.4.7-1.1.8-1.1 7.9.5zm45.5 6c0 .3-.4.8-1 1.1-.5.3-1 .1-1-.4 0-.6.5-1.1 1-1.1.6 0 1 .2 1 .4zM38.9 418.2c1.7 1.7 2.3 1.9 3.5.9 2.1-1.8 2.9-1 6.5 6.3 1.7 3.6 4.8 8 6.7 9.8 3.2 3.1 3.4 3.6 2.8 7.8-.4 2.5-1.4 5.4-2.3 6.4-5 5.8-20 7.6-28.2 3.3-3.4-1.9-4.8-3.4-6.3-7.1-1.7-4.1-1.9-5.4-.9-10 1.8-8.4 4.9-14.2 9-17.1 4.6-3.1 6.6-3.1 9.2-.3zm83.7 17.3c3 3.2 3.2 3.9 3 9.5-.1 3.3-.6 6.4-1.2 7-2 2-11.2.8-12.7-1.6-1-1.8-5.3-1.8-6 0-.3.7.1 2.6.9 4.1 2.1 4.1 1.8 5-2.8 8.1-9.7 6.4-24.6 1.9-35.6-10.9-2.3-2.7-4.2-5.8-4.2-7 .1-2 .4-1.9 3.1 1.3l3 3.5 12 .3c11.9.3 12.2.2 16.8-2.7 2.5-1.6 6.7-3.9 9.3-5.2 3.6-1.7 5-3.1 6.1-6.1 1.9-4.8 4-4.9 8.3-.3zm39.4 7.6c5.5 4.4 11 4.9 18.2 1.5 6.8-3.2 10.4-3.2 19.3-.1 6.8 2.4 9.5 4.5 9.5 7.2 0 1.2-.5 1.2-2.7 0-7.4-3.9-11.3-4.9-12.9-3.6-2.1 1.7-.7 2.9 3.2 2.9 2.6 0 4.7 1 8 3.7 2.4 2.1 4.4 4.2 4.4 4.7s-1.1-.1-2.4-1.3c-1.8-1.7-4.1-2.4-8.5-2.8-5.3-.5-6.1-.3-6.8 1.3-.4 1.1-1.4 2.5-2.2 3.1-1.4 1.1-1.4 1.4-.1 2.3.8.5 2.3 1 3.3 1 2.8 0 9.7 2.4 9.7 3.4 0 .5-1.9.5-4.2.1-2.4-.4-8.1-1-12.8-1.5-9.9-.9-25.9-6.1-31-10.2-3.1-2.4-3.3-2.9-2.2-5.3.7-1.4 1.2-3.8 1.2-5.4 0-5.2 3.3-5.6 9-1zM61.3 455.9c2.1 3.5 2.2 5.1.3 5.1-1.6 0-4.6-4.2-4.6-6.5 0-2.5 2.4-1.7 4.3 1.4zm139 3.7c2.5.8 5 2.1 5.6 2.8 1 1.2-11.3-2.5-12.6-3.8-1.1-1.1 2.2-.6 7 1zm-7 11.7c.2.7 0 5.5-.5 10.7-1.4 12.6-1.5 14-1.7 25-.2 10.9-.8 12.8-3.9 11.1-2.1-1.1-5.2-.5-5.2 1 0 .5 1.5 1.5 3.4 2.3 3.9 1.6 5.3 3.3 3.8 4.8-.6.6-2 .4-4-.6-1.7-.9-3.8-1.6-4.7-1.6-2.8 0-1.6 3.1 1.8 4.5 4.4 1.8 6.9 4.6 5.7 6.5-.8 1.2-1.9.6-5.9-3.4-3.5-3.4-5.5-4.7-6.6-4.2-1.5.5-1.1 1.3 2.1 4.9 2.1 2.3 4.9 5 6.2 6.1 1.6 1.3 2 2.2 1.3 2.9-1.3 1.3-4.5-1.4-10.3-8.7-3.6-4.5-3.8-5-2.4-7 3-4.2 8.7-16.9 11.6-26.1 3.7-11.7 3.9-12.8 4.6-20 .6-6.6 1.7-9.5 3.4-9.5.4 0 1 .6 1.3 1.3zm13.7.8c0 .5-1.3 1.5-3 2-3.9 1.4-3.8 2.7.2 3.1 3.1.3 3.1.4 3.4 6.4l.4 6.1-3.8.9c-4.9 1.2-4.3 2.9 1 2.9 4.1 0 4.2.1 5 4 1.1 5.3 4.1 14.8 6.7 21.4 2.6 6.3 2.2 8.1-1.6 8.2-1.5 0-5.9.8-9.8 1.8-5.3 1.3-6.9 2.1-6.7 3.3.1.9-.5 1.8-1.3 2.2-.9.3-1.3 1.1-1 1.7.4.6 1.4.8 2.3.4.9-.3 5-1.5 9.1-2.6s7.9-2.6 8.5-3.3c1.7-2.1 4.3-2.6 6.2-1.2 2.9 2.2 1.1 4.6-3.5 4.6-2.2 0-5.2.5-6.8 1.1-1.5.6-6 1.9-10 2.8-4 .9-7.1 2-7 2.6.1.5.7.9 1.2.8 5.1-.9 14.6-2.8 21.9-4.4 7.9-1.7 9.1-1.8 10.4-.5 1.3 1.3 1 1.5-2.4 2.1-6.8 1-14.7 2.7-23.4 5-10.9 2.9-16 3.8-16 2.8 0-.5.8-1.3 1.8-1.9 2.1-1.4 7.2-11.4 7.2-14.4 0-2.2 2.3-3.4 9.9-5 2.5-.6 5.6-1.2 6.9-1.5 2.3-.6 3.1-3.5 1-3.5-.7 0-4 .7-7.3 1.5s-6.8 1.4-7.8 1.5c-3.3 0-.8-1.8 3.4-2.5 5-.9 4.7-3.1-.5-2.8-2.4.2-3.6-.2-3.6-1.1 0-.7 1.3-1.4 3.3-1.5 6-.3 11.2-1.6 10.7-2.6-.5-1.1-1.7-1.1-9-.4l-4.5.4-.3-4.5c-.2-2.5-.1-8.6.3-13.6.7-9.1.7-9.2 3.6-9.8 3.6-.7 3.8-2.3.4-3.2-2.2-.6-2.5-1.1-2.5-5.5V471h3.5c1.9 0 3.5.5 3.5 1.1zm-2 59.9c0 .5-.5 1-1.1 1-.5 0-.7-.5-.4-1 .3-.6.8-1 1.1-1 .2 0 .4.4.4 1z"/><path d="M219.5 384.5c-.5.2-2.7.6-4.7 1-5.6.9-4.6 2 1.9 2.2 5.3.2 7.2-.6 7.3-3 0-.7-2.6-.8-4.5-.2zM205.3 430.1c-1.9.7-2.3 1.6-2.3 5.3 0 3 .5 4.6 1.5 5 2.2.8 4.2-.3 4.9-2.7 1.6-5.9-.2-9.1-4.1-7.6zM184.5 513c-.8 1.2 2 2.4 3.5 1.5.6-.3.8-1.1.5-1.6-.8-1.2-3.2-1.2-4 .1zM203 503c-1.2.8-1.2 1 .3 1.6 2.2.8 5-.3 4.2-1.6-.8-1.2-2.5-1.3-4.5 0zM355.7 412.7c-1.7 1.6-.2 2.1 6.3 2.2 5.5 0 7-.3 7-1.4 0-1.2-1.4-1.5-6.3-1.5-3.5 0-6.7.3-7 .7zM343 414.1c0 .6-.8 1.8-1.7 2.5-1.7 1.2-1.6 1.5 1.3 3.8 2.2 1.8 3.3 3.7 3.8 6.6.4 2.7 1.1 4 1.9 3.7 1.9-.7 1.1-11.7-1.1-14.6-2.1-2.8-4.2-3.8-4.2-2zM358 417.4c-1.6 1.6.8 4.6 3.8 4.6 3.3 0 6.8-2.2 5.9-3.7-.9-1.4-8.5-2.1-9.7-.9zM348 434c0 2 4.8 3.4 7.5 2.2 4-1.8 2.9-3.2-2.5-3.2-2.7 0-5 .5-5 1zM453 599.5c-1 1.2-1 1.9-.2 2.7 1.3 1.3 4.2-.6 4.2-2.8 0-1.9-2.4-1.8-4 .1zM241.8 603.1c-1 .5-1.8 1.9-1.8 2.9 0 2.8 4.6 2.7 6 0 1.9-3.5-.5-5.1-4.2-2.9zM471.7 603.2c-2.9 2.2 2.2 6.5 5.5 4.7 2.4-1.3 2.3-3.6-.1-4.9-2.5-1.3-3.4-1.3-5.4.2zM451.2 605.2c-.5.7-1.2 2.2-1.4 3.3-.3 1.8.2 2 4.2 1.7 5.1-.4 6.5-1.3 5.6-3.7-.4-1.1-1.2-1.4-2.5-1-1.1.3-2.2.1-2.6-.5-.8-1.3-2-1.3-3.3.2zM439.5 607.4c-1.6 1.2-1.7 1.6-.6 2.9 1.4 1.7 3.7 1.3 4.5-.8.8-2.3-1.8-3.7-3.9-2.1zM110 611c0 .5.5 1 1 1 .6 0 1-.5 1-1 0-.6-.4-1-1-1-.5 0-1 .4-1 1zM497.2 611.2c-1.1 1.5.2 5.8 1.8 5.8.5 0 1-1.6 1-3.5 0-3.6-1-4.4-2.8-2.3zM106.5 612c-.3.5-.1 1 .4 1 .6 0 1.1-.5 1.1-1 0-.6-.2-1-.4-1-.3 0-.8.4-1.1 1zM103.7 612.7c-.4.3-.7 1.1-.7 1.7 0 .6.5.5 1.2-.2.6-.6.9-1.4.7-1.7-.3-.3-.9-.2-1.2.2zM483.5 615.3c-2 1.6-1.3 3.7 1.4 3.7 2.3 0 4.1-1.9 3.4-3.6-.7-1.8-2.4-1.8-4.8-.1zM212.8 619.4c-2.3 1.7-2.3 2.9.2 5.1 3.5 3.1 6.3 0 4.4-4.9-.7-1.9-2.3-2-4.6-.2zM489 621.3c-2.8 1.4-3.8 4.8-1.8 6.4.7.6 3.1 1.4 5.4 1.7 3.1.6 4.4.3 5.3-.8 1.8-2.2.7-4.6-1.8-3.9-1.4.4-2.1.1-2.1-1 0-2.6-2.3-3.7-5-2.4zM464.1 623.9c-.8.5-1.1 1.6-.8 2.5.5 1.2 1.4 1.5 3.4 1 3.8-.9 4.1-1.3 1.9-3-2.3-1.6-2.6-1.7-4.5-.5zM112.7 626.4c-.8 2 2 4.3 3.5 2.8 1.4-1.4.3-4.2-1.6-4.2-.7 0-1.6.6-1.9 1.4zM475.3 626.1c-1.7 1.7-.4 3.9 2.1 3.9 2.7 0 4.6-1.8 3.9-3.6-.6-1.7-4.5-1.8-6-.3zM220 630.5c-1.9 2-2.1 2.7-1 4 1.8 2.2 3.7 1.9 5.6-1 1.3-2 1.4-2.8.4-4-1.7-2-2.3-1.9-5 1zM193.6 646.6c-1.3.9-2.3 1.1-3.2.4-.8-.7-2-.7-3.8.1-2.9 1.3-3.1 2.1-1.5 5 .8 1.6.7 2.5-.5 3.8-1.5 1.7-1.5 1.9 0 3.2 1.4 1.1 2 .9 4.3-1.9 1.4-1.7 3.8-3.6 5.4-4.1 2.1-.8 2.7-1.7 2.7-4 0-3.7-.9-4.3-3.4-2.5zM202.8 646.4c-2 1.5-2.4 4.1-.7 5.1 1.4.9 4.9-2.4 4.9-4.7 0-2.1-1.8-2.3-4.2-.4zM482.3 650.5c-1.5 1.2-1.6 1.6-.4 2.4 1.6 1 5.1-.3 5.1-1.8 0-1.6-2.8-2-4.7-.6zM201.5 654.4c-1.8 1.3-1.6 4.6.3 4.6 2 0 4.5-2.8 3.9-4.4-.8-2-1.7-2-4.2-.2zM214.3 655c-1.3.5-2.3 1.3-2.3 1.7.1 2 1.9 3.4 4.1 3.1 1.8-.2 2.4-.9 2.4-2.7 0-2.8-1.1-3.3-4.2-2.1zM168.2 656.2c-1.5 1.5-1.6 4.5-.1 5.4 1.6.9 5.3-3.1 4.6-5-.8-1.9-2.8-2.1-4.5-.4zM485.3 660.1c-2.4.9-3.1 4.3-1.2 5.4 1.9 1.2 5.9-.4 5.9-2.4 0-2.7-2.1-4-4.7-3zM150.3 662.7c-2 .8-1.5 4.1.7 4.8 2.5.8 5-1 5-3.6 0-1.9-2.7-2.5-5.7-1.2zM492.4 664.5c-.8 2 .2 4.5 1.9 4.5 1.9 0 5-3.6 4.2-4.9-.9-1.6-5.5-1.3-6.1.4zM131.6 665c-1.5.5-1.6.9-.7 1.4.7.5 1.8.3 2.4-.3 1.4-1.4.6-2-1.7-1.1zM199.4 667.4c-1.2 3.1 0 5.1 3.1 5.1 2.7 0 3-.3 3-3 0-2.5-.4-3-2.8-3.3-1.7-.2-2.9.2-3.3 1.2zM140.3 668c-2.7 1.1-3.2 5.7-.7 6.7s4.9-1.1 4.9-4.2c0-3.2-1-3.8-4.2-2.5zM191.5 669.4c-1.9 1.4-1.9 1.5-.1 3.5 2 2.2 6 2.8 7.1 1.1.9-1.4-2.1-6-3.8-6-.7 0-2.2.6-3.2 1.4zM130.2 670.8c-1.3 1.3-2.8 1.8-4.5 1.5-3.1-.6-4 .8-2.7 4.1 1.1 2.9 3.1 3.4 5 1.1.7-.9 2-1.3 3-1 2.4.8 5.7-3.1 4.4-5.2-1.6-2.5-3.1-2.6-5.2-.5zM212.7 670.1c-2.2 1.3-1.3 2.9 1.7 2.9 2.9 0 3.9-1 2.5-2.7-1.3-1.5-1.8-1.6-4.2-.2zM230.4 670.4c-.9 2.3 0 5.1 1.6 5.1 1 0 1.5-1 1.5-2.9 0-3.2-2.1-4.7-3.1-2.2zM497.7 669.7c-1.2 1.1-.8 2.3.8 2.3.8 0 1.5-.7 1.5-1.5 0-1.6-1.2-2-2.3-.8zM477 671.5c-1 1.3-.9 1.5.9 1.5 1.1 0 2.1-.4 2.1-.9 0-1.8-1.8-2.1-3-.6zM225.2 672.2c-1.6 1.6-1.5 3.4.4 5.2 1.9 2 3.4 1.2 3.4-1.8 0-3.1-2.2-5-3.8-3.4zM107.3 674.2c-4.4 2.1-1.5 8.4 3.3 7.2 1.4-.4 2.4-.2 2.4.5 0 1.7 1.8 1.3 4-.9 3-3 2.5-4.2-1.4-3.4-3 .5-3.5.3-3.8-1.7-.4-2.7-1.5-3.1-4.5-1.7zM166.2 674.7c-1.2 2.4-.4 4.3 1.8 4.3 2.3 0 4.4-2.6 3.6-4.5-.7-2.1-4.3-1.9-5.4.2zM158.4 675.4c-1.5 1.2-1.7 1.8-.8 3.3 1.4 2.4 4.7 2.8 6.4.8 1.1-1.3 1-1.9-.5-3.5-2.2-2.4-2.5-2.4-5.1-.6zM178.4 675.4c-.3.8-.3 2 0 2.5.9 1.4 5.1-.3 5.1-2 0-2-4.4-2.4-5.1-.5zM219.1 676.4c-.9 1.1-.9 2.2.3 5 2 4.9 4.6 4.8 4.6-.2 0-5.3-2.5-7.7-4.9-4.8zM71.3 678c-3.1 1.3-2.9 3.8.4 4.6 1.9.5 3 .2 4-1.2 2.5-3.4.1-5.2-4.4-3.4zM98.3 679c-2.8 1.1-2.9 2.6-.3 4 2 1.1 7 .4 7-1 0-.7-3.4-4-4.1-3.9-.2 0-1.4.4-2.6.9zM24.2 680.7c-3.1 2.7-3.9 6.9-1.4 8.2 2.8 1.5 5-.6 5.4-5.3.3-4.5-1-5.4-4-2.9zM56.2 681.1c-5.3 2.3-4.7 3.9 1.1 3.2 4.6-.6 6.7-1.8 6.7-3.9 0-1.9-2.6-1.7-7.8.7zM490.5 680.1c-.4.5-1.8 1.4-3.1 1.9-1.6.6-2.4 1.7-2.4 3.2 0 4.1 2 9.7 4.5 12.5 2.1 2.5 2.6 2.6 4.4 1.5 1.2-.6 3-1.2 4.1-1.2 1.8 0 2-.6 2-8 0-4.4-.3-8-.6-8-2.2 0-4.3 2.5-4.9 6.1-1 5.8-2.1 3.8-1.7-3.2.4-5.5-.6-7.6-2.3-4.8zM44 680.9c-3 .8-4 4.1-1.3 4.1 1.1 0 2.8-.6 3.9-1.4 2.4-1.9.8-3.5-2.6-2.7zM88 681.6c0 .9-.8 2.3-1.7 3-1.5 1.1-1.6 1.6-.5 3.4 1.7 2.7.4 4.8-1.4 2.2-1.9-2.8-6-1.7-7.9 2.1-1.9 3.9-1.9 4.4.4 5.7 2.7 1.4 6.7-.3 7.4-3.2.6-2.1.8-2.2 2.3-.7 1.4 1.5 1.9 1.5 4.6.2 2.4-1.2 2.8-2 2.3-3.7-.4-1.1-.9-3.5-1.2-5.1-.8-4.7-4.3-7.8-4.3-3.9zM121 681.5c-1 1.2-.9 1.6.5 2.1 1.9.8 4-.9 3.1-2.5-1-1.5-2.1-1.4-3.6.4zM136.4 681.5c-1.5 1.2-1.6 1.6-.5 2.4 1.5 1 4.8.4 5.7-1.1.4-.6 0-1.4-.7-1.9-1.9-1.2-2.2-1.1-4.5.6zM33.1 681.9c-3.2.8-3.6 2.3-1.3 4.4 2.4 2.2 5.2 1.2 5.2-1.8 0-2.9-.8-3.4-3.9-2.6zM231.4 682.4c-.9 2.4.4 4.8 2.3 4.4 2.4-.4 2.4-5.2 0-5.6-.9-.2-2 .4-2.3 1.2zM199.8 683.1c-1 .5-1.8 1.8-1.8 2.8 0 2.3 3.6 5.6 4.5 4.2.3-.6.3-1.1-.1-1.1s.1-.9 1.1-2c1.5-1.6 1.5-2.2.5-3.5-1.5-1.7-1.9-1.8-4.2-.4zM475.7 684.1c-1.6 1-1.7 1.3-.3 3.3.8 1.3 1.9 4.1 2.5 6.4 2.6 9.4 8.7 9.6 7.2.2-1.4-9-4.8-12.6-9.4-9.9zM5.1 685.3c-.8 1.1-.6 1.8.8 3.1 2.4 2.2 5.5 1.7 5.9-.8.7-3.2-4.4-4.9-6.7-2.3zM111 685.5c-.7.9-1 1.8-.7 2.1 1.1 1.1 5.7-.6 5.7-2.1 0-2-3.4-1.9-5 0zM177 685.6c0 1.1.5 1.4 1.6 1 .9-.3 2-.6 2.5-.6s.9-.5.9-1c0-.6-1.1-1-2.5-1-1.6 0-2.5.6-2.5 1.6zM213.7 684.7c-1.3 1.3-.7 5 1.1 6.6 2.2 2 3.2 1.3 3.2-2.3 0-3.5-2.6-6.1-4.3-4.3zM63.1 686.4c-.9 1.1-.8 1.8.4 3 .9.9 2 1.6 2.4 1.6 1.5 0 3.3-3 2.7-4.5-.7-1.9-4-2-5.5-.1zM154.8 687.1c-2.1 1.2-2.4 3.9-.4 3.9.7 0 1.9-.7 2.6-1.5 1.7-2.1.1-3.7-2.2-2.4zM142.5 688.4c-1.5 1.1-1.7 1.7-.8 2.7 1.7 1.7 6.5.3 6.1-1.9-.4-2.2-2.9-2.6-5.3-.8zM13.1 690.4c-.7.9-.8 1.7-.2 2 1.3.9 4.3-.4 3.8-1.7-.5-1.7-2.3-1.9-3.6-.3zM99.6 691.3c-1.3 1-1.6 1.6-.7 2.1 1.5 1 5.3-.3 4.8-1.7-.5-1.7-2.1-1.8-4.1-.4zM185.6 691.6c-1.5 1.4-1.5 1.9-.3 3.1 1.9 1.9 7 0 6.5-2.5-.4-2.3-4.2-2.7-6.2-.6zM465.7 693.7c-1.6 1.5-.5 3 3.3 4.7 4.1 1.8 6 1.5 6-.9 0-2.9-7.3-5.9-9.3-3.8zM155.8 694.5c-.1.2-7.7.5-16.8.6-23.9.5-40.7 3.1-44.9 7-2.1 1.9-2 3.9.4 6.9 1.7 2.2 3.3 6.4 7.1 17.7 1.9 5.7 4.7 12.5 6.3 15.2 1.6 2.7 3.9 7.6 5.1 10.9 1.2 3.4 3.1 6.9 4.1 7.8 2.4 2.2 2.4 4.6-.1 6.9-4 3.6-1.2 12.2 5.1 15.5 2.6 1.5 6.9.1 7.9-2.4.8-1.8.9-1.7.9 1.1.1 2.8-.3 3.3-2.1 3.3-3.4 0-4.5 1.1-5.1 5-3.1 20.1-6.2 33.2-9.8 41.5-.5 1.1-2.2 5.8-3.8 10.5-1.6 4.7-4.1 9.7-5.5 11.2-1.4 1.5-2.6 3.1-2.6 3.7 0 1.6 3.9 3.9 12.1 6.9 4.1 1.5 9.4 3.8 11.9 5.2 2.5 1.3 5.8 2.5 7.3 2.6 1.5.1 3.6.9 4.6 1.8 1.6 1.4 2.3 1.4 7.7 0 3.2-.8 8.2-2.6 10.9-3.9 2.8-1.3 6.8-2.9 9-3.5 2.2-.7 4.7-1.6 5.5-2.1.8-.5 2.6-1.4 4-2 7.1-3 9.5-4.8 9.8-7.1.3-2.8-3.2-7.8-5.6-7.8-1.7 0-4.5-4.7-9.8-16.3-1.9-4-3.2-5.7-4.5-5.7-2.1 0-2.4-1.1-.9-2.6.6-.6.4-1.9-.5-3.8-.8-1.6-1.5-3.6-1.5-4.6 0-1-.7-3.1-1.5-4.6-.8-1.6-1.5-3.9-1.5-5 0-1.2-.7-4.1-1.6-6.5-3.4-9.6-4.4-14.3-3-15.4 2-1.5 4.6-7.1 4.6-9.7 0-1.3-.7-3.4-1.6-4.6-1.4-2-1.4-2.7 0-6.5.8-2.3 2.3-7.4 3.2-11.2.9-3.9 2.2-7.9 2.8-9 .7-1.1 2.1-4.5 3.1-7.5.9-3 2.1-6.2 2.5-7.1.5-.9 1.4-5 2.1-9.1.9-5.5 1.6-7.5 2.6-7.1 2 .8 3.7-4.1 2.7-7.8-.8-2.7-1.8-3.5-6.9-5.4-5.7-2.1-12.9-3.7-13.7-3zm12.4 7.3c3.1 3.1-4.6 5-20.9 5.1-10.9.1-13.3-.3-13.3-2.5 0-1.8 4.2-2.8 8.5-2 2.4.5 4.2.2 5.7-.8 2.6-1.9 18.1-1.7 20 .2zm-49.5 8.2c5.5.5 12.4 1.2 15.1 1.6 2.8.3 11.2.1 18.6-.6 7.5-.7 13.9-1.1 14.2-.7.3.3-.4 4-1.6 8.4-2.4 8.8-2.5 9.3-7.6 22.3-2 5.2-4.4 12.4-5.4 16-2 7.9-3.4 8.8-13.5 8.9-6.6.1-7.4-.1-8.9-2.3-.8-1.4-2.6-2.6-3.8-2.8-1.3-.2-2.4-1-2.6-1.9-.2-1.3.6-1.5 5.1-1.1 3 .2 5.7 0 6-.6 1.3-1.9-3.3-4.5-8.8-5-4.3-.3-5.8-.9-6.6-2.5-1.1-1.9-.9-2 7-1.5 5.8.3 8.1.1 8.5-.8.7-1.7-2.9-4.7-6.2-5-10.5-1.2-13.3-1.8-14.3-3-2.3-2.8.1-3.6 9.3-2.9 8.3.6 9 .6 8.6-1.1-.2-1.4-2.1-2.2-7.4-3.4-3.9-.9-8.5-1.5-10.2-1.4-4 .3-6.2-2-3.4-3.5 1.3-.7 3.9-.7 7.8-.1 7.1 1.2 18.2 1.1 19-.2 1.2-1.8-1.1-2.6-9.2-3.2-4.5-.3-10.2-1-12.8-1.5-4.9-.9-10-3.7-9.2-5 .3-.4 5.6-.2 11.8.6 12.3 1.5 19.9 1.4 20.5-.3.2-.7-5.6-1.8-16.1-3.1-15.6-1.9-20.4-3.3-19-5.5.4-.5 1.6-.7 2.8-.4 1.1.4 6.7 1.1 12.3 1.6zm23.3 65.5c0 2-1.7 4.5-3.1 4.5-.8 0-1.9-8.1-1.2-9.3.8-1.4 4.3 2.4 4.3 4.8zm-12.4-3.4c.7 1.2-1.4 5.9-2.7 5.9-.5 0-1.4-1-2-2.2-1-1.8-.8-2.4.7-3.5 2.2-1.6 3.1-1.6 4-.2zm21.4 2c0 2-2.6 7.9-3.6 7.9-.2 0 0-.9.6-1.9.5-1.1 1-3.6 1-5.6 0-2.2.4-3.4 1-3 .6.3 1 1.5 1 2.6zm-12.4 11c.4.7 2.2.9 4.4.6l3.8-.5 1 4.7c.5 2.5 1.3 5.4 1.7 6.3.5 1.4 0 2-2.1 2.8-1.6.5-3.7 1.5-4.6 2-1 .6-2 1-2.2 1-.3 0-.6-3-.8-6.7-.3-5.9-.6-6.8-2.3-7.1-2.6-.5-3.9-1.8-3.1-3.1.9-1.4 3.3-1.4 4.2 0zm-5.1 7c.4.6.5 1.3.2 1.6-.8.7-4.7-.7-4.7-1.8 0-1.3 3.7-1.1 4.5.2zm-1.1 7.2c1.5 1.1 1.6 2.1.6 9.8-1 8.6-.6 50.1.6 53.2.8 2.3 3.1 2.8 4.9 1.1 1.7-1.8 2.2-16.6.5-20.8-.5-1.4-.5-2.8-.1-3.1.5-.2.7-3.6.4-7.4-.4-6.5-.3-6.9 1.9-7.4 1.3-.4 3.9-.7 5.8-.7 2 0 4.6-.7 5.8-1.6 1.2-.8 2.6-1.3 3.1-1 .8.5 6.1 11 6.1 12.1 0 .6-7.2 2.5-9.8 2.5-1.3 0-3.7 1-5.4 2.1-2.5 1.8-2.7 2.4-1.6 3.5s2.4 1.1 7.5 0c3.5-.7 7.1-2 8.1-2.9 1-.9 2.1-1.7 2.4-1.7.3 0 2.2 3.3 4.2 7.2 2.1 4 4.9 8.3 6.3 9.4l2.5 2.1-2.6.5c-2.1.4-3.2-.1-4.9-2.3l-2.2-2.8-8.5 1.3c-12.3 2.1-14.1 2.6-13.8 4.4.2.8 1.4 2.3 2.8 3.4 2.6 1.9 2.7 1.9 7-.1 4.7-2.2 10-2.8 10-1.2 0 .5-1 1.2-2.2 1.6-1.3.3-3.2 1-4.3 1.5-5.3 2.4-14.4 4.7-18 4.5-2.2-.1-5.8-1.1-8-2.2s-7.5-3.5-11.8-5.3c-4.5-1.9-7.6-3.7-7.4-4.4 3.2-7.8 4-9.6 4.8-9.6.5 0 .9.4.9.9 0 .8 8.2 4.1 10.2 4.1.5 0 .8-1 .6-2.2-.2-1.7-1.6-2.7-5.5-4.2-3.8-1.3-5.3-2.4-5.3-3.7 0-2.4.8-2.4 4.5.1 3.8 2.5 6.8 2.6 6.3.2-.2-1.4-4.5-4.2-8.1-5.5-.5-.1-.2-2.3.6-4.7 4.9-15.2 5.8-18.7 6.3-22.9 1.1-9.6 1.5-10.2 4.8-7.8zm19.4 5.9c-.2 1.9-1.1 2.4-4.5 2.9-2.3.3-4.9 1.1-5.7 1.8-2.1 1.8-3 .8-2.2-2.2.4-1.9 1.6-2.6 5.3-3.4 7.3-1.6 7.5-1.5 7.1.9zm2.2 6.5c0 .5.3 1.8.6 2.9.5 1.9 0 2.2-3.9 2.8-2.4.4-6.1 1.5-8.1 2.5l-3.6 1.9v-3.9c0-3.7.1-3.9 3.3-3.9 1.7-.1 4.3-.7 5.7-1.5 2.7-1.5 6-2 6-.8z"/><path d="M125.6 823.7c-.7.7 2.3 4.3 3.6 4.3.4 0 .8-.7.8-1.5 0-1.6-3.4-3.8-4.4-2.8zM146.6 830.4c-1 3.9 1.5 4.7 6.4 2.1 4.6-2.4 3.9-4.4-1.4-4.2-3.5.2-4.6.6-5 2.1zM123 830.5c0 2.1 4.6 4.9 6.7 4 1.6-.6 1.5-.9-1-3.1-3.2-2.7-5.7-3.1-5.7-.9zM147.6 845.9c-3.6.7-4.2 2.3-2 4.5 1.1 1.2 2.5 1.5 4.5 1.1 1.5-.4 4.2-.7 5.9-.7 4-.1 4.9-1.7 2-4-2.2-1.8-5.1-2.1-10.4-.9zM116 851.9c0 2.9 11.3 8.2 13.2 6.3 1.7-1.7-.6-3.8-6.2-5.6-5.6-1.8-7-2-7-.7zM25.5 697.1c-13.1 2.4-20.9 4.1-23.1 5.1L0 703.3l.1 19.4c0 11.4.5 19.5 1.1 19.9 1.7 1.1 2-.3.9-4.2-1.4-5.1-.5-5.6 1.5-.8.9 2.1 4.7 10.3 8.5 18.2 3.8 7.8 6.9 14.6 6.9 15 0 .5-1.6 2.3-3.5 4.2-4.4 4.3-4.4 7 0 11.4 3.7 3.8 4 5.1 2.6 14.1-2.6 16.4-12 49.3-16.5 58-1.6 3.1-2.2 7.7-.8 7.3 1.3-.4 14.7 2.3 18.5 3.8 2 .8 5.3 1.4 7.2 1.4 1.8 0 3.6.4 3.9.9.3.5 3.2 1.2 6.3 1.6 3.7.4 6.5 1.4 7.6 2.6 2.6 2.7 3.9 2.4 9.3-2.4 4.2-3.6 18.6-11.7 20.9-11.7 1.1 0 3.4-3.3 3.5-4.9 0-.7-1.8-4-4-7.3s-4-6.7-4-7.4c0-.8-.4-2.2-.9-3.2-1.8-3.5-3.3-10-2.6-11.2.5-.8.4-1.1-.1-.7-1.8 1.1-3.2-.8-5.2-6.8-1.1-3.3-1.9-6.1-1.8-6.2.1-.2 1.7.3 3.5 1 2.9 1.1 3.4 1 4.6-.6.8-1.1 1.1-2.5.8-3.2-.4-1.1.3-1.3 3.1-.8 3.2.5 3.7.3 4.6-2.1 2.1-5.6-3.5-9.5-8.4-5.9-1.4 1-2.4 2.5-2.3 3.3.1.8-.5 1.6-1.4 1.8-1.9.3-1.9-4-.1-4.6.7-.2 1.2-.8 1.2-1.3 0-.6-.4-.8-.9-.5-.5.4-.4-.9.1-2.8 1.2-3.8.6-6.6-1.5-6.6-2.4 0-6.7 4-6.7 6.3 0 3.6-1.8.5-2.5-4.4-.7-4.8.7-7.2 4.4-7.4.9-.1 2.6-.2 3.9-.3 1.2-.1 2.2-.9 2.2-1.7 0-1.9-3.2-3.3-3.8-1.7-.2.7-1 1.2-1.9 1.2-1 0-1.2-.6-.8-2.1.5-1.5-.2-3.2-2.5-6.1l-3.3-4 2.2-4.3c1.1-2.3 2.1-4.6 2.1-5.1s.6-2.1 1.4-3.6c.8-1.4 1.9-4.3 2.6-6.5 2.1-6.5 2.9-7.6 4.6-6.2 1.1.9 2.1.9 4 0 3.6-1.6 2.5-3.8-2.8-5.5-1.6-.5-1.6-.8.1-5.8 2.2-6.2 5.2-12.2 9.9-19.6 4.7-7.5 3.4-12.2-4.3-15.2-7-2.7-36.7-4.5-46-2.9zm30.5 6.5c0 .2-1.1.4-2.5.4s-2.5-.4-2.5-.9c0-.4 1.1-.6 2.5-.3 1.4.2 2.5.6 2.5.8zm12.8 1c2.7 1.9 2.8 3.6.3 5.8-2.5 2.3-30.6 3.3-33.1 1.2-.8-.7-2.7-1.6-4.2-2-3.8-.9-3.5-2.6.5-2.7 7.6-.3 17.5.3 21.2 1.3 7 1.8 10 1.6 10-.7 0-1.3-.8-2.1-2.2-2.3-1.3-.2-2.3-.8-2.3-1.3 0-1.5 7.4-1 9.8.7zm-.8 12c0 .3-2 4.8-4.5 10s-4.8 10.9-5.2 12.7c-.3 1.8-1.3 4.5-2.1 6.2-.8 1.6-3.4 7.7-5.7 13.4l-4.1 10.3h-8c-13.2.1-13.6 0-13.2-2 .2-1.3 1.3-1.7 4.3-1.7 6.6 0 5.1-2.6-2.5-4.6-3.6-1-6.3-1.8-6-1.9.3-.1 3.1-.2 6.2-.3 3.1-.1 6.2-.7 6.9-1.4 1.5-1.5 1.2-1.6-8.9-3.4-6.2-1-10.4-3.1-9.1-4.3.2-.2 2.8 0 5.8.5 6.2 1 10.1.3 10.1-1.6 0-.9-1.8-1.6-4.7-2-7.9-1.1-14.3-2.9-14.1-4 .2-.6 3.5-.9 8.4-.6 5.6.2 8.4-.1 8.9-.9 1.1-1.7-1.4-3-6-3-4-.1-15.2-2.4-16.2-3.4-1.7-1.6 1.7-2.1 10.2-1.3 9.6 1 15.4 0 14-2.2-.5-.9-2.8-1.3-14.7-2.5-5.1-.6-7.8-1.5-7.8-2.8 0-.7 1.5-.8 4.7-.2 2.7.4 8.2.8 12.3.8 6.3.1 7.5-.2 7.8-1.7.3-1.3-.3-1.7-3-1.7-4.6 0-24.3-3.1-25.9-4.1-2.9-1.8.5-2.2 8.8-1 13 1.8 31 2.5 35.2 1.3 2-.6 6.5-1.5 10.1-2 3.6-.5 6.8-1 7.3-1.1.4 0 .7.2.7.5zm-26.7 56.5c4.4 2.3 6.7 5.2 6.7 8.5 0 4.5-.9 6.4-3.1 6.4-1.6 0-1.9-.8-1.9-4.7 0-3.9-.5-5.2-3.2-8-3.2-3.3-2.5-4.3 1.5-2.2zm-14.3.6c-.1 1.1-2.6 4.3-3.4 4.3-.8 0-.8-3.5.1-4.3.9-.9 3.3-.9 3.3 0zm7.7 8.6c-.3 2.1-.4 2-1.5-.6-.7-1.6-.9-3.3-.6-3.9 1-1.6 2.6 1.9 2.1 4.5zm-3.2 8.5c-1.2 1.2-5.2-1.1-6.7-3.9-3-5.2-2-5.5 2.7-.9 2.4 2.4 4.3 4.6 4 4.8zm7.5-1.4c.6.8 2.3 1.6 3.8 1.8 2.4.3 2.8.9 3.3 5 .4 2.5 1.6 7.3 2.7 10.5 1 3.2 2.5 7.8 3.2 10.3.7 2.5 2.4 6.9 3.7 9.8 1.3 2.9 2.3 6 2.3 7 0 .9.9 3.4 2 5.5 1.1 2 2 4.3 2 4.9 0 .7.7 2.6 1.5 4.2.8 1.5 1.3 3.1 1 3.6-.2.4-2.5 1.3-5 2-4.7 1.3-7.1 3.2-6 5 .8 1.3 4.2 1.3 5 0 .9-1.4 8.3-4.9 8.9-4.2 1.1 1 .6 2.2-.8 2.2-.8 0-2.3 1.1-3.4 2.5S60.7 862 60 862c-.6 0-3.2 1.6-5.8 3.6-4 3-5.3 3.5-8.7 3.1-6.8-.8-21.8-3.5-25.5-4.6-1.9-.6-4.7-1.1-6.2-1.1-2.4 0-6.5-3.7-5.3-4.8.2-.2 3.2.1 6.7.7 3.5.7 7.7 1.4 9.3 1.6 1.7.3 4.8 1 7.1 1.6 6.2 1.8 10.2-.6 5.3-3.2-1.9-1-11.8-2.9-23.2-4.6-3.1-.4-3.7-.9-3.2-2.2.4-.9.9-2.5 1.2-3.6.3-1.1 1.1-3.4 1.8-5 .7-1.7 2.1-6.2 3.1-10 2.3-8.9 3.2-10 6.8-8.4 2.3 1.1 2.9 1 4.3-.4 2-2 1.4-2.7-2.9-3.6-1.9-.4-3.4-1.4-3.6-2.4-.3-1.4.4-1.7 3.8-1.5 4.6.2 7.5-1.7 5-3.2-.8-.5-2.5-1-3.6-1-3 0-4.9-2.4-3.1-3.9.8-.6 1.6-.9 1.9-.6.2.3 2 .6 3.9.8 3.2.2 3.4.5 4.1 4.7 1.5 10.1 1.8 13 2.8 24.5.8 8.6 1.6 12.3 2.7 13.2.9.7 1.2 1.9.9 3.1-.5 1.3.3 2.9 2.3 5.1 3.4 3.6 4.1 3.7 7.2 1.2 2.3-1.9 2.3-2 .5-3.9-2-2.3-1.3-4.7 1.1-3.7.9.3 2.7-.2 4-1.1 2.4-1.5 2.4-1.6.6-2.9-1.4-1.1-1.6-1.6-.5-2.6 3.4-3.6-.5-5.2-5.8-2.4-1.6.8-3.1 1.2-3.3.7-.6-.8-2.5-18.4-2.5-22.2 0-5.4-3.5-29.6-4.5-30.8-.6-.7-1.6-1.1-2.2-.8-.7.2-1.8 0-2.6-.5-1.2-.8-1.2-1 .1-1.9 2.1-1.4 3.6-1.2 5 .4zm-7.2 6.8c-.5 1.5-6.8 2.4-6.8 1 0-1.5 1.3-2.2 4.3-2.2 1.8 0 2.7.4 2.5 1.2zm-3 6.4c1.2.4 2.2 1.1 2.2 1.6 0 1.4-6.3.5-6.8-1-.4-1.3 1-1.5 4.6-.6zm31.6 4.8c-1 4.8-2.3 6.7-2.4 3.4 0-1.5-.4-3.8-.9-5.1-.9-2.2-.7-2.3 1.5-1.9 2.2.4 2.4.8 1.8 3.6zm-10 43c-.5 1.3-3.3 2.7-5.9 3-.5.1-1-.6-1-1.4 0-1.2 2-2.1 6.7-2.9.4 0 .5.5.2 1.3zM456.2 698.6c-3.1 2.2-2.6 5.8.9 6.2 2.2.3 2.7-.2 3.3-2.8 1-5.1-.3-6.1-4.2-3.4zM204.4 699.1c-.3.6-.1 1.6.4 2.1 1.3 1.3 4.5-.8 3.6-2.3-.7-1.2-3.1-1.1-4 .2zM198.5 700c-.3.5-1.2.7-1.9.4-.7-.3-1.8.1-2.4.9-1.6 1.9.9 5.4 2.9 4.1.8-.5 2.2-.7 3.2-.6 1.3.3 1.7-.4 1.7-2.7 0-3-2.1-4.3-3.5-2.1zM446.2 702.3c-1.5 1.7.1 4 2.4 3.5 2.7-.5 3.2-4.8.6-4.8-1.1 0-2.4.6-3 1.3zM419 705.5c-1.6 1.9.3 4.5 3.1 4.5 2.2 0 2.6-2.9.7-4.8-1.6-1.6-2.3-1.5-3.8.3zM185.2 706.2c.7 1.9 3.8 2.2 3.8.4 0-1-.9-1.6-2.1-1.6-1.2 0-1.9.5-1.7 1.2zM462.5 706.8c-2.3 1.7-4.8 5.3-6 8.8l-1.2 3.7-.7-4.6c-.4-2.6-1.2-4.9-1.7-5.3-1.7-1-4.9 2.7-4.9 5.8v2.9l-3.8-4.1c-2.6-2.7-4.8-4-6.5-4-4 0-4.2 1.9-.6 5.6 1.9 2 3.8 5.3 4.4 7.7 1.4 5.7 4.5 5.9 6 .4.7-2.4 1.4-3.4 2-2.8.6.5 2.1 1.1 3.5 1.3 1.8.2 2.8 1.2 3.6 3.6 1.3 4.1 2.8 5.6 4.9 4.8 1.4-.5 1.6-1.5 1-5.6-.8-6.1.7-11.3 4.1-13.4 3.4-2.3 3.2-5.6-.3-5.6-1.6 0-3.2.4-3.8.8zM304.8 707.6c-.4.3.5 2.2 1.8 4.1 1.3 2 2.4 4.1 2.4 4.8 0 1.9 2.7 2.6 4.3 1.2.7-.7 2.2-1.7 3.2-2.3 4.4-2.5 2.3-8-2.7-7-1.5.3-3 .1-3.3-.4-.7-1.1-4.8-1.4-5.7-.4zM213.4 709.4c-.7 1.9.3 3.6 2.2 3.6 1 0 1.4-.8 1.2-2.2-.4-2.6-2.6-3.6-3.4-1.4zM85.3 710.7c-.7.2-1.3 1.1-1.3 1.9 0 .8-.7 1.7-1.5 2-1.7.7-2 3-.5 3.9.6.3 1.6.3 2.3-.2.6-.4 2.1-.6 3.3-.5 3.1.4 5-2.3 3.6-5.3-1.1-2.4-3.1-3-5.9-1.8zM323 713.4c0 2.8 2.4 4.1 4 2.1 1.6-2 .5-4.5-2-4.5-1.4 0-2 .7-2 2.4zM482.4 712.4c-.6 1.7 2.3 6.6 4 6.6.6 0 1.7-.4 2.5-.9 1.1-.7 1-1.4-.8-4-2.4-3.3-4.8-4-5.7-1.7zM183.3 714.6c-.7 1.8 2 4.9 3.5 4 .6-.3.9-1.4.7-2.4-.2-.9-.4-2-.4-2.5-.2-1.4-3.2-.7-3.8.9zM301.5 714c-1 1.6 2.4 6.2 4.3 5.8 2.1-.4 2.8-3.4 1.2-5.3-1.4-1.7-4.6-2-5.5-.5zM491.5 715.1c-.8 2.5.6 4.2 2.8 3.4 1.8-.7 3-3.2 2.1-4.6-1-1.7-4.3-.9-4.9 1.2zM203.5 715c-.4.6-1.5.8-2.6.5-5-1.6-4.2 3.2 1 5.8 3.6 1.8 4.1 1.4 4.1-2.9 0-3.4-1.4-5.2-2.5-3.4z"/><path d="M431.5 716.2c-.8 2 3.8 10.2 5.9 10.6 4 .8 3.9-1.8-.3-9.8-1.1-2-5-2.5-5.6-.8zM466.1 716.9c-1.8 1.1-.5 8.7 1.6 9.5 3.5 1.4 5.6-4.1 3.3-8.5-1.1-2-2.7-2.4-4.9-1zM217.1 718.4c-.7.8-1 2-.6 2.6.4.7-.2 1.4-1.4 1.7-2.4.6-2.8 2.8-.7 3.6 2.5 1 6.8-3.2 6.4-6.1-.4-3-2-3.8-3.7-1.8zM174.3 720.9c-.7 1-.9 2.2-.6 2.5 1.2 1.2 2.1.6 2.5-1.9.6-3-.3-3.2-1.9-.6zM194 720c-1.3.8-1.3 1.1.2 2.7 1.4 1.3 2 1.5 3 .5 1.7-1.7-1.1-4.5-3.2-3.2zM331.3 721.7c-1.5.5-1.7 4.1-.4 6.1.5.8 1.7 1.2 2.7 1 2.3-.4 3.1-4.3 1.4-6.4-1.3-1.5-1.7-1.6-3.7-.7zM339.3 722.6c-.4 1.1.1 2.2 1.2 3.1 2.6 1.8 4 1.2 4-1.8s-4.1-4-5.2-1.3zM355 726.3c0 2.8 1.7 4.7 4.2 4.7 2 0 2.3-2.1.8-5.1-1.5-2.8-5-2.5-5 .4zM364.7 725.1c-2.1 1.2-2.2 4.2-.2 5.9 1.2 1 1.8 1 3 0 3.2-2.6.7-7.8-2.8-5.9zM207.8 731.1c-2.1 1.2-2.3 3.8-.5 6.1 1.1 1.5 1.8 1.5 6.2.4 4.3-1.1 5-1.7 5.3-4 .3-2.4.1-2.6-3-2.4-1.8.1-4-.2-4.8-.5-.8-.4-2.3-.2-3.2.4zM77.4 732.5c-.4.8-1.4 1.5-2.4 1.5-3 0-4.3 2.5-3.3 6.7 1.1 4.7 3.2 5.3 8.6 2.3 3.6-2.1 4.1-2.1 4.9-.6 1.1 2 4.2 2.1 5.8.1 1.1-1.3 1.4-1.3 2.5.2 1.2 1.7 1.5 1.7 4.9 0 4.1-1.9 4.4-2.7 1.6-4.4-1.4-1-2.7-1-4.7-.2-3.8 1.4-3.7 1.5-4.3-2.7l-.5-3.7-6.3-.4c-4.9-.2-6.4 0-6.8 1.2zM304.7 732.8c-1 1-1.7 2.5-1.7 3.3 0 .8-.6.3-1.3-1.1-1.3-2.4-4.5-3-8.4-1.6-1.7.7-1.7 4.7.1 7.2 1.4 1.8 1.6 1.8 4.4.1 4.1-2.3 5.9-2.1 6.6.7.6 2.4 3.1 4 4.7 3 .7-.4.7-6.4 0-12.7-.2-1.3-2.8-.7-4.4 1.1zM430 733.5c-1 1.2-1 1.8 0 3 1.7 2.1 3.7 1.9 4.5-.5 1.2-3.7-2-5.5-4.5-2.5zM315.2 734.6c-4 2.8-2.4 6.4 3 6.4 1.7 0 1.9-.4 1.3-3.3-1-4.4-1.7-4.9-4.3-3.1zM179.1 736.5c-1.2 1.4-2.7 2.3-3.1 2-1-.6-6 1.5-6 2.5 0 1.5 2.6 3 5.2 3 1.6 0 3.7.6 4.8 1.2 1.5 1 2.5 1 3.7.2 1.4-.9 2.1-.8 3 .5 1 1.4 1.3 1.4 3.3-.4 3.2-2.9 5.4-7.5 4.2-8.7-1.9-1.9-6.3.1-7.4 3.3-1.3 3.7-2.3 2.9-2.3-1.9 0-4.5-2.1-5.2-5.4-1.7zM346.8 736.1c-1.2.7-1.8 2.2-1.8 4.6v3.6l-3.5-3.6c-4-4.1-4.4-4.3-7-2.3-1.8 1.3-1.8 1.4.4 3.2 1.2 1.1 2.9 3.1 3.7 4.6 1.4 2.8 4.7 3.7 5.9 1.8.9-1.5 4.2-1.2 4.9.5.6 1.7 3.2 2 4.1.4.4-.5 0-1.8-.8-2.7-.9-.9-1.7-3.7-1.9-6.1-.3-4.7-1.2-5.6-4-4zM451.5 737.5c-1.6 5.1-1.3 4.9-4 3.1-1.3-.9-3.6-1.6-5-1.6-3.3 0-3.4 3.2 0 5.4 1.4.9 2.5 2.3 2.5 3 0 .7.7 1.9 1.6 2.6 1.2 1.1 1.8 1 3.1-.3 1.2-1.2 2-1.3 3.4-.4s2.1.9 3 0c1.4-1.4 1.8-9.1.7-11.6-1.1-2.1-4.7-2.3-5.3-.2zM220 739c0 1.1.7 2 1.5 2s1.5-.9 1.5-2-.7-2-1.5-2-1.5.9-1.5 2zM357.6 739.6c-1.5 1.4-2.1 3.4-1.2 3.4.2 0 1.1.3 1.9.6 1.9.7 4.8-2.2 4.1-4.1-.8-1.9-2.9-1.9-4.8.1zM199 739.7c-1.7.6-4 3.2-4 4.5 0 1.6 5.7.8 7.3-1 3.1-3.4 1.4-5.2-3.3-3.5zM286.6 741.3c-2.4 1.7-1.3 3.7 2 3.7 2 0 2.5-.4 2.2-2.2-.4-2.7-1.8-3.2-4.2-1.5zM480 741.5c-1.1 1.3.2 4.5 3.6 9.3.1.2 2 .5 4.3.6 4.8.4 6.2-.9 6.4-5.6.2-2.7-.2-3.4-2.1-3.6-1.7-.3-2.5.2-2.9 1.7-.7 2.8-1.6 2.6-3.6-.9-2-3.3-3.8-3.8-5.7-1.5zM499.1 741.6c0 1.1.3 1.4.6.6.3-.7.2-1.6-.1-1.9-.3-.4-.6.2-.5 1.3zM463.5 743.6c-2.2 2.3-1.5 5.8 1.2 6.2 1.7.3 2.6-.4 3.3-2.4 1.9-4.9-1-7.3-4.5-3.8zM435.7 748.4c-.7 1.7 1.9 5.6 3.7 5.6 1.8 0 2.8-2.7 2.1-5.1-.7-2.2-5-2.6-5.8-.5zM370.3 749.6c-.7 2 2.2 4.5 4.4 3.7.8-.3 1.3-1.5 1.1-2.7-.4-2.7-4.5-3.5-5.5-1zM320.6 749.8c-1 1.6.5 7 2.3 8.6 2.8 2.6 4.4.5 3.4-4.5-.7-3.4-1.3-4.5-3-4.7-1.2-.2-2.4.1-2.7.6zM363.4 750.5c-.7 1.7 1 6.5 2.3 6.5 2.6-.1 3.7-2 2.7-4.7-1.1-3.2-4.1-4.3-5-1.8zM298.4 752.6c-.9 3.5 1.8 6.3 4 4.4 1.9-1.5 2.1-4.1.4-5.8-1.9-1.9-3.7-1.4-4.4 1.4zM208.2 752.6c-1.2.8-2.7 1.2-3.3.9-1.6-1.1-5.6.3-6.3 2.1-1.5 3.8 4.3 8.1 7.1 5.3.8-.8 1.3-.8 1.7 0 .9 1.5 3.9 1.4 5.4-.1.7-.7 2.8-1.1 4.7-1 3.2.3 3.4.1 4-3.2 1.2-5.9-1-7.2-5-3.1l-2.5 2.4v-2.4c0-2.9-2.4-3.3-5.8-.9zM288.4 752.4c-.8 2.1 4.5 9.6 6.7 9.6 2.4 0 2.4-2.1-.1-7-2.1-4.1-5.5-5.4-6.6-2.6zM311.1 751.9c-1.6 1-.8 4 2 6.9 3.6 3.9 6.4 2.1 4-2.6-.5-.9-1.2-2.5-1.5-3.5-.6-1.8-2.3-2.2-4.5-.8zM0 758.5c0 3.2.3 5.5.7 5.2.3-.4 1.4 0 2.2.8 2.7 2.3 6.5-.2 6.9-4.5.3-4.7-.8-6.1-5.7-6.7l-4.1-.6v5.8zm7.5.5c.3.5.1 1-.4 1-.6 0-1.1-.5-1.1-1 0-.6.2-1 .4-1 .3 0 .8.4 1.1 1zM76.4 754.4c-1.1.8-3 1.2-4.5.9-1.5-.3-3 0-3.3.6-.4.6-2 1.1-3.5 1.1s-3.6.6-4.6 1.4c-1.8 1.3-1.8 1.5.9 5.2 4.8 6.4 5.5 6.7 9.2 3.9 2.8-2.1 3.4-2.3 4.4-1 1.6 1.9 3.5 1.9 5.4-.1 2.9-2.8 1.7-13.4-1.4-13.4-.3 0-1.5.6-2.6 1.4zM100.2 754.5c-1.9 1.4-2.1 2.2-1.5 6.3 1.1 8.9 7.3 11.5 7.3 3.1 0-2.6 1.3-2.4 2.5.3 1.4 3.2 4.7 2.9 5.9-.4 1.4-4-1.6-8.1-5.5-7.6-2.2.3-3.3 0-4-1.4-1.2-2.2-1.8-2.2-4.7-.3zM183.8 754.1c-2.2 1.2-2.3 2.9-.4 2.9.8 0 1.7.8 2.1 1.7.3 1 1.8 3.3 3.3 5.2 2.2 2.6 3.3 3.2 5 2.7 3.5-1.2 2.8-5.2-1.7-9.7-4-4.1-5.4-4.5-8.3-2.8zM333.1 754.3c-.8 1.1-.6 1.8.9 3.2 1.9 1.7 2.2 1.7 3.7.3.9-.9 1.3-2.4 1-3.2-.8-2-4-2.1-5.6-.3zM225.3 757c-3.2 1.3-2.9 3.2.4 2.8 1.7-.2 2.9-1 3.1-2.1.4-1.9-.2-2-3.5-.7zM390.2 757.1c-2.2.8-2.3 1.3-1.9 6.2.3 2.8.9 6.7 1.2 8.5.7 3 1 3.3 3.9 3 2.5-.2 3-.7 2.7-2.3-.2-1.1-.4-4-.5-6.5-.2-3.8-1.9-10.1-2.8-9.9-.2 0-1.4.4-2.6 1zM90.8 758.1c-1 .5-1.8 1.5-1.8 2.2 0 .7-.9 1.8-2 2.5-2.7 1.7-2.5 3.1.6 4.2 3.7 1.5 8.4-2.3 8.1-6.5-.2-3.2-2.1-4.1-4.9-2.4zM284.5 758.6c-1.5 1.5-1.5 1.9-.1 3.2 1.7 1.7 4.6 1 4.6-1.1 0-.8-.6-2-1.4-2.6-1.1-.9-1.8-.8-3.1.5zM171.2 760.3c-3.3 1.5-2.2 3.1 2.4 3.5 2.1.2 4.3.7 4.9 1.2.5.4 2.4 1 4 1.2 2.4.2 3.1-.1 3.3-1.8.5-3.5-9.6-6.4-14.6-4.1zM353.7 760.3c-1.6 1.1-1.6 1.4-.3 3.2 1.4 1.9 1.6 1.9 3.2.3.9-.9 1.4-2.4 1.1-3.2-.8-1.9-1.8-2-4-.3zM369.3 760.7c-2 .7-1.5 2.7 1.1 5.2 1.4 1.3 3 3.6 3.7 5.3 1 2.4 1.6 2.8 3.3 2.3 1.2-.4 3.1-.9 4.4-1.2 2.5-.6 2.7-1.9 1.1-7.4-1.9-6-6.7-6.5-5.5-.5l.6 3.1-3.1-3.8c-3.1-3.8-3.4-3.9-5.6-3zM472.1 767.4c-1.6 1.9-.5 7.9 2 10.9 1.6 2 1.9 2 3.3.7 1.4-1.5 1.3-3-1-11.8-.5-1.6-2.9-1.5-4.3.2zM7.5 768.1c-.4.6-.5 1.3-.2 1.6.7.7 2.7-.6 2.7-1.8 0-1.2-1.7-1.2-2.5.2zM462.7 767.6c-1.4 1.4-.7 4.3 2.4 10.3 2.1 4 3.7 6.1 4.9 6.1 2.9 0 2.9-2.1 0-9.5-1.9-4.9-3.3-7.1-4.7-7.3-1-.2-2.2 0-2.6.4zM342.4 769.5c-.4.9-.4 3.6 0 6.1.6 4.9-.8 5.3-1.8.4-.6-3.4-2.9-4.8-5-3.1-2.1 1.8 1.4 11.5 4.3 11.9 1.2.2 2.4-.3 2.7-1.2.7-1.8 3.5-2.1 5.1-.5 1.8 1.8 5.3.1 5.3-2.7 0-1.4.7-4.1 1.5-6.1 1.1-2.6 1.2-4 .5-4.7-1.6-1.6-4.2.5-5.6 4.5l-1.2 3.4-.6-3c-1.3-5.7-4-8.3-5.2-5zM483.4 769.5c-1 2.5.8 3.6 3.5 2.2 3-1.5 2.9-3.1-.4-3.5-1.6-.2-2.7.2-3.1 1.3zM224.5 771.7c-1.1.3-2.5.9-3.1 1.4-.5.4-2 .6-3.1.3-1.5-.4-3 .2-4.7 1.9-2.5 2.5-2.5 2.5-3.8.5-1.2-1.8-1.9-1.9-4.4-1.1-3.7 1.2-4.1 3.2-1.3 6.7 1.7 2.2 2.8 2.7 5 2.2 1.7-.3 3.2 0 3.9.9 1.6 1.9 3.4 1.9 5 0 .8-1 1.7-1.2 2.9-.6 1 .6 2.3.5 3.4 0 .9-.6 2.1-.8 2.6-.4 1.5.9 6.1-1.3 6.1-3 0-2.1-3-3.1-4.1-1.4-.6 1.1-1.1 1.1-2 .2-1-1-1-1.8-.1-3.8.7-1.4 1.2-3 1.2-3.5 0-1-.3-1.1-3.5-.3zM301.3 772.2c-.6.7-1.6 3.1-2.3 5.2l-1.3 4-1.1-3.4c-2.4-7.2-7.2-6.5-6 .9.8 4.8 4.1 7.4 6.8 5.2 1.1-.9 1.5-.8 2 .4.7 1.9 5.5 2 6.2 0 .4-.8.1-2.1-.5-2.9-.7-.8-.9-3.1-.5-6 .6-3.7.4-4.6-.8-4.6-.9 0-2 .6-2.5 1.2zM453.3 771.7c-1.8.7-1.6 3.8.2 5.3 2 1.7 4.7-.5 4.3-3.4-.3-2.1-2.2-2.9-4.5-1.9zM63 774c0 .5.5 1 1 1 .6 0 1-.5 1-1 0-.6-.4-1-1-1-.5 0-1 .4-1 1zM164 773.7c-2.3.9-3 2.6-1.7 4.1.9 1.1.7 1.7-.8 2.8-2.8 2.1-.8 5 3.1 4.6 1.6-.1 4-.3 5.4-.3 1.4 0 4.1-.7 6-1.6 1.9-.9 4.2-1.6 5.1-1.7 1.8-.1 5.9-4.6 5.9-6.4 0-1.8-1.9-2.3-4.1-1.1-1.6.8-2.7.8-4.5-.2-1.9-.9-3-1-4.9-.1-1.8.8-3.2.9-4.5.2-2-1.1-2.7-1.1-5-.3zM310 775c-2.4 2.4-2.6 6-.5 10 1.7 3.2 4.5 3.9 6.5 1.5.9-1.1.8-1.9-.4-3.7-1.1-1.5-1.4-3.3-1-5.4.7-4-1.7-5.3-4.6-2.4zM325.2 774.2c-1.8 1.8-1.5 4.1.4 3.4.9-.3 1.8-.6 2-.6.8 0 .4-2.9-.4-3.4-.5-.3-1.4 0-2 .6zM.1 779.5c0 4.6.1 4.8 1.4 3.1 1.6-2.2 1.6-2.2 3.3 1.6 1.3 3.1 4.2 3.8 4.2 1 0-1 .5-2.3 1.1-2.9.8-.8.8-1.7-.1-3.3-1-1.8-1.8-2.1-4.2-1.6-2.3.4-3.4.1-4.4-1.1-1.2-1.6-1.3-1.2-1.3 3.2zM86.8 776.6c-1.6.8-2.8 1.8-2.8 2.3 0 .4-1.4.6-3 .3-1.7-.2-3.6 0-4.3.6-.9.8-1.6.6-2.6-.9-.9-1.6-1.8-1.9-3.9-1.4-3.8.9-4.3 1.7-3.6 5.3 1 4.7 3.8 5.9 6.8 2.9l2.5-2.5 1.1 2.9c1.3 2.9 3.3 3.6 5.9 2 1-.7 2.3.1 4.6 2.5 3.5 3.7 5.9 4.3 7.3 1.9.7-1.4 1.2-1.3 3.6.6 3.3 2.6 6.1 1.6 6.2-2.2 0-1.3.8-3.6 1.8-5.1 1-1.5 1.6-3.9 1.4-5.5-.3-2.4-.8-2.8-3.7-3.1-6.3-.6-10.7 3.4-7.5 6.9 1.5 1.6 1.4 1.7-.5 1.2-2-.5-2.6-2.3-2.1-6.7.2-1.8-1.5-3.6-3.5-3.5-.5 0-2.2.7-3.7 1.5zM191.2 776.6c-2.6 1.8-2.8 3.2-.6 4.1.8.3 2.5-.4 3.9-1.7 3.8-3.6 1.2-5.6-3.3-2.4zM360.1 777.3c-1.7 2.1-.3 4.9 2.3 4.5 1.5-.2 2.1-1 2.1-2.8 0-2.8-2.6-3.8-4.4-1.7zM486.4 781.4c-.9 2.4 0 5.1 1.8 5.4 1.9.4 5.3-4.2 4.3-5.8-.9-1.5-5.5-1.2-6.1.4zM385.8 786.1c-1 .5-1.8 2-1.8 3.2-.1 2-.2 2-1.6-.6-1.5-2.8-4.5-3.6-6.2-1.5-1.2 1.7 2.1 9.6 4.4 10.5.9.3 2.4.1 3.4-.5 1.2-.7 2.1-.7 2.8 0 1.6 1.6 3 .1 4.2-4.2 1.7-6.3-.8-9.5-5.2-6.9zM111.7 788.3c-1.2.8-1.8 2.2-1.5 3.8.3 2.1.8 2.4 3.8 2.1 6.1-.4 8.2-6.4 2.5-7-1.7-.2-3.8.3-4.8 1.1zM424.2 788.2c-2.4 2.4-.6 10 2.6 11.3 2 .8 4.4-1.5 3.6-3.4-.4-.9-.7-3.2-.8-5.1-.1-2.7-.6-3.6-2.1-3.8-1.1-.1-2.6.3-3.3 1zM414.5 789.4c-1.5 1.1-1.6 1.5-.2 4.8 1.6 3.8 5.1 5.8 7 3.9.7-.7.5-2.2-.8-5-2-4.5-3.6-5.5-6-3.7zM212.5 792.1c-3.8 3.4-4.6 7.3-1.7 8.7 5.3 2.8 13.2 1.9 13.2-1.4 0-1.3-.7-1.5-3.6-.9-3.6.6-3.6.6-3.1-2.2.3-1.5.8-3.8 1.2-5.1 1.1-3.3-1.7-2.9-6 .9zM436 794c0 4.7 2.4 6.5 4.6 3.5 2-2.7 1.7-4.5-.6-4.5-2.5 0-2.6-1.7-.2-2.3 1-.3.6-.5-1-.6-2.6-.1-2.8.2-2.8 3.9zM201.8 792.4c-1.8 1-3 1.1-3.4.5-.7-1.3-5.6-.2-6.6 1.4-.7 1.2 1.5 6.1 3.2 7.2.6.4 1.6.3 2.3-.2.7-.5 3-1.1 5.2-1.2 4.6-.3 5.6-1.4 5.3-5.6-.3-3.5-2.2-4.1-6-2.1zM370 793c-2.3 1.5.8 6.5 4 6.5 3.1 0 3.8-2.9 1.4-5.6-1.9-2.1-3.2-2.3-5.4-.9zM166.2 794.6c-2.7 1.8-2.8 3.1-.5 5.7 1.7 1.8 1.7 1.9 0 2.8-1.9 1.1-2.1 1.8-.8 3.8.7 1.1 1.3 1 3.5-.4 1.4-1 2.6-2.3 2.6-3 0-.7.7-1.6 1.6-1.9.9-.3 1.4-1.2 1.1-2-.4-.9.2-1.2 2-.8 1.8.3 3-.1 3.9-1.3 2.6-3.5-1.1-5.9-5.6-3.5-1.3.7-2.1.7-2.5 0-.9-1.4-2.7-1.2-5.3.6zM397 794.5c-.7.9-1 1.8-.7 2.1 1 1.1 3.7-.5 3.7-2.1 0-1.9-1.4-1.9-3 0zM7.3 795c-1.3.5-2.3 1.3-2.3 1.8 0 1.5 2.4 3.2 4.7 3.2 1.8 0 2.3.6 2.3 2.4 0 5.7 3.3 3.6 4.4-2.8.7-3.6.6-3.8-1.3-3.3-1.1.3-2.5-.1-3.2-.9-1.3-1.6-1.6-1.6-4.6-.4zM319.2 797.2c-.6.7-1.4 2.6-1.7 4.1l-.7 2.8-2.2-2c-2-1.8-4.3-2.5-7.4-2.2-2.4.2-.8 4.5 2.1 5.9 1.8.9 3.6 3 4.7 5.8 2.1 4.8 2.2 4.9 5.3 3.3 1.1-.7 3.7-1.2 5.7-1.3 3.3-.1 3.5-.3 3.8-3.6.2-2 1.4-4.6 2.9-6.2 4.2-4.5.1-6.8-5-2.8l-2.6 2-.3-3.2c-.3-3.5-2.7-4.8-4.6-2.6zM78.1 798.4c-1.4 1.7.2 3.2 3.9 3.8 1.9.2 2.6 1 2.8 3 .4 3.1 2.1 3.9 7.5 3.4 3.9-.3 7.7-2.9 7.7-5.3 0-1.2-.9-1.3-3.9-.8-3.6.6-4 .4-4.3-1.7-.2-1.8-.9-2.3-3.5-2.3-1.7 0-3.5-.3-3.9-.8-1.2-1.2-5.1-.8-6.3.7zM287.7 798.7c-1.3 1.3-.7 3.7 2 7.5 1.8 2.8 3.3 3.8 4.7 3.6 3.1-.4 3-3 0-7.6-2.5-3.9-5.1-5.2-6.7-3.5zM457.2 799.2c-1.4 1.4.2 3.8 2.6 3.8 2.7 0-.2 2.1-4 2.9-2.8.6-3.3 1.1-3.3 3.6 0 2.9-.2 3-5.5 3.6-3 .4-6.3 1-7.2 1.4-5.3 2.1 1.9 9.5 9.6 9.8 5.7.3 3.7 2.9-3.4 4.3-10.8 2.2-13.1 4.1-9.4 7.8 1.1 1.2 3.6 1.6 9.5 1.6 5.2 0 7.8.4 7.4 1-.4.6-1.2 1-1.8.8-2.1-.4-9.1 1.3-11.4 2.7-2.6 1.8-2.1 4.8 1.5 8.8 2.9 3 4 3.3 6.6 1.4 1.8-1.3 1.7-1.5-.9-3.9-3.4-3.2-2.6-4.8 2.5-4.8h3.8l.6 5.2c2.3 23 2.7 24.3 6.1 23.6 3.6-.7 4-3.2 2.2-14-1-5.7-1.7-10.8-1.7-11.4 0-.7 4.3-1.1 13.3-1 11.6.1 13.6-.1 16.7-1.9 4.7-2.8 5.3-6.7 1.3-8.3-4.6-1.9-16.2-3.3-24.3-3.1-4.3.1-7.3-.2-7-.7.3-.5 3.6-.8 7.3-.6 7.4.3 10.6-1 8.6-3.4-.8-1-3.5-1.4-8.5-1.4-6.8 0-9.8-1-7.4-2.5.6-.4 5.7-.7 11.3-.7 5.6 0 10.8-.5 11.5-1.1 2.2-1.7-.7-3.7-5.5-3.7-4 0-4.4-.2-3.8-2 .8-2.5-.1-2.9-8.6-3.8-5.1-.6-6.4-1.1-6.7-2.6-.6-2.9 1-3.5 5.3-2.1 3.5 1.3 4.4 1.2 7.5-.3 4.1-2 5.4-6.7 2.4-8.9-2.3-1.7-15.6-1.7-17.2-.1zm9.8 3.8c1.1.7.7 1-1.8 1-2 0-3.1-.4-2.7-1 .8-1.3 2.6-1.3 4.5 0zm-15 15c0 .5-.7 1-1.5 1s-1.5-.5-1.5-1c0-.6.7-1 1.5-1s1.5.4 1.5 1zm14.9.6c.2.2-1.2.4-3.2.4s-3.7-.4-3.7-1c0-.8 5.8-.3 6.9.6zM452.5 833c-.3.5-1.3 1-2.1 1s-1.2-.5-.9-1c.3-.6 1.3-1 2.1-1s1.2.4.9 1zm26.8 4.9c7.4 1 8.6 1.6 7 3.2-1.5 1.5-15.7 2.3-20.8 1.2-4.9-1.1-6-3.9-1.8-4.6 4.9-.7 8.6-.7 15.6.2zM0 804c0 5.1.6 6 2.8 3.8 1.9-1.9 1.5-6.6-.8-7.8-1.9-1-2-.8-2 4zM492.6 801.6c-.9.8-1.6 2.2-1.6 3.1 0 1.1-.6.7-2.1-1.1-2.2-2.8-4.1-3.3-5.7-1.3-1.1 1.3-.4 3.1 3.7 8.4 1.9 2.6 2.9 3 5.8 2.8 4.6-.5 5.8-1.7 4.3-4.5-.9-1.6-.9-2.5-.1-3.3 1.6-1.6 1.3-4.4-.5-5.1-2.1-.8-2-.8-3.8 1zM107.8 803.2c-3.1 1.1-3.6 2.9-1.2 5.2 2.7 2.7 6.4 1.2 6.4-2.5 0-2.6-2.1-3.8-5.2-2.7zM499.2 807c0 1.9.2 2.7.5 1.7.2-.9.2-2.5 0-3.5-.3-.9-.5-.1-.5 1.8zM333 806.9c-.7 1.5-.6 2.3.6 3.5.8.9 2 1.6 2.4 1.6 1.5 0 4.3-4.8 3.5-6-1.1-1.7-5.4-1.1-6.5.9zM350.5 806c-1 1.7.3 4.4 3.9 7.9 2.2 2.1 4.1 3.1 5 2.8 2.4-1 1.9-3.4-1.6-7.8-3-3.8-6-5-7.3-2.9zM283.5 807.6c-1.5 1.5-1.5 1.8.1 3.5 2 2.2 3.7 2.4 5.2.6.9-1 .7-1.9-.4-3.5-1.8-2.6-2.7-2.7-4.9-.6zM362.1 809.2c-1.1 2.9 1.2 7.8 3.7 7.8 3.2 0 4-1.8 2.7-5.8-1.6-4.5-5-5.6-6.4-2zM208.8 810.7c-5.2 2.7-5.5 3.6-3.4 8.8 1.4 3.3 3.6 4.8 3.6 2.4 0-.6.7-.8 1.7-.5 2.2.9 3.3-1.1 2.6-4.6-.3-1.7-.1-2.8.6-2.8.6 0 1.1 1.8 1.1 4.3 0 5.4 2.3 7.9 5.9 6.6 1.8-.7 2.2-1.4 1.7-3.4-.4-1.7-.2-2.5.7-2.5 1.9 0 5.7-4.3 5.7-6.4 0-1.3-.5-1.6-1.7-1.1-4 1.8-8.7 1.2-10.6-1.2-2.2-2.7-1.9-2.7-7.9.4zM373.7 810c-3.2 2.6-3.5 5.6-.6 6.5 1.6.5 2.7 0 4.5-2.1 4.2-5.1 1.2-8.4-3.9-4.4zM385.1 813.1c-3.4 3.3-3.3 4.9.2 4.9 2.5 0 9-5.7 8.2-7.1-1.2-1.9-5.4-.8-8.4 2.2zM181.8 813.2c-.7.7-3 1.4-5.1 1.4-5.4.2-6.5 1.6-4.4 5.9 1.6 3.3 4.2 4.6 4.9 2.5.2-.6 1.8-.3 4 .8 2.5 1.3 4.1 1.6 5.3 1 1.2-.7 2-.5 2.9.7 1.7 2.4 7.1 1.7 7.1-1 0-1.7-.6-1.9-3.2-1.7-4.2.4-4.4-1.6-.3-2.5 2.1-.4 3.2-1.3 3.6-2.9.9-3.4-.2-4.3-4.1-3.7-2.3.4-3.5.2-3.5-.6 0-1.5-5.5-1.4-7.2.1zM410 815.1c0 4.6 4.6 8 6.5 4.8.5-.7 1.3-.5 2.5.6 1.5 1.4 1.9 1.4 2.9.1.7-.8 1.1-2.5.9-3.8-.2-1.9-.9-2.3-3.5-2.3-1.8 0-3.3-.3-3.3-.7 0-.5-1.3-.8-3-.8-2.4 0-3 .4-3 2.1zM426.1 816.4c-1.3 1.6-.4 4.6 1.4 4.6.6 0 2-.9 3.1-2.1 1.6-1.7 1.6-2.2.4-2.9-2.1-1.3-3.6-1.2-4.9.4zM0 820.1c0 2 .8 3.7 2.2 4.9 2 1.6 2.6 1.7 5 .4 2.9-1.5 3.9-5.4 1.4-5.4-.8 0-1.6-.7-2-1.5-.3-.9-1.8-1.5-3.6-1.5-2.7 0-3 .3-3 3.1zM82 818c-.8.5-2.8 1-4.3 1-3.5 0-6.7 1.6-6.7 3.4 0 1.9 8.6 9.6 10.7 9.6 2.9 0 4.4-1.5 3.7-3.5-.5-1.3-.3-1.6.7-1.3.8.3 1.3 1 1.2 1.7-.4 1.4 4.3 4.5 6 3.8 1.4-.5 5-13.5 4.1-14.8-.6-1-7.8.1-8.2 1.2-.2.5-1 .2-1.9-.6-1.7-1.7-3.2-1.9-5.3-.5zM98.9 821.6c-.9 1.1-1 2-.2 3.2 2.3 3.7 7.3 2 7.3-2.4 0-2-.5-2.4-2.9-2.4-1.6 0-3.4.7-4.2 1.6zM306.7 828.3c-.3.7.8 4.2 2.5 7.6l3 6.2 4.6-.3c4.6-.3 4.7-.3 4.8-3.9.1-2 .4-4.1.8-4.7.6-1.1-1.9-4.2-3.4-4.2-1.3 0-4 3-4 4.3 0 .7-.8-.4-1.8-2.3-1.8-3.7-5.5-5.2-6.5-2.7zM328.2 828.2c-.5.7-1.7 2.7-2.6 4.5-1.4 2.9-1.4 3.3 0 4.7 2 2.1 2.7 2 5.1-.7 2.9-3.1 4.5-6.6 3.9-8.3-.7-1.7-5-1.9-6.4-.2zM197.8 828.7c-1 .3-1.8.9-1.8 1.4 0 .5-.7.9-1.6.9-2.5 0-7.4 3.9-7.4 6 0 2.8 3.2 6.2 5.3 5.5.9-.4 1.7-1.3 1.7-2.1 0-2.3 1.8-1.6 2.2.8.2 1.9 1 2.3 4.3 2.4 2.2.1 5.1.4 6.5.6 2.2.3 2.5-.1 2.8-3 .2-1.7.7-3.2 1.1-3.2 1 0 2.2-3.5 2.4-6.9.2-2.4-.1-2.5-6.8-2.6-3.8-.1-7.8 0-8.7.2zM366.3 828.7c-1.8.7-1.6 4.9.2 7.7 1.3 1.9 2.4 2.3 6.2 2.2 4.1-.1 4.8-.4 5.3-2.6 1.1-4.2-2.8-6.8-5.8-3.8-.8.8-1.4.5-2.1-1.5-1.1-2.7-1.5-3-3.8-2zM296.6 830.9c-1 1.6.3 3.6 3.5 5.5 4.3 2.6 5.8.8 2.8-3.3-2.2-3-5.2-4-6.3-2.2zM382.5 832.5c-3 2.9-3.1 4.1-.6 5.4 2.1 1.2 3.8.1 6.4-4 2.7-4.5-1.7-5.6-5.8-1.4zM404.3 832.1c-1.3 1.3 1.3 7.5 4 9.7 1.7 1.5 4.7.5 4.7-1.4 0-1.1.5-1.2 1.8-.5 2.4 1.3 4.2-.4 4.2-3.6s-4.7-3.3-5.9-.1c-.8 2.2-.9 2.1-2.4-1.5-1.6-3.8-4.2-4.8-6.4-2.6zM353.8 832.7c-3.8.9-1.9 4.1 3.8 6.7 3.1 1.4 6 2.3 6.5 2 1.6-1 .9-3.2-1.6-4.8-5.6-3.6-7.1-4.3-8.7-3.9zM97.1 839.9c-2.1 1.4-.5 4.3 2.1 3.9 1.5-.2 2.3-1 2.3-2.3 0-2.2-2.2-3-4.4-1.6zM76.1 840.9c-1.1.7-1.1 1.5-.2 4.4 1.7 4.9 3.5 6.3 6.6 4.9 1.4-.7 2.5-1.6 2.5-2.1s.9-.7 2-.4c2.5.7 5-1.3 5-3.9 0-2.4-2.5-3.3-5.5-2-1.8.8-2.6.8-3.5-.4-1.4-1.6-4.8-1.8-6.9-.5zM0 849.6c0 3 .2 3.4 1.4 2.5.8-.7 1.2-2.1.9-3.2-.9-3.5-2.3-3.1-2.3.7zM390.4 849.5c-1 2.5 1 3.9 3.6 2.5s2.2-3.4-.8-3.8c-1.3-.2-2.5.3-2.8 1.3zM354.7 849.7c-.4.3-.7 2.2-.8 4.2 0 2-.3 3-.6 2.3-.2-.6-1.8-1.2-3.5-1.2-2.2 0-3.1.6-3.5 2-.5 2-.6 2-2.5.3-1.5-1.3-2.3-1.5-3.6-.7-2.8 1.8-2.5 4.6.8 8.7 3.6 4.2 5 4.5 9.1 1.7l2.8-2.1 1.3 2.1c1.5 2.4 2.6 2.5 4.9.4 1.4-1.2 2.1-1.3 3.7-.3 2.5 1.5 5.5.5 5-1.8-.3-1.3-1.3-1.8-4-1.8-2 0-3.8-.2-4.1-.5-.3-.3-.2-2.6.2-5.1.4-2.6.4-5.6 0-6.8-.8-2-3.8-2.9-5.2-1.4zM328.8 850.7c-2.2.5-2.4 4.1-.2 5 .8.3 2.3-.2 3.2-1.1 1.4-1.4 1.4-1.8.2-2.9-.8-.8-2.3-1.2-3.2-1zM371 851.5c-.9 1.1-.8 2 .6 4.5 3.3 5.5 8.5 4.8 6.1-.9-2.2-5.3-4.3-6.5-6.7-3.6zM380.7 850.6c-1.4 1.4-.7 5.1 1.3 6.9 1.8 1.6 2.2 1.7 3.5.4 2-2 .6-7.3-2.1-7.7-1.1-.2-2.3 0-2.7.4z"/><path d="M471.2 851.3c-1 1.1-.9 1.7.2 2.6 2 1.7 5.8.4 5.4-1.7-.4-2.2-4.1-2.7-5.6-.9zM428.3 854c-1.2.5-2.4 1.8-2.8 2.9-.3 1.2-1.2 1.8-2 1.5-.7-.3-2.3-.1-3.4.6-1.6.8-2.1 2-2.1 5.4 0 2.6.6 4.8 1.5 5.6 2.1 1.8 3.7.2 3-3-.6-2.7 1.1-7 2.7-7 .4 0 .5 1.9.2 4.3-.5 3.4-.2 4.7 1.2 6.1 1.7 1.8 1.8 1.8 3.1 0 .8-1.1 1.1-3 .8-4.5-.4-1.5.1-4.4 1-6.5 1.9-4.5.5-6.8-3.2-5.4zM200 856.6c-.6 1.4-1 3.4-1 4.5 0 1.9-.1 2-2.9.3-1.9-1.1-3.8-1.5-5.6-1-2.2.6-2.6 1.1-2.1 3.1.5 2.1.3 2.4-2.3 2.3-3.2-.1-5.1.8-5.1 2.5s6.8 8.7 8.4 8.7c2.3 0 3.7-2.7 3.1-5.7l-.7-2.8 2.9 3.2c2.3 2.6 3.5 3.1 7.3 3.2 2.4 0 5-.5 5.7-1 .8-.7 1.9-.6 3.5.5 3.8 2.5 5.1.7 5.2-7.4.2-8.1-.8-9.4-5.4-6.7-3 1.8-4 1.4-4-1.8 0-4.7-5.4-6.2-7-1.9zM404.4 857.3c-.2.7.2 3 1.1 5.1 1.3 3 2 3.6 3.5 3.1 1.4-.4 2-.2 2 .8 0 .8.7 2.1 1.6 2.8 2.5 2 4.6-1.4 3.8-6.1-.9-4.7-2.1-6.1-4.9-5.4-1.3.3-2.6.1-2.9-.5-1-1.5-3.6-1.4-4.2.2zM394 858c-1.3.9-1.2 1.2.4 2.5 3.4 2.6 6.3 1.5 5-1.9-.7-1.8-3.2-2.1-5.4-.6zM495.5 859c-.3.5-1.9 1-3.5 1s-3.1.4-3.5.9c-.7 1.2 3.4 4.1 5 3.5.6-.3 1.8.2 2.5 1.1 2.4 2.9 4 1.8 4-3 0-3.8-.3-4.5-1.9-4.5-1.1 0-2.3.4-2.6 1zM95.2 861.9c-.8.4-2.9.6-4.9.4-3.7-.4-6.7 1.2-5.9 3.2.3 1-.2 1-2.5.2-2.1-.8-3.4-.8-4.6-.1-2.9 1.8-2.6 3.2 1.4 6.9 4.2 3.9 8.2 4.6 9 1.6.5-2.2 3.1-3.1 8.6-3.1 3 0 3.9-.5 4.7-2.4.5-1.3.7-3.2.5-4.2-.2-1.1-.4-2.2-.4-2.7-.1-1-4.3-.9-5.9.2zM308 862.7c0 2.1 3.7 9.5 5.3 10.5.6.3 1.6.4 2.3.1.8-.3 2.1.2 2.9 1.1 2.2 2.2 4.6 2 5.2-.4.5-2 .5-2 3 0 3.5 2.7 6.8 1.1 5.8-2.8-.3-1.5-1.2-3.3-2-4.1-1.7-1.8-6.2-.7-6.8 1.7-.3 1.1-.5.7-.6-1-.2-5.2-5.6-7.3-6.3-2.5-.3 2-.5 1.9-1.8-.8-1.8-3.6-7-4.9-7-1.8zM221.8 864.7c-1 .2-1.9 1.2-1.9 2.1-.4 5.2 1.1 8.2 4.1 8.2 3 0 4.1-2.4 3.2-6.6-.8-3.9-2-4.7-5.4-3.7zM335.1 866.9c-1.9 1.2-.6 4.3 1.6 3.9 1-.2 1.8-1.2 1.8-2.2 0-2.2-1.4-2.9-3.4-1.7zM231.8 869.1c-2.4 1.3-2.3 4.2.2 6.4 3 2.7 5.2 1.2 4.8-3.2-.3-4-2-5.1-5-3.2zM105.1 870.4c-1.6 1.9 1.2 4 4.4 3.2 3.7-.9 3.4-4.6-.4-4.6-1.6 0-3.4.6-4 1.4zM385 871.8c0 1.3-.8 1.7-3.2 1.7-2.6 0-3.3.4-3.3 2 0 1.5.8 2.1 3.4 2.3 2 .2 3.7-.2 4.2-1 .7-1 .9-1 .9-.1 0 .8 1.4 1.3 3.5 1.3 4 0 4.5-1.5 1.9-5.5-2-3.1-7.4-3.6-7.4-.7zM281.2 872.2c-.6.6-1.2 2.2-1.2 3.5 0 2 .5 2.3 3.9 2.3 3.8 0 3.8 0 3.2-3.3-.7-3.5-3.6-4.8-5.9-2.5zM293 872.8c-1.6.5-4 3.1-4 4.4 0 .4 2 .8 4.5.8 3.8 0 4.5-.3 4.5-2 0-2.2-2.7-4-5-3.2zM301.7 873.6c-.4.4-.7 1.6-.7 2.6 0 1.5.8 1.8 4.6 1.8 4.6 0 4.6 0 3.2-2.2-1.5-2.3-5.7-3.6-7.1-2.2zM12.2 875.2c-2.1 2.1-1.4 2.8 2.9 2.8 3.3 0 4-.3 3.7-1.8-.4-2.1-4.8-2.8-6.6-1zM169.8 876c-1.8 2-1.7 2 2.8 2 3.8 0 4.5-.3 4.2-1.8-.5-2.5-4.9-2.7-7-.2zM250.3 874.7c-2.8 1.1-1.3 3.3 2.2 3.3 2.8 0 3.5-.4 3.5-2 0-2-2.6-2.6-5.7-1.3zM259.3 875.6c-2.5 1.1-1.2 2.4 2.3 2.4 2.4 0 3.4-.4 3.2-1.3-.5-1.3-3.5-1.9-5.5-1.1zM399.7 875.7c-1.6 1.5-.4 2.3 3.4 2.3 3.6 0 4-.2 2.9-1.5-1.3-1.5-5.1-2-6.3-.8zM440.3 875.7c-2.6 1-1.2 2.3 2.3 2.3 3.1 0 3.5-.2 2.4-1.5-1.3-1.5-2.5-1.7-4.7-.8zM22 877c-1.1.7-.7 1 1.8 1 2 0 3.1-.4 2.7-1-.8-1.3-2.6-1.3-4.5 0zM67.5 877c-1.7.7-1.5.9 1.3.9 1.7.1 3.2-.4 3.2-.9 0-1.2-1.7-1.2-4.5 0zM108 877c-1.2.8-.9 1 1.3 1 1.6 0 2.6-.4 2.2-1-.8-1.2-1.6-1.2-3.5 0zM339.5 877c-.4.6 1.2 1 4 1s4.4-.4 4-1c-.3-.6-2.1-1-4-1s-3.7.4-4 1zM150.3 877.7c.9.2 2.5.2 3.5 0 .9-.3.1-.5-1.8-.5-1.9 0-2.7.2-1.7.5zM449.3 877.7c.9.2 2.5.2 3.5 0 .9-.3.1-.5-1.8-.5-1.9 0-2.7.2-1.7.5z"/></svg>