<svg version="1" xmlns="http://www.w3.org/2000/svg" width="666.667" height="1170.667" viewBox="0 0 500 878"><path d="M252 15.5c-1 1.3-1 1.9.4 3.4 1.5 1.7 1.5 2.2-1.1 7.9-1.6 3.4-3 6.1-3.3 6.2-.3 0-1.8-2.5-3.3-5.6-2.5-5.1-2.7-5.8-1.2-7.3 3.1-3.5 1.3-5.1-5.9-5.1-6.2 0-7.3 1.7-3.7 5.5 1.7 1.6 4.4 6.4 6.2 10.5 2.5 6 2.9 7.8 2 9.2-1.8 2.8-.5 3.8 5 3.8 6.3 0 9.6-1.5 7.8-3.6-.9-1.1-.4-3.1 2.2-9.6 1.8-4.6 4.4-9.5 5.7-11 3.7-4 2.4-5.8-4.1-5.8-3.7 0-5.9.5-6.7 1.5zM241 239c-3.8.4-8.7 1.6-11.4 3-5.7 2.7-11.6 7.6-11.6 9.5 0 .8-.8 2-1.7 2.7-6.1 4.6-7.7 8.7-9 22.9-.4 5.2-.2 5.9 2.7 9.2 1.7 2 5.7 5.1 8.8 6.8 7.5 4.3 11.4 7.5 13.1 11 1.2 2.7 1.1 3.2-1.2 6.2-1.4 1.8-3 5.2-3.6 7.5-.7 2.3-2.3 6.5-3.7 9.3-2.6 5-4.6 14.4-6.4 28.9-.5 4.1-1.4 9.7-1.9 12.5-.6 2.7-1.3 16-1.6 29.5-.3 13.5-.9 29.2-1.4 35-.8 11.5-.6 64.1.4 78.5.3 4.9.6 15.4.5 23.2 0 8.5.4 14.4 1 14.8.6.4.7 1.1.3 1.8-.3.6-.7 2.7-.9 4.6-.9 16.7-1.6 37.7-1.6 47.8V616l-7.2-.6c-3.9-.3-9.6-1.3-12.6-2.1-5.1-1.4-5.3-1.6-3.2-2.6 1.7-.8 3.2-.7 5.5.2 1.8.7 4.1 1.3 5.2 1.2 1.1 0 3.3-.1 4.9-.1 1.6 0 3.3-.5 3.8-1.2 2.5-4-1.1-9.4-5.7-8.6-2.9.6-2.9.5-1.4-3.7 1.4-3.8.8-7-2.5-11.7-1.3-2-2.7-5.1-3.1-6.9-1.3-6-4.4-11.9-6.1-11.9-.9 0-3.2 1.6-5.1 3.6-3.9 4.2-5.1 3.8-3.5-1.2 1-3.2.9-3.6-1.3-4.4-1.3-.5-2.6-1.4-3-1.9-.3-.6-1.6-1.1-2.9-1.1-1.2 0-2.7-.5-3.4-1.2-.9-.9-1.6-.8-2.9.5-1.4 1.3-1.5 2.1-.5 4.2 1.8 3.9 1.5 4.4-2.2 3.8-4.6-.7-5.7 1.4-2.2 4.2 3.9 3.1 1.6 4.2-3.3 1.7-4.6-2.4-7.8-1.4-6 1.9.9 1.7 1.3 1.8 2.6.7 1.4-1.2 1.5-.7.9 4.5l-.7 5.7 3 .6c2.6.6 3.1 1.1 3.1 3.5 0 3.7-2.2 3.8-4.8.2-2-2.7-2.1-2.7-6.7-1.5-5.4 1.4-17.5.6-17.4-1.2 0-.6.4-2 .8-3.1.5-1.2.4-2.6-.2-3.4-.6-.7-1.2-4.9-1.2-9.1-.1-10.3-1.2-11.6-10.2-12.2-5.5-.3-6.9-.8-8.7-2.9-3-3.6-7.2-5-16.1-5.4-4.2-.2-7.9-.6-8.3-1-.9-.9-2.3-13.2-2.3-20.1.1-5.6-.2-6.2-3-8.3-1.6-1.2-4-2.3-5.2-2.3-1.2-.1-2.8-.6-3.5-1.2-1.4-1-14.1-1-17.5 0-2.5.8-4.7 6.7-5.4 15.1-.7 8.4-2 10.7-1.9 3.3.1-3.7-.4-5.4-2.2-7.3-6-6.4-15.3-2.9-19.8 7.3-2.3 5.3-4.3 7.1-6.6 5.9-1.5-.8-2.4-.5-4.7 2-1.6 1.7-3.6 3.1-4.5 3.1-2.1 0-3.6 3.1-3.6 7.7 0 2.2-.7 4.8-1.5 5.9-.9 1.2-1.2 3.1-.9 4.9.5 2.8.2 3.1-2.8 4l-3.3 1-.3 19.3-.2 19.3 3.1-1.7c2.6-1.3 3.6-1.4 5.5-.3 2.1 1.1 3.2.8 9.1-2.2 5.1-2.6 6.9-4.1 7.7-6.4 1-2.8 3.3-6.1 9.2-13.3 1.9-2.3 2.4-2.4 3.8-1.3 2.5 2.1 1.9 4-2.9 8.7-4.9 4.7-5.7 7.1-2.4 7.6 1.9.3 1.5.9-2.9 5.5-4.3 4.5-5.6 5.3-8.7 5.3-6.8 0-13.3 4.6-10.5 7.4.8.8 2 .6 4.1-.7 1.7-.9 4.6-1.7 6.5-1.7 2.5 0 5-1.1 8.9-4 3-2.2 6.4-4 7.5-4 1.1 0 4.3-2.1 7-4.6 4.7-4.4 6.1-4.6 4.1-.6-4.1 8-4.5 9.2-3.4 10.3.6.6 1.8.9 2.6.6 2.3-.8 7.6-9.7 8.3-13.6.3-2 1.4-5.2 2.5-7.2 1-2 1.9-4.4 1.9-5.3 0-.9.6-1.6 1.3-1.6 1.6 0 4.7 3.1 4.7 4.7 0 1.9 3 3.6 6.9 3.9 4 .2 12.1 3.8 12.1 5.3 0 1-6.9 2.5-7.7 1.7-.3-.3-1.4-.1-2.3.4-1.4.8-2.7 0-6.3-3.6-4-4-4.8-4.4-6.7-3.4-3.1 1.6-3.4 3.5-1.6 8.1 1.4 3.5 1.5 4.1.2 3.6-1.8-.7-6.2 2.6-7.1 5.3-.3 1-2.8 3.3-5.6 5-4.8 2.9-5.7 5-2.1 5 .9 0 4.2-1.6 7.2-3.5s6.4-3.9 7.5-4.4c3.1-1.4 7.5-5.8 7.5-7.6 0-1.8 2.3-2 5-.3 1.6 1 2.3 1 3.6-.3 1.1-1.2 2.3-1.4 4.2-.8 3.6 1 15.9 3.1 19.9 3.3 1.8 0 3.8.7 4.4 1.3.7.7 2 1.3 2.8 1.3.8 0 2.3.7 3.3 1.7 1.5 1.3 2.3 1.4 4.3.5 1.5-.7 2.5-2 2.5-3.2 0-1.3.7-2 2-2 1 0 2.8-.9 3.8-2.1 1.7-1.8 2.4-1.9 5.8-1 2.2.6 4.8 1.7 5.9 2.4 1.1.8 4.9 1.7 8.5 2 5.5.5 6.8.3 8.6-1.4 2-1.9 2.1-1.9 7 1.3 5.9 3.8 12.8 5.1 16.4 3.3 2.1-1.1 3.2-1.1 6.5.1 4.3 1.4 8.1 2 18.8 2.9 9.5.8 9.7.9 9.7 6.6 0 4-.3 4.9-1.7 5-1 0-4.3.4-7.3.9-5.4.9-20 2.4-33.5 3.5-3.8.3-7.6 1.2-8.5 1.9-2.6 2.3-13.9 4.4-30 5.6-8.5.6-20.4 1.5-26.5 2.1-6 .5-18.2 1.4-27 1.9-13.1.7-16.8 1.2-20.2 2.9-2.3 1.2-5.2 2.1-6.5 2.1-1.2 0-7.7 1.1-14.3 2.4-6.6 1.3-16 3.1-21 4.1C2.6 660.8 0 661.9 0 664.8c0 2 .4 2.3 2.3 1.8 10.2-2.9 33.4-7.1 43.7-8 3.9-.3 13.4-3.1 16.4-4.7 1-.6 8.8-1.5 17.5-2 8.6-.5 18.3-1.1 21.6-1.4 11.1-.9 20-1.5 28.2-2 4.4-.2 11.4-1.1 15.5-2 4-.8 8.3-1.5 9.6-1.5 1.2 0 4.8-1.1 8-2.4 3.2-1.3 9.9-2.9 15.2-3.5 5.2-.7 12.5-1.6 16.2-2.1 3.7-.6 9.2-1 12.2-1 4.7 0 5.6.3 5.6 1.8s-1.8 2.1-12.7 3.6c-7.1 1-13.9 2.3-15.1 2.7-4.8 1.8-17 3.9-28.7 4.8-6.6.6-14.5 1.5-17.5 2-3 .6-9.1 1.2-13.5 1.5-4.4.2-10.9.9-14.5 1.5-3.6.6-10.1 1.1-14.5 1.1-10.6.1-35.8 3.4-41.5 5.5-11.1 4.1-17.3 5.8-29 8.1-6.9 1.3-15.3 2.9-18.8 3.6-5.9 1.1-6.2 1.3-6.2 4.1 0 2.1.4 2.8 1.4 2.4.8-.3 5.2-1.1 9.8-1.7 4.6-.6 10.3-1.7 12.8-2.4s5.1-1.1 5.8-.9c.7.3 1.8.1 2.5-.5.7-.5 3.7-1.2 6.7-1.6 3-.4 6.4-1.3 7.5-2 3.9-2.5 16.1-5.9 24-6.8 4.4-.4 15-1.2 23.5-1.7s17.5-1.4 20-1.9c2.5-.6 8.6-1 13.5-1 5-.1 10.4-.6 12-1.3 1.7-.7 7.3-1.5 12.5-1.9 12.8-1 22.8-2.6 28.1-4.4 2.4-.9 5.4-1.6 6.7-1.6 1.3 0 6.8-1.1 12.4-2.5 12-3 12.8-3 12.8-.7 0 1.4-1.9 2.2-9.7 3.9-5.4 1.2-12.7 2.7-16.3 3.3-3.5.7-7.6 1.8-9 2.5-1.4.7-5.9 1.7-10 2.1-9.9.9-12.3 1.8-11.5 4.4.5 1.6.2 2-1.9 2-1.8 0-2.5-.6-2.8-2.2-.3-2-.9-2.3-4.8-2.2-2.5 0-8.3.6-13 1.3-4.7.7-11.6 1.4-15.5 1.6-3.8.1-9 .8-11.5 1.4-2.5.5-9 1-14.6 1.1-7 0-10.6.4-12 1.4-1 .8-1.6 1.7-1.2 2.1 2.7 2.7 23.7 2.6 29.1-.2 1.7-.9 5.2-1.3 9.5-1.1 3.7.1 9.6-.1 13.2-.5 5.9-.6 5.6-.5-3.8 1.8-5.6 1.3-13 3.6-16.5 5.1-3.4 1.4-8.2 3.3-10.7 4.1-2.5.8-6.7 2.3-9.3 3.3l-4.8 1.9-.9-2.2c-.4-1.2-1.1-3-1.4-3.9-.3-.9-1.6-2.4-3-3.3-2.2-1.5-3.2-1.5-7.8-.5-10.5 2.5-16.7 7.4-22.7 18.2-2.4 4.3-4 5.9-5.9 6.3-1.5.4-7.4 1.7-13.2 3.1-5.8 1.3-14.8 3.2-20 4.2-8.5 1.5-9.5 1.9-9.8 3.9-.4 2.7-.6 2.7 8.3.8 3.9-.9 9.7-2 13-2.6 3.3-.5 8-1.8 10.5-2.8 2.5-1 6.5-2.2 8.9-2.6 5-.8 5-1.8.4 10.5-2.1 6-2.7 9.3-2.8 16.1v8.6l-4.3-1.9c-5-2.2-10.5-2.5-14.7-.7-1.6.6-6.6 1.7-11 2.3l-8 1.1-.3 3.4-.3 3.3 4.5-.6c5.8-.9 6.4.3 3.7 6.7-1.6 3.8-2.6 4.9-5.1 5.3l-3 .6v18.4c0 18.3 0 18.4 2.2 18.1 1.7-.1 2.3.5 2.8 2.8 1.2 5.4 4.2 10.6 7.1 12.1 1.6.8 2.9 1.9 2.9 2.4 0 1.5-3.8 2.2-6 1-1.2-.6-3.5-1-5.3-.8l-3.2.3-.3 25.2C.1 849.6.2 861 .5 861c.4 0 2.1-1.1 3.9-2.5 2.8-2.1 4.4-2.5 10.2-2.5 7.5 0 11.4-1.7 11.4-4.9 0-2.4-1.8-3.8-5.5-4.3l-3-.4 3-.7c7-1.8 8-2.9 7.8-8.6-.4-7.8 1.9-6 3.4 2.8 1.6 9.9 4.9 22.3 6.6 25.8 2.5 4.7 12.4 12.3 16 12.3 2.9 0 35.4-25 45-34.5 5.9-5.9 8.1-7.5 8.9-6.7.7.7 2.7 1.2 4.6 1.2 2.6 0 4.3-.9 6.9-3.5l3.5-3.5h10.5c12.3 0 23.2 1.4 28.8 3.8 2.2.9 7.4 3.8 11.5 6.5 6.3 4 8.2 4.7 11.5 4.5l4-.3v-47l-3.2-4c-3.6-4.5-6.3-11.2-6.3-15.9-.1-1.7-.7-6-1.5-9.6-1.3-6.1-1.2-6.6.5-8.5 1.2-1.3 2.1-4.3 2.6-8.2l.6-6.2 14.9-.3 14.9-.3v5.8c0 5.7 0 5.8 3.6 7.3 2.2.9 6 1.4 9.3 1.3l5.6-.3v6.5c0 8.3 2.4 11.6 11.5 15.5 5.4 2.4 7.8 2.8 14.3 2.8l7.7-.2v2.8c0 1.5.8 3.4 1.8 4.2 2.2 2 10.9 5.8 13.3 5.8 2.9 0 7.9 4.9 7.9 7.7 0 1.4 1 4.1 2.1 6 1.7 2.8 1.9 3.9 1.1 5.6-.6 1.2-1.3 3.2-1.7 4.4-.8 3-5.1 5.5-10.1 5.8-2.3.2-4.6.5-5.1.8-.5.3-4 1.3-7.8 2.1-3.9.9-8 1.8-9.2 2.1-1.3.3-3.5 2.4-5 4.6l-2.7 4.1 2.7 2.2c7.1 5.6 8.6 6.5 13.2 7.2 2.8.4 9.3.9 14.5 1 5.2.1 13.8.5 19 .7 5.2.3 9.9.2 10.5-.2.5-.5 3.3-.8 6-.8 9.1.1 11.5-1.4 14.1-8.6.5-1.3 1.3-1.7 3.3-1.3 3.2.7 10.2-1.6 11.6-3.8.7-1.1.5-2.6-.5-4.8-.7-1.8-1.3-5.3-1.2-7.8.1-3.6-.4-5.2-2.9-8.3-3-3.7-3-3.8-2.2-11.8l.8-8 10.2-.2 10.1-.2 4.9-4.1c5.4-4.6 6.6-8.7 3.9-12.9-.9-1.4-1.6-4.2-1.6-6.3 0-2.1-.5-4.3-1-4.8-1.6-1.6 1.7-7.4 4.1-7.4 1.1 0 4-1.9 6.5-4.3 3.3-3.1 4.4-5.1 4.6-7.6.3-3.9 0-3.8 10.6-4.5 10.3-.7 10.1-1.6 4.1 17.4-.6 1.9-2 5.5-3.1 8-4.8 10.9-6.1 13.7-7.8 17-8.1 15.2-8.4 13.7 4.5 19.6 5.5 2.5 7.2 2.8 19.4 3 7.4.2 14.2-.1 15.1-.6 3.8-2 3.8 1 0 11.8-5.7 16.2-16.5 35-24.4 42.6l-3.1 2.9 2.6 2c5.7 4.2 23.6 10.7 29.6 10.7 4.1 0 4.3-.1 4.3-3.1 0-1.7.4-2.8 1-2.4.5.3 2.2 0 3.7-.8s7.1-2.2 12.3-3.1c12.4-2.3 13-2.5 11-3.6-.9-.5-4.2-.2-8 .6-3.6.9-8.5 1.9-11 2.3-2.5.5-5.3 1.2-6.3 1.6-2.1.9-2.3-1.8-.6-7.4 1.2-4 3.6-5.1 13.6-6.6 2.4-.4 4.6-1.1 4.9-1.7.5-.7-1.2-.8-5.2-.3-8.5 1.2-10.7 1.1-11.1-.1-.9-2.6 2.8-4.4 8.8-4.4 3.6 0 5.9-.4 5.9-1.1 0-.7-2.3-1-6.7-.7-5.7.2-6.8 0-7.1-1.4-.4-2.2 2.1-3.4 8.4-4.2 4.6-.5 5.3-.3 6.6 1.7.9 1.2 1.9 3.3 2.3 4.7.4 1.4 1.9 4 3.3 5.8 1.4 1.8 2.2 3.5 1.9 3.9-.7.6-16.5 2.5-20.4 2.4-2.6-.1-4 1.6-2.5 3.1.8.8 1.6.8 2.4.1.7-.5 2.4-1 3.8-1.1 1.4-.1 6.3-.8 11-1.7l8.5-1.5 3.2 3.8c1.8 2 3.3 4.2 3.3 4.9 0 .7-1.9 1.7-4.3 2.3-2.3.7-7.8 2.3-12.3 3.6-4.4 1.3-9.1 2.4-10.5 2.5-1.3 0-3.3.4-4.4.9-1.3.6.9.9 6.7.9 12.5.1 30.8-4.6 30.8-8 0-1.9-2.2-5.3-7-10.9-8.1-9.4-11.2-17.1-15.4-37.4-1.5-7.5-1.3-9.1 1.5-10.7 2.1-1.1 5.9-7.9 5.9-10.4 0-.9-.9-3.3-2-5.5s-2-5.1-2-6.4c0-2.9 5.5-13.9 12-24 2.5-3.8 6.1-9.9 8-13.5 4.1-7.7 5.6-8.3 17.3-7.8l7.7.4V736h-18.1l-2-3.4c-1.9-3.2-8.1-6.6-13.4-7.2-5.3-.7-18.6-1.6-23.7-1.8-7.2-.1-8.5-1.3-6.4-5.5.9-1.7 2.1-3.1 2.6-3.1.9 0 5-8.3 5-10.2 0-.5 2.7-6.4 6-13.2 9.8-20 12-29.6 8-34.4-3.6-4.3-13.3-6.3-37.5-7.7-17.4-1-30.2 2.9-38.2 11.8-2.9 3.3-3.4 4.5-3 7.1.6 3.9 8.1 19.3 11.7 24.1 2.3 3.1 11 21.6 11 23.4 0 1.2-.7 2.4-1.6 2.8-.9.3-2.2 2-2.9 3.6-1.1 2.6-1 3.6.3 6.4 1 2.1 1.2 3.7.6 4.2-1.2 1.3-10 1.7-15.1.7-4.7-.8-5.2-1.9-5.8-12.1-.2-3.3-.9-8.7-1.4-12-3.7-21.8-5.6-51.3-3.6-54.5.3-.5 1.5-1 2.6-1 3.8 0 12-4.2 11.7-5.9-.3-1.2-1.5-1.6-5.3-1.6-2.8.1-6.3.5-7.9.9-2.5.8-2.8.7-2.3-.8.4-1 .7-5.7.8-10.4 0-8.3.1-8.5 1.3-5.2 1 2.6 1.9 3.5 3.5 3.4 2.1-.1 2.1-.1.2 2-2.3 2.5-1.7 4 2.1 4.9 2 .6 3.5 0 6.6-2.6 2.2-1.7 5.4-4 7.2-5 3-1.6 3.1-1.9 1.7-3.5-1.4-1.6-1.4-1.8.9-2.9 2.1-1 2.6-.8 3.4.8.6 1 .8 1.9.5 1.9-.3 0 .1 1.3 1 3 1.9 3.6 3 3.8 5 .6 1.3-2 1.5-3.9.9-9.8-.3-4-1.3-8.5-2-9.9-.7-1.5-1.1-2.9-.7-3.2.3-.4-.6-1.1-2-1.6s-2.8-1.4-3.1-2c-.9-1.4-9-2.4-13.1-1.7-2.5.5-3.9 1.4-4.5 3-.5 1.3-1.9 2.6-3.2 2.9-1.3.4-3.2 2-4.2 3.7-1 1.8-2.2 2.8-2.7 2.3-1.8-1.8-2.9-25.9-1.3-28.5.3-.5 1.5-.8 2.8-.8 1.2 0 2.6-.4 3.2-1 .8-.8 12.2-2.1 20.4-2.2 13.2-.1 39.6 3.5 50 6.9 10.1 3.3 26.2 12.8 25.8 15.3-.2.9-3 2.1-7.3 3.3-3.9 1-9 2.8-11.5 4.1l-4.6 2.4-4.1-3.8c-4.9-4.6-11.2-6-17.5-3.9-8.3 2.7-12 7.9-12 16.8-.1 8.9-1.1 9.8-14.8 13-2.5.6-5.4 1-6.5.8-2.9-.3-3.3 3.8-.5 5.3 4.1 2.2 20.3-1.6 25.3-5.9 1.7-1.6 4.8-3.2 6.7-3.6 9.1-1.8 11-2.6 11-4.5 0-1-.9-2.2-2.1-2.5-1.6-.5-1.8-1-.9-2 .7-.8.9-2.3.5-3.5-.9-2.9 3-4.3 6.9-2.3 2.8 1.5 2.8 1.5.7 2.9-2.6 1.9-4.4 5.1-3.6 6.4.4.6 2.8-.8 5.7-3.2 7.4-6.3 15.5-11.8 17.4-11.8.9 0 5.5-1.3 10.3-2.9 7-2.4 18.9-4.9 21.1-4.4 7.2 1.6 8 1.5 8-.5 0-2.6-3.5-3.4-12.8-3.1-6.8.3-7.1.2-12.3-3.8-5.4-4.1-18.8-11-24.4-12.4-1.6-.4-5.7-1.5-9-2.4-14.4-4-39.8-5.4-57-3-6.6.9-12.9 1.7-14 1.8-3.1.3-4.5-9.6-4-27.1.4-11.7.2-15.1-1.1-18-.9-2.1-1.8-6.9-2-10.7-.2-3.9-.6-11.3-.9-16.5-.3-5.2-.7-18.3-1-29-.3-10.7-.9-25.6-1.5-33-.5-7.4-1.2-20.7-1.5-29.5-.2-8.8-1.1-23-2-31.5-.8-8.5-1.7-23.6-2-33.5-1-29.8-2.3-36.6-10.3-52-4.3-8.2-5-9-7.7-9.1-1.6-.1-4.6-.9-6.6-1.8-2-.8-6.7-1.8-10.5-2.2-8-.8-11.4-3.1-11.4-7.6 0-6.1-6.8-8.6-14.7-5.3-2 .9-4.4 1.3-5.2.9-1.2-.5-.8-.9 1.4-1.3 2.7-.6 3-1 2.7-4.1-.2-1.9-1.1-4.6-2-6-.9-1.4-1.5-3.5-1.3-4.7.2-1.9-.4-2.4-3.6-2.9-3.1-.5-4.8-1.7-8.8-6.5-8.5-10-21.5-15.1-35.5-13.9zm14.5 7.5c5.2 2.4 6.6 3.5 5.9 4.6-.3.6-2 .1-3.7-.9-6.4-3.8-16.3-5.1-23.6-3.1-.7.2-1.5-.1-1.8-.8-.6-1.7 2.2-2.2 11.2-1.9 5.2.2 9.4.9 12 2.1zm-21.8 6.1c-.3.3-1.2.4-1.9.1-.8-.3-.5-.6.6-.6 1.1-.1 1.7.2 1.3.5zm14.3.4c1.1.7.8.9-1.5.9-1.6-.1-4.1-.5-5.5-.9-2.2-.7-2-.8 1.5-.9 2.2 0 4.7.4 5.5.9zm7.1 1c1 .6 1.9 1.5 1.9 1.9 0 1.3-5.3-.3-5.8-1.7-.5-1.5 1.3-1.5 3.9-.2zm-3.3 7.2c4.4 1.1 5.7 2.1 4.8 3.7-.3.5-3.6-.2-7.3-1.5-3.8-1.3-7.8-2.4-9-2.4-1.3 0-2.3-.5-2.3-1.1 0-1.1 6.6-.5 13.8 1.3zm14.2.9c0 .6-.4.7-1 .4-.5-.3-1-1.1-1-1.6 0-.6.5-.7 1-.4.6.3 1 1.1 1 1.6zm-27.7.4c3.1.4 6 1.2 6.3 1.7.4.7-.9.7-3.7.2-9.7-1.9-20.2 0-25.1 4.6-2.2 2-4.8 2.7-4.8 1.2 0-1.4 9-7.2 11.3-7.3 1.2 0 3.1-.4 4.2-.9s2.9-.7 4-.5c1.1.2 4.6.7 7.8 1zm35.3 5c2.1 1.4 3 2.5 2.1 2.5-1.5 0-7.9-4.9-6.5-5 .4 0 2.4 1.1 4.4 2.5zM245 273c6.4 3 13 5.3 16.9 5.9 8.7 1.4 10.7 3.4 2.6 2.6-6.8-.8-15.6-3.8-20-7-6.3-4.5-16.3-6-20.9-2.9-1.4.8-2.7 1.1-3 .6-1.4-2.3 6-5.4 10.9-4.6 1.7.3 7.7 2.7 13.5 5.4zm7.8-3.4c6.8 1.7 9.2 2.9 9.2 4.6 0 1-.6.9-11.5-2.4-12.2-3.7-10.5-5.3 2.3-2.2zm33.3-.1c.1 1.6-1.6 1.6-3.6 0-1.9-1.5-1.9-1.5.8-1.3 1.5.2 2.8.7 2.8 1.3zm-69.5 5.7c-.9 1.3-1.9 3.1-2.3 4-.6 2-1.9 2.3-2.8.9-.3-.5 0-1.3.5-1.6.6-.4 1.5-1.8 2-3.1s1.7-2.4 2.6-2.4c1.5 0 1.5.2 0 2.2zm26.4 4.5c6.5 3.4 10.4 4.8 14.5 5.1 7 .6 7.2 2.2.3 2.2-6.5 0-11.1-1.6-16.8-5.8-2.5-1.8-5.7-3.6-7.3-3.9-3.4-.7-4.6-2.3-1.7-2.3 1.1 0 6.1 2.1 11 4.7zm-12-.7c0 1.2-2.8 2.5-3.6 1.7-.9-.9.6-2.7 2.2-2.7.8 0 1.4.5 1.4 1zm71.6 2.6c0 1.6.6 3.9 1.2 5.1 1.7 3 .1 2.9-2.8-.2-1.3-1.4-3.1-2.5-4-2.5-.9 0-2.5-.6-3.5-1.4-1.7-1.2-1.5-1.4 2.6-2.9 5.6-1.9 6.4-1.7 6.5 1.9zm-65.1 3.4c1.6.7 1.4.9-1.5.9-1.9 0-4.2-.4-5-.9-1.1-.7-.8-1 1.5-.9 1.7 0 3.9.4 5 .9zm38.5 0c0 .5-.4 1-.9 1-.6 0-1.3-.5-1.6-1-.3-.6.1-1 .9-1 .9 0 1.6.4 1.6 1zm19.6.5c.4.8.3 2.3 0 3.2-.6 1.5-.8 1.5-2.3.1-1.6-1.7-1.2-4.8.7-4.8.6 0 1.3.7 1.6 1.5zm-25.3.2c-.7.2-2.1.2-3 0-1-.3-.4-.5 1.2-.5 1.7 0 2.4.2 1.8.5zm19.1 1.9c.7 1.9-.1 3.4-1.9 3.4-1.8 0-2.8-1.7-2.1-3.5.7-2 3.2-1.9 4 .1zm-67.9 2.4c.3.5.2 1-.4 1-.5 0-1.3-.5-1.6-1-.3-.6-.2-1 .4-1 .5 0 1.3.4 1.6 1zm49 1.8c0 1.8-2 1.5-2.3-.4-.3-1 .1-1.5 1-1.2.7.3 1.3 1 1.3 1.6zm-27.1 2.4c-.1 1.3-.3 3.1-.3 4-.1 1-.5 1.8-.9 1.8-.5 0-.8-1-.6-2.3.1-1.2.3-3 .3-4 .1-.9.5-1.7.9-1.7.5 0 .8 1 .6 2.2zm-4.4 1.5c-.1 2.4-.2 2.6-1.1 1-.5-.9-.7-2.2-.4-2.7 1-1.7 1.5-1.1 1.5 1.7zm7.7 1.5c-.3.7-.5.2-.5-1.2s.2-1.9.5-1.3c.2.7.2 1.9 0 2.5zm72.8-.6c1.1.8 2.7 1.4 3.6 1.4 1.8 0 6.3 4.9 5.4 5.8-.2.3-1.9-.6-3.7-2-3.8-2.9-11.1-4.9-14.9-4.1-2.8.5-4.5-.9-3.4-2.8.9-1.4 10.3-.1 13 1.7zM285 301c1.1.7.7 1-1.8 1-2 0-3.1-.4-2.7-1 .8-1.3 2.6-1.3 4.5 0zm-16.1 2.7c1.3.8 1.9 1.9 1.5 2.3-1 1-8.4-1-8.4-2.2 0-.5-1.9-.8-4.2-.8-3.3 0-3.9-.3-2.8-1.1 2-1.3 10.8-.2 13.9 1.8zm8.3-1.5c-.9.9-1.5.9-2.4 0-.9-.9-.7-1.2 1.2-1.2s2.1.3 1.2 1.2zm42.8.7c1.8 3.5 1.2 4.2-2 2.6-1.6-.9-3-2.2-3-3 0-2.2 3.8-1.8 5 .4zm-21.6 6.6c6.6 6.9 10.3 15.1 12.6 27.5 1.3 7.6 2.3 21.6 1.4 20.7-.5-.5-1.4-6-2-12.2-1.9-18.3-5.7-28-14.3-35.6-3.5-3.2-4.9-4.9-3.8-4.9 1 0 3.7 2 6.1 4.5zm39.1 8.4c1.5 3.8 2.5 7.7 2.3 8.7-.4 1.5-.7 1.2-1.3-1.1-.4-1.7-2-5.6-3.6-8.8-3.2-6.5-3.7-8.6-1.5-6.7.8.6 2.7 4.2 4.1 7.9zm-74.1-3.7c1.1 4.2.5 5.3-.9 1.9-1.8-3.9-1.8-4.1-.6-4.1.5 0 1.1 1 1.5 2.2zm61.6 14.5c.5 7 1.4 17.1 1.9 22.3 1.1 10.1 1.5 29.7.6 28.8-.3-.3-.8-5-1-10.4-.4-10.1-3.1-45.7-4.1-52.9-.4-3.1-.3-3.6.6-2.3.6 1 1.5 7.5 2 14.5zm-83.9-2.1c-.6 3.3-1.1 10.6-1 16.4.1 14.8 0 18.2-.6 18.8-1.5 1.5-1.9-2.3-1.8-17.1.1-12.8.5-17.2 1.8-20.5 1-2.4 1.9-4.1 2.2-3.8.2.2-.1 3-.6 6.2zm24.6 2.6c-.3.7-.5.2-.5-1.2s.2-1.9.5-1.3c.2.7.2 1.9 0 2.5zm-2.7 8.2c0 .3-.4.8-1 1.1-.5.3-1 .1-1-.4 0-.6.5-1.1 1-1.1.6 0 1 .2 1 .4zm78.7 2.8c-.3.8-.6.5-.6-.6-.1-1.1.2-1.7.5-1.3.3.3.4 1.2.1 1.9zm2.1 21.3c-.1 8.7-.1 8.8-.8 3-1.1-8.4-1.1-17.8 0-14.5.4 1.4.8 6.5.8 11.5zm-76.9 1.7c.1.5-.3.8-.9.8-.5 0-1-1.2-.9-2.8 0-2.4.1-2.5.9-.7.5 1.1.9 2.3.9 2.7zm-26.5 9.6c0 3.7-.3 15.7-.7 26.7-.4 11-.9 27.6-1.1 37-.5 21.3-.5 20.3-1.4 18.8-1-1.6-.9-88.5.2-90.1 1.7-2.7 3.1.8 3 7.6zm105.3 19.4c-.2 1.3-.4.5-.4-1.7-.1-2.2.1-3.2.4-2.3.2 1 .2 2.8 0 4zM351 414c0 1.3-.7 2-2 2s-2-.7-2-2 .7-2 2-2 2 .7 2 2zm-2 5.9c0 .6-.4 1.3-1 1.6-.5.3-1-.1-1-.9 0-.9.5-1.6 1-1.6.6 0 1 .4 1 .9zm1.7 5.6c.3.9-.1 2.1-1 2.8-.8.7-1.7 2.1-2 3.2-.3 1.1-.5-.1-.6-2.8-.1-3.6.3-4.7 1.4-4.7.9 0 1.8.7 2.2 1.5zm-1.7 14c0 2.4.6 3.8 2.1 4.5 1.5.9 1.8 1.5.9 2.4-.5.8-.7 2.1-.4 3 .4 1-.1 2.5-1.1 3.6-1.3 1.4-1.5 2.3-.8 3.2 1.6 2 1.3 9.8-.3 9.8-1 0-1.4-1.8-1.5-6.8-.1-3.7-.3-10.7-.5-15.5-.2-5.6 0-8.6.6-8.2.6.3 1 2.2 1 4zm-83.2 29.4c0 5.5-.5 10.5-.9 11.3-.5.7-.9-3.4-.9-10 0-6.2.4-11.2.9-11.2s.9 4.5.9 9.9zm61.1 5.8c0 8.2.3 22.9.7 32.9.5 13.1.4 18.3-.5 18.8-.8.5-1.1-2.2-1.2-9.6-.1-5.7-.4-14.1-.6-18.8-.4-9.4-.4-8.8-.3-21.4 0-4.9-.2-9.7-.5-10.7-.5-1.6.9-5.9 1.9-5.9.2 0 .4 6.6.5 14.7zm-89.2-8.5c-.2 1.3-.4.5-.4-1.7-.1-2.2.1-3.2.4-2.3.2 1 .2 2.8 0 4zm113.7 2.7c.3.5-.1 1.4-.8 2-1.6 1.3-3.2-.2-2.1-1.9.8-1.2 2.2-1.3 2.9-.1zm-113.7 5.8c-.3 1-.5.4-.5-1.2 0-1.7.2-2.4.5-1.8.2.7.2 2.1 0 3zm116.9.4c.2.5-.7 1.1-2.1 1.5-2.9.7-3.2 1.9-.9 3.2 2.1 1.2 1 3.2-1.7 3.2-1.6 0-1.9-.7-1.9-4.3 0-2.4.2-4.6.5-4.9.8-.7 5.4.3 6.1 1.3zm-116.9 10.1c-.3.8-.6.5-.6-.6-.1-1.1.2-1.7.5-1.3.3.3.4 1.2.1 1.9zm27.3 1.3c0 .8-.4 1.5-1 1.5-.5 0-.7-.7-.4-1.5.4-.8.8-1.5 1-1.5.2 0 .4.7.4 1.5zm84.4 2c-.4.8-.8 1.5-1 1.5-.2 0-.4-.7-.4-1.5s.4-1.5 1-1.5c.5 0 .7.7.4 1.5zm-84.9 7.2c-.5 8.4-.4 8-1.4 6.3-1-1.7-.2-11 .9-11 .4 0 .6 2.1.5 4.7zm83.6 1.4c-1 2.3-1 2.3-1-.7-.1-1.7.2-3.4.7-3.8 1.1-1.2 1.4 1.8.3 4.5zm8.9-1c0 .5-.4.9-1 .9-.5 0-1-.7-1-1.6 0-.8.5-1.2 1-.9.6.3 1 1 1 1.6zm-119.4 3.7c-1.2 1.1-1.8-.7-1-3l.8-2.3.4 2.3c.2 1.3.1 2.6-.2 3zm119.2 1.3c-.2.6-.7 1-1.1 1-.4-.1-1.5-.1-2.4-.1-1.5 0-1.6-.2-.3-1 2-1.3 4.3-1.3 3.8.1zm-119.7 5.2c-.8.8-1.1.7-1.1-.4 0-2 1.3-3.4 1.8-1.9.3.7-.1 1.7-.7 2.3zm27.8 12.4c.2 9.5 0 11.4-1.1 10.6-.7-.6-1.3-2.9-1.2-5 .3-17 .5-19.7 1.3-18.5.4.7.9 6.5 1 12.9zm92.6-6.6c0 5.9-.2 6.4-2.2 6.7-2.6.4-3.1-1.3-.7-2.2 1.5-.6 1.5-.8 0-2.5-1.5-1.6-1.5-1.9-.1-3.1 1.1-.9 1.2-1.6.4-2.6-1.2-1.5-.3-3.7 1.4-3.1.8.2 1.2 2.8 1.2 6.8zm-6-4.1c.3.5.1 1-.4 1-.6 0-1.1-.5-1.1-1 0-.6.2-1 .4-1 .3 0 .8.4 1.1 1zM238 521.7c.3 16.7-.1 29.8-1.1 30.7-.5.6-.9-7.1-.8-21 0-13.4.4-21.1.9-19.7.5 1.1.9 5.6 1 10zm120 1.8c0 1.6-3.5 2.1-4.4.6-.8-1.2.4-2.1 2.6-2.1 1 0 1.8.7 1.8 1.5zM72.6 539.1c0 11 .5 15.6 1.7 18.7l1.6 4.1 5.8-.6c3.2-.3 6.8-1.2 8.1-1.9 2-1.4 2.3-1.3 3.1.9 1.3 3.4.6 25.9-.9 28.6-1.1 2.2-1.2 2.2-2.5.4-1.9-2.5-4.8-.6-5.5 3.5-.4 2.5-.8 3-2 2.2-.8-.5-2.7-1-4.2-1-1.6 0-3.6-.9-4.5-2-1-1.2-3-3.3-4.5-4.7-2.1-2.1-2.5-3.2-2.1-5.9.6-3.6-.9-6.4-3.4-6.4-1.1 0-1.1.4-.3 2 1.4 2.7.3 6.3-1.7 5.6-.8-.3-1.9-.6-2.4-.6-.6 0-.7-3.3-.4-8.1.6-7.4.5-8.3-1.6-10.5-2-2.1-2.1-2.9-1.5-10.1.4-4.3 1-12.1 1.4-17.3.4-5.2 1.1-10 1.4-10.5.3-.6 3.7-1 7.5-1h6.8l.1 14.6zm284.2-10.3c.2.7-.7 1.2-2.2 1.2-2.7 0-3.5-1.5-1.3-2.3 1.7-.7 3-.3 3.5 1.1zm-91.3 10.4c-.2 2.9-.3 8.3-.4 12 0 3.8-.4 6.8-.8 6.8-.9 0-1.6-21.8-.7-23.1 1.3-2.2 2.1-.5 1.9 4.3zm92.3-.9c.3 1.6.1 1.7-1.7.7-2.5-1.3-2.8-3.3-.4-2.8 1 .2 1.9 1.1 2.1 2.1zM45 539c0 .5-.8 1-1.7 1-1.5 0-1.6-.2-.3-1 1.9-1.2 2-1.2 2 0zm306.5 1c-.3.5-1 1-1.6 1-.5 0-.9-.5-.9-1 0-.6.7-1 1.6-1 .8 0 1.2.4.9 1zm4.6 8.3c-1.4 1.4-1.7 1-2.6-3.3l-.7-3.5 2.2 2.8c1.7 2.1 2 3.1 1.1 4zm-27.2 19.2c0 5.5-.3 8.5-.8 8-.9-1-1.5-17-1-27 .2-4.5.3-4.3.9 2.5.4 4.1.8 11.5.9 16.5zm34.8-21.3c-.3.8-.6.5-.6-.6-.1-1.1.2-1.7.5-1.3.3.3.4 1.2.1 1.9zm-5.4 7.5c-.7.2-2.1.2-3 0-1-.3-.4-.5 1.2-.5 1.7 0 2.4.2 1.8.5zm-121.6 10c-.2 1.6-.4.5-.4-2.2 0-2.8.2-4 .4-2.8.2 1.3.2 3.5 0 5zM38 560.9c-.6 1.2-1.5 2.1-2.1 2.1-1 0-.5-1.3 1.4-3.8 1.5-1.9 2-.7.7 1.7zm67.1 3.3c1.9 7.6 1.4 29.9-.8 36.1-1.5 4-2.2 4.9-5.4 5.8-5.9 1.8-9.8-1.2-6.6-5 2.5-2.9 7.9-22.4 7.9-28.1 0-1.4-.5-4.7-1.1-7.4-1.2-5.6-.9-6.6 2.4-6.6 2 0 2.5.8 3.6 5.2zm253.5-2.2c.8 0 1.4.5 1.4 1.1 0 1.5-5.3.6-5.8-1-.3-1 0-1.2 1.2-.8 1 .4 2.4.7 3.2.7zm-317.8 5.7c-2.5 5.7-7 12.3-8.4 12.3-1.7 0-1.8-1.2-.3-2.7.6-.6 1.6-2 2.3-3 3.7-6.2 5.9-9.3 6.7-9.3.5 0 .3 1.2-.3 2.7zm196.2 8.5c-.1 6-.3 7.8-1 6.6-.6-.9-.8-4.3-.6-7.5.5-7.5.5-7.3 1.1-7.3.3 0 .5 3.7.5 8.2zm28-4.5c0 2-.3 2.4-1.1 1.6-.7-.7-.9-1.9-.6-2.7 1-2.4 1.7-1.9 1.7 1.1zm95 2.9c0 .9-.7 1.4-1.7 1.2-2.5-.5-2.8-2.8-.4-2.8 1.2 0 2.1.6 2.1 1.6zm-238 2.9c1.6.9 1.9 1.4.9 1.5-.8 0-2.4-.7-3.5-1.5-2.4-1.8-.7-1.9 2.6 0zm-80.7 1c-.3.9-.8 1.4-1 1.1-.3-.3-.2-.9.2-1.5.9-1.6 1.5-1.3.8.4zm223.4 1.7c-.3.7-.5.2-.5-1.2s.2-1.9.5-1.3c.2.7.2 1.9 0 2.5zM15 586.3c0 5-.3 6.8-1 5.7-1.1-1.7-.9-14 .3-13.3.4.2.7 3.7.7 7.6zm301.3-6.8c-.3.9-.8 1.4-1 1.1-.3-.3-.2-.9.2-1.5.9-1.6 1.5-1.3.8.4zm45.1 4.7c.3 1.3.7 4.2.9 6.6.3 2.3 1.4 6 2.6 8.2l2.1 4h-3c-2.5 0-2.9-.4-2.7-2.2.2-1.9-.4-2.4-3.1-2.8-4.1-.6-4.5-2.3-.7-3 2.8-.5 4.9-3 2.5-3-.8 0-1-.9-.6-2.4s0-2.8-.9-3.6c-1.2-1-1.3-1.6-.4-2.6 1.7-2 2.8-1.7 3.3.8zm-96 1.6c.8 2.6.3 14.2-.6 14.2-.9 0-1.1-1.4-1.2-9.7-.1-6.2.7-8.1 1.8-4.5zm51.8 4.4c.4 5.5.1 7.8-1.1 7.8-.4 0-.8-2.9-.9-6.5-.2-7.7 1.4-8.8 2-1.3zm12.8.8c0 .5-.7.7-1.5.4-.8-.4-1.5-.8-1.5-1 0-.2.7-.4 1.5-.4s1.5.4 1.5 1zm-1.7 4.1c-.3 1.2 0 2.5.7 2.9.7.4.9 1.6.5 2.9-.3 1.2-1.1 1.9-1.6 1.6-1.2-.8-1.2-9.5 0-9.5.5 0 .7.9.4 2.1zm-136.4 2.4c1.6-.9 1.3 1.1-.4 2.5-2.5 2.1-4.7.8-5.1-2.9l-.4-3.5 2.4 2.3c1.4 1.3 2.9 2 3.5 1.6zm-12.4 2.1c.8 4.7.1 5.2-2.9 2.3-1.9-1.8-2.2-2.8-1.5-4.1 1.6-2.9 3.6-2.1 4.4 1.8zm-25.5 1.2c1.9 1.2 5.2 2.4 7.5 2.7 4.9.8 11.4 6 9.6 7.8-.9.9-1.6.8-2.9-.1-.9-.7-5.4-3.1-10-5.5l-8.4-4.2-1.9 2.4-2 2.5-3.6-2c-2-1-4.2-1.8-4.9-1.6-1.5.3-2.7-1.5-2.1-3.1.3-.8 2.9-1.2 7.8-1.1 5.7 0 8.2.5 10.9 2.2zm-27.5.2c.3.5.1 1-.4 1-.6 0-1.1-.5-1.1-1 0-.6.2-1 .4-1 .3 0 .8.4 1.1 1zm190.5.6c0 .8-.4 1.2-1 .9-.5-.3-1-1-1-1.6 0-.5.5-.9 1-.9.6 0 1 .7 1 1.6zM117 604c.8 1.5.6 2.1-1.1 3-1.4.8-1.9 1.8-1.6 3.1.7 2.7-.3 2.4-5.2-1.4-4.2-3.1-4.2-3.2-1.6-3.5 1.4-.2 2.9-1 3.2-1.8.8-2.1 5.1-1.7 6.3.6zm213.7 6c.2 3.8-.1 5-1.2 5-1.1 0-1.4-.9-1.1-3.3.3-1.7.5-4 .5-5 .1-.9.4-1.7.9-1.7.4 0 .8 2.3.9 5zm33.3-2.4c0 1-1.2 1.4-4 1.4-2.2 0-4-.5-4-1 0-.6 1.1-1 2.4-1 1.4 0 2.8-.5 3.1-1 .8-1.3 2.5-.3 2.5 1.6zm-98.2 17.9c0 9.8-1 15.3-2.2 12.3-.4-.9-.3-4.4.2-7.8.5-3.3.5-6.3 0-6.6-1-.6-1.1-15.8 0-16.8 1-1.1 2 8.2 2 18.9zM317 608c0 1.1-.4 2-1 2-.5 0-1-.9-1-2s.5-2 1-2c.6 0 1 .9 1 2zm-133.2 1.1l2.7 2.1-3-.8c-3.9-.9-4.6-1.4-4-2.5.9-1.3 1.4-1.2 4.3 1.2zM343 612c0 .5-.4 1-1 1-.5 0-1-.5-1-1 0-.6.5-1 1-1 .6 0 1 .4 1 1zm22.5 14.7c1.2 17.4 1 31.6-.3 32.1-.8.2-.8 1.1-.1 3 1.2 3.2 1.9 11.6 1 12.9-.3.6-1.6 1.3-2.8 1.7-1.7.5-2.3.3-2.3-.8 0-.8.5-1.8 1-2.1 2-1.2 1-3.5-1.5-3.5-3.6 0-3-2.9 1-4.4 1.1-.4 1.5-1 1-1.4-.6-.4-1.5-1.6-2.2-2.8-.9-1.7-.8-2.4.7-3.6 2.1-1.9 1.6-6.8-.8-6.8-1.3 0-1.3-.3.2-1.9 1.5-1.7 1.5-1.9.1-2.5-1.5-.5-1.4-.9.5-3.6l2.1-3h-5.6l2.5-2c2.1-1.6 2.3-2.2 1.3-3.8-.6-1.1-.9-2.3-.5-2.7.4-.4.7-1.8.7-3.1.1-1.9-.4-2.4-2.2-2.4-2.1 0-2.2-.2-1.1-2.3.7-1.2 1.9-3 2.7-4 1.3-1.5 1.2-2-.8-4l-2.1-2.4 2.2-1c3.6-1.7 4.4.5 5.3 14.4zm-48.5-7.5c0 3.9-.3 6.8-.6 6.5-1.2-1.2-1.6-13.7-.4-13.7.6 0 1 2.8 1 7.2zm81.2-.8c1.6 3.7.5 5.2-4.4 5.9-5.4.7-6.3-.2-4.7-4.7 1.1-3.1 1.7-3.6 4.6-3.6 2.6 0 3.6.6 4.5 2.4zm-67.5 9.6c.1 7.4-.2 10.2-1.3 11.1-1.1.9-1.4.6-1.5-1.7-.1-1.6 0-3.4.1-3.9.1-.6.2-4.3.1-8.3-.1-5.1.3-7.2 1.2-7.2.9 0 1.2 2.8 1.4 10zm-95 2.2c-.2 1.8-.4.6-.4-2.7 0-3.3.2-4.8.4-3.3s.2 4.2 0 6zm153.7-1.4c.5.8-5.5 4.2-7.2 4.2-.9-.1 5-5 6-5 .4 0 .9.4 1.2.8zM317 631c0 .5-.2 1-.4 1-.3 0-.8-.5-1.1-1-.3-.6-.1-1 .4-1 .6 0 1.1.4 1.1 1zm-81.9 13.2c0 5.1 0 10.9.1 12.8.3 12.2-.9 57.7-1.6 58.8-.4.7-.7 6.2-.7 12.2 0 9.7-.7 12.8-2.2 10.2-.3-.4-.1-5.7.4-11.7.5-6.1 1.1-24.3 1.3-40.5.5-30 1.4-51 2.2-51 .3 0 .5 4.2.5 9.2zm30.8 16.9c.1 10.1.1 22.1.1 26.6.1 4.7-.3 8.4-.9 8.8-1.2.7-1.2.7-1.5-26-.3-19.9.3-31.4 1.5-29.3.5.8.8 9.8.8 19.9zm62.8-13.4c-.3 1-.5.2-.5-1.7s.2-2.7.5-1.8c.2 1 .2 2.6 0 3.5zm-12 5c-.3 1-.5.4-.5-1.2 0-1.7.2-2.4.5-1.8.2.7.2 2.1 0 3zm-104.4 1.2c-.3 1.3-2.3 2.3-7.3 3.5-3.7.9-8 1.6-9.5 1.6-1.8 0-2.9.6-3.2 2-.8 2.9-7.3 4.4-16.3 3.5-10.7-.9-10.9-1.6-1-3.9 3.6-.8 8.8-2 11.5-2.6 2.8-.6 9.1-2.1 14-3.2 5-1.1 9.4-2.4 9.9-2.9 1.4-1.3 2.5-.1 1.9 2zm217.2 0c2.7.6 2.8.8 1.1 1.8-3.6 2-.7 2.8 10.3 2.7 8.3-.1 11.4.3 12.3 1.3 1.7 2-.5 5.8-4 7.1-2.7.9-2.9.8-2.5-.9.6-2.3-3.5-4.2-8.1-3.7-4.5.5-4.2 2.4.6 3.4 2.4.5 4.2 1.4 4.1 1.9-.7 3.7-40.6 6.7-47.8 3.5-1.1-.4-2.9-1.1-4-1.5-1.9-.7-1.9-.7.4-1.6 1.9-.7 2.2-1.2 1.3-2.1-.7-.7-1.2-1.5-1.2-2 0-1.1 5.6-3.8 6.3-3.1 1 .9 3.6-1.7 3.1-3.1-.4-1 1.5-1.3 8.1-1.2 6.7 0 8.9-.3 10.2-1.7 1.8-1.7 4.5-2 9.8-.8zm-98.6 3.3c0 1.3.2 6.1.5 10.7.3 5.5.1 8-.5 7.4-1.3-1.3-2.1-20.3-1-20.3.5 0 .9 1 1 2.2zm56 4.4c-1.5 1.8-2.2 1.3-1.3-1 .3-.9 1-1.3 1.6-1 .5.3.4 1.2-.3 2zm-173.4 1.7c.8 3.2-.1 71.2-.9 72.6-.5.7-5.5 1.1-14.7 1.1h-14l.5-3.3c2.5-16.3 2.8-20.7 1.7-22.1-.8-.9-3.5-1.2-9.3-.9-10 .4-17 1.9-20 4.3-3.9 3-9.7 4.2-19.4 4.1-10.8-.1-12.9-.8-13.7-4.9-.3-1.6-1.8-4.3-3.2-6.1-2.3-2.7-3.3-3.1-7.6-3.1-4.8 0-4.9-.1-13.1-8.6-4.6-4.8-8.3-9.1-8.3-9.7 0-1.3 3.2-2.9 9-4.7 2.2-.7 7.2-2.8 11-4.6 4.4-2.1 9.2-3.5 12.9-3.9 3.2-.3 9.1-1.5 13-2.7 7-2.2 14.8-2.5 42.1-1.6 4.6.1 14.8-1.2 15.5-2.1 3.1-3.8 8.1-5.8 14.7-6 2.6-.1 3.4.4 3.8 2.2zm-68.7 1.2c-.3.3-1.8.8-3.4 1.1-2.2.3-2.5.2-1.4-.6 1.5-1 5.8-1.4 4.8-.5zm307.2 7.6c0 .6-.7 2.6-1.6 4.5-1.4 2.8-2.2 3.4-4.8 3.4-1.8 0-3.6.4-4.1.8-1 .9-9.7 2.5-20.3 3.8-2.8.3-4.9 1-4.6 1.5 1.2 1.9 13.5.7 26.7-2.6 2-.5 2.7-.3 2.7.7 0 3.4-2.5 4.8-11 5.9-11.5 1.6-12.8 3.2-2.2 2.7 6.2-.2 8.2 0 8.2 1 0 1.7-4.1 3.1-11.1 3.9-4.3.4-5.9 1-5.9 2.1 0 1.2 1.1 1.4 6.5.8 3.7-.4 6.5-.3 6.5.2 0 2.1-3.4 3.5-8.8 3.6-6.9.1-7.6 2-.9 2.4 5.3.3 5.6 1.1 3.2 6.9-1.1 2.6-1.9 3.3-2.6 2.6-.8-.8-.8-1.7 0-3.1.6-1 .7-2.2.4-2.6-1.3-1.3-6.1-.5-8.6 1.4l-2.6 2-2.6-2.4c-1.8-1.6-2.2-2.6-1.3-2.9 1.5-.5-2-2.2-6.5-3.2-1.6-.3-3.1-1.5-3.6-2.8-.5-1.2-2.1-3.3-3.6-4.7-3.2-3-8.5-12.1-8.5-14.6 0-1.1-.9-3.4-2.1-5.3-2.4-3.9-1.5-5.6 2.2-4.3 1.3.6 8.3 1.3 15.4 1.7 7.2.4 13.9 1.1 15 1.6 1.7.7 1.7.8.3.8-1 .1-1.8.8-1.8 1.7 0 1.4.9 1.5 6.8 1 3.7-.4 9.3-1.4 12.5-2.3 4.8-1.3 5.7-1.9 5.2-3.4-.5-1.3-.2-1.7.7-1.4.8.3 2.2-.1 3.3-.9 2.4-1.8 3.5-2 3.5-.5zm-20.7 4.6c-1.3.2-3.3.2-4.5 0-1.3-.2-.3-.4 2.2-.4s3.5.2 2.3.4zm-355.8.9c.9.4 2.3 2.3 3.1 4.4 1.4 3.4 17.9 20 20.1 20 .4 0 1.6 1.9 2.6 4.1l1.9 4-2.5 2.5c-1.4 1.4-3.3 4-4.2 5.9-1.3 2.9-2 3.4-4 2.9-3.5-.9-5.7 3.2-6.3 11.6-.5 7.2-1.7 9-2.8 4.4-.9-3.3.3-13.4 1.8-15.1 1.7-2.1-.4-3.8-3-2.4-3 1.6-4.5 7.4-4 15.2.5 6.3.4 6.9-1.4 6.9-1.1 0-2.3-1.1-2.8-2.6-1.4-3.5-.5-11.1 1.4-13.3 1.8-2 2.9-12.8 1.4-13.7-1.6-1-3.8 1.8-4.9 6.2-.6 2.4-1.5 4.4-1.9 4.4-1.7 0-1.8-4.4-.2-8.6 1.9-5.1.9-7.4-2.6-5.5-1.5.8-2.4 3.2-3.7 10.3-2 11-2.1 18.8-.1 22.7 1.4 2.7 1.4 2.8-2.2 4.4-2.8 1.3-3.8 1.4-4.4.4-1.1-1.8-1-2.7.5-2.7.7 0 1.8-.5 2.5-1.2.9-.9.8-1.6-.5-3-3.2-3.5-1.6-20.2 3.2-33.7 1.9-5.6 1.9-6.1-.4-6.1-2.7 0-3.5 1.5-5.9 11-3.4 13.5-4.2 19.4-3.3 24.9.9 5.6-.2 7.1-1.4 1.8-2.5-11 2-31.9 9.2-42.7 2.6-3.9 2.9-6 1-6s-5.1 3.7-7.6 8.7c-2.5 5-3.3 5.5-2.2 1.5 2.2-7.5 9.6-16.3 17-20.2 4.1-2.2 4.3-2.2 6.6-1.4zM367 680c0 4-7 7-8.3 3.6-.3-.8.1-1.3 1.1-1.2 1 .1 1.8-.8 2-2.1.5-3.6 5.2-3.9 5.2-.3zm-1.4 8.5c-.4 1 .1 1.5 1.4 1.5 1.6 0 2 .7 2.1 3.7 0 6.7 1 15.7 1.9 18.8 1.3 4.3 1.7 26.2.5 27.3-.5.6-2.1 1.3-3.5 1.6l-2.5.7 2.3-2c2.7-2.3 2.8-3.7.5-5-1.6-.9-1.5-1.1.7-1.9 2-.8 2.2-1.1.9-1.7-1.1-.4-1.5-1.6-1.3-4.1.2-3.3.1-3.5-2.2-3-2.4.6-3.3-.7-1.4-1.9 1.8-1.1 1-2.6-1.2-2.3-3.3.5-3.2-1.8.2-3.2 2.4-1 3-1.9 3-4.2 0-1.6-.6-3.9-1.2-5.1-.7-1.2-1.3-3.1-1.4-4.2 0-1.1-.1-3.7-.2-5.9-.2-3.5-.4-3.8-2.7-3.2-1.4.4-2.5.2-2.5-.3s1-1.1 2.2-1.3c3.2-.5 3.5-2.8.4-2.8-3.2 0-3.4-1.7-.3-2.3 4.3-.8 4.9-.7 4.3.8zm-144.2 17.6c-.3.5-1 .7-1.5.3-.5-.3-.7-1-.3-1.5.3-.5 1-.7 1.5-.3.5.3.7 1 .3 1.5zm44.8 27.1c.1 11.4-.2 21.1-.5 21.5-.4.3-.7-3.9-.7-9.4s-.2-16.2-.5-23.9c-.4-10.2-.3-13.3.5-11.5.6 1.4 1.1 11.2 1.2 23.3zm73.3-24.2c.3.5-.1 1-1 1s-1.3-.5-1-1c.3-.6.8-1 1-1 .2 0 .7.4 1 1zM117 713c1 1.8.4 5-.9 5-.3 0-1.5-.7-2.5-1.5-1.1-.8-3.2-1.5-4.8-1.5-3.2 0-3.6-1-1-3.2 3.6-3.2 7.1-2.7 9.2 1.2zm216 0c0 2.2-.5 4-1 4-.6 0-.9-1.6-.6-3.8.5-4.5.5-4.2 1.1-4.2.3 0 .5 1.8.5 4zm-111 .6c0 1.4-2.1 1.9-3.3.7-.9-.9 1.3-3.4 2.4-2.7.5.3.9 1.2.9 2zm94.5 4.1c-1 4-1.7 2-.9-2.3.5-2.4.9-3.2 1.2-2.1.2 1 .1 3-.3 4.4zm-134.2-.2c-.2 1.1-.7 6.3-1.3 11.5-1.6 16.5-2.1 17.3-9.3 15.4-2.9-.8-6.5-1.4-8-1.4s-3-.7-3.3-1.5c-.4-.8.3-5 1.5-9.3 1.2-4.3 2.1-9.5 2.1-11.6 0-4.7 2-5.6 11.5-5.3 6.4.2 7 .4 6.8 2.2zM414 721c0 1.6 0 3.3.1 3.7 0 .4-.4.9-1 1.1-1.5.5-3.3-3.6-2.6-5.8 1-3.2 3.5-2.4 3.5 1zm8 1c0 1.6-.4 3-.9 3-1 0-2.1-4.7-1.3-5.5 1.3-1.3 2.2-.3 2.2 2.5zm7.7 1.4c-.9 2.6-2.7 1.5-2.7-1.6.1-3.1.1-3.2 1.5-1.3.9 1 1.4 2.4 1.2 2.9zM111.5 722c1 1.1 2.6 2 3.7 2 1.7 0 2.5 2 1.2 3.3-.3.3-2.3-.5-4.4-1.9-3.9-2.6-9-3-9.7-.8-.2.7 2.1 2.6 5.2 4.3 3 1.7 5.5 3.5 5.5 4s.8 1.7 1.7 2.7c1.6 1.5 1.6 1.7-.2 3-2.2 1.6-11 1.9-10 .4.3-.6 1.7-1 3.1-1 1.4 0 2.4-.6 2.4-1.4 0-1.5-7.3-5.7-9.2-5.3-1.9.3-2.1-3.5-.3-7.6 1.4-3.4 1.9-3.7 5.4-3.7 2.5 0 4.4.7 5.6 2zm223.5 0c0 1.1-.4 2-.9 2s-1.1-.9-1.4-2c-.3-1.3 0-2 .9-2 .8 0 1.4.9 1.4 2zm-178 1.9c0 6-1.2 9.3-3.1 8.8-2.5-.7-3.5.9-4.3 6.6-.6 3.8-.4 4.8.9 5.3 1.2.5 1.3.9.4 2-.6.8-1.8 1.4-2.5 1.4-1.1 0-1.4-2-1.4-8.9 0-9.2-.5-10.6-3-9.1-1 .6-2 .4-3.1-.6-3-2.7-4.9-.7-4.9 5.2 0 3-.4 5.4-1 5.4s-1-2.8-1-6.3c0-3.6-.5-6.8-1.2-7.5-.9-.9-.2-1.2 3.3-1.2 4.4-.1 15.6-2.3 16.7-3.4.3-.3 1.4-.6 2.4-.6 1.3 0 1.8.8 1.8 2.9zm65.5-.9c.3.6-.1 1.3-1 1.6-1.9.8-3 0-2-1.5.8-1.4 2.2-1.4 3-.1zm118.2.6c-.3.3-1.2.4-1.9.1-.8-.3-.5-.6.6-.6 1.1-.1 1.7.2 1.3.5zm-210.5 2.6c-1.2 1.2-3.5.1-2.7-1.2.3-.5 1.3-.6 2.1-.3 1 .4 1.2.9.6 1.5zm-61.4 2.4c-.5 2-.7 4.6-.4 5.8.3 1.2.1 2.8-.4 3.6-.7 1-1-.6-1-5.1 0-3.6.3-6.9.7-7.2 1.6-1.6 2.1-.4 1.1 2.9zm24.4 7.7c-.3.5-.9.4-1.4-.1-.6-.6-.7-3-.2-6.4l.9-5.3.5 5.5c.3 3 .4 5.9.2 6.3zM426 727c0 .5-.2 1-.4 1-.3 0-.8-.5-1.1-1-.3-.6-.1-1 .4-1 .6 0 1.1.4 1.1 1zm-83 3c0 .5-.4 1-.9 1-.6 0-1.3-.5-1.6-1-.3-.6.1-1 .9-1 .9 0 1.6.4 1.6 1zm107.5 1c-1 1.1-1.6 2-1.4 2.1.2.1 2.3.3 4.5.5 5.9.5 13.8 3.8 14.2 5.9.3 1.5-.1 1.7-3.3 1.1-2.3-.5-4.2-.3-5.1.5-1.4 1.1-26.3 2-32.5 1.1-4.5-.7-3.4-2.2 1.6-2.2 3.7 0 4.5-.3 4.5-1.8 0-1-.6-2.4-1.2-3-1.7-1.7.9-3.5 3.7-2.6 4.2 1.2 5 .9 4.8-1.4-.3-2.1.1-2.2 5.9-2.2 6 0 6.1 0 4.3 2zm14.6.2c2.2.6 3.9 1.5 3.9 2s-.8.7-1.9.3c-1-.3-3.8-1.2-6.2-1.9-3.1-1-3.7-1.4-2-1.5 1.3-.1 4.1.4 6.2 1.1zM223 732.5c0 .8-.7 1.5-1.5 1.5s-1.5-.7-1.5-1.5.7-1.5 1.5-1.5 1.5.7 1.5 1.5zm112.6 5c.1 3-.2 5.5-.7 5.5-.5 0-.9-2.8-.9-6.2 0-7.5 1.2-7 1.6.7zm29.2-5.3c-.6 1.8-2.8 2.1-2.8.4 0-.9.7-1.6 1.6-1.6.9 0 1.4.5 1.2 1.2zM418 734c0 .5-.7 1-1.5 1s-1.5-.5-1.5-1c0-.6.7-1 1.5-1s1.5.4 1.5 1zm-9 3c0 .5-.4 1-1 1-.5 0-1-.5-1-1 0-.6.5-1 1-1 .6 0 1 .4 1 1zm64 .9c0 2-1.7 3.7-2.7 2.8-.7-.8.7-4.7 1.8-4.7.5 0 .9.9.9 1.9zm-130.3-.3c-.3.3-1.2.4-1.9.1-.8-.3-.5-.6.6-.6 1.1-.1 1.7.2 1.3.5zm-201 8.1c-.2 1.6-.4.5-.4-2.2 0-2.8.2-4 .4-2.8.2 1.3.2 3.5 0 5zm79.8-4.6c1 1.5-.1 2.3-2 1.5-.9-.3-1.3-1-1-1.6.8-1.3 2.2-1.3 3 .1zm-178.8 4.3c6.7 4.7 23.8 14.7 30 17.5l5.1 2.4.4 5.6c.2 3.1 0 6.1-.4 6.7-.5.6-.7 2.1-.6 3.4.2 1.8-.5 2.5-3.4 3.6-3.3 1.1-3.8 1.1-3.8-.2 0-.7.9-1.4 2-1.4 2.7 0 3.2-1.5 2.2-7-.8-5-2.9-6-4.8-2.3-.6 1.3-1.8 3.1-2.7 4.1-1 1.1-1.7 3.5-1.7 6 0 3.1-.4 4.2-1.5 4.2-1.4 0-1.5-1.2-.9-8.5.6-7.2.4-8.5-.8-8.5-2.4 0-3.5 2.1-4.2 8-1 7.6-2.5 13-3.7 13-.6 0-.8-1.4-.4-3.3.3-1.7.7-6.8.8-11.2.2-6.9 0-8-1.6-8.3-2-.4-3.5 2.7-1.8 3.8 1 .5.9.9-.2 1.3-1 .4-1.5 2.3-1.6 6.6 0 3.3-.6 7.2-1.1 8.6-1.4 3.7-1.2 7.1.5 8.5 1.1.9 2.9.5 8.9-2.4 4.1-2 8-3.6 8.7-3.6.7 0 3.6-.7 6.4-1.6 5.2-1.7 5.3-1.7 10.8 1 8.2 3.9 13.8 3.2 15.7-1.8 1.1-2.9 9.2-5.1 15.3-4.2 12.3 1.8 18.7 3.2 19.9 4.3.7.8 3.8 1.3 7.5 1.3 6.7 0 12.7 2.2 12.1 4.3-.6 1.8-13.4 8.3-21.8 11-12.4 4-12.9 4.1-13.9 1.4-1-2.5-4.4-3.7-10.3-3.7-4.9 0-9.3 3.1-8.3 5.7.3.9-.5 1.3-2.3 1.3-2.5 0-29-6.5-37.2-9.1-1.9-.6-5.3-1.3-7.5-1.6-2.2-.3-4.9-1.2-6.1-1.9-2.3-1.5-2.3-.4.5-16.7 1.9-10.8-.6-19.5-4.4-15.6-1 1-1.1 2.5-.5 5.9.4 2.5.5 5.2 0 6-.4.8-1.3 6.1-2 11.7-1.2 9.6-2.3 12.3-3.6 8.9-.3-.8 0-4.8.7-8.8 1.1-6.7 1.5-12.4 1.1-19.4-.2-2.1-.6-2.5-2.2-2.1-2.8.7-2.6-1.6.3-2.8 2.7-1.2 3.2-6.1.6-5.9-2.4.2-3.3-8.4-1.2-10.8 1.1-1.2 1.2-2.1.4-3.7-.6-1.1-1.1-2.2-1.1-2.5 0-1.5 3.5-.3 7.7 2.8zm301.6.1c.1.5-.6 1.1-1.5 1.3-1.1.2-1.8-.3-1.8-1.3 0-1.7 3-1.8 3.3 0zm28.3 1.2c-1 1-1.9-.5-1-1.8.6-1.1.8-1.1 1.2 0 .2.7.1 1.5-.2 1.8zm-244.1 1.2c3.6 2 6.4 6.6 5 8-.6.5-2.2 1.2-3.6 1.6-2.4.6-2.5.4-2.2-2.2.9-5.6-.4-5.8-28.4-5.8-13.9 0-25.3-.3-25.3-.8 0-.7.6-.8 8-1.3 2.5-.2 7.7-.7 11.5-1.1 11.4-1.4 31.5-.4 35 1.6zm208.1 8.5c.5 7.7.4 9.7-.5 9.1-.7-.4-1-1.7-.7-3 .3-1.3.2-2.7-.4-3-.5-.3-1-3.8-1-7.8 0-10.3 1.7-7.2 2.6 4.7zM357 746c0 .5-.2 1-.4 1-.3 0-.8-.5-1.1-1-.3-.6-.1-1 .4-1 .6 0 1.1.4 1.1 1zm48.3.6c-.3.8.3 3 1.3 4.9 1.6 3.1 1.7 4.1.5 11.7-1.4 8.7-7.2 30-9.8 35.5-.9 2-2.3 3.3-3.4 3.3-2.8 0-10.9-4.2-10.9-5.7 0-.7 3.2-7.5 7-15 3.9-7.6 7-14.8 7-16.2 0-3.8 6.9-20.1 8.6-20.1.2 0 .1.7-.3 1.6zm26.6-.1c8.9.2 12.7.7 13.9 1.8.9.8 3.1 1.8 4.7 2.2 1.7.4 2.4 1 1.8 1.2-2.1.8-1.5 3 1 3.7 1.2.3 4.1.6 6.4.6 2.3 0 4.4.3 4.6.7.3.5-2.9.8-7.1.8-4.7 0-7.7.4-7.9 1.1-.2.7 1.5 1.2 5.1 1.2 6.3 0 7.8.7 7.4 3-.3 1.4-1.4 1.6-7.1 1.4-5.4-.3-6.7-.1-6.7 1.1 0 1 1.2 1.5 4.1 1.5 3.9.1 6.9 1.5 5.8 2.7-.3.3-3.4.8-6.8 1.1-7.3.8-8 3-.7 2.6 3.9-.2 4.6 0 4.6 1.7 0 2.7-2.3 4.2-6 3.9-4.3-.4-5.3 2-1.1 2.8 6.4 1.3 3.9 6.9-2.8 6.2-2.7-.3-3.9.2-6.4 2.6-2.9 2.9-3.1 3.5-2.8 8.8.1 3.2-.1 5.8-.6 5.8-1.1-.1-4.3-7.2-4.3-9.7 0-1.1.6-2.6 1.4-3.2 2.2-1.8.7-5.1-2.5-5.8-2-.4-2.9-1.2-2.9-2.4 0-1.1-3.8-9.7-8.5-19.3-4.7-9.5-8.5-17.8-8.5-18.5 0-1 1.3-1.1 4.9-.6 2.6.3 10.3.8 17 1zM166.4 748c1.8.6 1.7.8-1 2.5-1.6 1-5.1 3.2-7.9 5-6.4 4-13.6 6.8-25.5 10-9.2 2.4-27.9 4.9-28.9 3.9-.9-.8 2.2-2.4 4.7-2.4 1.3 0 6.9-1.2 12.5-2.6 10.7-2.7 25.2-9.3 32.7-14.8 4.6-3.4 7.5-3.7 13.4-1.6zm55.6.1c0 .5-.9.9-2 .9-1.9 0-2.6-1.1-1.4-2.3.8-.8 3.4.3 3.4 1.4zm-203.9 3.6c-.9 1.6-1 1.5-1.1-.8 0-1.4.3-2.9.8-3.3 1.2-1.2 1.4 2.2.3 4.1zm344.6-1.5c-.3.8-.6.5-.6-.6-.1-1.1.2-1.7.5-1.3.3.3.4 1.2.1 1.9zm-131.7-.3c0 .6-.4 1.3-1 1.6-.5.3-1-.1-1-.9 0-.9.5-1.6 1-1.6.6 0 1 .4 1 .9zm-201.8 1.7c1.1.7-1 21.1-3.6 36.1-1.5 8.3-5.5 16.3-8.1 16.3-.7 0-2.5-1.4-3.9-3-2.5-3.1-3.4-6.7-3.8-17.5-.3-5.6-.2-6 1.8-5.7 1.8.2 2.2-.3 2.6-3.5.3-2.1 0-4.6-.6-5.5-.7-1.2-.7-3.4.2-7.4 1.4-6.9 2.7-8.5 4.6-5.9 1.9 2.7 4.6 1.3 4.6-2.5 0-2.8.2-3 2.8-2.4 1.5.4 3 .8 3.4 1zM70 751c0 1.8-4.9 3.5-6.2 2.2-.9-.9-.5-1.4 1.3-2.1 3.2-1.3 4.9-1.3 4.9-.1zm300 2c-3.7 3.3-5 3.7-5 1.7 0-.7 1.7-2 3.8-2.9 5.1-2.3 5.2-2.2 1.2 1.2zm98-1.5c0 1.1-1.2 1.5-4.9 1.5-2.7 0-5.7-.3-6.7-.7-1.6-.6-1.6-.7.2-1.4 1-.4 4-.8 6.7-.8 3.5-.1 4.7.3 4.7 1.4zm-111 .5c0 .5-.5 1-1.1 1-.5 0-.7-.5-.4-1 .3-.6.8-1 1.1-1 .2 0 .4.4.4 1zm-186.1 6.7c.7 3.8 1.4 8.3 1.8 10.1.5 3.1.4 3.3-1.8 3-2.1-.3-2.4-.8-2.4-4.3 0-3.3-.3-4-2-4s-2 .6-1.8 3.7c.3 4.4-.2 4.6-2.7 1.5-1.6-1.8-2.2-2-3.8-1-1.7 1-2.1.9-2.5-.8-.6-2.4-4.1-2.3-4.3.1-.1.8-.2 1.9-.3 2.4 0 .5-1 .1-2.1-.9-2.7-2.4-4.4-.8-4.2 4 .2 4.6-1.5 4.5-2.4-.1-.5-2.8-1-3.5-2.8-3.2-1.7.2-2.1.9-1.9 3.8.2 2.9.1 3.1-.5 1-1.1-3.6-3.9-3.8-5.4-.3-1.1 2.7-1.2 2.7-1.6.5-.6-3.7.4-5 4.5-5.8 2.1-.4 4.3-1.1 4.9-1.6.7-.5 2.2-1.1 3.5-1.3 3.3-.7 17.7-7.8 21.9-10.9 1.9-1.4 3.8-2.5 4.1-2.6.4 0 1.2 3 1.8 6.7zm52.1-3.6c0 1.2-3.7 1.2-4.4 0-.3-.4-.3-1.1 0-1.4.8-.7 4.4.4 4.4 1.4zm120 2.5c0 .8-.4 1.2-1 .9-.5-.3-1-1-1-1.6 0-.5.5-.9 1-.9.6 0 1 .7 1 1.6zM238 760c0 .5-.7 1-1.5 1s-1.5-.5-1.5-1c0-.6.7-1 1.5-1s1.5.4 1.5 1zm-147 5c0 .5-.5 1-1.1 1-.5 0-.7-.5-.4-1 .3-.6.8-1 1.1-1 .2 0 .4.4.4 1zm322 2c0 .5-.4 1-1 1-.5 0-1-.5-1-1 0-.6.5-1 1-1 .6 0 1 .4 1 1zm-51.3 5.2c-.3.8-.6.5-.6-.6-.1-1.1.2-1.7.5-1.3.3.3.4 1.2.1 1.9zM125 773.6c0 1.4-.3 1.4-1.5.4-.8-.7-1.5-1.4-1.5-1.6 0-.2.7-.4 1.5-.4s1.5.7 1.5 1.6zm223-.6c0 .5-1 1-2.2 1-1.9 0-2-.2-.8-1 1.9-1.3 3-1.3 3 0zm-229.4 3c.1 3.8-2 3.5-2.4-.3-.2-1.7.1-2.7 1-2.7.8 0 1.3 1.3 1.4 3zm-7.6-.1c0 1.1-.4 2.2-.9 2.5-1.1.7-2.3-2.2-1.5-3.5.9-1.6 2.4-1 2.4 1zm41-.9c0 .5-.4 1-1 1-.5 0-1-.5-1-1 0-.6.5-1 1-1 .6 0 1 .4 1 1zm13 0c0 .5-.2 1-.4 1-.3 0-.8-.5-1.1-1-.3-.6-.1-1 .4-1 .6 0 1.1.4 1.1 1zm8 1c0 .5-.7 1-1.5 1s-1.5-.5-1.5-1c0-.6.7-1 1.5-1s1.5.4 1.5 1zm247.2 4c1 1.9 1.8 4 1.8 4.6 0 .7-2.9 1.2-8.1 1.2-7.2.2-8 0-7.7-1.5.2-1.3 1.4-1.9 4.3-2.1 9.6-.6 11.5-2.6 3.5-3.7-6.3-.9-6.5-2.1-.3-2 4.2.1 4.8.4 6.5 3.5zm-325.8 3.5c-.9 2.2-4.1 3.8-4.9 2.4-.8-1.2-.8-1.2 2-2.7 2.8-1.6 3.5-1.5 2.9.3zm253.9 2.6c-1.7 1.7-3.7.1-2.2-1.7.8-1 1.5-1.2 2.3-.4.7.7.7 1.3-.1 2.1zM178.4 793c1.4 2.5 1.4 2.7-4.1 6.9-7.2 5.5-12.5 8.1-24.3 11.6-5.2 1.5-10.4 3.1-11.5 3.5-3 1.2-11.1 3-13.5 3-1.6 0-2.1-.5-1.8-2.2.2-1.9 2.1-2.9 10.3-5.9 16-5.8 22.1-9.5 30.5-18l7.5-7.7 2.7 3.2c1.5 1.7 3.3 4.2 4.2 5.6zm148.6-8.1c0 1.3-2.8 2.2-3.5 1.1-.3-.4.1-1.1.7-1.3 2-.8 2.8-.8 2.8.2zm36 .6c0 .8-1.8 2.4-4 3.5-4.5 2.3-5 2.4-5 1 0-.6.9-1 2-1s2.7-1.1 3.6-2.5c1.8-2.8 3.4-3.3 3.4-1zm-31 1c1.6 1.9.1 1.9-2.4 0-1.6-1.2-1.7-1.5-.4-1.5.8 0 2.1.7 2.8 1.5zm-44.2 2.2c-1 .2-2.6.2-3.5 0-1-.3-.2-.5 1.7-.5s2.7.2 1.8.5zm59.9.9c-.3.3-1.2.4-1.9.1-.8-.3-.5-.6.6-.6 1.1-.1 1.7.2 1.3.5zm71.6.8c-.1.4-.3 1.1-.5 1.7-.2.6-3.6 1.3-7.6 1.5-6.4.3-7.2.2-7.2-1.4 0-1 .2-2.1.4-2.3.7-.7 15.1-.2 14.9.5zm-123.4 3.2c10.2-.4 10.5-.3 7.1 1.1-4.9 2.1-23 .7-23-1.8 0-.5 1.2-.4 2.6.1 1.4.6 7.4.8 13.3.6zm17.6-.6c.3.6-.5 1-1.9 1s-2.8-.5-3.1-1c-.3-.6.5-1 1.9-1s2.8.4 3.1 1zm111.2 3.2c.1 1.3.5 3.4.9 4.7.5 1.8.4 2.3-.7 1.9-1.5-.5-2.4-5-1.5-7.4.8-2 1.2-1.7 1.3.8zm18.7.4c.3.9.6 2.6.6 3.9 0 1.2.7 2.8 1.5 3.5 2.1 1.7.9 3-2.6 3-2.7 0-2.9-.2-2.2-2.8.4-1.5.8-4.2.7-6-.1-3.4 1-4.3 2-1.6zm-33.9 3.4c-.8 1.3-5.3 1.8-6.4.7-1.7-1.7-1.3-2.5 1.7-2.9 2.8-.4 5.5.9 4.7 2.2zm7.3-.7c.3 1.2-.3 1.7-2.1 1.7-3.1 0-4-1-2.5-2.7 1.5-1.8 4.2-1.2 4.6 1zm-94.7 1c-1.3 1.3-2.6.3-1.6-1.2.3-.6 1.1-.8 1.7-.5.6.4.6 1-.1 1.7zM185.8 808c.6 10-.9 28-2.3 28-2.2 0-3.6-8.9-3.2-20.6.4-11.8.9-13.7 3.5-13.2 1.3.2 1.8 1.7 2 5.8zm126.2-4.5c0 .8-.7 1.5-1.5 1.5s-1.5-.7-1.5-1.5.7-1.5 1.5-1.5 1.5.7 1.5 1.5zm10 7.2c0 4.7-.2 8.4-.4 8.2-.9-1.1-1.6-16.9-.6-16.9.6 0 1 3.4 1 8.7zm-16.1-6.4c1.3 1.6.5 2.7-2.1 2.7-1.8 0-2.5-2-1.1-3.3 1-1 1.9-.8 3.2.6zm96.6.7c-.3.5-1.3 1-2.1 1s-1.2-.5-.9-1c.3-.6 1.3-1 2.1-1s1.2.4.9 1zm16.8-.4c1.1 1.2-.4 2.6-1.6 1.6-.7-.6-2.1-1.2-3.2-1.5-1.4-.3-1-.5 1.1-.6 1.7 0 3.4.2 3.7.5zm-243.7 7.6c-.7 8-.9 8.3-3.1 7.5-1.2-.5-1.4-1.7-.9-6.4.7-5.8 1.8-8.3 3.7-8.3.6 0 .8 2.5.3 7.2zM58 807c14.1 4.2 31.3 8.2 35.2 8.2 5.5 0 6.3.8 7.1 6.6.4 3.1.1 4.8-1.3 6.4-1.3 1.6-1.6 3.3-1.2 6 .6 4.9-1.2 4.9-2.4 0-.7-2.7-1.4-3.7-2.9-3.7-1.8 0-2 .7-2 6.9 0 8.7-2 10.1-2.8 2-.7-6.3-1.5-7.8-4.1-6.8-1.6.6-1.7 1.6-1.1 8 .4 4 .4 8.2 0 9.4-1.2 3.7-2.5 2.1-2.5-3.3 0-2.8-.3-6.9-.7-9-.5-3.1-.9-3.8-2.7-3.5-2 .3-2.1.9-2.1 11.4 0 7.8-.4 11.6-1.4 12.8-2 2.4-3.1 1-2-2.7 1.4-4.8 1.1-12-.8-22.4-1.6-8.6-1.9-9.3-4.1-9.3-2.9 0-3.6 1.9-2.3 6.7 1.8 6.5 2.4 25.2.9 30.7-1.4 5.5-4.5 8.1-3.4 2.9 3-13.6 1.7-31.6-3.3-45.8-4.1-11.4-4.4-12.5-4-12.5.2 0 2 .5 3.9 1zm-27.9 3.2c-.6 3-1 3.3-4.8 3.6-2.9.2-4.2-.1-4.6-1.2-.5-1.1.5-1.9 3.6-2.7 2.3-.7 4.6-1.6 5.2-2.1 1.3-1.2 1.3-1.1.6 2.4zm79.3-.6c2.4.9 1.9 2.9-1.1 4.3-3.3 1.5-4.7.2-2.7-2.7 1.7-2.5 1.6-2.4 3.8-1.6zm325.5 3.4c1.4 0 1.4.3 0 7.6-1.6 9-3.7 21.2-4.9 28.4-1.3 7.2-5 23.3-5.6 23.9-.6.7-22.4-8.2-22.4-9.2 0-.4 1.7-2.6 3.8-5 7.2-8 13.7-20.2 20.3-38 4.2-11.6 4.4-11.8 6-9.8 1 1.2 2.2 2.1 2.8 2.1zm-385.5-.2c5.6 10.8 8.3 29.3 6.3 43.4-.7 5.3-1 10.5-.6 11.6.5 1.4.3 2.5-.8 3.3-1.8 1.6-5.6-.2-8.4-4.1-2.3-3-8.4-24.4-9.5-32.6-.6-5.3-.5-5.8.9-4.6 2.8 2.3 3.6.5 3-7.3-.2-4.3 0-8.2.6-9.2.8-1.4 1-.5 1.1 3.9 0 5.1.2 5.8 2 5.8 2.2 0 2.3-.4 2-6.7-.1-3.9.5-6.3 1.5-6.3.3 0 1.1 1.3 1.9 2.8zm264.3 1c.5 5.4.3 8.8-.9 10.9-.8 1.7-.8 2.6.2 3.8 1 1.2.9 2-.5 4.1-2.1 3.3-.7 5 2.3 2.8 1.9-1.3 2.1-1.9 1.1-3-1.4-1.8.4-6.8 2.3-6.2 2.5.9 3.3 3.6 1.8 6.3-1.2 2.2-1.2 2.8-.1 3.4.9.6 1.1 2 .6 5l-.7 4.1-2.5-2c-1.4-1.1-3.3-2-4.2-2-1 0-2.2-.5-2.9-1.2-.9-.9-1.6-.8-2.9.4-3.4 3-6.6 3.2-9.1.4-2.5-3-3.5-3.2-5.2-1.1-1 1.2-1 1.9-.2 2.7 1.4 1.4 1.6 2.8.3 2.8-.5 0-1.8-1.6-3-3.5-2.2-3.7-5.7-4.7-6.8-2-.5 1.4-.7 1.4-2.4 0-1.2-1.2-2.2-1.4-3.5-.7-.9.5-2.5.7-3.6.4-1-.2-2.8.4-3.9 1.4-2.5 2.2-12.6 2.5-13.9.3-2.5-3.9 6.3-8.8 17.2-9.5 15.2-1 21.7-3.6 21.8-8.6 0-2.8 3-3.8 6.6-2.1 2.7 1.3 3.5 1.3 6 .2 1.8-.9 2.9-2.2 2.9-3.4 0-2.6-3.1-3.1-5.5-1-2.4 2.2-5.4 1.6-5.8-1.1-.3-1.8.4-2.2 4-2.8 2.4-.4 5.1-.7 6-.7 1 0 2-.5 2.4-1 .9-1.5 1.9-.1 2.1 2.9zm-146.9.9c-.4 5.2-2.8 5.6-2.8.4 0-3 .4-4.1 1.6-4.1 1.1 0 1.4.9 1.2 3.7zm-8.1 2.5c-.4 4.4-2.8 6.1-3.5 2.5-.6-3 .7-6.7 2.4-6.7 1.2 0 1.4.9 1.1 4.2zm286.3-1.7c0 .8-.6 1.5-1.4 1.5-1.7 0-2.8-1.4-1.9-2.4 1.2-1.2 3.3-.6 3.3.9zm-295 3c0 1.4-.4 2.5-1 2.5-.5 0-1-1.1-1-2.5s.5-2.5 1-2.5c.6 0 1 1.1 1 2.5zm-32.1 1.2c2.6 2.4 2.3 4.9-1 7.9-1.7 1.6-2.2 1.6-2.9.4-1.4-2.3-1.2-2.7 1.6-3.4 1.7-.5 2.4-1.2 2.2-2.4-.3-1.4-1.3-1.6-6.2-1.3-4.3.2-5.7 0-5.1-.9 2-3.2 8.1-3.4 11.4-.3zm24.5-.9c.2.4 0 1.4-.5 2.2-.8 1.3-1 1.3-1.8 0-1-1.5-.6-3 .9-3 .5 0 1.1.4 1.4.8zm302.4 2.9c-.4 2.2-4.8 3.1-4.8 1 0-1.9 1-2.7 3.2-2.7 1.3 0 1.8.6 1.6 1.7zM7.5 824.1c0 .7-.8 1.5-1.9 1.7-2.1.4-4.1-1.2-3.3-2.5.9-1.5 5.2-.8 5.2.8zM166 824c0 1.1-.4 2-1 2-.5 0-1-.9-1-2s.5-2 1-2c.6 0 1 .9 1 2zm8.8.7c.2.8-.5 1.3-1.7 1.3s-2.1-.6-2.1-1.6c0-1.8 3.1-1.5 3.8.3zm150.6 1.5c.7 2.9.8 6.3 0 5.5-.3-.3-.9-2.2-1.4-4.1-.9-3.9.4-5.1 1.4-1.4zm121 2.5c.9 2.3-.2 3.3-3.8 3.3-4 0-4.8-.7-3.6-3 1.2-2.2 6.6-2.4 7.4-.3zm-269.1 5.8c1.9.8 3.7 2.1 4 3 .5 1.2 0 1.1-3.1-.5-7.5-4-8.1-5.5-.9-2.5zm270.7 2.4c0 1.4-1 2-4.7 2.4-5.4.6-6.4.3-5.7-1.8.6-1.4 8.1-3.6 9.7-2.8.4.2.7 1.2.7 2.2z"/><path d="M62.7 529.7c-.3.5-.7 2.9-1.1 5.4-.5 3.4-.3 4.9.8 5.8 2.5 2.1 5.6-2 5.6-7.4 0-4.1-.2-4.5-2.4-4.5-1.4 0-2.7.3-2.9.7zM87.1 566.3c-1.4 1.7-.4 2.7 2.6 2.7 1.6 0 2.3-.6 2.3-2 0-2.3-3.1-2.7-4.9-.7zM77.4 567.4c-.9 2.4.4 4.8 2.3 4.4 1.2-.2 1.8-1.2 1.8-2.8 0-2.9-3.2-4.1-4.1-1.6zM414.2 679.9c.2.7.7 1.2 1.1 1.2 1.2-.1.9-1.5-.3-2-.7-.2-1.1.2-.8.8zM366.5 702c-.3.5-.1 1 .4 1 .6 0 1.1-.5 1.1-1 0-.6-.2-1-.4-1-.3 0-.8.4-1.1 1zM51 763c0 .5.5 1 1 1 .6 0 1-.5 1-1 0-.6-.4-1-1-1-.5 0-1 .4-1 1zM74 831c-1.2.8-1.1 1 .8 1 1.2 0 2.2-.5 2.2-1 0-1.3-1.1-1.3-3 0zM299.1 825.1c-2.8 1.1-2.1 2 2.7 3.9 2.8 1.1 3.5 1.1 4.2 0 1.2-1.9-.7-5-2.8-4.9-.9 0-2.8.5-4.1 1zM485 658.7c-6.6.5-7.8 1.4-8.2 6.1-.2 3-.8 3.8-2.6 4-3 .5-5.8 5.7-4.1 7.9.7.8 2.3 1.3 3.6 1 1.3-.2 2.3-.1 2.3.4 0 .4-1 .9-2.1 1.1-1.2.2-2.7 1.1-3.3 2.1-.9 1.5-.7 2.2 1.3 3.8 1.3 1 1.8 1.9 1.2 1.9-1.8 0-5.1 3.9-5.1 6 0 3.1 3 3.7 5 1 3.4-4.5 4.2-2.2 4.1 11-.1 6.9.2 13 .6 13.6 1.5 2.1 4.1 2.3 5.8.4 1.4-1.6 1.5-2.6.7-6.7-.6-2.7-.8-8.4-.5-12.7.7-8.5 1.6-9.7 6.2-7.9 1.5.5 4.3.8 6.4.5 3.7-.4 3.7-.4 3.7-5.2v-4.7l-8.5.4c-5.2.2-8.5 0-8.5-.6s2.8-1.1 6.2-1.3c3.8-.2 6.3-.8 6.6-1.6.3-.9-1.3-1.2-5.9-1.2-3.4 0-6-.2-5.7-.5.5-.5 7.6-1.4 12.6-1.4 2.5-.1 3.2-.5 3.2-2.2 0-1.1-.3-1.8-.7-1.6-.5.3-2.6.1-4.8-.3l-4-.8 4.8-.1c4-.1 4.7-.4 4.7-2.2 0-1.1-.3-1.8-.7-1.6-.5.3-1.7.1-2.8-.4-1.7-.7-1.7-.8.8-.8 2.2-.1 2.7-.6 2.7-2.5 0-4.3-4.2-5.7-15-4.9zm6.5 3.3c.4.6-.8 1-3 1s-3.4-.4-3-1c.3-.6 1.7-1 3-1s2.7.4 3 1zm-.8 5.4c.4.3-1.3.6-3.6.6s-4-.4-3.7-.8c.5-.9 6.4-.7 7.3.2zm-4.4 4.3c-.7.2-1.9.2-2.5 0-.7-.3-.2-.5 1.2-.5s1.9.2 1.3.5zm7.7 15.7c0 1-1 1.1-4.2.6-2.4-.5-4.6-.6-5-.4-.5.3-.8.1-.8-.5 0-.9 7.6-2 9.3-1.3.4.2.7.9.7 1.6zM60.5 669.7c-1.1.2-2.9.8-4 1.2-1.1.5-4.4 1.9-7.3 3.1-2.9 1.1-7.3 3.6-9.6 5.4-4.1 3.1-5 3.3-14.7 3.9-5.7.3-12 1-13.9 1.6-1.9.6-5.2 1.3-7.2 1.6-3.1.5-3.8 1-3.8 2.9 0 2 .4 2.2 4.9 2.1 2.7-.1 5.7-.7 6.6-1.5 1.2-1 4.8-1.5 11.8-1.7 9.4-.2 10.3-.4 15.1-3.4 2.8-1.8 7.1-4.3 9.5-5.6 2.4-1.2 4.8-2.6 5.5-3.1.6-.5 2.9-1.2 5-1.5 4.3-.7 7.2-2.9 6.2-4.6-.4-.6-1-1-1.4-1-.4.1-1.6.3-2.7.6zM37.9 689.5c-2 .7-5.1 2.1-7 3.1-2 1-7.2 2-12.9 2.5-16.6 1.4-18 1.8-18 4.5 0 2 .5 2.4 3.1 2.4 1.7 0 3.9-.5 5-1.1 1.1-.5 5.4-1.1 9.7-1.2 6.2-.2 9.2-.9 15.7-3.6 10.9-4.5 11-4.6 11.3-6.5.4-1.9-1.8-2-6.9-.1z"/><path d="M486 695c-2.1 1.3.1 3.3 3.1 2.8 3.2-.4 3.9-3.8.7-3.8-1.3 0-3 .5-3.8 1zM115.5 847.8c-4.4.4-20.7 4.2-22.7 5.3-2.1 1.1-2.4 4.2-.4 5.8.7.6 3.1 1.7 5.2 2.5l3.9 1.5H93c-6.6.1-9.2.5-11.7 2.1-6.4 3.9-3.1 7.2 8.7 8.9 4.3.7 8 1.8 8.6 2.6 1.4 1.9 12.4 2.1 14.2.3 1.9-1.9 1.4-2.5-2.9-3.1-2.2-.3-4.8-1.2-5.8-2.1-1-.9-3.5-1.6-5.7-1.7-2.1 0-4.8-.4-5.9-.9-2.2-1-1.9-1 5.5-1.6 2.5-.1 6.3-.9 8.5-1.6 3.2-1 4.1-1.9 4.3-3.9.3-2.2-.2-2.9-2.9-3.8-1.8-.6-4-1.1-5-1.1-1.1 0-1.9-.4-1.9-.8 0-1.7 16.7-3.9 27.5-3.7 16.9.3 43.8 1.6 45.8 2.1 2.9.9 1 2.2-4.1 2.9-12.3 1.7-22.6 3.7-24.3 4.8-1.9 1.2-2.6 4.2-1.1 5.1.5.3 4.8.6 9.6.7 7.3.2 9.2.6 11.9 2.6 2.5 1.8 4.4 2.3 9.6 2.4 6.7 0 16.9 3.1 14 4.2-.8.3.5.6 2.9.6 4.5.1 5.9-1.9 2.5-3.8-2.7-1.4-14.3-4.1-19-4.4-3-.2-4.7-.9-6.1-2.7-1.6-2-2.9-2.5-6.6-2.4-6.3.1-4.9-1.2 2.1-1.9 11.8-1.3 15.8-2.7 16.8-5.8.8-2.4 0-3.6-3.6-5.5-2.4-1.2-8-1.6-26.2-2.1-12.8-.2-25.7-.8-28.7-1.1-3-.4-6.8-.6-8.5-.4zM462.5 866c-.3.5-.1 1 .4 1 .6 0 1.1-.5 1.1-1 0-.6-.2-1-.4-1-.3 0-.8.4-1.1 1zM1.3 877.7c.9.2 2.5.2 3.5 0 .9-.3.1-.5-1.8-.5-1.9 0-2.7.2-1.7.5z"/></svg>