<svg version="1" xmlns="http://www.w3.org/2000/svg" width="666.667" height="1170.667" viewBox="0 0 500 878"><path d="M208.3 23.8c-4 .4-6.9 3.8-5.1 6 .7.8 2.4 1.2 4 1 1.6-.3 3.2 0 3.7.6 2.2 2.6 10.1 19.8 9.6 20.6-.4.6-2.8 1-5.5 1-4 0-5.1.4-6 2.1-2.3 4.2-1.2 4.4 14.6 3.6 8.2-.4 19.6-.5 25.4-.1 13 .7 13.1.7 20.5.2 8.4-.5 10.2-1.9 6.9-5.2-.8-.9-2.6-1.6-3.8-1.6-2.8 0-3.6-2.9-3.6-13.1 0-6.4.1-6.9 2.8-8.1 1.9-.9 2.7-2.1 2.7-3.8v-2.5l-21.7-.2c-21.1-.2-21.8-.1-23.2 1.9-1.1 1.5-1.2 2.6-.5 4 .7 1.3.5 3-1 6.3-1.1 2.5-2.4 4.5-2.8 4.5-.4 0-1.8-2.3-3-5-2.1-4.9-2.1-5-.2-6 2.2-1.2 2.5-4.2.7-5.8-1.3-1-8-1.2-14.5-.4zm32 17.8l-.8 9.9h-4c-5.2 0-5.4-1.4-1.5-11.1 5.6-14 7.6-13.6 6.3 1.2zm22-.6c.5 6.5.4 10.7-.2 11.3-1.2 1.2-1.7-.9-3.1-12.2-1-8.5-.7-10.5 1.3-9.8.7.2 1.5 4.4 2 10.7zm-11.5-8.3c1.7 3.3 2.3 16.8.9 18.8-1.3 1.6-1.4 1.6-3.1-.1-1.4-1.3-1.7-2.7-1.2-5.3.3-2 .6-6.2.6-9.4 0-5.7 1.1-7.3 2.8-4zM103.5 141c-12.2 2-22.6 7.2-31 15.5-6.6 6.5-9.6 11.2-12.8 20.2-3.7 10.1-4.3 17.4-2.3 27.3 2.5 12.4 6.4 19.9 14.3 28.2 11.4 11.7 23.5 17.2 39.2 17.7 18.2.5 28.9-4.2 45.3-20.1 9.2-8.9 11.2-11.5 14.5-18.3 3.6-7.6 3.8-8.5 3.7-17.5-.1-11.5-2.5-18.8-8.5-26.7-5-6.4-9.9-10.5-16.5-13.6-2.7-1.3-7.1-3.8-9.9-5.5-9.1-5.9-24.6-9-36-7.2zm21.4 4.4c.9.6-1.6 1.6-7.8 3.2-17.7 4.5-28.2 13.9-34.6 30.9-3.9 10.4-3 22.7 2.6 35.4 1.9 4.2 13.8 17.1 15.8 17.1.6 0 2.7 1.1 4.7 2.5s4.3 2.5 5.1 2.5c.8 0 3 .7 4.9 1.6 2.5 1.2 5.7 1.5 13.4 1.2 5.5-.1 10 0 10 .3 0 .7-9.3 4.5-14.5 5.8-2.2.6-7.3 1.1-11.4 1.1-20.7 0-38.6-11-47.6-29.3-9.5-19.3-6-42.3 8.8-57.9 6.6-6.9 11.1-9.8 20.7-13.2 6.6-2.4 8.7-2.6 18-2.4 5.8.2 11.1.7 11.9 1.2zm17.9 8.7c14.2 4.9 22.4 13.7 27.5 29.4 2.1 6.2 1.6 16.2-1.1 23.2-10.8 28.4-46.4 36.3-68.6 15.3-23.1-21.8-13.6-60 17-68.9 8.1-2.4 16.3-2 25.2 1z"/><path d="M109.5 174.4c-4 1.7-6.2 4.3-4.8 5.7.8.8 2 .4 4.1-1.1 2.6-1.9 3.9-2.2 7.6-1.7 4.6.7 5.8-.1 3.4-2.1-2.3-1.8-7.2-2.2-10.3-.8zM141.3 175.3c-4 1.5-5.4 2.9-4.5 4.4.6.9 1.7.9 4.7-.2 5.4-1.9 6.8-1.8 9.8.5 2 1.6 2.7 1.7 3.6.6 1.3-1.5.5-2.4-4.6-5-3.7-1.8-4.6-1.9-9-.3zM118 183.6c-1 1.1-2.4 1.4-4.6 1.1-1.8-.3-3.5-.3-3.7 0-.9.8.4 3.3 1.7 3.3.6 0 2.4.7 4 1.5 2.9 1.5 3.1 1.5 5.3-1.2 1.2-1.5 2.1-3.5 2-4.3-.3-2.1-3.1-2.4-4.7-.4zM148.9 184.6c-1 1.2-2.3 1.4-5.1 1-3-.5-3.8-.3-3.8.9 0 .9.8 1.8 1.8 2.1 1.5.5 5.1 2.1 7.4 3.2.4.2 1.4-1.1 2.3-2.8 2.5-4.8.5-8.1-2.6-4.4zM127.5 204c-.8 1.3.3 3 2 3 2 0 3-2.1 1.4-3.1-1.8-1.1-2.6-1.1-3.4.1zM135.1 204.4c-.9 1-.9 1.6-.1 2.1 1.3.8 4.2-1.4 3.4-2.6-.8-1.3-2-1.1-3.3.5zM125.5 212.4c-8.5 3.2-6.9 4.3 6.2 4 5.9-.1 11-.2 11.2-.3.2 0-.4-1-1.5-2.2-1.5-1.7-2.6-2-5.6-1.5-2 .3-4 .2-4.3-.4-.7-1.2-2-1.1-6 .4zM128.9 219.1c-1.2.8-1.2 1 .1 1.9 2.2 1.4 4 1.2 4-.4 0-1.8-2.3-2.7-4.1-1.5zM396 306.7c-1.9.8-5.8 3.9-8.6 6.8-5.9 6.1-12.5 9.9-16 9.1-1.8-.5-3.2.3-6.6 4-2.4 2.5-5.1 5.9-6.1 7.4-1.7 2.7-9.7 8-11.9 8-.5 0-2.1-.9-3.5-2s-3.7-2-5.2-2c-5.7 0-7.1 1.1-10.8 8.3-4 8-7.8 14.1-10.7 17.5-1.2 1.3-1.9 2.4-1.7 2.5.2.1-.3 1.8-1.3 3.8-3.3 7.1-8.2 9.1-27.1 10.9-6 .6-11.6 1.7-12.3 2.4-.7.6-2.4 5.3-3.7 10.4-3.1 11.2-9.7 27.9-13.2 33.5-1.5 2.3-3.9 5.4-5.5 6.9-2.1 2-2.8 3.5-2.8 6.5 0 2.2-1 5.6-2.4 8-1.3 2.3-2.7 5.6-3.1 7.3-.4 2-1.5 3.4-3 4-2.7 1-5.5 4.7-5.5 7.1 0 1.3-1.2 1.9-5 2.4-2.7.4-5.3.4-5.9.1-.5-.3-2.3.5-4 1.9-2.4 2.1-3.1 3.5-3.3 7.3-.3 4.3-.6 4.8-3.8 6.3-1.9.9-5.4 2-7.6 2.3l-4.1.7-2.4-4.8c-1.3-2.6-3.2-4.9-4.1-5.1-1.8-.3-13.1 4.6-13.6 6-.2.5-1.7 1.5-3.3 2.4-2.9 1.5-3 1.4-6.8-2.5-3.4-3.6-4.2-3.9-7.3-3.4-2.9.4-3.8.1-5.2-1.8-.9-1.3-1.6-3.3-1.6-4.6 0-3.2-3.7-6.8-10.4-10.2-4.2-2.1-6.7-2.8-8.7-2.4-2.8.5-3.1.2-6-6.3-3.6-8-8.3-13.4-11.6-13.4-3.6 0-8.4 2.7-11.9 6.8l-3.2 3.6-3.2-2.7c-1.7-1.5-3.5-2.7-4-2.7-1.9 0-10.2-13.5-17.4-28.1-4.2-8.5-7.6-16-7.6-16.6 0-.6-2.5-3.8-5.5-7.2-3-3.4-5.5-6.5-5.5-7 0-.8-10.2-8.1-11.4-8.1-.4 0-2.8 1.7-5.3 3.7-4.8 4-9.4 10.5-13.3 18.8-1.3 2.7-3.8 6.6-5.7 8.5-1.8 1.9-4.3 4.8-5.6 6.4-2.1 2.6-2.5 2.7-4.5 1.5-3.2-2-7.1.4-8.9 5.6-.7 2.2-2.7 5.7-4.3 7.7l-3 3.7v134.8l3.1.7c4.9 1 8.3.7 10.4-.8 1.6-1 6.6-1.3 23.5-1.1 17.4.2 21.9 0 23.8-1.2 4.1-2.5 1.1-4.3-7.7-4.4l-7.6-.1 6-1c3.3-.5 8.8-.6 12.3-.3 3.4.3 9.1.8 12.7 1.1 7.1.6 10-.5 9-3.5-.4-1.3.5-2 4-2.9 3.3-.9 4.8-1.9 6-4.1l1.5-3h16.5c14.8.1 19 .7 17.2 2.6-.3.3-6.8.5-14.4.5-15.2 0-17.3.3-17.3 2.3 0 2.8 4.1 3.8 14 3.2l9.6-.5 1.6 2.8c2.1 3.8-2 3.5 101.3 5.7 12.1.2 22.7.4 23.5.4 10.1-.3 25.8-1.2 26.8-1.6.6-.2 1.2-1.1 1.2-1.9 0-2.1-5.5-2.7-22.1-2.6-62.1.5-115.5-.3-115.2-1.6.5-1.9 14.6-2.6 36.3-1.6 12.4.5 26.1.6 30.5.1 4.4-.4 9.6-.4 11.7 0 2 .5 10.9.5 19.8 0 9-.4 21.7-.4 28.4 0 6.6.4 14.8.6 18.1.4 4.9-.3 6.5 0 8.5 1.6 2.2 1.8 2.6 2.9 3 10.3.8 13.5.3 16.5-2.9 18.4-1.6.9-4 4.1-5.6 7.3-2.3 4.6-2.9 7.6-3.6 17.1-1 13.6-2.1 19.9-4.5 25.9-1.7 4.2-1.8 4.3-5.4 3.7-2.9-.4-4.4-.1-6.3 1.5-1.5 1.1-4.8 2.7-7.4 3.6-2.7.9-6.1 2.8-7.8 4.3-1.6 1.5-4 3.1-5.1 3.4-1.2.4-3.4 2.5-4.8 4.7-2.6 3.8-7.8 7.9-10.2 7.9-.7 0-1.5-1-1.9-2.3-.6-1.9-.8-1.8-1.4 1.5-1.7 8.3-7.1 9.3-7.1 1.2 0-1.4 1.4-3.6 3.5-5.5 4.7-4.3 4.9-9.7.6-15l-2.9-3.5 2.3-5.8c1.3-3.2 2.5-5.9 2.7-6.1 1.3-1.4 21.8.2 21.8 1.6 0 .5-2.4.9-5.4.9-3.4 0-5.8.5-6.5 1.4-2.1 2.6.9 3.1 15.9 2.7 15.2-.3 19-1.1 16.9-3.7-.6-.8-2-1.4-3-1.4s-2.1-.5-2.4-1c-.4-.6.7-1 2.5-1 4.5 0 7-1.7 7-4.5 0-3.6-3.3-6.5-7.5-6.5-3.6 0-9.2-2.3-11-4.5-1.8-2.3-9-2.5-12.4-.4-3.2 1.9-8.1 2.6-8.1 1 0-.8 4.5-9.7 5.9-11.6.4-.6 1.3-2.4 1.8-4 .6-1.7 3-8.1 5.4-14.3l4.2-11.3-2-2c-3-3-7.2-3.6-27.5-4-38.8-.7-57 .5-61.4 4.2-2.1 1.8 1.4 13.4 4.6 15.4 1.5.9 1.2 5.5-.3 5.5-.8 0-3.3-1.3-5.5-3-2.3-1.6-5.3-3-6.7-3-3 0-3.1-.5-.5-6.5 2.5-5.9 2.5-7-.1-9.4-2.7-2.5-5.9-2.9-28.4-4.1-24.8-1.2-53.6.3-60.2 3.1-5.6 2.4-6.4 3.4-5.2 6.6.5 1.4.9 3.4.9 4.5 0 1.2 1.1 3.6 2.5 5.4 3.1 4.1 3.2 5.4.1 5.4-1.9 0-2.5-.6-2.8-2.7-.2-1.6-1.4-3.3-2.9-4.2-1.5-.9-4.3-2.9-6.3-4.5-2.3-1.8-5.2-3-8-3.3-3.7-.5-4.6-.2-6 1.8l-1.6 2.3-4-3.9-4.1-4h-9c-8.7 0-9.2.1-11.3 2.7-1.4 1.8-3.1 2.8-4.9 2.8-2.7 0-2.7 0-2.7 7.5v7.5h9.3c8.8 0 13 1 11.4 2.7-.5.4-5.3.9-10.7 1.1l-10 .4v4.4c0 4.1.2 4.3 3.4 4.9 1.8.4 7.7.1 13-.5 8.9-1.1 10-1 12.4.7 2.4 1.6 5.6 1.9 25.5 2.3l22.8.5 5 9.5c2.8 5.2 6.6 12.4 8.6 16 3.2 5.9 3.4 6.6 1.8 7.5-7 4.2-8.7 8.1-5.9 14 .9 2 2.4 3.9 3.3 4.2 3.3 1 4.6 2.1 4.3 3.9-.7 3.6-2.1 3.7-5.6.6-3.4-3-9.5-5-11.4-3.8-.5.3-5.4.8-10.9 1.2l-10 .6-.5-3.1c-.2-1.7-.2-3.3 0-3.6.3-.3 2.6-.5 5.2-.5 6.9 0 9.9-4.2 4-5.5-1.7-.4-3-1.1-3-1.5 0-1.3 7-3 9.6-2.4 3 .8 9.2-1.3 10.3-3.4 1.4-2.8.1-4.2-3.9-4.2s-7.4-2.4-8.5-6.1c-.4-1-2.8-2.4-6.2-3.5l-5.6-1.8-2.3 2.7c-1.3 1.5-2.7 3.5-3.3 4.4-.9 1.7-1.2 1.7-3.8.2-1.5-.9-5.2-1.9-8.1-2.3-3-.4-6.1-1.1-7-1.5-6.1-3-12.3-4.4-17.9-4.3-4.7.2-7-.2-9.5-1.8-1.8-1.1-3.9-2-4.5-2-1 0-1.3 7.5-1.3 33.9 0 33.1.1 34 2 34.6 2.6.8 2.6 3.1 0 4.7-1.3.9-2 2.4-2 4.6v3.2l4-2c6.2-3.2 19.4-2.3 23.2 1.6 1 1-5.1 4.7-6.7 4-.7-.2-4.3-.1-8.1.4-6.1.8-7.2 1.3-9.6 4.1-2.9 3.4-3.9 8.5-1.5 7.6.7-.3 2.1.1 3.2.9 2.6 1.9 7.5 1.8 7.5-.1 0-.9-1.1-2-2.4-2.5-3.3-1.2-3.9-2.5-1.9-4.1 1.7-1.5 3.9-1.6 39.3-2.4 23.8-.5 28.6-.8 31.4-2 1.7-.7 1.9-.5 1.3 2.3-.4 1.7-1.8 4.9-3.1 7.1l-2.5 3.9H58.6c-23.7.1-34.8 1.9-41.3 6.8-3.4 2.6-4.1 5.2-2.1 8.3 2.4 3.8.4 5.1-7.7 5.1-6.6 0-7.5.2-7.5 1.8 0 1.7 1.2 2 11.3 2.6 6.1.4 11.4 1.1 11.5 1.6.2.6 1.8 3.2 3.6 5.8 1.8 2.6 5.4 8.5 8.1 13.2 2.6 4.7 6.5 11 8.6 14.1l3.8 5.6-2.9 2.1c-1.5 1.2-3.1 3.5-3.5 5.1-.7 3.5 1.5 8.5 4.5 10.1 2.8 1.5 2.6 5.7-.6 12.7-1.4 3.2-4.4 10.7-6.5 16.8-3.9 11-12.4 29-16.7 35.4-1.2 1.9-2.2 3.8-2.2 4.2 0 .5 18.2.9 40.5.9 31.1 0 40.5-.3 40.5-1.2 0-.7-2.3-4.5-5.1-8.6-7.5-10.9-14.8-28-18.5-43.2-1.5-6.2-1.8-13-.6-13 1.3 0 5.2-9.7 5.2-13 0-1.7-.5-3.9-1.2-4.9-1.5-2.4.7-8.5 6.3-17.1 2.2-3.4 6.2-10.6 8.9-16 2.7-5.3 5.6-10 6.5-10.4.9-.3 4.5-.6 8-.6h6.3l3 5.2c1.6 2.9 4.6 9.8 6.6 15.3 2.1 5.5 5.5 13.3 7.7 17.3 3.9 7.4 4.7 10.6 2.9 11.7-1.7 1-1.1 4.5 1.6 9.4l2.5 4.7-4.1 10.9c-2.2 5.9-4.9 12.4-6 14.4-1 2.1-2.8 6.6-3.9 10.2-1.2 3.5-3.1 8-4.3 9.9-1.2 1.9-4.3 7-6.9 11.2l-4.7 7.8h39.9c21.9 0 39.9-.2 39.9-.4 0-.3-2.2-3.3-4.8-6.8-8.3-11-16.6-33.4-18.6-50-.6-5-.5-5.7 1.2-6.2 3.3-1.1 5.6-7.7 4.8-14-.7-5.9-.6-6.3 7.8-23.9 2.5-5.4 4.6-10.2 4.6-10.6 0-1.5 5.4-11.7 7.3-13.8 1.8-2 3-2.3 9.4-2.3h7.3l5 9.8c6.4 12.5 15.1 28.8 17.6 32.9 1.9 3.2 1.9 3.2-.4 5.6-2.7 2.9-2.8 4.6-.2 9.3l2.1 3.6-3.5 11.1c-5.1 16.1-12.3 31.8-20.5 44.3l-7.1 10.9 42.7.3c23.4.1 42.8 0 43.1-.2.2-.3-3-4.3-7.1-8.9-8.6-9.6-9.9-11.9-13.9-23.7-4.2-12.1-4.5-14-3.6-19 .4-2.4.6-5.8.2-7.5-.4-2.5 0-3.6 3.1-6.5 3.4-3.3 3.6-3.8 3.4-9.5-.1-5.9 1.5-14.5 3.2-17.5.9-1.4 7.5-14.9 12.4-25.5 1.3-2.8 2.6-5.8 2.9-6.8.4-1.3 1.6-1.7 5.4-1.7 2.6 0 5.5.6 6.4 1.3 3.1 2.5 12.1 19.4 14.5 27.2.4 1.1 2.4 5.3 4.5 9.3 3.9 7.4 4.6 10.2 2.7 10.2-1.5 0-4.1 6.8-3.4 9.1.4 1 1.8 3.3 3.2 5l2.6 3-3.1 11c-3.6 12.4-9.7 27.3-15.1 36.9-2 3.6-4.3 7.8-5.1 9.5-.8 1.7-1.6 3.3-1.8 3.7-.2.5 17.7.8 39.7.8H379l-2.2-4.2c-1.3-2.4-4.2-7.4-6.5-11.3-5-8.1-11.2-23.3-14.5-35.8l-2.3-8.8 3.1-2.4c4.3-3.4 4.9-6.5 2.3-12.2l-2.1-4.6 4.3-8.1c2.3-4.5 5.9-11 7.9-14.6 6.4-11.1 8.2-14.3 10.7-19.3 2.1-4.1 2.9-4.8 4.6-4.3 1.2.3 3.2.6 4.4.6 1.6 0 2.4.9 3.4 3.7.6 2.1 1.5 4.2 1.9 4.8 1.6 2.1 8 15.1 8 16.3 0 .7 1.5 4.4 3.4 8.1 5.1 10.3 5.4 12.9 2.1 15.5-2.5 2-2.7 2.7-2.1 6 .5 2.7 1.5 4.2 3.7 5.4 3.2 1.9 3.5 3.1 1.5 7-.7 1.5-3 7.6-5 13.7-2 6-7.3 18.2-11.6 27-4.4 8.9-8 16.4-8 16.8 0 .4 17.3.7 38.5.7h38.6l-5.7-10.8c-3.1-5.9-6-11.2-6.5-11.7-1.9-2.4-7.3-18.6-8.9-26.9l-1.7-8.9 3.7-3.7c3.1-3.1 3.9-3.5 5.4-2.5.9.7 3.8 1.6 6.4 2 4.9.8 4.4 1.6-2 2.9-2.4.6-2.8 1.1-2.8 4.1 0 2.2.8 4.3 2 5.5 4 4 9.2 1.1 5.5-3-1.9-2.2-1.5-3.6.8-2.7 1.4.5 2 6 3.2 26.2.2 2.7.4 5.6.4 6.2.2 2.1 3.9 1.5 5.4-.8 1.6-2.2 1.4-9.7-.3-13-.6-1-1-5.4-1-9.8v-8h12.7c16.9-.1 22.1-1.9 19.3-7.1-1-1.9-8.8-5-12.8-5-1.4 0-3-.7-3.7-1.7-.9-1.2-2.8-1.6-7.4-1.6-3.3 0-6.1-.4-6.1-.9 0-.4 3.9-.8 8.8-.8 8.8 0 12-.9 10.8-2.9-.5-.7-4.4-1.1-10.6-1.1-5.9 0-10.1-.4-10.5-1.1-1.1-1.7-.2-1.9 8.4-2.1 5-.1 8.6-.6 9.2-1.4 1.7-2.1-1-2.8-10.1-2.9h-8.5l.3-2.6c.3-3.1-2-4.4-4.9-2.9-1.2.7-1.9 2.1-1.9 4 0 2.5-.5 3-3.4 3.6-1.9.3-4.2 1.4-5.1 2.4-1.6 1.8-1.6 2 .9 4.4 1.6 1.7 3.7 2.6 5.8 2.7 2.2.1 1.3.4-2.6 1-3.3.5-6.2.7-6.4.4-.3-.3-.5-2.4-.6-4.7 0-5.2 5.9-19.6 11.6-28 2.1-3.2 3.8-6.1 3.8-6.5 0-.5 2-3.3 4.4-6.4 2.4-3.1 5.3-7.4 6.5-9.6 2.3-4.5 2.9-4.8 16.4-5.9 8.3-.6 8.7-.8 8.7-3.1s-.3-2.4-5.7-2.1c-9.1.4-9.9-.9-6.1-10.9 1.9-5.3 2-6.4 1-14.4-1.6-11.5-1.6-27.6 0-28.5.6-.4 3.3-.6 6-.5 4.7.2 4.8.1 4.8-2.7 0-4.2-2.8-4.7-20-3.9-4.7.2-10.1.1-12-.4-4.4-1-10.8-1.2-18-.5-5.8.5-17.7-1-19.6-2.6-.8-.5-3.2-.1-6.5 1.2l-5.3 2-3.3-3.2-3.2-3.1-6.8 1c-3.8.6-7.1.8-7.5.6-1.8-1-.6-5.8 2.1-8.9 4.3-4.9 5.3-9.5 3.3-14.9-1.4-4-1.5-4.6 0-6.2.8-1 3.6-5.6 6.2-10.3 2.5-4.7 7.9-13.9 11.9-20.5l7.2-11.9 7-1.3c8.9-1.7 13.1-1.6 16 .3 1.4.9 2.5 1.1 2.9.5.4-.6 1.7-.4 3.4.5 1.5.7 4.1 1.4 5.9 1.4 1.7 0 3.4.4 3.8 1 .3.5 1.2.7 2.1.3.8-.3 1.4-.2 1.2.3-.2.5.5 2 1.4 3.3 1.9 2.7 4.4 2 2.8-.8-.8-1.6-.4-1.9 3.5-2.5 2.5-.3 8.3-.3 13 0l8.5.6v-2.6c0-1.4-.4-2.6-.9-2.6-10.2 0-33-2.5-38.6-4.2-3.8-1.2-8.9-2.1-11.2-2.1-2.4.1-4.5-.3-4.8-.8-.9-1.4-4.1-1.1-5.5.6-1.4 1.6-5.6 2-6.4.6-.3-.5.1-2.8.9-5.1s1.5-5.5 1.5-7c0-2.5-.6-2.9-5.9-4.6-5.9-1.9-6-1.9-5.6-5.4.2-1.9.4-5.7.4-8.3.1-3.4.5-4.7 1.4-4.4.6.2 1.1 1.2.9 2.2-.5 2.4 4.6 7.5 7.4 7.5 1.3 0 3.5.5 5.1 1.1 2.7 1.1 9 1.1 39.8.3 21.4-.6 21.5-.6 21.5-2.6 0-3-4.1-3.9-10.1-2.2-8.4 2.2-46.7 1.8-53.3-.5-5.3-1.8-7.9-4.7-3.2-3.5 1.4.3 3.8.7 5.3.9 1.5.1 5.1.8 7.8 1.5 8.5 2 46.1-.2 51.8-3.2.9-.5 1.7-2 1.7-3.3 0-3-.7-3.1-3.4-.6-1.7 1.5-5 2-18.6 3-9.1.7-16.7 1.3-17 1.4-.9.2-13.4-1.3-19-2.4-3-.5-8.1-2.2-11.2-3.7-5.8-2.7-5.8-2.7-5.8-7.2 0-2.5.3-6.2.7-8.4.6-3.6 1-4 7.7-7.2 6.5-3.1 7.8-3.4 16.6-3.4 17.3 0 26.7 2.6 36.5 10 3 2.3 6.7 4.1 9.3 4.5 4 .6 4.2.6 4.2-1.9 0-1.9-.5-2.6-1.9-2.6-1.1 0-2.7-.7-3.6-1.6-.8-.9-2.2-1.3-3-1-.9.3-1.2 0-.8-1 .3-.8-.1-1.4-1.1-1.4-2 0-5.8-2.1-6.9-3.8-.4-.6-1.9-1.2-3.2-1.2-1.3 0-3.4-.4-4.7-.9-13-4.9-35.2-5.2-42.3-.4-1.1.7-2.7 1.3-3.7 1.3-1.4 0-1.5-.5-.7-3.2 1.1-3.9 2.4-4.8 7.2-4.8 2.6 0 5.2-1 8.7-3.5 6.6-4.6 10.9-5.6 11.7-2.7.4 1.6 2 2.6 6.2 3.7 3.1.9 6.3 2.3 7.1 3 1 .9 4.9 1.2 12.7 1.1 12.4-.1 14.8-1 12.4-4.7-1.2-2-1.1-2.1 2.3-1.7l3.6.4v-4.1c0-2.8-.3-3.6-.9-2.6-.7 1.2-1.4.5-2.6-2.7-2.4-6-15-14.1-19.6-12.7-3.4 1.1-2 3 3.8 5.5 3.8 1.7 6.5 3.8 8.5 6.4 3.5 4.9 3.5 6.4.1 6.8-2.2.2-2.8.8-2.6 2.5.3 2.1-.1 2.3-5.1 2.2-3.1-.1-8.2-1.3-12.2-2.8-5.7-2.2-7.1-3.2-7.9-5.6-1.6-4.8-2.4-5.5-6.6-5.5-6.8 0-10-3-6.4-6 .8-.7 2-3 2.5-5.1 1.4-5.1 4.7-7.3 10-6.5 2.2.3 5.9.9 8.2 1.2 2.3.4 5.4 1.4 6.8 2.4 1.4 1 5.5 2.6 9.3 3.5 5.7 1.5 7.2 2.4 10.1 6 1.9 2.2 3.6 5.2 3.9 6.6.2 1.3.5-31.8.6-73.6l.1-76-4.7-2.5c-2.8-1.5-6.5-4.8-9.2-8.3-2.4-3.1-6.7-7.1-9.3-8.8-3.8-2.3-5.4-4.1-7-7.8-1.8-4.5-2.6-5.1-8.9-8.1-4-1.8-9.9-3.6-13.7-4.1-14-1.8-24.2-4.6-33.8-9.4-7.8-3.8-11.8-4.2-17.4-1.8zm-.3 12.6c0 4.8-.2 5.3-3.1 6.8-3.3 1.6-12.6 1.5-12.6-.2 0-.5.6-.9 1.3-.9.8 0 4-2.5 7.3-5.5 3.2-3 6.2-5.4 6.5-5.5.3 0 .6 2.4.6 5.3zm17.8-3.3c.3.5.2 1-.4 1-.5 0-1.3-.5-1.6-1-.3-.6-.2-1 .4-1 .5 0 1.3.4 1.6 1zm22.5 4.2c12.1 1.8 16.5 2.9 21 5.1 3.8 1.8 4.5 2.6 4.2 4.7-.2 2 .9 3.5 5 7.1 2.9 2.5 6.3 5.1 7.5 5.8 2.3 1.2 5 5.1 3.6 5.1-.5 0-3.7-2.6-7.3-5.8-6-5.4-6.8-5.8-11-5.7-3.2.1-5.1-.4-6.6-1.7-2.3-2.1-5.4-1.5-5.4 1 0 .8 2.3 3.9 5 6.8 2.8 2.9 5 5.8 5 6.3 0 2.1-1.9 1.1-4.6-2.4-1.4-1.9-3.4-3.5-4.4-3.5-1 0-3.4-2-5.5-4.5-2-2.5-5-5.2-6.6-6-1.6-.9-4.6-3.9-6.7-6.8-5.8-7.9-5.8-7.9-2.5-7.1 1.5.3 5.7 1.1 9.3 1.6zm-9 12.3c0 .5-.9-.1-2-1.5s-2-3-2-3.5c0-.6.9.1 2 1.5s2 2.9 2 3.5zm-34 9.4c0 2.2-1.3 3.9-2.6 3.4-.8-.3-2 0-2.8.6-1 .9-1.5.8-2-.4-.3-1 .1-1.8 1.2-2.1.9-.3 2.4-.9 3.2-1.4 2-1.2 3-1.2 3-.1zm-37.2 3.8c-.2 1-1.7 2-3.8 2.4-4.7 1-4.9.4-.9-2 4.1-2.5 5.1-2.6 4.7-.4zm85.7 6.3c.3.6-.1.7-.9.4-1.8-.7-2.1-1.4-.7-1.4.6 0 1.3.4 1.6 1zm-47.6 4.9c1 .6 1.1 2.1.6 6.1-.9 6.2-2.1 5.5-2.7-1.8-.5-5.3-.3-5.8 2.1-4.3zm66.1 9l-.1 3.6-2.9-5.8c-3.7-7.3-3.7-7.8 0-4.2 2.3 2.2 3 3.8 3 6.4zm-74.6-6.3c1.2.5 1.6 2 1.6 6.3 0 5.6 0 5.6-1.8 3.3-1.3-1.7-2.6-2.3-4.7-2-2.5.2-3.1 1-4.1 4.3l-1.1 4-1.3-2.8c-1.9-3.9.8-9.7 4.4-9.7 1.5 0 3-.8 3.6-2 1.2-2.2 1.2-2.2 3.4-1.4zm91.5 6.5c3 4.4 4.1 7.1 4.1 9.8-.1 3.4-.2 3.3-2.2-2.4-1.1-3.3-3.2-7.3-4.4-8.8-2.2-2.6-3.1-4.7-2-4.7.2 0 2.3 2.8 4.5 6.1zm-53.5-.8c.4 1.9.3 2.6-.4 2.2-.5-.3-1-1.8-1-3.2 0-3.2.5-2.8 1.4 1zm24.3 2.8c1.6 3.3 2.8 4.5 4.9 4.9 2.2.4 3 1.4 4.4 5.5 1.2 3.7 2.2 5 3.6 5 1.2 0 2-.8 2.2-2.3.2-1.2.6-2.2 1-2.2 1.2 0 3.3 4 2.7 5-.3.5.1 3.3 1 6.2 2.3 8 1.8 10.1-1.1 4.6-3-5.9-6.8-8.7-9.5-7-2.5 1.6-2.4 1.7-3.8-2.8-.7-2.3-3.1-6-5.6-8.6-4-4-4.5-5.1-4.5-9.1 0-5.6 1.7-5.4 4.7.8zm-89.7-.5c3.5 4.1 3.4 5-.4 3.3-2.2-1-2.9-.9-4.5.5-1.1 1-1.8 2.3-1.5 3 .3.7-.4 2.1-1.6 3.1-1.1 1-2 2.5-2 3.3 0 1.2-.3 1.2-1.5.2-2.1-1.8-4.4-.5-6 3.4-1.3 3.1-5.7 7.6-7.5 7.6-1.6 0 6.3-13.7 9.6-16.5 4.1-3.6 4.5-6.5.9-6.5-1.5 0-4.2 1.5-6.6 3.7l-4.1 3.7 1.6-3.9c.9-2.1 1.9-4.1 2.2-4.4.5-.6 14.5-3.8 17-4 .7-.1 2.6 1.5 4.4 3.5zm-1.6 11.2c.3 1 .5 4 .4 6.8-.1 4.5-.5 5.3-3.3 7.2-4.5 3.2-4.9 2.7-1.5-2 3.1-4.3 3.9-9.2 2-12.8-.8-1.6-.7-1.8.4-1.4.9.3 1.8 1.3 2 2.2zm19.3 6.9c-.3 1-.5.4-.5-1.2 0-1.7.2-2.4.5-1.8.2.7.2 2.1 0 3zm-13.1 2.8c-.9 1.4-2.1 2.5-2.7 2.5-.6 0 0-1.3 1.3-2.9 2.8-3.4 3.7-3.2 1.4.4zm-14.6-1.8c0 1.2-5.2 8.3-6.1 8.3-1.6 0-.9-2.1 1.7-5.6 2.4-3.1 4.4-4.4 4.4-2.7zM61.8 397.9c2.7 3.4 3.1 4.5 2.2 5.6-.7.8-.9 2.6-.6 3.9.3 1.4.2 2.8-.4 3.1-.5.3-1 .2-1-.3s-1.4-2.9-3-5.4c-2.2-3.3-2.9-5.3-2.5-7 .4-1.7 0-2.9-1.4-4.2-1.2-1.1-2.1-2.9-2.1-4 .1-2.3 1-1.4 8.8 8.3zm342.9-2.7c-.2 1.3-.4.3-.4-2.2s.2-3.5.4-2.3c.2 1.3.2 3.3 0 4.5zm-11.7-2.8c0 .8-.4 1.7-.9 2.1-1.2.7-2.4-1.2-1.6-2.5.9-1.5 2.5-1.2 2.5.4zm-64 2.1c-.7.9-1.5 1.3-1.7 1.1-.7-.7.7-2.6 1.9-2.6.6 0 .6.6-.2 1.5zm34 1c0 .2-1 1-2.2 1.6-2.1 1.1-2.2 1.1-.9-.4 1.3-1.6 3.1-2.3 3.1-1.2zm118.9 7.8c-.1 4-.4 9.7-.8 12.7-.7 5.4-.7 5.4-1.4-4.2-.8-9.9-.2-17.2 1.4-16.2.5.3.9 3.8.8 7.7zm-24.2-3.1c-.3.8-.6.5-.6-.6-.1-1.1.2-1.7.5-1.3.3.3.4 1.2.1 1.9zm-87.4 2.3c-.3.9-.8 1.4-1 1.1-.3-.3-.2-.9.2-1.5.9-1.6 1.5-1.3.8.4zm64.7 3.2c0 2.2-.2 2.5-1 1.3-1.3-2-1.3-4 0-4 .6 0 1 1.2 1 2.7zm2.9 5.8c.6-.3 1.1.1 1.1 1 0 1.2-.9 1.5-3.7 1.4-2.1-.2-5 .1-6.5.5-1.8.5-2.8.4-2.8-.3 0-.6 1.1-1.3 2.5-1.7 1.3-.3 3-1.2 3.6-2 1-1.3 1.4-1.2 3 .2 1 .9 2.3 1.3 2.8.9zm-10.9 7.4c0 2.6 3.2 4 7.5 3.4 7.6-1 5.3 2.4-2.7 4.1-4.2.9-3.6 3.6.8 3.6s3.6 1.7-1.2 2.6c-2.4.4-3.9 1.4-4.6 3-1.1 2.3-6.8 6.4-8.9 6.4-1.2 0-.3-8.5 1.3-11.7.6-1.2 2.1-2.4 3.4-2.7 2.7-.7 4.3-5.1 2.5-6.9-1.5-1.5-1.4-2.7.4-2.7.8 0 1.5.4 1.5.9zM48.7 434.4c4.6 2.2 5.3 2.9 5.8 6.3 1.3 7.6 2.7 10.3 7.1 13.9 4.5 3.7 9.9 13.4 11 19.7.3 1.8 2.1 7.5 4.1 12.7 1.9 5.2 3.9 10.8 4.5 12.5 2.4 6.6 5.8 13.5 6.7 13.5 2.3 0 3.9-4.1 3-7.8-1.2-5.4-.4-5 1.7 1 1.8 4.8 2.2 5.3 4.9 5.2 3.1 0 5.4 1.9 5.5 4.7 0 .9.7 2.2 1.5 2.9 1.2 1 1.8 1 3.1-.1s1.5-2.4 1-6.7c-.8-6.7.6-6.6 4.9.1 1.7 2.6 3.7 4.7 4.6 4.7.9 0 2.2.7 2.9 1.5.7.8 1.9 1.5 2.6 1.5 3.9 0 .4-17.8-6.1-30.4-1.4-2.7-2.5-5.7-2.5-6.7 0-2.6 1.9-3.3 3.9-1.5 2.4 2.2 3.3 2 6.6-1.4l2.8-2.9 2.8 2c2.7 1.9 4.5 5.7 5.1 10.9.2 1.8.9 2.5 2.5 2.5 2.2 0 8.3 6.7 8.3 9.1 0 .8.4 1.4.9 1.4 1.1 0 3 7.2 3.3 12.5.3 3.7.5 4 3.1 3.8 1.5-.1 2.7.1 2.7.5s.7 3.9 1.6 7.7c1.5 6.8 3.3 16.9 3.7 21 .1 1.2-.4 2-1.3 2s-1.4-.8-1.3-2c.4-3.9-2-19.5-3.3-21.2-1-1.4-1.7-1.6-3.1-.7-1.6 1-1.8 2.4-1.4 12.3l.3 11.1h-3.6c-4 0-4.5-.6-1.9-2.5 6-4.4-7.5-6.9-23.7-4.4-3.8.6-15.3 1.1-25.7 1.2l-18.8.2.2 2.6c.1 2.2-.4 2.8-2.5 3.2-1.5.3-3.4 0-4.2-.8-.8-.7-3.7-1.5-6.5-1.8-3.7-.3-7.2-1.8-13.5-5.6-11.2-6.9-16-12.8-16-20 0-5.5-.8-7.1-3.6-7.1-3.4 0-5.8 5.9-4.4 10.9 2.1 7.5.5 8.3-3.4 1.7-3.3-5.6-3.2-6.4.3-13.1 1.6-3 3.1-6 3.4-6.7.3-.9 1.9.1 4.6 2.7 4 3.8 4.3 3.9 5.6 2.2 1.2-1.7.9-2.5-2.5-7-7.3-9.7-8.8-13.4-9.5-23.7-.5-7.6-.4-9.1.6-7.5.6 1.1 2 2.9 2.9 4 1 1.1 2.7 4.7 3.9 8 1.2 3.3 3.5 8.4 5.2 11.2 2.7 4.9 2.9 6.1 3 16 .2 12.6 1.6 16.7 4.9 13.8 1.8-1.6 1.9-1.5 3 2.4 1.8 6.8 6.3 4.8 5.3-2.4-.4-2.9-.1-5 1-6.6 1.1-1.9 1.3-3.6.7-7.9-.5-3-.9-7.7-.9-10.5-.1-3.9-1.3-7.4-6-17-9.3-19-11.6-26.9-10.6-37.5.4-4.1.7-8.4.7-9.5 0-3.8.8-6.5 2.1-6.5.6 0 3.5 1.1 6.4 2.4zm-14.9 8.3c-.4 3.2-.8 7.8-.7 10.3.3 14.6-.9 15.9-2.2 2.3-.5-5.8-.4-9.2.3-10 .6-.7.7-2.5.4-3.9-.5-1.8-.3-3 .6-3.5 2.3-1.5 2.5-1 1.6 4.8zm396.5 10.8c-2.5 21.6-3 22.7-2.5 5 .5-15.7 1.3-20.1 3.3-17.7.3.4 0 6.1-.8 12.7zm34.7-11.6c0 .6-.4 1.3-1 1.6-.5.3-1-.1-1-.9 0-.9.5-1.6 1-1.6.6 0 1 .4 1 .9zm-397.5 10c-.3.2-1.8-.4-3.3-1.6-1.8-1.4-2.8-3.1-3-5.4l-.3-3.4 3.5 4.9c2 2.7 3.4 5.2 3.1 5.5zM22 445.2c0 2.7-1.3 5.8-2.1 5.2-1-.6-1.2-4.8-.2-5.7 1-1.1 2.3-.8 2.3.5zm101.5 6.8c1.8 3.5 1.9 4 .3 4-2.7 0-4.1-1.8-3.4-4.4.8-3.3 1.2-3.3 3.1.4zm-36 2c.3.5.1 1-.4 1-.6 0-1.1-.5-1.1-1 0-.6.2-1 .4-1 .3 0 .8.4 1.1 1zm-72.3 10.5c-.3 4.3.2 8.3 1.7 13.8 2.3 8.1 2.2 14.8-.3 18.3-2.9 4-5.2-23-3.2-37.1.7-4.8 1-5.5 1.6-3.5.4 1.4.5 5.2.2 8.5zm64.5-6.8c.3.7-.4.9-1.6.6-1.2-.3-1.8-.9-1.5-1.5.7-1.1 2.6-.6 3.1.9zm38.3 1.8c0 1.6-3.5 2.1-4.5.6-.4-.8.9-1.5 3.8-2 .4 0 .7.6.7 1.4zm22.6 13c3.5 2.7 6.3 3.2 8.1 1.4.7-.7 1.2 0 1.7 2.5.4 1.9 1.8 4.9 3.2 6.6 1.9 2.2 2.2 3 1.1 3-.8 0-2.4-1.6-3.6-3.5-2-3.5-4.4-4.5-5.7-2.4-.4.6-2.4-.8-5-3.8-6-6.7-5.9-8.5.2-3.8zm101.1.7c-.3.8-.6.5-.6-.6-.1-1.1.2-1.7.5-1.3.3.3.4 1.2.1 1.9zm-16.5 9.5c-.4 6.6-.2 7.8 1.4 9 1.6 1.2 1.7 1.5.4 2.3-.8.5-2 1-2.7 1-1.6 0-2.6-7.1-1.4-10.4.6-1.5 1.1-4.3 1.1-6.2 0-1.9.3-3.4.8-3.4.4 0 .6 3.5.4 7.7zm-123.6 10.8c1.2 8.4-.2 7.8-3-1-5.1-16.6-5.3-18.4-1.1-10.1 1.9 3.8 3.7 8.8 4.1 11.1zM44 484.6c1.7 3.1 3 5.7 2.8 5.9-.2.2-1.2.5-2.3.7-2.4.4-4.2-2.9-4.8-9-.6-5.2.2-4.8 4.3 2.4zm381.6 2.4c-1.6 4.6-1.6 2.8 0-5.5.6-3.2.9-3.5 1.1-1.5.2 1.4-.3 4.5-1.1 7zm-317.3 1c1.8 5.1 3.2 11.8 2.3 10.9-.9-.9-5.6-13.8-5.6-15.6 0-2.5 1.4-.4 3.3 4.7zm62 4.2c1 1.4 1.7 3.4 1.5 4.3-.3 1.7-2.6-1-7.2-8.5-1.6-2.5 3.5 1.2 5.7 4.2zm254.2 6.8c-.4 3.3-.8 7.3-1 8.8-.2 1.5-.6 5.4-.9 8.7-.4 3.3-.8 6.7-1.1 7.5-.2.8-.9 7.1-1.5 14-2.2 26.5-3.6 34-6.2 34-.7 0-.8-1.8-.3-5.8.4-3.1.9-7.1 1-8.7.7-8.3 2.7-24.6 3.5-29 1.2-6.1 3.9-21.7 4.5-26.5 1.4-10.1 3.1-12.7 2-3zm-373.8 8.6c.4 5.7.2 9.3-.4 9.7-1.2.7-2.1-7.5-2.2-17.8-.1-9.3 1.9-3.2 2.6 8.1zm102.7-11c.3.8.2 1.2-.4.9-.6-.3-1-1-1-1.6 0-1.4.7-1.1 1.4.7zm61.1 4.2c1.7.9 1.7 1-.3 1.6-2.4.8-2.9 3.8-.9 5.4 1.3 1.1 15.7 2.2 37 2.7 7.5.2 14.1.6 14.6.9.5.4.3 2.8-.4 5.8-.8 2.8-1.7 8.7-2 13.2-.5 6.4-.3 8.6 1.1 11.2 2.3 4.2 1.3 7-1.8 5.3-1.3-.7-2.9-2-3.5-2.9-.7-1-2.5-2.1-4-2.5-4.1-1-5.3-2.4-5.3-5.9 0-5.4-1.1-6.1-9.2-5.9-4 .1-10.3.5-14 .8-6.3.6-6.7.5-8.3-1.9-.9-1.3-2.1-5.8-2.7-9.8-1.3-9.7-2.7-11.1-12.7-12.7-4.3-.6-9.6-.9-11.7-.5-3.4.5-4.3.2-6.7-2.1-1.5-1.5-2.7-3.1-2.7-3.4 0-1 31.6-.4 33.5.7zm-37.7 4.7c-.3.3-.9-.2-1.2-1.2-.6-1.4-.5-1.5.5-.6.7.7 1 1.5.7 1.8zm266.7 4.5c0 .7-1 1.9-2.3 2.8-2 1.3-2.2 1.3-1.7-.2.3-.9.7-2.3 1-3.2.6-1.8 3-1.4 3 .6zm-281.1 5.7c.9 2.5 1.4 4.8 1.2 5-.4.5-4.6-8.3-4.6-9.7 0-2.4 1.9.3 3.4 4.7zm6.9 1.3c.3 1.1.2 1.8-.3 1.5-.4-.3-1-1.4-1.3-2.5-.3-1.1-.2-1.8.3-1.5.4.3 1 1.4 1.3 2.5zm12.2 7.3c.8 2.6 1.1 4.7.7 4.7-1.1 0-7.1-11.7-6.4-12.4 1.1-1.2 4.3 3.1 5.7 7.7zm27.2-3.1c-.3.8-.6.5-.6-.6-.1-1.1.2-1.7.5-1.3.3.3.4 1.2.1 1.9zm-34.1 8.8c.9 3.8 1.5 4.6 3.8 4.8 1.4.2 3.1 1.2 3.6 2.3.6 1 2.7 2.7 4.8 3.8 2 1 4.5 2.8 5.5 3.9 1.8 1.9 1.7 2-3.9 2.4-3.7.3-6.1 1.1-6.9 2.1-.8 1.2-2.7 1.7-5.8 1.7-5.5 0-6.3-1.1-7.8-10.1-.5-3.4-1.9-8.1-3.1-10.5-1.4-3.1-1.7-4.9-1.1-5.5.7-.7 1.3-.2 1.7 1.5 1.1 4.5 5.6 2.6 5.6-2.4.1-2.4.1-2.4 1.2-.5.7 1.1 1.7 4 2.4 6.5zm235.9 7.2c-.4 3.5-.9 7.5-1 9-.4 6-.5 6.8-1.4 6.8-1.4 0-1.1-11.1.5-16.8.8-2.8 1.7-5.2 2-5.2.3 0 .3 2.8-.1 6.2zM38 540.3c0 1.3-2.9-1.2-4.2-3.7-1-1.9-.8-1.8 1.6.3 1.4 1.4 2.6 2.9 2.6 3.4zm327.8-4.4c2.1 1.3 1 4.3-2.3 6.2-5 3-5.5 2.5-3-3.5 1.5-3.6 2.9-4.3 5.3-2.7zm-10.4 12.7c2 .8 2 3.1.1 7.7-.8 2-1.5 4.7-1.5 6 0 1.3-1.5 3.7-3.5 5.7-1.9 1.9-3.5 4.2-3.5 5.1 0 1-.9 2.1-2.1 2.4-2.7.9-3.3.1-1.9-2.4.6-1.2.8-2.5.5-3-.3-.5.2-3.6 1.1-6.8.9-3.2 1.9-7.4 2.3-9.4.4-1.9 1.1-4.1 1.5-4.7.8-1.3 4.4-1.6 7-.6zM241 551c1.2.8.9 1-1.2 1-1.6 0-2.8-.5-2.8-1 0-1.3 2-1.3 4 0zm-178.3 4.7c.5 1.5-3.5 1.9-29.7 3.3-28.3 1.4-31 1.3-31-.4 0-1.1 3.4-1.5 16.8-2.1 9.2-.4 18.7-1 21.1-1.4 7.5-1 22.4-.7 22.8.6zm275.9 5c-2.6 9.5-4.2 13.3-5.3 13.3-.7 0-1.3.8-1.3 1.7 0 1.7-2.8 5.3-4.1 5.3-2.3 0 3.5-18.5 6.4-20.5 2.9-2 5-1.9 4.3.2zm69 .9c-.3.9-.6 2.2-.6 3 0 1.3-1.2 1.4-7.2.8-9-.8-13.2-2.2-7.2-2.3 2.3-.1 5.7-.8 7.5-1.6 4.7-2 8.3-2 7.5.1zm-81.6 1.2c0 1.2-6.7 14.2-8.7 16.8-1.2 1.7-2.3 3.9-2.3 4.8 0 1-.9 2.9-2 4.3s-2 3.2-2 4c0 1.2-1.8 4.8-6.8 13.9-2.8 5.1-15.2 4.7-15.2-.5 0-2.8 3.7-11.1 5-11.1 2.9 0 12.2-5.6 13.9-8.4 2.5-3.9 1.9-4.7-3.1-4l-4 .7.6-9.9c.3-5.4.5-10.1.6-10.4 0-.6 24-.8 24-.2zm-315.7 4.7c-.4 1.5-7.6 1.2-8.1-.3-.3-1 .7-1.2 3.9-1 2.4.2 4.3.7 4.2 1.3zm386.2 3.1c5.5.9 10.2 1.7 10.3 1.9 1.5 1.5-2 2.2-9 2-4.6-.2-13-.4-18.8-.4l-10.5-.1 4.2-2.4c4.5-2.6 8.5-3.6 11.8-2.9 1.1.2 6.5 1.1 12 1.9zm-30.5 3c0 .2-.9.4-2.1.4-1.1 0-1.8-.4-1.4-1 .5-.8 3.5-.3 3.5.6zm-156.8 2.1c.8.6 3.9.7 8.3.1 14.1-1.6 28.5-.6 28.5 2.1 0 1.7-3.2 2-22.6 1.8-19.4-.2-22.4-.8-22.4-4.3 0-1.5 6.1-1.3 8.2.3zm-93.2 2.7c0 2.5-16.9 3.3-17.7.9-.5-1.5 1.9-2 10.5-2.2 5.6-.1 7.2.2 7.2 1.3zm301.5 3c2.2.7 3.8 1.6 3.5 2.1-.6 1.1-39.7 1.1-40.8 0-1.2-1.2 2.3-2.6 5.6-2.2 1.8.2 5.9-.2 9-.9 6.1-1.3 16.2-.8 22.7 1zm-225.7 2.4c7.9.1 12.1.6 11.7 1.2-.3.5-1.9 1-3.6 1-1.9 0-2.9.5-2.9 1.5 0 1.8 2.7 2.5 11.2 2.8 9.3.4 10.8 2.2 2.7 3.1-6.9.7-7.8 1.1-6.1 2.8.6.6 4.1 1 8.7.9 9.9-.3 9.1 1.5-1 2.4-4.1.4-7.5 1.1-7.5 1.6 0 1.5 4.1 3.1 6.6 2.5 1.3-.4 4.3-.3 6.6.1 3.8.6 4 .7 1.8 1.4-1.4.4-4.4.7-6.7.8-3.2.1-4.3.5-4.3 1.6 0 2.4 2.4 2.8 10.5 1.8 4.1-.5 7.5-.6 7.5-.2 0 1.2-6.6 3-13.7 3.7-4.4.5-6.8 1.2-7.1 2.1-.4 1.2 1 1.3 8.4.8 4.9-.3 10.1-1 11.7-1.6 1.7-.7 2.7-.7 2.7-.1s-.6 1-1.4 1c-.7 0-1.9.6-2.5 1.3-.6.8-4.9 1.9-9.6 2.6-4.7.7-8.8 1.7-9.1 2.2-1 1.7 2.9 2.2 7.8.9 2.7-.6 5.2-1 5.4-.7 1.2 1.2-4.6 3.7-10.4 4.5-6.5.9-8.2 1.7-6.6 3.1.5.5 4.2.2 8.6-.7 7.3-1.5 10.3-1.3 8.2.7-.5.5-3.8 1.5-7.4 2.2-3.6.7-6.9 1.6-7.4 2.1-2 1.7.6 2 7.3.7 3.9-.7 7.4-.9 7.7-.6 1.7 1.7-4.4 4.6-10.9 5.3-6.7.7-8.8 1.7-7 3.5.6.6 3.5.4 7.7-.6 3.8-.9 7.1-1.3 7.4-1 1.3 1.2-2 2.8-6 2.9-3.5.1-4.3.4-4.2 1.8.2 2.1-2.2 2.3-7.7.8-3.1-.9-3.6-1.4-3.2-3.4.6-3.1-3-12.2-12.8-32.1-4.4-8.7-7.9-16.3-7.9-16.8 0-.4-.9-2.7-2-4.9-1.1-2.3-2-4.4-2-4.8 0-.3 1.9-.5 4.3-.5 2.3.1 9.7.3 16.5.3zm-68.8 1.4c-1.4.6-7.3 1.2-13.2 1.2-5.9.1-11 .5-11.4.9-3.1 3 13.4 5.4 26.4 3.8 5.1-.6 6-.5 5 .6-.7.7-4.4 1.6-8.1 2-3.7.5-6.7 1.2-6.7 1.8.1 1.8 4.9 2.4 11.3 1.4 7.9-1.1 8.3-1.1 7.2 0-1.4 1.3-12.6 4.1-16.5 4.1-2.1 0-3 .4-2.7 1.2.2.8 2.4 1.3 6.1 1.4 3.9 0 6.2.5 7.3 1.7 1.9 1.9 1.8 2-6.2 4-6.5 1.6-7.6 4.2-1.4 3.4 2.4-.3 6.2-1 8.4-1.6l4-1-2.3 1.9c-1.2 1-4.8 2.4-8 3-8.3 1.7-9.4 2-8.9 3.3.4 1.4 9.7 1 13.6-.4 2.6-1 4.3-.3 2.3 1-.7.4-4.2 1.4-7.8 2.1-6.7 1.4-9.9 3.5-7.1 4.6.8.3 3.2.1 5.4-.5 4.7-1.3 6.3-1.4 6.3-.2s-5.3 2.3-12.2 2.5c-3.1.1-6 .5-6.4.8-1.6 1.6 1.2 2.8 6.7 2.8 5.7 0 7.3 1 4.7 2.7-.7.4-4.2 1-7.8 1.3-4.9.4-6.5.9-6.5 2 0 1.2 1.2 1.4 6 1.2 3.3-.2 6.8-.6 7.9-.9 1.2-.3 1.7-.1 1.4.8-.3.8-2.9 1.7-6.4 2.2-8.8 1.2-9.1 1.3-6.4 4.2l2.3 2.5-2.6.1c-1.5.1-3.2.2-3.8.3-1.7.2-11.1-16-17.4-29.9-6.7-14.7-9.6-20.4-13.4-26l-4.1-6 21.8-.5c38.6-1 36-1 33.2.2zm88.7-.6c-.3.3-1.2.4-1.9.1-.8-.3-.5-.6.6-.6 1.1-.1 1.7.2 1.3.5zm144.6 4.9c3.1.4 5.5 1 5.2 1.5-.3.5-2.7.6-5.4.3-3.1-.3-5.1-.1-5.5.6-1.1 1.7 2.9 2.8 12.7 3.4 7.8.4 8.8.3 8.5-1.2-.2-.9-1.5-1.7-3.3-1.9-5.1-.6-5.3-2.2-.3-2.2 2.7 0 5 .6 5.8 1.4.6.8 1.7 1.3 2.4 1 .7-.3 2.1.6 3 2 1.3 2 2.5 2.6 5.4 2.6 5.4 0 7 1.4 3.4 2.9-1.7.7-4 1.1-5.3.9-3.2-.4-3.5 1.8-.4 3.8 2.2 1.4 4.3 1.6 14.3 1.1 6.4-.3 12.7-.9 14-1.3 1.2-.3 2.2-.2 2.2.4 0 2.6-21.3 4.8-29.5 3.1-2.9-.6-3.1 2.7-.3 4.2 1.4.7 6.6 1.3 13 1.3 6 .1 10.8.4 10.8.7 0 .4-.6 1.2-1.4 1.8-1.4 1.2-5.5 1.6-17.3 2-3.9.1-5.3.5-5.3 1.6 0 3.3 15.4 4.7 23 2 4.7-1.7 5.6-1.5 4.6 1.1-.4 1.1-1.3 1.4-2.8 1.1-1.4-.4-3 0-4.1 1.1-1.5 1.3-3.8 1.7-9.6 1.7-7.4 0-7.6.1-7.6 2.5v2.5l9.4-.3c7-.3 9.2 0 8.9.9-.2.6-2 1.3-3.8 1.5-7.3.6-15.6 1.6-16.9 2-1.1.3-1.1.7 0 2 1 1.2 2.5 1.4 7.6.8 3.8-.4 6.3-.3 6.3.3 0 1.6-4.8 3.3-9.4 3.3-4.8 0-6.1.7-4.5 2.6.7.9 2.8 1.1 6.5.8 5.4-.4 6.6.3 4 2.5-1.1.9-4.7 1.1-13.3.6-10.4-.6-12-1-13.6-2.9-3.6-4.2-6.7-9.6-6.7-11.5 0-4-2.9-12.9-7.3-22.7-2.5-5.4-5.1-11.7-5.8-13.9-.7-2.2-1.9-4.9-2.6-6-1.9-2.9-1.6-3.4 2-3 1.7.3 5.8.7 9 1zm-215.7 5.1c-.3.9-.6 1.8-.6 2 0 .7-3.6.4-4.4-.3-.3-.4.4-1.3 1.6-2 3.1-1.7 4.1-1.6 3.4.3zm266.9 3.5c-2.5 1-16.1 1.1-15.1.2 1-1 10.3-1.9 14.1-1.4 2.6.3 2.7.5 1 1.2zm-90.7 4.2c2.5 6.8 1.1 16.7-2.4 16.7-1.7 0-5.8 2.4-9.1 5.3-4.1 3.6-4.8 1.3-.9-3 2.7-3 3.9-5.5 4.5-9 .7-4.4 4.8-13.3 6.1-13.3.4 0 1.1 1.5 1.8 3.3zm103.2 1.1c0 .3-.4.8-1 1.1-.5.3-1 .1-1-.4 0-.6.5-1.1 1-1.1.6 0 1 .2 1 .4zm-345.4 2.7c1.3 2.2-1.2 2.9-6.7 2-3-.5-4.3-.9-2.9-1 1.4-.1 3.2-.6 4-1.1 2-1.3 4.7-1.3 5.6.1zm-13.8 1.6c-1 .2-2.6.2-3.5 0-1-.3-.2-.5 1.7-.5s2.7.2 1.8.5zm90.7 3.2c2.9.7 2.9.7.8 1.5-2.8.9-3 3.2-.3 4.8 3.6 2.3 2.2 3.1-4 2.4-5.8-.7-6.2-.6-9.1 2.3-1.7 1.7-2.8 3.5-2.4 4 .3.5-.3 1.4-1.2 2-2.8 1.5-.4 3.1 5.2 3.3 2.8.1 13.1-.1 23-.6 13.6-.6 18.3-1.1 19.1-2.2 1.7-2.1 2.1-1.8 3.5 2.3.6 2.1 2 5.4 2.9 7.3 2.9 5.8 3.3 8 1.7 8-1.8 0-6.7 5.6-6.7 7.5 0 .8 1.4 3 3 4.8 3.3 3.8 3.6 5.3 1.7 7.9-1.2 1.5-1.5 1.5-3.7-.3-1.4-1-3.3-1.9-4.3-1.9s-2.8-.6-4-1.2c-1.2-.7-5.1-1.8-8.7-2.4-3.6-.7-8.4-1.8-10.7-2.4-5.5-1.6-9.3-.7-9.3 2.3-.1 3.6-2.3 6.6-6.5 8.8-2.2 1.2-6.4 4.4-9.2 7.2-2.9 2.8-5.6 4.7-6 4.3-.9-.8-3.2-9.3-3.3-11.9 0-1 .4-1.6.9-1.3 1.2.8 5.9-4.9 6.7-8 .9-3.7-.4-7.4-3.7-10.5l-3-2.8 3.9-8.3c2.2-4.6 6.1-12.7 8.6-18.1l4.7-9.7 3.7.1c2 .1 5.1.4 6.7.8zm263 3c-.8 1.3-4.5 1.5-4.5.2 0-.5 1-1.1 2.3-1.3 2.7-.5 3.1-.3 2.2 1.1zM226 621.5c0 1-2.4 5.5-2.9 5.5-.3 0-.6-1.4-.7-3-.1-2.3.3-3 1.7-3 1.1 0 1.9.2 1.9.5zm125.6 8.2c2.1 3.8 5.5 9.6 7.7 13.1l3.9 6.3-2.1 2.3c-1.1 1.2-2.1 3-2.1 4 0 2.3 2.4 6.7 4.9 9 2.2 2 2.7 5.1 1.1 7.6-.7 1.2-1.2 1.1-3-.5-1.9-1.7-2.6-1.8-6.6-.7-6.2 1.7-6.2 1.7-5.6-3.7.3-3.4 0-5.1-.9-5.7-1.5-1-20.9-1.3-20.9-.3 0 .3-.6.6-1.2.7-.7.1-5.5.5-10.7 1-8.6.8-9.5 1.1-12.3 4.1-3 3.2-6.8 3.9-11.2 2.2-1.9-.7-7.4-.1-10.6 1.3-1 .4-1.9-.2-2.5-1.6-1.7-3.9-6.9-3.9-14.9 0-7.4 3.6-9.2 3.5-5.8-.1 2.7-2.9 2.8-5.1.2-7.7-1.1-1.1-2-2.9-2-3.9 0-1.4.5-1.8 2-1.4 1.4.4 2 0 2-1.1 0-.9.3-1.5.8-1.4 1.3.3 6.1-2.1 8.1-4.1 1.6-1.6 2.2-1.7 3.1-.6.6.7 1 2.1.8 3.1-.3 1.8 1.3 2.3 8.8 2.9 2.3.1 4.7.5 5.3.9.6.4 1.4 0 1.7-.8.3-.9 1.5-1.6 2.6-1.6 1.2 0 3.9-.9 6.2-1.9 16-7.4 19.4-9.1 21.4-11 1.2-1.2 2.2-2.5 2.2-2.9 0-2-3.3-5-6.9-6.2-4.6-1.5-5.2-3.1-1.9-5.4 3-2.1 4.8-2 4.8.3s3.5 5.1 6.4 5.1c1 0 4.1-1.3 6.7-3 5-3 9-3.9 12.1-2.5 1.2.5 2 .2 2.4-.9 1.1-2.8 2.2-1.8 6 5.1zM19.5 634c.3.5.1 1-.4 1-.6 0-1.1-.5-1.1-1 0-.6.2-1 .4-1 .3 0 .8.4 1.1 1zm44.1 3c.8 0 1.4.5 1.4 1.1 0 1.5-5.3.6-5.8-1-.3-1 0-1.2 1.2-.8 1 .4 2.4.7 3.2.7zm-36.1 4.4c3.4 1.2 4.2 1.2 6.2-.1 2.1-1.4 2.3-1.4 2.3 0 0 2-2.1 6.7-3 6.7-.4 0-1.5-.9-2.5-2-1.1-1.2-3.1-2-5-2-3.1 0-5.2-2-3.8-3.4.9-.8 1.2-.8 5.8.8zm16-.4c.3.5.2 1-.4 1-.5 0-1.3-.5-1.6-1-.3-.6-.2-1 .4-1 .5 0 1.3.4 1.6 1zm168.6 10.5c1.1 2.5 1.8 5.3 1.5 6.3-.8 2.4-8.7 6.5-10 5.2-.5-.5-1.8-1-2.9-1-2.4 0-10.7-7-10.7-9.1 0-.9.9-2.4 1.9-3.3 2.4-2.2 3.6-.6 3.2 4.1-.2 2.5.3 3.5 2.3 4.8 2.7 1.8 5.6 1.1 3.7-.8-1.5-1.5-1.4-5 .1-6.5 2.1-2.1 2.7-1.3 3 3.5.3 4 .6 4.8 2.3 4.8 1.8 0 2-.7 2-6.3 0-3.4.4-6.2.8-6.2s1.7 2 2.8 4.5zm-115 .6c-2.4 8.3-3.8 9.5-5.5 4.6-.8-2.1-.6-3.1.9-4.7 2.1-2.3 5.2-2.2 4.6.1zm27.5 1.4c1.5 2.2 1.5 2.8-.1 6.9-1.5 3.8-2.2 4.5-5.2 5.1-2.8.5-3.4 1-3.1 2.8.3 1.9-.1 2.1-3.3 1.9-4.2-.4-6.1 1.5-3.5 3.4 1.6 1.1 1.6 1.3-.6 1.6-1.5.2-2.3 1-2.3 2.3 0 1.6.9 2.1 4.5 2.6 7.1 1 10.3-1.8 4.6-4.1-2-.8-1.9-.9.6-.9 3.2-.1 3.4.2 4.2 5.4l.7 4-6.7-.3c-3.9-.2-7.1.1-7.7.7-1.9 1.9 1 3.6 6.1 3.7 6.8.2 7.2.3 7.2 1.4 0 .6-2.8 1-6.4 1-3.6 0-6.8.5-7.2 1.1-1.3 2.2 1.7 3.3 9 3.1 5.4-.2 7.6.1 8.5 1.2 2.1 2.5.5 3.4-4.3 2.5-6.5-1.2-13.1.1-13.1 2.6 0 1.5.6 2 2.5 1.8 1.4 0 5.6-.3 9.4-.5l6.8-.4 1.9 4.4c1.1 2.4 1.9 4.7 1.9 5.2s-5.2.9-11.6.9c-12.1.1-13.4.3-13.4 2.7 0 1.1 2.1 1.3 11.8 1.1 6.4-.1 12.2-.6 12.8-1 .8-.4 1.4.3 1.9 2 .9 3.8 5.3 13.2 7.6 16.4 3.6 5.2 3 5.5-10.3 6.2-19.4 1.1-42.4.8-45.2-.5-3.5-1.5-4.3-4.6-1.8-6.4 1.1-.8 2.8-3.5 3.7-6.1.9-2.7 2.3-6.4 3-8.3.8-1.9 2.1-6.2 3.1-9.5s3-8.8 4.6-12.3c1.5-3.4 2.8-6.7 2.8-7.2 0-2.9 7.7-19.9 10.2-22.6 3-3.2 4.8-8 4.8-12.6 0-1.6.4-2.8.8-2.8 1.4 0 4.2 5.7 4.2 8.5 0 2 .4 2.6 1.8 2.3 1.3-.3 1.7-1.3 1.6-4.3 0-2.2-.4-4.8-.8-5.8-1.3-2.7 2.1-2.1 4 .8zm-16.6-.1c0 .8-.5 3.7-1.2 6.5l-1.1 5-2.9-2.7c-3.2-3.1-3.5-4.8-1.2-8 1.7-2.5 6.4-3.1 6.4-.8zm263.5.3c-.4 1-1 3.3-1.4 5.2-.6 3.3-.7 3.4-2.4 1.7-3.2-3.2-1.6-8.6 2.6-8.6 1.4 0 1.7.4 1.2 1.7zm21.6.3c.7 10.1-.5 12.8-4.2 9.4-2.1-1.9-2.4-4-.9-7.8.9-2.5 4.9-3.8 5.1-1.6zM221 657.9c-.6 1.2-1.5 1.9-2.1 1.6-1.3-.8-1.1-2.9.3-4.3 1.8-1.8 3.2.2 1.8 2.7zm161 1c0 2.2.3 4.6.6 5.5.9 2.3-2.2 2-4.6-.4-2.5-2.5-2.7-7.7-.2-8.3 3.8-1 4.2-.7 4.2 3.2zm-225 5.6c.7.8 2.1 1.5 3.1 1.5s2.6 1.2 3.6 2.6c.9 1.4 3.4 3.7 5.6 5.1 6.6 4.2 3.5 3.5-5.9-1.3-10.4-5.3-10.7-5.5-9.8-7.7.8-2.1 1.8-2.1 3.4-.2zm39.6 1.1c-.8 2-7.3 26.6-9.7 36.4-1.9 7.9-6.6 21.8-7.9 23.5-.5.6-1.8 3.6-3 6.7-1.2 3.2-2.6 6-3.1 6.4-1.4.8-5.9-3.5-5.9-5.6 0-.9 1-2.6 2.3-3.8 2.1-1.9 6.6-11.3 12.7-26.2 1.1-2.5 3.3-7.7 5-11.5 1.8-3.9 4.3-11.6 5.8-17.3 1.4-5.6 2.9-10.2 3.5-10.2.5 0 .6.7.3 1.6zm140.1 4.6c-1.3 10.7-2.6 14.2-7.4 19-6.9 7-13.1 9.6-25.2 10.4-7.4.5-10.5.4-11.5-.6-1.1-.8-4.7-1.1-12.1-.8-5.8.1-10.5 0-10.5-.4s1.3-1.6 2.9-2.7c3.6-2.6 9.6-11.6 10.8-16.1l.9-3.5 10-.6c5.4-.3 10.2-.3 10.6 0 .4.3.3 2.3-.1 4.3-.6 2.7-.5 4.2.5 5.5 1.3 1.7 1.5 1.7 2.9-.1.8-1 1.7-5 2.1-8.9.5-4.9.9-6.5 1.4-5.1.7 1.7 0 12.5-1 15.9-1 3.7 2.2 4.9 4 1.4.6-1.1 1.3-3.9 1.5-6.2.2-2.3.7-6.3 1-8.9.7-5.2.6-5.1 13-6.1 2.2-.2 4.6-.4 5.4-.5 1-.2 1.2.9.8 4zM4.9 672.6c.1 1.1.7 2.9 1.5 3.9 1.4 1.9 1.5 1.9 3.3.2 1.1-.9 2.5-1.7 3.1-1.7 1.1 0 5.7 5.8 5.1 6.4-.2.2-3.6.7-7.5 1.1-5.2.5-7.4.3-7.9-.5-1-1.6-.9-12.5.1-14.1.9-1.5 2.2 1.2 2.3 4.7zm174.9-1.7c.3.9-.2.9-2.2 0-1.4-.7-2.6-1.6-2.6-2 0-1.2 4.3.6 4.8 2zm36.2-.8c0 1.7-.4 2-2.2 1.5-4.7-1.4-9.6-1.8-10.2-.8-1.5 2.5.7 4.1 6.7 4.9 4.9.6 6.3 1.2 6.5 2.7.3 1.4 0 1.7-1.3 1.2-3.5-1.3-14.3-1.8-15-.6-1.1 1.7 1.5 4 4.4 3.8 1.4 0 4.5.2 6.7.6 2.7.5 4.4.4 4.9-.3 1.1-1.8 2.5-.2 2.5 2.8v2.8l-8.1-.5c-7.5-.4-8.1-.3-7.7 1.4.3 2 .6 2 13 2.3l4.6.1 2.2 7.1c2.3 7.7 1.8 9.9-1.7 8-3.2-1.6-14.9-2.6-15.8-1.2-1.2 2.1 1.6 4.3 4.7 3.7 1.6-.3 5.1-.1 7.9.5 3.6.8 5.3.8 6.3-.1 1.7-1.4 1.8-1.3 5.5 8.9 1.7 4.6 3.5 8.9 4.1 9.7.7.7 1 2.3.8 3.6-.2 1.2.2 2.3.7 2.3 1.6 0 3.4 1.5 4.5 3.6.9 1.6.7 2.1-1.2 2.8-1.7.6-2.8.4-4.1-.7-1.5-1.3-5.1-1.7-19.8-2-10.8-.2-20 .1-23 .7-2.9.6-6.7.9-8.6.5-3.2-.6-3.4-.8-2.7-3.8.3-1.7 1.7-5.1 3-7.6 3.4-6.6 6.2-14.7 9.4-27.3 1.5-6.2 3.8-14.8 5-19.2 1.3-4.4 2.5-9 2.7-10.2.5-2 1.3-2.3 7.2-2.6 3.6-.2 6.9-.4 7.4-.5.4-.1.7.8.7 1.9zm164 1.8c0 .6-.5 1.3-1.1 1.6-2.5 1.6.1 3 5.6 3 8 0 8.7 2.3.8 2.7-4.4.2-5.8.7-5.8 1.8s1.4 1.6 5.5 1.8c7.6.4 9 2.2 1.6 2.2-4.9 0-5.7.2-5.4 1.7.2 1.4 1.5 1.9 5.3 2.1 5.1.3 7.5 1.5 7.5 3.7 0 1-2 1.2-8.5.7-7.3-.4-8.5-.3-8.5 1.1 0 2.3.7 2.5 10 2.9 8.5.3 10 .9 10 3.9 0 1.4-1.5 1.6-10.7 1.5-8.9-.1-10.8.2-10.8 1.4s1.9 1.5 10 1.7c5.8.1 10.5-.3 11.2-.9 1.6-1.3 1.6-1.2 4.7 11.2 2.3 9.5 4.7 15.3 10.1 24.3 2.7 4.6 3 4.8 5.9 4.1 3.4-.9 12.8-.8 21.9.1 4.5.5 5.7.3 5.7-.8 0-2.8-3-3.9-11.7-4.4-14.3-.9-13.1-2.2 2-2.3 18.6 0 30.3 2.6 35 7.7 1.4 1.7 1.5 2.5.6 5.2-2.4 6.8-15.3 9.7-40.7 8.8-8.6-.3-16.7-.8-17.9-1.2-1.3-.4-2.9-2-3.6-3.5-1.9-3.8-.3-5.9 4.1-5.2 2.5.3 3.2.1 3.2-1.2 0-.9-.8-1.6-2-1.6s-3.5-.7-5.2-1.6c-2.6-1.3-7.1-1.7-23.2-2-11.1-.1-23 .2-26.5.7-3.5.5-6.5.8-6.7.6-.1-.1 1-2.9 2.6-6.2 1.6-3.3 4.3-10.5 6-16 1.7-5.5 3.5-10.9 4-12 .4-1.1 1.5-3.8 2.4-6 .9-2.2 3.4-10 5.6-17.3 2.1-7.3 4.2-13.7 4.5-14.2.8-1.3 2.5-1.3 2.5-.1zm-106.5 3.3c-1.5 7-6.8 12.9-15.4 17.2-7.7 3.9-19.6 4.3-12.4.5 3.8-2 9.5-9.8 8.7-12.1-.4-1.4 0-1.8 1.9-1.8 1.3 0 3.7-1 5.2-2.2 2.7-2.1 8.8-4.7 11.3-4.8 1 0 1.2.9.7 3.2zM74 673.5c0 .3-.7 2.2-1.5 4.2-.8 1.9-1.5 4.3-1.5 5.3 0 3.9-8.3 7.7-12.5 5.8-1.4-.6-2.5-1.5-2.5-1.9 0-.5 2.3-2 5-3.4 3.8-1.9 5-3.1 5-4.8 0-1.4 1.1-2.9 2.8-3.9 2.7-1.7 5.2-2.3 5.2-1.3zM23 675c0 .5-.2 1-.4 1-.3 0-.8-.5-1.1-1-.3-.6-.1-1 .4-1 .6 0 1.1.4 1.1 1zm129.1 1c2.1 1.7 2.2 2.1.9 3-2 1.3-8.7 1.3-9.5-.1-.9-1.4 2.4-4.9 4.5-4.9 1 0 2.8.9 4.1 2zm201.2 1.7c1.4.8.7 3.3-1.3 4.5-2.3 1.5-2.6 2.8-.6 2.8.7 0 1.9.7 2.6 1.5 1.2 1.4 1.5 1.4 3 0 1.7-1.5 4-2 4-.8 0 1.1-3.2 11.7-4.5 14.8-.7 1.6-2 4.7-2.9 6.7-1.5 3.8-4 4.9-6.2 2.9-.5-.5-4.5-1.2-8.9-1.5-10.9-.7-17.8-1.6-18.8-2.6-.5-.4 1.3-2.5 4-4.6 7.6-6.1 12.7-11.7 14.7-15.9 1-2.2 2.8-5.3 3.9-6.8 1.8-2.6 2.3-2.8 6.1-2.2 2.2.4 4.4.9 4.9 1.2zM41 679.6c0 .9-.5 1.4-1.2 1.2-1.8-.6-2.1-2.8-.4-2.8.9 0 1.6.7 1.6 1.6zm371.6 2.9c3.9 3.9 3.9 4.4 1.1 18-.8 3.8-1.4 8.3-1.3 9.9.1 2.3-.6 3.3-3 4.7l-3.2 1.7-1.7-6.6c-3.6-13.9-6.5-27.7-6.1-28.9.3-.6 2.2-1.4 4.3-1.6 2.1-.2 4.4-.4 5.1-.5.7-.1 2.8 1.4 4.8 3.3zm52.9 2.5c1.1.4 4.9.8 8.4.9 3.6.1 6.8.4 7.3.7 1.2.7.8 23.2-.5 27.7l-1 3.8-5.6-.7c-6.8-.8-11.3-1.7-21.1-4.3-9.1-2.5-11.4-2.6-14.5-.5-1.6 1.1-3.4 1.3-6 .8-3.5-.6-3.6-.8-3.1-3.8.3-1.7.8-7.2 1.2-12.2.3-5.1.9-9.6 1.3-10.2.3-.5 5.3-1.2 11.1-1.5 5.8-.3 11.6-1 13-1.5 2.4-1 5.1-.7 9.5.8zm-41.8 2.2c-.3 1.3-1.1 5.2-1.7 8.8-1.1 6.1-3.5 11.8-4.6 10.7-.3-.3-.1-2.2.5-4.4.5-2.1 1.8-6.8 2.7-10.6.9-3.7 2.1-6.7 2.7-6.7.5 0 .7 1 .4 2.2zm-391.4.3c2.3.9 2.2 2.2-.3 3-1.1.4-3.4 1.8-5.1 3.2-3.5 3-4.1 2.9-16.9-2.9-4.8-2.1-6.1-3.1-5-3.8 1.6-1 24.6-.6 27.3.5zm46.7 5c1.2 3 2.4 3.1 5.8.4 2.7-2.1 2.7-2.1 3-.1.5 3.5-2.5 8.2-5.4 8.2-1.3 0-2.7-.7-3-1.5-.6-1.4-.8-1.3-1.9.2-1.2 1.6-3.3 1.8-23.4 1.6-12.1-.1-22.5-.4-23.1-.8-2.8-1.7 5.7-8.5 10.7-8.5 1.4 0 7.2.7 12.8 1.5l10.3 1.6 4.9-2.5c6.3-3.1 8.1-3.2 9.3-.1zm187.8 3.5c.1 2.8-.1 3-3.9 3-4.8 0-5-1.2-.6-3.8 4.3-2.7 4.4-2.7 4.5.8zm-29.5 4.7c-.7.2-1.9.2-2.5 0-.7-.3-.2-.5 1.2-.5s1.9.2 1.3.5zm-4.6.9c-.3.3-1.2.4-1.9.1-.8-.3-.5-.6.6-.6 1.1-.1 1.7.2 1.3.5zm56.9 1.5c.4.7 4.3.9 12.1.5 10.2-.6 11.4-.4 10.3.9-.7.8-2.1 1.5-3.2 1.5s-2.9.5-4.1 1.1c-1.9 1.1-13.2 3-18.2 3.1-1.1 0-5.8-.6-10.5-1.5s-13.8-1.7-20.2-1.9c-6.5-.2-11.8-.6-11.8-.9 0-.9 12.3-2.9 14.5-2.4 1.1.3 5.8.1 10.5-.4 12.4-1.2 19.8-1.2 20.6 0zm-216.5 2.8c5.9.1 8.8.5 9.2 1.3.3 1-2.9 1.3-14.2 1.3-8 0-17.7.4-21.5.9-7.2.8-15.8-.6-14-2.4.8-.8 22-1.8 29.4-1.4 1.4.1 6.4.2 11.1.3zm101.4 1.3c-1.3 4.4-2.2 4.6-15.5 3.6-12-.8-19.3-1-23.5-.5-1.1.1-2.1-.5-2.3-1.6-.3-1.6 1.1-1.7 17-1.9 9.5 0 18.3 0 19.5.1 1.2.1 2.4-.3 2.8-.9 1.2-1.9 2.6-1 2 1.2zm66 4.7c.6 1-6.3 3.7-7.2 2.8-.5-.5 4.5-3.6 5.9-3.7.4 0 .9.4 1.3.9zm36.3 2.1c7.2 2 8.9 2.1 12.3 1.1 2.2-.7 6.1-1.1 8.7-1 2.6.1 5.7-.3 6.8-.9 5.4-2.9 44.4-.5 44.4 2.7 0 .3-1.7 3.5-3.7 7.1l-3.8 6.4-11 .2c-18.9.2-34.5 5.6-34.5 11.9 0 1.2-.7 2.5-1.5 2.8-1.9.8-2.6-.5-1.4-2.3 1.7-2.9.9-5.8-2.6-8.9-2-1.7-4.5-3.3-5.8-3.6-6.5-1.6-14.8-2.3-29.2-2.4-17-.2-17.8-.4-19-5.2-.6-2.2-.2-2.7 3.2-4.1 7-2.8 10.9-3.8 15.4-3.8 2.4 0 5.5-.7 6.9-1.5 2.9-1.6 3.6-1.5 14.8 1.5zm-115.6 1c8.6 0 8.8 0 8.8 2.4 0 3-5.3 13.2-8.8 16.8-2.3 2.5-3.3 2.8-9.3 2.8-6.3 0-6.9-.2-8.7-2.8-3.8-5.5-9.2-16.3-9.2-18.4 0-2 .3-2.1 9.2-1.4 5 .3 13.1.6 18 .6zm260.4 2.1c1.4 1.6 2.5 1.9 4.9 1.4 1.6-.3 5.3-.9 8-1.2 2.8-.3 5.6-1 6.2-1.5 1.6-1.3 11.6-.2 15.8 1.7 3.9 1.7 11.9 3.5 17 3.8 3 .2 3.9.6 3.6 1.7-1 3.7-.5 5.5 1.5 5.8 2 .3 3.6-2.3 5.8-9.1.7-2.2 3-1.8 3.4.6.2.9-1.3 5.2-3.2 9.7-2 4.5-3.6 8.8-3.6 9.5 0 2.2-5.6 1.9-8.8-.4-1.5-1-5.2-2.4-8.2-3.1-3-.7-6.6-1.7-8-2.2-2.6-1.1-36.4-1.2-40.5-.2-2 .5-2.7 0-4.4-3.4-2.7-5.2-5.1-12.2-4.2-12.2.4 0 1.2.5 1.7 1 1.3 1.3 5.4-.1 7.3-2.4 1.8-2.2 3.4-2 5.7.5zm-65.5 12.2c-1 .9-1.1.8-.5-.6.3-1 .9-1.5 1.2-1.2.3.3 0 1.1-.7 1.8zm-284.5 3.2c.9 1.4 3.4 4.4 5.5 6.7s3.5 4.6 3.1 5c-.4.3-7.9.8-16.8.9-15 .2-16.4.1-20.8-2-2.6-1.3-4.5-2.5-4.3-2.7.2-.2 3-.9 6.3-1.4 7.5-1.4 11.4-2.9 11.4-4.5 0-.7 1.2-1.6 2.8-1.9 5.2-1.3 9.7-2.4 10.4-2.5.4 0 1.5 1 2.4 2.4zm281.1 4.2c-2.2 4.3-5.7 7-5.7 4.5 0-1.4 7.1-10.4 7.7-9.8.3.3-.6 2.7-2 5.3zm-70.7-3.1c4.9 2 6.8 4.8 4.8 7.1-2.6 3.1-6.1 4-22.3 5.8-9.9 1.1-24.7 1.7-27.2 1l-2.8-.7 3.4-1.4c1.8-.8 4.4-1.4 5.7-1.4 1.4 0 2.7-.7 3-1.5.4-1 1-1.2 1.8-.6 1.7 1.4 11.6.1 11.6-1.5 0-.8-1-1.4-2.4-1.4-2.7 0-4.3-1.5-2.3-2.2.6-.2 4.6-.4 8.7-.3 5.4.1 8.4.6 10.7 2 2.7 1.6 3.5 1.7 4.5.6 1.7-1.6-1.1-3.8-5.9-4.7-1.8-.3-3.6-1-3.9-1.5-.9-1.5 8.3-1 12.6.7zm-31 3.8c0 .2-.7.6-1.5 1-.8.3-1.5.1-1.5-.4 0-.6.7-1 1.5-1s1.5.2 1.5.4zm169 1.6c-1.9 1.3-3 1.3-3 0 0-.6 1-1 2.3-1 1.8 0 1.9.2.7 1zm-76.3 7.5c4.7.8 9.9.8 22.6-.2 6.9-.6 10.2-.5 10.8.3 3.7 4.5-17.3 6.3-45.9 3.8-8.2-.7-8.3-.7-9.7-4-1.3-3.1-2.4-3.9-4.7-3.5-.5 0-.8-.3-.8-.8 0-1.5 5.1-2.2 11.5-1.6 4.4.5 6.5.3 7-.5.5-.7 1.5 0 3.1 2.3 1.7 2.6 3.3 3.7 6.1 4.2zm-188.9-5.8c-1 .2-2.8.2-4 0-1.3-.2-.5-.4 1.7-.4 2.2-.1 3.2.1 2.3.4zm13 1.9c1.2.8 2.6 1.2 3.2.9.5-.3 3.3-.3 6.1.1 4.9.7 5.1.8 2.8 2-2.9 1.6-31.4 2-32.4.4-.4-.6 1.7-1 5.4-1 5 0 6.3-.4 7.3-2 1.5-2.4 4.5-2.6 7.6-.4zm37 .6c-.5 1.6-4.1 2.2-7.4 1.4-4.2-1.1-2.6-2.6 2.7-2.6 3.6 0 4.9.4 4.7 1.2zm-157.4 8.7c.8.7 3.6 1.6 6.3 2.1l4.8.8-4.7.1c-9.9.2-6 4.2 4.8 4.9 7.7.5 8.6 2.2 1.2 2.2-6.5 0-5.5 3.7 1.1 3.8 3.6.1 5.8 1.2 2.3 1.2-1.1 0-2.3.4-2.6.9-1.1 1.8 2.2 3 8.9 3.3l7 .3-3.4 1.9c-2.5 1.3-4.6 1.7-7.7 1.2-4.5-.6-6.5.7-4.5 2.7s1.2 2.8-2.3 2.2c-3.8-.8-5.4.6-3 2.6.9.7 2 2.3 2.5 3.6.7 2 1.5 2.3 6.5 2.3 3.9 0 5.4.4 5.2 1.2-.3.7-1.5 1.3-2.9 1.3-12.9.6-14 1-11.5 4.6 2 2.9 2 4.7 0 9.4l-1.5 3.8-4-3.9c-2.1-2.1-3.9-4.3-3.9-5 0-.7 1.4-2.4 3-3.7 4.4-3.7 4-7.3-1.4-14.4-2.4-3.2-6.2-9.2-8.4-13.5-2.3-4.2-5.5-9.7-7.2-12.2-1.7-2.5-2.9-4.9-2.6-5.4.7-1.2 16.3.3 18 1.7zm83.8-.7c2.2.6 6.7.8 10.8.5 5.3-.4 7-.3 6.7.6-.2.7-1.7 1.3-3.3 1.5-4.1.4-9.6 3.1-9.1 4.5.4 1.3 4.1 2.4 11.2 3.5 4.4.6 5 1 5 3.2 0 2.5.1 2.5 7.5 2.2l7.5-.3-2.5 2c-2.5 2-9.5 3.2-18.3 3.1-4.1-.1-4.8.2-4.5 1.7.4 2.2 6.3 3.4 12.8 2.7 3-.4 4.2-.2 3.5.5-.5.5-5 1.4-9.9 1.8-5.7.5-9.1 1.3-9.4 2-.2.9.9 1.3 3.5 1.3 2.1 0 4.5.5 5.3 1 1.2.8.9 1-1.2 1-1.5 0-3 .5-3.3 1-1 1.6 1.4 4 4 4 1.3 0 3.3.9 4.6 1.9l2.4 2-2.3.8c-1.3.5-4.3.6-6.8.3-3.8-.4-4.7-1-6.4-4-4.2-7.6-7-13.9-9.8-21.5-1.6-4.4-4.3-10.2-6-12.9-1.8-2.8-3.2-5.3-3.2-5.7 0-.9 6.1-.2 11.2 1.3zm100.8-.6c4.1.3 8.1.7 8.8.9 2 .7 1.4 2.5-1.4 3.5-3.7 1.4-2.4 3.4 2.4 3.8 4.5.3 5.7 1.8 2 2.4-1.7.2-2.4 1.1-2.6 3-.4 3-1.3 3.4-4.1 1.9-1-.6-2.3-.6-3.1-.1-2.1 1.3 1.3 4.7 5.4 5.5 1.7.4 4.2 1.4 5.5 2.2 1.9 1.2 4.3 1.4 11 1 6.2-.4 7.9-.3 6.1.4-1.3.5-6 1.3-10.3 1.6-4.3.3-8 1-8.3 1.5-.9 1.4 1.3 3.2 3.9 3.3 3.6 0 3.5 1.7-.3 2.9-1.9.6-3.6 1.9-3.8 2.8-.3 1.5.4 1.8 3.7 1.8 2.3 0 4.1.5 4.1 1.1 0 .6 1.1 2 2.5 3.1 3.3 2.6 3.2 3.6-.7 4.6-2.8.7-3.5 1.5-4.3 4.9-1.3 5.4-2.2 6.2-3.4 2.9-.8-1.8-.7-3.4.1-5.2 1.1-2.3.9-2.8-1.2-4.5-1.4-1-3.4-1.9-4.6-1.9-1.6 0-3-1.7-5.7-6.8-4.2-7.9-7.9-15.3-10.1-20.2-.9-1.9-3.2-6.4-5.1-10-1.9-3.6-3.5-6.9-3.5-7.4s2.1-.6 4.8-.2c2.6.3 8.1.9 12.2 1.2zm84.5 2.7c3.2.8 5 1.7 5 2.7 0 1.2 1.9 1.7 8.5 2.2 4.7.5 9.4 1.2 10.5 1.7 1.6.8 6.8 1.5 14.8 2 .5.1.5.6.1 1.2-.4.7-3.6 1-8.8.8-7.6-.4-8.1-.3-8.1 1.6 0 1.3.7 2.1 2 2.2 1.1.1 5 .5 8.8.8 9.5.9 7.4 2.6-2.9 2.4-9-.2-10 .1-9.1 2.6.4 1 2.1 1.6 4.9 1.7 2.4.1 5.2.2 6.3.3 1.1.1 3.6.3 5.5.4 5.7.3 1.5 1.8-7.2 2.6-6.8.6-7.8.9-7.8 2.6 0 1.7.8 1.9 8.3 2.1 4.5 0 8.8.1 9.5.1.6-.1 1.2.3 1.2.7 0 .4-3.3 1.1-7.2 1.5-9.5.8-10.8 1.3-10.8 3.4 0 1.6.9 1.8 6.5 1.8 6.9.1 8.1.4 7 2.3-.4.7-2.4.8-5.6.4-5-.7-7.9.5-7.9 3.1 0 1.3 4.2 3.5 6.7 3.5 2.8 0 8.3 4.9 8.3 7.4 0 2.7-2.5 6.4-3.7 5.3-.4-.5-1.2-2.9-1.8-5.5-.9-4.1-1.3-4.7-4.5-5.4-1.9-.5-4.3-1.3-5.3-1.9-1-.6-3.1-.7-4.7-.4-2.2.5-3.2 0-5.4-2.5-1.4-1.7-2.6-3.6-2.6-4.2 0-1.5-12.7-29.4-15.7-34.5-2.2-3.8-2.4-6.4-.5-6.3.4.1 3 .6 5.7 1.3zm-57.1 4.9c-.3.4-1.9.8-3.5.8-1.7 0-2.8-.4-2.5-.8.3-.5 1.9-.9 3.5-.9 1.7 0 2.8.4 2.5.9zm148.8 2.5c6.4 1.4 7.7 2 7.3 3.4-.8 2.5 1.3 3.5 10.1 4.9 6.9 1.1 8.1 1.6 7.7 3-.7 2.5.4 2.9 8.8 3.2 4.1.1 7.8.4 8.3.7 1.2.6-9.8 2.9-14.2 3-2.6.1-3.3.5-3 1.8.3 1.5 1.7 1.9 7.8 2.3 4.8.3 7 .8 6.2 1.4-1.5.9-8.2 1-11.1.1-2.3-.7-4.9 2.1-3.3 3.7.5.5 3.1 1.3 5.7 1.5 5.5.7 5.5 2.6-.1 3.3-2.7.4-3.8.9-3.7 2 .4 2.1-5 4.3-8.4 3.6-1.6-.4-4.5-.7-6.6-.8-3.8-.1-6.7-2.5-6.7-5.5 0-.7-1.3-4-2.9-7.5-1.6-3.5-4.4-9.9-6.2-14.3-1.7-4.4-3.6-8.4-4-9-1.1-1.1-1.2-2.5-.1-2.5.4 0 4.2.7 8.4 1.7zm25.4 3c-1 1-4.9 1.2-6.6.2-1-.6 0-.8 2.9-.9 2.4 0 4.1.3 3.7.7zm-161.2 4.4c-2.7 1.1-3.4 1-3.4 0 0-1.1 3.1-2 4.4-1.3.5.3.1.9-1 1.3zm186.6-1.6c0 1.4-8 3.5-12.9 3.4-4.8-.1-5.2-.2-2.6-.9 2.9-.8 11.8-2.6 14.3-2.9.6 0 1.2.1 1.2.4zM257 768c0 1.2-4.7 1.2-7.5 0-1.5-.6-.8-.9 2.8-.9 2.6-.1 4.7.3 4.7.9zM74 782c-.8.5-2.6 1-4 1-2 0-2.2-.2-1-1 .8-.5 2.6-1 4-1 2 0 2.2.2 1 1zm183.8.1c-.2.6-.8 1-1.3 1s-1.1-.4-1.3-1c-.2-.6.4-1.1 1.3-1.1s1.5.5 1.3 1.1zm.2 7.9c0 .5-.4 1-1 1-.5 0-1-.5-1-1 0-.6.5-1 1-1 .6 0 1 .4 1 1zm-192.5 7.1c1.5 2.8 1.5 3.4-.2 7.5-1.9 4.6-4 5.4-3.5 1.3.2-1.3.6-4.5.9-7.2.3-2.6.7-4.7.9-4.7.2 0 1.1 1.4 1.9 3.1zm9.3 2c.2 1.3-.4 3.3-1.2 4.4-1.4 1.9-1.5 1.7-1.6-2.8 0-3.5.4-4.7 1.3-4.5.6.3 1.3 1.5 1.5 2.9zm71.2 0c0 .6-.5 2-1.1 3.1-.9 1.6-.7 2.6 1 4.9 2.9 3.9.4 3.9-3.2.1-2.9-3-3.5-6-1.5-8 1.5-1.5 4.8-1.6 4.8-.1zm20.8 1.3c.6 3.1-.8 8.6-2.9 10.7-2.2 2.2-8.2 2.5-11.8.5-2.3-1.3-2.3-1.4-.5-2.4 1.6-.9 1.7-1.3.5-3.6-1.1-2.1-1.2-2.8-.1-4.1 2.2-2.7 4-1.8 4 2 0 2.3.6 3.8 1.5 4.1 2.3.9 4.5-1.5 4.5-5.1 0-1.7.3-3.5.7-3.9 1.2-1.2 3.8-.1 4.1 1.8zM440 799c0 .5-.7 1-1.5 1s-1.5-.5-1.5-1c0-.6.7-1 1.5-1s1.5.4 1.5 1zm-201.2 3.2c-.3 3.6-3 4.6-3.6 1.5-.5-2.6.5-4.7 2.3-4.7 1.2 0 1.5.8 1.3 3.2zm25 1.2c.2 1.6-.1 3.3-.7 3.9-.8.8-1.1.5-1.1-.9 0-1-.3-3-.7-4.3-.4-1.8-.2-2.3.8-1.9.8.2 1.5 1.7 1.7 3.2zm65.6 1.6c-.4 1.9-.1 3.8 1 5.5 1.4 2.1 1.4 2.5.2 2.5-1.5 0-6.6-5.9-6.6-7.6 0-1.6 2.3-3.4 4.2-3.4 1.4 0 1.6.6 1.2 3zm-73.1 5c-.3 1.7-.9 3-1.4 3-1.1 0-1.2-6.1-.2-8.6.6-1.5.7-1.5 1.4.5.5 1.1.6 3.5.2 5.1zm82.7-5.6c0 2.5-1.2 4.6-2.5 4.6-1.8 0-2.4-2.1-1.3-4.3 1-2 3.8-2.3 3.8-.3zm82 2.6c-1.4 2.7-2.5 3.8-3.5 3.4-1.4-.6-1.7-1-1.9-3.5-.1-.6 1.5-1.7 3.4-2.4s3.6-1.3 3.8-1.4c.1 0-.7 1.7-1.8 3.9zm12 1.4c0 1.9-2.6 5.6-4 5.6-.4 0-1.5-1.1-2.4-2.4-1.5-2.4-1.4-2.6 1.1-5.7 2.5-2.9 2.7-3 4-1.3.7 1 1.3 2.7 1.3 3.8zm9.8-.3c.4 3.3-2 6.4-4.3 5.6-1-.5-1.5-1.3-1.1-2.3.3-.9.6-2.9.6-4.4 0-2.6.2-2.8 2.3-2.1 1.3.5 2.3 1.8 2.5 3.2zm-296.6 12.1c-.7 2.4-1.6 8-2.2 12.5-1.6 12.2-8 29.8-14.3 39-2 3-2.7 3.3-7.3 3.3-2.8 0-5.3-.3-5.6-.6-.3-.3 1-2.9 2.9-5.7 5.1-7.6 9.6-16.8 16.9-34.9 7.9-19.5 8.3-20.3 9.6-19 .8.8.8 2.4 0 5.4zm195-2.1c1.3.1 3.2.2 4.2.3 1.1.1 2.1.6 2.3 1.3.3.8-1.1 1.3-3.9 1.5-5.2.4-6.2 3.1-1.3 3.6 5.4.5 7.5 1.2 7.5 2.6 0 1-1.3 1.4-4.7 1.3-3.7-.2-4.8.2-4.8 1.3 0 1 1.7 1.8 5.3 2.5 3 .6 5.7 1.7 6.2 2.5.4.8 2.2 5.8 4 11 1.7 5.2 3.5 9.9 4.1 10.4.5.6.9 1.6.9 2.3 0 1.1-2.7 1.2-13.9.7-9.4-.5-14-.4-14.5.4-1.4 2.2 2 2.7 30.1 4.1 1.1.1 5.7 6.8 5.8 8.6 0 .5-2.5 1-5.5 1.1-3 0-14.4.4-25.2.9-14.8.6-19.8.5-19.8-.3 0-.7 1.8-5.1 3.9-9.9 2.1-4.9 4.2-9.9 4.6-11.3.4-1.4 2.6-7.9 5-14.5 2.3-6.6 4.6-14.9 5-18.5.6-5.1.9-6 1.6-4.3.5 1.4 1.7 2.4 3.1 2.4zm-280.3-1.9c.6.7 2.6 1.3 4.4 1.3 2.2 0 3.3.5 3.5 1.7.3 1.5-.5 1.8-5.2 1.8-6 0-6.8-.5-5.9-3.8.6-2.5 1.4-2.7 3.2-1zm424-.3c1.4.4 2.6 1.2 2.9 1.9.3 1-1.9 1.2-9.7 1-10.7-.3-13.6-1.9-5.4-2.9 6.6-.8 9.4-.8 12.2 0zm6.8 1.7c-.3.3-1.2.4-1.9.1-.8-.3-.5-.6.6-.6 1.1-.1 1.7.2 1.3.5zM257 818.9c0 .5-2.7.9-6 .8-3.3 0-6-.4-6-.9 0-.4 2.7-.8 6-.8s6 .4 6 .9zm176.5.2c1 1.5.4 1.7-3.4 1.2-2.3-.4-2.9-.8-2-1.4 1.9-1.2 4.7-1.1 5.4.2zm-273 .9c1.1 1.8-.3 2.6-4.4 2.2-5.6-.5-5.7-3.2-.2-3.2 2.2 0 4.3.4 4.6 1zm257 1.7c-1.3 6.2-2.8 11.1-5 15.8-1.2 2.7-2.6 6.6-3 8.5-1.1 5.7-12.8 27-14.1 25.7-.2-.2 2.1-5.3 5.1-11.4 2.9-6.1 7.5-17.1 10-24.4 4.7-13.5 6.2-16.9 7.1-16.9.2 0 .2 1.2-.1 2.7zm-87.7 3.5c-.9 4.2-2.8 7.5-2.8 5s2.4-10.1 3.1-9.6c.4.2.3 2.3-.3 4.6zm-259 1.6c1.8 2.4 1.5 4.5-.5 3.7-1-.3-4.8-.9-8.5-1.2-5.5-.5-6.8-.9-6.8-2.3 0-2.6.6-2.8 7.8-2.3 4.4.4 7.1 1.1 8 2.1zm183.6-1.9c.3.5-.6.8-1.9.8-1.4 0-2.8-.3-3.1-.8-.3-.5.6-.9 2-.9s2.7.4 3 .9zm180 .7c.9.3 1.6 1.2 1.6 1.9 0 1-1.3 1.2-5.5.8-5.1-.5-5.5-.4-5.5 1.5s.7 2.1 5.8 2.4c4.3.2 5.7.7 5.7 1.8 0 .8-.6 1.5-1.2 1.4-.7-.1-4.6-.2-8.6-.3l-7.4-.1 1.6-5 1.6-5h5.2c2.8 0 5.8.3 6.7.6zm-272.8 1.5c.3.6.2 1.4-.2 1.8-1.2.9-11.8-1.2-10.8-2.2 1.2-1.1 10.2-.8 11 .4zm72.4 8.6c-6.9 24.2-12.3 35.3-19 38.8-4.2 2.2-4.4.5-.5-4.9 3.7-5.2 12.6-22.9 17.1-33.9 1.5-3.7 3.1-6.7 3.5-6.7.4 0-.1 3-1.1 6.7zm19-4.6c3.3.7 5 1.6 5 2.6 0 1.1-.6 1.2-2.2.6-1.3-.4-4.9-.8-8.1-.8-5.9 0-6.5-.3-4.5-2.3 1.5-1.5 3.3-1.5 9.8-.1zm-180.2 4.8c-.3 1.3-1.9 1.6-9.3 1.6-7.1 0-9 .3-9 1.4 0 2.2 5.2 3.2 13.2 2.5 6.4-.6 7.2-.4 8.2 1.4.6 1 .7 2.2.4 2.6-1 1-10.7.7-16.3-.5-5.9-1.2-8.3-.2-6 2.6.9 1.1 3.1 1.5 7.9 1.5 3.6 0 9 .3 11.9.7l5.3.6 3 6.6c1.7 3.6 3.1 7 3.2 7.5.1.6-6.5.9-16.4.7-14-.2-16.8 0-17.9 1.3-.7.9-2.1 1.6-3.2 1.6s-1.8.5-1.5 1.2c.3 1 5.6 1.3 21.7 1.4 19 0 21.5.2 22.4 1.8.8 1.2.8 1.9-.1 2.4-1.4.9-47.5.6-51-.3-3.2-.8-2.9-2.6 1.8-13 5.1-11 5.2-11.2 8.4-20.4 1.4-4.1 2.7-7.7 2.9-8 .3-.4 5-.2 10.6.3 8.4.7 10 1.2 9.8 2.5zm85.6-3.3c2.9.4 4.6 1.2 4.6 2.1 0 .9-.8 1.2-2.2.9-1.3-.3-4.4-.8-7.1-1.1-2.6-.3-4.5-1-4.2-1.6.7-1.1 2.6-1.1 8.9-.3zm167.5 4.3c-.6 1.8-1.4 3-1.7 2.7-.2-.3.1-1.9.8-3.6 1.6-4 2.3-3.3.9.9zm-76 .5c3.9.3 6.9.2 7.6-.4 1-.8 1.5-.1 2.1 2.7.4 2.1.8 4.2.8 4.7.1.5-3.7 1-8.4 1-7.2.1-8.5.4-8.8 1.8-.3 1.6.5 1.8 6.1 1.8 3.5 0 6.7.3 7.1.7.4.5 2.2.8 3.8.8 1.8 0 3.3.6 3.6 1.4.4 1.2-1.5 1.3-11.7.7-7.1-.4-12.1-.3-12.1.2 0 2.3 3.4 3.1 14.3 3.4 9.6.2 11.7.6 11.7 1.8 0 1.2-1.4 1.4-7.7 1.2-4.3-.1-8.5-.3-9.3-.4-.8-.1-3.2 0-5.2 0-2.9.2-3.8.6-3.8 2 0 1 .5 2.3 1.1 2.9.8.8.5 1.3-.9 1.7-1.6.5-2 1.4-1.9 3.9.2 1.8.5 3.7.9 4.2.4.6 7.7 1 19.2 1 10.2 0 18.6.3 18.6.7 0 .5-1.2.8-2.7.9-7.6.3-48.9-.3-49.5-.7-.4-.3.3-2.2 1.6-4.2 5-8 8.6-16.9 14.2-35.1.3-.9.8-1 1.7-.3.6.5 4.1 1.2 7.6 1.6zm176.8 1.1c9.8.5 12 1.6 14.3 7.1 1.1 2.5 2 5 2 5.5 0 .7-3.8.8-10.4.3-10.1-.6-13.2.1-10.3 2.4 1.6 1.2 19 2.2 20.9 1.1 1.2-.7 2.3 1 5.2 7.7 2 4.6 3.4 8.8 3.2 9.3-.3.5-10.9.9-23.6 1-18.9.1-23.1-.1-23.6-1.2-.3-.8 1-4.3 2.9-7.8s5.2-11 7.3-16.6c2.1-5.6 4.1-10 4.6-9.7.4.2 3.8.6 7.5.9zm-261.6 4c.7 2.2 2.1 5.7 3.1 7.8 1.1 2.1 1.8 4.3 1.6 4.9-.3.7-4.5 1-11.6.9-9.4-.2-11.2 0-11.2 1.3 0 2.4 1.5 2.7 13.3 2.8 11 0 13.7.7 13.7 3.4 0 1.2-2.6 1.4-14.1 1.3-7.7-.1-14.3.1-14.6.4-.3.4-.3 1.3 0 2.2.5 1.2 2.7 1.5 11.9 1.5 6.2 0 13-.4 15-.9 3.5-.8 3.8-.7 5.7 2.5 1.1 1.8 1.7 3.5 1.3 3.8-1.5.9-44.2 1.5-44.7.6-.3-.5.8-3.3 2.4-6.2 1.6-2.9 4.6-9.7 6.7-15.1 4.2-10.8 3.9-10.6 13.4-8.7 2.7.5 4.9.5 5.5-.1 1.7-1.7-1.3-3.2-7.6-3.8-3.6-.3-6.4-1.1-6.7-1.8-.3-1 1.6-1.2 7.6-1l8 .2 1.3 4zm156.3 7.6c-1.8 6.1-9.8 22.4-11.4 23.4-2.5 1.5-1.8-.6 3.2-10.6 2.9-5.7 6.1-12.4 7.2-14.7 2.4-5.8 3-4.8 1 1.9zM39.5 852c-.4 1.2-.9 1.9-1.2 1.7-.3-.3-.2-1.5.2-2.7.4-1.2.9-1.9 1.2-1.7.3.3.2 1.5-.2 2.7zm-4.4 8.3c-1 .9-1.1.8-.5-.6.3-1 .9-1.5 1.2-1.2.3.3 0 1.1-.7 1.8zm-3 6.6c-1.2 2.2-2.1 4.7-2.1 5.6 0 .8-.9 1.5-2.1 1.5-2.2 0-2.3.1 2.4-7.2 3.6-5.7 4.7-5.6 1.8.1zm230.3-3c3 1.1.7 1.8-5.4 1.6-9-.3-10-.5-10-1.5 0-1.2 12.5-1.2 15.4-.1zm6.7.6c0 .6-1 1.2-2.3 1.3-1.9.4-2 .2-.9-1.2 1.5-1.7 3.3-1.8 3.2-.1zm-8.8 6.2c-.7.2-1.9.2-2.5 0-.7-.3-.2-.5 1.2-.5s1.9.2 1.3.5z"/><path d="M95 709.4c-2.1 5-2.6 7.7-1.2 6 1.4-1.4 4.3-9.6 3.8-10.2-.3-.3-1.5 1.6-2.6 4.2zM105.1 706.9c-.8.5-1.1 1.6-.7 2.6.5 1.3 1.3 1.6 3.7 1.1 1.8-.3 6-.6 9.5-.6 4.8 0 6.4-.3 6.4-1.4 0-.8-.7-1.7-1.6-2-2.4-.9-15.7-.7-17.3.3zM89.6 724.5c-.3.8-.1 1.5.4 1.5.6 0 1-.7 1-1.5s-.2-1.5-.4-1.5-.6.7-1 1.5zM86.7 728.6c-.8.8.1 2.4 1.4 2.4.5 0 .9-.7.9-1.5 0-1.5-1.2-2-2.3-.9zM92.1 731.9c-2.4 1.5-.5 4.1 3.1 4.2 20.1.7 35.9.6 36.4-.3 1.4-2.3-2.2-2.9-17.2-3.2-8.8-.2-17-.6-18.4-1-1.4-.3-3.1-.2-3.9.3zM205.1 696.2c-1.9.6-2.1 1.1-1.2 2.2 1.3 1.6 13.6 2.1 14.6.7 1.4-2.4-8.8-4.6-13.4-2.9zM187 733.4c0 .8.4 1.7.8 2 1.7 1 41.7 1.7 43.2.7 3.2-2.2-1.3-2.9-22.2-3.5-18.6-.5-21.8-.4-21.8.8zM381 712.5c-1.5 1.8-.7 2.1 7 2.8 3 .3 6.1.7 6.9.9 2.1.5 2.5-1.9.4-3-1-.5-4.3-1.2-7.4-1.6-4.4-.4-5.9-.2-6.9.9zM360.6 735.8c-.3.5-.4 1.6-.1 2.4.4 1 5.2 1.4 22 1.6 19 .3 21.6.1 22.1-1.3.4-.9.4-1.8.1-2.1-1-1.1-43.4-1.7-44.1-.6zM341.5 835c-.8 1.4 1.1 3 3.7 3 .9 0 2.2.2 3 .5 1.9.7 4.5-1.2 3.3-2.4-1.7-1.7-9.1-2.5-10-1.1zM340.5 841c-1.1 1.8.5 3 4 3 3.7 0 5.6-1.7 3.4-3.1-1.9-1.2-6.6-1.1-7.4.1zM332.5 848.9c-.8 1.3 2.1 2.7 7.2 3.5 4.7.7 6.7-.9 3.8-3.1-2.1-1.5-10.1-1.8-11-.4zM327.2 867.8c.4 2.1 5.7 2.8 23.9 3.3 9.6.3 13.3.1 13.6-.8.8-2.3-3.4-3-20.5-3.6-15.8-.5-17.3-.4-17 1.1zM51.4 856.3c-.3.9-.4 2-.1 2.4.8 1.3 29 1 29.4-.3.6-1.8-1.6-2.2-15.6-3-11.4-.6-13.1-.5-13.7.9zM424.1 844c-2 .9-2.1 1.3-1.1 2.6.7.8 1.9 1.3 2.7 1 .7-.3 3.4-.1 6.1.4 5.3 1 7.6-.1 5.2-2.4-1.9-1.9-9.8-2.8-12.9-1.6zM425.7 857.6c-1 .3-1.7 1.2-1.5 2 .4 1.9 19.8 2.7 19.8.8 0-.7-.8-1.5-1.7-1.9-2.4-.9-14.3-1.5-16.6-.9zM149.2 847.8c-4.6 1.4-2.6 2.7 5.3 3.3 8 .6 10.9-.1 8.8-2.2-1.3-1.3-11-2.1-14.1-1.1zM499.2 533.5c0 1.6.2 2.2.5 1.2.2-.9.2-2.3 0-3-.3-.6-.5.1-.5 1.8zM281.7 562.7c-.4.3-.7 1.4-.7 2.4 0 2.6 3.6 3.4 6.6 1.4 2-1.3 2.3-1.9 1.3-3.1-1.2-1.4-6-1.9-7.2-.7zM470.7 582c-2.1.4-4.8 1.2-6 1.7-1.2.6-4.9 1.6-8.2 2.3-6.5 1.3-9.5 2.8-9.5 4.7 0 2.3 2.2 2.5 7.4 1 12.7-4 19-4.8 32.5-4.2l13.2.6-.3-2.3c-.2-1.4-1.1-2.4-2.3-2.5-1.1-.1-6-.7-11-1.2-10-1.2-10.4-1.2-15.8-.1zM448 605c2 1.3 3.3 1.3 2.5 0-.3-.6-1.4-1-2.3-1-1.5 0-1.5.2-.2 1zM463 606.5c0 .8.2 1.5.4 1.5s.6-.7 1-1.5c.3-.8.1-1.5-.4-1.5-.6 0-1 .7-1 1.5zM496.5 610c.3.5.8 1 1.1 1 .2 0 .4-.5.4-1 0-.6-.5-1-1.1-1-.5 0-.7.4-.4 1zM443.1 612.6c0 1.1.3 1.4.6.6.3-.7.2-1.6-.1-1.9-.3-.4-.6.2-.5 1.3zM498.6 626.8c-.2.4-.1 1.4.5 2.2.7 1.2.9 1 .9-.8 0-2.3-.5-2.8-1.4-1.4zM453 640.5c0 .8.5 1.5 1 1.5.6 0 1-.7 1-1.5s-.4-1.5-1-1.5c-.5 0-1 .7-1 1.5zM465.3 641.7c.9.9 1.9 1.4 2.3 1.1 1-1-.6-2.8-2.4-2.8-1.5 0-1.5.1.1 1.7zM432.2 643.1c.2.6.8 1 1.3 1s1.1-.4 1.3-1c.2-.6-.4-1.1-1.3-1.1s-1.5.5-1.3 1.1zM460.8 642.7c.7.3 1.6.2 1.9-.1.4-.3-.2-.6-1.3-.5-1.1 0-1.4.3-.6.6zM439.7 643.7c-.4.3-.7 1.1-.7 1.7 0 .6.5.5 1.2-.2.6-.6.9-1.4.7-1.7-.3-.3-.9-.2-1.2.2zM497.8 644.8c-1 .2-1.8.8-1.8 1.3 0 1.1 1.1 1.1 3-.1 1.8-1.1 1.1-1.8-1.2-1.2zM464.7 647c.3 1.1 1.2 2 1.9 2 1.7 0 1.8-1.2.2-2.8-1.8-1.8-2.7-1.5-2.1.8zM498 677.9c0 .6.5 1.3 1 1.6.6.3 1-.1 1-.9 0-.9-.4-1.6-1-1.6-.5 0-1 .4-1 .9zM463.3 782.1c-2 2 1.2 5 4.1 4 1.1-.5 3.9-.5 6.1-.1l4 .8-3.7.1c-2.5.1-3.8.6-3.8 1.5 0 1.8 2.2 2.6 7.4 2.6 4.7 0 7.6-2.2 7.6-5.7 0-2.7-1.2-3.1-11.7-3.9-6.6-.4-9.1-.3-10 .7zM470.4 828.5c-.4.9 0 2.3.8 3.1 2 2 5 .7 4.6-2-.4-2.6-4.5-3.5-5.4-1.1z"/></svg>