<svg version="1" xmlns="http://www.w3.org/2000/svg" width="666.667" height="1170.667" viewBox="0 0 500 878"><path d="M307.1 8.4c-.7.8-1.6 4.3-2.2 7.8-.5 3.4-1.5 8.4-2 11.1-.6 2.6-1.3 6.6-1.5 8.9-.2 2.3-1.3 5.1-2.4 6.3-1.1 1.2-2 3.5-2 5.3 0 3.4-3.7 8.2-6.2 8.2-.9 0-2.3 1.1-3.1 2.4-2.2 3.4-10.6 8.6-13.8 8.6-1.8 0-3.7-1.1-5.8-3.5-3.5-4-3.9-7.5-1.4-12 4.4-8.2 5.2-9.9 4.7-10.7-.7-1.2-3.4 1-3.4 2.8 0 .7-1.5 3.4-3.2 5.9-4.5 6.4-4.5 11.2.2 16 1.9 1.9 4.2 3.5 5.1 3.5 1.9 0 3.4 3.3 2.4 5-.4.6-.1 1.8.6 2.6 1 1.3 1.4 1.3 2.9-.1 1.7-1.5 1.9-1.4 3.4.7.9 1.2 1.6 3.6 1.6 5.2v2.9l2.4-2.2c3.5-3.3 5-1.9 4.3 4-.3 2.7-.2 4.9.2 4.9 1.3 0 3.1-5.8 3.1-10.1 0-2.1.5-4.1 1-4.4.6-.3 1-2.8 1-5.5 0-4.9 1.2-7.1 2.7-4.8 1.2 2 .6 12.7-.8 14.5-1.7 2-3.9 10.2-2.9 10.8.4.3 1.5-.4 2.5-1.5.9-1 2.3-1.6 3-1.4.8.3 2.4-1.4 4.1-4.5 3-5.7 5-6.4 6.4-2.5 1 2.4 1.2 2.5 3.2 1.2 2.8-1.9 3.4-3.8 1.3-3.8-1.3 0-1.6-.5-1-2.3 2.2-7.3 1.3-20-2-26.7-1.5-3-4.5-14.4-4.5-17.1 0-3.7 1.8-1 2.5 3.8.7 4.7 4.8 18.9 6.6 22.8.6 1.1 1.1 3.8 1.3 6 .2 2.2.4 4.2.5 4.4.1.2.8-.2 1.5-.9.8-.6 1.6-3 1.8-5.3l.3-4.2 1.8 3.4c1.7 3 1.7 4 .7 9.5-1.9 10.2-8.7 18.7-23.1 28.9-2.4 1.6-2.4 1.6.9.6 1.7-.6 3.2-1.4 3.2-1.9 0-.4 2.6-2.6 5.8-4.8 13.3-9.3 19.8-23.5 15.4-33.5-2.1-4.8-4.9-13.6-6.4-20.2-.5-2.2-1.2-10.1-1.7-17.6-.5-7.4-1.4-14.5-2-15.7-1.3-2.5-5.2-2.9-7-.8zm5.2 13.7c.4 6.3 1.4 14.5 2.3 18.4 2.6 11.2 1.4 13.5-1.8 3.5-5.8-18.8-7.1-35.2-2.5-33.8.8.3 1.4 4.2 2 11.9zm-7.4 27.8c1.2 3.8 2.1 7.8 2.1 8.9 0 4.2-1.7 2.9-4.4-3.3-2-4.7-2.6-7.2-2.1-9.5.4-1.6 1-3 1.5-3 .4 0 1.7 3.1 2.9 6.9zm-5.4 7.2c1 1.8 1.5 4.8 1.3 7.7l-.3 4.7-1.3-4.5c-.7-2.5-1.7-5.7-2.1-7.2-.8-2.3-.5-3.8.5-3.8.2 0 1.1 1.4 1.9 3.1zm-9.1 5.3c1.3 5.3-3.1 9.6-11.1 11-2.8.5-3.3.2-3.3-1.4 0-2.2 1.6-3.5 2.5-2 1 1.7 2.5 1.1 2.5-1 0-2.5.8-2.5 3.3-.3 1.9 1.8 2 1.7 1.3-1.1-.5-1.9-.2-3.6.9-5.2 2-3 3.1-3 3.9 0zm17.2 10c.7 2.9-.1 4.6-2.2 4.6-.9 0-1.4-1-1.4-2.8 0-4.7 2.5-5.9 3.6-1.8zm-19.1 3.5c0 2.4-2.8 5.1-4 3.9-.4-.4-.4-2.1 0-3.8.8-3.8 4-3.9 4-.1zm12.5 3.9c0 3.5-2.8 7.8-4.2 6.4-.7-.7-.5-2.5.8-5.5 2-4.9 3.4-5.2 3.4-.9zM180.6 13.9c-.4.5-.4 1.6-.1 2.3.3.8-.1 4.8-.9 8.9-3.5 17.5-5.8 34.1-5.9 43.4-.2 9.8-.1 10.2 3.3 15.9 1.9 3.3 5.7 8.1 8.3 10.8 6.6 6.6 17.7 12.1 17.7 8.7 0-.5-1.9-1.9-4.3-2.9-6.4-2.9-9.4-5.5-15.8-14.3-6.9-9.5-7.4-11.8-5.9-27.7 2.2-23.9 3.1-28.2 5.8-27.8 1.1.2 1.9-.9 2.5-3.2 1.5-5.7 2.9-9 3.8-9 1.5 0 1 3-1.6 11.3-1.4 4.3-2.5 8.9-2.5 10.3 0 1.4-.6 3.7-1.4 5.2-1.8 3.6-4.2 18.5-3 18.9 3.2 1.1 3.7 2.3 3.5 9.3-.1 5.4.2 7.1 1.1 6.7.7-.2 1.3-1.9 1.3-3.8.1-6.4 2.8-10.4 4.1-6.2.3 1 1 2.6 1.5 3.5 1.4 2.6 1.1 5.5-.6 6.2-1.5.5-1.5 1.8.2 7.8.6 2.4 2.3 2.3 2.3-.1 0-1.1.5-2.3 1-2.6.6-.3 1-4 1-8 0-7.3 2.2-15.5 4.1-15.5 1.4 0 1.1 5.2-.7 10.3-1.8 5.3-1.6 9.2.6 9.2.8 0 1.9-1.4 2.3-3 .5-1.7 1.4-4.1 2-5.5l1.1-2.5.4 2.7c.4 3.4 1 3.5 5.6.3 4.5-3.1 4.8-3.1 4.4-.3-.2 1.6-1.1 2.4-2.8 2.6-3.1.5-7 4-7 6.4 0 1.3-.7 1.8-2.6 1.8-4.7 0-9.5 4.4-7.8 7.2.4.7 1.3-.2 2.3-2.3 1.8-3.9 4.4-4.5 4.9-1.2.4 2.7 1 2.8 4 .7 1.3-.9 2.2-2.6 2.2-4s.5-3.4 1-4.5c1.5-2.6 4.4-1 5.9 3.2 1.4 4.2 3.1 2.8 3.1-2.7 0-4.4 1.2-5.8 2.4-2.7 1.1 2.7 2.8 0 2.4-3.8-.2-2.8-.7-3.5-2.9-3.7-1.5-.2-3.5-1.2-4.5-2.3-.9-1-2.3-1.9-2.9-1.9-.7 0-2-1.1-2.9-2.5-.9-1.4-2.5-2.5-3.5-2.5-3.4 0-5.2-3.2-4.5-8.3.6-4 .3-4.8-2-7.2-1.4-1.4-2.6-3.4-2.6-4.5 0-1-.4-2.2-1-2.5-.5-.3-1-2.8-1-5.4 0-2.6-.5-5.2-1.1-5.8-.5-.5-1.1-3.3-1.1-6.2-.2-5.7-.9-6.6-5-6.3-1.4.1-2.9-.2-3.3-.8-.8-1.2-4.2-1.3-4.9-.1zm12.4 21c0 1-1.6 5.3-3.6 9.6-1.9 4.2-3.8 9.3-4.1 11.1-.3 1.9-.8 3.2-1.2 2.9-1.2-1.3.2-8.3 2.9-14.1 1.6-3.3 3.2-7.2 3.5-8.7.8-3.1 2.5-3.6 2.5-.8zm1.5 10.8c-.4 2.1-1.5 4.7-2.6 5.9-1 1.1-1.9 3.4-1.9 5 0 1.7-.7 3.9-1.5 5-1.3 1.7-1.4 1.6-.9-2.1.3-2.2 1.7-7 3.1-10.8 2.7-7.3 5-9.1 3.8-3zm1.5 8.5c-.1 1.3-.6 4.7-1.3 7.7-1 4.3-1.5 5-2.5 3.9-1-1.3-.9-5.1.4-11.6.2-1.2 1.1-2.2 1.9-2.2.9 0 1.5.9 1.5 2.2zm10.7 12.4c-.9.9-2.8-.6-2.1-1.8.4-.6 1-.6 1.7.1.6.6.8 1.3.4 1.7zm4.8 4.4c-.5.8-1.1.8-1.7.2-.6-.6-.7-1.6-.3-2.2.5-.8 1.1-.8 1.7-.2.6.6.7 1.6.3 2.2z"/><path d="M265 35.3c-4.5 2.5-6.9 3.1-15 3.7-8.5.6-10.2.4-15.9-1.7-9.9-3.7-12.2-1.2-5.2 5.6 4 4 6.1 9 6.1 14.9 0 2.3.4 3.2 1.3 3 2.2-.8 1.9-6.5-.7-13-1.4-3.4-2.4-6.3-2.2-6.5.2-.2 1.6.1 3.1.7 1.7.6 2.5 1.5 2.2 2.4-.8 2 1.5 7.6 3.1 7.6.9 0 1.1-1.2.6-4.8l-.6-4.9 8.5-.6c5.9-.4 10-1.3 13.4-3 3.8-1.8 5.4-2.1 7.1-1.4 1.8.8 2.5.6 3.7-.9 3.5-4.6-1.9-5.3-9.5-1.1z"/><path d="M261.6 44c-2.9 3.5-4.2 7.3-3 9.1 1 1.7 3.4-1.8 3.4-5 0-1.3.7-3.3 1.7-4.3.9-1 1.4-2.1 1.1-2.3-.3-.3-1.7.8-3.2 2.5zM253.4 45.5c-.8 2 .3 4.8 1.6 4 1.3-.8 1.3-5.5 0-5.5-.6 0-1.3.7-1.6 1.5zM246 45.9c0 2 1.3 4.1 2.1 3.5 1.5-.9 1-4.4-.6-4.4-.8 0-1.5.4-1.5.9zM257 63.4c0 .9.7 1.6 1.6 1.6 1.7 0 1.4-2.2-.4-2.8-.7-.2-1.2.3-1.2 1.2zM238.6 66.9c-1.1 1.2-1.3 2.1-.7 2.5.5.4 1.5-.3 2.1-1.5 1.5-2.8.7-3.4-1.4-1zM230.6 71.9c-.8 1.2.3 4.1 1.5 4.1s1.2-3.7 0-4.5c-.5-.3-1.2-.1-1.5.4zM229.3 83.3c-1.3.5-2.5 1.9-2.9 3.1-.4 1.2-2 3.3-3.7 4.7-2.1 1.8-2.8 3.1-2.4 4.3.4.9 1.1 1.4 1.7 1.1.6-.4.8-1.1.4-1.6-1.2-1.9 1.7-3.8 4.8-3.2 2.7.5 2.9.4 2-1.3-1.1-2.3-.6-4.4 1.6-6.1 2.1-1.7 1.2-2.3-1.5-1zM273 87.4c0 .7.6 1.9 1.4 2.5 1.9 1.6 3.2-.5 1.6-2.4s-3-1.9-3-.1zM209.5 94c-.3.6.1 1.3 1 1.6 1.9.8 3 0 2-1.5-.8-1.4-2.2-1.4-3-.1zM284.1 93.9c-1.6 1-.6 3.1 1.5 3.1 1.6 0 1.8-.9.6-2.7-.4-.7-1.3-.9-2.1-.4zM206.6 95.9c-.4.7-.5 1.5-.2 1.8.9.9 1.9-.4 1.4-1.8-.4-1.1-.6-1.1-1.2 0zM270 95.9c0 .6.5 1.3 1 1.6.6.3 1-.1 1-.9 0-.9-.4-1.6-1-1.6-.5 0-1 .4-1 .9zM268 104c0 .5 1.2 1 2.8.9 2.4 0 2.5-.1.7-.9-2.7-1.2-3.5-1.2-3.5 0zM207 105.9c0 1.4 9.6 2.9 13.7 2.1 3.7-.6 3.7-.7-2.2-1.4-3.3-.4-7.2-.9-8.7-1.1-1.6-.3-2.8-.1-2.8.4z"/><path d="M229.2 105.7c-1.8.2-3 .8-2.7 1.2.2.5 2.5.6 5 .4 4.1-.5 4.5-.3 5.4 2 .5 1.4 1.4 2.8 2 3.1.6.4.6 1.8 0 4.1-1.1 3.9-.2 6.3 3.9 10.7 3.1 3.4 2.5 5.1-2.6 6.6-4.9 1.5-11.8 8.1-14.9 14.3-3.4 6.8-3.9 13.3-1.5 20.1 2.2 6.1 2 6.8-1.4 6.8-2.5 0-2.8-.8-3.9-13-1.1-11.7-4.2-20.7-8.6-25.6-1.1-1.1-2.8-5.2-3.9-8.9-4.3-15.2-14.4-20.7-28.3-15.5-6.1 2.3-8.6 4.7-11 10.5-3.8 9.3-4 11.9-3.7 60 .4 54.6.4 75 .2 89.5-.1 5.8-.2 21.1-.2 34 0 12.9 0 24.6-.1 26-.1 1.4.2 13.7.6 27.5.7 26.9.7 30.1-.1 32.7-.2.9 0 1.9.6 2.3 1.2.7 1.4 14.1.2 14.9-.4.2-6.3-4-13.1-9.5-14.5-11.5-34-24.9-39.1-26.6-1.9-.7-6-1.3-9.1-1.3-5.3 0-5.9.3-10.3 4.3-3.9 3.7-4.6 4.9-4.6 8.1 0 5 3.3 9.6 10.9 15.2 6.6 4.9 7.4 6.7 3.9 8.5-1.3.6-3.2 2-4.3 3-1.2 1-3.8 2.2-6 2.7-3.2.6-4.3 1.5-6.2 5.1-5 9.5-1.7 15.2 10.9 19.1 18.4 5.6 28.9 9.6 36.8 13.8 10.6 5.6 22.3 12.4 27.5 16l4 2.8V503c-.1 17.9-.3 48-.5 67-.3 19-.4 37.9-.3 42 .3 7.5.4 17.7.4 21.5 0 1.1 0 5.1.1 9 0 3.8 0 16-.2 27-.1 11-.3 25.8-.4 32.9l-.1 13-4.5.2c-5.2.3-67.1-1.5-71.5-2-6.4-.7-20.2-3.6-24-4.9-2.2-.8-9.8-1.8-17-2.2-8.5-.4-14.9-1.4-18.5-2.6-5.7-2-11.1-2.3-22.2-1.2-5 .4-6.8 1-6.8 2 0 1.2 1 1.3 5.3.8 12.8-1.8 22.1-.3 29.7 5 4.7 3.2 23.5 7 25.8 5.2 2-1.6-1.3-3.7-5.7-3.7-2 0-4.3-.5-5.1-1-1.8-1.2 9.6-.2 12 1 .9.5 5.1 1.6 9.5 2.5 16.2 3.3 12.5 3.8-32 3.8H0V726h6.1c8.1 0 7.7 2.4-.4 2.8l-5.7.3v9.5c0 9.4 0 9.5 2.8 10.5 1.5.6 4.2 1.2 6 1.4 6.4.5 4.6 1.7-2 1.3l-6.8-.4v6.2c0 6.6.6 7.2 7.5 8.7 1.1.3-.1.5-2.6.6l-4.7.1v4l-.1 4 11.2.1c8.7.1 10.5.3 8 1-1.8.5-3.3 1.6-3.3 2.4 0 2-3.6 1.9-4.4 0-.4-1.1-2.1-1.5-6.1-1.5-4.2 0-5.5.3-5.5 1.5 0 1 1 1.5 2.8 1.5 2 0 2.3.3 1.3.9-.8.5-2 .7-2.8.4-.9-.4-1.3.6-1.3 3.6v4.2l3.1-2.3c2.6-1.9 4.5-2.3 13.4-2.6 9.4-.4 10.7-.2 14.5 1.9 4.5 2.6 5 5.2 1 5.7s-9 2.3-9 3.2c0 2.1 4 3.1 6.7 1.7 3.6-1.7 9.7-.7 12.5 2.1 2.7 2.7 1.3 7-3 9.5-3.2 1.9-3.5 1.9-35.9 2.6-2.1.1-3.3.6-3.3 1.5s1.9 1.5 5.7 1.9c6 .7 131.5 0 154.8-.8 7.2-.2 51.9-.7 99.5-1 47.6-.3 96.6-.7 109-1 12.4-.3 46.9-.5 76.8-.5 53.1-.1 54.2-.1 54.2-2s-.8-2-12.7-2.1c-7.1-.1-15.5-.1-18.7 0-7.6.2-12-1.3-13.4-4.4-1-2.1-.9-2.8.8-4.5 2.2-2.2 2.6-2.3 12.6-2.4 5.6-.1 7.7-.5 9.3-2 1.2-1.1 2.1-2.2 2.1-2.6 0-1-4.7-3-7-3-2.6 0-2.6-1.6 0-2.3 1.3-.3 2-1.4 2-3.1 0-1.9.6-2.7 2.4-3.2 5.8-1.4 6-.9 6.8 12.5.4 6.7.9 12.6 1.3 12.9.3.4 1.4.1 2.3-.4 1.3-.8 1.8-2.8 2-7.7.3-6.2.4-6.6 2.9-6.9 3.7-.4 5.3-3.3 3.1-5.4-1.4-1.5-1.9-1.5-3.3-.4-1.4 1.2-1.8 1.1-2.6-.1-2.8-4.4 2.2-5.4 7-1.3l3.1 2.6v-33.9l-2.9.5c-3.8.5-4.9-1.4-1.3-2.4 1.5-.4 3-.7 3.5-.6.4.1.7-1.4.7-3.4 0-2.8-.3-3.5-1.5-3-.8.3-2.5.1-3.7-.4-2.2-.8-2.1-.9.7-1.1 1.7-.1 3.3-.1 3.8 0 .4 0 .7-1.7.7-3.8v-3.9l-18.2-.4c-10.1-.2-18.7 0-19.2.4-1.7 1.3.3 2.1 4.8 2 2.4-.1 5.5.2 6.8.7 1.7.7.3 1-5.9 1-6.9.1-8.1-.1-7.7-1.4.4-.8.5-1.5.3-1.6-.2-.1-7.9-.4-17.1-.8-15.6-.7-19-1.2-17.6-2.7.5-.5 30.5-.6 58.8-.2 4.1 0 9.2 0 11.3-.1l3.7-.1v-14.8l-4.2-.6c-6.2-.8-75.9-.8-99.3 0-45.6 1.6-45.5 1.6-45.6.2 0-.7-.3-5.3-.5-10.3-.3-4.9-.9-9.4-1.4-9.9-.9-.9-1.5 1.5-1.2 5.4.6 9.2-.1 22.3-1.8 31-.6 3.6-1.2 7.2-1.2 8 1 30.7 1 31-.8 30-1.6-.8-1.7-2.4-1.2-17.7.3-9.2.4-18 .3-19.6-.2-3-.4-13.5-.4-18.2.2-14.6.3-52.5.1-60.5 0-1.9.1-17.7.2-35s.2-48.2.2-68.5c-.1-31.1.2-55.4.7-58.8 0-.5.5-.6 1-.3s.9 15.3.9 33.6c.1 19.4.5 34.4 1.1 36.3.5 1.8 1 4.3 1 5.7.2 16 .2 34.5.2 72 0 1.9 0 6.4.1 10 .2 7.4.2 9-.4 21.7-.4 9.1.4 12.1 1.9 6.6.7-2.7.7-39 0-54.8-.2-4.4 0-9 .4-10.2.9-2.4 1-7 .5-17.6-.1-3.7 0-6.7.4-6.7s1.5.9 2.6 2.1c4 4.5 10.2 6.4 20.5 6.4 6.7 0 10.1-.4 11.3-1.4.9-.8 1.8-1.2 1.9-1 .2.2 1.6 2.3 3.2 4.7 4.7 7 15.3 15.5 24 19.1 17 7.1 38.5 6.2 55.3-2.3 6-3 9.9-6.2 8.9-7.2-.4-.4-2.4.2-4.5 1.5-10 6-25.6 10.2-35.2 9.5-17.9-1.3-29.3-5.7-38-14.8-7.3-7.6-9.5-11.4-12.6-21.5-1.9-6.1-2.4-9.5-2-12.4.8-4.8 1.4-5.9 2.7-5.1.6.4.6 1.1-.2 2-1.6 1.9-.5 13.3 1.6 17.4 1.1 2.1 2.3 3 3.9 3 1.9 0 3.1 1.2 5.4 5.2 3.2 5.7 8.2 10.2 15.1 13.7 4.2 2.2 7.1 2.2 7.1.1 0-.6-1.3-1.6-2.8-2.3-1.6-.7-5.2-2.8-8-4.7-5-3.4-8.5-8.9-13.1-20.3-.6-1.6-1.8-2.7-3-2.7-1.4 0-2-.9-2.4-3.8-.6-5.4.6-7.2 5.1-7.2 4.4 0 12.5-2.1 16.7-4.2 4.5-2.4 8.7-6.6 8.3-8.5-.5-2.8-2.6-2.6-4.2.6-1 1.9-3.6 3.9-7.2 5.7-4.7 2.3-7 2.8-13.8 2.8-9.4.1-14.5-1.9-22.1-8.6-10.9-9.6-15.5-22.5-12.1-33.9 2.1-7.3 7.5-15.9 11.6-18.7 4.3-2.9 6.4-2.9 2.3 0-2.7 1.9-5.3 5.6-5.3 7.3 0 1.6 4.2.1 5.5-1.9 1.9-2.8 8.8-7.6 11-7.6 1.7 0 2-1.6.4-2.6-.8-.4-.7-.9.2-1.5 2.4-1.6 10.1.3 14.6 3.5 3.8 2.6 4.3 3.4 3.8 5.6-.4 1.4-.9 5.5-1.2 9.1-1.2 14.9 7.6 29.9 20.3 34.8 3.1 1.1 7.3 2.1 9.4 2.1 3 0 4 .4 4.5 2.1 2.1 6.4-4.2 15.6-12.5 18.4-5.6 1.9-9.1 1.3-13.8-2.2-2.4-1.8-3.7-2.2-4.5-1.4-1.6 1.6 1.5 4.5 6.4 6.1 3.3 1.1 5.1 1.1 10.2.1 11.4-2.4 16.1-6.5 17.8-15.7 1.6-8.3 1.6-8.4 3.5-8.4 1.7 0 12.5-5 15.6-7.2 1.3-.9 2.1-.8 4 .5 9.6 7 10.1 7.2 16.2 7.3 5.6.1 6.1.3 6.4 2.5.2 1.3 1.4 3.5 2.6 5 2.4 2.9 3.8 12.7 1.5 11.4-1.7-1.1-2.9 1.4-2.9 6.2 0 4.5 1.3 5.5 3.9 3.1 1.1-1.1 1.2-.7.6 2.2-1.1 5.3-5.2 12.8-10.7 19.7-4.3 5.5-4.7 6.4-3.2 7 2.4.9 10.9-8.4 15.2-16.8 3.1-6.2 3.2-6.8 3.2-18.8 0-12.3 0-12.4-3-15.8-3.8-4.3-3.8-6 0-8.1 2.7-1.6 3-2.2 3-7.1 0-5.1-.1-5.3-2.2-4.7-1.3.4-3.6.9-5.3 1.2-6.7 1.2-7.6 1.5-7 2.4.3.6 1.8 1 3.3 1 2.4.1 2.5.2.9 1.1-2.7 1.6-11.2.1-15.3-2.8-2.9-1.9-3.9-2.1-4.5-1.1-1.8 2.8-2-2.1-.2-5.4 1.3-2.3 1.8-5.4 1.8-10.8-.1-6.6-.4-8.2-3.2-13-3.4-5.9-7.7-9-12.4-9-2.9 0-3.8-1.3-1.9-2.5 1.7-1 0-2.6-2.1-2-1.1.4-1.9.2-1.9-.4 0-.6 1.8-1.1 4.1-1.1 2.2 0 3.8.4 3.4.9-.3.5 0 1.3.6 1.7.6.4 1.6-.1 2.1-1 .5-.8 3.3-2.7 6.2-4.1 6.7-3.2 13.8-8.3 13.1-9.5-.3-.4-3.1.9-6.3 2.9-6.1 4.1-11.1 6.1-14.8 6.1-3.9 0-2.7-1.3 3.9-4.4 7.8-3.8 20.3-15.9 24.2-23.5 5.8-11.6 7.5-21.7 5.1-31.2-2.9-11.1-8.5-24.5-12.3-28.9-3.4-3.9-10.4-7.9-16.4-9.3-2.4-.6-10.1-8-12.5-12.3-.9-1.4-1.5-1.6-2.4-.8-.9.9-.8 1.8.3 4.1 2 3.7 9.7 10.9 12.8 11.8 9.8 2.8 15.3 7.8 19.8 17.8 11.2 25 9.1 42.9-7 60.1-6.7 7.2-15.8 12.4-23.5 13.6l-4.4.7 4.9-5.2c6-6.3 11.5-17 13-25.1 3.1-16.2 2.4-33.9-1.6-40.3-2.6-4.1-3.6-1-1.8 5.8 4.2 16.1 0 40.8-9.2 54.4-3.3 4.8-13.6 11.7-17.5 11.7-4.5 0-3-1.9 3.9-4.8 9.5-4.1 15-12.6 19-29.1 3.9-16.6-.7-38.3-10.6-50.1-2.6-3-3-3.3-3.6-1.7-.5 1.1.2 3.1 1.9 5.6 4.8 6.8 9.4 19.9 10.1 28.6 1 11.8-2.6 26.1-9.3 36.8-3.5 5.7-13.6 10.2-20.7 9.2-7.8-1.1-8.4-1.1-8.6 0 0 .5 2 1.7 4.5 2.5 4.1 1.4 4.6 1.8 4.6 4.6 0 6.9-9.3 9.8-16.7 5.3-5.6-3.5-6.3-8.9-1.7-13 2.5-2.2 14.4-8.1 16.9-8.4 1.1-.1 2.5-.3 3.2-.4 2.8-.3 8.7-6.9 12.1-13.5 3.5-6.8 3.7-7.6 3.7-17.1 0-14.6-4.1-25.7-14.1-38-7.2-9-10.6-16.1-9.8-20.4.6-2.7 1.6-3.7 6.3-5.9 7.3-3.5 11.6-9.1 12.5-16.4.8-6.3-.1-9.3-4-12.9-5.7-5.3-14.2-3.9-17 2.7-2.3 5.4.9 9.4 7.5 9.4 4.1 0 4.1-2.6.1-3.5-2.1-.5-3-1.3-3-2.6 0-5.9 4.8-7.7 9.7-3.5 2.6 2.2 2.8 3 2.6 8.6-.2 7.5-3 12.3-8.5 14.5-3.4 1.3-4.2 1.3-9.4-.5-3.1-1.1-6.4-2.6-7.2-3.2-2.5-2.1-5.2-9-5.2-13.6 0-3.8.2-4.3 1.9-3.7 1.4.4 2.4-.3 4-3.1 1.2-2 2.1-4.6 1.9-5.8-.2-1.7.6-2.4 4.2-3.6 5.7-1.9 6.5-3.4 2-3.8-7.9-.6-17.9 9.4-18.8 18.8-.6 6.1.1 8.6 3.3 13.4l2.5 3.8-3 2.8c-1.6 1.5-3 3.3-3 3.8 0 .6-.2 1.7-.6 2.5-.3.8.6 2.8 2.1 4.5l2.5 3-5 4.5c-2.8 2.5-7.1 5.7-9.6 7.1l-4.5 2.5-5.3-4.3c-6.5-5.3-12.1-7.9-22.1-10.1-4.2-1-7.9-2.3-8.1-3-.3-.7-.5-2.8-.5-4.6 0-24-.1-31.4-.5-36.9-.3-3.6-.5-17.5-.4-31 0-13.5.1-41.2.1-61.5 0-20.4.1-37.9.2-39v-21c-.1-16.1-.4-20.4-2.3-28-2.9-11.8-5.2-16.2-9.6-18.2-3.5-1.7-4.4-3.4-4.2-8.8.1-5.2-2.1-17.4-3.6-20.4-3.4-6.5-12.8-9.1-18.1-4.9-3.2 2.5-7.8 12.3-9.5 20.2-.7 3.2-1.6 5.4-2.1 5-.6-.3-.8-1.3-.4-2.2.3-.9.3-5.2-.1-9.5-.6-6.9-1.1-8.4-3.6-11.3-2-2.3-3.9-3.4-5.7-3.4-6.2 0-8.5 4.6-9.6 19.5-.9 12.1-.9 12.1-5.6 8.1-2.2-1.8-6.1-4.1-8.7-5-8.9-3.2-9.2-3.9-4.1-10.9 1.6-2.2 2.9-5.2 2.9-6.6 0-4.6-2-10.1-3.7-10.1-1.1 0-1.4.6-.9 2.2.4 1.3.9 4.3 1.2 6.8.5 4.1.2 5-3 9.1-1.9 2.6-3.8 5.9-4.2 7.4l-.7 2.7-1.1-3.3c-.7-1.9-2.7-4.9-4.5-6.7-3.2-3.1-3.3-3.6-2.8-8.7.4-3.8.2-5.7-.7-6.2-.7-.5-1.5-1.6-1.9-2.6-.6-1.7-2.8-1.9-10.5-1zm-36.3 9.5c4.8 2.8 8.1 7.5 8.8 12.7.5 3.7.3 4.1-1.6 4.1-1.7 0-2.1-.6-2.1-3 0-12.2-14.7-15-23.3-4.5-5.1 6.3-5.1 5.9-5 40.5.1 17.9.4 34.2.8 36.3.4 2 .8 11.4.9 20.9.1 12.3.4 17.2 1.3 17.5.8.3 1.3-1.2 1.5-4.4.3-4.5.4-4.6 1.4-2.3 1.3 2.8 4.1 13.9 5.4 21.5.9 5.3 1.5 22.7 2.5 70 .3 15.9.9 37.1 1.3 47 .7 17.8.7 18-1.6 19.9-2.2 2-4.2 7.2-4.2 11.3 0 1.2 1.6 3.8 3.5 5.8 3.4 3.3 3.6 3.9 3.3 9.2-.2 3.1-.8 5.8-1.4 6-.5.2-2.7-1.1-4.8-2.9-3.7-3.3-3.8-3.5-4.2-11.3-.2-4.4-.4-8.7-.4-9.5 0-8.6-.2-13.9-.9-21.5-.4-5-.6-18.5-.3-30 .3-11.6.4-23.9.4-27.5-.7-39-.7-52.2-.2-62 .7-11-.1-17-2.1-17-.5 0-1 2.8-1 6.2-.1 3.5-.3 11-.5 16.8-.6 19.1.1 112.6 1 129 .6 10.9.7 12.5.6 14.2-.1.7.1 4.2.3 7.8.2 3.6 0 7.1-.6 7.7-.5.7-.6 2.7-.3 4.5 1 5.3 1.3 16.2.4 18-.4.9-.3 2.9.2 4.4 1.2 3.2 1.4 19.3.5 56.9-.4 14.8-.6 38-.5 51.5.4 90.5.3 121.5-.4 143.5-.2 7.1.1 14.5.6 16.3.6 2.1.6 4.3 0 6-.6 1.7-.6 7 0 14.3.7 8.5.6 12.8-.2 16-1.7 6.1-2.1 13.8-.9 16.1.6 1 .7 2.7.4 3.8-.5 1.7-.7 1.7-3.1-.7-2.9-2.9-5.9-2.7-5.8.5.1 2.3-1 2.9-2.1 1.2-1-1.7-10.6-1.2-12.7.7-2.1 1.9-2.3 1.8-3.2-1.9l-.6-2.8h7.4c7.3 0 10.4-1.3 7.5-3.1-2.1-1.3-14.3-1.1-15.7.3-.8.8-2.5.7-6.6-.6-7.4-2.4-24.2-2.5-31.5-.3-3 1-5.5 1.6-5.6 1.4-3.2-6.2-2.4-9.2 1.9-6.3 3.5 2.3 19.2 2.3 22.4 0 2.1-1.5 2.5-1.5 4.2.1 1.5 1.4 4.4 1.7 18.2 1.7 12.1.1 16.8.4 18.4 1.5 3.3 2.1 4.1 0 4.3-11.1.1-5.5.4-10.3.7-10.7.2-.4 0-2.9-.6-5.5-1.2-5.2-1.8-37.3-.7-39 .3-.6.2-2.6-.3-4.3-.7-2.4-.5-4.1.7-6.6 1.2-2.6 1.3-3.9.5-6.4-.8-2.3-.8-3.8 0-5.6.8-1.8.8-3.2-.1-5.4-1-2.2-1-3.4-.1-5.1.8-1.6.8-3 0-5.5s-.8-4 0-5.5c.6-1.1.8-2.5.5-3-1-1.6-1.3-15.4-.4-16.5.4-.6.4-3.9-.1-7.4-.6-4.2-.5-7.1.2-8.7.8-1.7.8-3.1.1-4.7-.7-1.4-1-30.4-1-82.9-.1-44.3-.4-81.1-.7-81.6-.3-.6-.5-8-.4-16.4.2-17.4.1-43.4-.6-105.8-.3-23.9-.6-45.3-.6-47.5 0-2.2.1-36.4.3-76 .3-75.7.2-73.9 4.6-83.5 1.7-3.5 7.2-7.1 11.6-7.4 1.9-.2 3.8-.6 4.2-1 1-1 2.2-.7 6.2 1.6zm128.5 1.9c1.4 1.7 2.6 3.8 2.7 4.7.4 6.3.8 10.5 1.8 15.7 1.1 6.3.6 7.5-3.2 7.5-1.5 0-1.8-.8-1.7-4.8.3-11-2-18.2-5.8-18.2-2.4 0-3.3.9-6.5 5.8-3.6 5.5-5.4 17-7 45.1-.9 16.8-1.5 21.5-2.6 21.9-1.1.4-1.2 0-.6-1.4.5-1.1 1-7.8 1.1-14.9.7-34.7 3.5-52.2 10-62.3 2.3-3.5 8.5-3.1 11.8.9zm-31.4.4c2.2 2.3 2.4 3.6 2.7 12.3.1 7.6 0 8.8-.7 5.7-.5-2.2-.9-5.5-.9-7.4-.1-5.9-5.3-9.5-7-4.9-.8 2.4-.4 47.6.6 55.7.8 6.8-.5 16.1-2.3 16.8-2.7 1-3.1-1-2.3-10.2.4-5.7.3-9.4-.3-10.2-.7-.9-.4-2.7.7-5.8 1.4-3.5 1.6-6 1.1-11.3-1.4-12.9-1.5-16.8-.7-27.4 1.1-14.8 3.9-18.9 9.1-13.3zm-102.5 4.7c1.5.7 3.3 2.4 4.1 3.9 2.4 4.8 1.8 7.2-3.1 11.2-7.6 6.4-7.9 7.6-8 28.3 0 15.8-.2 18.3-1.8 19.8-.9 1-2.2 2.7-2.8 3.8-.6 1.1-1.3 1.7-1.6 1.4-.3-.2-.5-12.3-.4-26.7 0-23.9.2-26.7 2.1-32.5 1.3-3.9 3.2-7.2 4.7-8.4 3-2.3 3.4-2.4 6.8-.8zm100.7 19.3c-.5 2.3-.8 1.1-1.3-5-.4-4.4-.4-8.5-.1-9 1-1.5 2.2 10.5 1.4 14zm28.6-2.1c.2 9.1-.1 12.2-1.1 13.5-2.2 2.5-4 8.9-4.6 16.6-.6 7-1.8 8.7-4.7 6.7-1.6-1 .1-32 2-37.6 2.6-7.6 4.9-11.7 6.6-11.4 1.2.3 1.5 2.4 1.8 12.2zm-111.5-1.2c6 4.2 9 15.7 10.4 39.9.9 13.7.7 15.9-1 15.9-.8 0-1.2-2.6-1.2-8.2-.1-16.2-1.7-32.1-3.7-36.8-2.2-5.4-3.8-6.5-10.4-7.4-4.4-.7-5.2-.5-7.2 1.7-3.2 3.3-4.1 14.7-3.5 40.7.3 11.3.6 39.6.7 63 .1 23.4.5 49 .9 57 1.5 30 2.4 80.5 1.8 95.5-.4 9.7.8 166.1 1.5 204 .4 17 .6 36.2.5 42.5-.1 6.3-.1 15.8 0 21 .4 24.9.3 38-.5 69-1.1 45.3-.9 42.6-3.7 42.2-2.1-.3-5.7-.6-12.1-1.1-1.1-.1-1.5-.7-1.2-1.5.4-1.1 1.7-1.3 5.4-.9 2.7.3 5.6.3 6.6-.1 1.6-.6 1.5-.8-.2-2.7-1.4-1.6-2.8-1.9-7.3-1.7l-5.6.3v-11.4l4.3.6c3.5.5 4.2.3 4.2-1.1 0-1.2-.9-1.6-3.4-1.6-1.9 0-3.6-.6-3.9-1.3-.8-2.4.5-3.7 3.9-3.7 3.2 0 3.3-.1 3-3.8-.3-3.3-.7-3.7-3.5-4-2.3-.2-3.5-1-4.1-2.8-1.1-2.8-.2-11.4 1.2-11.4.5 0 .6.9.3 2-.7 2.3 1.5 3.6 4.2 2.5 1.7-.6 1.7-.7 0-2-1.8-1.3-1.7-1.4.5-1.7 4.2-.6 2.7-3.3-2-3.6-3.4-.3-4.3-.7-4-2 .2-1.1 1.5-1.8 3.8-2 1.9-.2 4.2-1 5.1-1.8 2.1-1.9 2.9-.9 2.2 3.2-.4 2.7-.2 3.4 1 3.4.9 0 1.9-.5 2.2-1 .6-1 .6-123.5 0-196.5-.2-17.6-.4-56.3-.5-86-.1-29.7-.5-62.1-1-72-.5-9.9-1.2-52.9-1.5-95.5-.3-42.6-1-82.9-1.5-89.5-2.2-27.7-2.3-34.8-.6-39.4 2.2-6.1 6.2-11.1 8.9-11.1 1.2 0 2.8-.4 3.6-.9 1.7-1.1 3.5-.5 7.4 2.1zm58.3-.6c6.5 3.4 8.9 5.7 11.5 11.3 2.9 6.1 2.9 16.2.1 21.8-8 15.6-27.2 19-40.6 7.1-12.2-10.7-9.2-32.3 5.6-39.9 4.7-2.4 6.5-2.4 7.8.1.9 1.6 1.5 1.8 3 1 1.1-.6 2-1.7 2-2.5 0-2.3 5.1-1.8 10.6 1.1zm24.6 12c.2 1.9 0 3.7-.4 4-.4.3-.8-1.3-.8-3.5 0-5.1.6-5.3 1.2-.5zm-91.9 1.1c4 24.8 3.9 27.7-1.1 27.1l-2.7-.3V164c0-7.4.3-14.3.7-15.3 1.2-2.8 2.5-2 3.1 2zm9.2-.1c2.1 4.4 4 28.6 2.5 31.4-.5 1-1 3.2-1 4.7 0 1.6-.6 3.7-1.3 4.7-1.2 1.6-1.4 1.6-2.6.2-.9-1-1.1-2.6-.6-4.3 1-4.1 1.1-24.7.2-33.1-.9-8 .1-9.3 2.8-3.6zm127.5-.1c3 1.6 5.4 6.7 8.6 18.6 1.5 5.8 2 22.7 1.2 42.9-.1 1.9 0 6.2.3 9.5.2 3.3.2 8.9.1 12.5-.1 3.6-.3 21.6-.4 40-.2 34.9-.4 51.5-.7 54-.1 1.2-.3 1.2-1.2-.2-.9-1.6-1.4-57-.6-69.8.2-3 0-13.2-.6-22.5-.5-9.4-1.1-23.3-1.2-31-.5-20.1-2.3-39.1-3.9-42.3-4.7-9.1-13.6-8.9-16.4.5-1.4 4.9-3.4 21.4-3 25 .2 1.5-.1 2.8-.7 2.8-1.4 0-1.6-5.7-.5-16.9 1.3-13.3 2.6-17 7.2-21.1 4.2-3.8 7.3-4.4 11.8-2zm-41.3 13.7c-.2 1.3-.4.3-.4-2.2s.2-3.5.4-2.3c.2 1.3.2 3.3 0 4.5zm33.6 5.5c-.1 4.3-.2 8.2-.3 8.7 0 .5-.6.4-1.3-.3-.9-.7-1.3-3-1.1-7.3.2-3.5.3-6.9.4-7.6 0-.6.6-1.2 1.3-1.2.9 0 1.1 2.1 1 7.7zm6.1-4c1.2 3 2 17.3.9 17.3-2.4 0-3.3-2.8-3.3-10.7 0-7.8 1-10.4 2.4-6.6zM295 178c1.1.7.7 1-1.7 1-1.8 0-3.3-.5-3.3-1 0-1.3 3-1.3 5 0zm-68.3 1.6c-.3.3-1.2.4-1.9.1-.8-.3-.5-.6.6-.6 1.1-.1 1.7.2 1.3.5zm11.5 5.6c5.5 2.9 7.1 3.3 14.2 3.3 6.8 0 9-.5 13.7-2.8 3.7-1.8 6.3-2.5 7.5-2 1.5.6 1.3.9-1.4 1.3-1.8.3-3.3.9-3.3 1.5 0 .5 1.5 1.3 3.3 1.6 3 .6 2.8.7-1.7.9-7.5.4-7.5.4-7.5 1.5 0 .6 2.8 1.3 6.2 1.6l6.3.6-6.5.2c-3.6.2-9.2.2-12.4.1-5-.2-6.2.1-7.5 1.9-1.5 1.9-2.1 2-5.6 1.2-2.4-.5-3.1-.9-1.7-1 1.2-.1 2.2-.5 2.2-.9 0-.8-15.6-2.5-21.3-2.4-.9.1-1.5-.3-1.2-.9.4-.5 3.1-.9 6.1-.9 3.4 0 5.3-.4 4.9-1-.3-.6-2.8-1-5.6-1-2.7 0-4.9-.5-4.9-1 0-.6 2.3-1 5-1 2.8 0 5-.5 5-1 0-1-1.3-1.3-6.7-1.3-1.8.1-3-.3-2.7-.8 1.3-2.1 9.4-.9 15.6 2.3zm55.8.8c-2 1.3-5 1.3-5 0 0-.6 1.5-1 3.3-1 2.4 0 2.8.3 1.7 1zm-112.5 10.8c-.3.3-1.3-.1-2.1-1-1.3-1.3-1.4-1.9-.3-3.9l1.3-2.4.8 3.4c.5 1.8.7 3.6.3 3.9zm149.5-2.3c0 4.9-12.5 9.8-34 13.1-22.5 3.4-46.4 3.2-84-.7-12.9-1.4-20-4.6-20-9 0-2.6.9-2.8 7-1.7 19.7 3.6 53.3 4.5 91 2.3 4.7-.3 13.1-.7 18.6-.9 8.7-.3 10.8-.7 14.5-2.9 5.6-3.2 6.9-3.3 6.9-.2zm-97 1.1c0 .2-.9.4-2.1.4-1.1 0-1.8-.4-1.4-1 .5-.8 3.5-.3 3.5.6zm-58.7 3.7c-.3.5-.9.3-1.4-.4-.4-.7-.5-1.7-.2-2.2.3-.5.9-.3 1.4.4.4.7.5 1.7.2 2.2zm23.3 9.5c-1 .2-2.2 0-2.8-.6-.6-.6 0-.7 1.9-.4 2.1.5 2.3.7.9 1zm119-.7c.3.6 1.7.9 3 .6 3.3-.6 1.9 1.1-1.7 2-1.6.5-3 1.2-3.2 1.8-.4 2 4 1.5 9.7-1 3.2-1.4 6.1-2.4 6.4-2.1.8.8-1.9 3.6-5.1 5.3-3.7 1.8-2.3 3.9 1.6 2.4 4-1.6 4.1.3.1 2.3-3 1.4-3.4 1.9-2.4 3.1 1 1.2.7 1.7-1.4 2.6-3.9 1.8-3.2 3.2 1.5 2.6 4.8-.6 4.8.7.1 3.9-2.4 1.7-2.8 2.4-1.9 3.4.8.8.8 1.4.2 1.6-.5.3-1.7.9-2.5 1.4-1.3.8-1.3 1.1-.1 1.9 1.1.7.8 1.2-1.3 2.6-3.3 2.2-3.4 3.9-.1 3.3 1.7-.4 2.5-.1 2.5.8 0 1.5-2.4 3-8.5 5.5-5.3 2.2-6 4.4-1.1 3.6 6.1-1 4 1.1-2.6 2.6-5.4 1.2-6.3 1.7-6.1 3.4.2 1.5-.5 2.3-2.2 2.7-1.6.4-2.5 1.3-2.5 2.6 0 1.6-.9 2.1-5 2.6-5.5.7-6.1 1.4-2.8 3.6l2.2 1.5-2.4 1.3c-4.4 2.3-11.1 8.3-12.6 11.1-.8 1.6-1.4 4.1-1.4 5.8 0 3.4-1.5 4.9-2.4 2.5-.5-1.3-1.4-1.5-4.1-1l-3.5.7.4-6.5c.4-6.4.3-6.6-2.9-9.1-2.4-1.8-4.6-2.5-7.8-2.5-5.3 0-9.9 3.1-9.6 6.4.2 1.1-.1 3.1-.5 4.3-.5 1.6-.1 3.1 1.5 5.3 2.7 3.5 1.8 5.3-.9 2l-1.9-2.4-1.2 2.2c-1.7 3.1-3.4 1.6-2.8-2.4.4-2.2.1-3.7-.9-4.5-.8-.6-1.4-2-1.4-2.9 0-3.2-4.6-5.7-14.7-7.9-12.7-2.9-13.3-3.1-13.3-4.1 0-1.3 3.3-2.1 9-2.2 5.5-.2 6.1-1.1 3.4-5.3-1.5-2.3-1.5-2.5 0-2.5.9 0 1.6-.4 1.6-.9 0-1.7-2-2.3-3.5-1.1-2.6 2.2-17.5 1.2-24.3-1.7-4.9-2-3.7-2.3 3.8-.7 7.5 1.6 14 1.8 14 .5 0-.5-2.4-1.2-5.2-1.5-8.3-1-16.8-2.9-16.8-3.8 0-.4.1-.8.3-.8.1 0 3.8.7 8.2 1.5 4.8.8 8.4 1 8.9.5 1.1-1.1-.3-1.6-6.7-2.4-2.6-.3-6-1.3-7.5-2.1-2.6-1.6-2.6-1.6 2.8-1 3 .3 7.4.8 9.8 1.1 2.3.4 4.2.2 4.2-.2 0-1.2-4.9-3.4-7.4-3.4-1.2-.1-4.3-.8-7.1-1.6l-5-1.4 4.5.5c11.8 1.3 17.4 1.6 16 .7-.8-.5-3.5-1.2-6-1.6-8.5-1.2-15-2.9-15-3.9 0-.6 2-.7 5-.4 5.5.7 6.9-.8 1.8-1.8-5.9-1.2-6.8-1.6-6.8-3.2 0-1.2.7-1.4 2.8-.9 1.5.3 5.8.9 9.6 1.3 5.1.4 6.7.3 6.2-.5-.4-.7-2-1.2-3.6-1.2-4.1 0-13.3-2-14.8-3.3-.7-.6-1.2-2-1-3.1.3-2.2.5-2.3 9.1-1.1 3.8.6 4.7.4 4.7-.8 0-1.5-.9-1.8-9.3-3.2-2.3-.4-3.7-1.1-3.4-1.8.5-1.3 1.3-1.3 7-.2 4.7.9 5-1 .5-3.1l-3.3-1.5 5.3.6c6.4.7 7.7 0 5.2-2.5-3.7-3.7-2.6-4.3 6.8-3.6 13.7 1.1 38.9 2.6 48.2 3 9.3.4 31.2-1.6 41.2-3.8 7.9-1.8 11.5-1.9 12.4-.5zm-112.9 1.5c-.3.3-1.2.4-1.9.1-.8-.3-.5-.6.6-.6 1.1-.1 1.7.2 1.3.5zm-23 8c-.3.3-1.2.4-1.9.1-.8-.3-.5-.6.6-.6 1.1-.1 1.7.2 1.3.5zm154.5 22.1c.1 6.5 0 14.3-.4 17.3s-.4 20.1-.1 38c.5 30.4.7 59.6.4 70-.1 2.5-.1 5.2-.1 6 .1.8-.1 4.4-.2 8-.3 5.3-.7 6.6-2.2 6.8-4 .8-4.2-.7-5.1-38.3-.3-13.8-.8-34.2-1.2-45.5-.3-11.3-.6-26.1-.7-33 0-6.9-.4-13-.8-13.6-.4-.7.3-2.7 1.5-4.5 2.6-3.8 6.7-14.6 6.5-16.9-.3-3.2.2-6 1.1-6 .5 0 1.1 5.3 1.3 11.7zm-12.7 58.8c.4 17 .9 31.3 1.1 31.6.9 1.6.7 54.3-.2 54.6-.7.2-1.1-2.2-1.1-6.4 0-3.8-.3-16-.7-27.3-2.2-63.1-2.8-88.9-1.9-90.2 1.4-2.4 2.1 6.5 2.8 37.7zm-125.7-30.3c.7 1 1.9 1.8 2.6 1.8.7 0 3.2 1.4 5.5 3 2.3 1.7 5.8 3.8 7.7 4.7 2.5 1.2 3.3 2.1 2.7 3.2-.3.9-.8 3.9-1.1 6.7-.4 5-.2 5.3 3.7 8.4 4.7 3.8 5.6 5.7 3.7 7.9-.7.9-2 3.3-2.7 5.4-1.3 3.7-1.2 4 .9 5.7 1.2 1 2.2 2.5 2.2 3.4 0 2.2 2.6 2 4.2-.2.7-1 2.6-2.2 4.1-2.6 1.5-.3 3-1.3 3.4-2.2.7-2-2.5-8.2-6.1-11.7l-2.9-2.9 2.7-2.2c3.7-2.9 3.3-7-.6-7.4-2.1-.2-3 .3-4.1 2.4l-1.4 2.7-1.6-2.4c-2.1-2.9-2.2-8.2-.2-9.9 1.1-.9 3-1 7.1-.4 4.5.7 6.1 1.5 7.8 3.7 1.9 2.6 2.1 4.2 2.2 19.7.1 11.9.5 17.4 1.3 18.4 1 1.2 1.1 6 .7 19.8-.3 10.1-.9 21.3-1.2 25l-.6 6.7-6.6 3.4c-8.3 4.3-21.9 8.4-29.2 8.9l-5.4.3-.7-4c-.4-2.2-.9-17.7-1.3-34.5-.3-16.8-.9-41.8-1.2-55.6-.4-13.8-.4-25.9-.1-26.8.8-1.9 2.4-1.3 4.5 1.6zm10.5-2.5c-.7.2-1.9.2-2.5 0-.7-.3-.2-.5 1.2-.5s1.9.2 1.3.5zm12.2.2c1 1.8-1.7 2.3-3.3.7-1.5-1.5-1.5-1.6.5-1.6 1.2 0 2.4.4 2.8.9zm95.9 7.8c.3 4.3.8 17.2 1.1 28.8.3 11.5 1 34.5 1.6 50.9.8 24 .7 30.2-.3 31.2s-4.1 1.1-13.5.4c-6.6-.4-13-1.3-14-1.8-1.8-1-1.8-2.6-1.6-31.9.1-16.9.2-31.8.3-33.1 0-2.5 2.5-3 3.4-.6.5 1.3 1.1 1.2 3.7-1 1.7-1.4 3.4-2.6 3.9-2.6s1.1-.9 1.5-1.9c.6-2-4.8-11.1-6.6-11.1-.5 0-.9-.6-.9-1.4 0-2.5-7.9-3.8-8.1-1.4 0 .7-.3 3.5-.6 6.3-.3 2.7-.5 5.9-.4 7 .5 8.7.8 63.6.4 65.8-.4 1.8-1.1 2.7-2.1 2.5-1.4-.3-1.6-2.4-1.5-14.8.4-49.2.3-62.2-.7-64-.7-1.4-.8-2.6 0-3.9.5-1.1 1-3.7 1-5.8 0-5.9 2.3-8.5 7.3-8.1 4.1.3 4.2.4 4.5 4.3.3 3.9.3 3.9-1.6 2.1-4-3.5-11.2-.1-8.6 4.1 1.4 2.3 4.2 2.7 9.4 1.3 3.3-.9 4.4-1.8 5.6-4.6 1.8-4.3.9-8.2-2.2-9.6-2.3-1.1-3.3-2.8-1.6-2.8.4 0 3.6-1.9 7.1-4.3 10.7-7.1 11.6-7.7 12.2-7.7.3 0 .9 3.5 1.3 7.7zm-55.7 7.8c.3.9.2 1.9-.1 2.3-.8.8-3.8-1-4.4-2.6-.6-1.8 3.8-1.4 4.5.3zm-4.4 7.9l1.7 2.1 1.9-2.3c2.5-2.9 4.1-2.8 4.1.4 0 3.8-3.7 9.5-5.7 8.7-.8-.3-1.9 0-2.4.8-.7 1.1-.9 1.1-.9-.3 0-.9 1.2-2.6 2.8-3.7l2.7-2-3-.1c-2.3 0-3.5-.7-4.8-2.9-1-1.7-1.4-3.7-1-4.7.6-1.7.7-1.7 1.7 0 .6 1 1.9 2.8 2.9 4zm-6.3 12.7c1.5 2.7.7 4.7-2.1 5.1-1.9.3-2.3 1-2.5 5.2-.3 4.6-.9 6.5-1.8 5.5-.2-.2-.7-3.8-1.1-8l-.7-7.7 2.8-1c4.1-1.5 4.2-1.4 5.4.9zm22.4-.5c1 2.5.7 10.4-.4 10.4-.5 0-1.7-1.7-2.5-3.7-1.2-2.8-1.3-4.4-.6-6 1.2-2.7 2.6-3 3.5-.7zm6.9 4.9c-.7 2.1-1.3 1.9-1.3-.6 0-1.1.4-1.8 1-1.4.5.3.7 1.2.3 2zm-17.6 2.7c1.4 3.1.9 3.8-2.7 3.8-4.5 0-5.4-2-2.3-5.2 2.8-3 3.3-2.9 5 1.4zm-32.1.6c1.1 2.8 1.1 3.4-.1 3.8-1.8.7-6.8-.9-7.2-2.4-.5-1.4 3.5-5.4 4.9-5 .5.2 1.6 1.8 2.4 3.6zm66.7-.8c1.8 3.5 1.4 3.9-3 3.3-3.7-.6-4.1-1.8-1.6-4.5 2.2-2.5 2.9-2.3 4.6 1.2zm-16.8 23c-.5 28.9-.5 28.6-1.4 27.1-.5-.8-1.1-7.1-1.2-14-.3-18-.3-19.9.6-27 1.4-11 2.3-4.4 2 13.9zm-9.6-11.4c2.1 4.9 2.5 7.6 3.2 26.2 1 23.9 1.9 32.6 4.8 43.7 1.3 5.3 1.7 8.3 1 9.1-.6.8-.5 1.4.6 1.8 2.2.8 1.8 2.5-.7 3.6-2.2.8-2.2.9-.2.9 3.2.1 3.7 1.4 1.2 3.3l-2.3 1.8h3c2.3 0 3.4.7 4.8 3.1 1.7 3 1.7 3.2 0 4.5-1.7 1.2-1.6 1.3 1 1.4 1.5 0 2.7.4 2.7 1 0 .5-.5 1-1.1 1-.5 0-.7.4-.4 1 .3.5 1.5 1 2.6 1 2.2 0 2.4 1.1.7 2.8-.9.9-.6 1.2 1.6 1.2 2.3 0 2.6.3 2.1 2-.5 1.6-.2 2 1.4 2 1.2 0 2 .6 1.8 1.2-.1.9.9 1.2 3.1 1 2.7-.3 3.2 0 3.2 1.7 0 2.3 2 2.7 5.1 1.1 3-1.6 2.3-2.7-3.6-6.5-3-2-5.5-4-5.5-4.5 0-1.6 6-1.1 14 1.1 11.1 3 15.3 8.2 9.3 11.2-3.9 2-6.4 2.4-16.8 3.3-4.9.3-10.7 1.3-12.9 2-5 1.8-8.1 1.8-9.6-.1-1.7-2.1-2.8-1.9-3.2.7-.3 1.9-1.2 2.4-7.3 3.3-3.8.6-8.8 1.9-11 2.9-4.9 2.1-25.5 2.2-25.5.1 0-.7.9-1.5 2-1.8 2.6-.7 2.6-2.3 0-3-1.8-.5-1.4-1.2 3.3-6.1 3-3 7.3-9.1 9.8-13.5 2.4-4.4 4.6-8 4.9-8.1.3 0 1.2.5 2 1 1.3.9 1.3 1.2-.2 2.4-2.6 1.9-2.2 2.6 1.5 2.7 2.1.1 2.5.3 1.2.6-3.2.8-3.9 2-1.6 2.8 1.2.4 2.8.2 3.5-.4 1.1-.9 1.9-.3 3.7 2.6 1.3 2.1 2.5 4.1 2.7 4.5.2.5-2.8.8-6.7.8-7.4 0-9.8 1.6-3.3 2.3 3.4.3 3.3.4-1 .5-4.5.2-6.1 1.3-3.8 2.7 1.4.9 17-.6 17-1.6 0-.4-.8-1-1.7-1.2-1.4-.4-1.4-.5.3-.6 1.2 0 2.8.9 3.7 2.1 1.1 1.7 1.8 2 2.7 1.2.8-.9.4-2.2-2-5.5-6.7-9.4-12.9-19.1-13.5-21-.7-2.1-2.9-2.1-3.1-.1-.4 3.3-.6 3.5-1.5 1.3-.8-2.1-1.2-2.3-2.3-1-.7.8-1.8 2.9-2.5 4.8-2.1 6.5-8 15.7-13.3 20.9-2.9 2.8-5.7 5.2-6.3 5.2-.5 0-3.3-.6-6.2-1.4-3.4-.9-5.5-1-6.1-.4-1.3 1.3-7.4-.1-6.9-1.5.3-.8 3.4-1.1 10.2-.9 7.5.2 10.3-.1 12.1-1.3 4.8-3.1 3-4-8.4-4.2-5.9-.1-12.1-.5-13.8-.8-2.5-.4-3.3-.1-4.4 2-1.6 3-2.2 3-8 .2-5.7-2.8-6.1-4.8-1.4-7.7 3-1.9 3.8-2 4.5-.9 1.5 2.4 1.1 4.1-1 3.4-2.4-.7-4.7 1.8-2.9 3.2 3 2.4 5.6 2.4 8.4 0 1.6-1.3 3.8-2.8 4.8-3.4 3-1.7 13.4-12.3 16.8-17.4 3.1-4.5 3.3-4.6 7.8-4.2 2.9.3 5.2 0 6.4-1 2.9-2.2 1.2-3.5-3.9-2.9-3.8.4-4.5.2-4.5-1.3 0-1.4.6-1.6 3-1.2 3.9.8 6 0 6-2.4 0-1.5-.7-1.9-3.6-1.9-4.5 0-4.2-2.4.4-2.8 3.5-.4 6.3-2.9 4.1-3.6-.8-.3-2.3-.6-3.4-.8-2.8-.5-2.6-3.4.2-3 2.3.3 3.2-.7 4.9-5.5 1.1-3.2 1.1-3.2-2.5-3.5-4.3-.4-5.1-3.1-.9-3.6 1.4-.2 3.2-1 3.8-1.7 1.3-1.6.7-2-3.5-2.7-3.1-.5-2.4-3.2 1-3.8 4-.7 4.6-3.7.8-4.2-3.5-.4-3.3-2.3.3-2.3 2.5-.1 4.7-2.2 3.8-3.7-.8-1.2-3.8-1-5.2.4-.9.9-1.2.6-1.2-1.6s.4-2.6 1.8-2.2c2.3.8 5.8-1.7 4.7-3.3-.4-.8-1.8-1.1-3.6-.7-2.6.5-2.9.3-2.9-1.9 0-2.2.4-2.5 3.4-2.5 3.6 0 5.5-1.5 3.9-3.1-.6-.6-1.9-.6-3.6 0-3.3 1.3-3.8.4-3.1-5.3.7-4.5.8-4.6 4.1-4.6 2.8 0 3.4-.3 3.1-1.8-.2-.9-.8-1.6-1.4-1.5-.5 0-1.8.3-2.9.5-1.6.2-2.1-.3-2.3-3-.7-7 8.9-15.4 10.5-9.2.6 2.2 2.8 2.7 3.9.9.6-1 6-3.8 7.4-3.8.3-.1 1.6 2.4 2.9 5.5zm73.7 33.4c.7 29.6 1.2 42.4 1.9 47.8.5 3.4.3 5.7-.4 6.6-.7.9-1.1 6.4-1 15.7.1 19.1.1 19.1-1.3 18.6-1-.3-1.3-6-1.5-23.3-.1-12.6-.4-24.3-.7-25.9-1.2-7.8-1.6-16.7-.6-18.5.6-1.1.7-2.8.2-4.2-.5-1.3-.4-8.5.3-16.5.6-7.8 1-15.9.8-18-.3-3.5-.2-3.6.8-1.3.6 1.4 1.2 9.9 1.5 19zm-228.4 22.4c7.1 3.4 46.8 34.6 46.8 36.8 0 .6-1.4.8-3.7.3-2.1-.4-6.3-.9-9.3-1-3.4-.2-7.7-1.3-11.3-3-6.6-3.1-14.9-5.5-18.9-5.5-1.6 0-3.1-.8-3.7-1.9-1.6-2.9-17.4-13.9-20.7-14.3-4.2-.4-4.3-3.7-.3-8.3 1.8-2 4.2-4.1 5.3-4.6 2.9-1.2 11.8-.4 15.8 1.5zm299.8 4c0 2.9-1.5 5-2.9 4.1-.7-.4-2.6-.1-4.2.6-2.6 1-3.3 1-4.7-.4-2.2-2.3-.6-6.9 2.8-7.7 3.9-1 9 1 9 3.4zm-178.3 1.2c.9 2.4-2.1 16.2-4.8 21.9-2 4.2-3.1 5.2-7 6.7-5.7 2.1-20 3.3-25.4 2.1l-4-.9-.2-8.9c-.1-4.8.2-9.6.7-10.5.7-1.3 2.8-1.9 7.7-2.4 7.1-.7 15.8-3.2 25.3-7.1 6.8-2.9 6.9-2.9 7.7-.9zm58.8 3.9c5 .9 15.8 1.8 24 2.1 8.3.4 15.6 1.1 16.3 1.7.7.6 1.1 2 .8 3.1-.3 1.1 0 4 .5 6.6.6 2.5 1.1 7.6 1 11.5 0 3.8 0 8.9-.1 11.2 0 4.8-.4 5-5.8 2.7-3.9-1.7-32.8-7.4-37.4-7.4-2.2 0-3.4-.9-5.4-4.2-1.5-2.4-3.1-5.6-3.5-7.3-.5-1.6-1.5-5.3-2.3-8.2-.8-2.9-1.8-7.3-2.2-9.9l-.7-4.7 2.9.7c1.6.4 7 1.3 11.9 2.1zm118.5 3c0 2.6 7.2 14.9 11.6 20 7.6 8.7 12.4 21.3 12.4 32.6 0 8.7-.5 10.1-3.6 9.3-2.4-.6-2.4-.5-2.1 4.4.2 4.4 0 4.9-1.4 4.2-2.1-1.2-2.9-.4-3 2.9v2.6l-1-2.4c-.8-1.9-1.2-2.1-2.4-1.1-.8.7-1.5 2.3-1.5 3.6 0 3-1.6 3.9-2.3 1.3-.8-2.8-2.3-1.7-3.1 2.3-.6 3.1-.8 3.2-2.1 1.4-1.7-2.3-3.5-1.3-3.5 2 0 3-1.6 3.1-2.4.1-.6-2.2-.6-2.2-2.2-.2-.8 1.1-2.1 1.9-2.9 1.7-.8-.1-1.8 1.2-2.5 3.3-.9 2.8-1.6 3.5-3 3-1.3-.4-2.2.1-3 1.5-.6 1.1-1.9 2-2.9 2s-3.6.7-5.7 1.6c-3 1.3-7.4 1.6-20.1 1.6-15.2-.1-19.2.5-16.1 2.4 3 1.9 36.3.4 42.5-1.8 2.3-.9 3.6-.9 4.4-.1 1.9 1.9-1.8 4.3-6.9 4.3-4.8 0-14.3 3.8-20.4 8.2-3.8 2.6-10.2 12.4-12.2 18.6-1.6 4.6-1.1 13.4.9 19.9.6 1.9.2 2.5-2.1 3.3-1.6.6-3.9 2.1-5.1 3.2-1.3 1.2-2.6 1.9-2.9 1.6-.3-.4-.6-19.9-.6-43.4.1-23.5-.4-46.2-.9-50.3-.5-4.2-.9-8.1-.9-8.6 0-.6.2-12.3.3-26.2.2-13.9.6-25.5 1-25.9.4-.4 3.3-.1 6.4.6 13.8 3.3 22.2 9.2 27.4 19.3 2.5 4.9 9.2 12.5 12 13.5 1.6.6 1-2-1.3-5.7-1.3-2-2.3-4.8-2.4-6.4-.2-2.7.9-3.6 2.1-1.7.3.5 1.3 1 2 1 1.1 0 .9-.8-.7-3.5-2-3.6-1.8-5.9.4-3.7 2 2 2.8 1.4 2.6-2-.3-2.8.1-3.4 2-3.6 1.2-.2 2.2-.9 2.2-1.7 0-1.6 11.1-11.5 12.2-10.9.4.3.8 1.2.8 1.9zm-309.2 7.6c7.3 6.2 8.1 7.3 6.1 8.4-1.6 1-15.9-10.3-15.9-12.6 0-3.2 2.3-2.2 9.8 4.2zm81.2 5.5c0 3.4-1.3 4.6-2.3 2.1-.7-1.9.4-6.8 1.4-6.1.5.3.9 2.1.9 4zm-54.5 8.2c5.7 2.3 6.7 3.8 3.2 5.1-5.9 2.3-8.4 9.9-5.2 16.2 1.7 3.1 8.7 6.8 20.9 10.9 4.4 1.4 8.1 3.5 10.7 5.9 3.8 3.7 3.9 3.9 3.9 10.9 0 4.5-.4 7.2-1.1 7.2-.6 0-2.9-1.3-5.2-2.8-2.3-1.6-7.1-4.3-10.7-6.2-3.6-1.8-7.6-4-9-5-1.4-1-3.6-2.1-5-2.5-5.3-1.6-10.1-4.7-11-7-1-2.7-2.6-3.3-3.2-1.3-.3.9-3 .5-9.9-1.5-5.2-1.4-10.5-2.8-11.8-2.9-1.4-.2-2.6-.9-2.9-1.6-.6-1.9 4.7-1.5 14.4 1.4 6.7 1.9 9.3 2.3 10.6 1.5 1.4-.9 3.7 0 11.5 4.1 5.4 2.8 14.4 8.1 20.1 11.6 7.3 4.6 10.7 6.1 11.4 5.4 1.2-1.2-7.5-7.2-19.6-13.6-3.8-2-8-4.5-9.5-5.4-1.4-1-3.9-2.3-5.4-3-1.5-.7-2.5-1.7-2.2-2.2 1-1.6-1-3.6-7.3-7.1-3.1-1.7-6.7-4-7.9-5.1-2.8-2.6-6.9-2.6-9.4-.2-2.2 2.3-1.7 3.3 4.1 6.9 5.2 3.3 4.1 4.2-3.1 2.5-2.8-.7-6.9-.9-9.4-.6-4.2.7-4.5.6-5.1-1.9-.8-3.1.2-8.5 2-11 1.6-2.2 4.6-1.4 4.6 1.3 0 1.8 1.8 4.2 3.2 4.2.4 0 .8-1.8.8-3.9 0-5 3.5-9.4 9.3-11.5 5.4-2 16.4-1.4 23.2 1.2zm92.5 4c0 1.3-8.6 3-11.8 2.4-2.5-.6.2-1.3 11.1-3.1.4 0 .7.3.7.7zm-67.1 1.3c2.7.6 5.5 1.6 6.1 2.4.6.7 1 5.1 1 10.1v12.2c0 5.1-.7 5.4-5.8 2.8-2.6-1.3-6.4-2.9-8.4-3.5-6.9-2.3-15.7-7-17.3-9.4-1.9-3-1.1-7.8 2-10.7 2.4-2.2 9.9-4.8 14.7-4.9 1.5-.1 4.9.4 7.7 1zm51.7.6c-.4.4-3.4 1.5-6.7 2.4l-5.9 1.6v-2.3c0-2.3.3-2.4 6.7-2.4 3.6 0 6.3.3 5.9.7zm7.9 4.3c.4.6-.6 1-2.3 1-3 0-12.3 2.5-15.4 4.1-2.2 1.1-2.8 1.1-2.8-.1 0-1.6 4.2-3.3 11-4.6 8.6-1.6 8.8-1.6 9.5-.4zm-100.2 7.8c6.4 4.2 8.2 6.2 5.5 6.2-1.9-.1-8.7-3.3-13.8-6.5-4.1-2.6-4.2-2.9-2.5-4.1 1-.7 2.3-1 2.9-.6.6.4 4.2 2.7 7.9 5zm65.1-.6c3.9 3 4.5 3.8 5 8.3.6 6.1.2 22.2-.6 23.1-.8.8-9.5-4.3-10.1-5.9-.2-.7-.2-5.2-.1-10.2.2-4.9 0-10.4-.5-12.1-.8-2.8.1-6.4 1.5-6.4.3 0 2.4 1.5 4.8 3.2zm32.1-1.2c-.3.5-1.5 1-2.6 1s-1.7-.5-1.4-1c.3-.6 1.5-1 2.6-1s1.7.4 1.4 1zm121.2 4.8c1.8 2 3.2 4.2 3.3 4.8 0 2.3-4.2 6.5-6.4 6.2-2.1-.3-2.4-1.3-1.2-5.8.5-1.9 0-3.6-1.9-6.4l-2.6-3.8 2.8.6c1.5.4 4.2 2.4 6 4.4zm-129.8 10.7c2.5 1.2 7.1 3 10.1 4s6 2.1 6.5 2.5c.6.4 2.6 1.3 4.6 1.9 2.5.8 4 2.2 5.2 4.6 1.8 3.8 2.8 4.3 4.7 2 1.4-1.7 7.1-2 8.7-.4.7.7 2.8.4 7.1-1 3.4-1.2 7.2-2.1 8.5-2.1 1.3 0 5.9-.9 10.2-2 4.3-1.1 9.4-2 11.4-2s6.8-.7 10.6-1.5c12.5-2.8 21.8-3.6 32.7-2.9 5.8.4 11.2 1 11.8 1.4.9.5 1.3 6.3 1.4 19.9l.1 19.2-7 .5c-3.8.2-13.5 1.3-21.5 2.4-23.5 3.2-45.1 5.2-51.2 4.7-3.1-.3-6-.1-6.5.3-.4.5-2.5 1.2-4.5 1.5-3.4.7-3.9.5-4.8-2-1.4-3.6-.9-4.1 4.7-4.8 11-1.4 23.5-3.6 24-4.1.4-.3.3-.9 0-1.2-.8-.9-17.7 1.4-24 3.2-5.9 1.6-15.8.8-20.2-1.7-1.6-.9-5.7-2.5-8.9-3.5-4.1-1.3-7.5-3.3-11-6.5-2.8-2.5-6.6-5.4-8.3-6.3l-3.3-1.7v-13.3c0-7.3.3-13.5.6-13.9.7-.6 1.9-.2 8.3 2.8zm139.6 6.4c.3 1.1.8 7.2 1 13.5.2 6.4.5 12 .7 12.4.2.4.1 3.8-.2 7.7l-.5 7-1.6-3c-1.2-2.2-1.7-6.5-1.9-16-.1-7.2-.4-14.8-.5-17-.2-4.5.3-6.5 1.5-6.5.5 0 1.1.9 1.5 1.9zM234 448c0 .5-.7 1-1.5 1s-1.5-.5-1.5-1c0-.6.7-1 1.5-1s1.5.4 1.5 1zm-51.7 13.5l3.7 3.4v8.5c0 4.8-.3 8.6-.8 8.6-.4 0-2.4-1.1-4.5-2.5-3.2-2.2-3.7-3.1-3.7-6.5 0-4.6.5-4.8 3.7-1.8 1.3 1.2 2.6 1.8 3 1.4.4-.4-.7-2.1-2.6-3.8-3.2-3-5.1-6.5-5.1-9.4 0-2.3 2.3-1.6 6.3 2.1zm21.5 13.8c4.5 4.1 7.3 5.8 12.9 7.5 12.4 3.9 15.8 8.9 4.1 5.9-3.5-.9-8.3-1.8-10.7-2.2-2.3-.3-6.5-2-9.2-3.8-4.5-2.9-4.9-3.5-4.9-7.3 0-3.6.6-5.4 1.7-5.4.2 0 2.9 2.4 6.1 5.3zm-21.6 8.2c3 2 3.8 3.2 4.2 6.7 1.4 11.5 2.5 221.5 1.2 223.7-.3.4-3.3.6-6.7.5l-6.3-.3.3-11.8c.3-13.5.4-14.7.2-30.3-.3-19.7.5-53.5 1.2-54.7.4-.6.2-2.5-.4-4.3-.8-2.3-.9-3.8 0-5.6.6-1.3.7-3.4.3-4.6-.4-1.3-.6-21.2-.5-44.3.2-23.1.3-43.1.2-44.5 0-1.4-.1-3.2-.1-4-.2-5.1.5-27.6.9-28.3.7-1.1 1.6-.9 5.5 1.8zm17.9 1.2c2.2 2.6 7.5 4.4 20.4 7 8.1 1.6 13.5 2.2 16.5 1.8 3.7-.6 4.3-.4 3.2.7-1 1-4.9 1.3-15.5 1.2-13.9 0-14.3-.1-20.8-3.2-7.4-3.6-9.4-5.4-8.5-7.7.7-2 3-1.9 4.7.2zm139.6 66.6c.1 35.3.2 71.6.1 80.7-.1 23.1-.1 24.9.1 39 .1 6.9 0 19.5-.2 28l-.3 15.5-4.6.3-4.7.3v-18.3-20.3c0-1.1-.1-20.7-.2-43.5s-.1-42.6 0-44c.1-5.1 1.1-29.6 1.2-31 .1-.8-.2-14.8-.5-31-.4-16.2-.3-31.5.1-34 .8-4.1 1.1-4.6 4.3-5.1 1.9-.4 3.7-.7 4-.8.3 0 .6 28.8.7 64.2zm-105-61.7c-.3.3-1.2.4-1.9.1-.8-.3-.5-.6.6-.6 1.1-.1 1.7.2 1.3.5zm91.9 13.7c.1 7.3.2 26.7.2 43.2.1 16.5.2 31.1.3 32.5.1 1.4.1 3.2.1 4-.1.8-.1 2.6-.1 4-.1 1.4 0 36.1.2 77.2.2 41.2-.1 74.4-.5 74-.5-.5-1.2-7.8-1.8-16.3-.9-14.8-1-27.9-1.1-100.9 0-18.4 0-36.9-.1-41-.3-36.9-.1-87.9.5-89.4 1.5-3.9 2.2 0 2.3 12.7zM446 491.5c0 2.5-2.3 3.5-3.5 1.4-1.6-2.5-11.9 1.9-10.9 4.6.8 2.1-1.4 4.5-4.1 4.5-1.4 0-2.6.9-3.4 2.6-.6 1.5-1.5 2.4-1.8 2-.7-.7 2.2-6.7 5.5-11.2 1.2-1.7 2.2-3.7 2.2-4.4 0-.9 1-1.1 3.3-.7 1.7.2 5 .1 7.2-.3s4.3-.8 4.8-.9c.4 0 .7 1 .7 2.4zm-126.1 39.7c0 22.7.3 57.9.5 78.3.3 20.3.5 44.4.5 53.5v19.5c0 1.6 0 8.2-.1 14.5-.1 6.3-.1 12.9 0 14.7 0 3.1-.1 3.2-5.1 3.8-5.5.6-10.5.5-17.6-.2l-4.3-.5.5-4.2c.4-2.5.2-4.7-.5-5.4-.6-.6-.8-2.1-.3-3.9.5-1.5.7-3.3.4-3.8-.2-.6-.4-11.4-.6-24-.1-12.7-.4-46.6-.7-75.5-.3-28.9-.5-53.2-.5-54v-23.5c0-13.7.4-22.4 1-23.2.6-.7.8-1.7.5-2.2-.4-.5-.1-1.3.6-1.8 1.7-1.1 14-3 20.5-3.2l5.2-.1v41.2zm-102.8-33.1c9.4 1.5 34.4.1 54.7-3.1 4.5-.7 8.5-1 8.9-.7.3.4.8 24.7.9 53.9.2 29.3.6 75.8 1 103.3.3 27.5.7 53 .7 56.7.1 7.2-.5 8.6-2.5 7.2-.7-.5-19.8-.9-42.5-.9h-41.2l.2-18c0-9.9 0-25.2-.1-34 0-8.8-.1-18.9 0-22.5.3-15.4-1.3-143.7-1.8-145.2-1-3.4.7-3.6 7.4-.7 3.8 1.5 10.2 3.4 14.3 4zm72.1-1.6c-.3 2.1-.4 39-.3 74 0 11.5.1 21.9.1 23-.1 1.1.2 15 .5 31 .3 15.9.8 38.9 1 51 .2 12.1.6 26.4.8 31.8.2 7.2 0 10.1-1 10.9-.7.6-1.3 2.7-1.3 4.7 0 3-1.7 7.8-2.1 6.1-.1-.3-.3-28.4-.4-62.5-.2-35.9-.7-63.7-1.3-66-.5-2.2-.8-5.8-.6-8 .3-2.2.6-24 .8-48.5.3-54 .2-50.2 2.4-49.8 1 .2 1.6 1.1 1.4 2.3zm156.8 1.4c0 .5-1.3 1.4-2.9 2.1-4.1 1.6-6.1 4.1-6.8 8.3-.5 3.1-.1 4 2.5 6.7 2.4 2.4 3.9 3 7.1 3 4.4 0 5.1 1.2 2.4 4.2-1 1.2-3 1.8-5.5 1.8-4.6 0-4.8 2-.3 3.1 5.6 1.6 12.5-4.2 12.5-10.3 0-3.1-4.1-8.8-6.3-8.8-1.5 0-1.7.5-1.2 2.9.7 3.3-.5 4.5-3.5 3.6-4.4-1.4-3.7-8.5 1.3-11.5 12.6-7.7 26.1 7 21.3 23.2-1.7 5.7-6.5 12.7-6.6 9.5 0-2.5-2.5-2.1-4.5.9-2.2 3.4-7.7 5.6-13.4 5.4-6.1-.3-7.1-.2-7.1 1 0 .5 1.2 1 2.8 1 1.5 0 3.4.5 4.2 1 3.3 2.1-7.8 1-13.1-1.4-5-2.2-14.9-11.1-14.9-13.5 0-.5-.2-1.5-.5-2.3-1.1-2.8 5.3-1.4 8.7 1.9 6 5.9 7.9 3.8 2.6-2.8-2.9-3.6-3.3-4.8-3.4-11.2-.2-4 0-6.1.3-4.8 1.1 5.1 5.1 8.9 6.7 6.3.3-.4 0-2.8-.5-5.1-1.1-5-.8-5.7 1.9-4.2 2.3 1.2 4.2-.3 4.2-3.3 0-3.3 4.9-7.6 8.7-7.6 1.8 0 3.3.4 3.3.9zm-29 16.8v4.8l-2.1-3.3c-1.2-1.7-2.5-3.2-3-3.2s-.9-.7-.9-1.5c0-1 1-1.5 3-1.5 2.9 0 3 .1 3 4.7zm-52.6 32.2c1.5 2.2 6.3 6.7 10.5 10l7.8 6.1-.8 5.1c-.7 4.7 0 9.1 3.6 21.5.5 1.7 0 2.2-3.3 3.2-7 2.1-12 1.5-19.8-2.4-4.2-2-7.6-4.4-7.9-5.5-.4-1-1.3-1.9-2.1-1.9-.9 0-1.4-1.1-1.4-3.3l.1-3.2 1.6 3c2.4 4.6 4.4 6.5 9.6 9.1 6.8 3.5 19.6 3.6 18.4.1-.2-.6-2.5-1-5.8-.8-7.3.3-15.8-3.9-17.4-8.6-.5-1.7-2.2-4.3-3.7-5.7-2.5-2.2-2.8-3.2-2.8-8.5 0-3.3-.4-6.3-1-6.6-1.6-1-1.1-5.2.7-5.9 2.4-1 4.8 1.9 4.8 5.7 0 3.4 2.2 4.5 3.5 1.7.4-.8 1.2-2.5 1.8-3.7 1.6-3 1.5-3.3-.8-3.3-2.5 0-2.6-1.7-.3-4.2 1.5-1.6 1.5-2.1.3-2.8-.8-.5-1.8-.6-2.2-.4-.4.3-.8.1-.8-.5 0-1 1.6-1.9 3.6-2 .6-.1 2.3 1.7 3.8 3.8zm83.1-1.9c-.3.5-1.3 1-2.1 1s-1.4-.5-1.4-1c0-.6.9-1 2.1-1 1.1 0 1.7.4 1.4 1zM90.4 717.6c.8.3 1.3 1.1 1 1.9-.7 1.7 2.7 2.5 12.1 2.5 5 0 7.4.4 6.5.9-1.6.9-29.9 2-55 2.2-18.2.1-17.2.2-16.8-1.8.3-1.4 2.9-1.6 24.3-1.8 13.2-.1 24.3-.3 24.8-.4 1.5-.2.6-2.2-1.5-3.1-2.2-.8-2.2-.9.4-.9 1.4-.1 3.3.2 4.2.5zm73.7 4.9c.1 1.1-.1 3.1-.5 4.5s-.1 5.7.7 9.5c1 4.9 1.2 7.8.5 9.5-.5 1.4-1 5.3-1 8.7 0 6.1 0 6.2-2.9 6.8-3.6.8-5 0-1.9-1 4.1-1.3 1.5-3-4.6-3-5 0-5.9.3-5.8 1.7.1 1.3-.6 1.8-2.5 1.9-7.9.4-9.1.4-9.1-.1 0-.3.9-1.1 2.1-1.8 2.7-1.7 2.2-5.9-1.1-8.3-1.4-1.1-4.9-2.5-7.7-3.1-2.9-.7-5.3-1.6-5.3-2 0-1.7 5.3-2 7.9-.5 3.2 1.8 27.8 3.4 30 1.9 3.1-2.1-.2-3.2-9.8-3.2-5.4 0-11.2-.3-13-.6l-3.1-.6 2-2.6c1.8-2.2 1.9-2.8.7-4.6-2.8-4.1-6.1-5.6-14.2-6.5-4.8-.5-6.4-.9-3.9-1 4.2-.1 8.5-2.4 7.1-3.8-.5-.4-3.5-.6-6.8-.5-3.8.3-5.9 0-5.9-.7 0-1.3 16.1-1.5 42-.7 2.4.1 3.5-.4 3.6-1.4.1-.8.2-2 .3-2.5.2-1.4 1.9 1.6 2.2 4zm187.1-2.3c-.7.7-1.2.8-1.2.2 0-1.4 1.2-2.6 1.9-1.9.2.3-.1 1.1-.7 1.7zm-31.9-.5c-.7.2-2.1.2-3 0-1-.3-.4-.5 1.2-.5 1.7 0 2.4.2 1.8.5zm99.5 0c-1.6.2-4 .2-5.5 0-1.6-.2-.3-.4 2.7-.4s4.3.2 2.8.4zm-82.4 2.9c.9.3 1.6 1.4 1.6 2.4 0 1.4-.6 1.6-3.2 1.1-3.7-.8-5.3-4.1-2-4.1 1.1 0 2.7.3 3.6.6zm17.1 1.9c0 1-.6 2-1.2 2.2-.8.3-1.3-.5-1.3-2.2 0-1.7.5-2.5 1.3-2.3.6.3 1.2 1.3 1.2 2.3zm-113.3-.4l40.5.2.2 5.1c.1 2.8.6 5.5 1.1 6 1.1 1.1 4-1 4-3s1.8-1.7 2.3.3c1.7 6.3 1.7 7.5.1 8.8-1.5 1-2.1.9-3.8-1.1-2.4-2.5-6.6-4.1-6.6-2.5 0 .6-.8 1.1-1.7 1-1.1 0-1.3-.3-.5-.6.6-.2 1.2-1.3 1.2-2.4 0-1.8-.9-1.9-13.1-1.9-7.7 0-12.8-.4-12.4-.9.3-.5 5.3-.8 11.3-.6 11.1.5 14.8-.3 12.4-2.7-.9-.9-7.5-1.3-25.5-1.4-13.3-.1-29.1-.6-35.1-1.2-10.7-1-13.6-.8-13.6.8 0 1.5 1.3 1.8 15.3 3.1 7.5.7 13.2 1.6 12.6 1.9-1 .7-13 .5-24.9-.4l-5.5-.4-.3-4.7c-.2-2.6.1-4.4.6-4.1.5.3 19.1.6 41.4.7zm62.6-.1c-1 .6-2.5.7-4 .1-2-.9-1.8-1 1.7-1 3.1 0 3.6.2 2.3.9zm78.5.9c.4 1.5-.2 2-3.5 2.4-2.2.3-6.4.3-9.3 0-4.9-.5-5.3-.7-4.2-2.4 1-1.6 2.4-1.9 8.8-1.9 6.7 0 7.7.2 8.2 1.9zm27.2-1c.9 1.5-3 3.1-7.2 3-2.2-.1-2.9-.3-1.8-.6 1.1-.3 2.4-1.1 2.8-1.9.9-1.6 5.3-1.9 6.2-.5zM424 725c-.6 1.1-1.4 2-1.9 2s-2.2.3-3.8.6c-2.5.5-3.1.2-3.5-1.4-.8-2.9-.2-3.2 5.4-3.2 4.6 0 4.8.1 3.8 2zm74 1c-1.8 1.2-17.3 1.4-16.6.2.3-.5 4.5-.9 9.3-1 6.2-.2 8.3.1 7.3.8zm-63.3.6c-.3.3-1.2.4-1.9.1-.8-.3-.5-.6.6-.6 1.1-.1 1.7.2 1.3.5zm17.6.1c-.7.2-2.1.2-3 0-1-.3-.4-.5 1.2-.5 1.7 0 2.4.2 1.8.5zm24.4 0c-2 .2-5.2.2-7 0-1.7-.2 0-.4 3.8-.4 3.9 0 5.3.2 3.2.4zM114 728.1c1.4 0-.6 1-4.5 2-8.7 2.5-8 2.4-19.7 1.5-10-.7-12.2-.1-9.8 2.9 1.8 2.2 0 1.8-2.4-.4-1.2-1.1-3.3-2.2-4.7-2.6-2.6-.7-3.7.2-7.6 6.1-1.2 1.8-1.3 1.8-2.3.1-.6-.9-1.9-1.8-2.8-1.8-.9-.1-.1-.4 1.8-.8 2.2-.4 3.5-1.2 3.5-2.1 0-1.3-3.3-1.4-25.2-1.1-16.7.2-25.3 0-25.3-.6 0-1.5 13.3-2.2 54.5-2.9 20.4-.3 37.2-.8 37.5-1 .2-.3 1.4-.3 2.5 0s3.1.6 4.5.7zm206.6 1.4c-.4 1.3-25.7.7-27.1-.6-.6-.6 4.4-.8 13.3-.7 8.9.2 14.1.7 13.8 1.3zm17.7 1.5c.9 3.6-.7 7.5-3.1 7.5-2.1 0-3.2-1.9-1.2-2.1.6-.1 1.5-.2 2-.3 2-.2.9-3.2-1.5-4.1-3.4-1.3-3.2-3 .4-3 2 0 3 .6 3.4 2zm72.2 0c-1.6 1.7-3 2-10.4 1.9-4.7-.1-12.4-.4-17.1-.8l-8.5-.8 8.5-.3c4.7-.2 11.1-.2 14.2-.1 3.2.1 6.4-.2 7.2-.6.8-.4 2.9-.9 4.7-1 3.1-.2 3.1-.2 1.4 1.7zm-37.6.8c-.7.3-1.9 1.2-2.5 2-.9 1.3-1.4 1.2-4-.4l-2.8-1.9 3.9-.5c4.4-.6 8.1 0 5.4.8zm-241.1 3.6c2.2 2.1 2.5 3 1.6 4.4-1.6 2.5-4.1 2.6-7 .3-2.9-2.3-7.7-2.7-11.8-1.1-4.2 1.6-3.1 3 1.9 2.3 3.6-.5 4.6-.3 5.1 1.1.4.9.4 2 0 2.3-1.2 1.2-11.9.4-16.8-1.3-6.3-2.1-6.3-4.2 0-8.4 4.6-3.1 4.8-3.2 14.5-2.7 9 .4 10.1.6 12.5 3.1zm111.7-2.4c-.3.5-2.3 1-4.3 1-2.8 0-3.3-.3-2.2-1 2-1.3 7.3-1.3 6.5 0zm172.9 2.4c-.6 1.6-.8 1.7-1.6.2-1.1-1.9 0-4.2 1.3-2.9.6.6.7 1.8.3 2.7zm-93.9.6c0 1.4-11.3 1.6-20.3.4-3.8-.6-4.4-.4-4.9 1.5-.4 1.7-.8 1.9-1.9 1-.8-.6-1.4-2-1.4-3.1 0-1.9.7-1.9 14.3-1.5 10.9.3 14.2.7 14.2 1.7zm-269.7-.3c-1 .2-2.8.2-4 0-1.3-.2-.5-.4 1.7-.4 2.2-.1 3.2.1 2.3.4zm45.2-.1c0 .3-.9 1.7-2 3.1-1.1 1.5-1.8 3.4-1.5 4.3.5 1.4-.4 1.8-5.2 2.3-3.2.3-7.5.9-9.6 1.3-2.9.5-3.7.4-3.5-.7.2-.7-.9-1.6-2.7-1.9-2.4-.5-1.5-.8 4.2-1.5 4.6-.5 7.4-1.2 7.7-2.1.3-.8 2-1.4 4.2-1.4 2.7 0 3.7-.5 4.1-2 .5-1.7 4.3-3 4.3-1.4zm109.5.8c3.9.3 17.2.8 29.8 1.2 12.5.4 22.5 1 22.1 1.3-.3.3-10 .7-21.5.7-11.6.1-21.3.5-21.7.9-.4.4.1 1.2 1 1.9 1.9 1.4 1.4 2.6-.9 2.6-.7 0-1.8-1.1-2.3-2.4-.7-2-1.8-2.6-6.5-3.1-3.8-.5-6-.4-6.8.4-1.5 1.5.7 3.1 4.6 3.1 1.5 0 2.7.4 2.7 1 0 1-1.3 1.3-4.1 1.1-.9-.1-2.4 1.1-3.5 2.6-1.8 2.8-1.8 2.8-2.3.5-1-3.9-.1-13.1 1.2-12.7.7.2 4.4.6 8.2.9zm189-.1c9.9.2 11 .4 11.3 2.1.4 1.8 0 1.8-4.9 1.1-3-.4-9.8-.8-15.1-.9-5.4-.1-10-.5-10.4-.8-1.3-1.4.6-2.4 4.3-2.1 2.1.2 8.7.4 14.8.6zm54.3.6c3 .1 4.2.5 4.2 1.6 0 1.6.7 1.7 20 2 11.7.2 12.3.3 11.5 1.5-.8 1.3-38.5 1.4-38.5.1 0-.5.5-1.1 1.2-1.3.6-.2.8-1 .4-1.6-.9-1.5-5.2-1.6-6.1-.2-.3.5-4.2 1-8.6 1-7 0-7.9-.2-7.9-1.8 0-1 .2-2.1.4-2.3.2-.2 4.6-.1 9.8.3 5.1.3 11.2.7 13.6.7zM74 738.1c0 .5-.4.9-1 .9-.5 0-1-.7-1-1.6 0-.8.5-1.2 1-.9.6.3 1 1 1 1.6zm-38 .9c.7 1.1.4 2-1.1 3.2-2.7 2.3-6.9 2.3-10.7.1-3.3-1.9-6.2-1.2-6.2 1.5 0 2.6-6.5 3.7-11.7 1.9-10.8-3.5.9-8.7 19-8.4 7.5.2 10 .6 10.7 1.7zm329 2.5c0 2.8-.4 3.5-2 3.5-2 0-2.6-2.2-1.4-5.4 1.2-3 3.4-1.8 3.4 1.9zm-307.5-1.3c-1.1.6-2.2 1.5-2.5 1.9-.3.4-3.1.9-6.3 1.1-5.8.3-7.9 2-3.2 2.6 4.5.6 2.6 2.2-2.5 2.2-5.4 0-6.2-.8-3-2.8 1.1-.7 2-2.3 2-3.7 0-2.5.1-2.5 8.8-2.5 7 .1 8.3.3 6.7 1.2zm301.2-.1c1.3 1.3.5 5.1-1.1 4.6-1.3-.4-2.1-5.7-.9-5.7.5 0 1.4.5 2 1.1zm-37.3 3.1c1.2 4.5.7 9.8-.9 9.8-.9 0-1.5-.9-1.5-2.1 0-2.1-.3-2.1-9.5-1.5l-9.5.7v-2.6c0-1.5-.5-3.5-1-4.6-1-1.8-.6-1.9 10.3-1.9 11 0 11.5.1 12.1 2.2zm48.6-.2c0 1.1-.6 2-1.4 2-1.8 0-2.9-1.6-2.1-3 1.1-1.8 3.5-1.1 3.5 1zm52.5.6c13.2.2 24.7.7 25.5 1.1.8.4 3.5.8 6 .9 6.1.3 25.1 1.2 27.3 1.3 1 .1 1.7.9 1.7 2.1 0 2.3-2.5 2.7-3.3.6-.5-1.2-5.4-1.5-28.4-1.8-15.3-.2-33.5-.3-40.5-.3-9.7 0-12.8-.3-12.8-1.2 0-.8-1.5-1.4-4.2-1.4-2.4-.1-5-.3-5.8-.4-.8-.1-3.4-.3-5.7-.4-2.4 0-4.3-.5-4.3-1 0-1.5 2.6-1.7 11.9-.8 4.7.5 19.4 1 32.6 1.3zM66 743c1.1.7.2 1-3.2 1-2.7 0-4.8-.5-4.8-1 0-1.3 6-1.3 8 0zm216 0c.8.5 1.1 1.2.7 1.7-.5.4-12.6.9-26.9 1-14.4.1-26.4.5-26.7.9-.3.3.2 1.1 1.1 1.8 1.3.9 7.9 1.5 21.5 1.8 18.8.5 20.1.7 24.8 3.2 2.8 1.4 4.3 2.6 3.4 2.6-.9 0-3.1.3-4.8.6-2.7.6-3.1.4-3.1-1.5 0-1.1-.6-2.1-1.2-2.1-.7 0-9.4-.2-19.3-.4s-19.7-.5-21.7-.5c-3.5-.1-3.8-.3-3.8-3.1 0-2.2-.7-3.3-2.7-4.5-2.6-1.4-.4-1.5 25.4-1.3 15.6.1 28.6-.2 29-.5.9-1 2.5-.8 4.3.3zm56 1c0 1.2-1.7 1.2-4.5 0-1.7-.7-1.5-.9 1.3-.9 1.7-.1 3.2.3 3.2.9zm-45.4 2.7c-1 1-1.9-.5-1-1.8.6-1.1.8-1.1 1.2 0 .2.7.1 1.5-.2 1.8zm59.7-1.3c.6 1.6-.2 2.8-1.4 2-1.2-.7-1.1-3.4 0-3.4.5 0 1.1.6 1.4 1.4zm139.2.6c-.3.5-1 1-1.6 1-.5 0-.9-.5-.9-1 0-.6.7-1 1.6-1 .8 0 1.2.4.9 1zm-195.1 3.9c-.6.6-2.4-1.9-2.4-3.4.1-.6.7-.1 1.5.9.8 1.1 1.2 2.2.9 2.5zm80.1-3.3c1.3.5 1.4.8.3 1.5-1.9 1.3-2.8 1.1-2.8-.6 0-1.7.2-1.8 2.5-.9zm-303.9 2.5c-2.4 1.9-3 2-5.2.9-3.7-2.1-2.9-3 2.7-3h5.2l-2.7 2.1zm140.4.5c0 .8-.4 1.2-1 .9-.5-.3-1-1.3-1-2.1s.5-1.2 1-.9c.6.3 1 1.3 1 2.1zm169-1.6c0 .5-.2 1-.4 1-.3 0-.8-.5-1.1-1-.3-.6-.1-1 .4-1 .6 0 1.1.4 1.1 1zm-353.1 1.3c1.2 1.5.5 2.7-1.6 2.7-.7 0-1.3-.9-1.3-2 0-2.3 1.3-2.6 2.9-.7zm92.1.7c12.8 1.3 16.7 3.5 12.5 7-3.4 2.8-21.5.1-24.6-3.6-1.3-1.6-9.5-1.9-10.4-.4-.3.5 0 1.9.7 3 2.1 3.3-.4 4.2-9.9 3.6-7.9-.6-15.3-3.3-15.3-5.7 0-4.6 22.7-6.5 47-3.9zm100.4.2c-.8 2.8-1.2 3.3-2 2.5-.9-.8.6-4.7 1.7-4.7.6 0 .7 1 .3 2.2zm66.4-.5c.2.9-.9 1.3-3.7 1.3-3.9 0-5.5-1.3-2.8-2.4 2.1-.8 6-.2 6.5 1.1zm45.9-.5c5 2.2 5.7 4.8 1.3 4.8-2.2 0-3-.5-3-1.8 0-1-.5-2.3-1.2-3-1.5-1.5-.6-1.5 2.9 0zM16 751c0 .5-.5 1-1.1 1-.5 0-.7-.5-.4-1 .3-.6.8-1 1.1-1 .2 0 .4.4.4 1zm191.4-.4c1.8.7 2.1 3.9.5 4.9-.6.4-1.3-.2-1.6-1.3-.3-1.3-1.1-1.8-1.9-1.5-1.4.5-1.9-.8-.7-2 .8-.9 1.7-.9 3.7-.1zm152.1 1.4c2.8.1 13.9.3 24.8.3 17.8 0 19.7.1 18.3 1.5-1.2 1.2-5.9 1.6-26.4 2-14 .3-25.1.1-25.4-.4-.3-.5-.2-2 .3-3.3.7-1.6 1.3-2.1 2.2-1.4.6.5 3.5 1.1 6.2 1.3zm71.8-1.3c4.6.4 6.7 1 6.7 1.9 0 1.8-15 2-16.8.2-2.9-2.9-1.5-3.2 10.1-2.1zm-368.2 1.8c1.8 1.2-.2 2.4-6.1 3.6-3.8.7-6.6 2-8.1 3.5-2.8 3-1.5 5 2.3 3.5 2.4-.9 7.6-1.4 12.9-1.2 4 .1 4.2 2.6.6 6.4-3.2 3.4-11.9 6.7-21.2 8.1-10.5 1.5-24.5-6.8-21.7-12.9 1.1-2.4 10.3-7.5 13.7-7.5 1.1 0 3.2-.8 4.5-1.7 1.4-1 3.7-1.6 5.1-1.5 1.5.2 3-.2 3.4-.9.8-1.2 12.4-.7 14.6.6zm411.3.2c-2 1.5-34.4 1.9-34.4.5 0-1.8 1.5-1.9 18.6-1.9 14.8.1 17.3.3 15.8 1.4zm-258 1.4c-.8 1.4-2.4 1-2.4-.6 0-.9.6-1.2 1.5-.9.8.4 1.2 1 .9 1.5zm98.1-.1c-.3.5-1.5 1-2.6 1-1 0-1.9-.5-1.9-1 0-.6 1.2-1 2.6-1 1.4 0 2.3.4 1.9 1zM22 756c0 .5-.4 1-.9 1-.6 0-1.3-.5-1.6-1-.3-.6.1-1 .9-1 .9 0 1.6.4 1.6 1zm232.3.9c8.1.1 14.7.4 14.7.8 0 .5-1.5 1.5-3.3 2.3-1.9.9-3.4 2.5-3.7 4l-.6 2.5H241c-32.1.1-41 .4-41 1.5 0 2.2 4.6 3.2 13.9 3 8.1-.1 51-.2 53.4 0 .4 0 .7.4.7 1s-11.8 1-33.2 1c-18.3 0-33.9.4-34.7.9-3.2 2 .3 3.1 10.7 3.2 9.6.1 10.1.2 5.2 1-8.5 1.2-19.5.5-19.3-1.2.1-.8.5-4.1.9-7.4.4-3.3.6-6.5.4-7-.4-1.4-.1-5.7.5-6.3.6-.6 4.5 2.8 4.5 4 0 .4-.7.8-1.5.8s-1.5.6-1.5 1.4c0 1.8 8.2 3.1 10.9 1.7 1.1-.6 3.3-.8 5-.5 2.4.5 3.2.3 3.7-1.2.4-1.1 1.8-3 3.2-4.4 2.3-2.4 2.8-2.5 9.6-1.8 3.9.4 13.7.7 21.9.7zM482 756c0 .5-.7 1-1.6 1-.8 0-1.2-.5-.9-1 .3-.6 1-1 1.6-1 .5 0 .9.4.9 1zm15 0c1.1.7.2 1-3.2 1-2.7 0-4.8-.5-4.8-1 0-1.3 6-1.3 8 0zm-424.8 1.6c2.7 1.4 2.9 1.8 1.5 2.6-1.9 1-7.1-1.8-6.1-3.3.7-1.2 1-1.2 4.6.7zm347.3 2.3c-.3 1.2-1.1 2.1-1.7 2.1-.5 0-.7-.7-.4-1.6.3-.9.6-2.3.6-3.2 0-1.2.3-1.3 1.1-.5.6.6.8 2 .4 3.2zm54.1-1.2c1 .6 3.6 1.3 5.7 1.7 2.3.4 3.7 1.2 3.4 1.9-.5 1.5-9.5 2.1-11.1.8-.8-.7-10-1.2-23.9-1.3-19.9-.3-22.7-.5-22.7-1.9 0-.9.3-1.9.7-2.3 1.1-1 45.6 0 47.9 1.1zm-456.7.9c1 .9-1 1.6-6.4 2.1-4.6.5-5.7.3-5.3-.8.6-1.8 4.6-2.8 8.3-2.2 1.7.3 3.2.7 3.4.9zm95.6-.2l3 1.3-4.7.8c-5.2.8-7 .2-6.1-2 .6-1.8 3.8-1.9 7.8-.1zm197.3-.4c5.1.6 10.7 1.7 12.5 2.7l3.2 1.6-3 .9c-1.6.5-8.6 1.3-15.5 1.8s-16.3 1.6-20.9 2.5c-8.9 1.5-15.8.8-18.2-2.1-1.7-2-.4-3.1 5.9-5 10.3-3.1 22.1-3.9 36-2.4zm25.7 0c1.4.5 2.3 1.4 2 2-.4.7-1.2.7-2.5 0-1-.5-3.2-1-4.9-1-1.7 0-3.1-.5-3.1-1 0-1.3 5.1-1.3 8.5 0zm64.5.9c.5 1.1.7 2.2.3 2.4-1.3.7-48.2.1-48.9-.6-1.6-1.6 1.5-2 21.2-2.3 11.3-.1 20.9-.5 21.2-.8 1.3-1.3 5.2-.5 6.2 1.3zm-316.1 2.7c.2.2-.1.9-.7 1.6-.5.7-1.2 2.4-1.4 3.8-.3 2.3-.7 2.5-5 2.5-2.5 0-5 .4-5.4.8-1.5 1.4 2 2.7 7.5 2.7 8.5 0 5.5.9-5.5 1.6l-9.9.7 3.8-4.2c2.1-2.3 4.2-5.3 4.7-6.7.6-1.4 1.4-2.3 1.9-1.9.6.3 1.6-.1 2.3-1 1.1-1.3 6.2-1.2 7.7.1zm415.1-.5c0 1-6.1 2.2-8.6 1.7-.9-.1-1.9-.8-2.1-1.4-.2-.7 1.6-1.1 5.2-1.1 3 0 5.5.4 5.5.8zm-65.4 4c2.4.6 4.7 1.6 5.1 2.2 1.9 3.2-12.5 8.5-26.7 9.8-9.8.9-18.6.3-19.6-1.2-.3-.5-1.8-.9-3.3-.9-2.9 0-9.2-3.6-9.8-5.7-.7-2.1 3.6-3.4 13.5-3.9 8.5-.5 10.2-.3 13.7 1.5 6.5 3.5 18.5 2.5 18.5-1.4 0-1.8 2.6-1.9 8.6-.4zm28.7-.3c4.7.2 5.7.5 5.7 2 0 2.4 5 5.2 9.3 5.2 2 0 3.8.4 4.1.9.9 1.4-4.6 2.3-9 1.4-6.2-1.3-32.6-.4-32.1 1 .2.7 1.9 1.5 3.8 1.8 2.8.5 2.9.7.8.8-1.4 0-5.4.4-8.8.7-6.9.8-8.4-.7-2.6-2.6 1.8-.6 5-2.2 7-3.6 2-1.3 3.9-2.3 4.3-2 .4.2 5.5.7 11.3 1.1 7.7.5 10.9.3 11.4-.5 1.4-2.3-1.2-2.9-12.3-3.1-9.3-.1-11.4-.4-12.1-1.8-.8-1.4-.1-1.6 6.2-1.6 4 .1 9.8.2 13 .3zm-444.8 3.3l1.6 3-7.1-.2c-3.9-.1-7.3-.7-7.7-1.2-.4-.6.9-.8 3.5-.5 4.8.7 7.6-1.3 4.5-3.1-1.6-.9-1.5-1 .9-1.1 2.1 0 3.1.8 4.3 3.1zm76.2.3c-.6 3.7.4 5.1 3.8 5.8 1.4.2 2 1.1 2 2.8v2.5l-28 .2c-22.6.2-27.6 0-26-1 1.4-.9 8.7-1.2 26-1.2 20.5 0 24-.3 24-1.5 0-.9-.8-1.4-2-1.3-1.1.2-3.1 0-4.5-.3l-2.5-.6L89 773c1.4-1 2.5-2.5 2.6-3.2.3-3.3.5-3.8 1.5-3.8.8 0 1 1.2.6 3.4zm279.1-2.5c.6.1 1.2 1.2 1.2 2.5 0 2.3 5 7.6 7.1 7.6.6 0 .8.4.5.8-.5.8-9.8.7-24.1-.1-4.6-.3-5-.5-5.3-3.2-.3-2.6-.2-2.7 2.5-2.1 6.3 1.5 16 1.9 16.8.7.4-.7.5-1.5.1-1.8-.9-.9-9.7-2.4-15-2.6-2.7-.1-5.1-.7-5.3-1.3-.3-1 10.4-1.2 21.5-.5zm109.7 1c.8 1.4-.7 2-3.7 1.4-1.5-.3-2.5-.9-2.2-1.4.7-1.2 5.1-1.2 5.9 0zm-143.7 3.3c2.4 1.1 4.6 2.7 4.9 3.5.9 2.2-3.4 6-8.2 7.2-4.6 1.2-16 1.3-20.9.2-5-1-4.3-2.9 1.4-3.7 5.4-.7 6.7-1.6 4.7-3.2-.8-.6-3.6-.6-7.9 0-8.3 1.1-23 .7-23.4-.7-.2-.6 1.2-1.8 3.2-2.8 2.6-1.3 6.2-1.7 14.7-1.8 6.2-.1 12.3-.5 13.7-1 3.8-1.2 12.9-.1 17.8 2.3zm158.5-2.2c-1.2.5-3.4.5-5 0-2.4-.7-2.1-.8 2.2-.9 3.8 0 4.5.2 2.8.9zm-361.8 3c5.7 2.5 5.7 4.2-.3 8.5-3.9 2.6-5.3 3-12.6 3.3-8.8.4-17-1.2-16.3-3.1.2-.7 2.1-1.4 4.3-1.7 2.6-.3 3.9-1 3.9-2 0-1.1-1.2-1.5-4.7-1.5-8.3 0-8.6-3.9-.3-4.8 11.6-1.1 21.4-.7 26 1.3zm147.5 4.1l2.2 3-10.3-.1c-16.3-.2-16.9-.1-16.9 1.4 0 1.4 2.8 2.9 4.6 2.5.5-.1 2.7 0 4.9.1l4 .2-3.5 1c-1.9.5-3.9 1.4-4.4 1.9-1.8 1.7-4.2.9-7.2-2.2-1.6-1.7-3.7-3.5-4.6-4-2.7-1.4-7.5 1.5-9.2 5.6-.8 1.9-2.2 3.5-3.1 3.5-1.3 0-1.4-.4-.5-2 .6-1.1.8-2.5.5-3-.3-.5.6-1.2 2-1.6 2.2-.5 2.5-1.1 2.1-3.1l-.7-2.4 16.8.2c16 .1 16.8 0 18.1-2 1.9-2.8 2.7-2.7 5.2 1zm210-1.1c0 .5-.4 1-1 1-.5 0-1-.5-1-1 0-.6.5-1 1-1 .6 0 1 .4 1 1zm-317.5 4.4c1.6.8 7.8 1.7 15.1 2.1 7.7.5 12.1 1.1 11.8 1.7-.4.7-3.6.7-8.8.3-4.4-.5-11.1-.8-14.8-.9-6.4 0-6.8-.2-6.8-2.3 0-2.7 0-2.7 3.5-.9zm292.7-.8c.3.3.4 1.3.1 2.2-.3 1.5-1.3 1.7-6.6 1.1-3.4-.3-7.8-1.3-9.7-2.1l-3.5-1.6 9.6-.1c5.3-.1 9.8.2 10.1.5zM148 782.5c0 .8-.9 1-2.4.8-1.8-.4-2.6 0-3.1 1.6-.5 1.7-1.5 2.1-4.7 2.1h-4l4.8-3.9c4.1-3.3 5.2-3.7 7.1-2.8 1.3.6 2.3 1.6 2.3 2.2zm18.3 4.7c-1.5 3.1-4.3 4.1-9.4 3.6-3.2-.3-3.4-.5-3.1-3.8.7-6.4 4.2-8.3 4.3-2.3 0 3.3.1 3.5.9 1.5.6-1.2 1.8-2.2 3-2.2 1.1 0 2.5-.9 3.2-2 1.3-2 1.3-2 1.9.2.3 1.3 0 3.5-.8 5zm138.2-6.2c.7 1.2-.4 1.4-6.3 1-2.7-.1-5 .4-6 1.3-1.3 1.1-2.8 1.3-6.2.7l-4.5-.7 4.1-.2c2.3 0 4.7-.8 5.4-1.6 1.4-1.7 12.5-2.1 13.5-.5zm47.3 1.3c1.3-.8 4.1-.9 9.7-.2 4.3.4 14 .9 21.4.9 13.1.1 40.9 1.5 36.4 1.8-1.2.1-2.4.6-2.8 1.1-.3.5-3.8.8-7.8.5-3.9-.2-19.6-.4-34.9-.4-15.2.1-27.8-.3-28.1-.7-.3-.4-.1-1.9.4-3.2.9-2.3 1-2.3 2.4-.5 1.1 1.6 1.7 1.7 3.3.7zm-314.4.6c.4.5 5.3.8 11.1.7 5.8-.1 10.7-.1 11 .2.2.2-.5 1.7-1.7 3.2-1.7 2.4-2 3.7-1.4 8.4.3 3.4.2 5.6-.4 5.6-.6 0-1-.9-1-2 0-1.4-.7-2-2.1-2-1.6 0-1.9-.4-1.4-2 .8-2.5-2-3.8-4.6-2.2-2.3 1.5-6.9-.1-6.9-2.3 0-1.3 1.2-1.5 6.9-1.3 7 .3 9.7-.6 7.1-2.2-2-1.3-11.7-1.3-12.5 0-.9 1.5-1.7 1.2-5.5-2-3-2.7-3.2-3-1.3-3 1.2 0 2.4.4 2.7.9zm196.1.1c1.4.6.5.8-3.3.8-2.9 0-5.5-.5-5.8-.9-.7-1.1 6.4-1 9.1.1zm-129.3 2.4l3.3 1.4-4 .2c-2.2.1-10.5.2-18.4.3-10.5.1-14.5.5-14.8 1.4-.4 1 4.8 1.3 23.9 1.3 23.3 0 30.1.7 24.7 2.6-1.3.4-12.4.8-24.6.9-12.2 0-22.4.3-22.8.7-1.3 1.3 6.1 1.9 26.2 2.1 11.1.2 20.5.6 20.9 1 .4.4-3.3.7-8.2.7-19.8 0-37.4 1.3-37.4 2.7 0 .7-.6 1.3-1.4 1.3-.7 0-1.9.7-2.6 1.5-.7.8-2.1 1.5-3.2 1.5-1.7 0-1.7-.3.7-3.7 2.9-4.3 3.2-9.4 1-13.7-.8-1.5-1.5-3.2-1.5-3.6 0-1.5 34.5-.2 38.2 1.4zm48.6-1.3c-.2.6-.8 1-1.3 1s-1.1-.4-1.3-1c-.2-.6.4-1.1 1.3-1.1s1.5.5 1.3 1.1zm298.6-.5c2.7 1 1.8 2.2-2.3 2.9-6.9 1.2-8.1 5.6-2.1 7.7 2.7.9 3 1.4 2.5 3.7-.3 1.5-.1 4 .4 5.4.7 1.7.7 2.7.1 2.7s-1-.4-1-1c0-.5-3.3-.7-8.2-.3-13.3.9-24.8-3.4-24.8-9.3 0-2.6 5-7.1 8.8-8 1.5-.3 5.2-1.4 8.2-2.4 5.4-1.8 15.4-2.6 18.4-1.4zm-198 2.9c2 3 2 3.5 0 3.5-1.8 0-4.3-2.7-4.4-4.8 0-2.1 2.7-1.3 4.4 1.3zm88.4.2c.3 1-2.2 1.3-10.4 1.3-12.6 0-13.3-1.7-.9-2.3 10.5-.4 10.8-.4 11.3 1zm122.2-.5c0 .6.8 2 1.8 3.1 1.7 1.9 1.6 2-3.3 1.2-2.7-.4-5.1-.8-5.3-1-.2-.2.1-1.3.8-2.4 1.1-2.2 6-3 6-.9zm-266.7 1.1c4.8.1 8.7.6 8.7 1.1 0 1.2-32.2-.3-33.5-1.5-.7-.7 1.9-.8 7.5-.4 4.7.3 12.4.7 17.3.8zM317 787c2.1.7 1.8.8-1.8.9-2.6.1-4.1-.3-3.7-.9.7-1.1 1.9-1.1 5.5 0zm-101 1.6c0 .2-1.6.4-3.5.4s-3.5-.4-3.5-.8 1.6-.6 3.5-.4c1.9.2 3.5.6 3.5.8zm70.4-.5c8.3 1.5 13.6 4.3 13.6 7.3 0 3.2-1.9 4.5-9.1 6.2-7.7 1.8-27.3 2.8-31.4 1.6-3.7-1-4.4-3.7-1.6-6.3 1.2-1.1 2.1-2.4 2.1-2.9 0-.6.7-1 1.5-1s2.3-.9 3.3-2.1c3.5-3.7 11.1-4.7 21.6-2.8zm18.6 0c-2.8.5-4.8.5-5.4-.1-.7-.7.9-1 4.5-.9l5.4.1-4.5.9zm-83.2.6c-1 .2-2.6.2-3.5 0-1-.3-.2-.5 1.7-.5s2.7.2 1.8.5zm170 1.8c1.6 1.6-6.9 2.5-28.4 3-36.8.9-58.4 1.2-58.4.9 0-.1-.2-.9-.5-1.7-.5-1.2 2.5-1.3 19.7-.9 16.6.3 20.9.1 23.8-1.1 2.9-1.3 7.1-1.5 23.5-1.1 10.9.3 20.1.7 20.3.9zm12 1.3c.3 1-.6 1.2-3.4 1-2-.2-3.9-.9-4.2-1.6-.3-1 .6-1.2 3.4-1 2 .2 3.9.9 4.2 1.6zm51.7-.7c1.1 1.7.2 1.8-3 .4l-3-1.3 2.7-.1c1.5-.1 3 .4 3.3 1zm-329.2.6c-.7.2-1.9.2-2.5 0-.7-.3-.2-.5 1.2-.5s1.9.2 1.3.5zm284.2.3c-.3.5-1.2.7-2 .3-2.1-.7-1.9-1.3.6-1.3 1.1 0 1.8.4 1.4 1zm-256.8 3.1l6.5 3.1 2.5-2.4c2.2-2 3.4-2.3 11.3-2.3 7.2 0 9.2.3 10.9 1.9 2.9 2.6 2.7 4-1.1 8.1l-3.3 3.5-15 1.4c-8.2.7-20.3 1.5-26.7 1.6l-11.8.1-1.7-3.5c-3-6.3 1-10.8 11.5-13.1 8.5-1.9 9.8-1.8 16.9 1.6zm53.3-2.2c3.3.1 4.1.4 3 1.1-2.3 1.5-17.5 1.3-18.8-.3-.8-.9.3-1.2 5.1-1 3.4.1 8.2.2 10.7.2zm48 0c0 .5-.7 1.1-1.5 1.5-1.5.5-2-.5-.8-1.7.9-1 2.3-.9 2.3.2zm-29.2 1.7c-1 1-2.3 1.4-3.7.9-3.4-1-2.4-2.5 1.6-2.5 3.4 0 3.6.1 2.1 1.6zm15.6.6c2.6 3.7 1 4.2-6.6 2.1-3.9-1-1.6-3.8 3.4-4.2.9 0 2.4.9 3.2 2.1zm169.4 4.3c-.7.7-17.4.9-18.5.2-.5-.3-2.3-.3-3.9.2-1.6.4-4.3.4-6.1.1-1.7-.4-3.5-.4-4 .1-1.3 1.3-72.3 1.3-73.6 0-.6-.6-.9-1.2-.6-1.5.5-.5 75.9-1.9 90.9-1.7 6.4.1 12.2-.3 13-.8 1.1-.8 1.7-.6 2.4.9.5 1.1.7 2.2.4 2.5zM63 798c0 .5-.4 1-1 1-.5 0-1-.5-1-1 0-.6.5-1 1-1 .6 0 1 .4 1 1zm155-.1c0 .4-1.1.6-2.5.3-1.4-.2-2.5-.6-2.5-.8 0-.2 1.1-.4 2.5-.4s2.5.4 2.5.9zm12.4 2.6c1.8 1.4 1.7 1.5-2.2 1.5-3.9 0-5.1-.8-3.5-2.3 1.1-1.1 3.7-.7 5.7.8zM117 802c0 1.2-10.2 1.2-17.5 0-4.1-.6-3.1-.8 6.3-.9 6.9 0 11.2.3 11.2.9zm-61.9 4c.8 0 1.9.4 2.5 1 .5.5 5.9 1.2 11.8 1.5 6 .2 11.1.7 11.4 1 .5.4-3.9.8-7.3.7-.5 0-6.7-.4-13.7-.7l-12.7-.7 1.5-3c1.4-2.8 1.7-2.9 3.3-1.4 1 .9 2.4 1.6 3.2 1.6zm146.9-2.1c0 .9-8.9.5-9.8-.4-.3-.3 1.8-.5 4.6-.5 2.9 0 5.2.4 5.2.9zm214 .6c1.1 1.3.5 1.5-4.9 1.5-7.2 0-8.2-1.7-1.3-2.3 2.6-.2 4.8-.4 4.8-.5.1-.1.7.5 1.4 1.3zm-99 .4c1.5.1 2 .5 1.5 1-.6.6-9.9 1.1-20.7 1.3-10.8.2-19.4.1-19.1-.2 1.7-1.8 19-2.7 38.3-2.1zm55 .2c0 .5-10.3.8-25.2.7-13.9-.1-22.1-.4-18.3-.7 12.1-1 43.5-1 43.5 0zm31-.3c0 .4-5.3.8-11.7.9-7.6.1-11.2-.1-10.3-.7 1.8-1.2 22-1.3 22-.2zm-283.3 2.4c.7.6 1 1.4.7 1.9-.7 1.3-4.8 1.1-6.1-.2-.6-.6-6-1.2-12.4-1.3-21.3-.5-21.5-.6-19.9-1.6 1.9-1.3 36-.2 37.7 1.2zm137.3-.7c3.4 1.3 3.4 1.3-4 1.4-7 0-7.3-.1-5-1.4 3-1.7 4.5-1.7 9 0zm-20.1 1.1c.2.2-2.1.4-5.3.4-3.7 0-5.5-.4-5.1-1 .6-1 9.2-.4 10.4.6zm-45.4.4c.3.5-.3 1-1.4 1-1.2 0-2.1-.5-2.1-1 0-.6.6-1 1.4-1 .8 0 1.8.4 2.1 1z"/><path d="M186.2 731.3c-.6.7-1 2.6-.9 4.2.2 2.7-.2 3-3.1 3.5-4.1.6-4.1 2.2 0 3.6 3.1 1 3.3 1.3 3.4 6.5.1 3 .2 5.8.4 6.4.1.5.2 2.9.1 5.2l-.1 4.3h-4c-4.9 0-5.5 2.4-.9 3.4 3.5.7 4.9.1 4.9-1.8 0-.8.8-1.6 1.9-1.9 1.3-.3 2-1.7 2.4-4.8.5-4.2.2-21.6-.5-26.8-.4-2.9-2-3.7-3.6-1.8zM246.5 144c-.3.5.1 2 1 3.4 1 1.5 1.5 4 1.3 6.3l-.3 3.8-5.8.3c-3.6.2-6.4-.2-7.3-.9-1.8-1.4-2.9-.5-3.8 3.2-.8 3.5.1 4.1 3 2.2 2.9-1.8 12.2-1.2 13.6.9 1.5 2.4.9 10.6-.8 11.6-1.8 1-1.2 1.6 2.7 2.6 3.6.8 5.8-1.7 4.1-4.5-1.6-2.5-1.5-8.1.1-10.2 1-1.5 2-1.6 7.2-.7 3.3.5 6.3 1 6.8 1 .9 0 1-6.4 0-7.3-.3-.4-1.4 0-2.4.9-1.2 1.1-3.2 1.4-7 1.2l-5.4-.3V143h-3.2c-1.7 0-3.5.4-3.8 1zM228.7 217.6c-.3.4.3 1.4 1.3 2.3 1.7 1.4 2 3.2 2.2 16.4.2 13.1.1 15-1.5 16.2-2.9 2.1-2 2.5 5.7 2.5 7.6 0 9.7-.9 7.2-2.9-2-1.7-.4-8.5 3.1-13.5 4.8-6.8 6.1-6.3 18.1 6.7 3.5 3.7 6 7.2 5.6 7.8-1.2 2 2 2.8 8.1 2.2 7.1-.7 7.4-.9 5-2.7-1.6-1.1-1.8-3.2-2.1-18.2l-.3-16.9-2.8-.1c-1.5-.1-3.9.2-5.3.6-2.1.6-2.2.9-.7 1.5 1.3.5 1.7 1.9 1.8 5.9 0 2.8.4 7.5.8 10.3.4 2.9.4 5.3.1 5.3-.9 0-13.2-13-15.1-16-2.1-3.2-4-2.3-10.9 5.5-3 3.3-5.7 6.1-6.2 6.3-.4.2-.8-3.2-.8-7.5 0-12-.2-12.3-6.9-12.3-3.2 0-6 .3-6.4.6zM195 227c0 1.1 1.9 1.7 8.3 2.5 4 .5 5.7.4 5.7-.4 0-1.5-1.2-1.8-8.2-2.4-3.2-.3-5.8-.2-5.8.3zM256 264c-1.1 2.7-1.4 2.9-2.5 1.4-1.4-2-3.5-1.1-3.5 1.5s2.1 4.3 3.7 2.9c1.1-.8 2-.5 4.1 1.5 3 2.9 7.7 3.6 11.2 1.7 1.3-.7 2.1-.7 2.5 0 1.2 1.9 3.5 1 3.5-1.4 0-3.4-2.1-4.9-4.6-3.2-5.9 4-11.4 2-11.4-4.2 0-4-1.4-4.1-3-.2zM287.4 265.5c-.7 3-.1 4 2.1 3.2 2-.8 2-5.7 0-5.7-.8 0-1.7 1.1-2.1 2.5zM234.5 265c.3.5 1.7 1 3.1 1 1.4 0 2.2-.4 1.9-1-.3-.6-1.7-1-3.1-1-1.4 0-2.2.4-1.9 1zM228 267.8c0 1 1.1 2.9 2.5 4.2 2.2 2.1 2.9 2.3 5.5 1.3 2.3-.9 3.2-.8 4.1.3 1.5 1.8 6.3 1.8 7.9-.1 1.6-1.9.5-3.4-2-2.8-1.4.4-2 0-2-1.1 0-1.3-1.1-1.6-5.9-1.6-3.3 0-6.3-.5-6.6-1-1-1.7-3.5-1.1-3.5.8zM280.6 268.6c-2 1.1-2.5 1.9-1.8 2.6 1.2 1.2 6.2-1.4 6.2-3.2 0-1.3-1-1.2-4.4.6zM199.5 306.4c-3.6 2.6-.1 12.7 5.3 14.7 4.4 1.7 7.2-.2 7.2-5 0-4.3-.3-4.7-6.3-8.6-4.5-2.9-3.9-2.8-6.2-1.1zm8.5 9.8c0 1.3-2.2.9-4.2-.9-3.2-2.8-2.2-4.6 1.2-2.1 1.7 1.2 3 2.5 3 3zM201.6 338.9c-2.6 2.7-2.7 3.1-1.6 7.2 2.6 9.9 3.3 11.1 7.9 13.1 5 2.1 6.6 1.4 7.6-3.2.9-3.9-1.6-9.2-5.9-12.5-2-1.5-3.6-3.6-3.6-4.6 0-3-1.5-3-4.4 0zm6.7 9.6c4 3.7 4.8 6.5 1.8 6.5-2.3 0-3.6-1.5-5.6-6.3-1.9-4.6-1-4.6 3.8-.2zM250.5 319.1c-.4.6-.4 1.3-.1 1.6.8.8 3.6-.5 3.6-1.7 0-1.3-2.7-1.3-3.5.1zM247 324.5c-1 1.2-.9 1.6.3 2.1 1.7.6 5.7-1.2 5.7-2.6 0-1.6-4.6-1.2-6 .5zM248 336.2c-2.4.9-2.5 1-.5 2.4 1.7 1.2 2.1 1.2 3.4-.1 2.1-2.1.3-3.6-2.9-2.3zM256 349c0 .5.5 1 1 1 .6 0 1-.5 1-1 0-.6-.4-1-1-1-.5 0-1 .4-1 1zM256.4 362.1c-3 1.1-3.7 2.5-2.4 4.9 1.3 2.5 3.8 2.6 5.6.2 2.9-3.7 1-6.7-3.2-5.1zM257 373.1c0 .5.5.7 1 .4.6-.3 1-.8 1-1.1 0-.2-.4-.4-1-.4-.5 0-1 .5-1 1.1zM256 377c0 .5.7 1 1.5 1s1.5-.5 1.5-1c0-.6-.7-1-1.5-1s-1.5.4-1.5 1zM256.5 382.9c-.6 1.1.9 2.3 1.9 1.4.9-.9.7-2.3-.3-2.3-.6 0-1.2.4-1.6.9zM255.8 389.1c-3.2 1.8-1.7 7.9 1.9 7.9.7 0 2-1.4 2.8-3.1 2.4-4.6-.4-7.4-4.7-4.8zM257.5 406.1c-1 1.5.3 2.5 1.6 1.2.7-.7.7-1.3.1-1.7-.6-.3-1.4-.1-1.7.5zM280.5 415c-.3.5.3 1 1.4 1 1.2 0 2.1-.5 2.1-1 0-.6-.6-1-1.4-1-.8 0-1.8.4-2.1 1zM232.3 415.7c-2.1.8-1.5 3.2 1 3.8 3.8.9 11.1-.8 11.5-2.8.3-1.5-.5-1.7-5.5-1.6-3.2 0-6.4.3-7 .6zM229.8 421.7c-3.3.3-4.8.9-4.8 1.8 0 2.1 1.9 2.9 8 3.6 4.6.5 4 .6-4.2.8-9.4.1-12.3 1-10 3.3.6.6 4.8 1.2 9.5 1.5 7.8.5 8.6.4 10.7-1.7 1.3-1.3 2-2.9 1.7-4.1-.3-1 .1-2.3.9-3 .8-.6 1.1-1.5.8-2-.5-.9-3.1-.9-12.6-.2zM262.5 430.9c-.7 1.2 1.2 2.4 2.5 1.6 1.1-.7.4-2.5-1-2.5-.5 0-1.1.4-1.5.9zM254.7 443.7c-1.7 1.6 1.3 2.3 10.4 2.3 7.2 0 9.9-.3 9.9-1.3 0-.9-2.8-1.3-9.9-1.4-5.4-.1-10.1 0-10.4.4zM354.2 493.9c-4.5 4.2-4.3 9 .7 11.6 2.4 1.2 3.1 1.1 5.9-.7 3.8-2.3 4.1-5.3 1.2-9.1-1.1-1.4-2-3-2-3.6 0-2-2.5-1.2-5.8 1.8zm4.4 5.6c.7 2.9.1 4.1-1.5 3-1.4-.8-1.4-5.5-.1-5.5.5 0 1.2 1.1 1.6 2.5zM275.2 482.2c.5 1.5 3.7 1.8 4.1.3.1-.6-.9-1.2-2.2-1.3-1.6-.3-2.2.1-1.9 1zM285 482c-.8.5-1.2 1.2-.9 1.5.8.8 3.9-.5 3.9-1.6s-1.1-1.1-3 .1zM302 566.6c-3.5 3.2-4 4.2-4 7.9 0 7.9 6.9 13.2 13 10 4-2.1 3.8-4.8-.6-9.7-3.1-3.4-3.5-4.5-3-7.3.9-4.8-.7-5.1-5.4-.9zm5.2 14.6c-1.7 1.7-4.2-.9-4.2-4.4v-3l2.6 3.2c2 2.3 2.4 3.4 1.6 4.2zM300.1 598.1c-1.7 2.3-3.1 4.9-3.1 5.6 0 2.8 3.3 8.5 5.5 9.5 3.3 1.5 8.7-.3 10.5-3.6 1.5-2.7 1.4-2.8-2.7-6.4-2.3-2-4.3-4.8-4.5-6.1-.5-3.9-2.5-3.5-5.7 1zm6.2 7.7c2.3 2 2.2 4.2-.3 4.2-2 0-4-2.7-4-5.5 0-1.7 1.1-1.4 4.3 1.3zM302.8 686.6c-3.2 1.7-4.8 4.3-4.8 7.8 0 1.9 1 3.1 4.3 5.1 5.2 3 6.8 3.1 9 .7 2.4-2.6 2.1-5.5-.8-8.2-1.4-1.3-2.5-3.4-2.5-4.7 0-2.6-1.4-2.8-5.2-.7zm3.4 6.1c1.8 1.6 2.5 6.3 1 6.3-2 0-5.2-3.4-5.2-5.6 0-2.8 1.6-3.1 4.2-.7zM261.6 515.2c-2.1 2.9-2 4.8.2 4.9 2.2.1 7.6 6.5 6.2 7.4-.6.3-1.8-.7-2.8-2.4-.9-1.7-2.3-3.1-2.9-3.1-2 0-1.5 4.5.8 7.4 1.7 2.2 2.8 2.7 5.8 2.4 3.4-.3 3.6-.5 3.9-4 .3-3-.2-4.3-2.4-6.5-1.5-1.4-3-3.8-3.4-5.2-.9-3.4-3.4-3.8-5.4-.9zM230.6 542.9c-.9 1-2.1 3.4-2.7 5.4-.8 2.9-.6 4.1 1.1 7 1.2 2.1 3.2 3.8 4.8 4.2 1.5.4 3.5 1.3 4.4 2.2 1.5 1.3 1.8 1.2 3.3-1.1 2.4-3.7 1.2-7-3.8-10.3-3.1-2.2-4.2-3.6-4.2-5.6-.1-3.6-.9-4.1-2.9-1.8zm7.4 12.3c0 1.3-2.4.9-4.8-.8-3.4-2.4-2.6-3.6 1.3-1.7 1.9.9 3.5 2 3.5 2.5zM206.4 649.5c-3.8 3.8-2.8 10.6 1.9 12.4 6.3 2.4 8.5 2.3 10.2-.3 1.6-2.5 1.6-2.8-.9-7.1-1.5-2.5-3.3-4.5-4.1-4.5-.8 0-1.5-.4-1.5-.9 0-2.1-3.3-1.9-5.6.4zm6.3 5.7c3 2.8 2.9 4.8-.2 4.8-2.4 0-4.5-2.5-4.5-5.4 0-2.2 2-2 4.7.6zM206.6 677.6c-1.6 2-2.9 4.1-2.9 4.8-.1 4.1.8 5.8 4.8 9.1 3.5 2.8 5.1 3.6 7 3.1 5.5-1.4 5.1-7-.9-12.5-1.6-1.5-2.6-3.5-2.6-5.3 0-3.8-1.9-3.5-5.4.8zm6 8.4c1.5 2.2 2.4 4.3 2 4.7-1.2 1.2-6.1-3.4-6.4-6-.5-3.9 1.4-3.3 4.4 1.3zM235.2 682.3c-1.2 1.3-2.2 3-2.2 3.8 0 1.8 6.3 8 10.8 10.5l3.4 1.9 1.9-2.4c1.3-1.6 1.7-3.1 1.3-5-.9-3.7-1.2-4-4.9-5.5-1.8-.8-3.8-2.4-4.5-3.5-1.4-2.7-3.1-2.7-5.8.2zm9.6 7.6c1.4 1.7 1.6 3.1.4 3.1-1.5 0-8.2-6.2-7.7-7.1.7-1 5.2 1.6 7.3 4zM458.9 510.5c1.7 2 3.1 4.5 3.1 5.5 0 1.1.7 2 1.5 2 1 0 1.5-1 1.5-2.7 0-3.2-4.5-8.3-7.3-8.3-1.7 0-1.5.5 1.2 3.5zM430.5 521.1c-.8 1.2 1.1 2.9 3.3 2.9 1.9 0 1-3.4-1-3.8-.9-.2-1.9.2-2.3.9zM462.2 524.2c-.7.7-1.2 2-1.2 3.1 0 2.4 3.3 1.9 3.8-.7.5-2.4-1.1-3.9-2.6-2.4zM419 533.8c0 1.2 4.4 5.2 5.8 5.2 1.8 0 1.4-2.5-.6-4.3-1.9-1.8-5.2-2.3-5.2-.9zM356.6 566.7c-2.4 2.5 1.6 9.9 7.1 13 4.8 2.7 9.8 3.4 9.8 1.3 0-.9-1.1-1.6-3-1.8-3.6-.4-7-3.4-9.6-8.4-2-3.9-3.2-5.1-4.3-4.1zM134 727.4c0 1.2 1 1.7 3.8 1.8 4 .2 7.6.4 16.4.9 3.6.3 6.1 0 6.9-.8.7-.7 1.1-1.5.8-1.7-.2-.2-6.6-.7-14.1-1.1-12.4-.7-13.8-.6-13.8.9zM142 733c0 1.9 4.2 3.1 10.7 2.9 6.7-.2 9.8-1.3 8.7-3-.7-1.2-19.4-1.2-19.4.1zM143.4 750.1c-1.1 1.9.9 2.7 8.9 3.1 6.3.4 8 .2 8.4-.9.3-.8 0-1.9-.8-2.4-2-1.3-15.6-1.1-16.5.2zM91 743c0 .5.5 1 1 1 .6 0 1-.5 1-1 0-.6-.4-1-1-1-.5 0-1 .4-1 1zM302.7 743.6c-.4.4-.7 1.4-.7 2.1 0 1.1 1.6 1.3 7.3 1.1 5.6-.2 7.2-.6 7.2-1.8 0-1.2-1.5-1.6-6.5-1.8-3.6-.2-6.9 0-7.3.4zM222.5 760c-.5.8-.1 1.8 1 2.6 1.4 1 5.9 1.3 18.4 1.1 14.9-.2 16.6-.4 16.9-2 .3-1.5-.8-1.7-12.5-1.7-7 0-15.1-.3-17.9-.6-3.6-.5-5.4-.3-5.9.6zM73.5 766c-1 1.6 4.5 3.3 6.1 1.9.8-.6 1.1-1.5.8-2-.7-1.2-6.1-1.1-6.9.1zM464.5 222.3c-13.3 3.9-20.2 8.4-28.6 19-3.6 4.5-7.3 14.1-6.7 17.3.2 1.1-1.7 2.2-7.2 3.9-9.1 2.9-17.8 8.1-16.2 9.7.8.8 2.5.2 6.2-2.2 2.8-1.8 6.4-3.3 8.1-3.5 1.6-.1 3.5-.7 4.2-1.4 1.8-1.8 8.9-1.3 12.4.9 4.3 2.6 6.7 7.3 5.8 11.7-.7 3.7-3.6 7.3-5.9 7.3-2 0-4.8-3-4.2-4.6.8-2.1-1.9-3.7-3.4-1.9-1.9 2.3-.4 6.3 3.1 8.1 2.9 1.5 3.5 1.4 7.5-.1 5-1.9 4.6-1.5 7.3-8.2l2-5.1-2-4c-1.5-3-3.3-4.7-6.6-6.3-5.1-2.5-6.9-5.5-5.8-9.6.4-1.5 1-2.2 1.2-1.6 1 2.6 3.4 1.1 5.5-3.3 1.2-2.6 4.2-6.6 6.7-9 2.7-2.6 3.9-4.4 3.1-4.4-2.4 0-9 5.9-12.3 10.9-2.5 4-2.8 4.2-2.3 1.7 1.9-7.9 14.3-18.4 26.9-22.6 5.6-1.9 8.1-2.2 15-1.7 4.5.3 10.7 1.3 13.7 2.3 5 1.7 5.5 2.2 5.8 5.1.2 1.8.2 3.3 0 3.3s-2.5-.7-5.2-1.5c-5.6-1.7-13-2-12.1-.5.3.5 2.1 1 3.8 1 1.8 0 5.1.7 7.5 1.5 2.4.9 4.8 1.3 5.3 1 .5-.4.9.3.9 1.5 0 2-.3 2.1-4.7 1.4-6.5-1-18.2-.9-19.3.2-.5.5 3.1.9 8.8.9 7.2 0 10.7.5 13.5 1.8l3.8 1.8-.3-9.3-.3-9.2-6-1.9c-9.7-2.9-19.6-3.1-29-.4z"/><path d="M472.5 226.7c-6.5 1-4.1 1.9 5 2 6.6 0 9.5-.3 9.2-1.1-.4-1.1-8.9-1.7-14.2-.9zM455 232c-.8.5-1.2 1.1-.9 1.4.3.3 1.4-.1 2.5-.9 2.1-1.6.8-2-1.6-.5zM464.4 235c-3.2 1.3-4.3 3.4-1.3 2.5 4.5-1.4 6.9-2.5 6.9-3 0-.8-3.2-.5-5.6.5zM455.2 239.6c-2.1 1.5-3 3.4-1.4 3.4.4-.1 2.1-1.2 3.7-2.5 3.4-2.8 1.4-3.5-2.3-.9zM459.7 243.6c-1.6.9-2.7 1.7-2.5 1.9.8.8 6.2-1.1 6.6-2.3.5-1.6-.7-1.5-4.1.4zM446.6 246.9c-1.5 1.7-1.3 3.1.5 3.1 1.3 0 3-3.8 2-4.4-.4-.3-1.6.3-2.5 1.3zM427.8 270.6c-3.1 1.6-3.9 4.1-1 2.8.9-.4 2.9-.7 4.5-.6 3 .1 3.8-2.2 1.1-3.2-1.9-.7-1.3-.8-4.6 1zM401.3 274.9c-2.6 2.8-5.9 9.6-7.4 15.3-1 3.8-1.1 5.5-.1 8.1.7 1.8 1.2 5.3 1.2 7.6 0 9.7 8.9 21.2 20.7 26.7 6 2.7 8.5 3.3 14.5 3.4 4 .1 9.6-.3 12.4-.9 7.1-1.4 16.8-6.2 17.2-8.4.3-1.6-.2-1.5-4.7.8-13.2 6.7-24.9 7-37.5 1-10.1-4.8-15.7-11.8-17.7-22-1.1-5.7.8-20.8 3.3-26.7 2.4-5.7 1.4-8.4-1.9-4.9zM419.8 276.1c-1.8 1-2.5 3.9-1 3.9.5 0 1.9-1.1 3.2-2.5 2.5-2.6 1.2-3.4-2.2-1.4z"/><path d="M410.8 279.7c-4.6 5-6.3 10.3-3.3 10.3.9 0 2-1.2 2.5-2.6.6-1.4 2.1-4 3.5-5.8 2.2-2.9 2.4-4.6.5-4.6-.3 0-1.8 1.2-3.2 2.7zM413.2 290.3c-1.9 2.3-2.3 7.2-.8 9.2 1.9 2.7 2.8 1.5 3.2-4.4.3-5.1-.6-7-2.4-4.8zM142 292.6c-1.5 3.9-1.2 6.5 1.3 10.9 1.5 2.6 3.3 4.3 5.2 4.9 1.7.4 3.8 1.2 4.7 1.7 2.8 1.4 5.2-3.1 4.4-8.3-.9-5.3-3.1-7.8-6.7-7.8-1.8 0-3.2-.7-3.9-2-1.5-2.8-3.9-2.5-5 .6zm5.5 4.4c.3.5 1.9 1 3.5 1 2.3 0 3.1.5 3.6 2.4.8 3.5-.2 4.6-4.1 4.6-3.8 0-6.5-2.8-6.5-6.7 0-2.3 2.3-3.2 3.5-1.3zM404.7 300.7c-3 2.9 3.7 17.3 8 17.3 1.9 0 1.6-1.2-1.6-6.1-1.6-2.4-3.2-6.1-3.5-8.2-.7-3.6-1.5-4.5-2.9-3zM415.7 308.6c-1.1 1.1.5 3.4 2.4 3.4 2.2 0 2.4-1.1.7-2.8-1.3-1.3-2.2-1.5-3.1-.6zM353.2 314.2c-3.6 4.4-4.2 5.6-3.6 8.2.8 4.1 4.1 6.6 8.7 6.6 3.4 0 3.9-.4 5.3-3.6 1.4-3.5 1.4-3.8-1-7.4-1.3-2-2.6-4.7-2.8-6-.5-3.9-2.2-3.3-6.6 2.2zm5.8 8.9c0 1.2-.7 1.9-2 1.9-2.6 0-4-2.9-2.8-6l.9-2.5 2 2.4c1 1.3 1.9 3.2 1.9 4.2zM459.6 312.1c-6.7 7-17.6 9.2-27.6 5.5-6.1-2.2-6.2-2.3-6.7-1-.7 2.1 7 4.8 14.9 5.2 7.1.4 8.1.2 13.6-2.8 6.9-3.7 11.1-7.5 9.6-9-.6-.6-2 .1-3.8 2.1zM126.2 322.3c-6 7.2-1 19.7 7.7 19.7 4 0 6.1-1.4 6.1-4.2 0-3-2.2-6.7-4.4-7.4-3.5-1.1-5.6-3.5-5.6-6.6 0-3-1.9-3.8-3.8-1.5zm6.7 10.7c2 0 4.1 1.9 4.1 3.7 0 .8-1.3 1.3-3.5 1.3-4.7 0-7.5-2.9-7.5-7.8v-3.7l2.6 3.2c1.4 1.8 3.3 3.3 4.3 3.3zM421.3 323.3c-1.9 3 10.6 6.3 20.3 5.2 4.1-.4 7.2-1.4 8.6-2.6l2.3-1.9-4 .7c-6.1 1.2-17.5.7-22.3-1-2.8-1-4.4-1.1-4.9-.4zM464 331c-8.9 1.7-22.2 10.5-19 12.5.8.5 2.4-.6 4.4-2.9 5.9-6.9 18.5-8.6 27.7-3.8 9.3 4.8 13.5 13.9 11.5 24.5-.8 4.5-7.7 12.2-12.1 13.7-3 1-3.8.9-6.4-1.1-4.2-3.1-5.8-8.2-3.7-11.4 1.9-2.8 2.8-3 5.6-1.3 2.4 1.5 3.8.3 2.4-2-2-3.1-6.8-2.7-10.3.8-4.7 4.8-3.7 11.8 2.4 16.4 5.2 4 10 3.6 16.8-1.7 6.6-4.9 9.3-9.7 10.3-17.8.6-5 .3-6.4-2.1-11.3-5.4-11.1-16-16.7-27.5-14.6zM487.6 336.2c5.2 5.7 6.4 6.6 6.4 4.9 0-2.4-2.4-5.8-5.7-7.9-5.6-3.6-5.9-2.5-.7 3zM369.5 333c-.9 1.4.4 8.9 2.1 12.1 1.5 3 3.3 3.9 7.5 3.9 2.8 0 6.9-3 6.9-4.9 0-3.8-2.4-6.4-8.6-9.1-7.6-3.4-7.1-3.3-7.9-2zm10.3 7.2c.7.7 1.2 2 1.2 3.1 0 1.4-.6 1.8-2.7 1.5-2.2-.2-2.9-.9-3.1-3.1-.3-2.1.1-2.7 1.5-2.7 1.1 0 2.4.5 3.1 1.2z"/><path d="M460.8 338.5c-4.3 1.4-6.6 3-5.6 4 .2.2 2.2-.2 4.3-1 10.2-3.6 19.7 0 22.8 8.7.8 2.3 2.3 2.3 3.1.1 1-2.4-4.2-9.2-8.3-10.9-5.4-2.2-11-2.5-16.3-.9z"/><path d="M460.8 344c-3.8 2-5.4 3.7-4.5 4.7.3.3 1.8-.4 3.3-1.6 4.5-3.5 8.9-2.8 13.9 2.1 2.3 2.4 4.4 4.9 4.7 5.7.2.9 1.1 1.2 2.1.8 4.7-1.8-6.4-13.7-12.7-13.7-1.7.1-4.8 1-6.8 2zM441.5 348c-2.9 4.7-2.1 15.9 1.7 22 2.9 4.9 4.3 2.6 2.4-4.1-.9-2.9-1.6-8.1-1.6-11.5 0-6-1.1-8.7-2.5-6.4zM447.5 350c-1.9 3.7-1.9 5.9 0 6.6.9.4 1.5 1.9 1.5 3.9 0 4.6.9 6.5 3 6.5 1.5 0 1.6-.7 1.2-5.3-.2-2.8-1-6.5-1.8-8.1-.8-1.6-1.2-3.8-.8-4.8.9-2.9-1.4-2.1-3.1 1.2zM495.2 361.6c-.7 5.1-2 10.1-3.2 12.1-2.4 4.1-2.4 4.3-.5 4.3.8 0 2.2-1.1 3.1-2.4 3.7-5.8 6-22.6 3-22.6-.9 0-1.7 2.5-2.4 8.6zM405 361c0 6.3 8.2 11.4 15.4 9.6 3.7-.9 3.2-2.6-.8-2.6-5.5 0-8.1-1.5-10.1-5.9-2.1-4.9-4.5-5.4-4.5-1.1zM361.7 360.3c-2.9 2.2-6.7 9-6.7 11.8 0 1.8 1 3.6 3 5.2 4.8 4.1 6.9 4.3 9.6 1.1 3.1-3.9 3-7.5-.3-11.5-1.6-1.8-2.7-4-2.5-5 .4-2.3-1.1-3.1-3.1-1.6zm2.7 10.3c1 1.4 1.6 3.3 1.4 4.2-.5 2.7-4.1 2-5.6-1.1-2.6-5.3 1.1-8 4.2-3.1z"/><path d="M412 361.4c0 1.8 3.8 4.6 6.2 4.6 2.8 0 3.1-1.9.5-2.9-1.4-.6-2.8-1.5-3.2-2-.9-1.6-3.5-1.3-3.5.3zM479 364.1c-1.2 1.6-1.9 3.3-1.6 3.6.8.9 5.6-3.7 5.6-5.4 0-2.2-1.8-1.5-4 1.8zM144.4 365.5c-3.8 5.9-1.9 14 4.1 16.6 1.1.5 2.8 1.4 3.7 2.1 2.2 1.6 2.6 1.1 3.4-4 .6-3.9.4-4.5-2.9-7.6-2-1.9-4.2-4.9-5-6.7l-1.3-3.4-2 3zm8.1 11.8c0 .6-.8 1.3-1.7 1.5-1.9.4-5.8-3.1-5.8-5.2 0-1.1.8-1 3.8.5 2 1.1 3.7 2.5 3.7 3.2zM433 381.4c0 1.9.5 3.8 1 4.1.6.3 1 1.5 1 2.6 0 2 2.5 3.7 3.7 2.5.3-.3-.2-3.3-1.2-6.6-2-6.7-4.5-8.1-4.5-2.6zM422.7 380.7c-.4.3-.7 2.8-.7 5.5 0 3.6.4 4.8 1.5 4.8.8 0 1.5-.3 1.6-.8.8-6.9.7-10.2-.5-10.2-.7 0-1.6.3-1.9.7zM478.1 390.8c-.8.3 1.3 3 6.1 7.7 5 4.8 8.8 9.6 11.4 14.4 3.3 6.3 3.9 6.9 4.2 4.7.5-3.9-5.5-14.4-11.8-20.4-6.1-6-7.9-7.2-9.9-6.4zM427.5 397c-.8 1.3 1 4.4 5.2 9.1 3.5 3.9 5.3 4.8 5.3 2.8 0-1.5-7.9-12.9-9-12.9-.5 0-1.2.4-1.5 1zM447 432.2c0 .1-.2 5.9-.3 12.8-.3 11.6-.6 13-3.4 19.2-1.8 3.7-4.3 7.4-5.7 8.3-3.1 2-3.4 3.5-.7 3.5 2.9 0 8.6-7 11.1-13.6 3.5-9.2 3.6-29 .2-30.2-.6-.2-1.2-.2-1.2 0zM496.1 459.5c-1.9 5.5-4.5 11.4-5.8 13.1-2.7 3.6-2.8 4.4-.8 4.4 3.8 0 11.1-17.5 10.3-24.5-.2-2.3-1-.9-3.7 7zM134 476.2c-2.5 4.2-2.6 9.9-.2 12.1 1 1 2.2 1.7 2.7 1.7s1.6.7 2.6 1.6c1.4 1.2 2.2 1.3 3.9.4 1.7-.9 2.1-1.9 1.8-5.3-.3-3.8-.7-4.4-4-6-3.7-1.7-4.2-2.4-3.9-6 .3-2.6-.7-2.1-2.9 1.5zm7.8 10.1c.3 1.5 0 1.5-3 .3-1.8-.8-3.4-2.2-3.6-3-.3-1.5 0-1.5 3-.3 1.8.7 3.4 2.1 3.6 3zM496.5 481c-1.7 1.8-4.2 3.8-5.8 4.6-4.7 2.5-15 5.4-19.2 5.4-4.3 0-7.4 1.4-6.2 2.6.4.5 2.8.3 5.2-.4 2.5-.7 5.9-1.2 7.5-1.2 7.4 0 23.1-9.2 21.9-12.9-.3-.7-1.6 0-3.4 1.9zM406.2 485.2c-2.5 2.5-.6 6.5 4 8.1 2.5.9 4.2-1.7 2.2-3.4-.9-.7-2-2.3-2.5-3.6-1-2.6-1.9-2.9-3.7-1.1zM391 499.4c-7.4 2.1-10.8 4.4-13.6 9.2-1.4 2.4-2.4 4.8-2.1 5.1.4.3-.3 1.7-1.3 3.1-2.3 2.9-2.6 7-.7 9.7 2.2 2.9 3.7.8 3.7-5.1 0-3.5.6-6 1.6-7.2.8-.9 2.5-3.3 3.8-5.2 2.6-4.2 9.8-8.4 14.5-8.5 1.9 0 3.6-.6 3.8-1.3.6-1.5-3.6-1.5-9.7.2zM367.1 516.6c-3.9 5-2.9 22.5 1.3 21.1.7-.2 1-3.3.8-8.9-.3-5.4.1-9.4.8-10.8 1.9-3.5-.3-4.7-2.9-1.4zM496.9 521.6c-2.9 3.2-7.8 5.4-11.9 5.4-3.7 0-4 1.7-.4 2.6 5.4 1.4 15.4-4.3 15.4-8.7 0-2.4-.2-2.4-3.1.7zM375.6 534.9c-.4.5-.4 1.6 0 2.4.3.8-.2 1.7-1 2-3.1 1.2-1.7 4.8 3.9 10.2 7.1 6.8 11.3 8.8 18.9 8.8 10.2.1 20.1-3.7 17.6-6.8-.5-.6-.7-1.5-.3-1.8.8-.9-2-.9-6.9-.1-2.1.4-3.8 1.1-3.8 1.6 0 .6 1.6.7 4 .3 5.9-1 5 1.1-1.2 3-2.8.8-6.5 1.5-8.2 1.5-4.5-.1-10.8-3.2-16-8.1-4.7-4.3-6.2-6.9-2.6-4.7 3.8 2.4 3.8-1.7-.1-6.6-2.1-2.7-3.4-3.2-4.3-1.7zM136.8 536.7c-.9.2-2.3 1.9-3.2 3.6-3.2 6.9 2 16.2 8.8 15.5 2.8-.3 3.1-.6 3.4-4.2.3-3.2-.2-4.3-3.2-7.3-2.7-2.8-3.4-4.1-3-5.9.6-2.4.4-2.6-2.8-1.7zm3 10.4c4.7 5.2 5.1 6.3 2.1 5.4-3.1-.9-6.9-5.1-6.9-7.6 0-2.7.5-2.4 4.8 2.2z"/><path d="M384 544.8c0 1.4 3.5 4.2 5.3 4.2 2.2 0 2.2-1.9 0-3.6-2-1.5-5.3-1.8-5.3-.6zM498.4 548.4c-.3.8-.1 2.3.5 3.3.9 1.5 1 1.3 1.1-1.5 0-3.4-.7-4.2-1.6-1.8zM478.6 550.8c-.3.5-.2 2.9.2 5.3.9 5 3.5 6.5 4.7 2.7l.7-2.3.7 2.5c1 3.7 4.1 3.9 4.1.3 0-3.8-1.4-5.6-3.6-4.9-1.4.4-2.2-.1-2.9-1.6-1.1-2.4-3-3.4-3.9-2zM120.2 559.9c-.6.3-1.8 2.4-2.7 4.4-1.2 3-1.3 4.6-.5 7.7 1.1 4.2 1.8 4.9 6.8 6.6 9.7 3.4 12.3-8 2.7-12-2.7-1.2-3.5-2.1-3.5-4 0-2.8-1-3.8-2.8-2.7zm1.8 9.6c.7.8 2 1.5 2.9 1.5 2.9 0 5.5 2.5 4.7 4.5-.5 1.4-.9 1.6-1.8.7-.7-.7-2-1.2-3-1.2s-2.7-.9-3.8-2c-2-2-2.7-5-1.1-5 .5 0 1.4.7 2.1 1.5zM416.2 566.2c.3.7 1.7 1.4 3.2 1.6 2 .3 2.7 0 2.4-1-.3-.7-1.7-1.4-3.2-1.6-2-.3-2.7 0-2.4 1zM400.2 568.3c-1.5 1.8.4 7.7 2.5 7.7 1.1 0 1.3-1 1.1-4.2-.3-4.4-1.8-5.8-3.6-3.5zM485.2 570.3c-.6.6-2 4.1-3.2 7.7-1.8 5.5-3.3 7.7-9.7 14.2-4.5 4.5-9.8 8.7-13.1 10.4-5.2 2.6-6.5 2.8-18.4 3-7 .1-12.8.6-12.8 1.1-.1 1.6 11.5 2.5 20.6 1.5 7.9-.8 10-1.4 15-4.5 7.5-4.7 18.1-15.1 20.1-19.7 3.6-8.3 4.7-17.6 1.5-13.7z"/><path d="M472.6 583.8c-.8 1.5-2.3 3.6-3.5 4.6-2.6 2.4-2.7 3.6-.1 3.6 2.2 0 8.5-8.4 7.5-10-1.1-1.7-2.4-1.1-3.9 1.8zM405.5 584.3c-.8 2 2.1 7 3.8 6.4 1.9-.6 1.7-2.1-.7-5.2-2.1-2.6-2.5-2.8-3.1-1.2zM487.5 586.8c-.6.4-4 4.1-7.7 8.3-3.8 4.2-9 9.1-11.8 10.9-7.2 4.6-19.4 7.4-29.7 6.7-8.2-.6-10.3.2-6.4 2.3 5.8 3.1 27.4-.3 37-5.7 8.3-4.7 22.6-20.2 20.5-22.3-.5-.5-1.4-.6-1.9-.2zM414.3 593.6c-.3.8.2 2.1 1.3 2.9 3.7 2.7 16.4 4.7 16.4 2.6 0-1-3.5-2.1-7.1-2.1-1.4 0-4.3-1.1-6.3-2.5-3.1-2.1-3.8-2.2-4.3-.9z"/><path d="M461.9 594.8c-3.2 2.4-10.9 4.5-17.3 4.6-2.8.1-5 .6-4.8 1.1.1.6 3.5 1 7.5.9 8-.1 18.7-4.1 18.7-6.9 0-2-1.2-1.9-4.1.3zM369.5 605.1c.4 7.1 3.1 10.9 7.5 10.9 1.4 0 3.5.7 4.6 1.5 3.8 2.9 7.4.8 7.4-4.3 0-2.9-3.9-7.2-7.9-8.9-2-.9-4.6-2.4-6-3.4-1.3-1-3.2-1.9-4.2-1.9-1.6 0-1.8.7-1.4 6.1zm14.6 5.2c1.8 3.2.5 4.6-3.6 3.7-1.9-.4-4.2-1.4-5-2-1.5-1.2-2-5.1-.9-6.2 1-1 8.5 2.5 9.5 4.5zM142.5 605.4c-1.2 7.4.7 9.2 10.4 9.8 5 .3 6.8-1.4 5.7-5.6-.8-3.2-6.2-6.7-9.1-6-1.3.3-2.7-.1-3.4-1-2.1-2.5-2.9-1.9-3.6 2.8zm13 4.6c.8 1.2-5.2 1.2-8 0-1.5-.6-.8-.9 2.7-.9 2.6-.1 5 .3 5.3.9zM361.5 638.7c-1.6.9-3.3 2.1-3.7 2.7-2.7 4 1.8 11.2 6.4 10.3l2.3-.4-2.3-.8c-3.5-1.2-4.5-8.6-1.2-9.3 1.9-.3 5 4.7 5 8.2 0 2.8.9 3.3 2.8 1.4 1.8-1.8 1.4-4.5-1.4-9.4-2.8-4.8-3.5-5.1-7.9-2.7zM360.5 670.8c-1.9 1.3-4.5 6.1-4.5 8.2 0 2.7 4.9 7.7 8.2 8.5 1.4.4 4.1 0 6.2-.9 5.4-2.2 4.7-5.3-1.9-8.7-2.9-1.5-5.1-3.3-5.3-4.5-.5-2.5-1.5-3.5-2.7-2.6zm1.5 7.1c0 .5 1.6 1.5 3.5 2.1 2.7.9 3.5 1.7 3.5 3.6 0 3.1-3.5 3.3-6.7.2-2.3-2.1-3.2-6.8-1.3-6.8.6 0 1 .4 1 .9zM347.9 680.2c-.1.6-.1 9.3 0 10.6.1.7.6 1 1.1.7.6-.3 1-2.8 1-5.5s-.4-5.2-1-5.5c-.5-.3-1-.5-1.1-.3zM138.1 688.6c-2.6 3.3-2.7 8.5-.3 10.6.9.9 3.2 2.3 5.1 3.3 3.2 1.6 3.4 1.6 5.7-.6 1.3-1.2 2.4-3 2.4-3.9 0-1.8-6-8-7.8-8-.7 0-1.2-.9-1.2-2 0-2.7-1.5-2.5-3.9.6zm7.7 8.2c1.3 1.9 1.2 2.2-.3 2.8-1.9.8-4.3-.4-5.8-2.8-.6-.8-.7-2.3-.3-3.3.6-1.5.9-1.6 2.8-.3 1.2.8 2.8 2.4 3.6 3.6zM387.2 687.2c-.7.7-1.2 2-1.2 2.9 0 .9-.6 2.2-1.4 2.8-3.2 2.7 1.4 9 7.4 10.1 4.5.8 9-.9 9-3.4 0-.6-2.8-4-6.3-7.4-4.9-4.9-6.5-6-7.5-5zm5.9 8.1c5.5 2.9 6.7 6.7 2.1 6.7s-7.7-3.3-7.3-7.8c.1-1.6 0-1.6 5.2 1.1zM390.4 823.9c-2.6.9-5.6 2.8-6.7 4.2-1.7 2.3-1.8 3.2-.8 6.2.7 1.9 2 4.2 3 5.1 2.8 2.6 11.1 4.8 15.2 4.1 5.2-.9 7.3 1.4 6.3 6.9-.3 2.2-.8 4.4-1.1 4.8-.2.5-3 .8-6.1.8-5.6 0-5.8-.1-10.4-5.1-3.8-4.2-5-4.9-6.5-4.1-1 .6-1.8 2.3-1.9 4.1-.2 3.6-1.9 5.9-5.1 7.2-1.6.6-2.1 1.4-1.6 2.5.5 1.3 1.5 1.5 5.7 1 2.8-.4 10.6-.8 17.3-1 12.1-.3 18.3-1.7 18.3-4.1 0-.6.9-2 2-3 1.4-1.3 2-3.1 2-6 0-8.3-6-11.9-15.9-9.5-4.2 1-5.4.9-8.3-.6-4.2-2.1-4.8-3-4.8-7.7v-3.8l5.3.3c4.8.3 5.2.5 5.5 3 .4 3.6 2.7 5.5 4.7 3.8 1.4-1.1 4.1-8.8 3.3-9.5-.2-.1-3.5-.5-7.4-.7-5.1-.4-8.6 0-12 1.1zM342.5 823.7c-5.2.8-7.4 3.9-3.2 4.5 2.2.3 2.2.4 2.2 17.1 0 10.4.4 16.7 1 16.8 8.6 1 15.5.1 15.5-2 0-.5-1-1.1-2.2-1.3-2.1-.3-2.3-.9-2.6-6.9l-.3-6.7 6.2-1.1c9.3-1.6 12.2-3.7 13.3-9.5 1-5.7-.3-9.2-4-10.6-2.5-1-19.9-1.1-25.9-.3zm18.3 4.9c3 .8 3.9 4.7 1.7 8-1.3 2.1-2.3 2.5-5.3 2.2-3.5-.3-3.7-.5-4.4-4.7-.4-2.4-.5-4.8-.2-5.2.6-1 4.9-1.1 8.2-.3zM315 825.5c-1.3 1.6-.6 3.5 1.5 3.5 2 0 2.5 2.4 2.5 13v9.9l-3.2 1.5c-8.9 4.5-13.3.5-14.5-13-.6-7.5-.6-7.6 2.3-9.9 2.5-2 2.7-2.5 1.5-3.9-2-2.4-17.4-1.9-17.9.5-.2 1 .5 1.9 1.8 2.2 1.8.5 2 1.3 2 9.2 0 6.5.5 9.8 2 13.3 3.1 7.2 3.4 7.5 7.6 10 5.9 3.4 11.8 2.7 17.8-2.4 2.5-2.1 4.9-4.7 5.2-5.8.4-1.1.8-6.6.9-12.2.2-7.5.7-10.8 2-12.7.9-1.4 1.4-3.1 1-3.7-1-1.6-11-1.3-12.5.5zM56 826.2c-1.2.5-1.7 1.3-1.4 2.2.6 1.5-2.9 11.6-4.9 14.3-.5.7-2.2 3.9-3.7 7.1-1.5 3.2-3.9 7.7-5.4 10-1.4 2.3-2.6 4.4-2.6 4.7 0 .7 8.6.6 9.3-.2.4-.3.2-1.2-.4-1.9-.8-1-.6-2.2 1-4.6 1.1-1.8 3-5.2 4.1-7.4 1.1-2.3 2.5-4.6 3.2-5.2 1.8-1.4 8.5-1.9 9.7-.7.6.6 1.1 5.3 1.3 10.5l.3 9.5 5 .1c6.3 0 8.2-.8 6.1-2.5-2.3-1.9-2.3-28.8-.1-33.1.9-1.7 1.1-3.1.6-3.5-1.3-.7-19.7-.2-22.1.7zm9 12.3c-1.4 1.7-6 2.1-6 .4 0-.6 1.2-3.1 2.7-5.7l2.8-4.7.9 4.2c.6 3.1.5 4.7-.4 5.8zM97.6 827c-8.9 3.5-12.6 8.8-12.6 18.1 0 6.2 2.7 11.5 7.5 14.6 4.2 2.8 14.3 4 20.1 2.4 4.4-1.2 12.4-6.4 12.4-8.1 0-2.3-3.1-2.1-6 .4-3.8 3.1-9.2 4.3-12.8 2.7-1.4-.7-4.3-2.6-6.4-4.2-3.4-2.7-3.8-3.6-3.8-7.5 0-3.6.6-5.1 3.6-8.4 4.1-4.5 5.4-5 5.4-1.9 0 1.7.5 2 3.2 1.7 2.4-.2 3.8-1.2 5.6-3.8l2.3-3.5-2.6-2.2c-3.3-2.9-9.1-3-15.9-.3zM258.3 827.2c-7.7 2.3-10.6 5.8-12.3 14.5-1.5 7.4-.5 10.7 4.4 15.5 5.2 5.1 11 7.1 17.9 6.4 9.1-.9 21-7.6 18.4-10.3-.5-.4-1.4-.3-2.1.2-5.4 4-7.1 4.7-12.3 5.2-5.1.4-6.3.1-10.1-2.4-5.7-3.7-7.1-8.5-4.4-14.6 3.7-8 11.7-12.9 10.5-6.3-.5 2.3-.2 2.6 2.5 2.6 2.3 0 3.7-.8 5.6-3.3 4.6-6.1 3.1-8.1-6.4-9-3.8-.3-7.5.1-11.7 1.5z"/><path d="M126.5 827c-.3.5-.2 2.4.3 4.2.4 1.8.7 8.9.5 15.8-.2 10.3-.5 12.7-1.9 13.7-2.6 1.9 0 4.4 4 3.8 1.7-.2 6.7-.4 11.2-.4 7.7-.1 8.2-.2 12.2-3.7 6.2-5.3 3.2-7.9-3.4-2.9-2.6 2-4.4 2.5-8.7 2.5h-5.5l-.4-5.9c-.4-8-.1-9.1 2.9-9.1 1.6 0 2.7.7 3 2 1.2 4.6 5.6 1 5.1-4.2-.3-3.8-3.4-5.1-5.4-2.3-1.6 2.1-4.9 1.6-4.8-.8 0-.9.1-3.5.2-5.7l.2-4h5.5c4 0 5.6.4 6.3 1.7 1.5 2.6 4.4.9 4-2.4l-.3-2.8-12.2-.2c-7.1-.2-12.4.1-12.8.7zM203.9 836.9c-1.7 1.3-2.3 2.9-2.3 5.6 0 3.1.7 4.4 4 7.5 4.5 4.1 10.4 12.8 10.4 15.2 0 .9-1 2.2-2.2 3.1-2.8 1.8-1.8 3.2 1.6 2.3 3.9-1 4.9-3.8 3.6-9.8-1.1-5.5-.6-7.3 1.4-4.5 1.5 1.9 3.2 2.2 4.1.7.7-1.1-5.2-14-6.4-14-1.7 0-2.9 2.5-2.4 5.1.3 1.7.1 2.9-.5 2.9-1.7 0-8.2-6.6-8.2-8.3 0-2.4 1.6-2.9 3.4-1.1 1.8 1.7 4.6 1.2 4.6-.8 0-.8-.7-2.4-1.6-3.6-1.9-2.7-6.3-2.9-9.5-.3z"/><path d="M195.5 852c-2 2.2-2.3 7.4-.4 9.6 1.7 2.1 9.2 1.8 11.2-.4 2.3-2.6 2.1-4.5-.9-8.1-3-3.7-7.2-4.1-9.9-1.1zm7.1 3.5c.4.8.4 2.2 0 3-.7 1.9-3.6.8-3.6-1.4 0-3.2 2.6-4.3 3.6-1.6zM435.5 851.7c-3 .7-3.8 1.9-3.1 4.7.5 2.1 1.2 2.6 3.9 2.6 1.8 0 4.2-.6 5.2-1.4 1.8-1.3 1.8-1.5.2-4-1.7-2.6-2.4-2.8-6.2-1.9z"/></svg>