<svg version="1" xmlns="http://www.w3.org/2000/svg" width="666.667" height="1170.667" viewBox="0 0 500 878"><path d="M258.2 116.1c-2.3 1.7-4.9 2.8-5.7 2.5-2.9-1.1-28.5 4.5-38.3 8.3-4.3 1.7-5 1.7-7.5.4-2.5-1.3-3.1-1.2-6 .4-1.8 1.1-3.6 3.2-4.1 4.9-.5 1.6-1.6 4.3-2.4 6-2.3 4.7-1.1 11.3 3 17.1 1.9 2.6 4.7 6.9 6.1 9.5 2.7 4.7 2.7 4.7.6 5.8-1.1.6-3.7 1.3-5.8 1.5-4.2.4-42.5 14.2-51 18.5-3.1 1.5-10.8 5.7-17.1 9.5-6.3 3.7-16 9.2-21.5 12.3-12 6.8-26.3 20.4-30.7 29.3-4 7.8-4.1 18-.4 24.3 7.5 12.8 21.8 13.7 38.3 2.5 2.3-1.6 4.8-2.9 5.7-2.9 1.9 0 6.6 7.8 6.6 10.9 0 1.3-1.5 3.7-3.5 5.5-2.8 2.7-3.5 4.1-3.5 7.1 0 4.1 2.6 9.2 7.4 14.3l3.1 3.3-3.5 6.4c-1.9 3.6-6.8 10.7-10.8 15.8-11.7 14.8-17.5 23.3-25.5 37.7-8.1 14.5-12 24.9-13.2 34.5-.4 3.3-1.3 6.7-2 7.5-.7.8-2.8 5.3-4.5 10-1.8 4.7-4.8 10.7-6.6 13.5-1.8 2.7-4.4 7.4-5.7 10.4-3.2 6.8-2.4 9.3 5.1 16.9 5.4 5.3 5.5 5.7 5.3 10.5-.1 2.7-1.5 8.6-3.1 13-5.2 14.2-6.8 29-3.6 33.9 1 1.5 2.7 3 3.8 3.4 2 .6 2.1 1.2 1.5 10.3-.3 5.3-1.7 17.2-3.1 26.6-1.3 9.3-3 22.1-3.6 28.3-1.2 10.8-1.4 11.3-3.4 10.7-5.4-1.6-14.3-1.6-20.5 0-7.2 1.8-14.6 6.4-15.6 9.6-.6 1.9-1.2 2.1-5.3 1.5-6.4-.9-7.2-2-3.9-5.4 2.6-2.7 3.4-5.2 2.1-6.4-.3-.4-2.2.5-4.1 1.8-2 1.3-5.3 2.7-7.5 3-4.5.8-5 2.2-.8 3 1.7.4 3.2 1.5 3.6 2.6.7 2.3 4.3 3.8 9 3.8 2.1 0 3.3.4 2.9 1-.9 1.4-6.1 1.2-12.5-.5-3-.8-5.6-1.5-5.7-1.5-.2 0-.3.8-.3 1.9 0 1.5 1 2 4.7 2.6 5 .7 9.8 2.3 9.2 3-.3.2-2.5-.1-4.9-.6-4.4-1-9-.5-9 .9 0 1 6 3.2 8.7 3.2 4.6 0 14.8 5.9 13.1 7.5-.3.3-2.5-.3-4.9-1.3-2.4-1.1-7.2-2.1-10.6-2.5-5.7-.5-6.3-.3-6.3 1.4 0 1.6.7 1.9 4.6 1.9 2.8 0 6.6 1 10 2.6 4.3 2 5.4 3 5.4 5 0 1.8-.5 2.4-2.3 2.4-3.5 0-3.9-1-1.4-3 2.4-2 2.4-2.1-4.6-3.9-2.3-.6-5-.6-6.9-.1-1.7.5-3.5.7-3.9.4-.5-.3-.9.4-.9 1.6 0 1.7.4 2 2 1.6 1.1-.3 2.8-.8 3.9-1.1 1.9-.6 8.4 1.5 6.6 2-.5.2-3.6.6-6.7 1l-5.8.6v3.5c0 3.5 0 3.6 4.3 3.3 2.4-.2 4.9.1 5.6.5.7.5 1.8.3 2.4-.3 2.9-2.9 11 1.2 20.2 10.3 7.9 7.8 13 10.5 19.5 10.6 4.1 0 4.3.1 2.8 1.6-1.4 1.5-2.3 1.5-6.5.5-8.5-2.1-15.1-6-17.8-10.6-3.1-5.4-6-7.2-14.5-9.1-6-1.4-7.7-1.4-11.5-.3-3.1.9-4.5 1.9-4.5 3.1 0 1.5.6 1.7 4.4 1.2 4.9-.7 10 .2 9.1 1.6-.3.4-3.4 1.2-7 1.5-6.2.7-6.5.8-6.5 3.4 0 2.5.3 2.7 3.1 2.3 3.4-.5 13.7 1.6 14.5 3 .3.5-1.2.6-3.3.2-2.6-.4-5.4 0-8.8 1.4-4.4 1.7-5 2.4-5.3 5.1-.4 3.6.6 3.9 4.1 1.1 1.8-1.5 4-2 8.1-2 5.3 0 5.6.1 5.6 2.5 0 2-.7 2.6-4.2 3.5-7.1 1.8-9.5 3-10.8 5.6-.8 1.3-1.7 2.4-2.2 2.4-.4 0-.8.9-.8 2 0 1.9.5 1.7 5.7-1.6 8.4-5.3 12.5-6.5 23.8-6.7 9.5-.1 10.4 0 17 3.3 4.3 2.1 9.1 5.5 12.5 9 3 3 7.5 6.9 10 8.6 2.7 1.7 4.6 3.9 4.8 5.2.6 4.3-4.4 2.2-12.9-5.3-3.5-3.1-9.8-7.3-13.9-9.3-6.5-3.2-8.6-3.7-16.5-4-8.4-.4-9.7-.2-16.6 2.7-6.7 2.8-15 9.3-13.7 10.7.7.7 3.8-.7 3.8-1.7 0-1.1 8.6-5.4 15.5-7.8 4-1.4 6.5-1.6 12.6-1 9.8.9 18.3 5.1 26.6 13 3.4 3.3 7.7 6.6 9.5 7.4 1.8.8 2.6 1.4 1.7 1.5-2.3 0-10.8-4.8-14.4-8.1-1.6-1.5-5.7-4.1-9.1-5.8-10.6-5.2-22-4.4-36.6 2.9-4.4 2.2-8.4 3.7-8.9 3.4-.5-.3-.9.3-.9 1.3 0 1.6.9 1.8 10.8 1.4 19.8-.7 23.7-.4 29.1 2.3 3.8 2 5.5 3.7 8 8 4.2 7.4 12.6 13.3 20.5 14.2 3.1.4 5.8 1 6 1.3.2.3-.6 1.8-1.8 3.4l-2.2 2.7-9.8-4.9c-5.5-2.8-11.3-6.3-13-7.9-5.6-5.1-10.4-8.2-17.7-11.3-6.1-2.6-8.9-3.2-18.6-3.6-9.5-.5-11.3-.4-11.3.9 0 1 .8 1.3 2.9 1 6.4-.9 24.2 3.2 28.1 6.4.9.8 3.8 2.5 6.5 3.9 2.8 1.5 7 4.6 9.5 7 4.1 4 16.2 10.5 19.6 10.5 1.7 0 1.8 2.2.3 3.7-.8.8-1.9.6-4.1-.4-1.6-.8-5.1-2.1-7.6-2.8-3.1-.8-9.1-4.4-17.2-10.3-13.9-10-19.5-12.2-31.4-12.2-5.9 0-6.6.2-6.6 2 0 1.5.7 2 2.8 2.1 1.5 0 6.2.4 10.5.8 6.7.7 8.6 1.4 13.5 4.7 3.1 2.2 7.1 5.2 8.8 6.9 5.2 5.1 19.2 11.9 24.6 11.9 3.6.1 4.4.4 3.6 1.3-2 2.5-12.1 1.6-19.1-1.7-3.6-1.7-7-3-7.6-3-.6 0-3.5-2.1-6.5-4.8-8.2-7.1-12.4-9.3-20.6-10.8-9.9-1.8-10-1.8-10 .9 0 1.8.8 2.5 4.8 3.5 2.6.7 6.2 1.6 8.1 2.1 1.8.5 3.9 1.5 4.5 2.2.8.9.6 1-.9.5-1.1-.4-5.3-1.3-9.2-2-6.9-1.2-7.3-1.2-7.3.5 0 1.3.7 1.9 2.1 1.9 1.1 0 5.5 1 9.6 2.2 6.2 1.8 8.5 3.1 12.6 7 6.2 6 15.3 10.5 23 11.4 7.5.8 7.3 2.4-.4 2.4-7.4 0-13.2-2.5-25.6-11.3-9.4-6.7-13-8.5-17.8-8.9-2.4-.2-3.1.1-3.3 1.7-.2 1.6.7 2.5 3.4 3.8 2 1 5.7 3.5 8.3 5.7 9 7.5 21.1 12.3 31.8 12.4 7.1.1 7.3.1 7.9 2.9.3 1.6.1 3.4-.6 4.2-1 1.1-1 1.5-.1 1.5.7 0 .9.5.6 1.1-.4.6-1.3.8-2.1.5-.7-.3-1.6-.1-1.9.4-1.8 3-21.9-.5-27.1-4.6-5.1-4-13.4-9.5-13.4-8.8 0 .3-1.6-.4-3.5-1.6L0 753.8v3.1c0 2.3.7 3.4 2.8 4.5 1.5.8 3.5 2.3 4.5 3.3 1.5 1.8 4.5 3.3 15.5 7.9 1.8.8 4.9 1.4 6.9 1.4s3.4.2 3.1.5c-.6.6-10 1.5-23 2.1-8.9.5-9.8.7-9.8 2.5 0 1.7.8 1.9 9.3 1.8 5 0 11.5-.4 14.2-.9 2.8-.5 8.5-1.4 12.7-2 4.3-.6 10.8-2 14.5-3.1 11-3.4 22.2-2.9 35.8 1.5 6 2 11.6 4.3 12.5 5.1.8.7 6.7 3.3 13 5.6l11.4 4.2 13.1-.6c14.8-.6 25.3-2.5 37.5-6.9 14.6-5.2 21.3-6.8 27.5-6.8 6.1 0 18 2.4 19.9 3.9 3.3 2.7 20.2 10.3 25.7 11.6 8 1.8 19.6 1.9 27.3 0 3.2-.7 10.3-3.7 15.8-6.5 15.5-8 23.6-10.3 33.1-9.6 9.1.6 14 2.9 17.6 8.1 3.1 4.6 10.4 8 22.6 10.6 20 4.2 38.2.5 56.7-11.6 9.6-6.3 10.1-6.5 18.9-7.5 7.6-.9 10.2-.8 15.8.6 7.5 1.9 9.5 2.7 13.5 6.1 6.3 5.3 12.4 7.4 22.2 8l9.4.6v-37.4l-6-9c-3.3-4.9-6-9.1-6-9.3 0-.3 1.9-.7 4.3-1.1 6.4-1 7.7-1.5 7.7-3 0-1.2-1.5-1.4-7.3-1-11.6.7-13.8-2.8-2.5-4 7.7-.8 9.8-1.4 9.8-2.6 0-.6-3.7-.7-9.5-.3-7 .5-9.8.4-11-.6-2.4-2-1.8-3 1.8-3 5.8 0 18.7-3.4 18.7-4.9 0-1.1-1-1.2-4.7-.6-2.7.4-7.9 1-11.7 1.4-6.7.7-7.1.6-10.3-2.2-1.8-1.6-3.3-3.2-3.3-3.7 0-.4 2.1-1 4.6-1.4 2.5-.3 6.7-1.3 9.3-2.2 3.2-1.1 6.3-1.4 10.4-.9 4.6.5 5.7.3 5.7-.9 0-2.5-10-3.2-17.4-1.2-7.5 2.1-16.9 1.8-17.4-.4-.2-1.1 2.6-2.4 10.3-4.9 10.9-3.6 14.5-4.1 20.8-2.8 4.6 1 5-.7.6-2.2-5.3-1.8-11.7-1.2-22.2 2.1-9 2.9-10.2 3-12.5 1.7-4-2.2-3.6-3.4 1.2-3.5 2.5 0 7.9-1.3 12.1-2.9 7.3-2.6 7.8-2.7 15.6-1.5 4.5.6 8.3.9 8.5.7.3-.2-1.3-1.2-3.6-2.1-5.4-2.2-13.4-2-21.1.4-7.4 2.2-14.7 3-15.1 1.5-.2-.6 1.5-1.3 3.7-1.6 2.2-.4 8.4-1.9 13.9-3.4 9.6-2.6 16.2-3 21.1-1.1 1.6.6 1.5.4-.5-1.4-2.3-2.1-3.2-2.2-12.6-1.7-6.5.4-11.9 1.3-15.5 2.6-6.5 2.5-10.9 2.7-10.9.6 0-1 1-1.5 3.1-1.5 1.7 0 6.3-1.1 10.2-2.4 13.6-4.5 14.9-4.7 20-3 2.5.9 5.4 1.4 6.4 1.2 1.4-.2 1.1-.7-1.3-2.3-4.6-3.1-16.6-2.8-27.1.8-4.6 1.6-8.6 3.3-8.9 3.8-.8 1.4-4.4-2-4.4-4.1 0-2.6 1.7-3.6 10-5.8 10.7-2.9 14-3.2 18.3-1.7 4.3 1.5 5.9.3 2.5-1.9-4.2-2.6-8.9-2.8-17.3-.5-12.4 3.3-12.5 3.3-12.5 1.7 0-1.4 3.7-3.2 11-5.4 1.4-.4 4.1-.8 6-.8 4.2-.1 4.9-2.6 1-3.7-1.6-.4-1.9-.7-.7-.8.9-.1 1.7-.8 1.7-1.6 0-3.8 4.2-.8 13.6 9.6 4 4.4 9.4 7.6 9.4 5.6 0-.8-1.8-2.7-4-4.2s-4-3.2-4-3.7c0-1.7-8.5-10-12.3-12-4.6-2.3-15.9-4.8-18.6-4.1-2.3.6-3.3-.8-2.1-2.7 1.7-2.7 14.4-1.9 22.5 1.4 8.6 3.5 8.9 3.7 11.5 9 2.2 4.6 5.6 8.3 6.6 7.3.4-.3-1.1-4.1-3.2-8.3-2.8-5.5-5.2-8.7-8.7-11.5-4.8-3.8-12.6-6.9-17.6-6.9-1.4 0-3.3-.5-4.1-1-1.1-.7-.1-1 3.5-1.1 7.2-.2 8.5 0 13.5 1.8 4.2 1.5 14.6 8.3 16.2 10.7.5.6.8.2.8-1 0-3-7.9-10-14.8-13.2-4.9-2.3-7.1-2.6-16.1-2.7-6.9 0-10.6-.4-10.8-1.2-.5-1.5 1.1-2.4 9-4.9 10.1-3.3 13.7-2.1 25.5 8.3 6 5.4 7.2 6.1 7.2 4.4 0-1.4-3.2-5.3-8.4-10.6l-8.5-8.5h-5.8c-3.2 0-7.4.4-9.3.9-8.2 2.1-9 2.2-9 .7 0-2.8 4.7-4.6 11.8-4.6 8 0 13 1.4 15.5 4.3 2.7 3.1 13.1 9.7 13.5 8.6.7-1.9-5-8-11.1-11.9-3.4-2.2-5.9-4-5.6-4 1.9 0 9 3.7 12.7 6.7 3.4 2.8 4.2 3.1 4.2 1.6-.1-1.8-3.3-4.5-9.8-8.4-1.8-1.1-3-2.4-2.7-2.9 1-1.6 2.1-1.2 7.4 3l5.1 4v-13.6c0-11.3-.3-14.1-1.6-15.5-1.5-1.7-1.5-2 0-4.3 1.8-2.9 2.3-17.4.6-20.6-.7-1.3-.7-2.1 0-2.5.6-.4 1-5.5 1-12V534l-2.2.9c-3.1 1.2-6.8-.4-6.8-2.8 0-1.1.5-3.2 1-4.6l1-2.7 3.5 2.2c4.6 2.8 4.8.5.4-3.4-2.7-2.5-3-3.3-2.6-6.5 1.9-11.8 2-14.1.6-14.1-.8 0-2.1 1.5-2.9 3.2-.8 1.7-2.3 3.6-3.3 4.2-1.5.9-2.3.6-4.2-1.8l-2.3-2.9-1.2 2.2c-.8 1.6-1.7 2-3.2 1.5-1.8-.5-2-.3-1.5 1.8.6 2.1.1 2.6-2.7 3.6-1.9.7-4 1.1-4.6 1-2.2-.5-2.2 2-.1 2.7 2.7.8 2.6 2.3-.2 5.6-4.1 4.9-9.7 6.2-9.7 2.4 0-.9 1.2-3.8 2.6-6.6 2.5-4.9 2.5-5.5 1.8-17.3-.7-12.9-.3-14.7 3.9-19.3 2.4-2.7 1.8-3.8-1.8-2.9-1.9.5-3.2 2-4.7 5.3-1.9 4.2-2 5.9-1.4 16.3.4 8.3.3 12.6-.6 15.1-2 5.3-11 16.9-13.7 17.6-3.4.9-15.4-1-15.9-2.5-.3-.9 2-1.2 9.3-1.2 7.3 0 9.6-.3 9.3-1.3-.3-.8-3.4-1.4-9-1.7-7.9-.5-8.9-.8-14.3-4.5-7.9-5.4-8.9-8.1-8.1-21 .6-9.5.5-10.3-2.2-15.4-2.6-5.4-5.4-8.2-6.8-6.9-.3.4.3 2.6 1.4 5 1.2 2.3 1.9 4.4 1.7 4.7-.3.2-2.3-1.3-4.5-3.4-5-4.9-5.3-8.5-1-14.3 4.8-6.7 4.8-6.7 32-6.7 21.2.1 25.3.3 30.3 1.9 6.7 2.2 9.7 5.4 9.7 10.3 0 4.6-2.1 8.4-7 12.6-5.2 4.4-3.7 5.6 2.1 1.7 5.2-3.4 7.9-7.6 8.3-12.8.5-8-1.8-11-17.3-22.7-9-6.7-22-17.7-22.5-19.1-1.2-3.2-.5-6.6 1.8-8.7 3.3-3 4.7-9 4.7-19.7 0-8.2-.3-9.6-3.3-15.7-3.2-6.6-3.3-7.1-3-17.7.2-9.9.5-11.4 2.7-14.6 2.9-4.2 3.1-5.3 1.1-7-1.9-1.5-1.8-10.7.1-13.8.7-1.2 1.6-5.5 1.8-9.5.5-7.5.4-7.4 7-12 3.6-2.6 3.5-7.9-.2-9.6-5.7-2.6-14-4.2-21.8-4.2-18.2.1-26.7 2-28 6.2-.8 2.4-1 2.1 8.6 9.9 2.8 2.3 3.1 3.1 3.3 9.2.2 4.2.9 7.6 2 9.3 1.2 1.8 1.5 3.6 1.1 5.5-.3 1.6-.2 3.7.3 4.7.7 1.3.6 2.4-.4 3.8-1.9 2.6-1.8 4.8.7 7.8 2.5 3.3 3.5 8.7 2 11.6-1 1.8-1.5 1.9-3.2 1-2.8-1.5-4.9.5-4.9 4.7 0 3.7-1.4 5.3-2.5 2.6-.4-.9-1.3-4.9-2.1-8.7-1.8-9.1-12.4-30.7-17.4-35.3-3.5-3.3-3.5-3.3-3.8-13-.4-12.3 2.2-24.4 8.1-37.9 5-11.5 5.3-11.6 17.8-8.5 11.9 3 22 1 28-5.5 4.1-4.4 5-8.4 3.9-16.5-1.1-7.6-4.8-15.7-10.2-22.2-10.3-12.5-42.4-36-59.7-43.6-19.4-8.6-25.8-11.3-30.6-12.6-2.7-.8-7.9-2.5-11.5-3.9-3.6-1.3-10.3-3.4-15-4.6-4.7-1.1-9.1-2.7-9.9-3.5-1.3-1.2-1.2-1.7.6-3.6 1.2-1.3 2.5-3.7 2.9-5.3.4-1.7 1.3-3.9 1.9-5 .7-1.1 1.9-4.5 2.6-7.5.7-3 2.3-6.6 3.6-8.1 2.9-3.2 2.9-3.8-.2-7.2-2.8-2.9-4.5-3.3-6.2-1.6-.8.8-2 .5-4.5-1.4-4.2-3.2-7.4-4.5-16.5-6.3-5.4-1.2-7.7-1.2-9.3-.4-1.6.8-2.5.7-4.2-.5-1.3-.8-3.7-1.5-5.4-1.5-1.8 0-3.8-.8-4.9-2-2.5-2.8-5.4-2.5-10.3 1.1zm7.8 1.4c0 .8-.7 1.5-1.5 1.5s-1.5-.7-1.5-1.5.7-1.5 1.5-1.5 1.5.7 1.5 1.5zm-18 5c0 1.9-3.1 3.5-6.8 3.5-1.6 0-5 .6-7.6 1.4-3.3 1-5.6 1.2-7.3.5-2.8-1-2.2-2.9 1-2.9 1.2-.1 4.7-.9 7.7-2 6.8-2.4 13-2.6 13-.5zm52 1.4c3.4 1.2 4.6 2.3 4.8 4 .5 3.1-1.7 5.4-2.4 2.6-.6-2.3-8-5.7-12.8-5.9-2.1-.1-3.2-.7-3.4-1.8-.3-1.6.2-1.7 4.5-1.1 2.6.3 6.8 1.3 9.3 2.2zm-93 8.2c0 .5-.9 1.3-1.9 1.8-2.8 1.5-4.8-1.1-2.5-3.3 1.2-1.3 1.9-1.4 3-.5.8.6 1.4 1.5 1.4 2zm110.5-2.2c.3.6-.3 1.5-1.4 2-2.8 1.6-3.3 1.4-2.1-.9 1.2-2.2 2.5-2.6 3.5-1.1zm-22.4 5.2c2.1 1.8 2.1 2 .4 1.4-1.1-.4-2.8-1-3.7-1.2-1-.3-1.5-.9-1.2-1.4.8-1.4 2-1.1 4.5 1.2zm-61.1 1.8c0 1.2-2 2.5-2.7 1.8-.7-.7.6-2.7 1.8-2.7.5 0 .9.4.9.9zm56.4 1.9c.3.5-.8.9-2.5 1-1.6 0-2.7-.4-2.4-.9.8-1.1 4.2-1.2 4.9-.1zm-18.1 8.2c-1.3 1.2-2.9 1.6-5.9 1.3l-4.1-.5 2-3.9 2-4 1.8 3.1c2.1 3.3 4.4 3.2 3.3-.2-.4-1.3-.1-2.4.7-2.9 2.3-1.4 2.4 5 .2 7.1zm-19.3-6c0 .5-.2 1-.4 1-.3 0-.8-.5-1.1-1-.3-.6-.1-1 .4-1 .6 0 1.1.4 1.1 1zm6.7 3.7c-.3 1-.5.2-.5-1.7s.2-2.7.5-1.8c.2 1 .2 2.6 0 3.5zm35.4-3c1.3 1.6 1.2 1.7-.3.4-1-.7-1.8-1.5-1.8-1.7 0-.8.8-.3 2.1 1.3zm-60.5 5c-1 1-1.9-.5-1-1.8.6-1.1.8-1.1 1.2 0 .2.7.1 1.5-.2 1.8zm16.1-.1c.9 1.5 3.2 3.3 5.1 4.1 2.8 1.1 3.2 1.6 2.2 2.8-1.8 2.2-2.8 1.9-5.7-1.5-4.6-5.5-13.3-3.2-13.3 3.5 0 3.9-1.2 5.1-3 3-1-1.1-.8-2 .9-4.1 1.2-1.5 2.1-3.9 2.1-5.3 0-3.7 1.7-5.1 6.2-5.1 3 0 4.1.6 5.5 2.6zm43.5.6c2.8 3.7 4.3 8.4 2.9 9.2-.5.3-1.8-1-3-2.9-3.8-6.5-11.2-7.3-13.3-1.4-1.3 3.8-4.1 5.4-5.9 3.3-1.8-2.1 0-4.8 3.5-5.2 1.4-.2 3.1-1.3 3.8-2.5 1.5-3 2.7-3.7 6.4-3.7 2.4 0 3.8.8 5.6 3.2zm-63.4 4.4c.2 1.5-.4 2.3-2 2.8-3.7 1-4.8.7-4.8-1.2 0-4.3 6.2-5.7 6.8-1.6zm-11.2 2c.9 3.5-1 5.3-2.6 2.4-1.2-2.3-.7-5 .9-5 .6 0 1.4 1.2 1.7 2.6zm-7.7 1.8c1.2 1.8 2.1 3.8 2.1 4.4 0 1.8-2.9 2.2-4.5.6-2-2-2-8.4.1-8.4.1 0 1.2 1.5 2.3 3.4zm57.9-.9c.3 1.6.1 1.8-.9.7-.7-.6-2.2-1.2-3.3-1.2-1.7 0-1.8-.2-.6-1 2.2-1.5 4.4-.8 4.8 1.5zm19.9-.9c.2.7-1 1.4-2.7 1.6-2.9.4-4-.9-2.3-2.6 1-1 4.6-.3 5 1zm15.3 1.5c-.6 1-1.5 1.9-2.1 1.9-.6 0-.8-.3-.6-.8.2-.4.7-1.5 1-2.5.4-1 1.1-1.5 1.7-1.2.7.4.7 1.3 0 2.6zm-52.9 1.5c2 2.1 3 2.5 6.2 2.1 4-.6 4.9.6 1.7 2.3-2.6 1.4-5.8.5-9.2-2.8-2.2-2-3-2.3-4.2-1.3-1.8 1.5-3.7.6-2.9-1.4.9-2.4 5.7-1.8 8.4 1.1zm20 2.1c1.3 1.6 1.2 1.7-.3.4-1-.7-1.8-1.5-1.8-1.7 0-.8.8-.3 2.1 1.3zm11.9.1c0 1.3-6.6 3.1-8 2.2-.7-.4-.1-.8 1.5-.8 1.4 0 3.2-.5 3.8-1.1 1.3-1.3 2.7-1.4 2.7-.3zm-49.3 3.2c1.8 1.6 2.8 3 2.2 3-.7 0-2-.7-3-1.6-2.5-2.2-4.9-1.1-4.9 2.3-.1 1.5-1.1 4.1-2.5 5.7l-2.3 2.9-3.6-3.1c-2.1-1.8-4.2-2.9-5.1-2.6-1.9.8-2-1-.1-2.5 1-.8 1.9-.6 3.9.9 1.4 1.1 3.2 2 4 2 2.5 0 4.9-3.1 4.3-5.3-.5-2.2.9-4.7 2.6-4.7.6 0 2.6 1.3 4.5 3zm20.9 3l2.9.8-3 .1c-1.7.1-4.5.5-6.3 1l-3.3 1 .6-3.2c1.1-4.8 1.5-5.1 4-2.7 1.2 1.1 3.5 2.5 5.1 3zm14.8-2.5c2.3 1.8 1.3 2.2-5.6 2.7-5.6.4-6.2-.7-1.5-2.7 4-1.8 4.7-1.8 7.1 0zm19.7.2c2.6 1.6 2.9 1.6 4.7 0 2.8-2.5 5.2-2.2 5.2.7 0 4.7-.9 5.7-3.8 4.2-1.5-.7-4.8-1.9-7.4-2.6-5.5-1.4-6.2-3-2-3.9.2-.1 1.7.7 3.3 1.6zm-67.1.3c0 .5-.5 1-1.1 1-.5 0-.7-.5-.4-1 .3-.6.8-1 1.1-1 .2 0 .4.4.4 1zm21 0c0 .5-.5 1-1.1 1-.5 0-.7-.5-.4-1 .3-.6.8-1 1.1-1 .2 0 .4.4.4 1zm-7.9 6.5c0 .5-.9 1.1-2.1 1.3-2 .3-2.7-.8-1.3-2.2 1-.9 3.4-.3 3.4.9zm46.5.6c7.6 3.3 11.2 7.4 6.2 6.8-2.8-.3-9.8 3.8-9.8 5.7 0 .8.7 5.5 1.6 10.4.8 5 1.3 9.4 1 9.9-.3.5-2 .6-3.8.2-2.4-.5-3.4-1.3-3.6-2.9-.4-2.6-2.9-2.6-4.5-.1-1.5 2.4-.1 4.8 3.3 6 4 1.5 3.8 3.5-.5 4.3-4.2.8-5.1 2.1-3.5 5.1.8 1.5 2.5 2.6 4.9 3 2 .4 4.2 1.1 4.9 1.7.9.8 1.2.6 1.2-.6 0-.8 1.3-2.2 2.9-3.1 4.1-2.1 4.5-3.1 2-5.6l-2.1-2.1 2.1-1.4c2.2-1.6 2.8-5.8 1.1-6.9-1.2-.7-.3-7.4 1.1-8.9.5-.6 1.9 0 3.4 1.4 2.2 2.1 2.5 3 2 6.5-.7 4-1.8 8.4-3.7 14-.5 1.6-.9 5.3-.8 8.2 0 2.8-.4 5.4-1 5.8-.5.3-1-.1-1-.9 0-2.3-2.1-2-2.7.3-.3 1.1-1.2 2.2-2.2 2.3-2.2.5-8.8-1-12.7-2.8-1.7-.8-3.5-1.4-4-1.3-3.2.7-10.2-1.8-13.4-4.8-2.1-1.8-4.2-3.3-4.9-3.3-2 0-2.3-4.7-.6-8.3 1.2-2.7 1.4-4 .6-5.5-.6-1.1-.7-2.3-.3-2.6.4-.4.7-4 .8-7.9.1-15.3 9.7-23.6 28.5-24.6 1.5 0 4.8.9 7.5 2zm34.1 2c4.8 1.1 10.2 2.7 12 3.4 1.7.7 6.5 2.3 10.6 3.4 13.7 3.7 41.4 16.5 54.1 24.8 18.8 12.4 35.5 26.9 41.7 36.2 2.9 4.4 3.9 7.8 1.9 6.6-2.1-1.3-2.9.6-1.6 4.3 1 2.9 1.8 3.6 3.5 3.4 1.9-.3 2.1.1 2.1 4.8 0 4.4-.3 5.3-2.1 5.7-1.5.4-2 1.2-1.7 3.3.1 1.5-.3 3.5-1.1 4.3-1.8 2.2-11.1 4-16.8 3.1-5.9-.8-12.3-3.9-12.3-5.9 0-1.7 4.8-5.1 5.8-4.1.4.4-.1 1.2-1.1 1.7-.9.6-1.7 1.7-1.7 2.6 0 1.2.6 1.4 2.7.8 4.2-1 5.5-2.5 4.8-5.4-.4-1.4-1.1-3.1-1.6-3.7-1.4-1.7-6-.5-10.2 2.8-2.1 1.7-3.9 2.8-4.1 2.7-.1-.2-1-1.6-1.9-3.1-1.1-1.7-2.3-2.5-3.2-2.2-2.3.9-1.8 3 1.2 5.4 2.4 1.8 2.5 2.2 1.1 3.6-1.3 1.3-1.8 1.3-4.5-.2-1.8-1.1-3.7-1.5-4.9-1-1.7.7-1.6 1 1.6 3.6 4 3.3 3.7 3.6-1.3 1.5-3-1.2-3.7-1.2-4.7 0-.9 1.1-.4 1.9 3 4 4.9 3.1 4.5 5-.6 2.9-2-.8-4.6-1.4-5.8-1.2-3.5.5-2.4 3.2 1.9 4.6 4 1.3 6 3.1 4.7 4.4-.4.4-2.7.1-5.1-.8-3.4-1.1-4.6-1.2-5.8-.3-1.9 1.6-.1 3.4 4.6 4.6 5.6 1.4 5.2 3.5-.5 3.1-3.8-.2-4.9 0-4.9 1.2 0 .8 1.5 2 3.3 2.6 3.9 1.2 5.7 2.8 4.8 4.3-.5.7-1.5.6-3.2-.5-2-1.4-2.7-1.4-4-.3-1.4 1.2-1.4 1.4.2 2.6 1 .7 2.6 1.3 3.6 1.3 2.6 0 2.3 3.4-.4 5.3-2.3 1.5-2.3 1.5-.3 3.6 1.6 1.9 1.7 2.5.7 4.2-.9 1.4-1 2.5-.2 3.9.7 1.3.7 2 .1 2-1.3 0-4.1-5.3-4.1-7.9 0-1-1.1-4.3-2.5-7.3-1.4-2.9-2.5-6.5-2.5-8.1 0-1.5-1.1-4.4-2.4-6.5-1.4-2-3.7-7.6-5.1-12.4-3.5-11.3-4.3-12.3-9.4-12.1-4 .2-4.1.1-8.6-7.1-4.8-7.7-14.8-18.1-16.5-17.1-.5.3-1.4-.4-2-1.5-.6-1.1-3.4-4.5-6.3-7.5s-7.4-7.9-10.2-11c-2.7-3-6-5.9-7.2-6.5-3-1.3-3.2-6.9-.3-9.5 2.6-2.4 2.5-4.9-.4-8.8-1.8-2.5-2.7-5.5-3.7-13.5l-1.2-10.3 4.3-4.4c2.4-2.5 4.5-4.5 4.6-4.5.1 0 4.2.9 9.1 2.1zm-98.4 2.6c-.7.2-1.9.2-2.5 0-.7-.3-.2-.5 1.2-.5s1.9.2 1.3.5zm-9.3 3.5c5.2 5.8 7.5 13.8 7.3 25.6l-.1 10.3 3.4 4.5 3.5 4.5-1.6 3.7c-1.6 3.6-1.8 3.7-7 3.8-6.4 0-10.3 2.3-11.2 6.4-.6 3-2.1 3.8-3.8 2.1-2.6-2.5-48.6 21.1-50.2 25.7-1.3 3.5-11.1 11.2-14.2 11.2-.5 0-2.3-2.8-4-6.3-1.6-3.4-5.3-8.8-8.1-12-5.1-5.6-5.3-5.7-10.1-5.6-4.1.2-5.3-.2-6.5-1.9-2.1-3-4.1-2.7-5.9.8-1.9 3.8-1.9 7.4.1 10.5 1.4 2.1 1.4 2.5.2 2.5-3 0-5-2.7-5.5-7.2-.4-3.8 0-5.6 2.1-9.4 1.7-3 2.3-5.1 1.7-5.7-1.4-1.4-2.9 0-5.7 5.5-2.1 4.1-2.5 6-2 9.1.8 4.5 4.5 9.5 8.7 11.6 1.6.7 2.6 1.7 2.3 2.2-.8 1.3-4.2 1.1-5.1-.4-.4-.7-3.2-3.2-6-5.6-4.8-3.9-5.3-4.6-5.3-8.4 0-5.5 4.9-15.8 9.6-20.1 3.5-3.2 3.9-5.6 1-5.6-2.2 0-9.2 8.3-11.5 13.6-1.2 2.7-2.5 7.6-2.8 10.9-.5 5.5-.3 6.3 2.3 9.7 1.6 2 4 4.4 5.4 5.3l2.5 1.6-3.4-.5c-7.1-1.2-10.6-7-9.9-16.5.6-8.6 3.4-13.9 12.4-23.9 7.4-8.1 10.1-9.9 36.7-25.3 17.1-9.9 21.5-12.2 27.7-14.6 3-1.2 9.6-3.7 14.5-5.7 10.9-4.2 23.9-8.4 28-8.9 6.7-.9 7.5-.7 10.5 2.5zm32.5 1.8c-.8 3.2-1.2 8.5-.9 14.7.6 12.3-1.3 18.6-6.6 22.1-2.8 1.8-4.2 2.2-7.5 1.7-5.8-1-6.8-2.7-5.9-10.5.8-7.2.7-14.7-.4-20-1.3-6.1-.5-7.8 4.1-9.1 2.3-.6 6-1.7 8.2-2.4 2.2-.8 5.4-1.4 7.2-1.4l3.1-.1-1.3 5zm58.7 29.2c-1.2 1.2-2.3 2-2.6 1.7-.6-.5-1-7.5-.8-11.9l.2-3.5 2.7 5.8 2.6 5.8-2.1 2.1zM244.5 226c-.5.8-1.4.1-2.6-1.9-2.6-4.4-2.4-5 .7-1.9 1.5 1.5 2.3 3.1 1.9 3.8zm-11.6-2.1c1 .7 1.1 1.3.2 3-1.6 2.9.3 5.5 9.2 12.8 8.6 7.1 9.4 7.6 10.7 6.8 1.8-1.1-.8-4.3-6.5-8-3-1.9-5.5-3.8-5.5-4.1 0-.4 1.8-.4 4 0 2.3.3 4.9.2 6-.4 1.4-.8 2.8-.5 5.5 1 2 1.1 5.4 2 7.9 2 5.3 0 6.1.7 3.3 3.1-1.7 1.3-1.9 2-1 2.9 1.7 1.8 8.4.3 13.8-3.1 5.3-3.4 5.5-3.4 5.5-1.4 0 .8.6 1.5 1.3 1.5 1.5 0 4.7-5.1 4.7-7.3 0-2.6 1.9-2.9 4.6-.8 1.8 1.4 2.2 2.1 1.1 2.1-2 0-7.7 6.6-7.7 9 0 3.2 2.9 2.3 5.1-1.5 1.7-2.9 2.7-3.5 5.5-3.5 3.4 0 3.8-.6 3.5-4.3-.3-2.1.7-2.2 3.1 0 2.9 2.6 2.2 4.1-3.2 6.8-5.7 2.9-8.1 6.5-6.3 9.5 1 1.4.8 2.1-.5 3.3-1.9 1.8-14.1 7.7-15.8 7.7-.6 0-3.9 1.2-7.5 2.6-4.9 2-7.4 2.5-10.7 2-3.2-.4-4.4-.2-4.8.8-.5 1.4-4.6-.1-12.6-4.5-2.3-1.2-4.5-1.2-5.3.1-1 1.7 1.3 3.8 4.8 4.5 1.8.4 5.1 1.6 7.5 2.8 3.3 1.6 4.5 1.8 5.4.9.7-.7 3.7-1.2 6.8-1.2 3-.1 6.6-.7 8-1.5 4-2.3 7.3-1.9 8.7 1 1 2.4.8 2.8-4.4 7.3-4.8 4.1-6 4.7-10.1 4.8-3.7 0-5.2-.5-6.9-2.3-2.5-2.7-4.8-2.2-7.9 1.5l-2 2.5-4.7-2.8c-4.5-2.6-8.3-2.8-7.5-.3.2.6 3.1 2.6 6.4 4.3 11.7 6.2 10.6 5.3 8.8 8-1 1.5-1.4 3.4-1 4.9.4 1.6-.1 4-1.5 6.6-2.2 4.2-2.6 4.5-4.7 3.1-1.1-.7-1.1-.9.2-1.4 2.9-1.1 1.7-3.8-2.4-5.5-4.7-2-5.1-3.2-1.1-3.2 3.7 0 4.8-1.6 2.7-3.9-.9-1-1.6-2.5-1.6-3.3 0-2.4-2.9-4.2-6.6-4.1-2.9.1-3.5-.3-4-2.5-.4-1.5-1.3-4.1-2.2-5.7l-1.5-3 2.5 2.2c3.2 3 3.7 2.9 6.8-.8l2.6-3.2 4.1 2.2c5.2 2.6 5.3 2.6 5.3.1 0-2-6.3-7-8.8-7-.8 0-2.3-1.1-3.4-2.5s-3.7-3.4-5.8-4.5c-3.9-2-13-10.4-13-12.1 0-2.2 5.1-.6 9.1 2.9 5.1 4.4 11.3 8.2 13.5 8.2 2.3 0 2.8-2.9.8-5.1-1.5-1.7-.9-1.5 4.2.8 5.6 2.6 6.6 2.8 18.8 2.6 7.9-.1 13.3-.6 14-1.3 2.1-2.1-1.7-3.1-10.1-2.6-12.5.7-23.2-2.9-29-9.7-3.5-4.3-6.5-5.4-8.4-3.1-1.2 1.5-.8 2.2 3.4 5.8 8 7.1 5.1 7.1-3.4 0-2.4-2-5.3-4-6.4-4.4-5.9-2.2-6.4-2.2-9.2.6-2.5 2.5-2.7 2.6-4 .8-1.2-1.7-1.1-2.1 1.4-4.1 1.5-1.3 3.3-2.3 3.9-2.3.5 0 3.1-1.3 5.7-3 4.1-2.6 4.7-3.4 4.7-6.3 0-4.5 1.1-5.6 3.9-3.8zm81.3 29c-5.2 3.4-8.2 6.5-8.2 8.5 0 1 3.9.6 4.5-.4 1.1-1.7 5.1-1.1 7 1 1 1.2 2.5 1.8 3.3 1.5.8-.3 2.3.2 3.3 1.1 1.6 1.4 2.1 1.4 5.1.1 3.8-1.8 9.7-2.7 10.3-1.6.3.3-.2 1.2-1 1.9-2.7 2.2-1.8 4.2 1.7 3.8 3.4-.3 5 1.6 2.1 2.5-6.4 1.9-14 5.1-15.3 6.3-1.3 1.4-1.3 1.7.3 2.9 1.3.9 2.7 1.1 4.7.5 4-1.1 12.1-6 12.7-7.7.7-1.8 3.3.3 3.3 2.7 0 1.9-11.2 8.3-16.7 9.5-4.1.8-6.3 3.2-4.2 4.6 2.4 1.6 7.9.2 15.2-4.1 9.1-5.3 10.7-4.7 2.3.8-9.1 6-15.3 8.6-28.6 12.2-6.3 1.7-13.7 3.7-16.5 4.5-13.4 3.7-16.6 3.3-18.3-2.2-1.1-3.9-2.5-10.6-2.8-13.3 0-.8-.7-2.7-1.4-4.3-.7-1.5-1-3-.7-3.3.9-.9 3.7 1.5 3.7 3.2 0 2.5 2.2 2.6 4.8.2 1.5-1.4 4.9-4 7.5-5.7 2.7-1.8 5.1-4 5.5-4.9.3-1 1.9-2.9 3.5-4.5 2.3-2.1 2.8-3.3 2.4-5.5-.4-2 .4-4 2.9-7.9 3.4-5.1 4.7-5.9 10.8-6.2 2.6-.1 2.3.3-3.2 3.8zm-207.8 3.8c4 1.9 3.8 3.3-.4 3.3-2.8 0-5.7-2.9-4.3-4.4.8-.8.7-.8 4.7 1.1zm228.7.9c1.2 1.4 1.1 1.6-.5 1.3-1.1-.2-2.1-1-2.4-1.7-.5-1.7 1.3-1.5 2.9.4zm-47.5 6.3c-.3.5-1.6 1.1-2.8 1.4-2.2.6-2.2.5-.4-.8 2.2-1.7 4-2 3.2-.6zm11.9 1.1c.3.5.1 1-.4 1-.6 0-1.1-.5-1.1-1 0-.6.2-1 .4-1 .3 0 .8.4 1.1 1zm-63.5 5.6c0 .8-.4 1.2-1 .9-.5-.3-1-1-1-1.6 0-.5.5-.9 1-.9.6 0 1 .7 1 1.6zm57.8 2.1c.2 1.6-.8 2.7-5.2 5.1-3 1.6-5.8 2.7-6.1 2.4-1.5-1.6 0-4.5 3.7-7.2 4.7-3.4 7.1-3.5 7.6-.3zm-141.4 7.2c.9 1.5-2.3 3.6-3.6 2.3-.5-.5-.7-1.5-.4-2.1.9-1.3 3.3-1.4 4-.2zm105.1 1.1c.8 1.3-.4 5-1.6 5-.5 0-.9-1.4-.9-3 0-3 1.3-4 2.5-2zm-94.3 4.2c-2 2-1.4 5.2 1.9 9.1 2.3 2.8 3.6 3.6 5.2 3.2 1.8-.4 2.8.4 5.4 4.3 3.5 5.5 14.6 14.4 21.1 16.8 6.9 2.7 5.4 4.1-5.5 5-5.4.4-10.2.8-10.8.9-.5 0-4.1.4-8 .9-15.3 1.7-23.7 5.6-25 11.5-1.2 5.5 5.2 20.4 12 27.7 3.9 4.2 10.8 16.1 10 17.4-1.1 1.7-2.7 1.1-6-2.3-1.8-1.7-4-3.8-4.9-4.5-.9-.7-1.6-2.7-1.6-4.4 0-3.5-3.5-9.8-5.4-9.8-2.1 0-4.6 3.4-4 5.5.9 3.6-1.8 5.4-12.1 8-5.5 1.3-11 2.5-12.1 2.5-1.2 0-5.3 1.6-9.2 3.6-7.5 3.7-12.7 8.8-13.5 13.2-.5 2.6 1 7.2 2.4 7.2 1.3 0 3.9 3.1 3.9 4.6 0 1-.7 1.3-2.5.8-4.1-1-3 2.1 1.7 4.9 4.6 2.7 6.3 2.6 5.5-.4-.3-1.1-.1-1.9.4-1.9 1.9 0 2.1-3.1.4-5-1.7-1.9-1.5-5 .5-5 .5 0 2.4 2.5 4.1 5.6 2.3 4 3.7 5.4 4.9 5.1 1.3-.3 1.6.1 1.2 1.9-.5 2.8-1 2.9-3.3.8-1.4-1.2-2.2-1.3-3.9-.4-1.9 1-2 1.7-1.4 5.8 1.5 9.6.1 14.5-4.9 17.6-2.5 1.6-4.2-1.3-1.9-3 1.4-1 1.5-1.5.5-2.5s-1.6-.9-2.8.7c-1.3 1.8-1.4 1.8-1.5.1 0-1 1.4-3.2 3-4.9 1.7-1.6 3-3.3 3-3.8 0-3.3-7.4-.5-9.2 3.5-.7 1.5-2.1 2.5-4.2 2.8-3.6.5-4.3.2-2.8-1.5 1.3-1.6-.6-10.6-2.7-13.2-.7-.9-3.1-1.9-5.2-2.2-2.3-.4-3.9-1.2-3.9-2 0-1.8.9-1.8 5.5.2 2.6 1 4.1 1.2 4.8.5 1.5-1.5-.9-3.9-5.4-5.8-2.1-.8-4-2.2-4.3-3-.9-2.3.1-2.8 2.1-1 2.9 2.5 7.4 4 8.7 2.7.8-.8.1-1.9-2.4-4l-3.5-3 3.2 1.2c3.8 1.4 3.9 1.4 4.8-3.4.6-3.4.5-3.8-2.4-5.3-3.7-1.9-3.3-3.2 2.3-8.3 2.4-2.2 4.3-3.1 5.5-2.7 2.4.7 4.7-1.9 2.9-3.4-6.8-5.4-8.1-6.9-7.5-8.5.6-1.5 1-1.4 3.1 1.1 1.9 2.1 2.7 2.5 3.6 1.7 1.7-1.7.8-4.8-1.8-5.9-1.2-.5-2.2-1.3-2.2-1.7 0-1.6 2.1-1.8 4.4-.3 2.7 1.8 4.6 1.3 4.6-1.1 0-.8.6-1.4 1.2-1.4 1.7 0 8.8-8.1 8.8-9.9 0-.8-1.2-2.8-2.7-4.3-1.8-1.9-2.4-3.1-1.7-3.8.7-.7 1.6-.4 2.9 1 2.5 2.7 4.5 2.5 4.5-.5 0-1.5.6-2.5 1.4-2.5 2.4 0 2.9-1.9 1.2-4.5-1.8-2.7-.6-3.5 1.4-1 1.6 1.9 3.4 1.9 5.1-.1 1.1-1.4 1-1.9-.9-3.4-1.2-1-2.2-2.3-2.2-2.9 0-1.9 2.9-1.2 4 .9.6 1.1 1.7 2 2.6 2 2.5 0 2.7-2.8.5-6.5-2.1-3.6-1.5-5 .7-1.5 1.4 2.3 5 2.7 5.8.5.4-.9 1.9-1.5 3.5-1.5 3.8 0 3.8-2.2-.1-6.7-2.6-3-4-6.3-2.5-6.3.3 0 1.8 1.4 3.4 3.2 1.9 2.1 3.3 2.9 4.4 2.5 2.4-.9 2.1-2.2-1.4-6.2-1.8-2-2.9-3.9-2.5-4.3.4-.4 1.5.3 2.4 1.5 2 2.5 5.8 3.8 6.7 2.3.3-.5 1.5-1 2.6-1s2.2-.7 2.5-1.5c.4-.8 1.4-1.5 2.4-1.5 3.3 0 3.4-2.1.4-7.5-2.4-4.6-2.7-5.6-1.6-7.9.6-1.4 1.7-2.6 2.4-2.6.9 0 .9.3 0 1.2zm102.8 7.2c0 .7-.7 1.9-1.5 2.6-1.1.9-1.2 1.7-.4 3.1.7 1.5.6 1.9-.6 1.9-.8 0-1.5-.3-1.6-.8-1-7.2-.8-8.2 1.7-8.2 1.4 0 2.4.6 2.4 1.4zm8.4.7c0 .8-.4 3.3-.8 5.6-.5 3.8-.4 4.3 1.3 4.3 2.5 0 3.1 2.1 2.6 9-.5 6.1-6 18.2-10.1 22.1-2.9 2.7-4.2 1.9-2-1.3 2.4-3.4 2-6.6-1.4-9.7-2.3-2-2.7-3-1.8-3.9.8-.8.5-1.4-1.6-2.2-2.4-.9-2.7-1.4-2.4-5.2.3-4.2.4-4.3 3.4-4 2.6.2 3.6-.3 5.3-2.7 1.2-1.6 2.1-3.3 2.1-3.8 0-.6.9-1.8 2-2.8 1.6-1.4 1.9-2.6 1.4-4.8-.5-2.2-.3-2.8.7-2.5.8.3 1.4 1.1 1.3 1.9zM157 295c1 1.8.9 1.9-1.4.8-1.4-.6-2.3-1.5-2-1.9.9-1.5 2.3-1 3.4 1.1zm-5.3 4.2c-.3.7-.5.2-.5-1.2s.2-1.9.5-1.3c.2.7.2 1.9 0 2.5zm106.3 4.2c0 .3-.4.8-1 1.1-.5.3-1 .1-1-.4 0-.6.5-1.1 1-1.1.6 0 1 .2 1 .4zm185.5 7.2c5 .8 7.5 2.1 7.5 3.9 0 1.9-7.3 7.5-9.8 7.5-1.2 0-2.8 1-3.7 2.2l-1.6 2.3-1.9-2.5-1.8-2.4-2 2.4c-1.7 2-2.3 2.3-3.3 1.2-.7-.6-2.4-1.2-3.8-1.3-1.5 0-2-.3-1.3-.6 1.8-.7 1.5-5.3-.3-5.3-2.2 0-7.5-2.8-7.5-4 0-1 6-2.8 13.5-4 4.9-.8 7.8-.7 16 .6zm-71 5.4c.8 2.4-1 5-3.3 5-1.3 0-1.3-.3.2-1.9 1.5-1.6 1.5-1.9.1-3.1-1.2-1-2.1-1-4.4 0-3.7 1.5-4.6 3.7-2.1 5.2 1.4.9 1.6 1.5.8 2.6-1.9 2.2.5 3.6 4.1 2.4 3.9-1.4 5.1.2 2.1 2.6-2 1.6-2.1 1.9-.6 3.1 1.4 1.2 2 1.1 4-.8l2.3-2.2 2.9 4.3c1.6 2.4 3.1 5.6 3.4 7.3.4 2.5 1 3 3.4 3 1.6.1 3.1.6 3.4 1.3.2.7-.3 1.2-1.2 1.2-1.9 0-4 3.6-2.6 4.5 1.3.8 5-.4 5-1.6 0-2.2 2.1-.6 4 3.2 1.6 3.1 1.9 4.4 1 5.4-1.6 1.9-.3 3.7 2.1 3 1.3-.4 1.9-.2 1.9.9 0 .9-.7 1.6-1.5 1.6-.9 0-1.5.9-1.5 2.4 0 1.8-.7 2.5-3.1 3-5.3 1-7.8.7-9.9-1.4-1.1-1.1-3.2-2-4.7-2.1-2.8 0-2.8 0-.5-1.1 3.1-1.5 2.3-2.9-2.4-4.3-3.1-.9-4.5-.9-6.7.2-1.5.8-3.6 1.1-4.7.8-1.9-.6-3.7-3.8-2.3-4.2 2.2-.8 3.5-2.2 2.9-3.2-.9-1.4-4.9-1.4-6.4.1-1.3 1.3-11-.6-13.9-2.7-1.3-1-.8-1.2 2.8-1.3 6.6-.3 9.9-1.2 9.9-2.8 0-1.1-1.7-1.4-7.9-1.4-10.8 0-12.9-.9-6-2.7 5.9-1.5 7.8-2.8 6.3-4.2-.5-.6-3.1-.6-6.4 0-5 .8-24.7-.5-25.9-1.7-.3-.2.5-1.3 1.7-2.4 1.2-1.2 2.2-2.6 2.2-3.2 0-1.6 1.8.2 3.4 3.4 1 1.9 1.8 2.2 5.1 2 4.8-.4 6.3-1.6 4.6-3.5-1-1.2-.4-1.6 3.4-2.2 3.6-.5 4.8-1.2 5.5-3.1.7-1.7 1.7-2.4 3.7-2.4 3.8 0 8.8-3.2 10.5-6.6.8-1.9 2.4-3 4.3-3.4 1.7-.4 3.9-1.1 5-1.7 2.4-1.4 5.1-.1 6 2.7zm-233.5-.5c.7.9.8 1.5.2 1.5-.5 0-1.2-.7-1.6-1.5-.3-.8-.4-1.5-.2-1.5s.9.7 1.6 1.5zm199.8 9.2c1.8.4 2 .8 1 1.4-2.1 1.4-4.8 1-4.8-.6 0-1.7.4-1.8 3.8-.8zM200.3 329c.7 2.6 3.3 2.6 4.7 0 .9-1.7 1.8-1.9 5.8-1.4 9.1 1.1 14.5 2.4 17.3 4.5 3.6 2.5 3.7 4.4.2 6.6-2.2 1.5-6 1.9-20.8 2.5-10 .3-19.7.3-21.6-.1l-3.4-.7 3.3-.7c2.5-.5 3.3-1.1 3-2.4-.3-1.5-1.3-1.8-6.8-1.5-10.2.4-5.2-1.5 5.9-2.3 5.3-.4 9.9-.9 10.4-1.2.4-.2.3-1.2-.3-2.2-.9-1.8-.5-3.1 1.1-3.1.3 0 .9.9 1.2 2zm242.3 3.4c-.9 4.6-2.2 5.3-3.4 1.7-.8-2.2-.7-3.4.5-5.1 2.1-3 3.7-1.1 2.9 3.4zM185.5 329c-.3.5-4.1.9-8.3.8-7.3-.1-7.4-.2-2.7-.8 8-1.1 11.7-1.1 11 0zm240.4 5.7c-1.5 3.9-4.1 5.1-4.7 2.1-.2-.9.7-3.1 1.9-4.8 3.1-4.1 4.7-2.4 2.8 2.7zM436 336c2 5.1 2 5.5.4 6.7-2.5 1.8-4.8 1.6-6.9-.7-1.7-1.9-1.7-2.2.5-7.5 1.3-3.1 2.6-5.3 3.1-4.8.4.4 1.7 3.3 2.9 6.3zm-274.5-3.1c-3.3 1.6-6.2 2.6-6.5 2.4-1-.9 8.1-5.1 11-5.1.8 0-1.2 1.2-4.5 2.7zm148.9-2c.8 1.3-.4 4.2-1.5 3.5-1.2-.7-1.2-4.4 0-4.4.6 0 1.2.4 1.5.9zM275 334c0 .5-.4 1-1 1-.5 0-1-.5-1-1 0-.6.5-1 1-1 .6 0 1 .4 1 1zm-103.7 1.7c-.7.2-1.9.2-2.5 0-.7-.3-.2-.5 1.2-.5s1.9.2 1.3.5zm103.7 5.2c2.5 1.2 4.2 1.5 4.8.9 2-2 3.5.4 2.9 4.7-.4 2.3-.3 4.5 0 4.9.4.4.8 2.7 1 5.2.3 6.4 1.6 7.6 7 6.8 2.9-.4 4.3-.3 4.3.5 0 .7-2 1.1-5 1.1-4.2 0-5 .3-5 1.9 0 2.3 1.9 3.1 7.1 3.1 2.1 0 3.9.4 3.9 1 0 .5-1.2 1-2.7 1-5.9 0-7 .9-7 5.1 0 4.6 2 6.2 6.8 5.7 3.1-.3 4.9 1.3 4.9 4.4 0 1.4-.9 1.8-4.3 1.8-5 0-6.2.7-4.6 2.7.7.8 3.2 1.3 6.1 1.3 6.3 0 6.1 2.3-.2 3-2.4.3-4.5 1-4.7 1.6-.5 1.6 3.1 2.4 7.4 1.7 5.1-.9 3.9 1.9-1.3 3.1-7 1.5-6.9 1.5-5.2 3.2 1.3 1.4 2.4 1.4 6.4.5 4.2-.9 5.1-.8 6.2.7 2.1 2.7.8 3.7-4.6 3.4-5.5-.3-7.7 1.3-4.7 3.4 1.1.8 3.7 1.1 7.6.8 3.3-.2 5.9 0 5.9.5 0 1.6-3.9 2.3-9.1 1.6-3.9-.6-4.9-.4-4.9.8 0 .8.7 2 1.5 2.7.8.7 1.5 1.9 1.5 2.7 0 .8 1.2 1.9 2.8 2.6 1.6.7 2.7 2 2.7 3.2 0 1.8.7 2 7.5 2.1 8.2.2 9.7 1.5 2.9 2.6-5.1.9-5.6 1.3-3.8 3.4.9 1.1 2.3 1.4 4.8 1 8.1-1.2 8.5-1.1 8.9.6.3 1.5-.4 1.8-3.6 1.8-2.1 0-4.2.3-4.5.7-.9.8 2.2 4.3 3.8 4.3.7 0 1.5.9 1.8 2 .9 3.4 7.7 2.3 7.7-1.2 0-1.8.5-1.6 4.8 1.5 2.6 1.9 5.3 4.7 6 6.1 1.9 3.7 3.5 3.3 2.7-.7-.4-1.9-1.9-4.2-3.7-5.7-6.9-5.5-15-15-19.4-22.5-11.2-19.2-13.2-23.8-16-36.5-1.6-7.2-4-32.8-3.1-33.6.4-.5 4.1.3 10.6 2.2 1 .3 1.1.8.4 1.5-.7.7-1.8.6-3.6-.2-1.4-.6-3.3-.9-4.3-.5-1.5.6-1.5.8 0 2.4 1.2 1.4 1.3 2.1.4 3-1.6 1.6 2.8 6.4 5.6 6 1-.2 2.1.3 2.3.9.3.8-.5 1.3-1.9 1.3-3.5 0-4 1-2.3 3.7 1.4 2 1.4 2.4.1 2.9-1.1.4-1.3 1.6-.9 4.2.6 4.3 2.6 6.2 6.5 6.2 1.5 0 2.8.4 2.8 1 0 .5-1.8 1-3.9 1-2.2 0-4.2.4-4.6.9-1 1.8 2.6 4.1 6.6 4.1 4.5 0 5.2 1.7 1.2 2.6-5.4 1.1-5.3 1-3.7 5.1.9 2.1 2.1 4.3 2.9 4.8.7.6 1.4 1.9 1.6 3 .3 1.5 1.5 2.1 4.4 2.5 3.5.5 3.7.7 1.7 1.4-3.2 1.1-2.4 4 1.2 4.6 3.6.6 4.5 2.6 1.7 3.5-2.8.9-2.6 3.3.3 4.6 1.4.7 2.2 1.7 2 2.4-.7 1.7 1.5 3.3 5.1 3.7 2.6.3 3 .7 2.7 3-.3 3 1.8 4.8 5.8 4.8.6 0 1 .5 1 1.2 0 1.8 3.1 4.8 5.1 4.8.9 0 3.2 1.8 4.9 4 4 5 7 6.6 15.1 8 13.6 2.2 17.1 3.6 21.6 8.7 2.3 2.7 4.5 6.1 4.9 7.7.3 1.6 1.4 3.1 2.5 3.3 1 .3 1.9 1.3 1.9 2.2 0 .9.7 3.4 1.4 5.6 1.4 3.9 1.4 4.1-1.2 6.8l-2.7 2.9 2.2 1.8 2.3 1.8-2.1 4.6c-2.4 5.6-1.6 9.7 2.2 10.6 3.3.8 3.5 3.4.4 4.8-2.4 1.1-2.5 1.4-2.7 12.4-.3 18.1-.5 21.9-1.7 29.7-.6 4-.9 8.2-.6 9.2.4 1 .3 2.4-.1 3.1-.4.7-.8 2.1-.9 3.2-.1 1.2-.5 2.9-1 3.8-.5 1.2-.2 2 .9 2.4 2.2.8 4.9-1.5 4.3-3.8-.4-1.4.1-1.8 2.2-1.8 3.5 0 5.5-1.8 4-3.7-.7-.7-2.2-1.3-3.5-1.3-3.3 0-3-1.4.8-3.1 4.3-1.9 4.7-3.8.8-4.5l-3.1-.7 2.2-2.3c2.1-2.2 2.1-2.5.6-4.2-2.3-2.5-2.1-3.2.7-3.2 2.3 0 2.5.4 3.2 8.7.4 4.9.6 11.3.6 14.3-.1 3 .3 8.9.8 13s1.5 13.8 2 21.5c1.2 14.4 4.3 40.8 6 50.5.9 5.3 4.7 25.8 5.7 31.1.7 3.5-1.9 5.9-6.5 5.9-3.4-.1-3.5-.2-1.8-1.5 2.3-1.8 1.1-3.8-2-3.2-3.8.7-3.7-.8.1-2.6 5.1-2.4 4.5-4.1-1-3.4-5.2.8-5.9-.3-1.4-2 3.8-1.4 3-3.3-1.4-3.3-3-.1-3.1-.2-1.3-1.5 1-.8 1.6-2.1 1.3-2.9-.4-.9-.2-1.8.3-2.1.6-.4 1-1.5 1-2.5s.5-2 1.2-2.2c2-.7-.2-2.8-2.8-2.8-2.9 0-6.4-1.6-6.4-3 0-.6 1.8-1 3.9-1 4.2 0 6.3-1.6 3.6-2.6-1.4-.6-1.4-.8.1-1.9 1.8-1.2 1.2-3.5-.9-3.5-3.3 0-8.7-2.2-8.7-3.6 0-1.1.9-1.3 4.4-.9 4.8.7 7.1-.9 4.3-3-1-.7-1.4-2-1.1-3.3.5-1.7-.1-2.3-3.5-3.3-5.1-1.5-5.2-2.4-.4-2.4s5.2-2.5.6-3.7c-4.4-1.1-5-2.6-1.1-2.4 4.8.2 5-2.8.4-4.4-2-.6-3.6-1.6-3.6-2.1 0-1.1 1.1-1.1 2.9 0 1.5 1 4.1.4 4.1-.9 0-.5-.7-1.6-1.6-2.5-1.3-1.3-1.4-1.8-.3-3.1 1.2-1.4.9-2-1.6-4-2.8-2.2-2.8-2.4-.8-2.4 3.2 0 3.9-2.1 1.5-4.1-1.8-1.4-1.9-1.8-.7-2.3 2.3-.9 1.8-3.5-.9-4.2-1.4-.3-3.2-1.4-4.2-2.5-2.4-2.6-8-2.6-9.4.1-.9 1.7-.7 2.2 1.5 3 1.5.6 3.8 1 5.3 1 2.6.1 2.6.1.7 1.6-1.1.8-2.9 1.4-4 1.3-4-.3-4.6.1-4.3 2.3.2 1.8 1.1 2.4 3.8 2.8 3 .4 3.5.9 3.8 3.4.3 2.5.1 2.8-1.5 2.1-3.8-1.6-6-1.6-7.2-.1-2.2 2.7-.6 4.6 3.9 4.6 3.2 0 4 .4 4 1.9 0 1.6-.6 1.8-4.3 1.4-3.2-.4-4.6-.1-5.6 1.1-1.1 1.3-1.1 2-.3 2.8.9.9.8 1.6-.4 2.9-2.3 2.6-.9 3.9 4.1 3.9 2.4 0 4.7.4 5 1 .4.6-1 1-3.4 1-2.6 0-4.7.7-5.8 1.8-1 1.1-2.6 2.2-3.5 2.5-2.2.8-2.3 3-.3 4.7 1.2 1 1.7.7 2.7-1.4.7-1.7 1.7-2.5 2.6-2.1.7.3 3.1.5 5.3.5 2.9 0 3.9.4 3.9 1.6 0 1.4-.7 1.5-4.1 1-2.8-.5-4.8-.2-6.3.7-1.1.8-3.3 1.7-4.8 2.1-3.2.7-3.7 3.1-.9 4.5 1.4.8 2.2.7 3.2-.5 1.5-1.8 13-1.6 13.6.2.3.8-1 1-4.1.7-5-.6-7.6.7-7.6 3.8 0 1.6.6 1.8 6.3 1.2l6.3-.6 1.2 5.4c.6 3 1.4 7.4 1.8 9.9.6 4.8 3.7 16.1 5.9 22.1.8 2 1.1 3.9.8 4.2-1.1 1.1-6.3-2.3-6.3-4.1 0-2.9-2.1-4.2-6.9-4.2-4.4 0-4.5-.1-2.1-1.3 3.3-1.7 3.2-3.9-.3-5.5-2.2-1.1-2.6-1.8-2.1-3.8.4-1.4.2-2.4-.5-2.5-12.6-.8-15.9 1.6-6.3 4.5 2.6.8 3.7 1.5 2.5 1.5-3.2.1-5.7 2.9-4.2 4.7.6.8 1.8 1.4 2.6 1.4 1.3 0 1.3.3.2 1.6-1.1 1.4-.9 2 1.4 4 2.5 2.2 2.6 2.5 1 3-4.7 1.4-13.4 6-19.2 10.2-8.7 6.1-14.4 8.1-27.2 9.3-13.9 1.3-36-.3-39.8-2.8-1.4-.9-6.2-5.4-10.7-10-9.9-10.3-11.8-11-22.7-8.4-4.2 1-7.7 1.5-7.7 1.2 0-.9 8.2-6.1 9.6-6.1.7 0 2.5.5 4 1 4 1.6 5.7-.5 2.5-3.1-4.1-3.3-7.9-2.5-17.2 3.9-6.9 4.7-8.4 6.2-8.3 8.2.3 4.1-8.3 11.1-15.4 12.6-3.1.6-6.9 1.5-8.4 1.9-2.1.5-2.8.4-2.8-.8 0-.8.7-2 1.6-2.8 1.8-1.4 4.3-6.1 5.1-9.2.7-3.1 1.9-13.2 3.3-28.2 1.4-16.3 3.3-28.2 7.2-46 1.7-7.7 3.3-17.6 3.4-22 .5-14.2 1.3-28.7 2.3-40.5.5-6.3.6-11.9.1-12.3-.4-.5-1.6-.4-2.7.1-1.3.7-2.3.6-3.6-.3-2.5-1.8-2.2-3.8.4-3 2.5.8 3.9-.8 3.9-4.6 0-1.7.9-3.3 2.5-4.3 1.4-.9 2.8-2.9 3.1-4.4 1.2-5 4.2-9.8 6.8-11 2.8-1.3 3.3-3.1 1.4-5-1.8-1.8-3.3-1.5-6.7 1.3-1.8 1.5-3.6 4.6-4.7 7.8-1.7 5.4-3.3 7.2-4.7 5.8-.9-.9 2.3-8.1 6.3-14.6 1.8-2.9 2-3.9 1-4.5-.7-.5-1.9-.6-2.7-.3-1.8.7-1.7-1.2.2-2.7.8-.7 1.5-1.8 1.5-2.6 0-3-2.4-2.3-6.6 2-4.6 4.8-5.9 5.3-2.4.9 1.4-1.8 1.7-3 1.1-4.2-.7-1.1-.4-2.2 1.1-3.8 2-2.1 2-2.3.3-2.9-2.2-.9-9.5 3-13.2 6.9-2.5 2.6-2.6 2.8-1 4.4 1.6 1.6 1.8 1.5 4.2-.7 2.1-2 1.9-1.3-1.2 3.3-2.9 4.5-4.3 5.7-6.3 5.7-5.2 0-7.9 5.6-8.6 18-.2 2.5-.7 14.2-1.3 26-.5 11.8-1.2 26.7-1.6 33-.4 6.3-.2 17.6.3 25 .5 7.4.7 14.1.4 14.8-.3.8-1.3 1.1-2.4.8-1.1-.2-3.1-.1-4.4.4-1.9.8-2.4 1.7-2.4 4.4 0 1.8.6 3.6 1.3 3.9 2.5.9 12.2-.4 13-1.9.4-.7 2.1-1.4 3.7-1.4 1.9 0 3-.5 3-1.4 0-1.8-2.9-2.9-4.5-1.6-.6.5-1.5.7-1.8.3-.7-.7-1-15.3-.3-15.3.2 0 1.1.3 2 .6 1.2.5 1.3.9.3 2.5-1 1.7-.9 2.3.7 3.4 1.7 1.3 1.7 1.5.3 2.1-2.1.8-2.2 3.3-.2 4 2.2.9 4.7-1.5 4-3.7-.4-1.1-.2-1.9.4-1.9 1.9 0 1.2-2.8-1.1-4.4l-2.2-1.6h2.4c1.4 0 3.2-.5 4-1 1.3-.9 1.3-1.2-.3-2.4-1.7-1.3-5.7-1.5-9.7-.5-1 .3-1.6-.5-1.8-2.6-.3-2.4-.1-2.8.9-1.8 1.6 1.6 10.5 1.7 11.4.3.4-.6.2-1.7-.5-2.5-.9-1-.7-1.6.7-2.4 1.5-.8 1.6-1.3.6-2.9-.8-1.4-.8-2.3-.1-3 1.4-1.4.1-3.2-2.5-3.3-1.9 0-1.8-.2.6-1.1 4.7-1.7 3.1-4.2-2.9-4.6-6.3-.4-7.8 1-6.4 5.8.6 2.1.6 3.9 0 5.1-.8 1.4-.5 2.1 1 3.2 2 1.4 2 1.4-.4 2.5-2.3 1-2.3.9-2.8-4.6-.3-3.1-.3-8.1-.1-11l.6-5.2h5.7c3.6 0 6.2-.5 6.9-1.4 1.9-2.3-1.2-3.8-6.9-3.4-2.7.1-5 0-5-.5 0-.4 1.7-.7 3.8-.7 2 0 4.3-.4 5.1-.9 2.2-1.4.5-4.1-2.6-4.2-2 0-1.3-.4 2.5-1.5 3-.8 5.8-1.2 6.3-.8.5.3.9 1.9.9 3.6 0 2.2.5 3.1 2.1 3.5 2.1.6 2.2.9 1.6 13.7-.3 7.2-1.2 16-2.1 19.6-2.4 10.3-3.4 16.5-5.6 33-1.2 8.5-2.2 16-2.4 16.6-.3.6-1.8.9-3.5.6-4.2-.6-4.3 2.5-.1 4.1 3.6 1.4 3.7 2.8 1.6 16-1.2 7.5-2 9.6-5.2 13.7-3 3.9-4.1 4.7-5.4 4-1-.5-2-1.6-2.3-2.4-.8-2.1-8.4-4.3-9.9-2.8-1.4 1.4.5 4 3.9 5.3 2.6 1 3.1 2.9.7 2.9-2.7 0-8.4-4-9.9-7.1-1-1.7-2.4-2.9-3.6-2.9-1.1 0-3.7-.9-5.9-2-5.3-2.7-7.6-2.5-11.2 1-1.6 1.7-3.8 3.5-4.9 4-1 .6-1.9 2-1.9 3 0 1.1-.5 2-1.1 2-1.2 0-6.2-5.3-7.9-8.6-1.6-3 .1-5.4 3.7-5.4 3 0 13.5-9.8 18.9-17.6 3.2-4.7 3.9-5.2 4.9-3.7 1.6 2.2 6.8 1 6.3-1.5-.3-1.2-1.2-1.6-3.2-1.5-2.7.2-2.7.1-1.2-1.6.9-1 1.6-3.1 1.6-4.7s.7-4.2 1.5-5.8c.8-1.6 1.7-6.5 2-11 .3-4.4 1.1-12.1 1.7-17 1-8 1.5-9.4 4.6-12.8 3-3.4 3.3-4.2 2.8-7.5-1.1-6.2-1.4-40.5-.4-44.8 1.5-6.7 1.5-6.9-1.6-7.5-3.4-.6-3.7-2.4-.3-2.5 2.9 0 2.9-2.9 0-3.3-1.6-.2-2.3-1-2.3-2.5 0-1.6.3-1.8.9-.9.5.8 1.7 1.2 2.7 1 1.8-.3 1.9-1.6 2.1-17.8.5-37.3.7-41.3 2.1-41.8.8-.2 2.8-1.7 4.5-3.2 1.8-1.5 4.2-3 5.5-3.4 1.2-.4 2.6-1.5 3.2-2.5.5-1 2.4-2.1 4.1-2.5 6.4-1.3 7.3-3.7 3.2-8.6l-2.6-3.2 2.9-2.3c1.6-1.4 3.4-2.4 4.1-2.5 1.8 0 2.7 2 1.4 3.3-.6.6-1.1 1.7-1.1 2.4 0 1.6 4.7 4.7 7.4 4.9 3.9.2 9.6 1.6 10.1 2.4 1 1.7-2.7 1.9-6.5.4-3.9-1.6-3.9-1.6-12.6 2.8-9.1 4.5-11.4 6.8-13.6 14-.9 2.9-.8 4.1.2 5.3 1.2 1.4 1.9 1.1 6.1-3.1 4.4-4.3 4.7-4.9 3.4-6.4-1.9-2.1-1.1-2.8 5.9-5.9 6.4-2.8 11.6-1.5 6.6 1.7-2.1 1.3-2.7 4.7-1 5.7.6.4 2.6-.7 4.6-2.4 4-3.5 9.9-4.2 15-1.7 1.6.8 4.1 1.7 5.6 2 1.4.2 3.6 1 4.9 1.6 1.5.8 4.5 1 8.6.7 5.7-.6 6.4-.4 6.1 1.1-.2 1.2-1.1 1.6-3.4 1.4-3.4-.3-6 1.8-5 4.3.3.8 1.7 1.5 3.2 1.5 4 0 12 4.8 14.7 8.9 1.3 2 3.3 5.7 4.5 8.3 2.1 4.7 6.9 8.8 10.4 8.8 1 0 2.9 2.3 4.8 5.4 3 5.3 5.8 7.4 8 6.1.5-.3 1-.2 1 .4 0 .5 1.2 2.4 2.6 4.1 1.5 1.7 2.5 3.2 2.3 3.3-.2.1-1.3.7-2.4 1.3-1.5.8-2.1 2.3-2.3 6-.4 5.5-2.5 8.4-8.2 11.4-1.9 1-5.8 4-8.7 6.7-5.4 5-5.7 5.6-5.4 14.5.1 2.7 1 4.8 3.3 7.4 3.1 3.5 3.4 3.6 8.9 3.1 8.6-.8 14.1-3.7 19.1-10.1 5.9-7.6 12.8-19.9 11.8-21-1.3-1.3-2.7 0-5.7 5.2-1.5 2.6-5.1 7.9-8 11.9-5.5 7.4-6.3 8-16 9.9-2.6.5-3.7.1-5.9-2.1-2.3-2.3-2.6-3.2-2.2-7.6.6-5.9 3.8-9.8 11-13.5 5.2-2.7 11.8-10 11.8-13.3 0-1.4.9-2.5 2.5-3.1 2-.8 2.5-1.6 2.5-4.3 0-1.9-.9-4.6-2-6-2.5-3.1-2.5-3.3 0-4 1.1-.3 2.3-1.3 2.7-2.4.5-1.1 1.8-1.8 3.3-1.8 2.4 0 2.5-.3 2.2-4.8-.3-3.7-.1-4.7 1.2-4.7 2.8 0 2.6-1.8-.9-10-3.6-8.4-4-10-2.7-10 .4 0 1.6 2.1 2.7 4.6 2.5 5.7 4 7.1 6 5.4.9-.8 1.2-2.2.8-4.2-.5-2.5-.3-2.9 1.3-2.6 1.4.2 1.9-.3 1.9-2.2 0-1.7.7-2.7 2-3 2.5-.7 3.1-4.3 1-6-1.4-1.1-2-1.1-3.7-.1-1.6 1-2.3 1-3.7-.3-1.6-1.4-2.1-1.4-5.7.5-2.1 1.2-5.1 2.8-6.7 3.6-4.3 2.3-16.5 3.7-20.9 2.4-4.8-1.5-5.5-2.8-2.9-5.2 2.5-2.3 2.7-3.7.5-4.6-.8-.3-2.5.4-3.8 1.6l-2.3 2.2-1.6-2.3c-1.3-2-1.8-2.1-3.6-1.1-1.1.7-2.8 1-3.7.6-2.4-.9-3.6 1.8-1.7 3.9 2.1 2.3 3.2 2.3 4.1-.3l.8-2 1.8 2c1.8 2 1.7 2-1.5 3.4-3.1 1.2-3.6 1.1-6.9-1.1-2.5-1.7-3.4-3-3.1-4.5.4-2.6 1.9-3.7 3.7-3 2 .8 20.4-5.6 24-8.2 3.9-3 30.4-12.5 34.7-12.5 1.7 0 3.8.4 4.6.9 2 1.3 4.1.2 4.1-2 0-5.2-12-4.9-25.1.5-1.2.5-1.6 0-1.6-2.3 0-3.6 2.3-4.8 4.7-2.6 1.5 1.4 1.9 1.3 3.5-.5 1.7-1.8 2.7-2 11-1.5 5.1.2 10.4.9 11.9 1.5 1.5.5 3.7 1 5 1 1.2 0 4.3 1.3 6.8 2.9 2.5 1.6 5.6 3.2 6.9 3.6 3.7 1.1 5.1 2.6 3.9 4-.6.8-.5 1.8.4 3.1 1.2 1.6 1.7 1.7 3.9.5 3-1.6 4.7-.8 4 1.8-.6 2.4 1.3 3.6 3.2 2.1 3.1-2.6 1.8-6.3-3.6-10.5-4.6-3.7-5-4.3-4.4-7.3.5-2.7.3-3.2-1.4-3.2-1.1 0-2.5.9-3.1 2-.6 1.1-1.5 1.8-2 1.5-.6-.4-.3-1.7.7-3.1 1.1-1.8 1.3-2.8.5-3.6-1.6-1.6-4.2-.2-4.2 2.2 0 1.1-.6 2-1.4 2-2.1 0-3.4-2.3-2.5-4.5 1.2-3.1 1.1-3.5-1.1-3.5-1.1 0-2.3.7-2.6 1.5-1 2.5-4.3 1.8-5.4-1.1-.8-1.9-1.5-2.4-2.8-1.9-3.1 1.3-4.7 1-4.6-.8.2-1.9-.7-2.2-2.3-.6-.8.8-1.9.6-4.1-.5-2.7-1.4-3.5-1.4-7.2-.1-6.8 2.4-13.5 1.9-20.4-1.4-3.4-1.6-9-4.3-12.7-6-5.3-2.5-7.3-4.1-11.1-9.2-4.3-5.8-5.9-9.9-10.4-26.9-.3-.8-1.3-2.6-2.4-4l-2-2.5-1.8 2.4c-1.5 1.9-2.4 2.2-4.3 1.5-1.3-.5-3.2-.9-4.1-.9-1 0-1.8-.5-1.8-1 .1-.6 1.7-.9 3.8-.7 5.3.5 7.8-2.3 6.3-7-2.3-6.8-6.2-25.6-7.1-33.8-2.8-24.7-3.7-28-8.1-28-1.8 0-1.9-.2-.9-1.5 1.7-2 4.3-1.9 9 .4zm-100 .1c0 .5-1.3 1-3 1-1.6 0-3-.5-3-1 0-.6 1.4-1 3-1 1.7 0 3 .4 3 1zm86.7 3.3c1.7 2.8 1.8 3.5.6 4.6-1.1 1-1.1 1.6-.2 2.7.7.9.8 1.4.1 1.4-.6 0-2.7-1.9-4.7-4.2-2-2.4-4.6-4.9-5.8-5.6-2.1-1.2-2-1.2.9-.7 2.1.4 3.5.1 4.4-.9 1.5-1.9 2.3-1.5 4.7 2.7zm30-1.1c1.2 1.3 2.3 3.2 2.5 4.3.2 1.3 1.1 2 2.5 2 3.1 0 2.4 1.7-1.5 3.7-2.8 1.4-3.1 1.4-2 .1 1-1.3.9-1.8-.7-3-1.1-.7-1.9-2.3-1.7-3.3.2-1.4-.4-2.1-2.2-2.6-2.6-.6-3.2-1.5-1.9-2.7 1.2-1.3 2.9-.7 5 1.5zm43.1.4c1.8.5 2 .9 1.1 2-.6.8-1.9 1.4-2.8 1.4-1.7-.1-5.1-2.3-5.1-3.4 0-.8 3.8-.8 6.8 0zm-115.7 2.5c-2.5.3-4.6 1-4.8 1.5-1.1 3.2-2.2 3.8-4.7 2.6-2.8-1.2-7.6-.1-7.6 1.7 0 1.1 3.4 3.2 4.7 3 2.1-.4 3.3.2 3.3 1.6 0 1.2-1.4 1.5-6.3 1.5-6.2 0-11.1 1.9-9.4 3.6.4.5 3.4.9 6.5.9 4.6 0 5.7.3 6 1.7.3 1.5-.4 1.8-4.3 1.8-8.1 0-11.8 3.6-4.2 4.2 2.9.2 4.2.8 4.2 1.8 0 1.1-1.5 1.6-5.5 2-4 .4-5.5.9-5.5 2s1.4 1.6 5.8 1.8c5.6.3 7.3 1.4 4.1 2.6-.9.4-2.5.4-3.6 0-2.1-.6-5.1 1.3-4.2 2.7.3.5 1.8.9 3.4.9 1.6 0 3.2.4 3.5 1 .3.5-.3 1-1.3 1-2.2 0-4.6 2.3-3.5 3.3.3.4 1.5.7 2.5.7 1.4 0 1.8.8 1.8 3.8 0 4 2.3 8.3 3.7 6.9.4-.5.8-1.6.8-2.5 0-.9.7-1.8 1.6-2 1.8-.3 3.3 3.8 2.4 6.7-.8 2.7-6 5.3-9.1 4.5-2-.5-3.1-.2-4 1.1-1.5 2-1.2 2.2-2.9-3.1-.5-1.4-1.5-1.6-5.9-1-4.3.5-5.5.3-6-.9-1.3-3.4 2.4-6.6 5-4.4 1.9 1.6 4.4.4 4.4-2.1 0-1.1-.4-2-.8-2-.5 0-.8-1-.8-2.3.1-1.5-.4-2.1-1.5-1.9-1.1.1-2.7-1.6-4.7-5-1.6-2.9-5.5-8-8.6-11.3-3.1-3.3-6.3-7.4-7.1-9-.9-1.7-2.1-3.8-2.8-4.8-1-1.4-.9-1.9.2-2.6 1.9-1.2.5-3.1-2.4-3.1-2.6 0-4.1-1.9-4.6-5.9l-.4-2.4 28-.3c15.4-.2 30-.7 32.5-1.2 2.5-.4 5-.6 5.5-.3.6.3-1 .8-3.4 1.2zm206.9.9c0 .5-.2 1-.4 1-.3 0-.8-.5-1.1-1-.3-.6-.1-1 .4-1 .6 0 1.1.4 1.1 1zm-175.5 2c.3.5.1 1-.4 1-.6 0-1.1-.5-1.1-1 0-.6.2-1 .4-1 .3 0 .8.4 1.1 1zm188.3 5.2c3.8 1.9 2.8 4.1-1.5 3.4-8.3-1.2-11.7-2.2-12-3.3-.8-2.3 8.8-2.3 13.5-.1zm-181.8 2c1.3 2.2 2 5.1 2 8.7 0 5-.1 5.3-2.2 4.7-1.3-.3-3.1-.6-4-.6-1 0-1.8-.6-1.8-1.4 0-.9.7-1.2 1.8-.9 1 .2 2.4-.2 3.1-1.1 1-1.2.9-1.7-.8-2.8-1.4-.9-1.7-1.6-1-2.5 1.5-1.8.2-3.3-2.9-3.3h-2.7l2.5-2c3.3-2.6 3.7-2.5 6 1.2zm11 3.8c0 .5-.7 1-1.5 1s-1.5-.5-1.5-1c0-.6.7-1 1.5-1s1.5.4 1.5 1zm167.8 2.2c1.2 2.4 1.1 27.5-.1 29.4-.8 1.4-7.9.3-8.5-1.4-.2-.7.5-1.2 1.7-1.2 2.8 0 2.7-2.7-.1-3.6-2.1-.6-2.1-.7-.2-2.1 1.9-1.4 1.8-1.4-.5-3.2-2.3-1.8-2.3-1.8-.2-2.4 2.7-.7 2.7-2.1-.1-3.5l-2.3-1.1h2.3c2.3-.1 3-1.5 1.2-2.6-.8-.5-.7-1.2.2-2.3 1-1.2 1-1.6.1-1.9-1-.4-1-.9 0-2.6 2.4-4.3 4.8-4.8 6.5-1.5zM310 364c0 .5-.2 1-.4 1-.3 0-.8-.5-1.1-1-.3-.6-.1-1 .4-1 .6 0 1.1.4 1.1 1zm-40 2.9c0 .9-4.1 2.3-4.8 1.6-.2-.2-.1-.8.3-1.4.8-1.3 4.5-1.5 4.5-.2zm134.5 5.6c.9 2.5 1.4 5.3 1 6.3-.4 1.2-1.2.2-2.5-3.8-2.2-6.3-2.3-7-1.1-7 .4 0 1.6 2 2.6 4.5zm-144 6.2c1.4 13.9 8.1 45.1 11.2 52 3.8 8.3 10.9 19.8 14.8 23.7 6.5 6.6 20 12.3 21.2 8.9.2-.6-.8-2.2-2.3-3.6-1.8-1.7-2.2-2.7-1.4-3.2 1.7-1 5.6.2 14.3 4.6 4.3 2.1 8.9 3.9 10.2 3.9 5.2 0 2.1 1.8-6.1 3.5-8 1.7-9.1 1.7-16.6.2-8.7-1.7-12.1-1.1-11.7 2.1.2.9-.5 3.4-1.4 5.6-.9 2.1-1.4 4.2-1.1 4.7.9 1.6 4.5-1.1 5.6-4.2.6-1.8 1.7-2.9 2.8-2.9 1.7 0 1.6.4-.7 4.5s-2.3 4.6-.7 5.2c2.1.8 6.4-3.8 6.4-6.8 0-1.3.7-1.9 2.1-1.9 1.6 0 1.9.4 1.4 1.7-.4 1-1 2.9-1.3 4.1-.4 2-.1 2.3 1.9 2 1.7-.2 2.7-1.3 3.5-3.8.7-1.9 1.5-3.5 2-3.5 1.2 0 2.5 5.9 1.4 6.3-.6.2-3.2 1.9-5.9 3.8-8.6 5.8-15.9 7.8-29.2 7.7-14 0-23.3-2.6-27.4-7.4-2.9-3.6-3.1-4.7-.9-7.7.9-1.3 1.4-3.2 1.1-4.3-.6-2.2.1-2.3 3.9-.9l2.7 1.1-3.4 1.8c-3.6 2-5 5.5-2.5 6.4 1 .4 2.6-.6 4.3-2.8 1.6-1.9 3.6-3.5 4.6-3.5 2.1 0 2.1.4.2 3.4-1.4 2.1-1.4 2.5.1 3.7 1.4 1.2 1.9 1 3.8-1.4 2.7-3.4 4.6-3.5 4.6-.2 0 2.6 1.4 3.1 3.9 1.6 1.1-.7 1.2-1.3.3-2.4-.9-1.1-.6-1.8 1.8-3.5 1.8-1.4 2.7-1.7 2.4-.8-.3.8 0 1.7.7 2.2 1.5.9 4.9-3 4.9-5.6 0-2.7-3.9-3.2-6.8-.9-2.9 2.3-5.8 2.5-6.6.4-.3-.9-1.2-1.2-2.2-.8-1 .4-2.2-.1-3-1.2-1-1.3-2.1-1.6-4.6-1.1-4.4.8-8.4-1.3-8.1-4.2.2-1.6-.3-2.2-1.6-2.2-3.9 0-8.8-2.9-9.3-5.4l-.5-2.5 4.6 2.6c2.5 1.4 5.5 3.1 6.6 3.8 3.2 1.9 7.3 2.6 8.1 1.4.9-1.5-5.5-7.9-8-7.9-2.2 0-10.6-4.7-10.6-5.9 0-.5 4.2.9 9.3 3 5 2.1 10 3.9 11 3.9 3.3 0 1.2-2.5-3.9-4.5-7.1-2.9-15.6-8.4-14.8-9.6.4-.7 1.2-.5 2.2.5 1 .8 3.4 1.7 5.5 2.1 5.6 1.1 4.9-1.8-1-4-6.2-2.3-6.3-2.4-5.5-6.4.7-3.2 1.1-3.5 4.2-3.5 3.4-.1 3.5-.2 3.5-4.1 0-3.2-.5-4.2-2.2-5-3.1-1.3-2.9-2.1.7-2.9 3.7-.7 3.9-2.3.5-3.6-3.5-1.3-3.1-3 .6-3 2.3 0 3-.4 2.7-1.7-.2-.9-1.4-2-2.8-2.4-2.4-.7-2.4-.7.8-1.4 4-.9 4.1-2.2 0-3.9l-3.1-1.3 3.7-1.3c4.4-1.4 4.3-3.4-.2-3.8-3.7-.4-4.4-2.2-.8-2.2 2.4 0 5.3-2.5 3.9-3.3-.4-.2-2-.7-3.5-1.1-3.9-.9-3.7-3.6.2-3.6 2 0 3-.5 3-1.5 0-.9-1.2-1.8-3-2.2-3-.5-4.2-2.3-1.7-2.3.7 0 2.2-.7 3.3-1.5 1.6-1.3 1.7-1.6.4-2.5-.8-.5-2.5-1-3.7-1-3.5 0-2.7-1.8 1-2.3 1.7-.2 3.7-.5 4.4-.5.7-.1 1.4 2.3 1.8 6.5zm9.5-3.2c0 .8-.9 1.5-2 1.5-2 0-2.6-1.1-1.3-2.3 1.2-1.3 3.3-.7 3.3.8zm91 2.7c0 .5-2.3 3-5 5.6-2.9 2.8-4.8 5.5-4.6 6.3.3.8-.6 2.7-1.9 4.3-2.2 2.8-2.6 2.9-4.9 1.6-2.4-1.2-2.4-1.4-.8-2.6 2.3-1.7.8-2.9-3.6-2.9-2.8 0-3.6-.4-3.3-1.5.2-.8.5-2.6.6-4 .1-1.8.8-2.6 2.6-2.8 1.3-.2 3-.9 3.7-1.4 1.4-1.2 3.8.4 4.7 3.3.4 1 1.2 1.9 2 1.9 1.9 0 2.7-3.3 1.5-6.4-.9-2.5-.8-2.6 1.4-2 1.8.4 2.7 0 3.6-1.6 1.1-2.1 1.2-2.1 2.5-.3.8 1 1.5 2.1 1.5 2.5zm5-2.2c0 .5-.5 1-1.1 1-.5 0-.7-.5-.4-1 .3-.6.8-1 1.1-1 .2 0 .4.4.4 1zm53 10.3c0 4.5.2 9.5.3 11.2.1 2.1-.2 2.9-1.2 2.7-.7-.2-2.2.5-3.2 1.4-1.6 1.5-1.7 1.5-1.2-.5.3-1.2 1.2-2.1 1.9-2.1 1.9 0 3-3 1.5-3.9-.6-.4-1.3-3.4-1.6-6.6-.3-3.3-.8-6.8-1.1-7.8-.8-2.5 1.4-5.1 3.2-3.6.8.7 1.3 3.8 1.4 9.2zm-269.7 1.6c3.1 3.6 5.7 6.8 5.7 7.2 0 .4-1.5 1.2-3.2 1.9-10.7 4.2-14 7.5-16.3 16.2-1.9 7.4.8 12.8 5.6 11.3 1.3-.4 1.9-.3 1.5.3-.3.5.1 3.1.9 5.8.9 3.1 1.1 5.2.5 5.8-.6.6-1 1.8-1 2.8 0 2.3-1.9 2.3-2.6 0-.3-.9-1-2.5-1.5-3.5-.7-1.3-.6-2.3.2-3.3.9-1.1.8-1.8-.6-3.4-1-1.1-2.3-2-2.8-2-.6 0-2.1-1-3.4-2.2-3.3-3.1-2.9-7.3 1.2-13.8 3.9-6 4.2-7 2-7-.8 0-3.3 2.8-5.5 6.2-2.2 3.5-4 5.7-4 5 0-2.7 4.2-9.3 9-14 2.7-2.7 4.7-5.2 4.4-5.5-.4-.3-2-.3-3.8 0l-3.1.6 3-3.3 3-3.2-3.1.4c-2.4.3-3.1 0-3-1.1.1-1-.7-1.6-1.9-1.6-1.1-.1-2.6-.4-3.3-.9-.9-.5-2.4-.1-4.2 1.3l-2.9 2.1-3.6-2.1c-2-1.2-3.3-2.5-2.8-2.9 1.6-1.5 11.6-4.2 19.6-5.4 7.1-1.1 8.3-1.1 9.2.2.6.8 3.6 4.4 6.8 8.1zm237.6-3.4c2.3 4 4 4.5 4.8 1.5l.6-2.1 1.8 2c1.1 1.2 2.6 1.8 3.5 1.4 1.5-.5 3.3 1.1 3.4 2.9 0 .5-1.2.8-2.7.8-4 .1-10.4 3.2-15.2 7.5-2.9 2.6-5.6 7-9.6 15.3-9.1 18.9-15.7 23.8-24.2 17.9-1.8-1.2-3.3-2.5-3.3-2.8 0-.3 3-1.1 6.6-1.9 8.3-1.6 10.7-3.8 16.8-15.3 5.5-10.1 4.7-11.9-2.8-6.8-2.4 1.7-4.9 3.1-5.4 3.1-.6 0-1.9 1.2-3.1 2.7-1.9 2.6-2.1 2.7-3.7 1.1-1.4-1.4-1.5-2-.5-3.2 1-1.1.9-1.9-.1-3.5-1.8-2.9 0-4 2.1-1.3 2 2.7 2.2 2.5 6-4.8 2.7-5.1 5.7-8.7 8.5-10.2 1.5-.8 2.5-.3 5.2 2.3 2.6 2.5 3.7 3 4.6 2.1.9-.9.8-1.6-.5-3-1.8-1.9-2.3-4.2-.9-4.2.4 0 1.9 1.4 3.4 3.2 1.9 2.3 3 3 3.7 2.3.8-.8.3-2.2-1.4-4.7-2.8-4.2-3.1-5.8-1.1-5.8.8 0 2.3 1.6 3.5 3.5zm-115.8-1c0 1.3-4.1 1.9-4.1.7 0-1.1 2-2.2 3.3-1.8.5.1.8.6.8 1.1zM215 387c0 .5-.2 1-.4 1-.3 0-.8-.5-1.1-1-.3-.6-.1-1 .4-1 .6 0 1.1.4 1.1 1zm-104 2.5c1 1.2.9 2-.4 4-.9 1.4-2.3 2.5-3.2 2.5-1.2 0-1.4-.7-.9-3.3 1.2-5.2 2.2-6 4.5-3.2zm161 1.9c0 .6-1.1 1.1-2.5 1.3-1.9.3-2.5-.1-2.5-1.6 0-1.6.5-1.8 2.5-1.3 1.3.4 2.5 1.1 2.5 1.6zm134-.4c0 .5-.5 1-1.1 1-.5 0-.7-.5-.4-1 .3-.6.8-1 1.1-1 .2 0 .4.4.4 1zm-77.2 5.6c-.4.3-1.2-.5-1.8-1.8-1.2-2.2-1.2-2.2.6-.6 1 1 1.5 2 1.2 2.4zm28.9-1.7c1.4 2.3.5 3.5-1.4 2-1.4-1.2-1.8-3.9-.5-3.9.4 0 1.3.9 1.9 1.9zm45.6 1.8c1.1.6-1.2 4.3-2.8 4.3-.7 0-1.7-.9-2-2-.3-1.1-1-2-1.4-2-1.6 0-3.1 2.8-2.5 4.4.8 2.1-.4 2.1-2.8-.1-2.7-2.4-2.3-3.1 3-4.6 4.2-1.3 6.1-1.3 8.5 0zm39.4 1.5c2.4 2-2.2 3-9.9 2.3-7-.7-7.7-1.2-5.5-3.4 1.5-1.6 13.2-.8 15.4 1.1zm-171.7-.8c0 .3-.4.8-1 1.1-.5.3-1 .1-1-.4 0-.6.5-1.1 1-1.1.6 0 1 .2 1 .4zM123 400c0 .5-.4 1-.9 1-.6 0-1.3-.5-1.6-1-.3-.6.1-1 .9-1 .9 0 1.6.4 1.6 1zm7 .2c0 .7-1.1 2.6-2.5 4.3l-2.5 3 1.1-3c1.5-4.4 3.9-7 3.9-4.3zm87.8 1.2c.3 1.3-.1 1.7-1.4 1.4-1.1-.2-2-1.1-2.2-2.2-.3-1.3.1-1.7 1.4-1.4 1.1.2 2 1.1 2.2 2.2zm170.2.9c0 1.2.7 3.3 1.6 4.5 2.6 3.8.5 4-2.6.2-2.1-2.6-2.6-3.9-1.9-5.2 1.3-2.5 2.9-2.2 2.9.5zm20 .7c-.5 1-1 3.2-1 4.8 0 1.7-.9 3.7-2.4 5.1-1.3 1.2-2.9 4.3-3.5 6.7-1.3 5.1-2.6 5-3.5-.1-.6-2.8-.1-4.8 2.1-9.2 1.5-3 3.8-6.6 5.1-8 2.5-2.8 4.8-2.3 3.2.7zm-258.2 1.7c-1.4 1.6-4 5.4-5.7 8.6-4.5 8-6 6.4-2.6-2.8 1.3-3.2 6.7-8.5 8.9-8.5 1.8 0 1.8.2-.6 2.7zm181.2-1.2c3.2 1.6 4 3.5 1.5 3.5s-6.5-2.3-6.5-3.7c0-1.7 1.4-1.7 5 .2zm-55.9.5c1.1 0 1.7.4 1.4 1-1.1 1.7-6.5 1.2-6.5-.6 0-1.1.5-1.4 1.6-1 .9.3 2.5.6 3.5.6zm167.7 1.2c.7.7 1.2 2 1.2 3 0 1.5-.9 1.8-4.7 2-2.7 0-5.5 0-6.3-.1-.8-.1-2.8-.2-4.3-.2-2.4 0-2.6-.3-1.6-1.5.6-.8 2.1-1.4 3.3-1.4 1.2 0 3.1-.7 4.2-1.5 2.3-1.8 6.6-1.9 8.2-.3zm-46.7 5.7c-1.2 2.2-2.1 5.7-2.1 7.8 0 5.1 3.8 12.7 6.6 13.1 1.2.2 3 1.2 4 2.3.9 1 2.3 1.9 3 1.9 1.5 0 7.4 3.3 7.4 4.1 0 1.2-9.5 6.7-12.7 7.4-1.8.4-3.3.4-3.3.1 0-.3 1.8-2.2 4-4.3 4.1-3.6 4.9-6.8 1.8-6.8-.9 0-2.6-.9-3.7-1.9-2-1.8-2.3-1.8-8.4-.2-5.3 1.4-9.7 1.4-9.7 0 0-.2 1.8-2.2 3.9-4.4 3.9-4.1 4.4-5.3 5.6-14 .6-4.7 4.5-12.4 5.2-10.3.2.6-.5 3-1.6 5.2zm-229.3.1c1.5 0 1.4.3-.4 1.8-1.2.9-2.4 2.5-2.8 3.5-.9 2.6-4.4 1.8-6.4-1.5-1.3-2.2-1.4-3.1-.4-5.2l1.2-2.6 3.5 2c2 1.1 4.3 2 5.3 2zm222.2 7.4c0 1.3-.8 3.4-1.8 4.6l-1.7 2.1-2.4-2.5-2.4-2.5 2.7-1c3.2-1.3 3.2-1.6.1-5.3-4-4.8-2.9-6.2 1.5-1.8 2.4 2.4 4 4.9 4 6.4zm-202.3-7.2c1.5 1.2 1.8 3.8.4 3.8-.5 0-1.4-.7-2.2-1.6-.8-1-2.1-1.3-3.7-.9-2.4.6-4.1-.6-4.2-2.9 0-1.1 8 .2 9.7 1.6zm23.3 1.9c0 .5-.9.9-2 .9-1.9 0-2.7-2-1.3-3.3.7-.8 3.3 1.1 3.3 2.4zm-9.2 1.9c2.3 3.4 2.9 6 1.3 6-.5 0-1.4-1.3-2.1-3-.7-1.6-1.8-3.5-2.6-4.1-.8-.6-1.4-1.6-1.4-2.1 0-1.8 2.5-.1 4.8 3.2zm-50.7-.7c-1 .9-1.1.8-.5-.6.3-1 .9-1.5 1.2-1.2.3.3 0 1.1-.7 1.8zm187.4-1.3c-.3.5-1 1-1.6 1-.5 0-.9-.5-.9-1 0-.6.7-1 1.6-1 .8 0 1.2.4.9 1zm105.3 2.7c-.2 1-1.4 2-2.7 2.1-1.4.2-3.4 1-4.6 1.8-1.9 1.2-2.4 1.2-3.4 0-.9-1.1-.5-1.8 2.1-3.5 4.2-2.6 9.1-2.9 8.6-.4zm-167.3 2c1 1.6 3.1 3.9 4.7 5.2 2.3 1.8 2.6 2.6 1.7 3.7-1.7 2-.3 4.4 2.6 4.4s3.3 1.7.8 3.5c-1.7 1.2-1.6 1.5.3 5.2 1.2 2.1 2.4 5.4 2.7 7.3l.7 3.5-2-2.4c-3.6-4.2-11-18.7-12.5-24.3-.7-2.9-1.7-6.1-2-7.1-1.1-2.7 1.1-2 3 1zm-82.3-.3c.7-.4.8-.2.4.4-1.1 1.8-2.6 1.4-2.5-.6 0-1 .3-1.2.6-.4.2.6 1 .9 1.5.6zm-68.3 5.7c2.7 5 2.7 6.9.1 3.6-1.1-1.4-2-3.3-2-4.3 0-.9-.8-2.7-1.7-3.8-1.6-1.8-1.6-1.9-.1-.8.9.8 2.6 3.1 3.7 5.3zm293.8-1.4c-1.1 1-3.7-1.2-3.7-3.1.1-2.1.1-2.1 2.1.3 1.1 1.3 1.8 2.6 1.6 2.8zm-204.5-.4c1 1.6 1 3.7 0 3.7-2.3 0-6.2-2.7-6.2-4.4 0-1.5.5-1.7 2.7-1.1 1.5.3 3.1 1.2 3.5 1.8zM311 420c0 1.3-4.1 2.2-8.1 1.7-3.2-.4-3.1-.4.8-.5 2.3-.1 4.5-.7 4.8-1.2.8-1.3 2.5-1.3 2.5 0zm-145.1 2.9c.9 1.5.7 2-.9 2.4-1.6.4-2 0-2-1.9 0-2.9 1.5-3.1 2.9-.5zm149.4 2.6c.1.6-1.4 1.1-3.3 1.3l-3.5.2 2.5-1.5c2.7-1.5 4-1.5 4.3 0zM441 425c0 1.4-3.9 3.2-5.6 2.6-1.9-.7-1.8-2.4.4-2.9 3.1-.8 5.2-.7 5.2.3zm-356.6 4.6c-.2 6.7-.4 7.4-1.9 7.4-1.6 0-2.1-5.3-.9-9.8 1-3.6 2.9-1.9 2.8 2.4zm334.6-1.1c0 3.9 0 3.9-3.5 2.3-2.9-1.3-3.2-3.3-.7-4.7 3.1-1.9 4.2-1.3 4.2 2.4zm-231-.9c0 .8-1.9 1.3-2.4.6-.3-.5.1-.9.9-.9s1.5.2 1.5.3zm28.8 4.4c.3.9-.5 1-2.9.5-3.9-.8-5.4-1.9-4.5-3.4.8-1.2 6.8 1.1 7.4 2.9zm165.7-1.9c-1 1.5-2.5 1-1.9-.6.4-.8 1-1.2 1.5-.9.5.3.7 1 .4 1.5zm-215.5.5c0 1.7-2.2 1.4-2.8-.4-.2-.7.3-1.2 1.2-1.2.9 0 1.6.7 1.6 1.6zm37.3 1.6c.6 2.1.2 3.6-.7 2.7-1-1.1-1.6-4.9-.8-4.9.5 0 1.2 1 1.5 2.2zm173.6-1.3c.9.6 1 1.1.2 1.5-1.3.8-3.1-.1-3.1-1.5 0-1.1 1.1-1.1 2.9 0zm-255.7 2.7c1 2.2.9 3.2-.9 6.5-2.7 4.9-1.8 5.7 2.2 1.9l3.2-3.1 3.8 3.1c3.6 2.9 5.1 3.5 10 4.2 3.1.5 2.4 3.2-.8 3.6-3.2.4-6.1 4.3-7.8 10.5-1.3 4.9 1.1 11.6 5.3 15.2 2.9 2.5 4.9 2.4 7.9-.2 1.5-1.2 1.6-1.1 1.2 1-.3 1.4 0 2.8.6 3.1.8.5.6 1.6-.4 3.6-1.7 3.2-2 8.7-.6 10.9.6 1 .5 2.2-.5 3.5-1.6 2.3-1.9 8.6-.4 8.6.6 0 1 .4 1 1 0 .5-.6 1-1.4 1-1.9 0-4 2.6-2.6 3.5.5.3.7 1.7.4 3-.5 1.9 0 2.5 2.3 3.2 2.8 1 2.8 1 .5 1.7-1.4.5-2.2 1.4-2 2.4.3 1.3 1.4 1.7 5.1 1.6 5.7 0 6.2 1.2.8 2.1-4.3.7-6.7 2.7-5.6 4.5.7 1.1 3.7.9 11.6-.6 1.8-.3 2.8 0 3.2 1 .5 1.1-.1 1.5-2.1 1.4-1.5 0-4.9.8-7.5 1.7-5.5 2-6.1 4.6-1.2 5.6l3 .6-2.8 1.1c-1.9.8-2.7 1.8-2.5 3 .4 2 4.3 1.9 9.7-.4 1.9-.8 4.1-1.2 4.8-1 2 .8.4 3.3-2.5 3.9-8.5 1.6-12.7 3.4-12.7 5.3 0 1.6.6 1.9 3.5 1.7 1.9-.2 5.4-.8 7.8-1.4 2.3-.7 4.6-.9 5-.5 1.3 1.4-3 3.5-8.4 4.2-2.9.3-5.9 1.2-6.5 2-1.4 1.7-.2 2.2 6.6 2.6l5 .3-4 .8c-2.2.5-5 1-6.2 1.3-2.5.5-3.1 2.9-1 3.7.8.3 4.2.2 7.6-.2 7.2-.9 8.1.9 1 2.2-8.1 1.4-8.9 1.7-8.9 3.3 0 1.4 1.1 1.6 7 1.2 9.5-.5 8.9 1.4-1.2 3.6-2.9.7-3.8 3-1.4 3.9.7.3 3.3.3 5.6 0 6-.8 4.9 1.7-1.6 3.8-7.1 2.3-6.6 4.5.9 4.1 5.1-.2 5.8 0 5.5 1.5-.2 1.1-1.8 2-4.3 2.6-6.7 1.4-6.9 1.5-5.5 3.2.8.9 3 1.5 5.6 1.5 6.5 0 5.3 1.7-1.8 2.7-4.6.6-6.3 1.2-6.3 2.3 0 1.2 1.4 1.5 6.5 1.6 3.5.1 6.6.6 6.8 1.2.2.6-2.4 2-5.8 3.3-6.5 2.3-7.8 3.5-6.2 5.1.7.7 2.3.8 4.9.1 2.1-.6 4.4-1.2 5.2-1.4.8-.2 1.6.3 1.8 1.3.3 1.3-.8 1.9-5.1 2.9-6.8 1.5-8.1 2.3-7.2 4.4.4 1.3 1.3 1.5 3.2 1.1 1.5-.4 2.3-.3 2 .3-.4.5-2 1.2-3.6 1.6-6.2 1.4-4.3 4.9 2 3.9 1.9-.3 4.3-.8 5.3-1.1.9-.2 1.7 0 1.7.5s-3.4 1.9-7.5 3.1c-5.1 1.6-7.5 2.8-7.5 3.8 0 1.3.9 1.4 5.7.8 3.1-.4 6.3-.9 7.1-1.2 1-.4 1.3 0 1 1.2-.2 1.3-2.1 2.4-5.8 3.5-7.5 2.2-10.5 3.9-9.2 5.2.7.7 2.8.6 6.6-.2 5.9-1.2 7.8-.8 7 1.5-.3.8-3.5 1.8-7.7 2.6-11.3 1.9-13.1 4.9-3 4.9 6.6 0 6.5.6-.3 2.3-6 1.5-7 4.3-1.4 4 3.9-.3 3.8-.3-5.3 3.5-4.3 1.8-4.4 3.8-.1 3.5 2.8-.2 2.7-.1-.8 1.5-5 2.2-4.2 3.8 1.6 3.4l4.7-.3-4 3.7c-2.3 2-4.1 4.3-4.1 5 0 2.4 3.7 1.5 5.5-1.3 1.7-2.5 1.9-2.6 2.5-.8.4 1.1 1.9 2.2 3.3 2.5l2.6.5-2 5.5c-3.2 9.2-2.9 8.7-4.4 6.7-1.1-1.6-2.1-1.8-5.7-1.2-5.2.9-7 2.2-6.3 4.6.6 1.9-2 3.9-5.1 3.9-1.3 0-1.4-.3-.4-1.5 1.8-2.2-.2-4.2-5.1-5-5.7-1-4.9-2.7.9-1.9 3.7.5 5.1.2 6.1-.9 1-1.3.9-1.7-.7-2.6-1.1-.6-3.8-1.3-6.1-1.7-5.8-.9-5.7-3.6.2-2.8 3.2.5 4.6.2 5.6-1 1.1-1.3.9-1.7-1.4-2.6-2.4-.9-2.5-1.1-1-2.6 1.9-2 1.1-3-3.3-4.1-3.2-.8-4.5-2.7-1.9-2.9 3.3-.3 3.7-.5 3.7-2 0-.9-.9-1.8-2-2.1-2.4-.6-2.6-2.8-.4-3.7.9-.3 1.4-1.5 1.2-2.8-.2-1.5.4-2.7 1.7-3.3 2.1-1.1 4.1-9.3 2.7-10.7-1.2-1.2-4.2.1-4.2 1.8 0 1.6-3.6 3.7-5 2.9-1.2-.7-.3-13.5 1.5-21 2.6-11.5 2.7-13.2.7-15.2-1-1-2.2-2.6-2.5-3.6-.8-2.2-3.5-1.9-5.1.5-.8 1.3-.5 2.4 1.2 4.8l2.3 3-2.1 8.4c-1.1 4.6-2 9.8-2 11.5 0 3.4-1.1 3.9-3 1.6-1.1-1.3-1-1.8.4-2.8 2.1-1.5 1.6-7.5-.8-9.2-1.3-1-1.6-3.4-1.6-15.4 0-13.3.1-14.1 1.9-14.1 3.1 0 3.7-2.1 1.1-4.2l-2.3-1.9 2.1-1.5c2.9-2 2.8-3.2-.4-4.4-3.1-1.2-2.4-2.5 2.2-4 4.7-1.6 4.3-4.5-.6-4.5-3.3 0-3.5-.2-3.5-3.4 0-2.2.6-3.6 1.5-3.9 1.3-.4 1.3-.3.2 1.1-1.7 2-.8 3.7 1.9 3.7s3.7-3 1.4-4.3c-1.8-.9-1.8-1 0-2.3 2.3-1.7 1.3-4.9-1.3-3.9-3.9 1.5-3.3 5-5.2-30-.5-10.5-1-22.7-1-27.3 0-7.9-.1-8.3-2.5-9.2-1.4-.5-2.5-1.6-2.5-2.5 0-1.1.6-1.4 2.5-.9 2 .5 2.5.2 2.5-1.3 0-1.6.5-1.9 3-1.5 2.3.3 3 0 3-1.2 0-.9-.6-1.7-1.2-1.7-1.8-.2-2.1-.1-4 .6-1.3.5-1.9-.4-3.1-4.7-2.8-10-3.3-28.8-.8-28.8 1.6 0 3.8 13.3 2.8 16.7-.6 1.7-.6 4-.2 5 .5 1 .9 3.4.9 5.3.1 3.4.2 3.5 4.1 3.5 2.9 0 4-.4 4-1.5 0-.8.4-2.1.9-2.8 1-1.7.3-2.4-2.6-2.7-1.3-.1-2.6-.3-3-.4-.4 0-.4-3-.1-6.6.4-4 .1-8.6-.7-11.9-1.1-4.8-1-5.6.8-9.2 1.1-2.1 3.8-5.5 5.9-7.4 5.3-5 7.1-8.6 5.5-11.1-.8-1.2-.8-1.9-.2-1.9.6 0 1.6 1.2 2.2 2.6zm313.1-.6c.5.4.7 3.1.5 6.1-.3 4.7-.6 5.4-2.6 5.7-1.4.2-2.1-.1-2-.9.2-.7-.8-1.5-2.2-1.8-2.5-.6-3.3-3.2-1.7-5.8.5-.7-.1-1.7-1.5-2.4-2.2-1.2-2.2-1.2-.3-2 2.2-.8 8.5-.1 9.8 1.1zm-361.6 1.6c-.9.9-2.8-.6-2.1-1.8.4-.6 1-.6 1.7.1.6.6.8 1.3.4 1.7zm35.8 6.1c2.6-.4 3.5-.2 3.2.6-.2.7-1.4 1.4-2.8 1.5-1.3.2-2.8.8-3.3 1.3-1.3 1.2-3.9 1.2-3.1 0 .3-.6-.3-1.8-1.3-2.8-1.1-1-2.2-2.9-2.5-4.2-.5-2.2-.4-2.2 2.8.9 2.9 2.8 3.9 3.2 7 2.7zm42.4-2.2c-.9.8-2.2 1-3.4.5-1.8-.6-1.7-.8 1-2.3 3.2-1.6 4.8-.5 2.4 1.8zm202.4 6.5c2.9 2.5 6.6 5.2 8.2 5.9 4 1.8 1.8 2.5-2.6.9-1.9-.8-6.6-4.7-10.9-9.3-7.5-7.9-5.6-7 5.3 2.5zm-136.5-5.1c.2 1.3-.2 2.1-1.1 2.1-2.8 0-4.7-1.2-4.7-3 0-2.8 5.4-2 5.8.9zm156.8 1.6c-4.4 3.1-6.5 2-2.9-1.5 2.1-2.2 3.1-2.5 4.4-1.7 1.5.9 1.3 1.3-1.5 3.2zm-303.4-1.8c1 .9 1.8 2 1.8 2.5 0 1.1-4.9-2.4-5-3.5 0-1.2 1.2-.8 3.2 1zm121.3.1c-.3.3-1.1 0-1.8-.7-.9-1-.8-1.1.6-.5 1 .3 1.5.9 1.2 1.2zm190.5.2c0 .5-.2 1-.4 1-.3 0-.8-.5-1.1-1-.3-.6-.1-1 .4-1 .6 0 1.1.4 1.1 1zm-176 4.7c0 .7-.4 1.3-1 1.3-.5 0-1-1.2-1-2.8 0-2.1.2-2.4 1-1.2.5.8 1 2.1 1 2.7zm-17.4 1c-.7.7-2.6-.7-2.6-1.9 0-.6.6-.6 1.5.2.9.7 1.3 1.5 1.1 1.7zm257.4 1.5c2.6 2.4 7.3 6.5 10.4 9.1 3.1 2.7 5.6 5.1 5.6 5.5 0 .4-10.8.7-24 .7s-24-.3-24-.7c0-.9 5.7-2 11.7-2.2 2.7 0 4.7-.5 4.5-1.1-.3-1.2-12.1-.9-15.5.4-1.4.5-3 .5-4-.1-1.3-.7-3.3-.1-7.7 2.3-3.3 1.8-6.4 2.9-6.8 2.5-1-1.1 4.8-5.6 8.1-6.3 1.5-.3 2.7-.9 2.7-1.4 0-1.5-2.3-1-7.2 1.6-5.2 2.7-5.8 2.9-5.8 1.6 0-.8 10.6-8.1 11.9-8.1.3 0 2.6-1.4 5.1-3 2.5-1.6 4.8-3 5.2-3 .3 0 1.8 2 3.2 4.5l2.7 4.5h6.9c6 0 7.1-.3 8.4-2.2.9-1.2 1.6-3.4 1.6-4.9 0-2.4.7-3.9 1.8-3.9.3 0 2.6 1.9 5.2 4.2zm-375 1c0 1.5-1.7.8-4.1-1.9l-2.4-2.6 3.3 1.9c1.7 1 3.2 2.2 3.2 2.6zm112.2.6c1.7 1.7-.1 3.2-3.2 2.5-3.7-.7-4 1.1-.7 3.8l2.2 1.8-2.7.1c-3.3 0-3.7 1.9-.7 2.7 1.4.4 1.9 1.2 1.7 2.7-.2 1.6-.9 2-3 1.8-3.2-.3-3.8 1.7-.8 2.5 2.4.6 2.7 4.1.4 5-.9.3-3-.1-4.7-.9-3.1-1.5-5.7-1.4-5.7.1 0 .5 2 1.6 4.5 2.5 4.4 1.7 6.4 4.3 2.6 3.3-1-.2-2.5-.1-3.2.4-.8.5-2.3.2-3.6-.6-1.2-.8-2.9-1.5-3.8-1.5-2.7 0-1.6 3 1.9 5.1 1.9 1.1 3.7 2.7 4 3.5.5 1.3.1 1.3-2.2-.2-4.4-2.9-8.2-6.1-8.2-6.9 0-.5 1.5-2.7 3.4-4.9 3.3-4.1 7-11.8 9.6-20.1.7-2.2 1.4-4.3 1.6-4.6.5-.9 9.4.7 10.6 1.9zm32.3.2c-.5.8-1.1.8-1.7.2-.6-.6-.7-1.6-.3-2.2.5-.8 1.1-.8 1.7-.2.6.6.7 1.6.3 2.2zm219 0c-.3.5-1.8 1-3.3 1-2.1 0-2.4-.2-1.2-1 2-1.3 5.3-1.3 4.5 0zm-368.1 2.1c2.8 2.2 3.5 4.9 1.2 4.9-1.3 0-5.6-4.9-5.6-6.4 0-1.2 1.8-.6 4.4 1.5zm230.4 2.5c-1.3 1.3-1.9 1.4-3.7.2-2.8-1.7-2.7-2.6.7-3 3.6-.5 5 .8 3 2.8zM79 454c0 1.6-.4 3-1 3-.5 0-1-1.4-1-3 0-1.7.5-3 1-3 .6 0 1 1.3 1 3zm115.8-1.8c1.7 1.7 1.5 2.8-.4 2.8-2.3 0-1.1 2.4 1.5 2.8 3.5.5 12.3-2.8 12.8-4.9.6-2.2 2.3-1.5 2.3.9-.1 2.7-6.8 6.3-12.7 6.9-5.8.6-7 1.4-4.9 3.2.9.8 3.1.9 6.7.3 3-.4 6.8-.5 8.4-.2 2.9.5 2.7.6-2.4 2.3-2.9.9-6.6 1.7-8.2 1.7-2.7 0-4.7 1.5-3.6 2.7.3.3 3.7.5 7.4.5 6.5 0 6.6.4.9 2.2-1.5.5-1.6.9-.5 2.2 1 1.2 2.5 1.5 6.2 1.1 9.3-.8 3.1 1-7.3 2.2-10.8 1.3-16 3.1-16 5.6 0 1.9 1.5 1.9 4.4 0 1.6-1.1 5.8-1.7 12.7-2.1 5.7-.2 12.1-.6 14.2-.8 6.8-.7 3.8 1.1-4.7 2.7-4.6.9-10.4 2.5-12.8 3.6-2.4 1-7.1 2-10.6 2.3-5.2.4-6.5.1-7.9-1.4-1.4-1.6-1.5-2.5-.6-5.6 9.9-33.8 9.3-32.2 11.7-32.2 1.2 0 2.7.5 3.4 1.2zm10.2-.7c0 1-5.2 2.5-6.3 1.8-.7-.4-.3-.9.9-1.4 2.3-.9 5.4-1.1 5.4-.4zm10.7 3.7c-.3.8-.6.5-.6-.6-.1-1.1.2-1.7.5-1.3.3.3.4 1.2.1 1.9zM164 457c0 .5-.5 1-1.1 1-.5 0-.7-.5-.4-1 .3-.6.8-1 1.1-1 .2 0 .4.4.4 1zm-68 1c0 .5-.2 1-.4 1-.3 0-.8-.5-1.1-1-.3-.6-.1-1 .4-1 .6 0 1.1.4 1.1 1zm313 3.7c0 .8-7.3 5.3-8.4 5.3-1.7 0-.2-2.3 2.7-4 3.3-2 5.7-2.6 5.7-1.3zM88.1 467c.8.1.1.8-1.4 1.6-2.4 1.3-2.7 2-2.2 4.4.4 1.6.2 3.1-.5 3.5-.8.5-.6 1.2.5 2.5 1.3 1.4 1.3 1.8.2 2.3-.9.3-1.4 2.2-1.4 5-.1 3.6.3 4.7 2 5.5 1.5.7 1.7 1.1.6 1.1-3.4.2-4.7 5.1-1.3 5.1 1.9 0 1.8 1-.3 2.5-2.6 1.9-.6 3.5 4.5 3.5 2.6 0 5.3.4 6.1.9 1 .6-.5.9-4.3.9-4.1 0-6.2.4-7.4 1.6-1.5 1.5-1.5 1.8-.2 2.6.8.5 3.3 1 5.5 1.1 7.6.1 8.5 1.6 1.5 2.3-7.7.8-9.5 1.7-8.6 4.1.3 1 .1 2.4-.5 3.1-1.4 1.7-.3 3.4 2.4 3.5 1.6 0 1 .6-2.1 2-4.5 2-4.8 3.9-.6 3.9 3.1 0 3.1 1.4-.2 2.9-2.1.9-2.4 1.4-1.4 2.6.7.8 2.2 1.5 3.4 1.6 1.8 0 1.6.2-.7 1.1-1.8.6-2.7 1.6-2.5 2.7.3 1.3 1.4 1.5 5.5 1.3 7-.4 7.6 1.4.8 2.8-5.3 1.1-7.4 2.4-6 3.8.3.3 4.2.7 8.6.8 8.4.2 10.5-.9 7.9-4.1-1-1.2-.9-1.5.4-1.5 1.6 0 2.1 2.5 1 5.4-.5 1.2-2.1 1.6-6.6 1.6-6.4 0-9.8 1.2-9.8 3.5 0 .8.3 1.5.8 1.5.4.1 3.7.2 7.4.3 4 .1 7.2.7 8 1.5 1.1 1.2.1 1.3-6.2.8-7.9-.7-10.7.1-9.7 2.8.4 1 1.8 1.6 3.9 1.6 4.1 0 12.5 2.5 11.2 3.3-.6.3-1.6.2-2.4-.4-2-1.2-11.1-1.1-13 .1-2.4 1.6 1.5 4 6.9 4.2l4.6.1-5.5.6c-4 .4-5.6 1-5.8 2.3-.2 1.3.8 1.8 5 2.5l5.3.9-5.7 1.7-5.6 1.7-.7 5.1c-.9 6.3-.1 6.9 7.6 6.6 4.4-.2 6.2.2 7.8 1.7 2.6 2.4 1.3 4.3-1.7 2.7-2.9-1.6-10.5-1.4-12.8.3-2.3 1.8-2.1 1.8 9.1 3.8 6.3 1.1 8.1 1.8 8.3 3.2.3 1.5 0 1.7-1.4 1.1-5.3-2.3-15.4-1.6-15.4 1 0 1 1.1 1.5 3.3 1.5l3.2.1-4 1.8c-4.6 2.1-4.1 2.4 5.9 4 3.7.5 6.9 1.1 7.1 1.3.1.2.5 3.8.8 8.2l.6 7.8-3.2-.7c-3.4-.8-12.5-.7-13.9.1-1.4.9.2 2.4 2.4 2.4 1.2 0 4.9.5 8.4 1.1l6.2 1.1.4 4c.3 2.9-.2 4.8-1.5 6.5-1.6 2-1.8 3.4-1.3 8.4.6 5 .5 5.9-.9 5.9-1.3 0-1.4-.4-.4-2.1 1.5-2.9-.6-4.9-5.8-5.6-4.1-.5-7 1.3-6 3.9.2.7 0 2.1-.5 3.1-1.4 2.7 4.6 8.1 7.3 6.6 1.9-1 7.5-.2 6.4.9-.3.4-2 .5-3.8.4-1.8-.2-4.1.4-5.2 1.2-2 1.6-2 1.6-.1 3.1 1.1.8 3.2 1.5 4.8 1.5 1.8 0 2.8.5 2.8 1.4 0 2.2-3.9 2.4-9.9.4-3-1-6.9-1.8-8.7-1.8-4.4 0-11.8-3.3-13.8-6.1-1.8-2.7-2.1-11.3-.6-22.7.5-4 1.9-20.5 3-36.5 1.1-16.1 2.7-33.5 3.6-38.7.8-5.2 2.8-21.4 4.4-36 4.1-36.8 6.6-55 7.9-58.3.6-1.6 1.1-4.3 1.1-6.1 0-4.3.9-5 3.5-2.6 1.2 1.1 2.8 2 3.6 2zm236.5 9.3c.9 2.1.7 2.4-2.1 3.3l-3.1 1 1.5-3.3c1.8-3.9 2.3-4 3.7-1zM155 490c-3.2 2.5-4 2.5-4 0 0-1.6.7-2 3.3-2h3.2l-2.5 2zm54 .4c0 .3-1.9 1.6-4.2 3-2.9 1.7-4.7 2.2-5.8 1.6-2.7-1.4-5.3 1.1-5.5 5.4-.3 4.3-1.5 6.2-1.5 2.3 0-2.5-.8-3.1-3.6-2.8-.8.1-1.7-5.4-1-6 .1 0 19.5-3.6 20.9-3.8.4-.1.7.1.7.3zm-49.5 3.6c-.3.5-1 1-1.6 1-.5 0-.9-.5-.9-1 0-.6.7-1 1.6-1 .8 0 1.2.4.9 1zM70 505c0 .5-.7 1-1.5 1s-1.5-.5-1.5-1c0-.6.7-1 1.5-1s1.5.4 1.5 1zm125 5.1c0 .5-.4.9-1 .9-.5 0-1-.7-1-1.6 0-.8.5-1.2 1-.9.6.3 1 1 1 1.6zm207.4 0c-.3.5-1 .7-1.5.3-.5-.3-.7-1-.3-1.5.3-.5 1-.7 1.5-.3.5.3.7 1 .3 1.5zM301.5 513c.4.6.2 1.7-.5 2.4-.6.8-.8 2.6-.4 4.1.5 2.2 1.1 2.6 3.1 2.1 2.1-.6 2.6-.1 4.3 4 2.1 4.8 1.9 7.1-.3 4-.7-.9-2.4-2.2-3.7-2.9-1.4-.7-3.7-3.5-5.2-6.2-2.5-4.6-2.6-5.1-1.1-6.7 1.8-2.1 2.9-2.3 3.8-.8zm-141.1.9c.3.4 1.7.6 3.1.3 2.9-.5 3.4 1.3.5 2.1-3.7.9-2.3 3.6 2.2 4.3 3.8.7 4 .8 2.2 2.1-1.5 1.1-1.7 1.7-.6 3.3.6 1.1 1.2 2.6 1.2 3.5 0 .8 1.2 1.8 2.6 2.1 2.4.6 2.5.8.9 1.7-1.8.9-1.8 1 0 2.3 2 1.5 2.2 1.2-3.1 2.9-1.3.4-1.4.8-.4 2 .7.8 2 1.5 2.9 1.6 1.1 0 .9.3-.6.9-2.5 1-3.1 2.9-1 3.1 2.6.2 9.3-.2 11-.7 3.3-1 1.9-3.4-2-3.5h-3.8l4.5-1.5c2.5-.7 4.6-1.4 4.7-1.4.1 0-.1 1.7-.4 3.7-.7 5.1-2.4 6.6-8 7.3-3.4.3-4.8 1-4.8 2 0 1.2 1.2 1.5 5.8 1.3 6.7-.2 8 2 2 3.4-2.3.5-3.8 1.5-3.8 2.3 0 1 1.3 1.6 3.8 1.8 2.9.3 3.7.7 3.7 2.3 0 1.4-.7 1.9-2.7 1.9-4.3 0-7.3 1.1-7.3 2.6 0 1.6 4.2 2.9 7 2.1 1.1-.3 1.8-.1 1.4.4-.3.5-2.4.9-4.8.9-4.9 0-6.1.7-4.5 2.7.7.7 3.2 1.3 6 1.3 6.2 0 6.4 1.6.3 2.3-5 .5-7 1.8-5.9 3.7.7 1.1 4.5 1 9.5-.1.9-.3 1.5.3 1.5 1.5 0 1.7-.9 2-6 2.4-6.3.4-8.2 1.3-7 3.2.5.9 2.7 1.1 7.1.7l6.4-.5v2.7c0 2.6-.2 2.8-5.1 2.9-5.7.1-6.4.4-5.6 2.7.7 1.7 5.8 2 8.7.5 2.2-1.2 3.4.1 2.5 2.9-.3 1.1-1.5 1.8-3.3 1.9-4 .1-9.1 1.3-9.8 2.3-.3.5-.2 1.5.3 2.1.4.7.6 2.1.5 3-.2 1.1.3 1.8 1.2 1.8.9 0 1.6.4 1.6.9 0 .9-8 2.5-8.8 1.6-.3-.2-.7-18.6-1-40.7-.4-39.7-.4-40.4-2.7-45.6-1.8-3.9-2.9-5.2-4.5-5.2-1.2 0-1.8-.4-1.5-1.1.4-.5-.1-1.9-1.1-3-1.6-1.8-1.6-1.9 0-1.9.9 0 1.9-.7 2.2-1.5.7-1.7 2-2 2.8-.6zm326.4.3c.7.7 1.2 2.3 1.2 3.7-.1 3.1-5.4 15.4-6.9 15.9-1.4.5-.1-3.1 2.8-7.9 2.3-3.8 2.6-4.9 1.1-4.9-.6 0-1.5 1.1-2 2.4-1.7 4.5-2.8 3.7-2.6-2.2.1-7 3.1-10.3 6.4-7zm-165.3 4c.3 2.4.9 5.1 1.2 6.1.3 1.3-.2 2-1.6 2.4-1.3.3-2.1 1.3-2.1 2.6 0 1.6-.3 1.8-1.1 1s-.7-2.6.6-6.7c1-3 1.5-6.4 1.2-7.6-.3-1.1-.1-2 .3-2 .5 0 1.1 1.9 1.5 4.2zM188.8 517c1.2 1.2 2.2 2.9 2.2 4 0 1 .3 2.7.7 3.7.3 1-1-.6-3-3.6-2.1-2.9-3.7-5.5-3.7-5.7 0-1 1.8-.2 3.8 1.6zm9.4 1.2c-1.3 1.3-3.2.2-3.2-1.8 0-1.2.4-1.3 2.1-.3 1.4.7 1.8 1.4 1.1 2.1zm114.8 1c0 3.6-.4 3.5-1.4-.5-.4-1.6-.2-2.7.4-2.7.5 0 1 1.4 1 3.2zm177.1 6.7c-2.2 9-2.4 9.6-4 8.7-.6-.4 0-3.5 1.6-8.4 1.5-4.2 2.8-8.4 3.1-9.2.2-.8.6-1 .8-.4.3.6-.4 4.8-1.5 9.3zM477 518c0 .5-.4 1-1 1-.5 0-1-.5-1-1 0-.6.5-1 1-1 .6 0 1 .4 1 1zm-.9 6.3c-1.3 1.3-2.6.3-1.6-1.2.3-.6 1.1-.8 1.7-.5.6.4.6 1-.1 1.7zM177 527c1.2.8.9 1-1.2 1-1.6 0-2.8-.5-2.8-1 0-1.3 2-1.3 4 0zm153.9.4c1 1.1.9 2.4-.2 5.8-1.7 4.7-1.4 5-3.2-3.6-.7-3.5 1.2-4.8 3.4-2.2zm91.2-.4c2.2 1.3 2.4 2 .6 4.4-.8 1.1-1.9 1.5-3 1-2.1-.8-2.2-2.4-.2-2.4s1.9-1.7-.2-2.9c-2.4-1.4.2-1.4 2.8-.1zm-186 4.7c-1.1 2.1-2 3.5-2.1 3.1 0-1.2 3.3-7.8 3.8-7.4.2.2-.6 2.1-1.7 4.3zm-142.2-2.1c2.8.6 3.1 1 3.1 4.5 0 2.2-.4 3.9-1 3.9-.5 0-.7-.7-.3-1.5.7-1.9-2.1-4.1-5.9-4.9-1.6-.3-2.8-1-2.8-1.6 0-1.1 2.3-1.3 6.9-.4zm134.6 3.7c-1.3 3.2-3.5 5.1-3.5 3 0-.9 4.4-7.3 4.7-6.9.2.2-.4 1.9-1.2 3.9zm227.6-1.6c.2 12.1-.2 64.3-.5 66.1-.3 1.2-.8 11.3-1.1 22.5-.4 11.1-1 20.6-1.5 21-.4.5-2 .7-3.6.5l-2.9-.3V606c0-32.5.5-49.3 1.6-52.9.8-2.8-2-2.1-3.6.9-1.3 2.5-1.6 6.4-1.4 22.3 0 10.5 0 32.4-.1 48.4l-.1 29.3 2.5 2.3c1.4 1.4 2.6 2.8 2.6 3.3s-1.6 2-3.6 3.3c-3.3 2.3-3.8 2.4-6.7 1.1-3-1.3-7.6-1.5-15.7-.8-2.9.2-3.5 0-3.5-1.6 0-1.2 1.3-2.4 4.2-3.5 6.2-2.4 8.4-4.8 8.2-9-.1-2 .2-10.4.6-18.6.4-8.3.9-22.4 1-31.5.5-43.4.2-39.6 3.2-42.4 2.5-2.4 2.7-2.8 1.5-5.8-1.5-4.1.3-6.7 3.6-4.9 1.1.6 2.8.8 3.6.5.9-.4 2.3 0 3.2.7 1.2 1 1.8.9 3.1-.3 1.3-1.3 1.3-2.1.3-5.1-1.2-3-1.1-4 .9-8.1 2.6-5.2 4.1-5.9 4.2-1.9zm-273.4.8c.3.9.3 1.9-.1 2.2-.7.7-3.6-1.6-3.6-2.8 0-1.5 3-1 3.7.6zm291.3-1c0 .3-.7 1.7-1.6 3-1.5 2.3-1.8 2.3-3.7 1-1.2-.8-2.9-1.5-3.9-1.5-1.8 0-2.4-1.1-1.1-2.3.8-.8 10.3-.9 10.3-.2zm-151.8 7.3c-.7.2-1.9 1-2.6 1.8-2.1 2-3.1-1.4-1.1-3.6.9-1 1.3-2.5.9-3.6-.3-1 .5-.4 1.7 1.5 1.6 2.4 2 3.6 1.1 3.9zm-162.8-1.7c-.2.4-1.3.7-2.4.6-1.8-.1-1.8-.2-.3-1.9 1.2-1.4 1.8-1.5 2.4-.6.4.7.6 1.5.3 1.9zm33.3-2.5c-.3.3-1.2.4-1.9.1-.8-.3-.5-.6.6-.6 1.1-.1 1.7.2 1.3.5zm210.8 1.3c.3.5.1 1.2-.5 1.6-.5.3-1-.1-1-.9 0-1.8.6-2.1 1.5-.7zm25.1 3.1c.7 1.4 1.3 2.8 1.4 3.1 0 1.4-6.2 3.5-9 3.1-4.2-.6-3.8-2 .7-2.4 4.9-.4 5.3-2.4.6-3.3-7.1-1.3-6.6-3.2.8-3 3.3.1 4.4.6 5.5 2.5zm14.9 1c0 3.4-3.9 3.9-7.1.9-3.1-2.9-2.2-4.1 2.9-3.7 3.7.3 4.2.6 4.2 2.8zm51.5-1.3c-.1 1.8-9.8 11.5-11 11.1-.9-.3-.2-1.6 2.3-4.5 2-2.2 3.7-4.5 3.7-5.1 0-1.1 1.6-2 3.8-2.1.6-.1 1.2.2 1.2.6zm-12 1.1c0 1.2-3.9 4.7-4.5 4.1-1.1-1.2.9-4.9 2.6-4.9 1.1 0 1.9.4 1.9.8zm-79 6.8c0 4.5-2.4 4.2-2.8-.4-.2-2.4.1-3.2 1.2-3.2 1.2 0 1.6 1 1.6 3.6zm23.3 4.2c4.2 3.8-.8 10.3-6.7 8.8-3.8-.9-2.7-3 1.9-3.6 4.1-.5 5-1.6 3.5-4-.8-1.2-1.4-1.3-4.2-.2-4.1 1.5-6.4-.1-3.3-2.4 2.3-1.7 6-1.1 8.8 1.4zm63.7-1.4c0 .3-.4.8-1 1.1-.5.3-1 .1-1-.4 0-.6.5-1.1 1-1.1.6 0 1 .2 1 .4zm-23 2c0 .3-.4.8-1 1.1-.5.3-1 .1-1-.4 0-.6.5-1.1 1-1.1.6 0 1 .2 1 .4zm-270.3 3.8c-.3.7-.5.2-.5-1.2s.2-1.9.5-1.3c.2.7.2 1.9 0 2.5zm-6.7-.2c0 .5-.4 1-1 1-.5 0-1-.5-1-1 0-.6.5-1 1-1 .6 0 1 .4 1 1zm29 0c0 .5-.7 1-1.5 1s-1.5-.5-1.5-1c0-.6.7-1 1.5-1s1.5.4 1.5 1zm9.4.6c.4 1 .1 1.4-.6 1.2-1.5-.5-2.3-2.8-1-2.8.5 0 1.3.7 1.6 1.6zm267.6.8c0 .3-.4.8-1 1.1-.5.3-1 .1-1-.4 0-.6.5-1.1 1-1.1.6 0 1 .2 1 .4zm-13.5 7.5c-2.8 4.1-7.5 7.9-7.5 6.2 0-1.2 9.3-11.1 9.9-10.5.2.2-.8 2.2-2.4 4.3zm-291.5.5c0 2.5-.5 4.8-1.2 5.2-.7.5-.9.2-.5-.9.3-.8-.1-2.1-.9-2.7-2.6-2.2-1.5-5.6 1.9-5.9.4-.1.7 1.9.7 4.3zm-89 6.9c0 6.2-.3 8.7-1 7.7-1.1-1.8-.9-18.1.2-17.4.4.3.8 4.7.8 9.7zm117-9.4c0 .6-.5 1.3-1 1.6-1.9 1.2.8 3.3 3.5 2.7 1.5-.2 2.5 0 2.5.7 0 .6-1.3 1.1-2.9 1.1-1.6 0-3.6.3-4.5.6-1.3.5-1.6-.1-1.6-2.8 0-1.9.3-3.8.7-4.1 1-1 3.3-.8 3.3.2zm277 1.2c0 .5-.7.9-1.5.9-.9 0-1.2-.6-.9-1.5.6-1.5 2.4-1.1 2.4.6zm-68 28.1c0 18.4-.4 27.9-1.1 28.3-.7.5-.5 1.1.4 1.8 1.2 1 1.3 2.5.6 8-.4 3.7-1.1 7.2-1.3 7.6-.7 1-5.4.2-6.2-1-1-1.6-2.4-.9-2.4 1.2 0 1.4-.5 1.9-1.7 1.7-2.2-.4-3-7.2-1.2-9.4.9-1.1.8-1.9-.7-3.5-1.8-2-1.8-2.1.1-3.5 1.1-.8 3-1.2 4.3-.9 1.2.3 2.2.1 2.2-.5 0-.5-1.4-1-3-1-3.4 0-4.9-2.2-3-4.5.6-.8.9-2.3.5-3.5-.7-2.2.3-2.9 5.1-3.4 4.1-.5 4.1-.5 2.4-1.6-.8-.5-2.7-1-4.2-1-1.7 0-2.8-.5-2.8-1.4 0-1.4 2.9-2.6 6.8-2.6 1.2 0 2.2-.5 2.2-1 0-.6-2-1-4.5-1-3.2 0-4.5-.4-4.5-1.4 0-1.6 2.1-2.6 5.6-2.6 1.4 0 2.2-.4 1.9-1-.3-.6-2.2-1-4.1-1-3.4 0-4.6-1.6-1.9-2.6 1.2-.5 1-1-.8-2.4-2.9-2.4-1.5-3.8 4.1-4.2 5.8-.4 5.8-2.2 0-2.6-5.5-.4-6.6-2.6-1.8-3.7 4.2-.9 4.2-4-.1-3.1-2.2.4-2.9.2-2.7-.7.3-.6 2-1.5 3.9-1.8l3.4-.5-3.8-.8c-4.3-1-4.4-2.8-.1-3.7 2.9-.7 2.9-.7.3-.8-2.6-.1-5.4-2.3-4.4-3.3.3-.3 3.2-.4 6.5-.4l6 .1v27.7zm36.4-24.3c-1.8 3-4.4 4.2-4.4 2.1 0-1.4 5-6.4 5.7-5.7.3.3-.3 1.9-1.3 3.6zm31.4 5.2c-.2 5.9-2.5 7.1-3 1.7-.5-4.3.6-7.3 2.3-6.2.5.3.8 2.3.7 4.5zm-265.1 1.6c-.3 1-.5.2-.5-1.7s.2-2.7.5-1.8c.2 1 .2 2.6 0 3.5zm-9.6-1.7c1.6 0 2.9.4 2.9 1 0 .5-1.5 1-3.4 1-3.9 0-5.3 1.4-3.6 3.5 1 1.2.9 1.5-.9 1.5-1.6 0-2.1-.6-2.1-2.4 0-3.7 1.1-5.8 2.7-5.2.8.3 2.8.6 4.4.6zm-119.4 20c.2 6.1-.1 10-.7 10-1.1 0-1.4-18.3-.3-19.3.3-.4.7-.7.7-.7.1 0 .2 4.5.3 10zm-5.7-6.8c0 1.8-.2 2-.9.8-.6-.8-.7-1.8-.5-2.2.9-1.4 1.4-.9 1.4 1.4zm128-1.2c0 .5-1.9.9-4.2.9-4-.1-4.1-.2-1.3-.9 4.4-1.1 5.5-1.1 5.5 0zm-28.6 12.4c-.6 1.6-6.2 2.7-7 1.4-1-1.6.8-2.8 4.1-2.8 2.5 0 3.3.4 2.9 1.4zm-141 2.6c4.8 1.8 3 3.1-3.1 2.5-6.8-.8-9.2 0-18.2 5.9-7.1 4.7-11.1 6.4-11.1 4.7 0-.6.4-1.1.9-1.1s1.1-1.2 1.3-2.7c.4-3.2 6.6-8 11.9-9.3 4.9-1.1 15.3-1.2 18.3 0zm140.1 5c-.3.5-1.1 1-1.6 1-.6 0-.7-.5-.4-1 .3-.6 1.1-1 1.6-1 .6 0 .7.4.4 1zm-141.2.6c4.6.8 4.9 2.4.5 2.5-5.3.1-13.2 3.3-14.3 5.7-.7 1.5-1.5 2-2.8 1.6-1-.3-2.6.1-3.6 1-2.6 2.4-14 4.6-16.6 3.3-1.7-.9-1.4-1.2 3-2.2 5.1-1.2 8.9-3 18.5-9.1 5.5-3.4 8.2-3.9 15.3-2.8zm128.4 14.1l-1.1 13.3h-2.7c-2.6 0-5.4 2.1-4.3 3.3.3.3.1 1.4-.5 2.5-1.5 2.7.9 4.6 4.7 3.7 2.7-.6 3-.4 3.5 2.7.6 4.4.3 4.8-4.7 4.8-4.8 0-6.1-.7-4.5-2.6 1.4-1.8-1.6-6.2-4.8-7-3.4-.9-5.4 1.3-3 3.1 1.6 1.2 1.5 1.4-1.3 2.3-1.6.6-3 .9-3 .6 0-.3.5-2.5 1.1-4.8 1-4.2 1.2-4.3 4.9-4.2 4.4.1 5.5-.6 4.7-2.9-.4-1-1.9-1.5-4.3-1.5-3.7 0-3.7 0-3.1-3.6.8-4.6 1-4.8 4.4-3.6 2.3.9 2.5 1.1.7 1.1-2.9.1-4.9 2.5-3.2 3.9 1.7 1.3 7.4.4 8.9-1.5 1-1.1.8-1.5-.9-2-2.7-.7-2.8-1.5-.1-3.1 3.2-2.1.8-4.1-4.1-3.5-2.6.4-4 .2-4-.6 0-.6 1.6-1.1 3.5-1.1 2 0 5.3-.9 7.4-2 3-1.5 3.9-2.5 3.9-4.5 0-1.8-.7-2.9-2.1-3.4-2-.8-2-.9.8-2.4 1.7-.8 3.3-1.2 3.7-.9.4.4.2 6.7-.5 13.9zM463 607.9c0 .5-.7 1.2-1.6 1.5-2.2.9-2.4.8-2.4-.9 0-.8.9-1.5 2-1.5s2 .4 2 .9zM97 609c0 .5-.4 1-1 1-.5 0-1-.5-1-1 0-.6.5-1 1-1 .6 0 1 .4 1 1zm-40.5 1c1.5.6.9.9-2.5.9s-4-.3-2.5-.9c1.1-.5 2.2-.9 2.5-.9.3 0 1.4.4 2.5.9zm46 1c.3.5.1 1-.4 1-.6 0-1.1-.5-1.1-1 0-.6.2-1 .4-1 .3 0 .8.4 1.1 1zM58 617.5c1.5 1.7 1.3 1.8-7.5 3.6-5.4 1-6.5 1.7-11.3 6.8-2.9 3.1-6.4 6.9-7.9 8.4-1.9 2-2.3 3.1-1.6 3.8 1.9 1.9 4.9 0 9.6-6.1 5.3-6.8 8.1-8.9 13.1-9.7 4.3-.7 7.3 1.1 5.5 3.3-.6.8-2.1 1.4-3.3 1.4-1.1 0-3.3.8-4.7 1.8-4.2 2.8-13.9 12-13.9 13.1 0 .6 1.2 1.1 2.7 1.1 1.9 0 4.2-1.6 8.5-6 6.2-6.5 9.8-7.8 9.8-3.6 0 1.8-.7 2.6-2.7 3.1-3.3.8-7.3 4.2-7.3 6.2 0 .8-1.6 2.1-3.5 2.9-1.9.8-3.5 1.9-3.5 2.4 0 2-2.3.9-6.4-2.8-2.2-2-5.4-4.7-7.1-5.9l-3-2.2 3.7-3.4c2-1.9 4.5-5.2 5.6-7.3 2.2-4.4 5-7.2 10.2-10.3 4.3-2.5 13.1-2.9 15-.6zm44.9 23.2c.1 8.4-.2 15.3-.6 15.3-.5 0-.9-9.1-1-20.3 0-11.9.2-18.2.7-15.2.4 2.7.8 11.9.9 20.2zM32 620.8c0 1.7-3.9 4.4-5.5 3.9-2.5-1-1.7-3.5 1.3-4 1.5-.2 3-.5 3.5-.6.4 0 .7.3.7.7zM181 636c0 .5-.5 1-1.1 1-.5 0-.7-.5-.4-1 .3-.6.8-1 1.1-1 .2 0 .4.4.4 1zm244.7 5.6c.3 1-6.6 2.8-7.4 2-.2-.2.4-1.1 1.3-2 1.8-1.8 5.5-1.8 6.1 0zm-237.2.3c.3.5.1 1.2-.5 1.6-.5.3-1-.1-1-.9 0-1.8.6-2.1 1.5-.7zm-131.7 3.8c-.2 1.5-1.4 3.3-2.9 4.2-1.4.9-4.1 2.6-6 3.8-4 2.7-5.2 2.8-6.9.8-1-1.2-.9-1.6.6-2.1 6.4-2.3 8.4-3.5 10-6.3 2.4-4 5.7-4.2 5.2-.4zm53.9 4c-.3 1-.5.4-.5-1.2 0-1.7.2-2.4.5-1.8.2.7.2 2.1 0 3zm315.3-1.6c0 1.2-3.7 1.2-4.4 0-.7-1.1 1.4-2 3.2-1.3.6.2 1.2.8 1.2 1.3zm27-1.1c.8.5 1.2 1.2.8 1.5-.9.9-4.8-.4-4.8-1.6 0-1.2 2.1-1.1 4 .1zm-280.3 5.6c6.7.1 8.8.4 8.8 1.5 0 1.9-9.2 3.6-11.7 2-2.7-1.7-5-1.4-4.6.6.4 2.1 3.6 3.1 10.6 3.2 2.8.1 5.2.5 5.2 1 0 .8-1.7 1.4-9 2.9-2.7.6-3.5 1.2-3.3 2.9.2 1.7-.3 2-3.6 2-3.7 0-3.8 0-3.7-4.1.1-3.4-.2-4.1-1.9-4.1-1.5 0-2.3 1.1-3.2 4.6-1.3 4.4-1.5 4.6-3.7 3.6-2.8-1.4-2.4-4.1 1.1-6.4 1.8-1.2 2.3-2.2 1.9-3.8-.4-1.7 0-2.5 1.9-3.3 1.7-.8 2.6-2.3 3.1-4.9l.7-3.8 1.3 3 1.2 3 8.9.1zm295.8-1.6c1.6.6 1.7.9.5 1.3-3.8 1.4-9.4 2.6-10.2 2.1-1.2-.8-1-3.2.5-3.7 1.9-.8 7-.7 9.2.3zm-446.7 2.6c3 2.1 2.8 3.4-.8 3.4-1.8 0-3.3-.7-3.9-1.9-1.8-3.3.9-4.2 4.7-1.5zm402-.4c-.5 1.5-5.8 2.4-5.8 1 0-1.5 1.2-2.2 3.8-2.2 1.4 0 2.2.5 2 1.2zm28.3-.2c1 .6 1.9 1.7 1.9 2.5 0 1.9-.5 1.9-3.5-.1-4.1-2.7-2.7-4.7 1.6-2.4zM55 656c0 2-2.5 3.8-3.7 2.6-.5-.5 2.4-4.6 3.4-4.6.1 0 .3.9.3 2zm417 .8c0 .5-2.6 1.6-5.7 2.6-3.2.9-6.4 1.9-7 2.2-.7.3-1.3-.1-1.3-1s1-1.8 2.3-2.1c11.4-2.7 11.7-2.7 11.7-1.7zm-69.3 4.8c-.3.3-1.2.4-1.9.1-.8-.3-.5-.6.6-.6 1.1-.1 1.7.2 1.3.5zM109 664c0 .5-.2 1-.4 1-.3 0-.8-.5-1.1-1-.3-.6-.1-1 .4-1 .6 0 1.1.4 1.1 1zm344.8 2.1c.2 1-1.1 2.5-3.4 3.8-3 1.8-4.2 2-6.1 1.2-3-1.4-2.9-2.5.4-5.1 3.2-2.5 8.6-2.4 9.1.1zm-351.5.2c.3.8.1 2-.4 2.8-.6 1-.9.7-.9-1.4 0-2.9.5-3.5 1.3-1.4zm335.2 4.2c5.6 5.8 7.6 6.5 11.3 3.9 2.5-1.7 3.7-1.3 4.5 1.6.9 3.6-8.9 8.1-10.8 5-.3-.6-1.9-1-3.6-1-1.9 0-3.7-.9-5.2-2.7-7.2-8.6-7-8.5-9.9-7.4-2 .7-2.9.7-3.4-.1-.4-.7-.3-1.3.2-1.5.5-.2 2-1 3.4-1.7 5.1-2.8 7.9-2 13.5 3.9zM179 667.9c0 2-1.3 4.2-3.1 5.2-1.8.9-1.9.7-1.3-1.8.4-1.5.9-3.1 1.1-3.6.6-1 3.3-.9 3.3.2zm-118.4 4.2c1.3 1.3 1 1.5-1.9 1.1-2.2-.2-3.8.2-4.6 1.2-1.7 2-3.2 2-7.5-.1-5.1-2.4-3.1-3.8 5.3-3.7 4.9 0 7.6.5 8.7 1.5zm48.4.8c1.4 2.7 1.3 3.1-1 3.1-1.5 0-2-.7-2-2.5 0-3 1.5-3.3 3-.6zm44.1 1.4c-1.6 1.6-2.6 0-1-1.9.9-1.1 1.5-1.2 1.7-.4.2.6-.1 1.7-.7 2.3zm9.3-1.4c.3.5-.1 1.4-.9 2.1-1.3 1-1.5.9-1.5-.9 0-2.1 1.4-2.8 2.4-1.2zm265.7 4.3c2.9 4.1 4.9 5.7 7.1 5.8 1 0 3.3.8 5.2 1.7 3.3 1.5 3.8 1.5 7.6-.2 3.2-1.4 4.3-1.6 5.3-.6.8.8.9 1.6.1 2.9-.9 1.3-2.9 1.8-9.4 2l-8.3.3-2.8-3.4c-1.6-1.9-4.7-4.2-6.9-5.1-3.2-1.3-4-2.1-4-4.1 0-3.6 3.3-3.2 6.1.7zm-348.3.7c.8.5 1.2 1.7 1 2.7-.3 1.7-1.1 1.9-6.7 1.5-6.1-.3-6.3-.2-5.9 2 .2 1.7 1.3 2.7 3.6 3.4 3.5 1 3.9 2.1 1.9 4.9-1.2 1.6-1.8 1.1-7.5-5-3.4-3.7-6.2-7.1-6.2-7.6 0-.4 2.4-.6 5.3-.2 3.9.4 5.7.2 7.2-1 2.2-1.7 5.3-2 7.3-.7zm83.8 2.6c1.7 1.9 2.6 3.5 1.9 3.5-2 0-3.6 2.5-2.4 3.7.8.8 0 1.4-2.6 2.3-2 .7-3.9 1-4.2.7-.3-.3.2-2.7 1.1-5.3.9-2.6 1.6-5.6 1.6-6.6 0-2.6.9-2.3 4.6 1.7zm9.4-1.5c0 .5-.2 1-.4 1-.3 0-.8-.5-1.1-1-.3-.6-.1-1 .4-1 .6 0 1.1.4 1.1 1zm-65 3c0 .5-.4 1-1 1-.5 0-1-.5-1-1 0-.6.5-1 1-1 .6 0 1 .4 1 1zm-17 5.5c0 1.1-8.2 12-9.1 11.9-.5-.1-1.4-.2-2-.3-.6 0-.1-1 1.2-2 2.1-1.7 2.2-2.2 1.1-4.1-1.2-1.9-1.1-2.1 1.5-1.8 2.1.2 3-.3 3.8-2 .8-1.8 3.5-3.2 3.5-1.7zm9.8.7c-.3.7-1.1 1.3-1.8 1.3s-1.5-.6-1.7-1.3c-.3-.7.4-1.2 1.7-1.2 1.3 0 2 .5 1.8 1.2zm327.8 2c-.3 1.8-.5 3.5-.5 3.7-.1.2-.7-.2-1.5-.8-1.6-1.4-.9-6.1 1-6.1 1 0 1.3 1 1 3.2zM92 699.1l-2.2 4.2 2.1 1.7c1.5 1 2 2.2 1.5 3.3-.3 1-.1 2.4.6 3.2 1.1 1.3.8 1.5-1.4 1.5-1.5 0-4.1.7-5.7 1.6-3.7 1.9-5.2.9-2.2-1.4 1.6-1.3 2.2-3.1 2.5-7.4.3-4.3 1.2-6.6 3.3-9.4 3.5-4.6 4.4-3 1.5 2.7zm75.4-5.2c1 1.6-3.9 5-8.1 5.7-6.4 1-9.5 5.7-6.8 10.4.8 1.4 2.1 4 3 5.7 2.4 5 7.1 6.6 18 5.9 9.6-.6 11.5 0 21.5 6.3 3 1.9 4.5 2.1 11 1.8 9.5-.6 24.2-2.4 28.9-3.7 2-.5 5.2-1.2 7.1-1.5 1.9-.3 4.2-.8 5.2-1.1 2.8-.8 3 1.4.9 7.2-1.2 3-2.1 7-2.1 8.8 0 3.7 3.2 13.8 5.5 17.2.8 1.3 1.1 2.5.7 2.7-.8.6-16.7.8-58.7.9-38 .2-35.7.2-44.5-.7-4.1-.4-20.1-.8-35.5-1-31.5-.4-48.2-1.1-50.8-2.1-2.5-.9-2.1-2.1 2.4-8.1l4.1-5.3h12.4c6.8 0 12.4-.4 12.4-.9 0-.4-4.5-1.1-9.9-1.4-5.5-.3-10.5-.8-11.1-1.2-2.4-1.5.6-2.5 7.6-2.5 8.7 0 9.8-1.6 1.9-2.5-7.3-1-6.9-3.1.5-2.6 4.1.2 5.1 0 4.8-1-.3-.8-1.5-1.6-2.9-1.7-4.4-.6-4.5-2.2-.1-2.2 4.6 0 5.4-1.3 2.1-3.1l-2.1-1.1 2.2-2.3c1.2-1.3 3.9-2.7 6-3 2.7-.5 5.5-2.2 9.2-5.6 3.6-3.3 6.5-5.1 9-5.5 2-.4 4.5-1.5 5.4-2.5 2-2.2 3.5-2.3 8.1-.7 2.8 1 3.8.9 7.8-1.1 5.3-2.6 16.5-6.1 21.5-6.6 1.9-.3 5.1-.8 7-1.4 4.7-1.2 5.8-1.3 6.4-.2zm-125.1 2.7c2.9 1.5 7 4.2 9.1 6.2 4 3.5 15.2 9.2 18.3 9.2 4 0 4.6 1.5 2.4 5.6-1.2 2.1-2.1 4.4-2.1 5.1 0 2.4-4.5 1.3-10-2.5-3.6-2.5-6.5-5.6-8.7-9.4-1.8-3.1-4.8-6.5-6.5-7.6-4.8-2.8-14.8-4.6-22.3-3.9-7.3.7-8.3-.2-2.7-2.6 7.9-3.4 15.7-3.5 22.5-.1zm69.5 1.2c.3 2.8 0 3.2-2.1 3.2-2.3 0-2.4-.2-1.3-3.5 1.3-4.2 3-4 3.4.3zm344.2 3.7c-1.1 1.3-.9 1.5 1.3 1.5 2.9 0 10.7 9.9 24.9 31.5 4.7 7.2 10.3 15.1 12.6 17.7 3.4 4 3.9 5.2 3.3 7.5-.7 2.6-1.1 2.8-5.7 2.7-12-.3-29.5-1.8-30-2.6-.3-.5-.3-1.6 0-2.5.6-1.4.9-1.4 2.6.2 1.9 1.7 2.1 1.7 3.8.2 1.2-1.1 3.6-1.7 7.1-1.7 6.1 0 9.1-1.3 9.1-4 0-2.4-2.8-4-7.7-4.1-2.4-.1-3-.3-1.5-.6 4.3-.8 1.7-2.7-3.2-2.4-3.7.2-4.7-.1-4.4-1.1.3-.8 2.1-1.3 4.6-1.3 4.2 0 5.9-1.7 2.2-2.3-1.1-.2-2.5-1.2-3-2.3-.7-1.2-2.2-1.9-4.3-2l-3.2-.1 3.2-.9c1.8-.5 3.7-1.8 4.3-2.9.8-1.6.6-2.2-1.4-3.5-1.4-.9-3.9-1.5-5.8-1.3-3 .3-3.4.7-4.4 4.8-.9 3.9-1.4 4.5-4 4.8-4.4.5-5.3 2-2.5 4.3 1.3 1 3.3 1.9 4.4 1.9 2.8 0 1 1.7-2.3 2.2-4 .5-3.7 3.4.5 4.8 4 1.3 3.8 3-.5 3-3.9 0-6 .9-6 2.7 0 1.2.7 1.4 2.8.9 5.8-1.5 6.7-1.2 7 1.6l.3 2.8-10.8.2c-5.9.1-13.9.3-17.8.4-42 .9-76.5.6-77.9-.5-1.2-1-8.1-1.2-31.2-1-25.6.4-29.8.2-30.4-1.1-4.2-8.7-8.6-34.9-6.1-36.4.5-.3 3.7.3 7.2 1.5 8.1 2.6 31.7 3 56 1 9.1-.8 18.8-1.1 21.5-.8 8.7 1.2 14.8 2.4 17.8 3.6 1.7.7 6.8 1.6 11.5 2.1 4.8.6 12.2 1.6 16.6 2.4 11.1 2.1 12.4 2 13.4-.7.8-1.8.2-2.9-3.2-6.5-2.3-2.4-6-5.3-8.2-6.4-2.2-1.1-5.2-3.1-6.7-4.5-2.3-2.2-2.5-2.9-1.6-4.9.6-1.4 2.3-2.6 4.2-3 1.6-.4 4.3-2.1 6-3.8l2.9-3.1 12.6.2c6.9.1 14.2-.2 16.1-.6 4.1-.9 5.9.1 4 2.4zm-181.7 2.6c.7.1-.6.5-2.8.9-2.2.4-4.4.5-5 .2-1.2-.8 3.5-2.2 5.3-1.6.8.2 1.9.5 2.5.5zm118.5 4.4l.3 3-2-2.5c-2.5-3.1-2.6-4.2-.3-3.8 1.1.2 1.8 1.4 2 3.3zM271 712.4c0 1.5-1.8 3.1-2.6 2.3-.7-.7.7-3.7 1.7-3.7.5 0 .9.6.9 1.4zm128 1.6c0 .5-.4 1-1 1-.5 0-1-.5-1-1 0-.6.5-1 1-1 .6 0 1 .4 1 1zm-5.5 3c-.5.8-1.1.8-1.7.2-.6-.6-.7-1.6-.3-2.2.5-.8 1.1-.8 1.7-.2.6.6.7 1.6.3 2.2zm-314 1.1c-.4.5-1.3.9-2.2.9-1.3 0-1.3-.3-.3-1.5 1.3-1.5 3.5-1.1 2.5.6zm326-.1c-.3.5-1 1-1.6 1-.5 0-.9-.5-.9-1 0-.6.7-1 1.6-1 .8 0 1.2.4.9 1zm-6.5 3.2c0 1-4.4 1-5.3.1-.4-.3.3-1.1 1.6-1.8 2.1-1.1 3.6-.4 3.7 1.7zm-129.2.7c.3.8-.1 1.2-.9.9-.7-.2-1.5-1-1.7-1.7-.3-.8.1-1.2.9-.9.7.2 1.5 1 1.7 1.7zm-55 1.3c-.2 1.9-1 2.3-4.3 2.6l-4 .2 3.3-1.5c1.7-.7 3.2-1.9 3.2-2.5 0-.5.5-1 1.1-1 .6 0 .9 1 .7 2.2zm191.7-.2c.3.6-.1 1.3-1 1.6-1.9.8-3 0-2-1.5.8-1.4 2.2-1.4 3-.1zm12.5 2c0 2.2-1.6 3.5-2.5 2-.9-1.4.4-5.2 1.6-4.5.5.4.9 1.5.9 2.5zm-153.8.1c.7 1.2 2.4 2.2 3.8 2.3 1.3 0 2.5.6 2.7 1.2.5 1.6-4.3.5-5.8-1.2-.6-.8-2-1.4-3-1.4-1.9 0-2.5-1.1-1.2-2.3 1.1-1.2 2-.8 3.5 1.4zm15.2.5c1.1 2.8.6 5.2-1 5.8-3 1.2-3.7.6-1.8-1.5 1.8-2 1.8-2.2.2-3.3-1-.7-1.5-1.6-1.1-1.9 1.2-1.2 3.1-.7 3.7.9zm145.6 3c0 1.6-2.6 1.9-3.5.4-.3-.6-.4-1.4 0-2 .8-1.3 3.5-.1 3.5 1.6zm-167.4 2.3c-.4.6-1.4 1.1-2.2 1.1-1.2 0-1.3-.4-.3-2.1.7-1.4 1.4-1.8 2.1-1.1.6.6.7 1.5.4 2.1zm208.9.1c-.3.5-1 1-1.6 1-.5 0-.9-.5-.9-1 0-.6.7-1 1.6-1 .8 0 1.2.4.9 1zm-193.8 2.9c.7 1.1 2.5 2.1 4 2.4 2.4.3 2.3.4-.7.6-3.7.1-6-1.3-6-3.6 0-1.9 1.3-1.6 2.7.6zm-13.3 1.6c-.7 1.6-2.4 2.1-2.4.6 0-.8.7-1.3 2.7-2 .1-.1 0 .6-.3 1.4zm19.4 4.7c1.9 1.9 1.5 2.3-2.8 2.3-4.5 0-5-.7-1.7-2.3 2.9-1.4 3.1-1.4 4.5 0zm-250.3.8c.3.5.1 1-.4 1-.6 0-1.1-.5-1.1-1 0-.6.2-1 .4-1 .3 0 .8.4 1.1 1zm228.3.2c-.3.7-1.2 1.4-2.1 1.6-1.2.2-1.5-.1-1.1-1.2.7-1.9 3.8-2.2 3.2-.4zm10.7 3.8c-1 1.1-2.3 2-2.8 2-.6 0-.2-.9.8-2s2.3-2 2.8-2c.6 0 .2.9-.8 2zm-8 1c.3.5-.1 1-1 1s-1.3-.5-1-1c.3-.6.8-1 1-1 .2 0 .7.4 1 1zm-219.2 1.6c4.6 1.6 6.9 4.2 2.5 2.8-4.1-1.2-8.8-3.3-8.8-3.8 0-.9 1.3-.7 6.3 1zm243.7 3c0 1.4-.6 2.4-1.5 2.4s-1.2-.6-.9-1.5c.4-.8.1-2.1-.5-2.9-.6-.7-.8-1.6-.4-1.9 1.1-1.2 3.3 1.4 3.3 3.9zm-226-.2c0 .3-.4.8-1 1.1-.5.3-1 .1-1-.4 0-.6.5-1.1 1-1.1.6 0 1 .2 1 .4zm207.3 3.2c2.3 2.8 2.5 3.3.8 2.2-1.2-.7-2.1-1.7-2.1-2.1 0-.5-.9-.5-2-.2-2 .6-2.9-1.3-1.3-2.8 1.1-1.2 1.7-.8 4.6 2.9zm216.5-1.9c-.3 1.5-1.6 1.8-8 2.1-7.6.3-12.4-.9-11.3-2.9.4-.5 4.9-.9 10.1-.9 8.6 0 9.5.2 9.2 1.7zM277 754.6c0 1.7-2.2 1.4-2.8-.4-.2-.7.3-1.2 1.2-1.2.9 0 1.6.7 1.6 1.6zm8.5 2.4c-.3.5-1.1 1-1.6 1-.6 0-.7-.5-.4-1 .3-.6 1.1-1 1.6-1 .6 0 .7.4.4 1zm-20 2c.3.5-.1 1-.9 1-.9 0-1.6-.5-1.6-1 0-.6.4-1 .9-1 .6 0 1.3.4 1.6 1zm-173.7 4.2c.6.6 1.2 1.7 1.2 2.4 0 2.5 3 1.5 4.2-1.4l1.1-2.7.6 3c.7 3.5 3.5 4.1 3.9.7.6-4.1 2.2-2.2 2.2 2.6 0 5 1.9 9 3.8 7.8.6-.4.8-1.7.3-3.4-.9-3.2-.3-9.2 1-9.2 1 0 1.6 2.4 2.3 10.2.7 6.8 1.5 9 3 8.5.7-.2 1.1-3.7 1.1-9.7 0-6.3.4-9.4 1.2-9.7.8-.3 1.4 1.6 1.9 5.6.4 4.2 1.1 6.1 2 6.1 1 0 1.4-1.4 1.4-4.9 0-2.8.6-5.3 1.3-6 1.7-1.4 2.7-.4 2.7 2.6 0 3.3 1.9 2.9 3.1-.7 1.4-3.8 4.6-4 5.9-.5 1.2 3.2 2.8 3.2 4-.1.7-1.6 1.6-2.4 2.8-2.2 1.4.3 1.8 1.7 2.2 8.3.3 4.4.9 8.6 1.3 9.3 1.6 2.5 2.7 0 2.7-6.3 0-9.3 1.7-9.7 3.5-.8.6 3 3.3 6.5 3.7 4.7.1-.5.2-3.3.2-6.3.1-3.4.6-5.6 1.4-5.8.6-.3 1.2.2 1.2.9 0 .8.7 2.3 1.5 3.4 1.4 1.8 1.6 1.8 2.9.1.7-.9 2.3-1.7 3.5-1.7 1.5 0 2.1-.6 2.1-2.1 0-2.3 2.4-2.1 2.6.2.2 3.3.5 3.9 1.4 3.9.6 0 1.3-1.4 1.6-3 .9-4.4 3.4-3.9 3.4.7 0 2.1.4 4.4.9 5.2 1.5 2.4 3.1.1 2.9-4.1-.4-5.8 1.8-6 2.7-.3.8 5.8 2.8 5.5 3.5-.6.4-3.5.9-4.4 2.5-4.4s2 .7 2 4.3c0 2.4-.4 4.7-1 5.2-.5.4-3.7 1.7-7 2.8-3.3 1.1-9.9 3.4-14.7 5.1-10.6 3.7-25.4 6.1-38.2 6.1-9.8 0-10-.1-24.6-6.7-12-5.6-30.9-11.6-38.2-12.2-1.4-.2-.8-3.1.5-3.1.8 0 2.2-.9 3.3-2.1 1.7-1.9 2.6-2.1 9.9-1.4 4.4.4 8.6 1.1 9.3 1.7zm116.5 4.5c.5 4.6-.5 6.2-2.8 4.3-1.8-1.5-2-7.1-.3-8.8 1.6-1.6 2.5-.5 3.1 4.5zm12-3.7c.5.4.9 2.9 1 5.6.2 4.3 0 4.9-2 5.2-4.3.6-6.3-1.4-6.3-6.7 0-2.6.3-5.1.6-5.4.8-.8 5.5.2 6.7 1.3zm68.7-.2c0 2.2-1.9 4.2-3.9 4.2-1.2 0-1.1-.3.2-1.8 1-1 1.7-2.4 1.7-3 0-.7.5-1.2 1-1.2.6 0 1 .8 1 1.8zm59.9-.5c2.3 1.1 2.5 1.7 2.2 7-.3 6.7 1.4 12.7 3.6 12.7 1.2 0 1.4-1.3 1.2-7.3-.4-6.7-.2-7.2 1.6-7.2s2 .8 2.3 6.2c.2 4.5.7 6.3 1.6 6.3.8 0 1.7-.7 2-1.6 1-2.7.7-10.9-.6-12.2-.6-.6-1-1.4-.7-1.6.8-.8 34.4-1 35.7-.2.9.5.8 1.3-.4 3.1-1.9 2.9-1.5 8 .6 8 .8 0 1.8-1.7 2.5-4.3 1.2-5.1 3.8-6.9 10.5-7.2 7.5-.4 8-.3 8 2.8 0 3.2 2.4 7.1 3.7 5.9.4-.5.8-2.5.8-4.5.1-4.6 1.7-5.1 3.2-1.1 1 2.7 1.5 3 2.7 1.9.9-.6 1.4-2.2 1.3-3.3-.2-1.8.4-2.3 3.2-2.5 4.1-.4 4.7.2 5.6 5 .7 3.6.6 3.8-1.7 3.8-4.3 0-13.4 3.5-18.4 7.2-18.6 13.3-38.9 16.6-61.4 9.8-6.7-2-8.2-3-13.5-8.5-7.1-7.4-12.5-9.5-24.2-9.5H313v-3.5c0-4 1.1-4.5 2.5-1.3 1.3 3 3.9 2.9 4.3 0 .2-1.3 1-2.6 1.8-2.9 1.2-.4 11.2-1.4 22.9-2.1 1.1-.1 3.1.4 4.4 1.1zM200 767.6c0 3.8-.3 4.5-1.7 4.2-3.2-.6-3-8.8.2-8.8 1.1 0 1.5 1.1 1.5 4.6zm51.7-3.8c.6.4 1.4 2.5 1.8 4.7 1.2 7.4 1.5 8.5 2.8 8.5 1 0 1.2-1.5.9-5.9-.3-3.5 0-6.1.7-6.5 1.2-.8 10.5 3.7 11.8 5.6.4.7 1 4.6 1.3 8.7.3 4.7 1 7.6 1.7 7.9.9.2 1.3-1.4 1.2-6.1-.1-3.6.2-7 .5-7.6.4-.6 3.4-1 6.9-.9 7.4.2 8.2-.2 10.4-5 2.1-4.8 2.8-2.4 1.8 6.4-.4 4.4-1.1 6.4-2 6.4-.8 0-2 .9-2.8 2-1.6 2.3-8.1 5.2-15.6 7-5.2 1.2-20.7 1-24.1-.4-2.1-.9-2.8-23.5-.8-24.7 1.6-1.1 2-1.1 3.5-.1zM236 766c0 2.6.8 2.5 3.7-.2 1.3-1.2 2.6-1.9 2.9-1.5.3.3.9 5.3 1.1 11.1.4 7.9.3 10.6-.6 10.6-1.6 0-4.1-6.1-4.1-10 0-1.6-.5-3-1-3-1.3 0-3.2 4.9-2.6 6.6.3.8.1 1.6-.3 1.9-1.3.8-3.2-13.5-2-15.7 1.3-2.4 2.9-2.3 2.9.2zm217.2 1.2c.4 4.3 3.1 4.4 3.8.3.6-3.6 4.4-4.4 4.6-1 .2 4 .4 4.5 1.8 4.5.8 0 1.6-1.2 1.8-2.7.5-4.5 2.6-3.9 3 .9.4 6 3.1 6 3.8-.1.8-7.1 3-6.4 3 .9 0 6 1.2 10 3 10 .5 0 1-3.3 1.2-7.3.2-5.6.6-7.2 1.8-7.2 1.1 0 1.7 1.9 2.3 8 .9 8.3 1.6 10.6 3.4 11.2.8.3.9-2.6.6-9.6-.5-8.7-.4-10.1.9-10.1 2.1 0 2.4 1.1 2.7 9.9.3 8.2 1.5 12.5 3.4 11.8.8-.2 1.1-2.1.7-6.3-.8-11.4-.6-14.9 1-14.9 1.2 0 1.5 1.9 1.5 11.5v11.5l-6.1-.2c-7.3-.3-11.3-1.9-18.5-7.3-5-3.7-14.1-7.3-20.9-8.2-2.2-.3-2.5-.7-2.2-3.8.2-1.9.6-3.8.9-4.3 1-1.7 2.2-.5 2.5 2.5zm-6.8 4.9c-1 1.6-3.2-.9-2.9-3.4.4-4.1.7-4.2 2.1-.9.8 1.8 1.2 3.8.8 4.3zm-218-3.9c.8 3 .8 9.8 0 9.8-1.4 0-3.3-3.6-3.4-6.2 0-5.3 2.2-7.8 3.4-3.6zm74.8 0c.2 1.8.9 2.2 3.1 2 3.6-.4 3.7 3 .1 4.7-3.6 1.6-5.4-.1-5.4-5 0-4.2 1.6-5.4 2.2-1.7z"/><path d="M255.6 179.5c-4.4 1.5-6.5 3.8-4 4.3.8.2 2.3-.2 3.2-.9.9-.8.6-.1-.8 1.4-1.9 2.2-2.2 3.2-1.4 4.5 1.7 2.6 5.4 2.8 5.4.3 0-2.7 1.6-2.7 3.1.1l1.2 2.1 1.2-2.4c.8-1.3 1.7-2.4 2.2-2.4.4 0 2.1-1.2 3.6-2.7l2.9-2.7-3.1-1.5c-3.7-1.9-8.3-2-13.5-.1zM417.4 233.2c-.4.6.4 1.9 1.9 3 5.2 3.8 11.4 16.4 12 24.6.3 3.7 3.1 3.5 3.5-.2.8-6.6-3.7-17.3-10-24.2-4.1-4.5-6.1-5.3-7.4-3.2z"/><path d="M417.4 247.5c-.4.9.6 2.6 2.5 4.4 4.1 3.8 6.1 8.8 6.1 15 0 5 1.2 7.2 2.6 4.9.5-.7.8-4.2.8-7.8 0-5.3-.5-7.3-2.7-10.7-3.2-5.1-8.4-8.3-9.3-5.8z"/><path d="M415.6 253.9c-.4.6 0 2.1.8 3.3.8 1.3 2 4.2 2.7 6.6 1.5 5.2 4.5 5.6 4.3.5-.3-6.5-5.8-13.7-7.8-10.4zM410.6 255.7c-1.1 1.1-.6 2.3.9 2.3.8 0 1.5-.4 1.5-.9 0-1.3-1.6-2.2-2.4-1.4zM404 258.9c0 2.1 2.6 3.6 3.6 2 .9-1.5-.3-3.9-2.1-3.9-.8 0-1.5.9-1.5 1.9zM108.5 247.9c-.3.5-.1 1.2.5 1.6 1.2.7 3-.2 3-1.6 0-1.2-2.7-1.2-3.5 0zM118.2 250.1c.2.6.8 1 1.3 1s1.1-.4 1.3-1c.2-.6-.4-1.1-1.3-1.1s-1.5.5-1.3 1.1zM124 252.5c-1 1.2-.9 1.6.3 2.1 2 .7 3.7-.3 3.7-2.2 0-1.8-2.4-1.8-4 .1zM130.7 254.2c-2.8 2-3.7 5.8-1.4 5.8.7 0 2.6-1.3 4.1-2.8 2.1-2.3 2.4-3.1 1.4-4-1-.8-2-.5-4.1 1zM134.2 260.3c-3.4 2.4-4.1 4.4-1.8 5.3 1.6.6 6.2-2.2 7-4.3 1.1-2.6-2-3.3-5.2-1zM136 265.8c-2.2 1.8-2.4 5.2-.3 5.2 1.9 0 7.4-4.2 7-5.3-.6-2-4.2-1.9-6.7.1zM324.1 270.7c-2.1 1.7-2.1 2-.7 3.2 1.2 1 2.3 1 5.3.1 3.9-1.3 6-2.6 5.2-3.4-.2-.2-2-.7-3.9-1.1-2.7-.5-4.2-.2-5.9 1.2zM101 413.8c0 .5.9 1.7 2 2.7 2.6 2.3 5.2.6 3-2-1.3-1.6-5-2.1-5-.7zM272 306c0 .5.7 1 1.5 1s1.5-.5 1.5-1c0-.6-.7-1-1.5-1s-1.5.4-1.5 1zM267.1 308.4c-.9 1-.9 1.6-.1 2.1 1.7 1 3.7-1.2 2.4-2.5-.8-.8-1.5-.6-2.3.4zM262 312.1c0 2.4 2.3 2.1 2.8-.4.2-1-.3-1.7-1.2-1.7-1 0-1.6.9-1.6 2.1zM271.6 313.7c-1.1 1.1-.6 2.3.9 2.3.8 0 1.5-.4 1.5-.9 0-1.3-1.6-2.2-2.4-1.4zM265 318c0 .5.7 1 1.5 1s1.5-.5 1.5-1c0-.6-.7-1-1.5-1s-1.5.4-1.5 1zM269.2 322.1c.2.6.8 1 1.3 1s1.1-.4 1.3-1c.2-.6-.4-1.1-1.3-1.1s-1.5.5-1.3 1.1zM419.5 312.9c-.3.5-.1 1.2.5 1.6 1.3.8 8-.5 8-1.6 0-1.2-7.7-1.2-8.5 0zM436 312.8c0 .9 11.8 3.1 12.5 2.3.3-.2 0-1-.6-1.8-1.2-1.4-11.9-1.9-11.9-.5zM442 316.8c0 .5.7 1.3 1.6 1.6 1 .4 1.4.1 1.2-.6-.5-1.5-2.8-2.3-2.8-1zM340.2 335.1c.2.6.8 1 1.3 1s1.1-.4 1.3-1c.2-.6-.4-1.1-1.3-1.1s-1.5.5-1.3 1.1zM389.7 352.6c-1.4 1.4-.7 3.5 1.1 3.2.9-.2 1.7-1 1.7-1.7 0-1.6-1.8-2.5-2.8-1.5zM290.6 384.9c-.3.5.1 1.4.8 2 1.6 1.3 3.2-.2 2.1-1.9-.8-1.2-2.2-1.3-2.9-.1zM327.5 450c-1.6 2.6 5.7 6.2 7.9 4 .8-.8.4-1.6-1.4-3-2.8-2.2-5.5-2.6-6.5-1zM367.1 479.4c-1.4 1.7-.7 4.8 1.3 6.5 2.1 1.8 4-1.2 2.9-4.6-1.1-3.2-2.6-3.9-4.2-1.9zM359.4 481.4c-.9 2.4 0 5.8 1.8 7 2.7 1.7 4.1-.4 3.1-4.5-1-3.6-3.9-5.1-4.9-2.5zM374.2 481.8c-1.7 1.2-.4 4.2 1.8 4.2 2.5 0 3.5-1.8 2-3.5-1.4-1.7-2-1.8-3.8-.7zM351 484.7c-3.7.7-5 2.2-4.5 5.2.5 2.5.5 2.5-.5.3-2.4-5.5-6.9-3.5-5 2.2 1.5 4.6 2.9 5.4 4.9 3 .9-1.1 2.4-1.8 3.4-1.6 1.2.2 2-.4 2.4-1.7.6-2.4.8-2.5 3.3-1.1 3 1.6 4.7-1.3 2.6-4.5-1.7-2.5-2-2.6-6.6-1.8zM334.7 489.7c-1.3 1.3-.7 7.2.9 8.8 2.4 2.4 4.7.1 3.8-3.9-.9-4.6-3-6.7-4.7-4.9zM372 491.9c-1.4.4-3.4 2.1-4.5 3.8-1.1 1.7-3.2 3.8-4.7 4.8-3.5 2-6.5 6-11.3 15-2 3.8-4.3 7.7-5 8.5-2.3 2.7-10.2 19.3-12.8 27-1.4 4.1-3.4 11.1-4.4 15.5-1.6 7.1-2.1 8-4 7.8-3-.3-5 2.2-3.3 4.2.7.9.9 1.9.5 2.3-.4.4-1 .2-1.2-.4-.2-.6-1-2-1.8-3-1.1-1.5-1.7-1.7-3.2-.8-1 .7-1.7 1.9-1.7 2.8.1 1.1-.6 1.6-2.2 1.6-1.7 0-2.8.8-3.5 2.7-1.2 3.3-.6 5 2.5 6.4 5.3 2.4 19.5-8.1 21.5-15.9.6-2 2-8 3.2-13.2 2.6-11.6 6-20.4 11.3-29 2.2-3.6 5.8-9.9 8.2-14 2.3-4.1 5.4-9.1 6.7-11.1 3.3-4.8 9.9-7.9 16.6-7.9 2.9 0 6.1-.5 7.2-1 2.1-1.2 2.5-4 .7-5.8-1.3-1.3-10.6-1.5-14.8-.3zM316.5 583c.3.5.1 1-.4 1-.6 0-1.1-.5-1.1-1 0-.6.2-1 .4-1 .3 0 .8.4 1.1 1zM328.7 492.7c-.4.3-.7 1.5-.7 2.6 0 1.8-.1 1.8-1.8-.3-1.5-1.9-2.2-2.1-3.9-1.2-1.1.6-2.3.8-2.7.5-.3-.4-1.6-.1-2.9.5-1.2.6-3.1 1.2-4.2 1.4-2.4.4-3.2 4.2-1.4 6.4.7.8 1.9 1.2 2.8.9.9-.4 2.2.3 3.2 1.6 2 2.7 4.9 2 4.9-1.2 0-1.8.2-1.9 1.5-.9 1.2 1 1.8 1 3.2-.1.9-.8 2.6-1.4 3.7-1.4 2.3 0 3.2-2.9 2.2-7.1-.6-2.3-2.5-3.1-3.9-1.7zM362.7 492.6c-.9 1 .2 2.4 1.9 2.4.8 0 1.4-.7 1.4-1.5 0-1.5-2.1-2.1-3.3-.9zM358.5 498.9c-1 1.7 1.2 2.1 2.5.6 1-1.2 1-1.5-.3-1.5-.9 0-1.8.4-2.2.9zM246.8 500.7c-4 1.7-3.5 4.9.7 4.6 8.6-.7 14.9-1.9 15.3-3 .9-3-9.9-4.1-16-1.6zM353 501.4c0 2.9 1.9 4.4 3.1 2.5 1.3-2 .6-4.3-1.4-4.7-1.2-.3-1.7.3-1.7 2.2z"/><path d="M377.3 504.5c-.3.9-.3 1.8 0 2.2 1 1 3.7-.6 3.7-2.2 0-2-2.9-2-3.7 0zM219.8 511.7c-5.8 6.1-7.1 10.1-4.5 13.7.9 1.3 2 1.6 4.1 1 1.9-.5 2.4-1 1.7-1.7-2.9-2.9-.4-9.8 4.5-12.5 1.9-1.1 1.2-4.2-.9-4.2-.7 0-2.9 1.7-4.9 3.7zM373.5 509.2c-4.6 2.5-10.3 10.2-8.5 11.3.7.4 3-1.1 5.4-3.6 2.4-2.4 5-5 6-5.7.9-.7 1.4-1.7 1.1-2.3-.8-1.1-1.5-1.1-4 .3zM346 517.4c0 .9.7 1.6 1.6 1.6.9 0 1.4-.5 1.2-1.2-.6-1.8-2.8-2.1-2.8-.4zM299.6 536.5c-1.1.8-2.9 1.2-4.2.9-4-1-4.3 1.6-2.5 21.1 1.3 14.5 1.9 18 3.1 18 1.2 0 1.6-1.8 1.8-8.7.3-8.6.4-8.8 3.2-10.3 3.3-1.7 8-7.4 8-9.8 0-.9-.6-2-1.4-2.4-.8-.4-1.4-1.5-1.4-2.3.2-2.2-2.5-8-3.7-8-.5 0-1.9.7-2.9 1.5zm.4 6.3c0 .4-.5 1.3-1.1 1.9-1.5 1.5-.3 3.3 2.3 3.3 2.1 0 2.1 0-.2 2.5-2.9 3.1-4 1.9-4-4.3 0-3.1.4-4.2 1.5-4.2.8 0 1.5.4 1.5.8zM315.7 547.7c-1.2 1.1-.8 2.3.8 2.3.8 0 1.5-.7 1.5-1.5 0-1.6-1.2-2-2.3-.8z"/><path d="M304.5 557.7c-4.5 5.8-5.3 7.7-3.6 8.8 1.3.8 7.8-5.1 9.7-8.7 1.6-3 1.3-5.8-.6-5.8-.5 0-3 2.6-5.5 5.7zM308.6 564.9c-4.5 4.6-5.3 7.1-2.2 7.1 2 0 5.9-3.4 7.8-6.8 1.5-2.4 1.5-3.2.5-4.1-1-.8-2.5.1-6.1 3.8zM399.4 584.2c-1.4 1.6-2.7 2.2-4.7 2-3.6-.4-6 1.4-4.8 3.7.7 1.1.4 2.2-.7 3.4-1.6 1.8-1.5 2 .7 3.8 2.7 2.2 5.2 2.4 6.9.7 1.8-1.8 1.4-3.8-1-4.7-2.1-.8-2.1-.8.5-1.5 1.5-.3 2.7-1.2 2.7-2 0-.7 1.4-1.9 3-2.6 1.9-.8 3-1.9 2.8-2.9-.5-2.5-3.4-2.4-5.4.1zM401.1 592.4c-.9 1-.9 1.6-.1 2.1 1.3.8 4.2-1.4 3.4-2.6-.8-1.3-2-1.1-3.3.5zM348.7 592.7c-1.1 1-.8 4.1.4 4.9.6.3 2-.3 3.1-1.4 1.1-1.1 1.7-2.5 1.4-3.1-.8-1.2-3.9-1.5-4.9-.4zM402.7 599.7c-1.3 1.2-.7 3.3.8 3.3.8 0 1.5-.9 1.5-2 0-2-1.1-2.6-2.3-1.3zM346.5 601.4c-1.1.8-1.6 1.9-1.2 3 .8 2 3.1 2.1 5.2 0 1.2-1.2 1.3-1.9.4-3-1.4-1.7-2-1.7-4.4 0zM321 604.5c-2.5.6-5.8 1.7-7.3 2.5-2.6 1.3-3.3 1.2-7.3-1-4.1-2.1-4.6-2.2-6.1-.7-1.3 1.3-1.4 1.9-.4 3.1.7.9 1 2.3.7 3.2-.4 1 .1 2.5 1.1 3.6 1.6 1.8 1.6 2.1.1 3.2-.9.6-2.1 3.8-2.7 7-1.2 6.6-.5 15.2 3.5 41.1 3.9 25.4 4.5 28.8 5.5 31.6 1.5 3.8 13.3 11.9 17.4 11.9 1.7 0 2.1-3.5.5-4.5-2.3-1.4-.6-2.4 4.8-2.7 4.3-.2 5.7-.7 5.7-1.8 0-.9-1.3-1.7-3.5-2.1-2.7-.5-2.9-.7-.9-.8 3.2-.1 6.4-2.4 5.5-3.9-.4-.7-2.8-.9-7-.5-3.5.3-7.7.1-9.2-.4-1.7-.6-4.2-.6-5.9-.2-3.2.9-5.1-.1-4.2-2.4.4-1.1 1.7-1.2 6.4-.6 5.7.9 5.9.8 8.4-2.1 1.4-1.7 3.3-5.6 4.2-8.8 2-7.6 5.2-20.5 6.6-26.7.6-2.8 2.2-9.7 3.5-15.5 2.7-11.4 3.9-22.7 2.6-23.5-1.5-.9-3.9 2.5-4.5 6.3-1.8 11.9-3 18.1-4.2 21.6-.7 2.1-1.8 6.8-2.4 10.5-.8 5.2-3.5 15.6-4.4 16.8-.1.2-1.9-.6-4.1-1.6-2.2-1.1-5.6-2.2-7.6-2.6-3.8-.7-8.4-3.4-6-3.5.7 0 4 .9 7.3 2 6.2 2.1 9.9 1.9 9.9-.4 0-1.5-12.8-7.2-18.2-8.1-2.1-.3-3.8-.9-3.8-1.4 0-1.8 1.5-1.9 4.9-.5 2 .9 6.3 2.2 9.5 3 5.2 1.3 6.2 1.3 7.4 0 1.2-1.2 1.1-1.6-1.3-3.2-2.7-1.8-2.7-1.8-.5-2.6 1.6-.6 2-1.3 1.5-2.8-.4-1.2-.1-2.7.5-3.5 1.4-1.7-1.3-3.6-9-6-3-1-6.8-2.5-8.5-3.3-1.6-.9-3.6-1.5-4.2-1.4-.7.2-1.3-.6-1.3-1.8 0-2.4-.3-2.4 4.9.1 5.8 2.8 15.8 4.6 17.2 3.2 1.8-1.8.2-3.1-5.9-5l-5.7-1.8 4-.5c5-.6 6-3.5 1.9-5-2.1-.8-2.4-1.4-1.6-2.2 2-2 1.3-3.5-2.4-5l-3.5-1.4 3.3-1.6c8.9-4.1 11.2-5.4 11.5-6.4.6-1.8-1.8-2.1-6.7-.9zm-14 35.4c0 .5-.7 1.1-1.5 1.5-.9.3-1.5 0-1.5-.9 0-.8.7-1.5 1.5-1.5s1.5.4 1.5.9zm8.5 30.1c5.5 2.1 1.3 2.3-5.7.4-1-.3-1.8-1-1.8-1.6 0-1 2.7-.6 7.5 1.2zm11.5 2.7c0 1.2-3 9.3-4.1 11.5-.5 1-1.7 1.8-2.7 1.8-1.5-.1-1.5-.3.3-1.6 1.9-1.5 1.9-1.6.2-2.9-1.1-.7-4.1-1.9-6.8-2.6-9.7-2.5-4.1-3.6 6.7-1.4 4.2.9 5.5-1.2 2.3-3.6l-2.4-1.9h3.3c1.7 0 3.2.3 3.2.7zm-5.1 27.2c-1.7 1.4-2.9 1.6-4.1 1-3.5-1.9-2.9-2.9 1.8-2.9h4.6l-2.3 1.9zM203.3 640.5c-1.5 1.1-1.6 1.6-.5 2.7 1.3 1.3 4.2.2 4.9-1.9.6-1.7-2.4-2.3-4.4-.8zM219.1 655.4c-1.4 1.7-.7 3.6 1.4 3.6 2.2 0 2.9-2 1.3-3.6-1.3-1.3-1.6-1.3-2.7 0z"/><path d="M340.5 655.9c-.7 1.2 1.2 2.4 2.5 1.6 1.1-.7.4-2.5-1-2.5-.5 0-1.1.4-1.5.9zM205.3 657.7c-1.2.2-4.2 2.6-6.7 5.3-4.8 5.1-5.3 7.1-4.9 19.1 0 2.1-.7 2.8-4.7 4.2-4.8 1.7-11 7.4-11 10.2 0 3.1 2.4 2.6 5.9-1.3 4.2-4.8 9.1-6.6 9.1-3.4 0 1.1-.7 2.2-1.5 2.6-.8.3-1.5 1.3-1.5 2.2 0 1-.7 2.5-1.5 3.4-1.3 1.5-1.2 1.9 1.6 4.6 2.8 2.7 3.1 2.8 4.3 1.1.7-.9 2-1.7 2.9-1.7.8 0 3-1.4 4.7-3 3-2.8 3.2-3.3 2.1-5.6-.6-1.4-.8-3.6-.5-5 .5-2.1.3-2.4-2-2.4-2.4 0-2.6-.4-2.8-4.8-.4-7.4.2-14.6 1.2-15.6.6-.6 1.9-.5 3.3.3 1.3.7 3.9 1.1 5.8.9 2.6-.2 3.5-.8 3.7-2.6.3-1.8-.2-2.3-2.7-2.8-3.5-.7-3.2-2.4.5-2.4 1.7 0 2.4-.5 2.4-2 0-2-2.1-2.4-7.7-1.3zM374 662.5c-1 1.3-1 1.9.4 3.4 1.7 1.8 1.7 2-.3 3-1.6.9-1.9 1.8-1.4 4.4.9 5.3 7 8.6 10.1 5.5 1.4-1.4-.2-3.8-2.7-3.8-1.1-.1-.6-.9 1.7-2.9 3.9-3.4 4-4.8.5-6.4-1.6-.6-3.4-2-4.1-2.9-1.6-2.2-2.6-2.3-4.2-.3zM338.5 665c-.3.5-.3 1.5 0 2 .7 1.2 4.5-.5 4.5-2 0-1.3-3.7-1.3-4.5 0zM388.2 665.2c-1.8 1.8-1.5 2.6 1.8 4.3 2.8 1.4 3.1 1.4 3.6 0 .4-.9-.2-2.5-1.1-3.5-2.1-2.3-2.7-2.4-4.3-.8zM217.4 667.2c-.4.6 0 1.6.9 2.3 1 .7 1.5 2.3 1.4 4.1-.1 2 .3 2.9 1.3 2.9 1.5 0 1.6-1.2.4-7.3-.6-3.2-2.6-4.2-4-2z"/><path d="M201 671.5c-1.8 2.2-.3 3.5 4 3.5 3.7 0 5.1-1.2 4.3-3.8-.6-1.7-6.8-1.5-8.3.3zM338.7 670.7c-1.4 1.3-.6 3.3 1.2 3.3 2.1 0 4.5-2.3 3.4-3.3-.8-.9-3.8-.9-4.6 0zM336.6 677.4c-4.7 1.5-5.7 3.3-2.5 4.4 2.2.8 2.1.9-.9 2-3.9 1.3-4.2 3.2-.4 3.2l2.7.1-2.7 1.5c-5.9 3.1-1 4.8 5.7 2 3.6-1.5 4.8-4.6 1.8-4.6-1.5 0-1.5-.1-.1-1.3 1.9-1.4 2.9-7.9 1.3-8.2-.5-.2-2.8.3-4.9.9zM200.4 679.5c-.8 2.1.4 3.5 3.1 3.5 2.9 0 4.1-1.6 2.5-3.5-1.6-1.9-4.9-1.9-5.6 0zM215.5 685c-.4.6-.1 1.7.5 2.5.8.9 1 2.8.6 4.9-.5 2.8-.3 3.7 1.3 4.5 2.2 1.2 4.8-1 3.6-3-.4-.6-.1-2.2.6-3.6 1.2-2.3 1.1-2.7-1-4.4-2.6-2.1-4.7-2.4-5.6-.9zM285.5 688c-1.6.4-4.2 1.1-5.7 1.4-1.6.4-2.8 1.3-2.8 2.1 0 1.9 3.2 2.7 7.5 1.9 2.9-.5 4.1-.2 7.1 2.1 3.5 2.7 6.4 2.8 6.4.1 0-1.3-8-8.8-9.1-8.5-.2 0-1.7.4-3.4.9zM213.4 698.2c-.8 1.2 3 4.8 5.2 4.8 2.5 0 2.7-2.3.3-4.1-2.8-2.2-4.5-2.4-5.5-.7zM342 700.7c-2.8.6-5 2.1-5 3.5 0 .6 1.5.7 3.7.3 4.8-.9 7.5-2.3 6.8-3.6-.6-.9-1.2-1-5.5-.2zM367.5 701.5c-1.6.7-5.7 1.6-9 2-4.2.5-6.8 1.5-8.9 3.2-2.7 2.3-3.6 2.5-8.7 1.9-4.5-.4-6-.2-7 1-1.8 2.2-.1 3 6.9 3.3 4.8.2 6.5-.3 9.6-2.4 2.3-1.6 6.1-2.9 10.1-3.4 6.7-1 11.6-2.9 12.2-4.7.6-1.8-1.9-2.2-5.2-.9zM285.1 702.3c-1.4 1.7-.4 2.7 2.4 2.7 1.4 0 3.3 1.4 4.9 3.5 1.5 1.9 3.4 3.5 4.4 3.5.9 0 4.3 1.9 7.5 4.1 5.7 4 6.2 4.2 14.8 4.5 8.7.2 11.3-.6 9.1-2.8-.6-.6-4-1.2-7.6-1.4-5.1-.2-7.7-1-11.1-3.1-2.5-1.5-6.3-3.7-8.4-4.8-2.2-1.1-4.9-3.2-6.1-4.8-2.4-3-7.9-3.8-9.9-1.4zM207.9 704.9c-3.7 3.4-3.4 5.3 1.1 7.6 3.6 1.8 6 1.4 6-1.1 0-.9.8-2.3 1.8-3 1.6-1.3 1.5-1.6-1.1-3.9-3.5-3.1-3.9-3.1-7.8.4zM241.6 703.9c-.3.5-2.6 1.8-5.2 3-3.8 1.8-4.4 2.4-3.4 3.6.7.8 2.1 1.5 3.1 1.5 2.6 0 9.4-6.3 8.5-7.8-.9-1.4-2.3-1.5-3-.3zM168.3 362.1c-1.4.5-1.2.7.8 1.2 4.5 1.2 12.9.8 12.9-.6 0-1-1.7-1.3-6-1.3-3.3.1-6.7.4-7.7.7zM179.3 366.7c-3.8.3-5.3.8-5.3 1.9 0 1 1.4 1.4 5.4 1.4 3 0 6.1-.3 7-.6 2.2-.8 2-3.4-.1-3.2-1 .1-4.2.3-7 .5zM177 373.9c-2.2 1.5-.8 2.2 4.6 2.4 3.8.2 4.9-.1 4.9-1.3 0-1.8-7.1-2.6-9.5-1.1zM182 380.2c0 .7.9 2.4 2 3.8 2.5 3.3 4.7 1.6 2.9-2.3-1.2-2.7-4.9-3.8-4.9-1.5zM194.6 395.8c-.5.9 1.1 7.1 2.1 7.4 1.3.5 2.3-5.5 1.1-6.9-1.2-1.5-2.4-1.7-3.2-.5zM248.2 435.7c.3 1.9 6.7 3.7 8.1 2.3 1.2-1.1-3.2-4-6.1-4-1.7 0-2.3.5-2 1.7zM312.5 461c-.3.6.1 1.3 1 1.6 1.9.8 3 0 2-1.5-.8-1.4-2.2-1.4-3-.1zM287 475c-2.3 2.3-2.3 5.5 0 5.5 2.1 0 4.8-5.1 3.3-6.6-.8-.8-1.6-.6-3.3 1.1zM115.5 445.9c-.6 1.1.9 2.3 1.9 1.4.9-.9.7-2.3-.3-2.3-.6 0-1.2.4-1.6.9zM137.8 683.6c-2.8.9-4.8 2.1-4.8 2.9 0 2.2 1.5 2.6 5.1 1.4 8-2.7 7.6-6.6-.3-4.3zM81.4 617.4c-1 .8-1.7 1.6-1.4 1.9.3.2 3.8.8 7.8 1.1 6.1.6 7.2.5 7.2-.8 0-.9-1.5-1.9-3.7-2.5-5.1-1.5-7.6-1.4-9.9.3zM82.3 622.6c-.7.3-1.3 1.2-1.3 1.9 0 1.8 11.7 3.2 13.3 1.6 1.5-1.5-.7-3.1-4.3-3.1-1.4 0-3.4-.2-4.5-.5-1.1-.2-2.6-.2-3.2.1zM83 637c-2.3 1.5-.1 2.7 6.2 3.4 6.3.8 8.1-.4 4.6-2.8-2.5-1.8-8.5-2.1-10.8-.6zM83.5 644.3c-2.7 2-1.6 2.9 4 3.1 5.2.2 7.6-.7 5.9-2.4-1.9-1.9-7.7-2.3-9.9-.7zM420 614.4c0 .2.9.6 2 .9 1.1.3 2 .1 2-.4s-.9-.9-2-.9-2 .2-2 .4zM420.8 628.7c.6.2 1.8.2 2.5 0 .6-.3.1-.5-1.3-.5-1.4 0-1.9.2-1.2.5zM176 644.5c-1 1.2-.9 1.6.5 2.1 1.9.8 4-.9 3.1-2.5-1-1.5-2.1-1.4-3.6.4zM68 748c0 .5 2.5 1 5.5 1s5.8 0 6.2.1c.4 0 .9-.4 1.1-1 .2-.7-2-1.1-6.2-1.1-3.7 0-6.6.4-6.6 1zM66.3 752.4c1 .8 2.7 1.2 3.7.9 2.9-.8 1.3-2.3-2.3-2.3-2.9.1-3 .2-1.4 1.4zM342.3 766c-3 1.2-2.9 2.8.1 4.2 3.3 1.5 5.6.4 5.6-2.7 0-2.7-1.6-3.1-5.7-1.5zM391.1 767.9c-1.3 2.4-1.5 15.8-.2 16.5 1.8 1.2 2.9-2.1 3.2-9.8.4-8.2-.8-10.9-3-6.7zM412.2 770.2c.2 2.1.8 3.3 1.8 3.3s1.6-1.2 1.8-3.3c.3-2.7 0-3.2-1.8-3.2s-2.1.5-1.8 3.2zM382.7 770.6c-1.3 1.4-.7 9.1.8 10.4 2 1.6 2.7-.3 2.3-6.1-.3-4-1.6-5.8-3.1-4.3zM377 779.4c0 .8.4 1.7.9 2 1.1.7 3.3-1.8 2.4-2.7-1.2-1.2-3.3-.7-3.3.7zM261.4 769.4c-.8 2-.1 4.7 1.1 4.9.6.1 1.1-1.3 1.3-3.1.3-3.2-1.4-4.5-2.4-1.8zM277.4 776.5c-1 2.4.5 6.5 2.2 6.5 1.2 0 1.5-.6 1-2.3-.3-1.2-.6-3-.6-4 0-2.1-1.8-2.3-2.6-.2zM439.4 496.8c-3.1 2.1-8.4 14.7-8.4 20 0 3.9 1.7 1.5 4-5.6 1.2-3.7 2.8-7.3 3.6-8.1 1.4-1.5 1.5-1.3 7 12.1 1 2.7 2.2 4.8 2.6 4.8.4 0 1.6-1.4 2.8-3 1.2-1.7 3-3 4.1-3 1.2 0 1.9-.7 1.9-2 0-1.1-.7-2-1.5-2s-2 .9-2.7 2c-1.4 2.1-3.8 2.7-3.8 1 0-.6.7-2.4 1.5-4 1.1-2.1 2.3-3 4-3 3 0 3.4-2.5.6-4-2.1-1.1-4.1.3-6.2 4.2-.9 1.7-1.3 1.8-2.3.7-.7-.8-1.8-3.3-2.4-5.5-1.2-4.2-3-5.8-4.8-4.6zM422.2 502.2c-2 2.6-4.3 8-3.7 8.6.7.7 2.8-1.6 5.1-5.4 1-1.5 1.4-1.7 2.5-.7 1.7 1.7 2.9 1.6 2.9-.2 0-1.4-2.9-3.5-4.8-3.5-.5 0-1.4.6-2 1.2zM422.4 512.5c-.9 1.4-1.4 2.8-1.2 3.1.8.8 6.8-3 6.5-4.1-.7-2.1-3.6-1.5-5.3 1z"/><path d="M436.7 513.7c-1.6 4.1-1.4 5.4.5 3.5.7-.7 2-1.2 3-1.2 2 0 2.3-1.2.8-4.1-1.6-2.8-2.6-2.4-4.3 1.8zM23 558.4c-11.9 1.9-23 8.1-23 12.8 0 2 .1 2 1.8.5 1-1 2.2-1.7 2.6-1.7.4 0 1.9-.9 3.3-2 3.2-2.5 4.3-2.5 3.6-.1-.3 1.3.2 2.4 1.6 3.2 1.4 1 1.9 2 1.5 3.6-.6 2.3 1 5.3 2.8 5.3.6 0 .8-1 .5-2.2-.4-1.2-.1-2.8.5-3.5.8-1.1.6-2.1-1-4.3-1.2-1.6-1.9-3.6-1.6-4.4.8-2 1.3-2 3.5 0 1.6 1.5 2 1.3 4.6-1.6 2.7-3 3.2-3.1 6.4-2.2 1.9.5 4.4.6 5.5.1 2.6-.9 6.1.8 8.7 4.3 4.6 6.2.8 16.7-5.6 15.4-1.6-.3-3.7-.1-4.8.4-1.4.8-2.9.6-5.9-1-3.4-1.8-4-2.5-4-5.3 0-1.8.5-3.8 1.2-4.5.9-.9.9-1.5.1-2.3-1.5-1.5-3-.5-4.9 3.4-1.5 2.9-1.5 3.3.1 6.3.9 1.7 2.8 3.7 4.1 4.4 1.3.8 2.4 2.2 2.4 3.3 0 1.6-.3 1.7-1.5.7-.8-.7-2.3-.9-3.2-.5-2.4.8-2.9.7-2.5-1.1.4-1.7-3.9-1.9-5.6-.2-.8.8-1.4.5-2.1-1.4-1.6-4.2-2.8-4.1-5.8.3-1.5 2.3-3.6 5-4.5 6-1 1.1-1.8 2.9-1.8 4.1 0 2 .4 1.8 4.3-1.9l4.2-4.1 6.5 1.4c14.3 3.2 23.4 2.2 26-2.6.6-1.1 1.9-2 2.8-2 5.2 0 7-13.3 2.7-20.5-4.2-7.3-8.7-8.4-23.5-6.1zM33.5 587c1.8 1.9 1.7 2-.3 2-1.2 0-2.2-.2-2.2-.4s-.3-1.1-.6-2c-.9-2.2.9-2 3.1.4z"/><path d="M31 572.5c-2.9 3.6 1.9 7 5.3 3.7 1.7-1.7 1.8-2.3.7-3.6-1.6-2-4.4-2-6-.1zM6.4 575.1c-.7 1.2 1.2 2.9 3.4 2.9 1.9 0 1.4-1.8-.7-3-1.4-.7-2.2-.7-2.7.1zM41.4 576.4c-.8 2.2.3 3.3 1.8 1.8.9-.9.9-1.5 0-2.4-.9-.9-1.3-.7-1.8.6zM2 585c0 .5.5 1 1 1 .6 0 1-.5 1-1 0-.6-.4-1-1-1-.5 0-1 .4-1 1zM494.5 741c-.3.5-.1 1 .4 1 .6 0 1.1-.5 1.1-1 0-.6-.2-1-.4-1-.3 0-.8.4-1.1 1zM.2 747.3c.2 2.2.9 3.3 2.3 3.6 2.4.4 13.5 7.8 13.5 9 0 .5 3.4 2.6 7.6 4.7 6.4 3.2 8.9 3.9 15 4.2 5.2.3 7.9 0 9-.9 1.4-1.2.6-1.5-6.1-2.5-10.9-1.7-17.4-4.7-27.3-12.5-4.7-3.8-9.9-7.3-11.5-7.8-2.8-1-2.8-1-2.5 2.2zM61.2 779.5c-2.9.8-6.6 2.2-8.2 3-1.6.8-10.9 3.1-20.7 5-14.8 3-19 3.4-25 2.9-6.7-.6-7.3-.5-7.3 1.2 0 1.5.8 1.9 3.3 2 1.7.1 5.1.3 7.5.6 2.5.3 8.6-.4 15-1.7 5.9-1.2 12.5-2.5 14.7-2.9l4-.6-5 2.3c-4.8 2.3-13.8 4.2-31.3 6.8-8.5 1.3-11 2.9-4.4 2.9 3.5 0 14.4-1.6 27.2-3.9 3-.5 8.9-2.2 13-3.6 10.7-3.8 18.8-5.3 27.7-5.1 7.5.1 8.4.4 21.3 6.8 7.4 3.7 15.6 7.3 18.3 7.9 4.6 1.1 7.3 2.9 4.4 2.9-3.3 0-16.8-4-23.1-7-12.2-5.5-23.5-6.2-35.1-2-6.5 2.4-14.9 4.8-29 8.6-6.5 1.7-11.7 2.4-18.7 2.4-7.6 0-9.8.3-9.8 1.4 0 1 5.4 1.4 27.8 2 39.8.9 475 1.6 461.2.7-9.5-.7-13.3-1.4-21.7-4.4-12.6-4.5-17-4.6-28.3-.7-5 1.8-10.4 3-13.4 3-6.1 0-5.4-.6 5.4-5 7.6-3.1 9.4-3.5 17.5-3.4 7.4.1 10.7.7 18.5 3.3 7.7 2.6 11.7 3.4 20.6 3.8 7.8.4 11.3.2 11.8-.6s-.7-1.1-4.1-1.1c-7.3 0-19.2-2.4-26.3-5.3-14.3-5.6-25.9-5.7-37.6-.3-9.7 4.5-24.2 6.7-37.9 5.7l-3-.2 2.5-1.1c1.4-.5 5.6-1.4 9.4-1.9 7.9-1 16.3-4.5 21.2-8.9 4.8-4.2 12.9-6.3 22.3-5.8 6.6.4 8.4.9 13.5 4.1 6.5 4 11.7 5.7 25.1 8.2 8.7 1.6 15.5 1.4 15.5-.5 0-.6-1.8-1-4-1-8.2 0-22.3-3.9-32.5-9-11.8-5.9-17.1-6.8-27-4.6-9.6 2-11.7 2.9-17.5 7.5-5.1 4-5.6 4.2-24 7.7-11.5 2.2-23.9 2-33.6-.6-11.1-3-18.6-5.8-20.9-8-3.3-3-14.2-8-17.5-8-1.7 0-7.2 1.8-12.3 3.9-11.7 4.9-25.6 9.6-33 11.1-13.7 2.7-41.8-2-52.5-8.9-11.5-7.4-19.8-9.2-30.5-6.7-3.7.9-8.4 2.4-10.5 3.5-7.4 3.8-21.6 7.8-37.5 10.6-10.3 1.8-19.3.4-34.4-5.3-2.9-1.1-6.5-2.9-8-4-1.6-1.1-7.2-3.8-12.5-6-11.6-4.9-22-6.1-30.6-3.7zm21.9 5.4c2.4 1.2 3.5 1.9 2.4 1.5-7.6-2.2-12.6-2.7-20.6-1.7-4.6.5-8.5.9-8.7.8-.2-.2 1.6-1 4-1.9 5.8-2.1 17.1-1.5 22.9 1.3zm134.3 5.6c16.2 8 19.6 11.1 6.9 6.3-8.6-3.3-27.3-2.9-39.3.7-13.5 4.1-26.7 6.5-35.2 6.5-8.8 0-9.7-1.4-1.5-2.5 10.9-1.4 30.2-7.2 38.7-11.5 9.7-5 19.9-4.8 30.4.5zm-114.2 3.3c3.7 2 6.6 3.8 6.4 4-.7.6-16.4-7.3-18.3-9.1-1.3-1.4 4.9 1.3 11.9 5.1zm228.9-.2c1.9.9 4.8 2.8 6.5 4 3.5 2.7 11.4 5.6 19.8 7.4 3 .6 5.8 1.6 6.1 2.1 1.4 2.1-7.3.6-18.2-3.2-23.8-8.2-30-9-41.3-5-7.7 2.7-38.6 7.4-45 6.8-2.5-.2-6.7-.9-9.5-1.6-2.7-.7-6.7-1.7-8.8-2.3-2.2-.5-3.7-1.2-3.4-1.4.3-.3 2.5 0 4.8.7 2.9.9 10.2 1.3 20.9 1.2 15.2-.1 17.3-.3 26.5-3 5.5-1.7 12.5-4.3 15.5-5.8 9.6-4.8 16.6-4.8 26.1.1zm-253.7 4.9c2.7.3 7.7 1.8 11 3.4 3.4 1.5 7.5 3.2 9.1 3.7 2.7.8 2.3.9-3 1.2-4.7.2-6.2 0-7.2-1.4-2.3-3.2-16.3-4.4-23.8-2-3.8 1.2-3.4 1.3 6.5 1.2 10.3-.1 13.6.6 12.5 2.5-.7 1-12.4 1.2-20.3.2-3.6-.4-5.2-1-4.8-1.8.5-1.5-2.8-.9-5.9 1.1-1.4.8-3.9 1-8.5.5-3.6-.4-5.8-1-5-1.4 5-2.2 29-8.4 31.5-8.1 1.7.2 5.2.6 7.9.9zm143.2 1.6c3.8 1.1 10.3 3.3 14.4 4.9 5.1 1.9 10.8 3.2 17.5 3.8l10 .9H253c-5.8 0-10.9.1-11.5.2-.5.2-3 .3-5.3.2-3.5-.1-4.5-.5-4.9-2.1-.3-1.1-1.5-2.2-2.7-2.4-17.7-3.5-22.3-4.1-26.5-3.5-10.3 1.6-23.2 4.7-25.5 6.3-1.9 1.2-5 1.6-13.1 1.6-11 0-13.5-1.3-4.7-2.5 4.3-.6 14.1-3.1 30.2-7.6 9.3-2.6 23.7-2.5 32.6.2zm110.2 3.8c4.2 1.6 9.6 3.5 12 4.1 2.3.6 4.2 1.6 4.2 2.2 0 1.8-10.9.2-13.4-2-3.1-2.7-12.4-4.5-17.2-3.3-4.5 1.2-12.3 2.9-17.4 4-1.9.4-10.2.8-18.5.9-16.8.2-16.4-1.1 1-2.8 10.6-1.1 24-3.6 26.5-5.1 3.5-2 14.9-1 22.8 2zm-195-.2c-1 .2-2.6.2-3.5 0-1-.3-.2-.5 1.7-.5s2.7.2 1.8.5zm79.5 3.3c2.2.6 3.7 1.3 3.4 1.6-.2.2-8.1.6-17.5.7l-17.2.2 7.8-2.2c8.2-2.4 16.1-2.5 23.5-.3zm-91-.4c2 .4 3.7 1 3.7 1.5 0 .9-6.8 0-9-1.2-1.3-.7-1.3-.8 0-.9.8 0 3.2.3 5.3.6zM143 808c0 .5-.7 1-1.5 1s-1.5-.5-1.5-1c0-.6.7-1 1.5-1s1.5.4 1.5 1zm184.5.6c3.6.7 3.8.8 1.5 1.4-1.4.4-5.7.4-9.5 0-6.9-.6-7-.6-3.5-1.7 1.9-.7 4.4-1 5.5-.8 1.1.2 3.8.7 6 1.1zm48-.6c.3.5.2 1-.4 1-.5 0-1.3-.5-1.6-1-.3-.6-.2-1 .4-1 .5 0 1.3.4 1.6 1zm12.3-.3c-1 .2-2.8.2-4 0-1.3-.2-.5-.4 1.7-.4 2.2-.1 3.2.1 2.3.4zm72.2.7l3.3 1.3-3.4.4c-4.8.6-19.7-.6-17.9-1.3 3.3-1.4 4.7-1.6 9.6-1.7 2.9-.1 6.6.5 8.4 1.3zM38.7 833.2c1.2 6.8.8 25.5-.6 27.2-1.1 1.3-.9 1.6 1.1 2 1.2.3 3.9.2 5.8-.2 3.4-.8 3.5-.9 3.8-6.2.1-3 .5-6.1.8-6.9.7-2.2 12.3 9.6 11.7 11.9-.4 1.5.3 1.9 4.9 2.2 6.4.4 10-.1 9.6-1.2-.2-.5-2.2-2.1-4.4-3.7C66.8 855.2 57 844 57 841.9c.1-1.9 9.3-8 13.3-8.8 5.2-1.1 4.1-3.5-1.8-3.9-4.2-.3-5.3 0-7 2-3.2 3.8-10.4 9-11.5 8.3-1.5-.9-1.2-4.7.5-7.1.8-1.2 1.1-2.4.8-2.8-.3-.3-3.5-.6-7-.6H38l.7 4.2zM82.4 830.2c-.3.5.1 1.7.9 2.6 1.1 1.3 1.5 4.6 1.5 14.6 0 11.5.2 13.1 1.8 14.3 1.1.8 2.8 1.2 3.9 1.1 2.1-.3 2.7-2.8 4-17.8.4-3.5 1.3-8 2.2-9.8 1.2-2.5 1.3-3.6.4-4.5-1.4-1.4-13.9-1.9-14.7-.5zM102.5 830c-.4.6-.6 7.4-.5 15.3.1 7.8 0 15-.2 16.1-.3 1.5.4 1.8 4.7 1.9l5 .2-.3-8.7c-.1-4.8.1-8.9.6-9.2.5-.3 3.1 2.4 5.8 6 4.4 5.8 12.6 13.4 14.5 13.4.4 0 1.7-.9 3-1.9 2.2-1.8 2.4-2.5 2.1-10.8-.1-4.8-.4-10.7-.7-13-.3-3.5 0-4.6 1.8-5.8 3.3-2.3.9-3.7-5.9-3.3-4.4.2-5.9.7-5.9 1.8 0 .8 1 1.6 2.1 1.8 2 .3 2.1.9 2.3 9.8.1 7.3-.2 9.5-1.1 9.2-.7-.2-4.5-5.1-8.3-10.9-3.9-5.7-8.2-10.9-9.5-11.6-3-1.5-8.6-1.7-9.5-.3zM158.1 830c-5.3 1.1-11.4 5.1-13 8.6-1.7 3.7-1.3 12.4.7 16.4 2.5 5.1 8.8 8 17.2 8 8.9 0 11-1.5 11-7.9 0-6.2-1.3-7.3-8.7-6.9-4.3.2-5.8.7-5.8 1.8 0 .8 1.2 1.7 2.9 2 3.7.6 5.5 3.2 3.7 5.4-1.7 2-4.4 2-8.1.1-3.7-1.9-5.3-7.4-4.4-14.6.9-6.6 4.5-9.3 11.4-8.4 5.2.6 9.4-1.4 7.3-3.5-1.5-1.6-8.8-2.1-14.2-1zM284.5 832.9c-9.5 1.7-15 7.5-14.9 15.8.2 9.8 5.8 15 17.2 15.9 5.9.5 10.1-.8 11-3.5.3-1-.4-1.2-3.7-.6-5.3.9-10.4-.8-13.6-4.6-6.4-7.7.8-22.8 9-19.1 2.3 1.1 2.5 1.6 1.9 5.2-.9 5.5 1.3 5.3 6-.4 3.5-4.4 4.8-8.2 2.4-7.4-.7.3-3.3-.1-5.7-.9-2.4-.7-4.7-1.2-5-1.2-.3.1-2.4.5-4.6.8zM331.7 832.7c-.4.3 0 1.4.9 2.4 1.3 1.4 1.6 4 1.5 12.4-.1 5.9-.4 11.1-.7 11.6-.3.5-2.5.9-4.9.9-3.2 0-5-.6-6.4-2.1-2.3-2.4-3.5-10.9-2.6-17.4 1-6-.4-7.5-6.6-7.5-5.6 0-6.5 1.6-2.3 4 2.5 1.4 2.6 2 2.8 10.1.2 9.6 1.5 12.6 6.9 16 3.6 2.2 9.4 1.9 13.5-.7 2-1.3 2.5-1.3 4.4.1 2.7 1.8 6.8 2 6.8.2 0-.7-1.1-2.3-2.5-3.5-2.3-2-2.5-2.8-2.5-11.4 0-7.1.4-9.6 1.6-11 1.4-1.4 1.4-2 .4-3.3-1.3-1.5-9-2.1-10.3-.8zM352.5 833c-.3.5-.1 1.8.5 2.9.5 1.1 1 7.1 1 13.4 0 10.7-.1 11.6-2.2 13-2 1.4-2.1 1.8-.8 2.6 2.2 1.6 9.6 1.3 10.9-.3.7-.8.8-1.7.3-2-1.3-.8-2.1-7.6-1.1-10.2.6-1.6 1.8-2.2 5.3-2.6 5.6-.7 9-2.8 11.2-6.9 2-4.1 1.1-7.5-2.6-9.4-3.3-1.7-21.5-2.2-22.5-.5zm15.3 3.2c3.1 3.1.1 9.8-4.3 9.8-2.5 0-3.5-1.7-3.5-6 0-4.2 5-6.6 7.8-3.8zM391.9 833.3c-5.2 1.7-6.9 3.5-6.9 7.3 0 5.7 4.2 8.3 12.4 7.5 4.2-.3 8.2 6.1 6.6 10.4-1.2 3.2-5.2 3.3-13.7.3-5.1-1.9-6.4-2-7.7-.9-1.8 1.5-2.1 4.7-.6 5.6.6.3 5.6.7 11.3.7 13 .1 17.3-1.4 18.2-6.6.8-4.1-1-10.2-3.3-11.5-.9-.5-4.4-.9-7.8-.8-7.2 0-8.4-.5-8.4-4.2 0-5.1 5-6.9 8.5-3.1 2.1 2.3 4.8 2.6 6.4.6 1.8-2.2.3-4.3-3.7-4.9-2-.3-4.6-.8-5.7-1.1-1.1-.2-3.6.1-5.6.7zM216.4 835.8c-1.5 1-3.4 4.7-3.4 6.8 0 .9 2.1 4.8 4.7 8.5 3.8 5.6 4.7 7.9 5.1 12.3.4 5.2.3 5.7-2.9 8.5-3.2 2.9-3.2 3.1-1 3.1 3.3 0 8.8-5.9 9.6-10.3.4-2.1.3-5.6-.3-7.8-1-3.8-.9-4.1 1.4-4.9 2.8-1.1 3-3.1.8-6.5-2-3-4-3.2-5.4-.4-1.1 2-1.2 2-3.2.2-4-3.6-4.7-9.5-.8-7.1 2.2 1.4 4.8-.2 3.6-2.1-.8-1.2-6.5-1.5-8.2-.3z"/><path d="M202.4 850.4c-2.2 2.2-3.4 4.4-3.4 6 0 3.6 4.1 7.6 7.8 7.6 3.6 0 9.6-3.9 10.1-6.5.5-2.7-2.6-8.1-5.5-9.4-3.9-1.7-5.3-1.4-9 2.3zm9.4 5c.5 2.4-1 3.8-3.1 3-2-.7-2.2-2.5-.5-4.2 1.6-1.6 3.2-1 3.6 1.2zM427.8 859.7c-2.1 2.5-1.2 4.3 2.2 4.3 3 0 5.1-2.4 4.3-4.8-.7-1.8-4.8-1.5-6.5.5z"/></svg>