<svg version="1" xmlns="http://www.w3.org/2000/svg" width="666.667" height="1170.667" viewBox="0 0 500 878"><path d="M102 53.1c-7.7 1.5-63.6 6.1-71.1 5.9-8.4-.2-7 5.7 1.7 7 2.8.5 6.8 1.6 9 2.6 2.1 1 5 2.1 6.4 2.4 4.7 1 2.1 2.5-6.7 3.8-20.1 2.9-32 6.2-35.2 9.6-3.2 3.4-2.2 5.2 3.5 6 2.6.3 5.3 1.1 6.1 1.8.8.6 3.9 1.3 6.8 1.4 3 .2 6.4.8 7.5 1.4 1.3.7 6.1 1 12 .9 8.6-.2 10.2 0 12.1 1.7 1.5 1.4 3.7 1.9 7.8 2 3.1 0 8.4.4 11.9.9 5.6.7 7 .5 13.3-2l7-2.9 5 1.8c3.5 1.3 6.6 1.7 10.2 1.3 6.2-.6 12.4.9 13.8 3.5.8 1.4.5 2.7-1 5.1-8.4 13-10.5 22.6-7.1 32.8 1.8 5.2 1.8 6.3.6 14.2-1.1 6.7-2.3 10.1-5.6 15.7-3.9 6.7-4.1 7.4-2.9 10.2.8 2 2.6 3.7 5.2 4.8 3.5 1.6 4.5 1.6 10 .4 3.3-.8 7-2.2 8.2-3.2 1.2-.9 3.9-3 5.9-4.6 2-1.6 4-2.5 4.4-2.1.4.4-.3 1.4-1.5 2.2-1.6 1.1-2.3 2.5-2.3 4.8 0 3.6-2.1 6.7-8.9 13.2-5.2 5-7.1 9.6-7.1 17.6 0 3.2-.7 7.4-1.6 9.5-1 2.4-1.8 8.3-2.1 16.5-.6 12-.5 13 1.5 15.7 1.2 1.6 2.2 3.4 2.2 4 0 .6.7 2.4 1.5 4.1.9 1.6 1.7 5.8 1.9 9.3.2 3.5.8 7.2 1.4 8.2 1.6 3.2 4.1 20.2 4.7 32.8.3 6.6 1 12.7 1.5 13.6.6 1.2.3 2.9-1 5.6-1.1 2.1-2 4.4-2 5.1 0 .8-1.1 3.9-2.4 7.1-1.3 3.1-2.7 7.9-3.1 10.7-.9 7-2.7 14.8-3.7 15.9-.5.6-1.2.6-1.9-.1-.8-.8-.5-2.3 1.1-5.3 2.3-4.6 2.3-8.9 0-10-4.1-2.1-11-2.8-17-2-8.6 1.2-10.4 3.1-11 11.8l-.5 6.7-6.5-.3c-4.3-.2-8.2-1.1-11.5-2.7-7.2-3.5-24.3-8.8-32-9.9-2.2-.3-9.8-.2-17 .3C8 361 0 363.6 0 367.7c0 2.2.1 2.3 2.3.9 1.2-.8 5.6-2.4 9.7-3.6 6.6-2 9-2.2 20-1.7 15 .7 24.2 3 35.9 8.9 13.2 6.7 22 15.6 23.5 23.8.9 4.8-1.2 22.2-3.6 29.5-1.8 5.7-2.6 8.7-4.7 18.7-1.2 5.9-2.6 26.7-2.3 35.8.2 5.2 1.2 10.2 3.3 16.3 5 14.6 8.5 19.6 16.4 23.3 8.1 3.8 8.8 4.6 7 8-.8 1.6-1.5 2.2-1.5 1.3 0-.8-.6-2.4-1.4-3.5-1.4-1.8-1.6-1.8-3.1-.3s-1.6 2.4-.6 6.8c1.3 6.3 1.4 10.4.2 9.7-.5-.3-1.2-2.2-1.6-4.3-.4-2-1.5-5.4-2.6-7.5-1-2-1.9-4.8-1.9-6.2 0-2.7-2.8-4.4-3.6-2.1-.3.8-.3 1.8 0 2.4.7 1.1-.3 4.1-1.4 4.1-.4 0-1.3-1.4-1.9-3.2-1.1-3-1.2-3.1-3.1-1.3-2.6 2.4-2.5 4.3.5 8.7 3.6 5.3 4.9 12.3 3.6 19.4-1.8 9.5-4.7 14.2-14.8 24.1-9 8.8-16.1 13.9-29.7 21.3-3.5 1.9-7 4.1-7.8 4.7-.8.7-3.2 1.2-5.4 1-3.7-.2-3.9-.1-3.6 2.5.3 3-1.4 3.8-3.5 1.7-2-2-4.6-.2-3.9 2.5.8 3.3-1.2 4.4-3 1.7-.8-1.2-2.1-2.1-2.8-2.1-2.2 0-2.7 2.8-.9 4.6 1.6 1.5 1.5 1.8-1.2 4.1C2 626.3 0 628.3 0 630.1c0 1 .3 1.9.8 1.9.4 0 3.4-2.4 6.7-5.3 3.3-2.9 8.7-7 12-9.2 3.3-2.1 9.2-6 13-8.6 3.9-2.6 9.9-6.2 13.5-8.1 3.6-1.9 8.5-4.8 10.9-6.4 2.4-1.6 5.8-3.7 7.4-4.7 4-2.4 16.5-12.7 19.8-16.3 3.9-4.2 7.5-10.5 9-15.3 1.6-5.4 3.3-6.1 6.7-2.8 3.4 3.1 7.7 5.2 12.3 6.1 2.1.4 4.8 1.5 6.2 2.6 1.4 1.1 3.1 2 3.9 2 .7.1 2.9 1.4 4.8 3 1.9 1.7 4.6 3 6 3 1.4 0 3.9.9 5.5 2 1.8 1.2 4.7 2 7.4 2 3.7 0 4.9-.5 7.5-3.3 4.4-4.7 6-8.1 5.2-11.1-.8-3.3-4.1-3.5-7.3-.4-2.2 2-2.5 2.1-3.9.6-2.6-2.6-1.1-7.3 7.6-24.4 11.2-22 13.7-33.5 8.4-38.5-2.1-2-2.5-3-1.9-5.9.3-1.9.6-4.9.5-6.5-.2-10 .3-16.8 1.9-22.5 2.7-9.7 9.2-21.8 14.5-26.9 5.2-5.1 7.2-5 2.8 0-4.3 5-11.2 15.9-11.8 18.9-.3 1.4-1.4 5.9-2.5 10.1-1.7 6.1-2 9.6-1.6 18.5.4 10.1 2.1 17.4 3.9 17.4 1.4 0 .9 3-1.3 7.1-1.8 3.7-2 5.6-1.8 24.2.2 20.7-.7 28.4-4.8 42.9-1.5 5-2.3 6.1-6.7 9.1-2.8 1.9-8.9 5.4-13.6 7.7-4.7 2.3-9.6 4.8-11 5.6-1.4.7-4.5 2.3-7 3.4-14.2 6.5-18.3 9.9-14.8 12.2.7.4 5.1.8 9.8.8 4.7 0 10.2.3 12.3.6 2.4.4 4.3.2 5.3-.7.9-.7 3.4-1.2 5.7-1 2.3.1 5.7-.4 7.7-1.2 7.3-3.1 14.3-4 19.6-2.7 2.7.7 7.3 1.3 10.3 1.4 7.4.1 7.6 2 .6 4.1-5.7 1.6-16.5 8-16.5 9.7 0 .4.6 1.7 1.3 2.9 1 1.7.9 2.2-.8 3.6-2 1.5-2 1.5 0 1.1 1.1-.2 2.6-1.5 3.3-3 .9-2 2.5-3 5.5-3.8 2.3-.5 5.6-1.5 7.4-2.1 3.5-1.1 8-.6 15.6 1.8 5.8 1.9 10.4 1.3 15.4-2.1 4.3-3 8.1-3.4 9-1 .3.9-.1 5.6-1.1 10.3-1.8 9.3-3.3 19.6-4.2 30.6-.4 3.8-1.1 7.8-1.6 8.7-.5 1.1-.5 2.6.2 3.9.9 1.6.8 2.4-.3 3.7-2.9 3.3-4.8 11.4-4.6 19.2.2 4.7-.2 8.4-1 9.9-1.2 2.2-1.7 2.3-8.5 1.8-3.9-.3-9.1-.1-11.5.5-3.4.9-8.3.6-23-1.1-10.2-1.2-20.4-2.9-22.6-3.6-8-2.8-14-2.8-23.1 0-1.6.5-3.6-.6-8.7-5-12.3-10.4-18.4-11.2-29.3-3.6-9.6 6.6-16.8 9.2-28.9 10.2-5.5.5-11.1 1-12.4 1.1-1.9.2-3.2-.9-6.5-5.7-2.2-3.3-8.9-11-14.8-17.2-5.9-6.1-11.8-13-13.2-15.2C1 665.4 0 665.2 0 670c0 4 .5 4.8 11.7 16.1 6.4 6.5 13.1 14 14.8 16.6 1.6 2.6 4.5 6.8 6.4 9.3 6.7 9.1 7.5 11.6 6.2 19-1.2 6.4-1.1 6.8 1.9 13.9 3.5 8.2 7.3 21.9 6.6 23.8-.7 1.7-7.9-.9-13.1-4.7-4.3-3.2-11.9-7-13.9-7-.7 0-2.3-1.1-3.6-2.5-3.4-3.6-1.6-4.8 4.5-3 6.5 2 8.6 1.3 5.6-1.8-3-3.2-2.6-4 1.3-3.3 3.8.7 6-1 3.2-2.6-.8-.5-2.9-2.3-4.6-4.1-1.9-2-3.9-3.2-5.6-3.2-1.5 0-3.2-.8-3.8-1.8-.9-1.5-.6-2.3 2.2-4.7 3.5-3.2 4.1-5 1.6-5-2.5 0-7.5-6-6.9-8.1.7-2.2.2-2.3-2.5-.9-2.4 1.3-3.7-.5-1.9-2.6 1.5-1.8.3-3.2-1.3-1.6-1.9 1.9-4.8 1.4-4.8-.8 0-1.1.5-2 1-2 .6 0 1-.5 1-1.2 0-.6-.7-.5-1.8.5-1.4 1.3-2.1 1.4-3 .5-.9-.9-1.2-.2-1.2 3 0 2.3.4 4.2.8 4.2 1.3 0 6.2 7.2 5.6 8.2-.3.4-1.8.8-3.5.8-2.4 0-2.9.4-2.9 2.5 0 2.3.4 2.5 4.6 2.5 2.7 0 4.3.4 3.9 1-.3.5-2.4 1-4.6 1-4 0-5.2 1.3-2.3 2.4.9.3 2.8.6 4.2.6 2.1 0 2.4.2 1.2 1-.8.5-2.7 1-4.2 1-1.6 0-2.8.4-2.8 1 0 .5 2.5 1 5.5 1s5.5.4 5.5 1c0 .5-2.5 1-5.5 1s-5.5.4-5.5.9c0 1.4 2.1 1.8 8.5 1.6 11.8-.5 14.1 2.3 4.6 5.5-6 2-7.1 3.1-7.1 7.6 0 5.5-1.2 9.4-2.8 9.4-1.3 0-1.3.2.1 1.8 2.1 2.3 2.1 4 .2 8.6l-1.6 3.7 6.7 6.5c3.6 3.6 8.5 7.4 10.8 8.3 2.2 1 6.3 2.8 9 4.1 7.5 3.4 14.9 5 23 5 10 0 11.2-1.3 9.5-10.1-.6-3.5-1.8-8.6-2.6-11.2-.7-2.7-1.8-6.7-2.2-9-.9-4.1-1.4-5.9-7.4-22.5-1.6-4.5-2.8-8.5-2.5-8.7.9-1 32.4 1.8 36.1 3.1 4.5 1.7 13.7 1.8 19.1.3 4.6-1.3 12.9-.3 12.3 1.4-.2.7-2.7 2.2-5.6 3.3-3 1.2-6.2 2.9-7.2 3.8-1.8 1.5-1.8 1.8-.3 4.1.8 1.3 3.6 3.4 6 4.5 4 2 6.2 2.2 22.7 2.3 10 .1 30.5-.2 45.5-.7 25.6-.9 27.2-.8 27.2.8 0 1-1.8 6.1-3.9 11.4-6.3 15.8-7.2 19.4-5.4 22.8.8 1.6 2.1 3.3 3 3.8 3.9 2.2-3.8 2.5-44.7 1.9-23.9-.3-44.4-.5-45.5-.5-27.7.5-72.9 0-74.5-.8-1.3-.7-2.6-.7-3.8-.1-.9.5-7.5.8-14.5.8L0 804.5v5.4h250c222.6.1 250 0 250-1.4 0-.8-.4-1.5-.9-1.5s-1.9-1.6-3.2-3.6c-3-4.9-11.3-8.7-27.6-12.6-19-4.5-21.1-5.6-16.3-8.6 4.6-2.8 1.2-8.5-6.3-10.7-7-2-43.1-6.6-59.4-7.5-7.2-.4-13.6-1-14.1-1.4-.5-.3-3.3-.7-6.4-1-6.8-.7-11-2.1-8.7-3 .8-.4 2.8-.2 4.3.4 2.1.8 3.2.7 4.9-.5 2.6-1.8 6.1-1.9 9-.3 4.7 2.7 14.8 3.6 22.2 2.1 3.9-.8 13.3-1.5 21-1.6l14-.2 1.7-3.4c1-1.9 2.4-3.9 3.2-4.3 2.9-1.6 8.3-1.1 13 1.2 4.2 2 5.9 2.2 15.5 1.8 11.7-.4 14.1-1.3 14.1-5.5 0-1.3 2.3-5.7 5-9.6 3.4-4.9 5.7-9.6 7.1-14.7 1.2-4.1 2.8-8.8 3.6-10.3 1.8-3.5 1-4.7-3.2-4.7-2.5 0-4.3 1-7.5 4-3.4 3.3-4.5 3.8-6.1 3-1.5-.9-1.9-2.2-1.9-7 0-3.3.4-6 .9-6s1.6-.3 2.5-.6c1-.4 1.9.3 2.7 2 1 2 1.9 2.6 4.4 2.6 3.2 0 6.4-2.4 5.1-3.8-.4-.4-1.4.2-2.2 1.2-1.4 1.9-1.4 1.9-1.4-.2 0-1.2.9-4.1 1.9-6.5 2.8-6.2 3.2-8 3.2-15 0-3.6.7-7.6 1.5-9.2.8-1.5 1.4-4.2 1.4-6 0-1.8.7-4.6 1.5-6.1 1.5-2.9 1.2-7.7-.7-10.1-.6-.7-.5-4 .3-9 .6-4.3 1.3-17.4 1.6-29.1l.4-21.4-2.6-1.9c-1.5-1.2-2.5-3.1-2.5-4.5 0-3.6-1.6-6.2-5-7.9-5.7-3-14-.9-14 3.5 0 2.7-4.7 7.8-8.6 9.5-5.2 2.1-4.5 7.6 1 8.6 3 .6 2.4 2.4-.8 2.4-1.8.1-3.6 1-4.8 2.4-2.3 2.9-1.9 4.7 1.1 4.3 1.9-.3 2.2 0 1.9 2.5-.3 2.8-.3 2.8-7.5 2.8-8 0-10.1 1.1-8.4 4.3.9 1.7.4 2.8-3.2 7.4-2.4 2.9-5.1 7.4-6.1 10-2.3 6.4-3.7 7.3-7.5 5.3-2.8-1.4-3.4-1.4-6.3.1-7.2 3.7-14.6 9.5-21.5 16.7-9.4 9.9-11.3 10.8-21.7 10.6-4.5-.1-9.1.3-10.2.9-3.8 2.1-9.6 9.1-10.3 12.4-.6 2.9-1.5 3.7-8.1 7-4.1 2.1-7.8 3.8-8.2 3.8-1.7 0-.6-2.2 2.7-5.8 2.4-2.7 3.2-4.5 2.9-5.9-.6-2.3 2.2-7.2 7.9-14 1.9-2.4 4.6-6 5.8-8 1.3-2.1 3.8-5.8 5.7-8.2 1.8-2.5 4.7-7.2 6.4-10.5 1.6-3.4 4-7.2 5.3-8.6 2.2-2.5 9.6-16.5 13.1-25 2.5-5.8 2.4-16.1-.1-21.3-2.3-4.9-20.3-21.1-35.4-32-6.4-4.6-12.6-8.9-13.8-9.6-2.9-1.5-2.9-2.9-.2-19.3 1.4-8.8 1.8-13.7 1.1-15.6-2.4-7.3 5.7-22.2 12.2-22.2 1.5 0 3.6-.5 4.7-1 1-.6 1.9-.7 1.9-.2 0 1.5-3.3 4-6.2 4.7-3.7.9-8.8 6.9-8.8 10.2 0 1.5 1.1 3.9 2.7 5.5 2.1 2.2 2.4 3 1.4 4.2-1 1.2-.8 1.7.9 2.6 1.8 1 1.9 1.4.9 2.7-1.1 1.3-1 1.7.5 2.9 1.5 1 1.6 1.7.8 2.7-1.3 1.6-.6 2.7 1.6 2.7.9 0 2.4.7 3.4 1.7 1.7 1.5 1.9 1.5 3.7-.1 1.9-1.7 2-1.7 3 .3.6 1.1 1.1 2.6 1.1 3.4 0 .7 1.1 2.3 2.5 3.5 1.4 1.2 2.5 2.7 2.5 3.2 0 3.4 20.7 8.4 23 5.7.6-.7 1.9-2.4 3.1-3.9 1.2-1.6 3.7-3.2 6.2-3.9 2.3-.6 5.9-2.5 8-4.1 3.7-3 3.8-3.2 3.2-7.9-.6-4.5-.4-5.1 4-11.6 2.6-3.7 5.8-7.9 7-9.3 1.3-1.4 3-4 4-5.9 2.6-5.2 19.6-22.4 20.9-21.1 1.8 1.8 4.6 1 7.6-2.3 5.4-5.8 8.2-11.3 8.2-16.4.1-6.1 1.4-8 3.9-5.7 2.1 1.9 3.9 1.1 3.9-1.7 0-3.8 2.1-5.9 9-9.4l7-3.5v-4.9c0-2.7.9-7 2-9.6 1.7-4.1 2-6.9 2-22.1 0-16.4-.6-19.8-2.7-16-.4.8-2.8 2.9-5.2 4.6-4.6 3.4-6 3-6.1-1.5-.1-6.3-14.3-37.3-20-43.9-1.7-1.8-3-3.9-3-4.5 0-1.1-7.7-7.1-9.1-7.1-.4 0-4.1-2.5-8.1-5.5-13.1-9.9-23.3-14-40.3-16.1-10-1.3-14.4-1.4-26-.4-19.2 1.5-32.5 4.7-32.5 7.6 0 1.8 1.7 1.8 6.6 0 6.4-2.2 27.2-4.9 38.1-4.8 11.7 0 31.3 2.9 32.9 4.9.6.7 2.6 1.9 4.5 2.7 4.4 1.9 12.1 7.1 12 8.1 0 .5-3.2 1.6-7 2.6s-8.7 2.9-10.8 4.4c-4.1 2.6-11.3 10.4-15.7 17-3 4.3-3.2 3.7-1.2-3.7 2.2-8.3 3.2-10.4 9.6-19.5 5.9-8.5 6.5-10.3 3.2-10.3-2.1 0-11.3 5.2-13.1 7.4-1.6 1.9-3.1 2.1-3.1.3 0-.7-.5-1.8-1.2-2.5-1.6-1.6-8 2.1-12.2 7.3-3.9 4.7-9.6 15.6-9.6 18.3 0 1-1.1 2.9-2.5 4.2-3.1 2.9-3.1 1.8 0-7.5 2.6-7.8 6.4-14.7 12.7-23 2.3-3.1 3.4-5.3 2.8-5.9-1.6-1.6-6.2 3.7-13 14.9-3.5 5.8-6.5 10.3-6.8 10.1-.2-.3 1.2-3.7 3.2-7.7 3.7-7.2 3.9-9.2.8-7.3-4.5 2.9-13.2 21-13.2 27.6 0 1.4-.7 4.7-1.5 7.4s-1.5 6.2-1.5 7.7c0 1.6-.4 2.6-1 2.2-1.7-1-1.1-11.2 1.1-20.9 2.5-10.6 7.6-21.5 11.6-24.5 1.5-1.2 3.9-3 5.3-4.1 1.9-1.4 2.2-2.1 1.3-3.1-3-3.1-12.5 4.3-17.6 13.9-4.3 8-7.7 22.9-7.7 34.2 0 6.5-.3 9-1 8-1.2-1.9-1.2-19.2 0-24.5.8-3.5.7-4.2-1.2-5.6l-2.1-1.7 2.1-3.6 2.2-3.7-2.4-3.2c-5.3-7-9.3-21.3-9.7-34.7-.2-6.9.2-9.7 2.2-14.9l2.4-6.4-2.3-1.5c-1.8-1.2-2.2-2.4-2.2-6.3 0-4.1.4-5.3 2.9-7.5 6.3-5.6 6.5-13 .5-18.3-3.8-3.4-5.1-3.7-8.8-2l-2.5 1.2 1.8 3.6c1.4 2.6 1.8 5.3 1.6 9.6-.2 3.3-.3 8.3-.4 11.1l-.1 5.2-4.6.7c-6.1.9-7.4-.4-7.4-7 0-5 .1-5.3 3-5.9 2.9-.5 4-2.8 2.1-4-.6-.4-.5-2.1.1-4.2 1.2-4.7.3-8.6-2-8.2-1.4.3-1.7 1.5-1.7 6.6 0 5.7-.2 6.2-2.1 6.2-4.6 0-6.3-7.2-2.7-11.2 1.5-1.7 1.5-1.9 0-3.6-1-1-1.7-2.9-1.7-4.3-.1-2.8-3.1-12.3-5.5-16.9-1.2-2.2-1.4-3.5-.6-4.3.7-.7 1.3-.2 2 1.5 1.9 4.9 4.5 4.4 5.3-1 .6-4.1-.9-5.4-6.6-5.4-4.3 0-4.4-.1-6.4-4.8-1.1-2.6-1.7-5.2-1.3-5.8.3-.5 2.4-.9 4.6-.8 3 .1 4-.3 4-1.4 0-1-1.8-1.9-5.5-2.7l-5.5-1.1 5.2-.1c5.7-.1 7-1.1 5.1-4-.9-1.5-.9-2.3.2-3.6 1-1.3 2.9-1.5 9.4-1.3 8 .3 8.1.3 8.4 3 .2 2 1 3 2.9 3.4 3.1.8 16.2-.3 20.3-1.8 2.3-.8 3.5-.7 4.3.1 2.1 2.1.5 2.5-14.5 3.7-5.2.5-7.9 1.1-8.2 2.1-.9 2.1 1.8 2.6 11 2 4.6-.2 8.4-.2 8.4.1 0 .3-1 3.2-2.2 6.4-2.1 5.9-2.2 6-5.2 5.2-5.5-1.3-9.1-1-9.1.6 0 1 1.2 1.6 3.5 1.8 5.6.6 8.7 4.3 3.3 3.9-1.9-.1-2.8.3-2.8 1.3 0 .8.8 1.4 1.8 1.4 2.1-.2 2.2 1.9.1 3.7-1.4 1.1-1.9.9-3.6-1.4-2-2.8-5.1-3.6-6.3-1.6-.4.6.3 2.2 1.6 3.5 2 2.1 2.1 2.7.9 3.5-.8.5-3.4.8-5.7.5-4.8-.6-7.4 1.2-4.8 3.4 2 1.7 10.5.4 12.1-1.8 1.7-2.3 3-.8 1.7 2-.8 1.9-1.8 2.2-7.2 2.4-3.4.1-6.8.7-7.4 1.3-1.9 1.9.8 2.9 5.9 2.3 2.7-.3 5 0 5.8.8.9.6 1.9.9 2.5.6.5-.4 6.2-11.1 12.7-23.9 6.5-12.7 12.8-25.3 14.1-27.8 1.3-2.5 2.6-6.2 3-8.2.5-3.3.2-4.1-3.1-7.2-4.8-4.5-8.2-5.4-26.6-6.9-15.1-1.3-18.2-1.2-36.4 1.3-11.8 1.6-18.5 6.6-17 12.7.4 1.6 3 6.5 5.9 10.9 2.9 4.4 5.9 10 6.8 12.5 2.4 6.9 6.8 17.4 7.9 18.7 1.4 1.7 6.8 16.5 6.8 18.5 0 1-1 2.3-2.2 2.9-4.6 2.3-6.8 5.2-6.8 8.6 0 4.5 1.4 7.1 5.8 10.9l3.5 3.2-3.4 1.7c-1.9 1-6.2 4.6-9.6 8.1-4.4 4.4-7.1 6.4-8.7 6.4-3.2 0-4.2 1.7-2.4 3.8 1.1 1.3 1.4 4.5 1.4 12.2-.1 5.8-.5 10.5-1 10.5s-1-4.5-1.1-10c-.1-5.5-.5-10.7-.9-11.6-1-2.3-7.4-3.1-15.3-1.9-12.5 1.9-23.3 1.9-27.2.2-5.1-2.3-8.1-5.2-8.1-7.7 0-1.2-.8-3-1.9-3.9-1-.9-2.1-3.5-2.5-5.7-.8-5-4.5-14.2-9.6-23.9-2.2-4.1-5.1-10-6.5-13-3.7-7.8-10.5-18-12-18-.7 0-2.4-1.5-3.8-3.3-1.4-1.9-5.3-5.3-8.6-7.8-6.1-4.4-6.1-4.4-5.5-8.4.3-2.2.8-4.2 1-4.4.3-.3 2.6-.5 5.3-.6 6.3-.1 9.7-2.4 11.2-7.6 1.4-4.6.7-6.7-3-8.5-4.1-2.1-4.5-3.1-2.7-5.8.9-1.5 2.3-2.6 3-2.6 3.4 0 3.8-2.7 1.6-11.1-2-7.7-2-8.4-.5-12.2.9-2.2 3.6-5.8 6.1-8 2.4-2.1 4.9-4.8 5.5-5.8 1.5-2.8-.5-5.7-5.6-7.9-2.3-1-4.6-2.3-4.9-2.9-.4-.5.6-3.2 2.1-5.9l2.7-4.9-5.4-6.1c-3-3.4-7.3-7.1-9.6-8.4l-4.2-2.2-4.2 4.3c-5.1 5.2-6.4 4.7-2.1-.7 1.7-2.2 3.1-4.7 3.1-5.5 0-2-7.7-9.7-12.2-12.1l-3.6-2-4.2 4c-2.3 2.1-6.4 6.9-9.1 10.6-4.6 6.3-5.2 6.8-8.7 6.8-2 0-5.8.7-8.3 1.4-5.2 1.6-6.9.8-6.9-3 0-1.2-1.1-2.9-2.5-3.8-2.4-1.6-2.5-1.9-2.3-11.9.3-9.8.2-10.5-2.5-14.6-1.5-2.3-3.9-4.6-5.3-5.1-3-1.2-15.1-1.1-21.4.1zm20.6 5.3c2.8 2.8 3.4 4.2 3.5 7.7 0 2.4.2 7 .3 10.1.3 6.8-.9 6.8-1.8.1-1.2-8.2-2.6-12.1-5.3-15.3l-2.6-3.1-12.6.6c-6.9.4-17.8 1.3-24.1 2-20.2 2.4-25 2.7-25 1.7 0-.5 3.9-1.3 8.8-1.6 14.1-1.1 36.5-3.7 39.7-4.6 1.7-.4 5.9-.9 9.4-.9 5.9-.1 6.5.1 9.7 3.3zm-82.1 4.2c9.3.6 9.6.8 1.5 1.4-8.5.6-12.6-.2-11.4-2.1.4-.7 1.7-.8 3.3-.3 1.4.4 4.4.9 6.6 1zm71.8-1c.4.4.5 1 .2 1.4-.6.9-6.5 0-6.5-1.1 0-1 5.3-1.2 6.3-.3zm-9.1 4.1c2.5 2.4 5.3 6.3 7.1 10.3 1.6 3.6 4 8 5.4 9.7 1.3 1.8 1.9 3.3 1.4 3.3-1.2 0-7.6-8.7-10.5-14-1-1.9-3.3-4.8-5.2-6.3L98 65.8 91.8 68c-6.2 2.1-22.9 6-25.8 6-3.5-.1 2.2-2.8 7.2-3.4 2.8-.4 7.1-1.6 9.4-2.7 2.4-1 4.9-1.9 5.6-1.9.7-.1 2.9-.9 4.8-2 4.8-2.6 5.4-2.5 10.2 1.7zm15.3-1.6c.5 1.4.2 2.5-.6 3-1.9 1.1-2.9-.2-2.3-2.9.8-2.8 2.1-2.8 2.9-.1zM77 65.5c-3.5 2-6.2 1.9-3.6 0 1.1-.8 2.9-1.5 4-1.5 1.9.1 1.9.2-.4 1.5zm20 6c0 .8-5.8 3.5-7.5 3.5-2.1 0-.9-1.9 1.9-3 2.3-1 5.6-1.3 5.6-.5zm23 1c0 .8-.4 1.5-.9 1.5-1.3 0-2.2-1.6-1.4-2.4 1.1-1.1 2.3-.6 2.3.9zm61.4 3.8c3.1 2.9 5.6 5.8 5.6 6.5 0 .6-2.9 4.4-6.5 8.4-6.8 7.5-7.8 10-4.6 11.7 1.6.9 2.9-.1 9.1-6.9 4.3-4.8 7.9-8 9.1-8 2 0 10.3 7 12 10.1.7 1.5-.1 2.4-4.8 5.6-6.7 4.4-23.7 18.1-27.1 21.7-1.3 1.4-3.2 2.6-4.4 2.8-1.4.2-2.4 1.3-2.9 3.2-.8 2.8-4.5 7.6-6 7.6-.4 0-1-1.4-1.4-3-1.4-6.2-8.1-7.5-13.2-2.8-2.9 2.7-2.9 5.7-.2 9.2 1.6 2 2.9 2.6 6 2.6 2.1 0 3.9.4 3.9.8 0 1.1-4.5 3.2-6.8 3.2-3 0-7.9-3.7-8.6-6.5-.8-3.2 2.5-9.7 6.2-12.1 2.1-1.3 2.3-2.1 1.9-5.1-.5-2.9-.1-4.2 1.8-6.5 3.1-3.6 3.1-3.6 0-7.8-2.4-3.2-2.4-3.5-.8-5.9.9-1.4 3.7-6 6.2-10.1s5.7-9.1 7-11c2.8-4.1 11.2-13 12.2-13 .4 0 3.2 2.4 6.3 5.3zM82 75.8c0 .9-6.6 2.7-13.9 3.8-3.1.4-4.2.3-3.7-.5.4-.6 1.7-1.1 2.9-1.1s4.5-.7 7.2-1.4c6-1.7 7.5-1.9 7.5-.8zm20 .2c0 .5-.7 1-1.5 1s-1.5-.5-1.5-1c0-.6.7-1 1.5-1s1.5.4 1.5 1zm-61.5 3c-.3.5-1.6 1-2.8 1-1.8 0-1.9-.2-.7-1 2-1.3 4.3-1.3 3.5 0zm53.1 2.5c-2.3 1.7-3.6 1.9-3.6.6 0-1.1 1.8-1.9 4-2 1.1 0 1 .3-.4 1.4zM58 82c0 1.7-6.2 4.2-8.9 3.7-1.4-.3-3.7.1-5.1.8-3.2 1.8-5 1.9-5 .2 0-2.2 7.4-5.1 11.3-4.4 1.9.3 4 .1 4.8-.4 1.8-1.1 2.9-1.1 2.9.1zm23 .4c-3.4 1.8-8 2.8-8 1.8 0-.9 5.5-2.9 8.5-3 1.7-.1 1.6.1-.5 1.2zm14.5 5.3c-2.2 1.6-4.5 1.7-4.5.3 0-1.3 4.1-3 5.4-2.2.5.3.1 1.1-.9 1.9zm13.6.6c-.1 1.2-1.5.9-1.9-.4-.3-.6.1-1 .8-.8.6.3 1.1.8 1.1 1.2zm21.8 3.8c1.2 2.8 1.2 3.3-.7 5.1-3 3-5.3 1.8-4.5-2.4.6-3.3 2-5.8 3.2-5.8.3 0 1.2 1.4 2 3.1zM100.5 91c-.3.5-1.3 1-2.1 1s-1.2-.5-.9-1c.3-.6 1.3-1 2.1-1s1.2.4.9 1zM86 93.5c-5.7 3.3-7 3.7-8.7 3.1-1.6-.7-1.6-.9.7-2.6 1.5-1.2 4.1-2 6.5-2 4 0 4 0 1.5 1.5zm-18.4 1c-2.6 1.9-4.2 1.9-2.6 0 .7-.8 2-1.5 2.9-1.5 1.3.1 1.3.3-.3 1.5zm42.9.5c-.3.5-1.5 1-2.6 1-1 0-1.9-.5-1.9-1 0-.6 1.2-1 2.6-1 1.4 0 2.3.4 1.9 1zm40 1c.2.4-.9 2.8-2.5 5.4-3.6 5.6-3.7 6.8-.9 10.5l2.1 2.9-2.6 3.5c-2.1 2.7-2.4 3.9-1.8 5.8.8 2 .2 3.3-3.4 7.7-4.6 5.6-5 7.4-3.4 13.3 1.2 4.4 7.1 8.9 11.7 8.9 7.1 0 11.6-3.8 19.7-16.5 3.8-5.9 10.2-12.8 18.1-19.4 4.4-3.7 8.5-7 9.2-7.5 1-.5 4.2.8 7.3 3.2.2.1-.2.7-1 1.2s-1.1 1.2-.7 1.6c.3.4 1.4.1 2.2-.6 1-.9 1.9-1 2.6-.3.6.6-1.5 2.6-6 5.5-6 4-7.1 4.4-8.2 3.2-.8-1-1.5-1.2-2.3-.4-.7.7-.6 1.4.2 2.2 1.9 1.9-1.5 5.1-4 3.7-1.5-.8-2.3-.8-3.2.1-.8.9-.8 1.4.2 1.7 2.3.9 1.2 3-3.2 6.6-3 2.5-4.6 3.3-5.4 2.5-1.6-1.6-3.6 0-2.1 1.8.9 1.1.9 1.7-.1 2.9-1.7 2.1-2.7 1.9-3.4-.7-.4-1.8-.8-2-1.8-1s-1 1.7 0 3.2c1.4 2.3 0 3.6-3.6 3.1-2-.2-2.2.1-1.6 2.3.7 3-1.7 4.6-4.1 2.6-2-1.6-3.6-.3-2.9 2.4.4 1.7-.1 2.5-2 3.4-2.3 1-2.6.9-2.6-.8 0-1.1-.6-2-1.4-2-2.3 0-3.1 2.2-1.2 3.5 1.5 1.2 1.4 1.5-1.1 3.4-9 7-16 10.9-18.6 10.4-2-.4-2.7-.1-2.7 1 0 .8.7 1.8 1.6 2.1 2.6 1 .7 2.3-6.1 4.1-6 1.7-6.6 1.7-9 .1-1.4-.9-2.5-2.6-2.5-3.7 0-1.8.4-2 3.2-1.4 1.8.4 4 1.2 4.9 1.8.9.6 2.4.7 3.3.4 2-.8 1-3.7-1.4-3.7-1 0-2.3-.7-3-1.5-.7-.8-1.9-1.5-2.6-1.5-1.8 0-1.8-1 .1-3.8 2.3-3.1 4.5-11 4.5-15.9 0-2.3.5-4.5 1.1-4.9.6-.3.8-1.6.4-2.8-1.9-6.2-3.1-16.3-2.4-20.6.4-2.6 2.7-8.2 5.1-12.5 4.6-8.3 10.6-13.8 18.2-16.7 3.7-1.4 8.1-1.3 9.1.2zm53.5 33.1c0 2.9-.7 5-2.5 7.1-3 3.6-3 3.9-.5 7 1.2 1.6 2 4.4 2.2 7.9.3 5.1.2 5.4-2 5.1-1.7-.3-2.5.2-2.9 1.7-.5 2-4 3.3-7.8 2.8-1.4-.1-2 .4-2 1.8 0 1.7.6 2 3.6 1.7 4.7-.4 5.4.8 2.3 4.1-2.4 2.7-2.5 2.7-6.2 1.1-2-.9-5.3-2.1-7.2-2.6-1.9-.5-5.1-1.8-7-2.8-1.9-1-4.6-2.2-6-2.8-2.4-.9-2.4-1 1.7-2.1 2.9-.8 4.4-1.8 4.9-3.4.3-1.2 2.1-3.4 4-5 1.8-1.5 3.8-4.4 4.5-6.5 1.3-4.2 3.6-7.2 5.5-7.2.7 0 2.6 1.3 4.2 3 3.7 3.6 4.2 3.7 4.2.7 0-1.3 1.1-3.3 2.5-4.5 1.4-1.2 2.5-2.6 2.5-3.2 0-.6-1.1-1.6-2.5-2.2-3.1-1.4-3.1-2.2-.3-4.2 3.7-2.6 4.8-2 4.8 2.5zm-35.4 37.5c11.4 4.5 28 9.4 32.1 9.4 3.8 0 4.1.9 1.3 3.5-1.6 1.4-3.7 1.8-10.5 1.7-4.7 0-9.1-.4-9.8-1-1.5-1.2-6.9-2.3-12.8-2.7-2.6-.2-6.2-.6-8-1-2.7-.6-2.9-.9-1.6-1.7 2.5-1.3 2.3-6.8-.3-7.5-2-.5-2.6-2.3-1.3-3.6 1-1 1.3-1 10.9 2.9zm188.9-.7c5.9 1.1 8.5 2.8 8.5 5.6 0 1.3-.4 2.7-1 3-.5.3-1-.3-1-1.3 0-2.7-5.7-3.6-7-1.1-.6 1-.7 2.4-.4 3.3 1 2.6-2.7 3.4-17.7 4.2-17.1.8-36.2-.2-35.6-1.9.2-.8 4.6-1.3 13-1.5 11.4-.2 12.7-.4 12.7-2 0-2.8 2.1-4.2 6.2-4.2 2.4 0 4 .6 4.6 1.7.6 1 1.6 1.4 2.6 1 1-.4 1.6-.1 1.6.8 0 2.7 3.8 3.8 7.5 2.1 3.6-1.7 4.8-3.6 3.5-5.6-.7-1.1-1.1-1.1-2.5 0-1.3 1.1-1.9 1-4-1-2.8-2.7-4.4-2.8-28.5-1.6-10.3.5-18.8 1.4-20.7 2.2-3.4 1.4-4.3 4-2.1 6.2.9.9.8 1.2-.4 1.2-2.7 0-4.1-2.6-2.8-5 1.5-2.7 6.6-5 15-6.7 6.9-1.3 40.7-.9 48.5.6zM157 178.7c.8.2 4.9.8 9 1.3 6.5.8 15.7 3.7 19.8 6.3 1.8 1.2 1.5 4.4-.5 5.6-1.6.9-1.5 1.3 1.2 3.5 1.7 1.3 2.7 2.8 2.3 3.2-1.1 1-8.6-1.6-11.2-3.9-2.1-1.8-2.1-1.8 1.3-1.1 2.6.5 3.2.3 2.9-.7-.3-.8-1.4-1.3-2.4-1.2-1 .1-4.1-.3-6.8-.8-8.4-1.6-25-1.3-28.5.5-4.5 2.4-6.5 2.1-5.6-.7.4-1.2.9-3.9 1.2-5.9.3-2.1 1.1-4.2 1.9-4.9 2.9-2.4 10-3 15.4-1.2zm208 2c-.1 2.6-1.7 3.4-4.4 2.2-1.9-.9-2.3-1.5-1.4-2.1 1.6-1 5.8-1 5.8-.1zm-8.3 1.9c-.3.3-1.2.4-1.9.1-.8-.3-.5-.6.6-.6 1.1-.1 1.7.2 1.3.5zM345 184c0 .5-1.8 1-4.1 1-2.4 0-3.8-.4-3.4-1 .3-.6 2.2-1 4.1-1 1.9 0 3.4.4 3.4 1zm-171.8 21.2c-1.8 1.9-4.2 1.8-4.2-.1 0-1.1 4.3-3 5.4-2.4.4.3-.1 1.4-1.2 2.5zm-11.7 2.9c4.8 2.1 15.3 8.4 19 11.4 2.3 1.8 5.7 6.3 7.9 10.4 3 5.4 5 7.7 8.3 9.6 4.8 2.9 5.3 4.3 2.3 7-1.5 1.4-2.9 1.6-6.4 1.1-6.2-1-10.4 1.2-10.8 5.5-.3 3.5-.6 3.7-9 6.9-5.6 2.2-14.8 10-14.8 12.6 0 3.1-3.1 1.6-8.2-3.7l-5.6-5.9 6.1.6c6.8.6 11.7-.6 11.7-3.1 0-1.7-.9-1.9-4.2-.6-3 1.1-14.8-1-18.4-3.4-2.6-1.7-6.1-1.4-4.9.5.3.5-.1 1-1 1s-2.2-1.5-3-3.3c-1.9-4.5-2.6-4.9-4.8-3-1.8 1.7-1.9 1.7-3.2-.1-1.7-2.3-.9-5.2 1.1-3.5 2.2 1.8 3.6 0 2.9-4l-.6-3.6 2 3.1c4.1 6.6 14.3 12.1 23.8 12.9 6.3.5 8.9-.4 8-2.9-.5-1.2-1.6-1.4-4.9-1-3.5.5-5.7 0-11.1-2.4-3.6-1.7-7.7-4.2-9.1-5.5-3.2-3.2-4.9-9.6-4.7-17.5.1-6.2-.5-7.2-2.7-5-2.3 2.3-2.2-.1.2-5.6 2.2-5 3.1-5.9 7.8-8.1 4.9-2.3 6-2.5 14.8-1.9 5.2.4 10.4 1.1 11.5 1.5zm36.1.3c1 .8 1.7 1.7 1.4 1.9-.3.3-1.6-.3-3-1.3-2.9-2.2-1.4-2.7 1.6-.6zm-5.2 7.5c1.1 1.7-.5 4-2.2 3.4-2.6-.9-4.2-2.4-3.6-3.4.7-1.2 5.1-1.2 5.8 0zm7.6 6.1c1.3.9 1.1 1.3-1 3-3.8 3-6.8.9-3.5-2.4 1.9-1.9 2.5-1.9 4.5-.6zm15.4 9.5l2.6 5-2.7.5c-2.1.4-2.7 1.1-2.6 2.5.1 1.1.4 3.1.5 4.5.4 3.8-2.7 3.8-4.7 0-.9-1.7-3.8-4.7-6.5-6.6-2.8-2-5-4-5-4.5 0-1.6 5.8-3.9 9.7-3.6 3.3.2 3.8-.1 4.1-2.2.4-2.8 1.2-2.1 4.6 4.4zm102.1 12.1c-2.9 4.3-3 5.2-.9 8.2 1.5 2.2 1.1 4.7-.7 3.6-1.1-.7-4.9-7.9-4.9-9.4 0-1.8 4.8-6 6.9-6 2 0 1.9.1-.4 3.6zm25.8.1c1.5 5.4 1.6 7.4.5 9.7-1.3 2.9-4.5 3.7-3.3.8 1.4-3.6 1.7-8 .6-10.1-1-1.7-.9-2.1.3-2.1.8 0 1.7.8 1.9 1.7zm-145.7 14c4 4.3 10.8 10.9 15.2 14.7l8 6.9-4.7 6.1c-2.5 3.4-6.8 9.4-9.5 13.3-4.4 6.6-6.6 8.7-6.6 6.5 0-.4 1.1-2.4 2.5-4.4 1.4-2 2.5-4.4 2.5-5.2 0-2.4-2.1-3-2.7-.7-.5 2.1-5.9 5.5-6.7 4.2-.3-.4 1.3-3.3 3.4-6.5 6.2-9.1 3.1-11.9-4.5-4-5.1 5.2-6.3 3.6-1.5-1.9 1.7-1.9 3-3.7 3-4.1 0-.3-1.4-.6-3-.6-2.6 0-3.6.8-6.2 5-1.7 2.7-3.5 5-4 5-.9 0 1.2-4 4.9-9.5 1.9-2.8 1.6-4.5-.7-4.5-1.3 0-2-.7-2-2 0-3.6-4.7-2.4-6.9 1.8-.7 1.3-1.5 2.1-1.8 1.8-.3-.3.7-2.4 2.2-4.6 3.2-4.6 2.4-7.1-1.5-5-1.2.6-2.3 1-2.5.8-.1-.2.7-2.3 1.9-4.8 1.6-3.5 2.7-4.6 4.9-4.8 3.3-.4 6.1-4.3 5.2-7.1-.3-1.2-.3-2.5 0-3.1 1.4-2.3 4.2-.6 11.1 6.7zm4.8-3.5c2.4 3.4 1.9 4.4-.9 1.8-1.4-1.3-2.5-2.7-2.5-3.2 0-1.6 1.9-.8 3.4 1.4zm20.9.5c3.2 2.4 6.2 7.9 5 9.2-.2.3-2.1-1.4-4.4-3.7-2.2-2.3-4.7-4.3-5.7-4.4-.9-.1-2.4-.2-3.2-.4-.8-.1-1.9-.2-2.4-.3-.5-.1-.3-.8.4-1.6 1.9-2.3 6.3-1.8 10.3 1.2zM322 263c0 2.9-.5 4.2-2 5-1.1.6-2 1.5-2 1.9 0 1.6 6.1 3.1 12.4 3.1 6.2 0 11.2 1.7 10.5 3.5-.2.5-2.5 1-5.1 1-8 0-9.3 4-1.5 4.7 4.2.3 5.5 2.2 1.7 2.5-3.6.2-8 2.1-8 3.3 0 .6 1.6 1 3.8.8 5.4-.4 4.9 2.2-.6 3.6-5.3 1.3-5.9 3-1.4 3.4 2 .2 3.2.8 2.9 1.5-.5 1.6-16.6 1.4-19.6-.2-1.1-.7-2.1-2.1-2.1-3.2 0-1.8-.4-2-2.5-1.5-1.9.5-2.5.2-2.5-.9 0-2.1-3-3.1-4.1-1.4-.6 1-.9.3-.9-2 0-1.9-.7-4.2-1.5-5.1-1.3-1.4-.7-2.3 5.8-8.7 4-3.9 8.6-7.8 10.3-8.6 1.8-1 3.4-2.7 3.8-4.2 1-3.9 2.6-3 2.6 1.5zm-100.7 3.4c1.5 1.9 2.7 3.7 2.7 4 0 1.5-2.9.4-5-1.9-1.3-1.4-3.2-2.5-4.2-2.5-2 0-2.4-2-.6-3.8 1.5-1.5 3.8-.2 7.1 4.2zm-84.3 4.8c0 1.3-2.3.5-2.8-1-.2-.7.2-1 1.2-.6.9.3 1.6 1.1 1.6 1.6zm98.8 4.6c.8 2 1.5 4.8 1.4 6.2 0 7.9-.9 15.1-2 16.2-.9.9-.8 1.6.4 3 1.6 1.6 1.5 1.8-1 2.7-2.7 1.1-3.6 3.1-1.2 3.1 1.8 0 3.6 2.3 2.8 3.6-.4.6-2 1-3.7 1-4.1-.1-3.9 2.6.3 3.8 4.4 1.2 4.1 2.6-.6 2.6-5 0-5.9 1-3 3.2l2.3 1.8h-2.7c-3.8 0-4.5 1.8-1.2 3 3.6 1.4 5.9.9 5.8-1.3-.3-2.6 1.3-2 2 .8.8 3.3-.9 10.7-2.8 12.1-.9.6-4.6 1.4-8.3 1.8-6.5.7-6.7.6-9.7-2.4-3.3-3.3-2.6-3.4 4.1-.4 3.3 1.5 11.3 1 11.3-.8 0-1.1-1.4-1.5-8-2.3-4.8-.5-5.7-1-7.2-3.5-1.3-2.3-2.4-3-4.8-3-1.6 0-3-.4-3-.9 0-.4 1.3-3.8 3-7.3 1.9-4.4 3.6-6.7 5-7.1 1.8-.5 1.9-.8.9-2.5-1.1-1.7-.8-2.7 1.9-6.9 1.8-2.7 4.5-6.2 6.2-7.6 1.6-1.5 3.6-4 4.5-5.8 1.2-2.3 2.2-3 3.6-2.6 3.1.8 4-2.2 1.8-6.2-1.9-3.6-2.5-7.2-1.2-8.4.9-1 1.4-.2 3.1 4.1zm-97.5 1.8c2.8.6 3.8 2.4 1.3 2.4-2.4 0-7.6-2.2-7.6-3.2 0-.5.8-.7 1.8-.4.9.3 2.9.8 4.5 1.2zm91 1c1.2 1.2-4.5 10.7-9.9 16.4-3.1 3.1-6.2 6.7-7 7.9-1.7 2.3-3.4 2.8-3.4.8 0-2.1 8.5-15.9 13-21 3.9-4.4 5.9-5.5 7.3-4.1zm-76.3 4.5c0 1.2-7.6 5-8.4 4.2-1.2-1.2-.6-4.2 1-5.1 1.8-1 7.4-.3 7.4.9zm134.6 3.9c.9 2.6.8 4.1-.1 6.5-.7 1.6-1.1 4.4-.9 6 .4 2.8.4 2.8-.6.7-1.3-3-3.4-2.3-4 1.3-.7 4.2-2.5 3.6-2.8-1-.4-4.8-1.6-6.3-3.7-4.5-.9.8-1.5 2.9-1.5 5.7 0 5.6-2.1 5.4-3.3-.3-.4-2.1-1.2-4.3-1.7-4.8-1.7-1.7-3.4 1.1-3.4 5.4-.1 5.2-2 5.7-2.4.5-.4-4.6-1.7-6.6-3.8-5.8-.8.3-2.1 0-2.9-.7-.8-.6-2.3-.9-3.4-.5-1.1.3-2.9 0-3.9-.6-1.7-1.1-1.8-1.7-1-4.3 1.5-4.5 1.7-4.6 9.3-5 14.2-.9 26-1.9 26.4-2.2 1.1-1 2.7.5 3.7 3.6zm-149.2-.4c1.1 2.8.6 4.4-1.3 4.4-2.2 0-3.4-3.3-1.8-4.9 1.5-1.5 2.4-1.4 3.1.5zm104.6.8c0 .8-.4 1.8-1 2.1-.5.3-1-.3-1-1.4 0-1.2.5-2.1 1-2.1.6 0 1 .6 1 1.4zm-73.2 2c1.6 1.7 1.6 1.8-.4 1.2-5.8-1.7-14.2.1-18.5 4-1.9 1.7-6 1.6-6.6-.2-.2-.7.9-1.6 2.4-2.2 1.5-.5 3.9-1.8 5.2-2.9 3.3-2.7 15.2-2.6 17.9.1zm71.9 5.8c-.3.7-.5.2-.5-1.2s.2-1.9.5-1.3c.2.7.2 1.9 0 2.5zm-74.8-.1c5.9 1.2 6.5 1.9 5.6 5.9-.8 3.5-1.7 3.7-5.5 1-5.8-4.2-16-1.8-16.8 3.9-.3 1.8-.9 2.2-3.5 1.9-3-.3-3.2-.5-3.2-4.3 0-3.9.1-4 4.3-4.7 2.4-.4 5.8-1.6 7.5-2.7 3.8-2.3 5.1-2.4 11.6-1zm138.1 6.5c0 1.1-7 19.3-9.6 25-.7 1.5 12 14.4 14.1 14.4 2 0 1.9.2-1 5.8-3.7 7.1-4.8 14.7-3.5 23.9.6 4.3 1.9 9.6 2.9 11.8 5.7 11.9 8 19.8 8.1 26.7 0 2-.4 4-1 4.3-.6.4-1-.9-1-3.3 0-2.8-1.8-7.3-6.5-16.6-7.1-13.8-8.9-19.9-8.6-29.1.2-4.5.9-7.3 3.2-11.2 3.3-5.9 3.6-7.8 1.4-8.7-1.9-.7-4 1.5-7.2 7.8-6 11.6-4.7 22.1 5.2 41.4 5.4 10.5 6.6 13.8 7.1 19.2.3 3.6.9 6.9 1.4 7.4 1.1 1.1.1 3.6-1.5 3.6-2.4 0-5.2-5.3-5.8-11-.4-3.7-2.3-8.8-5.6-15.5-6.7-13.4-8.3-19.1-8.6-31-.2-5.5-.6-10.9-1-12-.5-1.7.2-2.5 3.7-4.5 2.4-1.3 6.3-4.4 8.8-6.9 3.5-3.7 4.1-4.6 2.7-4.9-1-.2-3.9 1.6-6.9 4.3-2.9 2.6-7.7 5.9-10.8 7.5-6.8 3.4-21 7.4-22.2 6.2-.5-.5-.5-2.7.1-5.3 1.2-5.2 1.3-15.8.2-21.6-.5-2.7-1.8-5-3.7-6.6-1.6-1.4-2.6-2.9-2.2-3.3.5-.4 5.2-1.1 10.5-1.5 5.4-.4 10.6-1.1 11.6-1.5 1-.3 2.8-.1 4 .5 3.2 1.7 9.6.1 11.8-2.9 1.1-1.5 1.9-4.5 2-7.5.1-2.8.6-5.5 1-6.1 1.2-1.5 6.9-.5 6.9 1.2zm34.4 10c1.4 5 3.5 11.3 4.6 13.9 3.3 7.8 3.1 8.1-7.5 9-26.9 2.5-25.5 2.5-25.5 0 0-1.9 5.5-3.2 17.5-4 10-.6 12.3-1.4 11.1-3.4-.5-.8-4.8-.9-13.8-.5l-13.1.6.7-4.3c1-6 2-6.9 8.3-6.9 6 0 9.3-1.3 9.3-3.6 0-1.2-.7-1.3-3.7-.7-6.4 1.2-12.1.3-10.8-1.8.4-.6 1.9-.7 3.6-.4 3.6.8 6.9-.2 6.9-2.1 0-1-1.2-1.4-4-1.4-2.9 0-4-.4-4-1.5 0-.9 1-1.6 2.3-1.6 8.5-.5 13.1-.9 13.5-1.4 1.1-1 2 1.1 4.6 10.1zm-29.4-3.9c0 .5-.4 1.4-.9 2.2-.6.9-.4 2.2.4 3.5 1.7 2.8.3 6.6-2.5 6.6-2.3 0-2.6 1-.8 2.8.9.9.7 1.2-1 1.2-2.8 0-2.8 1.7 0 4.7 1.4 1.5 1.8 2.7 1.2 3.3-.7.7-2 0-3.8-1.9l-2.9-3 2-4.3c1.1-2.4 3-6.9 4.4-10 2.1-5 3.9-7.4 3.9-5.1zM138 312c0 1.1-.4 2-1 2-.5 0-1-.9-1-2s.5-2 1-2c.6 0 1 .9 1 2zm105.1.2c0 .7.4 3.4.8 6.1.6 3.6.4 5-.6 5.9-1.2 1-1.2 1.3.2 2 1.9 1.1 1 2.8-1.6 2.8-1.5 0-1.9-.7-1.9-3.8 0-6.2 1.2-14.2 2.1-14.2.5 0 .9.6 1 1.2zm-86.5 5.8c2.2 0 2.3.2 1.4 2-.6 1.2-1 3.3-.8 4.8.2 2.3.7 2.7 3.1 2.5 1.8-.1 2.7.3 2.7 1.3 0 .9 1.1 1.4 3.1 1.4 1.7 0 2.8.4 2.4 1-.3.5-2.5 1-4.7 1-4.4 0-8.8-2.9-8.8-5.8 0-.8-1.1-2.8-2.5-4.4-2.6-3-2.5-5.4.2-4.4.8.3 2.6.6 3.9.6zm48.4-.6c0 .3-.4.8-1 1.1-.5.3-1 .1-1-.4 0-.6.5-1.1 1-1.1.6 0 1 .2 1 .4zm-34 2.1c-.7.8-1.7 1.5-2.2 1.5-.6 0-.5-.7.2-1.5s1.7-1.5 2.2-1.5c.6 0 .5.7-.2 1.5zm29.1 8.8c-1.7 1.7-2.4.1-1-2.5 1.2-2.1 1.4-2.1 1.7-.4.2 1-.1 2.3-.7 2.9zm-30.6-2.3c-.3.5-1.3 1-2.1 1s-1.2-.5-.9-1c.3-.6 1.3-1 2.1-1s1.2.4.9 1zm85.1 1.8c1.2.9 2.5 2.7 2.8 3.9.6 1.7 0 2.7-3.1 4.7-2.1 1.4-4.3 2.6-5 2.6-2.3 0-1.4-3 1.2-4 3.3-1.2 4.3-3.9 2.2-5.5-1.7-1.2-2.3-3.5-.9-3.5.4 0 1.7.8 2.8 1.8zm145.5 1.6c-1.3 1.4-4.1 6-6.2 10.3-2.2 4.3-3.7 6.6-3.4 5.1.9-4.5 6.6-15.8 8.8-17.3 3-2.1 3.4-.9.8 1.9zm-212.7-.8c1.4 1.4 1.4 1.8.1 4.4-.8 1.6-1.5 4.3-1.5 6 0 3.4-1 3.7-4.4 1.5-2.3-1.5-2.3-1.6-.8-6.3 2.4-7.3 3.7-8.5 6.6-5.6zm212.9 11.2c-2.6 5-5 8.9-5.2 8.6-.6-.5 3.8-10.2 6.6-14.7 4.4-6.9 3.5-3.2-1.4 6.1zm-246.9-6.4c1.8 1.3 4.8 2.1 8.3 2.2 6 .2 8.2 1.4 6.1 3.1-1.5 1.2-22.9-4.5-23.5-6.2-.5-1.8 6.1-1.1 9.1.9zm296-1.4c4.2 1.4 14.7 12.4 17.6 18.6 1.3 2.7 4 7.8 6.1 11.4 2.1 3.6 4.1 8.2 4.4 10.3.7 3.7.7 3.7-2 2.7-1.4-.5-4-1-5.6-1-1.6 0-2.9-.2-2.9-.4s-.3-1.2-.7-2.1c-.5-1.5-.1-1.6 2.5-1.1 3.9.9 4.4-.1 2.6-5.5-1.7-4.9-3.7-6.9-7-6.9-2.9 0-3.8-1.4-2.4-4 .9-1.7.7-2.8-1.1-5.6-3-4.9-5.8-6.4-11.8-6.5-6-.2-14.4 3.5-23.8 10.4-4.4 3.3-6.7 6-9.7 11.5-2.2 4-4.1 7-4.3 6.9-.5-.6 3.2-10.7 6.1-17 1.6-3.2 4.5-7.2 6.9-9.3 5-4.3 13.3-7.5 16.5-6.3 2.4.9 3.7-.3 2.8-2.6-.7-2-2.1-1.9-10.1.6-7.3 2.2-14.5 7.9-18.7 14.7-1.2 2-2.4 3-2.6 2.4-1.2-3.6 11.8-17.1 19.2-20 5.6-2.2 13.5-2.7 18-1.2zm-205.4.9c0 1.2-2.9 2.3-4.1 1.5-.5-.3-.7-1-.4-1.5.8-1.2 4.5-1.2 4.5 0zm-36.6 4c2.6 2.7 3.7 4.6 3.4 6.2-.3 2.2-.7 2.4-5.3 2.1-7.3-.5-7.3-.4-4-11 .7-2 1.9-1.4 5.9 2.7zm182 .3c-1 1.8-1.9 2.7-2.2 2-.4-1.4 2.6-6.7 3.5-5.9.2.3-.3 2-1.3 3.9zM137 335c0 .5-.2 1-.4 1-.3 0-.8-.5-1.1-1-.3-.6-.1-1 .4-1 .6 0 1.1.4 1.1 1zm210 2.5c0 .2-1.1 3.9-2.5 8-1.4 4.2-2.3 8-2 8.5.3.5 0 2-.6 3.4-.9 1.9-.9 6.1.1 17.8 1.8 20.9 1.8 23.3 0 23.3-1.2 0-2-3.4-3.7-15-2.7-18.3-2.4-30.7 1.3-42.8.7-2.2 7.4-5.1 7.4-3.2zm-111.7 3.2c1.1 1-1.3 3.2-2.8 2.7-.7-.3-2.2-.1-3.3.5-1.5.8-2.1 2.6-2.6 8.1-.4 3.8-1.1 7-1.5 7-1.8 0-3.3-3.1-3.8-8.3-.5-4.9-.3-5.6 1.8-7.1 1.3-.9 3.5-1.6 4.9-1.6 1.4 0 3.2-.5 4-1 1.8-1.2 2.4-1.2 3.3-.3zm10.2.3c-.3.5-1.3 1-2.1 1s-1.2-.5-.9-1c.3-.6 1.3-1 2.1-1s1.2.4.9 1zm82 .7c-4.3 10.7-5.4 25.9-2.8 39.8 5.4 29.3 5.7 34.6 2.3 42.3-1.6 3.7-2.8 5.2-3.9 5-1.1-.3-1.5-1.2-1.3-3.3 1.4-14.6 1.3-18.6-.3-24.1-.9-3.3-2-6.4-2.5-6.9-.4-.6-2.7-6.5-5-13.3-3.8-11.1-4.2-13-3.9-20.1.3-6.1 1-9 3.4-13.8 3.1-6.4 3.6-6.7 11.9-7.1 2.3-.2 2.7.1 2.1 1.5zm7.3-.6c-.2.6-.8 1-1.3 1s-1.1-.4-1.3-1c-.2-.6.4-1.1 1.3-1.1s1.5.5 1.3 1.1zm-200.2 4.3c-.7 1.5-2 5.4-2.7 8.7-1.6 7.2-3.4 7.8-2.4.8.9-6.4 4.3-14.5 5.6-13.2.6.6.4 2-.5 3.7zm120.4-2c-4.3 2.8-8 4.1-8 2.7 0-1.4 3.3-3.1 5.9-3.1 1.2 0 2.1-.5 2.1-1 0-.6.8-1 1.7-1 1.2 0 .6.8-1.7 2.4zm116.6 2.7c-.9 1.9-1.5 2.6-1.6 1.7 0-2.3 2.2-7.5 2.6-6.2.3.6-.2 2.6-1 4.5zm-224.8-.5c2 .8 6.1 2 9.1 2.5 3 .4 5.9 1.3 6.4 1.8 1.2 1.2-2.8 9.7-4.9 10.5-2.2.8-3.1.1-5.4-4.4-2.2-4.2-4.3-5.3-9.5-4.9-4.4.4-5-.3-3-4 1.8-3.6 2.2-3.7 7.3-1.5zm26.7-.3c2.7.7 4.5 1.6 4 1.9-1.3.8-10.9-.8-13.2-2.1-1.5-.9-1.3-1 1.2-1.1 1.7 0 5.2.6 8 1.3zm274.9 1.5c.3.5-2.3 2.1-5.7 3.8-4.2 2-9.2 5.8-16 12.4l-9.9 9.4 3.8-7.3c3.1-6.1 4.7-7.9 9.8-11.4 8-5.5 16.8-8.9 18-6.9zm-258.2 1.3c1.2.6 5 1.1 8.4 1.1 4.4 0 6.7.5 7.6 1.5 1.1 1.4.5 1.5-5.2.9-8.9-1-17-2.7-17-3.8 0-1.2 3.8-1 6.2.3zm68.3 1.4c-.1 1.4-5.3 3.8-6.6 3-1.6-1.1 2.2-4.6 4.5-4.3 1.2.2 2.1.7 2.1 1.3zm-78.7 3.4c1 .6 0 1.5-3.5 3.2-3.5 1.8-4.9 3.1-5.1 4.9-.3 1.9-1.6 3.1-5.5 4.9-2.9 1.4-6.4 3.3-7.8 4.3-1.9 1.5-3.1 1.7-5 .9-4-1.5-10.2-8.3-10.5-11.4-.2-2.8 0-2.7 4.5 2.2 4 4.3 5.3 5.1 8.3 5.1 5.1 0 9.4-2.5 10.7-6.3 2.1-6.1 9.8-10.4 13.9-7.8zm275.7.1c1.2 1.9-1.5 3.9-4.3 3.4-3.6-.7-14.8 4.4-20.2 9.2-2.2 2-5.2 5.6-6.6 7.9-1.3 2.3-3.3 5-4.3 5.9-1.6 1.4-1.5.9.6-3.4 4.6-9.7 21.3-23.2 28-22.8 1.8.1 3.5-.1 3.9-.5 1-1 2.2-.9 2.9.3zm-124.7 10.2c0 7.1.6 13.5 2.1 20.5 1.1 5.5 2.1 11.4 2 13l-.1 2.8-.9-3c-3.4-11.3-6.3-40.8-4.2-42.8 1.2-1.3 1.2-.8 1.1 9.5zm-126-5.7c6.3 1.4 3.1 3.5-5.2 3.5-4.4 0-5.7-.4-7.7-2.6l-2.4-2.6 6 .5c3.3.3 7.5.8 9.3 1.2zm52.3-.2c-.1.4-.1 2.5-.1 4.7s-.4 4-1 4c-.5 0-1-2.3-1-5.1 0-3.2.4-4.9 1.1-4.7.6.2 1 .7 1 1.1zm22.4.9c-2.5 8-2.7 11.8-1.2 18.5.8 3.7 1.3 7 1.1 7.2-1.1 1.1-2.9-2.3-3-5.7-.1-2-.5-7-.9-11-.7-6.2-.5-7.5 1-9.2 2.4-2.7 3.9-2.5 3 .2zm-29.5 1.6c0 3.3-2.2 6.8-3.8 5.8-.7-.4-.5-1.9.5-4.6 1.9-4.7 3.3-5.2 3.3-1.2zm153.6 4.4c-1.3 15-3.1 19.1-10.3 24.1-5.7 3.9-6.9 3.3-3-1.6 1.8-2.3 4.4-6 5.7-8.2 2.6-4.5 7-16.9 7-19.7 0-1 .3-1.8.6-1.8.4 0 .4 3.3 0 7.2zm-219.5-4.4c1.5.9 3.9 2.6 5.3 3.6 2.1 1.5 4.2 1.8 9.3 1.7 6.8-.2 9.3 1 7.1 3.6-1.6 2-6.1 1.6-13.1-1.2-4.3-1.8-7.7-2.4-11.2-2.3-4.1.3-5 0-5.3-1.5-.4-2 2.4-5.7 4.2-5.7.6 0 2.3.8 3.7 1.8zm-72.1.1c0 .5-.9.7-2 .4-1.1-.3-2-.7-2-.9 0-.2.9-.4 2-.4s2 .4 2 .9zm157.5.1c.7 1.1-1.2 5-2.4 5-1.1 0-3.1-4.6-2.4-5.4 1-.9 4.1-.7 4.8.4zm-55.5 3.1c1.8 6.6 2 7.9 1.1 7.9-.8 0-4.1-8.1-4.1-10.3 0-1.8 2.4 0 3 2.4zm237-1.7c0 2.9-1.3 4.6-3.4 4.6-4.5 0-12.3 5-17.6 11.3-4.5 5.3-12.7 11.6-15.2 11.7-1.8 0-.6-1.9 1.5-2.6 4.1-1.3 8.9-5.7 11.9-11.1 3.5-6.2 7.4-9.7 14.3-12.9 5.7-2.7 8.5-3 8.5-1zm-346.9 2.3c7.2.6 8.4 1.9 8.1 8.9-.2 4 .3 6.5 1.6 8.8 1.5 2.5 1.8 4.2 1.3 8.6-.4 3-1.1 5.4-1.6 5.4-.6-.1-2.1-.5-3.4-.9-1.7-.5-2.2-.4-1.9.6.3.8 1.8 1.6 3.4 1.9 2.4.4 2.9 1 3 3.5.1 5.9.4 6.6 4.6 11.1 3.8 4.2 4 4.6 2.8 7-1.2 2.2-1.1 3.1 1.9 8.9 3 5.9 3.3 7 2.6 11.7-.8 6-.8 49.2.1 55.3 1.2 8.6 2.4 11.4 5.4 13 3.6 1.9 3.7 3.2 1 17.3-2.2 11.1-2.6 24.6-1 30.2.6 1.9 2.3 4.9 3.9 6.6 2.5 2.8 3.7 3.3 10 3.9 3.9.4 7.1 1 7.1 1.4 0 .4-1.1 1.8-2.4 3-2.5 2.4-3.5 2.4-12.1.5-1.6-.3-6.1-2.7-10-5.3-6.3-4.2-7.1-5.1-8.4-9.6-1.9-6.5-1.8-26.6 0-32 1-2.8 2.1-4.1 3.6-4.3 2.3-.3 3.5-2.3 2.5-3.8-.7-1-13.8-6.7-17.9-7.9-2.3-.6-3.9-3.8-2.8-5.5.4-.6-.1-2.3-1-3.7-3.2-4.8-3.6-8.3-1.5-11.3 2.4-3.3 2.5-4.9.6-7.6-1.1-1.5-1.2-3-.6-6 .5-2.1 1-5.6 1-7.8 0-2.1.5-5.6 1.2-7.7 1-3.3.9-4.2-.6-5.8-1.9-2.1-1.9.2.3-34.6.9-14.9.4-27.7-1.5-34.3-.6-1.9-.3-2.2 2.5-2.2 4.3 0 3.9-1.8-.6-2.5-6.1-1-6.7-1.3-5.4-2.9.6-.7 2.2-1.1 3.6-.8 1.4.2 2.5 0 2.5-.5 0-1.2-4.5-3.3-7-3.3-1.1 0-2-.7-2-1.5 0-1.1 1-1.3 4.9-.8 6.8.8 7.2-1.1.6-2.7-4.5-1.1-5.5-1.7-5.5-3.4 0-1.6.3-1.7.9-.7.5.7 3.3 1.5 6.2 1.8zM462 375.3c1.6 7.6 1.3 13.1-1 16-2.2 2.8-2.6 5.2-.9 6.3.6.3.7 1 .2 1.5-.8.8-9.3-1.8-10.9-3.4-.4-.3-.1-1.4.6-2.2.8-1 1.3-3.8 1.1-7.3-.1-3.2.5-7.6 1.3-10.1.9-2.4 1.6-5.3 1.6-6.5 0-1.2.6-2.8 1.3-3.5 1.8-1.8 5.4 3.1 6.7 9.2zm-332-5.7c0 .8-.4 1.4-1 1.4-.5 0-1-.9-1-2.1 0-1.1.5-1.7 1-1.4.6.3 1 1.3 1 2.1zm38.1 2.6c-2.5 1.9-5.1 2.4-5.1.8 0-1.3 5.3-4 6.4-3.2.5.3-.1 1.3-1.3 2.4zm115.9-.5c0 2.1-.3 2.4-.9 1.4-.5-.8-.7-2-.4-2.8.8-2.1 1.3-1.5 1.3 1.4zM145.6 373c1.9 1.6 4.7 3.3 6.2 3.6 3.2.8 4.2 2 4.2 5.4 0 2.5-1.6 5-3.1 5-.4 0-1.3-1.6-1.9-3.5-1.1-3.4-1.9-3.9-7.5-4.7-2-.3-3.6-4.8-2.7-7.6.6-1.7 1-1.6 4.8 1.8zm242.8 2.7c-2.8 4.5-3.8 5.2-10.3 6.9-1.1.3-1.1.7-.1 1.9 1.9 2.2 4.2 1.8 8-1.5 1.9-1.6 3.9-2.9 4.3-3 1.3 0-5.6 9.1-7.6 10.2-3 1.6-6.3.1-7.7-3.3-1.6-3.7-.4-6.3 2.8-6.5 2.9-.2 6.6-2.7 9.9-6.8 3.8-4.8 4.2-3.6.7 2.1zm-142.2.9c-.6 6.7-2.1 7.5-2.2 1.1 0-4.3.3-5.7 1.3-5.4.7.2 1.1 1.8.9 4.3zm192.8-2.1c-1.3 1.4-2.8 2.5-3.4 2.5-1.1-.1 4-5 5.1-5 .4 0-.4 1.1-1.7 2.5zm-229.9 1.2c1.8 4.7 2.3 13 1 16.2-.8 1.7-2.3 3.2-3.8 3.5-1.5.4-3 1.9-3.9 4.2-1.7 4-2.8 4-5.1.3-1.5-2.4-1.4-2.8 1.9-7.7 4.4-6.2 5.4-11.1 3.4-15-1.8-3.4-1.3-4.2 2.6-4.2 2.2 0 3.1.6 3.9 2.7zm-73.1 2.4c0 1.7-2.3 2-3.8.6-1.3-1.4-1.3-1.8-.2-3.2 1.3-1.6 1.5-1.5 2.7.1.7 1 1.3 2.1 1.3 2.5zm94 7.3c9.4 10.5 11.9 16 12.4 27.4.4 7.3.5 7.7 2.7 7.7 1.3 0 3.6.8 5.1 1.9 2.7 1.7 5.8 1.6 5.8-.2 0-.5-.9-1.7-2-2.7-2.5-2.3-2.5-4 .1-12.7 1.3-4.3 2.5-6.6 3.1-6 1.4 1.4 1.4 4.5-.1 8.8-.9 2.9-1 5.4-.3 9.3.9 4.7.1 11.1-1.3 11.1-.2 0-2.4-1.4-4.9-3.1-2.5-1.6-6.2-3.3-8.1-3.6-2.9-.5-4-1.3-5.4-4.2-1.1-2.2-1.7-4.8-1.4-6.8.4-2.1-.3-4.9-2.1-8.5-2.8-5.7-3.2-6.5-8.9-14.9-3.7-5.5-6.2-13.6-3.9-12.8.6.2 4.7 4.4 9.2 9.3zm31.5-8.4c.3.5.1 1-.4 1-.6 0-1.1-.5-1.1-1 0-.6.2-1 .4-1 .3 0 .8.4 1.1 1zm-7.5 2.9c0 2.3-2.9 6.2-3.1 4.1-.2-1.9.1-4.1.6-5.8.6-1.8 2.5-.5 2.5 1.7zm225.9.2c.6 1.8 1.1 4.4 1.1 5.8 0 1.5.5 3.2 1.1 3.8.6.6 1.1 3 1.3 5.5.2 3 .9 5.1 2.4 6.6 4.5 4.5 1.5 17.4-4.7 20.6-1.6.9-3.8 1.6-4.9 1.6-3.4 0-11.7 3.2-13.4 5.2-1 1.1-1.8 3.1-1.8 4.4 0 3.3-1.5 3-3-.6-1.1-2.5-1-3.4.5-5.7 3.5-5.6 5.7-7.2 10.4-7.9 6.3-.9 8.8-2.7 10.1-7.4.9-3.2.8-5.4-.4-10.1-1.4-5.4-1.4-6.2 0-8.4 1.6-2.4 1.1-5.6-1.9-12.2-.9-2.1-.3-4.3 1.3-4.3.4 0 1.3 1.4 1.9 3.1zm-37.5-.6c-.4.8-1.5 1.5-2.6 1.5-1.7 0-1.8-.3-.8-1.5.7-.8 1.9-1.5 2.6-1.5.8 0 1.1.6.8 1.5zm28.6-.5c0 .5-.4 1-.9 1-.6 0-1.3-.5-1.6-1-.3-.6.1-1 .9-1 .9 0 1.6.4 1.6 1zm-374.8 2.7c1.9 2.4 4.1 9.9 3.4 12.1-.3 1-.8 7.8-1 15.2-.3 9.1-1 15-2.1 18-1.4 3.7-1.7 10.3-2.2 37.7-.3 23.8-.1 34.3.7 36.8.6 2 3.7 6.2 6.9 9.5 4.9 5.2 6.1 6 9.3 6 4.1 0 5.5 1.2 3.5 2.9-1 .8-1.9.7-3.3-.4-1-.8-3.2-1.5-4.8-1.5-3.5 0-8.9-3.2-11.5-6.8-2.1-3.1-6.3-13.5-8.1-20.2-3-11.5-.6-42 4.5-58.5 3.4-11.1 5.5-23.6 5.5-33.2 0-5.7-2.7-12.8-6.1-15.9-1-.9-1.9-2.1-1.9-2.6 0-1.5 5.7-.8 7.2.9zm259.2-.2c.3.8.1 1.5-.4 1.5-.6 0-1-.7-1-1.5s.2-1.5.4-1.5.6.7 1 1.5zM137 388.6c0 1.6-.9 1.7-2.9.5-.8-.5-1.1-1.6-.7-2.6.5-1.4.9-1.5 2.1-.5.8.7 1.5 1.9 1.5 2.6zm303-2.3c0 1-8.1 4.7-10.4 4.7-3 0 6.4-5.8 9.7-6 .4 0 .7.6.7 1.3zm-314.5.7c.3.5-.1 1-.9 1-.9 0-1.6-.5-1.6-1 0-.6.4-1 .9-1 .6 0 1.3.4 1.6 1zm151.6 4.5c.7 1.3.1 1-1.5-.8-1.4-1.5-2.6-3.3-2.6-4 .1-1.3 2.6 1.6 4.1 4.8zm79.9-1.8c0 .7-.4 1.3-1 1.3-.5 0-1-1.2-1-2.8 0-2.1.2-2.4 1-1.2.5.8 1 2.1 1 2.7zm141.9 5.2l.2 8.1h-2.9c-2 0-3.5-.9-5-3-1.2-1.6-2.2-3.2-2.2-3.5 0-1.2 8.3-10.4 8.9-10 .4.2.8 4 1 8.4zM253 389.6c0 .8-.4 1.2-1 .9-.5-.3-1-1-1-1.6 0-.5.5-.9 1-.9.6 0 1 .7 1 1.6zm222 2c0 .8-.4 1.2-1 .9-.5-.3-1-1.3-1-2.1s.5-1.2 1-.9c.6.3 1 1.3 1 2.1zm-228 3.5c0 4.2-1.4 5.2-2.5 1.8-.9-2.6.2-7.2 1.5-6.4.6.3 1 2.4 1 4.6zm156.2-2.9c1.3 1.9 1.8 2 4.6 1 1.8-.6 3.2-.7 3.2-.3 0 1.3-10.7 5.4-11.9 4.6-1.5-.8-1.4-4.8.1-6.3 1.7-1.7 2.3-1.5 4 1zm-208.4 0c-.6 1.7-6.5 5.1-7.9 4.6-.6-.2.7-1.5 2.8-3 4.3-2.9 5.7-3.4 5.1-1.6zm246.2-.3c0 1.4-1.8 2.3-3 1.6-.6-.4-.8-1.1-.5-1.6.8-1.2 3.5-1.2 3.5 0zm-220.6 1.8c.5 1.1-.2 2.4-2 3.8l-2.7 2.2 5.6 6.1c3.2 3.4 5.7 6.8 5.7 7.5 0 .7 1.4 3.5 3 6.1 1.7 2.6 2.8 5.1 2.5 5.5-.2.5-3 2.1-6 3.6-3.1 1.5-6.8 3.7-8.3 4.9-1.5 1.3-4.2 2.6-6.1 2.9-2.9.6-3.2.5-2.6-1.1 1.2-3.1 1-3.5-1.4-4.1-2.1-.6-2.2-.8-.7-2 .9-.7 1.6-2 1.6-2.7 0-2.2-3.7-1.6-8.6 1.2-2.5 1.5-4.8 2.3-5.2 1.9-.4-.4-.2-.9.3-1.1 3.3-1.3 12.9-7.2 13.3-8.2.5-1.7-3.3-1.5-6.9.4-5.1 2.6-4.3.9 1.1-2.6 5-3.2 5.7-5 1.9-5-2.3 0-2.3.2 0-5.4 1.5-3.4 2.9-4.9 5.5-6 2.6-1.1 4-2.6 5.2-5.5 1.7-4.3 3.7-5.3 4.8-2.4zm247.6.4c0 .5-.7.9-1.5.9-1.5 0-2-1.2-.9-2.3.8-.8 2.4.1 2.4 1.4zm-179.9.9c1.8 0 7.6 8.7 8.5 12.8.5 2.4 0 2.1-4.1-2.3-4.1-4.5-10.7-14.8-7.4-11.8.7.7 2 1.3 3 1.3zm105 3.1c.4 2.4.4 4.5 0 4.7-3.5 1.4-7.8 5.2-12.8 11.4-7.5 9.3-8.4 10.9-8.1 14.9.3 3 .1 3.2-3.7 3.6-9.3 1-18.8 8.2-23.6 17.9-1.8 3.5-3.5 6.3-4 6.2-2.6-1-12.9-10.1-12.9-11.4 0-1.2 6.1-13.6 7.6-15.2.1-.2 2.6.1 5.5.7l5.3 1.2 3.8-3.8c2.2-2.1 4.8-5.3 6-7.1 1.1-1.8 3.3-3.9 4.9-4.8 3.7-1.9 9.9-10.4 12-16.4l1.5-4.5 7.1-.5c3.9-.3 7.5-.8 7.9-1.3 1.6-1.6 2.9.1 3.5 4.4zm31.4-3c1.1 1.7-1.6 6.9-3.5 6.9-2.6 0-5-1-5-2.2 0-1.3 5.1-5.8 6.6-5.8.7 0 1.6.5 1.9 1.1zm-299.6 2.1c-.1 1.3-.5 3.6-.9 5.3l-.7 3-1.1-2.8c-1.9-4.5-1.5-7.7.8-7.7 1.4 0 2 .6 1.9 2.2zm16.1-1.3c0 2-3 3.3-6.2 2.6l-3.2-.8 3.4-1.2c4.4-1.6 6-1.7 6-.6zm122.7 2.3c-.3.8-.6.5-.6-.6-.1-1.1.2-1.7.5-1.3.3.3.4 1.2.1 1.9zm182.2.3c10 2.7 14.1 4.7 18.1 9 1.7 1.8 2.1 2.8 1.3 3.6-.8.8-2.4.2-6-2.2-3.8-2.7-6.2-3.5-11.8-4.1-10-1-17.5-3.4-17.5-5.7 0-3.9 2.9-4 15.9-.6zm-87.9 3.7c0 1.8-.5 4-1 4.8-.7 1.1-1 .2-1-3.3 0-2.6.5-4.7 1-4.7.6 0 1 1.5 1 3.2zm52.5-.1c.9 2.6.4 3-7.5 6.5-3.6 1.5-8.1 3.8-10 5.1-3.4 2.3-7 3-7 1.5 0-1 6.4-7.1 11.2-10.6 6.3-4.7 12.3-5.8 13.3-2.5zm-138.5-.2c0 1.6-1.2 4.1-2 4.1-.4 0-.5-1.1-.2-2.5.4-2.3 2.2-3.6 2.2-1.6zm25 16.1c11.6 14.2 25.9 30.4 27.3 30.9 1.4.4 23.8 19 24.9 20.5.4.6.3 1.5-.2 2-1.2 1.2-12.3-5.7-17.4-10.8-12.3-12.3-34.4-37.9-40.6-47.1-2.6-3.9-5.7-7.9-6.9-8.9-1.1-1.1-2.1-2.4-2.1-3 .1-1.3 4.4 3.4 15 16.4zm-104.5-13c.8 1.6 2.4 3.4 3.5 4 1.1.6 1.8 1.5 1.5 2.1-1 1.4-4.5-.9-5.5-3.7-.5-1.3-1.7-2.7-2.5-3-1.9-.8-2-2.4 0-2.4.8 0 2.1 1.3 3 3zm57.5 2.4c-.5 1.5-1.4 2.5-2 2.1-.5-.3-.2-2 .8-4.2 1.9-4 2.9-2.3 1.2 2.1zm199.8 1.5c2.9.1 7.9 3 8.7 4.9.3.8-1 4.7-2.9 8.6-3.1 6.4-3.4 7.8-3.1 14.6l.3 7.4 3.3.9c3.2.8 3.6.6 9.4-5.7 4.6-5.2 6.6-6.7 8.8-6.6 3 0 3.7 1.9.8 2.7-2.1.5-8.7 8.2-10 11.5-.5 1.4-.4 3.6.4 5.9 1.2 3.2 1.1 4-.8 7.4-1.8 3.1-3.3 4.2-7.6 5.7-3 1-6.2 2.5-7.2 3.4-1.1 1-2.5 1.3-3.9.9-1.7-.5-2.9 0-5.1 2.5-1.6 1.7-2.9 3.5-2.9 4s-.9 1.4-2 2c-1.5.8-1.9 1.7-1.5 3.1.6 1.7.3 1.9-2 1.3-2.6-.6-2.7-.5-2 2.5.6 3 .6 3.1-2.4 2.5-2.6-.6-3.1-.3-3.1 1.3 0 1-.5 2.4-1.2 3.1-.9.9-.9 1.8 0 3.7 1.8 3.9-.3 3.1-6.3-2.4-6.1-5.5-16.3-10.1-22.5-10.1-5.1 0-5.7-1.4-3.2-7.7 1.8-4.4 5.5-13.7 12.8-32.8 3.4-9 17.2-36.3 19.4-38.5 1.6-1.6 2.4-1.5 12.6 1.1 6 1.5 12 2.8 13.2 2.8zM179 405c0 .5-.5 1-1.1 1-.5 0-.7-.5-.4-1 .3-.6.8-1 1.1-1 .2 0 .4.4.4 1zm-42.8 2.6c1 2.1.9 2.7-.3 3.5-2.3 1.4-3.6 1-4.2-1.3-.6-2.2.7-4.8 2.4-4.8.5 0 1.5 1.2 2.1 2.6zm17.3 1.4c.3.5 0 1-.7 1s-3 .3-5 .6c-2.4.4-3.8.3-3.8-.4 0-1 2.3-1.6 7.2-2.1.9 0 2 .3 2.3.9zm30-.4c.9.4 2.5 2.4 3.6 4.5 1.2 2.5 2.9 4.1 4.5 4.5 2.3.6 2.4.8 1.1 2.2-2 1.9-4.1.5-9-6-3.9-5-3.9-6.6-.2-5.2zm231.5 1.8c-.5 1.4-3.2 6.9-5.9 12.4-2.8 5.5-5.1 10.3-5.1 10.8s-.7 2.2-1.5 3.7c-.8 1.6-2.4 5.7-3.4 9-1.1 3.4-3.2 9.3-4.6 13.2-1.5 3.8-3.6 9.5-4.7 12.5s-2.6 6.1-3.3 6.9c-2.6 2.7-3-1.6-.7-7.2 1.2-2.9 3.1-8.2 4.2-11.8 2.1-6.9 10.6-26.1 18.3-41.6 3.9-7.7 5.2-9.4 7.4-10.2.1-.1-.2 1-.7 2.3zm79.1 5.6c-1.9 8.7-7.5 14.4-13.8 14.2-2.1 0-5.6-.1-7.8-.1-5-.1-3.1-1.4 4.3-3 10.3-2.2 14.5-6.1 15.8-15 .6-3.9.8-4.2 1.5-2.3.5 1.3.5 4.1 0 6.2zm-321.6-3c3 1.3 5 3.1 6.8 6.3 1.5 2.5 3.6 4.9 4.7 5.2 2.5.8 2.5 2.1 0 3.5-2.7 1.5-5.4-.1-8.5-5-3-4.7-5.7-6.6-10.7-7.5-4-.8-6.4-2.8-5.3-4.5.9-1.4 7.4-.4 13 2zm299.9 1.1c-.9 1-2.7 1.9-3.8 1.9-1.8-.1-1.6-.4 1.4-3 3.7-3 5.5-2.3 2.4 1.1zm-68.6-.3c-.1.4-1.1 2.8-2.2 5.5-1.6 4.1-2.2 4.7-4.8 4.7-1.6 0-4.3.7-5.9 1.6-1.7.8-3.5 1.4-4.1 1.2-.6-.2 1.6-1.7 4.8-3.4 4.4-2.2 5.8-3.4 5.6-4.7-.4-2.4 2.5-5.7 5-5.7 1.1 0 1.8.3 1.6.8zm-251.5 3.7c.2 1.2-9 2.8-11.1 2-2.4-.9-.2-2.3 4.3-2.8 5.3-.5 6.6-.4 6.8.8zm162.3 8.2c-1.4 2.8-1.4 2.8-.9-1.7.7-6.3 1.6-8.2 2.1-4.3.2 1.8-.3 4.5-1.2 6zm-184.4-5.2c1.2 2.6.4 4.6-1.1 2.9-.5-.5-1.2-1.9-1.6-3.2-.9-3.1 1.2-2.9 2.7.3zm217.2 3.2c-1.8 3.7-5.4 5.8-5.4 3.2 0-1.4 6.1-8.1 6.8-7.4.2.2-.4 2.1-1.4 4.2zm-177.7 1.5c1.5 2.4 3.5 5.2 4.5 6.3 1.7 2 1.7 2.2-.8 4.8-2.8 3.1-3.2 3.2-5.6 1.3-2.2-1.6-2.3-5.2-.3-6 2.3-.8 1.8-4-1-6.6-2.8-2.7-3.2-4-1-4 .8 0 2.7 1.9 4.2 4.2zm94.1.3c1.6 3.4 1.5 5.6-.3 7.9-3 3.9-1.2 16.9 2.7 19.8 4.4 3.4 4.7 3.8 4.2 5.3-1 2.4-3.3 1.8-6.9-1.8-3.7-3.7-5.5-8.9-5.5-16 0-5 2.9-17.7 4-17.7.4 0 1.2 1.1 1.8 2.5zM157 426c0 .5-.6 1-1.4 1-.7 0-1.9.6-2.5 1.4-.9 1.1-.8 1.8.4 3 1.5 1.5 1.5 1.6 0 1.6-1 0-2.6-1.1-3.7-2.5s-2.7-2.5-3.6-2.6c-1 0-.5-.6 1.3-1.4 3.5-1.6 9.5-1.9 9.5-.5zm-17.7 1.7c-.7.2-2.1.2-3 0-1-.3-.4-.5 1.2-.5 1.7 0 2.4.2 1.8.5zm99.1 2.7c-.4 1.8 0 2.8 1.7 4 3 2.1 3.4 2 5.8-.6l2-2.1 1.1 2.9c.6 1.6.8 4.6.4 6.8l-.6 4-1.5-2.7c-.7-1.5-1.9-2.7-2.6-2.7-3 0-3.5 2.2-3 12.9.5 10.3-.4 18.5-2.6 24.5-1.1 2.8-1.2 2.8-3.2 1-2.1-1.9-2.2-1.9-3.8.5-3.3 5-4.8 6.4-6 5.7-.9-.6-.8-1.3.3-3.2 1.6-2.3 2.2-9.5.9-10.7-1.2-1.2-4.2 2.5-4.9 5.9-.7 3.7-1.9 5.1-2.9 3.4-.4-.6.1-2 1-3 1.1-1.2 1.5-3.1 1.3-6.1-.3-3.9-.6-4.4-2.5-4.2-1.7.2-2.3-.2-2.3-1.7 0-4.5-5.8-3.1-6.1 1.4-.1 1.1-.5.3-.8-1.9-.6-3.7-.8-4-3.9-4.1-3.4-.1-7.6-3-6.6-4.6.3-.5 2.2-2 4.2-3.3 2.1-1.4 6.6-4.7 10.2-7.5 3.6-2.8 9.1-6 12.3-7.2 6.4-2.3 7.3-3.8 2.5-3.9h-3.3l2.4-1.7c2.6-1.8 7.8-4 9.9-4.1.8-.1 1 .7.6 2.3zM286 429c0 .5-.4 1-.9 1-.6 0-1.3-.5-1.6-1-.3-.6.1-1 .9-1 .9 0 1.6.4 1.6 1zm110.8.7c-.2 1.1-1.6 2-3.8 2.3-2 .4-4.2 1-5 1.5-1.3.8-1.3.6-.1-.8.7-.9 1.9-1.7 2.6-1.7.7 0 1.8-.7 2.5-1.5 1.7-2.1 4.2-1.9 3.8.2zM273 431.1c0 .5-.4.9-1 .9-.5 0-1-.7-1-1.6 0-.8.5-1.2 1-.9.6.3 1 1 1 1.6zm51.8 2.1c-.5 1.3-6.7 3.3-7.5 2.4-.3-.3-.3-1.2 0-2.1.8-1.9 8.1-2.2 7.5-.3zm160.8 2.4c-1.5 1.4-3.1 2.3-3.4 2-.9-.9 3-4.6 4.7-4.6 1.1.1.8.8-1.3 2.6zm-350.3-.9c-.7.2-1.9.2-2.5 0-.7-.3-.2-.5 1.2-.5s1.9.2 1.3.5zm64.7.8c-.7.8-1.8 1.5-2.4 1.5-.6 0-.2-.7.8-1.5 2.5-1.9 3.2-1.9 1.6 0zm129 .2c0 .5-.9 2.3-2 4.1-1.7 2.8-2.3 3.2-3.6 2.1-1.3-1-1-1.6 1.8-4 3.7-3.1 3.8-3.2 3.8-2.2zm-61 1.8c0 .8-.4 1.5-1 1.5-.5 0-.7-.7-.4-1.5.4-.8.8-1.5 1-1.5.2 0 .4.7.4 1.5zm106.2 7.5c-.1 4.7.2 12.3.7 17 .4 4.7.6 8.8.4 9.2-.2.4-2-.4-4-1.7-4.2-2.9-5.7-3-9.7-1-3.8 2-3.6 2-9-2-3.8-3-4.6-4.1-4.6-6.9 0-8.6 11.3-21.6 18.7-21.6 1.7 0 3.5-.5 3.8-1.1.4-.5 1.4-.9 2.2-.7 1.3.2 1.6 1.8 1.5 8.8zm19.8-8.2c0 1.5-2.4 3.2-4.5 3.2-1.2 0-2.7.6-3.4 1.2-1.1 1.1-1.2 1-.6 0 .7-1.4 6.4-5.2 7.8-5.2.4 0 .7.4.7.8zm-204.9 2.5c-1.3 1.3-2.6.3-1.6-1.2.3-.6 1.1-.8 1.7-.5.6.4.6 1-.1 1.7zm88.7.6c.3.8-.1 1.2-.9.9-.7-.2-1.5-1-1.7-1.7-.3-.8.1-1.2.9-.9.7.2 1.5 1 1.7 1.7zm15.2-.9c0 .5-.5 1-1.1 1-.5 0-.7-.5-.4-1 .3-.6.8-1 1.1-1 .2 0 .4.4.4 1zm-8.9 3.3c-.8.8-1.1.7-1.1-.4 0-2 1.3-3.4 1.8-1.9.3.7-.1 1.7-.7 2.3zm-73.1-.4c0 1.3-13.8 12.1-15.5 12.1-2.9 0-1.4-1.9 6.2-7.4 7.5-5.5 9.3-6.4 9.3-4.7zm-72 .4c0 1.6-3.4 6.6-4.1 6.2-1.4-.9-1.1-2.6.8-4.7 1.4-1.6 3.3-2.4 3.3-1.5zm250.8 4.2c-1.1 2.5-4.4 4.2-5.6 3-.7-.7 4.6-5.5 6-5.5.4 0 .2 1.1-.4 2.5zm-204.4 3.8c2.8 3.8 1.1 5.4-3.8 3.6-4.1-1.5-4.2-1.6-2-4.7 1.9-2.7 3.1-2.5 5.8 1.1zm105.7 1.1c-2.5 2.4-4.7 1-3.6-2.3.5-1.7.9-1.9 3.1-.9l2.5 1.2-2 2zm10.9 1.7c0 1.8-1 .8-2.5-2.4l-1.6-3.2 2.1 2.4c1.1 1.3 2 2.7 2 3.2zm-44.5 2.5c2.6 4.9 8.4 8.7 12.7 8.2 3.9-.4 5 2.2 2.2 5.3-1.6 1.7-1.9 1.8-2.6.4-1.3-2.3-3.7-1.8-5 1-1.2 2.7.2 5.5 2.8 5.5 2.6 0 10.4-8.5 10.4-11.3 0-1.4.4-2.8.8-3.1.5-.3 4.6 5.3 9.1 12.4 10 15.8 19.6 26.2 30.8 33.6 5.6 3.7 8.3 6 7.9 7-.3.7-.8 3.7-1.2 6.6-.4 2.9-1.1 5.9-1.7 6.5-.5.7-3.1 1.3-5.7 1.3-8.2 0-10.6 2.2-5.2 4.8 6.7 3.3 10.5 4.2 13.7 3.3 2.7-.7 3.7-.4 7.1 2 5.6 4 20.6 14.4 29.2 20.2 10.4 7.1 24.1 19.4 28 25.2 3.7 5.7 4.2 11.2 1.6 18-.8 2.2-2 5.5-2.5 7.3-.6 1.9-1.9 4.8-2.9 6.5-1.1 1.8-3.1 5.2-4.5 7.7-6.1 10.7-15.9 22-19.1 22-2.6 0-3 1-1.2 2.8 1.9 1.9-.9 4.4-3.4 3.1-3.2-1.7-4.5.4-2.4 3.6 2.2 3.3 1.4 4.3-1.9 2.5-3.6-2-5.5 0-2.6 2.9 2.6 2.6 1.8 5.5-1.5 4.7-2.6-.7-4.2 1-2.5 2.7 1.3 1.3-.4 3.7-2.5 3.7-1.7 0-1.7.5-.2 2.9 1.7 2.8-.6 5.4-4.3 4.6-3.7-.8-4.6 1.1-1.8 4.1 2.4 2.6 1.9 3.9-1.6 4.6-1.5.3-2 1.1-2 3.5 0 1.9-1.2 4.9-3.1 7.5-2.5 3.5-4.1 4.7-7.7 5.8-2.6.7-5.3 1-6.2.7-2.1-.8-4.5.2-4.5 1.9 0 1.8-1.4 1.8-3 0-1-1.3-1.7-1.2-5.2.6-2.2 1.2-4.2 2.7-4.5 3.4-.3.8-1.3 1.4-2.3 1.4-3.1 0-3.9 2.1-2.8 7.3.8 4.1.7 5.1-.8 6.8-.9 1-2.6 1.9-3.6 1.9-1.4 0-1.8.5-1.3 1.9 1.3 4.3-10 7-14.5 3.3-1.6-1.3-2.3-3.2-2.7-7.8-.5-5.4-.2-6.9 3.2-14.8 2.1-4.8 5.4-10.6 7.2-12.9 2.5-3 3.3-4.7 2.8-6.4-.4-1.7-.1-2.3 1.2-2.3 2.4 0 5.3 3 5.3 5.5 0 3.2 2.4 4.9 4.8 3.6 4.3-2.3 7.2-7.1 7.2-11.7 0-4 .5-4.9 4.7-8.9 2.6-2.5 5.1-4.5 5.6-4.5s3.8-2.8 7.3-6.2c3.5-3.5 7.1-7 8-7.8 3-2.9 12.4-18.3 17.4-28.5 5.5-11.2 5.6-12.6 1.7-19.3-1.8-3-1.9-3.9-.8-8.9.7-3 1-5.7.7-6-.3-.3-.1-1.4.5-2.4.7-1.3.6-2.6-.2-4.2-1.7-3.3-1.7-3.3-4.8-.3-3.6 3.5-6 2.6-3.1-1.1 2.4-3 2.6-5.3.5-5.3-1.7 0-3.5 3-3.5 5.9 0 3-4.2 2.8-19.3-.8-6.7-1.6-15.9-3.7-20.4-4.5-4.6-.9-11.9-2.3-16.3-3.2-4.5-.8-8.8-1.3-9.8-1-5.3 1.7-14.1-10-12.7-17 .3-1.8 1.2-3.7 2-4.4 2.2-1.8 1.8-3.2-.7-2.8-2.9.4-6.8 6.3-6.8 10.3 0 4.3 4.9 11.7 10.3 15.4 3.5 2.3 5.7 3.1 9.1 3.1 3.6 0 4.8.4 5.6 2.1.7 1.1 1 2.2.8 2.4-.2.2-6.8-1.8-14.8-4.5l-14.5-4.8.3-4.4c.3-4.1.1-4.5-3.2-6.1-2.7-1.2-3.6-2.3-3.6-4.1 0-2.6-3.3-5.6-6.2-5.6-.9 0-2-.5-2.4-1.1-.4-.6-.8-7.4-1-15.1-.2-7.7-.8-16.5-1.4-19.6-.5-3.1-1-10.2-1.1-15.7-.1-6.9-.6-10.7-1.6-12.3-2-3.2-1.3-4.3 5-8.5 7.2-4.8 11.4-9.7 12.7-14.9.5-2.4 1.4-5.7 1.9-7.3.5-1.7 1.2-4.6 1.6-6.5 1.5-8.3 2.1-8.7 5-3.4zm128.5 1.3c-.6 1.2-1.7 2.1-2.6 2.1-1.1 0-1.2-.4-.4-1.9.9-1.8 3.1-3.2 3.8-2.5.2.1-.1 1.2-.8 2.3zm-74.6-1c.3.5-.1 1.2-1 1.5-2.5 1-3.4.7-3.4-.9s3.5-2.1 4.4-.6zM196 460.1c0 .5-.4.9-1 .9-.5 0-1-.7-1-1.6 0-.8.5-1.2 1-.9.6.3 1 1 1 1.6zm90-1.1c0 .5-.2 1-.4 1-.3 0-.8-.5-1.1-1-.3-.6-.1-1 .4-1 .6 0 1.1.4 1.1 1zm5.5 0c-.3.5-1.1 1-1.6 1-.6 0-.7-.5-.4-1 .3-.6 1.1-1 1.6-1 .6 0 .7.4.4 1zm16.5 3.5c5.5-.8 7.8.9 2.4 1.8-5.3.9-10.8-1.2-11.2-4.3l-.4-2.5 2.2 2.8c2.1 2.6 2.6 2.8 7 2.2zm-120.4-1.9c2.1-.6 2.4-.3 2.4 2.3 0 2.7-2.7 5.5-6 6.3-1.3.3-4.2-8-3.4-9.4.3-.4 1.4-.3 2.6.3 1.1.6 3.1.8 4.4.5zm-45.3 6.7c1.4 2.1 1.3 2.3-.7 2.4-1.1.1-3.3 1.6-4.7 3.2-1.4 1.7-3.1 3.1-3.9 3.1-1 0-.9-.5.3-1.8 1-1 1.7-2.3 1.7-2.9 0-1.3 3.9-6.3 5-6.3.4 0 1.4 1 2.3 2.3zm187.3 3.4c-.7.7-2.6-.7-2.6-1.9 0-.6.6-.6 1.5.2.9.7 1.3 1.5 1.1 1.7zm-15.9-.9c.6.4 1.6 2 2.2 3.5 1 2.5.7 3.2-2.4 6.5-3.7 4-4.9 2.6-1.5-1.8 2.4-3 2.5-4.4.5-6-2.6-2.1-1.6-4 1.2-2.2zm-160 4.4c1.5 1.7 1.5 1.8-.5 1.8-1.2 0-3.6-1.3-5.4-3l-3.3-2.9 3.7 1.1c2.1.6 4.5 2 5.5 3zM368 472c0 .5-1.1 1-2.5 1s-2.5-.5-2.5-1c0-.6 1.1-1 2.5-1s2.5.4 2.5 1zm-171.9 2.1c.9 1.7.8 2.5-.6 3.8-1.5 1.5-1.8 1.4-3.6-.8-1.5-1.8-1.7-2.7-.8-3.7 1.7-2 3.7-1.7 5 .7zm18.6 2.1c-.3.8-.6.5-.6-.6-.1-1.1.2-1.7.5-1.3.3.3.4 1.2.1 1.9zm82.1.7c.3.8-.1 1.2-.9.9-.7-.2-1.5-1-1.7-1.7-.3-.8.1-1.2.9-.9.7.2 1.5 1 1.7 1.7zM145 479.5c1.9 2 4.8 3.7 6.7 4.1 3.9.7 4.5 3.4.9 3.4-1.4 0-4.6-1.1-7.1-2.4-3.8-2.1-5.1-2.3-7.5-1.4-1.7.5-3.3 1.4-3.6 1.9-.8 1.3-2.4 1.1-2.4-.3 0-1.5 7-8.8 8.5-8.8.6 0 2.6 1.6 4.5 3.5zm220-1.5c0 .5-.7 1-1.5 1s-1.5-.5-1.5-1c0-.6.7-1 1.5-1s1.5.4 1.5 1zm-65.9 2.3c-.1 1.2-1.5.9-1.9-.4-.3-.6.1-1 .8-.8.6.3 1.1.8 1.1 1.2zm33.7.9c.7.7 1.1 3.6 1 6.7-.1 4.1-.2 4.6-.5 2.1-.3-1.9-1.4-4.5-2.5-5.7-2.8-3-.9-6 2-3.1zm-144 3.1c1.5 3.1.9 4.7-1.8 4.7-2.2 0-3.4-3.1-2.5-6.1.8-2.6 2.6-2 4.3 1.4zm161.1-1c1.2 1.5.5 2.7-1.6 2.7-.7 0-1.3-.9-1.3-2 0-2.3 1.3-2.6 2.9-.7zm-128.3 9.3c1.3 2.3 2.2 4.8 1.9 5.6-1.1 2.7-4.6 25.2-5 32.3-.6 7.9-2.2 21.7-3 25.5-.3 1.4-.8 6.3-1.2 10.9-.6 7.8-.5 8.5 1.6 10 2.1 1.6 2.1 5.1.1 5.1-.5 0-3.9 2-7.6 4.5-3.7 2.5-6.8 4.4-6.9 4.3-.2-.2-.5-8.2-.9-17.9-.6-16.9-.5-17.7 1.5-20.3 2.1-2.6 2.1-2.7.3-4.8-1.7-1.9-1.9-3.7-1.7-21.7.4-27.3 1.4-37.5 4.2-40.5l2.2-2.4 6 2.6c4.8 2 6.6 3.5 8.5 6.8zm-24-5.9c-1.3 6.6-1.5 9.4-1.7 23-.1 12.4-.3 14.6-2 16.7-2.3 2.9-2.4 4.2-.5 4.9 2.2.9 3.1 15.8 1.6 26.1-.7 4.7-1.6 8.6-2 8.6-1.2 0-2.9-11.1-2.5-16.1.1-2.4 0-4.8-.3-5.3-1-1.8-1-7.1.1-8.5.9-1 .7-1.6-.7-2.7-1.2-.8-1.6-1.9-1.2-3 .4-1 .1-2.1-.6-2.5-1-.6-1-1.1-.1-2 .6-.6.9-1.8.6-2.5-.3-.8 0-2.1.6-2.8 1-1.1.8-1.7-.6-2.5-1.7-1-1.6-1.2.7-3s2.3-2 .6-2.7c-1.7-.6-1.7-.8-.2-1.6 1.3-.8 1.5-1.3.5-2.4-.9-1.1-.8-1.5.5-2 1.8-.7 2.1-3.5.6-5-1.3-1.3.4-7.8 2.9-10.5 1.1-1.2 2.1-3 2.1-3.9 0-1.6.8-3 1.7-3 .3 0 .2 1.2-.1 2.7zm122.4-1.2c1.3 1.6.4 5.8-1.3 5.2-1.8-.6-3.1-3.3-2.4-5.1.8-2 2.1-2.1 3.7-.1zm62 3.3c0 1.4-.5 2.2-1.2 2-1-.4-1.4-3.2-.9-6.6.3-1.6 2.1 2.4 2.1 4.6zm-10.8-.6c-.7.7-1.2.8-1.2.2 0-.6.3-1.4.7-1.7.3-.4.9-.5 1.2-.2.2.3-.1 1.1-.7 1.7zm-227.6 2.9c3.2 2.6 4.5 3 7.7 2.6 2.7-.4 3.7-.1 3.7.8 0 1.8-.7 2.2-5.1 3-3.2.6-4.1.3-7.3-2.6-3.3-2.8-4-3.1-6.2-2-5.6 2.5-6.2.1-.6-2.8 2-1.1 3.8-2 3.8-2.1.1 0 1.9 1.4 4 3.1zm260.2.9c5.2 2.2 10.3 4.7 11.3 5.6 2.2 2 4.4 7.3 3.4 8.2-.4.4-1 .2-1.2-.5-.8-2.4-9.9-8.1-18.6-11.8-4.8-2.1-9-4.1-9.3-4.6-1.2-2.1 5.5-.6 14.4 3.1zm-59.4-2.1c.4.5.1 2.2-.5 3.8-1 2.7-1.1 2.7-2.5.9-2-2.8-1.8-5.6.5-5.6 1.1 0 2.2.4 2.5.9zm20.4 4.4c-2 1.8-3.8 4.3-4 5.7-.4 3.3-3.2 3.3-3.6-.1-.4-3.3 2.6-7 6.9-8.5 4.8-1.6 4.9-.8.7 2.9zM398 497c6.7 2.9 12 6.1 14 8.5 1.2 1.5 1.2 1.8-.2 2.6-1 .6-1.4 1.7-1.1 3 .5 1.8.3 2-1.5 1.4-4.1-1.2-4.4.6-.7 4.7 4.1 4.4 4 6.2 0 3-2.2-1.7-3.1-1.9-5.5-1-4 1.3-3.9 3.8 0 3.8 2.1 0 3 .5 3 1.6 0 1.2-.7 1.4-3 .9-2.9-.6-3-.5-2.5 1.8.8 2.9-.5 3.4-10.5 4.3-5.5.4-7 .2-9.8-1.6-3.1-1.9-3.3-2.4-2.7-5.9.3-2 .1-5.8-.6-8.4-.6-2.6-.8-5.4-.5-6.3.6-1.5.8-1.5 2.7.2 2.5 2.3 4.1 5.1 4.4 7.9.1 1.1.3 2.3.4 2.7 0 .4 1 1.2 2.1 1.8 2.5 1.3 8.4-.9 9.9-3.9 2.4-4.3-2-14-6.9-15.6-1-.3-3.6-.1-5.9.4-4 .9-4.1.8-4.1-1.7 0-1.4 1.1-3.8 2.5-5.2 2.3-2.4 3.1-2.6 6.8-2 2.3.4 6.7 1.7 9.7 3zm-73-1.1c0 2-3 3.3-5.7 2.5l-2.8-.8 2.5-.4c1.4-.2 2.9-.8 3.5-1.3 1.2-1.1 2.5-1.2 2.5 0zm-187.1 3.5c.6.8 2.5 1.9 4.1 2.6 1.9.8 3 2 3 3.1 0 1.8-.2 1.9-2.9.5-1.6-.9-3.1-2.2-3.4-3.1-.4-.8-1.6-1.5-2.7-1.5-2 0-2.6-1.1-1.3-2.3 1-1.1 1.9-.8 3.2.7zm204.1 3c0 .2-.5 1.8-1.1 3.6l-1.2 3.3-1.8-4.9c-2.5-6.5-2.4-6.9 1.1-4.4 1.7 1.2 3 2.3 3 2.4zm-183.4-.3c1.4 2.3-3.7 3.8-6.6 1.9-1.3-.9-1.3-1.1 0-2 2-1.3 5.7-1.3 6.6.1zm172.8 2.5c.3.9.6 2.3.6 3.1 0 1.3-.3 1.3-1.5.3-1.6-1.3-2.1-5-.6-5 .5 0 1.2.7 1.5 1.6zm39.9 13.8c-1.1 1.7-5.3-4.4-5.3-7.7v-3.2l3 5c1.6 2.7 2.6 5.3 2.3 5.9zM152 510c0 .5-.4 1-1 1-.5 0-1-.5-1-1 0-.6.5-1 1-1 .6 0 1 .4 1 1zm7 1.2c0 .7-.8 4-1.8 7.3-1.7 5.6-2 6-4.6 5.7-1.5-.2-3.8.4-5.1 1.2-1.3.9-2.7 1.6-3 1.6-1.1 0-.4-3.8 1-5 1.3-1 1.1-1.6-1-4.4-1.4-1.8-2.5-4.1-2.5-5.1 0-1.8.1-1.7 2.3.1 3.4 3 7.1 4.6 9.8 4.2 1.9-.2 2.5-1 2.7-3.6.3-3 2.2-4.7 2.2-2zm68.2 15.1c-.2.4-.9.3-1.6-.3-1-.8-1.1-2-.2-5.8l1.1-4.7.5 5c.3 2.7.4 5.4.2 5.8zm-87.2-4.7c0 .8-.5 1.2-1 .9-.6-.4-.8-1.1-.5-1.6.9-1.4 1.5-1.1 1.5.7zm201.2-.1c.7.7-1.1 11.8-2.1 12.8-.5.5-1.1-.3-1.5-1.6-.3-1.4-1.7-3.2-3.1-4.1-3.2-2.1-3.2-3.8 0-3 2 .5 2.7.1 3.6-2 1.2-2.5 2-3.1 3.1-2.1zm-189.5 11.1c.9 2.4-1.8 4.3-5 3.7-4.8-.9-2.4-4.4 3.6-5.2.4-.1 1 .6 1.4 1.5zm77.3.5c0 1.1-.4 1.7-1 1.4-.5-.3-1-1.3-1-2.1s.5-1.4 1-1.4c.6 0 1 .9 1 2.1zM142.1 550c.5 0 .9.5.9 1.1 0 1.5-4.3.7-4.8-1-.3-1 0-1.2 1.2-.8 1 .4 2.2.7 2.7.7zm98.4 14.8c0 1.8-2 1.5-2.3-.4-.3-1 .1-1.5 1-1.2.7.3 1.3 1 1.3 1.6zm-11.2 2.4c1.7.9 2.4 2.8.9 2.8-.5 0-1.6.6-2.5 1.2-1.6 1.2-2.6 7.1-5.2 33.4-.7 7.1.8 9 7.4 8.7 2.8-.1 5.3.2 5.6.7 1 1.6 2.4 1.2 4.7-1.5 3-3.5 3.7-3.1 3.1 1.7-.7 5.3-1.4 5.8-6.4 4.7-2.1-.5-6.9-1.2-10.6-1.7l-6.8-.7-.3-5.8c-.3-6.4.8-17.3 3.4-32.1 1.6-9.2 1.6-10 .1-11.1-3.5-2.5 1.7-2.8 6.6-.3zm-45.3 1c0 1.9-.2 2-1 .8-1.3-1.9-1.3-3 0-3 .6 0 1 1 1 2.2zm11.4 6.5c1.2 10.3 1.1 18.7-.3 20.8-1.2 1.9-1.2 1.9-.8-.2.3-1.2-.1-2.8-.9-3.4-1.6-1.3-1.8-15.5-.2-17.5.5-.8.3-1.4-.8-1.8-1.3-.5-1.4-.9-.4-2.1 2.1-2.5 2.8-1.7 3.4 4.2zm46.1-2.7c.3.5.2 1-.4 1-.5 0-1.3-.5-1.6-1-.3-.6-.2-1 .4-1 .5 0 1.3.4 1.6 1zm5.3 3.5c-.3.3-.9-.2-1.2-1.2-.6-1.4-.5-1.5.5-.6.7.7 1 1.5.7 1.8zm-10.7-.5c2.8 1.6 2.3 3-1 3-3.1 0-4.7-1.3-3.6-3 .8-1.3 2.1-1.3 4.6 0zm8.9 8.4c4.1.8 12.4 3 18.4 5 6 2 11.5 3.6 12.2 3.6.8 0 1.4.4 1.4.9s-5.7.6-12.7.4c-12-.5-13.5-.4-24.2 2.5-6.3 1.7-11.8 2.9-12.2 2.6-.4-.2-.3-1.9.2-3.7.5-1.7.9-5.3.9-7.9V582h4.3c2.3 0 7.6.7 11.7 1.4zm-73.5 1.6c3.1 1.9 6.5 6 6.5 7.7 0 .4-1.8-1-3.9-3.1-5-4.9-5.1-4.9-25.1 5.7-17.4 9.2-27.9 13.9-29.2 13.1-.5-.3-2 .1-3.3 1-1.3.9-3.2 1.6-4.2 1.6-3 0 .5-2.4 8.2-5.5 3.9-1.6 12.2-5.5 18.6-8.7 6.4-3.2 12.2-5.8 12.7-5.8.6 0 2.6-1.3 4.4-2.8 6.7-5.8 10-6.5 15.3-3.2zm44.3 1.7c-.2 1-1.7 2.4-3.3 3.2-1.7.7-4.7 3-6.7 4.9-3.4 3.2-5 3.5-3 .6 1.1-1.8 11.5-10.4 12.5-10.4.4 0 .7.8.5 1.7zm96.2 4.4c8 1.6 17 3.2 20 3.5 6.3.6 7.2 1.2 7.6 5.1.9 9.1 1.7 13.1 3.1 15.3 3.2 4.9 2.1 10.4-4.6 23.7-3.4 6.8-6.6 12.3-7.1 12.3s-3.9 3.8-7.6 8.5c-4.1 5.4-8.8 10.1-12.5 12.6-7.7 5.2-10.9 9.9-10.9 16.1 0 3.6-.4 4.8-1.5 4.8-.8 0-1.5-.7-1.5-1.5 0-2.1-4.8-4.9-8.9-5.2-2-.1-6-.8-8.9-1.4-5.1-1.3-9-.8-15.6 1.7-1.5.6-1.7.4-1.1-1.5.4-1.2-.1-4.5-1.1-7.6-1.4-4.6-1.5-6.2-.5-9.7.6-2.4 1.8-7.5 2.5-11.3 1.8-8.9 5-17.3 11.6-30.5s21.2-38 22.3-38c.1 0 6.7 1.4 14.7 3.1zm-143 1.3c0 1.5-1.8 3.1-2.6 2.3-.7-.7.7-3.7 1.7-3.7.5 0 .9.6.9 1.4zm46.8 5.6c-.2 3.3-.7 6.2-1 6.5-.3.3-2.2-.4-4.2-1.5l-3.6-2.2-1 2.6c-.5 1.4-1.5 3.8-2 5.2-.6 1.5-1.3 2.4-1.7 2.1-1.2-1.3 3.1-10.2 7-14.4 5.6-6.1 7-5.8 6.5 1.7zm70-2.3c.2.8-.5 1.3-1.8 1.3-1.2 0-3 .5-4.1 1.1-3.6 1.9-4.3.3-.8-1.9 3.6-2.3 6-2.5 6.7-.5zM174 598.5c0 1.6-2.7 3.2-3.7 2.2-.3-.4-.3-1.3 0-2.2.8-2 3.7-2 3.7 0zm21.3 3.5c-.6 2.2-3.3 2.8-3.3.7 0-1.6 2.1-3.8 3.1-3.2.4.3.5 1.4.2 2.5zm-36.7 2.1c-.9 2.2-1.5 2.7-1.5 1.6-.1-2.1 1.8-6.1 2.5-5.4.3.3-.2 2-1 3.8zm114.5-2.2l2.1 1.9-3.1.7c-4.4.9-3.8 2.3 1.1 2.7 5.1.4 6.6 2.8 1.5 2.6-1.8-.1-3.9.2-4.6.6-1.6 1-.4 2.6 2 2.6 2.5 0 3.6 2.7 2 5.1-5.3 8.6-16 37.4-18.2 49-1.1 6-1.2 8.2-.7 18.2.2 3.2-.4 4.4-4.8 9-6.5 6.7-9.6 12.3-12.2 22.2-2.6 9.5-5.2 23.1-5.2 26.8 0 1.4-.4 2.9-1 3.2-.5.3-1 1.8-1 3.2 0 1.5-1.3 5-3 7.9-1.6 2.9-3.4 7-3.9 9.1-.5 2.1-2 7.5-3.3 12-2.2 7.2-2.3 8.5-1.1 10.3 1 1.3 1.2 3.4.7 6.7-.5 4.1-.3 5.1 1.5 6.7 1.1 1 1.8 2.2 1.6 2.7-.3.4-4.6.8-9.7.8l-9.1.1-4.3-4.4c-3-2.9-4.4-5.2-4.4-7 0-3.8 1.3-3.2 3.5 1.6 1.4 3 2.7 4.4 4.4 4.6 2.1.3 2.3.1 1.7-2-1.8-6.4-1.8-7.8.3-11.1 2.1-3.4 1.5-5.7-1.6-5.7-1.6 0-1.7-2.7-.2-8.5.9-3.4 1.9-4.8 4.1-6l3.1-1.5-.8 5.3c-1.1 7.6-1.1 8.6 0 8.7.6.1 1.5-2.5 2.2-5.7 4.2-21.5 5.2-27.4 5.2-31.8 0-2.8.8-7.3 1.9-10.2 2.2-5.7 1.6-7.3-2.7-7.4-2.3 0-2.1-.2 1.2-1.6 4.5-1.8 4.4-3.6-.3-4.3-3.4-.5-5.5-3-2.6-3 .9 0 1.6-.5 1.6-1 0-1-1.4-1.4-3.8-1.1-2 .3-2.4-2.5-.8-5.8.9-1.6 1.5-3.8 1.4-4.8-.4-4.8.2-6.1 3.3-6.7 1.9-.3 2.8-1 2.3-1.7-.3-.6-1.7-.9-3-.6-1.6.3-2.4 0-2.4-.9s1.1-1.4 3.1-1.4c3.8 0 3.5-2.4-.4-2.8-1.5-.2-2.7-.7-2.7-1.2 0-1.3 3.5-3 6-3 1.3 0 2-.5 1.7-1.3-.2-.6-1.3-1.2-2.5-1.2-3.3-.1-3.1-1.9.2-2.5 3.7-.6 4.2-2.1 1.6-4.5s-2.5-3.2.5-3.9c3.7-.9 3.2-3-.6-2.2-2.5.5-3 .3-2.7-1.2.2-1.2 1.5-1.8 4.1-2 4.6-.4 4.8-1.9.5-3-4.9-1.2-4.3-3.7.9-3.7 5.4 0 5.8-1.7.7-3.1-5.2-1.4-5.1-3.8.1-4.2 5.9-.5 6.2-1.7 1-3.2-6.3-1.8-5.8-4.3 1-5 4.9-.6 5-.6 2.2-1.8-1.6-.7-3.4-1.2-4.1-1.2-2 0-2.6-1.1-1.6-3 .7-1.3 2.1-1.7 6-1.6 2.7.1 5-.2 5-.6 0-1.4-5-2.8-7.6-2.2-2.6.7-3.4-1-.8-2 .9-.3 3.6-.6 6-.6 4.4 0 5.8-1.2 2.8-2.4-.9-.3-2.7-.6-4.1-.6-1.5 0-2.3-.5-2-1.3.2-.8 2.9-1.2 8.3-1.3 10.4-.2 10.6-.2 9.9-1.5-.4-.6-.2-3 .5-5.5.9-3.2 1.8-4.4 3.1-4.4 2.5 0 2.4-1.6-.1-2.3-5.2-1.4.4-6.8 8.9-8.6 2.6-.5 5.7-1.4 7.1-2 3.7-1.4 4.9-1.3 7.1.8zm8.7 1.7c-2.4 2.4-4.4.7-2.2-1.7 1.2-1.3 2.1-1.6 2.8-.9.7.7.5 1.5-.6 2.6zm201-2.4c-.3.7-1.7 6.1-3.3 12-2.6 10.3-2.7 10.9-1.1 13.3 1.7 2.6 4.2 4.2 5.2 3.3.6-.6 3-10.6 3.9-16.2.8-4.9 1.7-4 1.9 2 .1 3.2.6 5 1.8 5.8 2.4 1.5 3.2.2 3.8-6.2.4-4.2.9-5.7 2-5.7 1.2 0 1.6 1.6 1.8 7.2.2 5.8-.1 8-1.9 11.5-4.5 8.8-7.8 21.5-8.3 32.3-.5 10.6-.8 12.1-1.5 9.5-.4-1.5-1.6-2.7-3.1-3-2.4-.6-2.5-1-2.6-8.3-.2-8.2-1.2-10.4-4.7-10.9-1.7-.2-2.3-1.2-2.7-3.8-.5-3.5-1.5-4-5.2-2.5-2.7 1.1-2.2-1.2.7-3.7 1.9-1.6 2.5-3.1 2.5-6.1 0-2.1.8-6.7 1.7-10.2 1.6-6.1 1.6-6.3-.5-9-2.7-3.4-2.7-4.4.1-7.5 3-3.4 10.4-6.3 9.5-3.8zm-332.5 6c-1.7 3-6.3 5.2-6.3 3 0-.8 6.8-6.2 7.8-6.2.2 0-.5 1.5-1.5 3.2zm47.5 4.5c-.6.7-2 1.3-3.1 1.3-1.9 0-1.9-.1.4-2.3 2.4-2.3 4.8-1.4 2.7 1zm-70.3-1.7c-.3.5-1.4 1-2.3 1-1.5 0-1.5-.2-.2-1 2-1.3 3.3-1.3 2.5 0zm8.5.5c-.7.8-1.9 1.5-2.7 1.5-1.3 0-1.3-.3-.3-1.5.7-.8 1.9-1.5 2.7-1.5 1.3 0 1.3.3.3 1.5zm52.5 9.3c-.4.5-19 4.1-19.3 3.7-.8-.7 8.6-5.5 10.9-5.5 1.3 0 3.1-.4 3.9-1 1-.6 2-.4 3.1.8.9.9 1.5 1.8 1.4 2zm277.8-1.6c.2.7.2 4.8-.1 9.1-.3 5.9-.9 8-2.2 8.7-.9.5-2.4 3.7-3.4 7.4-1.6 5.7-2.1 6.6-4.6 7.1-1.5.3-3.8 1.7-5.1 3.1-2.4 2.5-2.4 2.6-.5 4 2.3 1.6 4.2 1.8 5.1.4.9-1.5 4.5-1.2 4.5.4 0 .7-.6 1.9-1.4 2.5-.8.7-1.8 2.7-2.1 4.4-.4 1.8-1.9 4.2-3.4 5.4-2.3 1.9-2.6 2.8-2.7 9-.1 3.7-.7 9.9-1.4 13.8-.7 3.8-1.3 8.8-1.4 11-.1 3.4.3 4.1 2.7 5.3 3.1 1.5 3.2 2.1 1.5 9.1-.7 3.2-1.9 5.6-3.3 6.5-1.2.8-2.8 2.8-3.5 4.6-1.3 3.1-1.3 3.1-2.4.8-.8-1.7-2.2-2.4-4.8-2.6-2.6-.2-3.9-.9-4.3-2.3-1-3-5.8-2.5-9.4 1.2-3.7 3.6-4 7.2-.9 9.3 2.5 1.8 8.4 2.1 9.3.6.3-.6 1.3-1 2.1-1 2.6 0 .7 1.6-5.8 4.8-5.1 2.5-7.1 3-10.5 2.5-2.8-.4-5.6 0-8.3 1.1-2.2.9-4.4 1.6-4.9 1.6s1.3-5 4.1-11.1c2.7-6.1 4.8-11.7 4.6-12.5-.6-2.7-2.3-1.8-5.2 2.6-3.3 4.9-4.3 4.2-2.6-2 1.2-4.6 5.1-7.3 7.2-5.2 3.4 3.4 6.9-1.6 4.8-6.8-1-2.4-1-3.3 0-4.6 1.8-2.1 6.2-1.4 6.6 1 .4 3.2 2.2 4.2 4 2.4 1.2-1.2 1.6-3.5 1.6-8.4 0-5.6.2-6.6 1.2-5.1 2.7 4.4 3.4 5 5 4.4 1.4-.6 1.6-1.5 1-5.4-.9-6.4-1-6.5-5.2-5.7-5.2.9-7.2 2.2-7.2 4.4 0 2.8-1.6 3.3-5.5 1.9-2.6-1-4.5-1-7.5-.3-2.3.7-4.3.7-4.8.2-1.5-1.5-11.9-1.5-13.4 0-1 1-1 1.6.1 3.3 2 3.2 0 4.1-4.2 1.9-2-1.1-4.3-2-4.9-2-2 0-9.8 8.6-9.8 10.7 0 2.5 1.9 4.3 4.5 4.3 1.6 0 2.1.6 2 2.7 0 2.3.5 2.9 2.9 3.1 2.8.3 2.8.5 2.3 5-.3 2.6-1.5 6.7-2.6 9.2-1.1 2.5-2.1 5.3-2.1 6.3 0 1.2-.6 1.7-1.7 1.5-1-.2-1.7-1-1.5-1.8.2-.7-.3-1.7-1-2.2-1-.6-1-1 .2-1.7 1.2-.9 1.2-1.4-.2-4.5-.9-1.9-2.6-3.7-3.8-4.1l-2.1-.7 2.1-3.2c3.4-5.6 2.2-10.6-2.5-10.6-1.2 0-4 1.6-6.2 3.5-2.3 1.9-4.4 3.5-4.8 3.5-.4 0-1.8.9-3.1 1.9-2.2 1.7-6.4 1.9-6.4.2 0-.3 2.3-2.6 5.1-5s5.8-6 6.6-7.9c.8-1.9 2.5-5.1 3.8-7.1 1.2-2 2.6-5.8 3-8.6.4-2.7 1.3-6.2 2.1-7.8 1.3-2.4 1.3-2.8-.1-3.3-2.3-.9-1.8-3.6 1.4-7.2 3.2-3.4 3.3-3.4 12.6-3.6 4.1-.1 7.4-.9 10.4-2.4 3.9-2.1 4.5-2.1 6-.7 2.4 2 4 1.9 6.7-.6l2.3-2.2 1.2 2.6c1 2.2.8 3-1.6 6.1-3.1 4-5.7 4.5-9.4 1.7-1.9-1.5-3.7-1.7-10-1.4-9.8.6-10.7.8-9 2.9 1.1 1.3 2.6 1.5 9.2.9l8-.7-.7 2.6c-.8 3.1 1.1 3.4 6.7 1.1 2-.8 3.9-1.5 4.2-1.5.3 0 .5.7.5 1.5 0 1.9 2 1.9 4.8-.1 2.6-1.8 2.8-3.1.7-3.6-1.2-.2-1-1 1-3.9 1.5-2 3.7-4.2 5.1-4.9 3.3-1.8 3.2-4.4-.2-3.7l-2.5.4 2.3-2.6c3.3-3.7 3.9-4.1 7.5-4.1 4.1 0 5.1-1.7 1.9-3.1-1.8-.8-3.3-.9-5.5-.1-1.7.6-3.3.7-3.6.2-.3-.5 1.4-1.5 3.7-2.1 4.2-1.2 7.2-2.9 5.3-2.9-10.4-.5-12.2-.4-11.8.7.3.7-.7 1.5-2.1 1.9-1.4.3-4.2 2.8-6.2 5.5-2.1 2.6-4.4 5.1-5.2 5.4-2.5 1 12.6-15.8 17.9-19.8 3.9-2.9 7-2.7 9.8.7.7.9 1.7 1.6 2.1 1.6 2 0 8.8-8.1 10.4-12.4 2.5-6.5 9.2-14.6 13.6-16.1 4.7-1.7 6.7-1.7 7.3-.3zm1.1 30c-.6 6.3-2.4 8.9-2.4 3.6 0-3.6 1.5-8.8 2.5-8.8.2 0 .2 2.4-.1 5.2zm8.5 5.1c.7 1 .8 3.1.1 7.3-1.3 7.9-1.3 17.1.1 18 .6.3.8 1.6.4 2.8-.3 1.1-1.2 4.6-2 7.6-.7 3-1.8 7.3-2.4 9.5-.6 2.2-.8 6.6-.5 9.7.5 6-.8 10.1-4.8 14.5-4.8 5.2 1.6 8.5 7.6 4 1.8-1.4 4.9-2.7 7.2-2.8 2.1-.2 4.3-.9 4.7-1.4 1.2-1.5-.4 4.7-1.9 7.5-.7 1.4-2.1 4.1-3 6-.9 1.9-2.8 5.1-4.2 7-1.5 1.9-2.7 4.6-2.7 6 0 2.5 0 2.5-9.5 2.5-7.9 0-10.3-.4-14.3-2.4-4-1.9-5.9-2.3-10.4-1.8-6.2.7-7.9 1.7-9.8 6.4-1.6 3.7-2.1 3.8-11 2.3-4.1-.7-8.5-.7-13.8.1-7.2.9-8 .9-9.3-.8-1.2-1.7-1.3-1.7-1.4-.1 0 1.9-1.5 2.4-2.4.9-.6-.8 3-2.8 9.9-5.4 6.6-2.6 10.7-3.5 18-4.2 4.1-.4 8.8-1.6 11.5-3 2.5-1.2 8.2-4.1 12.8-6.4 6.1-3 8.2-4.6 8.2-6 0-3.4 4-12.5 6.5-14.6 1.6-1.4 2.5-3.5 2.9-7.2.6-4.5.4-5.3-1.3-6.3-1.7-.9-1.9-1.4-1-3.8.6-1.5 1.6-3.4 2.3-4.2 1.5-1.6 4-16.6 3-18.1-.3-.5-1.2-.9-2.1-.9-1.2 0-1.4-.7-.9-3.2.8-4.1 2.9-5.5 3.6-2.5.3 1.2 1.2 2.2 2 2.2 2.4 0 4-4.7 4-12.1 0-8.3 1.1-10.4 3.9-7.1zM460 675c1 .6 1.1 1 .3 1s-1.3 1.4-1.3 3.4c0 4.5-1.6 5.5-2.4 1.5-1.3-6.6-.3-8.3 3.4-5.9zm25.9 14.2c-1.2 8.7-2.4 12.2-3.9 11.3-.8-.5.5-7 1.9-9 .4-.6.6-2.4.5-4-.2-2.8 1.5-8 2.3-7.1.3.2-.1 4.2-.8 8.8zm-203.7-.1c1.6.9 1.5 1.4-1.6 5.7-1.8 2.6-5.4 9.3-8.1 15-4.4 9.6-4.7 10.8-4.3 16.8.2 3.5.2 6.4-.1 6.4-.2 0-1.2-.7-2.2-1.6-2.3-2-4.6-1.2-5.1 1.7-.6 4.2-2.8 3.4-2.8-1 0-2.7-.4-4.1-1.3-4.1-2.5 0-3.7 2.4-3.7 7.2 0 2.9-.4 4.8-1.1 4.8-.8 0-1-2.5-.7-8.1l.5-8-2.4.6c-2.3.5-2.4.4-1.8-2.6.7-3 .6-3.1-1.9-2.5-3.3.8-3.3-.4-.5-8.1 3.1-8.3 7.3-13.9 13.4-17.9 8.6-5.7 17.9-7.4 23.7-4.3zm175.8.8c0 1-.7 2.1-1.5 2.5-1.5.5-2.2-2.4-.8-3.7 1.2-1.3 2.3-.7 2.3 1.2zm-98.5 4.3c-1.5 4.9-10.1 21.2-11.7 22.2-1.4.9-2.1.6-3.3-1.2-2-2.8-5.8-2.9-11-.2-2.2 1.1-4.8 2-5.8 2-1.4 0-1.7.4-1.2 1.7 2 4.9 1.9 5.6-.5 5-1.3-.3-3-.1-3.7.5-.8.6-1.3.7-1.3.1s-1.2-2.3-2.6-3.9c-1.7-1.8-2.2-3-1.5-3.2.7-.2 1.6-1.4 2-2.6.5-1.2 2.5-2.7 4.6-3.4 3.2-1.2 3.9-1.2 5.6.4 1.9 1.7 2 1.7 3.4-.3.9-1.3 2.2-1.9 3.4-1.6 2.4.6 9.7-3.1 11.1-5.6.5-1.1 1-3.1 1-4.4 0-2.6 1.7-4.5 5.9-6.4 4.4-2 6.3-1.6 5.6.9zm-260 5.9c6.2 3.5 8.1 5.5 4.4 4.6-8.3-2.1-15.9-4.4-16.5-4.9-.3-.4-.3-1.1.1-1.7 1.2-2 6.5-1.1 12 2zm243.5-.6c0 .9-1.1 2.7-2.5 4-4.6 4.7-6.4 2.1-1.8-2.7 3-3.2 4.3-3.5 4.3-1.3zm-205.3 9.1c3.2.9 5.2 2 5 2.7-.2.7-1.3 1-2.3.9-1-.2-3.7-.3-6-.3-2.6.1-4.6-.4-5.4-1.4-.7-.8-1.6-1.2-2.2-.9-.5.3-1.6.3-2.6-.1-1.4-.5-1.4-.7-.2-1.5 2.2-1.4 7.5-1.2 13.7.6zm28.6 4.5c3.1.7 5.7 1.6 5.7 2 0 1.2-.7 1.1-4.6-.3-2.3-.8-4-.9-5.6-.1-2.8 1.2-4.8.7-4.8-1.3 0-1.7 1.9-1.8 9.3-.3zm222.7.7c1.9.9 4.4 3.2 5.5 4.9 1.1 1.8 3 3.6 4.3 3.9 3 .8 2.8 2.6-1.1 8.2-1.8 2.6-3.9 6.3-4.7 8.2-2.7 7-7 9.5-7 4 0-1.6.6-4.7 1.4-6.7 2.6-6.8 4.9-16.2 4.3-17.8-.4-.8-1.4-1.5-2.3-1.5-2 0-6.6-3.5-5.7-4.4.9-.8 1.3-.7 5.3 1.2zm-199 2.7c1 1.3.9 1.5-.9 1.5-1.2 0-2.1-.6-2.1-1.5 0-.8.4-1.5.9-1.5s1.4.7 2.1 1.5zm9 2.5c0 .5-.2 1-.4 1s-1.2.3-2 .6c-1.2.5-1.5.2-1-1 .7-1.7 3.4-2.2 3.4-.6zm-101.2 5.7c.6 7.5 4.1 7.8 8.4.8l1.8-3v3c.1 6.6 4.4 7.4 5.6 1 .8-4.3 2-5.2 4.3-3.1 1 .9 2.3 1.6 2.9 1.6.7 0 1.2.8 1.2 1.8s.5 2.3 1.2 3c2.4 2.4-.9 3.3-12.3 3.4-16.1.1-38.8-1.3-39.5-2.4-1.3-2 1.8-3.2 8.8-3.3 5.2-.2 7.8.2 9 1.3 3 2.5 5.1.7 4.5-3.8-.3-2.4-.1-4.1.7-4.4 2.2-.9 3.1.1 3.4 4.1zm107.2-3.6c0 .5.5.7 1 .4.6-.3 1-.1 1 .4 0 1.3-.3 1.3-2.4.5-1.8-.7-2.2-2.4-.6-2.4.6 0 1 .5 1 1.1zm4.4.4c.3.8.1 1.5-.4 1.5-.6 0-1-.7-1-1.5s.2-1.5.4-1.5.6.7 1 1.5zm-124.8 1.3c-.2.4-1.9.9-3.6 1-1.9.2-2.9-.1-2.5-.8.3-.5 2-1 3.6-1 1.7 0 2.8.4 2.5.8zM53 724c1.2.8.9 1-1.3 1-1.6 0-2.6-.4-2.2-1 .8-1.2 1.6-1.2 3.5 0zm10.8 2.6c1.2 2 1.9 4 1.6 4.6-.8 1.2-11.5.5-15.4-1.1-2.4-.9-2.3-1 1.1-1 1.9-.1 4 .4 4.7 1.1 1.7 1.7 4.2-.8 4.2-4.3 0-3.8 1-3.6 3.8.7zm93.6-.4c-.4 1.5.1 2.7 2.2 4.4 2.2 1.7 2.6 2.5 1.8 3.4-.9.9-1.7.9-3.3.1-1.7-1-2.1-2.1-2.1-6.2 0-3.2.4-4.8 1-4.4.6.4.8 1.6.4 2.7zm-25.6 2.4c-.2 1.9-1 3-2.1 3.2-1.7.3-1.8-.1-1.2-3 .4-1.8 1-3.7 1.2-4.1 1-1.7 2.5 1.1 2.1 3.9zm10.6-1.4c2.6 3.7 2 5-2.1 4.6-4.3-.3-5.8-3.3-2.7-5.5 2.4-1.8 3-1.7 4.8.9zm216.6.8c0 .5-.5 1-1.1 1-.5 0-.7-.5-.4-1 .3-.6.8-1 1.1-1 .2 0 .4.4.4 1zm-4 1.5c0 .9-.6 1.2-1.5.9-.8-.4-1.5-1-1.5-1.5s.7-.9 1.5-.9 1.5.7 1.5 1.5zm-205.3 1.7c-.3.8-.6.5-.6-.6-.1-1.1.2-1.7.5-1.3.3.3.4 1.2.1 1.9zm153.5 0c-.7.7-1.2.8-1.2.2 0-1.4 1.2-2.6 1.9-1.9.2.3-.1 1.1-.7 1.7zM362 730c0 .5-.2 1-.4 1-.3 0-.8-.5-1.1-1-.3-.6-.1-1 .4-1 .6 0 1.1.4 1.1 1zm-190.5 3.4c.2 1.1.6 3.2.7 4.6.2 1.7.9 2.5 2.3 2.6 1.1.1 2.8.5 3.8.9 2.6 1.1 4.7-.2 4.7-2.9 0-3.8 5.1-7 9.8-6.2 2 .3 5.3.7 7.3.9 2.1.1 4.6 1 5.7 2 1.8 1.6 1.8 2.2.7 6l-1.2 4.2-25.8.3c-16.4.3-26.1 0-26.7-.6-.7-.7.1-1.3 2.4-2 1.9-.5 5.3-2.1 7.6-3.6 3.3-2.1 4.2-3.2 4.2-5.4 0-1.6.3-3.1.6-3.5 1.1-1.1 3.4.5 3.9 2.7zm125.8 2.7c-2.2 3.9-9.8 8.9-13.5 8.9-1.5 0-3 .5-3.3 1.1-.5.7-1.3.5-2.4-.5-1-.9-2.2-1.2-2.9-.7-.7.4-3.4.6-6 .4-3.3-.3-5.8.1-8.2 1.4-3.9 2-8.5 1.6-8.5-.7 0-1.5 8.8-6.9 14.3-8.8 2.6-.9 3.5-.8 5.6.9 4.7 3.7 18.3 1.6 22.6-3.5.7-.9 1.9-1.6 2.7-1.6 1.1 0 1.1.6-.4 3.1zm52.5 1c-1.1 3.2-3.1 3.4-3.6.5-.4-1.8 2.7-4.8 4-4 .4.2.2 1.8-.4 3.5zM73 735.5c6.9.3 27.7.8 46.3 1 18.6.2 34.2.7 34.8 1 1.9 1.2-.2 2.4-5.7 3.1-3 .3-6.1 1.3-6.9 2.1-1.7 1.6-1 3.8 1.3 4.9.9.4 14.8 1 30.9 1.3 16 .3 29.5.9 29.9 1.4.4.4.3 2.7-.2 5.2l-.9 4.6-16.5.5c-9.1.2-24.1.8-33.3 1.2-29.4 1.2-47.7-.6-47.7-4.8 0-.5 2.1-1.8 4.7-3 5.8-2.5 8.3-4.7 8.3-7.2 0-3.3-4.6-4-27-4.3-14.5-.2-24.1-.9-29.5-1.9-4.4-.9-9.4-1.6-11.2-1.6-4.5 0-6.3-.9-6.3-3.2 0-1.9.5-2 8.3-1.4 4.5.3 13.8.8 20.7 1.1zm169.9 8c.8.3 2-.1 2.7-.9.6-.9 1.6-1.6 2.3-1.6 2.2 0 1.1 1.6-2.5 3.5-4.1 2.2-6.9 1.2-6.7-2.3.1-3.6.4-3.8 1.5-1.5.6 1.2 1.8 2.5 2.7 2.8zm156.1-1.1c0 1.5-4.9 7.1-5.6 6.3-.6-.6 3.8-7.6 4.9-7.7.4 0 .7.6.7 1.4zm-88.3 2.2c-.3.3-1.2.4-1.9.1-.8-.3-.5-.6.6-.6 1.1-.1 1.7.2 1.3.5zm38.1 4c-1 1-2.8-.6-2.8-2.4 0-1.5.1-1.5 1.7.1.9.9 1.4 1.9 1.1 2.3zm-25.7 2c1.1 3.1 2.5 3.7 5.1 2.3 1.3-.7 3.6-1.2 5.1-1 1.6.1 3.6-.4 4.6-1.3 1.5-1.4 2.1-1.3 6.6.9 2.6 1.4 5.6 2.5 6.6 2.5s2.1.4 2.4 1c.4.6-.9 1-3.2 1-2.2 0-4.4.5-5 1.1-.8.8-3.1.8-8.4 0-4.1-.6-11.2-1.6-15.9-2.2-4.6-.6-9.2-1.5-10.1-2-1.1-.5-2.7-.5-4.3.1-3.7 1.4-11.7-1.5-10.3-3.7.3-.5 6.3-.9 13.3-.9 12 .1 12.7.2 13.5 2.2zm62.6 1.9c-1.5 3-2.8 3.6-6.7 2.8-5.2-1-3.4-3.3 3.5-4.4 2.2-.4 4.1-.7 4.2-.8 0 0-.4 1-1 2.4zM257 753c11.5 1.1 38 3.1 47.5 3.6 12.3.6 20.2 1.5 26.5 3 3.6.9 9.9 1.6 14 1.6 4.1.1 8.4.7 9.5 1.4 1.1.6 5.7 2 10.3 2.9 4.5 1 8.2 2.2 8.2 2.8 0 .5-.7.6-1.6.3-.9-.3-10.2-1.1-20.7-1.6-10.6-.6-23.2-1.5-28.2-2.1-56.9-6.6-78.3-8.4-80.1-6.6-1.4 1.4 1.9 2.7 7.1 2.7 2.8 0 13.1.9 23 2 20.5 2.3 58.1 5.9 70 6.7 4.8.3 8.3 1.1 8.7 1.8.4.7 3.6 1.5 7 1.9 17.1 1.8 31.2 5.5 32.3 8.4.9 2.3-3 5.2-6.9 5.2-4 0-12 4-12.4 6.2-.8 4.1 6.7 7.6 20.8 9.7 4.1.7 9.3 1.6 11.5 2.2 5.9 1.5 6.7 1.5 7.2.3.7-2-7-4-22.7-6-6.2-.7-11.5-3.5-11.5-5.8 0-2.2 5-4.4 10.1-4.5 3.8-.1 8.4-3.5 8.4-6.2s-6.4-6.6-13.9-8.3c-3.4-.8-6.6-1.8-7-2.2-.8-.8 21 .5 26.4 1.6 8.8 1.9 18.7 4.8 19.7 5.8 1.2 1.2-.5 4.2-2.4 4.2-1.8 0-8.8 6.4-8.8 8 0 2.6 4.1 5.8 9.3 7.1 3.4.8 5.2 1.9 5.9 3.5.6 1.3 2 2.7 3.2 3.1 3.8 1.3-7.7 2.1-32.4 2.2-24.1.1-28.8-.4-32.4-3.8-1.2-1-5-3.1-8.6-4.6-3.6-1.5-7.2-3.3-8-4.1-1.3-1.4-1.3-1.7.3-2.8.9-.7 4-1.6 6.8-1.9 6.3-.8 9.9-3 9.9-6 0-7.2-15.9-11.4-57.5-15.2-9.3-.8-25.2-2.4-35.3-3.5-10.1-1-22.1-2-26.8-2.1-4.7-.2-8.8-.7-9.1-1.1-.2-.5.3-2 1.1-3.3 1-1.6 1.4-3.4 1-5-.6-2.4-.5-2.5 4.7-2.5 2.9 0 10.1.4 15.9 1zm-233.8 8.6c2 .7 5.8 2.9 8.2 4.8 2.5 1.9 7.1 4.2 10.1 5.1 3.1.9 6.4 2.4 7.5 3.5 2.4 2.4 4.6 10.4 5.4 19.3.6 5.7.4 6.8-1 7.4-1.9.7-13.5-2-20.7-4.8-2.9-1.2-6.3-2.6-7.7-3.1l-2.5-1 2.3-.9c1.2-.4 2.2-1.4 2.2-2.2 0-1.6-5.2-5.4-12.7-9.4-3.4-1.7-5.3-3.4-5.3-4.5 0-2.5 1-2.3 6.5 1.7 3.5 2.5 5.2 3.1 6.1 2.4.7-.6 1-1.7.7-2.5-.6-1.7-9.6-8.4-11.2-8.4-.6 0-1.1-.7-1.1-1.5 0-1.9 2.7-1.9 6 0 2.6 1.5 9 2 9 .7-.1-.9-5.6-4.4-9.7-6.1-7.5-3.1-.2-3.6 7.9-.5zm233.8 6.9c8.8.5 30.6 2.3 41 3.4 4.7.5 15.5 1.6 24 2.5 14.2 1.5 19 2.4 30.5 5.9 4.8 1.4 6.3 5.3 2.3 6.1-9.3 1.9-12.9 2.9-14.4 4-1.6 1.2-1.6 1.7-.4 4.5 1.4 3.4 6.1 6.4 14 9.1 2.5.8 4.5 1.9 4.5 2.5 0 .6-4.3 1.1-10.3 1.3-10.1.3-10.2.2-11.2-2.3-1.3-3.4-5-3.5-5-.1v2.5h-25.9c-22 .1-26-.1-27.1-1.4-.9-1-1.6-1.2-2.5-.5-.6.5-8.2 1-16.8 1.1-15.2.1-15.7 0-18.5-2.3-2.5-2.1-2.7-2.7-1.8-4.8.6-1.4 1.6-2.9 2.3-3.3.7-.4 1.3-1.5 1.3-2.2 0-1.9-2.9-1.9-3.6 0-.3.8-1.5 1.7-2.6 2.1-1.6.5-1.9 1.2-1.5 3.4 1.1 5.4-3.4 6.6-8.4 2.2-2.9-2.6-3.1-3.3-3.4-10.7-.4-7.7 2.2-21.2 4.5-24 .6-.7 4.4-.8 11.7-.2 5.9.4 13.7 1 17.3 1.2zm120.3.2c-.7.2-1.9.2-2.5 0-.7-.3-.2-.5 1.2-.5s1.9.2 1.3.5zM430 773c16.4 2.7 22.4 6.3 15 8.9-1.6.5-3 1.5-3 2 0 1.9 7.4 6 13 7.1 20.1 4.1 33.9 8.7 37.1 12.6 2 2.5 0 3.2-11.4 3.9l-10.7.7.2-2.3c.2-1.7-.5-2.7-2.4-3.6-4.3-2.2-17.2-4.3-26.1-4.4-8.8 0-24.8-3.5-25.4-5.5-.2-.7 1.9-2.6 4.7-4.3 4.6-2.9 5.1-3.5 4.8-6.4-.4-4.3-5.9-7.3-16.1-8.8-10.3-1.5-9-3.3 1.7-2.4 4.4.4 12.8 1.5 18.6 2.5zm19 30.1c8.9 1.2 15 2.9 15 4.1 0 1.1-32.2-.1-33.4-1.3-1.8-1.6 1.3-3.4 6.1-3.6 2.6-.1 8.2.3 12.3.8z"/><path d="M196 119.5c0 .9.5 1.5 1.1 1.3.6-.2 1.1-.8 1.1-1.3s-.5-1.1-1.1-1.3c-.6-.2-1.1.4-1.1 1.3zM176 137.5c0 .8.7 1.5 1.5 1.5s1.5-.7 1.5-1.5-.7-1.5-1.5-1.5-1.5.7-1.5 1.5zM138 165.6c0 .9.5 1.4 1.2 1.2 1.8-.6 2.1-2.8.4-2.8-.9 0-1.6.7-1.6 1.6zM131.1 169.4c-.9 1-.8 1.6.4 2.6 1.9 1.6 4.1-.1 3.2-2.4-.8-2-2.1-2-3.6-.2zM163 173.5c0 .9.5 1.5 1.1 1.3.6-.2 1.1-.8 1.1-1.3s-.5-1.1-1.1-1.3c-.6-.2-1.1.4-1.1 1.3zM331.5 172.9c-.3.5-.1 1.2.5 1.6.5.3 1-.1 1-.9 0-1.8-.6-2.1-1.5-.7zM180.7 243.4c-3.1 1.3-6 2-6.3 1.5-.9-1.5-3.4-1-3.4.6 0 .8.7 1.5 1.5 1.5s1.5.9 1.5 2c0 2.6 2.6 2.6 4 0 1.5-2.9 6.5-5.1 11.8-5.3 2.6-.1 4.7-.7 5-1.5.7-2.1-7.8-1.4-14.1 1.2zM213 318.4c0 1.7 2.7 2.9 3.5 1.6.4-.6.3-1.5 0-2-.9-1.5-3.5-1.2-3.5.4zM210 321.3c0 .8.9 2.2 2 3.2 1.6 1.5 2.3 1.6 3.3.6.9-1 .7-1.6-1.2-3.2-2.7-2.2-4.1-2.4-4.1-.6zM223.4 330.1c-.9 1.6.7 2.8 4.1 3.1 4.4.3 6.3-1.1 4-2.9-2.3-1.6-7.1-1.7-8.1-.2zM334.5 319.2c-1.6.5-6 .7-9.7.6-7.3-.3-10 .9-7.3 3.2 1.3 1.1 3.4 1.1 10.7.2 5-.6 9.6-1.6 10.2-2.2 1.7-1.7-.6-2.8-3.9-1.8zM106.5 387c-.3.6.1 1.3 1 1.6 1.9.8 3 0 2-1.5-.8-1.4-2.2-1.4-3-.1zM109.2 401.1c.2.7 1 1.5 1.7 1.7.8.3 1.2-.1.9-.9-.2-.7-1-1.5-1.7-1.7-.8-.3-1.2.1-.9.9zM107.5 407c-.3.5.3 1 1.5 1s1.8-.5 1.5-1c-.3-.6-1-1-1.5-1s-1.2.4-1.5 1zM108 414c0 .5 1 1 2.3 1 1.8 0 1.9-.2.7-1-1.9-1.3-3-1.3-3 0zM114 416c0 .5.5 1 1 1 .6 0 1-.5 1-1 0-.6-.4-1-1-1-.5 0-1 .4-1 1zM109.7 421.1c.7.7 1.5 1 1.8.7.3-.3-.2-.9-1.2-1.2-1.4-.6-1.5-.5-.6.5zM113.5 423c.3.5 1 1 1.6 1 .5 0 .9-.5.9-1 0-.6-.7-1-1.6-1-.8 0-1.2.4-.9 1zM439 412.5c-1.7 2-.8 5 1.5 5 1.5 0 2.1-.8 2.3-3.3.4-3.5-1.6-4.4-3.8-1.7zM418.5 423c-.3.5.1 2 .9 3.1 1.3 2 1.3 2.5-.1 5.3-.9 1.7-1.5 4.8-1.5 7.1.3 10.1.4 10.3 3 11 2.2.5 2.3.9 1.7 4.3-.4 2-1.3 4.1-2.1 4.5-1.8 1-.9 2.7 1.4 2.7 2 0 5.2-3.4 5.2-5.5 0-.8.9-1.5 2-1.5 1.3 0 2.1-.9 2.5-2.8.3-1.5 1-4.1 1.5-5.8.6-1.7 1-5.4 1-8.2 0-4.9-.2-5.3-4.2-8.2-2.3-1.7-4.8-3.9-5.5-5-1.5-2.1-4.8-2.7-5.8-1zm8.6 9.5c-.1 1.5-2.4 1.2-2.9-.3-.3-.9.2-1.3 1.2-1 1 .1 1.7.7 1.7 1.3zM416.6 464.9c-.4.5-.2 1.2.3 1.5.5.4 1.2.2 1.5-.3.4-.5.2-1.2-.3-1.5-.5-.4-1.2-.2-1.5.3zM309 583.6c0 .8.5 1.2 1 .9.6-.3 1-1 1-1.6 0-.5-.4-.9-1-.9-.5 0-1 .7-1 1.6zM317.1 583.4c-1.1 1.3-1.1 2-.3 2.8.8.8 1.3.7 1.8-.5 1-2.7 0-4.1-1.5-2.3zM326.2 583.2c-1.5 1.5-1.6 3.8-.2 3.8 1.2 0 2.3-2.5 1.8-4-.2-.7-.7-.7-1.6.2zM334 585.5c-.7.8-.9 2.3-.5 3.2.6 1.7.7 1.7 2.1-.1 2.6-3.6 1.2-6.4-1.6-3.1zM427.5 675.6c-1.1.8-2.7 1.9-3.5 2.4-.9.5-1.3 2-1.2 3.9.2 2.1-.2 3.1-1.2 3.1-.7 0-1.9.7-2.6 1.5-1 1.2-1 1.8 0 3 1.8 2.2 3.8 1.9 7.6-1.3 1.8-1.5 4.7-3.7 6.4-5 3.1-2.5 3.9-5.9 1.8-8-1.6-1.6-4.9-1.5-7.3.4zM382.2 682.7c.2 1.4 1.5 1.9 5.6 2.1 5.2.3 8.8-1.1 7.6-2.9-.3-.5-3.4-.9-7-.9-5.7 0-6.5.2-6.2 1.7zM403.4 683.4c-1.7 1.3-1.7 1.5-.2 2.1 2 .8 6.1-1.2 5.3-2.6-.9-1.3-2.8-1.1-5.1.5zM380 687.3c0 1 1.7 1.9 4.9 2.7 4.9 1.2 9.1.7 9.1-1 0-1.4-1.2-1.8-7.8-2.6-5.2-.5-6.2-.4-6.2.9zM382 693.4c0 .7 1.2 1.6 2.7 1.9 3.2.6 4.3.1 4.3-1.9 0-.9-1.1-1.4-3.5-1.4-2.3 0-3.5.5-3.5 1.4zM252.1 773.4c-1.2 1.4-.5 2.6 1.6 2.6 1.5 0 1.8-2.6.4-3.4-.5-.3-1.4 0-2 .8zM259.5 773c-.8 1.3.4 3.2 1.6 2.5 1.2-.8 1.2-3.5 0-3.5-.6 0-1.3.4-1.6 1zM244.2 778.1c.2.6.8 1 1.3 1s1.1-.4 1.3-1c.2-.6-.4-1.1-1.3-1.1s-1.5.5-1.3 1.1zM275.5 781.1c-1 1.5.3 2.5 1.6 1.2.7-.7.7-1.3.1-1.7-.6-.3-1.4-.1-1.7.5zM293.2 782.2c.6 1.8 2.8 2.1 2.8.4 0-.9-.7-1.6-1.6-1.6-.9 0-1.4.5-1.2 1.2zM259.1 783.4c-.9 1-.8 1.6.3 2.5 1 .9 1.6.8 2.5-.3.9-1 .8-1.6-.3-2.5-1-.9-1.6-.8-2.5.3zM314 783c0 .5.5 1 1 1 .6 0 1-.5 1-1 0-.6-.4-1-1-1-.5 0-1 .4-1 1zM336.5 783c-.7 1.2.2 3 1.5 3 .5 0 2.1-.5 3.7-1.1 2.2-.8 2.4-1.2 1.3-1.9-2-1.3-5.7-1.3-6.5 0zM306.1 785.4c-.9 1-.9 1.6-.1 2.1 1.7 1 3.7-1.2 2.4-2.5-.8-.8-1.5-.6-2.3.4zM249.5 786c-1 1.7 1.2 3.7 2.5 2.4.8-.8.6-1.5-.4-2.3-1-.9-1.6-.9-2.1-.1zM298.4 787.1c-1 1.7 1.3 3.6 2.7 2.2 1.2-1.2.4-3.3-1.1-3.3-.5 0-1.2.5-1.6 1.1zM237.6 788.7c-1.1 1.1-.6 2.3.9 2.3.8 0 1.5-.4 1.5-.9 0-1.3-1.6-2.2-2.4-1.4zM262.6 789.9c-.3.5 0 1.4.8 2 1 .8 1.6.8 2.5-.2.6-.8.8-1.7.4-2-.9-1-3.1-.9-3.7.2zM326.5 791c-.8 1.4.3 3 2.1 3 .8 0 1.4.6 1.4 1.4 0 2.2 1.9 3 3.6 1.6 1.1-1 1.2-1.6.3-2.7-.7-.7-1.4-1.1-1.7-.8-.3.3-1.1-.4-1.9-1.5-1.6-2.2-2.8-2.5-3.8-1zM290.6 792.9c-.9 1.5 2.3 3.6 3.6 2.3.5-.5.7-1.5.4-2.1-.9-1.3-3.3-1.4-4-.2zM307 793.5c0 .8.4 1.5.9 1.5s1.4-.7 2.1-1.5c1-1.3.9-1.5-.9-1.5-1.2 0-2.1.6-2.1 1.5zM247.1 793.9c-1.7 1.1-.7 4.1 1.3 4.1 2.2 0 3-2 1.5-3.6-.9-.8-1.9-1-2.8-.5zM315.6 793.7c-1.1 1.1-.6 2.3.9 2.3.8 0 1.5-.4 1.5-.9 0-1.3-1.6-2.2-2.4-1.4zM279.5 795c-.4.7-.3 1.6.3 2.2 1.4 1.4 4.5.2 4-1.5-.6-1.6-3.4-2.1-4.3-.7zM301.1 794.9c-.8.5-1 1.4-.7 2 .9 1.3 3.3 1.5 4 .2.9-1.4-1.8-3.1-3.3-2.2zM321.5 798.9c-.8 1.5.3 3.1 2.1 3.1.9 0 1.4-.7 1.2-1.7-.4-2-2.4-2.8-3.3-1.4zM251.3 801.2c.2.7 1 1.3 1.7 1.3s1.5-.6 1.8-1.3c.2-.7-.5-1.2-1.8-1.2s-2 .5-1.7 1.2zM259.4 801.1c-1 1.7 1.3 3.6 2.7 2.2 1.2-1.2.4-3.3-1.1-3.3-.5 0-1.2.5-1.6 1.1zM267.6 800.9c-.3.5 0 1.4.8 2 1 .8 1.6.8 2.5-.2.6-.8.8-1.7.4-2-.9-1-3.1-.9-3.7.2zM291 802.4c0 .9.7 1.6 1.6 1.6 1.7 0 1.4-2.2-.4-2.8-.7-.2-1.2.3-1.2 1.2zM310.8 802.7c-2 .5-2.4 1.9-.6 2.5 2.1.7 6.9-.4 6.5-1.6-.4-1.2-3.2-1.7-5.9-.9zM340 803.4c0 1 .9 1.6 2.1 1.6 2.4 0 2.1-2.3-.4-2.8-1-.2-1.7.3-1.7 1.2zM340.4 200.1c-1.2 2 1.3 3 6.7 2.7 4.2-.2 5.5-.7 5.7-2.1.3-1.5-.5-1.7-5.7-1.7-3.3 0-6.3.5-6.7 1.1zM67.4 575.1c-.3.6-.1 1.6.4 2.1 1.3 1.3 4.5-.8 3.6-2.3-.7-1.2-3.1-1.1-4 .2zM56 578.5c-1 1.3-1 1.9.5 3.5 2.2 2.4 5.3 2.6 6.2.5.6-1.7-2.3-5.5-4.2-5.5-.7 0-1.8.7-2.5 1.5zM46 584.5c-1.1 1.3-.8 2.1 1.5 4.5 3.4 3.6 4.1 3.7 5.6.8 1-1.9.8-2.5-1.5-4.5-3.2-2.7-3.9-2.8-5.6-.8zM37 587c-1.8 1.2-.7 3.4 3.3 6.4 2.6 1.9 2.8 1.9 4.5.2 1.6-1.6 1.5-1.9-1.6-4.7-3.5-3.2-4-3.3-6.2-1.9zM35 596.5c-1 1.2-.9 1.6.5 2.1 1.9.8 4-.9 3.1-2.5-1-1.5-2.1-1.4-3.6.4zM6.3 615.6c-.7 1.8 1.1 3.9 2.6 3 1.7-1.1 1.3-4.6-.4-4.6-.9 0-1.8.7-2.2 1.6zM60.5 750.9c-.7 1.2 1.2 2.4 2.5 1.6 1.1-.7.4-2.5-1-2.5-.5 0-1.1.4-1.5.9zM54.7 752.6c-1.3 1.3-.7 2.4 1.4 2.4 1.1 0 1.9-.5 1.7-1.2-.5-1.4-2.2-2.1-3.1-1.2zM481.3 756.1c-2.4 1.1-4.4 2.5-4.4 3.2-.1.7-.2 2.3-.3 3.7-.1 2.1-.7 2.6-3.6 3-4.7.7-5.3 3.7-1.1 5.3 3.9 1.4 3.9 2.2 0 3.6-4.1 1.4-3.5 4.2 1.1 5.5l3.5 1-4 .5c-3.2.5-4.1 1.1-4.3 2.8-.4 2.7 1 3 2.8.7 1.9-2.2 6.5-1.4 6.6 1.1.1 1.1.2 2.6.3 3.2.2 2.4 3.2 1.3 4.2-1.6 1-2.7 1.2-2.8 6.6-2.5 5.8.3 11.3-1.6 11.3-3.9 0-2.2-2.3-3.7-5.7-3.7-2.7 0-3.3-.4-3.1-1.8.2-1.3-.6-1.8-4.2-2.2l-4.5-.5 3.4-.8c1.8-.4 4.9-.7 6.7-.7 1.9 0 3.4-.4 3.4-.9 0-1.3-2.9-2.2-5.4-1.5-1.7.4-2.5-.1-3.4-2-.7-1.6-2-2.6-3.2-2.6-1.2 0-1.9-.4-1.6-.9.3-.4 1.6-.6 3-.4 2.8.6 6.6-1.2 6.6-3 0-1.3-5.1-6.8-6.1-6.6-.2 0-2.3.9-4.6 2zm4.7 3.9c0 .5-.7 1-1.5 1s-1.5-.5-1.5-1c0-.6.7-1 1.5-1s1.5.4 1.5 1zm-1.8 9.2c-1.2 1.2-3.5.1-2.7-1.2.3-.5 1.3-.6 2.1-.3 1 .4 1.2.9.6 1.5zm1.8 7.8c0 .5-.7 1-1.5 1s-1.5-.5-1.5-1c0-.6.7-1 1.5-1s1.5.4 1.5 1zm8.6 4.1c1.1 1.9-1.8 2.8-6.6 2.2-5.2-.7-5.4-.8-4.5-2.2.8-1.4 10.2-1.4 11.1 0zM2.4 756.4c-.8 2.2.3 3.3 1.8 1.8.9-.9.9-1.5 0-2.4-.9-.9-1.3-.7-1.8.6zM60.5 767c-.7 1.2.2 3 1.6 3 1.2 0 1.2-2.7 0-3.5-.5-.3-1.2-.1-1.6.5zM94.7 770.6c-1.4 1.4-.7 3.5 1.1 3.2.9-.2 1.7-1 1.7-1.7 0-1.6-1.8-2.5-2.8-1.5zM183.5 772c.3.5 1 1 1.6 1 .5 0 .9-.5.9-1 0-.6-.7-1-1.6-1-.8 0-1.2.4-.9 1zM69.3 773.6c-.3.8.1 2.2.9 3 1.3 1.3 1.6 1.3 2.7 0 .7-.9 1.1-2.3.7-3.1-.7-2-3.5-1.9-4.3.1zM174.2 773.2c.5 1.5 2.8 1.8 2.9.3 0-.6-.7-1.2-1.7-1.3-1-.3-1.5.1-1.2 1zM78.8 775.1c-2.1 1.2-2.4 3.9-.4 3.9.7 0 1.9-.7 2.6-1.5 1.7-2.1.1-3.7-2.2-2.4zM169.5 776c-1.1 1.7.5 3.2 2.1 1.9.7-.6 1.1-1.5.8-2-.7-1.2-2.1-1.1-2.9.1zM183.5 781c-.4.7-.3 1.6.3 2.2 1.4 1.4 4.5.2 4-1.5-.6-1.6-3.4-2.1-4.3-.7zM89 782c-1.1.7-1.2 1.2-.3 2.1 1.3 1.3 3.3.4 3.3-1.7 0-1.6-.9-1.8-3-.4zM61.2 783.2c.7 1.9 3.8 2.2 3.8.4 0-1-.9-1.6-2.1-1.6-1.2 0-1.9.5-1.7 1.2zM139 784.5c-1 1.2-1 1.9-.2 2.7 1.5 1.5 4.8-1.4 3.8-3.1-1-1.5-2.1-1.4-3.6.4zM133.5 785c-.7 1.2.2 3 1.6 3 .5 0 .9-.9.9-2 0-2.1-1.5-2.7-2.5-1zM155 785.9c-1.2 2.3-.3 5.1 1.6 5.1 1.6 0 3.7-4.6 2.8-6.1-.9-1.5-3.3-1-4.4 1zM74.2 786.3c-1.6 1.8-.3 5.9 1.7 5.5 2.1-.4 2.6-4.1.8-5.6-1.1-1-1.7-.9-2.5.1zM180.3 785.7c-1.6.6-1.7 3.9-.2 4.9.6.3 1.8-.1 2.7-1 1.4-1.4 1.4-1.8.2-3-.8-.7-2.1-1.2-2.7-.9zM105.2 787.2c-1.6 1.6-1.5 4.3.1 5.7 1.6 1.3 3.7-.4 3.7-3 0-2.5-2.4-4.1-3.8-2.7zM113 787.9c0 2.5 2 3.8 3.1 2 1.5-2.3 1-3.9-1.1-3.9-1.3 0-2 .7-2 1.9zM81.3 789.6c-.3.8-.1 2 .5 2.6 1.6 1.6 4.2.2 4.2-2.2 0-2.4-3.8-2.8-4.7-.4z"/><path d="M487 790c0 1.1.7 2 1.5 2s1.5-.9 1.5-2-.7-2-1.5-2-1.5.9-1.5 2zM65 791c0 .5.4 1 .9 1 .6 0 1.3-.5 1.6-1 .3-.6-.1-1-.9-1-.9 0-1.6.4-1.6 1zM172 791.5c0 1 .7 1.5 1.8 1.3 2.1-.4 1.9-2.2-.2-2.6-1-.2-1.6.3-1.6 1.3zM158 793.5c-1.9 2.2-.5 4.2 3.2 4.7 6.4 1 8-1.9 2.6-4.6-3.8-2-4.2-2-5.8-.1zM1.7 793.6c-.9 1 .2 2.4 1.9 2.4.8 0 1.4-.7 1.4-1.5 0-1.5-2.1-2.1-3.3-.9zM83.4 796.1c-1 1.7 1.3 3.6 2.7 2.2 1.2-1.2.4-3.3-1.1-3.3-.5 0-1.2.5-1.6 1.1zM114.7 795.7c-1.2 1.2-.7 4.1.7 4.6 1.9.7 4-1.8 3.2-3.8-.6-1.5-2.8-2-3.9-.8zM122.2 798.2c.3 2.5 3.4 3.6 5.1 1.9 1.4-1.4-.9-4.1-3.5-4.1-1.4 0-1.9.6-1.6 2.2zM9.6 797.7c-1.1 1.1-.6 2.3.9 2.3.8 0 1.5-.4 1.5-.9 0-1.3-1.6-2.2-2.4-1.4zM74.7 797.6c-1.4 1.5-.6 3.4 1.4 3.4 1.4 0 1.9-.5 1.7-1.7-.3-1.8-2-2.7-3.1-1.7zM149 798.5c-1 1.2-.9 1.6.3 2.1 1.7.6 3.7-.2 3.7-1.6 0-1.5-2.9-1.9-4-.5zM179.5 800c-1.6 1.8-1.7 2.3-.5 3 1.8 1.1 5.5-1.1 5.5-3.1 0-2.2-3-2.1-5 .1zM65.7 799.6c-.8.8.1 2.4 1.4 2.4.5 0 .9-.7.9-1.5 0-1.5-1.2-2-2.3-.9zM94.5 800.9c-.7 1.2 1.2 2.4 2.5 1.6 1.1-.7.4-2.5-1-2.5-.5 0-1.1.4-1.5.9zM138 801c0 .5.5 1 1.1 1 .5 0 .7-.5.4-1-.3-.6-.8-1-1.1-1-.2 0-.4.4-.4 1zM37.7 822.2c-.7.4-.2 1.3 1.4 2.6 2.4 2 2.4 2.3 2.4 17.6V858h4.6c5.6 0 6.3-.6 3.8-3.1-2.3-2.3-2.6-10.5-.5-13.4 1.3-1.8 1.6-1.7 6.7 2.8 18 15.6 16.8 14.8 20.6 14.5 4.3-.4 5.4-2.3 2-3.2-2.5-.6-16.3-11.3-20.6-15.9-1.2-1.4-2-3-1.7-3.6 1.4-2.3 14-10.2 16.7-10.5 5.8-.7 4.9-3.6-1.2-3.6-3.2 0-4.6.7-8.1 4.2-4.2 4-12.4 9.8-14 9.8-1.3 0-.9-10.5.4-11.8.9-.9.8-1.2-.3-1.6-2.5-.9-11-1.1-12.2-.4zM88 823.8c0 .4.5 1.3 1 1.8 1.6 1.6 2.6 29.9 1.1 30.8-2.6 1.7-.9 2.8 3.4 2.3 5.6-.6 6.3-1.2 4.2-3.5-1.3-1.4-1.7-3.9-1.7-10.7 0-7.8.2-8.6 1.6-7.4.8.7 2.2 2.6 3.1 4.3 3 5.9 8.5 13.7 10.5 14.7 3.7 2 8.6 2.1 9.6.2.8-1.9.7-32.1-.1-33-.3-.3-1.4-.2-2.5.1-1.8.6-1.9 1.4-1.4 14.8.4 10.4.2 13.9-.6 13.4-.7-.4-3.5-5.4-6.3-11.2-2.8-5.7-6.6-12-8.4-13.9-2.9-3.1-3.8-3.5-8.4-3.5-2.8 0-5.1.4-5.1.8zM131.7 823.7c-1.3.3-1.6.9-1 2.1.4 1 .8 8.1.8 16 0 11.6.3 14.4 1.5 15.2 2 1.3 5.7 1.2 6.5-.1.4-.6.8-7.4.9-15.2.1-7.8.5-15.2 1-16.5.8-2.1.6-2.2-3.5-2.1-2.4.1-5.2.3-6.2.6zM156 823.6c-3.3 1.4-8.1 7-9.1 10.8-.6 2.2-.7 6.1-.4 9 .6 4.3 1.5 5.8 5.5 9.8 4.5 4.6 5 4.8 10.3 4.8 9.2 0 10.4-.9 10.9-7.7.2-3.2.4-5.9.3-5.9 0-.1-2.9-.3-6.5-.5-5.2-.3-6.5-.1-6.5 1.1 0 .8 1.1 1.7 2.5 2 1.6.4 2.6 1.4 2.8 2.8.8 5.3-7.9 3.2-10.3-2.6-.8-1.9-1.5-5.8-1.5-8.7 0-4.3.5-6 2.6-8.5 2.3-2.7 3.2-3.1 6.8-2.8 3.4.2 4.2.7 4.4 2.5.4 2.5 2.1 3 4 1.1 1.8-1.8 1.4-4.6-.8-5.8-2.3-1.2-12.9-2.2-15-1.4zM180.1 824.4c-.7.8-.8 1.7-.3 2 .6.3.8 6.7.4 15.6l-.5 15h9l-.5-6.8c-.6-9.2.5-11.2 6.2-11.2 2.4 0 4.8.6 5.3 1.2.6.7 1.3 4.6 1.7 8.7.3 4 .9 7.7 1.2 8.2.3.5 2.1.9 4.1.9 3.2 0 3.5-.2 2.9-2.3-.3-1.2-.6-8.9-.6-17v-14.8l-4.7.3-4.8.3v12h-10l-.3-6.1c-.3-5.4-.6-6.3-2.5-6.8-3.5-.9-5.4-.7-6.6.8zM212.9 825.9c-2 1.6-2.2 2.3-1.3 3.8.9 1.4 2.2 1.7 5.2 1.5 3.7-.3 4.2-.1 4.8 2.2.3 1.4.4 7.2.2 12.9l-.3 10.5 5.5.5c3 .2 5.7.3 5.9.1.2-.2-.4-1.3-1.3-2.3-1.4-1.6-1.8-4.2-2.1-12.8-.1-5.9.1-11.6.7-12.6 1.2-2.4 4.3-2.1 6 .5 1.8 2.7 4.8 1.8 4.8-1.5 0-3.6-3.7-4.7-15.4-4.7-8.8 0-10.7.3-12.7 1.9zM320.7 825.4c-7.8 2.9-11.8 8.8-11.8 17.2 0 5.6 1.6 10.2 4.1 11.5 6.5 3.4 12.5 5.9 14.3 5.9 3 0 12.7-5.7 12.7-7.5 0-2.5-1.8-2.6-6.1-.4-14.3 7.3-26.9-9.4-14.8-19.6 5.3-4.4 14.6-2.7 12.1 2.2-1.2 2.2-.5 4.3 1.4 4.3 1.5 0 7.4-7.5 7.4-9.4 0-2.3-1.9-3.9-4.7-4.1-1.5-.2-4.6-.5-6.8-.9-2.5-.4-5.5-.1-7.8.8zM368.3 824.7c-2.7.5-3 1.8-.7 3.1 1.4.8 1.6 2.4 1.2 11.6-.3 5.9-.9 11.1-1.5 11.7-.5.5-2.6 1.2-4.6 1.6-3.5.5-3.8.4-5.2-3-1.9-4.6-1.9-16.3 0-19.7 1.8-3.3.3-5-4.6-5-4.3 0-5.6 1.2-3.4 3 1.2 1 1.5 3.7 1.5 11.9.1 12.9 1 15.1 7.2 16.6 3.2.8 5.2.8 8-.2 2.3-.8 5.5-1 8.3-.6 5 .6 5.6 0 2.3-2.7-2-1.6-2.3-2.9-2.7-10.6-.2-5.4.2-10.2 1-12.6 1.7-5.3.2-6.4-6.8-5.1zM384.2 825.7c-.9.3-1 .9-.3 1.7 1.6 1.9 1.9 25.2.4 26.7-2.7 2.7-1.5 3.9 4.1 3.8 7-.2 8.9-1.4 5.9-3.6-1.8-1.2-2.3-2.5-2.3-5.7 0-4.8 1.3-6.6 5-6.6 3.4 0 11.8-5.4 12.9-8.2 1.1-3.1-.1-6-3-7.5-2.4-1.2-20-1.7-22.7-.6zm15.6 2.5c.7.7 1.2 2.5 1.2 4 0 4.5-5.6 8.8-7.6 5.7-1.1-1.9-.6-9.2.8-10 1.9-1.2 4.2-1.1 5.6.3zM417.2 827.7c-3.3 2.8-3.7 6.3-1 10.3 2.2 3.3 2.7 3.5 8.3 3.7 3.3.1 6.6.2 7.3.2.7.1 2 1.7 2.9 3.6 1.6 3.3 1.6 3.7 0 7-1.2 2.5-2.3 3.5-4 3.5-2.3 0-9.8-4.7-11.2-6.9-1.2-2-3.3-1.1-5.4 2.3-2.9 4.6-2.7 5.7 1.2 5.5 1.7-.1 7.1.2 11.8.6 10 .9 13-.4 14.9-6 1.4-4.3.4-8-2.8-10.6-2.3-1.7-3.5-1.9-8.3-1.4-4.5.5-5.9.3-7.2-1-1.6-1.5-2.4-8.5-1.2-9.7 1-.9 6.5.5 6.5 1.7 0 2.1 2.7 3.7 5 3 1.7-.5 2-1.3 1.8-3.8l-.3-3.2-8.1-.3c-6.6-.2-8.5.1-10.2 1.5zM266 831.2c-2.5 1.3-4.6 3.1-4.8 4-.2 1 1.4 3.4 3.6 5.6 3.2 3.1 4.3 5.2 5.5 10.5 1.5 6.7 1 13.4-1.3 17.6-1.5 2.8-1.3 3.3 1.2 2.9 4.8-.7 7.2-10.3 5.5-21.1-.8-4.7-.8-4.8 1.6-4.2 3.8 1 5.2-1.6 2.6-4.9-2.5-3.1-4.7-3.4-5.7-.6-.7 2-1 1.9-4.7-1.3-4.4-3.8-4.3-6.4.2-6.9 1.6-.2 2.8-.9 2.8-1.7 0-2.3-1.8-2.3-6.5.1z"/><path d="M253 843.7c-8.5 3.2-5 14.5 4 12.8 4.6-.9 7-3.1 7-6.7 0-5.1-5.4-8.1-11-6.1zm4.3 4.4c.6.9.7 2.4.3 3.4-.6 1.7-.7 1.7-2.6 0-2.5-2.2-2.7-5.8-.4-5.3.9.2 2.1 1 2.7 1.9zM456.3 852.6c-1.8.8-1.6 4.1.3 4.8.8.3 2.7.3 4 0 3.4-.9 3-4.8-.6-5.1-1.4-.1-3.1.1-3.7.3z"/></svg>