<svg version="1" xmlns="http://www.w3.org/2000/svg" width="666.667" height="1170.667" viewBox="0 0 500 878"><path d="M282.5 109.2c-4.9 2.5-7.7 3.2-16 3.9-19.9 1.6-30.8 4-40.8 9-4.4 2.3-6.7 2.9-9 2.4-6.2-1.2-8.8-2.8-12.3-7.6-4.6-6.3-9-9.9-12-9.9-5.4 0-9.4 4.3-7.4 8 1 1.8.7 2.1-1.8 2.6-1.6.3-4 2-5.3 3.7-2.9 3.7-6.3 12.2-5.5 13.6.4.5-.4 2.2-1.7 3.8-6.2 7.3-6.3 11-.4 15.3 2.3 1.7 5.2 3.3 6.5 3.7 1.9.4 2.2 1 1.8 2.8-.5 1.8.1 2.8 2.2 4.4l2.7 2-2 3.8c-1.1 2.1-2.9 3.9-4 4.1-2.7.5-7.5 5.2-7.5 7.3 0 .9 1.6 3.1 3.6 4.9 2.7 2.4 4.3 3 6 2.6 6-1.5 7-1.6 8.3-.7 1.3.8 1.2 1.4-.4 4.4-2.2 4.1-1.5 6.5 2.3 7.8 1.6.5 3.2 2.1 3.8 3.8 1 2.6 1.6 2.8 8.3 3.4 4.9.5 7.7.3 9.1-.5 2.9-1.8 4.1-6 2.8-10.4-.5-2-.7-4.6-.4-5.7.3-1.1-.4-4.2-1.5-6.8-2.6-5.9-2.2-8.5 1.1-8.1 10.9 1.1 12.2 1.5 13.2 3.8.9 1.8.8 3.1-.3 5.1-.7 1.6-1.5 3.1-1.7 3.5-.6 1.3 5.3.9 6.7-.5 1.1-1 1.3-.8.8 1.1-.4 1.7.3 3 2.5 5.1 2.6 2.4 3.7 2.8 6.8 2.4 3.2-.5 4-.1 6.1 2.6 5.3 6.8 6.9 8.9 6.9 9.4 0 .6-3.3.3-7-.7-1.7-.4-3.8 0-6.5 1.4-2.1 1.1-4.4 2-5 2-.5 0-2.9 1.3-5.3 2.8-4 2.7-4.5 2.8-10.3 1.9-5-.8-6.9-.7-11.4.8-6.7 2.3-12.6 7.4-11.8 10.3.3 1.4-.5 3.4-2.6 5.9-2.2 2.7-3.1 4.8-3.1 7.5 0 2-.9 5.2-2 7.1-2.2 3.8-2 7.8.7 10.8 1.1 1.3 1.2 2.5.2 6.5-.7 2.7-1.6 6.5-2 8.4-1.2 4.9-9.3 13.2-14.5 14.8-5.8 1.7-9.2 4.7-10.4 9-.8 3-1.7 4-4.5 5-7.3 2.7-9.9 10-4.5 13 3.3 1.8 3.4 2.4 1 9.2-1.9 5.3-2.5 6.3-3.5 5.9-1.2-.5-1.1-1 1.1-7.2 1.9-5.5 1.2-6.7-3.7-6.7-3.5 0-5.7 2.5-3.3 3.8.9.5 1.4 1.4 1 2-.4.8-2.1.3-5.1-1.3-5.4-3.1-7.4-3.1-11-.3l-2.7 2.1-2.7-3.1c-1.4-1.8-3.7-4.6-5-6.3l-2.4-3 3-3.2c4.6-4.8 5.4-8.4 3.1-13-1-2.1-2.4-3.6-3.1-3.4-1.2.4-1.2 1.2-.1 5.9.9 4-.8 3.4-2.8-1-2-4.2-1.5-7.3 2-13.2 1.2-1.9 3.3-6.7 4.7-10.5 1.5-3.9 6.4-14.8 11.1-24.2 4.6-9.5 8.4-18 8.4-18.8 0-.9-1.1-2-2.4-2.5-3.2-1.2-3.9-2.5-2.1-4 2.6-2.2 8.3-15.3 8.6-20 .4-4.3.3-4.5-2.6-5-1.7-.3-3-1.2-3-2-.1-2.8-1.6-4-4.3-3.4-11 2.2-17.9 5.7-27 13.6-1.8 1.5-4.1 2.8-5.1 2.8-2.4 0-11 3-11.6 4.1-.3.4.3 2.7 1.5 5.1 1.3 2.8 1.6 4.4.9 4.8-.6.4-6.3 1-12.7 1.4-21.4 1.2-26.3 2.3-27 5.8-.4 2.2 5.6 14.7 11.6 23.8 2.6 4.1 5.7 8.8 6.8 10.5 1 1.6 4.4 7.5 7.5 13l5.6 10-4.3 4.1c-3.7 3.4-4.4 4.6-4.4 7.9 0 3 .7 4.4 3.6 7.2 2.9 2.7 3.4 3.6 2.4 4.8-.7.8-1 2.9-.7 4.7.3 2.1-.1 3.9-1 5-1.3 1.4-1.2 2 .2 4.8.9 1.7 1.3 4 1 5.1-.4 1.1 0 3 .9 4.4.9 1.3 1.6 3.7 1.6 5.3 0 1.6.7 3.5 1.5 4.2 4.8 4-2.9 32-11.1 40.8-2.4 2.5-4.4 5.2-4.4 5.8 0 3.1 8.9 6.2 20 6.9 4.7.3 12 1 16.2 1.6 6.7 1 8.1.9 11-.6 9.5-5.1 12.5-6.4 14.3-6.5 4.9 0 6.1-5.6 1.9-8.9-5.7-4.5-15.7-23.8-15.8-30.5l-.1-4.1 5.3-.3 5.2-.3v3.1c0 2.1.9 4.1 2.9 6.1 4.1 4 8.6 3.9 16.5-.4 4.1-2.3 8.1-3.6 12.3-4.1l6.1-.7 6.7 6.7c8.3 8.3 16.1 12.3 25.7 13.1 5.7.5 7.1.3 8.8-1.2 1.7-1.5 2.4-1.6 4.6-.7 3.3 1.6 9.3 1.5 12.4-.1 1.4-.7 2.8-2.6 3.4-4.5 1.3-4.5 2.6-4 2.6 1 0 2.8.9 5.7 2.5 8.3 1.4 2.4 2.5 5.6 2.5 7.8 0 4.8 2 8.7 5.9 11.2 1.7 1.1 3.1 2.6 3.1 3.3 0 .7-3.6 5.3-8.1 10.2-7.9 8.9-13 15.2-27.1 34-17.9 23.8-31.8 45-31.8 48.6 0 .8 1.5 4.5 3.4 8.2 2.6 5.2 3.2 7.2 2.5 9-1.1 3 0 5.1 4.6 8.6 2.6 2 3.5 3.5 3.5 5.6 0 2.1 1.1 3.8 4.6 6.9l4.6 4-1.5 7.3c-.9 4-1.8 8.4-2 9.8-.2 1.4-1.1 5.9-2 10-.8 4.1-1.8 10.1-2.2 13.2-.6 5.4-3.4 15.1-6.9 24.3-.8 2.2-1.5 7.2-1.6 11 0 3.9-.5 8.6-1 10.5-.6 1.9-1.4 8.6-1.9 14.9-1.2 15.2-1.4 15.5-12.3 10.9-33.4-14.1-54.9-14.8-93.3-3.3-17.8 5.3-23.3 6-51 6.1-30.7.2-28.5.1-28.5 1.8 0 2.1 39 2.1 54 .1 10.9-1.6 30-5.8 40.5-9.1 2.8-.8 10-2.2 16-3.1 10.5-1.5 11.7-1.4 25 .5 13.7 2 21.6 4.4 35.1 10.8 2.8 1.3 5.8 2.4 6.7 2.4 2.1 0 3.4 2.3 1.7 2.8-.8.3-2.5 1.6-3.8 2.9l-2.4 2.4-10.2-5c-32.1-15.8-37.5-16-91.1-3.5-35.6 8.3-56 10-69.2 5.9-2-.6-2.3-.4-2.3 1.8 0 3.2 2.2 3.8 15.5 3.8 17.9.1 24.3-1 77.5-13.8 9.8-2.3 13.7-2.7 26-2.7 13.4 0 15 .2 21.6 2.7 4 1.5 10.7 4.7 15 7 4.4 2.4 10 5.2 12.6 6.3 2.5 1 4.4 2.2 4.1 2.7-1.1 1.8-3.3 14.4-3.3 19 0 3.2-.5 4.9-1.4 5.3-.8.3-5.2-1.2-9.8-3.4-15.5-7.4-38.6-15.5-48.9-17.1-9.6-1.6-15.4-1.3-30.1 1.3-19.9 3.6-27 4.6-34 4.6-3.5 0-7.9.5-9.8 1.1-5.7 1.7-27 3.9-31.1 3.3-3.1-.5-3.9-.3-3.9.9 0 .8.7 1.8 1.6 2.1 2.8 1.1 14.8.6 21.9-1 3.9-.8 14.2-2.1 23-2.9 8.8-.8 21.7-2.6 28.5-4 13.5-2.7 25.5-3.2 34.2-1.4 8 1.7 28.8 9 43.5 15.3 7.3 3.1 14.1 5.6 15.1 5.6 4.1 0 4.6 2.3 2.8 12.6-2.4 14.4-1.1 13.4-18.4 13.5-41.8.1-116.8.2-131.7 0-9.4-.1-17.8-.2-18.7-.1-2.1 0-2.4 2.5-.5 3.3.7.2 37.2.4 81.2.2 44-.1 80.6 0 81.3.2.6.3 1.2 1.2 1.2 2 0 1.2-9.2 1.4-70.7 1-40.6-.3-73.6 0-77.3.5-3.6.5-8.9.9-11.7.9-4.6 0-5.3.3-5.3 2 0 2 .4 2 16.3 1.3 8.9-.4 21.8-.7 28.7-.7 6.9.1 35.4.2 63.4.3 28.1.1 51.4.3 51.8.6 1 .7-1.9 6.4-3.3 6.4-.6 0-2.4 1.1-4 2.5-1.7 1.3-6.1 3.4-9.8 4.5-3.8 1.1-8.5 3.4-10.6 5-2.1 1.7-4.7 3-5.9 3.1-8.6.5-15.5 3.1-19.6 7.4-2.9 3.1-1.9 5.6 2.6 6.6 5.7 1.3 29 .9 38.9-.7 10.4-1.6 16.4-1.4 37.1 1.1 10.7 1.3 14.4-3.2 13.9-17-.2-4.4.1-8.8.8-10 .6-1.1 1-3.6.8-5.7-.1-3.2.1-3.7 2.7-4.3 1.6-.3 4.1-.1 5.6.5 1.9.7 11.7.7 31.9 0 16.1-.5 35.6-1 43.5-1H299l.1 6.7c0 3.8.4 7.7.8 8.7.4 1.1.4 3.8 0 6-.9 5 .3 8.4 3.6 9.6 1.4.5 2.8 1.8 3.2 2.7.3 1 3 4.6 6 8 5.7 6.6 12.4 10.9 18.8 12.3 2.2.4 6.5 1.3 9.5 2 4.7 1 16.2 2 26.3 2.2 1.6 0 3.5-.6 4.4-1.4 1.3-1.4 1.2-2-.8-5.9-1.2-2.4-4.7-7.1-7.8-10.4-3.1-3.3-6.5-7.7-7.5-9.8-1.3-2.6-4.7-5.8-10.2-9.8-4.9-3.5-8.4-6.8-8.7-8.1-.3-1.3-1.3-4.3-2.2-6.7-.9-2.4-1.2-4.8-.7-5.3 1.1-1.1 68.2-1.5 91.2-.6 9.6.4 30.4 1 46.3 1.4 25.5.6 28.7.5 28.7-.8s-2.3-1.7-13.2-2.3c-7.3-.4-14.4-.5-15.8-.4-1.4.2-7.7 0-14-.4-20.9-1.2-58-2.1-91-2.2-28.2 0-32.5-.2-32.5-1.5s4-1.5 29-1.7c16-.1 53.2-.4 82.8-.6 29.6-.3 54-.6 54.2-.9.7-.7-26.9-1.8-43.9-1.8-13.5 0-25.9-1.5-30.1-3.7-1.1-.6-5.6-1.6-10-2.3-4.4-.7-9.4-1.8-11.1-2.5-6.5-2.6-21.5-6.4-35.3-9-14.6-2.7-24.4-2.9-30.7-.5-1.9.8-2.6.6-3-.5-.8-2 1.3-4.5 3.8-4.5 1.1 0 2.7-1.4 3.9-3.5 1.2-1.9 2.4-3.5 2.7-3.5 5.8.2 20.3 2.4 28.4 4.4 38.2 9.4 45.6 10.6 63.8 10.6 19.9 0 29.6-1.2 39.5-5.1 4.4-1.7 11.3-3.6 15.3-4.2 4.6-.7 7.2-1.6 7.2-2.4 0-.7-.3-1.3-.7-1.3-3.4 0-20.2 3.6-25.8 5.5-8.5 2.8-15.9 3.6-34 3.6-12 0-16-.5-28-3.2-7.7-1.7-15.8-3.5-18-3.9-2.2-.5-6.9-1.8-10.5-2.9-9.5-2.9-21.4-5.2-30.5-6l-8-.6.1-6.7c0-3.8.4-7.1.8-7.5.3-.4 5-.1 10.3.5 6.8.9 11.8 2.2 17.2 4.6 7.6 3.4 18.4 6.4 40.1 11 22.8 4.9 52 4.4 69.5-1.2 3.3-1.1 8.6-2.5 11.8-3.2 4.5-1 5.7-1.7 5.7-3.2 0-1.1-.4-1.7-.9-1.3-1.1.6-15.7 4-26.6 6.1-15.2 2.9-43.5 1.5-62-3-3.3-.9-11.2-2.7-17.5-4.2-6.3-1.5-14.4-4.1-18-5.9-4.7-2.3-9.4-3.6-16.3-4.5-10.3-1.4-14.3-3.7-13.5-7.7.3-1.5 1.2-1.8 5.3-1.5 8.5.5 21.5 3.7 36.5 9 3 1.1 11.6 2.8 19 3.7 19.8 2.5 51.6 1.3 46.3-1.8-.4-.2-6 0-12.3.5-19.3 1.5-37.7-1-60-8.1-6.9-2.1-17.5-4.7-23.5-5.7-10.5-1.6-13.5-2.6-13.5-4.5 0-2.4 8.4-1.8 32 2.5 12.1 2.2 27.5 1.3 41.5-2.2 6.6-1.7 14.5-4.2 17.5-5.5 7.1-3.1 16-5.2 28.7-6.8 13.4-1.6 21.5-.3 35.6 5.6 1.2.5 1.7.3 1.7-.8 0-2.3-8.6-5.4-18.5-6.8-16.1-2.1-35.8.4-50.7 6.4-9.6 4-14 5.2-26.2 7.2-12 2-19.5 1.9-30.7-.6-9.5-2.1-30.5-4.3-32-3.3-.5.2-1.1 2-1.5 3.9-.3 1.9-1 3.2-1.5 3-.9-.6-1-3.4-1.3-21.5-.1-11.4-.1-11.5 3.7-18.8 2.3-4.6 5.2-13.2 7.6-22.5 4.1-15.9 6.5-23.5 8.6-27.7.7-1.4 1.5-4.6 1.9-7.1 1-6.5 2.5-8.2 8.2-8.8 4.5-.5 5-.9 6-3.9.7-2.2 2.2-3.8 4.5-5 1.9-.9 4.1-3.1 4.9-4.9.8-1.8 2.8-3.8 4.4-4.4 3.9-1.7 8.6-5.8 8.6-7.5 0-.7-1.3-4-3-7.2-3.3-6.6-3.9-9.7-1.5-8.8 1.8.6 5.3-2.9 6.2-6.2.7-2.8-1.5-8-11.9-28.7-10.3-20.4-9.6-18.9-15.8-32.9-3-6.5-6.3-13.2-7.5-15-3.1-4.7-4.8-9.4-4-11.3.6-1.6.8-1.5 1.6.6 1.1 2.9 3 1.7 5-3.2.7-1.8 2.1-4.5 3.2-6 1.8-2.7 2-2.7 4.4-1.2 3.5 2.4 7.3 1.6 9.3-2 .9-1.6 3.4-3.8 5.6-5 4.2-2.2 7.4-7.2 7.4-11.7 0-3.7 3.8-10.8 5.9-10.8 2.4-.1 6.1-3.5 6.1-5.7 0-1 1.4-3 3-4.5 1.8-1.5 3-3.6 3-5 0-1.5 1.7-4.1 4.8-7.1 4.8-4.8 4.9-4.8 9.9-4.1 3.3.4 5.9.2 7.4-.6 4-2.1 7.9-6.3 7.9-8.5 0-1.2.9-3 2-4s2-2.4 2-3.1c0-.7 1.8-3.4 4-5.9 3.7-4.3 4-5 4-10.9 0-4.6-.6-7.5-2.4-11-1.3-2.7-2.7-5.9-3.1-7.3-.3-1.3-4-5.9-8.3-10.1-4.3-4.2-9.8-11.1-12.2-15.2-2.5-4.1-5.8-8.8-7.5-10.6-3.8-4-14.3-9.7-21.7-11.8-4.6-1.3-5.8-2.1-5.8-3.7 0-2.8-2.3-6.9-5.5-9.9-1.4-1.3-3.5-3.9-4.6-5.7-2.6-4.2-24-15.1-31.9-16.2-3-.4-6.9-1.5-8.6-2.4l-3.1-1.6-.7-12.8c-.4-7-1.1-15.6-1.6-19.1-1.2-8.6-5.5-22.3-9.5-30.2-1.8-3.6-3.6-7.6-4-8.8-.8-2.7-5.8-10.6-8.9-14.1-2.4-2.6-19.6-11.6-24.1-12.4-2.2-.5-4.6.2-9 2.5zm-83 7.7c5.2 6.5 10.2 10.1 13.9 10.1 2.6 0 1.8 2.4-1.9 6-3.2 3.1-3.7 3.2-5.9 2.1-2.1-1.2-3-1.1-6.7 1-2.3 1.3-4.4 3-4.7 3.6-.6 2.1 2.7 2.7 4.7.9 2.5-2.2 5.6-2.2 4.6.1-2 4.6-4.4 12-4.5 13.5 0 1-.5 1.8-1.2 1.8s-2.2 1.2-3.5 2.7c-2.1 2.6-2.2 2.7-2.3.7 0-1.2 1.3-4.7 2.9-7.7 1.6-3.1 2.7-5.8 2.3-6.1-1.1-1.1-2.1-.6-3.4 1.8-.7 1.3-2.3 4.2-3.6 6.5-3 5.4-5.6 5.6-4.6.3.3-2 1.5-4.7 2.7-5.9 2.5-2.8 1.7-5.9-1.2-4.3-1.1.5-3.2 2.5-4.8 4.4-1.9 2.4-3.3 3.2-4.2 2.7-.9-.6-1-1.1-.2-1.5 1.7-1.1 1.3-3.6-.5-3.6-.9 0-2.9.8-4.5 1.7-3.6 2.1-4.5 1.2-2.9-2.7 1.6-3.8 7.2-8.8 10.8-9.5 5.9-1.3 8.2-4.8 4.1-6.3-1.5-.6-1.8-1.1-1.1-1.6.7-.4 1.2-1.8 1.2-3.2 0-1.9.7-2.8 3-3.5 3.2-1.2 3.8-3.5 1.9-7.1-.9-1.6-.8-2.3.2-2.9 2.6-1.6 3.8-.9 9.4 6zm95-4.9c5.5 1.4 17.8 8.5 19.8 11.2 1.6 2.2 2.2 4.7 2.5 11.5.4 8.8-.3 13-3.3 21.3-1.5 4.1-1.5 4.8-.1 7.7 1.9 4 5.8 6.2 7.9 4.4.8-.6 1.7-2.6 2.1-4.3.7-3.3 2-3 2.3.5.1 1.2.6 7.4 1.1 13.7.5 6.3.5 12.2.1 13.1-.5.9-1.3 6.3-1.8 12-.6 5.7-1.5 11.9-2.2 13.7-.6 1.8-.9 5-.5 7.1.5 3.3 0 4.6-3.9 10.5-2.5 3.6-4.5 7.3-4.5 8.1 0 3.5 3.3 1 8.2-6.3 4.3-6.4 5.2-8.4 5-11.7-.1-2.2.5-7.2 1.3-11 1.6-8.4 2.2-18.2 1.1-21.2-.5-1.5-.1-3.1 1-4.8 1.4-2.2 1.6-4.2 1.1-12.8-.5-9-.4-9.8.8-7.2 1.9 4.5 3.7 26.6 3 37.5-1.5 22.8-13.1 44.4-31.5 59-4.2 3.3-4.8 3.5-14.1 3.8-10.6.5-10.1.6-30.6-7.9-9-3.7-11.2-5.1-19.2-12.5-7-6.4-9.8-8.4-12.8-8.9-2.1-.4-5.5-1.3-7.6-2.1-2-.8-6.1-1.4-8.9-1.4-4.9 0-5-.1-3.5-1.8 2.2-2.4 2.1-3.2-.2-3.2-1 0-2.2-.7-2.5-1.6-.9-2.4-.7-3.4.7-3.4.8 0 2.2-.9 3.2-2s3.1-2 4.6-2c3.6 0 12.9 2.4 16 4.2 3.9 2.2 9.1 6.8 7.6 6.8-.8 0-2.2-.9-3.1-1.9-3.7-4-12-3.8-11.4.2.2 1.6 1.1 2.3 3.2 2.5 3.4.4 19.8 5.8 23.6 7.7 1.4.7 5.7 1.6 9.5 2 3.9.4 9.3 1.6 12 2.6 2.8 1 8.2 1.9 12.2 2.1 6.4.2 7.5 0 9.8-2.2 1.4-1.3 2.5-3 2.5-3.7 0-.7 2.8-4.8 6.1-9.1 7.7-9.6 9.8-14.4 11.2-25.5.6-4.8 1.5-8.7 1.9-8.7.4 0 .8 1.1.8 2.4 0 2.7 2.4 5.3 3.5 3.7.3-.6.7-3.8.7-7.1.1-5-.5-7.3-3.6-13.5-2-4.1-5-11.6-6.7-16.7-2.8-8.9-2.9-9.4-1.4-13.8 2.5-7.6 2.2-14.7-.8-21-4.1-8.6-8.2-12.9-15.5-16.1-5.6-2.5-6.3-3.1-5.1-4.5.8-1 2-1.3 3.3-.9 1.2.3 3.5 1 5.1 1.5zm-11.5 5.8c1.4.6 3.7 1.3 5.3 1.7 4.4.9 10.2 6.9 13.2 13.6 2.3 5.2 2.7 7.1 2.2 11.9-.4 5.2-2.3 10-3.8 10-.3 0-.5-.9-.5-2 .1-1.9-1.2-3-7.7-6.2-1.2-.6-2.4-.5-3.3.3-1.1.9-1.4.7-1.4-1.5 0-2.9-2-3.5-4-1.1-1.1 1.3-1.4 1.3-2.7 0-2.3-2.4-5-1.8-5.7 1.1-.7 2.8-2.2 2.3-2.8-1-.1-1.1-1.2-2.1-2.3-2.2-1.1-.2-3.8-.6-6.1-.9-3.2-.6-4.2-.4-4.7.9-.3.8-.2 1.8.3 2.1 1.7 1 1.1 2.5-1 2.5-1 0-2.8-.9-3.9-2.1-1.4-1.6-2.5-1.9-4.3-1.3-1.2.4-3.1.7-4 .5-1-.1-1.8.4-1.8 1.1 0 .7-.5 2-1 2.8-.8 1.3-1.1 1.2-2.4-.5-1.1-1.5-1.7-1.7-2.8-.7-.8.6-1.7.9-2.1.6-1.2-1.2-5.7 2.9-5.7 5.2 0 2-.4 2.3-2.3 1.9-1.6-.4-2.9.1-4.6 1.9-2.1 2.3-2.3 2.9-1.3 5.2 1.1 2.3 1 2.5-.7 1.9-1.1-.3-2.2-.2-2.5.3-.6 1.1-5.5.4-7.3-1-.7-.6-1.6-.2-2.6 1.3-1.5 2.1-1.6 2.1-2.3-1.6-1-5.4.3-14.9 2.6-19.4 1.1-2.2 5.3-7 9.5-10.8 8.6-7.8 13.6-9.9 31.3-13.2 15.3-2.9 28.2-3.4 33.2-1.3zm-102 12.7c-1.4 1.6-4 2-4 .6 0-1 1.7-1.9 3.9-2 1.1-.1 1.1.2.1 1.4zm91.7 23.8c1.5 1.4 2.7 4 3 6.5.3 2.4 1.5 5 2.8 6.2 2.4 2.2 4.5 2 4.5-.5 0-1.4 3.7-3.1 4.7-2.2 1.2 1.2-1 4.7-2.9 4.7-1.5 0-1.8.4-1.3 1.7.4 1 .9 3.4 1.2 5.3.3 1.9 1.2 4.4 1.9 5.5.8 1.1 1.4 3.3 1.4 5 0 4.5 3.4 13 7.2 17.7 1.8 2.3 3.1 4.9 3 5.8-.3 1 .4.8 2.1-.9 1.5-1.4 2.3-2.9 2-3.8-.4-1.1-.1-1.4.8-1.1 2.2.7 2.2 4.2-.1 7-3.1 4.1-17.1 8.7-29.9 9.9-6.7.6-11.4.6-13 0-1.5-.5-3.8-1.2-5.2-1.5-4.5-1-4.4-3.4.3-4.6 2.6-.8 4.2-1.8 4.6-3.2.3-1.2 2.3-2.8 4.9-3.9 2.4-1 4.6-2.6 5-3.6.4-.9 2.2-3 4-4.6 1.8-1.6 3.3-3.3 3.3-3.8 0-2-3-.7-5.7 2.5-3 3.5-12.2 8-14.6 7.1-1.5-.7-5.1-7.5-4.2-8.3.2-.3 1.4.3 2.4 1.2 2.4 2.2 5.2 1.8 6.6-1 .6-1.2 2.4-3.2 4-4.7 1.7-1.4 2.7-2.8 2.3-3.2-.3-.4-3.4.3-6.7 1.5-3.4 1.2-6.5 1.9-7.1 1.5-.5-.3-1.8.3-2.9 1.4-2 2-2 2-7.5-3.1-3.1-2.9-6.6-7.4-8.1-10.5-1.8-3.5-3.6-5.8-5.2-6.4-2.4-.9-2.5-1.2-1.9-6.1.8-6 2.7-8.7 8.1-11.8 6.3-3.7 12.1-4.8 23.4-4.5 9.5.3 10.6.5 12.8 2.8zm50 .3c.7 1.8-1.7 3.8-3.1 2.4-1.1-1.1-.1-4 1.4-4 .6 0 1.3.7 1.7 1.6zm-130.8 17.8c-1 7.3-1.5 8.6-3.1 8.6-2.2 0-2.3-1.8-.2-4.8 1.8-2.6 1.2-5.2-1.1-5.2-2.1 0-1.9-.9 1.1-5.4 3.8-5.5 4.8-3.6 3.3 6.8zm6.5 4.2c.3 10.3.8 15 2.1 18.2 1.4 3.5 1.5 4.8.6 6.8-1.4 3.1-3.3 2.2-2.5-1.2.5-2 0-3.1-2.4-5.2l-3.1-2.7 2.2-15.3c1.1-8.3 2.2-15 2.4-14.8.2.2.5 6.6.7 14.2zm23.9-3.6c-.6.6-4.3-3.8-4.3-5.2 0-.5 1.1.4 2.4 1.9 1.3 1.5 2.2 3 1.9 3.3zm-14.9 13.7c1.6 3.2 1.4 8.3-.4 8.3-1.3 0-4-6.6-4-9.8 0-1.6.3-5.1.7-7.8l.7-4.9.7 5.5c.3 3 1.3 7 2.3 8.7zm-25-7.5c-2.4 7.7-3.7 8.5-4 2.5-.2-3.2.9-4.7 3.4-4.7.9 0 1.1.7.6 2.2zm125.6 1c2.2 3.7 2.8 13.7 1 18.3-.9 2.4-1.4 2.6-3.8 1.9-1.5-.4-4-.9-5.7-1-1.6-.1-3.3-.3-3.7-.3-.5-.1-2.8-5.6-2.8-6.8 0-.2.9-.1 2 .2 2.5.8 3.8-1.8 2-4-1.8-2.1-.6-4.5 1.9-3.8 2.5.6 3-2.1.6-3.1-2.6-1-1.6-2.6 1.5-2.6 1.7 0 3-.5 3-1 0-2.1 2.1-.9 4 2.2zM139.8 200c2.4 2.2 3.2 3.8 3.2 6.3 0 6.8-4.7 9.5-11 6.2-4-2.1-3.8-3.1.9-3.9 6.6-1 8-5.1 2.9-8.9-2.5-1.9-2.8-1.9-5.2-.3-1.4.9-2.9 2.8-3.2 4.2-.5 1.8-1.2 2.4-2.8 2.2-2.7-.4-2.7-2.7-.1-4.2 1.1-.6 3.1-1.9 4.4-2.9 3.5-2.5 7.1-2.1 10.9 1.3zm70 1.6c-.2 1.8-1 3-2 3.2-2.1.4-2.3-1.6-.6-5.3 1.4-3.2 3.1-1.9 2.6 2.1zm133.2 10c0 .8-.7 1.4-1.5 1.4-1.5 0-2.1-2.1-.9-3.3 1-.9 2.4.2 2.4 1.9zm9.5.4c1.1 1.8-.6 9.1-2.2 9.7-2.2.9-4.5-2.6-3.8-5.7 1.1-4.4 4.4-6.6 6-4zM107 214.9c0 .5-1.1 1.6-2.5 2.5-2.4 1.6-2.5 1.5-2.5-.2 0-1 .3-2.2.7-2.5.9-1 4.3-.8 4.3.2zm9 2.3c0 1.3-2.3.5-2.8-1-.2-.7.2-1 1.2-.6.9.3 1.6 1.1 1.6 1.6zm247.5-.2c2.5 2.7.9 4.5-2.8 3.1-2.6-1-3.5-3-2-4.4 1.2-1.2 3-.7 4.8 1.3zm-20.6 6.6c2.5 3.6 2.9 4.9 2.1 6.5-1.8 3.2-4.7 2.3-6.9-2.2-1.5-3-1.8-4.7-1.1-6.5 1.3-3.4 2.4-3 5.9 2.2zM239 220.9c0 .6-.4 1.3-1 1.6-.5.3-1-.1-1-.9 0-.9.5-1.6 1-1.6.6 0 1 .4 1 .9zM111.5 222c.3.5-.1 1-.9 1s-1.8-.5-2.1-1c-.3-.6.1-1 .9-1s1.8.4 2.1 1zm20.5 1c0 1-1.4 3.5-3 5.4-2.5 2.8-4 3.5-8.3 4-9.9 1.3-20.6 1.5-21.2.6-.4-.6 1.1-1 3.4-1 4.4 0 5.9-1.3 4.1-3.5-2.2-2.6.6-1.6 2.9 1.1 2.5 2.8 4.5 2.7 4.9-.3.2-1.5.9-1.9 2.8-1.5 1.7.3 2.4 0 2.4-1.1 0-.9-.4-1.9-1-2.2-2.4-1.5-.8-2.6 2.8-2.1 2 .4 4.4.2 5.2-.4 2.5-1.6 5-1.2 5 1zm228.3.6c.8.9-2.1 6.4-3.4 6.4-.5 0-2.1-.7-3.5-1.6-2.3-1.6-2.4-1.8-.8-3.5 1.6-1.8 6.4-2.6 7.7-1.3zm10.3 1.5c1 1.7-2.3 4.6-3.7 3.2-.7-.7-.9-1.9-.6-2.7.7-1.8 3.3-2.1 4.3-.5zm-128.9 2.5c-.9.9-2.8-.6-2.1-1.8.4-.6 1-.6 1.7.1.6.6.8 1.3.4 1.7zm138.3-1c0 .8-.4 1.2-1 .9-.5-.3-1-1-1-1.6 0-.5.5-.9 1-.9.6 0 1 .7 1 1.6zm-286.2 5.1c-.3 1.6-1.8 1.8-10.8 2.1-10.1.3-15.8-.3-14.7-1.4.9-1 10.7-2.1 18.5-2.3 6.5-.1 7.3.1 7 1.6zM248 231c0 .5-.2 1-.4 1-.3 0-.8-.5-1.1-1-.3-.6-.1-1 .4-1 .6 0 1.1.4 1.1 1zm42.8 5.4c.4 4.3-1.2 6.8-4.1 6.4-3.1-.4-3.2-2.7-.3-3.8 2.2-.8 2.5-1.3 1.9-4.1-.5-2.5-.3-3.1.8-2.7.8.3 1.5 2.1 1.7 4.2zm62.1-2.5c1 .7.6 2.3-2.1 7.9l-3.4 7.1.1-6.7c0-8.7 1.4-10.8 5.4-8.3zm-15.7 3.8c1.9 3.1 1.9 3.2-.9 8.4-2 3.9-2.9 7.3-3.3 12.9-.4 5.7-.9 7.5-2 7.5-.8 0-1.6-.9-1.8-2-.1-1.1-1.5-4.6-3-7.8l-2.7-5.9 2.3-3.6c1.3-2.1 3.3-5.9 4.5-8.5 2.4-5.5 4.2-5.7 6.9-1zm25.8-2.3c0 .8-.4 1.7-.9 2.1-1.2.7-2.4-1.2-1.6-2.5.9-1.5 2.5-1.2 2.5.4zm-160.6.4c.3.5-.8 2.2-2.4 3.7l-3 2.9v-2.5c0-3.7 3.8-6.6 5.4-4.1zm60.4.9c.2.8-.5 1.3-1.7 1.3-2.1 0-3.5-1.3-2.4-2.4 1-1 3.6-.3 4.1 1.1zm10.2.8c-.7.9-1.5 1.3-1.8 1-.3-.2.1-1.1.8-2 .7-.9 1.5-1.3 1.8-1 .3.2-.1 1.1-.8 2zm-141.6-.5c-1.4 1.4-8.2 2.6-6.9 1.2.9-.9 2.8-1.5 7-2.1.5 0 .5.3-.1.9zm151.6 1.4c0 .7-.7 1.9-1.5 2.6-1.2 1-1.8 1-3 0-.8-.7-1.5-1.8-1.5-2.4 0-.7.3-.6.9.2.6 1 1 1 2.1-.3 1.6-1.9 3-2 3-.1zm-172 .7l6.5.2-5.6.7c-6.1.8-8.2 1.6-7.4 3 1.1 1.7 22.3-.2 27.8-2.5 2.4-1 2.2-.1-1.7 9.4-4.8 11.8-6.6 13.9-11.8 14.3-2.4.2-4.2.7-4 1.3.2.5 1.9.9 3.7.8 1.9-.1 3.5.2 3.5.7 0 .6-1.1 1-2.4 1-1.4 0-2.8.4-3.1 1-.3.5.1 1 .9 1 2.8 0 2.7 2-.9 9.5-2.8 6-4.2 7.9-7 9.2-2.8 1.3-3.9 1.4-5.7.4-1.3-.7-3.9-2.1-5.8-3.1l-3.5-1.9 3.3-.1c2.2 0 3.2-.5 3.2-1.5s-1-1.5-2.9-1.5c-4.4 0-4.7-1.8-.4-2.2 2-.2 3.8-.9 4.1-1.6.3-.9-.6-1.2-2.9-1.1-5.7.4-9.9-.1-9.9-1.1 0-.6 1.8-1 3.9-1 4.2 0 6.4-1.6 3.7-2.6-.9-.3-3.7-.7-6.3-.8-7-.2-7-2.6.1-2.6 4.3 0 5.6-.3 5.6-1.5 0-1-1-1.5-3.2-1.5-5 0-10.8-1.2-10.8-2.1 0-.5 2.4-.9 5.4-.9 4.9 0 7.7-1.2 6.3-2.7-.4-.3-4-.8-8.2-1.2-8.6-.7-10.2-2.6-2.1-2.6 5.6 0 8-1 5.7-2.4-.7-.5-4.5-1.1-8.4-1.5-11.7-1.1-10.5-2.6 2-2.6 8 0 11.4-.4 12.2-1.3 1.5-1.9.4-2.7-3.8-2.8-2.6-.1-2.9-.3-1.1-.6 6-.9 7-1.4 7-3.2 0-2.1 2.3-3.1 5.5-2.5 1.1.2 4.9.4 8.5.5zm261 .4c0 .8-.4 1.5-1 1.5-.5 0-1-.7-1-1.5s.5-1.5 1-1.5c.6 0 1 .7 1 1.5zm-281.2.2c-1.6.2-4 .2-5.5 0-1.6-.2-.3-.4 2.7-.4s4.3.2 2.8.4zM209 241c0 .5-.4 1-1 1-.5 0-1-.5-1-1 0-.6.5-1 1-1 .6 0 1 .4 1 1zm12.6 2.1c5.6 2.6 7.1 4.4 5.4 6.4-1.9 2.2-5 1.8-7.2-1-1.1-1.4-2.5-2.5-3.2-2.5-2.1 0-4.9-2.6-4.2-3.8 1.1-1.8 4.5-1.4 9.2.9zm162.7-.7c.6 1.5-.1 2.6-1.5 2.6-.4 0-.8-.9-.8-2 0-2.3 1.5-2.7 2.3-.6zm-303.5 2.3c-1 .2-2.8.2-4 0-1.3-.2-.5-.4 1.7-.4 2.2-.1 3.2.1 2.3.4zm276.2.7c0 .8-.4 1.7-.9 2-1 .7-2.3-1.9-1.4-2.8 1.1-1.1 2.3-.6 2.3.8zM202.5 247c-.3.5-1 1-1.6 1-.5 0-.9-.5-.9-1 0-.6.7-1 1.6-1 .8 0 1.2.4.9 1zm194.4.1c1.7.6 3.1 1.7 3.1 2.5 0 1.6-2.6 1.9-3.5.4-.3-.6-1.4-1-2.5-1-1 0-2-.7-2.4-1.5-.6-1.8.9-1.9 5.3-.4zm-55.9 5.4c-1.5 5.3-3 6.8-3 3 0-2.7 3-8.9 3.8-8 .3.2-.1 2.5-.8 5zm7-2.1c0 .3-.4.8-1 1.1-.5.3-1 .1-1-.4 0-.6.5-1.1 1-1.1.6 0 1 .2 1 .4zm59.5.8c1.4.6 2.5 1.5 2.5 2 0 .4 1 .8 2.3.8 1.3 0 3.3 1.4 5 3.6 2.9 3.5 2.9 3.5 1.3 8.2-1.5 4.5-1.5 4.8.4 6.4 2.3 1.9 2.4 2.8.9 8-.9 3.5-3.9 5.5-3.9 2.7 0-.8-.4-.8-1.2-.1-1.6 1.2-5.2 1.2-13.5 0-5.5-.9-6.3-1.3-6.3-3.2 0-2.9 3.2-11.6 4.3-11.6.4 0 .5.4.2 1-.3.5.1 1 .9 1s1.7-.4 2.1-.9c.3-.6 1.8-.6 3.8.1 4.5 1.5 5.8 2.8 5.2 4.9-.3 1.1-.8 2.9-1.1 4.1-.6 2-.5 2.1.9.9.9-.7 1.4-1.7 1.1-2.2-.5-.8.6-5 2.7-10.6 1.1-2.9-.8-4.1-2.5-1.7-1.8 2.3-3.9.9-3.2-2.2.4-1.3.2-2.4-.3-2.4s-1.1.9-1.4 2.1c-1 3.6-3.2 1.6-2.9-2.6.2-2.4-.3-4.4-1.3-5.5-1.6-1.8-1.3-4 .5-4 .5 0 2.1.5 3.5 1.2zm-211.8 3.5c-1.6 1.6-1.7 1.6-1.7-.3 0-2.6 1.1-3.7 2.4-2.4.7.7.5 1.6-.7 2.7zm44.7 1.4c2.5 2.2 4.6 4.4 4.6 4.9 0 1.5-4.1 1.9-4.7.4-.3-.9-1.3-1.2-2.9-.8-1.8.5-2.4.2-2.4-.9 0-.9-.9-1.9-2-2.2-2.1-.7-2.4-1.4-1.4-3.9 1-2.6 3.9-1.8 8.8 2.5zm127 1c2.2-1.9 4.2 1.4 2.8 4.4-1.5 3.2-3.2 3.2-3.2 0 0-1.9-.4-2.3-1.7-1.8-1.3.5-1.5.2-1-1.1.4-1 .8-3 .9-4.4.1-2.3.2-2.1.5.6.3 2.6.7 3.1 1.7 2.3zm-14.2-.9c-1.5 1.5-2.6.4-1.8-1.8.5-1.3.9-1.5 1.8-.6s.9 1.5 0 2.4zm39-1.7c0 .5-.5 1.1-1.1 1.3-.6.2-1.1-.4-1.1-1.3s.5-1.5 1.1-1.3c.6.2 1.1.8 1.1 1.3zM213 256.1c0 .5-.4.9-1 .9-.5 0-1-.7-1-1.6 0-.8.5-1.2 1-.9.6.3 1 1 1 1.6zm12.8 1.6c-.2 2-.8 3.8-1.4 4-.9.3-1.2-4.5-.5-7.5.1-.1.6-.2 1.2-.2s.9 1.6.7 3.7zm97 1.8c1.5 4.7 1.2 10.1-.5 9.7-.8-.1-1.3.9-1.3 2.9 0 2.1-.4 2.9-1.2 2.5-.7-.3-2.1-.9-3-1.2-4.9-1.7-1.9-19 3.2-18.1.8.1 2.1 2 2.8 4.2zm74.8-2.1c.3 2.2-.5 4.6-1.6 4.6-.9 0-2-5.2-1.3-6.3.8-1.3 2.6-.2 2.9 1.7zm-168 .8c-.3 1.3-.6 2.9-.6 3.5 0 .7-.4 1.3-1 1.3-.5 0-1-1.6-1-3.5 0-2.6.4-3.5 1.6-3.5 1.2 0 1.5.6 1 2.2zm150.6 1.8c-.6 1.1-1.2 3.3-1.2 4.9 0 3.5-.9 6.1-2.1 6.1-1.4 0-1-5.2.6-8.4.8-1.5 1.5-3.8 1.5-4.9 0-1.7.3-1.8 1.2-.9 1 1 1 1.7 0 3.2zm-170.6 2.7c7.6 8.5 13.3 22 10.5 24.8-.5.6-1.1 2.3-1.3 4-.2 1.8-.9 3-1.8 3-2.1 0-2.4-3.2-.6-6 1.8-2.8 2.1-6.5.5-6.5-.7 0-.9-1-.5-2.5.4-1.4.2-2.5-.3-2.5s-1.3 1.5-1.6 3.2c-.4 1.8-1 3.7-1.4 4.3-1.6 2.2-3.3 9.3-2.7 11.2.5 1.5.1 2.2-1.5 2.6-3 .8-1.5 2.5 1.7 1.9 1.5-.3 2.9-1.3 3.2-2.4.2-1 1-1.7 1.6-1.5 1.7.6 1.9 3.7.3 5.5-.7.9-1.4 3.5-1.4 5.6-.1 2.7.2 3.5.8 2.5.5-.8.9-2.2.9-3.1 0-1.8 1.8-3.4 2.7-2.4.3.3.2 1.3-.3 2.3-.8 1.8-1.1 2.9-1.3 5 0 .6-1.1 1.3-2.3 1.5-1.3.2-2.9 1.5-3.6 3-1.4 3-2.8 3.6-3.4 1.6-.5-1.5-2.8-.1-2.8 1.8 0 .8.6 1.4 1.4 1.4 2.2 0 2.7 1.6 1.5 4.4-1.4 3-2.7 3.3-3.6.8-.4-.9-1.2-2.2-1.9-2.7-.6-.6-1.4-2.3-1.7-3.8-.4-2.5 0-3 4.2-5.2 3.7-1.8 5-3.1 5.8-5.9.6-2 .9-3.6.6-3.6-.3 0-3.2 1.4-6.5 3l-6 3.1.7-3.3c.8-4 3.2-12 5-16.8.7-1.9 1.6-5.4 2-7.7.5-3 1.6-5 3.7-6.8 2.6-2.2 2.9-2.9 2-4.8-.6-1.2-1.2-2.9-1.5-3.7-.2-.9-1.1.1-2.1 2.5-1.5 3.5-1.8 3.8-2.8 2.2-.5-1-.8-2.7-.5-3.8.4-1.6.2-1.9-1.5-1.3-2.2.7-2.2 0-.2-6.5.5-1.8.4-2.3-.7-1.9-.8.3-1.8 1.8-2.3 3.4-.5 1.6-1.2 3.8-1.6 4.9-.5 1.1-1.4 4.2-2.1 7-.7 2.7-2.3 7.3-3.5 10.1-2.3 5.3-4.1 12.4-3 12.4.9 0 3.6-5.8 3.6-7.8 0-1.1.6-2.5 1.4-3.1.7-.6 1.9-3.8 2.7-7 1.3-6.1 3.4-10 4.6-8.8.4.4.2 2.2-.5 4-.6 1.7-1.2 4.8-1.3 6.7-.2 1.9-.9 4.3-1.7 5.3-.8.9-1.8 3.4-2.1 5.5-.5 3-1.3 4.1-4.4 5.7-2.8 1.5-4.2 3.3-5.9 7.2-1.2 2.9-2.8 5.3-3.6 5.3-1 0-1.3-.7-.9-2.1.4-1.5.2-1.9-.9-1.5-2.5.9-1.5-1.9 1.6-4.6 1.7-1.4 3-3.2 3-3.9 0-.8-.5-.8-1.7.3-1 .9-2.7 1.8-3.8 2-1.4.2-2.1 1.3-2.3 3.3-.6 5.4-8.3 11.1-9.8 7.2-.6-1.7 2.3-8.7 3.7-8.7.6 0 .8.9.4 2.1-.5 1.5-.3 2 .6 1.7.6-.2 2.2-3.7 3.4-7.7 1.7-6 2.7-7.6 5-8.9 1.6-.8 3.7-2.4 4.8-3.6l1.8-2.1-.5 2.5c-.2 1.4-.8 3.5-1.1 4.7-.4 1.3-.3 2.3.2 2.3 1.4 0 3.2-4.3 3.9-9.3.4-2.3 1.7-6.5 3-9.4 1.2-2.8 2-5.4 1.7-5.7-.3-.3.5-3 1.8-6.1 2.2-5.4 2.5-5.6 5.4-5.1 1.8.4 4.6 2.4 7.1 5.3zm133.6.8c-.9 4.3-2 5.1-4.5 3.2-2.2-1.5-1.3-4.9 1.2-4.5.9.2 2-.7 2.6-2 1.3-3 1.7-1.4.7 3.3zm31.7-3.1c.8 1 .9 1.6.1 2.1-.5.3-1 1.5-1 2.5 0 1.9-1.7 3.6-2.6 2.7-.7-.7.8-8.7 1.6-8.7.4 0 1.3.6 1.9 1.4zm28.1 1.2c0 .8-.7 1.4-1.5 1.4s-1.5-.9-1.5-2c0-1.3.5-1.8 1.5-1.4.8.4 1.5 1.2 1.5 2zm20 5c0 .8-.7 1.4-1.5 1.4-1.5 0-2.1-2.1-.9-3.3 1-.9 2.4.2 2.4 1.9zm-34.9 1c1.2 3.2.3 6.4-1.8 6.4-1.5 0-1.5-1.2.2-5.3.4-1 .3-1.7-.3-1.7s-1.3.9-1.7 1.9c-.3 1.1-1.2 2.5-2 3.1-2.3 1.9-3.1-1.5-1.1-4.5 2.2-3.3 5.4-3.2 6.7.1zM313 267c0 .5-.4 1-1 1-.5 0-1-.5-1-1 0-.6.5-1 1-1 .6 0 1 .4 1 1zm42 .5c0 .8-.4 1.5-1 1.5-.5 0-1-.7-1-1.5s.5-1.5 1-1.5c.6 0 1 .7 1 1.5zm-118 .5c0 .5-.2 1-.4 1-.3 0-.8-.5-1.1-1-.3-.6-.1-1 .4-1 .6 0 1.1.4 1.1 1zm25.8.2c-.2.6-1 1.4-1.6 1.6-.7.2-1-.2-.6-1.2.7-1.8 2.8-2.2 2.2-.4zm100.2 1.3c0 1.4-.4 2.5-1 2.5-.5 0-1-1.1-1-2.5s.5-2.5 1-2.5c.6 0 1 1.1 1 2.5zm32.5-1.5c.4.6.1 2.7-.6 4.8-.7 2-1.3 4.5-1.4 5.4-.2 2.5-1.1 3.2-3.1 2.4-1.3-.5-1.5-1.4-.9-4.3 1.3-6.8 4.3-11 6-8.3zm-122.4 2.5c3.4 1.8 3 3.5-1 3.5-2.9 0-5.1-1.6-5.1-3.7 0-1.7 2.4-1.6 6.1.2zm63.3-.9c4 1.5-.8 4.9-5.5 3.9-3.5-.8-3.4-2.6.2-3.6 3.4-1 3.5-1 5.3-.3zm-29.5 1.3c1.2.8 1.3 1.2.1 2.5-1.2 1.5-1.4 1.5-3.1 0-1.1-1-1.9-2.1-1.9-2.6 0-1.1 3.1-1 4.9.1zm-23.7 4.3c-1.5 1.5-2.6.4-1.8-1.8.5-1.3.9-1.5 1.8-.6s.9 1.5 0 2.4zm83.2 1c-.3 2.4-1 5.6-1.5 7.2-1.2 3.8-.1 7.9 1.9 7.1 1.2-.4 1.3.1.8 2.7s-.1 3.9 2.2 6.7c2.9 3.7 4.5 7.8 3.4 8.5-.4.2-1.7 0-2.9-.5-1.6-.6-2.3-1.7-2.3-3.4 0-1.4-.4-3.3-.9-4.3-3.3-6.7-4.9-14.8-3.8-19.2.4-1.9 1.1-4.7 1.4-6.3.9-4.4 2.4-3.1 1.7 1.5zM241 274.7c0 1 1 4.7 2.1 8.3 2.7 8.3 4.1 21 2.6 22.9-.9 1-.7 1.6.6 2.6 1 .7 2 3.2 2.3 6.1.4 2.7 1.1 5.7 1.6 6.6 1.5 3.1-.6 2-3.6-1.8-1.6-2-4.3-4.2-6.1-5l-3.2-1.3-.8-11.3c-.5-6.2-.9-14-.9-17.3-.1-3.3-.7-7-1.3-8.2-1.9-3.1-1.7-3.3 2.7-3.3 3.1 0 4 .4 4 1.7zm58 .3c1.1 1.1 2 3.3 2 5.1 0 4.4 1.5 6.6 6 8.9l4 2 .1 13.8c.2 18.3 0 20.4-2.1 22.7-1.1 1.1-2.8 4.1-3.9 6.6-2.8 6.3-4 7.2-8 5.8-1.8-.6-5.2-.9-7.6-.6-2.5.4-4.7.2-5-.3-1.2-1.9 1.8-8.5 6.1-13.9 5.5-6.6 6-8.8 4-14.8-2.2-6.5-2.1-7.1 2.1-10.9 2.8-2.6 3.4-3.7 2.6-4.5-.9-.9-2.8-.6-7.5 1.1-3.5 1.3-7 2.9-7.9 3.7-.8.7-2 1.3-2.5 1.3-1.1 0-7.2-7.2-7.6-9-.2-.6 1.8-1.9 4.4-3 7.6-2.9 16.8-10.6 16.8-14.1 0-2.5 1.5-2.4 4 .1zm52.8.8c.2 1.4-.2 2.2-1.2 2.2-1.9 0-2.9-1.7-2.2-3.6.8-2.2 3-1.2 3.4 1.4zm-62.7 2.5c-1.7 1.7-2.4.1-1-2.5 1.2-2.1 1.4-2.1 1.7-.4.2 1-.1 2.3-.7 2.9zm136.2-.4c-.1 3.3-1.8 6.1-3.6 6.1-.9 0-.2-7.3.9-9.2 1.2-1.9 2.9 0 2.7 3.1zm-96.3-1.4c1.5 1.8.7 5.3-2.1 8.8-2.2 2.9-4.8 3.4-6.7 1.5-.9-.9-.5-1.7 1.4-3.5 1.8-1.6 2.3-2.9 1.9-4.3-.3-1.1-.3-2.4 0-3 .9-1.5 4.1-1.2 5.5.5zm11.3-.9c.3.3.3 1.3 0 2.1-.5 1.2-.7 1.2-1.4.1-1.5-2.3-.4-4 1.4-2.2zm20.3 4.1c-1.1 1.1-1.7-.4-.9-2.3.7-1.8.8-1.8 1.1-.1.2 1 .1 2.1-.2 2.4zm-155.8.8c-1.1 2.5-2.8 3.4-2.8 1.4 0-.6.5-1.9 1.1-3 1.5-2.8 3.1-1.3 1.7 1.6zm227.6-.4c2.1 2.4 2.4 3.4 1.5 4.5-1.3 1.6-2.9.9-2.9-1.4 0-1.4-.2-1.3-1.3.3-2.2 2.9-3.6 1.1-2.3-3 .6-1.9 1.4-3.5 1.8-3.5.3 0 1.8 1.4 3.2 3.1zm-98 16.4c-1.3 16.3-3.2 25.7-3.3 16.6-.1-5.5 1.9-32 2.6-34.1.4-1.3.5-1.3 1.2 0 .5.8.2 8.7-.5 17.5zm41.6-18.1c0 .3-.4.8-1 1.1-.5.3-1 .1-1-.4 0-.6.5-1.1 1-1.1.6 0 1 .2 1 .4zm-7.3 5.8c-.3.8-.6.5-.6-.6-.1-1.1.2-1.7.5-1.3.3.3.4 1.2.1 1.9zm-53.7.6c2.2 1.7 2.3 2.8 2.6 14.3.3 16.5-.6 33.1-1.9 32.6-.6-.2-.9-7.7-.8-20.9.2-19.7.1-20.8-1.8-22.7-2.1-2.1-2.8-5.1-1.2-5.1.5 0 1.9.8 3.1 1.8zm64.5 4c-.8 2.6-1.5 5.7-1.5 6.9 0 1.3-.4 2.3-.9 2.3-1.5 0-1.1-10.3.5-12.8 2.4-3.6 3.4-1.6 1.9 3.6zm4.9-2.2c.5 2.2.3 4.1-.4 4.9-.7.8-1 2-.7 2.7.6 1.7-1 4.8-2.5 4.8-.6 0-.8-.9-.3-2.3.7-2.4 1.6-7.9 1.8-11.5.3-3.4 1.4-2.6 2.1 1.4zm-9.9-.4c-.4 1.3-.6 3.6-.6 5.1.1 1.9-.3 2.7-1.1 2.5-2.8-.9-2-9.8.8-9.8 1.2 0 1.5.6.9 2.2zm15.7 5.8c-.2 3.6-1 7.5-1.8 8.7-.8 1.2-1.4 3.2-1.4 4.3 0 1.2-.7 5-1.6 8.5-3.3 13.1-5 4.7-1.9-9 .7-3.3 1.6-7.8 2-10 1.3-8.6 1.6-9.6 3.3-9.3 1.4.3 1.6 1.4 1.4 6.8zm-44.2-4.6c0 .8-.4 1.8-1 2.1-.5.3-1-.3-1-1.4 0-1.2.5-2.1 1-2.1.6 0 1 .6 1 1.4zm52.9-.5c2.1.6 2.2.8.8 1.9-1.3 1.1-1.7 1-2.5-.4-.7-1.3-1.1-.9-1.7 2.2-.7 4-2.1 6.4-3.6 6.4-1.4 0-1.1-3.8.6-6.9.8-1.6 1.1-3.1.8-3.5-.8-.8 2.4-.6 5.6.3zM202 288c0 .5-.5 1-1.1 1-.5 0-.7-.5-.4-1 .3-.6.8-1 1.1-1 .2 0 .4.4.4 1zm212.9 0c2.8 0 3.2.3 2.6 1.7-.4 1-.7 2.6-.7 3.5 0 1-.3 2-.9 2.3-.5.4-.9 1.6-.8 2.8v2.2l1.6-2.3c2.4-3.5 3.6-2.7 2.8 2-.7 4.5-2.9 7.8-5 7.8-.7 0-1.8 1.3-2.5 3-1.3 3.1-2 3.5-8.8 4.5-4 .7-4.7.4-7.7-2.5-2.5-2.4-3.2-3.8-2.6-4.9.5-.9.6-2.1.4-2.8-.2-.6.3-2.3 1.2-3.6.8-1.3 1.3-3.1 1-3.9-.4-.9.2-2.4 1.2-3.3 1.7-1.7 1.8-1.7 2.1-.1.2.9-.1 2.3-.7 3-.6.8-.8 2.1-.5 3 .4 1-.1 2.5-1 3.5-1.3 1.4-1.5 2.6-.8 5.7l.9 3.9 1.1-4c.6-2.2 1.4-5.9 1.8-8.3.4-2.3 1.1-4.5 1.5-4.8.5-.3.9-2 .9-3.8 0-4.4 1.7-5.9 6-5.2 1.9.3 5 .6 6.9.6zm23.3 2.2c-1.5 1.5-2.6.4-1.8-1.8.5-1.3.9-1.5 1.8-.6s.9 1.5 0 2.4zm-180.2-.7c.7.8 2.9 1.5 4.9 1.5 5.6 0 6.1.8 4.4 6-2.2 6.6-3.4 7.6-7.3 6-2.7-1.1-3.4-1.1-4.7.3-1.4 1.4-1.2 1.7 2.7 3.7 3.9 2 4.2 2.4 3.6 5.3-.4 2 0 4.3.9 6.1 1.8 3.4 1.4 4.2-1.3 2.7-2.2-1.2-3.5-5.1-2.6-7.6.4-1-.4-2.8-2.4-4.8-4.2-4.4-4.8-7-1.9-8.2 2.3-1.1 2.4-1.5 1.3-8.3-.6-4.3.2-5.3 2.4-2.7zm163.8.7c-.6 1.8-2.8 2.1-2.8.4 0-.9.7-1.6 1.6-1.6.9 0 1.4.5 1.2 1.2zm-200.1 3c-.3.7-.5.2-.5-1.2s.2-1.9.5-1.3c.2.7.2 1.9 0 2.5zm105.9-1c-.3 1.3-.9 11.3-1.2 22.3-.7 18.6-1.1 21.4-3.5 21.5-.9 0-1-1.7-1.1-23.9-.1-17.8 0-19.5 1.7-20.7 2.9-2.2 4.8-1.8 4.1.8zm-236 2.7c-1.4 1.5-2.6 3.7-2.6 5 0 2.8-2.4 2.3-2.8-.6-.4-2.4 5.2-8.8 6.9-7.8.7.5.2 1.7-1.5 3.4zM175 293c0 .5-.5 1-1.1 1-.5 0-.7-.5-.4-1 .3-.6.8-1 1.1-1 .2 0 .4.4.4 1zm174-.6c0 .3-.4.8-1 1.1-.5.3-1 .1-1-.4 0-.6.5-1.1 1-1.1.6 0 1 .2 1 .4zm88.4 2.7c-.3.5-1 .7-1.5.3-.5-.3-.7-1-.3-1.5.3-.5 1-.7 1.5-.3.5.3.7 1 .3 1.5zm3.4 3c.1 2.7-.3 3.9-1.1 3.6-.7-.2-1.2-.9-1.1-1.5.1-.7.2-2.3.3-3.7.2-4.1 1.9-2.8 1.9 1.6zM112 297c1.1 2.1.4 6.6-1.2 7.6-.5.3-.6-.5-.3-1.8s.1-3.6-.4-5.1c-1.2-3.2.3-3.7 1.9-.7zm318 3.6c0 6.7-2.7 11.5-6 10.7-1.4-.4-2 0-2 1 0 2.1-1.9 3.2-3.2 1.9-1.5-1.5.7-5 3.4-5.4 1.4-.2 2.4-1.3 2.9-3.2l.8-2.8-2.4 2.2c-3.3 3.1-4 2.1-2.5-3.9 1.3-5.3 3.6-6.8 4.3-2.9.3 2.2.4 2.2 1.5-.5 1.9-4.4 3.2-3.2 3.2 2.9zM169.5 297c.3.5.1 1-.4 1-.6 0-1.1-.5-1.1-1 0-.6.2-1 .4-1 .3 0 .8.4 1.1 1zm52.5 1c0 1.1-.7 2-1.5 2s-1.5-.9-1.5-2 .7-2 1.5-2 1.5.9 1.5 2zm9.6-.5c1.1 2.7-.2 3.7-1.4 1.1-.7-1.6-.8-2.6-.1-2.6.5 0 1.2.7 1.5 1.5zm-132.3 4c1.4 4.6 1.4 4.6-.6 3.2-2.9-1.9-4.1-4.1-3.4-6.1 1.1-2.8 2.4-1.8 4 2.9zm260.7 2.3c0 1.3 1 3.7 2.1 5.4 2.2 3.1 1.8 4.4-1.5 5-1.6.2-2-.4-2.2-3.2-.2-1.9-.4-4.2-.5-5-.1-.8-.1-2.9 0-4.5.1-2.3.3-2.7 1.1-1.5.5.8 1 2.6 1 3.8zm89.7.6c-1.1 2.7-2.7 1.7-2.7-1.6 0-3 .1-3.1 1.6-1.6.9.9 1.4 2.4 1.1 3.2zm-172 1.2c3.1 3.4 4.3 5.4 4.3 7.7 0 2.9 0 3-2 1.2-1.1-1-2-2.5-2.1-3.4 0-1-.2-1.2-.6-.4-.7 1.9-2.3 1.6-2.4-.5-.1-1.6-.2-1.6-.6 0-.2 1-1 1.8-1.7 1.8s-2.1.9-3.1 2c-1.1 1.2-2.2 1.7-2.7 1.2-1.3-1.3 1.3-6.4 2.9-5.8 1.1.5 1.2-.2.7-2.9-1.3-6.9 1.3-7.2 7.3-.9zm-88.3 9c-.9 2.4-2.1 4.4-2.5 4.4-1.1 0 0-8.8 1.4-11.5.6-1.1 1.2-2.5 1.3-3 .4-3 .8-2.5 1.1 1.3.3 2.5-.3 6.1-1.3 8.8zm34.6-11.4c0 .7.3 2.3.6 3.5.5 1.7.2 2.3-.9 2.3-.8 0-1.8.8-2.1 1.7-.5 1.2-1 1.3-1.8.5-.9-.9-.7-1.6.5-3 .9-1 1.7-2.8 1.7-4 0-1.2.5-2.2 1-2.2.6 0 1 .6 1 1.2zm64.5.8c-.4 1.1.1 4.3 1 7.1 1.4 4.1 1.5 5.5.5 8-1.7 4-2.9 3.6-2.7-.9.3-8.6-.3-13.2-1.8-13.2-2.1 0-1.9-1.8.3-2.3 3.1-.8 3.3-.7 2.7 1.3zm103.5 1.4c0 3.5-1.5 5.5-2.9 4-1-1.1.6-7.4 1.9-7.4.6 0 1 1.5 1 3.4zm41.2-1.2c-.7.7-1.2.8-1.2.2 0-1.4 1.2-2.6 1.9-1.9.2.3-.1 1.1-.7 1.7zm-87 1.3c0 .5-.5 1.1-1.1 1.3-.6.2-1.1-.4-1.1-1.3s.5-1.5 1.1-1.3c.6.2 1.1.8 1.1 1.3zm92.4 1.7c-.3 1.3-.9 4-1.2 6-.6 3.8-2.9 6.7-4.1 5.4-.4-.3-.1-2.1.5-3.9.7-1.9 1.2-4.2 1.2-5.3 0-2.1 1.7-4.4 3.3-4.4.5 0 .7 1 .3 2.2zm-276.3-.6c.3.3.2 1.4-.3 2.3-.5.9-1.1 2.4-1.4 3.3-1 3.3-2.8 2-2.1-1.5 1-4.6 2.1-5.8 3.8-4.1zm4.3 1c-.3.9-.6 2-.6 2.5s-.4.9-1 .9c-1.1 0-1.4-3.3-.3-4.3 1.2-1.3 2.5-.7 1.9.9zm65.7 10.4c.5 8.1.3 9.5-1.6 12.8-5.3 9.2-8.5 5.1-4.8-6.2 2.5-7.6 2.6-8.8.6-6.2-2.4 3.2-2.8 1.1-.9-4.1 3.8-10.3 5.9-9.1 6.7 3.7zm201.1-7.3c-.4 1.6-1.1 3.6-1.6 4.6-.5 1-.7 2.6-.3 3.6.8 2.5-2.3 5.1-3.6 3-.5-.8-.7-2-.4-2.7.2-.7-.4-1.2-1.5-1.2-2.9 0-2.5-2.9.5-4 1.4-.5 2.5-1.5 2.5-2.3 0-1.7 2-3.7 3.7-3.7 1 0 1.1.8.7 2.7zm-225.4-.3c0 1.6-1.8 3.1-2.7 2.2-.8-.8.5-3.6 1.7-3.6.5 0 1 .6 1 1.4zm132.1 3.8c.6 2.4 2 6.3 3 8.8 1.7 4 1.9 6.2 1.5 18.7-.6 15.9-1.5 18.5-5.9 18.1l-2.8-.3-.3-10c-.2-5.8.1-10.6.7-11.3.8-.9.7-1.9 0-3.1-.7-1.1-.8-5.4-.2-13.1.9-13.5.7-12 1.9-12 .5 0 1.4 1.9 2.1 4.2zM416 312c0 .5-.4 1-1 1-.5 0-1-.5-1-1 0-.6.5-1 1-1 .6 0 1 .4 1 1zm-213.2 1.2c-.6 1.8-2.8 2.1-2.8.4 0-.9.7-1.6 1.6-1.6.9 0 1.4.5 1.2 1.2zm-86.5 3c2.6 3.4 1.5 4.9-1.6 2.1-1.2-1.2-3.8-2.8-5.7-3.7l-3.5-1.5 4.4.2c3.5.2 4.8.8 6.4 2.9zM96.5 315c.4.6-.7 1-2.5 1s-2.9-.4-2.5-1c.3-.6 1.5-1 2.5-1s2.2.4 2.5 1zm292.1 2.2c-.3 1.3-.6 2.9-.6 3.5 0 .7-.7 1.3-1.5 1.3-1.8 0-1.9-.9-.5-4.4 1.2-3.2 3.5-3.5 2.6-.4zm55.4 3c0 2.7-5.7 9.8-7.9 9.8-2.1 0-1.1-2.5 2.1-5.3 2.1-1.8 2.5-2.4 1.1-1.8-3.8 1.9-3.8-1.8-.1-6.6 1.6-1.9 4.8.7 4.8 3.9zm-228.6-3.3c.3.5-.1 2.3-1 4-.9 1.8-1.3 3.8-1.1 4.6.3.7-.1 1.6-.9 1.9-.8.3-1.4 1.4-1.4 2.4 0 2.4-2.6 5.9-3.6 4.9-1.3-1.2 5-18.7 6.7-18.7.4 0 1 .4 1.3.9zm185.1 3.1c2 0 3.5.7 4.3 2 .7 1.2 1.7 1.8 2.3 1.4.6-.3 2.2-.3 3.5 0 1.9.5 2.3 1 1.5 1.9-1.3 1.6.9 8.6 3.1 9.8 2.2 1.2.9 8.3-1.6 8.7-1.7.4-1.8 0-1.2-3.9.7-4.2.6-4.3-.9-2.1-2.1 2.9-3.8 1.8-3-1.9.4-1.8.3-2.9-.4-2.9-.6 0-1.1 1.5-1.1 3.3 0 1.8-.9 4.9-2 7-1.3 2.4-1.8 4.6-1.4 6.2.5 1.9.2 2.5-1 2.5-1.3 0-1.5-.9-.9-6.3.3-3.4 1-7 1.4-7.9 1.2-2.2 1.1-4.8 0-4.8-.5 0-1.1 1.5-1.5 3.2-.3 1.8-.8 4.4-1 5.8-1.8 9.7-2.3 11.7-3.1 13-.5.8-.9 2.4-1 3.5 0 1.1-.7 2.1-1.7 2.3-1.8.3-1.8-2.2 0-15.5.7-5.8.7-6.1-1-4.7-2.5 2.3-4.3.8-2.4-2.1.8-1.2 1.7-5.7 2-10.1l.6-7.9-1.6 5.5c-.8 3-1.9 5.9-2.4 6.4-.4.4-.6 2.2-.4 4 .5 3.6-.5 5.6-3.2 6-1 .2-2.1 1.1-2.2 2.2-.3 1.5-.1 1.7.9.6 2.4-2.2 3-1.3 2.3 3.4-.5 3.4-.4 4.5.5 4 .6-.4 1.1-1.7 1.1-3 0-2.3 3.2-6.1 4.2-5 .6.6-2.7 14.2-3.7 15.2-.4.4-1.2-.1-1.9-1-1.5-2-2.6-1.4-2.6 1.5 0 1.1-.5 1.7-1.2 1.4-.7-.2-1.2-1-1-1.6.4-1.8-2.3-1.3-5.2 1-3.4 2.7-4.1 2-2.6-2.5.7-2.2 1.6-3.3 2.4-3 1 .4 1.7-1.3 2.5-6.2.7-3.7 1.9-8.1 2.8-9.8 1.4-2.7 1.7-2.8 2.3-1.2.8 2.4 2.6-3.2 4-12.2 1.2-8.2 2.2-9.5 5.8-7.6 1.5.8 4.1 1.4 5.7 1.4zm-230.4-1c1.2.7 1.9 2.1 1.9 3.9 0 2.5-3.6 15-4.6 16-.2.3-1.1-.4-1.8-1.5-1.4-1.8-1.5-1.8-3.4 0-1.2 1-2.5 1.5-3 1.2-1.1-.7 1.8-13 3.5-14.7 1.8-1.8 2.9 1.6 1.4 4.7-.6 1.4-1.1 3.1-1.1 3.9 0 2.5 2 1.7 3.1-1.3.7-1.5 1.6-3.7 2.1-4.8 1.1-2.3.2-6.4-1.6-7.6-1.8-1.2 1.2-1 3.5.2zm72.7 2.9c1.8 2.2 3.2 5 3.2 6.2 0 1.2.5 3.9 1.1 6 .9 3 .9 4.2-.1 5.4-2 2.4-3 .8-3.2-4.8-.1-5-.2-5.1-.5-1-.2 2.4-.8 4.3-1.2 4.3-.9 0-2.1-4.9-2.1-8.7 0-1.4-.7-3.7-1.6-5.3-1.6-2.7-1.4-6 .4-6 .5 0 2.3 1.8 4 3.9zm111.7-2.9c1.1 1.7-.5 3.2-2.1 1.9-.7-.6-1.1-1.5-.8-2 .7-1.2 2.1-1.1 2.9.1zM222 320.4c0 .8-.4 1.7-.9 2.1-1.2.7-2.4-1.2-1.6-2.5.9-1.5 2.5-1.2 2.5.4zm55.3.1c.4.8.2 1.7-.3 2-.6.4-1-.3-1-1.4 0-2.5.6-2.7 1.3-.6zm86.7 0c0 .8-.9 1.5-2 1.5-2 0-2.6-1.1-1.3-2.3 1.2-1.3 3.3-.7 3.3.8zm-82.2.6c-.2.6-.8 1-1.3 1s-1.1-.4-1.3-1c-.2-.6.4-1.1 1.3-1.1s1.5.5 1.3 1.1zm95 .6c.9 1 2.8 2.5 4.1 3.4l2.4 1.5-2.6 4.5c-1.5 2.5-2.7 5.3-2.7 6.1 0 .8-.9 2.7-2.1 4.2-1.5 1.9-1.9 3.4-1.5 5.2.5 1.9 0 3.3-1.9 5.5-1.4 1.7-2.5 3.4-2.5 3.9 0 .4-1.6 2-3.5 3.4l-3.5 2.7-1.1-2.5c-.9-2-.8-4.4.6-11.3 1.5-8 2.1-9.3 6.6-14.4 4.2-4.8 4.9-6.3 4.9-9.8 0-4.6.3-4.8 2.8-2.4zm-215.8-.2c0 .4-.8 2-1.7 3.8-1.3 2.4-1.8 2.8-2.1 1.5-.4-2 1.4-5.8 2.8-5.8.6 0 1 .2 1 .5zm-61.2 2c-.2.5-1.2.9-2.3.8-9-.9-11.5-2.6-3.2-2.1 3.2.2 5.6.7 5.5 1.3zm12.6 12.3c.4.7 1.6 5.9 2.6 11.6 2 10.9 7.1 23.5 13 32 1.7 2.6 2.8 5.1 2.5 5.6-1 1.7-3.2 1.1-3.8-1-.7-2.5-3.8-2.6-6.8-.1-2.2 1.8-2.3 2-.6 2.7 1.4.5 1.6.9.6 1.5-1.8 1.1-3.9-.9-3.9-3.6 0-1.4.7-2.5 2-2.8 2.9-.7 2.5-2.5-.7-2.9-2-.2-2.9-1-3.5-3.3-1.6-6.1-4-23.4-4.7-35.3-.5-6.8-1.3-12.8-1.9-13.4-.9-.9-.7-1.7.6-3.1 1.6-1.8 1.7-1.7 2.7 4.5.6 3.5 1.4 6.9 1.9 7.6zm36.8-10.6c-.8.8-.9.4-.5-1.3.4-1.3.8-1.8 1.1-1 .2.7-.1 1.8-.6 2.3zm29.8-1.8c0 .8-.4 1.7-.9 2.1-.5.3-.9 1.9-.9 3.6.1 1.6-.4 3.5-1 4.1-.7.7-1.2 2-1.2 3s-.7 1.8-1.5 1.8c-2 0-2-5 0-7.6.8-1 1.5-2.8 1.5-4 0-2 1.7-4.4 3.2-4.4.4 0 .8.6.8 1.4zm90 .1c2.5 1.3 4.2 4.5 2.4 4.5-1.4 0-4.5-2.2-5.4-4-1.3-2.4-.8-2.5 3-.5zm100 0c0 .8-.4 1.5-1 1.5-.5 0-1-.7-1-1.5s.5-1.5 1-1.5c.6 0 1 .7 1 1.5zm-247.5 1.2c.3 1 2.1 3.5 4.1 5.6 3.2 3.4 3.6 3.6 5.1 2.2 1.4-1.4 1.7-1.4 3.2 0 2.4 2.1 3.4 1.9 2.8-.5-.3-1.1-.2-2.2.3-2.5 1.4-.9 3 2.1 3.6 6.7.7 4.9-.8 7.2-2.5 3.9-.8-1.4-2-1.9-4.3-1.8-3 .2-3.3.5-3.3 3.2 0 2.1-.5 3.1-1.9 3.3-1.5.3-1.8 0-1.3-1.9.4-1.6-.3-3.3-2.3-6-1.7-2-3-4.2-3-4.8 0-.6-.4-1.1-1-1.1-1 0-3-6-2.3-7.3.7-1.3 2.1-.8 2.8 1zm63.2-.1c.3.8.1 2-.6 2.7-.6.6-1.1 2.1-1.1 3.3 0 2.5-2.5 5-3.4 3.5-.8-1.3 2.3-11.1 3.5-11.1.6 0 1.2.7 1.6 1.6zm72 9.9c.4 11.2-.2 13.5-3.8 13.5-1.2 0-1.9-.7-1.9-2 0-1.7-.4-1.9-2.6-1.4-1.9.5-2.5.4-2-.5.4-.6 1.3-1.1 2-1.1 2.5 0 4.6-4.7 4.6-10.5 0-5.3 1.5-10.3 2.7-9.1.3.3.7 5.3 1 11.1zm-65.2-9.5c.3.5-.1 1-.9 1-.9 0-1.6-.5-1.6-1 0-.6.4-1 .9-1 .6 0 1.3.4 1.6 1zm93.5 1c0 .5-.7 1-1.6 1-.8 0-1.2-.5-.9-1 .3-.6 1-1 1.6-1 .5 0 .9.4.9 1zm-5.9 3.3c-.1 1.2-1.5.9-1.9-.4-.3-.6.1-1 .8-.8.6.3 1.1.8 1.1 1.2zm85.4-.3c.3.5-.1 1-.9 1-.9 0-1.6-.5-1.6-1 0-.6.4-1 .9-1 .6 0 1.3.4 1.6 1zm-167.7 3c.4 2.1.2 2.2-1.2.7-1.9-1.9-2.1-4-.3-3.5.6.3 1.4 1.5 1.5 2.8zm-40.3 2.9c-1.7 3.5-4 3.3-2.9-.2 1-3.3 2.6-4.9 3.6-3.9.6.6.3 2.2-.7 4.1zM115 332c0 .5-.5 1-1.1 1-.5 0-.7-.5-.4-1 .3-.6.8-1 1.1-1 .2 0 .4.4.4 1zm74.4 2.1c-.8 1.4-3.4 1.1-3.4-.4 0-.8.3-1.7.7-2 .9-.9 3.4 1.3 2.7 2.4zm29-1.5c.5 1.4.4 1.5-.9.4-1.7-1.4-1.9-2-.6-2 .5 0 1.2.7 1.5 1.6zm51.5-.7c2.5 1.6 3.9 6.3 2.9 9.8-.5 2-.5 4 .1 5.1.6 1 .7 2.9.4 4.1-.3 1.2 0 6.4.6 11.4 1.9 14.2 1.9 14.4 1.1 15.7-.4.6-1.8 1-3.1.8-2.2-.3-2.5-.9-3.6-10.3-.7-5.5-1.9-15.2-2.8-21.5-2-15.4-2-16 .8-16 1.2 0 2.8.4 3.6.9zm80.5 10.8c-.8 12.6-2 13.9-1.7 2 .2-12.2.2-11.7 1.3-11.7.7 0 .9 3.2.4 9.7zm-115.9-6c1.2 4.3.5 9.5-1.7 13.1-1.6 2.6-2.4 3.1-4.2 2.6-2.9-.9-3.1-1.3-1.8-2.6.7-.7 1.2-2 1.2-3 0-2.5 4-12.8 5-12.8.4 0 1.1 1.2 1.5 2.7zm79.1-.9c2.9 2.4 4.4 5.5 3.5 7-.5.9-1.1.4-2-1.4-.9-2-1.5-2.4-2.3-1.6-1.9 1.9-2.4 1.4-2.5-2.3-.1-4 .3-4.2 3.3-1.7zm117.1.8c-.9.9-2.8-.6-2.1-1.8.4-.6 1-.6 1.7.1.6.6.8 1.3.4 1.7zm-70.5.7c-.8 1-1.8 3.7-2.1 6-.4 3-1.1 4.3-2.5 4.5-1.7.4-1.8-.1-1.1-5.5.4-3.2.8-6 1-6.3.2-.3 1.7-.5 3.3-.5 2.9 0 3 .1 1.4 1.8zm-148.5.9c-.3.8-.6.5-.6-.6-.1-1.1.2-1.7.5-1.3.3.3.4 1.2.1 1.9zm7 0c-.3.8-.6.5-.6-.6-.1-1.1.2-1.7.5-1.3.3.3.4 1.2.1 1.9zm88.9 5c-.9.5-1.6 1.8-1.6 2.8 0 2.2-1.6 2.7-2.3.7-.6-1.7 1.2-4.9 2.4-4.2.5.4.9-.5.9-1.8 0-3.5 1.4-4.4 1.8-1.1.2 1.7-.2 3.1-1.2 3.6zm20.8-1.6c-1.7 2.5-3.4 3.2-3.4 1.2 0-1.6 3.1-4.9 4.1-4.2.5.3.2 1.6-.7 3zm-135-.4c.3 1.3.6 2.7.6 3.3-.1 1.5-3-2.7-3-4.2 0-2.2 1.7-1.5 2.4.9zm-72.2 1c-.7.7-1.2.8-1.2.2 0-1.4 1.2-2.6 1.9-1.9.2.3-.1 1.1-.7 1.7zM135 341c0 .5-.4 1-1 1-.5 0-1-.5-1-1 0-.6.5-1 1-1 .6 0 1 .4 1 1zm143.9 6.7l-.2 7.8-1-6.2c-.9-5.6-.6-9.3.8-9.3.3 0 .4 3.5.4 7.7zm-121.4-3.5c.7 1.8 1.1 3.7.7 4.3-.3.5-1.2-.5-1.9-2.3-.9-2.1-1.8-3-2.8-2.6-1 .4-1.5 0-1.5-1 0-3 4-1.8 5.5 1.6zm27.5.3c0 1.9-.4 3.5-1 3.5-.5 0-1-1.6-1-3.5s.5-3.5 1-3.5c.6 0 1 1.6 1 3.5zm-14.2 1.6c-.3.8-.7.3-1.1-1-.4-1.7-.3-2.1.5-1.3.5.5.8 1.6.6 2.3zm40.2.6c0 .7-.7 1.3-1.5 1.3-1.5 0-2.1-3.1-.8-4.3.8-.8 2.3 1.2 2.3 3zm104-1.7c0 .5-.4 1-1 1-.5 0-1-.5-1-1 0-.6.5-1 1-1 .6 0 1 .4 1 1zm9.4 2.2c1 3.8.7 7.3-.8 9.3-1.2 1.6-1.4 1.2-1.8-4.1-.3-3.2-.4-6.2-.1-6.7.8-1.4 2.1-.7 2.7 1.5zm6.5 3.5c0 4.2-.3 5.2-.9 3.8-1.2-2.8-1.2-9.5 0-9.5.6 0 1 2.5.9 5.7zM105.7 354c.7 4.1 1.7 10.2 2.2 13.5 3.9 23.3 6.2 29.8 9.4 26.6.6-.6 2.5-1.1 4.2-1.1h3l-3 1.9c-2.7 1.8-3.6 1.8-8.3.7-2.9-.6-5-1.5-4.6-1.9 1.4-1.4-2-3.7-5.6-3.7-2.1 0-5.7-.7-8-1.5s-5.8-1.5-7.6-1.5c-1.9 0-3.4-.5-3.4-1 0-.6 1-.8 2.3-.6 6.3 1.3 11.7 1.6 11.7.7 0-1.4-3.4-3.1-6.2-3.1-4.6 0-5-1.2-2.4-7.1 1.3-3 3.6-10.5 5.1-16.7 2.2-9.2 3.2-11.5 4.9-12.2 4.2-1.7 5-.8 6.3 7zm35.7-6.2c-.1.6-.2 2.8-.2 4.7-.1 1.9-.7 3.5-1.3 3.5-.6 0-.9-1-.8-2.3.2-1.2-.2-3.2-.9-4.3-.6-1.2-.8-2.4-.5-2.8 1.1-1.1 3.8-.2 3.7 1.2zm146.4-.5c.6.7 1.5 3.3 2.1 5.7 1.7 7.6 8.4 14 14.7 14 4 0 4.7 1 4.7 6.5 0 4.9-.8 6.5-3 6.5-2 0-8.3-6.4-8.3-8.4 0-4.6-6.2-1.6-8 3.9-2.1 6.3-3.4 3.5-4.8-10-1.7-16.1-.8-22.3 2.6-18.2zm-83.8.7c0 .5-.4 1.2-1 1.5-.5.3-.7 2-.3 3.6.3 1.7.2 3.4-.3 3.8-1.5 1-3.8 6.4-3.5 8.3.1.9-.3 1.9-.8 2.3-1.5.8-5.1-1.3-5.1-3 0-.9-.6-1.2-1.5-.9-.9.4-1.5 0-1.5-.8 0-2 3-5.9 4-5.3.5.3 1.4-.4 2-1.5.6-1.1 1.4-1.9 1.8-1.7 1 .3 1.3-1 .6-2.8-.4-.8-.1-2.1.4-2.8 1.2-1.5 5.2-2 5.2-.7zm38 0c0 .5-.4 1-1 1-.5 0-1-.5-1-1 0-.6.5-1 1-1 .6 0 1 .4 1 1zm21.1 15c.5 6.3 1.3 14 1.9 17 1.4 7.9 1.7 13 .8 13-1.7 0-2.6-4.2-3.7-16.5-.6-7.2-1.7-16.2-2.3-20.1-.6-4-.7-7.8-.3-8.5 1.4-2.2 2.6 2.8 3.6 15.1zm31.6-11.3c-.3 1-.5.2-.5-1.7s.2-2.7.5-1.8c.2 1 .2 2.6 0 3.5zm-85.9 1.2c-.5 2.4-3.8 2.7-3.8.3 0-1 .3-2.1.6-2.5 1.1-1.1 3.5.5 3.2 2.2zm6-.7c-.4 2.7-2.8 3.6-2.8 1 0-2 .8-3.2 2.2-3.2.5 0 .8 1 .6 2.2zm34.2 3.2c-1.3 1.4-3-.3-3-3.1v-2.5l1.9 2.3c1.1 1.3 1.6 2.8 1.1 3.3zm66.5-3.4c0 .7-.6 1.5-1.2 1.7-.8.3-1.3-.4-1.3-1.7 0-1.3.5-2 1.3-1.8.6.3 1.2 1.1 1.2 1.8zm-165.3 2.2c-.6.6-1.5.8-1.9.4-.4-.4-.1-1.1.7-1.6 1.9-1.2 2.7-.3 1.2 1.2zm70 .5c1 .9 1.8 2.6 1.9 3.7 0 1.2.3 1.5.6.8.2-.6 1.4-1.2 2.4-1.2 1.8 0 2 .6 1.7 4.7-.3 4.5-2.7 7.5-2.9 3.6-.1-1.6-.2-1.6-.6-.1-.5 2.2-1.1 2.2-5.7.3-3.8-1.6-4.8-2.8-1.9-2.3 1 .2 1.9-.4 2.1-1.5.2-1-.3-1.7-1.2-1.7-1.8 0-2.1-3.2-.6-6.1 1.3-2.3 1.8-2.4 4.2-.2zm86.1 6.4c.8 2.9-1.9 3.6-5.1 1.2-2.4-1.8-4.7-7.5-3.4-8.7.9-.9 7.9 5.3 8.5 7.5zM408 354c0 .5-.4 1-1 1-.5 0-1-.5-1-1 0-.6.5-1 1-1 .6 0 1 .4 1 1zm-164.7 8.2c3.2 10.1 4.3 22.8 2.1 22.8-1 0-1.4-1.1-1.4-3.7 0-2.3-.9-5-2.5-7.4-1.4-2-2.8-5.2-3.2-7.2-.6-4.2.4-12.7 1.6-12.7.5 0 2 3.7 3.4 8.2zm112.2-7.2c.3.5.1 2.7-.6 4.9-1 3.4-.9 4.4.5 6.6 2 3.1 1.8 8-.4 8-1.1 0-1.8-2.2-2.6-9-1.1-8.3-1.9-9.3-1.5-1.8.2 3.2-1.1 4.4-2.5 2.2-.4-.8-.9-.7-1.5.2-1.4 2.3-1-4.2.4-7.1.7-1.3 2.4-3 3.7-3.7 3-1.5 3.7-1.6 4.5-.3zm-168.7 3.2c-.6 1.8-2.8 2.1-2.8.4 0-.9.7-1.6 1.6-1.6.9 0 1.4.5 1.2 1.2zm18.7.8c0 .7-.6 1.5-1.2 1.7-.8.3-1.3-.4-1.3-1.7 0-1.3.5-2 1.3-1.8.6.3 1.2 1.1 1.2 1.8zm6.9-.3c.9 2.2-1 4.1-2.5 2.6-1.3-1.3-.5-4.3 1-4.3.5 0 1.2.8 1.5 1.7zm107.6-.2c1 1.2 1 1.5-.4 1.5-.9 0-1.6-.7-1.6-1.5s.2-1.5.4-1.5.9.7 1.6 1.5zm-131 1.1c0 .8-.5 1.2-1 .9-.6-.4-.8-1.1-.5-1.6.9-1.4 1.5-1.1 1.5.7zm143.5.5c-1 1.5-2.5 1-1.9-.6.4-.8 1-1.2 1.5-.9.5.3.7 1 .4 1.5zm-80.7 2.6c1.7 4.2 2 18.3.5 18.3-1.6 0-2-2.2-2.7-12.8-.5-8.3.3-10.4 2.2-5.5zm76.2-.9c0 .4-.5 1.3-1 1.8-1.4 1.4-1.6 7.8-.7 18.4.7 8.3.6 8.5-1.9 10.3-1.4 1.1-2.8 1.7-3 1.4-.3-.3-.6-6.7-.7-14.3l-.1-13.7 3-2.3c3-2.5 4.4-3 4.4-1.6zm73.5.2c.3.5.1 1-.4 1-.6 0-1.1-.5-1.1-1 0-.6.2-1 .4-1 .3 0 .8.4 1.1 1zm-13.2 6c-.7 2.6-1.1 2.9-1.9 1.9-.8-1-.7-2.3.4-4.9 1.8-4.1 2.8-2.1 1.5 3zm-50.2-4c1 .6 1.9 1.8 1.9 2.7 0 .8 1.4 3.1 3 5 3.7 4.1 3.7 5.1.5 5.9-3.2.8-3.4.6-4.3-4.7-.6-3.2-1.3-4.5-2.7-4.7-2.6-.5-4.5-2.1-4.5-3.8 0-1.6 3.3-1.8 6.1-.4zm-134.6 2.1c.8 2.3.1 3.4-1.4 2.4-1.3-.8-1.5-4.5-.2-4.5.5 0 1.3.9 1.6 2.1zm6.5-.2c0 1-.7 2.1-1.5 2.5-1.5.5-2.2-2.4-.8-3.7 1.2-1.3 2.3-.7 2.3 1.2zm69.7 1.3c-.3.8-.6.5-.6-.6-.1-1.1.2-1.7.5-1.3.3.3.4 1.2.1 1.9zm36.2 8.7c.5 4.5.6 9.4.2 10.9-.6 2.1-.9 1.1-1.4-4.3-.8-8.2-.9-16-.2-15.4.2.3.9 4.2 1.4 8.8zm56.5 1c1.9 1.9 1.9 2.1.3 3.9-1.2 1.3-1.5 2.8-1.1 4.9.5 2.6.1 3.5-2.6 5.9-1.8 1.6-4.1 4.2-5.2 5.9l-1.8 3 .6-3.5c.4-1.9 1.2-3.8 1.8-4.2.8-.5.7-.8-.1-.8-.7 0-1.3-.7-1.3-1.5s-.4-1.5-1-1.5c-1.4 0-1.3 1.7.1 2.6.8.4.4 1.3-1.2 2.4-1.9 1.5-2.1 2.1-1 3.4.7.8 1 1.9.7 2.4-.9 1.6-5.1.2-6.1-2-.6-1.2-1.7-2.5-2.5-3-2.8-1.5-7.5-3.1-8.5-2.9-.5.1-.4-.3.3-1 1.7-1.8 1.5-3.9-.5-3.9-.9 0-3.1 1.1-5 2.6-5.2 3.9-3.9 1.4 2.5-4.8 5.2-5.1 6.2-5.6 11.2-6.1 3-.3 7.3-1.5 9.5-2.6 4.6-2.3 8-2 10.9.8zm-73.4 4.5c2.1 3.2 3 5.6 3 8.5 0 5.1-1.7 5.4-2.5.3-1.1-6.5-1.5-6.9-1-1 .6 6.2-1.1 8.2-2.2 2.7-.3-1.8-1.4-3.4-2.3-3.6-1-.3-2.3-1.6-2.9-3-1.1-2.3-.9-2.9 1.5-5.4 1.5-1.6 2.9-2.9 3-2.9.2 0 1.7 2 3.4 4.4zm85-.9c0 1.5.7 3.9 1.5 5.5 1.7 3.4.7 4-1.9 1.1-.9-1-1.4-2.5-1.1-3.4.4-.8.2-1.8-.4-2.2-1.6-.9-1.3-3.5.4-3.5.9 0 1.5.9 1.5 2.5zm-51 2.6c0 1.6-.4 2.9-1 2.9-.5 0-1-1.6-1-3.6 0-2.1.4-3.3 1-2.9.6.3 1 1.9 1 3.6zm-49.8-.4c1.9 1.7 1.4 4.5-.7 3.7-.8-.3-1.5.7-1.9 3.1-.4 1.9-1.1 3.3-1.6 3-1.1-.7-2.4-10.1-1.6-11.4.8-1.2 3.4-.4 5.8 1.6zm-7.2.3c0 .5-.4 1-1 1-.5 0-1-.5-1-1 0-.6.5-1 1-1 .6 0 1 .4 1 1zm34.4 4.2c1 7.3 1 11.1.2 16.5-.8 4.7-1 5.1-3 4.3-1.1-.5-2.9-1.1-4-1.4-1.5-.5-1.6-.9-.6-2.1 1.6-1.9.2-3.8-2.4-3.1-1.7.4-1.6 0 1-2.2 3.8-3.3 5.8-8.2 5.1-12.1-.6-3-.1-4.1 1.9-4.1.7 0 1.5 1.8 1.8 4.2zm-176.9 1.7c-.3.6-1.4 1.1-2.3 1.1-1.5-.1-1.5-.2.2-1.5 2.1-1.6 3.2-1.3 2.1.4zM84 390.5c.7.9 3 1.5 5.4 1.5 4.4.1 11.9 2.8 8 2.9-3 .1-13.6-1.9-15.7-3-1-.6-1.5-1.4-1.2-2 .9-1.3 2.1-1.1 3.5.6zm189 1.3c0 .9 1.4 3.1 3.2 4.9 3.2 3.3 2.1 4.7-1.6 2-1.8-1.3-4.2-10.2-2.5-9.1.5.3.9 1.3.9 2.2zm15.5 4.3c0 .8-.9 1.4-2 1.4-1.5 0-2.1-.8-2.3-2.9-.4-2.9-.3-2.9 2-1.4 1.2.8 2.3 2.2 2.3 2.9zM332 394c0 1.3-2.8 2.5-3.8 1.6-.3-.4 0-1.1.8-1.6 2-1.3 3-1.2 3 0zm45 0c0 .5-.4 1-1 1-.5 0-1-.5-1-1 0-.6.5-1 1-1 .6 0 1 .4 1 1zm-35.7 3.2c-1.4 2.8-1.8 3-2.1 1.4-.2-1.1.4-2.5 1.4-3.3 2.6-1.9 2.6-1.7.7 1.9zm-17 3.1c1 .6 1.9 2.6 2 4.2.2 2.4-.2 3.1-2.1 3.3-2 .3-2.2 0-2-3 .1-1.9-.2-3.9-.6-4.6-.9-1.6.6-1.5 2.7.1zm-59.6 8.8c4.3 2.3 9 5.2 10.5 6.4 1.5 1.3 4.9 3.1 7.5 4.1 2.6 1 5 1.9 5.2 2.1.3.2-1.1 1.6-2.9 3.2-3.4 2.8-3.4 2.8-1.7 5.5 1.1 1.6 2.7 2.6 4.2 2.6 1.3 0 2.6.3 2.8.7.6 1.1-2.1 7.3-3.2 7.3-1.7 0-6.1-6.2-6.1-8.6 0-1.5-.6-2.4-1.5-2.4-.8 0-2.4-.6-3.6-1.3-1.7-1-2.2-.9-3.9 1.3-1.8 2.3-2 2.3-2 .5 0-1.1.7-4.2 1.5-6.9s1.5-5.5 1.5-6.3c0-1.8-2.5-1.7-4 .2-1.1 1.3-3.8 12.9-5.7 24.2-.4 2.6-1 3.3-2.7 3.3-3 0-6.6 2.7-6.6 5.1 0 1.1 1.1 4.2 2.5 6.9 3.3 6.5 3.2 8.3-.5 9.7-2.6 1-3.2.9-4.5-1-1.7-2.5-2-8-.4-10.8.7-1.5.7-2.4-.2-3.5-1.8-2.2-3.9-1.7-7.3 2-2.8 3-9.6 7.4-9.6 6.2 0-.3.5-1.7 1.1-3.3.6-1.5 2.4-7.1 3.9-12.3 3.7-12.8 9.7-27.6 13.1-32.4 1.5-2.1 2.5-4.4 2.2-5.2-.9-2.4 2.4-1.6 10.4 2.7zM317 406c0 .5-.4 1-1 1-.5 0-1-.5-1-1 0-.6.5-1 1-1 .6 0 1 .4 1 1zm33 .4c0 .3-.4.8-1 1.1-.5.3-1 .1-1-.4 0-.6.5-1.1 1-1.1.6 0 1 .2 1 .4zm-34 8.5c0 .6-.4 1.3-1 1.6-.5.3-1 1.7-1 3.1 0 1.4-.4 2.2-1 1.9-.9-.5-.5-4.7.7-6.8.6-1 2.3-.9 2.3.2zm-75 5.7c-1.1 2.1-3.4 7.6-5.2 12.2-1.7 4.6-3.9 8.7-4.8 9.2-.9.5-3 4.3-4.6 8.5-3.2 8.4-5.7 11.8-8.2 11.3-3.3-.7-1.3-6.4 7.1-20 6.7-10.8 17-25.8 17.5-25.4.1.2-.7 2-1.8 4.2zm112.4.8c-.9 1.4-2.3 2.6-3 2.6-2.1 0-1.7-1.1 1.3-4.2 3.1-3.3 4.3-2.2 1.7 1.6zm-121 2.4c.5.8-5 9.5-6.4 10-2.3.8-1.8-2.3 1.1-6.3 3.2-4.5 4.3-5.2 5.3-3.7zm111.6 1.1c0 .5.3 1.6.6 2.4.9 2.4-3.2 3.1-6.6 1-3.8-2.2-3.8-3.1.3-3.6 1.7-.2 3.8-.5 4.5-.5.6-.1 1.2.2 1.2.7zm-14 .9c0 .5-.6 1.6-1.2 2.5-1.6 2-4.4.7-3.5-1.7.6-1.6 4.7-2.3 4.7-.8zm25.3 4.4c3.7 7.7 4 9.3 2.1 10.8-1.3 1.2-1.7 1.1-2.5-.1-.5-.8-.7-2.5-.4-3.8.5-1.9.3-2.2-1.1-1.7-5.1 1.9-7.5-2.9-3.7-7.4 1.4-1.7 2.6-3 2.8-3 .1 0 1.4 2.4 2.8 5.2zM320 427c0 .5-.7 1-1.6 1-.8 0-1.2-.5-.9-1 .3-.6 1-1 1.6-1 .5 0 .9.4.9 1zm41.5 2.1c.9 1.7 1.4 3.6 1.2 4.2-.4 1-3.7-5.1-3.7-6.8 0-1.3 1.1-.2 2.5 2.6zm-58 6.6c-.3 4.3-1 10.5-1.6 13.8-.5 3.3-.8 9.6-.7 14 .3 7.5.2 8-1.8 8.3-2.8.4-3.2-1.5-4.3-19.8-.5-8-1.2-15.3-1.6-16.2-.5-1.3 0-1.9 1.8-2.3 1.4-.4 3.5-1.8 4.8-3.1 1.2-1.3 2.6-2.4 3.1-2.4s.6 3.5.3 7.7zm5.5 13.8c-.6 9.1-.8 17.4-.5 18.5.3 1 .2 2.1-.3 2.4-2.3 1.4-2-29.5.4-37.3 1.3-4.2 1.4 1.6.4 16.4zm14.4-15.8c.3 1 .7 4.5 1.1 7.8.6 7.2 2.3 20.6 3.1 25.5l.6 3.5-3.2-3c-1.8-1.7-3.8-4.3-4.6-5.8-1-1.7-2.6-3-4.5-3.4l-3-.6.6-11.5c.3-6.3 1-12.1 1.6-12.8 1.7-2.1 7.7-1.8 8.3.3zm14.3.3c1 1.1 2.3 2 3.1 2 .7 0 1.9 1.5 2.7 3.4.8 1.8 2.6 4.8 4.1 6.5 1.7 2 2.1 3.1 1.2 3.1-2.8 0-5.8-3.2-7.3-7.8-1.4-4.3-1.5-4.4-1-1 .3 2.1.2 3.8-.2 3.8-.9 0-6.3-9.5-6.3-11 0-1.6 1.9-1.1 3.7 1zm-60.1 3.2c.9 1.8 2.8 4.5 4.2 6 2.3 2.5 2.4 3.1 1.3 5.4-.6 1.5-.9 2.9-.6 3.2 1.1 1.1 4-1.5 4.3-3.9.5-2.9 2.1-5.1 3.3-4.3 1.7 1 .9 6.1-1.2 8-1.7 1.5-2 2.7-1.6 6.1.4 4.2-.9 8.1-2 5.5-1-2.6-7.6-9.7-8.7-9.3-3.5 1.2-5.6.7-8.2-2l-2.7-2.9 1.9-4.2c2.7-6.2 5.7-10.8 7.1-10.8.7 0 2 1.5 2.9 3.2zm87.8 1.6c.3.5-.4 1.6-1.5 2.6-1.4 1.2-1.9 2.5-1.5 3.9.8 3.4-.7 4.9-4.5 4.5-3.8-.3-4.6-2.1-1.1-2.6 1.2-.2 2.2-.8 2.2-1.3s.7-2.5 1.4-4.4c1.4-3.3 3.8-4.6 5-2.7zM220 443.5c0 .8-1.3 3.6-2.9 6.2-1.6 2.7-3.2 5.8-3.6 7-.3 1.3-1 2.3-1.4 2.3-.6 0-4.1-5.3-4.1-6.3 0-.4 4.4-6.4 7-9.5 1.5-1.7 5-1.5 5 .3zm111 3.7c0 3.8-.5 3.4-1.3-1-.4-2.1-.3-3.1.3-2.7.6.3 1 2 1 3.7zm39.9.8c2.1 4.2 2.7 7 1.3 7-1.1 0-3.4-4.1-4.3-7.7-1-4.5.5-4.1 3 .7zm-29.5 2.8c2 1.2 3.3 3.1 4.1 6.2 6.5 23.5 6.5 23.1 4.8 25.7-1.3 1.9-1.5 4-.9 9.9.7 9.1 1.4 10.4 5.7 11.9 2.2.7 3.3 1.6 3 2.5-1.5 5.6-1.3 7 1.3 8 2.7 1 3.3 2.4 1.6 3.5-.5.3-1 1.4-1 2.4 0 3.3-3.4 6.3-8 7.1-5.5 1-6.6.2-7.5-5.3-.4-2.3-2-8.1-3.6-13-2.9-8.7-4-20.5-1.9-19.2.6.3 1 1.8 1 3.3 0 1.5.7 5.2 1.6 8.2.8 3 2.2 8.8 2.9 12.9 1.5 8.2 1.7 8.6 4.1 7.7 1.4-.5 1.5-1.4.9-5.4-.4-2.6-.8-6.2-1-8.1-.2-1.8-.8-4.5-1.4-6-1.1-2.9-2.7-10.9-3.6-18.9-.6-4.4-1.1-5.5-3.1-6.2-2.9-1.1-3.1-3.3-.4-6 2.4-2.4 2.5-3.9.4-4.7-.8-.3-1.3-1.1-1-1.8.2-.7-.2-3.9-.9-7.2-2.4-9.8-2.1-10.6 2.9-7.5zm-81.4.8c0 .8-.4 1.2-1 .9-.5-.3-1-1-1-1.6 0-.5.5-.9 1-.9.6 0 1 .7 1 1.6zm92 2.6c0 .7.3 2.4.6 3.8l.5 2.5-1.5-2.5c-1.8-2.9-2-5-.6-5 .6 0 1 .6 1 1.2zm-16 14c0 .5-.4.8-1 .8-1.6 0-2.7-3.2-3.3-9.5l-.6-6 2.4 7c1.3 3.8 2.5 7.3 2.5 7.7zm29.7-12.5c.2.6-1.1 1.8-2.8 2.7-2.6 1.3-3.4 1.4-4.1.4-1-1.6-1-3.3-.1-4.2 1.1-1.1 6.6-.3 7 1.1zm-96.9 3.5c1.4 1.8 2.5 7.8 1.5 7.8-1.6 0-5.5-6.1-4.9-7.6.7-1.7 2-1.8 3.4-.2zm-61.9 2c.6 1.6.2 3.6-1.3 6.6-1.5 3.3-1.8 4.7-1 6 1.7 2.7 2.8 2 3.5-2.2.4-2.2 1.5-4.6 2.5-5.3 1.9-1.4 6-1 7.7.6.9.9-8.3 20.1-9.6 20.1-.5 0-.7-1.2-.4-2.7.3-1.5.3-3.3 0-4-.6-1.6-4.5-1.7-6-.2-1.7 1.7-4.3.3-4.3-2.4 0-1.2 1.6-4.7 3.5-7.7s3.5-6.7 3.5-8.2c0-3.4.8-3.6 1.9-.6zm170.6.8c.8 1.6 1.5 3.4 1.5 4 0 1.6-3 1.2-3.6-.5-.6-1.4-.8-1.4-1.8 0-.9 1.2-1.5 1.3-3.6.2-4.8-2.4-2.4-6.2 4.2-6.6 1-.1 2.4 1.2 3.3 2.9zm-132 3.7c2.7 5.8 2.8 8.2 1 17-.7 3.2-.7 3.2 1.9 2 1.8-.9 2.8-2.4 3.6-5.9 1.4-5.8 3.4-7.8 5.6-5.6 1.9 1.9.9 6.4-1.6 7.8-1 .5-2.1 2.3-2.5 3.9-.8 4-2.7 5.3-6.7 4.9-2.9-.3-3.3-.7-3.6-3.6-.3-2.6-1-3.5-3.6-4.6-8.6-3.6-10.2-14.5-2.5-17.6 1.6-.7 3.4-1.8 4-2.6.6-.8 1.3-1.4 1.4-1.4.2 0 1.5 2.6 3 5.7zm-16.5 1.9c-1.6 4.2-1.1 8.9 1.1 11.8 2.2 2.8 2.2 2.8.2 4.8s-2 2-4.9-.5c-2.8-2.5-2.8-2.5-1.5-7.6.7-2.9 1-6.7.6-8.7-.4-2.3-.2-4.1.6-5.1 1.2-1.3 1.5-1.3 3.1.7 1.3 1.6 1.5 2.7.8 4.6zm132.9-1.7c-.3.6-1 .7-1.8.2-.7-.5-1-1.4-.6-2.1.9-1.4 2.9.2 2.4 1.9zm-82.5 11.9c2.2 15.8 3 29.8 1.8 30.6-1.7 1-2.3-2.5-2.7-15.4-.2-6.9-.9-15.7-1.4-19.5-1.3-9-1.4-10.6-.1-8.5.5.9 1.6 6.6 2.4 12.8zm77.5-11.9c.9.6 1.4 3 1.5 7.1.1 4.3.6 6.5 1.7 7.3 2.2 1.7 3.2 4.7 1.5 4.7-2.1 0-4.1-3.9-5.9-11.5-2.2-9.3-2.2-9.7 1.2-7.6zm-35.4 5.7c2.1 2.9 3.5 5.9 3.6 7.8.2 6.6.4 7.1 2.4 7.1 1.5 0 2.1-.9 2.6-3.7.3-2.1.1-4.2-.4-4.7-.7-.7-.6-1.5.3-2.6 1.5-1.8 4.1-2 3.4-.2-.2.7.2 2.9 1 4.9 1.4 3.2 1.4 3.7.1 4.8-.8.7-1.5 2-1.5 2.9 0 3.5-7.7 5.7-10.4 3-.6-.5-1.7-.9-2.6-.9-.9 0-3.5-1.6-5.8-3.6-3.6-3-4.2-4.1-4.2-7.3 0-3.8 4.8-12.1 7-12.1.5 0 2.5 2.1 4.5 4.6zm-32.7-1.6c1.7.8 3.4 2.1 3.7 3 1.1 4.1 4.9 31.1 6.1 43.8.5 4.9 1.1 7.5 2.1 7.9.8.3 1.6.4 1.8.1.2-.2-.1-6.1-.6-13.1-.6-7-.8-13.5-.4-14.5.6-1.6.7-1.6 2 .1 2.6 3.5 4.3 29.5 2 30.3-.7.3-4.1-.2-7.5-1-4.3-1.1-6.7-1.3-8-.6-2.9 1.6-3.2 1.2-1.5-2 .8-1.6 1.5-4.5 1.5-6.4 0-1.9.4-3.7 1-4.1 1.5-.9 0-3.4-2.3-3.7-2.6-.4-3.5-4.7-3.6-16.5-.1-4-.6-10.6-1.2-14.7-1.1-7.2-.8-11.2.9-10.4.4.3 2.2 1.1 4 1.8zm82.4 3.2c2.2 3.9 8.8 19.1 10.7 24.6 1.2 3.5 2.8 7.4 3.7 8.7 1.4 2.1 1.3 2.4-1.2 4.4-1.5 1.2-3.2 2.1-3.8 2.1-1.2 0-3.6-6.7-3.6-10.1 0-1.2-1.5-5.1-3.2-8.5-2.9-5.8-3.1-6.7-2-9.6 1.5-4 .3-5.6-3.2-4-1.8.8-2.7.8-3.4-.1-1.3-1.6-2.5-9.3-1.8-10.6.8-1.2 6.8 1.1 7.8 3.1zm-100.5-.9c.7.7 1.5 4.7 1.7 8.9.3 4.3.7 8.1 1 8.6.3.5.8 4.6 1.1 9.1.5 6.5.3 8.2-.7 7.9-.8-.3-1.4-2.6-1.6-6-.5-9.1-4-10.2-8.7-2.8-1.4 2.2-3 4-3.5 4-1.8 0-.7-13.7 2.2-26.8 1.1-5.3 1.2-5.4 4.2-4.8 1.7.4 3.6 1.2 4.3 1.9zm34.7 8c.7 3.9 1.6 5.5 5.2 8.5 2.4 2 4.4 4.4 4.4 5.3 0 .9.7 2.2 1.5 2.9 2.5 2 1.7 3.3-1.5 2.7-3.6-.8-12.9-7.6-12.9-9.7-.1-.8-1-2.8-2-4.4-1.4-2-1.7-3.5-1.1-5 .5-1.2 1.1-2.9 1.4-3.9 1.1-3.6 4-1.5 5 3.6zm-109 5c2.4 1.7 2.5 2 1.2 4.5-.8 1.5-2.7 4-4.4 5.5-2.5 2.5-3 2.6-4.2 1.2-1-1.2-1-1.5.3-1.5 3.4 0 4-2.7 1.8-7.5-2.5-5.4-2.5-5.4-.4-8.5l1.7-2.4.7 3.4c.4 1.9 1.8 4.2 3.3 5.3zm190-5.1c.9 1.2 1.6 3.1 1.6 4 0 1.5-.5 1.7-2.7 1.2-3.5-.8-3.2-.5-3.9-4.2-.6-2.8-.4-3.2 1.4-3.2 1.2 0 2.8 1 3.6 2.2zM216.9 497c-1.7 5.2-3.4 10.6-3.8 12-1.1 3.7-6.2 3.6-7.5-.2-.8-2.2-.3-4.3 2.9-11.5 2.1-4.8 5-10.8 6.3-13.1l2.5-4.4 1.3 3.8c1.2 3.6 1.1 4.7-1.7 13.4zm21.5-11.1c.9 1.5-2.3 3.6-3.6 2.3-.5-.5-.7-1.5-.4-2.1.9-1.3 3.3-1.4 4-.2zm122.1 6.9c2 4.4 3.9 5.3 4.9 2.6.7-1.9 2.6-.9 2.6 1.5 0 1 .9 3 2.1 4.5 1.2 1.5 2.8 5 3.6 7.9.8 2.9 1.7 5.9 1.9 6.8.7 2.1-2.4 3.3-4.3 1.8-.7-.7-2.6-1.2-4-1.3-3.6-.1-3.9-2-.7-4.9 2.6-2.5 2.6-4.7-.1-4.7-.8 0-1.9-.9-2.4-1.9-.6-1-3.1-2.9-5.5-4-2.4-1.2-4.7-2.9-5-3.7-.8-2.1-.8-9.9.1-10.7 1.2-1.3 4.8 1.9 6.8 6.1zm-154-1.9c.3.5-.6 3-1.9 5.5-1.3 2.5-2.7 5.1-2.9 5.8-.4.9-1.2.6-2.7-1.1-1.8-2.1-1.9-2.6-.6-4 .8-.9 1.9-2.8 2.5-4.4 1-2.7 4.3-3.7 5.6-1.8zm22.2 7c-.3 3.1-1.6 9-2.9 13.1-2.2 7.1-2.6 7.5-5.5 7.8-2.8.3-3.2 0-3.8-2.8-1-4.4 1.1-11.4 3.7-12.5 1.3-.6 2.6-2.7 3.4-5.3 2.6-9 6-9.2 5.1-.3zm25.5 4.3c-.6 2.4-1.4 3.4-3.3 3.6-2.6.4-5.5 2.6-7 5.5-.7 1.2-.5 2.7.5 4.9.9 1.7 1.6 3.9 1.6 4.8 0 1 .7 2.3 1.5 3 1.1.9 1.3 1.6.6 2.3-1.5 1.5-14.4-5.2-13.7-7 .3-.7 2-6.2 3.7-12.1 3.5-12 4.4-13.5 7.3-12.8 1.2.2 3.7-.1 5.6-.7 3.5-1.2 3.5-1.2 3.8 1.9.2 1.8-.1 4.7-.6 6.6zm-17.2-6.9c0 1.3-.6 3.7-1.4 5.3-.8 1.6-2.2 6.2-3.1 10.1-1 4-2.2 7.3-2.6 7.3-1.4 0-1.1-1.7 1.5-10.4 1.3-4.5 2.7-9.6 3.1-11.4.8-3.7 2.5-4.3 2.5-.9zm93.3 10.3c1 8.3 3.7 19.3 4.9 20 .5.3 1.6 0 2.4-.7 1.7-1.4 2.9-.6 2.1 1.5-.8 2-7 3-10.7 1.7-2.2-.7-3.8-.7-5.5.1-3.5 1.6-5.5.4-5.5-3.4 0-2.9.1-3 1.4-1.3 2 2.7 4.6 1.2 4.7-2.7l.1-3.3 2 4.4c1.8 3.9 2.1 4.2 3.5 2.8 1.4-1.4 1.3-2.4-.6-9.9-2.2-9-2.6-17.1-.7-16.5.6.2 1.5 3.5 1.9 7.3zm-63.3-.8c0 .9 1.4 3.5 3 5.6 3.3 4.4 3.5 5.4 1.9 9-.9 2-1.8 2.5-4 2.2-4.4-.4-7.7-3.2-8.4-7-.9-4.4.1-7.3 3.2-10.2 2.7-2.5 4.3-2.4 4.3.4zm70.9 7.7c.1 1.7-.1 1.7-.9.5-.5-.8-.9-2.6-.9-4 0-2.3.1-2.3.9-.5.5 1.1.9 2.9.9 4zm-24.4 12.2c.4 2.5.2 3.3-.8 3.3-1.2 0-1.5-2-1.5-9.8v-9.7l.9 6.5c.4 3.6 1.1 8 1.4 9.7zm-60-11.3c.2 1.1.6 3 .7 4.1.2 1.1 1.8 2.9 3.5 4 1.8 1.1 3.2 2.6 3.3 3.2 0 1.7-.1 1.7-5.2-1.2-3.7-2-4.6-3.2-5.6-7-.7-2.6-1-5-.7-5.5.9-1.5 3.5.1 4 2.4zm70.5.4c0 2.1-.2 2.4-1 1.2-1.3-2-1.3-5.3 0-4.5.6.3 1 1.8 1 3.3zm40-2.8c0 .5-.2 1-.4 1-.3 0-.8-.5-1.1-1-.3-.6-.1-1 .4-1 .6 0 1.1.4 1.1 1zm-46 6c0 2-.2 2.2-1 1-.5-.8-1-2.6-1-4 0-2 .2-2.2 1-1 .5.8 1 2.6 1 4zm-33.2 1.7c.2 5-1.1 7.3-2.1 3.5-.4-1.3-.5-1.1-.6.6-.1 1.3-1 2.6-2.3 3.2-1.3.5-3.3 1.7-4.5 2.6-2.1 1.5-2.3 1.5-2.3.1 0-.9.5-1.9 1-2.2.6-.3 1-1.7 1-3.1 0-3.8 4.9-10.6 7.4-10.2 1.8.3 2.1 1.1 2.4 5.5zm-18.3 9.3c.3.5.1 1-.4 1-.6 0-1.1-.5-1.1-1 0-.6.2-1 .4-1 .3 0 .8.4 1.1 1zm-44.7 11.8c.2.7-1.5 5-3.7 9.6-2.3 4.6-4.1 8.9-4.1 9.5 0 .6-1.1 2.9-2.5 5.1-1.4 2.2-2.5 4.2-2.5 4.5 0 .4-1 2.1-2.3 3.8-1.2 1.8-3.3 6.5-4.7 10.5-1.3 4-2.8 7.6-3.3 7.9-1.8 1.1.3-7.9 3.9-16.7 3.7-9.1 4.4-12.6 1.5-7.1-1.8 3.3-1.9 3.4-2.6 1.2-.5-1.6.5-4.6 3.7-10.9 2.4-4.8 5-10.7 5.8-13.1.8-2.4 2.2-4.6 3.3-5 2.9-1.1 7-.7 7.5.7zm-11.4.1c.8 1.3-1.7 7.1-3.1 7.1-1.6 0-1.7-2.1-.1-5.5 1.2-2.6 2.3-3.2 3.2-1.6zm20.6.1c0 2.2-4.4 14-8.1 21.5-4.5 9.3-5 11.9-1.6 8.7 1.6-1.5 2.6-1.9 3.4-1.1.7.7 1.4.2 2.2-1.8 1.7-3.9 5.9-8.9 6.7-8 .9.9-4.4 12.7-6.4 14.4-.8.6-2 .9-2.8.6-.8-.3-1.8.6-2.5 2.4-.6 1.5-1.7 4-2.5 5.5-.8 1.4-1.4 3.4-1.4 4.3 0 1.4.4 1.2 2-.8 1.1-1.4 2-3.4 2-4.5 0-2.1 2.6-4.9 3.6-3.9.4.3-.3 2.2-1.5 4.2-1.1 2-2.1 4.4-2.1 5.4s-.8 2.9-1.9 4.2c-1 1.3-1.6 2.9-1.4 3.6.2.6-.5 2.8-1.6 4.9-1.2 2.1-2.1 4.3-2.1 4.8s-.6 1.7-1.3 2.5c-1.5 1.8-4 11.1-3.2 11.9.8.9 1.4-.2 3.6-6.2 1.1-3.2 3.3-8.5 4.8-11.9 1.6-3.4 3.2-7.3 3.6-8.7.4-1.4 2.5-6.2 4.6-10.8 2.1-4.5 3.9-8.8 3.9-9.6 0-.7.7-1.9 1.5-2.6.8-.7 1.5-1.8 1.5-2.5 0-2.2 6.9-16.5 7.9-16.5.5 0 1.1 1.2 1.3 2.7l.3 2.7 1.6-2.4c.9-1.4 2-4.1 2.4-6 .7-3.4.7-3.5-1.2-1.8-2.3 2.1-3.3 2.3-3.3.5.1-3 1.5-3.7 4.8-2.5 3.1 1.2 4.1 3.4 2.3 5.3-.5.6-1.6 3.4-2.6 6.3-.9 2.9-2.7 7.2-4 9.5-1.3 2.3-2.6 5.6-3 7.3-.6 3.3-3.9 7.1-4.8 5.7-.3-.5.8-3.9 2.3-7.6 1.6-3.7 2.5-6.7 2.1-6.7-1.4 0-2.8 2.2-4.4 7-1.3 3.9-3.4 8.7-8.5 20-.7 1.4-1.6 3.2-2.1 4-.6.8-2.4 5.5-4.2 10.5-1.8 4.9-3.9 9.8-4.7 10.7-.8 1-1.2 2.3-.9 3.1.2.7-.1 2.1-.9 3.1-.9 1.3-1 2.3-.2 3.5.8 1.3.5 2.9-1.1 6.7-1.2 2.7-2.2 5.1-2.3 5.4 0 .3-.9 2.2-1.9 4.2-1.1 2.1-1.5 3.8-.9 3.8 1.3 0 3.3-4.1 5.5-11.3 1.6-5.3 3.7-7.9 5.1-6.5.3.3-.2 2.5-1.1 4.9-.9 2.4-2.7 7.8-4.1 11.8-2.4 7.3-4.7 11.1-6.7 11.1-.5 0-.7-1.4-.3-3.3l.6-3.2-2 2.5c-1.1 1.4-2 3.5-2 4.6 0 2.6-3.6 7.4-5.6 7.4-2 0-1.8-1.7.7-5.1 1.1-1.6 1.9-3.7 1.7-4.7-.3-1.2-.9-.6-2.1 2.1-.9 2-2.4 4-3.4 4.4-1 .3-2.5 1.4-3.3 2.5-1.3 1.5-2.1 1.7-4 .9-1.4-.5-1.8-1-1-1 2.2-.1 4.2-7.7 3.4-12.8-.6-4.1 1-6.9 2.6-4.4 1.1 1.9 2.3-.4 5.4-10.4 1.5-5 3.3-10.1 4-11.5 2.9-5.8 3.9-10.9 2.7-12.4-.7-.9-.9-2.1-.5-2.8.5-.8-.3-.6-1.9.4-3.3 2.3-3.7 2.2-3.7-.1 0-1-.9-2.1-2-2.4-1.5-.4-2-1.4-2-4 0-4 .8-6.7 2.1-6.7.4 0 .3 1.4-.3 3.1-1.2 3.6-.3 5.3 1.1 1.8.5-1.3 2.8-6.4 5-11.3 3.1-6.5 4.5-8.6 5.3-7.8.8.8.7 1.8-.6 3.6-.9 1.4-1.6 3.4-1.6 4.4 0 1.1-.9 3.1-2 4.5-2 2.6-2.7 6.7-1.1 6.7.5 0 1.2-1.2 1.6-2.7.3-1.5 1.5-3.9 2.6-5.4 1-1.5 1.9-3.5 1.9-4.5 0-.9 1.1-3.7 2.5-6.1 2.6-4.3 2.5-4.7-.7-4.4-2.6.3-2.2-2.6.7-6.5 1.4-1.8 2.5-4.1 2.5-5.1 0-2.5 4.2-9.1 4.7-7.5.3.7-.6 3.4-2 6-1.3 2.6-2.7 6.3-3 8.2l-.7 3.5 2-2.5c2.1-2.7 2.9-4.3 5.6-11 .9-2.5 2.8-6.9 4.1-9.8 1.3-2.9 2.3-5.4 2.3-5.6 0-.2.7-2 1.5-4 1.4-3.3 3.5-4.9 3.5-2.6zm-6 1.5c-.6.8-.9 1.9-.5 2.5.3.5-.5 2.8-1.8 5.1-1.4 2.2-2.8 3.6-3.1 3.1-.8-1.3 4.4-12.2 5.7-12.2.5 0 .4.7-.3 1.5zm11 .2c0 2.9-2.3 8.2-3.8 8.8-1.2.4-1.4-.2-.9-3.5.5-4.1 2.1-7 3.8-7 .5 0 .9.8.9 1.7zm6 .2c0 1.2-2 2.5-2.7 1.8-.7-.7.6-2.7 1.8-2.7.5 0 .9.4.9.9zm56.2 4.3c-.7.7-1.2.8-1.2.2 0-.6.3-1.4.7-1.7.3-.4.9-.5 1.2-.2.2.3-.1 1.1-.7 1.7zm52.4.6c-.8.9-1.9 1.3-2.2.9-1-.9 1.6-3.8 2.8-3.1.6.4.4 1.3-.6 2.2zm6.4-1.1c0 2.4-4.3 13.3-5.2 13.3-1.3 0-.9-4.2.7-9.8 1-3.2 2.1-5.2 3-5.2.8 0 1.5.8 1.5 1.7zm-118 4.7c-1.3 3.9-5 7-5 4.1 0-.9.9-3.4 2.1-5.7 2.6-5.1 4.8-3.9 2.9 1.6zm17.4-4.6c.6 1-3.3 7.2-4.5 7.2-1.3 0-1.1-1.7.6-5 1.5-3 2.9-3.7 3.9-2.2zm33.3 4.2c.7 2.5 2.2 10.8 3.3 18.5 1 7.7 2.6 17 3.5 20.8.8 3.7 1.6 11.5 1.7 17.5.2 13.1-1.7 19.9-6.8 24-1.9 1.5-3.4 3.2-3.4 3.9 0 .6-1 2.7-2.2 4.6-2.1 3.1-3.4 3.8-11.8 6.2-5.2 1.5-10.6 3.3-12 4-3.6 1.9-17 4.5-22.8 4.5h-4.9l-.7-22.1-.7-22.1 7.7-15.1c4.3-8.4 11.5-22.6 16.1-31.7l8.4-16.5 10.2-.6c5.6-.3 10.8-.5 11.6-.5.8.1 2 2.1 2.8 4.6zm12.3 2.6c-.7 1.9-.9 3.8-.6 4.1.3.3.8-.3 1.1-1.3 2.1-7 6.3-11 8.8-8.5 1.2 1.2-.9 4.4-2.4 3.6-1.1-.7-2.5 2.1-3.2 6.5-.6 3.2-.6 3.4.8 1.6.8-1.1 1.5-2.3 1.5-2.8 0-.4.4-.8.8-.8.5 0 .5 2.1.1 4.7-1.1 6.5-1.1 8.5 0 7.9.4-.3 1.1-2.8 1.5-5.6.8-6.2 2.2-10 3.6-10 .7 0 .9 1.7.6 4.7-.6 4.6-.5 4.7.5 1.3.6-1.9 1.5-4 1.9-4.6.5-.5.7-1.9.4-3.1-.5-1.8-.1-2 3.5-2h4.1l-.6 4.1c-1 6.6-2.3 11-3.9 13.1-1.3 1.7-1.6 1.8-2.5.5-.8-1.2-1-1.1-1 .8 0 1.6.5 2.2 1.7 2 1.5-.2 1.7.3 1.5 3.2-.2 3 0 2.8 1.7-2 1-3 2.4-7.8 3.1-10.7 1.3-5.6 3.4-9.3 4.6-8 .4.4.3 2.2-.3 4-.6 1.7-1.9 6.8-2.9 11.2-.9 4.4-2.1 8.4-2.6 8.9-.4.6-.8 2.1-.8 3.5 0 2.5-.8 5.3-5.2 18.4-1.1 3.2-1.7 6.2-1.3 6.5.8.9 2.5-1.8 2.5-4.1 0-1 .7-3.2 1.6-5 1.5-2.8 3.4-9.3 8-28.3.8-3.4 2.1-7 2.9-8 1.3-1.8 1.4-1.8 2.1-.1.3 1-.1 3.7-1 6.1-.9 2.4-1.4 5-1 5.9.3.9-.1 2.6-1 3.9-.9 1.2-1.6 3.4-1.6 4.8-.1 3.1-3.2 14.8-4.7 17.6-.7 1.2-1 2.4-.7 2.7.3.2-.1 2-.9 3.9-2 4.7-3.1 12.8-1.8 12.8.6 0 1.3-1.1 1.6-2.5.3-1.4.7-3.6 1-5 .3-1.4 1.1-2.5 1.9-2.5 1 0 1.1 1.1.6 4.5-.8 5.6.6 4.9 2.1-1.1.6-2.4 1.5-4.4 2-4.4 3.6 0-3.5 14.6-7.3 15.2-1.8.2-2.4 1-2.6 3.5-.3 2.7-.7 3.3-2.8 3.3-1.6 0-2.4.6-2.4 1.7 0 1-.9 3.2-2 5-1.1 1.9-1.5 3.5-1 3.8 1.6 1 2.7-.3 3.5-4.1.5-2.9 1-3.5 2.5-3.1 1.3.3 2.1-.1 2.5-1.4 1-3 2.1-2.2 1.9 1.3-.1 2-1.3 4.1-3.3 6-1.7 1.6-3.4 4-3.7 5.4-.6 2.2-.7 2.3-1.9.8-1.2-1.6-1.3-1.6-2.2.2-.6 1-1.3 3.4-1.6 5.2-.6 2.9-.4 3.3 1.1 2.8s1.7-.1 1.4 2.9c-.5 3.8-2.2 4.9-2.2 1.4 0-1.8-.2-1.9-1.5-.9-1.3 1.1-2 .9-4-1-1.4-1.3-2.5-3.3-2.5-4.5 0-1.1-.9-2.8-1.9-3.7-1.7-1.4-1.9-2.6-1.5-7.8.4-6.1 4.3-18.1 6.8-21 2.2-2.5 3.6-7.9 3.6-13.6 0-5.4-1.3-7.5-3.3-5.5-3.4 3.4-5.5-2.4-3.2-9 .8-2.3 1.5-5.1 1.5-6.3-.1-1.9-.2-1.9-1.1-.3-1.5 2.5-2.9 1.1-2.9-2.9 0-2-.5-4.4-1-5.5-.8-1.4-.7-3.1.5-6.4 2.2-6.6 2-8.7-.6-5.5l-2 2.5.3-3.8c.2-2 0-3.7-.4-3.7s-.8-.9-.8-2 .6-2 1.4-2c.8 0 1.8-1 2.2-2.3.3-1.2 1.2-2.8 1.8-3.6 1.7-2.1 2 2 .6 6.5zm-43.3-4.4c-.3.8-.6.5-.6-.6-.1-1.1.2-1.7.5-1.3.3.3.4 1.2.1 1.9zm87.1 3.4c-.8 1.6-1.3 3.7-1 4.7.5 2.4-2.7 7.2-4 5.9-.6-.6-.4-2.1.5-4.3.8-1.9 1.4-4.9 1.5-6.6.1-4.5 1.1-5.9 2.9-4 1.3 1.3 1.3 1.8.1 4.3zM335 549c0 .5-.4 1-1 1-.5 0-1-.5-1-1 0-.6.5-1 1-1 .6 0 1 .4 1 1zm14.7 4.9c-.9 1.6-1.7 4.2-1.7 5.8 0 1.6-.7 3.8-1.5 4.9-1.3 1.8-1.4 1.7-1.5-1.8 0-2 .4-3.9.8-4.2.5-.3.9-1.9 1-3.6.1-3.8 2-6.6 3.6-5 .7.7.5 1.9-.7 3.9zm-10.2.3c-.4 2.4-1.4 5-2.2 5.8-1.4 1.3-1.5 1.1-.9-2.5 1-5.9 1.6-7.5 2.8-7.5.6 0 .7 1.6.3 4.2zm-5.5-.3c0 .6-.4 1.3-1 1.6-.5.3-1-.1-1-.9 0-.9.5-1.6 1-1.6.6 0 1 .4 1 .9zm-103.7.7c.7.8-4.2 10.4-5.4 10.4-1.3 0-1.1-1.2.5-3.5.7-1.1 1.6-3.2 2-4.8.6-2.6 1.6-3.4 2.9-2.1zm20.7 3.9c0 .2-.6 1.9-1.4 3.7-.8 1.8-2.6 6.2-4.1 9.8-1.5 3.6-3.3 7.8-4 9.5-.7 1.6-1.8 4.6-2.6 6.5-.7 1.9-3.1 7.3-5.5 12-2.3 4.7-4.7 10.4-5.3 12.5-1.1 4.1-5 10-5.1 7.7 0-2.1-1.8-1.3-2.2 1-.2 1.3-1 2.4-1.9 2.6-1.2.2-1.5-.4-1.1-2.7.3-2.2 1.2-3.2 3.3-4 2.3-.8 2.9-1.6 2.9-3.8 0-1.5 3.3-9.6 7.4-17.8 4.1-8.3 8.4-17.5 9.6-20.5 4.2-10.6 7.4-17 8.7-17 .7 0 1.3.2 1.3.5zm1.5 4.5c-.9 1.6-1.8 3-2.1 3-.2 0 .2-1.4 1.1-3 .9-1.7 1.8-3 2.1-3 .2 0-.2 1.3-1.1 3zm84.7 4.5c-.7 1.4-1.2 3.8-1.2 5.4 0 1.5-.7 3.6-1.5 4.7-.8 1-1.5 2.8-1.5 3.9s-.9 4.9-2 8.4c-1.2 3.8-1.7 6.8-1.2 7.3.6.6 2.8-1 5.4-3.6 3.2-3.2 4.8-4.2 5.6-3.4 1.1 1.1 1.5-.3 5.8-16.7 2.1-8 3.2-10.5 4.4-10.5 1.4 0 1.4 0-2.5 13.9-1.9 6.9-3.5 13.1-3.5 14 0 2.2-5 14.4-6.7 16.3-2.7 3.1-4.6 1.1-4.1-4.4.3-2.6.3-4.8 0-4.8s-2 1.1-3.8 2.5c-3.1 2.4-5.4 3.2-5.4 1.9 0-3 4.4-18.5 5.6-19.4.8-.8 1.2-2.1.8-3.6-.3-1.3.1-3.7 1-5.5.9-1.8 1.6-4.4 1.6-5.9 0-3.1 1.9-5.5 3.4-4 .6.6.5 1.9-.2 3.5zm5 1.1c-.2 1.3-.8 2.7-1.3 3-.5.3-.9 1.8-.9 3.4 0 1.6-.5 4.1-1.2 5.7-.6 1.5-1.2 3.2-1.2 3.8-.2 2.1-2.9 7.5-3.7 7.5-1.3 0-1-3.2.6-6 .8-1.4 1.4-3.9 1.5-5.7 0-1.7.4-3.4.9-3.7.4-.3 1.1-2.6 1.3-5.1.6-4.9 2.6-8.4 3.8-6.5.4.6.5 2.2.2 3.6zm2.8 2.9c0 1.4-.4 2.5-1 2.5-1.1 0-1.4-3.3-.3-4.3 1.1-1.1 1.3-.8 1.3 1.8zm-1 6.4c0 1.9-2.3 7.1-3.1 7.1-1.2 0-1.1-2.2.1-5.4.9-2.4 3-3.6 3-1.7zm-109 4c0 1.9-5 12.1-6 12.1-1.3 0-1.3-3.7 0-4.5.6-.3 1-1.4 1-2.3 0-1 .7-2.8 1.6-4 1.5-2.2 3.4-2.9 3.4-1.3zm-7 16c0 2.1-1.3 4.1-2.6 4.1-1.7 0-1.7-.5-.4-3.1 1.1-2 3-2.6 3-1zm77 6.7c0 4.1-1.6 7.7-3.1 6.8-.9-.5-.6-3.7.7-8.7.9-3 2.4-1.8 2.4 1.9zm-109.9 5.7c-1.3 1.3-2.6.3-1.6-1.2.3-.6 1.1-.8 1.7-.5.6.4.6 1-.1 1.7zm140.2 1.7c-.5 1.9-2.3 2.9-2.3 1.2 0-.7 2-3.2 2.6-3.2.1 0 0 .9-.3 2zm-137 2.5c-.5 1.6-3.3 2.1-3.3.7 0-1.3 2.2-3.2 3.1-2.6.5.2.6 1.1.2 1.9zm4.7-.8c0 1.4-1.9 3.8-2.5 3.2-.8-.8.5-3.9 1.6-3.9.5 0 .9.3.9.7zm129.6 10c-.4 2.7-.8 6.3-.9 8.2-.1 1.9-.8 3.6-1.5 3.9-1.1.3-1.2-1-.8-6.7.7-7.9 1.3-10.1 2.8-10.1.7 0 .8 1.7.4 4.7zM200 621.4c0 .3-.4.8-1 1.1-.5.3-1 .1-1-.4 0-.6.5-1.1 1-1.1.6 0 1 .2 1 .4zm28.4 4.3c.3 2.7.9 6.5 1.2 8.5.5 2.9.2 3.9-.9 4.4-3 1.1-3.6-.5-2.2-5.1.7-2.5 1-4.5.5-4.5-.4 0-1.1 1.4-1.6 3.2-1.1 3.8-4 5.4-3 1.7.3-1.3.8-3.5 1.1-4.9.4-2.4.4-2.3-.7.2-1.5 3.5-4.3 3.9-3.2.5 1.7-5.6 2.5-6.9 3.8-6.4.8.3 1.7-.1 2-.9 1.1-2.8 2.4-1.3 3 3.3zm-33.4-1.3c0 .8-.9 2.4-2 3.7-2 2.5-2.5 1.5-1.4-2.9.7-2.4 3.4-3.1 3.4-.8zm133 1c0 1.4-.4 2.7-.9 3-.4.3-1.1 3-1.4 6.1-.3 3-1.2 6.8-2 8.5-.9 1.6-1.3 3.9-1 5 .5 1.9.6 1.9 1.9.3 1.2-1.7 1.4-1.7 3.3.4 2.2 2.4 2.7 4.3 1.1 4.3-.5 0-1-.5-1-1.1 0-.5-.4-.7-1-.4-.5.3-1 1.7-1 3.1 0 4.6-1.6 6.3-5.7 6-4.2-.4-5.1-1.7-2.8-4 2-1.9 3.9-1.1 3.1 1.3-.5 1.2-.2 1.1.9-.3.8-1.1 1.5-3 1.5-4.3 0-2-.3-2.2-1.9-1.4-2.6 1.4-3.4.2-1.6-2.6.9-1.3 1.1-2.3.6-2.3-.5 0-1.5 1-2.4 2.2-.8 1.3-1.8 2-2.2 1.6-1.2-1.1.5-4.7 2.6-5.3 2.2-.7 2.6-3.5.4-3.5-1.8 0-2-1.6-.4-2.6.6-.3 1.5-.1 1.9.6.7 1.2 4.3-7.3 4.6-11 .4-5.2 3.4-8.3 3.4-3.6zm-130.9 5.5c-1.2 2.2-3.1 2.8-3.1 1 0-2.3 2.2-5.1 3.2-4.1.7.7.6 1.7-.1 3.1zm22.9 5.3c0 1.9-1.8 4.3-2.5 3.6-.9-.9.4-4.8 1.6-4.8.5 0 .9.6.9 1.2zm-26 2.8c0 .5-.4 1-1 1-.5 0-1-.5-1-1 0-.6.5-1 1-1 .6 0 1 .4 1 1zm137.6 5.8c-1.1 1-1.5-.4-.8-2.8l.7-2.5.3 2.3c.2 1.3.1 2.6-.2 3zm-104.2-2.9c.3.4-.1 1.7-.9 2.7-.8 1-1.5 3.2-1.5 4.7 0 3.7-1.7 6.7-3.6 6.7-1.7 0-1.3-2.1 1.2-7.4.8-1.6 1.4-3.7 1.4-4.6 0-2.7 2.2-4.1 3.4-2.1zm100.2 2.8c-1 1-1.9-.5-1-1.8.6-1.1.8-1.1 1.2 0 .2.7.1 1.5-.2 1.8zm-112 2c-1 1-1.9-.5-1-1.8.6-1.1.8-1.1 1.2 0 .2.7.1 1.5-.2 1.8zm5.9-.7c.3.5 0 2.2-.8 3.7-.8 1.6-2.2 4.5-3.1 6.5-.8 2.1-2 3.8-2.5 3.8-1.9 0-2.2-2-.8-4.7.8-1.6 2.2-4.5 3.2-6.6 1.8-3.8 2.9-4.5 4-2.7zm62.3 4.2c-.2 2.7-.8 3.4-2.8 3.6-1.4.2-4.7 1.1-7.5 2.2-7.3 2.7-25.2 7.1-31 7.6-2.7.2-5.9.5-7 .6-1.4.2-2.1-.4-2.3-2.1-.5-3.4.8-4.2 7.9-4.7 9.1-.7 14.8-2 27.9-6.4 14.6-4.9 15.2-4.9 14.8-.8zm11.7 1.8c1 1.1 1.4 2 .9 2-.5 0-.3.4.4.9 1.1.6 1 1.1-.3 2.5-2.5 2.4-4.9 1.6-5.3-1.7-.7-5.6 1.2-7.1 4.3-3.7zm37.4 6.5c-1.1 3.8-1.6 4.3-3.8 4-2.9-.3-3.7-3.1-.8-2.9 1.1.1 1.7-.5 1.7-2 0-1.2.8-3.3 1.7-4.6 1.6-2.2 1.8-2.3 2.1-.7.2 1-.2 3.8-.9 6.2zm-15.9-4.1c0 1.6-1.8 3.1-2.7 2.2-.8-.8.5-3.6 1.7-3.6.5 0 1 .6 1 1.4zm-110 3.5c0 2.1-1.3 4.1-2.6 4.1-1.7 0-1.8-2.2-.2-3.8 1.4-1.4 2.8-1.6 2.8-.3zm98.5 3.1c1 1.2 2.4 1.9 3 1.6.7-.2 3.2.5 5.6 1.6 3 1.4 7.1 2.1 13.3 2.4 4.9.2 9.5.9 10.2 1.5 1 .8 1.4 3.9 1.4 11.5 0 10.9-.5 12.1-4.7 11.5-1.3-.1-2.3.2-2.3.8 0 1.4-5.7 1.5-6.5.1-.3-.5-1.2-.7-2-.3-.9.3-2.9 0-4.5-.7-2.3-1-2.9-1.7-2.5-3.1.4-1.1.2-1.9-.3-1.9-.6 0-1.2.5-1.4 1.2-.3.8-1.7.2-4-1.5-1.9-1.5-3.8-2.7-4.2-2.7-.4 0-1.6-1-2.6-2.2-1.3-1.7-1.8-4.2-1.9-10.5-.1-4.6-.4-9-.7-9.8-.9-2.2 2-1.8 4.1.5zm-20 2.5c0 2.9-.3 3-6 4.1-11.6 2.2-17.6 4.2-25.2 8.8-7.1 4.2-23.9 10.6-27.8 10.6-1.3 0-1.1-.6.8-3.3 1.5-1.9 2.8-5.3 3.2-8.4.9-6.9 2-7.7 9.9-6.8 6.6.7 11.1-.3 32.1-6.5 3.3-1 7.6-1.8 9.5-1.7 3.2.2 3.5.5 3.5 3.2zm-61.5 1.4c0 .5-.6 1.6-1.3 2.3-.7.7-2 2.5-3 4-1 1.6-2.4 2.8-3.2 2.8-.8 0-1.9.9-2.5 2-.9 1.6-.8 2 .5 2 2.2 0 1.9 4.6-.5 7-1.6 1.6-2.5 1.8-4 1-2.4-1.3-3.3-4.2-3.3-10.7 0-3.6-.4-5.4-1.4-5.7-2.2-.9-.7-2.3 3.4-3.1 6-1.2 8.7-1.2 9.5-.1.5.7 1.3.5 2.5-.7 1.9-1.9 3.3-2.2 3.3-.8zm-42.6 2.7c2.1.8 2 1.7-.4 3.2-1.8 1.1-2 1-2-1.3 0-2.7.1-2.8 2.4-1.9zm18.6 1.3c0 .9-2.4 2.1-4.2 2.1-.6 0-.6-.6.2-1.5 1.4-1.6 4-2 4-.6zm-11.5 2.8l2.3 1.8-2.3 2c-1.3 1.1-2.6 3-3 4.2-.5 1.8-.2 2.3 1.4 2.3 1.6 0 1.9.6 1.6 3.6-.2 1.9-.5 3.7-.7 3.9-1 1-8.9.8-10-.3-.9-.9-.5-1.8 1.6-3.9 2.5-2.5 2.6-2.8 1.1-3.9s-1.5-1.3.5-2.4c1.4-.8 1.9-1.7 1.5-3-.7-2.1 1-6 2.6-6 .6 0 2.1.8 3.4 1.7zm98.6 3.8c1.2 1.9 2.7 3.5 3.5 3.5.8 0 1.4.5 1.4 1.1 0 .5-.3.8-.7.6-2.9-1.8-28.6 5.6-43.2 12.5-14.2 6.6-32.3 12.8-37.6 12.8-2.3 0-1.8-2.9 1.6-8.2 2.7-4.1 3.6-4.8 6.3-4.8 7.3 0 34-8.1 46.3-14.1 8.4-4.1 15.4-6.6 18.6-6.8 1-.1 2.6 1.4 3.8 3.4zm21.2 15.4c2.1 1.2 4.9 2.9 6.3 3.7 1.3.9 5.3 1.9 8.8 2.1 7.8.7 8.3 1.6 6 11.3-1.9 7.7-1.8 18.1.2 26.5.7 3.3 1.4 7.2 1.4 8.7 0 2.3 1.3 3.5 8.5 8.2 7.6 5 14.5 12.1 14.5 14.9 0 .6 2.7 3.9 6.1 7.4 3.8 4 5.9 6.9 5.7 8-.2 1-1.1 1.7-1.9 1.5-.7-.2-5.1-.5-9.7-.7-9-.4-20.2-2.7-26.8-5.6-4.6-2-13.8-11.6-15.9-16.5-.8-2-2.4-3.5-4.4-4.2l-3.1-1.1.5-7.3c.3-4 .7-9.8 1-12.8.2-3.6-.1-6.4-1-8-2-3.6-1.8-6.1.5-6.7 2.8-.7 2.5-3.9-.6-6.8-2.4-2.2-2.5-2.6-1.3-5.9 1.2-3.2 1.1-3.9-.9-6.5-2.6-3.6-6.2-12.4-6.2-15.2 0-2 .1-2 4.3.4 2.3 1.4 5.9 3.4 8 4.6zm-107.5-4.2c-.2 1 1.1 2.6 3.2 4 1.9 1.3 3.6 2.8 3.8 3.2.1.5-2.4 6.2-5.6 12.7-3.3 6.5-6.7 14.4-7.7 17.4-1 3-2.4 6.3-3.2 7.2-1.3 1.5-1.3 1.9 0 3.8 1.5 2.2 1.4 4.8-.6 8.8-.9 1.8-.7 2.6 1.1 4.5 2.5 2.6 3 9.5 1 11.5-1.7 1.7-13.4 1.5-18.7-.4-4-1.3-5.9-1.3-19 .1-8 .8-17.7 2.1-21.6 2.7-7.6 1.2-17.4 1.2-20.8-.1-2.1-.8-2-.9 1.2-2.9 1.8-1.1 6.1-2.3 9.5-2.7 6.4-.8 8.8-1.6 12.1-4.5 1.1-.9 6.3-3.2 11.5-5 12.7-4.4 15.6-6.3 17.1-10.8.6-2 2.4-5.1 3.9-6.7 1.7-1.9 3-4.5 3.3-7 .9-7.1 4.9-22.9 6.5-25.3 1.3-1.9 2.3-2.2 8.6-2.2 6.2 0 7.5-.3 9.4-2.3 1.1-1.2 2.4-3.4 2.7-5 .8-2.9 2.8-3.8 2.3-1zm91.2 5.9c1.4 3.9 3.3 8.1 4.2 9.4 2.4 3.2 1.1 4.8-5.3 7.2-14.5 5.2-25.4 6.9-46.6 6.9-14.3 0-16.3.2-17.2 1.7-.8 1.4-2.4 1.6-12.3 1.3-6.2-.1-11.6-.5-12-.8-.5-.2-.1-1.7.7-3.2 1.2-2.3 2.3-3 6.2-3.6 7.9-1.2 35.5-11 53.8-19 6.5-2.9 22.1-7.5 24.5-7.2.9.1 2.5 3.1 4 7.3zm74.1 12.3c5.7 1.1 11.7 2.4 13.2 3 1.6.6 4 1.1 5.5 1.1 1.4 0 6.5 1.3 11.2 2.9 4.7 1.6 10.5 3.2 13 3.5 2.5.4 5.2 1.1 6 1.6 1.6 1-10.4 1.3-55.5 1-14.3-.1-26.4-.5-26.8-.9-1.3-1.3 1.7-9 4.2-10.7 5.4-3.9 14-4.3 29.2-1.5zm-68.7 10.6c1.1.8 1.7 1.7 1.4 2-.3.3-4.3.5-8.9.3l-8.4-.3 5-1.6c6.3-2.1 8.5-2.2 10.9-.4zm-.6 6.9c3.1 1.9-1.2 2.6-17.1 2.7-9.5 0-26.2.4-37.2.8-20.6.7-41.8-.5-41.3-2.4.2-.6 8.3-.9 22.3-.7 12.1.1 26.5-.2 32-.7 11.6-1.1 39.4-.9 41.3.3z"/><path d="M235 129c-2.6 2.6-2.5 3.6.5 6.5 2.9 3 5.8 3.2 8.5.5 2.4-2.4 2.5-3.8.4-6.8-1.9-2.8-6.7-2.9-9.4-.2zm5.5 3c.3.5-.1 1-1 1s-1.3-.5-1-1c.3-.6.8-1 1-1 .2 0 .7.4 1 1zM257.3 159.5c-4.2 2.6-6.2 6.5-2.5 5 3.1-1.3 6.6-2.4 9.5-3 2-.4 2.7-1.1 2.5-2.3-.5-2.7-4.9-2.5-9.5.3zM259.8 164.1c-2.6 1-4.2 3.4-3.3 4.9.8 1.3 5.9 1.9 7.7.9.9-.5 1.5-1.6 1.2-2.3-.3-.8 0-1.7.5-2.1 1.5-.9.4-2.5-1.7-2.4-.9 0-2.9.5-4.4 1zM231 165.5c-1.9 2.3-.3 3.4 4.2 2.8 2.9-.4 3.9-.3 3.4.5-.4.7-1.3 1.2-2 1.2s-2.1.9-3 1.9c-1.6 1.8-1.6 2 .6 3.5 3.2 2.3 6.9 2.1 7.5-.4.8-2.9 2.6-2 3.9 1.8.5 1.8 1.6 3.8 2.3 4.5 1.1 1 1.3.4.8-3.6-.5-5.3-3.9-11-7.5-12.6-3.3-1.6-8.8-1.3-10.2.4zM252.2 186.7c-3.1.6-2.2 2.7 1.1 2.6 4.5-.2 4.7-.2 4.7-1.8 0-1.5-1.3-1.7-5.8-.8zM415.8 275.2c-.3.7-.1 2.4.3 3.8s.8 1.8.8 1c.1-.8.4-2.5.7-3.8.7-2.3-1-3.2-1.8-1zM398.7 277.7c-.4.3-.7 1.1-.7 1.7 0 .6.5.5 1.2-.2.6-.6.9-1.4.7-1.7-.3-.3-.9-.2-1.2.2zM317.3 264.5c0 2.2.2 3 .4 1.7.2-1.2.2-3 0-4-.3-.9-.5.1-.4 2.3zM411 296.2c0 1.4-.3 3.5-.6 4.5s.2.6 1.1-1c1.1-2 1.3-3.2.6-4.5-.9-1.4-1-1.3-1.1 1zM228.6 325.7c-.3 1.6-.8 3.9-1.1 5.3l-.6 2.5 1.4-2.5c1.9-3.3 3-8 1.8-8-.4 0-1.1 1.2-1.5 2.7zM366 377.5c-1 1.2-1 1.5.3 1.5 1.9 0 3.1-1.6 1.8-2.4-.5-.3-1.4.1-2.1.9zM353 389.9c0 1 1.9 2.5 2.5 2 .1-.2-.3-1-1.1-1.7s-1.4-.8-1.4-.3zM255.6 413.6c-3.9 3.8-12.2 26.1-10.5 27.9 1.1 1.1 4.9-2.7 4.9-4.9 0-2.5 6.3-17.2 8.3-19.4 1.9-2 1.9-2.4.5-3.8s-1.7-1.4-3.2.2zM244.2 473c0 1.4.2 1.9.5 1.2.2-.6.2-1.8 0-2.5-.3-.6-.5-.1-.5 1.3zM265 515.9c0 1.1.5 2.3 1 2.6.6.4 1-.5 1-1.9s-.4-2.6-1-2.6c-.5 0-1 .9-1 1.9zM215 543.5c-.6 1.5-.8 3-.6 3.3.3.3 1-.8 1.6-2.3.6-1.5.8-3 .6-3.3-.3-.3-1 .8-1.6 2.3zM211.2 551.2c-.6.6-1.2 2-1.2 2.9 0 .9-.7 2.2-1.5 2.9-1.6 1.3-2.1 4-.7 4 1 0 5.5-8.7 5-10-.2-.7-.7-.7-1.6.2zM241.5 557c-.3.5-.1 1 .4 1 .6 0 1.1-.5 1.1-1 0-.6-.2-1-.4-1-.3 0-.8.4-1.1 1zM215 577c-1.2.7-1.2 1.2-.2 2.2 1 1 1.5 1 2.2-.2.5-.8 1-1.8 1-2.3 0-1-1.2-.9-3 .3zM212.9 584.7c-.9 1-2.1 3.6-2.7 5.9-.7 2.3-2.3 5.3-3.7 6.8-1.6 1.7-2.5 3.8-2.5 5.9l.1 3.2 1.9-2.4c1.1-1.3 2-3.1 2-4.1 0-.9 1.6-4.7 3.6-8.4 3.5-6.7 4.2-10.4 1.3-6.9zM213.7 595.6c-1 1.9-1.7 4.2-1.7 5.1 0 .8-.9 3-1.9 4.7-1.2 1.9-1.7 3.7-1.2 4.5.6.9 1.4-.6 2.6-4.5 1-3.3 2.7-7.3 3.7-9.1 1-1.7 1.5-3.4 1-3.7-.5-.3-1.6 1.1-2.5 3zM203.3 626.5c-.9 2.5.4 2.9 1.7.6.7-1.5.7-2.1 0-2.1-.6 0-1.3.7-1.7 1.5zM207.7 628.7c-.4.3-.7 1.6-.6 2.7 0 1.9.1 1.9 1-.3 1-2.4.8-3.6-.4-2.4zM201.5 632.7c-1.3 3.3-3.3 12.5-2.5 11.6.4-.4 1.5-2.8 2.3-5.3.9-2.5 1.8-5.3 2.2-6.3.4-.9.3-1.7-.3-1.7-.5 0-1.3.8-1.7 1.7zM204.3 638c-.6 1.9-1.4 4.8-1.7 6.5-.4 2.4-.1 2.1 1.5-1.4 1.1-2.5 1.8-5.4 1.7-6.5-.3-1.6-.6-1.3-1.5 1.4zM319.6 550.8c-.2.4-.1 1.4.5 2.2.7 1.2.9 1 .9-.8 0-2.3-.5-2.8-1.4-1.4zM310.2 571.5c-1.4 3.1-3.2 3.2-3.2.2-.1-2.2-.1-2.2-1.4.3-.7 1.4-1.7 3.6-2.1 4.9-.7 2.1-.5 2.3 1.7 1.8 1.4-.4 2.7-.4 3-.1.7.6-1.4 6.8-3 8.7-.8.9-1.2 3.1-1 4.9.3 2.9.7 2.2 3.5-5.7 4.1-11.6 5.9-22.6 2.5-15zM315.2 576c0 1.4.2 1.9.5 1.2.2-.6.2-1.8 0-2.5-.3-.6-.5-.1-.5 1.3zM318.3 578.7c-.7 1.5-1.3 3.5-1.3 4.5s-.7 1.8-1.5 1.8-1.5-.5-1.5-1.1c0-.5-.4-.7-1-.4-.5.3-1 1.9-1 3.5 0 2.2.4 2.8 1.5 2.4 1.1-.4 1.5.1 1.6 1.7 0 2.2.1 2.2 1.4-.6 2.1-4.7 3.7-11 3.4-12.8-.3-1.3-.7-1-1.6 1zM312.7 597.6c-.4.4-.7 2.5-.7 4.6 0 2.2-.5 4.8-1.1 5.9-.5 1.1-.9 3-.7 4.2.3 1.6.7 1 1.7-2.3.7-2.5 1.7-6 2.3-7.8 1-3.3 0-6.1-1.5-4.6zM316.1 609.8c-1.3 2.5-1.4 4.2-.2 4.2 1 0 2.5-5 1.7-5.7-.2-.3-.9.4-1.5 1.5zM338.6 596.5c-.3.9-.6 2.4-.5 3.3 0 .9.5.4 1-1.2.9-3.2.6-4.8-.5-2.1zM479.4 648.2c-3.9.4-10.2 1.9-14 3.3-3.8 1.5-9.2 3.5-12.1 4.5-6.9 2.6-19.8 4-37.1 4-11.1 0-14.3.3-13.9 1.2.6 1.9 24.2 2 37.5.2 10.5-1.3 14.1-2.3 28.7-8 6.2-2.4 8.4-2.7 19.2-2.8 6.8-.1 12.3-.4 12.3-.8 0-1.8-11.1-2.6-20.6-1.6zM59 683.7c-3.1.4-17.6 2.9-40.5 7-4.4.7-10.4 1.1-13.2.8-5.1-.5-5.3-.4-5.3 2s.2 2.5 6.3 2.5c3.4-.1 9.6-.7 13.7-1.4 4.1-.8 14.3-2.6 22.5-4.2 10.2-1.8 18.5-2.7 26-2.8 10 0 11.9.3 20 3.2 5 1.8 12.9 5.4 17.8 8.1 9.7 5.4 18.9 8.6 31.7 10.8 18 3.1 28 3.3 28 .4 0-1.4-3-2.2-10.5-2.7-12.1-.8-32.2-4.8-37.5-7.4-1.9-.9-6.7-3.6-10.7-5.9-3.9-2.3-10.9-5.6-15.5-7.3-7-2.6-9.9-3.1-18.8-3.3-5.8-.2-12.1-.1-14 .2zM463 734.3c-1.5.7-2.8 2.7-3.5 4.9-.5 2-1.3 3.9-1.6 4.2-.3.3-3.1.8-6.3 1-6.2.4-10.9 2.8-10.4 5.4.2 1.1 2.3 2.1 6.2 3l5.8 1.5-5.3 1.8c-2.9 1-5.7 2.3-6.2 2.8-1.7 1.7.1 4.1 4.4 6l4 1.8-2.8.7c-3.1.8-7.3 4.3-7.3 6.1 0 2 3.1 5.4 4.5 4.9.7-.3 1.5-2 1.7-3.7l.3-3.2h13l1.1 12c.7 6.6 1.2 12.1 1.3 12.2.1.2 1 .3 2 .3 1.7 0 2-1.1 2.6-9.3.4-5.1.5-10.4.4-11.7l-.4-2.5h10.6c9.1 0 11-.3 12.8-1.9 5-4.5 2.1-6.1-12.6-7.1-8.6-.5-11.3-1-11.3-2.1 0-1.7 10.5-2 15.7-.5 2.1.6 3.5.6 3.9-.1 1.1-1.7-1.2-3-6-3.5-4.9-.6-6.5-2.3-1.8-2 1.8.1 2.7-.3 2.7-1.3 0-1.1-1.8-1.7-7.4-2.2-7.8-.8-9-1.3-7.5-2.8.5-.5 3.4-.3 7.4.5 6.8 1.4 8 1.3 8-1 0-1.5-1.5-2.1-7.5-3-6.8-1-8.5-1.5-8.5-2.4 0-.4 2.5-.6 5.5-.3 6.2.5 10.5-1.5 10.5-4.8 0-4.2-12.1-6.7-18-3.7zm11 3.7c0 .5-1.9 1-4.2 1-3.2 0-3.9-.3-2.8-1 2-1.3 7-1.3 7 0zm-16.5 11.1c.4.6.5 1.3.2 1.6-.8.8-6.7-.7-6.7-1.8 0-1.3 5.7-1.1 6.5.2zm.2 6.5c-.3.3-1.2.4-1.9.1-.8-.3-.5-.6.6-.6 1.1-.1 1.7.2 1.3.5zm1.6 5.9c-.5 2.2-10.3 1.6-10.3-.6 0-.6 2.1-.9 5.3-.7 2.8.2 5.1.7 5 1.3zm20.4 5.5c3.9 0 5.3.4 5 1.2-.2.8-1.7 1.2-3.8 1-1.9-.2-5.4-.4-7.9-.6-6-.4-6.2-.4-5.4-1.7.4-.6 1.9-.9 3.6-.5 1.7.3 5.5.6 8.5.6z"/><path d="M473.4 777.5c-.4 1 0 2.4 1 3.3 1.6 1.6 1.8 1.6 3.2-.3 1.8-2.4 1.3-3.9-1.4-4.3-1.4-.2-2.5.3-2.8 1.3zM296.7 810.6c-.2.2-67 .5-148.5.6-140.9.3-148.2.4-148.2 2 0 1.8 7.8 2 109.5 2 375.7 0 390.5-.1 390.5-2.2 0-2-.7-2-27.7-2-15.3.1-61-.1-101.5-.3-40.6-.3-73.9-.3-74.1-.1zM59.4 828.2c-.3.4-.3 1.2.1 1.8 1.1 1.8 1.6 25.9.6 27.9-1.6 3 .9 4.4 6.3 3.6 4.9-.8 5.5-1.5 3.1-3.5-1.9-1.6-2-8.4-.1-9.9.8-.7 3.8-1.4 6.8-1.6 4.5-.3 5.8-.9 8.6-3.9 4-4.5 4.3-9.2.8-12.5-2.2-2.1-3.5-2.3-14.1-2.5-6.4-.2-11.8.1-12.1.6zm17.4 3.4c2.9 2 2.9 6.7 0 9.4-2.4 2.2-4 2.5-6.9 1-1.4-.8-1.9-2.1-1.9-5.3 0-2.4.5-4.8 1.2-5.5 1.7-1.7 4.9-1.5 7.6.4zM138 827.9c-5.3 1.1-7.6 2.7-11 7.5-2.2 3.4-3 5.6-3 9 0 6 1 8.4 6 13.4l4.1 4.4 7.7-.7c4.2-.4 8-.9 8.5-1.2.4-.2.7-2.9.7-5.9V849h-5.5c-5.5 0-7.6 1.6-3.5 2.7 2.3.6 2.7 4.1.5 4.9-2.8 1.1-8.4-1.6-10.6-5.2-1.8-2.9-2.1-4.5-1.6-8.7.5-4.3 1.3-5.8 4.2-8.5 3.3-3 3.9-3.2 8.4-2.6 5.3.7 7.1-.5 4.5-3-1.6-1.7-3.6-1.8-9.4-.7zM155.6 827.8c-.2.4 0 3 .5 5.7.5 2.8 1 9.9 1.1 16 .1 6 .5 11.5 1 12.1.6.8 2 .9 4.6.3 2-.5 5.6-.9 7.9-.9 4.7 0 4.9-.1 5.8-5.3.6-3.1.5-3.7-1.1-3.7-.9 0-2.9 1.4-4.3 3-2.4 2.8-2.8 2.9-5.1 1.7-2-1-2.6-2.1-2.8-5.9-.2-3.8.1-4.9 1.7-5.7 1.5-.8 2.3-.7 3.5.4 2.2 2.2 4.5 1.8 5.2-.9.6-2.6-1-6.6-2.7-6.6-.6 0-2.2.9-3.6 2s-3 2-3.4 2c-1.2 0-1.1-5.3.1-8.4 1.3-3.4 6.1-3.6 8.2-.4 1.3 2 1.7 2.1 3.2.9 1.9-1.6 2.1-4.2.4-5.9-1.3-1.3-19.4-1.7-20.2-.4zM324.2 828.2c-.9.9-.7 1.7.7 3.2 1.5 1.7 2.1 4.3 2.7 12.1.3 5.5 1.3 11.3 2.1 12.8 3 5.9 11.2 8.4 17.4 5.1 1.9-1 4.1-1.3 6-.9 1.8.4 3.6.2 4.4-.5 1.2-1 1.2-1.5-.1-3.5-1.1-1.6-1.5-5.3-1.7-12.8-.1-9 .2-10.9 1.7-12.6 2.2-2.4 1.8-2.7-6.4-3.5-5.7-.6-9.3.5-7.5 2.3.6.5 2.1 1.1 3.5 1.3 2.5.3 2.5.4 2.8 11.8.3 13.3-.2 14.5-6.5 15.4-3.7.5-4.4.3-6.7-2.5-2.4-2.8-2.6-3.8-2.6-12.5 0-5.3.5-10.4 1-11.4 1.1-2.1 0-3.2-3.5-3.7-1.1-.2-2.9-.5-4.1-.8-1.1-.2-2.6.1-3.2.7zM368.6 827.8c-.2.4.1 6.8.6 14.2.6 9.2.6 14.2-.1 15.8-1.3 2.7-.7 3 5.9 3.4 5.1.3 5.2-.1 2.8-8-1.5-5-.4-7.6 3.3-8 5.8-.6 9.9-2.4 11.8-5.1 2.6-3.6 2.7-7.2.2-10.2-1.7-2.1-2.7-2.3-13-2.5-6.1-.1-11.3.1-11.5.4zM385 831c1.1 1.1 2 3 2 4.3 0 6-7.4 9.5-8.6 3.9-.3-1.5-.8-3.3-1-4.1-.6-1.9 2.3-6.1 4.1-6.1.8 0 2.4.9 3.5 2zM93.3 830.2c.6 2.2-3 16.3-6.4 25.2-2.4 6-1.6 7.1 4.5 6.2 4.7-.7 7.3-2.6 3.6-2.6-3 0-3.5-2.4-1.5-7.6 1.9-5.1 5-6.9 9.9-5.7 1.7.4 3.5.7 4.1.7 1 .1 6.4 9.3 6.5 10.9 0 .5-.9 1.1-2 1.4-1.3.3-2 1.2-1.8 2.2.2.9.7 1.5 1.1 1.3.4-.1 3.4-.2 6.7-.2 4.7 0 6-.3 6-1.5 0-.8-.7-1.5-1.5-1.5-1.7 0-1.9-.4-7-14-2-5.2-4-10.7-4.6-12.1-1.4-3.5-4.8-4.9-12.1-4.9-5.7 0-6 .1-5.5 2.2zm10.9 5.5c.9 2.5 1.5 5 1.2 5.5-.7 1-7.1 1.1-7.8 0-.6-1 1.3-8.1 2.7-10 1.3-1.6 1.8-1.1 3.9 4.5zM294.1 829c-5.1 1.2-11.1 7.8-12.2 13.3-1.2 6.9 1.1 13.9 5.6 16.7 5.3 3.3 15.3 4.7 20.7 3 2.3-.7 4.7-1.7 5.2-2.2 1.7-1.4 0-1.7-3.6-.6-5.4 1.6-11.9-.5-16.3-5.3-4.5-5-5.1-7.9-3-13.4 1.8-4.8 5.9-8.5 9.4-8.5 3.4 0 7.1 2.9 7.1 5.6 0 1.9.5 2.4 2.4 2.4 2.8 0 4.4-1.7 5.2-5.7.6-2.9.4-3.1-4.4-4.7-5.4-1.7-10.5-1.9-16.1-.6zM406.3 829c-4.3 1.8-5.8 9.4-2.7 13.8 1.2 1.8 2.5 2.2 7 2.2 6.3 0 6.6.4 6.8 8.3l.1 5.2-5.5-.3c-4.2-.3-6.1-.9-8.2-2.9-3.1-3-5.9-2.5-7.9 1.5-.7 1.5-1.3 3.1-1.4 3.5 0 .4 5.5 1 12.2 1.3 12.1.5 12.3.5 15.8-2.1 4.1-3.2 5.2-7.3 3.6-13.3-1.3-4.7-2.7-5.4-10.1-5.1-5.6.3-7-.7-7-5.2 0-6 5-7.7 7-2.4 1.2 3 4.6 3.1 6.4.2 2.1-3.3-.4-5.2-7.5-5.4-3.5-.1-7.4.2-8.6.7zM226.2 834.6c-3.1 2.2-2.8 5.3 1.7 14.2 2.1 4.2 4.1 9.1 4.5 10.8.9 3.9-.7 8-3.3 8.9-1.2.3-2.1 1.1-2.1 1.6 0 1.6 5.4 1 8.6-1 4.1-2.5 5.2-7.9 3-13.3-1.1-2.5-1.2-3.9-.5-4.3.6-.4 1.3-.4 1.6-.1 1 1 4.3-1.4 4.3-3.2 0-3.3-3-6.3-5.8-6-1.9.2-2.6.8-2.4 2 .5 2.9-2.2 2-4.2-1.3-1.9-3.2-1.9-3.2.4-4.9 4.8-3.6-.8-6.9-5.8-3.4z"/><path d="M213.3 848.5c-6.5 2.8-6.9 9.5-.6 12.1 4.3 1.8 7.6 1.2 10.9-2.1 2.9-2.9 3.1-6.8.4-9.5-2.3-2.3-6.2-2.5-10.7-.5zm5.6 3.9c.9 1.1 1 2 .1 3.5-1.4 2.7-2.6 2.7-4 0-2.1-3.9 1.2-6.8 3.9-3.5zM445.5 855c-3.6 1.4-4.8 3.6-3 5.4 3.3 3.2 10.6 1 9.2-2.8-.9-2.2-3.9-3.5-6.2-2.6z"/></svg>