<svg version="1" xmlns="http://www.w3.org/2000/svg" width="666.667" height="1170.667" viewBox="0 0 500 878"><path d="M241.7 14.8c-2.4.3-2.8.7-2.5 3 .2 2.2.7 2.6 2.7 2.4 1.3-.2 3.4-.1 4.7.2 2.2.6 2.4 1.2 2.4 6 0 2.9-.3 7.4-.6 10l-.7 4.6h-5.3c-5 0-5.4.2-5.4 2.4 0 3.1 3 3.6 23.6 3.6 13.3 0 16.4-.3 17.4-1.5 1.9-2.2.3-3.4-5.9-4.4-2.8-.4-5.5-1.1-5.9-1.5-1.2-1.3-.2-18 1.1-18.8.7-.4 3.1-.8 5.5-.8 4.7 0 6.4-1.9 4.1-4.6-1.1-1.3-3.7-1.5-16.8-1.2-8.6.2-16.9.4-18.4.6zm18 6.4c1.4 1.7.7 16.6-.8 18.4-3.4 4.2-6.3-.9-5.7-10.2.5-8 3.6-11.9 6.5-8.2zM283 146.9c-8.4 2.6-12.8 6.1-20.4 16.1-4.2 5.5-8.9 12-10.4 14.4-3.1 4.9-8.3 12.3-10.6 14.8-1.8 2-10.6 17.2-10.6 18.3 0 .4-3.2 4.3-7.2 8.7-7.7 8.6-16.3 14.8-20.4 14.8-3.4 0-7.8 2.4-9.6 5.2-2.8 4.4-3 7.7-.7 11.4l2.1 3.4-3.1 3.5c-3.3 3.8-4 8-2 11.7.9 1.6.8 2.4-.5 3.6-1.4 1.4-1.8 1.4-4.1-.8-2.2-2.1-2.5-2.1-3.1-.6-.4 1 .1 2.5 1.4 3.9 2.4 2.6 2.5 9.2.2 9.2-1 0-1.4-.9-1.3-2.8.2-3-1.7-3.6-3.7-1.2-1.6 2-.5 6.2 2 7.5 1.1.6 2 2 2 3.1 0 2 .4 2.3 5.3 3.3 2.2.5 2.7.3 2.7-1.3 0-3.1 1.8-3.4 2.2-.4.2 1.9 1.2 3.2 3.1 4.1 3.6 1.8 3.4 3.9-.7 5.8-3.5 1.7-8.6 8.6-8.6 11.6 0 3.4-2.8 7.3-6.8 9.6-6.6 3.7-7.2 3.3-14.2-8.6-9.7-16.4-12.8-20.4-30.5-39-8.8-9.3-27.7-23.7-37.5-28.7-6-3-20.6-7-30.8-8.5-14.5-2-30.7 1.6-42.3 9.3C15.3 254.7 5 269 1.4 280.9c-1.9 6.4-1.9 27.9.1 35.6 5.7 22.3 17.3 39.7 35.5 53.4 8.3 6.2 28.4 17.4 40.4 22.4 3.9 1.6 7.3 3.2 7.6 3.4.3.3.5 7.7.5 16.6 0 14.7.2 16.6 2.2 20.2 1.1 2.2 3.5 4.8 5.1 5.8 1.8 1 3.9 3.7 5.2 6.5 5.1 10.9 10.3 20.8 11.8 22.6 1 1 3.6 2.9 6 4.3 3.6 2.1 6.1 2.6 16.4 3.3 6.7.4 13.6.4 15.2-.1 1.7-.5 4.5-.9 6.2-.9 6 0 9.3-2 13.5-8.1 2.1-3.2 4.2-7.2 4.5-8.9.4-1.6 1-3 1.3-3 .4 0 1.5 2.2 2.5 4.9.9 2.7 2.8 6.4 4.2 8.2 3.7 5 2.9 11.5-2 16.9-3.7 4-11.2 18.9-13.9 27.5-5 15.9-6.7 23.2-8.6 36.5-1.8 13.1-2.8 16.6-5.3 20.2-1 1.5-.8 2.7 1.7 7.2 2.9 5.4 2.9 5.6 1.2 8.5-2.1 3.6-2.1 3.8.1 5 1.3.7 2.7.6 4.7-.5 2.2-1.1 3.5-1.2 5.5-.4 2 .8 3.3.7 5.6-.5 2.6-1.4 3-1.3 4.2.2.6.9 1.2 2.8 1.2 4.3 0 6.4 14 35.8 20.6 43.2 3.2 3.6 9.4 15.7 15 29.1 1.4 3.4 3.4 8 4.5 10.3 1 2.2 1.9 5.3 1.9 6.8s.8 5.6 1.7 9c.9 3.5 1.4 7 1 7.9-.3.9-4 3.1-8.1 5s-9.5 4.9-12.1 6.7c-6.4 4.4-19.1 10.6-27.4 13.5-6.1 2-7.8 2.2-14 1.4-8-1-16.5-3.5-18.1-5.4-1.3-1.5.3-2.9 4.3-3.9 4.1-1 2.3-2.6-2.9-2.6-4 0-4.4-.2-4.4-2.4 0-2.3 3.3-10.6 7.1-17.8 1.9-3.6 1.8-6.5-.2-5.3-.8.6-3.7 6.4-8.1 16.4-1.3 3.1-2.2 4.1-2.9 3.4-.7-.7-.1-2.9 2-7.1 1.7-3.4 3.1-7 3.1-8 0-2.3-1.9-4.2-4.2-4.2-2.2 0-2.3-1.3-.3-3 .8-.7 1.5-2.3 1.5-3.7 0-1.3.6-3.9 1.4-5.8.8-1.8 1.2-3.6.9-3.9-.9-.9-3.3 1.4-3.3 3.1 0 .8-.6 2.9-1.4 4.6-.8 1.8-1.6 4-2 4.9-.3 1-1.3 1.8-2.2 1.8-1.6 0-1.6-.1.3-6.4 1-3.2-1.5-.9-3.7 3.4-1.6 3.1-2.4 3.7-4.1 3.3-1.6-.5-2.9.3-5.4 3.3-3.1 3.7-3.2 4.1-1.9 6.6 1.3 2.5 1.3 2.8-.1 2.8-.9 0-2.5-.5-3.6-1.1-9.1-4.8-32.9-6-42.9-2.1-3 1.2-7.7 3.8-10.5 5.7-22.2 15.7-30.4 19.2-48.7 21-5.1.5-6.8 1-6.8 2.2 0 1.3 1.1 1.4 7.3.8 13-1.2 17.8-2.4 25.5-6.7 7.4-4 10.7-6.1 25-15.8 8.2-5.5 13.5-7 25.1-7 14.6 0 28.9 4.8 35.6 12 3.5 3.8 19.7 16 24 18.2 9.4 4.7 28.1 4.9 39.7.5 3.7-1.4 11.1-5.6 16.5-9.3 7.4-5.1 10.9-6.9 14.3-7.3 3.6-.5 4.6-1 4.8-2.8.3-1.7-.3-2.2-2.5-2.5l-2.8-.3 3.2-1.8c1.8-.9 3.4-1.7 3.7-1.7.2 0 2.1 3.3 4.2 7.2 2 4 4.8 9.1 6.2 11.3 4.1 6.5 12.1 22.8 11.6 23.7-.8 1.3-3.2.9-6.6-1.2-3.8-2.3-9.2-2.5-12.8-.5-1.6.9-5.4 1.4-10.5 1.4h-8l3.5-1.6c1.9-.8 4.2-1.9 5-2.4.8-.4 3.3-1.8 5.5-3 2.2-1.3 6-2.5 8.5-2.8 3.1-.4 4.5-1.1 4.5-2.1 0-2.4-9.6-1.7-14.1.9-2 1.2-6.4 3.3-9.8 4.7-7.3 3.1-7.2 3-5.7 4.7.9 1.2-1.3 1.5-14.1 2-13.1.6-55 1-70 .8-4-.1-4.7-.4-5-2.2-.2-1.7-1.6-2.5-6.8-3.9-3.6-1-9-2.6-12-3.4-6.6-2-12-1.4-21 2.1-3.6 1.5-7.2 2.6-8 2.6-.8 0-2.2.6-3.2 1.4-1.1 1-3.6 1.4-7.5 1.3-3.2-.1-16.5-.1-29.5-.1C.1 742 0 742 0 744.2c0 2.1.1 2.1 16.5 1.4 18.6-.8 70.3-.9 71.5-.1 3.1 1.9 19 2.7 51.5 2.4 78.8-.8 102-.5 102 1.1 0 1.3-2.3 1.5-16 1.2-11.2-.2-15.5.1-14.3.8.9.5 8.4 1.2 16.8 1.4 8.3.2 15.4.6 15.6.9.3.2.9 2.9 1.3 5.8.7 4 .5 6.1-.5 8.1-.8 1.5-1.4 4-1.4 5.5 0 1.6-1.1 4.4-2.3 6.3-1.3 1.9-2.8 4.8-3.4 6.4-.6 2-3.2 4.5-7.7 7.7-3.8 2.6-8.6 6.9-10.8 9.5-3.8 4.6-11.8 19.1-11.8 21.4 0 1.9 8.7 1 22.1-2.4 23.1-5.9 27-8 35.6-19.4 1.4-1.9 4.1-3.5 7.7-4.6 3.5-1.1 6.5-2.9 8.1-4.7 3.3-4 3.1-4.6-6.1-29.4-.9-2.2-2-4.4-2.5-5-.5-.5-.9-1.7-.9-2.7 0-1.6 1.1-1.8 10.4-1.8 5.6 0 13-.3 16.3-.6l6.1-.7 9.8 10c12 12.1 14.2 13.1 32.9 14.3 7.1.4 13.3.6 13.7.4 3.6-2.3-4.8-16.1-12-19.8-4.7-2.4-8.1-6.9-12.7-17.1-1-2.2-2.2-4.8-2.6-5.7-.5-1-.9-2.4-.9-3.2 0-.7-.7-1.9-1.5-2.6-2.8-2.3-1.6-3.7 3.8-4.3 8-1 14.1-3.5 18.9-7.6 2.4-2.1 5.1-4.2 6-4.7.9-.5 4.3-3.3 7.5-6.2 11-10 23.9-20.1 27.9-21.6 9.3-3.7 18.7-5.4 25.1-4.5 6.2.9 12.8 3 17.3 5.8 12.3 7.3 20 14 27.8 23.8 2.1 2.7 5.5 5.3 9.9 7.5 5.8 2.8 8 3.4 15.5 3.6l8.8.4v11.4l-7.3-.7c-12.3-1.2-30.8-11-41.2-21.9-7.4-7.7-20.6-15.3-30.4-17.5-4.9-1.1-15.1 1.4-24.6 6-7.7 3.7-10.5 5.8-19.5 14.8-13.3 13.1-23 19.1-32.5 20.2-6.4.7-8.9 2-6.5 3.5 1.4.8 7.4.3 13.2-1.1 6.1-1.6 20.7-12.1 30.1-21.8 7.6-7.8 10-9.6 18.1-13.5 12.3-5.9 16.9-6.5 26.5-3.2 8.4 2.8 14.4 6.7 24.5 15.7 9.2 8.2 21.9 16.3 29.4 18.8 3.3 1.2 9.2 2.4 13.1 2.7l7.1.7v8.7l-15.5-.5c-8.5-.3-16.3-.9-17.3-1.4-.9-.5-5.6-1.9-10.3-3-5.1-1.2-11.5-3.7-16-6.1-15.5-8.6-17.8-9.4-25.4-9.2-9.7.3-15.7 2.5-24.8 9.3-4.2 3.2-9.6 6.4-11.8 7.1-2.3.6-4.3 1.8-4.6 2.5-.6 1.4-16.3 1.9-16.3.5 0-1.6 2.5-3.2 5.1-3.2 3.9 0 13.5-6.9 20.6-14.9 6.9-7.6 17.7-14.9 25.6-17 10.5-3 23.3 2.4 34.6 14.5 5.9 6.3 8.3 8.1 15.6 11.5 9.3 4.3 18.7 6.9 24.8 6.9 6.3 0 3.9-2.4-3.1-3.2-3.3-.4-9.1-2-12.9-3.6-3.7-1.6-7.8-3.3-9.1-3.7-1.3-.4-6.2-4.6-11-9.4-15.8-15.8-28.7-20.1-44-14.7-5.4 1.9-16.8 9.6-21.2 14.2-7 7.4-8.8 9-13 11.9-2.3 1.6-7.2 3.9-10.8 5.1-4.6 1.6-6.8 2.9-7.4 4.4-.4 1.1-1.3 2-2 1.9-.7-.1-3-.1-5.1 0-3.1.1-3.8.5-3.5 1.8.3 1.6 2.2 1.7 22.3 1.4 12.1-.2 28.3-.4 36-.3 59.9.1 93.6.4 96.8.9 5.3.8 4.9 3.3-.5 3.4-2.4 0-37.1.2-77.2.5-40.1.2-73.1.6-73.3.8-2.3 2.2 4 2.5 48.5 2.2 26.2-.2 61.1-.5 77.5-.5l29.7-.1v-35.7l-5.7.3c-6.4.4-15-1.6-20-4.7-1.7-1.1-9.2-8.7-16.7-16.8-14.2-15.7-18.9-19.2-30.2-23.1-3.1-1.1-8.1-2-11.1-2-5.4 0-5.4 0-7.3-4.3-2.5-5.4-2.5-5.7.4-9.9 1.8-2.8 2.4-5.2 2.8-12.4.6-10.9 1.8-13.5 5.7-13.2 2.8.2 6.7-1.9 5.6-3-.3-.3-2.3-.6-4.4-.6-2.2-.1-4.3-.5-4.7-.9-2.2-2.1-4-.1-5 5.3-.3 1.4-1.2 3.1-2.2 3.8-1.4 1.1-2.1.8-4.7-2.2-3.7-4.2-8.7-6.8-12.3-6.4-3.7.4-3.5 3.1.3 3.8 7.5 1.6 10.5 5 11.5 13.2.4 3.5.5 6.8.3 7.5-.7 1.8-7.6 4.2-10.6 3.6-1.6-.3-2.7-1.2-2.7-2.2 0-.9-.9-3.5-2.1-5.6-1.1-2.2-2.2-4.8-2.2-5.9-.2-1.5-1.3-1.9-7.2-2.3-3.8-.2-7.4-.9-7.9-1.4-1.8-1.7-5-.9-7.8 1.8-3.5 3.4-3.7 1.5-.2-2.6 2.7-3.3 7.4-4.3 7.4-1.7 0 2.8 1.6 2.4 8.9-2.5 4.1-2.6 7.8-5 8.4-5.2.6-.2.8-1.1.4-2.1-.6-1.6-.9-1.6-2.9-.2-3.3 2.3-4.3 2-5.7-2-1.5-4.1-.2-6.9 2.1-4.6.7.7 1.5 1.2 1.8 1.2.7 0 10-8.7 10-9.5 0-1.4-4.2-.2-6.7 1.9-2 1.7-3.7 2.3-5.5 1.9-1.4-.3-2.9 0-3.2.6-.4.6-1.6 1.1-2.7 1.1-2.8 0-2.5 4.5.6 8.2 1.4 1.6 2.5 3.8 2.5 4.9 0 2.3-4.4 3.6-6.4 2-.8-.7-2.5-1.1-3.8-.9-2.9.4-3.6-1.3-1.1-2.7 1-.6 2-1.2 2.3-1.3.3-.2-.8-1.4-2.4-2.7l-2.8-2.2 1.6-5.5c1.8-6.3 1.5-7.8-3.9-18.8-5.6-11.5-9.3-18.2-12.5-22.1-2.1-2.6-2.6-3.9-1.9-5.2.6-1.1.6-2.4-.1-3.6-.8-1.6-.5-2.3 2.5-4.1 6.3-3.9 5.5-9.5-1.6-10.6-3-.5-4.7-1.6-6.6-4.1-2.6-3.4-7.9-6.3-11.3-6.3-1 0-2.8-1.2-4-2.8-4.2-5.5-9.1-13.4-8.8-14.2.2-.5 5.5 1.4 11.8 4.2 29.6 13 38.6 15.6 56 16.5 15.8.8 32.1-4 48.4-14.2 9.2-5.7 14.9-11.8 20-21.5 5.2-10.1 6.4-13.8 8.6-26.5 2.4-14.2 1.2-24.4-5.2-41.8-8.1-22.3-17.1-32.3-38.3-43-12-6-26-10.7-37-12.4-10.2-1.6-43.6-4.3-46.2-3.8-1 .2-5.2.6-9.4.9l-7.6.6-3.6-5.8c-2-3.2-4.5-8.2-5.7-11.2-1.1-2.9-3-6.6-4.1-8.1-1-1.5-2.4-5.1-2.9-8.1-1.6-8.2-1.6-8.3-9.8-14.7-9.4-7.6-14.3-9.2-28.9-9.8-6.7-.3-11.6-1-12.2-1.7-.5-.6-.6-4.8-.2-9.6l.6-8.5 4.3.3c3.7.3 4.7-.1 7.1-2.7 1.6-1.7 3.1-4.4 3.5-6.1 1.1-5.7 4-10.4 9.5-15.6l5.5-5.1.1-12.4c0-12.2.1-12.5 3.6-19.9 4.4-9 7.5-15.7 12.4-27 2-4.7 5.7-12.7 8.1-17.8 4.6-9.9 6.6-19.9 6.8-34.9.1-8.4-1.3-10.9-8.8-16.1-4.2-2.8-5.6-3.2-11-3.1-3.3 0-7.2.4-8.6.8zM198.5 241c-1 1.1-2 1.8-2.3 1.5-.7-.6 1.8-3.5 3.1-3.5.5 0 .2.9-.8 2zm-124.7 2c13.4 2.7 20.3 5.2 29.1 10.7 10.2 6.3 23.6 16.6 29 22.2 4.8 4.9 18 20.4 22.2 26.1 4 5.5 13.9 22.6 13.9 24.2 0 .8-1.2 2-2.6 2.7-3 1.3-1.4 2.9-15.9-16-13.3-17.3-22.5-27.8-29.1-33.4-3.2-2.7-6.1-5.2-6.4-5.5-2.3-2.7-13.4-10.7-17-12.4-2.5-1.2-6.1-3.3-8-4.7-8.5-6.5-21.5-10.8-32.1-10.9-10.7 0-25.5 6.8-34 15.7-12.7 13.3-16.8 27-13.4 45 2 10.7 6.6 21.7 13 30.9 5.7 8.3 23.1 25.4 30 29.6 2.8 1.6 7.9 4.7 11.5 6.9 8.7 5.2 29.6 11.8 48.5 15.4 32.6 6 28 5.3 62.5 9.9 10.7 1.5 20.1 2.8 20.8 3.1.7.2 1.7 1.5 2.2 2.7.6 1.3 1.5 3.1 2.2 4 1.7 2.3 1 2.7-5.3 3-11.4.5-35.5-2.4-51.9-6.3-6.9-1.7-17.4-4.1-23.5-5.5-6-1.3-12.6-2.9-14.5-3.4-1.9-.6-6.7-1.7-10.5-2.5-6.1-1.2-19.2-6.1-25.1-9.3-1-.6-6.2-3.2-11.3-5.7-10.9-5.4-19-10.4-24.1-14.9-14-12.4-23.2-25.5-28.3-40.4-2.6-7.5-3.1-10.6-3.5-22.2-.5-16.6.9-23.2 7.1-32.9 6-9.2 10.1-13.6 17-18.3 5.3-3.6 16-7.9 22.7-9.1 6-1.1 15.9-.6 24.8 1.3zm-5.3 9.4c19.4 5.1 32.5 20.2 35.1 40.3 1.3 10.5-3.4 25.7-10.3 32.9-3.5 3.7-11.7 10.4-12.7 10.4-.5 0-2 .8-3.4 1.8-2.7 1.9-7.4 2.4-23.8 2.6-6.3.1-7.9-.4-14.7-3.7-13.7-6.8-22.4-18.5-24.9-33.4-3.1-18.9 7.2-39 24.4-47.6 8.9-4.5 21-5.8 30.3-3.3zm161.4 5.3c-1.8 5.2-2.5 5.9-3.8 3.5-1-2-.6-3.6 2.3-8 1.7-2.8 2.8.5 1.5 4.5zm10.4 2.7c-.2 3.1.1 3.8 2.4 4.7 2.1.8 3.1.5 5.8-1.6 3.8-2.8 4.7-2.2 6.2 3.5.7 2.5 1.6 3.6 3.1 3.8 3 .5 4 2.8 3.4 8l-.4 4.4-2.7-3.3c-5.1-6.1-10.2-1.8-12 10.1-.6 4.5-.7 4.5-4.4 4.2-3.7-.4-4.6.5-2.6 2.5.7.7 0 1.2-2.5 1.7-3.4.7-3.5.8-3.3 4.9.5 7.3 2.9 8.5 8.1 4.2 2.6-2.1 2.8-2.7 1.9-4.8-1.1-2.3-.9-2.5 1.7-3 1.9-.4 3.1-1.5 3.8-3.6.8-2.4 1.7-3 4.4-3.3 2.9-.3 3.3-.7 3.6-3.6.2-2 .9-3.2 1.8-3.2 2.3 0 1.6 3.3-1.5 7-1.5 1.9-3.6 5-4.5 6.8-3.1 6-8.7 12.7-12.3 14.5-3.4 1.8-3.8 1.8-7.9.2-2.5-.9-6-3.3-7.8-5.2-2.3-2.5-3.9-3.4-5.1-3-1.4.6-1.1 1.4 2.1 5.3 2.1 2.5 5.1 5.2 6.8 6.1 6 3.1 5.9 4-.6 10.9-5.7 6.1-6.2 6-8.7-1.2-2.1-5.9-4.9-8.1-12.6-9.5-3.3-.7-6.3-1.5-6.7-1.8-1.4-1.2 3.5-27.7 5.6-30 1.1-1.2 1.3-2 .5-2.8-.6-.6-.9-2.3-.7-3.9l.4-2.9 1.2 2.7c1.3 3.2 3.2 2.9 5.7-.8.8-1.3 2.5-2.4 3.6-2.4 1.2 0 2.7-1.2 3.7-2.9 1.4-2.4 2.1-2.9 4.3-2.4 2.2.4 3.1 0 4.6-2.3 1-1.5 2.3-4.2 2.8-5.8.7-2.3 1.7-3.2 3.8-3.4 1.6-.2 2.7-.9 2.7-1.8s.6-1.4 1.3-1.1c.7.2 1.1 1.9 1 4.1zM193 263c0 .5-.5 1-1.1 1-.5 0-.7-.5-.4-1 .3-.6.8-1 1.1-1 .2 0 .4.4.4 1zm30 1.8c0 1.3-1.2 2.2-2.2 1.6-1-.6-.1-2.4 1.3-2.4.5 0 .9.4.9.8zm-11 3.1c0 .6-.4 1.3-1 1.6-.5.3-1-.1-1-.9 0-.9.5-1.6 1-1.6.6 0 1 .4 1 .9zm-102 7.6c7.9 6.3 15.1 13.4 20.6 20 7.5 9.3 23.6 30.9 24.7 33.2 1.2 2.7.3 4-6.7 9.5-4.9 3.9-9.1 9-11.9 14.4-1.6 3.1-3.7 15-3.7 20.8 0 3.1-.3 3.6-2.2 3.6-3.2 0-7.8-3-13.9-9-2.9-2.8-6.4-5.7-7.9-6.5-1.5-.7-6-5.2-10-9.9s-7.7-8.6-8-8.6c-.4 0-1.9-.9-3.4-2.1l-2.6-2.1 7.3-7.2c15.6-15.4 19.6-33.3 11.8-52.9-4.6-11.6-4.7-11.6 5.9-3.2zm81.5 5.3c0 1.8-2 1.5-2.3-.4-.3-1 .1-1.5 1-1.2.7.3 1.3 1 1.3 1.6zm64.3 3.1c.3.8-.1 1.2-.9.9-.7-.2-1.5-1-1.7-1.7-.3-.8.1-1.2.9-.9.7.2 1.5 1 1.7 1.7zM197 306.5c0 1.6-2.7 3.2-3.7 2.1-.7-.7 1.6-3.6 2.8-3.6.5 0 .9.7.9 1.5zm-.9 13.9c2 .8 4.6 1.2 5.8.9 1.7-.4 2-.2 1.5 1.1-.3.9-.2 2.2.4 2.9.5.6 1.5 3.2 2.2 5.7.7 2.5 1.5 5.2 1.8 6 .4.8.7 3.5.7 6 0 4.3.1 4.5 2.9 4.5 1.6 0 3.1.6 3.3 1.2.3.7 1.2 1.3 2 1.3 1.2 0 1.4.7.9 3.4-.9 4.8.1 8.1 3 9.7 1.9 1 2.4 1.8 1.9 3.4-1.8 5.6-1.7 6.4 1.1 9.3 1.6 1.6 3.6 3.1 4.4 3.4 1.3.4 1.3.8-.2 2.4-2.9 3.4-3.2 6.9-.7 9.3 1.2 1.1 3.1 2.3 4.1 2.7 2.1.6 2.4 2.2.6 2.9-.7.3-4.3.7-8 .9-5.8.3-6.9.1-8.6-1.8-3.5-3.9-18.9-27.7-24.7-38.1-1.2-2.2-3.1-5.6-4.2-7.5-1.1-1.9-4.1-7.4-6.6-12.1l-4.7-8.7 6.9-4.1c4.9-2.9 7.1-4.8 7.5-6.7.6-2.3.9-2.4 1.9-1.1.7.9 2.8 2.3 4.8 3.1zm71.1 9c2 .2 6.1 1.6 9.2 3 3 1.4 5.8 2.6 6.2 2.6.4 0 2.8 1.7 5.3 3.8 2.5 2.1 5.3 4.1 6.2 4.4.9.4 2 2.3 2.3 4.3.9 4.4-.3 19.3-1.5 20.1-.5.3-.9-.6-.9-1.9 0-4.2-2.1-8.8-3.9-8.5-1.2.3-1.5 1.3-1.4 3.8.1 1.9.5 8.8.9 15.2l.7 11.7-2.4.5c-11.9 2.8-48.4 8.1-48.4 7.2 0-1-2.6-4.2-3.8-4.8-.9-.4-2.5-1.2-3.4-1.7-2.7-1.2-2.8-5-.3-7.6 1.4-1.5 2.1-3.2 1.7-4.5-.4-1.7 0-2 2.8-2 6.3 0 8.6-5.2 3.9-8.9-3.5-2.8-4.5-2.7-7.9.9-2.5 2.6-2.7 3.3-1.7 5.5 1 2.2.9 2.5-.7 2.5-3.3 0-4.3-2.4-3.6-8.4.7-5.4.6-5.6-1.9-6.6-2-.7-2.6-1.6-2.6-4.1 0-3 .1-3.1 1.8-1.6 1 1 2.3 1.7 2.9 1.7.6 0 1.6.7 2.3 1.5 1.9 2.3 3.7 1.8 6-2 2-3.2 2-3.6.5-6.5-1.9-3.7-3.6-4.5-6.4-3.1-1.9 1.1-2 .9-1.4-2.1.7-4.1 1-4.5 2.5-3s5.1 1.5 6.6 0 1.6-6.4.2-7.3c-1.4-.8-.3-2.5 1.6-2.5 1.2 0 1.4.7.9 3-.4 1.9-.2 3.6.5 4.5 1.4 1.6 6.6 2 7.4.6.9-1.4 1-5.3.2-8.3l-.8-2.6 8.4.4c4.5.3 10 .6 12 .8zm-243.5 1.8c1.3 1.2 2.3 2.8 2.3 3.7 0 1-.9.6-3-1.4-2.9-2.8-3.8-4.5-2.3-4.5.4 0 1.7 1 3 2.2zm149.6 3.4c1.1 1.6 6.4 11 11.9 20.9 12.1 21.8 13.7 24.3 21.3 35 3.3 4.6 8.6 12.4 11.8 17.2 7.5 11.4 18.1 25.1 25.7 33.3 3.4 3.6 6.9 7.7 7.8 9.1 6.9 10.4 9.9 14.2 16.4 20.5 10.8 10.5 21.5 19.6 28.3 24.2 3.3 2.2 7.1 5.2 8.4 6.6 1.4 1.4 3 2.6 3.8 2.6.7 0 3.7 1.5 6.6 3.4 2.9 1.9 7.1 3.9 9.3 4.5 3.9 1.1 5.4 1.9 13.7 7.7 4.7 3.4 19.5 9.2 28.7 11.5 10 2.4 34.2 1.1 38.5-2.1.6-.4 2.1-1.1 3.5-1.5 8.2-2.4 14.8-7 24.2-16.8 7.6-7.9 9.7-10.8 9.6-12.8-.1-1.4 1-4.1 2.6-6.1 8.5-11.2 10-33.9 3.2-46.8-.7-1.4-2.1-3.9-3-5.6-2.4-4.6-12.2-14-18.1-17.3-2.8-1.6-7.5-3.6-10.3-4.5-2.9-.8-6.5-2.2-8-3-4.2-2.4-22.6-9.4-27.4-10.5-18.1-4.2-23.9-5-36.8-5.6-13.8-.6-30.2.6-46.5 3.4-2.7.5-10.8 1.8-18 2.9-7.1 1.2-18.2 3-24.5 4-13.2 2.3-29.6 2.8-31.6 1.1-3.2-2.7-1.5-3.7 7.4-4.2 11.2-.7 29.4-3.5 30.6-4.7.6-.6.5-1.5-.2-2.3-1-1.2.3-1.7 7.5-3 4.9-.8 10.6-2 12.8-2.7 9.4-2.6 52.7-6.9 66.5-6.5 9.3.2 22.5 2.3 29.5 4.5 3.3 1.1 9.8 2.7 14.4 3.6 4.6.8 11.7 3.1 15.8 5 4.1 1.9 8 3.4 8.6 3.4 2.6 0 14.9 9.4 18.6 14.3 2.2 2.8 4.9 6.4 6 7.9 1.2 1.4 2.1 3 2.1 3.5s2.2 5.2 4.9 10.5c2.8 5.3 5.3 11.3 5.6 13.5.4 2.1 1.3 6.8 2.1 10.5 3.1 14.6-.3 32.8-9 47.3-3.1 5.2-6 9.5-6.4 9.5-.4 0-4.1 2.7-8.2 6.1-8 6.5-11.8 8.8-16.5 10-1.6.4-7.5 1.9-13 3.4-23.9 6.5-42.4 2.8-78.2-15.5-16.6-8.5-21.2-11.4-32.8-20.7-7.5-5.9-15.7-12.5-18.3-14.5-9.9-7.9-32.9-33.4-36.7-40.9-1-1.9-4.3-6.4-7.4-10.1-3.1-3.7-8.1-10.1-11.1-14.3-3-4.2-6.9-9.5-8.6-11.8-1.8-2.3-6.7-10.1-10.9-17.2-4.3-7.2-8.8-14.6-10-16.6-1.3-2-4.1-7.2-6.3-11.6-2.3-4.4-7.3-13.5-11.1-20.3l-7.1-12.4 2.2-1.3c3-1.6 3.9-1.3 6.1 2.3zm-8.8 10.1c3.9 5.8 7.5 11.6 8.1 12.7 2.2 4.3 6.3 11.4 10.1 17.7 4.9 8.1 11.6 22 10.9 22.6-.3.3-2.5.2-5-.1l-4.5-.7-2.2-6.7c-5.3-16.1-10.9-24.9-19.7-30.6-3.8-2.5-7.7-5.5-8.7-6.6-1.3-1.5-3.1-2-6.7-2-2.8 0-4.8-.5-4.8-1.1 0-1.4 13.2-15.8 14.6-15.9.5 0 4.1 4.8 7.9 10.7zm80-9.8c.3.5.1 1.2-.5 1.6-.5.3-1-.1-1-.9 0-1.8.6-2.1 1.5-.7zM33.1 341c1.1 2.9 9.3 9 12.2 9 .8 0 4.2-1.4 7.7-3.1 3.4-1.6 8.7-3.5 11.7-4.1 4.9-1 5.7-.9 8.3 1.1 3.9 2.9 9 3.9 9 1.8 0-.8-.8-1.8-1.7-2.1-1.5-.6-1.5-.8.1-2.4 1.6-1.6 1.8-1.6 3.7.7 1.6 1.9 1.8 3.4 1.4 7.8-.5 5.6-2.5 10.8-3.3 8.5-.6-1.8-2.2-1.5-2.2.4 0 1.2-1.3.4-4.4-2.4-2.7-2.5-5.7-4.3-7.8-4.6-9.7-1.5-12.4-1.6-15.7-.5-4.6 1.5-5.8 2.6-4.4 4 .9.9 1.9.8 3.9-.6 2.1-1.3 4.2-1.6 9.6-1.3 6.6.4 7.2.6 10.4 4.1 1.9 2 3.4 4.7 3.4 6.1 0 1.7.8 2.7 3 3.6 1.7.7 3.1 1.8 3.2 2.4 0 .6.2 2.4.3 3.9.1 1.5 1.1 3.5 2.1 4.3 1.8 1.5 1.8 1.5-.6 1-6-1.2-14.8-5.1-23-10.2-10.5-6.5-15-10-15-12 0-.7-.9-1.8-2-2.4-4.2-2.2-11.4-10.1-12.4-13.8-1.1-3.4 1.3-2.7 2.5.8zm12.7 3.1c1.3.5 2 1.3 1.7 1.9-.9 1.4-1.5 1.3-6-1.5-3.8-2.4-3.8-2.5-1-1.9 1.7.4 4 1.1 5.3 1.5zm176.3 3.2c-1.3 1.3-1.5-.1-.4-3 .7-1.7.8-1.7 1.1.1.2 1-.1 2.3-.7 2.9zm-123.4 9c1 1.2 3.6 3.6 5.8 5.2 2.2 1.6 6 4.9 8.5 7.4s6.3 6 8.3 7.7c3.6 3 4.9 6.4 2.5 6.4-1.6 0-4.8-3-4.8-4.6 0-.7-3.1-3.8-7-6.9-10.2-8.1-17-14.6-17-16.1 0-2.1 1.6-1.7 3.7.9zM83 363.5c0 .8-.4 1.5-1 1.5-.5 0-1-.7-1-1.5s.5-1.5 1-1.5c.6 0 1 .7 1 1.5zm154.5 6.5c.3.5.1 1-.4 1-.6 0-1.1-.5-1.1-1 0-.6.2-1 .4-1 .3 0 .8.4 1.1 1zm-77.6 7.3l1.1 3.2-2.5-3c-1.4-1.7-2.5-3.6-2.5-4.4 0-2.3 2.7.6 3.9 4.2zm12.1 1.1c0 .6-.7.1-1.5-1-.8-1-1.5-2.3-1.5-2.8 0-.6.7-.1 1.5 1 .8 1 1.5 2.3 1.5 2.8zm129.2 1.8c-.7.7-1.2 2-1.2 3s-.4 1.8-1 1.8c-.5 0-1-.8-1-1.7 0-1.8 3-5.6 3.8-4.8.3.3 0 1.1-.6 1.7zM163 383.4c0 1.5-1.8 3.1-2.6 2.3-.7-.7.7-3.7 1.7-3.7.5 0 .9.6.9 1.4zm14.4 6c1.9 5.7 1.9 6.6.6 6.6-.5 0-1.2-1.7-1.6-3.8-.4-2-1.3-4.6-2-5.7-.8-1.1-1.4-2.6-1.4-3.4 0-2.8 2.6 1 4.4 6.3zm-12-.8c.6 2.4.2 4.3-.8 3.3-1.1-1-1.7-5.9-.8-5.9.5 0 1.3 1.2 1.6 2.6zM93 400c-.6 1.1-1.5 2-2 2-.6 0-1-.9-1-2 0-1.3.7-2 2-2 1.8 0 1.9.3 1 2zm165.3-1.3c-.7.2-2.1.2-3 0-1-.3-.4-.5 1.2-.5 1.7 0 2.4.2 1.8.5zm-153.1 1.8c1.5.2 4.4.8 6.5 1.4 2.1.5 7.4 1.7 11.8 2.7 4.4.9 10.5 2.3 13.5 3.1 9.2 2.5 17.3 4.2 22.2 4.8 5.4.7 5.5 1.8.5 5.2-4.1 2.8-5.1 2.9-4.4.3.9-3.5-1.2-3.3-4.5.4-4.3 4.9-8 4.9-4.3 0 2.1-2.8 1.9-4.3-.6-3.7-1.5.4-2.2 0-2.6-1.6-.4-1.7-1-2-2.7-1.4-1.1.4-3.4.6-5.1.5-2.4-.2-3.7.6-6.1 3.4-1.7 2-3.7 3.5-4.4 3.2-.8-.2-.4-1.4 1.4-3.5 1.4-1.7 2.6-3.8 2.6-4.7 0-1.8-2.5-2.2-3.5-.6s-3.5 1.2-3.5-.5c0-1.1-.7-1.4-2.4-.9-1.7.4-2.7 0-3.4-1.2-1-1.8-1.1-1.8-2.9-.1-2.5 2.2-3.3 2.2-3.3-.3 0-2.8-.9-2.5-5.2 1.7-4 3.9-6.1 4-3.4.1 2.2-3.1 2-4.1-.6-3.5-1.9.5-2.6-.1-4.1-3l-1.8-3.5 3.8.7c2.1.4 5 .9 6.5 1zm258.8 4c12.8 2 23.3 4.7 30.5 8l6 2.8-4 .8c-6 1.1-15.1 4.5-19.8 7.3-8.8 5.3-18.1 16.1-20.7 24.1-.6 1.9-1.4 3.5-1.6 3.5-1.7 0-6.4-4.7-6.4-6.4 0-3.7-3.7-8.6-6.5-8.6-1.8 0-2.5-.5-2.5-2 0-1.2-.9-3.8-1.9-5.8-1.7-3.4-9.1-24.3-9.1-25.9 0-1 25.5.5 36 2.2zm-40.4-.7c.6.4 1.4 1.8 1.8 3.2.3 1.4 1.3 4.8 2.1 7.7l1.4 5.2-5.9 8.8c-7 10.5-10.9 15.3-11 13.4 0-1.5 6.7-13.6 10.6-19 1.3-1.9 2.2-3.7 1.8-4-.3-.3-.9.1-1.4.9-2.1 3.7-7.1 10-8 10-1.7 0 .8-4.9 5.5-10.9s5.5-8.1 3-8.1c-.9 0-2.3 1.7-3.2 3.7-1.9 4.1-5.1 8.3-6.5 8.3-.5 0 .5-2 2.2-4.4 3-4.4 3.9-7.6 2.1-7.6-.6 0-2.2 2.2-3.7 5-1.5 2.7-3.1 5-3.6 5-1.3 0-.9-1.1 1.5-4.4 2.4-3.2 6.7-10.4 6.7-11.2 0-.2-.5-.4-1-.4-.6 0-2.4 2.2-4.1 5-3 4.9-6.2 7.2-3.7 2.7 2.3-4.2 1.7-5-1.3-1.6l-3 3.4.4-2.8c.5-2.9-.1-3.2-6-2.8-2.4.2-3.3-.2-3.3-1.3 0-.9.6-1.7 1.3-1.7 4.5-.4 7.8-.9 12.2-1.7 6.4-1.2 11.7-1.4 13.1-.4zm-34.6 5.5c0 .7-1 1.7-2.2 2.2-3.1 1.3-3.6 4.5-.9 4.5 2.6 0 2.7 1.2.1 3.5s-2.6 4.5 0 4.5 1.5 2.8-1.3 3.2c-3 .4-3.6 3.8-.7 3.8 1.8 0 2.1.4 1.6 2.2-.3 1.3-.6 2.9-.6 3.5 0 .7-.6 1.3-1.4 1.3-.8 0-1.6.7-2 1.5-.3.8-1.7 2-3.1 2.5-3.5 1.3-2.1 3.4 1.7 2.6 3.8-.7 2.7 1-1.1 1.9-3.4.7-5.8 3-4.2 3.9.6.4 2.2.4 3.7 0 2-.5 2.5-.3 2.2.7-.3.8-2.7 1.8-5.6 2.2-3.7.6-5.2 1.3-5.2 2.4 0 1.3.8 1.5 4.6.9l4.6-.6-.7 4.3c-.4 2.4-1.6 4.9-2.7 5.8-1.4 1.1-1.7 1.8-.9 2.3 1.6 1 1.4 2.6-.3 2.6-.8 0-4.2-3-7.5-6.8-5.8-6.4-6.1-6.9-5.5-10.8.5-3.5.3-4.4-1.7-5.7-1.3-1-3.3-1.4-4.9-1-2.2.4-3.1 0-4.6-2.2-1.1-1.4-3.4-4.2-5.1-6.2-3.7-4.1-4-5.3-1.7-8.8.9-1.4 1.4-3.4 1.1-4.5-.4-1.7 0-2 2.8-2 4.1 0 5.7-1.9 5.3-6.1l-.3-3.3 9.5-1.7c5.2-1 11.8-2.2 14.5-2.7 7.7-1.4 12.5-1.4 12.5.1zm-173.5 4.5c-1.7 1.5-3.9 4.4-5 6.4-1.8 3.5-4.2 5.5-5.3 4.4-.2-.3 1-2.3 2.7-4.4 1.7-2.2 3.1-4.5 3.1-5 0-1.4 4-4.2 6-4.2 1 .1.5 1-1.5 2.8zm-7.7-.6c-.2.6-1 1.4-1.6 1.6-.7.2-1-.2-.6-1.2.7-1.8 2.8-2.2 2.2-.4zm-8.4 2.3c-.4.8-.8 1.5-1 1.5-.2 0-.4-.7-.4-1.5s.4-1.5 1-1.5c.5 0 .7.7.4 1.5zm72.6-.5c0 1.3-2 1.3-4 0-1.2-.8-.9-1 1.3-1 1.5 0 2.7.4 2.7 1zm-50 .9c0 1.3-2.6 3.2-3.3 2.4-.8-.7 1.1-3.3 2.4-3.3.5 0 .9.4.9.9zm83.7 1.7c1 1.4 3.7 4.9 6.1 7.7 2.4 2.9 5 6.5 5.9 8.1 1.4 2.7 9.6 12.8 15 18.6 1.3 1.4 4.9 5.5 7.9 9.1 4.7 5.8 5.4 7.2 5.4 10.9 0 4.5 2.2 8.2 4.4 7.4.7-.3 2.5.7 4 2.1 1.5 1.4 3.2 2.3 3.7 2 .5-.4.9-.2.9.4 0 1.9-3.6 2.1-9 .5-9.2-2.6-10.6-2.7-14.5-.8-3.3 1.6-3.9 1.6-6.3.2-1.5-.8-4.2-1.8-6-2.1-1.8-.4-6.4-2-10.2-3.7-3.7-1.6-7.9-3-9.2-3-2.8 0-13.7-3.7-15.6-5.3-1.1-.9-.9-1.3.9-1.9 3.1-1.2.9-3.3-3.3-3.3-2.8 0-3.3-.5-4.9-4.5-2.5-6.6-4.2-16.7-3.1-18.6 1.1-2 2.7-.1 1.8 2.1-.2.7.2 1.9 1 2.6 1.2 1 1.2 1.3-.2 2.3-1.4 1-1.3 1.4.5 3 1.7 1.5 1.9 2.2.9 3.4-1 1.2-.4 2.1 3.2 5.3 2.5 2.1 5.4 3.8 6.5 3.8 1.6 0 1.3-.6-1.8-3.2-3.8-3.3-4.8-5.1-2.2-4.1 2.4 1 1.7-.8-1.7-4.4l-3.3-3.4 3.3.7c4.3.9 4.2-1-.3-3.6-2.6-1.6-3.3-2.5-2.5-3.4.7-.8.6-2.3-.5-4.8-.8-2-1.3-4.8-1-6.4.2-1.5.9-5.8 1.5-9.4l1.2-6.6 9.8-.1c9.6-.2 10-.1 11.7 2.4zm28.1 1.4l.2 3.5-2.5-3c-3.1-3.7-3.1-4.7-.2-4.3 1.7.2 2.3 1 2.5 3.8zm7.4-.5c.4 3.9.4 3.9-2.3 2.5-2.6-1.4-2.6-6 0-6 1.4 0 2 .9 2.3 3.5zm-106.2-.8c0 2-2.8 5.3-4.7 5.3-1.8 0-1.7-.7 1-4 2.5-3.3 3.7-3.7 3.7-1.3zm113-.2c0 .9-.6 1.2-1.5.9-.8-.4-1.5-1-1.5-1.5s.7-.9 1.5-.9 1.5.7 1.5 1.5zm-144 1.3c0 1.3-1.2 2.2-2.2 1.6-1-.6-.1-2.4 1.3-2.4.5 0 .9.4.9.8zm194 2.3c-.7 1.1-1.4 1.8-1.7 1.5-.3-.3 0-1.2.7-2.1 1.8-2.1 2.3-1.9 1 .6zm-135-.1c0 .5-.7 1-1.5 1s-1.5-.5-1.5-1c0-.6.7-1 1.5-1s1.5.4 1.5 1zm249.1.4c8.8 1.9 13.5 4.4 20.9 11.2 9.8 9.2 15 20.4 15 32.8 0 20.1-12.9 37.7-31.8 43.1-5.1 1.5-5.7 1.5-6.7.1s-1.5-1.2-3.5 1.1c-2.2 2.6-2.4 2.6-3.1.7-.4-1.1-.2-2.3.5-2.9.7-.6 1.8-2 2.5-3.3.6-1.2 1.6-2.2 2.1-2.2.6 0 1 1 1 2.2.1 2.2.1 2.3 1.5.4 3.4-4.4.3-8.5-3.7-5-2.1 1.9-2.1 1.9-1.4-.9.5-2 .2-2.9-1-3.4-2.3-.9-8.3 2.3-9.6 5.2-1.2 2.6-2.3 3.1-3.3 1.5s-3.7-1.1-6.2 1.2c-2.2 2.1-2.3 2.1-6.3.3-5.4-2.5-13.1-11-17-18.9-8.5-17.1-5.3-36.7 8.1-50.4 6.4-6.6 12.6-10.2 20.9-12.4 8-2.1 12.6-2.2 21.1-.4zM117.5 423c-1 1.1-2.2 1.7-2.7 1.4-1.2-.8 1.1-3.4 3-3.4 1.3 0 1.2.3-.3 2zm6.2.7c-.6 1.5-1.9 3.5-2.8 4.4-.9.9-1.9 2.3-2.1 3-.3.8-.8 1.1-1.2.8-.8-.8 1.4-6.9 2.5-6.9.5 0 .9-.6.9-1.4 0-1.3 1.3-2.3 3.2-2.5.4-.1.2 1.1-.5 2.6zm176.9.9c-1 1.4-2 2.3-2.3 2.1-.2-.3.3-1.7 1.3-3.1.9-1.5 1.9-2.4 2.2-2.2.2.3-.3 1.7-1.2 3.2zm-146.4-.4c-.6.6-1.5.8-1.9.4-.4-.4-.1-1.1.7-1.6 1.9-1.2 2.7-.3 1.2 1.2zm-7.8.6c-.6.4-1.4 1.6-1.9 2.7-.8 2-.8 2-1.3.1-.4-1.9 2.6-5.2 3.7-4 .3.3.1.8-.5 1.2zm94.4 2.5c.6 3-1.6 2.6-4.2-.8l-2.6-3.4 3.2 1.4c1.8.7 3.4 2 3.6 2.8zm-103.1-1.6c-.9.9-1.9 1.4-2.3 1.1-1-1 .6-2.8 2.4-2.8 1.5 0 1.5.1-.1 1.7zm166.5.5c-.7.7-1.2.8-1.2.2 0-.6.3-1.4.7-1.7.3-.4.9-.5 1.2-.2.2.3-.1 1.1-.7 1.7zm28.8 3.5c1.5 4.1 1.9 6.5 1.3 8.1-1.2 3.4-11.7 17.4-12.1 16.2-.2-.6.1-1.7.7-2.4 1.7-2 9.1-15.8 9.1-16.9 0-.5-.7-.3-1.6.4-1.3 1.1-1.7 1-2.6-.5-.8-1.5-1.7-.6-5.9 6.1-2.8 4.3-6.7 10.7-8.7 14.3-3 5.3-3.8 6.1-4 4.2-.2-1.3 1.3-4.8 3.7-8.7 2.3-3.5 4.1-7.2 4.1-8 0-.9 2-3.8 4.5-6.4 2.5-2.6 4.5-5.6 4.5-6.6 0-1.9 2.7-5.5 4.1-5.5.4 0 1.7 2.6 2.9 5.7zm-226-2.3c0 1.6-1.8 3.1-2.7 2.2-.8-.8.5-3.6 1.7-3.6.5 0 1 .6 1 1.4zm6.5-.5c.3.5.1 1.2-.5 1.6-.5.3-1-.1-1-.9 0-1.8.6-2.1 1.5-.7zm11.9 6.8c-3.2 6.3-7.6 11.3-8.1 9.6-.2-.6.8-3.1 2.4-5.5 1.5-2.4 2.7-4.5 2.8-4.8 0-.3 1.1-2 2.5-3.6 3.5-4.4 3.8-2.1.4 4.3zm10.5-4c0 .5-.9 2.1-2 3.8-1 1.6-2.3 4-2.8 5.2-.5 1.1-1.4 2.4-2 2.7-.6.4-.9 1.2-.7 1.9.1.7.1.9-.1.4-.3-.4-1.1-.7-1.9-.7-1.1 0-1-.9.7-4.3 3.2-6.2 5.8-9.7 7.5-9.7.8 0 1.4.3 1.3.7zm5.4 3.3c-.6 2.1-2.1 3.5-2.9 2.7-.2-.2 0-1.6.6-3.1 1.1-3.1 3.1-2.7 2.3.4zm22.1-.9c-.3.5-1 .7-1.5.3-.5-.3-.7-1-.3-1.5.3-.5 1-.7 1.5-.3.5.3.7 1 .3 1.5zM104 432c0 .5-.5 1-1.1 1-.5 0-.7-.5-.4-1 .3-.6.8-1 1.1-1 .2 0 .4.4.4 1zm6.6.2c-.3.7-.9 2.1-1.2 3-.6 1.6-2.4 2.6-2.4 1.4 0-1.7 2.2-5.6 3.1-5.6.6 0 .8.6.5 1.2zm196 7.7c-.9 1.7-2.5 3.5-3.6 4.1-3 1.6-2.8 1.1 2.7-7.8 1.4-2.1 1.8-2.3 2.1-1 .2.9-.4 3-1.2 4.7zm-152.5-2.6c-1.3 1.3-2.6.3-1.6-1.2.3-.6 1.1-.8 1.7-.5.6.4.6 1-.1 1.7zm-40.9 3.9c-.7.7-1.2.8-1.2.2 0-1.4 1.2-2.6 1.9-1.9.2.3-.1 1.1-.7 1.7zm228.6 3.2c.2 2.7.9 4 2.2 4.3 1.4.4 1.8 1.3 1.6 4.6-.1 2.2-.8 4.3-1.4 4.5-.7.2-1.2-.1-1.2-.8 0-.6-.4-.8-1-.5-.5.3-1-.1-1-1 0-.8.7-1.8 1.5-2.1 2.1-.9 1.9-2.4-.4-2.4-1.1 0-2.1-.5-2.3-1.2-.7-2-9.6 11.9-14.7 22.9-1.4 2.9-3 5.3-3.8 5.3-2.6 0-2-1.4 10.4-23.2 2.3-4.1 5.1-8.3 6.2-9.3 1.1-.9 1.8-2.2 1.5-2.7-.4-.5-2.1.5-4 2.3-4.2 4-5.1 3.4-2-1.2 1.8-2.7 3.1-3.5 5.2-3.4 2.6 0 2.9.4 3.2 3.9zm-198.4-2.5c.3.5-.1 1.4-.8 2-1.6 1.3-3.2-.2-2.1-1.9.8-1.2 2.2-1.3 2.9-.1zm13.6.1c0 .5-.4 1-1 1-.5 0-1-.5-1-1 0-.6.5-1 1-1 .6 0 1 .4 1 1zm152.3 1c-.6 2.2-2.3 3.8-2.3 2.1 0-1.7 1.2-4.1 2-4.1.5 0 .6.9.3 2zm-159.3-.2c0 1.3-1.2 2.2-2.2 1.6-1-.6-.1-2.4 1.3-2.4.5 0 .9.4.9.8zm172.9 3.9c-1.2 3.1-3.8 6.3-5.1 6.3-.8 0 1.5-5.3 3.4-7.8 1.8-2.2 2.8-1.3 1.7 1.5zM155.5 448c-.3.5-1.1 1-1.6 1-.6 0-.7-.5-.4-1 .3-.6 1.1-1 1.6-1 .6 0 .7.4.4 1zm-20.5 1.4c0 .3-.4.8-1 1.1-.5.3-1 .1-1-.4 0-.6.5-1.1 1-1.1.6 0 1 .2 1 .4zm217 10c0 .7-.7 1.9-1.5 2.6-.8.7-3.1 3.9-5.1 7.1-3.5 5.9-6.1 8-4.5 3.6 1-2.6 5.9-11.7 7.4-13.5 1.3-1.6 3.7-1.5 3.7.2zm.9 8.9c0 2.9.5 7.3 1.1 9.9 1 3.9.9 5-.5 7.2-2.1 3.1-3.9 3.4-3 .5.4-1.3.2-2.4-.4-2.9-.9-.5-.9-1.5-.1-3.6 1-2.9 1-2.9-2 .6-3.8 4.5-3.8 3 0-4.3 1.7-3.1 2.9-5.7 2.7-5.7-.4 0-5.9 8.5-7.6 11.7-.6 1.3-1.6 2.3-2.1 2.3-1.5 0-1.2-2.6.5-4 .8-.6 2.6-3.7 4-6.8 5.3-11.6 7.4-13 7.4-4.9zM300 468c-2.4 1.5-3.7 1.1-1.6-.5 1.1-.8 2.2-1.2 2.5-.9.3.3-.1.9-.9 1.4zm34 2.9c0 .6-.5 1.3-1.1 1.6-.6.4-.7 1.9-.4 3.5.3 1.5.2 3.1-.3 3.4-.6.3-.8-.4-.6-1.6.3-1.3-.6-.3-2 2.2s-2.5 5.6-2.6 7v2.4l-1.5-2.1c-1.4-2.1-1.4-2.6 1.1-7.5 1.5-2.9 3.3-6.3 4.2-7.6 1.5-2.2 3.2-3 3.2-1.3zm-81 6.4c0 .6-.9.2-2-.8s-2-2.3-2-2.8c0-.6.9-.2 2 .8s2 2.3 2 2.8zm46.2 1.9c-.9.9-1.2.7-1.2-1.2s.3-2.1 1.2-1.2c.9.9.9 1.5 0 2.4zm38.4 3.5c-1 1-1.9-.5-1-1.8.6-1.1.8-1.1 1.2 0 .2.7.1 1.5-.2 1.8zm-150.1 3.7c1.1.7 7 3.3 13 5.7 6.1 2.4 11.2 4.4 11.4 4.6.2.1-.9 1.7-2.4 3.5-5.5 6.4-6.9 13.2-4 18.9 1.9 3.6 1.1 9-1.6 11.5-2.3 2-2.4 3.7-.4 5.4 2.1 1.8 8.4-.7 9.1-3.7.4-1.3 1.5-4 2.5-6 1-2.1 1.9-5.5 1.9-7.7 0-3.3.7-4.5 4-7.8 3.5-3.2 4.8-3.8 8.4-3.8 2.7 0 4.6-.5 4.9-1.3.4-1 2.1-1.1 6.8-.6 5.8.6 6.6.4 9-1.7 2.1-2 3.6-2.4 8.5-2.4 3.4 0 8.2-.6 10.8-1.4 5.9-1.8 6.4-1.6 18.2 7.1 13.3 9.9 28 23.9 31.6 30.1 3.1 5.5 6.9 8.5 12.5 10.1 1.7.5 4.8 2.7 6.8 5 2.7 3 4.5 4.1 6.6 4.1 3.3 0 4.5 1.5 2.9 3.5-1.6 1.9-4.9 1.9-7.4 0-2.6-2-9-1.9-10.6 0-1.1 1.3-.9 2 .9 3.9 1.5 1.6 1.9 2.6 1.1 3.1-1.9 1.2-3.9-.3-5.5-4.2-1.7-4.1-3-5.3-5.9-5.3-1.1 0-3.2-1.2-4.7-2.6-1.8-1.7-4.2-2.8-7.1-3.1-4.4-.5-4.4-.5-6.1 3.8-1.6 3.9-1.6 4.5-.1 6.8.9 1.4 3.4 4.2 5.5 6.2 2.2 2 3.9 4.1 3.9 4.6 0 1.6-5.5 4.1-8 3.6-1.8-.3-3.2.2-4.5 1.7-1.7 1.9-1.8 2.5-.6 7.1 1.7 6.6.7 7.7-4.7 5-2.3-1.2-5.1-2.1-6.2-2.1-4.3 0-6-1.8-6-6.3 0-2.3-.7-5.3-1.6-6.5-2-2.9-6.4-2.9-9.2.1-2 2.1-2.1 2.4-.6 5.2 1.9 3.5 2 13.7.1 16.9-.6 1.1-1.2 4.1-1.2 6.6v4.5l-5 .1c-4.5 0-5.4-.4-8.4-3.5-1.9-2-4.3-4-5.5-4.6-2.2-1.1-3.3-4.1-3.5-9.5-.1-1.9-.8-4.4-1.6-5.4-.8-1.1-1.5-3-1.5-4.2 0-4.9-4.1-6.2-8.2-2.6-1.6 1.3-1.6 1.7-.1 4.5 1.3 2.7 1.4 3.8.3 8.2-1.8 7.3-5.3 11.6-9.3 11.4-1.8-.1-3.9.1-4.8.5-2 .9-3.3-.7-4.9-5.9-.7-2.2-1.7-4.6-2.3-5.3-.6-.8-.6-3.2.2-7.1 1.2-6.3.9-8.4-2.2-11.9-2.4-2.6-5.3-2.8-7.9-.5-2.2 2-2.3 4.1-.2 6.4 2.5 2.8.9 7.3-4 11.4-2.5 2-5.4 3.5-6.9 3.5s-3.2.9-4.1 2.2l-1.5 2.1-2.1-2.4c-1.6-1.9-1.9-3.3-1.4-6.8.4-3.2 0-5.9-1.7-10.3-2.1-5.7-2.1-6.1-.5-9.4 3-6.4 1.4-9.4-5.1-9.4-3.7 0-5.3 1.6-5.3 5.5 0 1.9-.8 3.9-2 5-2.1 1.9-2.6 5-1 6 1.5.9 1.2 5.1-.5 6.5-2.3 1.9-9.5-.6-9.5-3.2 0-1.1-1.1-3.5-2.4-5.4l-2.4-3.5 1.8-5.7c1-3.2 2.5-11.3 3.4-18.1 1.6-11.9 4.6-25 8.8-37.6 2.6-7.7 11-21.7 14-23.1 3.2-1.6 3.1-1.6 5.3 0zm56.7 2c.4.6.8 2 .8 3.1 0 1.2.5 2.6 1.1 3.2.6.6.9 2.1.7 3.4-.2 2-1 2.4-4.5 2.7-4 .3-4.3.2-4.3-2.3 0-2.2.3-2.4 1.9-1.6 2.5 1.4 3.1.5 3.1-4.6s-1.3-5.5-4-1.1c-1.8 3-2 3.1-2 1 0-4 1.8-6.4 4.3-5.6 1.2.4 2.5 1.2 2.9 1.8zM367 499.9c3.2 3.3 7.4 6.7 9.4 7.6 2 1 3.6 2.1 3.6 2.6 0 1.6-6.4 1-9.1-.9-7.7-5.1-11.5-7.8-12-8.6-.7-.9.9-6.6 1.8-6.6.3 0 3.1 2.7 6.3 5.9zm34 .1c0 2.6-2.4 11.8-3.5 13.6-1.3 2.1-5 3.3-10.9 3.7-4.6.3-4.5 2.7.1 2.9 11.8.5 16.3.3 21.1-.8 5-1.2 8.2-1 8.2.5 0 1-6.5 4-13.5 6.2-7.4 2.3-24.7 2.6-32 .5-6-1.7-22.4-7.6-28-10.1-7.1-3.1-6.9-5.5.5-5.5 3.7 0 5.5-.6 7.8-2.5 4-3.3 7.4-3.1 13 .7 6.9 4.9 13.3 7.8 16.9 7.8 2.8 0 3.5-.5 4.7-3.5.9-2 1.3-4.2 1-4.9-.3-.8-.1-1.7.5-2.1.7-.4 1.1.8 1.1 3.4 0 7.2 5.6 4 9-5.2 1.9-5 4-7.5 4-4.7zm34 4.8c0 1.1-8.5 7.2-9.9 7.2-2.3 0-.9-1.6 4.2-4.7 6.2-3.7 5.7-3.5 5.7-2.5zM422 515c3.2 2.4 2.3 3.2-2.1 2-1.8-.6-4.9-1-6.6-1-3.7 0-4.5-1.6-1-2.3 4.7-.9 7.3-.6 9.7 1.3zm-17.9 1.5c-.1 1.5-2.4 1.2-2.9-.3-.3-.9.2-1.3 1.2-1 1 .1 1.7.7 1.7 1.3zM319.4 562c1.6 0 4.4 4.5 3.4 5.5-.6.7-8.7-2.2-10.5-3.6-.7-.6-1.3-2.3-1.3-3.6v-2.5l3.4 2.1c1.8 1.2 4.1 2.1 5 2.1zm-141.5 16.8c.1 1.5-.4 2.2-1.1 2-1.5-.5-2.2-4.3-1.3-6.6.6-1.5.8-1.5 1.5.3.5 1.1.9 3 .9 4.3zm130.6 4.2c-.3.6-1.7 1-3.1 1-3.3 0-2.4-1.5 1.1-1.8 1.5-.1 2.4.2 2 .8zM181 586.8c0 .7-.4 1-1 .7-.5-.3-1-1.6-1-2.8 0-1.8.2-1.9 1-.7.5.8 1 2.1 1 2.8zm30.4-2c.2.4 0 1.4-.5 2.2-.8 1.3-1 1.3-1.8 0-1-1.5-.6-3 .9-3 .5 0 1.1.4 1.4.8zm-4.8 8.7c-.7 2.9-6.6 7-11.4 8-2.9.6-3.3.5-3-1.2.3-1.3 1.1-1.7 3.2-1.5 2.2.2 3.5-.6 6.8-4.3 4.3-4.9 5.4-5.2 4.4-1zm8.1 10.2c-.7.7-2.3-2.6-3-6.2-.5-2.4-.2-2.2 1.4 1.3 1.1 2.4 1.8 4.6 1.6 4.9zm68.7-1.5c4.5 3.4 12.5 9.5 17.8 13.6 5.4 4 10.1 7.8 10.4 8.4.4.5-2.9 4.3-7.3 8.4-10.6 9.7-12.6 14.1-12.6 27.9 0 7.2.6 12.4 2.2 18.5 5.1 19.2 5.3 21 3.5 29.7-.6 3.2-3.5 2.9-7-.8-3-3.2-13.2-8.9-15.8-8.9-2.4 0-4.6-3-4.6-6.2 0-6.1-3.3-13.6-9.8-22.3-5.9-8-6.5-9.3-7.3-15.6-.4-3.7-.8-11-.9-16.1 0-5.1-.4-11.1-1-13.3-1.5-6-1.3-18.8.3-18.3.6.3 1.8 1.7 2.5 3.2 1.7 3.4 3.6 4.2 6.8 2.7 2.1-.9 3.1-.8 5.4.5 1.5 1 3.4 1.5 4.2 1.2 1.8-.7 4.1-10.7 3.3-14.1-.7-2.5-.1-4.7 1.2-4.7.3 0 4.3 2.8 8.7 6.2zm-52.9 5.8c-.3.5-1.4 1-2.3 1-1.5 0-1.5-.2-.2-1 2-1.3 3.3-1.3 2.5 0zm128.6 28.3c-.8.8-1.1.7-1.1-.4 0-2 1.3-3.4 1.8-1.9.3.7-.1 1.7-.7 2.3zm-4.1 8.6c0 1.1.9 2.1 2.1 2.4 1.9.5 1.7 1.1-3.1 6.7-2.8 3.4-5 6.9-4.8 7.8.2.8 2.4 2.1 5 2.9 2.8.8 5.2 2.2 5.9 3.4 1.6 3 .3 3.6-2.4 1.1-1.3-1.2-2.9-2.2-3.6-2.2-1.8 0-9.9 5.2-10.5 6.7-.3.6 1.6 3.1 4.2 5.5 2.6 2.3 5.2 5.2 5.8 6.3.7 1.4 1.8 1.9 3.8 1.7 1.6-.2 3.6.4 4.7 1.4 1 .9 2.7 1.4 3.9 1.1 3.4-.9 3.3 1.1-.2 4.6-1.8 1.9-6.1 6.3-9.5 9.9-5.2 5.5-8.2 7.6-17.7 12.3-6.3 3.1-11.9 5.4-12.5 5-1.7-1-1.3-9.4.9-17.8 1.1-4.2 5.7-15.4 10.1-24.9 8-17 14-30.6 15.2-34.1.8-2.3 2.7-2.2 2.7.2zm24.5.7c1.9.8 4.5 5.5 4.5 8.4 0 1.2.8 2.4 1.8 2.6.9.3 2.2 1.6 2.9 3 .9 1.9.9 2.4 0 2.1-.7-.3-3.8.9-7 2.6-3.1 1.6-5.8 2.8-6 2.6-.1-.2-1.2-2.4-2.5-4.8-2-4-2.1-4.6-.6-6.2 1.9-2.1.1-3.7-2.1-1.9-.8.7-2 1-2.6.8-.7-.2.8-1.9 3.4-3.7 2.5-1.9 4.8-4 5.1-4.7.6-1.6.8-1.6 3.1-.8zM368 662c0 .5-.2 1-.4 1-.3 0-.8-.5-1.1-1-.3-.6-.1-1 .4-1 .6 0 1.1.4 1.1 1zm20 4c0 .5-.2 1-.4 1-.3 0-.8-.5-1.1-1-.3-.6-.1-1 .4-1 .6 0 1.1.4 1.1 1zm-5.6 2.9c.8 1.2-3.4 4.8-6.5 5.6-2.6.6-5.9-1.4-5.9-3.6 0-1.2 1.7-1.2 2.5.1 1 1.6 4.1 1.1 6-1 2-2.2 3.1-2.5 3.9-1.1zm6.6 7.3c0 .4-.9.8-2 .8-2.1 0-2.4-.8-1.3-3.6.6-1.6.7-1.6 2 .2.7 1 1.3 2.1 1.3 2.6zm34.3.5c-.7.2-2.1.2-3 0-1-.3-.4-.5 1.2-.5 1.7 0 2.4.2 1.8.5zM261 681.5c0 .5-.5.3-1-.5s-1-2-1-2.5c0-.6.5-.3 1 .5s1 1.9 1 2.5zm116.8-1.3c-.3.7-1.9 1.3-3.6 1.3-3.8 0-4-.3-.9-1.5 3.2-1.3 4.9-1.2 4.5.2zm-256 10c1.7 1.7 1.5 5.8-.2 5.8-1.5 0-2.6-2.1-2.6-5.1 0-2.2 1.1-2.4 2.8-.7zm10 .7c1 .6 1.1 2.2.6 5.9-.3 2.9-.8 5.2-1 5.2-.2 0-1.5-.5-2.9-1.2-2-.9-2.5-1.7-2-3.2.3-1.2.8-3.3 1.1-4.9.7-2.8 1.9-3.3 4.2-1.8zm241 4.6c-.9 3.1-25.5 21.9-31.2 23.8-5.6 1.9-6 1.4-.8-.9 6.7-3.2 14.6-9.1 22.2-16.8 4.1-4.2 8.1-7.5 8.8-7.4.7.2 1.2.7 1 1.3zm-92.9 9.1c2.5 1.2 6.4 4.1 8.6 6.3 3.5 3.7 3.8 4.3 2.4 5.7-1.4 1.3-2.1 1.1-6.5-2.5-2.7-2.3-6.8-5-9.1-6.1-4.4-2-4.8-2.6-3.7-5.4.6-1.6 1.3-1.5 8.3 2zm-2.3 10.4c2.1 1.6 5.6 4.1 7.7 5.5 4.3 2.9 4.7 5.5 1.7 10-2.8 4.3-2.6 7.9.8 10.4l2.7 2.1-8.2-.1c-9.2-.1-11.6.7-8.8 2.8 2.1 1.4 13 1.7 20.7.4 4.2-.7 5-.5 6.9 1.5 1.1 1.2 1.7 2.4 1.2 2.7-.4.3-8 .7-16.8.8l-16 .4-.3-5.9c-.4-8.6-.2-8.9 5.3-6.6 5.7 2.4 5.5 2.4 5.5.1 0-2.6-2.3-4.2-7-4.8-4-.6-4-.6-4-5V725l4.3 2.1c2.3 1.2 5 2.8 5.9 3.6.9.8 2.2 1.2 2.7.8 3-1.8-.5-6-7.2-8.6-4-1.6-4.2-1.9-4.5-6.3-.3-4 0-4.6 1.6-4.6 1 0 3.7 1.3 5.8 3zm-84.9 2c-3.1 2.4-11.6 6.2-13 5.7-1.1-.3 12.9-7.7 14.6-7.7.6 0-.2.9-1.6 2zm106.6 6.6c1.8.9 5 2.9 7.2 4.4 6.2 4.3 11.4 7 13.3 7 2.4.1 5.3 4.3 4.1 6.1-1.5 2.5-1 4.9 1.4 5.8 1.3.5 2.9 1.6 3.7 2.5.9 1.2 2.2 1.5 4 1.1 2.4-.5 2.8-.2 3.6 2.7.8 2.8 2 3.8 8 6.7 7.6 3.7 8.7 4.8 9.9 10 .5 2.4.4 3.1-.4 2.7-.6-.4-5.5-.9-10.9-1.2-12.3-.5-14.2-1-14.2-3.3 0-2.6-2.2-4.2-4-3.1-2.3 1.5-2.9 1.2-2.3-1 .3-1.1 1.4-2 2.4-2 2.8 0 2.3-2.9-.6-3.6-1.4-.3-2.5-1.2-2.5-2 0-1.6-4.6-1.9-5.5-.4-.3.5-1.3 1-2.2 1-1.3 0-1.2-.5.6-2.4 2.5-2.7 1.5-4.2-2.2-3-2.2.7-2.2.6-.3-1.4 1.1-1.2 1.6-2.8 1.2-3.8-.6-1.5-.8-1.5-3.1 0s-2.5 1.5-3.9-.6c-.7-1.3-1.7-3.6-2-5.1-.5-2.1-1.1-2.7-2.2-2.3-2.3.9-3.7-.3-2.4-1.9.9-1.1.3-1.7-2.5-3-1.9-1-3.8-2.1-4.1-2.6-.5-.9 1.4-8.9 2.2-8.9.3 0 1.9.7 3.7 1.6zm129.7 6.7c4.1 2.1 9.3 4.9 11.5 6.2 2.2 1.3 7.1 3.2 11 4.2l7 1.8-11.5.8c-25.7 1.8-54.2-1.6-32.2-3.9 4.1-.5 7.4-.2 10.8.9 7 2.2 11.4 2.8 11.4 1.7 0-1.4-3-2.5-11.3-4.5-7.9-1.9-10.8-1.6-23.8 2.6-6.3 2-11.2 2.9-15.8 2.9h-6.6l5.5-3.1c3-1.7 6.9-4.4 8.5-5.9 9.7-8.9 22.3-10.2 35.5-3.7zm-329.5 9.9c4.9 1.6 9.1 3.1 9.4 3.4.9.8-18.4-.9-19.6-1.8-.7-.6-4.9-.7-10.2-.3-10.3.8-12.1-.4-4.3-2.9 9.5-3 11.1-2.9 24.7 1.6zM319 760.5c-.7.8-1.6 1.2-2.1.9-1.3-.8-.1-2.4 1.8-2.4 1.3 0 1.3.3.3 1.5zm-43.8 15c2.1 6 2.2 6.5.5 6.5-1.6 0-6.7 5.4-6.7 7.2 0 .8.6 2 1.3 2.8.6.8.2.6-1.1-.5-2-1.6-2.5-1.7-3.2-.5-.5.9-.5 1.9.1 2.7 1.7 1.9.1 3.5-2.2 2.3-2-1.1-2.1-1-2.3 3-.1 1.8-.7 2.5-2.1 2.6-3.7.2-4 .5-2.2 1.8 2.7 2.1 1.1 4.4-5.1 7.2-7.2 3.3-12.2 4.9-19.7 6.4-3.3.7-7.6 1.8-9.5 2.5-2 .7-5.1 1.4-7 1.6-4.1.4-4.1-.1-.2-7.9 3.8-7.6 10.4-14.2 14.1-14.2 2.2 0 3.8-1 6.4-4.1 2-2.2 3.8-5.2 4.2-6.7.3-1.4 1.8-4.5 3.2-6.9 2.2-3.8 2.8-4.2 5.1-3.7 4.1 1 4.5 1.9.9 1.9-2.2 0-3.2.5-3.2 1.5 0 .8-.8 2.1-1.8 2.9-1 .7-1.6 2-1.3 2.8.4.9-.2 2.3-1.2 3.2-1 .9-2.6 2.8-3.6 4.3-1.7 2.5-1.6 2.7.5 4.7 2.9 2.7 5.4 2 10-2.8 2.5-2.6 3.9-5.1 4.4-7.9.5-3.1 1.1-4.2 2.5-4.2 1.1 0 2-1 2.3-2.8.4-1.5 1-3.2 1.4-3.7 1.5-2 10.8-7.5 12.3-7.2.8.1 2.2 2.5 3.2 5.2zM245 795c0 .5-.4 1-1 1-.5 0-1-.5-1-1 0-.6.5-1 1-1 .6 0 1 .4 1 1z"/><path d="M57.2 265.7c-.5 1-2.2 5.7-3.7 10.5s-3.4 9.3-4.3 10c-1 .9-4.8 1.3-11.5 1.3-10.3 0-13.1 1.1-8.2 3.3C34.3 293 43 300.2 43 302c0 1-1.6 6.4-3.6 12-2 5.5-3.4 10.3-3.1 10.7.3.3 3.4-1.9 6.9-4.9 11.6-10 13.2-10.5 18.8-6 7 5.7 13.2 10.2 14.1 10.2 1.7 0 .9-4.9-2.1-13.2-1.6-4.5-3-8.8-3-9.4 0-.7 3.4-3.5 7.5-6.1 10.1-6.5 9.9-7.6-1.5-7-6 .3-9.3.1-9.9-.7-.5-.6-2.3-6-3.9-12.1-2.9-10.9-4.3-13.2-6-9.8zm4.5 13.3c1.1 4.4 1.6 8.3 1.2 8.6-1.4.8-1 2.4.6 2.4 1.2 0 3.5 5.5 3.5 8.7 0 1-8.5 7.3-10 7.3-1.7 0-9-6.2-9-7.5 0-.9.7-3.1 1.4-5 1.3-3.1 1.9-3.5 5.1-3.5 2.2 0 3.4-.4 3-1-.3-.6-1.5-1-2.6-1-1 0-1.9-.3-1.9-.7 0-1.5 5.5-16.3 6.1-16.3.3 0 1.5 3.6 2.6 8zm-14.9 12.4c.4 1.7-1.5 5.6-2.6 5.6-1.7 0-10.3-6.1-9.7-6.9.3-.5 3.1-.8 6.3-.6 4.1.3 5.8.8 6 1.9zm30.6-.5c.6 1-4.9 6.1-6.5 6.1-.9 0-2.9-4.2-2.9-6.1 0-1.2 8.7-1.2 9.4 0zm-5.8 19.3c1.2 3.7 2 6.9 1.7 7.1-.2.3-2.8-1.2-5.6-3.4-2.9-2.1-5.5-3.9-5.9-3.9-.5 0-.8-.7-.8-1.5 0-1.6 5.9-5.7 7.4-5.2.5.2 2 3.3 3.2 6.9zm-22.1-4.6c3.5 2.3 3.1 4.5-1.3 7.4-2 1.3-4.3 2.9-5.1 3.5-1.2.8-1.3.4-.7-2.6.6-3.7 3.3-9.9 4.2-9.9.3 0 1.6.7 2.9 1.6zM232 270.5c0 .8.7 1.5 1.5 1.5.9 0 2.6.7 3.9 1.6 3.1 2 4.5.1 2-2.7-2.1-2.3-7.4-2.6-7.4-.4zM230.7 274.7c-.4.3-.7 1.9-.7 3.4 0 2.2.6 3 2.5 3.5 2.9.7 5.5-1 5.5-3.7s-5.4-5.1-7.3-3.2zm2.8 3.3c.3.5.2 1-.4 1-.5 0-1.3-.5-1.6-1-.3-.6-.2-1 .4-1 .5 0 1.3.4 1.6 1zM235.6 381.2c-2.2 3.2-2 6.4.6 8.2 4.4 3.1 8 1.7 9.3-3.6 1.4-5.5-6.7-9.2-9.9-4.6zm5.4 3.8c0 .5-.4 1-1 1-.5 0-1-.5-1-1 0-.6.5-1 1-1 .6 0 1 .4 1 1zM248.1 432.6c-2.7 3.4-2.6 4.9.1 6.8 4.5 3.2 9.8.5 9.8-4.9 0-5-6.5-6.2-9.9-1.9zm5 2.7c-.1 1.2-1.5.9-1.9-.4-.3-.6.1-1 .8-.8.6.3 1.1.8 1.1 1.2zM281 436c0 .5.7 1 1.5 1s1.5-.5 1.5-1c0-.6-.7-1-1.5-1s-1.5.4-1.5 1zM271 461.4c-1 1.3-.9 1.7.4 2.2 2.2.8 4.9-.3 4.4-1.9-.7-1.8-3.3-2-4.8-.3zM401.2 434.2c-.7.7-1.2 1.9-1.2 2.9 0 .9-1.6 5.1-3.5 9.3l-3.6 7.6-10.2.2c-5.6 0-10.8.2-11.6.2-3.5.3-1.7 2.9 5.1 7.2 11.8 7.5 11.2 6.1 6.7 17-3.9 9.3-4.6 12.4-3.1 12.4 1.2 0 11.1-5.7 15.7-9 2.2-1.6 4.6-2.9 5.3-3 .8 0 5.6 3.2 10.8 7.1 11.7 8.7 14.3 8.5 11.2-1-1.3-4.2-4.4-12.9-5.3-15.2-.4-1.1 1.6-2.9 8-6.8 4.7-2.9 8.4-5.8 8.2-6.4-.2-.7-2-1.3-4.1-1.5-3.3-.3-3.7-.1-3.2 1.6.5 1.5-.4 2.6-4.4 5.2-5.4 3.5-6.4 3.3-7.5-1.2-.7-2.6-.5-2.7 4.9-3.3 7.8-1 7-2.5-1.3-2.5h-6.8l-3.2-9.9c-1.7-5.4-3.1-10.4-3.1-11 0-1.5-2.3-1.4-3.8.1zm2.4 6.9c0 .8.6 3.7 1.3 6.6 1.4 5.8 1 7.3-2.2 7.3-4.5 0-5.2-1.4-3.4-6.2.9-2.4 1.7-5.6 1.7-7.2 0-2.8 2.4-3.3 2.6-.5zm5.3 18.7c1.1 1.6 2.3 4 2.6 5.4.6 2.3.1 3-3.6 5.4l-4.3 2.7-4.4-2.4c-6.6-3.6-6.8-4.2-3.2-9.4 2.8-4 3.5-4.5 7-4.5 3.1 0 4.3.6 5.9 2.8zm-18.3-.7c.3.6 0 1.7-.8 2.6-1.3 1.2-1.9 1.2-5.1-.3-2.1-1-3.7-2.1-3.7-2.6 0-1.2 8.8-1 9.6.3zm25.9 19.4c1.1 3 1.6 5.7 1.2 6.1-1.1 1.2-11.7-6.7-11.7-8.7 0-.4 1.4-1.6 3.2-2.7 4-2.6 4.9-1.9 7.3 5.3zm-22-4.9c1.4.9 2.5 2.1 2.5 2.8 0 1-7.9 6.6-9.4 6.6-1.1 0-.7-2.8 1-7 1.8-4.5 2.4-4.7 5.9-2.4zM70.4 710.4c-8.8 3.5-14.5 6.5-18.2 9.7C43.8 727.5 30.1 732 16 732c-9.7 0-16 .9-16 2.1 0 1.5 21.2 1 29.8-.6 9.7-1.9 16.6-4.8 24.7-10.6 6.8-4.8 15.5-9.3 20.1-10.3 6-1.3 20.4 1.2 27.9 4.8 5.8 2.9 24.5 11.5 37 17.1 12.6 5.7 21.9 6 51.9 1.5 7.8-1.1 11.4-2.7 24.1-10.4 3.3-2 7-3.6 8.3-3.6 2.5 0 3.1-2.7.8-3.6-1.8-.7-9 2.5-14.2 6.2-3.6 2.6-10.1 5.8-15.9 8-1.1.4-3.3.8-5 .9-1.6.1-7 .7-12 1.5-10.3 1.4-20.4 1.4-25.5-.1-3.9-1.2-22.5-9.2-28-12-19-9.8-29.2-13.4-41-14.4-5.4-.4-7.6-.1-12.6 1.9z"/><path d="M74.5 720.4c-5.4 1.7-14.5 6.1-19.1 9.2-2 1.4-6.6 3.4-10.1 4.5-4 1.3-6.3 2.5-6.3 3.4 0 3.4 11 .4 19.9-5.5 16.6-11 30.7-11.9 49.1-3.2 3 1.5 7.3 3.9 9.5 5.3 5.3 3.6 14.6 6.8 21.8 7.6 4.8.5 5.7.3 5.7-1 0-1.1-1.5-2-4.2-2.7-8.5-2.1-14.3-4.2-19.1-6.8-2.7-1.5-7.2-4-10.1-5.5-11.6-6.3-27.1-8.5-37.1-5.3zM17.5 748.1c-9.4.3-17.1.6-17.2.7-.2.1-.3.9-.3 1.8 0 1.4 1.1 1.5 9.1.9 12.3-1 48.5-.8 58.4.3 4.4.5 14.1.9 21.5 1 13 0 13.2-.1 5.5-.9-4.4-.5-11.8-1.3-16.5-1.9-4.7-.5-15.3-1.2-23.5-1.5-8.3-.3-16.1-.7-17.5-.8-1.4-.1-10.1 0-19.5.4zM166.5 751c-15.8.5-15.1.6 9.5.7 14.6 0 27.5-.2 28.8-.5 2.9-.9-15.7-.9-38.3-.2zM125.5 752c-7.1.3-11.9.7-10.5.9 4.7.7 29.5-.1 31-1 1.6-.9 1.4-.9-20.5.1zM106.3 752.7c.9.2 2.5.2 3.5 0 .9-.3.1-.5-1.8-.5-1.9 0-2.7.2-1.7.5zM464.7 788.2c-1.3 1-1.7 2.5-1.5 6.2l.3 5-7 1.6c-8.1 1.9-9.5 2.5-9.5 4.6 0 1.8 3.2 3 9 3.3 2.4.1 4.7.4 4.9.7 1 .9-2.4 2.4-5.5 2.4-4.3 0-9.4 1.9-9.4 3.5 0 2.6 4.3 4.5 10.3 4.5 5 0 5.8.2 5.5 1.7-.3 1.5-1.8 1.9-7.7 2.5-4 .3-7.8 1.1-8.4 1.7-1.6 1.6.3 4.5 3.2 4.9 1.7.3 2.1-.1 1.9-2-.3-2.2 0-2.3 5.2-2.3h5.5l.8 9c.4 4.9.8 12.1 1 16 .2 5.5.6 6.9 1.8 6.7 2.9-.7 3.3-2.1 2.1-8.5-1.6-8.8-1.6-22.6.1-23.2.6-.2 5.3-.6 10.3-.9 12.9-.7 17-2.9 13.8-7.5-1.4-1.9-2.4-2.1-13.5-2.1-9.2 0-12-.3-11.7-1.3.3-.8 3.6-1.3 10.7-1.5 7.2-.2 10.1-.6 9.9-1.4-.3-.8-3.6-1.1-10.7-.9-8.1.2-10.2 0-9.9-1 .6-1.7 4.1-2.7 10.1-2.8 7.7-.2 5.4-2.1-2.5-2.1-8.6 0-8.2-1.7.5-2.2 7.6-.4 7.3-2.2-.4-2.8l-6.2-.5-.1-4.5-.1-4.5 4.3-.3c2.5-.2 4.2.1 4.2.7s-1.3 1.1-3 1.1c-3.2 0-4.1 1.7-1.4 2.7 2.3.9 9.1-1.5 9.9-3.4.4-1.1 0-2.2-1.1-3-2.3-1.7-13.5-1.7-15.7-.1zm-3.7 16.9c0 .5-1.7.9-3.7.9-3.8 0-3.6-1.4.2-2.2 2.3-.5 3.5-.1 3.5 1.3zm.5 9.9c.8 1.2-1.4 2.2-5.6 2.4-3.5.1-5.1-1.9-2.2-2.7 3.3-.9 7.2-.7 7.8.3zm27 5c0 2.3-6.1 3.9-14.8 3.9-7.6.1-7.8 0-7.5-2.2.4-2.6 4.4-3.5 15.3-3.3 5.5.1 7 .4 7 1.6z"/><path d="M471.4 830.1c-.8 1.4 1.8 3.1 3 1.9.9-.9 0-3-1.4-3-.5 0-1.2.5-1.6 1.1z"/></svg>