<svg version="1" xmlns="http://www.w3.org/2000/svg" width="666.667" height="1170.667" viewBox="0 0 500 878"><path d="M212.7 17.6c-1.7 1.7 1.1 2.4 9.3 2.4 7.5 0 9.1.3 9.8 1.7.4 1 .6 6.2.4 11.5l-.4 9.8h-7.4c-5.6 0-7.4.3-7.4 1.4 0 1.1 5.4 1.4 30.3 1.8 16.6.2 31 .2 32 0 3.7-.9.8-2.7-4.9-3-3.2-.2-6.3-.7-6.8-1.2-.8-.8.1-4.1 4.4-16.5 1.7-4.8 1.9-5 5.6-5.1 6.4-.1 7.4-.3 7.4-1.9 0-1.2-5.1-1.4-35.8-1.5-19.7 0-36.1.3-36.5.6zm37 3.6c1.2 1.9 7.4 16.9 8 19.4.4 1.9-.1 2.2-5.4 2.8-3.2.3-7.1.2-8.8-.2l-3-.8-.3-9.9c-.1-5.4 0-10.5.2-11.2.7-1.7 8.2-1.7 9.3-.1zm17.9-.1c1 1.7-3.1 14.9-4.7 14.9-.4 0-1.3-1.7-1.8-3.8-.6-2-2-5.2-3.1-7-1.1-1.8-1.8-3.7-1.5-4.3.9-1.3 10.2-1.1 11.1.2zM219.1 243c-13.4 4-23.2 12.4-29.7 25.5-1.9 3.8-3.8 9.2-4.3 11.9-2.9 15.9 3.3 33.8 15.5 44.5 2.6 2.3 4.5 4.4 4.2 4.7-.3.3-3.4 1.2-6.9 2-8.8 2.1-9.1 2.4-6.8 8.8 1 3 2.1 7.2 2.5 9.5.5 3.4.4 4.1-1 4.1-1.8 0-2.1 1.5-.5 2.6.6.3.8 1.6.4 2.8-.4 1.1-.8 4.6-1 7.6-.3 4.4.1 6.2 2 9 1.3 1.9 2.6 4.5 3 5.7.3 1.3 1.4 2.3 2.5 2.3 1.2 0 2 .8 2.2 2.2.2 1.4 1.5 2.9 3.5 3.8 7.2 3.4 6.1 9.6-1.5 7.9-3.6-.8-3.8-.6-8.8 4.8l-5.2 5.6-4.7-.6c-6.7-1-12.3 1.8-19.2 9.3-3.1 3.3-6.1 6-6.7 6-.7 0-2.7 1.6-4.6 3.5-3.2 3.3-3.4 4-3.6 10.8-.2 4 .2 8.2.9 9.5 1 2.1.8 2.7-2.1 5l-3.2 2.7 1.5 9.5c.9 5.2 2 10.3 2.6 11.3 1 1.8.7 6.9-.8 18.2-.3 2.2-.7 8.3-1 13.6-.4 8-.1 10.5 1.6 15 2.4 6.2 2.5 8 .9 12.5-1 2.7-.8 3.6 1.1 6.7 2.5 4.1 2.9 3.5-6.7 10.8-2.8 2.2-6.4 5.7-7.8 7.9-2.5 3.7-2.6 4.3-1.9 12.7.8 11 1.1 12 3.6 12.8 1.7.6 2 1.4 1.7 6.7-.3 5.9-.4 6.1-3.8 7.2-3 .9-4 2.2-6.9 8.1-3.1 6.4-4.1 9.4-5.8 17.8-.4 1.8.2 4.2 1.8 7.2 1.9 3.5 2.1 4.7 1.2 5.6-1 1-1.6.5-2.7-2.2-1.6-3.8-5-5.9-9.5-5.9-3.6 0-5.4 2.1-5.7 6.8-.1 2-.2 4.3-.3 4.9-.1.7-1.4 1.3-3.1 1.3-1.8 0-3.3.7-3.9 1.8-.5.9-.9 7.1-.9 13.6-.1 11 0 11.8 1.5 10.3 1.3-1.3 1.7-3.8 1.7-11.9.1-9.6.2-10.3 2.1-10.3 1.5 0 2.1.8 2.5 3.4.3 1.9 1.1 3.6 1.8 3.9 1.3.4 1.7-1.4 1.3-6.2-.2-1.5 0-3.9.4-5.3.5-2 .9-2.2 2-1.3.9.7 1.5.8 2 0 .9-1.5-.5-3.2-2.2-2.6-1.1.5-1.4-.1-1.1-2.2.2-2.2.7-2.7 2.8-2.4 3.8.4 4.2 1.3 4.1 9.8 0 5.3.4 8.3 1.4 9.4.7.8 1.5 3.3 1.7 5.5.2 2.7.8 4 1.8 4 1.1 0 1.6 1.5 1.8 6.2.2 3.5 0 6.3-.4 6.3-2 0-6.4-5.6-6.4-8.1 0-2.7-2.1-5.4-3.3-4.2-.4.3-.7 1.3-.7 2.1 0 1.6-8.6 12.2-9.9 12.2-.4 0-1.3-1.1-1.9-2.4-.6-1.4-2.1-2.6-3.4-2.8-2.1-.3-2.3-.9-2.6-7.1-.2-5.1-.6-6.7-1.7-6.7s-1.5 1.4-1.6 5.2c-.1 2.9-.4 4.3-.6 3-.3-1.3-1.2-2.2-2.3-2.2-2.4 0-2.8-2-3.5-20.5-.4-10.1-1.2-17.1-2-19.1-3.5-7.7-20.8-9.6-18.9-2 .3 1.2.6 6.7.7 12.2.2 5.4.6 10.5 1.1 11.2.4.7.3 1.8-.2 2.5-.6.7-1.2 3.5-1.4 6.2-.2 3.6-.7 4.9-1.7 4.7-.7-.1-1.9.2-2.6.8-1.8 1.5-2.1.7-3.6-9-1.5-9.8-3.9-13-9.5-13-6.5 0-6.4-.3-6.4 16.1 0 8.2-.4 14.9-.8 14.9-2.3 0-4.4-4.2-4.7-9.7-.3-3.2-.4-6-.5-6.2 0-.2-.6.2-1.4.9-1 .7-1.5 3-1.4 6.1 0 4.7-1.3 7.9-3.3 7.9-.5 0-.9-1.1-.9-2.4 0-2.7-1.6-3.6-6.6-3.6H21l-.2-6.8c-1-28.8-1-34.4 0-35.4.6-.6 2.1.2 3.8 2 2.2 2.2 4.2 3 8.2 3.5 3.3.4 5 .2 4.7-.3-.4-.6-1.8-1-3.2-1-1.6 0-2.7-.7-3-2-.3-1-1.5-2.2-2.6-2.6-1.2-.4-3.9-2.5-6-4.7-4.6-4.8-5.3-4.3-6.3 5.3-.3 3.6-1.1 7.1-1.7 7.8-.7.9-.4 1.9 1.2 3.5 2.8 3.1 2.7 3.7-.8 3.7-4 0-4.6 1.4-2.2 4.9 1.2 1.6 2.1 4 2.1 5.3 0 1.7-.3 1.9-.9.9-.5-.7-1.4-1-2.1-.6-.8.5-1 2.4-.5 6.4.5 4.2 1.3 6.1 3.1 7.6 2.7 2.1 3.9 7.5 2.1 8.7-1.5.9-3.7-1-3.7-3.2s-2.4-3.2-5.6-2.4c-2.4.6-7 8.1-6.3 10.3.7 1.8 5.4-1.2 5.7-3.7.4-2.9 1.6-2.8 3 .2.7 1.7 2.1 2.5 4.6 2.8 4.5.5 6.6-.7 6.6-3.7 0-2.1.5-2.5 2.9-2.5 2.9 0 4.1 1.4 4.1 4.9 0 1.5-8.7 9.1-10.4 9.1-.3 0-.6-.7-.6-1.6 0-.9-.7-1.4-1.7-1.2-2 .4-2.8 4.5-1.8 8.5.5 2 1.1 2.4 3 2.1 2.6-.5 3.5.7 3.5 4.8 0 2-.5 2.4-3 2.4-2 0-3.2-.6-3.6-1.8-1.5-4.9-3.6-5.9-10-4.7-3.4.6-3.4.7-3.4 5.9v5.3l4.2-.7c2.4-.4 5.1-1.1 6.1-1.5 1-.4 3.6-.2 5.7.5 3.4 1.1 4.2 1.1 6.5-.4 1.8-1.2 2.4-2.3 2-3.5-.4-1.3.1-2 1.6-2.4 1.9-.5 2-.8.9-2.1-1-1.3-1-1.6.3-1.6.8 0 1.8-.7 2.1-1.6.4-1.1 1.7-1.4 5.3-1.2 4 .3 4.7.6 4.8 2.5.1 1.3.4 2.6.8 2.9 1.2 1.2 3.7-.5 3.7-2.5 0-1.4.5-1.8 2-1.4 1.9.5 2.8 2.3 1.2 2.3-.5 0-.9 1.3-.9 3 0 1.6.3 3 .7 3 .8 0 .9 1 1.1 9.2.1 4 .6 6.9 1.6 8 2.1 2.4.8 3.8-3.5 3.8-3.9 0-7.1 1.4-5.9 2.6.4.4 2.5.1 4.6-.6 2.2-.7 5.3-1 7-.7 1.7.4 3.3.2 3.6-.3.8-1.4 14.1-1.3 18.4.1 6.9 2.2 8.1 2.9 8.1 4.5 0 1 .7 2.6 1.7 3.6 1.9 2.1 1 3.6-1.1 1.9-1.6-1.3-3.6-.7-3.6 1 0 .5 1 1.3 2.2 1.8 1.3.5 2.3 1.7 2.3 2.7 0 1 .8 2 1.8 2.2 1.2.3 1.7-.3 1.7-1.9 0-2.3 0-2.3 2-.4 1 1.1 2.1 3.6 2.2 5.5l.3 3.5-6-.4c-3.3-.2-6.3-.8-6.7-1.4-.5-.8-1-.8-2 0s-1.8.8-3.1-.2c-1.6-1.1-1.6-1.3-.2-1.9 2.6-.9.6-2.8-2.2-2.1-2.9.7-5.5-1.9-4.7-4.6.3-1-.5-2.3-2-3.2-2.1-1.4-2.6-1.4-3.6-.2s-1 1.8.1 3.2c.8.9 1.4 2.6 1.4 3.7 0 1.3.8 2.2 2 2.4 3.9.8 4.7 4.2 1 4.2-1.8 0-2.5-.5-2.5-2 0-2.2-2-2.6-3.8-.8-1 1-1.5 1-2 .1-.5-.8-3.4-1.1-8.2-1-6 .2-7.5-.1-7.5-1.3 0-.8.9-1.5 2-1.6 6.6-.3 7.5-.5 7.5-1.8 0-1.9-1.7-2.9-3.2-2-2.2 1.4-6.7 1-7.1-.7-.3-1.2-1.6-1.6-4.6-1.6-2.3 0-4.4.3-4.7.8-.5.9-9.1 4.9-10.5 4.9-2 0-.7-1.8 1.7-2.4 4.4-1.1 16.9-11.1 15.9-12.7-.6-.9-7 1.3-9.2 3.3-4.2 3.7-13.8 9.8-15.3 9.8s-1.7-.7-1.2-4.5c.5-4.8-1.6-9.5-4.2-9.5-.8 0-2.8-1.4-4.6-3-1.8-1.7-3.4-3-3.6-3-.2 0-.4 3.4-.4 7.5 0 8.2.9 9.6 7.8 11 1.7.4 3.2.8 3.2.9 0 .2-1 2.3-2.3 4.7-1.9 3.6-2.9 4.5-5.5 4.7-2.4.2-3.2.8-3.2 2.3 0 1.8.8 1.9 11.3 2 6.1.1 11.6 0 12.2-.1 4.5-.9 80.5.6 81.5 1.7.3.3-.8 1.5-2.4 2.8l-2.8 2.3-49.9-.6c-37-.3-49.9-.2-49.9.7 0 .8 3.9 1.1 12.8 1.2 7 0 18.1.2 24.7.4 6.6.2 22.3.6 35 1 12.6.3 23 .7 23.1.8.1.1-1.8 3.5-4.3 7.5-4.1 6.6-4.5 7.8-4.7 14-.1 5.8.4 7.8 2.9 12.7 5.4 10.8 14.2 17.4 26.3 20 9.2 1.9 16 1.9 29.3 0 14.3-2 23.2-4 31.4-7 3.9-1.5 8.4-3 10.1-3.4 1.7-.5 8.4-3.4 14.8-6.5 9.6-4.6 12.8-6.8 18.4-12.4 5.4-5.4 7.2-8.1 9.4-13.7 2.2-5.8 3-7 4.9-7 1.7 0 2.4.9 3.4 4 2.6 8.9 12.1 19.9 20.4 23.6 2.5 1.2 5.3 2.7 6.1 3.5 2.5 2.2 20 8.1 29.1 9.9 13.1 2.5 36.5 3.1 47.9 1.1 11.9-2 26.4-8.6 30.3-13.8 5.8-7.6 7-15.7 3.7-25.4-2.3-6.7-2-8.9 1.3-8.1 4.5 1.1 123.7 2 123.7.9 0-1.9-6.4-2.1-98.5-3.8l-32.9-.6-3.3-2.8-3.2-2.8 7.7-.4c8.3-.4 45.3-.1 91.7.7 29 .5 38.5.1 38.5-1.7 0-.5-1.3-.7-3-.3-1.7.4-3.6.2-4.3-.3-.7-.6-4.3-1.2-8-1.5-3.8-.3-7.1-.7-7.3-1-.3-.3 0-1.6.7-2.8l1.2-2.3.8 2.2c1 2.5 2.2 2.8 3.8.8.7-.8 3-1.7 5.1-2.1 2.1-.4 4.3-1.2 4.8-1.8 1.4-1.8 2.6-8.7 2.3-13.7-.4-8.8-1.2-11.9-3.2-12.5-2.3-.8-8.7 1.1-11.2 3.3-1.4 1.3-2.5 1.4-5.6.6-3.3-.9-4.4-.7-7.6 1-3.7 2.1-5.5 5.4-6.9 13-.8 4 2 8.1 6.2 9.1 1.5.3 3.2 1.6 3.9 3 1 2.2.9 2.6-1.1 3.1-1.2.3-4.9.4-8.1.2-5.4-.3-6-.5-5.6-2.3.2-1.1.4-15.5.5-31.9l.1-30 4.8-.3c4.1-.3 4.7-.1 4.7 1.6 0 1.7.5 1.9 3.5 1.4 2-.3 3.5-.1 3.5.4s-1 .9-2.2.9c-1.4-.1-2.4.6-2.6 1.7-.3 1.5 0 1.8 1.8 1.2 1.5-.5 2.8 0 4.7 1.9 3.3 3.4 6 4 13.6 3.3 5.4-.5 6.5-.3 8.5 1.5l2.2 2.1v-3.7c0-3.2-.3-3.7-2.8-4.2l-2.8-.6-.2-16c-.1-15.3-.2-16-2.4-17.7-1.3-1-4.4-2.1-7-2.4-5.9-.8-9.8 1.8-9.8 6.6 0 5.4-1.5 6.3-3.4 2.2-1.3-2.8-1.5-4.3-.8-6.4 1.3-3.7 0-6-2.5-4.5-1 .6-2 2.1-2.1 3.4-.2 1.3-1.6 4.1-3 6.3l-2.7 4.1-.5-7c-.3-3.8-.2-7.3.1-7.7.3-.4 1.8-.2 3.3.5 2.4 1 2.9 1 3.7-.5.6-.9 2.8-2.6 4.9-3.7 2.1-1.1 4.3-2.7 4.8-3.6.8-1.3 1.5-1.1 5.5 1.6 2.6 1.7 5.2 3 5.9 2.8.7-.1 3.5.6 6.1 1.6 2.7 1 5 1.6 5.3 1.3.3-.3-1-1-2.9-1.6-1.9-.7-4.5-2.3-5.7-3.6-1.3-1.4-3.2-2.5-4.3-2.5-1 0-3-.9-4.4-2-3.3-2.6-3.6-2.6-7.7 1-4.7 4.2-9.6 6.1-13.2 5.1-2.9-.7-2.9-.8-3.1-9.4-.3-14.3-3.2-17.5-14.6-16.3-5.7.6-7 1.2-8.4 3.3-2.1 3.1-.8 7.8 2.2 7.8 1.7 0 2-.6 1.9-3.7-.1-3.4.1-3.8 3-4.3 1.7-.4 4.9-.4 7.1-.2l4 .4.6 6.4c.4 3.5 1 12.9 1.3 20.9.4 8 .9 15.7 1.2 17.2.4 1.8-.3 3.8-2 6.5-2.5 3.7-2.5 3.9-1.1 10.5 1 4.8 1.2 7.5.5 9.3-.6 1.5-1 3.7-1 5.1 0 1.9-.5 2.4-2.6 2.4s-2.5.4-2.2 2.2c.2 1.5 1.1 2.4 2.5 2.6 2 .3 2.2 1 2.5 8.5.2 4.5 0 10-.3 12.2l-.6 4-.8-4c-1.5-7.9-6.2-9.7-11.5-4.5-2.4 2.3-3 3.8-3 7 0 2.5-.5 4-1.2 4s-.5.5.5 1.1c2.2 1.3 14.7-.7 16-2.5.4-.6.5 1.8.1 5.4-.4 3.6-.8 6.6-.9 6.8-.5.6-32.5.3-33.5-.3-1.6-1-1.1-3.3 1-4.5 2.8-1.5 2.5-3-.5-3-2.5 0-3.3-1.4-1.5-2.5.7-.4.7-1.2 0-2.5-1.8-3.3 1-3.4 3.8-.2 2.7 3 8.6 4.8 10.9 3.4.5-.4 1.3-2.8 1.6-5.5.6-3.9.3-5.1-1.3-6.7-2.5-2.5-5.4-2.5-9.6 0l-3.3 2.1-.6-4.3c-.3-2.4-.4-9.7-.1-16.3.3-8.1.1-12.4-.6-13.3-1.9-2.2 1-3.3 8.2-3 5.5.1 6.6-.1 6.8-1.6.2-1.1-.4-1.9-1.7-2.3-1.7-.4-2.1-1.3-2.1-5.2 0-2.5-.3-5.6-.6-6.9-.4-1.5-.2-2.2.8-2.2.8 0 2.3-.6 3.4-1.4 1.9-1.5 1.9-1.5 0-2.9-2-1.5-1.4-3.7 1-3.7 1.6 0 1.8 1 1.4 10.7-.2 6 .2 7.9 2 10.8 1.3 2.1 2.9 3.5 4.2 3.5 1.5 0 1.8-.4 1.2-1.7-1.8-4.2-2.7-46.5-.9-47.1.6-.2 1.7-.8 2.6-1.3 1-.5 2-.4 2.7.3 1.7 1.7 4.2-.9 4.2-4.1 0-3.4-1.7-5.1-5-5.1-2.6 0-6 2.6-6 4.6 0 .5-1 1.4-2.2 1.9-1.3.6-2.8 2.5-3.4 4.3-1 3.3-4.9 8-5.9 7.1-.3-.3-.7-9.1-1-19.5-.3-10.4-.9-20-1.5-21.4-.5-1.4-1.4-4.4-2-6.7-1.1-4.5-5.8-9.3-9-9.3-3.4 0-3.2 2 .4 4.1 3.8 2.2 4.4 3.3 2.4 4.5-.6.4-1.9-.4-3-1.9s-2.8-2.7-3.7-2.7c-2.6 0-3.1-.9-2.1-3.6.6-1.5.5-2.6-.2-3-1.5-1-6.9 5.7-6.4 7.9.3 1-.2 2.1-.9 2.3-1.1.4-1.3 6.1-1.3 28.9 0 15.5-.2 28.8-.6 29.4-.4.6-1.5 1.1-2.6 1.1-1.9 0-2.1-.9-3.5-16-1.2-11.9-3.7-17-6.3-12.3-.6 1-1.6 1.4-2.6 1-2.3-.9-2-2.6.8-3.7 3.1-1.1 3.6-2.1 2.9-4.9-.5-1.9-1.1-2.2-3.5-1.9-2.1.4-3.3-.1-4.3-1.5-1.2-1.8-1.8-1.9-4-.9-1.4.6-2.5 1.7-2.5 2.3 0 .6-1.9 2.8-4.1 4.8-3.4 3-4 4.1-3.5 5.9.6 1.7 1.3 2.1 2.7 1.7 2.8-.9 2.3.4-1.3 4.2-2.7 2.8-3.1 3.7-2.1 5.1.6.9 1.6 1.6 2.3 1.4 1.7-.4 3.7 5.6 4.4 13.6.6 7.1.6 7.3-2 8.4-3.5 1.6-5.8.1-6.4-4.3-.6-3.9-3.3-4.7-3.8-1.2-.4 2.5-1.7 3.1-2.4 1-.9-2.3.1-23 1.2-24.1.5-.5 1-1.7 1-2.7 0-.9.9-2.8 2-4.2 2.8-3.5 2.6-7.3-.7-10-1.5-1.2-5.4-5-8.7-8.5-3.9-4-7.6-6.8-10.1-7.6l-4-1.4-1.2-11.2c-.7-6.6-1.8-12.1-2.7-13.5-2.3-3.5-2-6.8.6-8 3.1-1.4 4.8-5.1 4.8-10.7 0-4.2.3-4.9 3-6.3 1.6-.8 3.6-1.5 4.5-1.5.8 0 2.3-.8 3.3-1.8 1.7-1.7 1.8-3.3 1.4-16.8-.4-14.7-.4-14.9 2.2-18.4 4.7-6.5 5.7-9 7-18.7 2.1-15.3 1.4-24.1-3.4-38.4-2.2-6.8-4.6-12.7-5.2-13.1-.9-.5-.7-1.3.7-2.8 1.7-1.9 1.7-2.5.6-5.7-2.8-7.6-11.7-22.6-15.4-26-3.6-3.2-4.3-3.5-8.3-2.9-4 .5-4.5.3-5.8-2.2-2.1-4.2-10.8-8.6-15.2-7.7-2.9.5-4.1.1-7.4-2.5-3.8-3-4-3.1-7-1.5-1.8.9-4.3 1.4-5.8 1.1-1.5-.3-6.4-.7-10.9-.8-8.5-.2-9.5-.6-6.8-2.8.8-.7 1.5-1.8 1.5-2.5s1-2 2.3-2.9c2.1-1.4 2.1-1.6.4-2.6-2.2-1.4-1.3-3 1.8-3 1.9 0 2.3-.4 1.8-1.8-.3-.9-1.3-2.3-2.2-3-1.1-.9-1.6-2.9-1.6-6.8 0-5.2-.7-6.6-4-7.7-1.1-.4.5-6.1 4.2-15.5 2.9-7.4 2.5-8.2-4.1-8.9-2.6-.3-4.9-.9-5.2-1.4-.3-.5 1.3-3.2 3.4-6.2 13.2-17.8 15.3-35.2 6.6-53.4-10.2-21.3-34.5-32-57.3-25.3zm29.3 6.2c20.2 7.8 31.4 30 26.2 51.9-.7 3-1.9 6.6-2.6 8-2.6 4.7-12.5 14.1-18.7 17.5-6.1 3.5-6.4 3.5-19 3.7l-12.8.2-6.9-3.5c-13.2-6.7-22.4-20.1-23.3-34-.9-13.1 2.9-24.5 11.3-33.9 10.2-11.3 30.7-15.8 45.8-9.9zm24.1 83.8c.3.5-.8 5.3-2.5 10.7l-3.1 9.8-20.7-.2c-18.8-.2-41.3 1.4-44 3.1-2.1 1.3-4.2-.6-4.2-3.8 0-1.8-.7-5.5-1.5-8.2-2.5-8.4-2.8-8.1 8-10 3-.5 3.2-.4 4.5 4.3 1.4 4.5 1.8 4.8 5.5 5.5 6.2 1 9-.8 9-5.7v-4l8-.8c4.4-.4 9.6-.6 11.5-.5 3.2.3 3.5.6 4 3.8l.5 3.5h13l.1-3.5c0-1.9.1-3.8.2-4.3.3-1.1 11-.9 11.7.3zm-14.7 2.4c.6 3.1-4.3 5-5.4 2.1-.8-2 1.5-4.7 3.5-4.3.9.2 1.7 1.2 1.9 2.2zm-39.3 1.6c0 2.2-2.9 1.8-3.3-.3-.3-1.4.1-1.8 1.5-1.5 1 .2 1.8 1 1.8 1.8zm17.5 20.5c0 1.8 2.1 2 3.8.3.8-.8 1.5-.8 2.7.2 1.2 1 1.8 1 3 0 1-.9 1.9-.9 2.8-.2.6.5 3.1 1.3 5.4 1.7 5.1.8 6.2 2.1 3.7 4.1-1.8 1.3-1.8 1.4.4 2 1.2.3 2.2 1 2.2 1.3 0 1.8-1.4 1.8-4.3.1-2.7-1.5-4.2-1.7-9-1-3.2.5-6.4 1.3-7.1 1.9-1.8 1.5-1.8 7.7-.1 9.1 1.9 1.5 4.5.6 4.5-1.6 0-1.3.3-1.4 1.4-.5 1.1.9 2.5.9 5.8.1l4.3-1.2-2.3-1.8c-1.2-1-2.2-2.1-2.2-2.4 0-1.3 2.8-.5 4.5 1.4 1 1.1 2.6 2 3.5 2 1.3 0 1.9 1.2 2.4 4.2.6 3.4.2 5.1-1.9 9.1-1.8 3.6-2.5 6.3-2.4 9.8.2 4.5-.1 5.1-4 8.9-4.7 4.6-9 5.9-12.7 4-3.1-1.7-3-2.3.6-3.7 1.7-.6 3-1.6 3-2.1 0-1-9.9-2.1-12-1.4-1.7.6-1.1 3 1 4.5 2 1.4 1.9 1.5-1.4 2-2.3.4-4.7-.1-7.6-1.5-4.4-2.2-5.3-3.2-10.5-12-2.7-4.8-3.2-6.5-2.8-10 .9-8.4.9-8.4 5-8.3 2.1 0 4.4.4 5.1.9.9.5 2.2 0 3.7-1.4l2.3-2.2 1.1 2.1c1.5 2.7 3.8 2.7 4.6.1 1.8-5.7-3.4-9.1-12.7-8.2-3.2.2-5.8.2-5.8-.2 0-2.1 2.3-4.6 4.3-4.6 1.2 0 5.4-1.6 9.2-3.5 8-3.9 8.5-4 8.5-2zM217 372c0 .5-.7 1-1.6 1-.8 0-1.2-.5-.9-1 .3-.6 1-1 1.6-1 .5 0 .9.4.9 1zm39 39c0 .5-.7 1-1.5 1s-1.5-.5-1.5-1c0-.6.7-1 1.5-1s1.5.4 1.5 1zm-10.1 3c3.8 1.9 4.2 2.4 3.6 4.8-1.1 4.6-2.7 5.5-7.4 4.2-2.2-.6-4.1-1.5-4.1-2 0-2-1.9-.9-5.6 3-2.1 2.2-4.3 4-5 4-2.9 0-15.7 6-18.2 8.6-1.5 1.6-4.5 4.2-6.5 5.7-3.6 2.7-3.7 2.9-3.7 9.7 0 11.8-3.5 9.2-4.7-3.5l-.6-6.1 6.1-5.2c5.7-5 8.2-8.6 6.8-10-.4-.3-1.9 1-3.5 2.9s-3.2 3.1-3.5 2.8c-1-.9 3.7-8.5 6.5-10.7 2.8-2.2 13.8-7.9 18.9-9.8 5.1-1.9 15.7-1.1 20.9 1.6zm57.1-1.4c0 .2-.9.4-2.1.4-1.1 0-1.8-.4-1.4-1 .5-.8 3.5-.3 3.5.6zm-45.6 5.2c.3.9.2 3.2-.3 4.9-.5 1.8-.7 4.2-.4 5.4.6 2 .4 2.2-2.8 1.5-1.8-.3-4-1.3-4.8-2.1-1.3-1.3-1.2-1.7.6-3.7 1.2-1.3 2.6-3.5 3.2-5.1 1.2-3.1 3.7-3.6 4.5-.9zm30 1.1c7.3 1.3 12.9 3.8 12.3 5.3-.2.7-1.3 1.2-2.3 1-1-.1-7.5-.9-14.4-1.8-16.7-2-19.4-2.6-19.8-4.4-.2-1.3 1.3-1.5 9.3-1.3 5.2.1 12 .7 14.9 1.2zm27.1 4.1c.4.6-.5 1-1.9 1s-2.6-.5-2.6-1c0-.6.9-1 1.9-1 1.1 0 2.3.4 2.6 1zm-7.8 2.6c-.3.3-1.2.4-1.9.1-.8-.3-.5-.6.6-.6 1.1-.1 1.7.2 1.3.5zm22.8 3c1.6 2.4 1.6 2.5-.3 1.5-1-.5-2.4-1.7-3.2-2.5-1-1.3-1-1.6.3-1.6.8 0 2.2 1.2 3.2 2.6zm-8.9 1.9c.4 1.5 1.3 2.5 2.4 2.5 3.3 0 4.9 1.1 8.4 5.9 7.3 9.9 9.9 24.4 5.1 28.9-1.7 1.6-1.7 1.6-1.2-.8.3-1.4.9-4.8 1.2-7.5.6-4.6.4-5.4-3-10.5-3.6-5.2-12-13.9-18.2-18.7l-2.8-2.2 3.7-.1c3.2 0 3.9.4 4.4 2.5zm-70.6 3c2.5 2.4 3.1 2.6 6.4 1.6 3.3-.9 4.4-.6 10.4 2.5 7.3 3.8 12.6 9.1 16.8 16.8 3.9 7.1 5.4 13.9 5.4 24.6v9.6l-5.5 5.4c-4.2 4.1-5.7 6.4-6.2 9.3-.7 4.5-5.8 9.3-14.3 13.5-5.1 2.5-6.4 2.7-18 2.7-11.5 0-13-.2-18.3-2.7-10.8-5.1-21.5-16.4-25.1-26.5-1.9-5.5-2.7-17.7-1.5-23.1 2.5-11.1 10.7-22.9 19.7-28.6 6.5-4 16-7.3 21.9-7.5 4.8-.1 6 .2 8.3 2.4zm-56.7 26.7c2.6 8.5-.2 13.4-3 5.2-.8-2.1-2.2-4.8-3.3-5.9-2-1.9-2-1.9.8-4.8 3-3.2 2.7-3.4 5.5 5.5zm156.2-6.2c.3.6-.1.7-.9.4-1.8-.7-2.1-1.4-.7-1.4.6 0 1.3.4 1.6 1zm-46.9 29.2c1.1 1.6.6 18.8-.5 18.8s-2.1-6.3-2.1-13.8c0-6 .8-7.5 2.6-5zm-13.3 13.4c.3.4-.5 2.1-1.9 4-5.5 7.2-.7 10.6 8.5 6 2.8-1.4 6.1-2.6 7.4-2.6 1.3 0 2.8-.5 3.5-1.2 1.7-1.7 2-1 2.3 5.7.4 9.7 0 13.5-1.5 13.5-.7 0-4.4 3.5-8.2 7.7-13.9 15.6-13.7 15.4-18.6 14.8-11.4-1.6-10.8-1.3-10.8-5.2 0-2.6.4-3.4 1.4-3 1 .4 2.6-1 4.5-4 3.3-4.9 3.5-5.6 3.2-11.8-.3-6.2 2.6-20.5 4.5-22.6 1.7-1.9 4.5-2.5 5.7-1.3zm-38.9 27c2.6 1 .7 2.5-2.2 1.8-3.9-.9-5.1-2.4-2-2.4 1.5 0 3.3.3 4.2.6zm15.6 2c0 .3-.6 1.2-1.4 2-1.1 1-1.7 1.1-2.2.3-.3-.6 0-1.5.7-2 1.6-1 2.9-1.2 2.9-.3zm0 15.4c-.3 4.7-.9 7.8-1.2 7-2.6-7.2-2.6-7.9-.6-12 1.1-2.2 2.1-4 2.3-3.8.1.2-.1 4.1-.5 8.8zm-5.7 6.2c.2 1.8.4 3.4.3 3.5 0 .1-1.2-.7-2.5-1.8-1.9-1.6-2.1-2.2-1.1-3.4 1.9-2.3 2.7-1.8 3.3 1.7zm-43.8 18.7c.3.5.1 1.2-.5 1.6-.5.3-1-.1-1-.9 0-1.8.6-2.1 1.5-.7zm27.5 6.2c3.4 1.7 5.9 3.3 5.6 3.6-.3.3-3.6-.2-7.3-1-3.7-.9-8.3-1.9-10-2.2-1.8-.4-3.3-1-3.3-1.4 0-3.3 7.7-2.7 15 1zm-65.3 2.3c3.6 1 8.4 3.8 16.2 9.6 6.1 4.6 11.1 8.4 11.1 8.6 0 .1-2.8-1-6.2-2.6-3.5-1.5-6.3-3.4-6.3-4.1 0-.7-1.1-1.9-2.5-2.6-1.3-.7-2.9-1.8-3.5-2.6-1.2-1.7-9.4-2.9-19.5-3.1-7.1 0-9.6-.9-8.3-2.9.2-.4 3.1-.7 6.4-.6 3.2.1 6.2-.1 6.6-.4.3-.4.7-.7.7-.7.1 0 2.4.6 5.3 1.4zm-21.7 1.3c-.1 2.7-6 5.7-6 3.1 0-.8.5-1.9 1.2-2.6 1.3-1.3 4.8-1.6 4.8-.5zm115.7 1.9c-.3.3-1.2.4-1.9.1-.8-.3-.5-.6.6-.6 1.1-.1 1.7.2 1.3.5zm-9.7 5.5c2.7.6 5 1.5 5 2 0 1.1-5.1.3-10.7-1.7-4.8-1.7-1.6-1.9 5.7-.3zm-37.5 5.5c2 .8 3.5 1.8 3.2 2.1-.8.8-7.7-1.7-7.7-2.8 0-1.2.1-1.2 4.5.7zm6.6 4.1c1.3 1.6 1.2 1.7-.3.4-1-.7-1.8-1.5-1.8-1.7 0-.8.8-.3 2.1 1.3zm-20.6 2.3c.3.6-.1.7-.9.4-1.8-.7-2.1-1.4-.7-1.4.6 0 1.3.4 1.6 1zm116 3.2c-.2 1.8-.7 5.3-1.1 7.8-.8 6.6-1.6 8-2.3 4.5-.4-1.8.2-5.5 1.3-9.2 2.2-7 2.9-7.9 2.1-3.1zm90.1 5c0 1.8.3 13.4.7 25.8.4 12.4.8 29 .9 37l.2 14.5-2.5.3c-4.8.7-5.9 3.7-3.4 9.4.5 1.4.2 1.8-1.4 1.8-2.5 0-3.9 2.6-2.3 4.2.8.8 1.5.8 2.7-.2 1.3-1.1 1.5-.9 1.5 1.4 0 2.5-.2 2.6-6.1 2.6-5.1 0-6-.3-5.5-1.5.8-2.2-2.2-3.1-3.7-1.1-1.1 1.5-2.1 1.6-7.1.8-3.2-.5-6.6-.7-7.5-.5-3.1.8-7-1.5-8.5-5.1-2-4.7-4.9-6.1-9.6-4.7-5.1 1.5-6.9 3.9-7.1 9.4-.2 4.8-1.9 5.3-1.9.7.1-10.2.4-11.4 3.5-13.2 2.5-1.4 3.8-1.6 6.7-.8 4.4 1.3 8.4 4.3 10.3 7.9 1.1 2.3 2.3 2.9 6.1 3.5 2.5.3 5 .3 5.6 0 1.2-.8-2-4.4-4.1-4.5-2.4-.1-8.1-8.3-7-10 .5-.8.7-3.9.4-6.9-.5-5.5-.9-19.9-.6-27.8.1-3.5.4-4.2 2.1-4.2 2.5 0 2.6-1.6.3-2.9-1.4-.8-.6-1 3.4-1.1 2.8 0 5.5.4 5.8 1 .3.5.7 11.9.9 25.2.3 20.4.6 24.8 2.1 27.5 1.9 3.8 2.1 3.8 6.4 1.7 3.4-1.7 3.7-3.9.5-3.9-1.3 0-2-.8-2.2-2.7-.3-2.2 0-2.6 1.7-2.1 1.2.3 2.1 1.3 2.1 2.3 0 2 1.7 3 3.8 2.2 1-.3 1.1-8.6.6-42.1-.4-23.5-1.1-42.1-1.6-42.8-1.1-1.4 1.9-3.3 5.3-3.3 1.8 0 1.9.3.9 1.5-1.6 1.9-.4 3.5 2.6 3.5 2.6 0 4.7-3.1 2.6-3.8-1.5-.5-.5-2.2 1.2-2.2.7 0 1.2 1.3 1.2 3.2zM141 609.1v5.9l-4.2-.6c-2.4-.4-4.5-.8-4.7-1-.8-.7 3.3-8.6 5.2-9.9 3-2.1 3.7-1 3.7 5.6zm207.8-3.1c1.2 1.6 1.8 3.1 1.3 3.4-.8.6-5.1-4.3-5.1-5.8 0-1.4 1.6-.3 3.8 2.4zm-89 6.1c1.2.5 2.2 1.1 2.2 1.4 0 1-6.6-.8-8-2.2-1.3-1.3-1.2-1.4 1-.8 1.4.4 3.5 1.1 4.8 1.6zm98.3 3.7c1.5 1.3 2 2.5 1.6 3.6-.4 1-1.1 1.5-1.6 1.1-.5-.3-1.7.5-2.5 1.7-2 2.8-3.1 1.6-4-4-.6-3.9-.5-4.2 1.8-4.2 1.3 0 3.4.8 4.7 1.8zM269 618c0 .5-.7.7-1.5.4-.8-.4-1.5-.8-1.5-1 0-.2.7-.4 1.5-.4s1.5.4 1.5 1zm-127.6 4.2c.4 2.3.3 4.5-.1 4.9-.4.4-3.6 1.1-7 1.5-6.2.6-6.3.6-6.3-1.7 0-2.4 2.3-6.7 4.4-8.1.6-.4 2.7-.8 4.7-.8 3.5 0 3.7.2 4.3 4.2zm-63.5.2c.5 1.3 1.1 9.8 1.2 19l.3 16.7-3.3 3.2c-2.6 2.7-3.3 3-4.1 1.7-.7-1.1-.8-40.6-.1-42.8.1-.1 1.2-.2 2.6-.2 1.8 0 2.8.7 3.4 2.4zm199.7.3c-.8.8-3.6-.5-3.6-1.7 0-.7.6-.7 2.1 0 1.1.7 1.8 1.4 1.5 1.7zm72.4 3.8c.7.8 1.9 1.5 2.7 1.5 1.2 0 1.4 1.8.9 11.2-1.1 22.3-1.6 41.8-1.8 70 0 15.8-.4 29.2-.8 29.7-.4.8-2.4.8-6.6.1-7.5-1.3-21.6-5.1-22.8-6.2-.6-.5.1-1.9 1.7-3.6 2.3-2.4 2.6-3.5 2.5-9.5 0-3.7.2-7 .6-7.4.3-.3 1.7 0 3.1.7 1.4.7 2.7 1.1 3 .8.3-.3.7-3.1.9-6.1.2-3.9.9-6.4 2.2-7.8 1.6-1.8 1.9-3.7 1.9-13 0-7.8.3-10.9 1.2-10.9.7 0 2.4-1.6 3.9-3.5 2.4-3.2 2.6-3.9 2-11.2-1.7-23.6-1.8-32-.7-34.1 1.4-2.5 4.3-2.9 6.1-.7zm-38 .3c0 1.3-1.2 2.2-2.2 1.6-1-.6-.1-2.4 1.3-2.4.5 0 .9.4.9.8zm-170.2 31.7c.2 20.9.3 22 2.4 24.2 1.2 1.3 3.2 2.3 4.5 2.3 3.6 0 5.9 1.6 7.2 4.9 1.1 2.5 2.2 3.2 7.9 4.7 9.1 2.4 10.9 3.7 11.7 8.5.6 3.4.3 4.5-1.5 6.4-2.2 2.3-2.2 2.4-.5 7 1 2.5 2.6 5 3.7 5.6 1.4.8 1.6 1.4.8 2.8-.7 1.5-2.6 2-8.2 2.5-12.3 1.1-21.2 2.6-27.7 4.6-5.1 1.5-6.4 1.6-7.5.5-1.5-1.5-2.9-37.8-2.8-72.9 0-19.7.1-20 2.4-21.8 1.3-1 3.4-1.7 4.8-1.6l2.5.3.3 22zm-90.1-17.9c2.5.7 4.9 7.1 4 10.6-.3 1-.1 4.7.4 8.1.9 6 .8 6.3-1.9 8.5-1.5 1.2-3.4 2.9-4.3 3.7-.9.8-2 1.5-2.5 1.5-1 0-1-30.2 0-31.9.8-1.3 1.2-1.3 4.3-.5zm383.2 5.9c-.1 6.2-.2 6.5-2.5 6.5-2.1 0-2.4-.4-2.4-3.9 0-2.6.7-4.8 2.3-6.5 1.2-1.4 2.3-2.6 2.4-2.6.1 0 .2 2.9.2 6.5zM320 649.8c0 1.3-1.2 2.2-2.2 1.6-1-.6-.1-2.4 1.3-2.4.5 0 .9.4.9.8zm167.8 6.1c.3 2 .1 2.3-1.5 1.6-1-.4-2.8-.7-4-.6-1.7 0-2.3-.5-2.3-2 0-1.7.5-2 3.8-1.7 3 .2 3.8.7 4 2.7zm-88.8 1.6c-1.6 1.9-3 1.9-3 0 0-1.7 3.3-3.8 3.8-2.4.2.5-.2 1.6-.8 2.4zm-39.4 12.8c.2 10.1-.3 11.6-3.5 11.7-.9 0-1-.4-.3-1.3.5-.6 1.3-5.6 1.7-11 .4-5.3 1-9.7 1.3-9.7.4 0 .8 4.6.8 10.3zM88.9 667c2.9 3.3 5 6.4 4.7 6.9-.4.5-2.9.9-5.6.8-4.3-.2-5.3-.6-6.3-2.7-.7-1.4-2.1-2.4-3-2.4-2.3.2-2.3-4.3 0-6.8 2.7-3 4.7-2.1 10.2 4.2zm239.1-4c0 .5-.5 1-1.1 1-.5 0-.7-.5-.4-1 .3-.6.8-1 1.1-1 .2 0 .4.4.4 1zm159.2-.5c.3.4.1 1.7-.6 3-1.2 2.7-8.1 4.3-7.1 1.7.3-.7.5-2.2.5-3.3 0-1.5.7-1.9 3.3-1.9 1.9 0 3.6.2 3.9.5zm-421.8 1.3c.3.5-.1.9-.9.9s-1.2-.4-.9-.9c.3-.4.7-.8.9-.8.2 0 .6.4.9.8zm334.3 1.8c-.3.3-1.2.4-1.9.1-.8-.3-.5-.6.6-.6 1.1-.1 1.7.2 1.3.5zm-338.7.8c0 .2-.8 1-1.7 1.7-1.6 1.3-1.7 1.2-.4-.4 1.3-1.6 2.1-2.1 2.1-1.3zm-18.2 6.5c4.8 5.5 6.3 8.1 4.5 8.1-1.2 0-11.3-7.3-11.3-8.3 0-.5-1.9.5-4.2 2.2-2.3 1.7-4.4 2.8-4.7 2.6-.5-.6 8.9-10.5 9.9-10.5.3 0 2.9 2.7 5.8 5.9zm108.9-2.7c3.3 1.2 3.4 1.4 3.1 6.3-.3 4.7-.5 5-3.1 5.3-4.3.5-5.7-1.3-5.7-7.4 0-5.9.3-6.1 5.7-4.2zm247.6 1.5c-.7.2-1.9.2-2.5 0-.7-.3-.2-.5 1.2-.5s1.9.2 1.3.5zm-273.4 9.5c.1 1-.3 1.8-.9 1.8-1.7 0-8-7.3-8-9.3 0-1.7.7-1.4 4.4 1.9 2.4 2.2 4.5 4.7 4.5 5.6zm152.1-6.1c0 1.5.5 3.1 1.1 3.5 1.4.8 2.9-1.4 2.9-4.4 0-1.5.6-2.2 1.9-2.2 2.6 0 2.9.7 3.7 7.3l.7 5.6-3.4 1.4c-1.9.8-4 1.1-4.8.7-.7-.4-3-.4-5 .1-8.8 2.1-9.4 1.6-10.6-7.4-.6-4.6-.5-4.8 2.3-6 1.7-.7 4.8-1.3 7.1-1.3 3.9-.1 4.1 0 4.1 2.7zm92-1.7c0 .8-.9 1.4-1.9 1.3-1.5-.1-1.7-.4-.9-1.4 1.4-1.7 2.8-1.6 2.8.1zm-270.2 3.2c-1 1-2.8-.6-2.8-2.4 0-1.5.1-1.5 1.7.1.9.9 1.4 1.9 1.1 2.3zm68.3-1.6c4.5 1 8.6 2.3 9 2.7.7.7 2.9 11.9 2.9 14.6 0 .5-.6.7-1.2.4-.7-.2-2.1.2-3 1-1.5 1.3-1.9 1.3-4-.1-1.2-.9-3.3-1.6-4.6-1.6-3 0-8.2-2.7-8.3-4.3 0-.6-.2-3.8-.5-7-.4-5.1-.1-7.7 1.1-7.7.2 0 4.1.9 8.6 2zm127.3.3c1.2.9 1.7 2.8 1.8 6.5.1 5.2 1.7 8 3.8 6.7.7-.4 1-2.8.8-5.9-.3-4.5-.1-5.1 1.8-5.4 1.1-.2 3.1.5 4.4 1.6 1.8 1.5 2.2 2.8 2.2 6.6-.2 8.5-.2 8.6-9 8-4.2-.3-8.1-1-8.7-1.5-.5-.6-1.2-4.8-1.4-9.4-.3-9 .3-10.1 4.3-7.2zM59.7 678c.3 1.1 1 2 1.5 2s1.2-.9 1.5-2c.6-2.3 3.1-2.7 3.9-.5.4.8 1 1.5 1.5 1.5s.9-.7.9-1.5.7-1.5 1.6-1.5c1 0 1.4.7 1.2 2.2-.2 1.7-.9 2.2-2.4 2-4-.5-7 1.6-10.8 7.8-3.2 5.1-3.7 6.6-2.8 8.3 3.6 7.7 3.9 11.4.8 8.8-.8-.7-1.9-1-2.4-.7-2.7 1.6-2.4-13.4.3-16.4 1.5-1.6 1.5-2.3.4-5.4-1-2.8-1-3.8 0-5 1.8-2.2 4.2-2 4.8.4zm340.3-.1c0 1-.7 2.2-1.6 2.5-2.3.9-2.4.8-2.4-1.9 0-1.8.5-2.5 2-2.5 1.3 0 2 .7 2 1.9zm-185.2 1c10.8 5.4 25.6 5.6 35.6.4 3.8-2 4.6-.7 4.6 7.4 0 4.6-.4 6.3-1.4 6.3-1.7 0-7 4.9-6.2 5.7.4.4 2.2.1 4.1-.6 4.3-1.5 5.5-.9 5.5 2.9 0 1.6.5 3.2 1.1 3.6.6.3.8 1.5.6 2.6-.3 1 .2 3.2 1.1 4.7 1.6 2.8 1.5 3.1-1.7 9.4-2.9 5.6-3.2 7-2.3 9.5 1.1 3.3.1 5.2-2.8 5.2s-13.4 9.3-14.6 13c-.6 1.9-1.8 3.9-2.6 4.4-2.2 1.3-4.8 0-4.8-2.5 0-4-7.7-12.9-13-15-1-.4-1.4-1.8-1.2-4.5.3-3-.2-4.4-1.8-5.9-1.1-1-3-3.4-4.1-5.2-1.9-3.1-2-3.6-.6-5.1 1.7-1.9 1.4-4.7-1.5-12.9-.9-2.3-1.3-4.5-1-4.8.9-.9 14.4-.5 19.2.6 7 1.6 14.8 2.2 16.7 1.4 2.8-1.2-20.4-5.4-29.8-5.5-4.3 0-6-.5-7.4-2-2.6-2.8-4.5-2.5-5.1 1-.9 4.3-2.7 5.4-6.5 4.1-1.8-.6-4.9-1.1-6.9-1.1-3.4 0-3.8-.3-4.8-3.9-1.4-4.6-1.6-13.5-.3-12.6.6.3 3.4 1 6.4 1.5 4.4.9 6.1.7 9.3-.7 2.1-.9 5.7-2 7.9-2.3 2.2-.4 4.1-.8 4.3-.9.1 0 1.9.7 4 1.8zm45.4 3.3c.4 5.2-.9 10.8-2.4 10.8-.4 0-.8-3.6-.8-8 0-6.2.3-8 1.4-8 1 0 1.5 1.6 1.8 5.2zm227.5-3.5c.4 1.1-5.4 2.9-6.4 1.9-.3-.3-.3-1.2.1-2.1.7-1.9 5.7-1.7 6.3.2zm-463.1 1.9c-1.1.7-2.2 1.2-2.5.9-.2-.3.4-1.2 1.5-1.9 1-.8 2.1-1.2 2.4-.9.3.2-.4 1.1-1.4 1.9zm71.1 2.8c.4.3.4.9 0 1.2-.8.9-18.6.7-24.8-.2l-5.4-.8 4-.6c5.2-.7 25.4-.4 26.2.4zm389.3 1.2c0 .2-.9.4-2 .4s-2-.4-2-.9.9-.7 2-.4c1.1.3 2 .7 2 .9zM121.3 689c.4 1.5 1.4 2 3.6 2 1.7 0 3.1.4 3.1 1 0 .5-1.4 1-3.1 1-3.6 0-3.5 2.1.1 3 3.5.8 3.8 3.1.3 2.8-3.9-.4-4.2 1.5-.3 2.8 4.2 1.4 4.3 2.8.2 3.2-3.8.4-3.9 2.5-.1 3.1 4.3.6 4.7 3.5.5 5.1-2 .8-2 .8.7 1.9 3.6 1.4 3.4 2.7-.7 4.1-4.6 1.5-7.3 4.6-5.9 6.8.5.9 2.1 1.7 3.4 1.7 1.8 0 2.5-.6 2.7-2.5.5-3.2 2.2-5.1 2.3-2.5.2 2.7-.2 7.9-.6 8.3-.9 1-9-2.3-11.8-4.7-2.8-2.6-3-3.1-1.9-5.5.6-1.4 1.8-2.6 2.7-2.6 2.2 0 1.8-2.7-.5-3.3-1.1-.3-2-1.3-2-2.2 0-1.2.5-1.5 2-1 1.4.5 2 .2 2-1s-.6-1.5-1.9-1c-1.4.4-2.1 0-2.6-1.4-.3-1-1.5-2.1-2.5-2.4-1.8-.5-2-1.4-2-9.6V687h5.9c5 0 5.9.3 6.4 2zm247.1 3.6c.9.3 1.6 1.7 1.6 3 0 1.5.7 2.7 1.8 3 .9.3 2.5 1 3.5 1.5s2.2.7 2.7.4c.6-.4 1-.2 1 .4 0 1.9-1.8 2.1-4.6.6-1.6-.8-3.8-1.5-4.9-1.5-2.9 0-4.5-1.9-4.5-5.2 0-2.9.6-3.3 3.4-2.2zM85 697.4c0 1.1-4.2 11.2-5 12-.5.5-1 1.8-1 2.7 0 2.4-1.6 3.2-3.9 2-1.3-.7-1.7-1.8-1.4-3.1.6-2.4-2.1-3.8-4.2-2-1.6 1.4-3.5.5-3.5-1.6 0-.8-.7-1.4-1.7-1.2-1.2.2-1.9-.7-2.4-3.2-.9-4.3.4-6 2.9-3.7 2.3 2.1 4.2 2.2 4.2.2 0-.8.7-1.5 1.5-1.5s1.5.6 1.5 1.4c0 .8.5 1.8 1.1 2.2 1.4.8 2.9-1.4 2.2-3.3-.4-1 .6-1.3 4.6-1.2 2.8.1 5.1.3 5.1.3zm221 .2c3.1.7 3.2.9 2.6 4.3-.7 4.7.9 14.9 2.8 17 1 1.1 1.2 3.2.8 7.4-.4 5.7-.5 5.8-3.1 5.2-1.4-.4-5.2-.9-8.5-1-3.2-.2-6.2-.7-6.6-1.2-.4-.4-1.2-2.8-1.8-5.3-1.3-5.5 0-12.5 2.9-15.7 2.7-2.8 2.1-6.4-1.4-8.1-1.5-.7-2.5-1.7-2.2-2.3.7-1 9.7-1.2 14.5-.3zm-30 2.5c0 1.8-3 3-4.9 1.9-1.4-.7-2.7-.7-3.9-.1-2 1.1-6.2.4-6.2-.9 0-.5.8-1 1.8-1.2 2.7-.7 13.2-.4 13.2.3zM93 702c0 1.1.4 2 .9 2s1.3-.9 1.6-2c.8-2.6 2.3-2.5 5.8.3 2 1.5 2.6 2.7 2.2 4-.9 2.3-2.1 2.2-2.8-.4-.7-2.6-3.1-2-3.5.9-.3 1.8-.7 2-2.3 1.2-1-.6-1.9-1.7-1.9-2.4 0-.8-.6-1.9-1.4-2.5-1.1-.9-1.8-.8-3 .4-1.5 1.5-1.6 1.5-1.6-.3 0-2.5.8-3.2 3.7-3.2 1.6 0 2.3.6 2.3 2zm111.8 1.3c.6.7 1.5 3.1 2 5.3.8 3.6.7 4.3-1.5 6.2l-2.5 2.2 2 2.3c1.1 1.2 3.7 4.1 5.7 6.4l3.6 4.2-2.1 4c-1.1 2.3-2.5 4.1-3.1 4.1-.5 0-.3-1 .5-2.2 2-2.9 2-3.9 0-3.1-1.3.5-1.5.2-.9-1.8.8-2.4.8-2.4-1.4-.5-3.1 2.8-3.7 1.3-1.1-2.8 1.8-3 1.9-3.6.6-3.6-.9 0-1.6-.8-1.6-1.7 0-1.4-.4-1.2-2.5.7-1.4 1.3-2.5 1.9-2.5 1.3 0-.6.7-1.6 1.5-2.3 1.8-1.5 1.1-3-1.3-2.4-.9.2-2.4 0-3.2-.6-1.3-.8-1.3-1.3.3-4.1 1.2-2.2 1.4-3.5.7-4.4-1.3-1.6-.2-4.5 2.5-6.7 2.4-2.1 3-2.2 4.3-.5zm179.2 4.2c.7 1.4 1 2.8.7 3.2-.8.8-3.6-2.6-3.7-4.5 0-2 1.6-1.4 3 1.3zm-96.4 2.7c-1.9 2.6-2 2-.5-1.9.6-1.5 1.3-2.2 1.6-1.6.2.7-.3 2.3-1.1 3.5zm-197.1-.3c-.3.6-1.1 1.1-1.7 1.1-.6 0-.6-.6.2-1.5 1.4-1.7 2.6-1.3 1.5.4zm302.5 2.6c0 1.9.4 4.4.9 5.7 1 2.7-1.6 6.8-4.3 6.8-.8 0-1.8.4-2.1 1-.9 1.5-2.5 1.2-2.5-.5 0-.7-.6-1.8-1.4-2.2-1.5-.8-3.3-6.3-2.2-6.3.3 0 1.5.5 2.5 1.2 2.5 1.5 5.1-.4 5.1-3.9 0-3.1 1.8-6.5 3.1-5.8.5.4.9 2.1.9 4zm20 1.9c0 5.4-1.4 8.2-2.6 5.2-.6-1.6-3.5-2.2-4.7-.9-.4.3 0 1.4.8 2.3 1.4 1.5 1.4 1.8.1 2.3-2.7 1.1-5.6-.4-5.6-2.9 0-1.4.6-2.4 1.4-2.4.7 0 1.9-.7 2.6-1.5.9-1.1 1.6-1.2 2.5-.5.9.8 1.7.6 2.9-.5 2-2 2-2.9.2-4.4-1.6-1.3-4.6-.5-4.6 1.3 0 .7-1.5 1.2-3.5 1.3-1.9.1-3.3-.2-3.2-.5.2-.4.6-1.4.9-2.2.4-1.1 2.3-1.6 6.7-1.8l6.1-.2v5.4zm-327-3.7c0 .5-.7 1.7-1.5 2.7-1.5 2-2 1-.9-1.8.6-1.6 2.4-2.2 2.4-.9zm24 2.3c0 1.6-.4 3-1 3-1.1 0-1.4-4.3-.3-5.3 1.1-1.2 1.3-.8 1.3 2.3zm257.7-2.3c-1 .9-6.6 1-6 0 .2-.4 1.8-.7 3.5-.7s2.8.3 2.5.7zm6.2 2.6c-1 2.2-6.7 4.7-10.8 4.7-1.1 0-2.5.9-3.1 2-1.2 2.3-3 2.7-3 .6s4.5-4.6 9.5-5.3c3.5-.4 4.5-1 4.5-2.4 0-1.2.7-1.9 2-1.9 1.7 0 1.8.3.9 2.3zm117.7-.2c1 1.7-1.3 3.6-2.7 2.2-1.2-1.2-.4-3.3 1.1-3.3.5 0 1.2.5 1.6 1.1zm-13.5 4.2c2.5.9 2.5 10.8 0 13.2-1.7 1.4-2.5 1.5-5.5.5-2.6-.8-3.6-1.7-3.6-3.2 0-1.5.5-1.8 1.6-1.4 2.3.9 5.7-2.3 4.4-3.9-.6-.7-1.8-1.1-2.8-.8-1.3.3-1.7-.3-1.7-2.4-.1-3.6 2.4-5.7 4.5-3.9.8.7 2.2 1.6 3.1 1.9zm-210.6 3c-1.4 1.8-3.5 4.3-4.5 5.5-1.1 1.3-2 2.8-2 3.3s-.4.9-1 .9c-.5 0-1-.9-1-2s.5-2 1.1-2c1.2 0 4.8-4 4.9-5.4 0-1.6 3.2-4.6 4.2-4 .5.3-.3 2-1.7 3.7zm-171 .7c.3.5.1 1-.4 1-.6 0-1.1-.5-1.1-1 0-.6.2-1 .4-1 .3 0 .8.4 1.1 1zm177.7 1.2c-.7.7-1.2.8-1.2.2 0-1.4 1.2-2.6 1.9-1.9.2.3-.1 1.1-.7 1.7zM491 721c0 .5-.5 1-1.1 1-.5 0-.7-.5-.4-1 .3-.6.8-1 1.1-1 .2 0 .4.4.4 1zm-297 .9c0 1.6-4.1 6.1-5.6 6.1-1.1 0-.7-1 1.3-3.5 2.7-3.4 4.3-4.4 4.3-2.6zm3 2.3c-1.6 2.9-5.1 6.8-6.2 6.8-1.3 0 1.1-4.1 4.1-7 3.1-3 3.7-3 2.1.2zm91-2.4c0 .5-.6 1.7-1.4 2.8-1.9 2.5-3.1 1.2-1.4-1.5 1.3-2.1 2.8-2.8 2.8-1.3zm76 2.6c0 .7-.8 2-1.8 2.9-1.6 1.5-1.9 1.5-3-.3-1.1-1.7-1-2 .8-2 1.1 0 2-.7 2-1.6 0-.8.5-1.2 1-.9.6.3 1 1.2 1 1.9zm12.8-.7c1.2.3 2.2 1.1 2.2 1.8 0 .8.3 2 .6 2.8 1.3 3.5-6 6.3-8.5 3.3-.9-1.1-.5-1.5 1.9-1.9 3.9-.8 3.9-3.2-.2-5.8-2.8-1.8-2.9-2-.8-1.4 1.4.4 3.5.9 4.8 1.2zm-108.7 2.6c-1.6 1.6-2.6 0-1-1.9.9-1.1 1.5-1.2 1.7-.4.2.6-.1 1.7-.7 2.3zm52-1.7c1 1.3 1 1.7-.2 2.5-2 1.3-3.4.6-3.7-1.9-.4-2.6 1.9-3 3.9-.6zm92.4 3.3c-2.3 2.2-8.5 3.8-8.5 2.3 0-.6 1.9-2.1 4.3-3.5 4.7-2.6 7.4-1.9 4.2 1.2zm-13-.9c-.3.5-1.1 1-1.6 1-.6 0-.7-.5-.4-1 .3-.6 1.1-1 1.6-1 .6 0 .7.4.4 1zm-200.5.9c0 .4-1.2 2-2.6 3.5-3.4 3.3-2.1 3.4 1.8.1 1.7-1.4 3.3-2.4 3.5-2.1.8.8-3.4 7-5.6 8.4-1.2.7-2.1 1.9-2.1 2.7 0 1.7-4.7 5.1-5.7 4.1-.4-.3.5-1.9 1.9-3.4 3.2-3.4 4-5.6 2.5-7.1-.9-1-.4-1.9 2.1-4.2 3.4-3.1 4.2-3.4 4.2-2zm71.4.6c-.4.8-1 1.5-1.5 1.5-.4 0-.6-.7-.3-1.5.4-.8 1-1.5 1.5-1.5.4 0 .6.7.3 1.5zm19.8 12c-1.5 2.2-4.3 6.9-6.2 10.4-3.4 6.2-6 8.8-6 5.9 0-.7 2.7-5.6 6.1-10.7 4.6-7.3 5.9-10 5.4-11.8l-.6-2.5-3.4 2.7c-3.4 2.5-5.1 2.1-1.9-.6.8-.7 2.2-2.6 3.1-4.2l1.5-3 2.4 4.9 2.3 4.9-2.7 4zm-170.7-8.2c2.2.8 4.9 1.8 5.9 2.1 1.5.5 1.6 1 .8 1.8-.9.9-1.8.8-3.8-.1-1.9-.8-3-.9-3.9-.1-.7.6-2.6 1-4.1.8-3.6-.4-4.4 2.4-1.2 4 2 1 1.8 1.1-2.2.9-4.3-.2-4.5-.4-4.8-3.4-.2-2.3.5-4 2.9-6.7 2.8-3.3 3.3-3.5 4.8-2.2.9.8 3.4 2.1 5.6 2.9zm144.3-.1c-.2.6-1 1.4-1.6 1.6-.7.2-1-.2-.6-1.2.7-1.8 2.8-2.2 2.2-.4zm138 4.4l-.3 3.9H397c-3.7 0-4.5-.3-4.8-2-.2-1.4 1-2.8 4-4.7 2.4-1.5 4.7-2.3 5.1-1.9.5.5.7 2.6.5 4.7zm-228-3.7c1.1.7 1 1.8-.3 6.5-1 3.3-2.2 5.6-2.8 5.4-.7-.2-2.3-2.5-3.6-5.1-3-6.1-6.1-6.4-11.2-1.1-1.8 2-6.3 5.8-9.8 8.5l-6.5 4.9-12.4-.1c-16.9 0-18.8 1.8-6.3 6.3 3.6 1.3 6.6 2.8 6.8 3.5.3.7-1.5 2.6-3.9 4.3-7.8 5.7-18.8 15.4-18.8 16.7 0 2.1 5 1.5 10.5-1.2 2.8-1.4 5.8-2.5 6.8-2.5s4.4-1.3 7.5-2.9c3.2-1.6 8.3-3.7 11.4-4.6 5.1-1.4 6-1.4 9.2-.1 2.1.9 4 2.6 4.6 4.1 1.2 3.1 2.6 3.2 5.1.2 1.5-1.9 1.8-1.9 1.9-.5 0 1.7 4.5 3.7 5.6 2.5.8-.8 19.8 5.6 22.1 7.5 1.9 1.5 6.8.6 6.7-1.3-.1-.9-2-4.1-4.3-7.1-2.2-3-4.1-5.9-4.1-6.4s1.5-2.1 3.3-3.6c2.4-1.8 4.5-5.3 7.2-11.5 4.5-10.5 4.6-10.6 9.5-13.1l3.9-1.9 4.8 2.6c5.4 3 9.3 8.1 9.3 12.2s-3.5 12.4-7.1 16.9c-3.9 4.8-12.7 11.8-19.4 15.3-5.9 3.1-32.9 12.2-43 14.4-9.2 2-28.2 2.4-37 .9-16.6-3-30.5-15.1-30.5-26.5 0-4.9 5.4-15.1 10.8-20.4 4.7-4.6 14.2-10.9 18.5-12.3 1.2-.4 5-2 8.4-3.6 11.1-5.1 42.7-9.8 47.1-6.9zm100.3 2.4c-.8.8-1.1.7-1.1-.4 0-2 1.3-3.4 1.8-1.9.3.7-.1 1.7-.7 2.3zm-242.3.6c-1.4 1.9-3.3 3-4.8 3-1.5.1-3.1.6-3.7 1.2-1.4 1.4-9.5.7-10.1-.9-.2-.8.7-1.2 2.8-1.2 3.9 0 15.1-2.8 16.5-4.1 1.9-1.9 1.6-.8-.7 2zm333.5-1c1.5.8 2.7 1.9 2.7 2.4s-.7.4-1.5-.3c-1.2-1-1.9-1-2.8-.1-.9.9-.9 1.4.3 2.1 1.1.7.3 1-2.7 1-2.4 0-4.3-.4-4.3-.9 0-.4 1.2-.6 2.7-.3 2.5.5 2.6.3 2-2.7-.4-1.8-.3-3.1.1-2.9.4.2 1.9 1 3.5 1.7zm-178.7 2.9c-2.3 2.3-3.3.6-1-1.9 1.2-1.3 2-1.6 2.2-.9.3.7-.3 1.9-1.2 2.8zm131.6-1.8c23.6 4.7 37.2 10.2 43.2 17.1 8.7 10.2 10.7 21.5 5 28.5-5.9 7.3-19.7 12.5-38.6 14.3-9.2.9-11.4.9-23.3-.4-9.1-1-23.4-5-35.5-9.8-17.4-6.8-24.3-14.4-26.7-29.2-.3-1.8.4-4.9 1.6-7.7 1.8-4.2 2.8-5.2 8.5-8 6.4-3.1 6.6-3.2 10-1.5 4.4 2 6.2 4.9 7.1 10.9l.6 4.8h-4.6c-5 0-5.9 1.8-1.4 3.1 9.3 2.6 11.8 3.5 15.2 5.1 3.6 1.8 5 4.9 2.8 6.3-1.3.8-7.1 11.6-7.1 13.2 0 2.8 9.6.1 22.8-6.6 11.1-5.5 12.8-5.8 21.1-3.6 27.5 7.1 33.9 8.3 34.7 6.2.7-2-1.6-4.6-10.9-11.9-4.3-3.4-7.6-6.6-7.4-7.2.4-1.1 3.7-3.1 6.9-4 1.1-.3 1.5-1.1 1.2-2-.4-1.1-2.7-1.4-10.4-1.4-10.9.1-10.2.4-21.6-9.5-3-2.6-5.9-4.7-6.5-4.7-.5 0-2.1 1.2-3.4 2.6-2.3 2.5-2.5 2.5-3.1.8-.3-1.1-1-2.7-1.5-3.7s-.7-2.2-.4-2.7c1-1.6 11.3-1.1 21.7 1zm40.2-.5c-.4.8-.8 1.5-1 1.5-.2 0-.4-.7-.4-1.5s.4-1.5 1-1.5c.5 0 .7.7.4 1.5zM100 739.2c0 1-.4 1.8-1 1.8-.5 0-1-1.5-1-3.3 0-2.4.3-2.8 1-1.7.5.8 1 2.3 1 3.2zm101.2-2c-.6.6-1.5.8-1.9.4-.4-.4-.1-1.1.7-1.6 1.9-1.2 2.7-.3 1.2 1.2zm-19.2-.5c-.1.9-4.7 6.3-5.4 6.3-.8 0 .6-3.3 2.2-5.3 1.6-1.7 3.2-2.3 3.2-1zm8.4 2.3c-2 3.3-4.4 4.7-4.4 2.5 0-1.7 3.5-5.5 5.1-5.5.5 0 .2 1.3-.7 3zM38 737.4c0 .3-.4.8-1 1.1-.5.3-1 .1-1-.4 0-.6.5-1.1 1-1.1.6 0 1 .2 1 .4zm233.6 2.3c-1 1-1.9-.5-1-1.8.6-1.1.8-1.1 1.2 0 .2.7.1 1.5-.2 1.8zm9.4.3c0 .6-1.8 3-4 5.2-4.7 4.9-5.4 3.3-.9-2.3 3-3.8 4.9-4.9 4.9-2.9zm13 2.4c0 1.4-7 9.9-7.7 9.3-.3-.4 2.7-6.6 5.1-10.5.9-1.4 2.6-.7 2.6 1.2zm-130.6 1.7c4.2 5 3.8 5.4-6.8 5.8-4 .1-6.7-.2-6.5-.7.5-1.3 8.9-8.2 9.9-8.2.5 0 2 1.4 3.4 3.1zm34.6-2.2c0 1.2-2 2.5-2.7 1.8-.7-.7.6-2.7 1.8-2.7.5 0 .9.4.9.9zm83.1 6c-1.7 2.6-3.1 5.3-3.1 5.9 0 2.2-2 2.2-4.3-.2-2.4-2.4-2.6-4.6-.2-2.6.7.6 2.5-.8 5.5-4.7 5.1-6.6 6.6-5.5 2.1 1.6zM180 745.6c-1.8 2.1-2.4 1-.9-1.8.8-1.4 1.4-1.8 1.7-1 .2.7-.2 1.9-.8 2.8zm129.3.9c2.2 1.9 4.4 3.5 4.9 3.5.4 0 .8.4.8 1s-3.2 1-7.5 1c-5.3 0-7.5-.4-7.5-1.3 0-1.4 3.7-7.7 4.6-7.7.3 0 2.4 1.6 4.7 3.5zm-111 0c-.3.9-.8 1.4-1 1.1-.3-.3-.2-.9.2-1.5.9-1.6 1.5-1.3.8.4zm-15.9 1.8c-.3.8-1.2 1.8-2 2.1-2 .8-1.8-2.1.3-3.3 2.1-1.2 2.5-.9 1.7 1.2zm10 1.8c-.9 1-2.1 1.9-2.6 1.9-1.5 0-.8-2 1.4-4.2 2.7-2.7 3.9-.6 1.2 2.3zm102.6-2.7c0 .8-1.7 3.7-3.7 6.4-2.1 2.8-4.3 5.9-4.9 6.8-.6 1-1.5 1.4-2.2 1-1.2-.7 1.1-4.4 7.4-12 3.4-4 3.4-4 3.4-2.2zm-108.6 1.7c-1.2 1.3-2 1.6-2.2.9-.3-.7.2-1.6.9-2.1 2.5-1.6 3.2-.9 1.3 1.2zm-10.4.3c0 .8-.4 1.8-1 2.1-.5.3-1-.3-1-1.4 0-1.2.5-2.1 1-2.1.6 0 1 .6 1 1.4zm21 .1c0 1.3-9.4 12.4-10.1 11.9-1.2-.7.1-2.9 4.6-8.2 3.2-3.7 5.5-5.2 5.5-3.7zm-30.7 5.9c-1.1 1.1-2.7 3.3-3.6 4.7-1.5 2.5-3.3 3.2-11.2 4.5-3.3.5-13.6-3.3-14.2-5.3-.9-2.6 4.7-4.5 16.9-5.7 6.8-.7 12.7-1 13.1-.8.5.2 0 1.4-1 2.6zm16.7-1.6c0 1.1-4.9 6.2-6 6.2-1.6 0-1.1-1.3 1.7-4.2 2.6-2.7 4.3-3.5 4.3-2zm110.3 4.3c-2.7 4.9-4.7 6.8-6 5.6-1.1-1.1 6-10.7 7.9-10.7.5 0-.3 2.3-1.9 5.1zm-116.9-2.6c-.6 1.6-2.4 2.1-2.4.7 0-1.1 1.1-2.2 2.1-2.2.5 0 .6.7.3 1.5zm-42.4.5c0 .5-1.1 1-2.5 1s-2.5-.5-2.5-1c0-.6 1.1-1 2.5-1s2.5.4 2.5 1zm53.4.4c-.8 2-3.4 2.9-3.4 1.2 0-1.3 1.3-2.3 3.2-2.5.4-.1.5.5.2 1.3zm96.2.1c-.3 2-1.6 3.1-1.6 1.3 0-1.3.8-2.8 1.6-2.8.1 0 .1.7 0 1.5zm12.8 3.9c-2.7 3.4-4.4 4.5-4.4 2.9 0-.4 1.2-2.4 2.7-4.5 1.6-2.5 3-3.5 3.6-2.9.6.6-.1 2.2-1.9 4.5zm21.9-4.5c2.7.4 5.6 1.5 6.4 2.4 1.5 1.5 1.4 1.7-1.3 2.7-1.6.6-5.1 2.2-7.7 3.6-5.4 2.8-7.8 2.1-7-2 .3-1.3 0-3.3-.6-4.4-1.8-3.4.5-3.9 10.2-2.3zm13.7.1c0 .5-.4 1-1 1-.5 0-1-.5-1-1 0-.6.5-1 1-1 .6 0 1 .4 1 1zm-27.6 3.6c2 2 2 3.3 0 4.1-1.1.4-2.2-.1-3.1-1.3-1.2-1.6-1.5-1.7-2.3-.4-.5.8-1.3 1.1-1.7.6-.4-.5-.2-1.1.5-1.3.6-.3 1.2-1.1 1.2-1.9 0-1.9 3.5-1.8 5.4.2zM182 762.2c0 1.4-4 5.8-5.2 5.8-1.5 0-.8-2.6 1.2-4.8 2.3-2.4 4-2.9 4-1zm154.4 4.6c7 4.8 9.8 8 5.8 6.8-1.1-.4-6.7-1.7-12.6-2.9-5.9-1.2-10.7-2.7-10.7-3.2-.1-1 7.8-5.5 9.6-5.4.6 0 4.1 2.1 7.9 4.7zM137.8 765c3.4 2.1 4.2 4 1.6 4-.8 0-6.7 2.3-13 5.1-11.9 5.3-15.5 5.7-9.4 1 1.9-1.4 6.1-4.7 9.4-7.4 3.2-2.6 6.4-4.7 7-4.7.6 0 2.6.9 4.4 2zm47.2-.1c0 1.3-2.6 3.2-3.3 2.4-.8-.7 1.1-3.3 2.4-3.3.5 0 .9.4.9.9zm117.6 4.4c.4.4.3 1.2-.2 1.7-1.4 1.4-21.5 9.1-22.9 8.8-.8-.2 0-2.2 2.4-5.8 2.7-4.1 4.4-5.6 6.6-6 3.5-.6 13.1.3 14.1 1.3zm-131.6.8c-1.2 2.2-3.7 3.5-4.7 2.5-.9-.8 2.7-4.6 4.4-4.6 1.1 0 1.1.4.3 2.1zm14.7 5.1c2 1.9 3.1 4.8 1.9 4.8-.2 0-2.5-.9-5-2-4.6-1.9-5.7-3.4-3.3-4.3 2.5-1 4.1-.7 6.4 1.5z"/><path d="M231.3 255.2c-.5.7-2 4-3.2 7.3-1.2 3.3-2.9 7.4-3.6 9.2l-1.4 3.2-5.8-.7c-8.8-1-16.6-.8-17 .4-.2.6 3.3 4.2 7.7 7.9 4.5 3.6 8.4 7.3 8.7 8 .2.8-.9 5.8-2.6 11.2-4.1 13-4.2 14.7-1.3 15.1 1.6.3 4.7-1.4 9.9-5.5 4.2-3.2 8.2-6.2 8.9-6.8 1.7-1.2 4.7.5 12.8 7.1 6.4 5.4 9.6 6.7 9.6 4 0-.8-1.6-5.9-3.5-11.5-1.9-5.5-3.5-10.4-3.5-10.9s2.5-2.9 5.6-5.3c7.6-5.9 9.6-7.8 9-8.8-.3-.4-4.3-1.1-9-1.4-4.6-.4-9.1-1-9.9-1.3-.8-.3-2.7-4.4-4.1-9.2-4.2-13.6-5-15-7.3-12zm4.1 13.4c1 3.1 1.4 6 .9 6.4-.4.4-2.5.5-4.6.3-3.6-.5-3.8-.7-3.2-3.1 1.1-4.3 3.3-9.2 4.3-9.2.4 0 1.6 2.5 2.6 5.6zM219.3 279c2.1 0 2.3 2.9.3 5.5-1.3 1.9-1.5 1.8-5.4-1.5-2.2-1.9-4.1-3.9-4.1-4.4-.1-.5 1.6-.6 3.7-.2 2 .3 4.5.6 5.5.6zm17.8 1c1.2 0 2.2 1.5 3.4 5 .9 2.7 1.4 5.3 1.1 5.8-.3.5-2.3 2.1-4.5 3.6-4.7 3.3-6.4 3-11-1.8l-3.3-3.4 1.7-5.2 1.7-5.2 4.6.6c2.4.3 5.3.6 6.3.6zm15.9 1.9c0 .6-1.6 2.2-3.6 3.7-3.9 3-5.4 2.3-5.4-2.4 0-2 .5-2.2 4.5-2.2 2.5 0 4.5.4 4.5.9zm-27.6 15l2.7 2.8-5.3 4.7c-7.1 6.2-8.2 6-5.8-.8 2.2-6.4 3.8-9.6 4.8-9.6.5 0 2.1 1.3 3.6 2.9zm20 4.5c.9 3 1.6 5.7 1.6 6 0 1.4-1.9.4-5.9-3l-4.2-3.7 2.2-2.3c3.3-3.6 4.6-3 6.3 3zM246 378.9c0 1.1 2.6 2.2 3.4 1.4 1.2-1.2.5-2.3-1.4-2.3-1.1 0-2 .4-2 .9zM220.7 379.6c-1 1.1.3 2.4 2.4 2.4 2.3 0 2.5-1.5.3-2.4-1.9-.7-1.9-.7-2.7 0zM230 391.1c0 .5 1.1 1.4 2.5 1.9 3.7 1.4 3 2.9-1.6 3.6-4.2.7-7.6 3.1-6.2 4.5.4.4 2.6.4 4.8-.1 2.2-.6 8-.9 12.8-.9 4.8.1 9-.1 9.4-.4 1.4-1.5-2.1-3.6-5.9-3.5-4.6 0-6.9-1.5-5-3.4 2-2 1.4-2.3-4.8-2.5-3.3 0-6 .3-6 .8zM241.4 441.2c-.5.7-2.7 6.7-4.9 13.3l-4 12-11.7-.3c-9.7-.2-11.8 0-11.8 1.2 0 .7 1.2 2.2 2.8 3.2 4.8 3.1 14.7 11.7 15 12.9.2.7-1.3 5.4-3.2 10.4-2 5-3.6 9.7-3.6 10.5 0 2.6 1.2 4.6 2.7 4.6 1.9 0 9.8-4.7 17-10.1 2.9-2.1 5.7-3.9 6.2-3.9.6 0 3 1.3 5.3 2.9 17.1 11.4 17 11.3 18.7 8.4.7-1.3.6-2.2-.4-3.3-.7-.8-3-5.6-5-10.5l-3.7-9 4.8-4.3c2.7-2.4 6.6-5.5 8.7-6.9 5.7-3.9 4.9-5.3-3-5.5-3.8-.2-9.1-.2-11.9 0-3.2.1-5.5-.3-6.1-1.1-1.1-1.4-8.1-20.3-8.5-23.1-.4-2.4-2.3-3.2-3.4-1.4zm3 13.8c.9 2.2 1.9 5.8 2.2 8l.7 4h-5.2c-3.1 0-5.1-.4-5.1-1.1 0-2.5 4.1-14.9 4.9-14.9.5 0 1.6 1.8 2.5 4zm24.4 15.5c.2.2-1.8 2-4.4 4.1l-4.6 3.8-1.9-2.3c-1.9-2.3-2.5-5.2-1.3-6.4.5-.5 11.5.2 12.2.8zm-38.6.1c.8.8-1.4 7.4-2.4 7.4-1.3 0-8.8-6.2-8.8-7.2 0-.9 10.3-1.1 11.2-.2zm22 5.4c1.5 3 2.7 5.8 2.7 6.1.1.4-2.3 2.3-5.3 4.4l-5.4 3.7-6.1-4.1c-3.4-2.3-6.1-4.5-6.1-4.9 0-1.8 2.3-8.8 3.3-10 .7-.9 3.1-1.2 7.6-1l6.6.3 2.7 5.5zm-15.3 13c2.3 1.7 4 3.4 3.7 3.9-.9 1.4-12.3 9-12.8 8.5-.5-.4 1.5-10.8 2.7-14.2.7-1.8 1.8-1.5 6.4 1.8zm23.3 4.7c1.5 3.7 2.8 6.9 2.8 7.1 0 .9-12.3-6.4-12.8-7.7-.6-1.5 5.5-7.7 6.6-6.7.3.3 1.8 3.6 3.4 7.3zM409.6 610.9c-2.2 2.4-1.3 6.1 1.4 6.1 2.6 0 3.8-4.6 1.8-6.6-1.2-1.3-1.7-1.2-3.2.5zM382 642.9c-2.2.6-2.5 1.2-2.5 5.1 0 4.1.2 4.5 2.6 4.8 1.5.2 3.1-.4 3.9-1.3 1.1-1.4 1-1.7-.8-2.2l-2.1-.5 2.2-1.8c1.9-1.7 2-2 .7-3.3-.9-.9-2.4-1.2-4-.8zM410.7 649.7c-1.7 1.6-.5 3.3 2.3 3.3 3.2 0 3.7-.9 1.8-2.8-1.3-1.3-3.1-1.6-4.1-.5zM410.7 661.7c-1.4 1.4-.6 4.2 1.4 4.8 3 1 4.4-.8 2.7-3.4-1.3-2.1-2.9-2.7-4.1-1.4zM410 674c0 1.5.5 2 1.8 1.8.9-.2 1.7-1 1.7-1.8s-.8-1.6-1.7-1.8c-1.3-.2-1.8.3-1.8 1.8zM403.5 693c-.8 1.4.3 3 2.1 3 .8 0 1.4-.9 1.4-2 0-2.1-2.4-2.8-3.5-1zM74.6 623.7c-1.1 1.1-.6 2.3.9 2.3.8 0 1.5-.4 1.5-.9 0-1.3-1.6-2.2-2.4-1.4zM75 633c0 .5.5 1 1 1 .6 0 1-.5 1-1 0-.6-.4-1-1-1-.5 0-1 .4-1 1zM48.5 645.1c-1 1.5.3 2.5 1.6 1.2.7-.7.7-1.3.1-1.7-.6-.3-1.4-.1-1.7.5zM112 691.4c0 .8.4 1.7.9 2 1.1.7 3.3-1.8 2.4-2.7-1.2-1.2-3.3-.7-3.3.7zM114.4 721.1c-.3.6-.2 1.5.4 2.1 1.3 1.3 3.2.2 3.2-1.8 0-1.6-2.6-1.9-3.6-.3zM200.5 715c-.3.5-.1 1 .4 1 .6 0 1.1-.5 1.1-1 0-.6-.2-1-.4-1-.3 0-.8.4-1.1 1zM410 578c0 1.9.5 3 1.4 3 2 0 2.9-1.6 2.1-4-1-3.2-3.5-2.5-3.5 1zM2.7 626.7c-2 .3-2.7 1-2.7 2.8 0 1.9.4 2.2 2.3 1.8 1.2-.3 2.8-1 3.5-1.6.9-.7 1.8-.5 3.1.7 1.8 1.7 2 1.7 3-.3.9-1.6.8-2.2-.8-3.1-2-1-3.3-1.1-8.4-.3zM5.5 637c.3.5.8 1 1.1 1 .2 0 .4-.5.4-1 0-.6-.5-1-1.1-1-.5 0-.7.4-.4 1zM446 637c0 .5.5 1 1 1 .6 0 1-.5 1-1 0-.6-.4-1-1-1-.5 0-1 .4-1 1zM443.8 644.7c-2.4.6-2.3 2.4.1 3 1.2.3 1.7 1.1 1.4 1.9-.3.9.2 1.4 1.7 1.4 1.7 0 2.1-.4 1.7-2-.3-1 0-2.1.6-2.3.6-.2.7-.9.3-1.5-.7-1.2-2.6-1.4-5.8-.5zM114.5 647c-.4.6-.3 1.6.3 2.2.6.6 1.2.6 1.7-.2.4-.6.3-1.6-.3-2.2-.6-.6-1.2-.6-1.7.2zM4.4 656.1c-.8 1.4 1.1 3.3 2.5 2.5.6-.4 1.1-1.4 1.1-2.2 0-1.6-2.6-1.9-3.6-.3zM442 658.5c0 .9.5 1.5 1.1 1.3.6-.2 1.1-.8 1.1-1.3s-.5-1.1-1.1-1.3c-.6-.2-1.1.4-1.1 1.3zM114.4 659.1c-1 1.7 1.3 3.6 2.7 2.2 1.2-1.2.4-3.3-1.1-3.3-.5 0-1.2.5-1.6 1.1zM445.5 670c-.7 1.2.2 3 1.6 3 .5 0 .9-.9.9-2 0-2.1-1.5-2.7-2.5-1zM461.2 682.7c.2 1.7.9 2.8 1.8 2.8s1.6-1.1 1.8-2.8c.3-2.2-.1-2.7-1.8-2.7s-2.1.5-1.8 2.7zM434.6 690.3c-2.2 1.6-1.8 5 .6 5.5 2 .4 4-3 3.2-5.2-.7-1.9-1.5-2-3.8-.3zM423 692.8c0 3.3 2.2 4.8 4 2.7 1.7-2.1.8-5-1.8-5.3-1.8-.3-2.2.1-2.2 2.6zM29.2 692.6c.4 2.1 2.2 2.3 2.6.1.2-1-.3-1.7-1.3-1.7s-1.5.6-1.3 1.6zM480.7 695.7c-1.3 1.2-.7 5.4.9 6 2.3.8 3.8-1.2 3-4.1-.6-2.5-2.5-3.4-3.9-1.9zM442.1 697.4c-1.9 2.3-1 6.1 1.4 6.1 1.6 0 2-.7 2-3.4 0-3.8-1.5-5-3.4-2.7zM494 697c0 .5.5 1 1.1 1 .5 0 .7-.5.4-1-.3-.6-.8-1-1.1-1-.2 0-.4.4-.4 1zM22.8 699.7c-1 .3-1.8.9-1.8 1.4 0 1.2 3.7 1.2 4.5 0 .7-1.2-.5-1.9-2.7-1.4zM78.5 722c-.3.5-1.7 1-3.1 1-2.7 0-3.1 1.2-1 2.9 1.7 1.5 6.6-.2 6.6-2.3 0-1.9-1.7-3-2.5-1.6zM47.6 725.9c-.6.9 3.6 4.1 5.4 4.1 1.7 0 1.1-2.9-.9-4-2.4-1.2-3.8-1.3-4.5-.1zM55.5 730c-.4.6-.2 1.7.4 2.4.6.7.8 1.6.4 1.9-.3.4.2.9 1.1 1.3 2.2.9 3.2-.2 1.7-2-.6-.8-1-1.9-.9-2.6.4-1.6-1.8-2.4-2.7-1zM499.1 739.6c0 1.1.3 1.4.6.6.3-.7.2-1.6-.1-1.9-.3-.4-.6.2-.5 1.3zM463.3 783c-1.9.8-2.3 1.7-2.3 5.4 0 4.4-.1 4.5-3.7 5.1-8 1.3-9.2 1.7-10.4 3.1-1 1.2-.9 1.8.2 2.8 1.8 1.7 7.4 3.6 10.5 3.6 1.3 0 2.4.4 2.4 1 0 .5-.1 1-.2 1-3.5.1-12.4 2.3-13 3.2-2.1 3.4.4 5.6 8 6.7 5.9.8 6.5 2.7 1.1 3.4-5.4.7-6.3 1.8-5.5 6.1.9 4.6 3.6 5 3.6.5 0-2.8.2-3 3-2.7l3.1.3.5 13.5c.6 13.8 1.6 18.2 3.7 16.1.8-.8 1.2-5.8 1.2-14.6 0-7.3.4-13.7.8-14.1.4-.4 5.1-1.1 10.5-1.5 12.4-.8 17.1-2.6 17.2-6.6 0-1.8-6.3-3.1-17.2-3.5-5.4-.3-10.1-.8-10.5-1.2-.5-.4 1.9-.7 5.2-.5 5.9.4 8.5-.3 8.5-2.2 0-.5-1-1.3-2.2-1.8-2-.7-1.9-.8 1-1.4 3.4-.7 4.3-3.1 1.6-4.1-.9-.3-3.7-.6-6.2-.7-2.6-.1-5.8-.4-7.2-.9-4.6-1.4.4-2.2 7.2-1.2 3.5.6 6.7.6 7.1.2 1.6-1.4-3.6-3.9-9.5-4.6-3.2-.4-5.8-1.1-5.8-1.6 0-.6 1-.8 2.1-.5 3.6.9 7.9-.4 9.6-3 1.4-2.2 1.4-2.5-.2-4.3-1.4-1.5-3-2-6.9-1.9-2.8 0-6.1.4-7.3.9zm8 3.7c-.7.2-1.9.2-2.5 0-.7-.3-.2-.5 1.2-.5s1.9.2 1.3.5zM459.5 798c.3.5.1 1-.4 1-.6 0-1.1-.5-1.1-1 0-.6.2-1 .4-1 .3 0 .8.4 1.1 1zm13.5 6.8c0 .4-1.6.6-3.5.4-1.9-.2-3.5-.6-3.5-.8 0-.2 1.6-.4 3.5-.4s3.5.4 3.5.8zm-13.3 5.8c-.3.3-1.2.4-1.9.1-.8-.3-.5-.6.6-.6 1.1-.1 1.7.2 1.3.5zm23.3 5.5c2.3 0 2.3.1.5.9-2.7 1.2-16.2 1.2-17 .1-.6-1 8.3-2 12-1.4 1.1.1 3.1.3 4.5.4z"/><path d="M471.2 826.2c-1.6 1.9.1 4 2.9 3.6 1.6-.2 2.4-1 2.4-2.3 0-2.4-3.6-3.3-5.3-1.3z"/></svg>