<svg version="1" xmlns="http://www.w3.org/2000/svg" width="666.667" height="1170.667" viewBox="0 0 500 878"><path d="M237 11.9c-7.4.4-21.2.5-30.7.3-13.1-.4-17.6-.2-18.8.8-2.2 1.8-.1 4 3.9 4 2.8 0 4 1 9.4 7.6 3.4 4.2 6 8 5.7 8.4-.2.4-3.2 1-6.6 1.3-7.1.8-7.9 1.2-7.9 3.7 0 2.4 2.3 2.7 18 1.8 6.9-.3 22.3-.6 34.2-.7 13-.1 21.9-.5 22.3-1.1 1-1.6-1.4-5-3.6-5-2.3 0-2.6-.6-3.3-8.7-.7-7.7.8-9.8 6.4-9 4.2.5 9.1-1.5 6.9-2.8-1.8-1.2-19.4-1.4-35.9-.6zM223.5 17c.6 1-5.5 10-7.1 10.7-1.3.5-12.4-8.4-12.4-9.9 0-1.4 18.6-2.2 19.5-.8zm15.2 5.9c.1 3.5-.3 7.5-.8 8.9-.9 2.4-1.2 2.5-8 1.9-3.9-.3-7.4-.8-7.7-1.1-.6-.6 1.7-4.3 7.1-11.4 3.3-4.3 4.5-5.2 6.6-5 2.5.3 2.6.6 2.8 6.7zm11.8-3.9c2.8 5.4 1.3 14-2.4 14-1.1 0-2.2-.4-2.6-.9-.5-.8-.9-11.4-.6-14.9.2-2.4 4-1.2 5.6 1.8zM257.5 171.5c-2.2.8-4.4 2-5 2.7-.6.7-1.9 1.8-3 2.4-1.1.6-2.5 2.8-3.1 4.9-1.2 4.3-2.7 5.3-4.9 3.5-3.5-2.9-13.6 8.3-13.3 14.7.3 3.9-3.2 22.2-4.3 22.9-1.4.8-1.1 4.3.7 8.1 1.2 2.3 3.2 4.2 6.5 5.9 2.7 1.3 4.9 2.9 4.9 3.4 0 1.5 3.9 3.1 8.8 3.6 3.5.3 5.3 1.1 7 3 2.8 3.2 2.6 3.6-1.8 6.6-1.9 1.3-4.7 4.4-6.2 6.8-3.9 6.3-13.6 34.6-15.7 46-2.7 13.9-4.4 17.7-11.1 24.5-8 8.2-12.3 15.8-11.7 20.4 1.1 7.5 2.6 14 3.6 16 .6 1.1 1.1 3.5 1.1 5.3 0 1.8.8 4.6 1.8 6.3 2.4 3.8 13.1 14.9 15.7 16.2 2.7 1.4 8.8 2.5 15.5 2.8 4.8.3 6.2-.1 11-3.1 3.1-1.9 6-3.4 6.6-3.4.6 0 1.6 3.3 2.3 7.2.7 4 2.6 11.6 4.1 16.8 1.6 5.2 3.8 13.5 5 18.5 1.2 4.9 3 10.2 4.1 11.8 1.5 2 1.8 3.6 1.3 6.2-.4 2.5 0 4.4 1.7 7.4 2.2 4 2.2 4.2.6 7.4-1 1.7-2.8 4.6-4 6.3-2.2 3-4.5 9.1-11.2 29.4-1.6 4.7-4.2 11.6-5.8 15.5-3 7.3-9.1 23.5-11 29.4-.9 2.8-.8 3.5.6 4.6 1 .7 1.7 2.6 1.7 4.4 0 4.5 1.6 7 5.5 8.7 4.8 2 8.4 10 8 18.2-.1 3.3-.5 6.5-.9 7.1-1.8 2.9-3 24.9-2.4 46.6.1 2.7-.7 9.1-1.7 14.2l-1.8 9.1-3.1-.1c-1.7 0-4.3.3-5.9.7l-2.8.8 3.6-5.9c6-10.2 7.9-16.6 7.9-27.4.1-8.3-.3-10.4-2.9-16.5-5.8-14-12.4-21.6-24.2-27.6-5.2-2.8-6.5-4-8.3-8-3.6-8.1-10.6-12.2-18.7-11.1-3.6.4-4 .2-7.7-4.6-2.2-2.8-5.2-5.5-6.7-6.1-4.8-2-4.5-7.2.7-10.6 3.2-2.1 4.4-1 1.5 1.3-3.3 2.7-.8 5.6 5 5.8 2.4.1 5.9.5 7.6.9 6.3 1.4 13.3-2.9 13.3-8.1 0-1 .9-3.2 2-4.8 3-4.5 2.5-6.9-2.3-11.7-2.3-2.4-4.9-5.3-5.7-6.5-2.1-3.3-3.9-1.6-2.8 2.5.6 2.2 2 4 4.4 5.4 3.3 1.9 5.2 5.6 4 7.6-.3.5-2.4.9-4.7.9-3 0-4.6.6-5.6 1.9-2 2.7-1.1 3.9 3 4.2 6.6.6 4.2 6.3-2.7 6.5-3.9.1-6.6-1.7-6.6-4.3 0-1-1.2-2.8-2.7-4-2.1-1.6-3.5-2-6.1-1.5-1.9.3-3.3.3-3.1-.2.2-.5 1.6-3.3 3.1-6.3 7.9-15.9 7.6-31.8-.7-48.2-1.9-3.8-3.5-7-3.5-7.3 0-.2 1.8-.9 4.1-1.5 6.9-1.9 6.6-6.9-1-12.3-3.9-2.8-5-4.3-5.6-7.3-.3-2.1-1.3-5.1-2.1-6.7-.8-1.5-1.2-3.7-.9-4.8.9-2.7-1.5-6-6.9-9.9-4.2-3-4.4-3.4-4.8-9.1-.4-4.8-1-6.5-3.4-9-4.2-4.5-6.2-5.3-12.6-5.1-6.1.2-6.7-.2-4.3-3.4.8-1 1.5-3.2 1.5-4.7 0-4.2 1.6-6.5 5.1-7.2 4.4-1 5.5.6 3.3 4.4-3.2 5.4-.3 7.4 8.6 6 2-.3 2.5.1 3 2.6.4 2.1 1.1 3 2.5 3 2.6 0 3.9-5.9 1.8-8-1.8-1.9-5.7-2.9-8.3-2.2-1.7.4-1.9.1-1.4-1.9.4-1.5 0-3.4-1-4.9-.9-1.3-1.6-3.6-1.6-4.9 0-3.7-5.5-9.6-9.1-9.6-4.5 0-7.9 2.1-10 6.2-1.1 2.1-2.4 3.8-2.9 3.8-.6 0-1 .6-1 1.4 0 .7-.7 1.9-1.5 2.6-3.2 2.7.1 10.1 3.9 8.7.9-.4 1.8-.2 2.1.3.6.9-2.6 7-3.7 7-.4 0-1.2-1.9-1.9-4.3-.7-2.9-2.6-5.7-6-8.9-2.8-2.8-4.6-5.3-4.3-6.1.3-.8 2.8-2.9 5.5-4.7 5.9-3.8 6.7-5.2 4.8-8.7-1.2-2.3-1-3.1 1.9-8.6 1.8-3.4 3.2-7.5 3.2-9.1 0-5.8-6.4-12.5-10.4-11-.7.3-3-.6-5.1-2-2.3-1.6-5.2-2.6-7.4-2.6-7.9-.1-11.5-9.6-8.5-22.3 2.4-9.9 1.5-16.5-3.4-26.2-2.2-4.4-4.9-8.7-5.9-9.5-9.6-7.8-13.6-9.2-26.8-9.3-4.6 0-7.2.6-11.2 2.6-6.9 3.6-9.1 6.7-7.5 11.1 1.5 4.1 1.5 5.3 0 3.8-1.7-1.7-7.6-1.5-13.1.4-5.8 1.9-11.7 8.4-11.7 12.6 0 5.7-5.2 4.4-6.9-1.6-.6-2.3-.3-4 1.1-6.8 2.4-4.9 2.3-6.5-.8-10.5-1.8-2.3-3.3-3.3-5.3-3.3-1.5 0-3.2-.5-3.8-1.1-2-2-7.2-1.3-11.3 1.6-4.8 3.4-5.7 4.5-3.5 4.5 1 0 3-1.1 4.7-2.5 2.6-2.2 6.8-3.4 6.8-2 0 .3-1 1.9-2.2 3.5-1.8 2.5-2 3.5-1.2 5.8.5 1.5 1.8 2.8 3 3 2.4.3 7.4-3.3 7.4-5.4 0-.8.5-1.4 1-1.4 2.1 0 2.2 3.3.2 7.4-1.8 3.5-2 4.8-1.2 7.8 1 3.5 4.5 8.1 6.9 8.9.7.3 1.4 1.6 1.5 2.9.2 1.4.6 3.6 1 5 .6 2.1-.3 3.5-6.1 9.5-4.2 4.3-7.9 9.3-9.6 13-1.6 3.3-3.2 6.6-3.6 7.4-.4.8-2.7 1.9-5.2 2.5l-4.4 1.1-.3 5.5c-.1 3.4.1 5 .6 4.2.5-.8 1.2-1.3 1.6-1.3.3.1.5-.1.4-.3-.6-.8 3.6-4.6 5-4.6 1.3 0 1.3.2-.2 1.3-1.6 1.2-1.9 3.5-.5 4.7.3.3.9 1.8 1.3 3.4.6 2.4.5 2.8-1 2.2-1.6-.6-1.7-.5-.2 1.1.8 1 1.8 3.2 2.1 4.9.5 2.9.4 3.1-1.9 2.6-1.9-.3-2.3-.1-1.8 1.2.3.9 1.6 1.6 2.8 1.6 1.6 0 2.8 1.3 4.8 5.2 3.7 7.5 11.4 16.8 14.8 18 2.8.9 7 5.8 5 5.8-.5 0-1-.5-1-1 0-.6-.5-1-1.1-1-.5 0-.8.4-.4.9.5.8-7.4 2.1-11.5 1.9-.8 0-2.3.3-3.2.7-1.5.6-1.8.2-1.8-1.9 0-3.3-1.8-3.4-2.6-.1-.6 2.5-1.8 3.2-2.8 1.6-.3-.5-1.5-.7-2.6-.4-1.7.4-1.9.2-1.3-1.3.4-1 2-3 3.5-4.4l2.8-2.6-2.3-2.2c-1.7-1.6-2.3-3.2-2.2-5.5.3-4.2-.4-5.2-2-3-1 1.4-1.1 2.1-.2 3.2 1 1.1.9 1.3-.2 1-2.6-.9-3.8-3.9-2.1-5.2.9-.7 1.4-2 1.2-3-.5-2.3 1-2.2 2.8.3.8 1.2 3 3 4.8 4 6.1 3.7 7 2.1 1.8-3-2-2-3.2-4-2.8-4.8.3-.9.1-1.3-.5-.9-2.1 1.3-6.9-6.7-6.4-10.6.1-.9-.2-1.7-.8-1.7-.5 0-1.1-1-1.4-2.3-.2-1.2-.4 5.2-.4 14.3-.1 11.2.3 16.7 1.1 17.2.8.6.7 1.1-.4 1.7-2.1 1.4-.5 2.4 1.9 1.2 1.1-.7 2.2-.7 2.5-.2.8 1.2-.3 4.1-1.5 4.1-.5 0-.9.7-.9 1.6 0 .8-.5 1.2-1 .9-.6-.4-.8-1.5-.5-2.6.4-1.1.2-1.9-.4-1.9-.7 0-1.1 2.5-1.1 6.4 0 6.2.1 6.6 3.7 9.5 2.1 1.7 4.3 3.1 5 3.1.7 0 1.3.4 1.3.8 0 .5-2.2.8-5 .7l-5-.1v3.3c0 3.8.1 3.8 4 1.8 2.9-1.5 3-1.5 3 .6 0 3.5-3.2 8-5.2 7.3-3.8-1.2-1.2 4.7 5.6 12.3 1.5 1.7 2.2 2 3.3 1.2 1.1-1 1-1.7-.7-4.4-2.5-4.1-2.5-6.9 0-10.5l2.1-2.9 4.1 4.5c4.4 4.8 5.5 5.3 6.5 2.8.3-1-.7-2.9-2.9-5.2-4.1-4.3-5.2-7-3.8-8.7.6-.8.6-2.2-.2-4.3-1.6-4.2-.8-4.9 7.8-6.7 10.5-2.2 13.5-2 18 1.6 8.2 6.3 8.6 10.1 2 17.1-4.1 4.3-4.4 4.9-3.9 8.7.7 4.8-.9 7.2-6.9 10.2-2 1-4.5 3-5.6 4.4-1.7 2.1-1.8 3.1-1 6.7.5 2.4 1.6 5.3 2.4 6.5 2.1 3.2 1.7 5.7-1.2 9.3-2.5 2.9-2.6 3.8-1.3 9 .7 2.6-13.3 2.6-18.2 0-2.2-1.1-4.6-2-5.3-2-.8 0-1.7-.6-1.9-1.3-.3-.6-.6 0-.6 1.4-.1 2.1 1 3.3 5.4 6.2 4.7 3.1 6.1 3.5 10 3.1 2.5-.2 4.5-.2 4.5.2 0 .3-1.6 3.3-3.6 6.6-2 3.5-3.1 6.4-2.5 6.7.5.3 1.3 1.9 1.6 3.4.6 2.3.4 2.7-1.3 2.7-1.2 0-2.4-.5-2.7-1-1-1.6-2.1-1.2-3.5 1.5-1.8 3.3-3 2.2-2.3-2.2.4-2.6.3-3.4-.5-2.9-.7.4-1.2 1.5-1.2 2.4-.1 1-.9.3-2-1.8l-1.9-3.5-.1 5.4c0 4.2.5 6.1 2.4 8.5 3.9 5.3 5.5 9.1 5.2 13-.3 3.1.1 3.9 2 4.8 1.3.6 2.1 1.5 1.8 2-.6 1 3.5 4.7 5.2 4.8 2 0 4.4-4.6 3.2-5.8-.7-.7-.9-1.4-.5-1.8 1-1.1 2.9.7 4.3 4.3 1.6 3.8 1 6.1-1.1 4.3-1.7-1.4-3.2.7-1.6 2.3 1.3 1.3 1.5 4.1.2 3.2-1.4-.8-1.8 5.6-.6 8.2 1.1 2.6 2.5 3 2.5.9 0-1.4 6.1-5.9 6.9-5 1 .9-2.5 5.7-5.2 7.1-2.6 1.3-2.8 1.8-2.3 4.8.7 3.4.7 3.4-2.7 2.8-1.9-.3-3.7-.1-4.1.5-.4.7-1.6.1-3.1-1.4-1.9-1.9-2.5-3.6-2.7-7.9-.2-4.7-.4-5.2-1.9-4.4-2.5 1.3-2.8 1.2-3.9-1.7-.7-1.9-.7-3.1.1-4 1.5-1.8.5-2.9-1.6-2-1.1.4-1.4 1.2-1 2.7.5 1.5.4 1.9-.4 1.5-1.9-1.2-1.3 7.7.9 12.2 1.1 2.2 2 4.7 2 5.5 0 .7.7 3.4 1.6 6 1.6 4.8 5.5 8.3 8.1 7.3 1.1-.5 1.3-.2.9 1-.4.9-1.3 4.8-2.2 8.6-1.7 7.5-1.9 7.6-8.6 4.2-3.8-1.9-3.8-1.9-3.8 3.1 0 4.2.1 4.5 2.3 4 1.5-.4 2.8-.1 3.7 1 1.7 2 .7 2.9-1.8 1.6-3.2-1.7-4.2-1.3-4.2 1.4 0 1.4.5 2.5 1.1 2.5.5 0 1.5 1.3 2 3 1.2 3.3 2.4 3.8 3.3 1.5.9-2.4 4.6.4 4.6 3.4 0 1.4 1.2 3.8 2.8 5.4 1.8 2 2.3 3.1 1.5 3.4-1.6.6-1.7 2.4-.2 2 2.3-.4 1.9 2.1-.6 4.8-1.4 1.6-2.5 3.4-2.5 4.1 0 2.2-5.1 5.4-8.6 5.4-3.1 0-3.4.3-3.4 2.9 0 1.6.7 3.4 1.5 4.1 1 .9 1.5.9 1.5.1 0-.6.9-1.1 2-1.1 2.4 0 2.6 1.3.4 3.1-2.8 2.3-5.4 8.7-5.4 13.3 0 5.2 2 5.5 4 .5 2.1-4.9 3.2-4.6 2.9.7-.4 4.4-.2 4.9 1.8 5.2 1.8.3 2.2-.3 2.8-3.7.4-2.3 1.1-4.3 1.6-4.7.5-.3.9-1.6.9-3s.6-2.4 1.4-2.4c1.1 0 1.4-1 1.1-4-.3-3.2 0-4 1.6-4.5 1.1-.4 2.7-1.7 3.5-3.1 2.4-3.5 5.8-3.1 10.7 1.5l4.2 4-.1 10.2c0 7.6-.4 10.4-1.5 11.3-.8.6-1.5 2.4-1.6 4-.4 4.9-1.1 6-2.8 4.6-1.2-1-1.5-1-1.5 0 0 2-3.2 3.9-6.5 3.9-4.6 0-7.5-3-7.5-7.8 0-2.3-.5-4.1-1.1-4.1-.6 0-.9 1.5-.7 3.7.3 3.7.3 3.7-4.7 4.9-7.9 1.9-8.5 2.3-8.5 6s.8 4.1 4.3 2.2c4.9-2.5 5.8-2.8 8.2-2.8 1.7 0 2.8.7 3.4 2.2 1.1 2.9 5 6.5 7.6 7 1.6.3 1.9 1 1.7 3.4-.2 2.1.4 3.6 2.2 5.3l2.4 2.2 5-2.6c5.7-3 6.7-4.8 5.8-11-.6-3.8-.5-4.3 1.6-4.9 1.6-.4 2.6-.1 3.3 1.1.6 1 2.2 2.9 3.6 4.3s3.3 4 4.3 5.7c1.7 3.5 4.3 5.3 7.4 5.3 1.9 0 5.2 3 7 6.6 1.8 3.5-1.2 10-5 10.8-2 .4-3.3 1.5-4.3 3.8-3 6.8-5.4 8.5-13 9.2-7.7.8-17.5 4.3-24.1 8.8C4.9 764.3-2.9 790.4 4.5 810c.9 2.5 1.9 5.4 2.2 6.5.3 1.1 1.4 2.9 2.5 4.1 1.8 2.1 1.8 2.1-2.1 4.7-2.3 1.5-4.7 2.7-5.6 2.7-1 0-1.5 1-1.5 2.9v3l5.5-2.5c7-3.1 10-3 14.2.2 2.6 2 3.3 3.2 3.3 5.9 0 1.9-.5 3.7-1 4-1.6 1-1.2 5.1.8 6.7 3.9 3.4 8.4 5 10.9 3.9 1.7-.8 3.7-.8 7.1 0 4.2.9 4.9.8 6.3-1 .9-1 3.5-2.5 5.8-3.2 3.6-1.1 4.4-1 5.8.4 1.5 1.5 1.5 1.6-.5 1-1.3-.3-2.2-.1-2.2.6 0 .8 1.9 1 6.5.5l6.5-.7v4.4c0 2.4-.4 5-.9 5.7-.5.8-4.6 1.6-11.3 2.1-11.9 1-15.3 2.4-19.9 8.1-3.5 4.3-4.8 4.8-16.8 5.5-14 .8-12.3 2.5 2.4 2.5l13-.1 4-5c2.2-2.7 4.9-5.2 6-5.4 1.1-.3 7.3-.6 13.7-.8 8.3-.1 11.9-.6 12.3-1.5.6-1.5 3-1.5 5.5.1 1.8 1 2.8.8 7.1-1.5 4.9-2.6 5.2-2.6 9.7-1.2 2.6.7 6.2 1.4 8 1.4 2.1 0 3.2.5 3.2 1.4 0 .8.8 1.4 1.8 1.3.9 0 4.7 1.3 8.3 3.1 5.7 2.8 7.6 3.2 15.6 3.4 7.9.1 9.2.4 9.6 2 .4 1.4-.1 1.8-2 1.8-1.3 0-2.1-.4-1.8-1 .3-.6-.1-1-1-1s-1.4.4-1 .9c.3.5-.3 1.2-1.2 1.4-1 .3 2 .4 6.7.4s7-.2 5.2-.4c-1.8-.2-3-.9-2.7-1.4.4-.5.1-.9-.4-.9-.6 0-1.1-.6-1.1-1.4 0-.7 2.9-2.7 6.5-4.5 3.6-1.7 6.5-3.6 6.5-4.2 0-1.7-8.7-.3-10.6 1.6-.9.8-3 1.5-4.7 1.5-3.1 0-3.2-.2-3.1-3.8l.2-3.9-4.4-.2c-4.1-.1-4.6.2-6.5 3.4-3 5.1-6.3 4.4-4.3-1 .6-1.6 6.4-4.5 9.1-4.5.7 0 2.3-.9 3.4-1.9 1.2-1.1 3.3-2.2 4.7-2.6 1.5-.3 4.6-1.5 7-2.7 2.4-1.1 4.6-1.8 4.9-1.5.3.3-.7 2.1-2.1 4-1.4 1.9-2.6 3.8-2.6 4.4 0 1.9 4.1 5.3 6.5 5.3 2.2 0 2.7-.8 4.2-6 1.9-6.3 2.9-7 6.7-4.4 1.8 1.1 2.4 2.4 2.4 5.2 0 6.4.1 6.9 2.4 7.9 1.6.7 3.7.6 7.1-.3 4-1 4.9-1 5.3.1.3.7 1.9 1.5 3.5 1.9 2.5.5 3.5.1 5.4-2.2 1.4-1.5 2.5-3.5 2.5-4.4 0-2.4 3-1.1 3 1.3 0 4.3 9.7 5.3 11.5 1.1 1.1-2.5 2.5-2.9 2.5-.7 0 .8.9 1.9 1.9 2.5 3.1 1.6 12.8 1.2 16.4-.7 1.8-1 5.4-2.4 8.1-3.3 7.2-2.2 8.9-5.1 9.1-15 .1-4.4.4-8.3.7-8.6.3-.2 2.8 0 5.6.6 3.9.9 5.6.8 7.4-.1 2.2-1.2 2.2-1.3.3-1.6-1.1-.2-4.3-.8-7.1-1.4-3.8-.9-5.6-.8-7.2 0-2.2 1.2-5.9 7-4.5 7.2.5 0-.2.4-1.4.9-2.8 1.2-5.5 5.3-4.7 7.3.3.9 1.8 1.7 3.2 1.9 3.7.4 3.8 3 .3 5.1-4.1 2.4-4.8 2.2-5.5-1.7-.4-2.2-1.3-3.6-2.7-3.9-4.6-1.2-8.3 7.4-3.8 8.8 1.6.5 1.8 1 .8 2.1-2.3 2.8-11.6 1.2-12.9-2.2-1.4-3.6-4.6-4.9-7.6-2.9-1.3.8-2.4 2.4-2.4 3.5s-.7 2-1.5 2c-1.9 0-3.8-4.6-3-7.1 1.4-4.4-8.7-3.6-12.2 1-1.1 1.4-1.2 1.3-1.3-1.2 0-1.5-.7-3-1.5-3.3-2.4-.9-7.1 1.5-8.3 4.2-1.7 3.5-3.9 3-4.6-1-.9-4.7-5.6-8.6-10.4-8.6-6 0-6.9-1.2-4.3-5.4 2.6-4.2 4.3-4.5 6.5-1.2 1.4 2.2 2.2 2.4 10.3 2.6 4.8.1 10.6.1 12.8 0 2.2-.1 5.4-.3 7-.3 1.7-.1 3.2-.5 3.5-.8.3-.3 4-1.4 8.3-2.3 4.5-1 8.7-2.6 9.8-3.7 2.2-2.2 8.5-2.6 9.2-.7.3.9 2.6.2 7.8-2.4 4.1-2 10-4.2 13.1-4.8 3.2-.6 7.8-2.2 10.3-3.6 5.6-2.9 5.5-2.9 5.5-.3 0 3.1 2.2 1.8 3.5-2.2 1.4-3.9 3.6-4.7 7-2.5 3.7 2.4 5.3 2 10.9-3.2 7.3-6.6 11.8-8.9 14.8-7.5 2.3 1.2 2.3 1.2-.5 1.2-1.6.1-2.5.5-2.2 1.1 1.1 1.8 9.8.8 12.3-1.4 1.7-1.5 2.5-1.7 3.4-.8 1.5 1.5 3.8 8.8 3.8 12 0 2.1-.5 1.8-5.2-2.7-4.3-4.2-5.8-5.1-8.7-5.1-5 0-10.8 2.2-13.8 5.2s-5.5 11.5-4.2 14c1.4 2.7-.7 6.6-4.3 8.1-1.8.8-3.9 2.1-4.6 2.9-.7.9-2.1 1.4-3.2 1.1-2.2-.6-2.6.7-.9 2.4.7.7.4 2.2-1.1 5.2-2.9 5.5-6.6 8.3-10.5 7.9-4.3-.3-9.4 1.1-10.4 3-.4.9-1.1 3.1-1.4 4.9-.6 3.1-.6 3.2 2.8 2.6 2.5-.4 4.6.1 7.9 2 4.4 2.4 4.5 2.5 5.1.6.4-1.1.1-2.6-.5-3.4-1-1.2-.9-1.5.4-1.5s1.6-.5 1.1-2c-.4-1.3-.2-2 .7-2 2 0 7-5.7 10.7-12.2 2.9-5.2 3.5-5.7 5.9-5.2 2.4.5 3 0 5.5-4.6 2.6-4.6 2.8-5.7 2.2-10.8-.6-5.2-.4-5.9 1.7-7.9 1.3-1.2 4.3-2.9 6.7-3.8 4.3-1.5 4.4-1.5 8.1 1.5 4 3.2 5 5.9 5 14 0 3-.5 5-1.2 5.3-.7.3-4.2.2-7.7-.1-5.8-.5-6.3-.4-5.9 1.4.3 1.3 1.1 1.8 2.6 1.7 1.2-.2 2.2 0 2.2.2 0 1.3-3.3 5.5-4.3 5.5-.5 0-2.8.8-5.1 1.9-2.3 1-5.4 2.3-7.1 2.8-4.3 1.2-3.9 3.7.6 4.1 2.4.2 4.9-.4 7-1.7 1.9-1.2 5-2.1 6.9-2.1 2 0 4.1-.5 4.8-1.2.9-.9 1.2-.8 1.2.4 0 2.3 1.6 3.1 3.8 1.9 1.1-.6 3.3-.6 5.4-.2 2 .5 4.1.6 4.6.2 1.5-.9 2.5-5.6 1.7-8.1-.6-1.8-1.2-2-3.3-1.5-1.8.4-2.4.3-1.7-.4.6-.5 3.6-1.7 6.8-2.5l5.8-1.5 4.9 3.5c5.3 3.8 6.9 6.6 4.9 9-1 1.3-1 1.7.1 2.4s1.1 1.4 0 4.2c-2.2 5.5-4.7 7.6-10.1 8.3-3.3.5-5.4.3-6.4-.5-.8-.6-1.9-.9-2.6-.5-.6.4-2.4-.2-3.9-1.3-2.5-1.9-3-1.9-4.1-.6-1 1.3-1.4 1.2-3-.2-1.1-1-2.2-1.4-2.6-1.1-.4.4.2 1.3 1.2 2.1 1.2.9 1.5 1.5.7 2-.7.4-1.6.4-2.2.1-.5-.3-1.6-.3-2.2.2-3.6 2.2-26.8.9-32.1-1.9-2.1-1-4.7.5-4.7 2.8 0 1.6 7 5.4 10 5.4 1.2 0 1.8.4 1.5 1-.3.5-.2 1 .3 1 .6 0 1.2-.7 1.6-1.5.6-1.8 4.3-1.9 8.3-.4 1.7.6 2.9.7 3.1.1.1-.5 3-.7 6.5-.5 4.1.4 7.8 0 10.7-.9 3.2-1.1 7.1-1.4 13.6-1 10.7.5 13.8-.7 18.4-7 2.3-3.2 3-3.6 3-2.1 0 1.1.6 2.5 1.3 3.1 2.2 1.8 12.2 6.9 15.1 7.6 4.3 1.1 11.3-.4 15.4-3.2 2-1.4 5.2-2.8 7.1-3.1 4.5-.8 5-2.6 1-3.7-2.4-.7-.9-.9 6.7-1 5.5-.1 12.6-.6 15.8-1.3 6.1-1.1 8.6-.4 8.6 2.4 0 2.3-3.2 2.7-4.7.5-1.8-2.5-3.5-2.5-5.7-.1-.9 1-3.4 2.1-5.5 2.5-4.7.7-6.5 2.7-5.5 5.8.9 2.9 3.3 4.7 6.1 4.8 2.2 0 2.2 0-.3-2.5-3-3-2.3-5.3.9-3 2.7 1.9 5.3 1.9 6.1 0 .4-1 2-1.5 5-1.5 3.5 0 5.3-.6 7.8-2.8 4.1-3.5 9.9-7.5 10.1-7.1 1.9 3.6 3.2 4.8 7.8 7.1 3 1.5 7 2.8 9 2.8 2.1 0 4.5.8 5.9 2 2.8 2.4 3.9 2.5 4.7.4.5-1.4 1.6-1.5 7-1 4.1.4 6.3.3 6.3-.4 0-.5-.6-1-1.2-1-1 0-.9-.3.1-.9.7-.5 3.1-.4 5.5.1 4.1 1 24.2.4 28.4-.8 1.3-.4 2.2-1.4 2.2-2.5 0-2.2-1.6-2.4-5.7-.8-3.3 1.3-19.6 1.4-21.9.1-1.2-.7-.6-1.1 2.7-1.6 5.1-.7 10.9-3.5 10.9-5.2 0-.7-2.4-2.6-5.4-4.2-2.9-1.7-5.6-3.8-5.9-4.6-.4-.9-1.9-1.6-3.4-1.7-5.9-.1-6.5-1.3-1.7-3.3l4.5-1.8 2.5 2.3c3.8 3.6 11.8 3.4 16.2-.3 1.8-1.5 4.1-2.9 5.2-3.3 2-.6 2-1.5 2-53.5 0-29.7-.4-53.9-.9-55.3-1.3-3.2-7.4-6.7-13.1-7.4-5.8-.7-11.7 1.8-17.8 7.6-3.5 3.2-4.3 4.6-4 6.8.3 2.7.1 2.8-4.8 3.3-2.7.3-6.3 1.3-7.8 2.4-2.5 1.6-2.8 2.3-2.3 5.5.3 2 .8 4.4 1.2 5.4.5 1.3.2 1.7-1.3 1.7-2.3 0-3.4-2.9-2-5.4.6-1.1.4-2.1-.6-3.2-1.8-1.7-2.2-6.4-.6-6.4.6 0 1-1.5 1-3.3 0-1.8.4-3.7 1-4.3 1.6-1.6.1-5.2-2.1-4.7-2.2.6-2.3.3-.7-2.8.7-1.3 2-2.4 2.8-2.4.8 0 1.6-.9 1.8-2 .2-1.1.7-2.9 1.2-4s.9-2.9.7-4c-.2-1.6.4-2 2.8-2.1 3.3-.1 6.9-1 10.1-2.5 1.4-.7 3.8-.7 7.5.1 5.5 1.1 7.9 1.3 20.7 1.1 7-.1 7.2-.2 7.2-2.6V708h-11.4c-10.8 0-18.2-1.3-17.1-3 .9-1.4-7.9.2-11 2-1.6 1-4.7 2.1-6.7 2.4-3.3.6-3.8.4-5.4-2.4-1-1.6-2.3-3-3-3-.6 0-1.6-1-2.1-2.3-1.1-2.3-1-2.4 7.8-3.6 7.2-1 9.3-1 10.5 0 1.4 1.1 10.6 3.2 12.9 2.9.6-.1 6.5-.4 13.3-.7 10.9-.4 12.2-.7 12.2-2.3 0-1.5-1.3-1.9-9.2-2.5-10.4-.8-12-1.7-10.6-5.7.6-1.6 1.4-2.8 1.8-2.8.5 0 1.5-.6 2.2-1.3 4.1-3.8 4.4-3.9 10.3-1.8 5.1 1.8 5.6 1.8 5.3.3-.3-1.7-8.1-6.2-10.8-6.2-.8.1-3.7 1.2-6.5 2.6-4.5 2.2-14.4 4-26.5 4.6-6 .4-16.6-.3-17.8-1.1-.8-.4-2-4.6-2.7-9.2-1.5-9.8-5.5-24-7.1-25.4-.7-.6-1.5-3.5-1.8-6.5-2.8-25.6-3.5-36-3.8-51.3-.2-16.8-.1-17.7 1.9-19.9 1.2-1.3 2.8-3.9 3.6-5.8.8-1.9 3.2-5.1 5.3-6.9 6.3-5.6 6.9-6.7 5.4-11.2-1.1-3.3-1.1-4.1.2-5.6 1.8-2 3.8-8.5 3.8-12.3 0-1.4-1.4-3.9-3.6-6.1-5.5-5.6-13-23.5-15.4-36.7-.6-3.4-1.7-7.4-2.5-8.9s-1.5-3.6-1.5-4.5c0-8.9-10.2-28.8-19.7-38.6-.7-.7-1.3-1.7-1.3-2.2 0-.5-.9-1-2-1.2-1.9-.3-2.1-1.2-2.5-14.3-.5-14.9 1.3-31.6 4-38.2 1.5-3.6 1.5-3.6 6.6-2.9 4.5.6 5.5.4 10.7-2.8 3.1-1.9 7.7-3.9 10.2-4.6 4.8-1.3 9-4.4 9-6.8 0-.8.9-3 2.1-4.9 3.9-6.3 6.3-19.3 3.8-20.9-.7-.4-.9-2.1-.6-4 .8-4.5-5.1-21.1-12.5-35.8-3.5-6.9-4.2-10.2-3.8-16.9.2-2.9-2-9-3.9-10.8-1.1-1.1-2.7-4-3.5-6.7-.8-2.6-2.8-8.1-4.6-12.2-1.7-4.1-4-10-5.1-13-3.7-9.9-6.4-11.3-26.9-14-4.7-.6-12.7-2-17.9-3-7.6-1.6-10.8-1.8-16-1-3.6.5-8.8.6-11.6.2-4.9-.7-5-.8-4.7-4 .2-2.3-.2-3.4-1.3-3.8-1.4-.6-.9-1.4 2.5-4.9 2.3-2.4 4-4.9 3.8-5.6-.2-.7-2.7-1.3-6.1-1.5-6.9-.4-7.7-.8-7.7-3.8 0-2.9-1.2-3.9-7-6.2-5.3-2-6.7-3.5-8.1-8.6-.7-2.9-2-4.3-5.2-6.2-5.2-3-7.7-3.4-25.2-4-10.6-.4-15-.2-18 .9zM269 199c2.9 2.9 1.4 4.7-1.6 1.9-1.3-1.2-2.4-2.6-2.4-3.1 0-1.4 1.9-.9 4 1.2zm28.5 2.1c.9 1.7 1.4 4 1.2 5.2-.3 2.1-.4 2.1-1.5-.5-.6-1.5-2-3.2-3.2-3.8-2.6-1.4-2.6-4 0-4 1.2 0 2.6 1.2 3.5 3.1zm.5 11.3c0 .3-.4.8-1 1.1-.5.3-1 .1-1-.4 0-.6.5-1.1 1-1.1.6 0 1 .2 1 .4zm-43.7 1.7c1.2.7 2.5 1.7 2.9 2.2.4.7 1.2.6 2.2-.2 1.7-1.4 2.2-.2.7 1.4-1.9 2.1-3.4 8.6-2.2 9.8.8.8 1.1.5 1.1-1.1 0-1.3.6-2.2 1.5-2.2.8 0 2.6-1.2 4-2.7 1.9-2.1 2.5-2.4 2.5-1.1 0 .9-.7 1.8-1.5 2.2-2.1.8-2 6.6.1 6.6.8 0 1.2.4.9 1-.4.6.6 1 2.4 1 2.2 0 2.9-.4 2.5-1.4-.3-.8 0-1.7.5-2.1.6-.3.9-1 .7-1.4-.3-.4.6-1.4 1.9-2.1 3.2-1.7 3.2-3 .1-3-3.6 0-3.7-1.2-.5-3.8l2.9-2.4-.2 2.4c-.2 1.7.2 2.3 1.6 2.3 2.7 0 3.1 2.1.6 3.8-2 1.4-2 1.5-.3 4.6 1 1.7 2.1 3.1 2.6 3.1 1 0 .9-1.4-.2-2.6-1.2-1.2.6-3.4 4.4-5.5 3-1.5 3.1-1.5 5.6 2.1 2.6 3.6 2.6 3.7.8 5.9s-4.6 2.1-3.3-.1c.4-.6.1-.9-.7-.6-2.3.7-5.8 6.6-5.2 8.8.7 2.5-1.5 5.3-3.4 4.5-.8-.3-2.6.4-4 1.5-3.2 2.5-4.7 2.6-3.4.2.6-1.2.5-2.3-.4-3.5-1.7-2.3-4.1-2.2-4.8.3-.3 1.1-1 2-1.6 2-1.5 0-1.4-4.3.1-5.8 1-1 1-1.5-.2-2.2-1.2-.7-1.6-.4-1.8 1.5-.3 2.3-.4 2.4-2.7.9-1.3-.8-2.6-2.7-3-4.1-.3-1.5-1.5-3.8-2.4-5.2-1-1.4-2.1-3.5-2.4-4.6-.5-1.9-.5-1.9-1.2.3-.4 1.3-1.5 2.2-2.4 2.1-.9-.1-2.7.3-4.1.8-3.1 1.3-5.1-.1-2.9-1.9 2.4-2 5.9-7.4 5.9-9.2 0-1-.6-1.4-1.7-1.1-1 .3-.4-.1 1.2-.9 3.7-1.9 4.1-1.9 6.8-.5zm12.7-.7c0 .2-.7.7-1.6 1-.8.3-1.2.2-.9-.4.6-1 2.5-1.4 2.5-.6zm36 6.7c0 1.8-.2 1.9-1.5.9-1.5-1.2-1.2-3 .6-3 .5 0 .9 1 .9 2.1zm14 2.9c1.5 1.1 4 2.4 5.5 3 3.1 1.2 3.4.5-3.8 8.7-2 2.4-3.4 4.9-3.1 5.7.3.8.1 1.7-.5 2.1-2.3 1.3-.9 2.5 2.9 2.5 2.9 0 4.3-.5 4.7-1.7.4-.9.2-1.8-.4-2-1.2-.4-.4-4.8 1.4-7.8.9-1.5 1.4-1.7 2.5-.7.8.6 1.8.9 2.1.5.7-.6 1.2.5 2.1 4.9.5 2.1-.1 3.5-2.5 6.3-1.7 1.9-3.5 3.5-4.1 3.5-.5 0-2.4 1.1-4.2 2.5-1.8 1.4-3.7 2.5-4.2 2.5-.5.1-2.7.9-4.9 2-5 2.4-7.1 2.5-8.3.3-1-1.7.3-6.1 2.3-7.5.5-.4.6-1 .1-1.5-.4-.4-1.2 0-1.8 1-.8 1.4-1.3 1.6-2.4.6-1.6-1.3-1.9-3.9-.4-3.9 1.6 0 1.2-7-.5-7.6-1.6-.7-2.1-3.4-.6-3.4.5 0 1.3-1 1.7-2.2.6-1.9.7-2 1.6-.4.9 1.6 1.2 1.6 3.4-.5 1.3-1.2 2.4-2.8 2.4-3.6 0-1.8-1-1.6-2.6.4-.7 1-1.6 1.4-2 1-1.5-1.5 1.2-4.1 5.7-5.3 2.4-.6 4.6-1.2 4.7-1.3.2 0 1.6.8 3.2 1.9zm31.2 4.1c2.2 5.8-2.1 18.5-8.5 25-3.3 3.4-9.6 6.4-16 7.6-1.5.3-3.2 1.3-3.7 2.3-.7 1.3-3 1.8-11.7 2.5-5.9.4-12.4.7-14.3.7-1.9-.1-5.4-.2-7.8-.2-2.8 0-4.1-.3-3.7-1 1.5-2.4 6.5-3.3 17.5-3.4 12.9-.1 14.5-.6 24.4-8.1 10.2-7.6 14-15.6 11.6-24.4-.6-2.3-.9-4.5-.6-5 .3-.4 3.1-.2 6.2.4 4.6.9 5.9 1.6 6.6 3.6zm16.3-3.2c3.3.7 6.8 1.7 7.8 2.2 1 .5 6.6 1.6 12.4 2.4 12.6 1.6 18.1 4.6 19.6 10.5.5 1.9 1.7 5.5 2.7 8 3.4 8.7 6.2 18.9 6.2 23.4.1 2.5.5 4.6 1 4.6.4 0 .8.7.8 1.5 0 1.2-1 1.5-4.5 1.4-2.9-.2-4.5-.7-4.5-1.6 0-.7.5-1.3 1.1-1.3.5 0 .7-.5.4-1-.3-.6-1.9-1-3.6-1-1.6 0-2.9.4-2.9 1 0 .5-.8 1-1.8 1-3.2 0-5.5 3.4-4.7 6.9.6 3 .5 3.1-6.9 6.7-4.2 1.9-7.6 4-7.6 4.5s-.5.9-1.1.9c-.6 0-.8-.9-.4-2 .7-2.2.5-2.3-1.9-1.4-.8.3-1.2 1.2-.9 2 .7 1.9-1.1 1.8-2.7-.1-.7-.8-2.1-1.5-3.1-1.5-1.2 0-2.3-1.1-2.9-2.8-1.7-4.6-2.6-5.7-5.2-5.8-1.5 0-4.2-1.7-7-4.5-9.8-9.5-12.5-11.2-16.4-10.6-2 .4-4.5 1.4-5.5 2.3-1.8 1.6-2 1.5-3.8-.7-1.1-1.3-2-2.7-2.1-3 0-.7 10.8-6 13-6.3 1.4-.3 3-1.8 2.5-2.6-.3-.5 0-1.2.6-1.5.6-.4 1.9-2.7 3-5.2 1-2.4 2.3-4.2 2.8-3.9 1.7 1.1 3.7-18.3 2.2-21.1-2-3.8.3-4 13.4-1.4zm-65.4 3.4l-2.1 2.1v-2.1c0-1.2.8-2.6 1.8-3.2 2.6-1.5 2.8.7.3 3.2zm-5.2 16.5c-2.7 5.5-4.6 7.3-7.4 6.6-1.3-.3-2.6.5-3.9 2.2-1.8 2.6-1.8 2.6.3 1.9 1.7-.5 2.1-.2 2.1 1.4 0 3.9-7.6 6.7-8.8 3.2-.3-.9.2-1.1 1.9-.7 1.3.3 1.9.3 1.2 0s-.9-1.4-.3-3.4c.9-3.2.5-4.1-1.6-3.3-.8.3-1.4.1-1.4-.4 0-1.2 4.4-3.3 6.8-3.3 1.3 0 1.7-.8 1.7-3.2 0-2.4.6-3.5 2.5-4.5 1.6-.8 2.8-.9 3.4-.3 1.5 1.5 3.6 1.2 3.6-.5 0-.8-.5-1.5-1.1-1.5-.5 0-.7-.5-.4-1 .4-.6 1.2-.4 2.1.5 1.4 1.4 1.3 2-.7 6.3zm-28.2 5.8c-.3.3-1.2.4-1.9.1-.8-.3-.5-.6.6-.6 1.1-.1 1.7.2 1.3.5zm-3.8 13.1c2.3 2.9 4.1 5.6 4.1 6.1 0 .4-1.4 2.1-3.1 3.8-4.6 4.3-6.8 9.6-6.4 15.2.2 3.3-.2 5.3-1.3 6.6-1.3 1.4-1.4 2-.4 2.3.6.3 1.2 1.1 1.2 1.8 0 1.5 2.2 2.5 5.3 2.5 1.6 0 1.8.3.9 1.2-.7.7-1.2 2.2-1.2 3.5 0 2.6-1.9 2.9-6.8 1.2-3.2-1.1-4.7-3.3-3.5-5.1.3-.6.1-.8-.5-.4-.6.3-1.3.2-1.7-.4-1.1-1.8-4.5-1.1-4.5.8 0 1.3-1.3 2.3-4 3.2-5.4 1.8-6.6.5-4-4.5 1.1-2.2 2-5.7 2-7.9 0-4.1 4.1-16.8 8.7-26.9 2.7-5.8 7.6-10.2 9.9-8.9.6.4 3 3 5.3 5.9zm6.1-2c0 .7.9 1.3 1.9 1.3 1.1 0 2.3.5 2.7 1.1.4.8-.1.9-1.7.4-3-.9-4.7-2.3-6-4.7-.9-1.7-.8-1.8 1-.6 1.2.7 2.1 1.8 2.1 2.5zm55.3 9c3.1 1.5 5.7 3 5.7 3.5 0 .4.7.8 1.5.8 2.2 0 1.8 1.1-1.5 4.7-4.2 4.7-9.8 4.2-6.8-.6.9-1.5.9-2.3-.1-3.5-1.1-1.3-1.6-1.3-4.6.2-2 1-3.5 2.5-3.5 3.5 0 2.2-4 3.9-5.7 2.5-.9-.7-2-.6-3.6.5-3.2 2.1-9.7 3.3-9.7 1.8 0-.8-.7-.7-2.2.3-1.3.7-3.9 1.6-5.8 2-3.8.6-3.9.8 2.7-4.2 1.7-1.2 2-2.1 1.3-3.2-.8-1.3-1.3-1.2-4.2.5l-3.3 1.9 1.8-2.8c1.4-2 1.6-3.1.8-3.9-1.6-1.6.6-3.7 4.1-3.7 2.2 0 2.9.4 2.5 1.4-.4.9 0 1.2 1.3.9 1.2-.3 2.2.3 2.9 1.6 1.4 2.4 2.8 2.6 5.5.6 1.2-.9 1.6-2 1.2-3.1-.5-1.3-.9-1.5-1.8-.6-1.6 1.6-6.1 1.6-5.5-.1.2-.6 1-1.2 1.8-1.3.8 0 2.1-.4 2.9-.7 1.4-.6 5.6-1 13.5-1.4 1.7-.1 5.6 1 8.8 2.4zm-40 1.9c.9.9-.4 3.4-1.8 3.4s-2.7-2.5-1.8-3.4c.4-.3 1.2-.6 1.8-.6.6 0 1.4.3 1.8.6zm-9.9 2.9c-2.2 1.7-3.4 1.9-3.4.6 0-.5.8-1.2 1.8-1.4 3.2-.9 3.6-.7 1.6.8zm-6.7 3.3c-2 2.1-3 4.6-3.8 9.3-1.5 8.7-3.1 10-2.3 1.9.8-8.1 3.6-14 6.6-14 2.1 0 2.1.1-.5 2.8zm54.7-1.3c-.7 1.6-2.4 2.1-2.4.6 0-.8.7-1.3 2.7-2 .1-.1 0 .6-.3 1.4zm-49.3 5c-1.8 2-3.1 4.7-3.1 6.2 0 2.1-.2 2.4-1.5 1.3-2.3-1.9-1.9-3 2.7-7.2 5.2-4.8 6-4.9 1.9-.3zm78.7-1c1.6 1.3 3.2 3.7 3.5 5.3.3 1.5 1.8 4 3.2 5.4 2.4 2.4 2.6 3.2 2 7.2-.7 4.2-.6 4.6 1.4 4.6 1.6 0 2.1.6 2.1 2.5 0 3.1 2.3 3.3 4.4.3l1.6-2.2v2.1c0 3.3 2.1 3.9 4.2 1.4 2.6-3.3 6.1-2.1 11.4 3.7l4.3 4.6 2.5-2.3c3.7-3.5 6.9-1.7 13.7 8 1.7 2.5 3.9 1.9 3.9-1 0-2.8-5.4-9.5-9.7-12.2-3.4-2.2-3.6-2.4-1.5-2.7 1.2-.2 3.8.6 5.7 1.8 3.5 2.2 5.5 2 5.5-.5 0-1.9-4.5-5.2-8.3-6.1l-3.1-.7 3.4-1.1c4.5-1.4 4.6-4 .3-4.4-3.7-.4-4.3-1.7-1.2-2.5 1.5-.4 2-1.1 1.5-2.3-.3-.9-.1-2.3.5-3.1 1-1.2 1.7-.9 4.1 1.3 1.5 1.5 2.8 3.3 2.8 4 0 .7 1.2 2.1 2.7 3.2 2.7 2 2.7 2.1.9 4.1-2.5 2.8-1.4 5.3 1.9 4.5 2.7-.7 3.6 1.2 1.1 2.2-2.7 1-2.7 3.4 0 4.4 2.3.9 2.4 1.1.9 2.6s-1.5 1.8.1 3.5c2.8 3.1 7.1 1.6 4.4-1.6-.8-1-.8-1.9-.1-3.4.6-1.1.8-2.6.5-3.4-1-2.6 1.4-2.9 4.6-.6 3.2 2.4 4 4.9 1.5 4.9-2.8 0-1.6 3.8 2 5.9 3.9 2.3 4.5 4.6 1.5 5.4-2.9.7-2.5 2.4 1 4.2 1.8.9 3 2.3 3 3.5 0 2.4-.8 2.5-3.4.5-1.1-.8-2.6-1.5-3.3-1.5-2.4 0-1.3 2.5 2.4 5.6 2.5 2.1 3.4 3.6 3 4.7-.5 1.4-1 1.5-3.2.5-2-.9-2.8-.9-3.8.1-1.3 1.4-.6 2.1 5.4 5.4 1.7 1 2.9 2 2.6 2.3-.3.4-2.1-.3-3.9-1.4-1.8-1.1-3.9-1.7-4.5-1.5-1.6.6-1.7 3.3-.1 3.3.6 0 .4.8-.6 1.9-1.5 1.7-1.5 1.9-.1 3.1 1 .8 1.4 2.2 1.1 3.4-.3 1.1 0 2.6.6 3.3.9 1.1.7 1.8-.6 3.1-1.6 1.6-1.8 1.6-3.4-.6-1.4-1.8-2-2-3-1-1.9 1.9-2.5.2-.8-2.4 2.6-4.1 4.5-16.1 3.7-24.1-.1-.4-.8-.7-1.6-.7-1.1 0-1.5 1.1-1.5 4 0 2.2-.3 4-.8 4-1.2 0-3.7-4.3-3.7-6.5 0-1.7-.6-2-3.4-1.7-6.5.5-6.6 1.9-.4 7.8 3.1 2.9 6.3 5.6 7 5.8.7.3 1.3 1.2 1.3 2 0 2.4-3.1 9.6-4.1 9.6-.5 0-.3-1.1.3-2.5 1.6-3.6-.9-8.6-6.4-12.5-3.7-2.7-4.3-2.9-5.7-1.6-1.1 1.2-1.2 1.8-.2 3 .7.8 1 2.4.6 3.5-.3 1.2.1 3 1 4.4 1.5 2.4 1.5 2.4-1 2-3.3-.7-3.3 1.9 0 6.3 1.4 1.8 2.5 3.5 2.5 3.7 0 .3-1.6 1.4-3.5 2.6-3.3 1.9-3.5 1.9-2.5.2 1.2-2.3-.9-4.5-3.4-3.5-1.2.5-1.5.2-1-1 1-2.6-2.4-3.1-5.5-.9-2.5 1.9-2.9 1.9-5.6.6-2.7-1.5-2.8-1.6-1-2.9 1.7-1.3 1.7-1.4 0-4s-1.9-2.7-8.6-1.2c-1 .2-1.3-.5-1.1-2.5.4-3.3-1.3-3.5-4.5-.5s-4.1 1.4-1.4-2.3l2.3-3-2.1-.6c-1.5-.4-2-1.1-1.6-2.3.9-2.8-1.1-3.3-3.3-.9-2.8 2.9-3.6.9-1.6-4 1.5-3.7 1.5-4.3 0-7.3s-1.5-3.6.1-8c1.3-3.7 1.5-5.7.7-9.5-1.4-7.6-5.2-6.3-6.6 2.2-.2 1.1-1.2 2.1-2.3 2.3-1.1.2-2.7 1.3-3.6 2.4-.9 1.2-2.1 1.8-2.8 1.4-.9-.6-.9-1.1 0-2.3.7-.8 1.4-2.4 1.5-3.6.1-1.2.7-4.2 1.4-6.7 1.2-4.8.7-13.9-1.1-17.2-.6-1.1-2.3-2.4-3.7-2.9-3.7-1.3-5.6-4.4-4.2-6.9.5-1 1-2.8 1-3.9 0-3 4.1-2.7 7.8.4zm-20 .5c-.7 1-1.4 1.8-1.5 1.6-.6-.6.9-3.6 1.8-3.6.5 0 .4.9-.3 2zm-250.5.4c1.2.7 3.9 1.4 5.9 1.4 7.5.2 15.6 6.9 20.3 16.8 3.5 7.4 4.2 14.4 2.1 20.7-.9 2.7-1.6 8-1.6 12.2 0 4.1-.3 7.5-.7 7.5-.5 0-2.9-2.4-5.5-5.4-6.2-7-12.2-10.9-22.1-14.3-11.4-3.8-24.9-3.9-35.4-.1-5.1 1.8-7.5 2.2-8.2 1.5-1.8-1.8-1.3-5.6.9-7.5 1.7-1.4 1.9-2.4 1.4-5.7-.5-3.4-.2-4.4 1.9-6.3 2.9-2.8 9.8-4.6 13.9-3.7 1.7.4 3.5.2 4.4-.6 1.9-1.5 3.1-.4 1.5 1.5-1.8 2.1 4.5 7.9 7.7 7.1 1.8-.4 2.5-.1 2.9 1.5.6 2.3 3.8 2.7 4.7.5.3-.8.2-2.3-.1-3.3-.7-1.6-.5-1.6 1.7-.1 1.4.9 3 2.6 3.6 3.8 1.8 3.5 2.4 3.7 4.4 1.1 1.7-2.3 2-2.3 4.6-1 1.5.8 3.6 3 4.7 4.8 2.2 3.7 5.2 5.8 6.2 4.2.9-1.5-4.6-9.1-8.5-11.8-1.9-1.3-4.6-2.2-6-2-1.4.1-4-.8-5.7-2-4.2-3-10.2-5.4-11.8-4.8-1.5.5-3.6-1.6-5.9-6.1-1.4-2.9-1.4-3.3.2-5.2.9-1.2 4.4-3 7.7-4 7.5-2.4 8.1-2.4 10.8-.7zm195.5 8.5c-1.3 4.6-5 13.3-5.5 12.8-.4-.5 2.3-12.6 3.8-16.4 1.5-4 2.9-1 1.7 3.6zm42.6-2.7c-.6 2.2-.6 2.2 1.3.5 2.1-1.8 5.3-1.4 5.3.7-.1 1.8-3.5 5.4-5.1 5.4-3.4-.2-4.7.3-4.5 1.9.1 1.6-.8 1.8-7.4 1.7-4.1-.1-8.9-.5-10.7-.9l-3.2-.7.2 4.3c.2 3.7-.2 4.5-2.1 5.4-1.7.7-2.1 1.6-1.7 3.2.6 2.4-1.3 6.3-3 6.3-1.6 0-3.4 3.6-2.9 5.7.4 1.3 0 2.3-1.1 2.7-1.3.4-1.5 1.3-1 3.6.8 3.5-.2 3.8-4.6 1.1-3.7-2.3-7.9-8.2-7.9-11.2 0-1.1 1.1-3.5 2.5-5.1 1.4-1.6 2.3-3.4 2-3.9-.3-.5 1.2-1.2 3.5-1.5 4-.7 4-.7 3.8-4.8-.2-3 .1-4.1 1.2-4.1 1.1 0 1.4-1 1.3-3.1-.2-2.5.3-3.3 2.3-4.2 3.4-1.6 6.7-1.6 5.8 0-.4.7.2.5 1.3-.5 2.6-2.3 4.9-2.2 5.6.3.7 2.6 2.4 2.6 3.2-.1.8-2.3 4.9-4.2 7.5-3.4 1 .3 2.1.1 2.5-.5.3-.5 2-1 3.6-1 2.7 0 3 .3 2.3 2.2zm-37.4 3.6c-1.1 2.3-2.2 4.2-2.5 4.2-.6 0 1.6-6.3 2.8-7.8 1.9-2.4 1.7-.6-.3 3.6zm137.9-3.2c.9.3 1.2 1.4.7 3.5-.4 2.1-.1 3.1.9 3.6 2.3.8 3.9 4.3 2.6 5.6-1.5 1.5-4.1-1-4.1-3.9 0-1.5-1.3-3.3-3.5-5-4.3-3.3-4.7-5.7-.7-4.8 1.5.3 3.3.8 4.1 1zM16 292.4c0 .8-.4 1.7-.9 2.1-1.2.7-2.4-1.2-1.6-2.5.9-1.5 2.5-1.2 2.5.4zm309.5 2.6c.3.6-.1.7-.9.4-1.8-.7-2.1-1.4-.7-1.4.6 0 1.3.4 1.6 1zm16.6 2.8c2.8 2.5 3 3.1 1.9 5.1-.9 1.8-.9 2.5 0 3.1 1.3.8.6 7.5-1.1 10-.7 1.1-.9-.1-.8-4 .1-8.6.1-8.8-3.1-11.8-5.5-5.3-2.6-7.5 3.1-2.4zm-18.1 1.9c1.3 1.3 1.2 1.4-1 .8-1.4-.4-3.2-1.4-4-2.2-1.3-1.3-1.2-1.4 1-.8 1.4.4 3.2 1.4 4 2.2zm10.9 1.7c.7.8.8 1.7.3 2-.6.3-1.2-.3-1.5-1.4-.6-2.4-.4-2.5 1.2-.6zm-86.4 4.6c.3.5-.1 1-.9 1-.9 0-1.6-.5-1.6-1 0-.6.4-1 .9-1 .6 0 1.3.4 1.6 1zm52 5.7c-1 2-1.3 3.8-.8 4.2 1.9 1.2 2.2 3.9.6 4.6-1.2.4-1.3.9-.5 1.7.8.8.8 1.7.1 3-.5 1-.7 2.4-.3 3 1 1.5 1.4 19.2 1.8 65.3.5 55.8.5 87.1 0 96-.3 4.4-.6 22.5-.9 40.1-.2 17.7-.9 33.3-1.4 34.8-.7 1.6-.7 4.3-.1 7.3.5 2.7.6 7.6.3 11.1-.5 5.3-.9 6.2-2.2 5.6-.9-.4-3.1-1.2-5-1.9-5.5-2-5.8-3.5-4.9-23 .1-1.1-.5-6.1-1.2-11-.8-6.1-1.1-13.3-.6-22.3.6-11.8.5-13.3-1-13.9-2.4-.9-4.4 2.3-4.4 7 0 3.4-.2 3.8-1.5 2.7-1.9-1.6-3.5-.3-7 5.5-2.9 5-3.1 7.2-1 10.1 2.1 3.1 4.5 10.4 4.5 13.9 0 1.6-.9 4.9-1.9 7.1-1 2.3-2.2 5.5-2.6 7.3-.8 3.7-1.9 3.9-3.9.8-2-3-1-10.4 1.5-11.8 1-.5 2.3-2.8 2.9-5.1 1.1-3.8 1-4.3-1.4-6.5-2.2-2-2.6-3.2-2.6-8.3 0-3.2.7-8.5 1.6-11.7.9-3.2 1.9-7.4 2.4-9.3.4-1.9 2.1-7.7 3.9-12.9 1.7-5.1 3.1-9.9 3.1-10.5 0-.6 1.6-4.3 3.5-8.1 3.8-7.7 4.4-11.9 1.8-12.9-1.5-.6-1.5-.8 0-2.3 1.4-1.5 1.8-1.5 5 .1 1.9.9 4.1 1.6 4.9 1.6 2 0 5.9-5.6 5.2-7.5-.4-.9.1-2.4 1.1-3.5 1.7-1.9 1.6-2.1-1.3-6.7-1.7-2.6-3.9-6.8-4.9-9.3-3.6-8.4-8.4-33.5-9-46.2-.5-9.2-1.9-12.2-4.4-9.2-2.1 2.5-1.5 17.8 1 25.9 2.5 8 2.6 9.8.6 12.9-1.2 1.8-1.3 3.6-.7 8.5 1.1 7.9-.2 6.6-2.8-2.9-1.2-4.1-2.7-9.6-3.5-12.1-1.9-6-1.8-8.2.1-4.7 1.5 2.9 3.9 3.7 4.6 1.6.3-.7-.3-4.2-1.3-7.8-.9-3.6-2-9-2.4-12-1.2-9.6-4.1-14.4-7-12-2 1.7-2-.6 0-4 .8-1.4 1.4-3.5 1.5-4.7 0-2.2.9-3 8.3-7.8l3.7-2.4.2 3.2c.1 1.8.2 4.3.3 5.7 0 1.6.9 2.9 2.2 3.5 2.9 1.2 3.1 3 3.2 21 0 16.5 1.6 28.3 3.9 30.2 1.8 1.5 5.8 1.7 6.6.4.4-.5.1-2.2-.5-3.8-2.5-6.5-4.1-21.1-4.4-41.8-.1-8.8-.3-16.5-.4-17.2-.1-1.7-5.3-6.3-6.9-6.3-.9 0-1.2-.6-.8-1.6.3-.9.6-2.3.6-3.2 0-1.4.2-1.5 1-.2.5.8 1.2 1.1 1.6.7.4-.3.1-1.3-.6-2.2-1-1.2-1-2.4.4-6.3 1-2.6 2.4-5.9 3.1-7.3.8-1.4 1.2-2.9.8-3.2-.3-.4.2-2.2 1.1-4.2 1-2 2.1-5.7 2.6-8.3.4-2.6 1.3-6.2 1.8-7.9 1.1-3.5-.3-5.8-1.9-3.2-.4.7-1.1 1-1.6.6-.4-.4-.1-1.8.7-3 .7-1.2 1.9-3.3 2.6-4.6 1.5-2.8 3.8-4.5 4.2-3 .2.5-.4 2.6-1.3 4.6zm34.5-.7c0 .5-.2 1-.4 1-.3 0-.8-.5-1.1-1-.3-.6-.1-1 .4-1 .6 0 1.1.4 1.1 1zm-92.7 2.7c1.7.5 1.7.7.1 2.4-1.8 2-1.2 3.9 1.4 4 1.2 0 1 .3-.7 1-1.6.6-2.2 1.5-1.8 2.9.3 1-.1 2.5-.9 3.1-2 1.6 0 3.9 2.8 3.1 1.5-.3 1.9-.1 1.6.9-.3.8-1.4 1.3-2.4 1.1-7.4-1.3-8-1.3-11.4 1-2.1 1.4-4 3.8-4.7 5.9-.6 2-2.3 5.3-3.7 7.4-1.4 2.1-2.6 4.3-2.6 4.9 0 .6-1.2 1.9-2.6 2.9l-2.4 1.8.6-3.9c.5-3.4.3-4.2-1.7-5.5l-2.2-1.6 3.7-4.8c2-2.6 6.7-6.9 10.4-9.4 8.1-5.5 11.2-9.7 11.2-15.2 0-3.3.3-3.8 1.8-3.2.9.4 2.5 1 3.5 1.2zm13.7 1.8c0 .9-.6 1.2-1.5.9-.8-.4-1.5-1-1.5-1.5s.7-.9 1.5-.9 1.5.7 1.5 1.5zm75.6 2.5c-.8 2-1.5 2.7-1.8 1.9-.4-1.2 2.3-6.1 3-5.5.1.2-.4 1.8-1.2 3.6zm-100.9 2.7c-1.6 1.6-1.7 1.6-1.7-.3 0-2.6 1.1-3.7 2.4-2.4.7.7.5 1.6-.7 2.7zm33.9-1.5c.4 1.3 3.9 5.6 7.7 9.6 5.7 5.8 7.8 7.4 10.9 7.8 2.1.4 3.8 1.1 3.8 1.7 0 1.1-.7 3.3-4.1 13.7-.9 3-2 6.8-2.4 8.4-.5 2.5-.8 2.7-2.1 1.5-1.1-1.2-1.2-2.1-.2-4.5 1.2-3.2.6-6.4-1.2-6.4-.6 0-1.5 1.1-2 2.5s-1.2 2.5-1.5 2.5c-1.2 0-.3-3 2-6.4 1.4-2 2.5-4.1 2.5-4.6 0-2-3-.9-6.4 2.4-2.7 2.5-3.6 4.1-3.6 6.6 0 3.5 2.3 7 4.7 7 .7 0 1.3.4 1.3.9 0 1.4-7.5.6-9.7-1-2.8-2.1-6-7.9-6.7-12.4-.9-5.5-2.6-10.5-3.5-10.5-.4 0-1.7.9-2.9 2-1.6 1.6-2 2.8-1.6 4.6.4 1.4.1 3.5-.5 4.7-.9 1.7-.8 3.3.3 7 1.4 4.8 1.4 4.8-1.1 5.8l-2.6 1 2.2 2c2.2 2 2.5 5.4.6 5.4-.6 0-2.3-2.5-3.8-5.5s-3.2-5.6-3.6-5.8c-1.9-.6-2 1.8-.4 6.9 1.9 6.2 3.9 8.9 6.5 8.9 1 0 4 2.3 6.8 5.2 4.5 4.7 4.8 5.2 3.2 6.4-2.3 1.8-5.1 1.9-3.4.2.7-.7 1.2-2 1.2-2.9 0-1.9-4.6-5.3-6-4.4-1.3.8-1.3 6.5.1 6.5.5 0 .7.5.3 1.1-.3.6-1.6.8-2.9.5-1.7-.4-2.7.1-4 2-1.2 1.8-2.1 2.3-3.3 1.8-.9-.4-3.5-1-5.7-1.3-3.1-.5-4.3-1.2-5.4-3.6-.8-1.7-2.6-4.4-4.1-6.1-1.5-1.8-3.1-4.9-3.5-7-1-5.4-1.4-5.8-3.7-3.7-2 1.7-2 1.7-1.5-.2.3-1.1 1.1-4.4 1.7-7.3 1.4-6.1 2.6-7.3 3.9-3.9 1.4 3.7 3.7 4 6.4.7 2.3-2.6 2.6-2.7 4.1-1.2 2.5 2.5 4.4-.2 4.8-6.8l.3-5.5h-3.2c-1.8 0-3.3-.1-3.3-.2s1.5-1.1 3.4-2.2c4.1-2.5 6-2.7 5.2-.5-.6 1.7 1.9 5.4 3.6 5.4.5 0 2-2.5 3.4-5.6 1.4-3.1 4.2-7.2 6.3-9.1 2.2-1.9 4.2-4.7 4.6-6.1.8-3.3 5.2-10.2 6.4-10.2.6 0 1.3 1 1.7 2.2zm62.6 4.3c.9 1.1 1.7 3 1.8 4.2 0 2.4 1.5 3.2 2.2 1.2.6-1.9 4.8 0 6 2.7.6 1.3 2.4 2.9 3.9 3.6 1.5.7 2.5 1.6 2.3 2-.3.4-.1.8.5.8.5 0 1.2 1.3 1.6 3 .4 1.6 1.2 3.3 1.9 3.7 2 1.3 2.8 4.3 1.1 4.3-.8 0-1.5.4-1.5.9 0 1.2 2.5 2.1 5.8 2.1 2.7 0 6.2 2.5 6.2 4.4 0 .6 1.4 1.7 3 2.4 1.7.8 3.3 2.4 3.6 3.8.7 2.9-.3 4.5-1.6 2.4-.5-.8-1.2-1.1-1.6-.7-1 1 1.6 3.8 2.9 3 .5-.3 3.2-.5 5.8-.4 4 .1 5-.2 6-2 1-2 1.2-2.1 2.1-.5.5.9.6 2.6.3 3.7-.5 1.5-.4 1.9.5 1.4 1.4-.8 5.8 3.1 7.1 6.2.4 1.2.9 13.4 1 27 .2 24.5.1 24.9-2.6 33.3-1.5 4.7-2.8 10.1-2.9 12-.1 3.7-1.7 6-5.4 7.9-3.3 1.7-3.6.9-1.2-3.1 2.7-4.7 3.8-10.5 5.5-29.2 1.7-18.8 3.2-30.5 4-32.7.3-.9-.1-2.1-.9-2.8-3.6-3-6.1 7.2-7.1 28.9-.7 13.5-2.9 28-5.1 32-.7 1.4-2.4 3.8-3.8 5.5l-2.5 3-.1-3c0-1.7-.6-4.2-1.4-5.6-.9-1.7-1.2-4.4-.9-7.2.6-5.4-1.1-7.1-3.8-3.8-2.9 3.5-3.4 8.5-1.3 12.9 1 2 2 5.5 2.3 7.7.8 5.1 3.3 5.6 8 1.5 4.3-3.8 5.2-3.2 1.1.8-1.7 1.7-3 4.1-3 5.5 0 2.5 0 2.5-10 2.3-5.5 0-10-.2-10-.2 0-.1.7-1.8 1.5-3.7 2.2-5.4 3.6-37.8 2.2-52.7-.3-3.6-.3-5.3-.1-3.8.4 1.9 1.1 2.8 2.4 2.8 3.9 0 3.7-8.9-.2-11.4-2.3-1.4-4.6 0-7.1 4.3-1.8 2.9-1.8 3.5-.3 11.1 1.3 6.3 1.5 11.4 1.1 24.7-.8 21.7-1.6 25.4-6.4 29.2-4.1 3.2-10.4 5-11.6 3.2-.3-.7-1.3-6.2-2.2-12.4-1.5-11.5-1.1-31.4.8-38 1.3-4.7-.6-5.9-3.7-2.4-2.4 2.8-2.4 2.8-2.4.5 0-1.3-.2-7.9-.5-14.8-1.1-31.5-1.6-67.5-.9-77.3l.7-10.8 2.5 2.3c1.4 1.3 3.4 3.2 4.4 4.3zm-76.4-3.7c.8.6.2.9-1.7.9-1.7 0-2.8-.4-2.5-.9.7-1 2.5-1 4.2 0zm-181.2 4.3c12.6 1.7 23.8 9.3 31.5 21.2 7 10.8 7.8 27.3 2.1 40-5.6 12.3-16.8 21.8-29.7 25.2-6.5 1.6-21.5 2-24.3.6-.9-.5-4.6-2.1-8.2-3.5-16-6.5-26-21.4-26-39 0-14.4 6.7-27.9 18.2-36.4 5.9-4.3 9.1-5.8 17-7.7 6.9-1.7 10-1.7 19.4-.4zM250 327c0 .5-.4 1-.9 1-.6 0-1.3-.5-1.6-1-.3-.6.1-1 .9-1 .9 0 1.6.4 1.6 1zm39.6 2.8c-1.7 1.6-1.8 1.6-.5-.5.7-1.2 1.5-2 1.8-1.7.3.2-.3 1.2-1.3 2.2zM112 346.5c0 .8-.6 1.5-1.4 1.5-.8 0-1.6-.7-2-1.5-.4-1 .1-1.5 1.4-1.5 1.1 0 2 .7 2 1.5zm15.7 6.2c1.8 2.3 2.5 2.5 4.5 1.6 3.1-1.3 4.5-.7 6.3 2.8 2 3.7 1 7.8-2.1 8.9-1.5.6-2.4 1.8-2.4 3 0 1.1-.6 2.9-1.2 4-1 1.5-1 2.7-.1 5.1 1.5 4 1.3 4.4-4.2 6.4-3.1 1.2-4.7 2.5-5.3 4.5-.8 2.2-1.5 2.6-3.8 2.3-2.1-.3-4.6.6-8.8 3.1-3.3 2-6.3 3.6-6.7 3.6-.5 0 .5-2.1 2.1-4.8 5.1-8.1 7.2-15.7 7.1-25.1 0-4.7-.3-9.8-.7-11.6-1.3-7.1 10.3-10 15.3-3.8zm305.3 1.5c0 1.6-2 .7-3-1.2s-1-2 .9-.8c1.2.7 2.1 1.6 2.1 2zm-170.5 18.5c2.7 1.9 2.8 2.2.9 2.2-2.4.1-10.4-6.9-10.4-9.1 0-1.1 1-.6 3.3 1.5 1.8 1.8 4.6 4.2 6.2 5.4zm8.5-4.6c0 .6-.7.6-2-.1-1.1-.6-2-1.5-2-2.1 0-.6.7-.6 2 .1 1.1.6 2 1.5 2 2.1zm139.5.9c.3.5-.3 1-1.5 1s-1.8-.5-1.5-1c.3-.6 1-1 1.5-1s1.2.4 1.5 1zm-148.7 11.2c.7.9.7 1.9.2 2.8-.8 1.3-1 1.2-1-.3 0-1-.7-2-1.4-2.3-.8-.3-2.7-2.2-4.3-4.2l-2.8-3.7 4.1 3.2c2.3 1.8 4.6 3.8 5.2 4.5zM156 386.9c.8 1.6.6 2.3-1.2 3.5-2.9 2-5.4 2-6.2 0-1.7-4.3 5.2-7.6 7.4-3.5zm-11 10.2c-1.2 2.2-3 2.5-3 .6 0-1.7 2.1-3.8 3.2-3.1.4.3.3 1.4-.2 2.5zm-19.6.9c6.4 3.1 10.6 13 10.6 25.2 0 10-2.2 15.3-9.1 22.3-3.2 3.3-5.9 6.8-5.9 7.7 0 2.9-3 8.9-4.8 9.4-.9.3-2.5 1-3.4 1.5-1.6.8-1.6.6-.6-1.9.7-1.5 2-3.5 3-4.5s1.8-2.6 1.8-3.7c0-1 .4-2.1 1-2.5.5-.3.7-1.2.3-2-.4-1.1.3-1.5 2.6-1.5 1.7 0 3.1-.5 3.1-1 0-1-1.4-1.4-3.9-1.1-.7.2-1-.3-.6-.9.4-.6-.1-2-1.1-3.1s-1.2-1.9-.6-1.9c.7 0 1.2.5 1.2 1.1 0 .5.5.7 1 .4 1.3-.8 1.3-6.2.1-6.9-.5-.4-1.3.6-1.9 2.1-.8 2.7-.9 2.6-1.6-1.9-.4-2.7-.5-5.2-.1-5.7.3-.6-.4-1.5-1.5-2.1-1.1-.6-1.8-1.5-1.5-2 .3-.5-.2-1.3-1.1-1.8-1.1-.6-1.3-1.2-.6-1.6.6-.4 1.9.6 2.9 2.1 4.3 6.6 9.3 8.4 9.3 3.3 0-1.7-.4-3-1-3-.5 0-1.2-1.1-1.6-2.5-.3-1.4-1.3-2.5-2.3-2.5-.9 0-2.2-.5-2.8-1.1-1.2-1.2-7.4-.8-10.5.5-1.3.6-1.8.4-1.8-.7 0-.9-.7-2.3-1.6-3.2-1.3-1.3-1.5-2.4-.8-5.7.8-3.4 1.6-4.4 5.9-6.6 2.8-1.5 6.1-3.5 7.5-4.5 3.2-2.2 5.4-2.2 10.4.3zm187.6 2c0 .5-.4 1-1 1-.5 0-1-.5-1-1 0-.6.5-1 1-1 .6 0 1 .4 1 1zm-151.5 20.1c1.6 1.9 2.4 3.8 2 4.8-.4.9-.9 2.8-1.2 4.4-.5 2.5-.8 2.7-4 2.1-2.9-.6-3.5-.3-4 1.5-.6 2.5-1.1 2.6-3.4.5-1.7-1.5-2.1-1.5-5.3.5-1.9 1.2-4.4 3.4-5.5 4.9l-1.9 2.7 1.5-7c.8-3.9 1.9-7.7 2.4-8.5 4.9-8.1 5.9-8.8 12.6-8.9 3.4-.1 4.6.4 6.8 3zM54 419.4c0 .7-.6 1.9-1.4 2.5-1.1.9-1.5.8-2-.5-.3-.9-.4-2 0-2.5.8-1.4 3.4-1.1 3.4.5zm35.8 1.2c2.8 2 2.9 4.4 0 4.4-1.7 0-1.9.3-1 1.2.9.9.8 1.5-.3 2.8-1.4 1.5-1.1 6 .5 6 .4 0 1.9 1.2 3.3 2.6l2.6 2.6-.5-3.4c-.5-2.8-.2-3.5 2-4.4 2.8-1.3 3.6-.9 3.6 1.8 0 1.2-.7 1.8-2.2 1.8-1.7 0-1.9.3-1 1.2 2 2 1.5 6.8-.6 6.8-2.6 0-3.4 1.1-2.1 2.7.6.7.9 1.3.6 1.3-.3 0 .1 1.6.9 3.5 1.8 4.3 1.8 4.3-.3 4.1-1.4-.1-1.7.5-1.5 2.4.3 2 .2 2.2-1.1 1.2-.8-.7-1.3-2.2-1-3.2.3-1.2 0-2-.7-2-.9 0-.7-.7.5-2 1.8-1.9 1.7-2-.1-2-1.1 0-2.6-.6-3.3-1.3-1-1-1.1-.9-.6.3.6 1.6-2.8 6-4.5 6-.6 0-1-.2-1-.4s-.3-1.2-.7-2.2c-.4-1.2-.3-1.5.5-1 .7.4 1.2.1 1.2-.8s.7-1.6 1.5-1.6 1.5-.9 1.5-2c0-1.7-.3-1.9-1.9-1.1-1 .6-2.2.7-2.6.3-.5-.4-.5.1-.2 1 .7 2-.3 2.4-2 .7-1.3-1.3-3.6-.2-2.7 1.3.4.6-.1.8-1.5.3-1.2-.3-2.1-.2-2.1.3 0 .6.5 1.2 1.1 1.4 1.4.5 0 3.8-1.7 3.8-.8 0-1.4-.8-1.4-1.8 0-.9-1.8-3-4-4.5-3.5-2.5-4-3.3-3.7-6.3.1-2.2.6-3.3 1.5-2.9.6.2 1.2-.2 1.2-1s-.5-1.5-1.1-1.5c-.7 0-.9-1.1-.6-2.7.3-1.5.1-3.6-.5-4.7-1.9-3.6.5-6.4 6.1-7.2 2.8-.4 5.6-1.3 6.2-2 1.6-1.9 10.9-1.8 13.7.2zm19 8.6c.5.7.9 3.5.9 6.3 0 2.7-.2 4.3-.5 3.5-.3-.8-.8-1.7-1.2-2-1-.7-2-9-1-9 .4 0 1.2.6 1.8 1.2zm206.2 9.4c0 3-.3 5.3-.7 5.1-.8-.5-.5-10.7.3-10.7.2 0 .4 2.5.4 5.6zm-147.4-1.3c5.2 3 7.4 5.5 7.4 8.5 0 1.6.7 4.6 1.6 6.7.9 2.2 1.3 4.9.9 6.5-.9 3.9.9 6.7 5.1 8.5 2 .8 3.3 1.9 2.9 2.5-1.3 2.1-5.3.8-11.9-4-10.9-8-24.2-11.1-38.8-9.1-5 .6-9.3.9-9.6.6-1.8-1.7 6.7-5.5 12.5-5.5 1.9 0 5.1-.9 7.2-1.9l3.8-2 2.8 3c3.1 3.1 6.9 3.8 7.9 1.4.4-1.1-.6-2.2-2.9-3.6-4.2-2.5-4.5-5.1-1.1-9.3l2.4-2.9 1.6 3c2.9 5.8 8.1 5.1 5.9-.7-1.2-3.3-.9-3.5 2.3-1.7zm-20.8 4.3c-.7 1.5-1.9 2.9-2.6 3.2-.8.2-.4-1 1-3.1 2.6-4.1 3.6-4.1 1.6-.1zm-35.9 1c.5.5-3 4.4-3.9 4.4-.4 0-.7-1.3-.6-3 .1-2.5.4-2.9 2.1-2.4 1.1.4 2.2.8 2.4 1zM396 448c0 2.2 1.4 6.1 3.5 10 4 7.5 4.4 9.6 1.6 8.1-3.6-2-4.5.9-3.7 11.9.4 5.5 1.2 11.3 1.8 13 1.3 3.8.5 43.8-1 52-3.4 18.4-3.6 20.9-1.6 23.1 1 1.2 2.9 2.5 4.2 3 1.8.7 2.2 1.6 2.2 5.3 0 4.7 1.7 7 4.3 6 1.3-.5 1.5-1.6 1.1-5.2-1-8.5-1.3-9.1-5.1-10.7-4-1.7-3.9.1-1.3-18 2.6-18.6 3.3-43.4 1.6-59-.4-4.4-.5-7.7-.1-7.3.4.3 1.8 4.8 3.1 10 2.4 9 2.4 9.7 1.4 25.2-.6 8.8-.8 18.2-.5 20.8.4 2.7.7 6.5.7 8.5 0 4.9 2 9.1 6.2 13.5 3.5 3.6 4.7 6.8 2.5 6.8-1.6 0-4 6.7-3.4 9.3.4 1.5.1 2.8-.9 3.6-2.1 1.8-2.1 5.1 0 5.1.9 0 2.2-.7 2.9-1.7 2.5-3.4 3.3-.3 3.4 13.5.1 7.5.6 16.4 1.1 19.7.5 3.3 1.2 11.9 1.5 19.2.7 14.6 1.4 18.1 4.4 21.9 1.2 1.5 2.1 3.3 2.1 4 0 .8.4 2.2 1 3.2 2.5 4.4 5.9 29.5 5.9 44.5.1 12.5.6 11.9-11.7 13.7-6.2.9-7.9.8-10.5-.5-1.6-.8-4-1.5-5.2-1.5-3 0-9.1-6.7-11-12-.9-2.5-2.3-10.7-3-18.2-.8-7.5-1.9-14.8-2.5-16.2-1.3-3.6.3-3.3 3.3.5 1.6 2.1 3 3 4.1 2.6 2.5-1 .2-5.7-5.8-12-2.8-3.1-5.9-7.1-6.8-8.9-4.7-9.7-17.8-47.4-17.8-51.4 0-1.4 5-3.1 12-4 2.5-.3 6.2-1.2 8.3-2 2-.8 4.8-1.4 6.1-1.4 2.5 0 13.2-6.6 14-8.7.7-1.6-4.2-4.1-6.9-3.5-1.1.2-3.3 1.6-5 3.1-4.1 3.8-13.2 6.7-17 5.4-3.3-1.1-4.3-3.5-5.5-13.2-.9-7.2-3.6-11.7-6.9-11.4-4.2.5-5.5-8.6-3.1-21.7 1.8-9.4 1.9-19.5.3-21.2-2.3-2.2-3.6.7-3.8 8.4-.1 4-.7 10-1.3 13.3-2.4 12.2-1.2 21.3 3 24.7 2 1.5 2.1 1.9 1 6.7-.9 4.1-.9 6.2.3 10.6 1.2 4.9 1.2 8.5-.2 8.5-.2 0-2.4-.9-4.8-2-4.1-1.9-4.4-2.3-5.1-6.7-.3-2.7-1.8-7.7-3.1-11.3-2.9-7.8-3.1-11.6-1-24 3-17.8 4-29 3.3-38.3-.7-9.6-1.7-12-3.8-9.8-.9.8-1.3 4.8-1.4 11.9-.1 12-1.4 24.7-4 38.3-1.9 10-1.6 13.7 2.6 28.1 1.3 4.2 2 8.2 1.8 9-.4 1-2 1.2-6.3.8l-5.7-.5-2.6-6.5c-1.9-4.9-2.5-8.5-2.6-14.7-.1-4.6-.6-8.7-1.2-9.3-1.4-1.4-4.1-.3-4.8 1.8-.3 1-.3-1.4 0-5.2.3-3.8.9-7.8 1.5-8.8 1.2-2.3-.5-5-2.6-4.2-2.1.8-4.5 8.1-4.8 14.6-.2 3.2-.7 6.1-1.1 6.5-1 1 .6-67.9 2-84.5.5-6.4.8-7.1 2.1-6 1.8 1.4 8.7 3.5 14.8 4.5 2.2.3 4.5 1 5.2 1.5.7.6 1.9.5 3.1-.1 1.4-.7 4.1-.7 8.8 0 11.4 1.7 12.8 1.6 13.2-.5.2-1.1 1-2.6 1.8-3.4.8-.7 1.4-1.9 1.4-2.7 0-1.7 2.8-2.8 6.2-2.6 2 .2 2.8-.3 3.3-2.1.4-1.3 2.3-4.4 4.1-7.1 1.9-2.6 3.4-5.6 3.4-6.7 0-1.2.9-3.8 2-6s2-4.8 2-5.8c0-2.7.9-3.3 3.1-1.9 1.3.8 1.9 2.3 1.9 4.7zm11.4 2.2c-.5.8 1.5 5.7 3.3 7.9 1.5 1.7 5.6 17 4.8 17.7-.3.3-.5-.2-.5-1.1 0-2-2.8-2.3-3.6-.4-.2.7.4 4 1.5 7.3 1 3.4 2.4 9.6 3.1 14 .6 4.3 1.8 11 2.6 14.9.8 3.8 1.6 12.2 1.8 18.5.5 12.6 1.8 20.7 4.1 25.3 3.6 7.2.9 8.1-5.4 1.9-4.3-4.5-5-5.7-6-11.6-1.4-8-1.6-20.6-.6-34.7.7-9.7.5-11.8-2.1-22.9-2.6-11.3-2.7-12.3-1.1-13.2 2.6-1.4 2.1-3.6-2.8-13.7-3.4-7.1-4.5-10.3-4.3-13.2l.3-4 2.7 3.3c1.4 1.8 2.4 3.6 2.2 4zm-295.5-.6c-1.1 1.4-1.1 1.8-.1 2.2 1 .3 1 .9-.3 2.8-.8 1.3-1.7 3.8-1.9 5.6-.3 1.8-.5 3.5-.5 3.8-.1.3-.7-.6-1.5-2-.7-1.4-.9-3-.4-3.6.4-.6.5-1.3.2-1.7-1-1 .7-4.8 1.8-4.1.8.5.9.1.5-1-.9-2.4 1.1-6.2 2.6-4.7.7.7.6 1.5-.4 2.7zm173.4.8c.3.8-.2 2.1-1.2 3-1.7 1.6-1.9 1.5-2.3-.8-.6-3.2 2.4-5 3.5-2.2zM61 459.8c1.5 4.8.7 6.6-1.6 3.4-.8-1.2-2.4-2.2-3.4-2.2-1.6 0-1.7-.3-.7-2.3 3.1-5.8 3.5-5.8 5.7 1.1zm40.4-4.2c.8 2.2.8 2.4-.8 2.4-1.8 0-2.9-1.6-2.1-3 .9-1.5 2.2-1.2 2.9.6zm-22.2 4.6c-.9.9-1.2.7-1.2-1.2s.3-2.1 1.2-1.2c.9.9.9 1.5 0 2.4zm213.4-1.8c1.2 1 1.6 1.8.9 2.5-.7.6-1.6.1-2.8-1.5-2-2.7-1.1-3.2 1.9-1zm-209.6.5c0 .6-.4 1.3-1 1.6-.5.3-1-.1-1-.9 0-.9.5-1.6 1-1.6.6 0 1 .4 1 .9zm6 .6c0 .8-.4 1.5-1 1.5-.5 0-1-.7-1-1.5s.5-1.5 1-1.5c.6 0 1 .7 1 1.5zm16-1.1c0 .3-.4.8-1 1.1-.5.3-1 .1-1-.4 0-.6.5-1.1 1-1.1.6 0 1 .2 1 .4zm-6.5 2.6c.3.5.1 1-.4 1-.6 0-1.1-.5-1.1-1 0-.6.2-1 .4-1 .3 0 .8.4 1.1 1zm2.9.6c.3.8.2 1.2-.4.9-.6-.3-1-1-1-1.6 0-1.4.7-1.1 1.4.7zm212.9.7c.3.8.1 2-.4 2.8-.6 1-.9.7-.9-1.4 0-2.9.5-3.5 1.3-1.4zm9.7 6.1c-1.7 1.7-3.1-.7-2.4-4.3l.7-3.3 1.4 3.3c.9 2.2 1 3.6.3 4.3zm-267.1-4.5c1.4 2.5.1 3.5-1.5 1.3-1.6-2-1.7-3.2-.4-3.2.5 0 1.4.8 1.9 1.9zm98.2-.5c15.9 4.8 27.1 15.7 32.4 31.5 5.9 17.4 1.6 34.9-11.7 47.8-14.5 14.1-36.9 17.6-55.7 8.5-7.5-3.6-17.9-14-21.4-21.5-14.6-31.2 9-67.6 43.8-67.7 4.4 0 10.1.6 12.6 1.4zM91 464c0 .5-.2 1-.4 1-.3 0-.8-.5-1.1-1-.3-.6-.1-1 .4-1 .6 0 1.1.4 1.1 1zm8.8 2.4c.3 2 0 2.7-1 2.4-.7-.3-1.4-1.7-1.6-3.2-.3-2 0-2.7 1-2.4.7.3 1.4 1.7 1.6 3.2zm277.2-1.3c0 .6-.5 2-1.2 3.2-1.1 2.1-1.1 2.1-1.8.2-.8-2 .5-4.5 2.1-4.5.5 0 .9.5.9 1.1zM61 471c-.7 1.6-1.6 3-2.1 3s-.1-1.5.9-3.4c2.1-4.1 3-3.9 1.2.4zm-13.7 1.3c-.2.4-1.3.2-2.4-.3-1.6-.9-2.1-.7-2.8 1.3-1.6 4.1-6.7 5.2-5.7 1.2.5-2.1.3-2.5-1.6-2.5-1.7 0-1.9-.3-1-1.2.8-.8 2.1-.9 4.5-.1 2.8.8 3.7.7 5.7-.9 2.3-1.9 2.4-1.9 3.1-.1.4 1 .5 2.1.2 2.6zm32.1-2.2c5.7 2.8 9.6 8.2 9.6 13.1 0 4-.9 4.7-3.3 2.4-.8-.8-2.2-1.4-3.2-1.3-1.2.2-1.9-.6-2.2-2.6-.4-3.1 1.3-3.7 2.2-.7.3 1.1 1.1 2 1.6 2 1.5 0 1-2-1.1-4.2-1.1-1.2-1.9-2.9-1.8-3.7.2-.9-.4-1.6-1.2-1.7-.8 0-2.8-.7-4.4-1.4-2.5-1.3-3-1.2-4.2.5-1.3 1.7-1.6 1.8-2.4.5-1.1-1.9 1.5-5 4.3-5 1.1 0 3.8.9 6.1 2.1zM50 473.4c0 .3-.4.8-1 1.1-.5.3-1 .1-1-.4 0-.6.5-1.1 1-1.1.6 0 1 .2 1 .4zm51 .6c0 .5-.4 1-.9 1-.6 0-1.3-.5-1.6-1-.3-.6.1-1 .9-1 .9 0 1.6.4 1.6 1zm263.1 2.6c1.7 2.1.3 2.9-2.6 1.6-1.4-.7-4.1-1.2-6-1.2-4.2 0-4.6-1.5-.7-2.8 3-1 7.4.1 9.3 2.4zm-296.3-.8c.2.7-.6 1.2-1.7 1.2-2.1 0-2.7-1.1-1.4-2.4.9-.9 2.6-.2 3.1 1.2zm8.1 4.3c-1.1.7-1 1.1.6 2.4 2 1.6 2 1.6-.2 1.2-1.3-.3-2.6-.1-2.9.4-.3.5-1 .9-1.6.9-1.2 0-.1-5.3 1.3-5.8.5-.2.9-1 .9-1.9 0-1.2.3-1.2 1.7.2s1.4 1.8.2 2.6zm201.2 2.6c-1.1 2.1-2 3.2-2.1 2.5 0-1.7 3-7.5 3.6-6.9.3.3-.4 2.2-1.5 4.4zm-227 3.1l.1 2.7 1.1-2.8c1.1-2.6 3-3.3 6.1-2.1 1.9.7 2.2 3.4.4 3.4-.9 0-.9.3 0 1.2.7.7 1.2 2.2 1.2 3.5 0 1.6.6 2.3 1.8 2.3 1 0 2.1.3 2.5.6.9 1-2.2 6.4-3.5 6.1-.6-.1-1.4.9-1.8 2.3-.4 1.6-1.3 2.5-2.5 2.5-1.1 0-2.3.8-2.8 1.9-.6 1.5-1.4 1.7-4.1 1.2-2.5-.5-3.5-.3-4 .9-.3.8-1.1 1.4-1.8 1.3-.6-.2-1.4.6-1.6 1.6-.3 1.5 0 1.7 1.4 1.2 1.8-.6 1.8-.5 0 .8-1.1.9-1.6 2.2-1.2 3.1.3.9-.1 2.7-1 4.1-1.1 1.5-1.2 2.4-.5 2.4.6 0 1.4-.7 1.7-1.5.8-2 3-1.9 3.9.2.8 2.3-3.1 5.6-5.6 4.8-1.1-.4-1.9-.2-1.9.4 0 .6-.6 1.1-1.4 1.1-.8 0-1.6.4-1.8 1-.1.5-1.3.7-2.6.4-2-.6-2.2-1.1-1.6-4.3.4-2 1.3-5.2 2.1-7 .7-1.9 1.1-4.1.8-4.9-.3-.8.3-1.6 1.4-1.9 1-.2 2.4-1.6 3-3 1-2.1 1.4-2.3 2.7-1.2 2 1.6 3.3.2 3.9-4 .3-2.8.1-3.2-1.5-2.8-1.1.3-2.1-.1-2.5-1.1-.3-.8-.8-1.2-1.2-.9-.3.4 0 1.3.6 2.1.7.8 1 2 .6 2.6-1.1 1.8-2.5 1.1-2.5-1.4 0-1.4-.4-2.8-1-3.1-1.5-1-1.2-2.3.8-2.8 1.4-.4 1.3-.6-.6-1.2s-2.2-1.2-1.7-3.4c.6-2.4.6-2.5-1.2-.8-1.5 1.3-2.2 1.4-3.1.5-1.4-1.4-1.6-5.2-.2-4.3.6.3 1 0 1-.8 0-2.8 5.5-4.4 13.1-3.9 4.5.4 4.9.6 5 3zm224 3.5c-1 .9-1.1.8-.5-.6.3-1 .9-1.5 1.2-1.2.3.3 0 1.1-.7 1.8zm-187.4 3.4c3.8 2.9 3.7 2.2 1.5 12.9-.5 2.3-.6 6.5-.2 9.4.6 4.5.4 5.6-1.2 7.2-1.7 1.7-1.8 2.8-1.3 8.1.6 5.9.5 6.4-2.4 10.1-3.9 4.9-8.5 7.8-12 7.5-5.1-.4-7 .1-10 2.7l-3.1 2.6-2.6-2.1c-1.5-1.2-3.8-2.1-5.3-2.2-2.3-.1-2.2-.2.9-1 1.9-.6 4.2-1.9 5.2-3 .9-1 2.3-1.9 3.2-1.9 1 0 1.3-.6 1-1.5-.4-.9 0-1.5 1-1.5.9 0 1.6-.5 1.6-1.1 0-1.2-2.5-.6-8.9 2.3-2.4 1.1-6 2.2-8 2.5-4.6.8-10 4.3-14 9.3-3.7 4.6-5.5 5.2-4.1 1.5.5-1.4 1.3-6.1 1.6-10.5.4-4.4 1.1-8 1.5-8 .5 0 .9.9.9 2 0 2.2.8 2.4 4.4 1.1 1.4-.6 2.6-1.9 2.8-3.3.2-1.2 1.8-3.3 3.7-4.5 4-2.7 5.1-2.9 5.1-.8 0 1.9.5 1.9 3.5-.1 1.3-.9 2.9-1.3 3.4-1 1.6 1 5-3.5 5.6-7.3 1-5.8 1.4-7.5 2.5-9.1.8-1.3 1.2-1.2 2.5.7 2 2.9 3 2.9 6-.2 3-2.9 3.2-6.4.5-9.8-2.3-2.9-2.5-3.9-.7-3.6 2.8.3 3.6-.3 4.8-3.9 2.3-7.1 4.8-7.9 10.6-3.5zM312 498c0 .5-.2 1-.4 1-.3 0-.8-.5-1.1-1-.3-.6-.1-1 .4-1 .6 0 1.1.4 1.1 1zm-42 4.7c-1.1 1.7-1.1 1.7-.6 0 .3-1 .6-2.4.7-3 0-.9.2-.9.5 0 .3.7 0 2-.6 3zm-241.8 2.4c-1.1 2.8-2.6 2.9-3 .1-.3-1.7.2-2.2 1.7-2.2 1.6 0 1.9.4 1.3 2.1zm239.9 2.6c-1.2 2-1.4 1.4-.5-1.2.4-.9.9-1.4 1.1-1.1.3.2 0 1.3-.6 2.3zm156.3.8c.3.8.1 1.5-.4 1.5-.6 0-1-.7-1-1.5s.2-1.5.4-1.5.6.7 1 1.5zm-396.8 2.7c.4 1.3.8 3 .9 3.8.1.8.5 2.3.9 3.2 1 2.1-1.3 6.6-2.4 4.8-.4-.7-1.3-.9-1.9-.6-.6.4-1.1.2-1.1-.3 0-.6.9-1.1 2-1.1 1.9 0 2-.4 1.4-3.8-.7-3.5-1.8-5.2-3.8-5.2-.5 0-.6 1.9-.3 4.2.5 4.1.5 4.2-.8 1.7-1.6-2.9-.9-6.9 1.1-6.9.8 0 1.4-.5 1.4-1 0-1.9 1.9-1 2.6 1.2zm4.4-.7c0 .8-.4 1.5-1 1.5-.5 0-1-.7-1-1.5s.5-1.5 1-1.5c.6 0 1 .7 1 1.5zm232 12.6c-3.6 14-3.8 24.1-.7 26.4 2.3 1.6 2.1 3.2-.3 4-1.1.4-2.8 1.7-3.6 3.1-2.3 3.4-3.4 3-3.4-1.5 0-2.2-.6-4.4-1.5-5.1-.8-.7-1.5-2.1-1.5-3.1 0-1.9 5.8-19.8 6.9-21.4.4-.6 2-4.3 3.6-8.3 1.5-3.9 3-7 3.2-6.8.2.2-1 5.9-2.7 12.7zm162.7-8.5c.1 1.8 0 2.2-.4.9-.3-1.1-1-2.6-1.7-3.4-.9-1.1-.8-1.3.4-.9.8.2 1.6 1.8 1.7 3.4zM51 516.1c0 .4-.6 1-1.2 1.3-1 .5-1 .7-.1 1.2.9.4.8 1.2-.4 3l-1.6 2.5-1.8-2.7c-1.9-3-1.6-4.9.7-4 .8.3 1.4 0 1.4-.8 0-.7.7-1.3 1.5-1.3s1.5.4 1.5.8zm-32.5 12c.2.3-.1 2.2-.7 4.2-.9 2.8-.8 4.3.1 6.3.6 1.5.9 2.9.6 3.2-.8.9-2.8-1.5-3-3.6 0-1.1-.9-2.7-1.8-3.6-.9-1-1.7-3-1.7-4.5 0-2.5.3-2.8 3-2.6 1.7.1 3.2.4 3.5.6zm420.1 0c.3.6.2 1.5-.4 2.1-.6.6-1.1.2-1.5-1.1-.5-2.2.7-2.9 1.9-1zm-159.1 9c-.7 6.8-.8 7.1-2.1 4.8-.7-1.3-1.3-3.2-1.4-4.1 0-2 3.1-9 3.8-8.3.2.2.1 3.6-.3 7.6zm153.9 11.8c.1 4.4-1.9 5-3.9 1.2-.8-1.7-1.3-3.1-1.1-3.1.3 0-.1-1.9-.9-4.1-.8-2.3-1.5-6-1.4-8.3l.1-4.1 3.5 7.5c2 4.1 3.6 9 3.7 10.9zM26.5 533c.3.6-.1.7-.9.4-1.8-.7-2.1-1.4-.7-1.4.6 0 1.3.4 1.6 1zm-1.5 3.4c0 .8.3 2.3.6 3.3.5 1.6.4 1.6-1-.1-1.8-2.2-2.1-4.6-.6-4.6.6 0 1 .6 1 1.4zm186 3.6c0 .5-.7 1-1.5 1s-1.5-.5-1.5-1c0-.6.7-1 1.5-1s1.5.4 1.5 1zm101.1 8.3c-1.3 1.3-1.5-4.1-.3-7 .5-1.3.8-.8 1 2.1.2 2.1-.1 4.3-.7 4.9zM179 550.5c0 .9-.9 1.5-2.1 1.5-1.8 0-1.9-.2-.9-1.5.7-.8 1.6-1.5 2.1-1.5s.9.7.9 1.5zm-72 2.6c4.6 2.1 6 3.4 6 5.8 0 .8-.6 1.1-1.6.7-.9-.3-2.9.2-4.5 1.1-3 1.8-3 1.8-4.9-.7-1-1.3-1.6-2.8-1.4-3.2 1.1-1.7-2.9-2.1-4.1-.5-1.4 1.9-4 2.2-5 .7-.4-.6-.3-1 .2-.9 2.1.4 3.3-.2 3.3-1.6 0-2.6-2.8-1.6-4.1 1.4-1.5 3.5-2.8 3.2-2.2-.3.9-4.7 10.6-6 18.3-2.5zm205.1 4.2c-.4 7.4-1.1 7.2-1.1-.3 0-3.5.3-6 .7-5.6.4.3.6 3 .4 5.9zm-267.1-1c0 3.4-.7 5-1.9 4.2-1-.6 0-7.5 1-7.5.5 0 .9 1.5.9 3.3zm122.9 2.4c-1.2 2.1-2.4 4-2.6 4.2-.1.2-1.2-.4-2.3-1.4-2-1.8-2-1.9 1.7-4.1 5.3-3.1 5.8-2.9 3.2 1.3zm112.7 11.5c-.9 7-1.9 8.5-3 4.5-1-3.8-.7-6.7.9-7.3 1.1-.4 1.5-2.3 1.6-6.3.2-5.2.2-5.3.8-1.6.3 2.2.2 7-.3 10.7zm-90.8-8.5c7.5 8.5 7.8 8.8 10.9 8.8 1.7 0 3.5-.3 3.9-.8 1.6-1.6 5.7-.5 8.5 2.2 4.9 5 4.1 6-4.5 5.4-12.8-1-27.3 3.3-36.7 10.8-4.7 3.7-14.3 15.4-15.3 18.7-.9 2.6-1.4 2.7-4.4.6-1.6-1.1-3.4-1.4-5.8-1-1.9.4-3.4.3-3.4-.1.1-2.2 2.8-8.2 5.3-11.4 3.2-4.2 4.7-8.8 4.7-14.2 0-5.2 2.9-6.5 9.4-4.3 6.3 2.2 7 2.1 10-1.5 3-3.5 3.2-5.1 1.1-7.3-3.1-3.1-1.7-6.7 3.5-9.1 5-2.2 8.9-1.2 12.8 3.2zM75 563.4c7.1 1.9 19.4 8.7 24.3 13.4 2.1 2 5.5 7 7.5 11 3.1 6.4 3.6 8.5 4 16.1.7 14.1-3 24.3-12.4 34.1-13.3 14-35.6 18.2-52.9 10.1-7.4-3.4-17.4-12.3-21.2-18.9-11.9-20.3-5.9-45.9 13.9-59.2 10.8-7.2 24.9-9.7 36.8-6.6zm25.4 2.1c.3.8.1 1.5-.4 1.5-.6 0-1-.7-1-1.5s.2-1.5.4-1.5.6.7 1 1.5zm44.3 2c1.5 1 2.3 2.5 2.3 4.4 0 1.5.3 6.2.6 10.4.7 7.5.6 7.6-2.4 10.6-4.1 4.1-5.2 3.9-5.2-.9 0-3.3.4-4 1.9-4 2.4 0 3.5-5.8 1.5-8-.9-1-1-2-.4-3 1.5-2.4 1.1-3.2-1-2-2.2 1.2-3.4 3.2-4.4 7.5-.5 2.1-.4 2.6.3 1.5.8-1.1 1.3-1.2 2.2-.3.8.8.6 1.3-.9 1.7-1.1.4-2.3 1.8-2.6 3.1-.4 1.4-1.1 2.5-1.7 2.5-1.3 0-.3-8.8 1.2-10.6.5-.6.7-1.9.3-2.8-.3-.9-.1-2.2.5-3 1.3-1.6.4-2.6-2.4-2.6-2.3 0-4.5-1.7-4.5-3.6 0-1.6 5.9-3.4 9.4-2.8 1.7.2 4 1.1 5.3 1.9zm-25.8-.6c1.6 1 .6 3.1-1.5 3.1-.8 0-1.4-.9-1.4-2 0-2.2.7-2.5 2.9-1.1zm192.2 12.9c-.8 1.3-1 .7-1.1-2.9 0-2.6.3-6.2.8-8 .6-3 .7-2.6 1 2.9.2 3.4-.2 7-.7 8zm-146-9.2c1.2 1.4 1.1 1.6-.5 1.3-1-.2-2.6-1.5-3.5-2.8-1.5-2.3-1.5-2.4.5-1.3 1.1.6 2.7 1.8 3.5 2.8zm154.8 5.2c-.3 6.9 1.8 10.7 6.2 11.7 2.8.6 2.9.8 1.5 2.4-.9 1-1.6 2.3-1.6 3 0 .9-1.1 1.1-3.9.6-3.1-.5-4-.3-4.5 1.1-.4 1-.2 2.2.3 2.7 1.1 1.1 13.5 1.2 25.2.2 8.4-.7 8.6-.7 14.2 2.5 4.2 2.3 5.9 3.9 6.3 5.8.5 2.6 7 21.7 13.4 39.6 1.8 4.9 4.3 10.7 5.6 12.8 1.4 2.1 2.2 4.3 1.8 4.9-.3.5-.1 1.5.4 2.2.5.7 1.2 3 1.5 5.2.3 2.2.9 5 1.3 6.2.6 2.2.3 2.3-4.3 2.3-6.2 0-16.7-4.1-20.9-8.2-4-3.7-10-5.9-13.2-4.7-1.3.5-3.8 2-5.6 3.4-6.9 5.2-23.6 11.3-27.7 10-1.8-.6-1.9-2-2.1-20.8-.5-36.6 0-60.1 1.3-62.8 1.1-2.1 2-12.1 1.9-19.7-.1-5.1.2-6.2 1.5-6.2 1.4 0 1.6 1 1.4 5.8zM115 572c0 1.9-3.2 6-4.6 6-.8 0-1.4-1-1.4-2.1 0-1.7.3-1.9 1.3-1 1.6 1.3 2.7.5 2.7-2.1 0-1 .5-1.8 1-1.8.6 0 1 .5 1 1zm18.4 4.5c-.7 1.7-2 2-2.8.6-.7-1 .3-2.1 2-2.1.8 0 1.1.6.8 1.5zm150.5 11.9c2.1 3.3 6.1 5.3 8.2 4 .6-.3 1.9.3 3 1.5s2.3 2.1 2.7 2.1c.4 0 .7 21.9.6 48.8-.1 29.5.3 50.2.9 52.4 1.3 4.8-.4 7.2-4.6 6.5-1.8-.2-4.6.4-7.1 1.8-3.6 1.9-8.1 3.2-17.8 5.2-1.6.3-4.7-.1-7.1-.8l-4.4-1.2-1.1-8.2c-1.1-8.6-.4-17 2.3-27 .8-2.8 1.9-7.9 2.6-11.5.6-3.6 2-8.1 3-10l1.7-3.5 1.1 2.8c.6 1.6.9 3.8.6 5-.3 1.2.1 3.1.9 4.2 1.4 1.9 1.6 1.9 3.1.4s1.6-2.4.5-8.8c-.8-4.3-2-7.7-3.2-8.7-1-1-1.8-2.5-1.8-3.4 0-1-.7-3.5-1.6-5.6-1.3-3.1-1.5-5.9-.9-16.3.4-6.9.9-14.4 1-16.6.1-3.8 2.3-18.6 3.1-21.3.6-2.2 11.9 4.2 14.3 8.2zm-63-2c18.5 6.7 29.8 24 28.9 44.4-.3 7.6-.8 9.7-4 16.5-9.9 20.7-32.5 31-53.8 24.7-13.4-4-23-12.4-29.2-25.5-4.1-8.9-5.1-21.1-2.3-29.6 5.1-16 16.7-27 32.8-31.4 6.5-1.7 21.5-1.3 27.6.9zm-95.6 4.8c.2.7-.2 2.8-.9 4.6-.7 1.8-1.1 3.9-.8 4.7.4 1 0 1.5-1.5 1.5-1.7 0-1.9-.3-1.1-2.3.5-1.2 1.1-3.9 1.5-6 .6-3.7 1.9-4.9 2.8-2.5zm12.6 12.2c-.5.6-.9 2-.9 3.3 0 1.8-.6 2.3-2.5 2.3-1.4 0-2.5.3-2.5.7 0 .5-1.3 1.7-2.9 2.8-1.6 1-2.8 2.3-2.5 2.7.7 1-2.8 2.6-4.6 2-2.6-.8-3.9-2.3-3.3-3.8.7-1.9 2.3-1.8 2.3.1 0 .8.4 1.5.9 1.5s1.2-2.5 1.6-5.7c.4-3.1.9-6.2 1.2-7 .9-2.3 3.1-1.4 3.8 1.6.4 2 1.2 2.9 2.4 2.8 1.8-.1 5.9-4.7 4.1-4.7-.5 0-1-.9-1-2.1 0-2.1 0-2.1 2.4.2 1.6 1.5 2.1 2.8 1.5 3.3zm-16.4 3.1c0 1.4-.3 2.5-.6 2.5-.9 0-1.8-3.7-1.1-4.4 1.1-1.2 1.7-.5 1.7 1.9zm29.8 5.7c1.7.9 2.5 1.9 2.2 2.9-1.3 4-2 14.8-1.3 18.9 1.3 7.1.5 8-2.6 3.1-2.5-3.9-2.9-4.2-4.3-2.8-1.7 1.7-.8 4.3 2.9 8.4 1.1 1.2 1.7 2.6 1.4 3.1-.3.5.1 1.5.9 2.2 1.2 1 1.7.8 2.6-1.3 1-2.3 1.3-2.1 5.3 5.6l4.2 8-3 6.1c-3.5 6.8-7.5 10.1-13.8 11.1-2.8.5-5.5 2-8.5 4.8-4.3 4-4.6 4.1-5.9 2.2-1.8-2.4-1.8-6.4.2-14.5.8-3.6 1.2-7.6.9-8.9-1.2-4.6-8.2-12.8-13.9-16-7.5-4.2-9.7-9.1-6-13.2.8-.9 1.7-2.4 1.8-3.3.1-.9 1.1-2.3 2.2-3.1 2.2-1.6 10.4-2 10.4-.5 0 .6 1.2 1.5 2.7 2.1 2 .7 2.3 1.3 1.5 2.1-3.3 3.3.5 5.3 4 2.1 1.1-1 1.8-1.2 1.8-.4 0 .6-.7 1.4-1.5 1.7-2.2.9-1.9 2.7.9 5.7 2.8 3.1 2.5 5.5-1.1 9.1-1.4 1.4-2.2 3-1.8 3.6 1.2 1.9 4.3 1 6.5-1.8l2.1-2.7-.6 6c-.3 3.3-.9 8.1-1.2 10.6-.3 3-.1 4.9.7 5.4 1.7 1 2.1.3 3.6-6.7 2.4-11.4 1.5-19.7-2.8-24.5-1.8-1.9-1.8-2.5-.8-5.5 1.1-3 1-3.7-1.3-7.1-2.5-3.7-2.6-3.9-.9-6.9 1-1.7 3.3-3.9 5.2-4.9 4.1-2.2 3.9-2.2 7.3-.7zM26 641.8c0 1.3-1.2 2.2-2.2 1.6-1-.6-.1-2.4 1.3-2.4.5 0 .9.4.9.8zm82.5 3.2c.3.5 1.6 1 2.7 1 6.2 0 17.8 11.7 17.8 17.8 0 3.6-3.5 13-5.6 15.2-1.1 1.1-1.4 1.1-1.4.1 0-1.1-.3-1.1-1.5-.1s-1.6.9-2-.2c-.5-1.2-2.5-1.5-5.4-.9-.2.1.2.7.8 1.5.7.8 1.6 2.7 2 4.3.5 1.5 1.2 3.7 1.7 4.7.6 1.5.4 1.8-.8 1.4-.9-.4-2.1-.1-2.7.5-1 .9-1.1.6-.6-1.6.7-2.7-.7-3.8-2.1-1.6-.9 1.5-.9 14.8.1 18.2 1 3.6-.8 5.6-5.9 6.4-3.1.5-4 .2-5.2-1.6-.8-1.1-1.8-2.1-2.3-2.1-1.2 0-3.4 10.1-3.4 15.7 0 5.2-.9 6.8-2.1 3.8-.3-.9-1.8-1.5-3.6-1.5-3.2 0-3.7-.9-1.8-2.8.9-.9.8-1.2-.6-1.2-.9 0-1.5-.4-1.2-.9.9-1.4-.5-4.1-2.1-4.1-.7 0-1.3-.6-1.2-1.3.1-.6-.1-2-.6-3-.4-1.1-.3-2.3.4-3 1.6-1.6 1.4-2.7-.6-2.7-1.3 0-1.9-.9-2-3.4-.3-3.7-4.8-13.2-5.6-11.8-1 1.4-.1 7.6 1.1 8 .7.2 1 .8.6 1.3-.3.5-.1 2.4.4 4.2 1.9 6 2.2 8.7 1.3 8.7-.6 0-1.6-1.2-2.3-2.8-1.3-2.6-1.7-2.7-8.6-2.8-4 0-7.6-.5-8.1-1s-1.1-2.2-1.3-3.9c-.2-2-1.1-3.4-2.8-4.2-1.3-.7-3-2-3.7-2.9-1.8-2.5-1.7-12.5.2-15 2-2.7 1.8-5.4-.6-8-1.9-2.1-2-2.5-.7-5.9 1.4-4.1 3.3-5.4 5.1-3.6.6.6 2.2 1.1 3.5 1.1 1.8 0 2.3-.5 2-2.3-.3-2 .1-2.2 5.5-2.5 5-.3 6.4.1 9.3 2.3 3.9 3 4.9 6.4 1.3 4.5-1.8-1-2-.9-1.7.7.2 1 1.1 1.7 2.1 1.7 2.3-.2.6 2.9-2.9 5.3-8 5.5-9.5 9.7-4.6 13.1 1.5 1 4.2 1.9 6 1.9 3.2 0 3.3-.2 3-3.6-.3-3.4-.5-3.6-3.6-3.3-4.1.3-3.5-1 2.1-4.2 2.3-1.4 5-3.9 6-5.6 2.1-3.4 3.2-3.8 4.2-1.3 1.1 2.6 1.4 15.3.4 15.3-.5 0-1.6 1.1-2.5 2.6-2.2 3.3-.4 5.6 2.4 3.1 2.5-2.3 3.2-2.1 3.2.5.1 6.5 4.7 6.2 5.2-.4.3-4.1.4-4.2 1.5-1.8.6 1.4 1.4 3.3 1.7 4.4.5 1.5.9 1.6 2.1.6 2.1-1.7 1.9-3.9-1.1-10.4-2.5-5.5-3.7-6.6-4.9-4.6-1.5 2.4-2.6.8-2-2.9.5-2.8.2-4.9-1-7.1-1.3-2.5-1.4-3.8-.7-5.5.9-1.9 1.7-2.3 4.9-2 2.2.2 4.2 1.1 4.8 2.1 2.5 4.2 4 5.4 5.5 4.4 1.2-.8 1.1-1.5-.8-5.4-2.4-5.1-5.7-6.6-9.8-4.7-6.7 3-.5-8 7.5-13.5 4-2.7 4.7-2.9 5.6-1.4zM256 664.6c0 .1-1.1 5.6-2.5 12.4-1.4 6.8-2.5 14-2.5 16.1 0 3.5-.4 4-3.4 5.3-5 2.1-6.6 5.1-5.6 10.5.5 2.8.4 5.3-.3 6.8-1.1 2.4-1.1 2.4-5.9-2.4-3.7-3.7-4.8-5.4-4.8-7.9 0-1.7.7-3.7 1.6-4.4 2.2-1.9 1.4-6.5-1.1-6.5-1.5 0-2.3 1.1-3.2 4.5-2.1 8.4-1.7 10.4 3.5 16.7 5.5 6.5 7.5 11.5 7 17.1-.2 3.1 0 3.7 1.6 3.7 2.6 0 4-5.3 2.7-10.2-.6-2-.9-3.9-.7-4.1.3-.2 1.6.4 3.1 1.4 2.7 1.8 2.8 1.9 2.1 10.3-.3 4.6-1.1 9-1.7 9.7-.5.6-2.5 1.5-4.4 1.8-1.9.4-4.7 1.8-6.3 3.1l-2.9 2.5-1.9-2.1c-1.2-1.4-2.5-1.8-4.1-1.4-2.9.7-3-.8-.4-7.2 5.6-14.4 2.1-32.8-9-46.9-2.1-2.7-3.5-5.2-3.1-5.6.4-.4 2.3-1.4 4.3-2.2 3.5-1.5 3.8-1.4 6.5.9 3.5 3 7.9 3.3 9.6.5.7-1.1 2-2 3-2 2.5 0 3.1-1.7 2.9-7.5-.1-4.4.3-5.8 2.5-8.5 1.5-1.8 3.6-3.5 4.6-3.9 1.7-.6 8.8-1 8.8-.5zm50 4.5c0 1.7-.4 2.8-1 2.4-.5-.3-1-1.7-1-3.1 0-1.3.5-2.4 1-2.4.6 0 1 1.4 1 3.1zm-70.9 3.6c-.8 1.5-1 1.5-1.1.2 0-1.7 1-3.2 1.8-2.5.2.3-.1 1.3-.7 2.3zm120.2.4c3.3 1.7 6.7 5.1 6.1 6-.3.5.1.9.9.9 1.5 0 2.7 2 2.7 4.4 0 1.6-10.5 1.5-12.2-.2-.6-.6-2.7-1.2-4.6-1.2-3.1 0-6.3-1.8-6.2-3.7.1-1.1 8.2-7.2 9.8-7.2.7-.1 2.3.4 3.5 1zM229 676.6c0 .8-.4 1.2-1 .9-.5-.3-1-1-1-1.6 0-.5.5-.9 1-.9.6 0 1 .7 1 1.6zm111.3 3.1c.9.9-1.2 3.3-2.9 3.3s-1.8-2.7-.1-3.3c1.8-.8 2.3-.8 3 0zm-152.8 2.8c14 3.7 24.1 12.1 30.3 25.3 3.4 7.2 3.6 8.3 3.6 17.2-.1 14.5-2.6 19.8-15.6 33-10.8 11.1-33 14.3-48.4 7.1-15.9-7.5-26.3-22.9-26.4-39.3-.1-28.4 28.7-50.5 56.5-43.3zm43-.6c.3.5.1 1.2-.5 1.6-.5.3-1-.1-1-.9 0-1.8.6-2.1 1.5-.7zm103.5 2.2c0 .6-1 .9-2.2.8-1.3-.1-3.1.2-4.1.6-2 .9-3.2.1-2.2-1.4.8-1.4 8.5-1.4 8.5 0zm38-.3c0 .5 1.2 1.3 2.8 1.9 2.6 1 2.5 1-1.3.8-2.2-.2-4.3-.3-4.7-.4-1.8-.2-.6-3.1 1.2-3.1 1.1 0 2 .4 2 .8zm15 1.9c-1.4.3-3 .9-3.7 1.5-1.3 1-3.3.3-3.3-1.3 0-.5 2.1-.8 4.8-.8 2.7.1 3.7.4 2.2.6zm-77 7.3l-.7 4.5-.2-5.5c0-3.2.3-5 .8-4.5.5.6.5 3 .1 5.5zm33.8-3.4c-.9.9-3.5 1.8-5.8 2-3.7.3-4.1.2-2.9-1.2.7-.8 1.8-1.3 2.5-1 .7.3 1.6.1 1.9-.4.4-.6 1.8-1 3.3-1 2.4 0 2.5.1 1 1.6zm44.2.3c0 1.7-.3 1.8-2.9.8-3.4-1.3-3.1-2.7.5-2.7 1.7 0 2.4.6 2.4 1.9zm60.2-.1c2.9 1.2.5 3.1-4.5 3.6-2.6.3-4.7.1-4.7-.4s-.3-1.5-.6-2.4c-.5-1.3.2-1.6 3.7-1.5 2.4 0 5.2.3 6.1.7zm29.4 2.5c-.3 2-.9 2.2-5.7 2-2.9 0-5.5-.6-5.7-1.2-.2-.6-1-1.1-1.8-1.1s-1.4-.5-1.4-1c0-.6 2-1 4.4-1 2.5 0 4.8.4 5.1 1 1 1.6 3.5 1.2 3.5-.6 0-.8.4-1.2 1-.9.5.3.8 1.6.6 2.8zm-17.9-1.7c-1 1-7.7 2.2-8.2 1.4-.8-1.3.8-2 4.8-2 2.2 0 3.8.3 3.4.6zm-97.1 2.2c3.8 3 3.9 5.8.4 7.8-1.6 1-3 2.4-3 3.1 0 .7-.9 1.7-2 2.3-1.1.6-2 2.1-2 3.5 0 3.4-1 5.5-2.7 5.5-.8 0-1.9 1.3-2.4 3-.8 2.1-1.7 3-3.2 3-1.5 0-1.8-.3-.9-.8 1.7-1.1.4-4.2-1.4-3.5-.8.3-1.4 1.1-1.4 1.8 0 .8-1.8 1.3-5.7 1.3-5 0-6-.3-8.4-2.9-2.1-2.3-4-3.1-7.8-3.6l-5.1-.6-.2-4.1c-.3-9.3 1.2-12.1 6.3-11.4 1.9.3 2.5 0 2.2-.9-.6-1.5.6-2 7-2.6 3.8-.4 5-.1 5.5 1.2.9 2 4.4 2.4 5.4.6.6-.9 1.7-1.1 4.2-.5 2 .4 3.9.3 4.4-.2.6-.6 2.6-1 4.5-1.1 2.4-.1 3.3-.5 3-1.4-.7-1.8.8-1.6 3.3.5zm-37.6.6c-3.6 1.4-5.5 1.2-4.5-.5.4-.5 2.3-.9 4.3-.8l3.7.1-3.5 1.2zm46 1.6c.8-1.3 1.7-1.3 7.7.3 3.7.9 7.6 1.7 8.6 1.7.9 0 1.8.8 1.8 1.7.1 1 .2 2.5.3 3.3.1.8.7 2.5 1.4 3.7 1.7 3.1 1.6 3.3-2.4 3.3s-6.3-2.1-6.4-5.5c0-2.1-4.5-4.5-8.4-4.5-1 0-1.4-.5-1-1.2.4-.7.3-.8-.4-.4-.6.4-2.3.4-3.7 0-2.1-.5-2.3-.9-1.4-2.1 1-1.1 1.4-1.1 2.1-.1.6 1 1 1 1.8-.2zm-60.7 13c-.4 4.5-.9 6.7-1.3 5.5-.4-1.1-.6-3.4-.4-5 .1-1.7.3-4.6.3-6.5.1-2 .5-3 1-2.5.5.6.7 4.4.4 8.5zm-184.4-7.6c-1.2 1-5.9 1.5-5.9.6 0-.5 1.4-1 3.2-1 1.7 0 2.9.2 2.7.4zm125.1 6.1c0 .8-.9 1.5-2 1.5s-2-.4-2-1c0-.5.7-.7 1.5-.4.8.4 1.5.1 1.5-.5s.2-1.1.5-1.1.5.7.5 1.5zm125.8 3.3c.2 1.2-.1 2.2-.7 2.2s-1.1-.4-1.1-.9-.3-1.7-.7-2.7c-.4-1.2-.2-1.5.8-1.2.8.2 1.5 1.4 1.7 2.6zm-82.8 1.3c0 2-.8 3.8-2.2 5-1.8 1.5-2 2-.9 2.8 1.8 1.1-.1 4.7-3 5.6-2.7.9-4.5-.8-2.5-2.4 1.2-1 1-1.6-1.6-4.3-1.6-1.6-3.2-2.7-3.6-2.3-.3.3 0 1 .7 1.4.8.5 1.1 1.7.6 3-.5 1.5-1.5 2.1-3.6 2.1-2.6 0-2.9-.3-2.4-2 .7-2.4-.7-2.6-2.5-.5-1.6 2-3.6 1.9-4.4-.2-.9-2.2 0-2.9 5.9-4.3 2.8-.6 6.1-1.4 7.5-1.7 1.4-.3 4.1-1.7 6-3 4.7-3.1 6-2.9 6 .8zm149.7 3.1c-.3 1-.1 1.6.4 1.2 1.4-.8 1.1.2-1 3.7-1.8 2.9-3.7 2.7-2.5-.4.3-.8.1-1.8-.5-2.2-.6-.3-1.1-2.2-1.1-4.1V709l2.6 1.6c1.7 1.1 2.4 2.4 2.1 3.6zM126 711.4c0 .9-3 1.4-3.5.6-.4-.6.3-1 1.4-1 1.2 0 2.1.2 2.1.4zm126.6.5c-.3.5.1 1.4.9 2.1 2.3 1.9 1.9 6-.4 6-1.1 0-2.2-.4-2.5-.8-.8-1.3.5-8.2 1.6-8.2.5 0 .7.4.4.9zm135.2 4.9c.2 1.3-.5 2.5-1.8 3.2-2 1-2 1-.8-1.1 1-1.7 1-2.3 0-2.6-1.5-.6-.4-2.5 1.1-2 .7.2 1.3 1.3 1.5 2.5zm-267.4 5.3c1.4 3 2.1 3.8 2.7 2.8.6-1 .9-.7 1 1.1.1 1.4 0 3.3-.1 4.3-.2 2 1.3 7.2 3.8 13.2 2.5 6.2 8.4 14.5 14 19.7 3.6 3.4 4.6 4.8 3.5 5.2-.8.4-1.9.4-2.4 0-.5-.3-1.6.2-2.5 1.1-.9.9-2.3 1.4-3.2 1-.8-.3-2 .3-2.7 1.2-1.2 1.6-1.7 1.4-5.5-2.5-2.4-2.4-5.5-4.6-7.1-4.9-1.6-.3-2.9-.9-2.9-1.3 0-.9-4-5.5-4.8-5.5-1.6-.1-5.2-3.1-5.2-4.3 0-.9 1.3-1.1 5-.7 4.8.6 5.6.2 5.1-2.8 0-.4.4-.7.9-.7.6 0 1.9-.9 2.9-1.9 1.6-1.6 1.8-2.6 1.1-5.2-1.1-3.8-2.7-5.1-5.3-4.3-1.3.4-2 0-2.4-1.5-.6-2.5-1.2-2.6-2.7-.5-1.8 2.4-4.7.7-4.1-2.4.3-1.8-.4-3.9-2.1-6.3-2.9-4.3-2.4-6.3 2.2-8.5 1.9-.9 3.4-2 3.4-2.4 0-.5 1.3-.2 2.8.5 1.6.9 3.6 3.2 4.6 5.6zm145.3-2.7c-.9 1.8-1.6 2.2-3.1 1.6-3.1-1.1-3-2.8.1-3.3 1.5-.2 3.1-.5 3.5-.6.3 0 .1 1-.5 2.3zm33.2 25.6c-.4 10.1-1.1 16.1-2.3 19.8l-1.8 5.2-3.7-.6c-4.4-.8-5-1.6-4.8-6.6.2-3.4.8-4.3 4.1-6.6 5.5-3.8 8.4-7.8 6.7-9.5-1-1-1.9-.5-4.4 2.4-1.8 2-4.3 4.2-5.6 4.9-2.3 1.2-2.4 1.1-1.7-1.6 2.7-12.2 4.2-15.8 7.1-17.4 2.5-1.4 3-2.3 3-5.6.1-2.1.7-5.3 1.5-6.9l1.4-3 .6 5.5c.3 3 .2 12-.1 20zm82.9-16.1c.5.3 1.2 1.3 1.5 2.1.3 1 .8.4 1.2-1.6.5-2.4 1.2-3.1 2.8-3 1.8.1 2.3.9 2.8 4.1.3 2.2.7 3.6.8 3.1.2-1.4 5.1 3.5 6.8 6.9.8 1.6 2.7 4.2 4 5.7 3.5 3.7 2.5 5.8-2.7 5.8-6.1 0-8.3-1.5-7.5-5 .8-3.5-1.5-8.2-4.1-8.6-1.1-.2-4.6-.8-7.9-1.4-3.3-.6-7.4-1-9-.8-2.9.3-3.1.1-2.7-2.4.2-1.6-.1-3.4-.7-4.2-.9-1.1-.6-1.5 1.6-1.8 1.6-.3 3.5-.7 4.3-.9.9-.3 1.6.4 1.8 1.8.2 1.3 1 2.3 1.8 2.3 1 0 1.3-.6.9-1.9-.3-1 0-3.1.6-4.7l1.2-2.9.7 3.4c.5 1.8 1.2 3.6 1.8 4zm-61.2-4.6c-1.1.8-1.7 2.3-1.4 3.8.2 2 .9 2.5 4.1 2.7 2 .2 3.7.8 3.7 1.3 0 1.2-1.2 1.6-7.2 2.3l-4.7.5-.7-4.4c-.9-6.2-.2-7.5 4.3-7.5 3.3 0 3.5.1 1.9 1.3zm-12.6.7c0 .5-.5 1-1.1 1-.5 0-.7-.5-.4-1 .3-.6.8-1 1.1-1 .2 0 .4.4.4 1zm26 .5c0 .8.7 1.5 1.5 1.5s1.5-.3 1.5-.8c0-.4 3.3-.7 7.3-.5 4 .1 9.3-.3 11.6-.8 4.5-1 6.8-.5 3.5.8-3 1.1-4.6 4.3-2.2 4.3 1.3 0 4.8 2.9 4.8 4.1 0 .5-.9 1.3-2 1.9-1.6.8-2.8.5-6.2-1.7-3-1.8-6-2.8-9.8-3.1-5.3-.3-5.6-.2-7.7 3-1.3 1.9-2.3 4.2-2.3 5.2s-.6 1.6-1.2 1.3c-.8-.2-1.2-1.9-1.1-4.3.2-2.1.4-5.8.5-8.1.2-2.4.6-4.3 1.1-4.3.4 0 .7.7.7 1.5zm-227.1 3.7c1.3 3.5 1.3 3.3-1.6 4.2-1.8.6-2.3.3-2.3-1.1 0-1-.3-2.8-.6-4.1-.5-1.7-.2-2.2 1.4-2.2 1.4 0 2.4 1 3.1 3.2zM415 729c0 .5-.5 1-1.1 1-.5 0-.7-.5-.4-1 .3-.6.8-1 1.1-1 .2 0 .4.4.4 1zm-159.1 1.7c-.7 1-1.5 2-1.6 2.2-.2.2-.3-.5-.3-1.7 0-1.4.6-2.2 1.6-2.2 1.4 0 1.5.3.3 1.7zm5.1.2c-1.1 2.1.1 3.7 1.9 2.7.5-.4.7.3.4 1.4-.6 2.2 1.2 2.8 2 .7.3-.6.6-.2.6.9.1 1.2-.6 2.7-1.4 3.4-1 .9-1.5.9-1.5.1 0-2.1-2.8-1.1-3.2 1.2-.7 3.6.1 4.8 2.7 4.1 2.1-.5 2.4-.3 2.3 2.4-.1 2.2-.7 3.2-2.2 3.6-1.1.3-1.7.8-1.4 1.2 1.1 1-7.4 7.4-9.8 7.4-.4 0 .1-.9 1.1-2 1.6-1.8 1.4-2.4-.6-2.2-.4.1-.1-1.5.6-3.6 1.4-3.9 3.5-5.5 3.5-2.7 0 1.4.3 1.5 1.5.5 2.1-1.8 1.9-2.9-1.3-6-3.8-3.6-4.5-6.4-2-8.6 1.5-1.5 1.8-1.5 1.3-.2-.4 1 .1 1.7 1.6 2.1 1.9.5 2.1.3 1.6-2.7-.3-1.9 0-3.9.6-4.5 1.8-1.8 2.9-1.3 1.7.8zm26 1c0 .9-2.2 3.1-3.1 3.1-1 0-2-3-1.4-4 .6-.9 4.5-.1 4.5.9zm148-1.1c0 .5-1 1.7-2.2 2.8-1.2 1-1.9 1.4-1.6.9.3-.6.8-1.8 1.1-2.8.6-1.7 2.7-2.4 2.7-.9zM308 732c0 .5-.2 1-.4 1-.3 0-.8-.5-1.1-1-.3-.6-.1-1 .4-1 .6 0 1.1.4 1.1 1zm183.8 2.7c3.2 2.4 3.8 5.2 2.2 11-1.1 3.6-1 4.6.1 6.1 3 3.6 3.9 6.4 3.9 11.2 0 2.7-.4 5-1 5-1 0-5-4-5-5.1 0-1.5-6.1-3.1-9.9-2.4-2.1.3-5.6.2-7.6-.4-5.9-1.6-10.5.4-13.5 6-1.4 2.5-3.3 5.9-4.2 7.6-1 1.7-1.5 3.3-1.2 3.6.3.3.1.8-.5 1.1-1.3.9-3.4-3.1-2.7-5.1.4-.9-.2-2.4-1.4-3.5-2.6-2.4-2.7-5.8-.1-5.8 3.4 0 5.2-3.8 4.5-9.2-.4-2.7-.3-4.8.2-4.8 12.4-.6 14.8-1.7 13.9-6.2-.8-3.3.2-4.8 6-9.1 3.4-2.5 4.7-2.8 8.8-2.4 2.7.2 6.1 1.3 7.5 2.4zM279 735c0 .5-.4 1-1 1-.5 0-1-.5-1-1 0-.6.5-1 1-1 .6 0 1 .4 1 1zm71.6 3c4 2.3 6 2.8 8.7 2.3l3.5-.5-.5 4.3c-.8 6.5-1.6 7.1-6.8 4.8-4-1.8-4.8-1.8-7.8-.6-1.8.8-4.1 2.6-5 4.1-2.3 3.5-3.4 3.3-3.9-.9-.4-3.2-.1-3.6 2.9-4.6 5.4-1.7 5.7-6.9.4-6.9-3.7 0-4.4-1-2.4-3.2 2.3-2.5 4.8-2.3 10.9 1.2zm-271.7.7c1.4 1.1 4.3 2.3 6.3 2.7 3.1.6 3.9.3 4.8-1.4 1-1.9 1.3-1.8 5 2.2 4.4 4.8 4.7 5.9 2.4 8.2-2.6 2.6-4.2 1.8-6.3-2.9-1.6-3.5-2.5-4.5-4.4-4.5-3.4 0-3.7.7-1.6 4.8 2 3.8 2.5 7.2 1 7.2-.4 0-1.9-.8-3.2-1.8-4.4-3.4-12.4-7-18.1-8.3l-5.7-1.2 2.6-3.1c1.4-1.7 3.3-3.4 4.2-3.8 2.7-1.3 10.2-.1 13 1.9zm198.1-.2c0 .8-.7 1.5-1.5 1.5-.9 0-1.2-.6-.9-1.5.4-.8 1-1.5 1.5-1.5s.9.7.9 1.5zm48.5 1.6c1.8 1.9 1.8 2.1.1 5.3-2.2 4.1-1.5 6.6 2.6 10.1 2.2 1.8 4.1 2.5 6.2 2.4 1.7-.2 3.7 0 4.3.4 1.5 1 4.9-.7 8.6-4.1 2.6-2.4 3-2.5 6-1.3 6.3 2.7 9.2 2.5 11.6-.4 1.1-1.5 2.1-4 2.1-5.6 0-4 3-5.7 8.8-5.2 2.6.3 6 .9 7.5 1.5 2.4.9 2.7 1.5 2.2 3.9-1 4.4 3.9 9.1 10.1 9.8 5.2.6 5.4.9 6.9 10.4.4 2.6 1.9 5.1 4.6 7.8 3.6 3.6 4.1 4.7 4.5 9.7.2 3.2.6 7.5.9 9.7.5 2.7.2 4.6-.8 5.9-1.3 1.8-1.5 1.7-2.1-1.8-1.3-6.7-4.6-16-7.1-19.8-6-9-22.1-18.2-35.1-20.1-10.4-1.4-19.6.1-29.3 4.9-8.4 4.2-18.2 12.7-21.2 18.6-2 3.8-3.6 5.4-4.6 4.4-1.1-1.1-.2-12.6 1.3-16.9.8-2.3 1.4-5.8 1.3-7.7-.1-1.9-.1-7.7 0-12.8.1-8.4.3-9.2 2-9.2 1.1 0 2.3-.5 2.6-1 1-1.7 4.1-1.1 6 1.1zm-213.2 2.5c1 .3 1.7 1.3 1.5 2.2-.4 2.2-4.6 2.8-5.4.8-.3-.9-1.4-1.6-2.4-1.6s-2.3-.7-3.1-1.6c-1.1-1.4-.8-1.5 3.2-.9 2.4.3 5.2.8 6.2 1.1zm6.1 2.9c-.7 1.6-2.4 2.1-2.4.6 0-.8.7-1.3 2.7-2 .1-.1 0 .6-.3 1.4zm156 .9c-.3.9-1 1.3-1.6 1-.5-.3-.4-1.2.3-2 1.5-1.8 2.2-1.3 1.3 1zm145.9-1.7c.9.8-2.5 3.3-3.6 2.6-.4-.3-.3-1.1.4-1.9 1.3-1.5 2.2-1.8 3.2-.7zm-86.9 5.6c1.3 3.7 0 4.5-2.9 1.7-1.9-1.8-2.2-2.6-1.3-3.7 1.5-1.9 3.1-1.1 4.2 2zm101.6-.7c0 .8-.5 1.2-1 .9-.6-.4-.8-1.1-.5-1.6.9-1.4 1.5-1.1 1.5.7zM61.4 751c12.7 2.1 24.4 11.1 30.5 23.5 4.9 9.9 5.4 19.7 1.6 31-1.4 4.4-3.7 9.3-4.9 11-8.1 10.6-18.9 17.8-28.5 19-2.5.4-7 1.1-10 1.7-3.4.6-5.6.6-6 0-.3-.5-3.1-1.7-6.1-2.5-17.5-5.1-29.7-20.4-30.8-38.5-.5-9.7.7-15.2 5.4-23.7 9.4-17.2 27.2-25.1 48.8-21.5zm212.5.4c1 1.1 1 2 0 3.7l-1.2 2.3-1.4-2.7c-2-4 0-6.5 2.6-3.3zM242 753c-1.2 2.2-4 2.7-4 .7 0-1.9 1-2.7 3.2-2.7 1.6 0 1.7.3.8 2zm-14.4 2.6c-.3.7-.1 1.6.4 1.9 1.6 1 1.1 3.4-1.2 6.8-1.3 1.8-2.4 3.4-2.5 3.6-.1.1-1.2-.4-2.4-1.3-1.6-1-2.7-1.2-4-.5-1.1.6-2 .6-2.4-.1-.3-.6-1.8-.8-3.3-.5-1.5.3-2 .2-1.2-.1.8-.4 2.3-1.3 3.3-2.2 1.1-1 1.7-1.1 1.7-.3 0 .9.5.9 2 .1 1.1-.6 2-1.7 2-2.5s-.9-1.5-2-1.5h-2l2-2c1.1-1.1 2-2.4 2-2.9 0-1.3 5.2-1.9 6.8-.7.7.5 1.1 1.5.8 2.2zm-126.6 0c0-.4.7-.1 1.5.8 1.7 1.7 2 3.6.5 3.6-.5 0-1-.5-1-1 0-.6-.4-1-1-1-1.9 0-1 1.8 2.7 5.4 4.5 4.3 5.3 4.5 5.3.9v-2.6l2.4 2.2c1.4 1.3 2.2 2.9 1.9 3.7-.4 1 .3 1.4 2 1.4 1.4 0 2.9.5 3.2 1 .4.6 1.5.8 2.4.5 1-.3 2.4.1 3.1 1 .7.8 2.1 1.5 3.1 1.5 1.3 0 1.9.7 1.9 2.1 0 1.9-.4 2-3.7 1.4-4.4-.9-5.2-.9-11 .1-2.5.4-4.8.2-5.5-.4-.7-.5-3.1-1.3-5.4-1.7-3.7-.6-4.2-1-5.2-4.3-.6-2.1-2.7-5.3-4.7-7.2-4.3-4.1-4.8-7.5-1-6.6 1.7.4 3.1.1 4.1-.9 1.3-1.2 1.9-1.3 3-.4.8.6 1.4.8 1.4.5zm175.4 1.9c-.4.8-1 1.5-1.6 1.5-.5 0-2.1 1.1-3.5 2.5-3.1 2.8-4.4 2.6-1.6-.2 1.8-1.8 6.4-5.3 7-5.3.1 0 0 .7-.3 1.5zm31.6-.5c0 .5-.5 1-1.1 1-.5 0-.7-.5-.4-1 .3-.6.8-1 1.1-1 .2 0 .4.4.4 1zm120 3c0 .5-.4 1-1 1-.5 0-1-.5-1-1 0-.6.5-1 1-1 .6 0 1 .4 1 1zm-176 4c0 .5-.5 1-1.1 1-.5 0-.7-.5-.4-1 .3-.6.8-1 1.1-1 .2 0 .4.4.4 1zm56 0c0 .5-.4 1-1 1-.5 0-1-.5-1-1 0-.6.5-1 1-1 .6 0 1 .4 1 1zm66.8 2.1c12.1 4.1 21.6 13.4 26.2 25.4 2.5 6.7 3 20.1 1.1 27.3-1.5 5.4-8 15.1-13.2 19.6-9.9 8.6-25.5 13.1-37.1 10.7-8.2-1.6-13-4-20.3-9.9-9.8-7.8-13.7-14.9-15.4-28-3.1-22.1 14.6-44.4 37.4-47 8.7-1 14.5-.5 21.3 1.9zm48.8-.4c-1 1-1.9-.5-1-1.8.6-1.1.8-1.1 1.2 0 .2.7.1 1.5-.2 1.8zm65.9.9c.9 1.4 3.2 3.2 5.1 4.1 3.4 1.7 3.5 1.8 3.2 7-.2 2.9-.6 5.4-1 5.5-.4.1-3.5.5-6.9.9-4.7.5-6.7 1.3-9 3.5-1.6 1.5-2.9 3.5-2.9 4.4 0 .9-.2 1.9-.5 2.2-.9.9-11.5-5.2-11.5-6.6 0-.7-1.6-2-3.6-3-3.5-1.6-3.6-1.7-1.9-3.6 1.5-1.6 1.6-2.2.5-3.5-2-2.4.3-4 5.8-4 4.3 0 4.7-.2 4.7-2.5 0-1.9-.6-2.6-2.3-2.8-3.9-.6-2.3-3.7 1.8-3.7 3.2 0 3.5.2 3.2 2.7-.5 5.1 5.6 6.9 9.3 2.8 1.3-1.4 1.4-2.3.6-3.8-.6-1.1-.8-2.2-.5-2.5 1.1-1 4.4.6 5.9 2.9zm-214-1.5c1 1.4.1 2.1-1.9 1.3-.9-.3-1.3-1-1-1.5.7-1.2 2.1-1.1 2.9.2zm133.3 2.5c-.3 1.4-.5 1.2-1-.9-.3-1.9-.2-2.5.4-1.9.6.6.8 1.8.6 2.8zm22.9-1.8c.6 1.1.8 2.5.3 3.2-.6.9-1 .6-1.5-1-.7-2.1-.8-2.2-1.7-.6-.5.9-.7 2.3-.5 3.1.3.8-.3 1.5-1.6 1.9-2.9.7-3.2.1-1.3-2.6.9-1.2 1.6-3 1.6-4 0-2.4 3.2-2.3 4.7 0zm11 4.2c-.6 5.1-.4 6 .9 6 1 0 1.4-.6 1-1.5-.3-.8-.2-1.5.3-1.5 1.4 0 2.1 1.3 1.2 2.4-3.5 4.6-.5 11 4.7 10 1.9-.4 3.6.1 5.5 1.6 2.7 2.1 2.7 2.3 1 4.2-1.5 1.6-1.5 2.1-.3 2.8.8.5 1.1 1.2.7 1.6-1.1 1.1-4.7 1.2-4.7.1 0-.5-.7-.4-1.6.4-1.3 1.1-1.5.9-1.2-1.5.3-2.4-.2-2.9-3.6-4.1-5.4-1.9-6.1-2.8-4.1-5.9 1.7-2.5 1.6-2.6-.9-3.7-1.4-.7-2.6-1.8-2.6-2.6 0-.7-.4-1.3-.9-1.3s-1.1-.9-1.4-2.1c-.3-1.2-.3-1.8 0-1.5 1.4 1.3 4.3-2.9 4.3-6.1 0-1.8.5-3.3 1.1-3.3.8 0 1 1.8.6 6zm-186.9-2.5c.1 1.3-.3 2.7-.8 3-1.5.9-1.2 2.5.5 2.5.8 0 1.7-1.1 2.1-2.5.6-2.6 3.1-5.2 4-4.2 2.3 2.2-3.6 8.5-7.3 7.8-.7-.1-2.2.3-3.3.9-2.7 1.4-2.7-.3 0-3 1.1-1.1 2-2.6 2-3.3 0-1 1.8-3.7 2.5-3.7 0 0 .2 1.1.3 2.5zm51 1.9c2.4-.1 3 2 1 3.3-.7.4-2.1.6-3 .5-1.2-.2-1.8.3-1.8 1.7 0 1.2.5 2.1 1.1 2.1.6 0 .9 2.5.7 7-.3 7.6-1.7 9.7-1.9 2.7l-.1-4.2-.9 3.2c-.5 1.8-1.4 3.3-1.9 3.3-1.5 0-1.2-4.3.6-9.6.8-2.5 1.4-6 1.3-7.7-.1-1.8-.1-4.1 0-5.2.1-1.8.3-1.7 1.4.5.8 1.6 2.1 2.5 3.5 2.4zm131.9-1.2c-.3.8-.6.5-.6-.6-.1-1.1.2-1.7.5-1.3.3.3.4 1.2.1 1.9zM267 770c2.5 0 2.7.3 2.5 3.2-.2 1.8-.3 3.4-.4 3.5-.1.1-1.2-.2-2.5-.7-1.5-.5-2.7-.5-3.5.3-.8.8-1.1.8-1.1-.1 0-.7 1.1-1.7 2.4-2.2 3.6-1.3 4.5-3.4 1.2-2.8-2.2.4-2.6.2-2.5-1.6 0-1.1.3-1.5.6-.9.2.7 1.7 1.3 3.3 1.3zm-18 .9c0 .5-.5 1.1-1.2 1.3-.7.3-1.1 1.9-1 4.1.3 4.4-.9 4.8-2.5.8-.9-2.5-.8-3.2 1-5 2.3-2.2 3.7-2.7 3.7-1.2zm34.6 0c.5.5 2.2 1.1 3.7 1.3 3.5.4 4 2.2.7 2.6-3.6.5-5.1 2.2-4.8 5.1.3 2.2.9 2.6 4.1 2.9 3.7.3 5.2-1.3 2.2-2.4-2.6-1-1.6-2.1 1.5-1.6 2.5.4 3 .9 3 3.3 0 2.3-.4 2.9-2.2 2.9-1.3 0-3.4.9-4.8 2s-2.8 2-3.1 2c-1 0-2.8-7.2-3.3-13.3-.5-5.6.5-7.2 3-4.8zm-61.1 4c.3.5.1 1.2-.5 1.6-.5.3-1-.1-1-.9 0-1.8.6-2.1 1.5-.7zm6 .1c-.3.5-1 1-1.6 1-.5 0-.9-.5-.9-1 0-.6.7-1 1.6-1 .8 0 1.2.4.9 1zm205.9 4.2c-1 1.6-3.6.8-3-.8.3-.9.6-2.1.6-2.7 0-.6.6-.2 1.4.8.8 1.1 1.2 2.3 1 2.7zM163.1 781c2.2 2.1 2.9 3.8 2.7 5.7-.4 3.4-2.8 4.3-2.8 1.1 0-1.3-1.2-3.6-2.6-5.2-2.1-2.3-2.8-2.6-3.5-1.5-.5.8-.9 1.1-.9.7 0-.3-.3-1.3-.6-2.2-1.1-2.9 4.4-1.9 7.7 1.4zm35.2-1.1c.6.6 1.7 1.1 2.4 1.1s2 1.2 2.9 2.6c1.3 1.9 1.9 2.2 2.5 1.2.9-1.3 1.4 3.9.9 9.1-.8 9.2 11.4 16.8 19.7 12.3 3.3-1.8 3.9-1.6 9.5 4l5.3 5.3-4.5.5c-6 .7-10.8 3.7-11.2 6.9-.3 2.6-2.3 3.9-8.4 5.8-2.4.8-3.5.6-5.2-.8-1.2-.9-2.2-2.1-2.2-2.6 0-1.3 4-4.4 4.9-3.9.4.3 2.2-.4 4-1.5 3.1-1.9 3.2-1.9 2.2 0-.8 1.4-.7 2.2.4 3.1 1.3 1 1.5.8 1.5-1.3 0-1.4.3-3.3.7-4.3.5-1.3.3-1.6-.9-1.2-.9.4-2 .2-2.5-.3-.6-.6-6.4-1.1-12.9-1.1-11.2-.1-12.3-.3-17.7-3.1-3.2-1.6-6.1-3.6-6.4-4.3-.3-.8-1.3-1.4-2.2-1.4-2 0-6.1-2.7-6.1-4.1 0-1.7 2.8-.9 5.7 1.5 1.6 1.4 4.9 3.2 7.2 4.2 4 1.6 4.4 1.6 5.9 0 1.6-1.6 1.5-1.8-.8-3.6-1.4-1.1-3.2-2-4.1-2-.9 0-3.2-1.2-5.2-2.8-2.7-2.1-3.4-3.2-3-4.9.4-1.7-.1-2.5-2.1-3.4-1.4-.7-2.6-1.8-2.6-2.6 0-2.5 3.9-9.1 5.7-9.6 3.3-.8 15.5.1 16.6 1.2zm69.7-1.3c0 1.5-2.2 4.4-3 3.9-.6-.4-.5-1.4.3-2.5 1.1-1.9 2.7-2.7 2.7-1.4zm-51 5.3c-.9 1.8-4 3-4 1.6 0-.9 2.5-5 3.5-5.7 1.5-1.1 1.8 1.7.5 4.1zm41-3.9c0 .5-.4 1-1 1-.5 0-1-.5-1-1 0-.6.5-1 1-1 .6 0 1 .4 1 1zm-104 1c1.2.8 1.1 1-.5 1-1.2 0-2.6.5-3.3 1.2-.9.9-1.2.9-1.2-.3 0-2.9 2.2-3.7 5-1.9zm85 0c0 .5-.4 1-1 1-.5 0-1-.5-1-1 0-.6.5-1 1-1 .6 0 1 .4 1 1zm-111.3 2.2c4.2 1.2 8.3 6.1 8.3 9.8 0 3.7-.9 6-2.4 6-.6 0-2.2.9-3.6 2-3.7 2.9-6.6 2.6-7.5-.7-1.4-5.8-4.6-6.8-9.2-2.9-2.5 2.1-2.6 2.6-1.5 5 1.2 2.8 3.5 2.7 3-.1-.2-.9.2-1.8.9-2 .7-.3 1 .3.7 1.4-.9 3.2 3.2 7.3 7.4 7.4 3.6.1 3.5.1-3.4 3.4-7.1 3.3-12.4 8.2-12.4 11.4 0 2.3 1.9 4.1 3.6 3.4 1.1-.4 1.4.5 1.4 3.5 0 3.6-.6 4.5-5.2 8.7-2.9 2.6-7.2 5.6-9.4 6.6-2.3.9-4.5 2.2-4.8 2.8-1.2 1.9-3.6 1.2-4.6-1.4-.5-1.4-1.9-3.8-3-5.3-1.9-2.6-2-3.2-.8-7.7.9-3.4 3.2-7.4 7.2-12.3 6.7-8.5 9.4-15.6 10.1-27.1l.4-7.4 4.8-2.4c2.6-1.2 6-2.3 7.5-2.3s3-.5 3.3-1c.6-1 3.1-.7 9.2 1.2zm118.6.9c-4 2.7-5.3 2.3-1.9-.6 1.7-1.3 3.4-2.1 3.9-1.8.5.3-.4 1.4-2 2.4zm172.7.5c0 1.4-1.2 1.9-2.3.8-.9-.9.4-3.5 1.4-2.8.5.3.9 1.2.9 2zm-160-.2c0 .3-.4.8-1 1.1-.5.3-1 .1-1-.4 0-.6.5-1.1 1-1.1.6 0 1 .2 1 .4zm165.2 1.1c0 .5-.5 1.1-1.1 1.3-.6.2-1.1-.4-1.1-1.3s.5-1.5 1.1-1.3c.6.2 1.1.8 1.1 1.3zM250.5 787c0 .7-1 1.6-2.2 2.1-2.6 1-2.8.6-1.1-2.1 1.4-2.2 3.3-2.2 3.3 0zm13.5-1.1c0 1.2-2 2.5-2.7 1.8-.7-.7.6-2.7 1.8-2.7.5 0 .9.4.9.9zm9.4 2.6c-.7 1.6-2.4 2.1-2.4.6 0-.8.7-1.3 2.7-2 .1-.1 0 .6-.3 1.4zm147.3 1c-.3.6.6 2.4 1.9 3.8 2.8 3.1 3.1 5.5.7 7.3-2.6 1.9-3.6 1.7-3-.6.3-1.1.1-2.3-.5-2.6-.7-.4-.6-.9.2-1.4.9-.6.9-1.3.1-2.8-1.4-2.7-1.4-6.5 0-5.7.6.4.8 1.3.6 2zm66.6 1.4c-.5 3.3-.2 4 1.5 4.5 1 .4 3.2.2 4.7-.4 2.5-.9 2.7-1.4 2-4.6-.5-3.1-.4-3.5 1.2-3.2 1.5.3 1.8 1.4 1.8 7.3 0 6.9 0 7-2.7 7.3-2 .2-2.8-.1-2.8-1.2 0-2-.9-2-2.4-.2-1.4 1.7-5.6.4-5.6-1.8 0-.7-.7-1.7-1.6-2-2.1-.8-1.1-5.4 1.8-7.9 1.1-.9 2.2-1.7 2.3-1.7.2 0 .1 1.8-.2 3.9zM233 789.4c0 .3-.4.8-1 1.1-.5.3-1 .1-1-.4 0-.6.5-1.1 1-1.1.6 0 1 .2 1 .4zm7.5.6c1.4-1.1 1.7-1 2.2.8.4 1.8.9 2 2.5 1.1 1.7-.9 1.9-.8 1.6.8-.2 1-1.3 2.2-2.6 2.8-1.4.6-2.1 1.7-2 3 .2 1.5-.4 2.1-2.2 2.3-2 .3-2.3.1-1.2-.9 1.6-1.8 1.5-2.9-.4-2.9-1.1 0-1.4-.6-.9-2 .5-1.4.2-2-.9-2-.9 0-1.6.6-1.6 1.2 0 .7-.3 2.3-.6 3.5-.5 1.8-.2 2.3 1.2 2.4 1.1 0 1.4.3.8.5-.6.3-2.3 0-3.9-.6-2.6-1-2.7-1.2-1.1-2.9.9-.9 1.6-2.6 1.6-3.7 0-3 1.9-4.5 4-3.1 1.4.8 2.2.8 3.5-.3zm70.8 5.1c-.8.8-1.5.4-2.6-1.2-2.2-3.1-.9-4.6 1.6-2 1.5 1.5 1.8 2.4 1 3.2zm122.7 1.2c0 .3-1 .4-2.3.3-1.8-.1-2.4-.7-2.4-2.7v-2.7l2.4 2.4c1.3 1.3 2.3 2.5 2.3 2.7zM251.5 793c-.3.5-1 1-1.6 1-.5 0-.9-.5-.9-1 0-.6.7-1 1.6-1 .8 0 1.2.4.9 1zm193.9 1c1.9 0 1.9.1.1 2-1 1.1-2.1 1.7-2.4 1.3-.3-.5-1.2-.8-1.8-.9-4.6-.4-4.6-.4-2.2-2.3 1.5-1.2 2.8-1.6 3.4-1 .5.5 1.8.9 2.9.9zm14.7 4.4c-1.7 1.8-3.1 3.7-3.1 4.4 0 .7-.5 1.2-1.1 1.2-.5 0-.2-1.3.8-3 .9-1.7 2.1-3 2.5-3 .4 0 .8-.6.8-1.3 0-1.9 2.4-4.1 2.8-2.7.3.7-1 2.6-2.7 4.4zm-296-3.3c4.8 1.7 8 5.8 6.6 8.4-.6 1.1-1.1 5.4-1.2 9.5 0 4.1-.4 8.7-.9 10.1-.6 2.2-.4 2.7 1.3 3.2 1.2.3 2.6 1.9 3.2 3.7.7 2 1.6 2.9 2.5 2.6.7-.3 2.4.1 3.8.7 2.1 1.1 2.2 1.5 1 3.1-1.2 1.7-1.7 1.7-4.4.6-1.7-.7-4.8-1-7-.7-3.3.4-4.1.1-5.4-1.8-2.7-4.2-2.9-7.2-.8-11.8 1.1-2.4 2.3-5.9 2.7-7.8.5-3 .1-3.9-3.7-8-2.4-2.6-6-5.2-8-6-4.4-1.5-4.8-2.6-1.4-3.9 1.3-.5 2.7-1.4 3.1-1.9.8-1.4 4.3-1.4 8.6 0zM224 798c0 2-.5 3-1.5 3-.8 0-1.5-.5-1.5-1 0-.6.5-1 1-1 .6 0 1-.9 1-2s.2-2 .5-2 .5 1.3.5 3zm46.1 0c-1.3 1.1-3 2-3.8 2-1.7 0-9.4 5.1-14.1 9.5l-3.3 3-3.6-2c-4.7-2.6-5.2-4.2-1.6-5.6 1.5-.5 5-2.5 7.8-4.2 4.6-3 8.4-3.9 19-4.5 1.9-.1 1.8 0-.4 1.8zm202.4.6c3 2.8 2.8 4.2-.3 2.5-2.1-1.1-5.2-.5-5.2 1 0 1.4 3.7 2.9 5.4 2.3.9-.3 1.6-.2 1.6.4 0 .5-.7 1.2-1.5 1.6-.8.3-1.5.9-1.4 1.3.4 2.6-.4 2.4-2.1-.5-1.2-2-2.5-3-3.2-2.6-.8.5-.9.2-.5-1 .4-1 .7-2.4.7-3.1 0-1.2 2.6-4.5 3.4-4.5.2 0 1.5 1.1 3.1 2.6zm-245-.7c.3.5.1 1.2-.5 1.6-.5.3-1-.1-1-.9 0-1.8.6-2.1 1.5-.7zm206.7 2.3c-.7.7-1.2.8-1.2.2 0-1.4 1.2-2.6 1.9-1.9.2.3-.1 1.1-.7 1.7zM305 800c0 .5-.7 1-1.5 1s-1.5-.5-1.5-1c0-.6.7-1 1.5-1s1.5.4 1.5 1zm-23 2c0 .5-.7 1-1.5 1s-1.5-.5-1.5-1c0-.6.7-1 1.5-1s1.5.4 1.5 1zm150.5 1c-.3.5-1.2 1-1.8 1-.7 0-.6-.4.3-1 1.9-1.2 2.3-1.2 1.5 0zm13.5 2c0 .5-.5 1-1.1 1-.5 0-.7-.5-.4-1 .3-.6.8-1 1.1-1 .2 0 .4.4.4 1zm-293.3.6c1.2.3 3.4 2.4 4.9 4.5l2.7 3.9-2.2 5.6c-1.1 3.1-2.1 6.9-2.1 8.5 0 1.7-.7 3.3-1.9 4-1.1.7-1.6 2-1.4 3 .8 2.9-4.6 7.5-9.6 8.4-2.9.5-4.1 1.1-3.7 2 .3.8-.9 2-3 3-1.9.9-3.4 2-3.4 2.5 0 2-6.4 4.1-13.3 4.4-4.3.1-8.5.9-10.4 1.9-4 2.1-11.5 2.2-15.4.2l-3-1.6 3-2.5c1.6-1.3 4.5-3.1 6.5-3.9 1.9-.8 6.5-4.2 10.1-7.6 6.4-6.1 6.5-6.2 6.5-11.4 0-5.8 1-7.4 6.2-10.1 1.8-1 2.8-2.1 2.6-3.2-.2-1 .9-2.6 2.9-4 2.3-1.5 3.3-3.1 3.3-4.8 0-2.2.4-2.5 2.7-2.2 2.5.3 2.9.9 4.2 6.7 1.6 7.7.7 10.2-4.4 12.9-2.9 1.4-3.4 2.1-2.3 2.9 2.2 1.7 7.7-.4 9.9-4 1.6-2.6 1.9-4.1 1.3-7.7-1.4-9.6-.7-12 3.8-12 1.8 0 4.3.3 5.5.6zm123.3 1c0 .2-.7.4-1.5.4s-1.5-.4-1.5-1c0-.5.7-.7 1.5-.4.8.4 1.5.8 1.5 1zm222.4.2c.8 2.9.6 14.7-.3 16-.7 1.1-1.2 1.1-2.8.1-4.4-2.7-7.9 1.7-4.4 5.5 2.7 2.9 2.7 3.6-.3 3.6-1.8 0-2.6-.6-2.8-2.1-.7-4.6-7-5.1-9.6-.8-1.2 1.8-1.1 2.4.7 4.3 2.6 2.7 2.6 3.6.4 3.6-2 0-8.1 2.1-10.2 3.4-1.5 1-3.1-.8-3.1-3.6 0-.9-.4-2-1-2.3-.5-.3-1-1.7-1-3.1 0-3.6-3.6-6.7-6.8-5.9-1.5.4-3.4 1.3-4.3 2.1-1.5 1.3-1.7 1.1-2.2-2.3-.3-2.1-.9-4.8-1.3-6.1-.5-1.8-.3-2.2 1.7-2.2 1.3 0 5.5 1.1 9.3 2.5 7.6 2.8 16 3.2 24.6 1.4 8-1.7 9.8-7.9 3.8-13.1l-3.1-2.7h6.1c4.8.1 6.2.4 6.6 1.7zm-18.1 2.6c1.6 1.2 1.6 1.5.2 2.9-1 1.1-1.2 1.8-.4 2.3.8.4.7.9-.2 1.5-2.7 1.7-4.1 1-3.5-1.5.3-1.4.2-2.7-.4-3.1-1.2-.7-.1-3.5 1.4-3.5.6 0 1.9.7 2.9 1.4zm-43 3.1c5.2 2.6 5.1 3-.6 4-2.6.5-3.7.4-3.7-.5 0-.7-1.5-2.6-3.2-4.2l-3.3-3.1 3.1.7c1.6.4 5.1 1.7 7.7 3.1zm25.7-2c0 .8-.3 1.5-.6 1.5s-1.2-.7-2-1.5c-1.4-1.3-1.3-1.5.5-1.5 1.2 0 2.1.6 2.1 1.5zm-41 2.1c2.2.9 4.5 2.6 5.1 3.7 1.1 2 1.1 2-2.4-.1-1.9-1.2-4.1-2.2-4.8-2.2-.8-.1-2.7-.7-4.4-1.5l-3-1.3 2.7-.1c1.5-.1 4.6.6 6.8 1.5zm-232.6 6c2.7.6 2.8.9 2.3 4.9-.2 2.4-.1 4.9.4 5.7.6.9.9.7.9-1 0-1.2.6-2.2 1.4-2.2.9 0 1.2-.7.9-2-.4-1.4 0-2 1.1-2 1.2 0 1.5.6 1 2.4-.7 2.9 2.4 4.6 4.2 2.2 1.2-1.6 3.4-2.2 3.4-.9 0 .5-.7 1.7-1.5 2.7-.8 1.1-1.5 2.7-1.5 3.7 0 2.6-2.2 3.8-8.1 4.5-3 .3-6.2 1-7.1 1.5-2.3 1.2-2.8 1.1-2.8-.6 0-.8.5-1.5 1-1.5.6 0 1-.7 1-1.5s.4-1.5.9-1.5c2.4 0 1.8-3.2-1.2-6-3.3-3.1-5.9-4.2-3.7-1.5 1.1 1.3.9 1.5-1.3 1.5-1.4 0-2.8-.7-3.1-1.6-.8-2-.8-8.2 0-11.1.6-2.1.6-2.1 4.8.7 2.3 1.6 5.4 3.2 7 3.6zm284.1-4.6c.3.5-.1 1-.9 1-.9 0-1.6-.5-1.6-1 0-.6.4-1 .9-1 .6 0 1.3.4 1.6 1zm-55.6 4.2l3.4 1-5.9 3.2c-3.9 2.1-6.8 4.5-8.7 7.3-4.6 7-6.3 5.4-2.2-2 1.9-3.5 3.5-7 3.5-7.8 0-3.7 2.2-4 9.9-1.7zM117 819.9c-1.9 1.6-3.7 2.7-4 2.4-.7-.6 4.8-5.3 6.3-5.3.6 0-.4 1.3-2.3 2.9zm327.2 2.7c.4 1.6.5 4.3.2 6-.6 3.2.7 5.3 4.8 7.5 2 1.1 2 1.1-.3 2.3-1.3.6-2.9 2.7-3.5 4.6-1.1 3.3-1.5 3.5-6.4 4.2-8.7 1-9.4 4.2-1.3 5.4l4.6.7-3.7 1.2c-4.5 1.6-5 2-4.3 3.9.3.8 2.5 1.7 4.9 2.1 3.5.6 3.9.9 2.3 1.6-1.1.4-3.6.8-5.5.8-2.9 0-3.9-.6-6.2-3.8-1.9-2.8-3.5-4-6-4.4-1.8-.3-5-1.1-7-1.8-4.7-1.7-7.5-7.1-7.7-15-.2-5.3 0-5.8 3.3-8.7 5.9-5.1 14.6-6.3 14.6-2 0 .5.9 1.9 2 3.1 2.7 2.8 5 1.5 6.8-3.9 1.3-4 4.7-7.7 6.5-7.1.6.2 1.4 1.7 1.9 3.3zm-235.5.1c-1.4 1.4-2 1.5-4.4.3l-2.8-1.4 4-.6c4.9-.7 5.4-.4 3.2 1.7zm104.3 2.1c0 .4 1.6 3.2 3.5 6.2 3.5 5.5 3.5 5.5 1.3 6.1-1.5.4-2.9 0-3.9-1-1.8-1.8-3.4-12.1-1.9-12.1.6 0 1 .4 1 .8zm145.8 8.2c-.1 1.6.5 3.6 1.2 4.5 1 1.2 1 1.5-.3 1.5-.9 0-2.8-.5-4.3-1-2.4-1-2.5-1.2-1.2-2.8.8-.9 1.8-2.5 2.1-3.5 1-2.7 2.6-2 2.5 1.3zm37.3 7.3c-2.8 2.8-12.2 4.5-15.1 2.7-2-1.2-.8-2.2 6.3-5 3.1-1.3 6.5-3.2 7.5-4.3 1.6-1.9 1.7-1.8 2 1.8.2 2.1-.1 4.2-.7 4.8zm-92.7.1c-.7 1.7-6.4 3-7.8 1.6-.9-.9 0-1.4 5.4-3.2 2-.7 3 0 2.4 1.6zm2.1 7.7c1 3-.3 3.9-8.7 5.3-5.5 1-9 1-13.1.3-3.2-.6-5.7-1.3-5.7-1.6.1-1.6 10-5 14.9-5 3-.1 5.7-.4 6-.6.2-.3 1.7-.5 3.2-.5 1.9 0 3 .6 3.4 2.1zm-97.2 3.4c-.3.9-.8 1.4-1 1.1-.3-.3-.2-.9.2-1.5.9-1.6 1.5-1.3.8.4zm40.6 3.1c.4.4-4.8 2.8-6.4 2.8-.5.1-1.6.8-2.2 1.6-1 1.2-1.2.7-.8-3 .2-2.5.4-4.6.4-4.6.1-.3 8.6 2.7 9 3.2zm125.8-1c-.3.3-1.2.4-1.9.1-.8-.3-.5-.6.6-.6 1.1-.1 1.7.2 1.3.5zm-112.1 2.9c-.3.8 0 1.5.7 1.5s3.7 1.2 6.7 2.6l5.4 2.5-2.9 2.5c-3.9 3.2-7.5 4.9-10 4.8-1.1-.1-2.9-.2-4-.3-1.8-.2-1.9-.2-.2-1.2 2-1.2 2.3-4.9.5-6.7-.7-.7-2.8-1.2-4.7-1.2l-3.6-.1 2.8-1.5c1.5-.8 2.7-2.1 2.7-2.9 0-1.1 1.1-1.5 3.6-1.5 2.8 0 3.5.3 3 1.5zm36.4 1.7c-1 .4-6.3 1-11.7 1.3-7.3.4-10.3.3-11.6-.7-1.4-1.1.4-1.3 11.7-1.3 7.4 0 12.6.3 11.6.7zm19 2.4c0 .8-.4 1.4-.9 1.4-1.1 0-2.2-2.6-1.4-3.4.9-.9 2.3.3 2.3 2zm54.5-.6c-.3.5-1.5 1-2.6 1-1 0-1.9-.5-1.9-1 0-.6 1.2-1 2.6-1 1.4 0 2.3.4 1.9 1zm5.2-.4c-.3.3-1.2.4-1.9.1-.8-.3-.5-.6.6-.6 1.1-.1 1.7.2 1.3.5zm-12.8.8c-1.1.9-6.9 1.4-6.9.6 0-.6 1.7-1 3.7-1s3.4.2 3.2.4zm-110.6 5.3c-.7.2-1.9.2-2.5 0-.7-.3-.2-.5 1.2-.5s1.9.2 1.3.5zm100.7.3c0 .5-.4 1-.9 1-.6 0-1.3-.5-1.6-1-.3-.6.1-1 .9-1 .9 0 1.6.4 1.6 1zm6.7-.4c-.3.3-1.2.4-1.9.1-.8-.3-.5-.6.6-.6 1.1-.1 1.7.2 1.3.5z"/><path d="M251 215.1c0 .5.5.7 1 .4.6-.3 1-.8 1-1.1 0-.2-.4-.4-1-.4-.5 0-1 .5-1 1.1zM254.6 219.6c-.5 1.4-.4 1.5.9.4 1.7-1.4 1.9-2 .6-2-.5 0-1.2.7-1.5 1.6zM267 235.2c0 .7.4 1.9.9 2.7.7 1.1 1 1.1 1.7 0 1.5-2.5 1.3-3.9-.7-3.9-1 0-1.9.6-1.9 1.2zM312 228.9c0 .7-.6 1.1-1.3.8-.7-.3-2.2.2-3.2 1-1.7 1.2-1.8 1.5-.5 2.3 1.1.7 1.6.5 1.8-.5.2-.8 1-1.5 1.7-1.5 1.6 0 3-1.8 2.1-2.7-.3-.4-.6-.1-.6.6zM310 238c0 .5.5 1 1 1 .6 0 1-.5 1-1 0-.6-.4-1-1-1-.5 0-1 .4-1 1zM309.3 248.7c-.4 1-1.1 2.1-1.6 2.4-.6.4-.5.9 0 1.2.6.4 2-.7 3.2-2.3 1.8-2.5 1.9-3 .6-3-.9 0-1.9.8-2.2 1.7zM309.6 273.6c-1.4 3.6.9 4.9 3.5 1.8 1-1.3 1-1.7-.2-2.5-2-1.2-2.6-1.1-3.3.7zM305 275c0 .5.5 1 1.1 1 .5 0 .7-.5.4-1-.3-.6-.8-1-1.1-1-.2 0-.4.4-.4 1zM325.5 277c-1 1.1-1.4 2-.9 2 1.2-.1 4.4-2.5 4.4-3.4 0-1.2-1.7-.6-3.5 1.4zM299 279c0 .5.5 1 1 1 .6 0 1-.5 1-1 0-.6-.4-1-1-1-.5 0-1 .4-1 1zM393.3 315.6c-.3.9 0 2 .8 2.4.7.5 2.3 2.8 3.4 5.1 2 4.3 4.9 6.9 6.1 5.6 1.2-1.2-1.7-9.1-4.4-12-2.9-3.1-5-3.5-5.9-1.1zM416.4 322.5c-.7 1.7 1.2 4.5 3.1 4.5 2.1 0 2.5-2.7.6-4.4-2.2-2-3-2-3.7-.1zM388.7 358.8c-.9 1-1.7 2.6-1.7 3.6 0 1.4.4 1.4 3-.6 2.9-2.1 3.4-3.8 1.4-4.5-.6-.2-1.8.5-2.7 1.5zM77.5 293.9c-1.7.4-3 1.3-3 2.1 0 1.2 1.2 1.4 5.7 1.2 3.7-.3 6.6.1 8.5 1.1 1.5.9 3.5 1.8 4.4 2 1.2.4 1.5 1.3 1.2 3.1-.7 3.2 1.6 3.5 4.3.5 2.5-2.8 1-4.8-5.7-7.5-6.3-2.5-11.2-3.3-15.4-2.5zM239.3 373.2c.2.7.8 2.4 1.2 3.8.8 2.5.7 2.5-1.3.7-2.9-2.6-3.8-.4-1.5 3.6 2.3 3.8 5.9 5.1 5 1.8-.3-1.4 0-2.1.8-2.1 2.5 0 2.6-1.9.3-5.4-2.2-3.4-5.6-5.1-4.5-2.4zM323 327.5c0 .9.5 1.5 1.1 1.3.6-.2 1.1-.8 1.1-1.3s-.5-1.1-1.1-1.3c-.6-.2-1.1.4-1.1 1.3zM341.7 352.6c.6 1.6 1.9 1.8 2.7.5.3-.5-.3-1.1-1.3-1.4-1.4-.3-1.8-.1-1.4.9zM327.7 384.9c-2.2 2.2-2.7 3.3-2.2 5.4.4 1.5 1 2.7 1.4 2.7 1.2-.1 4.9-3.5 6.6-6.2 3.2-5.1-1-6.5-5.8-1.9zM329.7 394.7c-1 .9-.9 8.1.2 8.7 1.6 1 3.9-1.9 4.4-5.7.5-3.3.4-3.7-1.7-3.7-1.2 0-2.6.3-2.9.7zM330.5 406c-1 1.6-1.8 17.9-1.8 34.7 0 10.8.3 13.7 1.7 15.8 2.1 3.1 4.3 2.8 3.7-.6-.5-3.2-.6-30.5-.1-40.2.3-6.1 0-8.1-1.2-9.3-1.2-1.2-1.7-1.3-2.3-.4zM56.4 345.2c-2.8 6.3-4.9 9.7-6.5 10.5-1.4.8-6.4 1.3-12.1 1.3-5.8 0-9.9.4-10.4 1.1-.8 1.4 3.9 6.3 10.4 10.7 3 1.9 5.6 4.1 5.9 4.8.4 1.2-2.5 9.1-6.8 17.9-1 2.2-1.9 4.3-1.9 4.7 0 2 3.8.3 13.1-5.9l10-6.7 3.2 1.9c1.8 1 4.3 2.8 5.7 3.9 4.9 4.3 14.2 9.7 15.6 9.2 2.3-.9 1.7-4.3-2.6-15.3-2.3-5.7-3.8-10.8-3.5-11.4.4-.5 4.3-3.1 8.7-5.6 12.7-7.4 12.1-8.8-4.2-10l-11.4-.8-1.2-3.5c-.7-1.9-1.7-5.5-2.4-8-2.8-10.6-4.5-10.4-9.6 1.2zm6 4c1.4 5.3.2 7.1-3.3 4.9-1.2-.8-1.2-1.4-.1-4 1.5-3.7 2.5-3.9 3.4-.9zM63 361c2.3 0 3.2.8 4.9 4 1.1 2.2 1.8 4.5 1.5 5.2-.3.7-2.6 2.6-5.1 4.1-5 3-6.9 2.8-12.1-1.1l-2.3-1.8 1.9-4.9c1.9-4.7 4.3-6.8 7-5.9.8.2 2.6.4 4.2.4zm-14.7.6c.6.7-1.9 6.4-2.8 6.4-1 0-7.5-4.5-7.5-5.2 0-.4 1.9-.9 4.3-1.1 2.3-.2 4.5-.4 4.8-.5.3-.1.8.1 1.2.4zm31.2.3c.3.5-.5 1.7-1.7 2.5-1.9 1.4-2.4 1.4-3.6.2-.8-.8-1.1-1.9-.8-2.5.9-1.3 5.3-1.5 6.1-.2zm-5.7 18.8c2.7 7.6 2.9 8.5 1.7 8.9-1.2.5-11.5-8.3-11.5-9.7 0-.9 5.8-4.9 7.1-4.9.4 0 1.6 2.6 2.7 5.7zm-21.9-1.8l2.3 1.8-4.4 3.6c-6.6 5.4-7.1 5-3.8-2.7 1.2-2.5 2.4-4.6 2.8-4.6.4 0 1.8.9 3.1 1.9zM118.6 398.9c-.3.5.1 1.1.9 1.5.8.3 1.5.1 1.5-.4 0-1.3-1.8-2.2-2.4-1.1zM112 407c0 .5.5 1 1 1 .6 0 1-.5 1-1 0-.6-.4-1-1-1-.5 0-1 .4-1 1zM126 431c0 .5.5 1 1 1 .6 0 1-.5 1-1 0-.6-.4-1-1-1-.5 0-1 .4-1 1zM76 422.8c0 .6.6 1.2 1.3 1.5.9.3.8 1.2-.5 3.4-2.1 3.6-1.2 5.1 1.2 2.1 1.2-1.5 1.5-3 1.1-4.7-.7-2.4-3.1-4.2-3.1-2.3zM83.5 425c-.3.5-.1 1 .4 1 .6 0 1.1-.5 1.1-1 0-.6-.2-1-.4-1-.3 0-.8.4-1.1 1zM68.5 428c-.8 1.3 2 2.4 4 1.6.8-.3 1.5-1.1 1.5-1.7 0-.8-.4-.8-1.5.1-1 .9-1.5.9-1.5.1 0-1.4-1.7-1.4-2.5-.1zM80.1 431.1c-1.9 4.4.1 6.1 2.3 1.9 1.5-3 1.4-5-.2-5-.4 0-1.3 1.4-2.1 3.1zM67 431.5c0 .8 1 2 2.3 2.6 3 1.6 3.7 2.8 3.7 6.7 0 4.2 1.3 3.5 3-1.8 1.5-4.5 1.2-5.3-2.5-5.3-1.5 0-3-.7-3.6-1.8-1.2-2.3-2.9-2.5-2.9-.4zM84.6 432.8c-.7 1.2.3 4.2 1.4 4.2 1.6 0 1.8-1.5.5-3.3-.7-1-1.6-1.4-1.9-.9zM67.5 439.1c.5 1.6.2 2.2-1.5 2.6-2 .5-1.9.8 1.6 2.4 2 1.1 3.9 1.9 4.1 1.9 1 0 .1-4-1.2-5-.8-.7-1.5-1.9-1.5-2.6 0-.8-.5-1.4-1.1-1.4-.6 0-.8.9-.4 2.1zM79.5 439.1c-.4.6-.4 1.3-.1 1.6.3.3 0 1.3-.7 2.1-1 1.3-.9 1.5.4 1 .9-.4 2.2-.1 2.8.5 1.6 1.6 2.6 0 1.1-1.8-1.4-1.7 0-2.1 1.7-.4.8.8 1.3.8 1.7 0 .4-.6.1-1.1-.7-1.1-.8 0-2-.7-2.7-1.5-1.5-1.8-2.6-1.9-3.5-.4zM322.5 495.7c-.3 1-.7 6-.7 11.2-.1 7.4.2 9.5 1.4 10.2 1 .6 2 .4 2.8-.6 1.6-1.9 1.5-19.1-.1-21.1-1.5-1.9-2.5-1.8-3.4.3zM387.5 541.1c-1.2 1.9.5 2.3 2.2.6 1.6-1.6 1.6-1.7.1-1.7-.9 0-2 .5-2.3 1.1zM140.3 478.2c-.5.7-1.9 4-3.2 7.3-4 10.3-6.2 14.4-7.9 14.9-.9.2-6 .5-11.2.6-5.2 0-9.9.5-10.4 1-.4.4.5 1.6 2 2.6 9.2 5.5 13.6 8.6 14 9.9.4 1-3.6 10.5-9.3 21.7-.2.3.4 1.3 1.2 2.2 1.9 1.8 3.7 1.3 8.6-2.6 2-1.5 3.9-2.8 4.2-2.8.3 0 2.9-1.6 5.7-3.5 5.2-3.5 5.3-3.5 7.9-1.8 1.4.9 7.2 4.4 12.9 7.6 12.9 7.4 13.8 7 9-4.5-6.7-15.9-6.5-14.8-3.7-16.9 1.3-1 5.2-3.5 8.6-5.4 13.2-7.8 12.4-9.9-3.6-8.9l-11.8.7-3.1-5.6c-1.7-3.1-3.6-7.6-4.3-10.1-1.3-5.2-4.1-8.4-5.6-6.4zm3.2 13.5c3.4 8.1 3.3 8.3-2.4 8.3-2.8 0-5.1-.2-5.1-.5 0-1.7 4.3-11.5 5.1-11.5.5 0 1.6 1.7 2.4 3.7zm6.1 18c.6 3.1.4 3.3-4.9 5.9l-5.5 2.7-4.1-3.4c-6.9-5.7-5.3-9.2 4.6-9.9 7.6-.6 9 0 9.9 4.7zM163 506c-3.4 2.6-6 3.4-7.2 2.2-2.3-2.3 0-4.2 4.9-4.2h4.8l-2.5 2zm-35 1c0 .4-.9 1-2 1.3-2.2.6-4.9-1.8-2.8-2.5 1.7-.6 4.8.2 4.8 1.2zm4.5 13c.9 1 1.5 2.5 1.2 3.2-.6 1.7-9.5 6.3-10.4 5.4-.3-.3.4-2.9 1.7-5.6 2.5-5.4 4.6-6.3 7.5-3zm22.3 1.7c1.6 3.9 2.5 8.3 1.8 8.3-1 0-9.6-6.4-9.6-7.1 0-1 4.1-3.9 5.6-3.9.6 0 1.6 1.2 2.2 2.7zM41.6 490.8c-1.2 1.6-1.6 2.7-.9 2.9.6.2.9 1.2.7 2.1-.3 1.1.4 2.1 2.2 2.9 2.5 1.2 2.6 1.1 2-1.5-.4-1.5-.7-3.9-.6-5.4 0-3.7-1.1-4.1-3.4-1zM53.6 491.6c-.7 2.8 0 4.7 1.5 3.9 1.2-.8 1.2-5.2 0-5.9-.5-.3-1.2.6-1.5 2zM48 491.9c0 .5-.3 1.8-.6 2.8-.6 1.6-.5 1.6.9-.2 1.9-2.3 2.1-3.5.7-3.5-.5 0-1 .4-1 .9zM54 499.6c0 1.7 1.7 3.6 2.4 2.6.3-.5-.1-1.5-.9-2.2-.8-.7-1.5-.9-1.5-.4zM47 502.6c0 .8.5 1.2 1 .9.6-.3 1-1 1-1.6 0-.5-.4-.9-1-.9-.5 0-1 .7-1 1.6zM35.2 517.7c-2.7 7-2.3 12.6.6 9 .8-.9 1.4-11.7.6-11.7-.1 0-.6 1.2-1.2 2.7zM64.2 575.2c-1.3 1.7-6.9 14.6-7.7 17.8-.3 1.4-1.4 3.6-2.4 4.9-1.6 2.1-2.7 2.4-13.6 3-13.6.7-15.2 1.8-7.8 5.4 7.8 3.8 13.3 7.6 13.3 9.2 0 .9-.7 3.2-1.6 5.3-3.4 7.7-5.3 13.5-4.8 14.3 1 1.7 3.8.8 11.5-3.6 12.8-7.4 11.5-7.4 23 .1 5.6 3.6 10.8 6.3 11.6 6 1.7-.7.9-6.1-3.2-20.1-.5-1.7 1.1-2.8 11.5-8 11.8-5.8 14.6-8.3 12.1-10.8-.7-.7-4.5-1-10.4-.8-18.7.8-18 .8-19.4-1.9-.7-1.4-2.2-5.9-3.3-10-1.2-4.1-2.5-8.5-3-9.8-1-2.4-4.2-2.9-5.8-1zm6 22.9c-1.2 1.1-8 2-8.6 1.1-.4-.7 2-10.3 3.9-15.1.4-1 1.6 1.3 3 5.9 1.4 4.1 2.1 7.8 1.7 8.1zm28.8 3.8c0 .8-2.7 2.1-13.3 6.2L81 610l-1.2-2.5c-.7-1.6-.8-2.9-.2-3.5.5-.5 4.7-1.3 9.4-1.8s8.8-1 9.3-1.1c.4 0 .7.3.7.8zm-25.4 4.6c2.2 5.4 1.8 6.3-4.4 9.4l-5.9 3-4.1-2.5c-4.7-2.8-4.8-3.1-2.8-7.9 1.5-3.5 2.7-4.1 9.6-4.8 1.9-.2 4.1-.5 4.8-.5.7-.1 2 1.4 2.8 3.3zm-25.8-1.9c2.4.7 3.1 4.4.8 4.4-1.8 0-7.6-3.2-7.6-4.3 0-.8 3.6-.9 6.8-.1zM57 621c0 .6-1.5 1.9-3.2 3-5.4 3.3-6 2.6-2.8-2.8 1.7-2.8 2.3-3.1 4-2.2 1.1.6 2 1.5 2 2zm21.9 3.7c1 2.9 1.6 5.3 1.5 5.3-.7 0-11.4-7.1-11.4-7.5 0-.8 5.5-3.4 6.8-3.2.8.1 2.1 2.6 3.1 5.4zM206.7 596.6c-1.3 2.2-2.8 5-3.2 6.4-.4 1.4-2.1 4.8-3.7 7.6l-2.8 5.1-10.2.2c-15.4.2-16.6 3-4.7 10.1 3.8 2.3 6.9 4.6 6.9 5 0 1.2-2.9 8-6.7 15.4-1.9 3.7-3.2 7.4-2.9 8.1.6 1.6 6.9.4 9.4-1.8 2.2-1.9 16.2-8.7 18-8.7 1.6 0 9.3 5.1 14.5 9.7 6.6 5.9 7.4 4.5 4.2-7.6-3.1-11.4-3.1-11.9 0-13.1 3.9-1.5 19.5-12 19.5-13.1 0-1.4-6.7-4-9.8-3.8-1.5.1-5.7.1-9.4.1-7.9-.2-8.2-.5-9.8-10.8-.9-5.4-1.7-7.5-3.9-9.8l-2.9-2.9-2.5 3.9zm4.6 18.6c-.2.5-2.2.8-4.4.8-4.4 0-4.8-1-2-5.5 1-1.7 2.4-4.8 3.2-7l1.3-4 1.2 7.5c.6 4.1 1 7.8.7 8.2zm-18 5.4c.8.8-1.5 4.4-2.8 4.4-.5 0-2.3-1.1-4-2.5l-3-2.4 4.6-.1c2.5 0 4.8.3 5.2.6zm16.5 0c2.6.7 5.2 5.1 5.2 8.9 0 1.9-.8 2.9-3.5 4.2-3.4 1.6-3.4 1.6-9-2-3-2.1-5.5-4-5.5-4.2 0-.3.7-2.1 1.4-4 1.3-3.1 1.9-3.5 5.3-3.5 2.1 0 4.8.3 6.1.6zm23.2 1c.7 1.3-9.8 6.7-11.5 6-.9-.3-1.5-1.9-1.5-3.9v-3.3l6.3.2c3.4 0 6.4.5 6.7 1zm-34.7 15c2.4 2.1 2.7 2.7 1.6 4-2.5 3-13 7.2-11.7 4.6.8-1.5 3.5-7.8 4.1-9.5.9-2.3 2.7-2.1 6 .9zm21.4 6.9l.6 3.8-3.4-2.4c-1.9-1.3-3.6-2.5-3.9-2.7-.3-.2.6-1.3 1.9-2.3 2.9-2.4 4-1.6 4.8 3.6zM65 665.5c.7.9 1.5 1.3 1.7 1.1.7-.7-.7-2.6-1.9-2.6-.6 0-.6.6.2 1.5zM116 667.5c0 .8.5 1.5 1 1.5.6 0 1-.7 1-1.5s-.4-1.5-1-1.5c-.5 0-1 .7-1 1.5zM61.5 690c.3.5.8 1 1.1 1 .2 0 .4-.5.4-1 0-.6-.5-1-1.1-1-.5 0-.7.4-.4 1zM77 691.9c0 .5.5 1.3 1 1.6.6.3 1 1.5 1 2.6s.4 1.8.9 1.5c1.2-.8-.2-5.9-1.7-6.4-.7-.2-1.2.1-1.2.7zM103.3 699.7c-.7.2-1.3 1.2-1.3 2 0 1 .6 1.3 1.6.9 1.2-.4 1.5-.2 1 .9-.3.8-.9 2.2-1.2 3-.5 1.1.1 1.5 2 1.5 3.6 0 4.6-4 1.7-6.9-1.2-1.2-2.2-2.1-2.3-2-.2 0-.9.3-1.5.6zM93 702.1c0 .5-.4.8-.9.5-2.1-1.3-4.4 4.6-2.7 6.9 1.1 1.6 1.4 1.6 2.9.1 1.4-1.4 2.2-8.6 1-8.6-.1 0-.3.5-.3 1.1zM230.9 726.2c-.4 1.1-.7 13.4-.2 14 1.9 3.2 5.3-7.5 3.8-12.1-.5-1.7-3.1-3-3.6-1.9zM177 693.2c-1.1 1.8-2.5 4.9-3.1 6.8-.7 1.9-2.4 6-4 9.1l-2.8 5.7-8.5.7c-4.7.4-9.3.4-10.4.1-1.1-.4-2.4 0-3.1.8-1 1.1-.2 2.2 4.1 5.9 2.9 2.5 6.5 5.6 8 6.9l2.8 2.3-3.6 9.3c-3.7 9.8-3.9 11.9-1.4 13.4 1.4.8 11.1-3.7 19.7-9.2 2-1.3 2.5-1.2 4.7.5 4.8 3.9 18.1 14.1 19.5 14.9.9.6 1.8.3 2.6-.8 1.1-1.4.6-3.9-3-14.4-5-14.6-5.1-14 4.5-19.1 3.3-1.8 7.3-4.4 9-5.8 4.7-3.9 2.8-4.8-10.8-4.8h-11.6l-2.3-6.5c-1.2-3.6-2.3-7.4-2.3-8.5-.1-2.8-3.7-10.5-5-10.5-.6 0-1.9 1.5-3 3.2zm3.9 12c.7 3.5 1.4 7.1 1.7 8 .5 1.6-.2 1.8-5 1.8h-5.5l2.9-6.6c1.7-3.6 3-7.2 3-8 0-.8.4-1.4.9-1.4.4 0 1.4 2.8 2 6.2zm2.9 14.7c2 1.2 4.2 8.4 3 9.8-2.1 2.6-10.8 7.4-12 6.7-.7-.4-2.9-2-5-3.6l-3.6-2.8 1.6-4.3c.8-2.3 1.9-4.7 2.3-5.2.9-1.3 12-1.8 13.7-.6zm-20.2 1.6c.4.8.1 2.2-.6 3-1 1.2-1.6 1.1-4.6-.8-1.8-1.2-3.4-2.5-3.4-3 0-1.5 8-.7 8.6.8zm38.4-.6c0 .5-2.1 1.9-4.6 3.2-3.8 1.8-4.8 1.9-5.5.8-1.8-2.9-.9-3.8 4.4-4.2 2.8-.2 5.3-.4 5.5-.5.1-.1.2.2.2.7zm-33 16.9l2.3 1.9-3.7 2.3c-4.5 2.7-6.1 1.8-4.5-2.8 1.3-3.6 2.7-4 5.9-1.4zm24.5 5.7c1.5 4.2 2.5 7.9 2.2 8.2-.6.5-14.7-9.4-14.7-10.3 0-.7 7.4-5.3 8.6-5.3.6-.1 2.4 3.3 3.9 7.4zM337 707.1c0 .5.5.7 1 .4.6-.3 1-.8 1-1.1 0-.2-.4-.4-1-.4-.5 0-1 .5-1 1.1zM333 712c0 .6-.7 1-1.6.8-1-.2-1.9.3-2.1.9-.5 1.5 4.3 1.8 5.2.3.3-.5 1.2-.7 2-.3.8.3 1.5.1 1.5-.5 0-1-2.3-2.2-4.1-2.2-.5 0-.9.5-.9 1zM119.4 757.4c-.4 1-.2 2.2.4 2.8.8.8 1.3.7 1.8-.6.4-1 .2-2.2-.4-2.8-.8-.8-1.3-.7-1.8.6zM130 764.3c0 .8.7 2 1.5 2.7 1.2 1 1.5 1 1.5-.3 0-.8-.7-2-1.5-2.7-1.2-1-1.5-1-1.5.3zM391.5 737c.3.5.8 1 1.1 1 .2 0 .4-.5.4-1 0-.6-.5-1-1.1-1-.5 0-.7.4-.4 1zM351 730.1c0 .5.5.7 1 .4.6-.3 1-.8 1-1.1 0-.2-.4-.4-1-.4-.5 0-1 .5-1 1.1zM256.6 740.7c-.6 1.4-.5 1.5.5.6.7-.7 1-1.5.7-1.8-.3-.3-.9.2-1.2 1.2zM253.6 752.9c-.4.5-.2 1.2.3 1.5.5.4 1.2.2 1.5-.3.4-.5.2-1.2-.3-1.5-.5-.4-1.2-.2-1.5.3zM51 758.7c-.8.2-3.3 4.1-5.5 8.6l-4 8.2-9.4.3c-11.2.3-13.2 1.4-9.9 4.9 1.2 1.3 4.6 3.8 7.5 5.4 2.9 1.7 5.3 3.7 5.3 4.6 0 2.5-5 18.2-6.1 18.8-1.7 1.1-1 5.3 1.1 6 2.3.7 6.2-1.2 16.2-8.2l7.7-5.4 8.8 5.9c12.1 8.1 12.9 8.5 15.3 7.2 1.1-.6 2-1.5 2-2 0-.4-2.1-5.2-4.6-10.5-2.5-5.3-4.3-10.3-4-11 .3-.8 3.8-3.2 7.9-5.5 14.4-7.8 13.6-9.7-4.2-10.7l-12.2-.6-4.2-8.1c-4.2-8-4.9-8.7-7.7-7.9zm4.3 12c1.8 4.7 1.5 5.3-2.9 5.3-3.8 0-4-.6-2-5.5 1.9-4.5 3-4.4 4.9.2zm-17.5 10.8c.7 3.4-1.4 3.8-5.7 1.1-2.2-1.5-4.1-2.9-4.1-3.1 0-.3 2.1-.4 4.8-.2 3.4.3 4.8.9 5 2.2zm39.6-.6c.3.5-1.4 1.9-3.9 3.2-4.4 2.3-4.5 2.3-5.9.4-2.3-3-2-3.4 3.2-3.8 2.6-.2 5-.4 5.4-.5.4-.1.9.2 1.2.7zm-15.5 4c1.9 3.7 1.9 3.9.3 5.4-1 .9-3.5 2.3-5.5 3.2-3.7 1.5-3.8 1.5-8.3-1.6-5.5-3.7-6.1-5.1-4-8.4 1.5-2.3 2.3-2.5 8.6-2.5h7l1.9 3.9zm-16.5 11.2c1.4 1.1 2.6 2.4 2.6 2.8 0 .4-2.2 1.7-5 2.8-5.7 2.4-6.2 1.7-3.4-4.3 1.9-4 2.3-4.1 5.8-1.3zm23 2.9c1.7 4.2 2.1 7 1 7-1.4 0-9.3-5.6-9.4-6.5 0-1 4.7-4.4 6.1-4.5.4 0 1.4 1.8 2.3 4zM94.7 758.4c-1.5 1.2-1.5 1.5-.2 2.6.8.7 2.2 1 3 .6 1.3-.4 1.4-1 .5-2.6-1.3-2.3-1-2.3-3.3-.6zM358.4 775.1c-1 1.1-3.9 6-6.4 10.7l-4.5 8.7-11 .5c-13.1.6-14.1 1.8-5.2 6.6 3.2 1.7 6.7 4 7.8 5.1l2.1 2-4.1 8.5c-2.2 4.7-4.3 9.7-4.7 11.2-.5 2.3-.3 2.6 1.9 2.6 1.4 0 4.9-1.6 7.8-3.5 3-1.9 5.8-3.5 6.4-3.5.6 0 2.7-1.2 4.8-2.6 2.1-1.4 4.6-2.6 5.5-2.6.9-.1 6 2.6 11.2 5.8 11 6.9 12.2 7.5 14 6.4 1-.6.9-1.4-.4-3.6-.9-1.6-2.7-6.7-4.1-11.4-2.8-9.9-3.2-9 7.7-14.6 11.6-5.9 10.4-7.9-4.9-7.9h-10.6l-1.2-4c-2-6.2-7.5-16.5-8.9-16.5-.7 0-2.1.9-3.2 2.1zm4.9 12.4c2.7 5.6 2.3 6.5-2.8 6.5-3.6 0-4.5-.3-4.5-1.8 0-2 3.6-8.2 4.8-8.2.5 0 1.6 1.6 2.5 3.5zM345 800c0 .4-.6 1.3-1.4 1.9-1 .9-2.1.7-4.5-.6-1.7-1-3.1-2-3.1-2.3 0-.3 2-.4 4.5-.2s4.5.8 4.5 1.2zm22.9-.7c.6.8 1.4 2.7 1.7 4.4.5 2.7.2 3.3-4.1 6.2-2.5 1.7-4.9 3.1-5.3 3.1-1.8 0-11.2-5.7-11.2-6.8 0-.7.7-2.6 1.5-4.2 1.4-2.7 2-2.9 8.3-3.3 3.7-.2 7-.4 7.3-.5.4-.1 1.2.4 1.8 1.1zm15.1-.6c0 1.2-6.1 4.4-7.1 3.7-1.5-.9-1-3.2.9-3.7 2.9-.8 6.2-.7 6.2 0zm-9.5 15.9c.8 2 1.5 4.1 1.5 4.6 0 1.3-4.8.1-7.9-1.9l-2.5-1.6 2.8-2.3c3.6-3.2 4.3-3 6.1 1.2zM351 814l2.5 2-2.5 2c-3.1 2.5-9 5.3-9.6 4.7-.6-.6 2.2-7.5 3.7-9.4 1.5-1.8 2.9-1.6 5.9.7zM443 787c0 .5.4 1 .9 1 .6 0 1.3-.5 1.6-1 .3-.6-.1-1-.9-1-.9 0-1.6.4-1.6 1zM451 790c0 .5.7 1 1.6 1 .8 0 1.2-.5.9-1-.3-.6-1-1-1.6-1-.5 0-.9.4-.9 1zM228 815.1c0 .5.5.7 1 .4.6-.3 1-.8 1-1.1 0-.2-.4-.4-1-.4-.5 0-1 .5-1 1.1zM215.7 823.6c-1.3 1.3-.7 2.4 1.4 2.4 1.1 0 1.9-.5 1.7-1.2-.5-1.4-2.2-2.1-3.1-1.2zM132.4 814.4c-1 .8-1.6 1.7-1.3 2 .3.3 1.4-.1 2.5-.8 1-.8 1.6-1.7 1.3-2-.3-.3-1.4.1-2.5.8zM196 831.5c-1 1.2-.9 1.5.8 1.5 1.1 0 2.2-.7 2.6-1.5.3-.9 0-1.5-.8-1.5-.7 0-1.9.7-2.6 1.5zM0 301.7c0 1 1.3 3.1 3 4.6 1.7 1.6 3 3.7 3 4.8v2.6c0 1.8-2.2.6-4.1-2.2l-2-3 .6 4c.3 2.2.8 5.7 1.1 7.7.4 2.5.2 3.8-.5 3.8-.6 0-1.1 1.7-1.1 3.7v3.7l3-2.9c1.9-1.8 3-3.9 3-5.5 0-1.5 1.1-3.9 2.5-5.4C12.8 313 11.6 309 4 303c-3.4-2.7-4-2.9-4-1.3zM0 342.9v6.3l2.7-.7c1.6-.4 3-.8 3.2-1 .6-.7-1.8-5.7-3.9-8.5l-2-2.5v6.4zM19.5 403.1c-1 1.5.3 2.5 1.6 1.2.7-.7.7-1.3.1-1.7-.6-.3-1.4-.1-1.7.5zM23.3 407.4c.7 1.5 1.6 2.1 2.1 1.6.6-.6.4-1.5-.4-2.5-1.9-2.3-2.9-1.8-1.7.9zM.3 461.5c.4 3.6 1.2 6.4 2.1 7.1.9.6 1.2 1.5.7 2-1 1 5.3 11.4 6.9 11.4 2.6 0-.8-9.3-4.6-12.5-.6-.6-1.4-3.2-1.8-6-.3-2.7-1.3-5.6-2.2-6.5-1.5-1.4-1.6-1-1.1 4.5zM.2 502.5c0 1.6.2 2.2.5 1.2.2-.9.2-2.3 0-3-.3-.6-.5.1-.5 1.8zM7.5 504c-.3.5-.1 1 .4 1 .6 0 1.1-.5 1.1-1 0-.6-.2-1-.4-1-.3 0-.8.4-1.1 1zM5.5 507c-.3.5-.1 1 .4 1 .6 0 1.1-.5 1.1-1 0-.6-.2-1-.4-1-.3 0-.8.4-1.1 1zM.1 537.6c0 1.1.3 1.4.6.6.3-.7.2-1.6-.1-1.9-.3-.4-.6.2-.5 1.3zM4 538.3c0 .1-.4 1.7-.9 3.5-.7 2.5-.7 3.2.2 2.9 1.4-.4 2.8-6.7 1.6-6.7-.5 0-.9.1-.9.3zM15.3 554.5c-.3.9-.3 1.8-.1 2.1.3.3.8-.4 1.1-1.6.6-2.3-.1-2.7-1-.5zM7.5 556c.3.5.8 1 1.1 1 .2 0 .4-.5.4-1 0-.6-.5-1-1.1-1-.5 0-.7.4-.4 1zM.1 576.6c0 1.1.3 1.4.6.6.3-.7.2-1.6-.1-1.9-.3-.4-.6.2-.5 1.3zM0 584.9c0 1.7.5 3.1 1 3.1.6 0 1-1.1 1-2.4 0-1.4-.4-2.8-1-3.1-.6-.4-1 .7-1 2.4zM5.7 592.7c-.4.3-.7 1.6-.7 2.7.1 2.1.1 2.1 1.5.2.8-1.1 1.5-2.3 1.5-2.8 0-1-1.4-1.1-2.3-.1zM4 600.9c0 .6.5 1.3 1 1.6.6.3 1-.1 1-.9 0-.9-.4-1.6-1-1.6-.5 0-1 .4-1 .9zM1 649c0 .5.4 1 .9 1 .6 0 1.3-.5 1.6-1 .3-.6-.1-1-.9-1-.9 0-1.6.4-1.6 1zM22.6 666.8c-.7 1.2.4 5.2 1.5 5.2 1.2 0 1.2-4.7 0-5.5-.5-.3-1.2-.2-1.5.3zM31.4 671.3c-.7 1.9 1.5 7.2 2.5 6.1 1.1-1.1.2-7.4-1-7.4-.5 0-1.2.6-1.5 1.3zM13.5 674c-.3.5-.1 1 .4 1 .6 0 1.1-.5 1.1-1 0-.6-.2-1-.4-1-.3 0-.8.4-1.1 1zM28.7 682.7c-1.1 1-.8 5.3.3 5.3.6 0 1-1.4 1-3 0-3.1-.2-3.5-1.3-2.3zM6.7 685.7c-.4.3-.7 1.1-.7 1.7 0 .6.5.5 1.2-.2.6-.6.9-1.4.7-1.7-.3-.3-.9-.2-1.2.2zM485.5 705.1c-.4.6-.5 1.3-.2 1.6.7.7 2.7-.6 2.7-1.8 0-1.2-1.7-1.2-2.5.2zM19.8 716.9c-1.9 1.7-4.7 3.5-6.2 4.1-3.1 1.1-3 3.3 0 3.8 2.9.4 11.9-5.8 11.9-8.2 0-3.1-2-2.9-5.7.3zM26.7 717.7c-.4.3-.7 1.5-.7 2.5 0 2.8-5 8.7-9.2 10.9-3.9 2-4.9 4.5-2.3 5.5.8.4 2.7-.2 4.3-1.1l2.7-1.8-2.5 2.9c-1.3 1.6-4.4 5-6.9 7.6-2.8 3-4.2 5.2-3.8 6.2 1.2 3 3.3 1.6 10.8-7 10.4-12.2 10.4-12.1 8.9-13.9-1-1.1-1-1.8-.1-2.9 2-2.4 3-7.3 1.8-8.5-1.3-1.3-2.1-1.4-3-.4zM32.5 718c-.3.5-.1 1.9.5 3 2.1 3.8 7.7 5.3 10 2.5 1-1.2.9-1.6-.6-2.2-1.1-.3-3.1-1.5-4.6-2.5-2.9-2-4.4-2.3-5.3-.8zM464.5 721.9c-.6 1.1.9 2.3 1.9 1.4.9-.9.7-2.3-.3-2.3-.6 0-1.2.4-1.6.9zM0 731.3c0 3.9 4.1 11.7 6.1 11.7 1.7 0 .3-7.2-1.6-8.6-.8-.6-1.5-1.5-1.5-2.1 0-.5-.7-1.8-1.5-2.9-1.3-1.8-1.4-1.7-1.5 1.9zM281.8 816.7c.7.3 1.6.2 1.9-.1.4-.3-.2-.6-1.3-.5-1.1 0-1.4.3-.6.6zM273.8 824.2c-.6 1.3 1.3 4.8 2.6 4.8 1.1 0 .7-2.5-.7-4.4-1.1-1.5-1.5-1.6-1.9-.4zM186 849.1c0 .5.5.7 1 .4.6-.3 1-.8 1-1.1 0-.2-.4-.4-1-.4-.5 0-1 .5-1 1.1zM5.1 852.1c-1.4.5-3.1.7-3.8.5-.8-.3-1.3.2-1.3 1.3 0 1.6.5 1.7 5.6.7 3.9-.7 6.4-.6 8.5.1 3.6 1.4 4.7 0 1.7-2.1-2.5-1.8-7-2-10.7-.5zM253.5 852c-.3.5-.1 1 .4 1 .6 0 1.1-.5 1.1-1 0-.6-.2-1-.4-1-.3 0-.8.4-1.1 1zM293 856.1c0 .5.5.7 1 .4.6-.3 1-.8 1-1.1 0-.2-.4-.4-1-.4-.5 0-1 .5-1 1.1zM0 859.8c0 1 .6 1.9 1.3 1.9.6 0 4.1.8 7.6 1.7 4 1 6.8 1.3 7.4.7 1.3-1.3 0-3.1-2.2-3.1-1 0-3.5-.7-5.4-1.5-5.1-2.1-8.7-2-8.7.3zM243 859.5c0 .8.5 1.5 1 1.5.6 0 1-.7 1-1.5s-.4-1.5-1-1.5c-.5 0-1 .7-1 1.5zM282 863c0 .5.5 1 1.1 1 .5 0 .7-.5.4-1-.3-.6-.8-1-1.1-1-.2 0-.4.4-.4 1zM85.5 865c-.3.5.1 1 .9 1 .9 0 1.6-.5 1.6-1 0-.6-.4-1-.9-1-.6 0-1.3.4-1.6 1zM275 865c0 .5 1 1 2.3 1 1.8 0 1.9-.2.7-1-1.9-1.3-3-1.3-3 0zM323.5 865c-1.9.8-1.9.9.3.9 1.2.1 2.2-.4 2.2-.9 0-.6-.1-1-.2-.9-.2 0-1.2.4-2.3.9zM96.3 868.1c-1.4 1.4-.4 5.9 1.3 5.9.9 0 1.4-1.2 1.4-3.5 0-3.6-.8-4.3-2.7-2.4zM0 871.1c0 2.5.4 2.9 2.6 2.9 2 0 2.5-.4 2-1.6-.5-1.3-.1-1.5 2.4-1.2 3.8.6 4-.8.3-1.6-7.5-1.6-7.3-1.7-7.3 1.5zM77.3 869.3c-3.8 1.3-4.3 2.7-1 2.7 3.8 0 6.7-1.2 6.7-2.6 0-1.6-1.1-1.6-5.7-.1zM51.6 870.9c-2.1 2.3-2 4.1.2 4.1 2.1 0 4.2-1.8 4.2-3.6 0-2-2.7-2.4-4.4-.5zM65.9 872.7c-1.3 1.5-1.2 1.5.9.4 2.3-1.2 2.8-2.1 1.3-2.1-.5 0-1.5.7-2.2 1.7zM227.8 871.7c.7.3 1.6.2 1.9-.1.4-.3-.2-.6-1.3-.5-1.1 0-1.4.3-.6.6zM91.3 873.9c-2.3 1.9-3.1 4.1-1.5 4.1.5 0 1.8-1.3 3-3 2.5-3.4 1.8-3.9-1.5-1.1zM210 872.4c0 .9 3 1.4 3.5.6.4-.6-.3-1-1.4-1-1.2 0-2.1.2-2.1.4zM43 874c-.9.6-1 1-.3 1 .6 0 1.5-.5 1.8-1 .8-1.2.4-1.2-1.5 0zM102.9 874.6c-1.6 1.9-.7 2.6 2.6 2.2 2.6-.3 2.6-.3.6-2-1.7-1.4-2.1-1.5-3.2-.2zM200 874.1c0 .5.5.7 1 .4.6-.3 1-.8 1-1.1 0-.2-.4-.4-1-.4-.5 0-1 .5-1 1.1zM61.4 876c0 2.3 2.1 2.7 2.9.6.5-1.1-1.1-2.6-2.7-2.6-.1 0-.2.9-.2 2zM70.5 875c-.3.6.1.7.9.4 1.8-.7 2.1-1.4.7-1.4-.6 0-1.3.4-1.6 1zM55.4 875.9c.4.5 0 1.2-.6 1.4-.7.3-.1.6 1.3.6 1.6.1 2.6-.4 2.6-1.4 0-.8-.9-1.5-1.9-1.5-1.1 0-1.7.4-1.4.9zM95.7 875.6c-1.1 1.1.3 2.4 1.8 1.8.8-.4 1.2-1 .9-1.5-.6-1.1-1.8-1.2-2.7-.3zM184.5 876c-.3.5-.2 1 .4 1 .5 0 1.3-.5 1.6-1 .3-.6.2-1-.4-1-.5 0-1.3.4-1.6 1zM217.3 876.5c0 .8.8 1.5 1.7 1.5.9 0 1.7-.7 1.7-1.5s-.8-1.5-1.7-1.5c-.9 0-1.7.7-1.7 1.5zM223.3 876.5c0 .8.6 1.5 1.3 1.5.6 0 1.4-.7 1.8-1.5.3-1-.1-1.5-1.3-1.5-1 0-1.8.7-1.8 1.5zM232.8 875.7c.7.3 1.6.2 1.9-.1.4-.3-.2-.6-1.3-.5-1.1 0-1.4.3-.6.6zM166.8 876.7c.7.3 1.6.2 1.9-.1.4-.3-.2-.6-1.3-.5-1.1 0-1.4.3-.6.6zM73.3 877.7c.9.2 2.3.2 3 0 .6-.3-.1-.5-1.8-.5-1.6 0-2.2.2-1.2.5zM235.7 877.7c1.8.2 5 .2 7 0 2.1-.2.7-.4-3.2-.4-3.8 0-5.5.2-3.8.4zM248.8 877.7c1.2.2 3.2.2 4.5 0 1.2-.2.2-.4-2.3-.4s-3.5.2-2.2.4zM291.8 877.7c.6.2 1.8.2 2.5 0 .6-.3.1-.5-1.3-.5-1.4 0-1.9.2-1.2.5zM297.8 877.7c.7.3 1.6.2 1.9-.1.4-.3-.2-.6-1.3-.5-1.1 0-1.4.3-.6.6zM306.3 877.7c.9.2 2.5.2 3.5 0 .9-.3.1-.5-1.8-.5-1.9 0-2.7.2-1.7.5z"/></svg>