<svg version="1" xmlns="http://www.w3.org/2000/svg" width="666.667" height="1170.667" viewBox="0 0 500 878"><path d="M406.1 2.7c2.3 6-2.3 11.4-14.6 17.1-14.2 6.5-24.2 17.3-28.6 30.8-6.3 19.2-.8 40 14.3 53.8 7.9 7.2 14.8 10.9 24.9 13.5 3.8 1 7.4 2.2 8 2.8.5.5 1.2 6.4 1.6 13.1.5 10.5.3 12.2-1 12.2-2.9 0-17.3 8-22.4 12.5-11.7 10.3-19.7 30.4-17.8 44.9 1.6 11.5 9.7 27.1 18.1 34.7 3.9 3.5 13.8 9 19.9 11l5 1.6-.1 12.8v12.8l-6.1 2.3c-17.2 6.4-30.9 22-35.8 40.6-2 7.6-1.7 25 .5 30.3 7 16.8 17 28 30.6 34.6l8.2 4 .4 4.7c.1 2.6.2 6.5 0 8.8-.3 3.8-.6 4.2-5.6 6.6-10.8 5.3-19.6 15-24.7 27-4.1 9.4-5.1 23.2-2.4 32.3 4.3 14.9 14.4 27.7 27 34 3.3 1.7 6.1 3 6.2 3 .1 0 .4 10.2.7 22.8l.6 22.7-4.8 2.4c-20.5 10.4-32.2 35.8-26.7 58.1 3.6 14.7 13.5 27.5 26.2 34.3l6.2 3.3v19.4c-.1 10.8-.5 19.5-1 19.5s-.9-.6-.9-1.4c0-2.3-2.1-3.1-9-3.2-3.6 0-10-.2-14.3-.3l-7.8-.1.6-5.4c.6-4.2.3-6.1-1.3-9.2-3.6-7.1-7.8-9.1-20-9.7-3.9-.2-7.3-.6-7.3-.8-.1-.2.3-2.2.9-4.4.6-2.2.9-6.5.7-9.5-.8-13-1.8-14.9-7.8-15.3-2-.2-4-.6-4.4-1.1-.4-.4-.8-3.8-.8-7.4 0-6.6 0-6.7-2.9-7-1.5-.2-4-.1-5.3.3-2.4.6-2.5.8-1.9 5.8 1.5 11 2.2 9.9-7.9 12.4-4.9 1.3-9.9 2.1-11 1.8-1.1-.2-4.8-2.8-8.2-5.7-5.6-4.6-6.3-5.6-6.3-8.8 0-4.3-2.7-8.9-7.4-12.5-2.2-1.7-3.6-3.6-3.6-4.9 0-1.2-.7-3.1-1.5-4.3-1.4-2-1.3-2.4 1.1-4.8 2.2-2.2 2.5-3.2 2.1-6.3-.4-1.9-.1-5.5.5-7.9.9-3.7.8-4.9-.7-7.7-1.7-3.1-1.7-3.6-.3-6.7.9-1.9 3.3-8.6 5.4-14.9 4.3-13 5.5-15 9.5-15 3.6 0 7.6-1.8 8.4-3.8.9-2.4-.2-2.6-1.5-.3-.6 1.2-1.7 2.1-2.5 2.1-2 0-2-4.9.1-7.8 2.1-3.1 4.4-2.8 4.4.5 0 3.2 1.5 2.1 2.5-1.8.6-2.3.1-2.9-3.9-5.3-2.4-1.4-5.3-2.6-6.4-2.6-1 0-2.7-.9-3.7-2-1.3-1.4-3.1-2-6-2-2.2 0-4.6-.5-5.1-1-1.4-1.4-7-.1-8.9 2-2.8 3.1-3 9.1-.5 12.2 1.2 1.6 3 2.8 4.1 2.8 2.5 0 2.5.2-1.4 10.1-1.8 4.6-4.1 11.2-5.1 14.6-1.1 3.5-2.2 6.3-2.6 6.3-1.1 0-3-4.8-2.5-6.2.2-.7-.7-3.1-2-5.3-2.8-4.6-3.5-5.9-6.5-13.5-1.2-3-3.1-6.5-4.2-7.7-2.6-2.8-1.3-5.2 4.7-8.4 3.5-1.8 5.3-3.6 7.1-7.1 2.5-4.9 3.1-5.3 11-6.1 3.1-.4 5.2-1.5 8.2-4.4l4.1-4-.3-9c-.1-6.3.2-9.7 1.1-10.9 1.9-2.6 1.6-6.8-.7-8.9-1.1-1-2-2.5-2-3.3 0-4.3-6.2-9.9-12.4-11.1-2.4-.5-3.2-1.3-3.4-3.4-.4-3.4-6.7-8.7-10.3-8.7-1.5 0-4.2-.6-6-1.4-2.3-1-3.9-1.1-5.5-.4-1.4.7-2.8.7-4 0-1.1-.6-4.8-.8-8.4-.6-7.8.5-13.3 3.5-18.7 9.9-3.2 3.9-4.2 4.5-7.5 4.5-4.6 0-7.8 2.8-7.8 6.8 0 2-.7 3.3-2.5 4.2-4.3 2.3-6.7 7.5-5.9 12.9.7 4.9 3.7 9.1 6.4 9.1.9 0 2.9 1.3 4.5 3 2.8 2.9 2.8 3 1 5-1.5 1.7-2.9 2-8.3 1.8l-6.5-.3-2.1 3.9c-2.5 4.8-3.8 5.3-5.1 2.4-.6-1.2-2.1-2.5-3.5-2.9-1.5-.3-2.3-1.1-2.1-2 .3-.8.5-2.8.5-4.4.1-2.6-.3-3-2.9-3.3-3.8-.4-6.5 1.6-7.9 5.9-.9 2.6-1.8 3.5-4.5 4-3 .6-8 5-8.1 7.1-.1 2.1 4.1.4 6.1-2.3 2.3-3.3 3.4-3 4.4 1.3.6 2.3.4 2.8-1.1 2.8-4.4 0-19.5 9.8-23.8 15.5-2.9 3.7-6.2 5.3-7.9 3.6-1.9-1.9-4.6-1.2-6.3 1.5-1.3 1.9-2.3 2.4-4.1 1.9-1.3-.3-4.2-.1-6.3.5-5 1.3-5.2 3.7-.8 7l3.1 2.3-2.6 1.9c-1.5 1.1-2.7 2.8-2.7 3.9 0 1.4-1 2-4 2.5-6.7 1.1-4.7 2.8 2.3 2 5.6-.5 6.6-.4 8.2 1.4 1.6 1.8 1.7 2.3.5 4.6-.8 1.4-2.5 3.6-3.8 4.9-3.4 3.4-6.1 8.9-8.7 17.5-2 6.8-2.5 7.5-5.1 8-1.9.3-3.3 1.5-4.2 3.3-.7 1.5-1.9 2.7-2.7 2.7-.8 0-2.6 1.1-4.1 2.4-2.7 2.3-2.8 2.4-1.1 5 1.2 1.7 2.6 2.6 4.4 2.6 2.6 0 2.6 0 .8 2.1-1.5 1.6-2.6 1.9-5.6 1.4-3.5-.6-6.9 1.1-6.9 3.5 0 1.7 2.1 2.2 3.7.8 1.9-1.5 8.5-1.8 9.5-.3.5.6 1.2.5 2-.3.6-.6 1.5-1.2 1.9-1.2 1 0-1.7 10-3 11.3-.6.6-1.1 2.5-1.1 4.2 0 1.7-.4 3.5-.9 4-1.4 1.4-5.1 12.5-5.1 15.1 0 1.2-1.5 4-3.3 6.1-3.8 4.7-4.7 7.3-8.3 25.3-1.4 7.4-3.1 14.6-3.6 15.9-.8 2.4-.9 2.4-2.2.5-.9-1.2-1.7-7.6-2.3-18-.8-14-1.3-16.6-3.2-19.8-2.5-4-4-4.6-4.8-1.6-.3 1.1-.9 2-1.4 2-1.1 0-1.1.4.1-6 1.1-5.5.5-9.5-1.1-8.5-.5.4-.9 2-.9 3.7 0 3.4-3.7 9.8-5.7 9.8-1 0-1.3 3-1.3 11.7 0 6.5-.3 14.2-.6 17.1-.7 5.1-.7 5.2-4.1 5.2-1.8 0-4.1-.4-5.1-1-.9-.5-2.9-1.4-4.3-1.9-2.2-.8-2.6-1.6-2.7-5.5-.1-2.5.3-5.5 1-6.6 1.5-2.4 1-2.9-3.9-4-3.2-.8-4.1-.6-6 1.2-1.3 1.2-2.3 3.2-2.3 4.5 0 1.8-.6 2.3-2.5 2.3s-2.6-.7-3.1-2.7c-1-4.9-1.3-5.3-3.6-5.3-1.3-.1-3.4-.7-4.8-1.5-4-2.3-5.8-1.8-6.5 1.6-.6 2.7-.2 3.6 2.9 6.8 2 2 3.6 4.1 3.6 4.7 0 .6-1.3 2-3 3.2-3.3 2.5-3.9 4.7-1.4 5.6.9.3 5.8.6 11.1.6 10 0 11.6 1.1 6 3.8-3.9 1.9-3.4 3.8.9 3.3 1.3-.2 2.8 4.5 1.9 5.9-.3.6-1.6.5-3.2-.1-1.4-.5-4.9-1.2-7.6-1.4-4.1-.3-5.7-1.1-8.7-4-3.6-3.5-8.2-4.7-9.5-2.5-1.6 2.6-2.5-.8-2.5-9.1v-9.1l4.5-5.8c2.5-3.2 4.5-6.3 4.5-6.9 0-2.5-2.2-1.9-6 1.7l-4 4v32.3l3-1.6c3.7-1.9 5.9-1.9 6.6 0 1.1 2.6 6.8 5.2 12.9 5.8 3.3.3 8 1.5 10.4 2.7 3.1 1.6 5.3 2 7.7 1.5 4.3-.8 5.5 1.4 2.5 4.6-1.2 1.3-2.1 2.8-2.1 3.5 0 2.8-4 5.8-9.9 7.4-6 1.7-6.2 1.7-8.7-.2-1.4-1.1-3.5-2.1-4.8-2.2-2.1-.1-2.5-.8-2.9-4.8-.8-6.7-2.2-8.8-5.7-8.8-1.7 0-3-.4-3-.8 0-.8-4.3-3.2-5.5-3.2-.3 0-.5 1.5-.5 3.4 0 4.3 2.4 7 5.6 6.2 2.7-.7 3.1.5.9 2.4-1.9 1.6-2 6-.1 6 1.7 0 2.8 3.8 1.2 4.3-.6.2-1.1 1.7-1.2 3.3 0 1.6-.4 3.7-.8 4.6-.5 1.1-.1 2 1.2 2.7 1.6.8 2.6.6 4.7-1.1 2-1.5 2.9-1.8 3.8-.9.6.6 2.1 1.1 3.3 1.1 2.8 0 3.4.9 2.3 3.7-.8 2.1-1.3 2.2-10.9 2-8.8-.2-10-.1-10 1.4s1.1 1.7 9.8 1.4c5.3-.2 11.6.1 14 .7 3.1.8 4.6.7 5.6-.1 2-1.6 17.3-1.2 18.8.6.6.7.8 1.6.5 1.9-.3.3-11.4.5-24.6.5C.9 746.9 0 747 0 748.8c0 1.9.8 2 16.8 1.8 9.2-.2 20.3 0 24.7.3l8 .6v3.5c0 5.1 1 6 6.8 6 7.9 0 8 .3 5.8 10.1-1 4.6-3 12.2-4.4 16.9-1.4 4.7-4.2 15.7-6.2 24.5s-4.1 17.3-4.6 18.9c-1.8 5.6-1.2 7.6 2.8 9.3 4 1.6 14.6 1.5 16.2-.3.5-.5 2.8-7.6 5-15.9 2.3-8.2 4.5-15.3 4.9-15.7.5-.5 4.2-.3 8.4.3 14.8 2.4 19.3-2.8 22.3-26.1.8-6.1 4.2-17.9 5.7-19.5.6-.6 15.3-1.1 39.1-1.3 21-.1 39.8-.3 41.7-.4 10.3-.4 15.7 1 9.6 2.6-3.9 1-5.6 3.4-5.6 8 0 4.3-.4 5-7.7 14.7-1.8 2.3-3.3 5-3.3 5.9 0 2 10.4 9.9 13.4 10.2 1.1.1 6.2.2 11.1.3 5 .1 11.5.9 14.5 1.8s7.3 2.1 9.4 2.7c3.9 1.2 7.6 1 19.6-.9 3.6-.6 9.4-1.1 13-1.2 5.8-.2 7.4.3 14.6 3.9 7.9 4 13.2 8.7 16.4 14.7 1.1 2.1 1.2 3.4 0 7.8-2.7 10.8-.4 16.8 8.2 21.1 4.3 2.2 6.6 2.6 13.5 2.6 8 0 8.6-.2 17.9-5 5.3-2.8 12.6-5.8 16.3-6.6 11-2.8 16.7-5.3 24.3-11.2 4-3 7.5-6 7.7-6.5.2-.5 1.6-2.4 3.2-4.1 1.7-2 2.9-4.6 3-6.7.4-5.8 1-5.5-17.1-7.5-4.5-.5-6.8-.1-12.4 2-5.3 2-8.6 2.6-15 2.6h-8.2l-1.8-4.1c-2.5-5.6-9.7-7.9-13.6-4.4-1.6 1.4-2.1 1.1-6.1-4.1-2.4-3.1-5.8-7.2-7.5-9-1.8-1.9-3.5-4.5-3.8-5.9-.6-2.3-4.4-9.4-10.1-19-1.3-2.2-2.4-4.3-2.5-4.7-.1-1.7 14.8-2.8 32.5-2.3 26.9.7 47.9.5 55.5-.4 3.6-.5 6.6-.7 6.8-.6.2.1-.3 3-1.1 6.4-2.5 10.6 1.2 24.9 9.9 38.6 8.2 12.9 26.8 22.4 44.1 22.5 12.1 0 21.8-3.5 32-11.7 4.7-3.8 4.1-4.2 5.7 3.7 1.4 7.5 4.1 15.7 5.5 16.7 3.1 2.4 9.1 3.5 12.2 2.2l2.9-1.1v-17.2c0-14.6-.4-18.9-2.6-29.1-1.4-6.6-3-15.6-3.5-20s-1.2-9.2-1.5-10.8c-.5-2.2-.3-2.6 1-2.1.9.3 2.7.3 4.1 0l2.5-.6V0h-33.7c-18.6 0-33.2.4-32.5.8 2.1 1.4.4 4-2.4 3.4-2.1-.4-2.4-.1-2.4 2.5 0 1.6.9 3.9 2 5.1 1.1 1.2 2 3.1 2 4.2 0 3.2-3.7 1.6-8-3.3-4.7-5.4-5-6-4.2-8.8.6-2.3.6-2.3 1.2.6.8 4.3 3.3 3.9 4.1-.8l.6-3.7H405l1.1 2.7zm34.9-.5c0 2.4-1.2 5.8-2 5.8-1.3 0-1.8-3.6-.8-5.4 1.1-1.9 2.8-2.1 2.8-.4zm5.3 1.8c-.7 2.8-1.3 2.5-1.3-.6 0-1.4.4-2.3.9-2 .5.3.7 1.5.4 2.6zm18.6.7c1.9 3.8 2.4 8.4 3.7 31.9.6 10.6.5 12.2-1 12.7-1 .4-1.6 1.8-1.6 3.9-.1 3-.2 2.9-2-2-2.8-7.8-6.6-14-12-19.7l-4.8-5 .7-9.1c.6-6.8 1.3-10 3-12.7 2.1-3.4 2.6-3.7 7.2-3.7s5 .2 6.8 3.7zm8 0c.5 2.1 1.2 12.6 1.4 23.3.5 19.6 1.3 26 3.4 26.7.8.3.9-3.9.5-15.4-1.1-29-.9-37.8.8-37.8 1.2 0 1.5 2.3 1.7 13.5.1 7.4.5 28.3.8 46.5.4 18.7.3 35.4-.3 38.5-.8 4.8-.9 3.7-1.2-9-.1-8-.2-17.4-.1-21 .1-3.6-.3-7.9-.9-9.5-1.1-2.8-1.2-2.9-2.3-1-.7 1.4-1 12.1-.8 34.6.1 18-.1 33.9-.5 35.3-1 4.1-2.2 3-2.2-1.9.1-2.5-.4-5.1-1-5.7-.6-.6-.8-1.8-.3-2.7.7-1.3 1.1-15.5 1.3-43.1.1-8.3-.2-11-1.1-11-.5 0-1.2 6.5-1.6 14.5-.6 10.9-1.1 14.5-2 14.5-.8 0-1.7 1.5-2.1 3.2-1 4.6-.7 34.5.5 45.7 1.3 12.3.2 18.3-2.9 14.7-.9-1.1-.9-2 0-3.7.8-1.4 1-4 .5-7.3-.8-5.6-.7-40.9.1-44.1.5-1.8.3-1.7-1.4.4-1.6 2-2.1 5.2-3 20-.6 9.7-.9 20.4-.7 23.8.5 6.2-.5 8-2.4 4.5-.5-.9-.7-13.3-.5-28.4.3-25.8.4-26.8 2.6-30.7 1.3-2.3 2.5-4.1 2.8-4.1.3 0 .4 2 .2 4.5-.5 6 1.4 5.9 2.9-.1.7-2.5 1.8-4.8 2.5-5.1 1.1-.4 1.4-3.4 1.4-13.3 0-9.2.4-13.1 1.3-13.8 2-1.7 1.5-45.9-.7-53.2-.8-3-1.6-5.6-1.6-5.8 0-.1.9-.2 2-.2 1.4 0 2.2 1 2.9 3.7zm15.7 8.3c.1 6.3.3 21.3.5 33.2.2 11.9 0 22-.4 22.4-.4.4-.7 2.4-.7 4.5 0 3 .3 3.7 1.5 3.3 1.1-.5 1.5.1 1.5 2.1 0 2.2-.3 2.5-2 2-1.3-.4-2-.2-2 .6 0 .7-.2 1-.5.7-.3-.3-.7-18.6-.8-40.7-.2-35.7-.1-40.1 1.3-39.9 1.2.3 1.5 2.3 1.6 11.8zm8.1-7.3c-1.4 10.8-1.8 51.4-.6 54.7 1.1 2.9.9 3.8-1.2 7.3l-2.4 4-.3-34.4c-.1-18.9 0-34.9.3-35.4.4-.5 1.5-.9 2.7-.9 1.9 0 2 .4 1.5 4.7zm-85.3 5.9c.8 2.1-.1 3.4-2.3 3.4-2.5 0-3.2-1-2-3.1 1.2-2.3 3.5-2.5 4.3-.3zm9.4 3c-1 1-2.8-.6-2.8-2.4 0-1.5.1-1.5 1.7.1.9.9 1.4 1.9 1.1 2.3zm21 6.2c2.2.3 3.2 2.2 1.2 2.2-1.4 0-9-3.9-9-4.6 0-.3.5-.2 1 .1.6.4 1.6-.8 2.3-2.7l1.2-3.3.5 4c.4 3.2 1 4.1 2.8 4.3zm-10 5.7c10.5 5 18.7 13.4 22.7 23.5 2.6 6.5 3 8.7 3 17-.1 18.8-8.2 31.9-25 40.3-9.6 4.7-18.8 5.7-29.3 3.1-25.3-6.4-40.6-32.1-33.3-56.2 3.6-11.9 9.2-18.7 21-25.7 12.7-7.6 27.7-8.3 40.9-2zm64.9 48.2c-.3 1-.5.4-.5-1.2 0-1.7.2-2.4.5-1.8.2.7.2 2.1 0 3zm-31.3 10c-2.4 1.7-2.8 1-1.6-2.9.6-1.8 1.4-4.7 1.8-6.3.8-2.7.9-2.4 1.2 2.5.2 4.3-.1 5.7-1.4 6.7zM488.5 98c.8 0 1.8-1.2 2.1-2.7.7-2.5.8-2.5 2.1-.7.7 1 1.1 2.4.9 3-.3.7-.1 8.1.3 16.6.5 8.7.5 15.7 0 16.2-.5.6-.9 0-1-1.5 0-1.3-.3-3.5-.5-4.9-.3-1.4-.8-6.8-1.2-12-.6-7.7-1-9.5-2.3-9.8-1.1-.2-2.1.7-2.7 2.5-1 2.6-1 2.4-1.1-2.2 0-2.8.3-6.1.7-7.5l.7-2.5.3 2.7c.2 1.6.9 2.8 1.7 2.8zm-35.1 7.2c-.3 1.2-.6 9.7-.6 19 0 9.4-.1 16.8-.4 16.6-.2-.3-.6-5.1-.9-10.9-.3-5.7-.8-13.4-1.1-17-.4-4.2-.2-7.5.6-8.8 1.4-2.6 3.3-1.7 2.4 1.1zm33.6 4.4c0 .8-.5 1.2-1 .9-.6-.4-.8-1.1-.5-1.6.9-1.4 1.5-1.1 1.5.7zm-40 .4c0 .5-.4 1-1 1-.5 0-1-.5-1-1 0-.6.5-1 1-1 .6 0 1 .4 1 1zm-4.1 27.2c.1 4.3-.8 4.8-2.8 1.5-2-3.1-2.7-23.3-.9-25.4 1.1-1.4 1.5.1 2.5 9.3.6 6 1.2 12.6 1.2 14.6zm3.5-22.7c.3.8.1 1.5-.4 1.5-.6 0-1-.7-1-1.5s.2-1.5.4-1.5.6.7 1 1.5zm40.9 12.8c-.1 6.1-.5 11.2-.8 11.5-.3.3-.5-5.5-.4-12.9 0-7.4.4-12.5.8-11.5.4 1.1.6 6.9.4 12.9zm-4.9 6.2c.6 15.8.5 17.8-.8 16.2-1.1-1.5-1.5-5.6-1.5-19 0-9.5.3-16.6.8-16.1s1.2 9 1.5 18.9zm-48.1-11.8c.4 3.2 1 6.8 1.3 8 .9 3.2-.8 2.8-2.9-.6-1.7-2.8-2.4-11.1-1-12.4 1.5-1.5 2-.4 2.6 5zm13.1 6.3c.7 12.6 1.7 16.6 3.9 16.4 1.2-.1 1.7.6 1.7 2.2 0 2.8-.5 2.9-5.5.8-3.5-1.4-3.6-1.6-2-3.4 1.5-1.6 1.5-3 .5-13.5-.9-9.9-.7-14.7.5-13.3.1.2.5 5 .9 10.8zm-23.8-7.5c.4.8 1.2 1.5 2 1.5s1.4.9 1.4 2-.7 2-1.5 2-1.5-.9-1.5-2c0-2.6-2.7-3.7-5.2-2.1-2.3 1.4-3.3.9-2.5-1.4.8-2 6.6-2 7.3 0zm45.5 2.8c-.8.8-1.1.7-1.1-.4 0-2 1.3-3.4 1.8-1.9.3.7-.1 1.7-.7 2.3zM418.6 135c.2 3.9-.1 7-.7 7-.5 0-.9-1.9-1-4.3 0-2.3-.4-5.1-.8-6.2-.8-1.9.6-5.1 1.7-4 .3.3.7 3.7.8 7.5zm76 2.7c-.6 1.4-.9 1.5-1.6.4-1.1-1.9-.1-4.6 1.3-3.2.5.5.7 1.8.3 2.8zM429 140c2 2.8 2 3 .3 3-1.1 0-2.3-1.2-3-3-.6-1.7-.7-3-.3-3 .5 0 1.8 1.3 3 3zm5.8-.5c-.3.3-.9-.2-1.2-1.2-.6-1.4-.5-1.5.5-.6.7.7 1 1.5.7 1.8zm40.9 2.7c-.3.7-.5.2-.5-1.2s.2-1.9.5-1.3c.2.7.2 1.9 0 2.5zm-3.8 6.6c0 1.3-.3 2-.9 1.7-.5-.3-.9-2.7-.9-5.3.1-4.2.2-4.4.9-1.7.4 1.6.8 4 .9 5.3zm-27.9 4.4c19 8.1 30 23.6 30.1 42.4.1 12.2-2.9 21.7-10 31.5-10.2 14-30.1 21.3-47.9 17.5-9.8-2-18.6-7.1-25.8-14.9-14.2-15.2-17.2-35.1-8.1-53.7 6-12.2 22.4-24.2 35.2-25.8 8.6-1 20.1.2 26.5 3zm32.7 1.5c-.3 1-.5.4-.5-1.2 0-1.7.2-2.4.5-1.8.2.7.2 2.1 0 3zm11-1.5c-.3.8-.6.5-.6-.6-.1-1.1.2-1.7.5-1.3.3.3.4 1.2.1 1.9zm-14.8 8.9c-.2 5-1.6 5.6-2 .9-.4-4.4.1-7.1 1.1-6.5.6.4 1 2.9.9 5.6zm23.1 21.4c.4 10.1-.1 18.1-.9 16-.5-1.1-.9-9.7-1-19.1-.1-9.5-.4-18.1-.6-19.3-.2-1.2-.1-3 .3-3.9.6-1.5 1.6 10.4 2.2 26.3zm-8.1-19.8c-.1 4.4-.3 5.1-.8 2.8-.6-2.9-.3-8.5.5-8.5.2 0 .3 2.6.3 5.7zM478 160c0 .5-.4 1-1 1-.5 0-1-.5-1-1 0-.6.5-1 1-1 .6 0 1 .4 1 1zm.4 14.5c.6 3.8.6 3.9-.7 1.5-.7-1.4-1.1-3.3-.9-4.3.6-2.3.8-2 1.6 2.8zm11.1 17c-.2 4.4-.3 10.8-.3 14.3-.1 3.9-.7 7-1.6 8.4-1.8 2.5-2.1 6.4-.6 7.3 1.4.9 1.2 2.2-.4 2.8-.9.3-2.1-.4-3.1-1.9-1.3-2-1.3-2.8-.3-4.7.6-1.2 1.3-3.6 1.4-5.2.1-1.7.5-6.2.9-10 .7-7.5 1.1-14.9 1.5-26l.3-7 1.2 7c.6 3.8 1.1 10.6 1 15zm-6.7 6c-.4 11.9-.9 15-2.7 18.7-1.1 2.4-2.1 5.4-2.1 6.6 0 2.3-1.8 3.9-3 2.6-.4-.5.6-4.3 2.3-8.4 3-7.1 3.2-8.2 3.2-21.1 0-11.2.2-13.6 1.4-13.1 1.1.4 1.3 3.2.9 14.7zm11.9 9.2c-.3 1-.5.4-.5-1.2 0-1.7.2-2.4.5-1.8.2.7.2 2.1 0 3zm0 13c2.6 3.9.9 4.5-2 .8-2.5-3.1-2.7-3.8-1.5-5.2 1.2-1.5 1.3-1.4 1.7.3.2 1 1 2.8 1.8 4.1zm-1.8 10.7l-.1 3.1-1.3-3.5c-1.9-4.9-1.9-7.1 0-4.6.8 1.1 1.5 3.4 1.4 5zm-9.9 2.8c0 1.1-.6 1.5-2 1.1-1.5-.4-2 0-2 1.3 0 1-.8 2.7-1.9 3.8-3.5 3.9-5.1 10.5-4.8 19.4.5 10.5-.9 11.7-1.8 1.6-.9-9.4 1.3-19.5 5-23.4 1.4-1.4 2.5-3.2 2.5-3.9 0-.7.5-2.1 1.1-3.2 1-2 1.1-2 2.4-.2.8 1 1.5 2.5 1.5 3.5zm-10-1.5c0 1.4-.7 3.4-1.5 4.3-.8.9-2.1 3.4-2.9 5.6-1.1 3-1.5 3.4-1.5 1.6-.1-1.3.6-3.9 1.5-5.8s1.4-3.7 1.1-4.1c-.8-.8 1.1-4.3 2.3-4.3.6 0 1 1.2 1 2.7zm16 6.7c-.1 3.9-.3 4.7-1.1 3.4-1.3-2.2-2.8-10.6-2-11.3 1.3-1.4 3.1 3.2 3.1 7.9zm5.1 3.8c-.8 1.8-1 1.2-.9-3.2 0-5 .1-5.2.9-2.3.6 1.9.5 4 0 5.5zm-29.6-2c-1.1 5.7-1.6 6.8-2.6 6.3-1.5-1-1-5.7.8-7.7 2.3-2.5 2.6-2.3 1.8 1.4zm19.5 2.1c0 1.4-1.1 2.8-3.1 3.9-3 1.8-3 1.8-2.3-.5.9-3 3.7-6.6 4.7-6 .4.2.7 1.4.7 2.6zm-25 10.9c.1 5.7.3 15 .5 20.7.3 6.8.1 10.1-.5 9.5-.9-.9-2.1-14.1-2.4-26.6-.1-5.8-2.3-7.9-2.8-2.6-.2 1.8 0 8.2.3 14.3.6 11.9.4 13.2-1.6 11.5-1-.8-1.3-4.5-1.3-14.1.1-7.1-.2-13.2-.6-13.6-1.2-1.2-.6-5.1 1-6.3 1.3-1.1 1.6-1 2.1.8.8 3.2 2.3 2.7 2.3-.8 0-2 .5-3 1.5-3 1.2 0 1.5 1.8 1.5 10.2zm29.3 16c-.8 3.8-1.7 6.8-2 6.8-.3 0-.3-3.3.1-7.3.4-3.9.8-8.8 1-10.7.9-12.7.9-12.7 1.7-4 .5 6.3.3 10.3-.8 15.2zm5.4-20c-.3.8-.6.5-.6-.6-.1-1.1.2-1.7.5-1.3.3.3.4 1.2.1 1.9zm-46.6 1.1c-.1.4-.1 1.9-.1 3.3s-.4 2.3-1 1.9c-1.4-.8-1.3-6.8.1-6.3.6.2 1 .7 1 1.1zM442 254c0 1.6-.4 3.1-.9 3.4-1 .7-2.4-5.2-1.5-6.5 1-1.7 2.4.2 2.4 3.1zm36.7 16.5l-.2 4-1-4.3c-.6-2.3-.8-7.7-.6-12l.5-7.7.8 8c.4 4.4.7 9.8.5 12zm-57.7-9.3c0 6.4-.3 8.8-1 7.8-1.8-2.7-1.2-17 .7-17 .2 0 .3 4.2.3 9.2zm15.8-.1c.2 7.7.1 8.2-1.3 6.5-1.9-2.5-2.2-16-.3-15.4.9.3 1.4 3.3 1.6 8.9zm-10.8-5.7c0 1.4-.4 2.8-1 3.1-.6.4-1-.7-1-2.4s.5-3.1 1-3.1c.6 0 1 1.1 1 2.4zm5 .7c0 1.7-.4 2.8-1 2.4-.5-.3-1-1.7-1-3.1 0-1.3.5-2.4 1-2.4.6 0 1 1.4 1 3.1zm63.5 15.6c-.2 3.5-1 7.1-1.7 8.2-.9 1.5-.9 2.3.1 3.5.7.9 1.7 1.3 2.2 1 .5-.3.9 4.3.9 10.5 0 7.1-.4 11.2-1.1 11.7-.9.5-1-1.9-.5-9 .6-9.4.5-9.8-1.5-10.3-2.1-.6-2.1-.9-1.5-14.2.4-7.5 1-14.5 1.3-15.6 1.1-3.3 2.4 7.1 1.8 14.2zm-12.4-.4c-.8.8-1.1.4-1.1-1.4 0-3.3 1.4-4.7 1.8-1.9.2 1.2-.1 2.7-.7 3.3zm-57.4-2.1c-.3.8-.6.5-.6-.6-.1-1.1.2-1.7.5-1.3.3.3.4 1.2.1 1.9zm47.1 14.6c-.3 1.4-.7 1.2-2.1-.9-1-1.5-1.5-3.4-1.1-4.4.6-1.5.9-1.4 2.1.9.8 1.5 1.3 3.5 1.1 4.4zm12.2-3.9c0 2-1.7 3.7-2.7 2.8-.7-.8.7-4.7 1.8-4.7.5 0 .9.9.9 1.9zm-5 1.1c0 1.1-.4 2-1 2-.5 0-1.4-.9-2-2-.9-1.7-.8-2 1-2 1.3 0 2 .7 2 2zm-40 2.5c6.6.7 17 6.6 23.1 13.1 18.5 19.8 20 46.1 3.8 67.7-11.7 15.6-33.5 22.3-53.4 16.3-28.9-8.8-43.6-42.3-30.6-69.8 3.3-7 12.1-17.5 16.7-19.8 1.6-.8 4.6-2.6 6.7-3.9 7.6-4.9 14.8-5.6 33.7-3.6zm49.6 8.4c-.4 6-.1 11.9.9 17.7 1.2 6.7 1.5 13.7 1.1 30.2-.3 11.8-.7 21.6-.9 21.9-1.1 1.1-2.4-25.5-2.7-54.6-.1-9.1-.6-16.1-1.3-17.2-.8-1.3-.7-2.3.6-4.3 1-1.4 2-2.6 2.3-2.6.3 0 .3 4 0 8.9zm-21-3.9c2.7 0 4.7 2.3 4.2 5-.3 1.9-.8 1.5-4.8-2.7-2.5-2.6-3.8-4.2-3-3.5.7.6 2.4 1.2 3.6 1.2zm10.1 7.8c.1 4.5 0 8.2-.2 8.2-.1 0-1-1.2-2-2.6-1.6-2.4-1.6-2.6 0-3.8 1.4-1 1.5-1.7.6-3.4-1.5-2.9-1.4-7.5.2-7 .8.3 1.3 3.1 1.4 8.6zm5.8-6c0 1.8-2 1.5-2.3-.4-.3-1 .1-1.5 1-1.2.7.3 1.3 1 1.3 1.6zm-.2 15.2c.2 4.7.6 8.9.7 9.5.1.5.2 2.1.1 3.5l-.2 2.5-1-2.5c-1.6-3.8-1.8-23.4-.3-21.8.1.2.4 4.1.7 8.8zm12.4 20.2c-.2 1.3-.4.5-.4-1.7-.1-2.2.1-3.2.4-2.3.2 1 .2 2.8 0 4zM485 355c-.5 6.3.2 29.6 1 30.4.6.6 1.9.1 3.6-1.5l2.6-2.4-.8 3c-1.3 5.4-2.6 8.1-3.2 6.6-.6-1.8-6.9-7.4-9.3-8.3-2.1-.8-2.2-1.3-1.9-7.3.3-7 2-7.7 1.8-.7-.1 6.7.3 7.8 2.7 6.9 1.2-.5 1.5-2.4 1.5-9.5 0-4.9-.4-11.3-1-14.1-.7-3.8-.6-6.3.3-9.2l1.2-4 .8 4.3c.5 2.4.8 5 .7 5.8zm-6 7.2c0 1.3-.4 2.9-.9 3.7-.7 1.1-1.1.9-2.1-.8-.9-1.7-.9-2.6.1-3.7 1.7-2.1 2.9-1.7 2.9.8zm14.9 3.1c0 3.3-.2 3.8-.9 2.2-1.2-2.8-1.2-7.8 0-7 .6.3 1 2.5.9 4.8zm-4.2 2.4c-.3 1-.5.4-.5-1.2 0-1.7.2-2.4.5-1.8.2.7.2 2.1 0 3zm-16.7 5.1c0 2.6.5 5.3 1.2 6 .9.9.8 1.2-.6 1.2-1 0-3 .9-4.4 2.1l-2.6 2-.9-2.3c-1-2.9-.5-7 1-7.5.6-.2 1.3.6 1.5 1.9.2 1.3 1 2.3 1.8 2.3 2.1 0 2.6-4.3.6-5.1-1.9-.7-2.1-2.5-.4-4.2 2.1-2.1 2.8-1.3 2.8 3.6zm-10 7.1c0 2.8-1.1 5.2-2.1 4.5-1-.6-1.2-4.8-.2-5.7 1.2-1.3 2.3-.7 2.3 1.2zm-5.9 7.3l-.4 4.3-.8-3.5c-.9-3.7-.4-6.5.9-5.6.4.2.6 2.4.3 4.8zm17.4-1.7c0 .6-1.3 2.6-2.8 4.5l-2.8 3.5.7-4c.4-2.2.9-4.4 1.1-4.8.7-1.1 3.8-.4 3.8.8zm-21.6 1.7c0 1.3-.4 3.2-.8 4.2-.6 1.7-.9 1.5-2-1.2-1.4-3.3-.9-5.2 1.5-5.2.8 0 1.4.9 1.3 2.2zm-5.6 1.5c.8.7-1.1 3.3-2.4 3.3-.5 0-.9-.9-.9-2 0-1.9 2-2.7 3.3-1.3zm-6.5 6.4c.3 4.8.1 5.2-1.2 3.9-.8-.8-1.5-3.1-1.6-5-.3-4.8-.2-5.2 1.3-4.8.7.3 1.3 2.7 1.5 5.9zm43-3.2c.2 1.3-.1 2.8-.7 3.4-.8.8-1.1.5-1.1-1 0-1.2-.3-2.9-.7-3.9-.4-1.2-.2-1.5.8-1.2.8.2 1.6 1.5 1.7 2.7zm-64.8.7c0 1.4-.4 2.3-1 1.9-.5-.3-1-1.5-1-2.6 0-1 .5-1.9 1-1.9.6 0 1 1.2 1 2.6zm4.7 3.6c-.2 1.3-.4.3-.4-2.2s.2-3.5.4-2.3c.2 1.3.2 3.3 0 4.5zm10.8-5.2c.3.5-.1 1-.9 1-.9 0-1.6-.5-1.6-1 0-.6.4-1 .9-1 .6 0 1.3.4 1.6 1zm27.2 9.7c-.2 1.6-.4.5-.4-2.2 0-2.8.2-4 .4-2.8.2 1.3.2 3.5 0 5zm-31.7-.1c0 .8-.4 1.4-1 1.4-.5 0-1-.9-1-2.1 0-1.1.5-1.7 1-1.4.6.3 1 1.3 1 2.1zm19.7 4.1c-.3 1-.5.2-.5-1.7s.2-2.7.5-1.8c.2 1 .2 2.6 0 3.5zm29.9 3.1c-.4.3-1.2 0-1.8-.6-.9-.9-.8-1.8.2-3.9l1.4-2.8.4 3.3c.2 1.9.1 3.7-.2 4zm-5.3-2.4c.6 1.5-.1 2.6-1.5 2.6-.4 0-.8-.9-.8-2 0-2.3 1.5-2.7 2.3-.6zm-3.1 7.7c.6.4.6 1.4-.1 2.7-.7 1.4-.8 2.3-.1 2.7.5.3 1 2 1 3.8v3.2l-2.5-3.7c-2-2.9-2.5-4.9-2.5-9.5l.1-5.8 1.6 3c.9 1.6 2 3.3 2.5 3.6zm19.1.8c-2 2-2.4.9-1-2.8 1.1-3.1 1.2-3.1 1.8-.9.3 1.3-.1 2.9-.8 3.7zm-4.8-3c0 1.6-3.1 3.8-4 2.9-.4-.4-.4-1.6 0-2.8.7-2.3 4-2.4 4-.1zm-21.8 3.3c-.3.7-.5.2-.5-1.2s.2-1.9.5-1.3c.2.7.2 1.9 0 2.5zm-16.7 1.6c9.8 4.9 15.8 11.3 20.8 22 2.5 5.2 2.7 6.8 2.7 17.7 0 11.7-.1 12.2-3.5 18.9-10.7 21.3-35.2 30.1-55.8 20-8-3.9-16.5-12.4-20.6-20.4-4.1-8.4-5.1-14.4-3.7-24.3 2.4-17.1 12.8-30.1 28.7-35.6 4.7-1.7 7.9-2.1 15.4-1.9 8.5.3 10.2.7 16 3.6zm30 4.2c-.4 3.1-.9 4.4-1 3-.4-3-.2-6 .5-7.9 1.1-2.8 1.3-.4.5 4.9zm7.2 28.2c-.1 15.6.2 29.9.6 31.8.4 1.9.5 5.1.1 7-.4 2-.7 2.6-.8 1.4 0-1.2-.8-2.4-1.6-2.8-1-.3-1.5-1.9-1.5-4.3 0-4.5-1.3-6.9-3-5.8-.8.5-1 2.1-.6 4.5.7 4.5-.2 7.9-1.5 5.8-.5-.7-.9-2.4-.9-3.7 0-2.9 4-14.1 5-14.1 1.5 0 2.2-8.2 2.1-23.9 0-15.5.6-25.7 1.6-24.7.3.3.5 13.3.5 28.8zm8.1-26.7c-2 2.7-3.3 3.2-3.3 1.2 0-1.7 2-3.7 3.7-3.7 1.1 0 .9.6-.4 2.5zm-15.3 8.7c-.1 2.6-.3 3-1 1.6-.6-.9-.7-2.3-.4-3.2.9-2.5 1.4-1.9 1.4 1.6zm13 15c0 4 .1 10 .4 13.3.3 3.3.8 19 1.1 35 .3 15.9.8 32.9 1 37.7.2 4.8 0 9-.6 9.3-.5.4-.9-3.5-1-9.7-.1-16.1-.9-36.8-2.5-62.3-.5-8 .4-30.5 1.3-30.5.2 0 .4 3.3.3 7.2zm-229-4.7c3.3 1.7 5.6 5 4.1 5.9-.5.4-2.5-.9-4.5-2.8-5-4.7-4.9-5.8.4-3.1zm-18 4.5c0 .5-.7 1-1.5 1s-1.5-.5-1.5-1c0-.6.7-1 1.5-1s1.5.4 1.5 1zm-15.4 5.5c-2.1 1.6-3.2 1.3-2.1-.4.3-.6 1.4-1.1 2.3-1.1 1.5.1 1.5.2-.2 1.5zm-10.9 4.2c.4 1.1-2.6 2.7-3.5 1.9-.2-.3-.2-1.2.2-2.1.6-1.8 2.7-1.6 3.3.2zM236 458c0 .5-.4 1-1 1-.5 0-1-.5-1-1 0-.6.5-1 1-1 .6 0 1 .4 1 1zm15.7 4.2c-.3.8-.6.5-.6-.6-.1-1.1.2-1.7.5-1.3.3.3.4 1.2.1 1.9zm-44.8 5.4c-1.4 1.8-2.4 1.1-1.5-1.1.3-.9 1.1-1.3 1.6-1 .8.5.7 1.1-.1 2.1zm87.1 3.5c0 .5-.7.9-1.5.9-1.5 0-2-1.2-.9-2.3.8-.8 2.4.1 2.4 1.4zm-33.4 3.4c1.7 1.7 7 2 7.9.5 1.4-2.2 3.5-.8 4.5 3 .6 2.1 2 4.6 3.2 5.4 1.3 1 1.8 2.1 1.4 3.2-.8 2.1 1.1 4.4 3.7 4.4 1.9 0 1.9.1.2 2-1.6 1.7-1.9 1.8-4 .4-3.5-2.3-5.5-.6-9.9 8-2.1 4.2-4.2 7.6-4.6 7.6-.4 0-1-.9-1.3-2.1-.4-1.3-1.2-2-2.4-1.7-2.6.5-2.9 3.8-.5 4.5 1.3.3 1.8 1.1 1.5 1.9-.7 1.9-5.3.8-7.5-1.8-2.6-2.9-7.2-2.1-7.6 1.4-.3 2.1 0 2.6 1.5 2.2 2.6-.7 6.1 3.2 4.5 4.8-.7.7-1.2 2.2-1.2 3.5 0 1.8-.6 2.3-2.6 2.3-3.4 0-12.2-7.4-14.1-11.7-.7-1.8-1.8-3.3-2.3-3.3-.6 0-1-.8-1-1.8 0-1.3.2-1.4.9-.3.5.8 1.1.9 1.5.3.3-.6.1-1.4-.5-1.7-.5-.4-.8-1.3-.5-2 .2-.7-.2-2.1-.9-3.2-1.3-1.7-1.5-1.7-3-.2-3.3 3.3-1.1 17.4 3.8 24 2.3 3.2 1.9 6.3-.9 6.7-1.6.2-2.3-.7-3.7-5.1-.9-3-1.7-6.1-1.7-7.1 0-.9-1.2-3.9-2.6-6.7-2.1-4.3-2.3-5.3-1.2-6.7 1.1-1.5 1.1-1.5-.3-.4-1.5 1.1-2.2.7-5.2-2.9-3.5-4-3.9-6.9-1.1-6.9.8 0 1.4.8 1.4 1.7.1 1.8 2.2 5.3 3.3 5.3.4 0 .4-.6.1-1.3-.3-.8 0-2.5.5-3.9.7-1.9.6-2.9-.4-3.9-1-.9-1.1-1.9-.5-2.9.8-1.3 1.1-1.2 2.4.5 1.3 1.8 1.5 1.8 2.1.3.5-1.3 1.4-1.6 3.7-1.1 3.4.7 4.7-.6 4.9-4.7l.1-2.5.7 2.5c.5 2 1.6 2.7 5.5 3.4 5.7 1.2 7.7.2 9.1-4.2.6-2.2 1.5-3.2 2.9-3.2 2.2 0 5.6-2.7 5.6-4.5 0-1 1.9-3.5 2.8-3.5.2 0 1 .7 1.8 1.5zm-22.9 2.7c-.3.8-.6.5-.6-.6-.1-1.1.2-1.7.5-1.3.3.3.4 1.2.1 1.9zm4.3-.8c0 .3-.4.8-1 1.1-.5.3-1 .1-1-.4 0-.6.5-1.1 1-1.1.6 0 1 .2 1 .4zm10.7.2c-.3.3-1.2.4-1.9.1-.8-.3-.5-.6.6-.6 1.1-.1 1.7.2 1.3.5zM472 488.5c0 1.4-.9 3.5-2 4.7l-2 2.2v-3.5c0-3.3 1.4-5.9 3.2-5.9.4 0 .8 1.1.8 2.5zm-290.8 6.3c-1 2.3-2.2 3.9-2.5 3.5-1.3-1.2-.7-5.6 1-7.5 2.6-2.9 3.5-.5 1.5 4zm282.3 5.4c-.4 3.5-.8 6.4-1 6.6-.2.2-.6-2-1-4.8-.5-3.4-.3-5.5.5-6.5 2-2.4 2.1-1.9 1.5 4.7zm-254.3.5c1.5 1.5 3.1 3.6 3.4 4.7.3 1.2 1.8 3.7 3.2 5.5 3.8 5.1 7.2 15.6 7.2 22.3 0 5 .3 6 2.5 7.4 3.1 2 7.1 1.2 8-1.6.4-1.1 1.8-2.8 3.2-3.7 1.4-.9 2.9-2.7 3.4-4 .5-1.4 1.7-2.3 3-2.3 2 0 2 .1-.5 3-2.5 3-3.3 5.8-3.8 13-.3 3.3-.6 3.5-4.2 4-4.3.5-5.2 1.6-6.1 7.3-.7 4.2-2.5 4.1-2.5-.2 0-3.7-1.9-5.9-5.5-6.3-3.9-.4-4.8 2.8-1.1 4.2 1.9.7 2.6 1.7 2.6 3.6 0 2.6-.1 2.7-2 .9-1.1-1-2.8-3.3-3.9-5.1-1.6-2.7-1.7-3.3-.5-3.8 1.9-.7 1.8-2.9-.4-5.7-2.8-3.6-4.3-8.5-5.6-18.4-1.1-8.3-1.4-9.1-3.9-10.3-2.2-1.1-2.7-2-2.7-5.1 0-3-.6-4.2-2.5-5.5-1.4-.9-2.2-2.3-2-3.1.3-.8.7-2.2 1-3.1.8-2.4 6.2-1.1 9.7 2.3zm66.3-1.7c.3.5.1 1-.4 1-.6 0-1.1-.5-1.1-1 0-.6.2-1 .4-1 .3 0 .8.4 1.1 1zm182.5 1.6c0 .8-.5 1.2-1 .9-.6-.4-.8-1.1-.5-1.6.9-1.4 1.5-1.1 1.5.7zm37.7 3.1c-.3 1-.5.2-.5-1.7s.2-2.7.5-1.8c.2 1 .2 2.6 0 3.5zm-309.1-2.1c-.3.9-.6 1.8-.6 2 0 .3-.4.3-1-.1-1.1-.7-.2-3.5 1.2-3.5.6 0 .7.7.4 1.6zm266.3 1.1c0 .5-.4 1.7-.9 2.8-.8 1.8-.9 1.7-.9-.8-.1-1.5.4-2.7.9-2.7.6 0 1 .3.9.7zm28.8 2.5c-.3.7-.5.2-.5-1.2s.2-1.9.5-1.3c.2.7.2 1.9 0 2.5zM446 513l-.6 6.5-.8-6.2c-.4-3.4-.5-6.7-.1-7.3 1.5-2.4 2.1.7 1.5 7zm39.7-4.3c-.3 1-.5.4-.5-1.2 0-1.7.2-2.4.5-1.8.2.7.2 2.1 0 3zm-65.7-1c0 .5-.5 1.5-1 2.3-.8 1.2-1 1.1-1-.8 0-1.2.5-2.2 1-2.2.6 0 1 .3 1 .7zm7 1.2c0 2.6-1.6 3.5-2.4 1.5-1-2.5-.7-3.4.9-3.4.8 0 1.5.9 1.5 1.9zm13-.3c0 .8-.5 1.2-1 .9-.6-.4-.8-1.1-.5-1.6.9-1.4 1.5-1.1 1.5.7zm-241.8 4.8c1.5 3.1 3.6 5.7 4.7 6.1 1.4.4 2.1 1.5 2.1 3.1 0 3.3-.9 3-5.1-1.5-2.5-2.5-4-5.4-4.7-8.5-.5-2.5-.7-4.6-.3-4.6.4 0 1.9 2.4 3.3 5.4zm236.1-4.7c.9.9-1.3 3.4-2.4 2.7-1.4-.8-1.1-3.4.4-3.4.8 0 1.7.3 2 .7zM290.7 515c.6 1.2 1.7 2.7 2.5 3.1 2.1 1.4 5.6 1 6.6-.7.6-1.1 1.6-1.3 3.4-.9l2.6.7-2.1 4.4c-2 4.1-2.4 4.4-5.2 3.8-1.6-.3-4.8-.8-7-1-2.2-.2-5-.9-6.2-1.5-5-2.6-3.2-12.9 2-11 1.2.4 2.7 1.8 3.4 3.1zm197.5 32c.2.8-.1 1.6-.7 1.8-1.3.3-2.2-9.8-2.4-24.9-.2-18.1 1.3-15 2.1 4.3.4 9.5.9 18 1 18.8zm-191.7-33c.3.5.1 1-.4 1-.6 0-1.1-.5-1.1-1 0-.6.2-1 .4-1 .3 0 .8.4 1.1 1zm136.2 8.7c-.3 1-.5.2-.5-1.7s.2-2.7.5-1.8c.2 1 .2 2.6 0 3.5zm-13.5 13.6c.2 5.9 0 10.7-.3 10.7-1.1 0-1.7-10.7-1.1-19.1.7-9.3 1-7.7 1.4 8.4zm53.5-8.6c-.3 1-.5.2-.5-1.7s.2-2.7.5-1.8c.2 1 .2 2.6 0 3.5zm6-2.5c-.3.8-.6.5-.6-.6-.1-1.1.2-1.7.5-1.3.3.3.4 1.2.1 1.9zm-33 5c-.3.7-.5.2-.5-1.2s.2-1.9.5-1.3c.2.7.2 1.9 0 2.5zm-7.2 2.5c-.9 3.7-1.8 2-.9-1.9.4-1.8.9-2.7 1.1-2 .3.7.2 2.4-.2 3.9zm-145.7 1.6c-.1 3.1-3 11.7-4.1 11.7-.4 0-.5.5-.2 1.1.8 1.2-1.5 7.3-2.3 6.4-1.3-1.3 0-11.1 1.8-13 1-1.1 2.1-3.6 2.3-5.5.6-4.4.5-4.2 1.6-3.5.6.3.9 1.5.9 2.8zm-108.5.8c4.9 1.3 11.3 7.1 12.6 11.2.5 1.8 1.3 5.4 1.7 8.2.4 2.7 1.3 6.5 2.1 8.4 1.3 3.1 1.3 3.6 0 4.6-1.2.8-1.7 4.2-2.3 13.4l-.7 12.3-4.4-.5c-3.7-.4-4.9 0-7.4 2-3.9 3.3-3.9 7.4.2 12l3 3.5-5.6 5.9c-6.5 6.8-9.2 12.3-10.1 20.5-.3 3.2-1 7.1-1.6 8.6-.8 2.2-.7 3.3.6 5.3 1.9 2.9 2.9 3.1 5.1.9 1.4-1.5 1.4-1.8 0-3.4-.8-.9-1.2-2-.8-2.4.4-.4.8-3.8.9-7.5.2-9.3 2.6-14.3 10.8-21.9 3.7-3.4 7.1-6.2 7.6-6.2.6 0 1-.6 1-1.3 0-1.8 3.9-5.3 6.8-6.2 1.9-.5 1.3.6-3.2 6.2-10.1 12.4-14 23.1-11.3 30.8 1.4 3.9 1.4 3.9-1.6 5.5-1.9.9-3.4 2.8-4.2 5.2-.7 2.1-1.1 3.8-.8 3.8.2 0 .1.5-.2 1-.4.7-1.2.7-2.5 0s-2.1-.7-2.5 0c-2.1 3.4-11.5-3.4-11.5-8.4 0-1.4-.5-3.6-1.1-5-.9-1.9-.8-3.7.5-8.3 3.6-12.5 5-15.9 8.1-19.8 4-5 7.4-14 5.8-15.6-1.8-1.8-3-.3-4.7 5.4-1.6 5.4-5 10.6-6.1 9.5-.3-.3-.2-3.4.2-6.9 1.1-8 .5-16.1-1.1-15.6-.7.2-1.3 4.5-1.7 11.4-.4 6-1.6 14.3-2.7 18.4-1.9 6.9-3.4 17.6-3.3 22.6.2 5-6.9 1.4-10.4-5.3-1.5-2.7-1.7-3.8-.7-4.1.6-.3 1.2-1.6 1.2-3.1 0-1.4.8-3.4 1.8-4.5 1.4-1.6 1.6-3.5 1.4-11.2-.3-10 .5-13 5.1-19.8 1.4-2 2.8-5.6 3.2-8 .5-2.8 1.7-5.1 3.6-6.9 2-1.8 2.9-3.7 2.9-5.7 0-1.7.7-4.9 1.6-7.1.9-2.3 1.3-4.4.9-4.8-1.3-1.4-5.3 4.7-5.9 9.2-.5 3.1-1.2 4.6-2.2 4.6-1.6 0-2.2 1.4-4.9 10.5-1 3.3-2.6 6.7-3.6 7.6-3.4 3.1-4.8 9.4-4.2 19 .4 5.8.2 8.9-.4 8.9-2.7 0-3-10.5-.6-24 .9-5.2 1.7-14.5 1.7-20.5l.1-11 4.3-7.1c4.1-6.8 6.4-8.9 10.7-9.6 2.3-.4 3.3-3.7 1.4-4.9-.8-.4-2.4-.6-3.6-.2-1.8.4-2.3.1-2.3-1.5 0-2.8 5.3-7 9.8-7.7 2-.4 4.2-.8 4.7-1 2-.7 5.1-.5 8.8.6zm45.7.9c0 .5-.4 1-1 1-.5 0-1-.5-1-1 0-.6.5-1 1-1 .6 0 1 .4 1 1zm214.9 3.3c1.7 2.2 2.7 8.1 1.1 7.5-.9-.3-3.9-6.6-4-8.6 0-.7 1.9 0 2.9 1.1zm8.1 1.4c0 1.3-.3 1.3-1.5.3-.8-.7-1.2-1.6-.9-2.1.8-1.3 2.4-.1 2.4 1.8zm-19.3.5c-.3.8-.6.5-.6-.6-.1-1.1.2-1.7.5-1.3.3.3.4 1.2.1 1.9zm47.3 2.5c0 4.3-.5 4.1-1.3-.5-.4-1.8-.2-3.2.3-3.2.6 0 1 1.6 1 3.7zm-41.9-.4c-1 .9-1.1.8-.5-.6.3-1 .9-1.5 1.2-1.2.3.3 0 1.1-.7 1.8zm-13.4.9c-.3.8-.6.5-.6-.6-.1-1.1.2-1.7.5-1.3.3.3.4 1.2.1 1.9zm47 1.5c-.3 1-.5.4-.5-1.2 0-1.7.2-2.4.5-1.8.2.7.2 2.1 0 3zm-205.3 1.5c2 3.3 3 15.2 1.4 16.5-.7.6-3.5 1.8-6.1 2.9-5.2 2-8.4 5.4-13.1 13.9-3 5.2-7.4 10.5-8.8 10.5-1.7 0-.7-3.8 1.6-5.9 3.8-3.5 7.6-13.2 8.5-21.6 1-8.5 2.5-11.3 8.3-15.5 4.9-3.6 6.3-3.7 8.2-.8zm225.6.2c0 .8-.4 1.8-1 2.1-.5.3-1-.3-1-1.4 0-1.2.5-2.1 1-2.1.6 0 1 .6 1 1.4zm-26.3 5.8c-.3.8-.6.5-.6-.6-.1-1.1.2-1.7.5-1.3.3.3.4 1.2.1 1.9zm-24.6-.2c27.3 5.2 44.8 35.8 34.9 61-7.3 18.4-21.7 29.4-40.5 30.7-14.9 1-27-4.1-38.1-16-4.9-5.2-6.4-7.6-8.6-14.5-5.6-16.6-2.6-33.6 8-45.4 3.8-4.2 13.1-10.8 15.3-10.8.7 0 2-.7 2.9-1.5 1.9-1.7 11.9-4.3 17.1-4.4 2-.1 6 .4 9 .9zM135 556c0 1.1-.9 3.5-2 5.5s-2 4.9-2 6.5c0 1.6-.4 3.1-.9 3.4-.5.3-1.2 2.2-1.5 4.1-1.3 6.6-9.8 16.6-12.2 14.2-.7-.7 1.4-11.2 3.2-15.5.7-1.8 1.9-3.1 2.6-3 .7.2 2.3-2 3.6-4.7 5.7-12.1 9.2-16.1 9.2-10.5zm103-2.2c0 .5-1.1 1.9-2.5 3.2-2.6 2.4-3.3 1.4-1.5-2.1 1.1-1.9 4-2.7 4-1.1zm47.6 2.8c-.3.9-.6 2-.6 2.5 0 .6-.4.7-1 .4-.6-.4-.7.1-.3 1 .5 1.6-1.1 3.4-2.9 3.5-1.2 0-1-1.3.7-5.4 1.5-3.5 5.4-5.4 4.1-2zm205.1 3.6c-.3.8-.6.5-.6-.6-.1-1.1.2-1.7.5-1.3.3.3.4 1.2.1 1.9zm-5.2 3.5c-.1 2.6.2 6.7.6 9.2.9 6 0 14-1.4 11.6-1.4-2.6-.8-25.5.7-25.5.1 0 .1 2.1.1 4.7zm9.4 3.7c-.9.8-1 .7-.5-.7.3-1 .7-2.8.7-4 .2-1.6.3-1.4.6.7.3 1.6-.1 3.4-.8 4zM481 570c0 1.6-.2 3-.5 3-.9 0-2.6-4.1-2-5 1.2-2 2.5-.9 2.5 2zm-202-1.1c0 1.2-3.7 2.4-4.9 1.7-.7-.5-4.4.8-9.1 3.3-.8.5-1.5 1.4-1.5 2.2 0 .8.7 1.2 1.5 1 .8-.2 2.9-.5 4.5-.8 1.7-.3 5.5-1.3 8.5-2.4 5.5-1.9 9.4-1.7 8.7.4-.2.7-1.2 1.4-2.2 1.5-1 .3-1.5 0-1.1-.7 1-1.5-.4-1.4-2.3.3-.9.8-4.5 2-8.1 2.8-4.3 1-6.5 1.9-6.5 2.9 0 .8.8 1.3 2 1.2 1-.1 2.7.3 3.7.8 1.2.6 2.8.5 5-.4 1.9-.8 4.2-1.1 5.3-.7 1.7.6 1.4 1-2 2.5-2.2.9-5.7 1.9-7.7 2.2-2.3.4-3.8 1.1-3.8 2 0 2.5 3.3 2.7 9.8.4 6.7-2.3 8.4-2.2 6.2.4-.8 1-2.2 1.4-3.6 1.1-1.6-.4-2.3-.1-2.7 1.3-.2 1.1-2.1 2.4-4.3 3.1-2.1.7-5.9 3.4-8.5 6.1-2.6 2.7-5.7 4.9-6.8 4.9-1.1 0-2.3.4-2.6 1-1.3 2.1-3.2 1-2.7-1.5.3-1.9 0-2.5-1.2-2.5-1 0-1.5.4-1.2.9.9 1.5-.5 4.3-1.9 3.7-1.9-.7-4.6 2.6-3.5 4.3.6 1 .1 2-1.6 3.3-1.3 1.1-2.4 2.5-2.4 3.3 0 3.5-24.2 18.5-29.9 18.5-2.4 0-2.8-2.9-.9-6 1.6-2.4.4-3.7-1.8-1.9-1.5 1.2-1.6 1-.9-3.1 1.1-6.5 4.2-16.1 6.1-18.8 1.7-2.5 11.4-7.2 14.8-7.2 3.2 0 10.8-3.2 14.3-6 1.7-1.4 5.6-6.5 8.7-11.3 4.7-7.3 6-8.7 7.6-8.2 1.2.4 2 .2 2-.5 0-.6-.4-.8-1-.5-.5.3-1 .4-1 .1 0-.8 6.2-3.8 9.5-4.7 4.4-1 9.5-1 9.5 0zm216.3 45.8c-.3 7.9-.9 14-1.4 13.7-.4-.2-.9-5.1-1-10.7-.2-15.2-.2-17.5.7-21.5l.7-3.7.8 4c.5 2.2.6 10.4.2 18.2zM196 598c0 .4-.8 1-1.7 1.3-1 .4-2.8 1.4-4 2.3-2.1 1.5-2.3 1.5-2.9 0-1.2-3.1.3-4.6 4.6-4.4 2.2.1 4 .5 4 .8zm87 2.4c0 1.3-.7 2.6-1.5 3-1.6.6-2-1-.9-3.8.9-2.4 2.4-1.9 2.4.8zm-72-1c0 .2-.7.7-1.6 1-.8.3-1.2.2-.9-.4.6-1 2.5-1.4 2.5-.6zm63.4 3.8c-.8 2.4-1.9 5.2-2.4 6.3-2.2 4.9-2.2 6.6-.1 7.2 1.2.3 2.1 1.2 2.1 2 0 1.1-.6 1.4-2.2.9-1.3-.3-2.6-.6-3-.6-.5 0-.8-.9-.8-2 0-1.3-1-2.4-2.5-3-3.7-1.4-3.1-3.6 2.8-9.6 6.5-6.6 8-6.9 6.1-1.2zm213.9 4c.4 1.2.1 2.9-.6 3.7-.9 1.1-.9 1.5.1 1.8 1.6.6 1.6 4.8-.1 6.1-1 .8-1.6.6-2.5-.9-1.1-1.6-1.1-3.2-.1-7.5 1.3-5.8 2.3-6.8 3.2-3.2zm-369.5 6.1c2.4 7.4 2 13.7-.9 12.8-.8-.3-3.2-.6-5.4-.7-5.2-.2-7-2.7-3.7-5.2 1.8-1.4 2.2-2.4 1.7-4.5-.4-1.4-.2-4.2.5-6.2.9-2.9 1.6-3.5 3.3-3.3 1.7.2 2.7 1.8 4.5 7.1zM209 612c-.6 1.2-1.4 1.9-1.7 1.7-.2-.3.1-1.5.7-2.7.6-1.2 1.4-1.9 1.7-1.7.2.3-.1 1.5-.7 2.7zm84.5 2.1c2 3.8 1.7 4.3-1.4 2-1.6-1.2-2.2-2.4-1.8-3.5.9-2.3 1.4-2 3.2 1.5zm-91 2.6c-.4 2.7-1.3 6.8-2 9.3-.7 2.5-1.6 6.3-2 8.5-1.3 8.6-2.7 9.7-5 4.2-1.5-3.7-.8-8.5 2.2-15.3 2.1-4.5 6.2-11.4 6.9-11.4.3 0 .2 2.1-.1 4.7zm82-1.7c0 3-2.4 3.7-6.6 2-3.6-1.5-3.3-3.3.7-4.1 4.6-1.1 5.9-.6 5.9 2.1zm-28.9.2c-7.1 9.8-8.5 13.3-8.6 20.5 0 2.2-.5 3.3-1.4 3.3-2.2 0-8.6-6.5-8.6-8.6 0-1.2 3.5-5 9-9.7 9-7.6 12.8-9.8 9.6-5.5zm83.4.8c0 .5-.9 1-2 1s-2-.5-2-1c0-.6.9-1 2-1s2 .4 2 1zm-79.6 12.5c-1.6 3-3.3 5.5-3.8 5.5-1.3 0 .4-7 2.7-11.2 2-3.4 2.3-3.6 3.1-1.8.6 1.4.1 3.4-2 7.5zm29.7-6.4c1.6 1.1 2.9 2.7 2.9 3.4 0 .8 1.2 2.2 2.6 3.2 6.3 4.4 10.4 8.6 10.4 10.9 0 3.5 1.8 3.9 4.5 1 1.3-1.4 3.3-2.6 4.3-2.6 1.1 0 2.5-.7 3.2-1.5.7-.8 2.9-1.5 4.9-1.5 2 0 5.1-.9 6.9-2 4.2-2.6 5.4-1.8 5 3.3-.4 4.6-.7 4.7-8.5 3.1-4.1-.8-5.8 2-2.7 4.3 2 1.5 6.4 1.3 15.2-.5 2.3-.5 4.2-.6 4.2-.1 0 1.6-5.9 3.9-9.9 3.9-3.1 0-4.7.7-7.1 3-1.7 1.6-3.5 3-4.1 3-.6 0-.7.5-.3 1.1.8 1.4 5.4.2 7.9-2.1 2.8-2.6 4.9-1.1 5.2 3.8l.3 4-3.8-.9c-2-.5-6-.9-8.8-.9-3.7 0-6.1-.7-8.6-2.4-2-1.3-5.8-2.6-8.8-3-8.1-1-18.4-3.7-19.6-5.2-.6-.7-5.3-2.4-10.5-3.8-5.8-1.5-9.5-2.9-9.7-3.8-.1-.8.6-3.5 1.6-5.9 2.2-5.2 11-12.5 15.7-13.2 1.7-.2 3.4-.5 3.8-.6.5 0 2.2.8 3.8 2zm192.4 3.6c-.8 5.6-1.7 6.9-3.4 4.9-1-1.2-.8-2.3.9-5.5 1.1-2.3 2.3-4.1 2.6-4.1.4 0 .3 2.1-.1 4.7zm-214.7 1.1c-1.4 1.5-3.3 4-4.1 5.7-.9 1.6-1.6 2.4-1.7 1.7 0-2.1 3.9-9 5.7-10.1 2.8-1.5 2.9-.3.1 2.7zM134.5 629c.5 1.4 0 2.6-1.5 3.8-2 1.6-2 1.9-.7 3.1 1.2.9 2.1 1 3.6.1 1.4-.7 2.1-.7 2.1-.1 0 2.3-5.6 2.4-13.4.1-5.3-1.4-10.4-2.2-14.8-2.1-4 .1-6.9-.2-7.3-.9-.9-1.5 2.4-5.2 3.9-4.3.6.4 2.9.7 5.1.8 2.2 0 6 1.1 8.5 2.3 2.6 1.2 5.6 2 7 1.7 2.6-.5 5-3 5-5.2 0-2 1.8-1.5 2.5.7zm71.3 13.8c-.5 8.5-1.8 11.6-4 9.4-.9-.9-.9-1.8.1-3.8.8-1.9.9-3 .1-3.9-1.1-1.3-.1-10.2 1.7-16 1.2-3.7 2.5 5.5 2.1 14.3zm144.3-11.2c1.1 1.3 1.1 2-.2 4.2-1.8 3.3-4.5 3.6-4.2.5.2-1.4-.5-2.7-1.7-3.3-1.2-.6-1.8-1.5-1.5-2.1 1-1.5 6.1-1 7.6.7zm144.9 7.1c0 4.7-.2 8.4-.5 8.1-.8-.8-1.6-14.8-.9-15.9 1.2-1.9 1.4-.6 1.4 7.8zm-14-4.8c0 .6-.4 1.3-1 1.6-.5.3-1-.1-1-.9 0-.9.5-1.6 1-1.6.6 0 1 .4 1 .9zm-7.4 3.2c-.3 1.7-.6 4-.6 5 0 1.1-.4 1.9-1 1.9-1.1 0-1.4-5.9-.4-8.4 1.1-2.9 2.7-1.7 2 1.5zM120 638.8c9.1 3.1 10 3.5 10 4.2 0 .4-3 1.1-6.6 1.5-9.7 1-24.8-3.4-22.8-6.7.3-.5 2-.6 3.7-.3 1.8.4 4.3.2 5.7-.4 1.4-.5 3.2-.7 4-.4.8.3 3.5 1.3 6 2.1zm107.6 2.4c-.8 6-2.7 10.1-5.8 12.2-4.1 2.9-5.1 1.7-1.8-2.1 3.7-4.2 6-9.1 6-12.8 0-1.4.5-2.5 1.1-2.5.8 0 .9 1.6.5 5.2zm123.1 4c-2.4 4.6-8.9 9.8-9.6 7.7-.2-.7.8-2.1 2.3-3.1 1.4-1.1 2.6-2.5 2.6-3.2 0-1.9 4.8-6.8 6-6.1.5.3-.1 2.4-1.3 4.7zm117.3 1.4c0 4-.3 5.4-1.2 5.1-.7-.2-1.2-1.2-1.1-2.2.1-1-.3-2.9-.8-4.3-.6-1.6-.6-2.9.2-3.8 1.9-2.3 2.9-.5 2.9 5.2zm-255.4-2.5c.4.6 2 .8 4 .4 3.3-.6 3.4-.5 2.3 1.9-2.6 5.6-10.9 8.6-9.5 3.3.3-1.2.6-3.2.6-4.5 0-2.3 1.4-3 2.6-1.1zm250.4 6.5c0 .2-.6.1-1.4-.2-.8-.3-1.9.3-2.6 1.5-.6 1.2-1.6 2.1-2.2 2.1-.7 0-.6-.5.2-1.5.7-.8 1-2.5.6-3.9-.4-1.8-.1-2.8 1.1-3.5 1.4-.8 2-.4 3 2.1.7 1.7 1.3 3.2 1.3 3.4zm-357.7-4c2.5.6 2.7 1 2.7 5.3 0 2.5 1 6.6 2.1 9.1 1.8 4 2.2 4.3 3.3 2.8 1.1-1.5 2-.8 8.4 7.1 4 4.9 7.2 9.4 7.2 10 0 .5 1 1.6 2.2 2.2 1.2.7 4.5 3.3 7.3 5.9 6.2 5.8 10.6 8.5 18.1 11 3.2 1.1 6.7 2.6 7.8 3.3 4.6 2.9 22.4-.6 31.5-6.2 2.8-1.6 8.4-4.3 12.5-5.9 6.9-2.7 8.1-2.9 14.8-2.2 4.6.5 9.3 1.8 12.6 3.4 2.9 1.5 5.7 2.4 6.2 2.1.4-.3 3.1-.7 6-1 2.8-.3 6-.9 7-1.5 1.1-.6 3.7-.8 5.8-.4 2.7.4 4.9.1 7-1 3.2-1.7 3.5-2.3 4.7-13.1.6-6 3.8-15 6.1-17.6.9-1 1.4-2.5 1.1-3.3-.7-1.8 1.7-5.1 3.1-4.3 1.7 1.1.3 8.5-3.8 20.2-2.2 6-5 14.1-6.2 17.9-1.3 3.8-2.8 7.1-3.5 7.3-.7.3-2-.5-3-1.6-2.2-2.6-4.7-2.7-7.2-.2-3 3-5.6 3.4-22.6 3.5-15.4.1-16.3.3-24.1 3.3-16.4 6.4-21 8.9-28.5 15.9-12 11.2-12.5 11.4-20.2 10.4-6.4-1-8.9-1.8-13.7-4.5-4.1-2.4-7.5-1.9-10.4 1.6-1.4 1.7-2.6 3.7-2.6 4.5 0 3-4.8 3.5-11.7 1.4-3.6-1.1-7.7-2-9.2-2-4.2 0-18.2-9.7-20.7-14.4-1.9-3.4-2.1-5.1-1.8-15 .4-14.4 2.1-37.5 2.9-40.4 1.1-3.4-2.1-2.9-3.9.7-2.5 4.7-4.3 51.1-2.2 55.3 1.4 2.9-5 2.5-6.5-.4-1.3-2.5-.6-22.3 1-27.3.8-2.7 3-12.3 6.3-28 .9-4.2 2.2-7 4.5-9.6 1.8-2 3.3-4.2 3.3-4.8 0-.7.8-1 1.8-.7.9.3 2.9.8 4.5 1.2zm91.5 4.3c-.1.9.1 2.1.5 2.7 1 1.8-2 3.7-4.7 3-1.3-.3-3.4-1.5-4.7-2.6l-2.4-2 3.5-2.9c3.2-2.7 3.6-2.8 5.7-1.3 1.3.8 2.3 2.2 2.1 3.1zM472 655c-.6 1-.9-.1-.9-3.5.1-4.8.1-4.9.9-1.5.5 1.9.4 4.1 0 5zm-17.8-4.8c.4 2.6-.7 6.5-3.3 12.3-1.6 3.7-1.8 3.8-1.8 1.3-.1-1.5.4-3 .9-3.3 1.2-.8 1.3-9.5.1-9.5-.5 0-1.6 1-2.4 2.2l-1.6 2.3v-2.7c-.1-2 .6-2.9 2.7-3.6 4.1-1.6 5-1.4 5.4 1zm-102.2 2c0 2-7.3 8.8-9.4 8.8-1.6 0-1.1-1 2.9-5 5-5.1 6.5-6 6.5-3.8zm69 1.9c0 1.7-.4 2.8-1 2.4-.5-.3-1-1.7-1-3.1 0-1.3.5-2.4 1-2.4.6 0 1 1.4 1 3.1zm7.5-2.1c.4.6.1 1.8-.6 2.6-1.2 1.4-1.4 1.4-2-.3-1-2.9 1.1-4.7 2.6-2.3zm14.3 18.4c.3 13.8.1 18.7-.7 18.2-.7-.5-1.1-5.2-1-13.9 0-7.3-.3-15.6-.7-18.6-.5-4.2-.4-5.3.6-4.9 1 .3 1.4 5 1.8 19.2zm-6.8-15.9c0 2.8-1.5 3.4-2.4.9-1-2.5-.7-3.4.9-3.4.9 0 1.5.9 1.5 2.5zm-182-.5c0 .5-.2 1-.4 1-.3 0-.8-.5-1.1-1-.3-.6-.1-1 .4-1 .6 0 1.1.4 1.1 1zm209 3c0 1.1-.4 2-1 2-.5 0-1-.9-1-2s.5-2 1-2c.6 0 1 .9 1 2zM71.6 670.1c.1 7.4.6 15.2 1.3 17.4 1.4 4.9 1.4 5.8.1 5-1.5-.9-2.2 1.7-2.4 8.7l-.1 6.3h-4c-3.7 0-4-.2-4-2.9-.1-2.8-4.3-7.6-6.6-7.6-1.3 0-6.4 5-7.1 7-.4 1.2-.9 1.2-3.5.1-1.8-.7-4.1-1-5.2-.6-2.8.9-4.2-2.3-4.4-9.8l-.2-6.2 4.8-.9c3.1-.6 5.4-.6 7 .2 2.5 1.2 12.1 2.4 14 1.6.9-.3 1.1-4.4.9-15.8l-.3-15.5 3.8-.4c2.1-.2 4.3-.3 4.8-.2.6.1 1 5.5 1.1 13.6zM305 657c1.3.8 1.3 1-.2 1-.9 0-2-.5-2.3-1-.8-1.3.5-1.3 2.5 0zm162.4 3.2c-.5.8-1 .5-1.4-.8-1-2.5 0-4.1 1.2-2 .5.9.6 2.1.2 2.8zM240 660c0 .5-1.5 1-3.2.9-3.1-.1-3.2-.1-.8-.9 3.5-1.1 4-1.1 4 0zm219-.2c0 .5-.7 1.7-1.5 2.8-1.4 1.9-1.4 1.9-1.5-.2 0-1.1.3-2.4.7-2.7.9-1 2.3-.9 2.3.1zm-22.9 14.7c.4 13.9.4 13.9-1.8 13.8-1.3 0-3.4-.1-4.8-.2-2-.1-2.5-.6-2.5-2.9.1-2.3.2-2.4 1.1-1 .5 1 1.8 1.8 2.9 1.8 2.6 0 4.2-5.6 4-14.3-.3-8.7-.1-12.2.4-11.6.2.2.5 6.7.7 14.4zm-107.7-11.6c-1.9 1.7-14.4 6.9-14.8 6.2-.3-.4-.2-2.1.3-3.7.7-2.8 1-2.9 7.7-3.4 7.4-.5 8.3-.4 6.8.9zm41.4-.5c3.7 1.9 6.1 4.7 7.2 8.6 1.6 5.6.2 9-6.6 15.6-5.7 5.6-9.6 8.3-25.9 18-5.5 3.3-18 8.4-26.5 10.9-3 .9-6.9 2-8.6 2.5-3.9 1.3-16.6 1.2-21.9 0-2.2-.5-4.8-1.9-5.9-3.2-2.6-3.3-1.8-11.4 1.7-16.7 2.7-4 5.2-5.6 4-2.5-1 2.6 1.1 3 9.6 2 4.5-.5 8.4-.6 8.8-.3.8.8-2.4 11.5-4 13.5-.7.9-.7 1.6.1 2.4.9.9 2.2.6 5.4-1.2 5.6-3.1 14.2-9.4 19.5-14.1 4.3-3.9 4.9-4.1 19.3-5.9 4.6-.5 8.8-1.4 9.2-1.8 1.4-1.4-1.5-4-6.2-5.5-2.4-.8-4.6-1.9-4.7-2.4-.2-.5 2.1-2.6 5.1-4.7 3-2 5.6-4.6 5.9-5.8.4-1.3 1.1-1.9 2-1.5.9.3 2.2-.2 3.1-1.2 1.4-1.6 1.5-2 .2-3-1.1-1-2-1-3.6-.1s-2.5.9-3.3.1c-1.4-1.4-3-1.4-2.2-.1.9 1.5-4.3 3.6-5.7 2.2-.8-.8-.3-1.9 2-4.1 2.9-3 3.4-3.1 11.2-3.1 5 0 9.1.5 10.8 1.4zm107.1 1.8c0 2.8-.2 3-.9 1.3-1.2-2.8-1.2-4.5 0-4.5.6 0 1 1.5.9 3.2zm-13.3 4.5c-.3.7-1 1.3-1.6 1.3-1.1 0-1.4-5.3-.3-6.4.9-.9 2.5 3.4 1.9 5.1zm8.8-2c.8 5.3.6 16.4-.4 18.8-.7 1.6-.9 1.2-1-2 0-2.2-.3-7.7-.6-12.3-.6-8.4.8-11.5 2-4.5zM344 664.4c0 .3-.4.8-1 1.1-.5.3-1 .1-1-.4 0-.6.5-1.1 1-1.1.6 0 1 .2 1 .4zm-8.2 4.7c.3 3.3 0 3.7-3.6 5.3-3.5 1.6-4.4 1.6-8.8.4-2.7-.7-4.9-1.9-4.9-2.7 0-1.7 11.4-7.1 14.5-6.8 2.1.2 2.5.8 2.8 3.8zm151.2 3.4c0 .8-.2 1.5-.4 1.5s-.6-.7-1-1.5c-.3-.8-.1-1.5.4-1.5.6 0 1 .7 1 1.5zm8 14c-.4 5.5-.5 5.2-1-4-.3-5.5-.3-10.5 0-11 .8-1.6 1.5 8.5 1 15zm-144-13.9c0 1-4.5 4.2-5.2 3.7-1.4-.8-.8-2 1.5-3.1 2.6-1.2 3.7-1.4 3.7-.6zm126.7 1.6c-.3.8-.6.5-.6-.6-.1-1.1.2-1.7.5-1.3.3.3.4 1.2.1 1.9zm-162.7-.4c0 .5-.3 1.2-.7 1.6-.5.4-1.2 2.6-1.8 4.9-1 4.1-1.2 4.3-9 7.4-9.3 3.8-10.5 3.9-10.5 1.5 0-1.9 3.2-5.3 6-6.6.8-.3 4.2-2.6 7.5-5 5.8-4.3 8.5-5.5 8.5-3.8zm106 6.4c0 3.9-.3 6.8-.7 6.5-.9-1-1.1-13.7-.1-13.7.4 0 .8 3.2.8 7.2zm11.7-2c-.3.8-.6.5-.6-.6-.1-1.1.2-1.7.5-1.3.3.3.4 1.2.1 1.9zM322 678c1.6 1 1.5 1.2-2.2 2.8-2.9 1.2-4.2.4-3.2-2.2.7-1.8 3.1-2.1 5.4-.6zm16 .6c0 1.1-.5 1.4-1.6 1-.9-.3-1.8-.6-2-.6-.3 0-.2-.5.1-1 1-1.6 3.5-1.2 3.5.6zm139.7 2.1c-.3 1-.5.4-.5-1.2 0-1.7.2-2.4.5-1.8.2.7.2 2.1 0 3zm-11 .5c-.3.7-.5.2-.5-1.2s.2-1.9.5-1.3c.2.7.2 1.9 0 2.5zm-133.6 1.4c3.5 1.8 3.5 3.9-.1 6.4-3.2 2.3-20 3.7-20 1.8 0-2.3 1.4-3.6 7.5-6.6 7.1-3.5 8.6-3.7 12.6-1.6zm118.4 2.4c.7 2.1 0 4-1.6 4-.5 0-.9-1.4-.9-3 0-3.4 1.5-4 2.5-1zm26.5 1.6c0 .8-.4 1.2-1 .9-.5-.3-1-1-1-1.6 0-.5.5-.9 1-.9.6 0 1 .7 1 1.6zm-132.2 1c1.5.6 1.5.7-.3 1.4-4.9 2.1-9.9.5-5.8-1.8 1.6-1 2.3-.9 6.1.4zm33.2-.6c-1.3.8-1.2 1 .3 1 .9 0 1.7-.5 1.7-1 0-.6 1.8-1 4-1 4.4 0 4.7.7 2.5 5-1.1 2.1-2 2.7-3.1 2.3-1.6-.6-1.6-.7 0-1.8 2-1.5 2.1-4.5.1-4.5-.8 0-1.5.5-1.5 1 0 1.5-6.2 5-8.9 5-1.3 0-2.1-.3-1.7-.7.4-.4 1.5-.8 2.4-.8.9 0 1.8-.7 1.8-1.5.1-.8.2-2.1.3-2.8 0-.6.9-1.2 1.9-1.2 1.4 0 1.5.2.2 1zm25.7 1.4c-.2.6-1.7 1-3.3.8-3.3-.4-3.8-.7-3-2 .8-1.3 6.8-.2 6.3 1.2zm-8.6.1c.1 1.7-1.8 1.7-2.5 0-.4-1.1-.1-1.5 1-1.3.8.2 1.5.7 1.5 1.3zM309 691c0 1.3-2.8 2.5-3.8 1.6-.3-.4 0-1.1.8-1.6 2-1.3 3-1.2 3 0zm83 1c0 .5-.7 1-1.5 1s-1.5-.5-1.5-1c0-.6.7-1 1.5-1s1.5.4 1.5 1zm-109 1c0 .5-.7 1-1.6 1-.8 0-1.2-.5-.9-1 .3-.6 1-1 1.6-1 .5 0 .9.4.9 1zm135.5.1c.4.6-.1 1.6-1.1 2.4-1.2.8-2.4 3.6-3 7.2l-1.2 5.8-.1-8.3c-.1-8.1-.1-8.2 2.3-8.2 1.4 0 2.8.5 3.1 1.1zm60-.1c-.3.5.5 1.4 2 2 3.6 1.4 6.9 4.6 6 6-.4.7.2 1.8 1.4 2.6 3.3 2.3 2.5 3.2-2.9 3.2-4.2 0-5-.3-5-1.9 0-2.7-1.5-2.3-2.9.7-1 2.2-.8 3.4 1.3 7.8 2.6 5.4 2.5 9.6 0 9.6-.9 0-1.4-1.1-1.4-2.8 0-1.7-.9-3.7-2.1-4.8l-2.2-1.9.5 3.7c.2 2.1 0 3.8-.4 3.8s-.8.7-.8 1.6c0 .8-.4 1.3-.9 1-.5-.3-.7-2.4-.4-4.5.5-3.4.3-4-1.8-4.6-1.3-.4-3.9-1.4-5.7-2.3-2.9-1.3-3.5-1.3-4.3-.1-1.1 1.8-3.9.2-5.4-2.9-.7-1.7-1.5-2-4-1.5-1.6.3-3.6 1.1-4.3 1.6-1.1.9-1.3.6-1-1.3.3-2.3.6-2.5 5.3-2.2 4.3.3 5.4 0 7.4-2.2 3.2-3.3 2.4-5.4-1.1-2.7-1.5 1.2-2.9 1.7-3.2 1.3-.6-.9 3.6-4.3 6.9-5.6 1.3-.6 1.6-1 .7-1.3-.7-.3-1.9 0-2.6.6-1.1.9-1.5.9-1.8 0-.2-.6-2.4.9-4.8 3.3-3.5 3.5-4.5 4-4.8 2.5-.2-.9-1-1.7-1.8-1.7s-1.4-.5-1.4-1c0-.6.7-1 1.5-1s1.5.4 1.5 1c0 .5.7 1 1.6 1 1.2 0 1.5-.6 1-2.4-.8-3.1.8-3.7 11.4-4.3 4.7-.2 8.6-.5 8.7-.6.1-.1 2.5-.3 5.3-.5 3.4-.2 4.9.1 4.5.8zm-400.3 1.9c2.6 1.3 2.7 1.6 2.1 8-.6 7.7-1.2 8.6-3.8 6.7-2.7-1.9-4.2-17.7-1.7-16.4.4.2 1.9 1 3.4 1.7zm347.6-.7c-.5 1.4-4.8 3.1-4.8 1.8 0-.6.7-1 1.5-1s1.5-.5 1.5-1c0-.6.5-1 1.1-1 .6 0 .9.5.7 1.2zm68.8 5.6c-1.2 1.1-1.6-.6-.9-3.9l.8-3.4.3 3.3c.2 1.9.1 3.6-.2 4zm-58.7-3.2c-1.1 3-.3 4.6 1.2 2.4.8-1.1.9-1 .4.7s-.2 2.3.9 2.3c.9 0 1.6-.5 1.6-1 0-.6.5-1 1-1 .6 0 1 1.2 1 2.6 0 1.4-.4 2.3-.9 2-.4-.3-1.7.1-2.7.9-1.8 1.4-1.8 1.4.4 1.5 1.2 0 2.2.4 2.2 1 0 .5-.4 1-1 1-.5 0-1 .7-1 1.5s-.7 1.5-1.5 1.5c-.9 0-2.6.9-3.8 2.1-2.2 2-2.2 2.1-.3 3.5 2.5 1.8 3.6 1.8 3.6 0 0-1.6 1.8-3.1 2.6-2.3.3.3-.1 1.4-.8 2.6-1.3 2.1-5.8 3-5.8 1.1 0-.6-1.2-1-2.6-1-2.1 0-2.4-.4-1.9-2s.3-1.9-1.1-1.3c-1.4.5-1.6.3-1-1.3.6-1.5.5-1.7-.5-.7-1.8 1.8-2.9 1.6-2.9-.3 0-1.3-.3-1.4-1.4-.5-1 .8-1.6.9-2.1.1-.8-1.3.3-3.2 1.5-2.5.5.3 1.1.1 1.5-.4.6-1.1 3.6-.3 4.7 1.3.4.6 1.1 0 1.6-1.4s1.9-3.4 3.1-4.4c1.4-1.3 2.1-3.1 2.1-5.6 0-3.6.6-5 2.1-5 .5 0 .4 1.2-.2 2.6zm5.1-1.6c0 .5-.7 1-1.5 1s-1.5-.5-1.5-1c0-.6.7-1 1.5-1s1.5.4 1.5 1zm-161 1.5c-.7.8-1.6 1.2-2.1.9-1.3-.8-.1-2.4 1.8-2.4 1.3 0 1.3.3.3 1.5zm44-1c0 .3-3.7 3.3-8.2 6.6-9.2 6.8-10.5 6.5-7-1.5 1.7-3.8 2.5-4.5 5.4-4.9 5.4-.6 9.8-.7 9.8-.2zm46.6 2.3c.6.4 1.1 2.4 1.2 4.5.1 2 .6 4.6 1.2 5.8.8 1.3.8 2.4.2 3.2-.6.7-1.2 2.3-1.4 3.7-.2 1.9-1 2.6-3.1 2.8-2.4.3-3-.2-4-2.7-1.3-3.6-2.7-4-2.7-.8 0 1.2.9 2.8 2 3.5 2 1.2 2.8 5.2 1 5.2-.5 0-1-.7-1-1.5s-.4-1.5-1-1.5c-.5 0-1 .7-1 1.5s-.9 1.5-2 1.5c-2.3 0-2.7-2.2-.7-3.8 1.9-1.6 1.6-6.6-.5-7-1.4-.3-1.8.4-1.8 3.2 0 4-1.5 5.6-2.3 2.4-.8-3-2.1-1.4-2.2 2.5 0 2.2-.5 3.2-1.5 3.2-.9 0-1.4-.7-1.2-1.8.3-1.6-.7-2.1-3.4-1.8-1.3.1-2.3-2.7-1.7-4.7.7-1.8 3.1-1.5 2.9.4 0 .9.5 1.9 1.2 2.1.7.3 1.2-.4 1.2-1.5s.7-2.2 1.5-2.6c2.9-1.1 1.5-2.3-2.2-1.9l-3.8.3 4-2.3c2.2-1.3 4.9-2.6 5.9-3 1.5-.6 1.7-.5.7.7-.9 1.1-.8 1.5.6 1.8 3.1.8 4.5-.2 2.7-2-1.5-1.4-1.2-1.9 3.2-5.8 5-4.4 6.1-4.9 8-3.6zm59.8.7c-.4.8-.8 1.5-1 1.5-.2 0-.4-.7-.4-1.5s.4-1.5 1-1.5c.5 0 .7.7.4 1.5zm-47.4 1.6c0 .6-.7.8-1.5.5-.9-.3-1.8 0-2.1.8-.3.8-1.5 1.1-3 .8-2.4-.4-3-1.3-1.7-2.5 1.1-1.2 8.3-.8 8.3.4zm6-.1c0 .5-.4 1-1 1-.5 0-1-.5-1-1 0-.6.5-1 1-1 .6 0 1 .4 1 1zm5.4.5c-.6 1.6-2.4 2.1-2.4.7 0-1.1 1.1-2.2 2.1-2.2.5 0 .6.7.3 1.5zm-117.6 1.3c.3.9-.2 1.3-1.4 1-.9-.1-1.9-.9-2.2-1.6-.3-.9.2-1.3 1.4-1 .9.1 1.9.9 2.2 1.6zm143.6.1c.3.5-.1 1.1-.9 1.4-.9.4-1.2.1-.8-.9.6-1.6 1-1.7 1.7-.5zm-34.4 1.3c0 .9.3.9 1.2 0 1.5-1.5 4.8.3 4.8 2.8 0 1 .5 2.2 1 2.5 1.3.8 1.3 7.2 0 8-.7.4-.9-.2-.4-1.9.7-2.8-.4-3.4-2.4-1.4-1.5 1.5-1.6 6.5 0 7 1.4.5.4 3.8-1.2 3.8-.5 0-1-.9-1-2.1 0-1.2-.8-2.3-2-2.6-1.1-.3-2-1.1-2-1.9 0-.8-.6-1.1-1.7-.7-1.2.5-1.5.2-1-1 .4-1.2-.2-2.1-2.3-3.2-3.6-1.8-3.9-3.3-.7-3.3 1.2 0 3.2-.3 4.4-.7 1.9-.6 2.2-.4 2 2-.3 4 2 4.2 2.8.3.4-1.8 1.1-3.8 1.5-4.3 1.3-1.5-7.5-1.2-9.4.4-1.4 1.2-1.6 1.1-1.6-.8 0-1.4.6-2.1 1.9-2.1 1.1 0 2.3-.5 2.6-1 .9-1.4 3.5-1.3 3.5.2zm39.8 1c1 1 1.5 1 2.2-.2.5-.8 1.2-1.1 1.6-.7 1.1 1.1-.7 2.4-4.3 3.2-3.5.7-3.7.6-2.7-1.9.7-1.9 1.6-2 3.2-.4zM397 707c0 .5-.5 1-1.1 1-.5 0-.7-.5-.4-1 .3-.6.8-1 1.1-1 .2 0 .4.4.4 1zm-338.5 2c.3.5-2.1 3.5-5.4 6.6-3.4 3.1-6.1 6.4-6.1 7.4 0 2-9.9 8-13.1 8-1 0-2.2.7-2.6 1.5-1.2 2.1-5.3 2.3-6.6.3-1.7-2.6.8-4.6 7.9-6.4 8.1-2.2 8.8-2.7 11.3-7.9 1.7-3.6 3.1-5 6.5-6.5 2.4-1 4.7-2.3 5-2.9.9-1.4 2.3-1.4 3.1-.1zm217.5 4.5c0 .8-.4 1.5-.9 1.5-1.3 0-2.2-1.6-1.4-2.4 1.1-1.1 2.3-.6 2.3.9zm67.4.3c-1.1 1-1.9 2.3-1.6 3 .2.6-.1 1.2-.6 1.2-.6 0-1.2-.5-1.4-1-.4-1.2-4.1 1.9-5.6 4.6-1.1 2-4.4 1.2-3.7-.8.5-1.1 13-8.7 14.5-8.7.3 0-.4.7-1.6 1.7zm-282.7 3.7c-1.2 2-4.2 6.6-6.6 10.3-2.6 3.9-4.4 7.7-4.3 9.2l.2 2.5-1.3-2.5c-.7-1.3-2.3-3-3.5-3.6-3.1-1.5-2.9-2.3.9-4.3 1.8-1 3.6-2.4 3.9-3.2 2.7-5.9 4-7.6 6.9-9.6 5.1-3.4 6.4-3 3.8 1.2zm318.7-2.7c.9 1.6-1.5 8.2-2.9 8.2-.8 0-1.5-.5-1.5-1 0-.6.5-1 1.1-1 .5 0 .8-.4.4-1-.3-.5-.3-2.1.1-3.5.6-2.5 1.8-3.2 2.8-1.7zm39.6 1.3c0 .6-.4.7-1 .4-.5-.3-1-1.1-1-1.6 0-.6.5-.7 1-.4.6.3 1 1.1 1 1.6zm35-1.1c0 .5-.5 1-1.1 1-.5 0-.7-.5-.4-1 .3-.6.8-1 1.1-1 .2 0 .4.4.4 1zm43 6.6c0 3.6-.4 6.4-1 6.4-.5 0-1-.9-1-1.9 0-1.5-.5-1.8-2.2-1.3l-2.2.5 2.2-3.7c1.2-2 2.2-4.6 2.2-5.7 0-1.1.5-1.7 1-1.4.6.3 1 3.5 1 7.1zm-81.9.9c-.3.5-.7.2-.9-.8-.5-2.3-3.7-1.8-3.7.5 0 2.1-3.2 5.5-4.2 4.4-.4-.4-.3-1 .3-1.4.6-.4 1.9-2.3 2.9-4.2 3.1-6.1 3.7-6.5 5-2.8.6 1.8.9 3.7.6 4.3zm-336.4-4.3c1 .8 1 1.4.2 2.4-1.5 1.9-7.3 1.1-7.7-1-.5-2.1-1.4-2-4.6.5-3.5 2.7-4.6 1.7-1.5-1.5 2-2.1 3-2.3 7.3-1.9 2.8.2 5.6.9 6.3 1.5zm316.9 1c-.3 3.3-2.6 5.3-2.6 2.4 0-1.4 2-5.6 2.7-5.6.2 0 .1 1.4-.1 3.2zm26.4-.4c0 1.5-.2 1.5-1 .2-1.3-2-1.3-3.3 0-2.5.6.3 1 1.4 1 2.3zm46.4-.9c-.3.9-.7 2.1-.7 2.8 0 1.3-2.8.5-4-1.1-.4-.6-.6 0-.5 1.4.2 2-.1 2.4-1.7 2.2-4.5-.7-4.7-1.1-2.3-4 1.8-2.3 3.1-2.9 6.1-2.9 3.1 0 3.7.3 3.1 1.6zM280 720c0 2.9-1.7 3.3-2.2.5-.3-1.3-.3-2.7 0-2.9.9-1 2.2.5 2.2 2.4zm172-2.6c0 2.1-1.4 3.2-3.6 2.8-1.9-.3-2.2-.7-1.3-1.8 1-1.3 4.9-2 4.9-1zm-8 1.6c0 .5-.5 1-1.1 1-.5 0-.7-.5-.4-1 .3-.6.8-1 1.1-1 .2 0 .4.4.4 1zm-101 .9c0 3.7-3.6 5.3-7 3.1-1.3-.9-1.3-1 0-1.1.8-.1 1.9-.1 2.3 0 .4.1 1-.6 1.3-1.4.7-1.6 3.4-2.1 3.4-.6zm30 1.1c0 1.9-2 2.7-3.3 1.3-.8-.7 1.1-3.3 2.4-3.3.5 0 .9.9.9 2zm53.5-1c.3.5.1 1-.4 1-.6 0-1.1-.5-1.1-1 0-.6.2-1 .4-1 .3 0 .8.4 1.1 1zm-135.8 4.2c.7.5 1.6.7 2.1.5.4-.3 1.4-.2 2.1.2 1 .7.8 1.4-1 3.2-1.3 1.3-2.3 3-2.1 3.7.2 1-.3 1.2-1.7.7-1.2-.4-2.1-.2-2.1.4 0 .6-.5 1.1-1 1.1-.7 0-.7-.7.1-2.1.6-1.2.7-2.5.2-2.9-1-1-5.3.6-5.3 2 0 .6-.4.8-1 .5-.5-.3-1-1.7-1-3 0-2.5 3.4-4 6.4-2.9 3 1.1 1.6-1.4-1.4-2.6-1.6-.7-3-1.6-3-2.1 0-.9 6.7 1.7 8.7 3.3zM80.5 723c-.9 2.8.2 4.1 2.8 3.1 3.1-1 5.7-.3 5 1.5-.6 1.7 1.8 1.9 3.4.3.6-.6 1.7-.9 2.5-.6.8.3.1 1-1.9 1.8-1.7.7-3.4 2.1-3.6 3.1-.3 1-1 1.8-1.6 1.8-.6 0-.8-.7-.5-1.5.8-2-1.9-4.6-3.7-3.4-.8.5-3.3.9-5.6.9-4.1 0-5.5 1.1-3.2 2.6.6.3 1.5.1 1.9-.6.8-1.3 3-.6 3 1.1 0 1.1-6 1.2-7.6.1-2.4-1.5-2-3.8 1-6C74 726 76 725 76.7 725c.7 0 1.8-.9 2.5-2 1.6-2.5 2.1-2.5 1.3 0zm244.5-.5c0 .9-1.1 2.7-2.4 4-1.5 1.5-2 2.8-1.5 3.7 1.4 2.1 1 4.8-.6 4.8-.9 0-1.8-.7-2.1-1.5-.4-.8-1-1.2-1.5-.9-.5.3-.7.9-.4 1.3.2.5-2.1.9-5.1 1-5 .1-5.5-.1-4.4-1.4.7-.9 1-1.9.6-2.2-.4-.4-1-.3-1.4.2-.8 1.1-11.5 1.7-11 .6.2-.3 1-1.8 1.7-3.4 1.6-3.1 3.2-3.6 2.4-.7-.4 1.4 0 2 1.1 2 1 0 1.5-.4 1.2-.8-1-1.6 1.1-2.9 6.4-4 3-.6 6.4-1.4 7.4-1.8 1.6-.6 1.8-.4 1.3.9-.7 1.9 1.7 2.4 2.8.7.3-.6.1-1-.6-1-1.8 0 .1-1.7 2.6-2.3 3.3-.8 3.5-.8 3.5.8zm158.5.4c-.4 1.3 0 2.3 1.2 3 1.7 1 1.7 1.1-.2.8-1.1-.1-2.1-.7-2.3-1.2-.4-1.4.5-4.5 1.3-4.5.3 0 .4.9 0 1.9zm-8.1 3c.3.4-.3 1.6-1.3 2.5-2.2 2-4 .4-2.1-1.9 1.4-1.7 2.6-1.9 3.4-.6zM19.5 727c.3.5-.1 1-.9 1s-1.8-.5-2.1-1c-.3-.6.1-1 .9-1s1.8.4 2.1 1zm385.8.4c.4 1 .1 1.3-.7 1-.7-.3-1.6.2-2 1.2-.5 1.4-.9 1.4-2.2.3-1.5-1.2-1.4-1.5 1.2-2.6 1.6-.7 3-1.2 3-1.3.1 0 .4.7.7 1.4zm43 .7c18.4 2.8 34.7 18.9 37.5 37.2 1.2 8-.7 20.6-4.3 27.6-8.8 17.5-31 28.8-49 25.1-8.2-1.7-20.2-8.1-25.4-13.7-4.7-5-9.1-12.5-9.1-15.5 0-1-.7-3.3-1.6-5-2.6-4.9-2.1-16.5 1.1-26.4 4.5-13.7 19.6-26.3 35.2-29.3 6.7-1.2 7.5-1.2 15.6 0zm-348.9 2.5c.4 1-.1 2.5-1 3.5-1.8 2-6.4 2.6-6.4.8 0-.5 1-.9 2.2-.7 1.5.2 2.3-.2 2.4-1.2.2-3.4.4-4 1.3-4 .5 0 1.2.7 1.5 1.6zm235.7-.6c2.6 1.4 2.4 2.3-.8 3.7-3 1.3-10.3 1.4-10.3.2 0-.7 6.6-4.5 8.3-4.8.5 0 1.7.4 2.8.9zm19.9 0c0 .5.7 1 1.6 1 1.4 0 1.4.3.4 1.5-.7.8-1.6 1.5-2.1 1.5s-.6-.7-.3-1.5c.4-.9 0-1.5-1-1.5-.9 0-1.6.7-1.6 1.5s-.9 1.5-2 1.5-2-.5-2-1c0-.6-.9-1-1.9-1-2.6 0-5.2-1.1-4.7-1.9.7-1.1 13.6-1.2 13.6-.1zm7 0c0 .5-.4 1-1 1-.5 0-1-.5-1-1 0-.6.5-1 1-1 .6 0 1 .4 1 1zm16.8 2.6c-2.3 2.4-3.8 3-3.8 1.6 0-1.5 4.1-5.3 5.1-4.6.5.3-.1 1.6-1.3 3zm7.2-1.6c0 .5-.7 1-1.6 1-.8 0-1.2-.5-.9-1 .3-.6 1-1 1.6-1 .5 0 .9.4.9 1zm-18.7 2.4c-.4 2-.9 2.3-2.6 1.7-3-1.1-3.2-2.9-.5-3.4 1.3-.2 2.6-.5 2.9-.6.3 0 .4 1 .2 2.3zm24.3.5c-.4.6-1.4.7-2.3.4-1.5-.6-1.4-.7.3-1.3 2.2-.9 2.9-.6 2 .9zm-284.2 0c.3.5-.1 1.2-1 1.5-2 .8-2.9.1-1.9-1.3.8-1.3 2.2-1.4 2.9-.2zm266.6-.5c0 .3-.4.8-1 1.1-.5.3-1 .1-1-.4 0-.6.5-1.1 1-1.1.6 0 1 .2 1 .4zm-336 3.2c1.3 3.4 1.3 3.4-1.5 3.4-2 0-2.5-.5-2.5-2.3 0-4.4 2.5-5 4-1.1zm78.7-1c-.3.3-1.2.4-1.9.1-.8-.3-.5-.6.6-.6 1.1-.1 1.7.2 1.3.5zm375.5 1.6c-.7.7-1.2.8-1.2.2 0-1.4 1.2-2.6 1.9-1.9.2.3-.1 1.1-.7 1.7zM43.5 739c-.3.5-1.1 1-1.6 1-.6 0-.7-.5-.4-1 .3-.6 1.1-1 1.6-1 .6 0 .7.4.4 1zm273.2 4.2c-.3.8-.6.5-.6-.6-.1-1.1.2-1.7.5-1.3.3.3.4 1.2.1 1.9zm11.9.4c-.4.9-.9 1.5-1.1 1.2-.3-.3-.3-1.3.1-2.2.4-.9.9-1.5 1.1-1.2.3.3.3 1.3-.1 2.2zm12.1-.4c-.3.8-.6.5-.6-.6-.1-1.1.2-1.7.5-1.3.3.3.4 1.2.1 1.9zm-254.4.3c-.3.9-.8 1.4-1 1.1-.3-.3-.2-.9.2-1.5.9-1.6 1.5-1.3.8.4zm98.7.2c0 1-.8 2.7-1.7 3.8-1.4 1.8-1.5 1.8-.9.2.3-1 .6-2.7.6-3.8 0-1 .5-1.9 1-1.9.6 0 1 .8 1 1.7zm7 1.2c0 .6-.4 1.3-1 1.6-.5.3-1-.1-1-.9 0-.9.5-1.6 1-1.6.6 0 1 .4 1 .9zm300.1 8.4c-.8.8-1.1-.2-1.1-3.4 0-5.9 1.4-7.3 1.8-1.9.2 2.4-.2 4.8-.7 5.3zm-376.3-7.1c-.2.6-1 1.4-1.6 1.6-.7.2-1-.2-.6-1.2.7-1.8 2.8-2.2 2.2-.4zm4.9 1c-.3.8-.6.5-.6-.6-.1-1.1.2-1.7.5-1.3.3.3.4 1.2.1 1.9zm6.5 1.8c-.5 1.3-1.1 1.9-1.4 1.4-.3-.5-.1-2 .4-3.4 1.3-3.1 2.2-1.2 1 2zm33.8-3.2c0 .5-.7 1.7-1.5 2.8-1.5 1.9-2 .8-.9-2 .6-1.7 2.4-2.2 2.4-.8zm-76 .9c-.1 1.1-2.6 4.3-3.3 4.3-.4 0-.1-1.1.5-2.5 1-2.3 2.8-3.5 2.8-1.8zm10.2 1.5c-.7.7-1.2.8-1.2.2 0-1.4 1.2-2.6 1.9-1.9.2.3-.1 1.1-.7 1.7zm70.5 0c-.3.8-.6.5-.6-.6-.1-1.1.2-1.7.5-1.3.3.3.4 1.2.1 1.9zm10.9 2c-1.9 2.6-2 2-.5-1.9.6-1.5 1.3-2.2 1.6-1.6.2.7-.3 2.3-1.1 3.5zm27.1-2c-.3.8-.6.5-.6-.6-.1-1.1.2-1.7.5-1.3.3.3.4 1.2.1 1.9zm170.4.5c-.8 1.5-1 1.5-1.1.2 0-1.7 1-3.2 1.8-2.5.2.3-.1 1.3-.7 2.3zm6.5 2c-1 2.6-1.8.8-.9-2.3.5-2.1.8-2.4 1.1-1.1.2 1 .1 2.5-.2 3.4zm-278.5 1c-1.1 2.1-2 3.3-2.1 2.7 0-1.5 3.1-7.6 3.7-7.1.2.3-.5 2.2-1.6 4.4zm44.5-2.1c-.4.9-.9 1.5-1.1 1.2-.3-.3-.3-1.3.1-2.2.4-.9.9-1.5 1.1-1.2.3.3.3 1.3-.1 2.2zm-81.4.6c-.7.7-1.2.8-1.2.2 0-1.4 1.2-2.6 1.9-1.9.2.3-.1 1.1-.7 1.7zm75.8-1.4c0 .5-.7 1.7-1.5 2.8-1.5 1.9-2 .8-.9-2 .6-1.7 2.4-2.2 2.4-.8zm-54.9 4.5c-1 2.7-3.1 4.5-3.1 2.7 0-1.3 3.1-6.2 3.7-5.7.2.2-.1 1.6-.6 3zm268.9-1.8c0 .8-.4 1.5-1 1.5-.5 0-1-.7-1-1.5s.5-1.5 1-1.5c.6 0 1 .7 1 1.5zm-131.6 1c-.4.8-1 1.5-1.5 1.5s-.9-.7-.9-1.5.7-1.5 1.5-1.5c.9 0 1.2.6.9 1.5zm-107.7 2.7c-.3.8-.6.5-.6-.6-.1-1.1.2-1.7.5-1.3.3.3.4 1.2.1 1.9zm77.3-1.8c0 .3-.4.8-1 1.1-.5.3-1 .1-1-.4 0-.6.5-1.1 1-1.1.6 0 1 .2 1 .4zm-31.7 3.1c-.3.8-.9 1.5-1.4 1.5-1 0-1.2-2.4-.3-3.3 1.1-1.1 2.4.3 1.7 1.8zm37.7-1.1c0 .3-.4.8-1 1.1-.5.3-1 .1-1-.4 0-.6.5-1.1 1-1.1.6 0 1 .2 1 .4zm6 0c0 .3-.4.8-1 1.1-.5.3-1 .1-1-.4 0-.6.5-1.1 1-1.1.6 0 1 .2 1 .4zM108 770c0 .5-.5 1-1.1 1-.5 0-.7-.5-.4-1 .3-.6.8-1 1.1-1 .2 0 .4.4.4 1zm-27 4c0 .5-.2 1-.4 1-.3 0-.8-.5-1.1-1-.3-.6-.1-1 .4-1 .6 0 1.1.4 1.1 1zm163.8 8.3c1.8 3.4 3.2 6.6 3.2 7.1 0 .4-1.7.5-3.7.2-4.1-.8-7.3-3.7-7.3-6.7 0-2 2.7-6.9 3.9-6.9.3 0 2.1 2.8 3.9 6.3zM79 780c0 .5-.4 1-1 1-.5 0-1-.5-1-1 0-.6.5-1 1-1 .6 0 1 .4 1 1zm417 12.7c2 11.2 2.6 17.3 1.9 18.5-.4.6-1.5-2.5-2.4-6.8-2.2-10.5-2.2-10.5-4-9.8-1.9.8-1.9-.6 0-3.2.8-1 1.5-2.7 1.5-3.7 0-4.1 1.8-1.2 3 5zm-424-5c0 2.4-2.2 8.3-3.1 8.3-.6 0-.8-.8-.5-1.8.3-.9.8-2.9 1.2-4.5.5-2.4 2.4-3.9 2.4-2zm5 .2c0 1.2-2 2.5-2.7 1.8-.7-.7.6-2.7 1.8-2.7.5 0 .9.4.9.9zm-15.9 5.2c-.5 1.3-1 1.9-1 1.2-.1-1.5 1-4.5 1.5-4 .3.2 0 1.5-.5 2.8zm30.2.1c-.5 2.6-2.3 4-2.3 1.8 0-1 2.3-5.1 2.6-4.7.1.1 0 1.4-.3 2.9zm-17.1 3c-1.5 1.5-2.6.4-1.8-1.8.5-1.3.9-1.5 1.8-.6s.9 1.5 0 2.4zm11.4 8.4c-.6 1.6-4.6 1.9-4.6.4 0-.6 1-2.5 2.3-4.1l2.2-3.1.3 2.7c.2 1.5.1 3.3-.2 4.1zM69 802.1c0 .5-.7.9-1.5.9-1.5 0-2-1.2-.9-2.3.8-.8 2.4.1 2.4 1.4zm4 1.5c0 .8-.4 1.4-1 1.4-.5 0-1-.9-1-2.1 0-1.1.5-1.7 1-1.4.6.3 1 1.3 1 2.1zm21.8 2.1c-1.2 1.5-4.4 1.7-5.3.3-.3-.5-.1-1.9.5-3 1-2 1.2-2 3.4-.3 1.8 1.3 2.1 2.1 1.4 3zm398.6-1.1c.8 2.2-.4 4-1.5 2.3-1.1-1.8-1.1-3.9 0-3.9.5 0 1.2.7 1.5 1.6zM65.1 814.8c-.5 1.5-1.5 4.6-2.1 6.9-1.1 4.4-3 5.9-3 2.4 0-2 3.5-13.5 4.7-15.4 1.3-1.9 1.6 3.1.4 6.1zm6.5-4.1c-.3 2.9-3.6 4.7-3.6 2 0-2.6 1.2-4.7 2.5-4.7.9 0 1.3 1 1.1 2.7zm413.9-.7c-.3.5-1.1 1-1.6 1-.6 0-.7-.5-.4-1 .3-.6 1.1-1 1.6-1 .6 0 .7.4.4 1zm-429.2 3c-.3 1.1-.7 2-.9 2-.2 0-.4-.9-.4-2s.4-2 .9-2 .7.9.4 2zm4.7-1.7c0 .2-1.6 5.3-3.5 11.3-1.9 6-3.5 11.7-3.5 12.6 0 2.5-2 3.3-3.7 1.5-1.3-1.3-1.3-2.4.6-9.6 2.2-8.8 4.1-13.2 4-9.6 0 1.1-.6 3.8-1.4 6-.8 2.2-1.5 5-1.5 6.3 0 4.2 1.8 1.3 3-4.6 1.4-7.2 3.9-14.2 5.1-14.2.5 0 .9.2.9.3zm432.7 2.9c-.3.8-.6.5-.6-.6-.1-1.1.2-1.7.5-1.3.3.3.4 1.2.1 1.9zM68 819.6c0 3.1-5 17.4-6 17.4-.7 0 1.4-9.6 3.6-16.8.3-1.2 2.4-1.7 2.4-.6zm431 8.6c0 4-1.3 2.7-2.8-2.8-1.7-6.1-1.5-7.3.8-3.6 1.1 1.8 2 4.7 2 6.4z"/><path d="M452 5.2c-2.4 3.9-2.8 12.9-.6 14.7 1.8 1.5 2.6-.5 2.6-6.7 0-5.2 1.2-7.8 2.9-6.8.6.4.9 1.1.6 1.6-.3.5.2 1.3 1.1 1.8 2.4 1.3 3.6 9.6 2.8 20.1-.5 7.7-.4 9.3.7 8.9 1.6-.5 2.7-7.2 2.8-17.3.1-11.4-.7-14.3-4.8-17.1-4.7-3.1-5.7-3-8.1.8z"/><path d="M456.7 12.6c-.4.4-.7 2.2-.7 4 0 4.2-.9 6.4-2.6 6.4-1.5 0-1.8 2.7-.8 5.4.3.9 1.4 1.6 2.4 1.6s2 .5 2.2 1.2c.2.6 1 .8 1.7.4.9-.6 1-3.1.6-9.4-.6-8.4-1.4-11-2.8-9.6zM464 43.9c0 3.4 1.5 4.9 2.4 2.5 1.1-2.8.6-5.4-.9-5.4-1 0-1.5 1-1.5 2.9zM408.7 35.2c-1.3 2.4-3.7 7.1-5.2 10.5-1.5 3.5-3.3 6.3-3.9 6.4-.6 0-5.7 0-11.3-.1-11.8-.2-12.7.6-5.7 4.8 2.5 1.5 6.6 4.2 8.9 5.9l4.3 3.3-4.4 10.4c-4.7 11.2-5.3 14.3-2.9 15.3 1.7.6 11.4-4.9 18.2-10.4 2.3-1.8 5-3.3 6-3.3s6.2 3.2 11.6 7.1c5.4 3.9 10.6 6.9 11.5 6.7 2.6-.6 1.7-5.9-2.3-14.5-1.9-4-3.5-8-3.7-8.9-.2-1.1 2.2-3.2 7.2-6.3 11.2-7 10.9-7.4-8.9-9.8l-6.3-.8-4-10.3c-2.3-5.8-4.5-10.2-5.3-10.2-.7 0-2.4 1.9-3.8 4.2zm6.1 8.8c1.3 3.8 2.1 7.4 1.7 8-.6 1-9.4.3-10.7-.9-.4-.3-.1-2 .7-3.6.8-1.7 2.1-4.7 2.9-6.8.8-2 1.9-3.7 2.3-3.7.4 0 1.8 3.2 3.1 7zm-16 12.5c.1.1-.2 1.4-.7 2.9l-1 2.6-4.6-2.2c-6.3-3.1-6-4.9.8-4.1 2.8.3 5.3.7 5.5.8zm17.5-.9c3 .6 4 1.3 5.1 3.9 3 7 3 7-2.6 10.4-6.1 3.8-7.6 3.6-13.9-1.9-4.5-3.8-4.6-4.1-3.5-7.2.6-1.8 1.5-3.9 1.9-4.6.9-1.3 6.8-1.6 13-.6zm20 1.1c2.7.7 2 1.9-2.9 4.4l-4.5 2.4-2-2.4c-3.2-3.9-2.5-5.1 2.9-5 2.6 0 5.5.3 6.5.6zm-31.8 14.5c2.5 1.7 4.5 3.5 4.5 3.9 0 1.7-16.7 12.5-17.7 11.5-.4-.4 2.2-7.9 5.7-16.4 1.3-2.9 2.1-2.8 7.5 1zm22.3 1c1.4 2.7 4.2 10.7 4.2 11.9 0 1.7-2.1.9-8-3.2-3.3-2.2-6-4.7-6-5.5 0-1.1 6.1-5.2 8.1-5.4.3 0 1.1 1 1.7 2.2zM423.6 161.2c-.8 1.3-3.1 6.6-5.1 11.8-2 5.2-4.2 10.1-4.9 10.8-.8.8-4.9 1.4-11.7 1.7-5.7.2-10.4.7-10.4 1.2 0 1.5 7.8 7.9 12.3 10.2 2.7 1.4 4.2 2.8 4.2 4.1 0 1-1.8 5.7-4.1 10.4-3.9 8.3-4.8 13.5-2.3 14.3.6.2 3.7-1.4 7-3.5 3.2-2.1 8.6-5.4 11.9-7.4l6-3.6 6 3.1c6.1 3.2 7.8 4.2 15 9 7.6 5.1 8.1-.6 1.4-15-1.6-3.4-2.9-7.1-2.9-8.1 0-1.3 2.3-3.4 6.6-6.3 12.3-8 12.1-8.9-2.1-8.9h-10.3l-5.1-10.4c-2.8-5.7-5.1-10.8-5.1-11.3 0-1.1-3.3-4.3-4.3-4.3-.4 0-1.3 1-2.1 2.2zm5.1 7.5c.8 2.1 2.6 6.2 4 9 1.3 2.9 2.2 5.7 1.8 6.3-1 1.6-14.5 1.3-15.1-.3-.8-2.3 5.5-18.7 7.3-18.7.2 0 1.1 1.7 2 3.7zm8.8 20.6c.8 1.3 1.7 3.6 2.1 5.3.7 3.4-.5 4.7-8.2 8.9l-5.2 2.7-5.8-3.4c-6.6-3.8-7.7-6.4-5-11.7 1.8-3.4 3.2-3.8 13.3-4 6.5-.1 7.4.1 8.8 2.2zm15.8-.8c-.1.5-2.2 2.1-4.8 3.5-3.9 2.2-4.7 2.3-5.5 1-2-3.1-1.2-4.9 2.8-5.3 5.4-.6 7.7-.3 7.5.8zm-41.7 2.7c-.3 1.8-1 3.5-1.4 3.9-1 1-11.3-5.1-10.6-6.2.3-.5 3.2-.9 6.6-.9h6.1l-.7 3.2zm9.3 16.4c1.9 1.7.9 2.8-5.7 6.5-3.1 1.8-6.7 4.1-7.9 5.2-3.7 3.3-3.8 1.2-.2-7 4.6-10.8 4.5-10.7 8.8-8.1 2 1.1 4.2 2.7 5 3.4zm22.5-2.2c1.9 3 5.7 12.8 5.1 13.4-.5.5-15.3-8.6-16-9.9-.6-.9 6.2-5.7 8.1-5.8.7-.1 1.9 1 2.8 2.3zM426.3 308.7l-6 10.8-12.3.5c-8.3.3-12.5.9-12.7 1.7-.4 1.2 1.2 2.8 8.6 8.5 7.2 5.4 7.2 5.7 1.6 14-2.8 4-6.5 9.2-8.3 11.6-3.9 5.2-3.7 7.7.5 6.1 1.5-.5 8.2-3.7 14.8-7 6.6-3.2 12.6-5.9 13.2-5.9.7 0 4.2 2.7 8 6 3.7 3.3 7.1 6 7.6 6 .4 0 2.6 1.3 4.9 3 2.2 1.6 5 3 6.1 3 1.7 0 1.9-.5 1.3-4-.3-2.2-1.2-5.4-2-7.2-.8-1.8-2.6-6.8-3.9-11.1l-2.6-7.7 3.2-2.4c1.8-1.4 6.1-4.2 9.7-6.4 5.1-3.1 6.5-4.4 6.5-6.3 0-2.4-.1-2.4-12.5-2.9l-12.4-.5-.9-4c-.4-2.2-1.2-5.6-1.7-7.5-.5-1.9-1.2-4.7-1.5-6.3-.3-1.5-1.2-2.7-1.9-2.7-.8 0-4.1 4.8-7.3 10.7zm8.1 2.9c1 3.1 1.4 6 .9 6.4-1.2 1.1-10.1 2.1-10.7 1.2-.5-.9 6.4-13.2 7.4-13.2.4 0 1.4 2.5 2.4 5.6zm2 11.3c1.9.8 2.7 2.1 3.6 6.5.6 3.1.9 6 .5 6.6-.3.5-3.5 2.6-7.1 4.6-7.2 4-7 4.1-14.7-2.7l-3.8-3.4 3.4-5.5c3.2-5.4 3.4-5.5 8.8-6.1 3-.3 5.7-.6 6.1-.7.4-.1 1.8.2 3.2.7zm21.9 0c2 .3.1 2.2-5.5 5.7-3.4 2.1-6.6 4.1-7 4.2-1.1.5-4-6.7-3.4-8.4.6-1.5 9.5-2.4 15.9-1.5zm-41.5 1.6c.2.1-.7 1.9-1.9 3.9l-2.1 3.6-3.7-2.1c-8.4-5.1-8-7.3 1.2-6.3 3.4.4 6.3.8 6.5.9zm1.6 17.8c2.4 2 3.6 3.8 3.2 4.5-1.4 2.3-18.6 9.5-18.6 7.8 0-1.4 9.4-15.6 10.3-15.6.7 0 3 1.5 5.1 3.3zm24.6-2.8c0 1.8 4.3 16.2 5.6 18.6 1 2.1 1.1 2.9.3 2.9-2 0-14.5-9-16.7-12l-2.1-2.8 2.2-2c3.8-3.4 10.7-6.4 10.7-4.7zM426.2 423.2c-1.6 2.4-4 6.8-5.2 9.8-3.5 8.2-3.1 8-13.5 8-7.2 0-9.5.4-10.6 1.6-1.1 1.3-.6 2.1 3.2 5.5 2.4 2.1 5.6 4.7 7.1 5.6 1.5.9 2.9 2.2 3.2 2.8.4 1.1-3.6 11.8-7.1 19.2-1.8 4-1.4 6.7 1.2 7.1 1.1.1 6.4-2.7 12-6.3 5.5-3.6 10.5-6.5 11.2-6.5.6 0 3.8 1.8 7 4 11.7 8.1 12.8 8.8 14.9 9.4 1.1.3 2.7 0 3.6-.6 1.4-1.2 1.2-2.2-2.4-10.8-7.1-16.8-7-15.6-1.3-20.7 2.8-2.4 6.5-5.1 8.3-5.9 6.2-2.6 3.5-3.9-8.6-4.2l-11.2-.3-2.6-8.7c-4.5-15.3-4.7-15.5-9.2-9zm6.1 10c1.4 4 2.3 7.6 1.9 7.9-.4.4-3.3.4-6.4.2-4.2-.4-5.8-1-5.8-2 0-1.9 6-13.3 7-13.3.4 0 1.9 3.3 3.3 7.2zm-18.2 12.4c.9.5-.9 6.4-2 6.4-1.3 0-8.1-5.1-7.7-5.8.5-.9 8.5-1.4 9.7-.6zm22.2.3c.7.1 1.7 2.1 3.1 6.8.6 1.9-.3 2.9-5.5 6.8-3.5 2.5-6.7 4.5-7.2 4.5-.6 0-3.2-1.7-5.9-3.8-5.3-4-5.6-5.4-2.9-12.5l1.1-2.9 8.3.6c4.5.3 8.5.5 9 .5zm13.7 0c0 1.1-5.4 5.1-6.8 5.1-1.3 0-2.5-3.6-1.7-5 .8-1.3 8.5-1.3 8.5-.1zm-4.5 21.1c6.1 13.9 5.7 14.7-4 7.5-3.3-2.4-7.1-5.2-8.4-6.1l-2.5-1.8 4.5-3.8c2.4-2.1 5-3.7 5.7-3.6.7.2 2.8 3.7 4.7 7.8zm-25.7-3.2l3.3 2.5-2.2 2.3c-1.3 1.3-2.7 2.4-3.2 2.4-.6 0-2.5 1.1-4.3 2.5-3.9 3-5.9 3.3-4.9.7.4-.9 1.3-3.3 2.1-5.2 3.7-10.3 2.9-9.9 9.2-5.2zM256.9 483.3c.7 1 2 1.7 2.7 1.7.8 0 1.4.7 1.4 1.5 0 1.2-.4 1.3-1.9.5-3.5-1.8-4.1-1.2-4.1 4.5 0 3 .2 5.5.5 5.5.4 0 7.3-3.2 10.8-5.1 1.4-.8 2.2-.6 3.3.8 1.3 1.7 1.3 1.7 1.4-.5 0-1.2-.4-2.2-1-2.2-.5 0-1-.6-1-1.3 0-2.5-4.5-5.6-9-6.3-4.1-.7-4.4-.6-3.1.9zM251 495c0 .5.5 1 1 1 .6 0 1-.5 1-1 0-.6-.4-1-1-1-.5 0-1 .4-1 1zM434.6 559.7c-.9 1-6.8 13.6-9.1 19.5-1 2.7-2.3 4.9-2.9 5-.6.1-5.1.2-10.1.2-11.5.1-11.8 1.2-2.5 9.1 3.8 3.3 7 6.7 7 7.6 0 1.7-5.5 18.1-7.1 21.1-1.3 2.3-.2 5.8 1.7 5.8.8 0 6.1-3.6 11.9-8.1 7.2-5.5 11.1-7.8 12.3-7.5 1 .4 4.7 3.1 8.3 6.1 3.5 3 8.7 6.7 11.6 8.2 8.2 4.4 8.4 3.1 2.3-14.2-2.9-8-4.9-14.9-4.5-15.3.3-.4 3.6-3 7.3-5.7 4.4-3.3 6.8-5.9 7-7.4l.4-2.3-10.4.3-10.3.4-4.2-8.5c-2.3-4.7-4.5-10-4.9-11.8-.6-3-2.2-4.1-3.8-2.5zm4.8 14.4c2.1 4.5 3.4 8.5 2.9 9-1.2 1.2-12.1 1.5-13.3.3-.9-.9-.2-3.4 4.1-14.7.6-1.5 1.4-2.7 1.9-2.7.4 0 2.4 3.7 4.4 8.1zm4.3 12.7c.7.4 1.9 2.8 2.8 5.2 1.5 4.1 1.4 4.4-.5 6.5-1.2 1.2-4 3.6-6.4 5.3l-4.2 3.1-6.2-4.1c-6.5-4.3-6.9-5-4.8-10.8 1.3-3.4 1.4-3.5 9.2-4.6 4.3-.6 8.1-1.2 8.4-1.2.3-.1 1 .2 1.7.6zm16.3.1c0 .9-7.3 7.1-8.3 7.1-.9 0-2.7-6.2-2.1-7.1.7-1.2 10.4-1.2 10.4 0zm-39 3.2c0 1.1-.5 2.9-1.1 4.1-1.1 2-1.2 1.9-4.5-1.3-1.9-1.8-3.4-3.7-3.4-4.1 0-.4 2-.8 4.5-.8 3.9 0 4.5.3 4.5 2.1zm29 11.4c0 .2 1.6 4.7 3.4 9.9 1.9 5.3 3.1 9.8 2.6 10.1-1 .6-16-11-16-12.4 0-1.1 7.7-8.1 9-8.1.6 0 1 .2 1 .5zm-20.4 7.6c1.2 1.3.8 1.9-3.4 5-6.8 4.9-10.4 7.1-10.9 6.6-.5-.6 4.4-13.7 5.8-15.4.9-1 1.7-1 4.1.5 1.6.9 3.6 2.4 4.4 3.3zM252.7 585.9c-.5 2.2.1 3.3 1.4 2.5 1.2-.7 1.2-4.4 0-4.4-.5 0-1.1.9-1.4 1.9zM248 595.5c-1 1.2-1 1.5.3 1.5 1.9 0 3.1-1.6 1.8-2.4-.5-.3-1.4.1-2.1.9zM258.1 596.1c-1.9.7-2.2 1.2-1.2 2.2 1.3 1.3 4.2 0 4.9-2.1.4-1.4-.4-1.4-3.7-.1zM239.5 599c.3.5 1 1 1.6 1 .5 0 .9-.5.9-1 0-.6-.7-1-1.6-1-.8 0-1.2.4-.9 1zM213 619.1c0 .5.5.7 1 .4.6-.3 1-.8 1-1.1 0-.2-.4-.4-1-.4-.5 0-1 .5-1 1.1zM215.1 626.6c0 1.1.3 1.4.6.6.3-.7.2-1.6-.1-1.9-.3-.4-.6.2-.5 1.3zM282 630c0 .5.7 1 1.5 1s1.5-.5 1.5-1c0-.6-.7-1-1.5-1s-1.5.4-1.5 1zM305 646.8c0 1.8 3.7 4.2 6.4 4.2.8 0 1.9.7 2.6 1.5 1.6 2 2.8 1.9 3.2-.3.3-1.2-1.1-2.5-4.6-4.5-5.8-3.2-7.6-3.4-7.6-.9zM99.7 650.8c-2.1 2.3-2.2 4.6-.1 6.3 1.8 1.5 1.5 5.4-1 15.9-1.8 7-1.4 13.1 1 19 .8 1.9 2.4 7.8 3.5 13s2.4 10.5 2.9 11.7c1.7 4.1 8 7.2 17.5 8.8 8.6 1.4 10.5 1.3 10.5-.5 0-2.2-3.3-3.8-9.1-4.4-3.5-.3-8.2-1.5-10.5-2.6-3.6-1.8-4.4-2.8-5.8-7.1-.9-2.8-2.1-6.9-2.5-9.2-.5-2.3-1.9-7.7-3.2-11.9l-2.3-7.7 1.9-7.8c1-4.3 1.9-9.3 2.1-11 .1-1.8.5-4.5.8-6 .6-2.9-1.1-7.4-3-8-.6-.2-1.8.5-2.7 1.5z"/><path d="M112.4 667.4c-1.6 4.1 4.5 13.4 16.2 25 6.4 6.4 14.2 11.9 15.5 11 1.4-.8-3.7-6.1-8.2-8.4-5.5-2.9-18.3-19.1-20-25.5-1-3.6-2.6-4.5-3.5-2.1zM190.5 702.3c-2.7 1.7-9 5.7-14 8.9-8.8 5.7-9.1 5.9-14.2 5.2-4.4-.5-5.3-.4-5.3.9 0 1.5 4.8 3.7 8.2 3.7 1.1 0 5.2-2.1 9.1-4.7 4-2.5 9.7-6 12.7-7.6 7.4-4 12.2-7.6 11.5-8.8-1-1.4-2.6-.9-8 2.4zM142.3 716.5c-.7 2.1-.6 2.1 4.9 2.8 5 .7 6.8-.4 4.8-2.8-1.7-2-8.9-2-9.7 0zM65.3 659.6c-.7 1.8.8 4.9 2.3 4.9.5 0 1-1.5 1.2-3.3.2-2.4-.1-3.2-1.3-3.2-.8 0-1.8.7-2.2 1.6zM65.1 677.4c-.9 1-.9 1.6-.1 2.1 1.7 1 3.7-1.2 2.4-2.5-.8-.8-1.5-.6-2.3.4zM40.4 691.5c-.7 1.7.4 3.7 1.7 3 1.2-.8 1.2-4.5-.1-4.5-.6 0-1.3.7-1.6 1.5zM469.7 694.6c-.4.4-.7 2-.7 3.6 0 2.1.5 2.8 1.9 2.8 1.5 0 1.8-.7 1.7-3.2-.1-3.1-1.5-4.6-2.9-3.2zM464.4 696.5c-.3.8-.3 1.9.1 2.5 1.1 1.8 2.5 1.1 2.5-1.5 0-2.7-1.7-3.4-2.6-1zM480 701.1c0 .5.5.7 1 .4.6-.3 1-.8 1-1.1 0-.2-.4-.4-1-.4-.5 0-1 .5-1 1.1zM463.2 705.2c.5 1.5 2.8 1.8 2.9.3 0-.6-.7-1.2-1.7-1.3-1-.3-1.5.1-1.2 1zM470 711.1c0 .5.5.7 1 .4.6-.3 1-.8 1-1.1 0-.2-.4-.4-1-.4-.5 0-1 .5-1 1.1zM432.5 708.3c-.4 1-.5 2.1-.1 2.4 1 1 1.8-.4 1.3-2.4-.4-1.7-.4-1.7-1.2 0zM367.4 699.4c-.6 1.7.2 3.6 1.7 3.6 1.2 0 1.2-3.7-.1-4.5-.6-.3-1.3.1-1.6.9zM362.7 702.6c-.3.3-.3 1.3 0 2.1.5 1.2.7 1.2 1.4.1 1.5-2.3.4-4-1.4-2.2zM367.7 707.5c-.5 1 0 1.5 1.4 1.5 1.2 0 1.9-.5 1.7-1.2-.6-1.8-2.5-2-3.1-.3zM367.8 713.1c-2.3 1.3-2.3 3.2-.1 2.7.9-.2 1.7-1.1 1.9-2.1.1-.9.2-1.7.1-1.7s-1 .5-1.9 1.1zM439.7 735.8c-1.6 1.7-2.9 4.7-8.7 19.2l-1.8 4.5-8.4.1c-11.6.2-11.8.3-11.8 1.6 0 1.5 5.1 5.8 9.8 8.2 1.8.9 3.5 2.3 3.8 3 .6 1.4-5.6 20-7.8 23.5-.8 1.4-.9 2.4-.2 3.1.7.7 4.5-1.3 12.3-6.5 6.1-4.1 11.6-7.5 12.1-7.5 1.1 0 18.6 11.6 21.5 14.2 1 1 2.4 1.7 3 1.5 2.1-.7 1.4-5.6-2.5-16.7l-4-11.5 2.7-2.3c5.1-4.3 11.7-8.2 13.9-8.2 2.6 0 5-2.5 3.4-3.5-.6-.3-5-.2-9.8.4-8.2.9-14.8.9-15.5 0-.2-.2-1.9-5.1-3.7-10.9-4.6-14.9-5.2-15.7-8.3-12.2zm5.5 14.4c1.5 4.4 2.5 8.5 2.2 9-.3.4-3.4.8-7 .8-7.5 0-7.6-.2-3.8-9.3 2.6-6.3 4.1-8.7 5.3-8.7.4 0 1.9 3.7 3.3 8.2zM426.5 764c.7 1.1-1.1 5-2.3 5-.4 0-2.3-1.3-4.2-3l-3.5-2.9 4.7-.1c2.6 0 5 .4 5.3 1zm23.3.3c.6.7 1.6 2.5 2.1 4 1 2.6.7 2.9-5.1 7.2-3.4 2.5-6.6 4.5-7.2 4.5-1.7 0-11.6-7.3-11.6-8.6 0-.7.9-2.9 2.1-4.8l2.1-3.6h8.3c5.5 0 8.6.4 9.3 1.3zm13.2-.5c0 .4-1.6 1.6-3.5 2.6-2.6 1.4-3.9 1.6-4.7.8-2.1-2.1-.1-4.2 4.2-4.2 2.2 0 4 .3 4 .8zm-5.6 20.1c1.6 4.5 2.6 8.5 2.2 8.8-.6.6-11.5-5.6-14.8-8.5-1-.8-1.5-1.9-1.2-2.4 1.1-1.8 8.8-6.8 9.8-6.5.6.2 2.4 4 4 8.6zM435 783c0 1-11.3 8-12.9 8-.8 0-1-.8-.7-2 .3-1.1.9-3 1.2-4.2.4-1.2 1.3-3.6 2-5.5l1.5-3.4 4.4 3.1c2.5 1.7 4.5 3.5 4.5 4zM224 15c-26.7.5-27.5.6-27.5 2.5 0 1.7.8 2 5.2 2.3 3.2.2 5.3.8 5.7 1.7.3.8 2.8 4.5 5.5 8.3 2.8 3.9 5.1 7.5 5.1 8.1 0 .7-2.3 1.1-5.9 1.1-3.3 0-6.3.5-6.7 1.1-1.6 2.6 1.8 3.1 18.8 2.9 9.5-.1 26-.3 36.5-.4 10.6-.2 19.6-.6 20-.9 1-1-.2-1.9-3.9-2.6l-3.3-.7-.2-8.7c-.3-7.7-.1-8.8 1.6-9.7 1.1-.5 2.8-1 3.9-1s2.5-.6 3.1-1.4c.9-1.1.8-1.5-.6-2.2-2.2-.9-21-1.1-57.3-.4zm10 5.8c0 1.5-5.9 10.3-9.1 13.7-.9.9-7.1-4.9-10.4-9.8-3.1-4.8-1.7-5.7 9.5-5.7 8.9 0 10 .2 10 1.8zm12.6-.5c.2.7.6 5.1.7 9.7l.2 8.5-8.5.5c-4.7.3-8.8.3-9.2 0-.4-.3 1.2-3.5 3.5-7.1 2.3-3.7 5-8.1 5.9-9.8 1.2-2.2 2.4-3.1 4.3-3.1 1.4 0 2.8.6 3.1 1.3zm9.3 2.7c.3 1.9.5 6.2.6 9.5 0 5.3-.2 6-2 6s-2-.8-2.5-8.8c-.6-10-.4-10.9 1.8-10.5.9.2 1.8 1.7 2.1 3.8zm12.4 5.2c.1 4.8-.1 8.9-.4 9.2-.3.3-1.6.7-3 .8-2.3.3-2.4 0-2.1-4.2.2-2.5-.1-6.5-.7-8.9-1.2-5.5-.8-6.3 3.1-5.9l3 .3.1 8.7zM7 673.4c0 .8.4 1.7.9 2 1.1.7 3.3-1.8 2.4-2.7-1.2-1.2-3.3-.7-3.3.7zM19.8 689.6c-.3.3-.4 1.4-.1 2.5.8 2.8 3.3 2.4 3.3-.6 0-2.3-1.8-3.4-3.2-1.9zM128 814.1c-17.3 1.6-19.6 2-25.7 4-7 2.3-14.7 7.1-17 10.6-1.2 1.9-1.4 3.9-.9 9.4 1.2 13.3 9.4 20.3 29.6 25.2 11.3 2.7 26.7 4.7 37 4.8 9.9.1 26-1.1 27.8-2.1 1-.4 4.6-1.9 8.2-3.1 10.2-3.6 18.9-13.9 19-22.4 0-4.3-5-10-11.9-13.4-8.9-4.5-26.1-10.9-32.1-12-8.2-1.5-24.4-2-34-1zm19.5 4.9c19.7 1.3 30.3 4.3 41.5 11.5 7.5 4.8 9.5 6.9 10.4 10.8 1.5 6.1-6 13.7-16.8 16.9-1.7.4-10.6 1.1-19.7 1.5-16.3.6-25.8-.3-44.3-3.8-8.9-1.7-24.4-9.7-29.1-14.9-3-3.3-2.6-9.2.9-12.9 5.8-6 16-8.6 39.6-9.9 1.4-.1 9.3.3 17.5.8z"/><path d="M148.3 823.1c-4.1 2.6-13.1 5.9-14.6 5.4-3.2-1.1-21.2-2.4-22-1.6-.5.5 1.3 2.1 4.4 3.9l5.2 3-7.1 3.6c-5.3 2.7-7.2 4.1-7.2 5.6 0 2.4 2.7 2.5 18.1.9 5.7-.6 12-1.1 13.9-1.2 3.6-.1 12.3 3.4 13.6 5.4.9 1.6 11.4 6 12.5 5.4 1.5-1 1-3.8-1.1-7-3.9-5.9-2.1-7.5 10-9.2 3.8-.6 5.5-1.3 5.5-2.3 0-1-1.2-1.6-3.5-1.8-17.8-1.3-22-2.8-22-7.8 0-3.7-2.2-4.5-5.7-2.3zm2.5 11c4 1.5 2.6 3.6-2.9 4.2-4 .5-6 .2-9.3-1.5-5.2-2.6-5.3-2.7-3.6-3.9 1.6-1 12-.2 15.8 1.2zm-19.2 3.3c1 .8 1.6 1.7 1.3 2-1 1-16.5 2-15.6 1 1.1-1.2 8.8-4.3 10.8-4.3.8-.1 2.4.5 3.5 1.3zm25.4 5.7c1.5 2.6.7 3.4-1.9 1.9-2.2-1.1-2.6-2.2-1.4-3.3 1.1-1.2 2.2-.8 3.3 1.4zM458 829.2c-4.2 1.2-4.6 1.5-5.4 5.1-.5 2.3-.2 2.9 1.6 3.6 2 .7 1.5 1-3.4 2-3.1.7-6.2 1.9-6.8 2.7-2 2.3.6 4.4 5.6 4.4s6.8 1.7 2.7 2.6c-9.4 2-13.3 4.5-11.2 7 .7.9 3.2 1.4 7 1.4 4.6 0 5.9.3 5.9 1.5 0 1.1-1.2 1.5-4.4 1.5-5.6 0-9.7 2.9-8 5.7 1.1 1.8 5.4 3.1 5.4 1.7 0-.4-.7-1.6-1.7-2.6-1.5-1.7-1.4-1.8 3.5-1.8h5.1l.6 5.5c.4 3 1.1 5.5 1.5 5.5 1.6 0 2.9-2.7 3.2-7l.3-4.5 14.5-1.6c8-.9 15.3-1.9 16.2-2.3 2.7-1.2 2.9-3.5.5-4.8-2-1.1-6.9-1.2-27.1-.4-2.3 0-4.1-.4-4.3-1.1-.3-.9 1.9-1.3 7.9-1.5 10.4-.4 10.6-2.2.3-2.6-12-.5-8.8-2.2 4-2.2 9.6 0 11.5-.3 11.5-1.5s-1.9-1.5-11-1.5c-6.2 0-11-.4-11-.9 0-.6 2.1-1.1 4.7-1.3 6.8-.4 6.9-2.8.1-2.9l-5.3-.2 4.2-.6c4.4-.7 8.3-3.4 8.3-5.7 0-4-6.9-5.5-15-3.2zm9.5 3.7c.8 1.4-.7 2-3.7 1.4-1.5-.3-2.5-.9-2.2-1.4.7-1.2 5.1-1.2 5.9 0zm-12.8 10.7c-.3.3-1.2.4-1.9.1-.8-.3-.5-.6.6-.6 1.1-.1 1.7.2 1.3.5zm-.2 10.4c-.3.5-2.4 1-4.6 1-2.1 0-3.9-.5-3.9-1 0-.6 2.1-1 4.6-1 2.7 0 4.3.4 3.9 1zm32.1 3.7c-.5.5-21.1 3.2-25.3 3.3-1.4 0-2.3-.6-2.3-1.5 0-1.9 2.3-2.4 14.5-3.3 8.9-.7 14.7 0 13.1 1.5z"/><path d="M465.3 865.1c-2.4.9-3.1 3.3-1.2 4.4 1.9 1.2 5.9-.4 5.9-2.4 0-2.3-1.8-3.1-4.7-2z"/></svg>