<svg version="1" xmlns="http://www.w3.org/2000/svg" width="666.667" height="1170.667" viewBox="0 0 500 878"><path d="M228.5 14c-3.9.3-7.6.9-8.3 1.4-2.1 1.3-.2 2.6 3.8 2.6 3.5 0 4.1.3 4.7 2.7.4 1.6.8 6.4.8 10.7v8l-4.3 1c-2.4.6-4.4 1.5-4.5 2.1-.3 1.3 3 1.4 18.8.4 7.2-.4 18.7-1 25.8-1.3 7-.3 13.2-.8 13.7-1.1 2.1-1.3-.2-2.3-5.2-2.3-2.9 0-5.9 0-6.6-.1-.7-.1-2.6-2.2-4.2-4.8l-3-4.6 2.2-3.6c3.3-5.6 6.8-9 9.7-9.3 1.4-.2 2.5-.8 2.3-1.3-.2-1.1-33.5-1.4-45.7-.5zm30.5 3.7c-.1 1.3-3.8 5.3-4.9 5.3-.5 0-1.7-1-2.5-2.2-1.2-1.7-1.3-2.4-.3-3 1.5-1 7.7-1 7.7-.1zm-12.2 5.8l4.3 5.6-4.2 4.9c-6.6 7.9-8.6 7.5-9.3-1.7-.3-3.4-.6-6.5-.8-7-.1-.4.1-2.3.5-4.1 1.1-5.1 4.3-4.3 9.5 2.3zm10.9 13.9c-.8 1.9-3.7 2.1-3.7.3 0-.7.5-1.8 1.2-2.5 1.5-1.5 3.3.1 2.5 2.2zM351.5 147.5c-.3.8-.7 2.2-1 3-.2.8-1.1 1.2-1.8.9-2-.7-2.7 2.7-1.6 7.3 1.2 5.5 1.1 8.3-.5 8.3-2.4 0-6.4 4-7.1 7-.7 3.2 3.3 13.4 6.2 15.7 1.4 1.1 1.4 1.5.2 2.9-.8 1-1.5 3.8-1.5 6.3-.1 2.5-.5 7.3-.8 10.6-1 8 1 11.7 8.9 17.1l6 4 .3 6.2c.3 6.1.2 6.2-2.3 6.2-6.2 0-16.7 10.5-18 18-.8 4.9-.2 6 3.6 6 1.9 0 2.9.5 2.9 1.4 0 2.1 3.8 4.5 6.1 3.9 2-.6 2.7 1.5.9 3.3-.6.6.3 1.9 2.6 3.8 3.1 2.4 3.8 2.6 6.6 1.7 4.3-1.5 4.8-1.4 4.8 1.2 0 3.2-6.3 15.8-9.2 18.5-2.3 2.1-2.9 2.2-7.1 1.2-3-.6-5.5-.6-7.1 0-2.2.8-3 .4-6.6-3.7-2.8-3.2-5.6-5.2-8.7-6.2-4-1.4-4.8-2.1-5.7-5.3-.6-2.1-1.8-4.6-2.7-5.5-2.4-2.7-16.9-15.7-18.5-16.6-.8-.5-6-1-11.7-1.3-15-.7-17.3-1.2-18.6-4-2-4.5-.7-8.9 2.9-9.6 1.1-.2 1.5.7 1.5 3.6 0 4.5 2.4 6.8 5.3 5 2.3-1.5 2.8-4.4.8-4.4-.9 0-1.6-.2-1.6-.5 0-1.1 4.3-8.5 5.6-9.6.8-.6 1.4-2 1.4-3 0-1.1 2.8-4 7.3-7.3 12.4-9.5 19.7-20.6 20.5-31.7.5-7.6-1.5-12.6-7.6-18.7-4.4-4.4-17.6-11.1-28.1-14.2-4.1-1.2-8.4-2.8-9.5-3.5-3.4-2.3-16.3-3.8-25.4-3.1-13.5 1.1-28.4 9.1-33.6 18-2.7 4.7-3.2 8-1.7 13 .5 1.7 1.4 5.3 2 7.9.6 2.6 1.9 6 2.8 7.4 2.1 3.1 1.8 6.9-.8 12.9-1.4 3-1.8 5.5-1.4 7.5.9 3.8 11.1 15.7 14.2 16.5 2.2.6 2.4 1.1 2.1 5.8-.2 4.2-.6 5-2 4.8-1-.1-3.5.6-5.7 1.8-2.2 1.1-5.6 2-7.6 2-10.1 0-27.8 15.2-33.7 29-5 11.6-4.1 10.6-10.5 10.4-3.2-.1-7.7-.7-10-1.4-5.1-1.6-8.3-.8-12.7 3-4 3.5-4.5 3.6-9.6 1-5.3-2.7-6.6-2.6-13.2 1.5-3.4 2.1-8.2 4-11.5 4.7-3.2.5-7.3 1.6-9.1 2.4-4.3 1.8-6.2 1.8-7.7-.2-1-1.4-3.4-1.7-13.6-1.9-12.4-.3-19-1-22-2.6-1.3-.7-1.6-3-1.7-13.6-.2-16.3.6-20.7 3.6-21.1 1.2-.2 2.2.1 2.2.7 0 1.6 6.1 5.1 8.7 5.1 1.1 0 4-1.6 6.3-3.5s4.6-3.5 5.1-3.5c2 0 4.5-8.9 5.4-19.5.1-1.7.3-3.5.4-4.2 0-.6 1-1.5 2.1-1.8 4.1-1.3 5.3-5 5.5-16.3.1-5.9.8-12.6 1.5-14.9.7-2.4 1-5.6.6-7.9-.8-4-5.4-9.4-8.1-9.4-2.2 0-5.9-8.6-5.6-13.2.1-3.2-.5-4.4-4.7-8.7-2.8-3-5.7-5.1-6.9-5.1-1.2 0-4 1.6-6.3 3.5-5.7 4.8-7.2 4.6-6.4-.5.5-3.1.3-4.5-1.1-6-1-1.1-2.3-3-2.9-4.3-.7-1.2-2.3-2.3-3.7-2.5-3.6-.4-10.1 7.7-9.3 11.7.5 2.3 0 3.1-3.5 5.4-3.2 2.1-4.1 3.4-4.1 5.5 0 1.5-.7 3.8-1.6 5.1-1.3 1.8-1.4 2.8-.5 4.8.6 1.3.9 2.9.6 3.4-.9 1.4-4.1 1.1-5.5-.6-2.2-2.6-4-1.7-6 3.1-1.6 3.5-1.9 6-1.5 11.6.4 6.4.8 7.5 3.7 10.5 3 3.1 3.1 3.5 1.8 5.6-4.8 7.5-5.9 12.1-3.9 15.9 1.4 2.7.1 4-5.4 5.3-3.7 1-4.2 1.4-4.5 4.2-.4 3.8 3.4 13 5.9 14.3.9.6 4.5.7 7.8.4 5.3-.6 6.1-.5 6.1 1 0 .9.7 1.9 1.5 2.3.9.3 2.2 1.8 3.1 3.4 1.6 3.3 3.9 3.7 6.6 1.2 1.7-1.5 1.8-1.5 1.8.3 0 1 .5 5.9 1.1 10.9 1.3 11.5.8 13.8-2.9 12.9-1.5-.4-3.1-1-3.7-1.4-4.3-3.1-15.4-1.9-20 2.1-1.8 1.6-4.1 2.9-5.2 2.9-1.1 0-3.2 1.4-4.9 3.1-1.6 1.7-4.4 3.9-6.1 5.1l-3.3 2 .1 144.6v144.7l2-6.4c1.7-5.2 3.2-7.5 7.7-12.1 8.6-8.5 13.5-10.5 25.7-10.5 8.2 0 10.9.4 14.8 2.2 11.3 5.2 18.6 14.2 21.4 26.4 2.8 12.7-.9 24.9-10.4 34.1-2.6 2.6-7.5 6-10.8 7.5-8 3.7-19.9 3.9-28.7.4-7.4-2.9-15.9-10.6-19.2-17.4l-2.5-5.2-.1 67.8c0 45 .3 67.6 1 67.2.6-.3 1-1.5 1-2.5 0-3.2 4.5-12.3 8.4-16.7 4.3-4.9 13.3-9.7 21.4-11.4 16.8-3.4 32.9 4.8 40.5 20.9 2.9 6 3.2 7.7 3.2 15.7 0 7.8-.4 9.7-2.8 14.6-3.9 8-9.7 14.1-16.4 17.4-8.3 4.1-9.1 4.3-15.7 4.8-9.6.6-21.4-4.3-28.7-12-7.2-7.7-9.7-13-10.9-23.8-.4-3.3-.8 9.9-.9 29.2C0 821.5.2 826 1.5 826c.8 0 1.5-.5 1.5-1 0-.6.8-1 1.8-1s2.3-.5 3-1.2c.7-.7 3-1.1 5.2-1 5.1.3 6-1.5 2.8-5.8-2.3-3.1-2.3-3.2-.4-4.6 2.5-1.8 4-1.8 5.6.1.7.8 2.8 1.5 4.6 1.5 2.5 0 3.2.4 2.8 1.5-.3.7.6 3 2.1 4.9 2 2.6 3.6 3.6 6.8 4.1 9.4 1.4 20.1.3 23.7-2.5 1.4-1.1 3.5-2.4 4.7-3 1.2-.5 2.4-1.9 2.8-3.2 1.4-4.5 2.5-5 5.9-2.9 5.1 3.2 12.6 2.8 12.6-.6 0-1.2-.8-1.3-4.1-.8-3 .5-4.5.3-5.8-.9-3.5-3.2-11.1-1.8-11.1 2 0 2-.8 1.7-3.5-1.3l-2.4-2.8-2.7 2.7-2.8 2.8 2.2 2.9c2.2 3 2.2 3 .3 4.1-2.3 1.2-3.5-.1-2.7-2.8.4-1 0-2.7-.8-3.7-1.2-1.6-1.9-1.8-4.3-.9-2.3.8-2.8 1.5-2.8 4.4 0 4.4-1.9 4.6-2.2.3-.1-1.8-.8-4.2-1.6-5.3-1.3-1.9-1.4-1.9-4 .6-1.5 1.4-2.7 3.4-2.7 4.6 0 1.7-.2 1.8-1.5.8-2.7-2.2-1.7-4.8 2.5-7 4.1-2.1 4.9-3.7 2.8-5.8-2.4-2.4 2.5-2.9 20.5-1.9 7.9.4 12 .2 15.5-.8 5.9-1.9 8.6-1.9 10.1-.1.7.8 2.8 1.7 4.9 2 2 .3 5.4.8 7.4 1.2 2.9.5 4.6.1 7.3-1.5 4.3-2.5 5.3-2.6 9.3-.6 5.2 2.6 17.4-.8 18-5 .2-1.7 6.7-5.5 9.5-5.5.4 0 .7 2.8.7 6.2 0 3.4.5 7.6 1.2 9.5 1 2.8.9 3.8-1 7.2-2.6 4.6-2.8 7.9-.6 8.8.8.3 7-.9 13.7-2.7 15.8-4.2 22.1-5 27.2-3.4 14.2 4.4 24.3 6.2 40.7 7 8.7.5 14.2.3 17.5-.5 8.4-2.1 11.6-3 19.3-5.3 7.8-2.2 13.8-2.6 30-1.6 11.2.7 14.8 1.5 17.5 3.8 4.6 4.1 14.2 7 22.5 7 16.6-.2 23.6.2 31.5 1.5 6.7 1.2 13.1 1.4 25.6 1 11.2-.3 17.6-.2 19.5.6 3.1 1.2 51.1 1.4 61.7.3l5.8-.7-.4 4.9c-.4 3.8-.9 5-2.3 5.2-9.3 1.4-14.8 4.8-12.4 7.7 1.4 1.7 7 3.4 11.5 3.6 2.9.1 3 .1.5.9-1.4.4-4.6.8-7.1.9-5 .1-7.3 1.8-6.3 4.5.9 2.4 4.6 3.6 10.9 3.6 3 0 5.7.4 6 1 .4.6-1.1 1-3.7 1.1-10.8.1-16.1 1.9-15.6 5.2.4 3 4.3 3.5 5.8.8.9-1.8 2-2.1 7.4-2.1 6.3 0 6.4 0 7 3 .4 2.4 1.1 3 3.2 3 2.3 0 2.5-.3 2-2.4-.8-3.1.3-3.7 4-2.7 2.4.7 2.6 1 1.2 1.6-2.9 1.2-2.2 3.7 1 3.3 2.1-.2 2.7-.8 2.6-2.6 0-1.3.5-2.2 1.4-2.2.8 0 2.9-.7 4.8-1.6l3.4-1.6v-20l-2.5.6c-1.8.5-2.5.2-2.5-.8 0-1.5-5.6-3.6-9.7-3.6-1.2 0-2.5-.5-2.8-1-.4-.7.7-.8 3.4-.4 5 .8 9.1-1.5 9.1-5.1 0-2.7-3.3-5.5-6.7-5.5-1.3 0-2.3-.4-2.3-.9 0-2.1 3.4-4.1 7-4.1 2.1 0 4.5-.3 5.4-.6 1.5-.6 1.6-22.8 1.6-242.1 0-160.7-.3-241.2-1-240.8-.5.3-1-.1-1-.9s.5-1.8 1-2.1c.6-.3 1-4 1-8.1 0-4.4-.4-7.3-.9-6.9-.5.3-1.2-.4-1.6-1.5-.4-1.1-2.5-3-4.7-4.1-5.3-2.7-8.8-1.5-8.8 3.1 0 1.6-.5 3-1 3-.6 0-.8-1.5-.4-3.8.7-4.6-1.5-7.3-4.6-5.5-.9.7-3.4 1.5-5.4 1.8-4.8 1-4.9-1.5-.1-4.4 1.9-1.1 3.5-2.5 3.5-3.1 0-.6-1.4-2.4-3.2-4-2.9-2.6-3-3.2-2-5.5.7-1.4 1.2-4.3 1.2-6.3 0-2.1.7-4.7 1.4-5.8.8-1.2 1.6-5 1.8-8.5.3-5.7.5-6.4 2.5-6.7 1.7-.3 2.2.3 2.5 2.4.4 3.7 2.5 4.2 3.9 1 1.7-3.7 2.7-3.2 3.1 1.6.3 3.7.8 4.6 4 6.7 3.2 2 3.6 2.8 3.1 5.2-.9 4.7.4 8.1 3 7.7 2-.3 2.2-1 2.5-6.4.2-5-.1-6.3-1.7-7.8-1.7-1.5-1.8-2.2-.8-4.4.6-1.5 1.5-3 2-3.3.4-.3.4-3.8-.1-7.7-.5-4-.5-7.2 0-7.2.4 0 .8-1.1.8-2.5 0-2.3-.4-2.5-4.2-2.5-2.9 0-4.9.7-6.5 2.2l-2.3 2.1-1.5-3.6c-.8-2-1.5-4.1-1.5-4.7 0-1.7-3-1.1-3.6.7-1.1 3.4-4.7 9.8-7.6 13.6-2.8 3.6-2.9 4.2-2.7 12.1l.3 8.4-3.7 4.1-3.7 4.1v-22.5c0-20.6.2-22.6 1.8-23.2.9-.3 3.4-2.2 5.5-4.2 3.3-3.1 4-3.4 5.7-2.3 3.1 1.9 4.2 1.5 9.4-3.4l4.8-4.6-.6-5.6c-.3-3.1-.8-7.4-1.2-9.5-.3-2-.2-4.3.4-5 1.7-2.1-.4-11.7-3.3-14.7-2.8-2.9-3.1-5.6-1-8.4 2.3-3.1 1.9-9.8-.9-13.9-1.4-2-2.6-4.6-2.8-5.9-.2-1.7-1-2.4-3.3-2.6-3.3-.4-9.5-6.1-9.5-8.7 0-2.2-4.3-9.5-5.5-9.5-.5 0-3.5 1.8-6.5 3.9-4.4 3-5.6 4.4-5.8 7-.3 2.4-1 3.4-3.5 4.5-4.9 2.1-11.6 9.7-13.1 14.7-1.1 3.5-1.8 4.5-4.4 5.1-4.4 1.2-9.9 8-11.1 14-2.2 10.1-1.2 14.7 3.9 17.3 1.6.8 3.1 2.4 3.5 3.5.3 1.1 1.3 2 2.1 2 1.8 0 1.8 1.5-.2 4.5-3.2 4.8-3.8 15.8-1.1 19.9 1.8 2.7 1.9 2.7 9.7 2 7.6-.6 8-.5 13.5 2.6l5.8 3.3-.5 17.9c-.3 9.8-.7 18-1 18.3-1.2 1.2-18.1 1-19.7-.2-3.5-2.7-6.8-1.5-12.3 4.3-7 7.4-12.8 10.7-18.7 10.8-3.4.1-5-.4-6.3-1.9-2.4-2.9-2.6-1.8-3.2 21-.8 27.9-1.1 29.4-5.2 31.1-5.1 2.1-9.6 1.7-16.1-1.5-8.5-4.2-13-9.5-13.8-16.3-.4-3-.6-6.1-.5-6.8.4-2.8 0-4-1.3-4-2.8 0-3.7-2.2-2.1-5.2.9-1.7 1.4-5 1.3-7.8-.2-4.4.2-5.6 4-10.7 2.3-3.2 4.8-7.3 5.7-9.1 1.6-3.5 3-4 6-1.7 2.7 2 3.6 1.8 3.2-.8-.2-1.2-1.3-2.6-2.5-3.2-1.3-.5-2.3-1.3-2.3-1.7 0-1.2.5-1 4.4 1.3 3.9 2.3 6 1.8 5.1-1.2-.5-1.4-.2-1.7.8-1.3.8.3 2.7-.5 4.2-1.8 8.7-7.2 9.3-9.2 3.2-9.5-2.1-.1-4.5-.6-5.4-1.1-1.9-1.1-13.3-.4-14.7.9-.6.5-1.6.9-2.4.9-1.2 0-1.2-.3-.2-1.5.7-.8 1.7-1.5 2.2-1.5 1.2 0 7.8-5.3 7.8-6.3 0-1.7-6.9-.4-12.2 2.2-3.2 1.6-5.8 2.5-5.8 1.9 0-1.9 4.9-5.7 8.9-6.9 4.8-1.4 6.9-4.2 5.1-6.5-.9-1-2.6-1.2-6.9-.8-7.1.8-9.2 2.2-11.6 7.3-1.8 4.1-3.5 5.4-3.5 2.6 0-.8 1-3.5 2.2-6 1.8-3.6 3.2-5 6.7-6.6 3.5-1.5 4.7-1.7 5.8-.7 1.2 1 1.8.9 2.9-.7 1.3-1.7 1.5-1.8 3.3-.1 1.8 1.7 2 1.7 2.9 0 .9-1.6 1.3-1.6 6.3.5 6.3 2.7 11.3 7.1 14 12.3 2.2 4.2 2.6 10.8 1.6 26-.4 5.5-.3 9.9.2 10.3 1.5.8 2.1-.8 2.7-7.4.4-3.4 1.1-6.1 1.5-6.1 1.5 0 3.1-7.8 2-9.9-.6-1-1.5-3.9-2-6.3-.6-2.5-1.3-5.3-1.7-6.4-.6-1.7-.5-1.7 1.7.3s2.9 2.1 6.1 1.2c2-.5 4.9-2.4 6.4-4.2 1.4-1.8 3.5-3.5 4.5-3.9 1.1-.4 1.9-1.7 1.9-2.8 0-2.4-5.6-8-8-8-1.5 0-16.1-14-19.8-19-1-1.4-2.6-4.5-3.6-7-3-7.6-4.6-10.3-8.1-14.5-5.1-6.1-8.8-9.5-10.3-9.5-3.1 0-1.8 2.9 3.8 8.9 5.9 6.1 10 12.5 10 15.5 0 .8-.9 1.8-2 2.1-2.3.7-2.5 2.6-.9 5.8.7 1.2-.7.1-3-2.6-2.4-2.6-4.8-4.7-5.4-4.7-.7 0-1.8-.4-2.6-.9-1.3-.8-1.3-1.2-.1-2.6 1.2-1.4 1.2-1.8-.1-2.6-2.1-1.3-4.4-.6-4.1 1.4.2.9-.3 1.7-1 1.7-2 0-8.8-4.9-8.8-6.3 0-.7.5-.4 1.1.5 1.4 2.4 3.8 2.2 7.3-.5 3.5-2.9 2.7-5.2-1.5-4.3-2.2.4-2.7.2-2.2-.9.3-.9 0-2.1-.6-2.9-.8-1-.8-1.6.3-2.5.8-.7 1.2-2.7 1.1-5.1-.1-2.2.2-4 .6-4 .5 0 .9.7.9 1.5 0 1.6 3.5 2.1 4.5.6.3-.5 2-.7 3.8-.4 4 .6 6-1.3 5.5-5.4-.3-2.4-.7-2.8-3.4-2.7l-3.1.2 1.3-3.7c2.7-7.4 1-12.1-5.2-14.7-4.1-1.7-4.2-2.7-.9-6 3.8-3.8 2.9-5.8-1.6-3.4-3.8 2.1-.8-5.3 3.6-8.8 1.4-1.1 2.5-2.3 2.5-2.7 0-1.2-5.3 2.5-7.7 5.4-2.6 3-3.1 1.2-.7-2.5 2.5-3.8.9-4-2.5-.3-3.6 3.9-4.9 3.4-2.7-1 2-3.9 2-4.1-.4-4.1-1.1 0-2.3.7-2.5 1.5zm110.8 10.9c.3.8.3 3 0 4.9-.6 4 1.6 6.8 4.7 6 1.3-.4 2 0 2 .9 0 .8.6 2.2 1.3 3.2 1.2 1.6 1.7 1.7 3.7.6 1.8-1 2.4-.9 3.1.1.4.7.5 1.7.2 2.2-.2.4.7 2 2.1 3.4 1.4 1.4 2.6 3.6 2.6 4.9 0 2.5-1.5 4-2.5 2.4-.6-1-6.5 1.4-6.5 2.7 0 .4.9 1.7 2.1 2.9 2.5 2.6 2 3.9-1.8 4.7-1.6.3-3.7 1.3-4.8 2.1-1.9 1.4-1.9 1.6-.3 3.2 1.5 1.5 2.2 1.6 5.6.6 5.5-1.7 9.9-1.5 10.6.4 1.1 2.8.6 3.4-2.7 3.4-2.2 0-4.1.8-5.3 2.1-1.8 2-1.8 2.1.4 3.8 1.2.9 3 3 3.9 4.6 6 11.1 6.6 14 3.2 15-2.4.8-2.2 1.1-4-4-.9-2.4-2.2-4.1-3.4-4.4-1.1-.2-2.4-1-3-1.7-.9-1.2-1.8-1.2-6.4 0-2.9.7-5.7 1.9-6.1 2.6-1.2 1.9-.5 8.7 1 10.5 2.1 2.5 0 3.6-4.3 2.4-3.3-.9-3.7-1.3-3.7-4.3 0-6.5-5.5-9.1-9.8-4.8-1.2 1.2-3.3 2.4-4.7 2.8-1.6.4-2.5 1.3-2.5 2.5 0 2.4-2.5 3.5-4.4 1.9-.8-.6-1.8-2.5-2.2-4.3-.5-2.6-.2-3.4 2.1-5.3 2-1.6 2.5-2.7 2-4.3-.4-1.5-.2-2.1.8-2.1 2.7 0 3.7-2.4 2.7-6-.5-1.9-1.5-3.7-2.1-4.1-1.8-1.1-5.7 1-6.3 3.4-.5 2-.6 2-2.4.4-1-.9-2.6-1.7-3.4-1.7-2.3 0-2.6-1.7-1.4-10.2 1.4-9.1 3-11.3 9.2-12.3 5.3-.8 8.5-3.4 7.7-6.4-.4-1.6.1-2.3 2.1-3.1 1.6-.6 2.6-1.7 2.6-2.9 0-1.3 1.2-2.7 3.3-3.7 4.4-2.2 6.7-5.3 6.7-9.1 0-2.4.7-3.6 3.3-5.1 4-2.5 4.3-2.6 5-.8zm-409.6 4.8c.5.7 1.4 2.9 2 5 .9 2.9.8 3.9-.5 5.1-2.2 2.3.1 7.7 3.4 7.7 1.2 0 2.5-.4 2.8-.9.3-.5 1.5-.7 2.5-.4 1.5.4 2.4-.5 4-3.6 2.7-5.3 5.2-5.3 10.2-.2 3.4 3.6 3.7 4.4 3.2 7.8-.3 2.1-.7 4-.9 4.2-.2.2.8 2.1 2.2 4.2 2.9 4.7 3 5.5.4 6.9-2.7 1.4-2.5 3.2.5 6 2 1.9 2.7 2.1 4 1 .8-.7 1.5-2.1 1.5-3.1 0-2.7 1.5-3.1 3.6-.8s2.5 9.9.6 12.1c-.5.7-1.5 4.9-2.1 9.2-1 6.9-.9 8.1.5 9.7 2.3 2.6 1.2 4.5-4.3 7.1-4.3 2.1-4.8 2.6-4.5 5.3.6 6.8.8 16.1.4 17.7-.3 1.1-1.4 1.8-2.8 1.8-1.7 0-2.4.6-2.4 1.8 0 4-7.7 7.5-10.1 4.6-1-1.3-.5-2.1 3.4-5.7 2.5-2.3 5.2-5.3 6.1-6.7 2.1-3.4.7-5.5-3-4.6-2.7.6-2.8.5-1-.9 1.1-.8 2.3-1.5 2.8-1.5 1.3 0 3.8-5.8 3.2-7.4-.9-2.3-3.5-2-4.1.4-.4 1.4-1.4 2-3.4 2-1.5 0-3.1.4-3.4 1-1.3 2.1-3.7.9-5.1-2.5-.8-1.9-1.8-3.5-2.2-3.5-1.5 0-3.2 2.4-3.2 4.7 0 1.3-.4 2.3-1 2.3-.5 0-1-.7-1-1.5 0-1.6-3.5-2.1-4.5-.6-.3.6-2.3.5-5-.3-5-1.6-6.8-.6-5.8 3.2.5 2 .3 2.1-2.6 1.6-3-.6-3.1-.5-3.1 2.9 0 4-2.4 6.7-4.2 4.9-1.8-1.8-4.6-1.4-5.8.8-1.5 2.8-2.6 2.5-5.5-1.7-3.4-5.1-3.3-8.1.3-8.8 4.1-.9 11.2-4.5 11.2-5.7 0-.6-1.2-2.1-2.6-3.5-2.1-1.9-2.4-2.9-1.9-5.6.9-4.5 3.7-8 7.1-9.1 1.6-.4 3.7-1.3 4.8-1.8 1.3-.7 2.6-.6 4.3.3 1.8 1 2.6 1 3.5.1.7-.7 2.4-1.2 3.9-1.2 5.8 0 3.9-3.6-2.5-4.7-1.9-.3-5.5 0-8 .6-5.3 1.3-7.4.7-7.8-2.2-.2-1.5-1.2-2.3-3.3-2.7-2.8-.5-2.9-.7-3.2-6.5-.1-3.3 0-6.8.3-7.8.8-2.6 3.4-2.1 3.4.7 0 4 2 4.1 5.4.4 1.7-2 3.9-3.8 4.9-4.2 2.3-.7 2.2-3.3-.3-4.6-2.6-1.4-2.6-4.5.1-6.4 1.5-1 1.9-2 1.4-3.5-.5-1.6.1-2.4 3.2-3.8 3.6-1.7 3.8-2.1 3.8-6.4 0-2.6.7-5.6 1.8-7.2 1.9-3 3-3.3 4.4-1.5zM259 188.1c0 1.7 3.9 2.9 6.4 2 1.8-.8 2.8-.6 3.7.5.6.8 2 1.2 3 .9.9-.3 2-.1 2.4.5.3.5 1.5 1 2.5 1 3.1 0 9 4.5 8 6-1.2 2-.1 3.3 1.6 1.9 1-.8 1.4-.8 1.4 0 0 .6-.5 1.1-1 1.1-.7 0-.8 1.3-.4 3.4.3 1.9.4 3.9 0 4.4-.3.5-2.9.5-5.8.1-5.5-.7-9.8.7-9.8 3.4 0 .6-1.8 5.2-4 10.2-2.2 4.9-4 9.1-4 9.3 0 .2 1.2.2 2.7 0 2.1-.2 3-1.1 3.7-3.3.5-1.7 1.6-4.5 2.3-6.4l1.3-3.4 2.3 2.1c2.7 2.5 5.5 2.9 6.3.8.9-2.2-1.3-5.3-4.1-6-2.9-.7-2.4-2.6.7-2.6 1.6 0 3.6.8 8.7 3.7.9.5-2.5 6.8-6 11-2 2.5-4.5 6.2-5.5 8.2-3 5.9-11.4 14.1-14.5 14.1-2.8 0-12-4.2-15.2-6.9-2.2-1.9-6.7-10.6-6.7-13.1s-1.7-3.5-3.5-2c-2.2 1.8-1.7 4.8 1.8 11.4 2.4 4.5 4.2 6.5 7.4 8.2 2.4 1.2 5.8 3.2 7.6 4.3 2 1.2 5.1 2.1 7.5 2.1 4 0 5.2 1.1 5.2 4.7 0 .8.8 3.1 1.7 5 1.5 3.3 1.5 3.7 0 4.7-.9.6-4.6 3.1-8.2 5.6-3.6 2.5-9.4 6.6-12.7 9.3-6.8 5.2-7.2 5.3-20.3 3.5-9.4-1.3-14.9-3.2-15.3-5.3-.6-3 3-9 7.2-12.1 10-7.2 10.6-7.3 8.6-.5-.7 2.4-.6 3.9.2 4.8 1.6 1.9 3.3.1 4.7-5 1.1-4.4.9-26-.3-28.9-.5-.9-.1-2.7.9-4.2 1.9-2.9 1.3-6.1-1-5.2-.9.3-1.5 0-1.5-.9 0-.8.7-1.5 1.5-1.5s1.5-.4 1.5-.9 1.6-3.2 3.5-6.1c2.2-3.3 3.7-6.9 4.1-10 .4-2.8 1.3-5.5 2-6.1.8-.6 1.4-2.2 1.4-3.5 0-1.2.5-2.6 1-2.9.6-.3 1-2 1-3.6 0-2.4.4-2.9 1.8-2.5 2.3.7 3.9-.4 5-3.5.8-2 1.7-2.6 4.1-2.6 1.7 0 3.1.4 3.1.8zm34.1 4.2c-.1 1.2-1.5.9-1.9-.4-.3-.6.1-1 .8-.8.6.3 1.1.8 1.1 1.2zm59.4 7.7c.3.6-.3 2.2-1.4 3.6-3.2 4-2.9 11.3.6 15.5 2.4 2.8 2.5 3.1.6 2-3.7-1.9-5.3-5.2-5.3-10.9 0-7.3 3.4-13.6 5.5-10.2zm2.5 9.4c0 .8-.4 1.8-1 2.1-.5.3-1-.3-1-1.4 0-1.2.5-2.1 1-2.1.6 0 1 .6 1 1.4zm-139 16.7c0 .5-.4.9-1 .9-.5 0-1-.7-1-1.6 0-.8.5-1.2 1-.9.6.3 1 1 1 1.6zm7 1.7c0 .5-.9 1.7-2 2.7-1.6 1.4-2 1.5-2 .4 0-1.6 1.9-3.9 3.2-3.9.4 0 .8.4.8.8zM367.8 239c-.2 1.4-1 2.6-2 2.8-1.4.3-1.8-.3-1.8-2.6 0-1.7.3-3.8.7-4.8.6-1.6.7-1.5 2 .2.8 1 1.3 3 1.1 4.4zm40.9 13.4c3.9 2.3 5.4 4.6 2.9 4.6-.9 0-2.3 1.1-3.2 2.5-2.1 3.2-3.1 2.5-6-4.1-2.5-5.7-3.9-6.7-4.9-3.4-.4 1.1-1.1 1.8-1.6 1.4-.5-.3-.3-1.5.6-2.7 2.3-3.3 1.9-4.2-4-10.3-8.7-9.1-6.4-8.1 3.5 1.3 5 4.8 10.7 9.6 12.7 10.7zM284 235c0 .5-.4 1-1 1-.5 0-1-.5-1-1 0-.6.5-1 1-1 .6 0 1 .4 1 1zm-59 3.6c0 .8-.4 1.4-.9 1.4-1.1 0-2.2-2.6-1.4-3.4.9-.9 2.3.3 2.3 2zm155.9 5.9c3 3.1 5.1 5.8 4.8 6.1-.3.3-3.2-.7-6.4-2.3-5-2.6-5.8-3.4-6.1-6.1-.5-4.7 1.5-4.1 7.7 2.3zm11.1 3.1c0 .8-.4 1.2-1 .9-.5-.3-1-1.3-1-2.1s.5-1.2 1-.9c.6.3 1 1.3 1 2.1zm-36.1.8c1 1.1.5 2-2.6 4.3-2.1 1.5-4.3 3.5-4.9 4.3-3.7 4.8-5.3 6.4-5.9 5.8-1.3-1.3 1.6-7.6 5.4-11.7 4-4.3 6.1-5 8-2.7zm97.6-.5c1 1.7-1.2 2.1-2.5.6-1-1.2-1-1.5.3-1.5.9 0 1.8.4 2.2.9zm-400.8 9.3c-.3.8-.6.5-.6-.6-.1-1.1.2-1.7.5-1.3.3.3.4 1.2.1 1.9zm8.3 1.2c0 1.5-1.8 3.1-2.6 2.3-.7-.7.7-3.7 1.7-3.7.5 0 .9.6.9 1.4zm298.6 4.1c-2.6 1.9-4.2 1.9-2.6 0 .7-.8 2-1.5 2.9-1.5 1.3.1 1.3.3-.3 1.5zM483 262c0 .5-.2 1-.4 1-.3 0-.8-.5-1.1-1-.3-.6-.1-1 .4-1 .6 0 1.1.4 1.1 1zm-440.9 7.3c-2.1 2.1-3.2-.7-1.3-3.3l1.7-2.5.3 2.4c.2 1.3-.1 2.8-.7 3.4zm244.4-2.3c-1.1.5-2.9.9-3.9.9-1.7.1-6.2 1.9-13 5.4-1.3.6-1.6.6-1.1-.3.4-.6 3-2.2 5.8-3.4 7.2-3.3 7.8-3.4 11.2-3.5 2.6 0 2.7.2 1 .9zm-82.5 1c0 .5-.9 1-2.1 1-1.1 0-1.7-.5-1.4-1 .3-.6 1.3-1 2.1-1s1.4.4 1.4 1zm97 2c0 .5-.2 1-.4 1-.3 0-.8-.5-1.1-1-.3-.6-.1-1 .4-1 .6 0 1.1.4 1.1 1zm-115 23.7c0 13.6 1.8 20.8 9.2 37.3 1.1 2.4 4.8 7.3 8.1 10.7 8.6 9 9.8 8.9 22.1-2.8 5.2-5 11.8-12.1 14.5-15.9 8.4-11.5 20.2-20.3 36.7-27.1 8.8-3.7 10.8-4.2 18.3-4.3 8-.1 8.5 0 9 2.1.7 2.6 3.2 5.8 5.2 6.6 1 .4.5 1.3-1.7 3.4-10.5 9.5-15.3 22.7-10.8 29.2 1.5 2.1 1.5 2.5-.3 4.9-3.6 4.9-4.3 6.9-7.2 20.9-2.5 11.8-2.9 16.4-3 30.2-.2 13.5.1 16.8 1.4 18.8 1.4 2 1.7 6.7 2 29.6.2 15 .6 31.2.9 36.2.7 8.8.6 8.9-.9 5.5-1.5-3.2-1.7-3.4-3-1.7-1.2 1.6-1.4 1.1-1.7-4.5-.2-3.5 0-12.3.5-19.6.9-15.4.7-22.4-.9-22.9-1.3-.4-2.4 14.6-2.8 39-.2 8.7-.7 14.2-1.4 14.9-1.6 1.6-1.5 4.7.2 8 .8 1.4 1.4 5.3 1.5 8.5 0 3.2.2 7.8.5 10.3.7 6.8 2.6 75.5 2.6 92.2 0 16.9 1.2 23.8 4.6 27.5 1.3 1.4 2.4 3.8 2.4 5.3 0 5.1 7.8 14.6 15.4 18.7 1.8 1 3.5 4.9 8.5 20.5 5.3 16.1 25.3 45 38.7 55.8 10.1 8.1 16.4 12.2 26.1 16.6 6.3 2.9 24.7 9.4 34.8 12.2 3.7 1 9 5.1 12.1 9.4 4.5 6.2 10.3 9.4 21.5 11.7 15.1 3.1 20.7 6.4 23.5 13.7.9 2.4 3.2 5.8 5.1 7.4 2.8 2.5 4.2 3 8.7 3 7.1 0 10.2 2.4 11.2 8.6.3 2.5.3 4.9-.2 5.4s-4 1-7.9 1.2l-7 .3-.1-4.5c-.2-7.3-.3-7.6-2.9-8.8-4.5-2.1-8.4-1.5-11.6 1.7-3.2 3.2-3.6 5.7-1.6 8.5 1.4 1.9 5.9 1.9 9.8.2 1-.5 2 .1 2.9 1.9 1.2 2.3 1.2 2.8-.6 4.4-1.6 1.6-4.5 2.1-17.4 2.9-8.5.6-22.8 1.1-31.8 1.1-15.4.1-16.6 0-21.6-2.4-2.9-1.4-6-2.5-6.9-2.5-1 0-1.7-.4-1.7-1 0-1.6 3.4-2.9 8.5-3.1 8-.5 11.8-6.3 9.3-14.7-1-3.5-2.4-5.4-6.3-8.3-2.7-2.1-6.4-4.9-8-6.3-1.8-1.4-7-3.5-12.5-5-26.1-7-32.8-10.2-45.5-22-4.1-3.8-4.5-4.7-4.5-8.8 0-3.6.5-4.9 2.3-6.1 2-1.4 2.1-1.6.4-2.2-4.3-1.8-7.2 7.1-4.4 13.6 1.6 4 14.3 15.7 20.2 18.6 5.4 2.8 27 9.9 32.3 10.8 4.6.7 15.8 7.7 20.5 12.7 2.4 2.6 2.8 3.6 2.5 8.1-.3 5-.4 5.2-3.4 5.5-3.5.3-4.9-1-5.7-5.5-.5-2.6-.2-3.5 1.3-4.3 2.2-1.2 2.7-3 .8-3-2.1 0-5.8 4.3-5.8 6.7 0 2.7-.1 2.7-3.4 1.1-1.8-.8-2.7-2.1-3.1-4.7-1.2-7.1-1.6-8.1-3.8-9.5-2.3-1.5-5.1-1.9-13.2-1.7-7.6.2-8.4 1.2-5 5.8 6.6 8.9 8.5 10.3 14 10.3 4 0 5.6.5 7.8 2.6 2.5 2.3 2.7 2.8 1.4 4.3-.8.9-1.7 2.5-1.8 3.6-.2 1.1-2 2.8-3.9 3.7-7.5 3.8-33 1.5-31.3-2.8.9-2.4-2.4-2.6-15.4-.9-17.1 2.3-28.3 1.5-33.3-2.5-2.2-1.8-5.7-3.2-9.3-3.9-7-1.3-8.3-1.9-6.8-3.4.6-.6 1.1-2.4 1.1-3.9 0-3.9-2.5-3.6-6.6.7l-3.3 3.5-7.3-.6c-4-.3-9.1-.1-11.3.4-2.2.6-10.8 2.9-19 5.1-13.1 3.5-16.1 3.9-23 3.6-16-.8-27.7-2.4-30-3.9-1.3-.9-5.9-2.4-10.1-3.3-4.6-1-8.8-2.6-10.4-4-3.3-2.7-5.2-2.8-11-.8-5.1 1.8-12.6 2-13.6.3-.8-1.2-.6-20.7.2-21.9.2-.4 2.6.2 5.3 1.3 4.8 2.1 8.1 6 6 7.3-1 .7 2.7 6.5 4.2 6.5.5 0 .9-1.3.9-2.9 0-2.3.5-3 2.3-3.3 2.1-.3 2.2-.5 1.8-10.9-.2-7.1 0-10.9.8-11.3.7-.5 1.1.6 1.1 3.1 0 5.2 2.5 14.6 5.5 20.8 3.1 6.5 11 14.4 12.7 12.7.8-.8.4-2.1-1.8-5.3-6.6-9.5-8.4-12.7-10.5-18.2-2-5.4-2.1-6.9-1.6-23.5.8-22.6 2.5-45.2 3.8-51 1.3-5.9-.2-7.5-2.6-2.6-1.2 2.5-2 7.9-2.6 17.3-.8 13.7-2.5 28.1-3.4 29-1.8 1.7 2.3-47.5 4.5-55.9.6-1.9 1-5 1-6.9 0-1.8.5-5.1 1.2-7.3.9-2.9.9-4.1 0-5-1.4-1.4-1.5-7.4-.3-13.3.8-3.9.9-3.8 1 2.1.1 3.8.6 6.6 1.4 7.3 2.1 1.7 2.7.3 2.7-5.8 0-5.4 2.4-20.3 3.6-22.3.3-.5.3-2.1-.1-3.5-.4-1.9-1.1-2.4-2.5-2-1.8.5-2 0-2-5.1 0-3.2.4-9.5 1-14.2.5-4.7 1.1-23.8 1.5-42.5.6-38.4 1.9-62.1 3.5-64 .6-.7.8-2 .4-2.9-.3-.9.1-7.1 1-13.9.8-6.7 2.1-16.5 2.7-21.7 1.3-11.1 2.8-56.1 1.9-57.3-.4-.4-1.3 0-2.1.9-1.1 1.3-1.6 7.5-2.1 26.8-.6 26.1-2 44.2-3.5 45.7-.4.4-2.5.2-4.6-.4l-3.9-1.2.6-7c.3-3.9 1.1-15.3 1.6-25.5.6-10.4 1.7-20.6 2.5-23.3.9-3 1.1-5.5.6-6.5-.5-1-.5-4.2 0-7.2.4-3 .8-10.6.8-16.8.1-6.1.5-11.2.9-11.2 1.6 0 5.6 5.1 6.9 8.8 1.7 5 1.7 5.2-1.1 5.2-2.9 0-4.2 2.6-1.8 3.5.9.3 3.7 1 6.2 1.5 4.2.8 4.7.7 7.6-2.1l3.1-3 .7 4c.4 2.4.1 5.7-.8 8.3-.8 2.4-1.9 8.8-2.5 14.3-.6 5.5-1.9 14.5-2.7 20-2.9 17.9-4.7 37.7-5.9 64-.3 7.1-1 14.8-1.5 17-.5 2.3-1.4 9.8-2 16.9-.5 7-1.2 13.1-1.4 13.4-.2.4-.7 5.9-1 12.2-.3 6.3-1.1 14.9-1.6 19-1.3 9.4-2.7 33.8-2.2 36.7.5 2.6 2 3 2.7.8 1.6-5.1 1.5-4.9 3-3.4 1.6 1.6 1.8 3.6.9 11.6-.5 4.5-.3 5.3 1.4 6.2 2.3 1.2 3.8 0 2.9-2.3-.3-.7.2-2.4 1.1-3.8 2-2.9 10.6-9.8 12.5-9.8.6 0 .4-.5-.5-1.1-1-.5-3.6-.7-5.8-.4-3.6.5-4 .4-4-1.6 0-2.1-.1-2.1-1.8-.6-2.3 2.1-3.2 2.1-6-.3-2.2-1.8-2.3-2.4-2-13.2.5-13.5 5.3-67 6.8-74.8.6-3 1.7-15 2.5-26.6.9-11.6 2.9-31.6 4.5-44.5 5.4-42 8.3-69.7 7.6-71.6-.7-1.7-.8-1.7-2.2.2-.8 1.1-2.7 2.1-4.2 2.2-1.6.1-3.7 1.4-5 3-2.2 2.7-2.3 2.7-3.7.9-2.1-2.8-1.9-3.2 2.3-5.3 3.4-1.7 3.7-2.2 4-6.5.3-4-.1-5.2-2.2-7.3-2.9-2.9-7.6-3.3-11.6-1-1.4.8-2.8 1.4-3.3 1.5-.4 0-.7-6.5-.6-14.5l.2-14.5 3.3-1.9c4.3-2.6 5.3-6.4 2.7-9.9-1.1-1.5-3.1-2.8-4.6-3-3.4-.4-4.2-3.9-2.3-10.2 2.1-6.9 3.1-18.6 1.8-19.4-1.8-1.1-4 3.5-5.1 10.9-.6 3.8-1.7 9.2-2.6 12-1.7 5.8-1.9 12.2-.5 16 1.4 3.6 2.4 26.3 1.2 27.8-.5.7-.6 4.3-.1 8.7 1.1 10.4 1.1 25.8 0 26.4-1 .7-2.4-4.1-1.6-5.4 1-1.6-4.6-11.4-9.3-16.3-5.4-5.5-3.6-6.5 1.9-1.1 2.1 2 4.1 3.4 4.6 3.1.5-.3.9-5 .8-10.4 0-8-.3-9.8-1.5-9.8-.8 0-2.1 1.2-2.8 2.7-1.3 2.7-2.3 3.4-3.4 2.2-.4-.3.1-2.6.9-5 1.4-4 1.3-4.7-.1-6.9-.9-1.4-2.5-2.5-3.5-2.5s-2.4-.6-3-1.3c-2.6-3.2-7.7-.4-8.7 4.8-1 5.5.4 9.2 4.2 11.6 1.9 1.2 3.8 1.9 4.1 1.5.7-.7 3.3 1.3 3.3 2.6 0 .5-.9.6-2 .3-1.5-.5-2-.2-2 1 0 1.4-.6 1.6-2.7 1.1-1.6-.4-5.8-.9-9.5-1.3-5.8-.5-7.1-.3-10.3 1.7-6.1 3.8-3.9 5.1 5.7 3.4 5.9-1 15.5 2.7 20.5 7.9 8 8.4 9.5 12.7 4.3 12.7-4 0-7.5 1.8-9 4.6-1.1 1.9-1 3 .1 6.1 1.4 3.7 3.5 5.3 9.2 7.3 2.1.8 2.7 1.6 2.7 4 0 1.6-.2 3-.4 3-2.3 0-7.1-3.5-10.9-8-7.4-8.5-8.7-9.7-14.6-12.9-8.5-4.5-14.2-5.7-18.2-3.7-1.8.9-3.3 1.5-3.4 1.4-.1-.2-.5-1.8-.8-3.6-.6-2.9-.3-3.4 3.2-5.7 4.6-2.8 5.1-4 3.7-7.8-1-2.7-.8-3.1 2.5-6 2-1.8 5.1-5.8 6.8-9 1.8-3.2 4.5-7.9 6.1-10.5 1.6-2.6 3.8-6.3 4.9-8.3 1.1-2 2.9-3.9 4.1-4.2 3.3-.9 2.5-3-1-2.4-4.3.9-5.5-1.7-2.8-6.1 1.9-3 1.9-3.4.4-5.1-.9-1-1.6-2.4-1.6-3.2.1-.9.8-.6 2 1l2 2.3v-4c0-4.1 1.3-6.3 2.4-4 .5 1 .7 1 1.2 0 .8-1.7 2.4-1.5 2.4.3 0 .8-.6 1.5-1.3 1.5-.9 0-1.2.9-.9 2.9.3 2-.2 3.4-1.9 5l-2.3 2.1 2.4 2.5c1.6 1.7 2.7 2.2 3.4 1.5.5-.5 2.7-1 4.7-1 3.4 0 3.7-.3 4.2-3.3.3-1.9-.3-5.4-1.5-8.4l-1.9-5.2 2.5-3.8c1.4-2.1 2.6-4.6 2.6-5.6s.9-3.5 1.9-5.6c1.1-2.1 3.2-8 4.6-13.1 1.5-5.1 3.4-10.8 4.1-12.7.8-1.8 2.1-4.9 2.8-6.8 2.5-6 3.6-4.2 3.6 6.2zm37.4-1.3c4.9.7 9.7 1.1 10.8.8 2.2-.5 2.5 2 .3 3.8-1.9 1.5-14.8.9-21.3-1-3.5-1.1-4.2-1.8-4.2-3.8 0-2.1.3-2.4 2.8-1.8 1.5.4 6.7 1.3 11.6 2zm90.7.6c1.5.9 1.7 1.5.9 3-1.9 3.5-7 1.9-7-2.2 0-2 3-2.4 6.1-.8zm114.9 1c0 .5-.4 1-1 1-.5 0-1-.5-1-1 0-.6.5-1 1-1 .6 0 1 .4 1 1zm-106.3 2.6c.9 1.4 2.8 3 4.2 3.6l2.6 1-3 1.5c-1.6.8-4 2.5-5.2 3.6-2.1 1.9-2.2 2.2-.7 3.8 1.4 1.6 1.3 1.7-1.8 1.4-1.8-.2-3.6-.4-4-.4-1.2-.1-.9-3.6.4-4.9.6-.6 1.3-2.6 1.4-4.4 0-1.8.2-4.3.3-5.6.2-3.1 3.6-2.9 5.8.4zm123.5-.1c-.2.5-.9.9-1.7.7-.7-.1-1.6.5-1.9 1.5-.6 1.5-.8 1.5-1.6.3-1.9-2.9-1.1-4.1 2.3-3.8 1.7.2 3.1.7 2.9 1.3zm3.8 2.1c0 .8-.4 1.2-1 .9-.5-.3-1-1.3-1-2.1s.5-1.2 1-.9c.6.3 1 1.3 1 2.1zm-409.5 2.9c4.5 2 5.5 2.8 5.5 4.9 0 2-.4 2.4-2.2 2.2-3-.4-5.7-1.5-8.8-3.6-4.1-2.7-11.3-1.1-20.2 4.7-1.5.9-3 1.4-3.4 1-1.1-1 2.6-4.7 4.7-4.7 1 0 3.3-1.3 5.1-2.9 4-3.4 8.5-5.2 11.6-4.5 1.2.2 4.7 1.5 7.7 2.9zm426.5-1.4c0 .6-.9 2.4-2 3.9-2.4 3.3-1.5 4.3 3.3 3.8 2.4-.2 3.3.1 3.5 1.5.3 1.2-.5 1.9-2.7 2.3-2.5.5-3.3 1.3-4.1 4.5-1.1 4-2.9 5.3-3.1 2.1-.7-11.1-.5-13.8 1.3-16.5 2-2.8 3.8-3.6 3.8-1.6zm-252.5 2.3c0 2.5-1.6 3-3.9 1.3-2.4-1.7-1.2-3.9 1.7-3.5 1.4.2 2.2 1 2.2 2.2zm-54.5 0c7.1.9 11.5 2.2 11.4 3.4-.3 4.2-.4 4.2-2.4 2.2-1.6-1.6-3.3-2-7.9-2-3.3 0-6.3.5-6.6 1-.4.6-1 .8-1.5.5-.9-.6-5.9 2.1-7.1 3.8-.4.5-1.3.7-2 .5-.8-.3-1.9.2-2.6 1.1-1.3 1.8-2.9.7-3.5-2.4-.2-1.2.3-2 1.2-2.1 3.3-.1 6-1.7 8.1-4.6 1.9-2.6 2.6-2.9 5.8-2.4 2 .3 5.2.8 7.1 1zm69.9 1.2c.2.2-.4 1.3-1.3 2.3-1.7 1.9-2 1.9-4.2.4-3.9-2.5-3.1-4.5 1.4-3.7 2 .4 3.9.8 4.1 1zm-97.5 1.7c2.1 1.2 3.8 2.6 3.7 3 0 .4-.1 2.5-.1 4.7s-.4 4-1 4c-.5 0-1-2-1-4.4v-4.3l-4.7-.1c-2.7-.1-6.6.7-9.1 1.8s-5.4 2-6.6 2c-1.2-.1.5-1.2 3.9-2.6 3.3-1.4 6.9-3.4 8-4.5 2.4-2.3 2.1-2.3 6.9.4zm198.1 2.6c-.6.4-2.6 1.3-4.5 1.9l-3.5 1.2 2.4-2c2.2-1.9 7.6-3 5.6-1.1zm127 11.2c.5 7.5.3 8.5-1.7 10.6-1.8 1.9-2 2.7-1 4.8 1 2.1.8 2.9-1.4 5.5-1.4 1.7-2.3 3.7-2 4.5.8 2.1-3.6 3-8.6 1.7-2.3-.6-4.5-.9-4.9-.7-.3.3-.9-1.2-1.2-3.3-.3-2-.9-4.7-1.3-6-.6-2.1-.4-2.2 4.7-2.2 5-.1 5.7-.4 9.8-4.5l4.5-4.4.2-7.8c.2-9.9.3-10.2 1.5-8.1.5 1 1.2 5.4 1.4 9.9zm-146-6.5c3.3 3.5 3.4 3.7 1.9 6.6-.8 1.6-2.4 6.6-3.4 11.1-5.4 23.6-7.4 29.7-9.2 29.1-.9-.3-2.7 0-3.9.6-2.1 1.2-2.1 1.1-1.5-2.4.4-1.9 1.5-5.9 2.5-8.8 1.1-2.9 2.7-7.6 3.6-10.3 1-2.8 2.8-7.2 4.1-10 2.9-5.9 1.8-8.2-2.1-4.5l-2.5 2.3v-2.8c0-3.7 5-14.5 6.7-14.5.2 0 2 1.6 3.8 3.6zm26-1.6c.3.5 2.1 1 3.9 1 3.5 0 6.2 2.1 5.1 4-.3.5-1.2 1-1.8 1-.7 0-3.9 2.2-7.2 5-3.3 2.7-6.3 5-6.7 5-1.1 0-1-4.8 0-5.2 1.3-.4 2.4-5.8 1.3-5.8-.5 0-1.8 1.2-2.9 2.7-1.8 2.4-2.2 2.6-3.7 1.3-1.6-1.4-1.7-1.2-1.1 1.7l.7 3.2-3.8-.6c-2.1-.3-4-.8-4.3-1-2.2-1.9 12.8-12.3 19.2-13.2.4-.1 1 .3 1.3.9zm66.5-.2c0 1.4-1.1 2.1-2.6 1.5-.8-.3-1.1-.9-.8-1.4.7-1.1 3.4-1.2 3.4-.1zm-345.3 2.4c-.3.8-.6.5-.6-.6-.1-1.1.2-1.7.5-1.3.3.3.4 1.2.1 1.9zm12.8-.8c5.4 1.2 5.7 1.4 3.2 2.1-1.5.4-3.7.5-4.9.2-1.2-.4-2.8-.1-3.5.5-.9.7-2 .6-3.8-.6-5.5-3.6-1.8-4.5 9-2.2zm34.7.2c.3.3.4 1.4.1 2.4-.4 1.6-.8 1.7-2.5.7-1.6-1-2.2-.9-3.4.7-.7 1.1-1.7 1.6-2.1 1.2-.5-.4.5-1.9 2-3.2 2.7-2.3 4.8-3 5.9-1.8zM86.5 314c.3.5 1.5 1 2.6 1 1 0 1.9.4 1.9 1 0 1.5-6.6 1.2-7.9-.4-.9-1.1-.9-1.5.1-1.9 2-.8 2.6-.8 3.3.3zm45 2c.3.5.1 1-.4 1-.6 0-1.1-.5-1.1-1 0-.6.2-1 .4-1 .3 0 .8.4 1.1 1zm-4.5 1c0 .5-.4 1-1 1-.5 0-1-.5-1-1 0-.6.5-1 1-1 .6 0 1 .4 1 1zm-116 1.4c0 .3-.4.8-1 1.1-.5.3-1 .1-1-.4 0-.6.5-1.1 1-1.1.6 0 1 .2 1 .4zm335 1.1c0 .3-2.6 3.4-5.8 6.8-3.4 3.7-7.6 9.7-10.2 14.9-2.5 4.9-4.8 8.8-5.2 8.8-1.5 0-.8-4.6 1.5-10.3 1.8-4.8 3.6-7 10.7-13.1 8.9-7.8 9-7.9 9-7.1zm76.1 3.2c-1.2 2-1.4 1.4-.5-1.2.4-.9.9-1.4 1.1-1.1.3.2 0 1.3-.6 2.3zm-383.1.7c.5 1.3.8 9.4.8 18l-.1 15.6h-2.8c-3 0-3.6-.9-2-2.6.6-.5.1-2.7-1.5-5.7-2.8-5.6-2.9-6.7-.9-6.7.8 0 1.9-.8 2.4-1.9 1.3-2.3 1.2-14.9-.1-15.7-1-.6.9-3.4 2.3-3.4.5 0 1.4 1.1 1.9 2.4zm-11.6 2.1c-2.6 1.8-2.4 11.8.3 17.7 1.8 3.8 1.9 4.7.7 5.2-.8.3-1.4 1.3-1.4 2.2 0 1.2.6 1.5 2.5 1 2.8-.7 3.1.1 1.2 2.8-4.1 5.7-8.3-6.6-7.6-22.2.4-8.6 1.8-11.3 4.6-9 1.1.9 1 1.3-.3 2.3zm465.5-.6c1.9 3.5 2.3 12.5.7 15.6-.9 1.6-1.6 3.4-1.6 3.8 0 .5-.9 2.2-2 3.7l-2 2.8 2.9 2.1c1.6 1.2 3.4 2.1 4.1 2.1 2 0 .6 3.3-2.2 4.9-3.1 1.8-6.2 5.6-7.2 8.7-.3 1.1-1.9 3.3-3.4 4.7l-2.8 2.7-2.7-2.8c-2.5-2.6-2.6-3.1-1.4-5.4 1.1-2.1 1.5-2.3 2.6-1.1 1 1.1 1.6 1.1 2.7.2 1.7-1.4 1.8-5.1.3-6.6-1.6-1.6-3.9-.4-3.9 2.1-.1 1.9-.1 1.9-1.1.3-.8-1.4-1.8-1.6-4.4-1.1-4.9.9-5.1-1.1-.3-4.3 2.3-1.5 4.3-3.3 4.5-4 .5-1.5-4.8-4.3-8.2-4.3-1.6 0-2.5-.6-2.5-1.6 0-.9-1.3-2.8-3-4.4-2.9-2.7-2.9-2.8-.9-4.6 1.1-1 4.3-2.1 7.2-2.5 4.5-.6 5.5-.4 7.3 1.5 1.9 1.8 2.1 2.8 1.5 8.2-.9 8.3-.2 10.6 3.4 11.6 3.7 1 7.8.2 7.2-1.5-.2-.7-1.7-1.4-3.3-1.7-4.9-.9-4.6-7.4.6-12.8 3.5-3.7 4.1-6.6.7-3.4-2.4 2.3-4.7 2.9-4.7 1.2 0-.5 1.1-1.7 2.5-2.6 1.4-.9 2.5-2.1 2.5-2.6 0-.6.7-3.4 1.6-6.3 1.5-5.5 3.3-6.4 5.3-2.6zm-92.4 0c-.3.6-1.1 1.1-1.7 1.1-.6 0-.6-.6.2-1.5 1.4-1.7 2.6-1.3 1.5.4zm46.2 3.8c-.3.2-1.5-.1-2.7-.7-2.1-1.1-2.3-3.5-.2-3.5.5 0 1.4-.4 1.9-.8.4-.5.9.3 1.1 1.8.2 1.5.1 2.9-.1 3.2zm21-3.1c-.9.9-2.8-.6-2.1-1.8.4-.6 1-.6 1.7.1.6.6.8 1.3.4 1.7zM32 326c0 .5-.2 1-.4 1-.3 0-.8-.5-1.1-1-.3-.6-.1-1 .4-1 .6 0 1.1.4 1.1 1zm318 3c.7 1.7 1.9 3.4 2.6 3.8.8.5 1.8 3.7 2.3 7.8 1 7.8 2.1 10.5 5.9 14.7 1.8 1.8 2.3 3 1.6 3.7-1.7 1.7-8.2-5.4-8.6-9.2-.4-4.1-3.4-5.1-4.4-1.4-.3 1.3-.3 3.4.1 4.6 1 3 7.4 10 9.2 10 2.6 0 .9 3.3-3.5 6.7-4.8 3.7-7.8 4.1-12.3 1.7-2.1-1-3.4-1.2-4.3-.5-.6.5-2.1 1-3.1 1-1.1-.1-3 .2-4.2.6-1.9.6-2.4.1-3.8-3.1-1.6-3.7-1.5-4.3.5-11.9 2.2-8.1 6.4-18.5 7.5-18.5.3 0 .5 2.7.4 6-.2 5.7 1.3 9.6 3.1 8.5.5-.3.9-4.1.9-8.6 0-4.4.5-8.8 1.1-9.7.7-1.2.9.2.8 5.3-.1 8.2 1.2 14 3.2 14 1.8 0 2.6-6.3 1.1-7.8-1.7-1.7-1.3-2.7.8-2.7 2.9 0 3.7-2 1.1-2.7-2-.5-2.1-1-1.5-5.5.7-4.8.6-5-1.5-4.3-2.4.8-2.2-.3.8-3.8 2.1-2.4 2.8-2.2 4.2 1.3zm-273.7.2c.4 1.5-.3 2.9-2.8 5.2C67.4 340 60.9 345 59.6 345c-2 0-3.6 2.4-2.7 3.9 1.3 2.1 5.5.6 11.6-4 6.7-5.1 10.1-5.1 9.8-.1-.1 4.2-.2 4.3-5.9 5.3-2.7.5-6.7 2.4-9.7 4.6-2.9 2.2-6 3.6-7.2 3.5-1.2-.2-2.7.4-3.4 1.2-1 1.2-.9 1.7.8 2.8 2.5 1.5 2.7 4.3.5 5.2-1 .4-1.4 1.4-1.1 2.6.3 1.1.1 2.3-.4 2.6-.5.3-.9 1.8-.9 3.4 0 1.6-.4 3.2-1 3.5-.5.3-1 1.5-1 2.6 0 1.4.7 1.9 2.4 1.9 1.4 0 2.7.4 3.1.9.6 1.1 6.4.9 8.2-.2 1.4-.9 4.3.1 4.3 1.5 0 .6-.8 1.7-1.7 2.4-1.7 1.2-1.6 1.5 1 4.2 3.8 3.9 3 7.6-2 9.3-1.9.6-4.2 2.4-5.2 3.9l-1.7 2.9-1.6-3.2c-.8-1.8-1.9-4.6-2.4-6.2-.7-2.3-1.6-3.1-3.9-3.3-4.6-.5-5.3-2-1.7-3.3 2-.7 3.2-1.8 3.2-2.9 0-2.1-3.6-5-6.2-5-.9 0-2.8-.5-4.2-1.2-2-.9-2.3-1.4-1.5-2.5.6-.7 2.2-1.3 3.5-1.3 4.3 0 6.5-4 4.4-8-.7-1.4-.5-1.9.9-2.3 1.5-.4 1.9-1.3 1.7-4.5-.1-2.3-.5-4.4-.9-4.8-1.1-1.1-.8-5.2.3-5.9 1.5-.9 1.2-3.6-.7-5.7-1.4-1.6-1.5-1.8 0-1.8.9 0 1.9.5 2.3 1.1.4.7 1.9-.3 4-2.6 1.8-2.1 4.4-4.3 5.6-4.9 1.3-.6 3.3-3.1 4.4-5.5 2.5-5.2 4.7-7.1 7.4-6.4 1.1.3 2 0 2-.6 0-2 1.7-1.2 2.3 1.1zm59.3 2.6c-1.1 1-1.5-.4-.8-2.8l.7-2.5.3 2.3c.2 1.3.1 2.6-.2 3zm189.7-2.9c.7.7.5 2-.6 4.3-6.8 14.5-11.3 38.1-15.2 80.3-1 9.9-1.8 18.1-1.9 18.2 0 .1-1.3-.1-2.8-.4l-2.8-.5.1-8.7c0-4.7.5-15.1 1-23.1.5-8 1-15.6 1.1-17 .2-9.6 5.2-35 8.3-42.3.8-2 1.5-4.8 1.5-6.2 0-1.5.5-3.6 1.1-4.7.9-1.7 1.8-1.9 5.1-1.5 2.2.3 4.5 1 5.1 1.6zm-214.6 3.5c-.2 6.5 4.5 8.7 8.2 3.8l2-2.7.1 2.8c0 1.7-.9 3.5-2.5 4.9-1.4 1.2-2.5 2.8-2.5 3.5 0 .8-1 3.3-2.2 5.6l-2.2 4.2-.9-6.5c-.4-3.6-1.5-7.5-2.3-8.8-1.1-1.6-1.2-2.7-.4-4.1.5-1.1 1-2.9 1-4 0-1.2.4-2.1.9-2.1s.9 1.5.8 3.4zM464 331c0 .5-.7 1-1.5 1s-1.5-.5-1.5-1c0-.6.7-1 1.5-1s1.5.4 1.5 1zm-432.8 5.2c-.9.9-1.2.4-1.1-2.3 0-3.2.1-3.3 1.1-1.1.8 1.7.8 2.6 0 3.4zm28.8-2.7c0 .8-.4 1.5-1 1.5-.5 0-.7-.7-.4-1.5.4-.8.8-1.5 1-1.5.2 0 .4.7.4 1.5zm421.5-.5c-.3.5-1.1 1-1.6 1-.6 0-.7-.5-.4-1 .3-.6 1.1-1 1.6-1 .6 0 .7.4.4 1zm-75.7 3.1c1.2.5 2.2 1.7 2.2 2.8 0 1.1.5 2.3 1 2.6 3.2 2-4.2 3.4-9.7 1.9-1.9-.5-2.3-1.3-2.3-4.3 0-2.1.3-4.1.6-4.4.7-.7 4.1-.1 8.2 1.4zm25.8 7.9c.4 6.2.1 7.9-1.5 9.9-1.2 1.6-2.4 2.2-3.5 1.8-1.5-.6-1.5-1.1.5-4.9 2.1-4.2 2.3-10.2.3-15.3-.8-1.9-.7-1.9 1.5-.5 2 1.3 2.4 2.6 2.7 9zm-417-5.4c-.5 1.3-1 1.4-1.8.6-.6-.6-.8-1.8-.4-2.8.5-1.3 1-1.4 1.8-.6.6.6.8 1.8.4 2.8zm408 5.1c-1.1 2.8-2.3-.1-1.7-4.4l.4-3.8 1 3.2c.5 1.8.7 4 .3 5zM6 338c-2 1.3-3.3 1.3-2.5 0 .3-.6 1.4-1 2.3-1 1.5 0 1.5.2.2 1zm84.5.4c3.2 1.4 3.3 1.6 2.2 4-1.4 3-3.1 3.5-2.2.6.5-1.5.3-1.8-.8-1.4-.8.3-1.7-.2-2-1-.4-.9-1.8-1.6-3.2-1.6-1.4 0-2.5-.5-2.5-1 0-1.5 4.5-1.2 8.5.4zm325.9 10.7l-.6 6.7 4.4 3c3.9 2.7 9.9 8.5 7.1 6.9-1.7-1-6.3 1-6.3 2.8 0 1 1 1.5 3.3 1.5h3.3l-.3 6.7c-.4 7.5-1.2 14-1.9 16.3-.4 1.1-.9.8-2-1.3-1-1.8-2.3-2.7-3.9-2.7-3.3 0-3.8-1.4-1.5-3.5 2.2-2 2.7-8.5 1-12.9-.9-2.4-7.4-6.6-10.2-6.6-.7 0-1.9-.4-2.6-.9-2-1.2.5-5.7 4.5-8.1 3.5-2.1 3.6-2.1 3.6-14 0-6.3.1-6.4 1.4-3.5.9 2 1.1 5.1.7 9.6zm-330.2-3.9c-.9.9-1.2.7-1.2-1.2s.3-2.1 1.2-1.2c.9.9.9 1.5 0 2.4zm38.7-1c-.1 1.3.2 3.1.6 4.2.7 1.6.6 1.7-1.3.7-2.5-1.3-3.2-3.1-2-5.4 1.2-2.4 2.8-2.1 2.7.5zm-106 1.9c.6 1.8 1.1 4.5 1.1 6.1 0 2.5-.2 2.7-1.9 1.8-1.1-.5-2.8-1-3.9-1-1 0-2.7-.9-3.7-2-1.4-1.6-2.6-1.9-4.8-1.4-2.6.5-2.8.4-2.5-1.7.4-2.6 5.1-4.4 7.8-2.9 1.2.6 2.3.5 3.6-.5 2.7-2 3.1-1.9 4.3 1.6zm87.1 5c0 4.7-.3 5.3-4.6 9.2-2.5 2.3-5.2 5.4-6 6.9-1.3 2.6-4.4 3.9-4.4 2 0-1 7-9.4 8.7-10.5 1.8-1.1 4.3-7.4 4.3-10.9 0-1.7.4-2.7 1-2.3.6.3 1 2.9 1 5.6zm-7-2.7c0 1.5-1.4 3.5-2.1 3-1.5-.9-1-3.4.6-3.4.8 0 1.5.2 1.5.4zm87 1.2c1.1 1.2 1.1 1.8-.2 3.1-2 2-3.8.9-3.8-2.3 0-2.7 2.1-3.2 4-.8zm212 1.9c0 1.4-.2 2.5-.4 2.5s-.6-1.1-.8-2.5c-.3-1.4-.1-2.5.3-2.5.5 0 .9 1.1.9 2.5zm58.7.9s.4 1.8.8 4l.8 3.8-3.2-.6c-1.7-.3-4.4-.9-6.1-1.2-2.5-.5-3-1-3-3.3 0-1.5.2-3 .5-3.3.5-.4 9.5.1 10.2.6zm-327.3 3.3c2.4-.4 5.9-.4 7.9 0 3.1.5 3.5.8 2.7 2.4-.6 1-2.6 2.1-4.8 2.4-6.6 1.1-7.7 1.4-9.6 2.8-1.4 1-1.7 2-1.1 3.3.4 1 .8 3 .9 4.4.1 1.6 1.1 2.9 3.1 3.9 1.7.8 3.8 1.8 4.8 2.3 1 .5 2.2.6 2.7.3 2.4-1.5.7 2.7-2.4 5.9-3.3 3.5-3.4 3.6-6.4 2.1-1.6-.9-3.5-2.2-4.2-2.9-.7-1-2.3-1.3-4.6-.9-2.6.4-3.4.2-3.4-.9 0-.9-1-2.2-2.2-3-1.3-.9-1.8-1.9-1.4-2.7.6-.9 1.1-.8 2 .5 1.8 2.4 9.1.7 9.1-2.1 0-1.3-.8-2.1-2.2-2.3-1.3-.2-2.3-.5-2.3-.7 0-.2 1.4-2.7 3.1-5.6 2.2-3.7 2.7-5.5 1.9-6.3-1.6-1.6-4 .3-7.1 5.5-2.8 4.8-6.9 6.6-6.9 3.1 0-1.1-.3-2.7-.6-3.5-.7-2 2.2-4.6 4.6-4 1.9.5 2.7-.5 4.4-6 .6-1.8.8-1.7 4.2.3 2.8 1.8 4.5 2.1 7.8 1.7zm-44.4 0c0 3.1-3.1 5.3-7.4 5.3-8 0-15.7 4.3-12.9 7.1.8.8 2 .8 4.8-.1 5.1-1.7 9.4.1 8.7 3.6-.4 2.2-.8 2.4-6.8 2.4-7.8 0-11.4 1.5-11.4 4.7 0 2.9-1.8 3-2.9 0-2.1-5.7-2.2-7.7-.3-7.7 2.3 0 4.2-1.9 4.2-4.2 0-1.1 1.1-2.3 2.5-2.8s3.1-2.1 3.7-3.6c1.5-3.1 5.6-5.4 10-5.4 1.8 0 4-.4 4.8-.9 1.7-1.2 3-.5 3 1.6zm7 2.9c0 .8-.4 1.4-1 1.4-.5 0-1-.9-1-2.1 0-1.1.5-1.7 1-1.4.6.3 1 1.3 1 2.1zm307.4 4.5c.7 5 .7 5.1 6.4 7.5 8.1 3.6 8.7 3.9 9 5.9.8 3.7-1.5 3.9-8.8 1-6-2.4-7.6-2.7-10-1.8-1.6.6-3.1.9-3.4.6-.7-.7.5-7.6 1.5-8.8.5-.5.9-2.2.9-3.8 0-3.3 1.7-7 2.9-6.3.5.3 1.1 2.8 1.5 5.7zm-18.1-1.6c.9.4 1.7 1.3 1.7 2 0 .6.8 1.9 1.8 2.8 1.6 1.5 1.9 4.3 1.3 12.4-.1.7-.8 1-1.7.6-.8-.3-2.5.3-3.7 1.5-1.9 1.7-11.6 4.6-12.5 3.8-.1-.2-.5-5.5-.8-11.9-.4-9.9-.2-11.7 1.1-12.4 1.6-.9 9.6-.2 12.8 1.2zM20 369.6c0 1.9-.6 1.8-4-.7l-2.9-2.2-4.2 2.2c-4.6 2.4-4.4 2.4-5.3-.5-.6-1.8-.3-2 2.3-1.6 2.3.3 3.7-.2 5.8-2.4l2.8-2.9 2.8 3.4c1.5 1.9 2.7 4 2.7 4.7zm25.6-7.5c.3.6-.3 2-1.4 3.2-2.1 2-2.2 2-4.2.2-3.1-2.8-2.5-4.5 1.4-4.5 1.9 0 3.8.5 4.2 1.1zm345.4.4c0 .8-.4 1.5-.9 1.5-1.3 0-2.2-1.6-1.4-2.4 1.1-1.1 2.3-.6 2.3.9zm-356 4.6c0 .5-.7.9-1.5.9s-1.5-.6-1.5-1.4c0-.8-.3-2.3-.6-3.3-.4-1.4-.1-1.3 1.5.6 1.2 1.3 2.1 2.7 2.1 3.2zm415.8-3c7.7 1.1 9.2 1.6 9.2 3.1 0 1 .1 2.1.3 2.5.1.4-1.8 1.1-4.2 1.5-2.4.4-5.9 1.9-7.8 3.4-3.2 2.4-3.4 3-3.1 7.3l.2 4.6-5.2.5c-7 .7-7.9 1.8-5.8 7 2.4 5.9 2 7.5-2.4 11.9-2.4 2.3-4 4.9-4 6.3 0 1.9-.4 1.6-2.3-1.8-3.1-5.3-3.8-8.3-2.6-10.6 1.2-2.2 2.9-2.4 2.9-.3 0 1.6 2.5 2.1 3.5.6.3-.6.7-4.9 1-9.8l.4-8.8 3-.3c4.7-.5 5.6-6.2 1-6.2-1.5 0-2-.6-1.7-2.2.2-1.7 1-2.3 3.3-2.4 5-.2 5.5-.3 5.5-1.9 0-.8-1.1-1.7-2.5-2.1-1.4-.3-2.5-.9-2.5-1.3 0-1.3 2.4-3.2 3.5-2.7.6.2 5.2 1 10.3 1.7zM298 367.3c0 2.1-3.4 8.7-4.5 8.7-1.3 0-.4-9 1.1-10.4 1.9-2 3.4-1.2 3.4 1.7zm-135 .6c1.5 2.9 1.3 9.1-.4 9.7-2.3.9-7.1-1.9-7.4-4.3-.2-1.4.7-3.2 2.2-4.8 3-3 4.2-3.1 5.6-.6zm158-.2c-.1 1-.7 2.9-1.5 4.3-1.3 2.2-1.4 2.3-1.5.5 0-3 1.1-6.5 2.1-6.5.5 0 .9.8.9 1.7zm43 1.1c0 .5-.2 1.1-.5 1.4-.3.3-.8 10.8-1.1 23.4-.3 12.6-.9 24.7-1.3 26.9l-.8 4-1.2-2.9c-.9-2.1-.9-5.4 0-13.5 1-10 .9-14.5-.7-26.2-.4-3.6-.1-5.8 1.5-9.3 1.7-4 4.1-6.2 4.1-3.8zm-332 3.7c0 .8-.9 1.6-2 2-1.8.6-1.9 1.4-1.6 9.3.2 4.8.7 10.8 1.1 13.4.5 3.3.4 5.2-.5 6.3-2.6 3.1-2.7 2.2-2.2-23.1l.2-10.1 2.5.5c1.4.2 2.5 1 2.5 1.7zm8.8-.9c3.1 2.1 2.8 4.4-.5 4.4-1.4 0-3.5.7-4.5 1.7-1 .9-2.1 1.3-2.5.9-.4-.3.3-1.5 1.5-2.6 1.2-1.2 2.2-3 2.2-4 0-2.4.8-2.5 3.8-.4zm457.9.6c-.3.8-.6.5-.6-.6-.1-1.1.2-1.7.5-1.3.3.3.4 1.2.1 1.9zm-390 1.5c.5 1.5-10.1 4.7-12.5 3.8-1.2-.5-.7-1.1 2.4-3 4-2.6 9.4-3 10.1-.8zm-91.9 3.7c3 3 4.2 8.7 3.6 16.8-.5 6-1 7.8-2.2 7.8-1.1 0-1.3-.7-.9-2.9.7-3.5-.2-4.4-6.6-6.1-5.3-1.4-6.1-4-1.7-5 4.3-1 3.8-4.4-1-6.5-5.4-2.5-5.7-3.2-1.8-4.9 3.9-1.7 8.5-1.4 10.6.8zm283.2-1.5c0 2.3-1.3 7.1-2 7.1-1.3 0-1.9-5.4-.8-6.8 1.2-1.4 2.8-1.6 2.8-.3zm-213.6 3c1.7 1.9 1.7 2-1.6 2.3-4.6.4-4.3 2.8.8 5.3 5.2 2.5 7.4 4.4 7.4 6.1 0 .8-.7 1.4-1.5 1.4-2.5 0-7.5 2.9-7.5 4.3 0 2.8 2.1 3.5 5.1 1.8 2.9-1.6 3-1.5 4.9.9 1.3 1.6 1.8 3.3 1.4 4.5-1.2 3.8-.8 12.3.6 13.9 1.9 2.4 3.4.5 3.7-5.2.1-2.6.3-6.1.5-7.7.1-1.7-.1-5-.5-7.5-.6-3.6-.6-4.3.4-3.3.7.7 2.1 1.3 3 1.3.9 0 2.8.6 4.2 1.3 2.3 1.2 2.4 1.4 1 4.1-1.5 2.9-.5 5.6 2.3 5.6 1.3 0 3.4 3 3.4 4.9 0 .6-1.1 1.1-2.4 1.1-3.7 0-7.6 1.8-8.2 3.7-.3 1-1 2.8-1.6 3.9-.7 1.5-.7 2.8.1 4.2 1.6 3 1.4 5-.8 7.8l-1.9 2.4-1.6-2.5c-.9-1.4-2.3-2.5-3.1-2.5-1.7 0-3.7-4.3-3.3-6.9.2-1.2-.6-1.7-3-1.9-4.3-.4-6.1-4.2-3.7-7.9 3.6-5.5-1.4-12-7.1-9.4-2.7 1.2-5.4.1-5.4-2.1 0-1.8 4.4-6.8 6.1-6.8 2.5 0 4.9-2.8 4.2-4.8-1-3-5.6-7.2-7.7-7.2-1.2 0-3.7-1-5.6-2.2l-3.5-2.2 3.4-.7c1.9-.4 4.8-.5 6.5-.2 1.7.2 4.2 0 5.6-.6 3.4-1.4 3.5-1.3 5.4.8zm412.6.1c0 .5-.5 1-1.1 1-.5 0-.7-.5-.4-1 .3-.6.8-1 1.1-1 .2 0 .4.4.4 1zm-92.2 3.2c1.7 1.1 3.2 2.3 3.2 2.6-.1 1.3-2.5 3.9-4.7 5.1-1.3.6-2.3 1.7-2.3 2.3 0 .7-1 2.2-2.1 3.4-1.5 1.6-2 3-1.5 4.7 1.2 5 6.6 4 6.6-1.2 0-1.5.7-3.7 1.6-4.9 1.3-1.9 2.2-2.2 4.7-1.6 5.3 1.1 6.7 2.5 6.4 6.1-.2 1.8-.6 3.6-1 3.9-.3.3-3.1.7-6.2.7-4.6.2-6 .6-7.6 2.6-2.6 3.2-4.4 2.1-6.8-4.4-2.6-6.9-2.7-20.1-.1-21.5 1.9-1.1 5.6-.3 9.8 2.2zm80.6-1.2c1.5.5 2.6 1.7 2.6 2.8 0 1.6-.6 1.9-3.1 1.6-4.3-.5-5.1-1.2-3.9-3.5 1.2-2.2 1.1-2.2 4.4-.9zm-193 4.6c.7 1.9-.2 3.7-1.5 2.9-1.2-.8-1.2-4.5 0-4.5.5 0 1.2.7 1.5 1.6zm95.7-.3c-.1 1.2-1.5.9-1.9-.4-.3-.6.1-1 .8-.8.6.3 1.1.8 1.1 1.2zM37 388.2c-1.1.4-2 1.3-2 2 0 2-2-1.3-2-3.4 0-1.4.4-1.5 3-.5 2.7 1 2.8 1.2 1 1.9zm347.6 8.3c-.2 3.3-.7 7.2-1.1 8.7-.5 2-.2 2.9 1.3 3.7 1.3.7 2.2.7 3-.1.9-.9 1.2-.7 1.2.8 0 2.5 1.8 4.4 4.3 4.4 3.2 0 1.3 2.5-2.4 3.1-1.9.3-4 .9-4.7 1.3-1.8 1.1-4.4 7.8-3.9 9.8.3 1-.1 2.2-.9 2.9-3.8 3.1-6.2-7.1-2.8-11.9 1.5-2.2 1.4-2.3-1.5-3.3-3.1-1.1-4.3-3.9-1.8-3.9.7 0 2.5-1.2 3.9-2.8 2-2.1 2.7-3.9 3-8.2l.3-5.5-3.7-.3c-2.5-.2-4.1-1-5.2-2.7-1.5-2.3-1.5-2.5.3-3.5 1.1-.5 2.9-1 4-1s2.3-.5 2.7-1.1c.4-.8 1.3-.4 2.5 1.2 1.5 1.9 1.8 3.7 1.5 8.4zm-260.7-7.8c1.7 1 3.1 2.1 3.1 2.5 0 .9-8 4.5-11.7 5.2-2.5.4-3.3.1-3.8-1.4-.4-1.2-1.9-2.1-4.5-2.5-2.2-.4-4-1-4-1.5 0-.4.8-.6 1.9-.3 1 .2 3.6-.4 5.7-1.6 4.8-2.5 9.3-2.6 13.3-.4zm-23.5 1.2c1.3 1.4 1.4 2 .4 2.4-.7.2-2.1-.6-3.1-1.9-1.4-1.9-1.5-2.4-.4-2.4.8 0 2.2.8 3.1 1.9zm94.3.3c4.3 4 1.5 10.1-2.8 6.2-1.9-1.8-2.4-4-1.3-6.8.8-2.1 1.3-2 4.1.6zm103.4 3c.2 4-.2 26.6-.5 32.6-.2 2.9-1 5-2.5 6.5l-2.3 2.2.4-14.7c.4-10.7.1-15-.7-16-.8-.9-1.1-3.4-.8-7.6.5-6.1.6-6.2 3.4-6.2 2.6 0 2.9.4 3 3.2zm16.5 21.8c-.8 6.3-1.8 16-2.2 21.5-.4 5.9-1 9.2-1.4 8-.7-2 2.1-38.9 3.6-48l.9-5 .3 6c.2 3.3-.4 11.2-1.2 17.5zM499 397.1c0 2.6-.9 2.8-5.1 1-4.3-1.8-4.8-2.8-2.2-4.6 1.3-1 2.2-.9 4.5.4 1.5.9 2.8 2.3 2.8 3.2zm-462-2.6c1 1.2 1 1.9.1 2.8-.9.9-1.4.9-2.1-.3-2.2-3.4-.4-5.4 2-2.5zm334 4.8c0 2-2.5-.1-2.8-2.4-.2-2.3-.2-2.3 1.3-.5.8 1.1 1.5 2.4 1.5 2.9zm-328.6 2.8c-.3 4.4-1.4 4.9-1.4.6 0-2.1.4-3.7.8-3.7.5 0 .7 1.4.6 3.1zm6.8.9c.3 1.7.1 3.3-.4 3.6-.4.3-.8-.4-.8-1.5 0-1-.3-2.6-.6-3.5-.3-.9-.2-1.6.4-1.6.5 0 1.2 1.4 1.4 3zm68.8.1c0 .5-.9.9-2 .9-1.9 0-2.6-1.1-1.4-2.3.8-.8 3.4.3 3.4 1.4zm-82.3 1.1c-.3.8-.6.5-.6-.6-.1-1.1.2-1.7.5-1.3.3.3.4 1.2.1 1.9zm-29.7.2c0 .2.3 1.1.6 2 .7 1.8-1.2 2.1-3.5.7-1.6-1-.6-3.1 1.5-3.1.8 0 1.4.2 1.4.4zm61 2.5c0 .5-.7 1.4-1.5 2.1-1.6 1.4-1.8 1-.9-1.4.6-1.7 2.4-2.2 2.4-.7zm304.1 1.2c-1.8 1.5-2.6 1.7-3.2.7-1.1-1.8-.1-2.8 2.9-2.8l2.7.1-2.4 2zm127.4 2.8c.5 4.4.4 4.6-2.3 3.2-.9-.6-3.9-1.3-6.6-1.6-3.6-.5-4.5-1-3.7-1.8 1.1-1.1 11.3-4.6 11.9-4.1.2.1.5 2 .7 4.3zm-419.8-.2c-.3.3-1.1.2-1.7-.2-.8-.5-.7-1.1.2-2.2 1.2-1.5 1.3-1.4 1.6.1.2 1 .1 2-.1 2.3zM43 408.9c0 .5-.7 1.4-1.5 2.1-1.6 1.4-1.8 1-.9-1.4.6-1.7 2.4-2.2 2.4-.7zm-27.2 1.3c1.4 1.4 1.6 6.4.3 7.2-.5.4-.7-.3-.4-1.4.7-2.8-1.6-5.3-4.4-4.7-2.4.4-3.2-.8-1-1.6 2.2-.9 4.3-.7 5.5.5zm11.6 2.3c.3.8.1 1.5-.4 1.5-.6 0-1-.7-1-1.5s.2-1.5.4-1.5.6.7 1 1.5zm453.8 3.7c-.4.3-2.5 1-4.7 1.4l-4 .7 2.8-2.6c1.5-1.4 2.7-3.1 2.7-3.8 0-.6.9-.1 1.9 1.2 1.1 1.3 1.7 2.7 1.3 3.1zm-59.2 0c0 .4-.4.8-1 .8-.5 0-1-.4-1-.9s-.3-1.8-.6-2.8c-.5-1.6-.4-1.6 1 .1.9 1.1 1.6 2.3 1.6 2.8zm-378.5 0c-.3 1.3-.8 3-.9 3.8-.3 1.5-1.1 3.7-2.4 7.2-.4.9-2.3 2.8-4.2 4-5.1 3.4-4.7 6.1 1 6.9 2.5.4 5.6 1.1 6.9 1.6l2.4 1-2.9 2c-1.6 1.1-4.2 2.3-5.7 2.7-1.7.4-3.1 1.6-3.7 3.1-.5 1.4-1.6 2.5-2.3 2.5-.7 0-2.3.9-3.6 2.1-2.7 2.6-1.5 4.6 3.2 5.1l3.2.4-2.7 1.2c-1.7.7-2.8 1.9-2.8 3s-.7 3.2-1.5 4.9c-1.3 2.7-1.3 3.5.4 8.4 3 8.5.7 9.4-2.9 1.1-1.2-2.6-3.3-6-4.8-7.5-2.3-2.4-3.1-2.7-6.9-2.1-5.6.8-6.5-1.2-3.3-7.3 2-3.8 2.1-4.6.9-5.4-.8-.5-1.7-.9-2.1-.9-.4 0-.9-.9-1.3-1.9-.3-1-1.4-2.1-2.5-2.4-1.8-.5-1.9-1.1-1.1-7 0-.5 2.3-.6 5-.2 3.1.4 5.1.3 5.6-.4.3-.6 1.8-.8 3.3-.5 4 1 5.1 2.4 1.7 2.4-4.1 0-6.5 2.6-6.5 7.1 0 3.8 2.3 7.4 4.1 6.4.5-.4.9-1.5.9-2.5s.9-2.2 2.1-2.5c1.1-.4 2.5-1.7 3-2.9.6-1.2 3.1-3.4 5.5-4.9 4.4-2.7 5.2-5.4 1.2-4.1-1.8.5-1.9.3-1.4-4.8.8-6.2 0-7.8-4.3-8.7l-3.2-.6 2.3-3.4c1.3-1.8 3.4-3.9 4.8-4.6 2-1 11.8-3.8 15.4-4.4.4 0 .5.9.1 2.1zm370.5-.1c0 .5-.4.9-1 .9-.5 0-1-.7-1-1.6 0-.8.5-1.2 1-.9.6.3 1 1 1 1.6zm-246.1 2.3c3.6 5.7 2.2 9.2-2.5 6.1-2.9-1.9-4.9-5.7-4.1-7.9 1.1-2.7 4.4-1.8 6.6 1.8zm-28.3 1C152 425.3 164 441 166 453.9c.5 3.1 1.2 12.5 1.5 21 .3 8.5.8 15.8 1.1 16.3.3.4 1.2.8 2.1.8 1.3 0 1.4.9.8 5.6-.4 3.1-1 12.4-1.5 20.7-1.4 25.8-5 66.1-5.9 67-1.8 1.8-2.3-13.6-2.6-68.3-.2-33.9-.7-58.5-1.3-61.6-1.4-6.5-4.6-14.7-8.2-20.5-1.5-2.5-3-5.4-3.1-6.4-.5-2.1-12.4-9.5-15.5-9.5-3.2 0-7.4 2.1-7.4 3.7 0 .8 1.2 1.3 3.3 1.3 4.5 0 4.9.7 2.1 3.5-2.8 2.8-3.4 9.2-.9 10.1 1.4.6 6.5 8.2 6.5 9.7 0 .4-1.1.7-2.4.7-1.6 0-3.2-1.2-5-3.9-3.1-4.4-6.5-5.8-9.9-3.9-3.1 1.7-9.7 1.9-9.7.3 0-1.8 3.9-6.5 5.5-6.5.7 0 1.7-1.4 2-3.2.4-1.8 1.6-4.4 2.7-5.9s1.8-3.3 1.6-4.1c-2-5.5 7.6-6.3 17.8-1.4zm356.2.8c.7.7 1.2 1.8 1.2 2.5 0 1-.6 1-2.5-.3-1.4-.9-2.5-2-2.5-2.5 0-1.3 2.4-1.1 3.8.3zM8.2 426.3c-1.8 1.7-2.3 1.8-3.7.7-1.5-1.2-1.3-1.5 1.7-3 3.9-1.8 4.9-.7 2 2.3zm102.6-3.1c2.8 2.8-.6 7.8-4.4 6.4-2.8-1.1-1-7.6 2.1-7.6.6 0 1.6.5 2.3 1.2zm260.2-.3c0 1-2.8 4.1-3.6 4.1-.2 0-.4-1.1-.4-2.5 0-1.8.5-2.5 2-2.5 1.1 0 2 .4 2 .9zm37.9 2c2.5 1.6-.6 4.4-3.8 3.6-3.2-.8-3.3-.9-2.5-2.9.7-1.7 4-2.1 6.3-.7zm28.1 1.3c0 1.6-7.2 6.2-12.2 7.7-5.6 1.8-6.4 3.5-3.1 6 2.1 1.5 2.4 2 1.1 2.1-.9 0-2-.5-2.3-1-.3-.6-1.7-1-3.1-1-2.1 0-2.4-.3-1.8-2.7.5-1.8.2-3-.9-3.8-1.4-1-1.2-1.2 1.3-1.3 4-.1 5.3-1 4.7-3.4-.6-2.2 1.7-3.5 3.6-2 1.5 1.3 7.6.9 10.3-.6 2.4-1.4 2.4-1.4 2.4 0zm-296.5 6.2c1.6 7.4-.1 10.5-2.5 4.7-.6-1.6-1.8-3.2-2.6-3.5-2.6-1-1.5-3.3 1.6-3.3 2.3 0 3.2.6 3.5 2.1zm-116.5.1c0 1.1-.7 1.3-2.9.9-3.3-.7-7.1 1-7.1 3.2 0 1.2-1.1 1.4-5.2 1.2-5-.3-5.3-.5-5.6-3.2-.3-2.4-.1-2.8 1.5-2.2 4.3 1.7 7.2 1.8 9.4.2 3-2.1 9.9-2.2 9.9-.1zm463 1.4c-1.1 3.9-9.5 14.6-12.6 16-1.4.6-2.4 1.7-2.1 2.4.5 1.8 4.7 3.7 8.2 3.7h2.9l-2.2 1.6c-2.7 1.8-2.6 5.3.1 6.5.9.5 2.4 1.2 3.3 1.6 3 1.5.8 2.8-4.7 2.8-5 .1-5.7-.1-5.7-2 0-3.9-3.1-9.5-5.2-9.5-1.3 0-2.5-1.2-3.4-3.3-1.3-3.1-1.7-3.4-5.7-3.3-3.8 0-4.9-.5-8-3.7-3.7-3.7-8.9-5.1-10.4-2.7-.4.6-2.1-.2-4.1-2-1.9-1.6-4.6-3-5.9-3-3 0-3.3-1.5-.6-3 3.1-1.6 13.9 1.1 20.7 5.3 3.3 2.1 6.8 3.7 7.8 3.7s3-1.3 4.5-2.9c1.6-1.7 4-3.3 5.6-3.7 1.6-.4 3.5-2 4.7-4 1.9-3.2 2.3-3.4 7.8-3.4h5.9l-.9 2.9zm-128 9.8c-.6 3.2-1.5 8.5-2 11.8-1.6 11.3-5 30-6.1 33.2-.9 2.8-1.5 3.3-4.2 3.3-2.6.1-3.7.8-5.8 4.2-3 4.7-2.6 8.6 1.2 11.6l2.1 1.8-3.2 5.7c-3.4 6.1-4.8 6.7-10.9 4.6-3.8-1.3-5.8-4.4-4.1-6.4.8-1 .5-2-1.3-4.1-3.7-4.4-4.7-6.9-4.7-11.1l.1-3.8 2.2 4.4c1.2 2.5 2.8 4.7 3.4 4.9.7.2 4-2.5 7.3-6 3.9-4 6.7-6.2 7.9-6 2.4.4 4.2-2.5 7.8-13.3 3.3-9.6 8.3-32.3 8.3-37.5 0-1.7.6-4.1 1.2-5.3l1.3-2.2.3 2.2c.2 1.2-.2 4.8-.8 8zm45.5-8.7c.3.5.1 1-.4 1.1-4 .4-5.5.2-5.9-.9-.5-1.5 5.4-1.7 6.3-.2zm-99.3 3.1c.6 3.8-2.6 8.6-3.7 5.6-1-2.5.4-8.7 1.9-8.7.8 0 1.6 1.4 1.8 3.1zM104.3 440c.6 2.4-.8 3.6-1.7 1.4-.8-2.2-.7-3.4.3-3.4.5 0 1.1.9 1.4 2zm45.7 1.7c1.2 2.1 3.5 8.7 5 14.8 3 11.8 3.1 13.2 2 58-.2 11.8-.4 13.1-1 8-.4-3.3-.9-10.5-.9-16-.4-18.5-6.1-49.8-11.1-59.4-2.8-5.5-1.2-5.2 2.2.4 1.5 2.5 3.2 4.5 3.7 4.5 2.2 0 1.9-2-1-6.5-1.7-2.6-2.8-5.4-2.5-6.1.8-2 1.2-1.8 3.6 2.3zm-95.3-2.1c-.3.3-1.2.4-1.9.1-.8-.3-.5-.6.6-.6 1.1-.1 1.7.2 1.3.5zm321.9 1.2c1.3.9 4.4 5.4 4.4 6.4 0 .5-.6.8-1.4.8-.7 0-2 1-2.8 2.2-1.9 2.9-3.6 1.7-7.2-5.3L367 440h4.2c2.4 0 4.8.4 5.4.8zm32.4 1.9c-.1 2.1-2.2 3.7-5.2 3.9-1.8.1-3.8.3-4.4.5-.7.2-1.2.1-1.3-.4-.4-2.9.2-3.6 3.2-4 5.9-.7 7.7-.7 7.7 0zm-235 2.6c1.3.4 1.4 2.1.8 11.8-.9 15.5-2 27.1-2.3 26.7-.2-.2-.8-8.4-1.4-18.3-.6-9.9-1.4-19.1-1.7-20.3-.6-2.1-.5-2.3 1.2-1.4 1 .6 2.6 1.3 3.4 1.5zm318.2-1.2c2.1-.1 2.6.2 2.2 1.4-.7 1.7-4.6 2-7.5.4-2.3-1.2-1.5-3.4 1-2.3.9.4 2.8.6 4.3.5zm-57.6 3.4c1.8 4.4 1.9 4.2-1.6 4.2-3.1 0-3.2-.2-3.4-5-.2-4.1 3.1-3.6 5 .8zM119 446c0 .5-1 1-2.2 1-1.9 0-1.5.8 3.1 5.4 4.3 4.3 5.5 6.3 6.2 10.2 1 5.4.8 6-1.9 4.5-1.4-.7-2.4-.7-3.7.3-1.7 1.2-1.6 1.4.6 3.5s2.3 2.2.6 5c-.9 1.6-1.7 3.7-1.7 4.6 0 1.4-.3 1.5-1.5.5-.8-.7-1.5-2.3-1.5-3.7 0-3.8-4.6-9.1-8.6-9.9-3.1-.6-3.3-.8-2.7-3.8.3-1.7 1.5-4 2.6-5 1.5-1.5 1.8-2.8 1.4-6.2-.2-2.3-.2-4.7.2-5.2 1.1-1.7 9.1-2.8 9.1-1.2zm176.8.6c1 1.8.5 5.4-.8 5.4-1 0-2-2.6-2-5.1 0-2.3 1.6-2.5 2.8-.3zm124.3 3.5c-3 4.1-2.7 6.4.9 6.1.3 0 1.3-.4 2.3-.7 1.3-.6 1.7-.2 1.7 1.7 0 1.3.6 3.3 1.4 4.3 1.3 1.8 1.4 1.8 4.7-.1 1.8-1.1 3.6-3 3.9-4.2.5-2.2.5-2.2 3 .6l2.6 2.9-2.6 3c-1.4 1.7-4 3.4-5.8 3.8-1.8.4-5.2 2.4-7.4 4.6-2.3 2.1-4.2 3.9-4.4 3.9-.3 0 .2-13 .6-14.5.1-.6.2-1.5.1-2-.2-1.8-6.9-3.7-10.1-3-1.7.4-3 .3-3-.1 0-2.2 2.6-7.4 3.7-7.4.6 0 1.6-.6 2-1.4.9-1.6 7.6-2.6 8.2-1.3.2.5-.6 2.2-1.8 3.8zm-371.7-2c2.1 1.6 2.4 2.4 1.6 3.9-1.3 2.4 1.2 5.2 6.5 7.4 1.9.8 3.5 1.9 3.5 2.5 0 1-3.4 3.2-8.2 5.2-1.7.6-2.8 1.9-2.8 3 0 2.3 2.1 2.4 6 .4 3.4-1.8 3.8-.8 1.6 3.3-2.1 3.9-3.7 9.3-3 10.3.3.5 1.1.9 1.9.9 1.3 0 2.4-2.3 5.6-11.8.9-2.9 2.9-6.8 4.3-8.7 1.4-1.8 2.6-3.8 2.6-4.4 0-1.4-2.3-1.4-3.7 0-.8.8-1.4.5-2.3-1.1-.6-1.2-2.5-2.6-4.1-3.2-2.7-.9-5.7-4.4-4.6-5.4.2-.2 2.9-.6 6-.8 5.7-.4 5.7-.4 5.7 2.5 0 1.7 1.2 4.1 3 6.2 1.6 1.9 2.7 3.7 2.4 4-.3.3.1 1.6 1 2.8 1.4 2.1 1.4 2.4-.9 4.5-1.9 1.8-2.3 2.9-1.8 5.7.5 3.3.3 3.5-3.2 4.7-3.9 1.3-8.5 6.7-11.2 13-.8 1.9-1.7 3.7-1.9 3.9-.2.3-2-1.1-3.9-2.9-4.7-4.5-4.7-7.9.1-11.7 3.7-3 4-6.3.4-6.3-.9 0-3.1-.5-4.9-1.1-2.3-.8-3.1-1.7-3.1-3.5 0-2.5.3-2.8 5.4-3.9 2.5-.5 2.7-.9 2.1-3.3-.3-1.5-.9-3.9-1.2-5.4-.3-1.4-1.6-3.7-2.9-4.9-3.5-3.3-3.1-7.3.7-7.8.4-.1 1.8.8 3.3 2zm401.8 3.8c2.2 3.1 6.4 4.7 8.3 3.1 1.4-1.2 1.8-1.1 2.6.1.5.8.9 2.6.9 4.1 0 2.3-.4 2.8-2.5 2.8-1.8 0-2.5.5-2.5 1.8 0 1.1 1.1 2.4 2.5 3 1.4.6 2.5 1.8 2.5 2.5 0 2.4 2.1 3.7 4.2 2.6 1.5-.8 1.8-1.7 1.2-4.7l-.6-3.7 2.5 3c1.6 1.9 2.2 3.4 1.6 3.9-.5.6-.9 1.9-.9 3 0 1-1.7 3.5-3.9 5.5-2.1 2-4 4.3-4.3 5.1-.8 2.5-3.6-.6-4.9-5.4-2.8-10.7-3.4-11.8-6.1-12.8-3.2-1.1-3.2-1.2-1.7-4 .9-1.6.7-2.4-1.2-4.4-1.2-1.3-3-2.4-4-2.4-2 0-2.9-2-2.9-6.1V446l3.9 2c2.2 1.1 4.6 2.8 5.3 3.9zm-143.6-1.8c-.3 1.7-.6 3.8-.6 4.6 0 .9-.8 1.3-2.2 1.1-1.8-.2-2.3-1-2.5-3.7-.3-3.6.8-5.1 4.1-5.1 1.5 0 1.7.5 1.2 3.1zm59.4 3.3c-1.4 1.4-2.4 0-1.6-2.1.6-1.5.8-1.5 1.6-.3.6.9.5 1.9 0 2.4zm-224.6 1.5c3.3 6.8 8.8 40.3 6.8 42.3-.5.5-1.9.5-3.4-.1-2.3-.9-2.6-1.6-3.3-8.7-.8-8.6-1.9-12.6-3.5-12.2-.6.2-1.1-3.4-1.4-9.2-.2-5.2-.7-10.9-1.1-12.6-.7-3-.6-3.1 1.9-2.7 1.6.3 3.2 1.6 4 3.2zm260.6-1c-1.9 3.7-4.7 4.9-9.3 4-3.5-.6-4.6-.4-6.3 1.2-2.1 2-2.1 2-3.8-.5-2.2-3.4-2.1-3.6 1.6-2.9 2.3.4 3.4.2 4.4-1.1 1.2-1.7 1.4-1.6 3.4.4l2.1 2.1 4.2-2.6c5.1-3 5-3 3.7-.6zm94.6 4.6c-3.1 2.9-3.4 6-.6 7.5 1.7.9 2 2.1 2 8 0 6.8-.1 7-2 5.8-1.1-.7-2-2.1-2-3 0-1-1-2.8-2.1-3.9-2-2-2-2.3-.5-3.1 2.1-1.2 2.1-4.4 0-5.6-1.9-1-1.5-1.9 3-7.6 2.5-3 3.1-3.4 3.9-2.1.6 1.2.2 2.3-1.7 4zm-185.6-.3c0 1.6-.3 1.9-1.1 1.1-.6-.6-.8-1.6-.5-2.2 1.1-1.7 1.6-1.3 1.6 1.1zm-14.7 2.1c.3.8.8 4.5 1.2 8.3 1.7 17.8 6.6 35.4 12.6 45.1 2.8 4.5 1.8 5.3-1.4 1.1-5-6.5-9.7-16.7-11.6-24.9-2.3-9.9-3.9-30.9-2.3-30.9.5 0 1.2.6 1.5 1.3zm10 13.4c.4 7.1.9 14.1 1.2 15.8l.5 3-1.4-3.1c-1.6-3.3-4.6-20.2-4.6-25.4 0-2.3.5-3 1.9-3 1.6 0 1.9 1.2 2.4 12.7zm59.7-10.2c0 .8-.6 1.5-1.4 1.5-1.7 0-2.8-1.4-1.9-2.4 1.2-1.2 3.3-.6 3.3.9zm20.2 4.3c1 .2 2.2-.5 2.9-1.6 1.2-1.9 1.3-1.9 4.8.5 6.6 4.5 6.6 7.4 0 6.6-2.4-.4-5-.1-6.4.7-2.1 1.1-2.6 1-4.7-1.4-1.3-1.5-4-3.3-6.1-4-4.7-1.6-4.5-3.2.4-2.8 2.4.2 4-.2 5-1.4 1.3-1.5 1.4-1.5 1.9.7.3 1.3 1.3 2.5 2.2 2.7zM313.5 481c.8 5.2 1.5 10.8 1.4 12.5 0 2.9-.1 2.9-1.5-1-2.6-6.9-4.6-23.2-3.4-27.3.4-1.2 1.9 5.7 3.5 15.8zm-203.3-7c2.6 3.2 2.3 8.2-.8 11.5-2.4 2.6-3 2.7-8.3 2.2-3.2-.2-6.4-.1-7.2.3-.8.4-2.5 1-3.9 1.2-1.4.1-2.9.8-3.5 1.5-1.1 1.2-8.6 3.5-9.3 2.8-.2-.2 2.5-1.8 5.9-3.6 6.8-3.4 8.8-5.3 8.9-8.3 0-1.8-.6-1.9-6-.5-.8.2-1.5-.3-1.5-1.1s3.2-3.2 7-5.2c6-3.3 7.7-3.8 11.9-3.4 3.6.2 5.5.9 6.8 2.6zm-35.5 1.2c-.3.8-.6.5-.6-.6-.1-1.1.2-1.7.5-1.3.3.3.4 1.2.1 1.9zm297.8-.2c-.3.5-1 1-1.6 1-.5 0-.9-.5-.9-1 0-.6.7-1 1.6-1 .8 0 1.2.4.9 1zm38.5 0c0 .5-.2 1-.4 1-.3 0-.8-.5-1.1-1-.3-.6-.1-1 .4-1 .6 0 1.1.4 1.1 1zm18.7 1.2c-.3.8-.6.5-.6-.6-.1-1.1.2-1.7.5-1.3.3.3.4 1.2.1 1.9zm-61.4 1.8c-.4.4-2.5 1-4.5 1.3-2.8.4-3.8.2-3.8-.8 0-.9 1.4-1.5 3.8-1.7 4.2-.4 5.8.1 4.5 1.2zm-361.8.6c1.5.6 1.4.8-.1 2.5-2.4 2.6-.6 4.4 5.9 5.9 2.9.6 6.2 1.6 7.4 2.2 1.2.6 3 .7 4 .4 1.6-.7 1.5-1-1-3.2-1.5-1.3-3.7-2.4-4.9-2.4-2.4 0-9.1-3-8.3-3.8.2-.3 2.9-.6 5.8-.7 5-.1 5.5.1 6.6 2.6 1.1 2.5 6.3 5.9 9 5.9.6 0 1.7-1.1 2.3-2.5 1.8-4 5-2.9 6 2 .6 2.6 2.3 5.4 5 8.2 5.1 5.2 4.3 6.8-4 7.8-8.1 1-10.4 2.7-9.6 7 .6 3.5.6 3.5-3 3.5-2.7 0-4.4.7-6.1 2.6-1.4 1.5-2.5 3.3-2.5 4 0 .8-.4 1.4-.9 1.4-1.2 0-2.4-7.4-1.6-9.9.3-1.1.1-2.2-.5-2.6-.6-.4-1.5-1.8-2-3.1-.6-1.4-2-2.6-3.7-3-1.5-.3-3.9-.9-5.3-1.4-2.4-.7-2.4-.8-.5-1.5 1.1-.4 2.7-1.7 3.7-2.8 1.3-1.7 1.9-1.9 3.1-.9 1 .8 2.9 1 5.8.6 3.7-.6 4.1-.5 3.6.9-1.5 3.8-1.9 11.5-.7 12.2 1.9 1.2 3-.8 4.7-8.1 1.5-6.8 1.5-6.8-.8-8.7-2.2-1.8-5.9-1.8-10.5 0-.9.3-1.4-.1-1.4-1.1s-1.8-2.4-4.5-3.6c-4.4-1.9-4.5-2-4.5-6.5s.5-5 3.5-3.9zm375.5 2.1c0 .5-.6 1.5-1.3 2.4-1.1 1.4-1.5 1.4-4.2-.3l-3-1.9 3.3.6c2 .4 3.2.3 3.2-.4 0-.6.5-1.1 1-1.1.6 0 1 .3 1 .7zm17.1 5.1c1.6 4.2.3 3.5-2.1-.9-1.7-3.4-1.8-4-.5-2.9.9.8 2.1 2.5 2.6 3.8zm-325.3-2.6c2 2 1.4 2.8-2.1 2.8-1.8 0-4.9 1.1-7.1 2.6-3.2 2.2-3.6 2.3-2.7.7 1.1-2.2 3.3-4.1 6.5-5.9 2.8-1.6 4-1.6 5.4-.2zm211.9 6c-.2 1.3-.4.3-.4-2.2s.2-3.5.4-2.3c.2 1.3.2 3.3 0 4.5zm207.3-4.7c.7.8 1 2.5.6 4-.5 1.9 0 3.5 1.9 5.9 2.5 3.2 3.5 9.9 1.7 11-1 .6-5.6-1.7-7.7-3.8-.8-.8-1.9-1.6-2.5-1.8-.9-.3-1.2-4.5-.8-13.1.1-3.3.4-3.7 2.9-3.7 1.4 0 3.2.7 3.9 1.5zm-355.6 17.6c-.4 5.8-.2 8.9.5 9.3.6.4 1.1 1.6 1.1 2.7 0 1.5-.6 2-2.2 1.7-2.2-.3-2.3-.8-2.6-9.3-.2-5 .2-12.2.9-16l1.3-7 .8 5c.5 2.7.6 8.9.2 13.6zM413.5 486c.3.5.1 1-.4 1-.6 0-1.1-.5-1.1-1 0-.6.2-1 .4-1 .3 0 .8.4 1.1 1zM115 493.9c0 3.2-2.5 6-4.1 4.4-1.2-1.2 1.7-8.6 3.1-7.8.6.3 1 1.9 1 3.4zm177.6-1.4c.7 2.9.1 4.1-1.5 3-1.4-.8-1.4-5.5-.1-5.5.5 0 1.2 1.1 1.6 2.5zm147.2 2.5c1.8 1.6 3.7 3 4.2 3 .7 0 .7.6.1 1.7-1.3 2.5-1.7 6.6-.8 8 .4.7.3 2.2-.4 3.4l-1.1 2.1-1.1-2.2c-.7-1.3-2.1-2.8-3.2-3.4-3.1-1.7-3.5-2.7-3.5-8.7 0-7.9 1-8.6 5.8-3.9zM184 503.2c0 2.5-1.9 3.2-4.6 1.7-1.9-1-2.4-2.1-2.4-4.9 0-2 .3-4 .7-4.4 1-1 6.3 5.4 6.3 7.6zm104-3.9c-.1 2.1-.1 2.1-1.5.3-.8-1-1.2-2.3-.9-2.8.9-1.4 2.4.2 2.4 2.5zm124-2.3c0 .5-.4 1-1 1-.5 0-1-.5-1-1 0-.6.5-1 1-1 .6 0 1 .4 1 1zm-64 1.7c0 2.8-1.7 5-2.9 3.8-.8-.8-.6-1.8.5-3.3 1.8-2.7 2.4-2.8 2.4-.5zm-255 .8c4.9.2 14 3.4 14 4.9 0 1.5 5.4 5.6 7.3 5.6 2.8 0 3.5 2.7 4.2 16 .3 7.4 1.1 15.8 1.7 18.6.6 2.9.8 6.3.4 7.7-1 4.1-10.8 14-17 17.1-6.1 3.1-16.3 4.6-19.9 2.8-1.2-.6-4.5-1.8-7.3-2.8-14.7-4.9-24.7-18.9-24.7-34.5 0-8 4.7-21.3 9.2-26.2 6.1-6.5 16.9-11 24.1-10 2.5.3 6.1.7 8 .8zm-35-.1c0 .2-.8 1-1.7 1.7-1.6 1.3-1.7 1.2-.4-.4 1.3-1.6 2.1-2.1 2.1-1.3zm236.8.7c-.2.6-.8 1-1.3 1s-1.1-.4-1.3-1c-.2-.6.4-1.1 1.3-1.1s1.5.5 1.3 1.1zm-146.7 3c2.3 2.3 2.2 5.7-.2 7.2-3.1 1.9-4.9.1-4.9-4.8 0-5.1 1.6-5.9 5.1-2.4zm256.4-.1c1.3 1.4 3.1 2 6.2 2 5.8 0 5.3 1.4-2 6.3l-5.7 3.8v7.6c0 6.9.3 8 2.6 10.4l2.5 2.6-3.7 3.1-3.7 3.1-2.3-2.2c-1.5-1.4-1.9-2.6-1.3-3.2 1.6-1.6 1-4.3-1.2-5-1.4-.5-1.8-1.2-1.4-2.3 1.6-3.7 1.6-5 .2-5.5-.8-.3-2.3.1-3.4.8-1.6 1.2-1.6 1.6-.4 3.6 1.2 2.1 1.1 2.5-1.8 5.1-5 4.4-6.5 3.5-3.6-2.2.9-1.7 1.2-3.1.8-3.1-.5-.1-2.4-.3-4.3-.4-1.9-.1-7.2-.7-11.8-1.4-4.6-.6-9.2-.9-10.3-.6-2.4.8-2.4 0 .2-3.7 2.6-3.6 6.3-5.2 8.9-3.8 1.4.7 2.5.7 3.8-.1 2.6-1.6 7.8-.3 6.3 1.5s.3 3.1 5 4c2.6.5 4 .2 4.8-.8 1.7-2.1.6-3.4-3.4-4.2-4.3-.8-4.5-2-.5-2.9 1.6-.4 3.3-1.2 3.7-1.9.5-.7 1.8-1.8 3.1-2.5 1.2-.6 2.2-1.9 2.2-2.8 0-2.2 4.9-7.3 7-7.3.9 0 2.5.9 3.5 2zM301 510.5c0 .6 2 3.8 4.4 7.1 3.8 5.3 9.2 9.4 12.3 9.4.4 0 2.5 1.1 4.5 2.5s4.3 2.5 5.1 2.5c2.6 0 7.5-3 8-4.9.3-1.3 2-2.4 4.6-3.1 3.1-.8 4.9-2.1 6.9-5 1.5-2.2 3-3.9 3.4-4 .8 0 .1 4.9-1.3 9.4-.5 1.6-.9 4-.9 5.3 0 1.5-1.2 3.5-3 5.1-1.7 1.5-3 3.6-3 5 0 1.2-.7 2.5-1.6 2.9-.9.3-1.3 1.2-.9 2.1.6 1.7-.7 6.4-3.9 13.7-1.2 2.7-2.7 6-3.2 7.2-.5 1.2-4 4.4-7.9 7.2-5.7 4.2-7.7 5.1-11.1 5.1-3.4 0-4.6-.5-6.2-2.7-1.1-1.5-2.4-2.3-3-1.9-1.9 1.1-1.4 3.1 1.3 5.6 3.3 3.1 3.2 4.3-1 6.3-5.3 2.5-6.4 5.7-3.7 11.1 1.6 3.3 2.9 4.7 5.6 5.6 2.4.8 3.7 2 4.5 4.1.9 2.7.8 3.1-1.2 3.8-1.8.7-2.9.2-6-2.8-5.1-4.8-8.4-11.4-9.6-19.2-1.9-12.1-3.4-41-2.8-52.7.4-6.4.4-12.7.1-14-1.1-3.9-2.9-1.8-3 3.4-.3 13.4-.7 15.1-1.5 5.9-1-12.8-1-24.5-.1-24.5.5 0 1.7.9 2.7 2 2.6 2.9 4.9 2.6 4.1-.4-.9-3.6 2.3-4 5.1-.7 1.3 1.4 2.3 3.1 2.3 3.6zm186.4-3.6c1.5 1.7 1.5 1.9.1 2.5-2.5.9-1.6 6.2 1 5.9 2.4-.2 9.5 3.6 9.5 5.1 0 1.2-2.4 2.9-7.3 5.4-3.3 1.6-3.1 3.7.4 3.7 3.8 0 4.6 2.1 4.1 9.9-.3 5.8-.1 7.4 1.2 8.5 3.5 2.9.6 13.1-3.6 13.1-.6 0-2 .8-3.1 1.7-2 1.8-2 1.7-1.3-2.4.3-2.3.2-5.3-.4-6.8-.7-1.8-.6-4 .1-6.8 2.4-9.2 2.3-9.6-.6-10.7-1.4-.5-3.9-1-5.4-1-1.5 0-3.6-.8-4.5-1.9-1.6-1.8-1.5-1.9 2.8-3 3.5-.9 4.7-1.7 5.2-3.5.3-1.4 1.2-2.7 2-3 1.7-.6 1.9-4.6.3-4.6-1.7 0-5.9-4.9-5.9-6.9s2.2-7.1 3.1-7.1c.3 0 1.4.8 2.3 1.9zm-440.8 1.8c-1 1-1.9-.5-1-1.8.6-1.1.8-1.1 1.2 0 .2.7.1 1.5-.2 1.8zm332.2 0c-.4 2.2-6.7 4.4-9.8 3.6-2-.5-1.8-.8 2.1-2.8 5.6-2.8 8.2-3.1 7.7-.8zM184.2 513c-.9 2.4-.9 2.4-2 .4-.8-1.6-.8-2.4 0-3.2 1.8-1.8 3 .1 2 2.8zm-144.4-1.8c-.3.7-1.3 1.3-2.3 1.3-1 0-2-.6-2.2-1.3-.3-.7.5-1.2 2.2-1.2 1.7 0 2.5.5 2.3 1.2zm138.5.2c.6 1.5-.1 2.6-1.5 2.6-.4 0-.8-.9-.8-2 0-2.3 1.5-2.7 2.3-.6zm256.4.3c1.2.2 2.4 1.5 2.7 2.7 1.2 4.7 8.6 5.1 8.6.5 0-2.7 1.8-3.1 6.5-1.5 3.7 1.3 4 1.7 3.7 4.8-.2 1.8-.8 5-1.3 7-.8 3.3-1.5 3.9-5.2 4.8-7.3 1.9-7.6 2.2-5.9 4.5 1.2 1.6 8 6.5 9.1 6.5.5 0-.1 1.1-1.4 2.4-1.6 1.6-3.1 2.2-4.5 1.9-2.5-.7-7.7 1.4-8.4 3.4-.6 1.4 5 9.3 6.6 9.3.5 0 1.1-.7 1.4-1.5.4-.8 1.2-1.5 1.9-1.5s2.2-1.1 3.2-2.6c1.3-1.7 2.4-2.3 3.6-1.8 2.1.8 2.3 2.4.3 2.4-1.4 0-10.6 10-10.6 11.4 0 .4 1.2.6 2.7.4 2.2-.2 4 1 9.6 6.4 3.8 3.8 7.2 6.8 7.7 6.8 1.7 0 2-3.4.4-5.8-1.5-2.3-1.5-2.5.1-1.9.9.4 3.2.7 5 .7 3.1 0 3.4.2 3.3 3.2 0 1.8-.7 4.6-1.5 6.1-1.3 2.6-1.2 3.2.6 6.3 2 3.4 1.9 6.4-.3 6.4-2.1 0-5.6-3.1-5.6-4.9 0-.9-1.7-3.3-3.7-5.3-2.9-2.8-4.8-3.8-7.8-4-3.4-.3-4-.7-4.3-2.8-.6-4.1-1.9-4.5-5.6-1.7-3.5 2.7-6 3.7-3.8 1.5s1.2-3.1-2.8-2.4c-3.2.5-4.6.2-7-1.6-2.3-1.6-4.2-2.1-8.2-2l-5.3.2 3-2.5c1.6-1.3 4.2-2.7 5.7-3 1.5-.4 3.8-1.5 5.1-2.5 2.4-1.9 2.5-1.9 4.1-.1 1.7 1.8 1.6 2-.3 2.6-2.8.9-1.7 2.5 1.6 2.5 5.1 0 8.7-6.1 4.2-7.3-1.1-.3-2.3-1.5-2.6-2.6-.6-2.4-2.3-2.7-4.2-.9-1.1 1.1-1.2.9-.7-.8.4-1.4 0-2.7-1.4-3.9-2.4-2.2-2.5-4.2-.4-6.6 1.4-1.6 1.4-2-.1-4.2-.9-1.4-2.8-3-4.3-3.6-1.5-.6-4.7-2.4-7.2-4s-5.6-3-6.9-3c-1.3-.1-2.2-.4-1.9-.7 1.2-1.1 7.5-1.3 10.7-.3 2.7.9 3.6.8 4.9-.4 1.3-1.3 1.3-1.9.2-3.2-1.1-1.3-1.1-2 0-4 1.7-3.3 0-5.3-5.2-6.1-4.2-.7-5.3-1.7-4.4-4.1.5-1.3 1.7-1.4 7.4-.8 3.7.3 7.7.9 8.9 1.2zm62.9-.2c2.4 1.8.7 1.9-2.6 0-1.6-.9-1.9-1.4-.9-1.5.8 0 2.4.7 3.5 1.5zm-449.6 3c0 .8-.7 1.5-1.5 1.5s-1.5-.7-1.5-1.5.7-1.5 1.5-1.5 1.5.7 1.5 1.5zm101 1.4c0 .5-1.1 1.6-2.5 2.5-2.4 1.6-2.5 1.5-2.5-.3 0-1.9 1.2-2.9 3.8-3 .6-.1 1.2.3 1.2.8zm29 4.2c0 2.2 1 2.5 2.8.7.6-.6 1.4-.9 1.7-.6.7.7-1.1 51.6-2.5 69.8-1.2 14.4-1.8 25.1-1.9 31.4l-.1 3.8-3.5-.6c-3.9-.8-4.5.2-1.5 2.9 2.6 2.4 2.5 4.7-.3 7.3l-2.4 2.2-1.8-2c-1.6-1.7-1.7-2.5-.7-5.7.6-2 1-3.8.8-4-.2-.2-1.4.6-2.8 1.7l-2.6 2-.5-2.1c-.3-1.2 0-3.1.8-4.3.7-1.1 1.6-4.8 2-8.1.3-3.3 1.7-13.7 3-23 1.3-9.4 2.6-21.5 3-27 .3-5.5.8-12 1-14.5.2-2.5.9-9.9 1.5-16.5s1.3-13 1.6-14.3c.5-2.7 2.4-2 2.4.9zm-135.5.9c.3.5.1 1-.4 1-.6 0-1.1-.5-1.1-1 0-.6.2-1 .4-1 .3 0 .8.4 1.1 1zm97.9 6.7c.8 5.4.7 9.3-.3 9.3-.9 0-4.1-10.4-4.1-13.4 0-3.3 3.7.1 4.4 4.1zm9.8-1.5c.6 2 .9 55.3.3 54.6-.3-.3-1-5-1.5-10.4s-1.7-17-2.6-25.6c-1.7-15.2-1.7-15.8.1-17.8 2.1-2.3 3.1-2.5 3.7-.8zm7.1 11.8c.3 4.1.2 9.1-.2 11-.6 2.7-.9 1.1-1.3-7-.5-9.3-.3-12.8.7-11.8.2.2.5 3.7.8 7.8zm-135.8-6c.3.5-.1 1-.9 1s-1.8-.5-2.1-1c-.3-.6.1-1 .9-1s1.8.4 2.1 1zm-12.2 2.5c-.7 2.1-1.3 1.9-1.3-.6 0-1.1.4-1.8 1-1.4.5.3.7 1.2.3 2zm453.1-1c.3.8 1.7 2 3.1 2.7 2 .9 2.8.8 4.4-.6 1.6-1.4 2-1.5 3-.2.7.8 3.4 2 6.2 2.7 5 1.3 6.1 2.5 3.3 3.6-1.1.4-1.4 1.3-1 3 .5 1.6 0 3-1.4 4.5-2.8 3-4.5 1.2-2.5-2.6 1.9-3.5 1.9-5.5.2-6.2-2.4-.9-10.9 1.6-13.9 4.1-3.6 3-5.2 2.4-3.3-1.2 1.2-2.4 1.2-3-.6-5.5-2.2-3-1.9-5.8.5-5.8.7 0 1.6.7 2 1.5zM43 534.9c0 1.2-2 2.5-2.7 1.8-.7-.7.6-2.7 1.8-2.7.5 0 .9.4.9.9zm-12.4 1.6c.3.8 1.5 1.7 2.6 2.1 6.3 2 7.2 8.1 1.8 11.2-1.7.9-3 2.3-3 3 0 1.5 5.8 5.2 8.2 5.2 2.8 0 3.3 2.2 1 4.1-1.2.9-2.2 2.4-2.2 3.3 0 1.2-.6 1.5-2.4 1-3.4-.8-14.3 1.4-20.2 4.2-5.5 2.6-8 2.9-10.4 1.4-2.3-1.4-.1-2.9 6.3-4.4 3.3-.8 6.1-.9 7.1-.4 1.9 1 5-3.1 4.1-5.5-1.3-3.2 1.9-3 4.7.3 2.6 3.2 2.9 3.3 4.5 1.7 1.6-1.6 1.6-1.8-.4-3.9-3-3.4-3.8-9-1.7-13.4 1.3-2.7 1.4-3.8.5-4.7-1-.9-1.8-.6-3.6 1.5-1.3 1.6-2.8 3.5-3.3 4.5-.9 1.5-1.3 1.5-5.8 0-4.8-1.5-5-1.5-7.2.6l-2.4 2.2-2.9-3.3c-3.1-3.4-3.5-6.8-.9-6.5.8.1 2.9.6 4.5 1.1 11 3.7 12.5 3.7 12.5.3 0-1 .7-2.4 1.5-3.1.8-.7 1.5-1.9 1.5-2.6 0-1.9 4.9-1.8 5.6.1zm110.4 3.7c0 1.3.3 3.3.6 4.5 1 3.8-1.4 2.6-3.1-1.4-1.2-2.9-1.3-3.8-.3-4.5 2.1-1.3 2.8-.9 2.8 1.4zm282.9.2l3.9 2.5-2 4c-2.3 4.8-5.5 5.8-11.3 3.7-7.3-2.6-9.5-3.9-9.5-5.8 0-1.4.8-1.8 3.8-1.9 2.2 0 5.1-1 7.2-2.4 1.9-1.3 3.6-2.4 3.8-2.4.1-.1 2 1 4.1 2.3zm-73.4 2.6c-.4 1.2-.9 1.9-1.2 1.7-.3-.3-.2-1.5.2-2.7.4-1.2.9-1.9 1.2-1.7.3.3.2 1.5-.2 2.7zm-.5 4.9c0 1.1.9 2.6 2 3.4 1.6 1.1 1.8 1.6.8 2.5-2.2 1.8-5.8-1.7-5.1-5.1.6-3.1 2.3-3.7 2.3-.8zm121-.5c0 .2.2 1.1.5 1.9.4.9-1.4 2.7-5.5 5.2-6.2 3.9-8.1 7.5-3.9 7.5 1.8 0 2 .4 1.4 3.2-.4 1.8-.9 3.5-1.1 3.7-.7.8-9.4-6.4-9.4-7.9 0-2 2.6-4.5 5.8-5.4 1.2-.4 2.2-1.3 2.2-2.1 0-.7 1.9-2.5 4.3-3.9 4-2.4 5.7-3.1 5.7-2.2zm-450.1 6.2c.7.6-3.4 8.3-4.5 8.4-2.1 0-11.4-3.1-11.4-3.9 0-.4 1.6-1.4 3.5-2.1 2-.8 4.1-2 4.7-2.7 1-1.2 6.3-1 7.7.3zm122.7 9.4c.5 7.1.4 9.2-.5 8.4-.7-.6-1.3-5-1.5-10.3-.4-11.9 1.1-10.5 2 1.9zm339.9-4.9c0 2.7-.4 3.4-2 3.4s-1.9-.5-1.6-3c.4-3.7 1-4.7 2.4-4.2.7.2 1.2 1.9 1.2 3.8zm-136.2 5.2c-2.1 2.2-2.5 1.7-1.7-2.2.6-2.8.8-3 2-1.4 1 1.5 1 2.1-.3 3.6zm-8.7-.6c-1.8 3.3-2.1 2.6-.6-1.3.6-1.5 1.3-2.4 1.6-2.1.3.3-.1 1.8-1 3.4zM420 560c0 .5-.2 1-.4 1-.3 0-.8-.5-1.1-1-.3-.6-.1-1 .4-1 .6 0 1.1.4 1.1 1zm-362.7 7.5c2.1 2.5 3.6 4.5 3.3 4.5-.3 0-3-.9-6.1-2.1l-5.5-2 1.8-2.4c.9-1.4 1.9-2.5 2.2-2.5.3 0 2.3 2 4.3 4.5zm302.2-.8c-.3.8-.5 3-.5 4.9 0 3-.2 3.3-1.8 2.5-2.6-1.4-6.9-.2-10.4 3-2.8 2.7-3 3.3-2.4 7.7.7 5.4-1.2 9.7-3.4 7.5-1.5-1.4.7-19 2.4-20.4.6-.4 2.6-2.1 4.5-3.7 2.6-2.2 4.4-2.9 7.8-2.9 3.4 0 4.3.4 3.8 1.4zm138.5 3.7c0 1.5-.3 1.6-1.5.6-.8-.7-1.5-2.4-1.5-3.8 0-2.5.1-2.5 1.5-.6.8 1 1.5 2.7 1.5 3.8zm-370 .6c1.3.8 1.3 1-.2 1-.9 0-2-.5-2.3-1-.8-1.3.5-1.3 2.5 0zm271.6.6c-.4 1 1.1 3.6 4.4 7.2l4.9 5.7-3.2.6c-4.6.9-8.1 2.4-9.7 4.4-.7.9-2.2 2.1-3.2 2.6-1.8 1-1.8.9-.3-2.8.9-2.1 1.5-4.9 1.4-6.3-.2-1.4.7-4.1 1.9-6 1.2-1.9 2.2-4.3 2.2-5.3 0-.9.5-1.7 1.1-1.7.6 0 .8.7.5 1.6zm-66.2 3.4c-.5 2.3-.3 3 1 3 .9 0 1.6-.4 1.6-.8 0-.5.6-1.7 1.4-2.7 1.6-2.3 1.8-4-1.4 14.5-1.1 6.3-2.4 13.2-3 15.2-2.1 7.5-13.6 21.8-17.5 21.8-1.8 0-1.9 1.2-.3 2.8.9.9.6 1.2-1.4 1.2-2.8 0-5.3 2.3-4.3 4 .8 1.3 4.6 1.3 7.9 0 3.9-1.4 3.4 1.5-.5 3.5-2.9 1.5-3 1.8-1.5 3.4.9 1 1.3 2.1 1 2.4-.4.4-.1 1.3.6 2.2 1.6 1.9 0 4-3.7 5-6.7 1.7-22.4-15.6-16.9-18.7 2.2-1.2 2-2.8-.3-2.8-1 0-2.9-.8-4.2-1.9-2.2-1.7-2.4-2.7-2.6-12.7-.2-6-.4-14.2-.6-18.2-.1-3.9.1-7.2.5-7.2.5 0 .8.7.8 1.5 0 4.2 5.3 14.2 10.3 19.4 3 3.1 6 7.3 6.8 9.4 1.7 4.9 4.4 4.7 4.4-.3 0-4.6 3-5.4 3.8-1 .4 1.6 1.1 3 1.6 3 1.6 0 3.3-4 2.8-6.1-.3-1.1.2-2.7 1.2-3.7.9-.9 2.3-3 2.9-4.6 1.1-2.5 1-3.1-.8-4.8-2.1-2-2.5-1.7-3.2 2.6-.2 1.1-.8 2.1-1.5 2.3-.7.3-.9-.3-.6-1.7.4-1.5.2-1.9-1-1.4-.9.3-2.3.1-3.2-.4-1.4-.7-1.1-1.2 1.9-3 3.2-1.9 3.6-2.6 3.6-6 0-2.5-.8-4.9-2.1-6.6-2.8-3.5-2.1-4.9 3.5-6.4 2.9-.8 6.3-2.7 8.9-5.2 2.3-2.2 4.3-4 4.4-4 .1 0 0 1.3-.3 3zm-188.8 3.7c-1.3 1.3-2.8-1.5-2-3.8l.7-2.4 1 2.8c.5 1.6.6 3.1.3 3.4zm269.1-4.6c.6.6 3.7.9 7.2.7 5.8-.3 6.2-.2 5.5 1.7-.4 1.1-.9 4.2-1.1 6.8-.4 3.9-.9 5-2.9 5.7-1.3.5-3.3 1.9-4.4 3-1.6 1.6-2.9 2-4.7 1.5-2.3-.5-2.4-.7-1-2.3.9-.9 2-3 2.6-4.5 1-2.6.8-3.3-2.9-7.4-2.2-2.5-4-5-4-5.4 0-1.3 4.4-1.1 5.7.2zm-339.2 3.2c6.3 1.8 13.5 6.5 13.5 8.8 0 .9-.6 2.2-1.4 2.8-1.1 1-1.6.8-2.1-.8-.8-2.6-6.7-4.6-9.3-3.2-1.7.9-2.3.6-3.7-1.7-1-1.5-2.9-4-4.4-5.6l-2.6-2.9 2.5.6c1.4.3 4.8 1.2 7.5 2zm292.5.2c0 2.2-2.7 8.5-3.7 8.5-1.5 0-.9-8.5.7-9.2 2.4-1.1 3-.9 3 .7zm-10.2.7c1.5 1.5 1.6 5.8.2 5.8-.5 0-1-.9-1-2 0-2.5-3.5-2.7-4.9-.3-.5 1-1.2 1.5-1.5 1.2-1.1-1 .4-3.6 2.7-4.7 2.9-1.4 3.1-1.4 4.5 0zM133 579.8c3.2 1.2 4.7 2.5 5.1 4.2 1.8 6.5 4 16.3 3.7 16.5-.2.2-2.5.5-5.3.6-4.8.3-5.1.2-6.7-3.1-.9-1.9-1.7-4.4-1.8-5.5 0-2.4-3.6-8.5-4.9-8.5-1.6 0-4.7 4.7-7.1 10.7-1.3 3.2-2.7 6.3-3.2 6.9-.4.6-4 1.5-7.8 1.8-3.8.4-7.2 1.1-7.5 1.6-.7 1.1 1.7 3.4 6.5 6.1 4.6 2.6 4.7 3.4 2 11.5-4.3 13-2 14.8 8.1 6.4 3.9-3.3 7.5-6 7.8-6 .4 0 4.3 2.9 8.6 6.5s8.1 6.5 8.6 6.5c2.1 0 1.8-2.7-1-11.1-1.7-5-3.1-9.7-3.1-10.4 0-.7 1.6-2.3 3.5-3.5 1.9-1.2 3.9-2.9 4.4-3.8.5-.9 1.2-1.4 1.5-1.1.8.8.9 3.1.8 19.1l-.2 14.7-4.4 3c-4.5 3.1-14.4 6.1-20.5 6.1-1.9 0-6.4-.9-10.2-2-11.3-3.4-21.4-14.4-23.8-26-3.6-17 5.1-33.8 20.9-40.6 6.9-2.9 19.1-3.2 26-.6zm-38 .2c0 .5-.4 1-1 1-.5 0-1-.5-1-1 0-.6.5-1 1-1 .6 0 1 .4 1 1zm394.7 2.4h7.1l-2.9 3.5c-3.5 4.3-3.6 5.7-.5 8.2 1.4 1.1 2.6 3.4 3 5.6.4 2.1.9 4.6 1.2 5.5.4 1.2 0 1.8-1 1.8-2.4 0-6.6-2.2-6.6-3.5 0-.7-.9-2-2-3s-2-2.6-2-3.6c0-2.6-3.4-4.3-5-2.4-.8 1-.8 1.9-.1 3.3.9 1.6.6 2.3-1.2 3.5-1.2.8-3 2.8-3.9 4.5-1.6 2.7-1.6 3.1-.2 4.3 1.7 1.4 1.4 1.7 6.4-5.1 1.5-2.1 2-2.2 3.4-1.1 1 .8 1.4 2.1 1.1 3.2-.4 1 .1 3.5 1.1 5.4 2 4.2 1.4 5.3-1.8 3.1-3.1-2.2-6-2-9.2.5-2.6 2.1-2.8 2.1-4.1.3-.8-1.1-1.1-3.1-.8-4.6.3-1.6 0-3.5-.7-4.3-1.5-1.8-.5-3.5 2-3.5 2.8 0 6-4.7 6-9 0-2-.3-4-.7-4.4-.4-.3-.8-2.7-.9-5.2-.1-4.5-.1-4.5 2.5-3.8 1.4.4 5.8.7 9.8.8zm-344.8 3.8c-.1 4.1-.1 4.2-1.1 1.5-.5-1.5-.7-3.4-.4-4.2 1-2.7 1.6-1.6 1.5 2.7zm163.4 1.5c-1.8.6-1.6 2.8.2 4.3 2.2 1.8 2 6-.4 6-2.1 0-5.1-4-5.1-6.9 0-1.9 4.9-5.3 6-4.3.3.3-.1.7-.7.9zm50.2-.8c.3.5.1 1.2-.5 1.6-.5.3-1-.1-1-.9 0-1.8.6-2.1 1.5-.7zm45.9 3.5c-.6 1.6-3.4 2.9-4.3 2-.6-.6 2.7-3.4 4.1-3.4.4 0 .5.6.2 1.4zm37.8 1c5 .1 5.8.4 6.8 2.5 1.4 3 .9 3.4-2.6 2-3.4-1.3-17.7-1.7-21.6-.6-4.4 1.2-3.2-.6 2-3 2.9-1.4 5.6-2 7.2-1.6 1.4.3 5.1.6 8.2.7zm-317.1 8.1c.3 1.6-.2 2.1-2.5 2.3-4.1.5-4.6-.7-2.4-5.8l2-4.5 1.3 3c.7 1.6 1.5 3.9 1.6 5zm237.5 1.3c1.6-.3 3.7-.9 4.7-1.3 1.4-.6 1.7-.2 1.7 2.4 0 2.2.9 4 2.7 5.7l2.8 2.6-2.7-.7c-6.2-1.6-14 4.1-15.4 11.3-.8 3.8-1.6 4-2.9.9-.7-1.6-1.8-2.2-4.2-2.2-2.5 0-2.9-.3-2.3-1.5.5-.9.5-2.2 0-3-1-1.7-.3-3.3 1.1-2.4.5.3 2.2-.2 3.7-1.2 1.8-1.2 2.3-1.3 1.5-.3-1.8 2.2.1 4.7 2.4 3.3 2.9-1.8 7.6-10.5 6.3-11.8-.7-.7-1.5-.5-2.7.7-1.6 1.5-1.8 1.4-3-2.1-1.8-5.4-1.6-6.1 1-2.8 1.9 2.3 2.9 2.8 5.3 2.4zm-203.9-1.6c-.3.8-.6.5-.6-.6-.1-1.1.2-1.7.5-1.3.3.3.4 1.2.1 1.9zm-76.7-.5c0 .5-.5 1.5-1 2.3-.9 1.3-1.1 1.3-2 0-1.5-2.2-1.2-3 1-3 1.1 0 2 .3 2 .7zm70.5 6.1c-1 2.6-2.2-.3-1.7-4.1l.5-3.2 1 2.8c.5 1.5.6 3.5.2 4.5zm257.8-5.8c2.3 0 2.2 1.7-.2 2.5-2 .6-6.1-1.3-6.1-2.9 0-.4 1-.6 2.3-.2 1.2.3 3 .6 4 .6zm47.7 0c0 .5-.7 1-1.5 1s-1.5-.5-1.5-1c0-.6.7-1 1.5-1s1.5.4 1.5 1zm-116 .5c0 .3-.9 1.5-2 2.7-2 2.1-2 2.1-2 .2 0-1.2.3-2.4.7-2.7.8-.8 3.3-.9 3.3-.2zm104.3 2.2c7.1 2.2 17.8 11.1 21.7 18 2.8 4.9 3.3 7 3.8 14.5.2 4.7.1 9.5-.3 10.5s-.9 3.2-1.1 5c-.8 8.4-10 19.5-19.7 23.9-5.4 2.5-7.4 2.8-16.2 2.9-9 0-10.6-.3-16.3-2.9-6.7-3.1-14.8-10.8-18.1-17.5-7.4-14.4-4.9-31.6 6.2-43.7 10.3-11.3 25.3-15.3 40-10.7zm18.7-1c-.1 1.8-1.9 3.5-2.9 2.8-.9-.5-.7-1.1.6-2.1 2.1-1.6 2.3-1.6 2.3-.7zm-113.7 1.5c.6 1.7-1 5.8-2.3 5.8-.5 0-1-1.6-1-3.5 0-3.5 2.2-5 3.3-2.3zm40.9 6.5c-.6 1-.8 3.1-.5 4.6.8 4.2-.5 3.2-1.7-1.3-.6-2.2-2-4.4-3-5-2.8-1.5-2.5-3.2.3-2.5 1.6.4 2.8 0 3.8-1.1 1.3-1.6 1.4-1.5 1.7.9.2 1.4-.1 3.4-.6 4.4zM161 607.6c0 1.4-.4 2.2-1 1.9-.5-.3-1-1.7-1-3.1 0-1.4.4-2.2 1-1.9.6.3 1 1.7 1 3.1zm242-1.6c0 .5-.2 1-.4 1-.3 0-.8-.5-1.1-1-.3-.6-.1-1 .4-1 .6 0 1.1.4 1.1 1zm-274.1 3c.9 2.7.7 3.3-1.7 5.5-3.8 3.5-5.7 3.9-8.9 1.8-1.5-1-3-1.6-3.3-1.3-.3.3-.6-.9-.8-2.6-.5-4.6 1.9-6.4 8.3-6.4 5 0 5.4.2 6.4 3zm8.1-2.1c0 .5-.7 1.2-1.6 1.5-2.2.9-2.4.8-2.4-.9 0-.8.9-1.5 2-1.5s2 .4 2 .9zm-27.2 1.3c-.6 1.8-2.8 2.1-2.8.4 0-.9.7-1.6 1.6-1.6.9 0 1.4.5 1.2 1.2zm44.9 13c1.9 14.2 1.9 19.1.4 30.2-1.4 10.6-2.7 13.7-3.5 8.6-1.1-7-1.4-17.2-.5-20.3.6-2.1.5-3.3-.1-3.5-1.1-.4-1.4-26.4-.3-27.6 1.5-1.5 2.7 1.9 4 12.6zm228.3-5.6c1.1 1.2-2.1 3.9-5.7 4.9-4.9 1.2-7.3 3.1-7.3 5.7 0 2.3 4.8 6.7 7.3 6.8 2 0 2.3 3.2.5 4.8-.7.6-2.6.8-4.1.5-2.1-.4-2.6-1-2.2-2.3.4-1.1-.4-2.9-2-4.6-1.4-1.5-2.5-2.8-2.5-2.9 0-1.8 3.5-7.7 5.1-8.5 1.3-.7 1.8-1.7 1.4-2.7-.3-.9 0-2 .7-2.5 1.2-.8 7.7-.2 8.8.8zm-16.3 3.2c-1.5 1.5-2.7 3.5-2.7 4.3 0 .8-.7 2.4-1.5 3.5-1.5 1.8-1.6 1.7-1-1.6 1.2-6.7 2.5-9 5.3-9h2.6l-2.7 2.8zM117 620.6c0 .6-1.6 2.4-3.6 3.9l-3.7 2.8.7-3.9c1-5.3 2.2-6.6 4.7-5.1 1 .6 1.9 1.7 1.9 2.3zm16.2 1.7c2.1 5.6.9 6.1-4 1.6-3.3-2.9-3.3-3.1-1.6-5 2.4-2.7 3.6-2 5.6 3.4zm216.1 4.7c.9 1.1 2.3 2 3.1 2 .8 0 2.3 1.8 3.4 3.9 2 3.8 2 3.9.2 4.4-1.2.3-2.9-.6-4.6-2.4-1.5-1.6-3.8-2.9-5.1-2.9-2 0-2.3-.3-1.7-2.8 1.2-4.9 2-5.3 4.7-2.2zm-9.4 4.4c1 1.2.8 1.7-.8 2.6-3.7 1.9-9-.8-6.4-3.3 1.2-1.2 6-.7 7.2.7zm-265.1.5c.9.5 2.6 1.2 3.6 1.6 1.8.5 1.8.6.1 1.9-1.1.8-1.6 2-1.2 3 .4.9.2 1.6-.3 1.6-.6 0-1-.6-1-1.4 0-.8-1-2.3-2.3-3.3-1.3-1-2.2-2.4-1.9-3.1.4-1.4.7-1.5 3-.3zm93.5 7.6c3.5 2.2 3.9 4 2.2 8.2-1.8 4.3-1.8 4.3-.1 4.3 2.1 0 2.8-1.6 3.5-7.8.6-5.7 2.7-8.1 3.3-4 .2 1.3 0 3.6-.3 5.3-.9 3.5-1.6 8.3-2.8 18.5-.5 4.1-1.9 15.7-3.2 25.7l-2.3 18.3h-3.8c-2.9 0-4.1.6-5.4 2.5-2.3 3.5-3.7 3.2-3-.8.3-1.7 1.2-7.3 2-12.2.8-5 2.1-10.6 2.9-12.5.8-1.9 1.8-6.5 2.1-10.1.3-3.6 1.2-8.6 2-11 2-5.6 2-6.9 0-6.9-1.8 0-4.1 5.2-5.6 12.8-1.2 6.2-2.8 9.2-2.8 5.1 0-1.3.7-6.9 1.5-12.4.7-5.5 1.9-14 2.5-18.8 1.4-11.4 1.9-12.8 3.6-8.9.7 1.7 2.4 3.8 3.7 4.7zm197.6-4.6c1.5 2.3 1.4 2.3-.9 1.6-2.8-.8-4.2-2.4-3.3-3.8.8-1.2 2.5-.4 4.2 2.2zm-279.8 1.9c-.7.2-1.9.1-2.9-.3-1.4-.5-1.4-.7-.2-1.5.9-.5 2-.4 2.8.3 1 .8 1.1 1.2.3 1.5zm-77.8 3.6c2.8 2.5 3.4 3.6 2.5 4.3-4.3 3.3-7.8 1.4-7.8-4.3 0-1.9.3-3.4.8-3.4.4.1 2.4 1.6 4.5 3.4zm315.2-1.4c-.3.5-1.1 1-1.6 1-.6 0-.7-.5-.4-1 .3-.6 1.1-1 1.6-1 .6 0 .7.4.4 1zm49.6 5c11.5 3.6 19.9 13 22.5 25.3 3 14.4-3.1 27.8-16.2 35.7-5.6 3.4-6.1 3.5-15.8 3.5-8.7 0-10.7-.3-14.6-2.4-8-4.1-12.7-8.7-16.2-15.9-2.9-5.9-3.3-7.6-3.3-14.7.1-15.6 8.9-27.4 23.8-32 6.1-2 12.6-1.8 19.8.5zm-39.9.7c2.3 2.1 2.3 3.5-.1 5-2.5 1.6-6.1 9.2-6.1 13.1 0 1.7-.4 3.4-1 3.7-.5.3-1 2.4-1 4.6 0 2.7-.4 3.9-1.4 3.9-1 0-1.8-2.2-2.6-7.3-.6-3.9-1.6-8.3-2.1-9.6-.8-2-.6-2.8 1.5-4.8 1.4-1.3 2.6-3 2.6-3.8 0-1.2 6.2-6.2 7.9-6.4.3-.1 1.3.6 2.3 1.6zm-152.1 8.4l-1.1 3.4.5-3.4c.3-1.8.6-4.8.7-6.5l.1-3.1.4 3.1c.2 1.8-.1 4.7-.6 6.5zM90.6 649c7.9 3.9 15.3 11.1 19 18.5 2.6 5.4 2.9 7 2.9 16 0 9.3-.2 10.5-3.3 16.7-4.7 9.6-13.3 17.2-22.5 20-18.9 5.7-38.1-2.7-47.2-20.8-2.7-5.3-3-6.8-3-15.4 0-8.6.3-10.1 3.2-16.2 5.1-10.8 14.9-19 26-21.8 6.7-1.6 18.1-.3 24.9 3zm-52 .5c6 0 8 .3 7.7 1.2-.7 1.7-6.5 2.6-11.7 1.9-3.9-.6-4.6-.4-5.6 1.5-1 1.8-1.4 1.9-2.5.8-.8-.8-1.7-2.6-2-4.1-.7-2.7-.6-2.8 2.6-2 1.9.4 7.1.7 11.5.7zm106.5 2.2c0 .5.2 3.4.4 6.6.5 6 1.5 8.8 4.6 12.2 1.7 1.9 1.7 2.5.2 11-.8 4.9-1.9 9.4-2.3 9.9-.4.4-2.7.5-5 .1-3.3-.6-4-1-3.4-2.3 2.9-6.8.8-10.1-4.9-7.7-2.4 1-3.8 1.1-4.2.4-.4-.5-1.8-1.4-3.2-2-3.4-1.3-2.8-4.9 1-6.2 2.3-.7 3.1-.6 4.2.9 1.3 1.8 1.5 1.8 4.4.1 2.5-1.5 3.3-1.6 5.1-.5 1.1.7 1.8 1.9 1.5 2.6-1.2 3.2 3.3 6.9 5 4.1 1.1-1.6-.4-5.9-2-5.9-1 0-1.2-.9-.8-3.4.8-5.4-.3-8.6-3.1-8.6-3.3 0-4.7-2.1-4-5.9.8-3.7 6.2-8.2 6.5-5.4zm-22 10.5c2.8 3.1 2.8 3.3 1 3.6-3.2.5-7.6-2.1-7.9-4.6-.5-3.4 3.3-2.8 6.9 1zM24 662c0 .5-.2 1-.4 1-.3 0-.8-.5-1.1-1-.3-.6-.1-1 .4-1 .6 0 1.1.4 1.1 1zm10 3c0 .5-.2 1-.4 1-.3 0-.8-.5-1.1-1-.3-.6-.1-1 .4-1 .6 0 1.1.4 1.1 1zm-3 1c0 .5-.5 1-1.1 1-.5 0-.7-.5-.4-1 .3-.6.8-1 1.1-1 .2 0 .4.4.4 1zm108.9.6c.3.3-.1 1-.7 1.6-.9.9-1.7.9-3.4.1-1.3-.7-3.6-1.6-5.3-2.2-2.5-.9-1.9-.9 3-.4 3.3.3 6.2.7 6.4.9zm266.1 4.6c3.2 2.3 4 4.8 1.5 4.8-1.8 0-6.5-4.3-6.5-6 0-1.6 1.8-1.2 5 1.2zm49 7.8c0 .6-1.2 1.5-2.7 2.1-1.5.6-3.4 1.5-4.1 2.2-.9.7-4.5 1-9.6.8-5.4-.1-9.5.3-12.5 1.3-5.2 1.9-5.9 2-4.3.4.7-.7 1.2-2 1.2-3.1 0-1.5.4-1.7 2.3-1 4.2 1.5 17.9.3 24.2-2 4.9-1.9 5.5-2 5.5-.7zm20.4 1.8c.2.4.2 2.6-.1 4.8-.4 3.2-1.1 4.3-3.4 5.3-3.8 1.7-3.7 2.6.9 4.8 2.4 1.2 4.3 3.1 5.5 5.6 1.9 4.1 4.9 4.8 5.5 1.2.5-2.8 3.1-4.6 5.9-3.9 1.3.4 3 .1 3.9-.6 2.3-2 3.7.2 3.7 5.4-.1 6.4-1.1 7.5-3.7 4.3l-2.2-2.7-3.2 2.3c-2.7 1.8-3.1 2.7-2.6 4.9 1 4.9-3.9 3.2-6.3-2.1-2.7-6-8.9-13.5-13.8-16.5-2.6-1.7-4.2-3.3-3.7-3.8 1-1 4.2 0 4.2 1.3 0 .5.5.9 1 .9.6 0 1-.7 1-1.5 0-.7.6-1.8 1.4-2.2 1.8-1.1 2.9-5 1.6-5.8-.6-.3-.8-1.1-.5-1.6.7-1.1 4.2-1.2 4.9-.1zm-63.8 3c.6.4 1.7 1.8 2.4 3.1 1.3 2.4.2 4-2.7 4.1-.6 0-1.9 1-2.8 2.2-1.6 2.3-1.6 2.3-3 .4-2.6-3.5-1.3-8.4 2.5-9.9 2.1-.8 2.4-.8 3.6.1zm-288 6.3c-3.9 3.1-5.6 2.5-5.6-2v-3.8l4 1.9 4 2-2.4 1.9zm296.1-2.5c-.3.3-1.2.4-1.9.1-.8-.3-.5-.6.6-.6 1.1-.1 1.7.2 1.3.5zm34.3 5.6c6.7 3 12 7.5 16.9 14.3 9.1 12.3 9.1 31.8 0 45-7.2 10.6-17.1 16.6-28.6 17.3-7.2.5-7.3.4-10.5-3-13-13.8-12.9-13.7-21.1-16.5-9-3.2-9.7-4.1-11.7-14.4-3.8-19.1 10.1-39.9 29.7-44.9 6.9-1.7 19.2-.7 25.3 2.2zm-312 3.6c5.3.9 7.4 3.6 4.5 5.8-2.2 1.7-4.9 1.5-5.1-.4-.1-.6-.2-1.7-.3-2.3-.1-.7-1.3-.9-3.6-.5-3.3.6-3.5.5-3.5-1.9 0-2.1.4-2.5 1.9-2 1 .3 3.8.9 6.1 1.3zm-18 .9c0 .3-.8 1.5-1.7 2.5-2.4 2.6-.6 5.3 3.5 5.4 3.9 0 4.7.7 2.7 2.4-.8.7-1.5 2.3-1.5 3.5 0 2.1-.4 2.3-6.2 2.3-6 .1-6.2 0-4-1.5 2.6-1.9 3-5.3.5-5.3-3.2.1-5.6 2.7-5.1 5.5.4 1.9.1 2.5-1.3 2.5-2.7 0-2.4-3.1.9-9 1.6-2.9 3.4-5 4.4-5 1 0 2.2-.9 2.8-2 1-1.8 5-2.9 5-1.3zm-90.2 3.5c-.3.7-1.1 1.3-1.8 1.3s-1.5-.6-1.7-1.3c-.3-.7.4-1.2 1.7-1.2 1.3 0 2 .5 1.8 1.2zm366.5.4c.4.4-.9 3.4-2.7 6.8-1.9 3.3-3.9 8.4-4.6 11.3-.8 3.4-2.1 6-4.1 7.7-3.4 3.1-3.5 3.6-.9 6.9 2.9 3.6 1.3 3.9-4.5.7-3.6-1.9-5.3-3.6-6.1-5.9-1.7-5.1-3.9-6.7-7.4-5.4-2.2.8-3.8.8-6.4-.1-4.5-1.6-6-3.1-2.1-2.2 6 1.5 7.5 1 14.2-4.4 5.9-4.8 9.3-6.2 9.3-4 0 2.1-3.1 7-4.4 7-.7 0-1.9.6-2.5 1.3-.8 1.1-.6 1.8 1 3.3 2 1.8 2.1 1.8 3.4.1.7-1 2.1-1.7 3.1-1.5 1.3.2 1.9-.3 2-1.7.1-1.1.8-3.5 1.7-5.2 1.1-2 1.5-4.3 1.1-6.1-.4-1.9-.1-3.3.8-4.1 6-5 7.7-5.9 9.1-4.5zM167 715.5c0 5.7-.8 7-4 6-4.8-1.5-4.5-9.6.4-11.5 3.1-1.2 3.6-.4 3.6 5.5zm-27-4.6c0 .6-.4 1.3-1 1.6-.5.3-1-.1-1-.9 0-.9.5-1.6 1-1.6.6 0 1 .4 1 .9zM31.4 714c2.1.1 2.1.1-.3 2-1.3 1.1-2.9 2-3.6 2-.7 0-3.8 1.1-6.9 2.5-7 3.1-7.8 3.1-6.7.3.5-1.3 2.1-2.6 4-3 1.7-.5 3.7-1.8 4.4-2.9.9-1.5 1.9-1.9 4.1-1.5 1.6.3 3.8.6 5 .6zm114.6.9c0 1.2-2 2.5-2.7 1.8-.7-.7.6-2.7 1.8-2.7.5 0 .9.4.9.9zm12.9 8c1.3 2.6 2.1 5.5 1.9 6.2-.6 1.7 1.8 6.9 3.2 6.9.6 0 .8-2.2.4-5.6-.6-5.1-.5-5.6 1.2-5.2 2.2.4 2.2-1.1.4 28.8-1.3 22.3-1.4 22.7-3.5 21-1-.8-3.5-1.1-7.1-.8l-5.6.5.7-9.1c.4-5 .9-10.2 1-11.6.1-1.4.8-8.8 1.4-16.5 1.3-15.3 1.9-19.5 2.9-19.5.4 0 1.8 2.2 3.1 4.9zm-21.9.1c9.1 4.6 10 5.6 10 11.3 0 2.9-.3 6.8-.6 8.7l-.6 3.6-6.6-.4c-3.7-.2-7-.7-7.5-1.1-.4-.4-1.6-3.8-2.6-7.5s-2.4-7.3-3-7.9c-2-2-4.5.6-7.5 8.1l-2.8 7.2h-8.3c-6.1 0-8.6.4-9.5 1.5-1.6 2-.4 3.4 6.3 7.6 2.9 1.8 5.4 3.4 5.6 3.5.2.2-1.3 4.6-3.4 10-3.3 8.4-3.5 9.8-2.3 11 1.3 1.3 2.6.7 10.3-4.6 8.3-5.6 9-5.9 10.9-4.5 8.5 6.1 17.6 9.6 16.4 6.2-.3-.6-1.8-4.9-3.4-9.5l-2.9-8.3 5-4.4c2.8-2.4 5.1-3.9 5.3-3.4.2.5-.1 4.8-.7 9.6-.6 4.9-1.1 12.7-1.1 17.5v8.8l-4.1 2.1c-13.6 6.9-30.1 5-40.7-4.5-13.6-12.4-16.9-31.7-7.5-45.3 5.2-7.6 12.7-13.9 19.3-16.3 7.5-2.7 19.7-2.2 26 1zm-44.2 3.9c-3.8 4.3-4.5 4.7-5.9 3.5-2-1.8-2.8-1.8-4.9.1-1 .9-2.5 1.3-3.4.9-4-1.5-.9-3.9 8.3-6.3 4-1.1 7.5-2.2 7.8-2.5.4-.3 1-.6 1.5-.6.6 0-1 2.2-3.4 4.9zm-86 2.8l-2.2 2.4-.8-2.2c-1.1-2.8-.3-3.7 2.7-3.1l2.6.5-2.3 2.4zm482.8.3c1.9 0 2.4.5 2.4 2.6 0 2.7-.1 2.7-5.2.2-2.9-1.4-4-4.5-1.2-3.4.9.3 2.7.6 4 .6zm-364.1 12.2c.6 2.5.5 2.8-1.9 2.8-2.9 0-3.1-.6-1.6-4.6 1.2-3.1 2.5-2.4 3.5 1.8zm366-1.3c.3.5-.7 1.1-2.2 1.3-2 .2-2.8.9-2.8 2.3 0 1.7.8 2.1 5.5 2.5l5.5.5v7c0 6.4-.2 7-2.1 7.1-1.7.1-2.1-.5-2.1-2.9 0-4.1-4.5-7.7-9.5-7.7-4.2 0-4.2 0-2.7-5.3.7-2.6 1.6-3.7 2.9-3.7 1 0 2.2-.5 2.5-1 .8-1.3 4.2-1.3 5-.1zm-97.7 1.9c.6 1.8-1.5 1.4-2.2-.4-.4-1-.1-1.4.6-1.2.6.2 1.4 1 1.6 1.6zm-257.1 8.5c-.6 2-2.7 1.9-2.7-.2 0-1.4.5-1.9 1.5-1.4.9.3 1.4 1 1.2 1.6zm-23.7-.5c0 1.9-2.3 3.1-4.2 2.1-2.7-1.5-2.2-2.9 1.2-2.9 1.7 0 3 .4 3 .8zm16.6 2.9c.6 3.3.4 3.9-2.7 6.4-1.9 1.6-3.6 2.9-3.9 2.9-.3 0-2.3-1.5-4.4-3.3-3.6-3.1-3.8-3.5-2.6-5.8 1.8-3.4 2.8-3.9 8.2-3.9 4.6 0 4.7.1 5.4 3.7zm-12.2 9.4c1.4 1.1 2.4 2.4 2.1 2.9-.6 1-9.7 6.2-10.1 5.8-.5-.6 3.8-10.8 4.5-10.8.5 0 2 .9 3.5 2.1zM134 766c.7 2.2 1 4.3.7 4.6-.6.7-7.7-3.3-7.7-4.4 0-1.1 3.3-4.2 4.5-4.2.6 0 1.8 1.8 2.5 4zm37.7 1.2c-.3.7-.5.2-.5-1.2s.2-1.9.5-1.3c.2.7.2 1.9 0 2.5zm-75 21.5c2.3 1.8 6 4 8.2 4.9 3.8 1.5 5.5 3.4 3 3.4-.6 0-2.4 1.1-4.1 2.5-3.5 3-3.9 3-6.7.6-1.2-1.1-3-1.7-4.1-1.4-1.3.4-2 0-2-1 0-.8-.6-1.7-1.4-2-1.3-.5-10.6 1.3-15.1 2.9-1.9.7-1.8.6.3-1.8 1.2-1.3 2.2-2.9 2.2-3.4 0-.6 1.6-2.5 3.5-4.4 3.7-3.6 4.4-5.7 2.1-6.6-1-.4-.9-1.3.7-4.4l1.9-4 3.7 5.8c2.1 3.1 5.6 7.1 7.8 8.9zm62-10.5c2.6 2.5 3 6.3.7 7.2-2.2.8-2 .9-4.9-2.8-4.2-5.5-.8-9.1 4.2-4.4zm6.3 10.3c0 .8-.4 1.5-1 1.5-.5 0-1-.7-1-1.5s.5-1.5 1-1.5c.6 0 1 .7 1 1.5zm-154.7 4.7c2.3 1.8 7.5 4.8 11.5 6.6 3.9 1.9 7.2 3.8 7.2 4.3s1.1 1.4 2.5 1.9c3.9 1.5 2.9 3-1.9 3-3 0-4.6-.5-5-1.5-.3-1-1.9-1.5-4.6-1.5-2.2 0-4.9-.6-6-1.2-1.5-1-2.5-1-3.8-.2-1.3.9-1.7 2.4-1.6 7.2.1 5.3-.2 6.1-2 6.6-2.4.6-3.8-1.1-2.8-3.3.4-.9.7-5.8.6-10.9-.1-8.2.1-9 1.3-7.2 1.7 2.4 4.1 2.6 5 .5.7-2.1-2.7-5.7-4.8-5.2-1.2.3-1.6 0-1.2-.9.7-1.9.7-1.9 5.6 1.8zm377.1 5.1c3.1 4 3.3 6.3.7 7.2-2.6.8-6.5-1.2-9-4.6l-2.1-2.8 2.8-1.4c4-2.2 4.9-2 7.6 1.6zm-261.8-.1c.4.5-1.3.8-3.9.8-2.5 0-4.8-.3-5-.8-.3-.4 1.4-.7 3.8-.7s4.7.3 5.1.7zm-96.6.2c0 .3-.4.8-1 1.1-.5.3-1 .1-1-.4 0-.6.5-1.1 1-1.1.6 0 1 .2 1 .4zm448.8 10.8c1.6 1.6 1.5 5.8 0 5.8-.7 0-2.3.3-3.5.6-1.8.5-2.5 0-3.4-2-1.1-2.3-1-2.8.7-4.1 2.3-1.8 4.6-1.9 6.2-.3zm-310.3 4.7c-1.2 1.1-19.3 6.3-20.6 5.9-.5-.2.3-1.6 1.7-3.2 2.3-2.4 3.2-2.7 6.3-2.3 2 .3 5.2.2 7.1-.2 4.9-1.2 6.6-1.3 5.5-.2zm319.8 22.8c-.7.2-1.9.2-2.5 0-.7-.3-.2-.5 1.2-.5s1.9.2 1.3.5zm-12.8 10.2c.9 1.6-1.4 2.3-4.8 1.5l-3.2-.8 3-.7c4.4-1 4.3-1 5 0zm14.4 1c.9.6.1 1-2.5 1.4-2.5.3-4.4 0-5.4-.9-1.2-1.2-.9-1.4 2.5-1.4 2.2 0 4.6.4 5.4.9zm6.4 4.8c-.7.2-2.1.2-3 0-1-.3-.4-.5 1.2-.5 1.7 0 2.4.2 1.8.5zm-7.5 1c-1 .2-2.6.2-3.5 0-1-.3-.2-.5 1.7-.5s2.7.2 1.8.5zm2.4 4.6c-5.3.7-7.6.7-8.5-.2-.8-.8 1-1.1 7.4-1l8.4.2-7.3 1zm-16.9.4c-1.3.2-3.3.2-4.5 0-1.3-.2-.3-.4 2.2-.4s3.5.2 2.3.4zm22.7 4.1c0 .5-.9 1.7-1.9 2.6-1.6 1.5-2.8 1.6-7.3.9-5.5-.8-6.6-2.3-2.6-3.5 3.4-.9 11.8-.9 11.8 0z"/><path d="M456 202.1c0 .5.5.7 1 .4.6-.3 1-.8 1-1.1 0-.2-.4-.4-1-.4-.5 0-1 .5-1 1.1zM452 207c0 .5.5 1 1.1 1 .5 0 .7-.5.4-1-.3-.6-.8-1-1.1-1-.2 0-.4.4-.4 1zM248.2 200.2c-1.9 1.9-1.4 2.5 2.2 3.2 1.9.4 4.6 1.6 6.1 2.8 1.7 1.3 3 1.7 3.6 1.1 1.6-1.6-.1-4.3-4.2-6.3-4.4-2.3-6-2.5-7.7-.8zM247.4 208.2c-.4.6-.2 1.4.5 1.6.7.2 2.2 1.5 3.5 2.8 2.5 2.7 5 2.4 6.7-.7.9-1.7.5-2.2-2.5-3.4-4.3-1.8-7.2-1.9-8.2-.3zM257.5 228c-.4.7-.3 1.6.3 2.2 1.4 1.4 4.5.2 4-1.5-.6-1.6-3.4-2.1-4.3-.7zM248.5 233c-1 1.6.2 2.8 4 4 2.7.9 3.4 1.6 3.2 3.3-.2 1.7.4 2.3 2.6 2.5 1.5.2 2.7-.1 2.7-.6s1.3-.7 2.9-.4c1.6.2 3.2-.1 3.6-.7.9-1.6-3.6-6.1-6.1-6.1-1.2 0-2.4-.7-2.8-1.5-.6-1.7-9.1-2.1-10.1-.5zM275.2 298.2c-4.4 4.4 4.1 13.8 9.8 10.8 2.4-1.3 2.6-5 .5-9-1.3-2.5-2.2-3-5.3-3-2.1 0-4.3.5-5 1.2zm7.8 4.8c1.2 2.3.6 4-1.5 4-1.7 0-3.8-3.6-3-5 1-1.7 3.4-1.1 4.5 1zM290.7 304.4c-3.5 3.4-6.4 11.3-5.4 14.1 1 2.4 3.7 1.8 3.7-.8 0-3.7 2.9-11.3 5.1-13.3 1-.9 1.9-2.1 1.9-2.6 0-1.7-2-.7-5.3 2.6zM251.7 320.9c-4 4.8-6.5 11.1-7.6 19.4-1.1 7.7-.7 10.7 1 9 .4-.4 1.7-5 2.8-10 1.8-8.3 5.7-17.3 8.2-18.9 1.4-.8 1.1-2.4-.5-2.4-.8 0-2.5 1.3-3.9 2.9zM265.5 327.5c-3.2 3.1-2.9 6.4 1.1 10.6 1.8 1.9 2.5 3.5 2.2 5.5-.3 2.7-.5 2.9-4.4 2.6-2.4-.2-4.5.1-4.9.8-.8 1.2 2.1 5 3.9 5 .6 0 .5-.5-.2-1.2-1.6-1.6-1.5-3.8.1-3.8s4 3.8 3.2 5c-.4.6.3 1 1.4 1 1.1 0 2.4.7 2.9 1.6.8 1.5 1 1.5 1.5 0 .4-.9 1.7-1.6 3-1.6 2.9 0 6.7-3.9 6.7-6.8 0-3-2.2-2.7-6 .8-4.9 4.5-5.7 4-4.4-2.8.4-2.1 1.7-3.8 4-5.1 2.8-1.7 3.4-2.6 3.4-5.4 0-7.9-7.8-11.4-13.5-6.2zm7.9 1.4c3.5 3.9-.1 9.3-3.9 6.1-1.5-1.3-2-6.1-.8-7.3 1.2-1.2 2.9-.7 4.7 1.2zm4.6 21.2c-.7 1.1-1.4 1.8-1.7 1.5-.8-.8.5-3.6 1.7-3.6.7 0 .7.6 0 2.1zM189 363.1c0 2.6 5.6 8.3 7.1 7.3.9-.5.8-1-.3-1.8-.8-.6-2.3-2.6-3.3-4.4-2.2-3.7-3.5-4.1-3.5-1.1zM215.2 365.3c-3 3.1-2.9 8.1.1 11 1.3 1.2 2.9 3.7 3.5 5.5 1.2 3.6 1 3.8-3.8 4.4-3.1.4-3.7 2.8-1.3 5.5 2.5 2.9 11.3 3.9 11.3 1.4 0-1 1.2-2.8 2.6-4.2 7-6.5 6.2-13.5-1-7.8-5 3.9-6.3-.1-1.6-5.1 3.5-3.8 3.8-6.7.9-10.4-2.7-3.4-7.7-3.6-10.7-.3zm7 2.4c2.1 1.9 2.4 6.3.4 6.3-.8 0-2.1.3-3 .6-2.3.9-4.2-3.7-2.7-6.5 1.4-2.5 2.8-2.7 5.3-.4zm-4.7 22.4c1.2 1.9-.5 2.3-2.2.6-1.6-1.6-1.6-1.7-.1-1.7.9 0 2 .5 2.3 1.1zM141.7 394c-3.5 1.1-5.9 2.9-5.1 4.1.3.5 2.9.9 5.7.9 4 0 6.7.8 11.6 3.5 3.5 1.9 6.8 3.2 7.2 2.9 1.8-1.1.9-5.4-1.4-6.9-2.2-1.4-13.4-5.6-14.6-5.4-.3 0-1.9.5-3.4.9zM131.7 403.6c-4.3 2.3-2.8 3.8 3.7 3.9 4.1.1 6-.3 6.3-1.3 1.2-3.1-5.6-4.9-10-2.6zM250.2 409.3c-3.4 3.6-2.9 7.9 1.3 11.6 2 1.7 4.4 3.1 5.4 3.1 2 0 3.1 1.9 3.1 5 0 2.7-1.6 3.3-4.3 1.5-2.3-1.4-5.7-1.2-5.7.5 0 1.4 3.5 3.8 6 4.2 1.8.2 2.6 1 2.8 2.8.2 1.4.8 2.9 1.2 3.4 1.3 1.3 11-7.2 11-9.6 0-1.7-.6-1.9-4.2-1.6-4.2.3-4.3.2-4.9-3.2-.3-2.3 0-4.5 1.2-6.5 3.1-5.5 3.1-7.1.3-10.4-2.1-2.6-3.3-3.1-6.8-3.1-3.2 0-4.8.6-6.4 2.3zm8.2 1.6c.9 1 1.8 3.1 1.9 4.7.2 2.5-.2 2.9-2.5 3.2-3.3.4-4.8-2-4.1-6.6.6-3.6 2.2-4.1 4.7-1.3zM277.5 425.2c-2 9.1-2.3 11.4-1.5 12.2 1.2 1.2 3-3.5 3.7-9.7.4-3.1.2-4.7-.5-4.7s-1.4 1-1.7 2.2zM274.6 442.2c-.3 1.7-1.1 8.3-1.6 14.6-.6 6.3-1.3 11.8-1.6 12.3-.6 1.1-.6 58.9.1 63.4.2 1.6.7 13.8 1 27 .3 13.2.7 33.8 1 45.8.6 24.3 3 68.5 4.5 82.8.9 8.4 3.5 20 9 40.2 2.1 7.7 5.9 15.7 7.7 16.4 3 1.2 3.1-1.1.3-9-1.6-4.5-3.6-11.4-4.5-15.2-.9-3.9-2.5-9.9-3.6-13.5-1-3.6-2.3-12.8-2.9-20.5-.6-7.7-1.3-15.9-1.5-18.3-.2-2.8 0-4.2.8-4.2 2.3 0 3.5 1.5 4.7 5.6 1.1 3.6 1 4.5-1 8.3-2.7 5.3-1.7 6.6 1.8 2.4 1.5-1.7 3.7-3.4 4.9-3.8 1.9-.5 2.3-.1 2.9 2.2.3 1.5.9 4.1 1.4 5.8 2 7.3 3.2 15.6 2.8 18.6-.3 1.8.1 4.4.8 5.8.8 1.4 1.4 3.9 1.4 5.5 0 2.9 1.5 9.4 4.6 20.2.7 2.8 1.4 5.8 1.4 6.8 0 .9 1.3 2.2 2.9 2.9 4.6 1.9 10.7 11.8 14.1 22.7 3.5 11.1 4.1 12.3 6.9 12.5 1.1.1 2.9.9 3.9 1.8s4.7 3.1 8 4.7c7.1 3.4 9.1 6.1 11.7 15.6 1.5 5.5 2.6 7.3 7.5 12.3 7.1 7.1 16.3 12.2 18.2 10.3 1.4-1.5 1.7-1.2-7.6-8.2-2.6-1.9-6-4.5-7.5-5.7-1.7-1.4-4.3-5.8-7-12-4.5-10.4-9.9-16.8-15-17.9-1.4-.2-3.9-1.1-5.4-1.9-1.6-.8-3.5-1.5-4.3-1.5-1.8 0-4.5-5.6-7.2-14.6-1.2-4-3.8-9.4-5.7-12-2-2.7-4.2-6.4-5-8.2-.9-1.7-2.1-3.2-2.9-3.2-.8 0-1.6-1.2-1.9-2.8-.3-1.5-1.5-6.1-2.6-10.2-1.2-4.1-3-12.9-4.2-19.5-1.1-6.6-3.2-16.7-4.6-22.4-1.7-7.3-2.4-12.4-2.1-17 .3-5.8.1-6.6-1.4-6.3-1.4.2-1.8-.4-1.8-2.8 0-2.3-1.2-4.4-4.6-8-5.1-5.5-6.8-6-8.4-3-1.9 3.6-2.8 1.3-3.4-8.8-.4-5.3-1.1-14.7-1.6-20.7-1.6-18-2-28.5-2.5-58.9-.3-15.8-.8-29.2-1.1-29.7-1-1.7-.7-63.3.4-68.9 1.7-8.5 2.4-19.7 1.4-20.4-.5-.3-1.2.9-1.6 2.6zm14.8 210.9c2.9 3.4 3.4 7 1.2 8.8-3.5 3-8.9-4.7-6.8-9.4 1.5-3.3 2.5-3.1 5.6.6zM296 665c0 1.9-.7 3.3-2 4-3.2 1.7-3.8-1.6-.9-4.5 3-3 2.9-3 2.9.5zm-1.2 8.1c-.2.6-.8 1-1.3 1s-1.1-.4-1.3-1c-.2-.6.4-1.1 1.3-1.1s1.5.5 1.3 1.1zM219.3 449c-2.7 1.6-3.3 2.6-3.3 5.6 0 2.1.8 4.6 2 6.1 2.4 3.1 3.7 9 2.1 10.6-.8.8-.6 1.6.6 2.9 1.3 1.4 1.6 4 1.7 11.6 0 8.1-1 58.4-1.3 60.3-.1.4-1.1.9-2.3 1.2-1.8.5-1.9.8-.8 2.2 1 1.2 1 1.9.2 2.7-1.6 1.6-5.9-2.5-6.7-6.3-.5-2.3-.1-3.3 2.1-5.3 3.4-2.8 3.8-7.9 1-12.1-1.6-2.4-2.2-2.7-5.8-2.2-5.3.7-8 3.4-8.1 8.2-.1 4 2.8 7.5 6.2 7.5 1.1 0 2 1.4 2.7 4.2.6 2.4 1.5 5.2 1.9 6.2.7 1.7.5 1.8-1.6 1.1-1.3-.4-4.2-1-6.3-1.2-3.8-.5-3.9-.4-2.3 1.1.9 1 1.7 2.1 1.7 2.6 0 1.3 5.4 4 8 4 1.1 0 2 .4 2 1 0 2.3 2.8.8 3.4-1.8.3-1.5 1.7-3.5 3.1-4.5l2.5-1.8v2.8c0 1.5.5 7.1 1.1 12.3.5 5.2 1.4 17.1 1.9 26.5.5 9.3 1.3 20.6 1.7 25 .4 4.4.7 11.8.6 16.5-.6 21.4 4.4 64.8 9.3 81.5 2.3 8 5.8 14 8.2 14.3 2.8.4 2.8-1.5.2-4.3-2.7-2.8-5.5-11-7.4-21.5-.8-4.7-2.2-11.4-3-15-2-9.1-4.7-38.6-5.1-57-.3-8.5-.8-22.3-1.3-30.5-.5-8.3-.7-15.5-.5-16.2.4-1-.9-12.1-2.3-19.3-.9-4.4-1.4-58-.7-72.8l.6-14.3 2.9.6c4.1.9 8.4-1.1 9.9-4.6 1.7-4.3.1-5.7-4.7-4-4.2 1.5-5 1-5.9-4.6-.6-3.8-.4-4.3 2.4-6.4 2.5-1.8 3.1-3 3.1-6 0-7.9-6.7-11.2-13.7-6.9zm6.7 2.9c1.5 2.8 1.2 7.7-.4 9-1.6 1.4-2.8-.1-4-5.1-1.2-5.1 2.1-8.1 4.4-3.9zm10 24.6c0 2-3.9 4-5.3 2.6-.7-.7-.6-1.5.3-2.6 1.6-1.9 5-2 5 0zm-25.7 53.7c2.4 2 3.1 6.2 1.2 7.8-2.1 1.7-6.5.3-7.5-2.5-1.7-4.8 2.4-8.2 6.3-5.3zm-1.3 26.9c0 .5-.6.9-1.4.9-1.5 0-2.8-2.4-1.9-3.4.7-.7 3.3 1.3 3.3 2.5z"/><path d="M217 475.1c0 .5.5.7 1 .4.6-.3 1-.8 1-1.1 0-.2-.4-.4-1-.4-.5 0-1 .5-1 1.1zM248.5 514.5c-4.8 4.7-2.7 11.6 4.1 13.4 2.5.6 2.9 1.3 3.2 5l.3 4.3-3.3-.7c-1.8-.4-3.7-.8-4.3-.9-1.3-.1-.9 5.2.6 7 .6.8 2.2 1.4 3.5 1.4 1.4 0 3.4.6 4.5 1.2 1.9 1.2 2.5.8 6.5-3.5 6.3-7 5.5-9.9-1.6-6.2-2.9 1.5-3 1.5-3-.8 0-1.3-.5-2.8-1.2-3.5-.9-.9-.5-1.6 1.5-3.2 2.2-1.7 2.7-3 2.7-6.4 0-8.7-7.8-12.9-13.5-7.1zm8.4 3.1c2.6 3.3 2.6 4.6.3 6.7-1.6 1.5-2 1.5-4 .1-5.5-3.8-5-8.3 1-9.3.4 0 1.6 1.1 2.7 2.5zm-2.9 21.3c.7 1.4.7 2.2 0 2.6-1.3.8-4-1.3-4-3.1 0-2.1 2.8-1.7 4 .5zM240.5 580.3c-4 4-4.5 7.7-1.5 10.7 1.1 1.1 3.4 2.3 5 2.7 1.7.3 3 1.1 3 1.7 0 .6.3 2.1.6 3.3.6 2.1.3 2.3-3.6 2.3-2.9 0-4 .4-3.7 1.2.2.8 1.7 1.2 3.5 1 1.6-.2 3.3.2 3.7.7.4.7-.5 1.1-2.2 1.2-2.5 0-2.6.1-.8.9 1.1.5 3.2.9 4.7.9 1.5.1 3.1.9 3.7 1.8.8 1.5 1.2 1.4 3.8-1.4 1.6-1.6 3.9-3.3 5.1-3.7 2.7-.9 4.8-5.4 3.3-6.9-.6-.6-1.2-.1-1.6 1.6-.7 2.7-3.2 5.4-4.1 4.4-.3-.3 0-1.5.6-2.7 1.8-3.5.1-3.8-2.6-.5l-2.5 3-2.4-2.8c-3.1-3.5-3.2-6.1-.1-9.8 2.9-3.4 2.4-7.3-1.5-10-4.8-3.4-6.7-3.3-10.4.4zm6.2.5c1.8 1.2 3.5 6.4 2.4 7.5-1.3 1.3-7.8-1-8.5-3-.7-1.7 2-5.3 3.8-5.3.6 0 1.6.4 2.3.8zM197.2 611.6c-1.7 1.2-2.2 2.5-2.2 5.8 0 7.9 5.1 11.4 12.4 8.6 2.3-.8 2.6-1.5 2.6-5.6 0-6.7-2.5-10.4-7-10.4-2 0-4.6.7-5.8 1.6zm8 2.1c3.4 4 2.1 10.3-2.1 10.3-4 0-6.4-6.9-3.6-10 2.2-2.5 3.7-2.5 5.7-.3zM250.2 642c-2.3 1-5.2 6.4-5.2 9.7 0 2.2 5.6 8.3 7.6 8.3s6.4 4.5 6.4 6.5c0 1.1-1 1.5-3.8 1.5-4.6 0-6.5 1.5-5.1 4.2.5 1 1.6 1.8 2.4 1.8 1.3 0 1.3-.3.3-2-.7-1-.9-2.2-.6-2.6 1.3-1.2 6 .7 6.5 2.6.3 1.1 1.2 2 2 2s1.9 1.3 2.4 3c1.7 4.7 3.2 3.7 2.6-1.6-.5-4.8.4-6.4 4.8-8.9 1.5-.9 1.7-1.8 1.1-4.8-.8-4.3-2.3-4.7-5.6-1.2-2.7 2.8-4.2 3.1-6 1.1-.9-1.2-.7-2.1.9-4.3 3.5-4.9 3.1-9.5-1-13.4-3.2-3-5.7-3.5-9.7-1.9zm6.6 2.9c2 1.2 3.2 7.9 2 10.7-1.4 3.1-3.9 3-7.7-.2-3.8-3.2-4-6.5-.5-9.3 2.9-2.3 4.2-2.5 6.2-1.2zm9.8 20.9c-1.5 1.5-1.6 1.5-1.6-.4 0-2.8 2.4-5.2 2.8-2.8.2.9-.3 2.4-1.2 3.2zM238.6 670.3c-2.1 3.2-3.1 13.3-1.6 15.2 1.6 1.9 3 1 3-2 0-5.3 1.2-5.7 3-.8 7.6 20.9 9.2 24.9 10.7 26.5 2 2.3 3.9.9 2.4-1.8-1.8-3.2-9.8-24.7-10.6-28.4-1.9-9.9-4.3-12.8-6.9-8.7zM198.5 690.4c-1.9 2.9-3.5 8.2-3.5 11.7 0 2.7 3.7 6.9 6.1 6.9 2.2 0 3.9 2.1 3.9 4.7 0 1.7-.6 2.3-2.3 2.3-2.3 0-6.7 2.5-6.7 3.8 0 1.5 8 4.2 10.8 3.6 1.7-.4 3.2-.1 3.6.5.4.6 1.4 1.1 2.2 1.1.8 0 1.3-.4.9-.9-.3-.5.3-2.4 1.4-4.3 2.1-3.6 1.4-7.8-1.2-7.8-.8 0-2.1 1-3 2.2-1.7 2.5-3 1.9-4.2-1.9-.5-1.8-.1-2.5 1.8-3.2 1.3-.5 3.4-2.2 4.6-3.8 3.2-4 2.2-7.8-3.5-13.1-5.3-4.8-8.6-5.4-10.9-1.8zm6 1.2c1.9.8 5.5 7.5 5.5 10.3 0 3.5-7.1 5.6-9.8 2.9-1.6-1.6-1.5-6.1.2-10.3 1.6-3.8 1.6-3.8 4.1-2.9zm9.5 24.3c0 2.1-1.3 4.1-2.6 4.1-1.4 0-1.9-3.1-.7-4.3 1-1 3.3-.8 3.3.2zm-8.5 3.2c1 1.5-.1 2.2-2.4 1.4-1.2-.3-1.9-1.1-1.6-1.6.8-1.2 3.2-1.1 4 .2z"/><path d="M239.6 690.6c-1.1 2.8-.7 6.2 1.4 11.6 2.6 6.8 6.4 11.7 8 10.2.8-.8.5-1.9-1.4-4-3.2-3.9-6-12.6-5.2-16.4.4-2.2.2-3-.8-3-.8 0-1.7.7-2 1.6zM323.7 710.8c-7.6.7-9.1 10-2.5 15.4 6.5 5.4 7.8 6.8 7.8 8.3 0 .9-.9 1.5-2.2 1.6-1.3 0-1.7.3-1 .6 1.9.8 1.4 3.3-.7 3.3-2.6 0-3.6-1.7-2-3.6 1.1-1.4 1-1.5-1.1-1.2-6.1.8-2.2 6 5.1 6.8 5 .5 5.4.7 5.7 3.3.5 4 2.2 2.2 2.2-2.4 0-3.2.4-3.9 1.9-3.9 2.6 0 3.5-4.2 1.7-8.5-1.6-3.7-4-3.9-5.1-.4-.4 1-1 1.9-1.5 1.9-2.1 0-2-2.4.1-6.4 2.6-5 2.2-8.3-1.9-12.4-2.2-2.2-3.4-2.7-6.5-2.4zm4.8 5.2c1.4 2.7 1.4 3.3 0 6-.9 1.6-2.2 3-2.9 3-2 0-6.8-5.9-6-7.3 3.1-5.4 6.6-6.1 8.9-1.7zm7.6 18.3c-.8.8-1.1.5-1.1-.9 0-2.7 1.4-4.1 1.8-1.9.2.9-.1 2.2-.7 2.8zM250.8 721.5c-1 1 1.1 10.6 3 13.3 1.1 1.5 3.3 5.6 5 9.2 1.7 3.6 4.9 8.7 7.1 11.5 2.2 2.7 6.5 8.6 9.6 13 7.6 11 7.5 10.9 12 13.7 6 3.7 16.4 6.7 28.8 8.1 2 .3 4.4 1 5.1 1.6 2.9 2.4 2.8-1.1 0-4.1-4.4-4.5-7.8-5.9-21.2-8.4-13.8-2.5-14.2-2.7-21-12.4-2.6-3.6-6.7-9.2-9.2-12.5-2.6-3.3-5.3-7.6-6-9.5-.7-1.9-2.1-4.4-3-5.5-3.5-4.1-6.4-10.1-7-13.9-.5-3.6-1.8-5.4-3.2-4.1z"/><path d="M274.2 722.8l-2.3.3 2.5 2c3.2 2.5 5.2 8.4 3.6 10.4-2.8 3.4-7-.2-8-6.8l-.7-4.2-1.2 3c-1.9 4.5-.3 8.6 4.3 11 4.1 2.2 7.4 7.9 5.7 9.9-.7.8-.4 1.6 1 2.4 1 .7 1.9 1.9 1.9 2.7 0 1.9 4.5 1.3 4.6-.6.1-.8 1.1-3.5 2.3-6.2 1.3-2.7 2-5.6 1.6-6.7-1-3.1-4.2-2.4-6.1 1.2-1.7 3.3-1.6 3.3.3 1.5 2.6-2.3 3.3-2.2 3.3.5 0 4.5-1.4 5.1-4.8 2.1-3.4-2.9-4.1-6.3-1.7-8.3 1.8-1.5 2.9-7.1 2-9.9-.8-2.6-5.2-4.8-8.3-4.3zM363.3 750.9c-1.8 1.5-2 2.3-1.3 5.5.9 3.9 3.2 7.1 6.3 8.8 2.8 1.5 12.7-1.9 12.7-4.4 0-3-3.9-9.8-5.6-9.8-1.2 0-1.3.4-.4 2 .6 1.2 1 3.5.8 5.3-.3 2.9-.7 3.2-3.9 3.5-3 .3-4.1-.2-5.8-2.4-2.6-3.4-2.7-6-.1-7.4 1.1-.6 2-1.5 2-2 0-1.6-2.3-1.1-4.7.9zM272.6 750.9c-.5.7-.3 1.8.3 2.4 1.4 1.4 2 .6 1.1-1.7-.5-1.5-.9-1.6-1.4-.7zM304.3 754.6c-2.1 2.2-2.5 3.2-2 6.6.7 5.1 1.4 5.8 7.4 6.9 4.6.9 7.3 2.9 7.3 5.6 0 .9-.9 1.1-3 .6-4.3-.8-3.7.5 1.3 2.7 5.7 2.6 6.1 2.5 8-1.5 1.6-3.4 1.6-3.5-.4-3.2-1.3.1-2.9-.8-4.2-2.5-1.9-2.5-1.9-2.9-.4-5.1 1.1-1.6 1.4-3.7 1-6.5-.5-3.4-1-4.3-3.6-5.1-5-1.8-8.6-1.3-11.4 1.5zm7.7.6c3.4 2.5 3.9 6 1.4 9.6-2 2.9-2.8 2.8-5.9-.5-2.9-3.2-3.1-5.4-.9-8.8 2-3 1.8-3 5.4-.3zM389.5 757.2c-.2.7-.5 2.2-.7 3.3-.3 1.6-1.1 2-3.8 1.8l-3.5-.3 2.4 2c1.3 1.1 2.2 2.2 2 2.3-.2.2-1.6 1.1-3.1 2-3.1 1.9-3.6 4.2-1.2 5.1 3 1.2 6.1.6 8-1.5 1.3-1.4 2.5-1.8 4.2-1.4 2.1.5 2.3.3 1.6-1.2-.4-1-.9-4-.9-6.6-.1-3-.7-5.2-1.6-5.8-1.9-1.2-2.9-1.1-3.4.3zm2.8 4.1c-.3.5-.9.3-1.4-.4-.4-.7-.5-1.7-.2-2.2.3-.5.9-.3 1.4.4.4.7.5 1.7.2 2.2zm-4.3 8.6c0 1.2-2 2.5-2.7 1.8-.7-.7.6-2.7 1.8-2.7.5 0 .9.4.9.9zM235.8 758.6c-.6.5-.2 6.5.7 10.9.7 3.3 4.3 6.5 7.4 6.5 2.8 0 6.1 2.6 6.1 4.8 0 .7-1.3 1.2-2.9 1.2-4 0-4.8 1.6-1.9 4 2 1.7 10.8 4.4 11.6 3.6.1-.2-.2-1.5-.7-2.9-1.1-2.8-.1-7.9 1.7-8.5 1.8-.6 2.6 2.6 1.2 4.3-.7.9-1 1.8-.7 2.1.9.9 3.9-4.3 3.5-6.2-.5-2.7-2.3-2.7-5.6.1-1.6 1.4-3.2 2.5-3.5 2.5-.2 0-1-1.4-1.7-3.1-1-2.2-1-3.3-.1-4.2.6-.6 1.1-2.8 1.1-4.9 0-2.9-.7-4.5-2.6-6.3-3.3-3-5.4-2.1-2.4 1 2.8 3 2.4 7.5-.9 9.1-1.3.7-2.9 1-3.5.8-2-.8-4.8-7-4.4-10 .2-2.4.7-2.9 2.8-2.7 1.8.2 2.1 0 1-.6-2.4-1.4-5.6-2.2-6.2-1.5zM196.5 763c-6.1 4-6.1 9.5 0 15.4 5.1 5 5.8 7.6 2.1 7.6-5.5 0-7.2 2.3-3.8 5.2 2.2 1.9 6 2.9 6.8 1.7.9-1.5 3.7-1 6.4 1.1 3 2.3 4 2.5 4 .6 0-.8 1.2-2.8 2.6-4.5 3-3.6 3.2-10.3.2-10.9-2.1-.4-5.1 3-5.8 6.5-.8 4-2.8 3.9-4.7-.3-1.7-3.5-1.7-3.7.1-4.8 4.7-2.8 5.8-4.3 5.9-7.8.1-3.8-2.4-7.8-5-7.8-1.6 0-1.6.3-.2 5.1 2.1 6.9-3.1 9-7.8 3.2-3-3.7-2.9-4.7 1.1-8 1.9-1.5 3.2-3.1 3-3.5-.8-1.2-1.6-1-4.9 1.2zm18.2 19.6c.7 1.8-1.2 6.4-2.7 6.4-1.1 0-1.4-6.3-.3-7.3 1.1-1.2 2.3-.8 3 .9zm-14.6 6.4c.5 0 .9.4.9 1 0 1.6-2.6 1.2-4.1-.7-1.2-1.5-1.2-1.6.4-1 1 .4 2.3.7 2.8.7zM425 782.5c-1.2 3.1-.4 7.3 1.9 10.4 1.3 1.6 3.1 2.5 6.5 2.8 6 .7 8.6-1.3 8.6-6.8 0-5.2-4.7-8.9-11.4-8.9-4 0-4.8.3-5.6 2.5zm10.6 2.6c2.6 2.4 3.6 6.5 2 7.8-.7.5-2.8.1-5.5-1.3-3.3-1.5-4.7-2.9-5.2-5-.5-1.6-.6-3.4-.2-3.9.8-1.4 6.4.1 8.9 2.4zM323.1 795.4c-2.9 4.6-2.6 7 1.1 10.1 2.6 2.2 3.8 2.5 6.5 2 6.1-1.1 9.4 1.5 5.8 4.5-2 1.6-1.9 4.6.1 5.4 3.2 1.2 5.3.5 7.4-2.4 1.2-1.7 2.7-3 3.4-3 .8 0 1.3-1.2 1.3-2.8.1-1.5.4-4.6.8-6.8.5-2.9.4-4.4-.5-4.9-1.6-1-6 3.8-6 6.6 0 1-.7 1.9-1.5 1.9-1.7 0-3.9-3.6-3-5 .8-1.4-2.2-6.8-4.4-8-1.1-.5-3.5-1-5.5-1-2.8 0-3.8.6-5.5 3.4zm8.4.2c2.2 2.3 1.6 7.8-.9 8.3-3.6.6-6.2-5.9-3.4-8.7 1.6-1.6 2.3-1.5 4.3.4zm10.3 18.6c-.7 1.9-3.8 2.2-3.8.4 0-1 .9-1.6 2.1-1.6 1.2 0 1.9.5 1.7 1.2zM449.2 795.3c-1.2.7-2.9 2.3-3.8 3.5-1.2 1.8-2.2 2.2-4.4 1.7-3.9-.8-9 3.5-7.4 6.2 1.5 2.4 5.9 2.8 9 .8 3-1.9 3.7-1.5 7 3.7 1.9 2.9 2.9 3.7 3.7 2.9.8-.8.4-2.4-1.2-6l-2.3-4.9 2.2-3c1.3-1.7 2-3.8 1.7-4.6-.8-1.9-1.5-1.9-4.5-.3zm1.4 3.6c-.8 1.3-3.6 1.5-3.6.3 0-.4.5-1.3 1.2-2 1.4-1.4 3.4 0 2.4 1.7zm-9.6 6.6c0 1.5-4.3 1.2-4.8-.3-.3-1 .4-1.3 2.2-1 1.5.2 2.6.7 2.6 1.3zM444.1 336.4c-1 1.2-.8 1.9.9 3.6 1.7 1.7 2.4 1.9 3.6.9 2.1-1.7 1.3-5.3-1.2-5.7-1.1-.2-2.6.4-3.3 1.2zM469.2 341.3c-1.5 1.7-.6 2.7 2.5 2.7 1.8 0 2.4-.5 2.1-1.7-.4-2.2-3.1-2.8-4.6-1zM347.3 360.6c-1.1 2.8 6.8 7.7 9 5.5.7-.7 0-1.9-2.3-4.1-3.6-3.4-5.8-3.8-6.7-1.4zM57.2 391.2c-1.7 1.7-1.5 4.8.4 5.5.8.3 2.2-.1 3.1-.9 1.2-1.2 1.3-2 .4-3.7-1.3-2.4-2.2-2.6-3.9-.9zM19.7 457.3c-.7 1.9 2.6 8.2 4.3 8.2 1.9 0 1.6-4-.5-7.2-1.7-2.6-3-2.9-3.8-1zM121 430.5c-1.6 2-1.1 2.4 3.4 3.2 4.1.7 4.8-.8 1.4-3.1-2.8-2-3.2-2-4.8-.1zM469.2 442.1c-4 3-5.2 5.2-3.3 6.3 1.3.9 10.5-5.6 10.9-7.7.5-2.7-2.9-2.1-7.6 1.4zM27.5 492.9c-.9 1.5 2.3 4 6 4.7 6.8 1.2 7.7-2.6 1-4.4-5.4-1.4-6.2-1.5-7-.3zM28.4 499.1c-.8 1.4 1.1 3.3 2.5 2.5.6-.4 1.1-1.4 1.1-2.2 0-1.6-2.6-1.9-3.6-.3zM437.1 499.4c-1.4 1.6-.9 4.6.7 4.6.5 0 1.5-.7 2.2-1.6 1.1-1.2 1.1-1.8-.2-3-1.3-1.3-1.6-1.3-2.7 0zM84.2 511.2c-1.1 1.8-2.5 5-3.2 7.1l-1.2 3.8-8-.2c-8.3-.2-9.7.5-9.8 4.3 0 1.4 3.4 4.2 9.2 7.3 2.4 1.3 2.3 3-1.1 12.6-4.3 12.1-3.2 12.7 8.5 4.3 4.3-3.1 8.4-5.8 9-6.1 1.8-.7 5 1.2 12.6 7.3 3.7 3 7.1 5.4 7.7 5.4 2.7 0 1.2-6.1-3.3-14-4.5-7.8-3.5-10 6.4-14.8 2.3-1.1 3.5-2.4 3.5-3.7 0-1.8-.8-2-9.4-2.5l-9.4-.5-1.9-4c-4-8.3-4.4-9-6-9.3-.9-.2-2.4 1.1-3.6 3zm5.5 7.8c1.3 3.4.7 4.2-2.5 3.3-2.4-.6-2.5-.7-1.6-4.1.9-3.1 2.8-2.8 4.1.8zm-13.1 8.1c1.3 2.1-1.4 3.4-4.1 1.9-1.4-.7-2.5-1.7-2.5-2.2 0-1.2 5.8-1 6.6.3zm17.9 2.9c1.8 3.5 1.5 4.5-2.5 6.5-2.4 1.2-3 1.3-4 0-.6-.8-2.7-1.9-4.6-2.5-3.6-1.2-4-2-2.4-5.1.9-1.5 2.2-1.9 6.5-1.9 5.1 0 5.6.2 7 3zm8.5-1.5c-.7.8-1.9 1.5-2.6 1.5-.8 0-1.4-.7-1.4-1.5 0-1 1-1.5 2.6-1.5 2.2 0 2.5.2 1.4 1.5zm-21 10c1.7.9 3 1.9 3 2.4 0 .7-4.2 3.9-9.7 7.4-2.3 1.4-2.2-1 .2-6.1 1.3-2.9 2.7-5.2 3-5.2.3 0 1.9.7 3.5 1.5zm17.3 3c1.9 4 1.6 4.2-2.4 1.8-3-1.8-3.8-3.8-1.6-4.6 2.1-.9 2.3-.8 4 2.8zM395.6 513c-3.6 3.2-4.5 5.3-2.6 6.5 1.4.9 10.2-6.3 9.7-7.9-.7-2.2-3.6-1.7-7.1 1.4zM294.6 515.5c-1.7 4.6-.5 9.3 4.5 17.5 6.5 10.7 8 12.7 13.2 16.4 4.7 3.4 5.7 4.5 5.7 6.4 0 1-.7.9-2.9-.4-3.8-2.2-8.3-.7-7.4 2.4.5 1.9 6.1 5.2 8.8 5.2.8 0 1.5.4 1.5.8 0 .5.6 1.7 1.4 2.7 2.1 2.9 4.6.3 4.6-4.7 0-2.8.7-4.6 2.5-6.3 1.3-1.4 2.8-2.5 3.3-2.5 1.3 0 6.3-8 5.6-9.1-.9-1.6-4.6-1-8.9 1.5-2.7 1.6-4.6 2.2-5.5 1.6-1.1-.7-1-1.2.8-2.7 1.3-1 2.5-3.4 2.8-5.4.5-2.8.1-4.1-2.1-6.7-3.7-4.4-8.1-4.4-13-.1-2.1 1.8-4 2.8-4.4 2.3-.5-.5-2.5-3.1-4.6-5.8-3.2-4.3-3.6-5.6-3.3-9.4.3-4.5-1.3-6.9-2.6-3.7zm23.3 20.8c1.9 2.2 2 2.5.6 3.7-2.1 1.7-6.5-.2-6.5-2.8 0-3.9 2.7-4.3 5.9-.9zM447.2 518.1c-3.4 2-9.5 1.8-10.8-.2-.3-.5-1.4-.9-2.5-.9-2.9 0-2 3.2 1.4 4.8 2.3 1.1 2.7 1.9 2.7 5.3 0 3.8-.1 3.9-3.2 3.7-4.7-.4-4.4 2.4.3 3.5 3.6.8 3.7 1 3.2 4.6-.3 2.4-.1 4.1.7 4.6 2.2 1.3 3.4-1.4 3.6-8.3.2-9.4.7-10.5 6.4-13.6 4.9-2.7 6.7-5.7 3.3-5.5-1 0-3.3.9-5.1 2zM481.5 586.1c-.8 1.2 3.3 5.9 5.1 5.9 2.7 0 2.7-2.4 0-4.7-3-2.5-4.2-2.8-5.1-1.2zM432.2 608.7c-.6 1.6-1.4 4.4-1.8 6.3-.3 1.9-1.5 5.9-2.6 8.9l-2 5.4-9.4-.5c-7.1-.4-9.8-.2-11.4.9-2.4 1.7-1.8 3 1.9 4.7 1.4.6 5.2 2.6 8.3 4.4l5.7 3.3-1.9 5.2c-1 2.9-2.4 6.5-3.1 8.1-1.2 2.5-1.1 3 .5 4.2 1.6 1.1 2.2 1 4.5-.7 5.6-4.4 13.5-9.9 14.1-9.9.4 0 5.5 2.8 11.4 6.1 10.3 5.9 13.2 6.7 11 3.1-3.6-5.9-8.4-17.1-8.4-19.5 0-1.6 5.9-6.6 10.8-9.1 3.8-1.9 4.6-5.2 1-4.1-1.3.3-5.6.9-9.6 1.2l-7.2.6-4-8.7c-2.2-4.7-4-9.5-4-10.6 0-2.9-2.6-2.4-3.8.7zm5.1 13c1.6 4.8.8 6.3-3.5 6.3-3.1 0-3.3-.7-1.7-5.9.7-2 1.4-4.2 1.6-5 .5-2.1 1.9-.3 3.6 4.6zm12.7 10.8c-1.5 1.6-2.7 2.2-3.3 1.6-1.7-1.7.1-4.1 2.9-4.1h2.7l-2.3 2.5zm-8 1.5c1.5 3.6 1 5.2-2.7 7.7-2.6 1.8-3.2 1.9-7.6.6-5.5-1.6-6.4-3.1-4.7-7.3 1.2-3 1.2-3 11.6-3.8 1.5-.1 2.5.7 3.4 2.8zm-18.6-1.1c.3.4 0 1.6-.7 2.5-1 1.3-1.8 1.5-3.8.8-1.4-.6-3.1-1.7-3.8-2.6-1.2-1.4-.9-1.6 3.2-1.6 2.5 0 4.8.4 5.1.9zm23.5 12.8c.8 2.1 1.6 4.4 1.8 5 .8 2.1-1.1 1.5-5-1.8-3.6-3-3.7-3.2-2.1-5 2.5-2.8 3.8-2.3 5.3 1.8zm-19.4-.5c1.4.6 2.5 1.6 2.5 2.2 0 1.1-7.2 6.6-8.5 6.6-.8 0-.1-3.3 1.5-7.5 1.1-2.9 1.1-2.9 4.5-1.3zM359.6 648.2c-.9 1.2-1.6 2.8-1.6 3.6 0 .7-.7 3.6-1.6 6.3-1.9 5.7-3.1 6.3-13.4 6.2-7.7 0-9.9 1.1-7.3 3.9.9 1 3.1 2.6 4.7 3.4 1.7.8 4.4 2.5 5.9 3.8l2.8 2.2-2.7 8.2c-4 12.5-2 16.6 4.7 9.6 1.8-2 5.1-4.9 7.1-6.5l3.7-3 9.7 6c7.4 4.6 10.1 5.8 11.1 4.9 1.9-1.5 1.6-4.6-.6-7.7-1.1-1.5-3.1-5.3-4.6-8.6l-2.6-5.9 2.8-2.2c1.5-1.3 4.5-3 6.6-4 2.8-1.3 3.7-2.3 3.7-4.1 0-2.3-.3-2.4-5.7-2.3-14.1.4-13.5.6-16.2-5.2-1.3-2.9-2.4-6.3-2.5-7.7-.1-3.3-2.1-3.7-4-.9zm2.9 12.6c0 1.8-2 1.5-2.3-.4-.3-1 .1-1.5 1-1.2.7.3 1.3 1 1.3 1.6zm5.3 9.8l1.7 3.6-4 3.3c-3.7 3.2-4.1 3.3-6.6 1.9-3.8-1.9-4.1-2.6-2.5-7 1-3 2-4 4.2-4.5 5-1.1 5.4-1 7.2 2.7zm9.2-2.1c-.7.8-2.1 1.5-3.1 1.5-1.1 0-1.9-.7-1.9-1.5 0-1 1-1.5 3.1-1.5 2.7 0 3 .2 1.9 1.5zm-24.3 1c.2.6-.2 1.8-.9 2.8-1.2 1.5-1.5 1.5-4.8-.6l-3.5-2.2 3-.6c3.9-.9 5.7-.7 6.2.6zm21.8 14.7c1.4 2.8 2.4 5.3 2.1 5.5-.5.6-5.3-2-8.6-4.6l-2.5-2 2.4-2.5c1.3-1.4 2.8-2.3 3.2-2 .5.2 2 2.8 3.4 5.6zm-17.6-1.8c.9 1.1.3 2-2.9 4.6-4.3 3.4-4.8 2.9-2.6-2.5 1.6-3.7 3.6-4.4 5.5-2.1zM72.8 658.2c-1.4 2.4-3.1 6.1-3.8 8.3-2 6.2-2.4 6.5-11.1 6.5-6.9 0-8 .2-8.9 2.1-1.7 3-.7 4.5 4.8 7.3 6.7 3.4 7.7 4.7 5.9 8.3-2.3 4.7-4.1 12.3-3.1 13.3 1.2 1.2 7-1.8 13.3-6.6 2.4-1.9 4.8-3.4 5.3-3.4.4 0 3.4 1.3 6.6 2.9 10.5 5.2 16.7 8.1 17.5 8.1 1.5 0 .5-3.8-3.3-12.5-2.2-4.9-4-9.5-4-10.2 0-.7 2.5-2.9 5.5-5 3.1-2 5.4-4.1 5.2-4.7-.2-.7-3.5-1.1-8.3-1.1h-7.8l-3.3-7c-1.8-3.9-3.7-7.7-4.2-8.5-1.6-2.9-3.8-2.2-6.3 2.2zm6.6 7.5c.9 2.6 1.6 5 1.6 5.5 0 .4-2.1.8-4.6.8h-4.6l.7-3.3c1-4.4 3.4-8.9 4.4-8.2.5.3 1.6 2.6 2.5 5.2zM93 675.9c0 1.4-1.8 2.3-3 1.6-.6-.4-.8-1.1-.5-1.6.8-1.2 3.5-1.2 3.5 0zm-8.1 2.8c.7 1.4.8 2.9.4 3.3-.4.3-2.7 2.1-5.1 3.9l-4.3 3.3-4.4-2.3c-2.5-1.3-4.7-2.9-4.9-3.5-.2-.6.4-2.5 1.5-4.3 1.8-3 2.1-3.1 8.7-3.1 6.5 0 7 .2 8.1 2.7zm-20.9-.4c0 .8-.3 1.7-.6 2-1 .9-4.6-1.2-3.9-2.4.9-1.4 4.5-1.1 4.5.4zm26.7 13c1.4 3.1 2.4 6 2.1 6.3-.8.7-12.8-5.4-12.8-6.5 0-1.3 6.1-6.2 7.2-5.9.5.2 2.1 2.9 3.5 6.1zm-22.2-1.1c1.4.6 2.5 1.4 2.5 1.8 0 .9-7.6 6-9 6-1.3 0-1.3-.2.6-5 1.8-4.4 2.1-4.5 5.9-2.8zM433.6 699.3c-.7 1.9-1.7 4.9-2.1 6.8-.4 1.9-1.3 4.9-2.1 6.7l-1.4 3.4-9.4-.7c-6.6-.5-9.6-.4-10.1.4-.4.7 2.5 4.1 7.1 8.4l7.7 7.3-3.2 9.3c-2.2 6.2-2.9 9.7-2.3 10.3 1.1 1.1 11.5-4.5 15.8-8.4 2-1.8 2.2-1.7 12.2 6.2 5.6 4.4 10.6 8 11.1 8 1.6 0 .5-8.7-1.9-15.5-3.7-10.3-3.7-10.6 1.1-14.5 2.4-1.9 5.6-4.1 7.2-4.8 2.7-1.1 2.8-1.4 1.5-3.3-1.3-2-2.2-2.2-10.4-2-4.9.1-9.4-.2-10-.6-.6-.5-1.7-2.6-2.4-4.8-.7-2.2-1.9-4.9-2.6-6-.6-1.1-1.5-3.5-1.9-5.2-.9-4.6-2.2-4.9-3.9-1zm4.7 15.9c-.2.5-1.5.8-2.9.8-2.7 0-3-1.3-1.3-5.7l1.1-2.8 1.7 3.5c1 1.9 1.6 3.8 1.4 4.2zm-12.1 7.3c-.6 3.5-2 3.9-5.1 1.4-4.1-3.3-3.8-4.1 1.2-3.7 3.6.3 4.2.6 3.9 2.3zm16.2 2.9l2 4.9-3.4 2.9c-1.9 1.5-3.9 2.8-4.5 2.8-.5-.1-2.5-1.4-4.3-2.9-3-2.6-3.3-3.2-2.6-6.7 1-5.5 2.1-6.5 6.7-6.2 3.8.3 4.2.6 6.1 5.2zM456 722c0 .6-1.5 1.9-3.2 3-3.1 1.9-3.4 1.9-4.5.3-2.4-3.2-1.6-4.3 3.2-4.3 2.5 0 4.5.5 4.5 1zm-25.6 14.9c2.1 2.3 1.5 3.6-2.4 5.6-3.7 1.9-4.5.6-2.6-4 1.7-4 2.6-4.3 5-1.6zm19 4c1.4 3.2 2.6 6.4 2.6 7 0 .6-2.7-1-6-3.6l-6-4.6 2.2-2.4c1.2-1.3 2.7-2.3 3.3-2.3.7 0 2.4 2.6 3.9 5.9zM84.8 788.6c-3.2 1.7-4.1 6.1-1 4.9.9-.4 3.2-.9 4.9-1.2 3.6-.6 5.8-2.6 4.8-4.3-.9-1.5-5.5-1.2-8.7.6zM372.3 218.7c-1.8.7-1.6 3.3.2 3.3.8 0 1.5.4 1.5 1 0 .5.9 1 2 1 2.3 0 2.7-2.9.8-4.8-1.3-1.3-2.4-1.4-4.5-.5zM367.5 298.9c-.8 1.5.3 3.1 2.1 3.1.9 0 1.4-.7 1.2-1.7-.4-2-2.4-2.8-3.3-1.4zM479.2 299.6c-3.5 2.4-2.6 5.6 1.8 6.6 5 1 7.1-1.1 5-5-1.9-3.3-3.8-3.8-6.8-1.6zM493.5 300.6c-.9 1-1.4 2.4-1.1 3.3 2.3 7.4 3.6 9.6 5.5 9.9 1.8.3 2.1-.2 2.1-3 0-1.8-.7-4.2-1.5-5.2-.8-1.1-1.5-2.8-1.5-3.7 0-2.6-1.6-3.2-3.5-1.3zM33.9 579.6c-.8.9-2.3 5.1-3.5 9.3l-2 7.6-8.5.1c-10.7.1-10.9.1-10.9 1.8s6.8 7.9 10.9 10.1c3.8 1.9 3.8 3.4.5 12.5-1.7 4.5-2.3 7.5-1.7 8.1 1.5 1.5 10.2-.1 10.8-2.1.6-1.9 7.7-7 9.7-7 .7 0 4.4 2.5 8.1 5.6 9.6 7.7 10.6 6.7 5.6-6.1l-3.1-7.9 4.4-4.1c2.4-2.2 5.7-5 7.3-6.1 2.5-1.9 2.8-2.5 1.9-4-1.2-2-3.3-2.2-12.9-1.3l-5 .4-2.2-4.5c-1.3-2.4-2.3-5.6-2.3-7 0-3-2.5-7-4.4-7-.8 0-2 .7-2.7 1.6zm4.8 13.8c.6 3.5.4 3.8-1.8 3.4-2-.2-2.4-.8-2.2-3.2.5-7 2.9-7.1 4-.2zm13.8 9.6c-3.4 3.5-4.1 3.7-5 1-.9-2.9.2-4 4.2-4h3.7l-2.9 3zm-26.5.6c0 2.1-1.9 2.7-5.1 1.4-4.7-2-3.3-4 2.3-3.2 1.5.2 2.8 1 2.8 1.8zm17 0c1.8 4.6 1.2 7.1-2.2 9.3-3.1 1.9-3.4 1.9-6.2.3-3.9-2.3-5-4.3-4.2-7.6.7-3 3.4-4.4 8.4-4.5 2.6-.1 3.4.4 4.2 2.5zm-12 11.9c1.1 1.3.9 2-1 4-2.7 2.8-5.6 3.4-4.6.9.3-.9.9-2.7 1.2-4 .7-2.7 2.6-3.1 4.4-.9zm17.3 3.5c.7 2.5-1.4 2.6-3.6.2-1.3-1.4-1.4-2.1-.5-3 1.4-1.4 3.3-.1 4.1 2.8zM37.7 733.2c-1 1.8-2.5 5.5-3.5 8.3-2 5.7-3.1 6.2-14 6.4-5.8.1-6.3.3-6 2.2.2 1.4 1.6 2.5 4.2 3.4 2.2.8 5.1 2.5 6.4 3.9l2.5 2.5-2.5 5.8c-6 13.7-6.1 16.9-.2 13.8 1.6-.8 3.2-1.5 3.6-1.5.3 0 3.4-1.6 6.9-3.5l6.2-3.6 2.6 2.4c5.2 4.7 11.5 8.7 12.4 7.8.5-.5.3-2.1-.6-3.7-.7-1.6-1.9-5.5-2.6-8.7-1.2-5.6-1.2-6 1.1-8.4 1.2-1.3 4.4-3.9 7.1-5.6 7.8-5.1 5.6-7.7-6.7-7.7h-7.5l-2-6.5c-2.3-7.3-3.8-10.5-5-10.5-.4 0-1.5 1.5-2.4 3.2zm3.7 9.7c.9 1.6 1.2 3.1.9 3.5-1 1-5.3.7-5.3-.4 0-1 2.2-6 2.6-6 .2 0 1 1.3 1.8 2.9zm-11.4 10c0 2.9-1.8 3.6-4.1 1.5-2.7-2.4-2.4-3.4 1.1-3.4 2.3 0 3 .5 3 1.9zm15 2.8c1.3 4.5 1.3 4.7-1.4 7-3.5 2.9-4.7 2.9-8.6-.3-3.2-2.8-3.3-4.5-.4-9.2 1.1-1.6 2.4-2.2 5.3-2.2 3.7 0 3.9.1 5.1 4.7zm9.5-1.2c-4.3 3.6-4.9 3.6-5.9-.8-.6-2.7-.6-2.7 4.6-2.7l5.3.1-4 3.4zm-20.6 10.9l2.2 2.4-3.8 3.1c-3.4 2.8-6.3 4-6.3 2.5 0-1.3 4.3-10.4 4.9-10.4.4 0 1.8 1.1 3 2.4zm16.1 6.5v2.5l-3-2.9c-2.9-2.8-3-3-1.3-4.3 1.5-1.1 2-1 3 .5.7.9 1.3 2.8 1.3 4.2zM132.3 806.7c-1.3.2-2.3 1.1-2.3 1.9 0 1.1 1.5 1.4 6.5 1.4 5.7 0 8-.9 5.7-2.4-1.3-.8-7.6-1.4-9.9-.9zM116.7 807.7c-1.4 1.3-.6 3.3 1.3 3.3 1.3 0 2-.7 2-2 0-1.9-2-2.7-3.3-1.3zM117.1 817.9c-5.6.4-8.6 1-8.9 1.9-.3 1 1.9 1.2 10 1 8.3-.2 10.3-.6 10.3-1.8 0-1.8-.6-1.8-11.4-1.1zM79.6 820.9c-.9 1.4.3 1.9 5.4 2.2 3.5.3 4.5 0 4.5-1.1 0-1.8-8.9-2.7-9.9-1.1zM15.3 825.7c-2.4.9-1.3 2.4 1.5 2.1 1.5-.2 2.6-.8 2.5-1.3-.2-1.2-2.3-1.6-4-.8zM69.5 831c-8.2.4-15.1.8-15.3.8-.2.1 0 .6.3 1.2 1.2 2 33.9.6 33.2-1.4-.5-1.4-.2-1.4-18.2-.6zM264.5 831c-.3.6 0 1.2.7 1.5 2.4.9 12.2-.1 12.6-1.3.5-1.5-12.4-1.7-13.3-.2zM21.8 831.8c-4.2.4-5 1.6-1.5 2.6 3.8 1 27.5.7 28.2-.4.3-.6 0-1.3-.8-1.5-1.6-.7-20.5-1.1-25.9-.7zM150.5 831.8c-1.1.2-2.4.8-2.9 1.3-1 .9 10.7 1.3 47.1 1.3 14.8.1 19.3-.2 19.3-1.2 0-.7-1.3-1.2-3.2-1.2-1.8 0-15.7-.2-30.8-.3-15.1-.1-28.4-.1-29.5.1zM232 832c0 .5 1.6 1.1 3.5 1.2 1.9.1 4.3.2 5.2.2.9.1 1.8-.5 2.1-1.2.3-.9-1.2-1.2-5.2-1.2-3.1 0-5.6.4-5.6 1zM129.7 832.7c-1.5 1.4-.5 2 3.8 2 4.5 0 5.9-1 2.9-2.1-2.1-.8-5.9-.8-6.7.1zM0 835.5c0 2.2.4 2.5 3.9 2.5 4.3 0 6.4-1.6 3.4-2.6-1-.3-2.6-1-3.5-1.5-2.8-1.5-3.8-1.1-3.8 1.6zM0 844.1c0 2.9.1 3 3.3 2.4 4.8-1 5.2-2.1 1.6-3.9-4.4-2.2-4.9-2.1-4.9 1.5zM14.5 844c-.8 1.2 1.7 2.3 4.1 1.8 1-.1 1.9-.9 2.2-1.6.5-1.5-5.4-1.7-6.3-.2zM33.5 845.1c-1 1.5-.5 1.8 4.8 2 5 .3 7-.6 4.7-2.1-2-1.3-8.7-1.2-9.5.1zM93 847.7c-3.4 2.3-4 3.3-4 7 0 2.7-.4 3.4-2.7 3.9-6.3 1.4-7.8 2.1-7.8 4 0 2.5 3.8 3.1 13.5 2.3 4.1-.4 11.2-.9 15.8-1.2 4.6-.2 8.7-.8 9.2-1.3s1-2.5 1.2-4.4c.2-3 0-3.5-1.7-3.3-1 .1-2.7-.3-3.7-.8-1.3-.7-2.3-.4-3.8 1.1l-2 2v-2.1c0-3.1-1.7-5.7-5-7.4-3.8-1.9-6-1.9-9 .2zm6.7 9.7c-.7 1.7-2.7 2.2-2.7.7 0-.6.5-1.3 1-1.6.8-.5.7-1.2-.1-2.3-1.2-1.6-1.1-1.6.5 0 1.1.9 1.6 2.3 1.3 3.2zM26.7 860.1c-2.8 1.6-1 2.9 4.2 2.9 5.3 0 6.6-.7 5-2.7-1.3-1.5-6.6-1.7-9.2-.2zM197.2 864.7c.4 2.1 3.3 2.5 3.3.3 0-.8-.8-1.6-1.8-1.8-1.4-.3-1.8.1-1.5 1.5zM248.3 868.7c-3.6.7-2.7 2.3 1.3 2.3 2.3 0 3.4-.4 3.2-1.2-.5-1.4-1.5-1.7-4.5-1.1zM267.3 868.7c-2.8 1-1 2.4 3 2.2 2.3-.1 14 0 26 .1s22.1 0 22.5-.4c1.9-2-4.4-2.6-26.3-2.5-13.2.1-24.6.3-25.2.6z"/></svg>