<svg version="1" xmlns="http://www.w3.org/2000/svg" width="666.667" height="1170.667" viewBox="0 0 500 878"><path d="M297.2 158.2c-24.1 2.5-45.7 11.8-66.5 28.6-11.8 9.6-25.4 28.1-32.6 44.7-9.4 21.3-12.2 41.7-9.6 68 1.2 11.8 6.9 27.5 14.9 41.5 2.5 4.4 4.6 8.3 4.6 8.7 0 .4-3.1 2.4-6.8 4.3-3.7 1.9-8.6 5-10.9 6.8-2.3 1.9-5.9 4.2-8 5.3-6.9 3.6-39.1 13.3-41.9 12.7-1.1-.2-1.6-2.1-1.8-7.9-.2-6-.8-8.6-3.1-12.7-2.5-4.6-10.2-13.1-14.8-16.4-1.7-1.3-1.7-1.6.3-7.3 2.9-8.5 3.5-16.9 1.7-22.8l-1.5-4.8 5-5.7c9.8-11.1 15.1-21.1 18.7-35.3 4-15.7 1.8-36.4-5.3-51.3-6.4-13.2-19.8-27.9-31.9-35-6.2-3.7-21.2-8.4-29.7-9.4-10.2-1.2-24.7.3-33.4 3.4-3.9 1.4-14.5 5-23.4 7.9C1.1 188.1 0 188.8 0 194v4l4.3-2.7c2.3-1.5 6.2-3.2 8.7-3.9 4.3-1.1 4.2-1.7-.5-2.7-1.7-.3-1.6-.6 1-1.7 1.7-.7 5.4-1.5 8.2-1.8 5-.4 5.5-.2 9.5 3.4 6.5 5.7 8 8.6 7.9 15 0 6.1-1.6 9.4-5.6 12-2.3 1.5-2.7 1.5-4.9 0-1.3-.8-2.7-2.9-3.1-4.6-.7-3.2-2.9-4-3.9-1.4-.9 2.2 1 5.1 4.4 6.9 5.9 3.1 11.5.9 15.6-6.1 3.5-6 3.1-12.6-1.4-19-3.5-5-2.9-5.7 1.7-1.8 2.1 1.8 3.3 3.8 3.7 6.5.9 5.3 2.9 4.4 2.8-1.1-.1-3.7-.7-4.9-4.4-8.3-5.4-5.1-4.8-6.3 4.6-9.6 6.2-2.2 8.5-2.4 23.4-2.4 16.3 0 16.6 0 24.1 3.2 10.2 4.3 16.8 8.6 24 15.6 7.8 7.7 14.6 18 18.6 28.5 3.6 9.3 4.1 13.8 1.8 14.6-2.1.8-1.9 2.6.6 5.7 1.5 2 1.9 3.8 1.7 6.9-.2 2.4-.8 4.3-1.5 4.3-2 0-2.2.9-2.4 10.8-.2 6.2-.7 10.4-1.5 11.5-1.2 1.6-1.3 1.5-1.4-.6 0-4.3-2.4-1.7-3.5 3.9-1.2 5.9-7.1 17.2-10.8 20.7-2 1.9-2.7 2-5.5 1-4.4-1.7-5-.4-1.3 3.2 3.7 3.7 5.4 8.9 4.9 15l-.3 4.5-1.8-3.3c-1.8-3.4-5.7-4.8-4.1-1.5 1.3 2.8 1.1 16.5-.3 17.9-1 .9-2.6.8-7.5-.8-16.4-5.2-35.8-.1-48.1 12.5-5.4 5.7-7.3 8.9-9.7 16.7-1 3.1-2.2 5.4-2.9 5.2-3.3-.7-17 4.7-22.9 9.2-2.9 2.1-3.8 2.3-6.3 1.4-4.1-1.4-4.6-2.8-1-2.8 4.4 0 4.9-1.9 1.2-4.9-3.5-2.9-4.1-5.2-1.1-4.4 1.7.5 2 0 2-2.7 0-2.3.9-4 3.1-6.1 1.8-1.6 2.9-3.3 2.5-3.7-1.2-1.1-5.9 2.1-8.3 5.7-1.9 2.8-2.4 3.1-2.9 1.7-1-2.7 1.2-6.4 5.1-8.8 2-1.1 3.4-2.3 3.1-2.5-1.1-1.1-5.7.9-9.1 3.8-3.2 2.8-3.5 3.6-3.5 8.4 0 3 .4 6.5.9 7.9.7 1.7.7 2.6-.1 2.8-2.1.7.4 4.9 4.3 7.4 2.1 1.3 3.9 2.8 3.9 3.2 0 .4-1.1 2.4-2.6 4.5-2.6 3.8-5.4 15.6-5.4 22.6 0 3.8 3.5 15.3 6.3 20.7 2.8 5.5 14 16.3 19.7 19.2 6.1 3 7.5 5.6 3.7 6.6-3.4.8-12.1 8.3-15.3 13.1-4 6-5.4 10-6.8 19.4-2.6 17.5 2.9 33.8 16.1 48.1 7.6 8.2 15.5 13.1 27.3 17 7.6 2.5 9.8 2.8 20 2.6 10.1-.2 12.2-.5 17.2-2.9l5.7-2.6 1.6 3.3c2.4 5.1 4.9 7.2 11 9.5 8.1 3 20.2 2.9 27-.3 10.5-4.8 16.2-12 17.1-21.5.5-4.6 1.1-6 2.5-6.4 2.4-.6 2.6-5.5.4-9.7-1.5-2.9-1.5-3 2.4-4.9 5.9-3.1 10.1-7 14.3-13.5 5.7-8.9 6.9-14 5.8-24.8-1-10.2-2.5-13.3-10.7-21.9-4.6-4.9-5.1-5.8-3.6-6.4 1-.4 7-2.5 13.3-4.6l11.5-3.9 11.5 2.5c6.3 1.3 12.6 2.6 14 2.9 17.7 3.5 32.6 7.4 42 11.1 1.9.8 6.2 1.9 9.5 2.5 3.3.6 7.1 1.5 8.5 2 1.4.5 6.4 2 11.1 3.5 8.3 2.5 8.7 2.5 14.4 1 3.2-.8 6.5-2.1 7.4-2.9.9-.8 3-1.8 4.6-2.2 1.7-.4 4.1-1.5 5.5-2.4 4.7-3.2 16.5-8.7 22.5-10.4 3.3-1 9.5-2.9 13.7-4.2 4.2-1.3 8.3-2.4 9-2.4 2.9 0 19-5.9 22.3-8.1 4.4-3 7.2-7.3 17.5-27.4 16.4-31.8 19.2-37.7 20.5-44 .7-3.5 2.2-7.7 3.3-9.2 3.1-4.5 7.2-13.1 7.2-15.2 0-1.1.5-2.3 1.1-2.6 1.6-1 11.9-22.6 11.9-25 0-5.1-2.1-9.3-5.3-10.8-3.4-1.6-6.3-1.3-13.5 1.3-1.8.7-3.5 1-3.8.8-.2-.3.3-4.5 1.1-9.4 1.8-10.1 2.1-26.9.6-39.5-.9-8.1-4.3-20.3-6.2-22.4-.5-.5-.9-1.5-.9-2.2 0-1.3-5.1-12.1-8.7-18.3-9.4-16.5-25.9-33.7-39.8-41.6-13.5-7.8-17-9.3-28.5-13.1-14.1-4.6-34.5-6.7-49.8-5.1zm33.3 5.8c15.7 2.9 31.5 9.3 45.7 18.7 7.6 5 24 21.7 30 30.6 9.4 13.9 16.7 32.2 19.4 48.7 4.6 28.2-2.3 60.3-17.9 83.5-12.1 18-30.4 35.5-37 35.5-3.4 0-12.7-4.4-12.7-6 0-.4 1.4-1.3 3.1-2 4-1.7 15.8-10.7 22.7-17.4 18.1-17.4 30.4-44.5 31.9-70.1.9-16.1-2.7-34.6-9.9-50.4-6.4-14.2-23.3-34.1-35.8-42.3-32.8-21.3-70.6-24.4-104.5-8.4-10.8 5.1-14.5 7.6-25.3 16.8-9.8 8.4-15.4 15.2-21.9 26.8-10.5 18.8-14.4 33.5-14.4 54.5.1 21 5.3 38.3 16.7 55.7 3 4.5 5.4 8.4 5.4 8.8 0 .3-2.6 1.1-5.7 1.7-7 1.3-7.1 1.2-13.7-12.2-8.6-17.2-11.7-28.3-13.6-47.5-.9-9.2.6-28.5 2.5-34.1.8-2.3 1.5-4.9 1.5-5.8.1-.9.9-3.4 2-5.6 1.1-2.2 1.9-4.7 2-5.6 0-3.1 8.9-19.6 14.7-27.4 23.6-31.5 59.3-49.3 96.8-48 6.6.2 14.7.9 18 1.5zm-5.1 16.1c17 3.2 30.4 8.9 43.9 18.7 19 13.7 32.5 34.1 38.6 58.4 6.6 25.9 1.7 53.8-13.6 77.7-9.1 14.2-19.7 24-36.8 34.2-12.1 7.1-14.3 7.3-32.6 2.9s-19.4-4.8-31.2-10.7c-6-3-14.5-6.7-19-8.3-4.5-1.5-8.3-3.2-8.5-3.8-.1-.5 3.2-3.6 7.5-6.8 4.3-3.2 13.8-10.2 21-15.7l13.3-10 5.2 3.7c2.9 2.1 10.9 7.8 17.8 12.7 20.4 14.6 22.6 16 24.4 15.3 2.1-.8 1.8-2.6-3.6-18.9-4.5-13.8-11-36.6-10.6-37 .3-.3 29-21.6 39.6-29.4 11.8-8.6 11.8-8.6-22.1-8.4l-28.8.2-1.4-3.2c-.7-1.8-4.6-14-8.6-27.2-7.4-24.1-9.8-29.2-12.3-26.4-.7.8-2.9 7-5 13.9-7 23.5-12.8 41.5-13.5 42.3-.5.4-13.6.8-29.3.7-23.9 0-28.7.2-29.8 1.4-.6.9-.9 2-.5 2.6.5.8 16.3 12.8 42.3 32.1 2.3 1.7 4.2 3.7 4.2 4.4 0 .6-3.4 12.2-7.5 25.8-4.2 13.5-7.4 25.2-7.3 25.9.2 1-2.5 1.2-13.2 1l-13.5-.3-4.2-4.7c-5.6-6.3-13.9-21.3-17.3-31.6-5.9-17.6-6.5-41-1.4-56.3 6.9-20.5 14.1-33 26.3-45.3 13.9-14 26.6-21.8 43.6-26.9 13-3.9 32-5.2 43.9-3zm-7.5 53.3c3.3 10.9 5.8 20.2 5.6 20.6-.5.8-25.3 1.2-27.7.4-1-.3-1.8-1-1.8-1.6 0-1.9 11.9-39.1 14.7-45.8.7-1.7.7-1.7 9.2 26.4zm10.5 33.9c1.3 4.5 3.4 11.5 4.6 15.5 1.2 4 2 7.8 1.7 8.5-.4 1-12.7 10.7-25.3 19.9-.9.6-22.3-13.7-26.3-17.6-1.1-1.2-.6-3.8 3.4-16.7 2.6-8.5 5.2-15.9 5.7-16.6 1-1.3 19.2-2.2 29-1.5l4.7.4 2.5 8.1zm48.6-8.1c-.1.7-3.8 4.1-8.3 7.5-4.5 3.3-12.7 9.5-18.2 13.7-5.7 4.3-10.3 7.2-10.8 6.7-1.4-1.4-8.7-24.1-8.7-27.1 0-1 5.6-1.4 29.3-1.8 13.2-.2 16.7 0 16.7 1zm-90 1.2c0 2.2-8 26.9-9.1 28-.5.6-2.5-.1-5.1-2-8-5.7-34.3-24.6-34.7-24.9-1.6-1.5 4-2 24.8-2.3 21.2-.3 24.1-.2 24.1 1.2zm56.5 57.1c3.5 11 6.6 20.8 7 21.7.4 1.1.3 1.8-.5 1.8-.9 0-24.6-16.4-36.3-25.2-1.8-1.3-1.5-1.7 4-5.8 3.2-2.4 6.3-4.8 6.8-5.2 6.4-5.2 10.2-7.7 11.4-7.5.9.1 3.7 7.4 7.6 20.2zm-55.3-14.8c3.6 2.7 8.7 6.3 11.4 8.2l4.8 3.3-3.5 3.2c-4.5 4-32.5 24.6-33.4 24.6-.4 0-.5-1-.2-2.3.7-3.2 7.5-26 9.9-33.2 1.1-3.3 2.1-6.6 2.3-7.3.7-2 1.8-1.5 8.7 3.5zm157 8.5c.8.7 1.8 2.8 2.2 4.5.5 3 .3 3.3-1.8 3.3-3.7 0-9 6.9-11.6 14.9-1.7 5.4-1.9 7.3-1.1 8.9 2 3.8 1.1 7.4-3.5 15.1-2.6 4.2-6.7 11.6-9.3 16.5-6.6 12.9-6.9 13.3-12 21.9-2.5 4.3-5.9 10.1-7.6 13-8.2 14.5-11.6 17.4-23 20.1-6.7 1.7-11.4 4-10.3 5.1.3.3 5.4-1 11.5-3 9-2.9 11.5-4.2 14.4-7.3 4.7-4.9 8.9-10.6 12.3-16.5 1.5-2.7 3-4.7 3.2-4.4.7.6-2.1 7.1-8.3 19.2-6.5 12.9-9.4 17-13.2 18.9-4.7 2.5-17.3 6.6-20.1 6.6-1.5 0-4.7.7-7.1 1.6-2.4.8-8.5 2.6-13.5 3.9-10 2.6-17.6 5.9-27.6 12.1-9.5 5.8-14.3 7-20.5 5.1-2.6-.8-11.1-2.9-18.8-4.7-7.7-1.8-19.7-5-26.7-7.2-7-2.1-15.8-4.6-19.5-5.4-3.7-.8-8.6-1.8-10.8-2.3-2.2-.5-6.4-1.4-9.2-2-2.9-.6-9-2-13.5-3.2-12.1-3.1-12.6-3.2-14.4-2.5-1.4.5-1.4.9-.3 2.2 2 2.5-.3 3.4-21.4 8.8-5.4 1.4-10.5 3-11.3 3.7-2.8 2.3-1.2 4 4.3 4.4 8.6.6 15.6 5.6 20.3 14.4 2.2 4.3 3 15.8 1.4 21.8-1.6 6.3-8 16.2-12.7 19.6-7.2 5.3-17.7 8-27 7-4.8-.5-5.7-.3-5.7 1 0 2.2 5.4 3.1 14 2.5 6.1-.5 7.1-.3 8.8 1.6 4.6 5.1 3.3 8.1-1.4 3.5-2.8-2.7-3.6-3-4.9-1.9-1.3 1.1-1.1 1.7 2.1 5.3 3.3 3.6 3.6 4.3 3 8.3-1.1 8-7.9 16-16.3 19-8.9 3.1-23.3.6-27.9-4.8-4.1-5-4.1-7.4-.1-11.6 6.5-6.8 8.7-11 8.7-16.7 0-5.6-2.5-9.3-5.5-8.2-1.7.7-2.1 2.7-.5 2.7 1.7 0 3.1 5 2.4 8.7-1 5.2-9.8 14.2-18.1 18.4-6.5 3.2-7.3 3.4-17.3 3.4-11.6 0-16.3-1.2-28.7-7.1-12.8-6.1-23.7-18.3-29.3-32.9-1.9-4.8-2.3-7.8-2.3-15.5.1-5.2.6-11.7 1.2-14.4 1.5-6.1 7.2-15.5 12.2-20.1 3.9-3.5 15-9.5 17.6-9.5 1.9 0 7.3-2.9 7.3-3.9 0-.5-4-.6-9-.3-8.6.5-9.3.3-15.4-2.7-3.6-1.7-8.2-5.1-10.6-7.7-4.5-4.9-11-17.8-10.9-21.6 0-2.3 0-2.3 1 .2 1.3 3.2 4.9 7.1 6 6.4.5-.3-.1-2.4-1.2-4.7-1.9-3.6-2.1-5.3-1.6-13.2.3-5.2 1.1-10.2 2-12 2.8-5.3 11.9-13.4 16.7-14.9 3.7-1.1 4.2-1.5 2.6-2.1-1.9-.8-5 .5-12.9 5.3-4.6 2.8-5.5 2.4-3.1-1.3 2-3.1 8.8-7.2 15.1-9.1 6.5-2 8.8-.4 9.6 6.5.8 6.5 5.2 20.6 7.8 24.7 1.1 1.8 4.7 5.7 8 8.8 4.8 4.4 7.3 5.9 12.8 7.6 7.7 2.3 12.2 2.5 15.3.9 1.2-.6 4.4-1.3 7.2-1.6 5.5-.5 6.7-1 4.8-2.2-.8-.5-.3-1.4 1.9-3 4.7-3.5 8.3-12.1 7.6-18.5-1-9.4-6.7-18.8-12.2-20.2-3-.7-9.6 1.8-13.3 5-3 2.7-2.6 6.5 1 8.5 2.2 1.3 2.9 1.3 4.3.1 1.5-1.3 1.5-1.5-.6-3-2.6-2-2-3.4 2.4-5.6 2.9-1.5 3.3-1.5 6.4.1 4.3 2.4 8.3 10.3 8.3 16.4-.1 6.1-4.3 13.8-9 16.2-8.8 4.5-18.9 4.9-26.8 1.2-5-2.4-13.4-11-16-16.4-4.4-9-5.3-35.6-1.5-41.7 6.4-10 12.2-14.7 22.7-18.2 6-2 8-2.2 16.2-1.6 5.2.4 12.4 1.6 16.1 2.6 6.1 1.6 7.4 2.5 12.5 8 5.9 6.4 9.9 14.8 11.3 23.8.9 5.8-2.3 12.2-8 16.2-5.1 3.5-8.5 8.6-8.5 12.7 0 2.3-.6 3.3-2.7 4.2-3.4 1.5-2.1 2.8 4 4 12.7 2.3 25.9 18.9 27.3 34.2 1.2 12-3 22.2-12.7 31.6-3.7 3.5-5.7 4.5-12.9 6.3-9.3 2.4-14.4 2.3-27.2-.6-6.2-1.4-7.9-2.3-12.3-6.5-2.9-2.7-6.1-4.9-7.3-4.9-2.3 0-4.5-3.3-5.7-8.8-.4-2.2-1.2-3.2-2.5-3.2-2.7 0-2.9.9-1.2 6.8 1.2 4.3 2.4 6.1 6.1 9 2.5 2 6.1 5.3 8.1 7.3 6.9 7.2 18.2 10.5 32.5 9.6 12.4-.8 18-3.4 25.9-11.7 8.3-8.8 12.2-15.7 13.6-24.1 2.7-15.9-4.5-33.1-18.2-43.4-3.3-2.5-6.8-4.5-7.8-4.5-2.6 0-3.3-1.6-2.5-5.6.4-2.6 2.5-5.3 8.2-10.8 6.2-6 8.5-7.5 12.7-8.6 7.5-1.8 25.7-7.7 36.5-11.7 5.9-2.3 11.2-5.1 14.6-7.8 6-4.9 16.4-10 24.7-12.1 4.9-1.3 8.3-1.3 21.5-.4 24.9 1.7 33.1 3.7 49.4 11.9 7.6 3.9 15.6 7.3 17.6 7.7 2.1.3 7.6 1.9 12.3 3.5 6.1 2.1 10.3 2.9 15.5 2.9 11.7 0 37.5 6.5 35.9 9.1-.2.4-1.5.4-2.8-.1-4.3-1.6-13.8-3-15.2-2.2-1.9 1-5.4 8.1-5.4 10.7.1 3.1 2.2 5.3 7.4 7.6 5.4 2.3 14.6 2.9 16.9 1.1 2.4-2 4.7-7.7 4.7-11.6 0-2.5.4-3.6 1.5-3.6 2.2 0 1.8 3.7-.9 9.7-3.6 7.6-5.3 8.4-18.2 8.2-6-.1-15.1-.1-20.2 0-7 .2-10.7-.2-15.5-1.8-13.9-4.5-28.1-4.9-33.1-1-3 2.4-3.2 2.4-8.2-.3-2.6-1.4-4.8-1.9-6-1.4-1.8.7-1.8.8.2 2.4 1.2.9 3 2.2 4 2.8 2.8 1.7.7 3.4-6.1 4.7-3.1.7-5.5 1.6-5.3 2.2.3 1 11.7.9 17.1-.1 2.3-.5 2.9-.2 3.4 1.5.6 2.3 1.5 2.6 4.3 1.1s3.3.2 1.5 5.2c-.8 2.4-1.5 5.1-1.5 6.2 0 1-1 3.6-2.2 5.7-1.6 2.9-1.9 4.2-1.1 5 .9.9 2-.1 4.2-3.7 1.7-2.6 3.1-5.8 3.1-6.9 0-1.2 1.6-4.2 3.6-6.8 3.2-4.1 4.4-4.8 11.7-7.1 15-4.6 35-6.4 44.1-4 2.8.8 7.3 1.4 10 1.4 4.6 0 5.3-.3 9.2-4.6 4.5-4.8 8.4-13.4 8.4-18.3 0-2.4-.6-3.1-3.2-4.1l-3.3-1.1 4.5-3.7c8.9-7.4 24.4-23.9 29.1-31 5.1-7.7 11.7-20.8 14-27.7 1.5-4.5 2.8-6.7 3.8-6.1.3.2 2.4-.7 4.6-2 4.4-2.6 9.2-3.1 11.7-1.2zm.8 12.6c0 1.8-8.2 16.2-9 15.7-1.2-.7 1.4-8.6 4.5-13.4 2.2-3.6 4.5-4.7 4.5-2.3zm-81.1 64c8 2.3 9.1 3.8 6.4 8.3-1.9 3.4-1.9 3.4-9.2 3.3-10.6-.3-13.3-3.3-9.1-10.2 2.3-3.7 3.3-3.8 11.9-1.4zM18 392c-.6 1.2-1.4 2-1.7 1.7-.2-.3.1-1.4.8-2.6 1.7-2.6 2.4-1.9.9.9zm290 12.5c6.4.6 10 1.8 8.9 3-1.5 1.5-15.3 4.3-17.3 3.5-3-1.3-5.6-3.5-5.6-4.8 0-1.6 3.2-3.2 5.5-2.7 1.1.2 4.9.7 8.5 1z"/><path d="M88 346c-4.8.6-13.8 5-16.6 8.1-1.5 1.6-1.5 1.9-.2 1.9.9 0 2.1-.7 2.9-1.6.7-.8 3.1-2.5 5.3-3.7 3.6-1.9 5.5-2.2 15.8-2 6.5.1 12-.3 12.3-.8.4-.5 0-1.1-.7-1.3-2.5-.8-14.3-1.2-18.8-.6zM63.2 356.5c-7.8 6.9-10.6 18.6-7.4 30.2 2.2 7.9 3.4 10.4 5.6 12.3 1.3 1 1.6 1 1.6-.3 0-.9-.5-2.8-1.1-4.4-2-5.2-3.9-13.4-3.9-17 0-7 3.1-15.4 7.1-19.4 4.9-4.9 3.2-6.1-1.9-1.4zM272.4 379.5c-1 2.5.7 4 2.3 2 .7-1.1 1.3-2.2 1.3-2.7 0-1.4-3-.9-3.6.7zM273 386.4c0 1.8.6 2.2 4.8 3.1 4 .8 4.2-.5.3-2.8-3.5-2.1-5.1-2.2-5.1-.3zM27.5 392c-2.8 3.1-.8 3.7 2.3.7 1.9-2 2.2-2.7 1.1-2.7-.9 0-2.4.9-3.4 2zM99 394c0 .6.8 2.2 1.7 3.6 1.6 2.5 1.6 2.8-.7 7.1-3.5 6.5-7.2 9.3-11.5 8.6-2.7-.4-3.5-.2-3.5 1 0 4.5 10.8 2 15.7-3.6 1.6-1.8 3.5-5.1 4.2-7.5 1.3-4 1.3-4.5-.6-7-2.1-2.8-5.3-4.2-5.3-2.2z"/><path d="M93.9 398.2c-.1.7 0 2.3.1 3.6.1 1.6-.5 2.5-1.9 2.9-2.5.6-2.7 2.1-.5 3 1.9.7 6.4-3.4 6.4-5.8 0-2.8-1.1-4.9-2.6-4.9-.8 0-1.4.6-1.5 1.2zM66 407.3c0 .9 1.4 2.3 3.2 3.1 3.8 1.9 3.8 1.9 3.8.3 0-1.2-1.2-2.1-6.2-4.5-.5-.2-.8.3-.8 1.1zM74.7 412.7c-1.2 1.1 1.4 3.3 3.9 3.3 3.2 0 3.1-1.8-.2-3-3-1.2-2.9-1.2-3.7-.3zM362 435c-.8.5-7.3 2.8-14.5 5.1-23.1 7.2-27.5 8.9-35.3 13.6-7.5 4.4-7.8 4.5-10.7 3-2.2-1.2-4.1-1.4-7-.8-2.2.4-3.3 1-2.5 1.3 10.4 3.6 12.1 3.6 18 .2 9.6-5.6 16.5-8.6 26.2-11.4 12.7-3.7 28.8-9.9 28.8-11.1 0-1.2-1.1-1.1-3 .1zM24.6 437.8c-.3.6-.4 1.6-.1 2.4.6 1.5 6.9 5.8 8.5 5.8 1.9 0 1-2.9-1.2-4.1-1.3-.6-3.3-2-4.4-3.1-1.3-1.1-2.4-1.5-2.8-1zM60.8 439.6c-1.3 2-2.1 11.4-1 11.4.6 0 1.4-2 1.7-4.4.8-4.8.3-8.7-.7-7zM101.3 445.5c-1.7.7-3.4 2.2-3.7 3.3-.7 2.2.7 6.6 2.4 7.7 1.1.7.9-.8-.7-5.1-.7-1.8 5.2-5.4 8.7-5.4 4.8 0 9 4.7 9 10 0 9.1-4.8 14-15.2 15.3-11 1.5-18.8-7.6-17.6-20.4.4-4.2.3-4.7-1-3.7-2.3 2-1.1 10.8 2.6 17.8 1.7 3.3 2.7 6 2.3 6-.4 0-2.6-1.6-4.8-3.5-4.7-4-7.3-8.9-7.3-13.8 0-2-.5-3.9-1.2-4.3-2.1-1.3 0 9.5 2.7 14.1 3 5.3 8.8 10.2 13.5 11.6 2.7.8 5.4.7 11.4-.5 15.1-3.2 18.2-6.8 16.2-19.1-1.6-9.9-8.4-13.9-17.3-10zM65.7 446.7c-1.1 1-.8 6.1.3 6.8.6.4 1-1 1-3.4 0-4.2-.2-4.6-1.3-3.4zM45.3 461.6c-3.2 1.4-4.9 3.1-4 4.1 1 .9 9.7-2.9 9.7-4.3 0-1.7-1.5-1.7-5.7.2zM52.3 467.3c-4.1 2-5.6 3.7-3.3 3.7 1.8 0 10-4.2 10-5.1 0-1.4-2.1-1-6.7 1.4zM161 467.6c0 .4 2.2 3.1 4.9 5.9 5.3 5.6 6.8 9.8 5.8 16.1-.8 4.6 2 4.7 2.8 0 .9-4.4-.6-9.5-4.3-14.8-2.7-3.9-9.2-9-9.2-7.2zM130.5 471c-2 2.2-11.5 7-13.9 7-1.9 0-2.1 1.7-.4 2.2 3.4 1.2 10.5-1.6 14.6-5.5 2.3-2.3 4.2-4.5 4.2-4.9 0-1.5-2.7-.8-4.5 1.2zM29.7 473.7c-1.4 1.6-3.8 5.5-5.4 8.8-4.1 8.9-3.6 17.4 1.9 32.6 2.6 6.9 8.7 16.3 11.4 17.3 5 1.9 6-.7 1-2.8-4.2-1.7-7.7-7.5-11.3-18.3-4.6-14.3-3.2-25.6 4.7-35.1 1.6-2 3-4 3-4.4 0-1.7-2.8-.7-5.3 1.9zM52.5 473.8c-3.9 2.4-9.4 8.7-11.1 12.8-.8 1.9-1.4 5.3-1.4 7.6 0 5.8 2.3 14.1 4 14.6.9.3 1.1-.1.6-1.4-1.8-4.4-2.9-15.5-1.8-18 2.5-5.3 8.6-12.3 12.4-14 2.1-.9 3.8-2.1 3.8-2.6 0-1.4-3.4-.9-6.5 1z"/><path d="M165.7 485.4c.5 4.5.1 6.3-2.2 11-3.3 6.7-2.5 8.5 1.6 3.7 3.4-4.1 4.6-10.5 2.9-15.5-1.8-5.6-2.9-5.2-2.3.8zM33.9 484.7c-3.5 4.2-4.2 7.1-3.5 14.1 1.2 11.8 5.5 23.2 8.8 23.2.5 0 0-1.1-1.1-2.5-2.4-3.1-5.2-14.7-5.2-22.1-.1-3.8.5-6.5 2-8.9 1.2-2 2.1-4 2.1-4.6 0-1.5-1.6-1.1-3.1.8zM134 512c0 1.4 4.5 2.3 7.5 1.6 4.2-1.1 2.8-2.6-2.5-2.6-2.7 0-5 .4-5 1z"/><path d="M124 514.4c0 2 10 5.6 15.3 5.6 6.4 0 17.4-4.7 15.5-6.6-.4-.3-4 .6-8.2 2-6.6 2.3-8.1 2.5-12.2 1.6-2.5-.6-5.9-1.7-7.5-2.6-2.5-1.3-2.9-1.3-2.9 0zM43.6 519.2c.9 3 3.5 6.6 7.3 10.2 4.4 4.2 3.8 2.2-.9-3.2-2.2-2.5-4.3-5.6-4.6-6.9-.4-1.3-1-2.3-1.6-2.3-.5 0-.6 1-.2 2.2zM101.5 525c-1.1 1.7.5 3.2 2.1 1.9.7-.6 1.1-1.5.8-2-.7-1.2-2.1-1.1-2.9.1zM48 532.9c0 1.6 8.9 8.2 14.7 10.8 6.7 3.1 17.9 4.5 17.1 2.2-.3-.8-1.4-1.3-2.4-1.2-4.5.5-23.3-7.5-26.3-11.1-1.5-1.7-3.1-2.1-3.1-.7zM106.1 534.2C104 539.7 89.9 549 83.8 549c-1.9 0-2.8.5-2.8 1.6 0 2.3 7.2 1.4 13.4-1.5 6-2.9 14.6-11.1 14.6-13.8 0-3.1-1.8-3.8-2.9-1.1zM147 548.4c0 4.2-10.3 11.6-16.1 11.6-3.6 0-9.7-2.2-11.9-4.2-1.1-1.1-2.6-1.8-3.2-1.6-1.4.5 2.6 4.4 6.5 6.4 1.5.8 5 1.8 7.6 2.1 5.4.6 9.4-.9 15.4-5.8 3.1-2.6 3.7-3.7 3.7-7 0-2.1-.4-3.9-1-3.9-.5 0-1 1.1-1 2.4z"/><path d="M120 550.3c0 1.9 3 4.5 6.7 5.8 2.5.8 3.8.7 6.3-.6 4.1-2.1 3.2-2.9-2.8-2.6-3.8.2-5.2-.2-6.6-1.8-2.2-2.4-3.6-2.7-3.6-.8zM16.5 197.5c-4.9 1.8-9.2 6.2-7.5 7.9.8.8 1.7.4 3.2-1.7 3.1-4.3 7.4-6.1 10.9-4.7 1.5.7 3.5 2.3 4.4 3.6 1.7 2.7 3.5 2.4 3.5-.5 0-4.7-7.7-7.1-14.5-4.6z"/><path d="M13.2 207.6c-2.3 1.6-2.9 4.8-1.2 5.9.6.3 1-.2 1-1.1 0-1 1-2.8 2.2-4.1 2.5-2.6 1.3-3.1-2-.7zM16.5 247.3c-2.2.5-5.6 1.3-7.5 1.8-6.8 1.6-7.6 3.3-8.4 16.4-.5 9.7-.4 12.2.9 14.1.8 1.3 1.5 3 1.5 3.7 0 2 3.3 4.7 5.7 4.7 1.2 0 3.5-.8 5.2-1.7 1.6-1 3.3-1.5 3.6-1.1.4.3-.5 2.9-1.9 5.7-3.8 7.4-5.8 17.3-5.4 26.2.3 7 .7 8.2 5 15.2l4.6 7.6-4.8 1.6c-9.5 3.1-12.8 7.6-13.7 18.4-.5 6.6.9 14.1 2.6 14.1.5 0 .8-3.8.8-8.4 0-6.9.4-9.3 2.4-13.3 4-8 12.2-11.3 19.2-7.6 4.3 2.2 14.1 2.2 18.7-.1 6-3.1 8-5.5 8-9.9 0-8.1-9.1-12.7-14.5-7.2-2.2 2.1-2.4 2.7-1.3 5 1.2 2.8 5.3 4.4 7 2.7 1.3-1.3.2-3.2-1.8-3.2-.8 0-1.4-.9-1.4-2 0-2.6 3-2.6 5.8 0 2.7 2.5 2.9 7.1.5 9.2-2.5 2.2-7.9 3.8-12.5 3.8-3.3 0-4.7-.7-8.6-4.5l-4.7-4.6 3.8.7c4.7.8 4.9-.9.5-3.2-8.6-4.4-11.8-9.3-11.8-17.8 0-2.8 1.4-3.5 2.4-1.1 1.2 3.3 2.5 1.3 2.2-3.3-.3-3.3-.9-4.8-2-5-2-.4-2 .3.4-7.2 2.6-8.1 7.2-16.1 11.5-19.9 5.1-4.4 11.5-7.9 16-8.6l4-.6-5.5 3c-3 1.6-6.4 3.8-7.4 5-2.4 2.6-1.3 2.7 2.2.2 4.1-2.7 12-5.1 17.4-5.1 5.1 0 6.3-1.5 2.6-3-1.9-.7-1.7-.9 1.8-.9 5.1-.1 13.1 2.4 16.4 5.1 2.6 2.1 1.8 2-4.2-.6-4.7-2-6.2-.3-1.8 2.2 1.8.9 4.7 2.7 6.5 3.9 3.2 2.1 3.4 2.1 5 .3.9-1 2.8-2.1 4.1-2.4 1.6-.4 3.1-1.9 4-4.1 1.9-4.7 4.7-6 9.4-4.6 7.4 2.2 10.8 9.8 6.4 14.1-1 1-4.4 2.7-7.4 3.7-5.3 1.7-5.5 2-5.8 5.6-.2 2.2.3 4.8 1.2 6.1 1.8 2.8 9.2 5.1 13.5 4.1 3.7-.8 3.3-2-.9-2.9-3.9-.7-10-5.6-10-7.9 0-1.8.4-2.1 5.4-3.2 1.6-.3 4.4-2.1 6.3-4 4.8-4.8 4.6-9.4-.6-14.6-3.5-3.6-4.3-3.9-9.3-3.9-5.9 0-10.1 2.2-11.3 6-.8 2.5-2 2.5-7 .1-10.3-5-28.7-5.9-39-2.1-3.3 1.3-6.5 2.7-7.2 3.2-2.1 1.7-3.3 0-2.1-3.2 2.1-6.1-1.8-12-9.1-14-3.4-.9-5.3-.8-9.8.5-3 .9-5.8 1.3-6.2 1-1.3-1.4 4.2-4.5 7.9-4.5 2.1 0 4.3-.7 5-1.5.7-.8 2.8-1.5 4.6-1.5 1.9 0 3.4-.5 3.4-1 0-1.2-5.1-1.1-10.5.3zm6.8 10.2c5.8 2.4 6.2 6.8 1.7 19-.7 2-2.5 3-12.1 7.3-3.9 1.7-5 1.9-6.4.8-.9-.7-1.6-2.1-1.3-3.2.2-1.4 1.4-2 4.8-2.4 6.1-.7 6.7-1.3 6.7-6 0-4.3-2.1-5.6-3.2-1.9-1 3.2-4.7 2-6.6-2.1-1.6-3.4-1.6-3.6.7-7.5 1.3-2.2 3.1-4.3 4.1-4.7 3-1.1 7.9-.9 11.6.7zM13.5 276c-.3.5-2.2 1-4.1 1-1.9 0-3.4-.5-3.4-1 0-.6 1.8-1 4.1-1 2.4 0 3.8.4 3.4 1z"/><path d="M27 250.8c0 .6 1.3 1.5 2.9 2 1.6.6 3.5 2 4.1 3.2.8 1.5 1.5 1.9 2.2 1.2 1.4-1.4-.7-4.9-3.4-5.7-1.3-.4-3.1-.9-4-1.1-1-.3-1.8-.1-1.8.4zM35.4 264.4c-.8 2.2.3 3.3 1.8 1.8.9-.9.9-1.5 0-2.4-.9-.9-1.3-.7-1.8.6zM71.7 281.7c-.8 1-1.8 3.6-2.2 5.8-.4 2.2-1.6 4.7-2.7 5.5-1.7 1.4-1.8 2.1-.9 6 1.1 4.8 3.4 8.4 7.5 11.4 3.4 2.6 14.8 3.3 22 1.4 6.9-1.8 7.2-3.8.7-3.8-2.8 0-7.5-.9-10.6-2.1-4.6-1.7-6.2-3-9-7.2-3.9-5.7-4.7-11.8-2-15.3.8-1 1.5-2.2 1.5-2.7 0-1.3-2.7-.7-4.3 1zm4.1 23c1.8 1.8 5.1 3.7 7.2 4.3 4.9 1.3 5.1 2 .6 2-1.8 0-4.8-1-6.7-2.3-3.8-2.5-7.9-8.2-7.8-10.6 0-1.1.5-.9 1.7.9.9 1.4 3.1 4 5 5.7zM17.6 319.9c-1 1.5 2 6.1 3.9 6.1 2.1 0 1.9-1-.8-4.4-1.7-2-2.6-2.6-3.1-1.7zM357.2 594.7c.4 2.1 3.3 2.5 3.3.3 0-.8-.8-1.6-1.8-1.8-1.4-.3-1.8.1-1.5 1.5zM347 600.4c-.8 2.3-1.2 2.5-3 1.4-2.5-1.6-5.2.4-3.2 2.4 1.7 1.7 1.5 4.5-.5 5.7-1.4.7-2.6.4-5-1.5-1.8-1.4-3.4-2-3.8-1.4-.3.6-1.3.6-2.3.1-7.8-4-10.9-4-10.4-.3.2 1.3-.3 2.5-1.2 2.8-.9.3-1.6 1.3-1.6 2.1 0 1-.6 1.2-1.9.8-2.5-.8-3.9 1.5-1.7 2.7 2.5 1.4 1.9 2.8-1.8 4.3-3.9 1.7-4.7 2.6-5.1 6.2-.1 1.4-.8 2.9-1.4 3.3-.7.4-1 1.7-.6 3.2.6 2.1.1 2.8-3.9 4.9-2.5 1.3-4.6 2.7-4.6 3 0 .9 3.3 3.5 5.3 4.2.9.4 1.7 1.1 1.7 1.7 0 1.3-2.7 1.3-3.5 0-1-1.7-3.2-1.1-3.8 1-.3 1.4-1.4 2-3.2 2-1.7 0-2.5.5-2.2 1.2.2.7 1.1 1.3 2 1.3.8 0 2.5 1.3 3.7 2.8l2.1 2.7H295c-1.4 0-2.4.8-2.7 2.1-.4 1.6-1.2 2-2.9 1.6-3.5-.6-5 1.7-2.4 3.6 2.3 1.6 2 2.1-2.4 3.1-1.9.5-3.2.3-3.7-.5-1.1-1.9-3.8-.3-3.2 1.9.3 1.4-.2 2.1-1.7 2.5-2.6.7-1.8 2.7 1.1 2.7 1.1 0 3.4-.7 5.2-1.6 2.1-1.1 2.8-1.2 2-.3-.7.7-1.3 2.1-1.3 3.1s-.7 1.8-1.7 1.8c-.9 0-2.5.8-3.6 1.7-1 1-3.8 2.5-6 3.4-2.3.9-4.8 2.7-5.4 4-1.4 2.6-3 2.7-4.8.2-.8-1.1-2-1.4-3.9-.9-2.2.5-2.8.2-3.8-1.9-.6-1.3-2.2-3.2-3.6-4.1-2-1.3-2.3-2.2-1.9-5 .6-3.4.6-3.4-3.4-3.4-3.4 0-3.9.3-3.5 1.7.3 1-.1 3.1-.9 4.7-1.8 3.5-1.2 4.5 1.7 2.7 1.8-1.1 2-1.1 1.5.3-.5 1.2.1 2 1.9 2.6 3.5 1.4 2.1 3-2.6 3-4.4 0-6.3-2.1-5.3-5.8.4-1.7-.1-2.2-2.2-2.8-3.3-.8-5.4.9-3.6 3 1.7 2 .7 3.3-2.9 3.8-2.3.4-3 .1-2.6-.9.3-.8 0-1.6-.7-1.8-2.2-.9-7.2 1.1-7.6 3-.2 1.5.2 1.7 2.5 1.2 2.7-.5 2.9-.3 3 2.5.1 2.5-.2 2.9-2 2.4-1.2-.3-2.9-.6-3.8-.6-1 0-1.8-.7-1.8-1.6 0-1.2-.7-1.4-3.1-.9-2.5.6-3.1.4-3.6-1.4-.6-2.5-3.6-2.7-7.7-.6-1.5.8-3.2 1.3-3.6 1-1.4-.8-4 .6-4 2.2 0 1 .8 1.3 2.7 1.1 1.4-.2 2.8.2 3 .8.5 1.5-6.5 2.3-7.7.9-.9-1-8.7-1.1-9.7-.1-1.4 1.4.9 3.6 3.7 3.6 1.6 0 3 .4 3 1 0 1.6-5 1.2-6.6-.5-1.1-1.1-2-1.2-3.4-.5-1.3.7-2.1.7-2.5 0-.3-.6.5-1.4 1.9-2 1.4-.5 2.6-1.7 2.6-2.5 0-2-2.8-3.1-4.3-1.6-.6.6-2.1 1.1-3.3 1.1-1.3 0-2.6.5-3 1.1-.4.8-1.4-.2-2.6-2.5-1-2-2.6-3.6-3.6-3.6-.9 0-2.6-1.1-3.6-2.5-2-2.7-4.5-3.2-6.4-1.3-.8.8-.8 1.7-.1 3 1.1 2.1.4 3.8-1.7 3.8-.8 0-1.4.4-1.4 1 0 .5-1 1-2.2 1-1.2 0-2.9.7-3.9 1.6-1.6 1.4-1.8 1.4-2.3-.4-.4-1.1-1.3-2.3-2.1-2.6-.8-.3-1.5-1.2-1.5-2 0-1.9-3.6-3.9-5.6-3.2-1.3.5-1.2 1.1.1 4.3l1.5 3.8-2.5-3c-1.6-2-2.2-3.7-1.9-5.2.5-1.8.2-2.3-1.4-2.3-2.5 0-3.8 1.8-2.4 3.2.7.7.8 1.7.2 2.8-.5.9-.5 2.2 0 3 .4.7.6 1.9.3 2.7-.9 2.4-1.8 1.4-1.9-2.2-.1-4.5-2.2-7-3.1-3.7-.8 3.1-2.5 2.3-3.5-1.6-1-3.8-3.2-4.1-5.4-.7-1.3 1.9-2 2.3-3 1.4-1.5-1.3-5.8.6-4.8 2.2.3.5.3 1.7 0 2.6-.6 1.4-.9 1.3-2.2-.6-1.5-2-1.4-2.4 1-5.6 1.4-1.8 2.6-3.6 2.6-3.9 0-1.1-3.6-.6-4.8.6-1.4 1.4-6 2-6.7.7-.4-.5.5-.9 1.9-.9 3.2 0 4.2-1.7 2.2-3.9-.9-1-1.6-2.3-1.6-2.9 0-1.6-2.2-1.5-4.6.3-1.1.9-4.2 1.4-7.6 1.5-5.1 0-5.8.2-5.8 2 0 2.1 3.9 4.3 6.7 3.8.9-.2 2.3 1.2 3.4 3.1 1 1.9 2.2 3.7 2.7 4 .5.3 1.3 2.1 1.7 3.8.6 3.1.5 3.3-2.3 3.3-4.3 0-5.7-2.1-3-4.4 1.9-1.6 1.9-2 .7-3-.9-.6-1.8-1.9-2.2-2.9-.9-2.4-1.9-2.2-5.2 1.3-2.4 2.5-2.6 3.2-1.5 4.5.7.8 1 1.8.7 2.1-.9.9-2.7-.6-3.7-3.1s-6.3-3.9-9.2-2.4c-1.8 1-4.8.2-4.8-1.1 0-.5 1.7-1 3.8-1.2 3-.2 3.8-.7 4-2.7.3-2.1.1-2.3-2.2-1.7-2 .5-2.8.2-3.3-1.1-.3-1-1.5-2.6-2.7-3.6l-2.1-1.8 2.5.6c1.4.4 3.1 1.4 3.7 2.3 1.8 2.3 2.8.7 2.9-4.9 0-3.2-.3-4.9-1.1-4.9-1.7 0-3.7 2.5-2.8 3.4.4.4-.1.4-1.1 0-1.2-.5-2.3-.2-3 .7-1.5 1.9-4.4 2.3-6.2.8-1.7-1.4-4.4-.5-4.4 1.5 0 .7-.8 1.6-1.9 1.9-1 .2-2.1 1.7-2.4 3.3-.6 3.5-.2 4.4 2.2 4.4 2.7 0 4.5 2.4 2.8 3.9-1.1.8-1.8.6-3.2-.9-1.4-1.5-2.6-1.9-4.6-1.5-2.4.5-3 .2-4.3-2.4-1.9-3.6-2.9-4.3-5-3.5-1.9.7-2 2.7-.4 5.4 1.8 2.9.1 3.7-2.5 1.2-2.4-2.3-5.2-2.9-6.1-1.3-1.1 1.8-5.5-.1-6.6-3-.8-1.7-2-2.9-3.1-2.9s-1.9-.5-1.9-1c0-.6.4-1 .9-1 .8 0 4.1-5.4 4.1-6.6 0-.2-.7-.1-1.6.3-1 .4-2.2-.1-3-1.1-1.3-1.9-3.4-1.4-3.4.8 0 .8-.9 1.6-2 1.9-3 .8-2.4 2.7.8 2.8 2.6 0 2.6.1.5.9-2.8 1.1-3 4-.3 4.7 1.1.3 2.6 1.8 3.4 3.3 1.2 2.5 1.2 2.9 0 3.4-.8.3-2.3-.3-3.4-1.4-2.2-2.2-4.6-2.5-8.4-1L0 686v127h250c221.6 0 250-.2 250-1.5 0-.8-.1-1.6-.2-1.7-.2 0-9.9-.4-21.6-.7-21-.6-21.3-.6-19.8-2.6 1.3-1.9 1.5-1.9 3.3-.2 2.1 1.9 4.8 2.2 5.8.7.3-.5-1.3-2.8-3.6-5.1-3.5-3.5-4.5-4-5.8-3-.9.6-2.6 1.6-3.8 2.2-2.6 1.4-3.7 3.9-2.3 5.3 2 2 .9 2.6-5.1 2.6h-6.1l2.3-2.5c1.3-1.3 3-2.5 3.7-2.5 2.4 0 6.4-4.9 5.7-6.9-.8-2.7 3.3-4 5.1-1.6.8 1.1 2.1 1.6 3.4 1.2 1.3-.3 2.5.2 3.5 1.6 1.2 1.7 1.9 2 3.2 1.1 1.4-.9 2-.6 3 1.3.7 1.3 1 3 .7 3.7-.3.7.2 1.9 1.1 2.6 2.3 1.9 4.5-.5 4.5-5 0-3.6.1-3.8 3.1-3.6 3.8.1 4.9-1.8 1.9-3.4-1.5-.8-2.5-.8-3.4 0-1 .8-1.5.7-2-.5-.5-1.3.9-1.5 9.4-1.5 9 0 10-.2 11.4-2.2 2.2-3.1.5-5.5-4.4-6.3-3.4-.6-3.9-.9-2.9-2.1.9-1.1.9-1.7 0-2.8-.9-1.1-.7-1.5 1.1-2l2.3-.7-2.2-1.6c-1.3-.8-2.3-2.1-2.3-2.9 0-.8-2-1.5-5.7-1.9-8.3-.9-8.5-1.1-1.8-2 7.3-.9 9.5-2 9.5-4.5 0-2.7-3-4-8.7-3.9-7.4.2-9.1 1-11.7 5.9-1.3 2.5-3.2 4.6-4.3 4.8-2.2.3-4.9-4-5.1-8.4-.2-2.5.3-3.3 3-4.5 3.5-1.5 3.6-3.3.3-3.5-3.4-.2-3.5-.3-2.5-3 .8-2.1.6-3.4-1.2-6.5-2.9-5.1-4.1-4.9-3.3.5.5 3.2.3 5-1 6.9-.9 1.4-1.7 3.8-1.8 5.4-.2 2.3-.7 2.8-3.2 3.1-5.3.5-6 1-4.1 3 1.5 1.8 2.3 6.2 1 6.2-.4 0-1.2-.8-1.9-1.7-1.1-1.5-1.5-1.5-2.9-.4-1.9 1.6-1.2 3.1 1.5 3.1 2 0 2.7 3.4.9 4.5-1.9 1.2-1 3.5 1.5 4.1 2.9.7 2.9.8 1.3 3.4-1 1.5-1 2.2-.1 3.1 1.9 1.9 3.8-.3 5.8-6.7 1.8-5.8 1-9-1.5-5.9-1.6 1.9-3 1.9-3 0 0-.8 1.1-2.2 2.4-3 1.5-1 2.2-2.3 1.9-3.4-.2-.9.3-2.4 1.3-3.2 1.6-1.3 1.7-1.2 1.1 1-.4 1.7.1 3.3 1.9 5.3 2.7 3.3 3.1 5.8.9 5.8-.8 0-1.5.5-1.5 1 0 1.7 3.1 2.4 5 1.3 1.8-1.2 7-.6 7 .8 0 .5-1.3.9-2.8.9-3.4 0-6.5 3-5.6 5.4.4 1 1.8 1.6 3.9 1.6 3.7 0 5.4 1.4 2.9 2.4-2.6 1-5.8.6-7.8-.9-1-.8-2.2-1.2-2.7-1-.4.3-.5-.4-.2-1.5.9-3.3-2.4-2.4-4.3 1.1-1.1 2.2-2.1 3-3.4 2.6-3.5-.9-4.5.9-2.1 3.8 1.1 1.5 2.1 3.1 2.1 3.5 0 1-4.7 4.1-7 4.5-1 .2-2.9 1.3-4.2 2.5-1.3 1.1-3 2.7-3.9 3.5-1 1-3.8 1.5-8.2 1.5-6.3 0-6.7-.1-6.4-2.2.1-1.7-.3-2.3-1.8-2.3-1.3 0-2 .7-2 2 0 2-.7 2-60 2.1-33 .1-59.2 0-58.2-.3.9-.2 1.7-1.1 1.7-1.9 0-1.4-1.6-1.6-17-1.9-3.6 0-7.4-.6-8.6-1.2-1.1-.7-2.6-.8-3.3-.4-2 1.3-.9 4.4 1.9 5.2 3 .8 5.7.8-68.5 1.1-55.5.3-57 .2-56.7-1.6.2-1-.1-2.2-.8-2.6-1.3-.8-.3-9 1.1-9 .5 0 1 1.5 1.1 3.2 0 1.8.2 3.9.2 4.5.3 3.4 6.4 4.8 12.3 2.9 1.3-.4 3.4-.1 5.3.9 4.3 2.2 5.3 1.6 5.6-3.4.2-3.6-.2-4.4-2.4-5.8-1.5-.9-2.9-1.8-3.1-2-.2-.1.1-.9.8-1.7 1.6-1.9-3.6-12.7-5.9-12.5-.8.1-2.3-.2-3.4-.6-1.2-.5-2.1-.3-2.7.6-.5.8-.9 1.1-.9.7 0-.4.9-2.2 2-4 1.3-2.2 1.8-4.3 1.5-6.3-.6-3.4.7-6.1 2.4-5.1.7.5.7 1.2-.1 2.5-.9 1.5-.8 2.9.6 6.6 1.9 4.9 4 6.5 5.9 4.6.9-.9.7-2-.7-4.6-1.5-2.8-1.7-3.7-.6-5 .7-.8 1.8-1.5 2.6-1.5 2.9 0 2.6-2.5-1.1-8.9-1.8-3.2-.8-4.9 1.2-2.1l1.5 2.1 2.3-2.1c1.3-1.2 2.9-2 3.7-1.8.8.3.3 1.1-1.5 2.2-3 2-3.5 4.3-1.1 5.3 1.3.5 1.2.8-.5 2.5-2.5 2.2-2.6 3.1-.7 4.7 1 .8 2.1.7 4.5-.5 2.8-1.4 3.2-2.1 2.9-4.5-.3-1.7.1-3.4.9-4.1 2.4-1.9 3.2.4 1.7 4.7-1 2.9-1.2 6.3-.7 12 .3 4.4.6 9.3.6 10.8 0 2 .4 2.7 1.6 2.5 1.1-.3 1.6-1.4 1.5-3.6-.2-2.5.2-3.2 1.7-3.2 1 0 1.9-.5 1.9-1.2 0-.9.3-.9 1.2 0 .9.9.8 2.1-.4 5-1.3 3.5-1.4 4.3-.1 7.3 1.1 2.6 1.2 3.8.3 5.3-1.5 2.3-.2 3.3 5.5 4.1 4.9.7 10-.6 10-2.6 0-1.8-4.2-2.4-6.1-.9-1.2 1-1.8.3-3.8-4.1-1.6-3.6-2.1-5.8-1.4-6.6.6-.7.6-1.9-.1-3.1-.5-1-.8-2.8-.5-3.9.3-1.2.1-3-.5-4.1-.8-1.5-.7-2.3.4-3.2 1.1-.9 1.2-1.7.4-3.2-.8-1.5-.7-2.2.6-3.2 1.6-1.1 1.5-1.5-.8-4.2l-2.5-2.9-1.1 2.8c-.6 1.6-1.1 3.7-1.1 4.7 0 1.8-1.7 3.6-2.6 2.7-.2-.2-.1-3.6.2-7.6.6-5.8.9-6.9 2-6 1.6 1.4 1.7.9.5-2.5-.8-1.8-1.5-2.3-3-1.9-2.4.6-2.6 0-1.1-2.7 1.1-2 .4-7-.9-7-.4 0-1.6 1.9-2.7 4.2-1.8 4-2.1 4.3-5.4 4-2.1-.3-4-1.2-5-2.5-1.7-2.5-1.4-3.3 1.1-2.9 1.1.2 2.5-.8 3.5-2.4 1-1.5 3.3-3.3 5.1-4 2.3-1 3.3-2.1 3.3-3.7l.1-2.2 1.9 2.4c1.4 1.5 2 3.9 2 7 0 2.5.7 5.5 1.5 6.5.8 1.1 1.5 3 1.5 4.3 0 1.4.6 2.3 1.5 2.3.8 0 1.5-.6 1.5-1.3 0-1.9 3.9-4 5.4-2.8 1.4 1.1 17.2.4 19.8-1 .9-.5 2.8-.9 4.2-.9 1.4 0 2.9-.7 3.4-1.6.8-1.5 1-1.5 1.5 0 .7 1.8 4.2 2.2 5.2.6.3-.5 1.6.2 2.8 1.6 2.1 2.4 2.6 2.5 7.2 1.7 3.2-.6 8.1-.5 13.5.3 4.7.6 9.2.8 10 .4.8-.3 3.6-.7 6.3-.8 2.6-.1 5.5-.6 6.5-1.1 1.1-.6 2.4-.6 3.5.1 1.5.8 1.9.6 2.4-1 .9-3.8 7-1.5 8.6 3.2.3.8 1.1.7 2.9-.3 1.4-.7 4.1-1.4 5.9-1.5 4.2-.3 10.1 2.3 9.5 4.1-.7 1.6 1.3 2.8 4.1 2.5 1.1-.2 2.4.1 2.7.6.8 1.4 6.6.2 6.6-1.4 0-.9 1.2-1.4 3.5-1.4 2.2 0 4.3-.8 5.5-2 2.4-2.4 4.6-2.6 5.3-.6.4.9-.2 1.7-1.4 2.1-1.4.5-1.9 1.3-1.6 2.6.4 1.5-.2 1.9-3.7 2.4-6.1.9-13.8.9-16.3.1-1.7-.6-2.3-.5-2.3.7 0 .8.6 1.9 1.3 2.5 1.3 1.1 26.2 1 27.3-.1.4-.4.1-1.3-.5-2.1-1-1.2-.8-1.7.8-2.6 1.4-.7 2.1-2.1 2.1-4 0-2.3.4-3 2-3 1.3 0 2.4-1 3.1-2.7.9-2.3.7-3-1.3-4.5-1.3-.9-4.2-2-6.5-2.4-3.5-.5-4.6-1.2-5.8-3.7-.9-1.9-1.3-4.2-1-5.9.8-3.6 2.3-3.6 2.7-.1.4 3.8 3.2 3.7 3.5-.1.2-3.5-1.7-5.2-6.9-6-4.6-.8-5.1-1.5-3.2-5.1 2-4 1.5-8-1.1-8-1.3 0-2.1.8-2.3 2.2-.4 3-1.8 2.9-2.6-.2-.4-1.4.1-3.8 1-5.9 1.8-3.7 1.2-7.8-.8-5.8-.7.7-1.6 1.2-2 1.2-1.5 0-.8-2.7 1.1-4.4 1.1-1 2.1-3 2.3-4.4.2-2 1-2.8 3.4-3.3 1.7-.3 3.7-.9 4.4-1.4 1.8-1.1-1.5-2.8-4-2-3.1 1-2.3-1.1.9-2.5 1.6-.6 4.1-2.5 5.7-4.1 3.2-3.3 5.9-3.7 7.3-1 1.3 2.4-.2 3.8-4.4 4.3-4.1.4-4 3.2 0 3.6 2.1.2 4.3-.6 7-2.5 2.2-1.6 6.6-4.1 9.7-5.6 6.1-3 9.8-6.2 13.8-12 3-4.3 4.5-4.6 7.6-1.2 1.2 1.3 3.5 2.7 5.1 3 7.8 1.6 10.3 5.8 4.9 8.3-2.4 1.2-2.8 1.8-2.3 4.6.4 2.5.1 3.5-1.4 4.4-1 .7-1.9 1.9-1.9 2.7 0 2.2 4.2 6.5 7 7 1.3.3 3.3 1.4 4.4 2.5l2 2h-2.1c-1.2 0-2.6-.7-3.1-1.7-1.3-2.2-4.7-.9-3.8 1.4.4.9.1 2-.6 2.4-1 .7-1.1 1.2-.1 2.8.8 1.3.9 2.2.3 2.6-1.8 1.1-1.1 3.5 1 3.5 2 0 2.6 1.1 1.3 2.3-.3.4-1.2.2-1.8-.3-1.7-1.4-4.5-.2-4.5 1.9 0 .9.9 3.4 2 5.5 2.1 4.1 1.8 6.5-.6 4.5-1.1-.9-1.8-.8-3 .2-1.4 1.2-1.4 1.4.3 2.6 1.5 1.2 1.6 1.5.3 2.3-2 1.3-3.7 1.2-4.5 0-.3-.5-1.8-1-3.3-1-2 0-2.3-.3-1.4-1.2 1.8-1.8 1.4-2.8-1.2-2.8-1.5 0-3 1-4.1 2.6-1.6 2.5-1.6 2.7 0 3.6 1.5.9 1.5 1.1 0 2.8-1 1.1-1.4 2.6-1.1 3.8.6 1.6.3 1.9-1.9 1.4-2.6-.5-3.3.6-1.4 2.5 2.1 2.1-.1 3.5-4.6 2.8-4.9-.7-6.8.8-3.9 3 2.4 1.8 9.3 1.7 12.1-.1 1.2-.7 2.9-1.1 3.7-.8 1.4.5 1.3.9-.2 3-1 1.4-2.4 2.1-3.4 1.8-2.1-.6-3.5 1.5-1.7 2.7 1.9 1.2 7.9 1.1 7.9-.1 0-.6 1.1-1.6 2.5-2.2 3.1-1.4 3.2-3.2.3-4.5-2.1-.9-1.7-1.2 3.6-2.7 3.2-1 6-1.5 6.3-1.2 1.1 1-.9 4.5-3 5.2-2.7.8-6.7 4.5-6.7 6.1 0 1.7 3.5 3.4 5.4 2.7 2-.8 2.1.5.1 2-1.4 1-1.4 1.5 0 4.4 1.9 3.8 4.1 4.1 5.6.8.6-1.3 2-2.7 3-2.9 2.5-.7 2.4-1.9-.6-5.1-2.7-2.9-3.3-6.6-1.1-6.6.7 0 1.9-.7 2.6-1.5 1-1.2 1.6-1.3 2.6-.4.8.7 2.7.9 4.6.5 2-.4 3.7-.1 4.7.8 2.2 1.9 8.2.9 8.8-1.5.6-2.2.7-2.2 3.1-1 .9.5 6.3 1.5 11.9 2.2 11.1 1.3 15.9.5 14.7-2.6-.4-1 0-1.5 1.5-1.5 1.2 0 2.1-.6 2.1-1.5 0-1.5-3.2-3.7-5.3-3.4-2.7.3-3.7-.2-3.7-2.1 0-1.3-.7-2-1.9-2-2.3 0-4.5-2.5-3.8-4.3.3-.8 1.9-1.7 3.5-2 1.7-.3 5.4-2.6 8.4-5 4.2-3.4 5.9-4.2 7.5-3.6 1.2.4 2.4 1.2 2.8 1.8.8 1.4 4.5 1.4 4.5 0 0-.6 1.2-.9 2.8-.7 3.5.4 3.7 3.3.2 3.3s-3.2 2.8.5 3.6c1.7.4 5.1 1.4 7.6 2.2 3 1 5.1 1.2 6.2.5 1.3-.7 1.9-.5 2.3.7.9 2.1-2.2 6.5-4.6 6.5-1.2 0-2.5 1-3.2 2.5-.6 1.4-1.9 2.5-2.9 2.5s-2 .4-2.3.9c-.7 1.1 4.9 2.5 6.3 1.7.5-.3 1.1.3 1.4 1.4.6 2.2 3.7 2.8 3.7.6 0-2.5 2.6-3.9 5-2.6 1.6.9 3.3.8 6.9-.1 4.5-1.1 5.1-1 8.5 1l3.6 2.3v-45.5c0-42.4-.1-45.5-1.7-46-1-.3-3-1.4-4.6-2.4-2.1-1.4-3.1-1.5-4.5-.7-.9.6-2.4.8-3.2.3-.8-.4-2.3-1-3.2-1.3-1.3-.4-1.8-1.6-1.8-4.4 0-4.5-2.3-7.2-6.3-7.2-3.4 0-4.3-1.7-2.1-4.1 1.6-1.8 1.6-1.9 0-1.9-2.1 0-6.6 2.9-6.6 4.3 0 .6-.7 1.9-1.6 2.9-1.3 1.3-1.4 2.1-.5 3.1.8 1.1.6 1.9-1.2 3.8-1.3 1.3-3.2 2.9-4.2 3.5-1.1.6-1.5 1.5-1.1 2.3.6.9 1.1.9 2.1.1.8-.7 1.9-.9 2.5-.5.8.5.4 1.2-.9 2.2-1.2.8-1.9 1.9-1.6 2.4 1 1.5-1.7 1-3.7-.7-1.4-1.4-2-1.4-3.3-.4-1.4 1.2-1.4 1.5 0 3.6 2.2 3.4.2 6.4-4.2 6.4-2.8 0-3.2-.3-3-2.2.1-1.8-.4-2.4-2.3-2.6-1.4-.2-2.9-1-3.3-1.8-1.3-2.2-3.7-1.7-3.7.8 0 1.3-.5 3-1 3.8-.9 1.3-1.4 1-3.4-1.4-1.7-2.1-3-2.7-4.5-2.3-2.5.6-2.5.8-.5-4.4 1.1-2.5 1.3-4.3.7-4.7-.5-.4-1.3-1.5-1.6-2.6-.4-1-1.3-1.6-2.2-1.2-2.3.8-2.9-1.3-.9-3.5 2.5-2.8.7-4.1-3.9-2.8-3.2.9-4.1.7-6.4-1-2.4-2-2.5-2.1-.4-2.1 1.1 0 2.1.4 2.1 1 0 1.5 3.4 1.2 5.6-.5 1.6-1.3 1.7-1.6.4-2.4-4.2-2.6-5.2-4-5.7-7.9-.6-4.1-.7-4.3-3.4-3.7-3.1.7-3.8-.5-1.4-2.5 1.9-1.6.9-3.3-1.5-2.5-1 .3-2.1.1-2.5-.5-.3-.5-1.5-1-2.6-1s-1.7-.5-1.4-1c.3-.6 1.7-1 3-1 3.1 0 4.3-2 1.6-2.7-2.1-.5-3-2.3-1.1-2.3.6 0 1-.7 1-1.6 0-1.1-.6-1.5-2-1.1-1.3.3-2.4-.1-3-1.4-.6-1-1.7-1.9-2.5-1.9-2 0-1.9-.7.5-3.7 1.9-2.4 2.7-5.3 1.4-5.3-.3 0-1.4.5-2.5 1-1.3.8-2.5.7-4 0-1.4-.8-2.4-.8-3.3-.1-.9.7-1.6.7-2.4-.1-.6-.6-1.8-.7-2.9-.3-2.8 1.2-5.6.5-8.3-2.1-2.5-2.3-7-2.5-7-.2 0 .5-1.9.8-4.2.6-3.8-.2-4.3 0-4.6 2-.4 2.6-.6 2.6-3.3.9-1.7-1-2.2-.9-3.3.5-.7 1-1.6 1.8-2 1.8-1.2 0-.6-2.8.9-4 2.2-1.8 1.8-3-1-3-1.9 0-2.4-.5-2.2-2.1.3-3.2-2.1-3.5-3.3-.5zm27 7c0 1.7-2.5 3.8-3.3 2.9-1.4-1.4-.6-3.9 1.3-4 1.1-.1 2 .4 2 1.1zm5.5 2.6c.3.5-.1 1-.9 1-.9 0-1.6-.5-1.6-1 0-.6.4-1 .9-1 .6 0 1.3.4 1.6 1zm10.5 1.5c0 .9-.9 1.5-2.2 1.5-2.2-.1-2.3-.1-.4-1.5 2.5-1.9 2.6-1.9 2.6 0zm-63 1.5c0 .5-.5 1-1.1 1-.5 0-.7-.5-.4-1 .3-.6.8-1 1.1-1 .2 0 .4.4.4 1zm9.4 3.2c2.1 4.1 2 4.2-.9 1.6-1.4-1.2-2.5-3-2.5-4 0-2.5 1.5-1.5 3.4 2.4zm38.6-1.1c0 .5-.4.9-1 .9-.5 0-1-.7-1-1.6 0-.8.5-1.2 1-.9.6.3 1 1 1 1.6zm19-.1c0 .5-.4 1-.9 1-.6 0-1.3-.5-1.6-1-.3-.6.1-1 .9-1 .9 0 1.6.4 1.6 1zm-40 2c2.4 2.4 2.5 3.6.4 4.4-2.1.8-3.4-.1-3.4-2.3 0-.9-.5-2.2-1.2-2.9-.9-.9-.8-1.2.5-1.2.9 0 2.6.9 3.7 2zm-25 2.6c0 .8-.5 1.2-1 .9-.6-.4-.8-1.1-.5-1.6.9-1.4 1.5-1.1 1.5.7zm17-1.2c0 .3-.4.8-1 1.1-.5.3-1 .1-1-.4 0-.6.5-1.1 1-1.1.6 0 1 .2 1 .4zm-24 3.1c-.7.8-1.6 1.5-2.1 1.5s-.1-.9.8-2 1.9-1.7 2.1-1.5c.3.3-.1 1.1-.8 2zm27 2.9c0 1.4-.5 2.8-1 3.1-1.3.8-2.4-2-1.6-4 .9-2.4 2.6-1.7 2.6.9zm30.4 1.5c.3.5 0 1.4-.8 2-1 .9-1.7.6-2.9-1.3-.9-1.3-1.3-2.6-1-3 .6-.6 3.9.9 4.7 2.3zm-14 1c.7 1.1-1.4 2-3.1 1.3-.7-.2-1.3-.8-1.3-1.3 0-1.2 3.7-1.2 4.4 0zm24.6 3.2c0 1.2-.5 1.9-1.1 1.7-.6-.2-1-.7-1-1.1.1-.4.1-1.4.1-2.3 0-.8.5-1.2 1-.9.6.3 1 1.5 1 2.6zm-65.3 2.3c-2.3 3.3-4.5 3.3-3.9-.1.6-3.4 2.2-4.6 3.9-3.1 1.1.9 1.1 1.5 0 3.2zm29.8-1c-1 .7-1.6 2-1.2 2.9.5 1.3 1.1 1.3 4.6-.5 4.7-2.3 9-1.8 9.8 1.2.6 2.4 1.6 2.5 3.2.6 1-1.1.8-1.7-.6-2.5-2.5-1.4-.3-3.7 2.3-2.3 1.1.5 2.5.7 3.2.5 1.5-.6 1.6.9.1 2.4-1.6 1.6-.1 3.6 2.2 3 2.7-.7 3.4 1 1 2.3-1.2.6-1.8 1.6-1.4 2.6.3.8-.2 2.1-1.3 2.9-1.1.7-1.6 1.7-1.2 2.1.5.4 1.6 0 2.6-.9 1-1 2.5-1.7 3.3-1.7 1.4 0 5.9 5 5.9 6.6 0 .3.9 1.8 1.9 3.3 2.7 3.7 1.7 8-2 9.5-4 1.5-3.6 3 .5 2.2l3.4-.7-.1 4.1c-.2 3.3-.5 4-2.3 4-1.2 0-3.3-1.1-4.8-2.5-3.8-3.5-8.2-5.6-10.1-4.9-.9.4-3.6 3.7-6.1 7.5-2.4 3.8-4.9 6.9-5.4 6.9s-2.6 1.1-4.6 2.5c-2 1.4-4.2 2.5-4.9 2.5-.6 0-3-1.6-5.2-3.5-2.3-1.9-4.3-3.5-4.6-3.5-.3 0-2.9 2.2-5.8 4.9-5.4 5-12.3 9-13.6 7.7-.4-.3-.1-1.2.5-1.8.7-.7 1.2-2.2 1.2-3.4 0-1.5.8-2.4 2.5-2.8 4-1 3.1-3.4-1.5-3.8-2.2-.2-3.9-.8-3.8-1.3.2-.6 1.2-.9 2.3-.8 4 .3 4.9-.5 3.1-3.2-1.9-2.9-1.1-5.5 1.7-5.5 2.2 0 5.7-2.6 5.7-4.3 0-.5-1.5-.7-3.5-.4-2.7.4-3.5.2-3.5-1 0-.8-.9-1.7-2-2-2.7-.7-2.5-2.7.5-4.7 1.4-.9 2.5-2.6 2.5-3.8 0-1.2.7-3 1.7-4 1.3-1.5 1.4-2.3.5-4.3-1.3-2.8-1.3-2.9 2.4-1.5 2.4.9 3.1.7 5.5-1.6 2.2-2.1 2.6-3 1.7-4.1-1.3-1.6-1.4-1.4 3.7-3.6 4.3-1.7 6.8-2.4 9.9-2.6 1.9-.1 1.9-.1.1 1.3zm-18 4.5c-.3.6-1.1 1.1-1.7 1.1-.6 0-.6-.6.2-1.5 1.4-1.7 2.6-1.3 1.5.4zm51.2.7c-.3.3-1.2.4-1.9.1-.8-.3-.5-.6.6-.6 1.1-.1 1.7.2 1.3.5zm-3.7 2.8c0 .3-.4.8-1 1.1-.5.3-1 .1-1-.4 0-.6.5-1.1 1-1.1.6 0 1 .2 1 .4zm7.9 4.3c-2 2.3-3.8 1.5-3.5-1.5.2-1.5.4-2.9.5-3.1 0-.2 1 .4 2.1 1.4 1.5 1.4 1.7 2.1.9 3.2zm4.6 5.4c1 1.5.2 1.9-2.4 1.2-1.7-.4-1.9-.8-.9-1.4 1.8-1.2 2.6-1.1 3.3.2zm10.5.9c0 .5-.2 1-.4 1-.3 0-.8-.5-1.1-1-.3-.6-.1-1 .4-1 .6 0 1.1.4 1.1 1zm-94.1 4.8c3.2-1.1 3.8-.3 1.6 2.2-2.6 2.9-6.3 2.6-7.5-.6-1.4-3.6-1.3-3.8 1.3-2.2 1.5 1.1 2.9 1.3 4.6.6zm160.9.5c1.6.1 1.8.4 1 1.4-.9 1.1-1.4 1-2.9-.3-1.1-1-1.9-2.2-1.9-2.8 0-.6.4-.6.9.2.4.7 1.7 1.4 2.9 1.5zm16.6 13.6c-.7.9-2.4-1.3-2.4-3.2 0-2.1.1-2.1 1.3.3.8 1.4 1.2 2.7 1.1 2.9zm-82.7-.5c-.6 1.7-4.1 1.3-4.5-.5-.2-1.3.3-1.5 2.3-1.1 1.4.2 2.4 1 2.2 1.6zm64.8.6c1.1 1.7-.5 3.2-2.1 1.9-.8-.6-1.4-1.5-1.4-2 0-1.2 2.7-1.1 3.5.1zM305 673c0 .5-.4 1-1 1-.5 0-1-.5-1-1 0-.6.5-1 1-1 .6 0 1 .4 1 1zm98.3 1.5c2.3 3.2 1.6 4.3-2.3 3.7-2.3-.3-3-.9-3-2.6 0-4.3 2.6-4.8 5.3-1.1zM294.5 676c0 .7-.6 1.5-1.2 1.7-.8.3-1.3-.4-1.3-1.7 0-1.3.5-2 1.3-1.8.6.3 1.2 1.1 1.2 1.8zm-236.6 4.2c1.2 1.9 1.6 3.4 1 3.7-1.4.4-5.9-3.9-5.9-5.6 0-2.4 2.8-1.3 4.9 1.9zM437 679c0 .5-.4 1-1 1-.5 0-1-.5-1-1 0-.6.5-1 1-1 .6 0 1 .4 1 1zm7.8 4.8c.2.7-.2 1-1.2.6-.9-.3-1.6-1.1-1.6-1.6 0-1.3 2.3-.5 2.8 1zm15-.6c-.6 1.8-2.8 2.1-2.8.4 0-.9.7-1.6 1.6-1.6.9 0 1.4.5 1.2 1.2zM320 684.5c0 .8-.4 1.5-1 1.5-.5 0-1-.7-1-1.5s.5-1.5 1-1.5c.6 0 1 .7 1 1.5zm151 5.2c0 1.3-2 1.9-2 .5 0-.4-.3-1.8-.6-3.2-.5-2.4-.5-2.4 1-.6.9 1.1 1.6 2.6 1.6 3.3zm-370.5-2.8c.3.5-.4 1.3-1.6 1.6-2.3.8-3.4.1-2.4-1.4.8-1.3 3.2-1.4 4-.2zm62.5 5c0 1.2-.5 1.1-2.1-.6-1.3-1.3-1.8-2.6-1.4-3.4.6-.9 1.1-.7 2.2.6.7 1.1 1.3 2.6 1.3 3.4zm136.1-3.4c-.1 1.5-2.4 1.2-2.9-.3-.3-.9.2-1.3 1.2-1 1 .1 1.7.7 1.7 1.3zm190.9 2c0 1.6-3 4.8-3.8 4.1-.2-.3 0-1.2.7-2 .6-.8 1.1-1.8 1-2.2-.3-1.8.1-2.5 1.1-1.9.6.3 1 1.2 1 2zm-263-.5c0 .5-.5 1-1.1 1-.5 0-.7-.5-.4-1 .3-.6.8-1 1.1-1 .2 0 .4.4.4 1zm13.5 0c.3.5.1 1-.4 1-.6 0-1.1-.5-1.1-1 0-.6.2-1 .4-1 .3 0 .8.4 1.1 1zm16 0c-.3.5-1.6 1-2.8 1-1.8 0-1.9-.2-.7-1 2-1.3 4.3-1.3 3.5 0zm48.5 0c0 .5-.4 1-1 1-.5 0-1-.5-1-1 0-.6.5-1 1-1 .6 0 1 .4 1 1zm128 .9c0 .6-.4 1.3-1 1.6-.5.3-1-.1-1-.9 0-.9.5-1.6 1-1.6.6 0 1 .4 1 .9zm-387.2 1.3c-.6 1.8-2.8 2.1-2.8.4 0-.9.7-1.6 1.6-1.6.9 0 1.4.5 1.2 1.2zm7 .7c.3.8-.1 1.2-.9.9-.7-.2-1.5-1-1.7-1.7-.3-.8.1-1.2.9-.9.7.2 1.5 1 1.7 1.7zm19.7-.9c.3.5-.1 1-.9 1-.9 0-1.6-.5-1.6-1 0-.6.4-1 .9-1 .6 0 1.3.4 1.6 1zm132.6 1.3c-1 .9-1.1.8-.5-.6.3-1 .9-1.5 1.2-1.2.3.3 0 1.1-.7 1.8zm10.1.9c-.8.8-.9.4-.5-1.3.4-1.3.8-1.8 1.1-1 .2.7-.1 1.8-.6 2.3zm31.3-2.2c.3.5.2 1-.4 1-.5 0-1.3-.5-1.6-1-.3-.6-.2-1 .4-1 .5 0 1.3.4 1.6 1zm193.1 1.7c-1 1-1.9-.5-1-1.8.6-1.1.8-1.1 1.2 0 .2.7.1 1.5-.2 1.8zm-405.1-.3c1.1 0 2.3.8 2.6 1.6 1.1 2.5-.2 3.2-2.2 1.4-1.7-1.5-2.4-1.6-5.4-.5-2.6.9-4 .9-5.6.1-1.1-.7-1.8-1.4-1.5-1.7.3-.3 1.2 0 2.1.7 1.8 1.5 4.5.6 4.5-1.6 0-1.2.5-1.4 1.8-.9.9.4 2.6.8 3.7.9zm87.5.1c1.1 1.3.8 1.5-2 1.5-2.9 0-3.2.2-2.8 2.5.6 3-.3 3.2-2.7.5-1-1.1-2.4-2-3.2-2-.7 0-1.3-.5-1.3-1.1 0-.8 1.2-1 3.5-.6 2.4.4 3.9.1 4.8-.8 1.6-1.8 2.2-1.8 3.7 0zm-60 0c0 .2-1.1 1.5-2.5 2.9-2.4 2.4-2.5 2.4-3.5.5-.9-1.6-.7-1.9 1-1.9 1.1 0 2-.5 2-1 0-.6.7-1 1.5-1s1.5.2 1.5.5zm92.4.1c.9.3 1.6 1 1.6 1.5 0 1.4-2.6 1-4-.6-1.3-1.6-.3-2 2.4-.9zm16.6 2c0 1.6-.2 1.6-2.4.8-1.3-.5-1.4-.9-.5-2 1.3-1.6 2.9-.9 2.9 1.2zm222 .4c0 .5-.5 1.2-1.1 1.6-1.2.7-3.1-1.5-2.3-2.8.6-.9 3.4.1 3.4 1.2zm-137-.1c0 .5-.7 1.1-1.5 1.5-1.5.5-2-.5-.8-1.7.9-1 2.3-.9 2.3.2zm-147.2 1.5c.2.3.1 1-.3 1.6-.5.8-1.3.6-2.6-.6-1-.9-2.5-1.4-3.4-1-1 .4-1.4.2-.9-.5.6-1 6.1-.6 7.2.5zm103.6.1c-.7 1.6-2.4 2.1-2.4.6 0-.8.7-1.3 2.7-2 .1-.1 0 .6-.3 1.4zm-166.3.5c3.4 0 3.8 1.5.8 3.1-1.8.9-2.4.8-3.1-.5-.5-.9-1.8-1.6-2.9-1.6-1.2 0-1.7-.4-1.4-1.1.4-.6 1.4-.8 2.2-.5.8.3 2.8.6 4.4.6zm92 1.7c-.9 3.5-2.7 4-3.3.9-.6-2.9-.2-3.6 2.3-3.6 1.4 0 1.6.5 1 2.7zm64.6-1.2c.3.9.3 1.8.1 2-.7.8-6.8-1.6-6.8-2.6 0-1.6 6-1 6.7.6zm20.7-.7c.5.8-6.3 4.7-6.9 4-.6-.5 2-3.5 3.5-4.1 2.2-.8 2.8-.8 3.4.1zm17.5.9c-.1 1 .2 2.8.6 4 .4 1.4.3 2.3-.3 2.3-1 0-2.2-3.2-2.2-6.3 0-.9.4-1.7.9-1.7.6 0 1 .8 1 1.7zm40.1-.2c0 .8-.4 1.5-1 1.5-.5 0-1-.7-1-1.5s.5-1.5 1-1.5c.6 0 1 .7 1 1.5zm11 1.1c0 2-3 3-4.1 1.3-1.3-2-1.1-2.7.9-3.2 2.2-.5 3.2.1 3.2 1.9zm169.5-1.1c.5 0 1.1.8 1.3 1.7.4 2.1-2.7 2.5-4.5.7-1.4-1.4-.5-4.1 1.1-3.2.6.4 1.5.8 2.1.8zm-395.1.4c.9 1.4-2.2 3.4-4.1 2.6-1.7-.6-1.7-.7.1-2.1 2.3-1.6 3.3-1.8 4-.5zM163 700c0 2-2.5 3.8-3.6 2.7-.7-.6 1.8-4.7 2.8-4.7.5 0 .8.9.8 2zm13.5 0c-.3.5-1.3 1-2.1 1s-1.2-.5-.9-1c.3-.6 1.3-1 2.1-1s1.2.4.9 1zm131.5 2c0 2.3-1.8 3.6-3.2 2.2-.7-.7-.6-1.7.2-3.1 1.3-2.4 3-1.9 3 .9zm15.3.2c-.6 3-2.7 3.8-3.6 1.4-.4-1.1 3.2-4.9 4-4.2.1 0-.1 1.3-.4 2.8zm77.7-1.7c0 .8-.4 1.5-.9 1.5-1.3 0-2.2-1.6-1.4-2.4 1.1-1.1 2.3-.6 2.3.9zm72-.5c0 .5-.5 1-1.1 1-.5 0-.7-.5-.4-1 .3-.6.8-1 1.1-1 .2 0 .4.4.4 1zm10.5 0c.7 1.1-4.2 3.7-5.1 2.7-.9-.9 1.5-3.7 3.2-3.7.7 0 1.6.4 1.9 1zm-405.4 1.2c.6 6.5.3 8.1-1.8 8.9-1.7.6-2.2 1.7-2.5 6.4-.1 3.1.1 5.9.6 6.3 1.6.9 5.4-4.5 6.1-8.8l.7-4.2 2.9 2.8c2.8 2.7 2.9 2.7 4.9.9 1.1-1 2-1.3 2-.8 0 .6-.7 1.3-1.5 1.7-2.6.9-1.7 2.6 1.4 2.6 3.7 0 5 1.9 2.6 3.6-1.3 1-1.8 2.5-1.7 5.2.1 2.8-.4 4.4-1.8 5.7-2.5 2.3-4.9.6-4.3-2.9.7-3.3-.8-3.8-5.9-1.9-2.5.9-5.3 1.3-6.2 1-2.9-1.1-3.1-.8-3.1 5.6-.1 3.4-.4 6.8-.9 7.5-.5.9 0 2.2 1.5 3.8 2.3 2.5 2 4.6-.4 2.6-1.7-1.5-2.7-.6-2.7 2.5 0 1.6.8 2.7 2.5 3.3 3.1 1.2 3.2 2.2.3 3.5-2.9 1.2-3.4 4.7-1.2 6.9 1.5 1.6 1.5 1.8 0 3.5-1.3 1.5-1.5 2.6-.8 5.9.8 3.4.7 4.1-.8 4.5-1.5.4-1.6 1.5-1.2 8.8.2 4.9 1 9.4 1.9 10.7 1.1 1.8 1.2 2.7.3 3.8-1.8 2-3 .8-3-3.1 0-2-.6-3.5-1.5-3.9-1.4-.5-1.4-.9-.2-3.3 1.1-2.1 1.2-4.2.6-8.3-.4-3-.8-6.3-.8-7.3-.1-.9-.6-1.7-1.3-1.7-1.2 0-10.7 9.9-10.8 11.2 0 .4.9 1 2.1 1.3 1.9.6 1.9.8.4 2.5-1.9 2.1-.6 3.5 2.5 2.5 2.8-.9 2.6 1.6-.5 5.3-3.2 3.8-3.2 5.2.3 5.2 1.9 0 2.3.3 1.3.9-1.3.9-1.2 2.4.4 6.4.7 1.6-.1 1.7-12.1 1.5-12.1-.3-12.9-.4-12.9-2.3 0-1.4-.8-2.1-2.8-2.3-4-.5-4.4-2.8-1.3-6.1 2.4-2.5 2.5-2.9 1-4.2-1.8-1.5-3.8-5.8-3.5-7.5 0-.6-.6-1.7-1.4-2.4-.8-.7-1.5-2.2-1.5-3.4 0-1.2-.7-3.2-1.7-4.5-.9-1.3-1.9-3.8-2.2-5.5-.8-3.5-3.6-4.7-4.5-1.8-.4 1.1-.1 3.2.5 4.8 1.2 3.2 1.6 18.4.6 20.1-.4.6-.4 1.8-.1 2.7.4 1 .1 1.6-.8 1.6-1.1 0-1.5-1.4-1.4-5.9.1-4.2-.4-6.4-1.6-7.8-1.2-1.3-1.4-2.3-.7-3.6.6-.9.8-2.5.5-3.5-.7-2.3-.8-9-.3-19 .4-7.5.3-8.2-1.4-8.2-2.3 0-2.5-1.3-.4-3 2.3-1.9 1.8-3.3-1-2.6-2.1.5-2.7.2-3.5-1.9-2-5.3-.1-11.3 2.2-7.1 1.2 2.2 3 1 2.3-1.6-.4-1.2 0-2.7 1.2-4 1.8-2 1.7-2.1-.4-3.5-2.2-1.5-3.4-4.1-1.2-2.8.5.4 1.9-.1 2.9-1 1.2-1.1 2.6-1.5 3.7-1 1.7.6 1.7.7.1 1.9-2 1.5-2.4 3.6-.7 3.6.7 0 .9.9.5 2.4s0 2.8.9 3.6c.9.7 1.3 2.1 1 3.1-.4 1.1-.2 1.9.2 1.9 1.7 0 3.3-2.4 3.3-5 0-3.4.4-3.7 4-3.2 2.1.3 3 1 3 2.3 0 1.2 1.1 2.3 2.6 2.9 2.1.8 2.4 1.3 1.4 2.5-.6.8-1 3.1-.8 5.2.2 3.2 0 3.8-1.7 3.8-1.2 0-2.1-.8-2.3-2-.7-3.5-1.8-3.7-6.3-1.5-5.5 2.8-5.2 2.5-5.5 5.7-.1 1.6-.5 4.9-.9 7.5-.8 5 .4 7.8 3.2 7.8 2.2 0 2.7-2.9.7-5.1-1.3-1.5-1.5-2.2-.6-3.1.9-.9 1.2-.7 1.2 1 0 2.9 5.5 5.9 7.6 4.1 1.2-1 1-1.6-1.8-4-1.7-1.6-2.9-3.1-2.7-3.4.5-.5 4.2-.6 17.4-.5 5 0 10.3 0 12 .1 1.6 0 3.6.6 4.5 1.4.9.8 2.2 1.5 2.8 1.5 1.9 0 1.4 1.5-1.3 4-2.8 2.7-2.3 4.4 1.1 3.6 3-.8 3.1 0 .2 2.4-2.3 1.8-2.3 1.9-.3 2.5 1.1.4 2.8 1.1 3.9 1.7 2.6 1.4 4.5-.6 2.9-3-.6-1-.9-3-.6-4.5.3-1.7.1-2.7-.6-2.7-.8 0-.7-.7.3-2.2 3.3-4.7 1.1-9.2-3.3-6.8-1.4.7-2.1.7-2.1.1s1.8-2 4-3.1c4.3-2.2 5.2-4.9 1.9-5.7-2-.6-2.1-1.4-.4-5.6.5-1.2.2-1.7-1.1-1.7-1.7 0-1.6-.3.4-1.8 2.1-1.6 2.2-2 .8-3.1-1-.9-2.9-1.1-5.2-.8-4.8.8-6.7 2.5-5.9 5.4.5 2.1.3 2.3-2.2 1.7-4.3-1-5.5-2.4-4.8-5.6.5-2.1.3-2.8-.9-2.8-2 0-3.1-1.9-1.7-3.3 1.5-1.5 1.4-2-.9-4.7-2.4-2.8-2.8-5.9-.5-4 .8.7 1.5 1.9 1.5 2.6 0 2.3.2 2.2 7.1-3.5 3.9-3.3 4.9-3.1 4.9.9 0 1.5 1 3.6 2.3 4.7 3 2.8 8.5 5.5 9.1 4.5.8-1.3-2.3-5.2-4-5.2-2.2 0-1.7-1.8 1.2-3.6 1.9-1.3 2.8-1.4 3.7-.5 3.2 3.2 3.6-.7.7-6.3-2.4-4.4-1.5-6.6 2.5-5.8 2 .3 2.5 0 2.5-1.5 0-3 2.9-4.9 3.1-2.1zm-67.8 4.1c-.6 1-2.1 0-3.4-2.5-1.1-2-1.1-2 1.4-.2 1.4 1.1 2.3 2.2 2 2.7zM32 702c0 .5-.4 1-1 1-.5 0-1-.5-1-1 0-.6.5-1 1-1 .6 0 1 .4 1 1zm180.6 1.7c-.7.7-2.6-.7-2.6-1.9 0-.6.6-.6 1.5.2.9.7 1.3 1.5 1.1 1.7zm56.2-1.5c.7.7 1.2 1.8 1.2 2.5 0 1.9-2.7.4-3.3-1.8-.6-2.2.3-2.5 2.1-.7zm-243.9 2.5c2.4 1.1 3 1.8 2.2 2.6-.6.6-1.1 2-1.2 3.1-.1 1.4-.4 1-1-1.1-.7-2.4-1.9-3.7-4.4-4.7-1.9-.8-3.5-1.7-3.5-2 0-.7 4.1.4 7.9 2.1zM197 704c0 .5-.5 1-1.1 1-.5 0-.7-.5-.4-1 .3-.6.8-1 1.1-1 .2 0 .4.4.4 1zm28 0c0 .5-.4 1-1 1-.5 0-1-.5-1-1 0-.6.5-1 1-1 .6 0 1 .4 1 1zm73.4.6c2.1.8 2 2-.1 2.8-1.7.7-3.6-1.2-2.7-2.6.6-1 .8-1 2.8-.2zm-115.3 3.3c-1.5 1.1-2 2.3-1.5 3.4.3 1 .1 1.7-.5 1.7-1.4 0-1.4-5.3 0-6.7.6-.6 1.8-.9 2.6-.6 1.3.5 1.1.9-.6 2.2zm75.2-2.3c.9 1-.4 3.4-1.8 3.4-1.7 0-2.8-1.7-2-3 .7-1.1 2.8-1.3 3.8-.4zm21.7 3.6c0 1.4-1.9-.1-3.1-2.5-1.2-2.2-1.2-2.2 1-.3 1.1 1.1 2.1 2.3 2.1 2.8zm134-3.2c0 .5-.4 1-.9 1-.6 0-1.3-.5-1.6-1-.3-.6.1-1 .9-1 .9 0 1.6.4 1.6 1zm-208.2 2.2c-.3.7-1.1 1.3-1.8 1.3s-1.5-.6-1.7-1.3c-.3-.7.4-1.2 1.7-1.2 1.3 0 2 .5 1.8 1.2zm33.2 2.7c0 .5-.7 1.2-1.6 1.5-2.2.9-2.4.8-2.4-.9 0-.8.9-1.5 2-1.5s2 .4 2 .9zm70 .1c0 .5-.2 1-.4 1-.3 0-.8-.5-1.1-1-.3-.6-.1-1 .4-1 .6 0 1.1.4 1.1 1zm108.3 2.4c-2 2.9-3.3 3.3-3.3 1.2 0-1.5 4-4.9 4.8-4.1.2.2-.4 1.5-1.5 2.9zm74.7-.9c0 .8-.4 1.5-1 1.5-.5 0-1-.7-1-1.5s.5-1.5 1-1.5c.6 0 1 .7 1 1.5zm-458.7 1c-.3 2-3.3 3.1-4.3 1.5-.5-.8-.6-1.8-.3-2.3.7-1.1 4.8-.4 4.6.8zm261 2.8c-.7 1.1-2.3-1.2-2.3-3.3.1-1.2.4-1.1 1.5.4.8 1 1.2 2.3.8 2.9zm-84 1l-1.6 3.2-.9-2.4c-1-2.7.6-5.3 2.7-4.4 1.2.4 1.2 1-.2 3.6zm75.1-2.8c1.6 1.2 1.7 1.8.7 2.8-1 1-1.5.8-2.7-.7-2.6-3.6-1.5-4.7 2-2.1zm-90.4-.1c0 .2-.8 1-1.7 1.7-1.6 1.3-1.7 1.2-.4-.4 1.3-1.6 2.1-2.1 2.1-1.3zm8 1.6c-1.6 1.1-4 1.3-4 .5s4.4-2.4 5-1.8c.2.2-.2.8-1 1.3zm26.4-.5c-2.5 1.9-3.4 1.9-3.4 0 0-1 1-1.5 2.7-1.5 2.6 0 2.6.1.7 1.5zm87.6-.5c0 .5-.5 1-1.1 1-.5 0-.7-.5-.4-1 .3-.6.8-1 1.1-1 .2 0 .4.4.4 1zm166.2 1.5c0 .5-.5 1.1-1.1 1.3-.6.2-1.1-.4-1.1-1.3s.5-1.5 1.1-1.3c.6.2 1.1.8 1.1 1.3zm-335.1 1.2c2.2.3 3.9.1 4.3-.6 1-1.6 7.2 4.8 6.8 6.9-.2 1.1.5 2 1.8 2.3 1.6.4 2.1 1.2 1.8 2.9-.2 1.3-.8 2.2-1.3 2.2-.6-.1-2.5-.4-4.4-.8-3.1-.5-3.7-.2-7.5 4-4.1 4.5-4.1 4.5-3.7 11.7.1 4 .8 7.8 1.3 8.4 1.5 1.9 4.9 1.6 6.4-.5 1.8-2.3 1.7-.2-.2 4.3-1.1 2.8-1.2 4-.4 4.9.8.8 1.8.4 3.6-1.7 2.1-2.5 2.4-2.6 2.4-.8 0 1.1-.6 2.4-1.4 2.8-.7.4-1.9 1.8-2.5 3.1-1 1.9-1.5 2.1-2.7 1.1-1.8-1.5-3.7 0-5.4 4.1-1.6 3.8-.7 6.8 1.5 5 .9-.8 1.3-2.1 1-3.1-.8-2.3 1.7-2.6 3.5-.4 1 1.2 1 2.1.2 4-.9 2-1.8 2.5-4.4 2.3-2.9-.3-3.3 0-3.3 2.2s.5 2.5 4 2.8c3.4.2 4.3.8 5.4 3.3 1.1 2.5 1.1 3.3-.3 5.5-1.9 2.8-1.4 4.4 1.5 4.4 2.5 0 2.4 1.6-.2 3-2.5 1.4-2.2 1.6-3.8-4-.7-2.5-1.6-5.6-1.9-7-.4-1.4-2-3.1-3.5-3.8l-2.7-1.3v-12.1c0-10.3-.2-11.9-1.5-11.4-1.2.4-1.4 0-.9-1.8.4-1.7 0-2.7-1.2-3.4-1.5-.9-1.7-1.5-.8-3.9.8-2.2.7-3.3-.5-5.2-.8-1.3-1.5-3.5-1.6-4.9 0-2-.8-2.8-3.3-3.6-4.7-1.6-5.8-4-3.2-6.6 1.9-1.9 1.9-2.2.5-4.4-1.7-2.6-1.1-5.6 1.3-5.6.8 0 3.2 1.8 5.3 4 2.1 2.2 4 4 4.3 4 .8 0 4.2-7.7 3.8-8.8-.2-.7-1.4-1.2-2.7-1.2-1.3 0-2.7-.5-3-1-1-1.6.5-3.2 2.4-2.5.9.4 3.2.9 5.2 1.2zm323.9-1.3c0 .3-.4.8-1 1.1-.5.3-1 .1-1-.4 0-.6.5-1.1 1-1.1.6 0 1 .2 1 .4zM243.4 721c2 .1 2 .1.3 1.5-3.3 2.4-8.9-1.3-6.5-4.3 1.1-1.2 1.4-1.1 2.6.7.8 1.1 2.4 2.1 3.6 2.1zm186.3-2.3c.2.6-.4 1.3-1.3 1.7-2.1.8-2.6.3-1.8-1.8.7-1.8 2.5-1.7 3.1.1zM193 723c.5 0 1 .9 1 2s-.3 2-.8 2c-1.4 0-7.2-7.1-6.6-8.1.3-.6 1.6.1 2.9 1.6 1.3 1.4 2.9 2.5 3.5 2.5zm28.5-4.1c1.1.2-2.8 5.1-4 5.1-1.7 0-3.8-2.7-3.2-4.2.3-1 4.6-1.6 7.2-.9zm46.5.1c1.3.8 1.3 1-.2 1-.9 0-2-.5-2.3-1-.8-1.3.5-1.3 2.5 0zm155 .1c0 1.7-3.4 2.7-5.7 1.6-3.3-1.5-2.8-2.2 1.7-2.3 2.2-.1 4 .2 4 .7zm-15 1.4c2 2.4.6 2.8-1.5.5-1-1.1-1.3-2-.8-2 .6 0 1.6.7 2.3 1.5zm-201.5.5c-.3.5-1.1 1-1.6 1-.6 0-.7-.5-.4-1 .3-.6 1.1-1 1.6-1 .6 0 .7.4.4 1zm57.7 6.9c-1.2 3.4-.3 7.4 2.1 8.8 1 .6.6 1.4-2 3.6-3.1 2.7-3.3 2.7-3.3.9 0-1.2.5-2.4 1-2.7 1.6-1 .4-14.8-1.5-16.1-.8-.6-1.2-1.4-.8-1.8.4-.4 1.8.4 3.1 1.8 2.2 2.1 2.3 2.8 1.4 5.5zm57.8-6.4c-.4 1-7 3.7-7 2.9 0-.2.8-1.3 1.8-2.4 1.7-2 6.1-2.4 5.2-.5zm156-.5c0 .5-.4 1-1 1-.5 0-1-.5-1-1 0-.6.5-1 1-1 .6 0 1 .4 1 1zm-252 2.3c0 1.3-.9 3.2-2 4.2-1.9 1.7-2 1.7-2.6 0-.5-1.1-.1-2.1.9-2.7 1-.5 1.7-1.6 1.7-2.3 0-.8.5-1.5 1-1.5.6 0 1 1.1 1 2.3zm74.7.4c-.9.9-2 1.3-2.4.9-.4-.4.1-1.4 1.1-2.2 2.5-1.8 3.5-.8 1.3 1.3zm-185 .5c-.3.8-.6.5-.6-.6-.1-1.1.2-1.7.5-1.3.3.3.4 1.2.1 1.9zm137.3-1.8c0 1.1-1.9 1.5-2.5.6-.3-.5.1-1 .9-1 .9 0 1.6.2 1.6.4zm186.8 4.6c-.1 2.8-1.8 3.3-1.8.5 0-.8-.8-1.9-1.7-2.4-1.6-.9-1.6-1.2-.3-2 2.1-1.4 3.9.5 3.8 3.9zM308 723.4c0 1.1-1.9 1.5-2.5.6-.3-.5.1-1 .9-1 .9 0 1.6.2 1.6.4zM200 725c0 .5-.4 1-1 1-.5 0-1-.5-1-1 0-.6.5-1 1-1 .6 0 1 .4 1 1zm89.5 0c.3.5.1 1-.4 1-.6 0-1.1-.5-1.1-1 0-.6.2-1 .4-1 .3 0 .8.4 1.1 1zM182 729.9c0 .8 1.5 2.8 3.3 4.4 1.9 1.7 2.5 2.6 1.4 2.3-1-.3-2.2-.6-2.7-.6-1.2 0-4-5.9-4-8.4 0-1.7.2-1.8 1-.6.5.8 1 2.1 1 2.9zm217.5-2.9c.3.5-.3 1-1.4 1-1.1 0-2.5 1-3.2 2.1-1.3 2.6-3 .9-2.2-2.2.6-2.1 5.7-2.7 6.8-.9zm16.4 2c2-1 3.1-.4 3.1 1.6 0 1-.8 1-3.2.2-1.8-.5-4.1-1.2-5-1.5-1.5-.4-1.8.1-1.8 2.8 0 3.1-.1 3.2-1.7 1.6-1.6-1.6-1.5-1.8 1.2-4.7 2.8-2.9 2.9-2.9 4.2-1 1.1 1.5 1.8 1.8 3.2 1zm-201.2.6c-.9.9-2.8-.6-2.1-1.8.4-.6 1-.6 1.7.1.6.6.8 1.3.4 1.7zm274.1 2.6c.8 1 1.2 1.8.8 1.8-.7 0-4.6-1.9-5.4-2.5-.2-.2.3-1.3 1-2.4 1.2-2 1.3-2 1.7-.4.1 1 1 2.6 1.9 3.5zM249.5 729c1.1 1.8-2.6 2.3-4.3.6-1.5-1.5-1.4-1.6 1-1.6 1.5 0 3 .5 3.3 1zm60.5-.5c0 .6-6.1 3.2-9.2 3.9-2.1.5-2.8.3-2.8-.8 0-1 1.4-1.7 3.8-2.1 2-.4 4.2-.8 4.7-1 1.5-.5 3.5-.6 3.5 0zM102 730c0 .5-.5 1-1.1 1-.5 0-.7-.5-.4-1 .3-.6.8-1 1.1-1 .2 0 .4.4.4 1zm126.5 3.2c-.8 3.6-2 5.5-2.7 4.1-.6-.9 1.9-7.3 2.8-7.3.3 0 .3 1.5-.1 3.2zm264.7-1c-.6.6-1.5.8-1.9.4-.4-.4-.1-1.1.7-1.6 1.9-1.2 2.7-.3 1.2 1.2zm-411.6.5c2 2.6 1.7 3.5-.6 2.1-1.1-.7-2-1.8-2-2.5 0-1.8 1-1.6 2.6.4zm95.9 1.5c.6.6 0 .8-1.9.6-1.6-.2-3.1-.9-3.4-1.7-.3-1 .2-1.1 1.9-.6 1.3.4 2.9 1.2 3.4 1.7zm30-1.2c.4.6 0 2.2-.9 3.5-.9 1.3-1.6 3.3-1.6 4.5 0 1.3-.7 2-2 2-1.1 0-3.9 1.8-6.2 4.1-4.6 4.5-6.5 3.6-2.8-1.3l2.2-3-3.6-3.7c-2-2.1-3.4-4-3-4.3.3-.4 3.7-.4 7.5-.1 5.8.5 7 .3 7.5-1.1.7-1.8 2-2.1 2.9-.6zm194.5-.4c0 .4-.8 1.3-1.7 2-1.7 1.3-1.7 1.5-.1 2.7 1 .8 1.5 1.7 1.1 2-1.1 1.1-3.3-1.4-3.3-3.8 0-2.1 1.1-3.2 3.3-3.4.4-.1.7.2.7.5zm-124.5 1.9c0 .5-1.9 1.1-4.2 1.3-3.6.3-4.2.1-3.7-1.3.5-1.2 1.7-1.5 4.3-1.3 2 .2 3.6.7 3.6 1.3zm115-.5c.3.5.1 1-.4 1-.6 0-1.1-.5-1.1-1 0-.6.2-1 .4-1 .3 0 .8.4 1.1 1zm-295.7 2.6c.8 1.5.9 3.2.3 4.1-1 1.8-1.6 1-2.6-3.5-.8-3.8.7-4.3 2.3-.6zm161-.9c-.2 1-1.2 1.9-2.3 2-1.1.2-1.4 0-.7-.3.6-.3 1.2-1.2 1.2-2s.5-1.4 1.1-1.4c.6 0 .9.8.7 1.7zm64.2.3c0 .5-.2 1-.4 1-.3 0-.8-.5-1.1-1-.3-.6-.1-1 .4-1 .6 0 1.1.4 1.1 1zm-158 2.3c0 3.1.9 3.8 3.1 2.6 1.1-.5 1.9-.6 1.9-.2 0 .5-1.8 1.6-4 2.6-4 1.7-4.9 3.4-3 5.3.7.7.4 1.6-1 2.9-2 1.8-2 1.7-2.6-1.3-.4-1.8-1.3-3.2-2-3.2-.8 0-1.5-.6-1.5-1.3-.1-.6-.3-2.2-.4-3.5-.3-2.9 1.1-3.8 1.8-1.2.8 3 2.1 2.4 4-1.5 1.9-4 3.7-4.6 3.7-1.2zm251.8.1c.3 1.3-.1 1.7-1.4 1.4-1.1-.2-2-1.1-2.2-2.2-.3-1.3.1-1.7 1.4-1.4 1.1.2 2 1.1 2.2 2.2zm-324.3.9c.9 1.4 1.5 4.3 1.4 6.8-.1 2.4.1 5.5.6 6.9l.7 2.5-2.8-2.8c-2.6-2.6-2.7-3-1.3-4 1.5-1 1.5-1.4-.2-5.5-1-2.4-1.9-4.8-1.9-5.3 0-1.7 2-.9 3.5 1.4zm16.1 2.6c1.4 2.3 2.4 4.8 2.2 5.4-.1.7.6 3 1.6 5.2.9 2.1 1.5 4.6 1.4 5.4-.4 1.8-2.8 2.7-2.8 1 0-2.8-4.3-5.9-8.2-5.9-2.1 0-3.8-.4-3.8-1 0-.5 1.1-3.5 2.5-6.6 1.4-3.1 2.5-6.3 2.5-7.1 0-2.5 2.1-.9 4.6 3.6zm223.9-2.8c-.8 1.2-5.5 1.2-5.5 0 0-1 3.9-2 5.3-1.3.4.2.5.8.2 1.3zM485 738c0 .5-.4 1-.9 1-.6 0-1.3-.5-1.6-1-.3-.6.1-1 .9-1 .9 0 1.6.4 1.6 1zm-174.7 2.6c.4.1 1.2.2 1.9.3.9.1.9.4.1 1.2-.7.7-1.9.8-3 .4-1-.5-2.4-.7-3-.6-.7.1-1.3-.2-1.3-.8 0-1.2 2.2-2 3.5-1.2.6.3 1.3.6 1.8.7zm65.7.9c0 .8-.4 1.5-1 1.5-.5 0-1-.7-1-1.5s.5-1.5 1-1.5c.6 0 1 .7 1 1.5zm-241 3.7c.7 1.8 1.5 3.6 1.8 4 .2.5-.7.8-2.1.8-2.2 0-2.4-.4-2.3-4 .1-4.8.7-5 2.6-.8zm96.8-2c.5.7.6 2.1.3 3.2-.7 1.7-.9 1.6-2.4-.7-.9-1.5-1.7-2.9-1.7-3.2 0-1 2.8-.5 3.8.7zm16.2-.2c0 .5-.5 1-1.1 1-.5 0-.7-.5-.4-1 .3-.6.8-1 1.1-1 .2 0 .4.4.4 1zm161.5 7.7c-.9 2.1-1.1 2.1-2.2.6-.7-.9-1.3-2.5-1.3-3.5s-.5-1.8-1.2-1.8c-.6 0-.3-.9.7-2.1 1.9-2 1.9-2 3.5 1.3 1.1 2.5 1.3 3.9.5 5.5zM151 745.6c0 .8-.4 1.2-1 .9-.5-.3-1-1.3-1-2.1s.5-1.2 1-.9c.6.3 1 1.3 1 2.1zm66.6 3.1c-.3.3-1.3.3-2.2-.1-1.6-.6-1.5-.8.2-2.1 1.6-1.2 1.9-1.2 2.2.1.2.9.1 1.8-.2 2.1zM255 746c1.3.9 1.2 1.2-.4 2.5-2.6 2-3.6 1.9-3.6-.3 0-3.1 1.4-3.9 4-2.2zm-216 1.4c0 .2-.7.6-1.5 1-.8.3-1.5.1-1.5-.4 0-.6.7-1 1.5-1s1.5.2 1.5.4zm203.4 3.1c-.4.8-.7 1.5-.9 1.5-.2 0-.5-.7-.9-1.5-.3-.9 0-1.5.9-1.5s1.2.6.9 1.5zm25.3 0c.7 2-.2 2.9-2.1 2.2-.9-.4-1.3-1.3-1-2.2.8-1.9 2.3-1.9 3.1 0zm51.3 3.4c0 .5.7 1.4 1.5 2.1 2.1 1.7 1.9 3-.5 3-1.5 0-2-.7-2-2.5 0-1.4-.9-3-1.9-3.7-1-.6-1.7-1.7-1.4-2.4.3-.9 1-.7 2.4.7 1 1 1.9 2.3 1.9 2.8zm-234.6.2c.8 5.9 1.9 9.4 3.3 10.4 1.6 1.2.8 4.1-1.4 4.9-2.1.8-8.3-3.2-8.3-5.4 0-.9.6-2.3 1.4-2.9.7-.6 1.6-3 2-5.3 1.1-6.9 2.3-7.5 3-1.7zM430 752c0 .5-.2 1-.4 1-.3 0-.8-.5-1.1-1-.3-.6-.1-1 .4-1 .6 0 1.1.4 1.1 1zm-294.6 3.2c1.3 5.9 1.2 9.8-.2 9.8-.8 0-1.6.9-1.9 2l-.6 2.1-1.4-2.1c-.8-1.1-2.5-2-3.9-2-1.3 0-2.4-.5-2.4-1 0-.6.8-1 1.9-1 2.5 0 4.1-2.1 4.8-6.4.6-4 3-4.9 3.7-1.4zm192.9-.8c2.3 1.7 2.2 2.5-.3 1.9-2.5-.7-4.9-3.3-2.9-3.3.8 0 2.2.7 3.2 1.4zm-201.8 1c1.7 1.2 1.8 1.7.7 4.1l-1.2 2.7-1.9-2.4c-2.5-2.9-4.1-1.5-3.4 3 .3 2 1.5 3.9 2.9 4.9 1.3.8 2.4 2.2 2.4 2.9 0 2.5 4.2 3.7 8.6 2.5 5.4-1.5 6.3-.2 3.7 5.3-1.6 3.2-1.9 4.6-1.1 5.4.8.8.8 1.8.1 3.5-.9 1.9-.8 2.8.4 4 1.4 1.4 1.4 1.7-.1 3.8-2.4 3.5-2.1 5.2.9 4.5 1.8-.5 2.3-.3 1.9.7-.3.8-.6 3.1-.7 5.3-.2 2.6-.8 3.9-1.7 3.9-.8 0-1.5-.7-1.5-1.5 0-2.4-4.2-2.4-5.5-.1-.9 1.8-2 2.1-7 2.1-6 0-7-.6-4.8-2.8 1.5-1.5.4-2.6-1.8-1.8-.9.3-1.4 1.3-1 2.1.7 2-1.2 2.9-3 1.4-1.2-.9-2-.9-3.9.1-2.5 1.4-6 .7-5-1 .3-.5 1.7-1 3.1-1 1.3 0 2.4-.5 2.4-1.1 0-1.8-6.1-8.7-8.3-9.3-1.7-.4-1.9-.8-1-1.7.7-.7.9-2.4.6-4-.3-1.8-.1-2.9.6-2.9 1.2 0 1.2-4.9-.1-6.6-.4-.6-.6-2.7-.4-4.7.4-2.9.1-3.8-1.9-5.1-1.3-.9-2.9-1.6-3.5-1.6-1.2 0-1.4 4.3-.3 5.4.5.4.9 4.4 1 8.9 0 4.5.3 10 .6 12.1l.6 3.9-2.1-2.1c-1.4-1.4-1.8-2.6-1.3-3.9 1.3-3.1-.6-19.3-2.6-21.9-.5-.6-.3-1.9.5-3 .7-1 1.7-4.7 2.1-8.2.7-6.4 1.8-7.9 2.8-4 .4 1.3 0 2.9-.9 3.9-2.2 2.4-1.4 5.8 1.9 8.2 2.2 1.7 3 1.8 4 .8.9-1 .8-1.5-1-2.9-2.7-2.1-2.2-5.7 1-6.6 3.1-.8 3.8.2 3.1 4-.6 3-.4 3.4 1.6 3.4 1.2 0 3 .4 4 1 1.3.7 2.1.6 3-.5 1-1.2.9-1.6-.2-2-.8-.3-1.9-.5-2.4-.4-2.6.5-2.4-.4.6-2.6 1.9-1.4 3.5-3.3 3.5-4.3 0-.9 1.6-2.4 3.5-3.4 4.3-2.1 5.1-2.2 7.5-.4zm-49 .6c.3.5.1 1-.4 1-.6 0-1.1-.5-1.1-1 0-.6.2-1 .4-1 .3 0 .8.4 1.1 1zm86.6 6.2c1.1 2.1 1.1 2.2-.4.9-1-.7-1.7-1.7-1.7-2.2 0-1.5.9-1 2.1 1.3zM483 764c0 .5-.2 1-.4 1-.3 0-.8-.5-1.1-1-.3-.6-.1-1 .4-1 .6 0 1.1.4 1.1 1zm-404 9c1.2 2.2 4 2.6 5.7.9.6-.6 2.1-.9 3.4-.7l2.4.3-2.3 2.3c-1.7 1.7-3.1 2.3-5 1.9-1.5-.3-3.5-.1-4.5.4-1.5.9-1.7.7-1.2-1.4.4-1.4.2-2.8-.4-3.1-.6-.4-1.1-1.1-1.1-1.7 0-1.6 1.9-1 3 1.1zm-72.9 3.3c-.8.8-1.1.5-1.1-.9 0-2.7 1.4-4.1 1.8-1.9.2.9-.1 2.2-.7 2.8zM479 774c0 .5-.7 1-1.5 1s-1.5-.5-1.5-1c0-.6.7-1 1.5-1s1.5.4 1.5 1zm-292.4 6.7c-1 1-1.9-.5-1-1.8.6-1.1.8-1.1 1.2 0 .2.7.1 1.5-.2 1.8zm297.9-1.7c-.3.5-1.2.7-2 .3-2.1-.7-1.9-1.3.6-1.3 1.1 0 1.8.4 1.4 1zm-394.9 2.9c-1.4 1.6-1.5 2.3-.5 3.8.9 1.6.8 2.5-.6 4.7-1 1.5-2.6 3.1-3.6 3.7-2.5 1.3-2.4 3.1.2 5.5 1.8 1.6 1.9 2 .5 3-.9.6-2.7.9-4.1.6-2.8-.5-4.4-2.2-2.2-2.2 2.1 0 2.8-2.6 1.1-4.1-.8-.7-2-2.1-2.5-3.2-.9-1.6-.8-1.8 1-1.2 1.5.4 2.3.1 2.8-1 .3-1 .2-2-.4-2.4-.5-.3-1.3-1.4-1.6-2.5-.5-1.3-1.4-1.7-3.1-1.4-2.5.5-6.4-1.7-5.2-2.9.4-.4 1.6-.2 2.7.5 1.7 1.1 2.5 1.1 4.3-.1 1.2-.8 3.4-1.3 4.8-1 1.6.3 3.6-.2 4.9-1.1 2.9-2 3.8-1.2 1.5 1.3zm390.1 1.7c-.3.3-1.2.4-1.9.1-.8-.3-.5-.6.6-.6 1.1-.1 1.7.2 1.3.5zM162 790.1c0 1 .5 2.1 1 2.4.6.3 1 1.1 1 1.7 0 1.3-3.8-2-5.1-4.5-.6-.9-.7-2.2-.4-2.8.9-1.4 3.5.9 3.5 3.2zm328-1.9c0 .4-2 .8-4.5.8s-4.5-.4-4.5-.8c0-.5 2-.9 4.5-.9s4.5.4 4.5.9zm-348.8 3c-.7.7-1.2.8-1.2.2 0-1.4 1.2-2.6 1.9-1.9.2.3-.1 1.1-.7 1.7zm328.5 4c-.3.8-.6.5-.6-.6-.1-1.1.2-1.7.5-1.3.3.3.4 1.2.1 1.9zM165.2 801c2.7 1.6 2.9 2 1.5 2.6-1.7.6-5.7-2-5.7-3.8 0-1.2.6-1 4.2 1.2zM9.5 805c-1.9 2.1-4.5 2.7-4.5 1 0-1 5.2-4.1 5.9-3.4.2.2-.4 1.3-1.4 2.4zm86.3 0c1.3 1.7 2.1 3.4 1.7 4-.8 1.3-14.5 1.3-14.5 0 0-.6.6-1.1 1.3-1.1.6-.1 2.2-.3 3.4-.4 3-.3 5.5-2.5 4.9-4.2-.9-2.2.8-1.3 3.2 1.7zM27 808c1.1.7.8 1-1.4 1.6-2.2.5-3.3.2-4.9-1.6l-2.2-2.2 3.5.7c1.9.4 4.2 1.1 5 1.5zm-11.2.2c-.5 1.5-4.8 2.4-4.8 1s1.2-2.2 3.3-2.2c1 0 1.7.5 1.5 1.2zm60-.2c3.8.1 5.2.4 4.2 1-2.5 1.4-12.3.7-12.8-.9-.3-1 0-1.2 1.2-.8 1 .4 4.3.7 7.4.7zm213 .7c-1 .2-2.8.2-4 0-1.3-.2-.5-.4 1.7-.4 2.2-.1 3.2.1 2.3.4z"/><path d="M345.4 636.4c-1.5 1.2-1.6 1.7-.7 2.7 1 1 1.5.9 2.8-.1 1.6-1.3 2.1-4 .7-4-.5 0-1.7.6-2.8 1.4zM359.5 636c-.3.5-1.5 1-2.6 1-1 0-1.9.7-1.9 1.5s.7 1.5 1.5 1.5c1.9 0 6.5-2.9 6.5-4.1 0-1.2-2.7-1.1-3.5.1zM379.5 646.9c-.7 1.2 1.2 2.4 2.5 1.6 1.1-.7.4-2.5-1-2.5-.5 0-1.1.4-1.5.9zM377 653c0 .5.8 1 1.8 1s2.3.5 2.9 1.1c.8.8 1.3.8 1.7 0 1.1-1.8-.3-3.1-3.5-3.1-1.6 0-2.9.4-2.9 1zM31 757.5c-1 1.2-.9 1.6.5 2.1 1.9.8 4-.9 3.1-2.5-1-1.5-2.1-1.4-3.6.4zM42.5 756.9c-4.3.9-4 3.6.5 3.6 3.9 0 6-1.1 6-3.1 0-1.5-1.5-1.6-6.5-.5zM30.2 764.2c-1.8 1.8-1.5 2.8.8 2.8 1.3 0 2-.7 2-2 0-2.3-1-2.6-2.8-.8zM21.5 766c-.4.7-.3 1.6.3 2.2 1.4 1.4 4.5.2 4-1.5-.6-1.6-3.4-2.1-4.3-.7zM52.7 766.6c-1.3 1.3-.7 2.4 1.4 2.4 1.1 0 1.9-.5 1.7-1.2-.5-1.4-2.2-2.1-3.1-1.2zM26.4 770.2c-.9 1.5 2.7 4.1 3.9 2.9 1.3-1.3.1-4.1-1.7-4.1-.8 0-1.8.5-2.2 1.2zM33 771c-1.3.8-1.3 1.1.2 2.7 2.1 2 4.5.5 3.5-2.1-.7-1.8-1.6-2-3.7-.6zM42.3 773.2c.2.7 1 1.3 1.7 1.3s1.5-.6 1.8-1.3c.2-.7-.5-1.2-1.8-1.2s-2 .5-1.7 1.2zM51.5 775c-1.1 1.7.5 3.2 2.1 1.9.7-.6 1.1-1.5.8-2-.7-1.2-2.1-1.1-2.9.1zM37.1 776.9c-.8.5-1 1.4-.7 2 .9 1.3 3.3 1.5 4 .2.9-1.4-1.8-3.1-3.3-2.2zM25.4 780.1c-.8 1.4 1.4 2.9 3.3 2.2.7-.3 1.3-1.1 1.3-1.9 0-1.7-3.6-1.9-4.6-.3zM32 786.4c-1.9 2.3-.5 5 2.3 4.2 1.2-.3 3.2-.6 4.5-.6 1.5 0 2.2-.6 2.2-2s-.7-2-2.4-2c-1.3 0-3.1-.2-3.9-.5-.7-.3-2 .1-2.7.9zM44.2 787.7c.4 2.2 4.3 2.5 4.3.3 0-.8-1.1-1.6-2.3-1.8-1.9-.3-2.3 0-2 1.5zM34.4 796.2c-1.5 2.3-1.5 5.6 0 6.1 2 .8 3.8-1.7 3.4-4.4-.4-2.6-2.3-3.6-3.4-1.7zM45.7 795.6c-1.4 1.4-.7 3.5 1.1 3.2.9-.2 1.7-1 1.7-1.7 0-1.6-1.8-2.5-2.8-1.5zM44.5 803c-.3.6-1.6.8-2.9.4-2.9-.7-5.8 2.2-3.1 3.2 1 .4 2.5.2 3.4-.3 1.2-.7 2.3-.8 3.5-.1 2.2 1.2 4.1-.3 3.3-2.6-.7-1.8-3.3-2.1-4.2-.6zM51.5 805.9c-.3.5-.1 1.2.5 1.6 1.2.7 3-.2 3-1.6 0-1.2-2.7-1.2-3.5 0zM136.6 731.9c-.3.4.6 1.8 1.9 3.1 2.2 2 2.5 2.1 3.1.6 1.1-2.9-3.4-6.3-5-3.7zM146 762.5c0 .8.5 1.5 1 1.5.6 0 1-.7 1-1.5s-.4-1.5-1-1.5c-.5 0-1 .7-1 1.5zM105.2 773.2c-1.7 1.7-1.5 4.5.3 5.2.8.3 2.1-.4 2.9-1.6 2.5-3.5-.2-6.6-3.2-3.6zM122.6 780.9c-.9 1.4.4 4.1 1.9 4.1.7 0 1.8.6 2.5 1.4 1.8 2.3 3.6.9 3.7-2.9.1-3.4 0-3.5-3.7-3.5-2.2 0-4.1.4-4.4.9zM104.4 782.1c-1 1.7 1.3 3.6 2.7 2.2 1.2-1.2.4-3.3-1.1-3.3-.5 0-1.2.5-1.6 1.1zM114.4 784.1c-.9 1.5 1.2 3.3 3 2.6.9-.4 1.6-1.3 1.6-2.2 0-1.7-3.5-2.1-4.6-.4zM105.4 793.5c-.8 2 .4 3.5 2.7 3.5 1.4 0 1.9-.7 1.9-2.5s-.5-2.5-2-2.5c-1.1 0-2.3.7-2.6 1.5zM113.5 794.4c-1.6 1.1-1.6 1.4-.3 2.7.8.7 1.3 2.1 1 3.1-.5 2.2 2.5 3.5 4.1 1.9.9-1 .8-1.5-.5-2.5-1.1-.8-1.3-1.7-.7-2.8 1.3-2.4-1.2-4.2-3.6-2.4zM120.3 796.5c-.3.9-.3 1.8 0 2.2 1 1 3.7-.6 3.7-2.2 0-2-2.9-2-3.7 0zM131.4 800.1c-.9 1.6 1.2 3.3 3.1 2.5 1.4-.5 1.5-.9.5-2.1-1.5-1.8-2.6-1.9-3.6-.4zM82.4 785.5c-.4.9-.3 1.9 0 2.3.9.8 4.2-1.2 3.9-2.4-.4-1.6-3.3-1.6-3.9.1zM358.1 599.4c-.7.8-.8 1.7-.3 2 .6.3 1.5-.1 2.1-.8.7-.8.8-1.7.3-2-.6-.3-1.5.1-2.1.8zM378.3 601.2c.2.7 1.2 1.3 2.2 1.3 1 0 2-.6 2.3-1.3.2-.7-.6-1.2-2.3-1.2-1.7 0-2.5.5-2.2 1.2zM326 602.5c0 .8.5 1.5 1 1.5.6 0 1-.7 1-1.5s-.4-1.5-1-1.5c-.5 0-1 .7-1 1.5zM462.4 633.4c-.3.8.4 3 1.7 4.7l2.3 3.2-2.2 1.5c-2.5 1.7-2.9 3.2-.8 3.2 1.8 0 6.6-4.3 6.6-5.8 0-.6-.8-1.7-1.9-2.4-1-.7-2-2.2-2.2-3.2-.5-2.5-2.7-3.2-3.5-1.2zM471 637c0 .5.7 1 1.5 1s1.5-.5 1.5-1c0-.6-.7-1-1.5-1s-1.5.4-1.5 1zM479.3 637.2c-2.9 1.4-3.4 3.1-1.7 5.7 2.2 3.1 8.1 2.9 9.5-.3 2.3-5-2.2-8.1-7.8-5.4zM425 649.6c0 .9.5 1.4 1.2 1.2 1.8-.6 2.1-2.8.4-2.8-.9 0-1.6.7-1.6 1.6zM247.2 654.8c-3.7 3.1-4 4.7-1.1 6.2 1.6.9 1.8 1.4.8 2.6-.9 1.1-.9 1.8-.1 2.6.9.9 1.8.6 3.7-1.2 3-2.8 3.2-4 .5-4.7-2.3-.6-2.5-1.6-.6-3.2 1.8-1.5 2.7-5.1 1.3-5.1-.7 0-2.7 1.3-4.5 2.8zM85.3 659.7c-.3 1-1.7 3-3.1 4.5l-2.5 2.7 4.2 4.2 4.2 4.2 2.4-2.3c3.5-3.3 3.1-4.8-1.2-5.2-2.6-.2-3.8-.8-3.8-1.8 0-1.1.9-1.4 3.7-1.2 4.4.3 5.8-1.3 3.2-3.8-3-2.8-6.3-3.5-7.1-1.3zM36.2 664.2c-.6.8-.7 1.9-.2 2.8.5.8.5 2.1-.1 3.2-.7 1.3-.4 2.1 1.7 3.4 2.4 1.6 2.8 1.6 5.2.1 3.7-2.2 3.4-4.1-.8-4.8-3.2-.6-3.3-.7-1.2-1.4 1.4-.5 2.2-1.4 2-2.4-.4-2-5.1-2.7-6.6-.9zM68.5 663.9c-.7 1.2 1.2 2.4 2.5 1.6 1.1-.7.4-2.5-1-2.5-.5 0-1.1.4-1.5.9zM251.5 669.1c-.4.6-.5 1.3-.2 1.6.7.7 2.7-.6 2.7-1.8 0-1.2-1.7-1.2-2.5.2zM447.3 671.6c-.8 2.1 1.3 4.2 2.8 2.7 1.3-1.3.5-4.3-1.1-4.3-.6 0-1.3.7-1.7 1.6zM73.5 672.1c-1 1.5.3 2.5 1.6 1.2.7-.7.7-1.3.1-1.7-.6-.3-1.4-.1-1.7.5zM224.4 673.5c-1.6 2.5-1.3 5.5.6 5.5 1.1 0 3-4.1 3-6.6 0-2.2-1.8-1.7-3.6 1.1zM250 674.5c-1 1.1-1 1.9-.2 2.7 1.5 1.5 4.4.2 4-1.9-.4-2.3-2.2-2.7-3.8-.8zM158.7 675.2c-.7 2.3.4 4.5 2.9 5.8 2.9 1.6 4.3.6 2.6-1.8-.7-.9-1.5-2.5-1.8-3.5-.7-2-3-2.3-3.7-.5zM201.5 675.9c-.3.5-.1 1.3.5 1.6.6.4.8 1.5.5 2.6-.5 1.5-.1 1.9 1.7 1.9 2.4 0 4.8-1.6 4.8-3.2 0-.4-.9-.8-2-.8s-2-.7-2-1.5c0-1.6-2.5-2.1-3.5-.6zM131.5 679c-.3.5-.4 1.4 0 2 .8 1.3 3.5.1 3.5-1.6 0-1.6-2.6-1.9-3.5-.4zM255 679c0 .5.7 1 1.5 1s1.5-.5 1.5-1c0-.6-.7-1-1.5-1s-1.5.4-1.5 1zM189.2 683.2c-1.7 1.7-1.5 4.8.3 5.4 1.6.6 7.5-3.5 7.1-5-.3-1.4-6.1-1.7-7.4-.4zM148.5 686c-.8 1.3.4 3.2 1.6 2.5 1.2-.8 1.2-3.5 0-3.5-.6 0-1.3.4-1.6 1zM338.5 726c-.3.6.1 1.3 1 1.6 1.9.8 3 0 2-1.5-.8-1.4-2.2-1.4-3-.1zM368 729.4c0 .9.5 1.6 1 1.6.6 0 1-.4 1-.9 0-.6-.4-1.3-1-1.6-.5-.3-1 .1-1 .9zM449.4 731.7c-.3 1-1 3-1.6 4.5-.9 2.4-.3 10 .9 12.1.3.5 1.3.1 2.4-.9 1.3-1.2 1.6-2.1.9-3.3-.6-1.1-.4-2.2.7-3.3 1.5-1.7 1.4-1.8-.5-1.8-2.3 0-3.2-3.3-1.2-4.5 1.3-.8 1.3-4.5 0-4.5-.6 0-1.3.8-1.6 1.7zM449.7 750.8c-2.2 2.4-2.1 3.2.2 3.2 2.2 0 4.5-2.5 3.6-4-.9-1.5-2-1.2-3.8.8zM489.7 754.6c-1.4 1.4-.7 3.5 1.1 3.2.9-.2 1.7-1 1.7-1.7 0-1.6-1.8-2.5-2.8-1.5zM448.8 756.1c-2.1 1.2-2.4 3.9-.5 3.9 1.7 0 3.7-2 3.7-3.7 0-1.5-.9-1.6-3.2-.2zM245.5 759c-.9 1.4.1 2.7 2.5 3.3 1.4.3 2.3 0 2.7-1 1-2.4-3.8-4.6-5.2-2.3zM390.4 759.1c-.8 1.4 2.1 4.3 3.5 3.5 1.9-1.2 1.3-4.6-.8-4.6-1.1 0-2.3.5-2.7 1.1zM409.3 759.8c-3 3-.9 8.2 3.3 8.2 2.4 0 8-7.2 7-8.9-.9-1.4-8.6-.9-10.3.7zM436.4 759.5c-.4.9-.2 2.1.4 2.7 1.5 1.5 4.4.1 4-1.9-.4-2.3-3.6-2.9-4.4-.8zM196 760.4c0 1.9 2.3 3.6 3.8 2.7.7-.4 1-1.5.6-2.4-.7-2-4.4-2.3-4.4-.3zM284 760c-.8.5-2.9 1-4.7 1-1.7 0-3.4.4-3.8.9-.9 1.5 3.3 3.3 5.8 2.5 3.1-1.1 7.1-.5 8 1.2.9 1.6 3.3 1.9 4.2.4 1-1.6-1.4-5-3.5-5-1 0-2.2-.5-2.5-1-.8-1.2-1.6-1.2-3.5 0zM401.4 760.5c-.4.9-1.7 2.1-3 2.5-3.2 1.2-2.1 4 1.6 4 3.2 0 4.8-1.6 5.2-5 .4-2.9-2.9-4.1-3.8-1.5zM207.5 760.9c-.6.5-2.1 1.1-3.4 1.3-2.9.4-4.1 2.8-1.3 2.8 1 0 2.2-.3 2.6-.7.4-.4 1.9-.7 3.4-.8 1.7 0 2.8-.6 3-1.8.4-1.8-2.6-2.4-4.3-.8zM225.3 760.7c-2.1.7-1.5 3.3.7 3.3 1.1 0 2-.6 2-1.4 0-1.8-1.1-2.5-2.7-1.9zM296 761.6c-1 1.1-1.1 2-.3 3.2 1.7 2.7 3.8 2 3.8-1.2 0-3.4-1.6-4.4-3.5-2zM465 761c-1.1.7-1.2 1.4-.4 2.7 1.5 2.4 3.3 2.8 4 .8.9-2.3-1.6-4.7-3.6-3.5zM253 763.4c0 1.5 1.1 2 3.8 1.7.6-.1 1.2.3 1.2.9 0 1.3 4.7 1.3 5.6-.1 1-1.7-.8-2.8-5.9-3.5-3.9-.6-4.7-.4-4.7 1zM302.4 763.5c-.8 2.1.3 4.5 2 4.5 1.8 0 4-3.6 3.1-5-.9-1.5-4.5-1.2-5.1.5zM421.5 764c-.8 2.5 1.1 5.1 3.1 4.3 2-.8 1.4-5.7-.8-6.1-1-.2-1.9.5-2.3 1.8zM428.3 764.6c-.8 2.1 1.3 4.2 2.8 2.7 1.3-1.3.5-4.3-1.1-4.3-.6 0-1.3.7-1.7 1.6zM396.3 769.9c-.3 1.2-1.5 2.1-3.2 2.3-3.1.4-3.6 3.1-.6 3.6 1.1.2 2.7 1 3.6 1.8.9.8 2.4 1.2 3.3.8 1.8-.7 2.1-2.9.6-3.9-.6-.4-1-1.4-.9-2.3.3-3-.1-4.2-1.2-4.2-.6 0-1.3.9-1.6 1.9zM245 770c-1.3.9-1.3 1.1 0 1.9 1.7 1.2 3 .5 3-1.5 0-1.6-.9-1.8-3-.4zM271.5 770c-.9 1.5.4 3 2.6 3 2.3 0 2.6-2.5.3-3.4-2.1-.8-2.2-.8-2.9.4zM296.1 770.4c-.9 1-.8 1.6.4 2.6 1.9 1.6 4.1-.1 3.2-2.4-.8-2-2.1-2-3.6-.2zM306.3 771.7c-.4 1-1.4 2.3-2.2 2.9-1.2 1-1.3 1.5-.3 2.7.7.8 1 2.2.6 3.1-.9 2.3 2 3 4.9 1.1 1.6-1 3.4-1.4 5.1-.9 1.6.4 2.6.2 2.6-.5 0-.6-.6-1.1-1.2-1.1-.7 0-2.6-1.1-4.3-2.5-2.9-2.4-2.9-2.4-.7-2.5 3.4 0 2.5-3.4-1.1-3.8-1.9-.2-2.9.2-3.4 1.5zM404 771.5c0 2.1 3 3.1 4 1.4 1.1-1.7.3-2.9-2.1-2.9-1 0-1.9.7-1.9 1.5zM214 774c0 2.5 2.5 3.6 4.5 2 1.1-.9 1.8-1 2.9-.1 1.4 1.1 4.6.5 4.6-.9 0-1.9-2.9-3.1-4.9-2.1-1.3.7-2.2.8-2.6.1-1.2-1.9-4.5-1.1-4.5 1zM230.4 773.1c-.9 1.5 1.2 3.3 3 2.6.9-.4 1.6-1.3 1.6-2.2 0-1.7-3.5-2.1-4.6-.4zM264.5 773c-.8 1.3 2 2.4 4.1 1.6 2-.8.9-2.6-1.6-2.6-1 0-2.2.5-2.5 1zM432.6 772.9c-.9 1.5 2.3 3.6 3.6 2.3.5-.5.7-1.5.4-2.1-.9-1.3-3.3-1.4-4-.2zM197.7 774.8c-1 1.5-.3 8.2.9 8.6.7.3 2.7-.8 4.4-2.4l3.3-2.9-2.7-1c-1.4-.6-2.6-1.5-2.6-2.1 0-1.2-2.7-1.4-3.3-.2zM289.1 775c-1.6.9-.6 3 1.5 3 1.5 0 2-2.5.6-3.4-.4-.2-1.4-.1-2.1.4zM172.5 775.9c-1 1.7 3.1 3.3 4.4 1.7.6-.7.8-1.6.4-1.9-1-1-4.1-.8-4.8.2zM427 776.5c-1.1 1.3-1.1 1.9.3 3.3 2 1.9 4.1.5 3.5-2.4-.4-2.4-2.2-2.8-3.8-.9zM417.5 777c-.3.6-1.7.7-3.1.4-2-.5-2.6-.2-3.1 1.5-.3 1.4-1.3 2.1-2.9 2.1-3 0-3.1 1.6-.3 3 1.6.9 2.8.8 5.4-.4 1.8-.9 4.3-1.6 5.4-1.6 2.6 0 3.8-2.5 2.1-4.5-1.4-1.7-2.6-1.9-3.5-.5zM434.5 779c-.8 1.2 2 2.4 3.5 1.5.6-.3.8-1.1.5-1.6-.8-1.2-3.2-1.2-4 .1zM387.7 779.6c-.4.4-.7 1.5-.7 2.4 0 2.4-3 4.9-6.8 5.6-4.4.9-6 3-3.9 5.1 1.6 1.6 1.9 1.5 4.6-.5 2.6-1.9 3-1.9 3.5-.5.5 1.2 1.6 1.4 4.6 1 2.8-.3 4-.1 4.4.9.3.8 1.2 1.4 2 1.4.9 0 1.3.6 1 1.4-.3.9.7 2.1 2.6 3.2 2.9 1.7 2.9 2 1.3 3.2-1.7 1.3-1.7 1.4.1 2.7 1.4 1 2.4 1.1 3.8.4 1.4-.7 2.3-.7 3.3.1 1.8 1.5 5.5.3 5.5-1.7 0-1.2-.8-1.5-3.9-1-4.7.6-7.5-.8-4.8-2.4.9-.5 1.7-1.9 1.7-2.9s.5-2.2 1-2.5c.6-.3 1-1.1 1-1.7 0-1-4.1-.7-7 .6-1.2.5-1.6 0-1.5-2.1 0-2.5-.3-2.8-3-2.6-1.6.1-4.1-.1-5.4-.3-2.2-.5-2.3-.6-.8-2.1 1.3-1.3 1.9-1.4 3.1-.4 2.1 1.8 6 1 6.4-1.3.4-1.6 0-1.8-2.8-1.3-3.3.7-5.5-.6-5.5-3.3 0-1.6-2.6-2.5-3.8-1.4zM274.4 782.1c-.9 1.5 3.6 5 6 4.6 3.2-.4 2.9-2.4-.5-4.1-3.8-1.9-4.6-2-5.5-.5zM285.4 783.2c-.9 1.5 2.7 4.1 3.9 2.9 1.3-1.3.1-4.1-1.7-4.1-.8 0-1.8.5-2.2 1.2zM170.2 786.2c-1.7 1.7-1.5 3.8.6 4.5.9.4 2.2 1.4 2.9 2.2.9 1.3 1.6 1.4 3 .5 2.5-1.5 2.3-3.8-.3-4.2-1.2-.2-2.4-1.2-2.7-2.3-.6-2.2-1.8-2.4-3.5-.7zM312.5 786c-.3.5-.4 1.4 0 2 .8 1.3 3.5.1 3.5-1.6 0-1.6-2.6-1.9-3.5-.4zM420.7 786.3c-.8 2.1.8 3.9 2.9 3.5 2.7-.5 2.5-4.2-.2-4.6-1.2-.2-2.4.3-2.7 1.1zM251 787c-.8.5-2.5.7-3.6.4-2.4-.6-4.2 1.2-2.7 2.7 1.4 1.4 9.3-.1 9.3-1.7 0-1.8-1.3-2.4-3-1.4zM287.4 788.4c-1.5 1.2-1.7 1.7-.6 2.7 1 1.1 1.5 1 2.9-.4 2.4-2.3.4-4.3-2.3-2.3zM369.7 787.6c-1.6 1.6-.6 3.5 1.6 3.2 1.2-.2 2.2-1 2.2-1.8 0-1.6-2.6-2.5-3.8-1.4zM440.3 788.6c-.3.8-.1 2 .5 2.6 1.6 1.6 4.2.2 4.2-2.2 0-2.4-3.8-2.8-4.7-.4zM212.4 789.1c-.9 1.6 2 4.1 3.9 3.3 2.1-.8 2.2-3 .1-3.8-2.3-.9-3.2-.7-4 .5zM257.7 788.7c-1.6 1.5-.6 3.4 1.5 3.1 2.9-.4 3.8-3.8 1-3.8-1 0-2.2.3-2.5.7zM224.5 790c-.4.7-.3 1.6.3 2.2 1.4 1.4 4.7.6 4.7-1.2 0-1.8-4-2.6-5-1zM303.1 789.9c-.8.5-1.1 1.6-.8 2.4.5 1.3 1.2 1.4 3.9.6 1.8-.5 3.4-.9 3.5-.9.2 0 .3-.7.3-1.5 0-1.7-4.6-2.1-6.9-.6zM203 791.5c-1 1.2-.9 1.6.4 2.1 1.8.7 4.9-1.3 4-2.7-.8-1.4-3-1.1-4.4.6zM411.1 790.9c-1.2.8-1.2 1.2-.2 2.5 1.6 1.9 5.1 2.1 5.1.3 0-1.3-1.9-3.7-2.9-3.7-.4 0-1.2.4-2 .9zM419 791c-1.1.7-1.1 1.1-.1 2.4 1.8 2.2 4.1 2 4.1-.3 0-2.2-2.1-3.3-4-2.1zM433.5 791c-.4.7-.3 1.6.3 2.2 1.4 1.4 4.5.2 4-1.5-.6-1.6-3.4-2.1-4.3-.7zM425.5 792c-.4.7-.3 1.6.3 2.2 1.4 1.4 4.7.6 4.7-1.2 0-1.8-4-2.6-5-1zM313.8 792.7c-2.9.7-2 2.3 1.3 2.3 1.9 0 2.9-.4 2.7-1.2-.5-1.4-1.7-1.7-4-1.1zM251 794.3c0 1.9 1 2.7 2.6 2 2.1-.8 1.7-3.3-.6-3.3-1.1 0-2 .6-2 1.3zM183.7 796.7c-.7 1.6-1.2 3.6-1 4.5.3 1 0 1.8-.4 1.8-.5 0-1.8.6-2.9 1.4-1.8 1.4-1.8 1.5 1 2.6 4.6 1.7 6.3.6 6.3-4.3 0-2.3.3-5.2.7-6.5 1.1-3.3-2-2.9-3.7.5zM227.4 796.1c-.6 1 1.1 2.9 2.6 2.9.3 0 1.1-.4 1.9-.9 1.7-1.1.5-3.1-1.9-3.1-1 0-2.2.5-2.6 1.1zM278.4 798.5c-.8 1.9 1.2 3.6 3.3 2.8 1.9-.7 1.2-3.7-1-4.1-.9-.2-2 .4-2.3 1.3zM304.5 798.9c.4 1.4.2 2.3-.9 2.7-2.6 1-1.9 2 2.4 3.4 3 1 4.6 1 6.4.2 1.4-.6 5.6-.8 10.6-.5 6.1.5 8.1.3 7.6-.5-.4-.7-2.5-1.2-4.6-1.2-2.8 0-4.2-.5-4.9-1.9-.7-1.2-2.7-2-6.2-2.5-2.9-.4-6.5-1-8.2-1.3-2.6-.5-2.9-.4-2.2 1.6zM381 798.5c0 1 .7 1.5 1.8 1.3 2.1-.4 1.9-2.2-.2-2.6-1-.2-1.6.3-1.6 1.3zM285.4 799.1c-.3.6-.1 1.6.4 2.1 1.3 1.3 4.5-.8 3.6-2.3-.7-1.2-3.1-1.1-4 .2zM291.5 799c-.9 1.5.3 3 2.4 3s4.4-2.3 3.4-3.3c-1-1.1-5.1-.8-5.8.3zM207.6 800.9c-.9 1.4 2.9 5.5 4.2 4.7.7-.4 1.2-1.8 1.2-3.2 0-1.9-.5-2.4-2.4-2.4-1.4 0-2.7.4-3 .9z"/><path d="M388.5 801c-.3.5-1.7 1-3.1 1-1.4 0-2.4.6-2.4 1.4 0 2.1 3.8 3 5.6 1.5 1.3-1.1 1.8-1 2.5.4 1.1 1.8 4.4 2.3 5.4.7.3-.5-.2-2.1-1.1-3.5-1.7-2.5-5.7-3.4-6.9-1.5zM429 801.5c-2.7 3.3 4.7 5.6 7.5 2.5 2.2-2.4 1.8-3-2.8-3.6-2.3-.2-3.9.1-4.7 1.1zM245.3 802.7c-.7.2-1.3 1.1-1.3 1.8 0 1.8 2.1 2.4 4.3 1.3 1.5-.7 1.6-1.2.6-2.4-1.2-1.5-1.6-1.6-3.6-.7zM251.5 803c-.4.7-.3 1.6.3 2.2 1.4 1.4 4.7.6 4.7-1.2 0-1.8-4-2.6-5-1zM261.4 803.1c-.9 1.5 1.2 3.3 3 2.6.9-.4 1.6-1.3 1.6-2.2 0-1.7-3.5-2.1-4.6-.4zM483.9 803.6c-1.5 1.9.8 4.8 3 3.8.9-.3 2.2-.7 2.9-.8.7-.1 1.7-.7 2.4-1.4.9-.9.8-1.2-.3-1.6-3.8-1.2-7-1.2-8 0zM215.5 804c-.4.7-.3 1.6.3 2.2 1.4 1.4 4.5.2 4-1.5-.6-1.6-3.4-2.1-4.3-.7zM229.2 804.1c-1.3.5-2.1 1.3-1.8 1.8 1 1.6 4.5 1.9 6.2.6 1.7-1.2 1.6-1.3-.2-2.3-1.1-.6-2.8-.6-4.2-.1zM90.9 823.2c-1.4 1.1-1.5 2.5-.8 8.8 1.1 10.9 1.1 23.8-.2 26.2-.6 1.1-.9 2.1-.7 2.2.2.2 6.7.6 14.6 1 12.5.5 14.2.4 14.2-.9 0-.9 1-2.9 2.2-4.5 3.2-4.4 1.2-5.8-3.6-2.5-3.2 2.2-4.8 2.5-9.5 2.3l-5.6-.3-.3-5.9c-.2-3.2 0-6.6.3-7.5.6-1.4.9-1.3 2.6.8 2.6 3.2 4.9 1.3 4.9-4 0-4.6-1.7-6-4.1-3.1-3 3.7-4 2.7-3.7-3.6.3-5.1.5-5.7 2.7-6 4.6-.7 9.1.7 9.1 2.8 0 2.6 3.6 2.6 5 .1 1.2-2.4 1.2-3.2.1-4.9-1.2-2-25-2.8-27.2-1zM472.9 823c-4.2.7-10.4 4.4-11.3 6.6-1.3 3.4-.5 6.7 2.5 9.6 2.7 2.8 3.4 3 7.4 2.5 6.1-.9 9.5 2 10.2 8.4.7 5.8-1.3 8.1-6.6 7.7-3.3-.3-3.6-.6-4.1-3.7-.7-4.5-3.5-6.4-5.6-3.7-.8 1.1-1.4 3.1-1.4 4.5-.1 1.4-.7 3.7-1.5 5.1-2.2 3.8-1.8 4.2 2.5 3.5 2.3-.4 6.3-.2 9 .5 4.5 1.1 5.3 1 8.2-.8l3.1-2 1.7 2c1.3 1.6 2.3 1.9 4.4 1.4 3.2-.8 4.3-3 2.5-5.2-1.2-1.5-2.3-1.5-6.4.2-1.9.8-1.9.7-.4-1.6 3.8-6 3.4-13.2-1.1-18-2.3-2.5-3.6-3-7.3-3-5.9 0-9.5-2.7-7.8-5.8 1.5-2.9 7.2-3 11.2-.1 3.5 2.5 4.9 1.8 4.9-2.4 0-3-.3-3.3-5.3-4.7-3-.9-6.7-1.3-8.8-1zM17.8 823.7c-3.7.6-3.6 2 .2 2.8 1.7.4 3 .8 3 1.1 0 .2-1.5 4.1-3.4 8.6-1.8 4.6-4.1 10.8-5.1 13.8-.9 3.1-2.8 6.4-4.2 7.6-1.4 1.2-2.2 2.7-1.9 3.3.8 1.3 11.2 1.5 12 .2.3-.4-.5-1.8-1.8-3l-2.3-2.2 2.2-6.2 2.1-6.2 6.2.1c3.4 0 6.5.3 6.8.7.3.3 1.3 4.3 2.3 8.9l1.7 8.3 6.2.3c7.3.3 8.3-1.3 2.8-4.7-3.1-1.9-3.5-2.8-4.5-8.9-.7-3.7-1.6-8.1-2.1-9.7-1.7-5.6-2.1-10.7-.9-12.2.7-.7.9-1.7.5-2-.8-.8-15.5-1.2-19.8-.6zm11.8 9.4c.7 2.9 1 5.7.8 6.1-.7 1.1-8.2 1-8.8-.1-.3-.4.2-2.8 1.1-5.2 3.3-8.7 5.1-8.9 6.9-.8zM62.8 823.9c-4.8 1-11.4 5.4-13.7 9.2-1 1.7-2.2 5.3-2.5 8.2-.6 4.4-.3 5.8 2.1 10.6 2.3 4.4 3.7 5.9 7.6 7.9 6.2 3 13.8 3.3 19.1.6 8.4-4.1 7.3-8.4-1.3-5.4-4.9 1.6-5.7 1.7-9.8.3-9.4-3.2-13.3-14.4-7.6-21.9 3.7-4.9 7.5-6.7 12.4-5.9 3.7.7 4 .9 3.4 3.4-.8 3.8 1.6 5.8 5 4.3 5-2.3 3.6-11-1.7-11-1.3 0-3.9-.2-5.8-.5s-5.2-.2-7.2.2zM171.5 823.9c-.3.5.5 1.7 1.7 2.6 2.2 1.5 2.3 2.2 2.4 16.6.2 12.2-.1 15.3-1.3 16.5-2.5 2.5-.3 3.5 5.8 2.7l5.4-.8-.5-3.5c-.2-1.9-.4-6-.5-9 0-6-.6-5.5 10-8 5-1.1 9.2-4.2 9.5-7 .7-4.9-.1-7.1-3.2-9-2.8-1.7-5.1-2-16-2-7 0-12.9.4-13.3.9zm23.6 3.1c1.4.8 1.9 2.1 1.9 5 0 4.9-3 7.3-8.7 6.8l-3.8-.3v-11l4-.6c2.2-.3 4.1-.7 4.3-.8.2 0 1.2.4 2.3.9zM210.3 824c-2.8 1.2-2.9 2.6-.3 3.3 1.9.5 2 1.4 2.2 13.4.1 15.8-.1 18.6-1.5 19.5-3.1 1.9 1.6 2.6 13.4 2.1 12.5-.6 12.5-.6 14.2-3.4.8-1.6 1.2-3.1.7-3.4-1.2-.8-3.8.4-4.4 2.1-.4 1-2.3 1.4-7 1.4h-6.4l-.4-4c-.2-2.2-.2-5.8 0-8 .3-3.3.8-4 2.5-4 1.1 0 3.1.9 4.3 2.1 3 2.8 4.4 1.7 4.4-3.6 0-5.5-1.6-6.6-4.4-3-1.7 2.1-2.7 2.6-4.4 2.1-2-.7-2.2-1.4-2.2-7.2V827h4.3c3 0 5.2.7 6.7 2 1.7 1.5 2.6 1.7 3.7.9 1.8-1.6 1.7-5.6-.3-6.3-2.4-.9-22.6-.6-25.1.4zM276.3 823.7c-4.7.4-5.2 1-2.7 2.7 1.2 1 1.7 3.8 2.1 13.4.4 8.5.2 12.2-.5 12.2-.6 0-2.9-2.7-5.2-5.9-2.2-3.3-4.5-6.3-5.1-6.6-1.9-1.3-7.9-11.4-7.9-13.5 0-1.8-.6-2-5.5-2-5.3 0-7 1.1-4.1 2.7 1.1.6 1.5 4.4 1.7 16.6.4 14.2.2 16-1.3 17.1-2.8 2.1-2.2 2.6 3 2.6 5 0 8.2-1.2 6.3-2.4-1.2-.8-1.4-6.9-.5-14 .6-3.9.9-4.4 2.1-3.4.8.6 2.3 2.8 3.4 4.7 3 5.6 12.1 14.9 14.9 15.3l2.5.3.6-15.5c.7-16.4 1.3-19.8 3.8-21.7 1.4-1.1 1.4-1.4.1-2.3-.8-.5-1.9-.9-2.5-.8-.5.1-2.9.3-5.2.5zM291.4 824c-2.4.4-2.9 1-2.9 3.4 0 3.4 1.6 4.3 3.8 2.1 1.8-1.7 8.2-2 9.3-.4 1.1 1.8.6 30.1-.6 31.3-2.1 2.1-.8 2.6 5.9 2.6 7.6 0 9.3-1.1 6.4-4.2-1.6-1.7-1.8-3.8-1.8-16.2v-14.1l4.4-.3c3.7-.3 4.8.1 6.2 2 2.2 2.9 4.2 1.4 3.7-2.8l-.3-2.9-15.6-.5c-8.6-.3-16.9-.3-18.5 0zM334.4 824.5c-1.8 1.4-1.8 1.5.4 2.1 2.7.8 2.5 2.7-.7 9.9-2.1 4.6-6.2 14.5-8.1 19.3-.7 1.8-2.6 4-4.2 4.8-4.1 2.1-2.7 3.2 3.4 2.6 6.3-.5 6.7-.8 4.3-2.6-1.7-1.2-1.7-1.5-.2-4.2.9-1.6 2.5-5 3.5-7.5l2-4.6 7.5-.2c5-.1 7.7.3 8.4 1.1 1.1 1.4 4.7 12.6 4.6 14.3 0 .5-.4 1.8-.8 2.7-.6 1.6 0 1.8 5.6 1.8 3.5 0 7.1-.5 7.9-1 1.3-.8 1.1-1.3-1.1-3.2-2.7-2.4-5.2-7.2-6.5-12.3-.3-1.7-1.7-6.3-3-10.4-1.3-4-2.4-8.4-2.4-9.7 0-3.2-1.3-3.7-10.5-4-6-.3-8.7.1-10.1 1.1zm12 5.2c.7 1.6 1.7 4.7 2 6.9.7 3.7.5 4.2-1.6 4.8-4.3 1.1-8.8.7-9.5-1-.7-2 4.6-13.4 6.4-13.4.7 0 1.9 1.2 2.7 2.7zM380.4 824.1c-7.7 1.8-15.4 10.5-15.4 17.3 0 5.7 2.3 12.9 5.2 16.1 3 3.5 10.7 6.5 16.7 6.5 3.9 0 8.1-1.9 8.1-3.8 0-1-.5-1.2-1.7-.6-2.9 1.4-10.1.8-12.9-1.1-3.3-2.2-5.3-7-5.6-13.7-.4-9.5 7.3-19 13.9-17.3 2.2.5 2.4 1 1.9 3.9-.7 3.9 1.4 6.7 3.7 4.7 1.6-1.3 4-8.8 3.3-10-.3-.5-2.2-1.1-4.3-1.4-2.1-.4-4.9-.9-6.3-1.1-1.4-.3-4.3 0-6.6.5zM402.5 823.5c-.6.3-.9 7.9-.8 20.2l.2 19.8 11.3.3c6.2.1 11.8-.1 12.3-.5 1.2-.9 4.5-7.1 4.5-8.4 0-1.9-3.2-.8-5.8 2-2.1 2.3-3.7 3-7.4 3.2-2.6.2-5 0-5.4-.3-.3-.4-.7-7.7-.9-16.3l-.3-15.6 2.4-.9c2.8-1.1 3.2-3 .7-3.1-1 0-3.6-.2-5.8-.4-2.2-.2-4.4-.2-5 0zM430.1 824.4c-1.3 1.6-.4 2.6 2.2 2.6 1.9 0 1.9.5 1.2 16.2-.4 9-1.2 16.9-1.7 17.5-.6.7-.8 1.9-.5 2.7.5 1.2 2.6 1.3 11.4.9 5.9-.3 11.6-1 12.6-1.5 2.4-1.3 5.2-7.7 3.9-9-1.4-1.4-3.1-.2-4.2 2.8-.8 2.1-1.6 2.4-6.4 2.4-3 0-5.7-.3-5.9-.8-.3-.4-.6-3.8-.8-7.7-.4-6.2-.2-7 1.5-7.3 1.1-.2 2.5.4 3.2 1.3 2.2 3 4.4 1.1 4.4-3.9 0-5.2-1.7-6.9-3.8-3.8-.8 1.3-2.5 2.2-3.9 2.2-2.4 0-2.4-.2-2-6.1.4-7 1.9-8.5 7.2-7.5 2.2.4 3.5 1.3 3.8 2.7.9 3.3 4.2 2 4.2-1.6v-3l-12.7-.2c-9.2-.1-13 .2-13.7 1.1zM146.2 839.2c-3.9 2-3.7 4.8 1.2 14.3 5.8 11.2 6 14.3.9 19-2.9 2.6-3.3 3.5-2 3.5 2.9 0 8.5-2.7 9.5-4.7 2-3.8 2.3-9.7.7-13.7-1.8-4.2-1.4-5.6.9-3.7 1.9 1.6 3.6.6 3.6-2 0-3.4-1.9-5.9-4.5-5.9-2 0-2.5.5-2.5 2.5 0 3.4-1.6 3.1-4-.8-2.5-4-2.2-6.3.9-5.9 1.7.1 2.2-.2 1.9-1.5-.4-2.1-3.4-2.6-6.6-1.1z"/><path d="M133.9 851.5c-3.5 1.9-4.3 5.1-1.8 7.6 3.6 3.6 12.9 1.5 12.9-2.9 0-5.3-5.6-7.7-11.1-4.7zm5.1 4c0 .8-.4 1.5-.9 1.5-1.3 0-2.2-1.6-1.4-2.4 1.1-1.1 2.3-.6 2.3.9z"/></svg>