<svg version="1" xmlns="http://www.w3.org/2000/svg" width="666.667" height="1170.667" viewBox="0 0 500 878"><path d="M124.5 92.3c-7.6 4.5-8.5 5.3-8.5 7.6v2.4l-2.3-2.1c-2.7-2.6-4.5-2.7-7.3-.8-1.3 1-2.5 1.1-3.5.5-2.4-1.5-3.7-1-5.5 2.1-1.2 2-2.7 3-4.8 3.2-3.4.3-4.9 2.8-1.7 2.8 1.2 0 2.1.6 2.1 1.4 0 .7.6 1.9 1.4 2.5 2.4 2 5.6-.4 5.6-3.9 0-1.7.5-3 1-3 .6 0 1 .6 1 1.2 0 .7.5 2 1 2.8.9 1.2 1.5.9 4-2l2.9-3.5.1 2.7c0 3.5.9 5.8 2.4 5.8 2.8.1 3.8 1.7 2.6 4-1.1 2.1-1.3 2.1-2.2.7-.5-1-1.7-1.7-2.7-1.7-2 0-5.4 3.3-4.4 4.3.3.4-.2.7-1.1.7-1.5 0-1.7-.6-1.2-3.6.6-3.1.5-3.5-1.1-3.2-1 .2-2.6 1.9-3.5 3.8-1 1.9-1.8 2.7-1.8 1.8 0-1-1-2.6-2.2-3.8-1.9-1.8-2.3-1.8-3.8-.5-2.2 2-4 1.9-4-.1 0-.9.9-1.8 2-2.1 2.6-.7 1.5-2.3-1.5-2.3-2.6 0-4.8 3-4.3 5.7.2.9 2.1 2.6 4.2 3.7 3.8 2 5 4.4 1.9 3.8-1.8-.4-6.6 3.9-9.4 8.5-2.3 3.7-1.6 5.9 2.7 8.7l2.6 1.8-2.6 2.7c-3.2 3.3-3.3 4.7-.4 7.1l2.2 1.8-3.9 1.8c-4.8 2.3-5.1 4.4-.7 6.3 2.2 1 3.2 2.1 3.2 3.7 0 2.6 2.3 4.7 4.7 4.2 1-.2 2.7-1.8 3.8-3.5 1.1-1.8 2.8-3.2 3.7-3.3 2.4 0 5.8-3.9 5.8-6.5 0-1.2 1.3-3.1 2.9-4.3 2.8-2 3-2 4.5-.3.9 1 1.6 3.1 1.6 4.7 0 6.5 5.5 9.7 8.5 5 .9-1.3 2.3-2.7 3.2-3 1.8-.7 3.5 1.2 2.8 3.1-.2.7.3 3.4 1.1 6 4 12.5 3.6 18.1-2.1 30.1-4.3 9.1-4 12.2 1.2 12.2 1.9 0 4.4-.5 5.6-1.1 3.1-1.6 9.7-8.1 9.7-9.5 0-1.5 4.2-2.6 5.4-1.4.6.6-.3 1.6-2.3 2.7-2.5 1.4-3.1 2.4-3 4.8.2 5 0 5.4-2.9 6.9-1.6.8-4.4 4-6.3 7.1-1.9 3.1-4.9 7.6-6.7 10-4.2 5.7-5 8-5.8 16.8-2.1 21.3.2 44.9 6.1 64.7 4.9 16.3 5.6 23.7 3.7 38.5-1.6 11.8-1.6 11.8-5.2 11-1.6-.4-3-.4-3-.1 0 .3 5.9 3.5 13 7.1 9.4 4.7 13 7 13 8.3 0 1 .6 2.4 1.3 3.1 1 1.1.7 1.2-1.3.6-1.4-.4-3.2-1.3-4-2-.8-.7-5.1-3-9.4-5-4.4-2.1-9.6-4.8-11.7-6.2-2.6-1.7-5.5-2.6-9.5-2.8-3.2-.2-6-.8-6.2-1.4-.2-.6-.7-1.1-1.2-1.1-1.8 0-3 7-3 18.1 0 6.5-.4 12-1 12.4-.5.3-2.7-.3-4.9-1.5-2.2-1.1-5.5-2-7.4-2-1.8 0-3.7-.4-4.2-.9-.6-.5-8.9-2.1-18.5-3.5L47.6 381l-2.9-3.6c-3.6-4.4-7.2-4.4-9.7 0-1.4 2.6-2.4 3.1-8.7 4.2-9.2 1.5-13.5 3-20.6 6.8l-5.8 3.1.3 117.6c.2 89 .6 117.5 1.4 117.2 1.5-.5 7.9-8.1 12.6-14.8 1.9-2.8 6.6-8.2 10.4-12.1 3.8-3.9 8.1-8.4 9.5-10 3.4-3.8 7.8-7 13.7-10.1 9-4.8 10.7-5.8 12.7-7.5 1.1-.9 3.7-2.4 5.7-3.3 2.3-.9 5.3-3.6 7.9-7 2.3-3 4.8-5.5 5.6-5.5.7 0 1.6-.8 2-1.8.3-.9 1.3-2.5 2.1-3.4 1.3-1.6 1.7-1.5 5.6 1.6 6.4 5.1 13.2 8.7 22 11.5l8.1 2.6.6 7.5c.4 4.1.8 13.1 1 19.9l.3 12.4-3.1 1.5c-1.7.8-3.8 3-4.6 4.8-1.6 3.2-1.5 3.4.3 4.4 1.1.6 2 1.8 2 2.6 0 .9.6 2.8 1.4 4.2.7 1.5 2.2 4.4 3.2 6.4 2.9 5.9 9.4 6 9.4.2 0-1.7.6-2.4 1.9-2.4 1 0 2.5-.7 3.2-1.6 1.1-1.4 1.1-1.8-.5-2.9-1.6-1.2-1.6-1.5-.1-4.4.8-1.7 2.2-3.1 3.1-3.1.8 0 1.7-.6 2-1.4.6-1.7-2-7.2-4-8.3-1.1-.6-1.5-4.5-1.7-17.2l-.4-16.5 2.5-.6c1.4-.3 5.2 0 8.5.7 9.3 1.9 15.2 1.7 16.5-.7.6-1.1 1.5-2 2-2 1.5 0 4 5.6 4.1 9.2l.2 3.3.6-3.8c.3-2.1 1-3.7 1.6-3.7 1.7.1.1 17-1.6 17-.5 0-.9.6-.9 1.4 0 2.1 4 4.6 7.3 4.6 2.6 0 2.8.2 2.2 3.4-.5 2.4-.1 4.5 1.4 7.4 1.7 3.3 2.1 6 2.1 13.5 0 9.1.1 9.4 3.1 12.5 1.7 1.8 3.5 3.2 3.9 3.2.4 0 1.9 3.2 3.4 7.1 2.4 6.5 2.6 8.2 2.6 23.3 0 15 .2 16.4 2 18.1 2.5 2.2 10.9 3.2 14 1.5 1.8-1 2.8-.9 5.5.6 4.3 2.3 7.5 1 9.9-4 2.2-4.8 3.2-5.1 4.8-1.9 1.8 3.8 7 4.4 10.4 1.2 1.9-1.8 2.7-2 3.6-1.1 3.6 3.6 8.8-.3 8.7-6.4-.1-2.1.4-7.7 1-12.4.6-4.9.8-11.7.4-16-.7-7.1-.6-20 .1-20.8.2-.2 2 0 4 .4l3.6.6-2.4 2.3c-1.4 1.3-2.8 3.9-3.1 5.8-.6 3-.2 4.1 3 8.3l3.7 4.8-.7 9c-.4 4.9-1 9.9-1.5 11-.4 1.2-1.3 7.3-2 13.6s-1.9 12.4-2.6 13.6c-.8 1.1-1.7 5.5-2 9.7-.4 4.2-1 7.7-1.5 7.7-.4 0-1 1.8-1.4 4-.9 5.1-3.9 7.5-10.5 8.4-4 .5-5.4.3-6.7-.9-1.3-1.4-3.6-1.5-15.7-1.1-7.7.3-17 .8-20.6 1.1-5.8.6-7.4.4-13-2-3.6-1.5-7.5-3.6-8.7-4.7-1.8-1.7-2.9-1.9-7-1.3-2.6.4-6.8 1.6-9.3 2.7-4.1 1.9-5.6 2-16 1.3-6.3-.4-16-.9-21.5-1-15.2-.5-22.6-1.4-29.6-3.5-7.7-2.4-12-2.5-16-.5-2.6 1.4-3.4 1.4-7.7 0-2.6-.9-7-2.7-9.9-4.1-2.8-1.3-5.8-2.4-6.6-2.4-.8 0-2-.7-2.7-1.5-1.4-1.7-6-1.9-11-.5-3.8 1.1-4.1.9-8.6-6.8-1.1-2-2.5-3.7-3.2-4-.6-.2-3.5 2.2-6.3 5.2-2.9 3.1-6 5.6-6.9 5.6-1 0-2.3.7-3 1.5-.7.8-1.9 1.5-2.7 1.5-3.2 0-7.3 3.1-7.3 5.4v2.4l8.6-3.6c4.8-2.1 10.6-5.4 12.9-7.4 4.6-4 5-4 7 .9 1.9 4.4 5.5 6.1 8.6 3.9 2.5-1.7 7.4-2.2 8.3-.7.3.5 2.6 1.4 5.1 2 2.5.6 6 2 7.7 3.1 1.8 1.1 3.9 2 4.6 2 .8 0 3 .7 4.9 1.6 3.2 1.6 3.7 1.6 6.9 0 4.6-2.1 8.8-2 17.7.4 5 1.4 11.8 2.2 21.7 2.5 24.6.9 30.3 1.2 35.6 1.9 4 .6 6 .4 8.5-1 6.4-3.3 12.8-2.8 23.1 1.8l9.3 4.1 9-1.3c5-.7 13.7-1.4 19.5-1.6 13.7-.5 12.2 1.2-3.1 3.3-9.8 1.4-13.5 1.4-26.9.4-24.3-2-60.1-3-65.6-1.9-2.9.5-11.4.6-20.9.2-8.8-.5-20.6-.7-26.2-.6-7.4.2-10.9-.1-12.5-1.1-4.1-2.6-17.3-5.1-21.5-4.1-5.2 1.2-22.9.9-27.8-.4-2.2-.6-6.4-1.3-9.2-1.7l-5.3-.7V818h5.3c2.8.1 9.3.3 14.2.5 25.3 1.1 64.6 1.6 162 2 97.5.4 144.4.9 183 2 7.7.2 41.3.7 74.8 1.1l60.7.7v-5.9l-12 .4c-9.1.3-12 .1-12-.8 0-1-.4-.9-1.6.1-1.2 1-5.8 1.3-19.2 1.1-15.5-.2-18.1-.5-21.9-2.3-2.4-1.1-4.5-2.5-4.8-2.9-.3-.5-1.3-.6-2.1-.3-1.3.5-1.5-.1-.9-4.1.8-4.9-.5-6.3-2.5-2.7-.5 1.1-2 2.1-3.2 2.3-1.4.2-2.4 1.2-2.8 2.7-.9 3.8-2.5 3.5-5.9-.8-1.7-2.1-5-4.9-7.4-6.1-10.7-5.6-13.6-6.9-17.7-8-4.9-1.3-13.5-5.4-14.4-6.9-.3-.5.8-1.4 2.4-2 1.8-.6 3-1.7 3-2.7 0-1 .3-1.4.8-1 .4.4.7 2.2.7 3.8 0 3.9 1.8 4.6 3.2 1.5.9-1.9 1.8-2.3 4.3-2.2 2.5.1 3.4-.3 4.1-2.1.5-1.4 1.4-2.1 2.2-1.8.9.3 1.9-1 3-3.7 1.8-4.5 1.4-6.7-.8-4.9-.9.8-1.5.8-2 0-.3-.6-1.1-.8-1.6-.5-.5.4-.9-.5-.9-1.9 0-2.5-2.2-3.6-3.4-1.7-.9 1.5-4.7 0-4.4-1.7.4-1.9 16.7-5.5 18.4-4.1.7.6 1.6.4 2.4-.6.7-.9 1.9-1.4 2.6-1.1.7.3 1.6.1 1.9-.5.4-.5 1.2-.9 1.8-.8.7.1 1.9 0 2.7-.4 1.9-.7 7.2-2.1 8.5-2.2.6 0 1.6-.4 2.3-.9.7-.4 1.9-.2 2.7.4 1.1.9 1.5.9 1.5.1 0-.6 1.3-1.1 2.9-1.1 1.7 0 3.3-.5 3.6-1.1.4-.6 1.4-.8 2.2-.5.9.4 2.1.2 2.8-.4.8-.7 1.7-.4 3 1 2.4 2.6 3.3 2.5 4.7-.5 1.3-2.9 3.5-3.2 5.3-.9 1 1.4 1.3 1.3 2.9-1.1 1.4-2.1 2-2.4 2.6-1.4.7 1 1.2 1 2.6-.1 1.9-1.7 8.4-2.4 8.4-.9 0 .5-.6.9-1.3.9-.7 0-1.7 1.9-2.3 4.2-.9 4.2-1 4.3-5.9 5.1-4.9.8-7.5 2.1-7.5 3.8 0 2 4.2 4.9 7.3 5 3.1.1 3 .1-1.5 1.7-6.5 2.3-7.6 3.6-5.3 6.2 1 1.1 3 2 4.4 2 2 0 2.3.2 1.1 1-.8.5-2.5 1-3.8 1-3.1 0-3.6 2-1.7 6.6 1.7 4 3.7 3.7 3.9-.7.1-1.7 1-2.6 3.4-3.3 4.4-1.2 5.6 0 4.1 4.3-1.1 3.1-.6 20.7.6 21.9.2.2 1.1.2 2-.1 1.2-.5 1.5-2.6 1.5-11.2 0-14.7-.1-14.6 11.4-13.8 9.6.6 14.6 0 14.6-1.7 0-.6-2.4-1-5.4-1-8 0-17.6-1.2-17.6-2.1 0-.5 5.4-.9 12.1-.9 9.2 0 12-.3 11.7-1.3-.3-.6-1.9-1.3-3.7-1.5-2.9-.3-3.2-.6-2.7-2.7.5-1.9.1-2.5-2.2-3.3-2.6-1-2.6-1 1.1-1.1 3.1-.1 3.8-.4 3.5-1.9-.2-1.2-1.6-1.8-4.8-2.2-3.6-.4-4.4-.9-4.2-2.2.3-1.9-1.6-2.6-8.1-3-5.8-.4-4.4-2.3 1.9-2.4 3.4-.1 6.2-.8 7.1-1.7 1.3-1.3 1.1-1.7-1.1-3.5-3.4-2.6-3.3-4.2.2-4.2 2.3 0 7.3-.2 17-.9 2.1-.1 2.2-.5 2.2-9.5 0-10.3-.2-10.7-6.1-10-1.8.2-4.1.1-4.9-.2-1.9-.9-5.3-1-6.5-.2-2.2 1.3-6 .1-6-1.8 0-2.3 3.3-2.6 11-1.3 2.8.5 6.7 1.1 8.8 1.4l3.7.4v-33.7l-6-2.9c-7.7-3.6-7.6-5.5.3-6.7l5.7-.9v-4.5c0-4-.4-4.9-4-8-2.3-1.9-5-5.2-6-7.3-2.5-4.8-4.8-6.1-8.9-4.9-3.4.9-12.1 9.2-12.1 11.4 0 1.6-3.2 2.6-5.8 1.9-1-.2-2.3-1.7-2.9-3.3-.7-1.9-2.1-3.2-3.8-3.6-1.9-.5-2.5-1.2-2.2-2.5.7-2.6-3.4-6-8-6.5-5-.6-8.8 1.4-8.9 4.7 0 4.1-1.1 5-5.4 4.3-6.5-1.1-10.5 5-5.9 9.2l2.1 1.9-2.8 2.1c-1.8 1.5-2.5 2.7-2 3.9.5 1.5 1.5 1.7 7.5 1.1 4.3-.4 7.2-.3 7.5.3.7 1.1-3.6 2.5-12.9 4-8.4 1.4-25.7 5.1-26.7 5.7-.4.3-6.3 2-13 3.9-6.8 1.8-19.3 5.6-27.8 8.3-17.3 5.6-18 5.8-31.2 7.7-5.1.7-10.1 1.6-11 2-1.4.6-1.8.2-1.8-1.8 0-1.4.4-2.8.8-3.1.9-.5 2.1-5.8 4.3-18.1.7-3.8 2.2-9 3.5-11.5 5.1-10.1 5.7-21.4 1.5-27.1l-2.2-2.9 3.5-10.3c3-8.9 6.8-24.6 8.3-34.2.2-1.7.7-3.7 1-4.5.4-.8 1.3-3.5 2.2-5.9 1.5-4.2 2.2-4.8 10.6-9.1 14.2-7.2 23.1-13.7 22.2-16.3-.3-1.1-8-2.9-17.6-4.2l-5.3-.7.6-3.2c.3-1.7 1.5-4.3 2.6-5.8s2-3.2 2-3.7 2.5-2.6 5.5-4.6c3-2 6.8-5.2 8.4-7.1 2.7-3 6.1-11.5 6.1-15.1 0-.7 1.6-2.7 3.5-4.5 6.3-5.7 7.9-9.2 7.9-17.7-.1-5-.7-9.5-2-13.3-1.9-5.1-1.9-6-.6-9.3 1.3-3.2 1.3-4.1-.3-8.3-1-2.6-2.9-6.7-4.4-9.2-5.8-10.1-12.4-25.6-11.5-27.1.8-1.3 7.3 3.1 13 8.7 4.5 4.3 5.4 5.8 5.4 8.7 0 1.9.9 4.6 2 6 3.6 4.6 4.4 8.4 2.5 11.3-2.2 3.3-.7 5.1 2.6 3.3 1.3-.7 3.1-1.2 3.9-1.1 2.4.3 4.4-1.4 3.4-2.9-1.7-2.7-1.3-9.3.6-11.4 1-1.1 2.3-4.6 2.9-7.7 1-5.8 3.3-11.2 5.1-12.3.5-.3 1-1.4 1-2.4s1.2-2.7 2.7-3.6c2.4-1.6 2.7-1.6 3.8-.1.7.9 1.6 1.6 2 1.6.4 0 1.6 1 2.7 2.2 1.9 2.3 2 2.3 3.4.4 1.3-1.9 1.4-1.8 1.4 1 .1 2.8.1 2.8 1.5 1 1.3-1.7 1.5-1.8 1.5-.3 0 2.6 1.3 2 3.2-1.3 2-3.4 3.8-3.9 4.5-1.1.5 2.1 6 3.4 7 1.7.4-.5.2-1.1-.4-1.3-2.4-.8-4.3-3-4.5-5.2-.5-3.9 1.9-3.5 4.8.8 3.1 4.8 5.4 5.2 9.6 1.6 1.6-1.4 3.6-2.5 4.5-2.5.9 0 1.3-.6 1-1.4-.3-.8 0-2 .8-2.6.8-.6 1.2-1.7.9-2.5-.3-.7-.1-1.6.5-2 .6-.3 1.1-2.5 1.1-4.8 0-2.5.9-5.6 2.1-7.6 1.8-3 1.9-4 1-7.5-2-7.8-2.2-10.5-1.1-12.5.7-1.5.7-3.4-.1-6.8-1.4-5.6-2.6-7.4-4.6-7.1-1.7.3-3.8-4.8-5.8-14.2-1.7-7.7-5.2-17.2-6.8-18.2-.7-.5-.4-.8.9-.8 2.4 0 3.8-2.2 2.4-3.6-.6-.6-.3-2.7.5-5.1 1.9-5.6 1-9.7-3-13.2-2.6-2.3-3.4-3.8-3.6-7.1-.3-3.6 0-4.4 2-5.5 1.3-.7 3.3-1 4.3-.7 2.4.6 6.1-2.7 5.2-4.7-.3-.9-1-3-1.4-4.7-.7-2.9-.6-3 2.9-2.9 2 .1 4.6.7 5.9 1.4 3.6 2 6.3 1 8.5-3.2 1.1-2.2 2.6-3.7 3.7-3.7 2.8 0 6-4.7 6-8.8 0-3-.3-3.4-2.2-2.9-1.3.2-3.1.8-4 1.2-1.4.5-1.8.2-1.8-1.4 0-2.9-2.5-3.7-5.3-1.8-2.1 1.4-2.4 1.3-3.5-.4-1.6-2.4-3.7-2.4-6.2.1-1.5 1.5-1.8 2.7-1.3 5.1.5 2.9.4 3.2-1.3 2.5-1-.4-2.4-.9-3.1-1-2.3-.4-2.5-1.4-.8-4 2-3.1 1.4-5.3-1.8-6.5-2.4-.9-2.8-3.1-1.3-8.4 1-3.3-.7-5.7-4-5.7-1.9 0-2.4-.5-2.4-2.4 0-1.3-.7-2.9-1.6-3.7-2.4-1.9-4.6 0-6.5 5.5-.9 2.6-2.8 5.9-4.3 7.2-2.1 2-2.4 2.9-1.6 4.4.6 1 1.5 2.2 2 2.5 1.8 1.1 0 2.5-3.1 2.5-3.5 0-4.6-2.2-5.9-11.3-1.4-9.5-5.2-13.4-8.4-8.5-3.5 5.5-5.6 14.4-4.9 21.2.4 4.6.2 6.6-.5 6.6-1.7 0-2.5-4.3-2-11.5.3-5.1.1-6.5-1-6.5-1.5 0-6-2.9-11-7.2-2.6-2.2-4.1-2.7-7.5-2.5-5.2.3-5.9 2.4-2.3 6.8 3.1 3.7 3.1 3.9.5 8.3-1.9 3.3-2.5 3.6-6.8 3.6-2.6 0-5.1.4-5.6.9-.6.6-2.8.6-5.5.1-2.9-.5-6-.4-8.7.3-2.3.6-4.6.8-4.9.4-1.2-1.2 3.7-5.6 7-6.3 8.6-1.8 21-12.4 25.5-21.8 5.5-11.2 6.4-23.4 2.8-34.9-6.7-20.8-25.6-34.7-47.5-34.7-24.4 0-44.4 16.9-48.2 40.6-1.8 11.3.6 22.9 6.6 31.6l2.7 3.9-2.8 2.9c-1.6 1.7-3.7 3-4.8 3-2.5 0-22.7 6.7-24.4 8.2-.8.6-2 2.6-2.8 4.3-1.3 3.3-4.1 4.5-11.7 5.1-1.6.1-3.9.9-5.2 1.8-2.9 1.8-5.3 1.2-6.1-1.5-.4-1.1-1.6-1.9-3-1.9-2.4 0-3.5-2.2-3.5-7 0-1.4-.6-3.4-1.4-4.5-.7-1.1-1.9-3.8-2.6-6-1.4-4.5-11.2-19.7-14.4-22.3-1.2-.9-3.4-3.4-4.9-5.5-1.5-2-4.4-5.2-6.3-7.1-3.4-3.3-3.5-3.6-2.5-7.2.7-2.5.7-4.2.1-4.8-1.9-1.9-1-2.6 3.3-2.6 9.8 0 21.7-12.7 21.7-23.2 0-2.2-.8-3.3-3.5-4.9-3.8-2.3-4.3-3.4-2-4.3 2-.7 1.9-3.5-.4-9.4-2.5-6.3-1.9-8.5 3.8-14.7 2.6-2.8 5.3-6.4 6-8.2 1.2-2.9 1.1-3.7-.9-7.8-2.8-5.8-16-17.6-18.9-16.8-1.3.3-2.3-.2-3-1.5-.6-1.1-2.6-2.3-4.7-2.7-2.1-.3-7.1-2.6-11.3-5.1-4.2-2.4-8.6-4.4-9.9-4.4-2.2 0-6.8 3.7-8.8 7.1-.6 1.1-3.1 1.8-8.6 2.2l-7.8.7v-2.9c0-3.7-2.4-5.9-4.5-4.1-1.3 1-1.5.9-1.5-.9 0-3.4-6.1-9.1-9.8-9.1-1.7 0-3.4-.5-3.7-1-.3-.6-1.7-1-3.1-1-1.3 0-2.4-.6-2.4-1.3 0-1.5-3.1-4.7-4.6-4.7-.5 0-1.8.6-2.9 1.3zm3.5 5.1c0 1.3-.9 3.1-2 4.1-2.4 2.2-2.7.7-.9-4.3 1.2-3.5 2.9-3.4 2.9.2zm8 5.6c0 1.4-5 6.4-5.7 5.7-.6-.7 3.8-6.6 5-6.6.4-.1.7.4.7.9zm6 .4c0 .3-.4.8-1 1.1-.5.3-1 .1-1-.4 0-.6.5-1.1 1-1.1.6 0 1 .2 1 .4zm-18 3.1c0 .8 1.1 1.7 2.5 2.1 2.5.6 3.2 1.8 1.6 2.8-.4.3-2.3 0-4.2-.6-1.9-.6-4.1-1.3-4.9-1.5-1.1-.3-.9-.9 1-2.3 3-2.4 4-2.5 4-.5zm24 2.1c0 .3-.9 1.7-2 3.1-1.5 2-1.7 2.9-.9 3.9 1.6 1.9 2.9 1.7 5.6-.8 1.9-1.8 2.3-1.9 2.3-.5 0 1.9-2.9 3.7-6 3.7-1.1 0-3.1 1.1-4.3 2.3-3.3 3.6-5.3 2.2-2.2-1.4 1.3-1.7 3-4.8 3.6-6.9.7-2.2 1.8-4 2.6-4 .7 0 1.3.3 1.3.6zm44.8 6.1c6.7 3.4 8.5 5.4 6.3 6.8-.5.3-1.2 1.8-1.6 3.4-.9 4.3-3.2 5.9-5 3.5-1.3-1.9-1.4-1.9-4.9 0-1.9 1-4.5 2.9-5.7 4.2-1.9 2.1-2.1 2.9-1.3 6.1.5 2.3 1.6 3.9 2.6 4.1 1.8.4 11.5-6.8 19.1-14.2 6.2-6 9-6.1 15.8-.4 2.7 2.2 4.9 4.5 4.9 4.9 0 .5-2.4 1.9-5.2 3.1-5.2 2.2-20.9 13.5-32.1 23.1l-5.7 4.9-3.2-3.1c-1.7-1.7-3.5-3.1-3.9-3.1-.3 0-.6-1.1-.6-2.5 0-3-2.9-6.5-5.2-6.5-.9 0-3.1.9-4.9 2-3.9 2.4-4.2 2.4-4.2.5 0-.8.9-1.5 2-1.5s2.6-1 3.3-2.3c.7-1.2 3.7-5.9 6.5-10.5 2.9-4.6 5.2-8.8 5.2-9.3s-.9-.9-2-.9-2-.3-2-.6c0-.7 6.9-13.3 8.2-15 1.3-1.7 5.6-.6 13.6 3.3zm-64 1.3c1.6 2.6 4.4 2.6 6.7 0 1-1.1 2-1.8 2.3-1.5.3.3-.7 1.6-2.3 3-2.5 2.4-2.6 2.7-1.1 4.4 1.6 1.7 1.4 2-2.4 5.5-2.2 2-4.2 3.6-4.5 3.6-1.3 0-.2-2.2 2.5-5.4l3.1-3.4-2.2-1.6c-1.4-.9-3.3-1.3-5-.9-3.3.6-3.9-1-1.2-3.9 2-2.3 2.5-2.3 4.1.2zm39.5 2.2c1.6 1.2 1 2.5-6.2 13.4-4.3 6.7-8.6 12.6-9.5 13.1-2 1.1-3.3 22.9-1.3 23.7.7.2.5.5-.4.5-.9.1-2.1.7-2.7 1.3-1.3 1.7.3 5.8 2.3 5.8.8 0 1.5.4 1.5 1 0 .5-.2 1-.4 1s-1.1.3-2 .6c-1.1.4-1.6.1-1.6-1 0-.8-1.1-2.3-2.5-3.2-2-1.3-2.8-1.4-4-.4-1.2 1-1.5 1-1.5 0 0-.6 1-2 2.3-3 2.1-1.8 2.1-2 .5-4.7-3.5-6.1-4.4-16.1-2.2-25.6.5-2.1.3-2.7-1-2.7-.9 0-2.6 2.3-4.2 5.6-2.2 4.8-2.6 6.4-2 11 .6 5 .5 5.4-1.4 5.4-1.8 0-2-.4-1.4-4.3 1-7.1 3.1-13.4 5.8-17.4 2.2-3.2 2.4-4 1.2-5.8-1.7-2.6-1-4.5 1.6-4.5 1.1 0 3.7-1.3 5.7-2.8 4-3.1 10.1-6 15.2-7.2 5-1.2 6.3-1.1 8.2.2zm-57.3 4.7c1.4 2.6 1.3 8.8-.1 9.7-1.1.7-3.7.8-12.1.5-4.5-.1-5.3-2.8-1-3.3 2.3-.3 2.7-.7 2.4-3.2-.4-3.5 2-3.1 2.8.5.7 3 4.5 3.8 5.9 1.2.6-1.2.6-2.5 0-3.4-1.2-1.9-1.1-3.9.1-3.9.5 0 1.4.9 2 1.9zM89 128c0 .5-.2 1-.4 1-.3 0-.8-.5-1.1-1-.3-.6-.1-1 .4-1 .6 0 1.1.4 1.1 1zm33.4-.1c1.1.4 1.5 1 1 1.3-.5.4-1.8 0-2.9-.8-2-1.5-1.2-1.7 1.9-.5zm-34.8 6c1.4-1.1 1.8-1 3.1.6 1.3 1.9 1.2 2-1.7 2.3-4.1.4-6-.3-6-2.4 0-1.3.3-1.4 1.5-.4 1.2 1 1.8 1 3.1-.1zm38.4 1.9c0 1.6-.7 3.7-1.6 4.8-1.5 1.8-1.5 1.8-1-.7.4-1.8 0-3.1-1-4-1.4-1.2-1.4-1.4.3-2 3-1.2 3.3-1 3.3 1.9zm-23 3.6c0 .2-.8 1-1.7 1.7-1.6 1.3-1.7 1.2-.4-.4 1.3-1.6 2.1-2.1 2.1-1.3zm-6.5 2.7c1 1.6-.1 2.2-2.6 1.4-1.7-.6-1.9-.9-.8-1.6 1.9-1.2 2.6-1.1 3.4.2zm131.5 3.5c0 2-2.9 3-4.3 1.5-.9-1-.8-1.6.7-2.6 2.1-1.6 3.6-1.1 3.6 1.1zm-102 1.7c0 .7-.6 2.2-1.4 3.3-1.4 1.8-1.5 1.8-2.1.1-.7-1.7 1-4.7 2.6-4.7.5 0 .9.6.9 1.3zm87.5 2.3c.3 2 .5 3.7.3 3.9-.2.2-2.7 0-5.6-.2l-5.3-.6 3.2-3.3c4.3-4.5 6.5-4.4 7.4.2zm-117.9 5.5c.5.8-2.4 1.4-5.3 1-.7-.1-2.3.3-3.5.9-1.7.9-1.6.6.6-1.2 2.8-2.4 6.9-2.7 8.2-.7zm70.9-.1c.3.5.1 1-.4 1-.6 0-1.1-.5-1.1-1 0-.6.2-1 .4-1 .3 0 .8.4 1.1 1zm36.7 1c2.1 0 2.3 1.1.7 2.7-.9.9-.4 1.9 1.9 4.2 3.2 3.2 5.5 3.3 6.7.3.5-1.3 1.4-.4 4.1 3.8 3.6 5.7 3.4 7.4-.9 7.5-1.4 0-2.6 1-3.5 2.7-.8 1.8-2.1 2.8-3.5 2.8-3.2 0-5.1 1.5-4.3 3.5.5 1.4.2 1.6-2.1 1.2-1.6-.3-5.3-1.1-8.3-1.7-9.2-1.8-10-2-10-2.9 0-.4 1.1-1.4 2.5-2.1 1.4-.7 2.5-2.2 2.5-3.2 0-1.5.4-1.7 1.9-.9 2.4 1.3 3.1.5 3.1-3.5 0-2.3.5-3.3 2-3.7 1.7-.4 2-1.4 2-5.9 0-5.8.7-7.5 2.4-5.8.5.5 1.8 1 2.8 1zm-88.2 2.2c0 1.8-.2 2-.9.8-.6-.8-.7-1.8-.5-2.2.9-1.4 1.4-.9 1.4 1.4zm45-1.2c0 .5-.5 1-1.1 1-.5 0-.7-.5-.4-1 .3-.6.8-1 1.1-1 .2 0 .4.4.4 1zm10.7 5.6c.2.5-1.7.9-4.2 1-5.2.1-6.1-1.3-1.2-1.9 4-.5 5-.3 5.4.9zm-9.7 5.9c0 .3-1.2 1.7-2.7 3-2.5 2.1-2.9 2.2-3.4.7-.4-1.2.2-2.1 2-2.9 3-1.3 4.1-1.5 4.1-.8zm9.9 1.7c0 1.3-1.4 2.5-16.4 13.8-4.4 3.3-9.6 7.3-11.5 8.8-1.9 1.5-5.4 3.9-7.8 5.4-2.3 1.5-4.7 3.9-5.1 5.2-1.3 3.4-8.1 4.7-8.1 1.6 0-.5 1.5-1.7 3.3-2.6 1.7-.9 5.5-3.5 8.2-5.8 2.8-2.4 7.2-5.8 9.9-7.7 7.3-5.1 16.6-11.5 20.9-14.4 2.1-1.4 4-3.2 4.4-4 .6-1.8 2.3-2 2.2-.3zm-36.7 5.3c1.1 1.4 2.8 2.5 3.7 2.3.9-.2 2.9.7 4.4 1.8 2.8 2.3 2.6 2.9-2.1 5.3-2.1 1.1-2.2 1.1-1.1-.8 1.7-2.6-.5-5.4-3.7-4.8-1.6.3-2.5-.4-3.6-3-1.8-3.9-.4-4.4 2.4-.8zm41.6 6.9c3.6 1.8 18.3 5.4 25.7 6.2 9.7 1.1 10 2.4.5 2.3-6.6-.1-10.4-.8-17-3.1-4.7-1.7-10.6-3.5-13.2-4-2.7-.6-4.8-1.5-4.8-1.9 0-1.4 5.8-1.1 8.8.5zm171.1 1.1c13.8 3.3 24 11.4 30.3 24.2 4.1 8.4 5.1 20.8 2.3 30.9-2 7.4-7.9 16.2-13.9 20.8-3.4 2.5-4 2.7-6.2 1.5-1.9-1-4.4-1-11.6-.2-7.8.9-9.7.8-12.5-.5-4.1-1.9-4.1-3.1-.3-5.7 1.6-1.1 3.2-2.6 3.5-3.4.9-2.4-.5-5.1-2.8-5.1-2.2 0-2.1-.1.3-2 1.4-1.1 3.1-2 3.9-2 .7 0 4.4 2 8.1 4.5 11.3 7.5 14.2 5.7 9.1-5.5-1.7-3.9-3.1-7.9-3.1-9 0-1.4 2.2-3.4 7-6.6 7.4-4.7 10-7.8 8.1-9.7-.6-.6-5.5-1-11.6-1-9.8 0-10.7-.1-12-2.1-2.6-4-5.5-13.8-5.5-18.8 0-3.4-.4-5-1.5-5.4-2.3-.9-4.5 1.5-4.5 4.7 0 1.5-.4 3.8-.9 5.1-.5 1.3-1.7 5.2-2.7 8.8-1 3.6-2.2 7.1-2.7 7.8-.7.9-3.9 1.2-11.6 1.1-14.7-.4-16.3.8-8.3 6.3 2.6 1.8 7 4.4 9.7 5.9 6.2 3.2 6.6 5.3 2.8 12.9-2.7 5.2-3 5.5-7.4 6.1-2.5.4-6 1.4-7.7 2.3-3 1.6-3.1 1.5-5.3-1.5-7.7-10.9-7.8-34.4-.2-44.9 9.3-12.7 18.5-18.4 32.3-20 3.6-.4 7-.8 7.5-.8.6-.1 3.9.5 7.4 1.3zm-211.1 1.7c.7.7 1.2 1.6 1.2 2.1 0 1-6.1 6.7-7.2 6.7-.8 0 3.4-9.9 4.3-10 .3 0 1 .5 1.7 1.2zm76.7-.2c-.3.5-1.5 1-2.6 1-1 0-1.9-.5-1.9-1 0-.6 1.2-1 2.6-1 1.4 0 2.3.4 1.9 1zm10.5 4c-2.7 2.1-5.5 2.6-6.5 1-.4-.6.6-1 2.2-1 1.5 0 3.5-.5 4.3-1 2.6-1.7 2.6-1 0 1zm-47.9.1c1.9 1 1.9 1.2.5 2.8-1.4 1.6-1.5 2-.2 3 1.1.9 1.8.7 3.3-1.2 1-1.3 2.5-2.2 3.3-2 4.2 1.2 4.3 1.3 3 2.8-.6.8-.9 1.9-.5 2.5 1 1.6 3.4 1.2 4.7-1 .9-1.4 2.4-2 5.1-2 3.4 0 3.8.2 3.2 2-1 3 2.4 4 4.3 1.2 1.7-2.5 6-2.9 6.8-.7.9 2.1 4.2 1.9 5.6-.5 1.3-2.1 3.3-2.6 4.2-1.1 1 1.6-.6 4.2-2.3 3.8-.9-.2-2.9.3-4.4 1-2.6 1.3-3 1.3-4.2-.4-1.4-1.7-1.6-1.7-5.3.4-2.4 1.4-4.3 1.8-5.2 1.3-.8-.5-2.1-.5-2.9-.1-2.5 1.3-31.9 1.2-32.7-.1-.5-.7-.2-.9.8-.5.9.3 1.9.3 2.3-.1.3-.4 1.4-.7 2.3-.7.9 0 1.8-.8 2-1.8.2-1.2-.3-1.7-1.7-1.7-1.3 0-2.1-.6-2.1-1.6 0-1.1.5-1.4 1.6-1 2.1.8 4.4-1.1 4.4-3.5 0-2.2 1.2-2.4 4.1-.8zm-14.4 9.1c-.3.7-.5.2-.5-1.2s.2-1.9.5-1.3c.2.7.2 1.9 0 2.5zm10.9 8c.2.3.2 1.3-.2 2.2-.5 1.3-2.2 1.6-8.5 1.7-4.3.1-8.5.2-9.1.3-.7.1-1.3-.8-1.3-1.9 0-1.6.9-2.1 5-2.6 5.2-.7 13.2-.5 14.1.3zm167.9 2.4c2.3 5.5 2 6.4-2 6.4-3.8 0-4-.5-2.4-6.3 1.3-4.7 2.5-4.7 4.4-.1zm-161.6 1.1c-1.5 1.8-3.4.1-2.5-2.2.5-1.4.9-1.5 2.1-.5 1.2 1 1.3 1.6.4 2.7zm9.3 2.5c-1.5 1.5-2.4.6-1.6-1.6.5-1.2 1-1.4 1.7-.7.8.8.8 1.4-.1 2.3zm-3.1 3.9c3.4 1.7 7.2 4.2 8.6 5.5 1.3 1.3 2.8 2.2 3.3 1.9 1.8-1.1 17.1 14.8 15.6 16.2-.4.4-3-1.6-5.9-4.5-6.4-6.4-20.3-15.4-27.9-18.3-3.2-1.2-5.8-2.5-5.8-3 0-1.9 6.3-.8 12.1 2.2zm-31.1-.2c0 .7-2.9 2.3-8.5 4.8-.5.2.6-.9 2.5-2.6 3.3-3 6-4 6-2.2zm-15.4 3.7c-1 1.4-2 2.3-2.3 2-.3-.3.2-1.7 1.1-3.2 1-1.4 2-2.3 2.3-2 .3.3-.2 1.7-1.1 3.2zm218.9 2.9c-2.2 1.9-4.3 3.5-4.8 3.5-.4 0-1.3-1.2-1.9-2.6-1.5-3.3 0-4.4 6.2-4.3h4.5l-4 3.4zm-11.5-.6c1.6 3 1.2 7.6-.7 9.3-4.5 3.9-6.2 4.1-10.5 1.3-3.9-2.6-4-2.8-3.4-6.8.8-5.1 1.7-5.7 8.3-5.7 4.2 0 5.4.4 6.3 1.9zm-21 1.7c0 1.4-.3 2.4-.7 2.2-7.5-3.6-8.2-4.8-2.8-4.8 3.1 0 3.5.3 3.5 2.6zM151.5 226c-1 1.1-2.1 1.7-2.4 1.4-.3-.3.3-1.2 1.3-2 2.8-2 3.2-1.7 1.1.6zm28.2-.8c5 2.2 11.3 7.1 11.3 8.9 0 1-.9 2.1-2 2.4-4.1 1.3-13.1 11.4-16.5 18.7-1.9 4-4.2 7.6-5 8.1-2 1.1-1.9-.2.2-2.5 1.3-1.4 1.7-3.4 1.5-7.3-.1-2.9.5-7.9 1.3-11.1 2-7.7 2-10.6-.1-10.2-1.1.2-2.2 2.5-3.3 6.8-1 3.6-2.3 7.4-2.9 8.5-1.1 1.9-1.1 1.9-1.2-.5 0-2.7 3.3-16.1 4.4-17.9.4-.6 1.8-.8 3.2-.5 2.1.5 2.5.3 2.4-1.2-.1-1.1-.2-2.2-.1-2.7.2-1.1 3.7-.8 6.8.5zm-16.7.7c0 .6-.8 1.6-1.8 2.3-.9.7-1.8 2.6-1.8 4.3-.3 6.4-1.7 16.5-2.4 16.5-.8 0-2.1-5-2.4-8.5 0-1.1-.8-2-1.6-2-1.2 0-1.6 1.7-2 7.5l-.5 7.5-.7-7.9c-.7-8.8.4-12.6 4.5-14.7 1.2-.7 3.2-2.3 4.4-3.6 2.3-2.4 4.3-3 4.3-1.4zm167.8 9.7c3 2 2.8 2.8-1.3 5.9-4.6 3.5-5.8 2.6-3.8-3 1.7-5 1.9-5.2 5.1-2.9zm20.9 2.9c2.2 4.5 1.2 5.2-3.2 2.5-3.4-2.1-3.5-2.3-1.9-4.1 2.4-2.7 3.2-2.4 5.1 1.6zm-151.4 4.3c4.6 5.3 8.1 12.4 6.9 13.7-.3.3-1.6.5-2.9.5-6.1 0-15 6.6-22 16.4-4.4 6.1-8.4 10.6-9.5 10.6-.4 0-.8-1-.8-2.3 0-1.8.5-2.3 2.8-2.2 2.3 0 2.7-.4 2.5-2.6-.1-1.7.6-2.8 2-3.5 1.6-.7 2.4-2.1 2.9-5.7.5-3.5 2.1-6.8 6.3-12.7 5.5-7.9 6.4-11.1 2.5-9-1.3.7-2.6.6-4.5-.4l-2.6-1.4 3.4-3.6c4.9-5.2 7.2-4.8 13 2.2zm15.7-.3c.7.8.8 1.5.2 1.5-.5 0-1.5-.7-2.2-1.5-.7-.8-.8-1.5-.2-1.5.5 0 1.5.7 2.2 1.5zm-77.9 6.2c-1 1.7-1 1.6-1.1-.3 0-2.3 1.3-4.1 1.8-2.5.2.6-.1 1.8-.7 2.8zm43.4 1.3c-.9 1.6-1.8 3-2.1 3-.2 0 .2-1.4 1.1-3 .9-1.7 1.8-3 2.1-3 .2 0-.2 1.3-1.1 3zm36.5 5.9c-.1 1.3-.4 1.2-1.6-.4-.8-1.1-2.4-3-3.4-4.3-3.3-3.7-2.3-3.8 1.5-.2 1.9 1.9 3.5 4.1 3.5 4.9zm112.5-5.9c.7 1.1.8 1.1-8 3.5-3.3.9-6.7 2-7.6 2.5-.8.4-2.7.6-4.2.3-2.2-.4-2.7-.2-2.7 1.5 0 2.7-1 5.2-2.1 5.2-.5 0-.9-.7-.9-1.6 0-3.4-2.6-.5-3.9 4.4-.8 2.9-1.8 5.2-2.2 5.2-1.3 0-1.1-3.4.3-4.8 1.7-1.7 0-2.8-2.2-1.4-1.1.7-3.1 1.2-4.5 1.2-1.9 0-2.6.7-3.3 3.2-.9 3.5-2.7 4-2.7.8 0-1.1-.6-2.5-1.3-3.2-2-2-1.4-2.7 2.6-3.3 6.2-1.1 8.8-2.4 14.8-8 3.2-3 6.9-5.6 8.3-5.8 5.6-.9 19-.7 19.6.3zm-193.8 3.2c-.3.8-.6.5-.6-.6-.1-1.1.2-1.7.5-1.3.3.3.4 1.2.1 1.9zm.3 3.5c0 1-.5 2.5-1 3.3-.7 1.1-1 .7-1-1.8 0-1.7.5-3.2 1-3.2.6 0 1 .8 1 1.7zm15.1 12.5c1.7 4 .7 4.4-3.9 1.3-4-2.6-6.2-6.5-6.2-10.9 0-1.7.7-1.3 4.4 2.3 2.5 2.4 5 5.7 5.7 7.3zm177.6-7.6c3.7 2.5 4.1 2.6 14.1 2 6.6-.4 10.2-.3 10.2.3s-1 1.3-2.2 1.6c-15.9 3.6-15.5 3.6-19.2 1.8-1.9-1-3.7-2.6-4-3.7-.2-1-1-1.5-1.6-1.1-.6.4-1.7.1-2.5-.5-1.1-1-1.5-.7-2.1 1.4-.7 2.9-2.4 3.5-2.4.9 0-2 2.8-5.3 4.6-5.3.7 0 3 1.2 5.1 2.6zm-18.6.7c-1 .9-1.1.8-.5-.6.3-1 .9-1.5 1.2-1.2.3.3 0 1.1-.7 1.8zm-106.3-.1c1.5 1.5 1.5 2.5-.1 3.1-1.7.6-5.1-1.9-4.2-3.2.8-1.4 2.8-1.4 4.3.1zm238.2 1.7c0 1.1-.5 2.3-1.1 2.7-.6.3-.9 1.4-.6 2.4.2.9.1 2.4-.4 3.2-1 1.8 1.1 4.1 3.1 3.6 2.6-.6 2 2.2-.6 3.3-2.1.7-3 .7-3.2-.1-.9-2.6-3.3-4-5.3-3-1.3.8-1.9.7-1.9 0 0-.6 1.1-1.5 2.5-2 5.1-1.9 1.7-7-3.5-5.2-2 .7-3.2.7-3.6.1-1.1-1.9 1.8-3 7.9-3 1.6 0 3.2-.8 4-1.9 1.5-2.5 2.7-2.5 2.7-.1zm-306.3 7.8c-.6 1.4-.6 3.8.2 6.9.7 2.5 1 4.9.7 5.1-1.2 1.2-3.5-13.3-2.8-17.8l.5-3.3 1.1 3.5c.8 2.2.9 4.2.3 5.6zm40.3-3.5c0 4.1-1.8 4.3-2.5.4-.8-4 .2-6.7 1.6-4.5.5.8.9 2.6.9 4.1zm103.5-.5c-1.7 7.8-2.9 11.3-3.7 10.5-.4-.4-.3-2.2.3-4.1.6-1.7.9-3.5.6-3.8-1.2-1.1-3.7.7-3.7 2.7 0 2.3-2.2 2.7-4 .5-1.6-1.9-.7-3.1 4.8-6 6-3.1 6.4-3.1 5.7.2zm-84.5-.9c0 1.2-11.2 14.4-11.7 13.8-.9-.9 8.7-14.6 10.2-14.6.8 0 1.5.4 1.5.8zm19 1.3c0 .6-.4.7-1 .4-.5-.3-1-1.1-1-1.6 0-.6.5-.7 1-.4.6.3 1 1.1 1 1.6zm-7.8 1.9c-1.8 1.1-3.7 2-4.2 2s-1.4.9-2 2c-.9 1.7-.8 2 1.2 2 1.3 0 3.2-.7 4.2-1.5 1.1-.8 2.5-1.5 3-1.5.6 0 0 .9-1.4 2-1.8 1.3-2.2 2.2-1.4 3 .7.7 2.4 0 5.9-2.6l4.8-3.7 2.4 2.9c1.2 1.6 2.3 3.4 2.3 4 0 1.2-6.2 11.6-9.6 16.1-3.2 4.2-5.6 4.4-4.8.4 1-4.9-1.3-4.4-5.1 1.3-3.5 5.3-6.5 8.6-6.5 7.1 0-.4 1.8-3.2 4-6.4 6.1-8.7 4.8-11.2-2.4-4.4-3.8 3.6-3.9 3.7-2.2.8 1-1.7 2.7-3.9 3.7-5.1 2.1-2.3 2.5-5.4.7-5.4-.6 0-2.3 1-3.6 2.2l-2.4 2.3 1.3-2.8c1-2.1 1-3.3.2-4.7-1.6-2.5.6-5.3 7-9 5.7-3.3 10.1-4.2 4.9-1zm112.8-.3c0 .5-.5 1.5-1 2.3-.8 1.2-1 1.1-1-.8 0-1.2.5-2.2 1-2.2.6 0 1 .3 1 .7zm-36.4 3c-1 1-1.9-.5-1-1.8.6-1.1.8-1.1 1.2 0 .2.7.1 1.5-.2 1.8zm-113.6.2c.5 1.1 1 2.7 1 3.6 0 1.4-.3 1.4-3 0-1.6-.8-3.8-1.5-5-1.5-2.5 0-1.7-1.8 1.4-3 3.3-1.4 4.4-1.2 5.6.9zm123 3c0 .6-.4 1.3-1 1.6-.5.3-1-.1-1-.9 0-.9.5-1.6 1-1.6.6 0 1 .4 1 .9zm67.6 1.5c1 .8 1.6 1.7 1.3 2.1-.8.7-5.9-1.5-5.9-2.7 0-1.3 2.4-1 4.6.6zm-195.4 6.1c-.2.9.4 2.6 1.4 3.6 1.5 1.7 1.5 1.9.1 1.9-1.7 0-2.8-1.6-5.9-8.4l-1.8-3.9 3.2 2.6c1.9 1.4 3.2 3.2 3 4.2zm115.9-2.1c-1.1 2.7-2.4 3.7-1.6 1.1.3-.8.7-2.2 1-3.1.3-.9.8-1.5 1.1-1.2.2.3 0 1.7-.5 3.2zm5.9-2.4c0 .5-.4 1-1 1-.5 0-1-.5-1-1 0-.6.5-1 1-1 .6 0 1 .4 1 1zm98 1c0 1-3.1 2.2-3.8 1.6-.2-.3-.2-1.2.1-2 .6-1.5 3.7-1.2 3.7.4zm-152.2.2c1.8 1.8 1.5 3-2.4 9.4-1.9 3.3-3.8 7.2-4.1 8.7-.3 1.5-1.4 3.2-2.4 3.8-1.1.5-1.9 1.8-1.9 2.9 0 1.9 3.2 3.6 5 2.5.5-.3 1 0 1 .8 0 2.5-1.2 2.7-4 .7-3.4-2.4-4.4-2.5-6-.5-1 1.3-.9 1.9.6 3.7l1.9 2.1-3.4-1.8c-3-1.5-3.5-1.5-4.9-.1-1.2 1.2-1.3 1.8-.3 2.9.9 1.2.7 1.6-1.4 2.1-2.9.7-3.3 3.3-.7 5.2 1.5 1.2 1.6 1.3 0 1.4-2.4 0-7.8-4.9-7.8-7.1 0-3 2.4-7.1 9.4-16.2 3.5-4.5 7.6-10.5 9.1-13.2 1.6-2.8 3.5-5.8 4.3-6.8 1.7-2 6.2-2.3 8-.5zm90.5-.2c1.6 0 2.6.4 2.3.9-.9 1.4-8.9.8-9.4-.8-.3-1 .1-1.2 1.9-.8 1.3.4 3.7.7 5.2.7zm29.2 0c.3.5-.1 1-1 1s-1.3-.5-1-1c.3-.6.8-1 1-1 .2 0 .7.4 1 1zm105.9.5c-.4.8-.8 1.5-1 1.5-.2 0-.4-.7-.4-1.5s.4-1.5 1-1.5c.5 0 .7.7.4 1.5zm-62.7 1.1c-.3.3-1.2.4-1.9.1-.8-.3-.5-.6.6-.6 1.1-.1 1.7.2 1.3.5zm46.3 3.6c0 1.3-2.7.9-4-.7-1.9-2.3-.1-3.9 2.1-1.9 1 .9 1.9 2.1 1.9 2.6zm-52.2-2c1.8 2.3 4.1 12.7 3.3 15.6-.6 2.3-.9 1.8-1.4-3.1-.3-3.2-1.5-7.6-2.6-9.8-2-3.7-1.5-5.3.7-2.7zm84.3 4.1c-.6.6-3 1.1-5.4 1.2-4.2 0-4.2 0-4.2 3.7 0 5.1-1.1 5.6-2.9 1.4-1.7-4.1-3.8-4.6-6.1-1.4-1.3 2-1.7 2.1-2.5.8-1.4-2.2-1.2-4 .4-4 .8 0 2.4-1.2 3.5-2.6 1.6-2 2.4-2.4 3.4-1.5 1 .8 1.8.7 3.2-.3 1.6-1.2 2.2-1.2 4.1 0 1.9 1.3 2.4 1.2 4.5-.5 2.4-1.9 2.4-1.9 2.7.1.2 1.1-.1 2.5-.7 3.1zM259 284c0 .5-.5 1-1.1 1-.5 0-.7-.5-.4-1 .3-.6.8-1 1.1-1 .2 0 .4.4.4 1zm30.7 2.2c-.3.7-.5.2-.5-1.2s.2-1.9.5-1.3c.2.7.2 1.9 0 2.5zm-13.2-1.3c.3.5.1 1.2-.5 1.6-.5.3-1-.1-1-.9 0-1.8.6-2.1 1.5-.7zm40.2.7c.2.6-1.6 1.6-3.9 2.2-2.5.7-5.6 2.4-7.3 4.2-3.6 3.7-4.8 3.8-3.4.2 2-5.1 5.7-8 10.2-7.9 2.2.1 4.2.7 4.4 1.3zm21.3-.6c0 .5 1.1 1.7 2.5 2.6 2.1 1.4 3.1 1.5 5.1.6 2.2-1.1 2.6-.9 3.4 1.2.5 1.3 1.4 2.7 1.9 3.1 1.5.9 1.4 4.7-.2 6.9-1.2 1.6-1.5 1.4-4.1-2.4-2.1-3.1-3.2-4.1-4.7-3.7-1.4.4-2.3-.3-3.4-2.2-.7-1.5-2.1-3.3-2.9-4-2.2-1.8-2-3.1.4-3.1 1.1 0 2 .4 2 1zm46.6 4.6c1.9 6.6 1.3 8.3-.9 2.2-.8-2.4-1.8-5.1-2.2-6.1-.4-1-.3-1.7.4-1.7.6 0 1.8 2.5 2.7 5.6zm45.4-3.5c0 .5-.4.9-1 .9-.5 0-1-.7-1-1.6 0-.8.5-1.2 1-.9.6.3 1 1 1 1.6zm-289 2.7c0 .8 1.6 5.9 3.6 11.4 3.9 11 4.4 17.9.6 9.6-1.9-4.3-7.2-22-7.2-24.2 0-.5.7-.3 1.5.4s1.5 1.9 1.5 2.8zm11-2.8c0 .5-.2 1-.4 1-.3 0-.8-.5-1.1-1-.3-.6-.1-1 .4-1 .6 0 1.1.4 1.1 1zm29 3.4c0 3.1-1 3.7-4.9 3-3.8-.8-3.9-1.9-.3-3.8 3.9-2.2 5.2-1.9 5.2.8zm153.7 5.9c2.1 4.1 1.1 4.3-3 .8-2.7-2.4-4.4-3.1-7.6-3.1-6.1 0-5.3-2.5 1.3-4 3.5-.8 6.7 1.4 9.3 6.3zm20.8-6.3c.3.5.1 1-.4 1-.6 0-1.1-.5-1.1-1 0-.6.2-1 .4-1 .3 0 .8.4 1.1 1zm78.5-.6c0 .3-.4.8-1 1.1-.5.3-1 .1-1-.4 0-.6.5-1.1 1-1.1.6 0 1 .2 1 .4zM242.5 290c.5.8-6.4 6-8 6-1.1 0-.4-3 .8-3 .6 0 2.3-.9 3.7-2 3-2.3 2.7-2.2 3.5-1zm182.5 2.3c0 2-.1 2-1.6.5-.9-.9-1.3-2.1-.9-2.7 1-1.6 2.5-.3 2.5 2.2zm-151 1.3c0 .8-.5 1.2-1 .9-.6-.4-.8-1.1-.5-1.6.9-1.4 1.5-1.1 1.5.7zm98.4 1.6c-1.4 4.7-2.3 6.6-3.3 7.2-.8.6-.2-3.3 1.4-8.2.8-2.3 2.7-1.3 1.9 1zm-85.4 1.3c0 .8-.4 1.5-1 1.5-.5 0-1-.7-1-1.5s.5-1.5 1-1.5c.6 0 1 .7 1 1.5zm-35 .5c0 .5-.7 1-1.6 1-.8 0-1.2-.5-.9-1 .3-.6 1-1 1.6-1 .5 0 .9.4.9 1zm60.5 2c2.1 2.2 3.4 2.8 5.2 2.4 2.6-.7 4.3 2 2.4 3.9-.8.8-1.7.6-3.3-.9-1.3-1.1-4-2.8-6.1-3.7-3.7-1.7-3.9-1.6-6.7.5-3.5 2.5-3.5 2.6-1.4 4.9 2.1 2.3 2.2 10 .4 15.4l-1.4 4-.7-7.8c-.6-7.1-1-8.1-3.8-10.6-3.4-3.1-3.8-4.1-1.6-4.1.8 0 2.9-1.3 4.7-2.9 3-2.6 5.2-3.6 8.4-4 .5 0 2.3 1.2 3.9 2.9zM194 297.4c0 .3-.4.8-1 1.1-.5.3-1 .1-1-.4 0-.6.5-1.1 1-1.1.6 0 1 .2 1 .4zm43.2 2.8c-.9.9-1.2.7-1.2-1.2s.3-2.1 1.2-1.2c.9.9.9 1.5 0 2.4zm-64.7-1.2c-.3.5-1.1 1-1.6 1-.6 0-.7-.5-.4-1 .3-.6 1.1-1 1.6-1 .6 0 .7.4.4 1zm189.4 1.2c-3.7 7.3-6.5 10.8-8.6 10.8-1.9 0-2.3-.5-2.3-3.3 0-4.2.9-5.2 2.7-2.9 1.2 1.4 1.5 1.5 2 .2.7-1.7 5.8-7 6.8-7 .3 0 .1 1-.6 2.2zm-207.2 1c-.3.8-.6.5-.6-.6-.1-1.1.2-1.7.5-1.3.3.3.4 1.2.1 1.9zm112.1 6.3c0 1.5-.3 1.3-1.3-1-.8-1.7-1.4-4.1-1.4-5.5 0-2.2.2-2.1 1.4 1 .7 1.9 1.3 4.4 1.3 5.5zm137.2-4.7c0 2.5-.3 2.8-3.5 2.8-2.7 0-3.5-.4-3.5-1.9 0-1 .4-1.5 1-1.2.5.3 2-.1 3.2-.9 2.9-2 2.8-2.1 2.8 1.2zm-147.6 5c2.9 7.5 3.2 10.2 1.4 10.2-.7 0-2.4.3-3.8.6l-2.5.6 2.3-1.7c2.5-1.9 2-3.9-.9-3.2-1.1.3-1.9.1-1.9-.4s.5-.9 1-.9c1.7 0 1.1-2.8-.7-3.9-1.7-.9-1.7-1 0-1.6 2.5-1 2.1-3.5-.5-3.5-2.2-.1-2.3-.1-.4-1.5 1.1-.8 2.3-1.5 2.7-1.5.4 0 1.9 3 3.3 6.8zm177.6-5.9c0 2.5-10.2 6.2-11.5 4.1-1-1.6.7-3.1 4.7-4 4.6-1.1 6.8-1.1 6.8-.1zm14.6 3.7c-.5 1.3-1 1.4-1.8.6-.6-.6-.8-1.8-.4-2.8.5-1.3 1-1.4 1.8-.6.6.6.8 1.8.4 2.8zm-29.8.1c-.2 1-1.4 2-2.8 2.1-1.3.2-2.9 1.1-3.6 1.9-.8 1.3-1.3 1.3-1.9.3-.5-.8.3-2.1 2.1-3.6 3.5-2.8 6.7-3.2 6.2-.7zM135.3 307c.3 1.1.1 1.8-.4 1.4-.5-.3-.9-1.2-.9-2 0-2 .7-1.7 1.3.6zm101.7-.9c0 .6-.5 1.9-1.1 3-.7 1.5-.7 2.4.2 3.5.9 1.1.9 1.7-.1 2.9-2.4 2.9-3.2 1.6-2.5-3.8.4-2.8.9-5.5 1.2-6 .6-1.1 2.3-.9 2.3.4zm-49.4 2.6c-1 1-1.9-.5-1-1.8.6-1.1.8-1.1 1.2 0 .2.7.1 1.5-.2 1.8zm191.9.5c-.4 1.8-1.1 3.9-1.6 4.8-.4.8-1.8 3.7-3 6.5-2.4 5.6-3.7 4.6-1.8-1.2 1.4-4.6 5.7-13.3 6.5-13.3.3 0 .2 1.4-.1 3.2zM272.3 313c-.4 2.1 0 3.6 1.1 4.9 1.6 1.7 1.5 2.1-1.8 7-1.9 2.9-4.5 7.3-5.8 9.7-2 3.9-2.6 4.4-4.8 3.9-1.4-.3-3-1.3-3.6-2.1-.7-.8-3.1-1.8-5.5-2.2-4.3-.7-6.7-3.2-3.1-3.2 1.7 0 10.5-3.4 15.1-5.9 1-.5 1.5-2.4 1.6-5.5 0-3.9.5-5.1 3-7.1 3.9-3.2 4.6-3.1 3.8.5zm134.7 1c2.3 2.3 2.5 3.6.9 4.6-.7.4-1.6-.1-2.1-1s-2.1-2.1-3.4-2.7c-1.4-.5-2.2-1.3-1.9-1.9 1-1.6 4.4-1.1 6.5 1zm-117.6 3.2c-1 2-1.9 2.8-2.2 2-.2-.7.4-2.2 1.4-3.3 2.5-2.7 2.7-2.4.8 1.3zm77.5.5c0 1-.9 3.6-1.9 5.8l-1.9 4V324c0-1.9.2-4.5.5-5.8.7-2.6 3.4-3 3.3-.5zM346 330.8c-1 8.8-2.4 3.7-1.4-5.6.7-7 .8-7.3 1.4-3.9.4 2.2.4 6.4 0 9.5zm-126.2-9.2c.2 1.3-1 3.6-3 5.8-2 2.2-3.5 5.2-3.8 7.3-.8 6-2.8 5.1-3.2-1.4-.3-6.2 1.6-9.8 4.7-8.7 2 .8 3.1-2.2 1.4-4.2-1.1-1.4-1-1.5 1.1-1.2 1.6.2 2.6 1 2.8 2.4zm93.2-.6c0 .5-.5 1-1.1 1-.5 0-.7-.5-.4-1 .3-.6.8-1 1.1-1 .2 0 .4.4.4 1zm-53.1 1.7c-.4 1-6.9 3.3-6.9 2.4 0-.6 6.2-3.8 6.8-3.5.2.1.2.6.1 1.1zm134.4 3.5c-1.1 1.3-3.7 4.8-5.6 7.8-3 4.7-11.7 13.9-11.7 12.3 0-1.2 11.2-17.6 14.2-20.8 3.7-3.8 6.7-3.1 3.1.7zm46.5-.6c2.8 4.3 2.1 5.6-1.3 2.4-1.8-1.7-3.1-2.1-5.3-1.7-3.8.8-4.7-.1-2.5-2.5 2.7-3 6.5-2.3 9.1 1.8zM231.5 328c-1 1.1-1.9 3.6-2.1 5.6-.3 3.4-.2 3.6 2.2 3.1l2.6-.5-2 2.1c-1.7 1.7-2.4 1.8-3.6.8-.9-.8-2.7-1-4.5-.6-3.5.7-7.9-1.1-6.3-2.7.7-.7 2-.7 4.2.1 1.8.6 3.6.9 4 .6.4-.3 1.3-2.6 2-5.2 1.4-5.7 2.9-7.8 4.3-6.4.7.7.5 1.7-.8 3.1zm13.8-1.5c.1.6-1.8 1.1-4.3 1.2l-4.5.2 3.5-1.4c3.8-1.5 5.1-1.5 5.3 0zm164.7.5c0 1.1-.4 2-.9 2-1.4 0-2.3-1.8-1.6-3 1-1.7 2.5-1.1 2.5 1zm-124.7 9.3c-.3.5-2-.5-3.7-2.2-1.8-1.7-3.5-2.8-3.9-2.5-.4.4-.7 0-.7-1 0-1.3.6-1.5 2.6-1 2.1.5 2.6.2 3.1-1.7.6-2 .9-1.6 1.9 2.5.7 2.8 1 5.4.7 5.9zm16.4-5.1c-.2 1.3-.4.5-.4-1.7-.1-2.2.1-3.2.4-2.3.2 1 .2 2.8 0 4zm127.3-4.9c0 .2-1.3 1.3-3 2.5-2.3 1.7-3 1.9-3 .8 0-1.1 1.9-2.3 5.8-3.5.1-.1.2 0 .2.2zm-25 3.8c0 1.1-2.7 1.2-3.4 0-.3-.4-.3-1.1 0-1.4.8-.8 3.4.3 3.4 1.4zm-259.7 3.7c1.9 4.4 2.2 6.6.6 5.7-1-.7-1.9-2.6-3.3-7.3-1.2-3.7.9-2.5 2.7 1.6zm180.6-2.6c0 .7-.4 2.2-.9 3.3-.7 1.7-.9 1.5-.9-1.3-.1-1.7.4-3.2.9-3.2.6 0 1 .6.9 1.2zm113.3.5c2.9 2.6 2.1 3.3-2 1.9-2.5-.9-4.4-1.1-5.5-.4-1.1.6-1.7.5-1.7-.2 0-1.1 3.4-2.8 5.9-2.9.8-.1 2.3.6 3.3 1.6zM160.4 340c.4 2.3 1.3 4.3 2.2 4.7 1.5.5 1.5.7 0 1.5-.9.5-2.2.6-2.8.2-.7-.4-2.6-.7-4.3-.6-3.9.2-6-1.1-5.1-3.3.4-1.1 1.2-1.5 2.4-1 3.2 1.2 3.7 1 4.6-2.3 1.3-4.3 2.2-4 3 .8zm110.5 1.6c-1.7 2.1-2.1 1.1-.8-2.2 1-2.3 1.3-2.5 1.6-1.1.3 1-.1 2.5-.8 3.3zm162.1.6c0 2.2-2.9.4-3.9-2.4l-1.1-3.2 2.5 2.4c1.4 1.3 2.5 2.7 2.5 3.2zm-182.6-2.6c.9.8 1.6 3 1.5 4.7v3.2l-1.6-2.3c-.8-1.2-2.1-2.2-2.8-2.2-2.1 0-3.6-2.5-2.3-3.8 1.6-1.6 3.4-1.5 5.2.4zm48.6-.6c0 .5-.2 1-.4 1-.3 0-.8-.5-1.1-1-.3-.6-.1-1 .4-1 .6 0 1.1.4 1.1 1zm4 .6c0 .8-.4 1.2-1 .9-.5-.3-1-1-1-1.6 0-.5.5-.9 1-.9.6 0 1 .7 1 1.6zm-99.2 5.6c.8.8 1.5.8 2.6-.1.9-.7 3.4-1.1 6.5-.8 9.7.8 7.7 3.5-2.2 3.1-5.9-.2-16.2.5-34.7 2.5-9.2 1-10.8.8-6.5-.9 9.3-3.5 32-6.1 34.3-3.8zm37.2-.3c0 .5-.7 1.1-1.5 1.5-1.5.5-2-.5-.8-1.7.9-1 2.3-.9 2.3.2zm196 .1c0 .5-.2 1-.4 1-.3 0-.8-.5-1.1-1-.3-.6-.1-1 .4-1 .6 0 1.1.4 1.1 1zm-36.5 1c-.3.5-1.1 1-1.6 1-.6 0-.7-.5-.4-1 .3-.6 1.1-1 1.6-1 .6 0 .7.4.4 1zM234 347c0 .5-.5 1-1.1 1-.5 0-.7-.5-.4-1 .3-.6.8-1 1.1-1 .2 0 .4.4.4 1zm27.4-.1c.3.4-.3 1.6-1.4 2.6-1.1 1-2 2.4-2 3.2 0 .7-.7 1.3-1.5 1.3-2 0-1.9-.6.5-3 1.1-1.1 2-2.7 2-3.5 0-1.6 1.6-2 2.4-.6zm11.6 3c0 .6-.4 1.3-1 1.6-.5.3-1-.1-1-.9 0-.9.5-1.6 1-1.6.6 0 1 .4 1 .9zm9.6 3.9c-1 1-2.9-1.5-2.1-2.8.6-.9 1-.8 1.7.4.6 1 .7 2 .4 2.4zM442 351c0 1.3-2 1.3-4 0-1.2-.8-.9-1 1.3-1 1.5 0 2.7.4 2.7 1zm-70.3 6.3c-3.1 5.2-5.7 7.7-5.7 5.5 0-.8.9-2.3 2-3.3s2-2.3 2-2.8c0-1.3 3.2-4.9 3.8-4.3.2.3-.7 2.5-2.1 4.9zm-190.2-.2c0 .7-.8 1.5-1.7 1.7-1.8.3-2.5-1.8-1.1-3.2 1-1 2.8-.1 2.8 1.5zm21.3-.2c.3.8-.1 1.2-.9.9-.7-.2-1.5-1-1.7-1.7-.3-.8.1-1.2.9-.9.7.2 1.5 1 1.7 1.7zm94-.7c-.3.7-1.1 1.3-1.8 1.3s-1.5-.6-1.7-1.3c-.3-.7.4-1.2 1.7-1.2 1.3 0 2 .5 1.8 1.2zm147.7-.2c1.8.8 1.7.9-.7.9-1.6.1-2.8-.4-2.8-.9 0-1.2.8-1.2 3.5 0zm-230.1 3.5c2.5 2 4.6 4.3 4.6 5.2 0 1.1-1.1.6-3.9-1.8-2.2-1.9-5-4.2-6.3-5.1-1.7-1.3-1.9-1.7-.7-1.8.9 0 3.7 1.6 6.3 3.5zm47.7 0c0 1.1-14 4.5-14.6 3.5-.9-1.5 2.5-3.2 7.7-4 6.1-.9 7-.8 6.9.5zm27.1 1.5c7.7 2 31.2 10.4 42.3 15.2 26.3 11.2 33.4 14.3 33.1 14.6-.5.4-30.8-10.6-38.1-13.9-6.2-2.7-22.5-8.9-27.5-10.4-7-2-13.4-5-15-7.1-1.4-1.7-1.4-1.8.2-.6 1 .8 3.2 1.8 5 2.2zm-20.1 2.3c-.8.8-1.1.7-1.1-.4 0-2 1.3-3.4 1.8-1.9.3.7-.1 1.7-.7 2.3zm125.9-1.9c0 .2-.8 1-1.7 1.7-1.6 1.3-1.7 1.2-.4-.4 1.3-1.6 2.1-2.1 2.1-1.3zM186 366c0 1.1-.4 2-1 2-.5 0-1-.9-1-2s.5-2 1-2c.6 0 1 .9 1 2zm100.4 4.2c.8 1.3.7 2.1-.1 2.9-.9.9-2.1.6-5.3-1.5-3.5-2.3-3.9-2.9-3-4.7 1.1-2 1.2-2 4.2-.2 1.7 1 3.6 2.6 4.2 3.5zm-61.9.6c-.3.3-1.1 0-1.8-.7-.9-1-.8-1.1.6-.5 1 .3 1.5.9 1.2 1.2zm34.9-1c.2.4-.4 1.3-1.5 2-1.5 1-1.9 1-1.9-.1 0-2.4 2.3-3.6 3.4-1.9zm-62.5 3.2c2.2 1.1 5.8 2.2 8 2.6 4.7.8 6 1.9 3.1 2.7-3.8 1-16-3.9-16-6.4 0-1.3.6-1.1 4.9 1.1zm45.5 1c.6.6.4 1.1-.5 1.5-1.6.6-11.2-2.8-10.4-3.7.8-.8 9.7 1 10.9 2.2zm55.6 2c0 .5-.4 1-1 1-.5 0-1-.5-1-1 0-.6.5-1 1-1 .6 0 1 .4 1 1zm-79.6 4c.7.7-.1 1-2.1 1-1.7 0-3.7-.8-4.4-1.7-1.3-1.5-1.1-1.6 2.1-.9 1.9.3 3.9 1.1 4.4 1.6zM41 382.4c0 1.8-1.7 2.9-3 2.1-.8-.5-.7-1.1.1-2.1 1.5-1.8 2.9-1.8 2.9 0zm155-1c0 .3-.4.8-1 1.1-.5.3-1 .1-1-.4 0-.6.5-1.1 1-1.1.6 0 1 .2 1 .4zm257.5 1.6c0 .8-1.3 1.7-3 2-1.6.4-4 1.2-5.3 1.9-3.3 1.8-12.3 4.3-12.9 3.7-1-1 1.6-3.3 5-4.6 1.8-.6 4.1-1.6 5.2-2.2 5.3-2.9 11-3.3 11-.8zm-406.5.2c0 .7 1.1 2.8 2.4 4.7 1.3 2 2.7 4.7 3 6.1.6 2.3.5 2.4-.6.5-.7-1-2.7-3.2-4.4-4.8-2.3-2.1-3-3.4-2.6-5.3.4-2.4 2.2-3.4 2.2-1.2zm217 4c0 1.7-2.9.7-4.4-1.4-2.4-3.5-1.9-4.1 1.4-1.6 1.7 1.2 3 2.5 3 3zm52.2-3.6c2 1 2.7 1.9 2 2.6-1.1 1.1-4.1-.1-6.2-2.6-1.7-2.1.1-2.1 4.2 0zM33 383.4c0 .9-3 1.4-3.5.6-.4-.6.3-1 1.4-1 1.2 0 2.1.2 2.1.4zm174.3 1.5c6.3 1.7 7.4 1.8 17 .3 16.2-2.4 21.2-2.1 27.7 1.3 4.7 2.6 5.7 3.6 7 7.5.8 2.5 2.3 5.7 3.3 7 .9 1.3 1.7 3.3 1.7 4.3s1.5 3.2 3.3 4.8c3.1 2.9 3.2 3 1.2 4.4-3.4 2.4-7.4 6.8-11.2 12.3-3.2 4.6-4.1 5.2-6.2 4.7-1.8-.5-3.2.1-5.7 2.6-5 4.9-4.1 1.6 1.1-4 2.5-2.6 4.5-5.1 4.5-5.5 0-1.9-3.5 0-7.9 4.3-2.8 2.7-5.1 4.5-5.1 4 0-1.3 4.9-8 7.3-10 1.2-1 1.7-2.1 1.2-2.9-.5-.8-2.2.3-5.6 3.6-5.3 5.2-6 4.5-2.9-2.5 2.2-4.7 2-6.2-.5-4.1-2.1 1.7-2.9.7-1.5-2 1.7-3.1.4-3.7-2.4-1.1-2.7 2.5-4.3 1.4-2.6-1.8 1.5-3-.5-3.5-3.1-.9l-2.1 2.3 1.1-2.3c1.5-2.8.5-4.8-1.6-3.1-.8.7-2.3 3-3.5 5.2-1.4 2.9-2.3 3.6-3.1 2.8-.8-.8-.6-2 .6-4.6 2.1-4.3 2.1-4.5.2-4.5-.8 0-2.4 1.5-3.5 3.2-2.3 3.8-2.7 2.1-.5-2.2 1.6-3.1.3-5.2-1.8-3.1-1.8 1.8-2.8 1.2-2.1-1.4.6-2.5-.8-3.5-2.1-1.5-.3.5-1.3 1-2 1-1.1 0-1.3-.8-.8-3 .6-3.2-1.2-4.1-3.5-1.8-1.9 1.9-2.7 0-.9-2 1-1 1.7-2.6 1.7-3.6 0-1.4-.4-1.5-2-.6-2.2 1.2-2.7.1-.9-1.7.7-.7.9-1.9.5-2.9-.6-1.5-1.1-1.3-4.3 1.7-3.1 2.9-3.4 3.1-2.3.9 2.1-3.9 4.2-7 4.9-7 .3 0 3.6.9 7.4 1.9zm-55.6 15.3c.4 5.4.3 7.8-.5 7.8-1.1 0-1.5-1.9-2.7-10.5-.2-2.2-.8-5.5-1.1-7.2-.3-1.8-.3-4.1.1-5 1.1-2.7 3.4 5.6 4.2 14.9zm224.5-13.7c1.6 1.4 3.5 2.5 4.3 2.5 1.5 0 3.7 2.5 2.9 3.3-.7.7-10.2-2.7-11.6-4.1-.8-.8-.1-4.2.9-4.2.3 0 1.8 1.1 3.5 2.5zm47.9 1.5c1.1.6 1.9 2.1 1.9 3.5 0 3.1-.7 3.1-4.4.1-4-3.3-2.1-6 2.5-3.6zm-151.2 6c.7 0 5.1 8.5 5.1 9.8-.1 1.2-4-3.9-4-5.2 0-.7-1.8-2.7-4-4.5-2.2-1.7-4-3.7-4-4.2 0-.6 1.4.1 3.1 1.5 1.7 1.4 3.4 2.6 3.8 2.6zm66-2.4c.2.2-1.2.4-3.2.4s-3.9-.5-4.2-1.1c-.5-.7.5-.8 3.2-.3 2.1.4 4 .8 4.2 1zm51.1 1.3c0 1.4-1.8 2.3-3 1.6-.6-.4-.8-1.1-.5-1.6.8-1.2 3.5-1.2 3.5 0zm-41.7 1.6c3.2 1.3 5.8 3.5 4.2 3.5-1 0-8.5-4-8.5-4.5 0-.7.4-.6 4.3 1zm35.4 2.7c2.9 1.1 5.5 2.4 5.9 2.9.9 1.6-4.6-.1-10.6-3.3-5.8-3-4.1-2.9 4.7.4zM77 396c1.3.8 1.3 1-.2 1-.9 0-2-.5-2.3-1-.8-1.3.5-1.3 2.5 0zm-22.3 3.7c.8 2.3 4.8 15.2 7 22.3 1.1 3.8 4.4 22.1 5 27.5 1 10.5-1.4 4.9-3.6-8.5-1.2-6.9-2.8-14.3-3.6-16.5-.8-2.2-1.4-5-1.5-6.1 0-1.2-1.1-4.1-2.4-6.5-1.7-3-2.2-4.8-1.6-5.9.6-1.2.4-2.4-.5-3.6-1.6-2.1-2-5.4-.6-5.4.5 0 1.3 1.2 1.8 2.7zm59.4-.6c2 2 2 2.3.5 3.1-2.1 1.2-3.3.4-3.8-2.7-.6-3.1.5-3.2 3.3-.4zm310.7.7c.2.7-.3 1.2-1.2 1.2-.9 0-1.6-.7-1.6-1.6 0-1.7 2.2-1.4 2.8.4zm-136.1 1.8c-.9.9-2.8-.6-2.1-1.8.4-.6 1-.6 1.7.1.6.6.8 1.3.4 1.7zM125.5 403c.6.4 2.8 1.1 5 1.5 4.7.8 7.5 2.2 7.5 3.6 0 1.3-5.2.5-11.6-1.6-2.3-.8-5.1-1.1-6.3-.8-1.6.4-2.1.1-2.1-1.5 0-1.7.6-2.1 3.3-2 1.7 0 3.7.4 4.2.8zm-24 1.8c2.8 1 4.9 2.2 4.8 2.7-.4 1.7-5.4 1.7-6.6.2-.7-.9-2.1-1.7-3.1-1.9-2.2-.3-3.4-2.8-1.4-2.8.7 0 3.6.8 6.3 1.8zm-37.7 3.9c.6 1.8.9 3.3.7 3.3-.7 0-3.5-5.8-3.5-7.2 0-1.9 1.6.3 2.8 3.9zm237.2 2.7c-.5.5-1.1.8-1.2.5-.2-.2-1.3-1.8-2.5-3.5-3-4.3-1.4-5.3 1.9-1.3 1.8 2.2 2.4 3.7 1.8 4.3zm91-5.4c10.8 2.7 21 6.4 21 7.7 0 1.9-4.4 2.6-8.2 1.4-3.9-1.3-22.2-11.5-19.3-10.7 1.1.3 4 1 6.5 1.6zm-192-.6c0 .3-.4.8-1 1.1-.5.3-1 .1-1-.4 0-.6.5-1.1 1-1.1.6 0 1 .2 1 .4zm-157 2.7c0 .6-.4.7-1 .4-.5-.3-1-1.1-1-1.6 0-.6.5-.7 1-.4.6.3 1 1.1 1 1.6zm337.8 1c7 3.5 8.1 5.5 2.5 4.6-2.4-.4-5-1.9-7.2-4.2-4.4-4.3-3.2-4.4 4.7-.4zm79.2-2.3c0 .5-.9 1.7-2 2.7-1.1 1-2.2 2.6-2.5 3.6-.4 1.1-1.1 1.9-1.6 1.9-.9 0 1.3-5.2 3.3-7.8 1.2-1.4 2.8-1.6 2.8-.4zm-302.1 10.3c1.6 4.6 1.4 5.5-.7 2.8-2.7-3.5-3.4-5.9-1.8-5.9.8 0 1.9 1.4 2.5 3.1zM291 417c0 1.4-1.4 1.2-2.8-.2-1.9-1.9-1.4-3 .8-1.8 1.1.6 2 1.5 2 2zm104.3-.4c6.4 3.2 6.5 3.3 4.8 4.4-1.5.9-10.1-2.3-11.3-4.3-2.2-3.5-.3-3.5 6.5-.1zM424 415c0 .5-1.4 2.5-3 4.4-2.2 2.4-3.6 3.3-5.1 2.9-1.4-.4-3 .5-5.4 3.2-3.6 3.8-4.9 3.9-5.8.5-.4-1.4 0-2.3 1.1-2.7 5.1-1.7 12.2-5.7 12.2-6.8 0-.7.6-1.6 1.3-1.8 2.1-.9 4.7-.7 4.7.3zm-145 1.7c.2.2.5 2.7.6 5.5.2 4.5.5 5.2 3.4 6.9 2.2 1.4 3 2.6 2.8 4.1-.3 2.4-2.8 3.7-2.8 1.5 0-1.2-1-1.4-4-1.1-2.3.2-5 .9-6.1 1.5-1.4.7-2.4.8-3.1.1-.7-.7.3-1.7 3-3.1 5.3-2.7 5.9-3.9 3.3-6.4-1.7-1.8-2.1-1.9-2.1-.5 0 .9-.7 1.9-1.6 2.2-2.3.9-2.4.8-2.4-1.2 0-1-.3-2.2-.7-2.6-.7-.7-8.3 6.3-8.3 7.7 0 3-12.2 13.8-13.8 12.2-.4-.3-.2-.9.4-1.3 4.8-3.2 10.8-9.2 13-13 1.5-2.6 4.5-6.8 6.7-9.5 3.8-4.4 4.3-4.7 7.6-4.1 2 .4 3.8.9 4.1 1.1zm156.8.8c1.4 3.1 1.5 4.5.4 4.5-.5 0-1.3-1.6-1.9-3.5-1.3-4-.2-4.7 1.5-1zm-229.8-.6c0 .6-.4 1.3-1 1.6-.5.3-1-.1-1-.9 0-.9.5-1.6 1-1.6.6 0 1 .4 1 .9zM33.9 432.4c.1 5.5-.8 4-2.5-4-1.7-8.6-1.7-8.9.6-3.9 1 2.2 1.9 5.8 1.9 7.9zm135.1-8.8c2.2 1.5 4 3 4 3.5s1.3 2.3 2.8 4.1c1.6 1.8 3.4 4.9 4.1 6.8 1 3 .9 3.6-.9 5.4l-2 2v-2.7c0-1.5-1.3-5.7-2.9-9.2-2.2-4.9-3.5-6.5-5-6.5-1.8 0-5.1-3.4-5.1-5.2 0-1.3.8-1 5 1.8zm160.8 1c-.4.3-1.2-.5-1.8-1.8-1.2-2.2-1.2-2.2.6-.6 1 1 1.5 2 1.2 2.4zM41 432.4c0 3.4-1.8.4-2.4-3.9l-.6-4 1.5 3c.8 1.6 1.4 3.9 1.5 4.9zm171.8-1.9c15.5 4.5 23.6 9.5 15.4 9.5-3 0-7.7 2.7-9.6 5.6-.7 1-1.8 3.7-2.5 6-1.2 3.7-1.1 4.6.9 9.2 3.5 8.2 8.6 11.9 15.6 11.3 1.4-.1 3.1 1.1 4.8 3.1 1.4 1.8 3.7 4.4 5 5.8 1.8 1.8 2.4 3.5 2.3 6.2-.1 3.5-1.7 5.6-1.7 2.3 0-1.7-1.6-2-2.5-.5-.8 1.3-2.5 1.3-2.5 0 0-.6 1-1.5 2.3-1.9 2-.8 2-1 .4-1.6-1-.4-1.6-1.4-1.3-2.1.5-1.4-3.1-4-4.2-3-.3.4-.1 2.1.6 3.9.6 1.7.9 5.8.7 8.9-.4 4.8-.2 5.8 1.1 5.8.9 0 1.4.6 1.1 1.2-.2.7-1.1 1.2-2.1 1-.9-.2-1.6.2-1.6.8 0 .5.7 1 1.6 1 .9 0 1.2.5.8 1.2-.4.6-.9 6.6-1 13.2-.2 13.5-.9 17.6-3 17.6-1.8 0-1.8 1.6 0 2.3 2.4.9-.6 8.3-3.2 7.9-3-.4-5.1 3.2-4.6 8.1.2 2.3.1 3.3-.2 2.2-.3-1.1-1-2.4-1.5-2.9-1.3-1.4-3.9 1.3-3.9 4.3 0 1.4-.5 3.3-1.1 4.1-.7 1.1-.9.3-.8-3 .1-2.5-.1-5.5-.5-6.8-.5-1.4-.3-2.9.4-3.7.9-1.1.9-2.3.1-4.6-.6-1.8-1.1-4.5-1.1-6.1 0-1.6-.4-3.8-1-4.8-.5-1-1.2-8.5-1.5-16.5-.3-9.8-1.3-18.1-2.7-24.9-3.6-16.2-3.1-35 1.3-52 1.2-4.5.2-6.3-2.8-4.8-2.4 1.3-4.1 7.9-4.9 19.7-.4 5.2-1.1 9.8-1.5 10.1-1.1.6-1 1.3-1.8-17.1-.5-13.6-.8-15-2.5-15.3-1-.2-2.2.2-2.7 1-.6.9-.9.2-.9-2.1v-3.4l4.3.7c2.3.4 7.9 1.8 12.5 3.1zm-140.8.1c0 .8-.4 1.2-1 .9-.5-.3-1-1.3-1-2.1s.5-1.2 1-.9c.6.3 1 1.3 1 2.1zm56 4.3c0 3.2-.6 2.4-1.4-1.9-.4-2.5-.3-3.1.4-2 .5.8 1 2.6 1 3.9zm227-2.1c0 1.5-.2 1.5-1 .2-1.3-2-1.3-3.3 0-2.5.6.3 1 1.4 1 2.3zm-305 2.7c0 .8-.2 1.5-.4 1.5s-.6-.7-1-1.5c-.3-.8-.1-1.5.4-1.5.6 0 1 .7 1 1.5zm272.8 3.8c1.6 7 1.5 7.7-.8 7.7s-2.4-.4-1-3c.7-1.3.6-2.1-.5-3-1.2-1-1.3-1.6-.3-2.8 1-1.2 1.1-1.6 0-1.9-.6-.3-1-.9-.6-1.4 1.1-1.9 2-.7 3.2 4.4zm-248.1.9c-.3.8-.6.5-.6-.6-.1-1.1.2-1.7.5-1.3.3.3.4 1.2.1 1.9zm213.3.9c1.6 2.8 4.9 15.7 5.1 19.9.3 4.3-1.7 8.4-3.7 7.6-.8-.3-1.7.1-2 .9-.9 2.3-7.1 3-9.3 1.1-1-.9-2.7-1.6-3.8-1.6-1.1 0-2.8-1.1-3.6-2.3-2.1-3.2-12.5-7.1-16.6-6.2-2.4.5-3.1.3-3.1-.9s1-1.6 3.8-1.6c2 0 4.5-.6 5.4-1.3.9-.8 3.2-1.1 5.3-.9 3.3.4 3.6.7 3 2.9-.5 2.1-.3 2.4 1.7 2.1 1.9-.2 2.4-1 2.6-4 .4-4.7-1.2-5.3-14-5-6.6.2-9.8-.1-9.8-.8 0-.7.8-.9 2.1-.5 3 1 6.9-.3 6.9-2.1 0-1.3-.7-1.5-3.2-1-1.9.4-2.8.3-2.3-.2 1.4-1.3 10.6-4.2 11.5-3.7.4.3 3.6-.6 7.1-2 8.2-3.1 15.4-3.3 16.9-.4zm-259.6 4.1c.3 1.6.2 2.8-.3 2.8-1 0-2.1-4.7-1.3-5.5.7-.7.8-.5 1.6 2.7zm141.1-1c1.4.6 2.4 1.6 2.2 2.2-.7 2-2.5 1.6-4.1-.9-1.9-2.8-1.7-3 1.9-1.3zm22.5 4.1c0 1.9-.4 2.7-1.2 2.5-1.5-.5-2.2-4.2-1.3-6.6.5-1.4.7-1.4 1.5-.2.6.8 1 2.8 1 4.3zm-151.3.9c-.3.7-.5.2-.5-1.2s.2-1.9.5-1.3c.2.7.2 1.9 0 2.5zm45 .5c-.3 1-.5.4-.5-1.2 0-1.7.2-2.4.5-1.8.2.7.2 2.1 0 3zm112.8 11c.3 5.3.1 8.4-.6 8.9-1.8 1-3-1.8-2.4-5.4.4-2.4.2-3.2-.8-3.2-.8 0-1.8-.7-2.1-1.6-.5-1.4-.4-1.5.9-.4 2.3 1.9 2.8.7 2.7-6.2-.1-5.4.1-5.9.9-3.3.5 1.6 1.1 6.7 1.4 11.2zM234 449c0 .5-.7 1-1.6 1-.8 0-1.2-.5-.9-1 .3-.6 1-1 1.6-1 .5 0 .9.4.9 1zm-10 1c0 .5-.4 1-1 1-.5 0-1-.5-1-1 0-.6.5-1 1-1 .6 0 1 .4 1 1zm19 1c0 2.1-1.5 2.7-2.5 1-.7-1.2.2-3 1.6-3 .5 0 .9.9.9 2zm74-.5c-1.3 1.6-4 2-4 .7 0-1.4 1.2-2.2 3.3-2.2 1.6 0 1.7.3.7 1.5zm-240 1.4c0 .6-.4 1.3-1 1.6-.5.3-1-.1-1-.9 0-.9.5-1.6 1-1.6.6 0 1 .4 1 .9zm-35.3 3.8c-.3 1-.5.4-.5-1.2 0-1.7.2-2.4.5-1.8.2.7.2 2.1 0 3zm133.3-1.9c0 1.3-1.2 2.2-2.2 1.6-1-.6-.1-2.4 1.3-2.4.5 0 .9.4.9.8zM52 458c0 1.1-.2 2-.4 2s-.6-.9-.9-2c-.3-1.1-.1-2 .4-2s.9.9.9 2zm64.9 2.8c0 1.5-.4 3.6-.9 4.7-.6 1.5-.9.6-.9-3.3-.1-3.3.3-5.1.9-4.7.6.3 1 1.8.9 3.3zm202.6-2.9c.3.6-.3 1.5-1.4 2.1-2.1 1.1-3.7-.2-2.6-2 .8-1.3 3.2-1.3 4-.1zm-73 1.1c.3.5-.1 1-.9 1s-2.4 1-3.6 2.2c-2.5 2.7-2.6 1.6-.2-1.7 1.8-2.6 3.7-3.2 4.7-1.5zm-74.7 4c.6 1.6.7 3 .3 3-.8 0-3.1-4.4-3.1-6.1 0-1.9 1.8.1 2.8 3.1zm6.6-.5c.3.8.1 1.5-.4 1.5-.6 0-1-.7-1-1.5s.2-1.5.4-1.5.6.7 1 1.5zm81.8 5.4c6.9 2 8.2 3.1 3.7 3.1-1.9 0-4.9-.9-6.7-2-1.8-1.1-4.1-2-5.1-2-2.8 0-5.2-1.1-4.6-2 .3-.5 2-.4 3.8.2 1.7.5 5.8 1.8 8.9 2.7zm-193.5.3c-.3.7-.5.2-.5-1.2s.2-1.9.5-1.3c.2.7.2 1.9 0 2.5zm122.8 5c.4 4 .7 10 .7 13.2-.1 3.3.5 7.1 1.4 8.7.7 1.5 1 3 .5 3.3-1.9 1.2-3.2-2.7-3.6-10.6-.2-4.6-.7-11.6-1.1-15.7-.4-5-.3-7.2.4-6.7.5.3 1.3 3.9 1.7 7.8zm62.9 1.9c2.4 3.5 2.5 3.9.7 2.9-1.1-.6-3.1-.8-4.5-.4-3 .7-3.9-.7-2.5-4 1.7-3.6 3.2-3.3 6.3 1.5zm40.6-2.6c1.6 2 1.7 8.2.1 9.8-1.1.9-1.4.9-1.8-.1-.7-1.7-2.7-1.5-4.6.6-1.4 1.5-1.5 2.4-.5 5.5 1 3.3.9 4-1 6-4.5 4.7-1.3 7.8 3.7 3.7 1.9-1.7 2.3-2.7 1.8-5.5-.3-1.9-.2-3.7.3-4 .9-.6 1.7 3.3 2.5 13.5.7 7.2 5.4 30.7 9.9 49.4l2.2 8.9-2.5 4.8c-2.2 4.2-2.4 5.1-1.3 6.9.7 1.2 1 2.5.6 3.1-1.1 1.9 2.7 4.9 6.3 4.9 2.6 0 3.3.4 3.3 1.9 0 2.1-3.9 3.6-5.4 2.1-3.3-3.3-4.8 2.4-2.6 9.9 1.2 4.3.7 4.9-2 2.3-1.6-1.5-2-2.9-1.8-6.2.2-2.4-.1-4.4-.7-4.6-1.4-.4-5.7 6.6-5.1 8.2.3.7.1 1.6-.4 1.9-.6.4-1.5-.6-2-2-.9-2.3-1.4-2.6-4.1-2-2.9.7-3 .5-2.7-2.1.2-2.3 1.4-3.4 6.3-5.9 6.7-3.6 7.9-6.1 2.8-5.9-3.4.2-4.4-1-1.8-2 .8-.3 1.5-1.3 1.5-2.2 0-1.3-.6-1.5-3-1.1-4 .9-3.8.1.5-1.7 5.2-2.2 4.5-4-1.2-3.2-2.7.4-5.6.9-6.5 1.2-3.2.9-1.9-1.6 1.7-3.3 4.4-2.1 4.5-4.1.3-4.5l-3.3-.4 2.8-1.2c3.8-1.6 2.9-3.8-1.4-3.5l-3.4.3 2.3-1.9c2.9-2.5 2.8-3.9-.5-4.3-3.2-.4-8.2-8-7.5-11.4.4-2.4-2.3-4-4.3-2.4-.8.7-1.5.3-2.4-1.6-1-2.3-.9-3 .9-4.9 2.5-2.7 2.5-3.5-.1-3.5-1.8 0-1.9-.3-.9-1.5 1.6-2 .2-3.8-2.6-3.2-2.9.5-3.1-.8-.4-2.3 3-1.6 2.5-4-.8-4-1.5 0-3.3.5-4 1.2-.9.9-1.2.9-1.2-.3 0-.8 1.5-1.9 3.2-2.4 4.3-1.3 5.1-4.5 1.1-4.6-2.8-.1-2.8-.1.5-1 2.8-.8 3.2-1.2 2.1-2.5-.8-1-2.1-1.3-4.1-.9-4.1 1-3.4-1 .9-2.3 2.9-.9 4-.9 5.3.2 1.6 1.4 10.9 4.6 13.4 4.6 1.8 0 4-3.6 3.1-5-.3-.6-1.7-1-3.1-1-3.2 0-8.5-2.3-10.3-4.4-1.2-1.4-1.1-1.9.4-3.6 1-1.1 1.5-2.8 1.2-3.9-.3-1.1 0-2.2.6-2.4.6-.2-2.2-2.1-6.3-4.3-8.4-4.5-10.3-6.9-4.6-5.9 2 .4 4.4.4 5.3-.1 3.1-1.3 7.6-1.2 9.9.2 2.6 1.8 6.8.5 10.2-3.2 2.6-2.8 3.5-2.9 5.2-.9zm-97.3 9.2c-.3 1-.5.4-.5-1.2 0-1.7.2-2.4.5-1.8.2.7.2 2.1 0 3zM71 483.1c0 1-.4 1.9-1 1.9-.5 0-1-1.2-1-2.6 0-1.4.4-2.3 1-1.9.6.3 1 1.5 1 2.6zm182.8 2.5c-.3 1.4-.5 1.2-1-.9-.3-1.9-.2-2.5.4-1.9.6.6.8 1.8.6 2.8zm-215.9-.9c0 .5-.4 1.7-.9 2.8-.8 1.8-.9 1.7-.9-.8-.1-1.5.4-2.7.9-2.7.6 0 1 .3.9.7zm224.3 4.8c.4 1.7.1 2.5-.9 2.5-1.7 0-2.7-2.5-1.9-4.6.8-2.1 2.2-1 2.8 2.1zm34.7 1.2c.5 2.1 2 8.3 3.1 13.8 2.3 10.2 9.3 40 11.1 46.8 1.1 4 .6 5.8-1 4.1-.5-.5-2.1-5.9-3.5-11.9-1.4-6.1-4.1-17-6.1-24.4-3-11.2-6.5-28.1-6.5-31.2 0-2.5 2-.4 2.9 2.8zm15.6-1.7c-2.7 1.2-4.3 1.2-2.5 0 .8-.5 2.2-.9 3-.9 1 0 .8.3-.5.9zm-116.8 3.2c-.3.8-.6.5-.6-.6-.1-1.1.2-1.7.5-1.3.3.3.4 1.2.1 1.9zM37 493.6c0 .8-.4 1.2-1 .9-.5-.3-1-1.3-1-2.1s.5-1.2 1-.9c.6.3 1 1.3 1 2.1zm45.7 1.3c2.2.6 6.3.9 8.9.6 5.6-.7 25.9 1.2 28.6 2.6 3.2 1.7 1 2.9-5.3 2.7-4.3-.1-6.3-.6-6.9-1.7-.7-1.3-1.2-1.4-2.9-.4-2.5 1.6-8.7 1.7-9.7.2-.4-.6-2-.8-3.8-.5-1.8.4-3.5.3-3.9 0-1-1-10.1-1.2-12-.2-1.3.7-2.3.3-3.7-1.4-2.7-3.2-2.5-4.1.9-3.3 1.8.4 3.2.2 3.6-.5.5-.8 1-.9 1.4-.2.3.5 2.5 1.5 4.8 2.1zm-74.1 6.9c-1.3 1.2-1.7-.8-1-4l.9-3.3.3 3.3c.2 1.9.1 3.6-.2 4zm50.2-5.6c-.3.7-2 1.6-3.9 1.9-1.9.4-5.1 1.4-7.1 2.3-2.1.9-5.2 1.6-7 1.6-2.2 0-4.1.9-5.7 2.6-1.8 1.9-3.1 2.4-4.9 1.9-1.5-.4-3.1 0-4.1.9-1.9 1.7-21.8 2.9-22.7 1.4-.4-.6.1-1.7.9-2.6 1.3-1.2 1.9-1.3 3.1-.3 2.6 2.2 17.6-.2 17.6-2.9 0-.5 1.1-1 2.4-1 1.7 0 2.7-.8 3.4-2.8.9-2.4 1.1-2.4 1.1-.5.1 3.3 1.4 3.5 7.8 1.4 3.2-1.1 7.7-2.3 10-2.6 2.4-.4 4.5-1.1 4.9-1.6.8-1.4 4.6-1.1 4.2.3zm112.5 5c.3 3.2.2 5.8-.2 5.8-1 0-2.1-8.8-1.4-10.7.8-2 1-1.4 1.6 4.9zm26.8 7.3c.4 4.9 1.1 10.2 1.5 11.7.8 3.4-1.2 3.8-2.5.5-1.2-2.9-2.8-20.5-2.2-23.6l.4-2.5 1 2.5c.5 1.3 1.3 6.4 1.8 11.4zm65.2-10.9c1.2 1.3-.3 2.1-2.8 1.7-1.3-.3-2.2-.9-1.9-1.4.6-1 3.8-1.2 4.7-.3zm-72.8 6.5c-.5 1.6-.3 2 1.2 1.7 1.2-.2 1.9.4 2.1 1.9.4 2.5-.7 3-2.7 1-1-1-1.2-.8-.9 1.1.1 1.2.8 2.2 1.3 2 1.1-.2 2.2 3.9 2.4 8.9.1 3-.2 3.3-2.8 3.3-1.8 0-3.1.6-3.6 1.7-.6 1.6-.8 1.5-1.7-.7-.5-1.3-.7-3.4-.4-4.6.4-1.3 0-2.7-.9-3.4-2.2-1.8-1.9-6.7.5-8.2 1.1-.7 2-1.6 2-2 0-.4.4-1.9 1-3.3 1.1-3 3.4-2.4 2.5.6zm119.5 1.4c-.6 1.5-1.3 2.5-1.7 2.1-.3-.3 0-1.7.7-3.1.7-1.4 1.5-2.3 1.7-2.1.2.2-.1 1.6-.7 3.1zm36.5-1.5c-.3.5-1.1 1-1.7 1-.6 0-2 .7-3 1.7-1 .9-2.1 1.3-2.4 1-.4-.3.9-1.5 2.7-2.6 3.7-2.3 5.4-2.7 4.4-1.1zm-170.8 2.2c-.3.8-.6.5-.6-.6-.1-1.1.2-1.7.5-1.3.3.3.4 1.2.1 1.9zm174.3 2.4c0 .5-12 8.4-12.8 8.4-.4 0 1.6-2.1 4.3-4.8 3-2.8 5.7-4.6 6.8-4.3.9.2 1.7.5 1.7.7zm-175.3 2.6c-.3.8-.6.5-.6-.6-.1-1.1.2-1.7.5-1.3.3.3.4 1.2.1 1.9zm6.1 22.8c.1 2.2 0 2.3-1.1.8-.8-1-1.1-3.2-.8-5.5l.5-3.8.7 3c.4 1.6.7 4.1.7 5.5zm19.2-7.6c0 .3-.4.8-1 1.1-.5.3-1 .1-1-.4 0-.6.5-1.1 1-1.1.6 0 1 .2 1 .4zm52.7 4.8c-.3.7-.5.2-.5-1.2s.2-1.9.5-1.3c.2.7.2 1.9 0 2.5zM58 532c0 .5-.5 1-1.1 1-.5 0-.7-.5-.4-1 .3-.6.8-1 1.1-1 .2 0 .4.4.4 1zm137.5 11.1c-1.9 2.1-3.5 4.3-3.5 4.7 0 2.4 5.8 4.5 6.1 2.2.1-.6.2-1.5.3-2 0-.6.6-.9 1.1-.8.6.2.9 1.2.7 2.3-.1 1.1-.4 2.9-.5 4-.1 1.1-.6 2.5-1 3.2-.4.6-.2 1.3.4 1.5.6.2 1.3 2.6 1.5 5.3l.3 5-1-4.8c-.7-2.8-1.7-4.7-2.5-4.7s-1.4-1-1.4-2.1c0-1.2-1.1-3.2-2.5-4.5-1.4-1.3-2.5-3.3-2.5-4.5 0-2.3 6-9.8 7.3-9.2.4.3-.8 2.2-2.8 4.4zm-11.3 0c-.4 1.3-1 9.6-1.2 14.9-.1 2.4-.2 2.4-1 .4-1.2-3.1 0-17.6 1.4-17.1.6.3.9 1.1.8 1.8zm72.9 11.6c-.9 1.5-1 1.2-1-1.7s.1-3.2 1-1.8c.7 1.2.7 2.4 0 3.5zm-84.1-1.9c0 1.3-1.2 2.2-2.2 1.6-1-.6-.1-2.4 1.3-2.4.5 0 .9.4.9.8zm85.3 26.4c-1.1 9.3-2.3 4.6-2.2-8.5l.2-13.2 1.3 8.5c.7 4.7 1 10.6.7 13.2zm-79.1-12.8c-.6 4.8-1.2 4.6-1.2-.5 0-2.2.4-3.8.8-3.5.4.3.6 2.1.4 4zm133.8-3.5c0 .6-.4 1.3-1 1.6-.5.3-1-.1-1-.9 0-.9.5-1.6 1-1.6.6 0 1 .4 1 .9zm-93 5.5c-.7.7-1-.1-.9-2.5 0-3.2.1-3.3 1-1 .6 1.6.6 2.8-.1 3.5zm-36.3 1.8c-.2 1.3-.4.3-.4-2.2s.2-3.5.4-2.3c.2 1.3.2 3.3 0 4.5zm17 5c-.2 1.3-.4.5-.4-1.7-.1-2.2.1-3.2.4-2.3.2 1 .2 2.8 0 4zm14.4-2.9c-1.3 1.3-2.6.3-1.6-1.2.3-.6 1.1-.8 1.7-.5.6.4.6 1-.1 1.7zm146-1.3c1 .6 1.9 1.4 1.9 1.8 0 .4-2.4 2-5.3 3.5-4.6 2.4-5.8 2.6-8.2 1.7-3.3-1.3-8.2-.4-10.7 1.7-1 .9-2.4 1.3-3.2 1-.8-.3-2.2 0-3.2.7-.9.7-2.5 1.1-3.4.9-.9-.3-2.4.3-3.3 1.1-1 1-1.8 1.2-2.2.6-1.2-2-3.6-.9-5 2.2l-1.4 3.3-.2-4c-.1-2.2-.2-4.9-.3-6-.1-2.5 2.7-3.9 12.9-6.1 15.3-3.3 28-4.2 31.6-2.4zm-138.6 9.9c.9 4.6 1.4 8.6 1.1 8.9-.6.6-1-.4-2.5-7-1.1-4.8-1.5-11.5-.6-10.6.3.2 1.2 4.2 2 8.7zM285 576c0 .5-.2 1-.4 1-.3 0-.8-.5-1.1-1-.3-.6-.1-1 .4-1 .6 0 1.1.4 1.1 1zm-56 1c0 .5-.2 1-.4 1-.3 0-.8-.5-1.1-1-.3-.6-.1-1 .4-1 .6 0 1.1.4 1.1 1zm7.6 12.1c-.6 5-.6 5.1 1.8 4.5l2.4-.6-2.5 7.3c-2.1 6.2-5.7 11.6-7 10.4-.9-.9 1-3.5 2.9-4 1.6-.4 1.9-1 1.3-2.4-.9-2-.8-18 .1-19.4 1.2-2 1.6-.6 1 4.2zm76.4.8c0 2.5-.3 2.8-2.5 2.3-2.9-.5-3.2-1.9-.7-3.8 2.6-2 3.2-1.7 3.2 1.5zm11.7-.7c-.3.8-.6.5-.6-.6-.1-1.1.2-1.7.5-1.3.3.3.4 1.2.1 1.9zM263 591c0 .5-.7 1-1.5 1s-1.5-.5-1.5-1c0-.6.7-1 1.5-1s1.5.4 1.5 1zm-59.9 9.5c.4.5 1 4.1 1.4 7.9.6 5 .5 6.7-.4 6.2-.6-.4-1.1-2-1.1-3.5s-.7-5-1.5-7.7-1.4-6.3-1.4-7.9l.1-3 1.2 3.5c.6 1.9 1.4 3.9 1.7 4.5zm110.9-2c0 3.2-.2 3.5-3 3.5-3.7 0-4.1-3-.7-5.3 3.2-2.3 3.7-2.1 3.7 1.8zm-51.7-1c.1.5-.7 1-1.8 1-1.5 0-1.9.6-1.8 2.2.2 1.7-.3 2.3-1.6 2.3-1 0-3.4.2-5.2.5-2.8.5-3 .4-1.4-.5 1.1-.5 3.1-2.3 4.5-4 2.4-2.9 6.8-3.8 7.3-1.5zm9.7 0c.7-.4 1.4.2 1.7 1.4.5 2.1.6 2.2 12.8 2.6 1.9.1 3 .6 3 1.5 0 1.1-1.5 1.4-6.5 1.3-6.1-.2-6.7 0-9.3 2.9-2.1 2.3-3.1 2.8-3.7 1.9-.4-.7-1.8-1.8-3.1-2.5-2-1-2.3-1.8-2.1-4.6.4-3.9 3-6.4 4.9-4.8.7.5 1.7.7 2.3.3zm-24.7 5.6c-.8.8-1.6.8-3 0-1.6-.9-1.4-1 1.2-1.1 2.1 0 2.6.3 1.8 1.1zm65.1 2c1-.9 1.6-.9 2.1-.1s1.1.8 2.1-.1c.8-.6 1.7-.9 2.1-.5 1.1 1.1-3 4.4-6.4 5.1-2.9.6-3.4.3-4.3-1.9-.8-2.3-1.2-2.4-3.9-1.5-1.7.6-3.6.9-4.3.6-1-.3-.9-.6.2-.9.8-.3 2.9-1 4.5-1.5 2.3-.7 3.4-.6 4.7.5 1.4 1.2 2.1 1.2 3.2.3zm-51.7 3.5c.5 1.4-9.6 2.5-11.7 1.3-1.2-.7-1-.8.7-.9 1.2 0 2.5-.5 2.8-1.1.9-1.3 7.7-.8 8.2.7zm-14.7.4c1.1.7.7 1-1.8 1-2 0-3.1-.4-2.7-1 .8-1.3 2.6-1.3 4.5 0zm14 7c0 2.3-.4 2.4-3.1.9-2.3-1.2-1.6-2.9 1.2-2.9 1.2 0 1.9.7 1.9 2zm-40 .5c0 .8-.7 1.5-1.5 1.5-1.6 0-2-1.2-.8-2.3 1.1-1.2 2.3-.8 2.3.8zm27.5-.5c.4.6-.7 1-2.7 1-2.5 0-2.9-.3-1.8-1 1.9-1.3 3.7-1.3 4.5 0zm-56.4 7.6c.6.7.4 1.6-.5 2.3-1.7 1.5-2.6-.5-2.5-5.7l.1-3.7 1 3c.6 1.6 1.5 3.5 1.9 4.1zm56.7-.4c-.4 1.1-6.8 1.8-6.8.7 0-1.2 1.5-1.9 4.3-1.9 1.7 0 2.7.5 2.5 1.2zm-27.4 5.6c-.4 2.1-1.6 3.6-3.5 4.6-1.8.9-2.9 1-2.9.4s-.6-.6-1.5.2c-1.8 1.5-1.8 1-.5-2.4.5-1.5 1.7-2.6 2.8-2.6 1.1 0 2.4-1.2 3.1-2.7 1.6-3.4 3.3-1.7 2.5 2.5zm12.6.1c0 1-5 2.5-5.7 1.7-.3-.2-.2-.9.2-1.5.8-1.3 5.5-1.5 5.5-.2zm7 0c0 1.8-1.7 2-3.6.6-1.8-1.4-1.8-1.4.9-1.5 1.5 0 2.7.4 2.7.9zm4.2 11.1c-.4 9.6-1.3 14.1-2.4 13.4-.6-.4-4.2-.6-7.9-.5-4.3.1-6.9-.2-6.9-.8 0-1 5.6-1.6 10.1-1.2 2.6.3 4.4-2.6 2.9-4.4-.7-.8-2-1.5-2.9-1.5-1.4-.1-1.4-.3.2-1.5 3.4-2.5 1.7-4.9-3.8-5.5-4.3-.5-4.6-.7-2.2-1.3 6-1.5 7.7-1.7 7.7-.7 0 .5.5 1 1 1 .6 0 1-.7 1-1.6 0-.9.7-1.4 1.8-1.2 1.4.3 1.7 1.3 1.4 5.8zm-26.6-1c1.5 0 2.4.6 2.4 1.5 0 .8-.7 1.5-1.5 1.5-.9 0-1.8.6-2.1 1.4-.5 1.2-1.1 1.3-3 .4-2.5-1.2-2.8-1.9-1.8-5.5.5-2 .8-2 2.1-.8.8.8 2.5 1.5 3.9 1.5zm42.1.7c-.3 1-.5.4-.5-1.2 0-1.7.2-2.4.5-1.8.2.7.2 2.1 0 3zm-58.2 3.3c-.3.5-1.2 1-2 1s-1.7-.5-2-1c-.4-.6.5-1 2-1s2.4.4 2 1zm31.8 1.7c-1.3.2-3.3.2-4.5 0-1.3-.2-.3-.4 2.2-.4s3.5.2 2.3.4zm-11.9 16.4c.5 9.7.3 15.1-.5 17.9-1.4 4.5-2.1 4.8-4.9 2-1.1-1.1-2.9-2-3.9-2-1.1 0-2.3-.5-2.6-1-.3-.6-2.7-1-5.1-1-7 0-5.2-2.5 1.8-2.6 7.4-.2 9-.9 8.6-3.6-.3-2.1-.9-2.3-8-2.6-9.9-.4-10.2-2.2-.4-2.2 8.5 0 11.2-1.6 8.2-4.8-2-2.3-2-2.9-.1-4.8 3.9-3.9.6-5.6-9.3-4.9-3.8.3-6.2.1-6.2-.5 0-1.1 4.8-1.5 11.7-1.2 3.3.2 4.3-.1 4.7-1.6.5-1.4 1.3-1.8 3-1.5 2.2.5 2.3.9 3 14.4zm-11.7-2.5c-1 1-9.7 1.2-9.7.3 0-.5 2.3-.9 5.2-.9 2.8 0 4.9.3 4.5.6zm23.3 1.6c0 1.3-4.3.6-4.7-.8-.2-.7.6-1 2.2-.7 1.4.3 2.5 1 2.5 1.5zm9-.7c0 .8-.4 1.5-1 1.5-.5 0-1-.7-1-1.5s.5-1.5 1-1.5c.6 0 1 .7 1 1.5zm-3.3.1c-.3.3-1.2.4-1.9.1-.8-.3-.5-.6.6-.6 1.1-.1 1.7.2 1.3.5zm48.5 7.6c-.7.7-1.2.8-1.2.2 0-1.4 1.2-2.6 1.9-1.9.2.3-.1 1.1-.7 1.7zm-47.2-.8c0 2.5-1.4 3.1-6.5 2.8-4.9-.4-6.4-1-5.1-2.3.6-.6 11.6-1.1 11.6-.5zm-2.5 8.6c.3.5.2 1.7-.3 2.6-.8 1.4-1 1.2-1.4-1-.5-2.6.5-3.5 1.7-1.6zm229.5 7.4c1.4.2 4.4.4 6.8.5 3 .1 4.2.5 4.2 1.6 0 1.3-1.8 1.4-11.7 1.1-6.5-.2-13.3-.4-15-.5-2.3-.1-3.3-.6-3.3-1.7 0-1.2.7-1.5 2.8-1.2 1.5.3 4.1.1 5.7-.3 1.7-.4 4.1-.5 5.5-.3 1.4.3 3.6.7 5 .8zm-181.5 6.3c.3 2.1.1 6.9-.5 10.8-.6 3.8-1.4 8.9-1.7 11.3-.3 2.3-1 4.5-1.4 4.8-.5.3-.9 1.6-.9 2.9 0 2.3-1.6 4.2-2.6 3.2-.3-.2.2-2.3 1-4.6s1.2-5.4 1-6.9c-.4-3.4 2.7-25.2 3.7-25.2.4 0 1 1.7 1.4 3.7zm195 2.9c3.3.8 6.5 2 7 2.6.7.7.2.9-1.5.4-16.3-4.1-39.4-3.5-67 1.8-10.7 2-21.5 4.4-24 5.2-4.1 1.3-33.7 8.4-35 8.4-2-.1 4.6-2.6 17-6.5 8-2.6 17.7-5.7 21.5-7 3.9-1.3 11.3-3.1 16.5-4 5.2-.9 11.3-2.1 13.5-2.6 6.6-1.4 45-.2 52 1.7zm-59.7 11.5c-.2.6-.8 1-1.3 1s-1.1-.4-1.3-1c-.2-.6.4-1.1 1.3-1.1s1.5.5 1.3 1.1zM357 711c-.8.5-1.9 1-2.5 1-.5 0-.3-.5.5-1s2-1 2.5-1c.6 0 .3.5-.5 1zm-5 2c-.8.5-1.9 1-2.5 1-.5 0-.3-.5.5-1s2-1 2.5-1c.6 0 .3.5-.5 1zm-5 1.5c0 .6-17.9 6.2-22.5 7l-4 .6 5-2.5c2.8-1.4 5.9-2.6 7-2.6 1.1 0 4.3-.7 7-1.4 5.4-1.5 7.5-1.9 7.5-1.1zm60 .9c0 1.6-2.4 3.8-3.3 3-.8-.9 1.1-4.4 2.3-4.4.6 0 1 .6 1 1.4zm4.4.1c-.4.8-1.1 1.5-1.6 1.5-.6 0-.5-.6.2-1.5.7-.8 1.4-1.5 1.6-1.5.2 0 .1.7-.2 1.5zm71.4.8c1.8-.7 15.1 1.7 15.8 2.8.6 1.1-7.6.6-9.4-.5-.6-.3-1.3-.2-1.7.4-.4.6-1 .8-1.5.5-1.3-.8-24.1-.9-27.9 0-2.1.4-3.1.4-2.7-.3.6-1 6.8-2 16.7-2.7 2.8-.2 5.4-.6 5.6-.9.3-.3 1.3-.2 2.2.3.9.5 2.2.6 2.9.4zm-118.1.3c-.3.3-1.2.4-1.9.1-.8-.3-.5-.6.6-.6 1.1-.1 1.7.2 1.3.5zm37.3.9c0 .7-.7 1.5-1.5 1.9-.8.3-1.5.1-1.5-.5 0-1.3-3.9-.2-6.3 1.9-.9.8-2 1.2-2.4.9-.3-.4-1.2-.2-1.9.4-.8.6-2.1.8-3 .5-.9-.4-2.3-.1-3 .5-1 .8-1.4.8-1.4.1 0-2.4 10.7-6.8 16.8-6.9 2.8-.1 4.2.3 4.2 1.2zm51.7 2c-.2.5-1.8 1-3.5 1.1-1.7 0-3.4.3-3.8.6-.3.4-1.7.2-3.1-.3-1.9-.7-3-.6-4.2.4-1.8 1.6-10.6 1.7-10.6.2 0-.6 2.9-1.5 6.5-2.1 8-1.4 19.2-1.4 18.7.1zm-135.6 2.6c.8.1.3.4-1.1.8-3.2 1-4 .5-4-2.1 0-2 .1-2 1.8-.5 1 1 2.5 1.7 3.3 1.8zm-62.7 1.9c-.5.4-1.8.4-2.9 0-1.9-.8-1.9-.9.3-.9 1.2-.1 2.2-.7 2.3-1.4 0-.9.2-.8.6.1.3.8.1 1.7-.3 2.2zm170.6-1.6c0 .8-.8 1.5-1.7 1.5-1 0-2.5.1-3.3.3-.8.2-1.6-.2-1.8-.7-.1-.6 1.2-1.3 3-1.6 1.8-.4 3.4-.7 3.6-.8.1 0 .2.5.2 1.3zm-47 1.1c-.7.8-1.6 1.5-2.1 1.5s-.9-.7-.9-1.5c0-.9.9-1.5 2.1-1.5 1.8 0 1.9.2.9 1.5zm-86.5 9.9c.2 4.7 0 8.8-.5 9.1-.5.3-.9-3.8-.9-9.1-.1-11.8.9-11.8 1.4 0zm48.1-7.8c-.3.9-.6 2-.6 2.5s-.7.9-1.6.9c-1.1 0-1.4-.5-1-1.6.3-.9.6-2 .6-2.5s.7-.9 1.6-.9c1.1 0 1.4.5 1 1.6zm32.5.7c-1.3 1.3-2.6.3-1.6-1.2.3-.6 1.1-.8 1.7-.5.6.4.6 1-.1 1.7zm42.9-.3c-.6 1.1-1.3 2-1.5 2-.3 0-.5-.9-.5-2s.7-2 1.5-2c1.3 0 1.4.4.5 2zm-46.8.5c0 .5-.5 1.1-1.1 1.3-.6.2-1.1-.4-1.1-1.3s.5-1.5 1.1-1.3c.6.2 1.1.8 1.1 1.3zm41.8-.5c0 .5-.5 1-1.1 1-.5 0-.7-.5-.4-1 .3-.6.8-1 1.1-1 .2 0 .4.4.4 1zm63.5.1c.9 1.3.7 1.5-2.7 2.3-2.4.5-2.8.3-2.8-1.4 0-1.5.7-2 2.4-2 1.4 0 2.8.5 3.1 1.1zM279 727.5c0 .8-.4 1.5-.9 1.5-1.3 0-2.2-1.6-1.4-2.4 1.1-1.1 2.3-.6 2.3.9zm129-1.1c0 .3-.4.8-1 1.1-.5.3-1 .1-1-.4 0-.6.5-1.1 1-1.1.6 0 1 .2 1 .4zm57.9 2.3c0 2.5-.1 2.6-.9.8-1.2-2.7-1.2-3.5 0-3.5.6 0 1 1.2.9 2.7zm-137.4-.7c-.3.5-1.1 1-1.6 1-.6 0-.7-.5-.4-1 .3-.6 1.1-1 1.6-1 .6 0 .7.4.4 1zm35.5 0c0 .5-.2 1-.4 1-.3 0-.8-.5-1.1-1-.3-.6-.1-1 .4-1 .6 0 1.1.4 1.1 1zm39-.2c0 1.2-2.8 4.8-3.3 4.2-.8-.8 1.1-5 2.3-5 .5 0 1 .4 1 .8zm59.3 1.3c-.7 2.5-2.3 3.5-2.3 1.5 0-2.4-1.7-1.9-2.5.6-.6 2-.8 2.1-1.2.5-.8-2.9.2-4.2 3.5-4.4 2.5-.2 2.9.1 2.5 1.8zm-446.3.4c4.2.4 8.3 1 9 1.6 2.2 1.3-12.5 1.1-17.1-.3-4.1-1.2-5.5-3.2-1.6-2.4 1.2.3 5.6.8 9.7 1.1zm32.7.5c1.4 0 4.9 1.1 7.7 2.3 4.5 2.1 6.8 2.4 18.9 2.5 8.6.1 16.1.8 19.7 1.7 5.9 1.5 18.2 1.6 55.5.1 10.2-.3 12.6-.2 9 .4-17 3.2-43 4.5-56.6 3-5.2-.6-15-1.6-21.9-2.1-22.8-1.7-40.6-3.7-50.5-5.8-3.6-.7-3.7-.8-1.5-1.4 7.4-1.6 12.8-2.2 14.8-1.5 1.3.4 3.5.8 4.9.8zm400.3-1.3c0 .5-.9 1.9-2 3.3l-2 2.5v-2.4c0-2.3-.1-2.4-2-.6-1.9 1.8-2 1.7-2-.3s.8-2.3 6.8-3.1c.6 0 1.2.2 1.2.6zm5-.3c0 1.6-2.1 5.6-3 5.6-1.1 0-1.4-4.3-.3-5.3.7-.8 3.3-1 3.3-.3zM320 731c0 1.1-.4 2-.9 2s-.7-.9-.4-2c.3-1.1.7-2 .9-2 .2 0 .4.9.4 2zm36.2-.5c0 .5-.5 1.1-1.1 1.3-.6.2-1.1-.4-1.1-1.3s.5-1.5 1.1-1.3c.6.2 1.1.8 1.1 1.3zm31.9 1.8c-.8.8-1.1.7-1.1-.4 0-2 1.3-3.4 1.8-1.9.3.7-.1 1.7-.7 2.3zM385 731c0 .5-.4 1-1 1-.5 0-1-.5-1-1 0-.6.5-1 1-1 .6 0 1 .4 1 1zm54 0c0 .6-1.2 1.5-2.7 2.1-1.4.5-3.2 1.7-3.9 2.7-1.2 1.6-1.3 1.5-1.4-.5 0-1.6-.5-2-2-1.6-3 .8-2.4-1.4.8-2.5 3.6-1.4 9.2-1.5 9.2-.2zm-198 .5c0 .9-4.4 2.3-5.4 1.7-.5-.3-.1-.9 1-1.3 2.3-.9 4.4-1.1 4.4-.4zm141 .9c0 .7-.6 2.1-1.4 3.1-1.3 1.8-1.4 1.8-3.1.2-1.3-1.4-2-1.5-3.1-.6-.7.6-1.8.8-2.4.4-.6-.4-1.8.1-2.6 1.1-1.2 1.5-1.7 1.6-2.1.6-.4-1-1.1-.8-2.8.8-1.6 1.5-2.5 1.8-3 1-.9-1.5 3.5-6.2 5.2-5.6.7.3 1.5.1 1.9-.5.3-.6 1.2-.8 2-.5.7.3 1.6.2 1.8-.3.9-1.3 9.6-1.1 9.6.3zM279.5 734c.3 1.1.4 2.9 0 4-.5 1.6-.9 1.8-2.6.7-2.2-1.3-2.5-3.7-.7-5.5 1.7-1.7 2.6-1.5 3.3.8zm68.5-1c0 .5-.4 1-1 1-.5 0-1-.5-1-1 0-.6.5-1 1-1 .6 0 1 .4 1 1zm77 1.6c0 .7-.4 1.6-1 1.9-.5.3-1 .1-1-.6s-.8-.5-2 .6c-1.1 1-2 2.4-2 3 0 .7-.7 1.9-1.7 2.6-1.5 1.3-1.6 1.1-1.1-1.4.3-1.5.1-2.7-.3-2.7-.5 0-1.5 1.2-2.3 2.7l-1.5 2.8.2-3c.1-1.9-.2-2.9-1-2.8-.7.2-1.3-.1-1.3-.7 0-1.2 8.3-3.7 12.2-3.7 1.6 0 2.8.6 2.8 1.3zm-86 .4c0 .5-.7 1-1.6 1-.8 0-1.2-.5-.9-1 .3-.6 1-1 1.6-1 .5 0 .9.4.9 1zm-121 1c0 .5-1 1-2.2.9-2.2 0-2.2-.1-.3-.9 1.1-.5 2.1-.9 2.3-.9.1-.1.2.3.2.9zm5.3-.3c-.7.2-1.9.2-2.5 0-.7-.3-.2-.5 1.2-.5s1.9.2 1.3.5zm213.7-.3c0 .3-.4.8-1 1.1-.5.3-1 .1-1-.4 0-.6.5-1.1 1-1.1.6 0 1 .2 1 .4zm-104 1c0 .3-.4.8-1 1.1-.5.3-1 .1-1-.4 0-.6.5-1.1 1-1.1.6 0 1 .2 1 .4zm20.7 3c-.4.9-1.1 1.6-1.7 1.6-1.1 0-1.4-3.3-.3-4.4 1.1-1 2.6 1.1 2 2.8zm5.3-2.5c0 2.1-1.3 4.1-2.6 4.1-1.7 0-1.7-.5-.4-3.1 1.1-2 3-2.6 3-1zm114 .1c0 1.8-4.4 9.4-4.8 8.2-.2-.6.1-2 .7-3.1s1.1-2.9 1.1-4c0-1.2.7-2.1 1.5-2.1s1.5.4 1.5 1zm7.5 0c.3.5.1 1-.4 1-.6 0-1.1-.5-1.1-1 0-.6.2-1 .4-1 .3 0 .8.4 1.1 1zm-73.7 1.7c-.9 1-1.9 2.8-2.2 4-.8 2.4-2.6 3.2-2.6 1.2 0-.6-.9-.1-2.1 1.2-1.9 2.2-2 2.2-1.6.4.3-1.1.6-2.5.8-3 .5-1.2-.3-1.5-3.1-1.5-1.2 0-2.4 1-3 2.4-1.3 3.5-3.2 4.4-2.4 1.2.9-3.6-.8-3.2-3.1.6-1.9 3.2-2 3.2-2.3 1-.3-2.2-.4-2.3-1.8-.5-1.3 1.7-1.4 1.6-1.2-1.2.3-3 .5-3 10.3-5.1 5.5-1.2 11.3-2.2 12.9-2.3 2.7-.1 2.8 0 1.4 1.6zm56.1.4c-1.6 1-2.3.4-1.4-1 .3-.6 1.1-.8 1.7-.5.6.4.5.9-.3 1.5zm5.1-.2c-1.5 2.9-3 3.5-3 1.3s.8-3.2 2.7-3.2c1 0 1.1.5.3 1.9zm16.9-1.2c0 .5-.4 1.7-.9 2.8-.8 1.7-.8 1.6-.7-.8.1-1.5.5-2.7.9-2.7s.8.3.7.7zm-240 2.9c-1.4 1.8-2.4 1.1-1.5-1.1.3-.9 1.1-1.3 1.6-1 .8.5.7 1.1-.1 2.1zm104 .6c-.6 1.1-1.4 1.6-1.8 1.1-.3-.6-1.3-1.2-2.1-1.5-1.1-.4-.8-.8 1-1.6 3.3-1.3 4.3-.6 2.9 2zm107.7 2.5c-1.4 2.6-2.5 4-2.6 3.1 0-3.2 3.6-9.6 4.8-8.3.2.1-.8 2.5-2.2 5.2zm-2.6-3.8c0 .6-.4 1.3-1 1.6-.5.3-1-.1-1-.9 0-.9.5-1.6 1-1.6.6 0 1 .4 1 .9zm-181 1.2c0 .7 1 .9 2.5.7 2-.4 2.3-.2 1.5 1.2-1.2 2.3-3.5 3.1-4.9 1.7-1.4-1.4-1.5-4.7-.1-4.7.6 0 1 .5 1 1.1zm69 .1c-.1 1.8-2.5 4.8-3.9 4.8-1.8 0-1.3-4.8.7-5.3 2.9-.8 3.2-.7 3.2.5zm108-.3c0 1.8-2.6 3.1-3.8 1.9-.8-.8-1.4-.4-2.3 1.6-1.1 2.3-1.4 2.5-2.2 1.1-.8-1.5-1-1.5-2.7 0-1.7 1.5-1.9 1.5-2.8-.1-1-1.7-1.2-1.7-3.1.6l-2 2.5-.1-2.3c0-1.2.6-2.4 1.3-2.6.6-.2 3.5-1 6.2-1.8 5.8-1.7 11.5-2.1 11.5-.9zm-118.4 2.2c.3.6-.1 1.8-1 2.7-1.5 1.5-1.6 1.4-1.6-1.1 0-2.7 1.3-3.6 2.6-1.6zm-4.2 2c-.3.5-1 .7-1.5.3-.5-.3-.7-1-.3-1.5.3-.5 1-.7 1.5-.3.5.3.7 1 .3 1.5zm52.4 1.1c-1.6 4.7-3.2 6.1-2.5 2 .6-3-.5-4.4-1.8-2.2-.9 1.5-2.5 1.2-2.5-.4 0-1.5 1.8-2.3 5.7-2.5 2-.1 2.1.1 1.1 3.1zm-88.7.1c-1.3 1.3-2.6.3-1.6-1.2.3-.6 1.1-.8 1.7-.5.6.4.6 1-.1 1.7zm32.7-.8c.9.9-.2 1.3-5 1.8-4.8.6-6.5-.3-5.2-2.4.6-1.1 9.1-.6 10.2.6zm105.2.6c-.8 1.4-1.5 1.7-2.4 1-.8-.7-1.6-.4-2.5 1.1-1.1 1.7-1.5 1.8-2.2.7-1.4-2.2-1.1-2.5 2.4-3.7 5.2-1.6 5.9-1.5 4.7.9zm-63.6 2c-.3.5-1 .7-1.5.3-.5-.3-.7-1-.3-1.5.3-.5 1-.7 1.5-.3.5.3.7 1 .3 1.5zM459 747c0 .5-.5 1-1.1 1-.5 0-.7-.5-.4-1 .3-.6.8-1 1.1-1 .2 0 .4.4.4 1zm-219.4 1.6c-.3.9-.6 2.2-.6 3 0 2.2-1.7 1.6-2.3-.8-.7-2.6-.1-3.8 2-3.8 1 0 1.3.6.9 1.6zm4.3 1.4c-.6 1.6-1.5 3-2 3-.9 0-.1-2.8 1.4-4.8 1.5-1.9 1.7-1.4.6 1.8zm34.1 0c-1.2 1.6-2.4 3-2.6 3-.7 0 .5-2 2.4-4.3 2.4-2.7 2.5-2 .2 1.3zm83.3 0c-.3 1.1-.7 2-.9 2-.2 0-.4-.9-.4-2s.4-2 .9-2 .7.9.4 2zm53.9.2c-.7.7-1.2.8-1.2.2 0-1.4 1.2-2.6 1.9-1.9.2.3-.1 1.1-.7 1.7zm-126.8 6.4c-1.1 2.9-2.1 4.1-2.7 3.5-.6-.6-.4-1.8.7-3.2.9-1.3 1.6-3.3 1.6-4.5 0-2.6 1.4-4.1 1.8-2 .2.9-.4 3.7-1.4 6.2zm64.6-4.5c-1.2 2.2-3 2.5-3 .6 0-1.7 2.1-3.8 3.2-3.1.4.3.3 1.4-.2 2.5zm58-1.6c-.7.9-1.5 1.3-1.7 1.1-.7-.7.7-2.6 1.9-2.6.6 0 .6.6-.2 1.5zm-63 2c0 .8-.4 1.5-1 1.5-.5 0-1-.7-1-1.5s.5-1.5 1-1.5c.6 0 1 .7 1 1.5zm124-1.1c0 .3-.4.8-1 1.1-.5.3-1 .1-1-.4 0-.6.5-1.1 1-1.1.6 0 1 .2 1 .4zM343 753c0 .5-.4 1-1 1-.5 0-1-.5-1-1 0-.6.5-1 1-1 .6 0 1 .4 1 1zm-5 1c0 .5-.4 1-1 1-.5 0-1-.5-1-1 0-.6.5-1 1-1 .6 0 1 .4 1 1zm-64.9 2.7c-.8 1.5-1 1.5-1.1.2 0-1.7 1-3.2 1.8-2.5.2.3-.1 1.3-.7 2.3zM323 755c2.3.7 2.4 1.1 0 1.4-.5 0-1.6 1-2.4 2.1-.9 1.1-1.6 1.4-1.6.7 0-.6-.7-1.2-1.5-1.2s-1.5-.6-1.5-1.3c0-2.8 2.1-3.3 7-1.7zm6-.6c0 .3-.4.8-1 1.1-.5.3-1 .1-1-.4 0-.6.5-1.1 1-1.1.6 0 1 .2 1 .4zm58 .7c0 1.3-3.9 7.9-4.6 7.9-.5 0 .6-7 1.3-8.3.7-1.1 3.3-.8 3.3.4zm5-.5c0 .3-1.2 2.2-2.6 4.2-1.5 2-2.4 2.9-2 1.9.3-1.1.9-3 1.2-4.3.5-2 3.4-3.6 3.4-1.8zm-10.4 1.5c.3.6.1 1.6-.5 2.2-.9.9-1.4.8-2.1-.3-.9-1.5-.4-3 1-3 .5 0 1.2.5 1.6 1.1zm96.9-.2c.9 1.6-1.1 2.1-6 1.4-3-.4-4.2-.9-3.3-1.4 1.8-1.2 8.5-1.1 9.3 0zM377 757.5c0 .8-.4 1.5-1 1.5-.5 0-1-.7-1-1.5s.5-1.5 1-1.5c.6 0 1 .7 1 1.5zm-129 .5c0 .5-.4 1-1 1-.5 0-1-.5-1-1 0-.6.5-1 1-1 .6 0 1 .4 1 1zm117 1c0 .5-.4 1-1 1-.5 0-1-.5-1-1 0-.6.5-1 1-1 .6 0 1 .4 1 1zm32 0c0 .5-.5 1-1.1 1-.5 0-.7-.5-.4-1 .3-.6.8-1 1.1-1 .2 0 .4.4.4 1zm-41.4 4.7c-.6 1.4-.8 1.4-2-.2-1.3-1.8-1.4-1.8-2 .3-1.1 3.2-2.5 2.7-2.4-.9.1-2.5.5-3 2-2.6 1 .3 2.1 0 2.4-.5 1-1.5 2.7 2 2 3.9zm-12-1.1c-.3.9-.6 2-.6 2.5s-.4.9-1 .9c-.5 0-1-.7-1-1.5 0-2-1.7-1.9-2.9.2-1.4 2.5-2.5.9-1.1-1.6 1.4-2.6 7.6-3.1 6.6-.5zm-9.3.9c-.3.9-.8 1.4-1 1.1-.3-.3-.2-.9.2-1.5.9-1.6 1.5-1.3.8.4zm-7.3-.1c0 .3-.4.8-1 1.1-.5.3-1 .1-1-.4 0-.6.5-1.1 1-1.1.6 0 1 .2 1 .4zm4 0c0 .2-.7.9-1.5 1.6-1.3 1.1-1.4 1-.9-.4.5-1.4 2.4-2.3 2.4-1.2zm-39.3 3.8c-.3.8-.6.5-.6-.6-.1-1.1.2-1.7.5-1.3.3.3.4 1.2.1 1.9zm171-.6c-.3.3-1.2.4-1.9.1-.8-.3-.5-.6.6-.6 1.1-.1 1.7.2 1.3.5zm12.3.4c0 .5-1.6 1-3.5 1s-3.5-.5-3.5-1c0-.6 1.6-1 3.5-1s3.5.4 3.5 1zm-329.6 2.5c2.3 1.5 7.6 1.5 25.1 0 10.7-1 15.1-1.1 18-.4 1.7.4 5.7 1.3 9 2 4.3 1 6.7 2.1 8.3 4 1.2 1.5 4.3 3.5 6.8 4.5 6 2.3 4.2 3.2-6.5 3.5-6.2.2-8.9.7-10.5 2-3.4 2.8-1 3.8 10.4 4.4 11.8.6 13.8.9 23 3.2 3.9 1 7.8 2.8 9.8 4.5 1.8 1.5 3.9 2.8 4.6 2.8.7 0 3.5 1.2 6.2 2.6 3.5 1.9 5.7 2.4 8.1 2 1.8-.3 4.9-.9 6.9-1.2 2-.4 6.1-.1 9.1.7 6.4 1.5 8.6.6 9.1-3.5.5-3.9 3.2-4.9 6.3-2.2 2.9 2.5 4.1 5.9 4.3 12.6l.1 4.5h-79c-43.4.1-89.5-.1-102.2-.3-22.4-.3-23.3-.4-23.3-2.3 0-3-11.9-8.2-18.8-8.2-4.3 0-5.2-.3-4.7-1.5.7-1.9-1.2-4.2-3.6-4.2-1.1 0-1.9-.5-1.9-1.1 0-.8 2.3-.9 8.3-.3 15.4 1.6 29 .8 31.3-1.7 2-2.2 4-2.5 4.6-.7.3.8 1.3.5 3.3-1 1.5-1.2 3.5-2.2 4.4-2.2.9 0 3.4-1.1 5.6-2.5 4.4-2.7 7.2-3.1 10.9-1.4 2 1 3.3.8 7-1 2.4-1.2 4.6-2.7 4.8-3.2.2-.5 2.6-1.6 5.3-2.3 3.2-.8 5.1-1.8 5.3-2.9.4-1.8-1.6-2.5-9-3.1-2.6-.1-5.3-.8-6-1.4-.7-.5-2.6-1.2-4.3-1.4-3.3-.5-2.9-.7 5-3.1 6.5-2 6.2-2 8.9-.2zm234.4 1.5c-1 3-2.8 5-2.8 3.1 0-2 2-6.1 2.9-6.1.6 0 .6 1.1-.1 3zm-24.8 2.9c0 .3-.5 1.3-1 2.1-.8 1.3-1.1 1.3-1.9.1-.7-1.1-1-.9-1.6.8-.3 1.1-1.1 2.1-1.6 2.1-1.7 0-.9-3.5 1.3-6.3 2.1-2.6 2.3-2.7 3.5-1.1.7 1 1.3 2 1.3 2.3zm17.6-2.6c.4.4 1.3.2 2-.4.9-.7 1.2-.6 1 .8-.2 1-1.3 1.9-2.4 2.1-1.2.2-2.2.8-2.2 1.3s-.7.9-1.5.9-1.5-.5-1.5-1.1c0-.7-.7-.8-1.7-.4s-2.6.7-3.5.7c-1 0-1.8.3-1.8.9 0 1.7-2 .9-2.1-.9-.1-1.6-.2-1.6-.6 0-.7 2.8-2.3 2.1-2.3-1 0-1.6.2-3.1.5-3.4.8-.8 15.3-.3 16.1.5zm-44.6 1.6c0 .3-1.8 1.4-4 2.3-3.8 1.6-4 1.6-4-.1 0-.9.5-2.2 1-2.7 1.1-1.1 7-.7 7 .5zm-88 .3c0 2.5-1.2 5.8-2.1 5.8-.5 0-.9-1.6-.9-3.5 0-2.4.5-3.5 1.5-3.5.8 0 1.5.6 1.5 1.2zm96 .2c0 .7-.7 1.9-1.5 2.6-1.3 1.1-1.5.8-1.5-1.4 0-1.6.5-2.6 1.5-2.6.8 0 1.5.6 1.5 1.4zm146.4 2.2c3.8 1.4 1 2.4-6.9 2.4-12.3 0-11-2.3 1.7-2.8 2-.1 4.3.1 5.2.4zM284 776.8c0 .4-1.7 3-3.7 5.8-2.1 2.7-4.6 6.1-5.6 7.4l-1.8 2.5.7-2.5c.7-2.4 3.5-6.6 7.8-11.7 2.1-2.5 2.6-2.8 2.6-1.5zm179 .2c0 .5-.9 1-1.9 1-1.1 0-2.3-.5-2.6-1-.4-.6.5-1 1.9-1s2.6.4 2.6 1zm-334 1c2 1.2 1.3 1.6-4.4 2.4l-4.8.6 2.3-2c2.6-2.1 4.6-2.4 6.9-1zm98 4c1.1.7.7 1-1.8 1-2 0-3.1-.4-2.7-1 .8-1.3 2.6-1.3 4.5 0zm-132 1c0 .6-1.3 1.9-3 2.8-1.6.9-3 2.2-3 2.8 0 2 2.8 3.6 5.2 3 1.3-.3.7.1-1.2 1-2.7 1.3-5.1 1.5-11 .9-16.1-1.4-19.7-2.1-21.4-3.8-1.2-1.1-3.5-1.7-6.9-1.8-2.9-.1-6.5-.5-8.2-.9-1.6-.4 6.9-.6 19-.6 21.2.1 22.2 0 25.5-2.1 3.9-2.5 5-2.8 5-1.3zm19 2.2c-1.8 1.5-14.1 5.8-16.4 5.8-1.4 0 3.7-6.2 5.8-7 1.1-.5 4.5-.8 7.4-.7 5.3.1 5.3.2 3.2 1.9zm-86 .3c-.8 1-.6 1.8 1 3.3 2.4 2.2 9 3.3 20.3 3.4 7 .1 7.9 1.4 1.7 2.7-2.2.4-3.7 1.7-5.3 4.4-2.2 3.8-2.2 3.9-.3 5.3 1.1.8 3.5 1.4 5.3 1.4 2.7 0 3.5.5 4.3 2.6.9 2.3 1.4 2.5 4.4 2 1.8-.4 4.4-.2 5.8.3 1.5.6 3.1.5 4.2-.1 1.2-.7 2.7-.6 4.8.3 2.8 1.2 2.9 1.3 1.2 2.6-1.3.9-5.9 1.3-16.8 1.3H43.7l-4.2-4.4c-3-3.1-4.4-5.5-4.9-8.4-.4-3.1-1.4-4.6-3.4-5.9-3.1-1.9-12.2-10.4-12.2-11.4 0-.4 2.3-.7 5-.7 4 0 4.8.3 4 1.3zm322-1.1c0 .3-.4.8-1 1.1-.5.3-1 .1-1-.4 0-.6.5-1.1 1-1.1.6 0 1 .2 1 .4zm12 .3c0 .5-.5 1.5-1 2.3-.8 1.2-1 1.1-1-.8 0-1.2.5-2.2 1-2.2.6 0 1 .3 1 .7zm-121.6 3.8c.3.9 0 1.5-.9 1.5-.8 0-1.5-.7-1.5-1.5s.4-1.5.9-1.5 1.1.7 1.5 1.5zm41.9 0c-.3.9-.8 1.4-1 1.1-.3-.3-.2-.9.2-1.5.9-1.6 1.5-1.3.8.4zm12.9 1.7c-.7.7-1.2.8-1.2.2 0-1.4 1.2-2.6 1.9-1.9.2.3-.1 1.1-.7 1.7zm-49.2.8c.8.5 1.2 1.2.9 1.5-.8.8-3.9-.5-3.9-1.6s1.1-1.1 3 .1zm34.1 2.3c-1 .9-1.1.8-.5-.6.3-1 .9-1.5 1.2-1.2.3.3 0 1.1-.7 1.8zm67.2-1.4c1.8.2-.4 1.9-3 2.4-2.5.5-6.3-1-6.3-2.5 0-.3 1.9-.5 4.3-.3 2.3.2 4.6.4 5 .4zm6.2 1.1c.8 1.3-1.5 1.3-3.5 0-1.2-.8-1.1-1 .7-1 1.2 0 2.5.4 2.8 1zm-16.9 5.7c.9 1.6 3.9 6.1 6.6 10.2 3.6 5.3 4.6 7.7 3.8 8.5-.8.8-1.2.4-1.7-1.3-.5-2.1-1-2.3-7.2-2.1-3.6.2-8.2.2-10.1.1l-3.5-.3 2.8-1c3.3-1.2 3.5-3.3.5-4.2-2.1-.5-1.9-.8 2-2.8 4.3-2.2 5-3.6 3.1-5.5-1.3-1.3-.5-4.3 1-4.3.6 0 1.8 1.2 2.7 2.7zm41.9 1.8c7.5 2.1 14.4 5.6 17 8.5 1.1 1.3 3.5 2.9 5.3 3.7 3.8 1.6 4.2 4 .8 5.3-2.1.7-29 .5-39.1-.4-1.6-.1-4.2-.3-5.7-.4-1.6-.1-2.8-.8-2.8-1.5s-2.2-4.5-5-8.4c-2.7-3.9-5-7.3-5-7.6 0-2 27.1-1.4 34.5.8zm-73 3.5c.4.6-.7 1-2.4 1s-3.1-.5-3.1-1c0-.6 1.1-1 2.4-1 1.4 0 2.8.4 3.1 1z"/><path d="M175.6 121.2c-2 2.8-2.1 4.8-.2 4.8 1.7 0 3.3-1.9 3.8-4.4.5-2.8-1.8-3.1-3.6-.4zM222 531c0 .5.4 1 .9 1 .6 0 1.3-.5 1.6-1 .3-.6-.1-1-.9-1-.9 0-1.6.4-1.6 1zM226 535.5c0 .8.2 1.5.4 1.5s.6-.7 1-1.5c.3-.8.1-1.5-.4-1.5-.6 0-1 .7-1 1.5zM189.6 518.9c-1.7 1.9-1.7 1.9.2 1.4 1.2-.3 2.3-1.1 2.6-1.9.8-2-.8-1.7-2.8.5zM266.4 603.1c-.3.6-.1 1.6.4 2.1 1.3 1.3 4.5-.8 3.6-2.3-.7-1.2-3.1-1.1-4 .2zM202 791.8c-3 1-4.1 2.4-2.9 3.8.8 1 2.7 1.2 6.6.9 7.2-.6 17.8 1.6 26.3 5.6 7 3.2 10.5 3.3 9.4.4-1.4-3.5-16-8.9-26.9-10-3.3-.3-7.1-.7-8.5-.9-1.4-.2-3.2-.1-4 .2z"/><path d="M218.3 801c-3.4 1.4-2.8 2.5 2.3 3.8 2.5.7 6.4 2.1 8.7 3.2 4.5 2.2 6.3 2.5 7.2 1.1 1.3-2.2-4.8-5.7-15-8.7-.5-.1-2 .1-3.2.6zM242.5 808c-1.3 2.1.8 3 7.1 3 4.8 0 6.4-.3 6.4-1.4 0-.8-.7-1.7-1.6-2-2.5-1-11.2-.7-11.9.4zM113.5 359c-.3.5-.1 1 .4 1 .6 0 1.1-.5 1.1-1 0-.6-.2-1-.4-1-.3 0-.8.4-1.1 1zM390.4 477.1c-.3.6-.2 1.5.4 2.1 1.3 1.3 3.2.2 3.2-1.8 0-1.6-2.6-1.9-3.6-.3zM472 790.5c-1 1.2-1 1.8 0 3 2 2.5 5.5 1.5 5.5-1.5s-3.5-4-5.5-1.5zM6 831.5c0 .8.9 1.5 1.9 1.5 2.7 0 3.1 1.8 3.1 15.3 0 9.6-.3 12.4-1.6 13.8-2.3 2.5-1.2 3.5 3.9 3.7 4.5.2 8-1.9 5.7-3.3-1.1-.7-1.4-12.3-.4-14.9 1-2.6 1.9-1.9 5.7 4.3 2 3.2 4.3 6.4 5.2 7.1.8.7 1.5 2.5 1.5 4.1 0 2.8.2 2.9 4.8 2.9 2.7 0 5.2-.3 5.5-.6.4-.4-1.4-2.8-3.9-5.4-4.9-5.1-11.4-15.1-11.4-17.6 0-2.4 5.2-6.3 8.5-6.4 3.9 0 5.9-1.4 5.2-3.4-.5-1.2-2-1.6-5.8-1.6-4.2 0-5.2.3-5.6 1.9-.5 2.1-8.7 8.4-9.7 7.4-1.6-1.6-.5-5.4 1.9-6.3 1.4-.5 2.5-1.4 2.5-1.9 0-1.5-2.8-2.1-10.1-2.1-5.5 0-6.9.3-6.9 1.5zM235.3 830.8c-4.6.1-8.3.6-8.3.9 0 .4.6 1.4 1.4 2.2 1.1 1.2 1.5 5 1.7 15.1.1 7.4 0 14.2-.2 15-.5 2 12 3.4 13.9 1.5 1.2-1 1-1.6-.6-3.1-1.4-1.3-2.2-3.8-2.6-7.9l-.7-6.1 4.8-1.2c6-1.6 9.3-4.6 9.3-8.4 0-3.1-3.9-7.8-6.4-7.8-.8 0-2-.1-2.8-.3-.7-.1-5-.1-9.5.1zm7.4 3.4c1.6 2 2.3 6.2 1.4 7.7-1.6 2.5-4.6.8-4.9-2.8-.5-5.4 1.2-7.8 3.5-4.9zM43.3 831.7c-2 .7-1.5 2 .8 2.6 2 .5 2 1.1 1.8 15.9l-.2 15.3h7.2c6.9 0 9.7-1.4 4.9-2.5-2.2-.6-2.3-1.1-2.3-8.7-.1-9.6.7-9.6 5.5 0 5.1 10.3 10.1 14.1 15.4 12.1 1.8-.7 2.2-4.9.6-5.9-.6-.4-1-5.7-1-12.5s.4-12.1 1-12.5c.6-.3 1-1.3 1-2.1 0-1-1.4-1.4-5.5-1.4-3 0-5.5.4-5.5 1 0 .5.7 1 1.5 1 1.2 0 1.5 1.8 1.5 10.7l-.1 10.8-2-2.5c-1.2-1.4-4.1-6.5-6.5-11.3-2.5-4.8-5-9-5.7-9.2-2.3-.7-11.2-1.3-12.4-.8zM83.7 831.7c-2.8.4-2.8.5-1 2.5 1.5 1.7 1.8 3.9 1.9 16.4.1 8 .3 14.6.5 14.8.2.2 1.6.6 3.1 1 4.4 1 5.5-1.1 5.2-9.8-.1-4.2.1-7.6.5-7.6s1.2 2 1.9 4.5 2.7 6.2 4.6 8.3l3.5 3.7 8.1-.2c4.4-.1 8.5-.5 9-.8.6-.3 1-3 1-5.9v-5.4l-4.5-.6c-2.4-.4-5.2-.3-6.1.2-1.6.9-1.5 1.1.4 2.1 2.5 1.3 3 4.1.7 4.1-.8 0-2.4-.9-3.6-2.1-1.6-1.6-2-2.9-1.5-5.1.3-1.7.6-4.8.6-6.9 0-4.6 2.7-7.9 6.5-7.9 2.1 0 2.5.5 2.5 3 0 3.4.6 3.6 3.8 1.4 1.8-1.2 2.2-2.4 2-5.2l-.3-3.7h-7c-10.7 0-16.9 3.7-19.9 12-1.5 4-1.5 4-1.6 1-.2-1.7-.1-3.5 0-4 .6-2.5.7-8.6.1-8.9-1.3-.7-7.7-1.3-10.4-.9zM144.6 831.7c-.4.4.2 1.4 1.2 2.3 1.6 1.2 1.8 2.3 1.3 6.5s-1 5-2.9 5.3c-3.9.6-5.5-1.6-5-7 .3-2.6 0-5.2-.6-5.8-1.4-1.4-10.3-1.3-11.2.1-.4.7.1 1.6 1 2.1 1.3.8 1.6 2.9 1.6 13.8 0 7.5-.4 13.1-1 13.5-2.5 1.6-.6 2.6 4.3 2.3l5.2-.3.5-7.5.5-7.5 3.8-.3 3.7-.3-.2 7.6c-.2 8.9.8 10.6 4.7 8.1 2.5-1.7 2.5-1.7 1.9-12.4-.3-5.9-.2-12.6.4-14.9.7-2.9.6-4.5-.1-5.2-1.2-1.2-8-1.5-9.1-.4zM165.3 832c-4 .3-7.6.9-7.9 1.3-.4.3-.1 2 .6 3.7 1.5 3.6 4 3.7 5.5.2 2.2-5 3-2 2.9 11.2 0 11.2-.3 13.6-1.7 15.1-2.6 2.6-1.2 3.4 5.3 3 7.1-.4 9-1.3 6.7-2.9-1.7-1.3-2.3-7.6-1.9-21.4.2-8 .3-8.2 2.7-8.2 1.8 0 2.5.5 2.5 1.9 0 2.6 1 3.1 3.8 2 2.4-.9 2.9-3.8 1-5.7-1.3-1.3-7.5-1.4-19.5-.2zM257.2 831.6c-1 .5-1.1 3.7-.6 15 .6 13.1.5 14.6-1.1 16.4-1.8 2-1.7 2 9.1 2 6 0 11.4-.4 12.1-.8.6-.4 1.7-2 2.3-3.6.9-2.4.8-3.2-.4-4.4-2.1-2.1-4.4-.8-6.2 3.3-1.5 3.6-2.1 4-4.2 2.7-1.7-1.1-2.9-11.2-1.3-11.2.6 0 1.1.4 1.1 1 0 1.7 3.7 1.1 4.4-.6.4-.9.4-3.2 0-5-.4-2.5-1.2-3.4-2.5-3.4-1.1 0-2.2.7-2.5 1.5-1.3 3.4-2.5 1.1-2.2-4.3.3-5.3.5-5.7 2.9-6 2-.2 2.8.2 3.2 1.8.7 2.5 3.4 2.4 5.1-.2.8-1.3.7-2.1-.1-2.9-1.2-1.2-16.9-2.3-19.1-1.3z"/><path d="M301.8 831.7c-3.3.5-3.4 1-1.1 3.5 1.2 1.3 1.8 4 2 8.6l.3 6.7-2-4.4c-1.1-2.4-3.5-6.6-5.2-9.2l-3.1-4.9h-5.9c-5.9 0-6.6.6-4.9 3.8.4.9 1.1 7 1.5 13.4.6 11.2.5 11.8-1.6 13.7-2.7 2.6-2.1 3.2 3.5 3.4 5.3.2 6.6-.7 4.9-3.3-1.3-2.2-1.7-16-.4-16 .8 0 2.8 4.1 5.2 10.4 2.3 6.1 4.7 8.3 9 8.3 2.9 0 4.4-.5 5-1.8.6-1 1-7.3 1-14.1 0-9.8.3-12.8 1.6-14.7 1.4-1.9 1.4-2.5.3-3.2-1.4-.9-5.1-.9-10.1-.2zM316.6 832.9c-1.1 1.2-1.6 3.1-1.4 5.2.4 4.6 3.2 5 5.3 1 .8-1.7 2.3-3.1 3.2-3.1 1.3 0 1.5.9 1 5.7-.3 3.2-.3 10 0 15.1l.6 9.2h3.4c4.6 0 5.3-2.4 4.6-15.4-.4-7.8-.3-10.9.7-12.1 1.9-2.2 3.9-1.8 5 1 .6 1.6 1.7 2.5 3 2.5 1.9 0 2.1-.5 1.8-4.7-.3-4.7-.4-4.8-4.3-5.5-2.2-.4-7.9-.7-12.6-.7-7.2-.1-8.9.2-10.3 1.8z"/><path d="M347.5 831.9c-.4.7.1 2.1 1 3.1 1.7 1.9 1.5 2.5-3.4 13.7-2.9 6.5-6.1 12.5-7.2 13.5-3.2 2.7-2.3 3.8 3.6 4 3 .1 6.3.2 7.2.2.9.1 1.8-.5 2.1-1.2.2-.7-.6-1.2-2.2-1.2-3.8 0-4.2-2.3-1.5-7.7 2.6-5.1 4.1-5.9 9.6-4.8 2.9.5 3.7 1.3 5.4 5.1 1 2.5 1.9 5.6 1.9 6.9 0 2.6 1.4 3.3 7.2 3.7 4.6.3 5.8-.8 3.2-2.7-1.3-.8-2.5-3.6-3.3-7.2-.8-3.2-2.6-9.2-4.1-13.5-2-5.5-2.5-7.9-1.7-8.7 2-2-.9-3.3-9-3.8-5.7-.4-8.2-.2-8.8.6zm9.9 9.8c.4 1.6.9 3.6 1.2 4.5.4 1.5-.1 1.8-2.9 1.8-1.8 0-3.6-.3-4-.6-.8-.8 3-8.4 4.2-8.4.5 0 1.2 1.2 1.5 2.7zM407.7 833.1c-1.7 1-1.7 1.2-.2 2.9 1.5 1.6 1.7 4.1 1.6 17l-.2 15.1 10.3-.4c10.1-.3 10.3-.4 11.6-3.1 1.7-3.3.9-5.6-1.8-5.6-1.3 0-2.4 1-3 2.6-.8 2.1-1.5 2.5-4.2 2.2l-3.3-.3.1-13.5c.1-7.4.3-14.4.5-15.5.4-1.8-.2-2-4.6-2.2-2.7-.2-5.8.2-6.8.8zM465.3 833.5c-1.1.8-3 3.3-4.2 5.5-1.9 3.7-2 4.3-.7 6.9 1.9 3.5 8.5 6.6 12.5 5.8 3.2-.7 6.1 1.2 6.1 3.8 0 6.8-5.7 8.7-10.7 3.5-1.5-1.6-3.4-3-4.1-3-2.1 0-3.4 4.3-2.5 8.1l.9 3.4 8.8.3c12.6.4 16.4-2.7 14.9-12-.9-6.1-4.6-9.5-11.8-11.1-5.4-1.1-6-1.5-6-3.7s.5-2.5 4.3-2.8c3.1-.2 4.4.1 4.8 1.2 1.1 2.9 4.2 1.8 5.4-2 .7-1.9.9-3.8.6-4.2-.4-.3-4.1-.7-8.4-.9-5.6-.2-8.4.1-9.9 1.2z"/><path d="M435.6 833.9c-4.6.7-5.6 2.4-2.7 4.3 1.9 1.2 2.1 2.2 2.1 13.5 0 10.6-.2 12.3-1.7 13.2-2.9 1.6-.9 2.3 7.9 2.5 11.9.3 14.1-.3 14.9-4.2 1-4.7-1.3-6.2-4.4-2.8-2.3 2.5-7 3.5-8 1.9-.3-.5-.7-2.6-.8-4.8-.4-3.6-.2-4 2.1-4 2.1 0 2.5-.5 2.5-3 0-2.3-.7-3.3-2.7-4.3-2.2-1-2.8-2-2.8-4.6 0-5.9 5.5-7.4 6.2-1.8.2 1.9.9 2.7 2.3 2.7 1.6 0 2.1-.8 2.3-3.8.2-2.4-.1-3.9-1-4.1-2.7-.9-12.4-1.3-16.2-.7zM385.5 834.7c-4.5 1.1-10.5 9.5-10.5 14.8 0 3.8 2.7 9.6 6.2 13.2 2.4 2.5 4.1 3.3 8.7 3.8 5.8.7 11.1-.6 11.1-2.5 0-.7-.8-.9-2-.5-3.7 1.2-9.9-1.3-11.6-4.7-2.4-4.7-2.2-15.2.3-18.6 3-4 5.6-3.9 8.8.2 2.3 3 3 3.4 4.6 2.5 2.2-1.1 2.6-5.8.7-7.7-1.2-1.2-12.1-1.5-16.3-.5zM203.5 842c-2.1 2.3-1.7 3.5 4 11.4 4.2 5.8 4.8 12.1 1.5 15.1-2.3 2.1-1.1 3.6 2.1 2.8 3.1-.8 4.9-4.4 4.9-9.5 0-4.7.1-4.8 3-4.8 3.6 0 4-2.5 1-6.1l-2-2.4-2.1 2.5-2.1 2.4-2.9-3.4c-3.7-4.6-3.9-7.5-.4-6.6 3.3.9 5-.1 3.4-2-1.8-2.1-8.3-1.8-10.4.6z"/><path d="M189 853c-2.7 2.7-2.5 6.1.5 9.4 2.9 3.2 6.5 3.4 11 .6 3.9-2.4 4.9-4.4 3.5-7-2.7-5.1-11.2-6.8-15-3zm9.5 5c0 1.8-.6 2.6-2.3 2.8-2.4.4-3.8-1.8-2.8-4.4.3-.9 1.5-1.4 2.8-1.2 1.7.2 2.3 1 2.3 2.8zM491 863.5c-.9 1-1 1.9-.3 2.6 1.4 1.4 4.5 0 4.1-1.9-.4-2.2-2.3-2.5-3.8-.7z"/></svg>