<svg version="1" xmlns="http://www.w3.org/2000/svg" width="666.667" height="1170.667" viewBox="0 0 500 878"><path d="M207.5 86.7c-7.5.8-15 2.6-17 3.9-1.8 1.1-2.8 1.2-5.1.3-3.9-1.5-9.4-.4-16.4 3.1-3.3 1.7-7.2 3-8.7 3-1.6 0-4.6.9-6.7 2.1-2.9 1.6-5.4 2-10.9 1.8-13.2-.4-17.9 2.2-22.8 12.4-3.6 7.4-3.4 9 1.2 11.4 1.3.7 2.2 1.9 2.1 2.5-2.8 9.9-1.7 22.1 2.3 27.4 3.6 4.8 5.9 5.7 13.7 5.5 6.6-.1 6.8-.1 6.8 2.3 0 1.4-.7 3.1-1.5 4-.9.8-2.2 3.1-3 4.9-1.8 4.3-.6 5.7 5 5.7 5.1 0 7.5-2.3 7.5-7.2 0-1.9.3-3.8.6-4.1.4-.4 3.3 1.8 6.5 4.7 4.8 4.5 6.8 5.7 11.5 6.6 4.1.9 5.9.9 6.7.1 2-2 2.7-1.1 2.5 3.1-.3 3.9-.1 4.3 2 4.1 1.6-.2 2.2.2 2.2 1.7 0 2.2 3.4 2.8 4.5.9.5-.7 1.4-.4 2.6.7 2.5 2.3 2.4 3.3-.6 4.4-1.4.5-3.1 2.1-3.7 3.6-1 2.2-.9 3.1.5 5.6 3.1 5.5 1.2 6.6-3.5 2.1-2.6-2.5-3.6-2.7-10.6-2.8-7.1 0-8.4.4-15.7 4.2-14.2 7.2-16.1 10.3-20.3 33.3-1.6 8.4-1.8 11.6-1 16 .5 3 .9 6.4.9 7.5-.4 6.4 0 73.3.5 74.7.3 1 1.7 2.1 3.1 2.4 2.6.7 2.6.3.6 10.4-.3 1.9.4 3.3 2.8 5.8 2.9 3 3.1 3.5 2 5.9-1.1 2.4-.9 2.9 1.4 5.1 2.1 1.9 2.6 3.2 2.4 7 0 2.6.7 6.9 1.6 9.7.9 2.7 1.9 5.6 2.1 6.2.2.8 2.2 1.3 5.4 1.3 4.1 0 5-.3 5.1-1.8 0-.9.4-4.1.8-6.9.4-2.9.4-5.8-.1-6.5-.5-.8 0-1.9 1.4-2.9 2.1-1.6 2.1-1.7.9-22.5-.7-11.5-1.5-22.4-1.8-24.2-.4-2.4-.2-3.2 1-3.2.9 0 2.4 2.7 4.1 7.3 2.8 7.6 7.1 14.8 13.9 23 3.4 4.2 4.2 5.9 5.2 12.5 1.4 8.9 1.1 10.6-2.2 12.7-1.3.9-3.3 3.6-4.3 5.9-1 2.4-3.4 6.5-5.3 9.2-8.7 12.1-16.8 28.2-23.7 46.9-2.7 7.3-5.8 15.2-6.9 17.6-1.1 2.4-3.4 8-5.1 12.4-1.8 4.4-5 11.5-7.1 15.8-2.1 4.3-3.9 8.4-3.9 9.1 0 2.1 4 6.6 5.9 6.6 1 0 3.2 1.4 4.9 3 4.6 4.4 6.9 3.9 3.7-.7-2-2.9-.9-7.8 5-21.7 2.5-5.9 6.5-16.7 8.7-23.9 2.3-7.3 5.6-15.9 7.4-19.2 1.8-3.4 5.1-10.8 7.3-16.4 4.3-10.7 12.9-30 14.2-31.4 1.2-1.5 4.9.3 4.9 2.4 0 1.1-1.3 3.9-2.9 6.2-1.5 2.3-4 6.9-5.5 10.2-2.6 5.7-4.2 9.2-8 17.5-1.8 4.1-8.9 21.2-11.7 28.5-6.1 15.9-12.5 36.2-17.5 56-.8 3.3-1.7 6.8-2 7.7-.7 2.4 3 5.8 6.4 5.8l2.7-.1-2.6-2.3c-2.5-2.2-2.6-2.6-1.8-7.1.5-2.6 2.7-10.4 4.9-17.2 2.2-6.9 4-13.1 4-13.9 0-5.3 26.8-70 35.3-85.1 3.4-6.1 5.1-7.3 6.1-4.8.4 1.1-1.3 4.7-4.7 9.8-5.3 8-8.4 15.6-21.2 51.2-5.2 14.5-6.3 17.8-13.4 41.8-7.5 25-7.6 32-.6 34 1.7.5 5.1 2 7.7 3.3 2.6 1.4 6 2.4 7.5 2.2 2.4-.3 2.8 0 2.6 2.2-.1 1.4-.2 14-.4 28-.2 29.4-.6 31.2-8.5 43-6.4 9.4-8.8 14.1-10.9 21.3-.9 3.2-2.4 6.1-3.5 6.7-2.9 1.6-7.3 13.7-6.6 18.5.9 5.9-.8 13.6-3.5 15.8-2 1.6-3.4 1.8-10.4 1.2-9.3-.8-11.4-2.1-9.9-6.2.6-1.9 1.9-2.9 4.4-3.6 1.9-.5 4.5-1.8 5.8-3 2.2-2 2.3-2.7 1.8-11.2-.2-4.9-.8-10.9-1.1-13.2-.4-2.5-.2-5.6.4-7.5 1.1-3.1 1-3.5-2-6-2.6-2.2-3.1-3.2-2.6-5.5.7-3.9-2.4-7.8-7.7-9.6-4.5-1.6-7.3-1.3-14.5 1.3-3.3 1.3-3.5 1.2-7.2-2.9-4.2-4.6-7.7-5.3-12.9-2.6-2.7 1.4-3.2 1.4-6.2-.5-1.8-1.1-4.1-2-5-2-.9 0-3.1-1.7-5-3.8-1.8-2.1-4-4.1-4.9-4.4-2.6-1-11.2 1.2-14.6 3.8-2.8 2.1-4.3 2.4-16.2 2.8-13.9.4-18.1 1.7-18.1 5.5 0 1-.9 3-2 4.4-1.1 1.4-2 3.7-2 5.1 0 4.2-3.6 10.1-8.5 14.1-5.3 4.4-6.1 6.8-4.5 13.3 1.4 5.6 6.9 11.8 11.4 12.7 4.7 1 11.5 3.9 12 5.1.2.6.2 3-.1 5.2-.6 4.4-3.1 6.2-8.3 6-2.3-.1-7 .5-15.7 1.8l-3.3.5v17.8l8.3-.5c4.5-.3 11.2-1.4 14.9-2.5 3.6-1 7.5-1.9 8.5-1.9 1.1 0 3.2-1.3 4.7-2.8 2.4-2.6 2.5-3 1.1-4.2-1.3-1.1-2.6-1.1-6.7-.1-5.3 1.2-6.5 1-5.3-.8.3-.6 2.3-1.1 4.5-1.1 2.5 0 4-.5 4.4-1.6.5-1.4.8-1.4 2.3.1.9 1 2.6 1.5 4 1.2 1.9-.3 2.7.1 3.3 1.9 1.1 2.8 2.2 3 5.6.7 2.1-1.4 3.1-1.4 5.8-.5 1.8.7 5.4 1.2 8 1.2 4.7 0 12.8 2.3 20.8 5.9 2.4 1.1 7 2.8 10.2 3.8 3.3 1 6.2 2.4 6.4 3.2.4 1.1-.1 1.2-1.9.7-1.3-.3-5.5-.9-9.4-1.2-3.8-.3-9.1-1.3-11.6-2.1-7.7-2.6-10.9.6-4.6 4.6 2.7 1.8 2.9 2.1 1.1 2.1-1.2 0-3.2.8-4.4 1.8l-2.2 1.8 2.6 1.7c1.5 1 3.2 1.4 3.9 1 .7-.4 3.2-.8 5.7-.8 4.1 0 4.5-.2 4.8-2.5.5-4.2 3.5-5.4 9.5-3.8 2.9.7 6.3 1.8 7.6 2.4 1.3.7 3 1 3.7.7 2-.7 2.7-3.9 1.4-6.3-1.7-3.2-.9-3.3 4.6-.4 3.4 1.8 7.6 2.8 13.4 3.5 11.5 1.2 18 2.1 18 2.3 0 .2-2.3 4.9-5.1 10.5-5.1 10.1-6.5 16-4.2 16.8 2 .7 18.3-35.1 18.3-40.5 0-3.4 1.5-4.4 5.4-3.7 3 .6 3.6 1.1 3 2.7-.4 1.5.2 2.2 3.6 3.5 3.7 1.5 4 1.8 2.1 2.5-2.7.9-2.7 2.5-.1 3.3 2.1.7 2.8 2.5 1 2.5-.5 0-1 .4-1 1 0 .5.8 1 1.8 1 2.7 0 3.4 1.1 1.6 2.4-1.2.9-1.3 1.7-.5 4 .9 2.3.8 3.2-1.1 5.6-1.3 1.6-3.1 2.9-4 2.9-2.8.1-3.1 2.1-.7 4.8 2.2 2.4 2.2 2.5.4 1.8-3.2-1.2-8.8-1.1-9.2.2-.3.7.7 1.5 2 1.8 1.4.4 3.4 1.8 4.6 3.1 1.1 1.3 2.6 2.4 3.2 2.4 1.4 0 .7 7.2-.8 7.7-.7.3-1.5-.8-1.9-2.4-.9-3.8-3.1-6.1-8.1-8.4-4.5-2-8.8-2.5-9.8-1-.7 1.2 2.2 4.1 4.1 4.1 1.9 0 1.8 1.6-.1 2.4-1.3.5-1.3.9-.3 2.5 1.8 2.9.2 3.8-2.5 1.4-3-2.7-8.2-3.7-9.7-1.7-2.7 3.1.8 13.4 4.5 13.4 1.7 0 2.5 2.3 1.5 4.1-.5.7-2.1 1.4-3.6 1.4-3.4.2-4.1 1.7-1.8 3.9 1 1.1 2.4 1.4 3.7 1 1.6-.5 1.9-.3 1.4 1.1-.4.9-.7 2.1-.7 2.6 0 1.4-3.4-.3-6.2-3.3-4.4-4.7-5.9-3.4-3.7 3.1.8 2.3 1.7 3.1 3.5 3.1 2.4 0 3.2 1.4 1.4 2.5-1.9 1.1-1 4.2 1.6 5.5 3.5 1.9 7.8-.6 8.2-4.9.3-3 .4-3 2.6-1.6 2.1 1.4 2.5 1.4 3.6 0 1.1-1.3.9-1.9-.9-3.8-2.8-3-2.7-4.4.8-9.9 3.5-5.4 8.6-9.5 13-10.4 5.4-1.1 6.9-5.3 7.5-21.1.1-3.3.8-5.8 1.9-7.1 1.3-1.4 1.6-2.8 1.1-4.6-.5-2-.1-3.3 1.4-4.9 1-1.2 2.2-2.9 2.4-3.7.3-1 1.6-1.4 4.2-1.2 3.2.3 3.7.1 3.4-1.5-.2-1.1-1.4-1.9-3.1-2.1-1.5-.2-2.5-.8-2.2-1.3 1.3-2.1 23.5-.2 23.5 2 0 .5-2.2.6-5 .3-2.7-.2-5.7-.2-6.6.2-2.8 1.1 0 2.9 4.9 3.1 2.4.2 5.4.8 6.6 1.5 6.8 3.6 15.2 4.2 12.4.8-.9-1-.3-1.3 3.3-1.3 4.8 0 5.5 1.1 2.3 3.9-1.7 1.4-2 2.5-1.5 5.5.3 2.1.2 5.2-.4 6.9-.5 1.9-.5 5.5 0 8.5.8 5.3-.2 15.1-2.1 19.9-.7 1.8-.7 3.2 0 4.5.7 1.4.6 2.7-.5 4.9-1 1.8-1.4 4.2-1 6.3.4 2.7.2 3.4-1.4 3.8-2.5.7-2.5 2.4-.1 5.4 1.6 2 2.1 2.1 3.5 1 .9-.7 1.6-2.2 1.6-3.3 0-1 .5-1.6 1-1.3.6.3.7 1.7.4 3.1-.8 3 1.9 4.3 4.4 2.2.9-.9 2.8-1.8 4.2-2.1 1.4-.3 3.5-.9 4.8-1.2 1.7-.6 2.1-.4 1.6.8-.5 1.5 4.4 4.7 7.3 4.7 1.9 0 1.6.9-.9 3.1-3 2.4-3.8 2.3-6.7-.6-4.6-4.9-12.8-1.8-15 5.7-1.3 4.2-1.3 4.3 1.8 6.9 4.1 3.4 3.9 4.9-.5 4.9-1.9 0-4.4.5-5.6 1.1-1.1.6-2.2.8-2.5.5-.3-.2 1.1-1.2 3.1-2 4.3-1.8 4.8-4.7 1-6.5-1.7-.8-2.4-1.7-2-2.7.8-2.1-1-5.1-3.5-5.9-2-.7-2-.8-.3-2.6 1.7-1.9 1.6-2.1-1.2-5-2.6-2.7-3.4-3-7.3-2.6-5.8.6-7.6 2.7-7.6 8.5 0 4.5-.1 4.7-3 5-5.6.5-7.4 1.2-8 3.3-.4 1.1-.1 2.7.6 3.5 1.5 1.9-.1 3.7-2.7 3.2-2.8-.5-3.1-5.9-.4-8.3 1.1-1 2-2.6 2-3.5 0-2.1-3.1-5-5.3-5-.9 0-1.7-1-1.9-2.3-.2-1.3-1.1-2.3-2.4-2.5-2.6-.4-3.8 2.2-2.3 5 .9 1.6.7 2.3-1 3.5-1.2.8-2.1 2.3-2.1 3.3 0 1.2-.8 2-2.5 2.2-2.9.3-3.4 1.8-1.1 3.3 1.1.7 2.2.6 3.4-.2 1.4-.8 2.3-.7 4.1.6 1.9 1.4 2.1 2.1 1.2 4.4-1.3 3.4-2.3 3.4-5.6.1-2.1-2.1-3.2-2.5-5.8-2-1.7.3-3.9 1.4-4.9 2.2-1.6 1.5-1.9 1.5-4.3 0-2-1.3-2.9-1.4-4.4-.5-4.7 3-6.7-2-3-7.1 2.1-2.8 2.1-3 .5-5.5-2.1-3.3-4.1-4-6.9-2.7-2.2 1-2.2 1 .6 2.1 3.2 1.2 3.5 3.6.8 5.1-1.7.8-2 .6-2.3-1.3-.4-3-4.8-3.8-4.8-.8 0 1.1.4 2.2.9 2.6 1.6.9 1.1 8.5-.6 8.5-.8 0-1.3-.8-1.2-1.7.2-1-.1-3.3-.5-5-.5-2.4-1.3-3.3-2.8-3.3-1.6 0-1.9.5-1.6 2.5.3 1.6-.1 3-1.3 4.1-1.1 1-2 1.5-2.2 1.3-.2-.2-1.1-1.6-2-3.1-1-1.6-2.2-2.8-2.7-2.8-1.3 0-1.3 6.7 0 7.5 1.8 1.1 1.1 2.5-1.3 2.5-2.7 0-5.7 2.8-5.7 5.3 0 .9-.7 1.7-1.5 1.7-1.5 0-2.1-3.1-.8-4.3.3-.4.7-3.1.8-6.2.1-3.9-.3-5.6-1.3-6-1.9-.7-3.2.3-3.2 2.4 0 1.3-.9 2-3 2.3l-3 .5.6-4.7c.7-5.4-.7-7.2-2.9-3.9-.8 1.1-1.8 1.6-2.1 1.1-.3-.5.4-2.2 1.5-3.6 1.2-1.5 1.9-3 1.5-3.3-.3-.4.1-1.4 1-2.4 1.5-1.7 1.7-1.7 4.5.3 1.6 1.2 4.4 2.2 6.4 2.2 1.9.1 3.5.6 3.5 1.2 0 1.6 2.8 2.5 3.6 1.2.9-1.4-5.5-6.7-8.1-6.8-4.1 0-4.5-1.9-1.5-6.4 1.6-2.3 3.2-5.5 3.6-7.1.4-1.6 1.8-4.5 3.2-6.4 1.3-2 2.8-4.5 3.3-5.6 2.1-4.4 3.6-6.4 7.9-10.4 3.2-3 4.1-4.4 3.3-5.2-1.6-1.6-4.4.2-8.4 5.5-2.9 4-3.8 4.5-6.2 4-3.3-.7-4.6 1.6-2.8 5 1.1 1.9.9 2.8-.9 5.9-2.1 3.5-5 4.7-8.5 3.6-.5-.2-2.7-.2-4.7-.1-3.3.1-3.8-.1-3.8-2 0-3.2 4.9-12.8 6.5-12.8 2.1 0 1.8 1.8-.5 3.2-3.1 2-2.5 4.7 1.5 6.4 1.9.7 3.8 1.4 4.4 1.4 1.6 0 2-6.4.5-9.4-.8-1.6-1.4-4.2-1.4-5.7 0-4.4-3.3-6-9.1-4.7-5.3 1.2-7.9.6-7.9-1.9 0-.9-1-2.7-2.2-4-2.3-2.5-1.8-4.4.7-2.3 1.2 1 1.6.9 2.1-.3.3-.9.1-2.4-.5-3.5-.9-1.8-.8-1.9 1.2-1.5 1.2.3 2.8 1.3 3.5 2.2.9 1.2 1.7 1.3 2.9.5.9-.6 1.8-1.5 2-2.1.6-1.6-6.5-5.6-8.8-5-1.1.3-3.3-.2-4.8-1.1-2.6-1.5-3-1.5-5.5.1-1.5 1-2.4 2.2-2.1 2.7.4.6-.4 1.4-1.7 1.9-3.3 1.2-4.8 3.3-5.5 7.5-.4 2.8-.2 3.7 1.2 4.2.9.4 2 .1 2.5-.6.5-.8.9-.9 1.4-.1 1.4 2.2 3.5 1.1 3.8-2.2.3-3.2.3-3.2 1.6 1.3.7 2.5 1.7 5.7 2.2 7.2 1.2 4-.5 4.4-4.6 1.3-2.9-2.2-4.3-2.6-7.1-2.2-2.3.4-4.3.1-5.8-.9-2-1.3-2.4-1.3-3.4 0-1.4 1.7-.7 3.6 1.3 3.6.7 0 2.1.9 3.1 2 1.2 1.3 3.1 2 5.5 2 4.2 0 8 3.3 8 6.8 0 1.9-.4 2.1-2.4 1.6-3.1-.7-4.1 1-2.2 3.8.9 1.2 1.6 3.1 1.6 4.1 0 .9.7 2 1.5 2.3.8.4 1.5 1.8 1.5 3.2v2.5l-2.6-2.8c-2.3-2.5-2.7-2.6-4.1-1.2-1.4 1.4-1.3 1.9 1.6 5.5 2.5 3.3 2.8 4.1 1.6 4.6-1.2.4-1.4 1.4-.9 4.3l.7 3.8-2.6-2.4c-1.6-1.5-4.1-2.4-6.7-2.6-3.4-.3-4.6.2-7.5 2.9-4.2 4-4.3 4.9-1 7 1.4.9 2.5 2.3 2.5 3.1 0 2.5-6.9 4.7-13.9 4.3-7-.3-9.4 1.4-4.6 3.2 2 .8 2.5 1.5 2.3 3.7-.3 2.4 0 2.8 1.9 2.6 1.4-.2 2.7.5 3.4 1.8.8 1.7 1.7 2 4 1.5 4.3-.8 3.8 1.8-.6 3.1-2.8.9-3.8.8-5-.3-.8-.9-2.5-1.6-3.8-1.7-3.3-.3-8.7-6.8-8.7-10.3 0-5 1-7.2 3.3-7.2 5.2-.1 10.7-2.3 10.7-4.3 0-.5-1.1-1.5-2.4-2.4-2.1-1.4-2.6-1.4-5.2 0-3.7 1.9-4.5 1.9-8.9-.2-3.9-1.9-4.4-3.7-1.8-6.6 1.7-1.8 1.7-2-.6-3.8-3-2.4-5.6-2.4-8.1.1-2.4 2.4-2.5 3.8-.6 5.9.8.9 1.7 2.9 2.1 4.6.6 2.8.5 2.9-.9 1.1-1.1-1.3-2.4-1.7-5-1.4-3.3.4-3.4.2-3.9-3.2-.2-1.9-.7-4.3-1.1-5.2-.6-1.3-.2-2 1.7-2.7 3.2-1.3 5.5-4.6 6.2-9.2.5-3.3.2-3.8-4.1-7.2-5.2-4.1-9.4-5.3-12.3-3.7-1.7.8-2.1.8-2.1-.3 0-.8.7-2 1.5-2.7 1.4-1.2 1.4-1.5 0-3-2.1-2.3-2-4.4.3-3.5 3.1 1.3 6.2 1.8 6.2.8 0-.5-.7-1.9-1.6-3.2-1.2-1.7-2.2-2.1-4-1.7-2.2.6-2.4.3-2.4-2.8 0-2.6.5-3.6 2.1-4.1 2.5-.8 1.9-3.1-.7-2.7-4.2.8-4.1-.2-4.8 35.7-.2 16 0 20.4 1.1 22.2.9 1.4 1.2 3.3.8 5.6-1.1 5.9-1.1 15.8 0 17.3.5.8 2.5 1.6 4.3 1.9 1.8.2 4.7 1.3 6.5 2.5l3.2 2.1-7-.6c-3.8-.4-7.6-1.2-8.2-1.7-1-.8-1.3-.4-1.3 1.5 0 2.3.4 2.6 5.3 3.1 2.8.3 11.5 1.2 19.2 2.1 31.6 3.4 59.6 3.7 257.5 3.1 106.4-.3 199-.6 205.8-.6H500v-2.6c0-1.4-.4-2.3-1-1.9-1.4.8-1.3-.8.1-2.2 2-2 .3-4.1-3.3-4.2-1.8 0-4.4-.2-5.7-.3-1.3-.2-2.6.2-2.8.8-.6 1.8 2.5 4.4 5.2 4.4 5 0 3 1.5-2.1 1.6-3.8.1-5.4-.2-5.4-1.1 0-2.1-3.3-2.8-4.6-1-1.2 1.6-14.1 1.8-104.2 1.5-4.6 0-8.1-.4-7.8-.9.3-.4 2.5-.7 5-.5 5.7.4 7.3-1.2 6-6.4-.7-3-1.3-3.7-3.4-3.7-1.9 0-2.5.5-2.4 2 0 1.7-.5 2-2.9 1.7-2.5-.4-2.8-.2-2.5 1.9.2 1.4-.2 2.4-.9 2.5-.7.1-1.8.2-2.4.3-.6 0-.9.7-.6 1.5.4.9-.4 1.5-2.6 1.8-1.8.3-32.2.6-67.7.7l-64.5.2-2.2-2.9-2.2-2.9 4-1.3c3.6-1.2 4.4-1.1 8.9 1 4.4 2 5.2 2.1 8 1 2.6-1.1 3.3-1.1 4 0 .5.8 1.9 1 4.1.6 1.9-.4 4.6-.6 6.2-.6 1.6 0 3-.6 3.3-1.5.5-1.3.9-1.3 2.7 0 1.4 1 3.3 1.3 5.8.9 2-.3 4.5-.1 5.6.4 2.9 1.6 12.1-1.6 12.5-4.3.2-1.1 1.4-2.5 2.7-3.1 1.3-.7 2.7-1.8 3.1-2.5.5-.7 1.5-.9 2.6-.5 1.8.7 1.8.9-.4 2.6-2.9 2.4-2.8 3 .6 3 3.1 0 6.2-2.7 6.2-5.3 0-.9-1.1-2.4-2.5-3.3-2-1.3-3.3-1.4-6.5-.6-4 1-4 1-4-1.9 0-1.8.7-3.2 1.9-3.9 2.8-1.4 3.5-1.3 4.6 1.2 1.5 3.2 4.3 4.7 5.5 2.8.5-.8.7-2.4.4-3.5-.4-1.7 0-2.1 2.2-2 1.5 0 2.9-.6 3.1-1.2.6-1.7-2.2-2.7-4.4-1.7-2.7 1.1-7.3 1-7.3-.2 0-.6-.9-2.3-2.1-3.8-2.7-3.4-2.3-9.1.6-9.1 1.3 0 2.1.8 2.3 2.2.5 3.2 2.8 4.9 4.7 3.3 1.8-1.5 2-4.6.3-5.4-.9-.3-.7-.9.6-1.7 1.1-.7 3-2.3 4.3-3.7 2.6-2.9 4.1-2.4 2.2.6-1 1.7-1 2.3 0 3.6 1.5 1.8 8.6 2.2 9.6.6.4-.6 2.2-1.7 4.1-2.5 5.9-2.4 3.8-8.9-3.1-9.7-3.6-.4-4.6-3.3-1.6-4.3 4.8-1.5 4.6-8.8-.2-10-2.7-.7-10.3 1-11.2 2.5-1 1.7.5 4.9 2.6 5.5 2.8.9 2.3 3-1.2 5.6l-3.1 2.2-2.7-2.1c-1.6-1.1-4.5-2.7-6.5-3.6-2-.8-3.6-1.8-3.6-2.1 0-.3.9-.1 1.9.5 3 1.6 5.1-1.1 4.4-5.6-.5-3-.3-3.6 1.6-4.1 1.1-.3 2.1-.9 2.1-1.4 0-1.8-3.1-2.1-5.5-.5-1.9 1.3-2.3 1.3-1.9.2.8-2.1-1.4-2.9-3.9-1.4-2.2 1.4-9.2 1.7-10.4.4-1.3-1.2-5.3-.6-5.3.9 0 1.8 3.4 3.7 5.3 2.9.9-.3 1.6.2 1.9 1.4.5 1.9.4 1.9-5.1.2-9.9-3-20.2-10.9-20.7-16-.6-5.6-.4-9.7.9-18.7.8-5.6 1.8-10.6 2.1-11.2.4-.6 1.7-.7 3.4-.1 1.5.4 6.5 1.1 11.2 1.4 11.9.8 16 1.6 16 3.2 0 .9 1.7 1.4 5.3 1.6 2.8.2 5.1.7 4.9 1.3-.2.6-2.1.8-4.5.5-7.7-.9-29.2-.6-29 .5.3 1.9 7.3 2.8 11.4 1.6 3-.9 4.4-.9 6.1 0 1.3.7 4.6 1.8 7.3 2.5 2.8.7 4.1 1.3 3 1.3-1.1.1-2.7.6-3.5 1.1-2.7 1.8 1 3.1 7 2.4 3.4-.4 8.4 0 13.2 1 4.2.9 8.1 1.6 8.5 1.7.4 0-.3.4-1.5 1-1.3.5-2.2 1.5-2 2.1.3.9 4.2 1.5 12.6 1.9 13.2.7 28.2 2.7 28.2 3.8 0 .4-.5 1.2-1.2 1.9-.8.8-.5 2 1.3 4.7 1.3 1.9 2.8 3.5 3.2 3.5.5 0 .5.4.2 1-.3.5-1.5 1-2.6 1s-2.2.7-2.6 1.5c-.8 2.2.4 3 2.1 1.6.8-.7 1.9-1 2.4-.7.5.3 5.8.8 11.8 1.1 6 .4 13.2 1.3 16.1 2.1 2.8.8 6.2 1.4 7.5 1.4 1.2 0 3.2.7 4.2 1.5 1.1.8 3.1 1.5 4.4 1.5 2.4 0 2.4.1.9 1.8-1.3 1.4-1.4 2.1-.5 3 1.9 1.9 4.8 1.5 4.8-.7 0-1.1.4-2.3 1-2.6 1.3-.8 20.5.6 22.1 1.6 1 .6 1 1.1-.1 2.3-2.2 2.7-.4 3 7.6 1.1 7.2-1.7 8.4-1.7 24.7-.1 9.5.9 20.9 1.7 25.5 1.9l8.2.2V730h-2.6c-1.5 0-3.2.7-3.8 1.6-.9 1.2-2.1 1.4-5 .8-3.2-.5-3.6-.8-2.1-1.6 1.1-.7 1.5-1.7 1.1-3.3-.7-2.7.4-3.2 7.3-3.3 4.5-.1 5.9-.7 4.7-1.9-1.2-1.3-14.9-1.5-17.9-.4-2.6 1-2.8 1.4-2.2 4.4.7 3.1.7 3.1-1.1 1.6-1.1-.9-3.3-2-5.1-2.4-2.7-.5-3.1-1-2.8-3.4.4-3.2-.2-4.4-3.2-6-3.8-1.9-7.2-1.4-8.3 1.4-.9 2.4-1.2 2.5-11.2 2.5-7 0-11.2.5-13.1 1.5-1.5.8-3.4 1.2-4.2.8-.8-.3-1.5 0-1.5.6s-.4 1.1-1 1.1c-.5 0-1-.8-1-1.8 0-1.1-1.2-2.2-3.2-3-2.7-1-3.6-.9-6.5.8-4.4 2.6-7.4 2.5-9.6-.1-2-2.2-3.9-2-9.5 1.2-4.4 2.5-6.7 2.4-7.9-.4-1.7-3.6-6.9-2.5-9.5 1.9-1.1 1.9-3 3.6-4.2 3.9-5 1.1-6.6.9-7.8-.8-1-1.3-4.2-2.1-12.8-3.2-12.8-1.7-17.2-2.9-19.1-5.1-2-2.5-8.2-5.2-12.9-5.8-3.9-.4-9.3-3.6-6.2-3.6.7 0 1.2.5 1.2 1 0 .6.9.5 2.1-.2 1.7-1 2.3-1 2.6-.1.4 1 .8.9 1.9-.2 1.2-1.2 4.7-1.3 19.3-1 9.7.2 18.8.6 20.2.9 1.3.3 6.7.8 11.9 1.1 6.4.4 9.7 1 10.2 2 1.4 2.5 19.1 3.1 74.7 2.6 15.9-.1 18.5.1 19.5 1.5.9 1.2 3.5 1.7 9.9 2.1 7.6.5 8.7.4 8.7-1.1 0-1.2-1-1.6-4.5-1.6-3 0-5-.6-6.2-1.9-1.6-1.6-4.1-1.9-21.8-2.5-22-.7-31.5-1.5-31.5-2.7 0-.4 3.5-1 7.8-1.4 14.7-1.4 15-4.7.3-4.6-5.3.1-14.8-.3-21.1-.8-15.5-1.3-45-1.4-45-.2 0 1.9 2.2 2.2 16.9 2.4 11 .2 15.3.6 16.5 1.6 1.3 1.1 2 1.1 2.8.3 2.1-2.1 8.1-1.3 12.2 1.6 4.8 3.3 6 5.8 2.5 4.9-1.3-.4-9.5-.7-18.1-.7-13.1 0-15.8-.2-15.8-1.4 0-2.2-1.1-2.6-10.7-3.1-13.3-.7-20.3-1.6-20.3-2.5 0-.4.8-.6 1.8-.4.9.3 3.5.1 5.7-.5 2.2-.5 3.2-.9 2.3-1-1-.1-2.2-1-2.8-2.1-1.1-2.1-.9-2.2 13.5-5.9 5.5-1.5 6.2-1.4 6.8 1 .4 1.4 1 1.8 1.9 1.3.7-.5 4.2-.9 7.8-1 3.6-.2 8.8-.8 11.5-1.4 2.8-.6 8.2-1.3 12-1.4 3.9-.2 9.5-.6 12.5-1.1 8-1.1 5.2.9-4 2.9-4.8 1-9.3 1.4-12.5 1-3.9-.5-4.8-.4-3.8.6 2.1 2.3 17.1 1 27.6-2.4 11.6-3.8 20-4.5 37.2-3.2 4.4.3 8.6.6 9.3.6.6 0 1.2.3 1.2.7 0 .5-4.2.9-9.4.9-6.8.1-10.3.6-12.7 1.9-1.9 1-5.1 2.6-7.1 3.7-3.8 1.8-5 3.8-2.5 3.8.8 0 3.4-1.1 5.8-2.5 7.8-4.4 9.2-4.7 21.7-4.7 7 .1 12.2-.3 12.2-.9 0-.5-.4-.9-1-.9-.5 0-1-.6-1-1.4 0-2-2.3-2.6-9.5-2.6-4.5 0-6.6-.4-7.6-1.6-1.1-1.4-2.5-1.5-8.9-.9-4.1.4-11 .9-15.3 1-4.2.2-10.7.8-14.5 1.5-7.8 1.3-22.3 1.9-21.7.9.7-1 8.9-2.9 12.6-2.9 1.8 0 5.2-.9 7.5-2 5.6-2.8 18.7-3.6 30.4-2 5 .6 9.4.9 9.8.6 2-2.1-10.2-7.5-22.8-10-10.9-2.3-13-2.8-13.4-3.5-.8-1.2 10.7-.4 18.3 1.3 4.1.8 10.4 3 14 4.7 3.7 1.7 9.5 3.5 13.1 3.9 3.6.5 7.3 1.2 8.3 1.6 1 .3 1.7.1 1.7-.5 0-1.5-4.3-3.1-8.1-3.1-1.7 0-6.2-1.4-10-3-3.8-1.7-11-4-16-5-4.9-1.1-9.4-2.2-9.9-2.5-.4-.3-8.8-.8-18.7-1.1-19.9-.6-27.5-1.1-31.5-2-1.7-.4-2.8-.2-2.8.4 0 1.5 2.9 2.5 8 2.8 16.3 1 29 2.1 26 2.3-1.9.1-4.2.6-5 1.1-1.8 1.2-2.2 1.1 7.4 1.6 4.4.2 8.4.8 9 1.4.5.5 2.6 1 4.5 1 4 0 12.8 2.2 15.7 3.8 1.5.9 0 1.1-6.8 1.2-7.4 0-8.6-.2-8.2-1.5 1-2.5-14.1-2-21.9.6-3.4 1.2-7.5 2.3-9.2 2.5-10.5 1.2-13.3 1.8-16 3.2-1.6.8-3.3 1.9-3.6 2.4-.9 1.4-7.6 2.7-13.4 2.8-2.7 0-9.7 1.4-15.4 3-11.8 3.4-25.1 4.2-25.1 1.5 0-.7-.8-1.9-1.7-2.4-1.9-1.1-2.2-1 6-1.6 3.9-.3 4.4-1.2 1.9-3.8-1.5-1.5-2.5-1.8-3-1.1-.4.6-5 1.4-10.2 1.8-5.2.4-13.4 1.6-18.2 2.7-9.5 2.1-18.8 2.5-18.8.9 0-.6 1.5-1 3.3-1.1 5.4-.2 8.2-1.3 7.9-3.3-.2-1.1.5-2 1.7-2.3 1.2-.3 2.1-1 2.1-1.5 0-.7-2.1-.8-5.7-.3-8.4 1-11.1 1-28.2.1-15.1-.9-15.3-.9-14.7 1.1.5 1.4.1 2.3-.9 2.7-2.1.8-6.5-.3-6.5-1.5 0-1.9 3.3-6 4.5-5.5.7.2 7.3 0 14.6-.5 7.4-.6 18.4-1 24.6-.9 8.3.1 12.2-.3 15-1.5 5.8-2.5 22.3-5.3 22.3-3.8 0 1.1-8.8 3.3-13.1 3.3-1.6 0-2.9.4-2.9 1 0 .5.7 1 1.5 1 3.3 0 1.3 1.8-2.6 2.3-4.5.6-5.4 1.1-4.5 2.5.3.5 2.1.6 4.3.1 2.1-.4 7.4-1.5 11.8-2.4 4.4-.9 9.6-2.5 11.7-3.5 2-1 5.4-2.2 7.5-2.5 3.7-.7 18.7-8.9 22.8-12.5 2-1.7 10.2-6.2 14-7.6 1.8-.7 1.7-.8-.8-1.2-2.7-.3-10.6 3.6-18.6 9.4-1.9 1.3-4.6 2.7-6 3-1.4.4-5.3 1.9-8.6 3.5s-7.7 3.2-9.7 3.5c-3.1.5-3.6.4-3.5-1.2.2-1.5-.6-2-3.3-2.3-3.3-.5-3.2-.5 1.5-1 4-.5 4.9-.9 4.7-2.4-.2-1.2.4-1.7 1.9-1.7 3 0 15.6-6.2 20.4-10 2.2-1.8 6-4.2 8.5-5.5 2.5-1.3 6.7-4.6 9.3-7.4 2.6-2.8 5.7-5.5 6.8-6.1 2.6-1.5 4.5-.3 14 9 6.9 6.6 10 8.3 11.4 6 .9-1.5 10-.1 16.5 2.5 9 3.7 31.7 7.8 39.2 7.1 10.4-1.1 14.1-1.1 17.6-.4 2.4.6 3.2.4 3.2-.7 0-2-9.2-2.9-17.2-1.6-9.7 1.6-24.8-1.1-44.3-7.8-3.3-1.2-9-2.4-12.7-2.7l-6.8-.6-6.8-6.8c-3.8-3.8-8-7.2-9.5-7.5-4.4-1.1-9 1.2-14.1 7-3 3.5-6.9 6.6-10.5 8.5-3.2 1.6-7.2 4-8.9 5.4-6 5.2-16.2 9.3-24.4 10-4.3.4-11.7 2-16.5 3.5-9.1 3-15.4 3.6-47.3 4.3l-11.5.3.4-11.1c.2-9.1 0-11.2-1.3-12.3-1.7-1.5-1.8-.9 2.1-17.6 5.2-22.5 6.4-26.5 10.6-37 1.4-3.4 2.3-8.9 2.8-17.5 2.1-33.1 2-32.5 7.9-33.3 9-1.2 11.9-5.7 10-15.2-.7-3.3-1.5-12.8-1.7-21-.2-8.3-.8-16.4-1.2-18-1.1-4.4-1.2-25.6-.2-22.5.5 1.4 1.9 9.9 3.1 19 2.4 18.4 4 26.3 6.6 33.2 1.6 4.1 1.7 4.9.4 7.4-.8 1.6-2.3 3.7-3.3 4.7-2.3 2.3-.9 4.2 2.1 3.3 3.1-1 7.2-5.6 7.2-8.1 0-1.3-1.5-5.9-3.3-10.2-1.9-4.3-3.7-9.4-4-11.3-.9-5.1-3.9-30.1-3.9-32.5 0-1.1-.4-3.1-.9-4.5s-1.3-9-1.9-17c-.6-8-1.6-16.3-2.1-18.5-3.9-15.2-4.5-21-3.9-37.5.3-9.1.3-17.1-.1-17.9-.4-.8 0-3.3.9-5.5 1.2-3.2 1.5-7.5 1.4-19.1-.1-8.2-.5-15.8-.8-16.8-.6-1.8-.4-1.8 2.2.2 3.4 2.4 11.7 3.1 15.1 1.3 2.9-1.6 5.3-5.1 5.3-7.7 0-1.2 1.8-3.8 4.3-6.1 6.4-5.7 8.6-12.4 10.3-31.4.8-8.5 1.5-17.7 1.5-20.4.1-2.8.9-6.5 2.1-8.7 2.4-4.6 2.1-7.3-1-7.7-1.2-.2-2.2-1-2.2-1.9 0-1.2.8-1.4 3.3-1 5.4.8 6.7-.6 6.7-7 0-3.9-.5-6.2-1.7-7.5-1.5-1.7-1.5-2 .9-4.6 1.3-1.5 3-4.6 3.7-7 1.5-5.4 5.1-7.7 13.3-8.6 7.2-.7 10.1-2.8 12.9-9.4 1-2.4 3.3-6.4 5.1-8.9 2.4-3.6 3.2-5.9 3.4-10.1.4-7.5-.8-10.4-4.1-9.6-4 1-3.1-1.8 2-5.6 20.3-15.2 22.4-47.8 4.3-67.5-9.6-10.6-22.2-15.9-37.3-16-10.9 0-18.2 2.1-26.4 7.6-6.8 4.5-9.8 8.1-14.7 17.7-5.7 11.4-6.6 22.8-2.7 36.2 1.9 6.5 5.8 12.6 12.6 19.7l4.9 5.1-2.2 1.9c-12.9 10.5-14.1 11.9-16 20.1-.6 2.9-2.3 6.8-3.6 8.8-1.4 2-3 5.9-3.6 8.7-1.2 6.1-3.4 10.7-4.9 10.7-.6 0-3.2-1.7-5.8-3.8-2.5-2.1-6.1-4.4-8-5.2l-3.3-1.3.6-6.4c.4-3.5 1.1-7.5 1.6-8.9 1.3-3.2 1.3-28.8.1-36.8-1.6-10.2-3-22.5-3.9-34.8-.7-9-1.5-12.5-3-15-1.2-1.8-2.9-4.8-3.8-6.7-2.2-4.3-10.3-10.7-18.1-14.2-10.3-4.6-26.1-6.8-38.8-5.2zM366.9 97c13.9 7.2 21.6 17.4 24.1 31.9 1.6 8.4.1 19.1-3.7 26.8-4.1 8.2-14.1 17.2-23.9 21.3-7.6 3.1-8 3.2-10.7 1.6-2.2-1.2-3.3-1.3-4.9-.5-3.3 1.8-9.5.4-18.5-4.1-12.1-6-18.9-13.8-23.3-27-1.8-5.3-2.1-7.9-1.7-14.5.7-9.6 1.8-13 7.3-21.5 5.2-8 7.3-10 14.9-13.9 7.9-4.1 13.1-5.1 23.8-4.6 8 .4 9.7.9 16.6 4.5zm-145.4 20c.3.5-.1 1-.9 1s-1.8-.5-2.1-1c-.3-.6.1-1 .9-1s1.8.4 2.1 1zm-5.5 1c-.8.5-2.2 1-3 1-1.3 0-1.3-.1 0-1 .8-.5 2.2-1 3-1 1.3 0 1.3.1 0 1zm-94.5 2c.3.5.1 1-.4 1-.6 0-1.1-.5-1.1-1 0-.6.2-1 .4-1 .3 0 .8.4 1.1 1zm125 2c.3.5.1 1-.4 1-.6 0-1.1-.5-1.1-1 0-.6.2-1 .4-1 .3 0 .8.4 1.1 1zm-25 3c.8 1.3 6.1 1.3 8.4 0 2.6-1.4 11.1 1.6 15.7 5.6l3.9 3.3-3 2.5c-2.9 2.3-2.9 2.5-1.7 7 .6 2.5 1.5 7 1.8 10.1.7 5.9 2.7 7.4 4.3 3.2.8-2 1-2 1.6-.4.8 2 .4 5.7-2 15.2-2.9 12.1-2.7 11.8-9.3 11-9.2-1.1-14.4-2.6-18.4-5.2-3.6-2.5-5.8-2.4-5.8.1 0 .7 3.1 3.4 6.9 6 8.9 5.9 12.1 9.7 12.1 14.2 0 2.2-.6 3.7-1.5 4.1-2.5.9-4.7 6.1-4 9.4.5 2.2.3 2.9-.8 2.9-1.9 0-4.1-6.3-3.3-9.5.5-2-.2-2.9-5.2-6.2-5.6-3.9-13.8-7.3-17.4-7.3-2.4 0-2.3-2 .4-9.3l2.2-5.9-2.2-1.7c-1.4-1.1-2-2.3-1.6-3.7.4-1.5-.1-2.3-2-3.2-3-1.3-3.3-3.7-1.1-7.8.8-1.6 1.5-4.2 1.5-5.8 0-2.3.4-2.7 2-2.3 3.6.9 5.2-1.5 6-9.4.8-8.4 3-13.6 6.5-14.9 1.2-.5 2.6-1.4 3-1.9.8-1.4 2.2-1.4 3-.1zm30 16c.3.5-.3 1-1.4 1-1.2 0-2.1-.5-2.1-1 0-.6.6-1 1.4-1 .8 0 1.8.4 2.1 1zm-.7 5.8c.6 1.8-1.5 1.4-2.2-.4-.4-1-.1-1.4.6-1.2.6.2 1.4 1 1.6 1.6zm-117.3 10c-.3.3-1.6-.5-2.8-1.7l-2.2-2.3 2.8 1.7c1.5 1 2.5 2 2.2 2.3zm31.9 12.2l3.1 3.5-3-2.5c-4.2-3.5-5.5-5.1-5.5-6.9.1-1.2.3-1.1 1.2.4.6 1.1 2.5 3.6 4.2 5.5zm14.1 4c.3.5.1 1-.4 1-.6 0-1.1-.5-1.1-1 0-.6.2-1 .4-1 .3 0 .8.4 1.1 1zm140.4 7.2c-.7 1.3-3 4.4-5.2 7-4 4.8-4.4 7.3-1.5 9.2 2.2 1.4 7.5-.4 14.5-4.9 2.8-1.9 6.6-4.1 8.5-4.9 4.1-1.9 9.3-4.9 11.3-6.6 1-.9 1.5-.9 1.5-.1 0 .6-.4 1.1-.9 1.1-1.5 0-20.1 19.2-19.5 20.1.7 1.3 3.4 1.1 3.4-.2 0-2.2 12.5-14 16.9-16 2.4-1 4.6-1.7 4.9-1.4.3.2-2.8 3.5-6.9 7.2-11.6 10.6-14.9 14-14.9 15.2 0 .7 4.3-2.7 9.6-7.4s10-8.5 10.4-8.5c2.7 0 .9 2.5-7.6 10.4-5.2 4.8-9.4 9.2-9.4 9.7 0 2.1 2.4.6 9-5.6 4-3.8 7.5-6.3 8.3-5.9 2.8 1 7.5-2 15.5-10.2 9.8-10.1 12.5-10.5 3.1-.6-3.5 3.8-7.2 8-8.1 9.4-1.1 1.6-3.1 2.8-5.3 3.2-3.6.7-4.6 2.2-2.1 3.2 2.5 1 8.6-2.7 11.6-7 1.5-2.2 4.7-5.9 6.9-8.1 3.6-3.5 4.1-3.7 4.1-1.8 0 1.3-1.4 3.3-3.6 4.9-2 1.5-5.1 5.1-6.9 7.9l-3.3 5.2-8.1.9-8 1 2.1-2.3c2.8-3 1.5-4.3-1.5-1.5-1.2 1.1-3.6 3.1-5.4 4.4-1.8 1.3-6.5 4.8-10.5 7.9-4 3.1-9.5 7.1-12.3 8.9-2.7 1.8-6.8 5.2-9.1 7.7l-4.1 4.5-6.6-4.7-6.7-4.6 2-3.9c1.1-2.2 2-5 2-6.2 0-1.3 1.4-5.2 3.1-8.8 1.7-3.6 3.3-8.8 3.6-11.5.6-4.6 1.2-5.6 7.5-11.8 7.1-6.9 9.8-8.4 7.7-4.5zm13.4.3c2 .8 3.7 1.9 3.7 2.3 0 .6-7.7 5.2-17.6 10.5-6.5 3.5-6.6-.2-.1-7.3 2-2.3 4.2-5.1 4.8-6.2 1.2-2.1 2.7-2 9.2.7zm35.7 2.1c-1.9 2.2-5.5 4.1-4.5 2.2 1.6-2.8 2.8-3.8 4.2-3.8 1.3 0 1.3.3.3 1.6zm-9.5 2.4c-1.7 1.7-3.1 2.6-3.3 2-.5-1.5 2.7-5 4.6-5 1.1 0 .7.9-1.3 3zM250 189c0 2.9-2.1 7-3.7 7-1.9 0-1.6-5 .4-7.2 2.1-2.3 3.3-2.3 3.3.2zm112.5.3c-1.4 2.2-6.5 5.4-6.5 4.1 0-.9 6.1-6.4 7.1-6.4.5 0 .3 1.1-.6 2.3zm12 7.5l-2.8 2.7 2.3-3.3c1.2-1.8 2.5-3.1 2.8-2.7.3.3-.7 1.8-2.3 3.3zm-163.5.9c5.3 1.8 10 5.9 10 8.6 0 1 .5 2.8 1.1 3.9 1 1.9.9 2-1.7 1.4-1.6-.4-4.2-1.6-5.9-2.7-5.8-3.7-12-6-16.5-6.2-4.3-.2-4.5-.3-4.8-3.5-.3-3-.2-3.2 2.2-2.6 1.3.3 3.3.1 4.3-.5 2-1.1 4.5-.7 11.3 1.6zm34 3.3c0 .5-.5 1-1.1 1-.5 0-.7-.5-.4-1 .3-.6.8-1 1.1-1 .2 0 .4.4.4 1zm126.3 1.7c-.2 1-1.6 3.6-3.1 5.7-2.6 3.8-3.1 4.1-11.5 5.7-9.8 1.9-13.1 4-14.3 9.3-.7 3.3-5 10-8 12.7-2.7 2.3-10.7 3.3-13.3 1.7-2-1.2-2-1.4 1.7-5.2 2.4-2.5 3.3-4 2.5-4.3-3-1.1.1-5 7.8-9.8 4.3-2.7 7.7-5.1 10.3-7.4 1.9-1.8 3-2.2 3.3-1.4.6 1.7 3.1 1.6 6.5-.1 1.4-.8 4.9-1.7 7.8-2.1 4-.6 5.5-1.3 7.2-3.6 2.4-3.3 3.8-3.8 3.1-1.2zm-129.3 4c-.1.5-1.2 2.1-2.5 3.8-2.8 3.5-5 2.4-3.9-1.9.5-2.1 1.2-2.6 3.5-2.6 1.6 0 2.9.3 2.9.7zm-55.1 13.6c3.6 1.8 9.1 5.2 12.2 7.5 6 4.5 21.7 12.3 28.7 14.1 4.3 1.2 16.9 1.4 22.9.4 4.1-.6 17.7-13.9 18.6-18 1.2-5.3 1.9-5.6 7.3-2.7 6.6 3.6 7.9 5.2 5.8 7.6-1.4 1.5-1.5 2.2-.4 4.8 1.2 3 1.2 3.2-5.9 10.1-3.9 3.9-7.1 7.8-7.1 8.5 0 2.6 3.8 1.4 5.8-1.9 3.3-5.2 12.6-12.7 15.9-12.7 2.9 0 6 3 7.6 7.2.4 1.1 1.2 1.5 2.2 1.2.8-.3 1.5-.1 1.5.5s-.4 1.1-.9 1.1c-2 0-7.4 9.5-7.6 13.4-.2 2.9-1 4.6-2.7 6-1.4 1.2-3.5 2.9-4.6 3.8-1.3 1-1.9 2.4-1.6 3.3.8 1.9-1.7 6-6.2 10.2-4.1 3.9-4.4 6.9-.8 8.5 2.3 1.1 2.9 1 4.6-1.2 1-1.3 1.6-3 1.4-3.7-.8-1.9 1.6-6.2 5.3-9.7 3.5-3.3 3.9-5.3 1.4-5.9-1.4-.3-1.2-.6 1-1.5 1.5-.7 3-2 3.4-2.9.3-1 1.9-3.2 3.6-5 2.3-2.4 2.8-3.7 2.3-5.7-.3-1.3-.1-3.7.5-5.3l1.1-2.8 1.9 2.4c1.9 2.3 1.9 2.4 0 5-1 1.4-3.9 7.1-6.3 12.6s-7.1 14.5-10.5 20c-3.3 5.5-6.8 11.7-7.8 13.8-2.3 4.9-6.2 6.9-14.7 7.4-7.6.5-8.4-.4-3.8-3.7 3.2-2.3 3.9-4 1.5-4-2.2 0-8.3 5.8-8.7 8.2-.6 3.9-4.7 5.8-15.2 6.9-8.9.9-9.9.8-11.1-.8-1.1-1.5-1.8-1.6-4.7-.6-4 1.5-19.3 1.2-20.8-.3-.7-.7-.5-1.5.8-2.7 1.6-1.5 2-1.5 4.7-.1 2.3 1.2 5 1.5 11.8 1.1 9.4-.5 11.9-1.5 9.7-4.1-1.4-1.8-1.9-1.5 7.5-4.1 6.3-1.8 9.9-3.9 15.2-8.8 2.4-2.3 3.7-2.8 5.7-2.3 1.4.3 2.8.1 3.1-.5.8-1.2-2.2-4.9-4-4.9-.6 0-3.6 2.2-6.6 4.9-9.1 8.1-12.8 9.6-24.3 9.8-9.8.1-9.9.1-12.3-2.8-1.4-1.6-3.1-2.9-3.8-2.9-2 0-2.7-1.7-1.7-3.7 1.5-2.9 0-5-5.7-8-3-1.5-5.6-3.3-5.8-3.9-.6-1.9 6.1-1.1 7.5.8.7 1 2.4 1.8 3.8 1.8 1.3 0 2.7.7 3 1.5.8 1.9 4.8 1.9 6.4 0 1.2-1.5.6-3.5-1.1-3.5-.6 0-1.9-1-2.9-2.3-1.5-1.8-2.1-2-3.1-1-2 2-2.7 1.6-2.1-1.2.6-3.3-2-4.3-5.3-2.1-2.8 1.9-4.5 1.4-4.5-1.3 0-1-.3-2.1-.7-2.4-1-1.1-4.3 2.4-4.3 4.5 0 1-.7 3-1.6 4.3-2.1 3.2-1 4.5 5.5 7.4 6.2 2.6 7.6 4.3 6.1 7.2-1.1 1.9-.9 2.4 1.5 4.3 1.9 1.5 2.6 2.9 2.3 4.6-.4 3.3-3.5 3.9-4 .8-.2-1.5-1.1-2.4-2.5-2.6-1.3-.2-2.3-.9-2.3-1.6 0-.7-1.1-2.7-2.5-4.6-1.4-1.9-2.5-4.2-2.5-5.2 0-2.2 0-2.2-3.6-.3-2.1 1.1-3.1 2.6-4.1 6.6-1.2 4.6-1.2 5.4.3 7.1 1 1 2.6 1.8 3.6 1.8s2.2 1 2.8 2.4c1.5 3.9 3.9 4.2 5.3.6.3-1 .6-.6.6.9.1 1.4-.6 3.2-1.4 4.1-1.1 1.3-1.3 2.4-.7 4.1 1 2.6.1 6.2-1.9 7.5-2.1 1.2-4.1-2.7-3.4-6.7.5-2.6.2-3.9-.9-4.9-.9-.7-1.6-1.8-1.6-2.5 0-.8-1.8-2.9-4-4.8-2.6-2.2-4.2-4.5-4.6-6.8-1-4.9-5.3-11.2-9.7-14-4-2.5-11.2-11.7-14.3-18.3-1.3-2.5-2.3-3.5-3.4-3.1-1.1.4-2.1-.3-2.8-2-.6-1.4-1.9-2.5-2.8-2.5-1.1 0-1.4-.5-1-1.6.3-.9.6-1.9.6-2.3 0-.4 1-1.8 2.3-3.1 1.5-1.7 2.2-3.7 2.2-6.7.1-2.3.7-5.3 1.5-6.7 1.2-2.3 1.1-2.8-.4-4.5-1.7-1.8-1.7-2 .3-4 1.2-1.2 2.1-2.6 2.1-3.2 0-.5 1.4-1.5 3-2 3.1-1.1 3.8-2.7 1.9-4.6-1.1-1.1 2.3-3.1 9.1-5.6 4.6-1.7 12.3-.6 18.9 2.6zm109.3 11.9c7.8 4.2 13.8 10.9 13.8 15.5s-3.1 4.2-4.1-.5c-.8-3.8-4.5-8.2-6.9-8.2-.9 0-2.5-.9-3.5-2s-3-2-4.5-2c-3.2 0-5.5-2.3-4.6-4.5.8-2.2 3.2-1.8 9.8 1.7zm21.3-.5c-.3 1.6-1.3 3.5-2.1 4.4-1 1.1-1.3 2.6-.8 4.3.8 3.3-.9 3.4-2.4.1-1.7-3.6-1.6-4 1.9-8 3.7-4.2 4.3-4.4 3.4-.8zm22.3 10.5c-.3 3.1-.6 3.4-5.5 4.3-6.2 1.2-6.8 1.7-5.1 4.5 1.2 1.9 1 2.3-1.4 4.1-3.6 2.7-3.5 4.8.2 5.6 1.7.3 3.3 1 3.7 1.6 1.2 2-.1 28.6-1.6 31.4-.5 1-1.4 5-2 8.9-1.5 10.3-3.4 14-8.1 16.4-3.8 2-6.5 5.1-5.3 6.3 1.2 1.2-.7 5.4-2.9 6.3-2.3 1-8.7-.1-10.4-1.9-.4-.4-1.6-.7-2.6-.7-2.7 0-2.2-2.7.9-4.2 3.7-1.8 5-6.8 2.6-10.5-1-1.6-2.4-3.3-3.2-3.9-2.5-1.9-.4-3.4 2.6-1.9 2.3 1.2 3.1 1.2 4.8.1 3-2 2.9-3.9-.5-5.8-3.5-2-3.9-3.8-1-3.8 4 0 3.6-3.1-.8-6.9-2.3-2-4.2-3.9-4.2-4.3 0-.4 1.5-.4 3.4-.1 2.5.4 3.5.1 4-1.2.7-2-1-4.5-3-4.5-1.9 0-1.8-2 .2-3.4.9-.7 2-3 2.4-5.2.8-4.2 4.6-17.1 6.2-21.6.9-2.3 1.4-2.6 3.9-2.1 3.1.6 4.2-1.3 1.4-2.3-2.4-1-1.7-2.7.9-2 2.8.7 4-.2 2.4-2.1-1.7-2-.8-2.2 4.9-1.1 4.6.9 5.5.8 8-1 4.1-3.1 5.5-2.8 5.1 1zm-167.9 53.7c1 1.4 2.1 4.4 2.4 6.6.4 2.8 1.6 4.9 3.9 6.9 4.1 3.8 6.9 9.1 7.4 14.1.8 9.6 1 10 3.5 10.3 3.2.4 11.9-7 11.9-10.1 0-2.1.4-2.2 11.9-2.3 10.9 0 11.7.1 10 1.5-1.5 1.4-1.7 2.3-.8 7.6.5 3.3 2 9.6 3.3 14 3.4 11.1 6 22.5 5.3 23.1-1.1 1.1-2.6-.7-5.5-7-3.1-6.7-8.2-25.5-8.2-30.5 0-3.1-2.2-5.7-4-4.6-.5.3-1 2.3-1 4.3 0 4.7 5 24.1 7.8 30.6 2.5 5.6 2.5 5.6 1.2 5.6-2 0-14-27.4-14-32 0-3.6-1.7-4.8-3.8-2.6-1.8 1.7-2 .9 5.7 21.1 5 13.1 4.3 13.3-4.4 1.1-2.2-3.1-4.5-5.6-5.2-5.6-1.8 0-1.6.9 1.2 5.5 1.4 2.2 2.5 4.4 2.5 4.9 0 1.2-9.8-9.6-12.3-13.5-1.1-1.6-2.5-2.9-3.3-2.9-2 0-1.8.4 1.9 6.3 4.8 7.6 5.2 8.6 1.7 4.7-7.6-8.5-16-23.4-16-28.4 0-1.3-.9-3.4-1.9-4.8-2.7-3.4-6.2-14.3-6.7-20.8-.2-3.3-1-5.9-1.9-6.6-.8-.6-1.5-1.9-1.5-2.8 0-1.4.6-1.2 3.5 1 2 1.5 4.4 3.9 5.4 5.3zm108.5-6.4c-.4.8-1 1.2-1.5.9-1.4-.8-1-2.4.6-2.4.9 0 1.2.6.9 1.5zm11.6 1.9c0 .8-.3 1.7-.7 1.9-1 .6-.8 14.5.2 25 .5 5.1.3 11.9-.5 19.2-1.3 11-1.3 11.4.8 14 2.7 3.4 2.8 8.7.5 16.7l-1.7 5.8-5.1.1c-14.5.2-18.6-.1-31-2.6-2.7-.6-4.2-4.3-6-15-1.9-11-2.1-11.5-4-11.5-2.4 0-2.9 2.7-1.1 5.5 1 1.5 1.2 2.6.6 3-.7.4-.8 3.6-.4 8.7.6 6.8.5 8-.7 7.5-7.1-2.9-7.5-3.6-10.4-16.2-.8-3.9-2.5-9.9-3.6-13.4-2-6-3-15.4-1.7-16.7 1.1-1 8.1-2.4 12.6-2.4 2.4 0 6.7-1.1 9.5-2.4 7.9-3.6 11.5-4.6 16.9-4.6 5.3 0 11.7-3.3 14.1-7.2.8-1.3 3.3-5.6 5.7-9.6 4.1-6.9 6-8.8 6-5.8zm-100 9.7c0 1.1-.4 1.7-1 1.4-.5-.3-1-1.3-1-2.1s.5-1.4 1-1.4c.6 0 1 .9 1 2.1zm31 8.9c-2 1.3-11 1.3-11 0 0-.6 2.7-1 6.3-1 4.4 0 5.8.3 4.7 1zm-24.2 53.3c.5 2.4-1.5 2.1-2.8-.4-1-1.8-.9-2 .7-1.7 1 .2 1.9 1.1 2.1 2.1zm16.7 5.6c1 1.7 13.6 5.3 19.8 5.7 4.9.3 6.5.8 8.3 2.7 1.2 1.4 3.9 2.8 5.8 3.1 4.5.9 14.6 7 12.3 7.4-.9.2-5.4-1-10-2.7-4.6-1.7-8.7-3.1-9.2-3.1-1.3 0-13.6-4.9-17.5-7-1.9-1-6.1-2.6-9.2-3.5-3.2-.9-5.8-2.1-5.8-2.6 0-1.2 4.7-1.2 5.5 0zm-11 4.1c.3.5 1.5 1 2.6 1s5.7 1.8 10.4 4 9 4 9.7 4c1.6.1 24.5 8.1 32 11.2 3.1 1.4 7.2 3.7 9 5.2l3.3 2.7-4.2-.6c-4.6-.6-12.7-3-15.5-4.5-5.2-2.9-11.2-4.2-20.8-4.6-10.4-.3-22.2-1.8-27-3.4-3.5-1.2-9.8-2.6-12.7-2.9-2.1-.2-1.6-4.1.5-4.1 2.6 0 4.2-2 4.2-5.3 0-1.6.4-2.6 1-2.2.5.3 1.8.1 2.7-.4 2.3-1.3 4-1.4 4.8-.1zm69.2 5.5c13.8 1 18.6 3.9 14.9 8.8-.8 1-1.2 2.6-.9 3.7.3 1.2-.2 2-1.7 2.5-1.7.5-3 0-5.4-2.3-1.7-1.7-7.5-5.2-12.8-7.7-10.7-5.1-12.5-6.5-7.5-6 1.8.2 7.8.6 13.4 1zm-91.1 18.2c-2 3.7-5.4 11.3-7.7 16.8-2.2 5.5-6.1 14.3-8.6 19.5-2.5 5.2-6.3 15.1-8.4 22-2.2 6.9-5.8 17-8 22.5s-5 12.6-6.1 15.7c-1.2 3.2-2.4 5.8-2.8 5.8-1 0-5-4-5-5.1 0-.5 1.7-4.4 3.9-8.7 2.1-4.2 8.4-19 14-32.7 12.5-30.7 14.7-35.8 17.9-41.5 4.8-8.6 13.5-22 13.9-21.6.3.2-1.1 3.5-3.1 7.3zm30.7.8c-.3 3.9-6.3 34.8-8.7 44.8-4.4 18.7-6.5 29-9.6 47.2-1.7 9.9-4.2 22.3-5.7 27.5-1.4 5.2-2.8 10.6-3 12-.4 2.4-.9 2.6-6.4 2.8-4.7.2-6.6-.2-8.9-1.8-1.5-1.1-4-2-5.3-2-3.4 0-4.1-1.3-3.9-7.7.2-6 2.2-13.7 11.9-44.3 3.2-10.3 9.2-25.8 9.3-24.1 0 .8-.5 4.1-1.2 7.3-.9 4.4-.9 6.1 0 7 1.9 1.9 4.2-.9 4.2-5.1 0-4.5 4.6-20.7 9.4-32.8 2-5.1 3.6-9.6 3.6-10 0-.3 2.6-5.8 5.7-12 4-8.1 6.1-11.3 7.2-11.1.9.2 1.5 1.2 1.4 2.3zm25 6c-.1 4.8.4 7.8 1.5 9.7 1.3 2.3 1.4 3.6.4 9.5-.6 3.7-1.6 10.2-2.1 14.3-.5 4.1-2 13.1-3.4 20s-3.1 16.1-3.7 20.5l-1.1 8 2.7 2.3c3 2.6 3 1.7-1.1 19.7-1.4 6-3.1 13.8-3.7 17.2-1 5.1-1.5 6.2-3 6-1.4-.1-2.4 1.2-4.1 5.3-1.8 4.4-2.7 5.6-4.7 5.8-1.4.1-4.5.8-6.9 1.4-4.3 1.1-4.3 1.1-7.6-2.8-3.1-3.6-3.4-3.8-6-2.6-1.5.7-3 1.1-3.2.8-1.3-1.2-2.2-9.8-1.3-12.1 1.5-3.9 5.7-23.7 8.5-40 2-11.8 12-56.5 14.1-63.4.2-.7 1.1-1.1 1.8-.8 2.1.8 3.3-1.1 4-6.8 1-7.3 3.6-15.7 5.4-17.8 1.3-1.4 2.8-1.7 7.6-1.5l6 .3-.1 7zm14.5-2.1c4.2 1.4 8.8 2.7 10.2 3 2.3.5 2.5.9 2.7 7.3.1 3.7.3 8.4.4 10.3.2 1.9.1 6.2 0 9.5-.2 3.3-.3 21.1-.2 39.5.1 43.8-.6 65.9-2.5 76.5-.5 2.9-.7 3.1-5.2 2.9-3.5-.2-4.7-.6-5.3-2.2-.9-2.5 1.6-48.3 3.2-58.5 1-6.3 1-8 0-8.6-1.4-.9-1-5.7 1.6-17.9 1.2-5.7 1.3-7.6.4-8.5-2-1.9-3.7 1.6-4.5 8.8-.9 9.1-1.7 12.5-2.8 12.5-.5 0-.7-.8-.4-1.8.3-.9.8-10.9 1.1-22.2.3-11.3 1-21.9 1.4-23.5.5-1.7 1.2-5.7 1.6-8.9.4-3.3 1.1-6.9 1.6-8 1-2.4.2 14.5-1.1 23.4-.8 5.3-.6 10.8.4 11.8.3.2 1.1.2 1.9-.1 1-.4 1.6-3.3 2.1-9.9.3-5.1 1-13.1 1.5-17.8.9-9.4.6-11.2-1.8-10.8-.9.1-2.2-.1-2.9-.6-2.8-1.7-4.4 2.1-6.3 14.6-1 6.7-2.1 19-2.4 27.3-1.1 33.7-2.6 61.5-3.6 69-1.8 13.2-5 29.9-6 31.1-1.6 1.9-5.9 2.3-7.5.7-.8-.8-1.4-2.6-1.4-4 0-6.1 3.3-27.6 5.4-35.3 2.2-8 3.3-13.7 7.2-40 .8-5.8 1.9-12.7 2.3-15.4.8-4.3.6-4.9-1-5.3-1.2-.3-1.9-1.4-1.9-2.9 0-1.9.5-2.3 2.3-2.1 2 .2 2.2-.3 2.4-4.3.2-2.5.7-7 1.3-10 .5-3 1.2-9.1 1.5-13.5.4-4.4 1.1-8.7 1.6-9.7 1.7-3.1 1.1-5.1-1.3-4.5-2.2.6-5.8-1.6-5.8-3.5 0-1.2 1.4-1 9.8 1.6zm38.2.1c0 1.4-.4 2.5-1 2.5-.5 0-1-.4-1-.9s-.3-1.6-.6-2.5c-.4-1.1-.1-1.6 1-1.6 1 0 1.6.9 1.6 2.5zm-13.7 6c2 .8 6.1 3.4 9.3 5.7 5.2 3.9 5.5 4.3 3.3 4.8-2.3.6-2.4.9-2 8 .1 4.1.5 7.9.8 8.3.2.4.3 6.7.2 14-.5 24 .3 78.1 1.1 82.7.6 3.1.5 4.7-.3 5.2-1.9 1.2-4.4.9-4.9-.5-.2-.6-.2-17.4.1-37.2.5-46.3.2-82.8-.7-83.7-.4-.4-1.4-.3-2.1.2-1.1.6-1.4 2.9-1.1 10.2.2 5.1.3 17.4.3 27.3-.1 9.9-.2 32.1-.2 49.3-.1 31-.6 36.7-3.6 40.6-1.3 1.7-2 1.8-5.2 1-2.5-.7-3.7-1.5-3.5-2.4.5-1.8 1.3-69 1.2-93 0-9.6.5-21.5 1.2-26.3 1.1-8.1 1.1-9-.5-9.8-1.7-1-2.3-4-1-5.2 1-1.1 3.8-.8 7.6.8zm13.2 1.5c.3.6-.1.7-.9.4-1.8-.7-2.1-1.4-.7-1.4.6 0 1.3.4 1.6 1zm6.9 40c.4 7.4.3 10.8-.3 9.5-.9-1.9-1.5-22.3-.7-21.4.3.2.7 5.6 1 11.9zM185 445.7c-1.1 1.7-1.1 1.7-.6 0 .3-1 .6-2.4.7-3 0-.9.2-.9.5 0 .3.7 0 2-.6 3zm108.7 26c-.2 2.1-.4.6-.4-3.2 0-3.9.2-5.5.4-3.8.2 1.8.2 5 0 7zm-57.5 5.5c-.7.7-1.2.8-1.2.2 0-1.4 1.2-2.6 1.9-1.9.2.3-.1 1.1-.7 1.7zm14.5 3c-.3.8-.6.5-.6-.6-.1-1.1.2-1.7.5-1.3.3.3.4 1.2.1 1.9zM296 508c.6 9.6 1.6 19.2 2.1 21.3 1.2 4.6.4 7.9-1.9 7.5-1.3-.3-1.8-2-2.4-7.7-1-12-1.8-48.7-1-49.5.9-1 1.6 5.9 3.2 28.4zm-105.6 36c1.2.4 3.4.6 4.8.3 1.8-.4 3.4.2 5 1.6 3.2 3 6.7 3.7 9.7 1.9 1.6-.8 4.7-1.3 7.9-1.2 3.4.2 5.2-.1 5.3-.9 0-.7.5.4 1.1 2.3 1.2 4.2 4.5 8 7 8 2.4 0 2.3 1.5-.6 7.7-1.4 2.9-3.6 9.4-5 14.6-4 14.6-5.3 17.6-9.9 23.1-5.9 7-10 13.3-12.1 18.5-1.5 3.9-1.5 4.6-.2 5.9 1.2 1.3 1.2 2 0 5.4-1.8 5.3-7.6 14.7-10.8 17.7-1.4 1.4-2.6 3-2.6 3.7 0 1.9-3.7 3.7-4.5 2.3-.4-.6-1.9-.7-3.8-.3-1.8.5-6.1.8-9.6.9-6.5 0-9.3 1.7-5.2 3 1.2.3 2.1 1.3 2.1 2 0 .8 1 1.9 2.1 2.6 1.7.9 3.6.6 9.3-1.1 3.9-1.2 7.5-2.6 8-3.1.6-.5 2.5-.9 4.4-.9h3.5l-5.9 5.5c-4.6 4.3-5.6 5.7-4.6 6.7.9.9 1.8.6 4-1.5 1.5-1.5 3.3-2.7 3.9-2.7.6 0 1.6-.7 2.3-1.5 2.8-3.4 1.8-.4-1.6 4.6-3.8 5.7-10.3 9.9-15.3 9.9-1.5 0-3.2.5-3.8 1.1-.8.8-2.4.6-5.7-.5-2.6-.9-5.3-1.6-6-1.6-.7 0-1.2-1-1.2-2.2.1-1.5-.8-2.7-2.6-3.6-3-1.4-4-3.9-1-2.7 4 1.7 6.2 1.8 6.2.1 0-.9-.9-2.1-1.9-2.8-1.8-1.1-1.8-1.3-.3-2.5 1.6-1.2 1.5-1.5-1-3.6-1.6-1.2-2.8-2.7-2.8-3.1 0-.5.7-.3 1.5.4 2.7 2.2 3.5 0 2.5-7.1-.6-4.1-.6-8.8 0-12.5 1-6.1 6.8-18.7 12-25.9 7.9-10.9 9-16.4 8.9-43.5-.1-17.1.4-32.9 1.1-35 .1-.3.9 1.7 1.7 4.3 1 3.2 2.2 5.1 3.7 5.7zm54.1 2.6c-.3 1.9-1 3.4-1.5 3.4-1.2 0-1.2.2.2-6.2.9-3.8 1.3-4.6 1.6-2.9.2 1.3.1 3.9-.3 5.7zm37.5 1.7c-.4 1.7-1.1 11.4-1.4 21.4-.5 15.9-.9 18.8-2.9 24-3.9 9.4-4.6 12.1-7.7 26.3-1.6 7.4-3.8 16.6-4.9 20.4-1.1 3.7-2.1 8.6-2.3 10.8l-.2 4.1-11-.7c-11.5-.8-15.2-1.8-20-5.8-2.5-2.1-3.1-3.6-4.2-10.8-1.7-10.4-.7-14.7 5.3-24.8 6.8-11.2 10.1-22.7 6.4-22.7-1.4 0-3.6-5.5-4.6-11.7-.4-2.1-1.1-4-1.6-4.4-1.4-.9-1.1-3.5 1.4-9.4 3.5-8.5 4.6-10 7.1-10 2.2 0 4.4-1.6 7.1-5.5 1.4-2 1.4-2 1.5.1 0 3.2 1.9 4.1 8.9 4.2 6.8.2 9.1-.8 9.1-3.9 0-1.6.8-1.9 4.3-1.9 2.6 0 5.2-.8 6.7-1.9 3.2-2.5 4-1.9 3 2.2zm-48.4 38.2c3.7 9.9 3.3 12.7-4.1 27-5 9.8-6.5 13.7-6.5 16.9 0 3-.6 4.8-2 6.1-3 2.7-4.1 7.4-3.7 16.8.3 5.9.9 9.4 2.1 11.2 1 1.4 1.6 3.6 1.4 4.8-.3 2.1-.8 2.2-12 2.5-10.8.2-13.9-.4-10.9-2.2 2.8-1.8 9.7-27.8 8.5-32.2-.3-1.1-.1-3.7.5-5.9.5-2.2 1.4-5.7 1.9-7.7s1.9-5 3.1-6.6c1.1-1.7 2.1-4.3 2.1-5.8s.9-3.7 1.9-4.8c3-3.2 8.7-14.5 10.7-20.9 2.3-7.4 4.1-7.2 7 .8zM69 597.3c0 .8-.3 1.7-.6 2-1 .9-4.6-1.2-3.9-2.4.9-1.4 4.5-1.1 4.5.4zm-5.9 5.8c1.6-.9 2.4-.9 3.5 0s1.9.8 3.5-.7c2-1.8 2.1-1.8 3.5 0 .8 1.2 3.1 2.2 5.6 2.5 4.8.7 5.9 2.7 3.7 6.7-1.1 2.1-.9 2.6 1.5 4.5 5.7 4.5 8.5 8.9 5.6 8.9-1.3 0-1.3 3.3 0 4.6.9.9 0 5.1-2 9.4-1.7 3.7-11.7 5.1-10.3 1.4.7-1.8-2.5-12.4-3.7-12.4-.5 0-.6-3-.3-6.8l.5-6.7-4-4.5c-3.6-4-4.4-4.5-8.3-4.5-3.9 0-4.4-.3-4.8-2.5l-.3-2.5 2.2 2c1.8 1.6 2.4 1.7 4.1.6zm-35.3 2.6c-.2.9 1.3 2.5 3.6 3.8 2.2 1.2 4.3 3.2 4.7 4.4 1.1 2.8 3.3 2.7 5.3-.4 1.5-2.3 1.5-2.6.1-3.1-2.8-1.1-1.7-3.2 1.7-3 2.5.1 3.5-.4 4.3-2.2.5-1.2 1.8-2.2 2.7-2.2 2.4 0 2.3.8-.8 3.7-2.1 1.9-2.4 2.6-1.4 3.8.9 1 1.6 1.2 2.4.5 1.8-1.4 14.4-1 15.7.6.7.9.5 1.4-1 1.9-1.2.3-2.1 1.5-2.1 2.6 0 1.2-.7 1.9-1.9 1.9-2.4 0-4.5 2.5-3.7 4.5.7 1.9 3.5 1.9 4.2 0 .4-.8 1.5-1.5 2.5-1.5s2.5-1.2 3.3-2.8l1.5-2.7.1 3.3c0 1.9-.8 4.7-1.7 6.3-1.6 2.8-1.6 2.9.7 5.4 2.5 2.7 2.1 3.9-1.3 4-1.7 0-2.2.6-2.2 2.5 0 2 .5 2.5 2.3 2.3 2.5-.3 2.9 1.4.9 4.1-1.8 2.5-9.6 3-11.9.9-1.1-1-2.8-1.4-4.5-1-2.1.4-3.9-.3-7.5-3-2.7-1.9-4.8-4.3-4.8-5.3 0-.9-.6-2.3-1.4-2.9-1.1-.9-1.2-1.8-.3-4 1.5-4.1.4-6.1-3.6-6.1-4.5 0-5.1-.9-2.6-3.6 2.2-2.3 1.9-4.4-.6-4.4-1.7 0-5.5-7.8-4.8-9.7.7-1.7 2.4-.6 2.1 1.4zm72.3 1.5c1.3 1.8 2.8 3.7 3.4 4.1.6.5.2 1.4-1.2 2.4-1.3.8-2.3 2.1-2.3 2.9 0 2.2 2 2.7 4 .9 1.7-1.6 1.9-1.5 2.9.3.6 1.2 2.1 2.2 3.3 2.4 2.7.4 8.2 8.7 7.2 11.1-.3.9-1.5 1.5-2.7 1.4-2-.2-2.2.3-2.2 6 0 3.6-.5 6.7-1.2 7.4-.7.7-1.3 2.5-1.3 4 0 3.4-1.3 4.3-3.8 2.8-1.5-.9-2.7-.9-5.2 0-1.8.6-3.4 1-3.6.9-.9-1-.5-7.7.5-9.7.8-1.5.9-2.7.3-3.3-1.5-1.5-5.2.9-5.2 3.2 0 1.3-.7 2-2 2-2.4 0-2.6-1.3-.4-3.1 2.9-2.4 5.4-9.8 5.4-15.8 0-5.1-.4-6.1-3.5-9.5-2.8-3.1-3.4-4.4-2.9-6.5.8-3.3 2.3-5.1 4.9-6.1 3-1.3 3.2-1.2 5.6 2.2zm26.6 4.4c2.8 1.7 3.7 4.8 2.3 7.4-1.2 2.3.1 5 2.5 5 .7 0 1.8.7 2.5 1.5 1 1.2 1 1.8 0 3-.8 1-1 3-.6 6 .7 4.1.5 4.6-1.8 5.6-2.1 1-2.5 1.8-2.3 5 .1 3.4.4 3.9 2.4 3.9 1.3 0 2.6-.7 2.9-1.5.8-2.1 2.1-1.9 2.9.5.6 2-2.5 10.2-4.3 11.4-1.8 1.1-8.2-2.3-8.2-4.4 0-1.3-.7-2-2-2-1.4 0-2.2-1.1-3-4.3-.6-2.3-1.5-5.4-2-6.9-.7-2.1-.5-2.9 1.2-4 3-2 3.9-8.8 1.8-13.6-1.6-3.5-6.3-8.4-9.2-9.5-.9-.3-.5-1.1 1.2-2.3 4.6-3.5 9-3.7 13.7-.8zM25 613.7c0 .5-.7 1.6-1.5 2.7-1 1.3-1.1 2.4-.5 3.7 1.4 2.6 1.3 2.9-1.7 2.9-2.1 0-2.4-.3-1.5-1.2.7-.7 1.2-2.9 1.2-5 0-3.1.4-3.8 2-3.8 1.1 0 2 .3 2 .7zm-7 17.1c0 1.8-3.6 4-7.2 4.4-3.2.3-3.5.2-2.7-1.4.5-1 2.2-2 3.7-2.4 1.5-.3 3.2-.7 3.7-.9 1.8-.6 2.5-.5 2.5.3zm12 2.1c.5 1.1 1 2.9 1 4 0 1.2 1.1 2.6 2.8 3.5 4.3 2.2 5.7 4.3 4.2 6.1-1.5 1.8-3 1.1-3-1.6 0-2.1.1-2.1-5.4-2.4-2.9-.2-4.6-1-6.3-2.9-1.3-1.5-2-3.2-1.6-3.8.4-.7.9-.3 1.4 1 .9 2.3 3.3 2.9 4.4 1.2.4-.6.2-1.7-.4-2.4-1.2-1.4-.5-4.6 1-4.6.4 0 1.3.9 1.9 1.9zm-11.4 9.3c.4.5-.7.8-2.4.8-4 0-4.3 2.4-.4 4.4l2.7 1.5-2.7.1c-1.7 0-3.5-1-5.2-3.1-1.4-1.7-2.6-3.4-2.6-3.8 0-.9 9.6-.8 10.6.1zm65.8 6.3c-1.6 2.5-4.2 3.6-2.8 1.2 1.4-2.3 2.7-3.7 3.5-3.7.5 0 .2 1.1-.7 2.5zm-55.9 3.3c-2.6.6-4.5-.6-4.5-2.8 0-2 0-2 3.1.2 2.4 1.8 2.7 2.4 1.4 2.6zm10.5-1.2c0 .8-.5 1.2-1 .9-.6-.4-.8-1.1-.5-1.6.9-1.4 1.5-1.1 1.5.7zm193.7 4.4c3.4 2 15.7 4 25 4 4 0 5.3-.4 5.3-1.5 0-.9.9-1.5 2.1-1.5 3.8 0 1.8 3.4-2.4 4.1-4.4.7-5.2 1.3-4.3 3.4.4 1.2 1 1.4 2.5.5 2.8-1.4 5.1-1.3 5.1.4 0 .9-1.5 1.7-4 2.1-4.6.8-5.4 2.5-1.1 2.5 2.7 0 2.8.1 1.8 2.4-1.1 2.2-1.8 2.5-6.2 2.3-4.3-.2-5 0-4.8 1.7.1 1.6-.4 1.7-3.9 1.2-6.4-1-13.8-5.1-20.3-11-5.9-5.5-7.4-8.9-1.7-4.1 3.4 2.9 5 3.1 5.9.9.4-1-.8-3-3.3-5.5-3.7-3.8-3.7-3.9-1.4-3.9 1.4 0 3.9.9 5.7 2zM45 656.7c.2.2.4 2.7.5 5.6 0 5.1 0 5.2-3 5.2-2.9 0-3-.2-3.5-5.3-.3-2.9-.1-5.7.4-6.2.9-.9 4.3-.5 5.6.7zm31.8 0c3.4 2.9 3 10.4-.6 11.8-2.5 1-4.2-2.2-4.2-8.2 0-5.8 1.2-6.7 4.8-3.6zm20.7 8.6c.3 5.7.2 5.8-2.4 5.5-2.3-.3-2.6-.8-2.9-4.7-.4-5.7.3-7.3 3-6.9 1.9.3 2.2 1 2.3 6.1zm12.7 1.4c-.2 2.4-.8 4-1.3 3.7-1-.6-1.2-7.7-.2-8.8 1.3-1.3 2 1 1.5 5.1zm232.4-1.1c-2.2.8-4.1 1.2-4.4.9-.7-.6 3.9-2.4 6.3-2.4 1.1 0 .3.7-1.9 1.5zm-17.6 6.5l-6.4 3-23.6.4c-13.6.3-22.9.1-22-.4 1.7-1 10.9-1.8 34.5-3.1 8.8-.4 17.4-1.3 19-1.8 5.7-1.9 5-1.1-1.5 1.9zm-273.5.8c2.6.1 2.8.3 1.2 1.2-2 1.2-11.2.4-13.7-1.1-1.3-.8.3-.8 12.5-.1zm8 2.1c-.3.5-1.3.6-2.1.3-1.2-.4-1.3-.8-.3-1.4 1.5-.9 3.2-.2 2.4 1.1zm21.9.7c1.5 1.2 3.6 2.5 4.7 2.8 2.6.9 1.3 2.7-1.4 2-8.7-2.3-9.7-2.8-9.7-5.2 0-2.8 2.4-2.7 6.4.4zm67.4.4c-.2.6-.7 1-1.1 1-.4-.1-2.6-.2-4.9-.2l-4.3-.2 4-.7c6.1-1.1 6.7-1.1 6.3.1zm198.2-.2c0 .9-8.4 3.1-11.7 3.1-2.9 0-.5-1.2 4.9-2.6 6.7-1.6 6.8-1.6 6.8-.5zm-125 3.5c0 3.7-1.4 4.8-4.5 3.5-1.8-.7-1.8-.8-.2-.8 1-.1 1.7-.7 1.5-1.4-.7-2-22-2.2-25.7-.2-4.4 2.2-6 1.8-2.8-.9 2.6-2.1 3.9-2.3 15.5-2.5 6.9-.1 12.8-.4 13.1-.6 1.5-1.6 3.1-.1 3.1 2.9zm14.7-.4c2.1.1 6.5.7 9.8 1.5 3.3.8 7.7 1.2 9.8.8 3.2-.5 3.7-.3 3.7 1.4 0 1.1-.6 3.8-1.4 5.9-.7 2.2-1.6 7.5-2 11.9-.4 4.4-1.2 10-1.7 12.4-1.1 5.1-2.2 14-2.3 18.8 0 2.3.8 4 3 6 4.3 4.1 14.4 9.8 20.9 11.8 3.2 1 7.1 2.8 8.9 4 1.7 1.1 5.2 3 7.9 4 2.6 1.1 6 3 7.5 4.2 2.7 2.3 2.7 2.3.7 3.9-1.4 1-3.2 1.4-5.8 1.1-4.8-.7-5.4-1.3-3.9-3.7.9-1.5.9-2 .1-2-.7 0-1.7-.8-2.4-1.7-1.1-1.4-1.6-1.5-4.4-.3-1.7.7-4.2 2.6-5.4 4.2-1.6 2-2.9 2.7-4 2.2-2.2-.8-2.2-2.1.1-2.9.9-.3 3.1-1.7 4.7-3.1l3-2.6-3.5.7c-9.4 1.9-14.3 1.5-13.3-1.1.3-.9-.2-1.4-1.5-1.4-2.5 0-3.9 1.9-2.2 3 2.2 1.3.7 4.4-2.2 4.7-1.5.1-3-.2-3.3-.7-.9-1.5 2.4-7.7 4.5-8.3 2.3-.6 2.8-2.7.6-2.7-.9 0-1.2-.7-.9-2 .7-2.6-1.1-2.6-4.8.1-2.8 2-3.9 4.9-1.9 4.9.5 0 .2 1.6-.7 3.5-1.7 3.6-5.2 5.1-3.8 1.7 1.3-3.4.9-3.7-4.8-4-5.5-.3-6-.1-9.1 3.1-1.8 1.9-4.5 4.1-6.1 4.9-2.8 1.5-3 1.4-6.3-1.8l-3.4-3.3 1.7-4.4c.9-2.4 1.5-5.2 1.3-6.3-.2-1.4.5-2 2.6-2.4 3.6-.6 5-3.3 1.5-2.9-1.3.2-2.5 0-2.6-.4-.7-2 0-2.7 2.7-2.7 3.4 0 3.4.1 2-3.4-.6-1.6-1.7-2.6-3-2.6-1.1 0-2-.5-2-1 0-.6 1.1-1 2.5-1 1.6 0 2.5-.6 2.5-1.5 0-.8-.9-1.5-2-1.5-2.4 0-2.7-2.8-.3-4.5 1.8-1.3 1-3.5-1.3-3.5-.8 0-1.4-.5-1.4-1 0-.6 1.1-1 2.4-1 3.3 0 4.2-4.5 1.2-6.6-2-1.5-1.9-1.5 2-.9 2.7.4 4.4.2 4.9-.5 1-1.7 0-2.3-4.8-2.9-4.7-.7-5.4-2.8-.7-2.3 3.4.4 5-1.9 3-4.3-1-1.3-.8-1.5 1.3-1.5 1.4 0 2.9-.5 3.2-1 .8-1.3-1.9-5.8-4.9-8.2-1.1-1-1.6-1.8-.9-1.8.6 0 1.5.4 1.8 1 1 1.5 5.5 1.2 6.1-.5.4-1 2-1.5 4.5-1.5 5.3 0 4.9-1.5-.8-2.9-5.6-1.4-16.2-6.2-16.3-7.4 0-.4 1.3-.1 3 .8 1.6.8 4.6 1.5 6.7 1.5zm25.5-.8c-.9.9-1.5.9-2.4 0-.9-.9-.7-1.2 1.2-1.2s2.1.3 1.2 1.2zm-251.4 2.1c.3 1.2-.3 1.7-2.2 1.7-2.9 0-4.4-1.9-2.5-3.1 2-1.3 4.3-.6 4.7 1.4zm435.7-.3c.6.1-1.5.8-4.5 1.6s-5.9 1.9-6.4 2.4c-.6.6-2.6 1-4.5 1s-6.1.7-9.3 1.6c-4.7 1.4-5.6 1.9-4.7 3 .9 1.1.7 1.4-1 1.4-1.2 0-2-.4-1.7-.9.8-1.2-1.7-2.1-5.7-2.1l-3.2-.1 3.5-1.9c2.3-1.3 5.5-1.9 9.5-2 3.6 0 8.7-.9 12.7-2.4 5.7-2 9.3-2.3 15.3-1.6zm-345.9 3.1c1.3 1.3 2.4 2.7 2.4 3.3 0 .5-.9 0-2-1.2s-3.8-2.6-6-3.2c-5-1.3-5.2-2.5-.4-1.7 2 .4 4.7 1.6 6 2.8zM138 681c0 .5-1.3 1-3 1-1.6 0-3-.5-3-1 0-.6 1.4-1 3-1 1.7 0 3 .4 3 1zm-9.5 4.6c1.9.7 1.9.8-.4 1.2-1.2.2-3.4.1-4.8-.3-2-.5-2.3-.9-1.3-2 .8-.9 1.7-1.1 2.8-.5 1 .5 2.6 1.2 3.7 1.6zm17.7 3.5c-.6 5.2-1.9 6.2-7.2 5.5-2.5-.4-7.6-.8-11.5-.9-4.3-.2-8.2-.9-10.2-2-4.7-2.5-4.9-3.6-.5-2.6 6.5 1.6 18.2 2.1 18.2.8 0-.8.7-.6 1.8.4 2.4 2.2 7.2 2.3 7.2.2 0-.8-.7-1.5-1.5-1.5-1.5 0-2.1-2.1-.9-3.3.4-.4 1.6-.5 2.8-.3 1.7.3 2 .9 1.8 3.7zm67.3-3.4c6.1.6 6.5.8 3.4 1.3-2 .4-6.7.3-10.5-.1s-9.5-.5-12.6-.2c-4 .4-5.8.2-5.8-.6 0-1.3 14.2-1.5 25.5-.4zm67.5.3c0 .5-.7 1-1.5 1s-1.5-.5-1.5-1c0-.6.7-1 1.5-1s1.5.4 1.5 1zm-51 1.6c0 .2-.7.4-1.5.4s-1.5-.4-1.5-1c0-.5.7-.7 1.5-.4.8.4 1.5.8 1.5 1zm114.4 4.3c-.9 1-15.4 1.1-15.4.1 0-.5 2.1-1.2 4.8-1.5 2.6-.4 5.2-.8 5.7-.9 1.4-.4 5.6 1.6 4.9 2.3zm-123.9.6c0 1.5-.6 1.9-2.4 1.7-2.7-.3-5.1-1.9-5.1-3.4 0-.5 1.7-.8 3.8-.6 2.9.3 3.7.8 3.7 2.3zm63.7-1.2c.6.9.8.9.8-.1 0-.8 1.7-1.2 4.9-1.2 4.1 0 5.1.4 5.6 2 1 3.2 3.9 4.1 14.2 4.2 11.5.2 15.6 1.7 12.7 4.9-.9 1-3.6 2.1-5.9 2.5-5.2.7-7.4-.2-4.8-2.1 2.5-1.9.8-3.1-2.1-1.5-2 1-3.6 1-8.8 0-3.4-.7-7.4-1.4-8.8-1.5-1.4-.2-2.5-.4-2.5-.5 0-.3-5.8-.7-10.2-.9-2.6-.1-3.1-.4-2.6-1.9.6-1.5.3-1.4-1.7.3l-2.3 2 .7-2.8c.4-1.9.3-2.6-.4-2.2-.5.3-1 1.2-1 2 0 1.7-1.8 2.3-5.5 1.6-2.3-.5-3.1-1.2-3.3-3.1l-.3-2.5 10.3-.2c7.2-.2 10.4.1 11 1zm-54.2 2.8c0 .5-.7.9-1.5.9-.9 0-1.5-.9-1.5-2.1 0-1.8.2-1.9 1.5-.9.8.7 1.5 1.6 1.5 2.1zm178-2.1c0 .5-1.7.9-3.7.9-3.8-.1-3.8-.1-.8-.9 4.3-1.1 4.5-1.1 4.5 0zm-75.8 8.2c1.4 2.1 1.8 2.1 10.1 1.2 6.7-.7 8.7-.7 8.7.3 0 .6-.8 1.2-1.7 1.2-16.6.3-19.8 0-21.5-1.9-1.8-1.9-1.6-2.2 2.3-2.9.4 0 1.3.9 2.1 2.1zm22.8 2c0 1.2-.3 1.8-.7 1.4-1.1-1-1.2-3.6-.2-3.6.5 0 .9 1 .9 2.2zm93 25.3c0 .8-.4 1.5-.9 1.5-1.3 0-2.2-1.6-1.4-2.4 1.1-1.1 2.3-.6 2.3.9zm3.6 3.2c-1 1-1.9-.5-1-1.8.6-1.1.8-1.1 1.2 0 .2.7.1 1.5-.2 1.8zm-31.6-.1c0 1.7-2.2 1.4-2.8-.4-.2-.7.3-1.2 1.2-1.2.9 0 1.6.7 1.6 1.6zm51.9 2.3c-1.4.4-3-1.9-2.2-3.3.3-.5 1.2-.1 2 1 1 1.3 1 2 .2 2.3zm-14.9-1.4c1 1.2 1 1.5-.4 1.5-.9 0-1.6-.7-1.6-1.5s.2-1.5.4-1.5.9.7 1.6 1.5zm-32.9.8c-.1 1.2-1.5.9-1.9-.4-.3-.6.1-1 .8-.8.6.3 1.1.8 1.1 1.2zm4.9 2.3c0 .8-.4 1.4-1 1.4-.5 0-1-.9-1-2.1 0-1.1.5-1.7 1-1.4.6.3 1 1.3 1 2.1zm33 .5c0 .6-.4.7-1 .4-.5-.3-1-1.1-1-1.6 0-.6.5-.7 1-.4.6.3 1 1.1 1 1.6zm14-1.1c0 .5-.2 1-.4 1-.3 0-.8-.5-1.1-1-.3-.6-.1-1 .4-1 .6 0 1.1.4 1.1 1zm-62 1c0 .5-.2 1-.4 1-.3 0-.8-.5-1.1-1-.3-.6-.1-1 .4-1 .6 0 1.1.4 1.1 1zm19.8 1.3c.2 1-.3 1.7-1.2 1.7-1 0-1.6-.9-1.6-2.1 0-2.4 2.3-2.1 2.8.4zm-28.8.8c0 .6-.4.7-1 .4-.5-.3-1-1.1-1-1.6 0-.6.5-.7 1-.4.6.3 1 1.1 1 1.6zm33.3 1.5c-.3.8-.9 1.4-1.3 1.4-1.4 0-2.2-2-1.6-3.7.5-1.2.9-1.3 2.1-.3.7.6 1.1 1.8.8 2.6zm14.2-2.6c.3.5-.1 1-.9 1-.9 0-1.6-.5-1.6-1 0-.6.4-1 .9-1 .6 0 1.3.4 1.6 1zm14.5 0c0 .5-.4 1-1 1-.5 0-1-.5-1-1 0-.6.5-1 1-1 .6 0 1 .4 1 1zm-376.2.7c-.1.5.3 1.8 1 3 1.1 1.9.9 2.9-.6 6l-1.9 3.6-.6-3.4c-.5-2.9-.4-5.6.2-9.2 0-.4.6-.7 1.1-.7.6 0 .9.3.8.7zm62.2 3.1c0 1.3-.3 1.2-2-.3-1.1-1-1.7-2.2-1.4-2.7.8-1.2 3.4 1.1 3.4 3zm238.5-2c0 1.8-2 1.5-2.3-.4-.3-1 .1-1.5 1-1.2.7.3 1.3 1 1.3 1.6zm17.5.7c0 .8-.4 1.5-1 1.5-.5 0-1-.7-1-1.5s.5-1.5 1-1.5c.6 0 1 .7 1 1.5zm33.3-.9c.8.8-.3 3.4-1.4 3.4-.5 0-.9-.9-.9-2 0-1.9 1.1-2.6 2.3-1.4zm14.7 1.5c0 .6-.4.7-1 .4-.5-.3-1-1.1-1-1.6 0-.6.5-.7 1-.4.6.3 1 1.1 1 1.6zm-314 .7c0 1.3-1.2 2.2-2.2 1.6-1-.6-.1-2.4 1.3-2.4.5 0 .9.4.9.8zm271.8 2.1c.3 1.6-.1 2.2-1 1.9-.7-.3-1.5-1.5-1.6-2.7-.3-1.6.1-2.2 1-1.9.7.3 1.5 1.5 1.6 2.7zm33.2.3c0 2.6-2.4 1.8-2.8-1-.3-1.6.1-2 1.2-1.6.9.3 1.6 1.5 1.6 2.6zm-19-.2c0 .5-.2 1-.4 1-.3 0-.8-.5-1.1-1-.3-.6-.1-1 .4-1 .6 0 1.1.4 1.1 1zm52.8.8c.3.9-.2 1.3-1.4 1-.9-.1-1.9-.9-2.2-1.6-.3-.9.2-1.3 1.4-1 .9.1 1.9.9 2.2 1.6zm-61.8 1.7c0 2.8-1.2 3.2-3 1-1.4-1.6-.6-3.5 1.6-3.5.8 0 1.4 1 1.4 2.5zm13.8-.1c.3 1.3-.1 1.7-1.4 1.4-1.1-.2-2-1.1-2.2-2.2-.3-1.3.1-1.7 1.4-1.4 1.1.2 2 1.1 2.2 2.2zm18.7-.4c0 .7-.6 1.5-1.2 1.7-.8.3-1.3-.4-1.3-1.7 0-1.3.5-2 1.3-1.8.6.3 1.2 1.1 1.2 1.8zm-303.5.4c0 1.8-1.6 2.9-3 2.1-1.3-.8-.1-3.5 1.6-3.5.8 0 1.4.6 1.4 1.4zm255.5-.4c.3.5.2 1-.4 1-.5 0-1.3-.5-1.6-1-.3-.6-.2-1 .4-1 .5 0 1.3.4 1.6 1zm82.5 1.1c0 .5-.7.9-1.5.9s-1.5-.7-1.5-1.5c0-.9.6-1.2 1.5-.9.8.4 1.5 1 1.5 1.5zm-63 1.5c0 1.6-1.6 1.9-2.5.4-.8-1.3.4-3.2 1.6-2.5.5.4.9 1.3.9 2.1zm13.5.2c0 3.1-1.9 2.8-2.3-.4-.3-1.8 0-2.5 1-2.2.7.3 1.3 1.4 1.3 2.6zm20-1.8c.3.5 1.5 1 2.6 1 1.4 0 1.9.7 1.9 3 0 3.3-1.9 4.1-2.7 1.1-.3-1.2-1.1-1.7-2.3-1.4-2.1.5-3.4-1.1-2.6-3.2.6-1.7 2.2-2 3.1-.5zm14.5 0c0 .5-.4 1-1 1-.5 0-1-.5-1-1 0-.6.5-1 1-1 .6 0 1 .4 1 1zm-29.7 1.6c.8.8-.3 3.4-1.4 3.4-.5 0-.9-.9-.9-2 0-1.9 1.1-2.6 2.3-1.4zm48.7 1.3c0 1.1.3 2.6.6 3.5.3.9.2 1.6-.4 1.6-1.2 0-3.3-5.6-2.5-6.4 1.2-1.2 2.3-.6 2.3 1.3zm-200.2 1.6c1.1 2.3 1 2.4-.8 1.3-1.1-.7-2-1.8-2-2.5 0-2.2 1.6-1.4 2.8 1.2zm190.2.1c0 1.6-1.6 1.9-2.5.4-.8-1.3.4-3.2 1.6-2.5.5.4.9 1.3.9 2.1zm-34.5-.6c.3.5.1 1-.4 1-.6 0-1.1-.5-1.1-1 0-.6.2-1 .4-1 .3 0 .8.4 1.1 1zm20.2.6c.8 2.1-1.3 4.2-2.8 2.7-1.3-1.3-.5-4.3 1.1-4.3.6 0 1.3.7 1.7 1.6zm-380.4 2.8c.7 1.6-.1 2.6-2 2.6-.7 0-1.3-.9-1.3-2 0-2.3 2.5-2.7 3.3-.6zm385.2-.4c.3.5-.1 1-1 1s-1.3-.5-1-1c.3-.6.8-1 1-1 .2 0 .7.4 1 1zM107 760.5c0 .7-.6 1.8-1.4 2.5-.8.6-1.6 2.1-1.8 3.2-.2 1.3-1.6 2.4-4 3.3l-3.8 1.3v-4.5c0-3.6.6-5 3-7.4 2.8-2.9 3-2.9 5.5-1.3 1.4.9 2.5 2.2 2.5 2.9zm135-.5c0 .5-.4 1-1 1-.5 0-1-.5-1-1 0-.6.5-1 1-1 .6 0 1 .4 1 1zm-227.5 2c-1 1.1-2.5 2-3.4 2-1.2 0-.9-.6.9-2 3.3-2.6 4.8-2.6 2.5 0zm255.6 3.1l-1 2.4v-2.6c-.1-1.4.2-2.9.6-3.3 1.2-1.2 1.4.9.4 3.5zm16.7-1.9c-.7 1.3-1.4 2.5-1.5 2.7-.1.1-.7 0-1.3-.4-.8-.5-.6-1.3.6-2.6 2.4-2.6 3.7-2.4 2.2.3zm36 1.1c.2 1-.3 1.7-1.1 1.7-1.8 0-3.9-2.4-3-3.4 1.2-1.2 3.8-.2 4.1 1.7zm-69 1.3c1.5.4 2.2 1.4 2.2 3 0 2.4 2.6 4.5 4.8 3.7.6-.3 1.2-1.4 1.2-2.6 0-1.1.3-1.8.6-1.5.3.4.6 1 .6 1.5 0 3.2 7 4.6 8.6 1.7.8-1.4 1.2-1.4 3-.3 3 1.9 2.8 2.9-.6 2.9-3.5 0-7.2 2.6-7.2 5.1 0 1.7-.3 1.8-2.1.7-1.8-1.2-2.3-1-4.5 1.7-1.3 1.6-2.4 2.8-2.5 2.5 0-.3-.1-1.7-.3-3.1-.2-3.5-3.3-7.9-5.4-7.9-1.4 0-1.8-.9-1.9-4-.2-4.2-.1-4.3 3.5-3.4zM5.5 767.9c.3.5.1 1.2-.5 1.6-.5.3-1-.1-1-.9 0-1.8.6-2.1 1.5-.7zm201.9 2.8c.9 2.2-.5 3.4-3.2 2.7-2.1-.6-2.9-2.4-1.5-3.7 1.2-1.3 4.1-.7 4.7 1zm80 .5c1.7 5.3 1.6 6.7-.5 7.3-3 1-8.7-4.8-6.9-7 1.5-1.8 6.9-2 7.4-.3zM83 774.1c.1 6.4-.2 8.9-1.1 9.4-1.5 1-2.3-2.6-1.1-4.6.7-1 1.2-3.3 1.2-5.1 0-1.7.2-2.9.5-2.6.3.2.5 1.5.5 2.9zm-74 .5c0 .3-.9 1.7-1.9 3-2.1 2.7-3.5 1.3-1.9-1.9.8-1.6 3.8-2.5 3.8-1.1zm61.5 1c1.5 1.5 1.4 1.8-.7 4.1-2.5 2.6-5.5 2.7-7.2.1-.8-1.3-.6-2.2.8-3.7 2.3-2.5 4.9-2.7 7.1-.5zm108.5 2.3c0 2-1.3 3.5-2.3 2.5-.7-.8.4-4.4 1.4-4.4.5 0 .9.9.9 1.9zm72.5.2c1.6 1.6-.9 4.4-4.2 4.7-1.8.2-3.5-.3-4.4-1.4-1.2-1.4-1-1.9 1-3.5 2.3-1.9 5.4-1.8 7.6.2zm-162.8 1.1c-.3.8-.6.5-.6-.6-.1-1.1.2-1.7.5-1.3.3.3.4 1.2.1 1.9zm189.5 3c-.9.9-1.2.4-1.1-2.3 0-3.2.1-3.3 1.1-1.1.8 1.7.8 2.6 0 3.4zM12 781.4c0 .3-.4.8-1 1.1-.5.3-1 .1-1-.4 0-.6.5-1.1 1-1.1.6 0 1 .2 1 .4zm280.4 1.1c.7 2-.3 4.5-1.9 4.5-1.8 0-4.8-3.7-4-4.9.9-1.6 5.2-1.3 5.9.4zM33 785.2c0 4.7-1.1 7.9-2.4 7.5-1.6-.5-1.9-4.5-.6-7.8 1.6-3.8 3-3.7 3 .3zm41.1 3.7c-.6 1.1-.8 2.7-.5 3.5.3.9.1 1.6-.5 1.6s-1.1-1.6-1.1-3.5c0-2.2-.6-3.8-1.7-4.4-1.6-.9-1.6-1-.2-1.1.9 0 2.3-.8 3-1.7 1.3-1.5 1.4-1.4 1.7 1 .2 1.4-.2 3.5-.7 4.6zm126.9 1.2c-.8 1.4-1.5 1.8-2.2 1.1-.7-.7-.4-2.4.8-5.3l1.9-4.2.3 3.1c.2 1.7-.2 4.1-.8 5.3zm-179.2-5.9c1.9 1.9 1.4 3-.8 1.8-1.1-.6-2-1.5-2-2 0-1.4 1.4-1.2 2.8.2zm172.3 1c1.1 2.1 1.1 2.2-.4.9-1-.7-1.7-1.7-1.7-2.2 0-1.5.9-1 2.1 1.3zm49.9 1.2c2.3.1 2.3.3.7 4.6-1.3 3.3-4.3 4.3-3.2 1.1.7-2.2-1.9-4.1-5.4-4.1-2.7 0-2.7-1.4.2-3.3 2-1.3 2.4-1.3 3.9 0 1 .9 2.7 1.6 3.8 1.7zm26.3-.9c3.4 3 2.8 4.5-2 4.5-2.2 0-4.5.8-5.7 1.9-2 1.8-11.8 3.6-13 2.4-.3-.3.1-1.4.8-2.5.8-1.1 1.2-2.7.9-3.8-.8-3 1.4-3.2 4.1-.3 2.2 2.4 2.9 2.6 4.4 1.5.9-.6 2.7-1.6 4-2.2 1.2-.5 2.2-1.6 2.2-2.5 0-2.1 1-1.8 4.3 1zm-57.5 1.1c2.1.6 3.2 3.4 1.3 3.4-2.3 0-6.2-2.1-5.6-3 .7-1.2 1.2-1.2 4.3-.4zm71.7 1.4c1 1.1 1.6 2 1.4 2.1-6.5.9-7.9.7-7.9-1 0-3.6 3.6-4.3 6.5-1.1zm-263.7 1.9c1.7.7 3.2 1.7 3.2 2.2 0 1.2-.6 1.1-3.1-.4-1.8-1-2.3-.9-4 1.5-2.4 3.2-3.9 3.6-3.9 1 0-2 2.9-6.5 3.8-5.9.4.2 2.2.9 4 1.6zm123.2 4.4c0 .5-.4.5-1 .2-.5-.3-1-1.4-1-2.3 0-1.5.2-1.5 1-.2.5.8 1 1.9 1 2.3zm-88.5.9c-.4 3.8-.5 3.9-1.5 3.3-1.1-.7-1.4-4.8-.4-5.8 1.2-1.1 2.1.2 1.9 2.5zm74.5.9c0 2-1.5 2.6-2.5.9-.9-1.5.3-4.3 1.5-3.5.5.3 1 1.5 1 2.6zm56-1.7c0 .8-.4 1.8-1 2.1-.5.3-1-.3-1-1.4 0-1.2.5-2.1 1-2.1.6 0 1 .6 1 1.4zm17 .6c0 .4-1.8 1.5-3.9 2.3-2.2.9-4.2 2.1-4.6 2.7-.9 1.5-2.2 1.2-2.9-.6-.9-2.4 1.2-4.4 4.5-4.4 1.5 0 3-.4 3.4-1 .6-1 3.5-.2 3.5 1zm6.4-1.1c.8 1.3-.3 1.9-2.4 1.4-1.1-.3-1.7-.9-1.4-1.4.7-1.1 3.1-1.2 3.8 0zm60.3 1.6c.3.9.3 1.8 0 2.1-.7.8-4.7-1.5-4.7-2.6 0-1.6 4-1.1 4.7.5zm-118.6 3.8c-.7.7-2 .6-3.8-.2-2.7-1.2-2.7-1.3-.9-2.7 1.7-1.2 2.2-1.2 3.8.3 1.2 1.1 1.5 2 .9 2.6zm-71.9 2.5c1.2 3.1.8 4.2-1.6 4.2-3 0-3.4-.6-4.1-6l-.5-4.2 2.7 2.2c1.6 1.2 3.1 2.9 3.5 3.8zM223 797c0 .5-.4 1-1 1-.5 0-1-.5-1-1 0-.6.5-1 1-1 .6 0 1 .4 1 1zm-133.2.8c1.6 1.1.1 5.7-2.3 6.5-2 .8-2.9-1.4-2.1-4.8.7-2.6 2.1-3.1 4.4-1.7zm82.2.7c1.7 2 .5 3.1-4.3 3.9-3.4.6-3.8.5-3.5-1.1.2-.9 1.4-2.3 2.8-3 3.2-1.6 3.5-1.6 5 .2zm113 .4c.6 1.3.6 2.2.1 2.6-.9.5-3.1-2.4-3.1-3.9 0-1.4 2-.4 3 1.3zm-266 2c0 3.6 1.3 4.6 3.9 3.1 1.4-.7 2.7-.7 4.5.2 3.5 1.5 3.3 2.6-.6 3-2.5.2-3.4.8-3.6 2.5-.3 2.3-1.7 2.8-4.6 1.7-1.3-.5-1.4-.9-.4-2.1 1-1.2.9-1.7-.3-2.7-2.2-1.6-3-4.5-1.9-6.7 1.6-2.8 3-2.3 3 1zm15-1.4c1.1 1.3.8 1.5-1.3 1.5-2.6 0-4.2-1.2-3-2.4 1.1-1.1 3-.7 4.3.9zm90 0c.9 1.1 1 1.9.3 2.6-.7.7-1.4.5-2.3-.6-.7-.8-1.9-1.5-2.6-1.5-.8 0-1.4-.5-1.4-1 0-1.6 4.6-1.2 6 .5zm19.4 1.7c1.4 1.9 1.4 2.3-.2 3.4-1.3 1-1.4 1.5-.5 2.5 1 1 1.6.9 3.1-.5 1.6-1.3 2.4-1.5 4.8-.6 2.2.9 3.1.8 3.9-.3.8-1.1 1.6-1.1 3.8-.2 2.7 1.1 6.1 5.8 4.9 6.9-.3.3-8 .6-17.2.5-15.8 0-16.6-.1-16.6-2 0-2.1 3.5-3.6 6.1-2.6 2.3.9 4.8-2.2 4.1-5.3-.8-4.4 1.3-5.4 3.8-1.8zm97.4-.5c-.2 1.2-1.2 1.8-2.8 1.8-1.6 0-2.6-.6-2.8-1.8-.3-1.3.3-1.7 2.8-1.7s3.1.4 2.8 1.7zM134 801c0 .5-.4 1-1 1-.5 0-1-.5-1-1 0-.6.5-1 1-1 .6 0 1 .4 1 1zm51 0c0 .5-.4 1-1 1-.5 0-1-.5-1-1 0-.6.5-1 1-1 .6 0 1 .4 1 1zm23.4.1c1.9.9 2.9.9 3.9.1s2.4-.8 5.2-.1c2.1.6 5.1.8 6.7.5 1.5-.3 2.8-.1 2.8.4 0 .6-1.5 1-3.4 1-4.1 0-6.8 2.6-4.6 4.4 1.4 1.1 4 5 4 6.1 0 .3-2 .5-4.3.5-3.6 0-4.6-.4-5.5-2.4-.6-1.3-.8-3.4-.5-4.6.5-1.9.2-2.1-2.3-1.8-2.7.3-2.9.6-2.8 4.6.1 3.8-.1 4.3-2 4-1.4-.2-2.2-1.2-2.6-3.3-.4-2.2-1.1-3.1-2.9-3.3-3.5-.5-4.8 1.3-2.6 3.8 1.8 2 1.8 2-2.6 2-3.5-.1-4-.3-2.6-1.1 2.7-1.6 2.2-4.9-.8-4.9-2.9 0-5 3.1-3.3 4.8.9.9-.7 1.2-6.7 1.2-7.7 0-7.8 0-6.1-1.9 1-1.1 2.3-1.8 3-1.5.7.3 2.5-.7 4-2.1 2.2-2 3.5-2.5 5.6-2 1.7.4 3.1.1 3.9-.9 1.1-1.3 1.7-1.3 4.6 0 2 .8 4.7 1.1 6.4.8 4.1-.8 4.1-3.4 0-3.4-1.7 0-2.8-.4-2.4-1 .8-1.3 4.8-1.3 7.9.1zm55.6.8c1.4 2.7 1.4 2.8-2 2.7-1.6-.1-3-.2-3-.4 0-1.1 2.2-4.2 3-4.2.5 0 1.4.9 2 1.9zm-195.2 1.9c.4 2.9-2.6 4.2-4.4 1.8-1.7-2.4-.6-4.8 2-4.4 1.3.2 2.2 1.2 2.4 2.6zm212.9-.2c-.6.6-4.7-.9-4.7-1.7 0-.5 1.1-.3 2.5.3s2.4 1.3 2.2 1.4zm-184.7.6c0 .6.7 2 1.7 3 1.9 2.2.9 3.7-1.5 2.2-1.9-1.2-2.9-6.4-1.3-6.4.6 0 1.1.5 1.1 1.2zm81.4-.3c.3.5-.1 1.2-1 1.5-2 .8-2.9.1-1.9-1.3.8-1.3 2.2-1.4 2.9-.2zm-135.7 2c2.2 2.3 9.5 3.3 12 1.7 1.4-.9 2.6-.9 5.2 0 3.2 1 3.3 1.2 1.5 2.1-1 .6-7.3 1.1-13.9 1.1l-12 .1-.1-2.9c-.1-4.1 4.2-5.3 7.3-2.1zm70.9-.7c.8 1.3-2.2 3.8-4.8 3.8-2.3 0-2.3-2.6 0-3.9 2.3-1.4 3.9-1.4 4.8.1zm13.4 1.7c0 1.1-6.9 2-7.6 1-.2-.4.2-1 .8-1.2 2.2-.9 6.8-.7 6.8.2zM81.5 810c.3.5-.1 1-.9 1-.9 0-1.6-.5-1.6-1 0-.6.4-1 .9-1 .6 0 1.3.4 1.6 1zm11.5 1.5c2.4 1.4 2.4 1.4-2.2 1.5-4.5 0-5.7-.7-4.1-2.3 1-1.1 3.6-.8 6.3.8zm78.6 0c1.8 1.4 1.7 1.4-1.3 1.5-2.5 0-3.1-.4-2.7-1.5.8-1.9 1.5-1.9 4 0z"/><path d="M344.1 105.2c-2.8 7.2-5.4 14.7-5.8 17.1-.7 3.6-3.2 4.6-13.2 5.3-10.8.8-12.1 1.1-12.1 3.4 0 2.4 2.6 4.1 10.7 7 8.4 3 9 3.8 6.8 9.7-3.2 9.1-4 13.2-2.6 14.6.8.8 1.6.8 2.5.2.8-.6 5.5-3.8 10.6-7.3 8.8-6 9.3-6.2 11.8-4.8 4.5 2.4 15.2 6.6 16.8 6.6 2 0 1-3.8-3-11.4l-3-5.8 3.4-2.9c1.9-1.6 5.4-4.3 7.8-6 4.4-3.2 5.1-4.9 2.8-6.8-1.1-.9-3.3-1-9.1-.2-4.2.6-8.5 1.1-9.6 1.1-1.9 0-6-5.4-7.4-10-.4-1.4-1.6-3.6-2.6-4.9-1.1-1.3-1.9-3.2-1.9-4.2 0-2.8-1.9-3.3-2.9-.7zM349 118c2.9 5.7 2.6 7-1.4 7-1.9 0-3.7-.4-4.1-.9-.7-1.2 1.7-10.1 2.7-10.1.4 0 1.7 1.8 2.8 4zm21.8 10.2c-.3.7-2.2 2.5-4.4 4l-3.9 2.7-1.7-2c-3.6-4.2-2.1-5.6 6-5.8 3.1-.1 4.2.3 4 1.1zm-14.4 5.2l1.9 3.9-2.4 1.9c-1.3 1-4 2.7-6 3.8-3.4 1.8-3.6 1.8-7.6 0-5.2-2.3-5.5-2.8-3.9-7.3 1.6-4.8 2.4-5.5 6.6-6 7.8-1 9.4-.5 11.4 3.7zm-22 2c-.8 3.2-1.8 3.2-8 .4l-4.9-2.3 5.2-.5c2.8-.3 5.5-.9 5.9-1.3 1.4-1.3 2.5 1 1.8 3.7zm28.2 10.8c2.1 4 .7 5.2-3.9 3.3-4.8-2-5.2-3-2-5.3s3.8-2.2 5.9 2zm-21.4-.6l3 1.6-2.3 2.5c-2.2 2.3-6.9 5.3-8.4 5.3-.7 0 .1-2.8 2.1-7.8 1.5-3.7 1.5-3.7 5.6-1.6zM224.1 133.9c-1.4.4-2.7 1.3-2.9 2-.4 1.1.3 1.3 2.5.8 1.7-.3 4.3-.3 5.9.2 2.7.7 2.8.8.6 1.3-2.5.7-3 3.6-.7 4.4 1.9.8 4.8-1.5 4.1-3.1-.2-.7.1-1.8.7-2.4.9-1 .7-1.6-.7-2.7-2.1-1.5-5.4-1.7-9.5-.5z"/><path d="M221.7 140.4c-.7 1.7 1.1 3.6 3.4 3.6 1.2 0 1.5-.6 1.1-2.5-.5-2.7-3.6-3.5-4.5-1.1zM241.3 155.5c-.3.9-.3 1.8 0 2.2 1 1 3.7-.6 3.7-2.2 0-2-2.9-2-3.7 0zM237.3 163.7c-4.9 1.7-5.6 3.3-1.4 3.3 1.5 0 4.3.5 6.1 1.1 2.7 1 3 1.3 1.6 2.1-2.1 1.2-1.1 2.8 1.6 2.8 1.3 0 1.8-.5 1.5-1.4-.3-.7.3-2 1.4-2.9 2.6-2.3 2.4-4.2-.6-5.5-3.3-1.5-4.9-1.4-10.2.5zM200.3 234.7c-2.2.8-1.4 2 2.9 4.2 5 2.5 6.9 1.5 4.4-2.3-1.6-2.5-4.3-3.2-7.3-1.9zM211.5 239c-1 1.6 1.2 3.8 5 5.1 1.9.7 3.6 2.1 3.8 3.1.3 1 2.1 2.5 4 3.3 1.9.8 3.7 2.2 4.1 3.1.4.9.5 1.7.4 1.8-.2.1-1.7.8-3.4 1.7-3.1 1.6-3.2 1.6-4.3-.7-1.4-3.1-3.2-3-6.1.1-3.2 3.4-4.2 3.1-3.4-1 .5-2.8.3-3.5-1-3.5-.8 0-2.3 1.2-3.3 2.7-1 1.6-3 4-4.5 5.5-4.6 4.3-3.4 8.8 2.3 8.8 1.2 0 1.9.7 1.9 2 0 3.2 3.2 4.2 6.7 2 3.6-2.2 4.3-1.4 4.3 4.6 0 3.7 1.8 4.5 4 1.9 1-1.2 1-2.4-.1-6.1-1.8-5.9-3.2-7.1-6.6-5.5-2.2 1-2.7.9-4-.9-.8-1.1-2.5-2-3.9-2-1.5 0-2.4-.6-2.4-1.6 0-1.3.7-1.5 3.9-.9 2.2.4 4.8.2 5.9-.4 1.5-.8 2.3-.7 3.1.3 2 2.4 5 2.5 8.4.2 4-2.8 11.1-3.9 16-2.5 2.6.7 4 1.9 5.4 4.9 2 3.9 2 3.9-.1 5.9-2.6 2.7-1.4 3.8 1.9 1.7l2.5-1.6v4c0 2.2.1 4.3.3 4.7.1.5-.9 1-2.3 1.1-1.4.2-3.4 1.2-4.5 2.3-1.2 1-3.5 2.4-5.3 3-1.8.6-3.1 1.6-2.9 2.2.6 2 2.3 1.8 6.1-.8 2-1.4 4.9-2.5 6.5-2.5 4.3 0 7-3.6 6.8-9.2-.2-3.6.3-5.2 2.1-7 2.6-2.9 2.8-4.8.5-4.8-1.3 0-1.4-.3-.5-1.2 1.5-1.5 4.9 1.4 5.4 4.6.2 1.3 1 2.1 2.3 2.1 1.7 0 2-.6 1.7-4.5-.2-2.4.3-5.5.9-6.8 1.8-3.2-.3-5.3-2.9-2.8-1.1.9-3.3 1.8-5 2.1-1.7.2-4.5 1.2-6.2 2.2-3.1 1.8-3.1 1.8-4.8-.3-2.2-2.7-10.7-5.4-15.1-4.7-2.4.4-3.2.2-2.7-.6.4-.6 1.2-.9 1.7-.6 1.5 1 2.3-2.4 1.1-5-.6-1.4-2.6-2.8-4.9-3.5-2.1-.7-4.3-1.7-5-2.2-1.2-.9-11.2-4.8-12.5-4.8-.4 0-1 .5-1.3 1zm44.5 27.5c-.7.8-1.6 1.2-2.1.9-1.3-.8-.1-2.4 1.8-2.4 1.3 0 1.3.3.3 1.5zM231 312.5c-1 1.2-.9 1.6.4 2.1 2.6 1 8.6-.5 8.6-2.1 0-2-7.3-2-9 0zM172.7 310.1c.6.6.9 1.7.7 2.4-.6 1.4 4.9 19 7.3 23.9 2.2 4.2 4.1 1.8 2-2.6-2.1-4.6-4.7-12.5-4.7-14.6-.1-2.8-3.8-10.2-5.2-10.2-.9 0-.9.3-.1 1.1zM207.5 591.9c-.8 1.7-1.8 5.2-2.1 7.8-.5 3.9-1.5 5.7-5 9.3-2.3 2.5-5.2 6.7-6.4 9.4-1.8 4.3-1.9 5.1-.6 6.4 1.3 1.3 1.8.7 4.6-4.7 2-4.1 3.5-5.9 4.3-5.5.7.4.9.4.5-.1-.4-.4.6-2.1 2.3-3.9 1.6-1.7 3.4-4.9 3.9-7.1.5-2.2 1.5-5.4 2.1-7 1.7-4.6 1.6-6.9-.3-7.3-1.1-.2-2.3.8-3.3 2.7zM74.2 608.3c-1.4 1.6-.6 2.7 2 2.7 1.3 0 1.8-.6 1.6-1.7-.4-2.2-2.2-2.7-3.6-1zM76.7 618.7c-1.1 1-.8 4.1.4 4.9 1.6.9 4.3-2.1 3.6-4-.7-1.6-2.8-2.1-4-.9zM82.4 621.5c-.7 1.8.3 3.5 2.1 3.5 2.1 0 2.8-1.9 1.5-3.5-1.6-1.9-2.9-1.9-3.6 0zM79.7 630.7c-1.2 1.1-.8 2.3.8 2.3.8 0 1.5-.7 1.5-1.5 0-1.6-1.2-2-2.3-.8zM85.2 634.2c-1.4 1.4-1.6 2.8-.2 2.8.5 0 1.4-.9 2-2 1.2-2.2.1-2.7-1.8-.8zM50.1 615.9c-.8 1.4-.6 2.2.8 3.5 1.6 1.5 1.9 1.5 3.6-.4 1.4-1.6 1.5-2.2.5-3.5-1.7-2-3.7-1.9-4.9.4zM39 617.5c-1 1.2-1 1.9-.1 2.8 1.4 1.4 4.6-.2 4.6-2.4 0-2-3-2.3-4.5-.4zM47.6 626.5c-1.8 1.9-1.9 2.5-.7 4.3 1.2 2 4.5 1 4.9-1.4.4-3.1-2.2-4.9-4.2-2.9zM39.7 629.4c-.9 2.3 1.9 4.1 3.8 2.6 1.2-1 1.3-1.6.4-2.6-1.5-1.8-3.5-1.8-4.2 0zM45 635.8c0 .5 1.3 2.1 3 3.7 2.4 2.3 3 2.5 3.5 1.2 1-2.5-1.3-5.7-4-5.7-1.4 0-2.5.4-2.5.8zM93.7 610.7c-1.3 1.2-.7 4.4.9 5 2.3.9 4.8-2.5 3.3-4.4-1.2-1.4-3.2-1.7-4.2-.6zM100.7 632.6c-1.4 1.4-.7 3.5 1.1 3.2.9-.2 1.7-1 1.7-1.7 0-1.6-1.8-2.5-2.8-1.5zM153.2 809.7c.2 1 1.4 1.9 2.6 2.1 1.9.3 2.3-.1 2-1.5-.2-1-1.4-1.9-2.6-2.1-1.9-.3-2.3.1-2 1.5zM396.2 638.2c-.7.7-1.2 2.2-1.2 3.4 0 2.5-2 4-16.5 13.1-9.2 5.7-17 9.3-20.4 9.3-1.9 0-4.5 2.3-3.6 3.2.8.8 17.8-5.1 19.9-7 2.1-1.8 4.1-3.1 17.4-11.6 4.3-2.7 7.2-5.2 7.2-6.3 0-.9.7-2.5 1.7-3.5 1.5-1.7 1.5-1.8-.8-1.8-1.4 0-3 .5-3.7 1.2zM374.9 669.8c-4.2 3.2-14.2 8.9-18.2 10.3-5.1 1.8-4.1 3.5 1.9 3.1 5.6-.4 6.5-.9 4.4-2.2-.8-.6-1-1-.4-1 .5 0 3.7-1.6 7-3.6 3.2-2 7-4 8.4-4.3 2.8-.8 3.4-3.4.9-3.9-.8-.1-2.6.6-4 1.6zM409 672c-1.4.4-5.1 2-8.4 3.5-6.7 3.1-12.6 4.3-12.6 2.6 0-.6.5-1.1 1-1.1.6 0 1-.5 1-1 0-2.1-7.9-1-13.5 2-3.1 1.6-6.5 3-7.5 3-1.1 0-2.2.5-2.6 1.1-1.2 2.1 8.2.4 11.2-2 3.5-2.7 4.4-2.7 4.4.3 0 2.1-.9 2.8-6 4.7-6.9 2.5-7.7 3.4-2.2 2.5 4.8-.9 9.4-2.7 10.7-4.2.6-.7 3.9-2 7.5-3 3.6-.9 7.8-2.3 9.3-3.1 6.4-3.2 14.3-5.1 19.1-4.6 3.3.4 4.4.9 3.7 1.6-1.6 1.6-1.3 2.4.9 3 2.3.6 4.8-1.7 3-2.8-.8-.5-.5-1.1.7-2.1 1.6-1.2.6-1.3-7.7-1.3-5.2 0-10.6.4-12 .9z"/><path d="M414 676.5c-6.6 1.5-17 6.1-17 7.5 0 1.4.5 1.3 5.8-1.5 4.2-2.2 8.3-3.4 16.5-5 1.5-.3 2.7-1 2.7-1.5 0-1.2-1-1.2-8 .5zM50.7 681.7c-3 .8-.8 2.3 3.4 2.3 2.8 0 3.9-.4 3.7-1.3-.5-1.3-4.1-1.8-7.1-1zM485.6 684.8c-.2.4 2.1 1.3 5.1 2 5.6 1.2 7.5.9 5.7-.7-1.3-1.3-10.1-2.4-10.8-1.3zM322.7 685.7c-1.6 1.6-.4 2.4 3 2.1 4.8-.4 5.7-2.8 1.1-2.8-1.9 0-3.8.3-4.1.7zM484 697.7c-3.5.5-6 1.8-6 3.3 0 .4 1.7.2 3.8-.6 2-.7 7-1.3 11-1.4 4.1 0 7.2-.4 7.2-1 0-1-8.8-1.1-16-.3zM39.2 700c-3.6 1.6-5.1 1.8-8.5 1-6.4-1.5-10.7-1.2-11.4.6-.3.8.1 2.1.8 2.8 1.6 1.5 11.2 4.6 14.3 4.6 2.6 0 8 3.9 5.5 4-.9 0-2.9.7-4.5 1.5-1.7.9-4.3 1.2-6.8.9-4.7-.6-7.2.7-6.3 3 .4 1.1 1.9 1.6 4.2 1.6 2.2 0 3.4.4 3 1-.4.6-3.7.9-8 .8-6.6-.3-9.7.4-8.3 1.7.2.3 4.7.6 9.9.7 10 .2 13.9-.9 13.9-4 0-2.6 2-4.2 5.3-4.2 3.8 0 6.7-1.7 6.7-3.9 0-1 1.2-2.3 2.7-3 1.9-.9 2.3-1.5 1.5-2.3-.8-.8-3-.8-8.2.2-5.9 1.1-7.4 1.1-9.5 0-2.5-1.4-2.5-1.4 3.7-3.7 5.8-2.2 6.8-2.3 12.6-1.2 4.9.9 7.3.9 10.7-.1 2.5-.7 4.5-1.6 4.5-2 0-1.6-3.4-2-6.7-.9-2.4.8-4.2.8-6.5 0-4.6-1.6-9.8-1.3-14.6.9zM499.1 705.6c0 1.1.3 1.4.6.6.3-.7.2-1.6-.1-1.9-.3-.4-.6.2-.5 1.3zM160.7 708.7c-1.8 1.7 1 3.7 3.8 2.7 1.2-.5 1.3-1 .4-2-1.2-1.5-3.1-1.8-4.2-.7zM301 726.5c-1.7 2.1.9 6 4.7 7 2.2.5 3.1.2 4.5-1.5 3.1-3.8 2.3-5.5-2.4-5.1-.9.1-1.9-.3-2.3-.9-.9-1.5-3.1-1.2-4.5.5zM192.1 726.9c-.8.5-2.9.7-4.7.4-2.9-.5-3.5-.2-4.5 2-2.2 4.8 1.7 8.1 4.2 3.5 1-1.9 1.2-1.9 2.1-.5 1.4 2.7 4.4 2 6.6-1.5 1.1-1.8 1.8-3.6 1.6-4-.7-1.1-3.6-1-5.3.1zM262 727.5c-1.6 1.9-.5 4.7 1.7 4.3 1.1-.2 1.8-1.2 1.8-2.7 0-2.9-1.7-3.7-3.5-1.6zM326.7 728.4c-.9 2.2 1.8 4 3.3 2.2.6-.9.9-2 .5-2.6-.9-1.5-3.2-1.2-3.8.4zM316.8 729.1c-2.4 1.4-2.3 4.9.1 4.9s4.5-2.5 3.7-4.5c-.6-1.7-1.4-1.8-3.8-.4zM333.5 729c-.3.5-.4 1.4 0 2 .8 1.3 3.5.1 3.5-1.6 0-1.6-2.6-1.9-3.5-.4zM41.6 729.9c-1.1 1.7 3.5 6.1 6.2 6.1 1.5.1 4.4.7 6.4 1.4 3.1 1.1 4.1 1.1 5.5 0 1.7-1.2 1.6-1.3-.9-2.3-2-.8-2.8-1.7-2.8-3.6 0-3.2-3.2-3.4-5.5-.3l-1.6 2.3-1.6-2.3c-1.6-2.2-4.7-3-5.7-1.3zM111 730.4c0 1 .9 1.6 2.1 1.6 2.4 0 2.1-2.3-.4-2.8-1-.2-1.7.3-1.7 1.2zM293.5 730c-.7 1.1 1.2 5 2.4 5 1.5 0 3.3-2.9 2.7-4.5-.6-1.7-4.1-2-5.1-.5zM31.5 731c.3.5 1 1 1.6 1 .5 0 .9-.5.9-1 0-.6-.7-1-1.6-1-.8 0-1.2.4-.9 1zM270.3 731.6c-.4 1.1.1 2.2 1.2 3.1 1.6 1.1 2.1 1.1 3.4-.1 1.2-1.2 1.2-1.8.1-3-1.6-2.1-3.9-2-4.7 0zM16.4 732.5c-.9 2.1.3 4.5 2.1 4.5 2.1 0 3-2.7 1.5-4.5-1.6-1.9-2.9-1.9-3.6 0zM198.4 732.5c-.4.9-.2 2.1.4 2.7 1.6 1.6 4.7.5 4.7-1.7 0-2.6-4.2-3.4-5.1-1zM278.7 731.7c-1.3 1.2-.7 3.1 1 3.7 1.8.7 4.7-2 3.7-3.5-.6-1.1-3.8-1.2-4.7-.2zM340.4 734.4c-1.6 1.2-1.7 1.8-.6 5.5.9 2.8 1.8 4.1 3 4.1 1 0 2.4.6 3.1 1.2 1 1.1 2.1.3 5.6-3.7 2.4-2.8 4.4-5.5 4.5-6.2 0-2.2-2.3-2.6-4-.7-1.5 1.8-5.4 4.4-6.5 4.4-.3 0-.5-1.1-.5-2.4 0-2.9-2.2-3.9-4.6-2.2zM211.1 735.4c-.8 1-.8 1.6.2 2.5 1.7 1.3 5.4-1 4.3-2.7-1-1.6-3.1-1.5-4.5.2zM308.5 736c-.8 2.6.7 4.5 3 3.6 2.1-.8 1.6-5-.7-5.4-1-.2-1.9.5-2.3 1.8zM332.3 736.5c-1 .8-2.8 1.5-4 1.5-2.6 0-3 2.2-.8 4 1.2 1 1.8 1 2.9.1 1.1-.9 2-.9 3.4-.2 2.4 1.3 3.2.5 3.2-3 0-3.2-2.1-4.3-4.7-2.4zM32 737c0 .5.5 1 1 1 .6 0 1-.5 1-1 0-.6-.4-1-1-1-.5 0-1 .4-1 1zM180.5 737.9c-1 1.7.4 3.1 3.1 3.1 1.9 0 2.5-.5 2.2-1.8-.4-1.9-4.3-2.9-5.3-1.3zM318.7 737.6c-1.4 1.4-.7 2.5 1.3 2.2 1.2-.2 2.1-.8 2.1-1.3 0-1.2-2.4-1.8-3.4-.9zM17.7 740.6c-.3.4-.2 1.5.4 2.6.8 1.5 1.3 1.7 2.5.7 2-1.6 1.7-3.9-.4-3.9-1 0-2.2.3-2.5.6zM169.7 740.6c-1.6 1.6-.6 3.4 1.9 3.4 1.9 0 2.5-.5 2.2-1.7-.3-1.9-2.9-2.9-4.1-1.7zM204 741.7c-1.4.3-2.9.9-3.4 1.3-1.3 1.3 1.4 4.2 3.1 3.5.8-.3 2.1.2 2.9 1 1.9 1.8 3.8 1.1 5.3-2.1 1.9-4.2-.1-5.1-7.9-3.7zM66 745c0 1.3.5 2 1.3 1.7.6-.2 1.2-1 1.2-1.7s-.6-1.5-1.2-1.8c-.8-.2-1.3.5-1.3 1.8zM191.5 744c-1.1 1.8 1.3 3.6 3.1 2.5.9-.6 1.6-1.5 1.7-2 .3-1.4-4-1.8-4.8-.5zM49.8 748.4c-.5 2.3.7 4.6 2.2 4.6.4 0 1.2-1.1 1.8-2.4.7-1.7.7-2.7-.1-3.5-1.8-1.8-3.4-1.3-3.9 1.3zM330.4 747.1c-.9 1.5 1.2 3.3 3 2.6.9-.4 1.6-1.3 1.6-2.2 0-1.7-3.5-2.1-4.6-.4zM369.5 747c-.9 1.5.4 3 2.6 3 1.2 0 1.9-.7 1.9-2 0-2.1-3.3-2.9-4.5-1zM376.5 747c-.4.7-.3 1.6.3 2.2 1.4 1.4 4.5.2 4-1.5-.6-1.6-3.4-2.1-4.3-.7zM358.1 748c-.8.4-1 1.3-.7 1.9.9 1.3 4.3 1.5 5.1.2.8-1.4-2.8-3.1-4.4-2.1zM42.5 749c-.7 1.2 2 6 3.4 6 1.8 0 2.9-2.5 2-4.8-.9-2.3-4.3-3-5.4-1.2zM385.2 749.2c.5 1.5 2.8 1.8 2.9.3 0-.6-.7-1.2-1.7-1.3-1-.3-1.5.1-1.2 1zM58.2 750.1c.2.6.8 1 1.3 1s1.1-.4 1.3-1c.2-.6-.4-1.1-1.3-1.1s-1.5.5-1.3 1.1zM23.6 750.9c-.4.7-.5 1.5-.2 1.8.9.9 1.9-.4 1.4-1.8-.4-1.1-.6-1.1-1.2 0zM32.5 751c-.4.6-.1 1.7.5 2.6 1 1.1 1.6 1.2 2.6.3 1.1-.9 1.1-1.5.3-2.5-1.4-1.7-2.5-1.8-3.4-.4zM158.6 750.9c-.4.5-.2 2.1.4 3.6.8 2.2 1.5 2.6 3.5 2.2 3.1-.5 4.2.8 1.8 2.1-1.4.9-1.5 1.3-.4 2.6 1.5 1.8 5.6 2.2 6.6.6.3-.5-.3-1.7-1.4-2.6-1.9-1.7-1.9-1.7.1-4.5 2.1-2.8 1.8-4.9-.8-4.9-.7 0-1.9.9-2.6 2-.7 1.1-1.6 2-1.9 2-.4 0-.9-.9-1.2-2-.5-2-3.1-2.7-4.1-1.1zM196.8 751.7c-.9.2-2.4 1.6-3.3 3l-1.7 2.5-1.4-2.1c-2.4-3.3-7.9-2.2-5.7 1.1.4.7.8 2.6.9 4.1.1 1.6.6 3.3 1.2 3.9 1.2 1.2 7.9 0 9.5-1.7.9-1 1.6-.9 3.4.2 2.1 1.4 2.4 1.3 4.8-1.3 1.4-1.5 2.5-3.1 2.5-3.6 0-1.6-3.1-2.1-5.7-.9-2.7 1.2-2.6 1.4-.7-3.3.6-1.5-1.2-2.4-3.8-1.9zM332.1 754.3c-.9 1.1-.7 2 .8 3.8 1.9 2.3 2 2.3 3.8.6 1.4-1.3 1.5-2.1.7-3.5-1.5-2.2-3.8-2.6-5.3-.9zM357.5 754.4c-1.6 1.2-1.8 1.7-.7 2.8 1.5 1.5 4.7 0 4.7-2.2 0-2-1.8-2.2-4-.6zM369 754.4c0 .8.5 1.8 1.2 2.2.7.5.4 1-1.1 1.6-1.6.5-2.1 1.5-1.9 3 .4 2.8 4.5 3.8 5.4 1.3.6-1.4.8-1.4 2.5.1 2.3 2.1 4.9 1.2 4.9-1.7 0-1.2.7-2.7 1.7-3.4 2.3-1.7 1-4.7-1.9-4.3-1.7.2-2.2.9-2.1 2.4.2 1.4-.6 2.5-2.2 3.2-2.7 1.3-4.5-.2-2.6-2.1 1.9-1.9 1.2-3.7-1.4-3.7-1.5 0-2.5.6-2.5 1.4zM340.4 756.5c-.7 2.7.9 5.5 3.1 5.5 1.9 0 3.6-5.5 2.2-6.9-1.9-1.9-4.6-1.2-5.3 1.4zM388.2 755.3c-1.9 2.2-1.8 5.8 0 7 2.3 1.5 3.7.1 4-4.3.3-3.7-1.9-5.3-4-2.7zM418 755.6c0 .9.7 1.4 1.7 1.2 2.5-.5 2.8-2.8.4-2.8-1.2 0-2.1.6-2.1 1.6zM151.6 756.8c-.3.5.4 2.2 1.5 3.7 2 2.4 2.3 2.5 3.8 1.1 1.2-1.3 1.3-2 .5-3.4-1.2-1.9-4.9-2.8-5.8-1.4zM349 757.5c-1.6 1.9-.6 4.5 1.9 4.5 1.9 0 5.5-4.3 4.4-5.4-1.2-1.1-5.1-.6-6.3.9zM60 758.5c-.7.9-.7 1.5.2 2.3 1.6 1.3 7.5.9 9-.6 1.1-1.1.4-1.3-6.4-2.7-1-.1-2.2.3-2.8 1zM176.5 758.1c-.8 1.3 3.3 5.9 5.2 5.9 2.2 0 2.7-2.9.8-5-2-2.2-5-2.6-6-.9zM397.1 759.6c-2.3 3-2.3 4.7.1 5.2 2.2.4 4.5-2.2 4.3-4.9-.2-3.3-2-3.4-4.4-.3zM423.3 760.6c-.9 2.3 1.3 4 3.2 2.4.8-.7 1.5-1.9 1.5-2.6 0-1.9-3.9-1.8-4.7.2zM26 760.7c0 1.1 6 3.7 6.7 2.9.4-.4.2-1-.3-1.5-1.3-1.2-6.4-2.3-6.4-1.4zM119.7 760.7c-.4.3-.7 1.8-.7 3.1 0 2.4.1 2.4 1.8.9 2.6-2.4 3.2-2.1 3.2 1.6 0 2.4-.6 3.5-2.2 4.2-2.9 1.3-3.5 3.5-1 3.5 1 0 3.1 1.1 4.6 2.5 3.1 2.8 4.4 3.1 7.1 1.2 1.4-1.1 1.6-2.1 1.1-4.3-.4-1.6-.7-4-.7-5.4 0-4.2-.7-5.4-2.4-4-1.2 1-1.6.8-2.5-1.4-.8-2.1-1.6-2.6-4.3-2.6-1.9 0-3.7.3-4 .7zm9.3 10.4c0 .6-.4.7-1 .4-.5-.3-1-1.1-1-1.6 0-.6.5-.7 1-.4.6.3 1 1.1 1 1.6zM39.4 762.5c-1.2 3 .1 5 3 4.8 1.6-.1 4.2.5 5.8 1.3 3.1 1.6 6.8 1.1 6.8-1.1 0-.7-.9-1.5-2.1-1.8-1.2-.3-1.8-1-1.5-1.5 1-1.7-1.8-3-6.7-3-3.2-.1-5 .3-5.3 1.3zM413 761.9c-2.7.7-3.8 3.7-2.1 5.4.7.7 1.5.6 2.7-.4.9-.7 2.5-1.8 3.7-2.4 5.1-2.5 2.1-4.4-4.3-2.6zM443.3 762.6c-.3.9.2 2.3 1.1 3.2 1.5 1.5 1.7 1.5 3.3 0 1.5-1.6 1.7-1.6 2.9 0 1 1.3 1.7 1.5 3.1.6 1-.6 1.8-2 1.8-3 0-1.6-.9-1.9-5.8-2.1-4.4-.2-5.9.1-6.4 1.3zM468.4 762.6c-.7.3-.9 2.3-.6 5.4.2 2.8.1 5-.4 5-.5.1-3.6.3-6.9.6-11.6 1.1-11.1 6 .8 7.1 7.1.6 10.2 2.3 4.5 2.3-5.8.1-14.3 2.5-14.6 4.2-.4 2 4.6 3.8 10.9 3.8 4.5 0 7 1.2 5 2.4-.5.4-3.7.9-7 1.2-4 .5-6.6 1.3-7.7 2.5-1.6 1.8-1.6 2.1.6 4.5 3.3 3.4 6.6 2.9 6.2-.9-.3-2.6-.2-2.7 4.5-2.7h4.9l-.4 4c-.5 4.4 1 7 3.9 7 1.9 0 2.7-1.8 3.1-8 .2-2.8.7-3.5 2.3-3.3 8.5 1.1 17.7 1.5 19.9.9 2.3-.6 2.6-1.2 2.6-4.6 0-2.2-.4-4-.9-4s-1.1-1-1.3-2.2c-.3-2.6-4.3-3.6-13.8-3.8-3 0-6.2-.5-7-1.1-1.1-.7 1.5-.9 8.7-.7 5.6.1 10.5 0 10.8-.4 1.4-1.4-.7-2.8-4.2-2.8-2.9 0-3.3-.3-2.4-1.4 1.8-2.2-.8-3.5-7.9-3.8-5.9-.3-6.5-.5-7-2.8-.4-1.4-.5-3.1-.2-3.8.5-1.4 9.2-1.7 9.2-.2 0 .5-1.6 1-3.6 1-5.5 0-3.7 2.4 2 2.8 3.5.2 5.3-.2 6.7-1.4 2.4-2.1 2.4-5 .2-5.9-2.2-.8-19.4-1.6-20.9-.9zM485 778c1.9.6.9.8-3.7.9-3.6.1-6.3-.3-6.3-.9 0-1.2 6.4-1.2 10 0zm6.4 9.9c1.1.1 1.7.4 1.4.7-.8.8-16.8-.7-16.8-1.5 0-.4 3-.4 6.8 0 3.7.5 7.6.8 8.6.8zm6.4 4.6c2 .7 1.4 2.5-1.3 3.5-1.6.6-5.6.5-11.2-.2-8.5-1-11.8-2.2-10.8-3.8.4-.7 20.8-.3 23.3.5zM457.5 764c-1.1 1.8 1.3 3.6 3.1 2.5.9-.6 1.6-1.5 1.7-2 .3-1.4-4-1.8-4.8-.5zM497 765c0 .5.4 1 .9 1 .6 0 1.3-.5 1.6-1 .3-.6-.1-1-.9-1-.9 0-1.6.4-1.6 1zM65 766c0 .5.7 1 1.5 1s1.5-.5 1.5-1c0-.6-.7-1-1.5-1s-1.5.4-1.5 1zM71.7 765.7c-1.2 1.1-.8 2.3.8 2.3.8 0 1.5-.7 1.5-1.5 0-1.6-1.2-2-2.3-.8zM493 766.5c0 .8.7 1.5 1.5 1.5s1.5-.7 1.5-1.5-.7-1.5-1.5-1.5-1.5.7-1.5 1.5zM189.3 768c-2.6 1.1-2.7 1.4-1.3 4.1 1.3 2.3 5.5 2.5 6.4.3.6-1.6-.9-5.4-2.2-5.3-.4 0-1.7.4-2.9.9zM335.5 767.9c-.3.5-.2 1.2.2 1.4 1.5.9 6.8 1.1 8.1.3 2.1-1.3.3-2.6-3.8-2.6-2.1 0-4.1.4-4.5.9zM382.5 767.7c-4.9 1.2-6 5.1-2.3 7.7 2.3 1.6 1.9 2-1.6 1.6-1-.1-3.1.4-4.7 1-5.2 2.2-3 7.3 3.6 8.6 1.8.3 3.8.3 4.4-.1 1.3-.8 1.4-2.5.2-2.5-.5 0-2.2-.5-3.7-1-1.9-.8-2.4-1.4-1.7-2.1 1.3-1.3 5.3 1 9.5 5.3 1.4 1.6 3.1 2.8 3.7 2.8.6 0 1.1.9 1.1 2 0 2.1-1.5 2.7-2.5 1-1-1.6-4.5-1.2-5.2.6-.3.9.4 2.6 1.9 4.1 2.1 2.1 3.1 2.3 6.2 1.7 3.9-.7 6.2-4 5.3-7.5-.2-.9.4-2.1 1.4-2.8 1.1-.6 1.9-2 1.9-3s.7-2.4 1.6-3.1c.8-.8 1.4-2.5 1.2-3.9-.2-2.1-.9-2.7-3.4-2.9-1.8-.2-4.9.4-7 1.3-4.3 1.8-5.8 1.2-2.6-1.1 2.7-1.9 2.9-6 .3-7.4-2-1-4.2-1.1-7.6-.3zm4.5 4.4c0 .5-.4.9-1 .9-.5 0-1-.7-1-1.6 0-.8.5-1.2 1-.9.6.3 1 1 1 1.6zm10.3 8c-.6.6-1.8.6-2.8.3-1.8-.7-1.8-.8.1-1.4 2.3-.9 3.9-.1 2.7 1.1zm-3.8 4.9c.3.5-.1 1-.9 1-.9 0-1.6-.5-1.6-1 0-.6.4-1 .9-1 .6 0 1.3.4 1.6 1zM428.4 768.1c-.9 1.5 1.2 3.3 3 2.6.9-.4 1.6-1.3 1.6-2.2 0-1.7-3.5-2.1-4.6-.4zM151.3 768.7c-1.3.3-2.5 1.4-2.9 2.7-.6 2.6 1.1 7.6 2.6 7.6.7 0 1 1.6.8 4.1-.4 4.9 1.6 6.4 2.5 1.9.4-1.6 1.1-3 1.7-3 .6 0 2.7-1.2 4.6-2.6 4.5-3.5 4.5-6.6 0-9.3-3.3-2.1-4.8-2.3-9.3-1.4zm8.7 5.4c0 2.4-2.3 2.1-2.8-.4-.2-1 .3-1.7 1.2-1.7 1 0 1.6.9 1.6 2.1zM165.6 769.9c-.8 1.3.3 3.8 1.9 4.5 1.8.6 3.9-2 3.1-3.9-.6-1.6-4.1-2.1-5-.6zM350 770c-1.1.7-1.2 1.2-.3 2.1 1.4 1.4 4.6.4 4.1-1.3-.6-1.6-2-1.9-3.8-.8zM359.3 771.7c-.9 2.2 1.2 3.7 3.3 2.5 1.4-.8 2.1-.6 3 .6 1.2 1.6 1.4 1.6 3 0 .9-.9 1.4-2.3 1.1-3.1-.8-2-9.7-2-10.4 0zM41.2 773.2c.5 1.5 3.7 1.8 4.1.3.1-.6-.9-1.2-2.2-1.3-1.6-.3-2.2.1-1.9 1zM330.8 774.8c-1.9.4-2.5 4.2-.7 4.2 1.6 0 4.9-2 4.9-2.9 0-1.2-2.1-1.8-4.2-1.3zM417.7 774.6c-1.4 1.4-.7 3.5 1.1 3.2.9-.2 1.7-1 1.7-1.7 0-1.6-1.8-2.5-2.8-1.5zM442.3 774.7c-.7.3-1.3 1.1-1.3 1.8s.6 1.5 1.3 1.8c1.4.5 4.7-1 4.7-2.2 0-1.1-3.1-1.9-4.7-1.4zM497 776.4c0 .9.7 1.6 1.6 1.6 1.7 0 1.4-2.2-.4-2.8-.7-.2-1.2.3-1.2 1.2zM321.6 777.3c-1.5 1.1-1.5 1.5-.3 3.1 1.7 2.3 4.7 1.5 4.7-1.3 0-2.4-2.3-3.3-4.4-1.8zM107.4 778.1c-1 1.7 1.3 3.6 2.7 2.2 1.2-1.2.4-3.3-1.1-3.3-.5 0-1.2.5-1.6 1.1zM314.2 778.9c-1.8 1.1 2.4 8.3 4.7 7.9 2.6-.5 2.6-5.3-.1-7.2-2.6-1.8-2.8-1.9-4.6-.7zM332 781.9c0 3.6 2.7 9.1 4.5 9.1 1.8 0 3.2-2.3 1.7-2.8-1.7-.5-1.5-2.2.3-2.2 1.7 0 3.9-3.6 3.2-5.4-.3-.6-2.5-1.2-5.1-1.4-4.4-.1-4.6-.1-4.6 2.7zM352.8 780.1c-2.6 1.5-2.2 3.9.6 3.9 3.1 0 5.6-2.8 3.5-4.1-1.7-1.1-2-1.1-4.1.2zM419 779.9c-.8.6-2.6.7-4.1.4-3.3-.6-4.7 1.3-2.5 3.5 1.9 1.9 8.4 2.6 10.3 1 .7-.6 1.3-2.1 1.3-3.4 0-2.5-2.2-3.2-5-1.5zM428 782.5c-1 1.2-1 1.9-.2 2.7 1.5 1.5 6.2-.5 6.2-2.7 0-2-4.4-2-6 0zM55.7 782.7c-1.3 1.2-.7 2.3 1.3 2.3 1.1 0 2-.7 2-1.5 0-1.5-2.1-2.1-3.3-.8zM115.7 783.7c-1.3 1.2-.7 4.3.8 4.3.8 0 1.5-.4 1.5-.9s.3-1.6.6-2.5c.6-1.6-1.6-2.3-2.9-.9zM441.6 786.9c-1 1.5.4 3.9 2.7 4.5 2.9.7 4.5-.9 3.1-3.2-1.3-1.9-4.9-2.8-5.8-1.3zM361.5 788c-1.3 2.1 1.5 3.8 5.8 3.6 3.4-.2 4.2-.6 4.2-2.1 0-1.6-.9-2-4.7-2.2-2.6-.2-5 .2-5.3.7zM434 789.5c0 .8.9 2.4 2 3.5 3.8 3.8 7.4 1.8 4.6-2.5-1.9-2.8-6.6-3.5-6.6-1zM323.3 789.7c-1.8.7-1.6 6 .3 7.1 2.2 1.2 8.5-.9 8.2-2.8-.2-.8-1.1-1.5-2.1-1.5s-2.3-.8-2.8-1.8c-1-1.8-1.5-1.9-3.6-1zM347.4 790.5c-.4.9-.2 2.1.4 2.7 1.6 1.6 4.7.5 4.7-1.7 0-2.6-4.2-3.4-5.1-1zM372 793.3c0 2 2.6 3.9 4.7 3.5 1-.2 1.8-1.2 1.8-2.3 0-1.5-.8-2.1-3.2-2.3-2.4-.2-3.3.1-3.3 1.1zM400.6 793.6c-2 1.9-1.2 3.4 1.8 3.4 2.5 0 4.6-1.7 4.6-3.7 0-1.8-4.5-1.6-6.4.3zM305 794.4c0 2.2 2.8 3.9 4.7 3 1-.4 2.5-.9 3.3-.9.8-.1 2.1-.3 2.8-.4.6 0 1.2-.8 1.2-1.6 0-1.2-1.3-1.5-6-1.5-4.4 0-6 .4-6 1.4zM413.2 794.2c-1.3 1.3.2 3.8 2.3 3.8 2.1 0 3.6-2.5 2.3-3.8-.7-.7-1.7-1.2-2.3-1.2-.6 0-1.6.5-2.3 1.2zM347 797.4c-.6.9-.4 2 .6 3.5 1.3 1.8 2.2 2.1 4.7 1.5 4-.8 5.9-2.3 5.5-4.3-.4-2-9.2-2.5-10.8-.7zM362.5 800c-.4.7-.3 1.6.3 2.2 1.4 1.4 5.7.6 5.7-1.2 0-1.8-5-2.6-6-1zM426.6 799.9c-.8 1.3.8 5.4 2.8 7.1 1.5 1.1 1.9 1.1 3.3-.2 1.3-1.4 1.3-2 .1-4.4-1.3-2.9-5.1-4.4-6.2-2.5zM435.5 799.8c-1 1-.5 5.8.7 7 1.5 1.5 4.8 1.6 4.8.2 0-.6 1-1 2.3-1 1.3 0 2.8-.5 3.5-1.2 1.6-1.6 1.5-4.8 0-4.9-7.9-.5-10.8-.6-11.3-.1zM330.7 801.4c-.3.8.1 2.2.8 3.3 1.3 1.7 1.5 1.7 3.6-.3 1.2-1.2 1.8-2.7 1.5-3.3-1-1.6-5.3-1.4-5.9.3z"/><path d="M478.2 800.8c-1.7.5-1.5 2.9.4 3.6 1.7.6 5.4-.9 5.4-2.3 0-1-4-1.9-5.8-1.3zM316.5 802.9c-1.6.3-3 1.2-2.9 1.9.1.6.2 2.1.3 3.1.2 2.5 3 3.5 5 1.7.9-.8 2.5-1.6 3.6-1.8 1.3-.2 2.1-1.2 2.3-3.1.3-2.4 0-2.7-2.5-2.6-1.5.1-4.1.4-5.8.8zM303.8 804.9c-.9 1.4-1.9 1.8-3.8 1.4-1.6-.3-3.1.1-3.8 1-.7.8-2 1.3-3 1.1-2.2-.5-4.7 1.1-3.8 2.5.8 1.3 4.2 1.5 5 .3.3-.5 1.9-.7 3.5-.4 2.2.3 3.3 0 3.7-1.1.5-1.3.9-1.4 2.6-.4 1.6 1 2.2.8 3.9-1.2 1.1-1.3 1.8-2.9 1.6-3.5-.7-2-4.5-1.8-5.9.3zM385.3 803.7c-1.9.7-1.6 4 .4 4.7.9.4 2.3 0 3.1-.8 1.3-1.2 1.3-1.8.2-3-1.3-1.7-1.7-1.8-3.7-.9zM399.5 804c-.8 1.3 1.3 4 3 4 2.1 0 3.6-2.5 2.3-3.8-1.5-1.5-4.5-1.6-5.3-.2zM392.7 804.7c-1 1 1.3 3.3 3.4 3.3 2.6 0 3.3-1.7 1-2.9-2.3-1.3-3.5-1.4-4.4-.4zM417.5 805c-.9 1.5 1.4 4 3.6 4 2.4 0 3.3-1.8 1.9-3.5s-4.6-2-5.5-.5zM350.6 806.8c-.2.4-.1 1.4.3 2.1 1.1 1.8 4.5 1 4.9-1.2.3-1.2-.3-1.7-2.2-1.7-1.4 0-2.7.4-3 .8zM411 806.9c0 .5.7 1.4 1.5 2.1 1.2 1 1.8 1 3 0 .8-.7 1.2-1.6.9-2.1-.7-1.2-5.4-1.2-5.4 0zM339.5 808.1c-.9 1.3 1.3 3 3.5 2.6.8-.1 1.5-.9 1.5-1.7 0-1.8-4-2.6-5-.9zM11.2 827.8c-5.2.2-6.3.6-5.8 1.8.3.9.6 8.6.6 17.2v15.7l6.5.2c7 .2 7.5-.3 5-4.7-1.8-3.1-2-10.9-.2-11.4 13.4-3.5 17.9-8.5 13-14.5-2.3-2.8-10.8-4.7-19.1-4.3zm9.6 9.3c.2 3.1-.2 5-1.2 5.8-2.5 2.1-3.6.3-3.6-5.5 0-5.2.2-5.5 2.3-5.2 1.9.3 2.2 1 2.5 4.9zM107 828.3c-.3.3-3 .7-6 .8-6.9.3-7.3.5-5.6 3.2 1.1 1.6 1.5 5.8 1.5 15.9 0 7.6.2 14.1.4 14.5.3.5 5.4.8 11.4.8h10.8v-5c0-4.7-.2-5-2.5-5-1.8 0-2.6.6-2.8 2.1-.2 1.6-1.2 2.3-3.3 2.6-1.6.3-3.1.2-3.4 0-.3-.3-.5-2.8-.5-5.6 0-3.9.3-4.7 1.2-3.8.7.7 2.3 1.2 3.6 1.2 2.1 0 2.3-.4 2-4.3-.3-4.2-.3-4.2-4.1-4.1l-3.8.1.3-5.6c.3-5.2.5-5.6 2.8-5.6 2 0 2.6.6 3 3 .7 3.9 3.6 4.5 5.2 1 .9-2.1.9-2.9-.4-4.1-1.5-1.5-8.8-3.1-9.8-2.1zM202.6 828.7c-.4.4.3 1.5 1.6 2.5 2.2 1.6 2.3 2.2 2.1 14.8-.1 7.9-.6 13.7-1.3 14.5-1.5 1.8-.6 2.1 6.8 2.9 5.2.6 6.3.4 6.8-.9.4-.9-.1-2.1-1-2.8-1.3-1-1.6-2.5-1.4-6.7l.3-5.5 5.8-.9c6.8-1 12.7-5.6 12.7-9.8 0-2.8-3.2-6.2-7.3-7.7-3.1-1.2-24-1.5-25.1-.4zM225 833c.5.9.7 2 .3 2.4-.3.3-.9 2.3-1.2 4.3-.5 3-1.1 3.9-3 4.1-1.3.2-2.7 0-3.2-.5-1.3-1.3-2-11.6-.8-12.3 1.7-1.1 6.9.2 7.9 2zM235.5 829.1c-.3.4-.1 1 .4 1.4.6.3.8 6.3.5 14.9-.2 7.9-.1 15.1.2 16.1.5 1.2 1.9 1.6 5.8 1.5 2.8 0 7.6-.1 10.6 0 6.5 0 8.3-1.6 7.8-7-.3-3.1-.6-3.5-3.5-3.8-2.4-.2-3.3.1-3.8 1.7-.3 1.2-.3 2.5 0 3.1.3.5-.6 1.5-2.1 2-4 1.5-5.4-.2-5.4-6.6 0-5.6.8-6.6 3-3.9.7.9 2.3 1.5 3.4 1.3 1.6-.2 2.2-1.1 2.4-3.9.4-5-1.7-6.6-5.8-4.5l-3.1 1.5.3-5.7c.3-5.6.4-5.7 3.2-5.7 2.3 0 3 .5 3.3 2.4.5 3.4 2.3 5.2 4.7 4.9 1.6-.2 2.2-1.1 2.4-4.1.5-6.1-.5-6.7-12.9-6.5-6 0-11.2.4-11.4.9zM264.7 828.7c-1.2 1.1-.7 2.1 1.3 2.8 1.8.6 1.9 1.4 1.6 14.2-.3 11.5-.6 13.8-2.1 14.9-1.6 1.2-1.5 1.3.2 2.2 2.3 1.3 9.4 1.2 11.1-.1 1-.8.8-1.3-.6-2.3-1.6-1.1-2-2.8-2.1-9.9-.1-4.7.2-8.5.6-8.5.4 0 2.4 3 4.3 6.7 1.9 3.6 4.8 8.4 6.3 10.5 2.5 3.4 3.2 3.9 5.5 3.3 1.5-.3 3.7-1.3 4.8-2 2.1-1.3 2.1-1.9 1.6-14.4-.4-11.5-.3-13.1 1.2-13.7 2.5-.9 1.9-2.1-1.5-3.3-3.8-1.3-9.6-1.4-10.3-.2-.3.5.5 1.6 1.8 2.4 2.1 1.4 2.4 2.3 2.5 9.7.2 10.6-1.1 10.2-6.5-1.9-2.2-5.1-4.7-9.6-5.5-10.2-1.6-1-13.2-1.2-14.2-.2zM318.3 829c-8.3.3-15.4.8-15.8 1.2-1.2 1.1.6 8.8 2 8.8.7 0 2.2-1.1 3.2-2.6 1.3-1.7 2.4-2.3 3.6-1.8 1.6.6 1.8 2.1 1.6 14.3l-.1 13.6 5.8.6c6.8.7 8 .3 6.2-1.8-.9-1.1-1.3-5.3-1.3-14.2v-12.6l2.8-.3c2.2-.3 3 .1 3.4 1.8.4 1.6 1.2 2 3.2 1.8 2.1-.2 2.7-.9 2.9-3.3.6-5.7-.6-6.1-17.5-5.5z"/><path d="M35.6 831.7c.3 1.8-.1 4.5-1.1 6.9-.9 2.1-2.5 7.5-3.7 11.9-3.5 13.9-3.5 12.6.3 12.4 1.9-.1 4.9.1 6.7.5 3.8.9 4.3-.7 1.1-3.3-2.2-1.7-2.2-1.8-.4-7.4 2.1-6.8 3.3-7.9 7.6-7.5 3 .3 3.5.8 5.6 6.3 1.3 3.3 2.1 7 1.8 8.1-.4 2 0 2.2 5 2.9 8.6 1 9.2-.2 4.7-9.3-1.6-3.1-4.2-9-5.7-12.9-1.5-4-3.6-8-4.6-8.9-1.2-1-4.5-1.8-9.8-2.1l-8.1-.6.6 3zm11.2 6.2c1.2 3.3-.5 5.8-3.2 4.8-1.2-.5-1.2-1.2-.4-4.1 1.4-4.4 2.3-4.5 3.6-.7zM341 830c-1.1.7-1.1 1.2-.2 2.2.8 1 .9 2.6.3 4.9-2.1 8.5-3.3 14-3.6 16.1-.2 1.3-.7 3.9-1 5.9-.6 3.2-.5 3.7 1.6 4.2 3.9 1 5.2-.6 5.3-6.5.1-6.4 1.7-8.8 5.8-8.8 2.6 0 3.2.7 6.1 7 2.8 6 3.7 7.1 6.6 8 3.6 1 9.1.3 9.1-1.1 0-.5-.6-.9-1.4-.9-2 0-3.6-2.4-6.3-8.8-3.7-9-5.5-16.4-4.9-19.4.5-2.7.4-2.8-3.7-2.9-2.3 0-6-.2-8.3-.4-2.3-.2-4.7.1-5.4.5zm8.9 11.2c1.2 3.4.1 5.1-2.6 4.1-1.4-.6-1.6-1.6-.7-5.1.9-3.1 2-2.8 3.3 1zM377.3 832c-5 3.7-6.7 8.1-6.1 15.5.7 8.6 6.4 14.1 15.7 15.2 5.2.6 11.1-1.6 11.1-4.2 0-1.8-2.2-1.9-6.6-.3-3.9 1.4-5.6.4-8.5-5.4-2.3-4.5-1.8-9.4 1.3-13.3 1.5-2 2.3-2.3 3.3-1.5.8.6 1.2 1.7.9 2.4-.3.7.2 1.8 1 2.5 1.3 1.1 2.1.9 4.4-1.1 3.2-2.5 7.2-7.8 7.2-9.5 0-1-12.2-3.3-17.3-3.3-1.3 0-4.2 1.4-6.4 3zM405.6 830.3c-1.4 1-1.6 1.8-.9 3.1 1.4 2.6.3 22.5-1.4 25.9-.8 1.6-1.2 3.1-.9 3.5.7.7 22.2.3 25.3-.5 3-.7 6.9-7.3 5.1-8.4-2-1.2-5.9.1-10 3.3-2.8 2.2-3.9 2.6-4.3 1.6-.7-2 0-23 .9-25.5.7-1.9.3-2.3-3.1-3.2-5.1-1.5-8.5-1.4-10.7.2zM74 830.7c-4.2.8-8.5 4.8-9.8 9.1-1.7 5.6-1.5 8.7.8 13.2 3 5.9 8 8.7 16.7 9.3 8.6.7 10.3-.5 10.3-7.5 0-4.5-.1-4.5-3.7-5.2-9.8-1.6-18 .2-8.7 2 3.9.7 7.4 4.8 5.7 6.5-.6.6-3 .9-5.4.7l-4.4-.3-1.3-6.3c-1.8-8-.9-14.8 2-16.3 1.2-.7 4.1-.9 6.9-.6 5.5.7 7-.5 4.3-3.4-1.7-1.9-6.9-2.4-13.4-1.2z"/><path d="M434 830.5c0 .3.7 1.7 1.6 3 .9 1.3 1.3 2.9.9 3.5-.4.7-.7 6-.7 11.8 0 8.2-.4 11.1-1.5 12.4-1.3 1.5-1.3 1.8-.2 2.2 1.1.4 21.4.2 24.2-.3.4 0 .7-2.2.5-4.8-.3-4.1-.6-4.8-2.5-5.1-1.8-.3-2.2-1.1-2.5-4.4-.4-4.9-2.7-7-5.8-5-1.1.7-2 .9-2.1.5 0-.5-.2-2.4-.4-4.3-.5-4.8.3-7 2.6-7 1.5 0 1.9.7 1.9 3.4 0 2.6.5 3.6 2 4.1 1.2.4 2.7.1 3.5-.5 1.6-1.3 2.1-7.5.7-8.4-1.1-.6-22.2-1.7-22.2-1.1zm16.3 22.2c2.3.7 2 6.1-.5 7.6-2.6 1.7-4.8-.9-4.8-5.5 0-3.4.3-3.9 1.8-3.3.9.4 2.5 1 3.5 1.2zM467.3 831.7c-3.4.7-4.6 2.8-3.8 7.2.8 4.6 1.5 5.4 7 7.1 6.5 2 8.4 4.3 7.5 9.1-1.3 6.8-4.5 7.8-7.2 2.2-.7-1.5-2.1-2.9-3-3.1-2.6-.5-6 3.5-5.6 6.6l.3 2.7 11.4.3c14.5.3 15.5-.3 14.9-9.6-.5-7.4-2.2-9.6-8.7-10.9-5.1-.9-7.2-3.3-5.5-6.1 1.4-2 6-1.8 8.5.4 1.9 1.7 4.1 1.8 5.7.2 1.8-1.8 1.4-4.6-.7-5.8-1.9-1-16.2-1.2-20.8-.3zM160.1 835.1c-6.2 2.5-6.6 7.4-1.1 13.6 7 8 7.5 15.8 1.4 19.8-3.2 2.1-3 3.5.6 3.5 3.5 0 9.2-4.6 11-9 .9-2.1.9-3.7.2-5.9-1.3-3.6-.2-4.7 2.9-3.1 3.8 2.1 4.6-.4 1.4-4.9-3-4.5-5.2-5.5-9.3-4.6-3.3.7-6.8-2.4-5.8-5 .4-1.2 1.4-1.4 4.6-.9 4.5.7 5.3-.6 1.8-3-2.5-1.8-4.2-1.9-7.7-.5z"/><path d="M144.3 848c-3.5 1.4-4.6 4.5-2.8 8 2.6 5.1 7.8 6.4 13.5 3.5 4.7-2.4 4.9-6.5.4-10.9-1.7-1.7-7.5-2-11.1-.6zm6.9 4.5c.8 1.9.8 2.9 0 3.7-2.3 2.3-6.1-1.4-4.8-4.7.9-2.3 3.5-1.8 4.8 1zM492.4 861.5c-.4.9-.2 2.1.4 2.7 1.5 1.5 4.4.1 4-1.9-.4-2.3-3.6-2.9-4.4-.8z"/></svg>