<svg version="1" xmlns="http://www.w3.org/2000/svg" width="666.667" height="1170.667" viewBox="0 0 500 878"><path d="M0 193.9v193.8l19.1-.1c10.5-.1 19.2.1 19.5.6.3.4-3 .8-7.3 1-7.6.3-7.8.4-7.8 2.8 0 2.5.1 2.5 7.8 2.4 5.3-.1 7.7.2 7.4 1-.2.7-4.1 1-12 .7-6.4-.1-15 0-19.1.4-7.1.7-7.6.9-7.6 3s.4 2.3 3.7 2c3.8-.3 26.8-.7 33.1-.6 1.7.1 3.2.5 3.2 1.1 0 .6-7.3 1-20 1H0v5h20.2c11.1 0 19.8.3 19.4.7-.4.4-6.2.8-12.9.9-28.5.3-26.7.1-26.7 2.9v2.5l20.6-.6c15.8-.5 20.5-.3 19.9.6-.4.6-2.4 1.1-4.4.9-2-.1-10.9-.1-19.8 0L.2 416l-.1 8c-.1 7.9 0 8 2.4 8 1.4 0 2.5.4 2.5 1 0 .5-1.1 1-2.5 1-1.8 0-2.5.5-2.5 1.9 0 2.6 2.1 2.9 14.4 2.3 9.1-.4 10.6-.2 10.1 1-.6 1.6-10.8 3.4-12.6 2.2-.5-.3-3.4-.2-6.4.1l-5.5.7v4.3c0 4 .2 4.4 2.7 4.8l2.8.4-2.7.2c-2.1.1-2.8.6-2.8 2.1 0 1.7.8 1.9 6.8 2.2 3.7.2 13.5 0 21.7-.3 13.9-.6 16.5-.5 15.4.5-.4.3-28.9 1.5-39.6 1.6-3.8 0-4.3.3-4.3 2.4v2.4l20.8-.5c11.4-.2 21.3-.6 22-.8.6-.2 1.2 0 1.2.5 0 .6-2.6 1.1-5.7 1.1-3.2.1-6.2.2-6.8.4-.5.1-7.9.3-16.2.3L0 464v20h2.9c3.1 0 4.9 1.4 3.1 2.5-.6.4-.8 1.1-.4 1.6.7 1.2 33.1.6 34.2-.6.4-.4.7-1.2.7-1.8 0-1.7 5.4-2.1 6-.5.6 1.7 3.5 39.9 3.5 46.3v5l-7.6.2c-5.2.1-8.4.7-10.2 1.9-2.2 1.4-5.1 1.7-17.4 1.7L0 540.2v3.4c0 2.8.4 3.4 2.1 3.4 1.1 0 3 .5 4.1 1.1 1.4.8 2.7.8 4.2.1 3.3-1.6 11.1-2.1 12.9-.8 2 1.6 8.7.8 8.7-.9 0-.7-.6-1.6-1.3-1.9-.6-.4-.1-.4 1.3-.1 1.4.3 5.9 1 10 1.6 4.1.6 7.8 1.4 8.2 1.7.3.4.8 4.3 1 8.6l.3 7.9-24.2-.2c-13.3 0-24.8.2-25.7.5-.9.3-1.6 1.3-1.6 2.1 0 1.1 2.2 1.4 12.3 1.3 34.7-.3 40.2-.1 38.1 1.5-2.2 1.6-5.8 2-4.9.5.4-.6-.6-1-2.4-1-1.6 0-3.3.5-3.6 1.1-.4.6-1.4.8-2.3.4-1-.4-2.2.2-3.3 1.6-1.1 1.4-1.8 1.8-2.3 1-.4-.6-.2-1.1.5-1.1.8 0 .8-.4-.1-1.5-.7-.8-1.7-1.2-2.3-.8-.6.4-2.6.6-4.4.5-4.1-.3-8.9 2.1-9.8 4.9-.5 1.6-1 1.8-1.8 1-.7-.7-1.2-1.9-1.2-2.8 0-1-.9-1.7-2.5-1.8-1.4-.1-2.9-.3-3.5-.5-.5-.2-2.2 0-3.7.4-2.5.7-2.8 1.3-2.8 5.2 0 3.4.3 4.2 1.5 3.8.8-.4 1.5-1 1.5-1.5 0-.4.7-.6 1.5-.3.8.4 1.5.1 1.5-.5s.4-1.1 1-1.1c.5 0 .7 1.3.4 3-.5 2.5-.3 3.1 1.7 3.9 1.9.7 2.8.5 4.1-1 1-1.2 1.8-1.5 2-.8.3.8 1.4.3 2.9-1.2 1.4-1.4 3.2-2.3 4.4-2.1 2.9.6 4 1.9 2.7 3.4-.8 1.1-.2 1.4 2.9 1.4 2.6.1 3.8-.3 3.6-1-.3-.6-.9-1-1.5-.9-1.6.4-2.2-2.5-.6-3.1.8-.3 1.4-.1 1.4.4s1.4 1.9 3.1 3.1c3.1 2.2 3.2 2.2 4.5.4 1.9-2.6 1.8-3.3-.8-3.7-2.1-.3-2.1-.4-.3-1.8 1.1-.9 1.6-1 1.1-.3-.4.8-.1 1.3.8 1.3s1.6-.6 1.6-1.4c0-1.3 3.9-3 4.9-2 .2.2-1 1.8-2.7 3.6-1.8 1.7-3 3.3-2.7 3.7.3.3 1-.1 1.5-.8.4-.8 1.5-1.1 2.3-.8.9.3 1.7.1 1.9-.5.3-.8 1-.8 2.4 0 1.5.8 2.4.8 3.2 0 .7-.7 1.2-.8 1.2-.3 0 .6.7 7.7 1.4 16 .8 8.2 1.7 20.4 2.1 27 .4 6.6.9 12.3 1.1 12.7.3.4.6 4.2.9 8.5.2 4.3.9 12.3 1.4 17.8.5 5.5.6 10.4.2 10.8-.7.7-16.9 1.6-31.1 1.8-1.9 0-5.1.1-7 .1-1.9.1-7.7.1-12.8.2l-9.2.1v75.8c0 50.3.3 75.6 1 75.2.6-.3 1-.2 1 .4 0 .5-.5 1.3-1 1.6-.6.3-1 2.4-1 4.5v3.8l8.6.7c10.7.9 16.7.2 34.4-4.3 6.7-1.6 8.1-2.4 12.9-7.3 5.5-5.6 8-6.5 22.1-8.5 1.9-.3 8.6-1.2 14.8-2 13.6-1.9 21.5-5.1 29.2-11.9 4.1-3.7 5.8-4.5 7.6-4.1 1.7.5 2.4.2 2.4-.9 0-.8 1.3-2.1 2.9-2.9 1.6-.9 5.4-3.8 8.5-6.7l5.6-5.1 5.5.7c4.4.5 5.5.4 5.5-.8 0-.9 3-2.5 7.8-4.2 4.2-1.6 8.6-3.4 9.7-4.2 1.1-.7 2.6-1.3 3.4-1.3.8 0 3.9-1.9 6.9-4.1 5.2-4 5.6-4.1 10.6-3.4 2.8.4 6.7.6 8.6.5 8.4-.4 23.4-.4 35 0 6.9.3 14.9.1 17.9-.4 6.9-1.1 6.6.2-1.5 6.5-3.2 2.5-6.4 5.6-7 6.8-2 3.9-5.7 7.1-11.3 9.7-3.1 1.3-6.4 2.9-7.3 3.4-1 .6-2.8 1-4 1-1.3.1-3.4.7-4.8 1.5s-5.2 1.4-8.4 1.5c-5.8 0-6-.1-10.8-5.1l-4.9-5.1-13.4.3c-7.4.2-13.7 0-14.1-.4-1.3-1.3-7.1-.7-8.3.7-.7.8-2.7 1.8-4.4 2.1-7.7 1.6-10.1 6.5-5.1 10.4 1.5 1.2 3.2 2.1 3.9 2.1 2.5 0 4.5 3.6 3.9 6.9-.4 1.7-1.1 3.4-1.5 3.7-1.8 1.1-.8 3.4 2.8 6.9l3.8 3.7 12-.6c14.7-.8 26 .6 29.1 3.5 2.4 2.2 5.4 2 8.6-.8 1.4-1.3 1.9-1.3 4.2.2 1.4 1 2.6 1.4 2.6 1.1 0-.4.9-.2 2.1.4 1.5.8 3.4.8 7 .1 4.7-1 5.2-.9 6.8 1.1 1.7 2 1.9 2 4 .6 1.2-.9 3.1-1.4 4.2-1.1 1 .3 3.8-.2 6.1-1.2 4.8-1.9 8.4-1.5 14.3 1.5 4.8 2.4 12.4 2.6 20.5.5 4.2-1.1 6.6-1.2 8.5-.5 3.7 1.4 7.7 1.2 9.9-.5 1.1-.8 2.7-1.5 3.5-1.5.9 0 5.2-3.2 9.6-7 4.4-3.8 10-8 12.5-9.4 4.1-2.2 5.4-2.4 13-1.9 6.5.4 9.9 0 14.4-1.4 5.3-1.6 6.1-2.2 6.8-5.2l.9-3.3 2.4 2.6c2 2.2 3.3 2.6 7.8 2.6 6.1 0 8.4-1.7 11.1-8.4.9-2.1 3.4-5.8 5.6-8.2 2.2-2.4 4-4.9 4-5.7 0-.7 1.2-2 2.8-2.9 1.5-.9 4-2.8 5.5-4.2 1.5-1.4 3.3-2.6 3.8-2.6.6 0 .7-.5.4-1-.3-.6-.1-1 .4-1 .6 0 1.1.5 1.1 1.1 0 .6 1.7.9 4.3.7 3.4-.2 4.2-.7 4.2-2.3 0-1.7.8-2.1 4.4-2.3 2.6-.2 5-1 5.6-1.9.8-1.1 2-1.4 3.8-.9 1.5.3 4.8.1 7.4-.5 2.6-.5 6.2-1.1 7.8-1.1 1.7 0 4.6-1 6.5-2.2 9.8-6 15-6.8 23.9-3.9 3.7 1.2 5.5 1.3 6.3.5 1.2-1.2 7.6-.5 9.6 1.1 2.5 2 3.3-.9 3-10.7l-.3-9.8-7.1-.4c-5.5-.4-7.4-.2-8.4 1-1 1.3-.9 1.7 1 2.4 2 .8 1.9 1-1.9 2.4-6.6 2.6-5 5.1 3.8 6.1 3.8.5 6.1 1.3 7.5 2.9l2.1 2.1-2.5-1.5c-1.7-1-5.4-1.5-11.3-1.6-4.9 0-9.1-.2-9.3-.4-.2-.2.8-3.3 2.2-6.8 2.1-5.1 2.5-7.3 2-11.4-.6-4.6-.5-4.9.7-2.6 1.1 2.2 2.1 2.6 8.2 3.1 3.9.3 7.4.2 7.9-.2 1.4-1.2-.3-2.9-2.9-2.9-2.8 0-4.1-1.5-2.3-2.7.7-.4 3.3-1 5.8-1.3l4.5-.5.3-6.4c.2-3.6-.2-6.9-.8-7.5-.5-.5-3.1-1.5-5.7-2.2-4.2-1.1-5.2-1-8.5.7-2 1-5.2 1.9-7 1.9-5 0-6.6 1.4-5 4.2.9 1.7.6 1.5-1.1-.5-1.7-2-2.4-4.1-2.5-7.3-.1-8.6-8.4-18.4-15.6-18.4-4.5 0-4.9.9-2.4 4.8 1.6 2.6 2.3 3 3.9 2.2 2.7-1.5 5.5.3 7.9 5 2.4 4.7 2.5 5.4.6 4.7-2.2-.9-3.7 1.7-3 5.2.5 2.3.3 3.1-.8 3.1-.8 0-3.1 2.6-5.2 5.7-2 3.2-3.6 5.2-3.6 4.5 0-2-3.1-1.4-3.7.7-.3 1.1-1.1 1.7-1.8 1.5-.7-.3-3.1.4-5.4 1.6-2.3 1.1-4.1 1.8-4.1 1.6 0-.2 2.9-2.5 6.5-5.1 4.6-3.3 7.1-4.4 8.5-4 1.4.4 2.2.1 2.7-1.2.3-1 1.4-3.6 2.4-5.8 1.5-3.6 2.3-7.8 2-11.3-.1-.6-1-1.2-2.1-1.2-1.2 0-2-.7-2-1.6 0-1.3-.7-1.5-3.1-1-3.2.6-7.3-1.3-8.3-4-.4-1.1 0-1.3 1.9-.8 2 .5 2.7.1 3.5-2.1 1.7-4.6-2.4-7.7-12-9-3-.4-5.9-1.3-6.5-2-.5-.8-1.9-1.5-3-1.8-1.1-.3.4-.5 3.3-.6 2.9 0 6.1.4 7.1 1.1 2.6 1.6 5.5.3 4.8-2.2-.4-1.5.4-2.2 3.9-3.6 2.5-.9 4.7-1.5 5-1.2.3.3-.7.8-2.1 1.2-2.9.7-3.4 3.6-.6 3.6 1 0 3.2-.5 4.9-1.1 2.6-.9 3.9-.7 7.4.9 6 2.9 15.8 3.4 15.8.8 0-.8-1.6-1.6-4.2-2-5.6-.9-14.8-3.9-14.8-4.9 0-1.2 5-.8 8 .8 2.8 1.4 4.8 1.6 22.3 1.3 4.4-.1 8.2.3 8.5.9 1.1 1.7 4.2 1.1 4.2-.8 0-1.9-2.2-2.6-11-3.6-10.4-1-8.4-3.6 3.8-4.8 10.5-1 9-2.7-2-2.1-6.8.3-11.2 1.2-16.3 3.1-6.4 2.4-7.2 2.5-9.5 1.2-2.2-1.4-3.4-1.3-10.5 0-4.4.8-10 2.1-12.4 2.8-2.9.9-5.2 1-6.8.4-1.3-.5-3.9-.9-5.7-.9h-3.4l.5-4.8c.3-2.6 1.1-8.5 1.9-13.2 1.4-8.4 2.5-16.1 6.5-46 1.9-13.6 3.6-22 3.8-18.2.1 1.7 5.1-1.5 5.1-3.4 0-1.8 1.3-2.4 3.7-1.8 2.3.6 3.9 4.4 1.9 4.4-.6 0-1.2.9-1.3 2-.1 1.1.4 2 1.3 2 .8 0 1.4-.5 1.4-1 0-.6.7-1 1.7-1 1.5 0 1.5-.2-.1-1.9-1.7-1.9-1.7-2 .2-3.2 1.9-1.2 1.9-1.2 0-3.1-1.9-1.9-2.1-1.9-3.9-.2-1.8 1.6-1.9 1.6-1.9-.4 0-3.5-2-2.5-3.8 1.8-.9 2.2-2.1 4-2.6 4-.9 0-.4-3.1.9-6.4.6-1.3.5-1.7-.3-1.2-.7.4-1.4-.3-1.8-1.9-1.1-4.3-2.1-4.1 20.6-4.4 7.4-.1 19.5 0 26.8.4l13.2.5v-6.2l-30 .4c-23.1.2-29.9 0-29.6-.9.3-.7.8-5.6 1.2-11l.7-9.8 7.6.1c12.2.1 12.1.1 8.6 2.4-1.6 1.1-4.6 2-6.6 2-3.5 0-6.6 2-5.2 3.3 1.3 1.3 9.5.7 12.2-.9 2.6-1.6 3.2-1.5 8.6.5 4.9 1.9 7 2.1 13.4 1.5 7.6-.6 10.3-2 7.7-3.9-1.5-1.2-4.4-1.2-9.3-.1-2 .5-4.7.2-7-.5-5-1.7-6-2.6-4.6-4 .9-.9 1.9-.8 3.8.5 2.5 1.6 11.9 2.2 26.8 1.7 1-.1 1.7-.9 1.7-1.9 0-1.7-1-1.9-9.2-2.1-5.1-.1-11.1-.7-13.3-1.2-4.3-1.2-19.3-2.8-28.8-3.2-4.7-.1-5.6-.5-5.1-1.7.3-.8 1-6.5 1.5-12.5.5-6.1 1.3-13.5 1.8-16.5s2-14.3 3.5-25c1.4-10.7 3-21.1 3.4-23l.7-3.5 12.5-.6c13.6-.7 21-1.7 21-2.8 0-.4 1.6-1.5 3.5-2.4 3.9-1.9 4.3-2.8 1.8-4.8-1.1-1-4-1.3-9.5-1.2-14 .3-8.1-3.8 6.7-4.7l9-.5.3-219.3L500 0H0v193.9zM267 16.7c2.2.7-1.6 3.3-4.9 3.3-2.7 0-8.1 4.5-8.1 6.7 0 .8 1.2 2.9 2.7 4.8 2.1 2.6 3.8 3.6 7.1 4.1 2.5.4 4.1 1.1 3.9 1.8-.3.7-5.3 1.1-16.3 1.1-16.2 0-19.8-1-11.2-3 3.1-.8 4.9-2 6.5-4.4 1.3-1.9 2.3-3.8 2.3-4.2 0-.5-1.4-2.4-3.1-4.4-2.5-2.9-3.8-3.5-6.9-3.5-3.9 0-5.6-1.2-4.5-3 .6-1 29.2-.4 32.5.7zm46.1 161.4c6 2.1 7.1 3.7 6.4 9.4-1 7.9-.9 12.2.2 24.3 1.3 14.2.9 16.2-2.6 16.2-1.4 0-4.3.5-6.4 1.1-5.4 1.5-6.7.1-6.7-7 0-3.1.5-8.5 1.1-12.1.6-3.6 1.1-7.6 1.2-8.9.2-1.9 1-2.7 4.1-3.5 4.4-1.2 6.7-3.9 4.9-5.7-.7-.7-2.1-.8-4.5-.1-4 1.1-6.5.1-7.7-3.1-1.4-3.7 2.3-11.7 5.4-11.7.7 0 2.7.5 4.6 1.1zm-50.2 19.6c-1.4 4.5-1.8 4.9-5.8 5.7-3.3.7-5 .5-7.6-.7-3.8-1.8-4.8-4.3-4.3-10.3.2-3.1.8-4 2.8-4.5 1.4-.4 3.9-1.1 5.5-1.6 2.7-.9 3.4-.6 6.9 2.9l4 3.8-1.5 4.7zm148.9-5.7c3.5 2.2 4.1 5.1 2.1 10.8-.9 2.7-1.8 3.3-6.5 4.3-4.8 1.1-5.6 1-7.3-.5-3.2-2.9-3.6-7-1.1-12.1 2-4.1 2.5-4.5 5.8-4.5 2.1 0 5.2.9 7 2zm-269.3 5c.9 1 1.9 3.4 2.2 5.5.6 3.4.3 4-3.2 6.9-3.3 2.8-3.6 3.5-2.6 5.3 1.4 2.7 1.4 5.8 0 8.1-.8 1.3-.7 3 .3 6.7 2.2 7.7 1.7 8.5-5.3 8.5-5.6 0-6-.2-5.4-2 .5-1.6 1.2-10.5 1.4-19.2.1-1.1 1.1-1.8 3.4-2 4.2-.4 4.2-3 0-4.3-7.3-2.4-9.5-8.4-4.8-13.1 2-2 3.3-2.4 7.5-2.3 3.3.2 5.5.8 6.5 1.9zm37.3 8.2c1.7 1.4 1.5 5.3-.4 9.4-1.5 3.2-1.5 3.6 0 5.3.9 1 1.4 2.5 1 3.5-.4 1 .1 2.5 1 3.5 1.5 1.6 5.2 18.9 4.3 19.8-.2.1-1.4.4-2.8.5-2.2.3-2.4-.1-2.7-4.5-.3-5.3-.5-5.4-7.7-6l-5-.4.2-6.8c.1-7 1.2-8.9 4.5-8.1 2.2.5 5.3-1.8 4.4-3.2-.4-.7-2.3-1.2-4.3-1.2-4.8 0-7.3-2.4-7.3-6.8 0-5.6 2.4-7.5 8.5-6.7 2.7.4 5.6 1.2 6.3 1.7zm36.9 1.4c4.7 6 2.8 11.6-4.4 12.7-4.5.8-7.3-.7-7.3-3.8 0-1.3-.4-2.7-1-3-1.5-.9-1.2-4.8.6-7.4 1.4-2 2.3-2.2 5.8-1.8 2.8.4 4.7 1.4 6.3 3.3zm34.8 3.6l3 .3.3 9.7.3 9.7-6.7-.1c-4.3-.1-6.8-.6-7.1-1.4-.6-1.5 1.5-15.8 2.8-19.2.9-2.3 1.1-2.3 2.7-.9.9.8 3.1 1.7 4.7 1.9zm164.6 13.7c.9 7 1.4 14.1 1.1 15.9-.4 2.8-.9 3.2-7.2 5.1-3.7 1.2-7.8 2.1-9.1 2.1h-2.2l.6-13.3c.7-14.5 2.1-21.7 4-19.8 1.6 1.6 4.7 1.3 5.4-.5.6-1.6 4.4-3.5 5.3-2.7.3.2 1.2 6.2 2.1 13.2zM218.5 227c0 .8-.9 1.5-2.1 1.5-1.1.1-3.3.9-4.7 1.8-2.1 1.3-2.7 2.6-2.8 5.5-.1 5.6-1.3 8.6-3.3 9-1.7.4-1.8-.3-1.5-8.1.2-4.6.9-9.1 1.6-9.9 1.7-2 12.8-1.9 12.8.2zm-125.7 1.6c3.1 2 3.2 10.4.1 13.3-2.9 2.7-4 11.8-1.6 12.7 1.8.7 2.6 4 3.1 13.2.2 4.1-.1 6.5-.8 6.7-.6.2-4.6.6-8.9 1l-7.9.6.7-8.3c.4-4.6.8-9.9 1-11.8.2-3.1.6-3.6 3.7-4.1 4.5-.7 5.8-1.6 5.8-4 0-2.5-2.2-3.4-4.9-2-3.1 1.7-7.3-2.4-7.2-6.9.1-7 1.4-9.4 6.2-11.2 4.6-1.7 6.9-1.6 10.7.8zm257 4.1l-.3 2.8-13.6.6c-7.5.4-16.7 1.2-20.5 1.8-3.8.6-10.7 1.6-15.4 2.1-4.7.6-10.7 1.4-13.5 1.7-2.7.4-6.8.7-9 .7-3.7.1-4-.1-4.3-2.8-.2-1.6.1-3.3.7-3.9.6-.6 6.9-1.2 14.8-1.3 7.6-.2 17-.9 20.8-1.5 6.1-1 12.6-1.5 35.8-2.7 4.7-.2 4.8-.2 4.5 2.5zm-119.9.3c3.1.5 13.1 1.5 22.2 2.2 15.9 1.1 16.7 1.2 16.6 3.2-.1 1.2.3 3.1.7 4.4l.8 2.3-16.4-.7c-8.9-.4-17.8-.6-19.7-.5-3.8.1-18.2-2.6-19.3-3.7-.4-.4-.4-2.1 0-3.7 1.2-4.3 5.4-5.2 15.1-3.5zm-55.1 11.2l.3 3.8H147v-2.4c0-3.1 1.3-3.5 9.4-3 5.4.4 6.7.2 7.2-1.1.5-1.2 1.8-1.5 5.8-1.3l5.1.3.3 3.7zm-52.5-2.5c.9 1.5-.5 7.2-1.9 7.7-1.5.6-13.3 1.9-17.9 2-2.9.1-3-.1-3.3-4.6l-.3-4.7 6.3-.4c12.8-.7 16.7-.7 17.1 0zm15 .8c3.4.5 3.7.8 3.7 4v3.4l-7-.2c-7.6-.2-8.1-.7-6-6.2.7-1.9 1.5-2.4 3.2-2.1 1.3.3 4 .8 6.1 1.1zm313.8 3.5c1 4.4-.6 6.2-5.8 6.6-12.4.9-16.3 1.4-20.3 2.4-2.5.6-6.3 1.5-8.5 2-6.8 1.5-11.8 2.7-17 4.3-26.3 7.6-33.8 8.6-34.9 4.3-1.5-5.4-.9-6.1 5.7-7.5 3.4-.7 7.6-1.7 9.2-2.3 1.7-.5 6.4-1.6 10.5-2.3 4.1-.7 13.8-2.9 21.5-4.8 12.1-3.1 18.8-4.3 33-6.1 5.2-.6 5.9-.2 6.6 3.4zm-129.1-.5c0 1.3.7 4.5 1.6 7.1.8 2.5 1.4 4.7 1.2 4.9-.2.1-2.2.5-4.5.8-3.6.4-4.3.2-4.3-1.2 0-3-2.2-4.1-8.5-4.1-3.4 0-6.4-.2-6.7-.5-.3-.3-.2-2 .1-3.8.7-3.2.7-3.2 8.5-3.9 4.4-.4 8.4-.9 9-1.2 2.5-1 3.6-.5 3.6 1.9zm-104 4.2c-.1 1-1.1 3.1-2.4 4.6-2 2.5-3.1 2.9-12.1 3.8-5.4.6-11.9.9-14.4.7-7.6-.5-22.9 1.3-24.2 2.8-1.8 2.1.8 2.6 11.5 2.2l9.4-.3.5 3c.3 1.6.3 3.2 0 3.5-.2.3-3.8.6-7.8.8-7.7.4-10 1.6-8.9 4.6.5 1.3 2.2 1.6 8.7 1.6 4.4 0 7.8.2 7.6.5-.3.2-4.3.7-8.9 1-4.7.4-8.8.9-9.1 1.1-.4.2-1.4.1-2.3-.2-1.2-.5-1.4-1.8-1-6.7.3-4.2.1-7-.8-8.7-1.2-2.2-2-2.5-7.3-2.5h-6v-9l10 .3c6.1.2 11.2-.1 13-.8 1.7-.6 6.6-1.4 11-1.6 4.4-.3 12.3-.8 17.5-1.3 15.6-1.3 16-1.3 16 .6zm34.3 1c2.2.4 2.7 1.1 2.7 3.4 0 1.6.7 3.2 1.6 3.7.9.5 1.4 1.4 1 2.1-1.1 1.7-2.3 1.3-2.9-.8-.4-1.6-1.8-2-9.6-2.6-9.1-.7-9.1-.7-9.1-3.4 0-1.5.3-3.1.8-3.5.7-.7 9.4-.1 15.5 1.1zM139.8 255h4.5l-.6 3.6c-.4 2.4-.1 4.4 1 6 1.7 2.7 1.4 2.9-4.4 3.6-2.6.4-3 .2-2.2-.9.6-.7.9-2 .5-2.8-.4-1.2-1.7-1.4-6.6-.8l-6 .6v-10.6l4.6.7c2.6.3 6.7.6 9.2.6zm335.2 1.9c1.4.9 3.5 3.8 4.8 6.3l2.3 4.6-2 3.9c-3.5 7-4.4 7.1-14.8 3.2-3-1.1-5.6-6.5-4.9-10 .5-2.8 4.1-8.7 6.1-10.1 1.4-1 5.5 0 8.5 2.1zm-244-.5c0 .7-1.1 2.3-2.4 3.5-2.1 2-3.8 2.4-10.8 2.7l-8.3.3 4-1.5c2.2-.8 4.9-1.8 6-2.1 1.1-.4 2.6-1.4 3.2-2.4 1.5-2 8.3-2.4 8.3-.5zm78.5 3.6c-2.8 1.2-8.3 1.2-9 0-.4-.6 1.6-1 5.2-.9 4.2 0 5.2.3 3.8.9zm-58.5 1.7c.2.2-2.7.3-6.5.2-3.9-.1-7.6 0-8.4.2-.7.2-1.6-.2-1.8-.8-.3-1 1.5-1.1 7.9-.6 4.6.3 8.5.8 8.8 1zm168.3 4.5c.8 6.1-.3 7.3-8 9.1-12.6 2.9-12.8 2.9-14.7.8-1-1.1-1.5-2.5-1-3.2.4-.7 1-2.6 1.3-4.3.6-2.9 1-3.1 10.6-5.1 5.5-1.2 10.3-2 10.6-1.9.4.2.9 2.2 1.2 4.6zM205.5 263c.3.5.3 1-.2 1.1-.4 0-3.6.2-7 .6-4.1.3-6.3.1-6.3-.5 0-1 2-1.3 10.7-2 1.2-.1 2.5.2 2.8.8zm115 21.8c-.3 11.4-.7 22.9-1 25.7-.5 5-1.2 21.2-2 44.5-.2 6.9-.9 21.5-1.5 32.5-.5 11-1.2 24.7-1.5 30.5-.8 16.1-1.4 28-2.5 45.5-.6 8.8-1.5 23.9-2 33.5-.6 9.6-1.2 18.2-1.4 19-.3.8-.7 6.9-1 13.5-1.9 39.4-2.4 44.3-4.2 47-1.2 1.7-1.4.8-1.4-8.1 0-5.6.4-19.1.9-30 .6-10.9 1.3-26 1.6-33.4.3-7.4.8-17.1 1-21.5.3-4.4.9-19.3 1.5-33 .5-13.8 1.4-34.2 1.9-45.5.6-11.3 1.3-31 1.6-43.8.3-12.8.8-23.8 1-24.5.2-.7.6-7.7.9-15.7.5-13.8 1.7-44.1 2-52.5.1-3.3.5-4 2.6-4.5 1.4-.4 2.8-.5 3.2-.3.4.2.5 9.7.3 21.1zm14.6-17.6c4.4.1 4.3.1-1.1.7-6.5.8-7 .6-7-2.1 0-2 .1-2 1.8-.5 1.1 1 3.8 1.8 6.3 1.9zm-26.5 25c-.4 15-1.1 37.2-1.6 49.3-.6 12.1-1.5 33.9-2 48.5-2.3 58.6-3 75.2-4 92-.5 9.6-1.2 24.9-1.5 34-.6 17.5-2.2 55.1-3 68.5-.2 4.4-.7 13.6-1 20.5-3.3 69.7-4.3 88.9-4.9 89.9-.6.9-1.1.9-2.1.1-1.5-1.2-1.4-9.3.6-42 .5-9.1 1.4-28.7 2.1-43.5.6-14.9 1.2-29 1.3-31.5.1-2.5.4-17.6.6-33.5.1-16 .6-35.1 1-42.5.8-15.1 1.7-34.9 2.4-58 .3-8.5 1-26.3 1.5-39.5 3.6-88.5 5.1-135.1 4.4-136.9-.5-1.4 1.2-2.2 4.9-2.5 1.7-.1 1.8 1.3 1.3 27.1zm-65.1 83c-.1 59.6-.5 116.4-.9 126.3-.7 22.5-1.4 58.1-2.2 125.2-.4 28.8-1.1 52.3-1.5 52.3-.5 0-.6-90.3-.3-200.8.3-123 .2-202.5-.4-205.4-1.1-5.4-.9-5.8 2.8-5.8h2.7l-.2 108.2zm-23.8-101.6l-.3 5.7-8.5.3c-4.8.2-7.3 0-5.9-.4 3.7-1.1 3.2-3.7-.7-3.7-4 0-4.6-.6-3.4-3.8.9-2.4 1.6-2.6 7.3-3 3.5-.2 7.5-.4 9.1-.5 2.7-.2 2.7-.2 2.4 5.4zm32.8 79.1c-.4 46.7-.8 88.2-1 92.3-.8 21.5-1.5 49.5-2 74.5-.3 15.4-.8 33.6-1 40.5-.3 6.9-.8 30.3-1.1 52-.3 21.7-.7 42.4-.9 46-.3 3.6-.5 9.4-.5 12.9s-.3 6.2-.6 5.9c-.9-1 0-177.9 1.1-202.3.2-3.9.4-39.6.6-79.5.1-39.9.5-84 .8-98 .4-14 .3-26.3-.2-27.3-.6-1.4-.3-1.7 2.4-1.7h3.2l-.8 84.7zM46 272c6.3 3.2 9.3 9 4.6 9-3.3 0-4.7 2.1-4.4 6.5.2 4.1-1.1 5.5-5.5 5.5-2.4 0-3.1-.7-4.5-4-.9-2.2-2.5-4.3-3.4-4.6-3-.9-2.4-7 1-10.1 2.5-2.3 5.6-4.1 7.5-4.2.4-.1 2.5.8 4.7 1.9zm281.3 2.5c-.7 2.1-1.3 1.9-1.3-.6 0-1.1.4-1.8 1-1.4.5.3.7 1.2.3 2zm-184.6 7.6c.2 11.4.3 29 .2 31.4-.1 1.1.1 3.8.4 6 .3 2.2.9 26.3 1.3 53.5s.8 53.1.9 57.5c.8 25.4 1.5 138.1 1 140.7-1.6 7.2-2.2-1.2-2.3-35-.1-19.6-.4-42.5-.7-50.7-.2-8.3-.7-25.4-1-38-.3-12.7-.8-31.1-1-41-1.4-55-1.8-76.9-1.9-103.3 0-16.2.1-29.6.3-29.8 1.7-1.7 2.6 1.3 2.8 8.7zm-18.2-3.4c-.3 2.5-.6 4.8-.8 4.9-.2.2-4.1.6-8.8.9-4.6.2-10.6.9-13.4 1.5-2.7.6-9.5 1.5-15 2s-14.7 1.7-20.5 2.5c-5.8.9-11.4 1.7-12.5 1.8-2.9.3-3.5-6.7-.7-8.2 4.7-2.5 37.9-6.7 49.2-6.2 2 .1 5.4-.5 7.5-1.2 2.2-.7 6-1.5 8.5-1.6 2.4-.1 4.6-.4 4.9-.7 1.4-1.4 2 .2 1.6 4.3zm9.6 1c0 3.2.2 8.3.4 11.3.4 7.3 1.3 52.2 2 95.5.3 19.2.7 38.4 1 42.5.5 8.6 1.3 58.1 2 128 .3 26.7.8 67.7 1.1 91.1.4 27.6.3 42.8-.3 43.2-.7.4-1.3-8.3-1.7-24.1-.4-13.6-.9-29.2-1.1-34.7-.3-5.5-.7-28.5-.9-51-.6-44.7-1.4-79.1-2.1-90-.3-3.9-.7-17.6-1-30.5-.4-12.9-1.3-43.3-2-67.5-.8-24.2-1.8-60.2-2.1-80-.4-19.8-1.1-36.5-1.5-37.1-1.2-1.5 0-2.4 3.3-2.4 2.7 0 2.8.1 2.9 5.7zm201.2-5c-.7.2-1.9.2-2.5 0-.7-.3-.2-.5 1.2-.5s1.9.2 1.3.5zm-7.1 7.1c-1 .7-1.2 1.6-.6 2.1.5.6 15.2 1.1 34.2 1.2 23.4.2 33.2.5 32.9 1.3-.3.8-10.2 1.1-32.3 1.1-23.7 0-32.5.3-34.1 1.2-1.2.7-2.3 1.3-2.5 1.3-.2 0-.2-2.9 0-6.4.3-6.1.5-6.4 2.1-4.8 1.6 1.5 1.7 1.8.3 3zm87.2.3c-1.2 47.4-1.5 57.2-1.8 57.8-.2.3-.7 7.1-1 15.1-.4 8-.9 17.6-1.2 21.5-.3 3.8-.7 9.5-.9 12.5-.4 5.4-3 46.6-4 64.5-.3 4.9-1.2 17.8-2 28.5-2.2 28.9-3.3 44.6-4.5 63-.6 9.1-1.6 21.2-2.1 26.9-.5 5.8-.9 11.3-.9 12.3s-.5 1.8-1.1 1.8c-1.2 0-.6-26.9 1.2-53.5.5-7.7 1.4-23.4 1.9-35 .6-11.5 1.2-21.6 1.4-22.5.3-.8.8-11.9 1.1-24.5.4-12.7.8-23.2 1-23.5.4-.7 1.4-18.2 2.5-44 .5-11.8 1.4-29.2 2-38.5.6-9.4 1.7-27.7 2.4-40.8.9-18.6 1.5-24 2.7-24.8 2.3-1.4 3.4-.4 3.3 3.2zm57.4-1.5c.9.2 1.2 3.3 1.1 11.5-.1 11.8-1.2 16.4-3.7 15.4-.9-.3-4.2-.8-7.5-1.2-3.7-.4-6.1-1.1-6.4-2-.9-2.3 3.8-20.4 6.3-24.5.5-.7 6.9-.2 10.2.8zm-125.5.1c-1.8.2-4.8.2-6.5 0-1.8-.2-.4-.4 3.2-.4s5 .2 3.3.4zm7.4-.1c-.3.3-1.2.4-1.9.1-.8-.3-.5-.6.6-.6 1.1-.1 1.7.2 1.3.5zm8 0c-.3.3-1.2.4-1.9.1-.8-.3-.5-.6.6-.6 1.1-.1 1.7.2 1.3.5zm9.4.5c-1.6.6-2.8.6-3.5-.1-.7-.7.1-1 2.5-.9 3.2 0 3.3.1 1 1zm79.9-.1c3 .4 5.3.8 5 .9-1.7.8-6.9 1.1-17.5 1.1-13-.1-18.5-.7-18.5-2.2 0-1 22.5-.9 31 .2zm-67.3.6c-.3.3-1.2.4-1.9.1-.8-.3-.5-.6.6-.6 1.1-.1 1.7.2 1.3.5zm19.9 21.1c-.3 12-.8 26.1-1.1 31.3-.3 5.2-1 20.1-1.5 33-.6 12.9-1.3 26.9-1.5 31-.3 4.1-.9 16.7-1.5 28-.5 11.3-1.2 24.3-1.5 29-.9 16-3.5 63.5-5 91-.8 15.1-2.4 41.9-3.5 59.5s-2.7 44.4-3.6 59.5c-.8 15.1-1.7 28.1-1.9 28.8-.3.6-.9 1.2-1.5 1.2-.8 0-1-2-.6-6.3.3-3.4.8-15.4 1.1-26.7.3-11.3.8-22.8 1-25.5.5-4.5 1.5-32.7 3-78.5.3-8.5 1-22 1.5-30 .6-8 1.5-26.2 2.1-40.5 1-25.8 1.3-31.3 4.3-91 1.7-35.4 4.5-95.9 4.8-105.4.1-5.1-.2-6.6-1.6-7.6-1.7-1.3-1.7-1.3.1-1.8 1-.3 3.1-.5 4.7-.6l2.9-.1-.7 21.7zm-220.9-3.1c.1 8.2.5 45.9 1 83.9 1.2 100.3.7 187.1-1.1 189.7-1.3 1.8-1.4 1.6-1.8-2.9-.2-2.6-.5-19.7-.7-37.8-.1-18.2-.4-44.3-.6-58-.2-13.8-.7-60.8-1.1-104.5-.4-43.7-1.1-80.5-1.5-81.8-.6-1.5-1.6-2.2-2.7-2-1.5.3-1.7 1.6-1.5 10.8 0 5.8.4 31.9.8 58s.9 50.4 1 54c.6 14.7 2 114.9 1.8 133-.2 10.7-.3 21.6-.3 24.2 0 4-.3 4.6-1.7 4.1-1.3-.5-1.5-.2-1.1 1.5.4 1.2.2 2.4-.2 2.7-1.2.7-1.9-12-2.5-48.5-.4-17.9-.8-35.4-1-39-.2-3.6-.6-19.1-1-34.5-.3-15.4-1-40.8-1.5-56.5-1.4-42-2.6-102.8-2.1-109.7.1-.8 2.7-1.3 7.9-1.5 4.2-.2 8.2-.3 8.7-.3.6.1 1.1 6 1.2 15.1zm24 1.1c.9 134.8 0 383.3-1.4 385.6-1.7 2.8-2.2-5.8-2.4-43.3-.1-22.8-.1-42.4-.1-43.5.3-18 .2-68.4-.3-116.5-.3-33.3-.8-90.4-1.1-126.9-.3-36.5-.8-67-1.1-67.7-.9-2.5.6-4.4 3.4-4.4h2.8l.2 16.7zm9.7-14c.6 2.8-.1 238.2-.7 243.5-.2 1.6-.4 10.9-.5 20.8-.2 15.3-.4 18-1.7 18-.8 0-1.5.7-1.5 1.7 0 .9-.3 1.4-.6 1-.9-.9-.4-285.3.5-287.5.1-.1.9-.2 2-.2 1.2 0 2.1.9 2.5 2.7zm236.6 1.6c0 .9-28 0-29-.9-.2-.3 6.2-.4 14.3-.3 8.1.2 14.7.7 14.7 1.2zm-83.7 3.4c1.8 1.1-.6 2.1-2.9 1.3-1.4-.6-7.2-1-12.9-1-6.5 0-10.6-.4-11.1-1.1-.4-.8 3.1-.9 12.7-.4 7.4.4 13.7.9 14.2 1.2zm15.5 1.3c3.9 1.8 4.2 2.2 4.2 5.7 0 6.2-1 8.1-4.4 9.3-6 1.9-13.6-1.9-13.6-6.9 0-4.5 4.5-9.8 8.5-10 .6 0 2.9.8 5.3 1.9zm-287.8.4c0 .8.3 2.1.6 2.9.3.9-.3 1.6-1.6 2-2.9.8-2 3.1 1.3 3.5 1.5.2 2.7.8 2.7 1.4 0 .6-1.3.8-3.4.4-2.2-.4-6.2.1-11.2 1.4-4.2 1.2-8 1.7-8.4 1.3-.4-.4-1.3-3-1.9-5.7-1.7-6.8-1.1-7.1 17.7-8.4 3.1-.2 4.2.1 4.2 1.2zm340.9.1c.3.4-2.7.5-6.7.3-3.9-.2-7.2-.7-7.2-1.2 0-.9 12.8-.1 13.9.9zm9.4.2c-1.3.2-3.5.2-5 0-1.6-.2-.5-.4 2.2-.4 2.8 0 4 .2 2.8.4zm-397.2 9.8c2.6 9.7 2.5 10.2-2.1 12.5-2.2 1.1-5.5 3.4-7.5 5.1-2 1.8-3.9 2.8-4.3 2.5-.4-.4-.9-6.6-1.1-13.8l-.3-13.1 3.5.7c2.2.4 3.8.2 4.2-.4.4-.6 1.8-1 3.2-.8 2.3.3 2.8 1.1 4.4 7.3zm280.2-6.8c-.7.2-1.9.2-2.5 0-.7-.3-.2-.5 1.2-.5s1.9.2 1.3.5zm18.5 1c-1 .2-2.6.2-3.5 0-1-.3-.2-.5 1.7-.5s2.7.2 1.8.5zm13.7.2c3.8.8 3.7.9-2.2 1-3.4 0-6.5-.4-6.8-.9-.7-1.2 3.4-1.2 9-.1zm66.2-.3c-.3.3-1.2.4-1.9.1-.8-.3-.5-.6.6-.6 1.1-.1 1.7.2 1.3.5zm14.8.5c-1.8.5-3.3.5-3.9-.1-.7-.7.4-1 3-.9 3.9.1 3.9.1.9 1zm-335 4.9c-.3.5-1.5 1-2.5 1s-2.2-.5-2.5-1c-.4-.6.7-1 2.5-1s2.9.4 2.5 1zm4.8.7c-.7.2-1.9.2-2.5 0-.7-.3-.2-.5 1.2-.5s1.9.2 1.3.5zm7.5 0c-1 .2-2.8.2-4 0-1.3-.2-.5-.4 1.7-.4 2.2-.1 3.2.1 2.3.4zm314.7.8c8.9 1.4 39.5 8.5 46.7 10.9 12.1 3.9 13.8 5 13.8 9.1 0 1.9-.4 3.5-1 3.5-1.2 0-17.9-4.8-18.9-5.5-.5-.2-4.6-1.2-9.2-2.1-4.6-.9-9.4-2.3-10.6-3-1.2-.8-3.2-1.4-4.4-1.4-2.5 0-16.3-2.5-22.6-4.2-3.7-.9-4.3-1.4-4.3-3.7 0-3.4 1.7-5.2 4.4-4.6 1.2.2 3.9.7 6.1 1zM73 308.1c0 2 .4 2.1 6.3 1.4 3.4-.3 7-.9 8-1.1 1.6-.5 1.7.6 1.7 12.3 0 7.1.4 19.8 1 28.3.5 8.5 1.7 29.7 2.5 47s1.7 35.1 2 39.5c.7 11.9 1.4 27.6 2 40.5.3 6.3.9 20.7 1.5 32 2.9 61.3 3.2 69.2 2.1 70.3-2.2 2.2-2.9-.9-3.5-14.8-.3-7.7-1.2-23.7-2-35.5-2.6-37-3.6-51.9-4.6-69.5-1.5-26.2-2-34-3-48-.5-7.2-1.2-17.3-1.5-22.5-.2-5.2-1.2-21.4-2.1-36-1-14.6-1.7-29.4-1.8-33-.1-6.3-.2-6.5-2.9-6.8-2-.2-3.5.5-5.5 2.5-1.5 1.5-3.8 3.5-5.1 4.3-1.3.8-4.5 3.1-7.2 5-2.6 1.9-7.1 5.1-9.9 7-2.9 1.9-9.7 7.3-15.3 12-15.9 13.4-17.7 14.6-18.8 12.9-.5-.8-.9-2.9-.9-4.7 0-3.7.7-4.5 12.4-14.2 14.4-11.9 18.7-15.1 25.4-18.7 3.7-1.9 7.8-4.5 9.2-5.7 3.4-3 8.3-6.5 9.3-6.6.4 0 .7.9.7 2.1zm21.4 1c-.3.5-1 .7-1.5.3-.5-.3-.7-1-.3-1.5.3-.5 1-.7 1.5-.3.5.3.7 1 .3 1.5zm25.6-.2c3.4.6 1.5.8-7.7.9-7.5.1-12.3-.2-12.3-.8 0-1.2 13.3-1.2 20-.1zM8.3 312.7c-.7.2-2.1.2-3 0-1-.3-.4-.5 1.2-.5 1.7 0 2.4.2 1.8.5zm20.5 0c-1.5.2-4.2.2-6 0-1.8-.2-.6-.4 2.7-.4 3.3 0 4.8.2 3.3.4zm355.7 11c.4 5.6.4 12 0 14.3l-.7 4-7.1-.7c-4-.3-7.5-1.1-7.9-1.6-1.3-2.1.3-11.7 3.2-19.2 3-7.8 2.7-7.5 7.4-7.3l4.4.2.7 10.3zM125 314.4c0 .3-.4.8-1 1.1-.5.3-1 .1-1-.4 0-.6.5-1.1 1-1.1.6 0 1 .2 1 .4zm-15.7 1.3c-1.3.2-3.3.2-4.5 0-1.3-.2-.3-.4 2.2-.4s3.5.2 2.3.4zM7 318.4c0 .2-.7.6-1.5 1-.8.3-1.5.1-1.5-.4 0-.6.7-1 1.5-1s1.5.2 1.5.4zm6.7.2c-.3.3-1.2.4-1.9.1-.8-.3-.5-.6.6-.6 1.1-.1 1.7.2 1.3.5zm81.8 27.9c.2 9.3.7 19.5 1 22.5.3 3 1 14.5 1.5 25.5 1.3 27 2 38.6 2.5 41.1.2 1.1.7 7.2 1 13.5.3 6.2.7 16.1 1 21.9 1.1 22.7 1.5 31.5 2.6 59 1.5 40.5 1.5 40 .8 41.1-.3.6-.9-4.9-1.3-12.3-.4-7.3-.9-15.8-1.1-18.8-.4-5.4-1.8-29.8-3.1-57-.4-7.4-.8-15.3-.9-17.5-.1-2.2-.5-9.9-.9-17-.4-7.2-.9-16.4-1.2-20.5-1.1-16.9-2.6-44.2-3-55.5-1.4-34.1-1.9-52.6-1.4-53.8.8-2.2 2 10.6 2.5 27.8zm28.5-26.1c0 .3-.4.8-1 1.1-.5.3-1 .1-1-.4 0-.6.5-1.1 1-1.1.6 0 1 .2 1 .4zm338.5 3.5l9 2.8-.3 4.4c-.4 5.9-1.8 7.3-6 5.8-3-1-3.1-1.2-1.5-2.4 3.2-2.4.9-3.6-11.9-6.2-2.4-.5-2.7-.9-2.2-3.2 1.3-5.1.9-5 12.9-1.2zm-443 .1c-.3.5-1 1-1.6 1-.5 0-.9-.5-.9-1 0-.6.7-1 1.6-1 .8 0 1.2.4.9 1zm8.8-.3c-.7.2-2.1.2-3 0-1-.3-.4-.5 1.2-.5 1.7 0 2.4.2 1.8.5zm133.7 1.5c0 1-12.7 1.1-13.3 0-.3-.4 2.6-.7 6.4-.8 3.8 0 6.9.3 6.9.8zm33.5.8c.7 1.2-1.9 1.2-5.5 0-2.2-.7-2.1-.8 1.2-.9 2-.1 4 .3 4.3.9zm-71.5 1.2c0 1-2.4.8-6.5-.2-2.5-.7-2.3-.8 1.7-.7 2.7.1 4.8.5 4.8.9zm-111 2.2c0 .3-.4.8-1 1.1-.5.3-1 .1-1-.4 0-.6.5-1.1 1-1.1.6 0 1 .2 1 .4zm12.5.5c-.5 1-9.4.6-10.3-.4-.3-.3 2-.5 5.2-.5 3.3 0 5.5.4 5.1.9zm4.5.1c0 .5-.7 1-1.5 1s-1.5-.5-1.5-1c0-.6.7-1 1.5-1s1.5.4 1.5 1zm240-.3c-5 .5-7.4 1.9-6.6 4 .4.9-.4 1.3-2.9 1.3-3 0-3.5-.3-3.5-2.3 0-1.3.2-2.6.4-2.8.2-.2 4.2-.5 8.8-.5 4.6-.1 6.3.1 3.8.3zm-72 1.3c0 .5-.8 1-1.7 1-1.5 0-1.6-.2-.3-1 1.9-1.2 2-1.2 2 0zm29 .6c0 .2-.9.4-2.1.4-1.1 0-1.8-.4-1.4-1 .5-.8 3.5-.3 3.5.6zm-64.5.4c-.3.5-3.7 1-7.6 1-3.9 0-6.9-.4-6.9-1s3.2-1 7.6-1c4.7 0 7.3.4 6.9 1zm70.8-.3c-.7.2-2.1.2-3 0-1-.3-.4-.5 1.2-.5 1.7 0 2.4.2 1.8.5zm222.2 1.3c5.4 2.1 4.4 2.6-1.7.9-2.1-.5-3.8-1.4-3.8-1.9 0-1.3-.3-1.3 5.5 1zM125 333c0 .5-.4 1-1 1-.5 0-1-.5-1-1 0-.6.5-1 1-1 .6 0 1 .4 1 1zm-105 2.4c.8.2-2.4.4-7.2.5-4.9 0-8.8-.3-8.8-.7 0-.7 12.5-.5 16 .2zm269-.5c4.5.1 7 .5 6.5 1-.6.6-7 .7-15.5.3-8-.3-12.9-.9-11-1.2 1.9-.3 5.5-.4 8-.3 2.5.1 7.9.2 12 .2zm-234 5.8l2.2 5.8-3.3 2.5c-1.8 1.4-5.7 4.4-8.7 6.8-3 2.4-5.7 4.1-6 3.7-.4-.3-.8-3.6-1-7.4l-.4-6.7 6.8-5.1c3.8-2.8 7.2-5.2 7.6-5.2.4-.1 1.6 2.5 2.8 5.6zm143.9-3.3c-.3.3-1.6.2-2.9-.1-2.2-.6-2.2-.7-.4-1.4 1.8-.6 4.3.5 3.3 1.5zm35.1.8c0 1.1-9.8 1-10.5-.2-.3-.6 1.6-.9 5-.8 3 .1 5.5.5 5.5 1zm-72 .8c0 .6-2.5.9-5.7.8l-5.8-.1 5.5-.7c3-.4 5.6-.7 5.8-.8.1-.1.2.2.2.8zm197.8-.4c-.7.6-36 .6-36.6-.1-.3-.3 7.9-.5 18.3-.5s18.6.3 18.3.6zm94.6.7c1.7 1.2 1.7 2 .2 16.3-.9 8.2-2.1 17.6-2.6 20.9-.6 3.3-2.1 15-3.5 26s-3 23.1-3.5 27c-.5 3.8-1.4 11-2 16-.6 4.9-1.4 10.9-1.9 13.1-.4 2.3-.9 6.9-1 10.3-.1 3.5-.6 7.4-1.2 8.7-.5 1.4-.9 4.4-.9 6.7s-.6 7.6-1.4 11.7c-.8 4.1-2 12.2-2.6 18-1.3 12.5-2.5 21.9-5 40-1.1 7.4-3.8 27-6.1 43.5-2.2 16.5-4.2 30.2-4.4 30.5-.2.3-.6 4.2-1 8.5-.3 4.4-1.2 12.3-2 17.5-.7 5.2-2.1 16.1-3.1 24.2-1.2 10.6-2.1 14.9-3.2 15.3-2.3.8-3.1-.3-2.6-3.8 1.9-14.5 4-32.6 8.4-72.7.6-5.2 1.7-14 2.5-19.5 1.8-12.4 5.3-40.9 6.6-53.5.5-5.2 1.5-14 2.3-19.5.8-5.5 1.7-12.5 2.1-15.5 2.7-26.2 4.7-43.3 5.5-47.5.5-2.8 1.2-8.4 1.5-12.5.4-4.1 1.3-11.3 2.1-16 .7-4.7 1.6-11 1.8-14 .3-3 1-10.2 1.6-16 .6-5.8 1.3-13 1.6-16 .2-3 1.1-10.2 1.9-16 .8-5.8 1.9-14.8 2.5-20 .6-5.2 1.4-10.3 1.6-11.3.6-2 3.3-2.2 5.8-.4zm-188.1 1.4c-.7.2-1.9.2-2.5 0-.7-.3-.2-.5 1.2-.5s1.9.2 1.3.5zm19.5.3c-1 .6-3.1.7-5.5.1-3.8-.9-3.8-.9 1.7-1 4 0 5 .2 3.8.9zm7.7 0c1.7.7 1.5.9-1.2.9-1.8.1-3.3-.4-3.3-.9 0-1.2 1.7-1.2 4.5 0zm-95.5 1c0 .5-.4 1-.9 1-.6 0-1.3-.5-1.6-1-.3-.6.1-1 .9-1 .9 0 1.6.4 1.6 1zm265.9.4c.7.8.9 3.1.6 5.4-.2 2.3-1.2 10.1-2 17.4-.9 7.3-2 16.2-2.6 19.8-1.2 8.1-2.4 17.7-4.4 34.5-1.5 13.3-3.5 27.9-6 44-.8 4.9-2.1 14.6-3 21.5-.9 6.9-2 15.2-2.5 18.5-.5 3.3-1.2 8.2-1.6 11-.4 2.7-.8 6.1-1.1 7.5-.2 1.4-.8 6.3-1.3 11s-2 16-3.4 25.1c-1.4 9.1-2.8 18.8-3.1 21.5-.7 6-1.5 11.9-2.1 15.9-.7 4.1-1.8 12.2-5.3 38.8-1.7 12.6-3.2 23.6-3.5 24.5-.3 1-.7 3.9-1.1 6.7-.3 2.7-1 6.8-1.5 9s-1 6.1-1 8.6c0 2.9-.6 5.1-1.5 5.9-1.2 1-1.5 1-1.5-.1 0-3.7 4.2-37.8 6-48.4 1.1-6.6 2.4-16.2 3-21.3.5-5 1.5-13.4 2-18.5.6-5 1.4-11.7 1.9-14.7.6-3 1.9-13.2 3.1-22.5 1.1-9.4 2.9-23.8 4-32 1.1-8.3 2.5-18.8 3-23.5 2.5-23.2 3.2-29.3 4.6-39 3-21.6 5.3-38.8 6.4-48 .7-5.2 2-15.8 3-23.5 1-7.7 2.1-16.5 2.4-19.5.4-3 1.6-12.6 2.8-21.3 2.1-15.6 3-17.6 5.7-14.3zm-114.4 1.5c3.9.5 10.6 1 15 1.1 4.4 0 11.4.8 15.5 1.6s8.8 1.5 10.3 1.5c2.6 0 2.8.3 2.5 3.2l-.3 3.2-10-.3c-5.5-.2-13.4-.8-17.5-1.4-4.1-.6-12.4-1.5-18.5-2.2-10.3-1.1-11-1.3-11.3-3.4-.6-4.1.5-5.3 4-4.8 1.8.3 6.5 1 10.3 1.5zM162 345.6c0 .5-3.2.9-7 1-6.2.1-7.9-.4-6.6-1.7.8-.8 13.6-.1 13.6.7zm70.3-.9c-1.8.2-4.8.2-6.5 0-1.8-.2-.4-.4 3.2-.4s5 .2 3.3.4zM274 346c1.1.7 0 1-3.8 1-3.3 0-5.1-.4-4.7-1 .8-1.3 6.5-1.3 8.5 0zm-75.5 1c.4.6-.6 1-2.2 1-2.2 0-2.5-.2-1.3-1 1.9-1.2 2.7-1.2 3.5 0zm130.2.6c-.3.3-1.2.4-1.9.1-.8-.3-.5-.6.6-.6 1.1-.1 1.7.2 1.3.5zm-100.3 1.3c.4.5-.3.7-1.4.4-2.3-.6-2.6-1.3-.6-1.3.8 0 1.7.4 2 .9zM420 352c-1.1 1.1-2.2 2-2.5 2-.3 0-.5-.9-.5-2 0-1.5.7-2 2.5-2h2.5l-2 2zm23.8 0c.4 1-1.6 1.1-9.4.6-13.6-1-14.7-2.7-1.4-2.2 7.3.2 10.5.7 10.8 1.6zm-281.3 0c.4.6-2.2.9-7.2.8l-7.8-.1 6.5-.7c3.6-.4 6.8-.7 7.2-.8.4-.1 1 .2 1.3.8zm36.5 1c0 .5-1 1-2.2 1-1.9 0-2-.2-.8-1 1.9-1.3 3-1.3 3 0zm93.8-.3c-1.5.2-4.2.2-6 0-1.8-.2-.6-.4 2.7-.4 3.3 0 4.8.2 3.3.4zm203.7 1.6c.7.6-2.1.7-8.4.3-5.2-.3-11.8-.6-14.8-.6-3.4 0-5.2-.4-4.8-1 .8-1.3 26.6-.1 28 1.3zM53 355.8c-1.9 1.5-6 5.2-9.2 8.3l-5.7 5.6-11.3.6c-13.6.8-20.3.9-19.6.2.2-.3 4.5-.7 9.4-1 16.6-1 18.5-1.4 22.3-4.7 5.7-4.8 15.5-11.7 16.6-11.7.6 0-.6 1.2-2.5 2.7zm296.8-1.1c2.8.3 5.2 1 5.2 1.5s-.8.7-1.7.4c-3.5-1-20.6-1.1-21-.1-1.1 3.1-1.9 3.4-6.1 2.3-3.5-.9-4.2-1.4-4.2-3.6v-2.5l11.3.7c6.1.3 13.6.9 16.5 1.3zm-124.1.9c-.3.3-1.2.4-1.9.1-.8-.3-.5-.6.6-.6 1.1-.1 1.7.2 1.3.5zm6 0c-.3.3-1.2.4-1.9.1-.8-.3-.5-.6.6-.6 1.1-.1 1.7.2 1.3.5zm40.9 1.3c-.7 1-7.3.8-8.3-.3-.3-.3 1.5-.6 4.1-.6 2.6 0 4.5.4 4.2.9zm5.4.1c0 .5-.4 1-.9 1-.6 0-1.3-.5-1.6-1-.3-.6.1-1 .9-1 .9 0 1.6.4 1.6 1zm97.3.2c4.2.6 7.7 1.5 7.7 2s-.4.7-.8.4c-.5-.3-4.9-.6-9.8-.7-9.4-.2-10.8-.5-9.9-2 .8-1.2 3.4-1.2 12.8.3zm55.2-.3c4 .9 4 .9-1.5.9-3 0-6.4-.3-7.5-.8-1.6-.7-1.3-.9 1.5-.9 1.9 0 5.3.4 7.5.8zM443 358c0 1.2-2.4 1.2-6 0-2.1-.7-1.9-.8 1.8-.9 2.3-.1 4.2.3 4.2.9zm-245.5 1c-2.8 1.2-8.5 1.2-8.5 0 0-.6 2.4-1 5.3-.9 3.8 0 4.7.3 3.2.9zm-140 16.7c1.3 27.7 2.3 45.4 3.6 63.3.6 7.4 1.2 16 1.4 19 .7 13.9 2.6 46.1 2.9 52 .3 3.6.7 12.1 1.1 19 .3 6.9.8 15.1 1 18.3.7 8.6.8 24.8.1 25.5-1.8 1.7-2.3-2.5-6.1-57.3-1.5-22.4-2-28.2-3-39.5-.3-3-.7-9.6-1-14.5-.3-5-1.2-17.8-2-28.5s-2.1-30.8-2.9-44.5l-1.5-25 2.1-2.3c1.2-1.2 2.5-2.2 2.8-2.2.4 0 1.1 7.5 1.5 16.7zM495 360c1 .6-.9.7-5.5.3-3.8-.3-7.2-.7-7.4-.9-1-.9 11.5-.3 12.9.6zm-141.3.7c-2 .2-5.2.2-7 0-1.7-.2 0-.4 3.8-.4 3.9 0 5.3.2 3.2.4zM422 362c-4.7.6-6.3.3-5.6-.8.2-.4 2.6-.5 5.3-.3l4.8.5-4.5.6zm12 0c1.2.8 1 1-1 1-1.4 0-3.2-.5-4-1-1.2-.8-1-1 1-1 1.4 0 3.2.5 4 1zm-399 1c0 .6-2.3.9-5.2.8l-5.3-.1 4.5-.7c2.5-.4 4.8-.8 5.3-.8.4-.1.7.2.7.8zm347.3 1.2c2.1 1.1 2.1 2.2-.1 7.1l-1.8 3.9-8.3.2c-9.9.3-11.6-.7-10.6-6.3 1.3-7.7.7-7.3 10.3-6.6 4.8.4 9.5 1.2 10.5 1.7zm58-1.5c-.7.2-2.1.2-3 0-1-.3-.4-.5 1.2-.5 1.7 0 2.4.2 1.8.5zm-366 2c-.7.2-2.1.2-3 0-1-.3-.4-.5 1.2-.5 1.7 0 2.4.2 1.8.5zm4.4-.1c-.3.3-1.2.4-1.9.1-.8-.3-.5-.6.6-.6 1.1-.1 1.7.2 1.3.5zm417.3.4c0 1.1-6 1.1-10.5 0-2.3-.6-1.5-.8 3.8-.9 3.9-.1 6.7.3 6.7.9zm-449 2.2c0 .7.5 6.7 1 13.2.6 6.6 1.5 18.3 2 26 .6 7.8 1.7 22 2.5 31.6.8 9.6 2.2 27.7 3 40.1.9 12.4 1.8 24.6 2 27 1.2 15.5 1.6 21.3 2.5 37.4.6 9.9 1.2 21.1 1.5 25 .3 3.8.9 15.3 1.5 25.5 1.3 22.7 2.6 44.6 4.5 73.5 1.8 26.8 1.9 32.3.5 30.9-.6-.6-1.5-7.6-2-15.5s-1.2-17.1-1.5-20.4c-.3-3.3-1.2-13.9-1.9-23.5-.8-9.6-2-23.4-2.6-30.5-.6-7.2-1.3-17.8-1.5-23.7-.2-5.9-.5-11.1-.8-11.5-.8-1.5-3.5-34.3-5.7-70.8-.6-8.8-1.4-20.7-2-26.5-.6-5.8-1.5-16.4-2-23.5-1.7-21.7-3.9-51.3-5-65.3-.6-7.2-1.3-13.9-1.7-14.7-.6-1.8 2.3-5.5 4.4-5.5.7 0 1.3.6 1.3 1.2zm383.3-.2c4 0 5.8.3 5.1 1-1.2 1.2-17.4.1-17.4-1.3 0-.5 1.3-.7 3.1-.3 1.7.3 5.9.6 9.2.6zM165 369c0 .5-.4 1-1 1-.5 0-1-.5-1-1 0-.6.5-1 1-1 .6 0 1 .4 1 1zm275.7-.4c-.3.3-1.2.4-1.9.1-.8-.3-.5-.6.6-.6 1.1-.1 1.7.2 1.3.5zm-362.2 2c-4.7.7-17.3.9-16.9.2.3-.5 4.7-.7 9.7-.7 5.1.1 8.3.3 7.2.5zm27.2 1c-.3.3-1.2.4-1.9.1-.8-.3-.5-.6.6-.6 1.1-.1 1.7.2 1.3.5zm13.1.1c-1.5.2-4.2.2-6 0-1.8-.2-.6-.4 2.7-.4 3.3 0 4.8.2 3.3.4zM37.5 375c.4.6-2.9.9-9.2.8l-9.8-.2 7-.6c3.9-.4 8-.7 9.2-.8 1.2-.1 2.5.2 2.8.8zm-24.8.6c-.3.3-1.2.4-1.9.1-.8-.3-.5-.6.6-.6 1.1-.1 1.7.2 1.3.5zm67.2.8c-.3.3-3.9.8-7.9 1.1-4 .3-7.7.8-8.1 1.1-1.1.6-3.1-.5-2.5-1.4.2-.4 4.6-.8 9.7-1 5.2-.2 9.1-.1 8.8.2zm31.8.2c-.3.3-1.2.4-1.9.1-.8-.3-.5-.6.6-.6 1.1-.1 1.7.2 1.3.5zm255.2 3.3c1.1.7 1.2 2.6.6 9.2-1 10.7-1.1 11.6-2.4 28.4-.6 7.7-1.8 20.5-2.6 28.5s-1.7 18.3-2 23c-.3 4.7-1 12.1-1.5 16.5-2.8 23.9-8.1 75.7-10.6 103.5-.8 9.1-1.6 17.8-1.9 19.5-.3 1.6-1 7.7-1.5 13.5s-1.7 16.8-2.5 24.5c-.8 7.7-2 19.5-2.7 26.2-1.1 12.1-1.2 12.3-3.6 12.3-2.1 0-2.4-.3-1.8-2.8.3-1.5 1-8.3 1.6-15.2 1-13.3 3.1-35.2 5.5-59 2.9-28.1 3.5-34.6 4-44 1.4-23.3 3.7-50.3 6-71.5 1.3-12.7 3.2-31.6 4-42 .8-10.5 1.7-20.1 2-21.5.5-2.5 2.8-26.5 4-41.8.7-8.5 1.6-9.7 5.4-7.3zM38.8 382c.5 1.3-33.4 1.4-34.3.1-.8-1.4 4-1.7 20-1.4 8.6.1 14.1.6 14.3 1.3zm339.5 1c-.2 4.5-2.3 27.2-3.3 37-.5 5.2-1.4 14-1.9 19.5-1.1 10.8-2.7 25.8-4 37-.5 3.8-2.5 22.5-4.5 41.5s-4.3 40.1-5.1 47c-.9 6.9-1.7 13.5-1.8 14.7 0 1.2-.3 2-.6 1.8-.8-.8-3.1 1.7-3.1 3.3 0 1.3.3 1.2 1.6-.4 1.4-1.7 1.5-1.2 1 7.1-.4 4.9-1.9 20-3.6 33.5-1.6 13.5-3.3 28.5-3.9 33.5-1.9 17-3.5 27.5-4.3 27.5-1 0-1-7.9.2-21.5 3-36.5 5.9-66.3 7.5-79.5.4-3.6 3-32.6 4.5-51 1.3-16 3.8-39.7 4.9-47.5.6-3.9 1.5-12.9 2.1-20 1.1-14.6 4.5-51.3 6-65 .5-5 1-11.3 1-14.1 0-5.7 1.4-7.6 5-7.2 2 .2 2.5.8 2.3 2.8zm-217.5-1.3c-1.6.2-4 .2-5.5 0-1.6-.2-.3-.4 2.7-.4s4.3.2 2.8.4zm108.6 1.4c-2.2 2.5-1 3.6 5.1 4.4 2.2.2 5.1.6 6.5.8 1.4.2-3 .4-9.7.5-6.7 0-12.6.3-13.2.6-.5.4-1.2.2-1.6-.4-.6-.9 1.9-1.4 5.6-1.1 2 .2 4.3-2.4 3.4-3.9-.3-.5-1.4-1-2.3-1.1-2.3-.1 2.6-1.7 5.7-1.8 2.4-.1 2.4-.1.5 2zM81 383c0 .6-3.7 1-9.5 1-5.2 0-9.5-.4-9.5-.9s4.3-.9 9.5-1c5.9-.1 9.5.3 9.5.9zm28 0c-2 1.3-7 1.3-7 0 0-.6 1.9-1 4.3-1 3.1 0 3.8.3 2.7 1zm121.3 1.7c-.7.2-1.9.2-2.5 0-.7-.3-.2-.5 1.2-.5s1.9.2 1.3.5zm-110.8 3.2c1.3.5-1.2 1.1-7.3 1.7-9.4 1-13.1 0-4.4-1.1 2.6-.4 5.2-.8 5.7-1 1.6-.6 3.9-.4 6 .4zm5.2.7c-.3.3-1.2.4-1.9.1-.8-.3-.5-.6.6-.6 1.1-.1 1.7.2 1.3.5zm-49.9 1.1c-2.1.2-5.7.2-8 0-2.4-.2-.7-.4 3.7-.4s6.3.2 4.3.4zm160.6 2.3c-1.2 1.2-9.4.2-9.4-1.1 0-.4 1.6-.6 3.5-.4 1.9.2 3.8-.1 4.1-.7.4-.6 1-.6 1.7.1.8.8.8 1.4.1 2.1zm91.6-.6c0 .9-.7 1.2-2 .9-1.1-.3-2-.9-2-1.4 0-.5.9-.9 2-.9s2 .6 2 1.4zm23.4-.4c4.1 0 .5 1.1-4.4 1.4-4.6.2-5 0-3.3-1.1 1-.8 2.7-1.2 3.8-.9 1.1.3 2.9.6 3.9.6zm-191.1.7c-1.3.2-3.3.2-4.5 0-1.3-.2-.3-.4 2.2-.4s3.5.2 2.3.4zm-47.7 3.2c-.3.5-2.4 1.1-4.6 1.3-4.2.4-4.2-.7 0-1.5 4.3-.8 5.1-.7 4.6.2zm10.2-.2c-1 .2-2.8.2-4 0-1.3-.2-.5-.4 1.7-.4 2.2-.1 3.2.1 2.3.4zm167 .3c2.4 0 4.1.4 3.8.8-.3.5-5.4.8-11.3.6-24.2-.6-24.9-.6-21.8-1.4 1.7-.4 8-.5 14-.3 6.1.1 12.9.3 15.3.3zM67 396c.8.5 1.1 1 .5 1-.5 0-1.7-.5-2.5-1s-1-1-.5-1c.6 0 1.7.5 2.5 1zm12.5 0c-2.8 1.2-9.5 1.2-9.5 0 0-.6 2.5-1 5.8-.9 4.1 0 5.1.3 3.7.9zm73.8.7c-.7.2-2.1.2-3 0-1-.3-.4-.5 1.2-.5 1.7 0 2.4.2 1.8.5zm9.3.2c-.5.8-5.6.3-5.6-.5 0-.2 1.4-.4 3.1-.4 1.6 0 2.8.4 2.5.9zm72-.2c-.7.7-8.7.5-9.5-.3-.2-.2 2-.4 4.9-.4 2.9 0 5 .3 4.6.7zm119.9 1.6c2.7 2.1.8 2.6-6.5 1.7-3.6-.4-5.3-.8-3.8-.9 1.5 0 3-.6 3.3-1.1.9-1.4 4.8-1.2 7 .3zm-156.5.3c-3.8.8-9 .9-9 .2 0-.4 2.4-.7 5.3-.7 2.8.1 4.5.3 3.7.5zm188.4 1.5c2.9.7 2.9.8-.8.6-2.4-.1-4.1-.8-4.4-1.6-.3-.9 0-1.1.8-.6.7.5 2.7 1.2 4.4 1.6zm-54.6-.4c-1 .2-2.6.2-3.5 0-1-.3-.2-.5 1.7-.5s2.7.2 1.8.5zM121.1 401c-3.6.4-7.6.4-9 0-1.7-.5.6-.8 6.4-.8l9 .1-6.4.7zm-14.1.9c-1.7.5-2.5 1.4-2.4 2.9 0 1.2-.3 2.2-.8 2.2-1 0-1.1-4.4-.1-5.3.3-.4 1.8-.7 3.2-.6l2.6.1-2.5.7zm45.7-.3c-.3.3-1.2.4-1.9.1-.8-.3-.5-.6.6-.6 1.1-.1 1.7.2 1.3.5zm6.6.1c-.7.2-1.9.2-2.5 0-.7-.3-.2-.5 1.2-.5s1.9.2 1.3.5zm73.5 0c-1 .2-2.8.2-4 0-1.3-.2-.5-.4 1.7-.4 2.2-.1 3.2.1 2.3.4zm43.9-.1c-.3.3-1.2.4-1.9.1-.8-.3-.5-.6.6-.6 1.1-.1 1.7.2 1.3.5zm15 .5c-1.2.7-2.7.7-4.5 0-2.5-.9-2.4-.9 1.8-1 3.6 0 4.1.2 2.7 1zm199.5-.1c2.7 0 4.7.4 4.4.9-.5.7-11.9.7-30.1-.1-4-.1-4-.1 1-.9 2.8-.4 8.3-.5 12.4-.3s9.6.4 12.3.4zm-300.7 2c.3.5.1 1-.4 1-.6 0-1.1-.5-1.1-1 0-.6.2-1 .4-1 .3 0 .8.4 1.1 1zm158.5 1c-1.6.9-12 .1-12-.9 0-.3 3-.4 6.7-.3 4.1.3 6.1.7 5.3 1.2zm89-1c0 .5-4.3.9-10.5.8-5.7-.1-10.2-.5-9.9-1 .7-1.1 20.4-1 20.4.2zm-239 .9c0 .4-1.1.6-2.5.3-1.4-.2-2.5-.6-2.5-.8 0-.2 1.1-.4 2.5-.4s2.5.4 2.5.9zm155.5.1c.3.5-.1 1-.9 1-.9 0-1.6-.5-1.6-1 0-.6.4-1 .9-1 .6 0 1.3.4 1.6 1zm-285.8 1.6c-.3.3-1.2.4-1.9.1-.8-.3-.5-.6.6-.6 1.1-.1 1.7.2 1.3.5zm42 0c-.3.3-1.2.4-1.9.1-.8-.3-.5-.6.6-.6 1.1-.1 1.7.2 1.3.5zm6.6.1c-.7.2-1.9.2-2.5 0-.7-.3-.2-.5 1.2-.5s1.9.2 1.3.5zm8 0c-.7.2-1.9.2-2.5 0-.7-.3-.2-.5 1.2-.5s1.9.2 1.3.5zm40.1 3.1c-.9 1.3-2.3 1.6-7 1.4-6.1-.3-9.2.8-8 2.7.4.6 2.1 1.1 3.7 1.1 1.7 0 2.8.4 2.5.8-.3.4-2.1.6-4 .4-3.3-.4-3.6-.7-3.6-3.7 0-2.8.4-3.3 3.1-3.9 1.7-.3 4.6-.6 6.3-.6 1.7 0 3.8-.5 4.6-1 2.1-1.3 3.8.6 2.4 2.8zm63.3-3.2c-.3.3-1.2.4-1.9.1-.8-.3-.5-.6.6-.6 1.1-.1 1.7.2 1.3.5zm65.8.3c1 1.7-.9 2-3 .5-1.8-1.4-1.8-1.4.2-1.4 1.2 0 2.4.4 2.8.9zm92.7.3c-.8.8-1.7.8-3.4 0-2.2-1-2.1-1.1 1.2-1.1 2.6-.1 3.1.2 2.2 1.1zm108.7 1.4c1.1 1-1.6 1.3-17.7 1.6-14.8.3-17.2.1-17.2-1.2s2.4-1.5 17.2-1.2c9.5.2 17.5.6 17.7.8zm-297 2c.2.2-1.5.4-3.8.4-2.9 0-4.4.5-4.8 1.6-.8 2.3 1 3.6 5.1 3.6 2 0 3.6.4 3.6 1 0 .5-2.1.8-4.7.6l-4.8-.3-.3-4.2-.3-4.3 4.8.7c2.6.3 5 .7 5.2.9zm145.4-.9c-1.3.2-3.3.2-4.5 0-1.3-.2-.3-.4 2.2-.4s3.5.2 2.3.4zm10.4.6c.9.9-2.6.7-5.7-.3-2.1-.7-1.9-.8 1.2-.6 2.1.1 4.1.6 4.5.9zm79.8-.3c1.3.6-1.3.9-7.7.9-5.5.1-10-.3-10.3-.9-.8-1.2 15.1-1.2 18 0zm-353 1c-.3.5-1.2 1-2 1s-1.7-.5-2-1c-.4-.6.5-1 2-1s2.4.4 2 1zm182.5-.2c0 1.7-2.5 3.2-5.2 3.2-2.1 0-2.8-.5-2.8-2 0-1.7.7-2 4-2 2.2 0 4 .4 4 .8zm11-.4c0 .9-3 1.4-3.5.6-.4-.6.3-1 1.4-1 1.2 0 2.1.2 2.1.4zm19 .8c0 1-1.8 1.2-6.7.8l-6.8-.4 6.5-.6c3.6-.4 6.6-.7 6.8-.8.1-.1.2.4.2 1zm-218.7.5c-.7.2-1.9.2-2.5 0-.7-.3-.2-.5 1.2-.5s1.9.2 1.3.5zm313 0c-1.3.2-3.3.2-4.5 0-1.3-.2-.3-.4 2.2-.4s3.5.2 2.3.4zm-271.6.9c-.3.3-1.2.4-1.9.1-.8-.3-.5-.6.6-.6 1.1-.1 1.7.2 1.3.5zm-11.4 2c-.3.9 0 2 .8 2.5 1.1.7 1.1.9-.3.9-1.3 0-1.8-.8-1.8-2.5 0-1.4.4-2.5 1-2.5.5 0 .7.7.3 1.6zm320.8.6c4.9 0 9.1.4 9.4.9.4.5-2.7.9-7.3.9-9.1 0-14.4-.8-13.6-2.1.3-.5 1-.6 1.6-.3.6.4 5.1.7 9.9.6zm66.9-.3c-.8.4-8.6 1.2-17.2 1.5-12.7.6-15.8.5-15.8-.6 0-1 3.8-1.4 17.3-1.6 10.3-.1 16.6.1 15.7.7zM81.5 416c.3.5-.1 1-1 1s-1.3-.5-1-1c.3-.6.8-1 1-1 .2 0 .7.4 1 1zm81.8-.3c-.7.2-2.1.2-3 0-1-.3-.4-.5 1.2-.5 1.7 0 2.4.2 1.8.5zm72.2 3.3c0 1.7-.5 2.4-1.5 2.1-.8-.2-3.6-.3-6.2-.2-2.7.1-4.8-.2-4.8-.8 0-.5-.3-1.6-.6-2.4-.4-1.2.6-1.5 6.3-1.3 6.5.1 6.8.2 6.8 2.6zm57.3-.9c-2.1 1.2-15.1 1.4-17 .4-1.1-.7 1.5-1 8.3-1.1 5.5 0 9.4.3 8.7.7zm89.5.9c.4 1.6 1.4 2 4.4 2 3.6.1 3.7.1 1.8 1.6-1.2.9-3.1 1.3-4.6 1-1.4-.3-3.1 0-3.8.7-.8.8-1.1.1-1.1-3.1 0-4.5 2.3-6 3.3-2.2zm-117.3-.6c0 .9-3 1.4-3.5.6-.4-.6.3-1 1.4-1 1.2 0 2.1.2 2.1.4zm88.4 1.6c1.1 0 1.6.3 1.3.6-.9.9-13 1.3-14.2.5-1.2-.7 6.2-2 9-1.5 1.1.2 2.9.4 3.9.4zm-317.9 1.5c.6.2-2.3.4-6.2.3-4-.1-7.3-.4-7.3-.8 0-.6 11.6-.2 13.5.5zM163 421c2 .6 1.4.8-2.8.9-3.3.1-5.1-.3-4.7-.9.7-1.2 3.9-1.2 7.5 0zm175.3-.3c-.7.2-2.1.2-3 0-1-.3-.4-.5 1.2-.5 1.7 0 2.4.2 1.8.5zM9.4 422c-.7.7-1.9.7-3.5.1-2.3-.9-2.2-1 1.1-1 2.3-.1 3.1.2 2.4.9zm8.4-.3c-1 .2-2.8.2-4 0-1.3-.2-.5-.4 1.7-.4 2.2-.1 3.2.1 2.3.4zm135.9-.1c-.3.3-1.2.4-1.9.1-.8-.3-.5-.6.6-.6 1.1-.1 1.7.2 1.3.5zm175 1.9c-1 2.1-1.9 2.5-5.4 2.5-3.9 0-4.3-.2-4.3-2.5 0-2.4.3-2.5 5.4-2.5 5.4 0 5.4 0 4.3 2.5zM432 422c3 .5.9.6-6.5.3-6-.3-11.2-.7-11.4-.9-.8-.7 13.4-.3 17.9.6zm64 0c0 .6-6.7 1-18 1s-18-.4-18-1 6.7-1 18-1 18 .4 18 1zm-414.7.7c-.7.2-2.1.2-3 0-1-.3-.4-.5 1.2-.5 1.7 0 2.4.2 1.8.5zm47.2 10.3v10.5h-23.9l-.4-10.2c-.4-11.8-1.8-10.8 13.8-10.8h10.5V433zm63-10c.3.5.1 1-.4 1-.6 0-1.1-.5-1.1-1 0-.6.2-1 .4-1 .3 0 .8.4 1.1 1zm96 1c-9.1 1.2-14.7 1.1-14 0 .4-.6 4.8-.9 10.3-.9 9.3.2 9.4.2 3.7.9zm-26.2.7c-.7.2-2.1.2-3 0-1-.3-.4-.5 1.2-.5 1.7 0 2.4.2 1.8.5zm6.5 0c-1 .2-2.6.2-3.5 0-1-.3-.2-.5 1.7-.5s2.7.2 1.8.5zm81.5 0c-.7.2-1.9.2-2.5 0-.7-.3-.2-.5 1.2-.5s1.9.2 1.3.5zM15.5 427c.3.5-.3 1-1.3 1-2.2 0-4.6 2.3-3.5 3.3.3.4 4.5.7 9.2.8 6.5 0 8 .3 6.2 1-1.3.5-5.5.8-9.5.7-7.2-.3-10-1.7-8.9-4.5.3-.9-.5-1.4-2.3-1.5-1.6-.1-.4-.4 2.6-.8s5.8-.7 6.2-.8c.4-.1 1 .2 1.3.8zm7 0c.3.5-.1 1-.9 1-.9 0-1.6-.5-1.6-1 0-.6.4-1 .9-1 .6 0 1.3.4 1.6 1zm11.8-.3c-.7.2-2.1.2-3 0-1-.3-.4-.5 1.2-.5 1.7 0 2.4.2 1.8.5zm49.5.8c.1.1.5 5.4.9 11.8l.6 11.6-9.9.3c-5.4.2-9.9.3-10 .3-.1 0-.4-5.5-.7-12.2l-.7-12.2 4.8-.3c4.3-.3 14.3.2 15 .7zm82 6.3l.3 7-3.3.5c-1.8.2-5.7.2-8.5-.1l-5.3-.5v-14.6l8.3.3 8.2.4.3 7zM380 427c0 .5-.2 1-.4 1-.3 0-.8-.5-1.1-1-.3-.6-.1-1 .4-1 .6 0 1.1.4 1.1 1zm53.5 1.2c.7.8.4.9-.8.4-1-.3-5.9-.6-10.8-.6-6 0-8.8-.4-8.4-1 .8-1.4 18.6-.2 20 1.2zM233 428c0 1.3-1.1 1.3-3 0-1.2-.8-1.1-1 .8-1 1.2 0 2.2.4 2.2 1zm157-.1c0 .6-.4 1.3-1 1.6-.5.3-1 1.5-1 2.6 0 1.4-.7 1.9-2.7 1.9-4.7 0-6-1.7-1.9-2.4 4-.8 4.9-2.6 1.4-2.6-1.9 0-2-.2-.8-1 1.9-1.2 6-1.3 6-.1zm106 0c0 .5-8.4.9-18.7.8-10.9 0-16.5-.3-13.3-.6 8.5-1 32-1.1 32-.2zm-302.7.8c-.7.2-1.9.2-2.5 0-.7-.3-.2-.5 1.2-.5s1.9.2 1.3.5zm99.7.2c0 1.4-4.7 2.2-7.7 1.4-2.6-.7-2.5-.8 1.7-1.4 2.5-.3 4.8-.7 5.3-.7.4-.1.7.2.7.7zm-93.2 3.8c-.2 2.1-.6 3.7-1 3.5-.5-.1-2.8-.2-5.3-.2s-4.5-.5-4.5-1c0-.6 1.6-1 3.6-.8 3.6.2 5.8-1.5 4.9-4-.2-.6.3-1.2 1.1-1.2 1.1 0 1.4.9 1.2 3.7zm153.7-2.7c-.7 1.2-15.4 1.3-17.4.1-.8-.5 2.5-.9 8.4-1 6.5-.1 9.5.2 9 .9zm-94 1c-.3.5-1.2.7-2 .3-2.1-.7-1.9-1.3.6-1.3 1.1 0 1.8.4 1.4 1zM42 435c0 2.4-.4 3-2.2 3-1.5 0-2.7-.9-3.4-2.5-1.3-2.7-.7-3.3 3.4-3.4 1.8-.1 2.2.4 2.2 2.9zm377.9-2.6c-1 .9-7.9 1.4-7.9.5 0-.5 1.9-.9 4.2-.9 2.3 0 3.9.2 3.7.4zm65.7 1.1c-1.9 1.4-5.5 1.9-12.1 1.6-1.6-.1-3.9.5-5 1.3-1.7 1.4-1.8 1.7-.5 2.6.8.5 1 1 .5 1-.6 0-1.9-.9-2.8-2.1-2.2-2.5-5.1-2.1-5.5.8-.2 1.2-1 2.4-1.8 2.7-1 .4-1.4-.2-1.4-2.3 0-5.6.4-5.9 9.3-5.4 4.5.3 9.8 0 11.7-.5 1.9-.6 4.9-1 6.5-1.1 2.8 0 2.9 0 1.1 1.4zm-253.5.5c1.6 0 2.9.4 2.9.9 0 1-5.7.4-10-1.1-2.1-.7-1.9-.7.9-.3 1.8.3 4.6.5 6.2.5zm198.7-.3c-1.5.2-4.2.2-6 0-1.8-.2-.6-.4 2.7-.4 3.3 0 4.8.2 3.3.4zm62.5 0c-.7.2-2.1.2-3 0-1-.3-.4-.5 1.2-.5 1.7 0 2.4.2 1.8.5zM292.5 435c.4.6-.7 1-2.7.9-3.1-.1-3.2-.1-.8-.9 1.4-.4 2.6-.8 2.7-.9.1-.1.5.3.8.9zm60 0c.4.6-2 .9-6.7.8l-7.3-.1 6-.7c3.3-.4 6.3-.7 6.7-.8.4-.1 1 .2 1.3.8zm-31.2.7c-.7.2-1.9.2-2.5 0-.7-.3-.2-.5 1.2-.5s1.9.2 1.3.5zm13.5 0c-1.5.2-4.2.2-6 0-1.8-.2-.6-.4 2.7-.4 3.3 0 4.8.2 3.3.4zm-64.3 1.4c-.4.5-2.1.9-3.8.7-2.5-.2-3.4.2-4.2 1.9-.7 1.6-1.8 2.3-3.7 2.3-2.4 0-2.8-.4-2.8-3v-3h7.6c5 0 7.3.4 6.9 1.1zm116.9.8c.4.5-1.2.7-3.6.4-5.7-.8-6.1-1.3-1-1.3 2.2 0 4.3.4 4.6.9zm32.9.8c-.7.2-2.1.2-3 0-1-.3-.4-.5 1.2-.5 1.7 0 2.4.2 1.8.5zm12.7.3c0 1.3-7 1.3-9 0-1.1-.7 0-1 3.8-1 2.8 0 5.2.4 5.2 1zm-204.2 1.7c-1 .2-2.8.2-4 0-1.3-.2-.5-.4 1.7-.4 2.2-.1 3.2.1 2.3.4zm5.7.3c.3.5.1 1-.4 1-.6 0-1.1-.5-1.1-1 0-.6.2-1 .4-1 .3 0 .8.4 1.1 1zm88.9-.1c.3.5-.1 1.2-1 1.5-1.3.5-1.4.9-.4 2.2 1.1 1.2 3.9 1.5 15.8 1.3l14.5-.1-.2 6.3c-.1 3.5-.4 7.7-.6 9.4-.2 1.6-.6 5.7-.9 9-.3 3.3-2 20.4-3.7 38-2.1 21.7-3.5 32.4-4.4 33.4-1.9 2-10.5-.2-17.7-4.5-3.1-1.9-7-3.7-8.7-4-3.9-.8-4.4-2.6-3.7-13.2.9-13 1.5-21.9 2.6-41.7 1.5-26.8 2.2-36.9 2.7-37.8.6-1 5.1-.9 5.7.2zm10.6.1c0 .5-.9 1-2 1s-2-.5-2-1c0-.6.9-1 2-1s2 .4 2 1zm14.6-.3c-1.1 1.1-13.6 1.3-13.6.3 0-.6 3.2-1 7.2-1 3.9 0 6.8.3 6.4.7zm-55.8 1.8c1 .9-.3 1.1-7.1.7-4.3-.2-6.5-.7-6.1-1.4.7-1 12.1-.4 13.2.7zm-249.5 1.9c.9 2.2-.2 2.6-7.4 2.6-5.6 0-6.7-.3-6.3-1.4.5-1.3 2.2-1.7 11-2.4 1.2-.1 2.4.4 2.7 1.2zm335 .5c-.5 2 1.9 3.1 7 3.1 1.7 0 2.7.5 2.7 1.5s-1 1.5-3.3 1.5c-1.8 0-4.2.6-5.2 1.4-1.8 1.3-1.8 1.4.4 2.6 1.3.6 3.6 1 5.2.8 2.9-.4 2.9-.4 2.9 4.7 0 15-4.5 103.4-5.3 104.1-.1.1-4.4.4-9.5.6l-9.3.5.5-5.1c.2-2.8.5-6.6.5-8.5.1-3.2.2-3.3 1.9-1.8 2.6 2.3 10.5 3.9 13.7 2.7 3.8-1.5 2.5-3.4-2.7-4.1-2.5-.4-5.5-1.2-6.7-1.8-1.5-.8-2.7-.9-4.1-.1-1.9 1-1.9.8-1.4-4.7.3-3.2 1.1-10.5 1.9-16.3 1.6-12 3.1-25.5 4-35 .9-10.3 4.7-45.4 5.1-46.8.2-.6.8-1.2 1.3-1.2s.7.8.4 1.9zm9.2-.9c.7 1.2-.2 1.2-3 0-1.9-.8-1.9-.9.2-.9 1.2-.1 2.5.3 2.8.9zm-228.2 1.1l3.2.1-3.1.7c-1.7.5-4.7.6-6.5.3-2.9-.4-3.1-.6-1.4-1.3 1.1-.4 2.6-.6 3.3-.3.8.2 2.8.4 4.5.5zm258-.4c-1.3.2-3.3.2-4.5 0-1.3-.2-.3-.4 2.2-.4s3.5.2 2.3.4zm15.7.4c0 .5-2.1.9-4.7.9-2.7 0-4.3-.4-3.6-.8 1.7-1.1 8.3-1.2 8.3-.1zm-198 .9c0 .5-1 1-2.2.9-2.2 0-2.2-.1-.3-.9 1.1-.5 2.1-.9 2.3-.9.1-.1.2.3.2.9zm-214.7.7c-.7.2-1.9.2-2.5 0-.7-.3-.2-.5 1.2-.5s1.9.2 1.3.5zm209 0c-.7.2-1.9.2-2.5 0-.7-.3-.2-.5 1.2-.5s1.9.2 1.3.5zM260 448c0 .5-.4 1-.9 1-.6 0-1.3-.5-1.6-1-.3-.6.1-1 .9-1 .9 0 1.6.4 1.6 1zm8.5 0c.3.6-.5 1-1.9 1s-2.8-.5-3.1-1c-.3-.6.5-1 1.9-1s2.8.4 3.1 1zm5 0c.3.6-.4 1-1.7 1-1.8 0-2-.2-.8-1 1.9-1.2 1.8-1.2 2.5 0zm19.1 13.2c-.3 7.9-1.1 20.8-1.7 28.8-.5 8-1.3 20.6-1.7 28l-.7 13.4-4.2.8c-2.3.3-7.6 2-11.8 3.7-8.2 3.3-12.6 3.8-16.3 1.7l-2.3-1.2.1-23.5c.2-35.9.9-58.2 1.8-59.1.4-.4 6.8-.9 14.2-1 11.2-.3 13.5-.6 13.5-1.8 0-.9-1.2-1.7-3-2-2.1-.3-1.1-.6 3.5-1 3.6-.4 7.1-.7 7.9-.8 1.2-.2 1.3 2.1.7 14zm180.7-12.5c-.7.2-1.9.2-2.5 0-.7-.3-.2-.5 1.2-.5s1.9.2 1.3.5zm-316 1c-.7.2-1.9.2-2.5 0-.7-.3-.2-.5 1.2-.5s1.9.2 1.3.5zm309 0c-1.3.2-3.3.2-4.5 0-1.3-.2-.3-.4 2.2-.4s3.5.2 2.3.4zm-52.7 2c-.1 1.6 1 1.8 8.3 2 4.7.2 8.8.6 9.3 1.1.7.7.1 7-4.2 42.7-1.1 9.3-2.2 19-2.4 21.5-.2 2.5-.9 8.2-1.6 12.7l-1.2 8.2-5.2 2.4c-6 2.8-11.8 4.8-12.4 4.3-.2-.2.2-7.3.8-15.8 2.3-30.9 3-41.6 4-57.3.5-8.8.9-17.7.9-19.8.1-2.9.5-3.7 2-3.7 1.2 0 1.8.7 1.7 1.7zm-392.8 0c-1 .2-2.6.2-3.5 0-1-.3-.2-.5 1.7-.5s2.7.2 1.8.5zm92.2.9c0 .2-1.6.4-3.5.4s-3.5-.4-3.5-.8 1.6-.6 3.5-.4c1.9.2 3.5.6 3.5.8zm15.5-.6c-.3.5-1.6 1-2.8.9-2-.1-2-.2.3-.9 1.4-.4 2.6-.8 2.8-.9.2-.1 0 .3-.3.9zm71.6 18.5v22.2l-.1 4.3-5.2-.3-5.3-.3-.5-19.5c-.7-25.8-.9-24.7 4.9-25.1 2.5-.2 4.9-.1 5.3.2.5.3.8 8.7.9 18.5zm34.6-18.4c.8.8 1 4.8.7 12.3-.2 6.1-.6 24.8-.8 41.5l-.4 30.4-5.8 1.8c-3.2 1-6.2 1.5-6.7 1-.4-.4-.4-20.2-.1-43.9l.7-43.1 4.6-.4c2.5-.2 5.1-.4 5.7-.5.5-.1 1.5.3 2.1.9zm-69.6.9c1.8 1 1.9 2.3 1.9 21 0 19.7 0 20-2.1 20-1.8 0-1.9-.3-.9-1.5 2.4-2.8.6-4-6.3-4.1-3.7 0-6.9-.3-7.2-.6-.9-.9-.8-32.9.1-33.8.5-.5 3.2-1.1 5.9-1.3 2.8-.2 5.4-.4 5.8-.5.5-.1 1.7.3 2.8.8zM79 455.9c4.1.7 3.7.8-4.3 1.2-6.5.3-8.7.1-8.7-.9 0-1.4 5.8-1.5 13-.3zm32 1.5c0 .2-1.1.6-2.5.8-1.4.3-2.5.1-2.5-.3 0-.5 1.1-.9 2.5-.9s2.5.2 2.5.4zM81 463c1.1.7-.5 1-5.2 1-3.8 0-7.1 0-7.5.1-.4 0-.9-.4-1.1-1-.5-1.4 11.7-1.5 13.8-.1zm30.7 3.3c-6.7 2.1-4.3 3.2 7.3 3.2h11v11.7c0 10-.2 11.8-1.6 11.8-.8 0-1.3-.4-.9-1 .3-.5.3-2-.1-3.4-.5-2.3-1-2.4-9.9-2.8-5.1-.1-9.6-.6-9.9-.9-.9-.8-2-16.4-1.4-18.1.4-.9 2.3-1.5 4.9-1.5l4.4-.2-3.8 1.2zm18.3-.3c0 1.2-.8 1.2-3.5 0-1.8-.8-1.7-.9.8-.9 1.5-.1 2.7.3 2.7.9zm-106.5 2c-.3.5-1.1 1-1.6 1-.6 0-.7-.5-.4-1 .3-.6 1.1-1 1.6-1 .6 0 .7.4.4 1zm5.2-.4c-.3.3-1.2.4-1.9.1-.8-.3-.5-.6.6-.6 1.1-.1 1.7.2 1.3.5zm-23 1c-.3.3-1.2.4-1.9.1-.8-.3-.5-.6.6-.6 1.1-.1 1.7.2 1.3.5zm80.7 2.6c.3 1.3.6 3.9.6 5.8v3.5l-6.8.2c-3.7.1-8.2.5-10 .8l-3.3.6.3-4.3.3-4.3h8c7.7 0 8-.1 7.9-2.3 0-1.2.5-2.2 1.2-2.2.6 0 1.4 1 1.8 2.2zm-41.6 3.1c.6.5 1.2 2.1 1.2 3.8 0 3-1.4 3.6-5.4 2-1.4-.5-1.6-1-.7-1.5 1.9-1.2-.6-3.6-3.8-3.6-1.9 0-2.2-.3-1.2-.9 1.6-1 8-.9 9.9.2zM19 475c-3.5 1.1-5 1.1-5 .2 0-.5 1.7-.9 3.8-.9 3.2-.1 3.4 0 1.2.7zm7 10.4c0 1.1-1.9 1.5-2.5.6-.3-.5.1-1 .9-1 .9 0 1.6.2 1.6.4zm83.5 5.6c-.6 1.7-.2 2 2.9 2 2.9 0 3.6.4 3.6 2 0 1.8.7 2 6.9 2h6.8l.7 4.6c.3 2.6.6 12.9.6 22.9 0 14.3-.3 18.4-1.3 18.8-3.1 1.2-14.4 1.8-16.7.9-2.6-1-2.6-1.2-3.8-17.3-1.5-20.5-1.6-37.9-.1-37.9.6 0 .8.9.4 2zm-38.5.5c-.7.9-1.1 1.8-.8 2.1.3.2 4.4.5 9.1.6l8.6.1.6 7.1c1.3 14.7 2.2 40.1 1.5 41-.8.8-6.2.4-12.9-1-3.4-.7-3.4-.6-2.8 2.4.4 2 .2 3.2-.6 3.5-2.7 1 1.3 2.9 7 3.4 5.5.5 6.2.3 7.6-1.7 2-2.9 2.3-2 3.1 7.7.3 5 .1 7.5-.7 8-.7.5-4.9.8-9.4.8h-8.4s-.6-9.5-1.4-21c-.7-11.6-1.9-28.2-2.5-36.9-.9-13-.9-16.1.2-16.7 2.1-1.4 3.1-1 1.8.6zm129.5 24c.2 8.2.1 17.4-.2 20.2l-.6 5.3h-10.4l-.2-19.5-.2-19.5 3.2.7c2.4.4 3.4.2 4.1-1.1.5-.9 1.7-1.6 2.5-1.4 1.3.2 1.6 2.8 1.8 15.3zm-34.2-13.2c1.6 1.1 1.7 3.3 1.5 20.7l-.3 19.5-6.5.3c-8.6.3-9.4-.4-9.6-7.5-.2-12.3-.5-32.8-.5-33.6.2-1.2 13.6-.8 15.4.6zm121.3 47.3c-.1 11.5-.5 14.7-1.6 15.4-2.1 1.3-28.7 1.2-31.1 0-1.7-1-1.9-2.1-1.8-11 0-5.5.4-10.2.9-10.5.4-.2 3.5-.6 6.9-.9 3.6-.2 7.8-1.3 10.2-2.6 3.3-1.7 12.1-4.4 16-4.9.4-.1.6 6.5.5 14.5zm31.9-10c5.2 3.5 16.4 7.6 20 7.2l3-.3-.4 9c-.2 4.9-.4 9.1-.6 9.3-.5.5-29.5.5-30.1-.1-.3-.3-.3-6.7.1-14.1.8-15.4 1.1-15.7 8-11zm-272 1.4c1.4.6 0 .8-4.5.8-5.8-.1-6.1-.2-2.5-.8 2.2-.4 4.2-.7 4.5-.8.3 0 1.4.3 2.5.8zm186.3 12.2l-.3 12.3h-12l-.3-10.2-.3-10.2 4.3-2c2.4-1 5.3-2 6.6-2 2.3-.1 2.3 0 2 12.1zm-33.8 2.4v10.5l-4.7-.3-4.8-.3-.5-5.8c-.3-3.2-.4-7.6-.2-9.7.4-4 1-4.4 8-4.9 2.2-.1 2.2.1 2.2 10.5zm220.7-7.4c-.4 1.3-.9 5.4-1.3 9.3-.4 3.8-1.1 7.6-1.6 8.2-.7.9-2.8 1.1-6.7.6-4.6-.4-5.9-.2-6.4.9-1 2.8.9 3.9 6.7 3.9l5.8.1-.7 5.2c-.4 2.8-1.1 5.2-1.6 5.4-.5.2-.6 1.5-.3 2.8.3 1.3.3 3.2-.1 4.1-.3 1-.8 4.5-.9 7.8-.7 12.1-8.4 69.4-9.7 70.9-.4.4-2.1.5-3.8.1l-3.1-.7v-7.1c0-3.9.5-13.2 1-20.7.6-7.4 1.7-22 2.4-32.3.9-11.8 1.9-19.4 2.7-20.3.9-1.2 1-2 .2-3.3-.9-1.4-.7-1.7 1.1-1.7 1.2.1 2.1-.5 2.1-1.4 0-.8.4-2.1.8-2.8.5-.6.4-1.2-.1-1.2-.6 0-1.2.7-1.6 1.5-.3.8-.9 1.5-1.4 1.5-1.1 0-1.5-12.6-.6-17.5.6-3.1 1-3.5 3.8-3.5 3.8 0 7.1-2.1 6.4-4.1-.3-.9.7-1.9 2.5-2.6 1.8-.8 2.7-1.8 2.4-2.7-.6-1.5.1-2.6 1.6-2.6.5 0 .7 1 .4 2.2zm-289.5 7.5c.3 4.9.3 9.1.1 9.5-.2.5-4.5.8-9.4.8-10.5 0-10.4.1-10.4-10.4v-7l5 .2c2.8.1 6.6-.2 8.5-.7 1.9-.5 4-.9 4.6-1 .7-.1 1.3 3 1.6 8.6zm37-1.2c.5 11.3.5 11.3-10.4 10.7l-5.8-.4v-17.5l7.9.1 8 .1.3 7zm-87.6 14.6c2.9-.1 5.5.2 5.8.7.3.5-1.8 1-4.7 1.1-2.9.1-6 .4-6.9.7-1.3.4-1.8 0-1.8-1.6 0-1.4.4-1.9 1.2-1.4.6.4 3.5.6 6.4.5zm50.3 1.4c1.2.7 1.1 1-.5 1.6-2.8 1.1-7.4 1.1-7.4-.1 0-.6-.5-1-1.1-1-.5 0-.8.4-.5.8.3.5-.1.9-.9.9s-1.5-.5-1.5-1-.9-.7-2.1-.4c-2.4.7-5.1-.1-4.4-1.3.7-1.1 16.6-.7 18.4.5zm37.1 0c0 3.9-15.9 3.1-16-.8 0-.4 3.6-.7 8-.7 6.4 0 8 .3 8 1.5zm26 .1c0 .2-.9.4-2.1.4-1.1 0-1.8-.4-1.4-1 .5-.8 3.5-.3 3.5.6zm67.3.2c.5.2 0 1-.9 1.7-2.3 1.6-5.9-.2-4.3-2.1.9-1.1 2.7-1 5.2.4zm62.3-.5c.3.3-.9 1-2.7 1.5-3.3.8-5.4-.1-4.3-2 .6-.9 6-.5 7 .5zm-93.6.7c0 .5-.4 1-.9 1-.6 0-1.3-.5-1.6-1-.3-.6.1-1 .9-1 .9 0 1.6.4 1.6 1zm46.5.1c-2.2.5-4.3 1.3-4.8 1.8-1.1 1.1-4.9.2-4.1-1 .3-.5-.2-.9-1-.9-.9 0-1.6.5-1.6 1.1 0 .5-.4.7-1 .4-2.8-1.7-.2-2.5 7.8-2.4 7.7.1 8.2.2 4.7 1zm36.5 1c0 .6-.4.7-1 .4-.5-.3-1-1.1-1-1.6 0-.6.5-.7 1-.4.6.3 1 1.1 1 1.6zm13.2.1c-.7.7-1.2.8-1.2.2 0-.6.3-1.4.7-1.7.3-.4.9-.5 1.2-.2.2.3-.1 1.1-.7 1.7zm4.8-1.4c0 .4-.9 1.5-2 2.5-2 1.7-2.5 1.1-1.4-1.7.6-1.6 3.4-2.3 3.4-.8zm4.5.2c.3.6-.1.7-.9.4-1.8-.7-2.1-1.4-.7-1.4.6 0 1.3.4 1.6 1zm47.5 1.8c0 2-.9 3.7-2.9 5.4-1.7 1.3-3.5 3.6-4 5.1-1.1 2.7-1 2.7 1.4 1.1 1.3-.8 2.2-2.1 1.9-2.8-.3-.8.2-1.6 1-1.9 1.1-.5 1.6 0 1.6 1.3 0 1.1-.4 2-1 2-.5 0-1 1.2-1 2.7 0 2.2.2 2.5 1 1.3.7-1 .9 2.4.5 11-.3 6.9-.7 18.8-1 26.5-.8 23.6-1.6 37.9-2.2 39.8-.5 1.8-.6 1.8-2.6-.1-3.3-2.9-10.2-5.2-15.8-5.2-3.5 0-5.1-.4-5.5-1.5-.4-.8.1-6.8 1-13.3.9-6.4 1.9-16 2.2-21.2.6-9.4 4.2-39.2 4.9-39.8.2-.2.6.6 1 1.7.3 1.2 1.1 2.1 1.7 2.1.6 0 .8-.3.5-.7-.4-.3.2-1.2 1.3-2s2-2.1 2-3c0-1.4.2-1.4 1.4.3.8 1 1 2 .5 2.2-1.8.7-.9 2 1 1.5 2.4-.6 5.6-6.5 4.8-8.7-.6-1.6-1-1.5-3.9.5-2.3 1.6-3 1.9-2.6.8.5-1.2.1-1.5-1.8-1.1-2.5.5-3.5 4.2-1.1 4.2.8 0 .8.3-.2.9-2.8 1.8-4.1.1-4.1-5.3 0-2.9.2-5.5.5-5.8.3-.3 4.8-.6 10-.7l9.5-.2v2.9zm-353 1.4c0 1-.5 1.8-1.1 1.8-.5 0-.7.4-.4 1 .7 1.2.3 1.2-1.9.4-1.4-.5-1.4-.9-.4-2.2 1-1.2 1-1.4.1-.8-1.3.7-1.8-.6-.7-1.7 1.3-1.3 4.4-.2 4.4 1.5zm20.8 1.9c0 1.7-.2 2.8-.5 2.5-.9-.8-1.1-6.6-.3-6.1.4.2.7 1.8.8 3.6zm41.2-3.2c0 .6-.4 1.3-1 1.6-.5.3-1-.1-1-.9 0-.9.5-1.6 1-1.6.6 0 1 .4 1 .9zm99.2 2.3c-.9.9-1.2.7-1.2-1.2s.3-2.1 1.2-1.2c.9.9.9 1.5 0 2.4zm6.8-1.8c0 .8-.4 1.7-.8 2-.4.2-.8-.4-.8-1.5 0-1 .4-1.9.8-1.9s.8.6.8 1.4zm88.7.8c-.3.8-.6.5-.6-.6-.1-1.1.2-1.7.5-1.3.3.3.4 1.2.1 1.9zm-180.6 1.5c-.8 1.5-1 1.5-1.1.2 0-1.7 1-3.2 1.8-2.5.2.3-.1 1.3-.7 2.3zm70.9.8c0 2.8-.4 3.5-2 3.5-1.4 0-2-.7-2-2.1 0-1.2.4-1.7 1.1-1.4.6.4 1.3-.2 1.6-1.4.8-3.1 1.3-2.6 1.3 1.4zm-109.9.6c-.5 1.3-1 1.9-1 1.2-.1-1.5 1-4.5 1.5-4 .3.2 0 1.5-.5 2.8zM195 577c0 .4-1.1 1.7-2.5 3l-2.5 2.3v-2.5c0-1.5.6-2.8 1.3-3.1 1.8-.6 3.7-.5 3.7.3zm19.3 5.9c.9 1 1.1 13.3.8 47-.5 61.5-.3 56.6-2.1 56.6-1.3 0-1.5-6.9-1.6-53-.1-47.7.3-64.5 1.4-55 .2 1.6.9 3.6 1.5 4.4zm111.2-5c-.3.6-1.1 1.1-1.7 1.1-.6 0-.6-.6.2-1.5 1.4-1.7 2.6-1.3 1.5.4zm-249.5 1c0 1.1-.4 2.3-1 2.6-.6.4-1-.5-1-1.9s.5-2.6 1-2.6c.6 0 1 .9 1 1.9zm13.5-.9c.3.5-.1 1-1 1s-1.3-.5-1-1c.3-.6.8-1 1-1 .2 0 .7.4 1 1zm232.5-.1c0 .6-.5 1.3-1.1 1.7-.6.3-.9 1.7-.6 3 .2 1.3-.1 2.4-.7 2.5-.7 0-.6.3.2.6.6.2 1 .8.7 1.3-.3.5.5 1.2 1.7 1.6 1.5.4 2.5.1 3.4-1 .9-1.3 1.3-1.4 1.7-.4.4 1 1.1.8 2.4-.8 1.3-1.4 3-2 5.7-2l3.8.1-.6 9c-.4 4.9-1.1 13-1.6 18-1 9.7-4 41.5-4 42.9 0 .4-2.8.5-6.2.2-3.5-.4-9.6-.7-13.7-.8h-7.4l.7-14.7c.4-8 1.1-20.7 1.6-28.1.6-7.4 1.2-16.3 1.5-19.8.2-3.5.7-6.7 1-7.2.3-.5 2.2-.6 4.2-.3 3.1.5 3.5.4 3-1.1-.4-.9-.3-1.5.2-1.2.5.3 1.2-.5 1.5-1.9.6-2.4 2.6-3.6 2.6-1.6zm-205 3.2c0 .6-.4.7-1 .4-.5-.3-1-1.1-1-1.6 0-.6.5-.7 1-.4.6.3 1 1.1 1 1.6zm46-1.8c0 .1-.4 1.7-.9 3.4-1 3.3.4 5.9 1.5 3 .3-.8 1.4-1.7 2.4-2 1.6-.4 1.9.3 2.3 6.7.3 3.9.5 8.2.4 9.6 0 1.4.3 16.9.7 34.4l.8 31.9-4.7-.6c-2.6-.4-6.6-1.5-9-2.6l-4.2-1.9.1-37.3.1-37.4 3.2-.3c2.6-.3 3.4-.9 4.5-3.8.6-1.9 1.6-3.4 2-3.4.4 0 .8.1.8.3zm21.2.9c.8 2.2.3 109.6-.5 110.4-.4.4-.8-2.8-.9-7.2 0-4.3-.2-9.3-.4-10.9-.2-2.9-.5-60.2-.4-82.3 0-9.9.9-13.8 2.2-10zm119.8.9c0 .5-.4.9-1 .9-.5 0-1-.7-1-1.6 0-.8.5-1.2 1-.9.6.3 1 1 1 1.6zm148 0c0 .6-.4.7-1 .4-.5-.3-1-1.1-1-1.6 0-.6.5-.7 1-.4.6.3 1 1.1 1 1.6zm-373.7.7c-.3 1.3.4 2.2 2.2 3 2.9 1.3 4.9.8 3.9-1.1-.3-.7.1-.3 1 .7 1.1 1.4 1.9 1.6 2.8.8.9-.7 1.8-.7 2.9.1 1.3 1 1.7 4.1 2.3 15.2.4 7.7.9 16 1.1 18.5.3 2.5.7 9.9 1 16.5.2 6.6.7 15.9 1.1 20.7.6 7.8.5 8.8-1 8.8-.9 0-3.4 1.1-5.6 2.5-2.2 1.4-4.2 2.5-4.6 2.5-.3 0-1.9.9-3.5 2l-2.8 2.1-.7-2.6c-.4-1.4-.4-4.7-.1-7.2.3-2.5.1-5.8-.3-7.3s-1.1-9-1.5-16.6c-.3-7.7-1-20.2-1.6-27.9-1.3-20.7-1.2-27.2.7-30 1.9-2.9 3.4-3.3 2.7-.7zm25.1 51.2c2.8 59.7 2.8 59 1.1 59-1.2 0-1.5-1.5-1.6-7.3 0-3.9-.2-8.1-.4-9.2-.4-2.9-1.5-20.1-2.1-34-.3-6.6-.9-18.1-1.4-25.5-1.4-19.5-1.3-34.7.3-35.3 1.4-.5 1.9 4.8 4.1 52.3zM255 581c0 .5-.4 1-1 1-.5 0-1-.5-1-1 0-.6.5-1 1-1 .6 0 1 .4 1 1zm22.7 1.2c-.3.8-.6.5-.6-.6-.1-1.1.2-1.7.5-1.3.3.3.4 1.2.1 1.9zm-99.9 54.7c.2 37.7-.1 56.2-.8 56.6-.5.3-1.2 0-1.5-.7-.5-1.6-1.2-26.6-2.1-72.5-.7-33.2-.6-35.4 1.1-37.3 1-1.1 2.1-2 2.4-2 .3 0 .7 25.2.9 55.9zm83.5-54.4c-.3.9-.8 1.4-1 1.1-.3-.3-.2-.9.2-1.5.9-1.6 1.5-1.3.8.4zm-152.9 32c.9 24.3 2.5 58.3 3 63 .3 2.3.1 3.4-.3 2.5-1.2-2.2-3.1-30.5-4.1-63-.6-15.7-1.2-29.7-1.4-31.1-.3-1.5-.2-3 .2-3.4.9-.9 1.8 10.2 2.6 32zm21.6-30c-1 1.2-1 1.5.4 1.5s1.6 1.8 1.7 14.2c.1 15.3.6 36.4 1.3 49l.4 7.8h-8.3c-7 0-8.4-.3-9-1.8-.7-1.8-3.9-69.1-3.3-69.7.1-.1 2.9-.5 6.1-.8 4.6-.5 5.7-.3 5.7.9 0 .7.7 1.4 1.5 1.4s1.5-.6 1.5-1.3c0-1.5 2.1-3.9 2.8-3.2.3.2-.1 1.1-.8 2zm16.5 7c1 16.7 1.4 96.4.4 97-1.1.7-.9 9-1.6-53.5-.5-50.2-.2-64.4 1.2-43.5zm124.1-8.6c-.7 1.1 2.3 2.5 4.7 2.2.9-.1 1.7.3 1.7 1 0 .8.3.9 1.3 0 .8-.6 1.7-.8 2-.4.4.3 1.3 0 2.1-.6 2.4-2 3.3-.6 3.9 6.6.6 7.4-1.8 64.2-2.8 65.1-.3.4-5.6.9-11.8 1.3-6.7.4-12.7 1.3-14.9 2.3-2.1.9-4 1.6-4.4 1.6-.4 0-.4-16.9 0-37.6.5-30.7.9-38 2.1-39.7.8-1.2 1.5-1.6 1.5-.9 0 .6.9 1.2 2 1.2s2 .6 2 1.2c0 .7.5.5 1.1-.5 1.7-3 3-1.9 2.4 2-.3 2.1-.2 3.2.1 2.6.3-.7.5-1.5.4-1.8 0-.3 1.3-1.9 3.1-3.6 3.1-2.9 4.5-3.7 3.5-2zm55.4.1c0 .5-.2 1-.4 1-.3 0-.8-.5-1.1-1-.3-.6-.1-1 .4-1 .6 0 1.1.4 1.1 1zm-256.6 9.3c.3 4.5.8 15.4 1.1 24.2.3 8.8 1 23.2 1.5 32 1.7 27.4 1.8 29.1 1 27-.9-2.3-2.9-23.9-3.5-38.3-.3-5.3-.7-12.9-1-16.7-1.4-18.2-2.3-36-1.8-36.7 1.2-2.1 2.2.9 2.7 8.5zM303.1 613c-.7 11.8-1.6 28.9-2.2 38-.5 9.1-1.2 20.5-1.4 25.5-.7 11.5-1.4 16.3-2.7 17.1-.6.4-.8-2.5-.4-8.2.3-4.9.8-15.4 1.1-23.4.3-8 .8-18.6 1-23.5 2.2-43.9 2.9-54.1 3.9-54.7 1.7-1.2 1.9 5.7.7 29.2zM200 629.3V668l-2.4 1.1c-1.4.7-3.6.9-5 .5l-2.6-.6.2-41.3.3-41.2 3.8.2c2.9.2 3.7-.1 3.8-1.5.1-.9.5-.1.9 1.8.5 1.9.9 20.9 1 42.3zm25.6-40.6c.3-.3 1.6-.2 2.9.3 1.4.5 2.6.5 3.4-.3.8-.8 1.1-.6 1.2.8.1 2.1 0 63.6-.1 73.7l-.1 5.6-4.2.4c-2.3.1-5.3.2-6.5 0l-2.4-.4.6-31.6c.3-17.4.6-36.2.6-41.6 0-9.9 0-9.9 2-8.1 1.1 1 2.3 1.6 2.6 1.2zm170.7 2c-.1 2.1-.7 12.8-1.3 23.8-1.9 34.7-3.9 60.7-4.6 61.4-.7.7-.4-10.9.6-24.4 1.2-16.9 1.8-27 2.5-43.5.6-14.9 1.3-21 2.4-21 .3 0 .5 1.7.4 3.7zm-86.1 71.5c-.7.7-1.2.8-1.2.2 0-1.4 1.2-2.6 1.9-1.9.2.3-.1 1.1-.7 1.7zm-185.4 4.7c-1.8 1.7-3.7 3.1-4.2 3.1s.8-1.5 3-3.4c4.8-4.2 5.9-3.9 1.2.3zm8.2-3.6c0 .2-1.1 1.4-2.5 2.7-1.4 1.3-2.5 2.1-2.5 1.7 0-.3 1-1.5 2.2-2.7 2.1-1.9 2.8-2.4 2.8-1.7zm151 4.2c0 2.5-.3 4.5-.7 4.5-.5 0-.8-2-.8-4.5s.3-4.5.8-4.5c.4 0 .7 2 .7 4.5zm-12.9-.2c-1.3 1.2-2 1.5-1.6.7 1.4-2.6 2.8-4.1 3.3-3.5.3.3-.5 1.6-1.7 2.8zm-13.1-1.7c0 .3-.5 1.5-1.1 2.7-.7 1.5-.2 1.3 1.5-.8 1.9-2.2 2.6-2.6 2.6-1.3 0 .9-.4 2-1 2.3-.5.3-1 1.5-1 2.6 0 2-.4 2.3-5.2 3.3l-2.8.6 1.7-3.7c1-2.1 2.1-4.4 2.6-5.1 1-1.2 2.7-1.7 2.7-.6zm-125.8 4.6c-3.2 3.3-4.7 1.7-1.6-1.7 1.9-2.1 2.9-2.6 3.2-1.6.2.7-.5 2.2-1.6 3.3zm130.9 1.1c-2.9 2.9-3.6 1.6-.9-1.8 1.4-1.8 2.3-2.4 2.6-1.6.2.7-.5 2.2-1.7 3.4zM157 669c0 .5-.5 1-1.1 1-.5 0-.7-.5-.4-1 .3-.6.8-1 1.1-1 .2 0 .4.4.4 1zm205.2 1.7c.7.6 4.3 1.3 8.1 1.6 3.7.2 7 .6 7.3.9.3.3.2 5.2-.2 10.8-.6 8.9-1 10.3-2.6 10.8-2.7.7-1.8 3.6 1.4 4.2 1.4.3 3.6 1.7 4.8 3.2 2.2 2.9 4.9 3.7 5.1 1.5.1-.6.2-1.8.3-2.6.1-1.8 2.6-2.7 2.6-.9 0 .7-1.2 3.6-2.7 6.3-2 3.8-2.6 6.3-2.6 10.5.1 3.7-.4 6.1-1.4 7.2-1.8 2-1 3.8 1.8 3.8 1.2 0 1.9.7 1.9 1.9s-.7 1.8-1.7 1.7c-1.5-.1-1.8.6-1.6 3.8.2 2.2 1 4.7 1.9 5.8 1.5 1.5 1.5 2.2.5 4.6l-1.3 2.7-1.2-3.5c-.8-2.5-1.7-3.5-3.1-3.5-1.1 0-1.9.5-1.8 1.2.2.6.5 3.1.8 5.5.5 4.1-.3 3.5-1.9-1.5-.3-1-1.5-1.7-3.2-1.7-2.4 0-2.6.3-1.9 2.7 1.6 5.8.8 18.4-1.3 20.5-.9.9-1-.1-.6-3.8.5-3.9.3-5.3-1-6.3-2.3-2-4.1 0-3.8 4.2.2 2.6-.2 3.4-2.2 4.3-2.3 1.1-2.7.9-4.5-2.1-3.6-6.1-21.4-18.5-26.5-18.5-1 0-2.6-1-3.5-2.1-2.3-2.9-10.5-4.1-19-2.9-3.6.5-6.8.7-7.1.4-1-1 3.4-3.4 6.3-3.4 6 0 11-6.3 7.6-9.7-.8-.8-.6-1.9.7-4.2 2.2-3.8.9-6-2.5-4.2-2.3 1.3-6.1 7.9-6.1 10.8-.1 1.2-1.9 2.6-5.1 4.2-2.9 1.3-5.4 3.3-5.9 4.5-.9 2.3-6.5 7.6-8 7.6-.5 0-.7-.6-.4-1.3.3-.8-.1-1.9-.9-2.5-1.1-.9-1.8-.7-3.3.9-1.8 2-1.8 2.1-.1 3.4 1.8 1.3 1.8 1.4-.2 2.4-2.8 1.5-3.1 1.4-3.1-1.3 0-1.4-.4-2.7-.9-3.1-1.5-.8-4.1 2.4-4.1 5.1 0 3-1.8 3.2-2.2.1-.4-3.1-4-3-4.8.2-.3 1.4-1.2 2.7-1.9 2.9-1.1.4-1.3-.5-.8-4.2.6-4.5.6-4.7-1.5-4.4-1.8.2-2.4 1.2-3.1 4.5-.9 5-3.1 5.7-3.3 1.2-.2-4.2-2.1-6-3.2-2.9-1.2 3.2-7 3.5-9.4.6-1.6-2-1.6-2-1.5-.1.1 1.2-.8 2.4-2.5 3.3-1.6.7-2.8 2-2.8 2.8 0 .7-.7 1.4-1.5 1.4-.9 0-1.2-.6-.9-1.5.7-1.8-1.9-3-4.3-2-1 .4-2.7.8-3.8.9-1.1.1-2.1.9-2.3 2.1-.6 3.2-2.2 4.2-2.2 1.4 0-1.3-.4-3-.9-3.8-1.3-2.1-4.1-.5-4.1 2.3 0 1.4-.4 2.8-1 3.1-.5.3-1-.3-1-1.5s-.5-3-1-4.1c-.9-1.5-1.5-1.7-3-.9-1.7.9-2 .7-2-1 0-2.6-1-2.5-3.9.1-4 3.8-3.5 1.1 1-4.8 2.4-3.2 5.1-6.7 5.9-7.9 6.1-8.7 7.6-10.9 8.5-12.3 6.7-10.7 8.4-12.6 19.1-21.1 10.2-8.1 13.1-10 15.3-10 1.1 0 2.8-1.1 3.8-2.5 1.4-2.1 3.1-2.8 7.9-3.4 3.4-.5 7.5-1.6 9.2-2.5 4.3-2.2 5.2-2 5.2 1.3 0 2.1-1.1 3.9-4 6.5-2.2 2-4 4-4 4.6 0 .5-.9 1.4-2.1 2-1.1.7-1.8 1.8-1.5 2.5.2.7-.2 1.9-1 2.6-1.4 1.2-1.4 1.4.2 2.6 1.8 1.3 4.4.2 4.4-1.8 0-1.4 3.9-4.9 6.6-5.9 1.4-.6 4.9-.7 7.7-.4 5.1.5 11.7-1.2 13.1-3.5.6-1 1.5-9.6 1.6-15.7v-4.1l6.7-1.8c3.7-1 9.8-2.1 13.5-2.5l6.9-.6-.4 6.3c-.1 3.5-.8 6.8-1.5 7.5-.7.7-1.2 2.7-1.2 4.5 0 4.5 2.5 5.4 5.3 1.9 2-2.4 2.5-2.5 5.7-1.6 1.9.6 4.9 1 6.6.8 2.2-.2 4.1.6 6.3 2.5 1.8 1.5 3.8 2.7 4.5 2.7.7 0 2.1.9 3.1 2 3.4 3.8 6.8 1.7 4.1-2.5-.9-1.4-2.3-2.5-3.1-2.5-.9 0-1.5-.9-1.5-2.1 0-1.5-1.2-2.5-4-3.7l-4.1-1.7.6-6.5c1-10.9 1-10.8 5.4-10.6 2.2.1 4.5.7 5.3 1.3zm-192.2.8c0 .8-.4 1.5-1 1.5-.5 0-.7-.7-.4-1.5.4-.8.8-1.5 1-1.5.2 0 .4.7.4 1.5zm265.3 1.2c-.7.2-2.1.2-3 0-1-.3-.4-.5 1.2-.5 1.7 0 2.4.2 1.8.5zm-239.5 6.9c-2.4 3-4.5 5.4-4.8 5.4-1.3 0-.8-7.9.6-9.1 2.1-1.8 3-.2 1.1 1.9-1 1-1.7 2.2-1.7 2.7 0 .8.6.1 5.3-5.5 1-1.1 2.2-1.8 2.7-1.5.6.4-.9 3.1-3.2 6.1zm38.2-5.7c0 .5-.3 1.7-.6 2.5-.6 1.5-.8 1.5-1.9-.1-.7-1-1.1-2.1-.9-2.5.7-1.1 3.4-1 3.4.1zm-64 2.8c0 1.8-12.9 15.7-13.7 14.9-.3-.3 1.8-3.2 4.6-6.6 2.8-3.3 5.5-6.9 6.1-8 1.3-2.5 3-2.6 3-.3zm234-.7c0 .5-.4 1-1 1-.5 0-1-.5-1-1 0-.6.5-1 1-1 .6 0 1 .4 1 1zm-316 .9c0 1.2-2 2.5-2.7 1.8-.7-.7.6-2.7 1.8-2.7.5 0 .9.4.9.9zm109.3 7c-2.7 3.9-6.9 7.3-6.2 5.2 1-2.9 8.4-11.9 8.7-10.6.2.8-.9 3.2-2.5 5.4zm24.8-3.8c-1.2 1.3-2.1 1.9-2.1 1.4 0-1.1 3.2-4.6 3.8-4.1.2.3-.5 1.5-1.7 2.7zm-89.2 6c-2.1 1.2-2.3.3-.8-3.3l1.4-3.3.3 2.9c.2 1.6-.2 3.2-.9 3.7zm270-3.9c0 1.3-.4 4.1-.8 6.3-.9 4-.9 4-1 .7 0-1.8-.6-4.2-1.1-5.3-1.2-2.2-.6-3.9 1.6-3.9.8 0 1.4.9 1.3 2.2zM98 681.9c0 1.2-2 2.5-2.7 1.8-.7-.7.6-2.7 1.8-2.7.5 0 .9.4.9.9zm73 0c0 1.3-10 12.1-11.2 12.1-.9 0 .9-2.7 6.6-9.5 2.8-3.4 4.6-4.4 4.6-2.6zm255.5.1c-.3.5-1.1 1-1.6 1-.6 0-.7-.5-.4-1 .3-.6 1.1-1 1.6-1 .6 0 .7.4.4 1zm-36.8 4.7c-.3 1-.5.2-.5-1.7s.2-2.7.5-1.8c.2 1 .2 2.6 0 3.5zm-316-1.5c-.3.8-.6.5-.6-.6-.1-1.1.2-1.7.5-1.3.3.3.4 1.2.1 1.9zm148.8.8c-1 1.1-2 1.8-2.3 1.5-.3-.3.3-1.4 1.3-2.5s2-1.8 2.3-1.5c.3.3-.3 1.4-1.3 2.5zm41.7-.8c-.7.7-1.2.8-1.2.2 0-1.4 1.2-2.6 1.9-1.9.2.3-.1 1.1-.7 1.7zM112 686.5c0 1.4-.4 2.5-.9 2.5-.4 0-.6-1.1-.3-2.5.2-1.4.6-2.5.8-2.5.2 0 .4 1.1.4 2.5zm88-1.5c0 .5-.5 1-1.1 1-.5 0-.7-.5-.4-1 .3-.6.8-1 1.1-1 .2 0 .4.4.4 1zm37 1.7c0 1-.4 1.4-.8.8-.4-.6-1.1-1.3-1.6-1.8-.5-.4-.2-.7.7-.7 1 0 1.7.8 1.7 1.7zm193 0c-1.4.3-3.2 1-4 1.6-1.3 1.1-1.3 1-.1-.6.7-.9 2.5-1.6 4-1.6l2.6.2-2.5.4zm-332 4.8c-.7.8-1.6 1.5-2.1 1.5-1.3 0-1.1-2.4.3-3.8 1.8-1.8 3.5.3 1.8 2.3zm98.4-.3c-1.7 3.2-3.1 4.8-4.7 4.8-.9 0 .9-3.8 3.1-6.3 2.5-2.8 3.4-1.9 1.6 1.5zm200 2.5c.3 2.4.2 4.3-.3 4.3-.8 0-2.1-5.5-2.1-9 0-2.9 1.8.6 2.4 4.7zm-266.2-.5c-1.4 1.5-2.2 1.8-2.2.9 0-1.5 3.2-4.3 3.9-3.5.3.3-.5 1.4-1.7 2.6zM242 692c0 .5-.5 1-1.1 1-.5 0-.7-.5-.4-1 .3-.6.8-1 1.1-1 .2 0 .4.4.4 1zm-17.5 1c.7 1.1-4.2 3.7-5.1 2.7-.9-.9 1.5-3.7 3.2-3.7.7 0 1.6.4 1.9 1zm9.5 7.9c-2.2 3.2-4.7 6.4-5.5 7.1-.8.7-1.5 1.7-1.5 2.2 0 .5-2.2 3.1-5 5.6-2.7 2.6-6.1 6.2-7.4 8-6.9 9.5-23.5 27.2-21.1 22.5.8-1.5 3.8-5.3 6.7-8.4 11.3-12 19.7-22.8 12-15.5-2.3 2.2-4.5 3.7-4.8 3.3-.7-.7 5.5-8.2 8.7-10.5 2-1.4 2.1-1.3 1.4.7-.4 1.2-.2 2.1.4 2.1.6 0 1.1-.5 1.1-1 0-.6 1-2.1 2.3-3.4 3-3 10.7-12.7 10.7-13.5 0-.4-1.1-.8-2.5-.9-1.4-.1-2.5.3-2.5.8 0 .6.7 1 1.6 1 1.4 0 1.4.3.4 1.5-1.6 1.9-3 1.9-3 0 0-1.3-.4-1.4-2.1-.4-2.1 1.1-2.1 1.1-.3-1.5 2.3-3 6.6-5 9.4-4.3 1.1.3 2.3.1 2.6-.4.3-.5.9-.9 1.5-.9.5 0-.9 2.6-3.1 5.9zm197.2-4.1c.5 1.9 5 3.2 11.1 3.2 1.5 0 2.7.4 2.7 1 0 .5-.7 1-1.5 1-.9 0-2 1-2.6 2.3-1.2 2.7-9 5.8-14 5.5-3-.1-2.8-.2 1.1-.7 3.1-.4 4.5-1.1 4.5-2.1 0-1.2-1.5-1.5-7.8-1.4-6.4.2-8.9.7-13.7 3.1-3.1 1.5-5.6 2.4-5.3 1.8.2-.6 4.6-3.2 9.7-5.8 5.2-2.6 10.1-5.9 11-7.2 1.9-3 4.2-3.2 4.8-.7zm-315.1 3.6c-2.5 2.7-5.8 3.3-3.9.7 2.1-2.8 5.3-5 5.7-4 .2.6-.6 2.1-1.8 3.3zm25.4-1.9c0 .5-1.7 1.1-3.7 1.3-3.6.3-4.7-.5-3.1-2.2 1.1-1 6.8-.3 6.8.9zm98.5-.2c0 .2-1.2 1.4-2.7 2.8-2.4 2.2-2.4 1.3 0-1.9.8-1.1 2.7-1.7 2.7-.9zm177 .1c0 .2-.7.7-1.6 1-.8.3-1.2.2-.9-.4.6-1 2.5-1.4 2.5-.6zm-329.7 1.8c-1.8 3-5.7 6.8-7 6.8-2.1 0-1.6-1.2 1.9-4.7 3.3-3.2 6.7-4.5 5.1-2.1zm21.7-.5c0 1-3.2 4.3-4.2 4.3-1.3 0-.9-1.7.8-3.4 1.6-1.6 3.4-2.1 3.4-.9zm-32 2.1c0 1.1-6.9 7.2-8.1 7.2-1.7 0-.9-2.2 2-5.1 2.8-2.7 6.1-3.9 6.1-2.1zm55 3.6c0 1.9-2.7 3.9-4.1 3-.8-.5-.7-.9.5-1.6.9-.5 1.6-1.6 1.6-2.4 0-.8.5-1.2 1-.9.6.3 1 1.2 1 1.9zm271-2c0 .3-1.4 2.6-3.1 5.1-3.9 5.8-4.4 10.9-1.1 11.3 2.5.4 2.8 1.9 1 5.7-.9 2.1-.9 3.1 0 4.6.7 1 1.2 3 1.2 4.4 0 2.4-.2 2.5-4.7 2.2l-4.8-.4-1.2-6.9c-2.7-14.7-2.7-15.7-.4-17.8 1.2-1.1 2.1-2.5 2.1-3.3 0-3.7 2-5.3 6.5-5.3 2.5 0 4.5.2 4.5.4zm46.1 2.3c-.5 1-2.2 2.9-3.7 4.3l-2.8 2.5 2.7-3.3c1.5-1.9 2.7-3.8 2.7-4.3s.5-.9 1-.9c.7 0 .7.6.1 1.7zm4 3c-1.2 2-1.4 1.4-.5-1.2.4-.9.9-1.4 1.1-1.1.3.2 0 1.3-.6 2.3zm-311.1-.9c0 .4-1.6 2.3-3.5 4.2-2.5 2.4-3.1 3.6-2.2 4.2.9.5.6 1.3-1.2 3l-2.3 2.3.7-2.5c.7-2.3.7-2.3-.9-.7-1.9 1.9-3.6 2.2-3.6.8 0-1.4 10.4-12.1 11.8-12.1.6 0 1.2.4 1.2.8zm-84 2.1c0 .6-.4 1.3-1 1.6-.5.3-1-.1-1-.9 0-.9.5-1.6 1-1.6.6 0 1 .4 1 .9zm8 1c0 .5-.7 1.2-1.6 1.5-1.4.5-1.5.4-.4-.9 1.4-1.7 2-1.9 2-.6zm140 1.1c-.6 1.1-1.5 1.8-2.1 1.4-.6-.4-.6-1.1.2-2 1.7-2.1 3.1-1.7 1.9.6zm-109-.3c0 .5-1.4 2.1-3 3.8-1.7 1.6-5 5.5-7.3 8.5-2.4 3-5.1 5.6-6.1 5.8-1.8.4.3-2.6 9.9-14.1 3.5-4.2 6.5-6 6.5-4zm7.2 2.5c-.7.7-1.2 1.9-1.2 2.9 0 2.5-3.9 6.9-6.1 6.9-1 0-1.9-.3-1.9-.7 0-.8 9.1-10.3 9.9-10.3.3 0 0 .5-.7 1.2zm37.6 1.9c-2.1 1.7-3.8 3.7-3.8 4.4 0 1.6-5 5.8-5.9 4.9-.6-.6 11.4-12.4 12.7-12.4.4.1-1 1.4-3 3.1zM422 715c-1.9.4-4.3 1.1-5.2 1.5-1.1.4-1.8.3-1.8-.3 0-1.3 2.4-2 7-2h3.5l-3.5.8zm60.9-.6c-1.1.9-6.9 1.4-6.9.6 0-.6 1.7-1 3.7-1s3.4.2 3.2.4zm-20.1 4.4c-.8.9-1.8 2.6-2.3 3.7-.4 1.1-.9 1.5-1.2.9-.2-.6.7-2.7 1.9-4.6 1.3-2 2.5-3.1 2.7-2.6.1.5-.3 1.7-1.1 2.6zM201 717.5c0 .3-.9 2.3-1.9 4.4-2.1 4.1-5.1 7.2-5.1 5.2 0-1.3 2.7-6.9 4.2-8.9 1.1-1.2 2.8-1.7 2.8-.7zm-69.7 5c-.3.9-.8 1.4-1 1.1-.3-.3-.2-.9.2-1.5.9-1.6 1.5-1.3.8.4zm-25.9.7c-1.6 2.8-9.7 11.8-10.2 11.4-.4-.5 7.4-10.4 9.3-11.8 1.5-1.1 1.7-1 .9.4zm300.8 1c-.7.7-1.2.8-1.2.2 0-1.4 1.2-2.6 1.9-1.9.2.3-.1 1.1-.7 1.7zm22.4-.8c.9.9 1 1.7.4 2.1-1.4.8-3-.3-3-2.1s.8-1.8 2.6 0zm-12.6 1.1c-.7.9-2.7 2.5-4.3 3.7l-2.9 2.1 1.1-2.1c1.6-3 4-5.2 5.8-5.2 1.3 0 1.3.3.3 1.5zM55 725c0 .5-.5 1-1.1 1-.5 0-.7-.5-.4-1 .3-.6.8-1 1.1-1 .2 0 .4.4.4 1zm409.1 1.2c-.4 1.2-2 2.5-3.4 2.9-2.3.6-2.7.4-2.7-1.3 0-1.5.5-1.9 2-1.5 1 .3 2.4-.1 3.1-.9 1.6-2 2-1.7 1 .8zm-342 .5c-1.1 2.2-7.1 7.6-7.7 7-.5-.5 6.8-8.7 7.8-8.7.5 0 .4.8-.1 1.7zm3.4 1.7c-.9 1.3-3.5 3.6-5.8 5.2l-4.2 2.7 5.3-5.1c5.8-5.7 7.1-6.5 4.7-2.8zm320.9 2c-.3.9-1.3 1.6-2 1.6-.8 0-2.7.8-4.2 1.7-3.6 2.3-2.4.9 2.4-2.7 4.2-3.1 4.8-3.2 3.8-.6zm-263.4-.6c0 1.5-5.9 9.2-7 9.2-1.7 0-1.1-1.5 2-5.8 2.8-3.9 5-5.4 5-3.4zm31 0c0 .5-1.1 1.9-2.5 3.2-2.8 2.7-3.6.8-.8-2.2 1.7-1.9 3.3-2.4 3.3-1zm219.8 1.2c-1.3 2-3.8 2.8-3.8 1.2 0-.7 3.1-2.7 4.8-3.1.1-.1-.3.8-1 1.9zm-231.5 1.7c-1.8 3-14.8 18.1-25.5 29.8-6.3 6.7-4.2 2.5 3-6.1 3.7-4.5 9.4-11.6 12.7-15.9 4.9-6.2 9.1-10.1 11.3-10.5.1 0-.5 1.2-1.5 2.7zm-111.7 1.1c-1.5 2.8-4.6 6.1-4.6 4.8 0-.7 5.3-7.6 5.8-7.6.1 0-.4 1.3-1.2 2.8zm86.4-2.2c0 .4-1.4 2.3-3.1 4.3-8.7 10.3-12.4 15.1-15.6 20.1-1.9 3-4 5.9-4.7 6.5-.6.5-2.1 2.3-3.3 3.8-4.2 5.5-9.5 10.9-10 10.3-.3-.3.6-1.9 2.1-3.6 1.4-1.7 2.6-3.5 2.6-3.9 0-.4 1.1-1.4 2.5-2.1 1.4-.7 3.6-3.6 4.9-6.4 1.3-2.8 4.4-7.1 6.8-9.6 2.3-2.5 5-5.7 5.8-7.2.8-1.5 3.5-4.9 6-7.7 4.1-4.7 6-6.1 6-4.5zm245 2.4c0 .5-.7.7-1.5.4-.8-.4-1.5-.8-1.5-1 0-.2.7-.4 1.5-.4s1.5.4 1.5 1zm47.7 4.3c-1.8 4.1-4.3 6.3-3.2 2.6 1-3 3.6-7.1 4.2-6.5.2.2-.2 2-1 3.9zM92 739c-2.1 3-4 4.6-4 3.5 0-1.3 4.1-6.5 5.1-6.5.6 0 .1 1.3-1.1 3zm371.3-1c-.6 2.2-3.3 2.4-4 .3-.4-1 .9-1.7 3.9-2.2.3 0 .4.8.1 1.9zm-309.2 2.7c-1.1 2.1-7.1 8-7.1 7.1 0-.4.6-1.3 1.3-2 .7-.7 2-2.5 3-4.1 1.9-3 4.4-3.9 2.8-1zm285.6 1.7c-1.9 1.4-11.4 3.2-12.3 2.3-.3-.2 1.8-.7 4.5-1.1 2.8-.4 5.3-1.1 5.6-1.6.3-.6 1.4-1 2.3-1 1.5.1 1.5.2-.1 1.4zm-291.8.3c-.1 1.3-9.4 12.6-10.7 13.1-2.3.7-1.2-1.3 3.9-7.6 4.6-5.6 7-7.5 6.8-5.5zm248.3 1.8c.4 1.7-.2 3.1-1.9 4.6-3.1 3-4.8 1.4-3.9-3.5.6-2.9 1.1-3.6 3-3.6 1.7 0 2.5.7 2.8 2.5zm63.8-1.7c0 1.2-3.9 4.6-4.5 4.1-.6-.7 2.4-4.9 3.6-4.9.5 0 .9.4.9.8zm33.5.2c.3.5-.1 1-.9 1-.9 0-1.6-.5-1.6-1 0-.6.4-1 .9-1 .6 0 1.3.4 1.6 1zm-391.7 2c-.7 1.1-1.7 2-2.2 2-.5 0-.1-.9.9-2s2-2 2.2-2c.2 0-.2.9-.9 2zm99 .2c-.8 1.2-2.5 2.9-3.8 3.7-2.2 1.5-2.2 1.3.5-2.1 3.2-4.1 5.7-5.3 3.3-1.6zm-97.2 2.4c-1.5 1.4-3.1 2.3-3.4 2-.9-.9 3-4.6 4.7-4.6 1.1.1.8.8-1.3 2.6zm210.1-.6c1.4 1.1 4 2.1 5.7 2.1 1.7.1 4.5.4 6.1.8l3 .6-3.7 2.3c-2.7 1.7-3.8 3.1-3.8 4.8 0 2.5 1.8 3.2 3.7 1.3.6-.6 2.2-1.7 3.5-2.3 1.5-.8 2.2-2 2.1-3.4-.3-2.5 1.4-2.9 4.1-.9 1.6 1.2 1.6 1.4-.9 2.7-1.5.8-4 3.4-5.7 5.7-1.6 2.4-5.3 5.9-8.3 7.8-3.7 2.3-5.5 4.1-5.5 5.5 0 2.7 2.5 2.6 6-.3 1.5-1.2 4.2-3 5.9-3.9 1.7-.9 4.1-3.3 5.2-5.3 3-5.1 5.5-6.2 7.8-3.4 2 2.5 4.1 1.9 4.1-1.2 0-1.2-.7-1.9-2-1.9-1.1 0-2-.7-2-1.5 0-2.2 2.1-1.8 5.4.8l2.9 2.3-2.4 2.7c-4.6 5-7.9 9.5-7.9 10.6 0 1.8 3.5 1.3 6.2-.9 1.4-1.1 3.3-3.8 4.2-6.1.9-2.3 2.2-3.9 2.9-3.6 1.9.6 5.8 6.8 5 8-.4.6-1 .2-1.6-1.1-1.5-3.2-4-2.7-6.1 1.3-1.1 1.9-3 4.2-4.2 5-4.6 3-2.3 6.7 2.3 3.9 2.3-1.5 2.1-1.1-1.2 2.4-3.4 3.7-4.4 4.2-8.3 4.2-5.7 0-6.7.6-13.2 8.5-5.6 6.8-9.5 9.4-19.5 13-5.9 2.2-9.1 4.8-9.9 8.1-.4 1.3-1.2 2.4-1.9 2.4-.6 0-2.4.6-3.9 1.4-1.7.9-2.9 1.1-3.6.4-.6-.6-3-.7-6-.3-4 .5-5.1 1.1-5.6 2.8-.6 2.4-2 1.5-3-2-.6-2-.3-2.3 3.2-2.9 5.9-.9 7-1.9 5.4-4.4-1-1.7-1-2.5-.1-3.6.6-.7.9-2.8.7-4.6-.4-2.2.1-4.1 1.3-5.8 2-2.7 2.3-4.3 2.1-10.3-.2-3.9-2.6-7.1-8.1-10.9l-2.3-1.7 9.1-9.2c5.5-5.6 8.8-9.6 8.2-10.2-1.6-1.6-4.7.2-9.1 5.4-4.3 5.2-11.4 10.9-13.4 10.9-.6 0 .7-1.7 3-3.8 2.3-2 4.8-5.1 5.7-6.8 1.8-3.4 7.5-7.7 12.7-9.5 1.9-.7 4.2-2.1 5-3.1.9-1.1 4-2.1 8.5-2.8 3.8-.6 7.1-1.3 7.4-1.6.9-.8 2.3-.4 4.8 1.6zm90.5.2c-.7.7-1.2.8-1.2.2 0-1.4 1.2-2.6 1.9-1.9.2.3-.1 1.1-.7 1.7zm9.8 3.3c1.6 1.9.3 4-1.6 2.4-1.5-1.3-1.9-3.9-.5-3.9.5 0 1.4.7 2.1 1.5zm27.6 0c-1.1.8-3.4 1.5-5 1.4-2.8-.1-2.6-.2 1.4-1.3 2.5-.8 4.7-1.4 5-1.4.3-.1-.4.5-1.4 1.3zm-346.6.3c0 1.4-3.9 4.6-4.7 3.9-.3-.4.2-1.6 1.2-2.7 1.9-2.1 3.5-2.6 3.5-1.2zm-16 .6c0 .3-.4.8-1 1.1-.5.3-1 .1-1-.4 0-.6.5-1.1 1-1.1.6 0 1 .2 1 .4zm114.3 2.6c-.9 1.6-2.1 3-2.6 3-.9 0-.1-1.7 2.1-4.3 2.3-2.6 2.5-2.1.5 1.3zm-60.9 1.5c-.7 1.6-2.4 2.1-2.4.6 0-.8.7-1.3 2.7-2 .1-.1 0 .6-.3 1.4zm258.5.5c2.1 1.4 3.7 1.8 6.4 1.3 2.8-.4 3.8-.2 4.3 1 .7 1.8 5.8 2.1 9.1.5 1.9-.9 12.1-.3 11.1.7-.1.2-3.8 1.1-8.2 1.9-7.2 1.5-8.3 1.5-12.7.1-4.4-1.5-5.2-1.5-9.6 0-2.6.9-5.9 2.7-7.3 3.9-2.6 2.5-6.2 4.6-7.7 4.6-.5 0 1.2-2.3 3.8-5.1 2.6-2.9 5.3-6.5 6-8 1.4-3.4 1.3-3.4 4.8-.9zm-206.6 2.5c-.3.9-.8 1.4-1 1.1-.3-.3-.2-.9.2-1.5.9-1.6 1.5-1.3.8.4zm-98.9 1.6c-.3.5-1 .7-1.5.3-.5-.3-.7-1-.3-1.5.3-.5 1-.7 1.5-.3.5.3.7 1 .3 1.5zm18.7 1.2c-1.3 1.2-2 1.5-1.5.7 1.2-2.2 2.8-3.9 3.3-3.4.3.3-.6 1.5-1.8 2.7zm-50.7.2c-.6 1.6-2.4 2.1-2.4.7 0-1.1 1.1-2.2 2.1-2.2.5 0 .6.7.3 1.5zm-13.8 4.3c-2.4 2.4-3.1.6-1-2.5 1.6-2.4 1.9-2.6 2.2-.9.2 1-.3 2.5-1.2 3.4zm6.3-2.6c-.9 1.6-1.4 1.9-1.7.9-.2-.7.2-1.7.9-2.2 2-1.3 2.1-1.1.8 1.3zm94.1 1.7c-2 3-4 4-4 2.2 0-1.2 5-6.4 5.7-5.8.3.3-.5 2-1.7 3.6zm-48 4c-2 2.9-4 4.1-4 2.4 0-1 5.3-6.4 5.8-5.8.2.2-.6 1.8-1.8 3.4zm65.8 2.1c-3.7 5.7-6.8 7.7-6.8 4.6 0-1.4 8.8-10.6 10.2-10.6.3 0-1.2 2.7-3.4 6zm-46-3.3c-.2 1.4-1.5 1.8-5.8 2l-5.5.3 4.5-1.9c5.8-2.4 7.2-2.5 6.8-.4zm40.7 1.2c-.3.6-1.1 1.1-1.7 1.1-.6 0-.6-.6.2-1.5 1.4-1.7 2.6-1.3 1.5.4zm12.9.5c-.4 1-1.3 1.5-2.2 1.1-.8-.3-2.1.3-2.8 1.2-1.2 1.6-1.3 1.6-1.4.2 0-1.8 2.6-3.3 4.1-2.3.5.3 1.2-.2 1.5-1.1.4-.9.8-1.4 1-1.2.3.2.2 1.2-.2 2.1zm-68 0c-.7 1.9-3.4 2.9-3.4 1.2 0-.7.3-1.6.7-1.9 1.2-1.3 3.2-.7 2.7.7zM79 771c0 1.3-2.8 2.5-3.8 1.6-.3-.4 0-1.1.8-1.6 2-1.3 3-1.2 3 0zm286.4 1.5c-.9 1.4-2 2.5-2.5 2.5s-.9-1.1-.9-2.5c0-2 .5-2.5 2.5-2.5 2.5 0 2.5.1.9 2.5zm20.6-.5c0 .5-.5 1-1.1 1-.5 0-.7-.5-.4-1 .3-.6.8-1 1.1-1 .2 0 .4.4.4 1zm-378 .4c0 2-2.2 5.6-3.5 5.6-2 0-1.9-1.9.2-4.2 1.5-1.7 3.3-2.4 3.3-1.4zm347 3.1c.6.8.9 2.3.5 3.5-.7 2.3-3.5 2.7-3.5.5 0-.9-.7-1.8-1.6-2.2-1.5-.6-1.5-.8.2-2 2.3-1.7 2.9-1.6 4.4.2zm-250.5.5c-.3.5-1 1-1.6 1-.5 0-.9-.5-.9-1 0-.6.7-1 1.6-1 .8 0 1.2.4.9 1zm42.5-.1c0 1.2-2 2.5-2.7 1.8-.7-.7.6-2.7 1.8-2.7.5 0 .9.4.9.9zm116.2 4.3c-.8.8-.8 1.7-.1 3 1.2 2.2.6 3.3-1.9 3.3-.9 0-1.7.7-1.7 1.5 0 1.6 7.6 3.6 10.1 2.6 1.9-.7 1.8-3.5-.2-5.8-1.6-1.6-1.5-1.8 0-2.4 3.6-1.4 10.1 4.5 7.7 6.9-.6.6-1.1 1.9-1.1 2.9 0 1.2-.8 1.8-2.4 1.8-2.4 0-4.4 2.9-3.3 4.8.3.4-.1 1.8-.9 3.2-1.3 2.4-1.3 2.4-1.4.3 0-3.2-1-5.3-2.6-5.3-1.7 0-1.7 2.9 0 9.4 1.3 4.9 3.6 7.2 5.9 6.1.6-.4.3.1-.7.9-1.1.9-3.4 1.6-5.2 1.6-2.7 0-3.1-.3-2.7-2.3.5-2.8-2.2-5.6-3.8-4-.8.8-.8 1.7 0 3.1 1.5 2.8 1.4 3.2-.8 3.2-1.5 0-2.1-.8-2.3-3.2-.4-4.3-3.8-5.3-3.8-1.2v2.8l-2.8-2.7c-1.6-1.5-3.1-2.4-3.5-2.1-.4.4-1.5 0-2.5-.9-3-2.7-4.6-.7-3.2 4.2.7 2.7.8 4.7.1 5.9-1.7 3-4.4-5.2-3.7-11 .5-3.8.4-5-.9-5.4-2.6-1-1.8-5.3 1.3-6.6 7.9-3.2 9.8-4.4 13.9-8.6 2.4-2.6 6.3-5.4 8.6-6.3 4.4-1.8 5.9-1.7 3.9.3zm102.7 3.2c-.2.2-1.7.2-3.3-.1l-2.9-.6 2.4-1.8c2.3-1.8 2.4-1.8 3.3.2.5 1 .7 2.1.5 2.3zm-13.9 1.7c0 .5-.4.9-1 .9-.5 0-1-.7-1-1.6 0-.8.5-1.2 1-.9.6.3 1 1 1 1.6zm21.8 2.1l13.3-.3-2.6 5c-2.4 4.9-2.7 5.1-6.8 5.1-2.3-.1-5.9-.9-8-1.9-5.4-2.5-10.3-1.5-10 2.1.1 2.1-.5 2.9-2.9 3.7-3.8 1.3-11.8 1.4-11.8.2 0-.5 1.8-2.3 4-4.1 2.2-1.7 4.9-4.9 6.2-7.1 1.6-2.9 2.6-3.8 3.8-3.2.8.4 7.5.7 14.8.5zm-22.8.8c0 .5-.8 1-1.7 1-1.5 0-1.6-.2-.3-1 1.9-1.2 2-1.2 2 0zm-178.7 3c1.8 0 2.4 2.5.8 3.4-1.1.7-7.1-2.5-7.1-3.8 0-.4 1-.6 2.3-.2 1.2.3 3 .6 4 .6zm29.7 4.1c2.7 2.7 5.8 4.9 6.9 4.9 2.8 0 4 2.7 3.8 8.3-.2 3.8-.5 4.7-2 4.7-1.1 0-2.1.8-2.3 1.7-.5 1.7-2.2 1.8-20.1 1.6-10.8-.1-20.2-.4-21-.7-1.3-.6-1.8-7.1-.7-10 1-2.7 2.3-.7 1.7 2.7-.8 5.1 1.4 6.3 8.5 4.7 3.1-.7 6.9-1.9 8.4-2.7 4-1.9 7.4-1.6 12.3 1.3 2.5 1.4 4.9 2.3 5.5 1.9 1.3-.8 1.3-4.5 0-4.5-.5 0-1-1.3-1-2.9 0-3.1-1.3-4.7-4.4-5.2-1-.2-2.3-1.2-2.7-2.2-.5-.9-1.3-2.5-1.8-3.5-.5-1.1-2.7-2-6.2-2.5-8.3-1.3-7.6-2.2 1.7-2.4l8.6-.1 4.8 4.9zm135.4-3.2c.3.5-.4 1.1-1.6 1.4-2 .6-2 .7-.5 3.1 2.6 3.8 2 4.1-1.4.7-1.8-1.9-2.9-3.8-2.5-4.6.6-1.6 5.1-2.1 6-.6zm7.9.5c.3.8-.1 2-.9 2.6-1.2 1-1.4.8-1.4-1.4 0-2.8 1.4-3.5 2.3-1.2zm-181.6 3.4c3.7 2.3 1.6 3.3-2.2 1.1-1.9-1.2-3.2-2.5-2.9-3 .5-.9 1-.8 5.1 1.9zm14.7 3.6c-1 .8-2.1 1.2-2.3 1-.3-.2.4-1.1 1.5-1.8 1-.8 2.1-1.2 2.3-1 .3.2-.4 1.1-1.5 1.8zm11.2 5.3c-.3.3-2.7.7-5.3 1l-4.8.5 4-3.5 4-3.5 1.3 2.5c.8 1.4 1.1 2.7.8 3zm-150.6-4c0 1.1-5.1 7.3-6.1 7.3-1.5 0-1-2 1.4-5 2-2.6 4.7-3.9 4.7-2.3zm10.4.6c-.2.7-1.4 1.8-2.5 2.5-2.2 1.4-2.1.6.4-2.6 1.2-1.6 2.8-1.6 2.1.1zm277-.4c.3.5-.1 1.1-.9 1.5-.9.3-1.5 1.8-1.5 3.6 0 3.3-1.1 3.8-3 1.5-1.2-1.4-.8-2.7 1.8-5.8 1.7-1.9 2.8-2.2 3.6-.8zm-293.7 2.5c-.3.8-1.6 2-2.8 2.6-1.7 1-2 .9-1.4-.2 2.4-4.1 5.5-5.9 4.2-2.4zm23.4 1.6c-2.7 3.7-1 4 1.8.4 1.2-1.5 2.1-2.1 2.1-1.4 0 1.6-6.8 10-8.1 10-.6 0-.6-.7.1-1.9 1.4-2.8 1.2-3.6-.5-2.1-3 2.5-1.5-1 2.1-5 4.2-4.6 5.9-4.5 2.5 0zm-30.3-.5c-1.1 2.5-2.8 3.4-2.8 1.5 0-.5-.7-.7-1.5-.4-1.1.5-1.3.2-.9-1 .4-1.1 1.3-1.4 2.4-1.1 1 .3 2.1.1 2.5-.5 1.2-2 1.4-1 .3 1.5zm17.2-.6c0 2-4.7 6.4-5.9 5.7-.9-.6-.5-1.6 1.5-3.7 2.8-3 4.4-3.7 4.4-2zm177.1 4.3c.4 2.4 1 5.2 1.4 6.4.5 1.5 0 2.3-2 3.2-3.5 1.6-3.5 1.6-2.3-1.8.6-1.7.8-4.4.5-5.9-.6-2.9.2-7.6 1.1-6.6.3.2.9 2.4 1.3 4.7zm-140.6-2.3c-.3.6-1.1 1.1-1.7 1.1-.6 0-.6-.6.2-1.5 1.4-1.7 2.6-1.3 1.5.4zM43.8 808c-1.4 2.2-4.4 3.8-3.2 1.7 1.4-2.3 2.7-3.7 3.5-3.7.5 0 .4.9-.3 2zm23.2-1.1c0 .5-.7 1.4-1.5 2.1-1.6 1.4-1.8 1-.9-1.4.6-1.7 2.4-2.2 2.4-.7zm19.1 1.8c-.5 2.1-1.4 2.9-3.6 3.1l-2.8.4 2.9-3.1c3.6-3.8 4.4-3.9 3.5-.4zm145.5.5c0 1.8.3 4.9.7 6.8l.8 3.5-2.1-2.8c-1.2-1.5-2.8-2.7-3.5-2.7-.7 0-1.5-.7-1.9-1.5-.4-1.2 0-1.4 1.9-.9 2.3.6 2.5.3 2.5-2.5 0-1.7.4-3.1.8-3.1.5 0 .8 1.5.8 3.2zm-187.2 4.1c-2.8 2.8-6.7 7.4-8.8 10-2.1 2.6-4.1 4.6-4.3 4.3-.6-.6 7.9-11.2 13.4-16.8 2-2.1 3.9-3.5 4.2-3.2.3.2-1.8 2.8-4.5 5.7zm27.7-4.1c-.5 1.3-1.7 2.5-2.7 2.7-1.7.3-1.6 0 .5-2.3 3-3.2 3.3-3.2 2.2-.4zm18.6.3c-.4.8-1.1 1.5-1.7 1.5-.7 0-.7-.6 0-2.1 1.3-2.3 2.6-1.9 1.7.6zm182.3-.9c0 1.7-2.2 1.4-2.8-.4-.2-.7.3-1.2 1.2-1.2.9 0 1.6.7 1.6 1.6zm45 .9c.7.8.9 2.2.6 3.1-.6 1.5-.8 1.5-2.7-.2-2-1.8-2.1-1.8-3.4-.1-.6.9-2 1.7-3 1.7-1.3 0-1.6.5-1.1 2.5 1 3.8-.4 5.1-2 2-3-5.7-.5-11.3 3.8-8.6 1.8 1.1 2.2 1.1 3-.3 1.1-2 3.2-2.1 4.8-.1zm-269 3.4c0 .5-.7 1.2-1.6 1.5-1.4.5-1.5.4-.4-.9 1.4-1.7 2-1.9 2-.6zm251.3 3.2c-.7.7-2 .8-3 .5-1.7-.7-1.7-.8.1-2.2 2.3-1.7 4.8-.2 2.9 1.7zm-49.1 2.4c1 1.3-1.1 3.5-2.7 2.9-.7-.3-1.5-2.1-1.7-3.9-.4-3.4-.3-3.4 1.7-1.7 1.1.9 2.3 2.1 2.7 2.7zm15.8.9c0 1.1-1.9 1.5-2.5.6-.3-.5.1-1 .9-1 .9 0 1.6.2 1.6.4zm-225 1.4c0 1.6-5.1 7.7-7.1 8.4-2.4.9-1.9-.2 2.6-5.5 2.9-3.5 4.5-4.5 4.5-2.9zm-23.4 3c-.8 1.5-2.4 3.6-3.6 4.7l-2.3 2 1.4-2.5c1.4-2.6 5-7 5.6-7 .2 0-.3 1.2-1.1 2.8zm12.4-.9c-1.1 2.1-2.9 3.6-3.6 2.9-.4-.5 3.3-4.8 4.2-4.8.2 0 0 .9-.6 1.9zm13 1.6c-2.6 2.8-4.6 2.4-2.8-.5 1.2-1.8 3.7-3.1 4.7-2.3.3.2-.6 1.4-1.9 2.8zm5.8-1c-1.1 2.4-2.8 3.2-4.1 1.9-.6-.7 3.2-4.3 4.5-4.4.4 0 .2 1.1-.4 2.5zm-36.5 1.6c-2 3.4-5.3 6.7-5.3 5.3 0-1.5 5-8.4 6.1-8.4.6 0 .2 1.4-.8 3.1zm11.7 5.8c-.6 1.2-1.6 1.9-2.1 1.5-.6-.4-.4-1.3.7-2.5 2.1-2.4 2.9-1.8 1.4 1z"/><path d="M248.6 19.9c-.3.4.3 1.6 1.3 2.5 1.6 1.5 1.9 1.5 3.4-.2 1-1 1.4-2.2 1-2.5-.9-1-5.1-.9-5.7.2zM249 32.5c-1.3 1.5-.5 2.2 3 2.6 3.8.4 4.4-.1 2.5-2.1-2.2-2.4-3.8-2.5-5.5-.5zM406 271.6c-1.9.7-4.3 1.3-5.2 1.3-1 .1-1.8.5-1.8 1.1 0 1.5 9.3 1.2 11.5-.3 1-.8 1.5-1.9 1.1-2.5-.8-1.4-1-1.4-5.6.4zM355.5 570.1c-.4.6-.5 1.2-.2 1.5.2.3.7-.2 1-1.1.7-1.7.1-2-.8-.4zM412 576c-1.2.7-1.2 1 .3 1.6 2.1.8 2.9.3 1.9-1.3-.5-.8-1.3-.9-2.2-.3zM411.5 580c-.3.5-.2 1 .4 1 .5 0 1.3-.5 1.6-1 .3-.6.2-1-.4-1-.5 0-1.3.4-1.6 1zM406.4 583.4c-.3.8-.4 2.3-.1 3.3.4 1.4.5 1.3.6-.5 0-1.2.6-2.2 1.1-2.2.6 0 1-.5 1-1 0-1.5-2-1.2-2.6.4zM411.3 586.7c-.3 1-.8 2.2-1 2.8-.3.5.2.2 1-.7.8-1 1.7-1.5 2-1.1.4.3.7-.1.7-1 0-2.2-1.9-2.2-2.7 0zM364.5 575c-.3.5-.1 1 .4 1 .6 0 1.1-.5 1.1-1 0-.6-.2-1-.4-1-.3 0-.8.4-1.1 1zM363 704.5c0 .8.9 1.5 2 1.5s2-.7 2-1.5-.9-1.5-2-1.5-2 .7-2 1.5zM318.8 787.6c-8.6 8.8-10.6 10.4-12.6 9.9-1.8-.4-2.2-.2-2 1.1.5 2.8-2.1 2.7-3.2-.1-1.3-3.4-3.2-2.2-2.8 1.7.4 4.1-2.3 5.9-5 3.4-2.3-2-3.7-.7-2.7 2.4.4 1.1.2 2-.4 2-.5 0-1.3-.9-1.6-2-.3-1.1-1.3-2-2.1-2-1.9 0-1.8 4.4.1 6.4.8.8 1.2 2.2.9 3-1 2.5.5 1.9 6-2.3 2.8-2.2 7.7-5.5 11-7.5 5.7-3.4 27.6-23.8 27.6-25.7 0-2.7-4 .2-13.2 9.7zM14.9 389.5c-.3.2-3.8.5-7.7.6-6.7.1-7.2.3-7.2 2.3 0 2.1.5 2.2 10 2.4 8.1.1 10.2-.1 10.7-1.3 1-2.7-3.8-6-5.8-4zM460 573.6c0 .8.5 1.2 1 .9.6-.4.8-1.1.5-1.6-.9-1.4-1.5-1.1-1.5.7zM481 573.8c0 .7.6 1.5 1.4 1.8.9.3 1.2 1.3.9 2.2-.4 1.3-.2 1.2 1-.3 2.1-2.6 2.1-3.9 0-3.1-.9.4-2 .1-2.5-.6-.6-1.1-.8-1.1-.8 0zM463.3 574.7c-.7.2-1.3 1.1-1.3 1.8 0 .8-1.2 2.3-2.6 3.4-3.5 2.8-2.2 2.7 2.1-.2 4.4-2.9 5.7-6.6 1.8-5zM468.3 575c-1.3.5-2.3 1.6-2.3 2.4 0 .8-.4 1.6-.8 1.8-1 .4-5.2 7.2-5.2 8.4 0 .5 1.3-.6 2.9-2.4 1.7-1.7 3.5-3.2 4.1-3.2.6 0 .8-.5.5-1.1-.4-.6.1-1.7 1.1-2.4 2.6-2 3.4-1.8 3.4.5s2.2 2.7 3.8.7c1.2-1.4.5-5.7-.8-5.7-.5 0-1.1.6-1.4 1.2-.5 1-.7 1-1.2 0-.7-1.4-1.1-1.4-4.1-.2zM456 576.1c0 .5.5.7 1 .4.6-.3 1-.8 1-1.1 0-.2-.4-.4-1-.4-.5 0-1 .5-1 1.1zM481 580.1c0 1.1.4 1.8 1 1.4.5-.3.7-1.2.3-2-.7-2.1-1.3-1.9-1.3.6zM1.9 581.4c-1.7 1.3-2.3 5.6-.8 5.6.5 0 .7-.5.3-1.2-.5-.7-.2-.9.7-.6 1.6.6 3.3-1 3.5-3.3.1-1.8-1.7-2.1-3.7-.5zM20.3 581c-1.3.5-2.3 1.6-2.3 2.5 0 .8-.5 1.5-1.1 1.5-.5 0-.8.4-.4.9.3.6 1.8.3 3.4-.7 1.6-.9 2.7-2 2.4-2.5-.3-.5.1-1.3.8-1.8 1.8-1.1.1-1-2.8.1zM456.6 583.9c-.4.7-.5 1.5-.2 1.8.9.9 1.9-.4 1.4-1.8-.4-1.1-.6-1.1-1.2 0z"/><path d="M468.5 584.1c-.4.6-.5 1.3-.2 1.6.7.7 2.7-.6 2.7-1.8 0-1.2-1.7-1.2-2.5.2zM491 586c0 .5.5 1 1.1 1 .5 0 .7-.5.4-1-.3-.6-.8-1-1.1-1-.2 0-.4.4-.4 1zM454 589c0 .5.5 1 1 1 .6 0 1-.5 1-1 0-.6-.4-1-1-1-.5 0-1 .4-1 1zM492.5 589c.3.5.8 1 1.1 1 .2 0 .4-.5.4-1 0-.6-.5-1-1.1-1-.5 0-.7.4-.4 1zM485.2 674.9c-2.2 1.3.7 2.9 6.2 3.3 5.8.4 7.3-1.4 2.5-3.1-3.8-1.3-6.9-1.4-8.7-.2zM484 678.8c-.8.2-2.3 1.1-3.2 2-1 .8-3.4 1.7-5.5 1.9-4.4.5-5.3 1.1-3.3 2.3 2.7 1.7 9.6 1.1 12.4-1.1 3.6-2.9 3.4-6.4-.4-5.1zM499.2 680.5c0 1.6.2 2.2.5 1.2.2-.9.2-2.3 0-3-.3-.6-.5.1-.5 1.8zM459.2 681.7c-1 .4-1 .8-.1 1.9 1.4 1.7 5.5 1.9 6.5.3 1.2-2.1-3.1-3.6-6.4-2.2zM489 683c-1.9 1.2-.5 2.6 3.8 3.3 2.7.6 3.2.4 3.2-1.3 0-1.1-.6-2-1.4-2-.8 0-2-.2-2.8-.5-.7-.3-2-.1-2.8.5zM490.2 690.2c.6 1.7 4.3 2.8 5.9 1.7 1.2-.8 1.2-1-.1-1.9-2.1-1.4-6.3-1.3-5.8.2zM497.8 765.8c-.9 1.5-3.5 3.7-5.8 4.7-2.5 1.1-4 2.5-4 3.6 0 3.1-5.5 4.1-13.9 2.4-8.5-1.8-11.1-1.3-11.1 1.9 0 1.9-.6 2.4-3.8 2.8-6.2.9-11.6-.4-12.7-2.9-1.4-3.3-2.7-3.5-15.1-2.7-12.6.7-14.5 1.4-12.4 3.9 1.2 1.4 2.4 1.6 7 1 14.7-1.8 14.9-1.8 16 1 1.3 3.4 4 4.3 13.8 4.4 7.9.1 8.3 0 11.4-2.9 2.4-2.3 3.8-2.9 5.7-2.5 4.4.9 17.3 2.1 22.1 1.9l4.5-.1.3-5.2c.2-2.8.2-7.2 0-9.7l-.3-4.6-1.7 3zM492.9 787c-10.2 4.1-31.9 6-40 3.7-3.8-1.1-5.7-1.3-7.4-.5-1.8.8-3.7.5-8.4-1.1-5.1-1.7-6.8-1.9-11.2-1.1-2.8.6-5.3 1-5.5 1-.2 0-1.1 1.1-2 2.5-1.3 2.1-1.4 2.8-.4 4 1.2 1.4 1.5 1.3 3.4-.4 3-2.8 9.4-3.6 13.1-1.7 1.7.9 3.7 1.6 4.6 1.6 1.8 0 3.9 1.9 3.9 3.7 0 2.2-4.1 3.5-10.4 3.4-16.7-.3-38.6 3.6-38.6 6.8 0 1.8-7.3 9.1-9.1 9.1-.9 0-2.8.9-4.2 2-1.6 1.3-2.7 1.6-2.9.9-.8-2.5-54.9-1.2-56.5 1.4-.3.6.3 1.6 1.3 2.4 2 1.5 8.1 1.3 17.7-.5 2.7-.5 13.1-.7 23.3-.5l18.4.4 4.9-2.7c5.1-2.7 11.1-7.9 11.1-9.6 0-2 7.5-3.8 17.7-4.3 24.4-1.2 26.6-1.4 28.9-3 1.4-.9 2.4-2.5 2.4-3.9 0-3.9 1.9-4.5 13.5-4.4 11.2.1 22.9-1.6 33.7-4.9 4.8-1.5 5.8-2.2 5.8-4.1 0-2.6-.9-2.6-7.1-.2zM471.5 804.7c-1.6.2-4.7.8-6.8 1.5-3.7 1.1-3.8 1.3-3.2 4.5.6 3.1.4 3.3-2.4 3.3-1.7 0-4.6.8-6.6 1.7-4.7 2.2-4.5 5.3.4 6.9 3.2 1 3.3 1.1 1 1.7-1.3.3-3.3 1.3-4.4 2.1-1.9 1.4-1.9 1.6-.3 3.2.9 1 4 1.9 7.5 2.3 4.2.4 5.8 1 5.8 2.1 0 .8-1.1 1.6-2.5 1.8-6.8.9-9.8 2.3-11 5.1-2.3 5.7 2 7.2 4.7 1.7 1.7-3.7 5.8-5.5 7.7-3.6.6.6 1.1 3.2 1.2 5.8.3 20 .3 20.2 2.4 20.2 3.3 0 4.2-3.4 3.8-15.3l-.3-11.2 2.5.2c1.4.1 6.1.5 10.4.9 5.6.5 7.7.4 7.2-.4-.6-1-8.2-2.1-16.6-2.5-2.8-.2-3.5-.6-3.5-2.2 0-1.9.7-2 12-2 14.7 0 17.5.6 17.5 4 0 1.4.5 2.5 1 2.5.6 0 1-1.5 1-3.4 0-3.2-.2-3.5-4.9-4.6-2.7-.6-9.8-1.5-15.7-1.8-7.2-.5-10.9-1.1-11.2-2-.3-.9 2.3-1.2 10.7-1.2 6.7 0 11.1-.4 11.1-1s-1.6-1-3.5-1-3.5-.5-3.5-1c0-.6.9-1 2-1s2-.5 2-1c0-.6-3.1-1-7.2-1.1-4-.1-8.4-.4-9.8-.9-2.4-.7-2.3-.7 1-1.3 1.9-.3 4.8-.5 6.4-.4 1.6.1 3.1-.3 3.3-.9.5-1.5-2.9-2.4-8.9-2.4-4.4 0-4.8-.2-4.8-2.5 0-1.6.6-2.5 1.5-2.5.8 0 1.5.7 1.5 1.5 0 1 1.1 1.5 3.8 1.6 8.5.3 11.9-.6 12.7-3.2 1.4-4.4-3.1-5.7-15-4.2zm9 3.3c.4.6-.7 1-2.7 1-2.5 0-2.9-.3-1.8-1 1.9-1.3 3.7-1.3 4.5 0zm-18.7 10.7c.2.9-.9 1.3-3.7 1.3-3.9 0-5.5-1.3-2.8-2.4 2.1-.8 6-.2 6.5 1.1zm.2 9.3c0 .5-1.8.9-4 .8-2.2-.1-4-.5-4-1 0-.4 1.8-.8 4-.8s4 .4 4 1z"/><path d="M474.4 842.2c-.7 1.2 2.1 3.8 4.2 3.8 1.4 0 2.3-2 1.7-3.8-.6-1.5-4.9-1.6-5.9 0z"/></svg>