<svg version="1" xmlns="http://www.w3.org/2000/svg" width="666.667" height="1170.667" viewBox="0 0 500 878"><path d="M129.2 2.9c-.7 1.6-2.6 3.4-4.1 4.1-3.7 1.5-8.1 7-12.8 16-4.3 8.3-4.5 11.3-1.2 19.4 3.4 8.4 5.7 9.8 14.2 8.8 3.7-.5 6.7-.7 6.7-.5 0 .7-5.3 7.6-7.6 10-2.8 3-10.4 17.9-10.4 20.4 0 1.1-.7 3.4-1.6 5-1.2 2.4-1.6 6.6-1.6 18.7-.1 15.6-.1 15.7 3.3 23.7 3.4 8.1 8.7 17.7 10.1 18.3.4.2.8 1 .8 1.8 0 .7 1.6 3.8 3.5 6.8 6.6 10.4 30.4 24.6 41.2 24.6 2.9 0 3.6.5 5.7 4.7 1.3 2.7 3.9 7.7 5.7 11.3 3.9 7.7 4.7 14.6 2.9 25.8-2.1 12.9-7.9 24-14.3 27.3-2.2 1.2-4.3 3.2-4.8 4.7-.6 1.5-2.8 3.9-4.9 5.4l-4 2.8-2.3-3.8c-1.3-2-3.4-5.7-4.7-8.2-1.3-2.5-3.3-5.9-4.6-7.5-2-2.7-2.1-3.2-.8-4.9.8-1.1 1.4-3.9 1.4-6.2 0-3.4-.4-4.4-2-4.9-1.3-.4-2-1.5-2-3.1 0-3-1.7-6.6-3.7-7.7-1-.6-1-1.3-.3-2.7.6-1.1.8-3 .5-4.3-.5-2 .3-2.7 7.4-6.2 5.2-2.5 7.8-4.2 7.1-4.9-.9-.9-8.4.7-10.5 2.4-2.1 1.7-19.4 10.4-26 13.2-3.8 1.6-9.2 4.4-12 6.2-7.4 5-19.9 13.1-20.7 13.4-.4.2-1.3-.9-2-2.5-.7-1.5-2-4-3.1-5.6-2.7-4-1.9-7.2 1.8-7.3 1.7-.1 5.9-1.3 9.4-2.8 3.6-1.4 7-2.6 7.7-2.6.6 0 1.7-.7 2.5-1.6 1.6-2 12.3-7.4 14.5-7.4 1.9 0 9.7-4.6 15.9-9.5 2.2-1.7 5.1-3.6 6.5-4.3 1.4-.6 3.5-1.9 4.7-2.8 2.1-1.5 2.3-1.5 3.6 1.8 1.7 4 6.2 7.9 8.3 7.1.8-.3 1.4-.6 1.4-.7 0 0-1.3-3.3-2.8-7.1-2.8-6.8-3-7-6.7-7.3-2.9-.3-4.5.3-7.4 2.6-4.5 3.6-11.8 8.2-13 8.2-.5 0-2.2-2.4-3.9-5.3-1.6-2.8-4.7-7.2-6.9-9.7-2.1-2.5-5.6-7.1-7.7-10.3-2-3.2-4.7-6.6-5.8-7.6-1.8-1.7-1.9-2.4-.9-5.4.6-1.9 1-4 .7-4.8-.2-.8-.7-2.6-1-4.2-.8-3.6-7.9-8.7-12.1-8.7-8.8 0-13.3 5.5-11.9 14.9.9 6 1.8 7.7 4.8 8.5 2.2.5 3 2.1 6.1 11.9 1.9 6.1 4.6 14.1 5.9 17.7 1.3 3.6 3 8.5 3.7 11 .7 2.5 1.7 5.1 2.3 5.8.7 1 .5 1.6-.5 2.3-3.2 2.2-9.1 5-15.6 7.4-6.8 2.6-10.9 6-9.4 8 .4.5 1.6 3 2.5 5.5 1.8 4.5 4.3 7 8.4 8.2 1.9.5 3.4-.3 7.5-4.1 2.9-2.5 6.6-5.2 8.3-6 2.9-1.1 3.3-1 6.1 1.6 1.7 1.5 3.8 4.3 4.7 6 .9 1.8 2.3 3.3 3.1 3.3.8 0 2.1 1.5 2.8 3.2.8 1.8 2.1 3.9 3 4.6.9.8 2.8 4.5 4.3 8.3 1.4 3.9 3.7 8.3 5.1 9.7 1.4 1.5 5.4 8.5 8.8 15.5 3.5 7.1 7.7 14.9 9.4 17.5 3.2 5 4.5 12.2 2.3 12.9-.7.3-1-.1-.6-1.1 2-5.3-14 3.2-22.8 12.2-5.1 5-8.1 9.3-12.2 17.3-3 5.9-5.8 10.4-6.1 10-.4-.3-3.4-.6-6.7-.6-5.3 0-6.2-.3-8.4-2.8-1.3-1.5-2.4-3.4-2.4-4.1 0-.7-.7-2.7-1.5-4.4-1.6-3-1.7-3.1-8.8-2.9-9.3.1-13.4-2.1-15.9-8.6-1.2-3.3-1.3-4.8-.5-5.6.6-.6 1.1-2.3 1.2-3.8 0-2.4.5-2.8 4.4-3.6 8.3-1.7 18.3-10.1 20.3-17.2.6-2.2 2.2-5 3.4-6.2 1.3-1.3 2.7-3 3.2-3.9.8-1.5 1.4-1.5 6.3.2 9.7 3.4 30.4 2 31.5-2.1.2-.6-.2-1.7-.9-2.7-1.2-1.4-2.4-1.5-12.3-.5-11.1 1.1-12.8.9-27-2.9-1.7-.5-2.2 0-2.7 2.3-.4 1.7-1.7 3.4-3.6 4.5-2.1 1.1-3.3 2.9-4.1 5.6-.6 2.6-2.7 5.7-5.7 8.6-4.3 4.3-6.8 5.5-14.6 7.1-1.5.3-3.7 1.7-4.9 3-2.9 3.4-11.1 5.9-18.5 5.8-5.3-.1-6.8-.6-11.7-3.8-3.1-2-7-5.5-8.8-7.8-1.7-2.3-4.7-5.7-6.5-7.6-3.1-3.2-3.6-3.4-7.1-2.5-3.3.8-3.7 1.3-4 4.5-.3 3.5-.2 3.6 2.8 3.1 2.7-.4 3.8.2 7.1 3.7 2.2 2.3 5.9 5.4 8.2 6.8 2.3 1.5 7.3 4.7 11 7.1l6.8 4.4 8.2-.4c4.5-.3 9-.8 10-1.2 1.5-.7 1.7-.3 1.7 3.1 0 2.6-.6 4.6-1.8 5.7-2.6 2.3-5.2 12.3-9.2 35.1-9.8 56.2-12.6 72-14.4 81-3.4 16.8-7.6 40.4-8.6 49-3 24-5 36.5-7.5 48-1.6 7.4-3 28.7-1.7 26.5 1.5-2.4 8-36.1 10.6-55 .9-6.3 2.3-16.2 3.1-22 1.6-11.8 6.4-36.4 9.5-48.6 1.1-4.5 2-9.4 2-10.9s2-12.9 4.4-25.3c2.4-12.5 5.4-28.7 6.6-36 3-18.6 6.7-34.4 8.4-36.1 1.3-1.2 1.9-1 4.6 1.3 3.6 3 5.3 3.5 13.5 3.8 5.6.3 6 .5 6.3 2.8.6 4.9 2.6 8.2 6.3 10.6 4.7 2.9 7.3 3 13.2.5 2.5-1.1 4.7-1.8 5-1.5.2.2-.4 2.8-1.4 5.7-.9 2.8-1.9 7.4-2.2 10.2-.3 2.7-1 6.3-1.6 7.8-2.2 5.7-1.3 16.2 2.9 32.7 1.2 4.7 3.2 14 4.4 20.8 2.6 14 7 23.8 22 49.1 9.5 15.8 12.9 20.3 25.6 33.6 4.7 4.9 11.7 12.3 15.6 16.4 7 7.5 17.1 17.4 21.1 20.8l2.2 1.8-5.4 9.2c-3 5.1-9.2 15-13.8 22-4.6 7.1-10.6 16.4-13.3 20.7-2.7 4.4-7 11.3-9.6 15.5-5.2 8.4-22.6 43.1-25.2 50.1-2.9 8.1-3.5 13.7-1.7 15.4 2.5 2.2 5.3 2.4 9.1.5 6.4-3.2 12.4-10.7 32.3-40.1 2.8-4.2 5.2-7.6 5.3-7.5.1.1-1.3 6.3-3.1 13.7-2.8 11.5-5.8 27-8 41-1.2 7.8-8.7 44.7-9.5 47-.8 2.3-4.3 17.4-7.2 30.5-.6 2.7-2.6 10.5-4.4 17.2-1.9 6.7-3.7 14.1-4 16.6-.8 5.7 1.1 7.2 2.5 2 4.4-16.7 18.1-73.9 19.1-79.8.5-2.8 1.8-9.3 3-14.5 1.1-5.2 2.5-12.7 3-16.5 2.9-20.9 7.6-41 13.5-57.5.7-1.9 1.6-5.5 2-8 .9-5.8 5.8-15.6 9.8-19.8 1.7-1.7 3.7-4.4 4.3-6 2.3-5.2 1.5.8-2 15.3-4 16-7 31.2-8.6 43.5-.6 4.7-1.6 10.5-2.1 13-1.2 4.9-2.7 13.3-6.5 34.5-4.8 27.1-6.5 37.1-7.9 47-.7 5.5-2.7 17.2-4.4 26-1.6 8.8-3.5 18.9-4.1 22.5-.6 3.6-2.7 13.7-4.7 22.5-5.1 22.8-5.2 23.3-3.8 25.1 1 1.5 1.5.5 3.3-6.3 1.2-4.3 2.2-8.9 2.2-10.2 0-1.2 1.1-7 2.4-12.9 1.3-5.9 2.8-14.1 3.1-18.2.4-4.1 1.3-8.9 2-10.5.7-1.7 1.5-5.3 1.9-8 .4-2.8 1.5-9.7 2.6-15.5 1-5.8 2.8-17 4-25 2.2-14.9 3.7-23.3 9-52 3.7-19.7 5.5-30.6 6.9-42 .6-4.7 1.6-9.9 2.1-11.5.5-1.7 2.6-9.3 4.6-17 1.9-7.7 4.2-16.5 5-19.6.8-3 1.4-7.1 1.4-9 .1-2.3 1.6-5.7 4.5-10.4 2.5-3.9 5.7-9.1 7.2-11.7 5.5-9.5 5.5-6.7-.2 21.7-4.3 21.3-5.1 25.5-7 40-.8 6-1.9 14.6-2.6 19-1.5 11.3-1.6 12.2-2.4 20-1.8 19.9-5.5 43.9-10.7 69-4.5 21.4-5.5 28.5-4.1 28.5 1.1 0 2.4-5.2 5.3-21 1.1-6.3 2.5-13.3 3-15.5 1.5-6.4 5.2-31.7 7.5-50.5 4.3-34.9 6.6-50.7 12-80.5 4-22.4 6.5-32.5 8-32.5.3 0 3.3 1.9 6.6 4.3 3.3 2.3 7.5 5 9.2 6 3.7 2 3.4-2.8 3.3 44.7 0 49.9.5 77.9 1.5 92 .6 7.4 1.1 14.4 1.1 15.5.1 6 3 18.2 4.8 19.9 1.6 1.7 2.2 1.8 5 .6 6.9-2.9 8-8.2 8.5-42 .2-14 .7-33.4 1.1-43 .4-9.6.6-30.4.5-46.1l-.2-28.6 2.6-1.7c1.4-.9 6.2-4.6 10.6-8.2 4.5-3.5 8.4-6.4 8.8-6.4 1.2 0 18.7 27.2 23.8 37 2.7 5.2 8.9 15.6 13.8 23s10.9 17.3 13.3 22c4.5 8.5 10.4 17.1 13.8 20.2 5 4.4 10.2 4 12.9-1.1 1.8-3.6 1.4-6-2.5-14.6-1.5-3.3-3-7.2-3.3-8.7-.6-2.3-3.2-7-11.1-20.1-1-1.8-4.4-7.9-7.4-13.7-3-5.8-7.8-14.6-10.7-19.5-2.8-5-7.5-13.4-10.4-18.8-4.6-8.6-5.1-10.2-4.2-12.5.9-2.5 1.8-5.8 3.5-13.5.4-1.5.2-2.7-.3-2.7-1 0-3.4 6.8-4.6 12.9l-.7 3.4-3.1-5.3c-3-5.2-3-5.3-1.3-8.5 1-1.8 5-6.9 8.9-11.2 14.1-15.8 17.1-19.6 23.3-29.6 3.4-5.5 7.8-11.9 9.9-14.1 3.9-4.4 8.3-11.5 14.7-23.8 2.2-4.3 4.4-8 4.9-8.4.9-.5 3.6-6 8.8-18 7.7-17.8 12-58.5 8.6-81.3-2.2-14.7-3-18-7.7-30.1-4-10.3-4.3-10.7-15.2-21.8-6.1-6.3-11.9-11.7-12.8-12-1.5-.6-1.2-1.7 2.6-9.3 2.4-4.7 5.8-10.8 7.7-13.5 1.8-2.7 5.1-8.3 7.3-12.4 2.1-4.1 5.6-9.4 7.7-11.7 2.2-2.4 3.9-5 3.9-5.9 0-1 .7-2.6 1.7-3.6.9-1 2.1-2.6 2.7-3.7.6-1 2.6-3.7 4.4-6.1 1.7-2.4 3.2-5.4 3.2-6.7 0-1.3.6-2.3 1.4-2.3.7 0 1.9-.7 2.6-1.5 1.9-2.2 3.6-1.9 9.3 2 9.4 6.4 9.3 6.2 7.4 8.3-.9 1-1.7 2.2-1.7 2.5 0 .4-3.2 7.8-7.1 16.5-7.9 17.3-15.8 37.8-16.6 42.9-.4 2.5-.2 3.3.9 3.3.9 0 2.4-2.9 4-7.8 4.9-14.5 10.5-29.7 12.2-32.7.9-1.7 3.8-7.7 6.5-13.5 4.6-10.2 5-10.6 8.9-11.8 4.7-1.4 5-1.8 7.4-8.7 2.5-6.8 2.4-7.2-2.3-9.6l-4.2-2.1 4-3.6c2.2-2.1 4.7-4.8 5.6-6.2 1.2-2.2 8.4-5.7 9.4-4.7.1.2-.6 2.7-1.7 5.5-2.3 6-2.5 10.2-.8 14.8 1 2.8.9 3.6-.4 5.1-3.4 3.7-10.2 21.9-8.6 22.9 1.2.8 1 1.1 5.1-9 2-4.9 4.5-9.7 5.6-10.8 2-1.8 2.1-1.7 5.3 1.1 1.8 1.5 4.3 3.3 5.5 3.9 1.4.8 2 1.8 1.6 3.1-.2 1 .2 3.2 1.1 4.9.9 1.7 1.6 3.5 1.6 4s-3.3 1.2-7.2 1.5c-7.2.7-14.5 2.8-20.3 6-1.6.9-4.1 2.2-5.5 2.8-3 1.4-12.6 12.2-15.1 17-2.8 5.4-4.3 13.5-3 17.1 1 2.7.8 3.3-1.4 5.4-2.9 2.6-3.2 4.2-1 5 2.2.9 1.8 2.3-1 3.6-5.9 2.7-8.3 19.2-4.1 28 2.5 5.3 9 12.3 12.6 13.8 2.1.9 3.9 2.8 5.4 5.9 6.6 12.9 29.3 23.3 49.1 22.4 8-.4 18.6-3.1 22.1-5.8 1-.8 2.7-1.5 3.6-1.5 1 0 4.5-2.8 7.8-6.2 5.4-5.5 6-6.5 6-10.2-.1-4.1-.1-4.1-1.8-1.9-.9 1.2-2.8 3.8-4.2 5.7-3.4 4.8-9.3 8.9-11.8 8.2-1.1-.4-2.4 0-3.2.9-.7.8-2 1.5-2.9 1.5-.9 0-2.2.5-2.7 1-.6.6-5 1.5-9.8 2-7.1.9-9.8.7-14.9-.6-8.1-2.1-17.2-6.6-24.1-12.1-4.7-3.7-5.6-5-5.6-7.6 0-4.2-.7-5-5.8-6.7-5.2-1.6-10.6-7.3-12.2-12.8-.7-2.2-1.1-7.8-.9-13.1.4-8.8.5-9.4 3.2-11.6 2.6-2 2.8-2.4 1.5-4.4-1.2-2-1-2.4 1.1-4.2 2-1.7 2.2-2.5 1.7-6.3-.7-4.6.7-12.1 3.1-17 1.3-2.6 4.4-6.1 11.9-13.7 4.3-4.4 14.4-7.9 22.5-7.9 4.4 0 8.1-.6 10-1.6 2.9-1.5 3-1.7 2.2-5.7-.4-2.3-.8-6.1-.8-8.4 0-3.8-.2-4.2-2-3.7-2.8.7-7.6-1.2-9.4-3.9-4.1-5.7-5.3-17.4-2.5-23.4 1-1.9 3.9-5.3 6.5-7.6 2.7-2.3 4.9-4.6 4.9-5.1s-1.4-.6-3.2-.2c-3.1.6-3.1.6-1.3-1.4 1-1.1 4.7-2.9 8.3-4 12.2-3.8 27.6-15.5 32.2-24.6.8-1.6 2.4-4.3 3.6-5.9 3.8-5.3 6.4-11.3 6.4-15 0-2-.3-3.4-.8-3.1-.4.2-2.3 3.5-4.2 7.3-1.9 3.7-3.7 7-4.1 7.3-1.6 1.5-5.9 7.9-5.9 8.8 0 1.2-1.3 3-6.7 9.2-4 4.6-17.9 11.8-28.7 15-6.4 1.9-8 2.8-8.8 4.9-2.4 6.5-9.9 11.6-15.5 10.5-3.6-.7-3.6-.7-3 2.3.5 2.6 0 3.7-3.2 7.2-4.3 4.7-5.6 4.9-11.1 2.1-2.2-1.1-4.6-2-5.4-2-3.3 0-2.8-4 1.2-10 5.1-7.6 9.1-18 10.6-27.8 1-6.7 1.5-7.7 3.3-8 3-.4 9.3-7.7 9.3-10.6 0-7.4-6-13.2-14.7-14.2-5.8-.7-8.7.5-10.7 4.4-2.5 4.9-2.9 9-1.2 12.3 1.9 3.9 1.9 3.9.3 3.9-2.2 0-5.5 4.1-15.8 19.7-5.6 8.4-10.5 15.3-11 15.3-1.8 0-9.4-4.2-14.4-8-2.7-2-6.2-4.5-7.7-5.4l-2.7-1.7-3.5 4.8c-3.4 4.7-5.3 10.4-4.1 12.3.3.6 1.6 1 2.8 1 1.2 0 5.9 1.9 10.5 4.2 8 4.1 8.2 4.3 8.2 7.9 0 2.7-.5 3.8-1.8 4.1-1.1.3-2.6 3-4.1 7.4-1.3 3.8-3 7.6-3.7 8.5-.8.8-1.4 3.2-1.4 5.2 0 3.7-.7 5.2-10.9 23.5-2.9 5.2-6.1 11.7-7.2 14.5-1 2.9-4.1 9.2-6.8 14.2-3.6 6.8-5.3 9-6.7 8.8-10.8-1.2-26.4.8-36.2 4.5-7.3 2.8-18.7 9.7-23.8 14.4l-4.2 3.9-.7-3.1c-.4-1.6-.4-7.4-.1-12.8.4-5.3.3-18-.2-28.1-.4-10.1-.4-22.3 0-27 .4-4.7.8-13.1 1-18.6.2-8.1.6-10 1.8-10 .9 0 1.4.7 1.2 1.7-.3 2.1 7.1 14.7 10.7 18.1 5.5 5.2 14.6 8.9 21.9 8.8 2.1 0 8.4-.4 14.2-.9 5.8-.5 11.8-.6 13.3-.1 2.8.8 5.7.3 5.7-1 0-.3-3.8-1.5-8.3-2.5-8-1.7-8.6-1.7-11.7-.1-2.6 1.4-5.1 1.6-11.1 1.3-8.3-.5-13.5-2.9-18.7-8.7-3.2-3.6-8.2-13.9-8.2-17 0-4.5-1.3-5.4-6.3-4.9l-4.6.5.1-11.9c.1-6.5.5-12.1 1-12.4 1.8-1.1 2.8-5.5 1.8-7.5-.8-1.4-.7-2.6.4-4.7.8-1.5 1.2-4 .9-5.5-.5-2.8 2.1-9.7 3.7-9.7 1.7 0 19.5 6.2 20.8 7.3 1 .8 2 .4 4-1.6 2.4-2.4 2.7-3.6 3-10.6.6-12.4 1.4-12-18.9-11.3l-17.2.5.9-2.9c2-6.4-1.1-31-4.8-37.8-.7-1.4-.4-2.4 1.6-4.5 5.5-5.7 5.9-11 1.2-15.7-4.6-4.6-6.1-4.3-3.6.7 2.5 4.8 2 8.5-1.7 12.9-3 3.6-5.8 3.8-10.4.7-3.1-2.1-3.4-2.7-3.4-7.5.1-4.2.6-5.7 2.8-8 1.5-1.5 2.7-3.1 2.7-3.4 0-1.6-4.3.8-7 3.9-4 4.5-4.3 11.7-.5 16.1 2.3 2.7 2.4 3.4 1.5 8.3-1.6 9.1-3 20-3.6 28.6-.7 8.3-.7 8.3-3.5 8.3-1.5 0-7.1-.7-12.4-1.6-5.3-.9-9.8-1.4-10.1-1.1-2 2-2.2 20-.2 22.4.8 1 2.2 1.3 4.2.9 4.8-.8 11.8-2.3 14.6-3 2.1-.5 2.8-.1 4.3 2.5.9 1.7 1.7 4.1 1.7 5.3 0 1.2.7 3.2 1.6 4.4 1.4 2.1 1.4 2.2-.5 2.2-2.5 0-3.4 1.4-2.3 3.7 1.8 3.4 3.2 8.9 3.2 12.1 0 3.2-.1 3.2-2.3 1.7-2.2-1.4-2.8-1.4-6.8.1-5.3 1.9-14.6 1.3-18.7-1.3-5.7-3.6-8.2-6.8-10.2-13.5-2.2-7.3-2.5-7.5-10.7-7.7-11.3-.4-28.2-5.4-35.3-10.5-2.8-2-5.4-3.6-5.9-3.6-.6 0-2.4-1.7-4-3.8-13-16-14-17.5-16.6-25-1.5-4.2-3.9-10.2-5.2-13.2-1.9-4.3-2.4-7.2-2.4-14-.1-4.7.2-9.9.6-11.5 1.5-6.5 6.3-21.3 8-24.6 1.6-3.1 9.8-13.6 11.8-15 1.6-1.2 3.7-6.3 2.9-7.1-.4-.4-2.4-.3-4.5.3-7.4 2-17.3-3.3-19.7-10.6-1-3-.8-4.2 1.6-9.7 4.9-11.1 9.6-17.1 15.9-20 1.1-.5 3-2.5 4.2-4.4l2.2-3.4h-3.2c-2.6 0-3.5.6-4.5 2.9zM248.8 111c.1 1.9 1 6.2 1.8 9.5 1 3.7 1.7 10.4 1.8 17.5l.1 11.5-3.8-.1c-2.2-.1-4.3-.8-5-1.7-.7-.9-2.3-2.1-3.7-2.6-2.5-1-2.5-1 .6-1 4.6-.1 4.9-1.3.9-3.7l-3.6-2.1 3.1-.6c3.9-.8 3.8-2.4-.2-4.2l-3.3-1.3 2.7-1.1c2.9-1.1 3-4.1.2-4.1-2.2 0-1.7-3.1.6-3.7 2.3-.6 2.7-3.1.5-3.9-2-.8-1.9-2.3.2-4.6 1.3-1.4 1.4-2.1.5-3-1.8-1.8-1.5-2.8 1.1-3.8 3.8-1.5 5.2-.8 5.5 3zm-155 30.4c2.4 2.4 2 8.1-.7 11-3.6 3.8-6.9 3.9-11.3.3-4.7-3.7-5.1-7.5-1.2-11.4 2.2-2.2 3.2-2.5 7.1-2 2.5.2 5.2 1.2 6.1 2.1zm323.8 4.1c4.2 1.7 7.1 7.3 5.4 10.4-1 1.9-10.8 8.1-12.7 8.1-1.3 0-4.3-8.9-4.3-12.8 0-7.1 3.8-9 11.6-5.7zM223.4 153c3.8 1.4 54.7 1.1 59.5-.5 1.6-.5 1.9.3 2.5 6.6.3 4 .4 7.4.1 7.7-.2.3-2.4-.2-4.7-1.1-8.4-3-20-4.2-39.8-4.2-14.2.1-21.2.5-25.7 1.7-3.4.8-6.5 1.3-6.8 1-.3-.3-.5-2.7-.5-5.4 0-4.6.1-4.8 2.8-4.8 1.5 0 3.4-.5 4.2-1 1.9-1.2 5.2-1.3 8.4 0zM98.2 163.2c4.8 6 5.1 6.7 3.7 8.4-1.6 1.9-.4 3 1.6 1.4 1.2-1 1.6-.9 2.2.6.3 1 .2 1.9-.4 2.1-2.1.7-4.8 3.2-4.2 3.8.4.3 2.3-.1 4.3-.9l3.6-1.5 2.5 3.7c2.9 4.2 3.1 5.8 1 6.6-.8.3-1.5 1.2-1.5 2.1 0 1.2.4 1.4 1.9.5 3.5-1.8 3.6 1 .2 3.7-3.3 2.6-3.4 5.1-.1 3.3 4.9-2.6 2.8-.6-3 2.9-7.7 4.7-8.2 4.4-10-4.9-.6-3.6-1.8-7.2-2.5-8-2.4-2.8-3.7-8.7-2.5-11 1-1.8.8-2.2-.9-2.7-2.3-.6-2.7-1.8-1.1-2.8.6-.3 1-1.3 1-2.1 0-1.1-.6-1.3-2-.9-2.4.8-2.6-.2-.3-2.7 1.6-1.8 1.6-1.9-.5-2.5-3.7-.9-2.3-2.7 2.4-3.2.7 0 2.7 1.8 4.6 4.1zm157.3 4.3c0 1.4-.6 1.9-2 1.7-1.1-.2-5.9-.6-10.7-.9-4.9-.3-8.8-.9-8.8-1.4 0-.4 3.9-1 8.8-1.2 12.6-.5 12.7-.5 12.7 1.8zm152.2-.4c1.2 1.2-.4 11.1-3.2 19.4-1.8 5.5-8.5 19.4-9.6 20.1-.4.2-2.7-.4-5.1-1.5-2.4-1-5.6-2.5-7.3-3.2-2.9-1.2-2.9-1.3-.7-1.7 1.3-.2 3.2.4 4.1 1.2 1.8 1.6 4.1 2.1 4.1.9 0-1.4-3.4-4.3-5.2-4.3-1 0-1.8-.6-1.8-1.3 0-2.3 1.2-2.7 4.1-1.2 4.5 2.4 5.7 1.7 2.1-1.1-3.7-3-3.3-5.4.5-2.9 3.2 2.2 4.3 1.1 1.5-1.5-3.1-2.9-2.7-4 1.1-3.4 2.6.4 2.9.3 1.5-.6-1-.6-1.8-1.9-1.8-2.9 0-2 5.5-10.1 7.7-11.4.7-.4 1.3-1.6 1.3-2.6s.3-2.1.7-2.4c1-1.1 4.8-.8 6 .4zm-154.2 10.5c0 4.6-.2 4.9-2.5 4.7-1.4-.1-5.4-.3-8.9-.5-6-.4-6.5-.6-6.6-2.9-.1-1.3.2-3.4.8-4.6.9-2.1 1.5-2.2 9.1-1.9l8.1.3v4.9zm-66.6 6.6c-.2 5 1.5 8.3 7.3 14.2 3.8 3.8 6.6 5.8 9.8 6.7 6.8 1.9 7 2.2 5.4 8.2-.7 2.9-3 12.2-5 20.7s-4.7 19.3-6 24c-1.2 4.7-3.2 11.9-4.3 16-1.1 4.2-2.3 8.3-2.7 9.3-.4 1.2-.1 1.7 1 1.7 2.8 0 3.4-1.7 11.1-35 5.7-24.7 9.4-39 10.6-41.2.5-1 1.6-1.8 2.5-1.8.8 0 2.5-.6 3.7-1.4 1.2-.7 4.2-1.3 6.6-1.2 4 .2 4.6.5 5.3 3.2.4 1.6.8 23.8.8 49.3 0 41.4-.5 57.1-1.7 57.1-.2 0-3.2-1.8-6.6-3.9-6.7-4.3-11.5-6.1-21.7-8.5-6.5-1.4-23.3-2.5-25.9-1.6-.9.3-2-.7-2.9-2.5-.9-1.7-2.4-4.6-3.4-6.5-5.5-10.3-11.8-23.1-11.8-23.9 0-.5 1.7-1.7 3.8-2.6 2-1 7.4-5.5 11.9-10 10.2-10.2 14.6-18.3 16.2-30 2-14.2.5-21.5-6.9-34.5-4.3-7.7-4.2-9 .7-9 1.9 0 2.2.5 2.2 3.2zm65.5 2.4c2.9 2.8.8 3.6-7.7 2.8-4.5-.3-8.4-.8-8.6-1-.2-.2.2-1 .9-1.9 1.8-2.1 13.3-2.1 15.4.1zm103.4 4.3c3.8 3.1 9 5.9 27.7 15.4 18.1 9.1 34.5 16.7 36 16.7 2.4 0 2.7 1.9.6 4.6-1.2 1.5-2.1 3.3-2.1 4 0 2.4-2.7 1.6-9.7-3-3.7-2.4-8.6-5.2-10.8-6.4-2.2-1.1-6.4-3.6-9.3-5.5-2.9-1.9-10.3-5.6-16.5-8.2-6.2-2.7-12.8-5.8-14.7-7-1.9-1.2-5-2.7-6.7-3.4-1.8-.8-3.3-1.7-3.3-2.2 0-.8 4.3-7.8 4.8-7.9.2 0 2 1.3 4 2.9zm-113.1 24.6c.2 11.5.4 22.6.5 24.5.1 1.9-.2 9.8-.6 17.5-1 17-.8 41.7.4 50.5.5 3.6.8 13.7.7 22.5-.2 16.4-.1 25.1.5 55.7l.3 17.7-3 2.4c-1.6 1.3-3.5 2.6-4.2 3-.9.6-1.1-19.1-.7-83.5.2-51.4 0-92.4-.7-105.1-.6-11.4-.7-22.1-.4-23.8.6-2.7 1-3 3.8-2.7l3.2.3.2 21zm9.3-18.8c-.1 1.6.1 47.2.4 101.5.3 64 .1 99-.6 99.4-.5.3-1.5-.2-2.3-1.2-1-1.4-1.3-8.8-1.4-32.4 0-16.8-.6-39.5-1.2-50.5-1.1-20.6.2-114.1 1.6-117.8 1.1-2.7 3.5-2.1 3.5 1zm-120 14.7c0 .7-3.3 2.8-7.2 4.6-4 1.8-9.2 4.2-11.5 5.2-2.3 1.1-4.8 1.8-5.5 1.6-1.8-.6 6.8-6.1 13.7-8.7 3.3-1.2 6.7-2.6 7.5-3.1 2.2-1.3 3-1.2 3 .4zm243.8 2.6c6.4 3.5 13 7.5 13.7 8.2.4.4.5 1.4.2 2.3-.6 1.3-1.4 1.1-5.9-1.3-2.9-1.6-7.4-3.7-10-4.7-3.9-1.4-4.8-2.2-4.8-4.1 0-3 1.9-3.1 6.8-.4zM135 221.6c.5 2.1.6 4.2.4 4.6-.3.5-3.3 2.3-6.7 4-7.5 3.8-14.2 4.6-15.7 1.8-2-3.7-1.1-5.1 5.3-8.1 3.4-1.7 8-4.2 10.2-5.5 4.5-2.6 5.3-2.2 6.5 3.2zm242.4 2.2c3.8 2.1 7.1 4.2 7.3 4.8.2.6-1.2 3-3.1 5.3-1.9 2.2-3.6 4.6-3.8 5.1-.3.9-17.8-6.4-17.8-7.4 0-.2.7-2.1 1.6-4.2.9-2.2 2-5 2.5-6.3 1.2-2.9 3.7-2.4 13.3 2.7zm-237.7 7.7c.6 1.8-2.3 5.5-4.4 5.5-.8 0-3.9 1.1-6.9 2.5-3 1.4-5.9 2.5-6.4 2.5-2.1 0-.8-1.9 3.3-4.5 2.3-1.6 5.8-3.9 7.7-5.2 4.1-2.7 5.8-2.9 6.7-.8zm228 7.6c4 1.9 7.3 4 7.3 4.6 0 2.2-3.3 1.4-9-2.2-3-1.9-6-3.5-6.7-3.5-.7 0-1.3-.7-1.3-1.6 0-1.8-.1-1.9 9.7 2.7zm-226.2 5.6c1 2 3.1 5.9 4.8 8.7 1.6 2.8 8.8 16.6 15.8 30.6 7.1 14 17 33.4 22 43 14.6 28.2 24.9 48.4 24.9 49.2 0 .4-.5 1.9-1 3.4l-1.1 2.8-1.6-3c-6-11.3-13.2-26.4-13.7-28.9-.7-2.7-2.5-5.9-7.7-13.7-1.1-1.5-3.2-6-4.8-10-3.8-9.3-13.3-27-20-37.3-2.9-4.4-7.1-11.8-9.3-16.5-11.7-25-12.8-27.5-12.8-29.9 0-3.4 2.6-2.4 4.5 1.6zm217.9-3.1c2.3.9 2 3.2-1.1 8.4-4.3 7.2-14.8 27-25.9 48.8-5.8 11.2-11.6 22-12.9 24-1.4 2-2.5 4.1-2.5 4.6s-1.7 3.6-3.9 7c-2.1 3.4-7.3 13.1-11.6 21.6-4.2 8.5-8.1 16-8.7 16.7-.5.6-1.1 2.4-1.2 4-.3 2.3-.8 2.9-3.5 3.1-3.3.3-5.3-2-3.5-4.3 5.9-7.8 15.2-24.3 26.3-47 10.5-21.5 21.5-44.4 25.4-53 2.2-5 4.6-9.9 5.3-11 1.8-2.7 7.9-14 10.5-19.3 2.1-4.1 3.7-5 7.3-3.6zm-225.3 11.2c1.9 4.2 5 11.1 6.9 15.2 4.5 10 11.7 23.8 14.5 27.5 1.2 1.6 5.7 9.7 10 18 4.3 8.2 9.2 17 10.9 19.5 6.2 8.7 23.6 42.7 23.6 46.1 0 1.1.5 2.9 1 4 .9 1.6 1.5 1.7 3.1.8 2-1 2-.9.5 2-.9 1.6-2 3.2-2.5 3.5-1 .7-7.3-8.9-11.9-18.1-1.7-3.5-4.4-8.2-6-10.5-1.6-2.4-6.8-12.1-11.5-21.5-8.4-16.9-14.2-27.8-15.7-29.8-1-1.3-9.1-16.7-19.8-37.5-4.6-9.1-9.5-18.4-10.8-20.8l-2.5-4.2 2.3-1c3.8-1.5 4.2-1.2 7.9 6.8zm235.1-4.7c2.9 2.1 2.9 2.1 1 4.3-1.1 1.1-4.2 6.1-6.9 11.1-2.8 4.9-6.7 11.9-8.8 15.5-3.5 6-14.2 26.7-42.2 82.2L301.8 382h-4.4c-5 0-5.1-.3-2.6-4.5 4-6.6 14.6-26.9 20.2-39 2.4-5 7.2-14 10.8-20 5.9-10 15.9-28.8 25-47 1.9-3.8 5.5-10.1 7.9-13.9 2.5-3.7 4.8-7.9 5.3-9.2 1.2-2.9 1.4-2.9 5.2-.3zM209 562.7c0 2.6-17.4 32.6-24 41.4-2.6 3.5-6.2 9.1-8 12.3-1.7 3.3-4.9 8.5-6.9 11.5-2.1 3.1-5.1 7.8-6.6 10.5-1.6 2.8-5 7.6-7.5 10.8-2.5 3.2-6.3 8.5-8.4 11.8-4.8 7.4-14.2 17.3-15.9 16.8-.6-.3-1.3-1.4-1.5-2.6-.4-2.5 4.2-13.3 7.5-17.8 1.3-1.7 2.3-3.5 2.3-4.1 0-1.8 13.2-27.8 16.4-32.3 1.7-2.5 4.7-7.2 6.5-10.5 1.9-3.3 3.7-6.2 4.1-6.5.4-.3 1.3-1.6 2-3 .7-1.3 6.1-9.7 11.9-18.5 5.8-8.8 10.8-16.5 11-17 .2-.6 1.9-3.4 3.8-6.2l3.4-5.2 4.9 3.5c2.8 2 5 4.3 5 5.1zm96.3 9.5c3 6.2 7.5 14.7 10 18.9 2.4 4.1 4.8 8.6 5.2 10 .4 1.3 1.5 3.5 2.5 4.9 1 1.4 5.9 10.6 11 20.5s11 21 13.1 24.7c2 3.7 4.1 7.7 4.5 9 .4 1.3 1.5 3.9 2.5 5.8 2.5 4.6 2.5 9 .1 9-3.6 0-16.2-17.5-16.2-22.3 0-.8-.7-2-1.6-2.8-.9-.7-2.3-2.7-3.2-4.5-4-7.7-8.8-15-10.9-16.7-1.3-1-2.3-2.6-2.3-3.5 0-.9-.9-3.1-2.1-4.7-1.1-1.7-3.5-6.3-5.4-10.2-1.9-4-5.2-9.9-7.3-13-3.3-5.1-6.6-11.7-10.1-20.6-.6-1.5-1.7-2.7-2.6-2.7-2.9 0-1.5-4.3 2.8-8.6 2.3-2.3 4.3-4.3 4.4-4.3.1-.1 2.6 5 5.6 11.1zm-55.8 13.7l5 1.9v20.4c0 11.1-.3 45.6-.7 76.5-.6 50.7-.8 56.4-2.4 58.8-.9 1.4-2.1 2.2-2.5 1.8-1.1-1.1-2.6-12.3-3.5-24.8-.3-5.5-.8-12.5-1-15.5-.8-11.3-.9-121-.1-121 .1 0 2.5.9 5.2 1.9z"/><path d="M106 183.5c0 1 .7 1.5 1.8 1.3 2.1-.4 1.9-2.2-.2-2.6-1-.2-1.6.3-1.6 1.3zM192.1 249.8c-.6 1.1-2.4 8.7-4.1 16.9-1.6 8.2-3.7 17.1-4.5 19.9-1.8 6.1-1.9 7.4-.1 7.4 2.3 0 4.8-8.3 9.1-30.9 1.7-8.5 2.3-13.7 1.6-14.4-.6-.6-1.3-.2-2 1.1zM209.2 256.3c-2 2.4-11.3 41-10.1 42.2 1.5 1.5 2.4-.6 4.4-9.9.9-4.4 2.7-11.3 3.9-15.1 3.5-10.8 4.8-16.7 3.8-17.7-.5-.5-1.4-.3-2 .5zM248.9 16.4c-.3.3-6.6.9-14 1.2-13.8.6-16.8 1.5-15.6 4.8.5 1.2 1.8 1.6 4.9 1.4l4.3-.3.3 7.9c.3 8.4-.2 9.6-4.5 9.6-2.1 0-2.6.9-2.2 3.7.1.5.6.6 1.2.4 2.2-.7 12.3-1.3 27.5-1.7 8.4-.2 15.7-.6 16.3-.9.5-.4.9-1.5.9-2.6 0-1.4-.7-1.9-2.5-1.9-3.2 0-4.8-3.1-4.9-10l-.1-5.5h3.9c3.1 0 4-.4 4.7-2.2.5-1.5.4-2.5-.4-3-1.5-.9-19-1.7-19.8-.9zm5.6 13.1v8.6l-3-.3c-1.6-.2-3-.9-2.9-1.6.1-.6.2-4.1.3-7.6.1-6.5.4-7 4.6-7.5.6-.1 1 3.3 1 8.4zm-13.1-2.9c1.1 8.3.8 10-1.9 11.2-1.4.7-3 1.2-3.5 1.2-.6 0-1-3.4-1-7.5 0-6.9.2-7.6 2.3-8.5 3.4-1.3 3.4-1.3 4.1 3.6zM403.2 237.8c-.8 1.5-4 9.4-7.2 17.7-7.5 19.3-12.5 31.8-19.3 48.3-6.4 15.3-7 17.7-4.3 17.7 1.3 0 2.3-1.4 3.6-5.5 1-3 3.4-9.3 5.5-14 2-4.7 4.9-11.9 6.5-16 1.6-4.1 4.3-11.1 6-15.5 1.7-4.4 4.2-10.9 5.5-14.5 1.3-3.6 3.7-9.3 5.4-12.8 1.7-3.5 2.9-6.7 2.6-7.3-1.1-1.7-3-.9-4.3 1.9zM436.2 239.3c-1.8 2.1-1.9 6.2-.2 6.2 1.9 0 3.8-5.1 2.4-6.5-.8-.8-1.4-.7-2.2.3zM336.8 245.3c-6.5 2.2-7.2 3.2-2.9 4.2 3.5.7 13.1-3 13.1-5.1 0-1.8-3.2-1.6-10.2.9zM385.5 253.5c-1.4 3-2.7 6.7-3.1 8.2-.4 1.5-1 3.2-1.4 3.8-.4.5-1.3 2.8-2 5s-1.8 5.1-2.6 6.5c-2.3 4.4-10.4 27.9-10.4 30.1 0 1.7 3.1.9 3.6-.9.3-.9 1.6-4.4 2.8-7.7 1.3-3.3 3.3-8.7 4.5-12 1.3-3.3 3.1-7.8 4.1-10 1-2.2 3-7.6 4.5-12s3.4-9.3 4.2-10.8c1.5-3 1.2-5.7-.7-5.7-.6 0-2.2 2.5-3.5 5.5zM305.3 258.2c-1.5 1.7-9.3 25.4-9.3 28.1 0 3.9 1.8.4 4.9-9.5 1.8-5.7 3.9-11.9 4.8-14 1.7-4.1 1.5-6.9-.4-4.6zM284.2 260.7c-.6 1.1-2.4 7.3-4.1 13.9-1.7 6.5-4.4 15.6-6.1 20.2-3.5 9.6-3.4 9.2-1.6 9.2 1.6 0 5.5-10.1 9.1-23.7 1.4-5.4 3.3-12 4.1-14.6 1.1-3.3 1.3-5.2.6-5.9-.7-.7-1.3-.4-2 .9zM287.4 279.7c-2.4 5.6-3 10.7-1.3 10.1.7-.2 1.6-1.8 2-3.4.3-1.6 1.3-4.3 2.2-6 1.6-3 1.4-4.4-.5-4.4-.5 0-1.6 1.7-2.4 3.7zM62.6 344.2c-.3 1.3-.8 4.1-1.1 6.3-.3 2.2-1.5 8.3-2.5 13.5-1.1 5.2-3.4 17.1-5.1 26.5-1.6 9.3-4.6 24.6-6.5 34-5.3 25.4-6.2 31-6.9 42.7-.6 9.2-.5 10.8.8 10.8 1 0 1.6-1.5 2-4.8.3-2.6 1.1-7.9 1.7-11.7.7-3.9 1.3-8.6 1.5-10.5.2-1.9 1.2-7.1 2.3-11.5 1.1-4.4 2.8-12.5 3.7-18 .9-5.5 2-11.4 2.6-13 .5-1.7 1.1-4.4 1.3-6 .7-4.7 3.5-21.4 4.7-27.5.6-3 2.2-9.9 3.6-15.3 3.4-13 3.5-17.1.6-17.5-1.7-.2-2.4.3-2.7 2zM35.6 349.2c-.8 2.9-3.5 15.6-4.1 19.3-.3 2.2-1.7 9.8-3 17-1.3 7.1-3.1 17.9-4 24-1.8 12.1-2.7 17.4-7.6 44-3.5 19.4-4.1 26.6-2.2 27.2.7.3 1.4-.6 1.7-1.9.2-1.3.9-5.2 1.6-8.8.6-3.6 1.6-8.5 2-11 .5-2.5 1.1-5.9 1.4-7.6.3-1.7 1.3-6.6 2.2-11 1.7-8.7 3.5-18.1 5.8-31.9.9-5 2.5-13.5 3.6-19 3.2-15.3 4.8-25 5.6-33.7.6-6.9.5-7.8-1-7.8-.9 0-1.8.6-2 1.2zM94.1 361.1c-.6 1.8-1.1 4.5-1.1 6 0 1.6-.4 4.8-1 7.1-1.8 8-4.7 24.7-8.1 45.8-.6 3.6-1.5 9.2-2 12.5-.9 5.6-2.4 14.9-4.9 30.5-1.8 11.9-2.9 17.4-7 37-6.3 30-9.7 47.3-12 61.5-1.2 7.1-3 17.3-4 22.5-2.3 11.8-3 23.2-1.3 23.7 1.7.6 2.2-.7 3.3-9.8.5-4.6 1.7-12.2 2.5-16.9.9-4.7 1.8-10.1 2-12 .2-1.9 1.3-8.7 2.4-15 1.1-6.3 2.7-15.6 3.6-20.5.9-5 2.7-14.2 4.1-20.5 1.4-6.3 3.2-14.4 3.9-18 2.4-11.1 6.9-37.1 12.5-72 1.1-7 4.3-22.2 6.5-31 .7-3 1.7-8 2-11 .7-6.1 2.1-11.3 3.8-14.8 1.3-2.8-.1-7.5-2.5-8-1-.2-2 .8-2.7 2.9zM485.7 374.7c-.2.5-1.4 4.6-2.7 9.3-1.2 4.7-4.2 14.6-6.6 22-2.3 7.4-6.4 20.5-8.9 29-2.6 8.5-5.7 18.9-7.1 23-4 12.4-10.4 36.3-10.4 38.8s2.4 2.6 2.6.1c0-.8.4-2.1.7-2.9 1.3-3.3 4.5-13.8 5.6-18.5 1.3-5.3 3.7-13.6 9.5-32.5 1.9-6.3 4.5-14.7 5.6-18.5 2.5-8.5 9.2-30.2 12.6-40.8 1.4-4.2 2.2-8.2 1.9-8.7-.7-1.2-2.2-1.3-2.8-.3zM472.2 382.7c-5.1 14.9-6.2 18.6-9.2 29.3-4.6 17.2-6.1 22.2-7 25-.4 1.4-1.3 4.5-2 7s-3 9.7-5 16c-2.1 6.3-5.7 18.2-8 26.5-2.3 8.2-4.9 17-5.7 19.5-16.2 50-23.9 78.8-28 104.7-.3 1.9-.1 3.3.5 3.3 1.7 0 5.2-8.4 5.2-12.6 0-2.1 1.5-9.8 3.4-16.9 8.3-32 10.9-41.5 13.1-48 4.7-14.3 11.5-36.4 14.9-48.5 2-6.9 4-13.9 4.5-15.5.5-1.7 4.2-14 8.1-27.5 3.9-13.5 10-33.5 13.6-44.5 3.5-11 6.4-20.8 6.4-21.8 0-3.8-2.9-1.4-4.8 4zM437.8 383.2c-1.6 2.4-10.6 28.4-14.7 42.8-3.5 11.8-12 38.9-14.5 46-1.3 3.6-3.1 9.4-4.1 13-1 3.6-3.2 11.4-5 17.5-7.7 25.9-14.4 50.6-14.5 53.2 0 2.7 1.9 1.1 2.5-2 .3-1.7 1.2-5.2 2-7.7.7-2.5 2.4-8.1 3.6-12.5 1.2-4.4 2.8-9.9 3.6-12.3.7-2.3 1.3-4.8 1.3-5.5 0-.7 1.1-4.8 2.5-9.2 1.4-4.4 4.5-14.8 6.9-23 2.5-8.3 6.1-19.6 8-25.3 2-5.7 5.4-16.7 7.7-24.5 4.2-14.6 12.7-40.4 15.5-46.9 2-4.5 1.4-7-.8-3.6zM446.3 392.2c-1.1 1.4-5.4 12.9-7.1 18.8-.6 1.9-4.9 15.4-9.6 30-4.7 14.6-9.2 29-10 32-.8 3-2.7 9.3-4.1 14-1.5 4.7-3.1 10.1-3.7 12-.5 1.9-1.5 4.8-2.2 6.5-.7 1.6-1.9 4.6-2.6 6.5-1.1 3.1-2.4 6.2-5 12-.3.8-.3 2.6 0 4l.7 2.5 1.1-2.6c.5-1.4 2.3-4.5 3.9-7 3-4.6 6.4-13.1 10.3-25.9 1.3-4.1 3.3-10.7 4.5-14.5 1.3-3.9 2.6-8.6 3-10.5 1.1-5.2 10.1-34.5 13.1-42.5 1.5-3.9 3.1-8.8 3.6-11 .6-2.2 2.3-8.1 3.9-13.2 1.6-5 2.9-9.9 2.9-10.7 0-1.9-1.4-2.1-2.7-.4zM107.3 443.2c-1.2 1.5-4.5 20.7-3.8 21.9.3.4-.8 6.1-2.4 12.6-5.2 20.7-8 35.4-9.6 49.3-.8 7.4-2.6 19.1-4 26-2.4 12.1-4.2 22.3-5 27.8-.2 1.5-.9 5.4-1.4 8.7-.5 3.3-1.2 7.6-1.5 9.5-.3 1.9-1.2 8.2-2.1 14-.8 5.8-2.6 18.4-4 28-1.3 9.6-3.6 23.3-4.9 30.5-3 15.9-4.3 25.4-6.6 46.5-1.2 11-8.7 54.7-12.2 71-2.5 11.9-3 15-2 15 1.8 0 5.3-11.8 7.2-24.6 2.2-14.4 3.9-23.8 6-33.9 1.2-5.5 2.5-15 3.1-21 1.5-17.9 3.8-33.6 7.4-52.2 1.9-9.6 4.4-24.5 5.5-33.1 2.6-19.5 8.2-54.7 12-75.2 4.2-22.7 5.8-33.5 6.4-42.5.4-7 3.9-24.4 6.6-33 1.7-5.4 3.8-15.4 3.3-15.8-.7-.8 1.7-13.8 3.9-20.8 2-6.3 2-9.9 0-9.9-.5 0-1.4.6-1.9 1.2zM115.6 485.7c-.7 2.5-4.3 22.8-6.6 37.5-1 6.8-2.8 16.1-3.8 20.8-1.1 4.7-2.7 13.2-3.6 19-1 5.8-3.2 18.1-5.1 27.5-3.7 18.8-6.1 36.2-5.1 37.2 1.8 1.8 3-3.4 7.7-32.2.4-2.8 1.5-8.4 2.4-12.5.9-4.1 2.1-10 2.5-13 2-13 4.2-25 6-32.5 1-4.4 2.4-11.8 3-16.5.6-4.7 2-13.6 3.1-19.9 1-6.2 1.9-12.7 1.9-14.2 0-3.2-1.6-3.9-2.4-1.2zM12 488.6c0 1.4.4 2.3 1 1.9.6-.3 1-1.5 1-2.6 0-1-.4-1.9-1-1.9-.5 0-1 1.2-1 2.6zM130.7 489.7c-.3.4-1.2 4.8-2.1 9.8-.9 4.9-2.3 12.4-3.1 16.5-1.4 7.1-5.5 29.4-11 60-1.4 7.4-3.2 17-4 21.4-.9 4.3-1.5 8.8-1.3 10l.3 2.1 1.3-2.2c.7-1.2 2.1-7.1 3.1-13 9.6-54 15.4-84.2 18.2-94.8 1.5-5.8 1.6-9.8.2-10.2-.6-.2-1.3 0-1.6.4zM382.5 564.7c-.8 3.2-2.1 7.2-2.9 8.8-1.6 3.6-3 9.5-2.2 9.5 1.1 0 3.8-6.3 6.2-14.3 2.7-9 2.8-9.7 1.5-9.7-.5 0-1.7 2.6-2.6 5.7zM10.6 570.7c-.2 1-.7 4.4-1.1 7.6-.7 6.8.9 7.1 1.8.5.4-2.4.9-5.5 1.3-7.1.7-3-1.1-3.9-2-1zM282.2 589.6c-.5 1.1-1.5 5-2.1 8.9-.7 3.8-2.1 11-3.2 16-1 4.9-3.3 15.2-4.9 22.8-1.7 7.6-3 14.5-3 15.3 0 2.6 2.4.9 3.1-2.2.4-1.6 2.5-11.5 4.8-21.9 2.3-10.5 5.2-23.4 6.4-28.7 1.5-7.2 1.8-10.1 1-10.9-.8-.8-1.4-.6-2.1.7zM275.9 593.7c-1 2.7-3.9 15.5-3.9 17.4 0 .5.4.9 1 .9 1 0 6-15.3 6-18.2 0-2.9-2-3-3.1-.1zM290.5 595.2c-1.1 3.3-3.4 14.1-4.5 20.8-1.8 11.4-5.7 30.2-6.9 33.3-1.6 4.2-8.3 35.8-7.7 36.4 1.5 1.5 3.3-1.1 4.3-6.3 3.7-17.7 5.5-25.9 7.7-34.9 1.3-5.5 3.1-13.8 4-18.5 2.5-12.7 4.6-22.2 5.8-25.2 1-2.8.3-6.8-1.3-6.8-.5 0-1.2.6-1.4 1.2zM298.1 607.7c-.5 2.1-1.5 7.6-2.1 12.3-1.1 9-1.5 11.7-4.9 33-1.2 7.4-2.9 18-3.7 23.5-.9 5.5-3.1 17.9-5.1 27.5-1.9 9.6-3.8 20-4.3 23s-1.6 9.5-2.4 14.4c-.8 4.9-1.3 9.3-1 9.8 1.1 1.8 2.2-.4 2.9-5.5 1-7.8 3-19.2 7-39.7 2-10.2 4.2-22.6 5-27.5.8-5 2.6-16 4-24.5 1.5-8.5 3-18.2 3.5-21.5.4-3.3 1.6-10.1 2.5-15 2.2-11.2 2.3-12.7.8-13.2-.7-.3-1.6 1.2-2.2 3.4zM104.2 637.6c-.5 1.1-1.9 7.3-3.1 13.9-2.9 15.4-6.6 34.4-9.1 46.5-1.1 5.2-3.1 17.6-4.5 27.5-7.4 51.3-7.5 51.6-5 46 .7-1.7 2.1-8.5 3.1-15 .9-6.6 2-14 2.4-16.5 1.4-8.5 3.1-19.5 4.1-26.5.5-3.9 2.1-12.2 3.5-18.5 3.3-14.8 5.2-24 6.4-31.5.5-3.3 1.8-10.5 2.9-16 1.8-9.4 1.5-14-.7-9.9zM267.6 660.1c-.9 4.6-.8 8.5.3 7.3 1.1-1.2 2.1-10.4 1.1-10.4-.4 0-1 1.4-1.4 3.1zM439.1 780.9c-2.6 3.6-2.1 5.1 1.9 5.1 1.6 0 3.1.4 3.4.8.2.4-5.1.8-11.9.7-6.8 0-12.7.3-13.1.8-1 1 2.4 3.4 5.9 4.2 4.7 1.1 3 2.2-5.4 3.3-7.8 1-11.1 2.3-9.5 3.9.4.5 6.8 1 14.2 1.1 11.2.3 13.4.6 13.4 1.9 0 1.3-.9 1.4-4.9.9-6.2-.8-16.1.3-16.1 1.8 0 1.4 5.6 3.6 8.9 3.6 2 0 2.1-.2 1.1-1.5-1.1-1.3-.7-1.5 2.6-1.5 7.6 0 8.2.5 8.8 7.3.4 3.4.8 10.5 1 15.7.3 9 .4 9.5 2.6 9.8 3.1.5 4.1-1.4 3.5-6.8-.2-2.5-.7-8.9-1-14.3l-.6-9.7h4.3c2.4 0 9.2.9 15.2 2 18.7 3.4 27.4 2.5 26.4-2.7-.4-1.9-7.6-4.9-14.7-5.9-2.5-.3-5.3-1.2-6.1-1.9-.8-.7-3.9-1.8-6.7-2.5-2.9-.6-5.3-1.3-5.3-1.5 0-.2 3.6-.1 8 .2 10 .7 11.1-1.2 1.3-2.2-3.8-.3-9.7-1-13.3-1.4l-6.5-.8 6.3-.2c8-.1 8.2-2.4.3-2.9-5.8-.3-6.1-2.2-.3-2.2 5.1 0 8.2-1 8.2-2.5 0-2.4-4.6-4.3-12.2-5l-7.5-.7-2.2 3.1zm13.4 1.1c.4.6-.7 1-2.5 1s-2.9-.4-2.5-1c.3-.6 1.5-1 2.5-1s2.2.4 2.5 1zm-17.2 8.7c-.7.2-2.1.2-3 0-1-.3-.4-.5 1.2-.5 1.7 0 2.4.2 1.8.5zm1.2 7.3c.4.6-2.2 1-7.2.9-5.7-.1-7-.3-4.8-.9 4.5-1.1 11.3-1.1 12 0zm20.4.6c.2.2-2.4.4-5.8.4-4 0-6-.4-5.6-1 .6-.9 10.3-.4 11.4.6zm14.6 4.4c10.7 1.5 14.7 2.8 14.3 4.8-.4 2.4-6.6 3-15.8 1.6-25.1-3.8-25.7-4-24.7-6.6.6-1.6 14.4-1.5 26.2.2zM78.1 785.7c-.6 3.2-1.9 9.1-2.8 13.1-1.5 6.6-1.3 9.6.3 7.9 1-1 3.6-10.6 4.3-16.2.4-2.8 1-5.5 1.4-6.2.8-1.2-.1-4.3-1.2-4.3-.5 0-1.3 2.6-2 5.7zM268.7 787.7c-1.1 1.8-1.9 12.8-.9 11.8.6-.6 1.3-3.6 1.7-6.8.7-5.2.4-6.9-.8-5zM72.7 810.7c-.3 1-1.3 6.1-2.2 11.3-.9 5.2-2 11.3-2.5 13.5-1.6 7.5-2.3 20.5-1.1 20.5.9 0 1.5-1.8 1.3-4.1-.1-1 1.5-10.9 4.2-25.9 1.4-8 2.6-15.1 2.6-15.8 0-1.8-1.8-1.4-2.3.5z"/><path d="M454.7 814.7c-.4.3-.2 1.2.4 2 1.2 1.4 9.9 1.9 9.9.5 0-2.1-8.7-4.2-10.3-2.5zM65.5 859c-.8 1.3.4 3.2 1.6 2.5 1.2-.8 1.2-3.5 0-3.5-.6 0-1.3.4-1.6 1z"/></svg>