<svg version="1" xmlns="http://www.w3.org/2000/svg" width="666.667" height="1170.667" viewBox="0 0 500 878"><path d="M.2 205.2l.3 205.3 57.5-.4c31.6-.2 57.8-.5 58.1-.7.5-.3 81.4-.7 90.8-.5 3.3.1 3.4.2 1.7 2-1.8 2-2 3.5-1.2 10.2.6 5.8 12 16.4 15.2 14 1.7-1.2 8.9-10.6 10.6-13.8 2.4-4.3 2.3-4.8-1.1-9.6l-2.9-4.2-.6-45c-.7-48.4-1.3-85.1-2.2-128-1.2-56.8-1.3-63.6-1.8-85.5-.9-35.1-1.9-84.6-2-94l-.1-8.5 29.8-.2c21.5-.2 30.3-.6 31.3-1.4 2.5-2.1 0-3.1-9.1-3.6-7.4-.5-8.5-.8-8-2.2.4-.9 1.6-4 2.8-6.9 1.1-3 2.6-5.6 3.4-5.9.7-.3 1.3-1.1 1.3-1.8 0-1.3 2.8-2.7 4.6-2.4.5.1 2.1.1 3.7 0 2-.1 2.7-.6 2.7-2.1 0-1.7-.7-2-4.2-2.2-2.4-.1-5.4-.1-6.8 0-1.4.1-13.5.2-26.9.2-19.1.1-24.6-.2-25.2-1.2-.5-.7-.9-4.8-.9-9.1 0-7.5 0-7.7-2.5-7.7s-2.5.1-2.5 9c0 5.5-.4 9-1 9-1.4 0-1.8-1.3-2.5-10.3-.5-5.7-1-7.7-2.1-7.7-1.7 0-1.7 3-.4 44 .8 28.1 1.3 49.9 2.5 119.5.3 17 .8 34.1 1 38 .2 3.8.7 28.1 1 54 .5 46.1.9 66.8 2.1 122.9.4 18.5.3 27.6-.4 27.2-1.1-.7-2-21-2.7-67.6-.3-17.9-1-57.7-1.5-88.5-.5-30.8-1.2-72.9-1.5-93.5-.8-53.4-2.4-127.2-3.1-142.8-.5-11.4-.8-13.2-2.3-13.2-1.5 0-1.6 1.8-1.5 18.2.1 10.1.4 23.7.8 30.3.7 14.7 1.4 44.4 2.1 84 .7 38.6 1.4 77 2 101 1.7 71.3 2.6 168.3 1.4 169-.4.3-1-.9-1.4-2.7-.4-1.8-1.3-4.7-2-6.3-.7-1.7-1.5-4.4-1.8-6-.3-1.7-1.7-7.5-3.2-13-1.5-5.5-3.3-12.3-4-15.2-.7-2.8-1.6-5.7-2-6.3-.4-.6-2-6.2-3.6-12.3-4.7-18.6-7-26-8.9-29.3-1.8-2.9-2-5.5-2-43 0-21.9-.2-42.6-.4-45.9-.3-3.3-.7-30.3-1-60-.6-55.8-1.2-84.2-2.2-122-.4-12.1-.7-26.2-.8-31.2l-.1-9.3H0l.2 205.2zM153.8 7.3c-.9.8-2.6 2.4-3.7 3.8l-2 2.4-.1-3.2c0-3.2.9-3.8 6-4.1 1.2-.1 1.2.1-.2 1.1zm18.2 4.9c0 3.5.4 22 1 41.3.5 19.2 1.2 63.8 1.6 99 .4 35.2.8 66 .9 68.5.1 2.5.6 23.1 1 45.7l.8 41.3-13.4.1c-7.4 0-26.4.2-42.4.4-101.2 1.4-116.4 1.5-116.9.6-.3-.5-.4-1.5-.1-2.3.4-1 4.2-1.3 17.8-1.2 9.4 0 17.7-.2 18.2-.5 1.7-1 18.9-1 43-.1 12.7.5 31.8.6 42.5.2 10.7-.4 21.3-.5 23.5-.2 5.1.7 21-1.2 21-2.5 0-.6.3-1.5.6-2 .4-.6.2-11.6-.3-24.5s-1.1-37.7-1.3-55c-.3-17.3-.6-36.5-.8-42.5-.3-7.4 0-12 .8-14.1 1.1-2.6 1.1-3.4-.1-4.6-1.6-1.6-1.7-2.7-1.5-26.1.1-8.6-.3-16.5-.8-17.5s-.8-4.5-.5-7.7C168 87.8 168 89 165.2 89c-1.4 0-3.4-.7-4.4-1.6-1.2-1.2-3.8-1.7-8-1.8-5.9-.1-6.3-.2-6.6-2.6-.4-4.6 1-5.3 10.8-5.8 6.9-.3 9.3-.8 9.7-1.9.8-2-1.2-3.1-4.3-2.5-1.3.2-4.9.1-7.9-.3-5.1-.6-5.5-.9-6.3-3.8-1.2-4.2-.3-5.5 1.7-2.9 2.3 3 6.5 4.3 10.9 3.4 3.3-.7 3.8-1.2 4.4-4.7.4-2.2.5-15.8.2-30.3-.3-14.4-.2-26.7.1-27.2.3-.6 1.9-1 3.6-1 2.9 0 2.9 0 2.9 6.2zM76 8.6c0 .8-.4 1.2-1 .9-.5-.3-1-1-1-1.6 0-.5.5-.9 1-.9.6 0 1 .7 1 1.6zm33.3 1c.6 3.1-.6 3.6-6.4 3.2-4-.3-4.4-.6-4.7-3.1C97.9 7 98 7 103.3 7c5.1 0 5.5.2 6 2.6zm32.7-.1c0 2.8-.3 2.9-3.1 1.5-2.8-1.5-2.4-4 .6-4 2 0 2.5.5 2.5 2.5zm-95-.6c0 1.2-2 2.5-2.7 1.8-.7-.7.6-2.7 1.8-2.7.5 0 .9.4.9.9zM15.5 10c-.3.5-1.3 1-2.1 1s-1.2-.5-.9-1c.3-.6 1.3-1 2.1-1s1.2.4.9 1zm103.5.5c1.7 2.1.4 6.7-1.8 6.3-2.2-.4-3.1-7.8-.9-7.8.8 0 2 .7 2.7 1.5zm40.4 5.1c0 4-.6 6.8-1.7 8.4l-1.7 2.4v-4.1c0-2.3-.4-4.5-1-4.8-1.5-.9-1.2-3.2.6-6.1 2.6-3.9 3.9-2.4 3.8 4.2zm-88.8-2.4c6.7 4.8 5.8 6-4.8 6.4-6.2.2-8.3-.5-5.8-2.1.6-.3 1-1.5 1-2.5 0-2 2.5-5 4.2-5 .5 0 3 1.4 5.4 3.2zm60.6 1.8c-.3 5.2-2.1 7-7 7h-3.3l2-2.6c1.1-1.4 2.3-4.2 2.7-6.1.6-3 1-3.4 3.3-3.1 2.4.3 2.6.6 2.3 4.8zm-95.4-.3c-1 .2-2.8.2-4 0-1.3-.2-.5-.4 1.7-.4 2.2-.1 3.2.1 2.3.4zm17.6 1.2c.7 1-1.8 3.4-2.7 2.5-.7-.8.3-3.4 1.3-3.4.5 0 1.1.4 1.4.9zm87.7 3.6c.3 2.2 1.3 5.5 2.3 7.3 1.5 3 1.7 5.6 1.2 24-.3 11.3-1 21-1.5 21.5-1.5 1.5-5.3-.2-4.6-2.1.3-.9.9-8.2 1.2-16.3l.6-14.7-2.9-1.8c-2.2-1.5-4.7-1.9-11.7-1.9-9.6 0-11.7 1.1-11.7 6.2 0 2.4-2.6 4.3-6 4.3-2.4 0-2.3.3-4.4-11.5-1.5-8.2-1.5-9 0-9.8 1-.6 1.4-1.7 1-3.2-.8-3 1-4.2 3.3-2.1 1 .9 2.7 1.6 3.9 1.6 1.1 0 2.7.9 3.5 2.1 1.2 1.6 2.6 2.1 6.1 2.1 11.2 0 14.6-1.8 14.6-7.7 0-2.2.4-2.6 2.3-2.3 1.7.2 2.3 1.1 2.8 4.3zm-40.9-1.2c1.1 1.8 0 2.6-3 1.8-1.5-.4-2.9-1.6-3-2.6-.3-1.5 0-1.7 2.4-1.1 1.6.4 3.2 1.3 3.6 1.9zm-92.1 5c-1.5 1.5-3-.1-2.4-2.4.6-2.1.7-2.1 2-.4.8 1.2.9 2.3.4 2.8zM27 26.4c0 6.4-1.5 11.5-4.2 13.8-4.9 4.3-6.5.8-2.9-6.4 2.2-4.5 2.2-4.9.7-7.3-1.5-2.3-1.5-2.5 1.1-3.9 4.7-2.5 5.3-2.1 5.3 3.8zm10.8-2.6c.2.7-.3 1.2-1.2 1.2-.9 0-1.6-.7-1.6-1.6 0-1.7 2.2-1.4 2.8.4zm13.7.8c6.1 2.4 6.5 2.8 6.5 5.8 0 1.7-1 5.2-2.2 7.6-2.4 4.7-3 4.9-9.5 3.4-2.2-.4-2.3-.9-2.3-9.9 0-5.2.2-9.5.5-9.5s3.4 1.2 7 2.6zm28.3 3.5c-.3 6.7-.9 7.7-3.2 5.3-2.4-2.4-2-7.8.7-9.7 1.2-.9 2.3-1.6 2.5-1.6.2-.1.2 2.6 0 6zm147.6 3.4c.1 9 .1 9-2.4 9s-2.5-.2-2.8-8.7c-.2-7.6-.1-8.7 1.5-9.1 3.3-.8 3.5-.2 3.7 8.8zm17.6-5.2c4.7 5.7 9 14.1 7.7 14.9-.7.4-4.7.8-8.9.8H236v-8.8c0-5.5.4-9.2 1.2-10 1.7-1.7 4.9-.5 7.8 3.1zm17.2-3.3c4 0 4 0 2.5 2.3-.8 1.3-2 4.3-2.7 6.6-.6 2.5-1.6 4.1-2.3 3.8-1-.3-7.7-11-7.7-12.2 0-.6 3.5-1.3 4.8-.9.8.2 3.2.4 5.4.4zm-45.7 9.3c0 12-1.9 11.8-2.3-.1-.2-7.3 0-9.3 1-9 .9.3 1.3 2.9 1.3 9.1zm-146.7-3c.4 4.4-.9 4.7-3.7 1.1-3-3.8-2.7-5.6.7-5.1 2.3.3 2.7.9 3 4zm-56.2 1.2c.9 2.1-1.4 4.5-4.2 4.5-2.6 0-3-1.1-1.4-4.1 1.3-2.3 4.8-2.5 5.6-.4zm24.9 3.1c0 3.6-.3 3.9-2.9 4.2-4 .5-5.2-1-3.6-4.7 1.1-2.8 3.2-4.1 5.5-3.6.6.1 1 1.9 1 4.1zm118.3-2.5c1.6-.8 2.9-.8 3.5-.2.8.8 1.2 12.9.5 13.6-.2.2-2.4-1.6-5-3.9-3.2-2.8-5-5.3-5.4-7.5-.7-3.2-.6-3.3 1.6-2.1 1.7.9 2.9.9 4.8.1zm-92.3 8.1c.6 2.4.4 2.8-1.4 2.8-2.2 0-2.7-2.2-1.5-5.5.8-2 2-.9 2.9 2.7zm12.3-.5l3.3.5-.3 8.2c-.3 7.6-.4 8.1-2.6 8.4-1.5.2-3.3-.6-4.9-2.2-2.2-2.3-2.6-3.6-2.8-9.7-.2-6.8-.1-7 1.9-6.4 1.1.4 3.6.9 5.4 1.2zm56.9 1.1c.7.5 1.3 4.5 1.5 10.9l.3 10.1-7 .5c-7.5.5-11.8-.5-11-2.5.3-.7.1-3.6-.4-6.3-.5-2.7-.6-5.2-.1-5.5.5-.3 1.2-1.9 1.6-3.5.4-1.7 1.2-3.3 1.8-3.7 1.4-1 11.8-1 13.3 0zM9.3 43.1c1.5 1.7 2.7 3.7 2.7 4.5C12 49.3 6.1 58 4.9 58c-.5 0-.9-4.1-.9-9 0-10.1.8-11 5.3-5.9zm90.5 3.2c.1 4.5-2.1 7.9-4.4 7-2.1-.8-1.9-9.2.3-10.8 2.7-2 4.1-.7 4.1 3.8zm-61.6-2.7c.4.3.8 1.4.8 2.5s1.3 3.1 2.9 4.5c5.4 4.5 4.6 11.9-2.2 19.1-5.6 5.9-10.7 6.8-15.5 2.8-3-2.5-3.2-2.5-3.2-.7 0 2.4 4.4 6.2 7.1 6.2 2.5 0 3.1 1.4 1.9 4.4-2 5.3-9.9 2-14-5.8-1.4-2.5-3.1-4.6-3.7-4.6-.8 0-1.3-1.3-1.3-3.4 0-1.9-.3-4.2-.7-5.2-.4-1.2-.2-1.5.8-1.2.8.2 1.5 1.9 1.7 3.6.2 1.8.7 3.2 1.1 3.2 1.2 0 3.1-2.3 3.1-4 0-2.2 3.5-8.4 6.5-11.4 1.7-1.7 4.1-2.7 7.4-3.2 3.8-.5 5-1.1 5.5-2.7.3-1.1.3-2.4 0-2.9-.9-1.4-6.8-.8-11.3 1.2-5.6 2.6-6.1 2.1-1.3-1.3 3.1-2.2 4.4-2.5 8.6-2.1 2.8.3 5.3.7 5.8 1zm119.3 6.6c.3.9 1.4 2 2.4 2.3 1.9.6 2.8 6.5 1 6.5-.5 0-.9-.7-.9-1.6 0-.8-.5-1.2-1.1-.9-.5.4-2.3.1-4-.5-3-1.3-4.6-4.7-3.6-7.5.4-.8.2-1.7-.3-2-.6-.4-1-1.3-1-2.2 0-1.8 6.5 3.3 7.5 5.9zm59.9-1.5c.3 1.6.8 19.2 1.1 39.3.3 20.1.7 48 1 62 3.2 168.5 4.1 259.1 2.6 257.5-.5-.6-1.4-27.3-2-59.5-.6-32.2-1.3-67.5-1.6-78.5-.9-36.3-2.2-96-3-139.5-.4-21.1-.8-81.1-.6-83.3.2-1.9 2-.4 2.5 2zm-166.8 2c-1.1 1.1-1.9-.6-1.1-2.4.8-1.7.8-1.7 1.2 0 .3 1 .2 2.1-.1 2.4zm13.7.9c.3 2 .4 4.9 0 6.5-.4 2.3-1 2.8-3.2 2.7-1.4-.1-3.4.2-4.3.6-1.5.7-1.8.3-1.8-2.3 0-1.7.7-4.9 1.6-7.1 1.3-3.3 2.1-4 4.4-4 2.4 0 2.8.5 3.3 3.6zM16 53.4l-2.2 2.1 1.8-3.5c1-2.1 1.9-3 2.2-2.1.2.7-.6 2.3-1.8 3.5zm95.4-2.2c1.1 4.3.8 4.9-2.6 4.6-2.7-.2-3.4-.8-3.6-3-.2-1.9.2-2.8 1.5-3.1 3.4-.9 4.1-.7 4.7 1.5zm-11.7 6c-.3.7-.5.2-.5-1.2s.2-1.9.5-1.3c.2.7.2 1.9 0 2.5zm-2.4-.5c-.7.2-1.9.2-2.5 0-.7-.3-.2-.5 1.2-.5s1.9.2 1.3.5zm-24.8 7.5c.5 2.6.4 3.8-.4 3.8-1.6 0-3.3-4.9-2.5-7.2.8-2.7 2.1-1.2 2.9 3.4zm40-4c.4.4.4 3.2 0 6.3-.7 6-2.3 7.1-4.9 3.3-1.5-2.1-2.2-8.8-1.1-9.9.7-.7 5.2-.5 6 .3zm-31.6 5c-.1 2.9-.4 4.4-.6 3.3-.3-1-1.2-3-2-4.2-1.4-2.1-1.4-2.3.1-1.7 1.2.5 1.5.2 1-1-.3-.9-.1-1.6.5-1.6.7 0 1.1 2 1 5.2zm77.6-1.2c.3.5-.1 1-.9 1s-1.8-.5-2.1-1c-.3-.6.1-1 .9-1s1.8.4 2.1 1zm-98.2 1c2.5 0 4 .5 4.4 1.5.9 2.5-.4 2.9-4.7 1.6-3.3-1-4.5-.9-6.9.4-3.8 1.9-4.1 1.9-4.1-.1 0-2.3 3.1-4.5 5.5-3.9 1.1.3 3.7.5 5.8.5zM6 68.1c0 1-.4 1.9-1 1.9-.5 0-1-1.2-1-2.6 0-1.4.4-2.3 1-1.9.6.3 1 1.5 1 2.6zm125.1-1c.7 1.1.9 1.1.9-.4 0-.9.7-1.7 1.5-1.7 1.1 0 1.5 1.1 1.5 3.6v3.7l-8.7-.6c-4.9-.4-9-.7-9.2-.7-.2 0 .2-.6.8-1.4.6-.7.9-2.1.5-3-.5-1.4.2-1.6 5.6-1.3 4 .2 6.5.8 7.1 1.8zM61 74.7c.2.2-.2.8-.9 1.2-.9.6-1 1.1-.2 1.5.6.4 1.1 1.6 1.1 2.7 0 1 .4 1.9 1 1.9.5 0 .8-1.5.7-3.3-.3-4.6 1.6-4.9 2.4-.4.6 3.6.4 4-2.7 5.5-3.2 1.5-3.5 1.5-4.8-.4-1.6-2.1-.3-4.9 1.7-3.7.6.4.7.1.2-.6-.4-.7-1.6-1-2.7-.8-2.6.7-4.8-.2-4.8-2 0-.8.4-1.2.9-.9.5.3 1.2-.1 1.5-.9.4-1.1 1.3-1.4 3.3-.9 1.6.4 3 .9 3.3 1.1zm65.3 2c1.2.7.8 5.3-.5 5.5-.7 0-3.2.2-5.5.3-4.6.1-6.1-1.5-4.8-5.5.6-1.9 1.2-2 5.3-1.4 2.6.4 5 .8 5.5 1.1zm-22.8.2c1.1.5 2.8.5 3.7 0 1-.6 1.9-.5 2.3 0 .9 1.5-2.8 3-9.7 4-3.5.5-6.4.8-6.6.6-.1-.1.2-1.4.7-2.9.9-2.1 1.7-2.6 4.3-2.5 1.8 0 4.2.4 5.3.8zm36.3-.3c1.6.5 2.2 1.4 2.2 3.6 0 2.3-.4 2.9-1.6 2.4-.9-.3-3.1-.6-5-.6-2.9 0-3.4-.3-3.4-2.3 0-1.3.3-2.7.7-3 .8-.9 4.1-.9 7.1-.1zm-63.3 1.9c1.1.2 2.2.4 2.4.4.2.1-.2.8-.9 1.6S75.2 82 73.4 82c-3 0-3.4-.3-3.4-2.6 0-2.3.3-2.5 2.3-1.9 1.2.3 3.1.8 4.2 1zm-35.5.4c0 .5 1.4 1.4 3 2.1 3.8 1.6 4.4 2.5 3 5-1.8 3.3-4.6 2.5-6.4-2-1.9-4.7-2-6-.6-6 .6 0 1 .4 1 .9zm67.4 5.7c1.2.4 1.6 2 1.6 5.5 0 2.7-.4 4.9-.9 4.9-2.5 0-5.3-8.4-3.4-10.3.8-.8.8-.8 2.7-.1zM82 88.3c0 3.3-.6 3.6-4.8 2.4-6.9-2.1-5.7-3.5 3.6-4.6.6 0 1.2.9 1.2 2.2zm18.3 2.7c.5 4.3.3 5.3-1.7 7.5-2.8 3-4 3.2-3.3.5.3-1.1.1-1.8-.4-1.4-.5.3-.9-1.9-.9-5 0-5.5.4-6 4.6-6.5.6 0 1.4 2.1 1.7 4.9zm-46.2-1.3c1.3 1.6 1.2 1.7-.3.4-1-.7-1.8-1.5-1.8-1.7 0-.8.8-.3 2.1 1.3zm13.3-.1c.8 2.2.8 6.4-.1 6.4-1.5-.1-4.5-5.1-3.9-6.6.7-1.9 3.2-1.8 4 .2zm88.6-.1c1.5.9-3.3 8.2-6.2 9.3l-2.8 1v-4.7c0-2.6.2-5 .5-5.2.7-.7 7.5-1 8.5-.4zM48.5 95c2 3.9 1.9 5.3-.7 6.9-1.9 1.2-2.3 1.1-3.5-.5-2-2.7-1.7-8.2.5-8.7.9-.3 1.8-.5 1.9-.6.1 0 .9 1.2 1.8 2.9zm10.1-.9c.3.6.2 1.5-.4 2.1-.7.7-1.4.3-2.1-1.1-1-1.7-.9-2.1.3-2.1.8 0 1.8.5 2.2 1.1zm104.1 4.3c-.2 4.8-.4 5.2-1.9 4.2-2-1.2-2.3-4.7-.8-7.7 1.9-3.4 3-2 2.7 3.5zm-155.9.3c9.8 19.6 17.5 27.5 24.9 25.7l2.6-.7-.6 5.4c-.4 3-.7 8-.7 11.2 0 5.6-.1 5.8-3 6.4-1.7.3-3.3 1-3.6 1.5-.4.6-.6 5.6-.5 11.2.2 8 .6 11 2.3 14.6 2 4.1 2.2 6 2.2 27.6.1 22.3.2 23.4 2.3 26.2 1.6 2.2 1.9 3.2 1 4.1-2.1 2.1-3.5 1.1-8.4-5.7-10-13.7-9.6-12.6-10.2-31-.4-11.6-1-16.7-1.8-16.9-.7-.3-2.8-2.6-4.7-5.3l-3.5-4.8-.6-36.6C4.2 111.5 4.1 95 4.4 95c.3 0 1.4 1.7 2.4 3.7zm73.5-2c2.5.5 2.7.9 2.7 5.4 0 2.7-.3 4.9-.8 4.9-.4 0-3.1-1.6-6-3.5-3.3-2.3-5-4-4.6-4.8 1.7-2.9 2.8-3.8 4.3-3.2.9.4 2.8.9 4.4 1.2zm29.7 5.8c0 .7-.8 1.5-1.7 1.9-1 .3-2.3.8-2.9 1.1-2 1-2.5-2.6-.6-5 1.6-2.1 1.8-2.2 3.5-.8.9.9 1.7 2.2 1.7 2.8zm11.8-3.3c2.1 2.1 1.3 2.8-2.8 2.8-3.8 0-5.2-1.4-3.3-3.3 1.1-1.1 4.8-.8 6.1.5zM67 104.7c.8.8 2.4 2 3.5 2.7 1.7 1.2 1.7 1.6.6 3-.8.9-2 1.5-2.8 1.2-.8-.3-1.1-.1-.8.4 1.1 1.7-1.5 1.1-4.5-1.2-2.2-1.6-2.7-2.4-1.8-3 .9-.5.8-.8-.4-.8-2.1 0-2.4-2-.6-3.8 1.4-1.4 4.5-.7 6.8 1.5zm74 2c-1.1 1.7-1.1 1.7-.6 0 .3-1 .6-2.4.7-3 0-.9.2-.9.5 0 .3.7 0 2-.6 3zm-112.2-.1c5.8.4 9.6.3 10.9-.5 1.6-.8 2.2-.8 2.6.3 1 2.5-7.5 4.7-13.6 3.5-6.6-1.2-11.7-3.1-11.7-4.2 0-.5.7-.7 1.5-.3.8.3 5.4.8 10.3 1.2zM96 109c0 1.6-.4 3-1 3-.5 0-1-1.4-1-3 0-1.7.5-3 1-3 .6 0 1 1.3 1 3zm15.3 5.7l.5 4.2-5.7.6c-3.1.3-7.1.7-8.8 1-2.7.3-3.3 0-3.3-1.6 0-1.5.7-1.9 3.7-1.9 3.6 0 7.3-2.2 7.3-4.4 0-1.3 4.2-3.5 5.1-2.7.4.3.9 2.5 1.2 4.8zm-31.2-2c3.6 2.2 3.7 3.3.2 3.3-3.7 0-5.7-1.4-5-3.4.8-2 1.2-2 4.8.1zM57 120.1c0 .5-.7.9-1.5.9-2.5 0-1.4 5.1 1.2 6.1 3.5 1.3 2.8 2.9-.9 2.2-2.8-.5-3.1-.3-2 .8.7.8 2.7 1.9 4.3 2.4 2.8 1 2.9 1.2 1.5 2.4-1.4 1.1-1.6 1.1-1.6-.3 0-1.1-.9-1.6-3.1-1.6-2.4 0-3 .4-2.5 1.5.3.8.1 1.5-.4 1.5-.6 0-1-.5-1-1 0-.6-.8-1-1.8-1s-2.7-.6-3.8-1.4c-1.1-.9-2.9-1.2-4.3-.9-2.1.5-2.2.4-1.2-1.6.7-1.2.9-2.5.6-3-.7-1.2 1.4-6.6 2.2-5.7.3.3 1.3 0 2.1-.6 1.2-1 1.9-.7 4 1.7 2.5 3 2.5 3 1.9.5-.5-2-.2-2.8 1.6-3.6 2.4-1.1 4.7-.7 4.7.7zm22.5.4l3 1.3-3.7.1c-4.1.1-6.8-.7-6.8-2s4.1-1 7.5.6zm63.1 1c-.4 1 .1 1.5 1.5 1.5 1.2 0 1.9.5 1.7 1.2-.5 1.4-5.4 3.5-6.3 2.6-.8-.8 1.6-6.8 2.7-6.8.6 0 .8.7.4 1.5zm-81.5 3c3.3 1.4 3.3 1.4.8 1.5-1.5 0-3.2-.7-3.9-1.5-1.6-1.9-1.1-1.9 3.1 0zm102.6 3.2c-.4 1.7-.4 1.7-1.2 0-.4-.9-.4-2.5 0-3.5.8-1.6.8-1.6 1.2 0 .3 1 .3 2.6 0 3.5zm-82.4-1c1.2.7.8 3-.8 4.3-1.2 1-2.1.7-4.9-1.6-1.9-1.6-3.5-3.3-3.5-3.7-.1-.8 7.5 0 9.2 1zm71.7 4.2c0 3.4-.5 4.2-3.6 6.2-3 1.8-3.8 2-5 .8-.7-.8-1.1-2.3-.8-3.4.5-1.9 6.9-7.5 8.6-7.5.4 0 .8 1.8.8 3.9zm-79.3 1.3c3.8 3.7 3.9 4 1.6 7.4l-1.7 2.6-3.8-4.3c-4.1-4.6-4.8-7.5-2-8.2.9-.3 1.9-.5 2.2-.6.2 0 1.9 1.3 3.7 3.1zm88.3 3.7c0 2.4-1.6 4.5-2.9 3.7-.6-.4-1.1-2.8-1.1-5.4l.1-4.7 1.9 2.4c1.1 1.3 2 3.1 2 4zm-25.4-1.4c-.6 1.8-6.2 2-7.2.3-.5-.7 0-.9 1.4-.6 1.2.4 2.8-.1 3.9-1.2 1.9-1.8 2.9-1 1.9 1.5zm-16.9.1c-.3.3-1.2.4-1.9.1-.8-.3-.5-.6.6-.6 1.1-.1 1.7.2 1.3.5zm-18.9 1.6c1.9 1.9 1.5 4.8-.8 4.8-1.6 0-2-.7-2-3 0-3.2.9-3.7 2.8-1.8zm-53.4 2.7c1.5 1.6 1.8 4.2 1.9 16.1.2 13.7.1 14.1-1.8 13.6-1.1-.3-2.3-.6-2.6-.6-.4 0-.9-1.7-1.3-3.9-.3-2.1-1.3-4.4-2.1-5.1-.8-.7-1.5-2.5-1.5-4.1 0-1.5-.4-3.1-1-3.4-.5-.3-1-3.7-1-7.6V137h3.8c2.6 0 4.5.7 5.6 1.9zm65.5.3c1.1 2.9.6 3.7-1.9 3.1-2.5-.7-3.4-1.9-2.6-3.8.8-2.3 3.6-1.8 4.5.7zm-44.5 3.3c3.1 2.9 3.5 3.8 2.6 5.4-.8 1.6-1.5 1.9-3.3 1.2-1.2-.5-4.1-1.4-6.4-2-4.2-1.2-7.3-3.4-7.3-5.2 0-.6.4-.8.9-.5.5.3 2.6-.1 4.7-.8 5.2-1.9 4.6-2.1 8.8 1.9zm75.1 1.9c2.4 1.3 4.2 3.1 4.7 4.6.9 3.2 2.6 15.4 2.2 15.8-.1.2-1.1.1-2.1-.2-1.3-.4-2.5-2.6-3.7-6.6-1.8-6-4.1-9.2-8.5-12.1-1.6-1-2.2-2.1-1.8-3.1.7-1.9 3.2-1.5 9.2 1.6zm12.6-1.5c2.2 1.8 2.4 2.6 2.4 11.5 0 12.9-2.3 12.6-3.9-.5-.4-3.1-1.4-6.5-2.1-7.5-1.8-2.4-1.9-5.4-.1-5.4.8 0 2.4.9 3.7 1.9zm-54.9 7.1c-.4 5.6-4.2 8.5-4.2 3.2 0-4.6 1.1-7.3 2.9-7 1.2.3 1.5 1.3 1.3 3.8zm26.7-2.2c2.2 4.1.1 24.2-2.5 24.2-.7 0-2.6.8-4.2 1.7-2.8 1.6-2.9 1.6-7-1.7-4.8-3.8-5.2-5-1.7-5 2.8 0 3.2-1.2 1-3.3-1.1-1.2-1.2-1.6-.2-2 .9-.3.9-.7-.1-2-1.7-2-.8-3.7 1.9-3.7 2.3 0 2.5-1.6.3-2.8-1.1-.6-1.3-1.1-.5-1.6.6-.4 1.1-.2 1.1.3 0 .6.5 1.1 1.1 1.1.6 0 .8-.8.5-1.8-1-3.1 1.4-5 6.6-5.1 1.7-.1 3.1.6 3.7 1.7zm-47.4.5c.3.7.6 7.6.8 15.5.2 11.6 0 14.2-1.2 14.2-1.7 0-6.3-4.8-5.7-5.9.3-.4 1-3.6 1.5-7.1.9-5.2.8-6.8-.4-8.6-1.3-2-1.3-2.7 0-5.8 1.5-3.6 4.1-4.8 5-2.3zm30 1.4c-1 1.4-2.1 3.8-2.5 5.2-.6 2.2-.9 2.3-1.5.8-.4-.9-.4-3.3-.1-5.2.6-2.9 1.1-3.5 3.3-3.5 2.5 0 2.5 0 .8 2.7zM66.7 154c.7 0 2 1.1 2.9 2.5 2 3 1.5 11.2-1.1 18.5-1.7 4.7-1.3 12.3.7 14.7.5.7.7 2.6.3 4.4-1.1 4.8-1.3 8.2-1.5 23.1-.2 11.2-.5 13.6-1.6 13.1-1.8-.7-1.6.5-1.9-16.1-.2-10.5-.7-15.2-1.8-17.5-.8-1.8-2.3-6.1-3.3-9.7-1-3.6-2.3-7.4-3-8.5-1.4-2.3-4-25.6-3.1-27.8.5-1.3 1.4-1.2 6.4.9 3.2 1.3 6.4 2.4 7 2.4zm73.3 8.3c1.2 4.4 2 8 1.8 8.2-.2.1-2.2.5-4.5.9l-4.3.6v-4.3c0-2.4.5-6.9 1.2-10.1 1.4-7.3 2.8-6.2 5.8 4.7zm-35 7c0 1 1.4 3.2 3 4.9 1.7 1.7 2.9 3.5 2.8 4-.2.5-2.2-1-4.6-3.3-3.3-3.4-4.2-5-4.2-7.8 0-3.3.1-3.4 1.5-1.5.8 1 1.5 2.7 1.5 3.7zm59 6.9c0 12.4-2.6 9.8-3.4-3.4 0-1.4-.4-2.4-.8-2.1-.5.2-.8 0-.8-.6 0-1 2.8-3 4.3-3.1.4 0 .7 4.1.7 9.2zm-11-4.3c1.7 3.4 1.1 3.9-2.5 2.3-1.9-.9-3.5-2.2-3.5-2.9 0-2.1 4.8-1.5 6 .6zm-51.4 6.8c-1 1-4.6-2.8-4.6-4.9 0-1.6.5-1.4 2.6 1.2 1.5 1.7 2.4 3.4 2 3.7zm-27.9 3.5c-.3.8-.6.5-.6-.6-.1-1.1.2-1.7.5-1.3.3.3.4 1.2.1 1.9zm6.4 5.1c-.8.8-1.1.4-1.1-1.4 0-3.3 1.4-4.7 1.8-1.9.2 1.2-.1 2.7-.7 3.3zm24.9 4.9c0 1.6-.3 1.9-1.1 1.1-.6-.6-.8-1.6-.5-2.2 1.1-1.7 1.6-1.3 1.6 1.1zm-23.2 4.4c-.3 1.4-.5 1.2-1-.9-.3-1.9-.2-2.5.4-1.9.6.6.8 1.8.6 2.8zm-5.6 2.6c.5 5.9.4 6.3-1.1 5.3-1.3-.8-1.5-10.5-.2-10.5.5 0 1.1 2.4 1.3 5.2zM7 198.7c0 3.1-1.5 6-2.3 4.7-.4-.8-.3-3.7.2-6.7.3-2 2.1-.3 2.1 2zm93.2 1.3c-.5 1.2-.2 1.1 1.1-.2.9-.9 1.7-2.1 1.7-2.7 0-1.9 1.8-1.2 2.5.9 1.5 4.7-4.8 7-6.5 2.4-1.4-3.5-1.2-4.7.4-3.2.7.7 1.1 2 .8 2.8zm30.6-.2c.4 4.3-1.2 4.1-2.6-.4-.9-3.1-.8-3.5.6-3.2 1.1.2 1.8 1.5 2 3.6zm-3.3 5.1c-.3.2-1.1-.1-1.7-.7-1.6-1.6-3.7.3-3.1 2.9.5 1.9.7 1.9 3.2.3l2.6-1.7-2.3 2.5c-3 3.3-10.4 7.5-9.6 5.4.3-.8 1.4-1.8 2.5-2.1 1-.4 1.9-.9 2-1.3 0-.4.2-2.3.4-4.2.1-1.9.3-3.9.4-4.3 0-.5 1.4 0 3.1.9 1.6 1 2.7 2 2.5 2.3zm-15.5-.4c0 .2-.5 1.6-1.2 3-1.2 2.6-3.4 3.6-2.4 1 .3-.8.1-1.5-.4-1.5-.6 0-1 .7-1 1.5s-.7 1.5-1.5 1.5c-2.3 0-1.8 1.3 1.5 3.5 2.2 1.5 3.1 3 3.6 6.1.8 5.4.3 7.8-1.7 8.2-1.8.3-6.3-6.3-5.4-7.9.4-.5.1-.9-.4-.9-2 0-1.2-7.6 1-10.4 2.4-3 7.9-5.9 7.9-4.1zm-52.7 16.2c.3 8.6.5 15.8.4 15.9-.1.1-1.3.5-2.7.9-2 .6-2.3.5-1.2-.6 2.1-2.2 1.5-5.1-1-4.7-1.7.2-2.3.9-2.2 2.6 0 1.6-.4 2.1-1.3 1.7-.8-.3-2.3-.5-3.4-.5-1.6 0-1.8-.5-1.3-2.5.8-3.1-2.2-4.7-4.1-2.2-1.9 2.6-3.9-.3-3-4.3.5-2.4.3-3.1-1.2-3.7-1.8-.6-3.3-2.2-3.3-3.4 0-.3 2-1.9 4.5-3.5s4.8-3.8 5.1-5c.4-1.6 2.2-2.8 6.2-4.2 3.1-1.1 6.2-2.1 6.8-2.1.7-.1 1.3 5.2 1.7 15.6zm-49-10.1c.3 2 2 5.8 3.8 8.5 3.6 5.6 3 7.8-1.4 5.8-2.7-1.2-3.2-2.5-4.3-12.2-.7-6.3.9-8.2 1.9-2.1zm66.4 7.7c-.2 7.5-.4 8.3-1.9 7.9-3-.8-2.3-16.2.8-16.2 1 0 1.2 2 1.1 8.3zM40 211.5c0 .2-.9.9-2 1.5-1.6.9-2 .8-2-.5 0-.8.9-1.5 2-1.5s2 .2 2 .5zm70 1.6c0 .5-.4.9-1 .9-.5 0-1-.7-1-1.6 0-.8.5-1.2 1-.9.6.3 1 1 1 1.6zm30.7 6.2c-.3 2.2-1.6 5-2.9 6.4-3.4 3.8-12.8 7.5-9.9 3.9.9-1.1.6-1.5-1.5-2-3.4-.9-4.4.2-2 2 1.7 1.2 1.8 1.4.3 1.4-.9 0-1.8-.3-1.8-.8-.7-3.6-.5-5.2.5-4.9 4.5 1.9 5.1 2 3.9.6-1.7-1.8-1.6-2.9.2-2.9.8 0 1.4.6 1.3 1.2-.5 2.4 3.3 1.3 5-1.4 1.7-2.9 1-5-1-3-2.4 2.4-2.8 1.1-.7-1.8 1.2-1.6 2.6-2.7 3.1-2.4.4.3.6 1 .3 1.5-.4.5.1.9.9.9.9 0 1.6-.7 1.6-1.5s-.5-1.5-1-1.5c-.6 0-.5-.6.2-1.4 2.1-2.3 4.1 1 3.5 5.7zm-136 2.9c-.3.8-.6.5-.6-.6-.1-1.1.2-1.7.5-1.3.3.3.4 1.2.1 1.9zm95.3 6c0 .4-.7.8-1.5.8-1 0-1.5-1-1.5-2.8.1-2.6.1-2.6 1.5-.8.8 1.1 1.5 2.3 1.5 2.8zm20.1-.9c-.8.8-1.6.7-2.7-.5-1.4-1.4-1.4-1.5 1.1-1 1.9.3 2.3.8 1.6 1.5zM6.4 229.8c-.1.7-.2 2.1-.2 3.2-.2 2.5-1.9 2.6-2.4.2-.6-2.6.3-5.3 1.6-4.9.6.2 1.1.9 1 1.5zm7.8 2.7c-.4 3.7-1 4.4-2.2 2.5-1.7-2.6-1.2-6.2.8-5.8 1.2.3 1.6 1.2 1.4 3.3zm9 12.2c-1.8 16.2-2.3 19.3-3.3 19.3-1.9 0-2.2-3.3-.5-6.1 1.5-2.5 1.6-4.6 1-15.6l-.6-12.8 2.3 2.2c2.2 2.2 2.2 2.3 1.1 13zm51.6-11.6c-2 1.3-2.8 1.1-2.2-.5.3-.8 1.2-1.2 2.1-.9 1.2.5 1.2.7.1 1.4zm7.3 7.1c0 5.1.3 11.4.5 14 .3 2.7 0 4.8-.5 4.8s-1.8 1.6-3 3.6c-1.7 2.9-2.6 3.5-4.9 3.2-2.5-.3-2.7-.6-2.6-4.3.1-2.2.5-7.2.9-11 .5-3.9.8-8.5.8-10.3-.1-2.5.6-3.7 3-5.4 1.8-1.2 3.4-2.6 3.5-3 .2-.4.8-.8 1.3-.8s.9 4.2 1 9.2zm-15.5-4.5c-1 1-1.9-.5-1-1.8.6-1.1.8-1.1 1.2 0 .2.7.1 1.5-.2 1.8zm50.2-1c.5 1.7-2.6 2.9-4 1.5-.6-.6-.7-1.5-.3-2.2.9-1.4 3.7-.9 4.3.7zm14.5 4c.3 2.1.8 4.6 1.2 5.5.5 1.3.2 1.8-1 1.8-1.1 0-1.5-.5-1.1-1.5.7-1.8-1-2-1.8-.3-.3.7-.5-.6-.3-3 .1-2.3-.1-4.2-.6-4.2-.4 0-.5-.5-.2-1 1.4-2.2 3.3-.8 3.8 2.7zm-92.8-1.6c1.5 2.3 16.1 6.4 17.9 5 .6-.5 3.7-1.2 6.8-1.6l5.7-.7-.5 7.3c-1.2 18.4-1.4 19.5-4.3 18-3.3-1.8-9.3.5-13.1 5l-3.6 4.1h-9.2c-12.3 0-12.6-.3-11.9-11.2.6-9.4 2.2-21.6 3.2-24.2.4-.9 2.1-1.9 3.8-2.1 1.8-.2 3.5-.5 3.9-.5.4-.1 1 .3 1.3.9zm68.2 3.5c-.9 2.9-1.3 3.3-3.6 2.8-1.4-.4-3.2-1.4-3.9-2.2-1-1.4-.9-1.8.9-2.7 1.1-.7 3.3-1.2 4.8-1.2 2.7 0 2.8.1 1.8 3.3zM6.4 242.4c-.6 1.6-.8 1.7-1.6.2-1.1-1.9 0-4.2 1.3-2.9.6.6.7 1.8.3 2.7zM15 244c0 1 .2 2.5.5 3.2.4 1.1-.3 1.3-3 1-4-.5-3.9-.4-2.3-4.8 1-2.7 1.5-3.1 3-2.3 1 .5 1.8 1.8 1.8 2.9zm105.9 12.2c.1 8-.3 8.7-3.1 6.5-1.7-1.2-1.7-1.5.9-15.7.6-3.3.6-3.4 1.3-1 .5 1.4.8 6 .9 10.2zm45.3 3c.2 5.4 0 9.8-.4 9.8s-.7-5.3-.7-11.8c.2-13.2.6-12.4 1.1 2zm-32.1-6.5c.5 1.5 1.3 4.6 1.6 7l.6 4.4-4.4-.7c-2.4-.4-4.5-.7-4.5-.8-.1-.1-.4-2.9-.7-6.4l-.5-6.2h3.4c2.8 0 3.6.5 4.5 2.7zm-122.9 5.2c.2 1.4-.3 2.6-1.1 2.9-1 .3-1.2-.1-.8-1.8.3-1.3.1-3.3-.5-4.4-.9-1.9-.9-1.9.5-.6.8.8 1.7 2.6 1.9 3.9zM16 254c0 .5-.4 1-1 1-.5 0-1-.5-1-1 0-.6.5-1 1-1 .6 0 1 .4 1 1zm86 1.3c0 1.7-2 3.7-3.7 3.7-.7 0-1.3-1.1-1.3-2.5 0-2 .5-2.5 2.5-2.5 1.4 0 2.5.6 2.5 1.3zm-94 .1c0 .2-.7.9-1.5 1.6-1.2 1-1.5 1-1.5-.4 0-.9.7-1.6 1.5-1.6s1.5.2 1.5.4zm102.6 11.8c-.3 3.5-.5 6.5-.5 6.7-.2 1.3-3-3.7-3.1-5.2 0-1.9 2.7-7.7 3.6-7.7.3 0 .3 2.8 0 6.2zM83 269.5c0 2.4-.5 3.5-1.5 3.5-1.8 0-2-4.1-.3-5.8 1.7-1.7 1.8-1.6 1.8 2.3zm-19.6-.6c.3.5 3 1.2 6 1.5l5.5.7-2.1 3.5c-2.2 3.8-2.2 3.8-13 3.5-7.2-.2-7.8 0-9.4 2.4-2.1 3.2-3.7 3.2-5.8 0-1.6-2.4-1.6-2.5.8-2.5 4.2 0 7.5-1.8 9.6-5.2 1.7-2.8 3.9-4.2 7.2-4.7.4-.1.9.3 1.2.8zm59.1 2.2c.3.5.8 2.4 1 4.3.5 3.4.4 3.5-2.5 3.1-4.3-.5-4.7-1-4.8-5.9l-.1-4.5 2.9 1.1c1.7.5 3.2 1.4 3.5 1.9zm13-1.9c1.5.2 2.5 1.9 3.8 6.1 1 3.3 1.7 6 1.5 6.1-.2.1-2.4.1-4.9-.2-5.3-.4-6.4-1.9-7.2-9.1-.5-4.2-.5-4.3 2.1-3.8 1.5.3 3.6.7 4.7.9zm-36.2 12.1c-.4.6 0 .8.9.4 2.1-.8 3 .3 1.7 2-2.4 2.8-3.7 1.4-3.6-4 0-4.4.1-4.8.8-2.3.4 1.6.5 3.4.2 3.9zM84 278.9c0 .6-.4 1.3-1 1.6-.5.3-1-.1-1-.9 0-.9.5-1.6 1-1.6.6 0 1 .4 1 .9zm-63 5.7c0 3.8-2.8 5.4-4.7 2.8-1.7-2.3-1.7-2.7.8-5.8 2.5-3.2 3.9-2.1 3.9 3zm-14.2-.9c-.5 2.5-2.8 2.8-2.8.4 0-1.2.6-2.1 1.6-2.1.9 0 1.4.7 1.2 1.7zm37.7 1.8c4.7 3.6 7.5 3.7 7.5.4 0-2.4 2.9-3.7 4.1-1.8.5.8.9 4 .9 7.1v5.8l-9.2-.3-9.3-.2-.3-3.5c-.4-4.2-1.6-5-5.3-4-1.6.5-2.9.6-2.9.2.1-.8 8.2-7.1 9.2-7.1.4-.1 2.8 1.5 5.3 3.4zm121.5.5c0 3.9 0 3.9-2.7 2.9-1.6-.6-6.4-1-10.8-.9-12.2.4-17.5.1-17.5-.9 0-.9 5.9-1.8 19.7-2.9 4.5-.4 8.5-1 8.9-1.5 1.6-1.6 2.4-.5 2.4 3.3zm-36.8-.5c1.7 2.2.5 3.2-4.7 4.4-6.8 1.5-9.1.5-7.3-3.5 1-2.2 1.7-2.4 6.2-2.2 2.8.2 5.4.7 5.8 1.3zm-21.7 2.7c.6 2 .8 2 1.2.5.5-2 2.3-1.3 2.3.9 0 1.7-8.5 2-11 .4-.8-.5-1.3-1-1-1.1 3.6-.6 4.4-.9 5.3-1.8 1.6-1.6 2.4-1.3 3.2 1.1zm-95.5.3c0 1-1 1.5-3.1 1.5-2.7 0-3-.2-1.9-1.5.7-.8 2.1-1.5 3.1-1.5 1.1 0 1.9.7 1.9 1.5zm52.4 1.1c1.6.6 2.2 3.5.9 4.7-1 1.1-3.3-1.3-3.3-3.4 0-2.1.1-2.2 2.4-1.3zM18 292c0 .5-.2 1-.4 1-.3 0-.8-.5-1.1-1-.3-.6-.1-1 .4-1 .6 0 1.1.4 1.1 1zm63.1 1.3c-1 .9-1.1.8-.5-.6.3-1 .9-1.5 1.2-1.2.3.3 0 1.1-.7 1.8zm-51.5-.3c2.7 0 3.4.4 3.4 1.9 0 1.4-1 2-4.7 2.5-2.6.3-5 .3-5.5-.2-1.3-1.3.3-5.4 1.9-4.8.8.3 3 .6 4.9.6zm45.8 1.5c-.4.8-.8 1.5-1 1.5-.2 0-.4-.7-.4-1.5s.4-1.5 1-1.5c.5 0 .7.7.4 1.5zm88.4 1c-.8.8-4.8-.8-4.2-1.6.3-.5 1.4-.4 2.5.2 1.2.6 1.9 1.2 1.7 1.4zm-30.3-.5c-.3.5-1.9 1-3.6 1-1.6 0-2.9-.5-2.9-1 0-.6 1.6-1 3.6-1 2.1 0 3.3.4 2.9 1zm46.4 18.8c.6 1.1 2.6 7.9 4.5 15.3 2 7.4 6.3 23.1 9.6 34.9 7.8 28 10.5 38.8 9.8 39.5-.8.9-23.1 1.2-169.8 2.9l-29.5.3.3-45.6c.3-30.5.7-45.8 1.4-46.2 1.2-.8-1.4-.7 81.8-1.5 33.8-.3 61.9-.6 62.3-.7.5-.1 7.1-.3 14.7-.5 12.8-.2 14-.1 14.9 1.6zM224 413c0 .5-1.5 1-3.4 1s-3.8-.5-4.1-1c-.4-.6 1-1 3.4-1 2.3 0 4.1.4 4.1 1zm-3.8 6c1.3 0 3.3-.7 4.4-1.5 2.3-1.7 3.4-1.9 3.4-.5 0 .5-.7 1-1.5 1-1.8 0-2 3-.2 3.1.6 0 .2.4-1.1.9-1.3.6-2.8 2.4-3.4 4.1-.7 2-1.4 2.7-2 2.1-.6-.6-1.6-.8-2.3-.6-.7.3-1.6.1-2-.5-.3-.6.1-1.1.9-1.1.9 0 1.6-.6 1.6-1.3 0-1.9-2-3.6-3.5-3-.9.3-1.2-.2-.9-1.4.3-1.1-.2-2.5-1-3.2-3.2-2.7-1.5-3.3 1.8-.7 1.9 1.4 4.5 2.6 5.8 2.6z"/><path d="M108 30c-1.3 2.3.2 6 2.5 6 1.5 0 3-5.3 2-7-1-1.6-3.4-1.1-4.5 1zM138.1 28.9c-2 1.3-.6 6.3 1.7 5.9 1.1-.2 1.7-1.3 1.7-3.2 0-3.2-1.2-4.1-3.4-2.7zM96.5 44c.3.5.8 1 1.1 1 .2 0 .4-.5.4-1 0-.6-.5-1-1.1-1-.5 0-.7.4-.4 1zM98.1 49.6c0 1.1.3 1.4.6.6.3-.7.2-1.6-.1-1.9-.3-.4-.6.2-.5 1.3zM27.6 55.2c-.3 1.3 0 2.9.8 3.6 1 1.1 1.7.9 3.7-.8 2.4-2 2.4-2 .5-3.5-2.8-2.1-4.3-1.9-5 .7zM36 61.7c-.9 3.1-1.7 4.3-2.9 4.1-.9-.2-2.7.7-4 1.9-1.9 1.8-2.1 2.5-1.2 4.2 1.3 2.4 1.6 2.5 4.1 1.1 1.1-.6 1.7-1.7 1.4-2.5-.4-.9 0-1.5.9-1.5.8 0 2.2-1.1 3.1-2.5.9-1.4 2.6-2.5 3.7-2.5 3.3 0 2.2-5.2-1.3-6.1-2.4-.6-2.7-.4-3.8 3.8zM155 53.5c.7.9 1.5 1.3 1.7 1.1.7-.7-.7-2.6-1.9-2.6-.6 0-.6.6.2 1.5zM123.5 70c.3.5.8 1 1.1 1 .2 0 .4-.5.4-1 0-.6-.5-1-1.1-1-.5 0-.7.4-.4 1zM121.9 155.4c1.6 1.9 4.4 2.1 3.9.3-.3-.6-1.5-1.4-2.8-1.5-2.1-.3-2.2-.2-1.1 1.2zM120 158.4c0 1 .9 1.6 2.1 1.6 2.4 0 2.1-2.3-.4-2.8-1-.2-1.7.3-1.7 1.2zM136.5 220c.3.5.8 1 1.1 1 .2 0 .4-.5.4-1 0-.6-.5-1-1.1-1-.5 0-.7.4-.4 1zM244.7 56.8c-1 .2-1.7 1.3-1.8 2.5 0 1.2 0 32.6.1 69.7 0 69.2.2 82.5 2.1 161 .6 25 1.2 50.9 1.4 57.5.1 6.6.7 38.5 1.4 71 .6 32.4 1.3 62.8 1.4 67.4l.2 8.4 20.2.1c11.1.1 20.5.4 20.9.8.4.5 0 1.6-.8 2.5-2.6 3-8.7 17.5-9.3 22.3-.4 2.5-1.6 7.4-2.7 11-1.2 3.6-2.2 7-2.3 7.5-.2.6-2.9 1.9-6.1 2.8-3.3 1-9.7 2.9-14.4 4.3-4.7 1.4-10 3-11.8 3.6-1.8.5-4.6.7-6.2.3-1.9-.4-4.7 0-7.6 1.1-4 1.5-5.5 1.6-11.8.6-16.7-2.7-40.3-3.1-71.6-1.2-20.8 1.2-25.1 2-27.7 5.3-1.4 1.8-3.6 2.6-9.1 3.5-9 1.5-14.1.8-21.5-3.1-5.3-2.8-6.1-2.9-9.6-1.8-2.2.6-6.1 3.1-8.8 5.5-7.5 6.7-11.6 8.5-22.6 9.5-5.3.5-10.1 1.2-10.7 1.6-.6.3-6.8 1.3-13.8 2.1C-.1 575.1 0 575.1 0 577.1c0 2.2 1.6 2.3 10.4.9 15.3-2.6 36.5-5.4 41-5.4 4.8-.1 4.9-.1 7.6 4.9 3.9 7 4.6 9.5 2.4 9.5-1.4 0-1.5.6-.9 3.2 1.5 6.8 1.6 8.5.3 5.1-1.7-4.2-3-5.4-4.7-4.4-1.1.7-1.2 1.7-.2 5.4.6 2.5 1.1 5.6 1 6.9-.1 1.3-.6.3-1.1-2.2-1.1-5-2.4-7-4.5-7-1.1 0-1.2 1.3-.7 6.5.6 6.2.6 6.5-1.5 6.5-1.7 0-2.1-.6-2.1-3.4 0-4.8-.9-6.6-3.2-6.6-1.8 0-2 .6-1.6 5.7.4 6.8-1.6 8.6-2.7 2.4-.8-4.7-3.4-8.4-5.2-7.3-.8.5-.9 1.9 0 5.5.7 3.3.7 5.1 0 5.8-.7.7-1.3-.3-1.7-3.4-.7-4.7-2.7-7.4-4.6-6.2-.6.4-.8 2.7-.4 6.1.6 4.4.4 5.4-.8 5.4-1 0-1.8-1.7-2.4-5.3-.7-4.3-1.3-5.3-3.1-5.5-2.2-.3-2.3-.1-1.6 5.7.4 4.3.2 6.1-.6 6.1-.6 0-1.1-1.1-1.1-2.4 0-3.1-2-8.6-3.1-8.6-.5 0-1.7.4-2.7.9-.9.5-2.5 1.2-3.6 1.5-1.3.4-1.7 1.2-1.3 2.7.6 2.4-.1 4.9-1.4 4.9-.5 0-.9-1.6-.9-3.5 0-3.1-.3-3.5-2.5-3.5H0v36l7.2-.1c4 0 13.4.4 20.8.9s17.3.8 22 .6c4.7-.1 18.6-.6 31-.9 12.4-.3 24.8-.6 27.5-.8 2.8-.1 6.4.1 8 .6 1.7.5 21.5 1.1 44 1.2 22.6.2 46.9.4 54 .5 35.5.4 48.5.1 48.5-1.5 0-1 1-1.5 2.9-1.5 2.3 0 3 .5 3.6 2.7.3 1.6 1.2 3.5 2 4.3.7.8 1.8 3.2 2.4 5.2.7 2 3 5.3 5.2 7.2 3.5 3.2 4.5 3.6 9.5 3.6 3.1 0 7.1-.7 9-1.6 2.8-1.3 3.9-1.4 6.3-.4 2.4.9 4.1.9 9.1-.4 3.4-.9 8-1.6 10.3-1.6 3.7 0 18-4.2 27.5-8.1 2.8-1.2 3.6-1.1 6.5.3 6.2 3.2 13.5 4 21.7 2.4 7.4-1.4 9.1-2 9.6-2.8.4-.5 1.4.4 2.4 2 1.5 2.4 2.7 3 7.1 3.6 5.4.8 18.9.8 30.9.1 6.1-.4 26.3-.7 37.7-.6 5.1.1 5.2.1 5.9 3.6.7 4 1.5 4.8 6.7 6.6 2 .7 3.7 1.7 3.7 2.1 0 .4-21 .4-46.7 0-25.8-.4-100.6-.6-166.3-.5-140 .3-241.7.3-242.8.2-.4-.1-6.7-.1-13.9 0L0 667v41l5.8.2c3.1 0 6.4.1 7.2 0 2.8-.3 50.5-.1 67.5.3 9.4.2 72.8.6 141 .9 68.2.3 149.4.8 180.5 1.1 61.9.6 71.3.7 87.3.6l10.7-.1v-79.6l-7.1-12c-3.9-6.5-8.9-13.8-11.1-16.1-4-4-4.1-4.5-3.9-9.8.4-10.6-4.2-28-9.1-33.9-2.3-2.9-3.6-3.6-6.4-3.6-1.9 0-3.4-.5-3.4-1.1 0-.6.9-.8 2-.4 3.1 1 2.4-.2-1.8-3-3.9-2.5-3.9-2.5-13.8-1.4-5.4.7-11.2 1.8-12.7 2.6-2.3 1.1-3.9 1.2-8.3.3-6.2-1.3-9-.7-9.9 2.1-.7 2.1-9.2 6.9-12.3 6.9-2.4 0-5.2 3-5.2 5.6 0 1.1.9 3.7 2 5.9 2.4 4.7 2.4 4.5.3 4.5-1 0-2.8-1.6-4.1-3.6-2.4-3.7-2.8-3.8-8.9-1.9-1.8.6-2.5 0-4.1-3.2-2.4-4.5-3.3-5.1-18.1-12-6.3-2.9-12.4-6.2-13.6-7.3-3.5-3.3-9.6-6-13.6-6-2 0-4.2-.7-4.9-1.5-.7-.8-2.8-1.5-4.7-1.5-3.9 0-3.9 1.1.3-12.2 2.8-9 3-13.4.8-22.8-1.7-7.7-2.4-8.6-5.3-7.1-1.6.9-2 .7-2.5-1.5-.4-1.5-.6-2.8-.4-2.9.2-.2 34.3-.5 75.8-.9 41.5-.3 81.9-.6 89.8-.7l14.2-.2V58.3l-9.7-.6c-18.9-1.1-70.3-.9-70.3.3 0 .6.6 1.3 1.3 1.6.7.2 17.1.6 36.4.7 28 .2 35.3.5 36.7 1.6 1.5 1.3 1.6 16.9 1.4 214.1-.2 117.1-.6 213.1-.9 213.4-.3.3-40.2.7-88.6.8l-88.1.3-1.8-3c-1.1-1.6-2.4-3.8-3.1-4.8-1.5-2.7-3.3-3.7-6.5-3.7-3.8 0-5.8 1-5.8 2.9-.1 3-4.5 7.2-8.6 8.1-4.7 1.1-38.1 1.3-38.8.2-.2-.4-.7-19.5-1-42.5-.3-22.9-.8-46.3-1.1-52-.2-5.6-.7-31.3-1-57.1-.4-25.7-.8-47.3-1-48-.8-2.6-1.7-65.3-2-144.7l-.4-84.6 13.7-.6c7.5-.3 38-.5 67.7-.6 84.2 0 89.4-.1 90.1-1.2.3-.6.4-1.2.2-1.5-.5-.4-171.6-1.1-174.1-.6zm66.8 428.9c3.3 8.2 5.5 16.5 5.5 20.9 0 3.5.5 5.8 1.6 6.8 2.2 2.2 3.4 1.1 3.4-3 0-2 .6-4.5 1.2-5.7 1.1-1.9 1.4-1.1 1.9 6.3.3 4.7.2 10.1-.2 12-1.1 5.1-4.6 14.6-6.6 18-1.6 2.8-2.1 3-8.3 3.1-3.9 0-9 .9-13 2.2-6.3 2.2-6.5 2.3-6.5 5.7 0 1.9-.4 7.2-.9 11.8-.7 7-1.1 8.1-2.3 7-1.9-1.5-3.3.4-2.6 3.6.4 2 .4 2-1.5-.3-3-3.7-4.3-1.9-3.8 5.5.5 7.7-.9 8.6-1.9 1.1-.4-2.8-1.4-6.3-2.2-7.6-1.3-2-1.7-2.1-2.9-.9-1.1 1-1.2 2.2-.4 4.8.6 1.9.9 5.7.9 8.5-.1 2.7-.3 4.1-.5 3-2.7-13.5-4.2-17.5-6.5-17.5-.6 0-1.9-1-2.9-2.3-1.4-1.7-2.1-1.9-3-1-1 .9-.8 2 .8 5 2.4 4.5 3.8 8.6 4.6 13 .5 2.8.3 3.3-1.4 3.3-1.5 0-2-.7-2-2.9 0-3.3-4.1-13.5-7.8-19.5-3.2-5.1-5.4-10.6-4.4-10.6.4 0 1.7.7 2.8 1.5 1 .8 3.2 1.5 4.7 1.5 2.1 0 3.3.9 4.8 3.5 2.4 4 3.4 4.3 4.9 1.5.9-1.7.5-2.5-2.3-5.4-1.9-1.9-4.8-3.7-6.5-4.1-3.8-.8-5.7-2.8-4-4.2 2.7-2 22.3-7.5 23.3-6.5.9 1 18.9 1 20.1.1 1.3-1 1.1-3.9-.9-13.9-1.8-9.1-3.2-26.5-1.8-23.4.5 1.2 1.2 4.3 1.6 7 1.3 8.8 5.5 12.4 5.5 4.6 0-3.3.1-3.5 1.4-1.6 2.8 3.7 3.6.6 2.5-9.4-.6-5.1-.9-10.5-.7-12 .5-4.1 2.8 6.6 2.8 13.2 0 6.2 2 9 4.6 6.4 1.3-1.3 1.4-2.7.3-10.4-.7-4.9-2-10.5-3-12.5-1.7-3.4-1.6-7.9.1-7.9.4 0 1.1.8 1.5 1.7zm-7.8 2.5c-.3.7-.5.2-.5-1.2s.2-1.9.5-1.3c.2.7.2 1.9 0 2.5zm-3 18.5c-.3 1-.5.2-.5-1.7s.2-2.7.5-1.8c.2 1 .2 2.6 0 3.5zm-13 15.7c-.3 9.3-2.3 15.3-5.5 16.4-1.7.5-1.5-2 .8-8 1.1-2.9 2-7 2-9 0-3.6 1.5-8.8 2.5-8.8.2 0 .3 4.2.2 9.4zm21.1 26.7c-3.4 2-2.1 3.9 2.6 3.9 2.5 0 4.8.5 5.1 1 .4.7-.2.9-1.9.4-2.9-.7-4.7 1.9-2.8 3.8.8.8.8 1.5.1 2.4-1.6 1.9-.2 3.4 3.4 3.5 2.2.1 2.5.3 1 .6-1.2.2-2.7 1.1-3.3 1.8-1 1.2-.7 1.7 1.5 2.5 1.4.5 3.1 1 3.6 1s.9.5.9 1.1c0 .6-.9.9-2 .6-1-.3-2.4.1-3 .8-1.1 1.4-.8 1.8 3.4 4 1.8 1 2 3.3.2 2.7-1-.3-3.6 1.7-3.6 2.9 0 .5 1.1 1.1 2.5 1.5 3 .7 3.1 1.5.5 3.2-1.1.7-2 1.7-2 2.2 0 .6.9 1 2 1 2.2 0 2.7 1.9.9 3.7-.7.7 0 2.1 2.6 4.6 3.4 3.3 3.5 3.6 1.6 4.2-2.5.8-2.7 2.3-.4 4 .9.7 1.3 1.7 1 2.2-.8 1.2-7.9 3-14.5 3.6-4.9.5-5.7 1-4.9 3.1.7 1.7 4 1.4 15.7-1.5 8.7-2.1 10-1.5 9.8 4.2-.1 2.1.5 4.5 1.2 5.4 1.2 1.4 1 1.9-1.5 3.9-2.4 1.9-2.7 2.8-2.2 5.4.5 2.2.3 3.2-.6 3.2-1.8 0-9.3-5.2-14.2-9.9-4.2-4-6.8-5-7.9-3.2-.8 1.2 10.9 11.8 15.2 13.9 1.7.9 3.2 1.9 3.2 2.3 0 .3-2.3 1.6-5.2 2.8l-5.1 2.1-2.3-2.1c-1.3-1.2-3.1-4.4-4.1-7.1-1-2.8-2.9-5.9-4.2-6.9-2.4-1.9-2.4-1.9-4.8.3-2.2 2-2.4 3-2.1 9.1.2 6.2 0 7.1-2.1 8.8-2.1 1.7-8.1 2.7-8.1 1.3 0-.3 1.5-2.5 3.4-5 3-4 5.4-9.9 4.4-10.9-.1-.2-1.5-.6-3-1-2.4-.6-2.8-.3-5.3 5.4-1.5 3.4-3.4 6.1-4.1 6.1-1.9 0-1.8-5 .1-7.6.8-1.2 1.9-5 2.4-8.5.9-5.4.8-6.6-.6-8.1-.9-1-2.2-1.8-3-1.8-.7 0-1.3-.5-1.3-1 0-.7.6-.7 1.9 0 1.6.8 2.5.3 5.5-3.2 4.4-5.1 4.8-6.4 8.2-28.8.2-1.9.9-8.9 1.4-15.5.6-6.6 1.1-13.1 1.3-14.4.2-2.9 4.9-4.9 11.2-5 3.2 0 3.6.2 2.3 1zm38.2 3.8c4.6 3.7 19.7 11.4 26.8 13.6 1.2.3 3.1 2.5 4.3 4.8 2.8 5.6 4.9 7.9 6.3 6.8 1.8-1.4 6-2.1 7.4-1.2 1 .6.8 1-1 1.4-2.1.6-2.2.7-.6 2.3 1.4 1.4 2 1.5 3.2.5 1.2-1 1.7-.8 2.6.9.9 1.6.8 2.1-.5 2.6-.8.3-1.5 1.2-1.5 2 0 1.7 2.6 1.9 3.6.3.9-1.4 11.2 16.7 12 21.1.3 1.9 1.2 4 1.9 4.6 1.8 1.4 3.1 6.4 1.6 6.4-.6 0-1.1-.7-1.1-1.5s-.9-2.4-2-3.5-2-2.9-2-4-.9-2.9-2-4-2-2.9-2-4c0-1.3-.7-2-1.9-2-1 0-3.2-1.5-4.8-3.3-4-4.6-4.9-5-7.4-3.5-1.8 1.1-2.2 1.1-2.6 0-.3-.7-2-3.3-3.9-5.8-2.4-3.1-3.4-5.5-3.4-8 0-3.1-.3-3.6-2-3.1-1.3.3-2 0-2-.8 0-1.9-2-2.9-3.2-1.7-.6.6-1.7.8-2.5.5-.9-.4-1.6.2-2 1.6-.7 2.9-3.3 2.7-3.3-.2 0-3.1-1-4-2.8-2.5-1.2 1-2.1.6-4.9-2.7-1.9-2.2-4.4-5.8-5.5-8-1.1-2.2-3-5-4.1-6.2l-2-2.3-3.4 2c-4.2 2.5-4.3 2.5-4.3-.2 0-2.3 2.6-5.8 4.4-5.8.6 0 2.7 1.3 4.6 2.9zm-16.2-1.3c3.7 1 2.5 1.9-2.5 1.7-5.9-.2-5.5-.1-4.8-1.3.7-1.1 3.9-1.3 7.3-.4zM191.1 553c6.8.5 16 1.2 20.4 1.5 4.4.3 9.5.9 11.4 1.3 3.9.9 5.3 2.9 1.9 2.8-2.6-.1-3.6 2.7-1.7 5 .8 1 1.5 1.1 2.5.4.9-.8 1.5-.7 2.2.6 1.3 2.4 4 1.1 4.4-2 .3-2.4.4-2.4 2.7 1.5l2.3 4.2-3.5-.7c-2.4-.5-3.7-.3-4.1.6-.5 1-.7 1-1.2 0-.3-.6-1.2-1.2-1.9-1.2-1.5 0-3 3.5-2.1 4.9.3.5-.2 1.2-1.1 1.5-3.1 1.2.3 2.6 6.6 2.7 6.6.1 7.7-.4 8.3-3.6.2-1.4 1.3 0 3.6 4.8 1.7 3.7 3.2 7.6 3.1 8.5 0 1.2-.3 1.1-.9-.6-.5-1.2-1.6-2.2-2.5-2.2-.9 0-2 1-2.5 2.2l-.9 2.3v-2.2c-.1-1.2-.6-2.5-1.1-2.8-1.5-.9-4 1.4-4 3.6 0 2.7-2.8 2.4-3.2-.4-.4-2.8-2.9-2.8-4.4 0l-1.1 2.3-1.1-2.5c-1.5-3.3-4-3.2-4.4.2-.4 3.7-2.1 3.9-3.5.3-.6-1.6-1.8-3-2.7-3-1.7 0-1.9.8-1.7 5 .1 2.3 0 2.2-1.3-.8-.8-1.7-2.2-3.2-3.1-3.2-1 0-1.5 1-1.6 3.2-.2 2.8-.2 2.9-.6.8-.6-3.4-1.8-4.4-4-3.5-1 .5-2.6.7-3.6.6-1-.1-2.1.7-2.6 2.1-1 2.3-1 2.3-1-.3-.1-1.5-.7-2.9-1.5-3.2-2.1-.8-3.8 1.7-3.4 4.9.5 4.1-1.9 4-2.6-.1-.9-4.8-3.8-4.5-4.7.5-.5 2.9-.7 3-.8.9-.1-2.9-2.4-5.4-4.1-4.4-.5.3-1 2.2-1 4.1 0 4-1.7 4.6-2.2.6-.4-3.6-3.9-3.8-4.9-.2-.7 2.4-.7 2.4-.8.2-.1-2.8-3-4.1-4.5-2.1-.9 1.3-1.5 1.3-3.6.2-3.2-1.6-6-1.7-6-.1-.1.9-.5.7-1.3-.3-1.1-1.4-6.3-2-8.7-.9-1.1.5-5.6-.2-6.4-1-.5-.6-.4-1.5.3-2.4 2-2.4.5-3.5-3.6-2.6-4.1 1-5.3.6-5.3-1.6 0-4.1 7.3-5.2 8.3-1.2.5 1.8 1.1 1.9 5.4 1.4 2.6-.3 10.2-.8 16.8-1.1 6.6-.3 17.4-1 24-1.6 6.6-.5 15.8-1.1 20.5-1.3 10.7-.5 10-.4 10-1.6 0-.6-.7-1-1.5-1-.9 0-1.5-.9-1.5-2.4 0-4-1.9-4-3.6-.1-1.6 3.9-3.6 4.3-3.9.7-.1-1.2-.5-2.5-.8-2.8-1-1-3.7 1.6-3.7 3.5 0 1.2-.5 1-1.9-.8-1.9-2.5-4.1-2.2-4.2.7 0 1.1-.4.9-1-.8l-1-2.5-2.5 3c-1.6 2.1-2.4 2.5-2.4 1.4 0-.9-.6-2.2-1.4-2.8-1.2-1-1.8-.6-3.3 2.1-1.6 3.1-1.8 3.2-2.1 1-.2-1.3-1-2.6-1.9-2.9-1.7-.7-3.4 1.4-2.6 3.4.3.8-.2 1.3-1.6 1.3-1.4 0-2.3-.8-2.7-2.5-.7-2.8-2.2-3.3-3.1-.9-.5 1.5-.7 1.5-1.5 0-1.3-2.2-2.5-2-3.4.6l-.7 2.3-.9-2.4c-.9-2.7-2.7-1.8-3.2 1.5-.2 1-.8 2-1.4 2.2-.6.2-.8-.5-.5-1.7.7-2.8-2.2-2.8-3.7-.1-.6 1.2-2.1 2-3.5 2-2.2 0-2.4-.3-1.8-3 .4-2.3.2-3-1-3-.8 0-2.1 1.3-2.9 3-1.4 3.2-2.8 4-2.8 1.5 0-.9-1.1-2.1-2.5-2.7-2-.9-2.8-.8-4.3.5-1.7 1.5-1.9 1.5-3.5-1.2-2.7-4.6-2.3-5.1 4.7-5.1 3.6 0 6.8-.5 7.1-1 .4-.6 1.1-.8 1.6-.4.6.3 1.8-.1 2.8-1 1.7-1.5 1.9-1.5 2.4-.1.8 1.8 3.3 2 4 .2.8-2.1-1.1-5.9-2.5-5.1-.7.5-2.2.8-3.3.9-1.2 0-2 .6-1.9 1.6.1 1.9-4.4 1.8-5.6-.2-.5-.7-1.5-.9-2.6-.4-1.1.4-2.8.9-3.9 1-1.1.1-3.6.6-5.5.9-2.9.6-3.2.5-1.7-.4 1.3-.8 1.7-1.9 1.3-3.4-.5-2.2-.1-2.3 8.7-3.4 13.6-1.7 22.3-1.8 24.2-.2 1.4 1.2 2.2 1.2 4.8.1 2.7-1.1 7-2 14.3-3 .6 0 6.7.3 13.5.9zm259.7-.4c3 .9 6 6.3 4 7.5-1 .6-.6 1.5 1.8 3.6 3.8 3.5 5.5 7.3 4.2 9.6-1.6 3-3.8 2.1-3.1-1.3.3-2 .1-3-.6-3-.8 0-1-.8-.6-2 .4-1.4.1-2.2-1-2.6-2.4-.9-3.1.4-1.6 2.9 1.3 2 1.3 2.1-.3.8-1.4-1.2-1.9-1.1-3.4.3-1 .9-2.6 1.6-3.6 1.6-.9 0-1.9.7-2.2 1.5-.5 1.3-1 1.2-3.4-.5-2.9-2-4-1.8-4 1 0 1.3-.7 1.7-2.9 1.4-4-.5-6 2-3.2 3.8 3 1.8 2.6 3.8-.7 3.8-1.5 0-3.3.5-4 1.2-.7.7-4.3 1.3-8 1.5-3.7.1-6.8.2-7 .2-1.2.3 5.8 5.9 8.1 6.4 4.5 1.2 3.2 3.3-2.8 4.4-4.3.8-5.8.7-6.6-.4-.6-.7-1.8-1.3-2.5-1.3-1.4 0-5.9-7.8-5.1-8.7.3-.2 1.5.1 2.7.7 1.8 1 2.5.9 3.7-.3 1.3-1.3 1.1-2.1-1.9-6.8-1.9-3-4.2-6-5.1-6.8-3.2-2.6-1-7.9 2.7-6.5 1 .4 1.8 0 2.2-1 .3-.9 1.4-1.6 2.3-1.6.9 0 2.8-.7 4.3-1.4 2.6-1.4 2.9-1.3 3.8.5 1.4 2.4 3 2.5 3 0 0-2.1-2.3-4.5-3.3-3.4-.4.3-.7.2-.7-.4 0-3 6.4-3.4 13.1-.8.9.3 2.2-.1 2.9-1 1.6-1.9 4-2 4 0 0 .8.9 1.5 2.1 1.5 1.3 0 2.5 1.1 3.5 3.5 1.5 3.7 3.1 4.5 4.1 1.9.4-1-.8-2.9-3.2-5.4l-3.8-3.9 3.9-.4c2.2-.2 4.4-.4 4.9-.5.6-.1 2 .1 3.3.4zM81 557.5c.7.8 1.5 1.3 1.9 1.1.3-.2 1.7.2 3.1 1l2.5 1.3-2.7.1c-1.6 0-2.8.5-2.8 1.1 0 .7-.8 1.8-1.7 2.4-1.7 1.2-1.7 1.4.1 3.4 1.6 1.8 1.7 2.1.3 2.1-2.7 0-3.2 2.2-.9 4.1 2.1 1.6 2.1 1.7.2 2.2-2.6.7-1.7 3.1 1.6 4.6 2.4 1.1 2.5 1.4 1.9 6.4-.4 3-1.5 6-2.6 7.2-1.6 1.7-1.9 1.7-1.9.3 0-.9-.3-2.3-.6-3.2-.4-1.1-.1-1.6 1-1.6.9 0 1.6-.8 1.6-2 0-1.5-.7-2-2.9-2-2.4 0-3-.5-3.4-2.9-.4-1.6-2-5.2-3.7-7.9-1.6-2.7-3-5.7-3-6.6 0-1 1.7-3.9 3.8-6.4 5.4-6.8 6.1-7.2 8.2-4.7zm265.8 4c1.7 3.8 1.4 4.3-.8 1.5-2.1-2.7-2.5-4-1.2-4 .5 0 1.4 1.1 2 2.5zm118.6-.3c1.8 2.5 2.1 6.4.6 7.3-.6.4-1-.6-1-2.1s-1-3.8-2.2-5.1c-1.8-1.9-1.9-2.3-.5-2.3.9 0 2.3 1 3.1 2.2zm-223.9-.2c-.3.5-1 1-1.6 1-.5 0-.9-.5-.9-1 0-.6.7-1 1.6-1 .8 0 1.2.4.9 1zm-123.3 3c.5 3.6-.4 4-8.3 4-5.5 0-5.9-.2-5.9-2.3 0-2 .7-2.5 5.3-3.4 8.3-1.6 8.4-1.6 8.9 1.7zm215 .7c-.4 2.6 1.4 3.9 3.3 2.3 1.2-1 1.5-.9 1.5.9 0 1.4.6 2.1 1.9 2.1 1 0 2.1.7 2.5 1.5.6 1.7 3.6 2 3.6.4 0-1.7 2.9.9 4.5 4.1.8 1.5 1.2 3.6 1 4.6-.2 1-.7 3.7-1.1 5.9l-.8 4-.5-3.3c-.8-4.4-2.5-4.1-3.2.5-.4 2.2-.7 2.8-.8 1.5-.1-3.1-2-6.4-3.2-5.7-.5.4-.9 3.7-.9 7.5s-.3 7.1-.7 7.3c-.5.3-.8-1.9-.8-4.8 0-5.8-.6-7.1-3-6.2-1.1.5-1.5 2.2-1.5 7.3 0 8.8-1.1 7.6-1.6-1.7-.4-8.1-1.7-10.5-4-7.5-1.4 1.9-1.4 1.9-2.8.1-2-2.7-3.7-21.1-2.1-22.6.2-.3 2.4-.5 4.7-.5 3.8.1 4.3.3 4 2.3zM97 566c0 1.1-.7 2-1.5 2-1.8 0-1.9-1.2-.3-2.8 1.6-1.6 1.8-1.5 1.8.8zm150.1.5c0 1.3-4.1 1.9-4.1.7 0-1.1 2-2.2 3.3-1.8.5.1.8.6.8 1.1zm-129.5 5.7c.4 1.3.2 2.4-.5 2.6-.6.2-1.1 1.6-1.1 3.1 0 2.5-.3 2.8-2.6 2.3-2.4-.4-2.5-.3-1.9 3.1.4 1.9.2 4.3-.3 5.3-.9 1.6-1.1 1.4-2-1.6-.6-2.5-1.4-3.5-2.7-3.3-1.1.1-2.4-.6-3.1-1.4-.6-1-1.8-1.4-2.8-1-2.1.8-2-.1.3-5.6 1.9-4.4 1.9-4.4 7.2-4.6 2.8 0 5.4-.3 5.7-.6 1.2-1.2 3.1-.3 3.8 1.7zm7.4.5c0 1.3-.3 1.3-1.5.3-.8-.7-1.2-1.6-.9-2.1.8-1.3 2.4-.1 2.4 1.8zm-30.6 2c-.4 1.6-1.5 4.6-2.5 6.8l-1.9 4v-4.2c0-5.3 1.5-9.3 3.5-9.3 1.2 0 1.4.6.9 2.7zm361.5 1c-.1 1 .2 3.4.5 5.3.5 2.9.1 4.1-2.4 7-3.1 3.5-4.4 2.2-1.5-1.6.8-1.1 1.4-4.1 1.5-7.2 0-2.8.4-5.2.9-5.2.6 0 1 .8 1 1.7zM72.4 585c.7 3.4.6 3.3-2.2-1.5-1.5-2.8-2.6-5.6-2.4-6.3.7-1.9 3.8 3.4 4.6 7.8zm50.5-4.1c-1.6.5-3.3-1.5-2.4-3 .6-.9 1.2-.7 2.2.7.9 1.3 1 2 .2 2.3zm323.2 3.4c-1.6 1.6-2.6 0-1-1.9.9-1.1 1.5-1.2 1.7-.4.2.6-.1 1.7-.7 2.3zm-190.2-1.4c1.5 1 .7 3.1-1.2 3.1-2.1 0-4-1.7-3.3-2.9.9-1.3 2.6-1.4 4.5-.2zm111.1 2.5c-.8.8-3.2 1.8-5.2 2.1-3 .6-3.8.4-3.8-.8 0-1.9 1.5-2.5 6.5-2.6 3.4-.1 3.7.1 2.5 1.3zm73.3.2c-.3 1.5-1.8 1.5-3.8 0-1.9-1.4-1.8-1.5 1-1.2 1.7.2 2.9.7 2.8 1.2zm-64.2 1.3c2.6 2.1 2.1 3.6-.8 2.7-2.5-.8-4.9-4.6-2.9-4.6.7 0 2.4.9 3.7 1.9zm-46.8 5.3c.3 2.1.2 3.8-.4 3.8-.5 0-.9-1.9-.9-4.2 0-4.9.5-4.7 1.3.4zm129.8.1c-1.7 1.7-2.4.1-1-2.5 1.2-2.1 1.4-2.1 1.7-.4.2 1-.1 2.3-.7 2.9zM118.6 594c-.1 5.5-1.6 7-1.6 1.6 0-3.1.8-6.6 1.5-6.6.1 0 .2 2.2.1 5zm139.4-2.4c0 .8-.5 1.2-1 .9-.6-.4-.8-1.1-.5-1.6.9-1.4 1.5-1.1 1.5.7zM91.8 604c0 3.1-.2 2.9-1.9-2.5-1-3.3-1.8-7.1-1.8-8.5.1-3.9 3.7 6.8 3.7 11zm141.7-12c.3.5-.1 1-.9 1-.9 0-1.6-.5-1.6-1 0-.6.4-1 .9-1 .6 0 1.3.4 1.6 1zm13.6.2c1.7 1 2.3 1 2.6 0 .6-1.6 2.3-1.6 2.3.1 0 .7-1 1.7-2.2 2.2-1.6.7-2.4 2-2.6 4.1-.2 2.2-.9 3.4-2.3 3.7-1.6.4-1.8 1.1-1.3 3.1.8 3.3-1.7 3.6-3.8.4-1.8-2.7-4.8-1.8-4.8 1.3 0 1.2-.3 1.9-.7 1.5-.4-.4-.8-1.5-.8-2.4 0-1.1-.8-1.7-2.5-1.7-2.1 0-2.5.5-2.5 2.7.1 3.5-1.1 3.6-1.9.3-.5-1.9-1.3-2.5-3.2-2.5-2.3 0-2.5.3-2 2.5.5 1.8.2 2.5-.8 2.5-.8 0-1.6-1-1.8-2.3-.2-1.4-1-2.2-2.3-2.2-1.3 0-2.1.8-2.3 2.2-.2 1.3-.7 2.3-1.2 2.3s-1-1-1.2-2.3c-.2-1.4-1.1-2.3-2.5-2.5-1.9-.3-2.3.1-2.3 2.2 0 2.3-.4 2.6-3.3 2.6-2.4 0-3.5-.6-4.2-2.3-1.5-3.3-4.9-2.9-5.3.6-.3 2.2-.8 2.8-2.5 2.5-1.3-.2-2.3-1.3-2.7-2.8-.9-3.7-4.6-3.5-4.3.2.1 2.1-.3 2.8-1.7 2.8-1.3 0-2-.8-2.2-2.8-.4-3.8-4.5-4.4-5.4-.8-.8 3.2-2.6 3.3-3.9.3-.6-1.2-1.7-2.2-2.5-2.2s-1.6 1-1.8 2.2c-.2 1.5-1 2.3-2.2 2.3-1.2 0-2-.8-2.2-2.3-.2-1.4-1-2.2-2.3-2.2-1.3 0-2.1.8-2.3 2.2-.3 1.8-1 2.3-3.3 2.3-2.5 0-2.9-.3-2.4-1.9.6-2-1.8-4.6-3.5-3.6-.5.3-1 1.7-1 2.9 0 1.3-.7 2.9-1.5 3.6-1.6 1.3-2 .7-2.7-3.5-.5-3.1-3.2-2.3-4.3 1.2-.5 1.8-1.3 3.3-1.8 3.3-.4 0-.5-.9-.2-2 .9-2.8-1.3-5.4-3.1-3.9-.8.6-1.4 1.7-1.4 2.3 0 .7-.7 2.1-1.6 3.2-1.6 1.9-1.6 1.7 0-3.4.6-1.8.3-2.2-1.2-2.2-1.4 0-2.1-.8-2.4-3-.5-3.3 1.1-4 3.3-1.4 1.2 1.4 3.2 1.5 16.9.9 8.5-.4 15.8-.9 16.1-1 1.3-.9 28.1-2.7 59.4-4.1 16.3-.7 19.4-1.4 20.2-4.4.6-2.4.7-2.4 3.4-.8zm189.5-.3c-.3.4-1.8 1.1-3.3 1.4-4 .8-10.1 6.3-11.3 10l-1 3.2.5-3.5c.8-5.1 3.5-8.1 9.1-10.1 5.7-2 6.7-2.2 6-1zM219 593c0 .5-.7 1-1.6 1-.8 0-1.2-.5-.9-1 .3-.6 1-1 1.6-1 .5 0 .9.4.9 1zm-143.6 6.1c.2 2.4.6 5.4 1 6.5.4 1.4.1 2.6-.9 3.4-2 1.7-3.2.5-1.5-1.5 1-1.2 1-1.9.2-2.7-.7-.7-1.2-3.7-1.2-6.7 0-6.6 2-5.8 2.4 1zm277.6-4.5c0 .2-.7.4-1.5.4s-1.5-.4-1.5-1c0-.5.7-.7 1.5-.4.8.4 1.5.8 1.5 1zm85 .4c0 .5-.9 1-1.9 1-1.8 0-8.1 6.2-8.1 8 0 1.8 2.5 6.5 3.8 7.4 1.2.7 1.2 1 .1 1.6-.8.5-1.8.2-2.5-.8-1.7-2.3-3.9-.2-3.1 3 1 3.6.9 4.2-.2 4.6-.6.2-1.1-.4-1.1-1.2 0-.9-.5-2.4-1.1-3.5-1.8-2.8-.3-8.3 3.7-13.5 4.1-5.4 10.4-9.4 10.4-6.6zm-79 1.5c0 .8 1.1 1.7 2.5 2 1.4.3 3.7.7 5.1 1 1.6.4 3.3 0 4.3-.9 1.4-1.3 2.3-1.2 7.4 1 4 1.7 6.2 2.2 7.1 1.5.7-.6 1.7-.6 2.6-.1.9.5 1.9.5 2.6-.1 2.8-2.3 12.4 9.9 12.3 15.6 0 1.3-.5.7-1.2-1.4-1.4-3.9-4.1-6.1-5.7-4.5-.7.7-.3 2.7 1 6.4 2.1 5.8 2.4 10.2 1 13.5-.6 1.5-.9.7-.9-3.1-.1-3.5-.6-5.4-1.5-5.7-2.1-.8-3.5 1.4-4.2 6.7-.4 2.5-1.1 4.6-1.5 4.6-.5 0-.9-.5-.9-1 0-1.4-3-1.2-3.5.2-.2.7-.9 3.3-1.6 5.8-1.1 4-1.3 4.2-1.9 2-.9-3.9-4.2-3.3-5.3 1-.5 1.9-1.2 2.9-1.4 2.2-.8-2-3-1.4-5.3 1.5l-2.1 2.8.5-2.5c1.1-5.1-2.9-6.4-5.2-1.7-.9 1.9-1.1 1.7-1.1-2.1-.1-2.3.4-5.1 1.1-6.2.7-1 .8-2.3.4-2.7-.5-.4-1.1-.2-1.3.4-.3.7-1.6 1.3-2.9 1.3-2.3 0-2.4-.2-2.4-7.5 0-6 .3-7.5 1.5-7.5 2.1 0 1.9-1.7-.5-3-2.1-1.1-2.8-4-.9-4 .6 0 .9-.6.6-1.3-.2-.6-1.1-1.1-2.1-.9-1.1.2-1.6-.4-1.6-1.9 0-1.2-.7-3.1-1.6-4-1.5-1.7-1.5-2.1 1.2-5.3 3.1-3.7 5.4-4.6 5.4-2.1zm94-.6c0 1.2-7 5.7-10.3 6.5-3.8.9-3.2-1.5.6-2.5 1.5-.4 3.9-1.6 5.4-2.8 3-2.2 4.3-2.6 4.3-1.2zm2.4 4.2c-2 3.4-2.9 4-8.1 5.7-4.1 1.3-4.4-.2-.4-1.6 1.6-.6 4.4-2.6 6.2-4.5 4.1-4.1 4.8-4 2.3.4zm-197.8-1c1 1.6-2.3 4.6-3.6 3.3-.6-.6-.8-1.8-.4-2.7.7-1.9 2.9-2.2 4-.6zm88.3 3.5c-1 1.2-.8 1.9.8 3.7 4.5 5.1 7.1 18.8 3.8 20.1-.8.3-1.5 0-1.6-.7-.4-9.2-1.9-17.3-3.8-19.8s-2-3-.6-3.5c.8-.3 1.5-1.4 1.6-2.3 0-1 .2-1.2.6-.3.3.7-.1 1.9-.8 2.8zm-16.9.9c0 3.2-1.2 3.2-2.7 0-1-2.2-.9-2.5.8-2.5 1.4 0 1.9.7 1.9 2.5zm108.4 3.1c.3.9-.1 1.4-1.4 1.4-2.1 0-3.4-1.5-2.5-3 .7-1.2 3.2-.2 3.9 1.6zM248 612.1c0 2.6-.2 3-1.5 1.9-2-1.7-3.5-.4-3.6 3.3 0 3-.1 3-1.1 1-.8-1.7-1.9-2.1-5.4-2.1-2.4 0-4.4.4-4.4.8 0 .5-1.2.8-2.7.7-2.6-.2-2.7 0-2.4 4.5.1 2.9-.2 4.8-.8 4.8-.6 0-1.1-2-1.1-4.6 0-4.1-.2-4.5-2.2-4.2-1.9.2-2.4 1.1-2.9 4.8-.5 3.5-.6 3.8-.7 1.4-.2-3.4-2.4-6-4.2-4.9-.5.3-1 2.2-1 4.1 0 1.9-.4 3.4-1 3.4-.5 0-1-1.8-1-4.1 0-3.6-.2-4-2.2-3.7-1.9.2-2.3.9-2.3 3.5 0 1.8-.5 3.3-1 3.3-.7 0-.9-1.4-.7-3.4.3-2.3-.1-3.5-1.2-3.9-.8-.3-1.8-.2-2.1.3-.3.5-1.9.7-3.5.3-2.5-.4-3-.2-3.1 1.3 0 1.7-.1 1.7-.9-.2-.5-1.4-2.1-2.4-4.5-2.8-4.2-.8-4.6-.6-6.2 3.7-1.2 3.2-1.2 3.2-.6-.9.9-7.1-3.9-7.2-5.3-.1l-.7 4.2-.6-4c-.5-3.2-1.1-4.1-2.8-4.3-2.1-.3-2.3.1-2.3 3.8 0 2.9-.4 4-1.2 3.7-.9-.2-1.2-1.8-1-4.5.3-3.6.1-4.2-1.6-4.2-2.1 0-3.2 1.8-3.2 5.2 0 3.2-.6 1.8-1.3-2.8l-.7-4.1 33.8-.1c33.1-.1 47.4-1 49.5-3.1 1.6-1.6 1.7-1.4 1.7 2zm94.5-1.4c2 5.4 2.6 23.6.7 25.5-.6.6-1.5.8-1.9.5-.9-.9-1-27.7-.2-27.7.4 0 1 .8 1.4 1.7zm115 3c.8 4.2-.7 6.3-4.4 6.3-1.5 0-3.2.5-3.9 1.2-.7.7-1.2.8-1.2.2 0-.6 1.6-2.5 3.5-4.4 3.4-3.3 4.5-6 2.5-6-.5 0-1-.4-1-.9s.9-.7 1.9-.4c1.2.3 2.1 1.7 2.6 4zm19-.7c1.3 0 2.7.5 3.1 1.2.4.7.3.8-.5.4-.6-.4-2.3 0-3.7.8-2.6 1.8-2.7 1.8-3.9-3.9-.6-3-.6-3 1-.8.9 1.3 2.7 2.3 4 2.3zM335 611.4c0 .2.3 1.2.6 2.1.6 1.4.3 1.4-2 .4-3.1-1.4-3.4-2.9-.6-2.9 1.1 0 2 .2 2 .4zm-231.2 1.3c-1 .2-2.6.2-3.5 0-1-.3-.2-.5 1.7-.5s2.7.2 1.8.5zm333.3 4.1c-.2 2.9.3 4.3 2.3 6.1 1.4 1.4 2.6 3.1 2.6 4 0 1.2-.6.9-2.5-.9-2.8-2.9-5.9-12.7-4.1-13.3 1.7-.6 2 .1 1.7 4.1zm-352.7-3.2c.9.3 1.4 1 1.1 1.5-.7 1-3.5 0-3.5-1.2 0-1.1.3-1.1 2.4-.3zm29.1.4c1.9.8 1.9.9-.2.9-1.2.1-2.5-.4-2.8-.9-.7-1.2.2-1.2 3 0zm46.8.1c-1.3 1.3-8.3 1.9-8.3.7 0-.6 1.8-1 8-1.6 1-.2 1.1.1.3.9zm-13.3 2.4c0 .8-.4 1.5-1 1.5-.5 0-1-.7-1-1.5s.5-1.5 1-1.5c.6 0 1 .7 1 1.5zm-6.6 2.1c.8 2.9-.5 5-2.3 4-.6-.4-1.1-1.6-1.1-2.6s-.5-2.2-1-2.5c-1.7-1-4.1 1.6-3.5 3.6.6 1.6.1 1.9-3.2 1.9-3.4-.1-3.6-.2-2-1.4 2.3-1.8 2.2-3-.3-2.3-1.1.3-2 .1-2-.3 0-.5 1.7-1.2 3.8-1.5 2-.4 4.2-.8 4.7-1 .6-.2 2.2-.4 3.6-.4 2.1-.1 2.8.5 3.3 2.5zm115.9 0c.3 1.7 0 2.8-1 3.1-1.9.7-3.2-1.3-2.6-3.8.8-2.8 3-2.3 3.6.7zm79.9 1.4c-.3 3.3-.7 3.9-1.8 2.9-1.9-1.6-1.8-4.6.4-5.8.9-.6 1.7-1.1 1.7-1.1s-.1 1.8-.3 4zm-281.1-.7c-.1 1.2-1.5.9-1.9-.4-.3-.6.1-1 .8-.8.6.3 1.1.8 1.1 1.2zm103.9 1.8c0 2.1-1.6 2.6-2.3.6-.6-1.7.3-3.8 1.4-3.1.5.3.9 1.4.9 2.5zm-92.3.1c-.3.8-.6.5-.6-.6-.1-1.1.2-1.7.5-1.3.3.3.4 1.2.1 1.9zm85 0c-.3.8-.6.5-.6-.6-.1-1.1.2-1.7.5-1.3.3.3.4 1.2.1 1.9zm85.5 3.3c-.6 3.4-1.2 3.2-1.2-.6 0-1.6.4-2.8.9-2.5.4.3.6 1.7.3 3.1zm-47.5-.3c-.3.8-.6.5-.6-.6-.1-1.1.2-1.7.5-1.3.3.3.4 1.2.1 1.9zm263.9 4.3c-.1.5-1.4 1.1-2.9 1.3-2.8.3-5.3-2.8-4.3-5.4.4-1.1 1.2-.9 4 .9 1.9 1.2 3.4 2.6 3.2 3.2zM63 625c0 .5-.4 1-1 1-.5 0-1-.5-1-1 0-.6.5-1 1-1 .6 0 1 .4 1 1zm14 0c0 .5-.4 1-.9 1-.6 0-1.3-.5-1.6-1-.3-.6.1-1 .9-1 .9 0 1.6.4 1.6 1zm388.5 1c.3.5-.3 1-1.4 1-1.2 0-2.1-.5-2.1-1 0-.6.6-1 1.4-1 .8 0 1.8.4 2.1 1zm-51.9 5.7c-.7.7-2.6-.7-2.6-1.9 0-.6.6-.6 1.5.2.9.7 1.3 1.5 1.1 1.7zm9.7-1.2c-.4 1.5-3.6 1.2-4.1-.3-.3-.9.3-1.3 1.9-1 1.3.1 2.3.7 2.2 1.3zm7.7-.5c0 .5-.4 1-.9 1-.6 0-1.3-.5-1.6-1-.3-.6.1-1 .9-1 .9 0 1.6.4 1.6 1zm55.8 4c.6 1.6.9 3 .7 3-.5 0-3.5-5.6-3.5-6.5 0-1.5 1.9.8 2.8 3.5zm-476.7-1.6l2.4-.5-2.4 1.1c-2.7 1.2-5.1.7-5.1-1.1 0-.8.4-.8 1.3-.1.7.6 2.4.9 3.8.6zm25.8.6c-3.9 1.1-15.1 1.2-14.4 0 .3-.5 4.3-1 8.8-.9 5.6 0 7.4.3 5.6.9zm92.1.6c0 .2-2.6.3-5.7.3-4.4-.1-5.1-.3-2.8-.8 2.9-.6 8.5-.3 8.5.5zm18.8.1c-3.2.2-8.4.2-11.5 0-3.2-.2-.6-.3 5.7-.3s8.9.1 5.8.3zm324.2.3c0 .5-.9 1-2.1 1-1.1 0-1.7-.5-1.4-1 .3-.6 1.3-1 2.1-1s1.4.4 1.4 1zm-37 1.5c0 .8-.4 1.5-1 1.5-.5 0-1-.7-1-1.5s.5-1.5 1-1.5c.6 0 1 .7 1 1.5zm9.5-.6c.3.5.1 1.3-.5 1.6-1.5.9-4.3-.3-3.5-1.5.8-1.3 3.2-1.3 4-.1zm17.5.1c0 .5-.9 1-1.9 1-1.1 0-2.3-.5-2.6-1-.4-.6.5-1 1.9-1s2.6.4 2.6 1zm-356.6 1.5c-.8 1.9-8.6 2.1-40.9 1-17.6-.6-4.7-1.8 23.7-2.3 15.5-.2 17.7 0 17.2 1.3zm322.1-.6c1 1.7-1.2 2.1-2.5.6-1-1.2-1-1.5.3-1.5.9 0 1.8.4 2.2.9zM35.3 637c.7 0 .5.5-.5 1-1.9 1.2-5.1.3-4.2-1.2.3-.5 1.3-.7 2.1-.4.8.3 2 .6 2.6.6zm8-.3c-.7.2-2.1.2-3 0-1-.3-.4-.5 1.2-.5 1.7 0 2.4.2 1.8.5zm6 0c-.7.2-2.1.2-3 0-1-.3-.4-.5 1.2-.5 1.7 0 2.4.2 1.8.5zm368.2.3c.3.5.1 1-.4 1-.6 0-1.1-.5-1.1-1 0-.6.2-1 .4-1 .3 0 .8.4 1.1 1zM25 638c-.8.5-2.8 1-4.5 1-2.3 0-2.7-.3-1.5-1 .8-.5 2.9-1 4.5-1 2.3 0 2.7.3 1.5 1zm143 0c0 .6-4.6.9-12.2.8l-12.3-.2 10.5-.6c5.8-.3 11.3-.7 12.3-.8.9-.1 1.7.2 1.7.8zm38 0c8 .6 6.1.7-11.7.8-13.2.1-21.4-.2-21.8-.8-.7-1.2 18.6-1.2 33.5 0zm204 0c0 .5-.2 1-.4 1-.3 0-.8-.5-1.1-1-.3-.6-.1-1 .4-1 .6 0 1.1.4 1.1 1zm-176.7 1.7c-1.3.2-3.3.2-4.5 0-1.3-.2-.3-.4 2.2-.4s3.5.2 2.3.4zm231.7.8c0 1-1 1.5-3 1.5s-3-.5-3-1.5 1-1.5 3-1.5 3 .5 3 1.5zm-20.5.5c-2.7 1.2-3.5 1.2-3.5 0 0-.6 1.2-1 2.8-.9 2.4 0 2.5.1.7.9zm8.5 0c0 .5-.2 1-.4 1-.3 0-.8-.5-1.1-1-.3-.6-.1-1 .4-1 .6 0 1.1.4 1.1 1zm-24.5 1c-.3.5-1 1-1.6 1-.5 0-.9-.5-.9-1 0-.6.7-1 1.6-1 .8 0 1.2.4.9 1zm-14.5 2.6c0 .8-.4 1.4-.9 1.4-1.1 0-2.2-2.6-1.4-3.4.9-.9 2.3.3 2.3 2zm7-2.2c0 .3-.4.8-1 1.1-.5.3-1 .1-1-.4 0-.6.5-1.1 1-1.1.6 0 1 .2 1 .4zm-15.5 1.6c.3.5.1 1-.4 1-.6 0-1.1-.5-1.1-1 0-.6.2-1 .4-1 .3 0 .8.4 1.1 1zm-7 1c.3.5.1 1-.4 1-.6 0-1.1-.5-1.1-1 0-.6.2-1 .4-1 .3 0 .8.4 1.1 1zm92.2.6c-.3.3-1.2.4-1.9.1-.8-.3-.5-.6.6-.6 1.1-.1 1.7.2 1.3.5zm-174.9 5.9c-1.4 3.1-2.3 2.5-1.4-1 .4-1.4 1.1-2.3 1.6-2 .6.3.5 1.6-.2 3zM491 649c0 1.3-2 1.3-4 0-1.2-.8-.9-1 1.3-1 1.5 0 2.7.4 2.7 1zm-197 2.5c-.7.9-1.5 1.3-1.7 1.1-.7-.7.7-2.6 1.9-2.6.6 0 .6.6-.2 1.5zm196 5.7c-.1 2.9-2.2 5.8-4.4 5.8-1 0-1.6-.8-1.6-2.5 0-1.4-.6-2.5-1.2-2.5-1.5-.1 4.1-2.8 6-2.9.6-.1 1.2.9 1.2 2.1zm4 9.8c1.1.7.5 1-2.3 1-2.3 0-3.6-.4-3.2-1 .8-1.3 3.5-1.3 5.5 0zm-159 3.8c0 .5-.3 1.2-.7 1.6-.5.4-.8 2.4-.8 4.4 0 2.1-.4 3.7-1 3.7-1.1 0-1.2-6.1-.2-8.8.7-1.7 2.7-2.4 2.7-.9zm17.5 1.2c-.3.4-.6 2.9-.7 5.4-.1 3.6-.5 4.6-1.6 4.4-1.1-.2-1.6-1.6-1.6-4.8-.1-3.8-.4-4.5-2.1-4.5-1.7 0-2 .8-2.3 4.7-.3 4.3-.5 4.8-2.8 4.8-2.1 0-2.4-.4-2.4-3.8 0-2-.5-4.4-1-5.2-.8-1.3 0-1.6 4.8-2 6.4-.6 10.4-.2 9.7 1zm-342.1.8c-.1.7-.2 2.5-.2 4.2-.3 4.3-2.8 3.8-3.5-.7-.4-2.4-.2-4 .6-4.5 1.6-1 3.2-.5 3.1 1zm5.6 2.4c0 4.9-.5 4.7-1.3-.5-.3-2-.2-3.7.4-3.7.5 0 .9 1.9.9 4.2zm5.7-2c-.3.8-.6.5-.6-.6-.1-1.1.2-1.7.5-1.3.3.3.4 1.2.1 1.9zm16.3 2.3c0 4.9-1.5 6.1-2.2 1.7-.3-1.5-.9-3.5-1.3-4.5-.5-1.3-.2-1.7 1.4-1.7 1.8 0 2.1.6 2.1 4.5zm7.5 0c0 2.2-.5 4-1.2 4.2-.9.3-1.3-.9-1.3-4.2 0-3.3.4-4.5 1.3-4.3.7.3 1.2 2.1 1.2 4.3zm7.7 0c.2 3.6 0 4.5-1.2 4.3-2.3-.5-2.5-8.8-.1-8.8.5 0 1.1 2 1.3 4.5zm7.4-2.9c-.3.9-.6 2.9-.6 4.5s-.4 2.9-1 2.9c-1.1 0-1.4-7.3-.3-8.3 1.2-1.3 2.5-.7 1.9.9zm8.4 1.6c0 3.9-1.3 6.3-2.9 5.4-1.2-.8-1.5-6.8-.4-7.9 1.7-1.8 3.3-.5 3.3 2.5zm7.1-2.3c-.8.5-1.7 2.6-2.1 4.7l-.8 3.9-.1-4.1c-.1-4.4.4-5.4 2.8-5.4 1.3 0 1.4.2.2.9zm17.6-.3c1.4.4 2 1.1 1.5 1.8-.4.6-.7 1.8-.8 2.6-.3 4.5-.5 5.1-1.4 4.5-.5-.3-1-2.2-1-4.1 0-2.7-.4-3.4-1.9-3.4-1.6 0-2 .8-2.3 3.7-.4 4.4-2.3 4.2-2.3-.2 0-2.3-.4-3-2-3-1.5 0-2.1.8-2.3 3.2-.5 4.8-1.9 4-2.4-1.2l-.3-4.5H85c3.6 0 7.5.3 8.7.6zm34.7 1.6c1.1 4.2.7 7.8-.9 7.8-1.1 0-1.5-1.1-1.5-3.9 0-4.5-1.3-5.9-3.6-4-1.1.9-1.4 2.2-.9 4.6.4 2.5.2 3.3-.9 3.3-1 0-1.6-1.3-1.8-4.3-.2-3.4-.7-4.2-2.3-4.2-1.7 0-2 .7-2 4.3 0 2.3-.4 4.2-.8 4.2-.9 0-1.4-1.3-2.1-6.3l-.5-3.7h8.3c7.8 0 8.4.1 9 2.2zm7.1-1.2c-.3.5-1.1 1-1.6 1-.6 0-.7-.5-.4-1 .3-.6 1.1-1 1.6-1 .6 0 .7.4.4 1zm26.7 4.5c-.3 4-.7 5.2-1.7 4.8-.8-.2-1.5-1.9-1.7-3.6-.2-2.4-.8-3.2-2.3-3.2-1.6 0-2 .6-1.9 3.2.3 4.8-2.4 4.3-2.8-.5-.2-2.9-.7-3.7-2.3-3.7-1.6 0-2.1.9-2.6 4l-.6 4-.2-3.6c0-2.4-.7-3.9-1.7-4.3-2.4-.9-3.4.2-3.4 4 0 2.4-.4 3.4-1.2 3.1-.7-.2-1.3-1.9-1.3-3.8s-.4-4-.8-4.7c-.7-1 1.8-1.2 12-1.1l12.8.1-.3 5.3zm13.6-4.5c-1.2.8-1.8 2.4-1.8 5 0 2.9-.4 4-1.5 4-1.2 0-1.5-.9-1.3-3.8.3-3.3 0-3.7-1.9-3.6-2.2.1-2.9-.7-1.8-1.7.2-.3 2.6-.6 5.2-.7 3.8-.2 4.4 0 3.1.8zm6.7 4.4c-.9 6-3.2 6.1-3.7.1-.3-3.8 0-4.5 1.7-4.8 2.8-.4 2.7-.4 2 4.7zm8.1-3.8c-.3.9-.6 3.1-.6 5 0 2.3-.5 3.4-1.4 3.4-1.1 0-1.5-1.3-1.4-5 0-4.3.3-5 2-5 1.4 0 1.8.5 1.4 1.6zm13.9 3.4c0 6.3-2.2 6.9-2.7.7-.2-3.4-.7-4.2-2.3-4.2-1.6 0-2.1.8-2.3 4.2-.4 5.3-2.2 5.7-2.2.5 0-2.1-.5-4.3-1.2-5-.9-.9.1-1.2 4.8-1.2h5.9v5zm20.7-3.4c-.6 1-.6 2.9-.2 4.6.5 1.5.5 3 .1 3.3-1.4.8-2.1-.7-2.1-4.2 0-2.6-.4-3.3-2-3.3s-2 .7-2 3.5c0 1.9-.4 3.5-.9 3.5s-.8-1.4-.7-3.2c.1-2.4-.4-3.3-1.8-3.6-2.3-.5-3.6 1.4-3.6 5 0 1.6-.4 2.8-.9 2.8-1 0-2.1-3.5-2.1-7.1 0-2.6 0-2.6 8.6-2.8 7.8-.2 8.5 0 7.6 1.5zm7 .9c-.7 3.7-1.9 3.9-2.4.5-.4-2.3-.1-3 1.2-3s1.6.6 1.2 2.5zm7.8-.6c-.5 1.1-1 3.3-1 5 0 2.2-.5 3.1-1.6 3.1-1.3 0-1.5-.7-1-3.1.3-1.7.6-4 .6-5 0-1.2.7-1.9 2-1.9 1.7 0 1.9.3 1 1.9zm22.9 3.1c0 4.4-.2 5-1.9 5-1.6 0-2-.7-2-3.1 0-2.6-.3-3-2.2-2.7-1.7.2-2.4 1.1-2.6 3-.2 1.6-.8 2.8-1.3 2.8-.9 0-1.1-.6-1.3-5.5-.1-2.3-.6-3-2.1-3-1.6 0-2.1.8-2.3 4.2-.2 3-.8 4.3-1.8 4.3-1.1 0-1.4-1.1-1.2-5l.3-5h18.2l.2 5zm13.3-3.8c-.7.7-1.2 2.9-1.2 5s-.4 3.8-1 3.8c-1.1 0-1.4-5.9-.4-8.4.3-.9 1.3-1.6 2.2-1.6 1.2 0 1.3.3.4 1.2zm11 0c-.7.7-1.2 2.9-1.2 5 0 3.5-.2 3.8-2.9 3.8-2.8 0-2.9-.2-3.3-5l-.3-5h4.5c3.4 0 4.1.3 3.2 1.2zm9.3 3.8c0 4.9-.1 5-3 5-3 0-3-.1-3-5s.1-5 3-5 3 .1 3 5zm24.1-3.4c-.3.9-.6 3.1-.6 5 0 2.2-.5 3.4-1.4 3.4-1.7 0-2.6-2.2-2.6-6.1 0-1.7-.5-2.9-1.3-2.9-2.4 0-3.5 2.2-3 5.6.5 3 .3 3.4-1.6 3.4-1.7 0-2.1-.6-2.1-3.4 0-3.6-2.1-6.2-4.1-5.1-.6.4-.9 2.4-.7 4.6.2 2.5-.1 3.9-.8 3.9-.7 0-1.3-2-1.6-5l-.3-5h10.4c9 0 10.2.2 9.7 1.6zm6.8.9c-.9 1.4-1.4 3.6-1.2 5 .3 1.4.1 2.8-.3 3.1-.5.3-.9-2-.9-5 0-5 .2-5.6 2-5.6 2 0 2 .1.4 2.5zm30.9 1.5c-.4 2.5-.1 4.6.7 5.5 1 1.3.9 1.5-1 1.5-1.8 0-2.1-.4-1.6-2.3.3-1.2.6-3.7.6-5.5 0-1.7.4-3.2.9-3.2s.7 1.8.4 4zm28.1-2.5c-.7 1.7-2 2-2.9.5-.3-.6-1.3-1-2.1-1-1 0-1.4 1.3-1.5 4.2l-.1 4.3-1.1-4.3c-.5-2.3-1.5-4.2-2.2-4.2-1.3 0-3.7 2.4-3.1 3.1.2.2.6 1.9.9 3.6.6 2.8.4 3.3-1.3 3.3-1.6 0-2-.7-2-3.3 0-3.8-2.2-7.3-3.8-6.3-.7.4-1.2 2.7-1.2 5.2 0 3.8-.3 4.4-2.1 4.4-1.5 0-1.9-.4-1.5-1.6.3-.9.6-3.3.6-5.5V671h12c10.2 0 11.9.2 11.4 1.5zm8.4 4.1c.2 4.8 0 5.5-1.5 5.2-1.2-.2-2.1-2-2.9-5.6l-1.2-5.2h2.7c2.5 0 2.7.3 2.9 5.6zm23.9-4.8c2.2.4 2.4.8 1.8 3.6-.4 1.7-.7 4.1-.6 5.3 0 1.4-.5 2.3-1.4 2.3-1 0-1.5-1.4-1.7-4.8-.3-3.9-.6-4.7-2.3-4.7-1.7 0-2 .6-1.8 3.5.4 6-.9 6.9-2.2 1.5-1-4.4-1.4-5-3.8-5-1.4 0-3.2-.6-3.9-1.3-1.1-1.1 0-1.3 6.1-1.1 4 .1 8.5.4 9.8.7zm-317.4 1.3c-.6.6-.9 2.6-.6 4.5.4 2.2.2 3.4-.6 3.4-.6 0-1.1-1.5-1.1-3.3 0-1.8-.5-3.8-1.2-4.5-.9-.9-.6-1.2 1.7-1.2 2.1 0 2.6.3 1.8 1.1zm6.3 3.1c-.1 4.7-2.1 6.3-2.9 2.2-.6-3.4.2-6.4 1.8-6.4.7 0 1.2 1.5 1.1 4.2zm319.4 1.3c0 5-1 6.9-2.4 4.6-.8-1.3.5-10.1 1.5-10.1.5 0 .9 2.5.9 5.5zm6 .1c0 3.4-.4 5.3-1 4.9-.5-.3-1-2.8-1-5.6 0-2.7.5-4.9 1-4.9.6 0 1 2.5 1 5.6zm6.7-.6c-.5 2.7-1.4 5-1.9 5-.6 0-.8-1-.4-2.3.3-1.2.6-3.4.6-5s.5-2.7 1.4-2.7c1 0 1.1 1 .3 5zm7.2.5c-.1 4.8-.4 5.5-2.2 5.5-1.7 0-1.9-.5-1.3-3.8.3-2 .6-4.5.6-5.5 0-.9.7-1.7 1.5-1.7 1.2 0 1.5 1.2 1.4 5.5zm8.1 0c0 4.7-.3 5.5-1.9 5.5-2.5 0-3.2-2.2-2.5-7.1.5-2.9 1.1-3.9 2.5-3.9 1.6 0 1.9.8 1.9 5.5zm6.2 0c.2 4.4 0 5.5-1.2 5.5s-1.4-1.1-1.2-5.5c.2-3 .8-5.5 1.2-5.5.4 0 1 2.5 1.2 5.5zm7 0c.3 4.7 0 5.5-1.4 5.5-1.5 0-1.8-.9-1.8-5.5 0-4.1.4-5.5 1.4-5.5 1 0 1.5 1.6 1.8 5.5zm5.8-3.1c0 1.3.3 3.8.6 5.5.5 2.6.3 3.1-1.2 3.1-1.7 0-1.9-.7-1.6-5.5.4-5.3 2.2-8 2.2-3.1zm6.6 1.3c-1.3 7.4-2 8.1-2.7 2.8-.7-5.6-.5-6.5 1.8-6.5 1.2 0 1.4.7.9 3.7zm5.6.5c.2 3.5.7 4.3 2.3 4.3 1.7 0 1.9-.6 1.7-4.3-.3-3.3 0-4.2 1.2-4.2 1.3 0 1.6 1.1 1.6 5.3v5.4l-5 .1c-4.9.1-5 0-4.6-2.6.2-1.5.5-3.9.5-5.5.1-4.3 2-3.1 2.3 1.5zM269 677.8c0 2.1-.2 2.4-1 1.2-1.3-2-1.3-5.3 0-4.5.6.3 1 1.8 1 3.3zm132.3 4.1c-.7.9-1.4-.8-1.9-4.5l-.4-3.9 1.3 4c.8 2.2 1.2 4.2 1 4.4zM22 678.5c0 .8-.4 1.5-1 1.5-.5 0-1-.7-1-1.5s.5-1.5 1-1.5c.6 0 1 .7 1 1.5zm364.9 2.7c.1.5-.6.8-1.4.8-1.5 0-2.1-3.1-.8-4.4.7-.6 2 1.7 2.2 3.6zM232.5 680c.3.5.1 1-.4 1-.6 0-1.1-.5-1.1-1 0-.6.2-1 .4-1 .3 0 .8.4 1.1 1z"/><path d="M299.5 550.7c-3.2.8-4.2 2.3-2.4 3.6.8.7 1.8 2 2.2 3.1.5 1.1 1.3 1.6 2.3 1.2.9-.3 2.4-.6 3.5-.6 2.6 0 2.4-3-.5-5.8-1.3-1.2-2.5-2.1-2.7-2.1-.2.1-1.3.3-2.4.6zM309.7 617.6c-1.4 1.5-.6 2.3 3.1 3.3 3.3.9 9.6 1.5 13 1.2 2-.2 1.4-2.1-1-3-3.3-1.2-14.3-2.3-15.1-1.5zM383.5 580.4c-1.7 1.3-1.7 1.5 1 5 1.5 2 3.4 3.6 4.1 3.6 2.3 0 1.7-5.4-.9-7.8-2-1.9-2.6-2-4.2-.8zM396.5 593c-.4.7-.3 1.6.3 2.2 1.4 1.4 4.5.2 4-1.5-.6-1.6-3.4-2.1-4.3-.7zM210.6 557.9c-.4.6-1.4.7-2.2.4-.9-.3-2 0-2.4.7-.7 1.1-1.2 1.1-2.3.2-1.1-1-1.7-.9-2.7.3-1.6 2-3 1.9-4.6-.3-1.3-1.6-1.5-1.6-2.9.2-1.5 1.9-1.5 1.9-2.9.1-1.2-1.7-1.6-1.8-3.2-.5-1.3 1.2-1.8 1.2-2.1.2-.6-1.7-3.3-1.5-3.3.3s-2.6 2-3.3.2c-.3-1-.9-1-2.6 0-2.8 1.7-4.1 1.6-4.1-.2 0-2-2.9-1.9-3.7.1-.5 1.2-.7 1.3-1.4.3-.4-.8-2.2-1.4-4-1.5-2.3-.1-3.3.3-3.6 1.7-.7 2.4-1.4 2.4-3.7-.2-2.4-2.9-4.2-1.2-2.9 2.8l1 2.8 12.9-.5c17.7-.6 34.8-.5 41.6.4 4.5.6 5.7 1.1 5.6 2.4-.3 4 .3 6.2 1.7 6.2.8 0 1.5-.5 1.5-1.1 0-.6.8-.8 1.9-.4 2.2.7 4.4-1.6 3.5-3.9-.8-2.1-2.4-2-3.9 0-1.1 1.5-1.2 1.5-1.8-.5-.4-1.6-.1-2.1 1.4-2.1 2 0 3.5-3.9 2.5-6.5-.8-2.1-2.7-1.9-3.3.5-.7 2.7-3.1 2.6-3.5-.2-.3-2.4-2.3-3.5-3.2-1.9zM432.7 562c.7 2.5 3.7 4.2 6.6 3.8 3-.4 2.9-3.3-.1-3.4-1.3-.1-2.8-.6-3.5-1.3-1.8-1.8-3.6-1.3-3 .9zM410.6 562.8c-.2.4-.1 1.4.5 2.2.5.8.9 2.5.9 3.7 0 1.3.6 2.3 1.4 2.3 2.5 0 2.8-1.8 1-5.5-1.6-3.4-2.8-4.3-3.8-2.7zM425 574.5c0 .9.5 1.5 1.1 1.3.6-.2 1.1-.8 1.1-1.3s-.5-1.1-1.1-1.3c-.6-.2-1.1.4-1.1 1.3zM276.1 68.9c-3.5 3.3-3.8 5.6-1.5 12.2 1.6 4.4 1.6 4.7-.5 9.5-1.4 3-2.4 7.7-2.7 12.4-.3 4.1-.7 9-1 10.7l-.5 3.3H263c-9.7 0-9.7 0-9.4 7.7.2 3.6.5 6.7.7 6.9.2.2 3.9.5 8.3.6l7.9.3.6 5.2c.4 2.9.9 5.9 1.2 6.7.3.8-.3 2.2-1.4 3.2-2.4 2.2-2.4 2.4.6 6.8l2.5 3.8.5 41.6c.3 22.9.7 50 1 60.2.2 10.2.7 61.2 1.1 113.5l.6 95 4.7 4.2c6.1 5.6 8.9 5.6 12.5.2l2.7-4 .4-27.2c.1-15 .6-85 1.1-155.6l.7-128.5 2.3-3.4c2.9-4.3 3-5.8.4-7.2-1.1-.6-1.8-1.6-1.4-2.2.4-.6 1.2-3.4 1.8-6.2l1.1-5.1 6.1-.5c8.3-.7 9.6-1.9 8.9-8.4-.3-2.8-1.1-5.6-1.6-6.1-.6-.6-5.1-1.1-10.2-1.1l-9.2-.2-.7-10.3c-.3-5.8-1.4-12.9-2.5-16-1.8-5.5-1.8-5.6 0-8.1 4.3-5.7-3.1-16.8-11.2-16.8-2.9 0-4.7.7-7 2.9zm12.3 4.2c3.1 3.6 3.3 5.8.8 9-1 1.3-2.2 3.2-2.5 4.2-.6 1.7-.8 1.7-3.2.1-2.7-1.8-5.5-7.2-5.5-10.7 0-2.8 2.8-5.7 5.6-5.7 1.3 0 3.3 1.3 4.8 3.1zm-3.5 17.1c4.7 1.6 4.7 1.6 2.8 3.1-2.2 1.7-1.1 6.8 1.6 7.5 1.9.5 1.9.6.2 1.8-2 1.5-1.2 3.4 1.6 3.4 2.5 0 2.5 1.7-.1 2.5-2.4.7-2.6 2.3-.5 3.1 1.9.8 2 3.4.1 3.4-.8 0-1.6.7-2 1.5-.4 1.1-2.1 1.5-6.6 1.5h-6l-.1-5.8c-.2-10.7.4-16.1 2.1-20.6 1.1-2.9 1.9-3.1 6.9-1.4zm28.3 32.4c.4.3.8 1.6.8 3 0 2.8.8 2.8-31.4 2.6-22.1-.2-23.6-.5-23.6-4.8V121l26.7.5c14.6.3 27 .8 27.5 1.1zm-20.8 11.9c-.5 2.2-.3 2.5 2.2 2.6l2.9.1-3 .7c-3.6.8-3.9 3.2-.5 4.2 1.4.4 1.8.7.9.8-.9.1-2.2.8-2.9 1.6-.7.8-2.3 1.5-3.6 1.5-1.2 0-2.6.4-2.9 1-.3.5-1.7 1-3.1 1-1.3 0-2.4.4-2.4 1 0 .5.8 1 1.9 1 1 0 2.4.7 3.1 1.5 1.1 1.3.7 1.5-2.8 1.5-2.2 0-4.7-.3-5.6-.6-1.8-.7-2.2-3.4-.5-3.4.7 0 .8-2.7.3-8.3l-.6-8.4 8.6-.1 8.6-.1-.6 2.4zm6.4 16.7c-.3.8-2.4 1.4-4.9 1.5l-4.4.2 3.5-1.4c4.5-1.7 6.3-1.8 5.8-.3zM286 183.5c.8 40.6.1 285.5-.8 285.5-.5 0-1.5-.6-2.4-1.3-1.4-1.1-1.7-11.2-2.2-99.2-.3-53.9-.9-123.6-1.2-154.8l-.7-56.8 3.4.3 3.4.3.5 26zm8.4 72c-.1 112.8-.6 189.5-1.2 204.2-.3 8-.7 10.3-1.8 10.3-1.6 0-1.5 4.5-1.4-75.5 0-25.3.1-52.3 0-60 0-7.7.1-14.9.2-16 0-1.1.1-37.1.2-80s.2-78.8.4-79.8c.1-1.2.9-1.7 2-1.5 1.6.3 1.7 5.7 1.6 98.3zM353.6 69.4c-4.2 3.9-4.7 7.5-1.7 12 1.9 2.9 1.9 3-.1 8-1.6 3.8-2.2 8.1-2.6 16.8l-.4 11.8h-10.3c-7 0-10.6.4-11.2 1.2-.6.7-.9 3.3-.8 5.8.2 4 .6 4.7 3.6 6.2 1.9.9 5.8 1.7 8.7 1.8 5.9 0 6.4.6 7.5 9.2.6 4.1.4 4.8-1.3 5.3-2.7.9-2.5 2.5.9 7.2l2.9 4 .2 19.4c.1 10.7.3 23.2.5 27.9.1 4.7.5 28.1.9 52s.9 47.8 1.1 53c.2 5.2.7 42.6 1.1 83l.6 73.5 5.2 4.7c2.8 2.6 5.8 4.7 6.7 4.8.9 0 2.9-2.1 4.6-4.8l3.1-4.7.6-23.5c.3-12.9.8-42.4 1.1-65.5.3-23.1.8-53.4 1-67.3.2-14 .7-52 1-84.5.6-60.8.7-63.9 2.7-71.9 1-4.2 1-5-.7-6.8-1.7-1.8-1.7-2.5-.5-7.8.7-3.1 1.7-6 2.3-6.4.7-.4 3-.4 5.4-.1 3.6.5 4.5.2 6.7-2.2 2.8-3 3.6-9.1 1.4-11.3-.8-.8-4.5-1.2-9.9-1.2-6 0-9-.4-9.6-1.3-.4-.6-.8-3.5-1-6.2-.3-8.3-1.1-16.4-1.6-17.2-1.4-2.3-1.8-8.6-.7-11.3 1.8-4.3-1.1-12.5-5.4-15.1-4.6-2.8-7.9-2.4-12 1.5zm11.2 2.8c3.4 4.4 2.5 10.5-1.8 12-3.6 1.2-3.8 3.1-.6 6.3 2 2 2.2 2.6 1 3.6-2.1 1.7-1.7 2.9 1.1 2.9 3.4 0 3.3 2.8-.2 3.2-3.9.5-4 2.6-.1 3 4.6.4 5.1 3.3.6 3.3s-4.6 2.9 0 3.3c3.9.4 4.5 3.2.6 3.2-2.3 0-2.5.3-2 2.5.6 2.4.4 2.5-3.3 2.5-2.2 0-4.3-.5-4.6-1-1.3-2.2-.7-20.7 1-27.2 1.5-6.2 1.5-6.8 0-9.2-2.2-3.3-1.6-6.8 1.5-8.3 3.2-1.6 5.5-1.6 6.8-.1zm14.7 50.2l10 .1.3 3.2c.3 2.6-.1 3.3-1.5 3.4-16.7.5-55.7-.1-56.5-.9-.5-.5-.8-2-.6-3.3.3-2.3.8-2.4 8.8-3 4.7-.3 13.2-.4 19-.1 5.8.3 15 .5 20.5.6zm-16.3 11.8c-2.5 2.5-1.3 3.8 3.6 3.9 3.9.1 4.2.2 1.7.8-3.6.7-4.5 3.6-1.5 4.4 1.8.5 2 .9 1 2.6-.9 1.8-2 2.1-8 2.1-4.1 0-7.2-.5-7.6-1.2-1.1-1.7-3.2-12.6-2.6-13.3.3-.3 3.7-.5 7.6-.5 5.4 0 6.7.3 5.8 1.2zm11.8 17.3c0 2.2-23.6 2.1-26.4 0-1.8-1.3-.5-1.5 12.2-1.5 12 0 14.2.2 14.2 1.5zm-15.6 6.4c.3.5.8 53.5 1.1 117.7.3 64.3.7 133.9.9 154.6.3 31.2.2 37.8-.9 37.8-.8 0-1.7-.5-2-1-.3-.6-.8-12.6-1-26.8-.2-14.1-.7-40.8-1-59.2-.3-18.4-.8-53.3-1.2-77.5-.7-50.9-.7-47.9-1.8-103.8l-.8-42.7h3.1c1.7 0 3.3.4 3.6.9zm11.5-.2l2.4.6-.6 41.1c-.3 22.6-.8 67.4-1.1 99.6-1.1 113-2.2 165.1-3.8 168.5-.6 1.4-1.4 2.5-1.7 2.5-.3 0-.7-35.2-.8-78.3-.1-43-.5-113.4-.8-156.5l-.6-78.2h2.3c1.3 0 3.4.3 4.7.7zM436.5 67.6c-.5.1-2.2.5-3.7.8-3.1.7-5.3 3.6-6.3 8.2-.5 2.7-.1 3.8 2.5 6.8 2.7 3 3 3.8 2 5.6-.6 1.2-1.5 4.2-2 6.8-.4 2.6-1.3 7.4-1.9 10.7-.6 3.3-1.4 7.4-1.6 9.1l-.5 3.1-10.2.2c-5.6.1-11 .7-12 1.2-2.4 1.3-2.4 6.9.1 10.1 1.6 2 2.9 2.4 8.3 2.6 9.1.4 9.2.4 10.5 7.4 1.1 5.5 1 6.5-.4 8-1.5 1.7-1.5 2.1.7 6s2.3 5.2 2.6 27.2c.2 12.7.6 37.9.8 56.1.3 18.1.8 62.2 1.1 98 .4 35.7.8 69.9 1 76 .2 6 .4 21.9.4 35.3l.1 24.2 5.7 5.4c6.7 6.3 7.7 6.2 11.6-1.2 2.3-4.5 2.5-6 3.1-24.2.6-19.4 1.1-58.2 2.1-163 .8-90.5 1.6-129.4 2.4-130.5 1.7-2 2.3-7.5 1.1-9-1-1.2-1-2.9 0-8l1.2-6.5h8.8c10 0 12-1.2 12-7.1 0-6.8-.4-7-23.6-7.9-.7 0-1.3-3.7-1.7-9.8-.3-6.2-1.4-12.2-2.8-16.5-1.8-5.2-2.1-7.2-1.2-8.5 2.9-4.8 2-12.4-1.8-14.8-1.5-.9-7.1-2.1-8.4-1.8zm6 5.7c2.3 3.3 1.8 6-2 11.7-1.9 2.9-3.5 5.4-3.5 5.5 0 .2 1.2.5 2.7.7 3.3.4 4.2 2.5 1.2 3-3.6.5-3.3 2.5.6 3.2 4.1.8 4.5 2.3 1 3.6-3.3 1.3-3.2 2.8.2 3.2 3.5.4 4.4 3.5 1.2 4-3.3.4-3.6 2.8-.5 2.8s3.4 1.5.6 3c-1.1.6-2 1.5-2 2 0 .6.9 1 2 1s2 .4 2 .9c0 1.1-8.7 1.9-12 1.1-2.4-.6-2.5-1-2.5-8.6 0-7.7 2-18.9 3.7-20.9 1.3-1.5.9-4.6-1.3-9.2-2.6-5.3-2.2-8.5 1.1-9.3 3.4-.9 5.8-.1 7.5 2.3zm17 49.9c12.3.5 14.3 1.5 11.5 5.8-.7 1.2-4.5 1.4-24.2 1-12.8-.2-27.1-.5-31.7-.5-8.4 0-8.5 0-9.2-2.8-.6-2.3-.4-3 1.1-3.5 2-.7 34.8-.7 52.5 0zm-18.9 11.2c.3.8 2 1.8 3.7 2.2 3.1.7 3.1.7 1 1.7-3.2 1.4-2.9 3.6.3 3.4 3.3-.2 4.4 2 1.2 2.5-1.5.2-2.2.9-2.2 2.1.2 1.7-.5 1.8-8 1.2-9.5-.8-10.6-1.7-10.6-8.6 0-4.4.2-4.8 2.8-5.2 6.5-1 11.3-.7 11.8.7zm10.4 17.4c0 1.9-5 2.9-13 2.5-10.1-.5-13-1-13-2.3 0-.6 5.2-1 13-1 7.2 0 13 .4 13 .8zm-13.7 67.7c-.5 141.1-1.3 251.8-1.8 252.3-.3.3-1.2-.1-1.9-.9-1.6-1.6-2.2-25-3.1-122.9-.3-33.3-1-82.8-1.5-110-.5-27.2-.9-56.4-.9-64.8l-.1-15.3 4.8.3 4.7.3-.2 61zm10.1-33.5c-.4 102.9-1.5 235.3-1.9 235.9-.2.4-.5 8.4-.5 17.7-.1 24.2-.8 30.6-3.5 34-2.5 3.1-4.7 2.6-2.7-.6.8-1.3.8-2.1.1-2.5-.6-.4-.7-1.1-.1-1.8.9-1.1 1.5-51.9 2.6-237.9.3-38.9.8-71.3 1.1-71.8.4-.6 1.7-1 2.8-.8 2.2.3 2.2.4 2.1 27.8zM25.2 714c-13 .4-16.5.8-17.2 2-1.3 2.1-1.3 2.5.7 4.9 2 2.4-6.1 2.1 92.8 3.6 13.8.2 68.7.6 122 .9 53.4.3 125.4.8 160 1.1 34.7.3 75 .3 89.8-.1l26.7-.7v-7.4l-52.7-.7c-29.1-.4-61.6-.9-72.3-1.1-10.7-.3-53.9-.7-96-1-74.7-.5-216.5-1.6-230.5-1.9-3.8 0-14.3.1-23.3.4zM0 742.9c0 1.8.6 2.1 4.3 2.1 107.6.4 173.6.8 174.3 1.3.5.3 61.4.8 135.4 1.1 74 .4 144.2.8 156 1 24.2.5 30 .1 30-2 0-1-1.6-1.4-6.2-1.5-3.5 0-16.9-.2-29.8-.5-12.9-.2-67.1-.7-120.5-.9-160.3-.8-277.1-1.5-311.2-2.1-32.2-.5-32.3-.5-32.3 1.5zM0 749.7c0 2 .8 2.1 21.3 2.7 24.7.7 195.6 2.3 348.7 3.1 58.6.4 110.6.8 115.5 1 10.3.4 14.5-.2 14.5-2 0-1.7-17.5-2.4-59-2.6-18.4 0-40.7-.2-49.5-.4-8.8-.1-57.2-.6-107.5-.9-50.3-.4-101.4-.9-113.5-1.1-12.1-.2-55.4-.7-96.2-1.1C0 747.7 0 747.7 0 749.7zM411.2 764.5c-.7 1.4-1.2 6.2-1.2 10.5v8h-5.4c-3.5 0-6-.5-7-1.5-1.8-1.9-4.5-1.9-6.5-.1-1.2 1.1-7.4 1.5-27.1 2-36.3.9-60.7 1.6-74 2.1-16.2.6-51.2 1.6-72.5 2-17.2.3-44 .7-142 2.1-38.7.5-44.3.8-46.6 2.2-1.4 1-4.2 2.8-6.2 4-2.1 1.3-3.7 2.7-3.7 3 .1 1.5 2.7 4 6 5.7 1.8 1 4 2.4 4.8 3.1 1.1 1.1 8.2 1.4 36.5 1.5 19.4.1 38.1.2 41.7.4 3.6.2 23.8.6 45 1s42.6.8 47.5 1c5 .2 44.8.6 88.5.9 84 .6 100.4 1.1 103.2 3.1 1.1.7 4.5 1 9.2.8l7.5-.3.7 3.6c.4 2 .4 7.1.1 11.4-.3 5-.1 8.2.6 8.9 1.6 1.6 9.9 1.3 12.4-.4 2-1.4 2.1-2.4 2.1-12.7-.1-13-.1-12.9 9.5-14.7 15.2-2.9 17.4-3.4 20-4.9 1.5-.9 2.7-2.2 2.7-2.9 0-1.7 1.5-1.6 3 .2 2.5 3.1 10.3 1.4 14.5-3.1 3.2-3.5 3.4-10 .5-13.7-4.1-5.2-13.9-6-19.8-1.7-2.3 1.7-3.7 2.1-5.9 1.5-1.5-.4-7.3-1.3-12.8-1.9l-10-1.1-.2-9c-.4-13.9-.2-13.5-7.7-13.5-5.8 0-6.4.2-7.4 2.5zm10 36c-.4 30.9-.6 35.1-2 36.3-3.5 2.7-4.7 1.1-4.9-6.3-.2-11.1-.2-45.7.1-49 .2-1.7.4-6.1.4-9.8l.2-6.8 3.3.3 3.2.3-.3 35zm-25.3-10.2l-.1 5.2-.9-4c-1.1-5.5-1.1-7.7.1-7 .6.3.9 3 .9 5.8zm13.9-.3c.2 1.9.1 5.9-.3 8.7-.5 4.3-1 5.3-2.6 5.3-1.4 0-1.9-.7-1.9-2.5 0-1.7-.7-2.8-2.2-3.4-1.9-.7-2.2-1.4-1.9-5.7.1-2.7.5-5.2.8-5.7.3-.4 2.1-.7 4.1-.5 3.4.3 3.7.6 4 3.8zm59.2-2.5c7.1 3.6 3.6 14.5-4.7 14.5-3.6 0-5.6-2.3-6.8-7.7-.7-3.5 1.4-6.2 5.8-7.5 1.2-.3 2.3-.6 2.5-.7.2-.1 1.6.6 3.2 1.4zm-78.5 4.1c.3 2.5.3 5-.2 5.5-.8.8-140.7 1.1-275.3.7-43-.2-87.3 1.1-88.1 2.4-.5.7-1.1.9-1.5.5-1.1-1 2.6-4.8 6.2-6.3 1.9-.8 7.9-1.3 16.5-1.4 7.4 0 15.7-.2 18.4-.5 2.8-.2 10.4-.3 17-.3 70.8.5 130.7-.1 172.5-1.7 5.2-.2 21.9-.7 37-1 15.1-.4 32.5-1 38.5-1.4 6.1-.3 21.6-.8 34.6-.9l23.7-.3.7 4.7zm54.7-1.5c6.2 1 6.7 1.3 7.3 3.9.8 3.4-.3 10-1.7 10-.5 0-.7-.4-.4-.9.3-.5-.3-2-1.3-3.2-2.2-2.7-2.8-2-3.3 3.6-.4 4.5-2.3 3.6-2.6-1.3-.3-3.4-.7-4.2-2.3-4.2-1.6 0-1.9.7-1.9 4.3 0 4.8-.5 5.8-2.5 5.1-.9-.4-1.2-1.9-1-4.9.3-3.2.1-4.5-1.1-4.9-1.7-.6-2 .1-3.3 6.4l-1 4.5.1-6c.1-5.6 0-6-2-5.9-1.8 0-2.2-.5-2.2-2.7 0-5.5.7-6.1 6.9-5.4 3.1.3 8.6 1.1 12.3 1.6zM37 803c0 .5-.9 1-2.1 1-1.1 0-1.7-.5-1.4-1 .3-.6 1.3-1 2.1-1s1.4.4 1.4 1zm13 .5c0 1.2-1 1.5-4.5 1.3-2.5-.2-4.5-.6-4.5-.9 0-1.3 1.6-1.9 5.2-1.9 2.8 0 3.8.4 3.8 1.5zm8-.5c0 .5-.9 1-2 1s-2-.5-2-1c0-.6.9-1 2-1s2 .4 2 1zm9-.1c0 1-2.4 2.1-4.6 2.1-.8 0-1.1-.6-.8-1.5.6-1.6 5.4-2.1 5.4-.6zm9.8.8c.2.8-.6 1.3-2.2 1.3-1.7 0-2.6-.5-2.6-1.6 0-1.9 4.1-1.6 4.8.3zm19 .1c.2.7-.6 1.2-1.7 1.2-2.1 0-2.7-1.1-1.4-2.4.9-.9 2.6-.2 3.1 1.2zm10.1 1.1c-1.5.5-2.2-.6-1.4-1.9.6-.9 1-.9 1.6.1.5.8.4 1.5-.2 1.8zm7.1-1.4c0 .8-.7 1.5-1.5 1.5-1.6 0-2-1.2-.8-2.3 1.1-1.2 2.3-.8 2.3.8zm8.4 0c.4 1.1-.1 1.5-1.9 1.5-2.4 0-3.2-1-1.8-2.3 1.1-1.2 3.1-.8 3.7.8zm5.6.5c0 1.1-.7 2-1.5 2-1.8 0-1.9-1.2-.3-2.8 1.6-1.6 1.8-1.5 1.8.8zm7.3-.5c.8 1.8-1.1 3.1-2.5 1.7-1.1-1.1-.3-3.2 1.2-3.2.4 0 1 .7 1.3 1.5zm226.7.4c0 1.1.3 2.6.6 3.5.4 1.1.1 1.6-1 1.6-1.2 0-1.6-1-1.6-3.5 0-1.9.5-3.5 1-3.5.6 0 1 .9 1 1.9zm7.4 1.3c-.1 4.5-2.4 4.9-2.4.4 0-2.2.5-3.6 1.3-3.6.7 0 1.2 1.3 1.1 3.2zm6.6.3c0 1.9-.4 3.5-1 3.5-1.1 0-1.4-5.3-.3-6.3 1.1-1.2 1.3-.8 1.3 2.8zm7-.6c0 1.7-.4 3.3-1 3.6-.6.4-1-.8-1-2.9 0-2 .5-3.6 1-3.6.6 0 1 1.3 1 2.9zm7.5.5c0 1.5-.5 3.2-1.2 3.8-1 .8-1.3.2-1.3-3.2 0-4.7 2.2-5.3 2.5-.6zm-244.5-.9c0 .8-.4 1.5-1 1.5-.5 0-1-.7-1-1.5s.5-1.5 1-1.5c.6 0 1 .7 1 1.5zm28 1.8c0 .5-.4.5-1 .2-.5-.3-1-1.4-1-2.3 0-1.5.2-1.5 1-.2.5.8 1 1.9 1 2.3zm8-2.9c0 1.5-1.4 3.5-2.1 3-1.5-.9-1-3.4.6-3.4.8 0 1.5.2 1.5.4zm10.3.3c.9.9-1.3 3.4-2.4 2.7-1.4-.8-1.1-3.4.4-3.4.8 0 1.7.3 2 .7zm4.7.3c0 .5-.4 1-1 1-.5 0-1-.5-1-1 0-.6.5-1 1-1 .6 0 1 .4 1 1zm6-.3c0 .5-.5 1.5-1 2.3-.8 1.2-1 1.1-1-.8 0-1.2.5-2.2 1-2.2.6 0 1 .3 1 .7zm6 1.3c0 1.9-1.1 2.6-2.3 1.4-.8-.8.3-3.4 1.4-3.4.5 0 .9.9.9 2zm6-.4c0 .8-.4 1.2-1 .9-.5-.3-1-1-1-1.6 0-.5.5-.9 1-.9.6 0 1 .7 1 1.6zm18.4 0c.9 2.2.8 2.4-.9 2.4-.8 0-1.5-.9-1.5-2 0-2.4 1.5-2.7 2.4-.4zm5.3 1.6c-.3.7-.5.2-.5-1.2s.2-1.9.5-1.3c.2.7.2 1.9 0 2.5zm11 0c-.3.7-.5.2-.5-1.2s.2-1.9.5-1.3c.2.7.2 1.9 0 2.5zm8.3-.1c0 1-.6 1.9-1.3 1.9-2.2 0-2.7-1.1-1.6-3.2 1.2-2.2 2.9-1.5 2.9 1.3zm12.3-1.1c.3 1.1.1 2-.4 2s-.9-.9-.9-2 .2-2 .4-2 .6.9.9 2zm12.5.9c.3 1.6-.1 2.2-1 1.9-.7-.3-1.5-1.5-1.6-2.7-.3-1.6.1-2.2 1-1.9.7.3 1.5 1.5 1.6 2.7zm6.2-.3c0 1.4-.4 2.3-1 1.9-.5-.3-1-1.5-1-2.6 0-1 .5-1.9 1-1.9.6 0 1 1.2 1 2.6zm12.9 1.4c0 1-.3.8-.9-.5-1.2-2.7-1.2-4.3 0-2.5.5.8.9 2.2.9 3zm10.8.7c-.3 1-.5.2-.5-1.7s.2-2.7.5-1.8c.2 1 .2 2.6 0 3.5zm6-1c-.3 1-.5.4-.5-1.2 0-1.7.2-2.4.5-1.8.2.7.2 2.1 0 3zm7.3-1.2c0 1.4-.4 2.5-1 2.5-.5 0-1-1.1-1-2.5s.5-2.5 1-2.5c.6 0 1 1.1 1 2.5zm5.7-.3c-.3.8-.6.5-.6-.6-.1-1.1.2-1.7.5-1.3.3.3.4 1.2.1 1.9zm16.9 2.5c-1 2.6-1.8.8-.9-2.3.5-2.1.8-2.4 1.1-1.1.2 1 .1 2.5-.2 3.4zm6.7.5c-.2.5-.8.8-1.4.8-1.1 0-1.2-4.3-.2-5.4.9-.8 2.2 3.4 1.6 4.6zm41.4 0c-.2 1.3-.4.5-.4-1.7-.1-2.2.1-3.2.4-2.3.2 1 .2 2.8 0 4zm-171-2c-.3.8-.6.5-.6-.6-.1-1.1.2-1.7.5-1.3.3.3.4 1.2.1 1.9zm38 1c-.3.7-.5.2-.5-1.2s.2-1.9.5-1.3c.2.7.2 1.9 0 2.5zm31.9.5c-1.1 1.1-1.9-.6-1.1-2.4.8-1.7.8-1.7 1.2 0 .3 1 .2 2.1-.1 2.4zm42.4-.7c0 1.1-.4 2-1 2-.5 0-1-.9-1-2s.5-2 1-2c.6 0 1 .9 1 2zm69.4 4.5c.3.8.1 1.5-.4 1.5-.6 0-1-.7-1-1.5s.2-1.5.4-1.5.6.7 1 1.5z"/><path d="M474.5 807.7c-2.9.7-3.6 1.6-4.2 5.4-.3 1.9-.6 3.5-.7 3.6-.1.2-2.5.3-5.2.4-13.5.3-15.7 6.1-2.8 7.5 11 1.1 11.3 2.5.7 3.1-3.8.3-7.2.9-7.8 1.5-1.6 1.5 2.2 3.7 8.7 5 6.5 1.3 7.7 2.8 2.2 2.8-6.3 0-9.7 3.8-6.1 6.9 1.6 1.3 2.7.5 2.7-2.1 0-1.4.8-1.8 3.5-1.8 3 0 3.5.4 4.3 3.2.8 3.2.7 3.3-2.7 4-2 .3-34.2.3-71.6 0-63.1-.7-351.4-.6-381.2 0-12.5.3-15.6.9-13.9 2.5.4.5 83.4.8 184.4.8 101.1.1 210 .2 242.2.2 32.2.1 59.9 0 61.5-.1 1.7-.2 4.9-.4 7.3-.5 3-.1 4.2-.5 4.2-1.6 0-1.3-1.9-1.5-12.1-1.4-6.6 0-12.2-.1-12.3-.3-.2-.1-.6-1.6-1-3.1l-.7-2.8 5.8.1c5.5.2 6.9 0 12.1-2.1 3.5-1.4 2.8-4.6-1.3-6-2.7-1-3.4-1.7-2.9-3.1.4-1.5-.1-1.8-2.8-1.9-1.8-.1-4-.2-4.8-.3-.8-.2-2.3-.3-3.2-.4-1-.1-1.8-.6-1.8-1.2 0-.5 3.5-1 7.7-1.2 5-.2 7.8-.7 8.1-1.6.3-.9-1.7-1.2-7.7-1.2-5.1 0-8.1-.4-8.1-1.1 0-.6 1.9-.9 5-.7 5.2.3 7.2-1.4 2.3-2-5-.6-4.9-2.2 0-2 3.7.2 5.2-.2 6.9-1.9 1.7-1.8 1.9-2.5.9-3.6-1.7-2.1-11.4-4-15.6-3zm9.9 4.3c.7.7-.8 1-4.2 1-4.9 0-6.8-1.1-3.9-2.4 1.6-.7 6.9.2 8.1 1.4zm-14.6 9.1c-.2.6-.7 1-1.1 1-.4-.1-2.5-.1-4.7-.1s-4-.5-4-1c0-.6 2.3-1 5.1-1 3.2 0 4.9.4 4.7 1.1zm.2 9.9c0 .5-1.5 1-3.4 1s-3.8-.5-4.1-1c-.4-.6 1-1 3.4-1 2.3 0 4.1.4 4.1 1zm15 0c0 .5-2.2 1-5 1-2.7 0-5-.5-5-1 0-.6 2.3-1 5-1 2.8 0 5 .4 5 1zm1.8 4.7c4 1 .4 2.3-6.5 2.3-5.8 0-7.3-.6-5.6-2.3.8-.9 9-.9 12.1 0z"/><path d="M477.2 844.2c.6 1.8 2.8 2.1 2.8.4 0-.9-.7-1.6-1.6-1.6-.9 0-1.4.5-1.2 1.2zM255.6 852.8c-.2.1-57.7.3-127.9.3-105 .1-127.7.4-127.7 1.5 0 .7.8 1.4 1.7 1.5 1 .1 64.1.3 140.3.5 76.2.1 187.6.3 247.7.5 60 .2 109.5.1 109.9-.4.4-.4.5-.9.3-1.2-.3-.2-25.7-.7-56.4-1-30.8-.3-74.2-.8-96.5-1.1-51.1-.7-91.1-1-91.4-.6z"/></svg>