<svg version="1" xmlns="http://www.w3.org/2000/svg" width="666.667" height="1170.667" viewBox="0 0 500 878"><path d="M363.4 9.4c-1.8.8-4.7 1.4-6.6 1.3-3.5-.1-10.7 3.1-14.3 6.3-1.1 1-7.6 5-14.5 8.9-6.9 3.9-16.5 9.9-21.5 13.2-4.9 3.3-10.6 6.7-12.5 7.5-5.1 2.3-20.1 11.4-22.8 13.8-2.2 1.9-2.3 1.9-5.3.2-1.6-1-3.7-1.5-4.5-1.2-.8.3-2.3.1-3.3-.6-3-1.8-9.1 0-12.7 3.7-1.7 1.8-5.7 4.7-9 6.3-3.2 1.7-7.2 4.4-8.9 6.1-2.6 2.8-2.8 3.3-1.3 4.7 1.2 1.3 2.2 1.4 5.2.6 2.6-.8 3.6-.7 3.6.1-.1 2.2-13.6 10.6-31.8 19.7-4.6 2.2-11.4 6.3-15 8.9-3.7 2.7-7.7 5.2-9 5.6-2.1.6-2.2.4-1.6-2.2.4-1.5 1.5-3.6 2.5-4.6 2.5-2.3 2.4-3.2-.6-5.5-3.1-2.5-3.1-3.2 0-6.6 1.4-1.5 2.5-3.3 2.5-4 0-1.7-2.1-3.6-4.1-3.6-.9 0-1.9-.8-2.2-1.9-.7-3-6.6-3.5-13.3-1.1-7.6 2.6-8.3 2.5-5.1-.8 5.5-5.7 2.2-8.4-6.8-5.7-6.2 1.8-12.9 7.1-13.9 11-.4 1.6-3.2 4.2-8.2 7.5-4.1 2.8-7.8 5.8-8.1 6.6-.3.8.2 2.5 1 3.8 1.5 2.2 1.4 2.4-2.9 6-3.6 3-4.5 4.3-4.2 6.4.2 2.3.8 2.7 3.1 2.5 1.5-.1 4.1-.9 5.7-1.7 3.2-1.5 4-.7 1.4 1.4-.8.8-1.4 2.5-1.2 3.9.3 3.8-.4 4.6-11 11.5-11.8 7.7-12.7 8-15.8 6-3.1-2.1-6.7-.7-13.2 4.8-2.4 2.1-7 5.2-10.2 6.8-3.2 1.6-6.1 3.4-6.5 4-.7 1.2-2.5 1.3-2.5.2 0-.4 2.8-3.6 6.1-7 4.1-4.1 5.9-6.7 5.5-7.7-.3-.9.4-2.9 1.5-4.4 5.3-7.1-2.5-9.5-13.5-4.2-3.4 1.7-6.6 3.1-7 3.1-.4 0-3.4 2.3-6.8 5.1s-7.2 5.5-8.5 6c-2.7 1-7.8 4.6-13.9 9.9-2.3 1.9-6.5 5.2-9.5 7.3C8.7 173.7.1 180.5 0 181.2c0 1.5 1.7.7 5.6-2.5 2.1-1.8 7.1-5.2 10.9-7.7 3.9-2.4 9-6.2 11.5-8.5 4.8-4.4 13.7-10.5 15.3-10.5.6 0 3.5-1.9 6.6-4.3 3.1-2.3 6.3-4.2 7.2-4.3.9-.1 3.4-1.5 5.5-3.2 7.2-5.8 14.1-5.1 7.9.8-1.7 1.6-2.2 2.7-1.6 3.9.6 1 .3 2.2-1 3.6C61 156.1 59 159.3 59 163c0 5 1.1 5.6 4.7 2.6 4.1-3.4 12.8-8.6 14.4-8.6.8 0 3.7-2 6.5-4.4 4.4-3.9 5.3-4.3 6.5-3.1 1.1 1.2 2.3 1.2 5.9.3 4.6-1.2 5.4-1.6 18.3-10.5 4.2-2.9 9.4-6.1 11.7-7.3 4.2-2.1 4.6-3 3-6-.7-1.3-.6-2.1.5-3 2.5-2 1.8-5.6-1.6-8.3-2.7-2.1-2.8-2.5-1.5-3.6 2-1.7 2-3 0-5.2-1.4-1.6-1.2-1.9 2.7-4.5 6.6-4.5 13.9-11.5 13.9-13.3 0-1.7 5.7-5.7 6.7-4.7.3.3-.2.8-1.1 1.2-2 .8-2 2.8 0 5.9l1.6 2.4 3.7-1.9c2.1-1 6.6-2.2 10-2.6 6.2-.7 6.3-.7 5.9 1.7-.2 2 .2 2.5 2.5 2.7l2.7.3-2.5 3.3c-3.2 4.2-3.2 7.3 0 8.8 2.2 1 2.3 1.3 1.1 2.7-.7.9-2.3 3.5-3.5 5.9-4.2 8.4 1.3 8.8 14.2 1.1 3.9-2.4 10.5-6.1 14.6-8.2 4.1-2.1 10.7-6.1 14.7-8.8 4-2.7 7.7-4.9 8.3-4.9.5 0 2.9-1.5 5.3-3.3 2.4-1.7 6.2-4.5 8.6-6.1 7.2-4.9 7.6-8.2 1.1-9.2-2.1-.4-3.6-1-3.4-1.5.3-.4 3-1.9 5.9-3.2 3-1.4 6.1-3.6 7-4.9 1.1-1.6 2.4-2.3 4.3-2.2 8.2.3 8.3.4 8.3 2.4 0 4 9.2 1.7 15.5-3.9 1.8-1.5 7.5-5.2 12.6-8 5.2-2.9 13-7.7 17.4-10.7 4.4-3 11.8-7.6 16.5-10.1 11.4-6.2 20.1-11.4 22.2-13.3.9-.8 3.3-2.4 5.2-3.4 3-1.6 4-1.7 5.9-.7 1.8 1 2.9.8 6.4-.9 2.3-1.1 4.5-2 4.8-2 1.1 0 .4 2.8-1 4-.8.7-1.5 2.5-1.5 4.1 0 2.3-1 3.5-5 6.2-2.8 1.9-6.4 5.5-8 8-1.6 2.6-5.2 6.3-8 8.3-5.3 3.8-5.8 4.8-3.5 7.7.7 1.1 1.1 2.6.8 3.4-.4.9.3 2.2 1.5 3.2l2.2 1.6-4 4.5c-2.1 2.5-3.9 5.4-4 6.5 0 1.2-2.9 4.9-6.6 8.5-8.2 8.2-9.2 9.7-6.7 11.5 1.5 1.2 1.6 1.7.6 3.4-1.5 2.4-1.7 4.8-.4 5.5.8.5 11.5-3.7 16.3-6.4 16-9 23.8-13 30.9-16 5.5-2.4 11.7-6.1 17-10.3 4.6-3.7 11.9-9.2 16.3-12.2 7.2-5.2 7.8-5.4 7.2-3-1 3.9 1.7 4.2 8.5 1 3.2-1.6 6.1-2.7 6.3-2.4.2.2 0 2.8-.3 5.7-.4 2.9-.5 5.4-.3 5.7 1 1 4.1.5 6.9-1 1.5-.8 5.3-2.4 8.4-3.5 3.1-1.1 9.8-4.7 14.9-8 5.2-3.3 9.9-6 10.5-6 .6 0 2.4 1.3 3.8 3 3.1 3.4 5.1 3.7 10.4 1.5 5.8-2.4 20.2-11.9 20.3-13.3 0-.6-.2-1.2-.3-1.2-.2 0-4.4 2.2-9.4 4.9-11.2 6.1-13.1 6.7-13.9 4.7-.3-.9-1.1-1.6-1.6-1.6-.6 0-2.5-.7-4.3-1.6-3.1-1.5-3.5-1.4-8.2.9-2.6 1.4-6.5 3.9-8.7 5.6-4.3 3.4-15.3 8.9-19.7 9.8-4 .8-4.9-2-1.9-5.2 1.9-2.1 2.1-2.7 1-4-1-1.2-2.3-1.5-5.4-1-2.3.4-4.5 1.1-5 1.6-1.7 1.5-3.6 1-3.6-1 0-1.1-.6-2.1-1.2-2.4-3.3-1.1-16.5 7.2-31.6 20-6.9 5.8-9.1 7.1-19.8 11.8-4 1.8-10.9 5.4-15.5 8-11.1 6.4-19.1 10.5-20.7 10.5-.8 0-1.2-.9-1-2.4.1-1.3-.3-3-1-3.8-1-1.3 0-2.7 6.2-9.1 5.7-5.7 7.3-8 6.9-9.6-.4-1.5.8-3.3 4.7-7 5.3-5.1 5.7-7.1 1.4-7.1-1.5 0-2.4-.6-2.4-1.5 0-.8-.6-2.4-1.2-3.5-1.1-1.8-.6-2.6 4.7-7.9 3.3-3.3 7.4-7.4 9.1-9.2 1.7-1.7 5.1-4.9 7.4-7 2.9-2.7 4-4.4 3.6-5.5-.4-1 .1-2.6 1.3-3.8 1.1-1.2 2.3-3.3 2.6-4.9.7-2.5.5-2.7-2.6-2.7-1.9.1-4.8.7-6.5 1.4z"/><path d="M211.4 14.1c-1.1 1.8 1.1 3 5.8 3.3 2.5.2 5.1.6 5.7 1 .6.4 2.5 3.7 4.1 7.2 1.6 3.6 3.8 7.6 5 9.1 3.1 4 2.6 5-3.1 5.5-4.9.5-8 2.1-6.6 3.4.8.9 32.5.7 33.8-.2.5-.3.9-1.4.9-2.5 0-1.7-.7-1.9-6-1.9-3.3 0-6-.3-6-.6 0-.4 2.1-5.3 4.6-11l4.7-10.4h3.7c4.8 0 7-.8 7-2.6 0-1.2-4.5-1.4-26.4-1.4-18 0-26.7.3-27.2 1.1zm36.6 4.1c0 .6-.6 1.9-1.4 2.7-.7.9-2.1 3.8-3 6.6-3.3 10-5.1 9.9-8.9-.7-3.2-8.6-3.2-8.5-.9-9.1 3.9-1 14.2-.7 14.2.5zM497.1 68.4C494 71.6 484 77.5 475.5 81c-23.8 9.8-26.1 11-25.1 13.7.6 1.6-3.8 5-12.9 9.9-3.8 2-7.7 4.3-8.5 5-.8.6-4.6 2.9-8.5 4.9-10.8 5.6-13.6 9-9.7 11.5 1.6 1.1 1.6 1.1-.1.6-1.6-.5-5.6 1.2-11.6 4.9-5.1 3.2-17.2 11.4-20.6 14.1-5.7 4.4-12.8 9.3-22.5 15.4-7.9 4.9-24.6 19.1-29.7 25.1-2.5 2.9-2.9 5.4-1.2 6.4.5.4 4.8-1.1 9.4-3.3 8.2-4 8.4-4 10.1-2.1 1.1 1.2 2.4 1.7 3.6 1.3 3.2-1 2 2.3-1.9 5.5-6.5 5.2-20 15.4-28.5 21.3-6.5 4.6-8.6 5.6-10.8 5.1-3.3-.6-4.2-.1-18.8 9.5-8.3 5.4-11.6 7.2-12.4 6.4-.8-.8.3-2.7 4.1-6.7 3.7-3.9 5.1-6.2 4.9-7.8-.7-4.9-8.5-2.5-17.8 5.6-2.4 2.1-5.7 4.6-7.1 5.4-1.5.9-3.2 2.7-3.8 3.9-.5 1.3-2.8 3.2-4.9 4.3-2.1 1.1-9 6.5-15.3 12.1-6.2 5.7-13.6 12-16.4 14.1-2.7 2.1-7.9 6.1-11.5 8.8-3.5 2.8-6.6 4.8-6.9 4.5-.2-.2 2.6-3.4 6.3-6.9 5.1-4.9 6.7-7.1 6.3-8.6-.6-2.2 6.9-9 21.6-19.4 9-6.4 12.1-10 9.8-11.4-1.3-.9-6.5-.6-11.6.5l-3 .7 3.3-3.5c3.7-3.9 4-5.6 1.1-6.6-1.8-.7-1.2-1.5 5.5-7.1 8.3-7.1 14.6-14.2 14.6-16.4 0-3.2-5.3-2.9-10.2.5-1.5 1-5.5 2.9-9 4.2-3.5 1.3-9.7 4-13.8 5.9-4.1 1.9-9.7 4.2-12.5 5.2-6.5 2.3-18.2 8.2-19 9.5-.3.6-1 .8-1.5.5-1.1-.7-.1-4.2 1.6-5.6.8-.6 1.4-1.8 1.4-2.6 0-1.2-.9-1.3-4.2-.8-3 .5-7.2 2.8-13.8 7.5-9.2 6.6-16.9 11-18.9 11-.6 0-1.4-1.5-1.9-3.2-.4-1.8-1.5-3.4-2.3-3.6-.8-.1-5.1 2.2-9.7 5.2-9.8 6.5-12.2 7.5-12.2 4.9 0-1 6.1-7.8 13.7-15.4 19.3-19 18.8-18.5 17.3-20.4-.7-.8-2-1.5-3-1.5-.9 0-2.2-1.1-2.8-2.5-1.5-3.2-2-3.1-9.4.5-3.3 1.6-6.7 3-7.5 3-.8 0-2.8.9-4.4 2-1.5 1.2-4.3 2.6-6.1 3.2-1.8.6-6.7 3.1-10.8 5.4-4.1 2.4-8.7 4.5-10.1 4.8-1.5.2-4.1 1.2-5.9 2.1-4.5 2.3-25.5 23.7-30.5 31-2.2 3.2-6.8 8.5-10.3 11.8-6.3 6.1-14 16.5-18.1 24.6-2.9 5.6-1.6 7.2 3.3 4.2 2-1.3 4-2 4.6-1.6 1.6 1 1.1 4.1-1 6-1.1 1-2 3.1-2 4.7s-.5 3.8-1 4.9c-.7 1.3-.7 2.5-.1 3.8.9 1.5.3 2.3-3.7 5.1-2.6 1.8-7.7 6.4-11.4 10.1-3.6 3.7-7.8 7.5-9.1 8.4-3.1 2-6.2 10.7-4.8 13.4.8 1.4.3 2.5-2.5 5.2-2 1.9-4.9 5.3-6.5 7.6-1.6 2.3-3.8 4.5-4.9 4.8-1.1.4-2 1.5-2 2.6 0 3.2 3.5.8 13.7-9.8 8.5-8.6 11-12.3 8.3-12.3-1.3 0-1.3-3.7 0-4.5.6-.3 1-1.4 1-2.3.1-.9 5.8-6.9 12.7-13.2C53.6 309.8 55 308.4 55 306.6c0-.9-.8-1.6-2-1.6-1.3 0-2.2-.9-2.6-2.5-.5-2 .2-3.4 3.5-7 4.4-4.8 5.1-7.2 2.4-8.1-1-.3-2.5-.9-3.4-1.4-.9-.4-2.2-.4-3 .1-1.8 1.1-2.9 1.1-2.9 0 0-2.2 8.3-13 14.5-19.1 3.7-3.6 7.5-8.1 8.5-10 2.6-5 15.7-20.2 22.1-25.6 7.1-6.2 8.9-7.2 12-7.2 1.5 0 4.6-1.3 7-2.9 2.4-1.6 5.5-3.4 6.9-4 1.4-.6 8.7-4.1 16.3-7.7 7.6-3.7 14.5-6.6 15.5-6.4.9.2 1.7 1.2 1.7 2.3 0 1.1.4 2.6.9 3.4.7 1-2.2 4.4-11.1 13-13.8 13.3-17.9 18.8-16.9 22.6.6 2.3 1 2.6 3.8 2 1.7-.4 4.9-2 7.2-3.7 6.8-4.8 12.9-8.8 13.7-8.8.3 0 .9 1.4 1.3 3 1.2 6.2 5.2 4.9 23.1-7.4 11.7-8 13.2-8.8 12-6-1.6 3.9-1.8 7.4-.3 7.9.8.3 4.4-.9 7.9-2.8 3.5-1.8 9.1-4.4 12.4-5.7 3.3-1.3 6.5-2.6 7-3 .6-.4 2.3-1 3.9-1.4 1.6-.4 6.5-2.4 11-4.6 14.5-6.9 19.6-8.4 19.6-5.9 0 .9-16.1 14.6-20.1 17.1-4.2 2.7-10.9 10.2-9.9 11.2.5.5 3.3-.6 6.7-2.4 5.4-3.1 5.7-3.2 3.5-.8-2 2.2-2.1 2.9-1.1 5.2 1.4 3 2.8 3.2 7.1 1 1.7-.9 3.4-1.2 3.9-.7.8.8-3.6 4.7-15.6 13.6-3.8 2.9-9 7.1-11.4 9.5-2.4 2.4-5.3 4.7-6.3 5.3-2.2 1.2-2.4 2.9-.3 2.9 2.4 0 1.7 2.6-1 3.8-3 1.4-7.9 8.8-7.1 10.9 1.1 2.8 7.2-.4 18.1-9.8 3.3-2.8 7.6-6.1 9.5-7.4 1.9-1.2 8-6.4 13.5-11.5s11.8-10.1 14-11.2c2.2-1.1 8.1-5.8 13-10.3 10.8-9.8 14.2-12.2 15.6-10.8.6.6-.9 2.6-4.6 5.8-4.5 3.8-5.6 5.3-5.2 7.2.2 1.2-.2 3.1-.9 4-1.8 2.4-1.7 4.3 0 4.3 2.1 0 12.2-6.1 26.5-16 6.1-4.1 8-5 10.3-4.5 2.2.5 4.4-.4 11.5-5.1 4.9-3.2 12-8.3 15.8-11.3 3.9-3.1 8.6-6.5 10.5-7.5 6.9-3.8 11-6.6 11-7.6 0-.6 2.3-3.2 5-5.8 5.5-5.3 6-7 2.9-9.8-2-1.8-2.2-1.8-5.1-.1-1.8 1-3.9 1.5-5.4 1.1-1.5-.4-4.6.4-9 2.5-3.7 1.7-7 2.9-7.3 2.5-.3-.3 1.4-2.4 3.9-4.5 2.5-2.2 6.1-5.4 8-7 1.9-1.7 7.2-5.5 11.7-8.4 4.5-2.9 9.5-6.5 11-7.9 8.8-8.2 36.2-26.2 38.6-25.3 1.7.6 7.7-2 9.4-4.1.7-.9 1.1-2.9.9-4.4-.5-2.8-.3-3 32.1-21.7 4-2.3 8.9-5.8 10.8-7.8 2.3-2.4 6.9-5 13.5-7.8 10.3-4.4 25-14.4 25-17.1 0-1.9-.3-1.8-2.9 1zM357 183.4c0 .2-.8 1-1.7 1.7-1.6 1.3-1.7 1.2-.4-.4 1.3-1.6 2.1-2.1 2.1-1.3zM416.3 155.2c-3.1 3.3-3.6 4.8-5.2 16.8-.5 3.6-1.2 7.2-1.5 8-.3.8-.8 3.1-1 5-.2 1.9-1.8 9.8-3.5 17.5-1.6 7.7-3.9 18-5 23-2.5 11.8-6.8 29.6-8.6 36.5-.9 3-2.2 8.2-3 11.5-3.1 13.2-5.4 20.9-6.7 22-.7.6-3.2 2-5.5 3-3.6 1.5-4.7 1.6-7.3.5-3.7-1.5-2.9-2.6 2.5-3.8 2.4-.5 4-1.4 4-2.2 0-.8.4-2 .7-2.6 1.2-1.9-.4-2.4-5.6-1.9-3.2.2-4 .2-2.2-.3 4.5-1.1 4.3-2.9-.5-3.7-2.4-.4-4.9-1.3-5.6-2.1-1.1-1.1-1-1.5.8-2.5 1.7-.8 2.3-.8 2.9.2.6.9 2.2.5 6.6-1.8 6.7-3.5 8.5-5.8 3.2-4.2-1.8.6-6.7 1.2-10.8 1.4-4.3.2-6.2 0-4.5-.4 8.6-2 14-7 5.9-5.5-3.6.7-4.5-.5-1.9-2.6.8-.7 1.5-1.9 1.5-2.7 0-.8 1.1-2.4 2.5-3.5s2.5-2.4 2.5-2.9c0-1.5-2.3-1-5 1.1-3.2 2.5-4.8 2.6-2.6.1 2-2.2.6-3.7-2.1-2.3-1 .5-3.9 1.2-6.5 1.4-4.2.5-4.8.3-4.8-1.4 0-1 .7-2.1 1.5-2.4.8-.4 1.5-1.2 1.5-2 0-1.6-2.9-1.1-8.7 1.3-4.2 1.7-4.5 1.7-3.8-.6.3-1.1.1-2.2-.5-2.6-1-.6-11.1 2-17.8 4.6-1.3.5-3.4.9-4.7.9-2.1 0-6.5 4.4-6.5 6.4 0 1.2 3.4.6 5.1-.9 1.6-1.5 1.6-1.3 1.2 3.2-.3 2.6-.9 5.2-1.4 5.7-.5.6-.9 1.8-.9 2.8 0 1-1.2 3.7-2.7 5.9-2.1 3.2-2.5 4.5-1.7 6.6.5 1.4 1.8 2.7 2.8 2.9 1.8.3 6.3-2.3 9.5-5.4.7-.7 3-1.2 5.2-1 2.7.1 4.5-.4 6.1-1.9 2.1-1.9 7.8-3.7 7.8-2.5 0 .3-1.2 1.9-2.7 3.4-1.6 1.7-2.1 2.8-1.3 2.8 1.4 0 .5 1.4-1.1 1.6-.5.1-1.3.2-1.8.3-.5 0-2.8 2.4-5 5.2-2.3 2.9-4.1 4.7-4.1 4.1 0-.6.5-1.4 1-1.7 1.3-.8.3-2.5-1.4-2.5-.8 0-2.4.8-3.6 1.8-2.2 1.7-2.2 2.1-.9 5 1.6 3.7 2.4 4 3.9 1.1.7-1.1 1.4-1.8 1.7-1.5.3.3 2-.6 3.8-1.9 1.7-1.4 3.6-2.5 4.1-2.5.5 0 .2.5-.8 1-1 .6-1.4 1.8-1.1 3 .3 1.2.2 2-.3 1.9-2.1-.5-6.3 2.1-5.8 3.5.3.8.1 2.3-.5 3.4-1.3 2.4-.5 5.2 1.4 5.2.8 0 1.7.5 2 1.1.4.6-.2.9-1.7.7-2.9-.4-3.6 1.3-1 2.3 4.4 1.6 11.8-6.5 11.4-12.6 0-1.6 0-1.7.4-.3.3 1 .9 1.8 1.3 1.8.5 0 .6 1.1.3 2.5-.3 1.6 0 2.5.8 2.5.7 0 1 .7.6 1.5-.4 1 .3 2 2 2.7 2.3 1.1 2.8.9 4.9-1.8 1.8-2.1 2.4-2.5 2.5-1.2 0 .9-.7 2.4-1.7 3.3-1.5 1.6-1.4 2.1 1 7.1 1.5 3 2.7 6.1 2.7 7 0 2 4.5 9.6 7 11.9 1.5 1.4 2 3.1 2 7.1 0 5-.2 5.4-4.7 9.3-4.4 3.8-6.5 4.7-14.5 6.5-1.6.4-2.8 1.3-2.8 2.1s-.7 1.5-1.5 1.5c-1.1 0-1.5 1.3-1.5 5.2 0 2.9-.5 6-1 6.8-.9 1.3-1.2 1.2-2.5-.4-.8-1.1-1.5-3.4-1.5-5.2 0-1.7-.7-3.7-1.5-4.4-1.1-.9-1.2-1.7-.4-3.2 1.6-2.9-.7-6.6-4.5-7.6-3-.8-3.1-1-3.4-7.1-.2-5.1.1-6.8 1.6-8.5 2.8-3.1 6.5-9.6 5.9-10.3-.8-.7-7.7 3.6-7.7 4.8 0 .4-.6.6-1.3.3-.7-.2-3.8 1.1-7 3s-7.3 4.1-9.2 4.8c-3.1 1-3.7 1-5.2-.5-1.3-1.3-1.5-2-.5-2.9 1.6-1.6 1.5-4.3-.2-5.8-2.2-1.7-.2-5.4 4.1-7.4 2.3-1.1 3.3-2.2 3.1-3.4-.5-2.5-3.9-2.7-5.7-.4-.9 1.1-2.6 2.3-3.8 2.7-1.9.5-2.3.3-2.3-1.7-.1-3-3.7-7.9-4.3-5.8-.3.8-.8 2.3-1.1 3.2-.3 1-1.2 1.8-2.1 1.8-1.7 0-1.4-2.1 1.5-9.8 1.8-4.7 4-6.7 4-3.7 0 .9.6 1.5 1.3 1.2.6-.2 1.1-1.1.9-2.1-.2-.9.7-2.1 2.1-2.7 1.3-.6 2.9-1.9 3.5-3 1.2-1.8 1-1.9-3.9-1.3l-5.2.6.7-2.6c.6-2.3.3-2.6-1.9-2.6-2.3 0-2.5-.4-2.5-4.3 0-2.3-.7-5.3-1.6-6.5-1.5-2.2-1.5-2.4.2-3.7 1.2-.8 2.5-1 3.5-.4 2.1 1.1 4.2-1.1 3.3-3.5-.3-.9.1-2.7 1-4.1 1.7-2.6 3.8-3.4 3.5-1.3-.6 4.8 2.4 5.2 4.5.5 1.6-3.3 6.6-9.8 6.6-8.4 0 .5-1.2 2.8-2.6 5.3-1.4 2.4-2.3 5.1-2 5.9.9 2.5 3.4 1.7 5.1-1.5.9-1.7 2-3 2.5-3 1.7 0 1.1-2.8-.7-3.9-1.5-.8-1.6-1.3-.5-3 1.5-2.5 1.5-3.4.2-2.6-1.4.9-1.3-.8.2-2.3.9-.9.7-1.3-.7-1.8-1.4-.6-2.9.4-6.2 4-2.4 2.6-4.3 4.3-4.3 3.7 0-.8-1.1-.6-3.1.4-2.4 1.3-3.3 1.4-4.5.4-1.2-1-1.9-.7-3.7 1.2l-2.2 2.4-.3-2.3c-.5-3.2-2.9-2.7-5.3 1-2.7 4.3-2 13.4 1.2 15.9 1.7 1.3 2.2 2.9 2.5 8.7.3 5.5.9 7.9 2.6 10.2l2.2 3-1.9 5.8c-1 3.1-2.5 6.6-3.1 7.6-2 2.9-.1 5.6 4 5.6 2.8 0 3.6.5 4.6 3 .7 1.6 1 3.6.7 4.4-.3.8.1 2 .9 2.6 2.3 2 1.6 3.8-2.1 5.6-1.9.9-4.9 3-6.6 4.8-3.8 3.8-9.3 15.4-11.6 24.4-.9 3.7-3.4 10.3-5.5 14.6-2.1 4.4-3.8 9.2-3.8 10.7 0 1.4-1.1 3.8-2.5 5.3s-2.5 3.5-2.5 4.6c0 1-1 3-2.2 4.3-2.8 3.1-5 14-3.6 17.7 1.7 4.6 1.1 11.4-1.5 16.6-1.3 2.7-2.8 6.5-3.2 8.4-1.2 5.4-.7 13.9 1 16.3.8 1.2 1.5 3.2 1.5 4.4 0 3.3-6.2 8.9-13.8 12.5-3.7 1.7-8.4 4.4-10.4 5.8-2 1.5-5.2 3.3-7 4-7.4 2.9-25.7 12.3-26.2 13.5-.2.7-3.4 2.9-7 4.9-3.8 2.1-7.1 4.7-7.8 6.3-.7 1.5-2.6 3.1-4.3 3.6-1.6.6-5.2 2.7-7.9 4.8-2.7 2.2-5.3 3.9-5.7 3.9-2 0-.7-4.6 2.2-7.6 7.6-7.8-2.9-8.6-15.6-1.2-9.9 5.8-11.7 6.7-14.6 7.2-2.8.6-12.5 6.9-22.4 14.6-3.3 2.5-9.1 6.6-13 9-3.8 2.4-8.2 5.5-9.7 6.8-4.6 4.2-5.9.8-1.6-4.7 1.8-2.3 2.4-8.4 1.2-11.5-.3-.9-2.8-3.1-5.5-5.1-3.6-2.6-5.9-3.5-8.8-3.5-5.3 0-6.1 1.7-1.6 3.6 2.9 1.2 3.5 1.9 3 3.5-.4 1.3 0 2.8 1 3.9 1.7 1.9 1.5 5-.4 5-.5 0-1.3-.9-1.6-2-.3-1.1-1.2-2-1.9-2-1.8 0-3.5 2.1-2.9 3.6.3.8 0 2.1-.7 2.9-1.4 1.7-3.5 2.1-2.5.5 3.4-5.5 1.5-11-2.4-6.9-2.1 2.2-2.1 2.2-2.1.2 0-1.1.6-2.6 1.4-3.3.8-.6 1.2-1.8 1-2.5-.3-.7.4-1.8 1.5-2.5 1.2-.6 2.1-1.7 2.1-2.5 0-2.2-3.4-1.8-5.5.5-1 1.1-2.4 2-3.1 2-1.6 0-5.4 5.2-5.4 7.4 0 .8-3.4 3.9-7.6 6.8-4.2 2.9-8.5 5.9-9.6 6.7-1.8 1.3-2.2 1.2-4.2-1.3-2.2-2.8-2.2-2.8-6-1.2-2.1.9-6 3.4-8.8 5.6-7.8 6.2-8.9 5.3-3.3-3 1.9-2.8 5.5-7.1 8-9.5 3.4-3.3 4.5-5.2 4.5-7.4s.8-3.6 3-5.3c6.6-4.8 7.9-10.7 2-8.7-2.2.8-3.4.8-4.5-.1s-2.4-.6-6.2 1.4c-5.5 3-19.6 14-20.2 15.7-.5 1.6 3-.4 12.7-7.2 5.3-3.8 8.2-5.4 8.2-4.4 0 2 1.3 1.9 6.1-.6 2.3-1.1 4.3-1.8 4.7-1.5.3.3-1.6 2.4-4.1 4.7-3.5 3-4.7 4.8-4.7 6.9 0 2-1 3.5-3.5 5.4-1.9 1.5-5 5-7 7.9-2 2.8-4.7 6.7-6.1 8.6-6.3 8.8-.6 8.1 13.8-1.7 6.9-4.6 8.8-5 6.9-1.4-3 5.7 1.9 5.7 10.1 0 10.7-7.6 13-9 13.5-8.4.3.3-.1 1.6-1 2.9-1.5 2.4-1.5 2.6 2.5 5.8 2.3 1.8 5.8 3.5 7.7 3.8 2.7.5 3.7 1.2 3.9 2.7.3 1.8-.4 2.2-4.5 2.8-8.3 1.1-16 8.7-16.7 16.3-.2 1.8-1.1 4-2.1 4.7-2.1 1.5-6.3 1-8.8-1.2-1.6-1.4-3.4-1.8-11.1-2.6-1.8-.2-3.7-1.3-4.9-3-2.1-2.9-2.8-2.9-13-1l-2.7.6v34.4l3.7-.4c3.4-.4 3.6-.3 2.4 1.2-.7.9-2.4 1.6-3.7 1.6-2.1 0-2.4.5-2.4 3.5 0 3.4 1.2 4.6 2.5 2.5.3-.6 2.6-1 5-1 4.9 0 6.6-1.5 3.9-3.4-2-1.5-1-3.8 1.3-2.9 1.2.5 1.5.2 1-1-.3-.9-.2-1.9.3-2.2.6-.4 1-.1 1 .6 0 .6.8.9 2 .6 1.1-.3 1.8-.1 1.4.4-.3.5-1.2.9-2 .9-1.1 0-1.3.9-.8 4.2.8 5.2 2.4 7.4 2.4 3.4 0-2.3.4-2.7 1.9-2.3 1 .2 2.5.1 3.3-.4 1.2-.7 1.7-.2 2.2 2.3.8 4-1.9 6.4-7.6 7-3.7.3-5.4-1.4-2.5-2.5.7-.3.5-.6-.5-.6-1-.1-1.8.3-1.8.9 0 .5-.8 1-1.7 1-1.5 0-1.6.2-.3 1s1.2 1-.3 1c-2.3 0-3.3 2.6-1.6 4.6 1.1 1.3 1.1 1.5-.2 1.4-2.5-.4-3.9 0-3.9 1.1 0 .6 1.4.9 3.3.7 1.9-.2 3.1-.8 3-1.6-.5-2 1.4-1.4 2 .7.3 1.5-.2 2-2.5 2.5-2.1.4-2.9 1.1-2.6 2.3.3 1.5 1.7 1.9 8.3 2.4 4.5.3 8.4.1 9-.4.6-.7.4-.8-.7-.4-1.4.5-1.8.1-1.8-1.6 0-2.5-1.3-4.9-2.6-4.8-.5 0-.8-.9-.6-1.9.2-1.1-.2-2-.7-2-.6 0-1.1.7-1.1 1.5s-.7 1.5-1.6 1.5c-1.3 0-1.4-.3-.5-1.3.6-.8.9-1.6.6-1.9-.3-.3.1-1 .8-1.7 1.2-.9 2.4.4 6.6 6.8 2.8 4.3 5.1 8.4 5.1 9 0 .6-1 1-2.2.8-1.5-.1-2.3.4-2.6 1.7-.5 2.3 1.4 3.6 5.2 3.6 1.6 0 4.6.5 6.7 1.2 3.3.9 4.2.9 5.7-.5 1-1 2.1-1.7 2.3-1.7.2 0 .4 2.2.3 4.9-.1 5.3-1.6 8-4.3 8.2-1 0-1.1.2-.3.6 1.8.7 1.5 3-1.7 13.6-2.2 6.9-2.9 11-2.6 15 .4 6.9.9 7.7 4.6 7.7 2.4 0 2.9.4 2.9 2.6v2.5l-21.5-.3-21.5-.3v2.2c0 1.3.6 2.4 1.3 2.4.6.1 13.1.4 27.7.8 25.6.6 26.5.7 26.5 2.6 0 2-.6 2-27.7 1.7-22.7-.2-27.8 0-27.8 1.1s4.9 1.5 23.8 2c13 .4 24.6.9 25.7 1.1 1.1.3 3.4.5 5.2.5 2.7.1 3.3.6 4.3 3.8.7 2.1 2.5 6.8 4.1 10.4 1.5 3.6 2.6 7.4 2.3 8.5-.3 1.3.6 3.4 2.5 5.8 2 2.4 3.2 5.4 3.6 8.4.3 2.6.8 5.9 1 7.3.3 2.2-.2 2.9-2.8 4.2-1.8.9-4.8 1.9-6.8 2.2-2 .3-4.4 1.4-5.3 2.4-1.6 1.7-1.6 2-.1 3.5 1.6 1.5 3.4 2.2 8 2.9 1.1.2 3.8.8 6 1.4 2.2.6 6.6 1.3 9.7 1.6 7.4.7 8.7-.6 7-6.9-.7-2.4-1.2-5.1-1.2-5.9 0-1.7 5-4.5 8-4.5 2.8 0 9.6-3.6 10.3-5.4.6-1.6-4.2-4.6-7.3-4.6-4.1 0-4.9-4.1-3.4-17.5.3-2.8.4-6.1.3-7.5-.1-1.4-.2-4.1-.3-6l-.1-3.5 43.4.2c28.8.1 43.7.5 44.4 1.2 1.3 1.3 1.6 12.2.4 13.8-1.7 2.4.3 4.9 5.1 6.4 6.1 1.8 18.7 1.1 22.1-1.3 2.4-1.7 2.4-1.8.6-3.8-1-1.1-3.3-2.5-5.1-3.2-2.9-1-3.4-1.8-4-5.4-1.1-7.8-1.3-7.7 11.6-7.3 6.3.1 19 .3 28.2.3l16.7.1 1 4c.6 2.5.6 4.3 0 5.1-.5.6-1.7 5.1-2.6 10l-1.6 8.8 3.3 2.7c1.8 1.5 2.9 3.2 2.6 3.7-.4.6-.2 1.3.4 1.7 1.2.7 1.3 5.5.2 7.1-.6 1-13.5 2.6-22.9 2.8-4.2.2-6 1.8-3.8 3.6 1.7 1.4 2 4 .5 4-.5 0-1.4.9-2 2.1-.9 1.6-.8 2.4.4 3.8 2 2.2 2.1 4.5.2 3.4-.8-.4-4-3.3-7.2-6.3l-5.8-5.5 5-1.1c6.6-1.4 6.7-3.8.2-4.2-2.6-.2-5.6.2-6.6.7-1.7.9-3.4-.5-12.3-9.9-10.3-10.9-10.4-11-15.1-11-2.5 0-4.8.3-5 .7-.1.5-1.6 1.5-3.3 2.3-2.4 1.3-3.1 2.3-3.3 5.3-.4 4.1 1.5 7.5 8 14.3 4.7 4.9 5.7 4.4-13.3 7-11.8 1.6-13 1.6-16.8.1-5.6-2.3-7-2.2-12.3 1.2-5.7 3.6-7.5 7.9-5.8 14 1.6 6.1 7.2 9.6 14 8.8 2.8-.3 6.5-1.6 8.2-2.8 2.8-2 4.1-2.2 14.2-2 10.1.2 28.8-1.2 32.6-2.4 1-.3 3.7 2 7.5 6.6 14.4 17 15.4 17.9 19.9 17.9 2.3-.1 6-.5 8.4-.9 2.3-.5 4.2-.5 4.2 0 0 .4-2.5 3-5.5 5.7-4.4 3.9-6.7 5.1-11.3 6.1-3.1.7-7.1 1.6-8.8 2.2-1.7.5-4.4.9-6.1.9-3.4 0-16.9 5.2-18.9 7.2-.7.7-1.4 2.2-1.6 3.3-.7 4.6 11.4 5.4 70.2 4.5 10-.2 17.5.1 19.1.8 2.1.9 3.1 2.5 4.9 7.9 3.7 11.6 4.1 12.3 6.5 12.3h2.2l-1.8-7.2c-1-4-5.1-20.4-9.2-36.3-4.1-16-9.5-37.8-12.2-48.5-10.8-44.4-15.5-63.4-19.8-80-10.1-39-17.8-71.2-17.3-72.6.9-2.3 3.3-1.6 4.4 1.3.5 1.6 2 7.1 3.2 12.3 1.2 5.2 3.2 12 4.5 15 2.1 5.1 4.9 15.9 12.5 49 1.7 7.4 3.7 15.5 4.5 18 .8 2.5 2.4 8.5 3.5 13.5 1.2 4.9 3.6 15.3 5.5 23 1.9 7.7 5 21 7.1 29.5 2 8.5 7.3 30.6 11.9 49l8.2 33.5 2.8.3c2.1.3 2.6 0 2.2-1.1-.5-1.4-6.9-27-16-64.2-1.9-7.7-4.8-19.2-6.5-25.5-1.6-6.3-4.7-18.7-6.7-27.5-2.1-8.8-6.6-27.9-10.2-42.5-3.5-14.6-7.1-29.7-8-33.5-2-8.6-4.5-17.6-7.7-27.5-2.1-6.6-6.6-24.6-6.6-26.4 0-.3 1.3-.6 2.9-.6 2.7 0 2.9.3 4.1 6.2.7 3.5 2.3 10.1 3.6 14.8 1.3 4.7 3.5 13.4 4.9 19.5 1.4 6 3.7 15.3 5 20.5 2.4 9.4 4 16 9.5 39.5 1.6 6.6 4.4 18.3 6.3 26 1.9 7.7 3.9 16.2 4.5 19 .7 2.7 3 12.6 5.2 22 2.2 9.3 5.4 22.8 7 30 1.7 7.2 5.2 21.7 7.8 32.2 4.4 18.3 4.8 19.3 7.1 19.3 1.9 0 2.2-.4 1.7-2.3-.3-1.2-2-7.8-3.6-14.7-1.7-6.9-3.5-13.6-4-15-.6-1.4-2.6-9.4-4.5-17.9-2.8-12.4-3.3-16.1-2.5-18.9.5-1.9.7-5.3.4-7.6-.6-5 .8-10.2 2.6-9.8.8.2 4.3-.1 7.9-.7 24.2-3.6 51.5-7.1 73.1-9.2 7.5-.7 13.1-1.7 14.1-2.5 2.3-2.1 3.9-1.7 3.9.9 0 1.3 1.2 6.1 2.6 10.8 4.2 13.8 5.4 23.9 4.5 36.4-.4 6.1-.5 12.1-.1 13.5.4 1.6 2.2 3.4 5.2 5 6.4 3.6 7.5 4.6 8.2 8.4.4 2.2 2.2 4.8 5 7.4 5.8 5.4 9.6 7.2 17 8.3 9 1.2 36.4 1.5 37.6.3 1.4-1.4-.5-10.8-3.3-16.4-1.9-3.7-3.7-5.3-10.2-9.2-4.4-2.5-9.2-5.6-10.8-6.8-3.6-2.8-8.7-10.4-9.8-14.4-.4-1.7-1.5-5.6-2.4-8.6-.8-3-2-10-2.6-15.5-.5-5.5-1.4-11.3-1.9-13-.8-2.3-.7-3.1.5-3.8.8-.4 1.5-1.2 1.5-1.8 0-.5 1-2.1 2.3-3.4 1.9-2.1 3.8-2.7 14.7-4 6.9-.8 17.2-2.2 23-3 5.8-.8 11.3-1.5 12.3-1.5.9 0 1.7-.7 1.7-1.5 0-.9-.9-1.5-2.2-1.5-3 0-25 2.6-34.8 4.1-4.2.7-8.9.9-10.3.5-2.4-.6-2.7-1.1-2.7-4.6 0-4.6-1.8-4.2 24.5-6.5 24.6-2.2 25.5-2.4 25.5-4.6 0-1.6-.6-1.8-3.7-1.4-2.1.2-10.1.9-17.8 1.5-7.7.6-17.5 1.4-21.7 1.8l-7.7.8-1.1-3c-.5-1.6-1-4.5-1-6.5 0-2.1-.5-4.2-1.2-4.9-.6-.6-1.3-3.4-1.5-6.2l-.3-5 11.8-.1c6.4 0 19 0 28 .1 15.7.1 16.2.1 16.2-1.9s-.6-2-24.2-2c-13.4-.1-26.2-.1-28.5-.1-3.9 0-4.3-.2-4.3-2.5V723l11.3-.2c6.1-.1 19-.1 28.5 0l17.3.1-.3-2.7c-.3-2.5-.7-2.7-4.2-2.5-2.9.1-3.6-.1-2.7-1 1.9-1.9 1.2-3.4-1.6-4-3-.6-4.8 1-3.3 2.9.6.6.7 1.4.3 1.7-1.1 1.2-4.1.8-4.6-.6-.4-.9-.6-.9-.6 0-.1.8-1.5 1.3-3.7 1.3-3.2 0-3.5-.2-2.4-1.5 1.8-2.2.3-3.2-5.1-3.7-4.8-.3-5.3.5-2.6 3.9.7 1-1.1 1.3-8.4 1.3-7.6 0-9-.2-7.7-1.3.8-.6 1.8-2 2.1-3 .6-1.5-.1-1.7-5.3-1.7-5.1 0-6 .3-6 1.8 0 1 .5 2.3 1.2 3 .7.7.9 1.2.5 1.2-1 0-4.7-3.3-4.7-4.2 0-.4-1.3-3.6-2.9-7-4.2-8.9-4.8-11.8-2.5-11.8 1.1 0 2.8.7 3.8 1.5 1.1.8 3.5 1.5 5.3 1.5 3.8 0 5.8-2.7 5-6.8-.3-1.8.3-3.6 2-5.9 2.4-3.2 2.6-3.2 4.2-1.4 2.2 2.6 10.4 3.6 12.2 1.5 2.1-2.5-1-4.5-7.3-4.7-4.5-.1-5.4-.4-5.1-1.7.5-1.8 5.3-4.6 9.8-5.6 1.7-.4 3.9-1.3 5-2 2.5-1.8 3.5-1.8 3.5.1 0 1.7 2.1 2 3.6.6.5-.5 2.2-1.1 3.8-1.3 3.3-.3 4.7-2.5 2.2-3.3-5.2-1.6-5.1-1.4-2.5-4.1 1.2-1.3 2.9-2.2 3.5-2 .7.3 1.8-.2 2.4-1 .7-.8 1.9-1.4 2.6-1.4.8 0 1.4-.5 1.4-1 0-.6-1.5-1-3.4-1s-3.8-.5-4.1-1c-.7-1.1 2.3-10 3.4-10 1.4.1 2.6 1.6 2.6 3.5 0 2.2 3 3.1 7.1 2.1 2.7-.7 3.1-3.2 1-6.1-1.3-1.8-1.4-1.8-2.5.4-1.4 2.5-2.4 2.1-2.6-1-.1-1.3 1.2-3 3.5-4.7 3.6-2.6 3.7-2.8 3.8-9.3 0-5.7-.2-6.7-1.5-6.2s-1.5.1-1-1.9c.6-2.2.3-2.5-4.3-3.7-2.8-.7-5.2-1.6-5.4-2-.3-.4 1.1-1.6 3.1-2.6 3.3-1.8 3.6-1.8 6.5-.2l2.9 1.7-.3-2.6c-.2-1.5-1.4-3.2-3.1-4.2-2.6-1.6-2.9-1.6-5.5 0-1.5 1-4.2 2.5-5.9 3.4l-3.3 1.8-3.5-3.7c-2-2-6.1-5.3-9.1-7.2-8.4-5.4-13.1-11-18.1-21.5-5.7-11.9-7.5-16.8-11.2-30.2-3.1-11-5.4-15.8-7.6-15.8-2.4 0-4.5 1.2-4.5 2.5 0 .8-1 1.5-2.2 1.7-3 .4-3.5 4.5-1.2 9l1.7 3.3-2.1-1.8c-4.8-4.3-8.9.5-9.8 11.3-.6 6.6-.3 8.3 1.8 13.5 1.4 3.3 2.9 6.9 3.3 8 .4 1.1.7 2.9.6 4.1-.1 1.2.7 4.8 1.8 8 3.4 10.1 4.7 16.6 8.1 40.4.4 3 1.5 8.9 2.4 13 .9 4.2 1.8 8.9 2 10.5.2 1.7.9 4.6 1.5 6.5 1.8 5.7 1.6 6.1-2.8 4.5-9.2-3.2-13.6-7.4-22.1-21-4-6.4-4.3-7.5-4.2-13.3 0-5.3-.2-6.2-1.6-6-1.2.2-1.6-.3-1.4-1.8.4-2.9-2.4-5.1-4.7-3.7-1.7 1-1.8.7-1.7-3.5.1-4.1-.2-4.7-1.9-4.7-1.8 0-2 .6-1.8 8 .2 14.5 8.4 32.6 18.6 41.7 5.9 5.2 4.1 5.7-2 .5-5.6-4.7-14.1-15.7-19-24.4-3.7-6.5-7.9-19.2-8.9-27-.8-6.4-2.9-8.7-5.1-5.8-2.2 2.9-1.3 15.9 1.4 20.5 1.2 1.9 2.8 5.7 3.7 8.5 3.2 10 17.5 27.7 29.3 36.5 5 3.8 7.6 5 12.8 6 3.6.7 6.9 1 7.2.6.3-.3 1.4.8 2.4 2.4 2.2 3.5 3.9 3.8 4.6 1 .5-1.7.9-1.4 2.5 2 1.1 2.3 1.8 4.3 1.5 4.6-.3.3-2.8-1.1-5.6-3-2.8-2-6.6-3.8-8.3-4-21.1-2.8-24.8-4.6-40.4-19.3-7-6.7-9.5-10.2-16.2-23.5-7.6-14.7-12.7-29.5-11.9-34.2.8-5-1.4-6.6-4.2-3-1.2 1.5-2.1 3.4-2.1 4.2 0 3.9 7.9 24 14.3 36.7 6.7 13 7.9 14.7 16.7 23.4 5.2 5.1 11.4 10.6 13.8 12.1l4.3 2.8-8.3.1c-4.6 0-10.7-.6-13.6-1.3-3.2-.9-7.4-1.2-10.8-.9l-5.5.6-4.5-4.7c-4.5-4.8-6.8-5.3-8.1-2.1-.7 2 3.6 6.7 9.7 10.3l4.5 2.7-4.6.3c-3.9.3-5.1-.1-7.6-2.5-1.7-1.6-3.3-4.2-3.7-5.9-.4-1.7-2.3-4.6-4.2-6.5-6.5-6.2-9.4-14.5-9.3-26.4l.1-8 1.3 4.5c3.2 11.4 11.5 26 14.6 26 2.7 0 2.4-2.3-1.4-9.4-5.9-11-8.9-20.3-9.2-29.1-.7-17.2-.6-21.1.4-24.4 1.1-3.7-.1-7.5-2.2-6.9-.7.2-2.1 2.2-3.2 4.4-1.6 3.1-2 5.7-1.9 12.9.1 5.8-.1 7.8-.5 5.5-.4-1.9-.8-8.8-1-15.2-.2-9.9 0-11.7 1.3-11.2 2.3.9 2.6-.9 1.6-9.7-1.8-15.9-7-14.2-8.2 2.6-.7 10.3 1.2 38.1 2.8 40.7.3.5.8 6.7 1.1 13.9.6 14.8 2.6 23.3 6.9 29.9 7.5 11.1 8 12.7 3 9.4-2.1-1.3-3.9-1.5-8.1-1-6.1.7-5.3 1.3-8.5-6.9-5.2-12.9-7-25.8-7.6-52.5-.4-14.5-.1-23.4.9-30.5.8-5.5 1.2-10.6 1-11.3-.7-1.8-4.1-1.5-5.2.6-2.5 4.6-3.6 48.2-1.6 60.7.3 1.6 1 7.9 1.6 14 .6 6 1.4 12.8 1.9 15 .5 2.2.7 4.1.5 4.3-1.1 1.1-6.3-3.4-7.1-6.2-.8-2.7-1.3-3.1-4.1-3l-3.3.2v-5.4c0-4 .4-5.5 1.7-6.3 1.5-.8 1.6-1.4.5-4.3-.6-1.9-1.1-6.4-1.1-10.1.1-3.7-.5-9.6-1.2-13.2-2.1-10.7 1.1-42.6 4.9-48.3.8-1.3 1.6-4.5 1.7-7 0-2.6.4-5.9.9-7.3.8-2.8-1.6-6.3-3.8-5.6-1.6.5-6.6 16-7.6 23.7-.5 3.6-1.2 8.5-1.5 11-1.5 10.9-2.1 10.9-1.9 0 .2-8.1.9-13.4 2.3-18 1.1-3.6 2.4-9.3 3-12.7.5-3.4 1.4-7.1 2-8.1.6-1.1 2-5 3.2-8.8 1.2-3.8 2.9-7.7 3.7-8.7 1.2-1.3 1.3-2.2.4-4-.6-1.2-1-3.7-1-5.5.1-2.6.5-3.2 2.3-3.2 3.7 0 5.1-2.5 3.1-5.5-.9-1.4-2.1-2.5-2.6-2.5-.6 0-1-1.3-1-2.8 0-1.5-.5-3.3-1.1-3.9-.6-.6-1.4-5.3-1.9-10.4-.8-9.2-4.7-28.5-7-34.3-.6-1.6-1.5-7-2-12-.5-5.7-1.7-11-3.1-14.1-2-4.3-2.4-7.1-2.7-19-.2-7.7-.8-14.4-1.3-15-.6-.6-1.5-.3-2.4.6-1.1 1.1-1.6 3.6-1.6 8.5-.1 7.6-1.2 10.7-3.7 10.2-1.3-.3-1.7-1.5-1.7-5.7 0-4.7-.3-5.6-2.8-7.5-3.5-2.6-6-1.3-6.7 3.5-.5 3.6-1.7 4-6.7 2.4-1.8-.6-3 0-5.4 2.6-2.4 2.5-2.9 2.8-2 1 .7-1.2 1.1-3.1.8-4.1-.3-1.1.5-2.7 1.9-3.9 1.3-1.2 2.4-2.6 2.4-3.1 0-.7.7-.7 2.1 0 1.1.7 2.7.9 3.5.6 1.8-.7 1.8-4 0-5.5-2-1.7.3-12.2 4.1-19.1 1.8-3 3.4-7.3 3.8-9.5.3-2.2 2-8.1 3.8-13 2.5-7.3 4-9.9 7.9-13.8l4.7-4.7 2.5 2.5c1.9 1.9 3.5 2.5 7.1 2.5 2.5 0 4.5.1 4.5.3 0 .1.4 1.6.9 3.4.7 2.5.6 3.1-.4 2.7-.8-.3-1.2-1.1-.9-1.8.8-2.2-2.2-3.9-4.5-2.6-2.3 1.2-2.7 2.5-1 3.5.6.4.8 1.3.5 2-.3.8.2 1.9 1 2.6 1.1.9 1.2 1.4.3 2-1.9 1.2-.2 3.9 2.5 3.9 3 0 4.2-1.6 2.6-3.5-.9-1.1-.9-1.8.4-3 1.5-1.5 1.6-1.3 1.6 2.9 0 6.2 4.5 17 8.8 21.2 1.9 1.9 5.2 4.1 7.3 5.1 4.9 2.1 5.1 4 .5 3.5-2.6-.3-3.6-.9-3.8-2.6-.2-1.7-.9-2.1-3.5-2-2.2.1-3-.2-2.7-1.1.8-1.9-1.4-2.9-3.1-1.5-2.2 1.8-1.8 4 .5 4 1.1 0 2.3.8 2.7 1.7.9 2.6 4.4 5.3 7 5.3 1.2 0 2.5.5 2.8 1 .4.6 1.4.9 2.3.8 1.4-.3 1.8.7 2 5.3l.3 5.7-4.6-1.6c-3.4-1.1-4.9-1.2-5.7-.4-1.4 1.4 1.7 5.2 4.2 5.2s6.2 3.9 5.8 6.3c-.3 1.9-.9 2.1-4.4 1.9-4.8-.4-6.7 1.4-3.9 3.5 1.1.7 2.7 1.3 3.7 1.3 2.5 0 5.7 3.5 6.4 6.8.5 2.6.4 2.7-3.7 2.7-7.9 0-5 4.4 3.1 4.8 2.2.1 4 .5 4 1 0 1.1 4.7 5.7 5.9 5.7.5 0 1.7-.7 2.5-1.6 1.5-1.4 1.6-1.3 1.6.8 0 5.2-3.3 16.4-5.4 18.3-2.6 2.4-4.6 6.7-5.2 11.3-.6 4.8-1 5.2-4.5 4.2-1.7-.5-3.4-.9-3.8-.8-.3.1-2.7-.2-5.4-.6-5.9-1-11.7 1.3-11.7 4.6 0 1.2-.7 3-1.6 4-1.2 1.2-1.4 2.1-.7 3 1.4 1.7 2.2 7.8 1.1 8.4-.4.3-.8 2-.8 3.9 0 5.6 8.9 13.5 15.2 13.5 1.1 0 2.6.7 3.3 1.7.7.9 1.9 1.4 2.9 1 4-1.6-.3-7.7-5.5-7.7-1.7 0-4.5-1.1-6.3-2.5-2.8-2.1-3.4-3.4-3.9-7.7-.7-5.9-.2-7.2 2.1-5.9 1.2.7 1.7 2.3 1.7 5.8 0 4.6.1 4.9 3.5 6 1.9.7 5.4 1.2 7.6 1.2l4.1.1.7 9c.7 9 .7 9.1-1.8 11.1-5.9 4.6.6 4.8 7.9.3 3.8-2.4 3.8-2.3-1.3 2.5-3.9 3.7-5.2 5.6-4.7 7 .3 1-.1 2.3-.9 3-1.1.9-1.8.5-3.4-2.3l-2-3.4 2.1-.6c1.7-.4 1.9-.8.9-1.8-1.7-1.7-4.4 0-5.6 3.6-.8 2.1-.5 3.6 1.4 7.4 1.3 2.6 2.2 5.7 2.1 6.9-.2 1.7.6 2.6 3.6 3.8 7 3 26.1 6.3 37 6.5 2.5 0 7.3-2.8 15.1-9.1 10.1-8 12.1-9.2 12.8-7.6.3.9 2.2 2.7 4.3 4.1 3.1 2.2 4.1 2.4 7.1 1.6 4-1.1 11-6.5 11-8.5 0-1.5 2.7-2.9 5.1-2.6.9.1 2.2-.5 2.9-1.4.7-.8 2.1-1.5 3.1-1.5 1.1 0 2.3-1 2.9-2.4 1-2.9 2.9-3.7 5.2-2.3 2.9 1.8 9.8-1.2 15.9-7.1 6.8-6.3 11.8-9.1 15.4-8.4 2.2.4 3.5-.4 7.3-4.5 5.9-6.4 8-12.2 8.8-24.9.5-8.5.2-11.3-1.9-20.1-2.4-9.7-7.5-22.5-12-30-2.2-3.8-1.3-6.1 1-2.6 1.5 2.2 4.2 3.1 4.4 1.5 0-.4.2-2.2.5-4.1.2-2-.1-4.1-.9-5-.8-.9-1.9-3.1-2.6-5-.6-1.9-2-4-3.1-4.8-1.5-1-2-2.5-2-5.7 0-3.6-.6-4.8-4-8.1-2.2-2.1-4.5-5.4-5.1-7.2-.6-1.8-2.4-4.2-4-5.4-3.2-2.3-7.9-10.9-7.9-14.6 0-1.9-8.5-11.5-14.9-16.8-.6-.6-2.8-3.1-4.7-5.7-3.9-5.2-8.7-7.8-15.1-8.6-2.6-.3-4.3-1-4.3-1.8 0-.7.9-5.2 2-10.1 3.3-15.2 9-41.4 11.1-51.3 1.1-5.2 2.6-12.2 3.4-15.5.8-3.3 3.5-15.7 6.1-27.5 2.6-11.8 5.3-24.2 6-27.5.8-3.3 1.6-7.1 1.8-8.5.3-1.4 1.4-6 2.5-10.4 1.2-4.3 2.1-9 2.1-10.3 0-2.7-4.3-12.8-5.9-13.7-.6-.4-2.8 1-5.1 3.1-3.6 3.5-4.3 4.9-7.1 15.8-1.8 6.6-3.5 13.6-3.9 15.5-.5 1.9-1.6 6.9-2.5 11-5.1 23.2-1.9-7.8 4.1-39.3 2.9-15.4 2.9-15.8.4-18.5-2.9-3-5.1-2.8-8.7 1zm3.2 4.7c.3.5-.3 3.3-1.4 6.3-1 2.9-2.2 7.3-2.5 9.8-.7 5.7-1.4 9.3-2.7 15-1.4 6.3-3.5 16.1-6.9 33-4 19.4-11 47.8-12.7 51.5-1.3 2.8-1.3 2.7-.7-2.5.4-3 1.1-6.6 1.6-8 1-2.6 5.4-22.3 9.3-42 1.3-6.3 3.3-15.8 4.4-21 5-22.2 7.1-32.7 7.1-35.8 0-5.2 2.7-9 4.5-6.3zm17.2 14.3c-.4 1.8-1.6 7.1-2.7 11.8-3 12.4-5.8 25.1-8 36.5-1.1 5.5-2.4 11.1-2.9 12.5-2.7 7.6-9 33.1-17.7 71.5-.9 3.8-2.4 9.9-3.4 13.5-1 3.6-2.6 10.3-3.5 15-.8 4.7-2 10.1-2.5 12-.5 1.9-1.8 7.5-2.8 12.5-1.1 4.9-3 12.8-4.2 17.5-1.2 4.7-3.4 14.6-5 22s-5.4 23.4-8.4 35.5c-3.1 12.1-5.6 23.1-5.6 24.5-.1 1.4-1.1 6.3-2.4 10.9-2.4 9.1-3.5 10.2-9.2 9.4-1.7-.3-4.4.1-6 .9-1.6.7-4.9 1.2-7.2 1l-4.4-.3.7-3.7c.4-2 1.3-5.2 2-6.9 1.3-3 1.6-3.2 4-2.3 1.5.6 4 1 5.6 1 2.8 0 2.9.1 2.3 3.9-.5 3-.3 3.9 1 4.4 1.1.5 2-.1 2.6-1.6.8-1.9 9.1-35.5 11.8-47.7.6-2.5 1.7-7.2 2.5-10.5.9-3.3 3.4-13.9 5.7-23.5 5-21.1 9.2-38 29.5-118.5 8.6-34.1 16.1-63.6 16.5-65.5 1.4-6 5.7-24.2 7.6-31.8 1.2-4.8 2.3-7.2 3.2-7.2 1.1 0 1.3.8.9 3.2zm-17.1 2.6c-1.2 1.1-1.8-.7-1-3l.8-2.3.4 2.3c.2 1.3.1 2.6-.2 3zm18.1 14.4c-.3.8-.6.5-.6-.6-.1-1.1.2-1.7.5-1.3.3.3.4 1.2.1 1.9zm-23.3 15.9c-1.5 8.1-3.3 13.3-3.4 9.9 0-1.9 4.2-19.1 4.6-18.7.2.2-.4 4.1-1.2 8.8zm21-5.2c-.4 1.7-.9 3-1.1 2.7-.3-.2-.2-1.9.2-3.6.9-4.1 1.7-3.3.9.9zm-1.7 6.3c-.3.8-.6.5-.6-.6-.1-1.1.2-1.7.5-1.3.3.3.4 1.2.1 1.9zm-1.7 8.9c-.7 3.5-1.6 7.1-2.1 7.9-.8 1.2-.9 1.1-.5-.5.3-1.1 1-4.8 1.7-8.3.6-3.4 1.4-6.1 1.6-5.8.2.2-.1 3.3-.7 6.7zm-20 3.4c0 2.3-4.5 20.2-5.3 21-.6.7-.8.2-.3-1.5.4-1.4 1.4-6.4 2.4-11.3.9-4.8 2-8.7 2.4-8.7.5 0 .8.2.8.5zm14 24.2c-1.2 5.4-3 13.6-4 18.3-1.1 4.7-2.7 12.1-3.6 16.5-.9 4.4-2 9.6-2.4 11.5-1.5 6.7-5.2 23.6-7.1 32.5-1 4.9-2.5 11.7-3.3 15-2 8.7-7.7 34.2-8.7 39.5-.5 2.5-2.5 11.7-4.5 20.5-1.9 8.8-5.7 26.3-8.4 39-8.1 38.3-8.9 41.2-11.1 41.8-2.5.7-2.4-.1.6-12.6 1.3-5.6 4-17.9 5.9-27.2 5.8-28.8 12.5-59.2 18.2-82.5 2.4-10 3.7-18 3-18.7-.3-.3.1-1.4.9-2.3.8-.9 1.9-3.6 2.4-6.1.9-4.4 3.3-14.1 5.2-21.1.5-2 1.2-5.6 1.5-8 .4-2.4 1-5 1.5-5.9.9-1.8 2.9-9.8 3.5-13.9.2-1.4 1.3-6.3 2.4-11 1.2-4.7 2.8-11.7 3.6-15.5 1.8-8.9 5.8-21.9 6.2-20.6.2.6-.6 5.5-1.8 10.8zm-20.4 9.6c-.9 5.7-1.6 11.9-1.6 13.8 0 1.8-.4 4.6-.9 6.3-.6 1.7-2.2 8.5-3.6 15.1-1.5 6.6-4.5 19.3-6.7 28.3-2.1 8.9-4.1 17.5-4.3 19-.2 1.5-2 9-4 16.7-2.1 7.7-4.1 16-4.6 18.5-.5 2.4-1.6 6.9-2.4 10-1.7 6.2-7.2 29.7-10.4 44-3.1 13.6-4.3 18.1-4.8 17.6-.3-.2 1.1-8 3.1-17.3 1.9-9.2 4.7-22.7 6.1-29.8 1.4-7.2 3.7-18 5.1-24 1.3-6.1 3.1-14.2 3.9-18C383 343 391 307.1 393.2 298c1.1-4.7 2.4-10.5 2.9-13s1.8-8.1 2.8-12.5c1.1-4.4 3-12.5 4.2-18 1.2-5.5 2.3-10.4 2.6-10.8 1.3-2.2 1.3 1-.1 10.6zm-69.6 2.8c0 1.8-.2 1.9-1.5.9-1.5-1.2-1.2-3 .6-3 .5 0 .9 1 .9 2.1zm5.8 4.4c-1.1 1.1-6.8.8-6.8-.4 0-.4 1.1-.6 2.5-.3 1.9.3 2.5 0 2.5-1.4.1-1.8.1-1.8 1.1-.1.6 1 .9 2 .7 2.2zm16.2 3c-.7.8-1.7 1.2-2.3.8-.6-.4-.3-1.1.8-1.9 2.3-1.7 3.2-1 1.5 1.1zm-35 2c-1.3 1.4-2.6 2.3-2.8 2-.3-.3.5-1.6 1.8-3s2.6-2.3 2.8-2c.3.3-.5 1.6-1.8 3zm12-.5c0 .5-.5 1-1.1 1-.5 0-.7-.5-.4-1 .3-.6.8-1 1.1-1 .2 0 .4.4.4 1zm-8 1c0 .5-.4 1-1 1-.5 0-1-.5-1-1 0-.6.5-1 1-1 .6 0 1 .4 1 1zm13.5 2c-.9 1-1.5 2.6-1.2 3.4.4.9-.6 2.2-2.6 3.5-3.8 2.4-5.9 1.6-2.6-1.1 2.3-1.8 2.3-1.9.3-1.3-1.4.3-2.4 0-2.7-.9-.6-1.6 5.4-5.4 8.7-5.5 1.8-.1 1.8 0 .1 1.9zm3.5 6c0 .5-.5 1-1.1 1-.5 0-.7-.5-.4-1 .3-.6.8-1 1.1-1 .2 0 .4.4.4 1zm6.9 2.4c3.1 2.8 8.3 4.4 7.5 2.2-.3-.7.2-1.6 1-1.9 1.2-.5 1.3-.1.7 1.6-.7 1.8-1.7 2.2-5.2 2.3-2.4 0-4.5.5-4.5 1-.5 3.3-2 5.4-4.5 6.3-3.3 1.1-3.7.7-3.4-3.4.4-5 1.6-8.5 3.4-9.5 2.2-1.3 2.2-1.3 5 1.4zm-31.3.1c-1.1.8-2.2 1.2-2.5.9-.6-.6 1.9-2.4 3.4-2.4.6.1.1.7-.9 1.5zm66.9 27.5c-3.1 12.9-7.5 32.9-9.9 44.5-2.4 11.5-5.8 27.1-7.5 34.5-1.7 7.4-5.1 23.2-7.5 35-10.2 49.1-9.3 46-13.1 46-2.8 0-3.1-.7-1.1-3.5 1.1-1.6 4.9-17.6 7.9-33.5 2-10.4 13.9-61.6 16.8-72.3.5-2.1 1.8-7.5 2.9-12 1-4.5 4.8-19.9 8.5-34.2 3.7-14.3 7-27.1 7.3-28.5.3-1.4.7-1.8.9-1 .2.8-2.2 12.1-5.2 25zM358 285.5c.7.9.8 1.5.2 1.5-.5 0-1.2-.7-1.6-1.5-.3-.8-.4-1.5-.2-1.5s.9.7 1.6 1.5zm1.3 5c.3 1.3-2.9 1.9-5.1 1-1.5-.6-1.5-.8.3-1.5 2.4-1.1 4.5-.8 4.8.5zm5.2 1.5c.3.5-.1 1-1.1 1-1.3 0-1.5.6-1.1 2.8.5 2.6.4 2.8-2.9 2.9-1.9.1-3.4-.1-3.4-.3 0-.8 6.3-7.4 7-7.4.5 0 1.2.4 1.5 1zm-24.6 6.2c-.5 1-1.4 1.6-2 1.3-.5-.4-.5-1.4.1-2.6.6-1.1.8-2.5.5-3.2-.4-.6 0-.4.9.7 1.1 1.4 1.3 2.4.5 3.8zm5.6-2.3c-.3.6-1.1 1.1-1.7 1.1-.6 0-.6-.6.2-1.5 1.4-1.7 2.6-1.3 1.5.4zm35.8 6.3c-.9 4-6.4 25.3-6.8 26.6-.4 1-1 1-3.3-.2-1.8-.9-3.3-1.1-4.4-.5-2.4 1.4-8.5-1.6-10.3-5.1-2.2-4.2-1.9-4.8 2.5-6.1 4.4-1.3 4.9-2.5 2.3-4.5-1.6-1.2-1.5-1.3 1.5-1.4 1.7 0 3.2.5 3.2 1 0 .6 1.4-.2 3.1-1.7 2.9-2.7 3-2.8 1-3.7-3.3-1.4-2.4-2.8 1.3-2.1 3.2.7 7.7-.7 7.5-2.3-.3-1.6.2-2.2 1.5-2.2 1 0 1.2.7.9 2.2zm-48.6 2.3c-.2 4.2-1.7 4.7-1.7.7 0-2.5.7-4.2 1.6-4.2.1 0 .2 1.6.1 3.5zm85.9 44c4.1 1.7 14.4 10.2 14.4 11.9 0 .6 2.5 3.7 5.5 7 3.4 3.6 5.5 6.7 5.5 8.2 0 1.2 1.9 6.2 4.2 11.1 3.2 6.7 5.6 10.1 10.1 14.4 4.6 4.5 5.4 5.6 3.5 5.2-1.5-.3-3 .3-4.3 1.6-1.8 2.1-1.8 2.2.3 6 2.7 4.8 2.8 8.1.2 11.4-1.1 1.4-2 3-2 3.7 0 .6-.8.9-1.7.6-1-.2-3.3-.7-5-1.1-2.9-.6-3.3-1-3.3-4 0-1.8-.7-3.8-1.5-4.5-.8-.7-1.5-2.9-1.5-4.9 0-2-.5-4.2-1.2-4.9-2.7-2.7-9.5-.5-11.8 3.9-.8 1.4-.7 2.7.3 4.7 4.1 7.8 4.1 7.9 1.6 11.1-3 3.8-5 3.5-6.1-.9-.9-3.5-3.1-6-5.4-6-.7 0-2.6 1.2-4.3 2.6-3.3 2.7-3.9 6-2 9.5.7 1.5.7 2.4-.1 3.5-1.6 1.9-3 .9-3-2.2 0-6.7-5-8.5-9.4-3.3-1.4 1.7-2.6 3.4-2.6 3.9 0 2 5.3 11.1 7 12 1.1.6 1.7 1.6 1.4 2.4-.3.7.2 3.2 1 5.5 1 2.9 1.1 5.2.5 7.3-.6 2.3-.4 3.8.8 5.8 1.5 2.6 1.5 3-.5 6.2s-2 3.7-.7 8.3c1.8 5.8 1 7.6-5.4 12.2-2.2 1.5-4.7 4.1-5.7 5.8-.9 1.6-2.8 4.2-4.1 5.6-1.8 1.9-2.1 2.9-1.3 3.4 1.6 1-.6 2.5-3.7 2.5-2.7 0-5.4 2.6-4.7 4.4.3.8 0 1.7-.6 2.1-1.3.8-10 .9-10.7.1-.3-.3.1-2.4.9-4.8 1.1-3.1 2.1-4.4 3.9-4.8 1.5-.4 2.4-1.3 2.4-2.5 0-2.4-3.1-3.1-18.4-3.9-6.3-.4-11.8-.9-12.1-1.1-.4-.2-5.4-.7-11.1-1-13.4-.7-13.5-.8-13.6-5-.1-3.4.9-4.6 2.2-2.5.4.7 1.3.6 2.6-.1 2.1-1.1 15.2-.3 43.9 2.6 2.5.3 7.7.7 11.5 1 3.9.3 7.7.8 8.7 1.1 2 .6 3-.8 3.4-5 1-8.9 1.8-8-7.1-9.3-4.4-.6-8.1-1.2-8.2-1.2-.9-.3 0-7.4 1.6-13.9 1.8-7.1 3.6-15.5 7.6-35.2.8-4.1 2.1-10.7 2.9-14.5 5.8-27.6 8.9-42.2 10.7-50 1.9-8.2 2.9-13 4.4-20.8.4-2.2 1.1-2.7 3.6-2.7 1.6 0 4.6.7 6.5 1.5zm-56 25.3l-2.9 2.7 2.3-3.2c1.3-1.8 2.6-3 2.9-2.8.3.3-.8 1.8-2.3 3.3zm-5.6 4.6c0 .3-.4.8-1 1.1-.5.3-1 .1-1-.4 0-.6.5-1.1 1-1.1.6 0 1 .2 1 .4zm1.6 8.3c.4 1 .6 2.5.5 3.3-.2 2.4-3.4 16.5-3.7 16.9-.2.2-1.2-.6-2.2-1.9-1.5-1.9-2.2-2.1-3.9-1.1-2.7 1.4-3.8 4.8-2.3 6.6 1.8 2.2 4.7 1.8 6.5-.8 1.6-2.1 1.6-2.1 1 2.3-1.2 8-1.4 8.4-3.6 6.4-1-.9-2.7-1.4-3.9-1.1-2.3.6-2.5-.9-1.4-12.5.7-6.6.7-6.6 3.1-5.5 3.5 1.6 6.1-1.2 4.7-5-.7-2.2-1.6-2.8-3.7-2.8-1.5.1-2.7-.3-2.7-.7 0-.4.6-.8 1.4-.8.7 0 1.9-.7 2.7-1.6 1.1-1.4 1.4-1.3 2.6 1 .8 1.4 1.8 2.6 2.4 2.6 1.9 0 2.1-3.1.4-5-1.5-1.7-1.6-2-.3-2 .9 0 1.9.8 2.4 1.7zM471 423.2c0 4-2.4 3.2-2.8-1-.3-2.5 0-3.1 1.2-2.6 1 .4 1.6 1.8 1.6 3.6zm-120.9 2.3c1.3-.5 1.9-.2 1.9 1 0 .8-.8 1.8-1.7 2.1-1 .3-2.5.9-3.5 1.4-1.9 1.1-2.8-.6-2.8-5.1V422l2.1 2.1c1.3 1.3 2.7 1.8 4 1.4zm131.6 61.6c-.3 4.5-1 8.6-1.7 9.2-.9.9-1.1.5-.7-1.8.3-1.7.9-5.8 1.2-9.3 1-9 1.9-7.6 1.2 1.9zM339.6 485c8.8 1.2 9.1 1.3 8.6 3.6l-.4 2.4-13.7-.6c-17.6-.9-19.7-1.6-17.2-6.2 1-1.9 2.1-1.9 22.7.8zm27.2-.9c2 0 4.9.2 6.3.5l2.7.5-1.6 4-1.5 3.9H354v-4.3c0-2.4.3-4.7.7-5.1.4-.4 2.5-.4 4.6-.1 2.1.4 5.5.7 7.5.6zm-119.3 13.2c0 7.9-.7 15-1.8 20.2-5.3 24.5-5.3 24.1-2.7 25.5 1.7.9 1.9 1.4.9 2.6-.7.8-2.3 1.4-3.7 1.2-1.9-.2-2.9-1.5-4.8-6.2-2-5-2.2-6.5-1.3-10.3 1.6-7.3-.5-12.3-6.8-16-3.7-2.2-4.7-2.3-7.5-1.4-7.3 2.6-12.8 9.2-12.8 15.6 0 1.5 1.5 4.2 3.8 6.8 3.1 3.4 4.1 5.5 5.1 10.9l1.3 6.7-3.6 4.3c-2 2.3-4.2 6-4.8 8.1-.7 2.2-1.9 4.2-2.7 4.5-.9.3-3.2 1.8-5.1 3.4-1.9 1.5-3.8 2.8-4.2 2.8-.4 0-2.8 1.4-5.3 3.1-2.5 1.7-4.9 2.9-5.2 2.6-.3-.3.3-1.9 1.3-3.6 1.5-2.5 1.5-3.2.5-4.5-1.1-1.3-.9-2.2 1.3-5.1 3.2-4.1 2.7-5.5-1.7-5.5-3.7 0-8.6 2.5-17.8 8.8-7.8 5.4-10.5 6.8-15.1 7.6-3.5.6-3.7.6-3.5-2.1.1-1.9-.3-2.8-1.6-3.1-2-.4-12.9 4.5-19.8 8.9-5 3.2-5.9 3.5-5.9 1.8 0-.6-.7-3.6-1.6-6.7-2.9-9.9-13.8-17.9-19.6-14.3-1.4.9-2.4.8-4.5-.2l-2.7-1.4 2.5-1.3c1.3-.7 5.1-3.4 8.4-6 3.3-2.6 9.8-7.3 14.5-10.5 4.7-3.2 9.3-6.8 10.3-8.1 1.4-1.8 2.9-2.4 5.5-2.4 2.7 0 5.5-1.2 10.3-4.4 3.7-2.5 8.3-5.2 10.4-6.1 5.3-2.2 6.8-.4 2.1 2.7-2 1.2-3.6 3.1-3.6 4.1 0 1-1.4 3.1-3.1 4.7-2.2 1.9-3 3.4-2.5 4.5 1.2 3.3 8.2.7 24-9 2.6-1.7 7.7-5.8 11.3-9.2 3.6-3.5 9.5-7.8 13.2-9.7 3.7-1.9 11.5-6.3 17.2-9.7 9-5.5 29.4-16.6 30.9-16.8.3-.1.5 5.4.5 12.2zm142.3-6.8c.2.2.1 1.3-.3 2.4-.5 1.7-1.5 2.1-4.6 2.1-3.7 0-3.9-.2-3.9-3.1 0-3.1 0-3.1 4.3-2.4 2.3.4 4.4.9 4.5 1zm-86.1 18.4c1 2.7.8 3.1-4.3 7.7-3.4 3-5.4 5.6-5.4 6.9 0 1.4-1 2.6-2.5 3.3-3.5 1.6-3.5 1.6-2.5-1.6 1.9-6.2 3.4-8.9 5.4-9.8 1.2-.5 2.6-2.3 3.1-3.9 2.1-6.3 4.4-7.3 6.2-2.6zm171.3-1.4c-.7.9-1.5 1.3-1.9 1-.3-.3.1-1 .9-1.5 2.1-1.4 2.4-1.2 1 .5zm-113.1 2.1c.2.2-.2 1-.8 1.8-.8.9-.8 1.6-.2 2 .5.4.8 1.9.7 3.4-.3 2.2-.9 2.8-3.2 3-1.6.2-3.3.8-3.8 1.3-3.1 2.9-5.1-1.5-4-8.8l.7-4.5 5.1.7c2.8.4 5.3.9 5.5 1.1zM342 514c0 .5-.4 1-1 1-.5 0-1-.5-1-1 0-.6.5-1 1-1 .6 0 1 .4 1 1zm-.5 4c.3.5.1 1-.4 1-.6 0-1.1-.5-1.1-1 0-.6.2-1 .4-1 .3 0 .8.4 1.1 1zm-115.1.9c.4.5.9 3 1.2 5.6.6 3.9.3 4.9-1.6 7-3.3 3.5-9.1 3.5-11.9-.1-1.2-1.5-2.1-3.3-2.1-4 0-2.6 2.2-6.1 4.8-7.7 2.9-1.8 8.7-2.3 9.6-.8zm78.5 1c1.2 2.1-.7 3.5-3.4 2.5-1.8-.7-1.9-1.6-.3-3.2 1.7-1.7 2.6-1.5 3.7.7zm91.7 1.1c.9 0 2.6 2.5 4.1 5.6 2.4 5.4 2.5 5.6.7 7.6-1.1 1.1-4.4 3.3-7.4 4.8-3 1.6-8 5.4-11 8.5-4.8 5-11.3 9.5-13.7 9.5-.4 0 .6-1.1 2.2-2.4 4.5-3.6 2.3-4.2-4.6-1.2-3.4 1.5-6.3 2.5-6.6 2.3-.2-.2 1.5-1.6 3.8-3.1 2.9-2 3.8-3.1 3-3.9-.7-.7-3-.1-7.9 2.1-3.8 1.8-7.2 3.2-7.7 3.2-1.6 0 3.1-4.2 6.8-6.1 2-1.1 3.7-2.4 3.7-3 0-2.5-3.5-1.8-9.1 2-3.8 2.5-7.3 4.1-9.1 4.1-2.9 0-2.8-.2 3.8-5.5 3.8-3.1 7.9-5.8 9.1-6.1 1.6-.4 2.6-1.8 3.4-4.6 1.6-6 .9-6.8-5.3-6.1-2.9.3-6.2 1.3-7.3 2.3-1.1 1-3.1 2.3-4.5 2.9-2 1-1.8.6 1-1.9 5.3-4.7 5.4-4.8 6.8-6.5.8-1 3-1.5 6.2-1.5 2.9 0 5-.5 5.2-1.2.3-.9 1.2-.9 3.7.2 5.4 2.2 16.8 1.8 22.9-.9 2.8-1.3 5.3-2.9 5.3-3.5.1-.6.3-.3.6.6.2 1 1.1 1.8 1.9 1.8zm52.4 2.5c-.7.8-1.7 1.5-2.3 1.5-.6 0-.2-.7.9-1.5 2.5-1.9 3-1.9 1.4 0zM299.6 534c-3.3 6.1-9.2 24-10.1 30.5-1 7.7-7.9 28.7-8.2 25-.7-8.3-2.5-13.6-4.8-14.5-2.7-1-4.4-.6-16.9 4.4-4.9 2-9.5 3.6-10.3 3.6-2.1 0-1.5-1.8 1.3-3.7 1.4-.9 4.8-3.9 7.5-6.7 3.8-4 5-6.1 5.5-9.6.8-5 3.9-13 5.1-13.1 7.8-.7 10.7-2.8 12.9-9.7 1.6-5.1 1.9-5.4 8.8-8.6 3.9-1.9 8-4.1 9.1-4.9 1.9-1.4 2-1.4 2.3.5.2 1.1-.8 4.2-2.2 6.8zm-40.6-.5c0 .8.6 1.5 1.3 1.5 1.7 0 3.9 3.7 2.7 4.5-1.5.9-.2 2.5 2 2.5 1 0 2-.8 2.2-1.8.2-.9.6-1.3 1-.7.6 1-.5 3.4-6.8 15.5-1.3 2.5-2.4 5.8-2.4 7.5 0 3.9-1.3 5.7-3.3 4.9-1.3-.4-1.7-.1-1.7 1.5 0 1.4-.5 1.9-1.5 1.5-1.8-.7-4.5 1.8-4.5 4.3-.1 3-1.6-.6-2.4-5.5-.5-3.1-.3-4.2.7-4.2 1.7 0 8.7-6.2 8.7-7.7 0-2.6-2.3-2.4-5.3.5-4.4 4.2-7.1 4.7-11 2.4-6-3.6-8.2-3.6-11.4.2-3.4 4.1-7.8 7-9.3 6.1-1.7-1.1-1.1-2.4 1.9-4 1.6-.8 3.2-2.3 3.5-3.2.3-1 1.7-3 3.1-4.6 2.3-2.4 3.3-2.7 9.4-2.7 6.1 0 7-.3 9.3-2.8 3.6-3.9 7.8-10.8 7.8-13 0-1.1 1-2.4 2.3-3 3.1-1.5 3.7-1.4 3.7.3zm96.2 1.7c-.7.7-1.2.8-1.2.2 0-.6.3-1.4.7-1.7.3-.4.9-.5 1.2-.2.2.3-.1 1.1-.7 1.7zm-85.2.8c0 .5-.2 1-.4 1-.3 0-.8-.5-1.1-1-.3-.6-.1-1 .4-1 .6 0 1.1.4 1.1 1zm34.6 3.6c-1.5 3-6 17.3-9.5 30.4-1.8 6.8-2 7.1-2 3.4-.1-2.2.5-6 1.3-8.5.7-2.4 2.8-8.9 4.5-14.4 2.8-9.2 5.7-15.2 6.7-14.2.3.2-.2 1.7-1 3.3zm43.4-1.1c0 1.1-5.5 5.3-6.2 4.8-1.2-.7-.9-2 .8-3.7 1.4-1.5 5.4-2.3 5.4-1.1zm-123.1 2.9c.8.9.8 1.6.2 2-.5.4-.8 2.1-.6 3.9.4 3-1.6 7.7-3.3 7.7-.4 0-.8-3.4-1-7.5-.3-6.8-.1-7.5 1.6-7.5 1.1 0 2.5.6 3.1 1.4zm211.7 16.4c6.7 22.7 15.8 40 24.5 46.5 2.6 1.9 2.7 2.2 1.3 3.8-1.3 1.5-1.2 1.9 1 4.6 1.4 1.7 4 3.6 5.8 4.3 1.8.8 6.9 3.7 11.3 6.6 4.4 2.9 9.2 5.6 10.8 5.9 1.5.4 2.7 1.4 2.7 2.4 0 .9.3 2.6.6 3.7.8 2.9-3.2 3.9-7.8 2-2.8-1.2-3.8-1.2-6.6-.1-3.5 1.5-4.1 3.5-1.6 5.9 1.4 1.4 1.7 6.1.4 5.4-.3-.2-1.7.4-3 1.3-2.4 1.5-2.6 1.4-5.9-2.3-2.1-2.4-2.8-3.8-1.9-3.8.8 0 1.9-.5 2.5-1.1 2.6-2.6-3.6-10.3-12.9-16.2-1.7-1.1-3.2-3.4-4.3-6.9-1.8-5.5-3.5-9.9-10.4-26-2.2-5.3-4.1-10.6-4.1-11.7 0-1.2-.4-2.1-1-2.1-.5 0-1-1.4-1-3.2 0-6.8-2.6-17.5-7.3-30.3-1.1-2.9-1.2-4.2-.4-4.7.7-.4 1.6-.3 2 .1.4.4 2.8 7.6 5.3 15.9zm-7.6 1.9c0 .6-.9 1.5-2 1.8-2.5.8-3.4 4.2-2.1 7.6.5 1.4.6 3.1.2 3.8-.5.7-1.3-1.3-2-5-1.2-5.8-1.1-6.4.8-9 1.2-1.6 2.1-3.6 2.2-4.6 0-1.2.5-.8 1.4 1.2.8 1.6 1.4 3.5 1.5 4.2zm-211-.5c0 1.4-3 4.8-4.2 4.8-.5 0-.2-1.4.7-3 1.6-3 3.5-4 3.5-1.8zm12 6.2c0 .8 1.3 2.5 3 3.9 2.3 2 2.6 2.6 1.4 3.1-.8.3-1.2 1.1-.9 1.7.4.6 1.3.8 2.1.5.8-.3 1.4-.2 1.4.3s-1.1 1.2-2.5 1.5c-3 .8-3.2 2.1-.6 3.8 1.4.9 1.7 1.6 1 2.4-.7.9-.4 1.7 1.2 2.7 2.1 1.5 2 1.6-2.2 3.4l-4.4 2-.7-2.5c-.4-1.4-.5-2.9-.3-3.3.3-.3-.2-1.2-1-1.9s-1.5-2.3-1.5-3.7c0-1.3-.5-3.3-1.1-4.4-.7-1.5-.7-2.4.1-3.4.7-.8.9-1.9.5-2.5-.7-1.1 2.1-5 3.7-5 .4 0 .8.6.8 1.4zm-151 2.5c0 .4-1.5 1.1-3.2 1.6-4.4 1.3-5.1 4.5-1 4.5s6.2-.9 6.2-2.7c0-1.1.7-1 3 .7 2.3 1.6 3 2.9 3 5.3-.1 2.9-.2 3-1.4 1.4-.7-.9-2.1-1.7-3.1-1.7-1.5 0-1.7.6-1.1 3.8.4 2.7.1 4.5-1.1 6.3-.9 1.3-1 1.8-.3 1.1 2.2-1.9 3-1.4 2 1.3-.7 1.8-.6 2.4.2 2.2 1.2-.2 1.3 13.6.2 21.9-.5 3.5-.3 4.2 1.4 4.6 1.7.5 1.8 1.1 1.1 5.4-.4 2.7-.8 5.6-.8 6.5-.1 1.4-1.2 1.7-6.6 1.6-3.6-.1-6.5-.5-6.5-.9 0-1.2-3.8-1-6.2.3-1.7.9-2.4.7-4.3-1.7-1.7-2.1-2.5-5.2-3.4-12.1-.6-5-1.5-10.2-2-11.5-.6-1.3-1.3-4.1-1.6-6.2-.4-2.5-1.7-5-3.7-6.8-2.7-2.5-2.9-3-1.9-6 1.2-3.5 6.5-7.8 9.6-7.8 1.7 0 1.7.1-.1 2.2l-1.9 2.3 2.6-2.3c1.4-1.2 3.7-2.2 5.1-2.2 1.4 0 3.8-1 5.3-2.2 2.5-2 2.6-2.2 1-3.4C67 571.5 68 570 73 568c4.4-1.6 6-1.7 6-.1zm104 2.6c-2.8 2.9-3.1 3.7-2 4.9.7.9 1 2.3.6 3.1-.3.8-.3 2.9.1 4.5.4 2.4 1.1 3 3 3 2.3 0 10.2-4.2 17.6-9.2 1.6-1.1 3-1.8 3.2-1.6.2.2.6 3.7.8 7.8.4 6.3.8 7.6 2.8 9.3l2.4 1.9 2.6-3.2c2.6-3 2.7-3.1 3.4-1.1.4 1.4 1.5 2.1 3.1 2.1 1.4 0 2.2.4 1.9 1-.3.5-1.5 1-2.6 1-1 0-1.9.4-1.9.9s-4.1 2.4-9.1 4.2c-12.3 4.4-12.8 4.9-10.4 12.6.7 2.1.4 2.3-3.1 2.3-6.6-.1-11.5-1.7-14.8-4.9-2-2-4.2-3.1-6-3.1-1.7 0-4.2-1.2-6.3-3-3.8-3.4-5.6-3.6-16.3-1.6-4.1.8-11.2 1.7-15.6 2-9.3.8-8.9 1.1-9.9-8.1l-.7-5.9 5.8-3.6c7.2-4.4 15.4-8 15.4-6.8 0 .5-1.3 1.7-3 2.6-1.6 1-3.2 2.5-3.5 3.3-1.2 3 1.3 3.3 7.2.9 3.2-1.4 8.2-3.3 11-4.2 2.9-.9 9.6-4.6 14.8-8.1 10.7-7.3 15-8.6 9.5-3zm-70.3.2c3.6 2.4 6.3 11.2 6.2 20.1l-.1 7.7-1.2-9.2c-.6-5-1.5-9.5-1.9-10-.5-.4-2.2 0-3.9 1-3 1.7-3 1.7-2.5-.3.3-1.3 0-2-.9-2-1 0-1.4-1.3-1.5-4.3 0-2.3-.3-3.6-.6-2.9-.6 1.6-2.3.6-2.3-1.4 0-1.2.7-1.4 3.2-.8 1.8.3 4.3 1.3 5.5 2.1zm101.2 5.4c-1.1 2.7-1.9 7-1.9 9.5 0 2.7-.4 4.3-1 3.9-1.1-.7-1.4-15.5-.4-19.2.6-2.1.8-2.1 2.9-.7l2.3 1.5-1.9 5zm-113.9-4c0 .6-.4.7-1 .4-.5-.3-1-1.1-1-1.6 0-.6.5-.7 1-.4.6.3 1 1.1 1 1.6zm-5.5 3c.4 1.1.4 2.3 0 2.7-.7.7-2.5-1.7-2.5-3.6 0-2 1.8-1.4 2.5.9zm7.7 8.7c-.3 3.1-.1 4.7.9 5.3 1.7 1 4.9-1.7 4.9-4.3 0-2.5 1.6-2.3 2.3.3.7 2.5-.2 5.1-1.4 4.3-.5-.3-.9.3-.9 1.2 0 1.6.1 1.6 1.9 0 1.2-1.1 2.1-1.3 2.5-.7 1.3 2-.2 28.8-1.8 33.6-.9 2.5-1.4 5.1-1.1 5.6.8 1.2 3.5 1.1 3.5-.2 0-1.1 6-6.9 7.2-6.9 1.8 0 .6 2.8-1.7 3.8-2.7 1.2-2.9 2-2.5 9.4.1 3.7-.2 4.9-1.5 5.4-1.2.5-1.3.9-.5 1.4.9.6.6 1.4-.9 2.9-1.2 1.2-2.4 3.5-2.7 5-.5 2.4-.1 3.3 2.5 5.2 2.3 1.7 2.8 2.6 2 3.6-.6.7-1.7 1.3-2.3 1.3-2.6.1-3.8 2-4.6 7.6-.4 3.2-1.1 6.6-1.5 7.5-.3.9 0 2.3.7 3 2.4 2.5 4 7.6 3.3 10.8-.3 1.7-2 4.2-3.7 5.6-4.7 4-8.3 3.1-9.4-2.3-.7-3.3.9-4.6 2-1.6.3.8 1.3 1.4 2.2 1.2 1.6-.3 1.7-.5 2.8-17.6.3-3.9.8-7.8 1.3-8.5 1-1.7 2.3-16.5 2.7-32.7.2-7.4.6-16.8 1-20.8.6-5.7.4-7.2-.6-7.2-.8 0-2 .6-2.7 1.2-1 1.1-1.1-.3-.5-7 .5-5.8.3-8.2-.5-8.2-.6 0-1.1.9-1.1 2 0 3.8-2.8 2.1-3.5-2.1-.9-5 .4-16.4 1.5-13.4.4 1.1.5 4 .2 6.3zm174.2-2.7c1 5.1.7 7.9-.8 7.9-.7 0-1.9.6-2.5 1.4-.6.7-3.3 1.9-5.9 2.6-8.3 2.2-16.5 4.8-24.7 7.9-4.4 1.7-8.8 3.1-9.8 3.1-.9 0-5.2 1.6-9.3 3.7-4.2 2-8.4 3.6-9.3 3.6-.9 0-3.3 1.1-5.4 2.4-2.2 1.4-4 2.3-4.1 2.1-2.5-4.4-3.5-8.2-2.5-9.4.6-.8 1.8-1.4 2.5-1.4.8 0 2.2-.4 3.2-.9.9-.6 4.2-1.8 7.2-2.7 3-.9 10-3.8 15.5-6.4 5.5-2.6 11.6-5 13.6-5.4 2-.4 7.9-2.5 13-4.7 8.1-3.5 15.8-6.4 18-6.8.4-.1.9 1.3 1.3 3zm-54.1 3.3c1.7 5-.8 5.1-3.2.2-2.6-5.7-2.6-6.2.1-4.4 1.2.8 2.6 2.7 3.1 4.2zm213.7-4c0 .3-.4.8-1 1.1-.5.3-1 .1-1-.4 0-.6.5-1.1 1-1.1.6 0 1 .2 1 .4zM95.2 597.6c0 6.2-.4 11.8-1 12.9-.6 1.1-1.4 2.9-1.8 4l-.7 2-.5-2c-.3-1.1.1-6.1.7-11 1.2-8.5 1.7-13.2 2-16.4 0-.8.3-1.2.6-.9.3.3.6 5.4.7 11.4zm185.9.3c-.6 1.1-1.1 4.7-1.1 8 0 3.4-.3 6.1-.7 6.1-.5 0-2.7-.7-5.1-1.5-3.4-1.2-4.8-1.3-6.5-.4-1.2.7-4.1 1.4-6.4 1.6-3.7.3-4.5 0-5.4-2-2.1-4.5.2-7.2 8.8-10.2 4.3-1.6 9.8-3.6 12.3-4.5 4.9-1.7 6.1-.9 4.1 2.9zm150.6.3c-.3.8-.6.5-.6-.6-.1-1.1.2-1.7.5-1.3.3.3.4 1.2.1 1.9zm10.3 4.4c0 .8.9 3.2 2 5.4s2.6 6.4 3.4 9.4c1.8 6.9 5.2 12 9.6 14.5 1.9 1.1 4.5 3 5.8 4.4 2 2.1 2.1 2.5.7 3.7-2.6 2.2-1.7 5.8 2.6 10.3 2.2 2.3 4.8 4.2 5.7 4.3 3.3.2 6.2 1.7 6.2 3.1 0 2.1-3.5 6.7-6.5 8.7-1.3.9-5.7 2.3-9.7 3.1-4 .8-8.8 2.3-10.5 3.2-3.2 1.7-4.3 4.6-2.3 5.8 1.5.9 1.2 2.2-.7 2.9-1 .4-2.6-.3-4.3-1.9-1.4-1.4-3.1-2.5-3.8-2.5-2 0-1.4-1.7.8-2.3 2.5-.6 2.6-4.1.5-11.1-2.2-7.3-1.7-8.8 1-3 3.6 7.4 8.2 9.3 15.1 6.3 2.6-1.1 6.3-1.8 8.3-1.7 3 .3 3.6 0 3.6-1.6 0-4.3-4.5-4.5-14.2-.5-3 1.2-3.4 1.1-5.7-1-1.3-1.3-2.9-3.5-3.4-4.9-2.6-7.1-6.4-20.4-5.8-20.9.3-.3 1 .6 1.5 2 1.3 3.4 7.9 10.7 9.7 10.7 1.6 0 1.9 2.6.4 3.5-2.2 1.3-.8 3.7 3.3 5.4 4.6 2 6.7 1.8 6.7-.8 0-2.2-1.9-4.1-4.2-4.1-2 0-2.3-1.1-.7-2.7 1.6-1.6-.2-4.3-4.2-6.2-4.3-2.1-8.7-10.6-10.1-19.9-.5-3.7-1.3-7.6-1.8-8.7-.4-1.1-1.5-4.9-2.3-8.5-.9-3.6-1.9-7.4-2.3-8.4-.7-1.9-.5-1.8 2.4.3 1.8 1.2 3.2 2.9 3.2 3.7zm-395-4c0 .3-.9 1.7-2 3.1-2.1 2.7-2.7 1.5-1-1.8 1-1.8 3-2.7 3-1.3zm-20 2.8c0 .2-.7.7-1.6 1-.8.3-1.2.2-.9-.4.6-1 2.5-1.4 2.5-.6zm407.4 7.1c.7 3.4-.7 1.5-1.9-2.5-.5-1.6-.4-2.2.3-1.5.5.5 1.2 2.3 1.6 4zm-391.7.2c-.3 1-.5.4-.5-1.2 0-1.7.2-2.4.5-1.8.2.7.2 2.1 0 3zm57.1 6.9c-.3 10.1-.5 10.7-3.1 12.8-2.2 1.7-2.5 2.6-1.9 4.8.4 1.5 1.2 2.8 1.7 2.8 1.2.1.8 5.9-.5 7.5-.5.7-3 1.2-5.5 1.3-4 0-4.5-.2-4.5-2.1 0-2.7 1.9-6.2 2-3.7 0 1.2.2 1.2.9.2.4-.8.7-4.4.5-8-.1-3.7 0-5.6.3-4.2l.5 2.5 1.3-3c1.3-2.9 1.3-2.9 1.4-.6.1 1.4-.6 3.3-1.6 4.3-1.1 1.3-1.2 1.8-.3 1.8.7 0 1.9-.8 2.6-1.8 1.6-2 1.8-7.2.4-7.2-.5 0-1-1.4-1-3.1 0-2.4.4-3 1.5-2.5 1.5.5 1.9-1.1 1.5-6.1-.2-2.6 1.6-6.3 3.1-6.3.8 0 1 3.4.7 10.6zm74.1-5.1c2.1-.4 3.3.1 5.6 2.5 1.6 1.6 2.6 3.3 2.2 3.6-.3.4-7.7.3-16.4-.1-9.6-.5-14.8-1.1-13.3-1.5 9.3-2.8 11.1-3.5 12.1-4.7.6-.7.9-2.2.6-3.3-.4-1.7 0-1.6 3 1 2.7 2.4 4.1 3 6.2 2.5zM249 606c-.8.5-2.2 1-3 1-1.3 0-1.3-.1 0-1 .8-.5 2.2-1 3-1 1.3 0 1.3.1 0 1zm-198.6 2.2c2.1 10.8 3.5 23.4 3 27.5-.9 6.8-4 11.6-7 11-3.2-.6-5.9 1.5-5 3.8.5 1.4 1.4 1.7 4.6 1.2 6.4-.8 4.6 2.4-2 3.7-2.5.5-4.5.1-6.8-1.1-3.3-1.8-3.4-1.9-2.8-7.1.5-4.3.3-5.4-1-5.9-1.1-.4-2.3.2-3.4 1.7-1.5 2-1.8 2.1-2.4.5-.3-1-.1-3.1.6-4.6 1-2.2 2-2.9 4-2.9 2.4 0 2.8-.4 2.8-3 0-1.6.8-4.6 1.7-6.6 1.7-3.4 1.7-3.6-.1-5-1.8-1.3-1.7-1.5 1.8-5.4 2-2.2 3.6-3.6 3.6-3.2 0 2.2-3.2 13.1-4.7 15.9-2.3 4.3-.9 8.8 2.7 8.8 2.2 0 2.5-.4 2.2-3-.1-1.7.6-5.9 1.7-9.5 3.1-10.7 4.1-14.6 4.1-16.9 0-2.8 1.8-2.7 2.4.1zm73.5 16.1c-.1 16.3-.3 17.5-2.2 18.6-1.8 1.2-1.9 1.1-1.3-1.1.4-1.2.9-7 1.3-12.8l.6-10.6-2.7-1.2c-3-1.4-3-3.7 0-3.7 1.4 0 2-.8 2.2-3.3.2-1.7.7-3.2 1.3-3.2.5 0 .8 7.2.8 17.3zM244 607.4c0 .2-.9.6-2 .9-1.1.3-1.8.1-1.4-.4.5-.9 3.4-1.3 3.4-.5zm51.3 2.9c.3 1.2.6 5.5.6 9.6.1 4.1.5 7.9.9 8.5.4.6.7 8.1.7 16.6 0 8.5.4 17.7.8 20.5.8 4.9.8 5-.8 2.2-.9-1.5-3.4-3.9-5.6-5.2-5-3.2-5.6-4.8-6.4-17.3-.6-8.3-.4-10.6.9-13.3 1.6-3.2 4.6-14.6 4.6-17.5 0-.8-.7-1.4-1.5-1.4-1.4 0-1.4-.3 0-2.9 1.7-3.4 5-3.3 5.8.2zm-41.7 2.2c1 3.9 0 5-5.7 6.4-3 .8-6.8 2.1-8.6 2.9-4.4 2.1-6.5 1-6.1-3 .3-3.2.6-3.4 8.3-6 10.2-3.4 11.3-3.4 12.1-.3zM225 615c0 .5-.4 1-1 1-.5 0-1-.5-1-1 0-.6.5-1 1-1 .6 0 1 .4 1 1zm210.7 5.2c-.2 1.3-.4.3-.4-2.2s.2-3.5.4-2.3c.2 1.3.2 3.3 0 4.5zm-409.1 4.5l-1.5 2.8-.1-2.7c0-1.4.6-2.8 1.3-3.1 1.9-.7 2-.1.3 3zm228.4-2.8c0 1.1-8.6 4.1-11.4 4-1.6 0 5.2-3 11.2-4.8.1-.1.2.3.2.8zm29.2 1.6c-.2 1.4-.6 2.5-.8 2.5-.2 0-.4-1.1-.4-2.5s.4-2.5.9-2.5c.4 0 .6 1.1.3 2.5zm-261-.3c-.9.9-1.5.9-2.4 0-.9-.9-.7-1.2 1.2-1.2s2.1.3 1.2 1.2zm167.6-.7c6.4.7 9.1 2.7 6.2 4.5-.8.5-1.5 2.1-1.8 3.7-.4 3.1-4.6 7.2-7.5 7.3-2.7 0-6.6 2.9-8.2 6.1-1.5 2.8-3.1 27.7-2.7 40.2.1 3.7-.6 8.4-1.8 12.5-1.8 5.8-1.9 6.7-.5 8.2.8.9 1.5 2.8 1.5 4.2 0 3.7 1 5.8 2.6 5.8.8 0 1.4.4 1.4.9 0 .9-50 1.3-59.8.4-3.4-.3-5.9-1-5.6-1.5.3-.4 1.1-.5 1.7-.2.9.5.9.4 0-.6-.6-.7-2.3-1.2-3.7-1.2-1.4-.1-2.6-.4-2.6-.8s-1.1-.5-2.5-.2c-1.4.2-2.5.8-2.5 1.3s.7.6 1.5.3c.9-.4 1.5 0 1.5.8 0 1.1-1.6 1.5-6.7 1.6-6.7.2-7.2-.2-3.1-2.2 2.1-1 2.3-1.8 2-6.8l-.4-5.5 3.6-.7c2.1-.4 4.3-1.7 5.3-3.1 1-1.4 3.3-4.1 5.1-6.1 3.8-4.3 3.8-4.7 1.1-10.4-1.8-3.6-2-5.5-1.5-10.5.3-3.3 1.2-6.2 1.8-6.4.7-.2 2.2-1.4 3.5-2.7 1.7-1.7 2.2-3 1.7-4.8-.4-1.8 0-3.4 1.5-5.2 1.2-1.5 2.1-3.3 2.1-4 0-1.7 5.1-1.9 6.7-.3.9.9 1.9.8 3.9-.6 2.6-1.7 2.7-1.8.9-3.1-1.1-.8-2.7-1.2-3.6-.9-1.8.6-3.2-1.6-2.3-3.8.3-1 1.8-1.2 5.4-.7 4.4.6 5 .4 5.9-1.6 1.2-2.8-.8-4.9-4-4.1-1.2.3-2.2 0-2.6-.9-.6-1.7-2.4-1.9-2-.3.1.6-.3 1.3-.9 1.6-1.3.4-2.4-2.8-2.4-7.2v-3l27.8-.3c15.2-.1 30.5 0 34 .3zm82.7.4c2.1.9 2.4.8-7.5 2.7-6.8 1.3-3.5 5.9 3.7 5.1 4.9-.5 4.9.8 0 1.8-4.5 1-5.7 2.3-5.1 5.3.4 2 0 3-1.5 3.9-1.9 1.2-2.1 1-2.6-1.5-.4-1.5-1.1-4.7-1.6-7-1.3-5.6.4-9.9 4.1-10.5 4.3-.7 8.4-.6 10.5.2zM219 624c0 .6-.6 1-1.2 1-.7.1-3 .3-5.1.6-5 .7-8.6-.6-4.2-1.6 5-1 10.5-1 10.5 0zm12 5.5c1 2.2 2.7 7.8 3.8 12.5 1.1 4.7 2.3 9.3 2.7 10.2.5 1.3.2 1.8-.9 1.8-1.2 0-1.6-1-1.6-3.9 0-2.2-.6-4.4-1.5-5.1-.8-.7-1.5-2.9-1.5-4.9 0-2.7-.3-3.2-1-2.1-.8 1.2-1 1.2-1 .1 0-.8-.2-1.2-.4-1-.3.3-.1 2.1.4 4.2.4 2 .4 3.9 0 4.2-1.2.7-4-5.3-3.3-7.1.3-.7.1-1.4-.4-1.4s-.9-1-.9-2.3c.1-1.7-.5-2.3-2.7-2.5-3.8-.5-6 1.4-4.6 3.9.5 1 1.8 1.9 2.9 1.9 1.3 0 1.7.5 1.4 1.4-.3.8.2 1.6 1.3 1.9 1 .2.1.4-2 .4-4.2 0-6.1 1.2-5.2 3.5.8 2 4.4 3 8.4 2.2 2.9-.6 6.1.8 6.1 2.6 0 1.5-8.2 2.3-9 1-.4-.7-1.3-.9-2-.5-.6.4-1.8-.1-2.6-1.1-1.3-1.8-1.4-1.8-1.1.1.1 1.1 1.3 3.1 2.5 4.3 1.2 1.2 2.2 2.7 2.2 3.3 0 .7 1.1.8 3 .4s3-.3 3 .4c0 .6.9 1.1 2 1.1s2 .7 2 1.5c0 1.7 4 2.9 6.8 2.1 1.8-.6 2.3.5 5.1 12.1 1.7 7 3.1 13.1 3.1 13.5 0 .5-1.3.8-2.9.8-3.9 0-6.1.9-6.1 2.6 0 1 1.4 1.4 5.4 1.4 4.9 0 5.4.2 6 2.4.3 1.3.9 3.1 1.2 4 .5 1.3-.2 1.6-4.1 1.6-3.9 0-4.6.3-4.3 1.7.2 1.4 1.5 1.9 4.9 2.1l4.6.3 1.5 6c.8 3.2 1.2 6.1 1 6.4-.3.3-1.6.5-3 .5-2 0-2.2-.3-1.3-1.4 1.8-2.1-1.9-3.8-7.2-3.4-3.6.3-4.2.6-4.1 2.4 0 1.7-.5 2.1-2.6 2-1.4-.1-3.5-1.1-4.7-2.3-2.3-2.3-7.1-2.1-8 .3-.6 1.6-10.3 2-10.3.4 0-.5.3-.9.8-.8.4 0 1.5-.2 2.5-.5.9-.4 2.4-.9 3.3-1.2.8-.3 1.4-1.3 1.2-2.2-.3-1.4-1.2-1.7-4.1-1.6-2.9.2-3.7-.1-3.7-1.5 0-.9-.3-2.7-.6-3.9-.6-2.1-.3-2.3 3.2-2.2 2.2 0 4.8-.2 5.9-.5 1.1-.2 2.2-.5 2.5-.5.2-.1-.5-.8-1.7-1.6s-4.1-1.7-6.5-1.8c-3.8-.3-4.3-.6-4.6-2.8-.3-2.3 0-2.5 2.6-2.1 1.8.2 3.3-.2 4.1-1.2 1.1-1.3 1-1.7-1-2.5-1.3-.4-3.4-.5-4.6 0-2.6 1-2.8.7-3.7-4.4l-.7-3.8 6.2.6c6.7.6 9.9-.6 7.8-3.1-1.8-2.2-12.5-1.9-13.8.3-.8 1.4-1 1.1-1.6-1.9-1.2-6.5 1.8-10.6 4-5.6.8 1.9 1.8 2.3 5.5 2.3 3.8 0 4.5-.3 4.5-2 0-1.2-.9-2.1-2.5-2.5-1.7-.4-2.1-.8-1.2-1.4.7-.4 1-1.1.7-1.6-.3-.5.1-2.5.9-4.4 1.4-3.4 1.4-3.7-1-6.5-3.2-3.8-4.3-13.5-1.7-15 1.4-.7 1.5-1.4.6-3.3-2.8-6-3.2-7.7-2.2-8.4.6-.4 1.4-.2 1.8.4.3.5 2.9 1.3 5.7 1.6 5.4.8 7.7-.5 7.4-4.1-.3-2.7.1-4 .7-2.3.2.8 1.3 3.3 2.3 5.5zm-128.1 8.9c-.9.8-1 .2-.5-2.9.3-2.2.7-5.6.8-7.5.1-1.9.3-.6.5 2.9.3 4.1 0 6.8-.8 7.5zm136.8-10.8c-.3.3-1.2.4-1.9.1-.8-.3-.5-.6.6-.6 1.1-.1 1.7.2 1.3.5zm-163.6 9.3c1.1-.5 2.9-.7 4.1-.4 1.8.6 2 1.2 1.4 5.6-.6 4.5-.5 5 1.8 6 1.4.7 2.2 1.7 1.9 2.5-.7 1.9.2 1.8 3.5-.3 2.4-1.5 2.5-1.6 1.4-.1-.7.9-1 2.7-.7 4 .4 1.6 0 3.2-1.3 4.9l-2 2.4.5-2.8c.4-2 .1-2.7-1-2.7-2.2 0-5.1 4.5-7.2 11-1 3-2.1 5.9-2.5 6.5-1.2 1.6-2.8 9.5-3.6 16.8-.8 7.5-1.6 8.7-4.4 6.2-1.7-1.5-2-1.5-4.4 0-2.4 1.6-3.9 4.4-1.6 3 1.4-.9 1.2.7-.5 2.9-.8 1-1.2 2.3-.9 2.8.3.5 0 1.5-.6 2.4-.8.8-1 2.8-.7 4.8.5 2.8.3 3.4-1 2.9-.9-.4-1.3-1.4-1-2.9.2-1.3.1-2.4-.3-2.4s-1-1.5-1.3-3.3c-.4-1.7-.9-4.6-1.2-6.2-.7-3.1 1.9-7.5 4.4-7.5.6 0 1.1-.7 1.1-1.5 0-1.8-1.2-1.9-2.8-.3-1.5 1.5-2.8.2-1.4-1.5.6-.7.9-2.3.5-3.5-.3-1.2 0-2.9.7-3.7.7-.9 1-1.8.7-2.2-.4-.3-.1-1.5.5-2.7.7-1.1 1.1-2.4 1-2.8-.1-.4.9-1 2.3-1.4 1.4-.3 2.3-1 2-1.4-.5-.9 2.5-2.3 3.3-1.6.9.9-2.1 10.8-3.4 11.3-.8.3-1.4.9-1.4 1.4 0 .4.8.5 1.7.2 1.7-.7 1.7-.6 0 2-2.2 3.4-2.2 4 .3 3.2 2.7-.9 2.5 1-.2 2.9l-2.2 1.6h2.6c1.4 0 2.8.5 3 1 .2.7 1 .6 2.1-.2 1.3-1 1.8-3.1 2-9 .2-4.4.9-8.4 1.7-9.2.9-1.2.9-1.6.1-1.6-.7 0-1-.8-.7-1.8.9-2.6-2.7-12.8-4.3-12.4-.9.2-1.2-.5-.9-2.3.4-2 .3-2.3-.8-1.4-1.9 1.6-1.8 0 .1-2.2 1.5-1.5 1.4-1.7-1.1-2.3-1.9-.5-3-.2-4 1.1-1.2 1.6-1.2 1.4-.4-1.6.5-1.9 1.6-4.1 2.5-5.1 2-2.2 1.9-5-.1-5-2.3 0-.6-2 2.9-3.5 2.1-.9 3.9-1 5.5-.4 1.5.6 3.1.5 4.3-.2zm204.5 4.7c-.4 2-1 3.4-1.2 3.1-.3-.3-.2-2.1.2-4.1.3-2.1.9-3.5 1.1-3.2.3.3.2 2.1-.1 4.2zm-6.8-2.7c.8.1 1 .6.5 1.3-.4.7-.6 2.5-.4 4 .4 4-.8 6.9-2.7 6.7-4.3-.4-5.3.1-5 2.3.3 2 1 2.3 4.6 2.4 2.4.1 4.5.4 4.7.6.2.2-.2 2.2-1 4.3-.8 2.2-1.4 4.8-1.5 5.7 0 .9-.5 2-1.2 2.4-.8.5-.9 0-.5-1.6.5-1.8 0-2.4-2.3-3.3-2.4-.9-3.1-2.1-4.9-9.1-2.6-9.9-2.6-9.7.2-8.7 3.2 1.2 6.4-.3 6.9-3.4.5-2.2.2-2.6-1.3-2.2-1 .3-2.4-.1-3-.9-1-1.2-.6-1.3 2.2-1 1.9.3 4 .5 4.7.5zm-69.7 2.1c1.1 0 1.9.7 1.9 1.7 0 .9.6 2.4 1.4 3.2 1.2 1.5 3.7 8.4 4.9 13.8.4 1.9.3 2-1.4 1-1-.6-1.9-1.9-1.9-2.9 0-.9-.4-2-1-2.3-.5-.3-1-1.5-1-2.6 0-1-.4-1.9-1-1.9-.5 0-1-1.1-1-2.5s-.4-2.5-.9-2.5c-1.9 0-4.2 3.3-3.6 4.9 1.3 3 2.3 13.6 1.4 14.6-.5.5-.9 1.9-.9 3.2 0 1.5-1 2.8-3 3.8-2.7 1.4-3 1.4-3 0 0-.8-.7-1.5-1.5-1.5s-1.5-.7-1.5-1.5c0-1.1-.7-1.4-2.5-.9-2 .5-2.4.3-1.9-.9.3-.9 1.1-1.8 1.9-2 1.8-.7 2.8-7.2 1.5-9.7-.6-1.2-1.6-1.8-2.3-1.4-.7.4.4-1 2.3-3 2.4-2.5 3.1-3.9 2.3-4.4-3.2-2 3.5-7.8 7.5-6.6.8.2 2.2.4 3.3.4zm-101.4 12.7c-.4 4.9-1.3 10.8-2.1 13.3l-1.5 4.5v-6.6c-.1-3.9.4-7 1.2-7.8 1-1.1 1-1.3 0-.7-1 .5-1.3-.6-1.3-4.3 0-3.7.5-5.3 1.8-6 .9-.6 1.9-1.1 2.1-1.1.2 0 .1 3.9-.2 8.7zm14.5-4.5c-1.8 1.9-2.2 2-2.2.6 0-.9.8-2.1 1.7-2.7 2.7-1.5 2.9-.3.5 2.1zm119.4 7.2c.7.1 1.7.6 2.1 1 .4.5-.7.6-2.6.2-1.8-.3-4-.6-4.8-.6-.8 0-1.1-.5-.8-1 .4-.6 1.6-.8 2.7-.4 1.1.3 2.7.7 3.4.8zm-142.2 8.9c-.1 11.2-.3 12.7-1.8 12.7-.8 0-1.8.5-2.2 1.2-.5.8-.2.9 1 .5 1.2-.5 1.5-.3.9.6-.4.6-.8 1.8-.8 2.5 0 1.4-6.5 5.9-6.5 4.5 0-.5 1.4-1.7 3.1-2.7 1.7-1 2.8-2.1 2.5-2.4-.4-.3-1.2 0-1.8.6-2.1 2.1-3 1.3-2.4-2.1.4-1.7.8-4.1 1-5.2.3-1.1.5-2.2.6-2.5.1-.3.2-.9.1-1.4-.3-1.3 3.1-8.8 4.6-10.4.7-.7 1.3-1.8 1.3-2.3 0-.5.1-.9.3-.9.1 0 .2 3.3.1 7.3zm189.2-4.2c.9 1.8 3.2 4.7 5.2 6.5 2.1 1.9 3.1 3.4 2.5 3.4-3.2 0-11.9-10.1-10.6-12.3.7-1.2 1.2-.8 2.9 2.4zM35.5 660c.3.5-.1 1-1 1s-1.3-.5-1-1c.3-.6.8-1 1-1 .2 0 .7.4 1 1zm30.5 6.7c0 1.5-4.8 4.8-5.6 4-.3-.3-.2-1.2.2-1.9.5-.7.9-1.9 1.1-2.7.5-3.5 4.2-2.9 4.3.6zm-15.6 4c-.7 2.9-2.4 5.6-3.1 4.9-.4-.4 2.8-7.6 3.4-7.6.2 0 0 1.2-.3 2.7zm220.4 2c-.4 2.2-2.2 2-2.6-.1-.2-1 .3-1.6 1.3-1.6s1.5.7 1.3 1.7zm-223.2 6.9c-.4.9-.9 1.5-1.1 1.2-.3-.3-.3-1.3.1-2.2.4-.9.9-1.5 1.1-1.2.3.3.3 1.3-.1 2.2zm33.6-.1c-.2 1.4-.9 2.5-1.4 2.5-.6 0-.7-.7-.4-1.6.3-.9.6-2 .6-2.5s.4-.9.9-.9c.4 0 .6 1.1.3 2.5zm16.8 1.6c0 1.6-.4 2.8-.9 2.5-.8-.5-.3-5.6.5-5.6.2 0 .4 1.4.4 3.1zm-46.6 3.3c-.3 2.1-.9 3.5-1.1 3.2-.3-.3-.2-2.1.1-4.2.4-2 1-3.4 1.2-3.1.3.3.2 2.1-.2 4.1zm148.4-1.6c.7.5 1.5 2.6 1.9 4.8.3 2.1 1.1 4.6 1.8 5.4 1 1.2 3.5 12.2 3.5 15.3 0 1.7-5.1 3.8-7.8 3.3-2.6-.6-2.8-1-2.7-5.9 0-4-.4-5.2-1.5-5.2-2.2 0-3-1.5-3-6.3v-4.3l3.2 2.2c1.7 1.3 2.6 2.5 2 2.7-1.5.5-1.6 3.2-.2 3.2.6 0 1.6-1.2 2.2-2.8 1-2.4 1.1-3.6.4-8-.1-.7-.8-1.8-1.4-2.4-2.3-2.3-1.1-3.7 1.6-2zM80 684.5c-.7.9-1.5 1.3-1.7 1.1-.7-.7.7-2.6 1.9-2.6.6 0 .6.6-.2 1.5zm-33.4 1.3c-.3.9-.8 3.8-1.1 6.4-1.1 9.4-2.1 13.2-3.3 13.6-1.7.5-1.2-9.2.7-12.6.6-1.2 1.1-2.8.9-3.5-.3-1.9 1.2-5.7 2.3-5.7.6 0 .8.8.5 1.8zm43.8 4.6c-.3 1.9-.7 5.7-.7 8.5-.1 2.8-.6 5.1-1 5.1-.5 0-.7.6-.4 1.2.2.7 1 1.3 1.8 1.3 2.2 0 2.3 3.3.1 4-1.1.3-2.3 1.7-2.6 3-.4 1.4-1.1 2.5-1.6 2.5-3.6 0-4-16-.5-20.2 1.5-1.7 1.6-1.9.3-.9-1.2.9-1.8 1-1.8.2 0-.6 1.1-1.7 2.5-2.3 1.4-.6 2.5-1.5 2.5-2s-.9-.4-2 .2c-2.8 1.5-2.6-.5.2-2.4 3.3-2.3 4-2 3.2 1.8zm241.5-.8c.2.2-1 .6-2.5.9-4.9 1.1-5.4 1.4-5.4 3 0 1.1 1 1.5 3.5 1.5 2.8 0 3.5-.4 3.5-2 0-1.1.7-2 1.5-2s1.5-.5 1.5-1c0-.6 1.5-1 3.4-1s3.8.4 4.1 1c.3.5 1.5 1 2.6 1s3.1 1.2 4.5 2.7c2.3 2.5 3.1 2.7 9.2 2.5 4.9-.2 8.1-1 11.9-2.9 2.9-1.4 6.7-2.6 8.4-2.5 4.2.1 5.1 1.2 1 1.2-2.4 0-3.4.6-4.1 2.5-1.1 2.8-1.4 2.9-3.9 1.5-1.3-.6-2.4-.5-3.6.4-2.1 1.5-1.3 3.3 1.9 4.6 1.4.7-.4.9-6.1.8-8.6-.2-9.9.2-9 2.5.6 1.6 5.1 2.7 10.9 2.7 3.4 0 3.8.2 2.9 1.4-.9 1.1-.9 1.6 0 2.1.7.5-.7 1.7-3.7 3.1-5.9 2.9-7.4 3-7.4.5 0-2.4-2.3-3.3-5.6-2-2.6.9-2.6 1-.8 3 1.6 1.8 1.6 1.9.1 1.3-1-.3-1.7-.1-1.7.5s-1.5 1.1-3.2 1.1c-2.3 0-2.9-.3-1.9-.9 2.1-1.3-3.8-4.1-8.7-4.1-4.7 0-7.3 2.3-4.5 3.9 1.7 1 1.7 1-.3 1.1-2.8 0-3.5-.9-2.4-3 1.2-2.2.5-2.8-2.5-2.2-1.8.3-2.5 1.1-2.5 2.6 0 2.6-2.7 3.1-3.4.7-.3-.9-1-4.4-1.6-7.7-1.1-6.7-.7-8.6 3.6-15.9 2.4-4.1 2.7-4.3 6.2-3.8 2 .3 3.9.7 4.1.9zm95.8 1c-.3.3-1.2.4-1.9.1-.8-.3-.5-.6.6-.6 1.1-.1 1.7.2 1.3.5zM79 694.2c0 1.8-.2 2-.9.8-.6-.8-.7-1.8-.5-2.2.9-1.4 1.4-.9 1.4 1.4zm107.7 2.5c-.3 1-.5.4-.5-1.2 0-1.7.2-2.4.5-1.8.2.7.2 2.1 0 3zm199.7 3.5c.9 1.7 1.6 3.7 1.6 4.3 0 .7.6 1.7 1.3 2.3 1.9 1.6 1.6 10.6-.4 11-1.3.2-1.5-.5-1.2-3.8.2-2.3 0-4-.6-4-1.2 0-2.4 3.9-1.9 5.9.2.8-.3 1.6-.9 1.8-.7.3-1.3-.2-1.3-1.1 0-.9-.7-1.6-1.5-1.6-.9 0-1.2.6-.9 1.5.5 1.2-.1 1.5-2.7 1.4-1.9-.1-2.6-.3-1.6-.6 2.3-.6 2.2-2.9-.4-4.6-1.4-1.1-1.7-1.6-.7-1.9 1.9-.7-.9-3.8-3.4-3.8s-1.5-1.5 2.4-3.4c1.7-.9 3.2-1.6 3.3-1.6.1 0 0 1.1-.3 2.5-.6 3.1 1.3 5.5 4.4 5.5 2.7 0 5.9-3.9 4.4-5.4-.6-.6-1-1.8-1-2.8 0-2.4-3.1-2.3-3.7.2-.3 1.1-.9 1.7-1.4 1.4-1-.6 2.7-6.4 4.1-6.4.5 0 1.6 1.4 2.4 3.2zm-317.6 4.6c.3 7.3-.6 12.5-2 11.6-1.3-.8.1-17.4 1.6-17.4 0 0 .2 2.6.4 5.8zm118.2 1.7c0 1.6-.6 2.5-1.5 2.5-1.5 0-2.1-3.1-.8-4.3 1.3-1.4 2.3-.6 2.3 1.8zm-135.4 6c-1.2 3.2-4.1 1.3-4.4-3l-.3-4 2.7 2.7c1.7 1.7 2.5 3.2 2 4.3zm141.4-3.4c0 .5-.4.9-1 .9-.5 0-1-.7-1-1.6 0-.8.5-1.2 1-.9.6.3 1 1 1 1.6zm-116 1.8c0 .5-.7 1.2-1.6 1.5-1.4.5-1.5.4-.4-.9 1.4-1.7 2-1.9 2-.6zm295.7.7c-.3.3-1.2.4-1.9.1-.8-.3-.5-.6.6-.6 1.1-.1 1.7.2 1.3.5zM327 715c0 .5-.4 1-1 1-.5 0-1-.5-1-1 0-.6.5-1 1-1 .6 0 1 .4 1 1zm-252.3 2.2c-.3.8-.6.5-.6-.6-.1-1.1.2-1.7.5-1.3.3.3.4 1.2.1 1.9zm38.3-1.8c0 .2-.7.6-1.5 1-.8.3-1.5.1-1.5-.4 0-.6.7-1 1.5-1s1.5.2 1.5.4zm86.3 3.8c-.7 5.1-.6 5-2.7 4.2-1.1-.4-1.6-1.8-1.6-4.5 0-3.5.3-3.9 2.4-3.9 2.3 0 2.4.3 1.9 4.2zM211 716c0 .5-1.4 1-3.1 1-1.7 0-2.8-.4-2.4-1 .3-.6 1.7-1 3.1-1 1.3 0 2.4.4 2.4 1zm-21 4.1c0 1.7-.4 2.8-1 2.4-.5-.3-1-1.7-1-3.1 0-1.3.5-2.4 1-2.4.6 0 1 1.4 1 3.1zm52.7-2.5c-.3.3-1.2.4-1.9.1-.8-.3-.5-.6.6-.6 1.1-.1 1.7.2 1.3.5zM86.8 720h3.3l-.6 6.2c-.9 9.6-1.4 11-3.3 10.6-1.1-.2-1.9-1.8-2.4-4.6-.4-2.4-1.6-5.8-2.8-7.6-2.7-4.4-2.6-6 .3-5.2 1.2.3 3.7.6 5.5.6zm350.5 5.5c.6 5.5-.6 3.4-1.7-3-.5-2.5-.4-3.6.2-3 .5.5 1.2 3.2 1.5 6zm-366-2.5c3 0 6.8 6.4 7.7 13.2.5 3.5 1 6.6 1 7 0 .8-7.7 4.8-9.2 4.8-1.5 0-4.7-7.5-7.9-19-1.7-6-1.8-5.9 1.1-7.4 2.1-1.1 2.8-1 4.1.1.8.7 2.3 1.3 3.2 1.3zm111.7-1.2c0 .2-.5 1.2-1 2.3-1 1.8-2.6 1.9-43.5 1.9-28.1 0-42.6-.4-43-1.1-.4-.5-.4-1.7-.1-2.5.5-1.3 6.2-1.4 44.1-1.2 23.9.2 43.5.4 43.5.6zm72.8 3.4c.3 2.1 0 2.3-4.5 2-2.6-.1-14.2-.3-25.8-.5l-21-.2-.3-2.4-.4-2.3 25.9.6 25.8.5.3 2.3zm135-.3l-.3 2.6H365c-14 0-29.9-.1-35.2-.4-8.7-.3-9.8-.5-9.8-2.2 0-2.3 1-2.4 40.3-2.5l30.8-.2-.3 2.7zM187 727c0 .5-.2 1-.4 1-.3 0-.8-.5-1.1-1-.3-.6-.1-1 .4-1 .6 0 1.1.4 1.1 1zm10.5 15.7c.3 1.4 1.8 2.6 4 3.4 6.2 2.3 3.1 5-3.5 3-3.6-1.1-3.8-1.3-4.4-6.5-.5-4-.3-6.4 1.1-9.7l1.8-4.4.3 6c.1 3.3.4 7 .7 8.2zm-8.6-9.1c-.5 1.5-.6 5.5-.3 9.3.7 6.1.6 6.5-.9 5.2-1.2-.9-1.6-2.4-1.2-5 .2-2 .7-5.7 1-8.4.4-2.6 1-4.5 1.5-4.2.5.3.5 1.6-.1 3.1zm201.7-1.2c.6.3 1.5 2.2 1.9 4.3.4 2.1 1.1 4.3 1.7 5 .6.8.5 1.9-.2 3.3-.8 1.5-1 4.8-.6 10l.7 7.8-7.8.6c-4.3.4-17 1.6-28.3 2.8-23.8 2.4-41.2 3.8-42.1 3.2-.8-.4 4.1-14.4 6.7-19.4 1.1-2.1 1.9-5.4 1.8-8.4 0-4.2-.5-5.2-3-7l-2.9-2.1 25.5-.5c25.3-.5 44.5-.3 46.6.4zM90.2 744.5c-.7 3.6-1.5 3.5-2.7-.3-.6-2-.4-2.3 1.2-2 1.2.2 1.7 1.1 1.5 2.3zm199.5 1.6c2.1 2.1 21.3 3.1 24.8 1.3 2.6-1.4 3.2-.5 1.5 2.4-.5.9-1.4 3-2 4.5-.5 1.6-1.4 2.6-1.9 2.3-1.3-.8-2.3 2.4-1.2 3.8.5.6.5 2.1 0 3.3-1.1 3.1-2.1 2.9-1.3-.2.7-2.9-1-3.4-2.5-.8-1 1.7-1 1.7-1.1 0 0-2.1-2.1-1.8-2.8.3-.3.7 0 1 .7.6.6-.4 1.1-.1 1.1.8 0 1.1-.9 1.6-3 1.6-2.2 0-2.8-.4-2.4-1.5.9-2.2-.7-4.1-1.8-2.1-1.3 2.3-3.1 2-2.3-.4.8-2.6-.6-2.6-2.8.1-1 1.1-2.1 1.8-2.4 1.5-.3-.3-1.1-3.6-1.8-7.3-.7-3.7-1.6-7.8-2-9.1-.8-2.4 1.2-3.1 3.2-1.1zM84 750.9c0 2.7-.5 4.1-1.6 4.5-1.3.5-1.4.9-.4 2.1 1.1 1.3 3.3 30.2 2.4 31.3-.4.5-11.3-1.5-16.9-3.1-3.1-.9-4.4-1.7-3.5-2.1.8-.3 4-1.5 7-2.5 3-1.1 5.4-2.1 5.4-2.3-.1-.2-.5-4.5-.9-9.6-.7-9.1-.7-9.4 1.6-11l2.4-1.7-4.5-.5c-6.7-.7-6.4-3.1.7-6.3 7.7-3.5 8.3-3.5 8.3 1.2zm324 5.3c2.5 1.2 5 2 5.7 1.9.6-.1 1.4.3 1.8.9.3.5 1.8 1 3.3 1.1 1.5 0 2.1.3 1.4.6-.6.2-1 .9-.6 1.4.8 1.3 5.4 1.1 5.4-.3 0-.8.3-.9 1.1-.1.7.7 2.6.7 5.7.2 2.5-.5 5.4-.7 6.3-.4 1.1.4 2.6-.2 3.8-1.4l2-2 .7 3.4c.3 1.9.4 4.1.1 4.9-.3.8.3 2.2 1.3 3.1 1.5 1.4 1.7 2.2.9 3.6-.5 1.1-1.7 1.9-2.6 1.9-.9 0-3.1 1.1-4.9 2.5-1.8 1.4-4.6 2.7-6.1 2.9-1.5.2-3.6.7-4.5 1.1-1.2.5-2 .2-2.4-.9-.3-.9-.9-1.4-1.4-1.1-.4.2-2.2 0-4.1-.5-1.9-.6-4.7-1.3-6.3-1.6-3.9-.7-4.6-1.2-4.6-3.4 0-6-6-9.7-7.6-4.8-.6 1.8-1 .9-2-4.2-.7-3.6-1.3-8.2-1.3-10.4-.1-3.8-.1-3.8 2.2-2.2 1.2.9 4.2 2.6 6.7 3.8zm-318.1 2.5c.1 5.5.5 7.1 2.1 8.5 1.1.9 2 2 2 2.5 0 1.2-4.9 3.5-6 2.8-.4-.3-.8-3-.9-6 0-3.1-.3-5.9-.5-6.4-.7-1.1 1.3-8.1 2.3-8.1.5 0 .9 3 1 6.7zm173.4-2.8c.3 1.4.1 1.8-.9 1.4-1.5-.6-1.8-1.6-.7-2.6.9-1 1-.9 1.6 1.2zm-60.9 14.8c4.4 5.2 8.7 9.8 9.5 10.1 2.2.8 37.1 35.7 37.1 37 0 .7-1.8 1.3-4.5 1.4-2.5.1-5.3.2-6.2.2-1 .1-1.9-.9-2.3-2.5-.4-1.4-6.6-8.6-13.7-16-18.9-19.4-33.3-36.4-33.3-39.1 0-.4 1.2-.8 2.8-.7 2.2 0 4.2 1.9 10.6 9.6zm-4.3 9.5c1.9 2.4 2.5 3.8 1.7 3.8-2 0-15-14.8-14.2-16.1.7-1.1 4.7 2.9 12.5 12.3zM395 769.3c0 1.2.7 3.3 1.6 4.5.9 1.3 1.4 2.6 1.1 2.9-.3.3-7.4 1.4-15.7 2.4-8.3 1-15.9 2-16.8 2.3-.9.3-4.6.8-8.2 1.1-3.6.3-15.7 1.4-27 2.5s-21.2 2-22.1 2c-2.5 0-1.2-4.9 1.5-5.5 4-.8 52.1-5.7 65.6-6.6 14.4-1 18-1.9 18-4.5 0-1.3-.9-1.4-5.2-1-18.3 2-34 3.6-45.3 4.6-7.1.6-17 1.5-21.8 2.1-5.9.7-9.2.8-9.9.1-1.7-1.7.9-2.4 13-3.3 6.4-.5 12.6-1.1 13.7-1.4 2.1-.4 6.2-.8 33-3 24.4-1.9 24.5-1.9 24.5.8zm-97.1 7.9c1.2 5.4.9 6.8-1.6 6.8-1.1 0-1.4-.7-1.1-2.5.3-1.3.2-2.2-.2-2-.8.5-3-6.2-3-8.9 0-1.5.2-1.5 2.4-.1 1.7 1.1 2.8 3.2 3.5 6.7zm-28.7 3.1c0 4 .5 6.5 1.1 6.4.6-.1 1.4 1.4 1.8 3.3.4 1.9 1.2 5.3 1.8 7.5.5 2.2 1.5 6.7 2.1 10 .7 3.3 1.9 8 2.7 10.5 2.8 8.6 4.1 15.4 3 16.7-.6.9-.6 1.3.1 1.3.5 0 1.5 2.4 2.2 5.2.6 2.9 1.4 6.1 1.7 7.2.3 1.2.1 1.6-.6 1.2-.6-.4-1.1-1.7-1.1-2.9 0-2.7-6.6-12.2-7.5-10.7-.3.5-.1 1 .5 1 .7 0 1 .6.7 1.4-.3.8.3 3.3 1.4 5.5 1.7 3.5 2.4 6.1 1.7 6.1-.2 0-2.6-.6-5.5-1.4-3.8-1-5.3-1.1-5.6-.2-.3.6-1.4 0-2.8-1.5-1.9-2.1-2.9-2.5-4.5-1.9-3.9 1.5-4 3.2-.1 2.9 6.5-.6 4.9.8-1.8 1.6-3.6.3-7.8 1.3-9.4 2.1-1.5.8-5.1 1.6-7.9 1.8-2.9.3-5.6.7-6.1 1-.5.4-5.1 0-10.3-.8-5.1-.8-10.9-1.3-12.8-1.1-4.5.5-11.1-.5-10.5-1.5.3-.5 2-1.2 3.8-1.5 1.7-.4 3.7-1.1 4.2-1.5.6-.4 3-1 5.5-1.3 2.5-.4 6-.9 7.8-1.3 2.6-.5 3.2-.3 3.2 1 0 .9.4 1.6.9 1.6s.8-.8.7-1.7c-.1-1.3 1.2-2.1 4.6-2.9 4.4-1.1 10.9-4.8 11.6-6.6.8-1.7 10.1-7.8 12-7.8 1.2 0 2.4-.5 2.7-1 .4-.6 1-.8 1.4-.6.4.3.7-.9.7-2.7 0-2.8.7-7.8 3-20.7.8-4 2.1-5.2 4.8-4.4 1.5.5 1.8.3 1.3-1.1-.4-.9-.7-2.3-.7-3.1 0-1.1-.6-1.3-2-.9s-2 .2-2-.9c0-.8.5-1.8 1-2.1.6-.4.7-1.1.4-1.7-1.2-1.9-1.5-18.3-.4-17.2.6.6 1.1 4 1.2 7.7zm35.1-6.1c-.4 1.3-1.2 3.2-2 4.3-1.2 1.8-1.3 1.7-1.3-1.6 0-3.8.6-4.9 2.6-4.9.8 0 1 .8.7 2.2zm-42.3 6.7c0 1.4-1 2-3.7 2.5-6.9 1.1-14 .7-15.3-.9-1-1.2-1-1.6.1-1.9 1.9-.7 7.3-1.2 13.7-1.4 4.5-.2 5.2.1 5.2 1.7zm37.7 7.8c-1.4 4.7-1.5 4.8-2.2 1.9-.5-1.8-.4-3.5.4-4.5.6-.9 1.5-2.5 1.8-3.6 1.5-4.2 1.4 1.3 0 6.2zm122.7-3.7c1.3 1 12.9.5 14.9-.7.7-.4.6.1-.2 1-1 1.3-1 1.7-.1 1.7.8 0 1.1 1 .8 3-.3 1.6-.2 3 .2 3 .7 0 2.6 10.3 4 21.5.6 4.4 1.4 9.1 1.8 10.5.9 3.3 5.4 10 6.7 10 .6 0 1.9 1.5 3.1 3.3 1.4 2.1 4.8 4.6 9.7 7.1 8.9 4.5 9.7 5.3 13.7 13.1 4.8 9.3 5.2 9-11.8 9-14.6 0-14.8-.1-21.9-3.4-8.4-3.9-9.1-4.6-13.3-12.6-4.1-7.8-5.7-9.5-9.1-9.5-3.7 0-4.2-1.9-3.1-11.7 1.3-11.1-.6-27.4-4.2-37.8-.8-2.2-1.7-5.3-2.1-6.9l-.6-2.9 5.2.6c2.8.4 5.7 1.1 6.3 1.7zM213 796.3c0 2.1-3.9.2-6.7-3.3-5-5.9-3.9-7.2 1.7-2 2.8 2.5 5 4.9 5 5.3zm29-3.9c0 .5-.7.1-1.5-1-.8-1-1.4-2.4-1.4-2.9 0-.6.6-.1 1.4.9.8 1.1 1.5 2.4 1.5 3zm19-1.6c0 2.8-.2 2.9-5.4 3.1-4.6.2-5.5-.1-6.9-2.2-.9-1.4-1.3-2.7-1-3.1.4-.3 3.5-.6 7-.6 6.3 0 6.3 0 6.3 2.8zm-61 .8c2.2 1.9 2.8 3 2.1 3.7-.6.6-1.1 1.9-1.1 2.9 0 2.9-2.8 2.1-3.2-1l-.3-2.7-7.5.3c-4.1.1-8.6.3-9.9.2-1.3 0-2.9.4-3.5.8-1.4 1.1-9.6.3-9.6-.9 0-2.1 15-5.6 24.7-5.8 4.2-.1 5.7.4 8.3 2.5zm-41.3.6c1.9 1.5 2.4 5.7 1.1 8.6-1.7 3.4-7.6 4.9-11.7 2.8-2.1-1.1-2.8-2.3-2.9-4.6-.1-4.7 1.4-7.8 4-8.3 2.9-.6 7.9.2 9.5 1.5zm34.8 6.8c.3.5.1 1-.4 1-.6 0-1.1-.5-1.1-1 0-.6.2-1 .4-1 .3 0 .8.4 1.1 1zm67.1 1.7c-.3 1.6-1.1 6.4-1.7 10.8-1.6 11.4-1.8 12.5-2.9 12.5-.6 0-1-1.5-1-3.3 0-2.6-1.5-4.8-8.8-12.6-8.6-9.4-8.6-9.4-5.2-8.8 1.9.3 5.8.2 8.5-.3 2.8-.4 6.5-.8 8.4-.9 3.1-.1 3.3.1 2.7 2.6zm-35.9 7.2c5 5.3 7.5 8.8 8 11.1.6 3.3.3 3-8-5.4-6.1-6.1-8.7-9.5-8.7-11.2 0-1.3.3-2.3.8-2.3.4.1 4 3.6 7.9 7.8z"/><path d="M372.4 311.9c.7 1.1-1.8 2.1-5.5 2.1-2.2 0-2.9.5-2.9 2 0 2.3 1 2.4 6.3.9 3-.8 3.7-1.5 3.7-3.4 0-1.4-.5-2.5-1.1-2.5-.5 0-.8.4-.5.9zM351 545c0 .5.5 1 1 1 .6 0 1-.5 1-1 0-.6-.4-1-1-1-.5 0-1 .4-1 1zM62.4 582.2l-1.9 2.3 2.3-1.9c2.1-1.8 2.7-2.6 1.9-2.6-.2 0-1.2 1-2.3 2.2zM72.9 583.7c-1.3 1.6-1.2 1.7.4.4.9-.7 1.7-1.5 1.7-1.7 0-.8-.8-.3-2.1 1.3zM54.7 591.5c-1 1.4-1.4 2.5-.9 2.5.6 0 1.7-1.1 2.6-2.5 2.1-3.2.7-3.2-1.7 0zM140 625.2c0 .9-.9 1.8-2.2 2-3 .4-3.4 2.6-.6 3.2 3.4.8 9.3-.7 9.3-2.4 0-.8-1.1-1.7-2.5-1.9-1.4-.1-2.8-.8-3.2-1.5-.5-.7-.8-.5-.8.6zM155.6 624.6c.7.3 1 1.3.7 2.4-.4 1.5.2 2 3.4 2.6 6.3 1.2 9.5.9 11-1.2.8-1 1.6-1.8 1.8-1.7.3.2.4 0 .3-.5-.2-.4-2.3-.5-4.7-.4-2.6.3-4.1 0-3.7-.6.3-.5-1.6-1-4.7-1-2.8 0-4.7.2-4.1.4zM148.8 625.7c.7.3 1.6.2 1.9-.1.4-.3-.2-.6-1.3-.5-1.1 0-1.4.3-.6.6zM180.3 625.8c-2.3 1.5.3 2.9 6.4 3.5 6.2.5 7.6-.1 6.6-3.1-.5-1.3-11-1.7-13-.4zM168.5 632c-.4.6-1.3.9-2 .6-1.3-.5-2.5 1.4-2.5 3.9 0 1.9 6.6 3 9.6 1.6 1.3-.6 2.4-1.9 2.4-3s.6-2.2 1.3-2.5c.6-.3-.6-.3-2.7 0-2.5.3-4.2.1-4.6-.6-.6-.9-.9-.9-1.5 0zM179 633c0 .5.7 1 1.5 1s1.5-.5 1.5-1c0-.6-.7-1-1.5-1s-1.5.4-1.5 1zM146.2 635.1c-1.9 3-.2 4.4 5.4 4 2.5-.1 5.2.3 6 1 1.2 1 1.3.9.8-.5-.3-.9-.1-1.6.5-1.6s1.1-1.1 1.1-2.5c0-2.4-.2-2.5-6.3-2.5-5.3 0-6.4.3-7.5 2.1zM169.5 641c-.3.5-.1 1 .4 1 .6 0 1.1-.5 1.1-1 0-.6-.2-1-.4-1-.3 0-.8.4-1.1 1zM174.7 641.5c-.4.8-.2 1.7.3 2 .6.4 1-.3 1-1.4 0-2.5-.6-2.7-1.3-.6zM152.5 642.7c-5.5 1.3-3.7 4.9 2.3 4.5 3.6-.3 6.7-2.7 5.6-4.3-.5-.9-4.5-1-7.9-.2zM162.3 645.6c-.6 1.7 1.2 3.4 3.9 3.4 2.9 0 4.8-1.2 4.8-3.1 0-1.6-.7-1.9-4-1.9-2.8 0-4.3.5-4.7 1.6zM122.4 654.5c-.4 1-.1 2.1.7 2.6 2.2 1.4 5.9 1 6.6-.6.7-2 .3-2.3-3.5-3.1-2.5-.5-3.3-.3-3.8 1.1zM141.7 654.7c-1.5 1.4-.6 3.3 1.6 3.3 2.9 0 5.1-1.5 4.3-2.9-.8-1.2-4.9-1.5-5.9-.4zM157 657.4c0 2 2.3 2.6 10.7 2.6 6.6 0 7.4-.2 7.1-1.8-.3-1.4-1.7-1.7-9.1-2-7-.2-8.7 0-8.7 1.2zM132 662.9c-1.1.8-1.2 1.3-.4 2.1 1.6 1.6 6.9.8 6.9-1s-4.3-2.5-6.5-1.1zM118.2 665.3c-1 1.1-.9 1.7.2 2.6 1.9 1.6 8.1 0 8.1-2s-6.8-2.5-8.3-.6zM147.1 664.9c-2.6 1.7.1 3.1 6 3.1 4.3 0 5.9-.4 5.9-1.4 0-2-9.2-3.4-11.9-1.7zM167.2 668c-3.9 1.6-2 3.5 3.4 3.5 4.2 0 4.9-.3 4.9-2 0-1.5-.7-2.1-3-2.2-1.6-.1-4.1.2-5.3.7zM126 671.1c0 .5.5.7 1 .4.6-.3 1-.8 1-1.1 0-.2-.4-.4-1-.4-.5 0-1 .5-1 1.1zM119 675c0 2.5 3.5 3.4 9.5 2.6 3.9-.6 6.5-2.1 5.4-3-.2-.2-3.7-.6-7.6-1-6.8-.6-7.3-.5-7.3 1.4zM142.5 677.1c-.4.6-.5 1.3-.2 1.6.7.7 23.7.6 24.4-.1.3-.2.2-.9-.2-1.5-.8-1.5-23.2-1.5-24 0zM134.5 682.3c-2.2 1.7-1.2 3.7 1.9 3.7 3.2 0 5.6-2.8 3.5-4.1-2-1.2-3.2-1.1-5.4.4zM118.4 683.2c-.4.6.2 1.9 1.4 2.8 1.2 1 1.8 2 1.5 2.4-.4.3 0 .6.9.6 1.9 0 4.8-3.2 4.8-5.3 0-1.3-.9-1.7-3.9-1.7-2.2 0-4.3.5-4.7 1.2zM152.4 683.2c-1.4 2.3 2.9 4 9.3 3.6 7.1-.4 8.5-1.2 5.7-3.3-2.3-1.8-13.9-2-15-.3zM130 691.8c0 2.4 1.8 3.2 7 3.2 2.4 0 4-.5 4.3-1.5.8-1.9.2-2.1-6-3-4.9-.6-5.3-.5-5.3 1.3zM152 693.9c0 1.3 1 2.1 3.4 2.5 3.9.7 6.6-.1 6.6-1.9 0-1.6-2.3-2.5-6.6-2.5-2.7 0-3.4.4-3.4 1.9zM114.4 694.5c-.9 2.4 1 3.9 4.1 3.1 1.8-.5 2.5-1.2 2.3-2.4-.4-2.3-5.6-2.9-6.4-.7zM128.1 700.9c-1.2.8-1.2 1.2-.2 2.5 1.5 1.8 4.8 2 8.6.6 2.3-.9 2.5-1.3 1.5-2.5-1.4-1.7-7.7-2-9.9-.6zM104 705.5c-1.7 2.1-.4 3.5 3.4 3.5 3.9 0 6.2-2 4.4-3.8-1.7-1.7-6.3-1.5-7.8.3zM125.7 709.7c-.4.3-.7 1.5-.7 2.5 0 1.5.8 1.8 4.3 1.8 5 0 7.2-1.2 6.4-3.4-.5-1.1-1.9-1.6-5-1.6-2.4 0-4.7.3-5 .7zM156 710.5c-2.1 2.5 0 3.5 6.9 3.6 6.9.1 8-.4 6.5-2.9-1.5-2.4-11.6-2.9-13.4-.7zM137.8 714.7c.7.3 1.6.2 1.9-.1.4-.3-.2-.6-1.3-.5-1.1 0-1.4.3-.6.6zM222 664.5c-1.9 2.2 0 3.7 4.1 3.3 2.6-.2 3.4-.8 3.4-2.3 0-2.6-5.5-3.4-7.5-1zM228.6 670.3c-1.5 1.1-1.5 1.5-.4 2.4.7.6 2.2 1.3 3.4 1.7 2.4.7 6.4-1.8 4.9-3.2-1.8-1.7-6.1-2.2-7.9-.9zM239 671.4c0 1.4.5 2.6 1 2.6.6 0 1-.9 1-1.9 0-1.1-.4-2.3-1-2.6-.6-.4-1 .5-1 1.9zM230.3 676.8c-1.4.2-2.3 1-2.3 2.2 0 1.5.9 1.9 5.1 2.2 5.4.3 8.4-.6 7.3-2.4-.4-.6-.1-1.4.5-1.8 1.2-.7-6.1-.8-10.6-.2zM223.2 686.8c-1.3.9-.6 4.2.8 4.2.5 0 1.7.3 2.7.7 1 .3 1.5.3 1.1-.2-.4-.4 0-1.3.9-2 3.2-2.4-1.9-4.9-5.5-2.7zM226.3 698.8c-1.7 1.1-.3 2.9 2.8 3.7 2.8.7 6.5-1.8 5.4-3.6-.7-1.1-6.5-1.2-8.2-.1zM237.8 699.7c.7.3 1.6.2 1.9-.1.4-.3-.2-.6-1.3-.5-1.1 0-1.4.3-.6.6zM230.5 707c-1.1 1.8 1 3.2 4.1 2.8 4-.4 3.8-3.2-.3-3.6-1.7-.2-3.4.2-3.8.8zM90.7 669.2c-2.1 2.2-1.8 3.2.7 2.2.9-.3 1.6-1.5 1.6-2.5 0-2.3 0-2.3-2.3.3zM90.6 673.9c-1.7 1.9-1.7 1.9.3 1.4 1.2-.3 2.1-1.2 2.1-1.9 0-1.8-.4-1.8-2.4.5zM336 691.4c0 2.4 2.3 5.6 4 5.6 1.3 0 2.4 1 3 2.6.9 2.2 1.5 2.5 4.7 2.2 4.7-.4 5.8-3.3 1.9-4.8-1.4-.5-2.6-1.4-2.6-2 0-.5-1.8-1.3-4-1.6-2.2-.4-4-1-4-1.5s-.7-.9-1.5-.9-1.5.2-1.5.4zM319.2 699.4c.1 1 .8 1.7 1.3 1.7 1.5-.1 1.2-2.4-.3-2.9-.9-.3-1.3.2-1 1.2zM329.7 698.7c-1.9 1.9-.5 3.3 3.3 3.3 2.8 0 4-.4 4-1.4 0-2.1-5.6-3.6-7.3-1.9zM324.5 703.1c-.9 1.3 1.3 3 3.5 2.6.8-.1 1.5-.9 1.5-1.7 0-1.8-4-2.6-5-.9zM344.4 706.1c-.8 1.4 1.4 2.9 4.3 2.9 2.7 0 4-1.9 2.2-3.1-2-1.2-5.7-1.1-6.5.2zM323.8 707.8c-2.3.5-2.3 2.8-.1 3.6 2.3.9 4.9-1.7 3.1-3.1-.7-.5-2.1-.8-3-.5zM310.7 751.7c-.4.3-.7 1.1-.7 1.7 0 .6.5.5 1.2-.2.6-.6.9-1.4.7-1.7-.3-.3-.9-.2-1.2.2zM301.5 755c-.3.5-.2 1 .4 1 .5 0 1.3-.5 1.6-1 .3-.6.2-1-.4-1-.5 0-1.3.4-1.6 1zM290 757c0 .5.5 1 1.1 1 .5 0 .7-.5.4-1-.3-.6-.8-1-1.1-1-.2 0-.4.4-.4 1zM410.6 770.5c.4.8.8 1.5 1 1.5.2 0 .4-.7.4-1.5s-.4-1.5-1-1.5c-.5 0-.7.7-.4 1.5zM432.2 770.2c.5 1.5 2.8 1.8 2.9.3 0-.6-.7-1.2-1.7-1.3-1-.3-1.5.1-1.2 1zM271 802.9c0 .5.5 1.3 1 1.6.6.3 1 .2 1-.4 0-.5-.4-1.3-1-1.6-.5-.3-1-.2-1 .4zM275.5 819c.3.5 1.1 1 1.6 1 .6 0 .7-.5.4-1-.3-.6-1.1-1-1.6-1-.6 0-.7.4-.4 1zM277.6 824.8c-.3.6-.1 1.4.5 1.7 1.4.9 2 .2 1-1.4-.6-.8-1.1-.9-1.5-.3zM259.5 830c-.3.5.1 1 1 1s1.3-.5 1-1c-.3-.6-.8-1-1-1-.2 0-.7.4-1 1zM262.8 837.5c.3 1.7-.1 2.7-1.2 3.1-2.4.9-1.9 2.4.9 2.4 2 0 2.5-.5 2.5-2.4 0-2.9-.9-5.6-2-5.6-.4 0-.5 1.1-.2 2.5zM272.6 837.3c.3 1 .9 1.5 1.2 1.2.3-.3 0-1.1-.7-1.8-1-.9-1.1-.8-.5.6zM238.5 846c.3.5 1 1 1.6 1 .5 0 .9-.5.9-1 0-.6-.7-1-1.6-1-.8 0-1.2.4-.9 1zM248.5 847.9c-.3.5-.1 1.2.5 1.6.5.3 1-.1 1-.9 0-1.8-.6-2.1-1.5-.7zM243 851c-1.3.8-1.3 1 .2 1 .9 0 2-.5 2.3-1 .8-1.3-.5-1.3-2.5 0zM298.3 259.6c-4.2 3.2-4.5 6.4-.6 6 1.8-.2 3.4-1.3 4.5-3.2 3.4-5.8 1.5-7.1-3.9-2.8zM375.4 280.4c-4.3 1.1-5.9 2.9-3.1 3.4 1.9.4 9.4-3.3 8.1-4-.5-.2-2.8.1-5 .6zM496.5 281.3c-.8 1.3-4.1 3.7-7.3 5.2-9.7 4.9-13.2 7.4-13.2 9.5 0 1.2-1.2 2.5-3.2 3.5-4.1 1.9-13.3 7.6-15 9.2-.9 1-.8 1.6.8 2.7 1.8 1.4 1.8 1.5.2 2.1-2.4 1-2.3 2.5.2 2.5 5 0 .5 4-17.4 15.5-9.8 6.2-12.5 8.4-12.3 10 .3 2.8 3.1 2.3 13.3-2.6 5.6-2.6 9-3.7 9.6-3.1 1.4 1.4 7.8-.5 10.8-3.3 1.4-1.2 3.5-2.6 4.8-3 1.8-.5 2.2-.2 2.2 1.4 0 2.5.9 2.6 5.7.6 5.5-2.3 6.8-2 4.4 1.1-2.9 3.7-2.6 4.6 1.4 3.8 1.9-.3 3.5-.2 3.5.2 0 .5-2.6 3.4-5.7 6.5-3.2 3.1-7 7.2-8.5 9.2-2.8 3.5-3.7 6.7-1.8 6.7 1.1 0 9.1-3.5 14-6.2 6.9-3.8 10.2-5 11.2-4 .6.6.6 1.2-.2 1.7-.7.4-.2 1.5 1.5 3.1 3.5 3.3 4.5 3 4.5-1.1 0-2.5-.4-3.5-1.6-3.5-.9 0-2.4-1-3.4-2.2l-1.7-2.2-7.5 3.7c-4.1 2-7.8 3.7-8.1 3.7-1.9 0 0-2.8 5.8-8.5 3.6-3.5 6.5-7 6.5-7.8 0-.9-1-2.3-2.2-3.1-1.7-1.2-1.9-1.8-.9-3 2.3-2.8.2-3.9-6-3.2-3.2.3-6.1.2-6.3-.3-.9-1.3-8.7.7-11.9 3-2.2 1.6-3.1 1.8-4.2.9s-3.3-.2-10.2 3c-8.7 4.1-8.8 4.1-5.3 1 1.9-1.6 6.4-4.8 10-7 6.9-4.1 13.7-11.4 13.2-14-.2-.8-1.1-2.2-1.9-3.2-1.3-1.5-.7-2.1 6.9-6.5 5.7-3.4 8.4-5.6 8.6-7.1.2-1.5 2.8-3.4 9-6.8 8.6-4.6 11.1-6.7 11.2-9.2 0-2-1.8-1.4-3.5 1.1zM323.5 286.5c-3.7 1.6-7 5.1-5.6 5.9.5.4 2.6-.5 4.7-1.9 2.9-2 4-2.3 5.1-1.3 1.1.9 1.6.9 2.4-.3 2.1-3.4-1.5-4.7-6.6-2.4zM330.4 323.3c-1 2.7 0 6.2 1.9 6.5 1.6.3 1.8-.2 1.5-3.4-.3-3.9-2.4-5.7-3.4-3.1zM250.4 349.9c-2.8 1.4-8.2 5.1-12 8.1-11.8 9.4-20.2 15-22.5 15-.6 0-.3-1 .5-2.2.9-1.2 1.6-3 1.6-3.8 0-.9 1.6-3.1 3.5-5 4-3.8 4.4-6.4 1.5-8-1.1-.6-2-1.7-2-2.5 0-4.1-12.4.3-23 8-4.1 3.1-10.5 7.6-14.1 10-3.7 2.4-8.6 6.7-10.9 9.5-2.3 2.7-4.5 4.8-4.9 4.5-1.5-.9.2-7 2.4-8.7 1.3-1 3-3.5 3.8-5.7.9-2.2 2.1-4.2 2.7-4.6 2-1.2-1-3.5-4.6-3.5-1.9 0-3.4-.5-3.4-1 0-1.5-3.5-1.2-7.5.7-2.9 1.4-4.1 1.5-6.6.6-2.7-1-3.8-.9-7.8 1-2.5 1.2-6.6 3.5-9.1 5.1-5.6 3.8-19.6 17.8-27.6 27.7-6.5 8-11.4 11.9-15 11.9-3.7 0-3.8-2-.3-5.6 2.3-2.4 3-3.7 2.2-4.5-1.7-1.7-8.2.1-11.9 3.3-2.4 2.2-3.9 2.8-5.5 2.3-1.7-.6-3.1.3-6.8 3.8-2.5 2.4-7.7 6.8-11.5 9.7-6.5 4.8-7.2 5.1-11.2 4.5-4.2-.6-9.2 1.1-16.2 5.6-1.8 1.1-2.6 1.1-4.2.1-1.1-.6-2.5-1.2-3.1-1.2-.6 0-4.4 3.3-8.5 7.2-8.8 8.6-10.5 9.5-7 3.9 3.2-5.1 3.3-6.5.3-5.7-4.2 1-11.7 5.7-11.7 7.3 0 1.4.3 1.3 2-.2 1.5-1.4 2.3-1.6 3.2-.7.8.8.5 1.8-1.1 3.8-2.4 3.1-2.6 4.7-.8 6.3 1.8 1.4 9-3.1 17.1-10.9 4.8-4.5 6.5-5.6 8.1-5 2.5.9 6.3-.4 9.5-3.5 3.3-3 7-4.2 7-2.2 0 2.1 2.3 2.7 4.7 1.4 1.1-.7 4.2-2.4 7-3.9 2.7-1.4 8.6-5.6 13.2-9.3 4.6-3.6 8.9-6.4 9.7-6.1.7.3 2.7-.6 4.3-1.9 1.6-1.4 3.1-2.5 3.4-2.5.3 0 .7 1.4.9 3.1.5 4.8 2.6 5.6 9.3 3.5 6.2-1.9 11.3-5.9 14.6-11.4 3.2-5.3 17.3-19.5 25.4-25.6 9.4-7 9-6.8 14.9-7.1 2.9-.2 7.2-1.1 9.5-2.1 4.1-1.6 4.5-1.6 5.6-.1.7 1 2 1.7 2.9 1.7 2.5 0 1 4.7-2.9 9.1-2.8 3.2-3.3 4.4-3.1 8.5.1 3.6.5 5 1.7 5.2.9.1 5.3-2.8 9.9-6.5 4.5-3.7 9.7-7.9 11.6-9.3 1.8-1.4 4.3-3.7 5.4-5.3 2.8-3.5 11.8-9.6 19.3-13.1 6.9-3.1 7.1-3.1 6.4-.6-.3 1.3.2 2.5 1.6 3.5 2.1 1.5 2.1 1.5-1.7 5.4-2.5 2.5-3.7 4.5-3.3 5.5.4 1-.3 2.2-1.8 3.2-2.9 1.9-3.3 5.2-.8 6.1 2.4.9 17.8-8.5 29.8-18.2 8.8-7.2 16.3-10.1 10.2-3.9-3.4 3.3-3.4 4.2-.1 5.4 2.3.9 2.4 1.3 1.3 2.6-.7.9-3.9 3.4-7.1 5.5-3.5 2.4-5.8 4.7-5.8 5.8 0 1-.7 2.4-1.5 3.1-2.2 1.8-1.8 3.9.7 4.9 2 .7 1.5 1.3-5.1 5.6-4 2.7-10.5 7.5-14.5 10.7-3.9 3.2-9.1 6.7-11.6 7.9-2.5 1.2-7.4 4-11 6.4-3.6 2.3-10.5 6.1-15.5 8.5-4.9 2.4-10.6 5.5-12.5 6.9-1.9 1.4-4.2 3-5.2 3.6-5.6 3.3-16 10.9-20.4 14.8-6 5.4-8.3 9.9-6.4 12.2 1.6 2-1 5-9.5 10.9-11.5 7.9-14.3 9.2-16.7 7.7-1-.6-3.2-1.1-4.9-1.1-3 0-3.1-.1-2.6-3.4 1.3-7.9-6-7.3-19 1.5-2.3 1.6-4.8 2.9-5.7 2.9-2.8 0-2.6-1.8.4-4 2-1.4 3-3 3-4.7 0-1.5 1.6-4.3 4-7 4.5-5.1 4.9-7.2 2-9.8-2.6-2.4-8.8-1.4-15.9 2.7-4.5 2.5-5.8 2.8-7.3 1.9-1.5-.9-2.7-.6-6.6 1.5-2.6 1.5-6.5 4.2-8.7 5.9-2.2 1.8-6.5 4.4-9.5 5.8-3.1 1.5-7.9 5-11 8.3-3 3.1-10.6 9-16.8 13.2-10.7 7.1-14 9.8-13.1 10.6.9.8 27.7-17.9 33.1-23 3.1-3 7.8-6.3 10.5-7.5 2.6-1.1 6.5-3.5 8.8-5.3 2.2-1.8 5.3-4 7-4.8 2.7-1.4 3-1.4 4.1 0 1 1.4 1.7 1.2 6.3-1.6 2.8-1.8 5.7-3.2 6.4-3.2.7 0 1.8-.5 2.4-1.1 1.3-1.3 6.5-.8 7 .7.2.7-1.4 3.3-3.7 5.8-2.2 2.6-4 5.8-4 7 0 1.7-.9 2.7-3 3.6-2.6 1.1-3 1.8-3 5.1 0 2.1.5 4.1 1 4.4 1.7 1.1 12.1-2.6 17.5-6.2 5.9-3.9 6.9-4.1 6.2-1.1-.8 2.8 2.7 6.8 6 6.8 1.3 0 2.2.5 2.1 1.2-.5 2.3 6.8 1 13.2-2.2 8.1-4.1 18.8-11 25.6-16.5 3-2.5 5.9-4.5 6.4-4.5.6 0 1-.6 1-1.3 0-.6 2-2.5 4.5-4 5-3.2 5.9-4.2 5-5.7-.4-.7-2.7.1-5.9 2-9.7 5.5-13.3 2.8-4.8-3.6 9.8-7.4 30-19.9 37.5-23.2 4.3-1.8 10.4-5 13.5-7.1 3.2-2.1 7.8-5.1 10.4-6.7 6.5-4.1 30.9-22.6 33.3-25.3 1.9-2.3 1.9-2.3-.3-4l-2.3-1.7 3-4.1c1.7-2.3 4-4.7 5.2-5.4 3.3-1.7 8.9-7.6 8.9-9.4 0-.8-.6-1.5-1.4-1.5-2.7 0-2.7-2-.2-5.3 1.5-1.9 2.6-3.9 2.6-4.5 0-1.9-4.1-1.1-9.6 1.7zM305.7 367.7c-2.7.7-1.7 3.8 1.3 3.8 1.8 0 2.5-.5 2.5-1.9 0-2.1-1-2.6-3.8-1.9zM306 374.4c-1 1.3-.9 1.7.3 2.2 2.4.9 5.2 0 5.2-1.6 0-2.1-3.9-2.4-5.5-.6zM310.2 379.2c-1.9 1.9-1.4 2.8 1.4 2.8 1.8 0 2.5-.5 2.2-1.7-.4-2.1-2.1-2.6-3.6-1.1zM325.3 560.6c-1 2.7 2.9 10.9 5.5 11.2 1.8.3 2.2-.1 2.2-2.2 0-4.4-3-10.6-5.1-10.6-1.1 0-2.2.7-2.6 1.6zM391.1 580.9c-.9.6-1.2 1.8-.7 3.7 1.7 6.5 1.7 10.3.2 15.4-2 6.7-2 8.5 0 10.5 2.4 2.3 3.8 1.4 4.6-3.1 3.1-18.5 3.1-20.4.2-25.2-1.6-2.4-2.2-2.6-4.3-1.3zM365.1 616.8c-.1 1.3.3 2 .9 1.7.6-.4 1 1 1 3.4 0 4.3 1.4 5.5 2.5 2.1 1-3.1-.4-8.2-2-7.6-.8.3-1.6 0-1.9-.7-.2-.7-.5-.2-.5 1.1zM402.6 616.9c-.4.7-.5 1.5-.2 1.8.9.9 1.9-.4 1.4-1.8-.4-1.1-.6-1.1-1.2 0zM499.2 619.5c0 1.6.2 2.2.5 1.2.2-.9.2-2.3 0-3-.3-.6-.5.1-.5 1.8zM387 622.9c0 .5.5 1.3 1 1.6.6.3 1 .2 1-.4 0-.5-.4-1.3-1-1.6-.5-.3-1-.2-1 .4zM369 631c0 .5.5 1 1 1 .6 0 1-.5 1-1 0-.6-.4-1-1-1-.5 0-1 .4-1 1zM411.2 635.5c0 1.6.2 2.2.5 1.2.2-.9.2-2.3 0-3-.3-.6-.5.1-.5 1.8zM1.1 635c-.1.3-.4 2.1-.7 4-.3 2.5-.1 3.1.7 2.3.6-.6.9-2.3.6-3.9-.2-1.6-.5-2.7-.6-2.4zM6 636c0 .5.7 1 1.5 1s1.5-.5 1.5-1c0-.6-.7-1-1.5-1s-1.5.4-1.5 1zM0 651.1c0 .5.5.7 1 .4.5-.3 1-.8 1-1.1 0-.2-.4-.4-1-.4-.5 0-1 .5-1 1.1zM0 657c0 1.6.5 2.1 2.3 1.8 1.2-.2 2.2-1 2.2-1.8s-1-1.6-2.2-1.8c-1.8-.3-2.3.2-2.3 1.8zM496 658c-.5 1-1 2.6-1 3.4 0 1.2-1 1.6-3.9 1.6-3.1 0-4.1.4-4.6 2-.8 2.6.1 4 2.6 4 1 0 2.8.5 3.8 1.1 1 .7 3 .9 4.4.5 2.6-.6 2.7-1 2.7-7 0-4.7-.4-6.5-1.5-7-.8-.3-1.9.3-2.5 1.4zm3 6c0 2.2-.5 3-1.8 3-1.9 0-2.3-2.4-.8-4.8 1.3-2.1 2.6-1.3 2.6 1.8zM0 666.4c0 1.7.5 2.2 2.3 2.1 1.2-.1 2.2-.8 2.2-1.5s-1-1.6-2.2-2.1c-2-.7-2.3-.5-2.3 1.5zM16.4 666.1c-.3.6-.2 1.5.4 2.1 1.5 1.5 5.6.5 6-1.5.3-1.3-.3-1.7-2.7-1.7-1.6 0-3.3.5-3.7 1.1zM27 667.4c-1.7 2.2.2 2.8 7.1 2.4 4-.2 5.4-.7 5.4-1.8 0-2.2-10.7-2.7-12.5-.6zM15.4 674.1c-1 1.8 1.1 3.1 4 2.3 3.6-.9 3.4-3.4-.3-3.4-1.7 0-3.3.5-3.7 1.1zM35.8 673.7c.7.3 1.6.2 1.9-.1.4-.3-.2-.6-1.3-.5-1.1 0-1.4.3-.6.6zM495.6 674.7c-.4.4-7.3.8-15.3.8-14.6 0-16.3.4-14.3 3.5.7 1.2 2.9 1.4 11.1 1.2 6.4-.1 10.5.2 10.9.8.5.8 1.6.7 3.6-.1 1.6-.7 4.1-1.2 5.7-1.2 2.3 0 2.7-.4 2.7-2.8 0-2.1-.5-2.9-1.8-2.9-1 0-2.2.3-2.6.7zM26.6 676.8c-1 1.6 2.1 3.4 5.1 3 4.3-.5 3.6-3.2-.9-3.6-2-.2-3.9.1-4.2.6zM481.8 682.8c-5.1 1.4-6.4 3.8-2.5 4.6 6.2 1.3 11.7 1.3 12.8 0 1.4-1.7-.5-4.4-3.1-4.4-1 0-2-.4-2.2-.8-.1-.4-2.4-.2-5 .6zM495.8 682.7c-1.1.3-1.8 1.4-1.8 2.9 0 2 .5 2.4 3 2.4 2.7 0 3-.3 3-3 0-3-.6-3.3-4.2-2.3zM1.8 684.7c-1.1.3-1.8 1.4-1.8 2.8 0 2.3.1 2.3 3 .8 2.5-1.2 2.9-1.8 1.9-2.9-.6-.8-1.2-1.3-1.3-1.3 0 .1-.9.3-1.8.6zM14 686.3c0 2.2 2.5 2.8 8.6 2.1 7.6-.9 6.4-2.8-1.9-3.2-5.3-.2-6.7 0-6.7 1.1z"/><path d="M30.2 685.9c-1.2.7-1.2 1.3 0 3.5l1.4 2.7 2.3-2.5c1.3-1.3 2-2.9 1.6-3.5-.7-1.3-3.5-1.4-5.3-.2zM470.5 686c.3.5 1 1 1.6 1 .5 0 .9-.5.9-1 0-.6-.7-1-1.6-1-.8 0-1.2.4-.9 1zM466.5 691c-1.1 1.8 1 3.2 4.1 2.8 4-.4 3.8-3.2-.3-3.6-1.7-.2-3.4.2-3.8.8zM20.8 691.7c.7.3 1.6.2 1.9-.1.4-.3-.2-.6-1.3-.5-1.1 0-1.4.3-.6.6zM24 692c0 .5.5 1 1 1 .6 0 1-.5 1-1 0-.6-.4-1-1-1-.5 0-1 .4-1 1zM453 693c-1.3.8-1.3 1.1.2 2.6 2 2 7.3 2.3 9.1.5 2.7-2.7-5.6-5.5-9.3-3.1zM15.2 694.3c-3.4 1.1-3.8 3.2-.6 3.3 1 0 3.2.4 4.7.8 2.1.6 3.3.4 4.4-.6 1.3-1.3 1.3-1.7-.2-3.2-1.8-1.8-3.5-1.9-8.3-.3zM28.7 695.7c-1.4 1.3-.6 2.4 1.5 2.1 2.7-.4 3.6-2.8 1.1-2.8-1.1 0-2.3.3-2.6.7zM476 696.8c-4.7.6-5.2 1-4 3.2.8 1.5 1.8 1.9 4.3 1.6 1.8-.3 3.5-.5 4-.5 1.2-.1.8-3.9-.5-4.3-.7-.2-2.4-.2-3.8 0zM487 697.4c0 1.8.6 2.2 4.8 3.1 2.5.5 3.3.3 3.8-1 .9-2.2-1.2-3.5-5.3-3.5-2.2 0-3.3.5-3.3 1.4zM0 699.4c0 .9.5 1.6 1 1.6.6 0 1-.4 1-.9 0-.6-.4-1.3-1-1.6-.5-.3-1 .1-1 .9zM448.4 700.1c-.4.7 0 1.7 1 2.5 2.1 1.5 7.1.4 7.1-1.7 0-1.8-7-2.5-8.1-.8zM5.5 701c-.3.5-.1 1 .4 1 .6 0 1.1-.5 1.1-1 0-.6-.2-1-.4-1-.3 0-.8.4-1.1 1zM0 706.5c0 3 2.5 3.4 3.9.6.8-1.5.7-2-.5-2.5-2.7-1-3.4-.7-3.4 1.9zM439.3 705.6c-1.4 3.6 7.1 6.1 9.7 2.9 2.2-2.7.4-4.5-4.5-4.5-3.3 0-4.7.5-5.2 1.6zM481 707c0 2.6 3.8 3.5 9.3 2.2 2.3-.6 5.4-.8 7-.5 2.3.4 2.7.2 2.7-1.6 0-1.5-.6-2.1-2.3-2.1-1.3 0-2.8.5-3.4 1.1-.8.8-1.3.8-1.7 0-.4-.6-3.2-1.1-6.2-1.1-4.7 0-5.4.2-5.4 2zM15.5 708c-1.4 1.6-2.1 1.7-3.2.8-.9-.7-1.7-.8-2.4-.1-1.1 1.1-1.3 1.1 9.6 2.1 9.2.9 13.5.5 13.5-1.2 0-2.6-2.6-3.6-9-3.6-5.4 0-7 .4-8.5 2zM460.4 707.5c-.9 2.3.5 3.5 4 3.5s6.2-2.1 5.1-4c-1-1.6-8.5-1.2-9.1.5zM495.8 711.7c.7.3 1.6.2 1.9-.1.4-.3-.2-.6-1.3-.5-1.1 0-1.4.3-.6.6zM493.9 759.4c-.4.4-22.2 2.3-34.3 3.1-7.6.4-8.1.7-7.2 3.1.5 1.4 1.7 1.5 7.9 1 13.2-1.2 35.2-3.6 37.5-4.1 3.3-.8 2.8-3.5-.6-3.5-1.6 0-3.1.2-3.3.4zM468 775c-1.9 1.2-1.3 1.6 4.5 2.8l5 1-5.4.1c-4.1.1-5.7-.3-6.7-1.7-2-2.7-4.8-.4-5.2 4.5-.3 3.9-.4 3.9-6 5.4-3.6.9-5.8 2-6 3-.3 1.9 3.7 3.9 7.9 3.9 1.8 0 3.2.6 3.6 1.6.7 2-1.3 3.4-5 3.4-3.5 0-6.7 1.6-6.7 3.4 0 1.4 3.2 3 8.3 4.2 3.5.8 3.5 2.2 0 3.5-3.2 1.2-4.3 2.6-4.3 5.5 0 2.2 2.4 3.9 4.1 2.8.5-.3.9-1.8.9-3.5 0-1.9.5-2.9 1.5-2.9 1.5 0 1.6.3 1.9 14.4.1 4.4.5 6.2 1.8 7 .9.5 1.9.8 2.1.6.3-.3.7-5.2 1.1-11 .3-5.8.5-10.5.6-10.6 0 0 5.3.2 11.8.4 13.6.4 19.5-.9 20-4.5.5-3.3-5.8-4.6-20.3-4.2-11 .4-12 .3-12.3-1.4-.4-1.8.3-1.9 8.4-1.5 6 .2 8.8-.1 9.1-.9.3-.7-2.4-1.3-8.1-1.8-5.9-.5-8.6-1.1-8.6-2 0-1.3 3.6-2 17.5-3.1 4.4-.4 8.7-1 9.5-1.5 3.1-1.6-1.9-2-13.7-1.1-6.5.6-12 .9-12.2.7-.2-.2-.1-1.1.3-2 .4-1.2 1.4-1.4 4.5-.9 2.2.4 5.2.4 6.6 0 4.8-1.2 2.4-2.5-5.2-2.8-7.1-.3-7.8-.5-8.1-2.4-.3-2.1 0-2.2 6-1.7 5.3.5 6.7.2 8.8-1.5 2.2-1.8 2.3-2.2 1-3.5-1.8-1.7-11-2.9-13-1.7zm-9 15c0 .5-.9 1-2 1s-2-.5-2-1c0-.6.9-1 2-1s2 .4 2 1zm.5 12.1c.4.6.5 1.3.1 1.6-.8.8-5.6-.6-5.6-1.7 0-1.3 4.7-1.3 5.5.1zm34.3 6.1c-.7 1.9-9.2 3-18.7 2.3-16.4-1.1-12.4-3.3 6.2-3.4 9.9-.1 12.8.2 12.5 1.1zM28 777c-8 2.5-11.7 4.9-13.4 8.5-2.4 4.9-1.5 9.3 2.7 13.2 4 3.9 6.8 5.3 10.2 5.3 2 0 4.4 1.7 9 6.5 6.6 6.8 9.9 8.1 12.6 4.9 1.3-1.5 19.3-10.6 23.5-11.8 1.2-.4 6-2.9 10.5-5.7 10.5-6.3 17.4-9.9 19.2-9.9.8 0 2 .7 2.7 1.5 1 1.2-1.3 2.6-14.7 9.1-8.7 4.2-16.9 8.3-18.3 9-4.4 2.4-28.3 13.8-35.5 16.9-6.4 2.7-11 5.4-14.7 8.4-2.8 2.3-3 2.3-4.8.6-1.5-1.4-1.7-2.1-.9-3.2 1.7-2-.5-1.6-2.4.5-2.9 3.1-2.1 7.4 1.6 9.9 1.8 1.3 3.8 2.3 4.3 2.3.6 0 6.4-2.6 13-5.8 20.5-10.1 18.6-9.4 22.5-7.8 1.9.7 5.4 1.7 7.7 2.1 3.7.6 33.4 14.7 36.7 17.5.5.4 10.9 5.9 23 12 12.1 6.2 23.7 12.4 25.8 13.8 2.4 1.6 5.6 2.6 9 2.9l5.2.5-3-1.9c-1.6-1.1-8.4-4.6-15-7.9-6.6-3.3-16.7-8.5-22.5-11.6-5.8-3-17.2-9-25.5-13.3-13.3-6.9-23.2-12.2-24.4-13.2-.2-.1.1-1.4.7-2.9l1.2-2.5 2.8 1.9c3.1 2.1 11.6 6.8 24.7 13.7 5 2.6 9.5 5.1 10 5.5.6.5 7.1 3.9 14.5 7.8 7.4 3.8 16.9 8.7 21 10.9 20.8 11 26 13.4 28.7 13.1 2.3-.2.9-1.3-8.7-6.2-6.3-3.3-20.5-10.9-31.5-16.9-11-6-22.5-12.3-25.5-13.9-3-1.6-11.2-6.4-18.3-10.5-10.3-6.1-12.5-7.8-11.6-8.9 1.8-2.2 5.6-1.6 11.7 1.7 3.1 1.8 6.2 3.5 6.7 3.9.6.4 6.9 3.8 14 7.5 7.2 3.8 15.3 8 18 9.5 2.8 1.5 8.6 4.6 13 7 4.4 2.3 11.2 5.9 15 8 26.6 14.2 36.5 19 39.4 19 1.9 0 3-.4 2.6-1-.3-.6-1.3-1-2.2-1-.8 0-2.7-.8-4.1-1.8-4.3-3-53.6-29.2-54.9-29.2-.3 0-1.4-.6-2.2-1.4-.9-.7-6.3-3.8-12.1-6.9-5.8-3-15.4-8.3-21.4-11.6-6-3.4-11.3-6.1-11.7-6.1-1.2 0-2.6-2.4-3.3-5.5-.7-3.3-1-3.1 15.7-11.7 9.4-4.8 10.6-6.6 7.7-11.4-3.6-5.7-8-6.9-12.8-3.5-1.5 1-4.9 2.9-7.7 4.3-2.7 1.3-7.9 4.1-11.4 6.2-6.3 3.6-6.6 3.7-9.5 2.1-1.7-.9-8-3.5-14-5.9-9.6-3.7-11.1-4.6-11.7-7-1-3.7-3.5-6.4-8.1-8.7-4-2.1-5-2.2-8.8-.9zm7.7 6.6c2.1 1.6 3.3 3.4 3.3 4.8 0 1.3.6 2.9 1.3 3.5 2.2 1.8 19.9 8.3 24 8.8 2 .3 3.7.8 3.7 1.2 0 .9-12.4 7.1-14.1 7.1-.6 0-.8-.7-.5-1.6.7-1.9-1.2-3.7-6.6-6.2-2.1-.9-3.8-2-3.8-2.4 0-.5-.5-.8-1.2-.8-.6 0-1.9-.7-2.9-1.6-1.6-1.4-2.1-1.4-5.9.6-5.8 2.9-9.6 2.3-13.2-2.1-3.2-3.9-3-6.4.6-8 1.1-.5 3.6-2.1 5.5-3.4 4.3-3.1 5.6-3.1 9.8.1zm47 28.6c2.2 1.8 1.4 3.8-1.9 5.3-15.1 6.6-20.1 8.4-21.4 7.7-1.3-.8-1.3-1 0-2.1 2.6-2.1 1.9-3.4-1.4-2.8-1.6.4-3 .4-3 .2 0-.6 15.8-8.6 19-9.6 2.8-.9 6.8-.3 8.7 1.3z"/><path d="M31.2 821.7c-5.1 2.5-9 4.8-8.8 5 .5.5 16.5-7.3 18.1-8.8 1.4-1.4.6-1.1-9.3 3.8zM469.7 817.6c-1.6 1.6-.6 3.5 1.6 3.2 1.2-.2 2.2-1 2.2-1.8 0-1.6-2.6-2.5-3.8-1.4z"/></svg>