<svg version="1" xmlns="http://www.w3.org/2000/svg" width="666.667" height="1170.667" viewBox="0 0 500 878"><path d="M228.8 23.9c-4.7.3-9 .9-9.3 1.3-1.5 1.5.5 3.8 3.4 3.8 1.6 0 3.7.3 4.6.6 1.8.7 6.2 9.5 7.1 14.4.6 2.9.6 3-3.5 3.1-9 .3-10 .4-11.2 1.6-.9.9-.9 1.5-.1 2.6 1 1.1 4.8 1.4 20 1.1 21.3-.4 36.4-1.2 38.7-2.1.9-.3 1.5-1.5 1.3-2.6-.3-1.9-1-2.1-7.8-2.2h-7.5l.4-8c.2-4.4.5-8.3.8-8.8.2-.4 3.3-.7 6.8-.7 4.9 0 6.4-.4 6.9-1.7.4-.9.1-2-.6-2.4-1.4-.9-36.9-.9-50 0zm16.2 6.6c0 2.4-2.8 8.5-3.8 8.5-.8 0-5.2-8-5.2-9.5 0-.3 2-.5 4.5-.5 3.4 0 4.5.4 4.5 1.5zm13.2 2.2c.3 2.1.3 5.9 0 8.5l-.5 4.8h-5.3c-6.2 0-6.2.1-3.4-8.9 2.6-8.1 2.6-8.1 5.9-8.1 2.6 0 2.9.4 3.3 3.7zM106.5 98.6c-6.3 3.4-6.9 7.2-3 18.7 1.4 4 3.6 12.2 5 18.2 2.9 13.4 4.4 19.3 8 31 5.9 19.8 7.3 26.5 6.3 30.9-.5 2.2-1.1 6.1-1.4 8.6-.7 8.1-2.5 14-4.2 14.1-3.4.3-5.7.6-6.9.7-2.2.3-4.2 5.7-5.3 14.3-.5 4.6-1.4 9.7-1.8 11.4-.5 1.6-.7 3.6-.5 4.2.3.7.1 1.3-.4 1.3-1.1 0-4.5 8.3-6.8 16.5-1 3.3-2.3 7.1-3 8.5-3.9 7.8-4.7 13-4.9 32.9-.2 10.9-.6 20.3-1 21-.6.9-1.1.9-2.3-.1-2.7-2.2-5.9-2-7.5.4-1.4 2.1-2.3 2.3-8.9 2.3h-7.4l-.3-4.8c-.4-5.4.9-7.7 4.4-7.7 3.9 0 5.4-2.5 5.4-9 0-5.1-.3-6.1-2.5-7.8-1.4-1.1-2.5-2.5-2.5-3.1 0-.7-.7-2.3-1.6-3.7-1.4-2-2.2-2.3-4.8-1.9-2.9.6-3.3.3-4.4-2.8-1-2.9-2.1-3.8-6.2-5.1-2.7-.9-5.6-1.6-6.4-1.6-1.8 0-3.3 2.5-4 6.5-.3 1.6-2 4.4-3.8 6.2-3.2 3.4-3.3 3.4-4.7 1.4-2-3.1-7.4-2.8-10 .5-2.2 2.8-2.8 6.9-1.1 7.9.5.3.7 3.3.3 7.1-.5 5.8-.4 6.7 1.7 8.9 1.3 1.4 3.1 2.4 3.9 2.3 1.1-.2 1.7.6 1.9 2.3.2 2.1-.3 2.8-2.5 3.7-4.1 1.5-12.1 3.8-18 5.2-3.5.8-5.3 1.7-5.3 2.7 0 1.1.6 1.3 2.3.8 1.2-.4 6.2-1.7 11.2-3 5-1.3 12.8-3.7 17.5-5.4 4.7-1.8 10.1-3.2 12.1-3.3 3.7 0 11 3.1 14.6 6.4 1.2 1.1 3.2 2 4.5 1.9 9.3-.3 17.8 0 20.3.7 2.8.8 3 1.1 2.7 5.3-.2 2.4-.8 6.2-1.3 8.4-1.5 6.7-1 10.4 2.3 19.9 3.1 8.7 3.2 9.7 3 23.1-.1 7.7-1.1 19.8-2.2 27-1 7.1-2.6 18.6-3.5 25.4-.9 6.8-2.1 13.5-2.6 14.9-3.5 9.1-8.3 31.4-8.4 38.4 0 4.2-.3 8-.7 8.4-.5.4-.8 2-.8 3.5s-.5 3.1-1.1 3.5c-.7.4-2.9 4.4-5 8.9-4.8 10.1-8.6 27.9-9.9 45.3-.5 7-1.4 17.8-1.9 24.1-.8 10.4-.8 11.6 1 14.5 1 1.7 1.9 4.3 1.9 5.8 0 4.3 1.8 7.8 4.6 8.8 1.4.6 8 1.5 14.7 2.1 6.6.5 12.9 1.5 13.9 2 2.6 1.4 5.4 8.2 7.3 18.1 1.5 7.6 1.5 9 .1 16.8-1.4 7.4-2 8.9-4.8 11.3-8.8 7.6-15.1 14.7-17.9 20.3-2.3 4.7-3.7 6.3-6.3 7.2-3.8 1.4-6.7 5-8.5 10.9-1.2 3.6-1.2 4.5 0 5.9 1.1 1.4 1.1 1.8-.5 2.9-1.4 1-1.5 1.8-.7 3.3 2.3 4.3.5 5.7-13.2 10.8-7.3 2.6-15.8 6.1-18.9 7.6-3.1 1.5-6.2 2.8-6.7 2.8-.6 0-3.2 1-5.9 2.3-2.6 1.2-6.6 2.9-8.9 3.6L0 753.3v13.4C0 779.5.1 780 2.1 780c1.2 0 3.5.6 5.2 1.4 1.8.8 6.6 2.2 10.7 3.1 9.8 2.2 22 6.5 22 7.8 0 .5-1.8 5.5-4 10.9-5.8 14.4-5.3 17.6 2.7 20.7 2.2.9 4.5 1.1 7 .5 2.1-.5 4.5-.9 5.3-1 1.8-.1 6.8-2 9.2-3.4 1-.6 2.6-1 3.6-1s2.2-.4 2.7-.9c.6-.5 2.6-1.2 4.5-1.6l3.5-.7-3 2.6c-3.3 2.8-4.5 3.2-4.5 1.5 0-.5-.5-.7-1.1-.3-.8.4-.4 1.1 1.1 1.9 1.5.8 1.8 1.4 1 1.7-.7.2-1.1 1-.9 1.6.3.8 1.9 0 4.4-2.3 2.2-1.9 4.4-3.5 4.9-3.5s1.9-1.1 3.2-2.5c2-2.2 3-2.5 6.4-2.1 2.2.3 4.2.1 4.5-.5 1-1.5 5.5-1.1 5.5.6 0 .8-.7 1.5-1.5 1.5s-1.5.7-1.5 1.5-.7 1.5-1.5 1.5c-3.3 0-1.2 2 2.7 2.6 2.2.4 4.9 1.5 5.9 2.5s2.1 1.4 2.4.9c.3-.5 0-1.2-.7-1.6-.8-.5.6-1.3 3.7-2.1 4.5-1.1 4.6-1.2 1.1-.8-2.2.2-4.6-.1-5.3-.7-1-.8-1.3-.6-1.3.7 0 2.9-2.5 1-2.6-2.1-.1-1.6-.4-3.9-.8-5-.5-1.8-.2-2.2 2.1-2.7 1.5-.3 3.8-.1 5.1.4 1.3.5 3.7.9 5.3.9 1.7 0 2.8.4 2.5.9-.3.5 3.4 2.1 8.2 3.6 4.8 1.5 9.2 3.1 9.7 3.5.6.5 2.9 1.3 5 1.8 4.5 1.1 11.6 3.1 21.9 6.1 3.8 1.1 7.9 2.9 9 4 2 1.9 2.4 2.1 4.6 2.1.6 0 1 .4 1 1 0 .5-1.1 1-2.5 1s-2.5.3-2.5.7c0 1.2-5.1 3.3-6.2 2.7-.5-.3-1.5-.1-2.2.5-.7.6-2.1.9-3 .5-.9-.4-1.6-.1-1.6.6s-.8 1-2 .7c-2.1-.5-4.5 1.6-3.6 3.2.6 1-4.5 3.1-7.5 3.1-1.1 0-1.9-.7-1.9-1.5 0-1.2-.8-1.4-3.2-1-3.5.6-5.6 2.1-4.5 3.1.3.3 2-.1 3.6-.9 3.6-1.8 3.9-1.5 1.2 1.2-1.6 1.6-3.9 2.8-7.1 3.6-.3.1-1.2.4-2 .8-6.2 2.4-15.3 4.8-16.5 4.3-.8-.3-1.5-.1-1.5.3 0 1.7-3.3 2.1-4.9.8-1.8-1.6-11-4.1-11.9-3.2-.3.3-1.2-.1-2.1-.8-.9-.8-3.8-1.9-6.6-2.6-9.4-2.3-21-5.3-22.5-5.8-.8-.3-2.8-.7-4.4-.9-1.6-.3-3.8-1.1-4.7-2-1-.9-2.2-1.3-2.8-1-.5.4-1.3.1-1.6-.4-.4-.6-1.9-.9-3.5-.5-2 .4-2.9.2-3.4-1-.3-.9-1.1-1.3-1.6-1-.6.4-1.7.2-2.4-.4-.7-.6-2.1-.8-3-.5-1.1.4-2.2-.1-3.1-1.2-1-1.3-1.4-1.5-1.5-.5 0 .8-.6 1.1-1.7.6-1-.4-2.7-.8-3.8-1-5-.8-18.9-6.7-20-8.4-2.1-3.4-2.5.9-2.5 24.4V878h19c10.5 0 19-.4 19-.9s-.7-1.4-1.5-2.1c-.8-.7-1.5-2.2-1.5-3.4 0-2 .1-2 2 .4 1.1 1.4 2 3.3 2 4.2 0 1.5 1 1.8 6 1.8 5.2 0 5.9-.2 5.4-1.8s-.5-1.6.8 0 5.3 1.7 47.1 1.8c39.3 0 45.7-.2 45.7-1.4 0-.8.5-1.8 1.2-2.2.8-.5.9 0 .6 1.4-.4 1.5-.2 2.2.8 2.2.8 0 1.5-.5 1.5-1 .1-.6.3-1.5.4-2 .1-.6.3-1.2.4-1.5 0-.3 1.2.2 2.6 1.1 2.4 1.5 2.5 1.5 2.6-.2.1-1.1.1-2.2 0-2.7 0-.4.6-.7 1.5-.7 1.3 0 1.5.8 1.2 3.5-.4 3.1-.1 3.5 1.9 3.5 1.3 0 2.2-.3 2.2-.8-.1-.4-.1-2.2 0-4 .1-4.2 1.8-3.3 2.7 1.4.8 4.2 1.5 3.8 2.3-1.3.7-4.5 2.5-5 2.9-1 .3 2.5.7 2.8 2.7 2.3 1.4-.4 2.5-.1 2.8.7.3.6.6.1.7-1.3l.1-2.5 1.9 2.4 2 2.3v-2.3c0-4.5 1.6-5.4 3-1.7l1.3 3.3.6-3.5c.5-2.8.8-3.1 1.4-1.7 1.5 3.9.9 5.7-2.2 5.7-1.7 0-3.3.4-3.6 1-.8 1.3 9.9 1.3 12.3 0 .9-.5 4.5-1.9 8-3s7.1-2.5 8-3c7.7-4.2 19.7-8 25.5-8 6.4 0 13.4 4.6 18.2 12.3 1.5 2.3 5.5 3.9 5.5 2.1 0-1.9-8.8-12.9-11.6-14.6-1.9-1.1-3.3-2.2-3.1-2.4 1.1-1.1 17.4-3.3 22.6-3 10.1.5 22 8.6 26.2 17.9 1.2 2.7 1.2 2.7 12.5 2.7h11.2l-.9-3.3c-2.4-9-5.9-24-5.9-25.3 0-1.9 2-1.4 11 2.9 3.6 1.7 6.7 3.2 7 3.2.3 0 1.6.8 3 1.7 5.5 3.6 26.1 10.6 34 11.4 6.5.7 35.3-2.1 40.7-4 2.1-.7 7-1.4 11-1.5 10.4-.3 15.2 2 19.3 9.3 2.5 4.4 3.7 5.6 5.7 5.6 2.5 0 2.4-.8-.4-4.1-.8-.9-2.4-3.6-3.6-6-1.9-3.8-3-4.7-8.2-6.8-8.7-3.4-15.3-3-33.5 2.2-6.9 2-22.9 2.8-29.5 1.5-10.4-2.1-23.4-6.9-41-15.3-6.6-3.2-13.2-5.8-14.7-5.8-2 0-2.8-.5-2.8-1.8 0-.9-.2-2.3-.5-3.1-.3-.8 1.1-2.1 3.7-3.5 6-3 8.4-3.3 14.2-2.2 12.5 2.5 16.6 4 27.9 9.5 13.9 6.9 31.2 9.6 44.1 6.9 4.3-.8 8.6-1.3 9.6-1 .9.3 4.6-.4 8.1-1.5s7.6-2 9-2c3.4 0 12.4 3.1 17.2 6 3.8 2.2 16.4 6.4 24.1 8 5.4 1.1 18.1.7 19.7-.6.8-.6 3-1.4 4.9-1.8 1.9-.3 5.4-1.4 7.8-2.3 3.3-1.2 4.2-2.1 4.2-3.9 0-2.6.2-2.6-9.4 1.5-4.1 1.8-7 2.2-16.5 2.2-11.2 0-12-.1-22.6-4.1-16.6-6.3-22.3-7.9-30.1-8.6-5.9-.5-8.3-.2-15.8 2.1-18.4 5.5-33.7 4.1-52.7-4.9-5.2-2.4-12.8-5.4-16.9-6.7l-7.5-2.3 4-1.7c7.3-3.3 22.1-1.6 31.4 3.7 2.5 1.4 6.6 2.7 9.1 3 2.5.3 5.2.8 6 1.1 2.4.9 8.7.3 19.3-1.8 14.8-3 24.5-3.7 32.4-2.3 6.6 1.1 20.5 6.5 26.8 10.4 1.6 1 4.8 2.3 7 2.9 4.3 1.1 22.7 1.7 26 .8 3.5-.9 8.6-3.9 9.2-5.3 1.1-3-.4-3.3-5-.9-8.3 4.4-26.6 3.6-35.6-1.7-1.9-1-7.8-3.8-13-6-8.9-3.7-10.5-4.1-21.2-4.5-8.6-.4-14.1-.1-21.5 1.2-21 3.8-28.9 3.5-37.8-1.4-5.7-3.2-12.5-5.6-14.3-5.3-2.2.5-1.4-1.5 1.7-4.2 5.8-4.8 12.9-4.4 25.5 1.6 7.5 3.5 17.5 5.3 24.9 4.4 9-1.2 6.9-3.6-3.2-3.6-5.7-.1-13-1.6-16.7-3.6-1.1-.6-4.6-2.1-7.8-3.4-6-2.4-9-6.1-6.8-8.3.7-.7 1.4-.2 2 1.4 1 2.5 1 2.8 1.3-19.4.1-3.7.5-7 .9-7.2.8-.5 1.9 14.7 1.7 23.3 0 2.9.2 5.6.6 5.9.3.4 2.5-.4 4.7-1.6 5.9-3.3 13.4-2.6 18.3 1.7 2 1.7 5.9 3.8 8.8 4.7 5.9 1.7 16 2 18.9.5 3.8-2.1 2-3.1-4.8-2.7-8.1.5-15.2-1.3-20.2-5.3-2-1.5-5.3-3.3-7.3-4-3-.9-3.8-1.7-3.8-3.5 0-3.4 1.8-4.1 2.6-1 .7 2.8 2.6 3.5 2.3.7-.4-4.3.2-12.2 1-12.2.4 0 .8 2.4.8 5.3 0 10.1 3.9 12.3 11 6.3 2.2-1.9 5.2-3.8 6.6-4.1 3.6-1 10.8 2.7 14.2 7.1 3.6 4.7 8.2 7.4 12.5 7.4 1.9 0 4.7.6 6.2 1.4 2.3 1.2 3.3 1.2 8.3-.5 3.1-1 7.1-3 8.8-4.5 2.8-2.3 3.6-2.5 8.1-1.9 2.7.3 5.9 1.1 7 1.7 2.8 1.5 8.3 7.4 9.1 9.7.6 2.1 4.2 3.5 5.1 2 .3-.5.9-.7 1.4-.4 1.2.8 5-1.3 5-2.6 0-.6-1.8-.9-4.5-.6-4 .3-4.6.1-5.1-1.8-.8-3.1-6.3-8.1-9.8-8.9-2.5-.6-2.7-.9-1.5-2.1 1.9-1.9 6.2-2 13.4-.1 7.8 2 7.5 2 7.5-.9 0-2-.5-2.5-2.4-2.5-1.3 0-3.9-.6-5.7-1.4-1.9-.7-4.9-1.1-6.8-.9-2 .4-3.6.1-4.1-.6-.5-.9-2-.5-5.6 1.5-5.8 3.2-15.9 4-23.5 1.8-4.5-1.4-14.9-8.6-14.9-10.4 0-1.6 4.2-3.3 7.9-3.3 3.4 0 10 3.1 16.3 7.5 1.5 1 4.2 1.8 6 1.8 1.8-.1 5 .1 7.1.3 4 .5 5.5-.6 3.7-2.7-.9-1.2.9-1.5 10.5-2.1 10.4-.7 11.5-.9 11.5-2.6 0-1.8-.6-1.9-8.7-1.4-4.9.4-11.8.6-15.5.5-3.8-.1-6.8.2-6.8.6 0 .4.7 1.6 1.7 2.6 1.5 1.7 1.5 1.8-.8 1.8-2.1 0-12-5.8-11.8-7 0-.3 4.3-2.6 9.5-5.2 9-4.5 9.7-4.7 12.3-3.4 1.5.8 3.3 2.1 4 3 1.4 1.7 5.7 3.1 11.9 4 3.7.6 4.2.4 4.2-1.4 0-1.1-.3-2-.7-2.1-3.5-.3-6-1.2-7.3-2.5-1.3-1.3-1.3-1.6-.1-2.3.8-.6 2.4-.5 3.8 0s2.9.9 3.4.9.9-11.3.9-28.1c0-18.4-.3-27.8-1-27.4-.6.4-1-.5-1-2s.4-2.4 1-2c.6.3 1-.1 1-1s-.5-1.3-1-1c-.6.4-1-1.7-1-5.4 0-3.4.4-6.1 1-6.1.7 0 1-19.3 1-56v-55.9l-2.8 1.6c-1.7 1-3.6 1.3-4.7.9-1.6-.6-1.7-1.7-1.1-14.9.3-7.8.8-38.3 1.1-67.7.3-29.4.7-59.4 1-66.5.2-7.2.7-28.3 1.1-47 .4-18.7 1-34.7 1.4-35.5 1.4-2.6 3.4-18 3.5-25.5 0-6.3-.2-7-2-7.3-1.8-.2-2-1.1-2.3-8-.3-10.9-2.2-24.9-3.8-28.7-1.2-2.9-1.2-3.8.1-6.9 1.9-4.5 1.9-7.9 0-11.6-2.6-5.1-7.9-6.4-13.5-3.5-6.4 3.3-8.2 11.6-3.5 15.9 2.4 2.2 2.4 2.5 1.4 8.2-.6 3.2-1.4 9.9-1.8 14.9l-.6 9-6-.3c-3.3-.2-6.3-.7-6.8-1.1-.4-.4-1-4.5-1.3-9.2-.3-4.6-.9-13.8-1.5-20.3-.7-8.7-.6-12.8.2-15.1 1.6-4.3.5-8.1-3.6-12.2-4-4-8.8-4.4-12.9-1.2-2.6 2-2.7 2.5-2.1 7.8 1.1 9.8.9 15.3-.9 27.1-1 6.3-2.1 14.3-2.6 17.8-.4 3.5-1.1 6.6-1.3 6.9-.3.2-2.4.7-4.6 1l-4 .6.5-6.4c.3-3.5.1-10.7-.6-15.9-1.3-11.2-1.3-11.2-.4-17.1.6-4.2.4-4.9-2.6-8.2-4.2-4.8-8.4-5-13.3-.7-4.1 3.6-5 7.2-3.1 12 1.2 2.8 1.3 4.8.5 10-.6 3.6-1.3 9.8-1.7 13.9-.6 7.3-.6 7.3-2.1 4.3-2.6-5.4-5.8-7.5-11-7.5-3.5 0-5.1-.5-6.1-1.9-.7-1-2.1-1.8-3.1-1.8s-3.1-.6-4.6-1.4c-2.5-1.3-3.2-1.3-5.6 0-1.6.8-3.7 3.1-4.7 5.1-1.2 2.2-2.2 3.2-2.6 2.4-1.2-1.9-5.1-1.2-7.4 1.2-2.7 2.9-2.8 6.1-.2 8.7 1.6 1.6 1.7 2 .4 2-.8 0-3.9 1.5-6.7 3.4-6 4-9.8 5.6-13.3 5.6-3.3 0-3.2-3.9.3-10.7l2.8-5.3-2.2-2.1c-3.7-3.8-10.7-.3-11.9 5.9-.6 2.7-.3 3.4 1.3 3.8 1.6.4 1.9 1.3 1.7 4.7-.1 3.4-.6 4.3-2.3 4.5-2.4.4-2.4 0-2.1-9.6.1-4.9.8-7.2 2.6-10 1.7-2.4 2.2-4.2 1.7-5.6-.3-1.2-.9-3.7-1.2-5.6-.5-2.7-1.4-3.9-3.9-5.1-1.8-.9-4.8-3.7-6.7-6.2-1.9-2.5-4.3-4.8-5.3-5.1-2.7-.9-9.3 2.2-9.9 4.5-.7 2.5-1.5 2.4-5.1-.6-5.1-4.3-10.2-2.6-10.2 3.3 0 1-1.1 2.9-2.5 4.2-2.7 2.6-3.3 6.1-1.2 7.9 1.5 1.2 2.7.5 2.7-1.5 0-.7 1.1-2.4 2.5-3.8 1.8-1.8 2.4-3.3 2-4.8-.3-1.3-.1-2.9.4-3.7.7-1.1 1.9-.3 5.3 3.3 4.1 4.5 4.5 4.7 7.1 3.5 2-.9 2.7-1.9 2.7-4.1 0-1.5.5-2.8 1.1-2.8.7 0 1.7-.7 2.4-1.7 1.2-1.7 4-.9 2.9.8-.3.6.3 2 1.4 3.2 1.1 1.2 2.4 3.5 2.9 5.2 1 2.9 2.3 3.4 6.3 2.4 1.2-.3 1.6.7 1.8 4.4.3 4.1-.1 5.2-2.5 7.7-3.7 3.9-5.8 3.8-6.9-.2-1.1-3.9-4.3-5-5.1-1.8-.7 2.7-2.6 2.1-3.3-1.1-.6-2.4-3.9-4-4.1-2-.1.6-.3 1.5-.4 2.1-.1.5-.3 1.5-.4 2.1 0 .5-.5.8-1.1.4-.5-.3-.7-1.2-.4-1.9.7-1.8-1.1-2.9-5.4-3.3-2.7-.3-3.5 0-3.9 1.7-.6 2.4-1.1 2.5-3.5.4-1.6-1.6-1.8-1.6-2.4 0-.8 2.1 1.3 4.6 4 4.6 2 0 2.1.4 2.1 12.2 0 8.9-.3 12.3-1.2 12.3-.7 0-1.8.6-2.4 1.2-.7.7-2.3 1.3-3.6 1.3-2.9 0-3.1-3-.3-5.5 2.1-1.9 2.7-6.9 1-8-.5-.3-1-1.5-1-2.5 0-2.2-2.5-5-4.5-5-.7 0-3.1 1.5-5.3 3.2-5.1 4.1-5.7 8.5-1.7 12.2 1.4 1.3 2.5 3.4 2.5 4.8 0 2.3-.5 2.6-5.2 3.1-2.9.3-8.7 1.5-12.8 2.7-5.8 1.6-11.7 2.2-26.2 2.7l-18.8.6v-4.9c0-5.9-2.9-11.4-6-11.4-1.4 0-2.6-1.1-3.5-3.4-1.9-4.6-5-6.6-10.2-6.6-2.3 0-4.8-.6-5.5-1.3-.8-.6-2.5-1.8-3.8-2.6-2-1.1-2.5-1.1-3.4.1-.8 1-2.4 1.3-5.2 1-4.1-.4-4.2-.5-5.7-5.5-3.4-11.8-7.8-28.4-8.3-31.5-.2-1.8-2.5-11-4.9-20.5-2.5-9.5-5.5-21.8-6.7-27.5l-2.2-10.4 3.2-2.4c3.1-2.5 3.2-2.7 3-10.2 0-4.2.1-8.2.2-8.7.2-.6-.5-2.8-1.4-5-1-2.2-2.5-5.6-3.3-7.5-3.1-7.4-3.9-8.5-6.8-9s-3-.6-5.5-9.5c-1.3-4.5-5.4-19.2-10-36-6.4-23.2-8-28.2-10.1-30.4-2.3-2.5-6.2-2.6-10.4-.5zm36.9 81c.8 2-.1 3.4-2 3.4-1.5 0-1.7-.9-.8-3.4.8-2 2-2 2.8 0zm-2.6 8.6c-.3.7-1.8 1.9-3.4 2.8-1.6.9-3.5 2.8-4.3 4.2-1.3 2.3-1.2 2.9.8 6.9 2.5 4.7 3.5 10.9 1.7 10.6-.6-.1-1.2.9-1.4 2.3-.1 1.4-.8 3.7-1.3 5.2-.8 1.9-.8 3.7 0 6 .5 1.8 1.3 6.2 1.6 9.8l.6 6.5-2.5-4c-3.5-5.6-8.7-11.5-10-11.5-.6 0-1.8-.5-2.6-1-1.3-.9-1.2-1.3.6-2.8 2.1-1.7 7-16.5 5.9-18.1-.2-.5 0-3.4.6-6.5 1-5.4 3.6-9.6 6.9-10.9 2.8-1.1 7.2-.7 6.8.5zm6.4 6.3c-.4 2.1-1.3 4-2 4.3-1.5.5-1.6-2.5-.1-6.7 1.5-4.4 3.2-2.5 2.1 2.4zm3.8 6.3c0 1-.7 2.7-1.5 3.8-1.4 1.9-1.4 1.9-1.5-.3 0-2.8 1-5.3 2.1-5.3.5 0 .9.8.9 1.8zm-36.4 25.8c-.3.9-.6 2-.6 2.5s-.7.9-1.5.9c-1.5 0-2.1-3.1-.8-4.3 1.3-1.4 3.5-.7 2.9.9zm8.2 6c1.2.8 2.2 2 2.2 2.6 0 .5.9 2.3 2 3.8 1.1 1.6 2.8 5.2 3.7 8 1.4 4.5 1.9 5.1 3.9 4.7 2.1-.4 2.5.2 3.9 4.9.8 2.9 2.6 10.6 4 17.1 1.3 6.5 2.9 13.4 3.5 15.3.5 1.9 2.1 7.1 3.4 11.5 1.3 4.4 2.9 10.5 3.5 13.5.6 3 1.4 6.5 1.7 7.7.5 1.7-.2 3-2.5 5.2-1.7 1.6-3.1 3.6-3.1 4.5 0 .9-1.7 3.4-3.9 5.6-2.9 3-4.7 4-7 4-3.9 0-5.2-2.6-8.1-16.5-1.1-5.5-2.8-13.2-3.7-17.1-1.1-5-1.2-7.7-.5-9 .5-1 1.3-4.2 1.7-6.9.4-2.8 1.3-7.5 2.1-10.5.7-3 1.8-8.8 2.4-12.8.8-4.9 1.9-8.1 3.2-9.4 2.2-2.2 2.1-5.3-.2-5.3-2.4-.1-3.7-1.3-6-5.7-3.1-6-5.1-8-7.3-7.4-1.1.3-3-.2-4.3-1-2.2-1.5-2.2-1.7-.7-5 1.9-3.8 2.8-4.1 6.1-1.8zm-10.7 8.1c-1.2 2-1.4 1.4-.5-1.2.4-.9.9-1.4 1.1-1.1.3.2 0 1.3-.6 2.3zM110 248c0 .5-.5 1-1.1 1-.5 0-.7-.5-.4-1 .3-.6.8-1 1.1-1 .2 0 .4.4.4 1zm14 3.7c0 .7.9 2.2 2 3.3 2 2 2.7 6 1.1 6-.5 0-2.3-1.4-3.9-3-3.3-3.3-5.3-3.7-7.1-1.6-.9 1.1-.6 1.8 1.8 3.5 1.6 1.2 3.3 2.1 3.9 2.1.5 0 1.2 1.1 1.4 2.5.4 1.9.1 2.5-1.3 2.5-2.9 0-2.3 2.8 1.4 6.2 2.2 2.1 2.6 2.8 1.2 2.3-3.6-1.4-7.5-1.8-7.5-.7 0 2.4 1.4 4.4 4.1 5.8 4 2 3.7 3.6-.6 2.8-2.8-.5-3.5-.3-3.5 1 0 .9.3 1.6.8 1.6.4 0 1.3.9 2 2.1 1.2 1.9 1.1 1.9-.8.9-2.6-1.4-4-.5-4 2.4 0 1.5 1 2.7 3.3 3.9 2.8 1.4 2.9 1.6 1 1.6-3 .1-2.9 2.3.3 7.9 2.4 4 2.5 4.6 1 5.4-2 1.1-2 2.2-.1 4.2 1.4 1.4 1.4 1.7-.5 3.6-1.7 1.7-1.9 2.4-1 3.5.7.8 1.9 1.3 2.8 1.2 2.5-.3 2.6 1.7.2 2.1-1.6.3-2 1-1.8 3 .2 2.1.9 2.8 3.1 3 3.1.4 3.7 2.2.8 2.2-2.4 0-3.3 1.3-2.5 3.4.4.9 1.8 1.6 3.4 1.6 3.8 0 4.8 2.8 1.2 3.2-2.1.2-2.7.8-2.7 2.8 0 2.2.5 2.5 4.3 2.8 2.3.2 4.2.8 4.2 1.4 0 .7-2 .9-5.9.5-4.8-.4-6.9-.1-10.8 1.7-8.3 3.9-9.4 7.4-1.7 5.5 2.1-.6 4.8-1 5.9-1 1.1.1 4.3.2 7 .2 4.8.1 4.9.1 1.5.9-13 2.9-16 4.2-16 6.9 0 .9-1.9 3.5-4.1 5.6-2.3 2.2-3.9 3.5-3.6 2.9.4-.7 0-1.7-.7-2.3-1.2-1-2.1-.5-4.6 2.2-1.7 1.9-3.7 4.3-4.5 5.3-1.4 1.8-1.4 1.8-1.5-.3 0-1.3-.5-4.3-1.2-6.8-1-3.7-.9-5 .4-7.8 1.5-3.2 1.5-3.6 0-5-1.5-1.5-1.5-1.9.1-5.2 1-2 3.1-4.4 4.7-5.3 3.3-1.9 3.9-3.7 1.5-4.6-2.2-.8-4.7.3-7.2 3.3l-2.1 2.6.5-2.8c.3-1.5 1.4-3.2 2.4-3.8 1.1-.5 1.9-1.5 1.9-2.2 0-.7.9-2 2-3 1.1-.9 2-2.1 2-2.7 0-2-3.1-2.2-5-.5-1.8 1.6-2 1.7-2 .2 0-1 .4-1.7.9-1.7.4 0 2-1.1 3.5-2.5 3.3-3 3-6.3-.4-4.5-2.5 1.4-2.6.5 0-2.2 2.5-2.8 2.5-3.9-.1-4.5-1.8-.5-2-1.1-1.5-4.6.4-2.2 1.6-5.1 2.6-6.5 1.1-1.3 2-3.1 2-3.8 0-1.6-3-3.3-4.6-2.7-.8.3-1-1.6-.7-6.4.3-4.8 1.7-10 4.6-17.6 2.2-5.9 4.4-10.7 4.8-10.7.4 0 .9.9 1.2 2.1 1 3.6 3.1 1.5 5.7-5.7 2.4-6.5 2.7-6.9 5.7-6.9 4.1 0 5-1.1 2.9-3.4-1.6-1.7-1.6-1.8.7-1.4 1.4.3 2.8-.1 3.2-.7.8-1.4 2.5.5 2.5 2.7zm30 1.3c0 .5-.5 1-1.1 1-.5 0-.7-.5-.4-1 .3-.6.8-1 1.1-1 .2 0 .4.4.4 1zm-48.9 5.1c-.6 1.6-1 1.8-1 .7-.1-2.2 1.2-5.5 1.6-4.2.2.6-.1 2.2-.6 3.5zM152 256c1.2.8 1.1 1-.7 1-1.3 0-2.3-.5-2.3-1 0-1.3 1.1-1.3 3 0zm300.6 4.7c2.9 3.8 1 10.3-3.1 10.3-3.3 0-6.8-4.6-6-7.9.4-1.4 1.2-2.9 1.8-3.3 2.1-1.4 5.9-.8 7.3.9zM155 265.6c1.4 3.5 1.3 3.7-1 1.4-1.4-1.4-2.8-1.9-4.8-1.5-2.7.6-2.7.6.3-.9 4.1-2 4.4-1.9 5.5 1zm265.1 6c.8.9.9 2.9.3 6.1-.8 4.2-1.3 4.8-3.5 5.1-1.9.2-3.3-.4-4.8-2.4-2.6-3.4-2.7-6.2-.1-8.9 2.3-2.4 6.1-2.3 8.1.1zm-264.3.7c.3 1.3-.4 1.7-3.2 1.7-4 0-4.8-1.6-1.3-3 2.8-1.1 4.1-.8 4.5 1.3zm329.5-1.4c3 1.2 3.9 3.4 3.1 7.7-.6 3.3-.8 3.4-5.5 3.4-5.4 0-6.3-.8-6.1-5.8.2-5.1 3.5-7.2 8.5-5.3zm-31.9 16.9c.3 7 .8 16 1.1 19.9.5 8.2 1.2 7.5-8.7 8.8l-4.8.6v-4.3c0-5.5 2.7-32.6 3.5-35.9.5-2.2 1.1-2.4 4.5-2.1l3.8.4.6 12.6zM158 279c0 .5-.5 1-1.1 1-.5 0-.7-.5-.4-1 .3-.6.8-1 1.1-1 .2 0 .4.4.4 1zm-2.5 5c.3.5-.1 1-.9 1-.9 0-1.6-.5-1.6-1 0-.6.4-1 .9-1 .6 0 1.3.4 1.6 1zm329.5 3c1.1.6 2.1 2.5 2.4 4.3.6 4.2 2.4 21.6 3.1 29.5l.5 6.3-6.3-.3-6.2-.3-.3-9c-.3-8.3 1.2-26.9 2.5-30.1.6-1.7 1.8-1.8 4.3-.4zm-64.8 2.4c.4.6.8 7 .8 14.2v13.2l-4.7.7c-2.7.4-5.4 1.2-6 1.7-1 .8-1.3.2-1.3-2.8.1-7.4 2-23.9 3.1-26.6 1-2.4 1.5-2.6 4.3-2.1 1.7.3 3.4 1.1 3.8 1.7zm-375.8.2c.4 1 1.4 1.4 2.6 1.1 2.6-.7 5 1.7 4.3 4.3-.4 1.4.3 3 1.7 4.5 2.9 3 5 3.2 5.7.5.5-2.1.6-2.1 1.9-.1.8 1.1 1.1 2.7.8 3.5-.9 2.2 1.3 4.5 3.6 3.9 1.8-.5 2 0 2 3.8 0 6.6-.2 6.7-9.9 6-1.1-.1-1.8-.8-1.7-1.9.1-1.2-.6-1.7-2.4-1.7-1.6 0-2.6-.7-3-2.2-.5-2.2-.5-2.2-4.5-.3-2.7 1.3-4.4 1.5-5.2.8-.8-.7-1.6-.3-2.5 1.1-.7 1.2-1.6 2.1-2.1 2.1-.4 0-3.2 1.8-6.2 4-6 4.4-6.7 4.6-8.4 2.6-.8-1-.7-2.2.5-5.1 1.4-3.4 1.4-3.9 0-5.4-3.2-3.5-1.2-10.4 2.7-9.7 1.2.2 2.1 1 1.9 1.7-.4 1.8 3 8 4.3 7.6.5-.2 1.2-1.4 1.3-2.8.2-1.3 2.1-3.9 4.3-5.8 2.9-2.6 3.9-4.2 3.9-6.5 0-4.5 1.1-7.6 2.5-7.6.7 0 1.6.7 1.9 1.6zm116.6 1.9c0 1.6-3.5 2.1-4.4.6-.8-1.2.4-2.1 2.6-2.1 1 0 1.8.7 1.8 1.5zm216.2 11c.2 1.3 1.1 2 2.6 1.9 1.8 0 2.2.5 2.2 3.1 0 3.1 0 3.1-5 3.1-2.7-.1-5-.6-5.1-1.1-.4-3.3.5-7.2 1.9-8.8 1.7-1.9 2.8-1.3 3.4 1.8zm-214.2-1c0 .8-.7 1.5-1.5 1.5-.9 0-1.2-.6-.9-1.5.4-.8 1-1.5 1.5-1.5s.9.7.9 1.5zm202 10.2c0 2.7-.1 2.7-3.5 1.1-2.7-1.2-3.3-3.6-1.3-5.6 1.6-1.6 4.8 1.3 4.8 4.5zm31.9-3.1c2.5 3.2 2.6 3.6.4 6.3-1.7 2.1-1.9 2.1-5 .6-4.1-2-5.5-6.2-2.8-8.2 2.8-2 5.1-1.6 7.4 1.3zm-94.5 1.5c1.6.4 1.9 1.4 2 8.2.1 7.7.1 7.9-2.7 9.4-1.6.8-3.2 1.2-3.5.8-.9-.9-1.6-17.1-.8-19.1.4-1.2 1-1.3 1.9-.6.6.5 2 1.1 3.1 1.3zm32.9 3c-2.5 2.6-3.8 1.1-1.6-2 1.1-1.6 1.8-2 2.6-1.2s.5 1.7-1 3.2zm-23.9.9c.5 2.8-.9 8.8-1.9 7.8-.2-.2-.7-2.7-1.1-5.6-.5-4.2-.3-5.2.9-5.2.8 0 1.7 1.3 2.1 3zm93.3 5.9c-.1 6.5-1.1 7.2-2 1.5-.5-3.2.5-7.4 1.8-7.4.2 0 .3 2.7.2 5.9zm-226.6-2.2c1.2 1.5 1.2 1.6-.4 1-1-.4-2.5-.7-3.3-.7-.8 0-1.4-.5-1.4-1 0-1.6 3.6-1.1 5.1.7zm190.9.4c0 1.8-.2 2-1.5.9s-1.3-1.5-.3-2.1c1.8-1.2 1.8-1.2 1.8 1.2zm16 .9c0 3.4.1 3.4-3.4 2-3.8-1.4-3.5-5 .4-5 2.7 0 3 .3 3 3zm-64.3.2c-.3.8-.6.5-.6-.6-.1-1.1.2-1.7.5-1.3.3.3.4 1.2.1 1.9zm-268 1c1.6 1.5 2.3 3.3 2.3 6.1 0 2.1-.3 3.7-.7 3.5-7.1-3.4-7.3-3.7-6.6-8.6.6-3.8 1.8-4 5-1zm228.8.9c.9 4-1 6.1-4.2 4.8-1.3-.4-2.3-1.4-2.3-2 0-1.2 3.9-5.6 5.2-5.8.3-.1.9 1.3 1.3 3zm-239.5.8c0 3.2-1.4 4.9-2.5 3.1-.9-1.5.3-6 1.5-6 .6 0 1 1.3 1 2.9zm319.6-.4c.4 1.6 1.3 2.5 2.3 2.4 3.3-.3 4.2.2 5.1 2.7 1 2.5 3 2.5 3-.1 0-2 7-2.9 10.3-1.2l2.8 1.4-3.2.7c-5 1-5.7 2-5.2 7.8.2 3.5 1 5.9 2.4 7.4 1.1 1.2 1.7 2.4 1.2 2.7-.5.3-5.3.8-10.6 1.1-10.2.5-12.2 1-11.1 2.8.4.6 4.4.9 10.5.7 6.1-.3 9.9 0 9.9.6s-4.2 1.1-10.2 1.2c-5.7.1-11.6.6-13.2 1.2-2.8 1.1-2.8 1.3-2.4 6.7.4 4.2 1 5.9 2.4 6.7 2.4 1.4 2.1 1.4 13.2 1.5l9.2.2v5.8c0 3.3.6 6.6 1.4 7.7.7 1.1 1.6 3.8 1.9 6 .4 2.2.9 40.4 1.2 85 .3 44.5.8 97.4 1.2 117.5.5 20.1.8 37.4.8 38.5 0 1.4-1.5 2.7-4.9 4.3-2.6 1.3-5.1 2.1-5.3 1.8-1.8-1.7-5.7-16.8-6.8-26.1-.8-6.1-2-13-2.7-15.5-1.3-4.1-1.3-4.9.7-9.5 3.1-7.1 3.6-12 2-19.5-2.9-13.9-8.5-23.1-16.7-27.4-3.1-1.6-6.3-2.6-7.2-2.3-.8.3-1.8.2-2.1-.3-.6-.9-.9-46.6-.5-87.3.1-14.8-.1-27.1-.4-27.4-.3-.3-1.2-.3-2.1 0-1.2.5-1.5 2.5-1.5 10.4 0 5.4 0 28.5-.1 51.3 0 22.8-.2 43.9-.5 46.7l-.6 5.3H332c-4.9 0-4.8.6-5-29.5 0-13.2-.2-37.5-.3-54l-.2-30 5.3-.1c4 0 5.8-.6 7.7-2.4 2.2-2 2.5-3.2 2.7-10.9l.3-8.6 8.5-.3c10.9-.3 13-1.3 13-6.4 0-6.7-2.1-7.7-14.3-7.2l-10.4.5-.6-12.3c-.3-6.8-.8-13-1.2-13.9-.5-1.3-.1-1.5 1.9-1.2 1.4.3 3.3.2 4.2-.1 1.3-.5 1.4-.9.4-2.1-.9-1.1-2.3-1.4-4.6-.9-2.8.5-3.4.3-3.4-1.1 0-1.5 1-1.6 8.9-1.2 4.9.2 9.5.1 10.2-.3 2.1-1.4-.1-3-4-3-2.1 0-5.9-.3-8.5-.6l-4.6-.7.6-4.6c.5-3.9.2-5.1-2-8-1.4-1.9-2.6-3.8-2.6-4.2 0-.5 1.7-1.1 3.8-1.5 4.3-.8 9.5-2.9 13-5.2 2.3-1.5 7.5-3.8 9.4-4.1.4 0 1 1 1.4 2.4zm110.2-1c.6.2 1.2 1.7 1.2 3.3 0 2.6-.3 2.8-3.7 2.9-25.2.4-52.8 1.3-54.2 1.8-1.5.4-1.9-.2-2.4-3.2-.4-2-.4-3.9-.2-4.2.3-.2 7.2-.7 15.3-.9 8.1-.2 14.8-.5 14.9-.6.4-.3 27.9.5 29.1.9zm-305.8.3c0 .4-1.6 1.5-3.5 2.4-3.1 1.4-3.4 1.4-2.3.1.7-.8 2.1-1.9 3.3-2.3 2.6-1.1 2.5-1.1 2.5-.2zm227.5.2c.4.6 1.4.9 2.3.8 1.2-.2 1.8.5 2 2.2.3 2.3-.1 2.5-3.6 2.8-3.5.2-4-.1-4.6-2.3-.4-1.4-.4-3-.1-3.5.8-1.3 3.2-1.3 4 0zm-358.9 2.5c.3 1.4.1 3.2-.6 3.9-1 1.3-1.4 1.2-2.9-.2-1.5-1.5-1.6-2-.3-4 1.9-2.9 3-2.8 3.8.3zm143.1 4c-.4.8-1.4 1.5-2.3 1.5-1.6 0-1.6-.2.1-2 2-2.2 3.1-2 2.2.5zm-22.3 4.2c-.4 1.6-1.3 4.1-2.1 5.8l-1.4 3 .6-4c.7-3.9 2.1-7.5 3.1-7.5.2 0 .1 1.2-.2 2.7zm157.2.2c-4.3 4.7-2.6 14.2 3 17.2 1.7.9 2.2 1.8 1.9 3.3-.9 3.8-2.6 16.9-3.2 24.8l-.6 7.8-6.1.1c-3.3.1-8 .1-10.3 0-5.1-.3-6.7 1.8-5.7 7.9.6 3.9.6 4-2.3 4-1.7 0-4.4.3-6.1.6-3 .6-3.1.5-3-2.7.2-6.8-2.2-26.7-3.7-30.2-1.5-3.6-1.4-3.7 1.2-6.6 2.6-2.8 3.1-3 7.3-2.1 5 .9 6.2.6 5.8-1.8-.3-1.3.9-1.6 7.7-1.8 7-.1 7.5 0 4.5 1-5.6 1.8-5 3.6 1.4 3.6 5 0 8.7-1.8 5.8-2.8-.8-.2-.3-1.1 1-2.2 1.3-1 2-2.1 1.7-2.4-.4-.4-7.9-.8-16.8-1-15.9-.2-16.2-.3-18.9-2.9-1.5-1.4-4.3-3.3-6.2-4.1l-3.5-1.5 6.4-.1c6 0 15.8-3 27.6-8.5 1.7-.7 5.2-1.4 7.9-1.4 4.8-.1 4.9 0 3.2 1.8zm104.9-.4c3.9.2 10.3.4 14.2.5h7.3l-.4 3.2-.3 3.3-13.9.2c-7.7.1-20.5.4-28.6.8l-14.8.7v-3.6c0-2-.1-3.9-.2-4.4-.7-1.9 11.8-2.1 36.7-.7zm79 2.5c-.4 1.9-.8 3.6-.9 3.7-.1.1-9.5.4-21 .8-11.5.3-21.4.7-21.9.8-1.4.3-2-2.8-1.3-5.8.6-2.3 1-2.4 11.4-2.8 5.9-.1 16-.3 22.5-.2h11.8l-.6 3.5zm-165.6-.4c2.3 1.9 3.1 3.4 3.1 5.8 0 3.4-3.3 7.6-4.8 6.1-.4-.4-.1-1 .6-1.2.6-.3 1-.9.6-1.4-.8-1.4-2.4 0-2.4 2.2 0 1.1.7 3 1.5 4.2 2.5 3.8 4.5 14.8 4.5 25v9.7h-2.7c-1.6 0-5.2.3-8 .6l-5.3.6v-5.9c0-6.2 2.5-24.6 3.5-26.3.3-.6 1.5-1 2.6-1 1.2 0 1.9-.7 1.9-2 0-1.6-.7-2-3.6-2-2.9 0-3.5-.3-3-1.6.3-.8.2-1.3-.3-1-2 1.3-4.5-2.2-4.4-6.3.3-6.5 1.4-7.6 7.6-7.9 4.7-.2 6 .2 8.6 2.4zm115.7 1.9c-1.1 5.9.5 7.5 7.4 7.5 4.7 0 6 .3 6 1.5 0 1.7-7.6 2.1-16.4.9-5.2-.8-5.7-1.6-2.1-3.2 2-.9 2.5-1.9 2.5-5 0-3.9.6-5.2 2.3-5.2.5 0 .6 1.5.3 3.5zm-26.1 7.5h7.3l.4 5.2c.5 7.3.1 8.6-2.6 8.1-1.5-.3-2.2-1.2-2.2-2.6.1-2-.5-2.2-6.4-2.5-3.6-.2-6.9-.7-7.4-1.2s-.5-2.5-.2-4.5c.5-2.7 1.1-3.5 2.2-3.1.9.3 4.9.6 8.9.6zm49.3 3c.2 1.9.9 5.7 1.6 8.5.9 3.7 1 15 .5 44-.4 21.4-.9 64-1 94.5-.1 30.5-.4 67-.7 81.1l-.4 25.7-6.1 2.6c-3.4 1.4-6.6 2.6-7.1 2.6-.8 0-.3-71.6.9-126.5.3-12.1.7-33.3 1-47 1.5-74.2 1.6-78 3.1-79.1.8-.6 1.7-2.6 2-4.5.9-5.5 1.3-6.1 3.6-5.7 1.8.2 2.4 1.1 2.6 3.8zm24.7-3.1c.3.5.3 3.4-.1 6.3l-.6 5.3-9.2-.4c-5-.1-9.3-.5-9.5-.7-.2-.2-.6-2.8-.9-5.7l-.4-5.2 10-.2c5.6-.2 10.3.1 10.7.6zm-236.6 3l-2.1 2.8-22.9.2c-19.8.2-22.9 0-22.9-1.3 0-1.2 1.2-1.5 5.8-1.4 3.1.1 8.9-.1 12.7-.5 3.9-.3 11.5-.9 17-1.2 5.5-.3 10.1-.8 10.4-1.1.2-.2 1.3-.4 2.3-.4 1.8 0 1.7.2-.3 2.9zm141.5-1.7c2 6.4 1.9 6.6-3.5 7-5.7.3-6.1.2-7.8-2.9-2.3-4.5-1.6-5.3 4.9-5.3 4 0 6.2.4 6.4 1.2zm35.3 1.6c1 5.4.4 64-.7 64.7-.6.4-.7 1.3-.1 2.3.5.9.8 16.3.8 34.2 0 29.7 1 72.7 1.8 74 .1.3.4 21.1.6 46.3l.4 45.9-4 1.4c-2.2.7-4.1 1.4-4.2 1.4-.1 0 0-54.6.3-121.3.3-66.6.5-123.6.4-126.4-.1-3.4.5-6.1 1.4-7.5 1.1-1.6 1.6-4.6 1.6-10.2 0-7.1.8-9.5 1.7-4.8zm-162.1.7c1.2.8 2.4 2.8 2.7 4.7.4 2.8 0 3.7-2.9 6.1l-3.4 2.9 1.9 3.1c2.1 3.4 4 11.4 2.5 10.4-.5-.2-1.6.2-2.4 1.1-1.3 1.4-1.2 1.5.3.9 2.5-.9 3.4 2 1.2 3.7-1.9 1.4-1.3 3.6 1.1 3.6.9 0 1.4 1.1 1.4 3.5 0 2-.5 3.5-1.2 3.5s-.5.6.4 1.7c.9 1 1.8 2.7 2.2 3.8.5 1.9 0 2-8.1 2.3l-8.6.2.6-10.7c.6-13.1 3.3-24.3 5.9-24.3 2.2 0 2.4-2.8.2-3.7-3.2-1.2-6.4-5.1-6.4-7.7 0-1.6 1.1-3.7 2.7-5.2 2.9-2.7 5.7-2.6 9.9.1zM459 350c0 .5-.2 1-.4 1-.3 0-.8-.5-1.1-1-.3-.6-.1-1 .4-1 .6 0 1.1.4 1.1 1zm-313.4 5.5c.1 2.7.2 5.6.3 6.2.1.7 1.4 1.3 3.1 1.3 2.8 0 2.9.2 2.3 3.2-.3 1.8-.7 3.5-.9 3.7-.7.8-5.7-5.8-7.9-10.4-1.2-2.8-3-5.7-3.9-6.4-2.3-2-.9-3.3 3.2-2.9l3.7.3.1 5zM217 353c0 .5-1.1 1-2.5 1s-2.5-.5-2.5-1c0-.6 1.1-1 2.5-1s2.5.4 2.5 1zm40.9 3.6c2.4 4.4 2.4 4.9 1.2 11.2-.7 3.7-1.6 11.6-2.1 17.5s-1.2 11.1-1.4 11.6c-.3.4-6 1.1-12.7 1.4-7.2.3-12.5 1-12.9 1.6-.9 1.5-.3 7.6.9 10 .9 1.6 2.3 1.8 13.6 1.8 6.8 0 12.7.2 13 .4.8.9 1 176.7.2 177.6-.4.4-4.2-1.1-8.4-3.3-8.8-4.7-8.2-3.7-13.8-24.9-3.1-12.2-6.2-23.7-10.6-40-7.2-26.7-7.1-25.8-6-38.9.6-6.7 1.6-16.6 2.2-22.1.6-5.5.8-11.2.5-12.8-.5-2.4-.2-2.7 1.9-2.7 1.8 0 2.6-.7 3.1-2.6.8-3.2-.3-11.9-2-15.9-.8-1.6-2.2-5.8-3.1-9.3-1.5-5.1-3.1-7.7-8.8-14.2-3.8-4.4-7.8-8.2-8.8-8.5-1.1-.4-1.9-1.6-1.9-2.8 0-3.4-3.8-9-5.6-8.3-1.1.4-1.8-.1-2.1-1.4-.3-1.2-1.8-2.7-3.4-3.6-2.1-1-2.9-2.2-2.9-4 0-2.4.2-2.5 1.7-1.3.9.8 2.5 1.3 3.6 1.1 1-.2 2.9.6 4.2 1.8 2.9 2.7 4.7 1.8 3.9-1.7-.6-2.4-.5-2.5 1.9-1.9 3.4.8 4.1-.6 1.7-3.7-1.1-1.4-2-2.8-2-3.1 0-.5 8.9 0 14.6.9 3.2.6 6.4-.2 6.4-1.4 0-.4-.6-.8-1.2-.8-.7 0-3.3-.5-5.7-1.1-2.5-.6-4.8-.9-5.2-.6-.5.2-1.3-.4-1.8-1.5-1.5-2.7-1.4-3.4.4-2.7 2 .7 11.5-1.3 11.5-2.4 0-.5-.6-1.2-1.2-1.7-.7-.4 5.2-1 13.2-1.3 8-.3 16.1-.7 18-.8 3.2-.2 3.7.2 5.9 4.4zM371 355c1.9.6 10.2 1 18.5 1.1 13.9 0 15.1.1 17.2 2.1 3.7 3.5 2.9 4.5-3.4 4.6-3.2 0-14.7.4-25.5.8l-19.7.7-.7-3.7c-.8-4.5-.1-5.3 5.1-5.9 2.2-.2 4.2-.4 4.5-.5.3-.1 2.1.3 4 .8zm47.9.6c.2.2.2.7-.2 1-1 1-7.8-.6-7.1-1.7.5-.9 6.2-.3 7.3.7zm27.6 7.9c1.1 8.4.6 30.9-1 45.3-.3 2.9-.5 57.1-.5 120.5 0 111.3-.5 148.2-2.1 144.1-.4-1.1-1-24-1.4-51-.4-26.9-.9-53.2-1.1-58.4-.2-5.2-.7-54.6-1.1-109.8l-.6-100.3 3.4.3 3.4.3 1 9zm8.9 1.7c-.3 14.9-1.4 71.6-1.9 90.8-.3 9.1-.7 46.9-1 84-.4 37.1-.8 72.7-1.1 79-.2 6.3-.4 14.8-.4 18.9 0 4.1-.3 7.2-.6 6.8-.8-.8-.8-116.2 0-117.5.4-.6.3-1.3-.2-1.6-.8-.4-.8-13.1-.1-116.8l.4-53.8h5l-.1 10.2zM136.5 357c.3.5.2 1-.4 1-.5 0-1.3-.5-1.6-1-.3-.6-.2-1 .4-1 .5 0 1.3.4 1.6 1zm1.5 7.3c3.9 1.9 4.5 2.6 4.2 4.9-.2 1.8.4 3 1.7 3.7 3.4 1.9 5.7 1.2 9.4-2.9 3.3-3.4 4.1-3.9 7.4-3.5 2.1.2 4.1.4 4.6.4.4.1.7 1 .7 2 0 2.5 1.7 3.6 3.4 2.2 1-.9 1.5-.8 2 .4.4 1.1 1.3 1.4 2.5 1 1.1-.3 2.2-.1 2.6.5 1.1 1.7 2.3 1.1 2.9-1.5.4-1.6 1.3-2.5 2.5-2.5 1.6 0 1.9.7 1.8 3.5l-.2 3.5-6.5.2c-3.6 0-7.2 0-8-.1-2.3-.3-3.3-.2-6.4.5-1.9.4-3.1.2-3.6-.6-.7-1.1-1.3-1-3.2.2-1.6 1.1-3 1.3-3.9.7-.8-.5-2.3-.9-3.4-.9s-4-1.4-6.5-3.1c-4.9-3.3-8.5-3.5-8.5-.4 0 2.3 7.6 6.7 14.8 8.5 4.2 1.1 4.7 1.5 4.7 3.9 0 1.5-.5 3.2-1.1 3.8-.6.6-.9 1.9-.7 2.9.3 1.6.6 1.4 1.8-1 .8-1.6 2-2.8 2.5-2.6 1 .2 1 .5.1 3-.3.8-.1 2.2.4 3 .9 1.3 1.1 1.3 2.1 0 .9-1.2 1.2-1.3 1.6-.1.4 1.1.7 1.1 1.3 0 .7-1 1.1-1 2.4 0 .8.7 2 1 2.5.7 1.6-1.1 2.2 1.1.6 2.4-.8.7-1.5.9-1.5.4 0-.4-.5-.3-1.1.3-.9.9-.6 1.9 1 4.2 2.7 3.8 5.8 4 7.1.6.5-1.4 1.6-2.5 2.4-2.5 1.3 0 1.2.6-.5 3.4-2.3 3.9-1.6 6.6 1.7 6.6 1.9 0 2.4.5 2.4 2.4 0 1.4.5 2.8 1 3.1.6.4.7 1.2.3 1.8-.4.7.7-.1 2.5-1.8 1.8-1.6 3.2-3.5 3.2-4.1 0-.6.9-2.8 2-5l1.9-3.9.2 3 .2 3 .4-2.9c.3-1.6 1.8-4 3.4-5.3 3.7-3.1 3.9-5.8.4-4.9-1.8.5-2.5.2-2.5-.8 0-2.6 1.8-2.7 5.7-.2 7.2 4.7 9.3 6.7 9.3 9.1 0 1.7.6 2.5 2.3 2.7 1.5.2 2.1.9 2 2.3-.1 1.1 0 1.4.3.7.9-2 2.3-1.4 4.4 2 2.4 3.9 2.5 4.8.6 4.8-.8 0-1.8-.9-2.1-2-.4-1.4-1.5-2-3.5-2-1.6 0-3-.6-3.3-1.3-.3-.6-.2.7 0 3 .3 2.4.1 4.3-.4 4.3-1.6 0-3.3-2.3-3.3-4.7 0-1.3-.4-2.3-.9-2.3-1.5 0-2 4-.6 4.8 1 .5.6 1.5-1.6 4.2-2.3 2.7-3.2 3.1-4.1 2.2-2-2-3.5-1.4-4.7 1.8-.5 1.6-1.7 3-2.5 3-.9 0-1.6.5-1.6 1.1 0 .6-.7.8-1.6.5-1.1-.4-1.5-.2-1.1.8.3.8-.2 1.6-1.4 1.9-1 .3-1.9.2-1.9-.1 0-.4-.7-1.5-1.5-2.6-1.3-1.7-1.5-1.7-3-.2-2.5 2.5-4.8 2.1-3.9-.7.3-1.2 1.1-2.8 1.6-3.5 1.7-2.1 0-1.3-2.3 1-1.2 1.3-1.9 1.8-1.6 1.2.4-.6.1-1.8-.6-2.7-1.1-1.5-1.5-1.5-4-.2-2.9 1.5-2.9 1.5-5.3 1.5-1.1 0-1.4.6-.9 2.1.5 1.6-.2 3.1-3.3 6.3-2.2 2.2-4.9 6-6.1 8.3-1.2 2.4-2.6 4.3-3.2 4.3-.6 0-.9.7-.5 1.5.3.8-.1 2.9-.8 4.7-.9 2-1.1 4-.6 5.4.6 1.6.5 2.4-.6 2.8-.8.3-1.4 1.2-1.4 2.1 0 2 .9 1.9 2.9-.4 2.2-2.5 5.1-1.4 4 1.6-.5 1.3-1.6 2.3-2.4 2.3-.9 0-1.4.4-1.1.9.6 1-1.5 7.1-2.5 7.1-.4 0-1.2-.7-1.9-1.5-1.9-2.2-2.8-1.8-2.2 1 .2 1.4.9 2.5 1.4 2.5.6 0 .5.7-.2 1.5-.7.9-1.9 1.4-2.7 1.1-1.5-.6-1.5-.7-1.8 5.4-.1 2.5 0 3.9.2 3.2.3-.9 1.2-.5 2.9 1.3 1.7 1.9 3 2.4 4.7 2 2-.5 2.4-.3 2.3 1.7-.1 2 .3 2.3 3.5 2.1 3.2-.2 3.6 0 3.2 1.7-.3 1.1-1.1 2.5-1.9 3.1-.8.6-1.4 1.9-1.5 2.8-.1.9-.4.5-.8-.8-.3-1.3-1.5-2.9-2.6-3.5-1.1-.6-2.3-1.6-2.7-2.2-.4-.6-2.2-1.1-3.9-1.2-3.3-.1-5.2-1.8-4.4-4 .2-.6.1-1.2-.4-1.2-1.1 0-2.1 5.2-1.5 7.8.4 1.4 0 2.2-1.4 2.6-2.3.8-3.5 3.8-3.2 8.1.2 3.7 2.3 6.1 5.8 7 2.1.5 2.3.8 1.2 1.5-2.4 1.3-9.9.9-11.1-.6-.6-.8-2.8-1.4-4.8-1.4-3.5 0-10.8-4-9.6-5.2.3-.3-.8-.8-2.5-1.1-2.4-.5-3-1.2-3-3.2 0-1.6-.6-2.5-1.5-2.5-.8 0-1.5.4-1.5 1 0 .5.5 1 1 1 .7 0 .7.6.1 1.7-.5 1-.9 2.2-.9 2.8-.1 2.4-2.2 1.4-2.3-1.2l-.2-2.8-.4 2.8c-.4 2.6-.6 2.7-4.6 2.1-2.3-.4-4.9-1.4-5.7-2.4-1.6-1.8-9.5-4.4-10.9-3.6-2 1.3-2.1-7.6-.1-14.1 1.1-3.6 2-7.4 2-8.4s.7-1.9 1.5-1.9 1.5-.5 1.5-1.1c0-.5-.5-.7-1.1-.4-1.2.8-.5-3.9 2.1-13.7 1-3.6 2.1-9.7 2.5-13.5.4-3.7 1.8-13.6 3.3-21.8 1.4-8.3 2.6-16.8 2.6-19.1.1-3.6.3-4 2.3-3.6 1.8.3 2.5-.3 3.8-3.4.9-2.2 1.8-5 1.9-6.4.1-2.6 3.2-7.7 4.1-6.9.2.3.1 1.9-.4 3.5-.4 1.6-.4 4 .1 5.3l.8 2.4 2.3-2.5c3.1-3.3 3.3-9.1.4-8.2-1.6.5-1.7.3-.8-1.4.6-1.2 1.1-2.9 1.1-3.9 0-3.3 1.8-4.2 5.2-2.6 2.7 1.4 3.1 1.4 5.2-.6 1.2-1.2 2.8-2.1 3.4-2.1.7 0 1.2-.9 1.2-1.9 0-1.1.5-2.3 1-2.6.6-.3 1-1.1 1-1.6 0-1.7-2.1.2-3.2 2.9-.9 2.2-1.2 2.4-1.5.9-.3-1-1.2-1.6-2.1-1.5-1 .2-1.6-.3-1.4-1.1.1-.7-.4-1.8-1.3-2.5-1.4-1-1.4-1.4.5-3.4 1.1-1.2 2.7-2.2 3.5-2.2.8 0 1.9-.9 2.5-1.9 1.9-3.6 8.5-3.6 16 .2zm278-1.8c0 .8-.4 1.5-1 1.5-.5 0-1-.7-1-1.5s.5-1.5 1-1.5c.6 0 1 .7 1 1.5zm9.2 85c-.1 47.3-.1 102.4 0 122.5.3 55.3-.2 117.8-1 120-.8 2.1-1.2-20.6-1.7-85.5-.1-23.7-.5-70.5-.9-104-.6-51.2-.9-118.6-.7-135.3.1-3.9.3-4.3 2.4-4l2.2.3-.3 86zm56.3-79.5c0 3.6-.3 31.5-.7 62-.3 30.5-.9 85-1.3 121s-.8 72.9-1 82c-.1 9.1-.3 26.3-.4 38.2-.1 20.9-.2 21.8-2.2 22.8-1.1.7-2.3.9-2.6.6-.3-.2-.5-5.3-.4-11.3 0-5.9.3-47.9.6-93.3.9-147.9 1.6-223.4 2.1-226.3.5-2.4 1-2.8 3.2-2.5 2.6.3 2.7.5 2.7 6.8zm9.1 18.2c-.4 13.4-.9 36.7-1.3 51.8-.7 30.5-.7 29.9-.4 35.5.7 11.3-1.1 165.5-2 180.5-.6 9.6-1 21.2-1 25.6.1 6.1-.3 8.5-1.4 9.4-2.6 2.1-2.8-1.1-1.3-24.5.1-1.7 0-10.7-.2-20-.2-9.4-.1-30.1.3-46 .4-16 1-65.9 1.3-111 .4-45.1.8-84.3.8-87 .1-2.8.3-12.5.4-21.8l.2-16.7h5.1l-.5 24.2zM410 368.5c0 1.1-.8 1.3-2.9.9-2.8-.6-3-.5-3.5 3.7-.3 2.4-.7 6-.8 7.9-.3 3.4-.4 3.5-4.8 3.6-2.5 0-5.5.6-6.7 1.2-2.6 1.4-3.3 1.5-5.3.2-1.3-.8-1.2-1.1.5-2.4 2-1.5 2-1.5 0-1.6-1.2 0-2.6-.5-3.3-1.2-1.4-1.4-1.6-7.7-.2-11.2l.9-2.6 13.1.1c10.5 0 13 .3 13 1.4zm6.6 65.3c.1 36.1.5 97.9.9 137.3.4 43 .3 71.9-.3 72.3-.5.3-1-11.6-1.1-29.2-.1-16.3-.6-60.1-1.1-97.2-1.2-84.2-1.4-147.5-.5-149 .4-.6 1-.9 1.3-.5.3.3.7 30.2.8 66.3zm-6.2 6.7c.4 36.3.9 68.7 1.1 72 .2 3.3.7 28.8 1 56.6.6 54.7.8 52-4.9 53.5l-2.9.7.7-75.4c1.1-126 2.3-175.8 4.1-173.7.2.2.6 30 .9 66.3zM181.5 381c.4.6 1.5.8 2.5.5 1.1-.3 2.8-.1 3.9.5 2 1 2 1.1.1 3-1.1 1.1-2 2.4-2 2.9 0 1.1-4.5 2.8-9.7 3.6-2.4.4-4.5 1.1-4.8 1.6-.4.5-1.7.1-3.1-.8-1.4-.9-4-1.6-5.9-1.5-2.9.1-3.3-.2-3.1-2.3 0-1.4.4-2.5.9-2.5.4 0 .7-.9.7-2 0-1.4.9-2.1 3.8-2.5 2-.4 4.2-.8 4.7-1 2.4-.8 11.4-.4 12 .5zm-22.7 1.8c-1 .2-1.8 1.1-1.8 2 0 1.1-.3 1.3-1 .6-1.8-1.8-.1-4.3 2.3-3.6 1.8.5 1.9.7.5 1zm-61.4 3.7c-.4.8-.8 1.5-1 1.5-.2 0-.4-.7-.4-1.5s.4-1.5 1-1.5c.5 0 .7.7.4 1.5zm99.6 1.6c0 .5-.4.9-1 .9-.5 0-1-.7-1-1.6 0-.8.5-1.2 1-.9.6.3 1 1 1 1.6zm112.5.1c.6-.1 12.1-.4 25.8-.8l24.7-.7V394h-6.2c-6.8.1-22.2.6-41.3 1.5-15.6.7-17.9.1-18.3-4.8l-.3-3.7 7.3.6c4 .3 7.8.6 8.3.6zm80.3 71.1c-.1 38.6.1 102.3.5 141.4.5 43.4.4 71.3-.1 71.3-2.1 0-2.7-8.5-2.1-28.5.4-11.6.3-23-.1-25.5s-.9-19.8-1-38.5c-.2-18.7-.4-37.8-.6-42.5-.5-16.5-.4-147.1.1-148 .3-.5 1.2-.7 2-.4 1.3.5 1.4 10.4 1.3 70.7zm11.9-68.9c.9.9.9 8.7.1 67.6-.4 27.8-.8 77.9-.8 111.4-.1 39.5-.4 61.4-1.1 62.2-.7.8-.7 1.4.1 1.9 1.5.9 1.3 15.2-.2 15.8-3.8 1.2-4.3-.1-4.5-12.1-.1-12.3.1-13.9 2.1-12.3.9.8 1.3.7 1.3-.4 0-.8-.9-1.5-1.9-1.5-1.9 0-2.2-1.2-.9-4.5.4-1.1.4-3.5 0-5.5-.4-1.9-1.1-13-1.4-24.5-.8-25.3-.8-197.2 0-198.5.6-1 6.1-.7 7.2.4zM97 393.7c-.1.5-1 2.4-2.1 4.3-1.9 3.5-2 3-.3-3.3.5-1.6 2.4-2.5 2.4-1zm94 3.9c0 .2-.9.4-2.1.4-1.1 0-1.8-.4-1.4-1 .5-.8 3.5-.3 3.5.6zm146.6 1.7c.7 1.1-1.7 14.2-2.7 14.8-2.7 1.7-17.1 1.8-17.6.1-.3-.8 1-1.2 4.6-1.2 5.4 0 7-1 4.6-3-1.1-.9-2.2-.9-4.6-.1-1.8.6-3.5 1.1-3.9 1.1-.9 0-2.1-11.1-1.3-12.3.4-.7 20.4-.1 20.9.6zm-24.5 15.9c0 9 .2 24.4.5 34.3.2 9.9.5 34.5.6 54.7l.2 36.7-4.1 3.6c-4 3.4-9.3 11.4-9.3 14.1 0 .7-1.2 2.7-2.7 4.3-1.6 1.6-4 4.7-5.5 6.9-1.8 2.6-3.7 4.1-5.5 4.4-1.6.3-3.4.7-4.1.9-1 .3-1.2-7.8-1.2-40.1.1-57.2 1.5-121.9 2.8-123.2.4-.4 3.4-.8 6.7-.8 10.4-.3 15.5-1.1 15.5-2.6 0-.8.5-1.4 1.1-1.4.8 0 .9-1.3.5-4-.6-3.8-.5-4 1.9-4h2.5l.1 16.2zm-8.5-13.9c.1.1.4 1.4.7 2.8l.7 2.6-10.8.8c-8.8.6-34.8.9-57.5.6l-4.8-.1.3-3.3.3-3.2 9.5-.3c5.2-.1 9.8-.4 10.2-.5.9-.2 51.2.4 51.4.6zm-35.1 9.7c.8 0 2.3 1 3.5 2.2 1.7 1.8 2 1.9 2 .5 0-1.1.8-1.7 2.3-1.7 2.2 0 2.3.3 1.9 6.2-.2 3.5-.6 6.4-.7 6.6-.1.2-3.2.8-6.8 1.3-4.8.8-7.2.7-8.7-.1-3.3-1.8-.9-3.4 5.8-4 4.9-.4 5.7-.8 6-2.6.3-2.1.3-2.1-5.2-.6-6.9 1.9-8.6 1.3-8.6-3.3 0-2.8.5-3.8 2.3-4.5 1.2-.5 2.8-.7 3.5-.4.8.2 2 .4 2.7.4zm51 7.9c2.3.9 2.1-5.8 2.4 66.4.2 50.6.1 52.7-3.4 52.7-.9 0-1.3-10.2-1.8-42.8-.9-55.6-.9-77.2.1-77.1.4 0 1.6.4 2.7.8zM220 428.6c0 1.6-1.6 1.9-2.5.4-.8-1.3.4-3.2 1.6-2.5.5.4.9 1.3.9 2.1zm46 9.6c.4 66.4.4 160.5.1 159.6-.2-.7-1.2-2.2-2.2-3.4-1.8-1.9-1.9-5.7-2.5-82.1-.4-44.1-.4-80.9-.1-81.7.4-.9 1.6-1.6 2.7-1.6 1.9 0 2 .6 2 9.2zm-97.2-5.8c-.4 1.7-.1 2.3.9 1.9.7-.3 1.3-1.1 1.3-1.9 0-.8.7-1.4 1.5-1.4s1.5.4 1.5.8c0 1.6-7.9 7.2-10 7.2-2.1 0-2.1-.1.4-3.1 1.4-1.7 2.6-3.7 2.6-4.5 0-.8.5-1.4 1.1-1.4.7 0 .9 1 .7 2.4zm110 7.3c-.1 5.4-.1 18.8 0 29.8s0 34.4-.3 52c-.2 17.6-.4 37-.5 43.1 0 11.7-1.1 15.1-4.3 13.8-2-.7-2.2-2.5-.5-4.2.9-.9.8-1.2-.4-1.2-2.2 0-2.9-2.4-2.2-7 .6-3.6.8-3.8 3.1-2.9 1.9.7 2.4.6 2.1-.3-.3-.7-1.3-1.5-2.4-1.7-2.9-.5-3.2-1.6-3.3-11.4-.1-6.4.2-9.3 1.1-9.9 1.1-.6 1.1-1 0-1.6-1-.7-1.2-12-1.1-53.8.1-29.1.3-53.2.6-53.7.2-.4 2.2-.7 4.3-.7h3.8v9.7zm-87.3-6.7c-.3.5-1.1 1-1.6 1-.6 0-.7-.5-.4-1 .3-.6 1.1-1 1.6-1 .6 0 .7.4.4 1zm12.5.5c0 .8-.4 1.5-.9 1.5-1.3 0-2.2-1.6-1.4-2.4 1.1-1.1 2.3-.6 2.3.9zm-22 3.9c0 1.3-.7 2.9-1.5 3.6-.9.7-1.3 2.1-1 3.1.3 1-.1 3.1-.9 4.8-1 1.9-1.2 3.2-.6 3.6.6.3 1 1 1 1.5 0 1.3-3.2 2.1-4.4 1.1-.9-.7-1.8-.4-3 1.1-1.4 1.6-2 1.8-2.6.7-1.1-1.7-.3-2.9 1.9-2.9 2.9 0 7.2-4.6 6.7-7.2-.3-1.3-.5-2.6-.5-3.1-.2-1.3-2.1-.7-3.8 1.3-1 1.1-2.2 2-2.7 2s-1.7.7-2.6 1.5c-1.3 1.2-1.6 2.7-1.2 6.2.4 4.2.2 4.8-3 7.7-2 1.8-4.1 4.2-4.7 5.4-.6 1.2-1.8 2.2-2.6 2.2-1.6 0-2-1.2-.8-2.4.4-.3.8-1.6 1-2.9.2-1.2.8-2.6 1.3-3.1.6-.6 1-2 1-3.3 0-3.7 2.8-9.6 4.1-8.7.9.5 1 .2.6-.9-.3-1-.2-1.7.4-1.7.5 0 1.5-1.1 2.1-2.5.7-1.5 1.7-2.4 2.5-2.1.8.3 1.3 0 1.2-.7-.3-1.7 1.1-4.7 2.2-4.7.5 0 .9.9.9 2 0 3.1 2.5 2.4 5.1-1.4 2.5-3.7 3.9-3.8 3.9-.2zm40-2.2c0 .7.3 2.3.6 3.5.8 3-2.2 4.3-4 1.7-1.2-1.5-1.1-2.2.1-4.1 1.7-2.5 3.3-3 3.3-1.1zm-7.1 3.2c1.4 1.7-.5 5.6-2.6 5.6-2 0-1.5-3 .5-3.1 1 0 1.2-.3.5-.6-1.5-.5-1.8-3.3-.4-3.3.5 0 1.4.6 2 1.4zm-19.9 3.1c-1.5 1.8-4 2-4 .4 0-.7.8-1.8 1.8-2.5 2.2-1.6 4-.1 2.2 2.1zm14-.1c0 .2-.7.9-1.5 1.6-1.2 1-1.5 1-1.5-.4 0-.9.7-1.6 1.5-1.6s1.5.2 1.5.4zm-24.1 5.8c-.1 1.3.2 3.1.6 4.1.6 1.3.4 1.6-.9 1.1-.9-.3-1.3-1-1-1.5.8-1.3-1-1.1-2.3.2-1.1 1.1-1-.6.3-4.9.6-2.2 3.4-1.4 3.3 1zm32.1 2.4c0 .8-.6 1.4-1.2 1.4-2.3 0-3.9 1.6-3.2 3.3.3.9 1.5 1.7 2.5 1.7 1.3 0 1.9.7 1.9 2.2 0 1.7-.3 1.9-1.2 1-.7-.7-2.5-1.2-4-1.2-2.1 0-2.8.5-2.8 2 0 1.1.6 2 1.3 2 .6 0 .3.6-.8 1.2-2.9 1.6-2.9 1.6-1.5 3.3.7.8 2.8 1.5 4.7 1.5 2.8 0 3.4.4 3.1 1.7-.2 1.1-1.2 1.7-2.3 1.6-3.5-.4-7.5.8-7.5 2.3 0 1.6 1.8 2.5 5.5 2.8 1.7.1 2.5.7 2.5 1.9 0 1.5-.8 1.7-5.2 1.5-4.7-.3-5.3-.1-5.3 1.7 0 1.1-.8 2.7-1.9 3.6-1.8 1.4-1.8 1.6-.1 3.3 1.7 1.6 1.7 1.8-.1 3.1-2.5 1.8-.9 3.4 3.8 3.7 3.4.3 3.5.4 2.6 2.8-.5 1.4-1.5 3.2-2.3 4-.7.8-1.5 2.6-1.7 4-.2 1.5-1.4 3-3 3.8-3.4 1.6-3.5 2.9-.4 4.3 1.3.6 3 2.5 3.8 4.2l1.5 3.2-4.1 1c-5.6 1.4-5.7 4.1-.1 3.8 3.5-.1 3.7 0 1.8.9-2.6 1.3-3.1 4.6-.8 5.4 1.4.6 1.3.8-.1 1.9-2.2 1.5-.8 3.8 1.8 3.2 1.4-.4 2.2 0 2.5 1.4.3 1 1.1 1.9 1.7 1.9 3.5 0 9.5 11.2 7.4 13.7-.9 1.1-.7 1.5 1 2l2.1.5-2.4 3.3c-3.1 4-3.3 7.5-.5 7.5 2.5 0 2.5 1.6 0 6.4-2.1 4.3-1.9 5.6 1 5.6 2.1 0 2 .8-.7 6.7-.7 1.8-1.6 3.3-1.9 3.3-.3 0-.2-.5.1-1 1-1.6-1.5-4-4.1-4-3.2 0-3.3 4.3-.2 6.4 1.8 1.3 1.9 1.6.6 1.6-2.4 0-3.6-2.7-3.9-9-.3-4.4 0-5.6 1.3-5.8 1.7-.3 2.8-2.9 2.1-5-.6-1.5-4.5-1.6-5.9-.2-.8.8-1.5.6-2.3-.4-1.1-1.3-1-1.8.4-3.2 2.1-2.2 1.5-4.8-1.3-5.2-1.6-.2-2.2.2-2.2 1.5-.1 1.7-.1 1.7-1.5 0-1.2-1.7-1-2.2 1.7-4.6 3.4-3 3.1-5.7-.5-4.7-1.5.4-1.7.2-.8-.7 1.5-1.5 1.4-3.7-.3-3.7-.7 0-1.6-.9-1.9-2-.4-1.5-1-1.8-2.4-1.3-1 .3-1.5.2-1-.2.4-.5-.3-1.9-1.5-3.2l-2.1-2.3h3.2c2.7 0 3.4.5 4.2 3 1.2 3.4 2.1 3.7 3.9 1.5 1-1.2 1-2.1.1-4.1-.6-1.4-.9-3-.5-3.5.8-1.4-.5-4.6-2.1-5.3-2.2-.8-4.7.4-4.1 2 .3.8-.1 1.4-1 1.4-.8 0-1.9-1.1-2.4-2.5s-1.6-2.5-2.4-2.5c-2.7 0-3.5-3.1-2.4-9.5.8-4.3.8-7.2-.1-10.3-1.3-5-1.4-10.2-.2-12.1 1.3-2 .2-4.1-1.9-4.1-2.8 0-4.4 5.2-3.4 10.8.9 5.3 1 17 0 17.9-1.6 1.6-2.1-1.8-1.9-12.9.3-12.9 1.4-18.2 4.2-19.8 4.2-2.2 7.1-16.9 4.1-20.5-.5-.6.2-1.1 2.1-1.2 3-.2 3-.2 2.3 4.2-.5 3.7-.3 4.6 1.1 5.1 2.5 1 3.5-.7 3.9-6.2.2-2.7.4-5.3.5-5.7 0-.5 3.1-3.9 6.9-7.5 3.7-3.7 8-8.4 9.6-10.4 2.7-3.7 4.6-4.2 4.6-1.2zm-39 13.8c0 1.9-3.8 4.6-5.5 4-1.2-.5-4.7 3.3-4.1 4.5.1.3-1 1.9-2.5 3.5-2.3 2.4-2.9 2.7-3.4 1.4-.6-1.5 4.2-9.8 5.7-9.8.5 0 2.6-1.1 4.6-2.5 4.2-2.9 5.2-3.1 5.2-1.1zm1.2 13.3c-.5 1-1.6 3.1-2.5 4.8-.8 1.6-2 5.5-2.6 8.5-.6 3-1.8 8.2-2.6 11.5-1 4.2-1.3 9.5-1.1 17.5.5 12.9 2.1 18.6 6.7 23.5 1.6 1.7 2.9 3.9 2.9 4.8 0 1 1.4 2.3 3.4 3.1 2.6 1.1 3.7 2.4 4.9 6.1 1.7 4.9 7 14.4 11.3 20.4 1.5 2.1 2.4 4.8 2.4 7.1 0 5.8 1.9 9.9 5.8 12.5l3.6 2.5 2.6-2.5c3.3-3.1 4.8-3.2 6 0 .5 1.3 2.2 4.3 3.7 6.6 1.5 2.2 3.5 6.3 4.4 9l1.7 4.9-2.7 1.6c-3.5 2.1-6.5 6.7-8.6 13-1.3 4.2-1.5 6.6-.8 12.8.5 4.2.7 7.9.4 8.3-.9 1.3-5 3.3-6.4 3.3-2.1 0-10.4 6.6-11.9 9.4-.7 1.4-2.7 4.9-4.3 7.8-1.7 3-3.6 6.8-4.3 8.6-.7 1.8-1.7 4.6-2.3 6.3-.7 1.8-1.7 2.8-2.5 2.5-1.2-.5-27 8.1-31.2 10.3-.9.5-2 .9-2.5.9-1.3.1-17.1 5.4-18.2 6.2-.9.7-10.3 4-11.3 4-.9 0 .9-10.5 2.8-16.8 1.2-3.9 3.5-8.1 5.9-11 4-4.7 8.1-15.8 8.1-21.6 0-1.5.5-3.6 1-4.7 1.3-2.3 5-17.5 5.7-23.4.7-5 3.3-7.5 10.6-10 4.2-1.4 5.9-2.5 6.3-4.1.9-3.7-.3-16.4-2.5-25.9-1.1-5-2.5-15.1-3.1-22.5-1.8-22.7-2.8-30.9-4.3-34.2-.8-1.8-2-5.9-2.8-9.1-1.1-5.4-1.1-6.5 1-13.5 1.3-4.2 2.5-8.7 2.7-9.9.5-2.8 1.8-6.2 5.1-13.5 2-4.5 3.5-6.3 6.8-8.3 2.4-1.3 5.4-3.8 6.7-5.4 2.1-2.5 5.5-4.3 6.6-3.5.2.1-.1 1-.6 2.1zm-26.8.8c-.4.8-1 1.5-1.5 1.5-.4 0-.6-.7-.3-1.5.4-.8 1-1.5 1.5-1.5.4 0 .6.7.3 1.5zm58.2 7.5c.8 0 1.4.5 1.4 1.1 0 1.2-4 .2-5.5-1.4-.7-.7-.4-.8.8-.3 1 .3 2.5.6 3.3.6zm-66.1 28c.3.5.1 1-.4 1-.6 0-1.1-.5-1.1-1 0-.6.2-1 .4-1 .3 0 .8.4 1.1 1zm-68.4 9.7c-1.5 5-2.1 5.8-4.4 6.1-1.9.2-2.7-.1-2.7-1.2 0-.9.7-1.6 1.5-1.6 1.8 0 2-2.6.3-3.3-1.3-.5-.6-.8 3.7-2.2.8-.2 1.2-1.1.9-2-.4-.9-.1-1.5.9-1.5 1.3 0 1.3.7-.2 5.7zm14.1.4c-.2 2.4-.8 6.1-1.3 8.3-1.2 4.5.5 13.4 2.7 14.3.9.3 1.2 1.3.9 2.4-.7 2.2 1 2.6 2.2.4.5-.8 2.1-1.6 3.5-1.7 2.6-.2 2.6-.3 1-2.1-.9-1-2.4-1.6-3.4-1.4-1 .3-1.8 0-1.8-.7 0-.8 1.2-1.1 3.5-.8 2.6.3 3.6 0 4.1-1.3.4-1 .1-2.1-.7-2.6-1.1-.7-1.1-.9.4-.9.9 0 1.7-.7 1.7-1.5s-.5-1.5-1.2-1.5-.5-.7.5-1.8c.8-.9 1.9-2.9 2.2-4.4.6-2.4.3-2.9-2-3.8-1.5-.6-2.5-1.3-2.2-1.7.4-.3 2.3.2 4.4 1.2 3.6 1.7 10.6 2.7 18.1 2.6 1.9-.1 4.1.3 5 .9 1.6.9 1.6.9 0 1-1.8 0-4.4 3.7-3.4 4.8.3.3.6 0 .6-.6 0-.9.6-.9 2.4 0l2.5 1.1-2.1 2.8c-2.1 2.8-2.1 2.8-.3 14.1.9 6.2 2.5 14.4 3.5 18.3 1 3.8 2.4 10.4 3.1 14.5.7 4.1 1.8 8.1 2.5 8.7 2.1 2.2 3.4 18.1 2.2 27.3-.3 2.4-.6 2.5-6.3 2.5-3.3 0-6.7-.3-7.5-.5-.9-.3-2.1.8-3.2 3-2.8 5.7-3.4 6-10.6 6-8.8 0-14.2-1-14.2-2.5 0-.7-.7-1.8-1.5-2.5-2.3-1.9-2-5.4.4-4.7 1 .2 2.5.1 3.2-.4 1.9-1.2 0-2.9-3.7-3.3-1.7-.2-3-1-3.2-1.9-.3-1.4.4-1.5 4.7-1 4.2.5 5.2.3 5.7-1.1.8-2-.4-3.5-1.5-1.8-.5.9-1.2.9-2.7-.3-1-.8-2.9-1.5-4.1-1.5-1.3 0-2.3-.5-2.3-1.1 0-.6 1.1-.8 2.9-.4 2.3.5 2.9.2 3.4-1.5.3-1.1.1-1.8-.3-1.5-.5.3-1.1.1-1.5-.5-.3-.5-1.5-1-2.6-1-1.4 0-1.9-.7-1.9-2.5 0-1.5.5-2.5 1.3-2.4 3 .4 4.7-.2 4.7-1.6 0-.8-.9-1.5-2-1.5s-2-.5-2-1c0-.6.9-1 2.1-1 3 0 1.8-2.4-1.4-2.8-2.1-.3-2.7-.9-2.7-2.8 0-2.1.5-2.4 3.4-2.4 1.9 0 3.8-.5 4.1-1 .7-1.2-4.3-3.3-6.2-2.6-.8.3-1.3-.2-1.3-1.4 0-1.6.7-2 3-2 1.7 0 3-.5 3-1 0-1.9-2.4-3.7-4.2-3.2-1.2.3-1.8-.1-1.8-1.1 0-1.1.9-1.5 3-1.5 4.2.1 6.1-1.9 3.6-3.7-1.6-1.2-1.7-1.7-.6-3 1.7-2-.3-4.5-3.6-4.5-1.8 0-2.3-.6-2.6-3.1-.2-2.2-1-3.4-2.5-4-2.2-.8-2.3-.6-2.3 4.6 0 2.9-.4 5.7-1 6-.5.3-1 1.1-1 1.6 0 .6.5.7 1 .4.6-.4 1 .8 1 2.9 0 2-.4 3.6-1 3.6-.5 0-1 1.2-.9 2.7 0 2.5.1 2.6.9.8.6-1.3.9 2.7.9 11 0 7.1.2 18.5.4 25.2.3 6.8.2 12.3-.2 12.3-2.9-.1-5.1-1.6-5.6-3.9-1.1-5-1.8-24.8-1.9-52.8-.1-26 0-28.3 1.6-28.3 1.2 0 1.9-1.1 2.3-3.8.4-2 1.3-5.4 2.1-7.5.8-2 1.4-4.8 1.4-6.1 0-2.6.9-3.8 2.4-3.3.6.2.9 2.3.8 4.8zm46.5 6c.5.5 2.5 1.8 4.4 2.7 2.1 1.1 4.1 3.2 5.4 5.9 1.1 2.4 2.5 4.3 3.2 4.3 1.6 0 2.1 3.8 2.7 21 .5 13.8.4 14.3-.9 9.5-.8-2.8-1.5-6.2-1.5-7.7 0-3-1.5-9.7-3.6-16.7-.8-2.5-1.4-6.1-1.4-8.1 0-3.9-1.4-6-4.1-6-3.4 0-4.1 2.5-2 7.2 2.5 5.5 3.8 10.2 4.5 15.6.3 2.4.8 4.7 1.1 5.3.4.5.3.9-.2.9-.9 0-3.3-4.8-3.3-6.6 0-1.8-2.4-3.4-3.8-2.5-1.1.6-.9 2.4.7 8.7 2 8.1 2.5 11.7 2.1 16.9l-.2 3-.8-3c-3.6-13.4-6-24-6.5-29.6-.6-5.9-.5-6.7 1.1-7.3 1.8-.7 1.8-.8 0-2.2-1.8-1.2-1.8-1.4-.3-1.4 2.5 0 3.4-3 1.3-4.5-1.5-1.2-1.5-1.3 0-1.9 1.5-.6 1.5-.8-.1-2.6-1.4-1.6-1.5-2-.4-2 .8 0 2 .5 2.6 1.1zm-69.1 5.7c-1.1 1-1.5-.4-.8-2.8l.7-2.5.3 2.3c.2 1.3.1 2.6-.2 3zm29.7-3.1c-.7.2-1.9.2-2.5 0-.7-.3-.2-.5 1.2-.5s1.9.2 1.3.5zm88.1 8.4c-.9 1.5-2.6 1-5.1-1.3-2.2-2-3-5.7-1.7-7.1.9-.9 7.5 7.3 6.8 8.4zM208 532c0 .5-.8 1-1.7 1-1.5 0-1.6-.2-.3-1 1.9-1.2 2-1.2 2 0zm-134.6 4.5c-.3.8.1 2.4 1 3.7 2.1 3 2 5.4-.4 7.8-2.4 2.4-2.6 5-.5 5 .8 0 1.5.4 1.5 1 0 .9-2 1.3-3.7.7-.9-.3-1.4-8.8-.7-10.7.4-.8.8-2.6 1-3.9.4-2.9 1.2-5.1 1.8-5.1.3 0 .3.7 0 1.5zm-7.3 5.2c-.6 2.1-1.1 9.3-1.1 16 0 7.1-.4 12.3-1 12.3-.5 0-.7 2-.3 4.9.3 3.1.1 5.1-.6 5.5-.7.4-1.1-.1-1.1-1.3 0-1.1-.5-2.3-1.1-2.7-.7-.4-.9-2.4-.4-5.8.3-2.8.9-8.3 1.2-12.1.2-3.9.9-7.4 1.4-8 .5-.5.9-2 .9-3.5 0-3.1 2-10.4 2.6-9.7.3.3.1 2.2-.5 4.4zm281.2-2.1c4.7 2.8 9 7.3 11.6 12.4 1.7 3.2 3.1 6.3 3.1 6.7 0 .5-1.4 1-3.1 1.1-4.3.3-4.5.6-5.3 5.4-.7 4.4-4.4 11.8-5.8 11.8-.5 0 .1-1.4 1.4-3 1.6-2.2 1.9-3.3 1.1-4.1-1.7-1.7-3.9-.5-5.4 3-1.7 3.7-4.2 4.3-3.3.7.4-1.8.1-2.5-1.4-2.8-2.8-.8-4.3.4-4.5 3.8-.2 1.8-.9 3-2 3.2-1.5.3-1.6 0-.6-2.5 1.5-3.8 1.9-7.3.8-7.3-.5 0-.9.9-.9 2 0 1.3-.7 2-2 2-2.1 0-5.5 6.2-3.8 6.9.5.2 1.3 1.4 1.8 2.7.9 2.3 3.8 3.2 5.4 1.7.3-.4 2.3-1.2 4.4-2 4.8-1.6 10.1-.3 15.4 3.9 3.4 2.8 3.8 3.6 3.8 7.7.1 4.4 1.7 8.1 3.6 8.1.5 0 1 1.8 1.1 4.1.2 6.6 3.3 20.8 6.4 29.8 2.7 7.6 3.1 11.7.9 8.1-1.5-2.5-2.2-.3-1.1 3.7 1.4 4.9 1.4 15.7 0 22.5-1.2 6-3.9 13.6-7.9 22.3-3 6.6-11.4 18.5-13 18.5-1.3 0-1.3 2.7 0 3.5 1.7 1 11.6-10.4 15.9-18.5 4.9-9.3 9.7-23.3 10.9-32.1.9-6.3.9-6.4 2.1-3.4 1 2.3 1.1 4.8.2 11.4-.8 6.2-.8 8.8.1 9.8 1.7 2.1 3.6-.2 4.8-6.4.7-3 1.5-5.1 1.9-4.7.4.5 2 3.7 3.4 7 3.7 8.4 3.7 17 .1 23.7-2.6 5.1-2.5 9.1.3 8.5.9-.2 2.1-1.7 2.7-3.5 1.5-4.4 2.4-5 4.1-2.7 1.7 2.2 1.9 7.7.5 10.4-.7 1.3-.6 1.9.5 2.4.8.3 1.5.1 1.5-.4 0-.6.4-1 .9-1s.8 1.1.7 2.6c-.1 1.8-.6 2.4-1.7 2.1-1.3-.4-1.7.2-1.6 2.9.1 3.6.6 4.1 2.4 2.3.7-.7.9-.3.6 1.5-.6 3.2-1 3.2-3.4.3-1.9-2.3-1.9-2.3-2.3 2.8-.1 2-.7 2.2-3.7 1-1.2-.4-2.3.4-3.9 2.9-2 3.3-2.6 3.8-4.7 3.5-.3 0-1 .6-1.5 1.4-.4.8-2.6 1.8-4.8 2.2-2.2.4-4.2 1.1-4.6 1.6-1 1.7-7.5 3.9-13.3 4.6-3.1.3-7.3 1.2-9.5 2-2.1.7-7.1 1.3-11 1.3-7.5 0-10.1.9-9.4 3.1.7 2-4 4.2-26.9 12.8-4.5 1.7-9.1 3.1-10.1 3.1-2.3 0-4.2-6.5-4.9-17.3-.3-4.2-1-7.7-1.4-7.7-1.2 0-.2-6.4 1.1-6.8.6-.2 1.8-1.1 2.6-2 1.5-1.5 1.6-1.3 1 1.9-.3 1.9-.3 2.7.1 1.9.3-.8 1-1.8 1.6-2.1.5-.4.6-2.1.2-3.8-.6-3-.8-3.1-2.4-1.7-2.5 2.3-4.1 2-4.1-.9 0-1.6-.6-2.5-1.5-2.5-.8 0-1.5.4-1.5 1 0 .5.4 1 .9 1s.9 1.1.9 2.5c0 3.7-1.5 3.1-2.9-1.2-.9-2.8-.9-3.8 0-4.1.6-.2 1.1-.8 1.1-1.4 0-.6-.7-.8-1.4-.5-1.6.7-2.1-.4-3.5-7.6-.5-2.6-.5-4.7 0-4.7s.9-1.2.9-2.6c0-2.1-.3-2.4-1.4-1.5-1.1.9-1.5.7-1.8-.7-.3-1.1-.1-2.7.4-3.6.7-1.2.5-1.6-.8-1.6-1.6 0-1.6-.1-.1-1.8 1-1 1.7-2.7 1.7-3.7 0-1.5-.2-1.6-1.7-.4-1.5 1.2-1.6 1.2-1.1-.3.4-.9.1-1.8-.6-2.1-1.7-.7-2.8-4.7-1.3-4.7.7 0 .5-.5-.4-1s-2.3-4.2-3.3-8.7c-1-4.3-2.3-8.9-2.9-10.3-.5-1.4-1.1-3.6-1.2-5-.1-1.4-1-5.7-1.8-9.5-1.5-6.4-1.5-7.6-.1-12.5 1.9-6.6 3.5-13.6 3.9-17 .2-1.4 1-4.3 1.9-6.5.8-2.2 1.5-5.2 1.6-6.8 0-4.3 4.8-12.7 6.8-12 1.1.3 1.3.2.6-.4-2.2-1.6-2.6-5.1-.7-7 1-1 1.7-2.6 1.5-3.5-.3-1.7 1.4-3.2 3.8-3.3.8 0 1.5-.8 1.5-1.8 0-2.9 4.5-5.7 9.1-5.7 2.9 0 4.4-.5 4.8-1.6.3-.8 1-1.3 1.5-1 .5.4 1.9-.7 3.1-2.4 1.2-1.6 2.7-3 3.5-3 .7 0 1.8-2.2 2.6-5.2 3.2-13.5 7-18.1 20.4-24.9 3.4-1.7 5.3-1.9 12.3-1.5 4.6.3 8.9.9 9.5 1.2zM74.4 560.5c-.1 1.7-.3 6.1-.4 10-.2 3.8 0 7.8.4 8.7.6 1.2.2 1.7-1.5 2-2.9.4-3.8 2.8-1 2.8 1.2 0 2.1.6 2.1 1.5 0 .8-.7 1.5-1.5 1.5s-1.5.7-1.5 1.5.9 1.5 2 1.5 2 .6 2 1.4c0 .8-.9 1.8-2 2.1-1.1.3-2 1.1-2 1.7 0 .5.9 1.2 2 1.5 1.3.3 2 1.4 2 2.9 0 2.1-.3 2.2-2.4 1.4-1.3-.5-2.6-.6-3-.3-1.1 1.1 1.4 4.2 3.6 4.5 1.5.2 2.4 1.1 2.6 2.6.3 2.1.1 2.2-1.8 1.2-1.1-.6-3-.8-4.2-.4-2 .6-2 .6-1.3-19.7 1-28.7 1.4-32.3 4.3-31.7 1.2.2 1.7 1.3 1.6 3.3zm20 5.6c-.3.5-1 .7-1.5.3-.5-.3-.7-1-.3-1.5.3-.5 1-.7 1.5-.3.5.3.7 1 .3 1.5zm53.2 14.9c.6 7.4 1.7 17.9 2.3 23.4 1.2 9.4 1.2 9.9-.8 12-1.2 1.2-2.1 3.4-2.1 4.9 0 1.5-.5 2.7-1 2.7-1.8 0-2.8-4.3-1.7-7.4 1.3-3.7.2-18.9-1.7-24.3-1.2-3.4-1.2-4.1-.1-3.7.7.3 1.6 0 2-.6.9-1.4 1-16.5.1-21-.6-3.1-.5-3.3.6-1.5.7 1.1 1.8 8.1 2.4 15.5zm210.4-7.5c-.7 2.4-.9 4.8-.5 5.4 1.1 1.9 4.4-.7 5.4-4.2.9-3.2.9-3.2 1-.4.1 1.5-.3 3.5-.8 4.5-.5.9-1.2 2.5-1.5 3.5-.5 1.7-.9 1.6-4.3-1-2.1-1.5-4-2.8-4.1-2.9-.2-.1.8-2 2.2-4.1 1.4-2 2.6-4.7 2.7-5.8 0-1.2.3-1.5.6-.7s0 3.3-.7 5.7zm-135-2.1c0 .3-.4.8-1 1.1-.5.3-1 .1-1-.4 0-.6.5-1.1 1-1.1.6 0 1 .2 1 .4zm6.9 7.5c2.5 4.9 4.3 6.2 8.8 6.8 2.1.3 4.7 1.3 5.8 2.3 1.1.9 5.5 3.4 9.8 5.3 6.6 3.1 7.7 4 7.7 6.2 0 1.4-.3 2.5-.6 2.5-.4 0-2.4-1.8-4.6-4-4.5-4.4-7.5-5.8-9.2-4-.8.9-.5 1.6 1.4 3.1 11.5 9.2 14.9 13.3 13.4 16.7-.5 1.3-.9 1-1.5-1.5-.9-3.2-9.8-11.3-12.5-11.3-2.5 0-2.8 2.4-.3 3.9 4.2 2.7 9.4 7.9 8.7 8.6-.4.4-3.1-.9-6.2-3-5.7-3.7-10.6-4.9-11.3-2.7-.3.7 1 1.9 2.9 2.8 10.3 4.7 14.8 9.5 13.1 14-.7 1.9-2.3.8-2.3-1.7 0-3.1-3.4-5.6-10-7.5-4.8-1.3-6.6-2.4-8.4-5-1.2-1.8-3.4-4.3-4.9-5.4-1.5-1.2-2.7-2.7-2.7-3.5 0-.7-.7-1.8-1.5-2.5-1.3-1.1-1.3-1.6-.2-3.4 1.5-2.3 1.2-4.6-.7-4.6-1.5 0-1.4-10.4.2-14.3 1.4-3.4 2.6-2.9 5.1 2.2zm-76.2 5.8c-.2 1.6-.4.5-.4-2.2 0-2.8.2-4 .4-2.8.2 1.3.2 3.5 0 5zm-90.7 4c-1.1 1.7-1.1 1.7-.6 0 .3-1 .7-2.8.7-4 .2-2.2.2-2.2.6 0 .2 1.2-.1 3-.7 4zm93.8 8.3c1.1 4.1 2.3 10.7 2.7 14.7l.7 7.2-4.1 2c-5.3 2.8-5.6 2.7-2.9-1 2.6-3.5 3-10.3 1.4-23.9-.4-4.1-.6-7.3-.3-7 .2.3 1.4 3.9 2.5 8zm-94.1-2.8c-.3.8-.6.5-.6-.6-.1-1.1.2-1.7.5-1.3.3.3.4 1.2.1 1.9zm433.6 1.5c-.7 1.8-2.2 3.3-3.5 3.3-1.6 0-.7-3.9 1-4.3 3-.8 3.2-.7 2.5 1zm-433.6 8.5c-.3.8-.6.5-.6-.6-.1-1.1.2-1.7.5-1.3.3.3.4 1.2.1 1.9zM468 608c-.7 1.3-1.8 1.9-2.6 1.6-.8-.3-1.4-.1-1.4.4s-1 1.4-2.1 2.1c-1.7.9-2.3.8-3-.2-.7-1.1-.9-1-.9.3 0 1-.4 1.8-1 1.8-.5 0-1-.9-1-2.1 0-1.3 1-2.3 2.8-3 1.5-.5 4.4-1.7 6.3-2.7 3.8-1.9 4.6-1.4 2.9 1.8zm-405.1 4.7c-.1 3.2 0 6.3.2 6.9.2.7 0 1.4-.6 1.5-1.5.6-2.3-5.9-1.3-10.1.6-2.2 1.2-4 1.4-4 .2 0 .3 2.6.3 5.7zm13.1 1.4c0 1.6-.5 1.8-2.5 1.3-1.5-.4-3.2-.1-4 .6-1.3 1.1-1.5.8-1.5-1.7 0-2.7.2-2.8 4-2.5 3.1.3 4 .8 4 2.3zm-.3 6.6c.5 1.5-1.8 2.2-4.4 1.2-3.7-1.3-2.9-3.8.9-3 1.7.4 3.3 1.1 3.5 1.8zm361.7-1.9c.2.4.1 1.4-.5 2.2-.5.8-.9 1.1-.9.7 0-.5-1-.1-2.2.7-2.8 2-3.8 2-3.8.2 0-2.5 6.2-5.7 7.4-3.8zM232 628.3c0 1.6-.4 2.6-1 2.2-.5-.3-1 .1-1 1.1 0 1.3-.3 1.4-1.4.5-1-.8-1.6-.9-2.1-.1-.3.5-.2 1 .3 1s1.7 1.6 2.7 3.6c1.2 2.6 2.2 3.5 3.5 3.1 1.3-.3 1.9.2 2.3 1.9.4 2.2-.1 2.8-2 2.1-.5-.1-.7-.5-.5-1 .1-.4-.2-.7-.8-.7-1.5 0-1.2 2.6.6 4.1 1.3 1 1.7 1 2.4-.1.8-1.2 1-1.2 1.4 0 .2.8.7 2.3 1 3.2.7 2.2-.2 2.3-2.4.3-1.5-1.4-1.9-1.4-3.1.1-1.2 1.5-1.1 1.6.9 1 1.4-.5 2.2-.3 2.2.4 0 .6-1.2 1-2.7.8-2.1-.2-2.9-.9-3.1-2.8-.2-1.4-1-2.9-1.8-3.3-.8-.4-1.4-1.7-1.4-2.8 0-1.2.4-1.7 1.1-1.4.7.5.9-.6.7-3.1-.2-2.2-.7-3.7-1.3-3.4-.5.3-.9 1-.7 1.7.4 1.7-1.4 2.5-2.6 1-1.3-1.5 1.5-10.2 4.3-13.5 1.8-2.1 2.1-2.1 3.2-.5.7.9 1.3 3 1.3 4.6zm179.3 1.7c-.4.4-1.8 1.1-3 1.5-3.5 1-3.1-3 .5-4.7 2.4-1.2 2.7-1.2 3 .5.2 1.1 0 2.3-.5 2.7zm47.4-2.8c-.3.8-.6.5-.6-.6-.1-1.1.2-1.7.5-1.3.3.3.4 1.2.1 1.9zm-316.7.3c1.1 1.4 1 3-.9 10.3-1.2 4.8-2.4 10-2.6 11.7-2.2 13.8-6.4 30.3-8 30.9-.7.2-3.8 3.8-6.8 7.9-6.3 8.5-14.9 17.4-19.3 20-.7.4-3.8-1.1-7-3.2-6.3-4.1-11.8-6.3-16.8-6.5-5-.2-4.5-3.4 1.4-10.5 5.6-6.7 12.6-11.7 17.8-12.7 1.7-.3 3.2-1.1 3.2-1.6 0-1.7-2.1-4.9-2.9-4.4-.4.3-.7-6.3-.7-14.7.1-8.4-.2-16.4-.6-17.8l-.8-2.7 9.3.1c10.9.1 17-1.6 17.5-5 .4-2.5 1.2-2.7 9.8-3.1 4.6-.2 6.4.1 7.4 1.3zm91.3 6.5c.3 1.1.1 1.8-.4 1.4-.5-.3-.9-1.2-.9-2 0-2 .7-1.7 1.3.6zm22.8 3.7c-.9 1.6-1 1.6-1.1.1 0-.9.3-2.5.7-3.5.7-1.6.8-1.7 1.1-.1.2 1-.1 2.5-.7 3.5zm127.9-1c0 1.7-1.7 3.2-4.3 4.2-1.6.6-2.6.7-2.2.2.3-.5 0-1.3-.7-1.7-.8-.5-.3-1.2 1.7-2 3.4-1.5 5.5-1.7 5.5-.7zm25 3.8l-.8 4-.1-3.6c0-2 .2-3.9.6-4.2 1.1-1.1 1.1-.4.3 3.8zm41.7 8.7c-.3.7-.5.2-.5-1.2s.2-1.9.5-1.3c.2.7.2 1.9 0 2.5zm-32.8 12c0 9.6-.3 12.6-1 10.9-1.1-2.8-1.1-14.4 0-23.1 0-.6.3-1 .6-1s.5 6 .4 13.2zm-16.9-1c0 7-.3 9.8-1.2 9.8-.9 0-.9.3 0 1.2.7.7 1.2 2.5 1.2 4 0 2.3-.4 2.8-2.5 2.8-2.8 0-2.6.8-2.7-15.5 0-12.3 0-12 2.7-12 2.5 0 2.5.1 2.5 9.7zm49.7-5.5c-.3 1-.5.4-.5-1.2 0-1.7.2-2.4.5-1.8.2.7.2 2.1 0 3zm-220.4 2.2c2.2.9 3.4.8 5.7-.4 2.9-1.5 3-1.5 3.6 1.2.3 1.6 1.5 6.2 2.6 10.3 4.3 16.3 4.5 17.6 2.8 16.5-.6-.4-.8-1.1-.5-1.6.4-.5.1-.9-.4-.9-2 0-1.1 3.2.9 3.7 1.1.3 2 .8 2 1.2 0 .3.3 1.7.7 3 .4 1.6.3 2.2-.5 1.7-.6-.3-1.3.2-1.6 1.1-1.2 4.3-1.8 8.9-1.8 12.7.1 2.4-.2 3.5-.7 2.7-.5-.7-1.2-1.3-1.7-1.4-.5-.1-.7-.7-.6-1.2.2-.6.1-.7-.3-.3-.4.3-2 .2-3.7-.4-2.2-.8-2.6-1.3-1.6-1.9.7-.5.8-.9.2-.9-.6 0-1.4.3-1.8.7-1.1 1.1-18.6 1-18.6-.2 0-.5-.7.1-1.6 1.3-.9 1.3-1.3 2.9-1 3.7.3.9 0 1.2-1 .8-.8-.3-1.4.1-1.4.8 0 1-.3 1-1.2.1-.9-.9-1.4-.7-2.4.6-.8 1-1.3 1.2-1.4.4 0-.6-.5-1.2-1-1.2-.6 0-.9.5-.8 1.1.2.6-.5 1.3-1.5 1.4-1.4.3-1.8-.1-1.4-1.6.3-1 .1-1.9-.3-1.9-1.2 0-.4-8.4.8-8.8.6-.2.8-1 .5-1.8-.3-.9.1-1.4 1.3-1.4 1.4 0 1.5-.3.6-.8-1.8-1.2-.4-6.7 2.5-9.9 1.4-1.4 3.4-4.6 4.4-7 1-2.4 2.2-4.3 2.6-4.2 1.8.4 7.4-1.4 6.4-2.1-.7-.4.1-1.5 2-2.9 2.6-1.9 3.3-2 4.6-.9 1.4 1.1 1.6 1.1 1-.4-.6-1.7 2.4-3.5 4.1-2.4.5.3 1.4-.6 2.1-2.1.6-1.4 1-2.6.9-2.7-.2 0-1.4-.7-2.8-1.5-1.4-.7-2.2-1-1.8-.6.4.5.3 1.4-.3 2.2-1.3 1.5-3.3 1.8-2.4.3.3-.6.4-1.9 0-2.9-.5-1.7-.9-1.8-5-.5-4.6 1.3-6.2.5-2.4-1.2 2.6-1.2 7.6-1 11.2.5zm-19.4 5.8c-3.5 3.2-4 4-3.5 7.1.3 2.9-.1 4-2.4 6.4-1.6 1.5-2.4 2.8-1.9 2.8s.9.4.9 1c0 1.2-1 1.3-2.9.1-1.1-.7-1.1-1.5-.1-4.6 1.1-3.3 1.5-3.6 3.9-3.1 1.4.4 2.1.3 1.5-.1-1.2-.8-1.7-3.2-1.5-6.5.1-1.2.6-1.5 1.8-1.1 1.1.4 1.4.3.9-.5-.4-.7-.1-1.2.9-1.2.9 0 1.4-.4 1-.9-.6-1 2.2-3 4.3-3.1.6 0-.6 1.7-2.9 3.7zm7.6 2.2c-.3.6-1.1 1.1-1.7 1.1-.6 0-.6-.6.2-1.5 1.4-1.7 2.6-1.3 1.5.4zm-4.4 3.4c-.8.8-1.1.7-1.1-.4 0-.9.3-1.9.7-2.3.4-.4.9-.2 1.1.4.3.7-.1 1.7-.7 2.3zm203.6 10.9c-.3.7-.5.2-.5-1.2s.2-1.9.5-1.3c.2.7.2 1.9 0 2.5zm26.4 27.1c-1.5 3.7-2.7-17.1-1.3-25.3.5-3.4.8-1 1.2 10 .3 8 .3 14.9.1 15.3zm-244.4-21.6c-.3 1-.5.4-.5-1.2 0-1.7.2-2.4.5-1.8.2.7.2 2.1 0 3zm218 2.5c-.2 1.3-.4.3-.4-2.2s.2-3.5.4-2.3c.2 1.3.2 3.3 0 4.5zm-4.7 13.4c0 16.3-.1 17.2-2 17.7-1.6.4-1.8.2-1-1.3 1.3-2.5 1.3-2.7-.5-2.7-.8 0-1.5.8-1.5 1.7 0 .9-.7 2.5-1.6 3.6-1.5 1.8-1.5 1.8-1-.5.3-1.4.1-3-.3-3.5-1.2-1.6-2-9.5-1-9.8.5-.2.6-1.3.3-2.5-.4-1.3-1-2-1.5-1.8-.4.3-.5 1.3-.2 2.2 1.3 3.3-2.2.6-4.9-3.8-2-3.3-2.7-5.8-2.7-10-.1-3.1.2-5.9.6-6.2.3-.4 4.4-.6 9-.4l8.3.2v17.1zm85.7-9.9c-.3 1-.5.2-.5-1.7s.2-2.7.5-1.8c.2 1 .2 2.6 0 3.5zm-5 3c-.3 1-.5.2-.5-1.7s.2-2.7.5-1.8c.2 1 .2 2.6 0 3.5zm-74.9 7c.1 6.7-.1 9.3-.8 8.3-1.1-1.7-1.4-19.4-.2-18.7.4.3.8 4.9 1 10.4zm71.7-5.6c-.7 2-.8 2.1-1.7.5-.5-.9-.7-2.4-.4-3.3 1-2.6 2.9.1 2.1 2.8zm-305.2.6c-.7.3-1.3 1-1.3 1.6 0 1.2-1.9 1.9-17.5 7.3-3.8 1.4-7.9 2.9-9 3.4-2.9 1.5-32.6 11-34.2 11-1.9 0-1.6-2 .5-2.6.9-.3 3.1-1.2 4.7-1.9 1.7-.7 5.5-2.1 8.5-3 3-1 6-2.2 6.7-2.7.7-.6 1.7-.7 2.2-.3.6.3 3.2-.6 5.8-2 2.6-1.4 5.8-2.5 7-2.5 1.2 0 2.4-.4 2.8-1 .3-.5 2-1.4 3.8-1.9 1.8-.5 7-2.3 11.7-3.9 4.7-1.7 8.7-2.8 9-2.5.3.3-.1.8-.7 1zm300.7.8c0 1.4-.4 2.5-1 2.5-.5 0-1-1.1-1-2.5s.5-2.5 1-2.5c.6 0 1 1.1 1 2.5zm-5 2c0 1.4-.4 2.5-1 2.5-1.1 0-1.4-3.3-.3-4.3 1.1-1.1 1.3-.8 1.3 1.8zm-4.7 3.7c-.2.5-.8.8-1.4.8-1.1 0-1.2-3.3-.2-4.4.8-.8 2.3 2.5 1.6 3.6zm-43.8-2.2c-.3.5-1 1-1.6 1-.5 0-.9-.5-.9-1 0-.6.7-1 1.6-1 .8 0 1.2.4.9 1zm-7.5 1c0 .5-.4 1-1 1-.5 0-1-.5-1-1 0-.6.5-1 1-1 .6 0 1 .4 1 1zm46 1.2c0 1.6-.3 1.9-1.1 1.1-.6-.6-.8-1.6-.5-2.2 1.1-1.7 1.6-1.3 1.6 1.1zm19.6 1.3c.2 2.5-1 3.3-2 1.6-.7-1 .3-4.1 1.3-4.1.3 0 .7 1.1.7 2.5zm-54 1c-.4 1.4-.2 2.5.4 2.5 2.2 0 .8 1.9-2.1 2.9-1.8.6-3.4 1.1-3.5 1.1-.9 0-.3-3.7.8-4.8.7-.7.8-1.2.4-1.2-.5 0-.3-.7.4-1.5 2.1-2.5 4.3-1.9 3.6 1zm30.4 0c0 1.6-.6 2.5-1.5 2.5-1.5 0-2.1-3.1-.8-4.3 1.3-1.4 2.3-.6 2.3 1.8zm18.1.8c-.8.8-1.1.7-1.1-.4 0-2 1.3-3.4 1.8-1.9.3.7-.1 1.7-.7 2.3zm-397.3-.2c1.3.5 2.1 1.3 1.8 1.8-.4.5.2.7 1.1.5 1-.3 3.1.6 4.7 1.9 2.6 2.1 2.6 2.3.7 2.3-1.2 0-2.1-.4-2.1-.8s-1.5-.8-3.4-.8-3.7-.4-4-.9c-.9-1.4-6-2-7.3-.9-.6.5-.9 1.7-.6 2.5.5 1.3.1 1.5-2.3 1-4.5-.8-8.4.3-8.4 2.4 0 2.4-1.5 3.2-3 1.4-1.8-2.1.8-8.5 4-9.7 6.4-2.5 13.1-2.7 18.8-.7zm337.2 2.5c0 1.9-.4 3.4-1 3.4-.5 0-1-1.8-1-4.1 0-2.4.4-3.8 1-3.4.6.3 1 2.2 1 4.1zm71 .4c0 2.7-.4 5-.9 5-.9 0-2-8.8-1.2-9.6 1.4-1.4 2.1.2 2.1 4.6zm-34.2-1.8c-.4 2.7-2.8 3.6-2.8 1 0-2 .8-3.2 2.2-3.2.5 0 .8 1 .6 2.2zm-4.4 2.2c-.3 1.4-1 2.6-1.5 2.6-1.4 0-1.1-4.8.4-5.3 1.7-.6 1.9-.3 1.1 2.7zM481 706c0 .5-.4 1-1 1-.5 0-1-.5-1-1 0-.6.5-1 1-1 .6 0 1 .4 1 1zm-4 2.4c0 3.8-1.2 8.6-2.1 8.6-1 0-1.2-9.3-.2-10.3 1.3-1.4 2.3-.6 2.3 1.7zm-225 .1c0 .8-.2 1.5-.4 1.5s-.6-.7-1-1.5c-.3-.8-.1-1.5.4-1.5.6 0 1 .7 1 1.5zm-22.3.8c4.1.9 5 1.4 4.1 2.4-.9 1.1-.5 1.3 1.8 1.2 4.4-.3 7.6 1 7 2.9-.3.9-.8 4.3-1.2 7.5-.4 3.5-1.2 6.1-2 6.4-.8.3-1.1.9-.8 1.4 1.4 2.4 2.1 6.7 1.2 8-.8 1.1-.8 1-.4-.4.4-1.2.2-1.7-.6-1.5-.7.3-1.3 1.1-1.3 1.9 0 2-4.5 3.8-8.2 3.2-3.1-.5-3.7-1.3-3.6-5 0-.6-.5-1.4-1.3-1.7-1-.4-1.1 0-.4 1.8.5 1.3.7 2.6.4 2.8-.2.3.2 1.8 1.1 3.4.8 1.6 1.5 2.5 1.5 1.9 0-.5.5-.4 1.2.3.8.8 1.7.6 3.6-.8 2.7-2.2 5.4-2.8 3.4-.8-1.6 1.6-1.5 2.9.2 2.2.7-.3 1.6.1 1.9.9.4 1.1-.1 1.4-1.8 1.3-2.1-.3-2.2-.1-1.3 2 .6 1.3 1.6 2 2.4 1.7 1.5-.6 1.7-.2.8 2-.4 1.2-1.2 1.3-4 .4-2.5-.8-3.7-.8-4.2 0-.5.7-1.1.6-2-.3-1-1.1-1-1.4 0-1.4.7-.1-.4-.9-2.6-2-2.1-1.1-4.3-1.8-4.8-1.7-.6.1-1.3-.4-1.6-1.2-.3-1 .2-1.2 2.2-.7 2.9.7 3 .7 1.6-2.8-.8-2.3-1.4-2.6-4.4-2.2-2 .3-4.3-.2-5.5-1-1.9-1.4-2-1.3-1.4.2.4 1.1.3 1.5-.4 1.1-.6-.4-1.3-.2-1.5.5-.3.8-.7.6-1.1-.5-.4-1.2.4-2.4 3.1-4.2 3.5-2.4 3.2-3.2-1.4-2.6-1.3.1-2.8-2.8-1.9-3.7.3-.3.5 0 .5.6 0 1.6 1.7 1.5 2.3-.1.4-1-.3-1.3-2.4-1.2-2.7.2-3-.1-2.7-2.4.2-1.5.9-2.6 1.8-2.6.8 0 1.7-1.1 2.1-2.5.4-1.4.7-1.9.8-1.3.2 2.3 1.7 1.4 1.9-1.1.1-1.3-.5-2.9-1.3-3.6-2.8-2.4-1.6-3.2 3.8-2.5l5.4.7-.5-3c-.3-2.1-.9-2.9-1.8-2.5-.7.2-1.9.1-2.5-.3-.9-.5-.7-1 .7-1.5 2.6-1.1 7.9-.9 14.1.4zm223.3.6c0 1-.7 2.4-1.5 3.1-1.3 1-1.5.9-1.5-1.2 0-1.4.3-2.8.7-3.1 1.2-1.3 2.3-.7 2.3 1.2zm-5 .8c0 1-.4 2.4-.9 3.2-.7 1.1-1 .9-1.6-.8-.7-2.2 0-4.1 1.6-4.1.5 0 .9.8.9 1.7zm-5 3.3c0 2-.5 3-1.5 3-2.9 0-1.8-5 1.3-5.9.1-.1.2 1.2.2 2.9zm-24.9 1.3c-1 .9-1.1.8-.5-.6.3-1 .9-1.5 1.2-1.2.3.3 0 1.1-.7 1.8zm19.9-.7c0 .8-.5 2.5-1.2 3.7l-1.2 2.2-.6-2.5c-.7-2.5.4-5 2.1-5 .5 0 .9.7.9 1.6zm-273.2 1.8c12.5 2.4 24 6.5 24.7 8.7.4 1.1-.3 4.3-1.3 7.2-1.6 4.3-1.8 6.2-1.1 10.1.5 2.6 1.1 5.2 1.4 5.7.8 1.1 0 1.2-2.3 0-.9-.5-5.5-2.4-10.2-4.1-4.7-1.8-8.9-3.7-9.5-4.4-.5-.6-2-1-3.1-.8-1.2.2-2.9-.4-3.8-1.3-.9-.9-2-1.4-2.5-1.1-1.2.8-6.1-1.4-6.1-2.7 0-.5-.7-.7-1.5-.3-1.8.6-9.2-2.1-23.8-8.8l-2.9-1.4 5.9-1.7c3.2-1 9.6-3 14.3-4.6 4.7-1.6 9.6-2.7 11-2.4 1.4.2 6.3 1.1 10.8 1.9zm302 4.3c-.2 4.2-.8 6.8-1.5 7.1-1 .3-1.3-1.5-1.3-6.7 0-5.7.3-7.1 1.5-7.1 1.3 0 1.5 1.2 1.3 6.7zm-34.8-2.2c0 1.9-.4 3.5-1 3.5-1.1 0-1.4-5.3-.3-6.3 1.1-1.2 1.3-.8 1.3 2.8zm29.4 3c.4 6.2 0 8.5-1.5 8.5-1 0-1.2-7.3-.3-11.9.9-4.3 1.3-3.5 1.8 3.4zm-33.4-1.6c0 3.7-1.6 4.9-2.4 1.8-.9-3.5-.7-4.7.9-4.7 1 0 1.5 1 1.5 2.9zm-5 1.3c0 1.3-.4 2.9-.9 3.6-.6 1-1 .6-1.4-1.5-.6-3-.2-4.3 1.4-4.3.5 0 .9 1 .9 2.2zm75 .3c0 1.4-.4 2.5-.9 2.5-.4 0-.6-1.1-.3-2.5.2-1.4.6-2.5.8-2.5.2 0 .4 1.1.4 2.5zm-300-.5c-1.8 1.2-3 1.3-3 .2 0-.4 1-.9 2.2-.9 1.8-.2 2 0 .8.7zm249 7.7c0 3.4-.5 6.5-1 6.8-.7.5-1-2.1-.9-7.5.2-9.5 1.9-8.9 1.9.7zm9.3-4c-.7 7.1-1.1 7.5-1.2 1-.1-3.1.3-5.7.8-5.7s.6 2.1.4 4.7zm-39.3-.3c0 1.9-.4 3.8-1 4.1-.5.3-1 .2-1-.3s-.3-2.4-.6-4.1c-.5-2.4-.3-3.1 1-3.1 1.2 0 1.6.9 1.6 3.4zm-218-.9c0 .8-.7 1.5-1.6 1.5-1.4 0-1.4-.3-.4-1.5.7-.8 1.4-1.5 1.6-1.5.2 0 .4.7.4 1.5zm212.1 6.8c-.8.8-1.1-.1-1.1-2.9 0-5.3 1.4-6.7 1.8-1.9.2 2.1-.1 4.2-.7 4.8zm40 3c-.8.8-1.1-.5-1.1-4.4 0-7.2 1.4-8.6 1.8-1.8.2 2.8-.2 5.7-.7 6.2zm41.6-9.1c-.3.8-.6.5-.6-.6-.1-1.1.2-1.7.5-1.3.3.3.4 1.2.1 1.9zm-86.3 4.7c-.8 4.8-2.2 5.6-1.7.8.6-4.1 1.2-6.1 1.9-5.5.2.3.2 2.4-.2 4.7zm-155.6.2c-1.5 1-2.8.2-2.8-1.7 0-1.2.4-1.2 2-.2 1.3.8 1.6 1.5.8 1.9zm192 2.6c-.4 8.1-2.8 8.5-2.8.4 0-4.8.3-6.1 1.5-6.1 1.3 0 1.5 1.1 1.3 5.7zm-243.7-.7c.6 0 .9.8.6 1.7-.2 1 .2 3 1 4.5 1 2.1 1 2.8 0 3.2-.6.3-.2.3 1.1 0 2.4-.6 2.8.6 1.1 3.4-.8 1.3-2 1.7-4 1.4-1.6-.2-2.6-.8-2.3-1.3.8-1.3-1-1.1-2.4.3-.9.9-1.2.9-1.2 0 0-.7.4-1.2.8-1.2 1.2 0 5.2-3.9 5.2-5 0-.6-.4-1-1-1-.5 0-1 .6-1 1.4 0 .8-.6 1.6-1.3 1.9-.8.3-1.4-.1-1.4-.9s.5-1.4 1.1-1.4c.5 0 .2-.6-.8-1.3-1.1-.8-1.5-1.9-1-3 .9-2.3 2.4-2.2 2.4.3 0 1.1.4 2 1 2s.6-.9 0-2.4c-.5-1.3-.6-3.4-.2-4.7l.7-2.4.3 2.2c.2 1.3.8 2.3 1.3 2.3zm-75.8-1.5c.8.8 1.7 1.2 1.9.9.8-.7 9.6 2.4 17.3 6.3 3.9 1.9 13.1 5.4 20.5 7.9s14.1 5.1 15 5.9c.9.8 1.9 1.3 2.2 1 .3-.3 4.1 1.1 8.4 3.1 11.6 5.4 22.6 9.4 23.7 8.7.6-.3.7-.1.3.5-.8 1.3 2.9 3.5 6.2 3.7 1.3 0 2.7.6 3.1 1.3.4.7 1.5 1 2.4.6 1.2-.4 1.7-.1 1.7 1.1 0 1.1.5 1.5 1.5 1.2.8-.4 1.7-.2 2 .3.4.6.1 1-.6 1s-.9.3-.6.6c.4.4 1.4.1 2.3-.7 1.2-1 1.8-1.1 2.1-.3.2.7 1.2 1 2.1.7 2.2-.5 10.7 3.2 12.4 5.5.7.9 2.8 1.7 4.6 1.8 5.1.2 6.6 2.4 1.7 2.4-4.2-.1-9.4-2.3-8.5-3.6.3-.4-1.4-.9-3.8-1-2.3-.1-4.9-.7-5.6-1.3-.7-.6-2-.9-2.9-.5-.8.3-1.8.1-2.2-.5-.3-.6-1.4-1.1-2.3-1.1-1 0-4.4-1.4-7.5-3-3.2-1.7-6.5-3-7.4-3-.8 0-3.7-1.1-6.3-2.4-2.6-1.3-6.3-2.7-8.1-3.1-1.9-.4-5.2-1.5-7.4-2.4-2.2-1-5.9-2.4-8.3-3-2.3-.7-5.9-2.3-7.9-3.6-2-1.4-4.5-2.5-5.7-2.5-1.2 0-5.2-1.6-9-3.5s-8.5-3.8-10.5-4.1c-2-.4-5.8-1.5-8.6-2.4-2.7-1-6.2-2.1-7.8-2.4-1.5-.4-5.2-1.8-8.2-3.2-4.9-2.2-5.5-2.8-5.5-5.4 0-3.3 1.1-3.8 3.3-1.5zm277.8 4.8c-.8.8-1.1.4-1.1-1.4 0-3.3 1.4-4.7 1.8-1.9.2 1.2-.1 2.7-.7 3.3zm30.9-2.9c0 .8-.4 1.8-1 2.1-.5.3-1-.3-1-1.4 0-1.2.5-2.1 1-2.1.6 0 1 .6 1 1.4zm66.6 1.4c-.3 1-.6 6.1-.7 11.5-.2 5.4-.7 10.1-1.2 10.4-.7.4-.8-2.7-.4-8.7.4-5.1.7-10.8.7-12.7 0-2.1.4-3.2 1-2.8.6.4.9 1.4.6 2.3zm-61.3.8c.6 3.3-.2 6.4-1.7 6.4-.7 0-1-1.6-.8-4.5.4-5 1.7-5.9 2.5-1.9zm29.7 2c0 1.2-.7 2.4-1.5 2.7-1.7.7-2.7-.5-2-2.7 1.7-5.3 1.6-5.1 2.5-3.6.6.8 1 2.5 1 3.6zm-353.3-1.4c-.3.8-.6.5-.6-.6-.1-1.1.2-1.7.5-1.3.3.3.4 1.2.1 1.9zm308.7 2.2c.7 4.4-.2 10.6-1.5 10.6-1 0-1.2-5.8-.3-11.3.8-4.5 1-4.4 1.8.7zm-24.4-2.7c0 .5-.5 1.5-1 2.3-.8 1.2-1 1.1-1-.8 0-1.2.5-2.2 1-2.2.6 0 1 .3 1 .7zm95.6 2.1c-.3 1-.6 6.1-.7 11.4-.2 5.4-.7 10.3-1.1 11-.6.8-.7-3.3-.4-9.7.3-6.1.6-12 .6-13.3 0-1.4.4-2 1-1.7.6.4.9 1.4.6 2.3zM460.8 755c0 11.9-.4 21-.9 21-1 0-1-.3-1.1-19-.2-15.2.3-23 1.3-23 .4 0 .7 9.4.7 21zM393 736.5c0 .8-.4 1.5-1 1.5-.5 0-1-.7-1-1.5s.5-1.5 1-1.5c.6 0 1 .7 1 1.5zm96 .5c0 1.1-.4 2-1 2-.5 0-1-.9-1-2s.5-2 1-2c.6 0 1 .9 1 2zm-433.7 1c-.5 2-2.3 2.6-3.6 1.3-.9-.8 1.2-3.3 2.8-3.3.8 0 1.1.8.8 2zm332.3 1.7c-1 1-1.9-.5-1-1.8.6-1.1.8-1.1 1.2 0 .2.7.1 1.5-.2 1.8zm96.3 13.3c-.1 9.2-.6 16-1.1 16-.9 0-.9-18.7 0-27.8.8-8.6 1.3-3.8 1.1 11.8zm-67.5-10.8c-.2 7.1-.7 8.1-1.4 2.8-.4-3-.5-5.8-.3-6.3.9-1.6 1.8.3 1.7 3.5zm-162.1-1.1c.3 1.3.1 1.9-.6 1.6-1.5-.5-2.2-3.7-.9-3.7.5 0 1.2.9 1.5 2.1zm202 6.1c-.1 4-.2 9.9-.2 13-.1 3.3-.5 5.8-1.1 5.8-1.1 0-1.3-21.2-.3-25.3 1-3.9 1.8-.4 1.6 6.5zm18.6 2.8c-.1 6-.6 11.5-1.1 12.2-.9 1.4-.9-14.1-.1-20 1-6.2 1.4-3.1 1.2 7.8zm-216.6-8c.3 1.1.1 1.8-.4 1.4-.5-.3-.9-1.2-.9-2 0-2 .7-1.7 1.3.6zm169.3.5c.3 1.7-1.2 2-2.1.5-.7-1.2.4-3.4 1.3-2.5.3.3.7 1.2.8 2zm-385.3-.1c.3.8 0 1.9-.6 2.4-2.8 2.2-7.7 4.1-9.1 3.6-1-.4-1.6-.1-1.6.7 0 .7-.3 1-.6.6-1.5-1.4 1.1-5 4.9-6.7 5.2-2.3 6.3-2.4 7-.6zM406 748c0 4-.4 7-1 7s-1-3-1-7 .4-7 1-7 1 3 1 7zm45.6 8.8c-.5 15.3-.2 20.2 1.3 20.2.4 0 1.2-2.1 1.8-4.8l1-4.7.2 4.1c0 2.3-.5 5.4-1.3 6.9l-1.4 2.7-2.1-2.1c-1.9-1.9-2-3.2-2-17.8.1-14.4.8-20.3 2.5-20.3.3 0 .4 7.1 0 15.8zm14.7-12.8c-.3 1.1-.9 2-1.4 2-1 0-1.2-2.4-.2-3.3 1.3-1.3 2.1-.7 1.6 1.3zm-226.3.5c0 .8-.4 1.5-1 1.5-.5 0-.7-.7-.4-1.5.4-.8.8-1.5 1-1.5.2 0 .4.7.4 1.5zm-20 .5c0 .5-.7 1-1.6 1-.8 0-1.2-.5-.9-1 .3-.6 1-1 1.6-1 .5 0 .9.4.9 1zm217 0c0 .5-.5 1-1.1 1-.5 0-.7-.5-.4-1 .3-.6.8-1 1.1-1 .2 0 .4.4.4 1zm51.9 8.2c-.3 11.7-.9 16.9-2 16.2-.7-.4-.7-8.7 0-23.2.1-1.2.6-2.2 1.2-2.2.7 0 1 3.2.8 9.2zm-436.4-1.5c-.3 1.9-1.2 3.6-1.9 3.9-.6.2-3.6-.6-6.6-1.9l-5.5-2.4L43 749c9.3-4.8 10.8-4.3 9.5 2.7zm393.6-3c-.9 1.6-1 1.4-1.1-1.2 0-2.1.3-2.6 1.1-1.8s.8 1.6 0 3zm24.6-.2c.1 1.9-.3 3.8-.8 4.1-.5.3-.9-1.3-.9-3.5 0-5 1.6-5.5 1.7-.6zM214.5 747c.3.5.1 1-.4 1-.6 0-1.1-.5-1.1-1 0-.6.2-1 .4-1 .3 0 .8.4 1.1 1zm154.5 0c0 .5-.5 1-1.1 1-.5 0-.7-.5-.4-1 .3-.6.8-1 1.1-1 .2 0 .4.4.4 1zm42.6 4.6c-.3.9-1 1.2-1.6.9-1.4-.9-1.2-5.3.3-5.8 1.3-.4 2.2 2.6 1.3 4.9zm-211-3.1c.7-1.7.8-1.7 2.1.1 1.8 2.4 1.7 5.5-.1 4.8-.8-.3-1.2-1.2-.9-2 .3-.8.1-1.4-.5-1.4s-1.2.5-1.4 1.1c-.3.8-1 .6-2-.5-.9-.9-2.3-1.6-3-1.7-.7 0-.4-.4.7-.9 1.4-.5 2.4-.3 3.2.8 1.1 1.3 1.3 1.3 1.9-.3zm192.4 1.4c0 1.7-.4 3.3-1 3.6-.6.4-1-.8-1-2.9 0-2 .5-3.6 1-3.6.6 0 1 1.3 1 2.9zm48.9 9.6c-.1 6.9-.6 12.5-1 12.5-.5 0-.9-5.3-.9-11.8 0-10.5.3-13.2 1.7-13.2.2 0 .3 5.6.2 12.5zm-416.2-9.3c-.3.8-.6.5-.6-.6-.1-1.1.2-1.7.5-1.3.3.3.4 1.2.1 1.9zm224 0c-.3.8-.6.5-.6-.6-.1-1.1.2-1.7.5-1.3.3.3.4 1.2.1 1.9zm-36.2-.2c.3.5.1 1-.4 1-.6 0-1.1-.5-1.1-1 0-.6.2-1 .4-1 .3 0 .8.4 1.1 1zm40.8 3.9c-.1 2.3-.5 4.6-.8 5.2-.4.6.1 1.9 1.1 3.1 1.9 2 1.9 2-.6 1.6-1.4-.2-2.4-.9-2.2-1.6.1-.6-.5-1.2-1.3-1.2s-1.5-.9-1.5-2 .6-1.9 1.3-1.8c.6.2 1.2-.6 1.3-1.7.1-3 1.4-6.6 2.3-6.1.3.3.6 2.3.4 4.5zm102-1.9c-.3 1.1-.9 2-1.4 2-1 0-1.2-3.3-.3-4.3 1.2-1.2 2.2.3 1.7 2.3zm4.7-1.5c0 .8-.4 1.5-1 1.5-.5 0-1-.7-1-1.5s.5-1.5 1-1.5c.6 0 1 .7 1 1.5zm21.6 7.3c-1.3 1.2-1.6-.8-.9-4.9l.8-4.4.3 4.4c.2 2.3.1 4.6-.2 4.9zm54.7 6.4c-.4 15.8-.7 17.8-2.1 17.8-.4 0-.8-6.9-.9-15.3 0-14 .5-17.7 2.7-17.7.4 0 .6 6.9.3 15.2zm28.7-8.7c0 3.7-.4 6.5-1 6.5-1.1 0-1.4-11.3-.3-12.3 1.2-1.3 1.3-.7 1.3 5.8zm-448.3-3.3c-.3.8-.6.5-.6-.6-.1-1.1.2-1.7.5-1.3.3.3.4 1.2.1 1.9zm241.8-1.6c-.6.2-1 2.1-.8 4.2.1 2 0 2.9-.3 1.9-.3-.9-1-1.7-1.6-1.7-.6 0-.6-.6.2-1.5 1-1.2 1-1.5-.1-1.5s-1.1-.2.1-1c.8-.5 2-.9 2.5-.9.6 0 .6.2 0 .5zm92.5 1.9c0 .8-.4 1.7-1 2-.6.4-1-.5-1-2s.4-2.4 1-2c.6.3 1 1.2 1 2zm36 .6c0 1.7-.4 2.8-1 2.4-.5-.3-1-1.7-1-3.1 0-1.3.5-2.4 1-2.4.6 0 1 1.4 1 3.1zm-40.5.8c-.3 1.2-1.1 2.1-1.6 2.1-1.4 0-1.1-3.8.4-4.3 1.7-.6 2-.2 1.2 2.2zm75-1.9c-.3.5-1.1 1-1.6 1-.6 0-.7-.5-.4-1 .3-.6 1.1-1 1.6-1 .6 0 .7.4.4 1zm24.2 5.1c.1 2.7-.3 4.9-.8 4.9s-.9-2.6-.9-5.7c0-6.8 1.4-6.2 1.7.8zM153 753.6c0 1.4-3.8 4.9-4.6 4.2-.3-.3-.2-1.7.1-3.1.5-1.7 1.3-2.5 2.6-2.4 1 .1 1.9.6 1.9 1.3zm67.7-.4c.9-2.2 2-1.3 1.5 1.3-.3 1.8-1 2.5-2.1 2.2-.9-.2-1.5-.9-1.3-1.5.1-.7-.6-1.2-1.5-1.2-1.5 0-1.6-.2-.3-1 .9-.6 1.7-.5 2.3.3.7.9 1 .9 1.4-.1zm117.7.6c1.1 1.9-1 2.7-2.6 1-1.7-1.7-1.7-1.8.1-1.8 1.1 0 2.2.4 2.5.8zm4.6.2c0 .5-.4 1-1 1-.5 0-1-.5-1-1 0-.6.5-1 1-1 .6 0 1 .4 1 1zm59 1c0 1.1-.4 2-1 2-.5 0-1-.9-1-2s.5-2 1-2c.6 0 1 .9 1 2zm-138.3 2.2c-.3.7-.5.2-.5-1.2s.2-1.9.5-1.3c.2.7.2 1.9 0 2.5zm153.3-2.8c0 .3-.4.8-1 1.1-.5.3-1 .1-1-.4 0-.6.5-1.1 1-1.1.6 0 1 .2 1 .4zm10.9 14.1c-.2 14.1.3 17.4 2 14.6.5-.7 1.4-1 2-.7 2 1.3 1.1 2.4-2.4 2.8-3 .3-3.5.1-3.6-1.7 0-1.1-.2-7.8-.4-15-.4-12 0-14.4 2.3-14.5.2 0 .2 6.5.1 14.5zM9.7 757.2c-.3.8-.6.5-.6-.6-.1-1.1.2-1.7.5-1.3.3.3.4 1.2.1 1.9zm368.3.3c0 1.4-.4 2.5-1 2.5-.5 0-1-1.1-1-2.5s.5-2.5 1-2.5c.6 0 1 1.1 1 2.5zm101 1c0 1.9-.4 3.5-1 3.5-.5 0-.9-1.6-.8-3.5.1-1.9.5-3.5 1-3.5.4 0 .8 1.6.8 3.5zm-389.1-1.8c-.1.5 0 1 .1 1.3.7 1.3.5 9-.2 9-.4 0-.8.6-.8 1.4 0 1.3-3.8 1.5-5.9.1-1.2-.7 4.3-12.5 5.9-12.5.6 0 .9.3.9.7zm242.9 3.5c-.2 2.3-.9 4.3-1.5 4.6-1.4.4-1.7-2.7-.7-6.6 1-3.8 2.5-2.4 2.2 2zm64.2-2.7c0 .8-.4 1.5-1 1.5-.5 0-.7-.7-.4-1.5.4-.8.8-1.5 1-1.5.2 0 .4.7.4 1.5zm14.5-.5c-.3.5-1.1 1-1.6 1-.6 0-.7-.5-.4-1 .3-.6 1.1-1 1.6-1 .6 0 .7.4.4 1zm-18.9 3.7c-1.1 1.1-1.9-.6-1.1-2.4.8-1.7.8-1.7 1.2 0 .3 1 .2 2.1-.1 2.4zm29.7 1c.6 4.7.2 14.2-.8 17.3-.3.8.1 2.7.9 4.1.7 1.5 1.1 3.9.8 5.4-.4 2.5-.7 2.6-4.1 2-2-.4-3.8-.9-4.1-1.2-.7-.7-.9-14.9-.3-22.6 1-11.7 2.3-7.2 2.1 6.8-.1 9.5.1 13.8 1 14.7 1.4 1.4 1.4.8 2-22.5.2-9.4 1.6-11.6 2.5-4zm47.4-2.5c-.3.8-.6.5-.6-.6-.1-1.1.2-1.7.5-1.3.3.3.4 1.2.1 1.9zm-142.4 3.5c-.6 5.1-1 6-1.9 5.1-.8-.9.7-9.8 1.7-9.8.5 0 .6 2.1.2 4.7zm10.3.1c-1.2 1.1-1.8-.7-1-3l.8-2.3.4 2.3c.2 1.3.1 2.6-.2 3zm36-1.1c-1.1 1.1-1.9-.6-1.1-2.4.8-1.7.8-1.7 1.2 0 .3 1 .2 2.1-.1 2.4zm123.8-1c-1 4-1.4 4.1-1.4.5 0-1.8.5-3.2 1-3.2.6 0 .8 1.1.4 2.7zm-109.7 1.5c-.3.7-.5.2-.5-1.2s.2-1.9.5-1.3c.2.7.2 1.9 0 2.5zM406 760c0 .5-.5 1-1.1 1-.5 0-.7-.5-.4-1 .3-.6.8-1 1.1-1 .2 0 .4.4.4 1zm-362 1c.8.5 1.2 1.1.9 1.4-.7.8-4.9-.5-4.9-1.5 0-1.2 2.1-1.1 4 .1zm221.4.6c.3.8.2 1.2-.4.9-.6-.3-1-1-1-1.6 0-1.4.7-1.1 1.4.7zm57.6 2.9c0 3.3-.4 4.5-1.5 4.5s-1.3-.8-.9-3.3c1.3-7.2 2.4-7.8 2.4-1.2zm169.2-.5c-.6 4.1-1.2 3.8-1.2-.6 0-1.9.4-3.3.8-3 .5.3.7 1.9.4 3.6zm-123.6-.3c-1 1-1.9-.5-1-1.8.6-1.1.8-1.1 1.2 0 .2.7.1 1.5-.2 1.8zm-141.7-.1c.2.2.2.6-.1.9-.8.9-5.8-.6-5.8-1.6 0-.8 4.8-.2 5.9.7zm19.9 2c2.3 2.7 3.9 3.7 7.1 4.1 2.5.4 4.1 1.1 4.1 1.9 0 .8.9 1.4 2 1.4 1 0 2.8 1 4 2.2 2 2.1 2 2.1 3.5.2 1.4-1.9 1.4-1.8 1.5.3 0 1.7-.8 2.5-3.2 3.1-1.8.5-3.4.5-3.6 0-.2-.4-1.3-.8-2.5-.8-1.7 0-1.9-.2-.8-.9.7-.5 1.1-1.4.7-2-.5-.7-1.2-.7-2.6.1-2.4 1.5-9.7-.6-12.3-3.6-1-1.2-1.6-1.5-1.2-.9.7 1.5-1.3 1.7-3.4.4-1-.6-1.1-1.3-.2-2.9 1.4-2.5 1.4-5.2.1-5.2-.5 0-1.2 1.6-1.6 3.5-.3 1.9-.8 3.5-1 3.5-.2 0-2.2-.7-4.4-1.6-5-2-5.5-4.9-.8-4.2 2 .3 3.8 0 4.6-.8 2.6-2.6 6.8-1.7 10 2.2zm71.2.3c0 2.2-.4 4.3-1 4.6-.5.3-1 .3-1.1-.2 0-.4-.2-1.7-.4-2.8-.5-2.5.3-5.5 1.6-5.5.5 0 .9 1.8.9 3.9zm65-1.9c0 1.1-.4 2-1 2-.5 0-1-.9-1-2s.5-2 1-2c.6 0 1 .9 1 2zm28.9 10.7c-.1 7.1.1 13.4.3 14.2.1.8-.4 1.6-1.4 1.8-1.4.4-1.6-1-1.3-13.9.3-15.9.2-14.8 1.4-14.8.6 0 1 5.3 1 12.7zM9.8 767.6c-.1 3-.4 4.1-1 3.1-.7-1.4-.1-7.7.8-7.7.2 0 .3 2.1.2 4.6zM261 764c1.2.8.9 1-1.3 1-1.6 0-2.6-.4-2.2-1 .8-1.2 1.6-1.2 3.5 0zm186 7.1c0 5.1-.4 6.9-1.3 6.9-1 0-1.3-1.7-1.2-6.8.2-8.3.3-8.5 1.5-7.7.6.3 1 3.7 1 7.6zm23.2-5.8c.3 1.3.1 3.2-.3 4.3-.5 1.3-.8.7-.8-2.4-.1-4.6.4-5.5 1.1-1.9zm8.8-.4c0 1.1-.4 2.3-1 2.6-.6.4-1-.5-1-1.9s.5-2.6 1-2.6c.6 0 1 .9 1 1.9zM148.2 766c2 0 18 5.2 23.5 7.6 1.7.8 4.6 1.7 6.5 2.1 1.8.3 4.3 1.3 5.6 2.1 1.3.8 3.3 1.6 4.5 1.8 7.2 1.2 12.8 2.7 16.2 4.4 2.2 1.1 4.6 2 5.5 2 2.6 0 7 2.4 6.6 3.6-.5 1.3 2.9 3.2 5.7 3.3 5.4.3 5.9.9 2.6 2.9-1.7 1.1-2.5 1.1-4.5-.3-2.8-1.8-3.3-.9-.6 1.2 1.5 1.3 1.5 1.4-1 .9-2.5-.6-5 .8-2.8 1.6.9.3-16.7 7.8-18.4 7.8-.5 0-.6-.7-.3-1.5.7-1.7-.7-2.8-4.2-3.1-1.4-.1-4.4-.7-6.6-1.4-2.2-.7-5.5-1.3-7.3-1.4-3.1-.1-3.3-.3-2.8-2.9.4-2 .2-2.7-.9-2.7-.8 0-1.5.5-1.5 1.1 0 .7-1.1.9-3.2.5-1.8-.4-4.2-.8-5.3-1-1.1-.2-1.9-.7-1.8-1.2 0-.5-1.6-1-3.7-1-2-.1-4.8-.8-6.1-1.5-1.3-.7-2.6-1.4-2.9-1.5l-2.7-.9c-1.3-.4-2.3-1.1-2.3-1.5 0-.4-1.8-1.2-4-1.9-2.2-.6-4-1.6-4-2.1 0-.6-.7-1-1.5-1s-1.5.6-1.5 1.4c0 .9-.7 1.2-2 .9-1.1-.3-2-.8-2-1.2 0-.4-.8-.7-1.7-.8-3.3-.2-7.6-1.4-10.4-2.8-1.5-.8-3.8-1.5-5.1-1.5-1.3 0-3-.5-3.8-1-1.3-.8-1.2-1 .3-1 1 0 3.4-1.2 5.3-2.6 1.9-1.5 3.7-2.4 4.1-2 .3.3 1.2.1 2-.6.7-.6 1.6-.8 1.9-.6.3.3 2.6-.1 5.1-.8 3.5-1.1 4.8-1.1 5.4-.2.5.8 1.2.6 2.5-.7 2.6-2.6 7.7-4.5 8.9-3.4.5.5 1.7.9 2.7.9zm164.7-.3c-.1 1-.5 3.1-.9 4.8-.7 2.7-.8 2.5-.9-1.8 0-2.6.4-4.7.9-4.7.6 0 .9.8.9 1.7zm64.7 2c-1.1 1.1-1.9-.6-1.1-2.4.8-1.7.8-1.7 1.2 0 .3 1 .2 2.1-.1 2.4zm29.1 13c-.4 11.7-.7 13.8-2.3 15-2.7 2-4.4 1.6-4.4-1.2 0-1.4.5-2.5 1.1-2.5.5 0 .8.4.4.9-.3.5-.1 1.2.4 1.5 2 1.3 2.5-2.2 2.3-15.2-.3-13.4.2-16.9 2-13.8.5 1 .8 7.7.5 15.3zm59.3-15.2c0 .8-.4 1.5-1 1.5-.5 0-1-.7-1-1.5s.5-1.5 1-1.5c.6 0 1 .7 1 1.5zM34 766c0 .5-.2 1-.4 1-.3 0-.8-.5-1.1-1-.3-.6-.1-1 .4-1 .6 0 1.1.4 1.1 1zm359 9.7c-.2 12.6-.2 12.3-1 12.3-.9 0-1.3-20.7-.4-22.1 1.3-2.1 1.6.2 1.4 9.8zm80.7-7.5c-.3.7-.5.2-.5-1.2s.2-1.9.5-1.3c.2.7.2 1.9 0 2.5zm-444.9.6c-.5 2.7-2.8 2.6-2.8-.2 0-1.9.4-2.4 1.5-1.9.9.3 1.5 1.2 1.3 2.1zm237.7-1.8c.3.5.1 1-.4 1-.6 0-1.1-.5-1.1-1 0-.6.2-1 .4-1 .3 0 .8.4 1.1 1zm40.4 7.4c-.9.8-1 .3-.5-2.3.3-1.8.7-4.1.8-5 .1-.9.3.1.5 2.3.3 2.2-.1 4.3-.8 5zm66.7-5.7c-1 1-1.9-.5-1-1.8.6-1.1.8-1.1 1.2 0 .2.7.1 1.5-.2 1.8zm28.3 8c0 6-.4 11.7-.9 12.8-1.1 2.6-1.2 1.9-1.2-10 0-13.2 0-13.5 1.2-13.5.6 0 1 4.2.9 10.7zm-98.3-.9c-1.3 1.2-1.7-.8-.9-4.4l.8-3.9.3 3.9c.2 2.1.1 4.1-.2 4.4zm66.4-6.3c0 .8-.7 1.5-1.5 1.5-1.6 0-2-1.2-.8-2.3 1.1-1.2 2.3-.8 2.3.8zm27 7c0 4.7-.4 8.5-.9 8.5-.6 0-.9-15.7-.3-16.8.9-1.3 1.2 1.1 1.2 8.3zm-97-5.5c0 1.1-.4 2-1 2-.5 0-1-.5-1-1.2 0-.6-.7-.3-1.5.8-1.1 1.5-1.4 1.6-1.5.3 0-1.8 1.9-3.9 3.7-3.9.7 0 1.3.9 1.3 2zm165.8.2c-.2 1.2-.8 2.3-1.4 2.5-.7.2-1-.6-.7-2.2.6-3 2.6-3.4 2.1-.3zM22 772c0 .5-.4 1-1 1-.5 0-1-.5-1-1 0-.6.5-1 1-1 .6 0 1 .4 1 1zm304.9 1.7c0 2.5-.1 2.5-.8.8-.5-1.1-.7-2.3-.4-2.8.8-1.4 1.3-.7 1.2 2zm56.9 9.7c-.2 9.6-1.3 19.8-1.7 16.6-.1-.8-.4-7.5-.7-14.7-.5-11.9-.3-13.2 1.1-12.7 1.3.6 1.6 2.3 1.3 10.8zm5.1-5.2c.1 7.9-.9 17.1-1.8 16.3-.7-.7-1.1-20.6-.4-21.8 1.3-2.2 2.2 0 2.2 5.5zM15.5 774c.3.5.1 1-.4 1-.6 0-1.1-.5-1.1-1 0-.6.2-1 .4-1 .3 0 .8.4 1.1 1zm-5.8 2.2c-.3.8-.6.5-.6-.6-.1-1.1.2-1.7.5-1.3.3.3.4 1.2.1 1.9zM357 775c0 .5-.4 1-1 1-.5 0-1-.5-1-1 0-.6.5-1 1-1 .6 0 1 .4 1 1zm84.5 1.5c0 1.4-.3 2.5-.7 2.5-.5 0-.8-1.1-.8-2.5s.3-2.5.8-2.5c.4 0 .7 1.1.7 2.5zm-89.5.5c0 .5-.4 1-1 1-.5 0-1-.5-1-1 0-.6.5-1 1-1 .6 0 1 .4 1 1zm18-.6c0 .3-.4.8-1 1.1-.5.3-1 .1-1-.4 0-.6.5-1.1 1-1.1.6 0 1 .2 1 .4zm8.9 10.1c-.1 10.4-1.8 14.3-2 4.6-.1-3.4-.2-7.6-.3-9.4-.3-3.6.1-4.7 1.5-4.7.5 0 .9 4.2.8 9.5zm-67.2-5.3c-.3.7-.5.2-.5-1.2s.2-1.9.5-1.3c.2.7.2 1.9 0 2.5zm32.3-.2c0 .5-.7 1-1.6 1-.8 0-1.2-.5-.9-1 .3-.6 1-1 1.6-1 .5 0 .9.4.9 1zm-72.5 5.6c.2 2.1.2 3.1-.1 2.1-.7-2.3-2-2.2-2.7.3-.9 3.4-2.9 2.4-2.2-1 .4-1.8.2-3-.3-3-.6 0-1.4 1.5-1.8 3.2l-.7 3.3-.9-2.8c-1.2-3.3-2.8-2.7-2.9 1.1-.1 2.6-.1 2.6-.7.4-1-3.4-2.7-2.3-2.8 1.7 0 4-2.4 5.6-2.4 1.7 0-1.3-.4-2.8-1-3.1-.5-.3-1 .3-1 1.4 0 2.4-1.6 3.6-2.4 1.9-.6-1.7-3.6 1.9-3.6 4.3 0 3.7-1.8 2.7-2.2-1.1-.4-4-.3-4.1 5.2-6.7 10.8-5.3 20.5-9 21.3-8.3.4.4 1 2.4 1.2 4.6zm32.5-4c0 .8-.4 1.2-1 .9-.5-.3-1-1-1-1.6 0-.5.5-.9 1-.9.6 0 1 .7 1 1.6zm52.5-.6c.3.5.1 1-.4 1-.6 0-1.1-.5-1.1-1 0-.6.2-1 .4-1 .3 0 .8.4 1.1 1zm13.4 6c.1 4.4-.2 7-.8 7-.7 0-1.1-2.8-1.1-7 0-3.9.4-7 .8-7 .5 0 1 3.1 1.1 7zm-31.9-5.1c0 .6-.4 1.3-1 1.6-.5.3-1-.1-1-.9 0-.9.5-1.6 1-1.6.6 0 1 .4 1 .9zm14 1.1c0 .5-.4 1-1 1-.5 0-1-.5-1-1 0-.6.5-1 1-1 .6 0 1 .4 1 1zm13.6 5.4c.4 5.5-.9 8.4-1.9 4.4-.7-2.3.3-11.2 1-10.4.3.3.7 3 .9 6zm-47.6.1c0 7-2.4 7.7-2.8.8-.3-4 .6-6.2 2.6-6.3.1 0 .2 2.5.2 5.5zm13.6-1.8c-1.1 1.1-1.9-.6-1.1-2.4.8-1.7.8-1.7 1.2 0 .3 1 .2 2.1-.1 2.4zm30.4 4.7c0 10.1-1.7 10.6-1.9.6-.1-5 .2-8 .9-8 .6 0 1 3 1 7.4zm-39.2-3.5c.2 1.3-.1 2.8-.7 3.4-.8.8-1.1.5-1.1-1 0-1.2-.3-2.9-.7-3.9-.4-1.2-.2-1.5.8-1.2.8.2 1.6 1.5 1.7 2.7zm5.2-1.5c0 1.6-1.8 3.1-2.7 2.2-.8-.8.5-3.6 1.7-3.6.5 0 1 .6 1 1.4zm15.2.8c-.6.6-1.5.8-1.9.4-.4-.4-.1-1.1.7-1.6 1.9-1.2 2.7-.3 1.2 1.2zm-30.4 2.3c.2 1.9-.2 3.5-.7 3.5-.6 0-1-1.6-.9-3.5.1-1.9.4-3.5.8-3.5.3 0 .7 1.6.8 3.5zm44.6-.4c.8 3.9-.4 19.9-1.5 19.9-.4 0-.8-5.2-.8-11.5-.1-11.1 1-14.9 2.3-8.4zm118.1-1.3c-.3.3-1.1 0-1.8-.7-.9-1-.8-1.1.6-.5 1 .3 1.5.9 1.2 1.2zM338 790c0 .5-.5 1-1.1 1-.5 0-.7-.5-.4-1 .3-.6.8-1 1.1-1 .2 0 .4.4.4 1zm14.9 10c-.1 6.1-.5 11.3-.9 11.5-.9.6-2.3-20.1-1.5-21.5 1.9-3.1 2.6-.2 2.4 10zm40-10.3c0 .5-.4 1.7-.9 2.8-.8 1.8-.9 1.7-.9-.8-.1-1.5.4-2.7.9-2.7.6 0 1 .3.9.7zm44.8 2.7c5.9 5.2 11.4 7.6 17.7 7.6 3 0 5.7.4 6 .9 1.5 2.4-8.9 6.9-12.1 5.3-1-.5-3.8-1.3-6.3-1.7-3.6-.6-5.7-1.8-10.7-6.6-3.4-3.3-6.7-5.9-7.4-5.9-.7 0-.5-.6.7-1.5 3.4-2.5 8-1.8 12.1 1.9zm-105.2.6c-.3.5-1.1 1-1.6 1-.6 0-.7-.5-.4-1 .3-.6 1.1-1 1.6-1 .6 0 .7.4.4 1zm11.5 8c0 4.4 0 8.3.1 8.7 0 .4-.4.9-1 1.1-.6.2-1.1-.7-1.1-2s-.2-5-.4-8.3c-.3-6.3-.1-7.5 1.5-7.5.5 0 .9 3.6.9 8zm4 .2c0 9.2-.6 10-1.4 1.8-.5-5 0-10 1-10 .2 0 .4 3.7.4 8.2zm-107.5-6.4c.6.4.8 2 .5 3.7l-.7 3-1.4-3-1.3-3-.4 3.7c-.3 3.8-2.1 5.4-2.3 2 0-.9-.2-2.5-.4-3.5-.2-1.1.5-2.2 1.8-2.7 2.8-1.1 3-1.1 4.2-.2zm97.6.9c.1.5.3 3.7.4 7.3.2 6.2 1 12.4 2.1 16.2.4 1.3 0 1.8-1.4 1.8-2.6 0-3-2.1-3.2-15.3 0-6.8.3-10.7 1-10.7.5 0 1.1.3 1.1.7zm-38.9 6.5c-.9.9-1.2.4-1.1-2.3 0-3.2.1-3.3 1.1-1.1.8 1.7.8 2.6 0 3.4zm33.8.7c0 5.9-1.2 8.6-2.4 5.5-.8-2.1-.8-9.9.1-10.7 1.7-1.7 2.3-.3 2.3 5.2zm33-4.5c0 .8-.4 1.8-1 2.1-.5.3-1-.3-1-1.4 0-1.2.5-2.1 1-2.1.6 0 1 .6 1 1.4zm-138 4.8c0 4.9-.5 4.7-1.3-.5-.3-2-.2-3.7.4-3.7.5 0 .9 1.9.9 4.2zm5-3.2c0 .5-.4 1-1 1-.5 0-1-.5-1-1 0-.6.5-1 1-1 .6 0 1 .4 1 1zm34.3 1.5c-.7 2.1-1.3 1.9-1.3-.6 0-1.1.4-1.8 1-1.4.5.3.7 1.2.3 2zm61.1-.8c.6 2.4.1 16.2-.7 17-.4.3-.2 1.4.4 2.5 1.3 2.4.5 4.8-1.5 4.8-1.3 0-1.5-2-1.5-12.2 0-6.7.2-12.5.5-13 .9-1.4 2.2-.9 2.8.9zm-104.5 4.8c-.1 3-.5 5.8-1 6.1-1 .6-1.3-9.9-.2-10.9 1.1-1.2 1.2-.8 1.2 4.8zm100 7.2c-.2 6 .1 12 .5 13.5.7 2.4.6 2.6-1.3 2.1-2.4-.6-2.3-.4-2.1-13.3.1-10.2.6-13 2.1-13 .6 0 .9 4.2.8 10.7zm42.1-7.2c0 1.9-.4 3.5-1 3.5-1.1 0-1.4-5.3-.3-6.3 1.1-1.2 1.3-.8 1.3 2.8zM218.5 804c.3.5.1 1-.4 1-.6 0-1.1-.5-1.1-1 0-.6.2-1 .4-1 .3 0 .8.4 1.1 1zm14.5 1.1c0 .5-.4.9-1 .9-.5 0-1-.7-1-1.6 0-.8.5-1.2 1-.9.6.3 1 1 1 1.6zm42.2 1.9c-.2 1.6-.6 3-.8 3-.2 0-.4-1.4-.4-3 0-1.7.4-3 .8-3 .5 0 .7 1.3.4 3zm43 9.1c-.4 10.8-.6 12.8-1.6 11.8-.7-.7-1.6-22.6-.9-23.3 2.2-2.1 2.8.8 2.5 11.5zM214 809.4c0 5.7-1.7 6.9-2.2 1.7-.4-4.5-.1-6.1 1.3-6.1.5 0 .9 2 .9 4.4zm4.1 2.2c-.9 3.8-.9 3.8-1 .7-.1-3.3 1-7.4 1.6-5.7.2.6-.1 2.8-.6 5zm-9.1-2.2c0 3.4-1.8 4.2-2.9 1.4-1-2.7-.6-3.8 1.5-3.8.8 0 1.4 1 1.4 2.4zm41.1.9c-.8.8-1.1.7-1.1-.4 0-2 1.3-3.4 1.8-1.9.3.7-.1 1.7-.7 2.3zm62.8-.1c-.1 4.5-1.6 13.7-1.9 11.8-.1-.8-.3-4.5-.5-8.3-.3-5.3-.1-6.7 1-6.7 1 0 1.5 1 1.4 3.2zm-42.2 0c-.3.8-.6.5-.6-.6-.1-1.1.2-1.7.5-1.3.3.3.4 1.2.1 1.9zm37.3 0c0 1.6-.3 1.9-1.1 1.1-.6-.6-.8-1.6-.5-2.2 1.1-1.7 1.6-1.3 1.6 1.1zm-104 4.7c0 3.3-.4 6.3-1 6.6-.6.4-1-1.8-1-5.9 0-3.7.4-6.6 1-6.6s1 2.6 1 5.9zm-4.9-3.6c-.6.7-.9 2.8-.6 4.5.2 1.8 0 3.2-.5 3.2-1.2 0-1.7-6.9-.6-8 1.5-1.5 3-1.2 1.7.3zm104.9 7.8c0 6-.3 8.8-1 8.4-.6-.4-1-1.4-.9-2.3.2-1-.1-2.7-.5-4-.5-1.4-.3-2.8.4-3.7.7-.9.9-2.6.5-4.5s-.3-3 .4-3 1.1 3.2 1.1 9.1zm44.4-6.6c.3.8.1 1.5-.4 1.5-.6 0-1-.7-1-1.5s.2-1.5.4-1.5.6.7 1 1.5zm-14.7 4.2c.7 3.5.8 5 0 5.5-.6.4-1.4.5-1.8.2-1-.6-1-10.4 0-10.4.3 0 1.1 2.1 1.8 4.7zm-139.1 2.1c-.2 2.6-.4 5-.5 5.4-.1.5-.6.8-1.1.8-.6 0-.9-1.6-.6-3.8.3-2 .5-4.7.5-6 .1-1.3.5-2 1.1-1.7.6.3.8 2.7.6 5.3zm150.4-3.9c0 1-.6 2.3-1.3 2.9-1 .9-1.3.5-1.1-1.6.2-3.3.2-3.2 1.4-3.2.6 0 1 .8 1 1.9zm-155 3.8c0 4.8-1.5 5-2.2.3-.2-1.7-.8-2.4-2-2.2-1 .2-1.8-.2-1.8-.7 0-.5 1.2-1.2 2.8-1.4 1.5-.2 2.8-.5 3-.6.1 0 .2 2 .2 4.6zm18-2.2c0 1.4-.4 2.5-1 2.5-1.1 0-1.4-3.3-.3-4.3 1.1-1.1 1.3-.8 1.3 1.8zm33 3c0 3-.3 5.5-.7 5.5-.5 0-.6-2.5-.5-5.5.5-7.1 1.2-7.1 1.2 0zm10-.5c0 2.2-.4 4-1 4-.5 0-1-1.8-1-4s.5-4 1-4c.6 0 1 1.8 1 4zm-70.2 5c-.1 3.8-.5 7-.9 7-.5 0-.9-2.3-.9-5 0-5.4-1.9-7-2.1-1.8-.2 5.2-.3 5.8-1.4 5.5-.5-.1-.9-.9-.8-1.7.1-.8.3-2.9.5-4.5.2-2.4 2.4-5 5.5-6.4 0-.1.1 3 .1 6.9zm63.9-2.3c-.3 1-.5.2-.5-1.7s.2-2.7.5-1.8c.2 1 .2 2.6 0 3.5zm35.4 3.5c.1 8.7 0 9.5-1.1 7.8-.5-.8-.9-4.9-.9-9 .1-8.6 1.9-7.5 2 1.2zm-95.1-1.5c0 2.1-.5 4.5-1 5.3-.7 1.1-1 0-1-3.8 0-2.8.5-5.2 1-5.2.6 0 1 1.7 1 3.7zm13.2-.5c-.9.9-1.2.7-1.2-1.2s.3-2.1 1.2-1.2c.9.9.9 1.5 0 2.4zm73.3-2.2c.3.5.1 1-.4 1-.6 0-1.1-.5-1.1-1 0-.6.2-1 .4-1 .3 0 .8.4 1.1 1zm-99.2 3.8c-.5 3.3-.7 3.4-4.2 2.7-5.7-1.1-5.8-1.7-.6-4.1 2.7-1.3 5-2.2 5.1-2.1.1.1-.1 1.7-.3 3.5zm64.7.7c0 1.9-.4 3.5-1 3.5-1.1 0-1.4-5.3-.3-6.3 1.1-1.2 1.3-.8 1.3 2.8zm34.9 5.5c.1 3.3-.2 6-.6 6-.4 0-.9-2.9-1-6.5 0-3.6.2-6.3.6-6 .5.2.9 3.1 1 6.5zm-58.9-5c0 .5-.5 1-1.1 1-.5 0-.7-.5-.4-1 .3-.6.8-1 1.1-1 .2 0 .4.4.4 1zm46.4 4.2c.2 2.4-.1 5.2-.5 6.3-.5 1.3-.8-.5-.8-4.9-.1-7.5.9-8.5 1.3-1.4zm4.6-.7c0 1.9-.4 3.5-1 3.5-.5 0-1-1.6-1-3.5s.5-3.5 1-3.5c.6 0 1 1.6 1 3.5zm-32.4 1.2c-1.1 1.1-1.9-.6-1.1-2.4.8-1.7.8-1.7 1.2 0 .3 1 .2 2.1-.1 2.4zm36.4-.2c0 1.9-.2 3.5-.4 3.5s-.6-1.6-.8-3.5c-.2-1.9 0-3.5.4-3.5s.8 1.6.8 3.5zm-40 1.5c0 1.1-.4 2-1 2-.5 0-1-.9-1-2s.5-2 1-2c.6 0 1 .9 1 2zm-5 1.9c0 1.1-.4 2.3-1 2.6-.6.4-1-.5-1-1.9s.5-2.6 1-2.6c.6 0 1 .9 1 1.9zm32.3-.4c.4.8.2 1.7-.3 2-.6.4-1-.3-1-1.4 0-2.5.6-2.7 1.3-.6zm8.3 4.2c-1.1 1.1-1.9-.6-1.1-2.4.8-1.7.8-1.7 1.2 0 .3 1 .2 2.1-.1 2.4zM7.7 839.2c-.3.7-.5.2-.5-1.2s.2-1.9.5-1.3c.2.7.2 1.9 0 2.5zm204.4 2.1c-.8.8-1.1.4-1.1-1.4 0-3.3 1.4-4.7 1.8-1.9.2 1.2-.1 2.7-.7 3.3zm5.9-3.8c0 .8-.4 1.5-1 1.5-.5 0-1-.7-1-1.5s.5-1.5 1-1.5c.6 0 1 .7 1 1.5zm33.2 5.2c.5 6.7.3 8.2-.7 7.1-1.1-1.1-1.8-13.8-.8-13.8.6 0 1.3 3 1.5 6.7zm17.3-5.7c.3.5.1 1-.4 1-.6 0-1.1-.5-1.1-1 0-.6.2-1 .4-1 .3 0 .8.4 1.1 1zm16.5 1.1c0 .6-.4.7-1 .4-.5-.3-1-1.1-1-1.6 0-.6.5-.7 1-.4.6.3 1 1.1 1 1.6zm-3.7 2.1c.6 4.6-2.4 8.8-6.4 8.8-1.8 0-2.9-.5-2.9-1.4 0-.7-.3-2.8-.6-4.5-.4-1.9-.2-3.1.4-3.1.6 0 1.2 1.2 1.4 2.7.2 1.4.9 2.9 1.7 3.1 1 .3 1.2-.2.8-2.4l-.5-2.8 1.9 2.5 1.9 2.4v-4.3c0-5 1.6-5.6 2.3-1zm-35.3 0c0 1.9-.2 2-1 .8-1.3-1.9-1.3-3 0-3 .6 0 1 1 1 2.2zm-4.5-.3c.3.5.1 1.2-.5 1.6-.5.3-1-.1-1-.9 0-1.8.6-2.1 1.5-.7zm43.2 2.3c-.3.8-.6.5-.6-.6-.1-1.1.2-1.7.5-1.3.3.3.4 1.2.1 1.9zM22 843c0 1.1-.2 2-.4 2s-.6-.9-.9-2c-.3-1.1-.1-2 .4-2s.9.9.9 2zm181 1.7c0 .7-.4 1.3-1 1.3-.5 0-1-1.2-1-2.8 0-2.1.2-2.4 1-1.2.5.8 1 2.1 1 2.7zm5-2.2c0 .8-.4 1.5-1 1.5-.5 0-.7-.7-.4-1.5.4-.8.8-1.5 1-1.5.2 0 .4.7.4 1.5zm15-.5c0 .5-.5 1-1.1 1-.5 0-.7-.5-.4-1 .3-.6.8-1 1.1-1 .2 0 .4.4.4 1zm12.7 2.2c-.3.7-.5.2-.5-1.2s.2-1.9.5-1.3c.2.7.2 1.9 0 2.5zM269 843c0 1.1-.4 2-1 2-.5 0-1-.9-1-2s.5-2 1-2c.6 0 1 .9 1 2zm-71.3 3.7c-.3 1-.5.4-.5-1.2 0-1.7.2-2.4.5-1.8.2.7.2 2.1 0 3zm43-.5c-.3.8-.6.5-.6-.6-.1-1.1.2-1.7.5-1.3.3.3.4 1.2.1 1.9zm19.3-.1c0 .6-.4.7-1 .4-.5-.3-1-1.1-1-1.6 0-.6.5-.7 1-.4.6.3 1 1.1 1 1.6zm6 1c0 .5-.7.9-1.5.9-.9 0-1.5-.9-1.5-2.1 0-1.8.2-1.9 1.5-.9.8.7 1.5 1.6 1.5 2.1zm-38.3 2.1c-.3.7-.5.2-.5-1.2s.2-1.9.5-1.3c.2.7.2 1.9 0 2.5zm61.3 6c1.2 5.1 2.4 10.1 2.7 11 .3 1.3-.1 1.8-1.5 1.8-1.1 0-2.2-.9-2.5-1.9-.6-2.4-11.9-9.8-17.2-11.2-2.3-.7-7.6-.9-12.5-.6-8.3.6-8.4.5-5-1 4.2-1.8 16.1-2.4 21-1 1.9.6 5.9 2.8 8.8 5 3 2.1 5.6 3.6 5.9 3.4 1.1-1.2-1-4.4-4.8-7.2l-4-3 2.6-2.2c1.4-1.3 3-2.3 3.4-2.3.5 0 1.9 4.2 3.1 9.2zm-262-5.6c0 .8-.4 1.2-1 .9-.5-.3-1-1.3-1-2.1s.5-1.2 1-.9c.6.3 1 1.3 1 2.1zm229-1.6c0 .5-.2 1-.4 1-.3 0-.8-.5-1.1-1-.3-.6-.1-1 .4-1 .6 0 1.1.4 1.1 1zm-66.4 3.7c-1.1 1.1-1.9-.6-1.1-2.4.8-1.7.8-1.7 1.2 0 .3 1 .2 2.1-.1 2.4zm54.3-.7c.7 0 1.1.6.9 1.2-.4 1.2-5 3.1-18.8 8-3 1.1-5.6 2.4-5.8 2.9-.2.5-.9.9-1.5.9-.7 0-4.6 1.3-8.7 2.9-8.4 3.3-19.8 6.6-20.4 6-.2-.2-.5-3.1-.7-6.3-.3-4.1 0-6 .9-6.3.8-.3 1.2.6 1.2 2.7 0 2.9.2 3.2 2.5 2.6 1.4-.4 2.5-.2 2.5.4 0 2.1 2 .9 2.1-1.3 0-1.2.3-1.6.6-1 .9 2.3 3.3 1.4 3.3-1.3 0-1.4.4-2.3 1-1.9.6.3 1 1.5 1 2.6 0 1 .5 1.9 1 1.9.6 0 1-1.1 1-2.5s.5-2.5 1-2.5c.6 0 1 .9 1 2 0 2.2.1 2.3 2.3 1.4.9-.3 1.2-1.4.9-3.2-.5-2.6-.4-2.6 1.5-1 2.3 2.1 3.5 2.3 3.2.5-.1-.6-.1-2.1 0-3.2.2-1.8.3-1.8 1.2.3 1.4 3.7 3.4 2 3.7-3.1.3-5.1 2.2-6.6 2.2-1.8 0 1.6.7 3.4 1.6 4.1 1.3 1.1 1.6 1 2.1-.9s.7-1.9 1.7-.6c.9 1.3 1.5 1.3 3.8.3 1.6-.8 2.8-2.1 2.8-3.2 0-1.8.1-1.8 1.8-.3 2.1 1.9 3.2 1.3 3.2-1.7.1-2 .2-2 1.4-.4.7 1 1.9 1.8 2.5 1.8zm-95.9 0c0 .5-.5 1-1.1 1-.5 0-.7-.5-.4-1 .3-.6.8-1 1.1-1 .2 0 .4.4.4 1zm36.2 3.2c-.9.9-1.2.7-1.2-1.2s.3-2.1 1.2-1.2c.9.9.9 1.5 0 2.4zm-119 .3c.3 1.3.1 2.2-.3 1.9-.9-.5-1.3-4.4-.5-4.4.2 0 .6 1.1.8 2.5zm13.8 2c0 .8-.4 1.5-1 1.5-.5 0-.7-.7-.4-1.5.4-.8.8-1.5 1-1.5.2 0 .4.7.4 1.5zm-56.5.5c.3.5.1 1-.4 1-.6 0-1.1-.5-1.1-1 0-.6.2-1 .4-1 .3 0 .8.4 1.1 1zm181.5 1.1c0 .5-.4.9-1 .9-.5 0-1-.7-1-1.6 0-.8.5-1.2 1-.9.6.3 1 1 1 1.6zm-37.3 2.1c-.3.8-.6.5-.6-.6-.1-1.1.2-1.7.5-1.3.3.3.4 1.2.1 1.9zm-3.7.8c0 .5-.5 1-1.1 1-.5 0-.7-.5-.4-1 .3-.6.8-1 1.1-1 .2 0 .4.4.4 1zm17.7 6.2c-.3.8-.6.5-.6-.6-.1-1.1.2-1.7.5-1.3.3.3.4 1.2.1 1.9zm-36 2c-.3.8-.6.5-.6-.6-.1-1.1.2-1.7.5-1.3.3.3.4 1.2.1 1.9zm-118 6c-.3.8-.6.5-.6-.6-.1-1.1.2-1.7.5-1.3.3.3.4 1.2.1 1.9zm104.3-.8c0 .8-.4 1.8-1 2.1-.5.3-1-.3-1-1.4 0-1.2.5-2.1 1-2.1.6 0 1 .6 1 1.4zm-4 0c0 .3-.4.8-1 1.1-.5.3-1 .1-1-.4 0-.6.5-1.1 1-1.1.6 0 1 .2 1 .4z"/><path d="M341.9 362c-1.1.7-1 1 .4 1.6 1 .4 2.3.2 2.8-.3 1.4-1.4-1.3-2.4-3.2-1.3zM347 371c0 .5 1.2 1 2.6 1 1.4 0 2.3-.4 1.9-1-.3-.6-1.5-1-2.6-1-1 0-1.9.4-1.9 1zM289.1 361c-2.5.3-4.6 1-4.8 1.7-.3.9 1.6 1.2 7.1 1 4.1-.1 7.8-.5 8.2-1 .4-.4.5-.7.3-.7s-1.8-.3-3.4-.8c-1.7-.4-5-.5-7.4-.2zM305.6 363.9c-.7 1.1 2.2 2.3 3.5 1.5.5-.3.7-1 .4-1.5-.8-1.2-3.2-1.2-3.9 0zM285.5 371c.3.5 2.4 1 4.6 1 2.1 0 3.9-.5 3.9-1 0-.6-2.1-1-4.6-1-2.7 0-4.3.4-3.9 1zM231 355c-3.1 1.9.5 3 10.1 3 8.9 0 11.7-.8 9-2.5-1.6-.9-17.7-1.4-19.1-.5zM235 364.6c0 1.4 7.9 2.4 8.7 1.1.9-1.4-.5-2-4.7-2.1-2.4-.1-4 .4-4 1zM207.3 374c-3.8 1.5-2.6 2.5 3 2.3 6.7-.2 6.5-.1 4.3-1.8s-4.1-1.8-7.3-.5zM232 375c0 .5.7 1 1.5 1s1.5-.5 1.5-1c0-.6-.7-1-1.5-1s-1.5.4-1.5 1zM127.7 375.7c-1.4 1.3-.6 2.1 1.8 1.9 3.2-.1 4.3-2.6 1.1-2.6-1.2 0-2.6.3-2.9.7zM133 378.1c0 .5.5.7 1 .4.6-.3 1-.8 1-1.1 0-.2-.4-.4-1-.4-.5 0-1 .5-1 1.1zM141.5 381c-.3.5-.1 1 .4 1 .6 0 1.1-.5 1.1-1 0-.6-.2-1-.4-1-.3 0-.8.4-1.1 1zM146.3 382.7c-2 .8-1.5 2.2.7 2 1.1-.1 2-.7 2-1.4 0-1.4-.6-1.5-2.7-.6zM113.2 386.2c-1.8 12.6-1 18 1.9 12.6 1.6-2.9 2-12.1.5-13-1.6-1.1-2.2-1-2.4.4zM146.6 389.5c.4.8 1.1 1.5 1.6 1.5.6 0 .5-.6-.2-1.5-.7-.8-1.4-1.5-1.6-1.5-.2 0-.1.7.2 1.5zM128.7 389.7c-.4.3-.7 1.1-.7 1.7 0 .6.5.5 1.2-.2.6-.6.9-1.4.7-1.7-.3-.3-.9-.2-1.2.2zM137.5 390c-.3.5-.1 1 .4 1 .6 0 1.1-.5 1.1-1 0-.6-.2-1-.4-1-.3 0-.8.4-1.1 1zM120.5 391c-.3.5.1 1 1 1s1.3-.5 1-1c-.3-.6-.8-1-1-1-.2 0-.7.4-1 1zM134.2 392.6c-1.3 1.4-.8 5.4.5 4 .5-.5 1.5-5.7 1-5.6-.1.1-.8.8-1.5 1.6zM145 394.6c0 1.2-.6 1.5-2.5 1-1.4-.4-2.5-.2-2.5.4 0 .5.7 1 1.5 1s1.5.9 1.5 1.9c0 2.6 1.8 3.7 2.6 1.6.5-1.2.9-1.3 2-.4s1.4.8 1.4-.4c0-.8-.6-1.7-1.4-2-.9-.4-1.2-1.4-.9-2.6.3-1.2.1-2.1-.6-2.1-.6 0-1.1.7-1.1 1.6zM120.2 397c-.7 1.2-.8 2-.2 2 .5 0 1 1 1 2.2 0 1.7.3 1.9 1.2 1 .6-.6 1.3-1.7 1.4-2.4.1-.7.3-1.9.5-2.7.6-2.3-2.5-2.4-3.9-.1zM136 399c0 .5.5 1 1.1 1 .5 0 .7-.5.4-1-.3-.6-.8-1-1.1-1-.2 0-.4.4-.4 1zM153.2 399.1c-1.9.7-2.1 1.3-1.6 3.6.8 3.5 1 3.7 2.4 2.8.6-.4.9-1.4.5-2.3-.3-.8 0-1.9.6-2.3 2-1.2.5-2.7-1.9-1.8zM156.7 404c-.3 1.1-.1 2.3.4 2.6.5.3.9.1.9-.5 0-.5.3-1.6.6-2.5.3-.9.2-1.6-.4-1.6-.5 0-1.2.9-1.5 2zM197 404.5c0 1.2-.4 2.5-.9 3-.5.6-1.2 2-1.6 3.2-.5 1.7-.2 2.3.9 2.3.9 0 1.6-.9 1.6-2.1 0-1.1.4-2.8.9-3.8.6-1 .6-2.3 0-3.2-.7-1.1-.9-1-.9.6zM160.9 404.2c-.5 1.7-.4 4.8.3 4.8.4 0 .8-1.1.8-2.5 0-2-.7-3.4-1.1-2.3zM150 408.5c.7.8 1.7 1.5 2.2 1.5.6 0 .5-.7-.2-1.5s-1.7-1.5-2.2-1.5c-.6 0-.5.7.2 1.5zM167 408.5c0 .8.2 1.5.4 1.5s.6-.7 1-1.5c.3-.8.1-1.5-.4-1.5-.6 0-1 .7-1 1.5zM157 409c0 .5.5 1 1 1 .6 0 1-.5 1-1 0-.6-.4-1-1-1-.5 0-1 .4-1 1zM162 410.2c-.7.7-2.7 3.5-4.5 6.3-3.1 4.5-3.2 5.1-1.8 6.2 2.2 1.7 3 1.6 3.7-.3.4-1.2.1-1.4-1.4-.9-1.1.4-2 .2-2-.3 0-1.5 3.1-2.5 7-2.3 2.7.1 3.1-.1 2-.8-.8-.6-2.3-1.1-3.2-1.1-1.2 0-1.5-.5-1.1-1.7.4-1.1.8-1.2 1.1-.5.7 2.3 1.8 1.2 2-2.3.3-3.8-.1-4.2-1.8-2.3zM133.7 410.7c-.4.3-.7 1.1-.7 1.7 0 .6.5.5 1.2-.2.6-.6.9-1.4.7-1.7-.3-.3-.9-.2-1.2.2zM129 413.1c0 1.1.5 1.7 1 1.4.6-.3 1-1.3 1-2.1s-.4-1.4-1-1.4c-.5 0-1 .9-1 2.1zM153.5 413.3c-.8 1.2-1.5 2.7-1.5 3.4 0 .7-.4 1.3-1 1.3-.5 0-1 1.1-1 2.5 0 3.8 2.7 3 4.1-1.3.6-2 1.8-4.1 2.5-4.5 1.8-1 1.8-2.3-.1-3.1-.8-.3-2.1.4-3 1.7zM188.1 412.6c0 1.1.3 1.4.6.6.3-.7.2-1.6-.1-1.9-.3-.4-.6.2-.5 1.3zM169.5 415.1c-1.1 1.7-.2 1.8 1.9.3 1.7-1.2 1.7-1.4.4-1.4-.9 0-2 .5-2.3 1.1zM141.7 418.7c-1.1 1-.8 2 .8 2.7 1 .4 1.5-.1 1.5-1.4 0-2-1.1-2.6-2.3-1.3zM178 420c0 .5.5 1 1 1 .6 0 1-.5 1-1 0-.6-.4-1-1-1-.5 0-1 .4-1 1zM97 423.4c0 .8.5 1.8 1 2.1.6.3 1-.3 1-1.4 0-1.2-.4-2.1-1-2.1-.5 0-1 .6-1 1.4zM152.3 424.7c-.7.3-1.3 1.2-1.3 2.1 0 1.5.2 1.5 1.7-.1 1.8-1.8 1.6-2.7-.4-2zM181 427c0 .5.5 1 1 1 .6 0 1-.5 1-1 0-.6-.4-1-1-1-.5 0-1 .4-1 1zM155.5 428c.3.5.8 1 1.1 1 .2 0 .4-.5.4-1 0-.6-.5-1-1.1-1-.5 0-.7.4-.4 1zM144 429c-.8 2.1-.9 7-.2 7 1.5 0 2-2.2 1.1-5-.4-1.4-.8-2.3-.9-2zM95.4 434.1c-.2.4.5.9 1.5 1.2 1.1.3 2.2-.1 2.5-.8.5-1.4-3.1-1.7-4-.4zM148.6 434.6c-.4 1-.1 1.4.6 1.2 1.5-.5 2.3-2.8 1-2.8-.5 0-1.3.7-1.6 1.6zM135.3 437.5c-.7 1.6-.8 2.7-.1 3.1 1.4.9 2-.1 1.6-3l-.3-2.6-1.2 2.5zM111.5 441c.3.5 1 1 1.6 1 .5 0 .9-.5.9-1 0-.6-.7-1-1.6-1-.8 0-1.2.4-.9 1zM132 442.1c0 .5.5.7 1 .4.6-.3 1-.8 1-1.1 0-.2-.4-.4-1-.4-.5 0-1 .5-1 1.1zM136.4 444.9c-1.2 1.1-2.5 1.7-2.8 1.4-.3-.4-.6.1-.6 1s.7 1.7 1.5 1.7 1.5-.7 1.5-1.6c0-.8.5-1.2 1-.9.6.4.7 1.2.4 1.8-.5.9-.4.9.5.1.7-.7 1.1-2.2.9-3.4l-.3-2.1-2.1 2zM135 458.3c0 .8-1 1.9-2.2 2.4-2.3 1.1-2.3 1.1.5 2.2 3.6 1.4 4.6.8 4.3-2.6-.3-2.8-2.6-4.6-2.6-2zM127.5 463.5c.4 1.1.7 2.8.7 3.7-.1 2.1 1.4 2.4 2.1.5.2-.7-.5-2.4-1.6-3.7-1.6-2-1.9-2.1-1.2-.5zM132 465.1c0 .9.3 1.9.8 2.3.4.4.7 1.3.7 1.9 0 1.6 3.7 1.5 4.2 0 .3-.7-.4-1.6-1.4-2-1-.4-2.3-1.4-3-2.2-1.1-1.5-1.2-1.4-1.3 0zM140.7 465.6c-.4.4-.7 1.7-.7 2.8.1 1.9.1 2 1.1.3 1.1-1.9.8-4.3-.4-3.1zM130.5 473c-.3.5-.1 1 .4 1 .6 0 1.1-.5 1.1-1 0-.6-.2-1-.4-1-.3 0-.8.4-1.1 1zM134.2 475.1c-.7 1.1-1.1 2.4-.8 2.7 1 .9 2.8-1.5 2.4-3.2-.2-1.4-.5-1.3-1.6.5zM125.4 487.9c0 1.1.4 1.7.8 1.5.4-.3.8-1.2.8-2s-.4-1.4-.8-1.4-.8.9-.8 1.9zM120 492.5c-1.3 1.6-1.3 1.6 3 1.9.8.1 1.4.9 1.4 1.9-.1.9.2 1.7.7 1.7h1.6c1.8.1 1.1-5-.8-6-1.4-.8-1.9-.7-1.9.1 0 .9-.3.9-1.4 0-1-.9-1.6-.8-2.6.4zM106 500c0 .5.5 1 1.1 1 .5 0 .7-.5.4-1-.3-.6-.8-1-1.1-1-.2 0-.4.4-.4 1zM120.4 507.4c-2.9 2.2-1.3 2.6 2.1.5 1.7-1.1 2.3-1.9 1.4-1.9-.8 0-2.4.6-3.5 1.4zM123 509.4c0 .2.7.7 1.6 1 .8.3 1.2.2.9-.4-.6-1-2.5-1.4-2.5-.6zM180 385c0 .7 2.4 2 3.6 2 1.3 0 .1-1.9-1.6-2.3-1.1-.3-2-.2-2 .3zM396.7 593.7c-.4.3-.7 1.1-.7 1.7 0 .6.5.5 1.2-.2.6-.6.9-1.4.7-1.7-.3-.3-.9-.2-1.2.2zM274 490.5c0 1.6 1.6 2 2.4.6.3-.5-.1-1.1-.9-1.5-.9-.3-1.5 0-1.5.9zM274 494.4c0 .8.5 1.8 1 2.1.6.3 1-.1 1-.9s-.4-1.8-1-2.1c-.5-.3-1 .1-1 .9zM274 548c0 .6.7 1 1.5 1s1.5-.2 1.5-.4-.7-.6-1.5-1c-.8-.3-1.5-.1-1.5.4zM274.5 555.1c-.4.6-.5 1.3-.2 1.6.7.7 2.7-.6 2.7-1.8 0-1.2-1.7-1.2-2.5.2zM161.6 452.7c-.3 1-.8 2.2-1.1 2.8-.3.5.6 1.1 2 1.1 2 .2 2.4-.2 2.1-2-.3-1.1-.5-2.4-.5-2.9-.2-1.4-1.9-.7-2.5 1zM81.1 549.6c0 1.1.3 1.4.6.6.3-.7.2-1.6-.1-1.9-.3-.4-.6.2-.5 1.3zM93.7 553.6c-.3.3-.3 1.2 0 2 .7 1.9 8.3 1.9 8.3 0 0-2.1-6.5-3.7-8.3-2zM110.1 554.9c-1 .7-1 1-.1 1.6.6.4 1.6.3 2.2-.3 1.3-1.3-.4-2.3-2.1-1.3zM105 575.6c0 .8.5 1.2 1 .9.6-.4.8-1.1.5-1.6-.9-1.4-1.5-1.1-1.5.7zM105.1 601.6c0 1.1.3 1.4.6.6.3-.7.2-1.6-.1-1.9-.3-.4-.6.2-.5 1.3zM325.5 547.2c-2.7 2.6-5.2 4.5-5.6 4.2-.4-.2-1 .7-1.3 2-.6 2.6-4.6 4.3-4.6 2 0-.8.8-1.4 1.7-1.4.9 0 1.3-.3 1-.6-1-1 1.2-4.4 2.8-4.4.8 0 1.5-.7 1.5-1.5s-.4-1.5-1-1.5c-.5 0-1 .4-1 .8s-1.8 2.8-4 5.2c-3.8 4.2-4.9 7.8-2.2 7.2 1.6-.3 1.5.2-.7 4.6-1 2-2.4 6-3 8.9-.7 2.8-1.9 5.4-2.6 5.7-.7.2-1.5 1.5-1.7 2.8-.2 1.5-1 2.3-2.5 2.4-1.1.1-4.3 2-7 4.3-2.7 2.2-5.7 4.1-6.7 4.1-1.3 0-1.7.5-1.3 2 .3 1.3 0 2-.9 2-.8 0-1.4.4-1.4 1 0 .5-.7 1-1.5 1s-1.2.6-.9 1.4c.3.7-.2 2.1-1.1 3-1.3 1.2-2.1 1.4-3.7.5-3-1.6-3.2-.4-.3 2.7 2.7 2.9 1.8 4.7-1.1 2.3-1.3-1-1.7-1-2.4.1-1.1 1.8-1 8.1.1 7.4.5-.3.9-1.4.9-2.5 0-2.4.9-2.4 2.6-.2 1.2 1.7 1.4 1.6 3.8-.6l2.6-2.4.1 2.9c.1 1.6.2 3.7.3 4.6.1 1 .6 1.7 1.1 1.7.6 0 .9-.7.7-1.5-.2-.9.1-2.1.6-2.7 1.8-2.3 2.1-7.1.5-8.3-1.4-1-1.3-1.7 1.2-6.3 1.8-3.3 3.7-5.4 5.2-5.7 1.3-.4 2.3-1.1 2.3-1.6 0-.6.7-.8 1.4-.5.9.4 1.3.1 1-.7-.3-.7.5-2.1 1.6-3.1 2-1.9 2.1-1.8 2.6.2.4 1.3 1.7 2.3 3.5 2.7 2.7.5 4.3 3.6 1.9 3.6-1.3 0-1.3 2.7 0 3.5.5.3 2.2-.1 3.7-1 1.6-.9 2-1.4 1.1-1.1-2 .6-2.5-.9-.5-1.7.6-.2 1.8-2.2 2.6-4.3.7-2.2 1.9-4.6 2.6-5.4 1.4-1.7 3-6 3.4-9.1 0-.5.5-.7 1.1-.4.6.3.9-.4.8-1.7-.1-2.2 3.5-12 5.5-14.5 1.3-1.8-.2-3.5-2.8-3.1-3.2.7-2.2-1 3.1-5.2 5.2-4.1 6.6-4.7 5.8-2.6-1.1 2.7.5 1.7 2.1-1.4 2.3-4.4 1.9-5.1-2.2-4.8-2.9.2-5 1.4-8.8 5zM319 565c0 1.1-.4 2-.9 2s-.7-.9-.4-2c.3-1.1.7-2 .9-2 .2 0 .4.9.4 2zm-2 5.8c0 .5-.3 1.2-.7 1.6-.4.4-.9 1.9-1.1 3.4-.2 1.5-.7 3.1-1.3 3.6-.5.6-.9 2-.9 3.3 0 1.5-.4 2.1-1.5 1.7-1.2-.5-1.2-.9 0-2.7.7-1.2 1.9-4.3 2.6-7 .6-2.6 1.5-4.7 2-4.7s.9.4.9.8zM339.6 549.5c-.3.8-.1 1.5.4 1.5.6 0 1-.7 1-1.5s-.2-1.5-.4-1.5-.6.7-1 1.5z"/><path d="M329.7 558.7c-.4.3-.7 1.1-.7 1.7 0 .6.5.5 1.2-.2.6-.6.9-1.4.7-1.7-.3-.3-.9-.2-1.2.2zM309.5 561c-.4.6-1.1.8-1.6.5-.5-.4-.9.8-.9 2.4 0 1.7.5 3.1 1 3.1.6 0 1-.6 1-1.4 0-.7.7-1.9 1.5-2.6.8-.7 1.5-1.6 1.5-2.1 0-1.2-1.7-1.1-2.5.1zM330 564.5c-.6.8-1 1.9-.8 2.6.2.6.9 0 1.6-1.5 1.3-2.9 1-3.3-.8-1.1zM298.5 579c-.3.5-.1 1 .4 1 .6 0 1.1-.5 1.1-1 0-.6-.2-1-.4-1-.3 0-.8.4-1.1 1zM285.1 583.6c0 1.1.3 1.4.6.6.3-.7.2-1.6-.1-1.9-.3-.4-.6.2-.5 1.3zM323.8 582.7c.7.3 1.6.2 1.9-.1.4-.3-.2-.6-1.3-.5-1.1 0-1.4.3-.6.6zM288.6 584.9c-.3.5 0 1.1.8 1.4.8.3 1.7-.1 2-.9.6-1.5-1.9-2-2.8-.5zM336.6 585.4c.3.9 1.1 1.6 1.6 1.6 1.3 0 .5-2.3-1-2.8-.7-.2-1 .2-.6 1.2zM281.4 587.1c-.3.6-1.5.9-2.5.6-2.4-.7-2.5 1.8-.1 3.2 1.6.9 1.6 1.1-.2 2.4-1.4 1-1.6 1.6-.7 2.2 1.8 1.1 3.8-1.4 4.5-5.8.7-3.7.3-4.7-1-2.6z"/><path d="M275 593.1c0 .5.5.7 1 .4.6-.3 1-.8 1-1.1 0-.2-.4-.4-1-.4-.5 0-1 .5-1 1.1zM320 593.6c0 1-.6 1.4-1.4 1.1-1.7-.7-3.4 2.6-3.8 7.4-.3 3.2-.1 3.6 1.9 3.6 1.4 0 2.3-.6 2.3-1.4 0-.9-.6-1.3-1.4-1-1.1.4-1.3.1-1-1.1.3-.9.8-2.3 1-3.1.3-1.1.7-1.1 1.9-.1 1.3 1 1.5.8 1.5-1.3 0-1.4.3-3.2.6-4.1.3-.9.1-1.6-.5-1.6s-1.1.7-1.1 1.6zM304.5 595c-.3.5-.1 1 .4 1 .6 0 1.1-.5 1.1-1 0-.6-.2-1-.4-1-.3 0-.8.4-1.1 1zM276.4 599c0 1.3.4 1.6 1 1 .7-.7.7-1.3 0-2-.6-.6-1-.3-1 1zM300.8 600c-.3 1.7-.1 3.3.4 3.6 1.3.8 1 11.2-.4 11.7-1 .4-1 .7 0 1.5.7.5 1 1.6.6 2.7-.5 1.2-.3 1.6.6 1.3.7-.2 1.4-1.7 1.6-3.2.5-4.5 2.4-5.7 2.4-1.6 0 5.3 2.4 2 2.6-3.6.1-2.5.5-5.2.8-6 .3-.8.1-1.4-.5-1.4s-1.6 1.3-2.2 3c-1.5 4-3 3.8-2.2-.3 1.1-5.4 1.6-6.7 2.6-6.7.5 0 .9-.5.9-1 0-.6-.7-1-1.5-1s-1.5.7-1.5 1.5-.5 1.5-1.1 1.5c-.5 0-.9-1-.7-2.2.2-1.1-.2-2.3-.8-2.5-.7-.2-1.4 1-1.6 2.7zM292 599c0 .5.5 1 1 1 .6 0 1-.5 1-1 0-.6-.4-1-1-1-.5 0-1 .4-1 1zM291.8 604.6c-.3 1.6-.9 3.7-1.3 4.6-.5 1.3-.3 1.8.9 1.8.9 0 1.6.6 1.5 1.2-.1.7-.1 2.1 0 3.2.1 1.6.3 1.7 1.8.5 1-.8 1.4-.9 1-.2-.4.6-.3 1.4.2 1.7 1.3.8 2.2-2.2 1.5-5-.4-1.5-.2-2.4.6-2.4 1.4 0 .4-3.6-1.8-6.5-1.1-1.6-1.3-1.6-.9-.3.8 2.3-.2 2.3-1.8.1-1.1-1.4-1.3-1.3-1.7 1.3zM314.6 609.5c-.3.8-.1 1.5.4 1.5.6 0 1-.7 1-1.5s-.2-1.5-.4-1.5-.6.7-1 1.5zM279.2 615.9c-1.1.7-1 1 .3 1.5 2.3.9 2.5.8 2.5-.9 0-1.7-.9-1.9-2.8-.6zM279.1 620.7c-1.6 1.7-1.1 2.5.8 1.4.7-.5 1.2-1.3 1-1.9-.2-.6-1-.4-1.8.5zM283.1 621.6c0 1.1.3 1.4.6.6.3-.7.2-1.6-.1-1.9-.3-.4-.6.2-.5 1.3zM307.5 621.4c-.3.9-.7 2.3-1 3.1-.2.8-.8 1.4-1.2 1.3-.4-.2-.9.1-1 .7-.1.5.5.9 1.3.7 1.7-.4 1.9 1.5.2 2.1-.7.2-1 .8-.5 1.2 1.2 1.3 2.9-1 3.3-4.5.2-1.7.6-3.5.9-4 .3-.5.1-1.1-.5-1.5-.6-.3-1.2.1-1.5.9zM288.4 624.7c-.4 1.6-1.1 3.3-1.6 4-1.1 1.4 0 3.9 1.2 2.6 1-1 2.4-9.3 1.6-9.3-.3 0-.9 1.2-1.2 2.7zM280.7 625.7c-1.1 1-.8 4.1.4 4.9 1.3.8 2.4-.3 3.4-3.4.5-1.7.2-2.2-1.3-2.2-1 0-2.2.3-2.5.7zM293.7 629.5c-.4.8-.2 1.7.3 2 .6.4 1-.3 1-1.4 0-2.5-.6-2.7-1.3-.6zM296.7 631c-.3 1.1-.2 2 .3 2 1.2 0 2.1-2.8 1.1-3.5-.5-.2-1.1.4-1.4 1.5zM282.7 634.4c-.4 1 0 1.2 1.5.8 1.7-.4 2-.2 1.5 1.1-.4 1-.2 1.7.3 1.7 1.4 0 2.1-1.7 1.4-3.4-.8-2-4-2.1-4.7-.2zM289.6 637.1c-1 1.7-1.6 3.2-1.3 3.5.9.9 3.6-.9 4.3-2.8 1.1-3.5-1.1-4-3-.7zM295.6 639.9c-.4.5-.3 1.6 0 2.4.3.9-.3 2.4-1.3 3.5-3.9 4.1-2 5.8 2.3 1.9 2-1.9 2.3-2.9 1.8-5.5-.6-3.2-1.8-4.1-2.8-2.3zM268.3 643.2c.3.9-.2 2.7-1.1 4-2.1 2.7-2.8 8.3-1.3 9.3.6.3 1.1-.2 1.1-1.2s.7-2.9 1.6-4.1c.8-1.2 1.2-2.7.8-3.3-.3-.6-.2-1.4.4-1.8.7-.4.5-1.3-.5-2.6-1.2-1.5-1.4-1.6-1-.3zM283.5 650c-1 1.1-1.5 2.3-1.2 2.7 1.2 1.1 5.6-1.8 5-3.3-.7-1.9-1.7-1.8-3.8.6zM261.6 651.5c.4.8 1 1.2 1.5.9 1.1-.6.2-2.4-1.1-2.4-.5 0-.7.7-.4 1.5zM297.1 652.6c0 1.1.3 1.4.6.6.3-.7.2-1.6-.1-1.9-.3-.4-.6.2-.5 1.3zM273.3 653.5c-.8 2.2.6 3.3 1.7 1.5 1.3-2 1.2-3 0-3-.6 0-1.3.7-1.7 1.5zM278 655.4c0 .9.5 1.6 1 1.6.6 0 1-.4 1-.9 0-.6-.4-1.3-1-1.6-.5-.3-1 .1-1 .9zM262 656.9c0 .6.5 1.3 1 1.6.6.3 1-.1 1-.9 0-.9-.4-1.6-1-1.6-.5 0-1 .4-1 .9zM283.7 656.7c-1 .9-.9 2.3.2 2.3.5 0 1.1-.7 1.5-1.5.5-1.5-.5-2-1.7-.8zM273 658.6c0 .8.5 1.2 1 .9.6-.4.8-1.1.5-1.6-.9-1.4-1.5-1.1-1.5.7zM264 661c0 .8.5 2.2 1 3 .7 1.2 1.2 1.2 2.2.2.9-.9.9-1.5 0-2.4-.7-.7-1.2-.8-1.2-.3 0 .6-.5.3-1-.5-.9-1.3-1-1.3-1 0zM275.2 662.3c-2.1 2.2-2 3.7 0 3.7.9 0 3.1-5 2.5-5.6-.2-.2-1.3.7-2.5 1.9zM279.5 663c-.3.5-.1 1 .4 1 .6 0 1.1-.5 1.1-1 0-.6-.2-1-.4-1-.3 0-.8.4-1.1 1zM286.5 665c-.3.5.1 1 .9 1 .9 0 1.6-.5 1.6-1 0-.6-.4-1-.9-1-.6 0-1.3.4-1.6 1zM269.7 666.5c-.4.8-.2 1.7.3 2 .6.4 1-.3 1-1.4 0-2.5-.6-2.7-1.3-.6zM265.5 670c-.4 1.7-.5 3.4-.2 3.6.2.3.7-1 1.1-2.7.8-4.2 0-5-.9-.9zM279 670.6c-.6 1.4-.8 3-.4 3.5.3.5-.2.9-1.1.9-1.1 0-1.5.5-1.2 1.4.3.8.1 1.6-.5 1.8-.6.2-.8.9-.4 1.6.9 1.4 3.6.4 3.6-1.4 0-.7.6-1.1 1.3-.8.7.2 1.9-.7 2.7-2.1 1.4-2.5 1.4-2.6 2.2-.6.4 1.2.5 2.9.2 3.9-.5 1.4-.3 1.4 1-.2 2.1-2.6 2.2-7.5.2-6.8-1.5.5-5.6-2-5-3 .3-.4 0-.8-.6-.8s-1.5 1.2-2 2.6zm3 3.4c0 .5-.4 1-1 1-.5 0-1-.5-1-1 0-.6.5-1 1-1 .6 0 1 .4 1 1zM270 671c0 .5.7 1 1.5 1s1.5-.5 1.5-1c0-.6-.7-1-1.5-1s-1.5.4-1.5 1zM295 676.1c0 1.6.4 2.8.9 2.5.8-.5.3-5.6-.5-5.6-.2 0-.4 1.4-.4 3.1zM274 682.4c0 .9.5 1.6 1 1.6.6 0 1-.4 1-.9 0-.6-.4-1.3-1-1.6-.5-.3-1 .1-1 .9zM278.9 681.7c-.1.4 0 1.8.1 3.1.1 1.2-.2 2.2-.7 2.1-1.9-.3-3.3.2-3.3 1.2 0 .6.9.9 2 .6 1.6-.4 2-.1 1.8 1.3-.2 1.1.2 1.9.7 2 .6 0 1-.3 1-.8 0-.4.4-1.3.9-2 .4-.7.3-1.9-.3-2.6-.6-.7-.9-2-.5-2.9.3-.8.1-1.8-.5-2.2-.6-.3-1.1-.3-1.2.2zM352.9 692.8c-.8.9-2.1 3-2.9 4.5-2.8 5.6-14.6 19.3-19.4 22.5-2.7 1.8-6.6 3.5-8.7 3.8-2.2.4-3.9 1.2-3.9 2 0 2.2 1.8 2.6 5.8 1.2 7.4-2.6 18.2-12 25.3-22.2 7.8-11.1 7.9-11.4 6.5-12.5-1-.8-1.7-.6-2.7.7zM279 695.9c0 .5.5 1.3 1 1.6.6.3 1 .2 1-.4 0-.5-.4-1.3-1-1.6-.5-.3-1-.2-1 .4zM276 701.2c0 1.6.5 2.8 1 2.8 1.3 0 1.3-2 0-4-.8-1.2-1-.9-1 1.2zM319 702.2c0 1.9.2 2 1 .8 1.3-1.9 1.3-3 0-3-.5 0-1 1-1 2.2zM289 712.4c0 .9.5 1.6 1 1.6.6 0 1-.4 1-.9 0-.6-.4-1.3-1-1.6-.5-.3-1 .1-1 .9zM278.7 719.6c-.4.4-.7 1.4-.7 2.3 0 1.1.3 1.2 1.1.4.6-.6 1-1.6.7-2.3-.2-.6-.7-.8-1.1-.4zM281 723c0 .5.5 1 1 1 .6 0 1-.5 1-1 0-.6-.4-1-1-1-.5 0-1 .4-1 1zM297.7 730.7c-1 1-.8 4.5.2 3.9 1.1-.7 2.1-4.6 1.2-4.6-.4 0-1.1.3-1.4.7zM301.5 734.9c-.3.5-.1 1.2.5 1.6.5.3 1-.1 1-.9 0-1.8-.6-2.1-1.5-.7zM284.7 740.2c.3 1.3 1 2.8 1.5 3.5.5.7.7 1.6.4 2.1-.3.5 1 2.5 2.9 4.5 3.7 4 5.1 4.7 4.1 2.1-.3-.8.1-2.9 1-4.6 1.7-3.3 1.4-4.4-1.1-3.5-1.7.7-2.1 2.7-.4 2.7.5 0 .7.4.4 1-.3.5-1.5 1-2.6 1-1.6 0-1.9-.5-1.4-2 .3-1.1.2-2-.4-2-.5 0-1.5-1.6-2.1-3.5-1.3-3.8-3.1-4.9-2.3-1.3zM237 663.9c0 .6.5 1.3 1 1.6.6.3 1-.1 1-.9 0-.9-.4-1.6-1-1.6-.5 0-1 .4-1 .9zM223 673.8c0 .5.7.9 1.5.9s1.5-.4 1.5-.9c0-.4-.7-.8-1.5-.8s-1.5.4-1.5.8zM215.5 676c.3.5.8 1 1.1 1 .2 0 .4-.5.4-1 0-.6-.5-1-1.1-1-.5 0-.7.4-.4 1zM218.6 680.6c-.9 2.4-.7 2.8.9 1.4 1.7-1.4 2-3 .6-3-.5 0-1.2.7-1.5 1.6zM226.8 680.7c.7.3 1.6.2 1.9-.1.4-.3-.2-.6-1.3-.5-1.1 0-1.4.3-.6.6zM214.6 684.7c-.6 1.4-.5 1.5.5.6.7-.7 1-1.5.7-1.8-.3-.3-.9.2-1.2 1.2zM226.4 686.4c-.3.8-.1 2.3.5 3.3.8 1.5 1 1.3.9-1.5-.1-3.5-.5-4-1.4-1.8zM237.6 687.5c.9 1.4 1.8 2.5 2 2.5.2 0-.2-1.1-.8-2.5-.6-1.4-1.5-2.5-2-2.5s-.1 1.1.8 2.5zM206 691c0 .5.5 1 1.1 1 .5 0 .7-.5.4-1-.3-.6-.8-1-1.1-1-.2 0-.4.4-.4 1zM218 694c-.8.5-1.3 1-1 1.1.3 0 1.3.2 2.2.4 1.1.2 1.5-.2 1.1-1.1-.6-1.6-.4-1.6-2.3-.4zM210.5 696.9c-.3.5-.1 1.2.5 1.6.5.3 1-.1 1-.9 0-1.8-.6-2.1-1.5-.7zM217 699.9c0 .6.5 1.3 1 1.6.6.3 1-.1 1-.9 0-.9-.4-1.6-1-1.6-.5 0-1 .4-1 .9zM220.6 700.5c-.3.9 0 1.5.9 1.5s1.2-.6.9-1.5c-.4-.8-.7-1.5-.9-1.5-.2 0-.5.7-.9 1.5zM407.1 697c-.7 1.6-.5 5.8.2 5.1.5-.5.7-1.9.4-3.2-.2-1.3-.5-2.2-.6-1.9zM409.6 707.6c-.4.9-.4 1.9-.2 2.1.8.8 2.6-.8 2.6-2.3 0-1.9-1.6-1.8-2.4.2zM224.5 710.1c-1.1 1.7.1 2.1 1.5.4.8-.9.8-1.5.2-1.5-.6 0-1.4.5-1.7 1.1zM223.5 715.9c.6 1.1.4 1.3-.9.8-.9-.4-1.5-.3-1.1.2 1.1 1.9-.7 4.2-2.9 3.6-2.1-.6-2.1-.6-.1 1 1.2.9 2.1 1.2 2.3.5.2-.5.8-.7 1.4-.4.5.3.2 1.5-.9 2.7-1.7 2-1.7 2 0 1.4 1-.4 2.3-.7 2.8-.7s.7-1.1.3-2.5c-.4-1.5-.2-2.5.5-2.5.6 0 .8.7.4 1.7-.4 1.1-.3 1.4.5.9 1.9-1.1 1.4-4.1-1-6.2-1.2-1-1.8-1.3-1.3-.5zM229 721c0 .5.5 1 1.1 1 .5 0 .7-.5.4-1-.3-.6-.8-1-1.1-1-.2 0-.4.4-.4 1zM233.1 721.4c-.9 1-.8 1.6.4 2.6 1.3 1.1 1.5.8 1.5-1.4 0-3-.3-3.2-1.9-1.2zM215 724.1c0 .5.5.7 1 .4.6-.3 1-.8 1-1.1 0-.2-.4-.4-1-.4-.5 0-1 .5-1 1.1zM224.6 727.8c-.2.4-.1 1.4.4 2.2.7 1.1.9.9.7-.8-.1-2.4-.3-2.6-1.1-1.4zM216.7 730.7c-1 .9-.9 2.3.2 2.3.5 0 1.1-.7 1.5-1.5.5-1.5-.5-2-1.7-.8zM234.6 731.6c-.5 1.4-.4 1.5.9.4 1.7-1.4 1.9-2 .6-2-.5 0-1.2.7-1.5 1.6zM236.5 734c.3.5 1.1 1 1.6 1 .6 0 .7-.5.4-1-.3-.6-1.1-1-1.6-1-.6 0-.7.4-.4 1zM218.2 736.1c-2.1.8-2.2 1.1-.9 2.3 1.7 1.7 5.7 1.7 5.7 0 0-2.1-2.4-3.2-4.8-2.3zM229 750.1c0 .5.5.7 1 .4.6-.3 1-.8 1-1.1 0-.2-.4-.4-1-.4-.5 0-1 .5-1 1.1zM158.5 720c.3.5.8 1 1.1 1 .2 0 .4-.5.4-1 0-.6-.5-1-1.1-1-.5 0-.7.4-.4 1zM153 726c0 .5.5 1 1 1 .6 0 1-.5 1-1 0-.6-.4-1-1-1-.5 0-1 .4-1 1zM184.5 729c.3.5 1 1 1.6 1 .5 0 .9-.5.9-1 0-.6-.7-1-1.6-1-.8 0-1.2.4-.9 1zM184 742.9c0 .5.5 1.3 1 1.6.6.3 1 .2 1-.4 0-.5-.4-1.3-1-1.6-.5-.3-1-.2-1 .4zM130 771.9c0 .6.5 1.3 1 1.6.6.3 1-.1 1-.9 0-.9-.4-1.6-1-1.6-.5 0-1 .4-1 .9zM164.6 776.6c-.8 2.2-.8 2.4.7 2.4.7 0 1.3-.9 1.3-2 0-2.4-1.1-2.6-2-.4zM143.6 778.3c-.9 3.3-.7 3.7.9 3.1 1.6-.7 2-3.9.6-4.8-.5-.3-1.1.4-1.5 1.7zM159.5 778c-.4.6-.2 1.7.4 2.4.7.9.7 1.6 0 2.3-.8.8-.5 1.4 1.1 2.3 3 1.6 3.3.9 1.4-2.9-1.4-2.8-1.4-3.5-.3-4.2 1.1-.7 1.1-.9-.3-.9-.9 0-2 .5-2.3 1zM138.6 778.8c-.3.5.1.9.9.9s1.5-.4 1.5-.9c0-.4-.4-.8-.9-.8-.6 0-1.2.4-1.5.8zM150.5 783c-.3.5.1 1 .9 1 .9 0 1.6-.5 1.6-1 0-.6-.4-1-.9-1-.6 0-1.3.4-1.6 1zM194.8 787.2c.9.9 1.5.9 2.4 0 .9-.9.7-1.2-1.2-1.2s-2.1.3-1.2 1.2zM168.7 788.1c.6.6.9 1.8.6 2.7-.4 1-.2 1.3.5.8 1.6-.9 1-4.6-.7-4.6-1.1 0-1.2.3-.4 1.1zM174 788c0 .5.7.7 1.5.4.8-.4 1.5-.8 1.5-1 0-.2-.7-.4-1.5-.4s-1.5.4-1.5 1zM174.5 791c.3.5 1.1 1 1.6 1 .6 0 .7-.5.4-1-.3-.6-1.1-1-1.6-1-.6 0-.7.4-.4 1zM188 793.1c0 1.8.2 1.9 1.5.9 1.5-1.2 1.2-3-.6-3-.5 0-.9 1-.9 2.1zM210 794.5c0 .8.7 1.5 1.6 1.5 1.4 0 1.4-.3.4-1.5-.7-.8-1.4-1.5-1.6-1.5-.2 0-.4.7-.4 1.5zM182.8 797.7c.7.3 1.6.2 1.9-.1.4-.3-.2-.6-1.3-.5-1.1 0-1.4.3-.6.6zM191 869c.6 1.1 1.5 1.8 2.1 1.4.6-.4.6-1.1-.2-2-1.7-2.1-3.1-1.7-1.9.6zM0 349.6c0 1.5 5.6 2.4 15.3 2.4 6.9 0 7.8-.2 7.5-1.8-.3-1.5-1.7-1.7-11.6-1.8-8 0-11.2.3-11.2 1.2zM53.7 348.7c-6.4.3-8.7.7-8.4 1.6.3.9 4.8 1.1 17.8.9 17.4-.4 18.9-.5 18.9-2.3 0-.9-8.3-.9-28.3-.2zM24.5 350.1c-1 1.5-.8 1.6 7.7 2.2 7.6.7 10.9-.4 7.7-2.4-2-1.2-14.7-1.1-15.4.2zM80 353c0 .5.5 1 1 1 .6 0 1-.5 1-1 0-.6-.4-1-1-1-.5 0-1 .4-1 1zM7.5 354c-1 1.7 1.3 3 5.5 3 2.6 0 3.1.3 2 1-.8.5-4.5 1-8.2 1-7.4 0-9.1 1.4-3.1 2.4 5.7.9 27.3.7 27.3-.2 0-.5-1-1.4-2.2-2-1.9-.9-.7-1.1 6-1.1 4.8-.1 8.2.3 8.2.9 0 .6-1.5.9-3.2.8-2.4-.2-3.3.1-3.3 1.2 0 1.3 2.6 1.5 18 1.3 9.9-.2 19.5-.5 21.3-.8 3.7-.7 3.4-2.5-.5-2.5-2.2 0-2.4-.2-1.2-1.6 2-2.5-.7-3.6-7.1-2.8-3 .3-6.4.6-7.5.6-6.8.1-44.6-1.3-47.6-1.8-2.3-.3-4-.1-4.4.6zm51.5 5.1c0 1.3-10.1 1.1-12-.2-1.1-.8-.3-.9 3-.5 2.5.3 5.2.1 6-.4 1.5-.9 3-.4 3 1.1zm12-1.1c1.1.7-.3.9-4.5.9-4.8-.1-5.4-.3-3-.9 4.3-1.1 5.8-1.1 7.5 0zM6.8 366.6c-1.7 1.6-.6 2.6 2.4 2.2 1.7-.3 5 .1 7.3.7 4.7 1.5 13.8.8 13.2-.9-.2-.6-3.1-1.1-6.8-1.2-3.5-.1-8.4-.4-10.9-.9-2.5-.4-4.8-.3-5.2.1zM64.5 367.1c-2.7.3-8.3.4-12.2.1-5.1-.3-7.3-.1-7.3.6s1.2 1.5 2.6 1.8c3.5.9 22.5-.3 23.6-1.4 1.4-1.4-1.2-1.9-6.7-1.1zM33.3 373.7c-.7.2-1.3.9-1.3 1.5s.7.7 1.6.4c.8-.3 2.8.1 4.4.9 3.5 1.8 5 .3 1.8-1.9-2.3-1.6-4.2-1.9-6.5-.9zM8.8 375.7c-1 .2-1.8.8-1.8 1.3 0 1.2 4.9.7 5-.5.2-1.1-.9-1.4-3.2-.8zM59 375.9c0 1.2 3.7 2.4 5 1.6 2-1.2 1-2.5-2-2.5-1.6 0-3 .4-3 .9zM79 376c0 .5.5 1 1 1 .6 0 1-.5 1-1 0-.6-.4-1-1-1-.5 0-1 .4-1 1zM108 816.1c0 .5.5.7 1 .4.6-.3 1-.8 1-1.1 0-.2-.4-.4-1-.4-.5 0-1 .5-1 1.1zM434.8 816.1c-2.2 1.2-2.4 3.9-.3 3.9.8 0 2.3-.5 3.4-1.1 1-.7 3.2-.9 5.2-.5 4.2.8 16.8 6.7 21.2 9.9 6 4.5 10 5.8 18.7 6.3 7.5.4 9 .1 12.5-1.9 2.2-1.2 4.1-3 4.3-3.9.3-1.5-.1-1.4-3.5.3-2.7 1.4-5.8 1.9-11.3 1.9-6.5 0-8.2-.4-13-3.2-13.5-7.6-16.4-9.1-21.3-10.9-5.6-2.1-13.2-2.4-15.9-.8zM61.2 824c-1.5 2.4-1.6 4-.2 4 .6 0 1-.6 1-1.4 0-.8.7-2.2 1.6-3 1.2-1.2 1.2-1.6.2-1.6-.7 0-1.9.9-2.6 2zM119.7 823.5c-.4.8-.2 1.7.3 2 .6.4 1-.3 1-1.4 0-2.5-.6-2.7-1.3-.6zM105 826c0 .5.5 1 1.1 1 .5 0 .7-.5.4-1-.3-.6-.8-1-1.1-1-.2 0-.4.4-.4 1zM96.6 827.8c-.3.6-.1 1.4.5 1.7 1.5 1 2.5-.3 1.2-1.6-.7-.7-1.3-.7-1.7-.1zM120.6 827.8c-.2.4 1.3.6 3.5.4 2.1-.2 3.9-.6 3.9-.8 0-.7-6.9-.4-7.4.4zM105 831c0 .5.5 1 1 1 .6 0 1-.5 1-1 0-.6-.4-1-1-1-.5 0-1 .4-1 1zM155 831c0 .5.5 1 1 1 .6 0 1-.5 1-1 0-.6-.4-1-1-1-.5 0-1 .4-1 1zM86 833.1c-1.1.7-.8.8 1.1.3 1.5-.3 3-.1 3.3.5.9 1.5 2.3 1.4 2.9-.2.6-1.5-5.2-2.1-7.3-.6zM89.4 836.2c-1 1.6.4 2.2 2.8 1.1l2.2-1-2.2-.5c-1.2-.4-2.5-.2-2.8.4zM139.5 835.9c-.3.5-.1 1.2.5 1.6.5.3 1-.1 1-.9 0-1.8-.6-2.1-1.5-.7zM131.5 840.7c-3.3.5-5.7 2.1-5 3.3.6 1 8.5-2 8.5-3.2 0-.4-.1-.7-.2-.7-.2.1-1.6.4-3.3.6zM106 842.4c0 .8.5 1.8 1 2.1.6.3 1-.1 1-.9s-.4-1.8-1-2.1c-.5-.3-1 .1-1 .9zM98.5 848.1c-1.1 1.7.1 2.1 1.5.4.8-.9.8-1.5.2-1.5-.6 0-1.4.5-1.7 1.1zM116 848.1c0 .5.5.7 1 .4.6-.3 1-.8 1-1.1 0-.2-.4-.4-1-.4-.5 0-1 .5-1 1.1zM121 848c0 .5.5 1 1 1 .6 0 1-.5 1-1 0-.6-.4-1-1-1-.5 0-1 .4-1 1zM105.8 852.7c.7.3 1.6.2 1.9-.1.4-.3-.2-.6-1.3-.5-1.1 0-1.4.3-.6.6zM112 855.5c-.7.9-.8 1.5-.2 1.5.5 0 1.2-.7 1.6-1.5.3-.8.4-1.5.2-1.5s-.9.7-1.6 1.5zM216.7 874.7c-1.6.8-4.7 1.8-7 2.3-3.3.6-1.9.8 6.8.9 9.2.1 10.6-.1 8.9-1.2-1.2-.6-3-1.7-4-2.4-1.5-.9-2.5-.8-4.7.4zM168.8 877.7c.7.3 1.6.2 1.9-.1.4-.3-.2-.6-1.3-.5-1.1 0-1.4.3-.6.6z"/></svg>