<svg version="1" xmlns="http://www.w3.org/2000/svg" width="666.667" height="1170.667" viewBox="0 0 500 878"><path d="M209.4 27.2c-1 1.5.1 1.9 5.6 2 6.1.2 6.4.5 11.5 12.9 2.6 6.3 3.2 8.5 2.2 9.1-.6.4-4.7.8-8.9.8-4.8 0-7.8.4-7.8 1.1 0 1.3 76.4.6 76.8-.7.1-.5-1.8-1-4.3-1.2-3.7-.3-4.6-.7-5-2.5-.7-2.9-.9-9.1-.7-15l.2-4.7 7.6.1c7.4.1 9.5-.4 8-1.9-1.1-1-84.6-1.1-85.2 0zm50 2.6c.3.5.8 5.4 1.2 11l.7 10.1-2.8.7c-3.3.8-18.5-.2-19.7-1.4-.9-.9 1.1-7.9 4.3-14.7 2.2-4.5 2.8-5.1 6.4-5.6 6.2-.9 9.3-1 9.9-.1zm14 .8c.3.9.6 5.8.6 10.9v9.3l-3.5.4c-1.9.2-4-.1-4.5-.6-1.5-1.5-1.3-18.9.2-20.4 1.7-1.7 6.5-1.5 7.2.4zm-33.4.8c0 2.2-5.1 15.6-5.9 15.6-1.2 0-7.3-14.8-6.6-15.9.3-.6 3.3-1.1 6.6-1.1 4.5 0 5.9.3 5.9 1.4zM263.4 185c-2.1 1.1-4.4 2-5 2-1.5 0-6.4 5.7-6.4 7.5 0 .7-1.1 3.8-2.5 6.8s-3.1 8.8-3.8 12.9c-1.1 6.9-1.3 7.3-3.9 7.3-1.4 0-2.9.3-3.3.7-.4.4-1.4.4-2.2.1-.8-.3-2.1.3-2.9 1.6-.8 1.1-2.3 2.1-3.3 2.1-1.4 0-2 1-2.4 4.2-.3 2.3-.1 5.1.5 6.2.9 1.6.7 2.3-1.1 3.4-2 1.4-2 1.6-.5 3.3 1.4 1.6 1.3 2.1-2 7.1-2 2.9-6.1 8.6-9.1 12.7s-5.5 8-5.5 8.8c0 .7-.5 1.3-1 1.3-1.9 0-9.4-4.2-14.6-8.1-2.8-2.1-6.6-4.4-8.4-5.1-3.2-1.1-3.5-1-6.6 2.6-1.8 2.1-3.7 5.1-4.3 6.7-.9 2.7-.8 3 4.2 6.2 2.9 1.9 6.9 4.4 9 5.6 4.9 3 4.7 4-.5 3-6-1.3-15.2-2.9-16-2.9-1.3 0-.9-4.3 1.7-17 1.4-6.8 2.5-14.1 2.5-16.3 0-3 .7-4.8 3-7.4 3.4-3.9 3.7-6.8 1.4-13.6-2.1-6.1-5.6-8.7-11.5-8.3-10.2.6-15.5 9.5-11.4 19.2 1.4 3.4 1.3 3.8-2.6 11.9-5.2 10.9-8.9 21.9-7.9 23.5 1.2 1.9 2.7.4 3.3-3.4.7-4.7 8.4-22.6 10.5-24.8 1.5-1.5 2.3-1.5 6.7-.4 4.9 1.3 5 1.4 4.7 4.7-.4 3.4-3.1 16.1-5.3 25.2l-1.3 4.8-4.5-.7c-2.5-.3-6.2-1-8.1-1.4-4.6-1.1-21.9-7.7-24.5-9.4-2.8-1.8-7.3-2.8-9.5-2.1-3.2 1-6.5 14.1-3.8 14.9.7.2 5.9 1.8 11.6 3.6 7.4 2.2 10.2 3.5 10.2 4.7 0 .9-.7 5.2-1.6 9.6-1.3 6.2-1.4 8.8-.6 11.5.9 2.9.7 5.1-1.5 13.1-7.8 29.2-11.6 43.1-12.8 47.6-.8 2.7-1.6 6.3-1.9 8-.6 3.3-7.7 31.5-15.1 60-2.6 9.9-5.8 22.7-7.1 28.5-1.4 5.8-2.7 11.3-3 12.3-.3 1-2.4 3-4.7 4.4-2.3 1.4-6.1 4.7-8.4 7.2l-4.2 4.6.6 6.5c.3 3.6 1 7.5 1.5 8.8 1 3 3.4 2.3 3-.9-.1-1.3-.2-3.5-.2-4.9 0-1.4-.5-3.8-1.1-5.3-1.1-2.7-.9-3.1 4.1-8.2 6.9-7 8.1-6.4 4.8 2.4-.7 1.9-1.1 2.1-2.3 1.1-.8-.6-1.9-.9-2.5-.5-1.5.9-1.2 12.8.4 16 1.8 3.4 1 6.7-1 4-.7-.9-1.7-1.4-2.3-1.1-.6.4-4 6.6-7.7 13.9-3.7 7.3-9.5 18.5-13 24.9-8.2 15-8.4 19.8-.8 19.8 3.4 0 7.6-3.8 8.9-8 .3-1.1 1-2 1.4-2 .9 0-3.2 18.2-5.2 23-2.8 6.6-2.9 10.4-.6 13.4 2.4 3 4.4 2.8 9.4-.9 2.9-2.1 5.9-9 7.9-17.8.6-2.5.9-2.7 4.6-2.1 3 .5 4.4.2 6.5-1.4 1.4-1.1 3.3-1.8 4.3-1.6 1.2.3 9.8-7.6 29.2-27.1 15.1-15.1 28.1-27.5 28.9-27.5.7 0 3 1 5 2.2 6 3.8 15.9 2.9 28.1-2.5 1.4-.6 3.2-1.7 4-2.3 3-2.5 6.7-2.7 8.2-.5 2 2.8 8.5 7.1 10.8 7.1 1 0 3.2-1.1 4.8-2.5 1.7-1.4 3.3-2.5 3.7-2.5 1.1 0 9.5-9 9.5-10.2 0-.6.3-.9.6-.5.3.3 2.3-.3 4.2-1.4 2-1 4.4-1.9 5.4-1.9.9 0 2-.5 2.3-1 .4-.6 1-.8 1.5-.5.8.5 8.2-2.2 9-3.4.3-.4 1.4-1.1 2.5-1.5 1.1-.4 1.6-.4 1.2 0-.4.4.1 1.3 1 1.9 1.5 1.1 1.5 1.5.4 2.9-1.2 1.5-1.1 1.5 1 .7 1.6-.6 2.3-1.5 2.1-2.7-.2-1.1-.5-2.3-.5-2.9-.3-1.5 9.2-5.7 13.9-6.3l4.2-.4 1.1 6.8c.8 4.4 1 10.1.5 16.3-.4 5.3-.7 12.7-.7 16.6 0 5.6-.3 7.3-1.8 8.6-1 .9-1.6 1.9-1.2 2.3.3.3-.1.6-1.1.6-1.6 0-1.6.1-.1 1.6.9.9 1.3 2.4 1 3.2-.3.8 0 1.9.7 2.4.8.5.3.6-1.3.3-2-.5-2.7-.2-3.1 1.3-.4 1.5-.1 1.8 1.7 1.4 1.9-.3 2.2.1 2.2 2.5-.1 1.5.1 3.5.4 4.3.3 1.1-.3 1.4-1.9 1.3-1.5-.2-2.1.1-1.6.8.3.6.1 1.5-.7 1.9-1 .7-1 1.1 0 2.4.7.9 1.1 2.5.8 3.6-.3 1.1-.1 2.3.4 2.6.5.3.9-.3.9-1.3s.4-2.3.8-3c.4-.7.8 1.7.8 5.2-.1 3.6-.4 6.5-.8 6.5-.3 0-1.3.2-2 .5-.9.4-1.4-.2-1.5-1.7-.2-1.7 0-1.9.7-.8 1.2 2 2.3.6 1.5-1.9-.4-1.2-1.5-2.1-2.8-2.2-1.2 0-1.6-.3-.9-.6 1.8-.7 1.4-3.3-.5-3.3-1.4 0-1.8.9-2 4.2-.1 2.4.5 4.7 1.3 5.5.8.8 1.1 1.9.8 2.5-.6.9 1.2.6 5.2-.9.6-.2 1.1.3 1.1 1.2 0 .8-.4 1.5-.9 1.5s-.8 1-.6 2.2c.2 1.3.9 2.2 1.7 2 .8-.2 1.1.3.8 1.2-.4.9-.2 1.8.4 2.1.5.4.9 1.2.8 1.8-.1.7.3 2.5.9 4 1.7 3.9 1.4 5.7-.3 2.7-.8-1.4-1.4-1.9-1.5-1.2 0 1.9 3 6.2 4.4 6.2.6 0 1.2.9 1.2 2 0 1.9-.1 1.9-2.3-.2l-2.3-2.2.2 2.7c.2 2.8 1.9 3.9 5.3 3.3 1.1-.2 2.2 0 2.5.5.3.4 1.4 0 2.5-.8 1.3-1 1.6-1.7.8-2-.7-.2-.9-1.1-.6-1.9.4-1 0-1.2-1.3-.7-1.6.6-1.7.5-.4-.9.8-.9 1.8-1.4 2.3-1.1.4.2.7-.5.7-1.5 0-1.1-.9-2.2-2-2.5-1.1-.3-2-.1-2 .3 0 .5.7 1 1.5 1.2 1.2.2 1.1.6-.6 1.6-1.9 1.2-2.1 1.2-1.6-.1.3-.8 0-2-.6-2.6-.8-.8-.8-1.4-.2-1.9 1.2-.8 1.5-5.3.3-4.6-.4.3-.8 0-.8-.5 0-.6-.4-1.1-.8-1.1-.5 0-.9.7-.9 1.5s.4 1.5.9 1.5c.4 0 .8.6.8 1.4 0 1.4-2.9 3-3.8 2.1-.3-.3-.2-.5.3-.5.4 0 .1-.7-.6-1.7-1.1-1.3-1.1-1.7-.1-2 .6-.3 1-.9.6-1.4-.3-.5 0-.9.6-.9s.8-.5.5-1.1c-.4-.6-1.3-.8-2-.5-.8.3-1.1-.2-.8-1.5.6-2.2 2.3-2.6 2.3-.5 0 1.8 1.6 2.9 3 2.1.7-.4.7-1.3 0-2.4-.5-1-1.2-4.9-1.6-8.7l-.7-6.9 2.1 2.6c1.3 1.5 1.9 3.4 1.6 4.6-1.3 5 8.4 29.2 14 34.8 4 3.9 4.2 4.7 2.2 6.4-1.1.9-1.8.8-3.2-.6-1-1-2.1-1.9-2.6-1.9-.4-.1-1.3-.2-1.9-.3-.5 0-.8-.5-.4-1.1.3-.5 1.1-.8 1.8-.6.7.1.9.1.5-.1s-.5-1-.2-1.8c.3-.7.1-1.6-.5-2-.6-.3-1.1.2-1.1 1.2-.1 1.6-.2 1.6-1.3.3-2-2.5-4.7-2.1-4.7.7 0 1.4.4 2.2 1 1.8.6-.4.8-1.1.5-1.6-.4-.5-.2-.9.4-.9 1.7 0 2 1.4.7 3.2-1.5 2-12.3 2.6-26.4 1.5-8.7-.7-16.8-3.9-23.9-9.3-1.7-1.3-3.6-2.4-4.2-2.4-.6 0-1.1-.5-1.1-1.1 0-.5-.5-.7-1.2-.3-.6.4-.8.3-.5-.3.4-.6-.5-2.1-1.9-3.4-1.8-1.7-2.3-1.9-1.8-.6.3 1 .1 1.7-.5 1.7s-1.1-.5-1.1-1.1c0-.5-.4-.8-1-.4-.5.3-.7 1.2-.4 1.9.3.7-.3 1.6-1.2 2-2.3.9-3 0-1.4-1.8 1-1.3.9-1.8-.3-3-1.3-1.3-1.6-1.3-2-.2-.3.8-.3 2.4 0 3.7.5 1.8.3 2.1-1 1.6-1-.4-1.7-.3-1.7.2 0 1.2 5.6 1.9 7.3.9 1-.5 1.7-.3 2.1.7.3.8.1 1.5-.4 1.5-.6 0-1 .4-1 1 0 .5.8 1 1.8 1 1.3 0 1.4.2.4.9-1.1.6-1 1.1.3 2.4.9.9 1.4 2.1 1.1 2.6-.3.5.1 1.2 1 1.5 1.2.4 1.5.2 1-.9-.3-.8-.1-1.5.4-1.5 1.1 0 1.2.2 1.4 4.8.3 4.3 2.9 7 5.1 5.2.8-.7 1.7-1.1 1.8-.9.2.2 1.1 1.7 2.1 3.2 1.7 2.8 1.7 2.9-.3 2.2-1.6-.5-2-.3-1.5.9.5 1.3-.3 1.6-5.2 1.6-3.3-.1-7-.7-8.4-1.5l-2.5-1.5 2.9.6c2.7.6 2.8.6 1.5-1.7-.7-1.3-1.3-2.6-1.2-2.9.1-.3-.9-.7-2.1-.8-1.6-.1-2.7.6-3.4 2.3-.6 1.4-1.6 2.5-2.2 2.5-.7 0-.8-.6 0-1.9 1.5-2.9 1.2-4-1-3.4-1.1.3-2 1.4-2 2.4 0 2.6-.7 2.4-4.7-1.1-1.8-1.7-3.8-3-4.3-3s-1.2-.9-1.5-2.1c-.4-1.1-1.8-2.5-3.1-3.1-1.4-.7-3.2-2.7-4.1-4.5-1-2.1-2.1-3.2-2.9-2.9-1.9.7-5.9-5-7.4-10.7-1.1-4.2-1.1-5 .3-6.4 1.3-1.3 1.9-1.4 3.1-.3.9.7 1.6 1.1 1.7.9 1.2-5.4-.2-8-3-5.5-1.9 1.7-2.6 1.5-2.2-.7 0-.4-.6-.7-1.5-.7s-1.2.5-.8 1.2c.4.7.3.8-.5.4-.6-.4-.9-1.1-.6-1.6.3-.4.2-1-.3-1.2-.4-.1-2-2.7-3.6-5.6-1.5-3-2.1-5-1.4-4.6.7.5 2.2.9 3.3.9 1.1 0 2.5.4 3 .7 1.6 1 3.9-.8 3-2.2-.4-.6-1.3-.9-2.1-.6-.8.3-1.4.1-1.4-.5 0-.5.6-1.2 1.4-1.5.8-.3 1.9-1.8 2.4-3.3 1-2.8.9-2.8-2.8-2.6-2 .1-4.3.6-5 1-.7.5-2.4.9-3.7 1.1-1.8.2-2.3-.1-1.9-1.2.4-1.2 0-1.4-1.7-1-1.2.3-1.6.3-.9 0 .6-.3 1-.9.8-1.3-.3-.4 0-1.3.6-2.1.8-1.3.9-1.2.5.2-.6 1.8 1.3 3 3.1 1.9.8-.5.4-1.8-1.3-4.3-3.1-4.6-3.1-4.8 0-4.8 1.9 0 2.5-.5 2.5-2.2 0-2.1 0-2.1-1.6-.2-1.5 1.9-1.5 1.9-.5-.2 1.1-2.2-.1-5.4-1.3-3.5-.4.6-.4 1.5-.1 2.1.3.6-.1.7-.9.4-.9-.3-1.6-1-1.6-1.5s-.6-.9-1.4-.9c-.8 0-1.8-.5-2.2-1.2-.5-.7-.2-.9.9-.5 1.2.4 1.4.2 1-1-.5-1.3-.3-1.4 1.5-.4 1.2.7 2.2.8 2.2.4s1.6 1 3.6 3.2c2.1 2.2 3.2 4.1 2.5 4.3-.6.2-.9.8-.5 1.3.3.5.2.9-.3.8-2.1-.4-3.1.2-2.9 1.8.2.9.8 1.9 1.4 2.1.7.2 1-.3.6-1.2-.4-1-.1-1.6.9-1.6s1.3.7 1 2c-.3 1.1-.1 2 .5 2 1.3 0 3.3-2.5 2.5-3.3-.3-.4-.8-2.6-1-4.9-.4-4.1-.4-4.2 1.2-2.3.9 1.1 1.3 1.4 1 .7-.5-1 .1-.9 2.4.2 1.7.9 3.1 1.9 3.1 2.2 0 .3-.6.2-1.2-.1-.7-.4-.4 0 .6.9 1 .8 2.4 1.3 2.9.9.6-.4.8 0 .4 1.1-.4 1-.7 2.4-.7 3.2 0 .9-.4 1.2-1 .9-.5-.3-1.7.3-2.7 1.4-.9 1.1-2.1 1.7-2.6 1.4-.6-.4-.7-.1-.3.6.6.9 1.3.8 2.8-.6 1.8-1.6 2-1.6 2.9-.1.5 1 1.6 1.5 2.5 1.1.8-.3 1.4-.2 1.3.3-.4 2.5.3 4.4 1.7 4.4 1.1 0 1.4-.6.8-2.2-.6-2-.5-2.1 1-.6 1.7 1.8 2.2 5.3.6 4.3-.5-.3-1-.2-1 .4 0 .5-.8 1.2-1.7 1.4-1.1.3-.7.5 1 .6 1.6.1 2.6.5 2.2 1.1-.4.6-1.1.7-1.7.4-.7-.4-.8-.2-.4.4.9 1.5 4.3 1.5 4.8.1.3-.8 1-.6 2.1.5 1.9 1.9 2.2 3.6.7 3.6-.5 0-1 .9-1 2s.5 2 1.1 2c.6 0 .9-.7.6-1.4-1.1-2.7 3.7-.1 5.1 2.7.7 1.5 1.8 2.7 2.5 2.7 1.6 0 7.4 5.5 8.2 7.7.7 2.2 14 8.7 16.1 7.9 2.4-.9 1.2-3.8-2.1-4.9-3.5-1.1-6.5-3.5-6.4-5.1 0-.7.2-.6.5.1.8 1.9 5.4-.6 5.4-2.9 0-1.1-.4-1.7-.9-1.3-.5.3-1.3 0-1.6-.5-.5-.7-1.1-.6-1.9.5-1 1.5-1.4 1.5-4.1.1-1.7-.9-3.7-1.6-4.7-1.6-.9 0-3.5-2.1-5.8-4.7-4-4.5-4.1-4.8-2.1-5.7 2.3-1 2.6-2.3 1-4.6-.9-1.3-1-1.3-.6.2.8 2.4-2.2 3.2-4.4 1.2s-2.5-5-.6-5.8c.6-.3.3-.4-.9-.1-1.6.4-2.9-.5-5.8-4.1-2-2.6-3.6-5.4-3.6-6.3 0-2.8 1.6-4.3 4.1-3.9 1.9.2 2.4.9 2.2 2.8-.1 1.4.1 1.9.3 1.3.4-1 1.2-.9 3.5.2 2 1.1 2.8 1.2 2.7.4-.2-.7.8-1.6 2.2-2 2.6-.7 2.6-.8-.2-1.4-1-.2-1.8 0-1.8.4s-.7.8-1.6.8c-1.4 0-1.4-.2.2-1.4 1.5-1.1 1.6-1.5.5-2.6-1.1-.9-1.4-.9-1.8 0-.3.7-.9 1.3-1.4 1.3-.6 0-.8-.4-.5-.9.4-.5.2-2-.2-3.3-.5-1.2-.6-3.3-.3-4.6l.6-2.3 2.9 3c1.7 1.7 2.4 3.1 1.7 3.1-.9 0-.9.3.1 1.4.7.8 1.7 1.1 2.2.8.5-.3.7.2.3 1.1-.8 2 .4 2.2 2.2.4 1.1-1 1.3-.9.8.5-.3 1-.2 2 .3 2.3.6.4 1 1.1 1 1.6 0 .6-.6.7-1.2.3-.9-.5-.8-.2.1.9 1.9 2.4 2.3 1.7 2.7-4.9.4-5.5.3-5.7-3.9-9.6-2.3-2.2-7.3-5.5-11.1-7.3-3.9-1.8-6.4-3.5-5.7-3.9.6-.4 1.1-1.2 1.1-1.7 0-.6-.5-.7-1-.4-.5.3-1-.4-1-1.5 0-1.7.4-2.1 1.8-1.6.9.4.4-.5-1.2-1.9-3.1-2.7-4.1-3.2-3-1.4.4.6 1 2.7 1.4 4.5.7 2.9.5 3.4-1 3.4-1.3 0-1.6-.6-1.2-2.5.6-3.1-.5-5.8-1.9-4.9-.8.4-.7.9.2 1.5 1.1.6 1 1.2-.6 2.6-2.5 2.2-5.4 2.7-8.8 1.4-1.9-.7-2.8-.6-3.7.4-.6.8-.9 1.9-.6 2.4.8 1.3 6.5 4.1 8.3 4.1.9 0 1.3.8 1.1 2.2-.2 1.3.2 2.3.7 2.3 1.6 0 3.5 1.5 3.5 2.8 0 .7-.4.6-1.1-.3-.9-1.3-1-1.3-.6 0 .5 2.1 4.4 2.5 4.4.5 0-.8-.4-1.5-.9-1.5s-.6-.5-.3-1c.4-.6 1.1-.8 1.6-.5.5.4.9-.1.9-.9 0-2.2 1.9-2 5.5.5 1.7 1.2 2.2 1.9 1.3 1.6-.9-.3-1.9.1-2.2.9-.3.8-.2 1.2.3.9 1-.5 2.2 2.3 2.6 6 .2 1.7-.4 2.1-2.8 2.3-1.7.2-3.5.8-3.9 1.5-.5.8-.8.7-.8-.6 0-.9.6-1.7 1.3-1.7.7-.1.4-.6-.7-1.5-1-.7-1.6-1.8-1.3-2.2.3-.5-.5-1-1.9-1.1-2.5-.2-3.3 1.3-1.1 2.1.7.3.5.6-.5.6-1 .1-1.8-.3-1.8-.8s-.8-1.1-1.7-1.4c-2.8-.9-15.5-5.7-18.5-7-1.7-.7-2.3-1.4-1.5-1.9.6-.4.8-1 .4-1.4-.3-.4-1.3-.1-2.2.6-.8.7-1.5.8-1.5.3 0-1.4-8.4-.3-9.7 1.4-1.5 1.9-4.9.3-5.8-2.8-.6-1.6.3-3.1 3.6-6.5 3.6-3.7 4-4.4 2.5-5-2-.8-6.2 2.9-12.9 11.3-2.3 2.9-4.7 5.3-5.3 5.3-1.5 0-5.1 4.1-6.3 7.2-.6 1.6-2.4 3.3-4.3 4.1-4.1 1.7-11.2 8.8-12.6 12.4-2.5 7-4 13.3-3.6 15 .3 1.1-.4 4.7-1.5 8.1-1.2 3.4-2.1 8.1-2.2 10.4 0 2.4-1 7.2-2.2 10.8-2.2 6.4-2.2 6.5-6 6.6-2.7.1-4.1-.4-4.8-1.7-.5-1.1-2.7-2.8-4.8-3.9-3.3-1.6-4.3-1.7-7.1-.7-2.7 1-3.3 1-4.3-.4-3.1-4.1-11.6-5.1-21.7-2.4-4.1 1-6.3 2.4-8.8 5.2-1.9 2.1-3.9 3.9-4.5 3.9-.7.1-2.2.2-3.4.3-1.2 0-3.8 1.5-5.8 3.2l-3.5 3.1v-2.8c0-2.7 1.5-9.3 4.6-20 1.6-5.9 1.8-8.4.4-8.4-2.4 0-6.7 12.5-8.9 26-.8 5.3-1.7 7-3.7 7-1.7 0-1.9-2.1-.2-3.8.8-.8.8-1.5-.2-2.7-1.7-2.1-4.1-1.9-4.7.4-.9 3.3-8.3 8.5-12.3 8.6-4.3.1-10 3.8-10 6.6 0 2.4.5 2.4 3.9 0 1.5-1.1 4.5-2.1 6.7-2.3l3.9-.3.5 8c.4 4.4.4 9.6.2 11.5l-.4 3.5-7.4-.3-7.4-.4v8.9l7.1.7c7.1.7 9.9 0 8.5-2.3-.4-.6-1.8-1.1-3.2-1.1-1.3 0-2.4-.5-2.4-1.1 0-.5.5-.7 1.1-.4.5.4 1.9-.1 3-1.1 1.8-1.6 1.9-1.6 1.9.3 0 4.6 7.3 6.3 17.1 4 7.9-1.9 12.8-2.8 15.4-2.8 1.1 0 4.5.1 7.5.1s9.5-.5 14.4-1.1c10.3-1.3 16.6-.1 16.6 3.3 0 1.7-.5 1.9-3 1.3-1.9-.4-3-.3-3 .4 0 .6-.7 1.1-1.5 1.1-2 0-2 3.9 0 4.6 2.3.9.7 2.5-2 1.8-1.2-.3-2.6-.1-3 .6-1 1.6 1.4 4 4.1 4 1.2 0 2.6.5 3 1.1.5.8-.5.9-3.4.4-4.4-.7-6.2.6-4.2 3 1 1.2.9 1.5-.9 1.5-3.5 0-2.8 3.9.9 4.7 3.7.7 3.8 1.6.5 3.1-2.9 1.3-3.2 2.7-.9 4 1.5.8 1.3 1.7-1.1 8.8-3.3 9.5-6.7 16.4-7.2 14.6-.3-.8-2.6-1.2-6.6-1.2-3.4 0-9.6-.5-13.8-1.1-6.5-1-8.3-1-12.4.4s-5.1 1.5-6.4.4c-2.2-1.9-11.4-4.6-18.6-5.5-5.3-.6-6-1-6.3-3.1-.3-2.1-.1-2.3 2-1.7 1.2.4 4.6 1.4 7.5 2.1 2.8.7 5.7 1.7 6.5 2.1.7.5 9.2 1 18.8 1.1 9.6.1 20.6.4 24.4.5 7.4.3 9-.7 6-3.6-1.1-1.1-2.3-1.4-3.8-1-1.1.4-2.8.7-3.6.7-4.2-.4-30.2-1.2-34.6-1.2-3.4 0-5.5-.5-6.4-1.6-.7-.8-2.7-1.5-4.4-1.5-2.7-.1-6.2-1.1-11.8-3.5-1.6-.6-1.8 0-1.8 7.1v7.9l5-.3c6.1-.5 14.5 2.2 17.7 5.6l2.4 2.5 5.6-2.3c5.3-2.2 6.1-2.3 12.5-1.2 3.8.7 9.3 1.2 12.2 1.2 7.3 0 8.9.6 7.5 3.2-.8 1.5-.7 2.4.4 3.6 2 2.4 1.1 4.5-1.2 3-1.6-1-2.9-.1-9.2 6.1-14.2 13.8-10.5 12.3-29.1 12.1-23.5-.2-23.8-.2-23.8 1.5 0 1.6 4.8 1.9 24.8 1.5 5-.1 9.2.2 9.2.7 0 .5-1.1 2-2.4 3.2-2.2 2.1-3 2.2-17 1.9-13.3-.3-14.6-.1-14.6 1.4s1.5 1.8 13.3 2l13.2.3.3 2.6c.2 1.7-.8 4.2-2.8 7.1-3.7 5.3-4.9 11.1-2.8 13.6.8.9 1.8 2.5 2.1 3.4 1 2.8 13.8 2.5 22.1-.6 6.7-2.4 10.6-5.2 22.8-16.1 11.8-10.7 12.2-10.8 34.8-11.1 55.8-.6 214-.8 214.6-.2.3.4-1.1 1.5-3.2 2.5-2.8 1.3-4.2 2.8-5.1 5.3-1 3.2-1 3.7 1 5.4 2 1.7 3.4 1.8 15.2 1.3 8.5-.4 14.3-1.1 16.8-2.1 3.3-1.4 3.7-2 3.7-5.2 0-1.9.7-4.8 1.5-6.4l1.5-2.9h14.8c20.5 0 108.9-1.3 113.2-1.6 1.9-.2 7.9-.3 13.3-.4 8.2-.1 9.7-.3 9.7-1.7 0-1.7-15.9-1.7-122.8.1-23 .4-26.3.3-26.9-1-.3-.9-.3-1.8-.1-2.1.6-.5 20.4-.9 95.8-2 27.8-.4 51.3-.7 52.3-.8 1.6 0 1.7-1.6 1.6-20.1 0-13.2-.3-19.2-.9-17.7-.9 2-1.2 2.1-3.2 1.1-3.5-1.8-5.4-5.5-2.3-4.3 1 .4 1.8-.3 2.5-2.1.7-1.7 1.5-2.5 2.5-2.1 1.2.4 1.4-1.6 1.3-13.2-.1-7.5-.3-12.1-.5-10.2-.3 2.9-1.1 3.9-4.4 5.8-2.3 1.3-4.6 3.7-5.3 5.3-1.2 2.9-1.3 2.8-2.9-4.8-2.1-9.6-2.1-9 .3-8.9 1 .1 1.9-.4 2-.9 0-.6-.8-1-1.7-1-2.4 0-3.3-1.4-3.3-5.4v-3.3l2.9 3.1c3.2 3.5 6.5 4 9.3 1.4 1.7-1.5 2-1.5 2.8-.3.6 1 1-4.5 1-14.9 0-13.1-.3-16.1-1.3-15.3-1.6 1.4-9.9.3-9.4-1.2.3-.6 2.5-1 5.6-.9l5.1.2-.1-15.7c-.1-8.6-.4-14.6-.8-13.2-.7 2.5-.7 2.5-1.3.2-.7-2.5-3.5-3-4-.6-.2 1.1-1.5 1.7-4.2 1.9-3.4.2-3.9-.1-4.8-2.6-1.2-3.4-4.2-3.9-5.8-1-.7 1.3-.7 2.8 0 4.6 1.1 2.9.3 7.8-1.1 6.9-.5-.3-.7-.9-.4-1.4 1.3-2.2-5.6-4.4-9-2.8-1.8.8-2.8.7-4.6-.6-2.9-2-4.9-2-7.5-.2-1.7 1.3-1.7 1.8-.6 3.6 1.5 2.5 1 3.5-1.3 2.7-.8-.4-1.5-1.7-1.5-3.1 0-2.7-1.4-4-4.5-4.1-1.8 0-2-.7-2-5.5v-5.5l6 .1c14.6.2 24.4.2 30 .1 4.1-.1 5.9.2 5.8 1-.1.6.4 1.7 1.2 2.3 1.2 1 1.6.8 2.4-1.3.8-2.1 1.5-2.5 4.5-2.2l3.6.3-.2-8.1c-.1-4.8-.3-6.4-.5-3.9-.3 2.6-1.2 5.1-2.5 6.4-2 2-2.4 2-11.8.4-1.4-.2-2.9 0-3.5.4-.5.4-2.9 1.1-5.1 1.5-3.6.5-4.2.4-4.7-1.4-.3-1.2-1.1-2.1-1.7-2.1-.7 0-1 .8-.7 2 .5 1.8 0 2-3.8 2-2.6 0-4.7-.6-5.5-1.5-.9-1.1-1.6-1.3-2.4-.5-1.5 1.5-6.2 1.2-7.6-.5-1-1.2-1.6-1.3-2.6-.4-1.2 1-1.4-.3-1.4-7.4 0-8.3.1-8.7 3.3-12 5.4-5.7 14.3-12.7 17.4-13.7 2.1-.8 5-.8 9.4-.1 3.5.6 10.1 1.1 14.6 1.1h8.2l.4 5.7c.3 5.4.3 5.3.5-1.7l.2-7.5-10.7-.2c-5.9-.1-12.8-.7-15.4-1.3-4.5-1.1-4.7-1.3-5.2-5.3-.3-2.2-.4-4.5-.1-4.9.7-1.1 6.5.3 9.4 2.2 3.4 2.4 6 3.1 13.1 3.5 5.1.4 6 .2 5.7-1.2-.2-.9-1-1.9-1.8-2.3-.8-.4-2.5-1.2-3.7-1.8-1.3-.7-3.6-1.2-5.3-1.2-1.6 0-3-.4-3-1 0-1.6 3.4-2.8 6.1-2.3 1.5.3 3.6 0 4.8-.7 1.9-1 2-1.3.7-3.1-1.9-2.7-6.5-5.2-9.4-5-2.9.1-8.2-3.7-7.5-5.5.3-.8-.5-1.8-2.1-2.3-3.3-1.3-7.4-7.9-7.8-12.6-.2-2.1-.8-4-1.5-4.2-1.6-.5-3.6 6.1-2.9 9.5.5 2.2 1 28.7.7 36.9-.1 1.6-2.5 4.1-7.7 8.3-4.2 3.3-8.2 6-8.8 6-1.2 0-1.2-8-.2-94 .3-25 .5-47.9.6-50.8 0-4.7.3-5.4 2.5-6.2 2.7-1 2.9-2.2 2.5-16.8-.1-5.4.2-7.2 1.2-7.2 4.5-.2 21-1.9 21.5-2.3.2-.3.1-3.6-.2-7.4l-.7-6.9-12.7.4-12.7.4-2.4-19.4c-1.2-10.6-2.9-21-3.6-23.2-1.3-3.6-1.3-4 1.2-6.9 2.1-2.6 2.4-3.6 1.9-7.1-.9-5.2-4.1-10.5-7-11.6-2.5-.9-10.3 1-14 3.4-1.2.8-2.8 2.9-3.5 4.6-1.2 2.9-1.1 3.6 1 7.5 2.3 4.2 2.3 4.5 1.1 14.3-.7 5.5-1.4 12.2-1.6 14.9-.9 13.8-1.9 23.4-2.5 23.8-.4.2-7 .5-14.8.6-9.3.2-14.2.6-14.3 1.3-.6 4.9.5 12.3 1.9 13.3 1.1.9 5.6 1.3 13.9 1.3H419v3.9c0 2.1.3 5.9.6 8.5.5 3.1.3 4.6-.5 4.6-.6 0-1.1-1.7-1.1-4 0-5.6-1.7-6.2-16.3-5.8-6.7.1-12.7-.1-13.4-.5-.7-.4-1-2-.6-4 .6-3.7-3.2-33.9-4.8-38.6-1-2.7-.8-3.5 1.5-6.2 3.9-4.5 4.3-7.6 1.8-12-1.2-2.1-2.2-4.2-2.2-4.8 0-1 11.6-9.1 13-9.1 1 0 6.7 6.7 10.2 11.9 1.8 2.7 3.5 4.1 4.9 4.1 2.7 0 9.9-7.1 9.9-9.8 0-2.1-7.1-12.3-10.8-15.6-1.2-1.1-2.2-2.5-2.2-3.3 0-.7 3-4.1 6.6-7.6 3.7-3.4 8.6-9 11.1-12.5 2.5-3.4 5.1-6.2 5.9-6.2 2.4 0 8.3-6.8 9-10.4.8-4.3-1.1-10.1-3.9-12.1-5.6-3.9-17.9-.4-19.2 5.4-.7 3.2-4.3 6-16.9 12.8-7.5 4-8 4.2-10.7 2.8l-2.8-1.5 5.2-7.6c2.9-4.2 5.9-8.9 6.7-10.5.8-1.6 2.2-3.1 3.1-3.4.8-.3 2.8-1.8 4.3-3.4 2.2-2.3 2.7-3.8 2.9-8.4.2-6.5-1.2-8.6-7.8-11.1-4-1.6-4.6-1.6-7.4-.2-3.3 1.8-8.1 7.5-8.1 9.8 0 .8-.3 1.8-.7 2.2-.8.8-7.3-5.3-7.3-6.9 0-.6 1.4-2.4 3.1-4.1 4.1-3.7 14.4-19.3 15.9-23.9.7-2.2 2.6-4.4 5.3-6.3 5.2-3.5 6.9-6.6 6.3-11.6-.5-4.6-3.2-8.6-7-10.4-3.4-1.7-8.6-.2-11.8 3.5-3.9 4.5-11.9 12.3-23.7 23.2l-11.2 10.3-5.2-4.9c-9.2-8.8-11.6-9.1-18.2-2.3l-3.9 4 1.9 3.5c1 2 4.4 5.7 7.4 8.3 3.1 2.5 5.9 5.1 6.3 5.6.7 1-.8 3.9-6.1 12-1.4 2.1-3.3 5.1-4.1 6.5-.8 1.5-2.6 3.8-3.8 5.1-1.3 1.4-6.2 7.1-10.9 12.7-4.7 5.7-9 10-9.5 9.7-1.2-.8-.6-13.7.7-14.6.6-.4 2-.8 3.3-.8 2.2 0 3.1-2.3 1.2-3.5-1.9-1.2-1-2.5 1.4-1.9 2.9.7 4.2-.9 2.1-2.6-1.9-1.6-2-3.1-.1-2.4 2.1.8 2.8-1.2 1.1-2.9-2-2.1-1.9-2.7.4-2.7 2.7 0 3.7-2.1 1.8-3.5-.9-.7-1.3-1.6-.8-2.1 1.5-1.5 2.4-7.4 1.2-7.4-1.6 0-8.1-4.3-8.1-5.4 0-.5-.6-1.7-1.4-2.5-2.1-2.3-2.1-13.8 0-25.8.4-1.8.3-4.9 0-6.8-1.9-10-17.9-18.3-38.7-19.9-5.4-.4-7.4-.1-10.5 1.4zm7.9 2.8c.9 1 2.8 1.9 4.4 2 3.8.3 5 1.8 2.2 2.7-1.3.4-2.6 1.1-2.9 1.6-.3.5-3 .6-5.9.2-3.1-.3-4.7-.9-4-1.4 1-.6 1-1.1 0-2.3-1.1-1.3-1.1-1.9-.1-3.1 1.7-2 4.3-1.9 6.3.3zm25.8 4.8c1 .9 1.6 2.1 1.3 2.8-.5 1.4 3.6 3.6 6.7 3.6s5.5 6.5 3.8 9.9c-.8 1.4-1.4 3.5-1.4 4.6 0 1.1-.4 2.1-1 2.2-.6.2-1-2.6-1-6.9 0-6.7-1.3-9.6-3-6.9-1 1.8-2 1.3-5.2-2.7-5.1-6.3-5.2-11.2-.2-6.6zm106.6 3.6c2.7 2.6 2.9 5.5.6 10.3-1.8 3.8-4.5 4.5-8.6 2.4-3-1.6-3.7-2.8-3.7-7 0-7.1 6.7-10.4 11.7-5.7zm-11.8 15.5l3.4 3.2-3.7 7.2c-5 9.7-12.5 19.8-15.4 20.6-1.7.4-3.8-.6-8.5-4.2-9.6-7.4-9.5-7.1-4-12.8 2.7-2.7 8.9-8.5 13.8-12.9 7.9-7 9.1-7.7 10-6.1.6 1 2.5 3.2 4.4 5zm-50.6 8.4c1.2.7 5.6 4.4 9.7 8.3 4.1 3.9 12.6 11.5 18.8 16.9 6.1 5.5 11.2 10.6 11.2 11.5 0 1-1.4 2.5-3.2 3.5-3.1 1.8-3.2 1.8-5.2-.6-1.2-1.4-5.2-4.9-9.1-7.8-3.8-2.9-9.8-7.5-13.1-10.3-3.4-2.8-8.7-7-11.8-9.4-3.1-2.4-5.6-5.1-5.6-6 0-1.4 4.6-7.2 5.8-7.2.2 0 1.3.5 2.5 1.1zm-166.7 4.3c4.5 4.5 4.9 10.3 1.1 14.3-2.4 2.7-5.6 2.9-10.2.8-8.5-4.1-6.8-18.5 2.2-18.5 2.7 0 4.3.8 6.9 3.4zm132.1-1.2c-.3.8-.6.5-.6-.6-.1-1.1.2-1.7.5-1.3.3.3.4 1.2.1 1.9zM267 234.4c0 1.1-1.9 1.5-2.5.6-.3-.5.1-1 .9-1 .9 0 1.6.2 1.6.4zm137.2 12.3c5.9 5.6 1.9 16.3-5.5 14.8-3.9-.8-6.4-3.1-7.2-6.8-.6-2.3-.1-3.3 3.3-6.7 2.2-2.2 4.6-4 5.3-4 .7 0 2.6 1.2 4.1 2.7zm-50.5 3.5c2.7 2.4 6.2 5.3 7.8 6.5 1.8 1.4 2.6 2.6 2 3-.6.5-1.6 2-2.2 3.4-1.3 2.9-6.7 4.7-8.9 2.8-1.4-1.2-3.4-.4-3.4 1.3 0 .7 1 2.2 2.2 3.5 1.7 1.9 1.8 2.3.6 2.3-1.8 0-11.7-8.1-13.1-10.6-1.6-2.9.8-3.6 3.3-.9 1.3 1.4 2.7 2.5 3.2 2.5 1.5 0 .8-2.6-1.2-5-1.1-1.3-2-2.9-2-3.7 0-1.8 4.8-9.3 6-9.3.5 0 3.1 1.9 5.7 4.2zm-90.1 3.7c-1 1.6-3.6 1.3-3.6-.3 0-1.7 2.1-2.7 3.4-1.6.4.5.5 1.3.2 1.9zm31.4.8c5.7 2.6 8.6 5.8 9.3 10.3.3 1.9.7 4.2.9 5 .2.9-.6 1.6-1.9 1.8-1.6.2-2.6-.5-3.8-2.7-1.5-2.9-1.9-3.1-7.5-3.1-5.2 0-6 .2-6 1.9 0 1 .8 2.2 1.7 2.5 1.2.5 1.4.9.5 1.8-1.8 1.8-1.5 3.1 1.9 6.9l3 3.4 1.9-2.5c1.1-1.4 2.2-3.3 2.6-4.3.7-2.3 3.4-2.2 3.4.3 0 1.1 1.2 4.9 2.7 8.5 2.8 6.8 2.6 8.8-.7 6.7-2.4-1.5-7.7-1.6-8.5-.1-.4.6.4 2.2 1.6 3.6l2.4 2.6-2.5-.7c-8.5-2.5-11.3-2.8-12.1-1.5-1.5 2.4-1.1 5.2.6 4.5.9-.3 3.4.6 5.5 2 3.5 2.4 4 3.1 4 6.6 0 2.2-.5 4.8-1 5.9-1.1 1.9-1.1 1.9-4.8-.1-3.9-2.2-6.1-3.4-10.4-6.3-1.4-.9-3.3-1.7-4.2-1.7-1 0-2.8-1.1-4.2-2.5-1.4-1.4-2.9-2.5-3.4-2.5-1.5 0-1.1 4.3.5 6.4 1.6 2.1 2 4 .8 3.3-.5-.3-.9 5-1.1 11.6-.5 18.1-.3 17-3.9 18-2.5.7-5.6.3-13.5-1.8-5.7-1.4-10.9-3.2-11.6-3.8-2.4-1.9-1.2-18.3 1.6-23.2 1.2-2.2 3.2-6 4.4-8.5 1.1-2.5 2.4-4.7 2.8-5 .4-.3 1.2-1.5 1.9-2.8.6-1.2 2-2.2 3-2.2s2.1-.3 2.5-.7c.4-.4 1.5-.8 2.4-.8.9 0 1.7-.6 1.7-1.4 0-1.4-1-2.1-5.6-3.9-3.6-1.4-5.1-5.9-3.4-9.8l1.3-2.9.1 2.8c.1 3.2 5.4 9.2 7.2 8.1 1.1-.6.9-3.2-.6-6.7-1.1-2.7 1.6-2.1 4 .9 1.8 2.2 2.6 2.5 5.3 1.9 1.8-.3 3.7-1.5 4.3-2.6.9-1.8 1.2-1.8 3.1-.4 2 1.3 2.4 1.3 4-.2 1-.9 1.8-2.6 1.8-3.8 0-1.3 1.1-3 2.6-4 2.7-1.7 2.7-1.8 1.2-9.9-.2-1 .6-2.3 1.7-3 1.1-.6 2.6-1.9 3.3-2.9.7-.9 1.6-1.6 2-1.4.4.2 2.7 1.3 5.2 2.4zm-68.5 6.2c-1.3 7.5-.3 18.6 2 21.1 3.3 3.6.8 3.3-6.2-.9-3.7-2.2-7.5-4.4-8.3-4.9-1.2-.8-1.2-1.5.5-5.2 1.1-2.4 3.2-6 4.7-8.1 1.6-2.2 2.8-4.3 2.8-4.8 0-1.2 2.1-1.9 3.8-1.3 1 .3 1.2 1.5.7 4.1zM254 258c0 1.1-.4 2-1 2-.5 0-1-.9-1-2s.5-2 1-2c.6 0 1 .9 1 2zm-5 3c0 1.4-1.4 1.2-2.8-.2-1.9-1.9-1.4-3 .8-1.8 1.1.6 2 1.5 2 2zm17.5 0c.8 0 1.7-.5 2-1 .3-.6 1.1-1 1.6-1 .6 0 .1 1.3-1.1 3-1.7 2.4-2.5 2.8-3.9 2-2.5-1.3-3.5-4.1-1.9-5.1.8-.5 1.4-.3 1.6.6.2.8 1 1.5 1.7 1.5zm9.1 1.6c-.2 3.7-3.2 7.2-4.8 5.6-.7-.7 3.8-9.2 4.7-9.2.1 0 .1 1.6.1 3.6zm-30.8 2.4c-.2.8-1 1.5-1.8 1.5-1.7 0-2.5-2.8-1.5-5.3.6-1.5.8-1.5 2.1.3.8 1.1 1.3 2.6 1.2 3.5zm146-1.9c3.7 2.7 4 3.2 3.1 5.6-1.2 3.2-9.1 14.2-10.2 14.3-.4 0-2.1-1.6-3.8-3.5-1.7-1.9-3.7-3.5-4.3-3.5-.7 0-3.8 1.8-6.9 4.1-3.2 2.2-5.7 3.7-5.7 3.4 0-1.1 15.9-19.2 18.7-21.5 3.4-2.6 4.2-2.6 9.1 1.1zm-156.3-1.2c.3.5 0 1.3-.5 1.6-.6.4-1.5 1.8-2.1 3.2-1 2.7-2.9 2.3-2.9-.7 0-3.2 4.1-6.3 5.5-4.1zm26.9 3.2c-.8 1.3-2.4.1-2.4-1.8 0-1.3.3-1.3 1.5-.3.8.7 1.2 1.6.9 2.1zm-69.4 2.4c2.5 1.8 8.6 5.4 13.5 8 5 2.7 10.1 5.6 11.5 6.6 1.4.9 6.2 3.5 10.7 5.8 6.1 3.1 8.1 4.5 7.6 5.7-.3.9.6 2.7 2.2 4.4 2.6 2.7 2.7 3.2 1.5 5.5-1.6 3.1-2.5 3.1-7 .3-1.9-1.1-6-3.5-9-5.1-3-1.7-7.1-4.3-9.1-5.8-2-1.6-6.9-4.7-11-7-11.9-6.8-23.9-14.8-23.9-16 0-.6.9-2.4 2.1-4 2.5-3.5 4.1-3.3 10.9 1.6zm63-3.2c0 1.7-2 3.7-3.7 3.7-1.9 0-1.6-2 .5-3.6 2.2-1.7 3.2-1.7 3.2-.1zm114.8-.1c2.2 2.2 1.2 4.2-5.6 11.6-6.5 7-6.8 7.2-10.4 6.6-2.1-.4-3.8-1.2-3.8-1.9s2.5-3.1 5.5-5.4c3-2.3 6.7-6 8-8.1 2.6-4.1 4.2-4.9 6.3-2.8zm-31.2 3.3c.4.8 0 2.4-.7 3.4-1.9 2.5-28.1 33.1-34.4 40.1-2.8 3-8.2 9.3-12.1 14-3.9 4.7-12.7 14.9-19.5 22.7-6.8 7.8-19.1 22-27.3 31.5s-16 18.2-17.2 19.3c-1.3 1.1-3.8 3.9-5.6 6.2-1.8 2.3-12.9 14.6-24.7 27.5-11.7 12.8-25.5 27.8-30.5 33.2-5 5.5-10 10.9-11.1 12-1 1.1-4.5 5.2-7.7 9.1-3.1 3.8-6.9 8.3-8.3 9.8-1.4 1.5-2.5 3.4-2.5 4.2 0 .8-.6 1.5-1.4 1.5-.8 0-4.8 3.9-8.9 8.7-4.1 4.9-10.7 12.6-14.7 17.2-5.6 6.6-7 7.7-6.4 5.5.8-3.3 3.6-7 17.9-23.4 5.5-6.3 16.3-18.7 23.9-27.5 7.6-8.8 14.6-16.7 15.5-17.5 1.4-1.3 10.2-11.1 28.6-31.9 3.3-3.7 11.2-12.6 17.6-19.7 6.3-7.1 15-17 19.2-21.9 4.2-5 11-13.1 15.2-18 16.2-19.2 24.2-28.2 30.1-34 3.4-3.3 6.7-7.1 7.4-8.5 2-3.8 8.3-11 9.6-11 2 0 6.4-4.8 6.4-7s1.3-3.9 14.9-20.5c17.6-21.4 22.3-26.5 24.2-26.5 1.1 0 2.2.7 2.5 1.5zM127.8 271c3.3 1.6 7.4 3.2 8.9 3.6 1.5.3 6.8 1.9 11.6 3.5 8.7 2.9 36.7 8.9 41.2 8.9 3.4 0 4 1.8 1.6 4.4-1.2 1.2-2.1 2.7-2.1 3.4 0 2-1.7 2.2-6.1.6-2.4-.9-9.8-2.7-16.4-4-6.6-1.3-14-3.1-16.5-4-2.5-.8-10.6-3.2-18-5.2-13.1-3.6-13.5-3.8-13.8-6.6-.5-3.9.6-7.6 2.1-7.6.8 0 4.1 1.3 7.5 3zm308.3.9c3.5 3.5 3.6 4.8.6 9.2-4.2 6.3-11.9 4.4-13.6-3.3-1.3-5.7 1-8.1 8.2-8.7 1 0 3.2 1.2 4.8 2.8zM259 271c0 .5-.2 1-.4 1-.3 0-.8-.5-1.1-1-.3-.6-.1-1 .4-1 .6 0 1.1.4 1.1 1zm11 .6c0 .9-.5 1.4-1.2 1.2-1.8-.6-2.1-2.8-.4-2.8.9 0 1.6.7 1.6 1.6zm75 2.9l2.4 2.5-2.1 2.1c-2.1 2.2-9.9 3.3-11 1.6-.5-.8 6.4-8.7 7.7-8.7.4 0 1.7 1.1 3 2.5zm-100-.3c0 .7-.5 2-1 2.8-.8 1.3-1.1 1.3-2.6-.2-.9-.9-1.3-2.1-1-2.7 1-1.5 4.6-1.4 4.6.1zm21.8 1.2c.3 1.3-.1 1.7-1.4 1.4-1.1-.2-2-1.1-2.2-2.2-.3-1.3.1-1.7 1.4-1.4 1.1.2 2 1.1 2.2 2.2zm26.2-.3c0 .6-.4.7-1 .4-.5-.3-1-1.1-1-1.6 0-.6.5-.7 1-.4.6.3 1 1.1 1 1.6zm-57 3.3c-1.5 1.5-3.2-.7-2.4-2.9.7-1.7.8-1.7 2.1.1.9 1.2 1 2.1.3 2.8zm143.5 7.1c2.1 3 4.2 5.5 4.5 5.5 1 0 8.7 10.2 12 15.7 2.9 4.7 6.7 9.5 15.3 19.1 8.2 9.2 8.3 9.6 4.4 12.1l-3.2 2.1-3-3.7c-1.6-2.1-5.7-6.7-9.1-10.3-3.3-3.6-8.7-9.9-11.9-14-3.3-4.1-9.2-11.2-13.2-15.8-4-4.5-7.3-9.1-7.3-10.1 0-1.9 4.5-6 6.6-6.1.6 0 2.9 2.5 4.9 5.5zm40.1-3.3c.4 1.3 2 3.5 3.6 5l2.9 2.7-2.8 3.8c-5.9 8.1-9.6 12.2-13.8 15.2l-4.3 3.1-2.4-3c-1.3-1.7-3.8-4.7-5.5-6.8-1.8-2-3.3-4.4-3.3-5.3 0-2.1 4.6-6.2 10-8.9 2.5-1.2 5.3-2.9 6.3-3.8 2.2-1.9 5.9-4 7.4-4.1.6-.1 1.5.9 1.9 2.1zm-181.1 4.6c-.5 1.4-.7 1.4-2.2-.1-1.5-1.5-1.5-1.8.3-3.8l1.9-2.1.3 2.2c.2 1.2.1 2.9-.3 3.8zm6.8-2.8c.6 2.5-.9 3.6-2.8 2-1.1-.9-1.2-1.7-.4-3.1 1.2-2.3 2.4-1.8 3.2 1.1zm110.3 2.5c1.8.4 4 .2 5.3-.4 1.6-.9 1.9-.9 1.5.2-.2.7.7 2.4 2.1 3.7 1.4 1.3 2.5 2.7 2.5 3 0 .8-26.1.3-34.7-.6-2.9-.3-5.3-1-5.3-1.5s.9-2.2 2-3.7l2-2.7 10.8.6c5.9.4 12.1 1 13.8 1.4zM151 290.7c16.2 4.3 15.3 3.3 12 12.6-1.1 3.1-2 6.3-2 7.1 0 3.3-2.6 3.9-11.1 2.5-8-1.3-12.1-3-10.6-4.5.4-.5 2.1-.3 3.7.3 2.3.9 3.2.8 4-.3 1.9-2.1.2-3.4-4.6-3.4-4 0-4.4-.2-4.4-2.5 0-2.1 1.1-7.8 2.6-13.3.3-.9 1.1-1.1 2.6-.6 1.3.4 4.8 1.3 7.8 2.1zm52-1.7c.5 0 3.2 2 6.1 4.5 2.9 2.5 5.8 4.5 6.3 4.5.6 0 2.1.8 3.4 1.8l2.3 1.8-5.2 7.7c-2.8 4.2-5.3 7.7-5.5 7.7-.2 0-2.7-1.5-5.6-3.4-2.9-1.8-7.2-4.3-9.6-5.5-2.3-1.2-4-2.6-3.7-3.1.3-.5 2.4.1 4.5 1.5 4.6 2.9 5.6 3 6.3 1.1.7-1.7-.5-2.8-5.1-4.6-5.1-2-6.4-3.7-5.1-6.3 1.9-3.7 7.3-8.8 8.7-8.2.8.3 1.7.5 2.2.5zm41.7 3c.4 2.1-1.3 4.4-2.6 3.6-.6-.4-1.1-1.8-1.1-3.2 0-1.9.5-2.5 1.7-2.2 1 .2 1.9 1 2 1.8zm80.2 5.6l2.2 3.6-4.8 5.7c-5.7 6.6-25 28.2-26.7 29.6-.6.5-2.4 2.6-4 4.5s-7.2 8.2-12.6 14c-5.4 5.8-11.4 12.4-13.4 14.8-2 2.4-4.4 5.1-5.4 6-1 .9-5.9 6.2-10.8 11.7-11.1 12.4-36 39.3-39 42-1.2 1.1-5 5.1-8.5 9-3.4 3.8-13.1 14.2-21.4 23-8.3 8.8-16.7 17.8-18.7 20-3.3 3.7-11.8 9.5-11.8 8 0-1.2 19.3-23 42-47.4 7.4-8 15-16.4 16.9-18.6 1.8-2.2 6.1-6.9 9.6-10.5 6.2-6.6 11.8-12.8 21.2-23.5 11.4-13.1 23.9-27.4 30.3-34.5 3.7-4.1 9.1-10.4 12.1-14 2.9-3.6 10.1-11.9 15.9-18.5 5.9-6.6 13.7-15.7 17.4-20.3 3.7-4.5 6.9-8.2 7.1-8.2.2 0 1.3 1.6 2.4 3.6zm-145.7.3c3.7 1.1 7.2 2.2 7.7 2.5 1.4.9 0 3.9-13.7 30.3-19.1 36.4-26.2 50.3-29.8 57.5-3.5 7.1-5.9 9.8-4.4 5.1.5-1.6 2.9-9.6 5.4-17.8 2.5-8.3 6.3-21.1 8.6-28.5 2.3-7.4 5.3-17.6 6.7-22.5 1.5-5 3-9.5 3.3-10 .4-.6 1.9-4.9 3.4-9.8 3.1-9.9 2.7-9.7 12.8-6.8zm174.8-.3c6.9.8 13.9 1.6 15.5 1.6 3 .1 5.5 1.4 5.5 2.9 0 .5-3 .7-6.7.6-6.3-.2-6.8 0-6.9 2-.1 1.1-2 3.8-4.3 5.9-2.2 2.1-4.1 4.4-4.1 5.1 0 2.4-2.8 2.6-9.8.8-7.6-2-9.4-3.1-7.3-4.5 1-.5 2.5-.3 4.2.6 4 2 4.9-.2 1.3-3.1l-2.9-2.3 3.3-3c1.7-1.6 3.2-3.2 3.2-3.5 0-.7-8.2-2.5-10.9-2.4-1.3.1-2.6-.4-2.8-1.1-.6-1.7 7.2-1.6 22.7.4zm-16 5.1c0 .3-1.8 2.5-4 4.9-2.2 2.4-4 4.9-4 5.6 0 1.4-15.2 18.7-17.7 20.1-1.5.9-5.3-1.7-5.3-3.6 0-.9 11.1-14.1 13.1-15.7.4-.3 2.7-3 5.3-6 2.8-3.3 5.8-5.7 7.4-6.1 2.7-.5 5.2-.1 5.2.8zm30.8 4.5c.8.8 0 2.1-3.4 5.1-3.6 3.1-4.5 4.5-4.2 6.7.2 2.4-1.1 3.9-9.6 11.1-16.6 14-27.4 22.9-28 22.9-2.4 0 1.5-4.7 15.2-17.9 8.6-8.4 16.4-15.9 17.2-16.6.8-.8 3.5-3.9 6-6.9 4.8-6 5-6.2 6.8-4.4zm15.4 5.7c1.2 2 3.9 5.5 6.1 7.8l4.1 4.3-2.3 2.4c-1.3 1.4-3.9 3.2-5.8 4.1-4.1 2-5 1.4-8.9-5.3-1.5-2.6-3.8-6-5.1-7.5-3.6-4.4-3-7.1 1.9-10.1 4-2.3 4.4-2.4 6-.9 1 .9 2.8 3.3 4 5.2zM234 309.4c.8 1 .8 2.1.2 3.2-.9 1.6-1 1.5-1.7-.5-1.1-3.4-2.5-2.1-4.7 4.4s-2.1 14.2.2 17c2 2.4 2.9.8 1.9-3.7-.6-2.3-.7-5.5-.3-7.2.4-1.7.7-3.6.6-4.2-.1-.6.4-1.6 1.1-2.2 1.1-1 1.4.3 1.4 7.1.1 13.1.1 13.3 2.8 15.1 3.7 2.4 21.3 6.9 24.7 6.2 3.2-.6 3.5 0 1.1 2.6-1.9 2.1-7.6 2.4-13.3.7-2.5-.8-5.1-.8-7.6-.2-3.4.7-3.8 1.2-3.9 3.8 0 4.2-2.8 4.3-6.4.3-1.7-1.8-3.1-3.8-3.1-4.5 0-.6-1.3-2.2-2.8-3.5-4.2-3.5-4.2-3.8-2.6-12.4.8-4.3 2-10.8 2.6-14.4.6-3.6 1.2-7.1 1.4-7.8.5-1.7 6.9-1.5 8.4.2zm-40.4 1.9l2.7 2.4-4 7.4c-2.2 4.1-7 12.6-10.5 18.9-3.5 6.3-11.3 20.3-17.3 31-5.9 10.7-12.8 23.1-15.3 27.5-8.4 15-12.9 23.4-34.9 65.5-9.8 18.7-12.5 23-14.4 23-1 0-1.9-.5-1.9-1 0-1.2 33.8-68.8 47-94 5.3-10.2 13.9-26.6 19-36.5 16.1-31.3 24.5-46.5 25.7-46.5.7 0 2.4 1.1 3.9 2.3zm25.8 3.9c-.4 1.3-.7 2.5-.6 2.8 0 .3-1.1 2-2.5 3.8-1.8 2.4-2.4 4.2-2.1 6.3.5 3.3-.7 4-1.7.9-.3-1.1-1.1-2-1.6-2-.6 0-.9-1.2-.7-2.8.3-2.3.7-2.7 3.1-2.5 1.7.1 2.7-.3 2.5-1-.2-1.7 3.1-9.1 3.8-8.4.3.3.3 1.6-.2 2.9zm-76 .1c1.7 1.2 1.4 2.6-3.9 23.2-3.1 12.1-6.5 24.9-7.7 28.5-1.8 5.9-3.7 12.9-7.3 26.5-.7 2.7-4.3 15.6-7.9 28.5-3.7 12.9-7.8 27.8-9.3 33-2.6 9.7-8.4 23.3-10.4 24.6-.7.4-.9 0-.6-1.2.3-1.1 2.7-10 5.2-19.9 2.6-9.9 6-23 7.6-29 1.6-6.1 6.3-24.5 10.4-41 4.1-16.5 8.2-32.3 9-35 .8-2.8 2.4-8.6 3.5-13 1.2-4.4 3-11.6 4.1-16 1.2-4.4 2.2-8.6 2.5-9.3.4-1.6 2.5-1.5 4.8.1zm296.5 2.3c2.8 3.5 2.9 9.9.2 11.4-3.7 1.9-8.1 1.2-11.2-1.9-1.6-1.6-2.9-3.6-2.9-4.3 0-2.4 2.6-5 6.1-6.3 5-1.8 5.6-1.8 7.8 1.1zm-236.9-.1c1.7.9 3 1.8 3 2.2 0 .7-11 19.3-22 37.3-.5.8-3.5 6-6.6 11.5-14 24.6-26.1 45.9-32.1 56-3.5 6-7 11.9-7.6 13-.6 1.1-3 5.4-5.3 9.5-11 19.4-13.9 24.1-18 28.6l-4.4 4.9 6.3-12.5c11-21.5 18.9-36.4 20.3-38.1.8-.8 1.4-1.9 1.4-2.2 0-.4 2.1-4.4 4.6-8.9 4.8-8.5 6.6-11.7 13.6-24.8 15-27.8 43.1-78 43.6-78 .2 0 1.6.7 3.2 1.5zm168.9 6.8c1.7 3.5 4.2 7.6 5.5 9 2.4 2.6 2.4 3.5-.1 1.9-1.8-1.1-12.3-15.5-12.3-16.8 0-1.8 1.2-2.4 2.5-1.4.7.6 2.6 3.9 4.4 7.3zm-214.2-6c.1.2-1.8 6.8-4.3 14.8-2.5 7.9-5.9 18.9-7.5 24.4-2.8 9-11 35.3-14.5 46.3-.8 2.3-1.7 6.1-2 8.5-.6 4-14.3 33.1-15.2 32.2-.2-.2 1-5.5 2.8-11.7 1.7-6.2 6-21.7 9.5-34.3 3.5-12.7 8.4-30.2 11-39 2.6-8.8 5.8-20.3 7.1-25.5 5-19.1 3.9-17 8.6-16.4 2.3.2 4.3.6 4.5.7zm178.3-.2c0 1.5-4.7 6.7-22.5 24.9-7.7 8-18.1 19-23 24.5-5 5.5-13.1 14.3-18.1 19.5-5.1 5.2-12.7 13.3-17 18-13.9 15.3-47.5 48.1-48.4 47.5-.6-.4-1-1.1-1-1.6s8-9.1 17.8-19.2c22.5-23.1 64.4-67.3 74.2-78.3 20.8-23.2 33.6-36.3 35.8-36.3 1.2-.1 2.2.4 2.2 1zm-51.2 1.6c-.5 2.5-2.8 2.8-2.8.4 0-1.2.6-2.1 1.6-2.1.9 0 1.4.7 1.2 1.7zm59.1 1.2c.7.5 1.2 1.3 1 1.9-.2.6-6.7 7.6-14.4 15.5-7.7 8-21.6 22.5-31 32.2-26.9 28-65.3 66.5-86.4 86.6-31.4 29.8-31.1 29.6-31.1 26.8 0-.6 16.1-17.4 35.8-37.3 19.6-19.8 43.8-44.7 53.7-55.1 9.9-10.5 24-25.2 31.5-32.8 7.4-7.6 18.9-19.4 25.4-26.2 6.6-6.9 12.4-12.5 13-12.5.6 0 1.7.4 2.5.9zm23 7.5c1.2 1.8 2.1 3.7 2 4.2 0 .5-3.9 4.1-8.7 8.1-4.8 3.9-13.2 10.9-18.7 15.5s-11.8 9.7-14 11.3c-2.2 1.6-7.8 6.5-12.5 10.7-4.7 4.3-10.1 8.9-11.9 10.2-1.9 1.4-8.6 7.2-15 12.9s-17.5 15.3-24.6 21.3c-7.2 6-18.5 15.4-25 20.9-14.6 12.2-32.4 26.5-33.1 26.5-.6 0 74.9-75 84.4-83.8 3.7-3.4 7-6.2 7.3-6.2.9 0 22-18.7 23.5-20.8.7-1 3.2-3.1 5.6-4.7 2.4-1.6 7.2-5.5 10.8-8.6 11.3-9.8 25.5-20.9 26.7-20.9.6 0 2.1 1.5 3.2 3.4zm-158.5 1.7c-2.3.8-4.1 2.8-4.6 4.9-.2.8-.6 1.8-1.1 2.1-.4.3.4 1.1 1.7 1.9 2.1 1.1 2.7 1 4-.3.9-.9 1.2-1.8.7-2.2-.5-.3-.9-1.4-.8-2.5.1-1.5.4-1.7 1.6-.7 1.2.9 1.3.9.7-.1-.5-.8.1-1.2 1.9-1.2 2.5 0 2.5.1 2 5.5-.3 3.2-.1 5.6.5 5.6.6.1 1.5.2 2.2.3 1.5.1 2.2 2.3.9 3.1-1.7 1-1.3 4.2.6 5 1.2.4 2.4-.1 3.5-1.5 2.3-2.8 2.3-1.3.1 4.1-1.5 3.8-1.7 4-2.4 2.1-.5-1.2-1.5-2.2-2.3-2.2-.9 0-2-.8-2.5-1.8-.7-1.4-2.1-1.8-5.3-1.8-3.7.1-4.4.4-5.2 2.9-.7 2-.7 3.3.2 4.5.7.9 1.6 2.7 2.1 3.9 1.1 2.3 3.1 4 3.1 2.4 0-1.1 6.9-3.6 7.7-2.7.3.3.2 1.7-.1 3.1-.6 2.3-1 2.5-4 1.9-2.8-.5-3.6-.2-4.5 1.4-1.2 2.3.9 4.9 3 3.6.9-.5 1-.2.4 1.2-.4 1-1 3.4-1.3 5.2-.3 2.6-.7 3-1.7 2.2-1-.8-1.9-.8-3.4 0-2.3 1.2-2.3 1.2-1.5 3.4.7 1.8 3.9 2.2 4.9.6.4-.6 1.6.4 2.9 2.2 2.4 3.6 6.9 4.8 10.6 2.8 2.9-1.5 2.5.2-.7 3.3-1.6 1.5-5.3 5.7-8.3 9.4-3 3.7-8.3 9.6-11.7 13.2-3.5 3.7-7.3 8-8.5 9.7-2.9 3.9-12.5 14.4-13.2 14.4-.3 0-.1-1.1.4-2.4.7-1.8.5-2.8-.6-3.7-1-.8-1.3-2-.9-3.3.3-1.2.7-3.6.8-5.5.1-1.9.8-3.6 1.6-3.9.8-.3 1.1 0 .7.7-.4.7 0 1.1 1.1 1.1s2.4.5 3 1.1c.9.9 1.6.8 2.8-.5.9-.9 2.1-1.6 2.6-1.6.6 0 .7-.6.2-1.3-.4-.6-.8-2.6-.8-4.2-.1-2.3-.8-3.3-2.9-4.3-2.9-1.5-5.1-.7-2.6.8 1.3.8 1.3 1.1.1 2.2-1 1-1.2 1-.7 0 .9-1.6.1-1.5-3.5.3-1.6.9-3.3 1.4-3.7 1.1-1.1-.7.5-17.7 1.8-19 .7-.7 1.4-.4 2.4.9 1.3 1.8 1.4 1.8 2.7-.3.8-1.2 1.9-2.2 2.6-2.2.7 0 1.3-.5 1.3-1 0-2 .2-2.5 1.3-3.8.6-.7.6-1.2.1-1.1-.5.1-2.1-.3-3.6-1.1-2.1-1-3.1-1-4.2-.1-1.7 1.5-3-.1-2.2-2.7.3-.9 1-5.1 1.6-9.2.5-4.1 1.7-9.2 2.6-11.2 1.6-3.5 1.8-3.6 3.9-2.2 2 1.3 2.3 1.3 2.8-.1.4-.8 1.2-1.5 1.9-1.5.9 0 .9.3-.2 1.1-1.3.9-1.3 1 0 .6.8-.2 1.6-.9 1.6-1.5.1-.7.2-1.8.3-2.5.1-.8.4-.7 1.1.3.7 1.1 1 1.1 1 .2 0-1.7-2.7-6.9-3.9-7.4-1.1-.4 6.8-13.9 11.5-19.6 2-2.4 4-3.9 4.6-3.6.7.5.4 1-.8 1.5zm226.4 5.5c1.1-.4 2.4-.1 2.9.6 1.3 1.7 3.1 9.1 3.7 14.8.3 2.5.9 8.1 1.5 12.5.5 4.4 1.2 9.9 1.4 12.2l.5 4.1-9 .7c-5.9.5-9.3.4-10-.3-1.9-1.9 1.4-41.5 3.7-45.2.5-.8 1.1-.7 2 0 .8.7 2.3.9 3.3.6zm-130.4.3c2 3.2-10.9 20.1-15.3 20.1-1.2 0-2.1.3-2.1.7 0 .5-1.1.8-2.5.8-2.9 0-2.9 0-1-2.3 16.9-19.4 19.4-21.7 20.9-19.3zm76.3 6.3c5.3 4.9 1 14.4-5.9 13.2-4.9-1-7.8-4-7.8-8.5 0-5 1.3-5.8 9.9-6.8.8 0 2.5.9 3.8 2.1zm-21.9 12.6c-1.7 1.5-4.4 3.6-5.9 4.7-3.8 2.8-21 16.8-30 24.5-4.2 3.6-10 8.3-12.9 10.5-2.9 2.2-8.5 6.7-12.5 10s-9.6 7.8-12.4 10c-2.8 2.2-8 6.6-11.4 9.7-3.5 3.2-9.2 8.1-12.7 10.8-3.4 2.8-9 7.5-12.4 10.5-3.4 2.9-8.7 7.3-11.8 9.7-3.1 2.4-11 8.3-17.5 13.3-6.5 4.9-14.7 11.3-18.2 14.2-8.4 6.8-13 7.4-5.6.7 8.2-7.5 33.2-28.6 38.9-32.9 4.5-3.4 17.1-13.8 33.7-27.9 2-1.7 7.1-6 11.4-9.6 4.3-3.6 10.6-9 14-12 3.4-3 15.6-13.4 27-23s25.1-21.2 30.4-25.7l9.6-8.2.7 4c.7 3.8.5 4.3-2.4 6.7zM247 353c2.4 1.5.7 1.9-2 .5-1.5-.8-1.9-1.4-1-1.4.8-.1 2.2.3 3 .9zm118.3 2.7c.4.3.2 1.2-.4 2-1.9 2.3-3.8 18-3.9 31.9 0 8.8-.4 13.6-1.3 14.7-1.3 1.9-4.4 2.3-17.5 2.6-7.7.1-8.3.3-9.3 2.5-1.3 2.9-.6 6.8 1.7 9.1 1.3 1.3 3.4 1.5 10.8 1.3 5-.1 9.7.1 10.5.6 1.1.7 1.3 3.2.9 11.8-.5 10-.4 11 1.6 13.5 2.1 2.7 2.1 3.7 2.4 42.4.3 40.2.1 42.7-3.3 39.9-1-.9-1.9-.9-3.5 0s-2.5.8-3.6 0c-2-1.7-4.4-.5-4.4 2.3 0 2.2.4 2.4 6.6 2.5 3.6.1 7 .5 7.5.8.5.3.9 4.5.9 9.4 0 6.7-.3 8.9-1.4 9.3-1.5.6-2.6 2.1-15.8 22-4.2 6.3-8.5 12-9.5 12.5-2.1 1.2-4.6 14-3.1 15.8.8 1.1-.4 4.8-3.3 10.6-.5 1-.9 2.8-.9 4 0 1.1-.8 3.9-1.7 6l-1.7 3.9-6.7-.7c-4.4-.4-7.3-.2-8.9.6-3.8 2-4.9-.4-1.7-3.8 1.5-1.5 2.7-3.2 2.7-3.6 0-.4.9-1.9 2-3.3 2.6-3.3 2.5-5.9-.1-8.1-7.4-5.9-9.1-8-12.7-15.5-3.8-7.8-7.2-20.2-7.2-26.5 0-1.6-.3-3.2-.6-3.5-.4-.4-.9-4.2-1.1-8.4-.2-4.3-.8-9.3-1.4-11.1-.6-1.8-.8-5.4-.4-8.1.4-3.2-.2-9.9-1.9-20.5-1.4-8.6-2.6-17.8-2.6-20.5 0-5.1 1.1-6.2 7-7.5 7.4-1.6 14.2-11.9 16.5-25.4.8-4.2 2.3-10.4 3.5-13.7 1.1-3.3 2.7-8.5 3.6-11.5.8-3 2.1-7.5 2.9-10 .8-2.5 1.6-9.2 1.8-15 .3-5.8 1.1-13.1 1.7-16.2 1.4-6.4.8-5.8 24.5-24.5 6.1-4.7 12.7-10.1 14.8-12 3.8-3.3 4.8-3.8 6-2.6zm-115.9 2.4c-.6 1.1-2.4.2-2.4-1.1 0-.5.7-.7 1.5-.4.8.4 1.2 1 .9 1.5zm68.6-.3c0 .4-.9 1.3-2 2-1.9 1.2-2 1.1-.8-.8 1.3-2 2.8-2.7 2.8-1.2zM210.5 359c-.3.5-1.2 1-1.8 1-.7 0-.6-.4.3-1 1.9-1.2 2.3-1.2 1.5 0zm164.7 1.7c2.4.5 2.8 1.2 4.1 7.7 2.7 12.4 3.9 22.9 3.5 29.6l-.3 6.5-7.9.3c-5.7.2-8.2-.1-8.7-1-2.1-3.3.2-39.8 2.7-43.9.3-.6 1.3-.7 2.3-.4.9.4 2.8.9 4.3 1.2zM282 362c.9 1.6.6 2.6-1.2 5.1-2 2.7-7.6 7.6-10.3 8.9-4.7 2.4-8.5 5.4-7.5 6 .7.4.2 1.3-1.4 2.4-1.5.9-2.5 2.4-2.3 3.5.3 2.3-27.9 32.1-30.3 32.1-.9 0-2.2 1.1-2.8 2.5-.6 1.4-1.6 2.5-2.2 2.5-.5 0-1 .6-1 1.3 0 1.4-15.7 17.2-17 17.2-1.2 0-2.5 1.5-2.5 2.8 0 .7-.8 1.3-1.7 1.5-2.8.5-2.1-1.1 2.5-6 14-15.1 28.9-31.1 33.7-36.3 3-3.3 5.7-6.2 6-6.5.6-.5 16-17.7 19.8-22 7.4-8.4 15.6-17 16.3-17 .5 0 1.3.9 1.9 2zm-50.5 1c0 .7-.6 1.5-1.2 1.7-.8.3-1.3-.4-1.3-1.7 0-1.3.5-2 1.3-1.8.6.3 1.2 1.1 1.2 1.8zm11.5 0c0 .5-.2 1-.4 1-.3 0-.8-.5-1.1-1-.3-.6-.1-1 .4-1 .6 0 1.1.4 1.1 1zm-19.4 3.7c-1 1-1.9-.5-1-1.8.6-1.1.8-1.1 1.2 0 .2.7.1 1.5-.2 1.8zm1.9 6.3c-.3.5-1.3 1-2.1 1s-1.4-.5-1.4-1c0-.6.9-1 2.1-1 1.1 0 1.7.4 1.4 1zm6.5 6.7c0 1.2-6 7.7-6 6.5 0-1 4.8-7.2 5.6-7.2.2 0 .4.3.4.7zm-56.4 7.3c-.9 1.6-1.6 4.4-1.6 6.4s-.5 3.6-1.1 3.6c-.6 0-.8-.7-.5-1.7.4-.9-.4-.5-1.8 1s-2.7 4.2-3 6c-1.8 14.3-1.8 14.3-6.3 15.2-1 .2-2 .4-2.2.4-.2.1.2.8.9 1.6.7.9 1 1.8.6 2.2-.3.3-.6 0-.6-.7 0-1.1-.3-1.1-1.2-.2-.9.9-.4 2.4 2.1 6.3l3.2 5.1-2.6 3.4-2.5 3.3 2.2 1.6c1.3 1 1.6 1.5.8 1.2-.8-.2-2.3 0-3.3.5-1.3.7-2.3.3-4.1-1.6-2-2.3-2.9-2.5-7.5-2-2.9.2-5.1.1-4.9-.4 1.6-4.1 6.5-12.2 7.4-12.2.6 0 3.6-2.5 6.6-5.5 3-3 5.2-5.5 4.9-5.5-.3 0 0-.5.7-1.2 1.5-1.5 1.5-5.1 0-6.6-.9-.9 0-3.1 3.9-9.4 2.7-4.6 6-10.2 7.3-12.6 2-3.5 2.5-4 3.3-2.6.7 1.2.5 2.5-.7 4.4zm44.4-3.4c0 1.6-1.6 1.9-2.5.4-.8-1.3.4-3.2 1.6-2.5.5.4.9 1.3.9 2.1zm249.8-.7c1.9.1 2.2.7 2.2 4v4l-5.2 1c-6.5 1.2-68.9 2.4-70.4 1.4-1.8-1.3-2.5-5.9-1.1-7.1 1.3-1.1 13.1-1.9 43.7-2.7 10.7-.4 19.6-.7 19.7-.9.2-.2 5-.1 11.1.3zM183 391.4c0 .2-.7.7-1.6 1-.8.3-1.2.2-.9-.4.6-1 2.5-1.4 2.5-.6zm131.4 12.3c-.7 16.8-1.7 21.7-8.8 42.3-1.4 4.1-2.3 8.3-2 9.2.3 1-1 5.8-2.8 10.7-3.1 8.5-3.6 9.2-7.9 11.6-5.4 2.9-5.9 3-5.9 1 0-.8-.4-1.5-.9-1.5s-1.4.7-2.1 1.5c-.7.8-1.9 1.5-2.6 1.5-.8 0-1.4.4-1.4 1 0 .5-.7.7-1.5.4-1.6-.6-7.5 1.6-7.5 2.8 0 .4-.7.5-1.5.2-.8-.4-1.7.1-2.1 1-.5 1.3-.9 1.4-2 .5-1.3-1.1-1.9-.2-1.5 2.3 0 .5-.6.8-1.4.8-.8 0-1.5-.5-1.5-1 0-1.7-2.7-1.1-4.1.9-.9 1.2-3 2.1-5.9 2.5-2.5.3-4.6.5-4.8.5-.2.1 0 .5.3 1.1.3.5 0 1-.8 1s-2 .7-2.7 1.5c-1.3 1.6-6.5 2.1-5.6.6.3-.5-.6-1.7-2-2.6-1.5-.9-2.3-1.2-2-.6.4.7-.1 1.1-1.3 1.1-1.4 0-1.9-.5-1.5-1.5.4-.8-.1-1.7-1-2.1-.9-.3-1.6-1-1.6-1.5 0-.6.8-.5 1.9.1 2.5 1.3 3.8-.5 1.4-1.8-1.2-.7-2.4-.5-4 .5-2.5 1.6-3.1 3.5-1 3.2 2.7-.3 3.5.2 3.3 2.6 0 1.4-.6 2.7-1.3 2.9-1.6.6-2.7-1-1.3-1.9.5-.3 1-1.1 1-1.7 0-.6-.9-.3-2 .7-1.4 1.2-1.7 2.1-.9 2.5.7.5.5 1.3-.6 2.4-1 .9-1.9 1.5-2.2 1.2-.8-.8.9-7.6 1.8-7 .5.3.6-.2.3-1-.7-1.8-2.4-2.1-2.4-.5 0 .6-.7.8-1.6.5-1.4-.5-1.5-.4-.4.9.7.8.8 1.5.3 1.5-1.6 0-3.5-5-2-5.1.6 0-1.2-.7-4.2-1.5-9.4-2.5-9.4-3 .5-7.8 8.9-4.4 11.9-4.2 17.1 1 3.5 3.5 6.3 4.4 6.3 2 0-1.5-8.4-9.6-10-9.6-.5 0-1-.7-1-1.4 0-1.3.5-1.3 3.8.1 2 .8 4.9 2.4 6.4 3.4 1.4 1.1 2.9 1.9 3.2 1.9 1.2 0 .6-2.3-1.4-5-2.3-3.2-1.7-4 3.5-4.2 1.9-.1 3.5-.5 3.5-1 0-.4.5-.8 1-.8.6 0 .5.8-.2 1.9-1 1.6-1.5 1.8-2.7.8-1.2-1-1.2-.9-.1.9 2.1 3.3 7.9 1.5 7.8-2.4 0-.9.9-4.2 2-7.2 1.7-4.6 1.8-5.8.7-8-1.6-3.2-.4-6.7 3-8 1.4-.5 2.5-1.6 2.5-2.4 0-.9 2.8-3.7 6.2-6.3 3.3-2.6 8.2-6.6 10.7-8.9 7.6-6.8 17.4-14.4 18.5-14.4.6 0 .5.4-.2.9-1.1.7-1.1.9.2 1.4.9.4 1.6.1 1.6-.6s.9-1.3 2-1.4c1.9-.2 1.9-.1.2 2.2-.9 1.3-2.1 2-2.5 1.5-1.1-1-4.7-.1-4.7 1.2 0 .5 1.4 1.4 3 1.9 1.7.6 3 1.5 3 2 0 1.3-1.8 1.1-2.3-.4-.4-.9-.6-.9-.6 0-.3 3.7 4.8 2.1 5.6-1.8.3-1.6.8-2.9 1.2-2.9.3 0 .6-1.7.6-3.9.1-3.2-.1-3.6-1.3-2.5-1.5 1.6-3.5 1.9-3 .5.4-1.1 15-14 15.9-14.1.3 0 .5 3.5.3 7.7zm134.4-.6c.3 7.3-.2 7.9-7.2 7.9-2.5 0-2.8.3-2.4 2.4.4 2 0 2.5-2.5 3-4.6.9-10.7.7-10.7-.4 0-.6 1.3-1 2.9-1 1.7 0 3.3-.5 3.7-1.2.9-1.5-3.5-5.1-5.4-4.3-2.7 1-4.2-1.5-4.2-7 0-2.8.3-5.4.6-5.8.3-.3 6.1-.5 12.8-.4l12.1.2.3 6.6zm-36 5.1c.7.7 1.2 2.5 1.2 4 0 2.6-.3 2.8-3.7 2.9-2.1 0-4.9.2-6.3.4-4.9.6-49.7 2-57.5 1.8-9.9-.3-10.5-.5-10.5-4.2 0-3.4 1.6-4.2 7.7-4.1 4.8 0 65.4-1.6 66.9-1.8.5-.1 1.5.3 2.2 1zm34.7 6.7c.8 1.4-1 2.2-3 1.5-1.3-.5-1.4-.8-.3-1.5 1.7-1.1 2.6-1.1 3.3 0zM184 416.4c0 .3-.4.8-1 1.1-.5.3-1 .1-1-.4 0-.6.5-1.1 1-1.1.6 0 1 .2 1 .4zm237.5 16.7c.3 6.8.7 39.3 1 72.2.6 58.1.6 59.8-1.2 58.6-1-.6-3.5-3.4-5.6-6.1-3.3-4.5-3.7-5.7-3.7-10.9 0-5.6 1.1-7.7 2.4-4.4.5 1.5 5.7 2.1 6.9.8 1.2-1.1-5.7-7.3-8.1-7.3-1.3 0-2.2-.6-2.1-1.3.3-2.6-.2-3.7-1.6-3.7-2.4 0-3.1 3.1-1.1 4.5 1.1.8 1.3 1.5.7 2-.6.3-1.1 3.8-1.1 7.7v7.1l-4.7 4.9c-14.7 15.1-17.7 17.8-18.5 17-.9-.9-2-124.4-1.1-126.8.3-.8 1.2-1.4 1.9-1.4 2.3 0 3.1-3.7 3.2-15.4.1-6 .4-11.2.7-11.5.4-.3 6.3-.7 13.3-.9 7-.2 13.2-.5 13.7-.6.6-.2 1.8.4 2.8 1.4 1.6 1.4 1.9 3.7 2.2 14.1zm-37.7-6.4l.3 7.3h-3.3c-1.8 0-4 .5-4.8 1-1.3.9-1.2 1.2.4 2.5 1.1.8 3.3 1.5 4.9 1.5 1.9 0 2.7.4 2.4 1.2-.4 1.3-1.7 1.3-9.4.2-3.3-.5-4.3-1-4.3-2.5s-.7-1.9-3.4-1.9c-4.8 0-5.8-1.8-5.3-9.2l.4-6.3 8.4-.6c14.4-1 13.4-1.5 13.7 6.8zm47.6-5.9c1.4 2.3 2.5 319.9 1.1 322.2-.4.6-1.4 1-2.3.8-1.5-.3-1.6-5.8-1.8-58.7-.1-32.2-.5-69.8-.9-83.5-.7-28.4-1.1-53.9-2-127.4-.5-39.5-.4-51.6.5-52.7 1.3-1.6 4.6-2 5.4-.7zm10.8.2c2 0 2 .3 1.4 19.2-.3 10.6-.8 54.6-1.1 97.8-.5 85-1.1 135.6-2.2 174-.7 30.1-.8 30.3-1.9 30.7-.5.2-1-31.1-1.2-77.6-.1-42.9-.4-88.7-.7-101.8-.2-13.1-.5-50-.5-82-.1-41.2-.5-58.5-1.3-59-1.3-.8 2.2-2.3 4.1-1.7.8.2 2.3.4 3.4.4zm-278.6.9c-.4.5-.3 1.1.1 1.4.5.2.3.3-.3.1-.6-.1-1.8.3-2.5.9-.7.7-.5.2.5-1.1 1.9-2.2 3.2-3 2.2-1.3zm12.4 2.8c0 1.9-.3 2.4-1 1.7-.6-.6-.8-1.8-.4-2.7.9-2.4 1.4-2.1 1.4 1zm-29.1 20.9c.6 1.5.9 2.9.7 3.2-.3.2-.1 1.3.5 2.4.7 1.4.7 2.3-.1 3.4-.7.7-.9 2.1-.6 3 .3.8-.1 2.2-.9 3-.8.9-1.5 2.6-1.5 3.9 0 3-1.8 4.2-3.6 2.3-1.3-1.3-1.2-1.8.7-4.1 2.1-2.7 2.1-2.8.2-6-3-5.1-3.3-7.4-1.2-9.3 1-.9 1.9-2.3 1.9-3.1 0-2.3 2.6-1.4 3.9 1.3zm225.2-.6c.6 0 .7.6.1 1.5-.4.9-.7 17.2-.5 36.3.6 84 1.4 157.5 1.8 179.2.2 12.9.1 36.8-.3 53l-.7 29.5h-5V709c0-34.4-1-98.9-2-125.5-.3-7.2-.7-30.3-1-51.5-.3-21.2-.8-48.9-1-61.5-.3-12.7-.2-23.5.3-24.1.8-1.4 4.1-2.3 6-1.8.8.2 1.8.4 2.3.4zm7.3 152c-.1 72.9-.6 134-1.1 138.5-.7 5.7-1-8.5-1.1-50-.1-55.7-.5-86.2-1.8-163.5-.4-19.5-.7-44.8-.8-56.2-.1-20 0-20.7 1.9-21 1.9-.3 2 .4 2.5 10.7.3 6 .4 69.7.4 141.5zM159.2 448.2c-.7.7-1.2.8-1.2.2 0-1.4 1.2-2.6 1.9-1.9.2.3-.1 1.1-.7 1.7zm-20.2 3.2c0 1.5-3.7 3.2-4.7 2.2-.3-.3-.3-1.2 0-2.1.8-1.9 4.7-2 4.7-.1zm108 2.1c-.7.8-1.7 1.5-2.3 1.5-.5 0-.2-.9.8-2 2.1-2.3 3.5-1.9 1.5.5zm-43 2.5c0 .5-.7 1-1.5 1s-1.5-.5-1.5-1c0-.6.7-1 1.5-1s1.5.4 1.5 1zm35.5 4c-.3.5-1 1-1.6 1-.5 0-.9-.5-.9-1 0-.6.7-1 1.6-1 .8 0 1.2.4.9 1zm-40.5.9c0 1.4-1.8 2.3-3 1.6-.6-.4-.8-1.1-.5-1.6.8-1.2 3.5-1.2 3.5 0zm35 5.2c0 .5-1.1.9-2.5.9-2.6 0-3.4-1.5-1.2-2.3 1.6-.5 3.7.3 3.7 1.4zm-50.8 1.1c-.7.7-1.2.8-1.2.2 0-1.4 1.2-2.6 1.9-1.9.2.3-.1 1.1-.7 1.7zm2.7 7.6c-8.9 9.4-10.5 10.7-11.4 9.2-.9-1.5 15.5-18 17.8-18 1.6 0 .2 2-6.4 8.8zM135 470c.8.5 1.1 1 .5 1-.5 0-1.7-.5-2.5-1s-1-1-.5-1c.6 0 1.7.5 2.5 1zm37.5 8.4c-2.5 3.3-4.5 4.6-4.5 2.9 0-1 6.3-7.4 6.8-6.9.2.3-.8 2.1-2.3 4zm-46.6-.3c2 1.9 2.1 2.2.7 3.8-.9 1-1.6 2.9-1.6 4.4 0 1.9-.8 3.1-2.9 4.1-1.6.9-3.2 1.2-3.6.8-.5-.4-.5-.2-.1.5 1.4 2.5-4.6 4.2-12.2 3.6-6.7-.5-7.4-.4-11.2 2.2-2.2 1.5-4.3 2.6-4.5 2.3-.3-.3 1.1-2.6 3-5.1 2.8-3.7 4.2-4.7 6.5-4.7 3.6 0 15.1-2.9 16.7-4.2 1.7-1.4.6-2.9-1.4-2.1-1 .4 0-1.2 2.1-3.5 4.5-4.8 5.4-5 8.5-2.1zm50.9 9.8c4.2.6 7.2 1.7 8.7 3.1 2 1.9 2.9 2 9.8 1.4l7.5-.7 2 4.5c1 2.4 2.2 6.6 2.6 9.2l.8 4.9-4.3-.6c-4.7-.6-9.9 1.1-13.4 4.3-2.2 2-11.7 5.4-17.7 6.3-3.2.5-3.7.3-4-1.6-.3-2-.8-2.2-5.5-1.9-8.5.6-8.7-1.1-.3-2.3 5.8-.8 7.6-1.4 7.8-2.8.3-1.4-.4-1.7-4.2-1.7-5.1 0-5.8-1-2.3-3.3 3.6-2.5 1.1-3.7-5-2.5-4.6.9-5.8.8-10.7-1.3-3.1-1.2-5.6-2.6-5.6-3 0-1.6 2-2 4.2-.8 4.2 2.3 11.4 3.7 13.3 2.6 1-.5 3.2-1.1 4.9-1.2 3.8-.3 5.3-3.6 3.7-7.8-1.5-4-3.6-4.3-9-1.3-6.7 3.6-9.7 3.4-3.9-.3 2.5-1.6 4.9-3.4 5.3-4.1.5-.8 2.1-1 4.9-.6 2.2.4 7 1.1 10.4 1.5zm-13.1 8.6c-.7 1.6-4.7 2.2-4.7.7 0-.9 4.2-3.2 4.9-2.6.2.2.1 1-.2 1.9zm-80.3 35.7c-23 38.6-21.5 36.1-22.1 35.5-.7-.7 2-5.6 9.4-17.5 3.6-5.7 9.2-15.7 12.5-22.3 3.2-6.5 6.4-12.1 6.9-12.5.5-.3 2.5-3.6 4.4-7.4 4-7.9 6.8-11.3 7.3-8.7.2.8-8.1 15.7-18.4 32.9zm41.5-28.5c-1.9 2.1-3.9 4.2-4.5 4.8-.6.5-2.1 2.5-3.3 4.2-1.2 1.8-2.5 3.3-2.9 3.3-.8 0-5.2-6.2-5.2-7.3 0-.3 3-2 6.8-3.7 3.7-1.7 7.8-3.7 9.2-4.5 3.8-2.1 3.7-.9-.1 3.2zm-32.9 1c0 1.6-3.3 6.4-4 5.7-.7-.8-1.4-4.8-1.1-6.5.1-.7 5.1.1 5.1.8zm53.5 2.1c3.3 1.1 6 3 5.3 3.7-.3.4-1.6.2-2.7-.5-1.2-.6-3.7-1.2-5.6-1.4-4.9-.3-7.1-2.6-2.4-2.5 1.8.1 4.3.4 5.4.7zM160 510c0 .5-.9 1-2.1 1-1.1 0-1.7-.5-1.4-1 .3-.6 1.3-1 2.1-1s1.4.4 1.4 1zm-26 1.1c0 1.2-19.4 22.8-21.8 24.2-3.3 2.1-1.8-.6 4.9-8.9 4-4.9 8.8-10.6 10.8-12.7 3.4-3.6 6.1-4.8 6.1-2.6zm6.4 1.7c.5.9-2.7 4.4-26.7 29.5-9.3 9.7-17.2 17.5-17.4 17.3-.9-.9 3.4-6.1 12.2-15.1 4.9-5 13.7-14.4 19.5-20.8 5.8-6.4 10.8-11.7 11.2-11.7.4 0 .9.4 1.2.8zm-38.9 3.9c.3 1.3.2 2.3-.3 2.3-1.7 0-3.4-2.9-2.8-4.7.8-1.9 2.1-.9 3.1 2.4zm44.3-.8c-.3 1-30.4 32.9-38.6 40.9-7.2 7.1-6.8 3.5.5-4.2 3.7-3.9 13.3-14 21.2-22.4 8-8.3 15.1-15.2 15.9-15.2.7 0 1.2.4 1 .9zm4.2 2.8c0 1-10.3 11.3-11.3 11.3-.4 0 1.6-2.7 4.5-6 4.9-5.6 6.8-7.1 6.8-5.3zm-68 3c0 1.7-6.8 14.2-17.7 32.3-11 18.4-7.7 10.5 8.6-20.3 6.9-12.9 9.1-15.9 9.1-12zm15.6.7c.8 3.2.1 7.2-1.1 6.9-1.3-.4-2.8-6.1-2.1-7.9.8-2.2 2.5-1.6 3.2 1zm8 4.2c-3 3.6-5.7 7.7-6.1 9.1-.7 3.1 1 5.3 4.1 5.3 3.9 0 3.5 1.5-2.2 7.1-3.1 3-7.1 7.5-9.1 10.1-1.9 2.7-3.9 4.8-4.3 4.8-.5 0 0-2.6 1-5.8 1-3.1 3-9.5 4.5-14.2 1.8-5.9 3.5-9.4 5.6-11.3 1.6-1.5 2.9-3.2 2.9-3.6 0-.5.7-2.5 1.5-4.5 1.3-3 2-3.6 4.5-3.6h3l-5.4 6.6zm364.4 1.5c0 1-.4 1.9-1 1.9-.5 0-1-1.2-1-2.6 0-1.4.4-2.3 1-1.9.6.3 1 1.5 1 2.6zM86 554.5c-9.1 28.3-11 34.7-11 36.1 0 1.4-2.8 3.9-3.6 3.1-.3-.3.2-2.9 1-5.9.9-2.9 4.8-16.3 8.7-29.8 3.8-13.5 7.7-26.1 8.6-28l1.6-3.5.8 3c.7 2.4-.5 7.2-6.1 25zm42.5-13.5c-4.3 4.4-8.1 7.7-8.3 7.5-.3-.2 3.1-4 7.4-8.4 4.3-4.4 8.1-7.8 8.3-7.5.3.2-3.1 4-7.4 8.4zm348.2-4.5c-.5 1.6-3.7 1.8-3.7.3 0-.8.9-1.4 2-1.4s1.9.5 1.7 1.1zM198.3 539c.7 0 .6.5-.2 1.2-1.1 1.1-1.4 1-1.8 0-.3-.6-.9-1-1.4-.6-.5.3-.9 0-.9-.6 0-.7.7-.9 1.6-.6.9.3 2.1.6 2.7.6zm290.6-.1c.9.6 0 1-2.8 1.3-3.9.3-5.5-.5-2.8-1.5 1.9-.8 4.1-.7 5.6.2zm-320 5.5c3.3 1.2 3.4 1.3 1.5 2.7-1 .8-2.5 2.2-3.2 3.1-1.1 1.4-1 1.8.8 2.8 2 1.1 2.1 1 1.5-.9-.7-2.4 1-2.9 1.9-.6.3.8 1.1 1.4 1.7 1.3.6-.2 1.4.3 1.6 1.1.4.9 0 1.1-1.6.6-1.6-.5-2.1-.2-2.1 1.1s-.3 1.4-1.5.4c-.8-.6-1.9-.9-2.5-.5-.5.3-1-.1-1-.9 0-.9-.4-1.5-.9-1.4-.5.2-1.7-.6-2.5-1.7-1.3-1.7-1.5-1.8-1.6-.3 0 .9-.4 1.9-.9 2.3-.6.3-.8-.9-.6-2.7.2-1.8.1-2.7-.2-2.1-.2.7-1.1 1.3-1.9 1.3-.8 0-1.4.5-1.4 1.1 0 .5.5.7 1 .4.6-.3 1-.1 1 .4 0 1.5-1.7 1.4-2.6-.1-.4-.6 0-1.6.9-2.3 2.4-1.7 2.1-2.3-.8-2.1-1.4 0-2.5.6-2.5 1.2 0 2-3 2.5-3 .6-.1-1.5-.2-1.5-1.1.1-1.3 2.2-.9 2.8 1.9 3 1.1 0 1.8.5 1.5 1-.3.4-1.1.6-1.9.3-.7-.3-1.6-.1-1.9.4-.4.6-1.1 1-1.6 1-.6 0-.7-.5-.3-1.1.5-.8.1-.8-1.4 0-1.1.6-3 1.1-4.1 1.1-1.1 0-3.5.9-5.3 1.9-1.8 1-4.4 2.2-5.8 2.5-2.4.7-2.4.6-.6-.8 1.1-.9 2.7-1.6 3.7-1.6 2.6 0 6.1-3.3 7.3-7.1 1.1-3.3 1.2-3.4 6.3-3.1 2.9.2 5.4-.1 5.8-.7.9-1.6 5.6-.2 8.5 2.5 1.9 1.7 2.9 2 4.3 1.3 2.3-1.3 2.2-2.4-.5-4.9-2.5-2.3-1.2-2.5 4.1-.6zm111.1-1c0 .3-.4.8-1 1.1-.5.3-1 .1-1-.4 0-.6.5-1.1 1-1.1.6 0 1 .2 1 .4zm5.3 6.8c.5 3.4.3 4.9-.8 5.8-1.3 1.1-1.5.2-1.5-6.1.1-7.9 1.3-7.8 2.3.3zm-206.6 4c-1.4 4.6-2.8 9.6-3.2 11.3-1.1 5.5-6.8 22.6-7.2 22.1-.6-.6.8-6.7 4.8-21.6 1.7-6.3 3.4-13 3.9-14.8.8-3.4 2.9-6.6 3.7-5.8.3.3-.6 4.2-2 8.8zm85.3 1.5c0 1.3-.3 1.3-1.5.3-.8-.7-1.2-1.6-.9-2.1.8-1.3 2.4-.1 2.4 1.8zm5 3.4c0 1.8.2 1.8 2.3.5 2.2-1.5 6-.6 4.4 1.1-.5.4-1.2.1-1.8-.7-.7-1.1-.8-.7-.3 1.2.4 1.8.2 2.8-.5 2.8-1 0-1.5-1.4-1.2-3.3.1-.5-.3-.6-.8-.2-.6.3-.8 1.3-.5 2.3.5 1.4.2 1.3-1-.3-.9-1.1-2.3-2.8-3.1-3.7-1-1.2-1.1-1.8-.2-2.1 1.8-.6 2.7.2 2.7 2.4zm241.3-.8c-2.4 4-6.9 8.7-10.4 10.6-2.2 1.3-4.2 2.1-4.4 1.9-.8-.8 13.5-14.9 14.5-14.3.6.3.7 1.2.3 1.8zm-48.7 5.2c.4 3.3.7 6.4.6 7 0 .5-.2 6.5-.2 13.2l-.2 12.3H359c-3 0-4 1.5-4 5.7 0 1.9-.4 2.4-1.6 1.9-.9-.3-2-.6-2.5-.6s-.8-1.4-.7-3.1c.4-4-2-5.7-5.9-4.3-2 .7-2.9 1.7-3.1 3.7-.4 3-.6 3.1-3.2 1.7-1.5-.8-1.8-2.1-1.8-6.5.1-5.6.5-6.4 2.5-4.4 1.6 1.6 13.5 2.9 15.1 1.6 1-.8.9-1.4-.5-2.9s-2.6-1.8-5.3-1.4c-1.9.3-4.2.1-5-.4-2.6-1.6-.5-2 5.6-1 9 1.5 11.6 1.3 11.2-.8-.3-1.5-4.2-2.7-14-4.1-1.7-.2-.5-3 4.2-9.6 2.8-3.9 6.2-8.7 7.6-10.8 1.4-2.2 2.7-3.7 2.9-3.5.2.2.7 3 1.1 6.3zm-208.1.1c1.1.7 3.7 1.6 5.8 1.9 2.7.5 4.7 1.8 6.9 4.5 1.6 2.1 4.1 4.1 5.4 4.4 2.5.7 4.2 3.3 8.5 13.3l2.7 6.2-4.2 2c-2.2 1-6.7 2.9-9.9 4-10.4 3.8-23.7 11.9-28.2 17.2-4.5 5.4-5.9 8.9-4.5 11.4 2.3 4.4-2.2 29.1-7 38.5-2.8 5.3-5.7 8-8.9 8-1.6 0-3.1.7-3.5 1.5-.3.8-1.2 1.2-2.1.9-.8-.4-2.2-.1-3 .6-1.2 1-1.8 1-3.1-.1-1.2-1-2-1-3.4-.1-1.5.9-2.1.9-2.7-.1-.4-.7-3-2.3-5.8-3.7-8.1-4-8.1-3.6-.4-19.1 3.8-7.6 7.7-16.5 8.8-19.8 1-3.2 2.8-7.6 4-9.8 3.7-7 5.9-13.7 7.5-23.3 2.3-12.9 3.2-15.5 6.7-18.5 1.7-1.4 4.2-4.6 5.6-7.2 4.4-8.4 7.5-11.9 11.8-13.5 4.3-1.6 9.8-1.2 13 .8zm-53.5.1c-.1 1.2-8.9 9.8-9.4 9.2-.8-.8 6.7-9.8 8.2-9.9.6 0 1.2.3 1.2.7zm319.4 3.6c1.7 1.3 1.6 1.6-1.2 6.3-3.6 5.8-9.7 11.6-15.2 14.4-5.4 2.8-6 2.6-6-1.9 0-3.6.4-4.1 4.5-6.5 2.4-1.5 6.8-5.1 9.7-8.1 2.9-2.9 5.6-5.4 5.9-5.4.3-.1 1.3.5 2.3 1.2zM60 569c0 .5-.2 1-.4 1-.3 0-.8-.5-1.1-1-.3-.6-.1-1 .4-1 .6 0 1.1.4 1.1 1zm121 2c0 .5 1.1 1.2 2.5 1.6 1.4.3 2.5 1.1 2.5 1.7 0 .6-.3.7-.7.4-.3-.4-1.2-.2-1.8.3-.9.8-1.4.6-1.9-.5-.3-.9-1.1-1.3-1.7-.9-.8.4-.9.3-.5-.4s.2-1.2-.4-1.2c-.6 0-.8-.5-.5-1 .8-1.3 2.5-1.3 2.5 0zm9 4.4c0 .3-.4.8-1 1.1-.5.3-1 .1-1-.4 0-.6.5-1.1 1-1.1.6 0 1 .2 1 .4zM389.5 586c.4.6-.7 1-2.5 1s-2.9-.4-2.5-1c.3-.6 1.5-1 2.5-1s2.2.4 2.5 1zm-321.8 5.2c-.3.8-.6.5-.6-.6-.1-1.1.2-1.7.5-1.3.3.3.4 1.2.1 1.9zm327.6 5.8c.3 2.8.1 4.8-.6 5.2-1.9 1.1-3.7-1.2-3.7-4.8 0-3.7-1.4-5-4.9-4.5-1.5.2-2.1-.1-1.7-.8.4-.6 1.6-1.1 2.6-1.1s2.2-.5 2.5-1c1.4-2.3 5.3 2.4 5.8 7zm28.7-6.1c0 2.1-1.3 4.1-2.6 4.1-.8 0-1.4.9-1.4 2.1 0 2.8-3.4 2.1-3.8-.8-.2-1.6.6-2.8 3-4.3 3.6-2.2 4.8-2.5 4.8-1.1zM231 593c0 .5-.5 1-1.1 1-.5 0-.7-.5-.4-1 .3-.6.8-1 1.1-1 .2 0 .4.4.4 1zm73.9 15.8c2.5 2.2 3.2 3.5 2.4 4.3-2.1 2.1-8.9-5.4-10.7-12.1-.7-2.2-.4-2.1 2 1 1.6 1.9 4.4 5 6.3 6.8zm118.8-5.3c.3.9-.3 2.5-1.2 3.5-1.7 1.9-1.7 2.1-.1 3.9 1.2 1.3 1.4 2.4.8 4.1-.8 2.3-.9 2.2-1.5-.8-.5-2.3-1.2-3.2-2.6-3.2-1.1 0-2.3-.5-2.6-1-.3-.6-2-1-3.6-1-2 0-2.9-.4-2.7-1.3.7-1.9 4-2.1 5-.3.5.9 1.8 1.6 3 1.6 1.7 0 2-.4 1.5-2.9-.3-1.6-.3-3.1 0-3.5 1.2-1.1 3.4-.6 4 .9zm-21.7-.1c0 .3-.4.8-1 1.1-.5.3-1 .1-1-.4 0-.6.5-1.1 1-1.1.6 0 1 .2 1 .4zm-63.9 2.6c1.3.8 2.5.7 3.9 0 1.5-.8 2.9-.6 6 1 2.2 1.1 4 2.2 4 2.4 0 .6-4.9 5.6-5.6 5.6-.3 0-.3-1.1 0-2.4.4-1.5 0-2.8-.9-3.6-1.3-1.1-2-.8-4.4 1.4-2.8 2.7-3 2.7-6 1.2-2.8-1.5-2.9-1.8-1.9-4.1 1.2-2.8 2-3 4.9-1.5zm59.8 3.1c1.4 4 1.4 3.9-.4 3.9-.9 0-1.8-.7-2.2-1.6-.3-.8-1.7-2-3.2-2.5-2-.8-2.2-1.2-1.1-1.9 3.1-2 5.8-1.1 6.9 2.1zM287 608c0 .5-.4 1-1 1-.5 0-1-.5-1-1 0-.6.5-1 1-1 .6 0 1 .4 1 1zm-206.3 5.6c1.9 2.3 2.3 3.9 2.1 7.8-.3 4.9-.9 5.7-5.2 7-1.5.5-1.6.9-.6 2.1 1.7 2 5.3 1.9 8-.3 1.9-1.6 2.3-2.9 2.4-8.8l.1-6.9 2.9.2c3.9.3 6.5 3.1 7.3 7.6.8 5.2-.3 8.5-3.6 10.2-1.6.8-3.4 2.8-4 4.7-1.5 4.1-3.9 6.8-6.3 6.8-4.5 0-12.6-5.9-15.2-11.1-1.6-3.2-3.2-3.4-5.2-.5-1.3 2.1-1.4 2.9-.4 4.1.7.8 1.9 1.5 2.6 1.5.8 0 1.4.7 1.4 1.5 0 1-1 1.5-3.4 1.5-2.8 0-4-.7-6.2-3.5-1.4-1.9-3-3.5-3.6-3.5-2 0-1.9 3.2.1 5.4 2.7 2.9 2.7 3.6-.3 3.6s-7.2-3.3-8-6.4c-1.1-4.5-6.1-4.1-6.8.6-.5 3.5-2.7 3.3-3.5-.2-.3-1.7-1.2-3.4-1.9-3.7-1.9-.7-1.7-3.2.3-4 .9-.4 3.5-2.6 5.8-5 4.5-4.7 7.8-5.5 9.5-2.3 1.7 3.1 4 2.5 4-1 0-5.1 2.5-8.8 6.8-10 9.2-2.5 17.6-1.5 20.9 2.6zm275.8 2.1c-.7 5.6-2.6 13.5-6 24.8-3.2 10.5-17.6 35.5-20.4 35.5-.5 0-2.4-1.8-4.2-4.1-2.6-3.3-3-4.5-2.2-5.8.7-1.1.8-2.3.1-3.4-.7-1.3-.1-2.7 2.3-5.6 1.7-2.2 3.7-4.2 4.4-4.5.7-.2 2.3-2.6 3.6-5.3 1.3-2.6 3.5-6.6 5-8.8 1.5-2.2 4-6.5 5.7-9.5 1.6-3 4.6-7.9 6.6-10.9 2-2.9 3.6-5.7 3.6-6.2s.5-.9 1.1-.9c.6 0 .8 1.7.4 4.7zm-117-.9c.5 1.2 1.5 2.2 2.2 2.2.7 0 1.3.6 1.3 1.2 0 .9.3.8 1-.2.8-1.2 1-1.2 1.6.3.3.9.1 2.3-.5 3.1-.8 1-.6 2 1 4 1.4 1.8 1.6 2.4.5 2-.8-.3-1.7-1.2-2-2-.3-.8-1.3-1.4-2.1-1.4-.9 0-1.3-.5-1-1 .3-.6.2-1-.4-1-.5 0-1.2-1.8-1.6-4-.4-2.2-1.4-4.5-2.3-5.1-1.3-.8-1.3-.9-.2-.6.8.2 1.9 1.3 2.5 2.5zm-1.9 2.8c-.5 1.3-1 1.4-1.8.6-.6-.6-.8-1.8-.4-2.8.5-1.3 1-1.4 1.8-.6.6.6.8 1.8.4 2.8zm164.9-.6c.3.5 1.5 1 2.5 1s2.1.4 2.4.9c.6.8-2.1 10-3.3 11.3-.3.3-2.6-.3-5.1-1.5-3.9-1.9-4.5-2.6-4.5-5.2 0-2.8.2-3 3.4-2.7 3.2.4 3.3.2 2.7-2.2-.6-2.5.7-3.6 1.9-1.6zm-66.6 2.6c2.4 3.1 1.9 4.6-1.4 3.8-1.2-.3-2.6-.1-2.9.5-1 1.6-2.6 1.4-2.6-.3 0-2.8 2-6.6 3.4-6.6.8 0 2.4 1.2 3.5 2.6zm8.1-1.6c0 .5-.5 1-1.1 1-.5 0-.7-.5-.4-1 .3-.6.8-1 1.1-1 .2 0 .4.4.4 1zm-179 1c1.2.7 1.1 1-.5 1.6-1.1.4-3.6 1.3-5.5 2.1-1.9.7-6 1.6-9.2 2-5 .5-5.8.3-5.8-1.1 0-.9-.1-1.9-.2-2.4-.2-.4 4-1.2 9.2-1.8 5.2-.6 9.7-1.2 10-1.2.3-.1 1.2.2 2 .8zm298 .9c0 1.2-2 2.5-2.7 1.8-.7-.7.6-2.7 1.8-2.7.5 0 .9.4.9.9zm-39 1.1c0 .5-.5 1-1.1 1-.5 0-.7-.5-.4-1 .3-.6.8-1 1.1-1 .2 0 .4.4.4 1zm-242.5 2.2c4.4 2.1 5.8 3.8 3.3 3.8-1.6 0-11.8-4.7-11.8-5.5 0-1.2 4.2-.4 8.5 1.7zm297.2-.9c.3.3.2 1-.2 1.6-.4.7-1.3.6-2.8-.3-2-1.3-2.7-1.2-7.2.9-2.7 1.3-6.1 2.4-7.5 2.4-1.8.1-.9-.7 3.5-2.9s7-2.8 9.8-2.6c2.1.3 4.1.7 4.4.9zM104 624c0 1.1-.4 2-1 2-.5 0-1-.9-1-2s.5-2 1-2c.6 0 1 .9 1 2zm151.5 0c.4.6-.1.7-1.2.4-1.5-.5-1.6-.4-.3.5.8.6 2.4 1.1 3.5 1.1 1.3 0 1.6.3.8 1.1-1.6 1.6-6.3 0-6.3-2.2 0-2 2.4-2.6 3.5-.9zm10.5.2c0-.6.5-1.2 1-1.2 1.6 0 1.2 1.7-.6 2.4-2 .8-3.6-.2-2.8-1.6.4-.6 1-.5 1.5.3.6 1 .9 1.1.9.1zm190 2c0 .6-.7.5-1.5-.2s-1.5-1.7-1.5-2.2c0-.6.7-.5 1.5.2s1.5 1.7 1.5 2.2zm37 .6c.6.5-6.2-.8-7.3-1.5-.4-.2-.5-.8-.2-1.3.4-.7 5.9 1.3 7.5 2.8zm-320.5-.6c2.5 1.2 4.5 2.6 4.5 3.1s-.8.6-1.7.1c-1-.4-4.8-.9-8.6-1-3.7-.1-6.8-.5-7-.9-.3-.9 4.4-3.4 6.5-3.5 1 0 3.8 1 6.3 2.2zm77.2 0c.2 1.8 0 2-.7.8-1.2-1.8-1.3-3-.2-3 .4 0 .9 1 .9 2.2zm25.1-1c.9.9 1.8.9 3.7 0 3-1.4 3.3-.2.6 2.2-2.3 2.1-6.8 3.2-17.1 4.1-7.3.7-7.5.7-5.5-1.2 1.6-1.5 3.5-1.8 9.7-1.7 6.6.1 7.5-.1 7-1.5-.3-.9-1-1.9-1.6-2.3-.7-.5-.5-.8.5-.8.8 0 2 .5 2.7 1.2zm67.7.8c-.3.5-1 1-1.6 1-.5 0-.9-.5-.9-1 0-.6.7-1 1.6-1 .8 0 1.2.4.9 1zm107 1c1.6 1.8 1.6 2 .2 2-2.1 0-2.3 3.9-.2 4.5 5.1 1.6 5 1.4 1.8 4.7-1.7 1.7-3.6 2.7-4.2 2.4-1.3-.8-1.5-15.6-.3-15.6.5 0 1.7.9 2.7 2zm-25.5 2.5c0 2.5-.4 3.5-1.5 3.5-.9 0-1.8.6-2.1 1.4-.7 1.8-5.6 1.6-7-.3-.6-.8-1.8-1.1-2.8-.8-1.2.5-1.6.3-1.4-.5.3-.7 1.9-1.6 3.7-2.1 2.7-.6 3.6-.5 4.6 1 1.1 1.5 1.6 1.6 2.7.5 1-1 1-1.7.1-3.1-1.3-2.2-.8-3.1 1.9-3.1 1.4 0 1.8.8 1.8 3.5zm-273.3.9c-.2.6-1.1 1-2 .8-.8-.1-1.8.2-2.2.8-.9 1.5-3.5 1.2-3.5-.3 0-1.8 3.9-3.5 6.3-2.9 1 .2 1.6 1 1.4 1.6zm-123.7.5c0 2-1.3 4.1-2.1 3.5-1.5-.9-1-4.4.6-4.4.8 0 1.5.4 1.5.9zm286.8.2c-.2.6-.8 1-1.3 1s-1.1-.4-1.3-1c-.2-.6.4-1.1 1.3-1.1s1.5.5 1.3 1.1zm20.7 4.7c-.8.8-2.6-3.9-1.9-5 .5-.8 1.1-.1 1.6 1.7.4 1.6.6 3.1.3 3.3zm62.7-4.4c1.8.8 4 1.7 4.9 1.9 1.4.5 1.4 1.4-.3 9.8-1 5.1-2.1 9.5-2.4 9.8-1.2 1.2-5.3-5.3-4.8-7.6.4-1.4-.1-2.7-1.5-3.9-1.5-1.3-1.8-2.2-1-3.6.9-1.7 1.2-1.7 4.1-.2 1.8 1 3.4 1.2 4 .6 1.1-1.1-.4-2.4-5-4.2-2.5-1-3.5-1-4.7 0-1.7 1.5-1.9.7-.5-2.1 1.3-2.3 2.8-2.4 7.2-.5zm-191.7 2.8c6.3 2.7 7.5 3.6 7.5 5.5 0 2.1-.3 2.2-2 1.3-1.1-.6-1.8-1.5-1.5-2 .7-1.1-5.9-2.5-7.4-1.6-1.1.7-6.6-1.7-7.6-3.4-.8-1.4.3-3 2.1-3 .8 0 4.8 1.4 8.9 3.2zM458 632c0 .5-.4 1-.9 1-.6 0-1.3-.5-1.6-1-.3-.6.1-1 .9-1 .9 0 1.6.4 1.6 1zm-170.7 4c1.6 0 7.7 6.2 7.7 7.7 0 .7.5 1.3 1 1.3 1.6 0 1.2 5.7-.5 6.4-.8.3-1.5 1.2-1.5 2.1 0 1.6-1.6 4.9-3.8 7.7-.8.9-1.1 2.2-.7 2.7.3.6-.1 1.1-1 1.1-2.1 0-3 2.7-1.5 4.5 1.5 1.8.7 1.9-1.9.4-1.5-1-2.2-.8-4 1-1.7 1.7-2.9 2.1-4.8 1.6-2.7-.7-18.6-8.1-24.3-11.4-1.9-1.1-6.6-3.4-10.5-5.2-19.2-8.8-22.4-11.1-22.5-15.6 0-3.3 2.7-4.3 8-2.9 2.5.6 5.1 1.5 5.8 1.9.7.5 2.8.3 4.8-.3 1.9-.7 6.8-1 10.9-.8 4.1.2 7.5 0 7.5-.4 0-.5.3-.7.8-.6.8.2 7-.7 17.9-2.4 4.5-.7 6.9-1.6 6.5-2.2-.3-.6.7-.1 2.2 1.2 1.6 1.2 3.4 2.2 3.9 2.2zm21-1.9c-.6.6-.9 1.8-.6 2.5.3.8 0 1.4-.6 1.4s-1.1-.5-1.1-1c0-1.4 2.3-5 2.9-4.4.3.2 0 .9-.6 1.5zM472 633c0 1.2-4 3.3-4.8 2.5-.4-.4.2-1.3 1.2-2.1 2.3-1.6 3.6-1.8 3.6-.4zm13 0c0 .5-.4 1-.9 1-.6 0-1.3-.5-1.6-1-.3-.6.1-1 .9-1 .9 0 1.6.4 1.6 1zm-154.6 4.3c-.5 1.4-1.9 1.9-5 1.7-.3-.1-1.4.9-2.4 2.2-1.1 1.3-1.9 1.8-1.9 1.3 0-1.4 2.9-4.7 5.9-6.8 2.6-1.8 4.4-1 3.4 1.6zM98 639.4c-1.2 3.8-3 4-3 .4 0-1.9 3-5.2 3.8-4.3.2.2-.1 2-.8 3.9zm312.1 1c-2.6 2.5-3.3 1.8-2.5-2.3.6-3 .7-3.1 2.6-1.4 1.8 1.6 1.8 1.7-.1 3.7zm-25.4-.7c-.3 1-.5.4-.5-1.2 0-1.7.2-2.4.5-1.8.2.7.2 2.1 0 3zm94.7-3.1c.9.3 1.6 1.2 1.6 1.9s.7 1.8 1.5 2.5 1.5 1.8 1.5 2.4c0 .6-.8.1-1.8-1-4.1-5.1-8.4-4.7-13.7 1.3-1.7 1.9-2.4 2.3-2.5 1.3 0-1.2 10-9 11.6-9 .1 0 .9.3 1.8.6zM167 639c-.8.5-1.9 1-2.5 1-.5 0-.3-.5.5-1s2-1 2.5-1c.6 0 .3.5-.5 1zm150.4.5c-.4.8-.9 1.5-1.3 1.5s-.8-.7-.8-1.5.6-1.5 1.3-1.5c.8 0 1.1.6.8 1.5zM463 639c0 .5-1.1 1-2.4 1-1.4 0-2.8.4-3.1 1-.7 1.2-2.5 1.3-2.5.2 0-.8 4.5-2.9 6.8-3.1.6-.1 1.2.3 1.2.9zm-45 2c.6 1.1 2.3 2.6 3.8 3.4 2.3 1.3 2.4 1.5.6 1.6-1.1 0-2.9-.7-4-1.5-1-.8-2.7-1.5-3.7-1.5-1.5 0-1.5-.3-.5-2 1.6-2.5 2.5-2.5 3.8 0zm-384 2c0 .5-.5 1-1.1 1-.5 0-.7-.5-.4-1 .3-.6.8-1 1.1-1 .2 0 .4.4.4 1zm160.3.5c-.2.5-1.6 1.1-3.3 1.2-2.1.2-3-.2-3-1.3s.8-1.4 3.3-1.2c1.7.2 3.1.7 3 1.3zm298.6 1.4c.9 1.6.8 1.8-.9 1.4-2.1-.5-2.5-1.5-1.3-2.6.9-1 1.1-.9 2.2 1.2zm-82.6 1.2c-1.2 1.3-2.6 1.8-3.3 1.4-.9-.5-.4-1.2 1.6-2.1 4-1.7 4.1-1.7 1.7.7zm67.7-.6c0 .9-.6 1.2-1.5.9-.8-.4-1.5-1-1.5-1.5s.7-.9 1.5-.9 1.5.7 1.5 1.5zm-91.8 1.8c.6 2.8-.1 4.9-1.3 4.1-1.2-.7-1.2-6.4 0-6.4.5 0 1.1 1 1.3 2.3zm74.8-.3c0 2.3-2.5 2.7-3.3.6-.7-1.6.1-2.6 2-2.6.7 0 1.3.9 1.3 2zm-368.3 1c.3 1 .2 1.1-.4.4-.4-.6-1.5-1.4-2.3-1.7-1.1-.5-.9-.6.4-.4 1.1.1 2.1.9 2.3 1.7zm-33.1-.1c.3-.5 1.2-.9 2.1-.9 1.4 0 1.4.3-.2 2-1.2 1.3-2.2 1.7-2.8 1.1-.6-.6-1.9-.6-3.2-.1-1.6.6-2.7.5-3.4-.4-1.6-1.9-.4-2.5 3.5-1.6 1.9.4 3.7.4 4-.1zm356.4 0c0 .5-.9 1.2-2 1.6-1.1.3-2.8 1.7-3.9 3.1-1 1.3-2.6 2.4-3.5 2.4-2.8 0-1.7-1.9 1.9-3.4 1.9-.8 3.8-2.2 4.1-3.1.7-1.6 3.4-2.1 3.4-.6zm36.6 1.8c-1 1-1.9-.5-1-1.8.6-1.1.8-1.1 1.2 0 .2.7.1 1.5-.2 1.8zM182 650c1.3 2.4-.2 2.6-6.3.8-3.8-1.1-3.9-1.3-1.6-1.9 4.4-1.3 6.8-.9 7.9 1.1zm21 1c0 .6-1.1 1-2.5 1-2.3 0-3.4-1.8-1.9-3.3.9-.8 4.4 1.1 4.4 2.3zm-112 1.1c-1.4 2.6-1.8 2.4-1.2-.6.2-1.4.8-2.2 1.3-1.9.5.3.5 1.4-.1 2.5zm98.4-1c-.3.5-1 .7-1.5.3-.5-.3-.7-1-.3-1.5.3-.5 1-.7 1.5-.3.5.3.7 1 .3 1.5zM322 651c0 1.3-3.1 2.1-5.4 1.4-2-.7-1.9-.8.9-2 3-1.2 4.5-1 4.5.6zm102 2.1c0 2.3-1.6 2.5-2.4.3-1-2.5-.7-3.4.9-2.8.8.4 1.5 1.5 1.5 2.5zm-339-1.7c0 .3-.4.8-1 1.1-.5.3-1 .1-1-.4 0-.6.5-1.1 1-1.1.6 0 1 .2 1 .4zm139 2.1c3.4 1.8 3.9 2.4 2.3 2.5-2.3 0-8.3-3-8.3-4.3 0-1.1 1.2-.8 6 1.8zm172.9.6c1.3 1.1 2.1 2.2 1.8 2.6-.4.3-1.3 0-2.1-.6-1.3-1.1-2-.8-4.1 1.5-2.9 3.2-3.1 2.8-.8-2.1 1.9-4.1 2-4.1 5.2-1.4zm20.9 1.3c.3 2.1 1.2 3.1 3.3 3.9 3.6 1.4 3.8 3.7.4 3.7-1.7 0-2.5-.5-2.5-1.8 0-4.8-4.7-5.4-9.2-1.2-3.3 3.2-5.1 3.4-5.6.7-.3-1.2.3-1.7 2-1.7 1.4 0 3.8-1.4 5.8-3.5 3.9-4 5.4-4 5.8-.1zm78.1-1.9c.7.7-.2 1-2.7 1-2 0-6.9.4-10.8.9-5.4.6-7.7.4-9.3-.6-1.9-1.1-2.4-1.1-3.4.2-1.4 1.8-6.3 1.9-9.2.2-1.6-.9-1.7-1.2-.5-1.6 4.6-1.6 34.3-1.7 35.9-.1zm-40.1 1.7c-.3.7-1.7 1.4-3.1 1.5-3.3.2-3.5-.5-.4-1.7s3.9-1.2 3.5.2zm-266.3 1.3c9.7 0 14.5.5 19 1.9 10 3.2 9.8 4.9-.7 6.1-3.5.4-6.8 1.5-8.4 2.8-2.5 1.9-3.1 2-11.5.9-5.6-.8-10.2-2-12.6-3.4-2.8-1.7-5.5-2.3-10.8-2.4-11.5-.2-17.6-2.5-10.7-4 1.5-.3 4.3-1.2 6.2-2 2.5-1 5.3-1.2 10-.7 3.6.4 12.4.7 19.5.8zm207.4 3.4c1 .6 1.1 2.1.6 5.8-.5 4.1-2.3 9.1-2.5 7.3-.5-3.3-.6-14-.1-14 .3 0 1.2.4 2 .9zm-153.7 2.6c2.9 1.4 4.7 2.5 4 2.5-.7 0-2.1-.4-3.1-.9-.9-.5-3.7-1.2-6.2-1.5-2.4-.2-4.6-.5-4.9-.5-.9-.2 2.5-2.1 3.7-2.1.6 0 3.5 1.1 6.5 2.5zm-94.1 1.2c4.2 2.2 7 2.9 13.1 3.2 7.2.3 7.8.5 7.8 2.5 0 1.9 1.9 6.1 2 4.3 0-.5.5-.5 1.1-.1 1 .6-3.6 2.3-19.7 7.4-1.7.6-5.5 1-8.6 1-4.5 0-6-.5-8.2-2.5-2.4-2.2-3.6-4.2-1.8-3.1 1.4.9 3.5-1.2 2.9-2.8-.8-1.9-4.8-2.1-6.6-.4-1.1 1.1-1.2.9-.3-.8.6-1.1 1.8-2.6 2.6-3.4.9-.7 1.6-1.8 1.6-2.4 0-.6.7-2.2 1.6-3.4 2.1-3 6-2.8 12.5.5zm265.9-2.1c0 .4-.7 1.2-1.7 1.9-2 1.5-.8 3.7 1.9 3.3 2-.3 3.1.8 4.2 4.6.4 1.2 1.3 1.7 2.6 1.3 1.1-.3 2-.1 2 .4 0 1.9-3.9.8-7.5-2.1-2.7-2.2-4.4-2.8-6.1-2.4-3.1.8-3.1-.9-.1-4.6 2-2.6 4.7-4 4.7-2.4zm-24 2c0 .8-.4 1.2-1 .9-.5-.3-1-1-1-1.6 0-.5.5-.9 1-.9.6 0 1 .7 1 1.6zm-3.6 4.8c1.8 3.5 1.2 5-1.5 3.6-1.3-.8-1.9-2.1-1.9-4.7 0-4 .9-3.7 3.4 1.1zm88.2 3.3c-.3.8-1.3 1.3-2.2 1.1-.9-.2-1.9.3-2.1.9-.3.7.2 1.3 1.1 1.3 2.2 0 2 3-.6 9.5-2.5 6-4.8 7.1-7 3.4-1.4-2.2-7.7-5.9-10.1-5.9-.8 0-3.1 1.1-5.1 2.5-2 1.4-3.9 2.5-4.1 2.5-.6 0 0-16.5.7-17.6.4-.6 2-.9 3.6-.6 1.7.2 4-.1 5.2-.8 1.7-.9 2.5-.9 3.9.4 2.5 2.2 4.1 2 8.1-1.3l3.4-2.9 2.8 3.1c1.6 1.6 2.7 3.6 2.4 4.4zm-134.1.8c-1.1 2.2-2.4 3.5-3.6 3.5-2.2 0-2.5-1.3-.5-2.9.8-.7 2.2-2.9 3.2-4.9 1.6-3.2 1.9-3.4 2.2-1.5.2 1.2-.4 3.8-1.3 5.8zm-109-4.7c1.5 1 1.4 5.2-.1 5.2-.7 0-1.6-.5-1.9-1-.4-.7-1.3-.5-2.6.4-3.4 2.4-30.4.7-27.8-1.8.5-.4 6.9-1.4 15.4-2.2 3.3-.3 6.2-.8 6.4-1 .8-.7 9.6-.4 10.6.4zm171.9 2.1c.3.5-.1 1.4-.9 2.1-1.3 1-1.5.9-1.5-.9 0-2.1 1.4-2.8 2.4-1.2zM266 674.1c0 1.4-4.2 2.1-5.3 1-.6-.6-1.9-1.1-2.8-1.1-2.3 0-3.5-2-1.9-3 1.3-.8 10 1.9 10 3.1zm57.3 1.1c1.9 2.4 3.7 5.3 4.1 6.4.4 1.2 1.5 2.9 2.6 3.9s2 2.5 2 3.2c0 2.5-2.4.8-4.3-3-1.9-4.1-3.2-4.9-2.2-1.5.6 2.2.5 2.2-.7.3-.7-1.1-1.3-2.2-1.4-2.5-.7-3.6-1.9-6.6-2.8-7.2-1.8-1.2-6.6-.9-6.6.4 0 .6-.2.9-.5.7-.2-.3-.2-1.5.2-2.7 1-3.9 5.6-2.9 9.6 2zm-129.9-2.6c3.9 1.5.9 2.2-8.1 1.8-5.4-.2-10-.4-10.3-.4-.3 0 .2-.5 1-1 1.6-1.1 14.9-1.4 17.4-.4zm219.7 2c1.7 2.1 6.3 4.4 8.9 4.4 1.1 0 2 .4 2 1 0 .5-.9 1-1.9 1-1.1 0-2.3.4-2.6 1-1.2 2-3.2.9-5.1-2.7-2.5-4.8-4.6-5.2-9-1.8-1.9 1.4-4.2 2.5-5.2 2.3-1.1-.2.1-1.4 3.8-3.5 6.5-3.6 7.3-3.8 9.1-1.7zm-24.6 2.4c.3.5-.3 1-1.5 1s-1.8-.5-1.5-1c.3-.6 1-1 1.5-1s1.2.4 1.5 1zm-168 2.3c3.9.7 6.8 1.7 6.5 2.2-.3.6-1.6.9-3 .8-1.4-.1-9.4-.5-17.7-.9-13.9-.6-15.5-.6-17.3 1.1-1.1 1-1.7 2.2-1.4 2.6.3.5-.5.9-1.6.9-3.4 0-15.9 4.1-17.5 5.7-.8.8-1.5 2.3-1.5 3.3 0 1.3-1.4 2.3-4.9 3.5-2.8.9-6.2 2.9-7.8 4.5-2.2 2.2-4.6 3.3-10.8 4.5-4.3.9-10.2 2.6-13 3.7-5.9 2.4-26.9 3.8-28.7 2-1.5-1.5 1.7-5.2 4.3-5.2 1 0 2.1-.5 2.4-1.1.5-.6 1.1-.5 1.8.5 1.5 2 8.7 1.1 8.7-1 0-.8.9-1.4 2-1.4 2.8 0 2.5-1.4-1-4.7-2.9-2.7-4.1-7.3-1.9-7.3.5 0 .9 1 .7 2.2-.4 2.9 6.4 7 8.3 5.1 1-1 .9-1.7-.6-3.3-1.8-2-1.8-2 .5-2 1.9 0 2.1-.4 1.6-2.6-.5-1.7-.3-2.3.4-1.9.5.3 1.4-.5 1.9-1.8 1.3-3.3 2.8-3.7 10.8-3 6.9.5 7.4.4 30-5.7 5.5-1.4 9.3-1.8 16-1.4 4.8.2 11.5.1 14.8-.4 6.3-.9 6.7-.9 18 1.1zm173 1.6c-.6 1.9-1.6 2.4-6.5 3.3-.9.2-1.8-.2-2-.7-.3-.6 1-1.1 2.7-1.3 2.1-.2 3.7-1.1 4.4-2.3 1.3-2.5 2.3-1.8 1.4 1zm-83.3-1.3c.8.7-3.8 7.6-5.7 8.7-.8.4-1.6.3-2-.3-.3-.5 0-1 .8-1s2.2-1.8 3.1-4c1.5-3.8 2.5-4.7 3.8-3.4zm-43.7 1.4c-.3.5-1.1 1-1.6 1-.6 0-.7-.5-.4-1 .3-.6 1.1-1 1.6-1 .6 0 .7.4.4 1zm145.5 3.7c0 .7 1.1 1.9 2.5 2.5 2.3 1 2.4 1.3 1 2.1-1.3.7-2.5.1-4.9-2.2-1.8-1.7-3.8-3.1-4.6-3.1-1-.1-.7-.8 1-2.1 2.3-2 2.5-2 3.7-.3.7 1 1.3 2.4 1.3 3.1zM79 682c0 .5-.2 1-.4 1-.3 0-.8-.5-1.1-1-.3-.6-.1-1 .4-1 .6 0 1.1.4 1.1 1zm222 1.1c0 .5-.4.9-1 .9-.5 0-1-.7-1-1.6 0-.8.5-1.2 1-.9.6.3 1 1 1 1.6zm49 1.4c0 .8-.4 1.5-.9 1.5-1.3 0-2.2-1.6-1.4-2.4 1.1-1.1 2.3-.6 2.3.9zm51.4 1.7c-.7 1.1-3.4 1-3.4-.1 0-.6.9-.9 1.9-.8 1.1 0 1.7.5 1.5.9zm-143.7.4c-.3.3-1.2.4-1.9.1-.8-.3-.5-.6.6-.6 1.1-.1 1.7.2 1.3.5zm166.3 1c0 1.1-.5 1.4-1.6 1-.9-.3-1.8-.6-2-.6-.3 0-.2-.5.1-1 1-1.6 3.5-1.2 3.5.6zm-199.4.7c.3.3-.7.9-2.2 1.3-1.6.3-5.5 1.3-8.7 2.1-6.9 1.7-19.1 3.2-18 2.3 1.1-1 15.8-4 19.2-4 1.6 0 3.4-.6 4-1.3 1.1-1.4 4.5-1.6 5.7-.4zm166.9.7c-.8 1.3-4.5 1.3-6.5 0-1.1-.7-.3-1 2.8-1 2.6 0 4.1.4 3.7 1zm17.9 4.8c-2.1.5-5.9-3.2-4.9-4.8.5-.8 1.6-.3 3.7 1.7 2.4 2.3 2.7 2.9 1.2 3.1zm45.9-4.4c.9.7 1.7 1.7 1.7 2.1 0 .4-.7.2-1.5-.5s-2.4-1-3.6-.7c-1.6.4-1.8.3-.8-.9 1.4-1.7 1.9-1.7 4.2 0zm40 1.8c.7 2.7-.2 4.5-1.4 2.7-1.1-1.8-1.1-4.9 0-4.9.5 0 1.1 1 1.4 2.2zM183 692.6c-2.5.8-5.2 1.3-6 1.1-1.9-.5 4.7-2.5 8-2.5 1.7 0 1.1.4-2 1.4zm119-1.2c0 .3-.4.8-1 1.1-.5.3-1 .1-1-.4 0-.6.5-1.1 1-1.1.6 0 1 .2 1 .4zm-48.7 1.6h5.5c8.1 0 13.1.7 14.7 2 1.5 1.2 1.9 1.1 3.6-1l2-2.5-.7 2.9c-.6 2.7-.5 2.8 1.9 2.3 1.7-.5 2.7-.2 3.1.8.3 1 1.6 1.5 3.4 1.3 1.5-.1 3.3.1 3.9.5.7.4 1.7 0 2.3-1 .8-1.3 1.3-1.4 1.6-.6.3.7 1.6 1.3 2.8 1.3 2.7 0 8.5 5.5 12.7 12.3 1.8 2.9 5.3 7.4 7.8 10 2.5 2.6 4.7 5.8 4.8 7 .1 1.2.3 5.6.5 9.7l.3 7.5-99.8.2c-78.2.2-99.8 0-99.4-1 .2-.7 2.6-1.7 5.3-2.3 3.1-.6 4.9-1.5 4.9-2.5 0-2.3-8-1.7-11.5.9-1.6 1.2-3.6 2.2-4.3 2.2-.8 0-2 .7-2.7 1.5-.8 1-3 1.5-6.1 1.5-4.6 0-4.9-.2-4.9-2.5 0-1.6-.6-2.5-1.5-2.5-1.3 0-1.9 1.1-1.6 3.2.1.9-5.9 2.1-6.7 1.3-.4-.4-.9-4.6-1-9.5l-.4-8.8 3.9-.6c2.1-.4 8.7-1.1 14.7-1.6 6-.6 11.5-1.5 12.3-2.1 1-.9 4.1-.9 12.1-.1 5.9.6 15 1 20.2 1 5.2-.1 10.6.1 12 .5 1.4.3 6.3 1.3 11 2.1 11.4 2 18.5 3.3 24.5 4.5 14.8 3.1 26 4.9 26.9 4.3.6-.3 2.5-.5 4.3-.3 4 .3 8.3-2.4 8.3-5.4 0-1.9.7-2.4 3.8-2.7 2-.3 4.7-.1 6 .3 1.3.5 3.6.9 5.2.9s3.1.4 3.5.9c.8 1.4-2.7 2.2-8 2-5.1-.3-7.5 1.2-5.6 3.5 1.5 1.8 24.8 3.4 27.8 1.8 1.3-.7 3.2-.8 5.9-.1 9.3 2.4 11.1 2.5 15.5 1.3 6-1.9 7.6-1.7 8.2.6.4 1.5 1.4 2 4 2 4.6 0 8.7-1.6 8.7-3.3 0-1.9-3.3-4.7-6.6-5.6-3.1-.8-10.4.3-14.1 2.1-3.6 1.8-21.7-2.2-30.4-6.7-6.8-3.6-28.5-6.7-33.3-4.9-2.6 1-1.8 3.1 1.4 4.3 4 1.3 3.8 3.7-.3 5-2.7.9-4.6.8-9.3-.5-3.2-.9-8.3-2.2-11.1-2.7-4.7-1-5.3-1.4-5.3-3.7 0-1.4-.4-3-.8-3.6-1.2-1.9-5-3.4-6.7-2.8-.9.4-2.7.1-3.9-.6-2.9-1.5-7.1-1-7.1 1 0 1 1.2 1.6 3.5 1.8 1.9.2 3.9 1 4.3 1.8.4.8 1.7 1.4 2.7 1.4 1.1 0 2 .5 2 1.1 0 .8-1.1.9-3.2.5-1.8-.4-7.3-1.1-12.1-1.7-4.9-.5-9.3-1.1-9.7-1.4-2.7-1.6-19.2-3.6-25.3-3-8 .8-25.7-.3-25.7-1.6 0-1.6 21.7-7 27.5-6.9 1.8 0 3.8 1 5 2.4 2.9 3.4 5.1 3.8 9.2 1.6 2.7-1.4 4.7-1.8 7.5-1.4 2.9.5 3.8.3 3.8-.8 0-3.7-5.3-4.9-11.6-2.6-2.8 1-3.5.9-6.2-1.3-1.7-1.3-3-2.8-2.8-3.4.6-2.4 10.2-4.6 19.6-4.5 10.2 0 35.7-3.4 51-7 1.9-.5 7.1-.7 11.5-.4 4.4.2 9.2.4 10.8.4zm108.2 0c.3.5.1 1-.4 1-.6 0-1.1-.5-1.1-1 0-.6.2-1 .4-1 .3 0 .8.4 1.1 1zm-276.2.6c.3.4-.1 1.7-1 3.1-1.5 2.3-1.5 2.5 1.3 5.4 2.7 2.8 2.9 2.9 4.2 1.2 1.2-1.7 1.4-1.7 2.3-.1 1.4 2.5 2.8 2.2 3.9-.7 1.3-3.4 2.7-3.2 3.5.5.9 4-2.7 9.5-5.3 8.1-1.1-.6-2.4-.6-3.4 0-1.1.6-1.9.5-2.5-.3-.4-.7-2.1-1.3-3.8-1.3-2.6 0-3-.3-2.7-2.4.3-2.8-1.6-5.4-3.5-4.7-.7.3-1.3 0-1.3-.7.1-3.2 1.4-5.6 3.6-6.1 1.3-.4 2.4-1.1 2.4-1.6 0-1.1 1.3-1.3 2.3-.4zm252.5.6c.7.7 1.2 2.5 1.2 4.1 0 2.3.3 2.7 1.9 2.2 1.2-.3 2.9.3 4.7 1.8 1.6 1.3 5.7 4.3 9.2 6.7 5.7 4 7.5 6 5.3 6-1.7 0-9-4.3-12.1-7.2-1.7-1.5-3.5-2.6-3.9-2.4-1.4.9-6.6-4.2-6.6-6.6 0-1.5-.5-2.2-1.6-2-.9.1-2.4-.7-3.4-1.8-1.8-2-1.7-2 1.1-2 1.7 0 3.5.5 4.2 1.2zm131.2 1.7c0 3.7-1 6.2-2.1 5.5-1-.6-1.2-4.5-.3-6.8 1-2.6 2.4-1.8 2.4 1.3zm-6-.5c0 1.5-2.6 4.6-3.8 4.6-.3 0-.1-.5.6-1.2s1.2-2 1.2-3 .5-1.8 1-1.8c.6 0 1 .6 1 1.4zm29 3.2c.5 1.3.7 3.1.3 4-.5 1.4-.8 1.3-1.9-.7-1.6-2.9-1.8-7.3-.3-6.4.5.4 1.4 1.8 1.9 3.1zm-398.4-1.5c.3.6.1 1.6-.5 2.2-.8.8-1.1.8-1.1-.1 0-.7-.9-1.2-2.1-1.2-1.1 0-1.7-.5-1.4-1 .8-1.3 4.2-1.3 5.1.1zm311.4 1.7c0 .4-1.3 1.5-2.9 2.5-2.8 1.6-2.9 1.6-3.4-.4-.4-1.6-1.1-2-2.7-1.6-3.2.8-1.4-.6 2.3-1.9 3.1-1.1 6.7-.3 6.7 1.4zm-292 .8c0 1.4-1.2 1.9-2.3.8-.9-.9.4-3.5 1.4-2.8.5.3.9 1.2.9 2zm306.2 2.1c.2 2.2.8 2.8 2.6 2.6 1.6-.2 2.2.2 2.2 1.7 0 3.2-2.2 2.3-6.3-2.5-3.8-4.4-3.8-4.5-1.3-4.5 2 0 2.5.6 2.8 2.7zm35.3 3.3c2 0 4.5-.5 5.6-1.1 1.5-.7 2.4-.7 3.4.1.8.7 1.9.8 2.6.4.9-.5 1 .3.4 3.2-1 5.6-2.4 7.9-3.8 6.4-.9-1-.9-1.4.1-1.7 1.5-.6 1.6-3.3.2-3.3-.6 0-1.3.6-1.6 1.4-.3.8-1.2 1.2-2 .9-.8-.3-2.4.3-3.4 1.2-1.9 1.7-2.1 1.7-4.1-.9-1.2-1.5-3-2.6-4.5-2.6-2.2 0-2.4-.4-2.4-5.1v-5.1l2.9 3.1c2.2 2.4 3.8 3.1 6.6 3.1zm-66.5-2c0 .6-.8 2.3-1.7 3.7l-1.7 2.6-.7-2.4c-.3-1.3-.1-3 .4-3.7 1.1-1.5 3.7-1.6 3.7-.2zm6.4 3.7c-2.3 1.7-3.7.6-2.3-1.8.9-1.7 1.3-1.8 2.6-.8 1.3 1.2 1.3 1.4-.3 2.6zm19-.2c1.8 2.8 1 3.3-2 1-1-.8-3.2-1.5-4.9-1.5-2.3 0-2.7-.3-1.5-1 2.8-1.8 6.7-1.1 8.4 1.5zm-5.7 5.1c-.3.3-1.2.4-1.9.1-.8-.3-.5-.6.6-.6 1.1-.1 1.7.2 1.3.5zM452 717c2.2 2.2 3.5 4.2 2.9 4.6-1.7 1-3.9-.4-3.9-2.6 0-1.2-.6-2-1.2-1.9-2.1.3-4.8-1.2-4.8-2.7 0-2.5 2.9-1.5 7 2.6zm47-1c0 .5-.4 1-.9 1-.6 0-1.3-.5-1.6-1-.3-.6.1-1 .9-1 .9 0 1.6.4 1.6 1zm-106.2.7c-1 .2-2.6.2-3.5 0-1-.3-.2-.5 1.7-.5s2.7.2 1.8.5zm69.6.8c1.1.8 1.7 1.7 1.4 2-1 1.1-5.8-.7-5.8-2.1 0-1.8 2-1.7 4.4.1zM70 721c-.7.4-1 1.2-.7 1.7.3.5 0 1-.8 1-1.9 0-1.9-.1.2-4 1.4-2.6 1.8-2.9 2.1-1.3.2 1-.2 2.2-.8 2.6zm339.4-2c2.5 1.2 4.6 2.4 4.6 2.8-.1.4-1 1.8-2.2 3.2-1.4 1.6-2.2 2.1-2.5 1.2-.3-.6-1.1-1.2-1.9-1.2-.8 0-1.4-.6-1.4-1.4 0-.7-.7-1.9-1.5-2.6-1.2-1-1.8-1-3 0-2.1 1.8-1.9 4.1.5 4.7 1.1.3 2 1.1 2 1.9 0 .7.8 1.7 1.7 2.3 2.4 1.3 1.4 2-1.9 1.4-1.5-.3-4.6-2.3-7-4.5l-4.3-4 6-2.8c3.3-1.6 6.1-2.9 6.1-3 .1 0 2.2.9 4.8 2zm-291-.1c.9 1.4-2 2.1-8.7 2.1-3.4 0-7.7.4-9.5.9-2.7.8-3.2.7-3.2-.8 0-1 .3-2.1.7-2.4 1-1 20.1-.8 20.7.2zm305.1 2.1c.3.5-.1 1-.9 1s-1.8-.5-2.1-1c-.3-.6.1-1 .9-1s1.8.4 2.1 1zm-36.5 2c1.3.9 1.3 1.1 0 2-2.2 1.5-3 1.2-3-1s.8-2.5 3-1zm63.1 2.3c-.1 1.2-1.5.9-1.9-.4-.3-.6.1-1 .8-.8.6.3 1.1.8 1.1 1.2zm11.9-.8c0 1-2.4 5.5-2.9 5.5-.3 0-1.5-.8-2.6-1.7-1.6-1.3-1.7-1.5-.2-1 1.2.5 1.7.1 1.7-1.3 0-1.3.7-2 2-2 1.1 0 2 .2 2 .5zm-99.4 18.2c-.4.8-2.3 1.3-5.6 1.3-4.9 0-5-.1-5-3 0-1.7.5-3.6 1-4.3 3.9-4.6 5-6.1 5-6.8 0-.4.9-1 2-1.4 1.1-.3 1.9-.9 1.9-1.3-.1-.4 0-1.2.2-1.7.2-.6.5 2.8.6 7.4.2 4.6.2 9-.1 9.8zm58.9-16.5c2.5 1.1 2.6 1.4 2.3 9.2l-.3 8.1-10.7.3c-6.6.2-10.8-.1-10.8-.7s1.6-2.2 3.6-3.7 5.4-5.4 7.5-8.6c2.2-3.2 4.4-5.8 4.9-5.8s2.1.5 3.5 1.2zm32.5.8c0 .5-.2 1-.4 1-.3 0-.8-.5-1.1-1-.3-.6-.1-1 .4-1 .6 0 1.1.4 1.1 1zm-6 5c0 .5.7 1 1.5 1 1.4 0 4.2 4 2.8 4-.4 0-.3.4.3.8 2 1.2-.2 5.2-2.8 5.1h-2.3l2.3-1.1c1.2-.6 2.2-1.5 2.2-2 0-1.7-2.9-1.9-5.4-.3l-2.5 1.7.9-3.3c.5-1.7.7-3.6.4-4-.6-1.1.4-2.9 1.7-2.9.5 0 .9.4.9 1zm-386 .4c0 .3-.4.8-1 1.1-.5.3-1 .1-1-.4 0-.6.5-1.1 1-1.1.6 0 1 .2 1 .4zm385 9.6c0 .5-.5 1-1.1 1-.5 0-.7-.5-.4-1 .3-.6.8-1 1.1-1 .2 0 .4.4.4 1zm-123.5 9c0 2.4-10.7 2.7-82 2.9-35.7 0-84.2.4-107.7.8-28.4.4-42.8.3-42.8-.4 0-.5.8-1.7 1.8-2.6 2.4-2.2 4.6-2.2 128.2-2.2 90.4 0 102.5.2 102.5 1.5zM43 754.9c0 .5-2 2.2-4.5 3.8-2.5 1.5-4.8 3.7-5.1 4.8-.4 1.1-1.5 3.1-2.5 4.4-1.1 1.3-1.9 3.1-1.9 4 0 2.2-4.6 8.5-5.4 7.3-.3-.5.3-1.7 1.4-2.7 1.1-1 2-3.1 2-4.6 0-1.5.4-3 .9-3.4 1.2-.7 4.1-6.4 4.1-7.9 0-1.8 6.3-6.5 8.8-6.6 1.2 0 2.2.4 2.2.9zm282.7 5.4c-.9 1.4-2.6 2.7-3.8 3-1.9.5-1.7.1 1.1-2.8 3.7-3.8 5.1-3.9 2.7-.2z"/><path d="M195 374.2c0 2.6.3 3 1.1 1.8.9-1.3 1-1.3.6 0-.2.8-1.5 1.5-3 1.5-2.1.1-2.4-.2-1.5-1.3.9-1.1.7-1.1-1.4-.2-2.2 1-2.4 1.5-1.5 3.4.6 1.3 1.6 2.3 2.1 2.3.6 0 2.3.4 3.9.8 3.3.9 3.6-.2.5-1.5l-2.3-.9h2.2c1.2-.1 2.9.6 3.8 1.5 2.1 2.2 3.7.7 4.2-3.9.3-2.8-.1-3.6-2.3-4.5-1.4-.7-3-1-3.5-.7-.5.4-.9.1-.9-.4 0-.6-.4-1.1-1-1.1-.5 0-1 1.5-1 3.2zm5.7 3.4c.1 1.8-.2 2.3-.9 1.6-.6-.6-.8-1.8-.5-2.6.9-2.2 1.2-2 1.4 1zM199.9 392c-2.6 1.5-1 10 2.4 12.1 1.4 1 4.8-.2 4-1.4-.4-.6 0-.8.9-.4 1.1.4 1.8-.1 2.1-1.4.7-2.8-.2-5.6-2.1-6.3-1-.3-2.6-1.2-3.7-2-1.4-1-2.5-1.2-3.6-.6zm5.4 7.6c-.3.7-1.3.9-2.4.7-1.4-.4-1.7-.8-.9-1.3.7-.4.9-1.3.5-2s-.2-1.6.6-2.1c1-.6 1.6-.2 2 1.4.3 1.2.4 2.7.2 3.3zM196 400.4c0 .2.7.6 1.5 1 .8.3 1.5.1 1.5-.4 0-.6-.7-1-1.5-1s-1.5.2-1.5.4zM181 413.1c0 .5.5.7 1 .4.6-.3 1-.8 1-1.1 0-.2-.4-.4-1-.4-.5 0-1 .5-1 1.1zM288.4 429.6c-1 .9-1.3 1.2-.5.8 1.1-.5 1.3-.3.8 1-.4 1-.7 2-.7 2.2 0 .3-.4.3-.9-.1-.6-.3-.9.4-.8 1.5.3 3.8 3.9 1.5 5-3.2.9-3.3-.4-4.2-2.9-2.2zM280.6 432.5c-.8.9-1.3 2.2-1 3 .7 1.7 2 1.9 2.9.5.4-.6 1.1-.8 1.6-.5 1.6 1.1 1-.7-.8-2.2-1.7-1.4-1.7-1.4 0-.9 1.1.3 1.6.2 1.2-.4-.9-1.4-2.1-1.2-3.9.5zM300.5 432.9c-.3.5-.2 1.2.3 1.5.5.3.9-.1.9-.9 0-1.7-.3-1.9-1.2-.6zM303.5 434c-.8 1.3.4 5 1.6 5 .5 0 .9-1.4.9-3 0-3-1.3-4-2.5-2zM297.4 436.5c-.3.8.1 2.2 1 3 1.5 1.5 1.7 1.5 2.3-.1.6-1.6.7-1.6 1.3.1.4 1.2.9 1.5 1.3.7.7-1.1-2.9-5.2-4.5-5.2-.5 0-1.1.7-1.4 1.5zM283 438.5c0 .8.5 1.5 1 1.5.6 0 1-.7 1-1.5s-.4-1.5-1-1.5c-.5 0-1 .7-1 1.5zM279.5 439c.3.5.8 1 1.1 1 .2 0 .4-.5.4-1 0-.6-.5-1-1.1-1-.5 0-.7.4-.4 1zM267.7 450.7c.6 1.6.5 1.6-1 .4-1.5-1.1-1.7-1.1-1.7.2 0 .8.6 1.7 1.3 2 .9.3.8.8-.3 2.2-1.1 1.3-1.1 1.6-.2 1.1.8-.5 2.4-.3 3.8.5 2.3 1.2 2.3 1.4.7 3.1-1.9 2.1-.6 2.4 2.1.3 1.8-1.4 1.8-1.5-.2-3.9-1-1.4-2.2-2.3-2.5-2-.3.3-.8-.1-1.3-.8-.4-.7-.4-1 .1-.6.4.4 1.6.3 2.6-.3 1.9-1 2.4-.3 2 2.8-.2 1.5 2.5 1.8 3.3.4.3-.5-.1-1.4-.9-2.1-1.8-1.5-2-3.4-.2-2.4.7.5.6.1-.2-1-1.4-1.6-1.6-1.6-2.7-.2-1.4 2-2.4 2-2.4.1 0-.8-.7-1.5-1.5-1.5-1 0-1.2.6-.8 1.7zM287 455.5c-1 1.2-.9 1.6.3 2.1.9.3 1.3 1.2 1.1 1.9-.7 1.6 1.2 2.9 2.1 1.5.4-.6.1-1.7-.5-2.5s-.9-1.9-.6-2.4c1-1.6-1.1-2.2-2.4-.6zM293.2 459c-1.5 2.4.5 4.4 2.4 2.5.8-.7 1.4-2 1.4-2.8 0-1.9-2.5-1.7-3.8.3z"/><path d="M290.5 463c-.3.5-.2 1 .4 1 .5 0 1.3-.5 1.6-1 .3-.6.2-1-.4-1-.5 0-1.3.4-1.6 1zM276.8 463.8c-2.2.4-2.3 1.8-.3 2.6.9.3 1.8-.1 2.2-1 .7-1.8.3-2.1-1.9-1.6zM262 467.5c-.7.8-.9 1.5-.4 1.5s.1.5-1 1.1c-1.5.9-1.6 1.3-.5 2.1 1.1.7 1.1 1.1.2 1.5-.7.2-1.3.9-1.3 1.4 0 .6.4.8.9.4.5-.3 1.2-.1 1.6.4.9 1.5 3.3.2 4.2-2.2 1-3.1 1-4 .1-6-1.1-2.1-2.2-2.2-3.8-.2zM278.5 467c-.4.7-.2 1.7.4 2.3 1.7 1.7 1.3 2.9-.9 2.2-1.6-.5-2-.2-2 1.4 0 1.2-.4 2.1-1 2.1-1.5 0-1.2 2.6.6 4 1.2 1.1 1.8 1 3.2-.3 1-1.1 1.2-1.7.4-1.7-.7 0-1.2.6-1.2 1.2 0 .9-.4.8-1-.2-1.2-1.8-1.2-2.1-.1-3.9.8-1.2 1.2-1.2 2.4-.2 1.3 1 1.6.9 2.2-.8.3-1.1 1.5-2.3 2.6-2.6 2.5-.8 1.5-2.5-1.1-1.8-1.4.4-2 .1-1.8-.7.4-1.6-1.8-2.4-2.7-1zM274.5 468c-.3.5.1 1 1 1s1.3-.5 1-1c-.3-.6-.8-1-1-1-.2 0-.7.4-1 1zM272.4 470.6c-.7.3-1 1.4-.7 2.4.8 2.8 2.1 2.5 1.9-.5 0-1.4-.1-2.5-.1-2.4 0 0-.5.3-1.1.5z"/><path d="M286 472.1c0 .6-.7.9-1.5.5-1.1-.4-1.5.1-1.4 1.7 0 1.2.3 1.6.6.9.4-1 .8-1 1.9-.1 1.2 1 1.3.9.8-.5-.3-.9-.1-1.6.5-1.6s1.1-.5 1.1-1c0-.6-.4-1-1-1-.5 0-1 .5-1 1.1zM288 477c0 1.9.3 2.1 1.2 1.2.9-.9.9-1.5 0-2.4-.9-.9-1.2-.7-1.2 1.2zM271.7 476.7c-1.3 1.2-.7 3.1 1.1 3.8 1.3.5 1.4.3.5-.6-.6-.6-.9-1.8-.6-2.5.5-1.5.1-1.8-1-.7zM246 478.6c-1.1 1.2-1.5 1.2-2.1.2-.7-1-.9-1-.9.1 0 .8.7 2.2 1.6 3.2 1.2 1.3 1.2 1.9.3 2.5-.8.5-1 .3-.4-.6.5-.9.4-1.1-.3-.6-1.9 1.2-1.4 2.3 1.3 2.8 1.7.4 3.3-.2 5.1-1.9 2.7-2.5 2.9-5.8.4-5.8-.8 0-2-.4-2.6-.8-.7-.4-1.7 0-2.4.9zM238 493.9c0 .5.7 1.2 1.6 1.5 2.2.9 2.4.8 2.4-.9 0-.8-.9-1.5-2-1.5s-2 .4-2 .9zM127.2 610.7c-2.7 3.9-3.5 8.8-1.7 10.3 2 1.7 4.1-.1 5-4.1.4-1.6 1.1-3.1 1.6-3.4.5-.4.9-1.7.9-3.1 0-3.4-3.3-3.2-5.8.3zM468.5 680c-.7 1.2.2 3 1.6 3 .5 0 .9-.9.9-2 0-2.1-1.5-2.7-2.5-1zM127.4 729c-1 .4-7.1 2-13.4 3.4-12.3 2.9-18 5-18 6.5 0 1.6 2 2.4 3.3 1.3.7-.5 4.1-1.5 7.7-2.1 6.3-1.2 11.6-2.7 20.8-5.7 3-.9 5-1.1 6.2-.4 2.7 1.4 5.6 1.2 7-.5 1-1.2 1-1.6-.1-1.9-2.8-.9-11.6-1.3-13.5-.6z"/><path d="M115.2 737.6c-7.2 1.9-9.7 3.3-8.4 4.6.8.8 2.5.6 5.9-.7 2.6-1 5.5-1.9 6.3-2 2.3-.2 4.1-1.5 3.5-2.6-.7-1.1-.7-1.1-7.3.7zM140.3 739.7c-1.3.3-2.3 1.1-2.3 1.9 0 1.1 2.1 1.4 10.9 1.4 5.9 0 13.5.2 16.7.6 6.2.5 9.8-.6 7.8-2.6-1.1-1.1-28.3-2.1-33.1-1.3zM267.4 498.4c-.3.8-.1 3.1.5 5.3.6 2.1 1.1 4.7 1.1 5.7 0 2 0 2-1.4 0-2-2.6-3.6-.9-4.1 4.7-1.1 10.6-5.1 24.5-12.1 42.2-1.9 4.8-1.9 4.9 0 6.3 1.1.8 2.2 1 2.5.6.9-1.2 5-1 4.8.3-.1.5.7 1 1.8 1 2.6 0 3.4 3.5.8 3.6-1 .1-2.4.1-3 0-.7-.1-1.3.5-1.3 1.4 0 1.8 2.1 2 3.9.2 1.1-1 1.3-.9.7.6-.3 1-.6 2.1-.6 2.3 0 .3-.4.2-1-.1-.5-.3-1 .1-1 .9s-.5 1.8-1.2 2.2c-.8.5-.9.2-.4-1.1.5-1.5.4-1.6-.9-.5-1.8 1.5-1.5 2 1.2 2.4 2.1.4 2 4.1-.3 6.3-.8.8-1.4 2-1.4 2.6 0 .7.5.6 1.1-.3.8-1.1.9-.6.5 2-.8 4.9-.8 11.1 0 13.7.3 1.4.2 2.3-.4 2.3-.6 0-.8.9-.5 2.1.5 1.6.8 1.8 1.5.7.6-.9.7-.6.3 1-.9 3 1.4 6.3 6 9.2 4.6 2.8 6.7 1.5 4.1-2.4-.9-1.5-2.1-2.6-2.6-2.6-.6 0-1-.6-1-1.4 0-1 1-1.3 3.5-1l3.5.3-.4-4.6c-.3-2.5-.7-4.7-1-5-.9-.9-7.6-2.1-7-1.2.3.5 0 .9-.5.9-1.5 0-1.8-4.9-.8-13 .7-5.3 1.8-9 2.8-9 .5 0 .6-.6.3-1.3-.2-.7.5-4.1 1.6-7.6s2-7.4 2-8.6c0-1.2.3-2.5.7-2.8.7-.8.8-1.6 1.8-16.1.6-8.8 1-10.9 2.4-11.3.9-.2 2.1-1.5 2.8-2.9 1.5-3.2.7-3-2.4.6-1.3 1.6-3.2 3-4.1 3-1.1 0-.5-.8 1.5-2.3 1.8-1.2 3.3-3 3.3-4 0-.9.4-1.7 1-1.7 1.3 0 .8-4.1-.6-5.7-.6-.6-1.4-3.5-1.7-6.5-1-8-2.6-12.8-4.3-12.8-.8 0-1.7.6-2 1.4zm-2 38.2c-.1 1.5-.8 3.1-1.6 3.5-.9.6-.8.9.5 1.5.9.3 1.7 1 1.7 1.6 0 .5-.5.6-1 .3-1.3-.8-3.8 1.7-3.2 3.3.2.6-.1 1.2-.7 1.2-1.5 0-1.4-2.2.4-4.6.8-1.2 1.2-2.4.8-2.7-.3-.4-.1-1.3.6-2.1.6-.8 1.1-1.8 1-2.2-.3-1.6.1-2.4 1-2.4.4 0 .7 1.2.5 2.6zm.6 9.4c-1.9 1.3-3 1.3-3 0 0-.6 1-1 2.3-1 1.8 0 1.9.2.7 1zm0 2.4c0 .3-.4.8-1 1.1-.5.3-1 .1-1-.4 0-.6.5-1.1 1-1.1.6 0 1 .2 1 .4zm-3.5 1.5c.3.5-.4 1.6-1.5 2.4-1.8 1.3-1.9 1.6-.5 2.7 1.3 1.1 1.4 1 1-.3-.4-.8-.2-1.8.4-2.2.6-.3 1.1-.1 1.1.5s.5.8 1 .5c1.2-.8 1.3-.3 0 2.9-.5 1.4-1.4 2.6-2 2.6-.6 0-.8-.4-.5-1 .3-.5 0-.7-.8-.4-1 .3-1.6-.3-1.9-1.9-.8-4.3 1.9-8.6 3.7-5.8zm-4.3 7.6c.4 2 .2 2.3-.8 1.4-.7-.6-1-1.7-.7-2.5.7-2 1-1.8 1.5 1.1zm3.8 4.6c0 .6-.4.7-1 .4-.5-.3-1-1.1-1-1.6 0-.6.5-.7 1-.4.6.3 1 1.1 1 1.6zm5 40.4c-.9 1-.6 1.4 1.1 1.7 3.5.5 3.4 2.5-.1 2.4-2.1-.1-3.2-.7-3.6-2.1-.4-1.1-.2-2.1.5-2.3.6-.2.9-.8.6-1.3-.4-.5.1-.6 1-.3 1.1.5 1.3 1 .5 1.9zM255.7 508.1c.3 1.1 1 1.9 1.5 1.9s.7-.4.4-.9c-.4-.5-.1-1.1.6-1.3.7-.3.3-.7-.8-1-1.7-.4-2-.2-1.7 1.3zM229.5 513c-.3.5-.1 1 .4 1 .6 0 1.1-.5 1.1-1 0-.6-.2-1-.4-1-.3 0-.8.4-1.1 1zM238 515.9c0 2.6-4 3.9-5.2 1.7-1.1-2-3.8-2.1-3.8-.1 0 .8.7 1.5 1.5 1.5.7 0 1.8.7 2.3 1.6 2 3.6 9.3-1.3 7.8-5.2-.8-2.1-2.6-1.7-2.6.5z"/><path d="M233.2 516.1c.2.7 1 1.5 1.7 1.7.8.3 1.2-.1.9-.9-.2-.7-1-1.5-1.7-1.7-.8-.3-1.2.1-.9.9zM249.3 515.7c-.7.3-1.3 1.7-1.3 3.1 0 2.2.6 2.9 3.4 3.8 2.8.9 3.5.8 4.4-.7 1.4-2.2-1.3-3.5-3.6-1.7-1 .8-1.3.9-.9.1 1-1.6-.6-5.1-2-4.6z"/><path d="M252 516.3c0 1 .8 1.7 1.8 1.7.9 0 1.3-.4.7-.8-.5-.4-1.3-1.1-1.7-1.6-.5-.5-.8-.2-.8.7zM221.7 530.3c-.3.8-.2 2 .3 2.7.6.9 1 .8 1.9-.6.6-1.1 1.1-1.5 1.1-1s-.7 1.7-1.6 2.7c-1.2 1.4-1.3 2.2-.4 3.8 1.2 2.4 3.5 2.9 2.6.6-.4-1 .1-1.5 1.6-1.5 1.2 0 1.8-.3 1.5-.7-.8-.7 1.1-3.3 2.4-3.3.5 0 .9.4.9 1 0 .5-.7 1-1.6 1-.8 0-1.2.5-.9 1 .4.6 1.1.8 1.6.5.5-.4.9-.2.9.3 0 .6-1.1 1.3-2.5 1.6-2.8.7-3.4 3.6-.7 3.6 1.8 0 4.5-2.6 5-4.9.1-.7-.4-2.4-1.3-3.8-1.4-2.1-1.9-2.2-3.3-1.1-.9.7-1.4.8-1 .4.9-1.1-2.1-3.5-4.3-3.6-.9 0-1.9.6-2.2 1.3zM273.6 531.5c-.3.8-.1 1.5.4 1.5.6 0 1 .7 1 1.5 0 2 1.6 1.9 2.4-.1.6-1.6-.9-4.4-2.4-4.4-.4 0-1 .7-1.4 1.5zM170.3 533.6c0 .8.6 1.4 1.4 1.4.7 0 1.3-.4 1.3-.9s-.6-1.1-1.3-1.4c-.8-.3-1.4.1-1.4.9zM244.1 534.6c0 1.1.3 1.4.6.6.3-.7.2-1.6-.1-1.9-.3-.4-.6.2-.5 1.3zM246.9 534.8c-.1.4-.1 1.1 0 1.5.1.4-.5 1-1.2 1.3-.9.3-1.2 1.4-.9 3 .3 1.9 1 2.4 2.6 2.2 1.1-.2 2-.9 1.8-1.6-.1-.7.4-2.3 1.3-3.5.8-1.2 1.5-2.4 1.5-2.7 0-.9-5-1.1-5.1-.2zM175 535.5c0 .3.7 1.4 1.6 2.3 1.5 1.4 1.6 1.4 1.3-.3-.4-1.7-2.9-3.5-2.9-2zM273 537.6c0 .8.5 1.2 1 .9.6-.3 1-.1 1 .6 0 1 .3 1 1.2.1 1-1 1-1.5-.2-2.2-2.2-1.4-3-1.2-3 .6zM242 540.7c0 .5.5 1.5 1 2.3.8 1.2 1 1.1 1-.8 0-1.2-.4-2.2-1-2.2-.5 0-1 .3-1 .7zM204.7 547.1c.7.7 1.5 1 1.8.7.3-.3-.2-.9-1.2-1.2-1.4-.6-1.5-.5-.6.5zM211 547c0 .5.7 1 1.6 1 .8 0 1.2-.5.9-1-.3-.6-1-1-1.6-1-.5 0-.9.4-.9 1zM237.3 554.3c-.3.6-.1.7.5.3.7-.4 1.2-.1 1.2.8 0 .8-.4 1.7-1 2.1-.5.3-.6 1.3-.3 2.2.6 1.5.7 1.4 1.4-.3.6-1.6.8-1.6.8-.2.1 1-.8 2.2-1.9 2.8-1.6.8-2 .8-2-.4 0-.7-.7-1.7-1.6-2-1.2-.5-1.5-.2-.9 1.1.4 1 .8 2.5.9 3.2.3 1.7 2.6 2.8 2.6 1.2 0-.6.7-.8 1.5-.5.8.4 1.5.1 1.5-.5s.3-1 .8-1c3.1.5 4.2-.3 3.9-2.9-.6-5.2-5.4-9.1-7.4-5.9zM233 555c0 .5.5 1 1 1 .6 0 1-.5 1-1 0-.6-.4-1-1-1-.5 0-1 .4-1 1zM191 557.9c0 .5.5 1.3 1 1.6.6.3 1 .2 1-.4 0-.5-.4-1.3-1-1.6-.5-.3-1-.2-1 .4zM269.8 560.6l-.4 3.5 1.7-2.3c1-1.2 1.6-2.6 1.3-2.9-.2-.4.2-1 .8-1.2.7-.3.3-.6-.8-.6-1.8-.1-2.3.6-2.6 3.5zM224.2 560.9c.1 2 .6 2.7 1.6 2.3 1.1-.4 1.3 0 .7 1.6-.3 1.2-.2 2.2.3 2.2s1.2-.9 1.5-2c.3-1.1.2-2-.3-2-.4 0-1.1-1.1-1.4-2.5-.9-3.4-2.7-3.2-2.4.4zM216.1 560.1c-1.4.5-3.1.7-3.8.5-1.8-.7-1.6.7.5 3.2 1.3 1.5 2.2 1.8 3.4 1.1 1-.5 1.5-1.6 1.2-2.4-.4-.8-.2-1.5.4-1.5.6 0 1.3.6 1.5 1.2.4 1 .6 1 .6 0 .1-.8.6-1 1.4-.6.8.5.8.2-.2-.9-1.5-1.9-1.7-1.9-5-.6zM220.5 564.1c-1.7.6-1.7.8-.2.8 2 .1 2.3 2.7.5 3.4-.8.3-.7.6.4.6 2.1.1 2.6-.8 1.9-3.5-.5-1.7-1-1.9-2.6-1.3zM255.5 566c.3.5.8 1 1.1 1 .2 0 .4-.5.4-1 0-.6-.5-1-1.1-1-.5 0-.7.4-.4 1zM229 568c0 1.1.4 2 1 2 .5 0 .7.7.3 1.5-.3 1 0 1.5.8 1.3.9-.2 1.3.9 1.4 3.4 0 3.2.2 3.5 1.9 2.6 1.8-1 1.9-1.1.2-2.3-.9-.7-1.6-1.7-1.5-2.1.3-1.1-2.8-8.4-3.5-8.4-.4 0-.6.9-.6 2zM193 568c-1.2.7-1.2 1 .3 1.6 2.1.8 2.9.3 1.9-1.3-.5-.8-1.3-.9-2.2-.3zM213.5 572c.2 2.4 1.5 4 1.5 1.7 0-1 0-2 .1-2.4 0-.4-.4-.9-.9-1.1-.5-.1-.8.6-.7 1.8zM193.3 572.6c0 .8.6 1.4 1.4 1.4.7 0 1.3-.4 1.3-.9s-.6-1.1-1.3-1.4c-.8-.3-1.4.1-1.4.9zM223.3 572.7c-.7.3-1.3.9-1.3 1.5 0 .5.6.8 1.3.5.6-.2 2.3.5 3.6 1.7 2.4 2.1 2.4 2.1 1.3 0-1.5-2.8-3.4-4.2-4.9-3.7z"/><path d="M229.5 575c.3.5.8 1 1.1 1 .2 0 .4-.5.4-1 0-.6-.5-1-1.1-1-.5 0-.7.4-.4 1zM245 576.1c0 .5.4.7 1 .4 1.5-.9 2.2 3.8 1.1 6.8-1.3 3.4 0 3.6 1.6.2 1.2-2.7.7-6.5-1.1-7.7-1.6-1.1-2.6-1-2.6.3zM499.3 579.5c0 2.7.2 3.8.4 2.2.2-1.5.2-3.7 0-5-.2-1.2-.4 0-.4 2.8zM242.5 576.9c-.3.5-.1 1.2.5 1.6.5.3 1-.1 1-.9 0-1.8-.6-2.1-1.5-.7zM196.6 578.5c-.3.8 0 1.7.6 2.1.6.4.8.3.4-.4-.3-.5-.1-1.2.6-1.4.8-.3.9-.6.1-1.1-.6-.4-1.3 0-1.7.8zM202.6 578.8c-.3.6-.1 1.2.5 1.4.8.3.6 1-.5 2.1-1 .9-1.6 2.3-1.3 3 .2.6-.5 2.2-1.7 3.5-2.1 2.3-2.1 2.4-.2 3.8 1.1.8 2.7 1.4 3.5 1.4 1.4 0 1.4-.1.1-1-1.3-.8-1.3-1 .2-1 1 0 2.2.9 2.8 2 .6 1.1.7 2 .2 2-.4 0-.8.9-.9 2-.1 1.1.2 1.8.8 1.5.5-.4.9-1.2.9-2 0-.7.6-1.5 1.3-1.8 1-.4 1-.7 0-1.8-1.8-1.8-1.6-2.6.8-3.2 1.8-.5 2.1-.2 1.7 2.2-.3 2.3-.1 2.7 1.4 2.3 1.3-.3 1.6-.8.8-1.7-.5-.6-.8-1.4-.5-1.7.3-.3-.1-1.1-1-1.8-.8-.7-1.5-2-1.5-2.8 0-1.3-.2-1.2-1.4.3-.8 1.1-2 1.6-2.9 1.2-1-.4-1.8 0-2.1 1.1-.3 1.3-.4 1.2-.3-.3.1-1.1-.2-2.6-.6-3.3-.5-.7-.2-1.9.7-2.8 1.8-1.8 1.9-2.4.7-4.3-.5-.8-1.1-.9-1.5-.3zM191.3 580c-2.8 1.1-2.9 1.5-.4 1.7 1.1.1 2.2-.5 2.5-1.3.3-.8.4-1.4.3-1.3-.1 0-1.2.4-2.4.9zM239.7 580.4c-2 2-1.4 3.8 1 2.9 1.3-.5 1.5-.2.9 1.2-.7 1.8-.6 1.8 1.4 0 2.4-2.1 2.5-2.6.6-1.9-.9.4-1.6-.2-1.8-1.7-.3-2.2-.4-2.2-2.1-.5zM253.5 581c-.3.5.1 1 1 1s1.3-.5 1-1c-.3-.6-.8-1-1-1-.2 0-.7.4-1 1zM194.4 582.6c.5 1.3.1 1.5-1.9 1.2-1.5-.3-2.5-.1-2.5.7 0 2.1 1.2 2.5 3.3 1 1.8-1.2 2.2-1.2 3.2.2.6.9 1.7 1.4 2.4 1.2.8-.3.4-1.4-1.3-3.2-2.8-3-4.1-3.5-3.2-1.1zM228.5 585.8c-.3 1-.1 1.2 1 .8.8-.3 1.5-.1 1.5.4s.7.7 1.5.3c.9-.3 1.4-1.1 1.2-1.7-.5-1.6-4.5-1.6-5.2.2z"/><path d="M205 585.9c0 .5.5 1.3 1 1.6.6.3 1 .2 1-.4 0-.5-.4-1.3-1-1.6-.5-.3-1-.2-1 .4zM243.6 586.5c-.3.8-.1 1.5.4 1.5.6 0 1-.7 1-1.5s-.2-1.5-.4-1.5-.6.7-1 1.5zM251.6 587.2c.3.4.9.8 1.5.8.5 0 .9-.4.9-.8 0-.5-.7-.9-1.5-.9s-1.2.4-.9.9zM252 591.2c0 .7.4 1.9.9 2.7 1.1 1.7 2.3-.1 1.5-2.3-.7-1.9-2.4-2.1-2.4-.4zM214 592c0 .5.5 1 1 1 .6 0 1-.5 1-1 0-.6-.4-1-1-1-.5 0-1 .4-1 1zM214.7 596.3c-.2.7.4 2.3 1.4 3.6 1.6 1.9 2.2 2.1 3.4 1.1 2.1-1.7 1.9-2.7-.6-3.5-1.7-.6-1.9-.9-.8-1.6 1.1-.7.9-.9-.7-.9-1.2 0-2.4.6-2.7 1.3zm5.3 3.1c0 .3-.4.8-1 1.1-.5.3-1 .1-1-.4 0-.6.5-1.1 1-1.1.6 0 1 .2 1 .4zM253 597c0 .5.5 1 1 1 .6 0 1-.5 1-1 0-.6-.4-1-1-1-.5 0-1 .4-1 1zM211.5 600c-.3.5.1 1 1 1s1.3-.5 1-1c-.3-.6-.8-1-1-1-.2 0-.7.4-1 1zM254 600.5c0 .8.5 1.5 1 1.5.6 0 1-.7 1-1.5s-.4-1.5-1-1.5c-.5 0-1 .7-1 1.5zM214.7 603.7c-.4.3-.7 1.1-.7 1.7 0 .6.5.5 1.2-.2.6-.6.9-1.4.7-1.7-.3-.3-.9-.2-1.2.2zM454.5 603.9c-.3.5-.1 1.2.5 1.6 1.2.7 3-.2 3-1.6 0-1.2-2.7-1.2-3.5 0zM470.7 603.7c-1.2 1.1-.8 2.3.8 2.3.8 0 1.5-.7 1.5-1.5 0-1.6-1.2-2-2.3-.8zM449.2 605.2c.6 1.8 2.8 2.1 2.8.4 0-.9-.7-1.6-1.6-1.6-.9 0-1.4.5-1.2 1.2zM474.6 606.7c-1.2 1.2-.6 3.3.9 3.3.8 0 1.5-.6 1.5-1.4 0-1.7-1.4-2.8-2.4-1.9zM464 608.5c0 .8.7 1.5 1.5 1.5s1.5-.7 1.5-1.5-.7-1.5-1.5-1.5-1.5.7-1.5 1.5zM201.7 611c-.3 1.1.1 2.7.8 3.6 1.1 1.6 1.3 1.4 1.7-1.4.5-3.4-1.7-5.3-2.5-2.2zM208 610.8c0 1.4.2 1.4.9.3.8-1.2 1.2-1.2 2.5-.2.9.8 1.6 1.8 1.6 2.4 0 .6-.7.2-1.5-.9-.8-1-1.5-1.4-1.5-.8 0 .6.6 1.7 1.4 2.3 1 .8 1.6.8 2.5-.3.9-1.1.9-1.6 0-2.1-.8-.6-.8-.9 0-1.5.7-.4-.4-.7-2.4-.8-2.7-.1-3.5.3-3.5 1.6zM219.6 610.7c-.4.8-1.2 1.3-2 1-1.1-.5-1.2 0-.2 2.4.9 2.5 1.5 2.9 3.5 2.4 1.7-.4 2.2-.2 1.8.8-.7 1.8.9 4.4 2 3.3.4-.5.2-1.1-.6-1.4-.9-.3-.4-.9 1.5-1.7l2.9-1.2-3.7-1.6c-4.5-1.9-4.9-2.7-1-2.1 2.4.4 2.5.3 1-.9-1-.8-1.6-1.6-1.3-1.8.2-.3-.4-.5-1.5-.6-1-.1-2.1.5-2.4 1.4z"/><path d="M226 618.9c0 .6.9.9 1.9.8 1.1 0 1.7-.5 1.5-.9-.7-1.1-3.4-1-3.4.1zM231 621.9c0 .6.4 1.3 1 1.6.6.3.7-.1.4-.9-.7-1.8-1.4-2.1-1.4-.7zM56.5 665c-3.3.4-10.7 1.3-16.5 1.9-11.1 1.3-12.7 1.9-11.6 4.6.4 1.3 1.3 1.5 3.2 1.1 5.3-1.4 17.3-2.8 27.4-3.3 11.1-.5 13.1-1.2 11-3.8-1.3-1.6-3.5-1.7-13.5-.5zM.7 668.6c-1.5 1.5-.6 3.4 1.6 3.4 1.2 0 4.5.6 7.3 1.4 2.9.8 5.8 1 6.5.5 1.6-.9 1.4-1.1-2.8-3.3-3.8-1.9-11.5-3.1-12.6-2zM55.2 672.7c.2 1.4 1.5 1.9 5.7 2.1 6.4.4 8.3-.2 7.5-2.3-.5-1.1-2.2-1.5-7.1-1.5-5.6 0-6.4.2-6.1 1.7zM488.4 681.1c-1 1.7 1.3 3.6 2.7 2.2 1.2-1.2.4-3.3-1.1-3.3-.5 0-1.2.5-1.6 1.1zM0 684.4v2.6h9.3c5 0 11.2.5 13.7 1.1 4.2 1.1 26 1.3 39 .6 4.6-.3 5.5-.7 5.5-2.2 0-1.8-1.3-1.9-22-2.1-24.1-.3-40.7-1-43.6-1.9-1.5-.5-1.9-.1-1.9 1.9zM.1 694.6c0 1.1.3 1.4.6.6.3-.7.2-1.6-.1-1.9-.3-.4-.6.2-.5 1.3zM471 784.8c-1.4 1.1-2.3 3-2.4 5.2-.2 3.4-.3 3.5-5.2 4.1-6.7.8-9.4 1.8-9.4 3.3 0 2.2 2.6 3.7 7.7 4.5l4.8.8-4.2 1.2c-5 1.4-5.8 2.3-4.3 5.1.7 1.4 2.1 2 4.3 2 1.8 0 3.9.5 4.7 1 1.3.8 1.3 1-.2 1-.9 0-2.9 1-4.4 2.3-2.2 1.9-2.6 2.9-2 5.1.9 3.7 3.9 3.1 4.6-.9.4-2.2 1.1-3 2.5-3 2.2 0 2.1-1.4 2.5 23.7.2 9.5.6 13.1 1.7 13.9.7.7 1.6 1 1.9.7.3-.3.5-9.2.4-19.7V816l4.3-.2c2.3-.1 8-.2 12.7-.3h8.5l.2-4.2c.2-3.4 0-4.1-1.2-3.7-1 .4-1.8-.3-2.5-2-.9-2.4-1.4-2.6-7.1-2.6-8.1 0-7-.9 1.7-1.6 3.8-.3 7.3-.9 7.9-1.5 1.4-1.4-1.5-3.1-4.5-2.5-3 .5-4.4-.2-5.3-2.7-.4-1-1.7-1.7-3.4-1.7h-2.8l3-2.4c2.9-2.3 2.9-2.4 1.2-5-1.6-2.3-2.4-2.6-7.6-2.6-4.2 0-6.5.5-8.1 1.8zm9.5 3.2c-.3.5-1.9 1-3.6 1-1.6 0-2.9-.5-2.9-1 0-.6 1.6-1 3.6-1 2.1 0 3.3.4 2.9 1zm-.7 4.7c-1 .2-2.6.2-3.5 0-1-.3-.2-.5 1.7-.5s2.7.2 1.8.5zM468 798c0 .5-.6 1-1.4 1-.8 0-1.8-.5-2.1-1-.3-.6.3-1 1.4-1 1.2 0 2.1.4 2.1 1zm9.5.1c-1.8.5-3.3.5-3.9-.1-.7-.7.4-1 3-.9 3.9.1 3.9.1.9 1zm5 8.9c2.4.6 1.7.8-3.3.9-4 .1-6.1-.3-5.7-.9.7-1.1 4.6-1.1 9 0zm-15.2.7c-.7.2-1.9.2-2.5 0-.7-.3-.2-.5 1.2-.5s1.9.2 1.3.5z"/><path d="M480.3 821.1c-.9.9-.7 1.7.8 3.2 1.5 1.6 2.2 1.8 3.1.9.9-.9 1-1.7.2-2.9-1.4-2.2-2.7-2.6-4.1-1.2z"/></svg>