<svg version="1" xmlns="http://www.w3.org/2000/svg" width="666.667" height="1170.667" viewBox="0 0 500 878"><path d="M252.7 7.7c-.1.1-6.9.2-15.2.3-21 .3-30.7 1-30.2 2.4.2.6 1.5 1.1 2.8 1.2 4.3.2 4.9.4 4.9 1.5 0 .6 1.1 2.5 2.4 4.2 2.7 3.5 7.6 12.9 7.6 14.5 0 .5-2.7 1.2-6 1.4-6.3.4-7.6 1-6.6 2.7.7 1 68.4.6 69.4-.4.3-.2.2-1.1-.1-2-.5-1.1-2.2-1.5-6.7-1.5-6.8 0-6.6.5-6-11.5.3-7 1.2-8.5 5.1-8.5 2.2 0 2.9-.5 2.9-1.9 0-1.8-.9-2-12.1-2.3-6.6-.2-12.1-.2-12.2-.1zm-18.8 4.2c1.1.7.9 2.2-1.4 8.5-1.5 4.2-2.9 7.6-3.1 7.6-.2 0-1.3-1.9-2.5-4.3-1.2-2.3-2.5-4.4-2.9-4.7-.4-.3-1.5-1.9-2.4-3.7l-1.6-3.2 3.3-.4c6-.7 9.2-.7 10.6.2zm28.8 10.4c-.2 7.9-.4 9.2-1.9 9.5-1.6.3-1.8-.7-1.8-9.6 0-10.2.4-11.9 2.6-10.1.8.7 1.2 3.9 1.1 10.2zm-9.3-2.6c.9 10.8.9 11.5-.6 12.4-2.5 1.6-3.3.2-4-6.7-.4-3.8-.9-8.1-1.2-9.5-.6-3.1 0-3.9 2.9-3.9 2.1 0 2.3.6 2.9 7.7zm-9.9.6c.4 3.4.5 7.6.3 9.2-.3 2.8-.7 3-4.5 3.3-5 .4-5.2-.1-2.4-7.9 4.6-13.3 5.6-13.9 6.6-4.6zM186.8 203.7c-5.7 1.9-6.4 4.3-1.3 4.3 4.9 0 4.4 1.9-1.4 5.8-5.7 3.7-7.2 4.1-4.6 1.2 2.1-2.3 1.4-3.6-1.2-2.5-2.7 1.2-9.3 1.4-9.3.4 0-.5 1.4-1.6 3.1-2.4 2.9-1.6 3.6-4.4.8-3.6-.8.2-2.7.6-4.4.9-1.6.3-3.9 1.1-5 1.8-1.1.8-2.8 1.4-3.8 1.4s-5.3 3.5-9.6 7.8c-7.8 7.8-7.9 7.9-9.1 15-1 6.2-1 7.8.5 12.4 1 2.9 2.6 6.3 3.7 7.5 1.6 1.7 1.7 2.5.9 4.1-.8 1.5-.6 2.3 1 3.8 2.1 1.9 2.2 5.6.4 11-.9 2.8 2 5.7 4.7 4.8 1.5-.4 2.6.1 4.2 2.1 1.5 1.8 3.4 2.8 6.4 3.2 2.3.3 4.2.9 4.2 1.3 0 1.2-4.7 2.9-6.7 2.4-3.1-.9-4.7 1.9-3 5.3 1 2.1 1.2 5 .8 11.3-.6 7.1-.8 8-1.5 5.2-.4-1.8-.5-5.5-.1-8.1.7-5.3-.8-7.8-2.9-4.8-.6.8-1.7 2.4-2.4 3.4s-1 1.2-.7.5c1.3-2.7-12.4-5.8-14-3.2-.9 1.4-3.7 1.2-3.3-.2.3-.7 1.8-1.6 3.4-2 1.6-.4 4.7-1.1 6.9-1.7 2.2-.6 5.5-.8 7.4-.4 2.6.4 3.3.3 2.9-.8-1.1-3.3-5-3.8-12.9-1.9-4.2 1-8.8 2.6-10.3 3.5-3.6 2.4-8.4 9.7-9.2 14-.8 4.4-4 6.2-10 5.6-1.4-.1-3.4-12.8-3.4-21.1 0-3.9-.5-6.4-1.5-7.4-1.7-1.7-.8-5.3 1.9-7.5 1-.9 1.6-2.9 1.6-5.6 0-3.7-.5-4.7-4-7.9-3.5-3.1-4.7-3.6-9.1-3.6-6.5 0-9.9 1.8-12.8 7-2.4 4.3-2.4 4.4 0 14.7 1.5 6.6-.2 29.8-2.2 31.8-.9.9-5 1.5-12.1 1.7l-10.7.3-.5-2.9c-1.1-5.1-.6-13.2.8-15.1 2-2.8.9-10.4-2.1-13.7-5.2-5.5-16.2-4.2-20.4 2.5-1.6 2.6-1.9 4.4-1.5 9.2 1 13 1.2 40.2.3 44.3-.8 3.6-1.8 4.9-6.6 8.2-10.2 7.1-16.1 12.2-16 13.9 0 .9.8 3.8 1.7 6.6 1.5 4.4 2.1 5 4.2 4.7 1.4-.1 5.8-2.5 9.9-5.2 4-2.7 7.7-4.7 8.2-4.5.4.3.8 4 .8 8.3 0 6.9.3 7.9 2.4 9.7 3.1 2.5 3.4 6.8 4.3 50.7.6 28.3.5 31.8-.9 31.8-.8 0-2.2.3-3.1.6-2.5 1-4.5-6-7-24.9-.6-4.4-2.8-13.1-3.8-15-.6-1.2-.2-2.9 1.7-6 2.2-3.8 2.3-4.6 1.1-6.3-1-1.3-1.1-2.3-.4-3.1 1.8-2.2-.1-6.2-4.4-9.3-5-3.7-7.7-3.7-14.8-.2-9.5 4.7-12.9 13.6-7.6 19.9l2.5 2.9-.2 24.5-.2 24.4-3.7.3c-2.7.2-3.8.8-3.8 1.9 0 1.8-1.8 2 26-3.2 18.3-3.5 41-6.8 41.7-6.2.6.7.6 9.5-.1 10.5-.4.8-3.7 1.2-8.7 1.2-10.1 0-25.6 2.6-51.9 8.6-6.2 1.4-7 1.9-7 3.9 0 2.2.2 2.3 3.6 1.3 4.6-1.2 5.4-.2 5.4 7.1 0 3.2.6 6.1 1.4 7 1 1.1 1.7 7.8 2.6 23.1.8 11.8 1.3 22.4 1.3 23.5-.1 3.6 3.6 69.6 4.7 84 .6 7.7 1.1 20.5 1.3 28.4l.2 14.4-5 1.4c-2.7.7-7.4 1.3-10.2 1.3-5 0-5.3.2-5.3 2.5 0 2.4.1 2.4 6.7 1.9 3.8-.3 8.3-1 10-1.6 3.8-1.1 5.3-.5 5.3 2.4 0 1.6-.4 1.8-1.7 1.2-2-.9-7.6-1-14.3-.1-2.5.3-4.9.6-5.3.6-.4.1-.7 3-.6 6.6.2 4.6.5 6.3 1.3 5.5 1.4-1.4 2.6-1.2 2.6.5 0 .8-.9 1.5-2 1.5s-2 .7-2 1.5c0 1.3 1.8 1.5 11.2 1.3l11.3-.3.5 10.9c.4 9.4.3 10.9-1.2 11.7-.9.5-2.5.8-3.5.7h-10C0 726 0 726 0 728.6v2.7l9.3-.8c5-.4 10.3-.8 11.7-.8 1.6-.1 2.6.4 2.8 1.5.3 1.6-.6 1.8-8 2-4.6.1-10 .1-12.1 0C.2 733 0 733.1 0 736v3h8.9c4.9 0 10.1-.4 11.5-1 1.7-.6 2.7-.6 3.2.1.3.6.8 5.9 1 11.7.2 5.9.6 15.9.9 22.2.2 6.3.1 12.1-.3 12.7-.6 1-1.7 1-4.2.3-4.2-1.2-4.3-1.2-3.6-.1.3.5 0 1.1-.8 1.4-.7.3-2.3-.7-3.5-2.4-2.5-3.4-3.7-3.7-3.7-1 0 1.1.5 1.7 1.3 1.4.9-.4 1.1 0 .7 1.1-.8 2.1-5.4 2.1-5.4.1 0-.8-.4-1.5-1-1.5-.5 0-1 .5-1 1.1 0 .5-.4.8-.9.5-2.6-1.7-3.2 2.8-3 25.4l.1 23.2 4.4-.5c4.4-.5 7 .8 4 1.9-.9.3-1.6 1.3-1.6 2.1 0 1-.7 1.3-2.3.9-1.2-.3-1.7-.3-1 0s.9 1.2.6 2c-.3.8-.2 1.4.2 1.4 1.1 0 3.5-2.8 3.5-4.2 0-1 .3-.9 1.1.2.9 1.3 1 1.3.6 0-.2-.8.6-2.2 1.7-3.1 2-1.7 2.1-1.7.2-3.8-1.1-1.2-2.9-2.2-4-2.2-1.2-.1 1.5-.7 5.9-1.3l8-1.1v-3.2c0-1.7.4-3.1 1-3 .5.1.9-.4.7-1.1-.5-2.7 2.2-.5 3 2.4 1.2 4.4 1.2 25.4 0 26.6-.6.6-2.8 1.2-4.9 1.4-2.1.2-6.3 1.2-9.3 2.3-3 1.2-6.9 2.1-8.7 2.1-2.6 0-3.3.4-3.3 1.9s.6 1.9 2 1.6c1.5-.3 2.4.3 3 2.1 1 2.6.9 2.6 8.9.4 1.5-.4 3.8.1 6 1.2 4.1 2.1 13.5 2.5 12.9.6-.3-.7-2.4-1.6-4.8-2-2.4-.4-5.3-1.7-6.5-2.8-1.2-1.1-2.7-2-3.5-2-.9 0-.7-.5.6-1.4 1.7-1.3 2.1-1.3 3.6.7 1.6 2.1 2.2 2.2 18 1.8 22-.5 22.1-.5 31.8 1.3 5.7 1.1 8.8 1.2 9.5.5 1.3-1.3-.9-2.7-5.5-3.5-1.9-.3-6-1.2-9.1-2.1-4.5-1.3-5.5-2-5.5-3.7.1-1.9-.4-2.1-5.7-1.9l-5.7.2.1-7.2c0-4 0-7.7-.2-8.2-.3-1.5 1.2-4.5 2.3-4.5.5 0 .6.5.2 1.2-.5.7-.3.8.6.3.7-.4 1.6-.2 2 .6.7 1 1.1 1 2.4 0 .9-.7 2.7-1.1 4-.9 1.7.3 2.3 0 2.2-1.1-.1-1.2 1.1-1.7 5.2-1.9 8.2-.5 9.3-.5 16.4.1 4.1.4 9.6.1 14-.8 4-.7 13.6-1.3 21.2-1.4 7.6 0 14.3-.4 14.9-1 1.9-1.9-.5-3.1-6.4-3.1-3.3 0-5.8-.4-5.5-.9.3-.5 0-1.1-.8-1.4-.8-.3-1.7 0-1.9.7-.4 1-2.2 1.2-6.4 1-3.2-.3-8.2.1-11.1.7-3.6.7-5.7.7-6.5 0-.9-.7-2-.6-3.7.2-1.7.9-4.4 1-8.4.6-3.3-.4-6.4-.5-7-.3-.6.2-6.4.5-12.8.7-7.1.2-12.3.8-13.1 1.6-1.2.9-1.6.8-2-.3-.7-1.6-1.1-27.5-.6-28 .2-.2 5.3-.7 11.3-1.1 7.2-.5 11.4-1.2 12.3-2.1.8-.8 1-1.4.4-1.4s-.8-.6-.5-1.4c.4-1.2-.2-1.3-3.3-.6-2.1.4-7.1.8-11.2.9-4 .1-7.7.4-8.2.7-.5.3-.9-1.6-1-4.3 0-2.6-.2-8.8-.5-13.7l-.6-8.9 2.7.7c1.5.4 3.5.4 4.6.1 3.4-1.1 2.1-3.3-2.8-4.9l-4.8-1.5 4.3.5c3.6.5 12.9.6 26.2.3 1.9-.1 5.6.7 8.2 1.7 3.7 1.4 5.1 1.5 5.9.7 1.6-1.6-.2-3.9-3.6-4.7-1.4-.4-2.5-1.1-2.5-1.7 0-.7.8-.9 2.3-.4 1.2.4 3.9.9 6 1.2 2.3.3 4.1 1.2 4.8 2.4 1.5 2.9 10.2 2.6 15.3-.5l3.8-2.4 5.7 1.9c6 2.1 10.2 2.2 10.9.1.2-.7-1.1-1.9-3-2.8-3.3-1.5-3.3-1.5 2.7-.9 9.7 1.1 18.9 1.2 20.8.3 2.9-1.4.9-2.8-4.1-2.8-2.6 0-9.2-.7-14.7-1.5-12.3-1.8-19.7-1.9-21.3-.3-.7.7-1.2 1-1.3.8 0-.3-.2-6.7-.5-14.3-.4-12.5-.2-13.7 1.4-13.7 10-.3 11.5-.8 14.8-4.6l3.2-3.9 4 2.3c3.3 1.8 5 2.1 9.4 1.6 6.3-.7 12.3 1.4 13.1 4.7.5 1.9.3 2-3.1 1.4-2-.4-4.8-.9-6.2-1.1-1.4-.2-4.1-.6-6.1-1-3-.5-4.3 0-8.3 2.7-3.3 2.4-6.6 3.6-11.4 4.4-8 1.3-8 3.1.1 2.8 4.5-.1 7.1-.9 12-3.6l6.2-3.5 5.9 1.3c8.7 2 11.6 3.5 12.2 6.1.3 1.2.4 9.8.2 19.1-.4 16.2-.5 16.9-3 20.6-1.5 2.1-2.8 4.2-3 4.8-.7 2.1-47.4 1.2-53.3-1.1-4.6-1.8-27.5-1.4-32.4.6-4.2 1.7-6.1 4.8-4.2 6.7.9.9 2 .7 4.4-.7 3-1.8 7.9-2.8 20.7-4.2 5.1-.6 5.9-.4 8.8 2.1 1.7 1.4 3.5 2.4 4 2.1 1.1-.6 10.1-.6 32 0 18 .6 18.7.8 15.7 4.8-.8 1.1-1.5 2.8-1.5 3.9 0 1.5-.5 1.7-2.9 1.2-3.3-.7-31.9-.7-50.1 0-11.9.5-19 1.8-19 3.5 0 1.8 3.1 3.2 5.7 2.5 1.6-.4 7.3-.9 12.7-1 5.5-.2 13.5-.6 17.8-1 5.4-.5 7.8-.4 7.8.4 0 .6-.6 1.1-1.3 1.1-1.8 0-6 3.7-5 4.3.4.2 7.6.4 15.8.3 12.4-.1 15-.4 15-1.6 0-1.9-4.1-2.7-14.7-2.9-5.2-.1-8.8-.5-8.8-1.1 0-1.1 1.2-1.2 15.7-.4 7.4.4 10 .9 9.7 1.8-.3.7.4 2 1.4 3 4 3.6 19.5-1.1 32.2-9.7 2.5-1.7 4.9-3.6 5.3-4.3.5-.9 2.9-1.3 7.3-1.2 6.8.1 10.3-1.4 7.4-3.2-.8-.5-2.8-1-4.3-1-5.7 0-1.5-1.8 6-2.5 13.4-1.3 26.2-.7 29.2 1.3 3.8 2.6 7.7 4.2 15.6 6.3 8.5 2.3 10.5 2.3 10.5.4 0-2-4.1-3.9-12.8-6-5.9-1.4-7.6-2.3-9.5-4.8-5.1-7.2-5.2-8.7-.6-8.7 1.3 0 4.9-.2 8.1-.6l5.6-.6 2.5 3.9c1.4 2.1 3.5 6.2 4.7 9 2.4 5.6 4.2 7 6 4.8 1.3-1.6 0-6.6-3.2-12.3l-1.9-3.4 4.1-3.9c2.2-2.1 4.4-3.9 4.9-3.9s2.3-1.2 4-2.6c3.3-2.7 6.8-2.9 6.3-.2-.1.9.5 1.9 1.5 2.2 2.1.6 12.9-.7 15.7-1.9 1.4-.6 1.8-.5 1.4.6-.3.8-1.3 1.5-2.4 1.7-8.7 1.4-12.4 2.5-12.4 3.8 0 1.2 3.4 2 6.4 1.5.5-.1 1.3.4 1.7 1.1.6.9.9 1 .9.1 0-.7 1.5-1.5 3.4-1.8 5.8-1.1 9.4-4 9.8-7.7.2-2.6.7-3.2 2.3-3 1.1.1 4.9.2 8.4.2 6.2.1 6.3.1 4.6 2-2.9 3.2.8 5.4 5.3 3.1 6.8-3.7 10-4.8 11.2-4.1 2.3 1.4-1.5 6-4.9 6-3.1 0-9.6 2.4-10.6 3.9-.3.6.3 1.4 1.3 2 2.1 1.1 9.2 1 9.2-.2 0-.4.9-.7 2-.7 1.2 0 3.5-.7 5.2-1.6 2-1 4.4-1.4 6.5-1.1 5.1.9 15.3-1.1 20.3-3.9 3.4-1.9 4.9-2.3 6.5-1.5 3.8 1.9 18 6.2 22 6.7 2.3.3 6.8-.2 10.5-1.2 8.2-2.1 12.5-2 30.5.7 6.1.9 8.8 1.9 11.5 4 2 1.6 5.4 3.1 8 3.5 2.5.4 5.3 1.1 6.2 1.5 1.2.7 2.3.3 3.8-1.3 2.3-2.5 2.7-5 .7-4.2-1 .3-1.4-.4-1.4-2.5v-3l3.4 3.9c2.2 2.5 4.6 4 7.1 4.5 5.1 1.1 22.1 1.2 21.5.2-.3-.5 1-.7 2.8-.5l3.4.3.1-6.7c.1-3.7-.2-6.5-.7-6.2-.5.3-.9 0-.9-.5 0-.6.5-1.1 1-1.1.6 0 1-2.2 1-5 0-4.9 0-4.9-3.7-5.6-3.5-.7-7 .5-6.6 2.3.1.4-.9 1.3-2.3 2-2.3 1.1-2.4 1-2.4-2.7s.1-3.8 4.5-4.5c2.6-.3 5.9-.3 7.5 0 2.5.6 3 .4 3-1.3 0-2.7-2.3-3.4-9.2-2.6l-5.9.7.3-4.4.3-4.4 7.3-.8 7.2-.9v-7.4l-5.8.2c-3.2.2-6.5.4-7.3.6-1.1.2-1.5-1.3-1.7-7.7-.3-9.9.1-10.7 5.3-9.5 6.6 1.6 9.5 1.3 9.5-.9 0-1.1-.8-2.1-1.7-2.3-1.1-.2-1.8-1.3-1.8-2.8 0-2.3-.5-2.5-5.4-3l-5.4-.5v-6c0-3.3.3-17.3.7-31 1-38 1.4-57.8 2.1-107.3.4-24.9.8-46.5 1-48 .2-1.5.6-14.4 1-28.7.4-14.3.8-26.1 1-26.3.1-.1 1.9 1.4 4.1 3.5 3.6 3.4 3.9 3.5 4.2 1.5.2-1.2-.4-3.2-1.2-4.4-.9-1.3-1.6-4.3-1.6-7 0-4.2-.3-4.9-2.8-6.2l-2.7-1.4.2-14.9c.8-59.3 1.1-64.7 3.4-66.4 1.8-1.3 2.1-2.6 2-6.9 0-2.9-.3-6.1-.6-7.1-.4-1.2.1-1.9 1.5-2.4 1.1-.3 2-1.5 2-2.6 0-1.7-.8-1.9-9.7-2-5.4-.1-12.5-.1-15.9 0-4.3.2-6.4-.1-7.2-1.2-1-1.1-.9-1.7.1-2.6 1-.8 4.2-.7 12.6.5 12.6 1.7 13.8 1.4 14.3-3.9.2-2.7.8-3.3 3.1-3.5 3-.4 3.9-3.5 1.2-4.6-1-.3-1.5-2-1.5-4.8-.1-4.2-.7-7.6-2.9-16.6-1-3.7-.8-4.9 1-8.8 1.1-2.6 1.8-5.6 1.5-6.9-.9-3.7-4.5-7.4-8.2-8.4-4.5-1.2-12.7 1.1-14.9 4.2-1.8 2.5-2 10.8-.3 12.5.9.9.9 2.6 0 7.5-.7 3.6-1.2 8-1.2 9.9 0 3.8-2.1 6.4-4.3 5.5-2.3-.9-3.6-27.3-2.1-40.4.7-6.1-1.2-9.7-6.9-12.8-3.1-1.6-3.9-1.7-8.1-.5-8.4 2.3-12.1 11.4-7.7 18.7 1.5 2.4 1.8 3.8 1.1 6-.5 1.5-1.2 4.1-1.7 5.7l-.8 3-12.7.2c-9.1.3-12.9 0-13.6-.9-.6-.7-1.4-6-1.7-11.7-.4-5.8-1.1-12.2-1.7-14.4-.8-3.3-.7-4.1 1.1-6 2.7-2.8 2.8-8.9.2-13.6-2.4-4.7-7.8-8.3-11.1-7.5-4.4 1-8.6 3.7-10.8 6.9-2.7 4-3 12-.6 15.5 1.6 2.2 1.6 3.4-.2 16.7-1 7.9-2.3 14.4-2.9 14.5-.5 0-7.3.1-15 0h-14l-.8-9.6c-.7-8.8-.6-9.8 1.3-12.2 1.1-1.4 2-3.5 2-4.7 0-5-7.5-12.6-12.6-12.6-1.1 0-4.2.7-6.8 1.6-7.8 2.7-10.8 10.3-7 17.6 1.5 3 1.5 4.1 0 14.7-.9 6.4-1.7 13.6-1.9 16.1l-.2 4.5-5 .3c-2.7.2-8.8-.2-13.4-.9-7.9-1.1-8.4-1.3-9.6-4.3-.7-1.7-1.5-5.6-1.9-8.6-.3-3-1.2-7.6-1.8-10.1-1-4-.9-5.2.7-8.4 1.9-4.2 1.6-10.4-.7-13.2-1.8-2.2-8.7-5.3-12.1-5.3-4.1 0-10.4 3.6-12.2 7-2.7 5.3-1.8 11.6 2.5 16.5 1.6 1.8 1.8 4.1 1.6 20l-.1 18h-12.8l-2.4-8.5c-1.9-7-3.1-9.2-6.2-12.2-4.7-4.5-10.1-6.1-17.5-5.2-4.4.5-6.6.3-9.6-1.1-3.8-1.7-3.9-1.9-2-3.2 2.6-1.8 2.6-4.3-.1-4.3-1.4 0-1.9-.5-1.7-1.8.2-1.2 1.3-1.7 3.3-1.7 2.6 0 3 .3 2.7 2.4-.3 2.8 1.8 5.5 5.7 7.1 2.2.9 3.6.8 6.2-.3 2.4-1 4.2-1.1 6.2-.4 1.5.5 4 .6 5.5.2 2.6-.7 2.6-.7.5-1.6-1.2-.4-2.7-1.7-3.3-2.9-.9-1.7-1.9-2-6.3-1.8-4.6.3-5.2.1-5.2-1.7 0-1.6.8-2.1 3.9-2.5 4.5-.6 5.8-2.5 2.4-3.3-5-1.2-10.1-3.5-10.9-5-1.4-2.4.6-3 4-1.2 2.9 1.4 6.1 1.2 6.1-.6 0-.5-1.3-1.5-3-2.4-1.6-.9-3-1.9-3-2.4 0-1.8-4.9-6.1-6.4-5.5-.9.3-2.2-.1-3.1-.9-.8-.8-1.9-1.7-2.4-1.9-1.4-.5-1.6-10-.3-12.5 1.6-2.9 1.5-10.2-.1-13.3-.7-1.4-2.5-3.1-4-3.8-1.5-.7-2.7-2-2.7-2.8 0-1.7 1.4-1.8 4.1-.3 1.2.6 2.8.8 3.7.4 2.9-1.1-1.1-3.7-6-3.9-5.2-.2-6.6-1-10.2-5.8-3.2-4.3-4.8-5.1-8.1-3.8-2.1.8-2.7.6-4.1-1.5-1.4-2.1-2.4-2.5-6.8-2.4-2.8 0-7.2.7-9.8 1.6zm-23.5 13.5c-1.7 1.8-3.3 4-3.6 4.8-.4 1-.6.8-.6-.6-.1-2.3 4.1-7.4 6-7.4.7 0-.1 1.5-1.8 3.2zm7 6.3c-.5 1.3-2.3 2.2-2.3 1.1 0-1.5 1.4-3.5 2.1-3.1.4.3.6 1.2.2 2zm44.7.1c0 .8-.4 1.4-1 1.4-.5 0-1-.9-1-2.1 0-1.1.5-1.7 1-1.4.6.3 1 1.3 1 2.1zm-15 .9c0 .8-.4 1.5-1 1.5-.5 0-1-.7-1-1.5s.5-1.5 1-1.5c.6 0 1 .7 1 1.5zm27.4 5.6c.6 3.4 0 5.3-1.5 4.4-1.1-.8-1.2-7.5 0-7.5.5 0 1.1 1.4 1.5 3.1zm-65.1 7.3c3.2 3 7.8 6.2 10.3 7.2 4.7 1.8 3.9 1.9 20-1.7 2.3-.5 7-2.1 10.5-3.7 13.1-5.9 16.6-4.5 4.7 1.8-2 1.1-4.9 3.1-6.5 4.6-1.5 1.4-3.4 2.9-4.2 3.3-.7.5-1.2 1.3-1 1.9.5 1.3 13.4-4.7 17.7-8.3l3.3-2.8 2 2.1c2.5 2.7 2.4 6.4-.1 8.7-2.7 2.4-3.7 1.2-1.6-2 3.2-4.8.5-4.5-5.2.6-6.7 6-13.7 9.3-24.1 11.6-14 2.9-33.1 1.7-33.1-2.2 0-1.9 1.4-1.9 6.7 0 5.3 1.8 13.2 1 15.1-1.7.7-1 2.1-1.8 3-1.8 2.3 0 12.2-4.2 12.2-5.2 0-1.2-1.8-1-5.1.7-3.9 2.1-14.6 3-18.2 1.6-1.5-.6-3.6-2.4-4.5-4.1-2-3.5-4-4.4-7.4-3.1-3 1.1-5.8-.3-5.8-2.9 0-1-.4-2.2-1-2.5-1.5-.9-1.2-3.5.4-3.5.7 0 1.9.7 2.6 1.5.7.8 1.7 1.5 2.2 1.5 1.8 0 2-3.1.3-5-1.4-1.5-1.5-2-.4-2 .8 0 4 2.4 7.2 5.4zm29.2 1.6c-11 3.9-15 4.3-18.2 1.7-2.6-2-1-2.4 9.5-2.4 5.9 0 9.8.3 8.7.7zm215.6 1.9c3.7 3.7 3.8 7.3.2 9.6-2.3 1.5-3.1 1.6-6.2.5-2-.7-4.2-1.7-4.8-2.2-1.7-1.4-1.6-4.9.2-7.5 1.3-1.9 2.6-2.5 6.8-3.2.5 0 2.2 1.2 3.8 2.8zm-245.7 11.6c1.6 1.6 3.6 2.5 5.5 2.5 1.6 0 3.3.4 3.6 1 1 1.5-1.2 1.2-10.2-1.5-8.7-2.7-10.7-4.5-4.8-4.5 2.3 0 4.2.8 5.9 2.5zm190 1.6c4.6 3.6 3 12.1-2.4 12.9-2.8.5-7.9-1.2-9.6-3.1-1.9-2.2-1.4-5.4 1.7-9.2 2.5-3.3 6.6-3.5 10.3-.6zm-56.6 6.6c4.1 4.6 4.1 7.6 0 11.4-3.9 3.5-8.4 3.8-12.2.8-4.7-3.7-3-13.6 2.8-15.9 3.2-1.3 5.7-.3 9.4 3.7zm-76.8-.3c0 1.6-1.8 3.1-2.7 2.2-.8-.8.5-3.6 1.7-3.6.5 0 1 .6 1 1.4zm190.2 9.7c.3 5.7.9 12.3 1.2 14.6.6 4.7-.3 5.4-5.1 4.1-3.3-.9-4.2-2.1-2.3-3.3 2.1-1.3-.3-2.5-3.6-1.9-2.2.4-3.4.2-3.4-.5 0-.6 1.1-1.1 2.4-1.1 2.5 0 5.1-2.2 3.9-3.3-.3-.4-1.7-.7-3-.7-1.2 0-2.3-.4-2.3-.9 0-.6 1.2-.9 2.8-.8 3.7.3 3.7-2.7-.1-3.1-3.3-.4-2.6-2.2.9-2.2 1.5 0 2.4-.6 2.4-1.5 0-.8-.5-1.5-1.1-1.5-.8 0-.7-.5.1-1.5 1.5-1.8.6-3.1-2.5-3.7-1.5-.3-.8-.8 2.5-2 2.5-.8 5-1.4 5.5-1.3.6.1 1.3 4.8 1.7 10.6zM202.8 264c.2 1.9.8 4 1.3 4.6 1.6 1.9-.9 6.6-5.9 11-4.1 3.6-4.5 4.3-3.3 5.8 1.9 2.2 3 2 4.3-.9 1.5-3.2 2.4-3.2 3.3.2.3 1.6 1.6 3.8 2.7 5l2.1 2.2-2.2 5c-1.1 2.7-2.1 5.7-2.1 6.6 0 .8-1.6 2.5-3.5 3.6-2 1.2-4 3-4.6 4-1.3 2.5-2.9 2.4-2.9-.3 0-1.9-.2-2-1.7-.6-4 3.5-14.3 2.8-14.3-.9 0-1-.9-3.3-2-5.1-1.1-1.8-2.2-4.2-2.3-5.3-.2-1.1-.9-2.4-1.6-2.8-.8-.5-1.1-2.4-.9-5l.3-4.2 4 3.4c4.3 3.6 7.5 5.2 7.5 3.7 0-1.9 2.7-1 3.8 1.2l1.1 2.3v-2.3c.1-1.5 1.2-2.9 3.1-4 5.5-3.1 3.3-6.2-2.7-3.7-3.6 1.6-4 1.5-8.3-.6-3.1-1.6-5.6-3.9-8-7.7-1.9-2.9-5-6.5-6.7-7.8-1.8-1.4-3.3-3.2-3.3-4.1 0-1.3.8-1.5 5-1 5.7.7 25.6-2.4 31-4.7 5-2.2 6.4-1.7 6.8 2.4zm255.3-1.1c3.5 3.5 3.8 7.4.7 9.5-2.8 2-7.2 2-8.8.1-1.7-2.1-.6-9.6 1.6-11.2 2.5-1.8 3.2-1.7 6.5 1.6zm-356.2 1.8c4.9 4.5 4.9 7.3.2 11.6-6.7 6-13 4.1-14.6-4.4-.5-3-.2-4.1 2-6.7 3.5-4.2 8.2-4.4 12.4-.5zm112.1 7.2c0 1.4-1.8 2.3-3 1.6-.6-.4-.8-1.1-.5-1.6.8-1.2 3.5-1.2 3.5 0zm139.4 5.3c1.1 8.4 1 25.8-.1 26.9-.6.6-1.9.6-3.7-.1-2.1-.7-2.6-1.5-2.1-2.9.5-1.8.2-1.9-4.5-1.4-3.2.3-5 .1-5-.6 0-.6 1.2-1.1 2.8-1.1 1.5 0 3.3-.4 4.1-.9 1.7-1.1.6-3.1-1.7-3.2-1.2 0-1-.3.6-1 3.5-1.3 2.2-3.5-1.9-3.1-3.6.4-3.1-1.3.6-2 1.1-.2 2.1-1.1 2.3-2.1.3-1.3-.3-1.7-2.8-1.7-3.8 0-3.2-1.5 1.1-2.4 2.5-.5 2.9-.9 2.4-2.6-.4-1.4-.1-2.2 1-2.6.9-.4 1.4-1.3 1.1-2.1-.5-1.3 3.1-3.5 4.5-2.7.4.2 1 2.7 1.3 5.6zm136-3c4.6 6.5-.8 13.7-7.5 10.3-2.8-1.5-3.4-2.9-3-6.9.5-5.3 7.6-7.6 10.5-3.4zM218 278c0 .5-.2 1-.4 1-.3 0-.8-.5-1.1-1-.3-.6-.1-1 .4-1 .6 0 1.1.4 1.1 1zm-4.9 3.1c1.8 2.6 2.7 3 5 2.5 1.6-.3 4.3.1 6.1.8l3.3 1.4-2.8 1.3c-2.1.9-3.3 1-4.5.2-1-.5-3.1-.8-4.8-.6-3.6.6-7-2-8-6-.5-2.3-.3-2.7 1.4-2.7 1.2 0 3 1.4 4.3 3.1zm83.8.1c.5 1.8 1.3 6 1.6 9.3.4 3.3 1.3 7.9 2.1 10.3 1.6 4.8 1.8 8.1.6 10-1.2 1.8-7.2 2.6-10.6 1.2-2.8-1-2.8-1.1-1-2.5 1.5-1 1.6-1.6.7-2.6-.9-.9-.9-1.6 0-3.2.9-1.5.9-2.1-.1-2.4-1-.4-1-.8-.1-1.9 1.2-1.5.6-1.9-3.6-2.6-1.7-.3-1.5-.7 1.3-2.1 3.8-2.1 4.2-3.7.7-3.7-1.5 0-2.5-.6-2.5-1.5 0-.8 1.1-1.7 2.5-2.1 1.4-.3 2.5-.7 2.5-.8 0 0-.4-1.6-.9-3.3-.8-2.7-.6-3.5.7-4.3 3.2-1.8 5-1.1 6.1 2.2zm163.2 2c0 2.9.4 7.5.9 10.3.4 2.7.6 7.2.2 9.9l-.5 4.8-5.1-.6c-2.8-.4-6.1-.7-7.4-.6-1.5 0-2.2-.5-1.9-1.3.2-.6 1-1.1 1.8-.9 1.9.5 5.9-.7 5.9-1.7 0-.5-1.5-1.2-3.2-1.6l-3.3-.8 2.9-.6c4.2-.9 3.8-2.5-.7-2.9-4.2-.4-4.7-2.6-.6-2.8 6-.2 6.8-1.8 1.7-3.3-3.2-.9-3.2-.9-.6-1 3.2-.1 4.4-1.7 2.9-3.5-.9-1-.8-1.5.4-2 2.3-.9.8-2.6-2.2-2.6-3.1 0-2.3-1.1 2-2.7 6.1-2.2 6.7-1.9 6.8 3.9zm-406.9 1.5c2.3 2.1 3.7 6.4 2.7 8.9-.4 1.2-2.5 3.5-4.6 5.3-3.1 2.6-3.5 3.3-2.3 4.1.8.5 2.1 1 2.8 1 .8 0 1.2 1.7 1.2 5.2 0 2.8.5 8 1.1 11.5 1 5.7.9 6.6-.6 8.3-2.1 2.4-7.5 2.9-5.6.6 1.4-1.7-.2-3.1-2.4-2.2-2.1.8-1.8-.4.7-3.1 1.2-1.3 1.7-2.3 1.2-2.3s-1.6-.5-2.4-1c-1.3-.9-1.1-1.3.9-2.9 2.4-1.8 2.4-1.9.5-2.9-1.8-.9-1.9-1.7-1.3-6.9.6-5.3.4-6-1.7-8.1-1.3-1.3-2.5-3.1-2.5-4-.1-1.7-.1-9.1 0-10.4.1-.4 1.3-1.4 2.9-2.3 3-1.6 6.8-1.2 9.4 1.2zm49.9-.9c-.6 1.1-.6 3.4-.1 5.8.4 2.1 1 8.2 1.2 13.4.3 9.1.2 9.5-1.9 9.8-3.2.5-8.8-2.7-7.4-4.1.6-.6 1.1-1.8 1.1-2.7 0-2-2.7-7.7-4.1-8.6-.6-.3-.3-1.1.8-1.9 1.4-1.1 1.5-1.6.4-2.8-.7-.9-1.1-3.3-.9-5.4.3-3.3.7-3.9 3.3-4.4 1.7-.4 4.3-.7 5.8-.8 2.4-.1 2.6.2 1.8 1.7zm117.2 9.2c1.4 1.2-.1 4.3-3 6.4-1.4 1.1-2.3 1.4-1.9.8.9-1.4.9-1.4-3.4-.2-3.1.8-3.3.8-1.6-.5 1-.7 1.5-1.8 1.2-2.3-.3-.5.4-2.2 1.5-3.6 2.1-2.6 4.8-2.8 7.2-.6zm268.8.1c1.9 3.7 3.1 15.1 1.7 16.1-2.3 1.4-5 .8-7.3-1.6-1.8-2-2-2.6-.8-3 1.8-.7.7-2.7-1.4-2.4-3 .6-2.4-1.9.7-2.5 3.3-.7 4.1-2.7 1.1-2.7-2.7 0-3.6-1.9-1.4-2.7 1-.3 2.2-1.2 2.6-2 1.2-2 3.5-1.6 4.8.8zm-257.1-.4c-.8.3-2.4 1-3.5 1.6-1.8.9-1.9.9-.6-.6.7-1 2.3-1.7 3.5-1.6 1.4 0 1.6.2.6.6zm18.6.4c.3.6-1.2 3-3.4 5.2-2.3 2.3-5.4 7.2-7 10.8-1.7 3.7-3.5 7-4.1 7.3-1.8 1.1 1.6-8.4 4.9-13.7 1.7-2.8 3.4-6.3 3.7-7.9.4-2.1 1.1-2.8 2.9-2.8 1.2 0 2.6.5 3 1.1zm187.4 3.1c0 2-.4 3.9-.9 4.2-.7.5-17.6.6-38.6.2-2.7 0-11.9.2-20.4.4l-15.4.4.1-3.7c0-2 .1-4.2.1-4.7.1-.8 12-1 37.6-.8l37.5.3v3.7zm-203.6-1.7c-.7 1.6-2.4 2.1-2.4.6 0-.8.7-1.3 2.7-2 .1-.1 0 .6-.3 1.4zm9.6-.7c0 .5-1.3 2.1-3 3.7-1.6 1.6-3 3.6-3 4.5 0 .9-.7 2.5-1.5 3.6-1.4 1.8-1.5 1.7-.9-1.1.4-1.7 1.3-4.3 2.1-5.8.8-1.6 1.2-3.5.9-4.3-.4-1 .3-1.4 2.4-1.4 1.7 0 3 .4 3 .8zm-78 1.7c0 .8-.4 1.5-1 1.5-.5 0-1-.7-1-1.5s.5-1.5 1-1.5c.6 0 1 .7 1 1.5zm91.6 3.4c-.3.4-1.9 1.1-3.6 1.5-1.7.3-3.3 1.4-3.6 2.3-1.2 4.1-3.5 8.5-4.1 8-1.1-1.2.8-7.5 3.2-10.1 1.6-1.7 3.4-2.6 5.5-2.6 1.7 0 2.9.4 2.6.9zm-120.5 4.4c-1.3 1.2-2 1.5-1.6.7 1.4-2.6 2.8-4.1 3.3-3.5.3.3-.5 1.6-1.7 2.8zm14.9-.5c0 1.3-11 12.6-11.6 11.9-.9-.8 2.9-5.9 7.1-9.6 3.7-3.2 4.5-3.6 4.5-2.3zm-10.4 3c-1.7 1.6-1.8 1.6-.5-.5.7-1.2 1.5-2 1.8-1.7.3.2-.3 1.2-1.3 2.2zm88.9 2.1c-.9 2.2-2.4 4.2-3.1 4.5-1.8.7-1.8.2.2-3.7 3.5-6.8 6-7.5 2.9-.8zm30.5-2.3c0 .8-.9 1.4-1.9 1.4-1.1 0-2.2.4-2.5.9-.9 1.3 1.9 3.2 3.7 2.5 2.3-.8 2.8 2.4 2.3 12.6-.2 4.7.1 13.5.6 19.5.6 6.1.8 12.4.4 14l-.8 3-1.4-4c-2.2-6.3-3.2-22.7-1.8-28.8.5-2.1.3-2.7-1-2.7-.9 0-1.6-.8-1.6-2 0-1.1.6-2 1.4-2 2 0 2.7-2.6 1.2-3.9-.8-.6-2.2-.8-3.1-.4-1.5.5-1.7.2-1.3-1.5.7-2.5-1.8-3.8-3.8-2.1-1.1.9-1.4.7-1.4-1.2.1-3.5 3-6.7 6.5-7.1 3.7-.4 4.5-.1 4.5 1.8zm-92 2c0 .8-.4 1.2-1 .9-.5-.3-1-1.3-1-2.1s.5-1.2 1-.9c.6.3 1 1.3 1 2.1zm238.4-1.6h3.1l.2 7c.1 6.8.1 7-2.2 6.4-3-.7-4.2 1.2-2.1 3.5 1.4 1.6 1.6 8.7 1.4 70.7-.1 37.9-.5 78.6-.9 90.4-.4 11.8-1 53.7-1.3 93-.3 39.3-.7 81.4-1.1 93.5-.8 33.8-1.5 64.2-1.5 72.7 0 6.4-.3 7.8-1.6 7.8s-1.4-1.1-.7-8.3c.7-7.1.7-56.8 0-215.7-.1-18.4.2-41.2.6-50.5 1.3-26.1 1.8-146.5.6-148.7-.5-1-1.6-1.8-2.4-1.8-1.3 0-1.5 2.8-1.7 16.7-.1 9.3-.1 18.1 0 19.8.4 8.8.3 97.5-.3 112-.3 9.3-.8 69.2-1.1 133-.3 63.8-.7 118.7-.8 122-.1 3.3-.3 9.6-.4 13.9-.1 4.4-.5 7.7-.8 7.3-.3-.3-.7-42.3-.9-93.4-.2-51-.6-97.1-.9-102.3-.6-9.4-1.9-52.6-1.7-54.5.1-.6.3-8.9.5-18.5.3-9.6.8-28.1 1.2-41 .3-12.9.8-42.2.9-65 .3-58.2-.2-51.6 4.3-53.9 4-2.1 3.5-2.8-2.8-3.4l-3.5-.3 2.8-1.2c1.5-.6 2.7-1.6 2.7-2.1s-1.2-1.1-2.7-1.3c-2.5-.3-2.8-.7-2.8-3.8 0-3.2.3-3.6 3.5-4.2 1.9-.3 4.8-.4 6.4-.2 1.6.2 4.3.4 6 .4zm29.1 0c.4.6-1.2 1-3.9 1-2.5 0-4.6-.5-4.6-1 0-.6 1.8-1 3.9-1 2.2 0 4.3.4 4.6 1zm-116.1.9c.6.9-10.2 2.6-11.1 1.7-.3-.2-.2-.9.2-1.5.8-1.3 10.2-1.5 10.9-.2zm42.6 2.7c7.4.4 15.3.7 17.5.8 5.5.2 6.4.9 5.6 4.8l-.7 3.3-20.4-.3c-11.2-.2-20.7-.5-21.1-.8-1.2-.7-2.2-7.1-1.4-8.4.4-.7 2-1 3.9-.6 1.7.3 9.2.9 16.6 1.2zm-156.8.6c.6 1.6-.1 3.8-1.2 3.8-1.1 0-2.1-3-1.4-4.1.8-1.3 2.1-1.1 2.6.3zm228.4.8c8.9 1 29.8 2.1 46.1 2.4 4.5 0 8.7.6 9.2 1.1.7.7.6 2.4-.1 5.4l-1.1 4.3-7.6-.7c-4.2-.4-11-.9-15.1-1.1-4.1-.2-11.1-.6-15.5-.9-4.4-.2-13.7-.5-20.8-.6-7-.1-12.9-.4-13.1-.8-.2-.3-.6-2.6-.7-5.1-.3-4.3-.2-4.5 2.6-5.1 1.7-.3 3.9-.5 5-.3s6.1.8 11.1 1.4zM131 312c0 .5-.5 1-1.1 1-.5 0-.7-.5-.4-1 .3-.6.8-1 1.1-1 .2 0 .4.4.4 1zm206.8 4.1l.3 4.6-6.3.7c-26.3 2.9-34.9 4.1-49.1 6.5-16.8 3-15.9 3.2-15.5-3.7l.3-5.7 8-.6c7.1-.6 27.1-2.9 49.5-5.7 12.2-1.6 12.4-1.5 12.8 3.9zM149 312.6c0 .9-6.4 8.4-7.2 8.4-1.7 0-.6-2.6 2.4-5.7s4.8-4.1 4.8-2.7zm-15 1.8c0 .3-.4.8-1 1.1-.5.3-1 .1-1-.4 0-.6.5-1.1 1-1.1.6 0 1 .2 1 .4zm-13.8 3.1c1 4.9-.4 5.5-12.5 5.6-11 0-30.8 1.4-37.7 2.5-3.3.5-3.6.4-4.9-3.1-.7-2-1-4-.6-4.3.9-1 26.2-2.7 42.1-2.9 13.1-.1 13.2-.1 13.6 2.2zm121.1-.5c-.6 2.2-2.3 3.8-2.3 2.1 0-1.7 1.2-4.1 2-4.1.5 0 .6.9.3 2zm-39.9 1.5c-.7 1.6-2.4 2.1-2.4.6 0-.8.7-1.3 2.7-2 .1-.1 0 .6-.3 1.4zm43 3.2c-3.4 5.9-3.3 5.8-4 5.1-1.1-1.1 4-9.8 5.8-9.8.5 0-.3 2.1-1.8 4.7zm7.6-3.9c0 1.4-6.1 10.5-6.6 9.9-.7-.6 2.2-6.5 4.4-9 1.7-1.9 2.2-2.1 2.2-.9zm-103 .5c0 .2-1.9 2.1-4.1 4.2-2.9 2.8-3.8 3.3-2.9 1.7 1.6-3.2 4.3-6 5.8-6.1.6-.1 1.2 0 1.2.2zm63.4 3.1c-.3.9-1 1.6-1.5 1.6-.6 0-.5-.9.1-2.1 1.3-2.4 2.4-2 1.4.5zm14.6-.6c0 2.2-2.6 5.9-3.5 5-.6-.6 2.1-6.8 3-6.8.3 0 .5.8.5 1.8zm4.8 3.4l-1.3 2.3-.3-2.3c-.4-2.8 2.1-6.6 2.6-3.9.2.9-.3 2.6-1 3.9zm22.2.8c-1.1 2.2-2.5 3.8-3 3.5-1.1-.7-.3-3.1 2.4-6.8 2.8-3.8 3.2-1.8.6 3.3zm-119-3.6c0 .2-.7.9-1.5 1.6-1.3 1.1-1.4 1-.9-.4.5-1.4 2.4-2.3 2.4-1.2zm50 0c0 .3-.4.8-1 1.1-.5.3-1 .1-1-.4 0-.6.5-1.1 1-1.1.6 0 1 .2 1 .4zm166.1.6c2.4 0 4.5 3.8 3 5.3-.6.6-1.1 2.8-1.1 4.9 0 3.1-.4 3.8-1.9 3.8-3.6 0-5.3-1.1-4-2.6.9-1.1.9-1.7 0-2.8-2-2.4-8.5.2-7.4 3 .3.8 0 1.4-.6 1.4s-1.3-1.2-1.7-2.8c-1-4.8-1.4-5.4-3.1-5-2 .4-2-1.3-.4 26.8.6 10.2 1.3 32.9 1.6 50.5.3 17.6.7 38.3 1 46 .3 7.7.8 32.9 1.1 56.1l.7 42.1-2.4-.1c-1.3-.1-2.7.7-3.4 1.9-.5 1.1-1.9 3.3-3 4.9-1.4 2.1-2 5-2.2 10.9-.2 6.7-.6 8.4-2.5 10.5-2.4 2.5-7.7 5.6-8.4 5-.2-.3-.6-10.5-.9-22.9-.2-12.3-.7-29.6-1-38.4-.3-8.8-.8-21.4-1-28-.6-16.5-2.4-96.2-2.9-129-.4-23.6-.6-27-2-27.3-1-.2-1.6.4-1.6 1.6 0 3.7-3 5-12.8 5.4-5.1.3-9.5.1-9.8-.4-.3-.4 2.2-.8 5.5-.8 6.9 0 9.1-.6 9.1-2.7 0-1.2-1.2-1.4-5.6-1.1-4.5.2-5.9-.1-6.7-1.4-2.2-3.5 2.6-6.4 13.6-8.3 3.3-.5 3.8-.3 4.9 2 1.4 3 4.8 3.4 4.8.5 0-1 .8-2.3 1.8-2.8 2.3-1.2 10.8-2.2 20.5-2.4 7.1-.1 8-.3 9.5-2.5 1.2-2 2.1-2.4 4.5-1.9 1.6.3 3.8.6 4.8.6zm-153.8 2.6c-.7 1.9-1 1.8-1.6-.5-.3-1.3-.1-1.8.9-1.4.7.2 1 1.1.7 1.9zm191.7 7.1c-.1 5.4-.2 36.1-.1 68.2.2 55.5.1 58.6-1.7 61-1 1.4-3.3 5.2-5.1 8.3-1.7 3.1-4.5 6.8-6 8.1-5.6 4.6-6.6 10.7-3.1 17.4 2.1 4 2.5 11.1 2.2 32.4l-.2 10.6-5.2.5c-6.4.7-7.8 2.4-7.8 9.9 0 5.1-1.2 8.1-2.6 6.6-.8-.8-1.3-17.4-1.8-66.7-.3-26.7-.8-61.8-1.1-78-1-58.8-.9-70.8.8-72.4 2-2.1 3-6.9 2.2-10.6-.4-1.6-.4-3.4 0-4 .4-.6 6.3-1 15.1-1h14.6l-.2 9.7zm-241.6-6.6c-1 1.1-2.8 2.6-3.9 3.1-1.4.8-1.2.2.9-2.1 3.3-3.4 6.1-4.4 3-1zm279.6 1c0 3.8 1.8 5.7 6.2 6.4 2.6.4 5 1.6 6 2.8 1.4 1.8 1.9 1.9 3.2.8.9-.7 1.6-2.4 1.6-3.7 0-1.2.4-3.4 1-4.8.9-2.4 1.4-2.6 6.7-2.6 9.5 0 10.3.5 10.3 5.9 0 2.5-.3 5.7-.7 7-.6 2.2-.9 2.3-6.2 1.6-14.5-1.8-17.9-1.4-15.2 1.9 1.3 1.6 1.1 77.1-.2 77.1-1.6 0-5.5-9.2-6.6-15.8-.3-2.1-.9-3.8-1.3-3.7H430c-.5 0-1 1.1-1 2.4 0 1.3-.7 2.9-1.5 3.6-2.7 2.2-10.6 18.2-9.6 19.4.5.6 1 8.6 1 17.8.1 15.9 0 16.7-1.9 17.3-1.1.3-2 1.2-2 2 0 1.8-3.2 2.8-4.2 1.3-.5-.7-.6-6-.3-11.8.5-8.6 1.6-92.8 1.5-119.8V324h7.5c6.9 0 7.5.2 7.5 2.1zm11.8.6c-.4 2-3.6 2.8-5.7 1.4-2.1-1.3-.4-3.1 3-3.1 2.4 0 3 .4 2.7 1.7zm-302.8.2c0 1.3-2.9 4.1-4.1 4.1-.6 0-.2-1.1.8-2.5 1.9-2.5 3.3-3.2 3.3-1.6zm99 .8c-.1 1.4-3 4.7-3.5 4.1-.3-.3.1-1.2.9-2.1.8-.8 1.2-1.7.9-2.1-.4-.3-.1-.6.5-.6.7 0 1.2.3 1.2.7zm-97.6 2.7c-.6 1.6-2.4 2.3-2.4.8 0-1 2.2-3.3 2.7-2.8.2.2.1 1.1-.3 2zM178 329c0 .5-.5 1-1.1 1-.5 0-.7-.5-.4-1 .3-.6.8-1 1.1-1 .2 0 .4.4.4 1zm79-.1c0 .6-.4 1.3-1 1.6-.5.3-1-.1-1-.9 0-.9.5-1.6 1-1.6.6 0 1 .4 1 .9zm-181.2 1.8c-.3 1.9-12.4 10.8-19.8 14.7-9.9 5.2-15.8 8.7-17 10.1-.7.8-1.8 1.5-2.4 1.5-.6 0-3.7 1.8-6.9 4-3.1 2.2-5.9 4-6.1 4-.9 0-2.9-8.4-2.1-8.7.6-.2 3.8-2.2 7.1-4.6 24.7-17 30.6-20.8 32.3-20.2.9.3 3.5-.1 5.7-.9 5.7-2.1 9.6-2 9.2.1zM106 334c.4 3.7.9 4.5 2.5 4.5 1.7 0 2-.6 1.7-3.6-.3-4.8 1.3-6.1 6.8-5.1 3.7.6 4.5 1.2 5.2 3.7 1.1 3.5.2 28.4-1.1 33.5-1.6 6.3-2 12-.8 13.2.9.8 1.1 6 .9 17.8-.3 16.7-.3 16.8 2.1 19.2 1.8 1.6 2.6 3.8 3 7.7.4 3.4 1.4 6.2 2.7 7.6 1.1 1.2 2 2.8 2 3.6 0 .8.9 3.3 2 5.7 1.8 4.1 1.9 4.6.4 7.5-1.2 2.3-1.5 4.7-1.1 9.1.3 3.3.1 6.8-.4 7.9-.6 1-1.2 4.8-1.5 8.4-.4 4.9-.1 7.1 1.1 9 1.6 2.4 1.6 2.6-.4 4.4-2.5 2.4-2.7 6.8-.5 11.1 1.1 2.1 1.4 4.5 1.1 7.2-.5 3.3-.2 4.6 1.5 6.4 1.7 1.7 1.9 2.5 1 3.4-1.8 1.8-1.5 2.6 1.4 4.4 2.1 1.5 2.7 1.5 3.4.4.5-.8.4-2.2-.1-3.2-.7-1.3-.6-1.9.3-2.2.7-.3 3.3-1.1 5.8-2 2.5-.8 5.8-1.7 7.4-1.8 3.7-.4 4.5-2.5 1.5-3.6-1.4-.6-1.8-1.1-1.1-1.6 1.4-.8 22.5-8.4 27.2-9.8 9-2.6 26.3-7.9 27-8.3 1.2-.7 20-3.3 26.5-3.7 3.3-.1 6.6.1 7.3.6.7.4 2.9.5 5 .1 4.1-.7 8.5 1.5 6.7 3.4-1.2 1.2-26.5 3.2-31.6 2.5-2.1-.3-4-.1-4.4.5-.3.6-1.4 1.1-2.4 1.1s-4.3.7-7.2 1.6c-16 4.8-21.6 6.7-24.8 8.3-2 1-7.9 3.3-13.1 5-12.8 4.3-16.2 6.1-17.8 9.4-1.5 3-2.7 3.5-3.6 1.2-.7-2-3.2-1.9-4.8.1-.7.8-2.3 2.5-3.5 3.6-1.1 1.1-2.4 3.4-2.7 5.1-1.5 8.6-.5 24.9 1.9 31.8.8 2.3 1.5 7.6 1.5 11.8 0 10.1 1.8 27.4 3.6 33.6 1.5 5.6 1.7 9.6 1.5 31.2-.1 8.4 0 15.7.3 16.1.6.9 1.7 8.5 1.9 12.7.2 2.7-.1 3-4 3.7-2.4.4-6.3 1.6-8.7 2.7-3.8 1.6-5.5 1.8-10.3 1.1-3.2-.5-7.3-1.6-9-2.5l-3.3-1.6-.2-21.2c-.1-11.7-.3-24.4-.4-28.2-.6-25.2-.6-90.3.1-91.8.4-1 .2-2.3-.4-3.1-.8-1-1.3-25.4-1.5-88.9-.3-75.7-.2-87.9 1.1-89.7 1.1-1.6 1.2-2.4.3-3.5-1-1.2-1.5-1.2-3.3-.1-2.9 1.8-11.3 3-12.1 1.7-.4-.5.6-1.1 2.1-1.3 4.8-.5 2.6-2.3-3.3-2.6-4.6-.3-5.5-.6-5.2-2 .2-1.2 1.5-1.8 4.6-2 5.3-.4 5.2-2.6-.1-3-8.4-.7-1.9-3.1 7.8-2.8 4 .1 4 .1 4.5 4.6zm87.7-4.4c-1 1.1-5.8 1.3-5.1.3.3-.5 1.7-.9 3.1-.9 1.5 0 2.3.3 2 .6zm43.6 1.9c-.7 2.1-1.3 1.9-1.3-.6 0-1.1.4-1.8 1-1.4.5.3.7 1.2.3 2zm-92.3 1c-.7.8-1.7 1.5-2.3 1.5-.5 0-.2-.9.8-2 2.1-2.3 3.5-1.9 1.5.5zm58.6 2.7c-1.9 2.6-2 2-.5-1.9.6-1.5 1.3-2.2 1.6-1.6.2.7-.3 2.3-1.1 3.5zm10.4-.2c-1.6 3.1-2.3 1.9-.9-1.6.6-1.6 1.3-2.4 1.6-1.7.2.7-.1 2.2-.7 3.3zm-68.5 1.5c-1.5 1.5-3 2.3-3.4 2-.3-.4.7-1.8 2.3-3.1 3.7-3.3 4.8-2.2 1.1 1.1zm106-.2c-.7 2.8-3.2 5.4-4.1 4.4-.4-.3.4-2.2 1.6-4.2 2.5-4 3.4-4.1 2.5-.2zm30.4-1.5c1.1 2 .9 5.5-.4 8.6-.6 1.3-.4 2.1.3 2.4 2.3.7 4.3 3.4 3.8 4.9-.3.8-.1 2.4.6 3.6 1.3 2.4 2.1 17.9 3.8 73.2.6 19.2 1.5 42.4 2 51.5.9 16.4 2.5 62.2 2.3 67-.1 3 1.4 44.7 2.3 60.7l.5 11.3-2.5 1.1c-1.4.7-3.1 2.8-3.9 4.8-1.1 2.5-3.3 4.8-7.3 7.5-3.3 2.1-7 4.7-8.4 5.6-3.4 2.2-8.8 4.1-9.4 3.1-.3-.4-.8-4.3-1.1-8.7-.3-4.3-1.2-14.2-2-21.9l-2-22c-1-13.7-1.4-18.6-2.5-31-1.5-16.6-2.2-60.3-1-61 .6-.3 1-4.4 1-9 0-4.7.5-10.4 1.2-12.8 1.5-5.8.7-8.4-5.1-16.1-4.5-5.9-4.8-6.6-3-7.1 1.5-.5 1.9-1.6 1.9-5.5 0-4.1 1.2-7 8.2-20.2 4.5-8.4 9-16 9.9-16.8 1.9-1.6 4.3-11.5 3.3-13.2-.4-.6-2.3-.8-4.8-.4-4 .7-4.1.7-1.7-1 2-1.4 2.2-2.2 1.7-5.5-.5-3-.2-4.3 1.8-6.6 2.3-2.7 2.3-3.2 1.5-10.8-.4-4.4-.8-9-.8-10.2-.1-1.2-.9-3-2-4-1.4-1.4-2-3.9-2.5-11.5l-.7-9.7 3.3-.5c1.8-.3 4.7-.7 6.3-.9 1.7-.2 3.3-.5 3.7-.6.4 0 1.2.7 1.7 1.7zm-59.1 1.7c-.6 1.4-1.5 2.5-2 2.5-1.1 0-1-.7.2-3.1 1.6-2.8 3.2-2.3 1.8.6zm22.7.6c-.9 1.7-1.9 2.8-2.2 2.5-.8-.8 1.7-5.6 2.9-5.6.5 0 .1 1.4-.7 3.1zm224.3 1.9c-.3 2.8-.1 5.3.4 5.6.5.3.6 1.5.3 2.5-.4 1.1-.2 2.6.4 3.3.8.9 1 13.3.9 40.6l-.3 39.4-3-.1c-1.6 0-4-.1-5.3-.2l-2.4-.1.6-19.8c.3-10.8.9-29.8 1.2-42.1.3-12.5 1-23.3 1.5-24.4.6-1 .8-3.4.5-5.1-.7-3.8-.2-4.6 3.2-4.6 2.3 0 2.4.2 2 5zm19.9-4.4c1.7.5 2.3 1.6 2.8 5.6.9 6.1.1 7.1-5.7 6.9-11.4-.4-13.3-.8-13-2.7.2-1.1.6-3.8.9-6.2l.5-4.2h6.2c3.3 0 7.1.3 8.3.6zM81.2 340c.3 3.1 1.3 5.9 2.5 7.3 3.2 3.5 4.2 10.6 4.8 35.7.3 12.9.8 32 1 42.5.3 10.4.8 28 1 39 .3 11 .7 22 .9 24.5.3 2.5.7 15.3 1 28.5.4 13.2.8 26.9 1.1 30.5.3 3.6.7 16.2 1 28 .3 11.8 1 36.1 1.5 53.9.5 17.9.8 32.7.6 32.9-.3.2-1.3-.1-2.4-.7-3.4-1.8-4.9-1.3-10.1 3.3-3.7 3.3-6 4.5-9.5 5-2.5.4-5 .5-5.5.2-.5-.4-1-6.3-1-13.4-.1-19.2-1.2-71.1-1.6-76.2-.4-4.4-1.9-73.3-2-92.4v-9.8l3.5-1.2c4.5-1.4 6.4-5.3 5.6-11.1-.5-2.7-1.3-4.5-2.4-4.9-.9-.4-2.9-1.3-4.4-2.2l-2.8-1.5v-11.7c0-6.4-.3-27.2-.5-46.2-.2-19 0-35.1.4-35.9.6-.8.5-2.4-.2-3.8-1.4-3.2.6-14.4 2.9-15.8.9-.6 4-2.9 6.8-5.2 2.8-2.3 5.6-4.2 6.2-4.2.7-.1 1.4 2.1 1.6 4.9zm147.8-3c0 .5-.4 1-1 1-.5 0-1-.5-1-1 0-.6.5-1 1-1 .6 0 1 .4 1 1zm1.6 4.2c-.9 1.2-1.6 1.9-1.6 1.5 0-1.1 2.4-4.7 2.8-4.2.2.2-.3 1.4-1.2 2.7zm113 8.3c.1 5.5.4 16.7.8 25 .3 8.2.9 33.7 1.2 56.5.3 22.8.7 44.2.9 47.5 1 19.9 2.1 119.9 2.4 230.4.1 27.4.6 45.1 1.2 46.2.7 1.5.6 1.9-.6 1.9-1.1 0-1.5-1.1-1.6-3.8 0-2-.2-6-.3-8.7-.9-15-1.6-51.4-2.1-102.5-.5-52.8-1.8-101.9-3-113-.5-4.6-1.2-39.1-2-101-1-67.2-1.5-84.3-2.7-85.8-1.4-1.7.6-3.3 3.7-3 1.8.3 2 1.1 2.1 10.3zm6.8-9.6c.8 1.2 1.4 21 2.1 65.1.4 21.2.8 47.7 1 59 1 51.2 1.4 213.2.5 210-.5-1.9-1.1-30.3-1.4-63-.6-53.6-.9-69.5-2-94-.2-4.1-.7-28.7-1-54.5-.4-25.9-1.1-63.9-1.5-84.5-.5-20.6-.6-37.8-.4-38.3.6-1 2.1-.9 2.7.2zM202 342.5c0 .8-.4 1.5-1 1.5-.5 0-1-.7-1-1.5s.5-1.5 1-1.5c.6 0 1 .7 1 1.5zm249 6.2c.2 32-.5 75.6-1.5 92.3-.3 4.7-.7 18.2-1 30-.3 11.8-.7 23.7-1 26.5-.4 5.1-1.1 27.5-2 66-.8 37.8-1.6 65.6-2 75-.6 12.4-1.4 49.9-2 87.9-.3 17.5-.8 32.2-1.1 32.7-.3.5-1 .6-1.6.3-.6-.4-.8-8-.4-22.3.3-11.9.9-45.5 1.2-74.6 1.1-105.3 1.3-117.5 2.1-152 1-44.4 1-56.1 0-57.1-1.5-1.6-2.8 2.1-2.3 6.7.3 2.6.2 5-.1 5.3-1.2 1.2-4.3-2.8-4.3-5.6 0-2.2-.6-3.1-2.7-3.9-1.6-.6-3.8-.8-5.1-.6-2.7.5-2.9.2-3.6-7.3-.7-6.7-.8-5.9.2-14.9.4-4.6 1.2-7.6 2-7.9 1-.3 1 .2 0 2.2-.8 1.9-.8 3 0 3.8 1.7 1.7 4.2.1 4.2-2.7 0-2.7.1-2.8 2.4-1.9.9.3 1.6 1.5 1.6 2.5s1.3 2.5 3 3.4c2.9 1.5 3 1.7 3 9 0 6.5 1 9.8 2.6 8.2 1-1 1.4-10.3 1.9-56.2.4-26.4.8-48.6 1-49.3.3-.6 1.6-1.2 3-1.2 2.4 0 2.5.3 2.5 5.7zm-263.3 0c-.3 1-.5.2-.5-1.7s.2-2.7.5-1.8c.2 1 .2 2.6 0 3.5zm49.9-.9c-1.4 1.4-1.6 1.4-1.6.1 0-2 2.3-4.4 2.9-2.8.2.6-.4 1.8-1.3 2.7zm221.9 2.2c-.1 14-1.7 83.6-2 84-.1.3-.6 11.1-.9 24-.4 12.9-1.1 31.1-1.6 40.5-.5 9.3-1.4 34.5-2 56-1.8 69.1-2 76.6-3.1 102.5-1.8 42.8-2.8 47.6-2.2 10.5.3-18.7.7-35.8.8-38 .2-2.2.4-20.9.6-41.5.1-20.6.5-48.1 1-61 .4-12.9 1-34.3 1.3-47.5.6-22.6.9-29.7 2.2-45.5.2-3.6.7-24.7 1-47 .3-22.3.7-41.1 1-41.8.2-.8 1.2-1.2 2.1-1 1.5.3 1.8 1.4 1.8 5.8zM234 346.5c0 .8-.4 1.5-1 1.5-.5 0-.7-.7-.4-1.5.4-.8.8-1.5 1-1.5.2 0 .4.7.4 1.5zm-130.2 1.2c.5 1 .9 25.6 1 54.8.2 29.1.4 60.4.7 69.5.2 9.1.7 35.6 1 59 .3 23.4.8 48.6 1.1 56 .3 8.6.2 14.5-.5 16.3-.7 1.8-.8 3.5-.2 4.6.6 1 1.2 25.8 1.5 57.2.3 32.3.2 54.3-.3 52.7-.8-2.5-1.4-22.1-2.6-90.3-.3-16-1-42.7-1.5-59.5-.5-16.8-1.2-43.3-1.5-59-.3-15.7-.7-37.7-1-49-.4-18-.9-109.4-.6-112.8.1-1.8 1.9-1.5 2.9.5zm116.4.5c-.7.7-1.2.8-1.2.2 0-1.4 1.2-2.6 1.9-1.9.2.3-.1 1.1-.7 1.7zm86.2-1.4c.2.4.7 16.1 1.1 34.7.4 18.7.8 35.8.9 38 .2 2.2.7 21.3 1.1 42.5.4 21.2.9 41.2 1 44.5.2 3.3.6 19.3.9 35.5.4 16.2.8 38.3 1.1 49 .7 27.1.8 72 .2 72.6-.3.3-.8-9.3-1.1-21.3-.4-12-.9-25.9-1.1-30.8-.3-5-.7-19.4-1-32-.3-12.7-.7-27.7-1-33.5-.3-5.8-.7-18.2-1-27.5-.3-9.4-.7-20.2-1-24-.3-3.9-.7-20.1-1-36-.3-16-.8-33.3-1-38.5-1-22.4-1.7-71.8-1.1-72.9.8-1.3 2.3-1.4 3-.3zM97 383.7c.6 19.3 1 44.7.8 56.4-.3 21.2.8 89 1.7 104.4.3 4.4.7 17.2 1 28.5.6 20.9.8 31.5 2.2 79.5.4 14.8.7 30.6.6 35-.1 4.4-.2 9.5-.2 11.4-.1 1.9-.3 3.2-.5 3-.4-.4-.7-7.2-2.7-67.4-.5-17.1-1.2-35.3-1.4-40.5-.2-5.2-.6-21.9-1-37-.3-15.1-1-42.4-1.5-60.5-.5-18.2-1.2-52.4-1.5-76-.3-23.7-.8-49.4-1.1-57.2-.6-13.5-.2-17.5 1.7-15.6.4.4 1.3 16.6 1.9 36zm47-35.7c0 .5-.4 1-1 1-.5 0-1-.5-1-1 0-.6.5-1 1-1 .6 0 1 .4 1 1zm154.2 10.2c.1 5.7.2 11.6.3 13.3.1 1.6.5 13.1.8 25.5.4 12.4 1 29.9 1.2 39 .3 9.1.8 22.8 1 30.5.2 7.7.7 21.6 1 31 .3 9.3.7 27.6 1 40.5 1 46.3 1.9 82.7 3 118 .1 5.2.6 26.8.9 48 .4 21.2.9 39.8 1.1 41.3.3 1.8.1 2.7-.6 2.5-.7-.2-1.3-4.3-1.5-10.3-.2-5.5-.8-21.5-1.4-35.5-.6-14-1.3-31.1-1.5-38-.3-6.9-.7-17-1-22.5-.2-5.5-.7-17-1-25.5-1.1-36.2-2.6-74.4-4-101-.8-15.7-1.7-37.7-2-49-.3-11.3-.8-22.3-1-24.5-.2-2.2-.7-14.8-1-28-1-41.5-1.5-54.9-2.1-59.2-.7-5.3-.1-6.3 3.7-6.3h2.9l.2 10.2zm183.2 3c-.2 5.7-.6 41.1-.9 78.8-.3 37.7-.7 71.4-.9 75-.2 3.6-.6 29.9-1 58.5s-.9 59-1.1 67.5c-.3 8.5-.7 27.6-1.1 42.5-.3 14.8-.9 27.3-1.2 27.7-.4.4-.6-7.7-.4-18 .2-10.3.5-75.9.8-145.7.4-111.4.7-163.4 1.3-189.3.1-6.9.2-7.2 2.5-7.2h2.4l-.4 10.2zm6.9 29.3c-.3 42.8-.8 71-2.3 121-.5 18.1-1.2 48.3-1.5 67-.7 40.9-2.3 104.9-2.9 116-.3 4.4-.6 16.3-.7 26.5-.1 10.2-.6 19.4-1 20.5-.8 1.9-.4-52.3.6-77 .3-6.1.7-36.9 1-68.5.5-57.4 1.3-103.5 2-120.5.2-5 .7-24.8 1-44 .6-35.8 1.4-74.2 1.6-76 .1-.6-.2-1.8-.6-2.9-.6-1.4-.4-1.7 1.1-1.4 1.8.3 1.9 1.7 1.7 39.3zM56.4 353.3c2 1.4 1.4 5.8-1 7.8-2.3 1.9-1.8 4.1.8 3.3l2.1-.6-2.2 2.8c-2.4 3-10.1 7.9-10.1 6.4 0-.5.9-1.4 2-2 1.1-.6 2-2 2-3 0-1.6-.7-2-3-2-2.7 0-3-.3-3-3.3 0-3.7.4-4.3 4.8-8 3.8-3 5-3.3 7.6-1.4zm117.9 1.2c1 1.4 1.5 2.5 1.1 2.5-1.1 0-4.4-3.2-4.4-4.2 0-1.5 1.5-.8 3.3 1.7zm54.7.2c-.1.5-1.2 2.1-2.6 3.8-2.5 2.9-2.5 2.9-1.9.5.4-1.4 1.2-3.1 1.7-3.8 1.1-1.3 2.8-1.6 2.8-.5zm-15 2.8c0 1.4-.4 2.5-1 2.5-1.1 0-1.4-3.3-.3-4.3 1.1-1.1 1.3-.8 1.3 1.8zm-29 6c0 .8-.4 1.5-1 1.5-.5 0-1-.7-1-1.5s.5-1.5 1-1.5c.6 0 1 .7 1 1.5zm83.4 4.1c.3.9.6 3.8.6 6.5 0 4.5-.2 4.9-2.5 4.9-1.3 0-4.3 1-6.6 2.2-7.2 3.7-29.6 6-35.6 3.7-2.5-1-12.5-1.1-44.3-.5-3 0-9.8-.1-15-.4-8.8-.5-9.5-.4-9.3 1.3.1 1.5-.4 1.7-2.5 1.2-1.5-.4-2.7-.7-2.7-.8 0-.1-.5-1.1-1.1-2.2-.9-1.6-2.2-2-6.5-2.1-3-.1-6.7-.7-8.4-1.4-1.6-.7-4.6-1.6-6.5-1.9-3.3-.6-3.5-.8-3.2-4.1.2-1.9.7-3.8 1.1-4.3.8-.9 6.1 1.1 14.1 5.3 6.5 3.4 17.6 5.5 21.4 4.1 1.6-.7 4.6-.7 8.2-.1 6.3 1 29-.2 47.9-2.6 7.9-1 33.3-6.1 41-8.3 8.7-2.4 9.1-2.5 9.9-.5zm-210.3 8.1c.1 2.7.2 6.8.3 9.3.1 2.5.3 20.5.5 40 .2 28.6-.1 35.5-1.1 35.5-1.5 0-1.4 3.8-1.7-48-.3-45.5-.4-41.5.9-41.5.6 0 1.1 2.1 1.1 4.7zm-7.7 12.5c1.2 24 1.7 72.6.7 73.2-.5.4-1.2-1.6-1.5-4.6-.9-8.5-1.4-79.8-.6-79.8.5 0 1.1 5.1 1.4 11.2zm86.4-3.7c.3 1.3-4.4 2.9-6.3 2.1-.8-.3-1.5-1.2-1.5-2 0-1.6 7.3-1.7 7.8-.1zM265 384c0 .6-.8 1.3-1.7 1.6-1 .3-2.6 1-3.7 1.5-1.4.8-1.7.7-1.4-.3.4-1.2 4.4-3.8 6.1-3.8.4 0 .7.5.7 1zm-51 4c0 .6-3.7 1-9.2 1-6.4 0-8.8-.3-7.8-1 2-1.3 17-1.3 17 0zm-40 1c1 .7-.5.8-4.9.5-3.6-.3-6.7-.8-7-1-.9-1 10.4-.4 11.9.5zm7 0c0 .5-1 1-2.2 1-1.9 0-2-.2-.8-1 1.9-1.3 3-1.3 3 0zm3.7-.4c-.3.3-1.2.4-1.9.1-.8-.3-.5-.6.6-.6 1.1-.1 1.7.2 1.3.5zm8.6.1c-1.3.2-3.3.2-4.5 0-1.3-.2-.3-.4 2.2-.4s3.5.2 2.3.4zm15.2 3.4c.9 1.4.6 1.6-3.7 2.2-2.7.3-3.8.1-3.8-.8 0-2.1 6.4-3.3 7.5-1.4zm16.5.4c-1.2 1.5-3 1.2-3-.6 0-.5 1-.9 2.1-.9 1.8 0 1.9.2.9 1.5zm19.7-.9c-.3.3-1.2.4-1.9.1-.8-.3-.5-.6.6-.6 1.1-.1 1.7.2 1.3.5zm-81.8 2c.7.7-3.6 4.4-5 4.4-1.2 0-2.8-4.2-2.2-5.4.5-.8 6.2-.1 7.2 1zm32.6-.6c.3.5.1 1-.4 1-.6 0-1.1-.5-1.1-1 0-.6.2-1 .4-1 .3 0 .8.4 1.1 1zm-172.9 7.5c6.4 2.6 7.9 12 2.8 17.6-3.2 3.5-14.1 1.7-15.8-2.6-1.7-4.6.4-10.8 5-14.4 3.2-2.5 3.5-2.5 8-.6zm245.6 3.9c-1.8 4-5.3 5.6-19.4 9.1-20 5-59.7 9.3-75.3 8.1-12.1-.9-24.8-2.5-29-3.7-2.2-.6-6-1.2-8.5-1.3-2.5-.2-5.7-.9-7.2-1.6-2.3-1.1-2.8-2-2.8-5.2 0-2.1.1-3.8.3-3.8.1 0 4.9 1.6 10.6 3.5 5.6 1.9 11 3.5 11.9 3.5.9 0 3.7.8 6.2 1.7 3.2 1.1 9.3 1.7 21 2 24.6.7 39.5-1.7 84-13.7 2.5-.7 5.2-1.6 6-2 2.3-1.2 3.5.6 2.2 3.4zm-53.5 0c-.4 1-.1 1.3.8 1 1-.4 1.2 0 .8 1.5-.6 2.4-.9 2.5-2.7.9-1.4-1.4-1-4.8.6-4.8.6 0 .8.7.5 1.4zm-189 26.8c5.7 20.2 7.6 32.9 5.3 34.3-.6.4-1.9.3-2.8-.1-.9-.4-2.8-.8-4.2-.8-1.7-.1-2.4-.6-2.2-1.7.1-1.1-.7-1.9-2.4-2.3l-2.7-.7 2.2-1.5c2.5-1.8 2.7-3.9.5-4.8-1.4-.5-1.4-.9-.3-2.2 1.1-1.3 1-1.8-.5-2.6-1.7-.9-1.7-1.1 0-2.9 1.6-1.8 1.6-2-.1-3.9-1.7-1.9-1.7-2.1-.2-3.8 2.2-2.4 2.1-2.9-.5-3.5-1.9-.5-2-.8-.7-2.3.7-.9 1.2-2.9 1.1-4.5-.3-2.3.2-3.1 2-3.8 1.3-.5 2.6-.7 2.9-.5.3.2 1.5 3.6 2.6 7.6zm125.8-.1c13 2.7 30.1 6.7 36.5 8.6 3 .9 6.6 1.8 8 1.9 12.8 1.4 42.4 8.6 43.6 10.6.8 1.3-3.5.9-6.5-.7-4.2-2.1-13.4-2.4-13.8-.4-.4 1.8 7 4.4 15.5 5.5 4.6.6 6 1.4 11 6 3.1 3 6.5 5.4 7.4 5.4 1 0 1.8.4 1.8 1 0 2.4-2.2 11-2.9 11-.6 0-13.5-6.4-19.1-9.5-1.4-.8-7.9-2.6-14.5-4-6.6-1.5-15-3.5-18.6-4.6-3.6-1-7.5-1.9-8.7-1.9-1.3 0-2.2-.6-2.2-1.5 0-.8.2-1.5.6-1.5 1.8 0 15.2 3.4 16.9 4.3 3 1.6 9.5 2.6 10.1 1.5 1-1.6-1.7-3.7-5.5-4.4-2-.4-4-1-4.6-1.4-.5-.4-5-1.7-9.8-2.9-8.1-2-10.3-2.8-14.7-5.3-3.6-2-6.5-2.8-11.8-3.4-6.8-.7-20.7-5.1-22.3-7-.6-.8-1.8-1.4-2.5-1.4-.8 0-1.4-.5-1.4-1 0-.6-2.4-2.1-5.4-3.4-5.2-2.3-8.3-5.6-7.1-7.5.3-.5 2.9.2 5.8 1.6 2.8 1.4 9.3 3.4 14.2 4.4zm289-6.2c.3.5.1 1.2-.5 1.6-.5.3-1-.1-1-.9 0-1.8.6-2.1 1.5-.7zm-245.2.8c-1.3.2-3.3.2-4.5 0-1.3-.2-.3-.4 2.2-.4s3.5.2 2.3.4zm26.4 3c-.3 1-.5.4-.5-1.2 0-1.7.2-2.4.5-1.8.2.7.2 2.1 0 3zm-12.3-.5c-1.3 4.3-5.5 8.8-5 5.5.2-1.4 4.5-7.7 5.2-7.7.3 0 .2 1-.2 2.2zm2.2 4.3c-1.5 2.5-3.1 4.5-3.6 4.5-.9 0 .3-2.7 3.4-7.3 3-4.4 3.1-2.3.2 2.8zm-7.4-2.3c-.7.7-1.2.8-1.2.2 0-1.4 1.2-2.6 1.9-1.9.2.3-.1 1.1-.7 1.7zm266 4.8c1.9 0 1.9 1.8 1.2 114.2-.3 62.9-.9 121.7-1.3 130.8l-.6 16.5-7.5.1c-4.1.1-8.1-.3-8.8-.9-1-.8-1.2-3-.8-8.6.3-4.2.8-17.5 1.1-29.6.3-12.1.8-25.6 1-30 .3-4.4.7-17.7 1-29.5 2.2-92.2 4.7-158.5 6.1-162.9.3-.9 1.4-1.2 3.5-.7 1.8.3 4 .6 5.1.6zm-254 3.2c-.7.7-1.2.8-1.2.2 0-1.4 1.2-2.6 1.9-1.9.2.3-.1 1.1-.7 1.7zm-71.6 2.7c1.3 1.6 4.2 3.4 6.6 4 9.7 2.7 11.5 3.1 16.7 3.6 3 .3 7.5 1.6 10 2.8l4.6 2.2-4.4.3c-2.3.2-5.7-.2-7.4-.7-1.6-.6-4.2-1.1-5.6-1.1-3.4 0-19.6-5.5-23.7-8.1-3-1.8-4.4-3.7-4.4-6.1 0-1.9 5.2.2 7.6 3.1zm67.9-2.9c-.3.5-1.1 1-1.6 1-.6 0-.7-.5-.4-1 .3-.6 1.1-1 1.6-1 .6 0 .7.4.4 1zM141 448c0 .5 2.2 1.6 4.9 2.4 2.7.8 6.2 2.1 7.8 3 1.6.8 5.4 1.8 8.4 2.1 4.9.5 13.8 1.9 19.7 3.1 1.2.2 2.2.8 2.2 1.3 0 1-20.3 2.5-33.9 2.4-13.3-.1-14.8-1.6-12-11.6.9-3.3 2.9-5.2 2.9-2.7zm104.7 7.6c1.8 1.6 2.1 2.2.8 1.5-3.2-1.5-6.1-4-4.8-4.1.7 0 2.5 1.2 4 2.6zM431 463c0 1 .7 2.3 1.6 2.8.8.5 1.8 3 2.2 5.8.6 3.8 1.1 4.8 2.4 4.6 1.6-.2 1.7 1 1.3 12.5-1 29.6-1.5 52.7-2 102.8-.3 29.1-1 62.7-1.5 74.5-.6 11.8-1 23.4-1 25.8v4.3l-12.2-.2-12.3-.1.1-98.6c0-54.3.1-102.1.2-106.2l.2-7.5 8.3-1.8c4.5-.9 9.6-1.8 11.2-1.9 5.2-.5 2.3-2.3-3.2-2.1-2.9.1-5.3-.1-5.3-.5s1.9-4.4 4.1-8.9c3.9-7.8 5.9-9.6 5.9-5.3zm-10.6 6.7c-2.7 6.1-4.4 8.6-4.4 6.4 0-2.1 4.9-12.1 5.9-12.1.6 0-.1 2.6-1.5 5.7zm-32.4 2.8c0 3.3-.4 4.5-1.5 4.5-1.7 0-1.9-2.7-.5-6.4 1.4-3.8 2-3.2 2 1.9zm-164 .7c0 .6-.7.7-1.6.4-.9-.3-1.8-.6-2-.6-.3 0-.3-.4.1-1 .7-1.1 3.5-.2 3.5 1.2zm-15.5-.3c2 .8 2 .8 0 1.5-1.2.3-5.2 1-9 1.6-19.3 2.6-27 4.9-24.6 7.3.5.5 2.9.3 6.3-.6 2.9-.9 8-1.9 11.3-2.2 3.3-.4 8.7-1.4 11.9-2.2 7.5-1.8 29.8-1.4 33.6.7 1.7 1 2 1.5 1 1.6-.8.1-5.5.8-10.5 1.4-4.9.7-13 2.3-18 3.6-4.9 1.3-13.5 3.5-19 4.9-12.9 3.3-40.4 12.4-43.2 14.3-1.3.8-2.3 2.3-2.3 3.3 0 2-3.3 3.3-7.1 2.7-2.1-.3-2.4-.8-2.1-4.5.1-2.4-.4-5.9-1.3-7.9-.8-2-1.5-4.5-1.5-5.4 0-4.4 7.8-7.6 36.9-15.1 21.3-5.5 32.5-7 37.6-5zm-148.9 9.3c.5 1.3.7 2.6.6 3-.2.8 1.3 49.6 2.3 72.8.2 6.9.5 17.7.6 24 0 6.3.7 30.2 1.5 53 1.5 46.3 1.9 117.4.5 116.6-.4-.3-1.2-11.9-1.6-25.8-.5-13.9-.9-27.6-1-30.3-.8-21-1.6-51.4-2.1-81.5-.4-19.5-.7-38.7-.9-42.5-.1-3.9-.5-18.7-.9-33-.3-14.3-.9-33.3-1.2-42.3-.3-10-.1-16.2.5-16.2.5 0 1.3 1 1.7 2.2zm-5.7 26c.6 12.2 1.3 36.5 1.6 53.8.4 17.3.8 32.2 1 33 .2.8.7 14.8 1 31 .4 16.2.8 29.7 1 30 .6 1 1.7 96.5 1.1 95.9-1.1-1.1-2.1-29.3-4.6-128.9-1-39.7-1.6-58.6-2.5-78-1.1-23.3-1.5-64.4-.6-61.8.5 1.4 1.4 12.7 2 25zm333.9-17.8c.3 7.7.2 7.9-1.5 6.3-1.3-1.1-2.3-1.3-3.3-.7-2.3 1.5-3 1.2-3-1.1 0-1.1-.9-3.2-2-4.6-1.8-2.3-2.7-7.3-1.6-8.4.3-.3 2.9-.2 5.8.1l5.3.5.3 7.9zm-342.1-.9c.2 3.8.5 9.7.7 13 .3 3.3 1 21.1 1.5 39.5.6 18.4 1.3 36.2 1.6 39.5.3 3.3.7 12.3 1 20 .2 7.7.8 23.4 1.2 35 .4 11.5.8 24.8.8 29.5v8.5l-3.3.3c-2 .2-3.4-.2-3.6-1-.4-1.2-1-15.8-2.1-51.8-.3-8.5-.9-29-1.5-45.5-2.2-69.9-2.3-77.4-1-79 1-1.1 1-2.2.3-3.8-.7-1.6-.8-2.9-.1-4.1.7-1.2.7-2.6 0-4.1-1.2-2.7-.6-3.7 2.3-3.3 1.8.3 2 1.1 2.2 7.3zm-9.5 1.2c.3 3.4.1 5.7-.7 6.3-1.4 1.2-18.5 4-18.5 3 0-.4 2.1-1 4.8-1.4 5-.6 11.2-3.8 11.2-5.7 0-1.2-.8-1.1-10.7 1-3.6.7-4.5.5-5.9-1-1.6-1.8-1.5-1.9 2.6-1.9 4.9 0 12.6-3.5 14.2-6.4 1.4-2.6 2.4-.6 3 6.1zm-9.7-5.8c-1.5 1.3-6.5 2.3-6.5 1.2 0-.5 1-1.2 2.3-1.4 4-.8 5.1-.7 4.2.2zm222.8 9.3c3.1 2.4 4.6 38.8 1.6 38.8-.4 0-.9-5.3-.9-11.8-.1-6.4-.4-15.1-.8-19.2l-.7-7.5-4.4.3c-3 .3-4.1 0-3.7-.7 1-1.5 6.8-1.4 8.9.1zm136.7 7c1.8-1.1 1.9-.2 2.1 25.6.3 26.3.2 112.4-.2 149.9-.1 17.8-.3 19.3-1.9 19.3-1.4 0-2-1.1-2.5-5.1-1-7.5-4.4-7.8-12.8-1.3-3.7 2.9-4.5 4-3.6 5 .9 1.1.5 1.4-2.5 1.4H361v-5.8c0-3.1-.3-19.9-.7-37.2-.3-17.3-.6-45.2-.7-62-.1-26.7.1-30.5 1.4-30.1 5.3 1.4 5.5 1.1 6-7.9.3-4.7.9-9.1 1.3-9.8.5-.7 3-1.2 6.3-1.2 7.9 0 8.9-1.5 8.5-13.2-.1-5.1-.4-9.5-.6-9.8-.2-.3-.6-4.8-1-10-.6-8.7-.6-9.3 1-8 1.3 1.1 2.1 1.1 3.5.2zm-351.1 2c1.1 3 2.3 31.6 2.2 54.3 0 9.9.4 28.1 1 40.5.6 12.4 1.5 34.6 2 49.5.5 14.8 1 28.3 1 30 1.1 30.1 3 120.7 3.2 152l.2 23H42c-2 0-2.6-.7-3.2-3.5-.4-1.9-1-23.3-1.3-47.5-.4-24.2-1-51.8-1.5-61.4-.4-9.6-.8-25.5-.9-35.5-.1-9.9-.4-18.2-.5-18.5-.2-.3-.7-12.3-1-26.6-.4-14.3-.9-29.4-1.1-33.5-.2-4.1-.7-15.4-1-25-.3-9.6-.8-21.6-1-26.5-.2-5-.7-18-1-29-.3-11-.9-22.7-1.2-26-1-8.9-.4-15.8 1.5-17.3 2.4-1.8 4.1-1.5 5.1 1zM23 507.9c0 2.1.2 4 .5 4.3.3.3.8 6.3 1 13.4.3 7.1.7 16.7.9 21.4 1.3 22.6 1.6 28.5 2.1 41 .7 19.1 2.5 62.8 3 73.5 1.1 22.3 1.4 31.9 2 59.5.3 16.2.8 37.1 1 46.5 1.6 58.4 1.7 85.7.4 85.3-1.6-.5-2.2-8.5-3.9-58.3-.6-18.2-1.3-38.2-1.5-44.5-.3-6.3-.7-17.4-1-24.5-1.2-31-1.6-41.4-2-47-.2-3.3-.7-14.8-1-25.5-.3-10.7-1-27.4-1.5-37-1.6-29-2-36.5-3-60-.6-12.4-1.3-27.9-1.6-34.5-.3-6.6-.7-12.7-.9-13.5-.5-1.8.5-3.5 2.5-4.2 2.4-.8 3 0 3 4.1zm136.4 10.2c-.3.5-1 .7-1.5.3-.5-.3-.7-1-.3-1.5.3-.5 1-.7 1.5-.3.5.3.7 1 .3 1.5zm-14.6 5.5c-.7 1.5-1.4 2.1-1.6 1.5-.5-1.6.5-4.1 1.7-4.1.7 0 .6 1-.1 2.6zm7.2 4.3c0 .6-1.1 2.3-2.5 3.8-2.8 3.2-3.5 1.2-.9-2.5 1.6-2.3 3.4-2.9 3.4-1.3zm8 1.5c0 .3-.4.8-1 1.1-.5.3-1 .1-1-.4 0-.6.5-1.1 1-1.1.6 0 1 .2 1 .4zm94.4 32.1c.9 11.5 2.1 24.6 2.6 29 .5 4.4 1.4 14.1 2 21.5 1.8 22.8 3.1 35.3 4.5 40.5.7 2.7 1.6 7.5 1.9 10.5 1.2 10.3 9.9 26.9 15.7 30.1 1.5.7 1.9 1.7 1.5 3.2-.3 1.1-.1 2.6.3 3.1 1.5 1.9.1 7.4-2 7.9-2.6.7-3.3-.9-1.5-3.5 1.4-2 1.4-2.4-.1-4-1.5-1.7-1.7-1.7-3 .2-.8 1.1-1.8 2-2.4 2-1.4 0-1.1-2.2.8-4.2 2-2.2 1.1-3.5-1-1.3-2.3 2.2-3.3-.1-1.1-2.6 2.1-2.4 1.1-3.8-1.1-1.5-2.2 2.1-2.8 2-2-.4.5-1.5.2-2-1-2-1.1 0-1.5-.5-1.1-1.5.3-.8.9-2.2 1.2-3 .5-1.1.2-1.3-1.1-.9-1.4.6-1.6.2-1.3-2.2.2-2.3-.1-2.8-1.4-2.6-2.2.4-2.3-.7-.2-3.6 1.5-2.2 1.5-2.5-.4-4.5-2.2-2.5-3.5-9-2-10.5.7-.7.5-3.4-.5-8.3-2.9-14.3-3.9-20.7-3.6-24.1.2-1.8 0-3.9-.5-4.6-.9-1.5-1.1-3.8-3.1-34.2-.8-12.9-2-28-2.5-33.5-1.2-12.5-1.2-19.5-.1-17.5.4.8 1.6 10.9 2.5 22.5zM161 541.3c0 1.4-2 3.7-3.2 3.7-1.2 0-1-2.4.4-3.8 1.6-1.6 2.8-1.5 2.8.1zm-10.8 6.9c-.7.7-1.2.8-1.2.2 0-1.4 1.2-2.6 1.9-1.9.2.3-.1 1.1-.7 1.7zm10.5 1.5c-2.1 2.2-3.2 1.1-1.7-1.7.9-1.6 1.5-1.9 2.3-1.1.8.8.7 1.6-.6 2.8zm16.7 3c-.2 4.7-.4 5.3-1.5 5.3-.6 0-.8-.7-.5-1.7.4-.9.1-2-.5-2.4-1.5-.9-.4-3.9 1.4-3.9.8 0 1.2 1.1 1.1 2.7zm-26.4.8c-.7.9-1.5 1.3-1.8 1-.3-.2.1-1.1.8-2 .7-.9 1.5-1.3 1.8-1 .3.2-.1 1.1-.8 2zm187.5.5c-.5.8-1.1.8-1.7.2-.6-.6-.7-1.6-.3-2.2.5-.8 1.1-.8 1.7-.2.6.6.7 1.6.3 2.2zM162 556.9c0 .5-.7 1.4-1.5 2.1-1.2 1-1.5 1-1.5-.2 0-.8.3-1.8.7-2.1.9-1 2.3-.9 2.3.2zm-10 2.6c-.7.9-1.5 1.3-1.8 1-.3-.2.1-1.1.8-2 .7-.9 1.5-1.3 1.8-1 .3.2-.1 1.1-.8 2zm27-.6c-1.1 2.1-2.9 3.6-3.5 2.9-.3-.2.2-1.4 1.1-2.6 1.9-2.8 3.9-3 2.4-.3zm-17 3c0 .5-.7 1.4-1.5 2.1-1.6 1.4-1.8 1-.9-1.4.6-1.7 2.4-2.2 2.4-.7zm43-.5c0 .3-.4.8-1 1.1-.5.3-1 .1-1-.4 0-.6.5-1.1 1-1.1.6 0 1 .2 1 .4zm-22 2.5c0 1.1-4 4.1-5.4 4.1-.5 0 .1-1.1 1.4-2.5 2.4-2.6 4-3.2 4-1.6zm22.6 4.7c.3 3.6-.9 7.4-2.4 7.4-.9 0-.8-4.2.1-5.7.4-.7.3-1.4-.3-1.8-.6-.4-.5-1.3.2-2.5 1.5-2.4 2-1.9 2.4 2.6zm-20.6-2.4c0 .6-1 2.2-2.2 3.5-2.2 2.3-1.2 3.3 1 1.1.9-.9 1.2-.8 1.2.4 0 .9-.5 2-1.1 2.4-.8.5-.7.9.2 1.4.6.5 1.3 2.3 1.3 4.2.1 2.7-1 4.5-6.7 10.8-7.1 7.8-9.8 9.9-7.8 6.1.7-1.2 1.1-2.7 1-3.4-.4-2.9.2-3.8 1.9-3.3 1.2.4 2.9-.5 5.1-2.8 2.8-2.9 3-3.4 1.3-2.9-1.2.3-2 .9-1.7 1.2.2.4-.2.8-1 .8-2.2 0-1.9-.7 2.2-4.9 2-2.1 3.4-4 3.1-4.3-.3-.3-1.7.7-3.2 2.1-1.4 1.5-2.9 2.4-3.3 2-.4-.3-.1-1.2.5-1.8 1.7-1.7 1.5-2.8-.4-2.8-2.2 0-1.6-1.3 3.1-6.4 4.1-4.6 5.5-5.5 5.5-3.4zm-32 1.3c0 .8-.4 1.5-1 1.5-.5 0-1-.7-1-1.5s.5-1.5 1-1.5c.6 0 1 .7 1 1.5zm185.3.2c.3.5.6 28.9.8 63.2l.4 62.4-6.6-.2c-6.9-.2-11.9 1.3-11.9 3.7 0 1.1 1 1.3 5.3.7 3.8-.5 4.9-.4 4.1.4-.6.6-3.3 1.4-6.1 1.8l-5.1.6-.4-8.3c-.3-7.5-.1-8.3 1.7-9 1.2-.4 2.6-1.4 3.2-2.2 2.2-2.6 8.3-21.3 8.3-25.4 0-2.3.7-6.1 1.5-8.4.8-2.3 1.5-5.1 1.5-6.1 0-2.7-3.4-2.4-5.3.3l-1.6 2.3v-2.2c-.1-1.3 1.8-6.1 4.1-10.8 3.2-6.4 3.9-8.8 3.1-9.6-2.2-2.2-4.2 0-8.8 9.3-4.2 8.5-4.6 9.7-3.9 13.8.5 2.5.8 5.1.9 5.8 0 .8.8 1.8 1.7 2.3 1.4.8 1.6 1.9 1.2 5.6-.3 2.6-1.1 5.8-1.8 7.2-.7 1.4-2.1 5.2-3 8.3-1 3.2-2.2 5.8-2.7 5.8s-.9-3.7-1-8.3c0-4.5-.2-11.8-.3-16.2-.2-4.4-.7-20-1.1-34.7l-.8-26.7 2.7-1c1.8-.8 2.6-1.8 2.6-3.5 0-1.6.8-3 2.3-3.7 1.2-.7 2.7-1.8 3.2-2.5.6-.7 1.9-1.4 3-1.6 1.7-.3 2-1.2 2.3-7.1.3-6.7.3-6.7 3.2-6.7 1.6 0 3.1.3 3.3.7zM156 569.9c-.5 1.1-1.5 2.3-2 2.6-1.4.9-1.2-1.9.2-3.3 1.9-1.9 3-1.4 1.8.7zm7 2.7c0 .7-6.2 9.4-7.1 10-1.8 1.1-2.3-.5-.7-2.3.8-1 1.9-2.5 2.3-3.3.8-1.3.7-1.3-.8-.1-2.8 2.3-3 .6-.2-2.7 1.7-2.1 3.1-2.8 4.5-2.5 1.1.3 2 .7 2 .9zm1 5.4c0 1.9-8.5 11.9-9.4 11-.5-.5 1-3.2 3.5-6.4 4.2-5.4 5.9-6.7 5.9-4.6zm8 4c0 .5-.5 1-1.1 1-.5 0-.7-.5-.4-1 .3-.6.8-1 1.1-1 .2 0 .4.4.4 1zm33 1c-.9 1.7-3 2.8-3 1.6 0-1.6 1.5-3.6 2.6-3.6 1.2 0 1.2.4.4 2zm-41 3.3c0 1.7-7.8 9.3-8.6 8.4-.8-.8 6.3-9.7 7.7-9.7.5 0 .9.6.9 1.3zm40.2 1.9c-.6.6-1.5.8-1.9.4-.4-.4-.1-1.1.7-1.6 1.9-1.2 2.7-.3 1.2 1.2zm-20.3 5.1c-1.1 2.4-3.7 4.3-4.6 3.4-.4-.4 5-6.5 5.5-6.2.1.2-.3 1.4-.9 2.8zm22.9 1.3c1.2 4.5.5 7.4-1.8 7.4-1.4 0-2-3.1-1-5.1.8-1.5.7-2.1-.4-2.5-1.2-.5-1.3-1.1-.5-2.5 1.5-2.9 2.4-2.3 3.7 2.7zm-43.2 2.4c-.2 2.7.1 5.1.6 5.2.6.2-.2 1.9-1.8 3.7-2.4 2.9-2.5 3.2-.7 2.3 3.2-1.7 3.5-1.5 1.7 1.3-1.5 2.3-4.6 3.5-4.3 1.7.1-.4 0-.9-.1-1.2-.8-1.5-.4-5.8.4-5.3.5.4.7-.1.2-1.2-.4-1.2.1-2.6 1.6-4.3l2.3-2.5-3.3 1.7c-4.5 2.3-5 1.5-1.5-2.8 4-5.1 5.3-4.7 4.9 1.4zm12.9-1c-1 1.1-2 1.8-2.3 1.5-.3-.3.3-1.4 1.3-2.5s2-1.8 2.3-1.5c.3.3-.3 1.4-1.3 2.5zm18.1 1.7c.2 1.8-.4 3.4-1.8 4.7-2.3 2.1-2.3 2.2-.2-2.9.4-.8.1-1.5-.6-1.5-1 0-1-.3 0-1.5.6-.8.8-2 .4-2.7-.5-1-.4-1 .6-.1.7.7 1.5 2.5 1.6 4zm-11.7 2.9c-1.2 1.3-3 2.4-3.8 2.3-1.1 0-1.2-.2-.3-.6.6-.2 1.2-.9 1.2-1.5 0-1.5 4.4-4.8 4.9-3.7.2.6-.7 2.1-2 3.5zm-3.9-2.2c0 .2-.7.9-1.5 1.6-1.2 1-1.5 1-1.5-.4 0-.9.7-1.6 1.5-1.6s1.5.2 1.5.4zm-5.7 6.3c-.9 1.6-1.8 2.9-1.9 3.1-.1.2-.5-.1-.8-.7-.4-.6.2-1.9 1.4-3.1 2.8-2.8 3.4-2.5 1.3.7zm10.8 2.6c-1.6 1.6-2.6-2-1-4 1.3-1.5 1.4-1.4 1.7.7.2 1.2-.1 2.7-.7 3.3zm13.7.6c.3 1.6 0 2.1-.9 1.6-.8-.6-1-.4-.4.4.8 1.3-3.3 6.4-4.5 5.6-.6-.3-.6-2.2-.1-5.5.2-1.4 3.7-4.9 4.6-4.7.6.2 1.2 1.4 1.3 2.6zm-23.2.9c-1.8 1.6-1.8 1.6-.6-.6.6-1.3 1.4-2.1 1.8-1.8.3.4-.2 1.4-1.2 2.4zm2.5 5.5c-1.3 3.3-3.5 3.7-2.5.4.8-2.8 2.7-5.2 3.1-4 .2.6-.1 2.2-.6 3.6zm7.9-1.8c0 .8-.4 1.7-1 2-.6.4-1-.5-1-2s.4-2.4 1-2c.6.3 1 1.2 1 2zm-20-.1c-.1.5.3 1.2.8 1.5.5.3 1.2 1.6 1.6 2.7.5 1.7-.2 3-2.8 5.5-1.9 1.8-3.2 3.7-2.9 4.2.3.6.1.7-.5.3-.7-.4-1.2-.1-1.2.8 0 2-2.7 3.4-5.6 2.8-2.8-.5-3.1-2.4-.7-4.3 1.3-1.1 1.7-1.1 2-.2.3.7 1.1 1.3 1.9 1.3 1.9 0 4.7-4.7 4-6.6-.4-.9-.2-2.2.4-2.9.8-.9.8-1.5.1-2-.7-.4-.7-1.2.2-2.5 1.2-2 3-2.3 2.7-.6zm45.2 4.9c-1.8 1.7-4.1 4.3-5.2 5.6-1.1 1.3-2 1.8-2 1.1 0-1.8 7.2-9.8 9-9.9.9-.1.2 1.2-1.8 3.2zm-54.2 1.1c0 1.4-2.4 2.9-3.3 1.9-.3-.3-.3-1.1 0-1.9.7-1.8 3.3-1.8 3.3 0zm57 1.9c0 1.2-9.7 11.7-10.7 11.7-1.6 0 1.4-5.8 4.9-9.6 3.8-4.1 5.8-4.8 5.8-2.1zm-43.1 8.6c-.6 1.4-3.6 4.8-6.5 7.5-4.4 4-5.4 4.5-5.4 2.9 0-1.1.9-2.8 2.1-3.9 1.2-1 3-3.3 4.2-4.9 1.8-2.6 1.5-2.5-2.1.9-4.3 4.1-6.6 4.3-3.9.4.8-1.3 3.7-4.6 6.3-7.3l4.7-5 .9 3.4c.6 2.3.6 4.2-.3 6zm24.7.6c-2.7 3.5-3.3 5.1-1.6 4 1.5-.9 1.2 2.1-.3 3.4-2.6 2.1-1.5-6.2 1.3-9.7 3.3-4.2 3.9-2.1.6 2.3zm102.5.7c0 3.5.2 10.1.4 14.8.2 4.7.6 16.7.9 26.7l.6 18.3h-7.4c-6.8 0-7.6-.2-10.5-2.9-3.9-3.7-3.9-4.6.1-4.6 1.7 0 3.3-.5 3.5-1.2.6-1.7-5.5-4.6-8.2-3.9-1.9.5-2.5 0-3.8-3.7-2.4-6.5-3.5-10.8-4.2-15.9-.6-4.7-.5-4.9 2.9-6.9 3.7-2.2 7.9-7.1 9-10.6 1.1-3.5 4.6-7.3 8.1-8.7 1.9-.8 4.1-2.8 5-4.5 2.4-4.7 3.5-3.7 3.6 3.1zM212 626c0 .5-.5 1-1.1 1-.5 0-.7-.5-.4-1 .3-.6.8-1 1.1-1 .2 0 .4.4.4 1zm-40 6.1c0 1.6-12.4 14.2-12.8 13-.5-1.5.8-3.5 6.2-9.1 4.7-4.9 6.6-6 6.6-3.9zm38.5.8c-.3.6-1.1 1.1-1.7 1.1-.6 0-.6-.6.2-1.5 1.4-1.7 2.6-1.3 1.5.4zm-1.1 7.2c-2.7 2.8-2.4 3.5 1.4 3 2.1-.3 1.3 2.8-1.3 4.5-1.4.9-2.3 2-2 2.4.3.4-.2 1.1-1.1 1.4-1.3.5-1.5.2-1.1-1.5.5-1.9.4-2-1.2-.5-2.5 2.3-3.1 2-2.7-1.3.3-3.1 4.6-9.3 8-11.7 3.3-2.2 3.3.3 0 3.7zm-13.4-2.4c-.1 1.2-4 5.6-4.5 5.1-.3-.2.5-1.6 1.7-3.1 2.3-2.8 2.8-3.2 2.8-2zm-23.1 5c0 .4-3 3.9-6.6 7.7-5.5 5.8-6.5 6.5-6.1 4.3.3-1.5.1-2.4-.3-2.1-2.1 1.3-.6-1.5 2.3-4.2 1.7-1.6 2.7-2.3 2.3-1.5-.5.9-.4 1.2.3.7.7-.4 1.2-1.4 1.2-2.2 0-.8.6-1.4 1.4-1.4.7 0 1.9-.7 2.6-1.5.9-1.1.9-1.5.1-1.5-.7 0-.9-.5-.6-1 .7-1.1 3.7 1.3 3.4 2.7zm23.1.2c0 1.7-4.9 6.7-5 5.2 0-.8 1-2.5 2.2-3.8 2.4-2.5 2.8-2.7 2.8-1.4zm-20 3.6c0 .8-.3 1.5-.7 1.5-1.2.1-7.6 6.1-7.1 6.6.3.2 1.8-.7 3.4-2.1 1.6-1.4 3.3-2.5 3.7-2.5 1.3 0-.9 3.2-6.8 9.9-3.1 3.5-5.4 6.5-5.1 6.8.7.8 4.6-2.1 5.2-3.9.6-2 2-2.4 2.6-.7.2.7.9.5 1.7-.5 1.2-1.4 1.2-1.6-.3-1-.9.3-1.6.1-1.6-.5 0-1.2 3.6-1.5 4.3-.4.3.5.8 2.1 1.1 3.8.6 2.7 0 3.8-5.7 9.9l-6.3 6.8-1.2-2.7c-.7-1.4-.8-2.4-.3-2 1.3.7 6.5-6.1 5.6-7.4-.3-.6 0-.8.8-.5.8.3 1.9-.2 2.6-.9.9-1.2.8-1.6-.4-2.1-2.1-.8-4.2 1.3-4.7 4.5-.2 1.6-.9 2.3-2 2.1-1.3-.2-1.6.2-1.2 1.5.4 1.5.4 1.5-.4.3-.5-.8-1.3-3.4-1.7-5.7-.5-3.5-.3-4.6 1.4-6.4 1.1-1.2 1.8-2.6 1.5-3.1-.3-.5-1.4.2-2.5 1.4-1.8 2.1-1.8 2 .1-1.4 2.2-3.9 11.2-12.8 13-12.8.5 0 1 .7 1 1.5zm97-.7c0 .8-4.3 3.2-5.5 3.2-1.4 0-.2-2.9 1.3-3.3 2.9-.8 4.2-.7 4.2.1zM194.3 656c-1.6 2.8-3.3 3.9-3.3 2.3 0-.7 4.1-5.3 4.7-5.3.2 0-.4 1.3-1.4 3zm11-1.3c-.7.2-1.3 1-1.3 1.8 0 .7-.7 1.8-1.5 2.5-1 .9-1.5.9-1.5.1 0-.6.5-1.1 1.2-1.1.6 0 .8-.3.5-.7-.9-.8 1.2-3.3 2.7-3.2.7 0 .6.2-.1.6zm6.7.8c0 .2-1.1 1.6-2.5 3-2.5 2.4-3.5 3-3.5 2 0-.4 5.3-5.5 5.7-5.5.2 0 .3.2.3.5zm-1.6 9c-.7 1.8-1 3.6-.6 3.9.3.4-.2.4-1.2 0-1.3-.5-2.4.1-4.1 2.2-1.8 2.2-2.6 2.6-3.5 1.8-.9-.9.2-2.7 4.2-7.2 5.4-6.1 7.6-6.4 5.2-.7zm-6.4-.5c-.6 1.1-1.5 2-2 2-1.6 0-1.1-1.8.8-2.9 2.4-1.4 2.4-1.4 1.2.9zm-8.6 2.2c-.7 2.4-5.4 7.8-5.4 6.3 0-1 5-8.5 5.7-8.5.2 0 .1 1-.3 2.2zm118.6 1.9c0 1.1-.4 1.7-1 1.4-.5-.3-1-1.3-1-2.1s.5-1.4 1-1.4c.6 0 1 .9 1 2.1zm-218.2.1c.7.7 1.2 3.9 1.2 7.5v6.3h-3c-2.7 0-3-.2-2-1.9.7-1.5.7-2.2-.2-2.8-2.1-1.3-18.1-.3-19.9 1.3-2.1 1.9-2.9 1.8-2.9-.6 0-1.5.7-2 2.5-2 1.3 0 3.9-.9 5.7-2 1.8-1.1 4.3-2 5.5-2 1.2 0 3.5-1.1 5-2.5 3.1-2.7 6.2-3.2 8.1-1.3zm61.2 3.9c0 .5-.4.9-1 .9-.5 0-1-.7-1-1.6 0-.8.5-1.2 1-.9.6.3 1 1 1 1.6zm-8 1.8c1.3 2.5 1.3 10.1 0 10.1-.6 0-3.7-.9-6.8-1.9-4.9-1.7-18.7-3.4-26.9-3.3-1.6 0-2.3-.6-2.3-2 0-1.5.4-1.8 1.8-1.3.9.4 4.9 1 8.7 1.2 5.7.4 8 .1 11.5-1.5 8.2-3.6 12.5-4 14-1.3zm22.3 3.3c.4 1 .7 1 1.8 0 1.4-1.3 3.9-1.6 3.9-.4 0 .4-2 2.7-4.5 5.2-2.4 2.5-4.4 5.1-4.5 5.7 0 1.6-2 1.8-2 .3 0-.6.7-2.5 1.5-4.3 1.2-2.4 1.2-2.8.2-1.5-1.7 2.1-2.7 2.3-2.7.4 0-1.6 3.8-6.6 5-6.6.5 0 1 .6 1.3 1.2zm26.7 0c-.1.7-1.9 3.3-4 5.8-3.4 3.9-4 4.2-4 2.3 0-1.2 1.4-3.8 3.1-5.8 3.2-3.6 4.9-4.4 4.9-2.3zm12.7 0c-1.6 4.4-1.8 6-.8 5.4 2.1-1.3 1.1 1.2-2.1 5.2-3.8 4.7-5.3 5.3-4.4 1.8.3-1.4.2-2.8-.4-3.1-1.7-1-1.2-2.3 2.6-6.5 3.5-3.9 6.1-5.3 5.1-2.8zm103.3 18c0 10.5-.2 18.9-.5 18.6-.3-.2-.8-8.9-1.1-19.1-.5-13.5-.3-18.7.5-18.7s1.1 5.7 1.1 19.2zM53 681.6c0 .9-1.1 1.4-3.5 1.4-4.3 0-4.9-2.7-.7-3.2 3.3-.5 4.2-.1 4.2 1.8zm16.8 2.4c-1.5 2.4-1.9 2.1-1.1-.8.3-1.2.9-1.9 1.4-1.6.5.3.3 1.4-.3 2.4zm19.7-2c.3.5-.1 1-1 1s-1.3-.5-1-1c.3-.6.8-1 1-1 .2 0 .7.4 1 1zm87.5.2c0 2-9 12.9-10.1 12.2-1.5-.9-1.1-1.6 3.6-7.7 4.4-5.5 6.5-7 6.5-4.5zm-17 2.3c0 .8-.4 1.5-1 1.5-.5 0-1-.7-1-1.5s.5-1.5 1-1.5c.6 0 1 .7 1 1.5zm-25.7.2c-.7.2-1.9.2-2.5 0-.7-.3-.2-.5 1.2-.5s1.9.2 1.3.5zm220.7.3c0 .5-.4 1-1 1-.5 0-1-.5-1-1 0-.6.5-1 1-1 .6 0 1 .4 1 1zM97.3 699.4c.4 7.1.6 13.5.3 14.1-.2.7-3.5 1.5-7.4 1.8-8.6.8-10.4 1.5-10 3.6.3 1.1 1.2 1.5 3.3 1.3 1.7-.2 2.6 0 2.2.5-1.1 1-14.7 3.1-15.2 2.3-.3-.5-.8-9.8-.6-13.2.1-1.3 1-1.7 4.4-1.7 2.3 0 7.8-.3 12.2-.8 6.1-.6 8-1.2 8-2.3 0-2.2-7.4-2.5-13.8-.6-7.1 2.1-11 1.1-11.2-2.9-.5-6.5.1-7.1 6.8-7.5 3.4-.2 7.6-.2 9.2-.2 3.8.2 8.5-1.6 8.5-3.4 0-2-3.9-2.6-14.5-2.2-6.5.2-9.5-.1-9.5-.8 0-.7 3-1.2 8.2-1.3 4.5-.1 8.4-.3 8.5-.5.1-.1 2.4 0 5 .4l4.8.5.8 12.9zm-75.4-9.5c-.3.6-1 .7-1.8.2-.7-.5-1-1.4-.6-2.1.9-1.4 2.9.2 2.4 1.9zm30.8-1.3c.2.6-1.1 1.1-3.2 1.2-2.5.1-3.5-.3-3.5-1.4 0-1.1.9-1.4 3.2-1.2 1.7.2 3.3.8 3.5 1.4zm64.3-.6c-.8.5-1.9 1-2.5 1-.5 0-.3-.5.5-1s2-1 2.5-1c.6 0 .3.5-.5 1zm34.8 1.4c.4 1.9-.4 2-6.4.5-6.4-1.6-6.3-2.7.4-2.4 4.4.1 5.8.6 6 1.9zm9.2.7c0 .5-.7.9-1.5.9-1.5 0-2-1.2-.9-2.3.8-.8 2.4.1 2.4 1.4zm15-.6c-.7.8-1.7 1.5-2.2 1.5-.6 0-.5-.7.2-1.5s1.7-1.5 2.2-1.5c.6 0 .5.7-.2 1.5zm19.4 5.2c-2.1 2.7-4.4 4.1-4.4 2.6 0-1.3 5.1-6.5 5.8-5.8.3.3-.3 1.7-1.4 3.2zm-80.8-.1c.5 3.4 1.5 4.4 4.2 4.4 1.6 0 3.5-.7 4.2-1.5 1-1.2 3.4-1.4 12.4-1.1 7.3.3 11 .8 10.9 1.5-.2.6.4 1.1 1.2 1.1.8 0 1.5-.5 1.5-1.1 0-.6.9-.8 2.3-.3 2.7.8 2.3.2 3.1 4.6l.7 3.8h-6.6c-6.5 0-6.5 0-5.9-2.6l.6-2.5-6.3.3c-4.9.2-6.4.7-6.4 1.8s1.3 1.6 4.3 1.8c3.5.3 4.2.7 4 2-.3.9-1.1 1.5-1.9 1.3-3.1-.9-5.4 0-9.8 3.7-4.2 3.5-5 3.8-9.3 3.4l-4.8-.4v-11.6c0-6.3.3-11.2.7-10.8.4.3.8 1.4.9 2.2zm25.1-2c-.3.3-1.2.4-1.9.1-.8-.3-.5-.6.6-.6 1.1-.1 1.7.2 1.3.5zm22.3 2c0 .8-.4 1.4-1 1.4-.5 0-1-.9-1-2.1 0-1.1.5-1.7 1-1.4.6.3 1 1.3 1 2.1zm14.2.1c-1.1 1.6-3.2 3.9-4.7 5.3l-2.7 2.5.7-2.5c.4-1.4 1.4-2.9 2.1-3.3.8-.4 1.4-1.3 1.4-1.8 0-.6-.4-.7-1-.4-.5.3-1 .1-1-.5 0-.7.8-.9 2-.5 1.1.4 2 .2 2-.4 0-.6.7-1.1 1.6-1.1 1.3 0 1.2.4-.4 2.7zM22.5 699c-.2.4-2.5.4-5 0s-5.8-.5-7.2-.2c-1.9.4-2.4.1-2.1-.9.3-.8 1.8-1.4 3.4-1.5 4.8-.1 9.4-1.5 9.5-2.7 0-.7.5.1.9 1.7.5 1.6.7 3.2.5 3.6zm206.6-.6c-.5 1.2-.6 2.7-.4 3.4.3.7-.1 2-.9 2.9-.9 1.2-.9 1.5 0 .9.8-.5 1.2 0 1.2 1.6 0 1.3-.6 3-1.2 3.7-1.1 1.1-1 1.3.5.8 2-.7 2.2.6.6 5.2-.7 2-2 3.3-3.5 3.7-1.4.4-3.2 2-4.1 3.7-1.9 3.8-4 6-5.3 5.5-1.6-.5 1.9-6.4 6.7-11.3 2.5-2.5 4.3-4.8 4.1-5.1-.3-.3-1.2.1-2 .8-.7.7-2.4 1.9-3.6 2.6-2.8 1.6-2.9 0-.2-3.8 1.6-2.2 1.7-3 .7-4.3-1.1-1.5-1.4-1.4-3.6.3-1.3 1.1-1.9 2-1.4 2s1.4-.5 2.1-1.2c.9-.9 1.2-.7 1.2 1.1 0 1.9-.4 2.2-2.2 1.7-1.3-.3-2.6-.6-3-.6-1.6 0-.7-2.2 1.7-4.6 2.4-2.4 2.4-2.5.4-1.9-1.8.6-2 .4-1.4-1.7 1.2-3.8 3.1-5.4 4.9-3.9 2 1.7 5 .6 4.2-1.4-.3-.9 0-1.5 1-1.5.8 0 1.7-.7 2.1-1.6.4-1.2.8-1.3 1.4-.3.4.7.4 2.2 0 3.3zm68.7-3.2c.5.7 1.1 4.9 1.3 9.3l.4 8-5.5.5c-3 .3-5.5.9-5.5 1.5 0 .5 2.2 1.5 4.9 2.2 6.5 1.6 6.9 2.3 1.3 2.3-2.6 0-4.7.5-4.7 1 0 1.3 4.3 3 7.6 3 2.4 0 2.4.2 2.4 8.3v8.4l-3.2 1.6c-1.8.9-4.1 1.8-5.1 2.1-1.2.4-1.7 1.3-1.5 2.7.3 1.8-.3 2.1-5.4 2.4-5.3.3-5.7.2-6.3-2.2-.7-3 .7-4.3 4.8-4.3 1.5 0 2.9-.6 3.1-1.3.2-.6 1.1-3.5 2-6.3 1.6-4.8 1.6-5.4 0-9.3-.9-2.3-2.5-4.8-3.6-5.5-1.6-1.1-1.9-2.1-1.3-4.4.8-3.7 2.5-4.5 8-3.7 2.9.5 4.5.3 5.3-.7 1.7-2.1.1-3.6-4.3-4-3.6-.3-4-.6-4.3-3.2-.2-1.6-.1-4.4.3-6.3.5-3.1.9-3.3 4.4-3.3 2.1 0 4.3.6 4.9 1.2zM53.8 710l.4 15h-3.6c-3.5 0-3.6-.1-3.7-3.8 0-2-.3-6.1-.5-9-.4-4.8-.3-5.4 1.6-5.9 2.4-.6 2.6-2.1.5-2.9-3.6-1.4-.2-7.6 4.5-8.3.3-.1.7 6.7.8 14.9zm156.1-8.8l.1 6.2-6.5 6.2c-3.6 3.5-6.5 6.7-6.5 7.2 0 .6-.7 1.2-1.5 1.6-4.7 1.8 2.3-10.6 10.2-18 1.8-1.7 3.3-3.5 3.3-4 0-.4-1.3.5-2.9 2-4.2 4.1-4.6 1.6-.5-3.3 2-2.2 3.7-4.1 3.9-4.1.1 0 .3 2.8.4 6.2zm161.8-5.6c-.3.3-1.2.4-1.9.1-.8-.3-.5-.6.6-.6 1.1-.1 1.7.2 1.3.5zm-31 24c-.5.5-19.6.8-20.1.3-.2-.2-.6-3.8-.7-7.9l-.4-7.5 6.5-1.2c11.1-2 12.1-2.4 13.3-5.2 1-2.2 1.2-.8 1.5 9.3.1 6.5.1 12-.1 12.2zm-143.4-21.3c.3.8-.5 2.7-1.8 4.3-2 2.5-2.4 2.6-3 1.2-.6-1.6 2-6.8 3.5-6.8.4 0 1 .6 1.3 1.3zm182.4.7c1.4 1.1 3.6 2 4.9 2 2.3 0 2.4.2 2.4 8.8v8.9l-9.2 1.2c-5.1.7-10.7 1.5-12.5 1.8-2.6.4-3.2.1-3.8-1.7-.8-2.4-.8-15.7 0-16.9.2-.5 2.9-1.2 5.9-1.5 3.4-.5 6-1.4 7.2-2.7 2.1-2.3 2-2.3 5.1.1zm-202.7-.6c0 .2-.8 1-1.7 1.7-1.6 1.3-1.7 1.2-.4-.4 1.3-1.6 2.1-2.1 2.1-1.3zm311 .6c0 .5-.4 1-1 1-.5 0-1-.5-1-1 0-.6.5-1 1-1 .6 0 1 .4 1 1zm-325 1.5c0 .8-.4 1.5-1 1.5-.5 0-1-.7-1-1.5s.5-1.5 1-1.5c.6 0 1 .7 1 1.5zm267.9.1c3.1.6 3.1.7 3.1 6.9 0 3.4-.2 6.4-.5 6.7-.4.3-2.4.2-4.6-.3-6.2-1.4-14.8-1.9-17.2-.9-2.2.8-2.2.8.3 1.8 1.4.5 3.2 1.2 4 1.5.8.3-.3.5-2.5.4l-4-.2-.3-7.7-.3-7.7 8.3-.4c4.6-.1 8.8-.4 9.4-.5.6-.1 2.6.1 4.3.4zM236 703c0 .5-.5 1-1.1 1-.5 0-.7-.5-.4-1 .3-.6.8-1 1.1-1 .2 0 .4.4.4 1zm41.5 1c-.3.5-1.1 1-1.6 1-.6 0-.7-.5-.4-1 .3-.6 1.1-1 1.6-1 .6 0 .7.4.4 1zm170.4 2.7c-.1 3.8-.1 3.8-.9.9-.8-2.7-.6-4.6.6-4.6.2 0 .4 1.7.3 3.7zm21.6 7.8v9l-7.3-.2c-4.1-.1-7.9-.7-8.6-1.2-1.2-1-1.3-4.2-.8-13.9l.2-3.3 8.3.3 8.2.3v9zM237 707.9c0 .6-.4 1.3-1 1.6-.5.3-1-.1-1-.9 0-.9.5-1.6 1-1.6.6 0 1 .4 1 .9zm-133 7.8c0 8.4-.8 7.8-1.5-1.1-.4-4.4-.2-6.5.5-6.1.5.3 1 3.6 1 7.2zm95-6.7c0 1.4-4 5.3-4.8 4.6-.9-.9 2-5.6 3.5-5.6.7 0 1.3.4 1.3 1zm-42.3 1.4c-.4 1.2-11.2 1.9-13.7.9-2.2-.8 2.1-1.8 8.7-1.9 3.4 0 5.2.3 5 1zm49.6 7.4c-1.6 2-3 4.7-3.1 6 0 1.2-.8 2.9-1.6 3.8-.9.8-2 2.3-2.5 3.2-.5.9-1.3 1.4-1.6 1-.4-.4.7-2.4 2.4-4.4 1.7-2.1 2.8-4 2.4-4.3-.3-.3-.8 0-1 .6-.3.7-1.1 1.3-1.8 1.3-.8 0-1.7.9-2 2-.7 2.3-2.5 2.7-2.5.5 0-.8 2-3.6 4.4-6.1 2.4-2.4 5.5-6 6.8-7.9 2-3 2.3-3.2 2.6-1.5.2 1.1-1 3.7-2.5 5.8zm32.7-3.2c0 1.6-1.6 1.9-2.5.4-.8-1.3.4-3.2 1.6-2.5.5.4.9 1.3.9 2.1zm208.7 3.1c-.3 1-.5.2-.5-1.7s.2-2.7.5-1.8c.2 1 .2 2.6 0 3.5zm28.3-2.2c0 .8-.4 1.5-1 1.5-.5 0-1-.7-1-1.5s.5-1.5 1-1.5c.6 0 1 .7 1 1.5zm-235.6 5c-.7 1.8-.8 1.8-1.4-.1-.9-2.3-.1-3.9 1.1-2.7.6.6.6 1.8.3 2.8zm74.6-1.4c0 .5-.4.9-1 .9-.5 0-1-.7-1-1.6 0-.8.5-1.2 1-.9.6.3 1 1 1 1.6zm-148 .4c0 .8-.2 1.5-.4 1.5s-.6-.7-1-1.5c-.3-.8-.1-1.5.4-1.5.6 0 1 .7 1 1.5zm51-.2c0 .8-.9 2.2-2 3.2-2.2 2-2.7.7-1-2.6 1.2-2.2 3-2.5 3-.6zm14 1.6c0 2.9-4.2 8.1-6.5 8.1-.7 0-1.8 1.3-2.5 2.9-1.3 3.3-4.7 6.7-5.6 5.8-1-1 3.8-9.5 5.7-10 1-.3 2.8-2.6 4.1-5.1 2.5-5.2 4.8-6.1 4.8-1.7zm38.2-1.4c0 .5-.5 1.1-1.1 1.3-.6.2-1.1-.4-1.1-1.3s.5-1.5 1.1-1.3c.6.2 1.1.8 1.1 1.3zm162.5 3.2c-.3 1-.5.4-.5-1.2 0-1.7.2-2.4.5-1.8.2.7.2 2.1 0 3zm-158.3.4c-2.2 2.4-3.8 1.4-1.7-1.1.9-1 2.1-1.7 2.5-1.3.5.3.2 1.3-.8 2.4zm152.4-.6c1.2.3 2.2 1 2.2 1.6 0 .7-2 .9-6.1.4-5-.6-6.1-.5-5.7.6.3.9 2.9 1.6 7.2 2.1 9.3.9 9.2.8 8.8 6.3l-.4 4.7-6.7-.6c-3.6-.4-8.8-.3-11.6.2-4.1.6-5 1.1-5 2.7 0 1.8.7 2 9.5 2.1 12.2.1 15.1.8 13.5 3.4-.5.8-1.1.5-2.1-.7-.9-1.2-1.3-1.3-1.4-.5 0 .8-.5 1-1.2.5-.7-.4-2.5-.6-4-.4-1.8.1-2.8-.2-2.8-1.1 0-1-.3-.9-1 .2-.5.8-1 1-1 .5 0-.6-1.7-.9-4.1-.7-3 .3-4.3.9-4.6 2.3-1.1 4.1-2.1 1.5-2.4-5.9-.4-13.4-.1-17.6 1.5-18.8 1.4-1 10.4-.4 17.4 1.1zm-146.1.7c1.9 1.7 2.3 3.2 2.3 7.6 0 5.5 0 5.5-2 3.7-1.2-1.1-1.8-2.5-1.5-3.4.4-1-.1-.9-1.6.5l-2.2 1.9.7-3.9c.6-3.3.5-3.8-.8-3.3-1.5.6-1.5.4-.1-2.3 1.9-3.6 2.2-3.6 5.2-.8zm-183.1-.1c.9 1.5.8 23.5-.1 24.9-.4.7-2 1-3.9.6-1.7-.3-7.5-.6-12.8-.7-9.8-.2-9.8-.2-9.9-2.8-.1-1.4-.1-3 .1-3.6.1-.5.2-2.1.2-3.5.1-2.4.5-2.7 4.2-2.9 8.8-.4 19.1-2.7 19.1-4.2 0-.9-1-1.4-3-1.3-5.5.2-16.9 1.4-18.7 2-1.3.4-1.8 0-1.8-1.5s.7-2.1 2.3-2.2c4.9-.1 8.9-1 15.4-3.3 8.1-2.9 8-2.9 8.9-1.5zm11.4 3.4c0 2.5-.3 4.5-.8 4.5-.4 0-.6-2-.4-4.5.2-2.5.6-4.5.8-4.5.2 0 .4 2 .4 4.5zm132.6-1.7c-1.7 1.6-1.8 1.6-.5-.5.7-1.2 1.5-2 1.8-1.7.3.2-.3 1.2-1.3 2.2zm73.4-1.2c0 .8-.5 1.2-1 .9-.6-.4-.8-1.1-.5-1.6.9-1.4 1.5-1.1 1.5.7zm-211.3 14.6c-.2 2.9-.3.6-.3-5.2s.1-8.1.3-5.3c.2 2.9.2 7.7 0 10.5zm283.6-10.1c.7 5.8-.1 10.9-1.7 11-.6 0-4.9.3-9.5.5-8.4.5-11.1 1.4-11.1 3.9 0 .7-.6 1.5-1.4 1.8-1.1.4-1.5-1.4-2.1-8.5-.3-4.9-.4-9.3 0-9.6.8-.9 17-4 21.6-4.1l3.6-.1.6 5.1zm105.2-4.1c-2.8 1.2-6.3 1.2-7 0-.4-.6 1.2-1 4.2-.9 3.6 0 4.3.3 2.8.9zm-256.6 1.7c-.8.9-2.1 2.5-2.9 3.4-.8.9-2.3 2.9-3.3 4.3-1 1.5-2.2 2.4-2.8 2.1-1.2-.8 2.8-8.5 4.5-8.5.8 0 1.6-.7 2-1.5.3-.8 1.3-1.5 2.2-1.5 1.4 0 1.5.2.3 1.7zm98.6-.7c-2.6 1.1-13.5 1.2-13.5.1 0-.5 3.5-.9 7.8-.9 5.2-.1 7 .2 5.7.8zm134.6 2.9c.3.3.2 5.5-.1 11.6-.4 6-.7 10.5-.8 9.8-.3-1.5-5.4-.1-6 1.6-.3 1 0 1.1 1.7.2 1.8-1 2.1-.9 2.1 1 0 1.6-.3 1.9-1.2 1.1-1.7-1.3-3-1.3-4.6.1-1.3 1-1.9.6-3.7-2.8-.3-.6-.7-.5-1.1.2-1.3 2.8-3.4 1.3-3.4-2.3 0-3.1.3-3.5 1.8-2.9 3.2 1.5 13.1 1.1 13.7-.4.6-1.4-1-3.1-2.9-3.1-.6 0-.5-.5.2-1.2 2.2-2.2 1.3-2.7-5.5-3l-6.8-.3-.3-5.7-.3-5.7 8.3.6c4.6.3 8.6.8 8.9 1.2zm-128.1 8c0 4.4.3 8.6.6 9.4.3.9-.4 2.5-1.6 3.7l-2.2 2.2-2.7-2.6c-1.5-1.4-3.2-2.6-3.9-2.6-.6 0-1.8-1.6-2.6-3.5-1.1-2.6-2.3-3.7-4.6-4.1-2.1-.5-3.2-1.4-3.6-3-1.1-4.2.1-5.4 5.3-5.5 2.6 0 6.6-.4 8.8-.8 2.2-.5 4.6-.9 5.3-1 .9-.1 1.2 2.1 1.2 7.8zm106.4-.5c-.2 2.8-.7 9.9-1 15.8-.3 6-.9 10.8-1.3 10.8-.7 0-.5-14.5.5-26.9.4-4.4.9-6.9 1.4-6.1.5.7.6 3.6.4 6.4zm-392.9-3.9c0 1.5-.7 2-2.9 2-3.1.1-4.7-2.2-2.5-3.6 2.3-1.5 5.4-.6 5.4 1.6zm180.5.9c0 2.2-4.9 7.6-5 5.5 0-1.5 3.6-6.9 4.6-6.9.2 0 .4.6.4 1.4zm-34.7 2c-1 1.3-2 2-2.1 1.5-.5-1.2 1.7-3.9 3-3.9.5 0 .1 1.1-.9 2.4zm5.6 1.3c-3.2 5.2-4.6 6.6-5.4 5.3-.6-1 .2-2.4 4-7.6.5-.8 1.6-1.4 2.3-1.4 1 0 .7 1.1-.9 3.7zm33.5 1.8c.4 1-.1 1.5-1.5 1.5-1.7 0-1.8-.2-.7-1.5 1.6-1.8 1.5-1.8 2.2 0zm-16.7 3.1c-.8 1.5-1.7 2.2-2 1.7-.7-1 2.2-5.8 3-5 .2.3-.2 1.8-1 3.3zm-168.1 2.5c-.4 4.7-.3 4.5-3.9 5.4-2.9.8-2.9.7-2.6-3.6.2-3.6.7-4.6 2.8-5.6 3.5-1.5 4.1-.9 3.7 3.8zm179.8-1.4c-.9 3.5-1.3 4.3-2.5 4.3-1.5 0-1-3.7.7-4.4.8-.3 1.2-1 .9-1.6-.3-.5-.1-1 .5-1s.8 1 .4 2.7zm7.2 2c-1 1-1.9-.5-1-1.8.6-1.1.8-1.1 1.2 0 .2.7.1 1.5-.2 1.8zm-36.6-1.3c0 .3-.4.8-1 1.1-.5.3-1 .1-1-.4 0-.6.5-1.1 1-1.1.6 0 1 .2 1 .4zm22-.1c0 .9-3.2 6.7-4 7.2-1.9 1.1-1.8-1.2.2-4.3 1.6-2.6 3.8-4.3 3.8-2.9zm228 .1c0 .2-.7.6-1.5 1-.8.3-1.5.1-1.5-.4 0-.6.7-1 1.5-1s1.5.2 1.5.4zm-279 6.1c-.7.8-1.6 1.5-2.1 1.5-1.5 0-1-2.2.9-4.3 1.5-1.7 1.7-1.7 2-.3.2.9-.2 2.3-.8 3.1zm79.6-.8c-1 1-1.9-.5-1-1.8.6-1.1.8-1.1 1.2 0 .2.7.1 1.5-.2 1.8zm224.6 2.5c-.3 6.1-1.2 6-1.2-.2 0-2.9.3-5 .7-4.7.3.4.6 2.6.5 4.9zm-264.6-1.5c-.6 3.2-2.6 5.5-2.6 3 0-1.5 2-5.7 2.8-5.7.1 0 0 1.2-.2 2.7zm-34.6-1.4c0 1-4.1 4.9-4.6 4.5-.3-.3.5-1.5 1.7-2.7 2.2-2 2.9-2.5 2.9-1.8zm53.6 5.5c-1.5 1.5-1.6 1.5-1.6-.4 0-2.8 2.4-5.2 2.8-2.8.2.9-.3 2.4-1.2 3.2zm10.5-2.5c-1 .9-1.1.8-.5-.6.3-1 .9-1.5 1.2-1.2.3.3 0 1.1-.7 1.8zm17.9-.3c-.6 1.1-1.5 2-1.9 2-.5 0-.7-.9-.4-2 .3-1.1 1.2-2 2-2 1.1 0 1.1.4.3 2zm121-.5c0 .8-.9 1.5-2 1.5-1 0-2.3.7-2.8 1.6-.9 1.6-1.1 1.6-3.3 0-2.2-1.5-2.2-1.6-.3-1.6 1.1 0 2.9-.7 4-1.5 2.5-1.9 4.4-1.9 4.4 0zm-57.5.5c.4.6-.8 1-3 1s-3.4-.4-3-1c.3-.6 1.7-1 3-1s2.7.4 3 1zm98.4 0c1.1 0 1.1.3.1 1.5-.7.8-1 1.5-.7 1.5.3 0 1.3.3 2.1.6 1.2.5 1.5.2 1-1-.4-1.2 0-1.6 1.5-1.6 2.4 0 4.8 4.7 3.3 6.2-1.1 1.1-4.4-.1-3.6-1.3.3-.5 0-.9-.5-.9-.6 0-1.1.4-1.1.8 0 1.1-9.9 1.2-10.5.1-.3-.4.3-1.3 1.4-1.8 1.4-.8 2-.8 2.3.1.3.7.7.5 1.1-.6.4-.9.3-1.5-.2-1.2-.5.3-1.1-.4-1.4-1.5-.5-1.8-.2-2 1.6-1.5 1.2.3 2.8.6 3.6.6zm63.5 6.4c-.5 1.3-.8 1.3-2 .1-.8-.7-1.4-2.4-1.4-3.6v-2.3l2 2.2c1.1 1.1 1.7 2.8 1.4 3.6zm6.7-3.8c-1.9.8-4.2 1.2-5 .8-1.3-.5-1.1-.8.9-1.4 1.4-.5 3.6-.8 5-.9 2.2 0 2.1.2-.9 1.5zM249 754.9c0 2.9-3.6 6.8-5 5.5-.8-.8-.5-1.8 1-3.6 1.1-1.5 2-3.1 2-3.8 0-.6.5-.8 1-.5.6.3 1 1.4 1 2.4zm-63 .2c0 1.9.1 1.9 1.6.5 3.4-3.5 3.4.1-.1 4.2-1.3 1.6-2.1 3.3-1.7 3.7.4.5.1.5-.6.1-.9-.6-1.1-1.7-.7-3.4.6-2.5.6-2.6-1.3-.9-1 .9-2.2 1.7-2.5 1.7-1.3 0-.7-3.1 1.1-5.5 2.1-3 4.2-3.2 4.2-.4zm54.5 1c-.6 1.6-.9 1.8-1.6.8-.4-.8-.3-1.9.3-2.6 1.5-1.8 2.1-.9 1.3 1.8zm172.9-2.5c2.3.9.9 2.4-2.1 2.4-1.4 0-5.7.9-9.6 2.1-7.2 2.1-8.7 2-18.7-1.8-2.8-1 2.2-2.1 8-1.6 3 .2 8.2 0 11.5-.5 7.9-1.3 9-1.3 10.9-.6zm83.6 1.9c0 .8-.4 1.7-1 2-.6.4-1-.5-1-2s.4-2.4 1-2c.6.3 1 1.2 1 2zm-318.8 1.7c-1.2 1.2-2.4 1.9-2.7 1.6-.4-.3.4-1.5 1.6-2.7 2.9-2.7 3.9-1.7 1.1 1.1zM218 755c0 .5-.4 1-1 1-.5 0-1-.5-1-1 0-.6.5-1 1-1 .6 0 1 .4 1 1zm250.5 2c-.4 1.2-.9 1.9-1.2 1.7-.3-.3-.2-1.5.2-2.7.4-1.2.9-1.9 1.2-1.7.3.3.2 1.5-.2 2.7zm25-1.1c-.8 1.3-3.5 1.5-3.5.2 0-.5.8-1.1 1.8-1.3 2.1-.5 2.6-.2 1.7 1.1zm-325.4 1.8c-.8 1.5-1 1.5-1.1.2 0-1.7 1-3.2 1.8-2.5.2.3-.1 1.3-.7 2.3zm4.9-.8c0 .6-.4 1.3-1 1.6-.5.3-1-.1-1-.9 0-.9.5-1.6 1-1.6.6 0 1 .4 1 .9zm57 1c0 1.7-3.6 5.4-4.9 5-.9-.3-.6-1.2.9-3.2 2.1-2.7 4-3.5 4-1.8zm25.8.9c.2.7-.3 1.2-1.2 1.2-.9 0-1.6-.7-1.6-1.6 0-1.7 2.2-1.4 2.8.4zM237 760c0 .5-.7 1-1.6 1-.8 0-1.2-.5-.9-1 .3-.6 1-1 1.6-1 .5 0 .9.4.9 1zm-16 1c0 1.2-2.8 7-3.4 7-.3 0-1.2.3-2 .6-1.3.5-1.5.2-.9-1.2 1.7-4.8 6.3-9.4 6.3-6.4zm-21 1c0 .5-.2 1-.4 1-.3 0-.8-.5-1.1-1-.3-.6-.1-1 .4-1 .6 0 1.1.4 1.1 1zm14 .2c0 1.6-4.1 5.8-5.7 5.8-1.8 0-1.7-.6.9-4 2.2-3 4.8-4 4.8-1.8zm-17.4 3c-.1 1.3-.9 2.4-1.8 2.6-2.1.4-2.4-1.8-.6-3.6 1.8-1.8 2.5-1.5 2.4 1zm8.7-1.6c1.1 1.2-1.3 4.4-3.3 4.4-2.3 0-2.4-.4-.8-3 1.3-2 2.9-2.5 4.1-1.4zm-27.8 2.1c1.7.4 4.9 2.1 7.3 3.7l4.3 2.9-2.8 2.7c-1.5 1.4-4.4 4.6-6.4 7.1-3.6 4.4-5.2 5.4-16 10.3-6.4 3-9.1 3.2-10.9 1.1-1-1.3-1-1.9.4-3.3.9-1 1.6-2.4 1.6-3 0-.6 1.7-4.9 3.9-9.5 3.3-7.3 4.2-8.5 6.8-9 2-.4 3.2-1.4 3.6-2.8.6-2.2.6-2.2 8.2-.2zM25.4 790.9c.9 1.5-1.8 3.1-3.4 2-1.3-.8-1.3-1 0-1.9 1.9-1.2 2.7-1.2 3.4-.1zm.6 8.6c0 .8-.4 1.6-.8 1.9-1.3.8-5.2-.5-5.2-1.7 0-.6.3-.8.6-.4.4.3 1.3-.1 2.1-.9 1.6-1.6 3.3-1 3.3 1.1zm-.4 9.3c-.4.3-1.2 0-1.8-.6-.9-.9-.9-1.2 0-1.2.7 0 1.1-.3 1.1-.8-.1-.4 0-1.4.1-2.2.2-.8.5-.2.7 1.3.3 1.6.2 3.1-.1 3.5zm-2 3.1c-.3.5.1 1.1.9 1.5.8.3 1.5 1.3 1.5 2.2 0 1.3-.3 1.4-1.4.5-.7-.6-2.2-.9-3.2-.5-1.6.5-1.7.4-.4-.6 1.3-.9 1.2-1.1-.5-.8-1.2.2-1.9 1-1.7 2.1.2.9-.2 1.7-.7 1.7-.6 0-.8.6-.5 1.4.3.8.1 1.7-.4 2-.6.3-1.3-.2-1.6-1.1-.4-1-.1-2 .9-2.5.8-.5 1.3-1.3 1-1.8-.3-.5 0-1.2.6-1.6.8-.4.7-.9-.2-1.6-1-.7-.8-.9.7-.5 1.2.2 2.8.1 3.5-.4 1.8-1.1 2.2-1.1 1.5 0zM3 814c0 .5-.4 1-1 1-.5 0-1-.5-1-1 0-.6.5-1 1-1 .6 0 1 .4 1 1zm3 7c0 .5-.2 1-.4 1-.3 0-.8-.5-1.1-1-.3-.6-.1-1 .4-1 .6 0 1.1.4 1.1 1zm53.4 4.9c.3.5-.4 1.1-1.6 1.4-2.5.7-3.3.3-2.3-1.2.8-1.3 3.2-1.4 3.9-.2zm-.6 25.6c-.8.8-7.7.9-8.5.2-.3-.4 1.5-.7 4.2-.7s4.6.2 4.3.5zm-47.3 5.4c-.3.6-1.1.8-1.7.5-.6-.4-.5-.9.3-1.5 1.6-1 2.3-.4 1.4 1z"/><path d="M168.7 273.1c-.6 2.3.1 2.4 3 .1l2.3-1.7-2.4-.1c-1.6-.1-2.6.5-2.9 1.7zM174 273.5c-1.3 1.6-.6 3.5 1.5 3.5 1.5 0 2.4-1.9 1.7-3.8-.6-1.6-1.7-1.5-3.2.3zM179.4 274.1c-.3.6-.2 1.5.4 2.1 1.2 1.2 5.5-.8 4.7-2.3-.8-1.2-4.2-1.2-5.1.2zM186.5 278.1c-1.6.5-4.2.7-5.6.4-1.5-.4-3.8-.3-5.3.1-3.5.8-3.1 3.9.4 3.9 1.4 0 2.9.6 3.3 1.2 1 1.5 4.7 1.7 4.7.3 0-.6 1-1 2.3-1 2.4 0 4.4-1.3 6.4-4 1-1.3.8-1.6-1-1.7-1.2 0-3.5.3-5.2.8zM190 296.9c0 .6.4 1.2.8 1.5.5.3.9-.1.9-.9s-.4-1.5-.9-1.5c-.4 0-.8.4-.8.9zM192 304c-.9.6-1 1-.3 1 .6 0 1.5-.5 1.8-1 .8-1.2.4-1.2-1.5 0zM445.5 334c-1.1 1.8.6 3 4.5 3 4 0 5.9-1.3 3.8-2.6-2-1.3-7.6-1.5-8.3-.4zM421.7 485.1c-.7 2.6.2 5.1 1.6 4.6 1.8-.6 3.1-3.3 2.4-5.1-.9-2.3-3.4-2-4 .5zM157 484.5c-6.6 1.5-19 7.1-19 8.5 0 2.4 3.6 2.1 8.8-.5 3-1.5 8.7-3.6 12.5-4.7 7.8-2 8.2-2.2 7.2-3.7-.8-1.3-2.4-1.3-9.5.4zM363.7 565.1c-2.3 1.3-2.4 7.7-.1 8.6 3.3 1.3 6-6.1 3.1-8.5-.8-.7-1.8-.7-3-.1zM263.5 669c-.3.5-.1 1 .4 1 .6 0 1.1-.5 1.1-1 0-.6-.2-1-.4-1-.3 0-.8.4-1.1 1zM167.9 625.7c-1.3 1.6-1.2 1.7.4.4.9-.7 1.7-1.5 1.7-1.7 0-.8-.8-.3-2.1 1.3zM283.1 670.6c-3.3 5.6-.2 7.6 4.4 2.9 3.3-3.2 3.3-6.5.1-6.5-1.7 0-3 1.1-4.5 3.6zM204.5 645c-.3.5-.1 1 .4 1 .6 0 1.1-.5 1.1-1 0-.6-.2-1-.4-1-.3 0-.8.4-1.1 1zM114.5 704c-.9 1.4 4.2 3.1 7.1 2.4 1.3-.3 2.4-1.2 2.4-2 0-1.7-8.5-2-9.5-.4zM459.3 708.6c-2.9 1.3-1 2.5 3.5 2.2 2.6-.2 4.7-.8 4.7-1.3 0-1.1-6.2-1.7-8.2-.9zM0 708c0 .5.4 1 .9 1 .6 0 1.3-.5 1.6-1 .3-.6-.1-1-.9-1-.9 0-1.6.4-1.6 1zM.2 754.8c.4 5.6 2.2 5.9 2.5.3.2-2.7-.2-4.1-1.3-4.5-1.2-.5-1.5.2-1.2 4.2zM17.6 755.5c-.3.8-.1 1.7.3 2 .5.3 1.1-.2 1.5-1 .3-.8.1-1.7-.3-2-.5-.3-1.1.2-1.5 1zM5.4 758.5c.4 2.4 1.6 3 1.6.7 0-1.2-.4-2.2-.9-2.2s-.8.7-.7 1.5zM367.4 759.3c-3.6 2.1-7.4 5.4-7.4 6.6 0 .7-1.6 1.9-3.5 2.7-3.8 1.5-4.5 3.1-1.9 4.1 3.5 1.3 13.5-5.7 15.2-10.7 1.3-3.5.5-4.3-2.4-2.7zM370.1 763.6c-1.8 4.1-2.1 5.8-1.2 6.7.8.8 1.5.7 2.7-.5 1.4-1.3 2.1-1.4 3.6-.5 1.6 1 2.2.8 3.9-1.2 2.4-2.9 2.4-4.7.2-5.5-2.1-.6-5.6-2.8-6.4-3.9-.3-.4-1.6 1.8-2.8 4.9zM76.2 763.3c-2.4 2.8.9 3.6 15.4 3.8 7.6.1 20.4-.4 28.4-1s19.2-1 25-.8c8.8.2 10.5 0 10.5-1.3 0-1.6-12.1-1.8-54.6-1.1-9.1.1-18.1 0-20.1-.4-2.4-.5-3.8-.2-4.6.8zM350.5 764c-1.9 1.3-4.7 2-7.8 2-4.6 0-9.7 2.2-9.7 4.1 0 1.2 9.9 1.2 13.6 0 1.6-.5 4.1-1.2 5.6-1.5 3.8-.9 6.2-3.4 4.7-5.2-1.5-1.9-2.8-1.8-6.4.6zM420.3 763.2c-1.9 2.4-3.4 8.1-2.4 9.1 1.7 1.7 4-.1 5.1-4.3 1.4-5.2-.2-8-2.7-4.8zM412.8 765.7c-.9 2.3-1.2 2.5-1.5 1-.3-1.2-1.2-1.7-2.6-1.5-2.8.4-2.8 2.7-.2 4.2 1.1.6 2.3 1.5 2.6 2 1.2 1.6 4.5-.4 5.6-3.5.7-1.8 1-3.6.7-4-1.1-1.8-3.5-.8-4.6 1.8zM18.2 766c0 1.4.2 1.9.5 1.2.2-.6.2-1.8 0-2.5-.3-.6-.5-.1-.5 1.3zM388 766.5c-1.4 1.7-1 4.7.7 5.2 1.5.5 4.7-4.2 3.8-5.7-.9-1.4-3.1-1.2-4.5.5zM429.2 767.2c-1.7 1.7-1.5 5.8.3 6.5 2 .7 2.2.5 3-4 .8-3.9-.7-5.1-3.3-2.5zM304.2 769.2c.3 2.1.9 2.3 6.8 2.5 8 .3 11-.3 11-2.1 0-2-2.3-2.6-10.7-2.6-7.1 0-7.4.1-7.1 2.2zM326.6 768.5c-.3.8-.1 1.5.3 1.5.5 0 1.1-.7 1.5-1.5.3-.8.1-1.5-.3-1.5-.5 0-1.1.7-1.5 1.5zM437.7 768.6c-1.4 1.4-.7 3.5 1.1 3.2.9-.2 1.7-1 1.7-1.7 0-1.6-1.8-2.5-2.8-1.5zM267.1 771.4c-2.1 2.5.2 4.2 5.9 4.4 6.3.1 7.3.7 5.7 3.3-1 1.7-.9 2.2.5 3.3 2.5 1.8 15.6 2.7 27.9 2 10.7-.7 13.7-1.7 11.9-3.9-.7-.9-4.8-1.1-15.3-.8l-14.2.5-1.5-3.4c-1.7-3.7-5.8-5.6-14.5-6.5-3.9-.4-5.4-.2-6.4 1.1zM463.5 773.6c-6 .9-7.5 1.5-7.5 2.9 0 2.4-4.7 3.6-9.9 2.8-2.5-.5-7.1-.5-10.1-.1-15 1.9-16.8 2-17.4.9-1-1.6-6.1-1.4-7.5.3-1.7 2.1 1 3.7 5.7 3.5 2.2-.2 4.7.3 5.6 1 1.1.9 3 1.1 5.9.7 2.4-.4 8.7-.7 14-.7 8.3 0 10.3-.4 14.3-2.5 5.7-3 17.4-4.7 24.1-3.5 2.6.5 5 .8 5.4.6.3-.3 3.6-.5 7.3-.6 6.2-.2 6.7-.4 6.4-2.3-.3-2-.9-2.1-10.8-2.1-5.8 0-13.2-.3-16.5-.7-3.3-.3-7.3-.4-9-.2zM330.5 777.7c-3.5.9-4.6 2.3-3.4 4.4.9 1.8 2.5 1.9 36.2 1.5 38-.4 44-.9 43.5-3.5-.3-1.4-3.9-1.6-34.3-1.7-18.7 0-35.3-.3-37-.6-1.6-.3-3.9-.4-5-.1z"/><path d="M213.2 781.6c.2 1.4 1.3 2 4.1 2.2 3.3.3 3.7.6 2.6 1.8-2.1 2.6.9 4.3 8.6 4.9 3.9.3 10.8 1 15.5 1.6 4.7.6 15 1.2 23 1.4 8 .1 16.9.5 19.8 1 4.5.7 5.2 1.1 5.2 3 0 2.3-.2 2.3-8.2 1.9-9.8-.5-17.5-1-36.1-2.4-7.6-.5-14.3-.8-14.8-.4-1.3.8-1.1 4.2.4 5.1.6.4 3.5.8 6.2.9 2.8.2 11 .7 18.4 1.3 8.1.7 25.9.8 44.5.5 29.5-.6 39.4 0 38.9 2.1-.2.6-1.5 1.4-3 1.9-3.6 1.1-4.4 2.5-3.1 4.9.5 1 .8 2 .6 2.2-.2.2-5.2.8-11.3 1.4-18 1.9-22.1 3.9-17.6 8.4 1.5 1.5 4.1 2.2 11.8 2.9 15.9 1.4 21.3 2.6 25.3 5.3 2 1.4 4 2.5 4.6 2.5.5 0 4.6 1.9 9.1 4.2 9.1 4.6 10.3 6.7 5.3 9.3-3.6 1.9-4.4 1.9-3.7.1 1.5-3.9-6-4.3-36.7-1.9l-7.9.6 2.3-3.1c1.7-2.3 2-3.4 1.2-4.4-.7-.9-.7-1.9-.2-2.8 3.8-6-1.5-8.2-20.4-8.8-22.2-.7-38.6 2.2-34.7 6.1 1.7 1.7 1.3 2.5-1.6 3.1-2.7.6-20.2 2-36.3 3.1-35.1 2.3-45.9 2.8-55.1 2.6-11.3-.1-14.8 1-13.6 4.4.6 1.5 1.9 1.7 11.5 1.2 14.7-.7 40.9-2.5 71.2-4.9 14-1.1 26.9-2 28.5-2 17.1 0 23.8 1.4 22.9 4.9-1 3.5 2.2 4.7 13.2 5.1 5.7.3 11.2.1 12.1-.2 1-.4 8.6-.9 16.9-1.2l15.2-.4.4 2.5c.3 1.4.2 2.7-.1 2.9-.4.3-5.1.7-10.6 1.1-5.5.4-14 1.8-19 3.1-5.8 1.5-11.7 2.4-16.7 2.4-4.2 0-11.1.5-15.3 1.1-8.5 1.3-12.4.4-14-3.4-.8-1.8-2-2.3-6.6-2.7-3.1-.3-6.3-1.1-7.1-1.7-2.2-1.9-18.5-2.7-23.8-1.3-2.5.7-8.3 1.2-13 1.2-12.3-.2-14.6 1.1-10 5.3 2 1.8 2.7 1.8 12.3.5 27.2-3.5 30.6-3.2 41.2 4.1 2.7 1.8 4 2 12 1.4 5-.3 14.9-.8 22-1.1 8.3-.4 15.7-1.3 20.5-2.6 4.8-1.3 12-2.2 20-2.5 13.8-.6 16.1-1.3 15.7-4.6-.2-1.8.4-2.3 2.8-2.5 1.7-.2 2.7 0 2.2.4-.9.9 2.2 4.4 4 4.4.7 0 1.3.7 1.3 1.5s.5 1.5 1 1.5c.6 0 1-.4 1-.9s5.2-.8 11.6-.8c10.2.2 11.7.4 13 2.2.8 1 1.3 2.4 1.1 3-.6 1.7-4.6 1.7-6.3.1-2-2-4.3-2-5-.1-.4.8-1.5 1.5-2.6 1.5-1 0-1.7-.4-1.3-.9.3-.5 0-1.3-.6-1.7-.8-.5-.9-.3-.4.6.6 1-.1 1.2-3.6.6-2.4-.4-4.5-1.1-4.7-1.6-.2-.5-1.4-.5-2.8.1-1.4.5-3.7.8-5.2.8-1.8-.1-2.1-.3-.9-.6 1.4-.4 1.5-.8.7-1.8-.9-1.1-1.6-.9-3.5 1.1-1.5 1.5-3.6 2.4-5.4 2.4-1.6 0-3.7.3-4.7.7-1.1.4-1.5.3-1-.5.4-.6-.5-.5-2.1.3-1.9.9-8.8 1.6-20.8 2-9.9.3-22.5 1.1-28 1.8-13.5 1.6-30 1.4-41.5-.5-11.6-2-60.5-2.5-62.7-.7-3.7 3.2-1.4 3.5 25.2 3.1 23.7-.4 28.3-.2 42.6 1.8 14.3 2.1 16.9 2.2 23.7 1.1 4.3-.7 17.6-1.6 29.7-2.2 12.1-.5 28.8-1.8 37-3 12.7-1.7 16.1-1.9 22-.9 15.3 2.4 21.8 2.7 26 .9 2.2-.9 6.6-2 9.7-2.4 6.1-.7 7.2-1.5 7.2-5.5.1-2.4.4-2.5 7-2.8 10.6-.5 19.5 1.2 22.3 4.2 3.2 3.5 11.7 4.2 43.6 3.8 12-.2 12.7-.3 12.7-2.2 0-2.2-.5-2.2-25.5-2.1-6 0-14.1-.4-18-1-6.1-1-7.3-1.5-9.4-4.2-2.1-2.8-3-3.2-7.5-3.3-9.6-.2-15.1-.8-15.8-1.9-.5-.6-.8-.5-.8.2s-.5 1.3-1.1 1.3c-.5 0-.7-.6-.3-1.3.6-.9.5-.9-.7 0-.8.7-3.5 1.5-5.9 1.9-6 .9-9 2.9-9 5.9 0 3.6-4.3 3.4-8-.4-2.2-2.1-4.4-3.1-8.7-3.8l-5.8-.9 8-.8c4.4-.5 8.4-1.1 8.9-1.4.6-.3 3.1-.5 5.6-.3 5.3.3 10-1.3 10-3.3 0-1.8-2.2-2.6-7.6-2.6-4.3 0-4.4-.1-4.2-3.1.4-4.6-4-6.5-18.7-7.9-6.6-.7-12.9-1.7-14-2.2-1.7-1-1.3-1.4 3.8-3.6 6-2.6 6.8-3.9 4-6.5-1.6-1.4-4.1-1.4-24.8-.1-21.4 1.3-41.5 1-41.5-.6 0-.3 6.1-1.4 13.6-2.3 15.7-2 17.7-2.7 17.2-6.5-.3-2.3.1-2.8 2.6-3.2 1.6-.3 3.5-1.4 4.2-2.6 1.3-1.8 1.1-2.3-1.4-4.7-2.3-2.2-4.1-2.9-9.5-3.4-10.9-1-6.5-2.3 7.6-2.2 15.8.1 19.7 1 11.9 2.8-6.1 1.5-7 2.5-4.6 5.2 1.4 1.5 3.2 1.9 8.8 2 3.9.1 6.3.3 5.4.6-2.7.7-2.3 5 .5 5.9 1.2.4 7.5.7 14 .7 8.3-.1 11.7.2 11.7 1s.3.8.8-.1c1.2-1.7 20.3-1.8 23.4 0 1.3.7 2.9 1.1 3.6 1 2.2-.5 1.3.7-1.8 2.3-3.9 2-5.7 1.9-6.3-.5-.5-2.1-2.7-2.8-2.7-.9 0 .5.5.7 1 .4.6-.3 1 .2 1 1.3 0 1.6-.9 1.9-5.7 2.1-3.2.1-8.6 1.1-12.1 2.2-10.2 3.4-9.5 6.8 1.9 8.7 3.7.7 9.2 1.2 12.3 1.2 5.4 0 5.6.1 4.1 1.7-1.6 1.6-1.6 1.8.3 3.4 2.7 2.2 11.5 3.1 29.7 3H459v5c0 9.9 6.1 15.3 6.8 6 .2-2.4-.1-4.8-.6-5.3s-.8-1.8-.5-2.8c.4-1.6 1.7-1.7 17.9-1.3 17 .4 17.4.4 17.4-1.7s-.5-2.3-9.4-2.5c-3.4-.1-5.1-.6-5.4-1.6-.3-1.1-.1-1.1.6-.1.6.9 1.2.6 2-1.3.9-1.9.9-2.4.1-1.9-.7.4-1 .1-.7-.7.2-.8 1.8-1.5 3.4-1.7 8.7-.9 11.2-5.1 4.7-7.9-4.1-1.6-5.5-3.1-4.6-4.6.3-.5 0-.7-.8-.5-.8.3-1.3 1-1.2 1.6.2.6-.4.9-1.3.5-.8-.3-1.3-1.2-1-2 .3-.8.2-1.1-.3-.8-.5.3-1.3 0-1.7-.6-.5-.8.4-1 2.8-.7l3.4.4-.3-4.2c-.2-2.3.1-4.5.6-4.9 2-1.2 1.2-2.6-.8-1.5-1.2.6-1.8 1.8-1.6 3 .3 1.5-.1 2-1.8 1.9-1.2 0-1.6-.3-.9-.6 1.5-.6 1.6-2.3.1-2.3-.6 0-1.7.7-2.5 1.5-2 2-3.4 1.9-3.4-.1 0-1.1.5-1.4 1.6-1 1.1.4 1.5.2 1.1-.8-.4-.9.8-1.9 3.5-2.9 3.2-1.3 3.9-2 3.5-3.6-.4-1.7-.1-1.8 1.7-1.2 1.1.5 3.6.6 5.4.4 3-.5 3.2-.7 3.2-4.8 0-6.8-.2-7-7.9-6.8-8.1.1-9.3.6-8.6 3.6.4 1.5 0 2.6-1.4 3.4-1.6 1-2 .9-2.4-.9-.6-2-1.1-2.1-8.6-1.5-4.5.3-8.1.1-8.1-.3 0-.5-1.2-1.3-2.7-1.8-2.3-.9-1.2-1.1 5.7-1.1 9.2-.1 10.6-.6 11.1-3.5.5-2.4 3-2.8 9.1-1.5 3 .7 5.3.7 6.4.1 1-.6 2.9-.6 4.6-.2 2.6.8 2.8.7 2.8-2s-.3-2.9-4.7-3.2c-2.7-.2-8.6 0-13.2.3-7.5.5-8.6.8-10.5 3.1-2 2.4-2.8 2.6-13.1 3.1-13.7.7-17.6 1.5-18.2 3.7-.4 1.5-2.3 1.8-12.6 2.3-6.7.3-19.1.6-27.5.6-13.8-.1-15.2-.2-13.3-1.5 2.7-1.9 2.7-4 0-5.4-2.4-1.4-15-.8-22.9 1-3.8.8-8.7 1-15.5.5-5.5-.4-13.2-.9-17.1-1-3.8-.2-8.9-.8-11.1-1.4-4.9-1.3-8.8-.2-9.8 2.9-.6 2-1.1 2.1-13.3 1.4-7-.3-20.1-.8-29.2-.9-9.1-.1-18.5-.8-21-1.4-2.5-.6-6.2-1.1-8.2-1.1-3.1 0-3.8-.4-3.8-2 0-3-3.5-4.2-13.3-4.8-8.3-.5-8.9-.4-8.5 1.4zm126.3 10.3c3 .5 1.1.9-7.9 1.4-6.6.3-12.2.4-12.4.2-.3-.2 0-1.1.7-1.8 1.1-1.5 10.4-1.3 19.6.2zm37.5-.3c0 .4-.8 1.3-1.7 2-1.4 1-1.6 1.7-.7 3.1 1 1.7 2.9 1.8 27 1.5 14.2-.2 28.6-.4 31.9-.5 9.2-.1 18.6.6 19.1 1.5.3.4 1.8.5 3.4.1 3.4-.6 3.9.7 1.3 2.8-1.7 1.3-1.7 1.2-.3-.6 1.2-1.7 1.2-1.8 0-.7-.8.7-1.5 2-1.5 2.9 0 2.7-5.9 3.5-8.4 1.2-3.3-3.1-5.9-2.4-6.7 1.5-.4 2.4-1 3.3-2 2.9-1.3-.5-1.3 1.3.1 5.8.5 1.5.3 1.8-1.2 1.3s-1.4-.2.4 1.4c2.2 1.9 2.2 2 .3 2.5-1.3.3-2 0-2-1 0-.8-.4-1.1-1-.8-.5.3-1-.3-1-1.4 0-1.1-.7-2.6-1.5-3.5-.8-.8-1.5-2.2-1.5-3 0-.9-.5-1.6-1.1-1.6-.5 0-.8.4-.5.8.3.5-1.1.9-3 1-3 .1-3.5-.1-3-1.6.5-1.4.3-1.3-.9.2-1.3 1.7-1.5 1.8-1.5.3 0-.9-.7-1.7-1.5-1.7s-1.4.6-1.3 1.2c.2.8-.8 1.3-2.4 1.4-1.6.1-2.8-.3-2.8-.7 0-1.2-4.3-.6-5.2.6-.5.6-.8.3-.8-.7 0-.9.6-1.8 1.3-2.1.6-.2.9-.8.5-1.2-.9-.9-4 1.4-3.3 2.5.6.9-4.2.7-5.1-.3-.4-.4 0-.7.9-.7 1 0 1.7-.8 1.7-2 0-1.1-.4-2-1-2-1.4 0-3.2 3.9-2.6 5.6.4 1.2.2 1.2-1.4.4-1.2-.7-2-.7-2-.1 0 .5-4.3 1.1-9.5 1.3-5.2.2-9.5 0-9.5-.5 0-.4.5-.7 1-.7.6 0 1-.9 1-1.9 0-2-1-2.6-7.2-3.6l-3.6-.7 1.6-2.8c2.3-3.9.6-5.5-7.6-7.1l-6.7-1.4 5-.5c8.5-.9 16.5-1.1 16.5-.4zm109 9.9c-1.1 2.1-2.7 4-3.5 4.1-1.9.3-1.9.1.7-5.7 1.8-3.9 2.5-4.6 3.5-3.6 1.1 1 .9 2-.7 5.2zm11.3-5.8c-.7.2-1.9.2-2.5 0-.7-.3-.2-.5 1.2-.5s1.9.2 1.3.5zM332 799c0 .5-.5 1-1.1 1-.5 0-.7-.5-.4-1 .3-.6.8-1 1.1-1 .2 0 .4.4.4 1zm150 .8c0 1.4-2.4 3.9-4.5 4.6-1.9.6-1.9.5-.2-.8.9-.7 1.7-2.1 1.7-3 0-.9.7-1.6 1.5-1.6s1.5.4 1.5.8zm-11.5 5.2c.3.5.1 1-.4 1-.6 0-1.1-.5-1.1-1 0-.6.2-1 .4-1 .3 0 .8.4 1.1 1zm-39.2 19c-1 1.1-2.3 2-3.1 2-1 0-1-.5-.2-2 .6-1.1 2-2 3-2 1.9 0 1.9.1.3 2zm-7.7 3.9c-.9 1.4-20.2 1.5-21.1.1-.4-.6 2.6-1 8.2-1 4.8 0 9.5-.5 10.3-1 1.7-1.1 3.6.3 2.6 1.9zm-52.6-.7c-12.7 3.6-13.9 5.5-5.8 9.2 3.9 1.7 8.7 2.7 18.6 3.6 17.6 1.7 18 2.7 2 4.4-2.1.3-4.2.7-4.8 1.1-1.6 1-1.2 3.3 1 4.8 1.8 1.3 1 1.5-7.7 2-5.3.4-9.8.5-10 .3-.2-.2 1.2-1.3 3.2-2.5 3-1.7 3.6-2.6 3.3-4.9-.3-2.3-1.7-3.4-10.9-8.2-13.3-6.9-14.5-7.7-13.7-8.5.6-.6 18-2.1 25.3-2.3 3 0 3 0-.5 1zm62.1 2.2c1-1.6 1.9-2.2 2.3-1.5.4.6.2 1.1-.4 1.1-.7 0-.9.7-.6 1.5.4 1.1-.3 1.9-2.1 2.6-2.2.8-2.4 1.2-1.3 1.9.9.6 1.6.6 1.8 0 .2-.6.8-.8 1.3-.4 1.4.8.1 2.4-2 2.4-1 0-2.6-1.6-3.7-3.8-2.6-4.8-2-7.4.9-3.8l2.1 2.6 1.7-2.6zm36.6-1.8c-.3.3-1.2.4-1.9.1-.8-.3-.5-.6.6-.6 1.1-.1 1.7.2 1.3.5zM438 831c0 .5-.2 1-.4 1-.3 0-.8-.5-1.1-1-.3-.6-.1-1 .4-1 .6 0 1.1.4 1.1 1zm43.9 3.1c-1.1.7-1 .9.4.9 1 0 1.7.8 1.7 2 0 1.1-.5 2-1.1 2-.5 0-.7-.5-.3-1.2.5-.7.3-.8-.6-.3-.7.4-1.6.2-2.2-.6-.8-1.1-.8-1-.4.4.5 1.5.1 1.8-1.7 1.5-1.3-.2-2.1-.9-1.8-1.8.2-.8.5-2.2.6-3 .2-.8.4-1.5.4-1.6.1 0 1.5.2 3.2.4 2.2.3 2.7.7 1.8 1.3zm-22.9 1.5c0 .8-1 1.4-2.5 1.4-2.5 0-3.3-1.4-1.5-2.5.6-.3 1-.1 1 .5s.5.8 1 .5c.6-.4.7-1.1.4-1.7-.4-.7-.2-.8.4-.4.7.4 1.2 1.4 1.2 2.2zm8.6-1.1c-.8.8-1.7 1.5-2 1.5-.3 0-.6-.7-.6-1.5 0-.9.9-1.5 2.1-1.5 1.8 0 1.9.2.5 1.5zm7.1-.9c-.3.3-1.2.4-1.9.1-.8-.3-.5-.6.6-.6 1.1-.1 1.7.2 1.3.5zM307.8 835c1.7 0 2.2.6 2.2 2.5s-.6 2.5-2.2 2.7c-4.8.3-11.4-.4-12.7-1.5-.7-.7-3-1.2-4.9-1.2-2-.1-3.7-.6-3.9-1.2-.2-.6.4-1 1.3-.9 1 .2 3.1-.1 4.8-.5 1.7-.5 5.4-.6 8.1-.4 2.8.3 6 .5 7.3.5zm141.2 1.2c0 1.2-.3 1.8-.7 1.4-1.1-1-1.2-3.6-.2-3.6.5 0 .9 1 .9 2.2zm-165 .4c0 1.2-.6 1.5-2.2 1-1.3-.3-3.4-.6-4.8-.7-2.3 0-2.3-.1-.5-.9 3.5-1.5 7.5-1.2 7.5.6zm99 19.4c0 .5-.7 1-1.5 1s-1.5-.5-1.5-1c0-.6.7-1 1.5-1s1.5.4 1.5 1z"/><path d="M415.3 806.5c-.9 2.5.4 2.9 1.7.6.7-1.5.7-2.1 0-2.1-.6 0-1.3.7-1.7 1.5zM409.6 807.6c-.4 1-.1 1.4.6 1.2 1.5-.5 2.3-2.8 1-2.8-.5 0-1.3.7-1.6 1.6zM434.5 810c-.3.5-.1 1 .4 1 .6 0 1.1-.5 1.1-1 0-.6-.2-1-.4-1-.3 0-.8.4-1.1 1zM94.5 787c-.3.5-.1 1 .4 1 .6 0 1.1-.5 1.1-1 0-.6-.2-1-.4-1-.3 0-.8.4-1.1 1zM175.3 795.7c-2 .3-3.3 1-3.3 1.9 0 1 1.4 1.4 5.3 1.4 2.8 0 14.9.3 26.8.6 14.4.4 21.9.3 22.3-.4.3-.6.2-1.3-.4-1.7-1.6-1-44.4-2.5-50.7-1.8zM91 796.8c-.8.3-2.1 1.1-2.8 1.9-1.1 1.1-1 1.3.7 1 2.2-.3 4.8-2.4 4-3-.2-.3-1.1-.2-1.9.1zM109 798.9c0 .6.5 1.3 1 1.6.6.3 1-.1 1-.9 0-.9-.4-1.6-1-1.6-.5 0-1 .4-1 .9zM491 803.5c0 .8.9 1.5 2 1.5s2-.2 2-.5c0-.2-.9-.9-2-1.5-1.6-.9-2-.8-2 .5zM495 802.4c0 .2.8 1 1.8 1.7 1.5 1.3 1.6 1.2.3-.4s-2.1-2.1-2.1-1.3zM113.4 805.1c-.9 1.5.7 3 2.5 2.4 1.1-.3 2.4.2 3.2 1.1 1.3 1.6 1.1 1.6-2.1.9-5.6-1.3-21.1-1-25.5.4-4.3 1.5-24.6 2.1-23.8.8.6-1-7.9.3-9.1 1.4-.5.4-.6 1.4-.3 2.2.8 2.2 25.7 2.3 33.4.1 3.2-.9 6.2-2 6.7-2.5 1.2-1.1 7.6-1.2 7.5-.2-.5 3.1.4 3.2 38.1 3.1 20.9 0 40.9.3 44.4.7 4.1.5 6.6.3 7-.4 1.3-2-3.9-4-11.9-4.6-6.9-.4-37.9-.8-40.2-.4-.4.1-4.8 0-9.8-.1-6.6-.2-8.1-.4-5.5-1 3.5-.7 98.9-.4 108.5.3 2.8.2 6.7.9 8.7 1.6 4.2 1.4 5.8.9 5.8-1.9 0-3.6-3.7-4.5-18-4.3-7.5.1-15.5.6-17.8 1.2-2.7.6-6.9.6-11.5-.1-9.4-1.2-89.5-1.9-90.3-.7zM495 807c0 .5.5 1 1 1 .6 0 1-.5 1-1 0-.6-.4-1-1-1-.5 0-1 .4-1 1zM492.6 811.1c-1.7 1.7-1.8 1.9-.2 2.5 2.1.8 2.9.1 2.4-2.4-.3-1.8-.4-1.8-2.2-.1zM498.3 812c.3 3.9 1.6 3.9 1.5 0-.1-1.7-.5-3-.9-3-.5 0-.7 1.3-.6 3z"/><path d="M222.6 810.9c-.4.6-.2 2 .5 3.2 1.1 2.1 1 2.1-3.2 1.6-10.3-1.5-16.8-1.9-17.9-1.2-2.1 1.3.8 3.2 5.9 3.9 2.9.4 5.1 1.2 5.5 2.1.3.8 1.1 1.5 1.7 1.5.8 0 .8-.4.1-1.3-.8-1 .1-1.2 4.5-1.2 3.3.1 6.1-.4 6.9-1.2.7-.7 3.2-1.3 5.5-1.3 3.8 0 4.1.2 2.9 1.4-2.8 2.7-13.1 4.4-26.5 4.4-35.5.1-41.3.3-42.5 1.8-1.9 2.2-.5 4.1 4.2 5.7l4.3 1.5h-9.2c-6.8 0-9.1-.3-8.6-1.1.5-.9.3-.9-.8-.1-1.5 1.3-10.7 1.4-12.5.2-.6-.4-2.5-.4-4.1.1-1.7.5-5.1.8-7.7.7-2.5-.1-4.6.2-4.6.6 0 .4-.5.8-1.1.8-.5 0-.8-.4-.4-.9 1-1.6-1.7-2.5-2.9-.9-1.3 1.8-15.8 1.8-16.3.1-.3-.7-1.4-.8-3.3-.3-1.6.4-3.1.6-3.4.2-.3-.3-.6 0-.6.6 0 1.8-2.8 1.4-3.9-.5-.9-1.6-1-1.6-1.1.4 0 1.2.8 2.7 1.8 3.2 1.5.9 1.3 1-.9 1.1-1.6 0-3.3-.9-4.3-2.3-.9-1.2-1.4-1.7-1.1-1 .3.7-.3 1.7-1.4 2.2-2.8 1.5-3.1 1.4-3.2-1.2-.1-1.6-.2-1.8-.6-.5-.5 2-3.3 2.4-4.9.8-1.5-1.5-1.6 4-.2 5.9.7.9.8 1.3.4.9-.5-.5-1.6.2-2.4 1.4-1.4 1.9-1.3 2.2.1 3.3 2.5 1.8 10.6 1.9 11.3 0 .4-.8.1-2.1-.5-2.9-.9-1.1.3-1.3 6.4-1.4 4.1 0 8-.4 8.7-.9.7-.4 3.3-.9 5.8-1 2.5-.1 11-.6 19-1.1 8-.5 14.9-.5 15.4 0 .6.5.5.8-.2.8s-1.2.5-1.2 1.1c0 .5.5.7 1.1.3.7-.4 2.6-.7 4.3-.6 1.7 0 3.4-.4 3.8-1.1.5-.8 5.4-1.2 15.3-1.3 8.5 0 15-.5 15.6-1.1.6-.6 1.1-2.6 1.2-4.4l.2-3.4H204c14.8 0 21.6-.4 24.5-1.4 2.2-.7 5.5-1.9 7.4-2.5 1.9-.6 4.3-2.3 5.4-3.8 4-5.4-.5-9-13.2-10.5-3-.3-5.1-.1-5.5.6zM493 816.5c-1 1.2-1 1.8-.2 2.6.7.5 1 .6.7.3-.2-.4 0-1.5.6-2.5 1.2-2.3.6-2.5-1.1-.4zM498 821c0 .5.5 1 1.1 1 .5 0 .7-.5.4-1-.3-.6-.8-1-1.1-1-.2 0-.4.4-.4 1zM51 831.5c0 .8.4 1.5 1 1.5.5 0 .7-.7.4-1.5-.4-.8-.8-1.5-1-1.5-.2 0-.4.7-.4 1.5zM19.5 831.9c-.3.5-.1 1.2.5 1.6.5.3 1-.1 1-.9 0-1.8-.6-2.1-1.5-.7zM72 832c-.8.5-1.1 1.2-.7 1.6.4.4 1.3.2 1.9-.4 1.5-1.5.7-2.4-1.2-1.2zM65.2 833.1c.2.7 1 1.5 1.7 1.7.8.3 1.2-.1.9-.9-.2-.7-1-1.5-1.7-1.7-.8-.3-1.2.1-.9.9z"/><path d="M92 832.9c0 .6.4 1.3 1 1.6.6.3.7-.1.4-.9-.7-1.8-1.4-2.1-1.4-.7zM15 834.5c0 1.6 1.6 2 2.4.6.3-.5-.1-1.1-.9-1.5-.9-.3-1.5 0-1.5.9zM229 834.6c-7.4.7-16.7 1.3-20.6 1.3-5.3.1-7.3.5-7.7 1.5-1.1 2.9 2 3.9 10 3.3 42.9-3.3 46.7-3.8 47.1-6 .3-1.5-.5-1.7-7.5-1.6-4.3.1-13.9.7-21.3 1.5zM73.6 836.8c-.4.7-.5 1.6-.1 2.1.3.5-.3 1.1-1.2 1.3-1.5.3-1.4.5.5 1 1.2.3 2 .2 1.7-.2-.3-.5-.1-1 .4-1.2.4-.1.5-1.2.1-2.2-.4-1.4-.9-1.6-1.4-.8zM12 838.7c0 .5.9 1.9 2 3.3 1.9 2.4 1.9 2.4 1.3.2-.3-1.2-1-2.2-1.7-2.2-.6 0-.4-.5.4-1 1.3-.8 1.2-1-.2-1-1 0-1.8.3-1.8.7zM20 839.6c0 .8.5 1.2 1 .9.6-.3 1-1 1-1.6 0-.5-.4-.9-1-.9-.5 0-1 .7-1 1.6zM9.6 842.3c.3 1 .9 1.5 1.2 1.2.3-.3 0-1.1-.7-1.8-1-.9-1.1-.8-.5.6zM102.2 844.5c-1.8 1.3-2.1 2-1.1 3.1.6.8 1.9 1.2 2.8 1 4.1-1.2 18.8-1.5 30.6-.7 14 .9 18.1.3 15.3-2.5-1.2-1.2-6.1-1.6-23.4-2-19.4-.5-22.2-.4-24.2 1.1zM65.7 847.7c-1.8 1.7-.5 3.3 2.7 3.3 1.9 0 4.7.5 6.3 1.2 1.6.6 8.2 1.2 15.3 1.2 14.3.1 38.6 3 44.5 5.3 3.8 1.5 19.8 2.5 23.8 1.5 1-.3 1.7-1.2 1.5-2.1-.3-1.6-4.4-2.3-21.3-3.4-7.7-.6-24.3-2.5-31-3.7-3.3-.6-11-1-17-.9-8.5.1-11.8-.2-14.2-1.5-3.2-1.6-9.4-2.2-10.6-.9zM3 849.6c0 .8.5 1.2 1 .9.6-.3 1-1 1-1.6 0-.5-.4-.9-1-.9-.5 0-1 .7-1 1.6zM92 856c0 .5.5 1 1.1 1 .5 0 .7-.5.4-1-.3-.6-.8-1-1.1-1-.2 0-.4.4-.4 1z"/><path d="M196 856.5c-11.7 1.7-22.6 4.1-28 6.2-3.7 1.4-8.1 1.7-24.2 1.8-10.9 0-19.8.3-19.8.6 0 .9-16.4.1-16.7-.8-.4-1-14.5-.5-15.6.6-1.3 1.3.3 4.1 2.7 4.5 1.8.4 20.1 1.8 24.6 1.9 2.5 0 30-1.3 37.7-1.9 7.5-.5 10.5-1.2 16.5-3.8 2.1-.9 5.2-1.6 7-1.6 1.8 0 5.4-.7 8-1.4 2.6-.8 7.8-1.8 11.6-2.2 8.5-.8 10.5-1.8 7.8-3.9-1.1-.8-2.2-1.4-2.5-1.4-.3.1-4.4.7-9.1 1.4zM113.3 858.7c.4.3.2 1.2-.4 2-.6.7-.7 1.3-.3 1.3.5 0 1.5-.9 2.2-2 1-1.7 1-2-.5-2-.9 0-1.3.3-1 .7zM121.5 858.9c-1.1.5-2.6.6-3.2.4-.7-.3-1.3-.1-1.3.5 0 .5 1.6 1 3.5 1 2.3 0 3.5-.5 3.5-1.4 0-.8-.1-1.4-.2-1.3-.2 0-1.2.4-2.3.8zM.1 868.3c-.1 9.4 0 9.7 1.8 8.7 1.1-.5 4.1-1 6.8-1 5.3-.1 17.3-4.6 18.1-6.9.5-1.4-.8-1.4-9.2.5-2.7.7-2.9.6-2.2-2 .7-2.8.7-2.8-4.1-2.4-2.6.1-5.1.7-5.4 1.2-.4.5-1.5.5-2.5.1-1.3-.5-1.5-.9-.7-1.2.7-.3 1.3-.9 1.3-1.4 0-.6-.4-.8-.9-.5-.5.4-1.4-.6-1.9-2.1-.7-2.2-1-.6-1.1 7zM12 870c0 1.4-4.1 2.9-6 2.2-1-.4-.5-1 1.5-1.8 3.7-1.6 4.5-1.7 4.5-.4zM91.1 861.2c-.1 1.3.7 1.8 2.4 1.8 1.6 0 2.5-.6 2.5-1.5 0-1.2-.4-1.3-1.9-.5-1.4.7-2.1.6-2.4-.3-.3-.7-.6-.5-.6.5zM39 863.5c-1.6 1.9-1 2.6 1.7 1.9 1.3-.4 2-1.1 1.6-2-.7-1.8-1.7-1.8-3.3.1z"/><path d="M34 867.5c-.5 1.4-2.6 3.5-4.5 4.6-6.1 3.6-3.4 4.4 9 2.5.5 0 .9.6 1 1.4 0 1.1 1.3 1.6 4.6 1.8 3.7.2 4.8-.1 5.3-1.5.3-1 .8-2.3 1.1-2.9.3-.6-.2-1.5-1.2-1.8-.9-.4-1.4-.4-1 0 .4.4.2 1.3-.4 2.1-.6.7-.8 1.3-.3 1.3 1.1 0-1.8 2-2.8 2-.5 0-.8-.7-.8-1.6 0-.8-.4-1.3-.8-1-.4.2-1.3.2-1.9-.2-.8-.5-.8-1.7.2-4.5 1.4-4.1.5-4.7-2.5-1.7-2.5 2.5-2.6 2.5-3.3 0-.3-1 0-2.1.7-2.4.7-.3.7-.5-.2-.5-.7-.1-1.7 1-2.2 2.4zM67 866.5c-1.6 2-.4 3.5 2.8 3.5 1.5 0 5.3.6 8.4 1.4 6 1.4 7.8.8 7.8-2.6 0-1.4-.8-1.8-3.9-1.8-2.2 0-4.3-.5-4.6-1-1-1.6-9.1-1.2-10.5.5z"/><path d="M42 871c0 .5.5 1 1.1 1 .5 0 .7-.5.4-1-.3-.6-.8-1-1.1-1-.2 0-.4.4-.4 1zM53.2 871.2c-1.6 1.6.3 3.8 3.4 3.8 1.7 0 2.4-.6 2.4-1.9 0-2.8-3.7-4-5.8-1.9zM83.4 875.1c-.3.6-.2 1.5.3 2s.9.1.9-1.1c0-2.3-.2-2.4-1.2-.9zM95.6 875.5c.4.8 1 1.2 1.5.9 1.4-.8 1-2.4-.6-2.4-.9 0-1.2.6-.9 1.5zM80 877c-.9.6-1 1-.3 1 .6 0 1.5-.5 1.8-1 .8-1.2.4-1.2-1.5 0zM51.8 877.7c.7.3 1.6.2 1.9-.1.4-.3-.2-.6-1.3-.5-1.1 0-1.4.3-.6.6z"/></svg>