<svg version="1" xmlns="http://www.w3.org/2000/svg" width="666.667" height="1170.667" viewBox="0 0 500 878"><path d="M0 115.8v115.7h4.1c8 0 10.8 8.1 4.5 12.9-3.8 2.9-5.6 3.2-7.4 1.4-.9-.9-1.2 8.1-1.2 40.6v41.8l2.6-1.6c2.4-1.6 2.7-1.6 5.7.1 7.6 4.5 2.2 17.2-6.3 15-2-.5-2 .1-2 46v46.6l3.7-.6c4.2-.7 7.3 1.3 7.3 4.7 0 2.7 1.7 5.3 2.7 4.3.4-.5.8-1.6.8-2.5 0-1.9 2.2-2.4 19.5-4.6 14.7-1.9 21.6-2.3 22.6-1.3.8.8.7 14.5-.2 15.8-.3.5-6.5.9-13.7.8-12.9-.1-20.4-1-25.9-3.1-3.1-1.2-6.8-.3-6.8 1.7 0 2.1-3.7 3.7-7.1 3l-2.9-.7v160.7h4.4c2.4 0 4.7-.3 5.1-.7.8-.8 2.9-.1 7 2.4l3 1.9-4.4-.7c-3.8-.6-4.3-.5-3.9 1.2.4 2.1 6.3 3.7 11.5 3.2 1.7-.2 3.1.1 3 .6-.1.6.7 1.1 1.8 1.1 2.7.2 9 3.3 14.7 7.2 2.5 1.8 5.8 3.7 7.2 4.3 2.7 1 3.6 3 1.4 3-.7 0-2.2-.7-3.2-1.5-2.3-1.7-5.2-1.9-6.1-.5-.4.6.7 1.5 2.4 2.1 1.7.6 3.1 1.4 3.1 1.9 0 .4.9 1 2 1.3 1.1.3 2 1 2 1.6 0 .6-1.4.4-3.5-.6-2.7-1.3-3.8-1.4-4.7-.5-.8.8-.8 1.5 0 2.4.6.8.7 2.9.2 5.6-.4 2.3-.4 4.5 0 4.7.5.3.7 1.3.5 2.3-.2.9-.4 2-.4 2.5-.1.4-1.2.5-2.5.1-3.3-.8-4.1 1.1-1.7 4.2 2.4 3 1.9 4.9-.9 3.4-1.3-.7-2.1-.6-3 .5-.7.8-2 1.5-2.9 1.5-.9 0-2.2.5-2.9 1.2-.9.9-1.6.8-3-.5-1-.9-2.2-1.4-2.5-1-.4.3-.7.1-.7-.6 0-.8-.6-.9-1.7-.3-1 .5-3.2 1.2-5 1.5-2.8.6-3.4.2-5.3-2.7-1.6-2.7-7.8-6.6-10.4-6.6-.2 0-.4 5.8-.5 12.8l-.2 12.8 2.8-.1c1.5 0 3.1-.4 3.4-.8.3-.4 2.5-.1 4.9.7 2.4.8 4.7 1.3 5.2 1 .4-.3.8-.1.8.5s1.2.8 3 .5c1.9-.4 3-.2 3 .5s-1.6.9-4.2.6C2.5 684.9 0 684.8 0 685.8c0 .7 1.1 1.4 2.5 1.8 1.4.3 2.5 1.3 2.5 2.3 0 1.2.2 1.3.9.3 1.3-2 11.3-.5 10.8 1.7-.2.9.3 2.8 1 4.3C19 698.9 19 699 16 699c-2.8 0-3 .3-3.1 3.7 0 3.6-.1 3.6-1 1.3-.6-1.4-.8-4.2-.6-6.3.2-2 .2-3.7-.2-3.7-1.6.1-3.3 1.9-4.1 4.6-.9 2.7-.9 2.7-.7-1.1.1-3-.2-4.1-1.5-4.3C2.3 692.7 0 698 0 704c0 5.2 1 7 4.5 8.4 1.5.5 1.6.9.6 1.5-.7.5-1.2 1.1-1.2 1.5.1.3.1.7 0 .8-.7 2.3-.1 6.8.9 6.8.6 0 1.2.9 1.2 1.9 0 1.1.6 2.2 1.3 2.4.6.3-.7.6-3 .6L0 728v8.5l6-.1c5.8 0 8.3.6 8.1 2-.1.3-.1.7 0 .8.1.2.3 2 .5 4.2.5 6.4 2.6 6.4 2.8-.1.1-2 .7-3.8 1.4-4.1.7-.2 1-.8.6-1.3-.3-.5.2-.9 1.1-.9 2.6 0 3 2.9.6 5.1-2.2 2-2.5 3.6-1.5 6.3 1 2.6 2.5 1.8 1.8-.9-.4-1.8-.2-2.5.8-2.5 1.7 0 1.7 2.4-.1 6.8-1.3 3.1-3.9 4.7-2.7 1.7.5-1.4.3-1.4-1.5-.1-1.2.8-2.8 1.2-3.5.9-.8-.3-1.4 0-1.4.7 0 .8-1.8 1-6.5.5l-6.5-.7V776h3.9c2.2 0 4.3.4 4.6 1 .3.5 1.6 1 2.8 1 1.8 0 1.9.2.7 1-.8.5-2.5 1-3.7 1-1.2 0-3.1 1.2-4.2 2.6-1.8 2.3-2.1 2.4-2.1.8 0-1.1-.5-2.6-1-3.4-.7-1-.9.9-.8 6.5l.3 8 5 .2c7.7.3 12.5 2.2 12.5 4.9 0 3.3-1 5.4-2.6 5.4-1.4 0-1.8-1.2-1.4-4 .1-1.2-.1-1.3-1.1-.3-.7.7-2.3 1.3-3.5 1.3-2.9 0-3.8 1.4-2.3 3.8.8 1.3 2 1.7 4.1 1.4 2.4-.4 2.9-.1 2.6 1.4-.4 2.5-2.9 5.4-4.1 4.7-1.3-.8-5.7-11-5.7-13.3 0-1.1-.9-2.4-1.9-3-1.9-.9-1.9-.4-2 17.9-.1 18.4-.1 19 2 19.6 1.1.4 2.3.4 2.6.1 1.3-1.2 4.3 1.6 4.3 4.1 0 2.1.2 2.3 1.5 1.3 1.1-.9 1.2-1.7.5-3.1-.9-1.5-.6-2 1.2-2.4 3-.7 7.1-.1 7.5 1.2.4 1.1-2.6 1.1-4.5-.1-.7-.4-1.6-.5-1.9-.2-.4.3-.1.6.5.6.7 0 1.2.9 1.2 2.1 0 1.6.4 1.9 1.7 1.3 1-.4 2.8-.7 4.1-.7 2.5.1 2.8-.7 1-2.5-.9-.9-.9-1.2 0-1.2.7 0 1.2.4 1.2 1 0 .5.7 1 1.5 1s1.5.8 1.5 1.7c0 1.3.3 1.4 1.2.5.7-.7 3.2-1.2 5.5-1.2 2.4 0 5.8-.8 7.6-1.7 3.7-2 7.7-2.6 7.7-1.2 0 .5-.9.9-2 .9-1.9 0-2.6 1.1-1.4 2.2.3.4 2.1 0 3.9-.8 4.3-1.7 4.6-1.7 3.9 0-.6 1.6.8 2.8 2.1 1.8 1.7-1.2 1.1-4.7-1-5.4-1.3-.4-.3-.6 2.7-.7 4.1-.1 4.6.1 4.1 1.9-.3 1.1 0 2 .6 2s1 .5.9 1.1c-.2.6.3 1.4 1.1 1.6.9.4 1.1 0 .6-1.6-.5-1.5-.2-2.1.9-2.1.9 0 1.6.5 1.6 1.1 0 .6.7 1.7 1.5 2.5.8.9 1.5 1.2 1.5.7s.9-.9 2-1c1.1-.1 1.8.2 1.5.7-.3.6.1.7.9.4.9-.3 1.6-.1 1.6.5 0 .7.8.7 2.5-.1 2.2-1 2.3-1.3 1.1-2-1.4-.8-1.3-1.2.4-3 1.3-1.4 1.6-2.4.9-2.8-.5-.4.3-.7 1.9-.8 2.5 0 2.9.2 2.4 2-.3 1.4-.1 1.9.6 1.4.7-.4 1.2-1.3 1.2-2.1 0-1.2 7.5-2.7 8.6-1.6.8.8 4.5 1.1 4.1.4-.3-.5 2.1-.9 5.4-1 3.2-.1 5.8.1 5.8.5-.3 1.9.2 2.2 1.7.8 1.5-1.6 7.5-2.2 8.7-1 1.1 1.2 34.8.7 36-.5 1.7-1.7 2.5-1.4 4.1 1.7.9 1.8 1.1 3.4.5 5.1-.8 2.1-.7 2.2.6 1.1.8-.7 1.5-2.1 1.5-3.1 0-1.1.7-1.9 1.8-1.9 1.6-.1 1.6-.1-.1-1.4-1.7-1.3-1.6-1.4.5-1.9 4.6-1 12-.8 11.3.2-.9 1.6.4 1.3 2.2-.4 1.3-1.4 1.8-1.4 3.8-.1 2.4 1.6 8.7.8 10.9-1.4.7-.7 1-6.2 1-15.5 0-7.9.3-14.2.8-13.9.4.3.8 0 .8-.5 0-.6.4-1.1.9-1.1 1.3 0 2 3.7 1 4.7-1.2 1.2-.1 4.3 1.5 4.3.6 0 1.8-.5 2.6-1 1.3-.8 1.2-1.1-.5-2.4-1.5-1.1-1.7-1.7-.7-2.8.6-.8.9-1.8.5-2.1-.3-.4-.1-.7.6-.7.9 0 1.1.8.7 2.4-.3 1.4-.2 2.7.3 3 .5.3.9 5.5.9 11.6-.1 10.5.1 11.2 2.8 15.1 2.6 3.7 2.9 3.9 4.1 2.3 1.7-2.4 1.6-4.3-.2-5-1.7-.7-2.1-3.4-.5-3.4 1.3 0 5-3.2 5-4.3 0-.5-.9-.5-2-.2-1.4.4-2 .2-2-.9 0-2 1.7-2.9 2.6-1.5.4.7 1.2-.1 2.1-2.1 1.5-3.7 1.6-3.5-1.3-4.4-1.5-.4-2.4-.2-2.8.9-1.1 2.9-2.1 1.4-2.3-3.5-.1-3 .2-4.8.7-4.5.5.3.7-.1.4-.9-.3-.8.3-1.9 1.5-2.6 1.2-.6 2.1-1.7 2.1-2.5 0-2.3-1.7-1.8-2.5.7-.4 1.4-.8 1.8-1.2 1-.2-.6-.9-.9-1.4-.6-1.1.6-.6-9.7.5-11.5 1-1.6 4.6-1.3 4.6.4 0 .7-.6 1.8-1.2 2.2-.7.4-1.8 2.3-2.5 4.1-1 2.8-1 3.2.2 2.2.7-.6 2.5-.8 3.9-.4 2.1.5 2.5 1.1 2 2.8-.6 2.1-.6 2.1 1 .1 1.6-2.1 2.2-8 .7-7.1-.4.3-.6-.6-.3-1.9.6-3.6 4.2-3.4 4.3.2.1 1.6.2 3.7.3 4.8.1 1.1-.3 2.3-.9 2.7-.6.4-.2.8.8.8 1.6 0 1.9-.4 2.1-3.3.1-.6.5-1.5.9-1.8.4-.3.3-1.8-.3-3.3-.6-1.7-.6-2.5 0-2.1.6.3 1 .1 1-.4 0-.6.5-1.1 1.2-1.1 1.6 0 .3 18.1-2.2 30.5-2.4 11.7-5 17.5-9.6 21.7-1.8 1.7-3.1 3.5-2.8 3.9.3.5-1.2.9-3.3.9-2.1.1-6.7.3-10.2.6-4.4.4-6.1.2-5.7-.5.5-.8 0-.8-1.8-.1-1.4.5-10.2.9-19.7.9l-17.2.1 1.8-2c1-1.2 1.9-2.9 2-3.9.1-1.6-.2-1.8-2.3-1-1.6.6-2.9.6-3.7-.1-1.4-1.2-8.2-2-10.2-1.2-.7.2-1.3.8-1.3 1.4 0 .5.4.6 1 .3.5-.3.7 0 .4.8-.3.9.9 1.7 4 2.4 2.5.5 4.3.7 4.1.3-.3-.5.2-1.1 1.1-1.4 2.4-.9 2.6-.8 2.2 1.6-.2 1.6-1 2.3-2.8 2.5-1.4 0-2.9.2-3.5.2-.5.1-7.9.3-16.2.4-11.3.1-15.2-.1-15-1 .1-.6-.2-1.1-.8-1-.5.1-.9.5-.7 1 .1.4-.1.6-.5.5-.5-.1-6 .2-12.3.6-6.3.4-29.2.8-50.8 1-34.9.2-39.4.1-40.2-1.3-.9-1.4-1.1-1.4-2.4.2-2 2.6-6.8 1.8-7.8-1.4-.5-1.7-.6-1.1-.5 2.1l.2 4.5 50-.3c27.5-.2 68.7-.6 91.5-.9 63.7-.8 64.8-.8 65.5-.1.4.3-.1 1.8-1.1 3.3-1.5 2.4-1.6 2.8-.2 4.2 2.5 2.4 7.8 2.9 29.3 2.8 13.3-.1 20.7-.6 22.2-1.3 1.3-.7 3.8-1 6-.6 5.1.8 14.2-1.9 18.9-5.6l3.7-3 30.1-.2c16.5-.1 32.1-.3 34.6-.3 16.3-.6 111.4-1.8 124.5-1.7 8.8.2 17.9 0 20.3-.3l4.2-.6V0H0v115.8zM280.4 11.1c.9.8-1.4 1.5-7.7 2.3-4.3.5-6.2 1.8-8.3 5.9-2.1 4-1.2 6.9 4.3 13.9 4.5 5.7 5.8 6.5 11.6 7 4.6.5 3.4 2.2-2.2 3.1-6.4 1.1-12.1.2-12.1-1.8 0-.8.5-1.5 1-1.5.6 0 1-.4 1-1 0-1.5-6.1-8-7.5-8-1.9 0-5.8 6.7-5.1 8.6.4.9 1.3 1.3 2.3 1 1.9-.6 5.1.9 4.1 1.9-.3.3-6.8.9-14.4 1.2-21.4 1-20.9 1-20.9-.7 0-1.1 1.4-1.6 5.3-1.8 6.7-.4 6.9-1.1 6.2-15.7l-.5-11-5-.3c-13.4-.7-8.9-2.9 7.3-3.5l13.3-.5L255 14c3.3 6.5 4.2 6.3 10.3-2.4 1.7-2.4 2.1-2.5 8-2 3.4.4 6.6 1 7.1 1.5zM84.6 35c1.1 12.1 2.5 49.7 2.2 59.8l-.3 12.7-4.2.3c-3.6.3-4.3 0-4.3-1.5 0-7.4-1-43.4-1.6-55-.8-18-.6-19 4.2-18.9 3.2.2 3.8.5 4 2.6zm17.8 24.6c.3.9.6 5.7.5 10.7-.1 5.4-.4 8.2-.8 6.7-.4-1.6-1.4-2.5-2.6-2.5-1.6 0-2 .7-1.9 3 .2 6.5-6.4 5.9-7-.6-.2-1.9-.7-6.9-1.1-11.2l-.7-7.7h6.5c5 0 6.6.4 7.1 1.6zm178.4 1.9c62.2.3 120.5.7 129.5 1 14.3.4 66.7 2.2 80.1 2.8 2.9.1 5.1.7 5.4 1.4.3 1-21.9 1.3-108.5 1.3-195.7.1-279.6-.1-280.5-.6-1.1-.7-1-4.8.1-6 .6-.5 13-.8 30.8-.7 16.4.1 80.8.5 143.1.8zM74 69.6c0 5.6-.4 7.6-1.4 8-4 1.5-18.5.4-29.8-2.3-5.2-1.2-6.7-2-7.2-3.7-1.8-6.7-1.5-6.8 28.9-9.5 4.4-.3 8.3-.5 8.8-.3.4.2.7 3.7.7 7.8zm-45.1-5c3.6 3 3.8 5 1.1 10.4-1.7 3.3-2.6 4-4.9 4-3.5 0-9.1-4.4-9.1-7 0-2.7 3.2-7.7 5.5-8.9 3.1-1.5 4.1-1.3 7.4 1.5zm466.9 6.9c2 .7.4 2.5-2.1 2.4-4.3-.2-135.6 1.2-156.2 1.6-43.5 1-74.4 1.5-120.5 2-26.1.3-61.6.8-78.7 1.1l-31.3.6v-7.1l18.3-.3c10-.2 58.2-.4 107.1-.5 48.9-.1 89-.4 89.1-.5.5-.5 172.9.2 174.3.7zM66.5 88.2c1.5 4.8 2 67.5.6 69.1-.4.4-2.4.8-4.4 1l-3.8.2-.4-7c-.3-5.4-.7-50.9-.5-60.8 0-2.9 7.6-5.1 8.5-2.5zm17.9 24.4c.3.9.6 5.2.5 9.7 0 6.3-.3 7.6-1 5.8-.5-1.3-.8-3.5-.7-5 .2-2-.1-2.6-1.7-2.6-1.8 0-2 .8-2.3 7.2l-.3 7.3H72.2l-.7-10.5c-.4-5.7-.5-11.1-.1-12 .8-2.2 12.1-2.1 13 .1zm137.1.9c5.5.2 30.5.6 55.5.9 63 .8 110.6 1.5 143 2.1 15.1.3 38.2.7 51.3.9 23.3.3 27.8.9 25.2 3.5-.6.6-20.3 1-49 1.1-26.4.1-68.7.2-94 .2-25.3.1-95 .2-155 .2l-109 .1-.3-3.9c-.6-7.1-5.6-6.6 61.5-6 33.4.2 65.3.6 70.8.9zm-167.1 8c.2 4.2-.2 7.9-.7 8.2-.5.3-6.9.5-14.1.5-14.3 0-22.1-1.4-21.2-3.7.2-.7.8-2.9 1.1-4.9.4-2 1.4-3.7 2.4-4 2.9-.9 17.5-2 23.8-1.8 4.8.1 6.3-.2 6.7-1.5 1.2-2.9 1.8-.5 2 7.2zm-42-5.3c3.5 1.5 4.2 4.5 1.9 7.7-2.9 3.9-6.3 5.3-8.7 3.7-5-3.2-4.6-8.8.7-11.1 1.8-.8 3.3-1.4 3.4-1.5.1 0 1.3.5 2.7 1.2zm484.3 10.5c.7 1.9-10.2 2.2-78.7 2.8-36.6.3-77.1.8-90 1-12.9.2-46.9.7-75.5 1-28.6.3-61.9.8-74 1-12.1.2-37.2.7-55.8 1.1l-33.8.7.3-3.9.3-3.9 61-.2c33.6-.2 62.4-.4 64-.5 1.7-.2 65.7-.3 142.4-.3 99.1.1 139.6.4 139.8 1.2zM84.4 143c.5 1.7 2.1 33.1 1.8 34.3-.2.5-.3 9.7-.3 20.5 0 10.9-.3 20.2-.7 20.7-.9 1.4-5.9 1.7-6.7.4-.4-.5-.8-5.1-1-10.2-.2-5.1-1.1-21.6-2.1-36.8-1-15.2-1.5-28.2-1.2-29 .8-2 9.7-2 10.2.1zm22.5 25.6c1.1.4 1.2.7.3 1.6-.7.7-1.2 3-1.2 5.1 0 3.3-.2 3.8-1.5 2.7-2.4-2-3.5-.1-3.5 6.1 0 5.4-.2 6-2.5 6.9-3.4 1.3-8.5.2-8.5-1.9 0-.9-.1-5.9-.2-11.1l-.2-9.5 5.9-.5c5.8-.5 8.4-.3 11.4.6zm-35.1 11.1l.3 9.3-4.8.1c-12.2.2-21.3-.3-26.3-1.2l-5.5-1.1V174l3.5-1.1c1.9-.6 8-1.3 13.5-1.6 5.5-.2 10.5-.6 11-.8.6-.2 2.6-.3 4.5-.2l3.5.2.3 9.2zM437 171c34.8.1 58 .5 58.7 1.1.7.6.8 2 .4 3.6l-.7 2.6-102.9-.1c-56.7-.1-142.7-.2-191.1-.3-92.9 0-92.1 0-91.3-4.4.4-1.8 4.2-1.9 126.2-2.1 69.2-.1 126-.4 126.3-.6.2-.3 4.1-.3 8.6-.2 4.6.1 34.2.3 65.8.4zm-407.5 2.5c3.4 3.3 3.1 6.5-.9 10.4-2.6 2.5-4 3.2-6.6 2.9-2.7-.3-3.4-.9-4.6-4.3-1.5-4.3-1.1-7 1.4-9.8 2.3-2.6 7.8-2.2 10.7.8zm466.2 8.9c.3.3.4.8.1 1.1-.8.9-33.1 1.5-109.8 2.1-39.9.3-75.6.7-79.5.9-8.7.4-124.6 1.7-165 1.9l-30 .1-.1-3c-.1-1.7 0-3.3.3-3.8.5-.9 383.1-.2 384 .7zm-390 4.8c-.2 1.3-.4.5-.4-1.7-.1-2.2.1-3.2.4-2.3.2 1 .2 2.8 0 4zm-42.6 13.2c.1 2.3.3 5.4.4 7.1 2.3 23.1 3 62.3 1.2 65.2-.4.6-1.7 1.1-2.9 1.1-1.3 0-3 .1-3.8.3-1.2.3-1.4-.5-1.3-4.1.2-2.5-.4-13.3-1.2-24-.8-10.7-1.5-26.3-1.5-34.6v-15.1h9l.1 4.1zm20.7 31.7c.3 7.3.2 7.6-2 7.5-2.1-.1-2.3.4-2.4 4.9-.1 2.7-.2 5.5-.3 6-.1.6-2 .9-4.5.7-3.6-.3-4.5-.8-5-2.5-.5-2.2-2-21.8-1.8-22.6.1-.2 2.1-.5 4.4-.8 2.3-.2 4.4-.6 4.7-.9.3-.3 1.9-.4 3.6-.2l3 .3.3 7.6zm247.7-4.6c71.5.4 136.8.7 145.1.6 8.3 0 16 .3 17.2.6 2.4.6 3 3.8 1 4.6-.7.2-38 .5-82.8.6-44.8 0-93.4.3-108 .6-52 .9-215.2.7-216.2-.3-.5-.5-.8-2-.6-3.3.2-2 1.1-2.5 4.8-3 2.5-.4 27.4-.7 55.5-.8 28-.1 51.1-.4 51.3-.6.2-.2.9-.2 1.5 0 .7.2 59.7.6 131.2 1zm-280.2 4.2c.4.2.7 3.5.7 7.2v6.8l-3.7.7c-5.9.9-21.3.5-26.8-.8l-5-1.1v-10l11-2.2c10-2 20.9-2.3 23.8-.6zm444.1 6.2c.5.1.6.4.3.7-.9.9-30.9 1.5-107.7 2.1-34.4.3-67.9.9-74.5 1.3-6.6.5-25.7 1.1-42.5 1.4-16.8.4-55 1.1-85 1.8-30 .6-64.2 1.2-76 1.2l-21.5.1-.3-2.9c-.2-1.6.2-3.2 1-3.7.7-.5 24.3-.9 52.3-.9 55.3 0 172.7-.9 173.1-1.3.2-.2 178.5 0 180.8.2zm-411.7 6.8c-.3 1-.5.4-.5-1.2 0-1.7.2-2.4.5-1.8.2.7.2 2.1 0 3zm8.9 5.9l2.9.6.5 15.1c.2 8.4.5 25.1.5 37.2v22l-2.4.3c-1.3.2-2.7 0-3.3-.6-1.2-1.2-2.5-18-3.8-48.1-1.2-28-1.2-27.9 5.6-26.5zm26.8 27.6c0 1-.1 6.1-.2 11.4-.1 6-.6 9.3-1.2 8.9-.5-.3-1-2.2-1-4.1 0-2.7-.4-3.4-2-3.4-2.1 0-2.3.5-2 6.2.1 3.7 0 3.8-3.2 3.8-1.9 0-4.6-.5-6-1.2-2.4-1.2-2.6-1.7-3.2-11.7-.4-6.5-.2-10.7.4-11.1.5-.3 4.9-.6 9.7-.5 7.7 0 8.8.2 8.7 1.7zm377.4 1.7c.2 1.3 0 2.7-.5 3.2-.6.6-13.6.9-29.9.9H435c-1.4.1-25.9.2-54.5.4s-60.8.6-71.5.9c-16.6.6-57.6 1.1-165.5 2l-20 .2v-8l13.5-.6c7.4-.3 44.5-.7 82.5-.8 37.9-.1 69.2-.4 69.4-.7.2-.2 47.1-.3 104-.2l103.6.3.3 2.4zm-464.9 1.7c3.7 4.7 2.3 10.9-3.3 14.3-3.3 2-3.7 2.1-5.9.6-3-1.9-4.7-5.6-4.7-10.1 0-2.8.6-3.8 3.3-5.4 4.5-2.8 8.1-2.6 10.6.6zm51.3.1c.2 1.6.2 4.9 0 7.4l-.4 4.5-6.6 1.1c-8.5 1.4-31.5.2-35.7-1.8-2.3-1.1-3.1-2.3-3.6-5.4-.4-2.2-.3-4.4.1-4.8.9-1 4.5-1.4 22.5-2.2 7.1-.3 13.1-.8 13.4-1 .2-.3 2.6-.5 5.2-.5 4.3 0 4.7.2 5.1 2.7zm412.7 7c1.9 1.6-5.4 2.2-31.9 2.8-16.8.4-30.7.8-31 1-.3.2-23.5.6-51.5.9-28.1.4-53.7.8-57 1.1-8.1.6-56.9 2-105 3-23.8.5-51.1 1.2-79.1 2-14.2.5-16.3.3-16.8-1.1-.9-2.2-.7-6.2.2-6.8 1.5-.9 76.7-1.7 289.6-3.2 41.8-.2 76.2-.7 76.4-.9.5-.5 5.3.5 6.1 1.2zm-426.3 22c0 4.3.1 14.5.2 22.8.1 8.2-.2 20.8-.6 28l-.7 13-3.7.3c-2.9.3-3.8-.1-4.3-1.7-.3-1.1-.8-10.2-1-20.3-.2-10.1-.7-24.4-1-31.9-.9-16.7-.5-17.9 6.4-17.9h4.8l-.1 7.7zm14.2 9.9c.6.2 1.2 1.9 1.2 3.9 0 1.9.5 4.3 1.1 5.3.8 1.2.9 4.1.5 8.5-.7 6.2-.9 6.7-3.1 6.7-1.3 0-3.6.5-5 1.2-1.9.9-2.8.9-3.7 0-1.4-1.4-2.8-24.2-1.6-25.8.8-1.1 6.9-1 10.6.2zm124.2 3.6c.8 0 4.9 0 9-.1s21-.2 37.5-.2 41.3 0 55-.1c13.8 0 52.2.3 85.5.7 33.3.4 69.5.8 80.5.9 18.1.1 20 .3 20.3 1.9.2 1.2-.3 1.7-2 1.8-1.3 0-41 .2-88.3.4-150.6.6-310.1 2.2-311.6 3.1-.4.2-1 3.1-1.3 6.5-.5 4-1.1 5.8-1.7 5.2-.6-.6-.6-1.9.1-3.7.5-1.5.7-4.6.3-6.8l-.6-4.1 3.3.6c2.8.6 3.6.3 6.4-2.8l3.2-3.4 38.9-.1c21.4 0 39.1-.3 39.4-.6.3-.4 6-.3 12.6 0 6.6.4 12.7.8 13.5.8zm-152 8.7c0 5-.4 9.3-1 9.6-.5.3-1.9 0-3.1-.8-1.4-1-3-1.3-4.7-.8-1.5.5-7.9.8-14.3.7-13.8-.1-16.3-1.2-17.4-7.7-.4-2.2-.3-4.5.2-5 1.5-1.5 11.4-3.1 23.8-3.9 6.6-.4 13-.7 14.3-.8 2.1-.2 2.2.1 2.2 8.7zm440.1.7c.5.3.5 1.4 0 2.6-.9 2.5 11.8 2.2-124.6 3.2-42.9.4-90.6.8-106 1.1-15.4.2-57.2.7-93 1.1-35.7.4-67.2.7-70 .8-4.9.1-5 0-4.8-2.8.1-1.6.6-3.3 1-3.7 1.5-1.5 34.5-1.9 208.8-2.4 96.8-.3 176.7-.7 177.5-.9 1.8-.4 10.1.3 11.1 1zM91.3 351.5c-.4 4.2-.3 19 .3 46.8l.7 28.8-4.4-.7c-2.4-.4-4.5-.7-4.5-.8-.3-.2-1.3-25.6-2-48.2-.4-11.7-.4-22.8 0-24.8.7-3.7.7-3.7 5.4-3.4 4 .3 4.7.6 4.5 2.3zm28 33.7c-.2 12.2-.3 13.1-1.2 9.8-1.1-4.1-3.9-3-5.5 2.2-.4 1.4-1.8 1.7-8.1 1.7-9.1 0-9 0-9.7-13.1l-.4-8.8 4-.9c2.3-.5 7.9-.9 12.6-1l8.5-.1-.2 10.2zm104.7-7.9c23.9.4 71.6.9 106 1.2 99.4.8 164.4 1.6 165.8 2 .6.3 1.2 1.6 1.2 3v2.6l-59.7-.3c-32.9-.1-67.7-.6-77.3-1.1-27.8-1.4-37.8-1.2-40 .8-1.3 1.2-2.5 1.5-3.7.9-1-.5-44.5-.8-96.6-.9-103.6 0-96.7.4-96.7-5.7 0-2.6.2-2.7 5.8-3 8.5-.4 46.2-.2 95.2.5zm-145.2 2.2c.8.6.2 13.9-.6 14.7-1.3 1.3-31.2 1.3-38.7.1l-5-.8v-11l4-1.4c5.7-1.9 38.2-3.3 40.3-1.6zm-48.7 4.1c2 5.4-1.5 10.4-7.2 10.4-4.5 0-7.2-2.9-6.3-6.9.9-3.8 4.1-6.1 8.5-6.1 3.3 0 4.1.4 5 2.6zm317.5 5.9c4.4 2 7.4 4 7.4 4.9 0 1.8-1.8 1.3-9.4-2.8-2.7-1.4-5.7-2.6-6.7-2.6-2.9 0-2.2-2.2 1-2.9.2-.1 3.7 1.5 7.7 3.4zm-15.7-.2c.7 1.8 2.3 2.7 6.5 3.7 3.1.7 5.6 1.7 5.6 2.1 0 .4-3.5.7-7.7.6-7.2-.2-7.8-.1-7.6 1.8.1 1.7-1.3 2.5-8.4 4.8-4.7 1.5-8.8 2.6-9 2.3-1.3-1.2 4.9-5.6 10-7 7.6-2.2 7.6-4.1 0-3.2-6.6.8-6.4.2 2-4 7.6-3.9 7.6-3.9 8.6-1.1zm-94.1-.3h75.6l-4.8 3c-4.4 2.8-5.7 3.1-15.9 3.6-6.2.3-46.5.6-89.7.7l-78.5.2-.3-3.7-.3-3.8 17.8-.2c9.8-.2 18.4-.2 19.1-.1.8.2 35.4.3 77 .3zm259 2.2c-.3 2.2-.9 2.3-10.3 2.9-14 .8-112.7 1.1-120.2.3-4.5-.5-7-1.3-9-3l-2.8-2.4h142.6l-.3 2.2zm-189 10.4c-.1.9-2.3 3.2-4.8 5.1-6 4.4-6.9 4.8-8.3 3.4-1.4-1.4.6-3.1 4-3.1 1.4 0 3.1-1.4 5-4.4 2.7-4.2 4.9-4.8 4.1-1zm38.7-.5c4.3 2 7.2 4.5 6.3 5.4-.2.2-3.4-.5-7.1-1.7-3.6-1.2-7-1.9-7.4-1.4-1.5 1.4 1.5 4.1 5.3 4.8 8.9 1.6 10.4 2.1 11.6 3.5 1.1 1.3.5 1.4-4.6.8-5.2-.7-5.9-.5-7.3 1.5-1.1 1.6-1.8 1.9-2.7 1-.8-.8-.5-1.6 1.3-2.9 1.3-1 2-2 1.5-2.3-2.2-1-12.5.1-19.2 2.1-8.8 2.7-14 2.5-7.7-.3 2.2-1 6.5-2.2 9.5-2.8 8.2-1.6 8.5-1.7 7.2-3-1-1-8.7-.1-15.1 1.8-.9.3-.3-.2 1.3-1.2 1.6-.9 6.1-2.2 10-2.9 5.7-.9 7-1.5 6.8-2.8-.4-2.4 4.7-2.2 10.3.4zm9.6-.1c1.3 1 1.9 1.9 1.3 2-.7 0-2.2-.9-3.5-2-1.3-1-1.9-1.9-1.3-2 .7 0 2.2.9 3.5 2zm-282 4.9c.3 7.3-.2 13.9-1.7 24.8-1.3 8.7-1.4 13-.6 19.7.5 4.7.8 10.9.6 13.8-.2 2.9-.6 8.1-.8 11.5-.2 3.3-.7 6.6-1 7.2-.4.6-2.7 1.1-5.2 1.1H61l-.2-10.8c0-5.9-.1-23-.1-38 0-29.8.4-32.2 5.2-32.2 1.4 0 3.2-.4 4-.9 2.4-1.5 4.1 0 4.2 3.8zM308 411c-2.1 1.4-3 1.2-3-.4 0-1.8 2.2-2.7 3.5-1.4.6.6.5 1.2-.5 1.8zm-8.9 3.1c5.4-1.6 6.2-.7 1.3 1.4-5.9 2.5-10.7 3-12.2 1.2-1.1-1.3-.9-1.8.9-3.1 2.1-1.4 2.4-1.4 4.1.1 1.6 1.4 2.4 1.4 5.9.4zm55.4 2.8c1.9.8 1.9.8 0 1.8-1.1.6-3.7.8-6 .4-3.6-.6-3.8-.8-2-1.9 2.3-1.3 5.1-1.4 8-.3zm10.4.4c1.7 2.1-2.5 5.3-9.4 7.3-6.8 1.8-9.3 2-10.8.5-1.6-1.6-.1-2.4 2-1.1 1.5 1 2.8.8 6.5-1 2.6-1.2 5.1-2 5.5-1.7 1.4.8 5.3-1.2 5.3-2.8 0-1.8-.5-1.9-3.1-.5-1 .6-1.9.7-1.9.2 0-2.4 4.1-3 5.9-.9zm-56.9.6c0 1-2.5 2.1-4.8 2.1-1.5-.1-1.4-.3.2-1.5 2.2-1.7 4.6-2 4.6-.6zm11.5 3.1c-.3.5-1.1 1-1.6 1-.6 0-.7-.5-.4-1 .3-.6 1.1-1 1.6-1 .6 0 .7.4.4 1zm18.5 1.3c0 .7-1.1 2.8-2.5 4.7-1.4 1.9-2.5 4.2-2.5 5.2 0 2.2 2.7 7.8 3.8 7.8.4 0 1.8.3 3.1.7 1.8.5 2.2.3 1.6-.7-.5-.8-.4-1.1.3-.7 1.4 1 4.4-.3 3.9-1.7-.2-.6 3.6-3 8.3-5.3 5-2.4 9.9-5.6 11.4-7.4 1.5-1.7 2.9-2.9 3.3-2.6 1.3 1.4-4.1 7.5-11.3 12.6-7 5.1-9.1 7.8-5.6 7.5.8-.1 1 .2.4 1-.5.6-.8 2.1-.7 3.3.1 1.2-.3 1.9-.8 1.6-.5-.3-.8 0-.5.7.8 2.4 2.3 2.1 6.8-.9 2.5-1.6 4.7-2.7 5-2.4.9.9-6.2 6.2-8.8 6.5-3.3.4-4 2.6-1.1 3.6 2 .8 1.8 1.1-3 4.1-2.9 1.7-5.6 2.9-6.2 2.6-.5-.4-1.4.7-2.1 2.2-.7 1.5-2.3 4.5-3.6 6.5-1.3 2-2.2 4.3-2 5 .3.7-.1 1.9-.9 2.6-1.6 1.7-1.8 4.6-.1 3.6.8-.5.9-.2.4 1.2-.4 1-.8 9.7-.8 19.2 0 11.9-.4 18.1-1.2 19.7-.7 1.4-1.2 4.4-1.1 6.7.4 6.7-2.5 14.9-7.4 21.5-2.9 3.9-5 4.1-8 .9l-2.3-2.5.7-31.4c.7-33.9.7-33.7 6.9-46.6 1.3-2.7 3.1-8 4-11.8 1-3.7 2.2-7.6 2.7-8.6 1.1-2 .1-7-1.2-6.1-.5.3-.9-.7-.9-2.1 0-3 3.7-10.8 4.9-10.1.4.3 1.3-1.2 2-3.2 1.7-5.2 3.3-8.2 4.3-8.2.4 0 .8.6.8 1.3zm-25.9 1c.8.7 1.5 2.5 1.5 4.2-.1 3.5 2.9 4.8 3.9 1.6.4-1.2 1.2-1.8 2.1-1.4.8.3 2.2-.1 3.2-.9 1.9-1.7 7.2-3.2 7.2-2.1-.1 1.9-6.2 10.3-7.5 10.3-1.2 0-4.4 4.5-4.5 6.2 0 2.7 1.5 2.1 2.7-1l1.1-2.7-.1 3.2c-.1 1.8-.6 3.3-1.3 3.3-.6 0-1.9.9-2.9 2-1.5 1.6-1.6 2.3-.6 3.3.9.9 1.4.9 2.1-.2 1.2-2 4.6 5 3.6 7.5-.6 1.6-.8 1.6-2.9-.3-3.6-3.3-6.6-4.6-8.1-3.4-.7.6-1.7.7-2.1.3-.5-.4-.5-.2-.2.4.7 1.2-5.3 6.4-7.3 6.4-.6 0-1.4-1-1.9-2.3-.5-1.2-1.7-4-2.7-6.2-1-2.2-2.1-4.8-2.5-5.7-.6-1.3-.4-1.6.8-1.1 1.1.4 1.4.2 1.1-.8-.3-.8-1.1-1.4-1.9-1.4-.8 0-2.8-1.8-4.6-4.1-1.7-2.2-4.3-4.8-5.8-5.8-2.5-1.7-2.6-1.9-1-3.6 2.3-2.6 9.8-5.1 17-5.7 3.3-.3 6.2-.7 6.4-.9.8-.8 3.6-.3 5.2.9zm-35.9 6.3c4.2 1.2 17 18.4 18.2 24.3.6 3.4.6 3.4-1.4 1.6-1.1-1-2-2.4-2-3 0-2.2-2.7-3.7-4.7-2.6-1 .5-3.4 1.3-5.4 1.6-3.9.6-7.6 3.5-4.6 3.5.9 0 2.7-.4 4.1-1 4.1-1.5 8.5-.1 10.2 3.2.8 1.6 2.6 3.3 3.9 3.8 2.9 1.1 3.4 3.4.6 2.5-3.1-1-3.5 1.4-.8 5.3 1.4 2 2.9 5 3.3 6.7.4 1.6 1.8 4 3.1 5.2 2.7 2.6 2.8 3.6.8 9.4-1.1 3.1-1.4 6.2-1 10.4.5 4.4 0 9.1-1.9 18-2.1 10-2.5 14.2-2.2 24 .2 6.6.4 12.2.5 12.4 0 .2.8-.2 1.7-1 1-.8 1.3-2.1.9-3.6-.3-1.4.1-3.3 1.1-4.8 1.3-2 1.9-6.3 2.4-18 .4-8.4 1.1-15.9 1.6-16.6.4-.7 1-5.1 1.3-9.7.6-8.7 2.3-11.7 3.9-7 .4 1.3.6 15.3.3 31.3-.4 15.9-.2 33.7.2 39.4 1 12.1.2 15.1-3.9 15.1-1.5 0-3.5.7-4.5 1.6-2.4 2.2-4.6 1.2-5.4-2.5-1.2-5.8-4.9-6.5-5.7-1.1-.5 3.9-2.3 2-2.1-2.3.1-3-.2-3.7-1.7-3.7-1.1 0-2.4-.9-3-1.9-1.5-2.9-1.2-18.3.5-26.5 1.6-7 4.3-18.4 5.2-21.9.4-1.2 0-1.7-1.6-1.7-2.4 0-2.5-.5-1-4.9 1.4-4.1 3.7-4 4.1.1.4 4.7 2.3 3.6 2.3-1.3 0-5.6-2.3-7.2-6.2-4.3-1.7 1.3-2.9 3.2-3.1 5-.1 1.6-.9 4.7-1.7 6.9-1.2 3.5-3.3 16.7-3.9 24.5-.2 1.4-.7 3.4-1.3 4.4-1 1.8-1.1 1.8-1.8-.5-.4-1.3-2.1-3.6-3.8-5-2.5-2.1-3.1-3.4-3.1-6.5.1-5.2 3-18.8 4.8-22.2 1.4-2.5 1.5-2.3 1.3 4.8-.2 6.1.1 7.5 1.3 7.5 1.1 0 1.7-1.7 2.1-6.5.4-3.6.8-7.6 1-8.9.4-2.6-1.8-4.1-2.6-1.8-.4.8-1.5 1.2-2.9 1-1.8-.4-2.5.3-3.9 3.4-.9 2.1-2.1 5.7-2.7 8-1 3.9-1.3 4.2-4.3 4-5.4-.4-5.6-1-3.2-8.4 1.2-3.8 2-7.1 1.8-7.6-.9-1.6-3.3-.5-3.9 1.8-.7 3-2 3.2-3.4.5-2.2-4.1 1.7-20.6 6.6-28 1.3-1.9 4.7-6.8 7.5-10.8 5.3-7.3 6-10.5 1.4-6.2-3.7 3.5-12.3 16.3-14.9 22.2-1.3 2.9-3.1 8.9-3.9 13.2l-1.7 8 2.5 4.4c1.4 2.5 2.5 5.9 2.5 7.6 0 3.8 4.4 8.6 7.8 8.6 1.8 0 2.2.6 2.2 3.2.1 1.8.7 4.4 1.4 5.8 1 1.7 1.1 3 .4 4.3-.5 1.1-.7 5.2-.4 9.5.3 4.3.6 11.9.6 17 .2 10.6 1.9 28.4 2.8 29.4.4.3 2.4 1 4.5 1.3l3.8.7-.7-4.1c-.8-4.8-.3-5.1 2.1-1.5 1.6 2.5 1.6 2.7-.6 5-1.4 1.5-2.9 2.2-4.1 1.8-2.5-.7-4.2.4-2.9 2 .8.9 0 2.3-2.8 5l-3.9 3.8-1.6-3c-2.8-5.5-4.1-17.9-4-39 .1-19.8 0-20.8-3-20.3-.5.1-.7-3.6-.4-8.4.5-7.5.4-8.6-1-8.3-2.5.5-3.1 5.3-3.8 31.3-.5 19.6-.3 25.4 1 31.8 1.7 8.6 3.6 13.3 5.4 13 .6-.2 1.9 1.1 2.8 2.8 1.5 3 1.5 3.3-1.3 7.3-1.6 2.2-4.9 8.3-7.3 13.4-2.5 5-4.9 9.1-5.5 8.9-1.7-.5-6.5-10.8-6.5-13.9 0-4.4-2.8-10.4-4.2-9-2.6 2.6 3.8 22.7 8.1 25.4 1.2.7 2.1 1.6 2.1 1.9 0 .4-1.4 3.7-3 7.5l-3.1 6.7-2.2-2.1c-1.3-1.2-2.7-2.2-3.3-2.2-1.9 0-6.6-9.5-10.4-21-2.2-6.7-3.3-26-2-35.1.5-3.5 1.2-13.9 1.6-23.2l.7-16.7h-2.2c-1.7 0-2.1-.5-1.7-1.8.3-.9 1.6-6.2 3-11.7 1.4-5.5 3.8-15 5.4-21.1 1.7-6.1 3.7-15.4 4.6-20.7 1-5.4 2.3-11.6 3.1-13.8 1.9-5.2 1.9-5.9 0-5.9-2.6 0-2.9.9-8.6 27.5-1.1 4.9-3.5 14.8-5.5 22-6.6 24-8.4 32.9-10.5 53-2 19.5-2.1 38.6-.2 49.9l.6 4-3.3-2c-4.5-2.6-9.1-10.4-9.8-16.2-.2-2.6-.9-5.2-1.4-5.9-1-1.2-.7-2.8 2.8-15.2 1.3-4.6 3.3-13.8 4.5-20.5 1.1-6.7 3.1-15.7 4.5-20.2 1.3-4.4 2.4-8.9 2.4-9.9 0-2.5 5.9-24.2 11.5-42 2.4-7.7 4.9-15.6 5.4-17.5 2.6-9.1 6.3-18.5 8.8-22.8 1.6-2.6 3.5-6.7 4.2-9.2 1.7-5.8 8.6-18.8 11.6-21.9 1.9-2 2.7-2.2 3.8-1.2 1.2.9 2.1.7 4.3-1.3 3.3-2.7 2.8-4.4-.7-2.5-1.7.9-2.4.9-2.7 0-.7-2.2-4.1-1-7.6 2.9-3.1 3.5-13.2 22.6-15 28.7-.4 1.1-1.8 2.8-3.1 3.7-3.3 2.1-5.8 7.2-5.1 10.2.4 1.6-.1 3-1.9 4.8-2.7 2.7-6.5 10.6-6.5 13.5 0 1-.3 2.1-.7 2.5-1.5 1.4-6.3 16.2-6.3 19.3 0 2.4 1.8 3.2 2.4 1 .9-3.1 4.6-14.5 5.7-17.7 2.3-6.7 3.2-8.5 3.6-7.4.2.6-.8 4.4-2.3 8.5-2.6 7.3-4.9 15.1-8 26.1-.8 3.2-2 5.7-2.7 5.5-.6-.1-1.7 1.8-2.5 4.3-.7 2.5-2 6.6-2.8 9.1-.8 2.6-1.4 5.6-1.4 6.7 0 1.1-1.5 7.1-3.4 13.3-1.9 6.3-3.7 13.8-4 16.7-.6 4.9-5.1 23.7-6.1 25.2-.2.4 0 2.2.5 4.1.8 2.7.7 3.6-.5 4.5-5 3.7-8 29.9-4.1 35.8 1.5 2.3 2 2.5 3.3 1.4 1.4-1.1 1.7-1.1 2.1.1.3.8 2 3.1 3.8 5.1 3.9 4.3 4.1 5 1.7 5-3.3 0-7.9-3.7-12.6-10-6-7.9-6.1-10.8-1.4-32 .8-3.6 1.7-9.7 2.1-13.5.4-3.9 1.6-9.7 2.7-13 1-3.3 2.8-9.8 3.8-14.5 1.1-4.7 2.4-10.1 3-12 6.4-21.5 8.1-27.8 8.1-29.7 0-1.3.6-3.9 1.4-5.7.7-1.8 1.7-5.3 2.1-7.7.4-2.4 2.5-11.6 4.7-20.4 3.3-13.6 4.9-17.9 10.3-28.5 3.6-6.9 8.1-16.1 10.1-20.5 8.1-17.4 16.7-28.7 23.4-30.5 5.1-1.4 8.7-1.2 9.4.5.6 1.7 5.1 2.1 6.1.6.3-.6-.4-1.5-1.5-2.1-5.1-2.7.3-3.6 8.2-1.4zm94.8.3c-1.1 2.1-3 3.7-3 2.5 0-.8 3-4.4 3.7-4.4.2 0-.1.9-.7 1.9zm-24.1.7c.8.7-.4 1.2-3.4 1.6-2.2.2-3-.2-3.3-1.5-.3-1.7 0-1.8 3-1.2 1.8.4 3.5.9 3.7 1.1zM87 432.5c1.6.8 3 2.5 3.2 3.7.4 3.1 3.1 2.9 3.8-.2.4-1.6 1.3-2.5 2.5-2.5 2.2 0 2.2.1.7 11.5-.5 3.6-1 5.5-1.1 4.4-.1-2.7-2.3-4.5-4-3.5-1 .7-1.2 2.1-.7 5.5l.7 4.6-4.3.1c-2.4 0-5.7.2-7.3.4l-3.1.4-1.3-8.3c-1.4-9.1-.8-15.1 1.8-16.6 2.4-1.4 5.8-1.2 9.1.5zm130 1.5c12.9.2 24.1.5 24.7.7.8.3.2 1.8-1.9 4.3l-3.2 3.8-67.3.1c-63.5.1-67.3 0-67.2-1.6.3-6 1.2-6.8 7.9-7.3 6.1-.5 53.6-.5 107 0zm209.4 1.6c28.1.2 53.6.6 56.6.9 3 .2 7.4.4 9.8.5h4.2v6.9c0 5.8-.3 7.1-1.8 7.5-2.5.8-88.2 1.3-109.2.6-16.2-.5-17.5-.6-17.2-2.3.2-1-.3-2.5-1-3.4-1.1-1.4-.9-1.5 1.7-1 1.7.4 30.2.8 63.4.9 47.7.2 60.5 0 60.8-1 .6-1.5 3.4-1.4-34.2-1.6-62.4-.4-86.5-.8-88.5-1.3-1.9-.5-2-.7-.5-2.9.8-1.3 1.5-3.1 1.5-4 0-1.1.5-1.4 1.7-1 .9.4 24.6.9 52.7 1.2zm-61.3 2.3c-.5.9-3.1 2.9-5.8 4.4-4.7 2.5-4.9 2.5-5 .6-.1-1.2.7-2.3 2-2.9 1.2-.5 3.5-1.8 5.1-2.9 3.3-2.2 5.1-1.9 3.7.8zM233 447.4c0 .8-.8 2.3-1.7 3.5-1.7 1.9-3 2.1-24.3 2.5-34.1.8-103.8.8-105 .1-1.1-.7-1.4-5.8-.3-6.8.3-.4 30-.7 66-.7 55.1 0 65.3.2 65.3 1.4zm118.2 18.7c-3.5 3.6-5.5 6.7-6.7 10.4-1.8 5.9-3.5 19.7-3.5 29.7 0 3.7-.5 7-1 7.3-.7.4-.9-2.9-.5-10.2.3-5.9.7-13.5.9-16.8.1-3.3.7-6.9 1.3-8 .6-1.1.8-2.5.6-3.2-.8-2.3 2.8-7.2 7.9-10.7 2.9-2 5.5-3.6 5.7-3.6.2 0-1.9 2.3-4.7 5.1zm-259 3.4c-.1 2.7-.4 13.1-.8 23-.4 13-.1 22.2 1 32.9 1.4 13.8 1.4 15-.2 17.2-1.9 2.6-3.5 3.1-7.3 2.6-2.6-.4-2.6-.4-3.4-13-.4-7-.7-13.6-.7-14.7.1-1.1.1-5.6.1-10s.5-14.4 1-22.2c.6-8.1.6-15.5.1-17.2-.4-1.6-.5-3.2-.2-3.6.3-.3 2.8-.5 5.6-.3l4.9.3-.1 5zm20.1 22.7c1 .5 2.7.6 3.8.3 1.1-.4 2.5-.2 3.2.3.8.7 17.4 1.2 44.7 1.4 23.9.2 44 .6 44.7 1.1.8.5.8 1.5 0 3.7l-1.1 3-9.6.2c-20.8.3-62.9.3-68.7-.1-5.8-.3-6.2-.5-6.5-3-.2-1.5-.9-2.6-1.8-2.6-1.2 0-1.5 1.5-1.5 7.6 0 5-.5 8.1-1.4 9.3-1.8 2.2-3.4.7-3.3-3.1 0-1.5-.5-3.4-1-4.1-1.8-2.1-4 .7-3.6 4.7.3 4-1.2 4.8-9.4 5-3.7.1-4.8-.3-5.3-1.7-.9-3-.8-21.3.1-22.2 1.9-1.9 13-1.7 16.7.2zm-34.5 8.7c.1 11.7.2 11.7-16.3 11.4-20.5-.4-26-2.4-24.5-8.9.4-1.9 1.3-4.1 1.9-4.8 2-2.4 13.3-4.1 36.2-5.4l2.7-.2v7.9zm-45.6-4.3c2.2 2.2 2.5 3.1 1.7 4.6-.7 1.3-.7 2.3 0 3.2 1.3 1.5-6 8.6-8.9 8.6-3.5 0-7.9-2.9-8.6-5.6-.4-1.4-.1-4.3.5-6.4 1-3.2 1.8-4.1 5.4-5.3 5.9-2.1 6.7-2.1 9.9.9zm445.3-1.3c18.3.2 19 .3 19 2.2 0 1.7-.9 2.1-6 2.6-3.3.3-37.3.6-75.5.5-63.3-.1-69.5-.2-69.8-1.7-.2-.9.4-2.3 1.2-3.1 1.4-1.5 15.4-1.5 131.1-.5zm19 10.8v2.4l-27.5.1c-15.1.1-43.2.3-62.5.4-59.5.4-61.5.3-61.5-2 0-1.1.1-2.1.3-2.2.2-.3 135-1.4 144.7-1.2 6.1.1 6.5.3 6.5 2.5zm-290-.2c.3.5.1 2-.4 3.4l-.9 2.4-40.1.2c-22.1.1-40.5 0-41-.3-.4-.3-.6-1.7-.4-3 .5-2.4.9-2.5 7.7-2.8 18.3-.8 74.6-.6 75.1.1zM341 516c0 .5-.4 1-1 1-.5 0-1-.5-1-1 0-.6.5-1 1-1 .6 0 1 .4 1 1zm.1 7c.3 5.9-2 18.2-4.2 23.1-2 4.4-6.1 8-7.5 6.6-.3-.3.6-2.1 2-4s2.6-3.9 2.6-4.5c0-.7.4-1.2.8-1.2 1 0 4.2-17.1 4.2-22 0-4.5 1.9-2.7 2.1 2zm-69.6 28.3c0 2.6-2 2.5-2.3-.2-.3-1.6.1-2.2 1-1.9.7.3 1.3 1.2 1.3 2.1zm-64.8 6.9c-.3.8-.6.5-.6-.6-.1-1.1.2-1.7.5-1.3.3.3.4 1.2.1 1.9zm71.4 10.1c.6 1.1.6 2.4-.1 3.7-.5 1-1 4.1-1 6.9 0 2.8-.4 5.1-.9 5.1-.9 0-2.1-12.3-2-21.4v-6.1l1.6 5c.8 2.7 1.9 5.8 2.4 6.8zm-23.2.9c-.1 5.7-.2 5.9-.9 2.5-.6-3.5-.3-8.7.6-8.7.2 0 .3 2.8.3 6.2zm15.8-3c-.3.7-.5.2-.5-1.2s.2-1.9.5-1.3c.2.7.2 1.9 0 2.5zm1 4.8c.1 1.1-.2 2.2-.8 2.5-.5.4-.9-.5-.9-1.9 0-3 1.5-3.5 1.7-.6zm-53.1 12.2c-.4 6.8-1.2 15.4-1.7 19.2-1.5 11-.2 30.3 2.5 38.3 3 8.6 4.5 12.1 6.9 15.6 1 1.5 1.7 3.7 1.5 5-.4 2.1-.5 2-3.8-1.4-6.3-6.4-8.5-16-9.6-41.7-.8-18.1 1.6-47.2 3.9-47.2.6 0 .7 4.3.3 12.2zm-16.5-6.5c-1 1.7-1 1.6-1.1-.3 0-2.3 1.3-4.1 1.8-2.5.2.6-.1 1.8-.7 2.8zm-4.5 21.9c-.4 1.4-.9 2.4-1.2 2.1-.3-.2-.2-1.7.2-3.1.3-1.5.9-2.5 1.1-2.2.3.3.2 1.7-.1 3.2zm134.6-1c1.4.9.9 2.2-1.3 2.9-2.8.9-10.5-2.5-8.7-3.7 1.3-.8 8.2-.3 10 .8zm-19.5 2.4c3.9.5 8.6 1.8 10.4 2.9l3.3 2-3.3 1.8c-7.2 4-12.5 7.9-17.2 12.6-4.8 4.9-5 4.9-6.9 3.2-1.1-1-4.2-2-7-2.3-2.8-.2-5.3-.9-5.6-1.4-.3-.5.2-.8 1.2-.6 1.2.2 2.3-.6 2.9-2 .5-1.2 1.5-2.2 2.2-2.2 1.9 0 2.7-2.1 1.2-3.1-.8-.5-2.6-.9-4.1-.9-1.5 0-3-.5-3.3-1-.4-.6-1.9-.9-3.3-.8-3.9.4-3.5-2.1.7-4.6 7.1-4.1 16.2-5.2 28.8-3.6zm40.6 1c2 0 3.7.4 3.7.9 0 .6-1.9 2.3-4.2 3.9l-4.2 2.9-1.8-3.6c-2.4-4.6-2.3-5.5.5-4.7 1.2.3 3.9.6 6 .6zm20.5 2.4c.7 3.6-.7 6.6-3.2 6.6-3.6 0-5.9-2.6-4.4-5 1.3-2.1 4.7-4 6.3-3.6.6.1 1.2 1.1 1.3 2zm15.7-.4c.3.5.2 1-.3 1-.8 0-4.8 5.5-12.8 17.4-2 2.9-2.5 3.1-6.5 2.7-2.4-.3-3.5-.7-2.4-.9 3.9-.8 5.7-3.4 5.2-7.4-.4-2.8-.2-3.5.8-3.1 1.7.6 4.5-4.6 4.5-8.2 0-2.4.3-2.5 5.4-2.5 3 0 5.8.4 6.1 1zm-25.5.6c0 .3-.4 1.4-1 2.4-.7 1.3-.5 2.9.5 5.4 1.5 3.6 2.8 4.5 4 2.6 1.1-1.8 2.5-1 2.5 1.4 0 3.4-2.7 5.8-5.4 5-3.4-1-4.2-2.2-2.8-4.4 1.4-2.4-.2-3.7-2.4-1.9-1.8 1.5-1 6.8 1.4 8.7 1.4 1.2.3 1.3-7.3.7-4.9-.4-9.1-.8-9.2-.9-.8-.7 8.8-12.7 12.6-15.8 4.2-3.3 7.1-4.7 7.1-3.2zm62.2 1.2c.6.6.2 2.2-1.5 4.8-1.3 2.2-3.1 6.1-4 8.8-2.9 8.4-2.2 8.2-22.1 7.6-9.6-.3-18-1-18.5-1.5-.7-.7 1-3.9 5-9.5 3.3-4.7 6.2-9.3 6.6-10.3.5-1.8 1.7-1.9 17-1.4 9.1.2 16.9.9 17.5 1.5zm14.4 1.1c.5.5 2.7 1.1 4.9 1.4 11.1 1.6 18.5 3.5 18.5 4.9 0 .5-.7 2.4-1.4 4.3-1.1 2.5-2.1 3.5-3.7 3.5-1.7 0-2 .4-1.5 2.4.5 2.1.3 2.3-1.7 1.9-1.2-.3-3-1.5-3.9-2.7-1.3-1.6-2-1.8-2.8-.9-1.4 1.3.1 4.7 2.2 4.9 4.5.4 7.5 3.2 5 4.8-1.4.9-5.2-.6-5.2-2 0-.7-.4-1.5-.9-1.8-1.5-1-4 .5-3.4 2 .3.8-.1 1.4-1 1.4-.8 0-1.7-.7-2.1-1.5-.8-2.2-3.5-1.8-5.6.7l-1.8 2.3-1.1-2.8c-1.2-3.2-4.1-3.6-4.8-.7-.4 1.5-1.4 2-3.9 2-1.8 0-3.6-.5-3.9-1-1.4-2.2 6.6-21 8.9-21 .7 0 2.7-.7 4.2-1.5 3.4-1.7 3.7-1.8 5-.6zm-154.3 7c1.3 1.3-.2 3.6-3.3 4.8-2.9 1.1-3 1-3.8-2-.6-2.1-.5-3.5.2-4 1.2-.8 5.6 0 6.9 1.2zm39.2-.8c.4.5-.1 1.9-1.1 3.1-1.8 1.9-1.8 2 .1 3.4 1.7 1.3 1.4 1.4-3.1 1.3-2.7-.1-6-.4-7.4-.8-2.4-.7-2.3-.8 2.4-4.4 4.9-3.7 7.9-4.6 9.1-2.6zm143.7 2.1c-.7.7-1.2.8-1.2.2 0-.6.3-1.4.7-1.7.3-.4.9-.5 1.2-.2.2.3-.1 1.1-.7 1.7zm21.9-1.2c3.4 0 4.9.4 4.9 1.3s-1.2 1.4-3.2 1.4c-3.1 0-10.7.9-15.4 1.9-1.3.2-3 2-4.2 4.2-2.3 4.5-1.5 7.8 2.3 9.2 2.9 1.1 3.4 3 .7 3-1 0-3.1-2.1-5-5-1.8-2.8-3.7-5-4.1-5-1.6 0-2 5.5-.5 6.3 1.6.9 1.9 3.7.5 3.7-.5 0-2.1-.4-3.5-1-3.4-1.2-3.3-3.7.2-10 2-3.8 3.2-4.9 4.5-4.6 1.1.3 2.7-.5 4-2 1.6-1.9 2.7-2.3 4.9-1.9 2.2.5 2.8.3 2.8-1 0-1.4.6-1.6 3.1-1.1 1.7.3 5.3.6 8 .6zm-146.9 2.2c-.7.7-1.2.8-1.2.2 0-.6.3-1.4.7-1.7.3-.4.9-.5 1.2-.2.2.3-.1 1.1-.7 1.7zm-69.2 1.4c.6 1.4 1 2.7 1 2.9 0 .7-8.1 1.7-8.7 1.1-.7-.7 4.6-6.6 5.9-6.6.5 0 1.3 1.2 1.8 2.6zm57.8-1.4c2.2 2.2.9 5.8-2.2 5.8-.1 0-.2-1.6-.3-3.5-.1-3.7.5-4.3 2.5-2.3zm7.2 4.8c0 .5-.4 1-1 1-.5 0-1-.5-1-1 0-.6.5-1 1-1 .6 0 1 .4 1 1zm155.5 0c.3.5-.1 1-1 1s-1.3-.5-1-1c.3-.6.8-1 1-1 .2 0 .7.4 1 1zM324 623.7c1.9.4 5.8.7 8.5.7 7 .1 7.1 2.4.8 10.2-2.7 3.2-5.7 7.2-6.6 8.7-1.3 2-2.3 2.6-3.7 2.2-2-.6-3.7 1-2 2 .5.3 1 1.1 1 1.7 0 .6-2.1.7-6.2.2-5.7-.6-11.1-.7-14.1-.1-.6.1-1.1-.7-1.2-1.8 0-1.1-.7-2-1.5-2s-1.4.8-1.4 1.7c.1 1.3-.5 1.8-2.2 1.8-3.2 0-3-1.6.6-7.3 1.6-2.6 3.9-6.6 5.1-8.9 1.2-2.3 3.3-5.7 4.8-7.5 2.5-3.3 2.7-3.3 8.6-2.8 3.3.3 7.6.9 9.5 1.2zm-26.8 1.4c1.9 1 2.5 5.4.8 6.4-.6.4-2 2.5-3.1 4.7-2 3.9-2.1 4-3.8 2.2-1.2-1.4-1.6-3.1-1.3-6.3.4-4 .1-4.8-2.4-6.9l-2.9-2.4 5.4.7c3 .3 6.3 1.1 7.3 1.6zm-102.1 4c1 5.6 4.7 13 9.3 18.4 5.7 6.7 5.8 7 4.5 9.8-.9 2-.6 3 2.1 7 3.5 5.2 3.3 6.8-.8 6.5-6.1-.5-19-11.5-17.6-15.1.3-.9-.6-2.4-2.3-3.6-2.6-2.1-2.7-2.6-2.5-9.4.4-10.6 2.9-18.3 5.6-17.4.6.2 1.4 1.9 1.7 3.8zm71.9-2.6c-.7.8-1.8 1.5-2.4 1.5-.7 0-2.5 1.3-4 2.9-3.5 3.7-3 6.8 1.7 10.4 2.4 1.8 4.9 2.7 8.6 2.9 2.8.2 5 .7 4.9 1.3-.4 1.4-11.6 1.1-13-.3-2-2-8.3-1.4-10.3.8-2.8 3.1-2.8 1.8 0-4.5 4.8-10.3 8.3-15.3 11.3-15.8 1.5-.2 3.1-.5 3.6-.6.5 0 .3.6-.4 1.4zm99.5.8c3.6.2 5.1.7 5.3 1.8.2.9-1.9 5.2-4.5 9.5-2.7 4.3-5.3 9.2-5.9 10.9-1.3 4.1-4.9 4.6-5.8.9-.4-1.4-.6-2.7-.4-2.8 7.1-4.4 7.9-6.5 5-12.3-1.2-2.2-2.7-4.5-3.5-5.1-2-1.7-9.5-.8-12.7 1.7-4.2 3.1-5.5 2.6-3.1-1.2s5.2-4.6 14.1-4c3.6.2 8.7.5 11.5.6zm45.3 2.9c1.8 1.5 1.5 6.1-.9 12.6-1.2 3.1-2.7 7.3-3.4 9.2-1.5 4.1-4.6 5.5-4.3 1.9.2-1.6-.3-2.4-1.6-2.7-1.6-.3-1.8 0-1.2 2.5l.6 2.8-1.6-2.3c-2-2.7-3.2-2.8-5-.5-1.2 1.6-1.4 1.4-1.1-1.6.3-4.6-1.8-5-3.8-.7-1.8 3.8-3 4.5-3.8 2.3-.6-1.7.3-6.6 1.4-7.3 1.5-.9 1-3.4-.6-3.4-.9 0-2.1 1.2-2.7 2.7-1 2.7-1.2 3.6-1.6 7.5-.1 1.1-1 1.8-2.2 1.8-1.2 0-1.7-.5-1.4-1.4.7-1.7-1.2-3-3.3-2.2-1.2.5-1.3.9-.3 2.1 1.4 1.6 1 1.8-3.5 1.5-9.2-.5-9-1.8 4-23.6l1.9-3.1 16.5.4c9.2.3 17.2.9 17.9 1.5zm84.6 3.9c-.6 1.1-3.8 1.2-4.7.2-.4-.3.1-1.5 1-2.5 1.6-1.8 1.8-1.8 3-.2.7.9 1 2.1.7 2.5zm-58.5-.6c19.2.3 20.1.8 15.3 8.3-1.3 2.1-1.6 2.1-3.2.7-.9-.8-2.4-1.5-3.3-1.5-.9 0-2.8-1.1-4.3-2.5-3.4-3.2-7.5-3.2-12.9 0-5.6 3.2-7.8 6.7-7 10.7.5 2.2.4 2.9-.5 2.3-.8-.5-1-2.4-.5-6.1.5-4.5.4-5.5-1-6-2.4-1-3.5 1.3-3.5 7 0 3.5-.5 5.3-1.7 6.2-2.4 1.7-.7 4.6 3.5 5.9 4.3 1.2 4.1 2.5-.4 2.5-7.8 0-8.9-2.7-5-12.7 1.3-3.4 2.7-8.1 3.1-10.5.9-5.4 1.3-6.1 3.4-5.3.9.4 9 .8 18 1zm-88.9-.1c0 .3-.4.8-1 1.1-.5.3-1 .1-1-.4 0-.6.5-1.1 1-1.1.6 0 1 .2 1 .4zm141.8 4.2c2.8.3 5.2 1 5.2 1.7 0 .6-1.5 5.6-3.4 11.1-1.9 5.6-3.7 11.4-4.1 12.9-.5 2.6-.8 2.7-4.3 2.1-2-.4-4.2-1.1-4.9-1.6-.7-.5-2.2-.6-3.5-.2-3 1-22.1.4-22.9-.7-.9-1.5 2.7-17.1 5.1-21.9l2.2-4.5 12.6.3c7 .1 15.1.5 18 .8zM338.7 646c1.4 1.1 3.4 2 4.4 2 1.2 0 1.9.7 1.9 2 0 1.2.7 2 1.8 2.1 2.7.2-3.9 1.6-8 1.8-2.1 0-3.8-.4-3.8-1s1-1 2.3-.9c5.6.5 6.6-1.4 1.7-3.1-1.6-.6-3-1.7-3-2.5s-.9-1.4-2-1.4c-1.3 0-2 .7-2 1.9 0 1-.7 2.4-1.5 3.1-.8.7-1.5 1.9-1.5 2.6 0 1.4-2.1 1.9-3.2.8-.3-.3 1.2-3.5 3.4-7.2 6-10 6.2-10.2 6.6-5.9.2 2.5 1.1 4.3 2.9 5.7zm-272.9-6.5c-1 1.1-4.8 1.4-5.3.4-.4-.5.8-.9 2.6-.9s3 .2 2.7.5zm109.7 8c0 7.8.1 8.2 4.3 14.3 2.4 3.5 4.1 6.6 3.8 6.9-.2.3-2.6.6-5.2.7-2.8 0-4.9.6-5.2 1.3-.2.8.5 1.3 1.7 1.3s2.1.5 2.1 1.1c0 .8-1.7.9-5.4.5-3.3-.5-5.7-.3-6 .3-1.1 1.8 1.1 2.1 16.4 2.6 8.4.3 15.8.9 16.6 1.3 1.5.8.7.9-30.6 1.7-11.3.3-22.9.8-25.8.9-4.3.3-5.4.1-6.3-1.5-.9-1.7-2.2-1.9-12.4-1.9-6.2 0-11.6.4-11.9.8-.7 1.2.7 2.9 2.9 3.4 3.3.7-12.4.8-21 .2-5.3-.5-7.3-.9-6-1.4 1.1-.4 4.1-.5 6.7-.3 5.5.7 8.7-.2 7-1.9-1.2-1.2-2.6-1.4-15.5-2.4-9.7-.7-16 .1-15.4 1.9.2.7 3 1.3 7 1.5 7.6.3 9.3 2.1 2 2-2.7-.1-8.5.2-13 .7-7.9.7-8.2.6-8-1.4.1-1.2.6-2.1 1.3-2.1.6 0 1.7-.7 2.4-1.5 1-1.2.5-1.6-3.4-2.6-2.5-.6-4.4-1.6-4.3-2.1.1-.6-.3-1.2-.8-1.4-1.3-.5-3.9 5.2-3 6.6.4.6-1.2 1-4.4 1-5.4 0-5.9-.5-3.6-3.6.8-1 1.5-2.8 1.5-3.9s.6-3.1 1.3-4.6c.8-1.4 1.3-3.2 1.2-4-.2-.8.7-3.5 1.9-6 1.9-4 2.4-4.4 5.6-4.4 2.8 0 3.5-.4 3.5-2s.6-2 3.3-1.7c2.3.1 3.2-.2 3.2-1.3 0-.8-.5-1.5-1.2-1.5-3.2 0 1-1.5 5.5-2 4.2-.4 5.1-.8 4.9-2.2-.2-1.5 3.5-1.6 51-1.5l51.3.2v8zm264.3-7.3c.7.7 1.2 1.8 1.2 2.5 0 1.1-.6 1-2.9-.2-3.3-1.6-6.5-1-9.5 2-2 2.1-3.4 1.2-1.6-1 3.1-3.8 10.4-5.7 12.8-3.3zm7.3 4.1c-.1 1.2-1.5.9-1.9-.4-.3-.6.1-1 .8-.8.6.3 1.1.8 1.1 1.2zm-159.6 3.8c-1.7 3.2-3.8 3.4-4.3.6-.2-1 .6-2.1 2-2.6 3.7-1.5 3.9-1.3 2.3 2zm-69.2 11.1c1.8 2.6 3.9 5 4.8 5.3 2.3.8 6.2 5.2 5.6 6.2-.4.5-2.4.7-4.5.4-3.1-.5-4.8-1.6-7.6-4.9-2-2.4-3.6-5.4-3.6-6.7 0-1.2-.2-4.4-.5-7.1l-.5-4.9 1.6 3.5c.8 1.9 3 5.6 4.7 8.2zm-174.2-7.9c-1 .9-1.1.8-.5-.6.3-1 .9-1.5 1.2-1.2.3.3 0 1.1-.7 1.8zm216.5-.1c-.1 1.9-1.1 2.5-6.6 4-3.6.9-6.6 1.7-6.7 1.8-.7.1-.2-3.7.7-5 .7-1.1 1.2-1.2 2-.4.9.9 2.1.7 4.8-.7 4.9-2.4 5.9-2.3 5.8.3zm22.1.2c1.7 1.8 1.7 1.8-.7 1.2-1.4-.3-5.6-.6-9.5-.6-5.8-.1-6.7-.3-5.4-1.3 2.7-2 13.5-1.5 15.6.7zm166.8 4.1c-.9 3.1-1.8 6.2-2.1 6.6-.9 1.6-8.4 1.1-8.4-.5 0-.8-.3-2.1-.6-2.9-.8-2.1 2.7-2.7 4.8-.9 1.9 1.6 4.2.7 3.4-1.5-.5-1.2 3.3-7.8 4.1-7 .1.2-.4 3-1.2 6.2zm45.9 3.7c-1.6 3.6-1.6 3.9.1 5.8 1.4 1.6 1.6 2.3.7 3.2-.9.9-1.5.9-2.6-.2-1.6-1.7-.7-11.3 1.6-16.6l1.2-2.9.4 3.4c.2 1.9-.4 5.2-1.4 7.3zm-178.1-5.8c6.7 1 6.9 1.5 2.9 9.5-6.1 11.9-10.1 20.8-11.3 24.9-.7 2.3-1.7 4.7-2.4 5.2-1.9 1.6-7-.4-7.3-2.8-.3-1.9.1-2.2 3.1-2.2 2.3 0 3.7-.6 4.1-1.6.9-2.2-1.1-4.4-4-4.4-1.9 0-2.4-.5-2.4-2.3 0-2 .5-2.4 3-2.5 3.8-.1 11.8-5.6 12.6-8.6.3-1.3.4-4 .2-6.1-.3-3.7-.6-4-6.2-6.2-5-2-6.3-2.2-9.2-1.3-1.9.7-4.2 2.3-5.1 3.6-.8 1.3-2.1 2.4-2.8 2.4-.7 0-2.7 1.6-4.4 3.5-2.5 2.8-3 4.2-2.5 6.3.9 3.7 3.2 6.1 6.8 7 1.8.5 3.2 1.6 3.4 2.6.6 3.1-1.2 3.7-5.6 1.9-4-1.5-4.4-1.5-5.9 0-2.5 2.4-.1 4.5 5.5 4.9 4.3.3 4.7.5 5 3l.3 2.8H274.8l.7-3.8c1.1-6 8.5-27.3 11.1-31.9 1.5-2.6 3.2-4.3 4.7-4.5 3.9-.6 20-.2 26 .6zm110.1 1.1c1.6 1.2 1.7 1.5.4 1.5-.8 0-2.1-.7-2.8-1.5-1.6-1.9-.1-1.9 2.4 0zm-146 2.6c.5.5.5 1.3-.1 2.1-1.4 1.7-5.3 14.2-5.3 16.7 0 1.1-.4 2.2-.9 2.5-.4.3-1.1 2.4-1.5 4.7-1 6.2-2.1 7.7-5.1 7.2-2.6-.6-3-1.8-2.6-7.9.3-4.5-1.4-5-5-1.5-1.7 1.7-3.9 3.1-4.9 3.1-2.3 0-3.3 2.5-1.5 4 1.1.9 1.7.7 2.7-.9.7-1.2 2.1-2.1 3.1-2.1 1.1 0 1.5.4 1.1 1.2-.4.6.1 1.7 1 2.4 1.6 1.1 1.6 1.3-.1 1.8-1 .3-3.5.8-5.6 1.2-3.2.5-3.6.4-3.1-1 .7-1.8-2-2.3-3.1-.6-1.2 1.9-2.2 1-1.7-1.5.3-1.8 0-2.5-1.1-2.5-2.1 0-3.2 1.9-1.9 3.2 1.5 1.5.2 4.8-1.9 4.8-1.1 0-2.2.7-2.5 1.5-.7 1.7-3.4 2.1-3.4.4 0-2 2.1-15.4 3.7-23.8 1.4-7.4 1.9-8.5 4.7-10.2 8-5 31.4-8.2 35-4.8zm75.1-.1c1 1.7-.5 3.3-2 2-1.4-1.2-3.8-.5-7.7 2.4-3 2.1-3.7 4.6-1.3 4.6.8 0 1.5.7 1.5 1.6 0 1.2.7 1.4 3 .9 3.7-.8 3.8.4 1.1 6.8-1.6 3.6-2.4 4.4-3.9 4-1.1-.2-2.3 0-2.6.6-.4.6-1.6 1.1-2.8 1.1-1.6 0-1.9.5-1.5 2.1.8 3-.2 4.9-3 6-3.3 1.2-7 .2-7.6-2.2-.7-2.5-3.7-2.5-3.7 0 0 1.5-1 2-4.7 2.6-2.7.4-5.6 1.1-6.5 1.6-2.6 1.4-3.2-.7-1.4-4.7.9-1.8 2.2-4.9 3-6.7.8-1.7 3.5-7.6 5.9-12.9l4.5-9.7 6.9-.3c18.3-.8 22.2-.8 22.8.2zm29 1.9c17 .5 19 .8 19.3 2.3.2 1.2-.6 2.1-2.4 2.8-2.4 1-2.5 1.2-1.1 2.8 1.4 1.5 1.4 2.3.1 7.2-.8 3-1.7 8.1-2.1 11.2-.4 4.2-1 5.8-2.1 5.8s-1.2-.3-.3-1.4c1.5-1.8.4-8.6-1.4-8.6-.7 0-1.5.9-1.8 2.1-.4 1.6-1.2 2-3.3 1.7-4.5-.5-3.8-2.3 1.6-3.7 8-2.1 10.2-8.3 5.4-15.3-3.2-4.5-5.1-5.2-10.4-3.8-2.2.6-4.6 1-5.3.9-4.9-.6-7.3.3-9.6 3.6l-2.3 3.5 2 4c1.8 3.6 1.8 4.1.4 3.8-1-.2-2.3-1.7-3.1-3.5-2.6-5.8-7.6-5.2-5.4.6 1 2.6.8 3.1-1.8 5-5.2 3.9-2.3 8 3.3 4.8 2.8-1.6 2.8-1.6 2.8 1.3 0 3.6 3.2 5 5.9 2.6 1.6-1.5 1.9-1.5 3.1-.1.7.8 2.2 1.6 3.4 1.6 1.1.1.3.5-1.9.9-4.6.9-20.7.6-24.7-.5-2.6-.7-2.6-.7-1.2-4.7.8-2.2 1.4-5 1.4-6.1 0-2.7 5-17.6 6.8-20.5 1.2-1.8 2-2.2 3.6-1.6 1.2.4 10.6 1 21.1 1.3zm-79 .1c.4.7-.6 1-2.9.8-1.9-.1-3.2-.6-3-1 .7-1.2 5.2-1 5.9.2zm5.4 3.6c.3 1.6.1 1.7-1.3.5-1.9-1.6-2.1-3.4-.3-2.9.6.3 1.4 1.3 1.6 2.4zm123.6-1.6c.4.6-.6 1-2.4 1-1.6 0-3.3-.5-3.6-1-.4-.6.6-1 2.4-1 1.6 0 3.3.4 3.6 1zm-80.5 2.5c0 1-1 1.5-3.2 1.5-3.1-.1-3.2-.1-1.4-1.5 2.5-1.9 4.6-1.9 4.6 0zm67.5 1.5c5.5.5 13.1.9 16.8 1 4.8 0 6.9.4 7.3 1.4.5 1.2-1.2 7.7-3.7 14.6-1.4 3.7-1.9 12.9-.9 15.5 1.1 2.8 2.4 3.1 23.2 4.6 12.1.9 16.9 1.6 17.2 2.6.3.7-.1 4.6-.9 8.6-.7 3.9-1.7 10.2-2 13.9l-.6 6.7-5.2-.6c-2.9-.3-5.3-.7-5.5-.8-.2-.2.9-1.5 2.3-3.1 1.4-1.5 2.3-3.4 2-4.2-.3-.8-.1-2 .5-2.7.8-.9.8-1.5 0-2-1.8-1.1-2.8.4-2.6 4 .2 1.9-.1 3.5-.7 3.5s-3.4 1.1-6.4 2.6c-4.3 2-6.7 2.5-12.1 2.3-3.7-.1-7.8-.6-9-1.1-2.3-.8-2.4-1.1-1.8-8.9.3-4.4 1-8.8 1.6-9.9 1.5-2.9 1.3-11-.4-11.6-.8-.3-1.6-1.4-1.9-2.5-.4-1.3-1.4-1.9-3.4-1.9-1.5 0-8.6-.3-15.8-.6-16.2-.6-17.3-1.2-17-8.6.3-5.6 1.9-13.9 3.4-17.3.5-1.1 1.2-3.3 1.6-4.8.4-2.2 1-2.7 2.3-2.2.9.3 6.2 1 11.7 1.5zM7 666c0 .5-.4 1-.9 1-.6 0-1.3-.5-1.6-1-.3-.6.1-1 .9-1 .9 0 1.6.4 1.6 1zm228.9 1.6c1.1 1.5 1.8 3 1.5 3.5-.5.9-7.4-4-7.4-5.4 0-1.7 4-.5 5.9 1.9zm158.2-.5c1 2 .9 2.1-1.2 1.6-1.3-.4-3.5-.7-4.8-.7-2 0-2.1-.2-1.1-1.5 1.8-2.2 5.7-1.9 7.1.6zm66.7-.1c4.2 0 4.1 1.6-.3 3-3.4 1.1-6.1 4.1-4.8 5.4.3.3.1 2.3-.6 4.4-1.1 3.3-1.1 4.3.3 7.1 1.5 2.8 1.5 3.3.1 4.7-.8.8-1.6 1.2-1.6.7-.1-.4-.2-1.5-.3-2.3-.2-2.1-3.6-2.6-3.6-.5 0 2-3.6 6.9-4.3 5.8-.8-1.4 1-12.7 2.6-16.5 1.1-2.6 2.1-3.6 3-3.2 2.2.8 3.3-1.7 1.3-2.8-1.9-1.1-2.2-5.4-.3-6.2.6-.3 2.1-.3 3.2-.1 1.1.3 3.5.5 5.3.5zm25.6 1.6c2 .8 2.1-.4-.9 18.9-.8 5.5-1.8 10.8-2.1 11.7-.6 2-3.3 2.2-9.9.9l-4-.8 2.8-1.1c1.6-.7 3.8-1.2 5-1.2 2 0 4.7-3.6 4.7-6.2 0-1.7-3.2-.7-3.7 1.2-.3 1.1-1.2 2-1.9 2-2.3 0-1.6-1.9 2.1-5.6 3.1-3.1 3.5-4 3.5-8.7 0-2.9-.4-5.7-.8-6.3-1.3-2-5.2-3.5-7.4-2.9-2.3.8-7-1.3-6.2-2.7.7-1 15.7-.4 18.8.8zM6.5 672c.3.5-.1 1-1 1s-1.3-.5-1-1c.3-.6.8-1 1-1 .2 0 .7.4 1 1zm182 0c.3.5-.3 1-1.5 1s-1.8-.5-1.5-1c.3-.6 1-1 1.5-1s1.2.4 1.5 1zm277.3.7c-.4 1.9-5.3 4.1-6.5 2.9-1-.9 3.3-4.6 5.4-4.6.8 0 1.3.7 1.1 1.7zm28.2-.7c.8.5 1.1 1.2.7 1.6-.4.4-.2 1.3.4 2.1.9 1 .8 1.3-.6 1.3-.9 0-1.5.6-1.2 1.2.2.7 1 1.2 1.8 1.1 1.1-.2 1.4 1 1.4 4.7 0 3.6-.4 4.9-1.2 4.5-.7-.2-1.3 0-1.3.4 0 .5.7 1.2 1.6 1.5 1.5.6 1.5.8-.1 2.6-1.8 2-1.8 2.1 0 3.4 3.2 2.3 1.2 4.8-3.7 4.4-4.7-.3-4.8-.7-3.5-9.3.2-1.7.7-6.4 1.1-10.5 1.1-10.6 1.3-11.1 4.6-9zm-313 1c0 .5-.2 1-.4 1-.3 0-.8-.5-1.1-1-.3-.6-.1-1 .4-1 .6 0 1.1.4 1.1 1zm292 2c0 .5-.2 1-.4 1-.3 0-.8-.5-1.1-1-.3-.6-.1-1 .4-1 .6 0 1.1.4 1.1 1zm-236.5 1.9c1.6 2.7-6.3 3.8-17.2 2.5-5.7-.7-7-2-2.5-2.7 5.5-.8 19.1-.7 19.7.2zm-232.8.7c-.3.3-1.2.4-1.9.1-.8-.3-.5-.6.6-.6 1.1-.1 1.7.2 1.3.5zM379 680c0 1.2 1 2.5 2.5 3.2 2.6 1.2 3.1 2.3 1.6 3.2-1.7 1.1-4-.6-6-4.5-2.1-3.9-2.1-3.9-.1-3.9 1.3 0 2 .7 2 2zm-259 .4c0 .3-.4.8-1 1.1-.5.3-1 .1-1-.4 0-.6.5-1.1 1-1.1.6 0 1 .2 1 .4zm43 2.6c0 .6-2.3.9-5.2.8l-5.3-.1 4.5-.7c2.5-.4 4.8-.8 5.3-.8.4-.1.7.2.7.8zm5-.6c0 .3-.4.8-1 1.1-.5.3-1 .1-1-.4 0-.6.5-1.1 1-1.1.6 0 1 .2 1 .4zm8.3.3c-.7.2-2.1.2-3 0-1-.3-.4-.5 1.2-.5 1.7 0 2.4.2 1.8.5zm46.5.3c7.5.2 10.1.5 9.3 1.3-2.2 2.2-44.1.9-44.1-1.3 0-.7 6.9-.7 34.8 0zm-74.5 1.1c-1.9.6-4 .5-5.5 0-1.8-.8-1.2-1 3.2-.9 5 0 5.2.1 2.3.9zm-75.3 1c0 .5-1.7.9-3.7.9-2.5 0-3.3-.3-2.4-.9 1.7-1.1 6.1-1.1 6.1 0zm15.5-.1c2.2.5.6.8-5.3.9-5.3.1-8.1-.3-7.7-.9.7-1.1 8.5-1.1 13 0zm49.2-.4c-.3.3-1.2.4-1.9.1-.8-.3-.5-.6.6-.6 1.1-.1 1.7.2 1.3.5zm210.6 1.4c-.6 2.3-2.3 2.6-4.1.8-1.9-1.9-1.4-2.8 1.7-2.8 2.4 0 2.8.3 2.4 2zm-309.9-.2c1.9 1-2.4 1.7-8.1 1.3-4.5-.3-5.3-.6-3.3-1.2 2.8-.8 10-.9 11.4-.1zm4.1.2c.3.5-.1 1-.9 1-.9 0-1.6-.5-1.6-1 0-.6.4-1 .9-1 .6 0 1.3.4 1.6 1zm20.8-.3c-1.3.2-3.5.2-5 0-1.6-.2-.5-.4 2.2-.4 2.8 0 4 .2 2.8.4zm-11.6.9c-.3.3-1.2.4-1.9.1-.8-.3-.5-.6.6-.6 1.1-.1 1.7.2 1.3.5zm112.8 3.3c-.8 3.6.9 7.3 3 6.5.8-.4 1.5-1.8 1.6-3.3 0-2.4.1-2.5.9-.5.5 1.2 1.3 2.5 1.8 2.8 1.7 1 3.5-2.3 2.8-5.4-.5-2.5-.2-3 1.4-3 1.6 0 1.9.5 1.5 2.3-.4 1.5 0 2.8 1 3.7 1.5 1.2 1.9 1.2 3.1-.5 1.2-1.6 1.2-2.1-.2-3.7-1.6-1.6-1.5-1.7 1.8-1.6 2.9.1 3.7.6 4.6 3 1.3 3.6 4.8 3.6 4.5 0-.2-1.5.3-2.2 1.3-2.2 1.2 0 1.5.6 1 2.2-.3 1.3-.6 3.1-.6 4 0 1.1-.5 1.5-1.4 1.2-1.9-.7-3 1.4-2.8 4.9l.2 2.8-12.4-.2c-12.2-.2-12.5-.2-13-2.5-.4-1.6-1.4-2.4-2.8-2.4-1.1 0-2.6-.6-3.2-1.4-.6-.8-2.7-1.6-4.6-1.8-3.5-.3-3.5-.3-3.8 3.9-.4 4.9-2.7 5.9-5 2.2l-1.3-2.1-2.2 2c-1.8 1.7-2.4 1.8-3.4.7-1.8-1.9-.5-7.2 1.8-7.8 1.1-.3 1.9-1.4 1.9-2.7v-2.2l1.9 2.3c1.5 1.9 2.1 2.1 3.4 1.1.8-.7 2.1-1 3-.6 1.3.5 2.9-.9 3.3-2.9.1-.4.2-.9.3-1.2 0-.3 2.6-.5 5.7-.5h5.6l-.7 2.9zm5.5-2.5c0 .3-.4.8-1 1.1-.5.3-1 .1-1-.4 0-.6.5-1.1 1-1.1.6 0 1 .2 1 .4zm-36.2 1.2c1.8.3 3.2 1.1 3.2 1.9 0 .8-.7 1.1-2.1.8-1.9-.5-2.1-.3-1.7 2.6.3 1.7.1 3.4-.4 3.7-.4.3-.8-.5-.8-1.8 0-1.4-.6-3.3-1.4-4.4-1.2-1.5-1.7-1.7-2.7-.7-1 1-1 1.6-.2 2.4.7.7.9 2.7.6 4.8-.8 5-2.3 6.3-2.3 1.9 0-3.7-2.1-6.5-4-5.3-.6.4-1 1.2-.9 1.8.1.7.1 2.3 0 3.7-.2 2.5-.2 2.5-1.1.2-.9-2.1-3-2.9-4.3-1.5-.4.3-2.2.8-4.1 1-1.9.2-4.6 1-6.1 1.7-3.7 1.9-5.8 1.4-7.3-1.7-1.6-3.2-3.2-3.5-3.9-.7-.8 3-2.4 2.4-2.1-.9.3-3.5-1.9-6.6-3.7-5.1-.6.5-1.5.6-1.9.2-.4-.4-2-.8-3.4-.8-1.5-.1-4.2-.4-5.9-.7-2.8-.5-3.3-.3-3.3 1.3 0 1 .7 2.3 1.6 2.8 1.8 1 1.6 5.3-.2 5.9-.7.2-1-.6-.6-2.3.3-1.9.1-2.5-.7-2-1.3.9-5.1-.2-5.1-1.4 0-.4.8-.7 1.8-.6 1.3.1 1.6-.5 1.4-2.5l-.2-2.7 9.2-.4c8.8-.4 9.4-.3 11.3 1.9 1.2 1.3 3.2 2.3 4.8 2.3 1.6 0 2.7.5 2.7 1.4 0 2.5 2.9 2.6 4.5.2 1.4-2.1 2-2.3 5.2-1.5 2 .4 4.2.5 4.7.1.6-.3 1.7-.7 2.5-.7s1.9-.9 2.5-2c.6-1.1 1.5-2.3 1.9-2.6 1-.7 8.1-.9 12.5-.3zm-66.4 1c1.6.6 2.2 3.5 1 4.7-.4.3-1.5.2-2.5-.3-2.2-1.2-3-.1-3.1 4.3-.1 1.7-.3 2.6-.5 1.9-.3-.6-.8-1-1.3-.7-.9.6-2.1-7.2-1.3-9.1.5-1.4 4.9-1.9 7.7-.8zm38.6.4c0 .5-.2 1-.4 1-.3 0-.8-.5-1.1-1-.3-.6-.1-1 .4-1 .6 0 1.1.4 1.1 1zm128.1-.4c.4.2.5 1.3.2 2.4-.3 1.1-.9 1.7-1.4 1.4-.5-.3-.7-.9-.4-1.4.3-.5.1-1.1-.4-1.5-1.3-.8-4.2 3.7-4.4 6.9-.3 4.4-2.2 3.4-2.7-1.4-.3-3.1-1-4.5-2-4.5s-1.7 1.4-2.1 4.5l-.5 4.5-.9-4.3c-.7-3.9-1-4.2-4.1-4.2-3.7 0-4.9 2.1-3.8 6.4.4 1.6.2 2.6-.5 2.6h-1.8c-.4 0-.6-1.7-.4-3.8.2-3.9-1.8-7-3.7-5.8-.6.3-1.5 0-2.1-.8-1-1.1 1.4-1.4 14.6-1.4 8.6-.1 16 .1 16.4.4zM32 693.2c0 .5.9.8 1.9.5 2.3-.6 3.8 2 2.1 3.7-.5.5-1 2-1 3.3 0 2.8-2.6 4.1-4.3 2.3-.9-1-.9-1.4.1-1.7.6-.3 1.2-1.2 1.2-2 0-1.4-.3-1.3-2.1.3-1.2 1-2.9 1.8-3.9 1.6-.9-.1-2.3.4-3 1.3-1.8 2.2-3 1.9-3-.8.1-2.8 2.2-5.7 4.3-5.7.8 0 2-1.4 2.6-3.1.9-2.6 1.3-2.9 3.1-1.9 1.1.6 2 1.6 2 2.2zm17.7-1.5c.4 1 1.4 2.3 2.2 3 1.1.9 1.2 1.2.3 1.3-.7 0-2 1.6-2.9 3.5-1.9 4-4.6 4.8-3.9 1.2.3-1.6-.3-2.8-1.6-3.6-1.7-1-2-.9-2.5.9-.4 1.5-.9 1.8-1.8 1-1.7-1.4 1.3-7.9 3.8-8 1.5 0 1.6.3.7 2-.7 1.4-.7 2 0 2 .5 0 1-.6 1-1.3 0-1.5 2-3.7 3.2-3.7.5 0 1.2.8 1.5 1.7zM390 691c0 .6-1.1.8-2.7.4-4-1-4.1-1.4-.5-1.4 1.8 0 3.2.5 3.2 1zm75.3 1.7c1.8 1 4.3 1.8 5.7 1.8 1.4 0 2.6.4 2.7 1 .4 1.7-7.3.9-10-1.1-2.4-1.8-3.5-3.4-2.2-3.4.4 0 2 .8 3.8 1.7zm-116.6 1c.4.9-.2 6.5-1.2 12.3-1 5.8-2.3 13.9-2.9 18-.9 6-1.5 7.5-3 7.8-3.1.6-3.8-1.2-1.6-4.1 3.8-4.8-1.2-6.8-5.4-2.2-2.9 3.1-3.3 3.1-5.6.3-2.3-2.8-1.7-3.8 2.1-3.8 4 0 11.6-7 12.5-11.5.9-4.9-.2-7.1-4.4-8.8-2.1-.9-4.4-2.2-5.1-3.1-1.5-1.8-4.7-2.1-5.6-.6-.4.6-2.4 1.9-4.6 3-2.1 1.1-3.9 2.5-3.9 3.1 0 .6-1.4 2.8-3.2 5-2.8 3.5-3 4.2-1.9 6.5.6 1.5 2.8 3.3 5.1 4.2 3.6 1.5 5.5 4.2 3 4.2-.5 0-1-.4-1-.9 0-1.6-9.9-.6-11.7 1.1-1.7 1.8-.9 4.2 1.2 3.4 1.5-.5 5.5 2 5.5 3.6 0 1.4-7.6.4-9.6-1.3-1.7-1.4-1.6-5.5.7-22.4 1.8-13.4.9-12.1 9.6-13.7 4.3-.8 12.9-1.5 19.1-1.6 9.8-.2 11.4 0 11.9 1.5zm-149 2.5c-.3.7-.5.2-.5-1.2s.2-1.9.5-1.3c.2.7.2 1.9 0 2.5zm-117.8 5.2c-.5.6-.9-.7-.8-3.5l.1-4.4.8 3.5c.5 2 .5 3.9-.1 4.4zm188.8-3.4c.3 5.8-.4 6.6-3.2 4-1.9-1.7-3.9-2.4-8.8-2.7-6.2-.4-6.3-.4-11.9 4.1-4.8 4-5.5 5-5 7.4.2 1.5.9 3.2 1.4 3.9.5.6 1.1 2.4 1.4 3.9.6 3.4 2.1 5.4 4.1 5.4.8 0 1.1.5.7 1.1-.4.6-2 .8-4 .4-6-1.1-10 2.9-6.3 6.4l2 1.8-2.1.6c-1.3.3-2.3 0-2.7-.9-.3-.7-.3-7.4-.1-14.8.3-11.7.6-13.7 2.3-15.6 2.5-2.9 8.6-5.6 14.5-6.5 2.5-.4 5.2-1.1 6-1.6.8-.5 3.8-.8 6.5-.6 5 .2 5 .2 5.2 3.7zm124.4-2.3c.5.5.2 6.2-.6 12.8-.8 6.6-1.5 14.1-1.5 16.7 0 2.6-.3 4.9-.7 5.1-.5.3-4.1.7-8.2.8-5.9.3-7.5.1-7.8-1.1-1.2-4.2-1.3-4.3-2.8-3-.8.7-1.5 2-1.5 2.9 0 1.4-1.5 1.7-9.2 1.9-5.1.1-10.5-.1-12-.4-2.6-.5-2.8-.9-2.8-5.2 0-3.8 4-26.6 5.4-30.8.5-1.2 40.5-.9 41.7.3zm68.1 3.1c-4.1.4-4.3.2-3.6-2.5l.6-2.1 3.2 2.2 3.3 2.1-3.5.3zM295.9 696c9.6.1 9.7.4 7.7 17.2-.9 7.9-1.6 14.6-1.6 14.9 0 1.1-13.2 1.7-20.9 1.1-8.4-.8-10.8-2.6-7.8-5.9 1.3-1.5 1.7-4.4 1.9-14.3l.3-12.5 4.5-.6c2.5-.4 5.8-.5 7.4-.3 1.6.2 5.4.4 8.5.4zm107.3 1.1c.5 1.6 8 2.6 21.1 2.8 6.6.1 12.5.5 13.2.7 2.2.9 2.6 5.1 1.1 11.2-.7 3.1-1.4 8-1.5 10.8-.1 2.8-.5 6.4-1 8-.7 2.5-1.3 2.9-4 2.8-6-.3-6.6-1.1-3.2-4.3 3.2-3 4.1-6.1 1.7-6.1-.7 0-2.1 1.1-3 2.5-1.9 2.9-3.5 3.1-7.6 1-3.7-1.9-3.8-3-.2-4.3 1.5-.5 4.5-2.5 6.5-4.4 3.1-2.9 3.7-4.2 3.7-7.6 0-3.6-.4-4.2-3.7-6.2-2-1.1-4.8-2-6.2-1.9-1.4.1-3.8-.1-5.4-.6-1.8-.5-3.5-.2-5.1.8-2.1 1.4-2.4 2.4-2.4 7.9 0 5.4.3 6.7 2.6 9 3.2 3.4 2.1 4.9-1.9 2.5-3.8-2.1-4.9-2.1-4.9 0 0 .9-1 2.7-2.2 4-1.6 1.7-1.9 2.6-1.1 3.4.6.6.9 1.8.6 2.6-1 2.6 1.9 3.3 11.7 3.2 9.8-.2 18.4.7 21 2.2 1 .6.3.8-2.3.9-3.1 0-3.9.5-4.7 2.5-1.1 3-1.8 3.1-3.6.7-1-1.3-1.5-1.4-2.4-.5-.7.7-.9 1.7-.4 2.5.5.7.7 2 .6 3-.4 2.1 1.6 3.4 3.1 1.9 2-2 3.8-1.3 3.1 1.3-.6 2.6 1.2 4.4 2.8 2.8.5-.5 1.1-2.9 1.2-5.2.2-3.8 1.6-5.9 4-6 .4 0 .5 1.2.2 2.6-.4 1.4-.9 6.5-1.1 11.3-.2 4.8-.9 10-1.4 11.4-1.2 3.1-1.1 3-16.1 2.7-5.8-.1-14.8-.3-20-.5-9.3-.1-11.4-1-7.1-3 2.3-1.1 2.6-2.4 1.1-7.4-2.2-7.8 0-20.7 4.2-24.1 1.8-1.4 2.2-2.6 1.9-6.3-.3-6.3 1.9-24.5 3.5-28.5 1.3-3.2 2.9-4.2 3.6-2.1zm53.6.7c.3.9-.2 1.3-1.4 1-.9-.1-1.9-.9-2.2-1.6-.3-.9.2-1.3 1.4-1 .9.1 1.9.9 2.2 1.6zM52 701.6c0 .8-.5 1.2-1 .9-.6-.4-.8-1.1-.5-1.6.9-1.4 1.5-1.1 1.5.7zm-45 3.2c0 1.4-.8 1.9-3 2-1.7 0-2.8-.4-2.5-.9.4-.5 1.5-.9 2.6-.9 1 0 1.9-.5 1.9-1 0-.6.2-1 .5-1s.5.8.5 1.8zm333.8 2.5c.4 3.1-1.2 3.6-2.8.8-1.5-2.9-1.2-4.3.8-3.9 1 .2 1.8 1.4 2 3.1zm155.9-1.6c.3.8-.6 1-3 .6-2.3-.3-3.8 0-5 1.1-2.2 2.2-2.7 2-2.7-1 0-2.4.2-2.5 5.2-2.2 2.9.2 5.3.8 5.5 1.5zm-83.7.3c0 .5-.5 1-1.1 1-.5 0-.7-.5-.4-1 .3-.6.8-1 1.1-1 .2 0 .4.4.4 1zm11.1 0c2 1.1 2.6 4 .9 4-.6 0-2.5-.7-4.3-1.7-2.9-1.5-3-1.7-1.2-2.4 1.1-.4 2.1-.8 2.3-.8.2-.1 1.2.4 2.3.9zm-255.1.8c0 .4 2.1.7 4.8.6 2.6-.1 16.3-.5 30.4-.9 25-.6 25.7-.6 26.7 1.4 1.4 2.5 1.5 12.4.1 11.6-.6-.3-1.4.5-1.9 1.8-.9 2.2-1.5 2.4-9.4 2.5-8 .2-8.5.1-9.2-2-.4-1.3-.7-2.6-.6-3.1.1-.4-.3-.7-.9-.7-1.4 0-1.3 2.3.2 3.8.9.9.7 1.3-.6 1.8-1.1.4-2.2.1-2.7-.7-.6-1-.9-1-.9-.2 0 .7-.7 1.3-1.5 1.3-.9 0-1.5-.9-1.5-2.5 0-1.4-.5-2.5-1-2.5-.6 0-.9 1.2-.8 2.7.3 2.6.1 2.8-3.7 2.9-5.3.1-6.5-.4-5.9-2.4.3-.9-.1-.7-.7.5-1.4 2.6-5.2 3.3-4.3.8.4-.8 1.1-1.2 1.8-.8.6.3.5 0-.2-.8-1.1-1.2-1.5-1.1-2.7.5-.9 1.2-2.1 1.7-3.5 1.3-1.1-.3-1.8-.1-1.4.4.3.5-.8.9-2.4.9-3.1 0-5.7-2.1-4.4-3.5.4-.4-.3-.2-1.6.4-1.2.7-2.8.9-3.4.5-.7-.4-.8-.3-.4.4.8 1.4 1.4 1.3-8.6 1.8-4.3.2-7.8.1-7.8-.2 0-.3.5-1.4 1-2.5.8-1.5.7-1.9-.5-1.9-.8 0-1.5.5-1.5 1 0 .7-.6.7-2 0-1.4-.8-2-.8-2 0 0 .6.7 1.3 1.5 1.6 1.9.8 1 2.4-1.3 2.4-1.5 0-1.5-.2-.2-1s1.2-1-.2-1c-1 0-1.8.4-1.8.9 0 2.9-6.3 1.9-9.8-1.6-2-1.9-3.4-1.6-2.7.7.9 2.8-1.7 3.5-5.7 1.6-2.9-1.5-3.4-1.5-4.4-.1-.7.9-2.7 1.5-5.4 1.5-3.7 0-4.2-.2-3.7-2 .4-1.5 0-2-1.5-2-1.7 0-1.9-.5-1.4-2.8l.6-2.7-1.5 2.7c-1.2 2.2-2.3 2.8-5 2.8-2.3 0-3.9.7-4.8 2.1-1 1.4-1.7 1.7-2.2.9-.4-.6-1.3-.9-2.1-.6-.8.3-1.4.1-1.4-.5s-.8-.9-1.7-.7c-1 .2-1.8.8-1.8 1.5 0 .6-.3 1.5-.7 1.9-.5.4-.8.2-.8-.4 0-.7-1.3-1.2-2.9-1.2-1.6 0-3.7-.7-4.5-1.6-1.5-1.4-1.6-1.4-1.6.5 0 1.1-.5 2.3-1.2 2.7-1 .7-.9-2.5.4-7.5.1-.7-.3-1.6-1-1.8-.7-.3-1.5.7-1.8 2.6-.4 2.1-1.6 3.6-3.7 4.6-3.7 1.9-3.7 1.9-3.7-.1 0-1 .6-1.4 1.4-1.1.8.3 2.2-.1 3.3-.8 1-.8 1.3-1.5.7-1.5-.5 0-1.9-.7-3-1.6-1.6-1.3-1.6-1.5-.2-1 1 .3 2 0 2.4-.7.4-.7.4-.9-.1-.5-.4.4-1.4.3-2.2-.4-1.9-1.5-3-.1-1.6 2.2 1 1.4.9 2.1-.3 3.1s-1.8.8-3-.7c-1.3-1.6-1.5-1.6-1-.2.3 1 .1 2-.5 2.3-.5.4-.7 1-.4 1.5.3.5.1 1.1-.5 1.5-.5.3-1 .2-1-.4 0-.5-.3-1.7-.7-2.7-.5-1.2-.3-1.5.6-.9.9.5 1.2.2.9-.9-.4-2-2.3-2.2-2.3-.4 0 .7-.6 1.3-1.2 1.2-.7-.1-2.5-.2-3.9-.3-1.8-.1-2.4-.5-2.1-1.5.4-1.1.1-1.3-1-.9-.9.4-2.2-.2-3.2-1.6-1.7-2.2-1.7-2.2-3.9-.3-1.2 1.1-2.2 2.5-2.2 3.1 0 .8-.8 1-2.2.6-1.6-.6-2-.4-1.5.7.3.8-.4 2.3-1.5 3.3-2.1 1.7-6.8 2.8-6.8 1.5 0-.4-1.1-.5-2.5-.2-2.1.4-2.4.1-1.9-1.4 1.1-3.2 3.4-4.5 5.8-3.2 1.1.6 2.4 1.6 2.8 2.2.5.7 1.1.7 2-.3 1-1 1-1.2.1-.7-1.5.8-1.8-1-.3-1.9 2.1-1.3.9-2.6-2.2-2.3-3 .3-3.3.1-3.3-2.5.1-1.5-.3-2.7-.7-2.7-.4 0-.5-.6-.2-1.4.5-1.2 1.1-1.2 4 .5 3.8 2.1 6.4 1.5 8.3-1.9.9-1.6 1.1-1.6 2.5.3 1.1 1.4 1.4 1.5 1 .4-.3-1.1.2-1.8 1.5-2.2 1.8-.4 2-.1 1.5 1.8-.4 1.8-.1 2.3 2 2.7 1.9.4 2.6.1 2.6-1 0-1.2.2-1.2 1.7-.1 1 .9 1.4.9 1 .2-.5-.7.2-1.8 1.5-2.7 1.8-1.2 6.2-1.5 20.5-1.5 10.1 0 18.5.4 18.8.9.7 1.1 6.8.5 7.2-.7.2-.5 2.2-.7 4.4-.5 2.2.3 4.6-.1 5.2-.7.7-.7 1.4-.7 2.4 0 .7.7 1.3.7 1.3.2 0-.6 5.1-1 12.6-1.1 6.9 0 12.7-.2 12.9-.4.8-.8 25.5-.9 25.5 0zm325 2.7c0 .8-.7 1.5-1.5 1.5-1.6 0-2-1.2-.8-2.3 1.1-1.2 2.3-.8 2.3.8zm-476 2c1 1.2 1.6 1.3 2.6.4 1.1-.9 1.4-.8 1.4.1 0 .7.7 1 1.5.6.8-.3 2.1.1 2.9.9 1.1 1.1 1.5 1.2 1.9.2.2-.6.4.2.3 2-.1 2.3-.7 3.5-2.4 4.3-2.4 1.1-2.5.6-.5-4.6.2-.6-.7-1.4-2.1-1.6-1.5-.3-2.6-.1-2.6.5 0 .7-.4.7-1.2-.1-.7-.7-1.9-1.2-2.8-1.2-.9 0-1.7-.7-1.7-1.5 0-1.9 1.1-1.9 2.7 0zm-5.7 5.2c-.7.3-1.3 1.1-1.3 1.9 0 .8-.5 1.4-1.2 1.4-.6 0-.8-.3-.5-.7.4-.3.2-1.2-.5-2-.8-1.1-.7-1.2.5-.8.8.4 1.8.1 2.2-.5.4-.6 1-.8 1.4-.4.3.4 0 .9-.6 1.1zm258.3 2.6c-.3 1.8-.8 5.4-1.2 8.2l-.7 5-.8-4c-.4-2.5-.3-4.5.4-5.3 1.3-1.6-.6-3.2-3.8-3.2-1.5 0-1.2-.5 1.5-2.4 4.2-2.9 5.2-2.5 4.6 1.7zM15.5 719c-.3.5-.1 1 .4 1 .6 0 1.1.7 1.1 1.5 0 .9.6 1.2 1.5.9.8-.4 1.5-.1 1.5.5 0 1.6-3.7 1.3-4.4-.4-.3-.9-1.2-1.2-2.1-.8-1.2.4-1.3.8-.5 1.3 1.4.8.4 5-1.1 5-1.9 0-1.3-5.5.9-8.1 1.7-2 3.8-2.7 2.7-.9zm31.5 1.7c0 2.2-1.7 5-2.5 4.2-.5-.6 1.4-5.9 2.2-5.9.1 0 .3.8.3 1.7zm210-.8c0 .5-.7 1.4-1.5 2.1-1.3 1-1.5.9-1.5-.9 0-1.2.6-2.1 1.5-2.1.8 0 1.5.4 1.5.9zm233.5 7.7c5.6 2.1 5.9 3.9.6 3-2.8-.4-4.2-.2-5.1.9-1 1.2-1 1.6.1 1.9.8.2 2.1.7 2.9.9.8.3-.2.6-2.2.6l-3.8.1v-5.3c0-5.7.9-7.7 2.2-5.3.4.8 2.8 2.2 5.3 3.2zm-429.5-1c0 .2-.7.4-1.5.4s-1.5-.4-1.5-1c0-.5.7-.7 1.5-.4.8.4 1.5.8 1.5 1zm199.5 2.4c0 1.1-1.6 1.7-5.5 2.2-3 .4-7.3 1-9.5 1.4l-4 .6 2.7-2.1c1.4-1.1 3.4-2.1 4.5-2.1 1 0 2.5-.5 3.3-1 2.3-1.5 8.5-.8 8.5 1zm68.1 3.8c-3.2.2-6.1.1-6.4-.3-.3-.3.5-1.6 1.7-2.9l2.3-2.5 4.1 2.7 4.1 2.7-5.8.3zm-102.9-4.2c-.3.3-1.2.4-1.9.1-.8-.3-.5-.6.6-.6 1.1-.1 1.7.2 1.3.5zm185.3.6c1.7 1.1 2.2 1 2.9-.1.7-1 1.3-1.1 3-.2 3.9 2.1 2.2 3.1-5.2 3.1-8 0-9.6-.6-6.9-2.6 2.2-1.7 3.7-1.7 6.2-.2zm-230.7.5c-.7.2-1.9.2-2.5 0-.7-.3-.2-.5 1.2-.5s1.9.2 1.3.5zM5 732c1.2.8 1.1 1-.7 1-1.3 0-2.3-.5-2.3-1 0-1.3 1.1-1.3 3 0zm44.7-.4c-.3.3-1.2.4-1.9.1-.8-.3-.5-.6.6-.6 1.1-.1 1.7.2 1.3.5zm166.3 6c0 2.1.4 3.3 1 2.9.6-.4.8-1 .5-1.5-.3-.5.2-1.8 1.2-3 2.2-2.5 11.7-2.9 12.6-.5.9 2.1-.4 11.7-1.7 13.4-.9 1.2-.8 1.3.3.7 1.1-.7 1.2.1.6 5-.4 3.2-.8 6.5-1 7.4-.1.8-.6 4.5-1 8.2-.3 3.7-1 6.9-1.3 7.1-.4.2-2.2-.2-4.1-.8-3-1.1-3.1-1.3-1.2-1.8 1.3-.3 2.1-1.3 2.1-2.5s.5-2.4 1-2.7c1.4-.8 1.3-7.2-.1-8.1-.6-.3-1.4-.2-1.8.5-.4.6-1.2-.4-1.9-2.4-1-2.7-1-3.8 0-5.5 1.1-1.8 1-2.3-.4-3.1-1-.6-1.8-1.6-1.8-2.4 0-.8-.5-1.7-1.2-2.1-.7-.5-.9-.2-.6.8 1 2.5-3.8.9-5.3-1.8-.7-1.3-1.6-2.4-2.1-2.4-1.3 0-.9 1.2 1 2.7 1.6 1.3 1.6 1.4-.3.9-3.5-.9-6.6 2.4-6.8 7.3-.1 3.1-.8 4.7-2.1 5.5-1.4.8-2 .8-2.3-.1-.3-.9-1.1-.8-2.9.3-2.6 1.7-2.6 1.7-3.8-3.6-.5-2.3-6.6-7-6.6-5 0 .5-5.9 1-13 1.2-7.2.2-13-.1-13-.5 0-.5-.4-.6-.9-.2-1.1.6-2.6-3.3-1.7-4.3.3-.3 1.3.3 2 1.4 1.4 1.9 1.4 1.9 1.3-.1-.1-1.3.4-2 1.8-2 1.1.1 2.6-.6 3.3-1.5 1.2-1.3 1.3-1.3.8.3s0 1.8 4.6 1.5c4.1-.2 5.4-.7 5.6-2.1.4-2.2-1.6-2.2-4 0-1 .9-1.8 1.1-1.8.5 0-.6-.7-.9-1.5-.6-.8.4-1.5.2-1.5-.4 0-.5.7-1.2 1.5-1.6.8-.3 1.5-1 1.5-1.6 0-.6-.7-.6-2 .2-3.2 2-4.7-.5-1.6-2.6 1.5-.9 2.6-2.3 2.6-3.1 0-.9.9-1.5 2.3-1.5 1.8 0 1.9.2.7 1-1.3.8-1.2 1 .3 1 .9 0 1.7-.5 1.7-1 0-.6 1.2-.9 2.8-.9 2.2.1 2.3.3.5.6-1.2.2-2.4 1.1-2.7 2-.5 1.3-.4 1.3.8.4.7-.6 2.1-.9 3-.5 1 .4 1.8 0 2.2-1 .7-1.9 3.5-2.1 5.3-.4.8.7 1.1.8.8.3-.6-1.2 13.7-1.4 14.9-.3.4.4 1.4.3 2.1-.4 1.1-.9 1.9-.9 3.3 0 1.2.7 2.1.8 2.5.2.4-.6 1-.8 1.5-.5.5.3 1.1.1 1.5-.5 1.2-1.9 2.5.1 2.5 3.6zm48.5-2.3c1.2 1.9 1.4 5 1 17.2-.3 8.2-.8 15.2-1.2 15.6-.5.4-5.1 1.2-10.3 1.9-5.2.6-11.9 1.5-14.8 1.9-2.9.4-5.5.4-5.7 0-.3-.4 0-6.5.6-13.6 1-10.8 1.6-13.5 3.8-17.1 1.4-2.3 3.5-4.4 4.6-4.7 1.1-.2 4.7-1 8-1.8 9.1-2.3 12.2-2.1 14 .6zm39.8 3.7c.9 6.7.5 9.6-1 6-.6-1.4-2.4-3.7-3.9-5.2-3.8-3.5-12.7-4.8-17.2-2.4-3.9 2-7.4 6.5-6.9 8.8.3 1 .1 2.1-.4 2.4-1 .6-1.3-13.9-.2-15 .4-.3 7-.5 14.7-.4l14.1.3.8 5.5zm-165.7-2.3c-1 1-1.9-.5-1-1.8.6-1.1.8-1.1 1.2 0 .2.7.1 1.5-.2 1.8zm9.2-1.7c.7 0 1 .5.6 1.1-.4.7.4 2 1.7 3 2.5 1.9 2.3 2.8-.8 3.4-1 .2-2 .4-2.2.4-.2.1.2.8.9 1.6.6.8.9 1.9.6 2.4-.4.5-.1 1.3.5 1.7.8.4.9.3.5-.4s-.1-1.2.8-1.2c1 0 1.3-.6 1-1.5-.7-1.8 3.1-5.5 5.6-5.5.9 0 2.1-.5 2.7-1.1 1.2-1.2 5.4 2.2 5.2 4.3 0 .9-.2.9-.6-.1-.4-1.1-.7-1.1-1.4 0-.6 1.1-1.2 1-2.8-.5-1.9-1.8-4.1-1.5-4.1.5 0 .6.5.7 1 .4 1.4-.9 1.3.1-.5 3.5-.8 1.6-2.4 3.4-3.4 4-2.5 1.3-3.4 1.3-2.5-.1.4-.7-.1-.7-1.6.1-3.1 1.7-6.8 2.2-7.5 1-.3-.5-1.3-1-2.1-1s-1.2.4-.9 1c.3.5.1 1-.4 1-1.2 0-1.5-2.3-.5-3.3.4-.3 1.4-.2 2.3.3 1.3.7 1.7.3 1.9-1.7.2-2.2 0-2.4-1.3-1.3-.9.7-2.7 1-4.4.7-1.6-.3-3.2-.3-3.5 0-1.1 1.1-4.8 1.4-4.1.3.4-.6-.3-.6-2.1 0-2 .8-3.2.7-4.9-.4-1.2-.8-2.7-1.1-3.4-.7-1.8 1.1 1.4 4.2 3.5 3.4.9-.3 2 0 2.5.8.6 1.1 1.1 1.1 2.1.1 1.7-1.7 2.8-1.5 2.8.4 0 1-.6 1.4-1.5 1-.8-.3-1.5-.2-1.5.3 0 .4-.7.8-1.5.8s-1.5-.4-1.5-.9-.4-.6-1-.3c-.5.3-3.8.8-7.2 1-4.8.2-6.7 0-8.2-1.3-1.8-1.6-1.9-1.6-1.3 0 .5 1.5 0 1.8-3.1 1.8-2.1 0-4.8-.7-6.1-1.7-2.2-1.5-2.5-1.5-3.7.2-.8 1-1.7 1.5-2.1 1.2-.4-.4-.2-1.2.4-1.8.6-.6.9-1.7.7-2.4-.4-.9 1.3-1.6 5.3-2.3 3.1-.5 6.2-.9 6.8-.7.5.1.7 0 .3-.2-.5-.3.6-1.8 2.2-3.5 2.1-2.1 3.4-2.7 4.3-2 2 1.5 6.6 2.1 6.1.7-.4-.8.6-1.2 2.8-1.2 1.8.1 4.2-.2 5.3-.7 1.5-.5 1.7-.4.8.5-1.7 1.7-.5 4.3 1.4 2.8.8-.7 1.3-.8 1.2-.3-.4 2.3.4 3 3.7 2.9 2.7-.1 4.3-.9 6-2.9 1.3-1.5 2.4-2.2 2.4-1.5 0 .8.5.8 1.6-.2 1.4-1.2 1.6-1.1 1.2.6-.2 1.3-1 1.9-2.3 1.7-2.7-.5-.7 1.4 2.5 2.3 2 .6 2.3.5 1.3-.5-.9-1-.9-2 .1-4.5.9-2.2 1.1-3.7.4-4.6-.7-1.1-1.1-1.1-1.5-.2-.2.7-1.2 1.3-2 1.3-1.3 0-1.3-.3-.2-1.6.7-.9 2.1-1.3 3.3-1 1.2.3 2.7.6 3.4.6zm6.2.5c0 .8-.7 1.5-1.5 1.5-1.6 0-2-1.2-.8-2.3 1.1-1.2 2.3-.8 2.3.8zm233.6 0c.3.8.1 3-.6 5-1.1 3.2-1.6 16-.8 21 .3 1.7-.3 2-3.9 2.3-4.5.3-5.9-1.2-2-2.2 2-.5 2.4-1.5 3.3-7.5 1.1-7.8.2-12.6-2.5-14.1-1.1-.5-5.2-.7-10-.3-7.2.5-8.4.9-10.2 3.2-1.5 1.8-1.9 3.5-1.6 5.7.7 4-1.9 7.9-5.2 7.9-3.1 0-3.7 1.8-1.4 4.1 1.3 1.2 1.4 1.9.5 2.2-1.7.5-1.5 2.9.4 3.6.9.3 2.9.6 4.4.6 1.6 0 3.2.5 3.6 1.1 1 1.6-1.2 3.3-3.3 2.4-1-.4-3.7-.9-6.1-1.1-2.3-.2-4.6-.5-5-.8-.9-.5-1.5-29.1-.7-31.6.5-1.5 2.4-1.7 15.2-1.9 8.1-.1 14.9-.4 15.2-.6.2-.3 2.6-.5 5.3-.5 3.3 0 5 .5 5.4 1.5zm-278 .4c-.4.5-.3 1.1.1 1.4.5.2.3.2-.4.1-1.2-.3-3.5 2.2-5.8 6.1-.9 1.5-1.5 1.6-3.3.6-1.2-.6-2.2-.8-2.2-.3s-1.9.6-4.3.2c-4.3-.6-4.4-.6-4.2 2.1.1 1.9-.2 2.6-1.2 2.2-1.6-.6-1.7-2 0-2.6.7-.3.5-.6-.5-.6-1-.1-1.8.6-1.8 1.4 0 .8-.6 1.6-1.2 1.7-2.9.3-3.4.4-5.3 1.5-1.1.6-3.9 1-6.2.8-2.4-.1-4.3.2-4.3.7 0 .5-.4.6-1 .3-.5-.3-1-1.6-1-2.8 0-1.4.3-1.8.8-1 1 1.6 10.4 1.2 9.7-.5-.3-.8.2-1.1 1.8-.7 1.5.4 2.6 0 3.5-1.5.8-1.4.9-1.9.1-1.8-.6.2-1.4-.3-1.7-1.1-.3-.8 0-1.1.7-.7.6.4 1.1.1 1.1-.9 0-2 3-3.2 4-1.6.5 1 1.1.9 2.2-.3.9-.8 1.9-1.1 2.4-.6.5.4 2 1 3.4 1.2 1.6.2 2.4.9 2.2 1.8-.3 1 .3.9 1.9-.5 1.2-1.1 1.9-1.4 1.5-.8-.4.8-.2 1.3.6 1.3.9 0 .9.3-.2 1-1.3.8-1.2 1 .4 1 1.5 0 1.7-.6 1.4-3-.4-2.7-.2-2.9 1.9-2.4 1.8.5 2.2.3 1.7-1-.4-1.2 0-1.6 1.6-1.6 1.1 0 1.9.4 1.6.9zm6.4 0c0 1.7-2.1 2.4-3.3 1.1-.9-1-.9-1.1.1-.6.6.4 1.2.2 1.2-.3 0-.6.5-1.1 1-1.1.6 0 1 .4 1 .9zm10 .5c0 .7-1 1.3-2.3 1.3-1.3 0-2.4-.6-2.4-1.3 0-.8 1.1-1.4 2.4-1.4 1.3 0 2.3.6 2.3 1.4zm9.3.1c-.3.9-.8 1.4-1 1.1-.3-.3-.2-.9.2-1.5.9-1.6 1.5-1.3.8.4zm26.7-.5c0 .5-.2 1-.4 1-.3 0-.8-.5-1.1-1-.3-.6-.1-1 .4-1 .6 0 1.1.4 1.1 1zm180.6 14.1c.2 18.1-.1 18.9-5.8 18.2-2.4-.4-5.3-1.3-6.6-2.1-2.1-1.3-2.1-1.6-.7-3.2 2-2.2 1.9-3-.2-3-1 0-2.6 1.2-3.6 2.6-1.8 2.4-1.8 2.6-.2 4.4 1.6 1.8 1.4 1.9-6.7 2.2-4.5.2-8.6.1-9-.2-.4-.3-1-7.9-1.4-17l-.7-16.5 17.4.1 17.4.2.1 14.3zM474.5 737c2.2.8 4.1 1.4 4.2 1.5.4.1-1.7 28.3-2.3 29.8-.3.9-1.2 1.7-1.9 1.7-2.3 0-2.5-3-.5-8.1 1.4-3.8 1.6-5.7.9-7.6-.5-1.3-.6-3.5-.3-4.8 1.3-5.2-3.6-9-12.9-10.1-8.3-1-10.1-.2-12.2 5.3-1.5 3.8-1.6 5.2-.7 7.7 1.3 3.4.2 5.5-1.8 3.1-1.6-1.9-4-1.9-4 0 0 1.7-4.6 3.9-6.2 2.9-1-.6-.5-15.8.7-20.5l.6-2.6 16.2.2c10.8.1 17.5.6 20.2 1.5zm-440.2-.2c-1.7 1.1-2 4.7-.3 4.7 1.6 0 4.2 4.4 3.4 5.7-1.1 1.8-2.4.7-2-1.7.3-1.3 0-2.7-.5-3.1-.5-.3-.9-.2-.8.3.3 2-.2 2.7-1.1 1.3-.6-1-1-1.1-1-.3 0 .7-.5 1.3-1.1 1.3-.8 0-.8-.4-.2-1.3 1.8-2.1 1.2-4.9-.9-4.4-1 .3-1.8.2-1.8-.2 0-1.5 2.5-3.1 5-3.1 1.4 0 2 .3 1.3.8zm5.7.2c0 .5-.5 1-1.1 1-.5 0-.7-.5-.4-1 .3-.6.8-1 1.1-1 .2 0 .4.4.4 1zm16.8 1.1c-1 .7-1 .9 0 .9.6 0 1.2.4 1.2 1 0 .5-.6.7-1.2.5-1.2-.5-1.5.7-1.8 6.7-.1 1-.5 1.8-1.1 1.8-.5 0-.8.5-.6 1.1.1.6-.4 1.4-1.2 1.6-1 .4-1.2-.4-.6-3.8.4-2.4 1.4-5.3 2.1-6.4.8-1.1 1.4-2.7 1.4-3.7 0-1.2.5-1.5 1.6-1.1 1.3.5 1.3.7.2 1.4zm14.2-1.7c0 .3-.4.8-1 1.1-.5.3-1 .1-1-.4 0-.6.5-1.1 1-1.1.6 0 1 .2 1 .4zm8 1.1c0 .9-.6 1.2-1.6.8-1.3-.5-1.3-.7-.2-1.4 1.7-1.1 1.8-1.1 1.8.6zm54-.5c0 .5-.5 1-1.1 1-.5 0-.7-.5-.4-1 .3-.6.8-1 1.1-1 .2 0 .4.4.4 1zm-80 1c0 1.6-1.7 1.9-3.4.7-1.4-1.1-1.3-1.2.9-1.3 1.4-.1 2.5.2 2.5.6zm444 1.6c0 1.4-1 3.4-2.2 4.3l-2.2 1.8 2.2 1.9c3 2.6 3.2 10.8.2 12.4-2.6 1.4-2.5 3.2.1 4.8 1.5 1 1.9 2.1 1.7 4.5l-.3 3.2-7-.4c-6.9-.3-10-1.5-8.9-3.3.3-.5.9-7.5 1.2-15.6l.7-14.7 5-.6c9.5-1.1 9.5-1.1 9.5 1.7zm-422-.9c0 1.7-6.2 7.3-7.3 6.6-.8-.5-.8-.8.1-1.1 1-.3 1-.7.1-1.8-1.2-1.5-.4-1.8 3.4-1.5.9.1 1.7-.4 1.7-1.3s.5-1.6 1-1.6c.6 0 1 .3 1 .7zM48 740c0 .5-.5 1-1.1 1-.5 0-.7-.5-.4-1 .3-.6.8-1 1.1-1 .2 0 .4.4.4 1zm242.5.5c0 1.2-4 1.9-6.1 1.1-.9-.3-1.2-1.1-.9-1.6.8-1.4 7-.9 7 .5zM134 742.2c0 1.7-.3 1.9-.9.9-.5-.7-1.4-1-2-.7-1.2.8-1.5-.6-.4-1.7 1.4-1.5 3.3-.6 3.3 1.5zm162.5-1.2c.3.5.1 1-.4 1-.6 0-1.1-.5-1.1-1 0-.6.2-1 .4-1 .3 0 .8.4 1.1 1zm-267.8 5c-1 3.7-1.3 3.9-2.7 2.4-1.1-1.2-1.2-1.8-.3-2.1.7-.2.9-1.1.6-1.9-.3-.9.1-1.4 1.2-1.4 1 0 1.3-.5.9-1.2-.4-.6-.3-.8.3-.5.7.5.7 2 0 4.7zm34.6-3c.6 2.3-.8 2.6-2.9.6-1.1-1.1-1.1-1.6-.1-1.9 2.1-.9 2.5-.8 3 1.3zm16.1-.9c-.3.6-.1 1.5.6 1.9.7.5.2.7-1.4.7-3 0-3.4-1.1-.8-2.6 2.2-1.3 2.5-1.3 1.6 0zm-36.4 2c0 .6-.4.7-1 .4-.5-.3-1-1.1-1-1.6 0-.6.5-.7 1-.4.6.3 1 1.1 1 1.6zm335.4-1.5c.9.3 1.6 1.3 1.6 2.1 0 1-.6 1.3-1.6.9-.9-.3-2.5-.6-3.6-.6-1.7 0-1.8-.3-.8-1.5 1.4-1.7 2.1-1.8 4.4-.9zM368 744c0 .5-.7 1-1.5 1s-1.5-.5-1.5-1c0-.6.7-1 1.5-1s1.5.4 1.5 1zm87 0c0 .5-.5 1-1.1 1-.5 0-.7-.5-.4-1 .3-.6.8-1 1.1-1 .2 0 .4.4.4 1zm10.3 1.5c-.4 1.5-3.6 1.2-4.1-.3-.3-.9.3-1.3 1.9-1 1.3.1 2.3.7 2.2 1.3zm7.7 1.1c0 .2-.9.4-2.1.4-1.1 0-1.8-.4-1.4-1 .5-.8 3.5-.3 3.5.6zm-427 1.2c0 1.2-.3 1.2-1.5.2-.8-.7-1.5-1.3-1.5-1.5 0-.1.7-.2 1.5-.2s1.5.7 1.5 1.5zm19 .1c0 1.4-.2 1.4-1 .1-.8-1.2-1-1.1-1 .7s-.6 2.3-2.5 2.3c-1.4 0-2.8 0-3.2.1-.5 0-1-.8-1.2-1.7-.2-1.2.2-1.5 1.3-1.1 1 .4 1.6.1 1.6-.7 0-.7 1.2-1.3 3-1.3 2.1 0 3 .5 3 1.6zm-24.3 1.7c.4 1.1.8 1.2 1.3.4.5-.8 1.4-.8 3.4 0 2.2.8 2.5 1.2 1.4 2.3-1.7 1.6-6.8 1.8-6.9.3-.1-.6-.1-1.7 0-2.5.2-.7-.2-1-.8-.6-.6.3-1.1.1-1.1-.4 0-1.7 2-1.3 2.7.5zm264.5 8.9c0 4.7-.3 8.9-.6 9.2-.9.9-29.6 1.5-29.7.6-.5-4.5-.2-18.3.4-18.3.4 0 .7.7.7 1.6 0 .9 1.5 3.1 3.3 4.8 1.7 1.7 3.9 4 4.7 5 1.4 1.7 1.3 1.8-1.5 1.2-3.6-.7-5.8.5-5.3 3 .3 1.7 1.2 1.9 7.8 1.7 4.1-.2 8.8-.4 10.3-.5 3.4-.4 6.2-3.5 4.6-5.4-1.2-1.4-.4-5.6 1.9-10.1 2.4-4.8 3.4-2.7 3.4 7.2zm-269.8-7.9c.4 1 .1 1.4-.6 1.2-1.5-.5-2.3-2.8-1-2.8.5 0 1.3.7 1.6 1.6zm52.9 2c-.7 1.8-3.8 2.4-12.3 2.3-7.1 0-7.3-.1-4.5-1.3 2-.9 3.4-1 4.3-.3.8.6 1.2.6 1.2-.1 0-.8.8-.8 2.2-.3 2.4.9 5.7-.4 7.2-2.8.7-1.1 1-1.1 1.6-.1.5.7.6 1.9.3 2.6zM28 752c0 .5-.2 1-.4 1-.3 0-.8-.5-1.1-1-.3-.6-.1-1 .4-1 .6 0 1.1.4 1.1 1zm39.4 1.5c.4 1-.1 1.5-1.5 1.5-1.7 0-1.8-.2-.7-1.5 1.6-1.8 1.5-1.8 2.2 0zM32 754c0 .5-.7 1-1.6 1-.8 0-1.2-.5-.9-1 .3-.6 1-1 1.6-1 .5 0 .9.4.9 1zm27 .6c0 .2-.7.4-1.5.4s-1.5-.4-1.5-1c0-.5.7-.7 1.5-.4.8.4 1.5.8 1.5 1zm122.4 3.3c1.9.7 1.9.8.1 1.5-1.2.4-1.5 1-.8 1.7 1.3 1.3.4 6.9-1.2 6.9-.7 0-1.8-1.5-2.5-3.3-.7-1.7-1.4-2.6-1.7-2-.2.7-1.1 1.3-1.8 1.3-2 0-2.7 3.1-1 5 1.8 1.9 1.9 3 .4 3-.5 0-.8-.4-.5-.9.4-.5-.9-.8-2.8-.7-2.8.3-3.3 0-2.9-1.5.3-.9 1.9-3.1 3.6-4.9 2.5-2.6 2.8-3.3 1.6-4.1-1.1-.8-.9-.9.7-.4 2.5.7 5.6-.3 4.8-1.6-.6-1.1 1.3-1.1 4 0zM15 760c2.9-.5 5-.4 5.8.2.9.8 1.6.8 2.4 0 .7-.7 1.7-1.2 2.2-1.2.6 0-.4 1.3-2.3 2.9-2.4 2-3.2 3.2-2.5 4.2.5.8.7 2.2.6 3.1-.2 1.3.1 1.6 1.5 1.1 2.5-.9 5.3-3.4 4.8-4.3-.3-.4.7-.8 2.2-.8 1.4 0 3.2-.8 4-1.8 1.2-1.6 1.3-1.6 1.3.9 0 2.3-.4 2.7-3 2.7-2.4 0-3 .4-2.8 1.7.4 2.5 2 3.4 3.5 2.1.9-.7 1.3-.7 1.3 0 0 1.4-2.4 2.2-4.9 1.5-1.2-.3-2.1-.1-2.1.3 0 .5-1.7.9-3.7.9-4.1 0-6.3-2.6-4.2-5.1.8-1 .6-2.1-.7-4.4-1-1.6-2.2-3-2.7-3-.4 0-.5.5-.1 1.1.4.7 0 .9-1.4.5-2-.7-3.8 1.5-2.4 2.9.4.4.7 2.2.7 4.1 0 3.5-2 5.3-3.9 3.4-.5-.5-2.4-1-4.1-1H1.4v-6.4c0-4.8.3-6.3 1.3-5.9.7.3 1.1.9.8 1.3-1.4 2.2 3.3 6.8 5.6 5.5.6-.4 0-2-1.5-4-2.3-3-2.4-3.4-.8-3.8.9-.2 2.2.2 2.7.9.8.9 2.4 1 5.5.4zm135.7-.3c.2.6-.5 1.4-1.6 1.8-2 .6-2 .8-.6 3.5 1.8 3.5 1.9 6 .2 6s-3.9-3.7-2.6-4.5c.5-.4.8-2.1.5-3.8-.3-1.7-.2-3.5.1-3.9.7-1.2 3.5-.6 4 .9zm4.3-.8c0 1.2-2 2.5-2.7 1.8-.7-.7.6-2.7 1.8-2.7.5 0 .9.4.9.9zm7.5.1c.3.5-.1 2-1 3.3-.8 1.3-1.3 3.2-.9 4.1.4 1 .1 1.6-.7 1.6-1.1 0-1.1.2 0 .9.9.6 2.2.6 3.4-.1 1-.5 2.1-.7 2.4-.5 1.1 1.2-4.2 2.8-7.2 2.3-4.3-.8-5-3-1.9-6.3 1.5-1.6 2.2-3.3 1.8-4.5-.4-1.3 0-1.8 1.5-1.8 1.1 0 2.3.4 2.6 1zm107.7 8.6l-1 5.9v-8c-.1-6 .2-7.5.9-5.9.7 1.3.7 4.1.1 8zm90.5-3.4c-.9.5-3.9-.4-5.5-1.7-.2-.2.2-1.2.9-2.3 1.2-1.9 1.3-1.9 3.5.7 1.5 1.7 1.9 2.8 1.1 3.3zm-219.3-3.6c.4 1.1.1 1.4-1.1 1.2-.9-.2-1.8-.9-2.1-1.6-.6-1.8 2.5-1.5 3.2.4zm-98.3 2.8c-.7.8-2.1 1.2-3.1.9-3.1-.8-2.3-2.3 1.1-2.3 2.6 0 2.9.3 2 1.4zm78.4-.4c.3.5-.1 1-.9 1-.9 0-1.6-.5-1.6-1 0-.6.4-1 .9-1 .6 0 1.3.4 1.6 1zm323 1.3c-.7 1-1.1 2.5-.9 3.2.6 1.4-4.8 3.1-6.6 2-.5-.3-1-2.1-1-3.8 0-3.2.1-3.2 5-3.3 4.7-.1 4.8 0 3.5 1.9zM107 765c1.3.9 1.3 1.1 0 2-2.2 1.5-3 1.2-3-1s.8-2.5 3-1zm346.1 2.1c.8 1.6.6 1.9-1.5 1.9-1.9 0-2.4-.5-2.2-2.4.1-2.7 2.1-2.4 3.7.5zm-77.7 1c-.3.5-2.5.9-5 .9-3.2 0-4.4-.4-4.4-1.5 0-1.7 1.2-1.9 2.6-.5.7.7 1.7.5 3-.4 2-1.5 5-.3 3.8 1.5zm-178.1.4c1.9.5 2.7.3 2.7-.6 0-1 .3-1 1.1-.2 1.5 1.5.5 3-1.8 2.8-3.7-.3-6.3-1.7-6.3-3.3 0-1.1.3-1.3.8-.5.4.6 2 1.5 3.5 1.8zm-68.8.5c.4.6-.9 1-3.2.9-3.8-.1-3.8-.1-.8-.9 1.7-.4 3.1-.8 3.2-.9.1 0 .5.3.8.9zm8.2.6c-.3.3-1.2.4-1.9.1-.8-.3-.5-.6.6-.6 1.1-.1 1.7.2 1.3.5zM194 771c0 .5-.2 1-.4 1-.3 0-.8-.5-1.1-1-.3-.6-.1-1 .4-1 .6 0 1.1.4 1.1 1zm145.7 1c2.2 0 2.4.3 1.8 3.1-.9 4.1-1.3 6.2-1.4 7.2-.1.5-2-.8-4.3-2.8-2.3-1.9-5.3-3.8-6.6-4.2-2.1-.5-7.1.5-12.8 2.7-2.9 1.1-5.1 8.9-3.4 12 1.4 2.6 7.2 7.9 10.9 9.9l2.6 1.5-2.5.7c-1.4.4-5.4.7-9 .8l-6.5.1 3-1.8c2.3-1.4 3.4-1.6 4.7-.8 2.2 1.3 3.5 0 2.2-2.2-1.3-2-6.2-2.8-7.7-1.3-.6.6-1.4 1.1-1.9 1.1-.8 0 0-24.1.9-25 .6-.7 21.1-1.8 24.7-1.4 1.6.2 4 .4 5.3.4zm63.2.5c.2.3-1.2 2-3.2 3.9-4.1 3.7-4.5 5.5-2.1 9.1 1.5 2.4 1.5 2.5-.3 2.5-1 0-2.9.7-4.1 1.6-1.3.9-2.5 1.4-2.7 1.2-.7-.7-.8-17.6 0-18.8.5-.9 2.4-1.1 6.3-.6 3.1.4 5.8.9 6.1 1.1zm71.5.5c1 1-.6 25.8-1.8 27.9-.8 1.3-8.5 1.5-10.5.2-.7-.5-1.1-1.3-.7-1.9.3-.5-.2-1.3-1.2-1.7-1.1-.4-2.2.1-3.1 1.4-1.7 2.6-3.1 2.7-2.4.2.3-1.1-.2-2.1-1.1-2.4-2.1-.8-3.1 1-1.6 2.8 1 1.2.9 1.5-1 1.5s-2.1-.5-1.8-3.7c.2-2.8-.1-3.9-1.3-4.1-1.2-.2-1.8.8-2.3 3.8-.6 4.1-2.6 5.6-2.6 2 0-2.4-2.5-2.7-3.8-.4-.5.9-1.8 1.4-2.8 1.2-1.8-.3-1.9-1.3-1.8-13.1.1-7 .3-13 .6-13.2.2-.2 5.3-.9 11.4-1.4 12.3-1.1 26.3-.6 27.8.9zm-276.7 1.1c-.1 1.4-.4 1.5-1.4.7-1.7-1.4-1.6-2.5.1-2.5.8 0 1.4.8 1.3 1.8zm66.9 10.6c-.5 12-1.1 18.7-2.2 24-.3 1.9-1.1 2.3-3.9 2.3-2.4 0-3.5-.5-3.5-1.5 0-1.8-3.6-3.9-4.5-2.5-1 1.6 2.5 7.2 4.1 6.6 1-.4 1.4.3 1.4 2.4 0 2.3-.5 3-1.9 3-2.7 0-3.6 3.1-1.1 3.7 1.6.4 1.9 1.1 1.4 2.7-1 3.5-2 3.9-5.5 1.9-2.5-1.3-5.6-1.8-11.6-1.8-8.1 0-8.3-.1-8.3-2.4 0-1.9.3-2.1 1.4-1.2 1.3 1.1 4.6.5 4.6-.8 0-1.4-2.3-2.9-3.7-2.4-1.1.4-1.4 0-1.1-1.8.2-1.8.9-2.4 2.8-2.4 3 0 3.4-2.9.5-3.3-1.7-.2-2-.9-1.7-4.2.6-5.9 2.5-6.6 17.5-6.5 7 0 12.7-.3 12.7-.7 0-2.2-5-3-15.4-2.6-6.1.3-11.8.7-12.6.9-1.2.3-1.5-1.3-1.8-9.6-.1-5.5.2-10.6.6-11.3.5-.7 3.8-1.7 7.3-2.2 3.5-.5 9.1-1.4 12.4-1.8 3.3-.5 7.5-1 9.3-1.1l3.3-.1-.5 12.7zm40.6-10c.2 3.3.2 3.7-.5 17.3-.6 11.5-.8 11.8-7.7 11.9-3.5.1-3.6.1-4.6-5.4-.9-5-.8-5.7.9-6.8 1.5-1 1.9-2.7 2.2-10 .3-7.8.1-8.8-1.3-8.5-1.2.2-1.7 1.4-1.7 3.5 0 4.8-1.6 5.8-5.3 3.5-2.3-1.3-2.8-2.2-2.1-2.9 1.3-1.3.2-3.6-1.4-3-1.5.5-1.8 7-.3 7.9.6.4 1.1 2.7 1.1 5 0 3.5.4 4.5 2.3 5.3 1.2.5 2.2 1.7 2.3 2.5.7 9.6.9 8.9-3.6 9.6-9.8 1.4-10.2.7-10.7-18.4l-.3-12.7 4.5-.5c2.5-.3 9.3-.6 15.3-.8l10.7-.3.2 2.8zm80.8.3c.4 1.4.5 3.8.4 5.5-.2 1.6-.6 6.4-.9 10.6l-.6 7.6-8.7.8c-4.8.5-14.4.9-21.4 1l-12.6.2.9-2.6c.6-1.4.8-3.5.5-4.7-.7-2.6 1.1-17.1 2.4-19.4.7-1.3 3.8-1.5 20.1-1.5h19.3l.6 2.5zm-269.7-1.3c1.5.2 2.7.9 2.7 1.3 0 .5-.7.7-1.5.4-.8-.4-1.5-.1-1.5.5 0 .7.6 1.4 1.4 1.7.9.3 1.3 2 1.2 4.9-.1 2.4.2 4.1.5 3.9.4-.2.9.3 1.2 1.1.3.7-.5 2.4-1.8 3.7-2.7 2.5-3.2 4.4-1.2 5.1.6.3.3.6-.8.6-2.2.1-4.9 3.6-4 5.1.4.6.1 1-.4 1-.6 0-1.1-.6-1.2-1.3 0-.9-.2-.9-.6.1-1 2.4-2.2.1-1.3-2.4 1.3-3.2 1.3-3.1-.4-3.7-1-.4-1.3.3-1.2 2.5 0 1.7-.4 3.3-1 3.5-1.6.5-2.8-4.7-1.5-6 .6-.6 1.1-3.2 1.1-5.8 0-2.6.4-5.1 1-5.4.6-.4.7.1.3 1.1-.4 1.2-.3 1.5.5 1 .7-.4 1.2-.2 1.2.3 0 1.8 2.4 1.2 3.8-.9 1.1-1.8 1-2-1.4-2-1.4 0-3.5-.5-4.6-1.1-1.3-.7-1.8-.7-1.4-.1 1 1.7-1.1 2.3-2.4.7-.7-.8-1.9-1.5-2.6-1.5-2.3 0-1.6-1.5 1.6-3.3 1.7-1 3-2.3 3-2.8 0-2.1 5.6-3.2 11.3-2.2zm313.8 11.8c-.2 6.6-.7 13-1.2 14.3l-.9 2.4-18-.4c-15.4-.3-18.2-.5-19.7-2-2.7-2.8-.4-3.9 3.8-1.9 2.5 1.2 4.2 1.5 5.3.9.9-.5 3.8-.6 6.4-.2 2.6.4 6.3.6 8.2.5 1.9-.2 5.6-.3 8.3-.2 3.4.1 4.7-.3 4.7-1.3 0-2.2-2.6-2.7-10.2-1.9-5.3.4-6.9.3-6.4-.5.4-.7 1.9-1.2 3.4-1.2 3.7 0 9.9-2.3 12-4.3 1.2-1.3 1.6-3.2 1.4-7.4-.1-3.2-.7-6.2-1.2-6.7-1.8-1.8-1.1-2.7 1.8-2.4l2.7.3-.4 12zm-304.6-10.6c.3.5.1 1.2-.5 1.6-.5.3-1-.1-1-.9 0-1.8.6-2.1 1.5-.7zm5.2 1.3c-.3.8-.6.5-.6-.6-.1-1.1.2-1.7.5-1.3.3.3.4 1.2.1 1.9zm48.8-.3c-.8 1.4-3.2 1.4-4 .1-.3-.5 0-.7.8-.4.8.3 1.8 0 2.2-.6.4-.6.9-.9 1.2-.6.3.2.2.9-.2 1.5zm90.6 12.6c.2 7.2 0 13.6-.4 14.3-1.9 2.9-2.6-.5-2.1-10.6.5-10.9 1.3-17.7 1.9-17.1.2.2.5 6.3.6 13.4zm224.2-12.2c3.4 1.1 2.8 1.9-1.9 2.4-7.9.8-12.4 5.4-10.9 11 .5 1.5.7 3.5.6 4.4-.1.8.7 2.3 1.8 3.3s1.7 2.3 1.5 3c-.7 1.8 1.9 3.7 4.6 3.4 1.3-.2 2.5.3 2.7.9.6 1.6-2.9 1.7-9.9.1-2.9-.6-5.4-1.2-5.6-1.3-.3-.3 1.8-25.8 2.3-27.3.5-1.5 10.3-1.5 14.8.1zm-87.7 1.5c-.5.9-5.6 2.3-5.6 1.6 0-.6 5.5-3.2 5.9-2.9.1.2 0 .8-.3 1.3zm-208.9 2.6c-.7 1-1.7 2.7-2.3 3.8-1.2 2-2.2 1.4-1.8-1 .1-.6.2-2 .3-3 .1-1.1.9-1.7 2.5-1.7 2.1 0 2.3.2 1.3 1.9zm132.3-.9c1.1 1.3.8 1.5-1.3 1.5-2.6 0-4.2-1.2-3-2.4 1.1-1.1 3-.7 4.3.9zm-200 1.7c0 .7.5.6 1.4-.1 2-1.7 4.8-.2 4.4 2.3-.2 1.6-.9 2-2.7 1.8-2-.3-5.6-2-8.1-4-.2-.1.2-.7.9-1.2 1.6-1 4.1-.2 4.1 1.2zm73.4 1c-.3.5-1.2.7-2 .4-.7-.3-1.6 0-2 .6-.5.7-.2.8.7.3 1.2-.8 1.2-.6 0 .8-.7.9-1.7 1.7-2.2 1.7-1.2 0 .1-3.3 1.8-4.7 1.7-1.3 4.6-.6 3.7.9zm19.1-1.2c.3.5-.1 1-1 1s-1.3-.5-1-1c.3-.6.8-1 1-1 .2 0 .7.4 1 1zm-43.5 1c0 .5-.2 1-.4 1-.3 0-.8-.5-1.1-1-.3-.6-.1-1 .4-1 .6 0 1.1.4 1.1 1zm-156 1c0 .5-.2 1-.4 1-.3 0-.8-.5-1.1-1-.3-.6-.1-1 .4-1 .6 0 1.1.4 1.1 1zm147.4 1.1c-.6 1.1-2.4.2-2.4-1.1 0-.5.7-.7 1.5-.4.8.4 1.2 1 .9 1.5zm-157.8.2c.4.4-.1.9-1 1.3-.9.3-1.6 1.7-1.6 3.1 0 1.3-.4 2.2-1 1.8-.5-.3-.7-1.2-.3-2 .3-.9 0-2.1-.6-2.9-.6-.7-.8-1.6-.5-1.9.8-.8 4.1-.4 5 .6zm128.3 1.9c1.3 2 1.2 2.2-.1 1.1-.8-.7-1.8-1-2.1-.6-.4.3-.7-.1-.7-1 0-2.4 1.3-2.1 2.9.5zm151.1 2.2c-1.7 2.2-4 2-4-.2 0-3 2.1-4.5 3.9-2.8 1.2 1.2 1.2 1.8.1 3zm-119.6 1.8c-.4 1.3-.7 2.8-.6 3.5.2.6-.2 1.4-.7 1.7-.5.3-1.1-1-1.3-3-.3-2.5.1-3.8 1.1-4.4 2.1-1.1 2.4-.6 1.5 2.2zm166.9 3.1c-.4 2.8-1 3.7-2 3.3-.8-.4-2.1-.6-3-.6-1.1 0-.8-.8 1.1-3.1 1.4-1.7 2.6-3.6 2.6-4.2 0-.7.3-.8 1-.1.5.5.7 2.6.3 4.7zM154 791.6c0 .2-.9.4-2.1.4-1.1 0-1.8-.4-1.4-1 .5-.8 3.5-.3 3.5.6zm-54.5 1.6c-1.9 1.1-3 .5-2.1-1.1.4-.6 1.4-.7 2.2-.4 1.5.5 1.4.7-.1 1.5zm-14.7.1c.8 1 .6 1.3-1.1 1.4-1.2 0-1.6-.1-.9-.4.6-.3 1-.9.6-1.4-.8-1.4.2-1.1 1.4.4zm39 1.6c1.2 3.3.5 4.6-1.5 3-1.5-1.3-1.8-5.9-.4-5.9.5 0 1.4 1.3 1.9 2.9zm75 .2c-2.5 1.6-2.7 1.2-1.9-3 .1-.2.8.2 1.6.9 1.3 1.1 1.3 1.5.3 2.1zm4.2-.4c0 1.9-.3 2.4-1 1.7-.6-.6-.8-1.8-.4-2.7.9-2.4 1.4-2.1 1.4 1zm-166.6 1c.9 2.3-1 4.1-2.6 2.4-1.1-1.1-1-1.4 0-1.8.6-.3 1-.9.6-1.4-.3-.5-.1-.9.4-.9.6 0 1.3.8 1.6 1.7zm34.4-.2c.2.2-2.1.3-5 .3-3.5 0-4.6-.3-3.3-.8 1.8-.6 7.5-.3 8.3.5zm51.9 5.1c-.9.9-2.8-.6-2.1-1.8.4-.6 1-.6 1.7.1.6.6.8 1.3.4 1.7zm9.1-.5c2 2.1 1.9 5.3-.1 6.6-.6.4-.8 0-.4-1 .4-1.2 0-1.5-2.2-1.2-2.6.3-2.8.1-2.3-2.3.4-2.2 1.7-4.1 2.9-4.2.1 0 1.1.9 2.1 2.1zM85 800c0 .5-.7 1-1.6 1-.8 0-1.2-.5-.9-1 .3-.6 1-1 1.6-1 .5 0 .9.4.9 1zm14 5c0 1.1-.2 1.2-.8.3-.6-.9-1.4-.6-3.2 1-2.4 2.1-2.6 2.2-4.2.6-1.5-1.6-1.4-1.8 1.3-2.9 1.9-.8 2.9-2 2.9-3.4 0-2 .1-2 2 .4 1.1 1.4 2 3.2 2 4zm241-3.9c0 .5-1.3.9-3 .9-3.5 0-4.1-1.7-.7-2.2 2.6-.5 3.7-.1 3.7 1.3zm-313 3.4c.5-.3 1.1-.1 1.5.5.4.6 1.1.7 1.7.4.7-.4.8-.2.4.4-1.1 1.8-6.6 1.5-6.6-.3s-2.1-2-3.9-.3c-1.1 1.1-1.2 1-.7-.2.3-.8.9-2.3 1.2-3.2.5-1.5.9-1.4 3.1.8 1.3 1.3 2.8 2.2 3.3 1.9zm9.2-.3c-1.2 1.2-3.5.1-2.7-1.2.3-.5 1.3-.6 2.1-.3 1 .4 1.2.9.6 1.5zm349.1 1.3c-.2 1.7-.4 6.8-.6 11.5-.3 10.3-.9 11.6-4.2 9.4-1.8-1.2-2.8-1.3-4.5-.4-2.2 1.2-4 .6-4-1.4 0-1.7 6.1-6.1 8.4-6.1 1.1 0 2.1-.6 2.4-1.4.3-1-.1-1.2-1.7-.8-1.6.4-2.1.1-2.1-1.4 0-3-2.7-7.7-4.9-8.4-1.1-.3-3.1-.3-4.5.1-2 .5-2.6.2-2.6-.9 0-1.5 2-2 12-3 6-.6 6.5-.4 6.3 2.8zm67.4-1c19 .4 20.3 1 20.3 8.7 0 5.5-1.6 5.7-2.2.3-.2-2.3-1.2-3.5-4-5-3.6-1.9-3.8-1.9-6.8-.2-2.5 1.5-3.7 1.7-6.1.8-6.3-2.2-11.1 2.7-11.5 11.8-.3 4.7 0 5.7 2.6 8.2 1.7 1.7 3.9 2.9 5.4 2.9 1.4 0 2.6.4 2.6.9s.3 1.6.6 2.5c.5 1.3-.3 1.6-5.1 1.6-9 0-9.5-.5-9.3-10.8.1-6.8-.4-10.1-2.2-15-1.3-3.4-2.7-6.5-3.1-6.8-1.9-1.2-.8-2.4 1.2-1.4 1.2.7 8.8 1.3 17.6 1.5zm-349.9-.3c-.6 1.8-2.8 2.1-2.8.4 0-.9.7-1.6 1.6-1.6.9 0 1.4.5 1.2 1.2zm-16.7 3.1c-1.3 1.3-3.1 0-2.4-1.9.4-1.1.8-1.2 2-.3.9.8 1 1.6.4 2.2zm274.9-2.1c0 .4-1.5 1.7-3.2 2.9-5.5 3.8-10.8 9.8-10.8 12.1 0 5.2 7.7 7.8 12.8 4.2 2.3-1.6 5.2-1.3 5.2.5 0 .5-1 .7-2.2.3-2.1-.5-2.2-.4-.9 1.1.8 1.1 2.1 1.5 3.2 1.2 2.1-.7 2.5.5.7 2.3-.8.8-4.6 1.2-10.5 1.2-9.3 0-9.4 0-10.5-2.8-1.2-2.9-2.3-20.4-1.5-22.6.4-1.1 2.7-1.4 9.1-1.3 4.7.1 8.6.5 8.6.9zm-222.7 1.6c-.2.7.2 1.2.7 1.2 1.5 0 1.2 1.7-.5 2.4-.8.3-1.4 0-1.2-.7.1-.7-.4-1.1-1-1-.7.2-1.3-.6-1.3-1.8 0-1.4.5-1.9 1.8-1.7.9.2 1.6 1 1.5 1.6zm29.4-1.2c-.3.3-1.2.4-1.9.1-.8-.3-.5-.6.6-.6 1.1-.1 1.7.2 1.3.5zm259.1 1.4c-.7 1.1-1.8 2-2.4 2-.6 0-1.7.6-2.3 1.4-.9 1-.8 1.6.3 2.6 1.7 1.4 3.6.6 3.6-1.6 0-.8.9-1.4 2-1.4s2-.5 2-1c0-.6.4-1 .8-1 1.9 0 3.7 8.9 3.7 18v9.5l-2.7.3c-2.2.3-3-.2-3.8-2.2-1.1-3-1.7-3.2-4.2-1-2.5 2.3-19.4 2-22-.3-1.3-1.2-2.1-1.3-3.1-.4-1.4 1.1-6.9-.1-9-1.9-1.2-1-1.1-20.4.1-22.6 1-1.9 2.1-2.1 19.6-2.2 18.3-.2 18.6-.2 17.4 1.8zM54 808.7c0 2.8 1.1 2.9 3.5.3 2.1-2.4 3.7-2.6 2.9-.5-.4.8-1.2 1.5-1.8 1.5-.7 0-1.3.7-1.3 1.5s.4 1.5.9 1.5.6.5.2 1.1c-.5.8-.9.7-1.4-.1-.5-.7-2.1-1.3-3.6-1.4-2.3-.1-2.9-.7-3.4-3.1-.6-2.6-.4-3 1.7-3 1.7 0 2.3.6 2.3 2.2zm13.3-2c-.7.2-1.9.2-2.5 0-.7-.3-.2-.5 1.2-.5s1.9.2 1.3.5zm11.7.3c0 .5-.5 1-1.1 1-.5 0-.7-.5-.4-1 .3-.6.8-1 1.1-1 .2 0 .4.4.4 1zm193.6 2.1c-.3 1.7-.6 3.9-.6 4.8 0 1.1-.9 1.6-3 1.7-2.5.1-3-.3-3-2.3 0-2.3 4.3-7.3 6.3-7.3.5 0 .7 1.3.3 3.1zm31.8 6.1c-.5 6.8-1 9.6-2.2 10.3-.8.5-3 2.2-4.7 3.7-3.2 2.8-6.5 3.7-6.5 1.9 0-.5 1.3-1.9 2.8-3 1.5-1.1 3.6-3.5 4.7-5.4 1.6-3 1.7-3.9.6-6.5-2.3-5.6-4.1-6.5-10.8-5.3-5.9 1.1-8.3 2.9-8.3 6.3 0 1-.5 2.7-1.2 3.7-1.4 2.3 1 6.6 4.8 8.3 2.7 1.3 3 2.6 1 5.3-1.3 1.8-1.5 1.8-4.6-.8-3.5-3-6.2-3.4-7.9-1.3-.9 1.1-.6 1.8 1.8 3.5 1.6 1.2 3.4 2.1 3.9 2.1.6 0 1.4.4 1.7 1 .4.6-1.7 1-5.4 1-7.4 0-7.4 0-2.6-12.9 1.9-5.1 3.5-10.6 3.5-12 0-4.2 2.7-7.2 6.3-7.1 1.8.1 6.6-.3 10.7-.8s8.7-1 10.2-1.1l2.8-.1-.6 9.2zm34.4-.7c.2 6.4 0 7.7-1.1 7.2-.8-.3-2 0-2.6.6-.8.8-1.5.6-2.5-.9-1.1-1.4-1.8-1.6-2.6-.8-.9.9-.8 1.8.5 3.7 1.5 2.4 1.7 2.4 4.7 1 3.3-1.7 4.8-.8 4.8 2.9 0 2.2-4 2.4-7.1.5-1.7-1-2.2-.9-3 .5-1.3 2.4-10.9 2.6-10.9.3 0-1.7 1.6-2 2.6-.4.4.7.9.8 1.7 0 .7-.7.6-1.5-.2-2.5-.7-.8-1.1-2.7-.9-4.2.5-4.8-1.9-3.6-4.7 2.3l-2.7 5.8-1.6-3.5c-.9-1.9-1.6-3.8-1.6-4.1-.1-.3-.9-1.3-1.8-2.3-1.8-1.8-2.2-6-.9-10.6.7-2.5.8-2.5 14.1-3 7.4-.3 14-.5 14.5-.5.6.1 1.1 3.7 1.3 8zm149.7-6c7.4.9 8.1 1.2 5.9 3.6-1.5 1.7-1.5 2 0 4.3 2.5 3.9 2.1 7.3-.9 7.8-3.1.6-4.3-.8-1.5-1.7 2.2-.7 2.7-3 .8-4.1-.6-.4-1.8.2-2.7 1.2-.9 1.1-2.4 2.3-3.3 2.7-1 .3-1.8 1.2-1.8 1.8 0 .7-.8 2.1-1.7 3.1-1.5 1.7-1.5 2-.3 2.8 2.3 1.5 3 1.2 4-1.5 1.1-2.8 2.6-3.1 5.3-1.1 3.2 2.5-.3 6.4-4.5 5-1.4-.4-2.1 0-2.5 1.5-.4 1.5-1.3 2.1-3.4 2.1-1.7 0-3.1-.6-3.4-1.3-.2-.6-.6-6.7-.8-13.4-.5-12.4.1-14.7 3.3-13.9.8.2 4.2.7 7.5 1.1zm-124.5.9c0 .7-1.1 1.6-2.5 1.8-2.7.6-3.2-.1-1.3-2 1.6-1.6 3.8-1.5 3.8.2zM2.5 810c.3.5.1 1-.4 1-.6 0-1.1-.5-1.1-1 0-.6.2-1 .4-1 .3 0 .8.4 1.1 1zm15.9-.1c1 1.5-.3 3.5-3.4 5.3-4.1 2.3-4.9.4-1.4-3.3 2.9-3.1 3.9-3.5 4.8-2zm128.6 1.4c0 3-.6 3.6-3.1 3-1.2-.3-1.9-1.4-1.9-2.9 0-1.9.5-2.4 2.5-2.4s2.5.5 2.5 2.3zm15.3-1.7c.9 1-.4 3.4-1.9 3.4-.8 0-1.4-.6-1.4-1.3 0-2.2 1.9-3.5 3.3-2.1zm211.7-.2c0 .2.3 1.2.7 2.1.5 1.4.2 1.6-1.8 1-1.3-.5-3-.8-3.6-.8-1.4 0-1.7-1-.6-2 .7-.8 5.3-1 5.3-.3zm91.8.8c1.9 1.9 1.4 2.8-1.2 2.8-2.9 0-4.4-1.9-2.5-3.1 1.8-1.2 2.3-1.1 3.7.3zm-293.8.7c0 .5 1.1 1.1 2.5 1.3l2.5.3-2.3 2.8-2.2 2.8-3.8-2.7c-3.9-2.6-3.9-3.8-.2-4.7 3.2-.8 3.5-.7 3.5.2zm-149.3 2.2c.4 1.3 1.1 1.8 2.1 1.4 1.1-.4 1.2-.2.4.8-1.5 1.7.1 4.2 2.2 3.4 1.4-.5 1.5-.3.6 1.3-1.5 2.8-9.3 5.1-8.3 2.3.5-1.3.3-1.3-1.4-.2-1.1.7-2.8.9-3.7.6-1.6-.6-1.5-1 .6-3.6 1.3-1.5 2.7-2.6 3.2-2.3 1.2.7 2.6-2 2-4.1-.3-.9 0-1.7.6-1.7.7 0 1.4.9 1.7 2.1zm22.3-.6c0 .8-.9 1.5-2 1.5-2.2 0-2.7-1.5-.7-2.3 2.1-.9 2.7-.7 2.7.8zm21.7.6c-1.1.7-1.6 1.7-1.2 2.9.3 1.1 0 2-.9 2.3-1.2.5-1.5-.2-1.4-2.8.1-3.1.4-3.5 2.7-3.5 2.3.1 2.4.2.8 1.1zm148.3-.7c0 .3-.4.8-1 1.1-.5.3-1 .1-1-.4 0-.6.5-1.1 1-1.1.6 0 1 .2 1 .4zm-153.2 4.1c0 2.3-.2 2.4-1.3.8-1.3-1.8-1.1-3.3.4-3.3.5 0 .9 1.1.9 2.5zm88.2-1c0 .8-.2 1.5-.4 1.5s-.6-.7-1-1.5c-.3-.8-.1-1.5.4-1.5.6 0 1 .7 1 1.5zm-114.5.5c.3.5.1 1-.4 1-.6 0-1.1-.5-1.1-1 0-.6.2-1 .4-1 .3 0 .8.4 1.1 1zm225.5 1.7c0 2-.3 2.4-1.1 1.6-.7-.7-.9-1.9-.6-2.7 1-2.4 1.7-1.9 1.7 1.1zM6 817c0 .5-.9 1-1.9 1-1.1 0-2.3-.5-2.6-1-.4-.6.5-1 1.9-1s2.6.4 2.6 1zm71.3-.4c1.3.5 1.2.9-.5 2.6-1.6 1.6-1.8 2.2-.7 2.9 1 .6.6 1.1-1.5 1.9-3.5 1.3-4.4.7-2.5-1.7.8-.9.9-1.4.4-1.1-.6.4-1.7.3-2.5-.3-1.3-.7-1.3-.9 0-.9.8 0 2.1-.9 2.8-2 1.3-2.1 2.1-2.4 4.5-1.4zm44.7 1.7c0 2.2-1.1 2.7-3.1 1.4-2.6-1.6-2.4-2.7.6-2.7 1.4 0 2.5.6 2.5 1.3zm44.2 1.2c1.3 2.9 4.4 3.6 3.3.7-.4-1.1-.3-1.3.3-.7.5.5 1.2 2.2 1.6 3.7.5 2.3.4 2.6-1.1 2.1-1-.3-2.3-1-2.9-1.4-.6-.5-1.4-.6-1.7-.3-.3.4-.9-.5-1.3-2-.3-1.4-1-2.6-1.5-2.6s-.9-.5-.9-1c0-2 3.1-.9 4.2 1.5zm187.6-1.3c-.6 1.8-2.8 2.1-2.8.4 0-.9.7-1.6 1.6-1.6.9 0 1.4.5 1.2 1.2zM14 819c0 .5-.5 1-1.1 1-.5 0-.7-.5-.4-1 .3-.6.8-1 1.1-1 .2 0 .4.4.4 1zm31.3 3c-.1 1.4 0 1.9.3 1.2.6-1.3 2.4-.7 2.4.7 0 1-3.9 2.4-5.7 2.2-.7-.1-1.3.3-1.3.9 0 2.1-1.6.9-2.7-2.1-1.2-3-1.1-3.1.6-1.5 2.8 2.6 4.4 2 3.9-1.4-.4-2.4-.1-3 1.1-2.8 1 .2 1.5 1.2 1.4 2.8zm225.7-2.1c0 .4-.7 1.6-1.5 2.7-1.5 1.9-1.5 1.9-3 0-.8-1-1.2-2.2-1-2.6.6-.9 5.5-1 5.5-.1zm-238.2 1.3c.7.7.8 1.7.2 2.9-.7 1.1-.7 2 0 2.4 1.5.9 0 3.5-2.1 3.5s-2.5-1.5-.8-2.6c.6-.3.9-2.2.7-4-.4-3.6.1-4.1 2-2.2zm145.8 1.4c-.9.9-2 1.3-2.4.9-.4-.3.2-1.3 1.2-2.1 2.5-1.8 3.3-1 1.2 1.2zm7.4-1.2c0 1.6-2.8 4.2-3.6 3.3-.3-.3-.3-1.5.1-2.6.7-2.3 3.5-2.9 3.5-.7zm-129.5.6c.3.5.2 1-.4 1-.5 0-1.3-.5-1.6-1-.3-.6-.2-1 .4-1 .5 0 1.3.4 1.6 1zm83.2.5c0 .8-.4 1.5-.9 1.5-.4 0-.8-.7-.8-1.5s.4-1.5.8-1.5c.5 0 .9.7.9 1.5zm22.7 0c1.9 1.5 1.9 1.5-.5 1.5-1.3 0-3.5-.3-4.8-.7-2.3-.6-2.3-.7-.5-1.4 2.8-1.1 3.7-1 5.8.6zm310.6 6c0 6.1-.3 7.5-1.5 7.5-.9 0-1.8-.7-2.1-1.5-.4-.8-1.2-1.5-2-1.5-1.9 0-1.8-1.6.4-5.3 1.5-2.7 4.3-6.4 5-6.6.1-.1.2 3.3.2 7.4zm-353.9-3.8c-1.2 2-1.4 1.4-.5-1.2.4-.9.9-1.4 1.1-1.1.3.2 0 1.3-.6 2.3zm6.9-.1c0 .9-.5 1.4-1.2 1.2-1.8-.6-2.1-2.8-.4-2.8.9 0 1.6.7 1.6 1.6zM6.2 825.8c-.6.2-1.2 1-1.2 1.8s-.7 1.4-1.5 1.4c-1.2 0-1.5-2.6-.6-4.7.1 0 1.1.1 2.3.5 1.2.3 1.7.7 1 1zm110.3-.8c-.3.5-1.2 1-1.8 1-.7 0-.6-.4.3-1 1.9-1.2 2.3-1.2 1.5 0zm18.2 1.6c-.9.9-2.8-.6-2.1-1.8.4-.6 1-.6 1.7.1.6.6.8 1.3.4 1.7zm-124.2.4c.3.5.2 1-.4 1-.5 0-1.3-.5-1.6-1-.3-.6-.2-1 .4-1 .5 0 1.3.4 1.6 1zm44 0c.3.6-.1 1.3-1 1.6-1.9.8-3 0-2-1.5.8-1.4 2.2-1.4 3-.1zm-35.6 1.6c.2.2-1 .4-2.7.4-1.8 0-3.2-.5-3.2-1 0-.9 4.7-.4 5.9.6zm248.5 2.1c-.4 1.6-.7 2.8-.8 2.9-.1.1-1.8-.1-3.9-.4l-3.8-.4 2.2-2.4c1.2-1.3 3.3-2.4 4.6-2.4 2 0 2.3.3 1.7 2.7zm-20.4.3c4.3 2.2 5.9 4 3.6 4-1.9 0-2.2 2.6-.4 3.2 1.2.4.3 2.8-1 2.8-.4 0-1.3-1.3-1.9-2.9-2.3-6.3-14.3-7.8-20-2.5-3.2 3-3.7 2.6-2.5-1.7.9-3.9 2.9-4.6 12.5-4.8 4-.1 7 .5 9.7 1.9zm137.8 1.6c5.8 2.5 14.6 4.4 23.5 4.9 18.1 1.1 23.6 1.7 32.7 3.1 5.2.8 9.7 1.7 9.9 2 .5.5-14 .7-47.2.7-21.5 0-25-.2-26.5-1.7-1.7-1.5-5.3-2.4-3.9-.9.4.3.2 1.2-.4 2-.9 1-1.5 1.1-2.6.2-1-.9-1.7-.9-2.5-.1s-4.7 1.2-10.2 1.2c-5.1 0-8.5-.4-7.8-.8.7-.5 1-1.6.6-2.6-.5-1.3-.9-1.4-2.1-.4-1.1.9-1.7.9-2.4-.3-.8-1-.8-.8-.4 1 .5 1.5.3 2.1-.3 1.7-.6-.3-1.2-.1-1.4.5-.2.5-1.1.7-2.1.4-.9-.4-1.4-1.1-1.2-1.6.3-.5-1.4-.7-3.9-.5-2.5.2-4.3 0-4.1-.5.3-.4.1-1-.4-1.4-.5-.3-1.5.3-2 1.2-1 1.7-1.2 1.7-2.1.1-.6-1-1.8-1.4-3-1.1-1.4.4-2 0-2-1.1 0-.9-.4-1.6-1-1.6-.5 0-.7.6-.4 1.3.3.8-.2 1.4-1.1 1.4-1.8 0-1.9-.9-.3-2.5 1.7-1.7 6.7-1.5 7.5.3.5 1.4.7 1.4 2.2.1 2.4-2.1 16.1-3.9 24.6-3.1 5.5.5 8.7.3 12.7-.9 4.6-1.4 6.6-1.8 12.6-2.5.7 0 2.9.6 5 1.5zm-313.8.8c0 .8.3 2.1.6 2.9.4 1.2 0 1.4-1.5 1-1.2-.3-1.8-1-1.4-2 .5-1.2.1-1.4-1.5-.9-1.2.3-3.2.9-4.3 1.2-1.5.4-2 .2-1.7-.7.3-.8 2.2-1.7 4.4-2 2.1-.3 4.2-.7 4.7-.8.4 0 .7.5.7 1.3zm5.5 1.2c-.4 3.6-2.5 5.6-2.5 2.3 0-1.4.5-3 1.2-3.7 1.6-1.6 1.7-1.6 1.3 1.4zm228.5-1.5c0 .6.7.9 1.5.5 1.7-.6 7.5 1.2 7.5 2.5 0 .4-1.1 2-2.6 3.4-1.4 1.4-2.2 3-1.9 3.5.9 1.4-1.9 1.2-3.4-.3-1.1-1-1.3-.9-.7.1.6.9-.4 1.2-3.8 1-2.5 0-4.6-.5-4.6-.9s-.2-1.4-.5-2.1c-.3-.8 1.1-3 3.1-5.1 3.8-3.8 5.4-4.6 5.4-2.6zM27.4 835c-1 .4-2.3.5-2.8.2-1.3-.7 1.6-2.1 3.2-1.4 1.3.4 1.2.7-.4 1.2zm437.9-.3l3.2 1.7-3.9.7c-2.1.3-4.7.4-5.7.2-1.7-.5-1.7-.7.4-2.4 2.7-2.3 2.2-2.2 6-.2zm-429.5 1.2c.3 1 0 1.1-.9.5-.8-.5-2-.9-2.7-1-2.8-.5-2.6-1.6.2-1.2 1.6.1 3.2.9 3.4 1.7zm3.2-.9c0 .5-.5 1-1.1 1-.5 0-.7-.5-.4-1 .3-.6.8-1 1.1-1 .2 0 .4.4.4 1zm225 3.8c0 .9-1.1 3.4-2.5 5.5-2.2 3.2-2.9 3.6-4.5 2.7-2.1-1.1-2.3-2.3-1.2-5.2.5-1.3 1.1-1.5 2.2-.8 2.8 1.8 4.3 1.2 3.8-1.5-.4-1.7-.1-2.5.8-2.5.8 0 1.4.8 1.4 1.8zm25.5-.8c-.3.5-1 1-1.6 1-.5 0-.9-.5-.9-1 0-.6.7-1 1.6-1 .8 0 1.2.4.9 1zm197.3 2.7c4.5.3 8.2.8 8.2 1.2 0 .4-6.2.8-13.7 1-7.6.1-13.5-.1-13.1-.5 2-2 5.6-3.2 7.8-2.7 1.4.2 6.2.7 10.8 1zm-170.4 1.8c-.4.9-1.7 1.5-3.3 1.4-2-.1-2.2-.2-.6-.6 1.1-.3 2.4-.9 3-1.4 1.3-1.3 1.5-1.1.9.6zm8.6 0c1 1.2 1 1.5-.3 1.5-.8 0-1.7-.7-2.1-1.5-.3-.8-.2-1.5.3-1.5s1.4.7 2.1 1.5zm-42.7 1.1c1.2 1.2-1.3 4.2-4.4 5.3-3.9 1.4-5 1.4-2.6 0 .9-.5 1.7-1.7 1.7-2.6 0-1.2-.7-1.4-3.5-.9-3.2.6-4.4-.1-2.8-1.7.8-.9 10.8-.9 11.6-.1zm-57.8 5c1.8 2.3 2.4 3.9 1.8 4.5-.7.7-1.6.1-2.6-1.5-.9-1.3-3.2-2.9-5.2-3.6-4-1.3-3.8-3 .4-3 2.1 0 3.6 1 5.6 3.6zm43.2-.7c1.4 2.3.5 3.5-1.4 2-1.4-1.2-1.8-3.9-.5-3.9.4 0 1.3.9 1.9 1.9zm-52.1 5.1c.8 0 1.4.4 1.4.8 0 .5-1.3.7-3 .4-3.2-.5-3.8-2-1.7-4.1 1-1 1.3-.8 1.5.8.2 1.2 1 2.1 1.8 2.1zm38.9-2.9c.4.6.5 1.2.2 1.5-.7.7-3.7-.7-3.7-1.7 0-1.3 2.7-1.1 3.5.2zm-16 3.8c-.3.6-1.1.8-1.7.5-.6-.4-.5-.9.3-1.5 1.6-1 2.3-.4 1.4 1z"/><path d="M241.4 13.9c-.8.9-.4 22 .6 24.5 1.3 3.5 4.9 3.4 8.2-.2 2.3-2.5 8.8-11.8 8.8-12.7 0-.2-1.4-2.6-3.1-5.4-2.3-3.7-3.8-5.1-5.5-5.1-1.3 0-2.6-.4-2.9-1-.6-.9-5.1-1-6.1-.1zM329.7 442.7c-.3.5.5 1.6 1.8 2.5 2.1 1.6 2.2 1.6 1.7-.8-.4-2.3-2.5-3.3-3.5-1.7zM338 449.5c0 .8.4 1.5 1 1.5.5 0 .7-.7.4-1.5-.4-.8-.8-1.5-1-1.5-.2 0-.4.7-.4 1.5zM341.8 455.7c.7.3 1.6.2 1.9-.1.4-.3-.2-.6-1.3-.5-1.1 0-1.4.3-.6.6zM332 459.4c0 .2 1.1.6 2.5.8 1.4.3 2.5.1 2.5-.3 0-.5-1.1-.9-2.5-.9s-2.5.2-2.5.4zM334.6 463.8c-.3.6-.1 1.4.5 1.7 1.4.9 2 .2 1-1.4-.6-.8-1.1-.9-1.5-.3zM330.6 476.5c-.9 2.6-.7 3.2.5 1.2.6-1 .9-2.1.6-2.3-.2-.3-.7.2-1.1 1.1zM326.5 482c-.7 1.1.2 3 1.4 3 .5 0 1.1-.9 1.4-2 .5-2.1-1.6-2.9-2.8-1zM331.5 486.5c-.3.8-.7 2.2-.9 2.9-.3 1 0 1.3.9.9.8-.3 1.4-1.6 1.3-2.9-.3-2.8-.7-3-1.3-.9zM326.2 488c0 1.4.2 1.9.5 1.2.2-.6.2-1.8 0-2.5-.3-.6-.5-.1-.5 1.3zM329.3 494.6c0 .8.6 1.4 1.4 1.4.7 0 1.3-.4 1.3-.9s-.6-1.1-1.3-1.4c-.8-.3-1.4.1-1.4.9zM318 496.9c0 1.2.5 2.1 1 2.1.6 0 1-.6 1-1.4 0-.8-.4-1.8-1-2.1-.5-.3-1 .3-1 1.4zM320 502.4c0 .8.4 1.7.9 2 .5.4.7-.3.4-1.4-.6-2.3-1.3-2.6-1.3-.6zM327 503.7c0 .9.3 1.3.7 1 .3-.4 1.1 0 1.7.9 1 1.3 1.2 1.1 1.4-1 .1-2-.3-2.6-1.8-2.6-1.2 0-2 .7-2 1.7zM329.1 510.6c0 1.1.3 1.4.6.6.3-.7.2-1.6-.1-1.9-.3-.4-.6.2-.5 1.3zM324.1 523.6c0 1.1.3 1.4.6.6.3-.7.2-1.6-.1-1.9-.3-.4-.6.2-.5 1.3zM323.5 527c-.3.5-.1 1 .4 1 .6 0 1.1-.5 1.1-1 0-.6-.2-1-.4-1-.3 0-.8.4-1.1 1zM324 536.9c0 .6.5 1.3 1 1.6.6.3 1 1.7 1 3.1 0 1.3.3 2.4.8 2.4.4 0 .6-1.8.4-4-.3-2.6-.9-4-1.8-4-.8 0-1.4.4-1.4.9zM292 431.6c0 .8.5 1.2 1 .9.6-.4.8-1.1.5-1.6-.9-1.4-1.5-1.1-1.5.7zM307.6 433.7c-.4 1.1-.1 1.1 1.4.3 2.4-1.3 2.5-1.7.5-1.7-.8 0-1.6.6-1.9 1.4zM297.8 435.7c0 1-.2 2.5-.3 3.3-.3 3.4.9 3 2.1-.6 1.7-4.8 1.7-4.4-.1-4.4-.8 0-1.6.8-1.7 1.7zM314.4 435.8c.3.5-.1 2-.9 3.5-1.3 2.5-1.2 2.7.9 2.7 1.9 0 2.1-.4 1.8-3.5-.2-1.9-.8-3.5-1.4-3.5-.5 0-.7.4-.4.8zM307 437.9c0 1.1-.4 2.3-1 2.6-1.3.8-1.3 6.5 0 6.5 1.8 0 3.2-4 1.9-5.6-.8-1-.8-1.4 0-1.4 1.4 0 1.5-2.7.1-3.5-.5-.3-1 .3-1 1.4zM293.6 439.3c.3 1 .9 1.5 1.2 1.2.3-.3 0-1.1-.7-1.8-1-.9-1.1-.8-.5.6zM299.2 446.5c0 1.6.2 2.2.5 1.2.2-.9.2-2.3 0-3-.3-.6-.5.1-.5 1.8zM309.4 445.4c-1 2.7.2 4.3 1.4 1.9.8-1.4.9-2.4.2-2.8-.6-.3-1.3.1-1.6.9zM279 438.6c0 1 6.3 8.4 7.2 8.4 1.6 0 .8-2.9-1.8-5.9-2.2-2.7-5.4-4.2-5.4-2.5zM260.4 445.8c-4.4 4.3-12.3 14.8-13.4 17.8-1.1 2.9-3.6 13.1-5.1 21.3-.5 2.9-1.4 6.2-1.9 7.1-1.6 2.9-6.2 29.6-5.8 33.7.2 2.7.8 3.9 2.1 4.1 1.5.3 1.7-.5 1.7-6.2 0-8.7 3.2-24.6 9-44.6 1.1-3.6 2.4-8.4 3-10.7 1-3.9 10.6-18.1 14.3-21.2.9-.7 1.7-2 1.7-2.7 0-2.3-2.6-1.6-5.6 1.4z"/><path d="M256.7 465.7c-.8 1-4 9.2-7 18.3-5.5 16.8-7.6 27.3-5.6 28.5 1.6 1.1 2 .2 3.5-7.7.7-4 2-9.8 2.9-12.7 1.6-5.9 8.1-21.8 9.7-23.8 1.1-1.4.4-4.3-1-4.3-.5 0-1.6.8-2.5 1.7zM238.2 476.2c-2.1 2.8-4.3 8.1-3.8 9.4.9 2.2 2.6 1.6 3.7-1.3.6-1.6 1.7-3.6 2.6-4.5 1.5-1.7 1.2-4.8-.5-4.8-.5 0-1.4.6-2 1.2zM283.5 493.1c-.4.6-.5 1.3-.2 1.6.7.7 2.7-.6 2.7-1.8 0-1.2-1.7-1.2-2.5.2zM276.1 501.7c-1.3 4.7-1.4 6.3-.2 6.3 1.4 0 1.9-1.2 2.7-5.8.8-5.4-1.1-5.7-2.5-.5zM241.6 525.2c-2.3 7.2-2.6 55.1-.5 65.8 2 10.4 2.9 13 4.6 13 1.1 0 1.4-.7 1-2.3-3.7-16.5-3.8-18-4.1-52.2 0-5 .6-11.6 1.3-14.9 1.3-6 .9-10.6-1-10.6-.5 0-1.1.6-1.3 1.2zM232.1 534.2c-.7 1.9-.9 5.5-.5 8.8.3 3.1-.4 15.1-1.6 27.5-2.2 23.4-2.6 52.9-.9 64.4 1.4 9 7.4 19 10 16.4.8-.8.3-2.3-1.4-5-1.4-2.2-3.1-6-3.8-8.4-1.8-6.2-1.9-51.7-.1-62.4 1.8-10.4 2.2-43.7.6-44.2-.7-.2-1.7 1.1-2.3 2.9zM287.6 544.2c-1 4.9-1.5 22.8-.6 23.3 2 1.3 3.4-4.4 3.4-14.4.1-7.3-.3-10.6-1.1-10.8-.7-.3-1.4.6-1.7 1.9zM246.7 609.7c-.3.5-.3 2.3.2 3.9.9 3.4 4.1 4.6 4.1 1.6 0-2.5-3.5-6.9-4.3-5.5zM308.4 602.1c-.4.8-.7 2.4-.5 3.6.2 1.7-.1 2.1-1.3 1.7-.9-.4-1.5-1.4-1.4-2.3.2-1-.5-1.7-1.9-1.9-2.4-.4-3.1 1.6-1.2 3.5.7.7 0 1.5-2.5 2.7-2 .9-3.6 2-3.6 2.5 0 1.7 1.3 1.9 4.6.5 3.1-1.3 3.7-1.3 5 .1 2.6 2.5 4 1.7 3.5-2.1-.1-.7.8-1.4 1.9-1.7 2.5-.6 2.6-2.8.2-5.8-1.5-1.8-2-2-2.8-.8zM292.6 604.8c-.9 1.4 2.1 3.5 4 2.8.8-.3 1.4-1.2 1.2-1.9-.6-1.5-4.4-2.2-5.2-.9zM300 616.5c-.9 1.1-1 1.9-.3 2.6 1.4 1.4 5.6-.7 5-2.4-.6-1.9-3.2-2-4.7-.2zM395.3 607.6c-4 3.1-4.2 5.9-.6 9.6 2.2 2.3 2.4 3 1.3 4.3-1.5 1.8-.9 2 6.1 3 3.7.5 4.8.3 5.2-1 .4-.8 1.7-1.5 3-1.5 2.9 0 8.7-5.8 8.7-8.7 0-1.2-1.2-3.5-2.6-5.2-2.9-3.5-8.6-4.3-10.2-1.5-.8 1.4-1 1.4-2.1 0-1.9-2.3-5.1-1.9-8.8 1zm6.7.7c0 2-.9 2.5-3.1 2-1.5-.4-1.7-.8-.8-1.9 1.5-1.8 3.9-1.8 3.9-.1zM385.6 618.1c-2 3.9-1.4 4.9 3 4.9 3.7 0 4.3-1 1.9-3-.8-.7-1.5-1.8-1.5-2.6 0-2.7-1.9-2.3-3.4.7zM456.4 612.1c-1 1.7 1.3 3.6 2.7 2.2 1.2-1.2.4-3.3-1.1-3.3-.5 0-1.2.5-1.6 1.1zM435.2 614.2c-5.2 3.3-3.6 5.2 2.1 2.5 2.6-1.2 3.5-3.1 1.9-4.1-.4-.2-2.2.5-4 1.6zM443 613.4c0 1 .9 1.6 2.1 1.6 2.4 0 2.1-2.3-.4-2.8-1-.2-1.7.3-1.7 1.2zM450.2 613.7c.2 1 1 1.8 1.8 1.8 2.2 0 1.8-2.9-.3-3.3-1.4-.3-1.8.1-1.5 1.5zM438 618.5c-.7.8-2.3 1.5-3.6 1.5-3.1 0-3.2 2.6-.1 3.4 3.7 1 4.3.7 5.6-2.1 1.4-3.1.1-5.2-1.9-2.8zM453.6 617.7c-1.1 1.1-.6 2.3.9 2.3.8 0 1.5-.4 1.5-.9 0-1.3-1.6-2.2-2.4-1.4zM307.5 626c-.8 1.3.4 3.2 1.6 2.5 1.2-.8 1.2-3.5 0-3.5-.6 0-1.3.4-1.6 1zM326.4 628.1c-.9 1.6 1.2 3.3 3.1 2.5 1.4-.5 1.5-.9.5-2.1-1.5-1.8-2.6-1.9-3.6-.4zM309.7 630.7c-.4.3-.2 1.2.4 1.9.6.8.9 2 .6 2.8-.9 2.3 1.2 3.4 4.9 2.6 3.2-.7 3.6-.6 4.5 1.7 1.1 2.9 3.3 2.6 3.7-.6.5-3-1.3-5-3-3.3-.7.7-1.6.8-2.2.3-.6-.5-2.2-1.1-3.6-1.3-1.9-.2-2.4-.8-2.2-2.6.3-2.1-1.6-3.1-3.1-1.5zM323 633.5c0 .8.7 1.5 1.5 1.5s1.5-.7 1.5-1.5-.7-1.5-1.5-1.5-1.5.7-1.5 1.5zM309.4 640.1c-1 1.7 1.3 3.6 2.7 2.2 1.2-1.2.4-3.3-1.1-3.3-.5 0-1.2.5-1.6 1.1zM303.4 644.1c-1 1.7 1.3 3.6 2.7 2.2 1.2-1.2.4-3.3-1.1-3.3-.5 0-1.2.5-1.6 1.1zM190.5 638.4c-1.2 7.5 1 14.1 5.9 18 3.9 3.2 7.8 5.6 9 5.6 2 0 0-3.3-3.3-5.7-5.7-4-7.3-7.4-7.5-15.2-.1-5.3-.4-6.6-1.8-6.9-1.3-.2-1.8.7-2.3 4.2zM364.2 633.2c-.7.7-1.2 1.6-1.2 2 0 1.2 2.8 1 3.6-.3 1-1.7-1-3.1-2.4-1.7zM384.6 632.7c-1.5 1.6-.5 3.5 1.6 3 1.2-.4 2.8-.1 3.5.5 1 .8 1.7.8 2.5 0 1.4-1.4 0-3.5-2.2-2.9-.9.2-2.4.1-3.2-.4-.8-.5-1.8-.6-2.2-.2zM394.7 633.7c-.2.5-.3 2.4-.3 4.3.1 2.4.6 3.5 1.6 3.5 1.5 0 3-4.9 2.2-7.3-.5-1.3-2.9-1.7-3.5-.5zM401.6 634.9c-.7 1.1 1.8 3.3 2.7 2.4.4-.3.7-1.2.7-2 0-1.5-2.6-1.8-3.4-.4zM386.4 639.1c-.8 1.4 1.1 3.3 2.5 2.5.6-.4 1.1-1.4 1.1-2.2 0-1.6-2.6-1.9-3.6-.3zM393 643c-1.2.7-1.2 1.2-.2 2.2.9.9 1.5.9 2.4 0 1.6-1.6-.2-3.4-2.2-2.2zM470 645.5c0 .8.5 1.5 1 1.5.6 0 1-.7 1-1.5s-.4-1.5-1-1.5c-.5 0-1 .7-1 1.5zM465 646c0 .5.5 1 1 1 .6 0 1-.5 1-1 0-.6-.4-1-1-1-.5 0-1 .4-1 1zM479.7 645.7c-1.2 1.1-.8 2.1 1.2 2.6 1.5.3 1.8 1.1 1.4 2.7-.4 1.7-.2 2.1.8 1.8 2.2-.7 2.3-4.8.2-6.3-2.1-1.6-2.7-1.8-3.6-.8zM473 648.6c0 .9.5 1.4 1.2 1.2 1.8-.6 2.1-2.8.4-2.8-.9 0-1.6.7-1.6 1.6zM460.2 651.2c.4 4.5 2.6 4.8 2.5.4-.1-2.3-.6-3.6-1.5-3.6s-1.2 1-1 3.2zM469.6 650.7c-1.1 1.1-.6 2.3.9 2.3.8 0 1.5-.4 1.5-.9 0-1.3-1.6-2.2-2.4-1.4zM464.5 653.9c-.3.5-.1 1.2.5 1.6 1.2.7 3-.2 3-1.6 0-1.2-2.7-1.2-3.5 0zM477.5 654.1c-1 1.5.3 2.5 1.6 1.2.7-.7.7-1.3.1-1.7-.6-.3-1.4-.1-1.7.5zM472.7 656.7c-.9 1.5-.2 5.6 1 6 .7.3 1.1-.9 1.1-3.2 0-3.2-1-4.6-2.1-2.8zM482.5 663c.3.5.8 1 1.1 1 .2 0 .4-.5.4-1 0-.6-.5-1-1.1-1-.5 0-.7.4-.4 1zM79.5 642c-1.4 2.2.9 2.9 8.8 2.7 6.5-.2 8.2-.5 8.2-1.7s-1.7-1.6-8.2-1.8c-4.9-.2-8.4.1-8.8.8zM98.5 643c-1.4 2.3.9 3.1 7.5 2.7 7.4-.4 10.1-1.4 7.9-2.8-1.9-1.2-14.6-1.1-15.4.1zM170.2 666.2c.3.7 1.7 1.4 3.2 1.6 2 .3 2.7 0 2.4-1-.3-.7-1.7-1.4-3.2-1.6-2-.3-2.7 0-2.4 1zM54 669c0 .5.5 1 1 1 .6 0 1-.5 1-1 0-.6-.4-1-1-1-.5 0-1 .4-1 1zM104.5 676.9c-.3.5-.1 1.2.5 1.6.5.3 1-.1 1-.9 0-1.8-.6-2.1-1.5-.7zM266 665.3c-4.9 2.6-11.7 3-14.4.8-2.4-2-7.6 2.1-7.6 6 0 3.1 2.7 4.2 3.5 1.4 1.7-5.3 1.5-5.2 2.6-3.3.7 1.2.6 2.5-.2 3.9-.7 1.5-.8 2.4 0 3.2 1.3 1.3 3.9-.7 4.3-3.5.5-3.2 2.8-3.5 2.8-.4 0 3.3 2.3 3.4 4.7.1 1.3-1.8 2.2-2.2 3.3-1.5 1.3.8 1.3 1.1.1 1.9-1.9 1.2-.6 4.1 1.8 4.1 2.8 0 3.6-1.8 1.7-3.9-1.3-1.4-1.4-2.4-.7-4.5 1.4-3.4 3.3-3.4 2.9.1-.4 3.3 2.5 4 3 .7.3-2.4-1.4-7.4-2.5-7.4-.5 0-2.8 1.1-5.3 2.3zM255.7 678.6c-1.4 1.5-.6 3.4 1.4 3.4 1.4 0 1.9-.5 1.7-1.7-.3-1.8-2-2.7-3.1-1.7zM248.3 680.6c-.7 1.8 1.1 3.9 2.6 3 1.7-1.1 1.3-4.6-.4-4.6-.9 0-1.8.7-2.2 1.6zM324.6 669.9c-2.9 3-2.8 5.1.3 5.1.9 0 2.5.6 3.5 1.3 1.6 1.2 1.6 1.4.2 2.6-2.4 2-2 4.3.7 3.9 1.4-.2 2.3-1.1 2.5-2.7.3-1.8.8-2.2 2.8-1.8 1.3.2 2.9-.2 3.5-1 .8-.9 1.5-1 2.4-.3 1.5 1.2 4.5.3 4.5-1.4s-4.7-5.9-5.8-5.2c-.5.3-3.3-.3-6.3-1.4-2.9-1.1-5.4-2-5.4-2-.1 0-1.4 1.3-2.9 2.9zm5.9 3.1c.8 1.3-.5 1.3-2.5 0-1.3-.8-1.3-1 .2-1 .9 0 2 .4 2.3 1zM346.4 671.4c-.9 2.4.3 4.7 2.1 4 1.9-.8 1.9-2.8 0-4.4-1.2-1-1.6-.9-2.1.4z"/><path d="M320.3 677.6c-.8 2.1 1.3 4.2 2.8 2.7 1.3-1.3.5-4.3-1.1-4.3-.6 0-1.3.7-1.7 1.6zM334.1 683.9c-1.4 2.6 1 4.8 2.9 2.6 1.3-1.6.7-4.5-.9-4.5-.6 0-1.5.9-2 1.9zM420.5 670.8c-1.1.2-2.7 1-3.5 1.7-.8.6-2.3 1.5-3.2 1.8-1 .4-1.8 1.3-1.8 2.2 0 .8.8 1.5 1.8 1.5.9 0 2.7.3 3.9.6 1.7.5 2.5.1 3-1.2.4-1.1 1.6-2.6 2.6-3.4 1.6-1.3 1.7-1.8.6-2.6-.8-.6-2.3-.9-3.4-.6zM427.3 671.2c-1 1.1-.6 2 1.8 4.2 3 2.9 6.4 3 5.3.1-.3-.8-1.1-1.5-1.6-1.5s-1.7-.9-2.7-2.1c-1.4-1.8-1.9-1.9-2.8-.7zM422 677.9c0 .5.7 2.2 1.5 3.7 2 3.8 1.9 5.1-.5 7.1-2.7 2.3-2.5 3.7.6 5.1 3.8 1.8 11.3-.3 12.5-3.5.5-1.3.9-3.1.9-3.9 0-2.4-2.8-1.6-4.2 1.3-.7 1.4-2.3 3-3.5 3.4-2.1.8-2.2.6-1.6-4.1.4-3.7.1-5.6-1.1-7.5-1.6-2.4-4.6-3.5-4.6-1.6zM433.7 679.7c-1.4 1.3-.6 3.3 1.3 3.3 1.3 0 2-.7 2-2 0-1.9-2-2.7-3.3-1.3zM451.4 706.1c-.3.6-.2 1.5.2 1.9 1.2 1.2 3.8-.5 3-1.9-.9-1.4-2.3-1.4-3.2 0zM457.6 705.8c-.3.6-.3 1.7 0 2.5s0 1.8-.5 2.2c-1.4.8-.4 2.5 1.4 2.5 1 0 1.3-1.1 1.2-3.4-.3-3.8-1.1-5.3-2.1-3.8zM462.7 706.6c-.8.8.1 2.4 1.4 2.4.5 0 .9-.7.9-1.5 0-1.5-1.2-2-2.3-.9zM464.5 713.9c-.7 1.2 1.2 2.4 2.5 1.6 1.1-.7.4-2.5-1-2.5-.5 0-1.1.4-1.5.9zM456.9 714.2c-.1.2-.3 2-.4 4-.2 2.7.2 3.8 1.2 3.8.9 0 1.3-.8 1.1-2.3-.2-1.7.3-2.3 2-2.5 3.1-.5 2.3-2.6-1.1-3-1.5-.2-2.8-.2-2.8 0zM468.6 715.9c-.3.5.1 1.4.8 2 1.6 1.3 3.2-.2 2.1-1.9-.8-1.2-2.2-1.3-2.9-.1zM456.7 725.6c-.9 1 .2 2.4 1.9 2.4.8 0 1.4-.7 1.4-1.5 0-1.5-2.1-2.1-3.3-.9zM312 703.6c0 .9.5 1.4 1.2 1.2 1.8-.6 2.1-2.8.4-2.8-.9 0-1.6.7-1.6 1.6zM364.5 704.9c-1.1.5-2.9 1.8-4 3-1.6 1.9-1.7 2.4-.5 3.2 1.1.6 1.9.3 2.9-1.1.7-1.1 2.1-2 3.1-2 2 0 4.3-2.3 3.3-3.3-.8-.9-2.3-.8-4.8.2zM375.5 707.7c-1.3 1.9-1.4 2.8-.6 3.6.9.9 1.8.4 3.5-1.8 2.3-2.9 2.5-2.9 4.4-1.2 2.5 2.3 1.8 6.1-1.4 7.6-3.5 1.5-3 3.3.8 2.9 2.6-.2 3.6-1 4.9-3.7 1.8-3.9 1.4-7.8-1-9-.9-.5-3.3-.9-5.3-.9-2.8 0-4.1.6-5.3 2.5zM369.2 708.7c.2 1 1 1.8 1.8 1.8 2.2 0 1.8-2.9-.3-3.3-1.4-.3-1.8.1-1.5 1.5z"/><path d="M373.2 713.2c-.7.7-1.2 1.6-1.2 2 0 1.2 2.8 1 3.6-.3 1-1.7-1-3.1-2.4-1.7zM358.5 714c-.9 1.5.5 3.2 2.2 2.6.9-.4 2.2-.1 3 .5 1.1.9 1.7.9 2.6 0 .9-.9.9-1.4-.3-2.1-.8-.5-1.8-.7-2.2-.4-.4.3-1.6 0-2.7-.6-1.3-.7-2.2-.7-2.6 0zM372.5 721c-.3.6.1 1.3 1 1.6 1.9.8 3 0 2-1.5-.8-1.4-2.2-1.4-3-.1zM289.5 698.8c-1.3 1.3-.3 3.3 1.5 3 1-.2 2.6.6 3.4 1.7 1.8 2.5 2.9 1.6 2.1-1.8-.5-1.8-1.5-2.6-3.6-2.9-1.6-.3-3.1-.2-3.4 0zM279.7 702.5c-1.7 2.3-1.7 2.6-.1 5 2 3 1.9 3 5 .6 2.5-1.9 2.5-1.9 7.4.6 2.8 1.4 5 3.1 5 3.8 0 .7.7 1.8 1.5 2.5 1.2 1 1.6.9 2.1-.3.7-1.9-2.3-6.7-4.2-6.7-.7 0-1.8-.8-2.3-1.9-1.4-2.5-5-3.3-9.1-2.1-2.6.7-3.1.7-2.2-.2.7-.7 1.2-1.8 1.2-2.5 0-2.1-2.4-1.4-4.3 1.2zM279.5 714c-.4.6-.3 1.6.3 2.2.6.6 1.2.6 1.7-.2.4-.6.3-1.6-.3-2.2-.6-.6-1.2-.6-1.7.2zM292.3 719.5c-2.4 2.4-3 4.5-1.2 4.5 1.5 0 6.9-5.6 6.2-6.4-1.1-1.1-2.7-.5-5 1.9zM277.4 721.1c-1 1.7 1.3 3.6 2.7 2.2 1.2-1.2.4-3.3-1.1-3.3-.5 0-1.2.5-1.6 1.1zM415 749.5c0 1 .7 1.5 1.8 1.3 2.1-.4 1.9-2.2-.2-2.6-1-.2-1.6.3-1.6 1.3zM397.2 750.8c-.6.2-1.2.9-1.2 1.5s-.7 1.8-1.6 2.8c-1.1 1.2-1.4 2.5-.9 3.6.5 1 .9 2.5.9 3.3.1 2 4.6 2.6 4.6.6 0-.8-.4-1.8-1-2.1-1.8-1.1-1.2-5.5.8-5.6.9-.1 2.6-.2 3.7-.3 3.1-.2 2.4-2.9-1-3.6-1.7-.4-3.6-.5-4.3-.2zM409.4 752.5c-.4.8-1.2 1.5-2 1.5s-1.4.9-1.4 2c0 2.3 2.8 2.7 3.6.5.4-.8 1.2-1.5 2-1.5s1.4-.9 1.4-2c0-2.3-2.8-2.7-3.6-.5zM406.6 760.5c-.3.9.1 1.8 1 2.2 1.9.7 2.8-.2 2.1-2.2-.8-1.9-2.3-1.9-3.1 0zM401.3 763.6c-.3.8-.1 2 .6 2.7 1.4 1.4 4.7-1.5 3.7-3.2-1-1.6-3.6-1.3-4.3.5zM79 713.5c-1.1 1.3-1 1.4.4.9.9-.3 1.6-1 1.6-1.5 0-1.3-.6-1.1-2 .6zM85.3 714.2c.3 1 .1 2.1-.4 2.4-.5.3-.9 1.4-.9 2.5 0 1.3-.4 1.8-1.2 1.3-.7-.4-.8-.3-.4.4 1.2 2 2.6 1.3 2.6-1.1 0-1.4.6-2.4 1.4-2.4.8 0 1.2.6.9 1.2-.2.7.3 1.5 1.3 1.9 1.2.5 1.5.2 1-1.1-.4-.9-.2-1.9.4-2.3.8-.5.7-1.2-.4-2.2-.8-.9-1.3-1.7-1.1-2 .2-.2-.5-.4-1.6-.4-1.4 0-1.9.5-1.6 1.8zM97.4 712.7c.4.7.3 1.3-.3 1.3s-.8.7-.4 1.6c.5 1.5.7 1.5 1.6-.1.6-1.2.5-2.1-.3-2.8-1-.9-1.1-.9-.6 0zM197.6 712.8c-.3.5.1 1.5.9 2.2 1.6 1.4 2 .3.6-1.9-.5-.8-1.1-.9-1.5-.3zM64.5 714c.3.5.8 1 1.1 1 .2 0 .4-.5.4-1 0-.6-.5-1-1.1-1-.5 0-.7.4-.4 1zM68.5 714c.3.5.8 1 1.1 1 .2 0 .4-.5.4-1 0-.6-.5-1-1.1-1-.5 0-.7.4-.4 1zM124 713.9c0 .6.4 1.3 1 1.6.6.3.7-.1.4-.9-.7-1.8-1.4-2.1-1.4-.7zM142 714.7c0 .5.5 1.5 1 2.3.8 1.3 1 1.3 1-.2 0-1.1.5-1.5 1.5-1.2.8.4 1.5.1 1.5-.5s-1.1-1.1-2.5-1.1-2.5.3-2.5.7zM162 715c0 .5.5 1 1 1 .6 0 1-.5 1-1 0-.6-.4-1-1-1-.5 0-1 .4-1 1zM103 717c0 .5.7 1 1.6 1 .8 0 1.2-.5.9-1-.3-.6-1-1-1.6-1-.5 0-.9.4-.9 1zM113 717c0 .5.5 1 1.1 1 .5 0 .7-.5.4-1-.3-.6-.8-1-1.1-1-.2 0-.4.4-.4 1zM176.3 717.5c-1.3.5-2.3 1.3-2.3 1.8 0 .7 3.8 0 4.9-.9 1.2-1-.8-1.8-2.6-.9zM183 717c0 .5.7 1 1.5 1s1.5-.5 1.5-1c0-.6-.7-1-1.5-1s-1.5.4-1.5 1zM153 717.8c0 .5.6 1.6 1.3 2.7 1 1.3 1.6 1.5 2.1.6.4-.6.2-1.8-.4-2.6-1.3-1.6-3-2-3-.7zM187 718c0 .5.5 1 1 1 .6 0 1-.5 1-1 0-.6-.4-1-1-1-.5 0-1 .4-1 1zM55 720.1c0 .5.5.7 1 .4.6-.3 1-.8 1-1.1 0-.2-.4-.4-1-.4-.5 0-1 .5-1 1.1zM162.7 721c-.3 1.3 0 2 .9 2 1.5 0 1.9-2.6.5-3.4-.5-.3-1.1.3-1.4 1.4zM175.5 723c.3.5 1.1 1 1.6 1 .6 0 .7-.5.4-1-.3-.6-1.1-1-1.6-1-.6 0-.7.4-.4 1zM184 736c0 .5.5 1 1.1 1 .5 0 .7-.5.4-1-.3-.6-.8-1-1.1-1-.2 0-.4.4-.4 1zM210.1 737.3c-.8 1-.7 1.4.4 1.4.8 0 1.5-.6 1.5-1.4 0-.7-.2-1.3-.4-1.3s-.9.6-1.5 1.3zM170 738c0 .5.7 1 1.6 1 .8 0 1.2-.5.9-1-.3-.6-1-1-1.6-1-.5 0-.9.4-.9 1zM183.4 740.5c-.8 2.1.4 3.5 2.4 2.8 1.5-.6 1.6-.5.2 1.3-1.4 1.8-1.4 1.8.2.5 1.1-.8 2.8-1.1 4.3-.7 2.1.5 2.5 1.2 2.5 4.1 0 2.6.3 3.3 1.5 2.9.8-.4 1.7.1 2.1 1 .3.9 1.4 1.6 2.3 1.7 1 0 1.1.2.4.6-1.5.5-1.7 2.3-.4 2.3 2.1 0 2.1-3.5 0-5.1-1.5-1.1-2-2.3-1.7-3.6.4-1.7.2-1.9-1.5-1.5-1.3.3-1.8.1-1.3-.6.4-.6-.4-1.6-1.6-2.3-1.3-.7-2.7-1.8-3.1-2.6-.5-.7-1.2-1.1-1.7-.8-.5.3-1.1.1-1.5-.5-.9-1.5-2.5-1.2-3.1.5zM178 743.5c0 1.6 1.6 2 2.4.6.3-.5-.1-1.1-.9-1.5-.9-.3-1.5 0-1.5.9zM215.6 744.7c-.6 1.4-.5 1.5.5.6.7-.7 1-1.5.7-1.8-.3-.3-.9.2-1.2 1.2zM179 747.5c-.7.9-.8 1.5-.2 1.5.5 0 1.2-.7 1.6-1.5.3-.8.4-1.5.2-1.5s-.9.7-1.6 1.5zM224.6 747.5c.4.8 1 1.2 1.5.9 1.4-.8 1-2.4-.6-2.4-.9 0-1.2.6-.9 1.5zM224.1 753.2c-.9 2.4.4 5.2 2 4.2 1.3-.7 1.1-6.4-.1-6.4-.6 0-1.4 1-1.9 2.2zM259.5 735.9c-.8 1.5.3 3.1 2.1 3.1.9 0 1.4-.7 1.2-1.7-.4-2-2.4-2.8-3.3-1.4zM250.6 740.9c-.3.5.1 1.4.9 2.1.8.7 1.5 1.8 1.5 2.6 0 2 1.9 2.7 3.6 1.3 1.4-1.1 1.4-1.5.2-2.3-.8-.6-1.7-1.9-2.1-2.9-.7-1.8-3.2-2.3-4.1-.8zM260.7 745.6c-1.4 1.4-.7 3.5 1.1 3.2.9-.2 1.7-1 1.7-1.7 0-1.6-1.8-2.5-2.8-1.5zM249.2 754.7c.2 1 1 1.8 1.8 1.8s1.6-.8 1.8-1.8c.2-1.2-.3-1.7-1.8-1.7s-2 .5-1.8 1.7zM237.6 755.5c-.6 1.7 1.6 3.1 3.3 2.1 1.3-.9.2-3.6-1.4-3.6-.7 0-1.6.7-1.9 1.5zM243.6 759.5c-.3.9.1 1.8 1 2.2 1.9.7 2.8-.2 2.1-2.2-.8-1.9-2.3-1.9-3.1 0zM250.2 762.9c-1.5.9-.5 4.1 1.3 4.1.8 0 1.7-.5 2.1-1.1.9-1.5-1.8-4-3.4-3zM239 768c0 1.3.7 2 2 2s2-.7 2-2-.7-2-2-2-2 .7-2 2zM109 746c0 .5.5 1 1.1 1 .5 0 .7-.5.4-1-.3-.6-.8-1-1.1-1-.2 0-.4.4-.4 1zM110.5 749c.3.5.8 1 1.1 1 .2 0 .4-.5.4-1 0-.6-.5-1-1.1-1-.5 0-.7.4-.4 1zM351.6 749.6c-1.1 3 3.3 6 4.9 3.4.8-1.3-1.3-5-2.9-5-.8 0-1.7.7-2 1.6zM90.5 741c-.3.5-.1 1 .4 1 .6 0 1.1-.5 1.1-1 0-.6-.2-1-.4-1-.3 0-.8.4-1.1 1zM327 744.5c0 .8.7 1.5 1.5 1.5s1.5-.7 1.5-1.5-.7-1.5-1.5-1.5-1.5.7-1.5 1.5zM316.1 745.4c-1.2 1.4-.5 2.6 1.6 2.6 1.5 0 1.8-2.6.4-3.4-.5-.3-1.4 0-2 .8zM331.7 744.6c-.9 1 .2 2.4 1.9 2.4.8 0 1.4-.7 1.4-1.5 0-1.5-2.1-2.1-3.3-.9zM322.1 750.4c-.9 1-.9 1.6-.1 2.1 1.7 1 3.7-1.2 2.4-2.5-.8-.8-1.5-.6-2.3.4zM311.7 750.6c-.9 1 .2 2.4 1.9 2.4.8 0 1.4-.7 1.4-1.5 0-1.5-2.1-2.1-3.3-.9zM335 752.5c0 .8.7 1.5 1.5 1.5s1.5-.7 1.5-1.5-.7-1.5-1.5-1.5-1.5.7-1.5 1.5zM318.4 756.1c-1 1.7 1.3 3.6 2.7 2.2 1.2-1.2.4-3.3-1.1-3.3-.5 0-1.2.5-1.6 1.1zM333 756c-1.2.7-1.2 1.2-.2 2.2.9.9 1.5.9 2.4 0 1.6-1.6-.2-3.4-2.2-2.2zM311.5 758c-.8 1.2 2 2.4 3.5 1.5.6-.3.8-1.1.5-1.6-.8-1.2-3.2-1.2-4 .1zM334 764.5c0 1 .7 1.5 1.8 1.3 2.1-.4 1.9-2.2-.2-2.6-1-.2-1.6.3-1.6 1.3zM485.1 742.9c-1.7 1.1-.7 4.1 1.3 4.1 2.2 0 3-2 1.5-3.6-.9-.8-1.9-1-2.8-.5zM490 753c0 1.5.5 2 1.8 1.8.9-.2 1.7-1 1.7-1.8s-.8-1.6-1.7-1.8c-1.3-.2-1.8.3-1.8 1.8zM485.2 760.3c-1 1.1-.9 1.7.3 2.7 2.4 2 4.5-.4 2.4-2.6-1.4-1.3-1.7-1.3-2.7-.1zM489.5 767c-.4.7-.3 1.6.3 2.2 1.4 1.4 4.5.2 4-1.5-.6-1.6-3.4-2.1-4.3-.7zM439.4 776.1c-1 1.7 1.3 3.6 2.7 2.2 1.2-1.2.4-3.3-1.1-3.3-.5 0-1.2.5-1.6 1.1zM446.7 775.7c-.3.4-.4 2.4-.3 4.3.1 2.5.7 3.6 1.9 3.8 1.6.3 1.7-.1 1.1-3.5-.7-4-1.8-6-2.7-4.6zM452.5 776c-.4.6-.3 1.6.3 2.2.6.6 1.2.6 1.7-.2.4-.6.3-1.6-.3-2.2-.6-.6-1.2-.6-1.7.2zM458.1 776.9c-.8 1.4-.7 2.2.4 3.1 1.9 1.6 3.5.4 3.5-2.6 0-2.9-2.5-3.2-3.9-.5zM465.4 777.1c-.8 1.4 1.8 3.1 3 1.9.9-.9 0-3-1.4-3-.5 0-1.2.5-1.6 1.1zM457.4 785.1c-1 1.7 1.3 3.6 2.7 2.2 1.2-1.2.4-3.3-1.1-3.3-.5 0-1.2.5-1.6 1.1zM446 788.4c0 1.5 2.4 2.8 3.4 1.9 1.3-1.4.5-3.3-1.4-3.3-1.1 0-2 .6-2 1.4zM457.1 792.3c-1.2 1.5-.5 2.7 1.6 2.7.7 0 1.3-.9 1.3-2 0-2.3-1.3-2.6-2.9-.7zM463 797.4c0 .9.7 1.6 1.6 1.6 1.7 0 1.4-2.2-.4-2.8-.7-.2-1.2.3-1.2 1.2zM250.2 777.6c-1.2.8-2.2 2.4-2.2 3.4 0 5.4-3.5 6.8-5.1 2-.8-2.2-1.7-3-3.4-3-3.4 0-3.9 1.6-1.6 4.6 2.7 3.4 2.6 4.2-.3 5.5-2.9 1.3-3.9 4.4-2.1 5.9 1 .9 1.6.6 2.4-.9 1.7-3 7.4-3.8 11.6-1.5l3.4 1.8 4.6-4.6c3.6-3.7 4.5-5.3 4.5-8 0-2.1-.7-4.2-1.8-5.1-2.3-2.1-7.1-2.2-10-.1zM244.3 806.2c-2.3 1.1-3.2 3.8-1.3 3.8 2.1 0 7.1-3.1 6.5-4-.8-1.2-2.4-1.2-5.2.2zM238.3 811.6c-.7 1.9.2 2.8 2.2 2.1 1.9-.8 1.9-2.3 0-3.1-.9-.3-1.8.1-2.2 1zM238 820.1c0 2.5 3.3 2.2 3.8-.4.2-1.2-.3-1.7-1.7-1.7-1.5 0-2.1.6-2.1 2.1zM245.5 819c-.8 1.4.3 3 2.1 3 .8 0 1.4-.9 1.4-2 0-2.1-2.4-2.8-3.5-1zM281.2 798.6c.4 2.1 2.2 2.3 2.6.1.2-1-.3-1.7-1.3-1.7s-1.5.6-1.3 1.6zM294.5 797.9c-.3.5-.1 1.2.5 1.6 1.2.7 3-.2 3-1.6 0-1.2-2.7-1.2-3.5 0zM367 777.5c0 .8.7 1.5 1.5 1.5s1.5-.7 1.5-1.5-.7-1.5-1.5-1.5-1.5.7-1.5 1.5zM360.7 777.6c-1.4 1.4-.7 3.5 1.1 3.2.9-.2 1.7-1 1.7-1.7 0-1.6-1.8-2.5-2.8-1.5zM373.6 778.9c-.7 1.1 1.8 3.3 2.7 2.4.4-.3.7-1.2.7-2 0-1.5-2.6-1.8-3.4-.4zM353.6 781.9c-.8 1.2 2.1 3.4 3.4 2.6 1.7-1.1 1.1-3.5-.9-3.5-1.1 0-2.2.4-2.5.9zM375.4 785.1c-1 1.7 1.3 3.6 2.7 2.2 1.2-1.2.4-3.3-1.1-3.3-.5 0-1.2.5-1.6 1.1zM364.1 787.4c-.9 1-.8 1.6.4 2.6 1.9 1.6 4.1-.1 3.2-2.4-.8-2-2.1-2-3.6-.2zM353 789c0 1.1.7 2 1.5 2s1.5-.9 1.5-2-.7-2-1.5-2-1.5.9-1.5 2zM375.2 792.2c-1.8 1.8-1.4 2.8.8 2.8 1.1 0 2-.6 2-1.4 0-2.1-1.5-2.7-2.8-1.4zM356.5 793.9c-.8 1.5.3 3.1 2.1 3.1.9 0 1.4-.7 1.2-1.7-.4-2-2.4-2.8-3.3-1.4zM366 796.5c-1 1.2-.9 1.6.5 2.1 1.9.8 4-.9 3.1-2.5-1-1.5-2.1-1.4-3.6.4zM107 776.8c0 .4.6 1.4 1.3 2.1 1 1.1.9 1.2-.3.6-1.3-.8-1.3-.7-.1.8 1.6 2 1.6 2 3 .3.9-1.1.8-1.8-.4-3-1.8-1.7-3.5-2.1-3.5-.8zM115.5 782.1c-.4.6-.5 1.2-.2 1.5.2.3.7-.2 1-1.1.7-1.7.1-2-.8-.4zM378.4 821.4c-.9 2.4 1.2 4.4 2.8 2.8 1-1 .8-1.6-.5-2.9-1.5-1.5-1.7-1.5-2.3.1zM393.7 808.6c-1.4 1.4-.7 3.3 1.6 4 1.2.3 3.5 1.6 5 2.7 2.2 1.5 2.7 2.5 2.3 4.2-.7 2.9 2.1 5.7 3.4 3.5.5-.8.6-1.9.2-2.4-.3-.6-.5-2.3-.4-3.8.2-2.2-.3-3.1-2.3-3.8-1.4-.5-2.5-1.4-2.5-1.9s-.8-1.1-1.7-1.4c-1-.2-2.5-.8-3.4-1.1-.8-.4-1.8-.3-2.2 0zM417.4 816.1c-.3.6 0 1.7.8 2.5 1.3 1.3 1.6 1.3 2.7 0 .7-.8 1-2 .6-2.6-.8-1.3-3.2-1.3-4.1.1zM424.4 820.5c-.7 1.8.3 3.5 2.1 3.5 2.1 0 2.8-1.9 1.5-3.5-1.6-1.9-2.9-1.9-3.6 0zM397 822.4c0 2.4 2.6 3.8 4 2.2.6-.9.9-2 .5-2.6-.9-1.5-4.5-1.2-4.5.4zM408.7 822.4c-.8 2 2 4.3 3.5 2.8 1.4-1.4.3-4.2-1.6-4.2-.7 0-1.6.6-1.9 1.4zM416.4 822.1c-.3.6 0 1.7.8 2.5 1.3 1.3 1.6 1.3 2.7 0 .7-.8 1-2 .6-2.6-.8-1.3-3.2-1.3-4.1.1zM419 827.5c-1.1 1.3-1.1 1.9.2 3.2 1.7 1.6 3.8 1 3.8-1.1 0-.8-.6-1.9-1.4-2.5-1-.9-1.6-.8-2.6.4zM402 829c0 1.5.5 2 1.8 1.8.9-.2 1.7-1 1.7-1.8s-.8-1.6-1.7-1.8c-1.3-.2-1.8.3-1.8 1.8zM315.3 810.7c-2 .7-1.5 2.6 1.3 4.6 2.3 1.8 5.5 1.7 5.3 0-.1-1.4-5.4-5-6.6-4.6zM328.1 815.4c-1.2 1.4-.5 2.6 1.6 2.6 1.5 0 1.8-2.6.4-3.4-.5-.3-1.4 0-2 .8zM326 825.5c0 1 .7 1.5 1.8 1.3 2.1-.4 1.9-2.2-.2-2.6-1-.2-1.6.3-1.6 1.3zM483.4 815c.4 4.8 2 7 3.7 5.3.7-.7.8-1.9.4-3-.4-1-.8-2.7-.9-3.8-.1-1.1-.9-2.1-1.9-2.3-1.4-.3-1.7.3-1.3 3.8zM17.5 819c-.3.5-.1 1 .4 1 .6 0 1.1-.5 1.1-1 0-.6-.2-1-.4-1-.3 0-.8.4-1.1 1zM367.7 837.3c-.3.7-.1 2 .3 2.8.7 1.1 1 1 1.6-.4.4-1 .2-2.3-.3-2.8-.7-.7-1.2-.6-1.6.4zM337.5 839c-.3.5-.2 1 .4 1 .5 0 1.3-.5 1.6-1 .3-.6.2-1-.4-1-.5 0-1.3.4-1.6 1zM364.7 840c.3 1.1.7 2 .9 2 .2 0 .4-.9.4-2s-.4-2-.9-2-.7.9-.4 2zM33 627.5c0 .8.7 1.5 1.5 1.5s1.5-.7 1.5-1.5-.7-1.5-1.5-1.5-1.5.7-1.5 1.5zM.1 651.6c0 1.1.3 1.4.6.6.3-.7.2-1.6-.1-1.9-.3-.4-.6.2-.5 1.3zM18.4 655.1c-.3.6-.1 1.6.5 2.2.8.8 1.1.5 1.1-1.1 0-2.4-.5-2.8-1.6-1.1zM10.8 691.2c.5.5 1.6.8 2.3.6.8-.3.3-.7-1-1.1-1.7-.4-2.1-.3-1.3.5zM222.5 801c-.3.5-.1 1 .4 1 .6 0 1.1-.5 1.1-1 0-.6-.2-1-.4-1-.3 0-.8.4-1.1 1zM213 805.5c0 .8.7 1.5 1.6 1.5 1.4 0 1.4-.3.4-1.5-.7-.8-1.4-1.5-1.6-1.5-.2 0-.4.7-.4 1.5zM197.7 809.7c-.2.5-.1 2.1.2 3.8.4 2 .9 2.6 1.4 1.7.5-.6.5-1.2.1-1.2-.3 0-.1-.7.6-1.5.6-.8.9-1.9.5-2.5-.7-1.2-2.2-1.3-2.8-.3zM221.5 812.6c-.9 1.4-1.4 2.8-1.2 3.1.3.3 1.3-.9 2.2-2.6 1.9-3.8 1.4-4.1-1-.5zM198 819.1c0 1.1.5 1.7 1 1.4.6-.3 1-1.3 1-2.1s-.4-1.4-1-1.4c-.5 0-1 .9-1 2.1zM219.2 820.1c-1.5 2.4-1.5 4.6 0 5.5.8.5.9 0 .6-1.4-.4-1.2-.3-2.2.2-2.2 1.1 0 2.1-2.8 1.2-3.4-.5-.3-1.3.4-2 1.5zM201.2 830.9c.4 1.3 1.8 1.6 1.9.4 0-.4-.5-.9-1.1-1.2-.7-.2-1.1.2-.8.8zM186.6 834.2c.3.4 1.1.5 1.9.1 2.1-.7 1.9-1.2-.4-1-1.1 0-1.8.5-1.5.9zM98 835.9c0 1.1-.3 2.6-.6 3.5-.5 1.3.2 1.6 3.4 1.6 2.3 0 4.4-.5 4.7-1 .4-.6-.5-1-1.9-1s-2.6-.6-2.6-1.3c0-.8-.4-.7-1 .3-.6.9-1 1-1 .3 0-.6.5-1.5 1-1.8 1.2-.7.4-2.5-1.1-2.5-.5 0-.9.9-.9 1.9zM91 836.5c-1 1.3-.9 1.5.9 1.5 1.1 0 2.1-.4 2.1-.9 0-1.8-1.8-2.1-3-.6zM117 837.7c0 1 .4 1.4.8.8.4-.6 1.1-1.3 1.6-1.8.5-.4.2-.7-.7-.7-1 0-1.7.8-1.7 1.7zM137.6 836.9c-.4.7-.5 1.5-.2 1.8.9.9 1.9-.4 1.4-1.8-.4-1.1-.6-1.1-1.2 0zM178 838.1c0 .6-.9.9-2 .6-1.1-.3-2-.1-2 .4s1.4.9 3 .9c2 0 3-.5 3-1.5 0-.8-.4-1.5-1-1.5-.5 0-1 .5-1 1.1zM124.5 839c.3.5.8 1 1.1 1 .2 0 .4-.5.4-1 0-.6-.5-1-1.1-1-.5 0-.7.4-.4 1zM130 839c0 .5.5 1 1 1 .6 0 1-.5 1-1 0-.6-.4-1-1-1-.5 0-1 .4-1 1zM36.6 840.4c.3.9 1.1 1.6 1.6 1.6 1.3 0 .5-2.3-1-2.8-.7-.2-1 .2-.6 1.2zM108 840c0 .5.5 1 1 1 .6 0 1-.5 1-1 0-.6-.4-1-1-1-.5 0-1 .4-1 1zM183.5 839.9c-.3.6.3.9 1.4.8 1.1 0 1.7-.5 1.5-.9-.7-1.1-2.2-1-2.9.1zM197.5 840c-.3.5-.1 1 .4 1 .6 0 1.1-.5 1.1-1 0-.6-.2-1-.4-1-.3 0-.8.4-1.1 1zM30 841c0 .5.5 1 1.1 1 .5 0 .7-.5.4-1-.3-.6-.8-1-1.1-1-.2 0-.4.4-.4 1zM60 841c0 .5.5 1 1 1 .6 0 1-.5 1-1 0-.6-.4-1-1-1-.5 0-1 .4-1 1z"/></svg>