<?xml version="1.0" encoding="UTF-8" standalone="no"?> <!-- Created with Vectornator for iOS (http://vectornator.io/) --><!DOCTYPE svg PUBLIC "-//W3C//DTD SVG 1.1//EN" "http://www.w3.org/Graphics/SVG/1.1/DTD/svg11.dtd">
<svg xmlns="http://www.w3.org/2000/svg" height="100%" version="1.1" xmlns:vectornator="http://vectornator.io" xmlns:xlink="http://www.w3.org/1999/xlink" viewBox="0 0 500 878" style="fill-rule:nonzero;clip-rule:evenodd;stroke-linecap:round;stroke-linejoin:round;" xml:space="preserve" width="100%">
<metadata>
<vectornator:setting value="true" key="WDGuidesVisible"/>
<vectornator:setting value="false" key="WDIsolateActiveLayer"/>
<vectornator:setting key="WDDisplayWhiteBackground" value="false"/>
<vectornator:setting value="true" key="WDRulersVisible"/>
<vectornator:setting value="false" key="WDCMYKEnabledKey"/>
<vectornator:setting key="VNDimensionsVisible" value="true"/>
<vectornator:setting value="false" key="WDSnapToEdges"/>
<vectornator:setting value="false" key="WDSnapToPoints"/>
<vectornator:setting key="WDSnapToGrid" value="false"/>
<vectornator:setting key="UndoHistoryDisabled" value="false"/>
<vectornator:setting key="WDDynamicGuides" value="false"/>
<vectornator:setting key="VNSnapToGuides" value="true"/>
<vectornator:setting key="VNPencilOnly" value="false"/>
<vectornator:setting key="WDOutlineMode" value="false"/>
<vectornator:setting value="Points" key="WDUnits"/>
<vectornator:setting key="IsTimeLapseWatermarkDisabled" value="false"/>
</metadata>
<defs/>
<g vectornator:layerName="Untitled" id="Untitled">
<path fill="#000000" opacity="1" d="M250.9+21.2C248.8+23+244.7+28.8+242.6+33C241.6+34.9+240.5+39.8+240.2+44C239.7+50.8+239.6+51.2+238.8+48C238.3+46.1+237.5+42.7+237.1+40.5C236.1+34.9+235.5+34.2+231.2+33.4C229.2+33+226.9+32.3+226.3+31.8C225.6+31.2+223.1+31.1+220.5+31.4C216.5+32+215.7+32.7+212.5+37.4C210.6+40.3+209+43.5+209+44.5C209+46+211.2+49.5+215.5+54.2C216.3+55.2+217+56.2+217+56.4C217+57.1+210.8+59.1+204.7+60.4C199.9+61.5+198.8+61.4+197.8+60.3C195.9+58+190.8+55.7+187.7+55.8C185.9+55.8+184.7+55.3+184.3+54.2C183+50.4+179.7+48+175.9+48C173.8+48+171.8+47.5+171.5+47C169.9+44.5+162.9+46.5+161+50C160.1+51.6+160.5+52.4+163+54.6C167+58.3+167+60.4+162.9+59.8C158.9+59.2+151.3+60.8+148.2+62.8C145.6+64.5+141.6+71.6+142.5+73C142.8+73.6+144.1+73.5+145.6+73C148.8+71.7+156+71.7+156+72.9C156+73.4+156.7+74.6+157.6+75.4C159+76.9+159+77+157.3+77C155+77+145.1+81.6+142.8+83.7C141.8+84.6+141+86.1+141+87.1C141+88.1+139.8+89.7+138.4+90.7C136.9+91.7+133.7+94.3+131.3+96.5C127.5+99.9+126.7+101.3+126.3+105.2C125.7+110.8+126.9+111.8+130.4+108.5C134+105.1+135.6+105.3+133+108.8C129.7+113.3+127.7+122.4+129+126.6C129.9+129.4+130.7+130+132.3+129.8C133.5+129.6+134.6+128.6+134.8+127.5C135+126.4+136.2+124.4+137.5+123C138.7+121.6+140.6+119+141.5+117.1C143.2+113.8+143.3+113.7+144.6+115.5C145.4+116.5+146+117.8+146+118.3C146+118.9+146.9+118.5+148+117.5C150.9+114.9+152.2+110.1+151+106.1C150.5+104.2+150.3+101.6+150.6+100.3L151.2+98L153.6+100.5C156.4+103.5+159.6+103.7+162.4+101.1L164.5+99.1L164.7+105.6L164.8+112L161.9+112C158.3+112+152.5+117+151.1+121.3C150.2+123.8+148.8+125.1+144.8+127C140.9+128.8+138.9+130.6+137.3+133.5C134.6+138.2+134.4+141.8+136.6+142.7C137.9+143.2+137.9+143.5+136.2+145.4C133.6+148.2+132.4+150.8+131.6+155.3C130.6+160.4+131.6+163+134.5+163C137.3+163+143.7+156.2+144.6+152.3C145.9+146.3+147.3+142.4+148.8+140.7C150.3+139+150.5+139.2+151.7+143.4C152.6+146.3+153.7+148.1+155.1+148.5C157.4+149.3+160+147.5+160+145.1C160+144.2+160.8+142.5+161.8+141.3C163.1+139.7+164+139.4+165.8+140.1C168.6+141.2+168.6+142.1+165.5+146.6C162.7+150.8+162.3+154.2+164.5+156C165.7+157+166.5+156.9+168.5+155.6C170.4+154.4+171+154.3+171+155.3C171+157.1+168.4+160.6+161.3+168.4C154.5+175.8+153.7+178.2+156.6+183.9C158.4+187.5+159.9+187.5+161.7+183.9C162.4+182.6+164.4+180+166.1+178.3L169.3+175L171.6+177.6C173.4+179.4+174+181.3+174+184.6C174+188.8+173.8+189.1+169+192.1C163.4+195.5+162+197.5+162+201.8C162+203.4+161.1+205.5+160+206.5C157.2+209+154.7+217.6+156.1+220.1C157.9+223.5+160.7+222.3+165.7+215.9C170.8+209.3+172.2+209.6+169.6+216.5C168.6+218.9+167.8+221.9+167.6+223.2C167.5+224.5+166.9+226.6+166.3+228C165.7+229.4+164.9+232+164.6+233.7C163.6+238+162.6+238.5+160.6+235.5C158.5+232.4+156+232.3+152.7+235.4C149.7+238.2+150+240.6+153.7+244.6L156.1+247.2L154.1+253.3C152+259.5+151.5+263.6+152.6+266.4C153.5+268.7+155.4+268.4+158.9+265.5L161.9+262.9L161.8+265.2C161.8+266.5+161.3+269+160.8+270.7C160+273.6+159.4+274+156.6+274C152.7+274+149.7+276.9+150.2+280.1C150.7+283.4+153.3+284.7+157+283.3C159.4+282.4+160+282.4+160+283.6C160+288.5+166.6+301.2+169.8+302.5C172.4+303.5+174.3+300.5+174.6+294.9C174.9+290.6+174.4+288.8+172+284.5C170.3+281.6+169+278.7+169+278.1C169+277.4+170.3+275.7+172+274.4C173.8+272.8+175.2+270.5+175.6+268.2C176+266.2+176.5+265.1+176.7+265.8C177.5+268+181+269.3+182.6+267.9C184.8+266.1+184.3+256.5+181.6+249.8C180.2+246.5+179.8+244.4+180.5+244.6C181.1+244.9+182.3+244.4+183+243.5C185.7+240.3+181.7+227+177+223.7C173.6+221.3+174.4+207.5+178.1+205.2C179.1+204.5+180+204.1+180+204.2C180+204.4+179.6+206+179.1+207.8C178+211.4+179+215.2+181.7+218.2C184+220.8+185.7+219.3+186.3+214C186.6+211.3+187.7+207.5+188.7+205.5L190.6+201.9L192.8+206.5C195.4+211.9+197.3+212.9+200+210.5C203.9+207+201.8+192.6+196.5+187C195.2+185.6+193.2+182.4+192+179.7C190.8+177.1+189.4+175+188.9+175C188.4+175+188+174.1+188+173C188+170.1+185.2+164.9+182.5+162.5C179.7+160.1+178.1+153+180.4+153C182.3+153+184+147.8+184+142.1L184+137.5L186+140C187.6+142+188+144.1+188+151.1C188+160.9+189.4+165.1+193.8+169.3C197.1+172.5+200.4+172.4+201.5+169.1C202.3+166.5+199.5+155.4+196.5+149.7C193.5+143.8+193.4+142.4+196+141C198.9+139.5+198.5+137.2+195+135.2C193.3+134.3+191.7+132.5+191.4+131.3C190.6+128.2+184.5+123.1+180.9+122.3C177.9+121.7+177.2+120.6+179+119.5C179.6+119.1+180.8+119.4+181.6+120.1C185.5+123.4+188.5+111.4+185.7+103.5C184.4+99.8+184.5+99.3+186.3+96.8L188.4+94L186+91.5C184.7+90.1+183.1+89+182.5+89C181.9+89+180.5+88.4+179.5+87.6C177.8+86.4+177.8+86.1+180.5+82.7C183.3+79.3+183.5+79.2+184.7+81C185.5+82.1+185.8+84+185.5+85.3C185+87.2+185.5+88.2+187.7+89.7C189.2+90.8+191.2+91.9+192.1+92.3C193+92.6+194+94.4+194.4+96.2C195.1+100.2+200.3+105.6+204.2+106.5C208.6+107.6+209.3+109.2+208.5+116.7C208.1+120.5+207.4+124+207+124.5C204.7+127.3+204.2+130.8+205.6+133.5C206.4+135+207+137.2+207+138.3C207+140.6+211.6+149+212.9+149C215.6+149+218.2+139.7+217.9+131C217.8+127.4+218.3+121.7+219+118.4L220.3+112.2L223.4+113.1C225.1+113.6+228.5+114+231+114C238.8+114+238.4+111.9+237.6+148.6C237.2+166.7+236.7+186.4+236.5+192.5C236.3+198.5+235.8+218.8+235.5+237.5C234.9+279.2+234.1+314.6+233.5+334.5C233.2+342.7+232.8+360.3+232.5+373.5C231.8+403.3+231.1+421.4+230+439.8L229.1+454L226+456.6C223.4+458.8+223+459.7+223.5+462.2C224+464.4+223.7+465.7+222.2+467.3C221.1+468.5+219.3+473.3+218.1+477.9C215.1+490.1+214.6+490.7+206.4+490.8C196.6+491+174.7+487.7+153.1+482.9C150.7+482.4+148.5+482.2+148.1+482.5C147.8+482.9+147.2+491.8+146.8+502.3C146.4+512.9+146.1+522.4+146+523.5C146+524.6+146.8+526.2+147.9+527.1C149.7+528.6+150.6+528.6+154.7+527.5C159.2+526.3+161.9+525.7+176+523.1C186+521.2+195.4+520.6+194.6+521.8C194.2+522.5+193.1+523+192+523C189.6+523+180.4+530.1+169.6+540.5C164.7+545.2+160.1+549+159.5+549C158.8+549+158+547.7+157.7+546.1C156.9+542.4+151.7+537.2+146.4+534.8L142.2+533L142.7+526.9C143.3+520.5+142.5+517.9+138.3+512.7C135.9+509.7+136+509.4+139.4+504.7C141.1+502.4+141.5+500.3+141.5+493.2C141.5+483.1+140.1+479.4+134.3+473.8C130.6+470.3+121.8+466.4+119.9+467.5C118.6+468.4+118.8+467.6+121.4+461.6C124.5+454.5+126.4+442.6+125.7+434.7C125+427+120.3+415.4+115.5+409.2L111.8+404.5L114.7+404C120.2+403+123.8+400.2+126.5+394.5C129.7+388+129.4+383.7+125.2+375C122.9+370.4+121.6+369.1+116.5+366.3C113.2+364.5+110.1+362.9+109.6+362.7C109.1+362.5+109.5+360.3+110.4+357.8C111.8+354.1+112.1+351.1+111.7+341.3C111.3+330.1+111+328.9+108+323.2C104+315.6+96.3+308.2+87.9+303.8C81.7+300.6+81.1+300.5+70.5+300.6C58.2+300.6+52.1+302.4+42.3+308.6C35.9+312.7+28.5+321.9+27.1+327.6C26+331.7+25.8+331.9+23+331.5C21.3+331.2+18.7+330.8+17+330.5C10.5+329.5-3.77744e-06+337-3.77744e-06+342.7L-3.77744e-06+345.2L2.8+342.3C6.8+337.9+11.4+335.9+17.4+335.9C26.2+335.8+31.9+340+34.1+348.2C35.2+352+35.1+353.4+34+355.7L32.6+358.5L32+354.5C30.8+346.6+25+341.5+17.2+341.5C12.3+341.5+11.6+341.8+8.4+345.2C5+348.9+4+352+6.1+352C6.7+352+8.1+350.9+9.1+349.6C12.8+344.9+22.1+345.4+25.4+350.5C27.2+353.3+27.5+358.2+26+361C24.7+363.4+26.5+364.7+28.5+363C29.7+362+30+362.1+30+363.5C30+366.3+33.3+364.8+35.2+361.2C36.1+359.4+37.6+357+38.5+356C41.5+352.7+39+344.7+32.8+336.9C30.3+333.8+30+332.7+30.5+329.6C32.1+321.5+40.3+313.2+52.5+307.5C60.3+303.8+73.8+302.9+81.5+305.5C95.5+310.1+107.2+322.7+107.6+333.4C107.8+336.2+108.1+341.2+108.5+344.5C108.8+347.8+108.7+351.6+108.1+353C107.2+355.3+107.1+355.2+107.1+351.4C107+346.8+105+343.3+103.1+344.5C102.2+345+102+346.9+102.5+351C103.2+357.2+101.6+362.2+98.5+363.3C97.7+363.7+97+364.7+97+365.6C97+366.8+97.7+367.1+99.5+366.8C102.7+366.1+102.6+366.7+99+371.7C94.8+377.4+85.5+382+78.6+381.9L73.5+381.8L78.8+380.9C85+379.8+88.4+378.2+92.5+374.4C95.5+371.5+95.5+371.5+93.2+371.2C91.7+371+91+370.3+91.4+369.5C92.3+367.1+90.2+366.8+87.9+369.1C86.2+370.8+85+371.1+81.7+370.7C79.5+370.4+76.8+369.3+75.7+368.2C73.8+366.2+73.8+366.2+75.7+364.3C76.8+363.2+78.5+362+79.5+361.7C80.9+361.1+81.2+360.2+80.7+356.4C80.2+351.2+78.3+348.8+72.5+346C65.7+342.7+59.1+344.9+54+352C51.1+356+49.3+365.9+50.7+370.3L51.7+373.7L45.4+370.5C41.4+368.5+36.8+367.1+32.9+366.6C27.5+366.1+26+366.3+21.1+368.7C12.4+372.8+10.3+374.7+5.4+382.1C1.9+387.4+0.7+390.1+0.3+394.5C3.27826e-07+397.5+3.27826e-07+400+0.3+400C0.7+400+2.7+396.3+4.9+391.7C11.9+377+22.5+370.7+36+373.2C39+373.7+43+375.1+44.8+376.2C49.2+378.9+54+385.6+54+389.1C54+392.9+54.9+395+56.6+395C58.3+395+58.5+387.6+57+383.6C55.8+380.4+55.9+380.4+62+383.6C66.4+385.9+68.3+386.2+75.8+386.2C89.4+386.1+96.2+382.7+103.7+372.2C105.5+369.7+107.1+367.5+107.3+367.3C108+366.6+113+368.9+113+370C113+370.5+111.7+371+110.1+371C108.5+371+107+371.6+106.7+372.5C106+374.1+106.4+374.5+110.2+375.4C111.7+375.7+113.9+377.4+115.1+379.1C116.9+381.7+117.2+383.1+116.7+388.3C116.4+392.1+115.6+394.8+114.7+395.5C113.8+396+112.3+397+111.3+397.7C109.7+398.7+109.7+399+111+399.9C112+400.6+112.2+401.2+111.5+401.9C110.8+402.6+108.2+401.3+103.5+398C95.2+392.3+87.6+390.4+76.7+391.5C58.5+393.2+46.2+400.7+39.4+414.2C37+418.8+36.7+420.8+36.6+429C36.5+437.5+36.8+439+39.2+443.7L42+448.9L37.2+451.3C33.3+453.2+32+454.7+29.5+459.6C27+464.5+26.5+466.6+26.6+472.5C26.6+476.3+27+480.4+27.4+481.6C28.1+483.5+27.7+483.8+22.8+484.4C15.1+485.5+8.5+489.4+3.9+495.9L0+501.3L0+541.9L3.7+545C5.8+546.7+10.1+549.3+13.2+550.8C16.3+552.3+18.9+554+18.9+554.6C19+555.2+18.1+557.8+16.9+560.4C15.8+563+14.1+568.7+13.2+573.1C11.5+581.1+11.4+581.2+7.7+582.5C0+585.1-0.2+585.7+0.2+601.5C0.5+615.3+0.6+615.6+3.9+621.8C8+629.4+11.9+632.6+19.7+634.9L25.5+636.6L26.1+646.1C26.8+657.2+29.1+663.9+34.5+670.5C43.6+681.6+61.1+686+75.6+680.9C78.8+679.8+82.2+678.7+83.1+678.4C84.1+678.1+85.3+678.8+86.3+680.3C88.8+684.2+94.1+685.5+99.8+683.7C103.9+682.3+105.2+682.3+110.5+683.6C121.7+686.2+134.8+685.1+144.1+680.6C153+676.4+165+662.2+165+656C165+652.5+165.9+652.3+174.4+654.5C181.6+656.4+217.5+657.6+223.6+656.2C227.7+655.3+227.7+655.3+228.8+658.8C229.5+661.1+229.6+662.9+228.9+664.1C228.4+665.1+227.7+668.5+227.4+671.7C226.8+677.2+226.9+677.8+230.1+682C235.2+688.6+239.1+690.5+247.5+690.5C255.7+690.5+259.6+688.4+262.6+682.3C264.9+677.6+264.7+669.4+262.2+664.2C261.1+661.8+260.7+659.6+261.1+658C261.5+656.6+261.8+653.8+261.9+651.7L262+648L270.8+648C283.1+648+288.9+646.2+295.2+640.5C300.5+635.8+303.5+630.8+302.6+628.3C301.6+625.9+300+627+298.4+631C296.1+636.7+287.8+643.8+282.6+644.5C277.5+645.2+252+646.2+242.1+646.1C238+646.1+232.6+645.4+230.1+644.6C224+642.6+213.4+642.3+208.7+643.9C204.1+645.5+204.7+646.9+209.7+646.4C218.9+645.5+231.5+647.3+234.4+650C238.1+653.5+192+655.4+180.5+652.2C178.3+651.6+172.5+650.1+167.5+648.9C162.6+647.8+158.1+646.5+157.5+646.2C156.2+645.4+147.9+645.3+147.4+646.1C146.8+647.2+149.8+649.2+151+648.5C151.8+648+157.7+649.4+159.8+650.6C160.6+651.1+156.4+661.5+154.1+664.9C146.5+676.1+141.7+679.5+131.1+681.5C126.6+682.4+121.9+682.8+120.7+682.4C119.6+682+117+681.6+115+681.5C108.9+681.2+102.8+677.5+100.2+672.8C99+670.4+98+668.2+98+667.9C98+666.9+103.3+668.1+105+669.5C107.5+671.6+113.2+674+115.5+674C118.7+674+127.9+669.1+129.6+666.5C131.9+662.9+132.4+655.5+130.6+651.8C129.7+650.1+129.2+648.5+129.4+648.2C129.7+648+133.5+647.8+137.9+647.9C144.5+648+146+647.7+146+646.5C146+644.3+145.1+644.1+131+643.6C118+643.2+105.7+640.9+103+638.6C102.2+637.8+99.6+636.4+97.4+635.5C93.2+633.8+90.7+630.3+88.1+622.1C86.3+616.4+86.8+600.3+89+593C90.1+589.4+91+585.5+91+584.3C91+583.1+91.9+580.6+93+578.7C94.1+576.8+95.4+572.7+95.8+569.6L96.5+564L118.5+563.5C130.6+563.3+142.2+562.7+144.3+562.1L148.1+561.2L147.4+564.3L146.8+567.5L149.6+565C151.1+563.6+158.7+556.2+166.5+548.5C190.1+525+187.9+526.6+203.2+521.6C210.3+519.3+215.2+518.3+218.9+518.4L224.4+518.5L224.5+523.2C224.5+527.2+224.2+528+222.8+528C221.8+528+221+528.6+221+529.4C221+531+232.9+536+234.5+535.1C235.1+534.8+251.5+534.5+271.1+534.5L306.7+534.5L314.4+538.4C324.1+543.4+325+544.7+324.3+552.7C323.6+559.8+322.7+561+315.6+563.4C309.7+565.3+305.3+565.5+304.7+563.7C304.4+562.8+303.8+562.8+302.1+563.8C299+565.6+298+565.3+298+562.5C298+560.9+297.4+560+296.5+560C295.7+560+295+560.4+295+560.8C295+561.3+294.3+562.5+293.5+563.6C292.1+565.3+292.1+565.2+292.6+561.2C293.1+557.9+293+557+291.7+557C290.9+557+289.7+558.3+289+560C287.5+563.6+285.5+565.4+284+564.5C283.2+564+283.5+563.1+284.8+561.6C285.9+560.5+287+558.3+287.4+556.7C288.4+552.6+285.2+553.2+283.4+557.5C281.9+561.2+279.9+562.7+278.1+561.5C277.4+561.2+278+560+279.5+558.7C280.9+557.5+282.3+555.2+282.6+553.5C283.4+549+282.2+544+280.3+544C279.1+544+278.9+544.7+279.4+547.1C280+550.3+278.5+558+277.2+558C276.8+558+275.7+558.7+274.6+559.5C273+560.7+272.9+561.3+273.9+563.8L275.1+566.7L290.8+566.8C299.4+566.9+309.2+566.6+312.5+566.1C319.5+565.1+321.8+565.9+325+570.3C327+573+327.2+574+326.6+580.7C326.3+584.7+325.3+589.4+324.5+591C322+595.8+316.9+597.6+314.5+594.3C313.2+592.5+311+593.3+311+595.6C311+598+307.5+596.8+307.2+594.2C306.8+591.4+305+591.3+304.3+594C303.5+596.9+300.4+596.1+300.8+593.2C301.2+590.2+299.2+590.4+298+593.5C296.6+597.1+295.6+596.6+296.3+592.5C297.1+587.6+295.5+587.2+293+591.7L290.9+595.5L291.5+591.2C292.2+585.9+290.7+585.7+288+590.7L285.9+594.5L286.6+590.1C287.2+586.1+287.1+585.8+285.2+586.4C284.1+586.8+282.9+586.6+282.5+586C281.7+584.6+279+586.6+279+588.6C279+592.5+276.5+595+269.9+597.7C266.1+599.2+263+600.8+263+601.1C263+602.6+266+602.7+268.6+601.3C272.9+599.1+308.3+597.9+310.3+599.9C311.6+601.2+309.5+613+307.1+618.4C305.2+622.8+304.9+623+300.9+623C297.3+623+296.8+622.8+297.3+621C297.9+618.6+295.3+618.2+294.4+620.5C293.3+623.2+292+622.1+292.7+619C293.5+615+291.2+615+289.7+619C289.1+620.6+288.2+622+287.8+622C286.7+622+286.8+619.2+288+616.9C288.9+615.4+288.7+615+287.5+615C286.6+615+285.2+616.6+284.4+618.5C283.5+620.8+282.3+622+281+622C278.6+622+278.5+620.9+280.5+617C281.3+615.4+281.6+613.9+281.1+613.6C280+612.9+278.4+614.8+276.6+619.2C275.2+622.4+274.5+622.8+270.4+623.5C267.9+623.8+265.6+623.9+265.3+623.6C265+623.3+265.9+621.5+267.4+619.6C268.8+617.7+270+615.7+270+615.1C270+613.3+268.3+613.9+266.6+616.3L264.9+618.5L265.4+616.3C266+613.1+264.4+612.5+262.6+615.2C260.9+617.5+260.5+620.2+261.8+619.7C262.6+619.5+263+620.3+263+622.5C263+623.4+262.1+624+260.5+624C259.1+624+258+624.4+258+625C258+626.7+262.9+627.3+270.3+626.4C274.3+626+283.9+625.6+291.7+625.5C305.3+625.5+305.9+625.4+308.4+623.1C311.4+620.3+313.6+613.8+314.6+605C315.2+599.8+315.5+599+317.4+599C318.5+599+321.3+597.9+323.5+596.7C327+594.7+327.7+593.7+329.2+588.5C330.1+585.2+330.9+580.1+330.9+577.1C331+572.6+330.5+571.2+327.9+567.9C324.8+564+324.8+563.9+326.4+560.6C328.1+557+328.4+551.5+327.4+546.1C326.2+540.3+309.1+532.1+298+532C294.7+532+294.4+531.7+293.1+527.6C292.4+525.2+290.9+522.2+289.8+521C288.7+519.8+288+518.7+288.1+518.6C288.3+518.4+293+518.8+298.5+519.5C304+520.2+313.5+521.3+319.5+522C327.4+522.9+333.5+524.3+341.1+527C346.9+529.1+352.1+530.5+352.7+530.2C354.3+529.1+354.9+526.3+355.7+516C356.6+504.8+356.3+487.7+355.2+483.5C354.7+481.8+353.6+480.4+352.8+480.2C351.9+480+347.2+481.9+342.2+484.3C332.3+489.2+326.1+490.6+309+491.5C303.2+491.8+295.5+492.3+291.9+492.6C287.8+493+285+492.8+284.6+492.2C284.3+491.7+283.5+487.7+282.9+483.3C281.3+471.7+281.2+471.2+278.7+469C277.1+467.5+276.5+465.7+276.5+462.7C276.5+458.9+276.2+458.4+273.2+457.1L269.9+455.6L270.5+431.1C270.8+417.5+271.3+341.5+271.6+262C271.9+182.5+272.3+117.4+272.5+117.2C272.7+117+276.7+116.5+281.4+116.3L290+115.7L290+124.7C290+132.2+290.3+134.2+292+136.3C293.1+137.7+294+140.2+294+141.8C294+145.8+294.9+146.3+299.6+144.7C302.5+143.7+303.7+142.5+304.6+139.9C306.5+134.8+306.3+132.7+303.5+129C301.4+126.2+301+124.5+301+118.9L301+112.2L305.9+110.2C310.8+108+314.6+103.9+316.9+98.3C317.7+96.3+319.6+94.4+321.9+93.3C325+91.8+325.5+91+325.6+88C325.8+82.3+325.9+82.1+329.1+79.3C331.3+77.3+332+76+331.6+74.4C331.2+73.1+331.8+71.2+333.1+69.6C335.3+66.8+337.7+66+336.2+68.6C335.7+69.5+335.9+74.3+336.8+80.3C338.7+94.2+338.7+115.7+336.7+132C335.8+139.5+334.7+148.9+334.4+153C334.1+157.1+333+166.7+331.9+174.3C328.2+201.2+329.4+213.2+338.5+240.5C351.3+278.3+352+291.2+342.5+309.7C336.8+320.7+336.4+323.1+338.1+335.4C339.3+344.5+339.7+345.7+342.4+348.2C346.2+351.7+346.8+351.7+348.1+348.2C349.7+344.1+353+327.3+353+323.2C353+321.3+353.7+318.9+354.6+317.9C355.5+316.9+356.6+314.6+357.1+312.8C357.7+310.4+357.8+311+357.3+315C356.3+324.1+356.4+325.5+358+325.5C359.7+325.5+365.1+315.1+367.3+307.9C368.3+304.4+368.4+301.2+367.8+295.1C366.9+287.2+367+286.8+369.3+285C370.7+283.9+372.5+280.4+374+275.6C376.2+268.6+376.3+267.4+375.2+260.7C374.6+256.7+373.8+252.5+373.5+251.4C372.9+249.7+373+249.7+374.7+251.6C375.7+252.8+377+254.6+377.6+255.6C378.6+257.2+378.9+257.3+380.4+256.1C383.6+253.4+381.9+239.3+377.2+229C375.5+225.3+374.7+221.6+374.6+217.5C374.4+212.3+373.8+210.3+369.6+203C367+198.3+362+190.4+358.5+185.4C353.2+177.7+349+168.7+349+164.8C349+162.7+351.1+165.5+354+171.4C357.9+179.2+362.8+184.3+366.1+183.8C367.8+183.6+368.6+182.8+368.8+180.8C369.1+178.5+369.6+178.2+372.2+178.2C376.5+178.3+377.4+176.2+374.4+172.7C371.8+169.6+368.6+164+369.5+164C369.7+164+371.4+164.9+373.2+166C380.3+170.3+380.7+168.2+374.5+159C370+152.1+367.6+146+369.9+147.4C371.8+148.6+374+146+374+142.4C374+138.4+370.9+130.1+367.8+126C365.4+122.7+366+120.8+368.7+123.2C371.4+125.5+376.6+128+379+128C381.8+128+381.5+125.8+378.4+122.9C374.8+119.6+370+112.5+370+110.5C370+109.1+370.6+109.3+373.1+111.4C376.6+114.3+379.2+114.7+381+112.5C383+110+381.2+105.8+375.8+100.7L370.8+96L374.7+96C379.6+96+382.4+94.2+381.4+91.6C380.5+89.2+369.4+84+365.3+84C360+84+360.7+82.4+366.8+81C369.9+80.2+373.5+79+374.8+78.2C378.1+76.1+377.3+72.8+373.2+71.8C368.8+70.6+368.3+68.7+371.4+64.9C374.4+61.4+374.7+58.8+372.4+56.9C371.2+55.9+370.4+55.9+369+56.8C366.7+58.2+366+56.7+366+50.1C366+43.9+362.8+40.4+358+41.4C355.2+41.9+354.9+41.8+355.5+39.9C356.3+37.5+355.2+30+354+30C353.5+30+352.2+32+351+34.4C349.9+36.8+348.2+39.4+347.4+40C346.2+41+346+40.8+346+38.3C346+33.8+344.5+32.9+339.1+34.6C334.8+35.9+334.4+35.9+333.1+34C331.7+32+329+31.2+329+32.9C329+33.4+327.4+32.2+325.5+30.3C320.8+25.6+319.5+26.3+319.3+34C319.2+37.4+318.9+40.5+318.6+40.7C318.4+41+317.2+40.2+316+39C313+36+311.6+36.9+310.9+42.1C310.6+44.5+309.6+48.1+308.8+50C303.9+61.7+304.8+61+299+58C295+56+293.7+54+296.4+54C298.5+54+301.9+49.3+301.3+47.1C301+46.1+301.3+44.9+301.9+44.6C304.4+43+302.9+39+298+34C292.5+28.6+289.3+27.7+285.2+30.6C283.9+31.5+281.7+32.3+280.3+32.5C274.9+33.1+272.8+39.2+275.2+47.2C276.2+50.5+276.1+51.3+274.9+52.1C272.3+53.7+272+53.1+272+46.1C272+35.2+271.5+34.2+262.9+26.7C254.9+19.8+253.4+19.1+250.9+21.2ZM252.9+40.1C253+47.2+252.8+53.5+252.5+53.9C252.3+54.4+250.6+54.5+248.8+54.1L245.5+53.4L245.5+45.1C245.4+37.9+245.7+36.3+248.2+31.9C249.8+29.2+251.4+27+251.9+27C252.4+27+252.9+32.9+252.9+40.1ZM262.1+30.2C266.9+34+267.9+37.3+267.1+47L266.5+54.5L257.5+54.5L257.2+40.7C257.1+33.2+257.2+27+257.5+27C257.9+27+259.9+28.4+262.1+30.2ZM292.8+34.7C293+36+293.7+37+294.4+37C295.1+37+296.5+37.9+297.6+39.1C299.4+41.1+299.4+41.2+297.5+42.6C296.1+43.6+295.5+45.3+295.5+47.8C295.5+51.4+295.4+51.5+291.8+51.8C289.7+52+288+52.6+288+53.1C288+54.8+290+58+291+58C291.5+58+293.6+59.1+295.6+60.5C302.2+65+319.7+68.2+325.8+66C327.6+65.4+329.4+65+329.6+65.3C329.9+65.5+329.1+67.3+328+69.3C326.9+71.2+326+73.2+326.1+73.6C326.5+75.9+325.8+76.1+323.4+74.5C320.5+72.6+317.3+71.5+309+69.5C306+68.7+300.1+67.3+296+66.2C291.9+65.1+285.8+63.9+282.5+63.7C279.2+63.4+272.5+62.6+267.5+61.9C254.1+60.2+235.1+61.3+214+65.1C211+65.7+207.4+66.3+206+66.5C202.4+67.1+187.5+71.7+185.1+73C183.4+73.9+182.9+73.8+182.4+72.6C182.1+71.8+182.1+70.7+182.4+70.2C182.7+69.7+181.5+67.9+179.7+66.2C175.1+61.8+174.4+60.7+174.8+58.8C175.2+57+171.5+54+168.7+54C166.9+54+165.3+51.4+166.4+50.3C166.8+49.9+168.3+50.3+169.8+51.2C171.8+52.4+173+52.6+174.3+51.8C177.1+50.3+179.3+51.6+178.6+54.4C178.3+55.8+178.4+57.2+179+57.5C179.5+57.8+180+59.2+180+60.5C180+61.9+180.8+63.4+181.9+64C187.3+66.8+215.8+62.4+220.5+58C223.4+55.2+223.7+53+221.2+53C218.8+53+218+52.2+218.7+50.4C219+49.5+220+49.2+221.2+49.6C223.6+50.3+228.7+48.3+229.4+46.3C229.7+45.5+229.5+44+229+43C228.2+41.5+227.1+41.2+223.8+41.5C219.6+41.9+218+43.2+218+46.2C218+47.6+217.5+47.8+215.8+47.1C213+46+213.1+42.3+215.9+40.3C217+39.6+218+38+218.2+36.7C218.6+33.6+223.5+33+224.3+35.9C224.8+38.1+227.4+38.7+228.5+37C228.8+36.4+229.8+36+230.6+36C231.6+36+232+37.2+232+39.9C232+42.1+232.5+44.2+233.1+44.6C233.7+44.9+234+46.5+233.6+48C233+51.5+234.9+53.4+241.7+56C245.8+57.5+248.8+57.8+258.6+57.5C272.5+57.1+278.6+55.8+281.8+52.4C283.1+51.1+285.1+50+286.3+50C289.2+50+293+47.3+293+45.3C293+43.2+290.1+40+288.2+40C287.5+40+285.5+40.9+283.9+42.1C281.7+43.7+281.1+44.7+281.5+46.3C282.1+48.5+282.1+48.5+280.6+46.6C278.6+44.1+278.6+42.4+280.6+41.6C282.1+41+282.1+40.8+280.6+39.2C278.8+37.2+280.1+35+283+35C283.9+35+285.5+34.3+286.6+33.5C289.3+31.4+292.4+32+292.8+34.7ZM340+41.6C340+43.9+340.3+44.1+342.5+43.6C344.3+43.1+345+43.4+345+44.5C345+45.4+344.1+46+342.6+46C341.2+46+339+46.4+337.6+47C334.5+48.1+334.5+47.9+336.7+42.8C338.7+38.4+340+37.9+340+41.6ZM330.7+42.2C330.4+43+330.1+42.7+330.1+41.6C330+40.5+330.3+39.9+330.6+40.3C330.9+40.6+331+41.5+330.7+42.2ZM322.1+49.1C321+51.4+320.3+53.7+320.6+54.1C321.4+55.4+325.4+55.2+326.8+53.8C327.7+52.9+328+52.9+328+54.1C328+55+327.1+56.5+326+57.5C324.9+58.5+324.1+60+324.2+60.9C324.4+62.2+323.7+62.5+320.5+62.3C318.3+62.1+315.5+61.8+314.3+61.5C312.2+61+312.2+61+314.9+58.1C316.3+56.6+318.9+52.6+320.5+49.4C322.2+46.1+323.6+43.7+323.8+44.1C324+44.5+323.2+46.7+322.1+49.1ZM352+52C347.2+57.7+346+58.7+346+56.7C346+56+347.1+54.4+348.5+53.2C349.9+52+351+50.1+351+49C351+47.5+351.7+47+353.6+47C356.2+47+356.2+47+352+52ZM343+50.7C342.9+52.5+339.2+55.7+336.7+56.2C334.3+56.7+333.9+56.4+334.2+54.6C334.4+53.1+335.1+52.6+336.6+52.8C337.8+52.9+339.3+52.4+340+51.5C341.3+49.9+343+49.5+343+50.7ZM362.3+52.5C362+53.4+361.5+53.9+361.3+53.6C361+53.3+361.1+52.7+361.5+52.1C362.4+50.5+363+50.8+362.3+52.5ZM190+60C191.2+60.8+190.9+61+188.7+61C187.1+61+186.1+60.6+186.5+60C187.3+58.8+188.1+58.8+190+60ZM338+61C338+61.5+337.6+62+337+62C336.5+62+336+61.5+336+61C336+60.4+336.5+60+337+60C337.6+60+338+60.4+338+61ZM357+62.5C357+62.7+355+63.8+352.5+64.9C344.6+68.4+347.4+71.9+358.2+72.1C361.7+72.1+366.1+72.7+368+73.5L371.5+74.8L369+75.8C367.6+76.3+364.5+77.1+362+77.5C359.5+77.9+356.6+78.8+355.5+79.4C354.4+80.1+352.3+81+350.8+81.4C348.9+81.8+348+82.7+348+84C348+86.7+349+87.1+357.7+87.1C362.9+87.1+366.4+87.7+368.4+88.8C370.1+89.7+372.4+90.8+373.5+91.2C376.1+92.2+372.5+91.6+365.7+90C360.5+88.7+352.2+90+350.8+92.3C349.5+94.4+352.2+96+356.9+96C361.5+96+368.3+98.7+368.1+100.5C368.1+101.1+365.2+101.6+361.8+101.8C353+102.2+350.4+105.7+356.5+109C358.9+110.3+360.8+113.9+360.8+117.5C360.9+120.9+363.1+129+364+129C365.1+129+369.6+136.8+370.4+140.2C370.7+141.8+370.9+143+370.7+143C370.5+143+368.6+140.3+366.5+136.9C361.1+128.1+353.2+119+351.1+119C347.4+119+346.5+121.7+348.3+126.8C349.2+129.4+351.1+136.4+352.5+142.5C354+148.5+355.9+156.4+356.7+160C357.6+163.6+359.6+168.9+361.1+171.9C362.7+174.9+363.8+177.5+363.6+177.7C362.8+178.5+356.1+166.1+354.4+160.8C353.5+157.9+352.4+154.8+352+153.9C351.5+153.1+351.4+151.2+351.7+149.7C352+148.1+351.6+146+350.6+144.5C348.7+141.6+345+141.1+345+143.8C345+144.8+344.5+146.1+343.9+146.7C343+147.6+343+148.7+343.8+150.7C344.4+152.2+345.1+156.4+345.3+160C346+169.2+348.5+177+353.1+183.7C355.2+186.9+357+190+357+190.7C357+191.3+357.3+192+357.8+192.2C359.4+192.9+365+200.9+368.3+207.4C372.4+215.6+372.2+219.1+367.9+213.9C366.3+212+365+209.7+365+208.8C365+207.9+364.3+206.5+363.5+205.6C362.7+204.8+362+203.8+362+203.3C362+202.4+353.8+189.2+348.6+181.7C346.5+178.7+345.4+177.9+343.3+178.2C337.5+178.9+338.2+183.2+346.5+196C349.6+200.8+362.4+215.5+368.8+221.6C372+224.7+377.7+237.7+378.3+243.2C378.6+245.9+378.6+248+378.2+248C377.8+248+374.4+242.2+370.7+235.1C366.9+228.1+361.5+219.2+358.5+215.4C355.6+211.6+352.2+207.3+351+205.7C349.8+204.2+347.9+203+346.8+203C344.5+203+341+205.7+341+207.4C341+209.2+345.1+216.4+346.9+217.6C347.8+218.3+349.6+219.7+351+220.9C353.2+222.8+353.2+223+351.5+222.6C344.8+220.9+343.5+231.3+349.1+242C352+247.7+352.5+249.6+353+259.1C353.5+266.5+354.2+270.4+355.3+272.1C357.5+275.1+357.4+275.6+355+275.6C352.9+275.6+352.1+273.9+349.9+264C348.6+258+342.5+239.5+341+236.8C339.4+234+336.2+221.1+334.9+212.1C333.6+202.7+334.1+188+336.4+172C337.2+166.2+338.4+155.4+339+148C339.6+140.6+340.5+131.3+341+127.5C343.1+111.6+343.2+102.4+341.5+86.5C340.6+77.7+339.4+69.8+338.9+68.9C338.3+67.7+338.8+66.9+340.7+65.9C342.1+65.1+344+64.6+344.9+64.7C345.8+64.9+348.5+64.3+351+63.6C356+62+357+61.8+357+62.5ZM159.5+63.7C158.4+64+156.9+65.1+156.2+66.1C154.6+68.5+148.8+68.8+149.6+66.5C150.3+64.9+155.1+63.2+159+63.2C161+63.2+161.1+63.3+159.5+63.7ZM275+66C290.3+68.2+302.1+71.1+310.1+74.6C314.7+76.5+319+78.6+319.7+79.2C321.5+80.7+321.4+83.1+319.5+82.4C317+81.4+313+84.7+313+87.8C313+89.4+313.5+91.1+314.1+91.7C314.7+92.3+314.9+93.3+314.5+94C314+94.8+313.2+94.6+311.6+93.2C303.3+85.5+287.1+82.6+252+82.6C224.7+82.5+210.9+84.6+202.8+90.2C201.4+91.2+199.5+92+198.6+92C196.7+92+196.5+89.9+198.1+88.3C199.8+86.6+198.4+82.5+195.5+81C193.4+79.9+192.7+79.8+192.1+80.9C191.1+82.4+187.6+77.5+188.3+75.6C188.8+74.3+199.3+70.9+208.5+69C228.5+64.8+258.2+63.5+275+66ZM154.6+83.1C153.2+84.2+151+85+149.8+84.8C147.7+84.4+147.9+84.2+151+82.8C156+80.5+157.7+80.6+154.6+83.1ZM160+87.5C160+89+160.7+90.1+162+90.5C163.1+90.8+164+91.6+164+92.1C164+93.3+161.3+93.2+160.5+91.9C160.1+91.3+158.6+91.2+156.9+91.5C154.1+92.1+154+92.1+155.1+89.4C157.2+83.7+160+82.7+160+87.5ZM171.2+88.2C170.3+89.1+170+88.9+170+87C170+85.1+170.3+84.9+171.2+85.8C172.1+86.7+172.1+87.3+171.2+88.2ZM266.6+86.3C268.1+87.8+266.8+452.7+265.3+455.2C264.4+456.8+263.3+455.9+261.6+452.3C260.6+450.2+258.5+446.9+256.8+444.8L253.9+441L254.1+419.8C254.2+408.1+254.4+394.9+254.5+390.5C254.6+386.1+255+334.3+255.3+275.5C256.1+153.6+256.9+87+257.7+85.7C258.2+84.8+265.7+85.3+266.6+86.3ZM240+87.3C240+88+239.4+89.3+238.8+90.2C237.7+91.6+236.7+91.7+231.8+90.8C224+89.4+224.1+88.4+232.3+86.7C236.1+85.9+240+86.2+240+87.3ZM252+88.7C252.3+102.6+251.1+327.6+250.6+352C250.6+356.1+250.1+360.1+249.7+360.8C249.2+361.6+249.3+362.7+250.1+363.6C251+364.7+251+365.4+249.7+366.8C248.4+368.3+248.3+368.9+249.3+369.9C250.2+370.8+250.2+371.3+249+372C247.8+372.8+247.8+373.1+249.3+374.8C251.1+376.7+251.5+379.5+250.2+380.4C249.8+380.6+249.5+385.9+249.6+392.2C249.7+398.4+249.3+404.1+248.8+404.7C248.1+405.6+248.2+406.5+249+407.5C250.1+408.8+250+409.3+248.6+410.3C247+411.5+247+411.7+248.4+412.9C250.4+414.6+250.5+419+248.6+419C246.3+419+245.5+421.2+247.3+422.5C249.5+424.1+249.5+426.2+247.4+425.8C244.9+425.4+244.6+427.7+246.9+429C248.1+429.6+249+430.5+249+431.1C249+431.7+248.6+431.9+248.1+431.6C246.7+430.7+244+432.1+244+433.6C244+434.4+245+435.5+246.3+436C248.3+436.8+248.2+436.9+245.1+436.9C242.1+437+241.8+437.2+242.4+439.5C242.8+440.9+242.7+442+242.3+441.9C240+441.5+239+442.2+239+444C239+445.1+238.5+446+237.9+446C237.3+446+237+446.9+237.3+447.9C237.6+449.2+237.2+450+235.8+450.3C234+450.8+233.9+450.5+234.4+447.7C235+444.1+235.7+425.7+236.5+395C236.8+383.7+237.5+360.5+238+343.5C238.5+326.4+239.2+298.8+239.5+282C239.8+265.2+240.2+241.6+240.5+229.5C240.7+217.4+241.2+192.4+241.6+174C241.9+155.6+242.3+137.1+242.5+133C242.7+128.9+243.2+116.6+243.6+105.7L244.3+86L248.1+86C251.7+86+252+86.2+252+88.7ZM280.3+87C284.3+87.6+288.6+88.3+289.9+88.6C292.3+89.1+292.3+89.1+289+91.1C287+92.4+283.1+93.4+278.9+93.7L272+94.3L272+90.1C272+87.9+272.3+86+272.6+86C272.9+86+276.4+86.5+280.3+87ZM222.9+92C225.6+94.3+225.8+94.8+224.1+94.3C222.9+94+221.7+93.4+221.4+92.9C221.1+92.4+220+92+218.9+92C217.9+92+217+91.3+217+90.5C217+88.2+219.1+88.8+222.9+92ZM300+93.4C300+94.5+299.2+97.5+298.3+100C297.2+103+296.6+107.7+296.6+114C296.5+119.5+296.1+123.6+295.5+123.7C295+123.9+294.4+122.1+294.3+119.7C294.2+114.5+295.8+93.6+296.6+91.6C297.4+89.5+300+90.8+300+93.4ZM146.5+92C146.2+92.5+145.4+93+144.9+93C144.3+93+144.2+92.5+144.5+92C144.8+91.4+145.6+91+146.1+91C146.7+91+146.8+91.4+146.5+92ZM212.9+93.7C216.2+102+216.2+126+212.9+126C212.2+126+212.1+124.5+212.6+121.7C213.9+114.3+213.3+97.5+211.5+94.1C210.7+92.4+210.4+91+210.9+91C211.4+91+212.3+92.2+212.9+93.7ZM142+94C140+95.3+138.7+95.3+139.5+94C139.8+93.4+140.9+93+141.8+93C143.3+93+143.3+93.2+142+94ZM183.5+94.1C184.6+95.8+183.4+96.2+182+94.5C181.2+93.6+181.2+93+181.8+93C182.4+93+183.2+93.5+183.5+94.1ZM207+95.9C208.2+98.2+208.4+104+207.3+104C204.3+103.9+201.5+98.7+203+96C204.3+93.5+205.6+93.5+207+95.9ZM310+100.3C310+102.6+304.8+108+302.5+108C301.6+108+301.1+107.5+301.3+106.7C301.6+106.1+302.7+102.9+303.6+99.8L305.4+94.1L307.7+96.2C309+97.4+310+99.2+310+100.3ZM174.9+97.1C176.3+97.3+177.6+98.1+177.8+98.9C178.1+99.9+177.8+100.1+176.6+99.7C175.5+99.2+174+99.9+172.3+101.8C170.5+103.7+169.9+103.9+170.3+102.7C170.7+101.7+171+99.4+171+97.7C171+95.9+171.4+95+171.8+95.6C172.2+96.3+173.6+97+174.9+97.1ZM286.9+97.4C281.6+99.4+273.3+100.4+272.5+99.1C271.9+98.1+275.7+97.5+280.1+97.9C280.9+98+282.7+97.6+284.1+97.1C285.4+96.6+287.4+96.1+288.5+96.1C289.7+96.1+289.1+96.7+286.9+97.4ZM135+100.1C133.8+101.7+132.5+102.9+132.2+102.6C131.7+102+135.8+97+136.7+97C137+97+136.2+98.4+135+100.1ZM230.3+99.7C234+100.8+237.5+102.1+238.1+102.7C238.8+103.4+238.9+105.4+238.5+108C237.9+111.3+237.5+112+236.2+111.5C235.2+111.1+231.4+110.2+227.6+109.4C223.8+108.7+220.6+107.9+220.5+107.8C220.4+107.6+220+105.1+219.8+102.2C219.2+96.1+218.1+96.4+230.3+99.7ZM290+105C290+107.2+290.1+109.3+290.3+109.7C290.4+110.2+289.4+110.7+288+110.8C286.6+111+285.1+111.6+284.5+112.1C284+112.6+281+113+277.7+113L271.9+113L272.2+108.7C272.5+104.8+272.7+104.5+276+103.8C277.9+103.4+281.5+102.7+284+102.2C286.5+101.7+288.8+101.2+289.3+101.1C289.7+101.1+290+102.8+290+105ZM182.4+111C182.8+113.9+182.7+114.8+182.2+113.5C181+110.7+179.9+103.1+180.9+105C181.4+105.8+182.1+108.5+182.4+111ZM366+109.7C366+111.4+367.4+114.3+369.5+116.9C373.2+121.5+373.9+123+371.6+121.1C367.4+117.6+362.4+107+364.9+107C365.5+107+366+108.2+366+109.7ZM135.5+118.7C134.6+120.2+134.2+120.6+134.5+119.5C134.9+118.4+135.4+116.1+135.8+114.5C136.3+112+136.5+111.8+136.8+113.7C137+114.9+136.4+117.1+135.5+118.7ZM163+116.4C163+116.7+161.6+117.9+159.8+119.1C156.9+121.2+156.7+120.5+159.3+117.2C160.2+116.1+163+115.5+163+116.4ZM175.1+117.3C175+118.5+173.6+118.2+173.2+116.9C172.9+116.3+173.3+115.9+174+116.1C174.6+116.4+175.1+116.9+175.1+117.3ZM170.9+122.5C170.2+123.2+169.6+123+169+122C167.5+119.6+167.9+118.9+170+120.2C171.3+121.1+171.6+121.8+170.9+122.5ZM168.8+129.3C169+130.3+168.5+131+167.6+131C166.6+131+166+130.1+166+128.9C166+126.5+168.3+126.8+168.8+129.3ZM300.8+133C301.4+138.7+300.3+139.5+297+135.7C293.7+131.9+293.4+131+295.1+129.3C297.1+127.3+300.5+129.4+300.8+133ZM151.6+129.9C151+130.7+145+132+145+131.3C145+130.8+149.3+129.1+150.8+129.1C151.5+129+151.9+129.4+151.6+129.9ZM213+130.5C215.1+133+215.2+141+213.1+141C212.1+141+209+133.1+209+130.7C209+128.6+211.3+128.5+213+130.5ZM356+131.9C356+132.9+357+134.5+358.1+135.6C359.3+136.6+361.3+139.7+362.5+142.5C365.7+149.4+369.3+157.3+369.8+158.5C370.1+159+368.9+158.2+367.2+156.6C365.5+155.1+363.2+151.5+361.9+148.6C360.7+145.8+359.3+143.2+358.8+142.9C358.2+142.5+357+139.3+356+135.6C354.9+131.9+354.5+129.2+355.1+129.5C355.6+129.9+356+130.9+356+131.9ZM179.6+140.5C180.5+143.3+180.7+145.6+180.2+147.1C179.4+149.1+179+148.5+177.2+142.5C176+138.6+174.8+134.1+174.4+132.5L173.8+129.5L176+132.8C177.1+134.7+178.7+138.1+179.6+140.5ZM173+145C173+145.5+172.5+146+171.9+146C171.4+146+171.2+145.5+171.5+145C171.8+144.4+172.3+144+172.6+144C172.8+144+173+144.4+173+145ZM139.1+152.3C137.8+153.6+137.6+152.2+138.7+149.3C139.4+147.6+139.5+147.6+139.8+149.4C140+150.4+139.7+151.7+139.1+152.3ZM196.5+160.9C197.4+164.4+197.9+167.4+197.7+167.6C196.8+168.5+193+158.9+193+155.8C193+151.1+194.6+153.4+196.5+160.9ZM137.7+156.2C137.4+157+137.1+156.7+137.1+155.6C137+154.5+137.3+153.9+137.6+154.3C137.9+154.6+138+155.5+137.7+156.2ZM172.5+165.3C171.8+168.1+169+171.1+169+169.1C169+166.9+167+168.1+166.3+170.7C166+172.3+164.4+174.8+162.8+176.3C159.9+179.2+159.1+178.5+161.1+174.7C162.5+172.2+172.2+161.9+172.7+162.4C172.9+162.6+172.8+163.9+172.5+165.3ZM363.4+164.6C363.8+165.6+363.5+166+362.8+165.8C361.3+165.3+360.5+163+361.8+163C362.3+163+363.1+163.7+363.4+164.6ZM182.5+168.8C182.8+170.3+182.5+173+181.8+174.7C180.5+177.7+180.5+177.7+180.4+171.9C180.3+165.7+181.4+164.1+182.5+168.8ZM370.4+172.7C371.2+174.6+370.6+174.3+367.9+171.4C365.6+168.9+365.6+168.8+367.7+170.1C369+170.8+370.2+172+370.4+172.7ZM181+182.6C181+183.4+182.1+185.1+183.5+186.4C185.7+188.5+185.8+189+184.9+192.6C184.3+194.7+183.1+197.8+182.3+199.4L180.8+202.4L179.6+198.9C178.3+195.1+178.7+179.7+180.1+180.6C180.6+180.9+181+181.8+181+182.6ZM356+201.1L357.3+203.5L354.6+201C353.1+199.7+351.4+197.6+350.7+196.4C350+195.2+348.8+193+347.9+191.4C347+189.8+345.9+187.4+345.5+186C344.8+183.7+353.3+195.8+356+201.1ZM197.7+200.3C198+204.8+197.8+206.1+197.1+204.9C196.5+204+195.8+200.4+195.5+196.9C195.1+191.9+195.2+190.9+196.1+192.3C196.7+193.4+197.4+197+197.7+200.3ZM169.5+198C168.5+199.1+167.5+199.8+167.2+199.5C166.9+199.2+167.5+198.1+168.5+197C169.5+195.9+170.5+195.2+170.8+195.5C171.1+195.8+170.5+196.9+169.5+198ZM189+197C189+198.6+183.9+208.3+183.4+207.7C182.7+207.1+187.3+196+188.3+196C188.7+196+189+196.5+189+197ZM164.9+211.9C163.8+214.7+162.1+217.5+161.2+218.2C159.8+219.4+159.7+219.1+160.4+216C161.1+212+166.1+203.9+166.7+205.7C166.9+206.3+166.1+209.1+164.9+211.9ZM351.5+214.2L356.5+219.3L352.2+216.1C348.7+213.4+345+209+346.3+209C346.4+209+348.8+211.3+351.5+214.2ZM359.1+223.7C360.4+225.3+360.3+225.4+358.8+224.1C357.1+222.8+356.6+222+357.4+222C357.6+222+358.4+222.8+359.1+223.7ZM177.4+230.8C178.7+233.4+180.4+241.7+179.4+240.7C179.1+240.5+177.8+237.2+176.5+233.6C174.1+227.1+174.7+225.4+177.4+230.8ZM356+236C356+236.8+356.7+238.4+357.5+239.4C359.2+241.7+359.5+244.4+358+243.5C356.5+242.6+352+233.4+352+231.3C352+229.8+352.4+229.9+354+232C355.1+233.4+356+235.2+356+236ZM171.5+240.5C171.7+241.9+171.4+243+170.9+243C170.4+243+170+241.6+170+239.8C170+236.2+171.1+236.7+171.5+240.5ZM370.2+253C372.6+260.2+373.1+268.4+371.2+271.5C370.1+273.3+370+273.2+370.6+270.7C371+269.1+370.6+266.2+369.6+263.7C368.1+259.6+363+240.7+363+239.2C363.1+237.4+368.2+247.2+370.2+253ZM160.5+254.4C159.7+259.5+157.1+264.1+157+260.5C157+258.3+160.2+248.8+160.8+249.4C161+249.6+160.8+251.9+160.5+254.4ZM170.3+263.3C170.5+267+170.3+270.3+169.8+270.6C169.4+270.9+169+270.5+169+269.8C169+269.1+168.7+264.2+168.5+259C168.2+252.2+168.3+250.5+169+253C169.5+254.9+170+259.6+170.3+263.3ZM178.9+256.5C178.8+260+178.7+260.2+178+258C177.6+256.6+177.2+254.1+177.1+252.5C177.1+250.2+177.3+249.9+178+251C178.5+251.8+178.9+254.3+178.9+256.5ZM359.7+265.4C359.9+270.9+359.8+272+359+270.2C358.5+268.9+358.3+267.4+358.6+266.9C358.9+266.3+358.7+265.4+358.2+264.7C357.7+264+357.3+261.6+357.3+259.3C357.5+252.6+359.2+257.1+359.7+265.4ZM364.7+272.2C364.5+273.5+364.3+272.5+364.3+270C364.3+267.5+364.5+266.5+364.7+267.7C364.9+269+364.9+271+364.7+272.2ZM361.1+283.2C363.6+288.1+365.4+301+364+304.3C363.2+306.3+363.1+306.2+363.1+303.4C363+301.7+361.9+296.8+360.5+292.6C358.2+285.7+357.2+279+358.5+279C358.7+279+359.9+280.9+361.1+283.2ZM169.8+292.7L169.4+295.5L168.1+292.5C167.4+290.8+166.6+288.1+166.3+286.5L165.8+283.5L168+286.7C169.3+288.7+170+291+169.8+292.7ZM355.4+293.7C356+298.9+355.7+300.8+354+304.6C352.9+307.2+352+310.3+352+311.6C352+312.8+351.4+314.5+350.6+315.3C349+316.9+348.2+321.9+349.3+323.7C349.8+324.4+349.7+325.8+349.2+326.7C348.7+327.7+347.7+331.6+347+335.5C344.7+349.2+343.9+349+342+334.4C340.8+325.3+340.9+323.8+342.5+318.9C343.5+315.9+345.1+312.3+346.2+310.8C350.3+304.9+353+297.1+353+290.7C353.1+283.1+354.5+284.9+355.4+293.7ZM74.8+353.2C78+356.3+77.8+360.6+74.3+361.5C67.9+363.1+67.2+367.2+72.5+371.9C76.9+375.7+74.7+376.1+69+372.5C65.5+370.3+63.7+367.3+63.5+363.5C63.5+361.7+60.2+361.9+59.6+363.7C58.2+368.2+62.7+376.2+68.3+379.2C72.9+381.6+68.9+381.5+64.2+379.1C56.8+375.3+54+371.1+54+363.9C54+360.9+54.6+359.5+56.7+357.7C58.2+356.5+60.4+354.5+61.7+353.3C65.7+349.5+70.7+349.5+74.8+353.2ZM118.4+372.5C121.4+374.5+125+382.7+125+387.6C125+392.1+121.8+397.5+118+399.5C113.3+401.9+112.6+401.2+116.3+397.7C119.7+394.6+122+389+122+384.2C122+381.1+120.4+378.2+116.7+374.2C113.5+370.8+114.4+369.9+118.4+372.5ZM96.9+399.5C99.7+400.9+104.9+404.9+108.3+408.3C113.3+413.2+115.3+416.1+117.8+422.2C122.2+432.9+121.8+435.2+117.1+425.5C111.7+414.1+102.7+406+95.5+406C91.4+406+91.8+407.7+96.5+410C101+412.2+108+419.2+110.6+424.2C112.8+428.5+116.1+446.8+115.4+450.9C115+452.9+113.7+456.5+112.4+459C110.8+461.9+110.4+463.8+111+464.4C112.3+465.7+114.1+463.8+117.5+457.5C120.1+452.7+120.2+452.7+119.6+456C119.3+457.9+117.6+461.4+116+463.8C114.3+466.1+113+468.4+113+468.9C113+470.3+116.1+472.4+118.3+472.5C119.5+472.6+121.7+472.7+123.1+472.8C126.7+473.1+133.6+478.7+136.1+483.5C139.3+489.3+138.5+500.3+134.7+505.3C131.9+509+129.2+510.1+128.6+507.7C125.3+496.2+122.2+492.4+113.8+489.7C107.7+487.8+103.2+487.6+98+488.9C96.1+489.4+93.3+490.1+91.8+490.4C88.3+491.2+79.3+498.7+63.8+513.6C60.7+516.6+57+516.3+52.5+512.8C47.4+508.8+45.2+497.3+48.4+491.1C51.5+485.1+62.1+477.5+68.7+476.4C73.8+475.6+81+478.7+84.2+483.1C86.7+486.4+89+486.9+89+484C89+481.3+83.4+475.2+79.1+473.4C74+471.2+61.3+470.4+56.5+472C51.8+473.6+43.2+481.3+41.4+485.7C39.8+489.5+39.5+497.6+41+498.5C41.6+498.8+42+500.8+42+502.8C42+510.3+49.8+517.8+58.5+518.8L63+519.3L62.6+525.4C62.2+531.1+62+531.5+59.8+531.2C56.4+530.8+43.3+533.7+39.6+535.8C37.9+536.7+33.2+540.1+29.3+543.2C25.3+546.4+21.4+549+20.7+549C20+549+17.1+547.4+14.1+545.5C11.2+543.6+8.4+542+7.9+542C5.7+542+3+533.5+3+526.6C3+522.1+3.4+520+3.9+520.9C4.4+521.7+5.8+522.1+7.4+521.8C9.8+521.3+10+521.6+10+524.6C10+531.4+16.8+541.8+20.3+540.4C22.4+539.6+22.5+538+20.5+535.4C17.7+531.7+19+531.6+22.1+535.3C24.2+537.9+25.9+539+27.3+538.8C30.5+538.3+30.4+536.5+26.9+532.6C25.2+530.6+23.7+528+23.6+526.8C23.5+523.9+21.5+523.5+19.1+525.9L17.1+527.9L16.4+524.4C15.5+519.8+16.6+512.2+18.5+509.3C21.5+504.8+17.5+503.3+14.1+507.6C12.4+509.8+12+509.9+12+508.4C12+503.4+20.8+496+26.8+496C30.5+496+33+495.1+33+493.8C33+493.3+34+492+35.2+491C37.4+489.3+37.4+489.3+35.5+486.4C33.1+482.9+30.2+474.5+30.1+471C30+467.9+34.1+459+36.6+456.9C37.6+456+40.1+454.5+42+453.6C45.3+452+45.6+452+48.1+453.9C52.4+457.1+58+459+63.1+459C69.4+459+70.2+457.4+64.4+456.5C59.1+455.7+50.9+451.8+47.9+448.7C46.8+447.5+44.7+444.3+43.3+441.6C41+437.1+40.8+435.7+41.2+428.1C41.7+418.3+42.8+415.7+49.4+408.3C57+399.8+68.4+395.8+83.2+396.5C90+396.8+92.9+397.4+96.9+399.5ZM121.7+443.7C121.5+445.3+121.3+444+121.3+441C121.3+438+121.5+436.7+121.7+438.2C121.9+439.8+121.9+442.2+121.7+443.7ZM254.9+449.9C257.2+455.8+255.9+456.9+248.3+454.9L244.1+453.8L246.6+450C248.6+447.1+249.6+446.4+251.5+446.7C252.9+447+254.3+448.3+254.9+449.9ZM272.3+460.9C272.8+461.4+272.9+462.4+272.5+463C271.9+463.9+266.6+464.1+250.6+463.5C239+463.1+229.2+462.6+228.8+462.3C228.3+462.1+228+461.2+228+460.4C228+459.1+231+459+249.7+459.5C261.6+459.8+271.8+460.4+272.3+460.9ZM254.5+467.5C275.6+468+274.4+467.2+276.8+483C277.3+486.6+277.9+490.2+278.1+491C278.4+492.2+276.7+492.4+267.5+492.2C247.1+491.8+237.8+490.9+238.4+489.4C239+487.9+236.3+486.1+233.4+486.1C232.4+486.2+230.2+485.7+228.5+485.1C225.7+484.2+225.8+484.1+230.3+484.2C236.1+484.4+238.6+482.6+234.6+481C233.1+480.5+230.2+479.9+228.2+479.9C226.2+479.8+228.1+479.3+232.5+478.8C241.2+477.8+241.9+477.5+240.2+475.8C239.5+475.1+236.2+474.6+232+474.7C226.6+474.8+225+474.5+225+473.4C225+472.3+226.8+472+232.9+472C237.5+472+241.2+471.5+241.5+470.9C242.6+469.2+241.4+468.7+235.4+468.2C231.7+467.9+230.3+467.4+231.2+466.9C231.9+466.4+233.6+466.2+235+466.5C236.4+466.8+245.2+467.2+254.5+467.5ZM31.4+489.7C31.8+490.1+29.4+491+26.1+491.6C16+493.7+8+500.4+4.9+509.2L3.1+514.5L3.1+508.5L3+502.6L8.8+496.9C14.9+491+18.8+489.3+26.6+489.1C28.8+489+31+489.3+31.4+489.7ZM167+491.8C174+493.4+203.4+494.9+240+495.6C258.4+495.9+276+496.3+279+496.4C296.5+497.2+332.1+494.2+343.7+490.8C346+490.1+348.2+489.9+348.5+490.2C348.8+490.5+349.3+492.5+349.7+494.6C350.2+498.3+350.2+498.4+348.6+496.5L347+494.5L345.4+496.5C344.6+497.6+344+499.7+344.3+501.2C344.6+503.4+344.4+503.7+343.3+502.8C342.5+502.1+341.6+502.1+341.1+502.6C339.8+504+338.7+516.7+339.8+517.4C341+518.1+342.6+516.3+343.3+513.5C343.7+511.9+343.8+512.1+343.9+514.2C344.1+518.9+347.1+518.5+348.3+513.5C348.5+512.4+348.8+514.1+348.9+517.2C348.9+520.4+348.7+523+348.4+523C348.1+523+345.5+522.3+342.7+521.5C337.4+520+315.8+516.5+306+515.5C256.8+510.8+201.3+513+166.1+521C158.7+522.7+152.1+523.9+151.4+523.6C149.3+522.8+149.7+520.8+151.9+521.5C152.9+521.8+154.2+521.4+154.9+520.6C155.6+519.8+156.8+519.4+157.5+519.6C159.2+520.3+161+517.1+161.1+512.8C161.3+509.8+161.3+509.7+161.7+512.2C162.6+518.1+166.6+514.5+166.5+508C166.5+505+166.2+504.5+164.3+504.6C162.6+504.6+162+504.1+162+502.4C162+499.5+160.4+498.5+158.5+500C157.2+501.1+157+500.7+157+497.7C157+493.7+155.6+492.2+153.5+494C152.2+495+152+494.8+152+492.5C152+489.9+152.1+489.8+157.3+490.3C160.1+490.6+164.5+491.2+167+491.8ZM233.7+490.6C233.4+490.9+232.5+491+231.8+490.7C231+490.4+231.3+490.1+232.4+490.1C233.5+490+234.1+490.3+233.7+490.6ZM106.5+495C106.9+495.6+105.4+496+102.8+496C97.2+496+89.6+499.7+89.2+502.6C88.8+505.2+92+506.8+93.5+504.7C95.1+502.5+100.6+500+104+500C107.7+500+114+504.4+114+507C114+509.9+116.5+511.3+118.4+509.5C119.3+508.6+120+507.2+120+506.4C120+504.7+115+499.8+110.5+496.9C106.7+494.5+109.3+494.3+115.1+496.6C121.4+499.2+126+508.4+126+518.8C126+523.7+125.3+524.4+122.4+522.1C116.6+517.6+107.8+519.1+104.1+525.1C101.2+529.8+102.9+536+107.1+536C109.4+536+110.6+534.2+109.1+532.7C107.6+531.2+107.7+527.7+109.2+526.2C111.3+524.1+117.4+524.8+119.9+527.4C122.2+529.8+122.5+532.4+121.8+541.1C121+550.2+115.2+555.6+103.6+558C96.8+559.4+96.2+559+94.9+552.9C93.1+544.8+82.1+536.2+71.3+534.5C67.2+533.9+67+533.7+66.8+530.2C66.6+524.3+67+521.7+69+517.5L70.9+513.5L70.8+517C70.6+521.5+71.8+525.2+73.3+524.7C74+524.5+74.8+522+75.3+519.1C75.7+516.1+76.7+512.3+77.6+510.5C79.3+506.9+89+496.6+89.8+497.5C90.1+497.8+91.3+497.4+92.5+496.6C96.1+494.2+105.4+493.2+106.5+495ZM344.7+508.2C344.4+508.9+344.2+508.4+344.2+507C344.2+505.6+344.4+505.1+344.7+505.7C344.9+506.4+344.9+507.6+344.7+508.2ZM151.7+511.2C151.4+512+151.1+511.7+151.1+510.6C151+509.5+151.3+508.9+151.6+509.3C151.9+509.6+152+510.5+151.7+511.2ZM134.1+516C136.7+517.5+139+522.2+139+526.4C139+530.1+135.5+534.4+131.5+535.6C130.4+536+128.7+536.9+127.7+537.8C126+539.3+125.9+539.2+126.6+534.9C127.4+529.6+128.3+528.5+131.8+528.5C137.1+528.5+137.4+520+132.1+519.2C130.8+519+130+518.1+130+516.9C130+514.8+131.2+514.5+134.1+516ZM269.6+521.1C269.3+522.8+269+526+269+528.1C269+531.9+268.9+532+265.3+532C261.9+532+261.8+531.9+263.6+530.6C265.4+529.2+265.4+529.1+262.7+528.1C261.1+527.5+256.5+527.1+252.4+527.3C241.7+527.6+243.3+526.3+254.5+525.5C261.6+524.9+264+524.4+264+523.4C264+522.6+263.3+522+262.5+522C259.6+522+264.3+518.2+267.4+518.1C270.1+518+270.2+518.2+269.6+521.1ZM284.3+521.2C288.5+525.4+291.2+529.8+290.5+531C290.2+531.6+286.3+532+281.9+532C272.7+532+272.4+531.8+273.5+523.5C274.1+518+274.2+518+277.6+518C280.2+518+281.9+518.8+284.3+521.2ZM241+521.6C241+521.8+240.1+522+239+522C237.9+522+237+521.6+237+521.1C237+520.6+237.9+520.4+239+520.7C240.1+521+241+521.4+241+521.6ZM239.7+531.6C239.4+531.9+238.5+532+237.8+531.7C237+531.4+237.3+531.1+238.4+531.1C239.5+531+240.1+531.3+239.7+531.6ZM256.8+531.7C254.7+531.9+251.3+531.9+249.3+531.7C247.2+531.5+248.9+531.3+253+531.3C257.1+531.3+258.8+531.5+256.8+531.7ZM53.7+536.6C53.4+536.9+52.5+537+51.8+536.7C51+536.4+51.3+536.1+52.4+536.1C53.5+536+54.1+536.3+53.7+536.6ZM147+538.7C152.5+541.8+155.2+545.6+155.3+550.6C155.4+554.9+152.8+557.6+147.7+558.5L144+559.2L145+556.4C148.1+548.5+140.2+541.8+133.9+546.9C132.1+548.4+131.8+549.1+132.6+550C133.5+550.9+134.3+550.9+136+550C140.1+547.8+142.9+553+139.4+556.5C135.9+560+127.8+555.3+128.2+550C128.3+548.6+128.1+546.9+127.7+546.3C126.3+544.1+129+540.9+134.3+538.4C140.8+535.4+141.2+535.4+147+538.7ZM67+539.5C67.7+540.3+69.3+541+70.5+541C73.3+541+77.9+544.5+79+547.6C80.1+550.4+81.3+550.6+83.3+548.5C84.6+547.3+85+547.3+86.2+548.8C89.2+552.2+91.3+562+89.1+562C87.6+562+85.5+573.3+86.9+573.8C88.9+574.5+88+577.3+84+582.6C81.2+586.4+78.8+588.3+75.5+589.5C66.9+592.9+56.3+589.8+51.6+582.5C50.5+580.8+50.2+578.8+50.7+575.5C51.5+569.3+54.2+566+58.5+566C62.5+566+62.9+566.5+62.3+570.6C62+572.7+61+574.1+59.4+574.9C55+576.9+57.5+579.9+62.5+578.6C66.9+577.5+69.5+570.7+67.5+565.5C66.8+563.6+66.8+563.6+68.5+565.1C71+567.5+70.8+573.4+68.2+577C66.2+579.7+66.1+580.1+67.5+580.6C68.6+581+70.4+580.1+72.6+577.9C76.6+574+77.1+569.4+74+564.2C72.9+562.4+72+560.3+72+559.5C72+557.4+66.7+555+62.2+555C56.2+555+48.7+557.7+45.6+560.9C42.8+563.8+42.8+566.7+45.6+565.6C46.4+565.3+47+565.7+47+566.5C47+567.3+46.6+568+46+568C43.8+568+43.1+571.8+44.1+577.8C45.5+585.8+47.8+589.1+54.3+592.8C60.2+596.1+63.1+596.6+69.2+595.5L72.9+594.8L70.3+602.1C68+608.4+67.6+611.2+67.6+621C67.5+637.6+70.8+645.7+82.6+657.4C86.1+660.8+89+664.3+89+665.2C89+666+87.2+668.8+84.9+671.3C80+676.9+74.2+679+63.5+679C57.7+679+55+678.4+49.8+676.1C43.8+673.3+35+666.2+35+664C35+662.4+36.1+662.8+40.4+666.3C49.6+673.6+56.5+676.1+64.5+675C72.3+673.9+80+669.6+80+666.4C80+663.8+78+664.1+74.4+667.2C71.1+670.2+70.2+670.4+64+670.4C58.3+670.3+56.4+669.8+51.6+667C45.5+663.6+41.7+660.1+39.5+656C37.5+652.2+36.6+644.6+37.9+642.1C38.9+640.4+38.8+639.9+37.4+639.3C35.2+638.5+32.7+640.1+31.6+643.3C30.9+645.2+31.2+648.2+32.7+654.2C34.1+659.5+34.4+661.9+33.6+660.7C29.7+655.5+29.1+639+32.6+633.1C34.6+629.7+35.9+629.7+44+633.3C50.2+636.1+62.4+636.8+64.9+634.6C67.4+632.3+66.6+627+63.6+627C61.2+627+55.3+623.3+48.6+617.7C45.3+614.8+43.7+614.1+42.5+614.7C41.1+615.5+41.5+616.5+45.5+621.3C48+624.4+49.7+627+49.1+627C48.6+627+45.6+624.6+42.4+621.8C36.2+616.1+32+608.6+32+603.3C32+599.2+30.6+598.4+28+601C26.9+602.1+26+602.7+25.9+602.2C25.2+594.1+25.2+586.9+26+583.6C27+578.8+26+577+23.4+579.1C21.8+580.4+21.7+580.3+22.3+578.6C22.7+577.5+23.5+574.7+24.1+572.2C25.4+566.1+26.5+564.3+31.8+558.8C36.6+553.8+36.9+552.5+32.7+553.5C29.1+554.4+24.3+559.6+21+566C17.5+572.7+17.1+572+20.4+564.7C21.6+561.8+24+558.2+25.6+556.8C36.9+546.3+44.3+542.1+52.6+541.3C56.2+540.9+58+540.3+58+539.4C58+537.4+65.4+537.6+67+539.5ZM127.3+558.7L129.3+561L112.7+561L117.3+557.9C119.9+556.2+122.3+554.3+122.6+553.8C123+553.2+123.7+553.5+124.3+554.6C124.8+555.7+126.2+557.5+127.3+558.7ZM64.9+560.4C65.9+561.5+65.3+561.7+61.7+561.3C59.4+561+55.8+561.2+53.7+561.8C49.1+563.1+48.9+562.4+53.3+560.5C57.4+558.7+63.4+558.6+64.9+560.4ZM21+584.6C20.4+586+20+588.8+20+590.7C20+592.7+19.7+594.1+19.4+593.8C18.4+592.7+18.8+585+20+583.5C21.8+581.3+22.1+581.6+21+584.6ZM12+587.1C12+588.2+11.1+589.9+9.9+590.9C3+596.5+5.4+610.7+14.3+617.4C16.8+619.3+17.1+619.3+18.7+617.8C20.2+616.3+20+615.8+16.8+612C13+607.7+11+599.6+12.8+596.3C13.9+594.5+13.8+594.4+16+602.7C17+606.8+24.1+618.2+28.8+623.2L31.3+625.9L28.9+628.9C27.6+630.5+25.8+631.9+25+631.9C22.4+632+12.2+626.3+9.6+623.3C5.5+618.7+3+610.6+3+602.1C3+595.8+4.8+590+7.7+586.8C9.9+584.4+12+584.5+12+587.1ZM84+594.7C83+597.4+81.9+602.5+81.5+606.2C81+611.7+80.6+612.8+79.3+612.3C76.9+611.4+75+614.8+75+619.9C75+625.4+76.1+627.3+78.6+626.8C80+626.6+80.7+625.3+81+622.5L81.6+618.5L82.4+623C83.5+628.8+85.3+632.3+90.3+638.3C96.1+645.3+99.5+646.6+114+647.5C123.1+648+125.4+649.1+126.9+653.7C127.9+656.7+127.9+658.5+127+661.9C126.1+665.5+125.2+666.4+121.7+668.1C115.9+670.7+113.5+670.5+118.8+667.9C121.2+666.7+123.7+664.5+124.6+662.9C125.9+660.2+125.9+659.6+124.2+655.7C121.8+650.3+119.6+648.6+115.3+648.7C111+648.8+106.9+652.3+108.8+654.2C109.7+655.1+110.5+655+112.6+654C116.3+652+120.5+654.4+120.5+658.5C120.5+661.9+115.4+666+111.1+666C105.1+665.9+87.8+656.4+85.4+651.8C84.9+650.9+83.2+648.6+81.7+646.7C78.5+642.6+75.2+633.9+73.9+625.8C72.3+615.6+76.6+595.5+81.3+591.8C85.2+588.7+86+589.6+84+594.7ZM30.4+615.5C30.8+616.6+29.9+615.2+28.5+612.5C27.2+609.7+26+606.6+26+605.5C26.1+603.8+28.4+609+30.4+615.5ZM254.4+651.6C255.3+651.9+256+653.2+256+654.4C256+656.3+255.4+656.5+249.5+656.8C245.2+657+243+656.7+243+655.9C243+655.2+243.9+655+245.5+655.4C248.2+656.1+252+654.6+252+653C252+652.4+249.9+652+247.4+652C244.6+652+243.1+651.6+243.5+651C244.1+650+251.2+650.4+254.4+651.6ZM254.3+663.2C258.4+665.3+260.5+676.5+257.3+679.1C253.1+682.6+250.2+683.4+247.3+682L244.5+680.7L248.3+680C255.4+678.7+254.4+676.6+246.3+675.5C242.2+675+241+675.1+241+676.2C240.9+676.9+240.2+676.3+239.4+674.7C237.8+671.7+237+671.4+235.1+673.2C232.2+676+235.3+667.4+238.3+664.2C241.4+661+241.7+660.9+247+661.6C250+662+253.3+662.7+254.3+663.2ZM93+671.5C93+672.2+93.6+673.3+94.3+673.7C94.9+674.1+96.6+675.7+97.9+677.3C99.7+679.3+100.1+680.3+99.3+681.1C98.4+682+97.2+681.7+94.6+680.1C90.8+677.7+89.5+675.2+90.5+672C91.2+669.7+93+669.3+93+671.5ZM242+683.4C246.8+686.1+246.9+686.8+242.3+684.8C238.9+683.4+234+679+234+677.6C234+677+234.8+677.5+235.8+678.7C236.7+679.9+239.5+682+242+683.4Z"/>
<path d="M256.3+68C255.7+70.2+254.5+70.6+253.5+69C252.3+67.1+250+68+248.9+70.6C247.4+74.6+250+78+254.5+78C258.9+78+261.5+74.6+260.5+70.1C259.7+66.5+257+65.1+256.3+68ZM215+71.5C213.5+73.3+213.4+77.8+214.8+79.2C215.3+79.7+217.6+80.4+219.7+80.7C223.1+81.1+224+80.9+225.3+79C227.3+76.1+226.1+71.5+223.2+71.5C222.1+71.5+220.8+71.1+220.4+70.7C219.2+69.5+216.3+69.9+215+71.5ZM285.8+71.1C283.7+72.3+283.4+78+285.2+79.8C287.1+81.7+293.4+81.3+295.4+79.1C297.8+76.5+296.7+73+293.6+73C292.3+73+290.7+72.3+290+71.5C288.5+69.8+288.1+69.7+285.8+71.1ZM74+402.4C72+404.4+73.2+405+79.4+405C85.8+405+88.6+403.6+85.9+401.9C84.1+400.8+75.2+401.2+74+402.4ZM58+406C56+407.5+55.8+408.1+56.7+409.1C57.7+410.1+58.5+409.9+60.5+408C61.8+406.8+62.7+405.3+62.4+404.9C61.6+403.6+60.8+403.8+58+406ZM47.6+416C42.1+422.6+41+435.9+45.3+443.2C48.5+448.7+53.2+452.2+56.8+451.8C59.7+451.5+61.4+448+58.6+448C55.6+448+50.3+441.6+48.6+436.1C47.2+431.2+47.2+430.2+48.6+424.7C49.4+421.4+50.8+417.8+51.6+416.5C52.9+414.5+52.6+413+50.9+413C50.5+413+49+414.4+47.6+416Z" fill="#000000" opacity="1"/>
<path d="M63+415.8C55.7+419.7+52.4+428.7+55.7+435.6C59.3+443.2+67.8+446.1+74.5+442C78.1+439.8+79.3+437.8+78.4+435.5C77.5+433.1+75.2+433.7+73.8+436.7C72.6+439.1+71.9+439.5+68+439.5C64.1+439.5+63.3+439.1+61.3+436.1C56.9+429.6+59.6+420.7+66.5+419.4C73.9+418+80+420.4+84.4+426.4C87.6+430.7+87.3+442.1+83.8+447.5C82.4+449.7+80.5+452.1+79.6+452.9C78.7+453.6+78+454.6+78+455.1C78+457.1+80.9+455.8+84.3+452.4C92.6+444+92.9+427.7+84.8+420.4C78.8+414.9+68.7+412.8+63+415.8Z" opacity="1" fill="#000000"/>
<path d="M65.5+425.5C64.1+426.8+63+428.6+63+429.5C63+432.3+66.1+436+68.6+436C71.6+436+72.8+434+70.7+432.5C68.6+431+68.5+427.6+70.5+426C71.3+425.3+71.7+424.4+71.4+423.9C70.4+422.3+68+422.9+65.5+425.5ZM103.6+429.9C103+430.8+105.5+441.2+107+444C108.8+447.3+108+454.3+105+462C101.8+470+101.4+472+103+472C105.3+472+107.7+469.6+107.2+467.8C107+466.8+107.2+465.4+107.7+464.7C109.8+462+112.3+453.4+112.3+449.1C112.4+442.7+110.6+434.6+108.6+431.6C107+429+104.6+428.2+103.6+429.9ZM74.2+456.6C74.6+458.7+76.4+458.9+76.8+456.7C77+455.7+76.5+455+75.5+455C74.5+455+74+455.6+74.2+456.6ZM40.5+459.2C33.8+465+31.2+473.4+33.9+480.2C35+483.2+38.4+484+39.3+481.7C39.6+480.9+39.3+478.5+38.7+476.3C37.4+471.1+39.9+463.8+43.8+461.2C48.3+458.4+49.3+456+46+456C45+456+42.5+457.4+40.5+459.2Z" opacity="1" fill="#000000"/>
<path opacity="1" d="M44.4+464.4C40+468.7+38.3+474+41.3+474C43.1+474+45+471.9+45+469.9C45+469+46.6+466.9+48.7+465.3C50.8+463.5+52+461.9+51.6+461.2C50.4+459.2+48.9+459.8+44.4+464.4ZM52.8+465.1C50.8+466.2+50.4+469+52.1+469C54.1+469+57+466.9+57+465.5C57+463.8+55.3+463.6+52.8+465.1ZM119.7+475.7C118.4+477+119+478+122.3+479.6C126.3+481.6+129.9+485.8+130+488.5C130.1+492.5+131.3+495+133+495C136.6+495+137.1+488.4+133.9+483.3C130.4+477.6+122.1+473.2+119.7+475.7ZM60.5+481.4C58.9+482.2+55.7+484.6+53.5+486.9C49.6+491+49.5+491.3+49.5+498.1C49.5+504.8+49.7+505.3+52.8+508.1C58.4+513.1+62.9+510.7+57.9+505.4C55+502.3+54.3+495.3+56.4+491.2C57.3+489.4+59.9+486.8+62.1+485.3C67.7+481.6+66.5+478.7+60.5+481.4Z" fill="#000000"/>
<path d="M120.7+483.6C120.4+484+121.3+485.7+122.8+487.6C124.8+490.1+125.7+490.6+126.7+489.8C128.3+488.5+128.4+485.8+126.8+484.2C125.5+482.9+121.8+482.6+120.7+483.6ZM59.2+494.2C56.8+496.6+58.1+502+61+502C63+502+64+499.9+63.7+496C63.5+493.3+61.1+492.3+59.2+494.2ZM25.7+498.7C24.3+500+25.1+501.1+27.2+500.8C29.9+500.4+30.8+498+28.3+498C27.2+498+26+498.3+25.7+498.7ZM5.2+531.2C4.3+532.1+4.6+533.2+6.2+536.2C9.1+541.3+12.2+543.3+14.5+541.6C16.1+540.4+16+540+12.5+535.2C8.7+529.9+7.3+529.1+5.2+531.2ZM18.4+544.1C17.6+545.4+19.9+547.1+22+546.7C22.8+546.6+23.6+545.7+23.8+544.7C24.1+543.5+23.5+543+21.6+543C20.2+543+18.8+543.5+18.4+544.1ZM335.2+505.3C334.6+505.9+334+507.6+333.7+509C333.3+511.1+333.3+511+333.1+508.2C333+504.7+332+504.1+330+506.5C329.3+507.3+328+508+327+508C324.8+508+323.5+510.9+325+512.4C325.8+513.2+326.5+513+327.6+511.6C329+509.7+329+509.7+329+511.8C329+514.2+330.9+514.7+332.8+512.8C333.7+511.9+334+512.1+334+513.8C334+516.3+336.5+516.8+337.4+514.4C338.3+512+338.1+505.2+337.1+504.6C336.6+504.3+335.8+504.6+335.2+505.3ZM169+509.4C167.6+511.2+168.4+514.4+170.3+513.8C171.8+513.2+172.5+510.1+171.3+508.9C170.7+508.3+169.8+508.5+169+509.4ZM175+509.5C174+510.6+174+511.4+174.8+512.2C176.3+513.7+179.2+512.4+178.8+510.3C178.4+508+176.6+507.6+175+509.5ZM319.4+509.1C319.1+509.7+319.2+510.6+319.8+511.2C321.1+512.5+323+511.4+323+509.4C323+507.8+320.4+507.5+319.4+509.1ZM112+529.3C112+530.7+117.2+535+119+535C120.8+535+120.1+530.1+118.1+529C115.4+527.6+112+527.7+112+529.3ZM116.3+537.7C115.6+537.9+115+539.3+115+540.7C115+542.2+113.9+544.8+112.5+546.6C111.1+548.4+110+550.3+110+550.9C110+553.1+113.9+551.9+116.9+548.8C119.6+546.1+120+544.9+119.8+541.6C119.5+537.7+118.6+536.7+116.3+537.7ZM136.8+540.1C132.7+542.5+135.8+545.3+140+543C142.2+541.8+149+545.3+149+547.6C149+548.4+149.9+549+151+549C152.2+549+153+548.3+153+547.2C152.9+541.5+142.3+536.8+136.8+540.1ZM48.4+656.5C47.6+658.5+48.4+659.5+53.3+662.8C60.4+667.7+70.4+667.8+76.2+663.1C79.9+660+77.3+658.5+72.5+661C70.3+662.1+67.3+663+65.8+663C62.9+663+56.8+660+53.4+656.9C51+654.6+49.1+654.5+48.4+656.5ZM77.5+630C75.7+632.9+89.8+654+93.5+654C94.2+654+96.1+654.7+97.6+655.5C101.2+657.4+105+657.4+105+655.6C105+654.8+103.9+653.9+102.5+653.6C99.1+652.7+92.9+648.4+90.4+645.2C88.2+642.4+85+636.4+83.1+631.7C82+629+78.8+628+77.5+630ZM98+325.6C96.9+326.8+97.1+327.6+98.8+330C100+331.6+101+333.9+101+335.2C101+338.2+102.5+340.4+103.9+339.6C105.6+338.5+105.2+333.3+103+329C100.6+324.3+99.6+323.6+98+325.6ZM12.3+350.7C9.4+351.3+4.8+356.7+5.2+359.2C5.6+362+7.3+361.6+9.1+358.4C10.3+356.1+11.5+355.4+14.4+355.2C16.8+355+18.8+355.4+19.9+356.4C21.8+358.2+23+357.6+23+355C23+351.1+18.8+349.4+12.3+350.7ZM176.5+357.7C175.3+360.6+175.1+369.2+176.1+373.2C176.6+375.3+178.8+378.8+180.9+381C184.2+384.5+185.2+385+189.3+385C193+385+194.2+385.5+195.9+387.6C197.5+389.7+198.5+390.1+200.8+389.5C203.2+389+203.8+388.2+204.7+384.3C206.5+376.4+202.5+367.7+195.7+364.9C192.4+363.5+192+363.4+188.3+363.2C187+363.1+185.4+361.6+184.1+359.5C181.8+355.6+177.8+354.7+176.5+357.7ZM189.4+367C194.2+367+201+374.9+201+380.5C201+383.4+200.3+383.6+197.6+381.5C196.5+380.7+193.9+380+191.9+380C185.9+380+183.4+378.6+181.6+374.1C180+369.8+179.5+365.8+180.6+364.7C181+364.4+182.5+364.7+184.1+365.5C185.6+366.3+188+367+189.4+367ZM305+362.9C304.5+364+304+368.2+304+372.3C304+378.3+304.4+380.3+306.3+383.1C309.3+387.6+314.6+391+318.5+391C322.7+391+327.7+392.8+328.4+394.6C329.2+396.8+331.4+396.3+334.5+393C337+390.4+337.2+389.6+336.7+385.1C336+379+333.9+374.8+330.8+373.3C325.3+370.5+315.4+366.8+313.6+366.8C312.5+366.9+311.4+365.8+310.7+363.9C309.4+360.6+306.6+360.1+305+362.9ZM312.5+369C313.4+370.5+321+374.2+324.4+374.9C328+375.7+331+379.6+331.9+384.7C333+390.3+332.3+391.4+329.3+389C327.8+387.8+325.2+387+323+387C317+387+313.1+385.1+310.4+380.9C308.2+377.3+308.1+376.6+309.1+372.5C310.2+368.1+311.3+367+312.5+369ZM31+376C26.8+376.9+20+380.9+20+382.5C20+384.5+20.9+384.4+26.3+382C29.9+380.4+32+380.1+36.9+380.6C42.1+381.2+43+381+43+379.7C43+378.8+42.6+377.9+42.2+377.6C40.3+376.5+33.4+375.4+31+376ZM101.1+378.8C99.6+381+99.4+382+100.2+382.8C101.9+384.5+105+384.3+105+382.5C105+380.7+106.6+380.5+107.6+382.2C108+382.8+108.6+384.7+108.9+386.3C109.7+390.1+111.3+390.7+112.7+387.7C114.7+383.4+109.7+376+104.8+376C103.9+376+102.2+377.3+101.1+378.8ZM20.9+387.8C18.5+389.4+15.8+391.6+14.9+392.6C12.5+395.4+8.3+404+7.5+407.7C6.2+414.2+9+411.8+13.4+402.7C18.8+391.5+20.7+389.9+30.2+389.2C36+388.8+37+388.5+37+386.9C37+385.3+36.2+385+31.2+385C26.5+385+24.5+385.6+20.9+387.8ZM47.2+386.2C46.4+387+46.4+387.9+47.5+389.9C48.2+391.3+49.1+393.3+49.4+394.3C50.2+397+52.4+395.8+52.8+392.6C53.1+390+50.8+385+49.2+385C48.7+385+47.9+385.5+47.2+386.2Z" opacity="1" fill="#000000"/>
<path opacity="1" d="M20.3+396.6C19.6+396.9+19+397.6+19+398C19+398.5+17.8+400.1+16.4+401.5C14.4+403.6+14+404.4+14.9+405.3C15.9+406.2+16.5+406+17.6+404.6C18.4+403.5+19+402.1+19+401.4C19+400.7+20.5+400+22.3+399.8C24.3+399.6+25.5+399+25.5+398C25.5+396.5+22.5+395.7+20.3+396.6ZM178+403.5C176.1+405.6+175.9+406.2+177+407.5C177.8+408.5+178.3+411.1+178.1+413.9C178+417.8+178.4+419.3+180.5+421.8C181.9+423.4+184.1+425.1+185.5+425.4C190+426.6+194.8+430.1+196.5+433.5C197.8+436.3+198.7+437+201+437C203.4+437+204.1+436.5+204.5+434.2C204.8+432.7+205.6+429.8+206.2+427.7C207.4+423.6+206.1+416.1+203.7+413.1C201.2+410.1+194.6+406+192.3+406C191+406+188.7+405.1+187.2+404.1C182.7+400.9+180.6+400.7+178+403.5ZM187+409.5C187.7+410.4+189+410.8+189.9+410.5C192.2+409.8+197.7+413.4+200+417.2C201.2+419.1+202+422.3+202+424.7C202+429.2+201.1+430+199+427.5C198.3+426.7+195+424.7+191.6+423.1C184.2+419.6+181.5+415.7+183.2+410.9C184.3+407.6+185.2+407.3+187+409.5ZM140.2+412.4C137.8+415.5+137.3+425.7+139.4+429.7C142+434.7+144.9+437+148.4+437C150.8+437+152.9+438+156.2+440.9C164.4+448.1+168.2+447+168.2+437.5C168.2+432.2+167.4+429.4+164.9+425.8C163+423.1+154.8+418+152.5+418C151.8+418+149.4+416.2+147.1+414C144.9+411.8+142.8+410+142.6+410C142.3+410+141.3+411.1+140.2+412.4ZM145.5+419.1C145.9+419.6+148.5+421.2+151.3+422.6C159.2+426.4+161.6+429+163.5+435.7C164.3+438.6+162.5+439.5+160.2+437.2C158.6+435.6+152.2+432.8+147.5+431.5C145.6+431+142+422.9+142.6+420.4C143.3+417.9+144.5+417.3+145.5+419.1ZM345.9+411.2C345.8+411.9+345.8+412.9+345.9+413.4C346+413.9+346.4+418.4+346.7+423.4C347.5+436.8+352+444+359.5+444C361.3+444+363.9+444.9+365.3+446C366.7+447.1+368.1+448+368.5+448C368.9+448+370.9+446.2+373+444L376.8+440L375.6+435.2C374.9+432.6+373.8+429.5+373.2+428.4C371.6+425.4+365.6+421.1+360.6+419.4C357.5+418.3+355.4+416.7+353.5+413.9C350.7+410+346.2+408.4+345.9+411.2ZM359.2+423.5C367.2+427.2+370.4+431.5+370.2+438.3C369.9+443.7+369.3+444.3+366.3+442C364.9+440.9+362.7+440+361.5+440C355.9+440+351.1+431.8+352.4+424.6C352.8+422.6+353.2+421+353.4+421C353.6+421+356.2+422.1+359.2+423.5ZM296.7+413.8C289.4+421.7+290.1+429.7+298.9+437.4C300.7+439.1+302.9+440.5+303.8+440.6C308.2+441.3+310.5+442.3+312.2+444.6C314.5+447.5+316+447.6+318.9+445.2C321.5+443.1+322.6+435.4+321+430.5C319.9+427.1+315.3+422.9+309.6+420C308.1+419.2+305.1+416.9+303+414.9L299.2+411.2C299.2+411.2+296.7+413.8+296.7+413.8ZM303.3+421.5C306.1+423.4+309+425+309.7+425C310.3+425+312.2+426.2+313.9+427.6C316.6+429.8+317+430.8+317+435.1C317+439.9+315.9+441.4+314.3+438.6C313.5+437.3+309.8+435.9+303.7+434.6C299.9+433.7+297+428.7+297+422.7C297+420.1+297.2+418+297.5+418C297.8+418+300.4+419.6+303.3+421.5ZM257.4+545.4C256.6+547.6+257.4+553.5+258.5+553.5C259.1+553.5+259.6+551.4+259.8+548.7C260.1+544.2+258.6+542.2+257.4+545.4ZM252.6+547.5C251.7+550.1+251.9+554.8+253+555.5C254.2+556.3+254.9+554.7+255.2+550.1C255.5+546.5+253.7+544.8+252.6+547.5ZM246.7+549.6C245.6+550.7+245.9+554.8+247.1+555.6C248.5+556.4+250.1+554.1+249.8+551.6C249.5+549.5+247.8+548.5+246.7+549.6ZM241.3+553.6C240.5+555.6+242.6+557.8+244+556.4C245.2+555.2+244.3+552+242.9+552C242.4+552+241.7+552.7+241.3+553.6ZM236.5+556.9C235.8+558.1+237.7+559.3+239+558.5C240.1+557.8+239.4+556+238+556C237.5+556+236.9+556.4+236.5+556.9ZM225+562C225+562.5+225.7+562.7+226.5+562.4C227.3+562+228+561.6+228+561.4C228+561.2+227.3+561+226.5+561C225.7+561+225+561.4+225+562ZM269+569.5C268+570.6+267.4+570.8+266.4+569.9C265.3+569+264.9+569.2+264.4+570.4C263.6+572.5+263.7+572.6+267.6+573.4C270.3+574+270.8+573.8+271.3+571.8C272.1+568.9+270.7+567.5+269+569.5ZM258.2+572.1C258.4+572.7+259+573.1+259.5+573.1C260+573.1+260.6+572.7+260.8+572.1C261+571.5+260.4+571+259.5+571C258.6+571+258+571.5+258.2+572.1ZM268.9+584.7C267.1+589.4+266.7+592.7+267.9+593.5C269.3+594.3+272+588.3+272+584.5C272+581.2+270.2+581.3+268.9+584.7ZM274.4+583.7C274.1+584.7+273.4+586.7+272.8+588.2C271.7+591.2+272.5+595+273.9+593.4C275.2+592+277.9+583.2+277.2+582.6C276.2+581.5+274.9+582+274.4+583.7ZM259.2+585.2C258.7+585.9+257.9+587.9+257.6+589.6C256.9+592.5+257.1+592.8+259.9+593.2C263.4+593.7+266+590.9+266+586.5C266+583.6+264.6+583.2+263.1+585.7C262.1+587.4+262.1+587.4+262+585.7C262+583.7+260.7+583.5+259.2+585.2ZM253.6+587.2C252.5+591.3+252.8+592.4+254.5+591C256.1+589.7+256.6+585+255.1+585C254.6+585+254+586+253.6+587.2ZM248.7+587.7C248.3+588+248+589.2+248+590.2C248+592.8+250.4+591.9+250.8+589.2C251.1+587.1+250+586.3+248.7+587.7ZM240.5+591C240.2+591.5+240.6+592+241.4+592C242.2+592+243.2+591.5+243.5+591C243.8+590.4+243.4+590+242.6+590C241.8+590+240.8+590.4+240.5+591ZM251.6+615.5C248.6+620.1+250.7+620.6+254+616C255.6+613.7+255.8+613+254.7+613C253.9+613+252.5+614.1+251.6+615.5ZM256.1+616.1C254.8+617.8+254.1+619.4+254.4+619.7C255.2+620.6+260+615.9+260+614.3C260+612.1+258.5+612.8+256.1+616.1ZM244.5+615C244.2+615.5+242.6+616+241+616C239.4+616+237.8+616.4+237.5+617C236.6+618.4+244.3+618.3+245.8+616.8C246.5+616.1+247+615.2+247+614.8C247+613.7+245.2+613.8+244.5+615ZM267+634.3C267+636.2+266.6+636.7+265.2+636.3C262.1+635.5+258.3+637.7+257.8+640.4C257.1+643.8+258.1+644.3+261.6+642.5C263.2+641.7+265.2+641+266.1+641C268.5+641+270.2+638.5+269.8+635.4C269.4+631.8+267+630.9+267+634.3ZM278+634.1C278+634.6+278.5+634.8+279+634.5C279.6+634.2+280+633.7+280+633.4C280+633.2+279.6+633+279+633C278.5+633+278+633.5+278+634.1ZM272+635C272+635.5+272.5+636+273+636C273.6+636+274+635.5+274+635C274+634.4+273.6+634+273+634C272.5+634+272+634.4+272+635ZM157.6+637.6C155.4+638.8+153.1+639.1+148.1+638.6C136.2+637.5+133+637.5+132.8+638.4C132.4+639.6+136.7+640.8+145.5+641.9C151.4+642.6+153.3+642.4+157.8+640.8C160.7+639.7+163+638.2+163+637.4C163+635.6+161.3+635.7+157.6+637.6ZM234.5+639.2C235.4+643.3+235.7+643.7+237.2+642.2C238+641.4+238.6+641.5+239.6+642.8C241.6+645.5+243.5+643+242.3+639.4C241.5+637+240.7+636.5+237.6+636.2L233.8+636C233.8+636+234.5+639.2+234.5+639.2ZM228.2+638.2C228.5+638.9+229.5+639.7+230.4+639.8C231.6+640.1+232.1+639.7+231.8+638.8C231.5+638.1+230.5+637.3+229.6+637.2C228.4+636.9+227.9+637.3+228.2+638.2ZM246.3+639.6C245.5+641.8+246.8+644.3+248.2+643.3C248.9+642.9+250.4+642.5+251.5+642.5C252.8+642.5+253.5+641.8+253.5+640.5C253.5+638.9+252.8+638.5+250.2+638.3C248.1+638.2+246.7+638.7+246.3+639.6ZM152.2+651.6C151+652.4+150+653.9+150+654.9C150+656.9+148.7+659.7+145.6+664.3C143+668.2+135.4+673.2+130.1+674.6C124.7+675.9+123.5+678+128+678C134.4+678+146.9+670.4+151+664C156.6+655.3+157.3+648+152.2+651.6Z" fill="#000000"/>
<path fill="#000000" opacity="1" d="M139.7+659.7C136.1+664.6+136.1+667.1+139.8+665.1C142.6+663.6+146+659.1+146+656.9C146+653.6+143.3+654.8+139.7+659.7ZM414.5+737.6C412.3+740+409.2+742.9+407.6+744.1C405.2+746+404.4+746.1+402.7+745C401+744+400.5+744+399.3+745.6C398.6+746.6+398+747.9+398+748.6C398+751.8+385+760.3+373.5+764.5C369.7+765.9+360.1+765.7+357.3+764.1C354.2+762.5+351.9+762.7+349.6+764.9C348.2+766.1+344.6+767.1+339+767.9C334.3+768.5+327.9+769.5+324.8+770C320.3+770.8+307.5+770.8+307.5+770C307.5+769.9+305.3+769.7+302.6+769.4C299.9+769.1+296.8+768.5+295.8+767.9C294.7+767.3+292.1+767.1+290.1+767.5C287.6+767.9+285+767.6+282.5+766.6C277.2+764.4+273.2+764.6+269.1+767.4C266.7+769+262.9+770.2+258+771C253.9+771.6+247.4+772.5+243.5+773.1C235+774.3+217.8+774.3+214.4+772.9C213+772.4+209.7+772+207.2+772C202.3+772+202+771.8+190.9+763.4C185.4+759.2+179.5+756.7+172.5+755.5C170.4+755.1+166.9+754+164.9+753C162.9+751.9+161+751.3+160.7+751.7C160.4+752+156.8+749+152.8+745C148.8+741+144.6+737.4+143.5+737C137.4+734.7+125+738.7+125+742.9C125+746.4+116.9+759.6+115.6+758.3C115.2+757.9+111.4+756.9+107.1+756C98.4+754.3+93.5+754.9+92.6+757.8C92.3+758.8+90.5+760.4+88.8+761.4C87+762.4+84.4+764.3+83+765.6C78.7+769.5+75.9+770+65.1+769C56.9+768.2+54.4+767.6+50.4+765.1C46+762.4+44.6+762+36+761.8L26.5+761.5L20.2+766.2C14.4+770.6+6.3+774+1.8+774C0.400002+774+2.14577e-06+774.8+2.14577e-06+778C2.14577e-06+781.4+0.400002+782.2+2.5+783C3.9+783.5+5+784.4+5+784.9C5+785.4+5.9+785.6+7+785.3C8.5+784.9+9+785.3+9+786.9C9+788+8.5+789+7.8+789C7+789+7.2+789.6+8.2+790.7C9.5+791.9+10.2+792+11.2+791.2C11.9+790.7+13+790.2+13.5+790.2C14.1+790.3+15.1+789+15.9+787.5C16.9+785.5+17.4+785.1+18+786.1C18.6+787+19.2+787.1+20.2+786.2C21+785.6+23.4+784.7+25.5+784.1C27.7+783.6+33.5+781.7+38.4+780C46+777.3+48.1+776.9+52.7+777.5C57.1+778+58.8+777.8+62.1+776.1C64.3+774.9+67.4+774+69.1+774C74.7+774+83.1+770.9+87+767.4C89.1+765.5+91.2+764+91.7+764C92.2+764+93.9+762.7+95.4+761.1L98.2+758.1L101.8+760C104.3+761.4+105.8+761.6+107.1+761C109.5+759.7+112+759.7+112+761.1C112+763.4+105.8+769.9+102.6+771C100.8+771.6+98.2+773.2+97+774.5C95.6+776+93.5+777+91.9+777C90.1+777+87.9+778.1+85.9+780.1C83.1+782.8+79.8+784.6+61.5+793C52+797.3+49.9+798+42.4+798.9C38.5+799.4+34+800.4+32.4+801.2C30.8+802+27.3+803.3+24.5+804C21.8+804.7+19.1+805.7+18.5+806.1C18+806.6+13.6+807+8.8+807L0+807L0+813.3L249.8+812.7C387.1+812.3+499.6+812+499.8+812C499.9+812+500+799.9+500+785L500+758L497.3+757.4C495.7+757.1+491.8+756+488.6+754.9C481.1+752.5+479.9+752.5+476.7+755C471.4+759.2+455.4+756.8+453.4+751.5C452.7+749.8+444.9+744.1+440.7+742.2C436.4+740.3+434.1+740.7+432.8+743.5C431.5+746.4+429.2+746.8+428.4+744.2C428.1+743.3+427.4+741.8+426.9+741C426.4+740.2+425.2+738+424.3+736.2C422+731.9+419.5+732.2+414.5+737.6ZM142.9+741.9L145.4+743.8L142.5+743.2C140.1+742.8+139.8+743+140.3+744.4C140.8+745.6+140.5+746+139.2+745.8C138.3+745.6+137.6+746.1+137.8+746.7C137.9+747.4+137.6+748+137.1+748C136.6+748+136+747.4+135.7+746.7C135.3+745.7+135+745.7+133.9+746.7C131.3+749.2+129.8+748.3+130.5+744.7C130.9+743+131.4+741.2+131.7+740.7C132.6+739.2+140.5+740.1+142.9+741.9ZM414+749.3C414+750+412.4+752+410.5+753.9C408.6+755.8+407+757.7+407+758.1C407+758.6+406.2+759+405.3+759C403.7+758.9+403.7+758.8+405.4+757.5C406.5+756.7+407.1+755.7+406.7+755.4C406.4+755.1+406.5+754.3+407.1+753.6C407.6+753+409+751.3+410.1+749.7C412.1+747.1+414+746.9+414+749.3ZM422+753.1C422+753.6+421.3+754+420.5+754C419.6+754+418.5+755.1+418+756.4C416.9+759.4+415.1+760.5+413.8+759.2C413.2+758.6+413.4+757.8+414.5+756.9C415.4+756.1+417.2+754.6+418.3+753.4C420.5+751.4+422+751.2+422+753.1ZM438+753.5C438+753.8+437.1+755+436+756.2C433.8+758.6+433.4+758+435+754.9C436+753.2+438+752.2+438+753.5ZM136.4+757.1C135.8+758.2+134+757.3+134+756C134+755.5+134.7+755.3+135.5+755.6C136.3+756+136.7+756.6+136.4+757.1ZM147+756C147+756.5+146.5+757+145.9+757C145.4+757+145.2+756.5+145.5+756C145.8+755.4+146.3+755+146.6+755C146.8+755+147+755.4+147+756ZM167.3+758C170.4+759.1+173.6+760+174.3+760C176.8+760+185.5+764.8+190.4+768.9C193+771.2+194.7+773+194.2+773C193.6+773+192.8+772.5+192.5+772C192.1+771.4+191.4+771.2+190.9+771.5C190.4+771.9+189.3+771.4+188.4+770.6C186.5+768.6+184+768.5+184+770.4C184+772.5+180.3+771.2+179.7+768.8C179.4+767.7+178.7+767.1+178.1+767.5C177.5+767.8+177+767.6+177+767.1C177+766.5+175.9+766+174.6+766C173.2+766+171.9+765.6+171.6+765.1C171.3+764.7+172.3+764.5+173.8+764.8C175.7+765.1+176.2+764.9+175.5+764.2C174+762.6+169+761.6+169+762.9C169+763.5+167.9+764+166.5+764C165.1+764+164+763.5+164+762.9C164+762.3+164.9+762.1+166+762.5C167.4+763+168+762.7+168+761.6C168+760.7+167.4+760+166.6+760C165.3+760+159.8+756.1+161+756C161.3+756+164.1+756.9+167.3+758ZM150+760C150+761.1+149.6+762+149.2+762C148.8+762+148.4+761.1+148.3+760C148.2+758.9+148.5+758+149.1+758C149.6+758+150+758.9+150+760ZM158.9+759.6C159.5+759.2+160+759.5+160+760.4C160+761.4+159.4+761.7+158.5+761.4C157.7+761+157+761.2+157+761.8C157+762.4+156.1+762.4+154.5+761.7C151.9+760.4+151+758.4+153.5+759.3C154.3+759.7+155.2+759.4+155.6+758.8C156+758.1+156.5+758.2+157+759C157.4+759.7+158.3+759.9+158.9+759.6ZM481+758.7C481+759.2+480.3+760.4+479.5+761.4C478.4+762.9+477.7+763.1+476.8+762.2C476+761.4+476+760.7+477+759.5C478.3+758+481+757.4+481+758.7ZM447.2+762C450.4+762+448.6+763.2+445.1+763.4C443+763.5+442+763.2+442+762.2C442+761.3+442.6+761+443.6+761.4C444.5+761.7+446.1+762+447.2+762ZM490.4+761.6C492.9+762.6+492.3+764.7+489.4+765.4C486.3+766.2+484.5+764.9+485.3+762.6C486+760.9+487.8+760.6+490.4+761.6ZM431+762.9C431+763.4+430.3+764+429.5+764.4C428.6+764.7+428+764.4+428+763.5C428+762.7+428.7+762+429.5+762C430.3+762+431+762.4+431+762.9ZM411+765C411+765.5+410.6+766+410.1+766C409.5+766+408.8+765.5+408.5+765C408.2+764.4+408.6+764+409.4+764C410.3+764+411+764.4+411+765ZM46+768.8C51.3+771.3+51.5+773.2+46.2+771.2C41.4+769.3+37+768.8+37+770C37+770.8+36.4+770.8+35+770C33.9+769.4+33.2+768.5+33.5+767.9C34.4+766.5+31.1+766.8+29.6+768.2C28.8+768.9+27.4+770.1+26.4+770.7C25.3+771.4+22.3+773.6+19.5+775.5C13.8+779.5+9.20001+780.7+6.10001+779C3.30001+777.6+4.30001+776+8.00001+776C11.4+776+23.7+770.3+26.7+767.3C29.5+764.5+38.5+765.2+46+768.8ZM439.5+767C438.5+768.1+437.4+768.8+437.2+768.5C436.9+768.2+437.5+767.3+438.6+766.5C441.3+764.5+441.6+764.7+439.5+767ZM171+768.6C171+769.5+170.5+770+169.8+769.8C168+769.2+167.7+767+169.4+767C170.3+767+171+767.7+171+768.6ZM464+768C464+768.5+463.6+769+463+769C462.5+769+462+768.5+462+768C462+767.4+462.5+767+463+767C463.6+767+464+767.4+464+768ZM115+769.5C114.3+770.4+113.5+770.8+113.3+770.6C112.6+769.9+114+768+115.2+768C115.8+768+115.8+768.6+115+769.5ZM364.8+770.1C368.5+770.2+370.6+770.5+369.5+770.7C368.4+771+367+771.7+366.3+772.2C365.6+772.7+364.6+772.9+364+772.5C362+771.3+357.5+773.1+353.6+776.7C349.8+780.4+344.1+783.7+341.1+784.1C340.2+784.3+336.4+784+332.5+783.5C328.7+783+325.2+782.7+324.8+782.8C324.4+782.9+322.3+783.2+320.1+783.5C317.9+783.7+313.9+784.5+311.3+785.1C308.7+785.7+302.6+786.3+297.8+786.5C290.2+786.8+288.7+786.5+286.5+784.8C285.1+783.7+283.3+783+282.6+783.3C281.8+783.6+280.4+783+279.4+781.9C277+779.2+273.2+780+267.7+784C263.7+786.9+257.8+788.1+256.6+786.1C255.7+784.8+251+784.1+248.1+785C246.3+785.5+243+785+238+783.4C233.9+782.1+229.2+781+227.5+781C225.9+781+222.3+780.4+219.5+779.6L214.5+778.3L227+777.7C233.9+777.4+241.1+776.9+243+776.7C244.9+776.5+249.2+775.9+252.5+775.6C260.9+774.6+268.1+772.9+270.5+771.4C273.4+769.6+275.9+769.5+280.9+770.9C283.3+771.6+286.6+772+288.4+771.9C290.1+771.8+293.3+772+295.5+772.4C306.1+774.2+315.5+774.7+322.8+773.8C331.4+772.7+336.3+772.2+343.1+771.6C345.7+771.4+349+770.5+350.6+769.7C352.6+768.7+354.2+768.5+355.8+769.1C357.1+769.6+361.1+770.1+364.8+770.1ZM179+770.6C179+770.8+177.3+771+175.3+770.9C172+770.8+171.8+770.7+174+770.1C176.3+769.4+179+769.7+179+770.6ZM158.5+771C158.8+771.5+158.6+772+158.1+772C157.5+772+157+771.5+157+771C157+770.4+157.2+770+157.4+770C157.7+770+158.2+770.4+158.5+771ZM435+772C435+772.5+434.5+773+433.9+773C433.4+773+433.2+772.5+433.5+772C433.8+771.4+434.3+771+434.6+771C434.8+771+435+771.4+435+772ZM168.5+777C168.2+777.6+167.4+778+166.7+778C165.9+778+165.9+777.7+166.7+776.9C167.3+776.3+167.6+775+167.3+774.1C166.9+772.8+167.1+772.8+168+774.3C168.6+775.2+168.8+776.5+168.5+777ZM162.1+778.3C161.3+779.1+161+778.8+161+777.4C161+774.7+162.4+773.3+162.8+775.5C163+776.4+162.7+777.7+162.1+778.3ZM178.5+775.9C178.2+776.5+177.4+777+176.8+777C176.2+777+176.2+776.4+177+775.5C178.4+773.8+179.6+774.2+178.5+775.9ZM103.7+777.5C102.6+779.8+101+780.9+101+779.3C101+778.7+104+775+104.6+775C104.7+775+104.3+776.1+103.7+777.5ZM195+776.7C195+777.2+194.5+778.2+194+779C193.2+780.2+193+780.1+193+778.2C193+777+193.5+776+194+776C194.6+776+195+776.3+195+776.7ZM364+780.2C366.3+781.9+368.6+782.4+374.2+782.6C384.2+782.9+392.1+784.1+391.4+785.1C391.1+785.6+389.2+786.7+387.2+787.6C382.6+789.5+332.3+790.8+327.5+789.1C325.2+788.2+326.8+788.1+334.6+788.5C344.7+789+344.8+789+348.5+786C350.6+784.3+352.8+783+353.5+783C354.1+783+355.7+781.9+357+780.5C359.9+777.5+360.3+777.4+364+780.2ZM106.4+781.6C106.7+782.4+106.6+782.8+106+782.5C105.4+782.2+105+781.5+105+780.9C105+779.5+105.7+779.8+106.4+781.6ZM144+782.4C144+785.2+142.3+786.7+140.8+785.2C140.1+784.5+140.2+783.5+140.9+782.1C142.5+779.3+144+779.4+144+782.4ZM187+781C187+781.5+186.3+782+185.5+782C184.7+782+184+782.4+184+783C184+783.5+183.3+784+182.5+784C181.7+784+181+784.4+181+785C181+785.5+180+786+178.8+785.9L176.5+785.9L178.8+785C180+784.5+181+783.7+181+783.3C181+782.8+182+782+183.3+781.4C186.2+779.9+187+779.8+187+781ZM448.6+781.2C449+781.9+449.5+783.9+449.7+785.7C450+788.7+449.8+789+447.8+788.6C446.5+788.3+442.9+787.6+439.8+787C436.6+786.4+433.8+785.5+433.5+785C433.1+784.3+436.3+782.8+443+780.6C445.7+779.8+447.9+780+448.6+781.2ZM157+781.8C157+783.1+152.9+787.2+152.2+786.6C151.9+786.2+152.7+784.9+154+783.5C156.5+780.8+157+780.5+157+781.8ZM207+782C207+782.5+206.8+783+206.6+783C206.3+783+205.8+782.5+205.5+782C205.2+781.4+205.4+781+205.9+781C206.5+781+207+781.4+207+782ZM162+784.9C161.5+786+160.5+787.2+159.8+787.6C159.1+788.1+159+787.8+159.5+786.9C161.6+783.2+163.9+781.4+162+784.9ZM463+784.4C463+784.7+462.6+785.2+462+785.5C461.5+785.8+461+785.6+461+785.1C461+784.5+461.5+784+462+784C462.6+784+463+784.2+463+784.4ZM138.6+786.5C138.3+787.3+138.4+788+138.9+788C140.3+788+140.9+791.7+139.7+792.9C138+794.6+136.8+794.2+137.9+792.2C139+790.1+137.6+788+135.3+788C133.4+788+133.7+786.2+135.8+785.7C138.9+784.9+139.2+785+138.6+786.5ZM145.3+788C144.4+789.6+143.2+791+142.8+791C141.6+791+141.8+790.1+143.8+787.5C146.3+784+147.4+784.4+145.3+788ZM224+785.4C224+785.7+223.6+786.2+223+786.5C222.5+786.8+222+786.6+222+786.1C222+785.5+222.5+785+223+785C223.6+785+224+785.2+224+785.4ZM123+788C123+788.5+122.8+789+122.6+789C122.3+789+121.8+788.5+121.5+788C121.2+787.4+121.4+787+121.9+787C122.5+787+123+787.4+123+788ZM207.3+787.7C206.6+787.9+205.4+787.9+204.8+787.7C204.1+787.4+204.6+787.2+206+787.2C207.4+787.2+207.9+787.4+207.3+787.7ZM219.4+787.9C219.7+788.3+218.8+789.2+217.5+789.8C214.8+791+214.2+790.2+216.2+788.2C217.6+786.8+218.7+786.7+219.4+787.9ZM189+789C189.8+789.5+190.1+790+189.5+790C189+790+187.8+789.5+187+789C186.2+788.5+186+788+186.5+788C187.1+788+188.2+788.5+189+789ZM99+791C99+791.7+97.7+791.7+95.2+791.1C95+791+95.1+790.6+95.5+790C96.1+789+99+789.8+99+791ZM148+790.6C148+791.4+147.5+791.8+147+791.5C146.4+791.1+146.2+790.4+146.5+789.9C147.4+788.5+148+788.8+148+790.6ZM157+790.5C156.3+791.3+155.4+791.7+154.9+791.4C153.6+790.6+154.8+789+156.7+789C158+789+158+789.3+157+790.5ZM226+790C225.2+790.5+224.1+791+223.5+791C223+791+223.2+790.5+224+790C224.8+789.5+226+789+226.5+789C227.1+789+226.8+789.5+226+790ZM280+789.4C280+789.6+279.3+790+278.5+790.4C277.7+790.7+277+790.5+277+790C277+789.4+277.7+789+278.5+789C279.3+789+280+789.2+280+789.4ZM93.7+790.6C93.4+790.9+92.5+791+91.8+790.7C91+790.4+91.3+790.1+92.4+790.1C93.5+790+94.1+790.3+93.7+790.6ZM152+790.4C152+790.7+151.6+791.2+151+791.5C150.5+791.8+150+791.6+150+791.1C150+790.5+150.5+790+151+790C151.6+790+152+790.2+152+790.4ZM205.5+791C205.2+791.5+204.2+792+203.4+792C202.6+792+202+791.5+202+791C202+790.4+202.9+790+204.1+790C205.2+790+205.8+790.4+205.5+791ZM210.5+791C210.2+791.5+209.3+791.7+208.5+791.3C206.4+790.6+206.6+790+209.1+790C210.2+790+210.9+790.4+210.5+791ZM244.5+791C244.2+791.5+243.4+792+242.9+792C242.3+792+242.2+791.5+242.5+791C242.8+790.4+243.6+790+244.1+790C244.7+790+244.8+790.4+244.5+791ZM109.7+794.2C109.6+796.4+109+797.5+108+797.5C107.2+797.5+106.1+798.5+105.5+799.7C104.1+802.9+102.8+802.6+103.6+799.2L104.3+796.5L101.8+798.7C98.4+801.9+97.5+801.5+100+798C101.3+796.2+103+795+104.3+795C105.5+795+107.1+794.1+107.8+793C109.5+790.2+109.9+790.5+109.7+794.2ZM172.8+794.3C170.5+796.6+167.9+797.1+166.4+795.6C164.2+793.3+164.7+792.7+168.4+793.4C171.1+793.9+171.9+793.7+172.5+792.3C173+791.1+173.4+790.9+173.7+791.7C174+792.4+173.6+793.6+172.8+794.3ZM268+791.6C268+792+267.2+792.9+266.3+793.6C264.2+795.2+260+795.4+260+794C260+793+261.3+792.6+263.7+792.9C264.3+793+265.1+792.6+265.5+792C266.2+790.9+268+790.6+268+791.6ZM73.9+794.9C72.4+795.4+71.7+794.3+72.5+793C73.1+792.1+73.5+792.1+74.1+793.1C74.6+793.9+74.5+794.6+73.9+794.9ZM85.7+795.4C86.5+795.8+87.9+795.5+88.6+794.9C91.2+792.8+92+794.8+91.1+800.9C91+801.2+90.4+800.6+89.7+799.5C88.4+797.8+88.2+797.9+87.1+801.1C86.3+803.4+85.7+804.1+85.1+803.2C84.7+802.5+83.6+802.2+82.7+802.6C80.7+803.3+80.5+804.7+82.3+805.3C82.9+805.5+83.2+806+82.9+806.4C81.8+807.5+79.1+805.9+79.7+804.4C80+803.6+79.7+803+79.1+803C78.5+803+78+803.6+78+804.4C78+805.2+77.5+806.2+76.9+806.6C76.1+807+76+806.6+76.5+805.1C77.1+803.2+76.8+803+72.2+803C69.1+803+67+802.5+66.7+801.7C66.5+801+65.9+800.9+65.4+801.4C64.9+801.9+65+802.5+65.8+802.7C66.4+803+67+803.8+67+804.5C67+805.2+67.6+806.1+68.3+806.3C68.9+806.6+67.9+806.7+66+806.5C64.1+806.3+61.9+806.1+61.1+806.1C60+806+60.1+805.5+61.5+804C63.3+802.1+63.2+802+61.2+802C56.5+802+59.6+797.7+65.9+795.5C69.6+794.2+69.9+794.2+70.5+796.1C70.9+797.1+70.8+798.5+70.4+799.2C70+799.8+70.7+799.6+72+798.7C73.8+797.5+74.7+797.3+75.7+798.2C76.4+798.8+77.4+798.9+77.8+798.5C78.2+798.1+78+797.5+77.3+797.3C76+796.8+76.7+794+78.1+794C78.5+794+78.7+794.7+78.4+795.5C77.4+798+79.8+797.2+81.7+794.3C83.1+792.2+83.6+792+83.8+793.2C84+794.1+84.8+795.1+85.7+795.4ZM427.3+795.3C426.6+796.4+425+795.1+425+793.4C425+792.2+425.2+792.2+426.4+793.2C427.2+793.9+427.6+794.8+427.3+795.3ZM120.7+795.2C120.4+796+120.1+795.7+120.1+794.6C120+793.5+120.3+792.9+120.6+793.3C120.9+793.6+121+794.5+120.7+795.2ZM135+794.4C136.7+796.5+135.9+800.4+133.6+800.8C131.4+801.3+126.8+799.1+127.5+797.9C127.8+797.5+127.1+797.4+126+797.7C124.6+798.1+124+797.7+124+796.7C124+795.1+127.5+795+129.9+796.4C130.7+796.9+131.3+796.4+131.7+795.1C132.3+792.6+133.3+792.4+135+794.4ZM183+795.7C183+797.6+182.7+798.1+182+797.4C181.4+796.8+181.2+795.6+181.6+794.7C182.5+792.3+183+792.6+183+795.7ZM241.7+793.6C241.4+793.9+240.5+794+239.8+793.7C239+793.4+239.3+793.1+240.4+793.1C241.5+793+242.1+793.3+241.7+793.6ZM269.3+795.6C266.6+797.6+265.4+797.3+267.5+795C268.5+793.9+269.7+793.3+270.2+793.6C270.7+793.9+270.3+794.8+269.3+795.6ZM294.7+793.6C294.4+793.9+293.5+794+292.8+793.7C292+793.4+292.3+793.1+293.4+793.1C294.5+793+295.1+793.3+294.7+793.6ZM307.7+793.6C307.4+793.9+306.5+794+305.8+793.7C305+793.4+305.3+793.1+306.4+793.1C307.5+793+308.1+793.3+307.7+793.6ZM96.4+795.5C96.8+796.5+96.3+797+94.8+797C93.1+797+93+796.8+94+795.5C94.7+794.7+95.4+794+95.5+794C95.7+794+96+794.7+96.4+795.5ZM154+795.2C154+796.6+153.5+797.5+152.8+797.3C152.5+797.2+151.7+797.7+151.1+798.4C150.4+799.2+149+799.6+148+799.3C146.1+798.8+146.1+798.7+148.2+796.5C150.3+794.3+154+793.5+154+795.2ZM115.4+796.5C115+797.3+114.4+798+113.9+798C113.5+798+113.3+797.3+113.6+796.5C114+795.7+114.6+795+115.1+795C115.5+795+115.7+795.7+115.4+796.5ZM146+796.4C146+796.7+145.6+797.2+145+797.5C144.5+797.8+144+797.6+144+797.1C144+796.5+144.5+796+145+796C145.6+796+146+796.2+146+796.4ZM242.5+797C242.2+797.5+241.5+798+240.9+798C240.4+798+240+797.5+240+797C240+796.4+240.7+796+241.6+796C242.4+796+242.8+796.4+242.5+797ZM485.1+799.3C484.3+800.1+484+800+484+798.9C484+796.9+485.3+795.5+485.8+797C486.1+797.7+485.7+798.7+485.1+799.3ZM160+799C160+799.5+159.6+800+159+800C158.5+800+158+799.5+158+799C158+798.4+158.5+798+159+798C159.6+798+160+798.4+160+799ZM173.6+798.9C174.5+798.1+175+798.1+175+798.8C175+800.4+173.4+801.1+171.6+800.4C170.7+800.1+170.3+799.3+170.7+798.7C171.2+797.9+171.5+798+171.8+798.8C172.1+799.8+172.5+799.8+173.6+798.9ZM199.3+799.7C198.8+801+199.1+801.2+200.8+800.8C203.1+800.2+204.7+801.4+203+802.5C201.4+803.5+201.8+804.9+203.8+804.9C204.7+804.9+207.3+805.3+209.5+805.8C212.6+806.6+213+806.8+211+807C209.6+807.1+208.1+807.2+207.5+807C207+806.9+205.2+806.8+203.5+806.8C201.9+806.7+199.9+806+199.3+805.1C198.2+803.7+198+803.8+197.4+805.8C196.8+807.8+196.2+808+190.9+807.8C187.1+807.6+185+807.1+185+806.3C185+805.6+184.3+804.7+183.4+804.2C181.4+803.1+182.6+800.6+184.7+801.4C185.6+801.8+186.9+801.5+187.6+800.9C188.4+800.3+189+800.1+189+800.6C189+801.1+189.4+800.8+190+800C190.5+799.2+191.3+798.9+191.7+799.4C192.1+799.8+191.4+801.1+190+802.3C188.4+803.5+188.2+804.1+189.3+803.7C190.4+803.3+191+803.6+191+804.6C191+806.7+192.9+805.3+194+802.4C194.5+801.1+195.6+800+196.5+800C197.3+800+198+799.5+198+799C198+798.4+198.4+798+199+798C199.5+798+199.7+798.7+199.3+799.7ZM494.1+799C494.6+799+495+800.6+495+802.5L495+806L489.7+806C485.1+806+484.4+805.7+484.4+804C484.4+802.7+484.8+802.4+485.4+803C486+803.6+487.2+804+488.2+804C489.9+804+490.5+802.4+490+799.1C489.9+798.2+490.4+797.9+491.5+798.4C492.4+798.7+493.6+799+494.1+799ZM114+800C114+800.5+113.6+801+113+801C112.5+801+112+800.5+112+800C112+799.4+112.5+799+113+799C113.6+799+114+799.4+114+800ZM118+800C116+801.3+114.7+801.3+115.5+800C115.8+799.4+116.9+799+117.8+799C119.3+799+119.3+799.2+118+800ZM209+800.4C209+801.2+208.6+802.2+208+802.5C207.5+802.8+207+802.2+207+801.1C207+799.9+207.5+799+208+799C208.6+799+209+799.6+209+800.4ZM57.4+801.4C57.1+802.2+56.1+802.6+55.1+802.3C53.8+802+53.1+802.6+52.6+804.4C52.2+806.1+51.3+807+50+807C48.3+807+48.4+806.7+50.8+804.1C52.3+802.5+54.4+801+55.5+800.7C56.6+800.4+57.6+800.2+57.7+800.1C57.8+800.1+57.7+800.6+57.4+801.4ZM213.3+802C213+803.2+212.5+803.9+212.2+803.6C211.7+803+212.7+800+213.4+800C213.6+800+213.6+800.9+213.3+802ZM222.7+804.7C222.4+805.7+222.2+804.9+222.2+803C222.2+801.1+222.4+800.3+222.7+801.2C222.9+802.2+222.9+803.8+222.7+804.7ZM168+802C168+802.5+167.6+803+167+803C166.5+803+166+802.5+166+802C166+801.4+166.5+801+167+801C167.6+801+168+801.4+168+802ZM218+802.1C218+803.7+216+807+215+807C214.5+807+214.6+805.7+215.1+804C216.2+801.1+218+799.9+218+802.1ZM272+802C272+802.5+271.1+803+270+803C268.9+803+268+802.5+268+802C268+801.4+268.9+801+270+801C271.1+801+272+801.4+272+802ZM412+802.8C412+803.2+411.1+803.6+409.9+803.7C408.2+803.9+408.1+803.6+409+802.5C410.2+801.1+412+801.3+412+802.8ZM419.3+802.4C419.7+803.4+419.4+803.7+418.5+803.3C417.7+803+417.3+802.4+417.6+801.9C418.3+800.7+418.7+800.8+419.3+802.4ZM263.7+803.6C263.9+804.1+263.1+804.6+262+804.7C260+804.9+259.4+803.9+260.7+802.6C261.6+801.8+263.3+802.3+263.7+803.6ZM319+803C319+802.5+319.6+802+320.4+802C321.2+802+321.8+802.8+321.7+803.8C321.6+805.2+320.7+805.7+318.3+805.8C315.6+805.9+315+805.6+315+803.9C315+802.2+315.3+802.1+317+803C318.4+803.7+319+803.7+319+803ZM46+805C46+806.8+45.3+807+38.3+807L30.5+806.9L34.5+805.1C36.7+804+40.2+803.1+42.3+803.1C45.4+803+46+803.3+46+805ZM115+805C114.2+805.5+113.3+805.7+113.1+805.4C112.8+805.1+113.2+804.5+114+804C114.8+803.5+115.7+803.3+115.9+803.6C116.2+803.9+115.8+804.5+115+805ZM250+805.5C253.4+808+253.4+808+250.8+808C249.3+808+247.9+807.4+247.6+806.7C247.1+805.7+246.9+805.7+246.4+806.7C245.8+808+242+808.6+242+807.4C242+805.9+244.2+803+245.3+803C246+803+248.1+804.1+250+805.5ZM257+803.5C257+803.7+256+804.4+254.8+805C252.6+806.1+252.6+806+254.4+804.6C256.5+802.9+257+802.7+257+803.5ZM329.7+803.6C329.4+803.9+328.5+804+327.8+803.7C327+803.4+327.3+803.1+328.4+803.1C329.5+803+330.1+803.3+329.7+803.6ZM179+805.4C179+807.8+177.4+808.1+175.5+806C173.7+804.1+173.8+804+176.3+804C178+804+179+804.5+179+805.4ZM429.5+805C429.8+805.5+429.6+806+429.1+806C428.5+806+428+805.5+428+805C428+804.4+428.2+804+428.4+804C428.7+804+429.2+804.4+429.5+805ZM455+805C455+805.5+454.8+806+454.6+806C454.3+806+453.8+805.5+453.5+805C453.2+804.4+453.4+804+453.9+804C454.5+804+455+804.4+455+805ZM167+806C167+806.5+166.8+807+166.6+807C166.3+807+165.8+806.5+165.5+806C165.2+805.4+165.4+805+165.9+805C166.5+805+167+805.4+167+806ZM172.2+807.2C171+808.4+168.7+807.3+169.5+806C169.8+805.5+170.8+805.4+171.6+805.7C172.6+806.1+172.8+806.6+172.2+807.2Z"/>
</g>
<g id="Layer 1" vectornator:layerName="Layer 1">
<g opacity="1">
<path opacity="1" fill="#000000" d="M131.527+854.675C131.527+854.809+131.574+854.909+131.667+854.975C131.761+855.042+131.954+855.075+132.247+855.075L132.247+855.555L125.167+855.555L125.167+855.075C125.461+855.022+125.674+854.935+125.807+854.815C125.941+854.695+126.074+854.475+126.207+854.155C126.261+854.022+126.394+853.662+126.607+853.075C126.821+852.489+127.101+851.749+127.447+850.855C127.794+849.962+128.181+848.969+128.607+847.875C129.034+846.782+129.461+845.669+129.887+844.535C130.314+843.402+130.734+842.295+131.147+841.215C131.561+840.135+131.927+839.169+132.247+838.315C132.567+837.462+132.827+836.769+133.027+836.235C133.227+835.702+133.327+835.422+133.327+835.395C133.327+835.262+133.241+835.169+133.067+835.115C132.894+835.062+132.714+835.022+132.527+834.995L132.527+834.515L142.967+834.515L142.967+834.995C142.754+835.022+142.581+835.062+142.447+835.115C142.314+835.169+142.247+835.302+142.247+835.515C142.247+835.569+142.374+835.915+142.627+836.555C142.881+837.195+143.207+838.029+143.607+839.055C144.007+840.082+144.467+841.242+144.987+842.535C145.507+843.829+146.047+845.149+146.607+846.495C147.167+847.842+147.707+849.155+148.227+850.435C148.747+851.715+149.221+852.862+149.647+853.875C149.861+854.355+150.041+854.675+150.187+854.835C150.334+854.995+150.527+855.075+150.767+855.075L150.767+855.555L142.887+855.555L142.887+855.075C143.394+855.049+143.647+854.889+143.647+854.595C143.647+854.569+143.581+854.389+143.447+854.055C143.314+853.722+143.167+853.349+143.007+852.935C142.847+852.522+142.694+852.129+142.547+851.755C142.401+851.382+142.314+851.129+142.287+850.995L132.807+850.995C132.541+851.715+132.327+852.302+132.167+852.755C132.007+853.209+131.881+853.569+131.787+853.835C131.694+854.102+131.627+854.295+131.587+854.415C131.547+854.535+131.527+854.622+131.527+854.675ZM141.247+847.795L137.367+838.275L133.807+847.795L141.247+847.795Z"/>
<path opacity="1" d="M171.527+844.715L170.967+844.435C170.994+844.329+171.027+844.222+171.067+844.115C171.107+844.009+171.127+843.889+171.127+843.755C171.127+843.595+170.961+843.409+170.627+843.195C170.294+842.982+169.867+842.789+169.347+842.615C168.827+842.442+168.241+842.289+167.587+842.155C166.934+842.022+166.274+841.955+165.607+841.955C164.861+841.955+164.101+842.049+163.327+842.235C162.554+842.422+161.861+842.709+161.247+843.095C160.634+843.482+160.127+843.975+159.727+844.575C159.327+845.175+159.127+845.902+159.127+846.755C159.127+847.582+159.327+848.302+159.727+848.915C160.127+849.529+160.634+850.029+161.247+850.415C161.861+850.802+162.554+851.089+163.327+851.275C164.101+851.462+164.861+851.555+165.607+851.555C166.407+851.555+167.161+851.455+167.867+851.255C168.574+851.055+169.201+850.815+169.747+850.535C170.294+850.255+170.721+849.975+171.027+849.695C171.334+849.415+171.487+849.209+171.487+849.075L171.487+848.715C171.487+848.555+171.474+848.435+171.447+848.355L171.887+848.075L175.687+853.555L175.207+853.835C174.967+853.542+174.754+853.395+174.567+853.395C174.461+853.395+174.174+853.515+173.707+853.755C173.241+853.995+172.621+854.269+171.847+854.575C171.074+854.882+170.161+855.142+169.107+855.355C168.054+855.569+166.887+855.675+165.607+855.675C164.141+855.675+162.707+855.529+161.307+855.235C159.907+854.942+158.661+854.442+157.567+853.735C156.474+853.029+155.594+852.102+154.927+850.955C154.261+849.809+153.927+848.409+153.927+846.755C153.927+845.129+154.261+843.742+154.927+842.595C155.594+841.449+156.474+840.515+157.567+839.795C158.661+839.075+159.907+838.549+161.307+838.215C162.707+837.882+164.141+837.715+165.607+837.715C166.487+837.715+167.341+837.789+168.167+837.935C168.994+838.082+169.754+838.235+170.447+838.395C171.141+838.555+171.741+838.709+172.247+838.855C172.754+839.002+173.114+839.075+173.327+839.075C173.461+839.075+173.581+839.035+173.687+838.955C173.794+838.875+173.874+838.795+173.927+838.715L174.407+838.875L171.527+844.715Z" fill="#000000"/>
<path d="M197.127+852.035C197.661+852.035+198.007+851.702+198.167+851.035L198.647+851.035L198.647+856.275L198.247+856.275C198.114+855.902+197.974+855.689+197.827+855.635C197.681+855.582+197.447+855.555+197.127+855.555L179.287+855.555L179.287+855.075C179.581+855.049+179.841+854.995+180.067+854.915C180.294+854.835+180.407+854.649+180.407+854.355L180.407+839.155C180.407+838.862+180.294+838.675+180.067+838.595C179.841+838.515+179.581+838.462+179.287+838.435L179.287+837.955L197.447+837.955C197.607+837.955+197.767+837.902+197.927+837.795C198.087+837.689+198.167+837.449+198.167+837.075L198.647+837.075L198.647+842.435L198.167+842.435C198.167+842.035+198.087+841.775+197.927+841.655C197.767+841.535+197.607+841.475+197.447+841.475L185.767+841.475L185.767+844.715L193.287+844.715C193.447+844.715+193.607+844.655+193.767+844.535C193.927+844.415+194.007+844.169+194.007+843.795L194.487+843.795L194.487+848.995L194.007+848.995C194.007+848.622+193.927+848.375+193.767+848.255C193.607+848.135+193.447+848.075+193.287+848.075L185.767+848.075L185.767+852.035L197.127+852.035Z" opacity="1" fill="#000000"/>
<path fill="#000000" d="M225.687+841.955C224.941+841.955+224.234+842.069+223.567+842.295C222.901+842.522+222.314+842.842+221.807+843.255C221.301+843.669+220.907+844.169+220.627+844.755C220.347+845.342+220.207+846.009+220.207+846.755C220.207+847.502+220.347+848.169+220.627+848.755C220.907+849.342+221.301+849.842+221.807+850.255C222.314+850.669+222.901+850.989+223.567+851.215C224.234+851.442+224.941+851.555+225.687+851.555C226.461+851.555+227.174+851.442+227.827+851.215C228.481+850.989+229.061+850.669+229.567+850.255C230.074+849.842+230.467+849.342+230.747+848.755C231.027+848.169+231.167+847.502+231.167+846.755C231.167+846.009+231.027+845.342+230.747+844.755C230.467+844.169+230.074+843.669+229.567+843.255C229.061+842.842+228.481+842.522+227.827+842.295C227.174+842.069+226.461+841.955+225.687+841.955ZM225.687+837.715C226.941+837.715+228.201+837.889+229.467+838.235C230.734+838.582+231.881+839.122+232.907+839.855C233.934+840.589+234.767+841.529+235.407+842.675C236.047+843.822+236.367+845.182+236.367+846.755C236.367+848.355+236.047+849.722+235.407+850.855C234.767+851.989+233.934+852.915+232.907+853.635C231.881+854.355+230.734+854.875+229.467+855.195C228.201+855.515+226.941+855.675+225.687+855.675C224.434+855.675+223.174+855.515+221.907+855.195C220.641+854.875+219.494+854.355+218.467+853.635C217.441+852.915+216.607+851.989+215.967+850.855C215.327+849.722+215.007+848.355+215.007+846.755C215.007+845.182+215.327+843.822+215.967+842.675C216.607+841.529+217.441+840.589+218.467+839.855C219.494+839.122+220.641+838.582+221.907+838.235C223.174+837.889+224.434+837.715+225.687+837.715Z" opacity="1"/>
<path opacity="1" fill="#000000" d="M241.567+839.155C241.567+838.862+241.461+838.675+241.247+838.595C241.034+838.515+240.741+838.462+240.367+838.435L240.367+837.955L257.767+837.955C257.927+837.955+258.087+837.902+258.247+837.795C258.407+837.689+258.487+837.449+258.487+837.075L258.967+837.075L258.967+842.595L258.487+842.595C258.487+842.195+258.407+841.935+258.247+841.815C258.087+841.695+257.927+841.635+257.767+841.635L246.927+841.635L246.927+845.355L254.247+845.355C254.407+845.355+254.567+845.302+254.727+845.195C254.887+845.089+254.967+844.849+254.967+844.475L255.447+844.475L255.447+849.835L254.967+849.835C254.967+849.435+254.887+849.175+254.727+849.055C254.567+848.935+254.407+848.875+254.247+848.875L246.927+848.875L246.927+854.355C246.927+854.649+247.034+854.835+247.247+854.915C247.461+854.995+247.727+855.049+248.047+855.075L248.047+855.555L240.447+855.555L240.447+855.075C240.767+855.049+241.034+854.995+241.247+854.915C241.461+854.835+241.567+854.649+241.567+854.355L241.567+839.155Z"/>
<path opacity="1" fill="#000000" d="M294.767+841.995C294.794+841.915+294.814+841.829+294.827+841.735C294.841+841.642+294.847+841.529+294.847+841.395C294.847+841.182+294.667+840.969+294.307+840.755C293.947+840.542+293.467+840.349+292.867+840.175C292.267+840.002+291.581+839.855+290.807+839.735C290.034+839.615+289.221+839.555+288.367+839.555C287.567+839.555+286.727+839.649+285.847+839.835C284.967+840.022+284.161+840.329+283.427+840.755C282.694+841.182+282.094+841.749+281.627+842.455C281.161+843.162+280.927+844.022+280.927+845.035C280.927+846.049+281.161+846.909+281.627+847.615C282.094+848.322+282.694+848.889+283.427+849.315C284.161+849.742+284.967+850.049+285.847+850.235C286.727+850.422+287.567+850.515+288.367+850.515C288.714+850.515+289.261+850.455+290.007+850.335C290.754+850.215+291.501+850.049+292.247+849.835C292.994+849.622+293.654+849.382+294.227+849.115C294.801+848.849+295.087+848.569+295.087+848.275C295.087+848.142+295.061+848.035+295.007+847.955C294.954+847.875+294.901+847.782+294.847+847.675L295.287+847.395L299.407+853.675L298.927+853.955C298.874+853.822+298.801+853.735+298.707+853.695C298.614+853.655+298.501+853.635+298.367+853.635C298.181+853.635+297.807+853.749+297.247+853.975C296.687+854.202+295.961+854.442+295.067+854.695C294.174+854.949+293.127+855.175+291.927+855.375C290.727+855.575+289.381+855.675+287.887+855.675C286.287+855.675+284.701+855.469+283.127+855.055C281.554+854.642+280.141+853.989+278.887+853.095C277.634+852.202+276.621+851.082+275.847+849.735C275.074+848.389+274.687+846.822+274.687+845.035C274.687+843.249+275.074+841.682+275.847+840.335C276.621+838.989+277.634+837.869+278.887+836.975C280.141+836.082+281.554+835.409+283.127+834.955C284.701+834.502+286.287+834.275+287.887+834.275C289.487+834.275+290.867+834.362+292.027+834.535C293.187+834.709+294.167+834.902+294.967+835.115C295.741+835.329+296.341+835.509+296.767+835.655C297.194+835.802+297.514+835.875+297.727+835.875C297.967+835.875+298.167+835.769+298.327+835.555L298.767+835.675L295.167+842.275L294.767+841.995Z"/>
<path d="M313.447+841.955C312.701+841.955+311.994+842.069+311.327+842.295C310.661+842.522+310.074+842.842+309.567+843.255C309.061+843.669+308.667+844.169+308.387+844.755C308.107+845.342+307.967+846.009+307.967+846.755C307.967+847.502+308.107+848.169+308.387+848.755C308.667+849.342+309.061+849.842+309.567+850.255C310.074+850.669+310.661+850.989+311.327+851.215C311.994+851.442+312.701+851.555+313.447+851.555C314.221+851.555+314.934+851.442+315.587+851.215C316.241+850.989+316.821+850.669+317.327+850.255C317.834+849.842+318.227+849.342+318.507+848.755C318.787+848.169+318.927+847.502+318.927+846.755C318.927+846.009+318.787+845.342+318.507+844.755C318.227+844.169+317.834+843.669+317.327+843.255C316.821+842.842+316.241+842.522+315.587+842.295C314.934+842.069+314.221+841.955+313.447+841.955ZM313.447+837.715C314.701+837.715+315.961+837.889+317.227+838.235C318.494+838.582+319.641+839.122+320.667+839.855C321.694+840.589+322.527+841.529+323.167+842.675C323.807+843.822+324.127+845.182+324.127+846.755C324.127+848.355+323.807+849.722+323.167+850.855C322.527+851.989+321.694+852.915+320.667+853.635C319.641+854.355+318.494+854.875+317.227+855.195C315.961+855.515+314.701+855.675+313.447+855.675C312.194+855.675+310.934+855.515+309.667+855.195C308.401+854.875+307.254+854.355+306.227+853.635C305.201+852.915+304.367+851.989+303.727+850.855C303.087+849.722+302.767+848.355+302.767+846.755C302.767+845.182+303.087+843.822+303.727+842.675C304.367+841.529+305.201+840.589+306.227+839.855C307.254+839.122+308.401+838.582+309.667+838.235C310.934+837.889+312.194+837.715+313.447+837.715Z" opacity="1" fill="#000000"/>
<path opacity="1" fill="#000000" d="M337.407+851.715C339.487+851.715+340.981+851.349+341.887+850.615C342.794+849.882+343.247+848.595+343.247+846.755C343.247+844.915+342.794+843.629+341.887+842.895C340.981+842.162+339.487+841.795+337.407+841.795L334.527+841.795L334.527+851.715L337.407+851.715ZM329.167+839.155C329.167+838.862+329.067+838.675+328.867+838.595C328.667+838.515+328.421+838.462+328.127+838.435L328.127+837.955L340.127+837.955C341.621+837.955+342.887+838.195+343.927+838.675C344.967+839.155+345.827+839.795+346.507+840.595C347.187+841.395+347.681+842.329+347.987+843.395C348.294+844.462+348.447+845.582+348.447+846.755C348.447+847.929+348.294+849.049+347.987+850.115C347.681+851.182+347.187+852.115+346.507+852.915C345.827+853.715+344.967+854.355+343.927+854.835C342.887+855.315+341.621+855.555+340.127+855.555L328.127+855.555L328.127+855.075C328.421+855.049+328.667+854.995+328.867+854.915C329.067+854.835+329.167+854.649+329.167+854.355L329.167+839.155Z"/>
<path d="M370.407+852.035C370.941+852.035+371.287+851.702+371.447+851.035L371.927+851.035L371.927+856.275L371.527+856.275C371.394+855.902+371.254+855.689+371.107+855.635C370.961+855.582+370.727+855.555+370.407+855.555L352.567+855.555L352.567+855.075C352.861+855.049+353.121+854.995+353.347+854.915C353.574+854.835+353.687+854.649+353.687+854.355L353.687+839.155C353.687+838.862+353.574+838.675+353.347+838.595C353.121+838.515+352.861+838.462+352.567+838.435L352.567+837.955L370.727+837.955C370.887+837.955+371.047+837.902+371.207+837.795C371.367+837.689+371.447+837.449+371.447+837.075L371.927+837.075L371.927+842.435L371.447+842.435C371.447+842.035+371.367+841.775+371.207+841.655C371.047+841.535+370.887+841.475+370.727+841.475L359.047+841.475L359.047+844.715L366.567+844.715C366.727+844.715+366.887+844.655+367.047+844.535C367.207+844.415+367.287+844.169+367.287+843.795L367.767+843.795L367.767+848.995L367.287+848.995C367.287+848.622+367.207+848.375+367.047+848.255C366.887+848.135+366.727+848.075+366.567+848.075L359.047+848.075L359.047+852.035L370.407+852.035Z" fill="#000000" opacity="1"/>
</g>
</g>
</svg>
