<svg version="1" xmlns="http://www.w3.org/2000/svg" width="666.667" height="1170.667" viewBox="0 0 500 878"><path d="M250.9 21.2c-2.1 1.8-6.2 7.6-8.3 11.8-1 1.9-2.1 6.8-2.4 11-.5 6.8-.6 7.2-1.4 4-.5-1.9-1.3-5.3-1.7-7.5-1-5.6-1.6-6.3-5.9-7.1-2-.4-4.3-1.1-4.9-1.6-.7-.6-3.2-.7-5.8-.4-4 .6-4.8 1.3-8 6-1.9 2.9-3.5 6.1-3.5 7.1 0 1.5 2.2 5 6.5 9.7.8 1 1.5 2 1.5 2.2 0 .7-6.2 2.7-12.3 4-4.8 1.1-5.9 1-6.9-.1-1.9-2.3-7-4.6-10.1-4.5-1.8 0-3-.5-3.4-1.6-1.3-3.8-4.6-6.2-8.4-6.2-2.1 0-4.1-.5-4.4-1-1.6-2.5-8.6-.5-10.5 3-.9 1.6-.5 2.4 2 4.6 4 3.7 4 5.8-.1 5.2-4-.6-11.6 1-14.7 3-2.6 1.7-6.6 8.8-5.7 10.2.3.6 1.6.5 3.1 0 3.2-1.3 10.4-1.3 10.4-.1 0 .5.7 1.7 1.6 2.5 1.4 1.5 1.4 1.6-.3 1.6-2.3 0-12.2 4.6-14.5 6.7-1 .9-1.8 2.4-1.8 3.4s-1.2 2.6-2.6 3.6c-1.5 1-4.7 3.6-7.1 5.8-3.8 3.4-4.6 4.8-5 8.7-.6 5.6.6 6.6 4.1 3.3 3.6-3.4 5.2-3.2 2.6.3-3.3 4.5-5.3 13.6-4 17.8.9 2.8 1.7 3.4 3.3 3.2 1.2-.2 2.3-1.2 2.5-2.3.2-1.1 1.4-3.1 2.7-4.5 1.2-1.4 3.1-4 4-5.9 1.7-3.3 1.8-3.4 3.1-1.6.8 1 1.4 2.3 1.4 2.8 0 .6.9.2 2-.8 2.9-2.6 4.2-7.4 3-11.4-.5-1.9-.7-4.5-.4-5.8l.6-2.3 2.4 2.5c2.8 3 6 3.2 8.8.6l2.1-2 .2 6.5.1 6.4h-2.9c-3.6 0-9.4 5-10.8 9.3-.9 2.5-2.3 3.8-6.3 5.7-3.9 1.8-5.9 3.6-7.5 6.5-2.7 4.7-2.9 8.3-.7 9.2 1.3.5 1.3.8-.4 2.7-2.6 2.8-3.8 5.4-4.6 9.9-1 5.1 0 7.7 2.9 7.7 2.8 0 9.2-6.8 10.1-10.7 1.3-6 2.7-9.9 4.2-11.6 1.5-1.7 1.7-1.5 2.9 2.7.9 2.9 2 4.7 3.4 5.1 2.3.8 4.9-1 4.9-3.4 0-.9.8-2.6 1.8-3.8 1.3-1.6 2.2-1.9 4-1.2 2.8 1.1 2.8 2-.3 6.5-2.8 4.2-3.2 7.6-1 9.4 1.2 1 2 .9 4-.4 1.9-1.2 2.5-1.3 2.5-.3 0 1.8-2.6 5.3-9.7 13.1-6.8 7.4-7.6 9.8-4.7 15.5 1.8 3.6 3.3 3.6 5.1 0 .7-1.3 2.7-3.9 4.4-5.6l3.2-3.3 2.3 2.6c1.8 1.8 2.4 3.7 2.4 7 0 4.2-.2 4.5-5 7.5-5.6 3.4-7 5.4-7 9.7 0 1.6-.9 3.7-2 4.7-2.8 2.5-5.3 11.1-3.9 13.6 1.8 3.4 4.6 2.2 9.6-4.2 5.1-6.6 6.5-6.3 3.9.6-1 2.4-1.8 5.4-2 6.7-.1 1.3-.7 3.4-1.3 4.8-.6 1.4-1.4 4-1.7 5.7-1 4.3-2 4.8-4 1.8-2.1-3.1-4.6-3.2-7.9-.1-3 2.8-2.7 5.2 1 9.2l2.4 2.6-2 6.1c-2.1 6.2-2.6 10.3-1.5 13.1.9 2.3 2.8 2 6.3-.9l3-2.6-.1 2.3c0 1.3-.5 3.8-1 5.5-.8 2.9-1.4 3.3-4.2 3.3-3.9 0-6.9 2.9-6.4 6.1.5 3.3 3.1 4.6 6.8 3.2 2.4-.9 3-.9 3 .3 0 4.9 6.6 17.6 9.8 18.9 2.6 1 4.5-2 4.8-7.6.3-4.3-.2-6.1-2.6-10.4-1.7-2.9-3-5.8-3-6.4 0-.7 1.3-2.4 3-3.7 1.8-1.6 3.2-3.9 3.6-6.2.4-2 .9-3.1 1.1-2.4.8 2.2 4.3 3.5 5.9 2.1 2.2-1.8 1.7-11.4-1-18.1-1.4-3.3-1.8-5.4-1.1-5.2.6.3 1.8-.2 2.5-1.1 2.7-3.2-1.3-16.5-6-19.8-3.4-2.4-2.6-16.2 1.1-18.5 1-.7 1.9-1.1 1.9-1 0 .2-.4 1.8-.9 3.6-1.1 3.6-.1 7.4 2.6 10.4 2.3 2.6 4 1.1 4.6-4.2.3-2.7 1.4-6.5 2.4-8.5l1.9-3.6 2.2 4.6c2.6 5.4 4.5 6.4 7.2 4 3.9-3.5 1.8-17.9-3.5-23.5-1.3-1.4-3.3-4.6-4.5-7.3-1.2-2.6-2.6-4.7-3.1-4.7s-.9-.9-.9-2c0-2.9-2.8-8.1-5.5-10.5-2.8-2.4-4.4-9.5-2.1-9.5 1.9 0 3.6-5.2 3.6-10.9v-4.6l2 2.5c1.6 2 2 4.1 2 11.1 0 9.8 1.4 14 5.8 18.2 3.3 3.2 6.6 3.1 7.7-.2.8-2.6-2-13.7-5-19.4-3-5.9-3.1-7.3-.5-8.7 2.9-1.5 2.5-3.8-1-5.8-1.7-.9-3.3-2.7-3.6-3.9-.8-3.1-6.9-8.2-10.5-9-3-.6-3.7-1.7-1.9-2.8.6-.4 1.8-.1 2.6.6 3.9 3.3 6.9-8.7 4.1-16.6-1.3-3.7-1.2-4.2.6-6.7l2.1-2.8-2.4-2.5c-1.3-1.4-2.9-2.5-3.5-2.5-.6 0-2-.6-3-1.4-1.7-1.2-1.7-1.5 1-4.9 2.8-3.4 3-3.5 4.2-1.7.8 1.1 1.1 3 .8 4.3-.5 1.9 0 2.9 2.2 4.4 1.5 1.1 3.5 2.2 4.4 2.6.9.3 1.9 2.1 2.3 3.9.7 4 5.9 9.4 9.8 10.3 4.4 1.1 5.1 2.7 4.3 10.2-.4 3.8-1.1 7.3-1.5 7.8-2.3 2.8-2.8 6.3-1.4 9 .8 1.5 1.4 3.7 1.4 4.8 0 2.3 4.6 10.7 5.9 10.7 2.7 0 5.3-9.3 5-18-.1-3.6.4-9.3 1.1-12.6l1.3-6.2 3.1.9c1.7.5 5.1.9 7.6.9 7.8 0 7.4-2.1 6.6 34.6-.4 18.1-.9 37.8-1.1 43.9-.2 6-.7 26.3-1 45-.6 41.7-1.4 77.1-2 97-.3 8.2-.7 25.8-1 39-.7 29.8-1.4 47.9-2.5 66.3l-.9 14.2-3.1 2.6c-2.6 2.2-3 3.1-2.5 5.6.5 2.2.2 3.5-1.3 5.1-1.1 1.2-2.9 6-4.1 10.6-3 12.2-3.5 12.8-11.7 12.9-9.8.2-31.7-3.1-53.3-7.9-2.4-.5-4.6-.7-5-.4-.3.4-.9 9.3-1.3 19.8-.4 10.6-.7 20.1-.8 21.2 0 1.1.8 2.7 1.9 3.6 1.8 1.5 2.7 1.5 6.8.4 4.5-1.2 7.2-1.8 21.3-4.4 10-1.9 19.4-2.5 18.6-1.3-.4.7-1.5 1.2-2.6 1.2-2.4 0-11.6 7.1-22.4 17.5-4.9 4.7-9.5 8.5-10.1 8.5-.7 0-1.5-1.3-1.8-2.9-.8-3.7-6-8.9-11.3-11.3l-4.2-1.8.5-6.1c.6-6.4-.2-9-4.4-14.2-2.4-3-2.3-3.3 1.1-8 1.7-2.3 2.1-4.4 2.1-11.5 0-10.1-1.4-13.8-7.2-19.4-3.7-3.5-12.5-7.4-14.4-6.3-1.3.9-1.1.1 1.5-5.9 3.1-7.1 5-19 4.3-26.9-.7-7.7-5.4-19.3-10.2-25.5l-3.7-4.7 2.9-.5c5.5-1 9.1-3.8 11.8-9.5 3.2-6.5 2.9-10.8-1.3-19.5-2.3-4.6-3.6-5.9-8.7-8.7-3.3-1.8-6.4-3.4-6.9-3.6-.5-.2-.1-2.4.8-4.9 1.4-3.7 1.7-6.7 1.3-16.5-.4-11.2-.7-12.4-3.7-18.1-4-7.6-11.7-15-20.1-19.4-6.2-3.2-6.8-3.3-17.4-3.2-12.3 0-18.4 1.8-28.2 8-6.4 4.1-13.8 13.3-15.2 19-1.1 4.1-1.3 4.3-4.1 3.9-1.7-.3-4.3-.7-6-1-6.5-1-17 6.5-17 12.2v2.5l2.8-2.9c4-4.4 8.6-6.4 14.6-6.4 8.8-.1 14.5 4.1 16.7 12.3 1.1 3.8 1 5.2-.1 7.5l-1.4 2.8-.6-4c-1.2-7.9-7-13-14.8-13-4.9 0-5.6.3-8.8 3.7C5 348.9 4 352 6.1 352c.6 0 2-1.1 3-2.4 3.7-4.7 13-4.2 16.3.9 1.8 2.8 2.1 7.7.6 10.5-1.3 2.4.5 3.7 2.5 2 1.2-1 1.5-.9 1.5.5 0 2.8 3.3 1.3 5.2-2.3.9-1.8 2.4-4.2 3.3-5.2 3-3.3.5-11.3-5.7-19.1-2.5-3.1-2.8-4.2-2.3-7.3 1.6-8.1 9.8-16.4 22-22.1 7.8-3.7 21.3-4.6 29-2 14 4.6 25.7 17.2 26.1 27.9.2 2.8.5 7.8.9 11.1.3 3.3.2 7.1-.4 8.5-.9 2.3-1 2.2-1-1.6-.1-4.6-2.1-8.1-4-6.9-.9.5-1.1 2.4-.6 6.5.7 6.2-.9 11.2-4 12.3-.8.4-1.5 1.4-1.5 2.3 0 1.2.7 1.5 2.5 1.2 3.2-.7 3.1-.1-.5 4.9-4.2 5.7-13.5 10.3-20.4 10.2l-5.1-.1 5.3-.9c6.2-1.1 9.6-2.7 13.7-6.5 3-2.9 3-2.9.7-3.2-1.5-.2-2.2-.9-1.8-1.7.9-2.4-1.2-2.7-3.5-.4-1.7 1.7-2.9 2-6.2 1.6-2.2-.3-4.9-1.4-6-2.5-1.9-2-1.9-2 0-3.9 1.1-1.1 2.8-2.3 3.8-2.6 1.4-.6 1.7-1.5 1.2-5.3-.5-5.2-2.4-7.6-8.2-10.4-6.8-3.3-13.4-1.1-18.5 6-2.9 4-4.7 13.9-3.3 18.3l1 3.4-6.3-3.2c-4-2-8.6-3.4-12.5-3.9-5.4-.5-6.9-.3-11.8 2.1-8.7 4.1-10.8 6-15.7 13.4-3.5 5.3-4.7 8-5.1 12.4-.3 3-.3 5.5 0 5.5.4 0 2.4-3.7 4.6-8.3 7-14.7 17.6-21 31.1-18.5 3 .5 7 1.9 8.8 3 4.4 2.7 9.2 9.4 9.2 12.9 0 3.8.9 5.9 2.6 5.9 1.7 0 1.9-7.4.4-11.4-1.2-3.2-1.1-3.2 5 0 4.4 2.3 6.3 2.6 13.8 2.6 13.6-.1 20.4-3.5 27.9-14 1.8-2.5 3.4-4.7 3.6-4.9.7-.7 5.7 1.6 5.7 2.7 0 .5-1.3 1-2.9 1-1.6 0-3.1.6-3.4 1.5-.7 1.6-.3 2 3.5 2.9 1.5.3 3.7 2 4.9 3.7 1.8 2.6 2.1 4 1.6 9.2-.3 3.8-1.1 6.5-2 7.2-.9.5-2.4 1.5-3.4 2.2-1.6 1-1.6 1.3-.3 2.2 1 .7 1.2 1.3.5 2s-3.3-.6-8-3.9c-8.3-5.7-15.9-7.6-26.8-6.5-18.2 1.7-30.5 9.2-37.3 22.7-2.4 4.6-2.7 6.6-2.8 14.8-.1 8.5.2 10 2.6 14.7l2.8 5.2-4.8 2.4c-3.9 1.9-5.2 3.4-7.7 8.3s-3 7-2.9 12.9c0 3.8.4 7.9.8 9.1.7 1.9.3 2.2-4.6 2.8-7.7 1.1-14.3 5-18.9 11.5L0 501.3v40.6l3.7 3.1c2.1 1.7 6.4 4.3 9.5 5.8 3.1 1.5 5.7 3.2 5.7 3.8.1.6-.8 3.2-2 5.8-1.1 2.6-2.8 8.3-3.7 12.7-1.7 8-1.8 8.1-5.5 9.4-7.7 2.6-7.9 3.2-7.5 19 .3 13.8.4 14.1 3.7 20.3 4.1 7.6 8 10.8 15.8 13.1l5.8 1.7.6 9.5c.7 11.1 3 17.8 8.4 24.4 9.1 11.1 26.6 15.5 41.1 10.4 3.2-1.1 6.6-2.2 7.5-2.5 1-.3 2.2.4 3.2 1.9 2.5 3.9 7.8 5.2 13.5 3.4 4.1-1.4 5.4-1.4 10.7-.1 11.2 2.6 24.3 1.5 33.6-3 8.9-4.2 20.9-18.4 20.9-24.6 0-3.5.9-3.7 9.4-1.5 7.2 1.9 43.1 3.1 49.2 1.7 4.1-.9 4.1-.9 5.2 2.6.7 2.3.8 4.1.1 5.3-.5 1-1.2 4.4-1.5 7.6-.6 5.5-.5 6.1 2.7 10.3 5.1 6.6 9 8.5 17.4 8.5 8.2 0 12.1-2.1 15.1-8.2 2.3-4.7 2.1-12.9-.4-18.1-1.1-2.4-1.5-4.6-1.1-6.2.4-1.4.7-4.2.8-6.3l.1-3.7h8.8c12.3 0 18.1-1.8 24.4-7.5 5.3-4.7 8.3-9.7 7.4-12.2-1-2.4-2.6-1.3-4.2 2.7-2.3 5.7-10.6 12.8-15.8 13.5-5.1.7-30.6 1.7-40.5 1.6-4.1 0-9.5-.7-12-1.5-6.1-2-16.7-2.3-21.4-.7-4.6 1.6-4 3 1 2.5 9.2-.9 21.8.9 24.7 3.6 3.7 3.5-42.4 5.4-53.9 2.2-2.2-.6-8-2.1-13-3.3-4.9-1.1-9.4-2.4-10-2.7-1.3-.8-9.6-.9-10.1-.1-.6 1.1 2.4 3.1 3.6 2.4.8-.5 6.7.9 8.8 2.1.8.5-3.4 10.9-5.7 14.3-7.6 11.2-12.4 14.6-23 16.6-4.5.9-9.2 1.3-10.4.9-1.1-.4-3.7-.8-5.7-.9-6.1-.3-12.2-4-14.8-8.7-1.2-2.4-2.2-4.6-2.2-4.9 0-1 5.3.2 7 1.6 2.5 2.1 8.2 4.5 10.5 4.5 3.2 0 12.4-4.9 14.1-7.5 2.3-3.6 2.8-11 1-14.7-.9-1.7-1.4-3.3-1.2-3.6.3-.2 4.1-.4 8.5-.3 6.6.1 8.1-.2 8.1-1.4 0-2.2-.9-2.4-15-2.9-13-.4-25.3-2.7-28-5-.8-.8-3.4-2.2-5.6-3.1-4.2-1.7-6.7-5.2-9.3-13.4-1.8-5.7-1.3-21.8.9-29.1 1.1-3.6 2-7.5 2-8.7 0-1.2.9-3.7 2-5.6 1.1-1.9 2.4-6 2.8-9.1l.7-5.6 22-.5c12.1-.2 23.7-.8 25.8-1.4l3.8-.9-.7 3.1-.6 3.2 2.8-2.5c1.5-1.4 9.1-8.8 16.9-16.5 23.6-23.5 21.4-21.9 36.7-26.9 7.1-2.3 12-3.3 15.7-3.2l5.5.1.1 4.7c0 4-.3 4.8-1.7 4.8-1 0-1.8.6-1.8 1.4 0 1.6 11.9 6.6 13.5 5.7.6-.3 17-.6 36.6-.6h35.6l7.7 3.9c9.7 5 10.6 6.3 9.9 14.3-.7 7.1-1.6 8.3-8.7 10.7-5.9 1.9-10.3 2.1-10.9.3-.3-.9-.9-.9-2.6.1-3.1 1.8-4.1 1.5-4.1-1.3 0-1.6-.6-2.5-1.5-2.5-.8 0-1.5.4-1.5.8 0 .5-.7 1.7-1.5 2.8-1.4 1.7-1.4 1.6-.9-2.4.5-3.3.4-4.2-.9-4.2-.8 0-2 1.3-2.7 3-1.5 3.6-3.5 5.4-5 4.5-.8-.5-.5-1.4.8-2.9 1.1-1.1 2.2-3.3 2.6-4.9 1-4.1-2.2-3.5-4 .8-1.5 3.7-3.5 5.2-5.3 4-.7-.3-.1-1.5 1.4-2.8 1.4-1.2 2.8-3.5 3.1-5.2.8-4.5-.4-9.5-2.3-9.5-1.2 0-1.4.7-.9 3.1.6 3.2-.9 10.9-2.2 10.9-.4 0-1.5.7-2.6 1.5-1.6 1.2-1.7 1.8-.7 4.3l1.2 2.9 15.7.1c8.6.1 18.4-.2 21.7-.7 7-1 9.3-.2 12.5 4.2 2 2.7 2.2 3.7 1.6 10.4-.3 4-1.3 8.7-2.1 10.3-2.5 4.8-7.6 6.6-10 3.3-1.3-1.8-3.5-1-3.5 1.3 0 2.4-3.5 1.2-3.8-1.4-.4-2.8-2.2-2.9-2.9-.2-.8 2.9-3.9 2.1-3.5-.8.4-3-1.6-2.8-2.8.3-1.4 3.6-2.4 3.1-1.7-1 .8-4.9-.8-5.3-3.3-.8l-2.1 3.8.6-4.3c.7-5.3-.8-5.5-3.5-.5l-2.1 3.8.7-4.4c.6-4 .5-4.3-1.4-3.7-1.1.4-2.3.2-2.7-.4-.8-1.4-3.5.6-3.5 2.6 0 3.9-2.5 6.4-9.1 9.1-3.8 1.5-6.9 3.1-6.9 3.4 0 1.5 3 1.6 5.6.2 4.3-2.2 39.7-3.4 41.7-1.4 1.3 1.3-.8 13.1-3.2 18.5-1.9 4.4-2.2 4.6-6.2 4.6-3.6 0-4.1-.2-3.6-2 .6-2.4-2-2.8-2.9-.5-1.1 2.7-2.4 1.6-1.7-1.5.8-4-1.5-4-3 0-.6 1.6-1.5 3-1.9 3-1.1 0-1-2.8.2-5.1.9-1.5.7-1.9-.5-1.9-.9 0-2.3 1.6-3.1 3.5-.9 2.3-2.1 3.5-3.4 3.5-2.4 0-2.5-1.1-.5-5 .8-1.6 1.1-3.1.6-3.4-1.1-.7-2.7 1.2-4.5 5.6-1.4 3.2-2.1 3.6-6.2 4.3-2.5.3-4.8.4-5.1.1-.3-.3.6-2.1 2.1-4 1.4-1.9 2.6-3.9 2.6-4.5 0-1.8-1.7-1.2-3.4 1.2l-1.7 2.2.5-2.2c.6-3.2-1-3.8-2.8-1.1-1.7 2.3-2.1 5-.8 4.5.8-.2 1.2.6 1.2 2.8 0 .9-.9 1.5-2.5 1.5-1.4 0-2.5.4-2.5 1 0 1.7 4.9 2.3 12.3 1.4 4-.4 13.6-.8 21.4-.9 13.6 0 14.2-.1 16.7-2.4 3-2.8 5.2-9.3 6.2-18.1.6-5.2.9-6 2.8-6 1.1 0 3.9-1.1 6.1-2.3 3.5-2 4.2-3 5.7-8.2.9-3.3 1.7-8.4 1.7-11.4.1-4.5-.4-5.9-3-9.2-3.1-3.9-3.1-4-1.5-7.3 1.7-3.6 2-9.1 1-14.5-1.2-5.8-18.3-14-29.4-14.1-3.3 0-3.6-.3-4.9-4.4-.7-2.4-2.2-5.4-3.3-6.6-1.1-1.2-1.8-2.3-1.7-2.4.2-.2 4.9.2 10.4.9s15 1.8 21 2.5c7.9.9 14 2.3 21.6 5 5.8 2.1 11 3.5 11.6 3.2 1.6-1.1 2.2-3.9 3-14.2.9-11.2.6-28.3-.5-32.5-.5-1.7-1.6-3.1-2.4-3.3-.9-.2-5.6 1.7-10.6 4.1-9.9 4.9-16.1 6.3-33.2 7.2-5.8.3-13.5.8-17.1 1.1-4.1.4-6.9.2-7.3-.4-.3-.5-1.1-4.5-1.7-8.9-1.6-11.6-1.7-12.1-4.2-14.3-1.6-1.5-2.2-3.3-2.2-6.3 0-3.8-.3-4.3-3.3-5.6l-3.3-1.5.6-24.5c.3-13.6.8-89.6 1.1-169.1.3-79.5.7-144.6.9-144.8.2-.2 4.2-.7 8.9-.9l8.6-.6v9c0 7.5.3 9.5 2 11.6 1.1 1.4 2 3.9 2 5.5 0 4 .9 4.5 5.6 2.9 2.9-1 4.1-2.2 5-4.8 1.9-5.1 1.7-7.2-1.1-10.9-2.1-2.8-2.5-4.5-2.5-10.1v-6.7l4.9-2c4.9-2.2 8.7-6.3 11-11.9.8-2 2.7-3.9 5-5 3.1-1.5 3.6-2.3 3.7-5.3.2-5.7.3-5.9 3.5-8.7 2.2-2 2.9-3.3 2.5-4.9-.4-1.3.2-3.2 1.5-4.8 2.2-2.8 4.6-3.6 3.1-1-.5.9-.3 5.7.6 11.7 1.9 13.9 1.9 35.4-.1 51.7-.9 7.5-2 16.9-2.3 21-.3 4.1-1.4 13.7-2.5 21.3-3.7 26.9-2.5 38.9 6.6 66.2 12.8 37.8 13.5 50.7 4 69.2-5.7 11-6.1 13.4-4.4 25.7 1.2 9.1 1.6 10.3 4.3 12.8 3.8 3.5 4.4 3.5 5.7 0 1.6-4.1 4.9-20.9 4.9-25 0-1.9.7-4.3 1.6-5.3.9-1 2-3.3 2.5-5.1.6-2.4.7-1.8.2 2.2-1 9.1-.9 10.5.7 10.5 1.7 0 7.1-10.4 9.3-17.6 1-3.5 1.1-6.7.5-12.8-.9-7.9-.8-8.3 1.5-10.1 1.4-1.1 3.2-4.6 4.7-9.4 2.2-7 2.3-8.2 1.2-14.9-.6-4-1.4-8.2-1.7-9.3-.6-1.7-.5-1.7 1.2.2 1 1.2 2.3 3 2.9 4 1 1.6 1.3 1.7 2.8.5 3.2-2.7 1.5-16.8-3.2-27.1-1.7-3.7-2.5-7.4-2.6-11.5-.2-5.2-.8-7.2-5-14.5-2.6-4.7-7.6-12.6-11.1-17.6-5.3-7.7-9.5-16.7-9.5-20.6 0-2.1 2.1.7 5 6.6 3.9 7.8 8.8 12.9 12.1 12.4 1.7-.2 2.5-1 2.7-3 .3-2.3.8-2.6 3.4-2.6 4.3.1 5.2-2 2.2-5.5-2.6-3.1-5.8-8.7-4.9-8.7.2 0 1.9.9 3.7 2 7.1 4.3 7.5 2.2 1.3-7-4.5-6.9-6.9-13-4.6-11.6 1.9 1.2 4.1-1.4 4.1-5 0-4-3.1-12.3-6.2-16.4-2.4-3.3-1.8-5.2.9-2.8 2.7 2.3 7.9 4.8 10.3 4.8 2.8 0 2.5-2.2-.6-5.1-3.6-3.3-8.4-10.4-8.4-12.4 0-1.4.6-1.2 3.1.9 3.5 2.9 6.1 3.3 7.9 1.1 2-2.5.2-6.7-5.2-11.8l-5-4.7h3.9c4.9 0 7.7-1.8 6.7-4.4-.9-2.4-12-7.6-16.1-7.6-5.3 0-4.6-1.6 1.5-3 3.1-.8 6.7-2 8-2.8 3.3-2.1 2.5-5.4-1.6-6.4-4.4-1.2-4.9-3.1-1.8-6.9 3-3.5 3.3-6.1 1-8-1.2-1-2-1-3.4-.1-2.3 1.4-3-.1-3-6.7 0-6.2-3.2-9.7-8-8.7-2.8.5-3.1.4-2.5-1.5.8-2.4-.3-9.9-1.5-9.9-.5 0-1.8 2-3 4.4-1.1 2.4-2.8 5-3.6 5.6-1.2 1-1.4.8-1.4-1.7 0-4.5-1.5-5.4-6.9-3.7-4.3 1.3-4.7 1.3-6-.6-1.4-2-4.1-2.8-4.1-1.1 0 .5-1.6-.7-3.5-2.6-4.7-4.7-6-4-6.2 3.7-.1 3.4-.4 6.5-.7 6.7-.2.3-1.4-.5-2.6-1.7-3-3-4.4-2.1-5.1 3.1-.3 2.4-1.3 6-2.1 7.9-4.9 11.7-4 11-9.8 8-4-2-5.3-4-2.6-4 2.1 0 5.5-4.7 4.9-6.9-.3-1 0-2.2.6-2.5 2.5-1.6 1-5.6-3.9-10.6-5.5-5.4-8.7-6.3-12.8-3.4-1.3.9-3.5 1.7-4.9 1.9-5.4.6-7.5 6.7-5.1 14.7 1 3.3.9 4.1-.3 4.9-2.6 1.6-2.9 1-2.9-6 0-10.9-.5-11.9-9.1-19.4-8-6.9-9.5-7.6-12-5.5zm2 18.9c.1 7.1-.1 13.4-.4 13.8-.2.5-1.9.6-3.7.2l-3.3-.7v-8.3c-.1-7.2.2-8.8 2.7-13.2 1.6-2.7 3.2-4.9 3.7-4.9s1 5.9 1 13.1zm9.2-9.9c4.8 3.8 5.8 7.1 5 16.8l-.6 7.5h-9l-.3-13.8c-.1-7.5 0-13.7.3-13.7.4 0 2.4 1.4 4.6 3.2zm30.7 4.5c.2 1.3.9 2.3 1.6 2.3.7 0 2.1.9 3.2 2.1 1.8 2 1.8 2.1-.1 3.5-1.4 1-2 2.7-2 5.2 0 3.6-.1 3.7-3.7 4-2.1.2-3.8.8-3.8 1.3 0 1.7 2 4.9 3 4.9.5 0 2.6 1.1 4.6 2.5 6.6 4.5 24.1 7.7 30.2 5.5 1.8-.6 3.6-1 3.8-.7.3.2-.5 2-1.6 4-1.1 1.9-2 3.9-1.9 4.3.4 2.3-.3 2.5-2.7.9-2.9-1.9-6.1-3-14.4-5-3-.8-8.9-2.2-13-3.3-4.1-1.1-10.2-2.3-13.5-2.5-3.3-.3-10-1.1-15-1.8-13.4-1.7-32.4-.6-53.5 3.2-3 .6-6.6 1.2-8 1.4-3.6.6-18.5 5.2-20.9 6.5-1.7.9-2.2.8-2.7-.4-.3-.8-.3-1.9 0-2.4s-.9-2.3-2.7-4c-4.6-4.4-5.3-5.5-4.9-7.4.4-1.8-3.3-4.8-6.1-4.8-1.8 0-3.4-2.6-2.3-3.7.4-.4 1.9 0 3.4.9 2 1.2 3.2 1.4 4.5.6 2.8-1.5 5-.2 4.3 2.6-.3 1.4-.2 2.8.4 3.1.5.3 1 1.7 1 3 0 1.4.8 2.9 1.9 3.5 5.4 2.8 33.9-1.6 38.6-6 2.9-2.8 3.2-5 .7-5-2.4 0-3.2-.8-2.5-2.6.3-.9 1.3-1.2 2.5-.8 2.4.7 7.5-1.3 8.2-3.3.3-.8.1-2.3-.4-3.3-.8-1.5-1.9-1.8-5.2-1.5-4.2.4-5.8 1.7-5.8 4.7 0 1.4-.5 1.6-2.2.9-2.8-1.1-2.7-4.8.1-6.8 1.1-.7 2.1-2.3 2.3-3.6.4-3.1 5.3-3.7 6.1-.8.5 2.2 3.1 2.8 4.2 1.1.3-.6 1.3-1 2.1-1 1 0 1.4 1.2 1.4 3.9 0 2.2.5 4.3 1.1 4.7.6.3.9 1.9.5 3.4-.6 3.5 1.3 5.4 8.1 8 4.1 1.5 7.1 1.8 16.9 1.5 13.9-.4 20-1.7 23.2-5.1 1.3-1.3 3.3-2.4 4.5-2.4 2.9 0 6.7-2.7 6.7-4.7 0-2.1-2.9-5.3-4.8-5.3-.7 0-2.7.9-4.3 2.1-2.2 1.6-2.8 2.6-2.4 4.2.6 2.2.6 2.2-.9.3-2-2.5-2-4.2 0-5 1.5-.6 1.5-.8 0-2.4-1.8-2-.5-4.2 2.4-4.2.9 0 2.5-.7 3.6-1.5 2.7-2.1 5.8-1.5 6.2 1.2zm47.2 6.9c0 2.3.3 2.5 2.5 2 1.8-.5 2.5-.2 2.5.9 0 .9-.9 1.5-2.4 1.5-1.4 0-3.6.4-5 1-3.1 1.1-3.1.9-.9-4.2 2-4.4 3.3-4.9 3.3-1.2zm-9.3.6c-.3.8-.6.5-.6-.6-.1-1.1.2-1.7.5-1.3.3.3.4 1.2.1 1.9zm-8.6 6.9c-1.1 2.3-1.8 4.6-1.5 5 .8 1.3 4.8 1.1 6.2-.3.9-.9 1.2-.9 1.2.3 0 .9-.9 2.4-2 3.4s-1.9 2.5-1.8 3.4c.2 1.3-.5 1.6-3.7 1.4-2.2-.2-5-.5-6.2-.8-2.1-.5-2.1-.5.6-3.4 1.4-1.5 4-5.5 5.6-8.7 1.7-3.3 3.1-5.7 3.3-5.3.2.4-.6 2.6-1.7 5zM352 52c-4.8 5.7-6 6.7-6 4.7 0-.7 1.1-2.3 2.5-3.5 1.4-1.2 2.5-3.1 2.5-4.2 0-1.5.7-2 2.6-2 2.6 0 2.6 0-1.6 5zm-9-1.3c-.1 1.8-3.8 5-6.3 5.5-2.4.5-2.8.2-2.5-1.6.2-1.5.9-2 2.4-1.8 1.2.1 2.7-.4 3.4-1.3 1.3-1.6 3-2 3-.8zm19.3 1.8c-.3.9-.8 1.4-1 1.1-.3-.3-.2-.9.2-1.5.9-1.6 1.5-1.3.8.4zM190 60c1.2.8.9 1-1.3 1-1.6 0-2.6-.4-2.2-1 .8-1.2 1.6-1.2 3.5 0zm148 1c0 .5-.4 1-1 1-.5 0-1-.5-1-1 0-.6.5-1 1-1 .6 0 1 .4 1 1zm19 1.5c0 .2-2 1.3-4.5 2.4-7.9 3.5-5.1 7 5.7 7.2 3.5 0 7.9.6 9.8 1.4l3.5 1.3-2.5 1c-1.4.5-4.5 1.3-7 1.7-2.5.4-5.4 1.3-6.5 1.9-1.1.7-3.2 1.6-4.7 2-1.9.4-2.8 1.3-2.8 2.6 0 2.7 1 3.1 9.7 3.1 5.2 0 8.7.6 10.7 1.7 1.7.9 4 2 5.1 2.4 2.6 1-1 .4-7.8-1.2-5.2-1.3-13.5 0-14.9 2.3-1.3 2.1 1.4 3.7 6.1 3.7 4.6 0 11.4 2.7 11.2 4.5 0 .6-2.9 1.1-6.3 1.3-8.8.4-11.4 3.9-5.3 7.2 2.4 1.3 4.3 4.9 4.3 8.5.1 3.4 2.3 11.5 3.2 11.5 1.1 0 5.6 7.8 6.4 11.2.3 1.6.5 2.8.3 2.8s-2.1-2.7-4.2-6.1c-5.4-8.8-13.3-17.9-15.4-17.9-3.7 0-4.6 2.7-2.8 7.8.9 2.6 2.8 9.6 4.2 15.7 1.5 6 3.4 13.9 4.2 17.5.9 3.6 2.9 8.9 4.4 11.9 1.6 3 2.7 5.6 2.5 5.8-.8.8-7.5-11.6-9.2-16.9-.9-2.9-2-6-2.4-6.9-.5-.8-.6-2.7-.3-4.2.3-1.6-.1-3.7-1.1-5.2-1.9-2.9-5.6-3.4-5.6-.7 0 1-.5 2.3-1.1 2.9-.9.9-.9 2-.1 4 .6 1.5 1.3 5.7 1.5 9.3.7 9.2 3.2 17 7.8 23.7 2.1 3.2 3.9 6.3 3.9 7 0 .6.3 1.3.8 1.5 1.6.7 7.2 8.7 10.5 15.2 4.1 8.2 3.9 11.7-.4 6.5-1.6-1.9-2.9-4.2-2.9-5.1 0-.9-.7-2.3-1.5-3.2-.8-.8-1.5-1.8-1.5-2.3 0-.9-8.2-14.1-13.4-21.6-2.1-3-3.2-3.8-5.3-3.5-5.8.7-5.1 5 3.2 17.8 3.1 4.8 15.9 19.5 22.3 25.6 3.2 3.1 8.9 16.1 9.5 21.6.3 2.7.3 4.8-.1 4.8s-3.8-5.8-7.5-12.9c-3.8-7-9.2-15.9-12.2-19.7-2.9-3.8-6.3-8.1-7.5-9.7-1.2-1.5-3.1-2.7-4.2-2.7-2.3 0-5.8 2.7-5.8 4.4 0 1.8 4.1 9 5.9 10.2.9.7 2.7 2.1 4.1 3.3 2.2 1.9 2.2 2.1.5 1.7-6.7-1.7-8 8.7-2.4 19.4 2.9 5.7 3.4 7.6 3.9 17.1.5 7.4 1.2 11.3 2.3 13 2.2 3 2.1 3.5-.3 3.5-2.1 0-2.9-1.7-5.1-11.6-1.3-6-7.4-24.5-8.9-27.2-1.6-2.8-4.8-15.7-6.1-24.7-1.3-9.4-.8-24.1 1.5-40.1.8-5.8 2-16.6 2.6-24 .6-7.4 1.5-16.7 2-20.5 2.1-15.9 2.2-25.1.5-41-.9-8.8-2.1-16.7-2.6-17.6-.6-1.2-.1-2 1.8-3 1.4-.8 3.3-1.3 4.2-1.2.9.2 3.6-.4 6.1-1.1 5-1.6 6-1.8 6-1.1zm-197.5 1.2c-1.1.3-2.6 1.4-3.3 2.4-1.6 2.4-7.4 2.7-6.6.4.7-1.6 5.5-3.3 9.4-3.3 2 0 2.1.1.5.5zM275 66c15.3 2.2 27.1 5.1 35.1 8.6 4.6 1.9 8.9 4 9.6 4.6 1.8 1.5 1.7 3.9-.2 3.2-2.5-1-6.5 2.3-6.5 5.4 0 1.6.5 3.3 1.1 3.9.6.6.8 1.6.4 2.3-.5.8-1.3.6-2.9-.8-8.3-7.7-24.5-10.6-59.6-10.6-27.3-.1-41.1 2-49.2 7.6-1.4 1-3.3 1.8-4.2 1.8-1.9 0-2.1-2.1-.5-3.7 1.7-1.7.3-5.8-2.6-7.3-2.1-1.1-2.8-1.2-3.4-.1-1 1.5-4.5-3.4-3.8-5.3.5-1.3 11-4.7 20.2-6.6 20-4.2 49.7-5.5 66.5-3zM154.6 83.1c-1.4 1.1-3.6 1.9-4.8 1.7-2.1-.4-1.9-.6 1.2-2 5-2.3 6.7-2.2 3.6.3zm5.4 4.4c0 1.5.7 2.6 2 3 1.1.3 2 1.1 2 1.6 0 1.2-2.7 1.1-3.5-.2-.4-.6-1.9-.7-3.6-.4-2.8.6-2.9.6-1.8-2.1 2.1-5.7 4.9-6.7 4.9-1.9zm11.2.7c-.9.9-1.2.7-1.2-1.2s.3-2.1 1.2-1.2c.9.9.9 1.5 0 2.4zm95.4-1.9c1.5 1.5.2 366.4-1.3 368.9-.9 1.6-2 .7-3.7-2.9-1-2.1-3.1-5.4-4.8-7.5l-2.9-3.8.2-21.2c.1-11.7.3-24.9.4-29.3.1-4.4.5-56.2.8-115 .8-121.9 1.6-188.5 2.4-189.8.5-.9 8-.4 8.9.6zm-26.6 1c0 .7-.6 2-1.2 2.9-1.1 1.4-2.1 1.5-7 .6-7.8-1.4-7.7-2.4.5-4.1 3.8-.8 7.7-.5 7.7.6zm12 1.4c.3 13.9-.9 238.9-1.4 263.3 0 4.1-.5 8.1-.9 8.8-.5.8-.4 1.9.4 2.8.9 1.1.9 1.8-.4 3.2-1.3 1.5-1.4 2.1-.4 3.1.9.9.9 1.4-.3 2.1-1.2.8-1.2 1.1.3 2.8 1.8 1.9 2.2 4.7.9 5.6-.4.2-.7 5.5-.6 11.8.1 6.2-.3 11.9-.8 12.5-.7.9-.6 1.8.2 2.8 1.1 1.3 1 1.8-.4 2.8-1.6 1.2-1.6 1.4-.2 2.6 2 1.7 2.1 6.1.2 6.1-2.3 0-3.1 2.2-1.3 3.5 2.2 1.6 2.2 3.7.1 3.3-2.5-.4-2.8 1.9-.5 3.2 1.2.6 2.1 1.5 2.1 2.1 0 .6-.4.8-.9.5-1.4-.9-4.1.5-4.1 2 0 .8 1 1.9 2.3 2.4 2 .8 1.9.9-1.2.9-3 .1-3.3.3-2.7 2.6.4 1.4.3 2.5-.1 2.4-2.3-.4-3.3.3-3.3 2.1 0 1.1-.5 2-1.1 2-.6 0-.9.9-.6 1.9.3 1.3-.1 2.1-1.5 2.4-1.8.5-1.9.2-1.4-2.6.6-3.6 1.3-22 2.1-52.7.3-11.3 1-34.5 1.5-51.5.5-17.1 1.2-44.7 1.5-61.5.3-16.8.7-40.4 1-52.5.2-12.1.7-37.1 1.1-55.5.3-18.4.7-36.9.9-41 .2-4.1.7-16.4 1.1-27.3l.7-19.7h3.8c3.6 0 3.9.2 3.9 2.7zm28.3-1.7c4 .6 8.3 1.3 9.6 1.6 2.4.5 2.4.5-.9 2.5-2 1.3-5.9 2.3-10.1 2.6l-6.9.6v-4.2c0-2.2.3-4.1.6-4.1s3.8.5 7.7 1zm-57.4 5c2.7 2.3 2.9 2.8 1.2 2.3-1.2-.3-2.4-.9-2.7-1.4-.3-.5-1.4-.9-2.5-.9-1 0-1.9-.7-1.9-1.5 0-2.3 2.1-1.7 5.9 1.5zm77.1 1.4c0 1.1-.8 4.1-1.7 6.6-1.1 3-1.7 7.7-1.7 14-.1 5.5-.5 9.6-1.1 9.7-.5.2-1.1-1.6-1.2-4-.1-5.2 1.5-26.1 2.3-28.1.8-2.1 3.4-.8 3.4 1.8zM146.5 92c-.3.5-1.1 1-1.6 1-.6 0-.7-.5-.4-1 .3-.6 1.1-1 1.6-1 .6 0 .7.4.4 1zm66.4 1.7c3.3 8.3 3.3 32.3 0 32.3-.7 0-.8-1.5-.3-4.3 1.3-7.4.7-24.2-1.1-27.6-.8-1.7-1.1-3.1-.6-3.1.5 0 1.4 1.2 2 2.7zM142 94c-2 1.3-3.3 1.3-2.5 0 .3-.6 1.4-1 2.3-1 1.5 0 1.5.2.2 1zm41.5.1c1.1 1.7-.1 2.1-1.5.4-.8-.9-.8-1.5-.2-1.5.6 0 1.4.5 1.7 1.1zm23.5 1.8c1.2 2.3 1.4 8.1.3 8.1-3-.1-5.8-5.3-4.3-8 1.3-2.5 2.6-2.5 4-.1zm103 4.4c0 2.3-5.2 7.7-7.5 7.7-.9 0-1.4-.5-1.2-1.3.3-.6 1.4-3.8 2.3-6.9l1.8-5.7 2.3 2.1c1.3 1.2 2.3 3 2.3 4.1zm-135.1-3.2c1.4.2 2.7 1 2.9 1.8.3 1 0 1.2-1.2.8-1.1-.5-2.6.2-4.3 2.1-1.8 1.9-2.4 2.1-2 .9.4-1 .7-3.3.7-5 0-1.8.4-2.7.8-2.1.4.7 1.8 1.4 3.1 1.5zm112 .3c-5.3 2-13.6 3-14.4 1.7-.6-1 3.2-1.6 7.6-1.2.8.1 2.6-.3 4-.8 1.3-.5 3.3-1 4.4-1 1.2 0 .6.6-1.6 1.3zM135 100.1c-1.2 1.6-2.5 2.8-2.8 2.5-.5-.6 3.6-5.6 4.5-5.6.3 0-.5 1.4-1.7 3.1zm95.3-.4c3.7 1.1 7.2 2.4 7.8 3 .7.7.8 2.7.4 5.3-.6 3.3-1 4-2.3 3.5-1-.4-4.8-1.3-8.6-2.1-3.8-.7-7-1.5-7.1-1.6-.1-.2-.5-2.7-.7-5.6-.6-6.1-1.7-5.8 10.5-2.5zM290 105c0 2.2.1 4.3.3 4.7.1.5-.9 1-2.3 1.1-1.4.2-2.9.8-3.5 1.3-.5.5-3.5.9-6.8.9h-5.8l.3-4.3c.3-3.9.5-4.2 3.8-4.9 1.9-.4 5.5-1.1 8-1.6s4.8-1 5.3-1.1c.4 0 .7 1.7.7 3.9zm-107.6 6c.4 2.9.3 3.8-.2 2.5-1.2-2.8-2.3-10.4-1.3-8.5.5.8 1.2 3.5 1.5 6zm183.6-1.3c0 1.7 1.4 4.6 3.5 7.2 3.7 4.6 4.4 6.1 2.1 4.2-4.2-3.5-9.2-14.1-6.7-14.1.6 0 1.1 1.2 1.1 2.7zm-230.5 9c-.9 1.5-1.3 1.9-1 .8.4-1.1.9-3.4 1.3-5 .5-2.5.7-2.7 1-.8.2 1.2-.4 3.4-1.3 5zm27.5-2.3c0 .3-1.4 1.5-3.2 2.7-2.9 2.1-3.1 1.4-.5-1.9.9-1.1 3.7-1.7 3.7-.8zm12.1.9c-.1 1.2-1.5.9-1.9-.4-.3-.6.1-1 .8-.8.6.3 1.1.8 1.1 1.2zm-4.2 5.2c-.7.7-1.3.5-1.9-.5-1.5-2.4-1.1-3.1 1-1.8 1.3.9 1.6 1.6.9 2.3zm-2.1 6.8c.2 1-.3 1.7-1.2 1.7-1 0-1.6-.9-1.6-2.1 0-2.4 2.3-2.1 2.8.4zm132 3.7c.6 5.7-.5 6.5-3.8 2.7s-3.6-4.7-1.9-6.4c2-2 5.4.1 5.7 3.7zm-149.2-3.1c-.6.8-6.6 2.1-6.6 1.4 0-.5 4.3-2.2 5.8-2.2.7-.1 1.1.3.8.8zm61.4.6c2.1 2.5 2.2 10.5.1 10.5-1 0-4.1-7.9-4.1-10.3 0-2.1 2.3-2.2 4-.2zm143 1.4c0 1 1 2.6 2.1 3.7 1.2 1 3.2 4.1 4.4 6.9 3.2 6.9 6.8 14.8 7.3 16 .3.5-.9-.3-2.6-1.9-1.7-1.5-4-5.1-5.3-8-1.2-2.8-2.6-5.4-3.1-5.7-.6-.4-1.8-3.6-2.8-7.3-1.1-3.7-1.5-6.4-.9-6.1.5.4.9 1.4.9 2.4zm-176.4 8.6c.9 2.8 1.1 5.1.6 6.6-.8 2-1.2 1.4-3-4.6-1.2-3.9-2.4-8.4-2.8-10l-.6-3 2.2 3.3c1.1 1.9 2.7 5.3 3.6 7.7zM173 145c0 .5-.5 1-1.1 1-.5 0-.7-.5-.4-1 .3-.6.8-1 1.1-1 .2 0 .4.4.4 1zm-33.9 7.3c-1.3 1.3-1.5-.1-.4-3 .7-1.7.8-1.7 1.1.1.2 1-.1 2.3-.7 2.9zm57.4 8.6c.9 3.5 1.4 6.5 1.2 6.7-.9.9-4.7-8.7-4.7-11.8 0-4.7 1.6-2.4 3.5 5.1zm-58.8-4.7c-.3.8-.6.5-.6-.6-.1-1.1.2-1.7.5-1.3.3.3.4 1.2.1 1.9zm34.8 9.1c-.7 2.8-3.5 5.8-3.5 3.8 0-2.2-2-1-2.7 1.6-.3 1.6-1.9 4.1-3.5 5.6-2.9 2.9-3.7 2.2-1.7-1.6 1.4-2.5 11.1-12.8 11.6-12.3.2.2.1 1.5-.2 2.9zm190.9-.7c.4 1 .1 1.4-.6 1.2-1.5-.5-2.3-2.8-1-2.8.5 0 1.3.7 1.6 1.6zm-180.9 4.2c.3 1.5 0 4.2-.7 5.9-1.3 3-1.3 3-1.4-2.8-.1-6.2 1-7.8 2.1-3.1zm187.9 3.9c.8 1.9.2 1.6-2.5-1.3-2.3-2.5-2.3-2.6-.2-1.3 1.3.7 2.5 1.9 2.7 2.6zM181 182.6c0 .8 1.1 2.5 2.5 3.8 2.2 2.1 2.3 2.6 1.4 6.2-.6 2.1-1.8 5.2-2.6 6.8l-1.5 3-1.2-3.5c-1.3-3.8-.9-19.2.5-18.3.5.3.9 1.2.9 2zm175 18.5l1.3 2.4-2.7-2.5c-1.5-1.3-3.2-3.4-3.9-4.6-.7-1.2-1.9-3.4-2.8-5-.9-1.6-2-4-2.4-5.4-.7-2.3 7.8 9.8 10.5 15.1zm-158.3-.8c.3 4.5.1 5.8-.6 4.6-.6-.9-1.3-4.5-1.6-8-.4-5-.3-6 .6-4.6.6 1.1 1.3 4.7 1.6 8zm-28.2-2.3c-1 1.1-2 1.8-2.3 1.5-.3-.3.3-1.4 1.3-2.5s2-1.8 2.3-1.5c.3.3-.3 1.4-1.3 2.5zm19.5-1c0 1.6-5.1 11.3-5.6 10.7-.7-.6 3.9-11.7 4.9-11.7.4 0 .7.5.7 1zm-24.1 14.9c-1.1 2.8-2.8 5.6-3.7 6.3-1.4 1.2-1.5.9-.8-2.2.7-4 5.7-12.1 6.3-10.3.2.6-.6 3.4-1.8 6.2zm186.6 2.3l5 5.1-4.3-3.2c-3.5-2.7-7.2-7.1-5.9-7.1.1 0 2.5 2.3 5.2 5.2zm7.6 9.5c1.3 1.6 1.2 1.7-.3.4-1.7-1.3-2.2-2.1-1.4-2.1.2 0 1 .8 1.7 1.7zm-181.7 7.1c1.3 2.6 3 10.9 2 9.9-.3-.2-1.6-3.5-2.9-7.1-2.4-6.5-1.8-8.2.9-2.8zM356 236c0 .8.7 2.4 1.5 3.4 1.7 2.3 2 5 .5 4.1-1.5-.9-6-10.1-6-12.2 0-1.5.4-1.4 2 .7 1.1 1.4 2 3.2 2 4zm-184.5 4.5c.2 1.4-.1 2.5-.6 2.5s-.9-1.4-.9-3.2c0-3.6 1.1-3.1 1.5.7zM370.2 253c2.4 7.2 2.9 15.4 1 18.5-1.1 1.8-1.2 1.7-.6-.8.4-1.6 0-4.5-1-7-1.5-4.1-6.6-23-6.6-24.5.1-1.8 5.2 8 7.2 13.8zm-209.7 1.4c-.8 5.1-3.4 9.7-3.5 6.1 0-2.2 3.2-11.7 3.8-11.1.2.2 0 2.5-.3 5zm9.8 8.9c.2 3.7 0 7-.5 7.3-.4.3-.8-.1-.8-.8 0-.7-.3-5.6-.5-10.8-.3-6.8-.2-8.5.5-6 .5 1.9 1 6.6 1.3 10.3zm8.6-6.8c-.1 3.5-.2 3.7-.9 1.5-.4-1.4-.8-3.9-.9-5.5 0-2.3.2-2.6.9-1.5.5.8.9 3.3.9 5.5zm180.8 8.9c.2 5.5.1 6.6-.7 4.8-.5-1.3-.7-2.8-.4-3.3.3-.6.1-1.5-.4-2.2-.5-.7-.9-3.1-.9-5.4.2-6.7 1.9-2.2 2.4 6.1zm5 6.8c-.2 1.3-.4.3-.4-2.2s.2-3.5.4-2.3c.2 1.3.2 3.3 0 4.5zm-3.6 11c2.5 4.9 4.3 17.8 2.9 21.1-.8 2-.9 1.9-.9-.9-.1-1.7-1.2-6.6-2.6-10.8-2.3-6.9-3.3-13.6-2-13.6.2 0 1.4 1.9 2.6 4.2zm-191.3 9.5l-.4 2.8-1.3-3c-.7-1.7-1.5-4.4-1.8-6l-.5-3 2.2 3.2c1.3 2 2 4.3 1.8 6zm185.6 1c.6 5.2.3 7.1-1.4 10.9-1.1 2.6-2 5.7-2 7 0 1.2-.6 2.9-1.4 3.7-1.6 1.6-2.4 6.6-1.3 8.4.5.7.4 2.1-.1 3-.5 1-1.5 4.9-2.2 8.8-2.3 13.7-3.1 13.5-5-1.1-1.2-9.1-1.1-10.6.5-15.5 1-3 2.6-6.6 3.7-8.1 4.1-5.9 6.8-13.7 6.8-20.1.1-7.6 1.5-5.8 2.4 3zM74.8 353.2c3.2 3.1 3 7.4-.5 8.3-6.4 1.6-7.1 5.7-1.8 10.4 4.4 3.8 2.2 4.2-3.5.6-3.5-2.2-5.3-5.2-5.5-9 0-1.8-3.3-1.6-3.9.2-1.4 4.5 3.1 12.5 8.7 15.5 4.6 2.4.6 2.3-4.1-.1-7.4-3.8-10.2-8-10.2-15.2 0-3 .6-4.4 2.7-6.2 1.5-1.2 3.7-3.2 5-4.4 4-3.8 9-3.8 13.1-.1zm43.6 19.3c3 2 6.6 10.2 6.6 15.1 0 4.5-3.2 9.9-7 11.9-4.7 2.4-5.4 1.7-1.7-1.8 3.4-3.1 5.7-8.7 5.7-13.5 0-3.1-1.6-6-5.3-10-3.2-3.4-2.3-4.3 1.7-1.7zm-21.5 27c2.8 1.4 8 5.4 11.4 8.8 5 4.9 7 7.8 9.5 13.9 4.4 10.7 4 13-.7 3.3-5.4-11.4-14.4-19.5-21.6-19.5-4.1 0-3.7 1.7 1 4 4.5 2.2 11.5 9.2 14.1 14.2 2.2 4.3 5.5 22.6 4.8 26.7-.4 2-1.7 5.6-3 8.1-1.6 2.9-2 4.8-1.4 5.4 1.3 1.3 3.1-.6 6.5-6.9 2.6-4.8 2.7-4.8 2.1-1.5-.3 1.9-2 5.4-3.6 7.8-1.7 2.3-3 4.6-3 5.1 0 1.4 3.1 3.5 5.3 3.6 1.2.1 3.4.2 4.8.3 3.6.3 10.5 5.9 13 10.7 3.2 5.8 2.4 16.8-1.4 21.8-2.8 3.7-5.5 4.8-6.1 2.4-3.3-11.5-6.4-15.3-14.8-18-6.1-1.9-10.6-2.1-15.8-.8-1.9.5-4.7 1.2-6.2 1.5-3.5.8-12.5 8.3-28 23.2-3.1 3-6.8 2.7-11.3-.8-5.1-4-7.3-15.5-4.1-21.7 3.1-6 13.7-13.6 20.3-14.7 5.1-.8 12.3 2.3 15.5 6.7 2.5 3.3 4.8 3.8 4.8.9 0-2.7-5.6-8.8-9.9-10.6-5.1-2.2-17.8-3-22.6-1.4-4.7 1.6-13.3 9.3-15.1 13.7-1.6 3.8-1.9 11.9-.4 12.8.6.3 1 2.3 1 4.3 0 7.5 7.8 15 16.5 16l4.5.5-.4 6.1c-.4 5.7-.6 6.1-2.8 5.8-3.4-.4-16.5 2.5-20.2 4.6-1.7.9-6.4 4.3-10.3 7.4-4 3.2-7.9 5.8-8.6 5.8-.7 0-3.6-1.6-6.6-3.5-2.9-1.9-5.7-3.5-6.2-3.5-2.2 0-4.9-8.5-4.9-15.4 0-4.5.4-6.6.9-5.7.5.8 1.9 1.2 3.5.9 2.4-.5 2.6-.2 2.6 2.8 0 6.8 6.8 17.2 10.3 15.8 2.1-.8 2.2-2.4.2-5-2.8-3.7-1.5-3.8 1.6-.1 2.1 2.6 3.8 3.7 5.2 3.5 3.2-.5 3.1-2.3-.4-6.2-1.7-2-3.2-4.6-3.3-5.8-.1-2.9-2.1-3.3-4.5-.9l-2 2-.7-3.5c-.9-4.6.2-12.2 2.1-15.1 3-4.5-1-6-4.4-1.7-1.7 2.2-2.1 2.3-2.1.8 0-5 8.8-12.4 14.8-12.4 3.7 0 6.2-.9 6.2-2.2 0-.5 1-1.8 2.2-2.8 2.2-1.7 2.2-1.7.3-4.6-2.4-3.5-5.3-11.9-5.4-15.4-.1-3.1 4-12 6.5-14.1 1-.9 3.5-2.4 5.4-3.3 3.3-1.6 3.6-1.6 6.1.3 4.3 3.2 9.9 5.1 15 5.1 6.3 0 7.1-1.6 1.3-2.5-5.3-.8-13.5-4.7-16.5-7.8-1.1-1.2-3.2-4.4-4.6-7.1-2.3-4.5-2.5-5.9-2.1-13.5.5-9.8 1.6-12.4 8.2-19.8 7.6-8.5 19-12.5 33.8-11.8 6.8.3 9.7.9 13.7 3zm24.8 44.2c-.2 1.6-.4.3-.4-2.7s.2-4.3.4-2.8c.2 1.6.2 4 0 5.5zm133.2 6.2c2.3 5.9 1 7-6.6 5l-4.2-1.1 2.5-3.8c2-2.9 3-3.6 4.9-3.3 1.4.3 2.8 1.6 3.4 3.2zm17.4 11c.5.5.6 1.5.2 2.1-.6.9-5.9 1.1-21.9.5-11.6-.4-21.4-.9-21.8-1.2-.5-.2-.8-1.1-.8-1.9 0-1.3 3-1.4 21.7-.9 11.9.3 22.1.9 22.6 1.4zm-17.8 6.6c21.1.5 19.9-.3 22.3 15.5.5 3.6 1.1 7.2 1.3 8 .3 1.2-1.4 1.4-10.6 1.2-20.4-.4-29.7-1.3-29.1-2.8.6-1.5-2.1-3.3-5-3.3-1 .1-3.2-.4-4.9-1-2.8-.9-2.7-1 1.8-.9 5.8.2 8.3-1.6 4.3-3.2-1.5-.5-4.4-1.1-6.4-1.1-2-.1-.1-.6 4.3-1.1 8.7-1 9.4-1.3 7.7-3-.7-.7-4-1.2-8.2-1.1-5.4.1-7-.2-7-1.3s1.8-1.4 7.9-1.4c4.6 0 8.3-.5 8.6-1.1 1.1-1.7-.1-2.2-6.1-2.7-3.7-.3-5.1-.8-4.2-1.3.7-.5 2.4-.7 3.8-.4 1.4.3 10.2.7 19.5 1zM31.4 489.7c.4.4-2 1.3-5.3 1.9C16 493.7 8 500.4 4.9 509.2l-1.8 5.3v-6l-.1-5.9 5.8-5.7c6.1-5.9 10-7.6 17.8-7.8 2.2-.1 4.4.2 4.8.6zm135.6 2.1c7 1.6 36.4 3.1 73 3.8 18.4.3 36 .7 39 .8 17.5.8 53.1-2.2 64.7-5.6 2.3-.7 4.5-.9 4.8-.6.3.3.8 2.3 1.2 4.4.5 3.7.5 3.8-1.1 1.9l-1.6-2-1.6 2c-.8 1.1-1.4 3.2-1.1 4.7.3 2.2.1 2.5-1 1.6-.8-.7-1.7-.7-2.2-.2-1.3 1.4-2.4 14.1-1.3 14.8 1.2.7 2.8-1.1 3.5-3.9.4-1.6.5-1.4.6.7.2 4.7 3.2 4.3 4.4-.7.2-1.1.5.6.6 3.7 0 3.2-.2 5.8-.5 5.8s-2.9-.7-5.7-1.5c-5.3-1.5-26.9-5-36.7-6-49.2-4.7-104.7-2.5-139.9 5.5-7.4 1.7-14 2.9-14.7 2.6-2.1-.8-1.7-2.8.5-2.1 1 .3 2.3-.1 3-.9.7-.8 1.9-1.2 2.6-1 1.7.7 3.5-2.5 3.6-6.8.2-3 .2-3.1.6-.6.9 5.9 4.9 2.3 4.8-4.2 0-3-.3-3.5-2.2-3.4-1.7 0-2.3-.5-2.3-2.2 0-2.9-1.6-3.9-3.5-2.4-1.3 1.1-1.5.7-1.5-2.3 0-4-1.4-5.5-3.5-3.7-1.3 1-1.5.8-1.5-1.5 0-2.6.1-2.7 5.3-2.2 2.8.3 7.2.9 9.7 1.5zm66.7-1.2c-.3.3-1.2.4-1.9.1-.8-.3-.5-.6.6-.6 1.1-.1 1.7.2 1.3.5zM106.5 495c.4.6-1.1 1-3.7 1-5.6 0-13.2 3.7-13.6 6.6-.4 2.6 2.8 4.2 4.3 2.1 1.6-2.2 7.1-4.7 10.5-4.7 3.7 0 10 4.4 10 7 0 2.9 2.5 4.3 4.4 2.5.9-.9 1.6-2.3 1.6-3.1 0-1.7-5-6.6-9.5-9.5-3.8-2.4-1.2-2.6 4.6-.3 6.3 2.6 10.9 11.8 10.9 22.2 0 4.9-.7 5.6-3.6 3.3-5.8-4.5-14.6-3-18.3 3-2.9 4.7-1.2 10.9 3 10.9 2.3 0 3.5-1.8 2-3.3-1.5-1.5-1.4-5 .1-6.5 2.1-2.1 8.2-1.4 10.7 1.2 2.3 2.4 2.6 5 1.9 13.7-.8 9.1-6.6 14.5-18.2 16.9-6.8 1.4-7.4 1-8.7-5.1-1.8-8.1-12.8-16.7-23.6-18.4-4.1-.6-4.3-.8-4.5-4.3-.2-5.9.2-8.5 2.2-12.7l1.9-4-.1 3.5c-.2 4.5 1 8.2 2.5 7.7.7-.2 1.5-2.7 2-5.6.4-3 1.4-6.8 2.3-8.6 1.7-3.6 11.4-13.9 12.2-13 .3.3 1.5-.1 2.7-.9 3.6-2.4 12.9-3.4 14-1.6zm238.2 13.2c-.3.7-.5.2-.5-1.2s.2-1.9.5-1.3c.2.7.2 1.9 0 2.5zm-193 3c-.3.8-.6.5-.6-.6-.1-1.1.2-1.7.5-1.3.3.3.4 1.2.1 1.9zm-17.6 4.8c2.6 1.5 4.9 6.2 4.9 10.4 0 3.7-3.5 8-7.5 9.2-1.1.4-2.8 1.3-3.8 2.2-1.7 1.5-1.8 1.4-1.1-2.9.8-5.3 1.7-6.4 5.2-6.4 5.3 0 5.6-8.5.3-9.3-1.3-.2-2.1-1.1-2.1-2.3 0-2.1 1.2-2.4 4.1-.9zm135.5 5.1c-.3 1.7-.6 4.9-.6 7 0 3.8-.1 3.9-3.7 3.9-3.4 0-3.5-.1-1.7-1.4 1.8-1.4 1.8-1.5-.9-2.5-1.6-.6-6.2-1-10.3-.8-10.7.3-9.1-1 2.1-1.8 7.1-.6 9.5-1.1 9.5-2.1 0-.8-.7-1.4-1.5-1.4-2.9 0 1.8-3.8 4.9-3.9 2.7-.1 2.8.1 2.2 3zm14.7.1c4.2 4.2 6.9 8.6 6.2 9.8-.3.6-4.2 1-8.6 1-9.2 0-9.5-.2-8.4-8.5.6-5.5.7-5.5 4.1-5.5 2.6 0 4.3.8 6.7 3.2zm-43.3.4c0 .2-.9.4-2 .4s-2-.4-2-.9.9-.7 2-.4c1.1.3 2 .7 2 .9zm-1.3 10c-.3.3-1.2.4-1.9.1-.8-.3-.5-.6.6-.6 1.1-.1 1.7.2 1.3.5zm17.1.1c-2.1.2-5.5.2-7.5 0-2.1-.2-.4-.4 3.7-.4 4.1 0 5.8.2 3.8.4zm-203.1 4.9c-.3.3-1.2.4-1.9.1-.8-.3-.5-.6.6-.6 1.1-.1 1.7.2 1.3.5zm93.3 2.1c5.5 3.1 8.2 6.9 8.3 11.9.1 4.3-2.5 7-7.6 7.9l-3.7.7 1-2.8c3.1-7.9-4.8-14.6-11.1-9.5-1.8 1.5-2.1 2.2-1.3 3.1.9.9 1.7.9 3.4 0 4.1-2.2 6.9 3 3.4 6.5-3.5 3.5-11.6-1.2-11.2-6.5.1-1.4-.1-3.1-.5-3.7-1.4-2.2 1.3-5.4 6.6-7.9 6.5-3 6.9-3 12.7.3zm-80 .8c.7.8 2.3 1.5 3.5 1.5 2.8 0 7.4 3.5 8.5 6.6 1.1 2.8 2.3 3 4.3.9 1.3-1.2 1.7-1.2 2.9.3 3 3.4 5.1 13.2 2.9 13.2-1.5 0-3.6 11.3-2.2 11.8 2 .7 1.1 3.5-2.9 8.8-2.8 3.8-5.2 5.7-8.5 6.9-8.6 3.4-19.2.3-23.9-7-1.1-1.7-1.4-3.7-.9-7 .8-6.2 3.5-9.5 7.8-9.5 4 0 4.4.5 3.8 4.6-.3 2.1-1.3 3.5-2.9 4.3-4.4 2-1.9 5 3.1 3.7 4.4-1.1 7-7.9 5-13.1-.7-1.9-.7-1.9 1-.4 2.5 2.4 2.3 8.3-.3 11.9-2 2.7-2.1 3.1-.7 3.6 1.1.4 2.9-.5 5.1-2.7 4-3.9 4.5-8.5 1.4-13.7-1.1-1.8-2-3.9-2-4.7 0-2.1-5.3-4.5-9.8-4.5-6 0-13.5 2.7-16.6 5.9-2.8 2.9-2.8 5.8 0 4.7.8-.3 1.4.1 1.4.9s-.4 1.5-1 1.5c-2.2 0-2.9 3.8-1.9 9.8 1.4 8 3.7 11.3 10.2 15 5.9 3.3 8.8 3.8 14.9 2.7l3.7-.7-2.6 7.3c-2.3 6.3-2.7 9.1-2.7 18.9-.1 16.6 3.2 24.7 15 36.4 3.5 3.4 6.4 6.9 6.4 7.8 0 .8-1.8 3.6-4.1 6.1-4.9 5.6-10.7 7.7-21.4 7.7-5.8 0-8.5-.6-13.7-2.9-6-2.8-14.8-9.9-14.8-12.1 0-1.6 1.1-1.2 5.4 2.3 9.2 7.3 16.1 9.8 24.1 8.7 7.8-1.1 15.5-5.4 15.5-8.6 0-2.6-2-2.3-5.6.8-3.3 3-4.2 3.2-10.4 3.2-5.7-.1-7.6-.6-12.4-3.4-6.1-3.4-9.9-6.9-12.1-11-2-3.8-2.9-11.4-1.6-13.9 1-1.7.9-2.2-.5-2.8-2.2-.8-4.7.8-5.8 4-.7 1.9-.4 4.9 1.1 10.9 1.4 5.3 1.7 7.7.9 6.5-3.9-5.2-4.5-21.7-1-27.6 2-3.4 3.3-3.4 11.4.2 6.2 2.8 18.4 3.5 20.9 1.3 2.5-2.3 1.7-7.6-1.3-7.6-2.4 0-8.3-3.7-15-9.3-3.3-2.9-4.9-3.6-6.1-3-1.4.8-1 1.8 3 6.6 2.5 3.1 4.2 5.7 3.6 5.7-.5 0-3.5-2.4-6.7-5.2-6.2-5.7-10.4-13.2-10.4-18.5 0-4.1-1.4-4.9-4-2.3-1.1 1.1-2 1.7-2.1 1.2-.7-8.1-.7-15.3.1-18.6 1-4.8 0-6.6-2.6-4.5-1.6 1.3-1.7 1.2-1.1-.5.4-1.1 1.2-3.9 1.8-6.4 1.3-6.1 2.4-7.9 7.7-13.4 4.8-5 5.1-6.3.9-5.3-3.6.9-8.4 6.1-11.7 12.5-3.5 6.7-3.9 6-.6-1.3 1.2-2.9 3.6-6.5 5.2-7.9 11.3-10.5 18.7-14.7 27-15.5 3.6-.4 5.4-1 5.4-1.9 0-2 7.4-1.8 9 .1zm60.3 19.2l2 2.3h-16.6l4.6-3.1c2.6-1.7 5-3.6 5.3-4.1.4-.6 1.1-.3 1.7.8.5 1.1 1.9 2.9 3 4.1zm-62.4 1.7c1 1.1.4 1.3-3.2.9-2.3-.3-5.9-.1-8 .5-4.6 1.3-4.8.6-.4-1.3 4.1-1.8 10.1-1.9 11.6-.1zM21 584.6c-.6 1.4-1 4.2-1 6.1 0 2-.3 3.4-.6 3.1-1-1.1-.6-8.8.6-10.3 1.8-2.2 2.1-1.9 1 1.1zm-9 2.5c0 1.1-.9 2.8-2.1 3.8-6.9 5.6-4.5 19.8 4.4 26.5 2.5 1.9 2.8 1.9 4.4.4 1.5-1.5 1.3-2-1.9-5.8-3.8-4.3-5.8-12.4-4-15.7 1.1-1.8 1-1.9 3.2 6.4 1 4.1 8.1 15.5 12.8 20.5l2.5 2.7-2.4 3c-1.3 1.6-3.1 3-3.9 3-2.6.1-12.8-5.6-15.4-8.6-4.1-4.6-6.6-12.7-6.6-21.2 0-6.3 1.8-12.1 4.7-15.3 2.2-2.4 4.3-2.3 4.3.3zm72 7.6c-1 2.7-2.1 7.8-2.5 11.5-.5 5.5-.9 6.6-2.2 6.1-2.4-.9-4.3 2.5-4.3 7.6 0 5.5 1.1 7.4 3.6 6.9 1.4-.2 2.1-1.5 2.4-4.3l.6-4 .8 4.5c1.1 5.8 2.9 9.3 7.9 15.3 5.8 7 9.2 8.3 23.7 9.2 9.1.5 11.4 1.6 12.9 6.2 1 3 1 4.8.1 8.2-.9 3.6-1.8 4.5-5.3 6.2-5.8 2.6-8.2 2.4-2.9-.2 2.4-1.2 4.9-3.4 5.8-5 1.3-2.7 1.3-3.3-.4-7.2-2.4-5.4-4.6-7.1-8.9-7-4.3.1-8.4 3.6-6.5 5.5.9.9 1.7.8 3.8-.2 3.7-2 7.9.4 7.9 4.5 0 3.4-5.1 7.5-9.4 7.5-6-.1-23.3-9.6-25.7-14.2-.5-.9-2.2-3.2-3.7-5.1-3.2-4.1-6.5-12.8-7.8-20.9-1.6-10.2 2.7-30.3 7.4-34 3.9-3.1 4.7-2.2 2.7 2.9zm-53.6 20.8c.4 1.1-.5-.3-1.9-3-1.3-2.8-2.5-5.9-2.5-7 .1-1.7 2.4 3.5 4.4 10zm224 36.1c.9.3 1.6 1.6 1.6 2.8 0 1.9-.6 2.1-6.5 2.4-4.3.2-6.5-.1-6.5-.9 0-.7.9-.9 2.5-.5 2.7.7 6.5-.8 6.5-2.4 0-.6-2.1-1-4.6-1-2.8 0-4.3-.4-3.9-1 .6-1 7.7-.6 10.9.6zm-.1 11.6c4.1 2.1 6.2 13.3 3 15.9-4.2 3.5-7.1 4.3-10 2.9l-2.8-1.3 3.8-.7c7.1-1.3 6.1-3.4-2-4.5-4.1-.5-5.3-.4-5.3.7-.1.7-.8.1-1.6-1.5-1.6-3-2.4-3.3-4.3-1.5-2.9 2.8.2-5.8 3.2-9 3.1-3.2 3.4-3.3 8.7-2.6 3 .4 6.3 1.1 7.3 1.6zM93 671.5c0 .7.6 1.8 1.3 2.2.6.4 2.3 2 3.6 3.6 1.8 2 2.2 3 1.4 3.8-.9.9-2.1.6-4.7-1-3.8-2.4-5.1-4.9-4.1-8.1.7-2.3 2.5-2.7 2.5-.5zm149 11.9c4.8 2.7 4.9 3.4.3 1.4-3.4-1.4-8.3-5.8-8.3-7.2 0-.6.8-.1 1.8 1.1.9 1.2 3.7 3.3 6.2 4.7z"/><path d="M256.3 68c-.6 2.2-1.8 2.6-2.8 1-1.2-1.9-3.5-1-4.6 1.6-1.5 4 1.1 7.4 5.6 7.4 4.4 0 7-3.4 6-7.9-.8-3.6-3.5-5-4.2-2.1zM215 71.5c-1.5 1.8-1.6 6.3-.2 7.7.5.5 2.8 1.2 4.9 1.5 3.4.4 4.3.2 5.6-1.7 2-2.9.8-7.5-2.1-7.5-1.1 0-2.4-.4-2.8-.8-1.2-1.2-4.1-.8-5.4.8zM285.8 71.1c-2.1 1.2-2.4 6.9-.6 8.7 1.9 1.9 8.2 1.5 10.2-.7 2.4-2.6 1.3-6.1-1.8-6.1-1.3 0-2.9-.7-3.6-1.5-1.5-1.7-1.9-1.8-4.2-.4zM74 402.4c-2 2-.8 2.6 5.4 2.6 6.4 0 9.2-1.4 6.5-3.1-1.8-1.1-10.7-.7-11.9.5zM58 406c-2 1.5-2.2 2.1-1.3 3.1 1 1 1.8.8 3.8-1.1 1.3-1.2 2.2-2.7 1.9-3.1-.8-1.3-1.6-1.1-4.4 1.1zM47.6 416c-5.5 6.6-6.6 19.9-2.3 27.2 3.2 5.5 7.9 9 11.5 8.6 2.9-.3 4.6-3.8 1.8-3.8-3 0-8.3-6.4-10-11.9-1.4-4.9-1.4-5.9 0-11.4.8-3.3 2.2-6.9 3-8.2 1.3-2 1-3.5-.7-3.5-.4 0-1.9 1.4-3.3 3z"/><path d="M63 415.8c-7.3 3.9-10.6 12.9-7.3 19.8 3.6 7.6 12.1 10.5 18.8 6.4 3.6-2.2 4.8-4.2 3.9-6.5-.9-2.4-3.2-1.8-4.6 1.2-1.2 2.4-1.9 2.8-5.8 2.8s-4.7-.4-6.7-3.4c-4.4-6.5-1.7-15.4 5.2-16.7 7.4-1.4 13.5 1 17.9 7 3.2 4.3 2.9 15.7-.6 21.1-1.4 2.2-3.3 4.6-4.2 5.4-.9.7-1.6 1.7-1.6 2.2 0 2 2.9.7 6.3-2.7 8.3-8.4 8.6-24.7.5-32-6-5.5-16.1-7.6-21.8-4.6z"/><path d="M65.5 425.5c-1.4 1.3-2.5 3.1-2.5 4 0 2.8 3.1 6.5 5.6 6.5 3 0 4.2-2 2.1-3.5s-2.2-4.9-.2-6.5c.8-.7 1.2-1.6.9-2.1-1-1.6-3.4-1-5.9 1.6zM103.6 429.9c-.6.9 1.9 11.3 3.4 14.1 1.8 3.3 1 10.3-2 18-3.2 8-3.6 10-2 10 2.3 0 4.7-2.4 4.2-4.2-.2-1 0-2.4.5-3.1 2.1-2.7 4.6-11.3 4.6-15.6.1-6.4-1.7-14.5-3.7-17.5-1.6-2.6-4-3.4-5-1.7zM74.2 456.6c.4 2.1 2.2 2.3 2.6.1.2-1-.3-1.7-1.3-1.7s-1.5.6-1.3 1.6zM40.5 459.2c-6.7 5.8-9.3 14.2-6.6 21 1.1 3 4.5 3.8 5.4 1.5.3-.8 0-3.2-.6-5.4-1.3-5.2 1.2-12.5 5.1-15.1 4.5-2.8 5.5-5.2 2.2-5.2-1 0-3.5 1.4-5.5 3.2z"/><path d="M44.4 464.4c-4.4 4.3-6.1 9.6-3.1 9.6 1.8 0 3.7-2.1 3.7-4.1 0-.9 1.6-3 3.7-4.6 2.1-1.8 3.3-3.4 2.9-4.1-1.2-2-2.7-1.4-7.2 3.2zM52.8 465.1c-2 1.1-2.4 3.9-.7 3.9 2 0 4.9-2.1 4.9-3.5 0-1.7-1.7-1.9-4.2-.4zM119.7 475.7c-1.3 1.3-.7 2.3 2.6 3.9 4 2 7.6 6.2 7.7 8.9.1 4 1.3 6.5 3 6.5 3.6 0 4.1-6.6.9-11.7-3.5-5.7-11.8-10.1-14.2-7.6zM60.5 481.4c-1.6.8-4.8 3.2-7 5.5-3.9 4.1-4 4.4-4 11.2 0 6.7.2 7.2 3.3 10 5.6 5 10.1 2.6 5.1-2.7-2.9-3.1-3.6-10.1-1.5-14.2.9-1.8 3.5-4.4 5.7-5.9 5.6-3.7 4.4-6.6-1.6-3.9z"/><path d="M120.7 483.6c-.3.4.6 2.1 2.1 4 2 2.5 2.9 3 3.9 2.2 1.6-1.3 1.7-4 .1-5.6-1.3-1.3-5-1.6-6.1-.6zM59.2 494.2c-2.4 2.4-1.1 7.8 1.8 7.8 2 0 3-2.1 2.7-6-.2-2.7-2.6-3.7-4.5-1.8zM25.7 498.7c-1.4 1.3-.6 2.4 1.5 2.1 2.7-.4 3.6-2.8 1.1-2.8-1.1 0-2.3.3-2.6.7zM5.2 531.2c-.9.9-.6 2 1 5 2.9 5.1 6 7.1 8.3 5.4 1.6-1.2 1.5-1.6-2-6.4-3.8-5.3-5.2-6.1-7.3-4zM18.4 544.1c-.8 1.3 1.5 3 3.6 2.6.8-.1 1.6-1 1.8-2 .3-1.2-.3-1.7-2.2-1.7-1.4 0-2.8.5-3.2 1.1zM335.2 505.3c-.6.6-1.2 2.3-1.5 3.7-.4 2.1-.4 2-.6-.8-.1-3.5-1.1-4.1-3.1-1.7-.7.8-2 1.5-3 1.5-2.2 0-3.5 2.9-2 4.4.8.8 1.5.6 2.6-.8 1.4-1.9 1.4-1.9 1.4.2 0 2.4 1.9 2.9 3.8 1 .9-.9 1.2-.7 1.2 1 0 2.5 2.5 3 3.4.6.9-2.4.7-9.2-.3-9.8-.5-.3-1.3 0-1.9.7zM169 509.4c-1.4 1.8-.6 5 1.3 4.4 1.5-.6 2.2-3.7 1-4.9-.6-.6-1.5-.4-2.3.5zM175 509.5c-1 1.1-1 1.9-.2 2.7 1.5 1.5 4.4.2 4-1.9-.4-2.3-2.2-2.7-3.8-.8zM319.4 509.1c-.3.6-.2 1.5.4 2.1 1.3 1.3 3.2.2 3.2-1.8 0-1.6-2.6-1.9-3.6-.3zM112 529.3c0 1.4 5.2 5.7 7 5.7 1.8 0 1.1-4.9-.9-6-2.7-1.4-6.1-1.3-6.1.3zM116.3 537.7c-.7.2-1.3 1.6-1.3 3 0 1.5-1.1 4.1-2.5 5.9-1.4 1.8-2.5 3.7-2.5 4.3 0 2.2 3.9 1 6.9-2.1 2.7-2.7 3.1-3.9 2.9-7.2-.3-3.9-1.2-4.9-3.5-3.9zM136.8 540.1c-4.1 2.4-1 5.2 3.2 2.9 2.2-1.2 9 2.3 9 4.6 0 .8.9 1.4 2 1.4 1.2 0 2-.7 2-1.8-.1-5.7-10.7-10.4-16.2-7.1zM48.4 656.5c-.8 2 0 3 4.9 6.3 7.1 4.9 17.1 5 22.9.3 3.7-3.1 1.1-4.6-3.7-2.1-2.2 1.1-5.2 2-6.7 2-2.9 0-9-3-12.4-6.1-2.4-2.3-4.3-2.4-5-.4zM77.5 630c-1.8 2.9 12.3 24 16 24 .7 0 2.6.7 4.1 1.5 3.6 1.9 7.4 1.9 7.4.1 0-.8-1.1-1.7-2.5-2-3.4-.9-9.6-5.2-12.1-8.4-2.2-2.8-5.4-8.8-7.3-13.5-1.1-2.7-4.3-3.7-5.6-1.7zM98 325.6c-1.1 1.2-.9 2 .8 4.4 1.2 1.6 2.2 3.9 2.2 5.2 0 3 1.5 5.2 2.9 4.4 1.7-1.1 1.3-6.3-.9-10.6-2.4-4.7-3.4-5.4-5-3.4zM12.3 350.7c-2.9.6-7.5 6-7.1 8.5.4 2.8 2.1 2.4 3.9-.8 1.2-2.3 2.4-3 5.3-3.2 2.4-.2 4.4.2 5.5 1.2 1.9 1.8 3.1 1.2 3.1-1.4 0-3.9-4.2-5.6-10.7-4.3zM176.5 357.7c-1.2 2.9-1.4 11.5-.4 15.5.5 2.1 2.7 5.6 4.8 7.8 3.3 3.5 4.3 4 8.4 4 3.7 0 4.9.5 6.6 2.6 1.6 2.1 2.6 2.5 4.9 1.9 2.4-.5 3-1.3 3.9-5.2 1.8-7.9-2.2-16.6-9-19.4-3.3-1.4-3.7-1.5-7.4-1.7-1.3-.1-2.9-1.6-4.2-3.7-2.3-3.9-6.3-4.8-7.6-1.8zm12.9 9.3c4.8 0 11.6 7.9 11.6 13.5 0 2.9-.7 3.1-3.4 1-1.1-.8-3.7-1.5-5.7-1.5-6 0-8.5-1.4-10.3-5.9-1.6-4.3-2.1-8.3-1-9.4.4-.3 1.9 0 3.5.8 1.5.8 3.9 1.5 5.3 1.5zM305 362.9c-.5 1.1-1 5.3-1 9.4 0 6 .4 8 2.3 10.8 3 4.5 8.3 7.9 12.2 7.9 4.2 0 9.2 1.8 9.9 3.6.8 2.2 3 1.7 6.1-1.6 2.5-2.6 2.7-3.4 2.2-7.9-.7-6.1-2.8-10.3-5.9-11.8-5.5-2.8-15.4-6.5-17.2-6.5-1.1.1-2.2-1-2.9-2.9-1.3-3.3-4.1-3.8-5.7-1zm7.5 6.1c.9 1.5 8.5 5.2 11.9 5.9 3.6.8 6.6 4.7 7.5 9.8 1.1 5.6.4 6.7-2.6 4.3-1.5-1.2-4.1-2-6.3-2-6 0-9.9-1.9-12.6-6.1-2.2-3.6-2.3-4.3-1.3-8.4 1.1-4.4 2.2-5.5 3.4-3.5zM31 376c-4.2.9-11 4.9-11 6.5 0 2 .9 1.9 6.3-.5 3.6-1.6 5.7-1.9 10.6-1.4 5.2.6 6.1.4 6.1-.9 0-.9-.4-1.8-.8-2.1-1.9-1.1-8.8-2.2-11.2-1.6zM101.1 378.8c-1.5 2.2-1.7 3.2-.9 4 1.7 1.7 4.8 1.5 4.8-.3s1.6-2 2.6-.3c.4.6 1 2.5 1.3 4.1.8 3.8 2.4 4.4 3.8 1.4 2-4.3-3-11.7-7.9-11.7-.9 0-2.6 1.3-3.7 2.8zM20.9 387.8c-2.4 1.6-5.1 3.8-6 4.8-2.4 2.8-6.6 11.4-7.4 15.1-1.3 6.5 1.5 4.1 5.9-5 5.4-11.2 7.3-12.8 16.8-13.5 5.8-.4 6.8-.7 6.8-2.3 0-1.6-.8-1.9-5.8-1.9-4.7 0-6.7.6-10.3 2.8zM47.2 386.2c-.8.8-.8 1.7.3 3.7.7 1.4 1.6 3.4 1.9 4.4.8 2.7 3 1.5 3.4-1.7.3-2.6-2-7.6-3.6-7.6-.5 0-1.3.5-2 1.2z"/><path d="M20.3 396.6c-.7.3-1.3 1-1.3 1.4 0 .5-1.2 2.1-2.6 3.5-2 2.1-2.4 2.9-1.5 3.8 1 .9 1.6.7 2.7-.7.8-1.1 1.4-2.5 1.4-3.2 0-.7 1.5-1.4 3.3-1.6 2-.2 3.2-.8 3.2-1.8 0-1.5-3-2.3-5.2-1.4zM178 403.5c-1.9 2.1-2.1 2.7-1 4 .8 1 1.3 3.6 1.1 6.4-.1 3.9.3 5.4 2.4 7.9 1.4 1.6 3.6 3.3 5 3.6 4.5 1.2 9.3 4.7 11 8.1 1.3 2.8 2.2 3.5 4.5 3.5 2.4 0 3.1-.5 3.5-2.8.3-1.5 1.1-4.4 1.7-6.5 1.2-4.1-.1-11.6-2.5-14.6-2.5-3-9.1-7.1-11.4-7.1-1.3 0-3.6-.9-5.1-1.9-4.5-3.2-6.6-3.4-9.2-.6zm9 6c.7.9 2 1.3 2.9 1 2.3-.7 7.8 2.9 10.1 6.7 1.2 1.9 2 5.1 2 7.5 0 4.5-.9 5.3-3 2.8-.7-.8-4-2.8-7.4-4.4-7.4-3.5-10.1-7.4-8.4-12.2 1.1-3.3 2-3.6 3.8-1.4zM140.2 412.4c-2.4 3.1-2.9 13.3-.8 17.3 2.6 5 5.5 7.3 9 7.3 2.4 0 4.5 1 7.8 3.9 8.2 7.2 12 6.1 12-3.4 0-5.3-.8-8.1-3.3-11.7-1.9-2.7-10.1-7.8-12.4-7.8-.7 0-3.1-1.8-5.4-4-2.2-2.2-4.3-4-4.5-4-.3 0-1.3 1.1-2.4 2.4zm5.3 6.7c.4.5 3 2.1 5.8 3.5 7.9 3.8 10.3 6.4 12.2 13.1.8 2.9-1 3.8-3.3 1.5-1.6-1.6-8-4.4-12.7-5.7-1.9-.5-5.5-8.6-4.9-11.1.7-2.5 1.9-3.1 2.9-1.3zM345.9 411.2c-.1.7-.1 1.7 0 2.2.1.5.5 5 .8 10 .8 13.4 5.3 20.6 12.8 20.6 1.8 0 4.4.9 5.8 2 1.4 1.1 2.8 2 3.2 2 .4 0 2.4-1.8 4.5-4l3.8-4-1.2-4.8c-.7-2.6-1.8-5.7-2.4-6.8-1.6-3-7.6-7.3-12.6-9-3.1-1.1-5.2-2.7-7.1-5.5-2.8-3.9-7.3-5.5-7.6-2.7zm13.3 12.3c8 3.7 11.2 8 11 14.8-.3 5.4-.9 6-3.9 3.7-1.4-1.1-3.6-2-4.8-2-5.6 0-10.4-8.2-9.1-15.4.4-2 .8-3.6 1-3.6.2 0 2.8 1.1 5.8 2.5zM296.7 413.8c-7.3 7.9-6.6 15.9 2.2 23.6 1.8 1.7 4 3.1 4.9 3.2 4.4.7 6.7 1.7 8.4 4 2.3 2.9 3.8 3 6.7.6 2.6-2.1 3.7-9.8 2.1-14.7-1.1-3.4-5.7-7.6-11.4-10.5-1.5-.8-4.5-3.1-6.6-5.1l-3.8-3.7-2.5 2.6zm6.6 7.7c2.8 1.9 5.7 3.5 6.4 3.5.6 0 2.5 1.2 4.2 2.6 2.7 2.2 3.1 3.2 3.1 7.5 0 4.8-1.1 6.3-2.7 3.5-.8-1.3-4.5-2.7-10.6-4-3.8-.9-6.7-5.9-6.7-11.9 0-2.6.2-4.7.5-4.7s2.9 1.6 5.8 3.5zM257.4 545.4c-.8 2.2 0 8.1 1.1 8.1.6 0 1.1-2.1 1.3-4.8.3-4.5-1.2-6.5-2.4-3.3zM252.6 547.5c-.9 2.6-.7 7.3.4 8 1.2.8 1.9-.8 2.2-5.4.3-3.6-1.5-5.3-2.6-2.6zM246.7 549.6c-1.1 1.1-.8 5.2.4 6 1.4.8 3-1.5 2.7-4-.3-2.1-2-3.1-3.1-2zM241.3 553.6c-.8 2 1.3 4.2 2.7 2.8 1.2-1.2.3-4.4-1.1-4.4-.5 0-1.2.7-1.6 1.6zM236.5 556.9c-.7 1.2 1.2 2.4 2.5 1.6 1.1-.7.4-2.5-1-2.5-.5 0-1.1.4-1.5.9zM225 562c0 .5.7.7 1.5.4.8-.4 1.5-.8 1.5-1 0-.2-.7-.4-1.5-.4s-1.5.4-1.5 1zM269 569.5c-1 1.1-1.6 1.3-2.6.4-1.1-.9-1.5-.7-2 .5-.8 2.1-.7 2.2 3.2 3 2.7.6 3.2.4 3.7-1.6.8-2.9-.6-4.3-2.3-2.3zM258.2 572.1c.2.6.8 1 1.3 1s1.1-.4 1.3-1c.2-.6-.4-1.1-1.3-1.1s-1.5.5-1.3 1.1zM268.9 584.7c-1.8 4.7-2.2 8-1 8.8 1.4.8 4.1-5.2 4.1-9 0-3.3-1.8-3.2-3.1.2zM274.4 583.7c-.3 1-1 3-1.6 4.5-1.1 3-.3 6.8 1.1 5.2 1.3-1.4 4-10.2 3.3-10.8-1-1.1-2.3-.6-2.8 1.1zM259.2 585.2c-.5.7-1.3 2.7-1.6 4.4-.7 2.9-.5 3.2 2.3 3.6 3.5.5 6.1-2.3 6.1-6.7 0-2.9-1.4-3.3-2.9-.8-1 1.7-1 1.7-1.1 0 0-2-1.3-2.2-2.8-.5zM253.6 587.2c-1.1 4.1-.8 5.2.9 3.8 1.6-1.3 2.1-6 .6-6-.5 0-1.1 1-1.5 2.2zM248.7 587.7c-.4.3-.7 1.5-.7 2.5 0 2.6 2.4 1.7 2.8-1 .3-2.1-.8-2.9-2.1-1.5zM240.5 591c-.3.5.1 1 .9 1s1.8-.5 2.1-1c.3-.6-.1-1-.9-1s-1.8.4-2.1 1zM251.6 615.5c-3 4.6-.9 5.1 2.4.5 1.6-2.3 1.8-3 .7-3-.8 0-2.2 1.1-3.1 2.5zM256.1 616.1c-1.3 1.7-2 3.3-1.7 3.6.8.9 5.6-3.8 5.6-5.4 0-2.2-1.5-1.5-3.9 1.8zM244.5 615c-.3.5-1.9 1-3.5 1s-3.2.4-3.5 1c-.9 1.4 6.8 1.3 8.3-.2.7-.7 1.2-1.6 1.2-2 0-1.1-1.8-1-2.5.2zM267 634.3c0 1.9-.4 2.4-1.8 2-3.1-.8-6.9 1.4-7.4 4.1-.7 3.4.3 3.9 3.8 2.1 1.6-.8 3.6-1.5 4.5-1.5 2.4 0 4.1-2.5 3.7-5.6-.4-3.6-2.8-4.5-2.8-1.1zM278 634.1c0 .5.5.7 1 .4.6-.3 1-.8 1-1.1 0-.2-.4-.4-1-.4-.5 0-1 .5-1 1.1zM272 635c0 .5.5 1 1 1 .6 0 1-.5 1-1 0-.6-.4-1-1-1-.5 0-1 .4-1 1zM157.6 637.6c-2.2 1.2-4.5 1.5-9.5 1-11.9-1.1-15.1-1.1-15.3-.2-.4 1.2 3.9 2.4 12.7 3.5 5.9.7 7.8.5 12.3-1.1 2.9-1.1 5.2-2.6 5.2-3.4 0-1.8-1.7-1.7-5.4.2zM234.5 639.2c.9 4.1 1.2 4.5 2.7 3 .8-.8 1.4-.7 2.4.6 2 2.7 3.9.2 2.7-3.4-.8-2.4-1.6-2.9-4.7-3.2l-3.8-.2.7 3.2zM228.2 638.2c.3.7 1.3 1.5 2.2 1.6 1.2.3 1.7-.1 1.4-1-.3-.7-1.3-1.5-2.2-1.6-1.2-.3-1.7.1-1.4 1zM246.3 639.6c-.8 2.2.5 4.7 1.9 3.7.7-.4 2.2-.8 3.3-.8 1.3 0 2-.7 2-2 0-1.6-.7-2-3.3-2.2-2.1-.1-3.5.4-3.9 1.3zM152.2 651.6c-1.2.8-2.2 2.3-2.2 3.3 0 2-1.3 4.8-4.4 9.4-2.6 3.9-10.2 8.9-15.5 10.3-5.4 1.3-6.6 3.4-2.1 3.4 6.4 0 18.9-7.6 23-14 5.6-8.7 6.3-16 1.2-12.4z"/><path d="M139.7 659.7c-3.6 4.9-3.6 7.4.1 5.4 2.8-1.5 6.2-6 6.2-8.2 0-3.3-2.7-2.1-6.3 2.8zM414.5 737.6c-2.2 2.4-5.3 5.3-6.9 6.5-2.4 1.9-3.2 2-4.9.9-1.7-1-2.2-1-3.4.6-.7 1-1.3 2.3-1.3 3 0 3.2-13 11.7-24.5 15.9-3.8 1.4-13.4 1.2-16.2-.4-3.1-1.6-5.4-1.4-7.7.8-1.4 1.2-5 2.2-10.6 3-4.7.6-11.1 1.6-14.2 2.1-4.5.8-17.3.8-17.3 0 0-.1-2.2-.3-4.9-.6s-5.8-.9-6.8-1.5c-1.1-.6-3.7-.8-5.7-.4-2.5.4-5.1.1-7.6-.9-5.3-2.2-9.3-2-13.4.8-2.4 1.6-6.2 2.8-11.1 3.6-4.1.6-10.6 1.5-14.5 2.1-8.5 1.2-25.7 1.2-29.1-.2-1.4-.5-4.7-.9-7.2-.9-4.9 0-5.2-.2-16.3-8.6-5.5-4.2-11.4-6.7-18.4-7.9-2.1-.4-5.6-1.5-7.6-2.5-2-1.1-3.9-1.7-4.2-1.3-.3.3-3.9-2.7-7.9-6.7s-8.2-7.6-9.3-8c-6.1-2.3-18.5 1.7-18.5 5.9 0 3.5-8.1 16.7-9.4 15.4-.4-.4-4.2-1.4-8.5-2.3-8.7-1.7-13.6-1.1-14.5 1.8-.3 1-2.1 2.6-3.8 3.6-1.8 1-4.4 2.9-5.8 4.2-4.3 3.9-7.1 4.4-17.9 3.4-8.2-.8-10.7-1.4-14.7-3.9-4.4-2.7-5.8-3.1-14.4-3.3l-9.5-.3-6.3 4.7c-5.8 4.4-13.9 7.8-18.4 7.8-1.4 0-1.8.8-1.8 4 0 3.4.4 4.2 2.5 5 1.4.5 2.5 1.4 2.5 1.9s.9.7 2 .4c1.5-.4 2 0 2 1.6 0 1.1-.5 2.1-1.2 2.1-.8 0-.6.6.4 1.7 1.3 1.2 2 1.3 3 .5.7-.5 1.8-1 2.3-1 .6.1 1.6-1.2 2.4-2.7 1-2 1.5-2.4 2.1-1.4.6.9 1.2 1 2.2.1.8-.6 3.2-1.5 5.3-2.1 2.2-.5 8-2.4 12.9-4.1 7.6-2.7 9.7-3.1 14.3-2.5 4.4.5 6.1.3 9.4-1.4 2.2-1.2 5.3-2.1 7-2.1 5.6 0 14-3.1 17.9-6.6 2.1-1.9 4.2-3.4 4.7-3.4s2.2-1.3 3.7-2.9l2.8-3 3.6 1.9c2.5 1.4 4 1.6 5.3 1 2.4-1.3 4.9-1.3 4.9.1 0 2.3-6.2 8.8-9.4 9.9-1.8.6-4.4 2.2-5.6 3.5-1.4 1.5-3.5 2.5-5.1 2.5-1.8 0-4 1.1-6 3.1-2.8 2.7-6.1 4.5-24.4 12.9-9.5 4.3-11.6 5-19.1 5.9-3.9.5-8.4 1.5-10 2.3-1.6.8-5.1 2.1-7.9 2.8-2.7.7-5.4 1.7-6 2.1-.5.5-4.9.9-9.7.9H0V813.3l249.8-.6c137.3-.4 249.8-.7 250-.7.1 0 .2-12.1.2-27v-27l-2.7-.6c-1.6-.3-5.5-1.4-8.7-2.5-7.5-2.4-8.7-2.4-11.9.1-5.3 4.2-21.3 1.8-23.3-3.5-.7-1.7-8.5-7.4-12.7-9.3-4.3-1.9-6.6-1.5-7.9 1.3-1.3 2.9-3.6 3.3-4.4.7-.3-.9-1-2.4-1.5-3.2-.5-.8-1.7-3-2.6-4.8-2.3-4.3-4.8-4-9.8 1.4zm-271.6 4.3l2.5 1.9-2.9-.6c-2.4-.4-2.7-.2-2.2 1.2.5 1.2.2 1.6-1.1 1.4-.9-.2-1.6.3-1.4.9.1.7-.2 1.3-.7 1.3-.5 0-1.1-.6-1.4-1.3-.4-1-.7-1-1.8 0-2.6 2.5-4.1 1.6-3.4-2 .4-1.7.9-3.5 1.2-4 .9-1.5 8.8-.6 11.2 1.2zm271.1 7.4c0 .7-1.6 2.7-3.5 4.6-1.9 1.9-3.5 3.8-3.5 4.2 0 .5-.8.9-1.7.9-1.6-.1-1.6-.2.1-1.5 1.1-.8 1.7-1.8 1.3-2.1-.3-.3-.2-1.1.4-1.8.5-.6 1.9-2.3 3-3.9 2-2.6 3.9-2.8 3.9-.4zm8 3.8c0 .5-.7.9-1.5.9-.9 0-2 1.1-2.5 2.4-1.1 3-2.9 4.1-4.2 2.8-.6-.6-.4-1.4.7-2.3.9-.8 2.7-2.3 3.8-3.5 2.2-2 3.7-2.2 3.7-.3zm16 .4c0 .3-.9 1.5-2 2.7-2.2 2.4-2.6 1.8-1-1.3 1-1.7 3-2.7 3-1.4zm-301.6 3.6c-.6 1.1-2.4.2-2.4-1.1 0-.5.7-.7 1.5-.4.8.4 1.2 1 .9 1.5zM147 756c0 .5-.5 1-1.1 1-.5 0-.7-.5-.4-1 .3-.6.8-1 1.1-1 .2 0 .4.4.4 1zm20.3 2c3.1 1.1 6.3 2 7 2 2.5 0 11.2 4.8 16.1 8.9 2.6 2.3 4.3 4.1 3.8 4.1-.6 0-1.4-.5-1.7-1-.4-.6-1.1-.8-1.6-.5-.5.4-1.6-.1-2.5-.9-1.9-2-4.4-2.1-4.4-.2 0 2.1-3.7.8-4.3-1.6-.3-1.1-1-1.7-1.6-1.3-.6.3-1.1.1-1.1-.4 0-.6-1.1-1.1-2.4-1.1-1.4 0-2.7-.4-3-.9-.3-.4.7-.6 2.2-.3 1.9.3 2.4.1 1.7-.6-1.5-1.6-6.5-2.6-6.5-1.3 0 .6-1.1 1.1-2.5 1.1s-2.5-.5-2.5-1.1c0-.6.9-.8 2-.4 1.4.5 2 .2 2-.9 0-.9-.6-1.6-1.4-1.6-1.3 0-6.8-3.9-5.6-4 .3 0 3.1.9 6.3 2zm-17.3 2c0 1.1-.4 2-.8 2s-.8-.9-.9-2c-.1-1.1.2-2 .8-2 .5 0 .9.9.9 2zm8.9-.4c.6-.4 1.1-.1 1.1.8 0 1-.6 1.3-1.5 1-.8-.4-1.5-.2-1.5.4 0 .6-.9.6-2.5-.1-2.6-1.3-3.5-3.3-1-2.4.8.4 1.7.1 2.1-.5.4-.7.9-.6 1.4.2.4.7 1.3.9 1.9.6zm322.1-.9c0 .5-.7 1.7-1.5 2.7-1.1 1.5-1.8 1.7-2.7.8-.8-.8-.8-1.5.2-2.7 1.3-1.5 4-2.1 4-.8zm-33.8 3.3c3.2 0 1.4 1.2-2.1 1.4-2.1.1-3.1-.2-3.1-1.2 0-.9.6-1.2 1.6-.8.9.3 2.5.6 3.6.6zm43.2-.4c2.5 1 1.9 3.1-1 3.8-3.1.8-4.9-.5-4.1-2.8.7-1.7 2.5-2 5.1-1zm-59.4 1.3c0 .5-.7 1.1-1.5 1.5-.9.3-1.5 0-1.5-.9 0-.8.7-1.5 1.5-1.5s1.5.4 1.5.9zm-20 2.1c0 .5-.4 1-.9 1-.6 0-1.3-.5-1.6-1-.3-.6.1-1 .9-1 .9 0 1.6.4 1.6 1zm-365 3.8c5.3 2.5 5.5 4.4.2 2.4-4.8-1.9-9.2-2.4-9.2-1.2 0 .8-.6.8-2 0-1.1-.6-1.8-1.5-1.5-2.1.9-1.4-2.4-1.1-3.9.3-.8.7-2.2 1.9-3.2 2.5-1.1.7-4.1 2.9-6.9 4.8-5.7 4-10.3 5.2-13.4 3.5-2.8-1.4-1.8-3 1.9-3 3.4 0 15.7-5.7 18.7-8.7 2.8-2.8 11.8-2.1 19.3 1.5zm393.5-1.8c-1 1.1-2.1 1.8-2.3 1.5-.3-.3.3-1.2 1.4-2 2.7-2 3-1.8.9.5zM171 768.6c0 .9-.5 1.4-1.2 1.2-1.8-.6-2.1-2.8-.4-2.8.9 0 1.6.7 1.6 1.6zm293-.6c0 .5-.4 1-1 1-.5 0-1-.5-1-1 0-.6.5-1 1-1 .6 0 1 .4 1 1zm-349 1.5c-.7.9-1.5 1.3-1.7 1.1-.7-.7.7-2.6 1.9-2.6.6 0 .6.6-.2 1.5zm249.8.6c3.7.1 5.8.4 4.7.6-1.1.3-2.5 1-3.2 1.5-.7.5-1.7.7-2.3.3-2-1.2-6.5.6-10.4 4.2-3.8 3.7-9.5 7-12.5 7.4-.9.2-4.7-.1-8.6-.6-3.8-.5-7.3-.8-7.7-.7-.4.1-2.5.4-4.7.7-2.2.2-6.2 1-8.8 1.6-2.6.6-8.7 1.2-13.5 1.4-7.6.3-9.1 0-11.3-1.7-1.4-1.1-3.2-1.8-3.9-1.5-.8.3-2.2-.3-3.2-1.4-2.4-2.7-6.2-1.9-11.7 2.1-4 2.9-9.9 4.1-11.1 2.1-.9-1.3-5.6-2-8.5-1.1-1.8.5-5.1 0-10.1-1.6-4.1-1.3-8.8-2.4-10.5-2.4-1.6 0-5.2-.6-8-1.4l-5-1.3 12.5-.6c6.9-.3 14.1-.8 16-1 1.9-.2 6.2-.8 9.5-1.1 8.4-1 15.6-2.7 18-4.2 2.9-1.8 5.4-1.9 10.4-.5 2.4.7 5.7 1.1 7.5 1 1.7-.1 4.9.1 7.1.5 10.6 1.8 20 2.3 27.3 1.4 8.6-1.1 13.5-1.6 20.3-2.2 2.6-.2 5.9-1.1 7.5-1.9 2-1 3.6-1.2 5.2-.6 1.3.5 5.3 1 9 1zm-185.8.5c0 .2-1.7.4-3.7.3-3.3-.1-3.5-.2-1.3-.8 2.3-.7 5-.4 5 .5zm-20.5.4c.3.5.1 1-.4 1-.6 0-1.1-.5-1.1-1 0-.6.2-1 .4-1 .3 0 .8.4 1.1 1zm276.5 1c0 .5-.5 1-1.1 1-.5 0-.7-.5-.4-1 .3-.6.8-1 1.1-1 .2 0 .4.4.4 1zm-266.5 5c-.3.6-1.1 1-1.8 1-.8 0-.8-.3 0-1.1.6-.6.9-1.9.6-2.8-.4-1.3-.2-1.3.7.2.6.9.8 2.2.5 2.7zm-6.4 1.3c-.8.8-1.1.5-1.1-.9 0-2.7 1.4-4.1 1.8-1.9.2.9-.1 2.2-.7 2.8zm16.4-2.4c-.3.6-1.1 1.1-1.7 1.1-.6 0-.6-.6.2-1.5 1.4-1.7 2.6-1.3 1.5.4zm-74.8 1.6c-1.1 2.3-2.7 3.4-2.7 1.8 0-.6 3-4.3 3.6-4.3.1 0-.3 1.1-.9 2.5zm91.3-.8c0 .5-.5 1.5-1 2.3-.8 1.2-1 1.1-1-.8 0-1.2.5-2.2 1-2.2.6 0 1 .3 1 .7zm169 3.5c2.3 1.7 4.6 2.2 10.2 2.4 10 .3 17.9 1.5 17.2 2.5-.3.5-2.2 1.6-4.2 2.5-4.6 1.9-54.9 3.2-59.7 1.5-2.3-.9-.7-1 7.1-.6 10.1.5 10.2.5 13.9-2.5 2.1-1.7 4.3-3 5-3 .6 0 2.2-1.1 3.5-2.5 2.9-3 3.3-3.1 7-.3zm-257.6 1.4c.3.8.2 1.2-.4.9-.6-.3-1-1-1-1.6 0-1.4.7-1.1 1.4.7zm37.6.8c0 2.8-1.7 4.3-3.2 2.8-.7-.7-.6-1.7.1-3.1 1.6-2.8 3.1-2.7 3.1.3zm43-1.4c0 .5-.7 1-1.5 1s-1.5.4-1.5 1c0 .5-.7 1-1.5 1s-1.5.4-1.5 1c0 .5-1 1-2.2.9h-2.3l2.3-.9c1.2-.5 2.2-1.3 2.2-1.7 0-.5 1-1.3 2.3-1.9 2.9-1.5 3.7-1.6 3.7-.4zm261.6.2c.4.7.9 2.7 1.1 4.5.3 3 .1 3.3-1.9 2.9-1.3-.3-4.9-1-8-1.6-3.2-.6-6-1.5-6.3-2-.4-.7 2.8-2.2 9.5-4.4 2.7-.8 4.9-.6 5.6.6zm-291.6.6c0 1.3-4.1 5.4-4.8 4.8-.3-.4.5-1.7 1.8-3.1 2.5-2.7 3-3 3-1.7zm50 .2c0 .5-.2 1-.4 1-.3 0-.8-.5-1.1-1-.3-.6-.1-1 .4-1 .6 0 1.1.4 1.1 1zm-45 2.9c-.5 1.1-1.5 2.3-2.2 2.7-.7.5-.8.2-.3-.7 2.1-3.7 4.4-5.5 2.5-2zm301-.5c0 .3-.4.8-1 1.1-.5.3-1 .1-1-.4 0-.6.5-1.1 1-1.1.6 0 1 .2 1 .4zm-324.4 2.1c-.3.8-.2 1.5.3 1.5 1.4 0 2 3.7.8 4.9-1.7 1.7-2.9 1.3-1.8-.7 1.1-2.1-.3-4.2-2.6-4.2-1.9 0-1.6-1.8.5-2.3 3.1-.8 3.4-.7 2.8.8zm6.7 1.5c-.9 1.6-2.1 3-2.5 3-1.2 0-1-.9 1-3.5 2.5-3.5 3.6-3.1 1.5.5zm78.7-2.6c0 .3-.4.8-1 1.1-.5.3-1 .1-1-.4 0-.6.5-1.1 1-1.1.6 0 1 .2 1 .4zM123 788c0 .5-.2 1-.4 1-.3 0-.8-.5-1.1-1-.3-.6-.1-1 .4-1 .6 0 1.1.4 1.1 1zm84.3-.3c-.7.2-1.9.2-2.5 0-.7-.3-.2-.5 1.2-.5s1.9.2 1.3.5zm12.1.2c.3.4-.6 1.3-1.9 1.9-2.7 1.2-3.3.4-1.3-1.6 1.4-1.4 2.5-1.5 3.2-.3zM189 789c.8.5 1.1 1 .5 1-.5 0-1.7-.5-2.5-1s-1-1-.5-1c.6 0 1.7.5 2.5 1zm-90 2c0 .7-1.3.7-3.8.1-.2-.1-.1-.5.3-1.1.6-1 3.5-.2 3.5 1zm49-.4c0 .8-.5 1.2-1 .9-.6-.4-.8-1.1-.5-1.6.9-1.4 1.5-1.1 1.5.7zm9-.1c-.7.8-1.6 1.2-2.1.9-1.3-.8-.1-2.4 1.8-2.4 1.3 0 1.3.3.3 1.5zm69-.5c-.8.5-1.9 1-2.5 1-.5 0-.3-.5.5-1s2-1 2.5-1c.6 0 .3.5-.5 1zm54-.6c0 .2-.7.6-1.5 1-.8.3-1.5.1-1.5-.4 0-.6.7-1 1.5-1s1.5.2 1.5.4zm-186.3 1.2c-.3.3-1.2.4-1.9.1-.8-.3-.5-.6.6-.6 1.1-.1 1.7.2 1.3.5zm58.3-.2c0 .3-.4.8-1 1.1-.5.3-1 .1-1-.4 0-.6.5-1.1 1-1.1.6 0 1 .2 1 .4zm53.5.6c-.3.5-1.3 1-2.1 1s-1.4-.5-1.4-1c0-.6.9-1 2.1-1 1.1 0 1.7.4 1.4 1zm5 0c-.3.5-1.2.7-2 .3-2.1-.7-1.9-1.3.6-1.3 1.1 0 1.8.4 1.4 1zm34 0c-.3.5-1.1 1-1.6 1-.6 0-.7-.5-.4-1 .3-.6 1.1-1 1.6-1 .6 0 .7.4.4 1zm-134.8 3.2c-.1 2.2-.7 3.3-1.7 3.3-.8 0-1.9 1-2.5 2.2-1.4 3.2-2.7 2.9-1.9-.5l.7-2.7-2.5 2.2c-3.4 3.2-4.3 2.8-1.8-.7 1.3-1.8 3-3 4.3-3 1.2 0 2.8-.9 3.5-2 1.7-2.8 2.1-2.5 1.9 1.2zm63.1.1c-2.3 2.3-4.9 2.8-6.4 1.3-2.2-2.3-1.7-2.9 2-2.2 2.7.5 3.5.3 4.1-1.1.5-1.2.9-1.4 1.2-.6.3.7-.1 1.9-.9 2.6zm95.2-2.7c0 .4-.8 1.3-1.7 2-2.1 1.6-6.3 1.8-6.3.4 0-1 1.3-1.4 3.7-1.1.6.1 1.4-.3 1.8-.9.7-1.1 2.5-1.4 2.5-.4zm-194.1 3.3c-1.5.5-2.2-.6-1.4-1.9.6-.9 1-.9 1.6.1.5.8.4 1.5-.2 1.8zm11.8.5c.8.4 2.2.1 2.9-.5 2.6-2.1 3.4-.1 2.5 6-.1.3-.7-.3-1.4-1.4-1.3-1.7-1.5-1.6-2.6 1.6-.8 2.3-1.4 3-2 2.1-.4-.7-1.5-1-2.4-.6-2 .7-2.2 2.1-.4 2.7.6.2.9.7.6 1.1-1.1 1.1-3.8-.5-3.2-2 .3-.8 0-1.4-.6-1.4s-1.1.6-1.1 1.4c0 .8-.5 1.8-1.1 2.2-.8.4-.9 0-.4-1.5.6-1.9.3-2.1-4.3-2.1-3.1 0-5.2-.5-5.5-1.3-.2-.7-.8-.8-1.3-.3s-.4 1.1.4 1.3c.6.3 1.2 1.1 1.2 1.8s.6 1.6 1.3 1.8c.6.3-.4.4-2.3.2s-4.1-.4-4.9-.4c-1.1-.1-1-.6.4-2.1 1.8-1.9 1.7-2-.3-2-4.7 0-1.6-4.3 4.7-6.5 3.7-1.3 4-1.3 4.6.6.4 1 .3 2.4-.1 3.1-.4.6.3.4 1.6-.5 1.8-1.2 2.7-1.4 3.7-.5.7.6 1.7.7 2.1.3.4-.4.2-1-.5-1.2-1.3-.5-.6-3.3.8-3.3.4 0 .6.7.3 1.5-1 2.5 1.4 1.7 3.3-1.2 1.4-2.1 1.9-2.3 2.1-1.1.2.9 1 1.9 1.9 2.2zm341.6-.1c-.7 1.1-2.3-.2-2.3-1.9 0-1.2.2-1.2 1.4-.2.8.7 1.2 1.6.9 2.1zm-306.6-.1c-.3.8-.6.5-.6-.6-.1-1.1.2-1.7.5-1.3.3.3.4 1.2.1 1.9zm14.3-.8c1.7 2.1.9 6-1.4 6.4-2.2.5-6.8-1.7-6.1-2.9.3-.4-.4-.5-1.5-.2-1.4.4-2 0-2-1 0-1.6 3.5-1.7 5.9-.3.8.5 1.4 0 1.8-1.3.6-2.5 1.6-2.7 3.3-.7zm48 1.3c0 1.9-.3 2.4-1 1.7-.6-.6-.8-1.8-.4-2.7.9-2.4 1.4-2.1 1.4 1zm58.7-2.1c-.3.3-1.2.4-1.9.1-.8-.3-.5-.6.6-.6 1.1-.1 1.7.2 1.3.5zm27.6 2c-2.7 2-3.9 1.7-1.8-.6 1-1.1 2.2-1.7 2.7-1.4.5.3.1 1.2-.9 2zm25.4-2c-.3.3-1.2.4-1.9.1-.8-.3-.5-.6.6-.6 1.1-.1 1.7.2 1.3.5zm13 0c-.3.3-1.2.4-1.9.1-.8-.3-.5-.6.6-.6 1.1-.1 1.7.2 1.3.5zm-211.3 1.9c.4 1-.1 1.5-1.6 1.5-1.7 0-1.8-.2-.8-1.5.7-.8 1.4-1.5 1.5-1.5.2 0 .5.7.9 1.5zm57.6-.3c0 1.4-.5 2.3-1.2 2.1-.3-.1-1.1.4-1.7 1.1-.7.8-2.1 1.2-3.1.9-1.9-.5-1.9-.6.2-2.8 2.1-2.2 5.8-3 5.8-1.3zm-38.6 1.3c-.4.8-1 1.5-1.5 1.5-.4 0-.6-.7-.3-1.5.4-.8 1-1.5 1.5-1.5.4 0 .6.7.3 1.5zm30.6-.1c0 .3-.4.8-1 1.1-.5.3-1 .1-1-.4 0-.6.5-1.1 1-1.1.6 0 1 .2 1 .4zm96.5.6c-.3.5-1 1-1.6 1-.5 0-.9-.5-.9-1 0-.6.7-1 1.6-1 .8 0 1.2.4.9 1zm242.6 2.3c-.8.8-1.1.7-1.1-.4 0-2 1.3-3.4 1.8-1.9.3.7-.1 1.7-.7 2.3zM160 799c0 .5-.4 1-1 1-.5 0-1-.5-1-1 0-.6.5-1 1-1 .6 0 1 .4 1 1zm13.6-.1c.9-.8 1.4-.8 1.4-.1 0 1.6-1.6 2.3-3.4 1.6-.9-.3-1.3-1.1-.9-1.7.5-.8.8-.7 1.1.1.3 1 .7 1 1.8.1zm25.7.8c-.5 1.3-.2 1.5 1.5 1.1 2.3-.6 3.9.6 2.2 1.7-1.6 1-1.2 2.4.8 2.4.9 0 3.5.4 5.7.9 3.1.8 3.5 1 1.5 1.2-1.4.1-2.9.2-3.5 0-.5-.1-2.3-.2-4-.2-1.6-.1-3.6-.8-4.2-1.7-1.1-1.4-1.3-1.3-1.9.7-.6 2-1.2 2.2-6.5 2-3.8-.2-5.9-.7-5.9-1.5 0-.7-.7-1.6-1.6-2.1-2-1.1-.8-3.6 1.3-2.8.9.4 2.2.1 2.9-.5.8-.6 1.4-.8 1.4-.3s.4.2 1-.6c.5-.8 1.3-1.1 1.7-.6.4.4-.3 1.7-1.7 2.9-1.6 1.2-1.8 1.8-.7 1.4 1.1-.4 1.7-.1 1.7.9 0 2.1 1.9.7 3-2.2.5-1.3 1.6-2.4 2.5-2.4.8 0 1.5-.5 1.5-1 0-.6.4-1 1-1 .5 0 .7.7.3 1.7zm294.8-.7c.5 0 .9 1.6.9 3.5v3.5h-5.3c-4.6 0-5.3-.3-5.3-2 0-1.3.4-1.6 1-1 .6.6 1.8 1 2.8 1 1.7 0 2.3-1.6 1.8-4.9-.1-.9.4-1.2 1.5-.7.9.3 2.1.6 2.6.6zM114 800c0 .5-.4 1-1 1-.5 0-1-.5-1-1 0-.6.5-1 1-1 .6 0 1 .4 1 1zm4 0c-2 1.3-3.3 1.3-2.5 0 .3-.6 1.4-1 2.3-1 1.5 0 1.5.2.2 1zm91 .4c0 .8-.4 1.8-1 2.1-.5.3-1-.3-1-1.4 0-1.2.5-2.1 1-2.1.6 0 1 .6 1 1.4zm-151.6 1c-.3.8-1.3 1.2-2.3.9-1.3-.3-2 .3-2.5 2.1-.4 1.7-1.3 2.6-2.6 2.6-1.7 0-1.6-.3.8-2.9 1.5-1.6 3.6-3.1 4.7-3.4 1.1-.3 2.1-.5 2.2-.6.1 0 0 .5-.3 1.3zm155.9.6c-.3 1.2-.8 1.9-1.1 1.6-.5-.6.5-3.6 1.2-3.6.2 0 .2.9-.1 2zm9.4 2.7c-.3 1-.5.2-.5-1.7s.2-2.7.5-1.8c.2 1 .2 2.6 0 3.5zM168 802c0 .5-.4 1-1 1-.5 0-1-.5-1-1 0-.6.5-1 1-1 .6 0 1 .4 1 1zm50 .1c0 1.6-2 4.9-3 4.9-.5 0-.4-1.3.1-3 1.1-2.9 2.9-4.1 2.9-1.9zm54-.1c0 .5-.9 1-2 1s-2-.5-2-1c0-.6.9-1 2-1s2 .4 2 1zm140 .8c0 .4-.9.8-2.1.9-1.7.2-1.8-.1-.9-1.2 1.2-1.4 3-1.2 3 .3zm7.3-.4c.4 1 .1 1.3-.8.9-.8-.3-1.2-.9-.9-1.4.7-1.2 1.1-1.1 1.7.5zm-155.6 1.2c.2.5-.6 1-1.7 1.1-2 .2-2.6-.8-1.3-2.1.9-.8 2.6-.3 3 1zm55.3-.6c0-.5.6-1 1.4-1 .8 0 1.4.8 1.3 1.8-.1 1.4-1 1.9-3.4 2-2.7.1-3.3-.2-3.3-1.9s.3-1.8 2-.9c1.4.7 2 .7 2 0zm-273 2c0 1.8-.7 2-7.7 2l-7.8-.1 4-1.8c2.2-1.1 5.7-2 7.8-2 3.1-.1 3.7.2 3.7 1.9zm69 0c-.8.5-1.7.7-1.9.4-.3-.3.1-.9.9-1.4.8-.5 1.7-.7 1.9-.4.3.3-.1.9-.9 1.4zm135 .5c3.4 2.5 3.4 2.5.8 2.5-1.5 0-2.9-.6-3.2-1.3-.5-1-.7-1-1.2 0-.6 1.3-4.4 1.9-4.4.7 0-1.5 2.2-4.4 3.3-4.4.7 0 2.8 1.1 4.7 2.5zm7-2c0 .2-1 .9-2.2 1.5-2.2 1.1-2.2 1-.4-.4 2.1-1.7 2.6-1.9 2.6-1.1zm72.7.1c-.3.3-1.2.4-1.9.1-.8-.3-.5-.6.6-.6 1.1-.1 1.7.2 1.3.5zM179 805.4c0 2.4-1.6 2.7-3.5.6-1.8-1.9-1.7-2 .8-2 1.7 0 2.7.5 2.7 1.4zm250.5-.4c.3.5.1 1-.4 1-.6 0-1.1-.5-1.1-1 0-.6.2-1 .4-1 .3 0 .8.4 1.1 1zm25.5 0c0 .5-.2 1-.4 1-.3 0-.8-.5-1.1-1-.3-.6-.1-1 .4-1 .6 0 1.1.4 1.1 1zm-288 1c0 .5-.2 1-.4 1-.3 0-.8-.5-1.1-1-.3-.6-.1-1 .4-1 .6 0 1.1.4 1.1 1zm5.2 1.2c-1.2 1.2-3.5.1-2.7-1.2.3-.5 1.3-.6 2.1-.3 1 .4 1.2.9.6 1.5z"/><path d="M0 786c0 .5.6 1 1.4 1 .8 0 1.8-.5 2.1-1 .3-.6-.3-1-1.4-1-1.2 0-2.1.4-2.1 1zM38 787.4c0 .9 3 1.4 3.5.6.4-.6-.3-1-1.4-1-1.2 0-2.1.2-2.1.4zM28.5 791c-.3.5.3 1 1.4 1 1.2 0 2.1-.5 2.1-1 0-.6-.6-1-1.4-1-.8 0-1.8.4-2.1 1zM25.5 792c-.3.5-.1 1 .4 1 .6 0 1.1-.5 1.1-1 0-.6-.2-1-.4-1-.3 0-.8.4-1.1 1zM14.7 794.7c-1.5.8-2.5 1.8-2.2 2.3.7 1.1 6.8-1.4 7.3-2.9s-1.7-1.2-5.1.6zM5 799c0 .5.7 1 1.5 1s1.5-.5 1.5-1c0-.6-.7-1-1.5-1s-1.5.4-1.5 1zM1.2 800.5c-1.1 1.3-1 1.5.7 1.5 1.4 0 1.9-.5 1.5-1.5-.7-1.8-.6-1.8-2.2 0zM322.1 823c-7.4 4.1-7.6 4.3-9.5 10.4-2.5 7.8-1.4 13.4 3.4 18.9 5.3 6 12.8 8.6 19.3 6.7 12.5-3.5 19.8-15.8 15.6-26.7-2.3-6.2-10.2-11.3-18.3-11.9-4.3-.4-6 .1-10.5 2.6zm15.2 5.8c3.4 3.8 4.8 8.9 3.9 14.7-1.2 7.2-3.3 9.5-8.7 9.5-6.8 0-10.5-5.3-10.5-14.9 0-5.5.2-6.1 3.3-8.5 3.9-3.1 9.6-3.5 12-.8zM458.1 822.1c-7.1 2.6-9.9 7.7-7 13 1.6 3.1 9.6 6.1 14 5.4 4.8-.8 7.5.6 8.3 4.5 1 5.3-3.9 11.9-6.8 9-.5-.5-1.8-1-2.8-1-1.1 0-2.3-1.1-2.8-2.5-1.5-3.9-3.7-4.1-7.1-.9-2 1.9-2.9 3.7-2.9 5.9v3.2l10.9.7c11.5.7 14.2.2 17.9-3.3 4.1-4 2.2-16.4-3-18.8-5.2-2.4-8-3.3-10.4-3.3-3.4 0-8.4-3-8.4-5 0-4.5 4.8-5.1 10.3-1.4 4.7 3.1 6.7 2.8 8.4-1.4 1.2-3 1.2-3.3-.9-4.1-4.6-1.7-13.2-1.7-17.7 0zM299.7 822c-2.1.3-3.8.8-3.7 1.2v1.8c0 .5 1.1 1 2.4 1 3.1 0 4 1.4 2.6 3.7-.5 1-1.9 4-3 6.7l-2.1 5-4.5-5.2c-3.9-4.4-5.1-5.2-8-5.2-4.9 0-6.8 1.2-8.9 5.9-1 2.3-2.1 4.1-2.4 4.1-1 0-8.5-13.1-9.1-15.9-.5-2.2-1-2.4-7.6-2.7-4.8-.3-7.6 0-8.9 1-2.6 1.9-.9 3.7 3.2 3.4l3.5-.3 6.9 13.5c3.7 7.4 6.8 14 6.9 14.6 0 .6-1.1 1.6-2.5 2.2-4.2 1.9-3.2 4.1 1.8 4 2.3-.1 5.4.1 6.8.4 1.4.3 3.2.3 3.8-.2 1.7-1 1.9-8.2.3-8.8-.7-.2-1.7-1.3-2.3-2.3-.8-1.6-.4-3.1 2.1-7.4 1.7-3 3.6-5.5 4.1-5.5.5 0 1.8 1.9 3 4.2 1.2 2.4 3.3 5.7 4.6 7.5 3.2 4.2 2.8 7.7-.9 8.1-3.2.4-3.7 2.7-.9 4.2 2.5 1.3 13.8 1.3 14.6 0 .3-.6-.2-1.3-1.2-1.7-4.3-1.6-4-3.7 2.4-20.3 2.4-6.3 5.3-12.2 6.4-13.2 2.7-2.3 2.4-4-.9-3.7-1.5.2-3.2.1-3.7-.2-.6-.3-2.7-.2-4.8.1zM356.5 821.8c-.2.3 0 1.2.4 2.1.5.9 1.2 8.5 1.6 16.8.7 13.6.6 15.3-.9 15.9-.9.3-1.6 1.5-1.6 2.5 0 1.7.8 1.9 6.5 1.9 5 0 6.7-.4 7.2-1.5.3-.9-.2-2.1-1.1-2.8-1.3-1-1.5-2.3-1-7.5.6-5.4.9-6.2 2.8-6.2 2.1 0 6.8 5.1 10.5 11.5 2.5 4.3 8.2 7.2 11.8 5.9 1.9-.6 2.9-1.7 3.1-3.4.2-2.1-.6-3-5-5.6-2.9-1.6-5.9-4.2-6.8-5.6-1.3-2.5-1.3-2.9.7-5 4.4-4.9 5.3-14.9 1.5-18-1-.9-5.6-1.3-15.4-1.4-7.6 0-14 .2-14.3.4zM379 827c1.1 2 .4 6.6-1.3 8.7-.5.7-2.9 1.3-5.3 1.3H368v-12h5c3.9 0 5.2.4 6 2zM399 821.7c0 .4.7 1.5 1.7 2.5 2.3 2.6 2.1 30.3-.3 32.9-.9 1-1.3 2.2-1 2.7.3.5 5.4.7 11.3.4 13.8-.6 20.9-3.8 25.6-11.5 2.3-3.6 2.7-14 .7-17.7-1.7-3.1-7.2-7.9-9.2-8-.9 0-2-.4-2.3-1-.6-1-26.5-1.3-26.5-.3zm22.8 6.5c8.5 5.2 8.6 18 .1 24-2.2 1.6-5 2.8-6.4 2.8-2 0-2.5-.5-2.6-2.8 0-1.5-.2-7.9-.4-14.2-.1-6.3-.1-11.9.2-12.3.7-1.2 5.1 0 9.1 2.5zM219.8 823.5c-2.8 1.6-5.8 6.2-5.8 8.9 0 .8 1.1 2.7 2.4 4.2 2 2.4 3.3 2.9 9.6 3.5 8.2.7 10 2.1 10 7.5 0 2-.9 4-2.5 5.6-2.1 2.2-3 2.4-6.3 1.8-6.8-1.4-9.1-2.7-10-6.1-1.3-5.4-2.7-4.9-9.3 3-.8.9-2.8 2.6-4.4 3.8-2.1 1.5-2.7 2.5-2 3.2.7.6 7.8 1.2 17.5 1.5 15.9.4 16.5.3 20.1-2 2.1-1.3 4.3-3.2 4.9-4.3 1.5-2.8 1.2-8.7-.5-12.1-2-3.9-9.2-7.1-14.4-6.4-4.3.5-7.4-1.5-6.9-4.5.2-1.2 1.6-1.7 5.1-1.9 3.9-.3 5.1.1 6.6 1.9 1.2 1.4 2.4 2 3.7 1.5 2.3-.7 5.9-6.9 5-8.5-.4-.6-2.8-1-5.4-.9-2.6.1-6.9-.1-9.7-.5-3.7-.5-5.7-.3-7.7.8zM68.5 824.7c-6.1 2.5-9.4 5.1-11.4 9.1-5.2 10.3-2.6 19.6 7 24.9 4.3 2.3 21.6 2.6 24.2.4 2.5-2 1.1-3.1-3.8-3.1-8.1 0-16.5-6.8-16.5-13.4 0-5.5 1.3-8.7 4.1-10.1 4.2-2.2 6.6-1.8 9.1 1.5 1.2 1.6 2.7 3 3.4 3 1.6 0 3.6-2.6 5-6.7 1.1-3.1 1-3.5-1.2-5-3.6-2.3-14.9-2.7-19.9-.6zM22 825.2c-2.4.9-2.5 1.7-.4 3.3 1.5 1 1.2 2-2.5 9.8-2.2 4.8-4.1 9.2-4.1 9.7 0 2.3-5.3 10.5-6.8 10.5-.9 0-1.8.8-2 1.7-.3 1.5.4 1.8 3.5 1.8 4 0 8.4-2.2 6.6-3.3-.6-.4.4-3.5 2.3-7.6l3.3-6.9 5.8-.4c8.6-.6 8.4-.8 9.8 9.3.7 4.4.6 4.7-2 5.3-1.4.4-2.5 1.2-2.2 1.9.5 1.6 16 2.2 18.7.7 2.3-1.2 2.7-4 .6-4-.8 0-1.7-.8-2-1.8-2.4-8.5-5.6-21.4-6.1-24.4-.3-2.1-1.4-4.2-2.3-4.7-2.2-1.1-17.7-1.8-20.2-.9zm11.3 7c.3 1.8.8 4.1 1.2 5 .6 1.6.1 1.8-3.8 1.8-2.5 0-4.8-.4-5.1-.9-.6-.9 1.6-7 3-8.4 1.9-1.8 4.2-.6 4.7 2.5zM99.4 825.1c-.4.7.1 1.8 1.1 2.5 1.4 1.1 1.8 3.4 2.3 14.3.3 9.7.2 13.4-.8 14.6-.7.8-1 2.2-.6 3 .4 1.2 2.8 1.5 13 1.5 6.9 0 13.6-.4 15-1 3.1-1.1 8.2-8.8 6.8-10.2-1.4-1.4-5.1.8-6.3 3.9-.7 2-1.4 2.4-3.2 1.9-1.2-.3-4.6-.6-7.4-.6H114v-6.5c0-6.8 1.2-8.3 3.2-4 1.8 4 4.2 2.7 4.9-2.5.4-2.5.3-5.2-.2-6.2-1.1-2.1-4.6-1.3-5.4 1.3-1.2 3.7-2.5 1.8-2.5-3.7v-5.5l4.7.3c4.7.3 4.8.4 5.4 4.1.7 4.6 1.5 5.4 3.7 4.1 1.3-.8 1.7-2.5 1.7-6.5v-5.4l-14.7-.3c-10.4-.2-14.9.1-15.4.9zM173.2 831.8c-2.4 2-3.2 3.5-3.2 5.8 0 3.3 3.5 10.7 7.7 16.2 3.4 4.5 2.7 9.6-1.8 13.3-3.2 2.6-3.3 4.9-.3 4.9.8 0 3.2-.9 5.2-1.9 6.3-3.2 7.8-9.4 4.2-16.6-2.3-4.5-1.9-5.6 1-3 1.9 1.7 2.2 1.7 3.6.3 1.8-1.8 1.2-5.1-1.6-8.8-1.6-2.1-2.2-2.3-3.7-1.4-1 .7-1.7 1.9-1.7 2.8.3 2.9-2.2 1.6-4.9-2.6-2.2-3.6-2.2-3.8.8-3.8 3.6 0 4.2-2.6 1.5-5.6-1.3-1.3-2.6-2.4-2.9-2.4-.3 0-2.1 1.3-3.9 2.8z"/><path d="M161 845.7c-6.3 2.5-6.9 9.8-.9 12.8 3.9 2.1 5.3 1.9 8.8-1.1 3.4-2.8 4.3-8.2 1.7-10.3-1.7-1.4-7.5-2.3-9.6-1.4zm4.8 6.1c.4 2.4-.7 2.9-2.6 1-1.8-1.8-1.5-4 .6-3.6.9.2 1.8 1.3 2 2.6zM487.7 853.8c-3.2 3.5-1.1 7.7 3.5 7 3-.4 3.8-5.6 1.2-7.5-2.3-1.7-2.8-1.6-4.7.5z"/></svg>