<svg version="1" xmlns="http://www.w3.org/2000/svg" width="666.667" height="1170.667" viewBox="0 0 500 878"><path d="M141.1 6.2c-.6 23.7-3.2 85.1-3.7 88.8-.5 4.1-.7 4.3-2 2.5-.8-1-1.4-2.8-1.4-3.9 0-1.2-.9-6.2-2.1-11.1-1.1-5-2.7-11.9-3.5-15.5-.8-3.6-2.8-11-4.4-16.5-1.5-5.5-3.1-11.3-3.5-12.8-.3-1.6-2.8-5.1-5.6-7.9-4.7-4.7-5.1-4.9-7.2-3.6-1.2.8-3.4 3.9-4.9 6.9l-2.7 5.4 1.9 9c1 4.9 1.7 9.3 1.4 9.6-.2.4.3 2.8 1 5.5.8 2.7 1.9 8.7 2.5 13.4.7 4.7 1.6 10.7 2.1 13.5.5 2.7 1.5 8.4 2.1 12.5 1.6 11 3.5 22 5.8 35 2.3 12.8 5.5 33.5 7.6 48 .7 5.2 2.4 16 3.9 24 6.2 35.2 5.9 32.4 4.3 39.6-.9 3.6-2.4 7.6-3.5 8.8-1.1 1.1-2.7 3.6-3.7 5.5-2.4 4.8-6.5 20.5-6.5 25 0 4.7-7.6 34.8-15.6 61.6-2.2 7.2-6.6 18.6-12.9 33-3.2 7.4-9.5 29-9.5 32.5 0 2.6-1.5 6.9-4.4 12.9-6.4 13.1-12.6 33-12.6 40.9 0 4.1 2.5 10.1 4.2 10.3.7.1 2.2.2 3.3.3 1.7.1 2 .7 1.7 4.1-.2 2.2-1 5.9-1.8 8.3-1.9 5.7-1.9 22.4 0 26 .8 1.5 2.8 3.9 4.5 5.5 3.3 2.9 3.4 3.2 3.1 12.2-.1 4.3.5 7.4 2 10.9 1.3 2.8 2 5.9 1.7 7.5-.3 1.4.1 6.2.9 10.6 1.7 9.5 1.7 10.5.4 10.5-.5 0-1.4-1.9-2-4.3-2.3-8.5-10.6-19.2-20.8-26.9-7.2-5.4-10.2-6.4-20.3-7.3-10.5-.8-19.6 1.4-32.7 7.8L0 548.4v158.3l2.5 1.1c1.4.6 2.5 1.5 2.5 2s3.4 3 7.5 5.6c6.4 4.1 8.1 4.7 11.7 4.4 3.7-.3 4.3 0 4.6 1.7.5 3.3-6.2 7.1-13.6 7.8-6.8.6-15.2 4.1-15.2 6.3 0 1.6 1.2 1.8 2.5.5.6-.5 5.7-1.7 11.5-2.5 7.1-1.1 10.9-2.1 11.7-3.2.6-.9 1.6-1.4 2.2-1.3.5.2-.2 1.7-1.5 3.3-2 2.3-3.7 3-8.7 3.6-3.4.5-8.7 1.7-11.7 2.8l-5.5 1.9-.3 4.6c-.3 3.9 0 4.7 1.5 4.8 4.9.3 7.4.9 10.4 2.4 3.4 1.8 3.1 2.4-1.9 4-2.1.6-2.3.5-1.3-1.3 1.4-2.7.4-3.2-4.7-2.5-3.6.5-4.2.9-4.2 3 0 2 .4 2.2 2.5 1.7 1.9-.5 2.5-.2 2.5 1 0 .8-1.1 1.8-2.5 2.2-1.6.4-2.5 1.3-2.5 2.5 0 2.5 3.6 2.5 5 0 1.7-3.3 10.2-5.4 18.4-4.7 18.5 1.7 22.6 1.8 22.6.7 0-.6-.5-1.1-1.2-1.1-1.9 0 .5-1.8 2.7-2 3.7-.4 4.5 0 3.8 1.7-.5 1.3-.2 1.5 1.7 1 1.3-.3 3-.1 3.8.6 2.1 1.7 12.9 1.2 17.6-.8 2.7-1.1 4.2-1.3 4.9-.6 1.2 1.2 1.1 1.2-7.4 3.6-3.1.9-6.5 2.5-7.4 3.5-1.4 1.5-2.1 1.7-3.2.9-1.8-1.5-3.9.3-4.6 3.9-.7 3.3-7.2 10.1-11 11.4-2.1.8-2.7 1.6-2.4 2.9.3 1.2 0 1.9-.8 1.9-2.1 0-2.7-1.7-1.4-4.2.9-1.7.9-2.4-.5-3.3-2.3-1.7-2-4.3.7-4.7 2.3-.3 3.2-3.8 1.1-4.5-1.5-.5-7.4 5.1-7.4 7 0 .9-.4 1.8-.9 2.2-.5.3-1.2 1.9-1.6 3.5-.7 3.3-2.1 3.1-3.5-.6-1.1-2.8-3.5-3.2-4.4-.8-.4.9-.9 1.4-1.3 1.1-.7-.8-5.6 1.7-7.2 3.7-1.7 2-3.1 2.1-3.1.2 0-.8-1.3-1.7-3-2.1-1.7-.4-3-.9-3-1.1 0-1.2 3-6.2 4.4-7.3 2.3-1.9 2-3.4-.5-2.6-1.8.6-1.9.5-.8-1.4.8-1.1 1-2.3.6-2.7-.9-1-4.5 2.4-5.3 5-.4 1.1-1.7 3.1-3 4.3-2 1.8-2.4 3.2-2.4 7.9v5.7l2.6-2.3c2.1-2.1 2.7-2.2 3.4-1 1.4 2.2 1.3 2.5-2.5 5.9-3.3 2.9-3.5 3.4-3.5 9.6v6.5l5.3-.2c2.8-.1 5.5-.6 5.8-1.1.4-.5 1.6-.3 2.8.5 1.9 1.1 2.4 1.1 3.6-.5 1.3-1.8 1.4-1.8 2.3 0 1 1.7 1.1 1.7 1.7 0 .9-2.1 2.5-2.3 2.5-.2 0 1.6 1.6 2 2.4.6.3-.5 2.5-.7 4.8-.4 3.3.5 4.4.2 5.5-1.2 1.2-1.8 1.3-1.8 1.3.3 0 2 .3 2.1 2 1.2 1.4-.7 2.6-.8 3.9 0 2.6 1.3 4.9.3 5.4-2.3l.4-2.2.8 2.3c.6 1.8 1 2 2.1 1.1 1.1-.9 1.4-.8 1.4.2 0 1.8 1.7-.1 2.2-2.6.4-1.8.6-1.7 1.6.8 1.5 3.5 2.9 3.4 3.7-.3.8-3.7 2.5-4 2.5-.4 0 1.4.4 2.3 1 1.9.5-.3 1-1.7 1-3.1 0-1.3.5-2.4 1-2.4.6 0 1 1.6 1 3.6 0 3.8 2.2 4.4 2.8.8.7-3.5 2.2-3.9 2.2-.6 0 1.8.5 3.2 1 3.2.6 0 1 .7 1 1.5 0 1.6.7 1.5-35 1.7-6.3.1-14.9 0-19 0-16.2-.3-21 .1-21 1.6 0 .9.6 1.2 1.6.8.9-.3 113.4-.6 250-.6s248.4-.4 248.4-.8c0-.5-15.4-1-34.1-1.1-24.7-.1-34.8-.5-36.5-1.4-1.3-.7-3.5-2.8-4.9-4.7l-2.5-3.4 2.5-1.3c1.3-.8 2.9-2.3 3.5-3.4 1.6-2.9-.1-4.5-5.7-5.2-5.1-.5-7.4-2.6-6.6-5.8.4-1.4.1-1.8-1-1.4-.9.4-1.3 1.4-1 2.6.7 2.4-.4 2.4-4.4-.1-2.1-1.2-3.1-2.6-3-3.9.1-1.2.4-2.1.8-2.1s.6-.7.5-1.6c0-.9 1.2-2.6 2.7-3.8 2.5-1.9 4-2.1 13-1.9 7.6.2 10.7-.1 12.4-1.2 3-2 2.9-4.3-.2-5.7-1.3-.6-2.2-1.5-1.9-2 .3-.4 1-.6 1.5-.2.5.3 6.6.8 13.5 1 12.7.4 15 0 18.4-3.5.8-.9 1.2-1.2.8-.7-.3.4-.4 1.4-.1 2.2.3.8-.9 1.9-3 2.8-7.2 3-6.9 8.6.4 8.6 5.4 0 6.1 2 .7 2.2-2.4 0-5 .1-5.8.2-1.1.1-1.5 1.4-1.6 4.9-.1 3.2.2 4.7 1 4.4.6-.3 1-.9.9-1.5-.2-.7.4-.9 1.3-.5.9.3 3.2.6 5.3.7 5.2.1 4.4 1.9-1.4 3.1-4.6 1-5.2 1.5-7.2 5.5l-2.1 4.5 2.4.8c1.3.5 2.2 1.3 1.8 1.8-.3.5-.1.9.5.9s1.3-1.2 1.7-2.8c1-4.7 1.2-4.9 4.4-6 2.8-1 3.2-.9 4 1.4 1.5 3.8 1.2 7.4-.5 7.4-.8 0-1.5.8-1.5 1.8 0 1.3 1.3 2.3 4 3.2 2.2.7 4.3 1 4.7.7.9-.9.9-8.5-.1-12.4l-.7-3.2 10.1.3c8.9.3 10.2.1 11-1.5 3.4-6.2-.8-9.2-12.6-9.1-9.8.1-10.6-.8-1.3-1.4 7.3-.5 8.9-1.2 6.5-3-1.2-.8-3.7-1.1-7.4-.7-4.2.3-5.3.2-4.2-.6.8-.6 3.8-1.1 6.5-1.1 6.3 0 9.5-.9 9.5-2.5 0-1.5-6.4-2.5-9.9-1.6-3.1.9-9.2.1-8.5-1 .3-.5 2.2-.9 4.2-.9 5.5 0 11.2-1.9 11.2-3.6 0-1.3-1.4-1.5-7.5-1.3-7.9.2-9.1-.1-8.2-2.4.4-1.1 1.6-1.2 4.9-.7 5.6.8 6.8.4 6.8-2.4 0-2.5-1.8-5.1-4-5.9-.8-.3.8-.6 3.6-.6 3.9-.1 6 .5 8.8 2.4l3.6 2.4V554.8l-10 .4c-11 .3-13.5 1.5-10.6 4.6 1.6 1.9 1.5 2-2.2 2.6-4 .6-5.8 1.9-6.4 4.6-.2 1.1.9 1.6 4.7 2 4.3.4 5 .8 5.3 2.9.3 1.8 0 2.2-1.2 1.8-2-.8-18.7 2-20 3.3-1.3 1.3 1.4 4.2 3.4 3.7 2.2-.6 5.2 1.1 4.4 2.4-.3.6-2.7 1-5.3.9-6.8-.4-8.5-.1-10.5 1.3-1.8 1.3-1.8 1.5.3 3.4 1.8 1.6 4.2 2.3 11.1 2.8 8.8.7 8.8.7 8.7 3.4-.2 2.1.3 2.7 2.6 2.9 5.1.6 2.7 1.9-4.5 2.5-8.7.6-11 1.4-10.6 3.6.2 1.1 1.6 1.7 4.2 1.9 3.8.3 3.9.4 1.4 1.6-1.3.7-6.2 1.9-10.7 2.6-9 1.4-13.6 3.9-11.3 6.1.8.8 4.4 1.4 9.5 1.6 4.5.1 9.3.6 10.7 1.1l2.4.9-2.2 1.2c-1.2.6-7.2 1.4-13.4 1.8-11.9.6-17.8 2.2-17.8 4.7 0 1.7 1.3 2 7.1 1.7 2.1-.2 5.4.6 7.8 1.8 2.2 1.2 5.4 2.1 7 2.1 2.3 0 4.1 1.1 7.3 4.6 2.3 2.5 6.1 5.7 8.5 7.1 6.3 3.7 8.1 8.3 3.3 8.3-3.8 0-3.6 3.9.3 5.8 3.6 1.7-.5 1.4-4.8-.3-2-.9-4.5-1.3-5.5-1-1.1.3-2.9-.4-4.8-2-3.2-2.7-7.9-3.3-11.3-1.4-1.5.8-1.9 1.9-1.7 4.2.3 2.7 0 3.2-1.7 2.9-7.5-1.2-13.5 0-13.5 2.7 0 3 2.8 4.5 8 4.3 6.7-.3 8.3 1.8 3.5 4.7-1.9 1.1-3.5 2.5-3.5 3 0 1.5 5 5.1 7 5.1 2.2 0 2.8 3.3 3.2 17.5.3 8.5.1 9.9-1.2 9.6-.8-.2-2.6-.6-4-.8-1.5-.3-3.3-1.7-4.2-3.4-2.1-3.6-4.4-3.6-8.8.1-2.2 2-4.5 3-6.6 3-5.9 0-6.2-.5-5.6-7.6l.5-6.5-4.9-4.5c-9.4-8.7-10.6-9.4-17-9.5-7.7 0-16.5-1.7-18.5-3.6-.9-.8-1.5-2.2-1.2-3.2.3-1.1 0-2.2-.6-2.5-.6-.4-1.1-3-1.1-5.9 0-2.8-.4-10.1-1-16.1-.5-6.1-1.1-16.1-1.2-22.3-.3-10-.1-11.2 1.4-11.7 1.4-.3 1.8-1.5 1.8-4.9 0-4.8 1.8-7.3 5.9-7.9 1.3-.1 2.9-1.1 3.5-2 .9-1.5.2-2.6-3.7-6.6l-4.8-4.9-.2-7.9c-.1-8.3.4-9.7 5.6-17.5 3.9-5.7 9-9.4 15.1-11 4.5-1.1 4.8-1.1 7.5 1.5 2.4 2.3 3 2.5 4 1.2.7-.9 1-2.4.6-3.7-.6-1.9-.4-2.1 1.8-1.5 2.1.5 2.9.1 3.8-1.6.6-1.3 1.3-2.5 1.5-2.7.2-.2 1.5.6 3 1.8 3.5 2.8 4.6 1.8 3.8-3.4-1.5-10.5 4.2-21.8 13.8-27 4.6-2.5 6.6-3 15.1-3.3 11.7-.5 17.1 1.3 24.2 8.2 5.1 4.8 8.9 13.5 7.5 17.1-.4 1.2-.4 2.8.1 3.7.8 1.5 1.2 1.5 3.6.3 2.7-1.4 6.7-1.1 9 .7 2.4 1.9 3.5.3 1.6-2.1-1.5-1.8-2.9-2.3-6-2.3l-4 .1-.6-4.9c-.8-6.7-2.6-9.7-8.9-15.1-6.9-5.9-12.4-8-22.5-8.6-8.9-.5-14.6.8-22.7 5.3-7.5 4.2-15.4 13.8-18.6 22.6-1 3-8.2 7.2-14 8.1-9.2 1.4-24.9 12.3-26.3 18.2-.3 1.1-.5-.1-.6-2.7 0-2.6.5-6.2 1.3-8 4-9.3 7.7-19.8 7.2-20.6-.3-.5.6-4.5 1.9-8.8 1.4-4.4 2.9-10.9 3.4-14.4 1.7-11.1 3-18.4 4.1-21.9.5-1.8.6-4.1.1-5-.5-.9-1.1-4.5-1.4-8.1-2.7-28.4-3.5-32.3-12.9-61.4l-9.2-28.1-.1-13c-.1-7.2-.5-15.9-.9-19.5l-.9-6.5 3.4 3.2c6.4 6 17.3 8.7 21.5 5.3 2.5-2.2 1.5-3-2.9-2.4-3.2.5-5.4.1-9.1-1.7-5.4-2.5-8.1-6.2-9.2-12.3-.3-2.3-1.5-4.9-2.5-5.9-1.8-1.7-1.9-3.8-1.9-35.6 0-18.6-.3-39.2-.6-45.8l-.7-12 3.3-1.2c5-1.7 7.3-1.4 16.3 2 10.7 4.1 19.2 12.2 22.7 21.4 4.4 12.1 5.7 30.4 2.6 38.5-1 2.5-2 5.5-2.3 6.7-.5 2-.3 2.1 3.3 1.1 10.2-2.6 14.9-1.5 17.9 4.2 1.9 3.7 1.9 6.3 0 10-1.6 3.1-.5 5 1.9 3.1.8-.7 1.6-.7 2.3 0 .6.6 1.9.6 3.4.1 1.3-.5 3.9-.7 5.7-.5 2.5.4 3.2.2 3.2-1.1 0-1.9-4-3-8-2.2-2.8.5-3 .4-3-2.8 0-4.6-2.2-9.5-5.9-13-2.3-2.2-4.3-3-8.8-3.5-6.4-.7-6.1 0-4.5-9.9 1.1-6.5-.8-23.7-3.4-30.5-1.1-2.6-4.4-8-7.4-11.8-4.9-6.2-6.5-7.6-14.5-11.5-7.4-3.7-10.1-4.5-15-4.6-3.3-.1-6.9.1-8 .3-1.8.4-2.1-.3-2.7-5.6-.4-3.3-1.4-35.7-2.3-72-1.7-72.3-3.1-119.3-4.1-141.3L356.7 0H141.3l-.2 6.2zm34.7-2.4c2.3.4 4.3 1.1 4.3 1.7-.1 1.5 4.6 2.5 11.4 2.4 9-.1 36.8 1.1 38.7 1.7 1 .3 2.7 0 3.9-.7 2.1-1.1 15-2.4 23.4-2.3 16.6.1 46.9 1.5 48.3 2.3.9.4 3.4 1.1 5.5 1.5 3.8.7 4.3 2.6.6 2.6-2.6 0-2.4 1.6.4 2.4 3.8 1 4.7.7 5.7-1.9 1-2.6 1.8-2.9 4.3-1.9.9.3 1.2 1.4.9 2.9-.5 2.8-3.9 3.8-11.1 3.3-2.6-.2-4.5.2-4.8.8-.4 1.1 17.9 2.9 35 3.3 7.6.2 7.7.2 8.9-2.6 1.2-2.6 1.3-2.3 1.6 4.1.2 3.7 0 7.1-.3 7.5-1 .9-28 .7-28.3-.3-.1-.4 5.5-1 12.4-1.2 11.6-.3 16.2-1.3 15-3.3-.5-.7-34.6-.5-35.3.3-.3.2.7 2.2 2.1 4.3 4.3 6.5 6 17.3 4.1 26.9-.9 4.3-8.4 12.2-14.5 15.2-5.5 2.8-6.5 3-14 2.5-5.5-.4-8-.2-8 .5 0 1.7 3.1 3 7.8 3.5 4.6.4 6.9 1.7 3.1 1.7-3.3 0-5.3 1.5-4.6 3.4.4 1 1.8 1.6 3.7 1.6 2.6 0 3 .4 3 2.7 0 3.2.7 4.4 3.4 5.8 2.8 1.6 2 3-1.7 3.1-5.9.1-6.6.4-7.8 2.5-.8 1.7-.8 2.3.2 2.9.7.5 1.4 1.5 1.5 2.4.1.9 1.9 3.2 4 5.2l3.9 3.6-2.8 2c-1.5 1.1-2.7 2.8-2.7 3.8 0 2.2 8.2 9 10.9 9 3.1 0 2.6-1.5-1.4-4.6-4.2-3.2-4.8-5.9-1-5 1.9.5 2.7.2 3.2-1 .6-1.5.7-1.5 2 .1 1.1 1.6 1 2.1-.3 3.7-1.5 1.6-1.5 1.8 0 2.4 4.9 1.9 6.1-3.3 2.1-9.2-1.4-2-2.5-4.2-2.5-4.9 0-1.7 11.9-12 13.5-11.7.8.1 1.9-.7 2.5-1.8 1.5-2.8 5.4-2.8 4.7.1-.7 2.5 1.1 3.3 4.6 2 1.5-.6 4.7-.8 7.1-.5l4.4.6.7 6.5c.6 5.7 1 6.5 3.2 7.4 2 .7 2.3 1.3 1.5 2.1-2.1 2.1-1.3 5.5 1.6 7.6 2.3 1.7 2.4 2.2 1.1 2.7-1.1.4-1.5 1.3-1.1 2.7.4 1.7.1 1.9-1.6 1.4-1.9-.6-2.6.1-5.2 5.5-3.8 8-6 10.3-11.3 11.9-2.3.7-5.1 1.6-6.2 2.1-1.1.6-3.1.8-4.5.7-1.7-.2-2.5.2-2.5 1.2 0 2.1 4.5 2.9 8 1.4 4.3-1.8 13.1-4.4 14.9-4.4.9 0 1.6.4 1.6 1 0 .5-1.3 1-3 1-2.1 0-3 .5-3 1.6 0 1.3 1.3 1.5 7.7 1.3 5.1-.1 7.8.2 8.1.9.2.8-1.7 1.2-6.2 1.2-3.5 0-7.6.4-9.1 1-2.3.9-2.5 1.4-1.9 4.5 2 11-14.9 16.8-21.8 7.5-1.2-1.7-2.8-3-3.5-3-1.8 0-1.6.9.7 4.8 1.1 1.8 2 3.5 2 3.8 0 .3-1.8.4-4 .2-2.3-.2-3.8.1-3.7.7.1.5 3.1 1.1 6.7 1.2 3.6.1 9.1.5 12.2.9 4.8.5 6.1.3 8.5-1.4 2.4-1.7 4.3-2 11.8-1.9l9 .2v11.9c0 9.3-.3 12-1.4 12.4-1.1.4-1.3-.2-.8-2.6.5-2.3.2-3.4-1.1-4.2-1.2-.8-1.4-1.3-.4-1.6.6-.3 1-1 .6-1.5-.3-.5-1.1-.6-1.7-.2-.7.4-2.5.8-4.1.8-4 0-4.4 2-.6 3.3 3 1.1 3 1.2 3 8.2 0 4.4-.6 8.2-1.5 10-1.8 3.5-7 7.6-10.7 8.5-3.8 1-3.6 3.5.1 3.5 3.6 0 5 1.7 1.9 2.2-1.7.2-2.2.9-2.1 2.5.2 1.4-.5 2.7-1.7 3.3-2.8 1.5-4 .5-4-3.3 0-1.8-.4-3.8-.9-4.6-1.3-2-3-.5-2.4 2.1.4 1.4 0 2.6-1.2 3.4-2.6 1.9-3.2 1.8-4-.9-.6-1.9-.8-2-1.2-.4-.8 2.9.4 4.7 3.1 4.7 1.4 0 3.7 1.1 5.3 2.6 2.4 2.2 2.5 2.8 1.5 4.5-1.1 1.7-1 2.6.8 5.5 1.2 1.9 2.4 3.4 2.7 3.4.3 0 1.8-1.1 3.5-2.5 3.2-2.7 7.2-3.3 8.5-1.3.4.7.9 2.8 1 4.7.3 4.4 1.7 5.9 3.8 4.1 1.4-1.2 1.8-1.1 2.6.1.5.8.7 2.4.4 3.7-.4 1.8-.1 2.5 1.5 2.9 1.3.4 2 1.4 2.1 3.2 0 1.4.2 5.1.3 8.1.6 10.9-1.1 12.5-6.3 6-2.5-3.1-3.9-4-6.2-4-3.8 0-3.4 2.1.6 3.2 3.3.8 4.5 2.3 4.5 5.8 0 1.5.6 3.2 1.3 3.9 1 1.1.7 1.2-1.3.5-4.1-1.2-6.4-.7-8.8 2.3-3.4 4.2-5.5 6.3-6.3 6.3-1.1 0-13.6-23.1-15-27.7-.7-2.4-2.3-5-3.5-5.8-1.3-.8-3.5-3.7-4.8-6.3-1.3-2.6-4.3-6.5-6.5-8.6-3.8-3.7-4-4.3-3.4-8 .3-2.3 1.1-5.2 1.8-6.6.6-1.4 1.1-3.9 1-5.5-.1-2.4-.6-3-2.4-3-1.2 0-2.5-.5-2.9-1.1-.4-.6-2.7-1.4-5.2-1.8-3.8-.6-17.7-5.7-22.9-8.5-2.1-1.1-2.5-3.1-.7-3.1.9 0 1.6-.7 1.6-1.6 0-.9 1-2.4 2.3-3.4 2-1.7 2.1-1.9.4-2.6-1.2-.4-2.6.1-4.1 1.5-2.1 2-2.4 2-3 .5-.9-2.4 1.2-4.4 4.5-4.4 3.2 0 4.8-1.8 2.8-3.1-.8-.5-2.9-.9-4.6-.9-2.3 0-3.3-.5-3.3-1.5 0-2 2.8-3.1 4.3-1.6.6.6 2.8 1.1 4.8 1.1 4 0 5.9 1.4 3.4 2.4-2.5.9-3.9 5.7-2.1 7.4 1.6 1.6 3.8.8 3-1.2-.3-.7.1-1.8.9-2.4 1.1-.9 2.2-.8 4.8.5 5.5 2.7 9.1 8.3 5.4 8.3-2.1 0-3.1 3-1.4 4.1 2.7 1.7 5.8.9 8.1-2.1 2.6-3.5 4.3-3.9 3.5-.8-1.3 4.8 5 6.7 7.8 2.4 1.4-2.1 1.4-2.6-.7-6.5-1.2-2.2-2.5-4.1-3-4.1-.4 0-.8-1.1-.8-2.5 0-3 1.6-3.3 2.3-.5.4 1.4 1 1.8 2.2 1.4 1-.4 2.2.1 3.1 1.4.8 1.2 2.1 1.9 2.9 1.6 1.7-.7 2 1.7.5 3.2-1.6 1.6.5 6.3 4.8 10.6 2 2.1 4 3.8 4.4 3.8 1.7 0 .7-3-1.7-4.8-2.9-2.3-3.2-5.7-.9-9 1.2-1.7 1.3-2.6.4-3.7-1.4-1.6.1-2.7 2-1.4 2.1 1.3 3 1.1 3-.5 0-.8-1.3-1.7-3-2.1-1.6-.4-3-1-3-1.5 0-1.1 4.9-1.9 5.6-.9.8 1.4 2.6 1.1 2.2-.4-.3-.6-2-1.7-3.9-2.4l-3.4-1.1 2.9-.7c1.8-.5 3.6-.3 4.9.4 2.6 1.7 4.6-.1 2.7-2.4-1-1.3-.9-1.5.8-1.5 1.1 0 2.2.7 2.6 1.5.8 2.2 2.6 1.9 2.6-.4 0-1.1.5-2.3 1-2.6 2.8-1.7-1-2.5-9.8-2-5.3.2-13.1.1-17.2-.3-6.8-.6-7.5-.9-7.8-3-.3-2-.7-2.2-3.7-1.6-4.2.7-6.1-.2-4.4-2.2.6-.8 2-1.4 3-1.4 1.1 0 2.4-1.1 3.1-2.5.9-2 .8-2.8-.5-4.3-2.1-2.3-1.2-3.5 1.4-1.9 1 .6 2.1.8 2.5.4.6-.6-1.4-6.7-2.3-6.7-.9 0-7 4.7-11 8.4-3.6 3.4-4.5 3.8-7.5 3.2-1.8-.4-4.8-1-6.7-1.3-2.5-.4-3.6-1.3-4.6-3.8-.8-1.7-2.1-3.7-2.9-4.5-2.3-1.8-2-4.9.9-9.5 2.9-4.7 3-6.2 1-11.3-1.7-4.1-8.2-8.6-11-7.6-.8.4-1.5.1-1.5-.5 0-.7-.7-1.4-1.6-1.8-2.2-.8-8.3-7.5-8.4-9.1 0-.7-1-1.7-2.2-2.1-2.3-.9-2.2-.9.5-1.6 1.9-.5 2.6-1.2 2.3-2.2-.4-.9.1-1.7 1.4-2 2.1-.6 2.7-3.7.9-4.9-.6-.3-1.6-.1-2.2.5-.6.6-2.6 1.1-4.4 1.1-3.2 0-3.3.2-2.9 3.2.2 1.8.5 3.7.6 4.3 1.2 5.4-2.2 8-5.4 4.1-3.2-3.7-5.8-4.6-14.1-4.6-8.1 0-12.3 1.3-17 5.2-1.7 1.4-4.8 2.7-7.4 3.1-2.7.3-5.7 1.7-8.1 3.6-4.4 3.5-5.6 2.8-4.1-2.6 1.1-3.9.1-6.3-2.5-6.3-1.9 0-1.8-2.9.1-3.6.8-.4 1.5-1.2 1.5-2 0-1.7-4.1-1.9-5.8-.2-1.4 1.4-1.6 5.4-.3 6.3 1.7 1 4.2 7 3.1 7.3-1.5.5-1.2 3.3.7 5.4.9 1 1.4 2 1.1 2.3-.3.3-3.1 1-6.4 1.6-6.4 1.2-9.1 2.9-9.6 6.3-.2 1.3-1 2.1-2.2 2.1-3.4 0-2.8 1.9 1.8 5.8 4.5 3.7 6.6 8.1 8.1 16.9.5 3.5.4 3.8-1.8 3.8-1.3 0-3.2.7-4.3 1.5-1 .8-3.5 1.4-5.4 1.5-4 0-10-3.2-10-5.4s-3-4.8-4.4-3.7c-.7.5-2.1.5-3.6-.1l-2.5-.9 2.5-1.9c2.4-1.9 2.3-2.2-.9-2.4-.8-.1-1.6-.7-1.9-1.5-.4-1.1.4-1.3 3.6-.8 4.6.6 6.9-1.1 5.7-4-2.3-5.2-.6-7.3 5.5-7.3 3.5 0 3.7-1.8.3-3.5-1.2-.6-2.8-1.7-3.7-2.4-.9-.7-2.3-1-3.2-.7-.9.4-3.6-.5-6.1-1.9-2.5-1.4-5.2-2.5-5.9-2.5-1.8 0-1.7-1 .1-3.4 1.9-2.6 1.9-6.1-.1-9-1-1.6-1.2-2.6-.5-3.1.6-.3 1.1-2.4 1.1-4.6 0-2.9-.4-3.9-1.6-3.9-1 0-1.4-.6-1.1-1.5.4-.8.2-1.7-.3-2-2.1-1.3-.9-2.7 1.6-2.1 2.6.7 3.5.2 8.2-4.7.9-.9 2.2-1.7 3-1.7 1.9 0 2.5-2.5 1.2-4.9-1-2-.8-2.1 2.7-2 4.2.1 14.5 1.6 12.6 1.8-.7 0-1.3.5-1.3 1.1 0 1.6 4.7 1.2 5.4-.5.9-2.4 2.4-1.7 2.8 1.1.2 1.5 1.2 3.2 2.3 3.8 2.4 1.3 4.5 3.9 6.5 8 1.7 3.5 2.8 3.8 4.3 1.5.8-1.3.5-2.3-1-4.3-2.6-3.2-1.8-8.9 1.2-9.4 1.8-.3 1.9-.2.3.8-1 .6-1.8 1.6-1.8 2.1 0 .6.8.8 1.8.5.9-.3 2.4-.1 3.2.4 1.2.8 1.2 1-.3 1.6-2.7 1-2 2.7.9 2 2.2-.6 2.5-.4 2.2 1.6-.2 1.9.2 2.3 2.2 2.3 2.2 0 2.5-.4 2.3-3.5-.1-2.1-.9-4.1-2.2-5.1-1.2-1-2.1-2.7-2.1-3.8 0-1.6.6-2.1 2.8-2.1 4 0 5.6-1.9 3.5-4.2-.9-1-2.4-1.8-3.4-1.8-2.2 0-3-1.2-1.9-2.9.5-.9 1.9-1.2 3.9-.9 3 .4 4.4-1.3 2.1-2.7-1.5-.9-1.2-2.5.5-2.5.9 0 2.9.7 4.5 1.5l3 1.5-2.1 2.1c-1.6 1.6-2 3-1.6 5.8.2 2.1.7 4.4 1.2 5 .4.7-.1 1.8-1.1 2.6-1.8 1.3-1.7 1.4.8 2.5 3.1 1.4 5.8.8 5.8-1.4 0-.8 1.1-2.7 2.4-4.1 1.9-2 2.9-2.4 4.2-1.7 1.1.6 1.3 1.1.5 1.6C222 95.7 223 97 226 97s4-1.3 2-2.5c-.8-.5-.7-1.1.1-2.1.9-1.1.6-1.5-1.2-2.2-5.6-2.1-5.5-2-3.7-2.1.9-.1 2.1-.8 2.6-1.7 1.3-2.4 5.6 0 4.9 2.7-.7 2.4 1.5 3.6 7.1 3.8 6.9.2 8.4 1.7 2.3 2.3-6 .6-6.9 1.2-5.1 3.3 1.4 1.7 4 2 4 .5 0-.6.7-1 1.5-1 1 0 1.7 1.4 2.1 4 .5 3.1 1.4 4.5 4 6.1 3.6 2.2 4.8 1.9 7.8-1.8 1.7-2.3 1.9-2.3 3.1-.6 1.3 1.7 1.5 1.7 4.2-.3 3.9-2.9 3.7-5-.4-4.6-3.1.2-3.3 0-3.3-2.8 0-2.9.1-3 5-3 3.5 0 5.2.5 5.8 1.7.5.9 2.2 1.7 3.8 1.8 1.6 0 4 .5 5.3.9 2.1.7 2.3.6 1.8-1.3-.6-2.4-.3-2.5 2.3-1.1 3 1.6 3.3-.6.4-2.9-2.4-1.9-4-2.1-16-2.1-11.2 0-13.4.2-13.4 1.5 0 2.3-1.7 1.8-2.3-.7-.8-2.7 1-4 4.3-3.2 3.1.7 25.8.6 27.1-.2.5-.3 1.3.6 1.9 2 .5 1.4 1.4 2.6 1.9 2.6 2.8 0 2.3-12-.6-15.2-1-1.1-1.7-3.9-1.9-7.1-.1-2.8-.5-6-.9-7-1.4-3.6 0-4.6 5.8-4 4.9.5 5.5.3 5.9-1.5.5-1.6 1.5-2.1 4.9-2.4 2.4-.2 4.4-.9 4.7-1.6.3-1-.8-1.3-4.9-1.1-3.1.2-5.3-.1-5.1-.6.1-.6 2.2-.9 4.6-.7 4.4.4 8.6-1 8.6-2.8 0-.6-2.7-1-6.1-1-4.4 0-6-.3-5.7-1.3.6-1.6 8.9-2.8 10.6-1.4 1.7 1.3 3.2-.7 3.2-4.3 0-5.6-2.3-10.6-6.9-15.1-4.2-4.1-5.5-4.7-11.1-5.5-5.9-.8-6.4-1.1-7.2-3.8-.9-3.7-.3-4.4 2-2.3 2.3 2.1 6.8 2.2 7.9.2.6-1 2.9-1.5 7.1-1.7 6.3-.2 8.3-1 6.1-2.4-2.4-1.4-47.9-2.3-48-.9 0 1.2 4.8 2.2 14.4 3.1 11.2 1 6.5 2.3-6.3 1.8-10-.5-12-.3-12 .9 0 1 2 1.6 7.7 2.1 4.2.3 8.2 1.1 8.8 1.7 1.6 1.7-13.4.4-17.1-1.5-2.4-1.2-7.5-1.6-25.3-1.9-12.2-.1-22.4 0-22.7.4-.8 1.4 2.1 2.3 7.8 2.5 6.8.3 8.4 1 6.8 2.9-1.8 2.2-.2 3.7 3.1 3 3.2-.7 3.6.1 1.6 2.9-1.2 1.6-1.4 1.6-2.6.2-.8-.9-2.1-1.6-3.1-1.6-.9 0-2.7-.9-4-2-1.7-1.5-3.7-2-8-2-7.2 0-11.3 1.4-17.2 5.8-5.5 4.2-6.2 7-2.2 9.9 2.5 1.8 2.5 1.9.3 2-4.8.4-3.3 3.3 1.7 3.3 1.9 0 3.4.4 3.4 1 0 .5-1.3 1-2.9 1-2.7 0-4.9 1.5-3.9 2.6.3.2 4.9.6 10.3.9 5.4.3 10 .7 10.2.9.3.2-2.6.7-6.4 1.1-8.7.8-12.5 1.7-13.1 3.3-.2.8.8 1.2 3.1 1.2 3 0 3.4.3 3 2-.4 1.6 0 2 1.8 2 1.3 0 3 .9 3.7 2 1.7 2.8 10.2 2.9 10.2.1 0-2.7 3.3-3.2 6.7-1 3.4 2.3 3.6 4.3.5 4.7-1.4.2-2.2.9-1.9 1.6.3.7-.3 2.3-1.3 3.7-1.8 2.3-2.3 2.4-13.2 2.3-18.8-.3-25.5-4-30.5-17.1-2.8-7.2-2.8-10.9-.3-17.4 1-2.9 1.8-5.5 1.6-5.8-.2-.3-3.2-.6-6.5-.6-3.4.1-6.1-.2-6.1-.6 0-.4 2.9-1.1 6.5-1.4 6.1-.7 7.8-1.6 5.5-3-1.8-1.1 0-2.5 3.1-2.5 3.3 0 3.9-1.6.8-2.5-3.9-1.3-1.2-2.8 5.6-3.2 7.4-.4 8-.6 7.1-2.1-.4-.7-7.3-.8-18.4-.6-13.4.4-17.3.2-15.9-.6 2.5-1.6 33.2-3.3 35.7-2 2.4 1.3 16 1.3 18 0 5.6-3.5-10.4-4.7-41-3-9.6.6-17.8 1.4-18.4 2-.6.6-.4 1.5.4 2.5 1.2 1.5 1.1 1.6-2.2 1.9-.7.1-1.3-1.6-1.4-4l-.2-4.1 14.7-.7c8.1-.4 15.5-.4 16.4 0 1 .3 1.7.1 1.7-.5 0-1.8-4.6-3.1-10.6-3.1-3 0-5.4-.5-5.4-1 0-1.1 8.2-1.2 14.8-.2zm-28.1.8c-.3.3-1.2.4-1.9.1-.8-.3-.5-.6.6-.6 1.1-.1 1.7.2 1.3.5zM309 5c0 .5-.4 1-.9 1-.6 0-1.3-.5-1.6-1-.3-.6.1-1 .9-1 .9 0 1.6.4 1.6 1zm21.4.5c1.1.8 3.4 1.5 5.2 1.5 2.9 0 3.3.4 4.1 3.7.8 3.3 1.3 3.9 4.3 4.3 1.8.3 3.5 1 3.7 1.6.4 1.2-17.8 2.6-20.4 1.6-2.8-.9.1-2.2 3.7-1.6l3.8.6-.1-3.8c-.1-4.8-.9-5.4-7.3-5.4-5.6 0-6.9-.7-5.3-2.7 1.5-1.7 5.9-1.6 8.3.2zm22.3.1c.2.5-2.6 1-6.2 1-6 .2-7.5-.3-5.9-1.9 1-.9 11.8-.1 12.1.9zm.3 7.6c0 1.9-.2 2-1 .8-1.3-1.9-1.3-3 0-3 .6 0 1 1 1 2.2zM157.5 21c.3.5.1 1-.4 1-.6 0-1.1-.5-1.1-1 0-.6.2-1 .4-1 .3 0 .8.4 1.1 1zm13 0c.4.6-1.1 1-3.7 1-3.1 0-3.9-.3-2.8-1 2-1.3 5.7-1.3 6.5 0zm111 0c-.3.5-1.2 1-2 1s-1.7-.5-2-1c-.4-.6.5-1 2-1s2.4.4 2 1zm-54.2.7c-.7.2-1.9.2-2.5 0-.7-.3-.2-.5 1.2-.5s1.9.2 1.3.5zm13.3 3.3c.8 0 1.4.4 1.4.8 0 .5-1.9.7-4.2.6-6.6-.2-7.6-.6-4.3-1.4 1.7-.4 3.6-.6 4.3-.4.8.2 2 .4 2.8.4zm24.4 0c0 .5-.7 1-1.6 1-.9 0-2.3.8-3 1.7-1.6 2.2-2.8 1.2-1.9-1.6.4-1.5 1.5-2.1 3.6-2.1 1.6 0 2.9.4 2.9 1zm-118 1c1.2.8 1.1 1-.7 1-1.3 0-2.3-.5-2.3-1 0-1.3 1.1-1.3 3 0zm8 .6c0 .2-1.2.4-2.6.4-1.4 0-2.3-.4-2-.9.6-.8 4.6-.4 4.6.5zm97.3-.9c.3.5.2 1.6-.2 2.6-.6 1.6-.8 1.6-2.9.2-1.2-.9-2.2-2-2.2-2.6 0-1.1 4.7-1.2 5.3-.2zm-91.6.9c-.3.3-1.2.4-1.9.1-.8-.3-.5-.6.6-.6 1.1-.1 1.7.2 1.3.5zm45.3 3.6c0 .6-.7.7-1.6.4-.9-.3-2.1-.6-2.7-.6-.7 0-.7-.4.2-.9 1.6-1 4.1-.4 4.1 1.1zm72.5-1.2c-3.8 1.4-9.5 2.1-9.5 1.1 0-1.2 2.2-1.7 7.5-1.8 2.9-.1 3.4.1 2 .7zm14.5.9c0 1-5 1.9-6.8 1.3-2.7-.9-.9-2.2 2.8-2.2 2.2 0 4 .4 4 .9zm-79.3.7c-.3.3-1.2.4-1.9.1-.8-.3-.5-.6.6-.6 1.1-.1 1.7.2 1.3.5zm21.3.4c0 .5-.4 1-.9 1-.6 0-1.3-.5-1.6-1-.3-.6.1-1 .9-1 .9 0 1.6.4 1.6 1zm-79 .9c0 .5-2.5.9-5.5 1-3 0-5.5-.4-5.5-.9 0-.6 2.5-1 5.5-1s5.5.4 5.5.9zm97.4.7c.9 2.2-.3 3.2-1.4 1.4-1.2-1.9-1.2-3-.1-3 .5 0 1.2.7 1.5 1.6zm-144.1 5.6c.3 2.9 1.2 8.2 2.1 11.8.8 3.6 2.4 11.4 3.6 17.5 1.2 6 3 14.2 4.1 18.2 1 3.9 1.9 8.4 1.9 10 0 1.6.9 6.1 2 10.1 1.1 3.9 2 9.3 2 11.9 0 4.9.9 9.6 3.4 19.3.8 3 3.1 14.5 5.1 25.5 2 11 4.3 22.9 5.1 26.5.7 3.6 1.9 10.1 2.5 14.5.6 4.4 2.1 13.4 3.4 20 1.3 6.6 2.9 16.3 3.5 21.5.7 5.2 3 18 5.2 28.5 4.3 20.9 9.2 48 11.1 62 .7 5 1.6 9.5 2 10.2 1.2 1.9-.3 4.2-3.5 4.8-3.7.8-3.8.7-4.9-5-.5-2.5-1.5-6.1-2.3-7.8-.8-1.8-2.2-9.1-3.1-16.2-2.1-17.7-3.8-28.3-7.4-46.3-1.7-8.3-3.8-19.4-4.6-24.5-.8-5-1.9-11-2.3-13.2-1.7-7.8-9.1-49.2-10.7-60-3.2-21.1-3.6-24-4.5-31.4-.6-4.1-1.4-8.8-2-10.5-.5-1.7-1.6-8.1-2.5-14.1-2.4-16.9-5.9-37-11.5-66-1.9-9.9-2.3-16.2-1-19.9 1.5-4.7 2.6-3.9 3.3 2.6zm6.7 1.2c0 1.7 1 5.1 2.1 7.6 1.9 4 7.6 24.3 10.1 36 .5 2.5 2.5 11 4.3 19 1.8 8 3.6 17 4 20 .4 3 1 7.1 1.5 9 .5 1.9 1.6 7.1 2.5 11.5.9 4.4 2.7 12.7 4.1 18.5 1.3 5.8 3 15.2 3.8 21 3.5 25 7.5 47.7 10.5 60 2 7.8 3.3 14.1 5.5 26.5 5.4 29.3 7.7 41 10.9 56.5 1.4 6.3 2.8 14 3.1 17.1l.7 5.7-3.7.6c-2 .4-4 .4-4.4-.1-1-1-4.7-19-5.6-26.8-.3-3.3-1-7.4-1.5-9-.5-1.7-1.5-7.5-2.4-13-2.2-14.6-3.3-20.7-6-33-1.3-6.1-2.9-15.3-3.5-20.5-.6-5.2-1.8-12.4-2.5-16-.8-3.6-2.1-11-2.9-16.5-2.4-15.2-6.5-37.7-9.1-50.5-2.9-13.9-4.1-20.3-6-34-2.1-14.8-5.3-31.8-8-43.5-1.3-5.5-2.7-12-3-14.5-.4-2.5-2-9.8-3.6-16.3-1.7-6.5-3.2-14.1-3.5-17-.5-4.8-.4-5.1 1-3.3.9 1.1 1.6 3.4 1.6 5zm166.4-4.9c5.1 1 7 3.6 7 10 .1 4.6-.3 5.8-2.9 8.5-3.9 4.2-6.9 5.6-13.2 6.4-5 .6-5.2.5-7-2.4-1.7-3-4.8-4.5-8.5-4.2-2.8.1-3.1-1.6-1-5.7 1.3-2.5 1.7-4.3 1.1-5.2-1.3-2.1-1.1-3.3.5-2 1.1.9 2.4.5 5.9-2 4.3-3 10.7-5.1 13.4-4.3.6.1 2.7.6 4.7.9zm16.6.5c0 1.1-4.8 2.2-6.2 1.4-.6-.4.1-1.2 1.8-1.9 2.9-1.2 4.4-1.1 4.4.5zm-94 .1c1.1.7-.3.9-4.7.6-3.5-.2-6.6-.7-7-1-1.1-1.1 10.1-.8 11.7.4zm31.9 1.8c1.9 1.4 3.2 1.8 3.6 1.1 1.3-2 2.7.3 2.1 3.4-.5 2.5-.2 3.7 1.4 5.1 1.1 1 2 3.1 2 4.7 0 2.4-.4 2.8-2.6 2.8-1.4 0-3.9 1.1-5.5 2.4-1.5 1.3-3.4 2.6-4 2.8-2 .7 0 2.8 2.5 2.8 1.3 0 3.5-.9 5-2.1 4.5-3.6 5.6-2.1 5.6 7.8 0 8.6-.1 8.9-3.5 12.5-3 3.3-4 3.8-8 3.8-3.9 0-5.2-.5-7.7-3-2.6-2.7-3-3.6-2.5-6.8.5-2.6 1.7-4.6 4.3-6.8 5.4-4.6 4.5-6.9-2.7-6.9-9.1 0-11.9-2.8-13.3-13-.6-4.3-.4-5.5 1.5-7.9 1.2-1.6 3.6-3.5 5.3-4.2 4.2-2 12.8-1.1 16.5 1.5zM354.3 43c.5 4.8.4 7.6-.3 8.5-1.4 1.7-20.2 1.3-20.8-.4-.3-.8 1.4-.9 5.6-.5 6.4.7 13.2-.9 13.2-3 0-1-2.7-1.3-11.2-1.2-9.9.1-11.3-.1-11.6-1.6-.3-1.5.9-1.8 10.5-2 8.8-.2 10.8-.6 10.8-1.8 0-1.2-1.9-1.5-10.7-1.5-6.4-.1-11.2-.5-11.9-1.2-1.7-1.7.2-2.2 10.5-2.7 5.3-.2 9.9-.6 10.2-.9.3-.3 1.6-.2 2.7.2 1.9.7 2.3 2 3 8.1zm-141.8-7c-.3.5-1.2.7-2 .3-2.1-.7-1.9-1.3.6-1.3 1.1 0 1.8.4 1.4 1zm-12.4 3.9c-.8.5-2 .7-2.8.4-2.1-.8-1.5-1.3 1.5-1.3 2 0 2.3.3 1.3.9zM303 41.1c0 .5-2.1.9-4.7.9-5.1 0-5-1.6.2-2.2 3.4-.4 4.5-.1 4.5 1.3zm-95.7-.4c-.7.2-1.9.2-2.5 0-.7-.3-.2-.5 1.2-.5s1.9.2 1.3.5zM150 42c0 .5-.9 1-2 1s-2-.5-2-1c0-.6.9-1 2-1s2 .4 2 1zm54.5 3c.4.6-1.2.9-4.2.9-4.7-.2-4.7-.2-1.3-.9 1.9-.4 3.8-.8 4.2-.9.4 0 1 .3 1.3.9zm-41.9 1.9c-.7 1-13.9 2.3-16 1.5-3.5-1.4 0-2.4 8-2.4 4.7 0 8.3.4 8 .9zm-1.1 6.1c-.3.5-1.9 1-3.5 1s-3.2-.5-3.5-1c-.4-.6 1-1 3.5-1s3.9.4 3.5 1zm46 3c-2.8 1.2-6.7 1.2-6 0 .3-.6 2.3-1 4.3-.9 3 0 3.3.2 1.7.9zm57 4.6c2.2 1.8 5.8 4 8 5 3.9 1.9 4 2 4 7.4 0 5.1-.2 5.6-3.4 7.7-5 3.4-7.8 3-12.1-1.7-4.1-4.4-5-7.6-5-17.7 0-6.1 0-6.2 2.3-5 1.3.7 4.1 2.6 6.2 4.3zM252 57c0 .5-.2 1-.4 1-.3 0-.8-.5-1.1-1-.3-.6-.1-1 .4-1 .6 0 1.1.4 1.1 1zm96.5 0c.4.6-.6 1-2.2 1-1.5 0-6.6.3-11.3.6-5.8.5-8.2.3-7.5-.4 1.5-1.5 4.2-2 12.7-2.1 4.2 0 8 .3 8.3.9zM149 58c0 .5-.9 1-2 1s-2-.5-2-1c0-.6.9-1 2-1s2 .4 2 1zm14.5-.1c-.6 1.1-12 .9-13.1-.2-.4-.4 2.5-.7 6.5-.7 4.2 0 7 .4 6.6.9zm89.4 12c1.1 9.6.9 11.3-1 9.4-1-1-1.9-16.8-1.1-19.2.8-2 1-1.1 2.1 9.8zM355 61.5c0 .8-.7 1.5-1.5 1.5-2.6 0-1.8-2 1.3-2.9.1-.1.2.6.2 1.4zm-190.3 2c.2.6-3.4 1.1-9 1.2-9.7.2-12.2-.2-11.3-1.5.7-1.2 20-.9 20.3.3zm177.1-.3c-5.3 1.1-5.8 2-2.7 4.1 2 1.4 1.9 1.5-1.8 1.4-3.5-.2-3.8-.4-4.1-3.5l-.3-3.2 6.8.1 6.8.1-4.7 1zm13.4 6.2c.3 1.4.2 2.9-.1 3.4-.3.5-5.8 1-12.1 1.2-25.7.7-24.9.8-22.9-1.6 1-1.2 3.7-1.3 15.5-.8 15.1.7 18.4.3 16.5-2-1.2-1.4-.5-2.6 1.5-2.6.6 0 1.4 1.1 1.6 2.4zm-185.4-.1c.6.5 1.2 1.3 1.2 1.7 0 .4-5.9.7-13 .7-7.2 0-13.3.3-13.6.6-.3.3-.3 1.1.1 1.7.5.8 3.1 1 8 .7 8.2-.6 27.8.8 29.8 2 2.3 1.4-4.6 1.9-21.5 1.5-12.3-.3-16.8-.1-16.8.7 0 1.9 1.5 2 23.8 2.5 11.8.2 21.6.7 21.9 1 1.4 1.4-6.4 1.8-24.6 1.2-16.7-.5-20-.4-21.1.8-.6.8-.9 2.4-.5 3.5.3 1 .1 2.2-.5 2.6-1.1.7-1.4-12.4-.4-18.7l.7-3.8 12.6.2c6.9 0 13.2.5 13.9 1.1zM356 84.5c.1 3.8.1 8.1 0 9.5l-.1 2.5-1.6-2.3c-1.3-1.9-2.4-2.2-8.1-2.2-4.7 0-7.1.5-8.4 1.6-1.6 1.6-1.8 1.6-2.4 0-.5-1.2-2-1.6-6.3-1.6l-5.6-.1 2.4-2c1.7-1.4 3.8-1.9 7-1.9 2.5.1 8.4-.2 13-.6 6.4-.5 8.1-1 7-1.8-.8-.6-1.9-2-2.5-3.1-.8-1.4-2.6-2.2-6.5-2.7-8.1-.9-15.9-.9-15.9.1 0 1.4 2.7 2.1 8.8 2.2 3.1.1 7.1.4 8.7.8 5.9 1.3-.5 2.1-20.6 2.7-19.8.5-19.9.5-19.9-1.6s.2-2.2 9.4-1.5c6.7.5 9.5.4 10.1-.5 1.1-1.8.1-2.2-6.2-2.3-3.2-.1-5.8-.7-5.8-1.2 0-.6 7.3-1.1 19.5-1.3 10.7-.1 20.2-.4 21-.5 2.5-.6 2.9.5 3 7.8zm-132-2c1.1 1.3.8 1.5-1.3 1.5-2.8 0-4.4-1.5-2.5-2.3 2.1-.9 2.5-.8 3.8.8zm37.7 2.8c-.3 1.1-7.3 1.8-9.9 1.1-3.9-1.1-1.5-2.4 4.2-2.2 3.3.1 5.9.6 5.7 1.1zm19.9-.3c4.4 0 2.5 1.7-2.1 1.8-4.2.1-5.4-.6-3.8-2.2.4-.3 1.3-.4 2.1-.1.7.3 2.5.5 3.8.5zm39.9 4.9c.9 1.5-.7 2-8.4 2.7-5 .5-7.1.4-7.1-.5 0-.6 1.5-1.1 3.3-1.1 1.7 0 3.9-.5 4.7-1 1.9-1.2 6.7-1.3 7.5-.1zm-177.7 4.8c-.2 1.4.5 1.9 3.5 2.1 2 .2 3.7.6 3.7 1 0 1.3-3.9 3.2-4.5 2.2-.3-.6-1.8-1-3.2-1-1.9 0-2.4-.4-1.9-1.6.3-.9.6-2.2.6-3 0-.8.5-1.4 1-1.4.6 0 1 .8.8 1.7zm9.2-.7c0 .5-1.3 1-3 1-1.6 0-3-.5-3-1 0-.6 1.4-1 3-1 1.7 0 3 .4 3 1zm159 6c0 .5-.9 1-2.1 1-1.1 0-1.7-.5-1.4-1 .3-.6 1.3-1 2.1-1s1.4.4 1.4 1zm-11.6 1.6c.4.9.4 1.9.2 2.1-.8.8-2.6-.8-2.6-2.3 0-1.9 1.6-1.8 2.4.2zm-154.6.6c-.3.7-1.3 1.3-2.3 1.3-1 0-2-.6-2.2-1.3-.3-.7.5-1.2 2.2-1.2 1.7 0 2.5.5 2.3 1.2zm163.2 2.6c0 1.4-4.6 5.3-5.3 4.5-1.2-1.1-.8-2.3.8-2.3.9 0 1.8-.7 2.1-1.5.6-1.6 2.4-2.1 2.4-.7zm-2.1 8.5c.6.8.8 1.7.4 2-.7.8-3.3-1.1-3.3-2.4 0-1.3 1.6-1.1 2.9.4zm-71 10c2.8 1.4 5 3.4 6 5.4 1.9 3.8 2.4 4 5.1 1.3 1.1-1.1 2.9-2 4-2 2.5 0 6 3.4 6 5.8 0 1 .5 2.3 1.1 2.9 1.2 1.2-.4 5.3-2.2 5.3-.6 0-3.5-1.2-6.6-2.7-4.5-2.1-6.2-2.4-8.2-1.6-3.9 1.4-10 .4-11.2-1.8-1.4-2.7-4.6-2.4-7.4.7-2.2 2.3-3.2 2.6-8.5 2.5-5.1-.1-6.7.4-11 3-2.8 1.7-5.7 2.8-6.5 2.5-1.8-.6-1.9-4.1-.4-8.5 1.2-3.5 2.9-4.2 2.9-1.1 0 1 .9 2.4 1.9 3 2.5 1.3 3.3 1.3 5.5-.3 1.4-1 1.5-1.8.7-4-1-2.6-.9-2.7 1.3-2.1 2 .5 2.7 0 4-2.4 2.8-5.4 7-7.5 16.6-8 1.4-.1 4.5.8 6.9 2.1zm119.6 9.7c.3.5.1 1-.4 1-.6 0-1.1-.5-1.1-1 0-.6.2-1 .4-1 .3 0 .8.4 1.1 1zm.8 5.5c-.4 1.5-3.6 1.2-4.1-.3-.3-.9.3-1.3 1.9-1 1.3.1 2.3.7 2.2 1.3zm-88.3 3.9c0 1.4.9 3.1 2.1 3.9 1.8 1.3 1.9 1.8.7 3.6-1.7 2.8-2.9 2.7-6.2-.8-2.7-2.8-2.7-3-1.2-6 2-3.7 4.6-4.1 4.6-.7zm-77.5 2.3c1.4 1.5 2.5 3.1 2.5 3.5 0 1.1-6.1 7.8-7.1 7.8-.5 0-.9-.9-.9-2 0-1.3-.7-2-2-2-2.6 0-2.5-1.3.2-2.5 2.8-1.3 3.2-2.6 1.4-5-1.2-1.6-1.7-1.8-2.7-.8-.7.7-1.9 1.3-2.7 1.3-1.2 0-1.2-.3-.2-1.5 2.2-2.6 8.5-1.9 11.5 1.2zm161-.7c.3.5-.1 1-.9 1-.9 0-1.6-.5-1.6-1 0-.6.4-1 .9-1 .6 0 1.3.4 1.6 1zm5 0c-.3.5-1 1-1.6 1-.5 0-.9-.5-.9-1 0-.6.7-1 1.6-1 .8 0 1.2.4.9 1zm-201 1.5c0 .5-2.1 1.1-4.7 1.3-3.9.3-4.8 0-4.8-1.3s.9-1.6 4.8-1.3c2.6.2 4.7.7 4.7 1.3zm74.2.6l2.8 1-2.4 1.8-2.4 1.9 2.1 1.1c2.3 1.2 2.9 3.6 1.2 4.6-.6.3-1.8-.1-2.7-1-1.6-1.6-1.7-1.6-3 0-1 1.5-1.5 1.6-2.8.5-2.2-1.8-1.8-3 1-3 3 0 3.2-1.5.5-3.2-4.9-3.1-.4-6 5.7-3.7zm18.3-.4c0 .5-.5 1.5-1 2.3-.7 1.1-1.2 1.2-2.1.3-.6-.6-.8-1.6-.5-2.2.8-1.2 3.6-1.5 3.6-.4zm7.8 2.3c.3.8.1 1.2-.3.8-1.3-1.3-3.3 1.1-2.8 3.2.5 1.8.2 1.9-1.8 1.2-1.3-.5-2.5-1.5-2.7-2.2-.3-.7 0-1 .7-.6.6.4 1.5-.3 2.1-1.9 1.1-2.8 4-3.1 4.8-.5zm-14.3 1c.3.5-.3 1-1.5 1-1.7 0-2 .4-1.5 2 .4 1.1.2 2-.4 2-1.2 0-1.4-2-.5-4.4.7-1.8 3-2.1 3.9-.6zm-38.5 2.6c.7 1.6 1.6 2.4 2.4 2.1.8-.3 2 .1 2.8 1 1.2 1.5 1 1.5-1.7.8-1.6-.5-4.9-.9-7.2-1-4.8 0-5.2-.6-2.3-3.5 2.7-2.7 4.9-2.5 6 .6zm10.8-.4c1.7 1.7 1.5 2.5-.8 3.1-1.3.3-2 0-2-.9 0-.8-.7-1.4-1.5-1.4s-1.5-.5-1.5-1c0-1.4 4.3-1.3 5.8.2zm-59 3.5c.2.9-.8 1.3-3.2 1.3-3.7 0-4.9-1.5-1.8-2.3 2.6-.7 4.5-.3 5 1zm88.3 1.1c-.7.2-1.8-.1-2.3-.6-.8-.8-.4-.9 1.3-.5 1.3.4 1.8.8 1 1.1zm105.4 3.2c.4.6-.5 1-1.9 1s-2.6-.5-2.6-1c0-.6.9-1 1.9-1 1.1 0 2.3.4 2.6 1zm-84.7 5.4l3.7.2.3 5.2c.2 2.9.1 5.2-.2 5.2-.3 0-2.5-1.1-4.8-2.5-10-6-9.9-5.9-30.5-5.8-22.5.2-30.9 1.6-39.3 6.8-6.2 3.8-7.4 3.3-6.8-3.3.3-3.2.6-3.7 2.9-3.7 1.4-.1 3.8-.9 5.2-1.8 1.5-.9 3.6-1.7 4.7-1.7 1.2 0 3-.5 4.1-1.1 1.3-.7 3-.7 4.7-.1 1.5.5 3.6.6 4.6.2 1.1-.3 5-.1 8.7.5 5.3.9 7.2.9 9.1-.1 1.2-.7 4.3-1.4 6.8-1.4 2.5-.1 6.5-.5 9-.9 3.7-.5 5.4-.2 9.3 1.8 2.6 1.3 6.4 2.5 8.5 2.5zm93.2-1.5c0 .4-2.2 1.1-4.8 1.4-2.6.3-5.4.7-6.1.9-.7.2-1.5-.2-1.8-.9-.2-.6.6-1.3 1.9-1.6 4.2-.8 10.8-.7 10.8.2zm-.2 5.3c-.5 1.5-10.8 2.4-10.8.9 0-1 3-1.7 8.3-2 1.9 0 2.7.3 2.5 1.1zm-13.7 2.1c-1.3 1.3-2.6.3-1.6-1.2.3-.6 1.1-.8 1.7-.5.6.4.6 1-.1 1.7zm-188.1.5c0 1.3-1.2 2.2-2.2 1.6-1-.6-.1-2.4 1.3-2.4.5 0 .9.4.9.8zm90.2 2c.9.7 2.1 3.4 2.8 6 .7 2.6 1.9 6.9 2.8 9.5 1.9 6 1.1 13.1-1.7 16.1-2.4 2.5-6.1 12.6-6.1 16.7 0 3.3-4.4 7.4-9 8.4-3.5.8-14.6-1.8-19.5-4.5-1.8-1-3.1-2.6-3.4-4.1-.5-3.7-5.6-14.1-8.1-16.7-2.2-2.3-2.2-2.5-1-13 1.5-13.1 2.8-17.3 5.8-18.8 3.3-1.6 35.4-1.3 37.4.4zm-83.8 3.8c.9 2.2.8 2.4-.9 2.4-.8 0-1.5-.9-1.5-2 0-2.4 1.5-2.7 2.4-.4zm-7.1 2c-.4 1-.9 1.2-1.5.6-1.2-1.2-.1-3.5 1.2-2.7.5.3.6 1.3.3 2.1zm130.2-1.7c1.7.7 1.4.9-1.5 1.3-3.9.6-4.5.4-3.5-1.1.7-1.3 2.1-1.3 5-.2zm5.5 1.1c0 .5-.2 1-.4 1-.3 0-.8-.5-1.1-1-.3-.6-.1-1 .4-1 .6 0 1.1.4 1.1 1zm-16.2 1.1c-1.1.6-1.8 2.2-1.8 3.9 0 1.7-.4 3-1 3-1.3 0-1.3-2.3.2-5.5.6-1.4 1.8-2.5 2.7-2.5 1.4.1 1.3.2-.1 1.1zM169 181.5c1 1.2.8 1.6-1.5 2.5-1.4.5-4.9 1-7.6 1-4.6 0-5 .2-4.4 2 .4 1.1.2 2-.4 2-1.3 0-2.6-4.8-1.6-5.8.5-.6 9.3-2.6 13.1-3.1.6 0 1.7.6 2.4 1.4zm119.4 6.7c2.1 3 .7 4.7-1.6 1.9-1-1.3-1.8-2.7-1.8-3.2 0-1.6 1.9-.9 3.4 1.3zm33.8-.4c-1.9.6-1.4 2.2.9 3 1.8.7 1.9 1 .6 2-1.1 1-1.9.8-4-.8-3-2.4-10.3-2.7-13.2-.7-1.5 1.2-2.1 1.1-3.7-.5-1-1-1.8-2.1-1.8-2.4 0-.3 3.1-.3 6.9.1 5.2.5 7.6.3 9.7-.8 1.6-.8 3.5-1.2 4.3-.9 1 .4 1.1.7.3 1zm-152.2.7c-1 1.2-.8 1.6 1.5 2.5 2.7 1 2.7 1.1 1 3-1.7 1.9-1.8 1.9-5.6-.1-3.9-1.9-3.9-2-2.3-4.4 1-1.6 2.6-2.5 4.1-2.5 2.1 0 2.3.2 1.3 1.5zm-10 .5c0 .5-.4 1-.9 1-.6 0-1.3-.5-1.6-1-.3-.6.1-1 .9-1 .9 0 1.6.4 1.6 1zm140.4 2.6c.3.8.2 1.2-.4.9-.6-.3-1-1-1-1.6 0-1.4.7-1.1 1.4.7zm-143.9 1.3c.3.5.1 1.2-.5 1.6-.5.3-1-.1-1-.9 0-1.8.6-2.1 1.5-.7zm141.9 2.7c1.1 2.9.7 6.4-.9 6.4-.9 0-1.5-.9-1.5-2.4 0-1.3-.3-3.1-.6-4-.4-1-.1-1.6.9-1.6.8 0 1.8.7 2.1 1.6zm-132.5 1.9c.7.7 1.6 2.8 2 4.6.6 2.8 1.1 3.3 2.9 3.1 2.4-.4 2.9.7 1 2.6-.9.9-.9 1.5-.1 2.3.7.7.9 2.4.6 3.9-.3 1.5 0 3.1.6 3.4.6.4 1.1 1.4 1.1 2.3 0 2.1-4 7.4-5.1 6.8-1-.7-.1-5.3 1.4-7.3.8-1 .7-1.6-.4-2.3-.8-.5-1.7-.9-2-.9-.3 0-2.3-1.3-4.3-2.9-2.1-1.7-4.3-2.8-5.1-2.5-.9.4-1.6-1.1-2.3-5.3-1-5.6-.9-5.9 1.6-8 2.8-2.3 5.5-2.2 8.1.2zM180 196c0 .5-.4 1-1 1-.5 0-1-.5-1-1 0-.6.5-1 1-1 .6 0 1 .4 1 1zm2.4 4c1.5 0 1.6.3.6 1.5s-1 1.8.1 3.1c1.1 1.4 1.1 1.8-.4 2.9-1.3.9-1.5 1.5-.7 2 .9.5.9 1 0 1.9-1.6 1.6-5.1-3.2-4.3-6.2.3-1.3.1-2.2-.6-2.2-.6 0-1.1-1-1.1-2.1 0-1.7.4-2 2.3-1.5 1.2.3 3 .6 4.1.6zm175.1 2.3c0 2.6-2 2.5-2.3-.2-.3-1.6.1-2.2 1-1.9.7.3 1.3 1.2 1.3 2.1zm.5 6.2c0 .8-.5 1.7-1.1 2.1-1.6.9-3-1.8-1.7-3.3 1.2-1.5 2.8-.8 2.8 1.2zm-.5 5.4c.3.5.1 1.2-.5 1.6-1.4.9-5.2-.4-4.5-1.6.8-1.2 4.2-1.2 5 0zm-176.5 2c0 1.1-2.6 2.2-3.4 1.4-1.2-1.2-.5-2.3 1.4-2.3 1.1 0 2 .4 2 .9zm175.7 2.8c.2.6-.7.8-2.3.5-1.9-.3-2.2-.7-1.2-1.3 1.5-1 3-.7 3.5.8zm-67.5 1.9c1.5.8 3.6 1.4 4.6 1.4 2.5 0 4.6 2.5 3.8 4.6-.4 1 .1 2.5 1 3.5 1.4 1.5 1.5 2.5.7 5.1-1 3.4-1 3.4-7.3 2.2-3.3-.7-8.6-5.3-9.5-8.2-.6-2.1-.4-2.3 1.4-1.7 3 .9 2.6-1.1-.9-4.7-1.6-1.6-3-3.4-3-4 0-1.2 5.4-.1 9.2 1.8zM161 220c0 .5-.4 1-1 1-.5 0-1-.5-1-1 0-.6.5-1 1-1 .6 0 1 .4 1 1zm196 3.1c0 1.1-1.6 1.1-5.9.3-1.7-.4-2.9-.9-2.7-1.3.6-1 8.6 0 8.6 1zm-3.1 2.5c4.4.9 3.9 2.4-.8 2.4-3.8 0-5.7-1-4.4-2.4.8-.8 1.3-.8 5.2 0zM166 228.5c0 1.2-2.4 5.5-3.2 5.5-1.2 0-1-1.4.4-2.8 1-1 1-1.5-.2-2.2-1.2-.8-1-1 .8-1 1.2 0 2.2.2 2.2.5zm181.5 1.6c.4.5 0 1.8-.9 2.8-1.7 1.8-2.1 4.1-.8 4.1.4 0 1.5-.7 2.6-1.5 2.3-1.7 5.8-.3 5 2-.4.9.1 1.8 1.2 2.2 1 .4 1.9.2 2.2-.5.2-.7.8-1 1.3-.6 1.1.7 1.2 11.4.1 11.4-1.4 0-5.2-4-5.2-5.5 0-2.5-5.2-5.7-8.4-5.1-5.2 1.1-7.7-3.1-3.1-5.2 1.5-.7 2.5-2 2.5-3.2 0-2.1 2.4-2.8 3.5-.9zm8.9.5c.9.3 1.6 1 1.6 1.5 0 1.5-3.7 1-5-.6-1-1.2-1-1.5.3-1.5.8 0 2.2.3 3.1.6zm-189.2 14.6c-1.4 1.4-1.7 1.1-2.6-2.7l-.7-3 2.2 2.2c1.8 1.8 2.1 2.5 1.1 3.5zm116.6 2.9c-1.5 1-2.3-1.4-1.3-3.9.6-1.4.8-1.3 1.6.7.7 1.8.6 2.7-.3 3.2zm10.2-3.7c.6.8 2.1 1.6 3.3 1.8 1.2.2 2.1.9 1.9 1.6-.1.8.2 1.1.7.8 3-1.9 9.8 4.6 7 6.6-1.1.8-1 .9.3.4 2-.6 3.7 1.8 4.3 6.2.2 1.5.7 3.8 1.1 5.1.5 1.7.4 2.2-.4 1.7-.7-.4-1.2-.2-1.2.3 0 .6.4 1.1 1 1.1.5 0 .7.6.5 1.2-.3.7.5 2.4 1.6 3.8s1.8 2 1.5 1.4c-.7-1.5 2.6-2.4 4.6-1.3 1.2.7 3.2 5.3 2.9 6.6 0 .2 1.1 1.4 2.4 2.9 1.4 1.5 2.3 3 2 3.4-.3.4.3 1.4 1.2 2.1 1.4 1.2 3.6 5.4 6.8 13.4.9 2.4.7 6.3-.6 8.7-.7 1.4-.6 1.8.6 1.8.9 0 1.3.4 1 1-.3.5 0 .7.9.4 1.7-.7 3.5 2.2 3.9 6.3.2 1.6.7 3.5 1.2 4.3 1.1 1.8 1.5 3.3 2 8.2.2 2.1 1.1 4.5 1.9 5.4.9.8 1.4 1.9 1.1 2.4-.3.4.4 2.7 1.4 5.1 1.4 3.1 1.7 4.7.9 5.6-.7.9-.6 1.4.6 1.9.9.3 1.6 1.1 1.6 1.8 0 .6.9 2.2 2 3.6 2.1 2.7 2.6 6 .9 6-.5 0-.7.5-.4 1 .4.6 1 .8 1.5.5 1.2-.7 2 .8 2.2 4.2.1 1.5.8 3.6 1.6 4.5.8.9 1.1 2.2.7 2.7-.3.6-.2 1.1.4 1.1.6 0 .6 1.1.1 3.1-.8 2.7-.6 3.2 1 3.6 1.1.3 1.8.9 1.5 1.3-.3.4.2 1.3.9 2 1.3 1 3 5.9 2.6 7.5 0 .3.7 1.3 1.6 2.2 1 1 1.4 2.7 1.2 4.5-.3 1.5-.2 2.8.2 2.8s.7.6.7 1.2c.1 2.1.8 4.3 1.6 4.9 2.1 1.6 11.8 35.6 11.6 40.9-.1 2.8.8 12 1.6 16.5.5 2.6.4 2.7-.6 1.1-1.8-2.9-5.1-17.5-4.4-19.6.3-1.1 0-2.2-.9-2.7-2.1-1.2-5.6-14.8-4.2-16.4.8-.9.8-1-.1-.5-1.3.7-1.8-2.2-1.3-6.8.1-1.1-.3-1.6-.9-1.1-.6.3-1.4-.2-1.7-1.2-.4-1-1.9-4.5-3.5-7.8-1.5-3.3-3.9-10.1-5.3-15-3.2-11.8-6.2-19.8-8.9-24.3-3.1-5.2-7-14.9-6.3-16.1.3-.5-.1-2.4-.9-4.4-.8-1.9-1.6-4.6-1.9-6.1-.3-1.5-.9-3.3-1.4-3.9-1.3-1.6-2.6-7.6-2.3-10.3.1-1.3-.8-3-2.1-4-1.4-1.2-2.2-2.7-2-4.2.2-1.2-.1-2.2-.7-2.2-1.7 0-1.7 6 0 7 .5.3.7 1.7.4 3-.7 3.5.3 6 2.1 5.3.9-.3 1.2 0 .9.9-.3.8.1 2 .9 2.7.7.6 1.2 2.1.9 3.2-.5 1.9-.6 1.9-1.8.2-.7-1.1-4.2-7.4-7.7-14.1-8-15.7-8.9-17.2-15.9-26.7-2-2.8-3.9-5.9-4.1-7.1-.6-2.4 1.6-5.9 3.1-4.9.6.3 1.1-.1 1.1-.9 0-1.1-.9-1.6-2.9-1.6-2.5 0-2.8.3-2.3 2.2.5 2.3.5 2.3-1.6.4-1.2-1.1-2.2-2.5-2.2-3.3 0-.7-.4-1.3-1-1.3-.5 0-1-.7-1-1.6 0-1.4.2-1.4 2.2 0 1.2.9 2.7 1.6 3.3 1.6.5 0 .3-.5-.5-1-1.1-.7-1.1-1-.2-1 .7 0 1.1-.4.7-1-.3-.5-1.3-.6-2.3-.3-1.3.5-1.4.3-.6-.6.7-.8 1-3 .6-5.4-.5-4-.4-4.1 1.3-2.7 1.7 1.4 1.8 1.3 1.1-.5-.5-1.1-1.1-3-1.3-4.3-.6-2.4-2.2-4-2.4-2.3-.1.6-.2 1.7-.3 2.3-.2 1.7-2.6 1.1-4.3-1-1.2-1.6-1.4-1.6-2.4 0-1.3 2.2-2.9 2.3-2.9.2 0-.9.9-1.8 2-2.1 1.1-.3 2-.9 2-1.4 0-.5-1.1-.4-2.5.1-1.5.6-2.6.6-3 0-.4-.6-.1-1 .5-1s.8-.5.5-1c-.4-.7-1.2-.7-2.4 0-1.8.9-3.1.4-3.1-1.2 0-.4.9-.8 1.9-.8 2.7 0 3.3-2.5 1-4.6-1.1-1-1.7-2.4-1.5-3.1.3-.7.2-1.3-.2-1.3-1.6 0-3.2 2.5-3.2 4.9v2.6l-1.8-2.3c-1.1-1.5-1.7-3.7-1.6-5.8.2-1.9-.1-3.4-.6-3.4-.6 0-1 1-1 2.1 0 1.8-.2 1.9-1.5.9-1.4-1.1-1.3-1.5.7-3.4 1.2-1.2 2.7-2.1 3.3-2.1.5 0 1.2-1.1 1.3-2.4.3-1.6 0-2.1-.9-1.6-.7.5-1 .4-.6-.2.4-.6 1.9-.8 3.3-.5 1.9.3 2.5.1 2-.7-1-1.6.9-1.4 2.4.3zm-118.2 1.2c.6.2 1.2 1 1.2 1.8 0 1.9-4.9 7.6-5 5.8 0-.7-.4-1.1-.9-.8-.4.3-.8-.7-.8-2.2 0-1.5-.3-3.5-.7-4.5-.7-1.6-.5-1.7 2-1.2 1.6.4 3.5.8 4.2 1.1zm-6.8 5.9c0 2.5-1.4 3.4-2.4 1.6-.8-1.2.3-4.1 1.5-4.1.5 0 .9 1.1.9 2.5zm23 2c0 .8.9 1 2.7.7 2.5-.5 2.5-.3-2 6-2.6 3.6-4.7 6.8-4.7 7.1 0 .4-1.1 2.3-2.5 4.3-1.4 2.1-2.8 4.9-3.2 6.2-.7 2.7-7 12.7-8 12.7-.8 0-4.2-16.7-4.3-20.8 0-1.5.5-2.7 1.1-2.7.6 0 .9-.6.6-1.4-.3-.7 1-2.8 2.9-4.7 1.9-1.8 3.4-3.8 3.4-4.5 0-1.9 2.8-2.5 3.3-.6.4 1.3.5 1.1.6-.5.1-2.9 2.3-3.5 3.9-.9l1.3 2.1-.4-2.2c-.3-1.2 0-2.4.7-2.6 1.8-.6 4.6.4 4.6 1.8zm84.5 5.6c2.2 3.3 3.9 6.5 3.7 7-.1.5.5 1.2 1.3 1.5.8.4 1.5 1.1 1.5 1.8.1.6 2.1 3.3 4.6 6.1 5.3 5.8 7.8 10.6 7 13.2-.4 1.2.4 3.2 1.9 5.3 2.9 4 3 4.1 1 3.4-1-.4-1.5 0-1.5 1.1 0 1.3.6 1.6 2.5 1.1 2.9-.7 3.2-.1 1 2.1-1.8 1.7-1.6 4.4.2 5 1.3.5 3.8-4.2 3.4-6.5-.4-2.3 1.5-1.2 3.3 2 1.1 1.8 3.6 5.8 5.6 8.9 5 7.4 8.3 13.9 7 13.9-.5 0-1-.5-1-1.2 0-.8-.6-.6-1.7.4-1.4 1.4-1.4 2-.3 3.3 1.1 1.4 1.5 1.4 2.9.1 1.5-1.4 1.8-1.3 2.9.4.7 1.1.8 2.1.2 2.5-.5.3-.7 1.2-.3 2 .7 2-1.2 1.9-3.2-.2-1.2-1.1-1.9-1.3-2.4-.5-.3.6-1.5 1-2.6.8-1.6-.2-2-1.1-2-4.4 0-3-.6-4.5-2-5.6-1.1-.8-2.1-1-2.3-.5-.2.5-1.3.9-2.3.9-1.7 0-4.2-3.8-5.1-7.7-.1-.5-.8-1.4-1.5-2.1-1-1-1-1.8-.2-3.4.8-1.5.8-1.9 0-1.4-.6.4-1.1.3-1.1-.3 0-.5-.9-1.3-2-1.6-1.2-.4-2-1.5-2-3 0-1.2-.7-2.5-1.5-2.9-.8-.3-1.2-1.2-.9-2.1.4-1 .2-1.5-.6-1.3-.6.2-1.9-.8-2.8-2.2-1.6-2.4-1.6-2.4.2-1 1.7 1.3 1.8 1.3 1.4-.5-.2-1.2-1.1-1.9-2-1.7-1.5.2-6.8-5.7-6.8-7.7 0-.5-1.2-1.9-2.6-3-1.5-1.2-2.3-2.5-1.8-3.2.4-.7.3-.9-.3-.6-.6.4-2.4-1-4-3.1-3.8-4.7-5.5-7.9-4.5-8.5.4-.2.1-.2-.5-.1-.7.2-1.7-.5-2.3-1.6-1.3-2.5-1.3-3.3.1-2.4.8.5 1-.1.7-1.9-.5-2.7 1-4.8 4.2-6 2.9-1.1 3.5-.6 7.5 5.4zM171 255.9c0 .6-.4 1.3-1 1.6-.5.3-1-.1-1-.9 0-.9.5-1.6 1-1.6.6 0 1 .4 1 .9zm46.5.7c11.9 1 25.9.9 31.8-.1 3.7-.6 4.7-.5 4.7.6.1 1.8 5.3 10.1 10.8 17.1 18.8 23.8 19.8 25.3 18.2 27.3-.7.9-1.5 3.7-1.7 6.3-.5 6.3-.3 30.4.3 31.3.4.7 1.9 82 1.5 86.4-.1 1.1-.4 4.7-.7 8-.6 6.1.8 12.1 2.5 11 .6-.3.8-3.7.5-7.8l-.5-7.2 3.5 6.4c4.9 8.8 8.3 12.3 10.7 11 1.1-.5 1.9-.7 1.9-.5 0 1.2-6.3 7.6-7.5 7.6-.8 0-2.5 1-3.9 2.2-3.4 3-2.2 5 3.5 5.7 3.5.5 4.4 1 4.9 3.1.5 1.9 1.3 2.5 3.3 2.5 2.3-.1 2.6.3 2.4 3-.2 2.7.1 3 2.8 3.3 1.7.2 3.5.7 4 1.2.6.4 3.3 1.5 6.1 2.4 4.8 1.6 5.3 1.6 9.5-.3 4-1.8 4.5-1.9 6.1-.4 1 .9 2 2.5 2.4 3.6.3 1.1 2.1 4.1 3.9 6.6 3.5 5.1 7.5 14 7.5 16.8 0 1.1.4 2.3.9 2.9 2.1 2 2.9 12.7 1.6 20.2-1.2 7.2-1.8 8.4-8.5 15.5-3.4 3.7-3.5 3.9-3.1 11 .7 12.3.6 40.7-.2 51.2-.4 5.5-1.2 15.2-1.7 21.5-.5 6.3-1.2 19.6-1.5 29.5-.2 9.9-.9 20.9-1.4 24.5-.5 3.6-.9 11.8-.9 18.3 0 6.8-.4 12.3-1 12.9-1.3 1.3-6.7.1-8.3-1.8-1-1.2-.6-2 2.2-4.3 2.9-2.5 3.2-3.1 2-4.5-3.3-3.9-8.6 0-8.6 6.5 0 5.2 2.9 8 8.6 8.5 3.4.4 4.9 0 6.7-1.5 3-2.6 4.4-7.5 3.1-10.7-1.2-3.3-1.2-15.1.1-26.7.5-5.1 1.5-20 2.1-33.2.6-13.2 1.5-28.7 1.9-34.5.5-5.8 1.2-14.6 1.6-19.7 1.4-18.8 2.4-7.1 2.4 28.4 0 44.6 2.1 79.7 5.2 88 1.7 4.8 6.9 12.2 9 13.1.4.2 3.4 3.1 6.5 6.3 4.3 4.5 6.9 6.3 10.2 7.2 3.1.9 5.6 2.5 8.7 6 2.4 2.7 4.4 5.3 4.4 5.8 0 1.2-5.2 1.1-8.5-.1-1.5-.6-6.1-1.7-10.3-2.5-9.2-1.9-15-4.2-16.3-6.7-.5-1-2.4-2.5-4.2-3.4-1.8-.9-4.5-2.7-6-4-3.2-2.7-10-4.8-12.5-3.9-.9.3-2.9 2.3-4.4 4.5-3.2 4.6-5.6 5-14.7 2.6-5-1.3-5.4-1.3-5.8.5-.3 1-1.7 2.6-3.2 3.6-4.8 3.1-39.1 1.8-43.6-1.8-1-.7-12.2-2.9-15.2-2.9-.7 0-1.3.7-1.3 1.5s.9 1.5 1.9 1.5c1 0 2.9.9 4.2 2 2.2 1.7 2.2 1.9.5 2-1.1 0-7-.9-13.1-2.1-11.2-2.1-11.3-2.1-15.7-.2-2.4 1.1-7 4.1-10.2 6.8-5.9 4.7-5.9 4.8-11.7 4.2-6.7-.8-14.5-3.5-20.1-7.2-2.6-1.8-4.5-2.4-5.6-1.9-4.4 2-21.9 2.8-30 1.3-3.7-.6-9.1-1.4-12.1-1.6l-5.3-.5.6-5.8c.4-3.6.3-6.1-.3-6.5-.6-.3-3.5 1.2-6.5 3.4-4.2 3.1-6.2 5.6-8.7 10.6-1.8 3.6-3.5 6.7-3.8 7-.4.2-6-.3-12.6-1.1s-13.5-1.6-15.2-1.6c-2.1-.1-3.3-.7-3.3-1.6 0-1.2-1.1-1.3-5.8-.8-4.2.5-6.3.3-7.6-.7-1.9-1.4-1.8-1.7 1.9-8.8 2.1-4.1 4.5-8.6 5.2-10.1.7-1.4 2.5-3.3 3.8-4.2 2.2-1.5 2.5-2.4 2.5-7.7 0-3.3 1.1-10.4 2.4-15.7 2.8-11.1 3.4-15.3 4.7-30.1 1.4-16.4 1.6-17.6 4-24.8 1.7-5.1 2.2-8.5 1.9-13.8-.9-20 .4-57 2-56 .4.3 1.1 2.2 1.4 4.2 1 5.4 2.6 9.5 4.9 12 1.1 1.3 1.8 2.6 1.4 2.9-1 1 1.2 4.4 2.8 4.4 2.4 0 2-7.3-.5-9.5-2.9-2.6-3.5-5.4-1.5-6.9 1.6-1.1 1.5-1.4-.9-2.9-1.6-1.1-2.6-2.7-2.6-4.2 0-1.4-.4-2.5-.9-2.5-1.3 0-4.3-5.5-7.5-14-1.6-4.1-3.3-8.1-3.9-8.8-.6-.7-.7-4.2-.3-8.8.8-8.3.1-10.2-5.6-15.6-1.9-1.8-2.8-3.7-2.9-6-.4-10.6.1-15.8 2-20.8 1.2-3 2.1-6.5 2.1-7.8 0-3.6 3.1-15.2 4.1-15.2 1.1 0 1.1 1.5-.1 13.6-2.1 22.3-2.1 26.7-.1 30.4 1 2 2.7 3.6 4 3.8 2.4.4 2.8-1.7.8-3.7-.8-.8-1.1-4.3-1-10.9.2-13.6 1.8-23.8 4.8-30.6 2.7-6.1 2.7-8.6 0-8.6-2 0-2 0 2.1-13.1 3.7-11.6 8.6-22.4 12.1-26.8l2-2.5 1.4 5.5c.7 3 1.2 7.7 1 10.6-.2 4.5.2 5.5 3 8.7 4.9 5.6 11 8.8 18.2 9.3 8.9.7 13.9-.9 17.7-5.7 1.7-2.2 3.6-4 4.2-4 1.7 0 9.1-7.2 10.8-10.5 1-2.1 2.3-3.1 4.3-3.3l2.9-.3-.7 6.5c-.6 5.3-.4 7.1.9 9.1 2.8 4.2 7.5 6.5 13.3 6.5 4.4 0 5.8-.5 8.8-3.1 2.8-2.5 3.5-3.8 3.5-6.8 0-2-.7-5-1.6-6.6-3-5.6-3.3-7.8-1.3-11.1l1.9-3.2-2.5-1.6c-3.2-2.1-3.2-3.6 0-6.6 2-1.9 2.4-3 2-5.1-.4-1.6-.1-3.7.5-4.8.8-1.5.8-2.7 0-4.1-.9-1.6-.7-2.6.9-4.7 1.2-1.4 2.1-3.6 2.1-4.9 0-1.8.6-2.4 2.1-2.4 1.7 0 2 .4 1.6 2.2-.4 1.3.1 6.1 1 10.8.8 4.7 1.8 10.7 2.2 13.4.3 2.7 1.2 5.1 1.9 5.4 1.4.4 1.7-10 .3-16.3-.5-2.2-1.2-6.6-1.6-9.8l-.6-5.7h4.5c6.6 0 8-1.8 7.2-9.4-.4-3.4-1.2-8.1-1.9-10.5l-1.2-4.3-5.2.6c-2.8.3-5.8.9-6.7 1.2-1.3.5-1.6-.1-1.6-2.6 0-2.7.3-3 2-2.5 2.3.7 2.1 3 2-24.5-.1-33.6-.5-38-3-36.5-.5.3-.9 11.4-.9 24.6 0 13.3-.2 24.3-.5 24.7-.3.3-.6-2.6-.6-6.5 0-3.8-.7-11.4-1.5-16.9-.8-5.4-1.7-13.1-2-16.9-1.1-14.4-2.3-21.5-3.6-21.5-1.5 0-1 17.7 1 33.1 1.1 8.1 2.3 21.1 2.6 29 .3 7.9.7 15.3.8 16.4.1 1.4-.5 2.1-2.2 2.3-2.8.4-6-3-6.1-6.5 0-1.2-1.1-4.6-2.4-7.5-3.3-7-4.4-11.5-7.2-28.8-1.2-8-2.8-16.5-3.3-19-.9-4.2-.8-4.7 1.4-6.5 2.6-2.2 4.7-5.6 12.9-21.5 3-5.8 7-12.5 9-14.9 2-2.4 3.6-5 3.6-5.8 0-1.2.8-1.4 3.3-.9 1.7.3 7.3.9 12.2 1.2zM139 272c.7 4.7 1.9 11 2.6 14.1 1.8 7.4 1.8 10.8-.2 13-1 1.1-1.2 1.9-.4 2.4.6.3.9.1.8-.6-.2-.6.2-1.3.7-1.5 1.1-.4 3 8.3 4 18.1.3 2.7.9 5.9 1.2 7 1.7 5-.2 14.7-4.3 22.7-1.9 3.8-3.8 3.7-3.1-.2 1.5-7.4-4.7-1.9-8.9 7.9l-2.8 6.4-2.2-2.8c-3-3.8-4.7-2.4-7 6.2-1 3.7-3.2 8.5-4.9 10.7-1.6 2.3-3.8 5.4-4.8 6.9-3.1 4.8-9 10.9-11.5 11.8-1.4.5-2.2 1.2-1.9 1.6.4.3-1.2 2.8-3.5 5.5-2.2 2.7-4.2 4.7-4.5 4.5-.8-.8 5.8-19.7 6.9-19.7.6 0 .8-.3.5-.6-.3-.4-.1-1.6.5-2.8 1.2-2 1.3-2.5 1.6-5.4.1-.6 1.1-1.2 2.1-1.2 1.1 0 2.3-.5 2.7-1.2.5-.8 0-.9-1.5-.5-1.2.3-2.1.2-1.9-.1.2-.4 1.8-4.6 3.7-9.4 1.8-4.8 3.7-8.5 4.2-8.2.5.3.6-.2.3-1-.7-1.8 4.7-18.7 5.8-18 1.1.7 3.7-5.9 2.8-7.1-.9-1.2-.1-7.7.9-7.1.3.2.6-.9.7-2.6.1-1.6.6-4.6 1.2-6.6s1.7-5.9 2.5-8.7c.8-2.7 1.9-5.1 2.6-5.3.8-.3.8.3.1 2.2-.5 1.5-.6 2.6 0 2.6 1.2 0 1.7-1 2.1-4.5.2-1.7.7-3.2 1.1-3.5 1.2-.9 1.9-8.2.8-7.5-.6.4-1 .1-1-.4 0-.6.7-1.1 1.5-1.1 1.6 0 2.1-1.6.7-2.2-.5-.2-1.2-2.2-1.6-4.6-.5-3.1-.3-4.4.7-4.8.8-.3 1.2-1.5.9-3.3-.3-1.9.4-3.7 2.2-5.8 1.4-1.7 2.6-3.4 2.6-3.7 0-.4.6-1.3 1.3-2 1.6-1.8 2-.6 3.7 10.4zm162 7.5c0 .5-.5.3-1-.5s-1-2-1-2.5c0-.6.5-.3 1 .5s1 1.9 1 2.5zm3.5 4.5c.7 2.2.6 2.3-.9 1.1-.9-.7-1.6-2.3-1.6-3.4 0-2.6 1.5-1.2 2.5 2.3zm55.5 3c0 .5-.4 1-1 1-.5 0-1-.5-1-1 0-.6.5-1 1-1 .6 0 1 .4 1 1zm-5.2 5.1c1.3 1.9 3 3.3 3.8 3.1 1.1-.2 1.4 1.1 1.2 6.5-.1 4.7-.3 5.5-.5 2.6-.2-2.3-1.1-4.7-1.9-5.3-1.2-1.1-1.4-.2-1.4 5.8 0 3.9-.3 7.8-.7 8.8-.5 1.4-.2 1.6 2 1 3.5-.8 3.6 1.1.1 2.4-1.4.6-3.9 1-5.5 1s-2.9.4-2.9 1c0 1.2 3.4 1.9 7.5 1.7 2.1-.1 3 .3 3.3 1.5.2 1.3-.1 1.6-1.2 1.2-1.2-.5-1.6 0-1.6 2 0 5.9-7 3.4-8.8-3.1-.9-3.4-3.7-11.2-7.3-20-1-2.6-1-3.4 0-4.7.8-.9 2-1.6 2.7-1.6.8 0 1.6-1.1 2-2.5.7-2.7 4.2-5.7 5.9-5.2.5.2 2 1.9 3.3 3.8zm-56-.8c.4 2.1-2.4 1.3-3.2-.9-.4-1.1-.1-1.4 1.1-1.2 1 .2 1.9 1.1 2.1 2.1zm-4.5 30.2c-.3.8-.9 1.5-1.5 1.5-.5 0-.7.4-.4.8.2.4.1 1.4-.5 2.2-.7 1.3-.9 1.2-.9-.2 0-2.8 1.9-7 3-6.3.5.3.7 1.2.3 2zm1.8 4.2c-1.8 3.3-4 5.8-4.1 4.6 0-2.3 2.3-6.3 3.7-6.3 1 0 1.1.5.4 1.7zm14.4 1.3c0 2.1-4.1 2.5-4.9.5-.3-.9-.2-1.3.4-1 .6.3 1 .1 1-.5s.8-1 1.8-.8c.9.2 1.7 1 1.7 1.8zm50.3 9.7l-.3 6.8h-3c-2 0-3-.5-3-1.5s.8-1.4 2.3-1.3c1.2.2 2.2-.2 2.2-.7 0-.6-1.1-1-2.5-1-3.1 0-3.3-1.7-.2-2.3l2.2-.4-2.2-.8c-2.5-.8-3.1-2.5-.9-2.5.8 0 1.6-.7 2-1.5.3-.8 1.2-1.5 2.1-1.5 1.3 0 1.5 1.1 1.3 6.7zm-65.3-1.7c-.4 1.1-.8 3.2-1 4.8-.2 1.5-.4 3.1-.5 3.7-.2 1.7-1.9-2.9-1.9-5.6-.1-2.5 1.5-4.9 3.2-4.9.4 0 .5.9.2 2zm31.7 7.1c.3 3 0 3.4-1.9 3.1-2.2-.3-3.4 2.2-1.4 3 1.3.5 2.4 4.8 1.2 4.8-.6 0-1.1.9-1.1 2s-.4 2-1 2c-.5 0-1-.8-1-1.9 0-1-.7-2.4-1.5-3.1-.9-.7-1.3-2-1-2.8.3-.8-.4-2.6-1.6-3.9-1.3-1.2-1.7-2.3-1.1-2.3 1.8 0 1.4-2.4-.9-5.4-2-2.6-2-2.6 0-2.6 2.4 0 5.4 2.8 4.7 4.5-.3.8.2 1.6 1.1 1.9 2.3.9 2.9-.2 1.5-2.4-.6-1.1-.9-2.6-.6-3.5.9-2.3 4.3 2.5 4.6 6.6zm-15-4.7c.7-.4.8-.2.4.5-.9 1.4-3.6-.3-3.6-2.3 0-.6.5-.3 1.1.7.6.9 1.5 1.4 2.1 1.1zm-11.8 1.1c-.4.8-.8 1.5-1 1.5-.2 0-.4-.7-.4-1.5s.4-1.5 1-1.5c.5 0 .7.7.4 1.5zm13.6 2.6c0 .5.4.8.8.5.5-.3.9.8.9 2.4v2.8l-1.9-2.3c-2-2.6-2.3-4.5-.8-4.5.6 0 1 .5 1 1.1zm-9 .8c0 .6-.4 1.3-1 1.6-.5.3-1-.1-1-.9 0-.9.5-1.6 1-1.6.6 0 1 .4 1 .9zm-7 2.5c0 1.7-1.4 2.9-2.3 2-.8-.8.3-3.4 1.4-3.4.5 0 .9.6.9 1.4zm4.6 4.1c-.3.8-1.2 1.5-2.1 1.5-1.4 0-1.3-.3.2-2.6 1.7-2.6 3-1.8 1.9 1.1zm31.4 3.1c0 1.1-.5 1.1-2.5.2-1.6-.7-2.4-1.7-2-2.6.3-.7.5-1.9.5-2.5.1-1.7 4 3.2 4 4.9zm27-4.1c0 .9-.9 1.5-2.5 1.5s-2.5-.6-2.5-1.5.9-1.5 2.5-1.5 2.5.6 2.5 1.5zm-43 2.6c0 .6-.4.7-1 .4-.5-.3-1-1.1-1-1.6 0-.6.5-.7 1-.4.6.3 1 1.1 1 1.6zm-13.3 3c-.8 1.3-1.8 3.7-2.1 5.4-1.1 5.1-2.8 8.5-4.1 8.5-1 0-1.1-.8-.4-3.6.8-2.5.7-3.9-.1-5-1.4-1.5-.7-4.4 1-4.4.7 0 .9.9.4 2.2-.7 2.3-.7 2.3 1.5.4 1.2-1.1 2-2.4 1.8-3-.7-1.8 1.4-4.9 2.5-3.8.7.7.5 1.8-.5 3.3zm56.7 1c-.8 1.4-3.4 1.1-3.4-.4 0-.8.3-1.7.7-2 .9-.9 3.4 1.3 2.7 2.4zm-48.9 1.1c-.4 1.3-1.1 2.7-1.6 3.2-.5.6-.9 1.9-.9 3 .1 1.9.3 1.9 2.3-.7 2.5-3 3.7-3.4 3.7-1.2 0 .8-.5 1.4-1.2 1.2-.6-.1-1.4.7-1.6 1.8-.2 1.1-1 2.7-1.7 3.5-.7.8-1.5 2.6-1.8 4-.3 1.4-1.3 3.4-2.2 4.5-1.5 1.9-1.6 1.9-1.3-1 .1-1.7.7-3.7 1.4-4.5 1.5-2 2.5-5 1.6-5-.4 0-1.4 1.5-2.2 3.2-.8 1.8-2 3.4-2.6 3.5-1.7.5-.4-4.7 1.2-5.4.8-.3 1.4-1.1 1.4-1.9 0-.8.4-2.2.9-3.2.5-.9 1.4-2.9 2-4.5 1.3-3.3 3.5-3.7 2.6-.5zm-147.8.3c-5.3 2-6.5 2.2-6.9 1-.3-1 3.9-2.2 8.2-2.3 2 0 1.7.2-1.3 1.3zm168.1-.3c.9.9 1.2.9 1.2 0 0-.7.5-1.2 1-1.2.6 0 1 .7 1 1.6 0 .9.8 2.3 1.8 3.1 1.3 1.1 1.4 1.6.4 2-1 .4-1 .8-.1 1.9.9 1.1.8 1.4-.5 1.4-1 0-1.4.5-1.1 1 .5.8 1.2.7 2.2-.1 1.8-1.5 3.3.2 3.3 3.9 0 4.2-4.6 3.6-6.2-.8-.4-1.1-.9-.7-1.7 1.2-.6 1.6-1.5 2.8-2 2.8-.6 0-.8.8-.4 1.7.5 1.5.3 1.6-.7.6-1.1-1-1.1-1.5 0-2.9 1.2-1.4 1.1-1.8-1-3.4-2.3-1.8-2.5-1.8-3.2-.2-.5 1.4-.8 1.1-1.7-1.3-1.7-4.7-1.7-4.8.5-5.1 1.2-.2 2.9.5 3.9 1.6s2.3 2 2.9 2c.6 0 .2-.7-.8-1.5-1.1-.8-1.7-1.5-1.3-1.5.4 0-.1-.9-1.1-2.1-3.5-3.7.1-8.2 3.6-4.7zm-150.6 3c2.3 1.8 1.3 6.4-1.5 7.2-1.2.3-5 .6-8.5.6-4.8 0-6.4-.4-6.9-1.6-.8-2.2.9-3.6 7-5.5 6.5-2.1 7.9-2.2 9.9-.7zm180.6 1.1c.2 1-.3 1.7-1.2 1.7-1 0-1.6-.9-1.6-2.1 0-2.4 2.3-2.1 2.8.4zm-235.5 4.2c-.3.9-.8 1.4-1 1.1-.3-.3-.2-.9.2-1.5.9-1.6 1.5-1.3.8.4zm26.7-.5c0 .5-.4 1-.9 1-.6 0-1.3-.5-1.6-1-.3-.6.1-1 .9-1 .9 0 1.6.4 1.6 1zm58.5 9.2c1.5 10.9 2.3 10-9 10.4-23.5.9-40.3 3.7-53.9 9.1-9.6 3.8-10.6 3.6-10.6-1.9 0-1.5-.4-2.9-.9-3.2-.5-.3-1.1-1.7-1.3-3-.5-2.3-.1-2.5 4.6-3.1 10.9-1.4 37.5-6.6 53.6-10.5 16.8-4.1 16.6-4.1 17.5 2.2zM313 371c0 .5-.7 1-1.6 1-.8 0-1.2-.5-.9-1 .3-.6 1-1 1.6-1 .5 0 .9.4.9 1zm7 .9c0 1.2-3.1 4.3-3.7 3.7-.9-.9.9-4.6 2.3-4.6.8 0 1.4.4 1.4.9zm-16.4 2.6c-.5 1.9-.2 2.5 1 2.5 2.3 0 1.2 2.2-2.2 4.1-4.7 2.7-5.1 1.3-1.6-5.9 2-3.8 3.7-4.3 2.8-.7zm42.3.5c1.4 4.1 1.4 4.4.3 4.8-.5.1-1.4-1.5-2-3.8-1.2-4.6.1-5.4 1.7-1zm-8.4 1.6c-.3 2.6 1.2 3.3 2.1.9.9-2.3 2.7-1.8 2.1.6-.3 1.2 0 2.8.9 3.6.8.9 1.4 1 1.4.3 0-.6.5-.8 1-.5.6.4 1.7.1 2.5-.5 1.2-1 1.6-.9 2 .1.2.8 1.1 3.4 2 5.9 3.7 10.4 4.3 14 2.8 15.5-1.2 1.2-1.1 1.7.7 3.5 1.1 1.1 2 2.6 2 3.4 0 .7.6 1.9 1.4 2.5 1.9 1.6 5.5 10.2 8.2 19.6 2 6.9 2.1 8.1.8 8.8-1.2.7-1.1 1.2.6 3.4 1.1 1.4 2 3.2 2 4 0 .8.4 1.2.9.9.4-.3 1.4 2.2 2.2 5.7.7 3.4 1.4 6.4 1.5 6.7 0 .3.3 1.2.7 2 2.3 5.8 4.9 20.2 5.3 30 .4 9.8.2 12.4-1.5 17.5-1.1 3.3-1.9 5.1-1.8 4 .2-1.9-.3-2.5-2.1-2.5-.5 0-.8 2.2-.8 4.9 0 2.9.4 4.7.9 4.4.6-.4.7.5.3 2.3-.4 1.6-.7 3.9-.7 5.2.1 1.5-.4 2.2-1.2 1.9-.8-.2-1.2-2.9-1.2-8.3-.1-10.4.6-13 3.2-12.6 1.7.2 2-.1 1.5-2.3-.2-1.4-.9-2.8-1.5-3.2-.5-.3-.8-.2-.5.3.3.5-.3 1.7-1.2 2.7-1.7 1.8-1.8 1.7-2.3-1-.3-1.5-.6-3.5-.6-4.3 0-.8-.5-4-1.1-7-.6-3-1.1-9.6-1.2-14.5-.1-5.1-.6-9.3-1.2-9.7-.7-.5-.4-.8.7-.8.9 0 1.7-.5 1.7-1 0-.6-1.1-1-2.5-1-2.6 0-3.3-1.8-1.5-3.6.8-.8.6-1.5-.4-2.3-1-.8-1.3-2.2-1-4 .4-1.8 0-3.2-1-4-1.7-1.4-2.2-5.1-.8-5.1 1.2 0 3.3-5 2.6-6.1-.3-.5-.9-.7-1.3-.4-.5.2-1.1-1.3-1.5-3.5-.3-2.2-1-4-1.5-4-.4 0-.6-1.1-.3-2.5.3-1.8 0-2.5-1.2-2.5-1.3 0-1.4-.5-.6-2.6 1.3-3.3 1.3-3.4-.5-3.4-.8 0-1.5-.5-1.5-1 0-.6-.9-1-2-1-1.4 0-1.8.5-1.3 1.7.4 1 .2 1.4-.5 1-.6-.4-1.8-2.9-2.7-5.5-1-2.6-2.4-6.3-3.3-8.2-.9-1.9-1.6-4.5-1.6-5.8 0-1.2-.3-2.2-.7-2.2-.5 0-1.7-3.7-2.3-7.2-.2-1.4-1.6-2-1.7-.7-.1 1.9-2.8-4.1-2.9-6.4 0-1.1-.9-3-2-4.4-1.6-2.1-1.8-2.9-.8-4 1-1.2.9-1.7-.3-2.7-2.1-1.5-1.3-4.5 1.1-3.9 1.2.3 1.7 1.2 1.5 2.9zM118.1 384c-1 3.6-3.2 9.3-5 12.8-2.6 5.2-3.5 6.1-4.6 5.2-.8-.6-1.9-.9-2.5-.5-2 1.3-7.8 11-15.2 25.8-4.1 8.2-5.3 9.8-6.9 9.4-1.2-.3-1.9 0-1.9.9 0 .8.6 1.1 1.6.7.9-.3 1.5-.2 1.3.3-.3.5-1.1 2.2-1.8 3.9-.8 1.6-2.5 5.3-3.8 8.2-1.3 2.9-2.8 8-3.4 11.5-.6 3.4-1.4 6.7-1.9 7.4-.6.6-.7 1.4-.3 1.7.6.7-1.5 3.7-2.7 3.7-.9 0-3.2-5.1-2.6-5.8.3-.3 1.2 0 2 .7 1.1.9 1.4.7 1.8-1.2.3-1.3.1-3.4-.4-4.7-.5-1.3-.5-2.6 0-2.9 1-.7 1-5.6 0-6.7-1.2-1.1-1-2.6.2-1.9.6.3 1.1.3 1.1-.2 2.1-12.9 3-15.6 10.6-29.9 5.6-10.4 8.1-13.5 10.6-13.2 1.3.2 2.2-.2 2.2-1s.8-2 1.9-2.7c1-.8 1.5-1.8 1.1-2.4-.3-.6.1-1.1 1-1.1.8 0 1.8-.8 2.2-1.8.3-.9 2.2-3.8 4.2-6.4 2-2.6 5.6-7.4 8.1-10.7 2.4-3.3 4.5-5.9 4.6-5.8.2.1-.5 3.2-1.5 6.7zm198.2-6.4c.7.8-1.3 5.4-2.5 5.4-.9 0-1.1-2.2-.2-4.4.6-1.7 1.6-2 2.7-1zm7.5 2.1c-.2.9-.8 1.8-1.5 2-.7.3-.9-.3-.6-1.6.6-2.5 2.6-2.8 2.1-.4zM126 383.5c0 .8-.4 1.5-1 1.5-.5 0-.7-.7-.4-1.5.4-.8.8-1.5 1-1.5.2 0 .4.7.4 1.5zm7.5 1.5c-.3.4.1 1 .7 1.3.7.2.9.8.5 1.3s-1.2.2-1.7-.6c-1.3-2-1.3-4.3 0-3.5.6.4.8 1 .5 1.5zm184.5-1c0 .5-.5 1-1.1 1-.5 0-.7-.5-.4-1 .3-.6.8-1 1.1-1 .2 0 .4.4.4 1zm9-.6c0 .3-.4.8-1 1.1-.5.3-1 .1-1-.4 0-.6.5-1.1 1-1.1.6 0 1 .2 1 .4zM185.5 389c-1.1.5-2.7.9-3.5.9-.9 0-.8-.4.5-.9 1.1-.5 2.7-.9 3.5-.9.9 0 .8.4-.5.9zm143.5 0c0 .5-.4 1-1 1-.5 0-1-.5-1-1 0-.6.5-1 1-1 .6 0 1 .4 1 1zm-149 .4c0 .9-3 1.4-3.5.6-.4-.6.3-1 1.4-1 1.2 0 2.1.2 2.1.4zm134.3 3.1c-.3.9-.8 1.4-1 1.1-.3-.3-.2-.9.2-1.5.9-1.6 1.5-1.3.8.4zm-180.2 2.8c-1.2 3.1-3.1 4.4-3.1 2.1 0-1.7 3-5.8 3.7-5 .2.2-.1 1.5-.6 2.9zm53.2-.3c-.4.4-2.9 2-5.5 3.5l-4.8 2.7-1-2.7c-1.4-3.6-1.3-3.6 1.3-3 1.2.3 3.5-.1 5.1-.9 2.7-1.4 6.6-1.1 4.9.4zm-16.9.2c2.1.9 2.4 1.6 1.9 3.7-.8 3.5-.7 3.5-4.9 2.1-3-1-3.8-1-4.5.1-.9 1.6-.8 1.8 4.3 4.8 3.3 2 3.7 2 4.6.5.6-1.1 1.2-1.3 1.6-.6.8 1.3 8.2-.7 11.7-3.2 2.9-2 3.9-2 3.9-.2 0 .8-2.3 2.9-5.1 4.6-4.6 3-5.2 3.2-6.7 1.7-1.5-1.5-1.8-1.4-4.2 1.5l-2.6 3.1-5.3-1.8c-3.7-1.2-5.6-1.4-6.3-.7-.7.7 0 1.5 2.3 2.6 1.9.9 4.6 2.4 6.1 3.4 2.6 1.6 2.9 1.6 5.7-.1 3.8-2.2 4.8-2.2 2.7.2-2.8 3.1-6.5 3.2-12.7.4-4.4-1.9-6.4-3.5-8.8-7.3-3.3-5.1-4.5-12.4-1.6-10 1.6 1.3 3.5.6 3.5-1.4 0-1.6 5.7-4.5 9.2-4.5 1.5-.1 3.8.4 5.2 1.1zm-26.6 6.3c-.6 1.4-1.6 2.5-2.1 2.5s-.4-.7.3-1.5c.6-.8.9-1.9.5-2.5-.3-.5.1-1 .9-1 1.3 0 1.4.4.4 2.5zm191.2 2.7c0 1-.7 1.8-1.5 1.8-1.2 0-1.4-.4-.5-1.9.7-1.3.7-2.2 0-2.6-.5-.3-1-1.2-1-1.8.1-1.9 3 2.5 3 4.5zM120 403c0 1.1-.4 2-1 2-.5 0-1-.9-1-2s.5-2 1-2c.6 0 1 .9 1 2zm14-1.3c0 .5-.4 1.5-1 2.3-1.1 1.8-2.5.7-1.7-1.5.6-1.5 2.7-2.1 2.7-.8zm3 2.7c0 .8-.4 1.7-.9 2.1-1.2.7-2.4-1.2-1.6-2.5.9-1.5 2.5-1.2 2.5.4zm165.6 3.7c-3.2 3.7-3.4 2.9-.4-1.9 1.2-2 2.4-3 2.6-2.4.2.7-.8 2.6-2.2 4.3zm18 1.4c-.7 1.8-2.6 2-2.6.2s2.4-4.1 2.8-2.7c.2.6.1 1.7-.2 2.5zm-204.3 1.7c.7 2.5.3 3.3-1.2 2.3-1.3-.8-1.5-4.5-.2-4.5.5 0 1.1 1 1.4 2.2zm192.7 3.9c-.7 1.1-1.4 1.8-1.7 1.5-.8-.8.5-3.6 1.7-3.6.7 0 .7.6 0 2.1zm30.3 3.4c-.7 2.1-1.3 1.9-1.3-.6 0-1.1.4-1.8 1-1.4.5.3.7 1.2.3 2zm-219.2.6c1.4 2.7 1.9 6.9.8 6.9-1.3 0-3.1-4-2.5-5.6.3-.8.1-1.4-.4-1.4-.6 0-1-.5-1-1 0-1.8 1.9-1.1 3.1 1.1zm27.4-.1c0 .7-.6 1.5-1.2 1.7-.8.3-1.3-.4-1.3-1.7 0-1.3.5-2 1.3-1.8.6.3 1.2 1.1 1.2 1.8zm181.5-.6c0 .8-.7 1.6-1.5 2-1.5.5-2.1-1.4-.8-2.7 1.1-1.2 2.3-.8 2.3.7zm-39.1 7.3c.1.7-.9 1.3-2 1.3-1.7 0-2-.4-1.5-2.3.3-1.2.6-3.3.7-4.7 0-2.2.2-2.1 1.4 1 .7 1.9 1.4 4.1 1.4 4.7zm32.9-1.1c-.8 2.2-2 4-3.1 4.2-1.5.3-1.6 0-.5-2.5 1.3-3.1 3.9-6.5 4.5-6 .2.2-.2 2.2-.9 4.3zm-147.8-1c3.2-.4 5-.3 5 .4 0 .6-2.5 1-5.8 1-4.8 0-6.3-.4-7.8-2.2l-1.9-2.1 2.8 1.8c2.1 1.4 3.8 1.6 7.7 1.1zm168 5.1c0 1.8-.4 3.3-.9 3.3s-.9-2-.9-4.6c.1-5.1 1.8-3.9 1.8 1.3zm-28.6-3.2c-.4.8-1 1.5-1.5 1.5-.4 0-.6-.7-.3-1.5.4-.8 1-1.5 1.5-1.5.4 0 .6.7.3 1.5zm16.6.5c0 .5-.5 1-1.1 1-.5 0-.7-.5-.4-1 .3-.6.8-1 1.1-1 .2 0 .4.4.4 1zm-6.2 1.2c-.2.6-1 1.4-1.6 1.6-.7.2-1-.2-.6-1.2.7-1.8 2.8-2.2 2.2-.4zm10.2.2c0 .3-.4.8-1 1.1-.5.3-1 .1-1-.4 0-.6.5-1.1 1-1.1.6 0 1 .2 1 .4zm-43 5.4c0 1.5-.2 1.5-1 .2-1.3-2-1.3-3.3 0-2.5.6.3 1 1.4 1 2.3zm-102.5 1.6c2.5 1.8 2.5 7.8 0 10.6-3.2 3.6-11 2.1-13.6-2.6-1.1-2.1-1-2.8.8-5.1 2.9-4 9.3-5.5 12.8-2.9zm159.5 2.5c-.1 1.3-.3 1.3-1.5-.3-1.9-2.6-1.9-4.2 0-2.6.8.7 1.5 2 1.5 2.9zm10-2.3c0 .8-.4 1.2-1 .9-.5-.3-1-1-1-1.6 0-.5.5-.9 1-.9.6 0 1 .7 1 1.6zM157 436c0 1.4-3.7 5-5.1 5-.6 0 .1-1.3 1.7-2.9 3.5-3.4 3.4-3.4 3.4-2.1zm140.6 5.7c-.9.9-5.6-4.2-5.6-6 0-.6 1.4.3 3.2 2 1.8 1.8 2.8 3.6 2.4 4zM334 437c0 1-.8 2.3-1.7 2.9-1.3.7-1.5 1.4-.8 2.4 5.4 7.6 5.1 6.7 2.6 8.6-2.2 1.7-2.3 1.9-.7 4.9.9 1.8 1.8 4.9 1.9 6.9.2 3.2-.3 4-4.1 7-5.9 4.5-7.2 3.1-2.2-2.3 3.9-4.2 4.9-6.7 3.2-7.8-1.5-.9-7.7 4-10.5 8.3-1.5 2.3-3.4 4.1-4.2 4.1-2.2 0-1.8-1.3 1.1-4.1 3.4-3.2 8.4-10.9 8.4-13 0-2.8-3.3-5.8-7.1-6.4-4.2-.8-4-.9-10.2 8.4-2.3 3.6-4.8 6.6-5.4 6.9-2.2.6-1.4-2.9 1.3-6.5 1.4-1.8 3.2-5.5 4.1-8.1 2-6.1 3.8-8 7.7-8.4 2.7-.3 3.1-.6 2.9-3.1l-.2-2.7h7c6.2 0 6.9.2 6.9 2zm-193 2.3c0 2-1.7 4-2.9 3.3-.7-.5-.7-1.4.1-3.1 1.1-2.4 2.8-2.5 2.8-.2zM87.3 449c-.9 2.9-1.9 4.8-2.1 4.2-.4-1.3 2.8-10.5 3.5-9.9.2.2-.4 2.8-1.4 5.7zm57.7-2.5c0 2-1.9 2.7-6.6 2.3l-3.9-.3 4.5-1.7c5.7-2.1 6-2.1 6-.3zm209 2.4c0 1-.7 2.4-1.5 3.1-1.3 1.1-1.2 1.6 1 3.7 2.7 2.8 2.7 2.6 5 13.8 1.3 6.1 1.4 8 .5 8.3-1 .4-1 .6 0 1.2.9.6.9 1.3.1 2.9-2 3.6-3 2.3-2.5-3 .4-4.8.4-5-1.7-3.9-1.1.7-2.3.9-2.7.6-.3-.3 0-.6.6-.6.7 0 1.2-.7 1.2-1.5 0-.7.6-1.8 1.4-2.2 1.2-.7 1.3-1.6.3-5.3-1.4-5.6-1.3-5.5-3.1-4.1-.8.7-2 1-2.5.7-1.1-.7-3.1 2.4-3.7 6.1-.7 3.8-5 9.8-5.7 7.9-.9-2.3 1-7.9 4.1-12.2 4.2-5.8 4.7-7.4 1.3-3.5-3.7 4.2-4.7 3.7-2.2-1 1-1.9 1.6-4 1.4-4.7-.6-1.5 1.6-4.4 2.8-3.7.4.3 1.6-.6 2.6-1.9 2.2-3 3.3-3.3 3.3-.7zm-52.6 5.4c-.2.7-1.4 1.9-2.7 2.6-2.1 1.3-2.1 1.2.2-1.3 2.7-2.9 3.3-3.2 2.5-1.3zm20.6-.3c0 .5-.4 1-.9 1-.6 0-1.3-.5-1.6-1-.3-.6.1-1 .9-1 .9 0 1.6.4 1.6 1zm-237.9 5.1c-.9 2.3-1 2.2-1-1.1-.1-2.3.2-3.1.9-2.4.7.7.7 1.9.1 3.5zm232.7 4.8c-3.2 4.3-5.3 6.1-7 6.1-2.9 0-1.8-4 2.5-8.7 1.9-2.2 2.2-2.2 3.9-.6 1.4 1.3 1.6 1.9.6 3.2zm-234.1 2.3c-.3.7-.5.2-.5-1.2s.2-1.9.5-1.3c.2.7.2 1.9 0 2.5zm-13 1c-.3.7-.5.2-.5-1.2s.2-1.9.5-1.3c.2.7.2 1.9 0 2.5zm280.1 4.3c-.3.3-.9-.2-1.2-1.2-.6-1.4-.5-1.5.5-.6.7.7 1 1.5.7 1.8zm-2 7.7c-.8 1.2-2 2.4-2.7 2.6-.9.3-.7-.5.4-2.2 1-1.4 2.2-2.6 2.7-2.6.6 0 .4 1-.4 2.2zm5.2-.8c0 .8.6 1.6 1.3 1.9.9.4.9.7-.1 1.8s-1.5 1-2.8-.3c-.9-.9-1.4-2.4-1.1-3.2.8-2 2.7-2.1 2.7-.2zm33.7 4.8c-.3.8-.6.5-.6-.6-.1-1.1.2-1.7.5-1.3.3.3.4 1.2.1 1.9zm-24.8 5.6c.1.7-.4 1-.9.7-.6-.4-.7-1.2-.3-1.8.3-.7-1.4.8-3.9 3.4-2.5 2.5-4.7 5.2-5 6-.5 1.2-.7 1.1-1.2-.2-.5-1.1.3-2.8 2.3-5 1.7-1.8 3.1-3.7 3.1-4.1 0-.5 1-1.8 2.2-3l2.2-2.2.7 2.4c.4 1.4.7 3.1.8 3.8zm-15.3-1.1c-1 1-1.9-.5-1-1.8.6-1.1.8-1.1 1.2 0 .2.7.1 1.5-.2 1.8zm13.4 4.8c0 1.8 1.6 2 2.3.2.3-.7.6-.4.6.6.1 1.8-3.5 7.9-5.1 8.5-.4.2-.8.8-.8 1.3 0 .6.5.7 1 .4.6-.4 1.7-.2 2.5.5 1 .8 1.5.8 2.1-.1.5-.9.9-.7 1.4.6.4 1.2-.1 3.2-1.2 5-1.5 2.7-1.6 3.2-.3 3.2.8 0 1.5-1 1.6-2.1 0-1.9.1-1.9 1 .3 1.1 2.8.5 5.2-1.2 4.9-.6-.2-1.3.5-1.4 1.4-.2 1 .1 1.8.6 1.8s.9-.6.9-1.3c0-.8.4-.7 1 .3 1.1 1.8 1.2 15.8 0 28.5-.8 8.7-1.9 25.5-2.5 36-.3 5.3-2 12.5-3.7 16.2-.8 1.6-.8 2.6 0 3.5 1.2 1.5.4 15-.8 14.3-.5-.3-.6 1.8-.3 4.5.5 5.3-.7 8-3.4 8-1.1 0-1.4-.7-1-2.1.3-1.2 0-2.2-.9-2.6-1.7-.6-1.9-3.9-.3-4.9.8-.4.8-.9 0-1.7-1.4-1.4-1.4-9.4-.1-10.2.6-.3 1-1.2 1-1.8 0-.8-.3-.8-.9.1-.6 1.1-1 1-1.5-.4-.4-1.1.1-2.9 1.4-4.6 2.3-3.2 2.2-6.8-.3-9.6-1.8-2-1.4-5.4.6-4.6.7.2 1.8 0 2.6-.5 1.1-.7 1.1-1.3-.1-3.9-1.7-3.3-1.1-5.2 2.9-9 2.5-2.5 2.6-4.3.3-5-.9-.3-1.1.2-.8 1.6.4 1.5.2 1.9-.8 1.5-.8-.3-1.4-.1-1.4.5 0 .5-.9 1.2-2 1.5-2.3.6-2.8-2.1-.8-4.1.9-.9.9-1.2 0-1.2-2 0-1.3-5.8 1.1-9.8 1.3-2 2.1-4.5 1.9-5.4-.2-.9.6-3.5 1.7-5.7 1.5-3.3 1.6-4.1.5-4.1-2.4 0-4-4.8-2.5-7.2 1-1.6 1-2.2.1-2.8-.9-.6-.9-.9 0-1.5.6-.4.9-1.3.6-2.1-.3-.8.1-3.3.8-5.6 1.3-3.5 1.3-4.3.1-5.5-1.4-1.4-.7-4.7 1.8-8.1.6-.8.5-1.2-.2-1.2-.6 0-1.1-.6-1.1-1.4 0-.8-.5-1.8-1.2-2.2-.8-.5-.9-.2-.5.9.3.9.2 1.9-.3 2.2-1.9 1.2-2.1-3.6-.1-6.8 1.3-2.2 1.7-3.7 1.1-4.8-.6-1-.4-2.3.6-3.7 1.8-2.5 3.4-2.9 3.4-.7zm12.7 42.7c-.3.7-.5.2-.5-1.2s.2-1.9.5-1.3c.2.7.2 1.9 0 2.5zM52 543.1c14.7 8.3 23.6 19.8 26.5 33.9.8 4.1 1.7 5.8 3.4 6.6 2.3 1.2 2.4 1.4 2.7 20.6.2 10.6.5 21.1.5 23.4.1 2.2-.7 6.7-1.9 10-1.1 3.2-2.3 8.8-2.6 12.4-.3 3.6-.8 9.2-1.1 12.5-1 10.8-2.5 23.8-3 24.4-.2.4-1.3 5.2-2.4 10.6C72 708.1 69.6 715 68 715c-.5 0-1.4-.8-1.9-1.8-1-1.6-1.2-1.5-2.8.5-1.2 1.5-3.3 2.5-6.3 2.8-4.5.6-17.2.6-17.8 0-.9-.9-2.2-20-2.2-33.3 0-13.3.3-15.8 2-19.2 1.1-2.1 2.9-4.1 4-4.5 1.1-.4 3.9-2.6 6.2-5.1 4.5-4.8 5.8-5.4 5.8-2.5 0 1 .7 2.1 1.5 2.5.8.3 1.5 1.2 1.5 2 0 2.2 15 2.7 16.7.6 2.1-2.6 1-4.5-2.7-4.8-3.5-.4-6-1.7-6-3.2 0-.9 4.9-3.7 11.3-6.6 4.3-2 5.2-5.4 1.5-5.4-1.3 0-4.5-.7-7.2-1.5S63.7 634 60 634c-3.7 0-6.9-.2-7.2-.5-.2-.3-.3-1.8 0-3.4.3-2.5 1.1-3.1 6.3-4.7 3.7-1.2 6.6-2.8 7.5-4.2 2.5-3.8 1.2-5.2-5.1-5.2-4.6 0-5.5-.3-5.5-1.8 0-3.1-2.2-4.2-8.2-4.2-5.1 0-5.8-.2-5.8-1.9 0-1.3.8-2.1 2.3-2.3 5.1-.7 1.1-10-4.3-9.9-15.4.3-24.3 2.1-23.8 4.9.2.9 1.5 2.2 2.9 2.9 1.5.7 3.2 2 3.9 2.8 1 1.2.8 1.6-1.3 2.4-1.4.6-3.1 1.9-3.7 3.1-.6 1.2-2.1 2-3.6 2-1.3 0-4.1.7-6.1 1.5-6.7 2.8-6.3 4.7-6.3-30.4v-31.9l2.4-1.6c5.9-3.8 10.6-6.1 17.1-8.3 6-2 8.5-2.3 17.5-2 6.6.2 11.4.9 13 1.8zm294.3 1.1c-.4.7-1.5 4.2-2.4 7.8l-1.7 6.5-.1-5.8c-.1-4.4.3-6.1 1.9-7.7 2.2-2.2 3.5-2.7 2.3-.8zm5.3 15.5c-1.1 1.1-1.9-.6-1.1-2.4.8-1.7.8-1.7 1.2 0 .3 1 .2 2.1-.1 2.4zm141.8 7.9c2.6 1 1.8 2.1-1.6 2.2-3.7.1-5.1-.5-4.3-1.9.7-1 3.6-1.2 5.9-.3zM495 581c0 .5-.2 1-.4 1-.3 0-.8-.5-1.1-1-.3-.6-.1-1 .4-1 .6 0 1.1.4 1.1 1zm-128.9 13.5l-.9 4-.1-3.5c0-1.9.2-4.6.6-6 1.2-4.1 1.6.7.4 5.5zm12.9 2.6c0 1.3-5.2 4.1-6.1 3.2-.5-.5-.6-3.1-.3-5.8l.7-4.8 2.8 3.4c1.6 1.9 2.9 3.7 2.9 4zm101-4.1c0 1.2-.8 1.2-3.5 0-1.8-.8-1.7-.9.8-.9 1.5-.1 2.7.3 2.7.9zm15.8 3.2c.8 1 .4 1.3-1.4 1.3-1.3 0-2.4-.6-2.4-1.3 0-.6.6-1.2 1.4-1.2.7 0 1.8.6 2.4 1.2zm2.2 15.4c0 .8-1 1.4-2.5 1.4-2.6 0-3.5-2.5-1.2-3.3 1.8-.6 3.7.3 3.7 1.9zm-134.3 1.6c-.3.7-.5.2-.5-1.2s.2-1.9.5-1.3c.2.7.2 1.9 0 2.5zm126.3-1.4c0 1.3-1.2 2.2-2.2 1.6-1-.6-.1-2.4 1.3-2.4.5 0 .9.4.9.8zm-455.3 4.9c.5 1.3-4.3 3-5.4 1.9-.3-.3 0-1.3.7-2.1 1.5-1.8 4.1-1.6 4.7.2zm331.1 22.8c.9 5.6-.1 11.2-1.1 6.5-1-4.5-2.3-19.4-2.1-24 .3-8.1.7-7.6 1.5 2.4.5 5.4 1.3 12.2 1.7 15.1zM44.4 616.6c2.6 1 1.8 2.4-1.4 2.4-3 0-4.1-1.4-1.7-2.3.6-.3 1.3-.6 1.4-.6.1-.1.8.2 1.7.5zm446.1 1.5c-.8 1.2-3.5 1.2-3.5 0 0-1.1 2.2-2 3.3-1.4.4.2.5.9.2 1.4zM59 620c0 1.3-1.2 1.7-8 2.5-6 .7-6-.6 0-2.3 4.7-1.4 8-1.4 8-.2zm-39.3 1.7c.2.6-1.8 1.8-4.9 2.7-8.8 2.5-9.8 3.9-6.9 8.6.5.8 1.2 2.2 1.4 3.1.4 1 2.2 1.9 4.9 2.3 5.1.9 9.4 5.3 8.3 8.6-.9 2.8-4.3 2.5-5.4-.3-.8-2-1.5-2.3-4-1.9-2.4.3-3.1.1-3.1-1.3 0-1.2-.6-1.6-2-1.2-1.1.3-3-.3-4.3-1.3-1.9-1.6-2.2-2.6-1.9-8.6.2-7.3.9-8.4 5.5-8.4 2.1 0 3-.6 3.4-2.1.5-1.7 1.2-2 4.6-1.7 2.2.2 4.2.8 4.4 1.5zm453.3.8c0 .8-.9 1.5-2 1.5-2 0-2.6-1.1-1.3-2.3 1.2-1.3 3.3-.7 3.3.8zm12.6.6c1 1.7-1.3 3.6-2.7 2.2-1.2-1.2-.4-3.3 1.1-3.3.5 0 1.2.5 1.6 1.1zm-443.6.3c0 .3-.4.8-1 1.1-.5.3-1 .1-1-.4 0-.6.5-1.1 1-1.1.6 0 1 .2 1 .4zm454.3 7.8c-1 2.1-1.2 2.1-1.8.5-1-2.5.2-5.4 1.7-3.9.8.8.8 1.8.1 3.4zm-20.7.6c.1 1.8-.2 3.2-.7 3.2-.5 0-.9-.5-.9-1.1 0-.7-.8-1.8-1.7-2.5-1.6-1.2-1.6-1.5-.3-2.4 2.3-1.5 3.4-.6 3.6 2.8zm14.9-2.9c.3.5.1 1.3-.5 1.6-1.5.9-4.3-.3-3.5-1.5.8-1.3 3.2-1.3 4-.1zM465 630c0 .5-.4 1-1 1-.5 0-1-.5-1-1 0-.6.5-1 1-1 .6 0 1 .4 1 1zm-109 2.1c0 .6-.7 1.2-1.6 1.6-.8.3-1.3 1.2-1 1.9.3.7 0 1.6-.6 2-.7.5-.9-.2-.6-1.9.3-1.5 0-2.8-.5-3-.6-.2-.7-.8-.4-1.4.8-1.3 4.7-.5 4.7.8zm126.5 0c1 1.5-.1 2.3-2 1.5-.9-.3-1.3-1-1-1.6.8-1.3 2.2-1.3 3 .1zM358 636c0 .5-.5 1-1.1 1-.5 0-.7-.5-.4-1 .3-.6.8-1 1.1-1 .2 0 .4.4.4 1zm116.2 4.2c-1.5 1.5-2.6.4-1.8-1.8.5-1.3.9-1.5 1.8-.6s.9 1.5 0 2.4zm-119 3.8c-.9 1.6-1.9 2.5-2.1 1.9-.3-.9 2.6-4.9 3.5-4.9.2 0-.5 1.3-1.4 3zM40 645.9c0 3.2-2.9 7.9-3 4.8 0-1 .5-2.7 1-3.7.7-1.3.7-2.1 0-2.5-.6-.4-.8-1.1-.4-1.6 1-1.6 2.4.1 2.4 3zM4 646c0 .5-.4 1-1 1-.5 0-1-.5-1-1 0-.6.5-1 1-1 .6 0 1 .4 1 1zm483.3 10.3c-.8 14.4-2.2 16.6-2.1 3.3 0-11.5.5-14.9 1.9-14.1.4.3.5 5.2.2 10.8zm-128.6-4c.1 2.8.6 7 1.2 9.2 1.1 4.5-.3 10.5-2.6 10.5-1.6 0-1.7-4.6-.2-5.6.8-.4.7-1-.1-1.8-.8-.8-1.5-.7-2.4.6-2.1 2.8-2.4 2.1-1.4-2.5.5-2.3.9-5.3.9-6.7-.1-2 3.2-9 4.1-9 .2 0 .4 2.4.5 5.3zM49 649.7c0 1.5-6.8 8.8-7.5 8.1-1.3-1.2 1.1-6.3 3.6-7.5 2.8-1.5 3.9-1.6 3.9-.6zm317.7 4.5c-.3.8-.6.5-.6-.6-.1-1.1.2-1.7.5-1.3.3.3.4 1.2.1 1.9zm2.7 10c1 3.7 2.6 7.4 3.6 8.3 1 .9 1.6 2.3 1.3 3-.7 2.1 2.9 6.5 4.9 5.9.9-.3 1.9-.1 2.2.5.3.5 1.6.7 2.8.3 1.5-.4 1.9-.2 1.3.7-.4.7-1.5 1.1-2.4.8-2-.5-4.1 1.5-4.1 4.1 0 1-.4 2.2-.9 2.7-.6.6-1.2 2.3-1.5 3.9-.8 4.2-3.5 8.1-4.9 6.7-1.5-1.5-2.4-1.4-3.1.5-.4 1.2-.2 1.5.9 1 .8-.3 2.2-.3 3 .1 1.4.5 1.4.8 0 3-.9 1.4-1.9 3.7-2.1 5.1-.4 2.6-.4 2.6 1.6-.6 1.1-1.8 2-3.9 2-4.7 0-1.6 1.8-3 2.8-2.1.3.4.2 1.5-.4 2.4-1.2 1.9-.7 5.2.7 5.2 1.5 0 2.8-4.4 1.6-5.2-.6-.3.1-1.6 1.7-3.1 1.6-1.5 2.3-2.8 1.6-3.2-1.8-1.1-1.1-3.3 1.5-3.9 2-.5 2.5-1.3 2.5-3.6 0-1.6-.5-3.2-1-3.5-.8-.5-.7-1.1.1-2.1.6-.7 1.5-1.1 2-.8.5.3.9.2.8-.3-.4-2.6.4-3 6-2.7 6.8.3 9.2 1.4 15 6.6 3.9 3.6 4.1 4.1 4.1 9.3 0 3-.4 5.5-1 5.5-1 0-1.4-1.5-1-3.5.1-.6-.4-.4-1.1.2-2.2 2.2-4.2 1.6-2.9-.7.6-1.1 1.7-2 2.4-2 .9 0 1.2-.8.8-2.5-.5-2.7-2.8-2.9-5.6-.6-1.4 1.2-1.6 1.1-1.6-.8 0-1.2.6-3 1.2-4.1 1-1.5 1-2.2 0-3.2-1.1-1.1-1.2-1-.7.4.4 1-.2 2.9-1.4 4.7-1.2 1.6-2.1 3.4-2.1 4 0 .6-.3 1.1-.7 1.1-.5 0-.9 1.1-.9 2.4-.2 3.1-3.5 9.9-5 10.3-1.2.4 2-10 4.4-14.4 1.2-2.1 0-4.4-1.3-2.4-.3.6-2.1.9-4.1.7-1.9-.1-3.7.1-4 .6-.3.4.2.8 1 .8.9 0 1.6.3 1.6.7-.2 2.6-2.7 10.3-3.9 11.7-2 2.4-.5 1.9 1.9-.6 2.4-2.6 2.4-2.3.6 2.9-1 2.9-1.1 4.4-.3 5.9 1.6 2.7 1.7 4.4.4 4.4-2 0-8.8-5.3-8.3-6.5.9-2.4-6-1.6-8.4 1l-2.3 2.4-2.7-1.9c-1.6-1.1-3.3-2-3.8-2-1.4 0-4.2-4.6-4.2-6.9 0-2.1 2.7-4.1 4.6-3.4.6.2 1.4-.3 1.7-1.2.5-1.1 0-1.5-2-1.5-2.2 0-2.4-.2-1.3-1.5.9-1.1 1.6-1.3 2.4-.5 1.5 1.5 2.6 1.2 2.6-.8 0-.9.7-3 1.5-4.6.8-1.5 1.5-3.5 1.5-4.3 0-1.3-.2-1.3-1.7-.2-1.4 1.2-1.6 1.2-1.1-.1.3-.9 1.7-1.5 3.4-1.5 2.2 0 2.8.4 2.6 1.7-.4 2.7 1.1 2.1 2.5-.8 1.1-2.3 1-2.5-1-2.2-1.9.3-2.2-.1-1.9-3.1.2-2.2 0-3.1-.7-2.6-.6.3-1.1 1.2-1.1 2s-.5 1.7-1.1 2.1c-.8.4-.9 0-.4-1.5.3-1.1.3-3 0-4.2-.6-1.9-.8-1.9-2.4-.5-1.7 1.5-1.8 1.3-2-2.9-.5-9.9 0-18.9 1-17.7.3.4 1.4 3.7 2.3 7.4zm-351.5-.9c.6.8.8 1.7.5 2-.8.7-5.4-1.4-5.4-2.5 0-1.3 3.6-.9 4.9.5zm11.9 3.8c.2 3.6-.9 2.6-2.3-2-.5-1.7-.4-2.2.6-1.9.8.3 1.5 2 1.7 3.9zM476 680.8c0 7.4-.5 15.2-1.1 17.3-1.5 4.7-6.6 11.1-8.7 10.7-1.7-.3-4.1-8.3-4.2-13.8 0-1.9.5-5.2 1.1-7.3 1-3.8 1.2-3.9 4.5-3.3 2.6.5 3.4.4 3.4-.8 0-1.8-1.8-3.1-4.5-3.1-1.3 0-2-.7-2-2 0-1.6.8-2.1 3.7-2.3 5.4-.4 7.7-5.2 2.6-5.2-2.2 0-2.2-.3-.2-4.1 1.5-3 1.6-3 3.5-1.3 1.7 1.5 1.9 3.1 1.9 15.2zm21.9-5.1c-.1 6.5-.4 8.9-.9 7.3-1.5-4.7-1.1-17 .6-17 .2 0 .4 4.4.3 9.7zM26.8 674c1.5 5.2 3.6 40 2.5 41-.4.4-2.2 1-3.9 1.3-2.6.5-4.5-.3-10.8-4.4-4.2-2.7-8-5.7-8.3-6.5-.3-.9-1.7-2-3.1-2.5-2.4-.9-2.5-1.1-1.8-8.6.3-4.2.6-10.6.6-14.3 0-6 .2-6.8 2.3-7.7 1.7-.8 3-.7 4.8.2 2.3 1.2 2.8 1.1 5.5-1.1 2.2-1.8 3.9-2.3 6.9-2.1 3.7.2 4 .4 5.3 4.7zm334.2.5c0 .8-1.2 4-2.7 7.2-1.4 3.2-2.6 6.3-2.6 7 0 .7-.4 1-.9.7-1.4-.9-.9-3.9 1.7-9 1.4-2.7 2.5-5.5 2.5-6.2 0-.6.5-1.2 1-1.2.6 0 1 .7 1 1.5zm-5.5 2.7c-.4 4.1-.6 4.3-1.6 2.5-.8-1.3-.7-2.2.1-3.3 1.6-1.9 1.8-1.8 1.5.8zm5.5 6.3c-1.3 1.6-.4 3.9 1.1 2.9.7-.4.8 1.1.3 4.2-.4 2.7-1.1 5-1.5 5.2-.5.2-.9.9-.9 1.5s-.7 1.9-1.7 2.9c-1 1.2-1.2 1.8-.4 1.8.7 0 .9.4.6 1-.3.5-.9 1-1.3 1-1.5 0-3-6.2-2.5-9.5.5-3.1.9-3.5 3.4-3.5 2 0 2.9-.5 2.9-1.6 0-1.4-.3-1.4-1.5-.4-1.2 1-1.5 1-1.6-.1-.1-.8 0-1.9.1-2.4.1-.6.3-1.5.4-2.1.3-2 3-4.7 3.4-3.5.2.7-.1 1.8-.8 2.6zm125.7-.3c-.3.7-.5.2-.5-1.2s.2-1.9.5-1.3c.2.7.2 1.9 0 2.5zm11 6c-.3.8-.6.5-.6-.6-.1-1.1.2-1.7.5-1.3.3.3.4 1.2.1 1.9zm-10.7 7.4c0 3.4-.4 5.3-1 4.9-1.6-1-1-10.5.6-10.5.2 0 .4 2.5.4 5.6zm-31.1 7.1c.1 2.9-.3 5.3-.9 5.3-.6 0-1-3.2-.9-7.8.1-8.7 1.6-6.6 1.8 2.5zM395 696c0 .5-.5 1-1.1 1-.5 0-.7-.5-.4-1 .3-.6.8-1 1.1-1 .2 0 .4.4.4 1zm-16.9 2.7c-1.2 2-1.4 1.4-.5-1.2.4-.9.9-1.4 1.1-1.1.3.2 0 1.3-.6 2.3zm15.3 1.5c-.8 2.7-1.2 3.3-1.9 2.7-.7-.8.7-4.9 1.7-4.9.5 0 .6 1 .2 2.2zm9.6-.3c0 .6-.5 1.3-1.1 1.6-.6.4-.8 1.4-.5 2.2.3.8.1 1.1-.4.8-1.1-.7-1.3-3.8-.3-4.8.9-1 2.3-.8 2.3.2zm95 3.1c0 1.6-.4 3-1 3-.5 0-1-1.4-1-3 0-1.7.5-3 1-3 .6 0 1 1.3 1 3zm-11 3.1c0 1.1-.4 1.8-1 1.4-.5-.3-.7-1.2-.3-2 .7-2.1 1.3-1.9 1.3.6zm-75 2.9c0 .5-.5 1.2-1.1 1.6-1.4.8-3.3-1.1-2.5-2.5.7-1.1 3.6-.4 3.6.9zm25.3 1.5c2.9 3.6 2.6 4.1-2.3 3.7-.8-.1-3-.3-4.7-.3-1.8-.1-3.3-.6-3.3-1 0-.8 6.1-5.9 7-5.9.3 0 1.8 1.6 3.3 3.5zm-37.9 4.7c-.4.7-.3.8.4.4s1.2-1.2 1.2-1.7c0-.6.7-1.7 1.5-2.5 1.3-1.4 1.5-1.3 1.6.8.1 1.3.1 2.7 0 3.1-.1.5.3.6.9.2.6-.4 1.6-.2 2.3.3.7.5 2.6 1.3 4.4 1.6 4.3 1 6.1 3.1 3.6 4.4-3.9 2-9.3 2.2-16.1.7-6.5-1.5-7-1.8-7.6-4.7-1.2-6-.8-7.1 1.9-6.4 1.4.4 2.5.2 2.5-.4 0-.5.9-.1 2 1 1.2 1.2 1.8 2.6 1.4 3.2zm46.3-.6c-.3.3-1.2.4-1.9.1-.8-.3-.5-.6.6-.6 1.1-.1 1.7.2 1.3.5zm22.8.4c-2.8 1.2-5.5 1.2-5.5 0 0-.6 1.7-1 3.8-.9 3 0 3.3.2 1.7.9zm18.5 3.6c0 3.1-2.3 2.8-2.8-.4-.2-1.5.2-2.2 1.2-2.2 1.1 0 1.6.9 1.6 2.6zm-12-.1c0 1.6-3.5 2.1-4.4.6-.8-1.2.4-2.1 2.6-2.1 1 0 1.8.7 1.8 1.5zm-29.1.1c2.4.5 3.1 1.2 3.1 3.1 0 1.3-.6 2.6-1.4 2.9-1.4.5-7.4-2.2-11.1-5-1.9-1.5-1.8-1.5 2.1-1.6 2.3 0 5.6.3 7.3.6zM56 721.5c0 .8.6 1.4 1.3 1.2 2.2-.4 1.9 5-.7 10.1-2.5 4.9-4.1 6.2-7.7 6.2-2.4 0-1.5-2.7 1.3-3.5 1.5-.5 1.8-1.3 1.3-3.5-.3-1.6-.2-3.1.4-3.5.6-.3 1.1-1.2 1.1-2 0-2.1-3.4-1.1-4.5 1.3-1.2 2.6-2.7 3-1.8.4.6-1.8 7.2-8.1 8.6-8.2.4 0 .7.7.7 1.5zm419 9.2c0 14.3-1.6 16.6-6 9-2.6-4.5-6.2-15.6-5.4-16.9.3-.5 3-.8 6-.8h5.4v8.7zm-46.4-5.2c2.2 1.1 2.9 2.2 3 4.7l.2 3.2-1.6-2.7c-.9-1.5-2-2.7-2.4-2.7-.4 0-1.2-.9-1.8-2-1.3-2.4-1.1-2.4 2.6-.5zm57.5-.2c-.1.4-.1 1.5-.1 2.4 0 1.5-.2 1.6-1 .3-1.3-2-1.3-4.3.1-3.8.6.2 1 .7 1 1.1zm12.9 4.5c0 5.4-1.1 11.2-2.1 11.2s-1.2-6.8-.3-12.2c.8-4.7 2.4-4 2.4 1zm-163-1.9c0 1.1-5.9 2.6-6.7 1.8-.3-.3-.2-1 .2-1.6.8-1.3 6.5-1.5 6.5-.2zm104 1.2c0 .5-.4.9-1 .9-.5 0-1-.7-1-1.6 0-.8.5-1.2 1-.9.6.3 1 1 1 1.6zm-26 1.2c-1.7 1.3-2.4 3.7-1.2 3.7.4 0 1.3-.5 1.9-1.1.8-.8 1.6-.2 2.9 2.2 1 2 1.9 2.8 2.2 2.1.3-1 .7-1 1.8-.1.8.6 3.2 1.3 5.4 1.5 3.6.4 4.1.1 5.6-2.7 1.2-2.4 1.8-2.8 2.4-1.8.5.7.6 1.7.3 2.1-.2.5 0 1.4.5 2.1.5.7 1.3 2.2 1.6 3.4.7 2.2.5 2.3-3.8 1.7-2.6-.4-5.1-.2-5.8.3-2.3 1.8-8.9 2.2-13.2.8-6-2-19.6-4.6-20.6-4-.5.3-1.2-.7-1.6-2.2-.4-1.5-1.3-4.1-2.1-5.6l-1.4-2.8 7.3.6c4.7.4 7.6 1.1 8.1 2 .6 1.2 1.1 1.1 2.8-.6 1.1-1.1 2.6-1.8 3.3-1.6.7.3 1.9.1 2.7-.4 2-1.3 2.6-1 .9.4zm-294 1.6c0 .5-.7 1.2-1.6 1.5-2.4.9-2.8.7-1.4-.9 1.4-1.7 3-2 3-.6zm332 .6c.7.8.8 1.5.2 1.5-.5 0-1.5-.7-2.2-1.5-.7-.8-.8-1.5-.2-1.5.5 0 1.5.7 2.2 1.5zm-8.4 3.5l2.7 1.1-2.2 1.5c-2.5 1.8-2.6 1.8-3.5-1.4-.8-2.5-.7-2.6 3-1.2zm-400.9 1.9c.1 1.1-.4 2.4-1.1 3-.9.7-1.2.2-1.4-2-.1-1.8.2-2.9 1.1-2.9.7 0 1.3.9 1.4 1.9zm-4.3.7c.4.9.2 2.2-.4 2.9-.5.6-.7 1.4-.5 1.7.3.3-1.6.8-4.1 1.2-2.6.3-4.8.5-4.9.4-1-1.2-1.4-4.8-.6-4.8.6 0 1.1.6 1.1 1.4 0 1 1 1.4 2.9 1.4 2.2-.1 2.7-.5 2.4-1.9-.6-2.1 1.2-2.6 2.1-.7.3.7.3.3 0-1-.6-2.5 1.1-3 2-.6zm304.5 1.4c1.8 2 12.7 6.4 18.2 7.4 4.7.8 6.7 3 4.9 5.1-1.1 1.3-2.6 1.5-8.4.9-13.6-1.3-23-1.2-25.5.4-2.5 1.5-11.3 1.1-21.1-.9-4.5-.9-24.3-3.7-31-4.4-13.3-1.3-16-1.8-16-2.5 0-1.8 7.9-2.9 29-4 14.9-.8 22.2-1.6 23.7-2.5 2.1-1.4 16.1-2.5 21.7-1.7 1.7.3 3.7 1.2 4.5 2.2zm118.6-.8c1.9 1.3 4 3.6 4.6 5.1.7 1.6 1.8 3.5 2.6 4.3 1.2 1.2 1.2 1.4-.2 1.4-1.5 0-9.7-8.1-11.8-11.6-1.2-2.1.9-1.7 4.8.8zm-348.4 5.1c-1.3 1.3-1.5-1.1-.4-4 .7-1.6.8-1.5 1.1.6.2 1.3-.1 2.8-.7 3.4zM24 742.5c0 .8-.7 1.5-1.5 1.5-1.6 0-2-1.2-.8-2.3 1.1-1.2 2.3-.8 2.3.8zm-11.1 2.1c1.2-.3 3-.9 4.1-1.2 1.1-.3 2-.1 2 .5 0 1.1-3 1.7-12 2.5-3.5.3-4.7.2-3.4-.4 1.2-.5 2.4-1.6 2.8-2.6.6-1.6.7-1.6 2.5.1 1.2 1 2.8 1.4 4 1.1zm53 0c2.4.2 4.5.5 4.7.7.2.2-.5 1.3-1.6 2.5-1.6 1.6-2.7 2-5.6 1.5-2.4-.4-6 .2-10.8 1.7-6.4 2-8.5 2.2-17 1.5-7.4-.5-10.1-1.1-11.9-2.7l-2.2-1.9 3.5.5c1.9.3 6.7.9 10.7 1.2 6.2.6 7.5.4 10.1-1.4 1.6-1.2 4.8-2.4 7.1-2.8 2.3-.4 4.4-1.1 4.7-1.6.3-.5 1.3-.6 2.3-.2.9.4 3.6.8 6 1zm184.6-.6c.3.5.1 1-.4 1-.6 0-1.1-.5-1.1-1 0-.6.2-1 .4-1 .3 0 .8.4 1.1 1zm-172 1.9c.3.5-.4 1.3-1.6 1.6-2.3.8-3.4.1-2.4-1.4.8-1.3 3.2-1.4 4-.2zm18.5 1.5c0 .8-.7 1.6-1.5 2-1.3.4-1.4.2-.5-1.4 1.3-2.3 2-2.6 2-.6zm359.3 7.9c3.5 2.2 3.4 3.7-.2 3.7-2.3 0-3.1-.6-3.9-2.8-.5-1.6-2.5-4.6-4.3-6.8l-3.3-3.9 4.5 4.1c2.4 2.2 5.6 4.8 7.2 5.7zm-31.3-5.8c15 .2 15.2.2 18.8 3.5 4 3.6 3.5 5.3-1.1 3.7-3.5-1.2-24.8-1.4-31.2-.3-5.4 1-9.5-.6-9.5-3.7 0-3.9 1.9-5 7.5-4.1 2.8.5 9.7.9 15.5.9zm-208.8.5c12.8 2.5 23.6 6.9 12.1 4.9-11.6-2-14.1-2.1-20.9-.6-3.8.9-8.9 2.3-11.3 3.2-5 1.7-8.1 1.9-8.1.5 0-1.9 6.4-5 9.7-4.8 2 .1 3.8-.4 4.5-1.4 2.4-2.9 5.8-3.4 14-1.8zm49.8 1.9c6.8.1 13.8.5 15.5 1.1 2.8.9 21.7 3.4 37 5 3.9.4 10.6.5 15 .2 9.6-.5 19.4-.4 20.5.3.4.3 0 2.6-.9 5.2-2.4 6.9-4.2 7.5-18.8 6.9-6.8-.3-14.6-.1-17.4.4-5.4 1-7.4.4-17.6-5.6-3.7-2.2-6.2-2.7-18-3.5-16.6-1.1-29.6-2.4-34-3.4-3.2-.7-4.5-2.4-2-2.6.6-.1 2.1-.2 3.2-.3 1.4-.1 2.1-.9 2.3-2.9.3-2 .7-2.6 1.5-1.9.7.6 6.8 1 13.7 1.1zm209.5.7c.9.9 1.5 1.7 1.3 1.9-.2.1-1.3.8-2.5 1.4-2.1 1.1-2.3 1-2.3-1.9 0-3.4 1.1-3.8 3.5-1.4zM65 754.8c0 1.6-3.7 2.9-6.8 2.4-5.9-.8-3.4-2.5 4.6-3.1 1.2 0 2.2.2 2.2.7zm38.5 1.6c2.2.8 5.8 1.5 8 1.6 2.3 0 4.6.5 5.1 1 .8.8 2.4.7 5.5-.3 2.4-.8 6.9-1.5 9.9-1.5s7.4-.8 9.8-1.6c4.6-1.6 6-.3 1.5 1.5-1.6.6-5 2.1-7.8 3.4-2.7 1.3-8.1 3.1-12 4-6.5 1.5-7 1.5-8.2-.2-.7-.9-1.3-2-1.3-2.4 0-.3-1.2-1.1-2.7-1.7-3.2-1.3-23.8-2-24.9-.9-1.4 1.4-2.5.7-2.2-1.6.3-1.9 1.1-2.3 6.3-2.8 6.8-.7 7.5-.6 13 1.5zm70.5 1.1c0 .3-1.8 2.1-4 4.2-2.3 2-3.7 4-3.2 4.5s4.3.2 8.8-.7c13.2-2.5 13.5-1.9 1.9 4-3.9 1.9-7.7 4-8.7 4.7-1.3.9-2 .9-3.4-.2-2.5-2.2-15.8-3-17.7-1.1-.7.7-1.6.2-2.9-2-1.1-1.7-1.8-3.3-1.6-3.4.2-.2 3.1-1.6 6.4-3.2 4.1-2 7.1-2.8 9.1-2.6 2 .3 4.7-.4 7.9-2.1 4.7-2.4 7.4-3.2 7.4-2.1zm8 2.5c0 .5-.4 1-1 1-.5 0-1-.5-1-1 0-.6.5-1 1-1 .6 0 1 .4 1 1zm256.8.1c2.6.7 5.2 1.6 5.7 2.2.7.7.3.7-1 .2-1.1-.4-4.9-.9-8.5-1.1-3.5-.1-6.6-.8-6.8-1.3-.5-1.4 4.7-1.4 10.6 0zm-210.3.8c1 1.7-1.8 2.5-10.1 2.9-8.8.5-12.1-1-6.2-2.7 4.3-1.2 15.5-1.4 16.3-.2zm242.2 3.1c-.4 2.8-1.5 3.5-1.2.8.3-2.7.3-2.8 1-2.8.3 0 .4.9.2 2zm-384.8.9c1.8-1.1 4.5-1.9 6-1.7 2.1.3 1.7.6-2.9 2.2-6.5 2.2-13.2 6.3-17.9 11.1l-3.4 3.4-1.4-2.7c-1.7-3.2-3.1-4.2-5.1-3.5-1 .4-1.3 0-1-1.3.2-1.2 1.1-1.8 2.1-1.6 1 .2 3.1-.8 4.8-2.2 1.7-1.5 3.6-2.6 4.4-2.6.7 0 2.5-.7 4.1-1.5 2.6-1.3 3-1.3 4.9.5 2 1.9 2.1 1.9 5.4-.1zm175.6-.2l3 .7-3.5.6c-1.9.3-5.7.2-8.5-.2-2.7-.3-7.7-.7-11-.8-5.1-.2-5.5-.4-3-1 3.1-.9 17.8-.4 23 .7zm145.3.7c3.5.8 7 1.2 7.8.9.8-.3 2-.1 2.7.5.6.6 2.5 1.2 4.1 1.4 1.6.1 3.1.9 3.4 1.5.2.9-1.2 1.3-5 1.3-7.8.1-12.6 1.5-16 4.6-2.8 2.8-2.9 2.8-5.6 1.1-1.5-.9-5.8-3.2-9.7-5.1-6.7-3.4-10.5-5.8-10.5-6.8s15.9-.8 16.5.2c.9 1.5 2.5 1.2 2.5-.6 0-1 .6-1.4 1.8-1 .9.3 4.6 1.2 8 2zm-34.1 2.1l2.8 2.5-4.9-1.5c-6.3-1.8-8.1-3.5-3.9-3.5 2 0 4.3 1 6 2.5zm-80 .4c2.9 1.7-4.3 1.4-9.7-.4l-4.5-1.5 6.2.4c3.3.2 6.9.9 8 1.5zM117 769.1c2.5.6 6.1 1.3 8 1.6 4.9.8 11 5.1 11 7.7 0 2.9-.7 3.6-7 8.4-3 2.2-7.1 5.5-9 7.1-4.2 3.6-5 3.8-5 1.1 0-1.3 1.2-2.8 3-3.8 1.6-.9 3-2.3 3-3 0-2.5-3.5-1.1-7.5 3.1s-4.1 4.3-5.6 2.3c-1.5-1.9-1.7-1.9-6.1 2.3l-4.6 4.2-3.6-1.5c-4-1.6-5.5-4.1-3.7-5.9.6-.6 1.1-1.7 1.1-2.4 0-1.6-4.2-1.7-5.6-.3-.8.8-1.5.6-2.4-.5-1.9-2.3-3.6-1.8-8.1 2.2-3.7 3.3-4.7 3.7-10.2 4-3.4.1-8 .9-10.2 1.7-3.5 1.3-4.3 1.3-6.2 0-3.6-2.3-6.6-1.7-9.4 1.7-2.5 3.1-2.7 3.2-10.8 3-4.5-.1-10.2-.8-12.8-1.6-4.4-1.3-4.7-1.3-7.8 1.1-4.3 3.2-5.5 3-5.5-.9 0-3.1.4-3.5 6.1-6.3 3.4-1.6 7.8-4.4 9.8-6.2 3.2-3 3.7-3.1 4.6-1.6.6.9 2 2.9 3.2 4.4 2.2 2.7 2.2 2.8.3 4.5-2.1 1.9-1.8 3.5.6 3.5 3.2 0 12.2-5.3 18.8-11.1 5.1-4.5 7.4-5.9 9-5.5 1.1.3 2.8-.2 3.8-1.1 2.9-2.6 3.4-.5 1 4-4.2 7.9-2.5 8.6 6.9 2.8 4.8-2.8 6.5-4.4 6.7-6.3.4-3.6 10.8-11.4 17.5-13.3 5.5-1.6 18-1.3 26.7.6zm86-.9c0 1 2.7 1.2 10.7 1.1 5.9-.2 11.4-.5 12.1-.8.8-.3 2.4.3 3.6 1.3 1.7 1.3 4.4 1.8 10.2 2 8.2.2 19.4 2.1 19.4 3.3 0 .4-4.6.7-10.2.8-5.7.1-11.9.5-13.8 1-7.2 1.7-60 2.2-60 .5-.1-.5 1-1 2.2-1.2 3.1-.4 6.8-2.2 9.5-4.5 1.5-1.3 3-1.7 4.6-1.3 1.7.4 3.3 0 4.8-1.4 2.7-2.2 6.9-2.7 6.9-.8zm175.5 2.8c.3.6-.1.7-.9.4-1.8-.7-2.1-1.4-.7-1.4.6 0 1.3.4 1.6 1zm53 0c.3.5-.1 1-.9 1s-1.8-.5-2.1-1c-.3-.6.1-1 .9-1s1.8.4 2.1 1zm-138.8 1.4c7.3.3 9.9.8 12.7 2.5 3.1 1.9 4.2 2.1 8.8 1.3 2.9-.5 10.5-.8 16.8-.6 7.3.2 13.1-.2 16-1 5.7-1.6 17.7-1.1 19.7.9.8.9 2.4 1.3 3.7.9 1.3-.3 4.7.2 7.6 1.2 4.9 1.6 5.1 1.8 3.4 3.1-1 .8-1.8 2.1-1.6 3 .3 1.4-.6 1.5-7.5.8-4.3-.4-12.5-.9-18.3-1.1-5.8-.2-15.9-.8-22.5-1.3s-13.5-.8-15.3-.6c-1.8.2-6.3-.4-10-1.2-7.2-1.6-19.3-2.1-22.9-.9-4.7 1.5-2 2.6 6.1 2.6 8.9 0 18.6 1.7 19.8 3.4.4.6 4.2 1.1 8.4 1.2 5.8 0 7.8.4 8.5 1.6.7 1.2 2.2 1.5 7.1 1.2 6-.4 19.4.7 26.8 2.1 1.9.3 4.8 1.6 6.4 2.7 1.6 1.2 3.6 2.1 4.3 2.1 2.3 0 1.4 1.5-1.7 2.6-1.6.5-3 1.4-3 1.9 0 1.3-6.6 5.2-8.7 5.2-.9 0-3.6 1.1-5.9 2.5-2.9 1.7-5.1 2.4-6.8 1.9-1.3-.3-4.4.1-6.9 1-3.9 1.3-8.6 1.5-29.4 1-13.6-.3-25.2-.5-25.8-.5-.5.1-18.9.4-40.8.7-36.8.5-40 .4-41.8-1.2-1.5-1.3-1.9-1.4-1.9-.3 0 1.2-9 1.4-60.2 1.1-33.2-.1-60.7-.7-61.1-1.1-1.5-1.5.1-2.9 4.3-3.6 3.8-.6 4-.9 4-4.2 0-2.3.4-3.3 1.3-3 .6.2 1.1 1.3.9 2.3-.4 2.6-.4 5.5.1 6 1.3 1.3 4.8 1.1 5.7-.4.9-1.4 1.2-1.4 1.7-.3.4 1.1 1 .8 2.4-1l1.9-2.4.6 2.3c1 3.5 2.9 2 2.6-2-.2-2 .1-3.9.7-4.3.7-.4 1.1.5 1.2 2.4.2 5.4 1.2 7.3 3.4 6.4.8-.3 1.5-.1 1.5.4s2.7.6 6.1.3c5.1-.5 6.5-1.1 9-3.8 1.7-1.8 2.8-3.6 2.4-4.1-.3-.5.3-1.6 1.4-2.3 1-.7 2-2.2 2.3-3.3.3-1.8 1.1-2 9.3-1.7 9.7.3 13.5-.9 13.5-4 0-1.5.9-1.8 4.8-1.9 2.6-.1 5.2 0 5.7.1 3.9 1.1 12.6 1 14.5 0 1.3-.7 4.7-1.2 7.6-1.1 3.5 0 5.6-.4 6.4-1.4 1-1.2 4.1-1.5 14.9-1.6 7.5 0 15.9-.5 18.6-1.1 5.7-1.2 16.3-1.4 35.2-.5l13.2.6-.8-2.2c-.5-1.3-2-2.4-3.7-2.8-1.9-.3-2.8-1-2.5-2 .2-.8.4-2.4.4-3.7-.1-2.3 0-2.3 8.1-1.7 4.4.3 12.2.7 17.3.9zm177.3 9.8c0 .4-1.7.8-3.7.8-2.8 0-3.4-.3-2.3-1 1.7-1.1 6-.9 6 .2zm-295.7 1.7c.9.1 1.7.6 1.7 1.2 0 .7-1.6.8-4.7.3-5.9-.8-8.2-2.5-2.7-1.9 2.1.2 4.7.4 5.7.4zm214.2 1.1c-.3.5-1.5 1-2.6 1-1 0-1.9-.5-1.9-1 0-.6 1.2-1 2.6-1 1.4 0 2.3.4 1.9 1zm104 2c.6.9-1.9 1.2-12.4 1.3-1.9 0-3.7-.5-3.9-1.1-.5-1.5 15.4-1.7 16.3-.2zm-346.2.7c-.7.2-2.1.2-3 0-1-.3-.4-.5 1.2-.5 1.7 0 2.4.2 1.8.5zM35.5 791c-2.1 2.3-3.5 2.6-3.5.7 0-1.2 4-3.6 4.9-3 .2.2-.4 1.2-1.4 2.3zm367.1 0c1.4.6 4.7 3.1 7.2 5.5 2.5 2.5 4.9 4.5 5.3 4.5 1.4 0 7.8 9.9 6.8 10.5-1.1.7-31.7 1.1-48.6.6-11.1-.4-13.2-1-9.4-3.1 2.8-1.5 5.9-1.2 9.1.7 2.4 1.3 3.1 1.4 4.4.4.8-.7 1.4-1.8 1.3-2.4-.1-.8 1.3-1.2 3.8-1.2h4l-.2-6.6-.2-6.6 6.2-1.6c7.8-1.9 7.1-1.9 10.3-.7zm-319.2 5.8c.2.4-.4.9-1.5.9-1.1.1-1.7-.2-1.4-.8.7-1.1 2.2-1.2 2.9-.1zm-6.6 3.7c-1.2 1-4.8 1.5-4.8.6 0-.6.6-1.1 1.4-1.1.8 0 1.7-.8 2.1-1.8.8-1.6.8-1.6 1.2.1.3 1 .3 2 .1 2.2zm41.8 4.7c-2.1 1.2-7.8.6-8.3-.8-.2-.7.3-1.9 1.2-2.7 1.4-1.5 1.9-1.4 5.1.5 3 1.8 3.3 2.3 2 3zM43.5 802c-.3.5-1.1 1-1.6 1-.6 0-.7-.5-.4-1 .3-.6 1.1-1 1.6-1 .6 0 .7.4.4 1z"/><path d="M221.6 10.7c-.4.4-2.6.7-4.9.8-2.8 0-4.2.4-4.2 1.3 0 1.1 4 1.4 18.5 1.7 19.5.4 24.3 0 23.7-1.9-.2-.7-4.6-1.2-12.8-1.3-6.8-.1-14-.4-16-.7-2-.3-3.9-.3-4.3.1zM286.3 101.7c.9.9 1.9 1.4 2.3 1.1 1-1-.6-2.8-2.4-2.8-1.5 0-1.5.1.1 1.7zM209.1 103.4c-.7.9-.8 1.7-.2 2 1.3.9 4.3-.4 3.8-1.7-.5-1.7-2.3-1.9-3.6-.3zM218.1 109.6c-1.7 1.4-3.1 3.5-3.1 4.5 0 3.2 2.8 3.4 5.9.5 2.9-2.8 5-3.3 6.8-1.5 1.4 1.4 5.3.2 5.3-1.5 0-4.9-9.9-6.2-14.9-2zM158 109.1c-3.8 1.5-6 4-6 6.6 0 3.7 2.6 3.9 5.6.4 2.8-3.4 6.6-4.1 9.9-1.8 2.4 1.7 6.7 2.8 6.3 1.7-.2-.4-2.3-2.4-4.6-4.4-4.5-3.7-6.8-4.2-11.2-2.5zM269.3 112.5c-3.8 1.6-5.5 4.4-4.2 6.8.9 1.5 1.3 1.6 4.6.2 4.5-1.9 7.3-1.9 10 0 4.8 3.4 3.6-2.6-1.3-6.4-3.1-2.4-4.7-2.5-9.1-.6zM334.2 112.2c-4 1.1-6.2 4.9-4.2 7.3 1.2 1.4 1.5 1.4 3.8-.1s2.7-1.5 6.3.2c5.2 2.3 7.2.8 4.7-3.4-2.2-3.6-6.4-5.2-10.6-4zM195.7 113.6c-4.8 2.6-1.6 5.1 3.6 2.9 1.6-.6 1.8-.4 1.5 1.6-.2 1.8.2 2.4 1.6 2.4 3.1 0 4.2-2.9 2.3-5.9-2-3-4.8-3.3-9-1zM301.7 128.7c-1.1 1-.8 5.1.4 5.9.6.3.8 1.7.4 3.1-.6 2.6 1.1 5.7 2.6 4.7.5-.3.6-1.6.3-3-.6-2.4-.5-2.5 3.2-2.2 3.1.2 3.9-.1 4.2-1.5.3-1.5-.2-1.8-2.4-1.5-2.3.2-3.2-.3-4.9-2.9-2.1-3.3-2.7-3.8-3.8-2.6zM309.6 141.7c-.4.9-.3 2 .2 2.5 1.1 1.1 3.6-1.7 2.7-3.2-.9-1.5-2.2-1.2-2.9.7zM305 147.5c0 .8.7 1.5 1.6 1.5 1.4 0 1.4-.3.4-1.5-.7-.8-1.4-1.5-1.6-1.5-.2 0-.4.7-.4 1.5zM310.5 150c-1.1 1.7.5 3.2 2.1 1.9.7-.6 1.1-1.5.8-2-.7-1.2-2.1-1.1-2.9.1zM280.2 151.2c.6 1.6 5.1 3.9 10.1 5 6.6 1.5 14-2.3 10.7-5.6-.7-.7-1.9-.5-3.9.7-3.6 2.1-6.6 2.1-12.1.2-5.1-1.8-5.3-1.8-4.8-.3zM304.7 152.6c-.8.9 1.1 4.4 2.3 4.4.6 0 1-.6 1-1.4 0-1.6-2.4-3.8-3.3-3zM282.5 161c-1.7 1.8-1.7 2.1-.1 4.5.9 1.4 2.3 2.5 3 2.5 1.8 0 2.9-5.9 1.5-7.6-1.5-1.9-2.3-1.8-4.4.6zM327.2 161.2c-2.2 2.2-1.4 3.5 1.9 3 2.1-.3 2.9-.9 2.7-2.1-.4-2-3-2.5-4.6-.9zM163.7 161.7c-1.1 1-.8 4.8.5 6.1.9.9 1.7.5 3.5-1.4 1.2-1.4 2.3-2.9 2.3-3.3 0-1.7-5-2.8-6.3-1.4zM309.6 168.9c-.4.5-.2 1.2.3 1.5.5.4 1.2.2 1.5-.3.4-.5.2-1.2-.3-1.5-.5-.4-1.2-.2-1.5.3zM347 174.7c-6.1.6-8.2 1.3-7.7 2.8.7 1.7-1.4 2.5-4.3 1.8-1.7-.4-2.1-.2-1.8.8.4 1 2 1.3 5.9 1.1 2.9-.2 6.5 0 7.9.3 2.2.6 2.3.8.7 1.6-.9.6-1.7 1.4-1.7 1.9 0 .9 8.1.1 9.3-1 1.5-1.4-.5-4-3.2-4-7-.1-9.2-2.9-2.3-3.1 3.3 0 8.5-1.5 7.2-1.9-1-.4-6.6-.5-10-.3zM312 180c0 1.1.1 1.1 9.3 1.3 6.5.2 8.4-.7 3.6-1.7-4.9-.9-12.9-.7-12.9.4zM340.3 193.7c-1.5.6-1.8 8.3-.3 8.3.6 0 1-.9 1-2 0-1 .9-2.4 2.1-3 1.6-.9 1.8-1.4.8-2.6-1.2-1.5-1.6-1.6-3.6-.7zM288 201c0 .5.5 1 1 1 .6 0 1-.5 1-1 0-.6-.4-1-1-1-.5 0-1 .4-1 1zM328.6 203.8c-.3.6-.1 1.4.5 1.7 1.5 1 2.5-.3 1.2-1.6-.7-.7-1.3-.7-1.7-.1zM280.3 205.7c-4.3.5-4.2 2 .2 3.9 4.1 1.7 7.5 1.8 7.5.3 0-1.9-2.1-4.9-3.3-4.7-.7 0-2.7.3-4.4.5zM326.5 209.9c-.6 1.1.9 2.3 1.9 1.4.9-.9.7-2.3-.3-2.3-.6 0-1.2.4-1.6.9zM323.3 237.7c-1.1 2.7-1.6 6.3-1.4 12 .1 7.4.5 8.8 3.3 13 7.3 11.2 11.8 16.3 11.8 13.5 0-.4-2-3.4-4.5-6.7-2.5-3.3-4.5-6.4-4.5-6.9s-.7-1.7-1.6-2.7c-1-1.2-1.4-3.2-1.2-6.5.3-3.7.6-4.4 1.2-2.9.4 1.1 1.3 3.1 2.1 4.5 1.6 3.1 11.3 8.6 12.7 7.2 1.2-1.2.2-3.2-1.7-3.2-.7 0-3.2-1.1-5.6-2.5-3.8-2.1-4.5-3.1-5.7-7.7-.7-2.9-1.2-7.4-1.2-10.1.1-5.7-1.5-6.2-3.7-1zM313.2 243.9c.4 1.3 1.8 1.6 1.9.4 0-.4-.5-.9-1.1-1.2-.7-.2-1.1.2-.8.8zM341.7 255.7c-1.3 1.2-.7 2.3 1.3 2.3 1.2 0 3.4.7 5 1.5 2.6 1.4 3 1.4 3 .1 0-3-7.2-6-9.3-3.9zM355.2 262.1c.2.7 1 1.5 1.7 1.7.8.3 1.2-.1.9-.9-.2-.7-1-1.5-1.7-1.7-.8-.3-1.2.1-.9.9zM348 263.4c0 1.5 2.4 2.8 3.4 1.9.7-.7-1.3-3.3-2.5-3.3-.5 0-.9.6-.9 1.4z"/><path d="M335.8 267.1c-2.7 1.5-2.1 3 1 2.7 2.4-.3 2.7 0 2.7 2.7 0 4 3.2 4.7 4.1.9.6-2.2.2-3.2-2-5.1-3-2.6-3.4-2.7-5.8-1.2zM336.2 285.2c.3 5.8 2.2 7.5 3.1 2.8.7-3.1-.9-8-2.5-8-.5 0-.8 2.3-.6 5.2zM273.3 38c-3.2 1.3-4.4 4.1-3 7 1.7 3.3 3.2 3.5 4.5.5 1.3-2.8 4.3-3.3 6.2-1 3.3 4 5.6-.8 2.4-5.3-1.6-2.3-5.9-2.9-10.1-1.2zM220.4 40.3c-2.3 2-2.5 2.6-1.5 4.5 1.4 2.6 2.8 2.8 5.3.5 1.6-1.4 2.4-1.5 5.2-.5 4.3 1.6 4.6 1.5 4.6-.7 0-2.6-4.6-6.1-8.1-6.1-1.5 0-4 1-5.5 2.3zM231 71.5c-2.1 2.6-.5 4.3 3.9 4.1 5.1-.3 5.9-1.1 3.6-3.6-2.1-2.4-5.7-2.6-7.5-.5zM264.8 73.1c-2.5 1.4-1.1 4.2 1.8 3.5 1.2-.3 2.6-.2 2.9.4.9 1.5 3.5 1.2 3.5-.4 0-3.6-4.7-5.6-8.2-3.5zM352 80c0 .5.5 1 1 1 .6 0 1-.5 1-1 0-.6-.4-1-1-1-.5 0-1 .4-1 1zM247.7 130.7c-2.2 2.1 2.5 6.9 5.6 5.7 2.1-.8 3-3.4 1.6-5-1.2-1.4-6-1.9-7.2-.7zM207.1 181.2c-3.1 1.1-2.5 2.6 1.2 3l3.2.3-3.7 2.2c-2.1 1.2-3.8 2.6-3.8 3.1 0 1.7 6.9 4.2 10 3.6 2.4-.5 3-1.2 3-3.2 0-2.5.1-2.5 1.7-.9 1 1 2.2 4.1 2.8 7 .5 2.9 1.4 5.2 2 5.2 1.5 0 1.8-15.4.3-17.2-2.6-3.2-11.9-4.9-16.7-3.1zM233.3 181.5c-3.7 1.6-4.7 5.5-1.4 5.5 1 0 2.6 1.1 3.5 2.5 1.3 1.9 2.5 2.5 5.4 2.5 4.6-.1 8.8-3.2 7.6-5.7-.4-1-.8-2.5-.8-3.3-.2-2.8-9.1-3.8-14.3-1.5zM222 204.5c-1.1 1.3-.8 2.1 2 5 1.9 1.9 3.6 3.5 3.9 3.5.4 0 2.1-1.9 4-4.1 2.4-3 3-4.4 2.2-5.2-.8-.8-1.8-.7-3.6.3-2.1 1.1-3 1.2-4.5.2-2.5-1.5-2.5-1.5-4 .3zM226 214c-3.6.3-7.1.9-7.7 1.3-3.3 2.1-.6 2.7 11.2 2.5 6.9-.2 12.5-.6 12.5-.9 0-2.6-6.4-3.7-16-2.9zM225 221.5c0 1.5 2.6 2 5.4.9 2.8-1.1 1.7-2.4-1.9-2.4-2.4 0-3.5.5-3.5 1.5zM159 200.5c-2.2 2.6-.8 5 3.3 5.3 3.1.3 3.7 0 3.7-1.6 0-2-2.9-5.2-4.7-5.2-.6 0-1.6.7-2.3 1.5zM288 250.1c-.8 1.5-.9 1.9-.1 1.5.6-.4 1.1-.3 1.1.3 0 .5-.7 1.4-1.6 1.9-1.5.8-1.5 1 0 1.5 1.1.4 1.6.1 1.6-1 0-1.2.3-1.3 1.4-.4 1.2 1 1.7.8 2.7-1.1.9-1.9.9-2.1-.2-1.1-1.9 1.8-2.8 1.6-2.2-.6.7-2.7-1.4-3.5-2.7-1zM295.2 258.9c.4 1.3 1.8 1.6 1.9.4 0-.4-.5-.9-1.1-1.2-.7-.2-1.1.2-.8.8zM311 280.9c0 .6.5 1.3 1.1 1.6.6.4.8 1.3.5 2.1-.3.8-.1 1.4.4 1.4 1.1 0 1.3-2.1.4-4.4-.7-1.7-2.4-2.2-2.4-.7zM317.6 287.7c-.4.8.3 1.3 1.9 1.3 1.5 0 2.5-.6 2.5-1.4 0-1.8-3.8-1.7-4.4.1zM330.9 313.5c0 .5-.2 2.4-.4 4.1-.4 3.9.9 6.4 2.6 4.7.9-.9.8-1.6-.5-2.8-1.1-1.2-1.4-2.1-.7-2.9.6-.7.6-1.7.1-2.6-.6-.8-1-1.1-1.1-.5zM185 258c0 .5.5 1 1.1 1 .5 0 .7-.5.4-1-.3-.6-.8-1-1.1-1-.2 0-.4.4-.4 1zM176 261.1c0 .5.5.7 1 .4.6-.3 1-.8 1-1.1 0-.2-.4-.4-1-.4-.5 0-1 .5-1 1.1zM180.5 267.5c-.3.8-.7 2.2-1 3-.2.8.2 1.5.9 1.5.8 0 1.6-1.4 1.8-3 .5-3.1-.9-4.2-1.7-1.5zM269.7 259.1c-.4 1.5-.1 1.9 1.1 1.7 2.1-.4 2.9-3.8.9-3.8-.8 0-1.7.9-2 2.1zM273.3 262.1c-1.5 1.5-1.7 3.9-.4 3.9.5 0 .8.8.7 1.7-.1 1.3.8 1.7 3.3 1.9l3.5.2-2.4-1.8c-1.5-1.1-2.1-2.3-1.7-3.4.4-.9.3-1.4-.2-1.1-.5.3-1.1-.2-1.3-1-.2-1.3-.5-1.4-1.5-.4zM279 273c0 1.9 1.1 2.6 2.3 1.4.8-.8-.3-3.4-1.4-3.4-.5 0-.9.9-.9 2zM284 277.6c0 .8.5 1.2 1 .9.6-.3 1-1 1-1.6 0-.5-.4-.9-1-.9-.5 0-1 .7-1 1.6zM286 281c0 .5.5 1 1 1 .6 0 1-.5 1-1 0-.6-.4-1-1-1-.5 0-1 .4-1 1zM289.7 286.4c-.6 1.5.1 2.6 1.5 2.6 1.1 0 1-2.7-.1-3.4-.5-.3-1.1 0-1.4.8zM312.5 330c.3.5.8 1 1.1 1 .2 0 .4-.5.4-1 0-.6-.5-1-1.1-1-.5 0-.7.4-.4 1zM271.4 291.4c-1 2.7-2 46-1.1 51.6.9 5.6.7 10.7-1.4 35.7-.6 7.9-.8 15-.5 16 1.5 3.8 2.8-1.2 4.7-17.3 1.7-13.7 2.1-23.6 2.1-51.9.1-31.9 0-35-1.5-35.3-1-.2-2 .3-2.3 1.2zM264.5 335c-.3.6-1.1 5.4-1.6 10.8-1.6 15.4-4.8 40.9-6.4 50.2-1 5.6-1.5 15.8-1.5 30 0 22.3-.7 27.5-4.5 33.7-1.3 2.1-2.8 3.3-4.2 3.3-2 0-16.3 11.4-16.3 13 0 2.9 5.5.7 11-4.5 2-1.9 4.8-3.5 6.5-3.7 2.6-.3 3.4-1.3 6.9-8.3l4-8 .3-24.5c.3-18.9.8-27 2.3-35.5 2.1-12 5.5-37.5 6.6-49.8.5-6.6.4-7.7-.9-7.7-.9 0-1.9.5-2.2 1zM223.7 357.7c-.4.4-.5 7-.1 14.7.6 14.1-.2 22.3-5.6 51.7-.5 3-1 6.5-1 7.7 0 2.4 2.2 2.9 3.7.9 1.9-2.3 3.7-12.2 3.8-21.2.1-5 1-15 1.9-22.4 2.4-18.4.9-35.1-2.7-31.4z"/><path d="M249.1 359.4c-.7.9-1.2 4.8-1.3 9.3 0 4.3-.2 8.1-.4 8.5-.2.3-.6 7.5-.8 16-.2 8.4-.9 17.8-1.6 20.8-.6 3-1.5 7.7-2 10.5-1.8 9.8-6.8 30.1-8.9 35.5-1.1 3-2.8 5.9-3.7 6.5-.9.5-3 2-4.8 3.2-10.3 7.4-12.1 8.3-16.9 8.3-3.4 0-6.1-.8-9.2-2.6-4.4-2.5-8.5-2.9-9.2-.8-.2.7.9 1.7 2.4 2.3 1.5.7 4.4 2.1 6.3 3.2 2.8 1.6 4.8 1.9 10 1.6 6.6-.4 8.1-1.1 19.8-8.9 6.8-4.6 10-12.2 15.4-36.8 5.4-24.6 6.7-34.7 7-51.8.2-10.2.6-14.6 1.5-15.4 1.6-1.3 1.7-6.2.3-8.9-1.3-2.3-2.3-2.4-3.9-.5z"/><path d="M224.2 437.3c-.6.6-2.2 4.2-3.7 7.9s-4.4 8.7-6.4 11l-3.8 4.2-8.7.2c-8.7.2-13 1.6-9 3 1 .3 3 1 4.4 1.5 1.4.5 4.1.5 6.2 0 2-.5 3.9-.6 4.2-.3.3.2 1.9-.1 3.5-.8 6.9-2.8 19.2-25 15.2-27.4-.5-.3-1.3 0-1.9.7zM145.9 473.4c-19.5 6.6-29.4 15.7-33.6 31.1-2 7.5-2.6 25.6-1.2 37 .6 5.5 1.2 13.6 1.3 17.9.1 9.2 2 11.6 3.2 4 .9-6.5.8-11.7-.4-20.4-2.3-15.4-.6-36.4 3.6-46 4.6-10.8 19.8-19.8 34.5-20.8 7.4-.4 8-.3 12.9 2.7 3.3 2.1 5.4 2.9 6.1 2.2 1.3-1.3-2.2-7.3-5.4-8.8-3.7-1.9-13.6-1.4-21 1.1z"/><path d="M291.1 475.5c-3.7 1.8-5.8 2.2-6.5 1.5-3-3-14.6 1.2-20.6 7.5-3.6 3.8-11.6 8.5-14.7 8.5-1 0-4.5 1.2-7.8 2.6-16.3 7-25.7 6.3-45-3.1-13-6.3-13-6.3-26.5-7.7-7.4-.7-14.8-1.2-16.5-1-6.7.6-19.6 12.5-16.7 15.4.7.7 2 .3 4.4-1.5 1.8-1.4 5.2-3.3 7.5-4.2 2.3-.9 4.4-2.3 4.7-3.1.7-1.8 8.8-1.8 22 0 7.7 1.1 11.5 2.3 17 5.1 3.9 2.1 7.8 4.3 8.6 5 2 1.8 6.5 3.5 12.4 4.6 6.1 1.1 14.6-.2 27.6-4.3 13.5-4.2 19.1-7 25.4-12.7 6.3-5.7 7.8-6.6 12.6-7.5 3.3-.6 2.9 0-7.6 10.1-6.1 6-14.3 15.1-18.1 20.3-3.8 5.2-8.7 11.6-10.9 14.2-2.1 2.6-5.1 6.5-6.6 8.7-2.1 3.2-3.4 4.1-5.6 4.1-3.1 0-7.5 2.7-6.7 4.1.4.5 3 .9 5.8.9h5.2l5.9-8c3.3-4.5 6.9-9.2 8-10.5 1.2-1.3 3.9-4.9 6.1-8 8-11.2 13.8-17.7 22.7-25.3 10.2-8.7 15.5-12.2 20.1-13.1 2.3-.5 3.2-1.2 3.2-2.6 0-2.9-3.2-2.9-9.4 0zM313 483.8c-5.1 2.5-4.9 4.8 1.3 12.8 7.2 9.3 10.2 14.8 11.7 21.4 1.5 6.8 2.3 8.5 4.1 8.5 1 0 1.4-1.4 1.4-5-.1-6.2-5.4-17.6-12-25.5-2.5-3-4.4-5.9-4.2-6.5.2-.5 1.8-1.1 3.5-1.3 4.1-.4 4.5-3.8.6-5.2-3.1-1.2-2.3-1.3-6.4.8z"/><path d="M153.3 494.7c-3.5 1.4 2 7 5.7 5.8 4.4-1.4 22.6 10.6 45.8 30.1 10.5 8.8 16.6 16.1 16 19.2-.4 2.4-4.6 2.7-6.9.6-1.7-1.5-2.1-1.6-3.3-.3-1.1 1.2-.7 3.3 2.5 13.4 2.2 6.6 6.4 16.9 9.4 22.8 3.1 6.1 6.4 14.4 7.5 19 4.3 17.2 5.3 20.4 9.1 27.9 2.2 4.4 7.6 12.2 12.5 18 4.7 5.7 9.6 12 10.8 14 2.3 4.2 4.4 5.5 5.2 3.3.8-2-3.5-8.7-12.6-19.5-10.1-12.1-15.2-21.7-18.5-35.1-3.5-14.5-5.1-19.1-10.2-29.4-4.3-8.7-10.3-25.5-10.3-29 0-1.2.5-1.5 1.8-1 4.7 1.8 7 1.7 8.1-.3 2.6-4.8-4.4-15.3-17.6-26.4-10.9-9.2-29.7-23.5-34.3-26-1.9-1.1-3.9-2.4-4.5-2.8-1.1-.8-13.4-5.1-14.4-4.9-.3 0-1.2.3-1.8.6zM312.6 507.2c-2.3 3.2-2.1 4.3 2.9 14.6 2.5 5.1 5.9 13.4 7.6 18.5 3 8.8 3.1 9.7 2.5 19.7-.4 5.8-1.1 14.1-1.6 18.5s-1.1 11.1-1.4 15c-.6 7.2-3.3 36.7-4.3 46.5-.3 3-1.2 6.4-1.9 7.5-1.1 1.6-1.2 6.6-.8 22.9.5 20.3 1.1 24.6 3.7 24.6 2.3 0 5.5-2.9 6.1-5.6.8-3.2-.8-5.4-2.6-3.6-.7.7-1.6 1.2-2.1 1.2-1.2 0-.1-41.7 1.2-46 .5-1.9 1.7-13 2.6-24.5.9-11.6 2.5-27.9 3.6-36.3 3-23.9 2.7-30.9-2-43.9-2.1-5.9-5.2-13.6-7-17-3.6-7.3-3.8-8.4-1.1-10.1 1.1-.7 1.7-1.8 1.4-2.7-.9-2.2-5.1-1.8-6.8.7zM242.6 512.9c-9 8.1-13.7 9.2-27.4 6.6-5.4-1-10.1-2.2-10.6-2.7-.6-.4-1.8-.8-2.9-.8-1.3 0-1.8.6-1.5 2.2.3 2.4 2.3 3.3 14.5 6 7 1.6 17.3.9 22-1.6 4.3-2.2 14.8-11.8 14.8-13.4 0-3.2-2.6-2.1-8.9 3.7z"/><path d="M153.1 515.2c-7.1 3.5-11.8 9-14.2 16.7-2.6 8.3-3.5 20.9-2 29.3 1.2 7.1 6.1 23.2 8.4 27.6 1.6 3 3.5 10 4.8 17.5.9 5.5 2.3 7.7 4.9 7.7 2.8 0 4-5.1 2.1-8.8-.5-.9-1.5-4.4-2.1-7.7-.6-3.3-3.1-11-5.5-17-6-15.4-7.8-24.4-7.3-37.4.5-14.2 2.2-17.5 11.5-22.6 5.2-2.9 7.3-3.5 9.7-3 8.3 1.7 11.4 0 5.5-2.9-4.5-2.2-10.6-2-15.8.6z"/><path d="M155.6 548.1c-1.4 1.7-2.6 4.3-2.7 5.7-.1 3.5-.7 9.5-1 10.7-.1.6.2 2.1.8 3.5 1.5 3.6 4.3 16.1 4.3 19.1 0 1.4.4 2.9.9 3.5 3.1 3.2 6.7 39.9 4.7 47.5-.7 2.9-.4 7.2 1.4 18.4 1.9 11.9 2.1 16.3 1.5 23.8-1.2 15-1.2 16.2.5 16.2.9 0 1.7-1.3 2.1-3.5l.6-3.5.2 3.1c0 1.7 1 5.7 2.1 9 1.1 3.2 2 6.2 2 6.6 0 1.4-2.9.8-6.7-1.2-4.8-2.6-7.7-2.5-11.2.1-2.3 1.7-3.3 1.9-4.9 1-2.7-1.5-3-1.4-4.2.8-1.9 3.6 5.6 10.2 9.1 8 1.1-.6 1-1.2-.5-2.8-1.7-1.9-1.7-2 1.3-3.5 3.9-2.1 5.8-2 10.6.4 2.2 1 5.7 2.2 7.8 2.5 2 .3 3.7 1 3.7 1.5 0 1.8 4 3.2 5.6 1.9 1.8-1.5 1.8-6.3-.1-7.9-3.4-2.8-8.9-28.4-10-46.5-.4-6.4-1.3-12.2-2.2-14-1-2-1.7-8.4-2.3-20-.8-16.7-4.3-41.8-7.3-52.5-.9-3-2.1-8.9-2.7-13-1.1-6.8-1-7.9.8-12.2 1.1-2.5 1.8-4.9 1.5-5.2-1.3-1.3-3.2-.5-5.7 2.5zM117.5 575.8l-2.5 3.7.6 27.5c.9 48.3.6 57.9-1.7 63.5-.6 1.6-1.3 7.9-1.4 13.9l-.1 10.9-4.6 4.1c-2.5 2.3-5.5 5.8-6.7 7.8-2.5 4.1-3.3 4.5-11.1 5.3-3.6.3-6.7 1.4-9.3 3.2-4.9 3.4-10.7 10.1-10.7 12.4 0 3.1 1.9 3.1 3.5-.1.8-1.6 2.6-3.7 4-4.6 1.3-.9 2.7-2.4 3-3.4.6-1.9 6.2-3.2 13.9-3.4 3.3-.1 4.4-.7 7.5-4.5 2-2.4 6.2-7.2 9.5-10.7 6.4-7 7.5-9.9 7.6-21.2 0-3.4 1-14.7 2.1-25 2.3-19.9 2.2-37.9-.2-61.5-1-9.5-.9-11.3.6-15.2 2.7-7.2.1-8.9-4-2.7zM134.7 596.2c-.4 1.3 0 3.3.9 4.6 1.2 1.8 1.3 2.6.3 3.8-.6.8-1.1 4.3-1.1 8.2 0 3.7-.3 13.3-.8 21.3-.9 13.9-1.9 21.9-5.6 43.9-2.2 12.8-2.2 12.5.1 12.5 2.3 0 2.7-1.2 5-14.5 2.7-15.2 4.5-31.3 5.5-49 .9-13.3 1.5-17.3 3.1-20.7 1.7-3.4 1.9-4.5.9-6.5-3.1-5.9-7.3-7.7-8.3-3.6z"/><path d="M142.9 614.6c-1.1 1.4-1.4 6.6-1.5 24.8 0 23.6-.1 24.8-4.9 43.7-3.1 12.2-4.2 14.2-9.4 16.8-6.9 3.6-24.1 23.7-24.1 28.2 0 5.5 5.1 2 8.6-5.8 1.3-3 3.5-5.8 5.1-6.8 1.5-.9 3.7-3.1 4.8-4.8 1.1-1.8 4-4.2 6.5-5.3 9-4.3 14.6-13.3 16.1-25.9.4-3.9 1.2-9.8 1.8-13.2.7-3.8.9-11.5.5-19.5-.3-7.3-.7-17.6-.7-23-.1-5.3-.5-9.9-.8-10.2-.3-.4-1.2.1-2 1zM232.7 641.2c-.3 1.1 1.6 6.3 4.4 12 .5 1 .9 2.6.9 3.6 0 1.1 1.5 3.9 3.3 6.3 10.6 13.9 13.8 19.8 15.7 29.1.6 3.2 1.6 6 2.1 6.4.5.3 1.5 2 2.3 3.7 1.5 3.5 12.5 17.4 17.6 22.2 4 3.8 10.7 4.2 14.1.8 3.4-3.3 1.9-5.4-3.3-4.8-5 .7-7-.8-15.4-11.5-8.8-11.3-11.3-15.5-13-22.6-2.4-9.8-3.2-11.3-17.4-32.4-.9-1.4-2.2-4.1-2.8-6-2.1-5.9-7.3-10.1-8.5-6.8z"/><path d="M252.7 658.7c-1.4 1.3-.6 5 1.3 6.8 3.1 2.8 4.6.7 2.9-3.9-1.2-3.4-2.7-4.4-4.2-2.9zM267.3 673.9c.4 1.6.2 3.3-.3 3.6-1.7 1.1-1.1 4.4 1 5.5 2.8 1.5 4 .5 3.9-3.3-.2-5.1-1.3-8.2-3.3-8.5-1.6-.3-1.8.1-1.3 2.7zM293.1 708.3c-1.9.7-4.4 2.5-5.5 4l-2.1 2.9 2.4 1.9c3.3 2.7 4.5 2.4 9.1-1.9 6.8-6.5 4.9-10-3.9-6.9zM162.4 714.4c-.6 1.6 8.2 10.2 12.9 12.7 1.8.9 7 2.4 11.7 3.4 4.7.9 10 2.5 11.9 3.6 2.3 1.3 3.7 1.6 4.5 1 .7-.6 2.1-.8 3.3-.5 1.1.3 3.4-.1 5.1-1 1.7-.9 4.5-1.6 6.1-1.6 3.5 0 5.9-3.1 3.8-4.8-3.6-2.8-12-1.1-15.6 3.1-.8 1.1-1.8 1.4-2.5.9-.6-.5-4.2-1.7-8.1-2.6-17-4.2-19.1-5.1-25.7-11.2-5-4.7-6.5-5.3-7.4-3zM134.5 268c.3.5.8 1 1.1 1 .2 0 .4-.5.4-1 0-.6-.5-1-1.1-1-.5 0-.7.4-.4 1zM129.5 302.8c-1.3.9-1.7 5.2-.5 5.2.6 0 1-.5 1-1 0-.6.7-1 1.5-1s1.5-.4 1.5-.9c0-1.4-2.5-3-3.5-2.3zM123 308.5c0 1.7-.5 3.6-1.2 4.3-.8.8-.8 1.5.3 2.8 1.3 1.5 1.5 1.3 2-2.7.4-2.4.3-5.1-.2-5.9-.6-1.1-.8-.6-.9 1.5zM132.1 312.6c0 1.1.3 1.4.6.6.3-.7.2-1.6-.1-1.9-.3-.4-.6.2-.5 1.3zM136 319.6c0 1.4.4 2.3.9 2 .5-.3.7-1.5.4-2.6-.7-2.8-1.3-2.5-1.3.6zM121.5 320c-.3.5-.1 1 .4 1 .6 0 1.1-.5 1.1-1 0-.6-.2-1-.4-1-.3 0-.8.4-1.1 1zM136 326.9c0 .6.5 1.3 1 1.6.6.3 1-.1 1-.9 0-.9-.4-1.6-1-1.6-.5 0-1 .4-1 .9zM129.5 328c-.3.5-.1 1 .4 1 .6 0 1.1-.5 1.1-1 0-.6-.2-1-.4-1-.3 0-.8.4-1.1 1zM144.5 335c-.3.5-1.2.7-2 .3-1.1-.4-1.3-.1-.9 1 .6 1.8 3 1.2 3.8-.9.6-1.6 0-1.9-.9-.4zM113.5 340c.3.5.8 1 1.1 1 .2 0 .4-.5.4-1 0-.6-.5-1-1.1-1-.5 0-.7.4-.4 1zM142.5 340c.3.5.8 1 1.1 1 .2 0 .4-.5.4-1 0-.6-.5-1-1.1-1-.5 0-.7.4-.4 1zM119 345.4c0 .9-.4 1.6-1 1.6-.5 0-1 .9-1 2s.4 2 .8 2c1.2 0 3.1-5.9 2.1-6.6-.5-.3-.9.2-.9 1zM110 347.9c0 .5.5 1.3 1 1.6.6.3 1 .2 1-.4 0-.5-.4-1.3-1-1.6-.5-.3-1-.2-1 .4zM108.6 362.9c-.4.5-.2 1.2.3 1.5.5.4 1.2.2 1.5-.3.4-.5.2-1.2-.3-1.5-.5-.4-1.2-.2-1.5.3zM116 365.1c0 .5.5.7 1 .4.6-.3 1-.8 1-1.1 0-.2-.4-.4-1-.4-.5 0-1 .5-1 1.1zM345.6 305.8c-.7 1.2 2.2 3.8 3.1 2.8.4-.3 0-1.4-.9-2.2-.9-1-1.8-1.2-2.2-.6zM330 358c0 .5.5 1 1 1 .6 0 1-.5 1-1 0-.6-.4-1-1-1-.5 0-1 .4-1 1zM344.6 384.9c-.3.5.1 1.4.9 2.1 1.2 1 1.5 1 1.5-.3 0-1.9-1.6-3.1-2.4-1.8zM340.6 390.6c-.9 2.3-.2 2.8 1.3 1 .7-.8.8-1.7.3-2-.6-.3-1.3.1-1.6 1zM348.1 395.7c-.1 1.2.5 2.8 1.2 3.5.8.7 1.2 1.9.9 2.6-.2.6 0 1.2.6 1.2 1.9 0 2.1-1.4.3-3.9-1-1.4-2.1-3.3-2.4-4.1-.4-1-.6-.8-.6.7zM349.5 408.5c.1 1.4.9 3.1 1.8 3.8.8.6 1.7 2.3 1.9 3.7.4 2.9 1.6 3.2 3.2.8.8-1.4.4-2.3-2.2-4.9-1.7-1.7-3.2-3.8-3.2-4.5 0-.8-.4-1.4-.8-1.4s-.7 1.1-.7 2.5zM365 437.9c0 .5.5 1.3 1 1.6.6.3 1 .2 1-.4 0-.5-.4-1.3-1-1.6-.5-.3-1-.2-1 .4zM372.4 463.6c.3.9.6 2 .6 2.5s.4.9.9.9c.4 0 .6-1.1.3-2.5-.2-1.4-.9-2.5-1.4-2.5-.6 0-.7.7-.4 1.6zM372 469.9c0 .6.5 1.3 1 1.6.6.3 1-.1 1-.9 0-.9-.4-1.6-1-1.6-.5 0-1 .4-1 .9zM374.1 475.6c0 1.1.3 1.4.6.6.3-.7.2-1.6-.1-1.9-.3-.4-.6.2-.5 1.3zM375 478.9c0 .5.5 1.3 1 1.6.6.3 1 .2 1-.4 0-.5-.4-1.3-1-1.6-.5-.3-1-.2-1 .4zM378 494.9c0 1.2.5 2.1 1 2.1.6 0 1-.6 1-1.4 0-.8-.4-1.8-1-2.1-.5-.3-1 .3-1 1.4zM93.8 413.2c.9.9 1.5.9 2.4 0 .9-.9.7-1.2-1.2-1.2s-2.1.3-1.2 1.2zM84 428c0 .5.5 1 1 1 .6 0 1-.5 1-1 0-.6-.4-1-1-1-.5 0-1 .4-1 1zM346.7 452.7c-.4.3-.7 1.1-.7 1.7 0 .6.5.5 1.2-.2.6-.6.9-1.4.7-1.7-.3-.3-.9-.2-1.2.2zM359 549.4c0 .8-.6 1.6-1.2 1.9-.7.2-1 .8-.5 1.2.4.5 1.4 0 2.2-1.1 1.7-2.3 1.9-3.4.5-3.4-.5 0-1 .6-1 1.4zM356.6 559.8c-.3.6-.1 1.4.5 1.7 1.4.9 2 .2 1-1.4-.6-.8-1.1-.9-1.5-.3zM356.7 578.7c-.4.3-.7 1.1-.7 1.7 0 .6.5.5 1.2-.2.6-.6.9-1.4.7-1.7-.3-.3-.9-.2-1.2.2zM357.5 582c-.3.5.1 1 .9 1 .9 0 1.6-.5 1.6-1 0-.6-.4-1-.9-1-.6 0-1.3.4-1.6 1zM357 589.5c0 .8-.5 1.5-1.2 1.5-.9 0-.9.3 0 1.2 1.4 1.4 1.7 1.1 2.6-2 .5-1.3.3-2.2-.3-2.2s-1.1.7-1.1 1.5zM355.2 608.2c-.7.7-1.2 2.1-1.2 3.3 0 1.2-.5 2.6-1.2 3.3-1.3 1.3-.5 2.7 1.1 1.8 1.1-.7 3.5-8.5 2.8-9.2-.2-.2-.9.2-1.5.8zM399.3 687.7c-.3 1-.8 2.2-1 2.8-.3.5.3.1 1.1-.9 1.6-2 2.1-3.6 1.1-3.6-.3 0-.8.8-1.2 1.7zM390.7 688.7c-.4.3-.7 1.1-.7 1.7 0 .6.5.5 1.2-.2.6-.6.9-1.4.7-1.7-.3-.3-.9-.2-1.2.2zM386.6 698.6c-.4.9-.4 1.9-.1 2.2.2.3.7-.3 1.1-1.2.4-.9.4-1.9.1-2.2-.2-.3-.7.3-1.1 1.2zM383.3 705.7c.4.3.1 1.3-.6 2.2-1.1 1.4-1 1.4.6.2 2-1.5 2.2-3.1.5-3.1-.6 0-.8.3-.5.7zM365.6 708.9c-.4.7-.5 1.5-.2 1.8.9.9 1.9-.4 1.4-1.8-.4-1.1-.6-1.1-1.2 0zM384.4 711.5c-1.7 1.3-1.7 1.4-.2 1.5.9 0 2-.5 2.3-1.1 1.1-1.7 0-2-2.1-.4zM215.5 789c-.3.5-.1 1 .4 1 .6 0 1.1-.5 1.1-1 0-.6-.2-1-.4-1-.3 0-.8.4-1.1 1zM193 793.5c0 .9.9 1.5 2.1 1.5 1.8 0 1.9-.2.9-1.5-.7-.8-1.6-1.5-2.1-1.5s-.9.7-.9 1.5zM291.1 794.6c0 1.1.3 1.4.6.6.3-.7.2-1.6-.1-1.9-.3-.4-.6.2-.5 1.3zM245 799.4c0 .2.7.7 1.6 1 .8.3 1.2.2.9-.4-.6-1-2.5-1.4-2.5-.6zM258.7 802.7c-.4.3-.7 1.1-.7 1.7 0 .6.5.5 1.2-.2.6-.6.9-1.4.7-1.7-.3-.3-.9-.2-1.2.2zM130 804c0 .5.5 1 1.1 1 .5 0 .7-.5.4-1-.3-.6-.8-1-1.1-1-.2 0-.4.4-.4 1zM214 807.5c0 .8.7 1.5 1.6 1.5 1.4 0 1.4-.3.4-1.5-.7-.8-1.4-1.5-1.6-1.5-.2 0-.4.7-.4 1.5zM423.1 182.3c-1.5 1.9-.4 2.7 3.4 2.7 1.8 0 4.9 1.1 7 2.6 3.4 2.3 4.1 2.4 6.8 1.3 2.8-1.2 3.1-1.1 5.6 1.9 2.6 3.2 5.3 4 8 2.3 1.1-.7.6-1.8-2.8-5-4.7-4.5-4.9-4.6-8.4-3-2.1.9-2.8.7-5-1.5s-3.5-2.6-8-2.6c-3.3 0-5.9.5-6.6 1.3zM421.6 191.7c-4.8.3-7.8 1-9.7 2.3-1.5 1.1-3.4 2-4.2 2-.8 0-2 .7-2.7 1.5-2.4 2.9 1.9 2.9 7.3.1l5.2-2.7 2.3 2.8 2.3 2.8 2.4-2.9c2.3-2.8 2.4-2.9 4.7-1.3 1.3 1 3.3 2.4 4.5 3.3 2.3 1.7 4.3 1.2 4.3-1.1 0-1.5-7.3-7.6-8.6-7.3-.5.1-4 .4-7.8.5zM478.3 271c-5.5 2.5-8.1 5.4-8.8 9.7-1.6 9.6-1.4 9.3-5.1 9.3-5.3 0-14.9 5.3-18 9.9-3 4.6-4.4 14.4-2.5 17.9 1.5 2.7 5.7 3.1 4.6.4-2.3-5.8-1.2-14.4 2.4-18.6 2.6-2.9 8.7-5.6 12.9-5.6 2.2 0 5.2-.7 6.8-1.5 2.5-1.3 2.8-1.9 2.5-5.6-.4-5.7 1.4-9.5 5.7-11.5 3.2-1.5 3.9-1.5 6.1-.3 1.4.8 2.8 2.5 3.1 3.9.4 1.7 1.4 2.6 3 2.8 5.7.7 8.9 4 5.6 5.9-.7.4-2 2.2-2.9 3.9-2.1 4.1-6.7 6-11.2 4.7-4.1-1.3-5-.7-5.9 3.6-.5 2.8-.2 3.9 1.6 5.9 3.2 3.3 3.2 10.8 0 15.1-1.6 2.2-2.1 3.8-1.6 5.6.6 2.3 1 2.5 7.1 2.5 6.9 0 7.5.4 14 8.7 3.1 3.9 3.1.7-.1-5.5-2.5-4.9-5.1-6.9-10.5-8l-3.2-.7-.2-10.9-.2-11 5.2-2c6.7-2.7 11.3-8.6 11.3-14.6 0-2.2-.4-4-.9-4s-1.3-.9-1.6-2c-.3-1.1-1.3-2-2.2-2-.8 0-3.3-1.5-5.5-3.4-5.1-4.4-6.8-4.8-11.5-2.6zM395.9 350.2c-.1.2-.3 2.1-.6 4.3-.8 7.5-.2 14.8 1.7 18.4 2.5 4.9 8.6 11.9 11.9 13.5 4.5 2.3 16.4 3.9 20.7 2.7 4.5-1.3 6.1-.2 4.4 2.9-2.8 5.2 1.8 16.8 9.4 23.7 5.4 5 11.7 7.2 23.1 7.9l8 .6 5.5-4.4c7.8-6.3 10.7-10.9 12.2-19.6 1.2-7.1 1-8.6-1.9-17.4-.4-1.3.3-2.1 2.3-2.8 3.5-1.4 7.4-5.5 7.4-8 0-1.7-.8-1.4-5.7 2l-5.7 4-2.1-2c-4.1-3.9-7-1.5-3.6 3.1 1.1 1.5 2.1 3.1 2.1 3.5 0 .4 1 2.7 2.1 5.2 1.7 3.4 2 5.5 1.6 9.8-.7 6.4-4.9 14.7-9.1 17.7-4.2 3-17.3 5-23.7 3.6-8.4-1.8-17.2-11.6-19.4-21.6-.5-2.5 0-4.4 2.1-8.3 2.8-5.2 2.7-6.8-.3-5.5-5.3 2.4-12.7 3.2-18.9 2-10-1.9-16-7.1-19.4-16.7-1.5-4.3-1.6-6.4-.9-11.1.5-3.2.7-6.2.4-6.8-.5-.8-3.3-1.3-3.6-.7zM16.4 764.5c-1.5 1-1.6 1.6-.7 2.6 1.4 1.5 4.3.5 4.3-1.5 0-2.2-1.5-2.7-3.6-1.1zM25.3 765.5c-.3.9-.2 1.9.1 2.3.8.8 3.8-1 4.4-2.6.6-1.8-3.8-1.4-4.5.3zM0 771.7v3.6l2.6-2.4c2.3-2.2 2.4-2.4.8-3.6-2.8-2-3.4-1.6-3.4 2.4zM19.7 768.6c-.8.8.1 2.4 1.4 2.4.5 0 .9-.7.9-1.5 0-1.5-1.2-2-2.3-.9zM420 778.5c0 .8.5 1.5 1 1.5.6 0 1-.7 1-1.5s-.4-1.5-1-1.5c-.5 0-1 .7-1 1.5zM442 778.4c0 .2.7.7 1.6 1 .8.3 1.2.2.9-.4-.6-1-2.5-1.4-2.5-.6zM435 780.5c-1 1.2-1 1.5.3 1.5 1.9 0 3.1-1.6 1.8-2.4-.5-.3-1.4.1-2.1.9zM419.6 783.7c-.6 1.4-.5 1.5.5.6.7-.7 1-1.5.7-1.8-.3-.3-.9.2-1.2 1.2zM449.6 788.6c-.8 2-.4 2.5 1.1 1.6.7-.4.9-1.3.4-2.1-.6-1-1-.9-1.5.5zM479.5 795c-.7 1.2 1.1 4 2.6 4 1.4 0 1-2.6-.5-3.9-1-.9-1.6-.9-2.1-.1zM44 831.4c0 .8.5 1.8 1 2.1 1.3.8 1.3 27.2 0 28-1.2.7-1.4 4.5-.2 4.6 5.1.7 8.8.6 9.8-.2.7-.6 1-3.2.6-7.9-.3-4.4-.1-7 .5-7s4.3 3.4 8.3 7.6l7.2 7.6 8.2.5c15.4.8 24.8.9 25.3 0 .3-.4-.2-1.6-1-2.5-1.2-1.3-1.5-4.7-1.6-14.7-.1-7.2-.3-14.4-.4-16l-.2-3-6.5.4c-7.8.4-8.6.8-6.5 3.1 1.3 1.5 1.5 3.6 1 14.6-.5 9.7-1 13.3-2.2 14.6-.9 1-2 1.5-2.6 1.1-.5-.3-2.9-.7-5.3-.9-4.9-.3-6.7-1.5-13.8-9.1-5.7-6.2-5.7-6.3 4.4-12.8 3.6-2.3 7.6-5.4 8.9-6.8l2.4-2.6-2.7-1.1c-4.4-1.6-7.7-1.3-8.3 1-.5 1.9-12.3 11-14.3 11-1.5 0-2.4-6.9-1-8.5.7-.8 1-2.2.6-3-.8-2.1-11.6-2.2-11.6-.1zM107.5 831c-.4.6-.2 1.7.5 2.5.8.9 1.1 6.3.9 16.7l-.2 15.3 5.4.7c6.1.7 8-.2 6.2-3.1-.6-1-1.5-6.7-1.9-12.6-.9-13.8.1-13.7 7.7 1.1 6.2 11.9 8.1 14.4 11.5 14.4 4.2 0 4.9-2.4 4.9-16.7 0-10.1.4-13.6 1.4-14.2.7-.5 1.1-1.7.9-2.7-.2-1.5-1.3-2-4.7-2.2-5.4-.4-7.1 1-4.6 3.7 1.4 1.6 1.9 4.3 2.3 13.6.3 7.5.1 11.5-.5 11.5s-4.1-6-7.8-13.3c-3.7-7.2-7.1-13.8-7.7-14.5-1.3-1.5-13.4-1.7-14.3-.2zM155.4 832.8c-1.8.9-4.4 3.2-6 5.1-5.2 6.2-4.3 20.9 1.4 24 5.8 3.1 13.8 5 18.6 4.5 2.8-.3 5.4-.8 5.8-1 .4-.3.6-3.3.5-6.7l-.2-6.2-6.4-.3c-8-.4-9.8 1-4.6 3.5 5.5 2.6 5.9 4.8.9 4-8.4-1.4-11.8-10.2-8.2-21.5 1.7-5.7 8.8-6.7 8.8-1.2 0 4 2.2 5.5 5.7 3.8 2.4-1.1 2.8-1.9 2.8-5.3v-4l-8-.2c-6-.2-8.8.2-11.1 1.5zM242.5 832.3c-4.5 2.1-8.7 7.4-7.9 10.1 1.6 5.2 6.8 9.5 11.6 9.6 4.5 0 6.9 3.9 5.2 8.4-.4 1.1-1.9 1.6-4.2 1.6-3 0-4.3-.8-8.3-5.1-6.1-6.6-8.4-6.4-8.4.7 0 2.9-.6 5.9-1.4 6.7-2.2 2.7-.5 3.4 7.6 3 18.5-.9 20.4-1.3 23.4-4.6 3.7-4.1 4-11 .7-15.2-2-2.5-2.5-2.7-7.1-2.1-5.5.6-7.7-.4-7.7-3.5 0-2.5 3.5-5.9 6-5.9 1.3 0 2 .7 2 2 0 2.5 2.5 3.6 4.5 2 1.7-1.4 2-6.6.5-7.5-2.2-1.4-13.6-1.5-16.5-.2zM265.2 831.9c-1.1.6-.8 1.6 1.1 4.5 1.4 2 4 7.1 5.7 11.3 1.8 4.2 4.2 9.3 5.4 11.3 1.1 2 2.6 4.5 3.2 5.5 2.4 4.2 8.1 2.3 6.9-2.3-.3-1.3-.2-2.9.3-3.5.5-.7 1.5-2.9 2.1-4.9.7-2.1 1.6-4 2.1-4.3.5-.3 2.7 2.8 4.9 6.9 7 12.6 9.1 12.6 13.9.4 5.2-13.2 9.5-21.2 12-22.3 3.9-1.7 2.4-2.5-4.8-2.5-4 0-7 .4-7 1 0 .5.9 1 2 1s2 .4 2 .8c0 1.7-8.7 20.4-9.5 20.3-.9 0-8.5-16.7-8.5-18.7 0-.8.3-1.4.8-1.5 2.2-.2 4.5-.8 5-1.4 1.3-1.2-2.4-2.6-5.8-2-1.9.2-5.2.5-7.2.5-4.5 0-5 1.9-1.9 7.2 1.9 3.3 1.9 3.3-.3 9.2-1.2 3.3-2.7 6.1-3.2 6.3-1.4.5-9.5-18.2-8.8-20.2.4-1 .1-2.1-.7-2.6-1.8-1.1-8-1.1-9.7 0zM326.7 836c-7.2 8-8.6 16.1-4.2 23.7 6.2 10.5 23 11.1 27.9.9 2.4-5.2 2.1-15.8-.6-21.4-2.9-5.7-5-7-12.4-7.8l-6-.6-4.7 5.2zm13.3 1c3.9 2.1 5.6 11.7 3.6 20.5-.2 1.1-.5 2.3-.5 2.6-.1.4-1.2 1.4-2.7 2.3-3.1 2.1-7.8.9-11.3-2.8-2.3-2.5-2.3-3.4.5-17.4 1-5 6.1-7.5 10.4-5.2zM355.1 831.9c-1.6 1-.6 3.1 1.5 3.1 1.1 0 1.4 2.5 1.4 14.3 0 9.2-.4 14.7-1.1 15.4-2 2 .1 3.3 5.7 3.3 4.7 0 5.4-.3 5.4-1.9 0-1.1-.4-2.3-1-2.6-.5-.3-1-4-1-8.1 0-7.1.1-7.4 2.4-7.4 1.8 0 2.5.7 2.9 2.7.8 3.9 6.1 11.8 9.1 13.8s8.7 2.5 9.3.8c.2-.6-1.2-2.6-3.3-4.5-4.4-3.9-8.4-10-8.4-12.7 0-1 1.6-3.1 3.5-4.5 4.2-3.3 4.6-6.6 1-10.1-2.3-2.4-3-2.5-14.2-2.5-6.5 0-12.4.4-13.2.9zm20.2 4.7c3.7 1.1.2 6.4-4.2 6.4-4.1 0-5.2-1.2-4.5-4.9.7-3.3 1.5-3.5 8.7-1.5zM391.7 832.6c-.4.4 0 1.6 1 2.6 1.3 1.5 1.7 4.5 1.9 17.1l.2 15.2 5.3.6c5.7.6 14.8-1.1 18.6-3.6 3.7-2.4 5.3-7.2 5.3-15.4 0-9.1-2-13.3-7.2-14.9-4.2-1.3-24.1-2.5-25.1-1.6zm21 5.6c2.7 3.5 4.1 15.6 2.3 20.2-1.1 3-6.2 5.8-9.8 5.4l-2.6-.3.2-13c.1-7.2.1-13.1.2-13.3.1-.9 8.9 0 9.7 1zM435.4 833.6c-5.1 1.7-8.4 5.6-8.4 9.8 0 4.5 2.7 6.6 9.4 7.5 6.8.9 9.8 3.3 9.4 7.5-.3 2.9-.7 3.1-5.3 3.9-9.1 1.4-9 1.4-9-1 0-2.8-.9-3.6-3.2-2.9-2.3.7-5.7 6.2-5 8 .5 1.1 11.6 2 22.5 1.8 6.7-.1 12.2-14.1 7.4-18.5-1.2-1.1-3.6-1.7-7-1.7-6.3 0-11.2-3.5-11.2-8 0-6 5.9-6.4 7-.5.7 4 3.7 5.6 5.6 3.1 1.5-2.1 1.8-6.4.6-8.2-1.2-1.8-8.5-2.3-12.8-.8zM207.2 835.6c-2.7 1.9-2.8 5-.2 8.9 1.1 1.6 3.3 5 5 7.5 3.4 5.2 4 11.2 1.5 16-1.8 3.6-.3 4 3.3 1 3.4-2.9 5.5-8.6 4.7-13.5-.4-3.1-.2-4.5 1-5.5 2.1-1.7 1.9-3.6-.6-5.4-1.7-1.1-2.7-1.2-4.6-.3-2.2 1-2.8.8-4.4-1.2-2.4-2.9-2.4-5.1-.1-5.1 2.6 0 3.4-1.1 2.1-2.7-1.5-1.8-4.9-1.7-7.7.3zM192.9 852.9c-3.5 3.5-3.5 3.7-.8 8 2 3.2 2.2 3.3 7.1 2.9 5.9-.6 8.8-3.2 8.8-7.8 0-3.8-2.9-6-7.9-6-3.4 0-4.9.6-7.2 2.9zm10.7 1.6c3.1 4.8-1 8.4-5.2 4.5-2.6-2.5-3.2-5.5-1.1-6.3 2.7-1.2 4.7-.6 6.3 1.8zM463.2 864.3c-1.6 1.9.8 5 3.4 4.5 2.8-.5 2.6-5.2-.2-5.6-1.1-.2-2.6.3-3.2 1.1z"/></svg>