<svg version="1" xmlns="http://www.w3.org/2000/svg" width="666.667" height="1170.667" viewBox="0 0 500 878"><path d="M85.4 1.7c.3 1 1.7 7.6 3.1 14.8 1.5 7.1 2.9 14 3.2 15.2.5 2-.4 2.7-8 6.2-6.8 3.2-9.1 4.7-11 7.8-3.3 5.1-4.7 6.2-12 8.8-5.9 2.2-6.2 2.4-6.7 6.1-.3 2.5-1.2 4.2-2.5 4.9-1.2.5-4.4 2.5-7.1 4.2-7.4 4.8-10.2 4.2-4.5-1 2-1.7 2.8-3.2 2.4-4.6-.3-1.3.3-2.4 2.1-3.6 5.7-3.7 3.5-9.5-3.5-9.5-4.8 0-13.9 4.8-19.5 10.2-3.6 3.5-4.4 3.8-6.3 2.9-1.7-1-3-.8-6.4.8-4.8 2.2-9.3 5.9-8.4 6.7.3.4 2.1-.3 4-1.5 3.8-2.3 6.7-2.7 8.4-1 1.4 1.4 8.5-2.6 12.8-7.2 3-3.2 11.6-7.9 14.6-7.9.9 0 2.2.6 2.8 1.4.9 1.1.6 1.8-1.9 3.6-1.7 1.2-3 3-3 4.2 0 1.1-1.4 3.6-3.1 5.5-6.5 7.5-1.4 10.6 8.7 5.2 3.2-1.8 7.5-4 9.5-5 4.2-2.1 6.3-4.4 5.4-5.9-1.5-2.4.7-4.9 5.8-6.6 6.6-2.2 10-4.7 12.4-9.1 1.4-2.7 3.3-4.2 8.1-6.4 3.5-1.6 6.7-2.7 7.1-2.4 1.8 1 6.1 20.5 7.7 34 .3 2.7 1.4 8.6 2.4 13 2.5 10.9 3.1 16.2 1.6 17.3-2.6 1.9-11.6 5.5-12.3 4.9-.3-.4-.1-1.8.5-3.2 2-4.4-1.2-4.1-9.6.7-8.6 4.9-12.9 6.8-21.7 9.3-4.7 1.3-7 2.8-10.7 6.6-7.8 8-5.9 9.5 5.8 5 7.7-3 13.4-4 13.4-2.3 0 .5-1.8 1.7-4 2.7-4.9 2.2-7.3 4.7-6.8 7.2.2 1.3-1.8 4-6 8-3.9 3.8-6.2 6.8-6.2 8.2 0 1.6-1.2 2.7-4.7 4.2-9.3 4-34.6 20.8-35.8 23.8-1.3 3.2 1.5 3.5 8 .8 7.4-3.1 12.3-3.5 13.2-1.1.8 2.2-1.9 4.5-11.2 9.5-4.4 2.3-9.1 5.1-10.4 6.1-1.3 1-3 1.8-3.7 1.8-.8 0-1.4.7-1.4 1.6 0 2.1 2.9 1.1 11.5-4.1 3.9-2.3 8.8-5.1 11-6.3 5.1-2.5 8.8-6.5 8.3-8.8-.2-1-1.7-2.6-3.5-3.7-3.2-1.8-3.2-1.8-8.6.7-5.5 2.7-9.3 3.4-8.2 1.6 1-1.6 25.4-17.4 32.2-20.8 3.5-1.8 6.4-4 6.8-5.2.3-1.1 3.7-5.1 7.5-8.9 4.5-4.5 7-7.9 7.2-9.7.2-2.2 1.1-3 4.3-4.1 2.2-.7 4.9-2.3 6-3.4 2-2 2-2 .1-3.5-2.6-1.9-4-1.8-13.5.9-5.8 1.7-8.1 2.1-8.1 1.2 0-1.9 3.9-4.1 12.6-7 4.3-1.4 10.3-4 13.2-5.6 5.1-2.9 5.4-2.9 5.9-1 .8 3.2 2.9 3.2 12 .1 4.8-1.7 9-2.7 9.4-2.3.4.5 1.5 4.6 2.4 9.3.9 4.7 2.8 12.5 4.2 17.5 1.9 6.7 2.5 11.1 2.4 17.5-.1 4.6-.5 8.7-.9 9.1-.4.3-4.5 1.3-9.2 2.2-8.9 1.7-12.8 4.3-11.4 7.6.3.9 1.3 4.3 2.1 7.6 2.5 9.9 5.6 11.5 14.9 7.5 5.6-2.4 6.4-1.8 6.4 5.1 0 3 .9 6.3 2.5 9.3 1.4 2.6 2.5 5.6 2.5 6.6 0 2.2 6.7 6.1 11.5 6.7 4.5.5 5.5 1 6.4 3.5.5 1.5.3 3.7-.7 6.5-1.5 4.1-1.5 4.5.6 8.8 2.6 5.3 6.5 7.5 13.7 7.5 5.5 0 8.1-1.2 11.5-5.3l2.6-2.9 3.1 2.6c1.7 1.4 3.5 2.6 4 2.6s3.6 2.3 6.8 5.1c5.1 4.3 21.5 14.9 23.1 14.9 1.4 0 6.7 4.8 8.4 7.8 1.1 1.8 3.5 3.9 5.2 4.7 3.8 1.6 8.8 7.5 8.8 10.4 0 1.1.8 2.4 1.8 3 1.4.8 1.5 1 .2 1.4-.8.2-3.7 1.1-6.4 2.1-2.7.9-5.1 1.5-5.3 1.3-.2-.2.6-1.5 1.7-3 2.6-3.3 2.5-4.5-.6-5.7-4-1.6-6.9-1.2-16.2 1.9-4.8 1.6-10.7 3.4-13.2 4.2-2.5.7-8.5 2.8-13.5 4.7-13.7 5.2-18.2 6.2-19.7 4.4-1.1-1.2-.5-2.1 3-5.1 2.5-2.2 4.2-4.5 4.2-5.8 0-1.3 1.2-3 2.9-4.3 3.5-2.4 4.7-5.5 3.1-7.5-1.7-2-5.7-1.8-10.5.5-2.2 1.1-4.4 1.9-4.8 2-.4 0-2.4 1.1-4.4 2.5-4.4 2.9-5.5 2.5-2.4-.9 1.3-1.4 2-2.9 1.7-3.5-1.2-1.9-7.1-2.3-11.1-.7-4.6 2-4.2 2-4.8-.5-.4-1.7-1.1-2-2.9-1.6-7.3 1.7-45.6 20.3-53.8 26.2-6.8 4.9-17.4 10.5-19.8 10.5-3.2 0-3-4.9.3-8 3-2.9 3.2-5.3.4-7.1-2-1.4-1.8-1.6 4.5-6.9 6.9-5.8 8.2-9.2 3.8-9.8-4-.6-14.9 3.8-21.4 8.6-10 7.5-13.4 9.3-16 8.7-4.2-1-27.7 11.8-27.8 15.2 0 1.3 5.9-1.7 9.5-4.8 3.7-3.1 12.4-6.9 16.1-6.9 4.1 0 11.9-4 18.6-9.6 5.2-4.5 12.9-8.4 16.3-8.4 3.8 0 3.1 1.5-2.8 5.9-2.8 2.2-6.5 5-8 6.2-3.6 2.7-3.2 5.5.6 5.1 3.3-.4 3.4.4.3 3.7-1.5 1.6-2.6 4.1-2.8 6.6l-.3 4 5-.1c6.4 0 12.5-2.9 26.5-12.4 6.9-4.7 23.5-13 33.8-17 4.2-1.7 8.7-3.6 9.9-4.2 2.4-1.2 5.8-.4 4.8 1.2-1.3 2.1 2.8 2.2 6.5.1 3.6-2 8-2.8 8-1.4 0 .3-.8 1.5-1.7 2.5-1.3 1.5-1.5 2.3-.7 3.6 1.8 2.8 3.6 2.5 10.8-1.9 3.7-2.2 8.2-4.5 9.9-5 4.1-1.2 5.6.4 2.7 2.8-4.2 3.4-5 4.4-5.7 7.1-.3 1.5-2.7 4.6-5.2 6.9-4.5 4.2-4.5 4.3-2.6 5.8 3.2 2.5 9.9 1.6 25.5-3.5 20.2-6.6 32.3-10 36.1-10h3.3l-3.3 3.4c-6.3 6.5-2.3 9.3 8.3 5.6 8.6-2.9 9.6-2.7 13.9 3 2.8 3.8 5.3 5.7 11 8.5 4.1 1.9 8.1 3.5 9 3.5 2.4 0 3-1.8 1.3-4.2-2.2-3.1-2.1-5.2.2-4.3 5.8 2.4 10.7 2.7 15.9 1 5.1-1.8 5.5-1.8 11.5 0 3.5 1 8.6 3.1 11.4 4.7 2.8 1.5 5.8 2.8 6.7 2.8.8 0 2.4 1.5 3.6 3.2 7.7 12.2 10.6 15.1 16.4 16.9 2.1.7 4.8 2.6 6.3 4.6 1.7 2.3 3.8 3.6 6.9 4.4 2.5.6 4.5 1.6 4.5 2.2 0 .6-1.5 2.6-3.2 4.4-2.7 2.8-3.1 3.6-2.1 5.2s.4 2.6-5.1 7.4c-3.4 3-8.9 6.8-12.1 8.5-5.1 2.5-6.8 2.9-11.2 2.5-4.7-.5-5.3-.8-5.3-2.9 0-3.4-1.4-3.7-6.9-1.7-2.8.9-5.4 1.4-5.8.9-.8-.8 3.5-4.5 5.3-4.6 2.2 0 6.4-4.2 6.4-6.4 0-1.2.7-3.2 1.6-4.5 2-2.8.6-4.8-2.3-3.3-1.1.6-5.4 2-9.7 3.1-5.9 1.6-8.2 2.7-10.2 5.1-2 2.3-3.4 3-6.2 3-3.5 0-8.8 2.5-11.9 5.6-.8.8-2.4 1.9-3.6 2.5-1.5.7-1.2.1 1.1-2 3.8-3.6 5.2-6.8 5.2-11.9 0-5.2 2.1-7.7 7.7-9.1 5.2-1.4 10.6-5 12.4-8.3.7-1.2 1.8-4.4 2.5-7.1.7-2.7 2.2-5.6 3.4-6.4 1.1-.8 1.8-1.9 1.5-2.4-1.4-2.1-5-.7-8.9 3.5-3.8 4.1-4.5 4.4-10.8 5-3.7.4-8.8 1.5-11.4 2.6-2.5 1.1-5.9 2-7.5 2-2.3 0-4.4 1.5-9.4 6.5-3.6 3.5-6.5 7-6.5 7.8 0 1.9-3 5.8-4.1 5.2-.5-.4-.1-2.2 1-4.3 1-2 2.2-5.1 2.5-6.8.4-1.8 1.6-4 2.7-5 2.1-1.9 2.5-4.4.7-4.4-4.1.1-10.5 2.5-15.9 6-3.4 2.2-6.8 4-7.5 4-.7 0-2.6 1.1-4.3 2.5-2.4 2.1-4.7 2.8-11.5 3.5-7.8.9-14.6 3.1-18.8 6.2-2.7 1.9-3.2.2-.9-2.8 2.5-3.2 2.6-4.7.5-6.5-1.3-1-2-1-4.4.4-1.5.9-3.6 1.7-4.5 1.7-1.4 0-1.4-.3.4-2.6 2.7-3.4 3.6-8.6 2.1-11.5-1.2-2.1-.9-2.6 3.4-6.2 6.6-5.6 6.2-6.9-2.1-6.3-18.3 1.4-20.3 2.3-20.3 9.5 0 4.2-.4 5.1-4.5 8.9-2.5 2.3-5.3 4.2-6.3 4.2-1.1 0-2.7.8-3.6 1.9-.9 1-3.7 2.4-6.2 3.1-2.5.7-5.4 2.4-6.4 3.8-2.4 2.9-2.6 9.5-.6 13.4 1.8 3.5 1.1 4.1-2.7 2.2-3.7-2-8.5-1.3-13.5 1.8-6.4 4.1-20.7 9.8-21.1 8.6-.2-.7.1-1.4.7-1.6 2-.6 10.1-7.4 10.6-8.9.4-.9-.2-2.5-1.1-3.6-2.8-3.1-13.4-1.9-24.8 2.7-4.9 2-14 5.5-20.2 7.6-6.2 2.2-15.2 5.8-20 8.1-7.6 3.4-8.6 4.2-7.2 5.2 1.5 1.1 1.3 1.6-2.2 4.5-4.4 3.7-4.8 4.7-1.9 5.5 3.4.9 2.3 2.1-5.8 6.1C7.6 403.3 0 407.9 0 409.1c0 1.4 29.8-14.1 30.5-15.9.3-1 0-2.1-.9-2.8-2.5-1.8-1.9-2.8 2.6-4.9 3.4-1.6 4.2-2.5 4.1-4.2-.3-3 1.7-4.2 15.7-9.3 6.3-2.2 15.9-5.7 21.3-7.7 11-4 18.9-5.2 21.2-3.3.8.7 1.5 1.6 1.5 2 0 .4-2.7 2.4-6.1 4.5-6.6 4.1-8.7 7.2-6.1 9.2.9.7 2.6 1.3 3.8 1.3 2.7 0 15.2-5.7 21.8-9.9 9.5-6 10.3-3.1 1 3.4-10.2 7.2-22.9 13.4-30.5 15-7.1 1.5-15.1 6.1-18.2 10.4-.6 1-4.3 3.5-8.2 5.6C44 407.6 33 415 32.9 416.4c-.1.6 0 1.9.1 2.9.1.9-.8 3.3-2 5.2l-2.1 3.4 2.1 3.8c1.1 2.1 2 4.6 2 5.6 0 3.6 1.9 5.5 6.2 6.2 2.6.5 5.2 1.7 6.6 3.3 2.1 2.2 2.9 2.4 7.4 1.9l5-.6-.6 3.8c-.4 2.9-.1 4.4 1.2 6.2 1.6 1.9 2.3 2.1 4.9 1.2 1.9-.7 3.5-.7 4.7-.1 5.2 2.9 11.9 2.5 18.8-1.3 1.3-.7 2-.4 2.9 1.4.6 1.2 2 2.9 3.1 3.8 2 1.6 2 1.6-.6 6.1-1.4 2.5-3.1 7.1-3.7 10.3-1 5.3-.9 6 .9 7.8 2 2 2 2 5.7-.2 4.4-2.5 9.7-2.7 16.2-.4 10.3 3.6 38.9 0 69.9-8.8 5.6-1.6 10.7-2.9 11.3-2.9.5 0 2.1 1.1 3.5 2.5s3.1 2.5 3.9 2.5c2.8 0 8.6 8.9 15 23.1 2.3 5.1 2.4 6.1 1.6 13.9-.4 4.6-1.6 9.9-2.5 11.6-1.6 2.9-1.6 3.9-.4 9.1 1.4 6.2 1.6 15.8.7 28.7-.5 7.5-.8 8.2-6.3 16.9-9.6 14.8-10.6 16.1-17.9 22.8-9.5 8.8-12.4 10.7-24.2 16.8-12.4 6.4-22.3 12.7-24.3 15.5-.8 1.1-4.9 5.6-9.2 9.9-4.3 4.3-8.5 9.2-9.4 10.9-2 3.9-27.4 29.4-36.6 36.8-3.8 2.9-6.8 5.7-6.8 6.2 0 2-7.7 4-15.1 4-9.2-.1-16.9 1.8-21.4 5.2-1.8 1.4-4.1 2.6-5.1 2.6-1.8 0-1.9.7 1.6-14 1.1-4.7 3.1-13 4.4-18.5 1.3-5.5 4.4-16.1 7-23.5 7-20.6 7.6-22.6 7.6-25.4 0-2 .6-2.7 2.8-3.2 5.8-1.4 7-5.5 2.8-9.2-2.9-2.4-2.5-4.9 1.5-12.1 2-3.4 2.9-4.1 5.5-4.1 1.8 0 3.8-.8 4.8-1.9 1-1.1 2.8-2.1 4-2.3 2.6-.4 2.6-1.9 0-3.3-1.1-.6-3-2-4.2-3.3-1.9-1.9-2-2.3-.7-2.9 1-.3 2.7.4 4.3 1.9 1.5 1.3 4 3 5.5 3.6l2.8 1.2-2.8 2.4c-2.6 2.3-2.7 2.6-1.1 4.2 1.1 1.2 4.6 2 11.1 2.7 8.1.8 9.9.8 12.7-.7 1.8-.9 4.3-1.6 5.6-1.6 2.5 0 5.7-2.7 4.8-4.1-.3-.5-1.7-.8-3.2-.7-2.5.2-7.2-1.6-7.2-2.7 0-.3.6-1.4 1.2-2.6 1.1-1.7 1-2.2-.7-3.5-1.1-.8-3.5-1.9-5.5-2.4-1.9-.6-4.6-1.9-5.9-2.9l-2.4-1.9 8.8-4.1c9.3-4.3 13.5-5 15.5-2.6.7.8 1.8 1.5 2.4 1.5.6 0 2 .9 2.9 2.1 1.2 1.3 2.4 1.8 3.5 1.4 3.8-1.5 8-1.5 12.6-.1 4.5 1.4 9.6.9 9.6-1 0-.3-2.3-2.9-5-5.7-5.3-5.4-5.9-6.7-3.5-8.7 1-.8 1.3-2.4.9-5.3-.8-5.7 1.8-8.2 7.6-7.4 3.3.4 4.2.2 5.1-1.5.6-1.1.9-2.1.7-2.2-1.5-1.2-14.4-3.1-23.6-3.4l-11.2-.3.6-2.7c.9-3.5.9-3.5 3.3-2.2 2.4 1.2 6.5-.3 5.8-2.3-.5-1.7-9.5-4.6-14.4-4.7-2.4 0-4.3-.4-4.3-.8 0-1.4 4.5-5.2 6.1-5.2 1.6 0 3.9-1.9 3.9-3.2 0-1.8-5.9-2.9-14.2-2.9l-8.8.1v-3.6c0-3.5 0-3.5 3.8-2.9 2 .3 5.6 1.1 7.9 1.7 5 1.2 10.5-.3 13.6-3.8 2.7-3.1 6.1-3.1 8.9.1 2.6 3 7.3 3.4 8.7.6 1.4-2.5-1.8-6.7-5.7-7.6-1.5-.3-3.2-1.5-3.7-2.8-1.3-2.9-5.3-3.5-16.6-2.7-11.7.9-17.9 2.7-18.9 5.4-.6 1.7-1.4 2-4.9 1.7-5-.3-5.5 1.6-1.1 4.2 2.8 1.7 2.9 2 1.5 4-.8 1.2-1.5 3.3-1.5 4.8 0 2.3-.5 2.8-3.7 3.3-2.1.4-5 1.2-6.6 1.8-2.2.8-3.1.8-4.5-.4-.9-.9-3-1.8-4.7-2.1-3.8-.7-14.7 1.5-15.2 3-.7 2 6.2 4.3 9.8 3.3 2.8-.8 3.4-.5 7.3 3.3 6.5 6.4 6.5 7.2-.1 10.3-5.6 2.5-8.6 5.1-7.6 6.7.3.4 1.4.7 2.6.5 1.5-.2 2.4.4 3.1 2.3 1.2 3.6.2 5.9-2.7 5.9-3.6 0-3.9 1-1.2 4.2 2.8 3.3 2.6 6.8-.7 10.4-2.1 2.3-9.8 23.2-9.1 24.9.2.6-.6 3.7-1.7 7-1.1 3.2-2 6.5-2 7.4 0 .8-1.2 2.5-2.7 3.8l-2.8 2.3 2.4 1.9c2.3 1.8 2.4 2.1 1 5.2-.7 1.9-1.4 5-1.5 6.9-.2 1.9-1.4 6.6-2.8 10.5-1.4 3.8-2.6 8.7-2.6 10.7 0 3.2-.3 3.7-3 4.3-1.6.4-3.2 1.1-3.6 1.6-.9 1.5.6 4.9 2.1 4.9.8 0 1.6.4 1.9.9.6.8-3.5 13.6-8.1 25.9-1.3 3.5-2.6 7.5-2.8 9-.6 5.1-2.8 12.7-4.1 14.9-1 1.5-2.4 2.3-4.2 2.3-3.7-.1-23.2 5.3-23.2 6.4 0 1.2 10.4-.2 14.5-2 3.9-1.6 9.1-1.9 10-.5.3.6 1.7.6 3.6-.1 1.6-.6 4.3-.8 6-.4 4 .8 7.5-1 9.9-5.1 1.1-1.9 3.5-4 5.3-4.8 4.2-1.7 19.4-2.8 20.3-1.4.3.6-2.9 4.4-7.2 8.6-7.4 7.2-8 7.5-13.9 8.4-7.3 1-14.2 3.8-16.9 6.8-1.1 1.1-2.4 2.1-3 2.1-.6 0-3.8 1.4-7.1 3s-6.7 3-7.6 3c-.9 0-2.9 1-4.4 2.1-1.5 1.2-4.1 2.5-5.8 2.8-2.2.5-3.3 1.3-3.5 2.8-.3 1.7.1 2 1.6 1.6 4.8-1.2 21.6 15.9 25.4 26 1.9 4.9 1.7 8.7-.4 8.7-.6 0-1.9.7-2.8 1.5-1.6 1.5-2 1.2-4.9-3.3-1.7-2.7-3.1-5.3-3.1-5.9 0-.6-.7-1.6-1.5-2.3-2.4-2-1.9.8 1 5.5 4.4 7.1 2.9 8.2-2.1 1.6-2.5-3.4-5-6.1-5.5-6.1-1.8 0-.8 2.6 2.6 6.9 4.4 5.5 4.7 9.6.9 11.3-2.4 1.1-2.9 1-4.8-1.5-2.2-2.8-4.6-3.6-4.6-1.6 0 .6 1.1 2 2.5 3.1 3.1 2.4 3.1 3.2.3 5.8l-2.2 2h3c1.9 0 5-1.5 8.9-4.5 3.3-2.5 7.4-4.9 9.2-5.4 5.5-1.6 10.3-5.9 10.3-9.4s5.9-9.7 9.3-9.7c1.2 0 3.9 1.1 6 2.5 2.9 2 4.1 2.4 5.6 1.5 1.1-.5 2.9-1 4-1 3.3 0 19-15 23.5-22.4 1.6-2.6 5.2-6.5 8-8.6 2.8-2.2 6.4-4.9 8-6.1 3.3-2.6 18.4-11.9 20.6-12.7.8-.3 2.9-1.6 4.6-2.9 5.8-4.4 13.4-6.1 22.6-5.2 10 .9 14.4 2.4 22.5 7.6 3.4 2.2 8.3 4.6 10.9 5.2 4.9 1.3 10.9 6.2 10.1 8.4-.5 1.4-5.8 1.3-13.5-.5-4.8-1-5.4-1-7.5.9-1.2 1.1-3.2 2.4-4.5 2.8-2.5.7-2.9 3.6-.8 5.4.8.7 4.8 1.2 9.2 1.2 8.2.1 21.4 3 24.9 5.4 1.1.8 3.6 2.8 5.5 4.5l3.5 3.1-5.1-.5c-4.1-.5-5.6-.3-7.4 1.2l-2.4 1.9 2.2 1.8c2 1.8 12.1 6 16.8 7.2 1.7.4 2.8-.5 5.1-3.9 2.5-3.7 3.4-4.3 5.9-4 2.8.3 4.4.3 16.2 0 4.2-.1 8 .7 14.2 2.9 4.7 1.7 9.7 3.3 11.1 3.7 4.1.9 7.9 4.4 7.9 7.2 0 3 5 8.4 7.7 8.4 1 0 6.5 1.6 12.3 3.6 6.5 2.2 14.7 4.1 21.5 5 12.7 1.6 19.8 2.9 22.3 4.3 5.7 3 41.8 3.7 58.3 1.1 6.8-1.1 9.6-1.1 14-.1 2.9.6 9.7 1.8 14.9 2.7 5.2.8 12 1.9 15.1 2.4 3 .6 8.9 1 13 1.1 6.4.1 6.9.2 3.9 1-2.6.7-85.4.5-117.5-.3-.5 0-17.9.5-38.5 1-20.6.6-44.5.9-53 .7-30.8-.7-240.7-.7-242.8-.1-1.2.4-2.2 1.4-2.2 2.2 0 1.2 32.9 1.4 246.8 1.3 135.7 0 248.2-.3 250-.6 2.7-.5 3.2-.9 3.2-3.4 0-2.4-.4-2.9-2.5-2.9-1.4 0-2.5-.5-2.5-1 0-.6 1.1-1 2.5-1h2.5v-15.4c0-11.4-.3-15.6-1.2-15.9-1-.4-1-.6 0-.6 1.9-.1 1.4-4.9-.8-7.1-1.2-1.2-3.1-2-4.3-1.9-4.3.4-7.7-.1-7.7-1.1 0-.7 1.3-.8 3.5-.4 2.8.5 3.5.3 3.5-1 0-1.2-.9-1.6-3.5-1.6-5.2 0-4.2-1.7 1.5-2.5 6.3-.9 6.5-2.3.3-2.7-6.1-.4-6.2-2.1-.3-2.9 4.5-.5 4-1.5-1-2.1-3-.4-3.4-3.1-.5-3.6 5.8-.8 6.5-1.3 6.5-3.7 0-2.9-2.3-4.3-8.2-5.1-5.4-.8-6.6.4-7 7.1l-.3 5-5.1 1.1c-6.1 1.3-7.4 2-7.4 3.9 0 1.5 2.1 2.2 7.4 2.7 5 .5 4.1 2.5-1.3 3.3-9.2 1.3-9.3 5.4-.2 6.3 3.4.3 5.1.9 5.1 1.8 0 .8-1 1.4-2.5 1.4-4.1 0-34.8-2.9-39.6-3.8-5-.9-17.8-.7-22.7.3-2.3.5-4 .2-5.9-1-3.2-2.1-16.1-5.5-21.2-5.5-2.4 0-7.5 1.9-15.6 5.9-11.3 5.7-12.6 6.1-23 7.2-6 .6-22.2 1.3-36 1.5-29.1.4-23.8 1.5-60.2-12.5-13.2-5.1-18.6-6.1-22.5-4-1.5.8-2.8.7-5.1-.2-1.8-.8-4-1.2-5-1.1-1 .2-3.7-1.1-6-2.8-2.3-1.7-5.7-4-7.4-5.1-2.1-1.2-3.3-2.7-3.3-4 0-1.2-1.6-4.7-3.5-7.9-3.6-5.9-5.5-7.2-16.8-11.7-2.3-.9-6.5-3.2-9.4-5-2.8-1.8-7.6-4.2-10.5-5.4-2.9-1.1-5.5-2.2-5.7-2.5-.2-.2 3.1-2 7.4-3.9 8.8-4 10.9-5.5 20.4-14.1 16.4-14.9 36.2-24.7 55.1-27.4 3.1-.4 7.7-1.7 10.1-2.8 6.1-2.7 22.4-8.2 24.3-8.2 1.3 0 1.5.4.6 1.9-.5 1.1-1 3.8-1 6 0 3.8-.3 4.2-4.2 6.2-5.2 2.6-21.4 19.3-25.8 26.6-3.9 6.4-3.5 8.8 1.2 7.8 1.8-.4 4.7-2 6.5-3.5 3.3-2.9 18.6-11 20.8-11 .7 0 1.8.7 2.5 1.5.8.9 2.9 1.5 5.6 1.5 2.4 0 6.9.7 10.1 1.5 10.5 2.7 20.3 1.3 20.3-2.9 0-.8.8-2.4 1.8-3.6 1.8-2.3 1.9-2.3 4.8-.4 1.6 1 4.1 2.8 5.6 4 3.6 2.9 14 4.1 17.3 2 3-1.9 4.7-5 5.4-9.5.5-3 1.5-4 6.6-7 5-2.9 7.3-3.6 13.7-4.1 7.6-.5 10.7-1.8 9.4-3.9-1-1.6-7.2-1.3-8.6.4-.7.8-2.3 1.5-3.7 1.5-3.6 0-11.4 1.9-14.6 3.6-2.4 1.4-2.8 1.4-3.3-.1-.9-2.2 1.4-4.5 4.5-4.5 1.4 0 4.6-.6 7-1.3 5.7-1.8 3-3-3.7-1.7-6.9 1.3-7.9 0-6.2-8.2 1.5-7.8 3.9-12.5 9-17.9 3.4-3.6 4.4-4.1 6.9-3.6 1.7.4 3.3.2 3.6-.3.9-1.5 11.3-4.1 13.8-3.5 1.3.4 4.7-.1 7.6-1 3.6-1.2 6.9-1.6 11.4-1.2 6.4.6 8.5 1 24.7 4.5 15.9 3.4 38.9 4.4 49.9 2.1 2.5-.5 7.1-1.3 10.2-1.8 3.1-.5 7.9-1.7 10.7-2.7l5.2-1.9v-9.2c0-8.6-.9-11.6-2.4-7.7-.4 1.1-1.3 1.4-2.9 1-3.6-.9-5.4 1.3-5.9 7.2-.3 3.1-1.2 6-2.3 7.2-2.1 2.3-4.4 2.8-2.5.5.6-.8 1.2-3.6 1.3-6.2.2-4.3 0-4.8-1.8-4.5-6 1-7.6 1.6-8.5 3.2-.9 1.7-1.3 1.7-3.9.4l-2.8-1.4 1.9-6.8c3.4-11.8 3.5-12.1 7.8-35 1.2-6.2 1.3-6.3 4-5.7 3.3.7 5.3-1.7 4.3-5.3-.5-2.2 1-3.1 2.2-1.2 1 1.6 3.5 1.2 4.2-.6.4-1.1-.1-2.2-1.2-3-1.8-1.3-1.8-1.5.7-4.1 1.4-1.6 3.8-5.3 5.2-8.4l2.6-5.6V384.8l-4-5.5c-2.2-3.1-4-6.6-4-7.7 0-1.3 1.6-3.3 4-5l4-3v-84.8c0-46.6-.3-84.8-.6-84.8s-5.3 2.3-11 5.1c-14.2 6.9-20.8 7.9-51.2 7.3-18-.3-24.1-.8-26.2-1.9-4.3-2.2-12.1-1.8-19.4.9l-6.4 2.4-3.8-4.1c-10.2-10.9-9.9-10.4-8.3-13.3.8-1.5 1.4-4.5 1.4-6.7 0-3.7.5-4.4 4.5-7.3 2.5-1.8 6-4.5 7.8-6 1.9-1.5 5-3.6 7-4.7s5.4-3.4 7.4-5.2c2.5-2.1 5.7-3.6 9.5-4.4 11.6-2.4 18.9-4.3 23.6-6.2 2.6-1 5.7-1.9 6.8-1.9 2.5 0 13.1-5.3 14.8-7.4.8-.9 1.9-1.6 2.5-1.6.7 0 4.3-1.5 8.2-3.3 3.8-1.9 8.5-4 10.4-4.7 5.8-2.2 9-4.9 9-7.6 0-1.8 1-2.9 4.3-4.4 4.4-2.2 10.2-9.3 9.3-11.5-.5-1.5-1.8-1.4-6.1.5-1.6.7-3.4 1.2-3.9 1.1-.4-.1-2.9.5-5.5 1.3-5.8 1.8-14.9 2.8-15.6 1.6-.3-.4.9-3.4 2.6-6.6 2-3.8 2.8-6.6 2.4-8.1-.3-1.5.2-3.3 1.6-5.3 3-3.9 3.9-13.7 1.5-14.6-1.2-.5-3.2.9-6.9 4.7-19.8 20.3-28.2 26.8-38 29.3-1.5.3-3.9 1.7-5.5 3.1-7.2 6.3-10 8.4-13.2 9.7-1.9.8-6.8 3.7-10.9 6.4-4 2.7-9.4 6.2-12 7.7-9.8 6.1-23.8 22.5-27.9 32.9-1.1 2.7-2.2 3.9-4.2 4.3-3.2.7-5.6 3.1-6.2 6-.2 1.4-1.5 2.1-4.8 2.7-5.1.9-6.6-.3-9-7.1-2.1-6-2.6-6.2-11.4-6-4.5 0-9.3-.4-10.7-.9-2.1-.8-3.1-.7-4.5.3-1.1.8-3.2 1.5-4.9 1.5-1.6 0-8.2.9-14.5 1.9-13.5 2.3-14.2 2.9-13.6 11.3.5 6.6 1 6.2-10.4 7.3-3.6.3-8.3.8-10.5 1.1l-4 .6 5.5-3.4c6.3-3.8 7.2-6.8 3-10-2.3-1.7-2.9-1.7-8-.4-3 .8-6.3 1.8-7.4 2.2-1.4.5-1.7.3-1.4-.7.7-2.3 11.1-10.2 18.3-13.9 9.2-4.8 14.7-9.6 14.3-12.6-.2-1.5.8-3.4 3-5.7 6.4-6.6 1.4-9.2-11-5.8-4.4 1.2-8.2 2-8.5 1.8-1.5-1.6 11.4-8.5 22.7-12.2 6.5-2.1 23.6-10.4 28.3-13.6 1.7-1.3 5.6-4.5 8.6-7.1 5.5-5.1 15.9-10.5 33.9-17.7 12.8-5.1 19.4-8.4 21.2-10.6 1.2-1.5 1.2-1.9-.5-3.1-1.8-1.4-1.8-1.4.1-2.9 1-.8 2.4-1.5 3-1.5.5 0 2.3-1.3 3.8-2.9 4.2-4.4 2.8-5.5-6.1-4.7-7.3.7-7.4.7-7.1-1.6.6-4 4.7-5.6 30.6-12.3 5.6-1.4 14.6-3 20-3.5 17-1.4 31.5-4 34.4-6.1 3.7-2.6 4.7-2.4 12.3 1.6 3.6 1.9 8.1 3.7 10.1 4.1 4.2.8 17.9-2.2 19.6-4.3 1.5-1.8-.9-1.7-6.7.3-7.4 2.5-11.6 2-20.5-2.1-9.8-4.6-16.3-5.3-16.8-1.8-.2 1.4-1.2 2.5-2.5 2.7-10.2 1.9-16 2.8-20.7 3.1-21.5 1.6-31.8 3.6-51.6 9.9-6.6 2.1-8.7 3.3-10.8 6.1-1.9 2.5-2.5 4.2-2.1 5.6.7 2 1.3 2.1 7.1 1.6 3.5-.2 6.4-.1 6.4.3s-2.2 2.1-5 3.8c-4.8 3-6.2 5.3-4 6.7 2.2 1.4.7 3.4-3.7 5.1-7.7 2.8-23.2 9.3-28.8 12.1-12.3 6.2-15.2 8-19.9 12.2-9.2 8.4-24.5 16.1-42.6 21.6-9.2 2.8-21 11-21 14.6 0 3 1.5 3 11-.1s14.4-3.8 13.8-1.9c-.2.6-1.7 1.8-3.3 2.7-10.8 5.9-12.6 8.2-6.4 8.2 4.8 0 3.1 1.8-7 7.6-5.2 3-12.5 7.9-16.3 11-7.5 6-10 9.6-8 11.6 1.2 1.2 1.7 1.1 15.5-3.8 3.8-1.3 5.1-1.4 6-.5 1.5 1.5-1.4 4.1-8.3 7.6-5.4 2.7-7.7 6.6-5.4 8.9.8.8 2 1.3 2.7 1.1 14-4.6 27.4-6 30.9-3.3.9.8 2.1 5.3 3.2 12.3 1 6 2.4 12.9 3.2 15.2 1.8 5 1.3 6.3-2.5 6.3-1.6 0-4.6 1.2-6.7 2.6-3.4 2.3-4.5 2.6-9.3 2-6.3-.8-8.1-1.9-7.8-4.9.1-1.7-.4-2.3-2.4-2.5-1.4-.2-3.1.4-3.9 1.2-1.8 2.3-4.5 1.9-6.3-.8-1.1-1.6-4.5-3.4-10.4-5.5-4.8-1.8-9.2-3.6-9.8-4-2.2-1.8-20.3-7.4-21.9-6.8-4.4 1.7 0 4.8 11.9 8.3 7.4 2.2 22.1 8.9 25.5 11.5l3.3 2.7-2.9 5.1c-2.4 4.2-2.7 5.3-1.5 6 2.1 1.4 3.4.5 7.6-5 2.3-3.1 4.2-4.6 4.7-4.1.6.6-.4 2.7-2.6 5.7-4 5.2-4.3 6.3-2.1 7.2 1 .3 3.7-1.5 7.5-5.1 5.1-4.9 6.3-5.6 8.7-5 4.1 1 4.4 1.3 3.1 3.7-.6 1.2-1.7 4.9-2.4 8.2-1.3 6.2-.5 11.9 2.6 18.6.9 1.9.9 3.2.2 4.5-.8 1.5-.5 2.9 1.6 6.6 1.5 2.6 2.3 5 1.9 5.4-.6.6-5.2-1.4-13.8-6.2-1.1-.7-2.6-1.7-3.2-2.3-1.7-1.7-4-1.3-6.9 1.4-3.6 3.3-4.3 6.1-2.4 9 1.7 2.6 2.1 6.1.8 6.9-1.1.6-2.2-.2-5.5-4.2-3.2-4-3.6-9.8-1-14.3 1.7-2.9 1.5-3.9-.9-4.3-4.8-.7-5.1-4.4-.3-4.4 2.4 0 3.8.6 4.9 2.3 1.7 2.5 6.4 4.1 7.9 2.6.6-.6.4-2.4-.7-5.1-1.4-3.6-1.5-4.4-.1-7.6 1.1-2.6 1.2-4.1.4-5.6-1.6-3-4.1-1.7-7.2 3.7l-2.8 5 .5-7.1c.5-5.6.3-7.4-.9-8.4-1.9-1.6-3.4-.5-5.1 3.7-.8 1.8-2.5 3.8-3.8 4.3-3.5 1.3-3.9 2.7-1.6 5 2.6 2.6 2.5 3-.4 3-4.2 0-7.2-1.7-8.5-4.8-1.2-2.8-6.1-6.1-20.2-13.4-2.5-1.3-6.3-3.8-8.4-5.5-3.7-3.1-3.8-3.4-2.5-5.8 1.8-3.3.6-4.3-2.1-1.9-2.2 1.9-2.2 1.9-1.6-.7.8-3.3-1-7.1-5.4-10.9-3.1-2.8-3.2-3.1-1.8-5.7.7-1.6 1.5-3.1 1.7-3.6.7-1.4-2.1-.7-4 1-1 .9-2.1 1.3-2.6.9-.9-1 4.4-5.6 6.4-5.6.8 0 3.7 1.1 6.5 2.5 2.7 1.4 6.6 2.7 8.7 2.8 5.9.3 4.6-2.3-3-6.3-3.8-2-7.3-4.1-8-4.8-.7-.7-2-1.2-2.9-1.2-3.1 0-8.1-5.3-10.9-11.4-3.4-7.4-7.3-11.3-12.5-12.4-2.3-.4-4.1-1.4-4.3-2.3-.2-1.2 1.8-1.9 9.5-3.3 5.4-1 10.8-1.9 12-2.2 3.8-.7 4.6-3.7 2.8-10.2-3-10.3-6.4-11.9-18.4-8.6-5.7 1.6-5.9 1.6-8.9-.6-4.1-3-7.8-10.9-9.7-20.5-.9-4.4-2.7-11.2-4-15-1.3-3.9-2.9-9.7-3.5-13-.7-3.3-1.9-8-2.7-10.5-.8-2.5-1.9-7.3-2.4-10.7-.5-3.4-1.5-7.7-2.3-9.5-2.4-5.5-12.1-37.8-11.4-38.2 14-8.5 18.4-10.4 20.1-8.7.6.6.7 1.1.3 1.1-.5 0-.3.7.4 1.5 1.6 1.9 3.7 1.9 9.7-.1 2.9-.9 6.1-2.9 7.9-5 2.1-2.3 4.9-3.9 8.5-5 3-.9 7-2.8 8.9-4.3 1.9-1.5 7.8-4.2 13-6 5.2-1.8 10.9-4.1 12.5-4.9l3-1.7-2.8-.3c-1.6-.2-3.4.1-4 .6-.7.5-4.9 2.2-9.5 3.7-4.5 1.5-10.8 4.4-14 6.4-3.3 2.2-8.1 4.3-11.5 5-4.6 1-6.1 1.8-7 3.8-1.1 2.5-7.9 6.7-9.1 5.6-.3-.4-.6-1.6-.6-2.9 0-4.2-4.2-3.6-16.9 2.4-4.2 2-8 3.6-8.5 3.6-.5.1-2-4-3.3-8.9-1.3-5-3-11.4-3.8-14.3L105.9 0H95.4c-9.6 0-10.5.2-10 1.7zm18.7 8.9c1.5 4.9 3.7 13.4 4.9 18.9 1.2 5.5 4.6 17.4 7.5 26.5 2.9 9.1 6.8 22.8 8.6 30.5 1.8 7.7 4.8 19.8 6.6 27 6.8 25.8 7.5 28.6 6.9 30.1-.7 1.7-4 1.8-5.4.1-1.2-1.5-3.8-8.7-5.9-16.6-.8-3.1-2.6-9.9-3.9-15.1-1.4-5.2-2.9-11.8-3.4-14.5-.5-2.8-1.4-7.5-2-10.5-.6-3-1.8-9.1-2.6-13.5-.9-4.4-3.3-13.1-5.4-19.5-8.2-25.1-13.5-48.8-11.5-52 1.5-2.4 3.1 0 5.6 8.6zM92.9 3.9c.6 1 1 3.4.9 5.2 0 1.9.7 5.1 1.6 7.3.9 2.1 1.6 4.6 1.6 5.6s.9 4.6 2.1 8.1c1.1 3.5 2.6 9.3 3.4 12.9.7 3.6 2.5 9.6 3.9 13.3 1.4 3.8 3.3 10.3 4.1 14.4.9 4.2 1.8 7.9 2 8.3.2.4.7 2.9 1 5.6 1.2 10 5.9 32.3 10.4 49.2 2.9 11.1 2.9 11.2.9 12.3-1.4.8-2.3.8-3.1 0-1.2-1.2-6.2-19.6-8.2-30.2-.8-4.2-2.1-10.5-2.9-14-.8-3.5-2.5-11.6-3.6-17.9-1.2-6.3-2.9-14.4-3.7-18-.8-3.6-1.6-7.4-1.8-8.6-.9-6-2.8-14.1-3.7-15.8-1-1.8-4.2-17.6-5.8-28.1-.4-2.8-1.1-6.5-1.5-8.3-.8-3.6.7-4.5 2.4-1.3zm47.9 146.9c.4 2.7-.6 2.8-2.4.4-1.3-1.6-1.5-1.6-2.5.1-.5.9-1.5 1.5-2 1.2-1.3-.9-.1-2.5 2.5-3.5 2.9-1.2 4-.7 4.4 1.8zm284.2-.3c-1.9.7-4.6 1.3-6 1.3-2 0-2.1-.1-.5-.5 1.1-.3 2.3-.8 2.7-1.1.4-.4 2.2-.8 4-.9l3.3-.1-3.5 1.3zm-14.3 3.1c-.3.3-1.2.4-1.9.1-.8-.3-.5-.6.6-.6 1.1-.1 1.7.2 1.3.5zm-268.2 3.3c-1.6 1.4-5.5 2.3-5.5 1.2 0-.9 2-1.7 5-2 .8-.1 1 .2.5.8zm24.2 2.3c1.4 1.9 2.4 5 1.4 4.4-.9-.6-6.7 2-7.6 3.4-.3.5-1.2.7-2.1.3-.8-.3-2.2.1-3.2 1-1.5 1.3-9.9 3.7-23.7 6.7-2.2.5-6 1.3-8.5 1.9-9.4 2.1-9.1 2.1-10-.4-.7-1.8-1.8-2.4-4.6-2.7-6.1-.5-5.3-2.5 1.3-3.4 3.1-.4 7.1-1.3 8.8-2 3.5-1.4 20.8-5.2 30-6.5 3.3-.5 8.3-1.5 11-2.2 2.8-.8 5.3-1.5 5.6-1.6.4 0 1.1.5 1.6 1.1zm168 27.1c3.7 6 7.9 11.8 9.9 13.3 1.9 1.5 3.4 3.4 3.4 4.3 0 1 1.1 2.8 2.5 4.1 3.2 3 2.4 3.9-1.1 1.1-3-2.4-5.4-2.7-7.2-.9-.9.9-1.7.9-3.6-.1-1.9-1.1-3-1.1-5.9 0-4.5 1.6-7.8.1-10.6-4.7-1.9-3.2-21.1-16.8-30.4-21.5-5.3-2.8-3.9-3.9 6.7-5.2l8.5-1.1 6.2 6.2c3.4 3.4 6.9 6.2 7.7 6.2.9 0 2.4.8 3.4 1.7 3.3 3 4.1.2 1.8-5.8-1.2-3-2.6-5.8-3.1-6.4-1.7-1.7-.9-2.6 2.3-2.3 2.9.3 3.8 1.3 9.5 11.1zm-188.1-9.2c1.1 1.8-1.4 3.5-2.8 2-1.1-1-1-1.1.5-.6 1.9.8 2.4-1 .5-1.8-1-.4-1-.6-.1-.6.6-.1 1.5.4 1.9 1zm215.2 7c-.9.5-1.5 1.6-1.2 2.4.3.8-.5 2.1-2 3-3.3 2.2-3.3 3.3.2 4.2l2.7.7-2.5.6c-1.4.3-2.5 1.2-2.5 1.9 0 1 5.1 4.2 11.4 7.1 2.1.9 2.6 3 .7 3-2.7 0-2.8 2-.1 5.2 2 2.3 2.4 3.3 1.4 3.6-.8.2-2 .5-2.6.7-.9.3-.6 1.8 1.2 5.2 1.3 2.7 2.6 7.3 3 10.3.5 5.3.5 5.4-.7 2-.7-2-2.1-3.6-3.2-3.8-1.7-.4-1.8.1-1.2 4.5.4 2.6 1.6 6.5 2.7 8.6 2.2 4.3 2.3 4.2-6.6 5.2-6.3.6-8.2 1.6-7 3.5.5.8 2.9 1 7.9.6l7.1-.6-6.5 1.9c-7.9 2.3-22.7 3.5-26.2 2.2-2.7-1-7.2-7.6-6.3-9.2 1.2-1.9 2.5-.8 2.5 2 0 3.6 1.5 4.3 10.8 4.6 6.8.3 7.2.2 7.8-2 .3-1.3 1.4-3.1 2.5-4.1 2.3-2 2.5-5.7.5-7.4-.8-.6-1.6-2.3-1.8-3.7-.4-3.2-2.9-4.9-5.4-3.8-1.1.5-3.7.9-5.9.9-3.1.1-4.2.6-5.2 2.6-1.9 3.9-3.4 3-5.8-3.3-2-5.6-2.8-6.6-7.7-11.4-3-2.8-10.6-6.2-14-6.3-3.9 0-6.3-1.1-4.7-2.1.7-.4 2-.4 3 .1 1.2.7 2.2.4 3.4-1 1.6-1.8 1.9-1.8 3-.4 1 1.5 1.3 1.5 2.9-.1.9-1 1.8-1.6 2-1.4.1.2 1 1.6 1.9 3.1 1.2 2 2.6 2.8 5.4 3 3.4.3 3.8.6 4.4 3.8.9 4.3 3.6 6.5 8.9 7.4 7 1.1 15.7-2.6 19.1-8.2 2.9-4.5 1.8-10.2-2.7-15.2-1.9-2.1-3.4-4.2-3.4-4.8 0-.6-1.6-2.7-3.5-4.8-1.9-2-3.5-4.1-3.5-4.5 0-.5 1.6-.9 3.5-.9 2.8 0 4-.8 7.2-4.5 3.4-4.1 3.9-4.4 5.3-2.9 1.3 1.4 1.3 1.6-.2 2.5zm-229.8-1c0 1.1-4.6 2.3-6.5 1.6-.8-.4-1.7-.2-2 .3-.4.6-1.1 1-1.7 1-.7 0-.6-.6.2-1.5.7-.8 2.3-1.5 3.6-1.5 1.2 0 2.5-.4 2.9-1 .7-1.1 3.5-.2 3.5 1.1zm24.5-1.1c.3.5 1.4 1 2.3 1 1.8 0 6.2 8 6.2 11.2 0 .9.5 1.8 1.1 2 1.5.5 1.8 3.9.6 6.5-1.1 2.5-4.1 3.1-5.3 1.1-.5-.8-.1-.9 1.2-.5 1.7.6 1.7.5-.2-1-1.2-1-3-2.3-4-3-1.7-1-1.7-1.3-.4-2.2 1-.8 1.2-1.3.4-1.9-.6-.4-1.4-2-1.8-3.5-.7-3.1-3.7-4.7-7.6-4.1-5.7.9-6.3.9-6.6-.1-.4-1 9.9-6.3 12.3-6.4.6-.1 1.5.3 1.8.9zm-22 8c.3.6 0 1.2-.7 1.4-.7.1-3.4 1-6 1.9-3.1 1-5 1.2-5.4.6-.8-1.4-.4-1.7 4.7-3.3 5.5-1.8 6.6-1.8 7.4-.6zm3.5 5.8c0 .4-1.5 1.2-3.4 1.8-2.7.8-3.3.8-2.9-.2.7-1.8 6.3-3.2 6.3-1.6zm11.3 2.4c.3 1.8 1 5.2 1.6 7.6.6 2.4.9 4.7.6 5.1-.2.5-2-.6-3.9-2.3-3.1-2.8-3.3-3.2-1.8-4.4 1.6-1.2 1.6-1.5-.1-4.3-1.9-3.4-1.5-4.9 1.2-4.9 1.3 0 2 1 2.4 3.2zm-19.6.3c0 .8-.4 1.2-.9.9-.5-.3-.6-1-.3-1.5.9-1.3 1.2-1.1 1.2.6zm42 3.9c1 1-1.7 2.5-3.3 1.9-.7-.2-1-1.1-.8-1.8.6-1.4 2.8-1.4 4.1-.1zm-11.2 5.6c.3.5.1 1-.4 1-.6 0-1.1-.5-1.1-1 0-.6.2-1 .4-1 .3 0 .8.4 1.1 1zm142.5 4.4c0 .3-.4.8-1 1.1-.5.3-1 .1-1-.4 0-.6.5-1.1 1-1.1.6 0 1 .2 1 .4zm-6 5.1c-.7.9-1.5 1.3-1.7 1.1-.7-.7.7-2.6 1.9-2.6.6 0 .6.6-.2 1.5zm45.9 1.9c1.3.7 2 1.6 1.5 1.8-1.3.8-5.4-.9-5.4-2.2 0-1.3 1-1.2 3.9.4zm-184.5 3.1c2.4 3.6 2 7-1.1 9.5-3.7 2.9-7.2 2.3-10-1.9-2.8-4.1-2.8-4.2-.2-7.5 2.8-3.6 8.9-3.7 11.3-.1zm135.1 1.7c-1 3.1-2.5 4.7-2.5 2.6 0-2.4 1.1-4.8 2.2-4.8.5 0 .6 1 .3 2.2zm4.7 4.2c-1 2.1-1.8 2.8-2 1.9-.2-.8.4-2.3 1.4-3.4 2.4-2.7 2.6-2.4.6 1.5zm19 5.6c1.6 8.7 6 24.5 7.4 26.4.9 1.3 2.5 1.9 5 1.8 2-.1 4.9.5 6.4 1.3 1.6.8 3.5 1.2 4.3.9.8-.3 4 .2 7.1 1.1 3.1.9 6 1.4 6.5 1.1 1.5-1 7.2.6 7.8 2.1.4.9-.8 2.8-3.1 4.9-2 1.8-3.6 3.7-3.6 4.3 0 .5-1 1.3-2.2 1.7-1.3.3-3.5 1.5-4.9 2.5-4 2.8-9.6 1.5-12.1-2.8-1.8-2.9-2.5-3.3-6.1-3.3-2.6 0-5.9 1-8.6 2.5-6.1 3.5-7.7 3.3-8.9-1.3-.9-3.5-.7-3.9 2.7-6.9l3.6-3.2-2.2-2.2c-1.6-1.7-3.2-2.2-6.2-2.1-3 .1-4.1-.2-4.1-1.2 0-.8.5-1.8 1-2.1.6-.4.8-1.1.5-1.6-1-1.5-4.2-1-4.9.7-.3.8-1.1 1.2-1.7.8-1.2-.7-.6-9.3.9-13.5l.9-2.2 2.5 2.7c1.9 2.2 3.2 2.7 5.9 2.4 3.2-.3 3.4-.5 3.4-4.3 0-3.3-.4-4.2-2.7-5.3-3.5-1.6-3.6-3-.3-3.8 3-.7 3.1-1.2.8-3-1.6-1.2-1.6-1.5-.3-2.4 2.8-1.9 4.4-.6 5.2 4zm-27.5 5.5c-.9 3.9-1.9 6-2.8 6-2.2 0-2.3-4.5-.1-6.8 1.1-1.2 2.4-3.8 2.8-5.7.6-2.4.9-2.9 1.1-1.5.2 1.1-.2 4.7-1 8zm39.8.5c.5 2.2.4 3-.4 2.6-1.2-.8-3.1-7.1-3.1-10.1.1-2.5 2.4 2.5 3.5 7.5zm53.2 2.2c1.5 1.6 2.2 2.8 1.6 2.8-1.4 0-7.3-6.7-7.3-8.3 0-.7-.3-2.3-.5-3.7-.3-1.4.4-.5 1.5 2 1.2 2.5 3.3 5.7 4.7 7.2zm-80.9-4.8c-.5 3.3-2.3 2.4-2.6-1.3-.3-3.1-.2-3.3 1.3-2.1.9.7 1.5 2.3 1.3 3.4zm10.2 7.7c0 .6-.4.7-1 .4-.5-.3-1-1.1-1-1.6 0-.6.5-.7 1-.4.6.3 1 1.1 1 1.6zm65 0c0 .5-.4.9-1 .9-.5 0-1-.7-1-1.6 0-.8.5-1.2 1-.9.6.3 1 1 1 1.6zm24.5 2.9c.3.5.2 1-.4 1-.5 0-1.3-.5-1.6-1-.3-.6-.2-1 .4-1 .5 0 1.3.4 1.6 1zm-16.7 2.5c-.2.1-2.5.5-5.3.8-5 .6-5 .6-1.5-.7 2.8-1 8-1.1 6.8-.1zm3.9-.9c-.3.3-1.2.4-1.9.1-.8-.3-.5-.6.6-.6 1.1-.1 1.7.2 1.3.5zm48.2 16.6c1.3 1 3.1 1.8 4.1 1.8 1.8 0 5.1 3.2 7 6.8 1 2 .9 2.7-.9 4.6-2.4 2.6-2.6 4.6-.8 9.7 1.8 5.3 3.5 6.9 7.1 6.9 4.5 0 7.6 2.5 7.6 6 0 4.1-2.7 5.4-7.1 3.2-2.3-1.2-3.6-2.7-4.3-5-.9-3.4-1.5-3.5-5.8-1.7-2.8 1.1-3.4-2.2-.9-4.3l2.1-1.7-2.6-9c-3.1-10.9-5.1-14-8.4-13-2.3.7-2.3.9-.4 10 .7 2.9.4 2.7-5.5-2.8-4.9-4.7-6.6-5.8-8.8-5.5-4.7.5-4.1 3.5 1.8 8.9 5.8 5.4 6 7.4.4 3.9-3.8-2.3-8.5-2.1-8.5.4 0 2.3 4.6 6.4 8.4 7.5 2 .5 5.7 2.1 8.1 3.6 4.3 2.5 4.5 2.8 4.5 7.1 0 2.5.5 5.4 1 6.5.8 1.5.7 1.9-.4 1.9-.8 0-1.9-.8-2.4-1.7-.9-1.5-1.8-1.4-10.7 1.5l-9.7 3.3-5.5-3.8c-6.3-4.3-8.9-7.4-9.9-11.7-.6-2.7-.5-2.8 1.8-2.3 3.4.9 5.4-1.3 3.9-4.2-1.4-2.6-1.4-6.4 0-7.8 1.5-1.5.3-3.3-2.2-3.3-2.3 0-2.4-.4-.3-3.5 1.8-2.8 15.9-12.1 21.2-14 4.7-1.6 12.9-.8 16.1 1.7zM312 268c0 .5-.5 1-1.1 1-.5 0-.7-.5-.4-1 .3-.6.8-1 1.1-1 .2 0 .4.4.4 1zm83.1 24l-1 2.5v-2.7c-.1-1.4.2-3.5.6-4.5.7-1.7.8-1.7 1.1.2.1 1.2-.2 3.2-.7 4.5zm-136.1-.5c1.3 1.4 2.1 2.7 1.8 3-.8.8-7.1-2.8-7.6-4.3-.7-2.2 3.4-1.3 5.8 1.3zm23.5.5c.9 1.5-1.5 1.2-3.1-.4-.8-.8-1.4-1.7-1.4-2.1 0-.8 3.7 1.3 4.5 2.5zm72.5 7.9c0 .5-.9 1.1-2 1.4-1.1.3-2 .1-2-.3 0-.5.8-1.1 1.8-1.3.9-.3 1.8-.5 2-.6.1 0 .2.3.2.8zm88 5.2c.7 1.7 2.3 3.7 3.4 4.4 2.9 1.9 10.6 2.2 14.5.5 3.1-1.3 3.3-1.2 7.7 3.1 2.4 2.4 4.4 4.8 4.4 5.5 0 1.4-5.9 4-12 5.4-6.5 1.4-7.7 1.2-8.3-1.1-.4-1.5-1.1-2-2.1-1.5-.9.3-2.3.9-3.1 1.2-2.6 1.1-1.6-1.5 1.5-3.8 4-2.9 3.8-4.3-.7-6.1-4.5-1.8-6.9-4.2-7.8-8-1-3.7.9-3.5 2.5.4zm-62.5 1.6c3 3.3 3.2 5.9.6 6.6-3.1.8-4.5-.8-3.8-4.2.5-2.3.2-3.3-1.1-4-1.6-1-1.6-1 0-1.1.9 0 2.9 1.2 4.3 2.7zm-36.3 8c5.3 5.2 5.8 6.3 2.8 6.3-3.8 0-8-3-9.5-6.6-1.9-4.5-1.9-4.4.2-4.4 1 0 3.9 2.1 6.5 4.7zM392 313c1.3.8 1.3 1-.2 1-.9 0-2-.5-2.3-1-.8-1.3.5-1.3 2.5 0zm36.2 4.2c-1.5 1.5-2.6.4-1.8-1.8.5-1.3.9-1.5 1.8-.6s.9 1.5 0 2.4zm-52.2.9c0 2.6 1.9 3.3 3.9 1.5 2.1-1.9 8.6-2.1 12.1-.3 2.6 1.3 8.7 10.3 7.7 11.3-.3.4-1.2-.6-1.9-2.2-1.7-4.2-3.8-6.4-6-6.4-2.4 0-2.3 2.3.6 7.3 1.3 2.3 2.7 5.2 3 6.3.6 2 .2 2.2-4 2.6-3.5.2-5.6-.2-8.6-1.9-2.2-1.3-4.7-2.3-5.5-2.3-1.3 0-1.3-.3-.3-1.5s1-1.8 0-3c-.7-.8-1.6-3-1.9-4.8-.5-2.5-1.4-3.4-3.9-4.2l-3.2-1.1 2.1-2.1c2.4-2.4 5.9-2 5.9.8zm-207.7 2.5c.3.4 0 1.9-.8 3.4-1.3 2.4-1.2 3.3.2 6.9 1.6 4.1 1.6 4.3-.5 6.3-1.2 1.2-4.1 3.1-6.4 4.2-5 2.5-7.5 6.5-5.8 9.6 1.4 2.6 2.2 2.6 9.3-1.1 5.6-2.8 5.9-2.9 5.4-.9-.3 1.3.2 2.7 1.4 3.9 1.9 1.8 1.8 1.8-4.3 2.5-3.4.3-7.8 1.4-9.8 2.5-2.6 1.3-4.9 1.7-9 1.3-3.8-.3-6.8.1-9.5 1.2-3.9 1.7-4 1.6-5.7-.5-2.4-2.8-2.3-8.1.2-11l1.9-2.4.1 3c0 6.3 4.1 7.1 11.5 2.2 5.1-3.3 5.5-4.4 4-9.5-.6-1.8.1-3 4-6.6 4.3-3.9 4.8-4.9 4.9-8.7.1-3.6.5-4.6 2.6-5.6 2.7-1.4 5.3-1.7 6.3-.7zm190.5 1.2c.2.7-.5 1.2-1.7 1.2-1.4 0-1.9-.5-1.4-1.5.6-1.7 2.5-1.5 3.1.3zm127.9 1.4c3.4 3.3 4.3 7.4 2.1 9.6-.9.9-.9 1.8 0 3.7 1.5 3.2 2.6 19.4 1.7 24.7-.5 2.8-1.2 3.8-2.5 3.8-2.4 0-10.6 3.5-11.4 4.9-.4.6 0 2.1.8 3.3.7 1.3 1.7 3.3 2.1 4.5.6 2.1.3 2.3-3.7 2.3-5.1 0-6.8-1.3-6.8-5.3 0-1.5-.4-3.6-.9-4.5-.4-.9-1.1-4.5-1.4-8-.5-6.1-.5-6.3 1.3-4.7 2.6 2.3 6 .4 6-3.3 0-1.5.3-3.7.6-4.8.8-3.1-4.5-8.8-8.2-8.9-4.3 0-4.1-1.9.2-2.8 3.5-.7 4.1-.4 7.5 2.9 4.1 4 6.9 4 6.9 0 0-1.6-1.3-3.6-3.9-5.8l-3.9-3.3 4.6-5.8c2.6-3.1 4.9-5.7 5.2-5.7.2 0 1.9 1.4 3.7 3.2zm-150.2.3c2.7 2.3 2.8 2.6 1.4 4.1-1.3 1.3-2.1 1.4-3.8.5-3-1.7-4.7-5.1-3-6.2 1.9-1.2 2-1.2 5.4 1.6zm87.9 2.1c4.1 1.8 5.6 3.1 5.4 4.2-.4 1.8-.8 1.8-7.1.7-3.8-.6-7.5-4.4-6.2-6.5.9-1.4 1.6-1.3 7.9 1.6zM275.5 328c1.4 2.3-2.3 5.6-8.1 7.2-8.2 2.3-11.4 5.8-12.3 13.7-.8 6.8-2.7 9.5-9.8 13.7-5 2.9-5.8 6.3-2.1 8.8 5.1 3.6 11.2 1.2 19.1-7.4 4.3-4.6 5-5 9.3-5 4.3 0 5.1-.4 8.8-4.5 4.1-4.5 8.6-6.1 8.6-3.1 0 1.8-1.9 3.8-6.4 6.6-5.5 3.3-5.7 7.9-.5 9.5 1 .4 1.9 1.3 1.9 2 0 3 3.6 3.6 9 1.5 8.8-3.5 7.9-1.9-2.1 3.9-6.5 3.8-7.5 4.1-12 3.5-2.7-.4-5.2-1.1-5.5-1.5-.3-.5-2.3-.6-4.5-.3-2.3.4-4.4.2-5.2-.5-1.4-1.1-13.3-1.9-34.5-2.3-8.6-.2-12.6-.6-13.4-1.5-.7-.9-4.8-1.3-14.4-1.3-7.4 0-13.4-.4-13.4-.9s.6-1.4 1.4-2c1.7-1.5 4.6-9.5 4.6-12.9 0-2.6-.3-2.6-8.2-.6-4.6 1.1-3.2-1.2 2-3.4 2.7-1.1 8.3-2.2 13.2-2.6 7.3-.5 9.6-1.2 16.3-4.7 4.4-2.2 8.1-3.8 8.4-3.6.2.3-.5 2.3-1.7 4.6-1.6 3.2-2.6 4.1-4.6 4.1-3.9 0-7.4 2.8-7.4 6 0 6.3 5.6 6.4 17.7.4 7.4-3.6 10.3-6.4 10.3-9.7 0-4.2 6.9-11.6 10.9-11.7 1.3 0 4-1 6-2.2 2.9-1.8 9.6-3.6 17.3-4.7.4-.1 1 .4 1.3.9zm193.7.5c0 .5-.5 1.1-1.1 1.3-.6.2-1.1-.4-1.1-1.3s.5-1.5 1.1-1.3c.6.2 1.1.8 1.1 1.3zm-121.7.5c.3.5-.1 1-.9 1-.9 0-1.9 0-2.3.1-.4 0-.9-.4-1.1-1-.5-1.4 3.5-1.4 4.3-.1zm117.2 1.6c.9 2.5-1.1 3.8-3.8 2.4-2.2-1.2-2.2-1.3-.4-2.6 2.4-1.8 3.4-1.8 4.2.2zm-90.5 3.6c-.5.5-2.5 1.1-4.3 1.4-1.9.2-4.4.6-5.6 1-2.7.7-3.2-1.2-.8-3 1.9-1.4 12.1-.8 10.7.6zm78.8-1.1c0 1.9-2.1 4.9-3.4 4.9-.8 0-1.9-.7-2.6-1.5-1-1.2-1-1.8 0-3 1.4-1.7 6-2 6-.4zm-99 2.3c0 .3-.4.8-1 1.1-.5.3-1 .1-1-.4 0-.6.5-1.1 1-1.1.6 0 1 .2 1 .4zm56 .6c0 .5-.9 1.4-2 2-1.5.8-2 .8-2-.3 0-.8.3-1.7.7-2 1-1 3.3-.8 3.3.3zm24.7 5.6c1.8 2 3 2.4 4.9 2 3.4-.9 6.3 1 8.1 5.2.8 2 2.4 4.9 3.4 6.4 3.4 4.7 2.2 6.8-4.8 8.1-2.6.5-3.5.2-4.3-1.2-.6-1.3-1.7-1.7-3-1.4-1.4.4-2 0-2-1.2 0-1.4-.6-1.6-3.2-1.1-3.8.7-5.8 2.9-5.8 6.3 0 1.3-.3 2.3-.7 2.3-.5 0-.6-2.7-.5-5.9.3-4-.1-6.7-1.1-8.3-.8-1.2-1.8-4.6-2.2-7.5-.7-5.1-.6-5.2 2.2-5.6 5.7-.8 6.6-.6 9 1.9zm-62.6-.4c.1.7.1 1.7 0 2.3-.1.5.5.2 1.3-.9 1.9-2.4 5.7-1.5 7.1 1.6.7 1.7 1.7 2.2 3.5 2 7.5-1 20-1 19.4-.1-.4.7.6.8 2.8.4 1.9-.4 5.4-.2 7.6.5 3.3.8 4.2 1.5 4.2 3.3 0 1.8-.2 1.9-1 .7-.7-1.1-.8-.6-.5 1.5.2 1.7.4 3.4.5 4 0 .5.6.1 1.3-1 1.1-1.8 1.3-1.5 1.7 2.5.6 5.3-.8 21.1-2 22.3-.4.5-1.7.6-2.9.2-1.7-.5-1.9-.9-.9-3.1.6-1.3 1.5-2.4 2-2.4s.1-1.1-.8-2.5-1.2-2.5-.6-2.5c.8 0 .8-.9 0-3-.5-1.7-.8-4.2-.6-5.5.6-2.7-2-4.3-4.6-2.8-1.4.8-1.6 1.2-1.6 3.4 0 .5-.4.8-.9.5-.5-.4-2.1-.2-3.5.4-2.4.9-2.6.7-2.6-1.5 0-2.3-1.3-3.1-4.2-2.6-.5 0-.8-.3-.8-.8 0-.6-1.1-2.2-2.5-3.7-2-2.2-3-2.5-5.6-2-2.4.4-3 .3-2.6-.7.3-.8.1-2-.3-2.7-1.3-2.1-6.7.6-7.5 3.8-.4 1.6-.9 2.2-1.4 1.4-1-1.7-8.1.4-8.1 2.4 0 .9-.9 1.8-2.1 2.1-1.1.3-1.8 1.1-1.6 1.7.3.6-.2 1.7-.9 2.4-1.1 1-1.6.8-2.5-1-.7-1.3-1.6-2.6-2.2-2.9-.9-.7-9.2 3.5-10.2 5.2-.4.5-1 .9-1.6.9-1.5 0-1.1-2.6.7-4.1 1.6-1.3 1.2-5.4-.6-7.3-1.2-1.2-8 2.1-8 3.8 0 .8-.8 2-1.7 2.7-1.4 1.2-1.6 1.2-.8 0 .5-1 .4-1.2-.3-.7-.7.4-1.2 1.4-1.2 2.2 0 .8-.7 1.4-1.5 1.4-2.9 0-1.8-4.9 1.5-6.8 3-1.7 3.9-3.4 4.2-7.8.2-1.5.7-2 1.7-1.6.9.3 1.2.1.7-.6-.4-.7-.3-1.2.3-1.2.5 0 1.7-.3 2.7-.7 1.3-.5 1.6-.3 1.1 1-.9 2.3.4 2.8 3.3 1 1.4-.8 1.7-1.2.8-.9-1 .3-2 .1-2.3-.4-.4-.6.9-1 2.7-1 1.9 0 3.9-.5 4.6-1.2.6-.6 4.4-1.5 8.4-1.8 4-.4 7.6-.8 8.1-.9.4 0 .8.5.8 1.1zm-226.3 5.1c.2 1-.4 2-1.3 2.3-2.1.9-2.8 0-2-2.6.8-2.4 2.8-2.2 3.3.3zm314.6.9c2.8 2.5 4 8.8 1.9 9.5-1.3.5-7.3-7.8-7.3-10.1s2.5-2 5.4.6zM186 359.5c0 .4-.7 1.9-1.4 3.4-1.8 3.5-4.3 5.1-12.7 8.5-5 2-7.2 2.4-9.4 1.7-1.7-.4-3.6-.6-4.3-.4-1.7.7-4.2-1.6-4.2-3.7 0-1 2-3.1 4.7-4.9 4-2.7 5.6-3.1 11.7-3.2 3.9-.1 8.5-.5 10.1-.9 3.9-1 5.5-1.1 5.5-.5zm-42 6.6c0 .6.9 2.2 2 3.6 2.1 2.7 2.6 4.3 1.3 4.3-1.4 0-6.4-7-5.8-8 .8-1.3 2.5-1.3 2.5.1zm211.5 3.9c-.3.5-1 1-1.6 1-.5 0-.9-.5-.9-1 0-.6.7-1 1.6-1 .8 0 1.2.4.9 1zm-220.7 2.1c4 2 7.2 6 7.2 9.2 0 .7 1.1 2.4 2.5 3.7 2.1 1.9 2.5 3.2 2.3 6.9l-.3 4.6-10.5 6.3c-15.6 9.3-26.4 14.6-28.2 13.9-.9-.3-3.3-3.9-5.4-7.9-2.4-4.5-6.1-9.5-9.6-13l-5.8-5.6 4.2-2.4c5.7-3.1 13.8-6.2 14.5-5.4.4.3.1 1.8-.6 3.2-2.2 4.8.9 6.1 16.1 6.8 8.5.4 11.6-1 8-3.6-1-.7-3.1-3.2-4.7-5.6-3-4.6-5.7-5.8-11.1-4.9-6.2 1-2.8-3.2 5.1-6.2 6.4-2.4 11.2-2.4 16.3 0zm187.6 2.1c-1.7 1.8-4.3 5-5.8 7.1-2.2 3-3.1 3.6-4.1 2.7-1.8-1.5-8.7 2.2-10.6 5.6-.7 1.3-1.6 2.4-2.1 2.4-1.9 0-.5-2.1 4.8-7.1 3.1-3 7.6-7.3 10.1-9.7 3.3-3.1 5.2-4.2 7.5-4.2h3.2l-3 3.2zM463 372c0 .5-.4 1-1 1-.5 0-1-.5-1-1 0-.6.5-1 1-1 .6 0 1 .4 1 1zm-123 2.5c1.4.8 3.7 1.4 5.1 1.5 1.4 0 3.3.6 4.3 1.3 1.6 1.2 1.7 1.8.5 5.8-2 7.2-2.1 7.2-14.5 4.9-6-1.2-11.3-2.5-11.8-3-1.1-1.1 8-10.8 10.7-11.3 1.2-.2 2.4-.5 2.7-.5.3-.1 1.6.5 3 1.3zm49.6 4.7c4.9 2.3 9.6 4.7 10.4 5.4.8.6 4.7 2.8 8.5 4.9 3.9 2 7.8 4.4 8.9 5.3 2.8 2.6 4.8 7.2 4.2 9.6-.6 2.5-7.5 11.6-8.7 11.6-1.9 0-.8-4.8 1.6-7 3-2.9 2.9-6-.2-7.6-1.3-.6-3.1-1.8-4.1-2.7-4-3.7-18-12.8-23.7-15.6-3.4-1.6-6.7-3.6-7.4-4.4-1.4-1.8-6.3-1.3-9.6 1-2.2 1.5-7.4 1.8-5.9.3.5-.5 2.9-2 5.4-3.4 5.8-3.3 9.2-2.9 20.6 2.6zm-208-2c.8 1.3-6.8 8.8-9 8.8s-2.8-2.9-.8-4.5c5.6-4.6 6.8-5.4 7.9-5.5.6 0 1.5.5 1.9 1.2zm27.2 1c5 1.9 8.2 2.2 25.7 2.5 35 .7 39.9 1 40.3 2.2.2.6-.8 1.5-2.3 2.1-1.5.6-5.3 2.5-8.4 4.3-16.2 9.5-85.5 36.9-89.5 35.4-1.7-.7-5.7-14.8-6.1-21.5l-.4-5.8 7.5-6.5c8-6.9 21.5-14.9 25.2-14.9 1.2 0 4.8 1 8 2.2zm-39.8-.8c0 1.1-1.9 1.5-2.5.6-.3-.5.1-1 .9-1 .9 0 1.6.2 1.6.4zm134.1 2.6c-1.3 1.1-2.8 2-3.5 2-.6 0 0-.9 1.4-2 3.3-2.6 5.2-2.5 2.1 0zm184.4 0c.3.5.1 1-.4 1-.6 0-1.1-.5-1.1-1 0-.6.2-1 .4-1 .3 0 .8.4 1.1 1zm-371.7 4.5c0 2-.6 2.5-2.4 2.5-2.8 0-3.1-1.7-.6-3.6 2.5-1.9 3-1.7 3 1.1zm166.2.6c-9.5 6.1-20.3 11.7-35.2 18.3-2 .9-4 2.1-4.3 2.6-.3.6-1.3 1-2.1 1-.9 0-4.6 1.5-8.2 3.3-3.7 1.9-8.3 3.6-10.2 3.9-3.4.6-29.2 10.4-35.5 13.5-8.1 4-35.9 12.5-38.2 11.6-.8-.3-3.3.2-5.6 1s-8 2-12.7 2.6c-14 1.8-16 1.8-16 .4 0-.7 1.2-1.3 2.7-1.3 8.8 0 44.2-8.4 66.3-15.7 21.7-7.1 22.4-7.4 44.5-16.7 14.9-6.4 26.6-11.7 41.9-19.2 11.9-5.9 16.4-7.8 12.6-5.3zm208.4.7c.2.4-.9 2.2-2.5 4-3.3 3.6-4.7 2.6-3-2.1 1-2.6 4.3-3.7 5.5-1.9zm-61.3 3.4c2.1 1.7 3.9 3.9 3.9 4.9 0 1 .5 2.1 1.1 2.5.6.4.8 2 .5 3.8-.5 2.6-.1 3.7 1.9 5.6 1.4 1.3 2.5 3.2 2.5 4.2 0 2.3-.4 2.3-4-.3-2.8-2.1-3-2.1-5.5-.5-3.5 2.3-4.1 1.5-2.1-2.8 2.7-5.8 1.6-10.5-3.8-15.5-5.8-5.4-1-7.1 5.5-1.9zm12.4 2c0 4 .2 4.3 2.8 4.3 3.4-.1 3.4.8.1 3.4-3.4 2.6-4.4 2.6-4.4 0 0-1.1-.5-2.9-1.1-4-1.2-2.4-.2-7.9 1.4-7.9.7 0 1.2 1.7 1.2 4.2zm-150-1.6c0 1-6.3 6.6-21.3 18.7-8 6.5-21.2 15.1-32.7 21.2-15.8 8.4-16.6 8.8-31.5 13.8-7.4 2.5-15.2 5.2-17.2 6.1-4.6 2-5.8 2-5.8.1s-3.1-3.5-6.9-3.5c-1.6 0-3.3-.5-3.6-1.1-1.2-1.9.5-5.8 2.8-6.5 1.2-.4 4.5-1.8 7.2-3.1 5.2-2.5 10.3-4.6 32-13.3 16.3-6.5 46.8-20.1 55.9-24.9 3.8-2 9.2-4.8 12-6.3 5.2-2.7 9.1-3.2 9.1-1.2zm19.2 1.9c-.4.8-1.4 1.5-2.3 1.5-1.6 0-1.6-.2.1-2 2-2.2 3.1-2 2.2.5zm-224.8 6.3c5 4.8 7.8 8.5 9.6 12.7 1.5 3.3 3.3 7.2 4 8.6 1.1 2 1.1 2.9.3 3.7-2 2-2.5 1.5-5.8-4.9-1.7-3.3-4.7-8.6-6.8-11.7-4-6-6.7-7.6-16.2-9.1l-4.5-.7 3.6-1.6c2-.9 4-2.1 4.3-2.7 1.5-2.4 4.9-.8 11.5 5.7zm249.6-4.9c15.3 1.9 19.1 2.8 23.3 5.8 4.6 3.1 4.8 4.2 3.2 15.3-1.6 11.3-7.3 26.1-15.1 39.3-4.2 7-27.7 31.8-37.5 39.6-19.9 15.6-44.2 29.8-57.9 33.7-6.6 1.9-16.9 3.6-22.5 3.8l-4.5.1.1-3.5c0-1.9.7-5.7 1.4-8.3 1.1-3.8 1.2-5.2.2-6.7-.7-1.1-1.2-2.6-1.2-3.4 0-.8-1.2-5.2-2.6-9.8-3.7-11.8-14.7-27.7-18.2-26.3-.8.3-1.2 0-1-.7.3-.7 1.6-1.6 2.9-2 18.1-5 46.3-17.6 56.2-25.1 6.2-4.7 8.3-6.5 29.5-24.5 10.9-9.3 20.4-19.8 23.7-26.2 1.8-3.6.4-3.5 20-1.1zM451 392c0 .5-.4 1-1 1-.5 0-1-.5-1-1 0-.6.5-1 1-1 .6 0 1 .4 1 1zm15.6 4.3c3.5 2.4 5.6 5 8.1 9.9 3.4 6.6 6.1 8.8 10.7 8.8 2.2 0 9.3 6.6 8.3 7.6-2.5 2.5-20.2-9.2-25.2-16.7-2.9-4.4-6.7-5.3-8.5-1.9-.9 1.6-.6 2.4 1.6 4.2 7.2 6.2 7.2 7.6-.1 6.8-7.8-.9-13.9-10.7-10.5-17 1.3-2.4 5.7-4.9 8.6-5 1.2 0 4.3 1.5 7 3.3zM492 394c0 .5-.4 1-1 1-.5 0-1-.5-1-1 0-.6.5-1 1-1 .6 0 1 .4 1 1zm-197 1.3c0 .2-1.6 2-3.5 4-4.1 4.2-4.4 6.9-1.1 10.2 2.1 2.1 2.2 2.6 1 3.6-1.2 1-1.8.8-2.9-.8-1.2-1.7-2.2-1.9-6.5-1.5-2.7.2-5 .1-5-.4 0-1 8.1-8.3 13.9-12.6 3.9-2.8 4.1-3 4.1-2.5zm195.7 5.2c-.2.5-1 1.1-1.8 1.2-2.2.4-4.3-1.3-3.6-3 .5-1.3 1-1.4 3.1-.4 1.4.7 2.4 1.6 2.3 2.2zM150 401c0 .5-.9 1.4-1.9 2-1.1.5-2.6 1.7-3.5 2.5-.8.9-5.9 4.5-11.3 8-10.2 6.6-14.6 9.7-22 15.2-3 2.3-5.4 3.3-7.9 3.3-4.3 0-4.2-1.9.2-3.3 3.5-1.2 13.4-8.4 13.4-9.7 0-1 6.1-5.3 11-7.8 1.4-.7 6.1-3.5 10.5-6.2 7.7-4.7 11.5-6.1 11.5-4zm149.8.7c-2.4 4.9-3.2 6.3-4 6.3-1.4 0-.9-3.3.9-5.2 1.6-1.8 3.8-2.5 3.1-1.1zm-226.5 2.2c3.8 1.7 5.4 3.4 10.6 11.2 3.4 5.1 6.1 9.8 6.1 10.4 0 .6.5 1.6 1.2 2.3.9.9.9 1.8 0 3.7-.7 1.5-1 3.1-.7 3.6 1.2 1.8-2.2.8-4.1-1.2-1-1.1-2.7-2.5-3.6-3-2.3-1.2-9.8.5-17.3 4-11 5.1-13.3 5.6-16.4 3.3-1.9-1.4-3.2-1.7-4.2-1.1-2.7 1.7-4.5.9-5.7-2.4-2-5.7-1.7-6.5 3.4-7.3 3.8-.5 5.1-.3 7.5 1.5 3.8 2.8 5.9 1.5 5.9-3.8 0-4.9-2.2-7.8-7-9.2-2.2-.7-4-1.5-4-1.9 0-.4 4-2.4 8.8-4.4 4.9-2.1 10.2-4.6 11.8-5.7 1.6-1 3-1.9 3.1-1.9.1 0 2.2.9 4.6 1.9zm88.3.8c-1 1-1.9-.5-1-1.8.6-1.1.8-1.1 1.2 0 .2.7.1 1.5-.2 1.8zm335 2.7c.8 3.3-.3 5.1-2.2 3.5-2.2-1.8-1.7-5.9.7-5.9.5 0 1.1 1.1 1.5 2.4zM154 409.2c.6 1.8 1.3 7.2 1.6 12 .5 8.5.5 8.8-1.8 9.7-4.8 1.9-24.5 5.6-35 6.6-4 .4-4.9.2-5.8-1.6-.8-1.4-.8-2.4-.1-3.3.6-.7 8.3-6.1 17-12.1 8.8-5.9 16.8-11.6 17.7-12.6 2.6-2.9 5-2.4 6.4 1.3zm11 13.9c0 2.1-.4 4.1-1 4.4-.6.4-1-.6-1-2.3 0-1.6-.3-4.5-.6-6.3-.5-3.2-.5-3.3 1-1.5.9 1.1 1.6 3.7 1.6 5.7zm208.7-4.4c3 3.4 2.9 5.4-.3 8.4-3.6 3.4-5.5 7.5-4.8 10.3.4 1.7 0 2.8-1.7 3.9-1.4 1.1-2 2.2-1.6 3.6.3 1.4-.1 2.1-1.7 2.5-2.8.8-5.6 4.8-6.3 9.1-.8 5 1.7 7.5 7.3 7.5 2.4 0 4.6.4 4.9 1 1 1.6-1.4 8.6-3.6 10.6-1.7 1.4-2.3 1.6-2.6.6-1.1-3.1-4.7-5.2-8.9-5.2-3.6 0-4.6.5-6.6 3-1.3 1.7-3.8 4.6-5.5 6.5-3.8 4-4 5-1.3 6.5s2.5 5.2-.5 8.4c-2.8 3-5.1 3-4.8 0 .1-1-.6-2.4-1.5-3.1-1.6-1.2-1.4-1.5 1.3-3.8l3-2.5h-3.2c-6.8 0-9.8 9.8-4.2 13.9 1.5 1.1 4 2.1 5.6 2.1 1.5 0 4.1.1 5.8.1 2.1.1 3.7-.8 5.7-3 4.3-4.8 3.1-8.5-1.4-4.4-2.3 2-2.4.5-.1-2.6 1.3-2 1.4-2.7.4-4.4-.9-1.4-1-2.2-.2-3 .6-.6 1.1-2.3 1.1-3.8s.9-3.7 1.9-5c1.6-1.9 2.3-2.2 3.7-1.3 1 .6 2.2 2.4 2.6 4 .7 2.4.4 3.3-1.8 5.2-2.5 2.2-2.5 4.2.2 4.2 2.2 0 1.7 2.8-.8 4.1-2 1.1-2.1 1.2-.2 2.2 1 .5 2 1.1 2.2 1.2.1.1-.3 1.6-.9 3.4-.9 2.7-.8 3.5.6 5.1 1.7 1.9 1.7 2.2.1 6.3-.9 2.4-2.3 5.2-3 6.3-1.4 1.8-1.5 1.8-2.5-.9-1.7-4.3-1.3-5.7 1.5-6.7 3.8-1.5 2.7-4.2-1.9-5.2-4.5-.9-6.9.1-9.2 4-1.6 2.6-6.8 7-12.4 10.3-2.1 1.3-2.7 2.4-2.9 6.2-.2 2.5.3 5.7 1 6.9 1.4 2.5 2.1 9.8.9 9.8-.4 0-1.6-.9-2.6-2-2.4-2.6-4.7-2.5-9.8.4-3.4 1.9-5.4 2.3-10.4 2-4.4-.2-6.5.2-7.4 1.2-.6.8-2.5 1.4-4.1 1.4-4.4 0-17.8 6.7-17.8 8.9 0 1-1.1 2.3-2.5 2.9-3.1 1.4-3.2 2.6-.4 4.6 2.7 1.8 1.5 4-1.8 3.2-1.8-.5-3.1 0-5.3 2.3-1.7 1.6-3 3.8-3 4.8 0 1.1-.5 2.4-1.2 3.1-.9.9-1.8.6-4-1.5-3.8-3.6-3.7-5.4.2-4.7 2.1.5 3.1.2 3.6-.9.7-2-1.3-5.7-3.1-5.7-.9 0-2.3-.5-3.4-1.1-2.6-1.7-9.7-.3-8.1 1.5.6.8 1 2.7 1 4.2-.1 1.6 0 3.8.2 4.9.2 1.5-.4 2-3.4 2.6-2.1.3-4.7 1.4-5.8 2.4-1.6 1.4-2 1.5-2.4.4-1.3-4.1-1.3-7.8 0-11.4 1.2-3.6 1.2-4.1-.3-5.3-2.2-1.6-3.3-1.5-5.3.3-1.6 1.4-1.8 1.2-3.3-2.7-.9-2.4-1.7-8-1.9-12.6l-.3-8.2 4.5-.1c2.5 0 5.6-.2 7-.4 4.6-.6 18.5-4.5 21.2-6 1.4-.8 3.5-1.5 4.6-1.5 1 0 3.1-.9 4.5-2s3.1-2 3.9-2c.7 0 3.8-1.5 6.9-3.4 3.1-1.9 7.2-4.1 9.2-5.1 1.9-.9 4.3-2.5 5.3-3.6.9-1 2.2-1.9 2.7-1.9s2.8-1.5 5.1-3.3c2.3-1.9 5.1-3.9 6.2-4.5 3.2-1.7 15.7-12.4 19.4-16.5 1.7-2 3.7-3.7 4.4-3.7.6 0 1.9-1.2 2.8-2.8.9-1.5 3.2-4.4 5.2-6.4s3.6-4.2 3.6-4.7c0-.6.9-1.5 1.9-2.1 4.7-2.5 21.1-28.6 21.1-33.5 0-.8.4-2.3.9-3.3 1.9-3.5 5.1-11.2 5.1-12.2 0-1.7 1.3-1.1 3.7 1.7zm-107.6 1.4c-2.4 2-4.1 2.4-4.1 1.1 0-1 5.3-4.2 6-3.5.3.2-.6 1.3-1.9 2.4zm18.6-1.5c.1.5-1 1.8-2.6 2.9-1.6 1.1-5.9 4.6-9.7 7.7-5.8 5-17.5 12.8-19 12.8-1.3 0 1.1-7.8 3.1-9.9 2.1-2.2 2.4-2.2 4.7-.7 2.9 1.9 5.5 1.3 6.4-1.6 2-6.5 15.7-15.5 17.1-11.2zm161.8-.7c.3.5.1 1.2-.5 1.6-.5.3-1-.1-1-.9 0-1.8.6-2.1 1.5-.7zm-36.4 12.3c-.6 1.8-2.1 4.4-3.2 5.8l-2.1 2.5.6-3.5c.7-3.6 4.9-10.6 5.4-9 .2.5-.1 2.4-.7 4.2zm72.9-4.6c0 1.1-3.4 3.3-4.9 3.4-1.1 0-1-.5.4-2 1.7-1.9 4.5-2.7 4.5-1.4zm-231.8 3.7c-4.2 4.5-4.6 11.7-.7 11.7 2.2 0 1.8 1.7-.7 3.4-2.8 2-4.8 2-4.8.1 0-2-2.6-3.2-9.3-4l-5.7-.7 8.7-5c4.9-2.8 9.7-5.7 10.8-6.4 3.1-2.2 4.1-1.6 1.7.9zm179.4 2.4c4.2 4.5 4.4 6.9.7 7.6-1.6.3-3.8.8-5 1.2-3.2 1-3.1-2 .2-4.1 4.3-2.8 2.7-6-2.7-5.6-2.7.2-3.6-.7-2.1-2.1 1.8-1.8 5.7-.5 8.9 3zm49.4 1.8c-.7.8-1.7 1.2-2.3.8-.6-.4-.3-1.1.8-1.9 2.3-1.7 3.2-1 1.5 1.1zm12-.4c0 1.6-.4 1.9-2 1.4-1.2-.4-2.8-.1-3.6.6-1.6 1.3-3 .6-1.9-1.1.8-1.2 4.2-2.8 6.3-2.9.6-.1 1.2.8 1.2 2zm-112 6.1c0 2.9-2.5 6.1-4.4 5.5-.6-.2-1.2-2.2-1.4-4.4-.2-3.3.1-4.1 2-5 2.7-1.2 3.8-.1 3.8 3.9zM94 438c0 .5-.4 1-1 1-.5 0-1-.5-1-1 0-.6.5-1 1-1 .6 0 1 .4 1 1zm13 2.1c0 1-.4 1.9-.9 1.9-.4 0-2.5 1.1-4.5 2.5-4.6 3.1-4.7 1.2-.1-3.8 3.6-3.9 5.5-4.1 5.5-.6zM69.5 439c-.3.5-1.3 1-2.1 1s-1.2-.5-.9-1c.3-.6 1.3-1 2.1-1s1.2.4.9 1zm390.8 3.8c.9 2.1 1.7 5 1.6 6.3 0 1.9-.6 1.3-2.5-2.6-1.3-2.8-2.4-5.6-2.4-6.3 0-2.4 1.6-1.1 3.3 2.6zM73 443c-1.9 1-3.7 1.6-4 1.3-.9-.8 3.3-3.3 5.4-3.3 1.6.1 1.3.5-1.4 2zm-12 0c0 1.2-2.8 2.5-3.6 1.7-.9-.9.6-2.7 2.2-2.7.8 0 1.4.5 1.4 1zm429.1 1.8c-1 1.9-4.8 3.9-5.6 3-1.3-1.3 1-4.7 3.4-5 3.4-.4 3.5-.4 2.2 2zm-403-.2c1.1 1.4 1 1.8-.9 3.3-1.2.9-3 3.2-4 5.1-1.3 2.8-2.2 3.4-4.2 3.2-4.2-.4-5-1-5-3.7 0-3.1-2.9-3.4-5.5-.5-2.3 2.5-3.5 2.5-3.5.1 0-1.9 2.7-3.4 8.5-4.7 1.7-.4 4.8-1.5 7-2.5 4.9-2.3 5.9-2.3 7.6-.3zm77.9-.1c0 .8-.9 2.4-2 3.5-2.4 2.4-5 2.6-5 .5 0-.8.9-2.4 2-3.5 2.4-2.4 5-2.6 5-.5zm268.8-.3c.7.7 1.2 2.6 1.2 4.3 0 4.6 2.5 12.1 5.5 16.7 1.5 2.2 2.4 4.2 2.2 4.5-1.1 1-8.7-3.9-11.4-7.4-4-5-4.9-7.1-5.2-11.4-.4-5.5 4.6-9.8 7.7-6.7zM221 445c0 .5-.3 1-.7 1-.5 0-1.9.3-3.3.6l-2.5.5 2.5-1.5c3-1.8 4-2 4-.6zm275 4.9c0 2.1.5 5.2 1.1 6.9 1.7 4.8.7 6.1-2.4 3-2.1-2.1-2.7-3.7-2.7-6.8 0-4.6 1.6-8.4 3.1-7.5.5.4.9 2.3.9 4.4zm-348.6-3.3c3.1 1.2 1.6 2.4-2.9 2.4-2.5 0-4.5-.4-4.5-.9 0-1.7 4.5-2.6 7.4-1.5zm235.7 1.7c-1.3 1.3-2.6.3-1.6-1.2.3-.6 1.1-.8 1.7-.5.6.4.6 1-.1 1.7zM201 455.1l-6 6.1-8.1-.7c-7.7-.7-8-.8-5.3-2 2.8-1.3 19.2-7.8 22.4-8.8 3.1-1.1 2.8-.5-3 5.4zm35.4-4.6c-.2 1.4-14.7 7.6-15.7 6.6-1.5-1.5.4-3.9 4.6-6 4.2-2.1 11.3-2.5 11.1-.6zm-113.5 2c3 1.4 6 2.4 6.7 2.1.7-.3 3.4.2 6.1 1 4.5 1.4 7.6 1.4 17.1-.3 1.8-.3 3.2-.1 3.2.5 0 1.5-17.5 2.5-30.9 1.7-11.4-.7-11.9-.8-12.4-3.1-.9-4.9 2.4-5.5 10.2-1.9zm255.1 1.9c0 .5-.7 1.8-1.6 2.8-1.6 1.7-1.8 1.7-3 0-1.2-1.6-1.4-1.6-4.2.1-2.9 1.7-3 1.7-2.5-.3.4-1.5 0-2-1.6-2-3.2 0-2.5-1.3 1.7-3.1 3.3-1.4 4.1-1.4 7.4 0 2.1.9 3.8 2 3.8 2.5zm-276.5 1c1.7 1.3 2.6 2.8 2.2 3.2-1 1-3.6-.6-5.5-3.4-1.9-2.9-.4-2.8 3.3.2zm382.8 4.4c1.2.5 3 1.3 4 1.6 2.9.9 2 2.7-1 2-4.7-1.1-9.2-6.2-7.7-8.6.5-.8 1.1-.3 1.6 1.3.5 1.5 1.9 3.1 3.1 3.7zm-70.3-3.3c1.6 1.9 0 1.9-2.6 0-1.6-1.2-1.6-1.4-.3-1.5.9 0 2.2.7 2.9 1.5zm-201.4 2c2.4 1.9 1.6 2.5-8.1 6.1-3.8 1.4-9 3.4-11.5 4.4-7.9 3.2-24.2 7.2-25.2 6.2-1.2-1.2 5.6-6.4 8.5-6.4 1.2-.1 4.8.1 7.9.3 4.3.2 6.1-.1 7.6-1.4 1-.9 3.1-1.7 4.7-1.7 1.9 0 4.3-1.4 7.6-4.5 5.4-5 5.7-5.1 8.5-3zM170 463c-.8.5-2.6.9-4 .9-2.3-.1-2.3-.2.5-.9 4.3-1.1 5.2-1.1 3.5 0zm209-.2c0 .5-.7 1.7-1.5 2.8-1.4 1.8-1.4 1.7-.4-.9 1.2-2.7 1.9-3.4 1.9-1.9zm21.8 2.3l3.8 3.1-3.1 3.3c-4.8 5.1-6.4 5.6-9.9 3.1-1.7-1.1-3.3-2.2-3.6-2.4-.2-.2 1.5-2.1 3.8-4.2 2.3-2.2 4.2-4.4 4.2-5 0-1.6.9-1.2 4.8 2.1zm-273.8.8c1.8.8 9.7.6 21-.4l8.5-.8-4.4 3.4c-2.3 1.9-5 4.6-5.9 6.1-1.5 2.6-1.5 2.8.3 4.2 1.8 1.3 1.7 1.4-1.1 1.9-10.9 2.1-23.2 2.5-26.2.8-1.6-1-1.6-1 .1-1.1.9 0 1.7-.4 1.7-1 0-1.7 4.3-5 6.6-5 1.4 0 3.1 1.2 4.4 3 2.9 4.1 5.6 3.9 7.5-.7 1.4-3.3 1.4-3.8-.1-5.4-2-2.2-4.3-2.6-19.5-3.4-11.5-.6-11.7-.5-14.8 2-1.7 1.5-3.4 4-3.9 5.7-.9 3.7-5.2 6-5.2 2.8 0-3.7 3-9.5 6-11.6 2.7-1.9 4.1-2 13.3-1.6 5.6.2 10.9.7 11.7 1.1zm334.3 2.3c-1 1.1-1.9 1.5-2.1.8-.5-1.5 1.8-4.1 3-3.4.5.3.1 1.5-.9 2.6zm-39-.4c2.2 2.5 1.7 2.8-3.7 2.4-5.1-.4-5.8-1.3-2.3-3 3.2-1.5 4.2-1.4 6 .6zm30.7 0c0 1.2-.3 1.2-1.5.2-.8-.7-1.5-1.3-1.5-1.5 0-.1.7-.2 1.5-.2s1.5.7 1.5 1.5zm-292.2 6.7c1.3 2.9 1.1 3.1-5.3 3.9l-5 .7 4-3.5c2.2-1.9 4.3-3.5 4.6-3.6.3 0 1.1 1.1 1.7 2.5zm322.1-.6c5.4 5.4 6.1 11.8 1 9.1-2-1.1-4.5-1.5-13-1.9-.9-.1-1.9-1-2.2-2.1-.4-1.5-1.2-1.9-4.1-1.7-1.9.1-3.4-.3-3.3-.8.1-.6 1.7-.8 3.5-.7 1.8.2 3.9-.2 4.7-.8 1-.9 1.9-.8 3.6.1 2 1 2.5.9 3.8-.9 2-2.7 3.6-2.7 6-.3zm-367.7 2.5l1.6 3.4-4.1-.5c-6.9-.8-7.2-1-4.5-3.8 3.1-3.3 5-3.1 7 .9zm332.9-.7c1.3 1.6 1.2 1.7-.3.4-1-.7-1.8-1.5-1.8-1.7 0-.8.8-.3 2.1 1.3zm-30.3 1.9c3.4.7 2.8 3.4-.8 3.4-3.7 0-5 2.5-2.4 4.6 1.1.8 1.5 1.7.9 2-3.7 1.7-4 2.4-1.8 4.3l2.3 1.9-3 1.1c-4.9 1.6-3.6 3.5 4.1 6 8.3 2.7 8.6 3.6.7 1.9-5.5-1.2-8.8-.7-8.8 1.2 0 .6 1.2 1.5 2.8 2 5.7 2.1 10.2 4.3 10.2 5.1 0 .4-1.6.1-3.5-.7-5.1-2.1-13.5-1.7-13.5.6 0 .5 1.5 1.2 3.3 1.5 3 .7 10.7 4.2 10.7 4.9 0 .1-2.4-.2-5.4-.7-5.4-1-8.6-.6-8.6 1.2 0 .5 1 1.3 2.3 1.6 1.2.4 4.6 2.1 7.5 3.7 4.9 2.8 5.2 3.2 3.8 4.6-1.4 1.4-1.8 1.3-4.1-1.2-2.4-2.6-3-2.8-7.9-2.2-5.2.6-5.3.5-6.7-2.7-1.1-2.6-1.9-3.2-4.3-3-1.6.1-3.7 1-4.7 1.9-1.4 1.2-2.4 1.4-4.6.7-3.9-1.3-3.8-4.7.2-5.1 1.7-.2 3.6-.8 4.3-1.4 1.8-1.6 1.4-4.6-.8-5.3-2.9-.9-1.8-5.1 5.1-19.1l6-12.1 4.7-.9c4.5-.9 6.9-.9 12 .2zm-51.8 9.8c2 2 1 3.6-2.1 3.6-3 0-3.1-.1-2.5-3.4.4-1.9.2-3.7-.3-4.1-.7-.4-.6-1.5.2-3.2l1.2-2.6 1.2 4.3c.7 2.4 1.7 4.8 2.3 5.4zm128.1-1.1c-.1 1.2-1.5.9-1.9-.4-.3-.6.1-1 .8-.8.6.3 1.1.8 1.1 1.2zm-67.5 2.8c.3.5.1.9-.5.9-1.7 0-4.1-1.2-4.1-2 0-1 3.8-.1 4.6 1.1zm21.5 3.3c.9.4 2.2.6 2.9.4.7-.2 1.5.3 1.8 1.1.4 1.1-.3 1.2-3.4.7-4.1-.8-8.2-3.5-4.7-3.1 1 .1 2.5.5 3.4.9zm40.1 1.3c3 3.3 6.8 10.5 6.8 13 0 1 .7 3.1 1.5 4.7.8 1.5 1.4 4.7 1.4 7l-.2 4.1-.6-4c-.4-2.2-1.2-4.9-1.8-6-1.2-2.1-7.3-7.8-11-10.3-2.7-1.7-2.9-2.8-.8-4.8.9-1 1.3-2.4.9-4-.8-3.2.6-3 3.8.3zm-63.2 1.8c2.2 1.3 2.3 1.4.5 1.4-1.1 0-3.3-.6-5-1.4-2.9-1.3-2.9-1.3-.5-1.4 1.4 0 3.6.6 5 1.4zm36 .5c0 .5-.2 1-.4 1-.3 0-.8-.5-1.1-1-.3-.6-.1-1 .4-1 .6 0 1.1.4 1.1 1zm-27 5c1.3.8 1.3 1-.2 1-.9 0-2-.5-2.3-1-.8-1.3.5-1.3 2.5 0zm.7 7.5c2 .8 3.4 1.7 3.1 2-.6.7-7.6-1.4-8.3-2.5-.9-1.4 1-1.2 5.2.5zm21.8 1.5c-1 1.1-2.3 2-2.8 2-.6 0-.2-.9.8-2s2.3-2 2.8-2c.6 0 .2.9-.8 2zm-21.7 6.7c1.2.7 2 1.9 1.6 2.5-.4.7-1 .5-1.5-.5-.5-.8-2.3-1.8-3.9-2.2-1.6-.4-3.2-1.1-3.6-1.6-.8-1.3 4.5-.1 7.4 1.8zm-90.8 2.8c1 2.4 2.9 5.8 4.1 7.4 1.5 2 1.9 3.5 1.4 4.8-.5 1-1 6.1-1.1 11.3-.2 9.6-1.9 17-4 17-3.7 0-13.4-23.8-13.4-32.8 0-3.5.6-4.5 4.6-8.1 2.6-2.3 5.1-4.1 5.6-4.1s1.7 2 2.8 4.5zm87.2 2c4.7 0 3.5 1.2-3 2.9l-5 1.4-.4-3c-.4-2.8-.3-2.9 2.1-2.2 1.4.5 4.3.8 6.3.9zm-39.4 11.7c3.3 6.2 4 8.3 3 8.9-2.1 1.4-2.7 1-3-1.9-.4-3.9-3.6-3.5-6.6.8l-2.5 3.5.7-3c.4-1.7 1.9-4.2 3.3-5.7 2.5-2.6 2.4-4.8-.1-4.8-.8 0-1.6-.9-1.9-2.1-.4-1.4-1-1.8-1.9-1.3-1 .6-1 .4.1-.9 2.7-3.3 4.6-1.9 8.9 6.5zm54.7-6.3c1.5.6 1.1.9-2 1.4-2.2.4-5.5.7-7.2.7-4.4 0-11.2 2.7-14.3 5.6-2.1 2.1-2.3 2.7-1.3 4.4.7 1 1 2.6.7 3.3-.8 2.3 2.6 2.9 5.5 1 3.6-2.5 15.1-6.2 15.7-5.1 1 1.6-1.8 3.8-4.6 3.8-1.5 0-4.4 1.1-6.4 2.5-2.7 1.8-5 2.5-8.5 2.5-4.8 0-8.4 2.1-6.1 3.5.5.3 1 1 1 1.6 0 1.4-2.6 1.1-4-.6-2-2.4-5-1.7-8.4 1.9-2.7 2.9-3.6 3.3-6.6 2.9-4.3-.7-6-1.9-6-4.5 0-1.6.5-1.9 2.9-1.3 2.4.5 3.4.1 6-2.7 2.9-3.1 3.2-3.2 6.4-2 4.7 1.7 6.4 1.5 8.1-1 1.1-1.5 1.4-3.4 1-5.8-.9-5.5 2.4-8.8 11.2-11 7.4-1.9 13.7-2.3 16.9-1.1zm-36.8 2.7c4.9 1.9 4.7 3.9-.2 3-3.7-.7-8.5 1-8.5 3 0 .8 1.1 2.1 2.5 3 2.3 1.5 2.6 3.4.4 3.4-1.8 0-4.9-4-4.9-6.5 0-1.4.8-2.9 2-3.5 1.1-.6 2-1.7 2-2.5 0-1.9 1.4-1.9 6.7.1zm45.9 3.2c-1.7 1.6-1.8 1.6-.5-.5.7-1.2 1.5-2 1.8-1.7.3.2-.3 1.2-1.3 2.2zm-15.4 2.1c-2.4.9-5.8 1.5-7.5 1.3-2.8-.4-2.9-.6-1.2-1.8 1.1-.8 4.2-1.4 7.4-1.3h5.6l-4.3 1.8zm57.5 5.3c-.2 1.3-.4.3-.4-2.2s.2-3.5.4-2.3c.2 1.3.2 3.3 0 4.5zm-44.6-2.5c-1.2 2-1.4 1.4-.5-1.2.4-.9.9-1.4 1.1-1.1.3.2 0 1.3-.6 2.3zM91.5 537c-.3.5-1 1-1.6 1-.5 0-.9-.5-.9-1 0-.6.7-1 1.6-1 .8 0 1.2.4.9 1zm282.9 2.2c-.4 1.8-1.7 4.1-3 5.1-3.8 3-2.7 9.4 2.5 14.1 1.7 1.6 3.1 1.8 8.1 1.3 3.4-.3 5.8-.1 5.4.4-.3.5.2.6 1 .3 1-.4 1.8.1 2.2 1 .5 1.3.9 1.4 2 .5 2.4-2 1.5.6-1 3-2.4 2.2-2.4 2.2-9.2.5-9.5-2.3-12.9-4.1-11.4-5.9 1-1.2.4-2.3-2.7-5.9-3.4-3.9-4-5.2-4.1-9.3 0-5.9.4-6.6 2.8-5 1.7 1 2.3.8 4.2-1.1 3.1-3 3.9-2.8 3.2 1zm111.6.8c1.1.7 1.2 1.2.3 2.1-1.5 1.5-4.7.7-5.1-1.4-.4-1.9 2.3-2.3 4.8-.7zm-390 1.5c0 .2-1.1 1.2-2.5 2.1-3 1.9-5.8.8-3-1.3 1.8-1.2 5.5-1.8 5.5-.8zm303 3c0 .8-.4 1.5-1 1.5-.5 0-1-.7-1-1.5s.5-1.5 1-1.5c.6 0 1 .7 1 1.5zm94.6 3.9c-1.8 5.8-5.4 11.4-11.5 17.9-5.6 5.9-9.4 8-18.9 10.1-10.3 2.3-18.8 1.4-24.2-2.8-2.2-1.6-4-3.4-4-3.8 0-1.2 2.9-1 6.6.4 2.5.9 5.3.9 11.1.1 14.3-1.9 32-12.5 38.7-23.1 1.5-2.4 2.9-4.2 3.2-4 .2.3-.2 2.6-1 5.2zM117 546c0 .5-.4 1-.9 1s-1.7.3-2.5.6c-1.2.5-1.5.2-1-1 .7-1.7 4.4-2.2 4.4-.6zm213.4 3.9c-.9 1-3.6-2.8-2.9-3.9.6-.9 1.2-.6 2.1 1.1.7 1.3 1 2.6.8 2.8zm-33.2 1.7c1.2 9.3 6.7 23.3 10.4 26.5 2.6 2.3 10.7 5.4 17.7 6.9 3.1.6 5.7 1.5 5.7 2 0 .4-1.9 4.5-4.2 9-2.4 4.5-4.7 9-5.3 10-.5 1.1-1.9 2-3 2.2-1.7.3-2 .9-1.7 4.8l.3 4.4-2.4-2.2-2.4-2.3-3.7 2.3c-3.2 2-3.6 2.7-3.1 5.3.3 1.6 1.5 4.3 2.6 5.8s1.8 3.3 1.6 4c-.2.7-1.9-1.2-3.7-4.1-3.2-5.1-6.2-6.7-7.3-3.8-.3.7 1 3.5 2.9 6.1 1.9 2.7 3.4 5.5 3.4 6.2 0 3-3.6.5-7.3-5-2-3.1-4.2-5.7-4.8-5.7-2.1 0-2.2 3.5-.1 7.2l2.1 3.8-4 2c-2.4 1.3-4.8 1.8-6.3 1.4-3.6-.9-8.9 3.3-8.1 6.4.4 1.5.2 2.1-.5 1.7-.5-.3-1-1.2-1-1.9 0-.8-.7-1.9-1.5-2.6-2.4-2-4.7.4-3.4 3.6 1.3 3.5 1.1 4.4-.6 4.4-.9 0-2.4-1.3-3.3-3-1.8-3.2-3.3-3.7-5-1.7-.9 1-.7 1.9.4 3.6 1.7 2.3 1.3 3.8-.5 2.6-.6-.3-1.1-1.4-1.1-2.4 0-2.8-2.6-4.6-4.4-3.2-1.1.9-1.2 2-.5 4.4 1.3 4.5 1.2 4.5-1.8.9-2.5-3-3-3.2-4.7-1.9-1.8 1.3-1.8 1.5-.1 4.1 2.6 3.9.8 4.6-2.3.9-2.7-3.3-4.3-3.3-5.5-.1-.4 1.1-1.3 1.5-2.6 1.1-2.1-.5-2.5.2-2.1 4.2.2 1.9.1 1.9-2.3-.3l-2.5-2.4-1.7 2.5c-1 1.6-2.2 2.3-3.5 2-1.2-.3-2.4.3-3.4 2-1.2 1.7-2.3 2.3-4 2-1.8-.4-2.6 0-3.1 1.7-.5 1.6-1.3 2-2.7 1.7-1.3-.4-2.7.3-4.1 2-2.9 3.3-6.2 5.2-5.4 3 1.1-2.8-1.6-3.8-4.7-1.8-2.9 2-9.6 10.7-9.6 12.6 0 1.6-16.7 16.3-21 18.5-8.5 4.3-32.8 10.9-35 9.5-.6-.4-2 .1-3 1-1.2 1.1-2.6 1.4-3.9 1-1.7-.5-2.1-.2-2.1 1.4 0 1.4-.6 2.1-2 2.1-1.1 0-2.8.4-3.8.9-.9.5-2.5 1.2-3.4 1.5-1 .3-1.8 1.5-1.8 2.7 0 1.8-.4 2-2.5 1.5s-2.7-.2-3.5 1.9c-.5 1.4-1.6 2.5-2.4 2.5-.7 0-1.9.7-2.6 1.5-.7.9-2.1 1.3-3.4.9-2.4-.6-6.1 2.7-6.8 6.1-.3 1.5-1 1.9-3.1 1.7-2.3-.2-2.7.1-2.7 2.1 0 3.3-2.4 5.1-7.3 5.6-.4.1-.7.9-.5 1.8.2 1.3-.3 1.7-1.9 1.5-2.8-.4-3.8 1.4-2.1 3.6 1.2 1.5 1.1 1.6-.4.3-1-.7-2.5-1-3.4-.7-1.6.6-1.6.8 0 2.4.9 1 1.6 2.6 1.6 3.5 0 2.4-7.1 9-12 11.2-4 1.8-4.5 1.8-8.9.3-2.5-.9-6.8-2-9.6-2.4-3.1-.4-5.5-1.4-6.3-2.6-1.7-2.4-3.2-1.5-2.4 1.5.5 2 .4 2.1-1.1.8-1.7-1.4-2.1-1-1.8 2.1.4 3.3-1.6 1.9-7.4-5.2-3.1-3.8-6.9-7.9-8.4-8.9l-2.6-2 2.9-1.1c1.7-.6 5.2-.8 8.7-.4 5.1.6 6.4.3 11.1-2.1 2.9-1.5 6.4-3.7 7.8-4.9 1.4-1.1 4.6-2.9 7-3.9 2.5-1.1 6.5-2.8 8.9-3.9 5-2.2 26.2-16.7 39.1-26.7 4.7-3.6 11.6-9 15.5-11.9 3.8-2.9 8.1-6.9 9.5-9 3.2-4.6 27.6-23.9 31.2-24.6 1.8-.3 3.4-1.9 5-4.7 2.2-4.2 9.7-9.6 20-14.7 2.1-1 11.6-9.3 21.2-18.3 22.3-21.1 30.3-27.9 32.7-27.9 3 0 6.2-3.8 5.5-6.5-.4-1.6.2-3.2 1.9-5.3 1.4-1.7 3.1-4.8 3.9-6.9 1.7-5 3.6-4.8 5.4.5.7 2.3 2.7 5.5 4.3 7.1 4.3 4.4 13.5 9.4 15.8 8.6 2.4-.7 3.7 1 1.4 1.9-4.7 1.9 8.5 4.8 21.7 4.9 6.6 0 18.1-1 18.8-1.7 1.1-1.2-1-5.7-3.5-7.3-1.5-1-5.8-4.8-9.5-8.6-3.8-3.7-7.1-6.7-7.6-6.7-.4 0-1.9-2-3.4-4.4-3-4.6-3.3-7.6-2.2-19.8.6-6 .9-6.8 3.3-7.7 7.4-2.8 8.5-2.4 9.3 3.5zM383 547c0 .5-.5 1-1.1 1-.5 0-.7-.5-.4-1 .3-.6.8-1 1.1-1 .2 0 .4.4.4 1zm-72.3 2.6c.3.9-.2 3.1-1.1 5-1.7 3.7-.9 4.9 3 4.2 1.5-.2 1.8.2 1.6 2.4-.4 3.4 2.2 8.5 4.7 9.3 3.1.9 3.3 3.3.5 5.2-3.2 2.1-7.3.9-9.1-2.7-3-5.8-6.6-16.7-6.7-19.9-.1-2.9.3-3.6 2.4-4.2 3.8-1.1 4-1 4.7.7zM470 551c-2 1.3-4 1.3-4 0 0-.6 1.2-1 2.8-1 2.1 0 2.4.2 1.2 1zm-14.8 5.2c-.7.7-1.2.8-1.2.2 0-.6.3-1.4.7-1.7.3-.4.9-.5 1.2-.2.2.3-.1 1.1-.7 1.7zm-371.9 1.4c.5.5-4.4 10.8-5.8 12.3-.8.8.7-9.3 1.7-11.2.9-1.7 2.9-2.3 4.1-1.1zm254.6 2.5c.9 2.7.9 3-.4 1.9-.8-.7-1.5-2.1-1.5-3.1 0-2.8.7-2.3 1.9 1.2zm25.1-.6c1 1.3 1 1.9-.2 3.3-.8.9-2.9 4.2-4.5 7.2-6.3 11.4-8 14-8.8 13.3-.4-.5-.5-.2-.1.4.8 1.4-2.3 7.3-3.7 7.3-.5 0-.7.6-.4 1.4.3.8-.2 2.5-1.1 3.8-1 1.3-2.7 4.3-3.7 6.8-4.8 10.8-13.5 27.3-16.1 30.4-1.6 1.9-3.7 3.5-4.6 3.5-2.2.1-2.4-1.5-.4-2.2.8-.3 3.1-3.8 5-7.8 2-4 4.2-7.9 5-8.8.8-.9 2.6-4.5 4.1-8.1 3.8-9.1 10.3-21.8 13.5-26.5 1.5-2.2 3.9-6.4 5.4-9.3 1.4-2.8 3.1-5.2 3.7-5.2.5 0 .8-.4.4-1-.6-.9 3.5-9.9 4.6-10 .4 0 1.2.7 1.9 1.5zm-270 4.9c.7 1.4 1 3.1.7 3.9-.7 1.8-11.6 11.1-12.2 10.5-.7-.7 8.4-16.8 9.4-16.8.4 0 1.3 1.1 2.1 2.4zm328.5-1.4c.3.5.1 1-.4 1-.6 0-1.1-.5-1.1-1 0-.6.2-1 .4-1 .3 0 .8.4 1.1 1zM221 566.1c0 1.1-.4 1.7-1 1.4-.5-.3-1-1.3-1-2.1s.5-1.4 1-1.4c.6 0 1 .9 1 2.1zm120.4-.5c.9 2.4.7 2.8-.9 1.4-1.7-1.4-2-3-.6-3 .5 0 1.2.7 1.5 1.6zm76.4 5.1c.3 1.7-.3 2.6-2.3 3.3-4.3 1.7-5.7 1.3-4.9-1.3 1-3.4 2.5-4.8 4.8-4.5 1.3.2 2.2 1.2 2.4 2.5zm-313.3.2c.6 1-2.5 3.1-4.6 3.1-.8 0-.5-.7.6-2 2-2.2 3.1-2.5 4-1.1zm122 3.3c.4 1.8.9 4.1 1.1 5 .4 1.5.1 1.5-2.6.5-3.2-1.2-3.5-2.1-2-6.1 1.3-3.5 2.7-3.3 3.5.6zm142.5.5c1.6 1.1 4.7 1.8 8.8 1.9 3.5.1 6.9.7 7.5 1.4.9.9.5 1.1-1.8.6-2-.4-3.7-.1-5 .8-1.9 1.4-1.9 1.5-.2 3.3.9 1.1 1.7 2.4 1.7 2.9 0 1.2-5.1 9.1-10.4 16.1-3.5 4.6-4.2 5.1-7 4.6-4.6-.7-6.5 1.7-4.1 5.3 1.7 2.6 1.7 2.9-.1 5.8-1 1.7-4.1 6.1-6.8 9.8-2.8 3.7-6.7 9-8.6 11.7-2.3 3.3-4.6 5.4-6.9 6.2-2.9 1-3.2 1.4-2.7 4 .3 1.8 0 3.4-1 4.4-1.4 1.3-1.9 1.3-5.5-.5-4.1-2.2-4.9-4-2.4-6 .8-.7 1.5-2.5 1.5-3.9 0-1.7 2.6-6.8 6.3-12.7 3.5-5.4 11.2-19.4 17.2-30.9 11.1-21.6 14.1-26.5 16-26.5.6 0 2.2.8 3.5 1.7zm56 4.3c0 1.1-.7 2.3-1.5 2.7-2.1.8-2.8-.1-2-2.6.8-2.7 3.5-2.7 3.5-.1zm-165.6-.4c2 .8 2.3 8.4.3 8.4-1.7 0-5-5.7-4.3-7.6.6-1.5 1.6-1.7 4-.8zM324 580c0 .5-.2 1-.4 1-.3 0-.8-.5-1.1-1-.3-.6-.1-1 .4-1 .6 0 1.1.4 1.1 1zm134.5 9.7c-1.4 8.5-6.2 25.2-9.7 34-2.1 5-4 6.9-5.9 5.8-1.1-.8 0-9.3 1.8-12.8.7-1.5 1.8-5.7 2.3-9.5 1.6-12.1 3.9-23.4 5-24.8 1.2-1.3 6-2.4 7.1-1.4.4.3.1 4.2-.6 8.7zm6-1.2c-1.6 8.4-2.5 10.6-2.5 6 0-3.1 3-14.8 3.7-14.2.2.2-.3 3.9-1.2 8.2zm-24.4-5.3c.3 6.4-.3 10.6-3.2 22.3-1.2 4.9-2.4 10.7-2.6 12.7-.3 2.4-1 3.8-1.9 3.8-1.8 0-1.8-.9.1-5.4.9-2 1.4-4 1.1-4.4-.2-.4.4-4.1 1.6-8.2 1.1-4.1 1.9-9.8 1.9-12.5-.1-6.1.7-10.5 2-10.5.5 0 .9 1 1 2.2zm-208.1.3c.7.9.8 1.5.2 1.5-.5 0-1.2-.7-1.6-1.5-.3-.8-.4-1.5-.2-1.5s.9.7 1.6 1.5zm-13.7 3.2c-.3 2.1.3 3.5 2.6 5.7 1.7 1.7 3.1 3.3 3.1 3.8 0 1.6-2.3.7-4.6-1.7-4.6-5-7.1-1.6-2.8 4 2.2 2.9 2.5 3.8 1.5 4.8-1 .9-1.6.8-2.5-.7-.6-1.1-2.1-3-3.3-4.3-1.3-1.3-2.3-2.6-2.3-2.9 0-.5 8.1-11.4 8.4-11.4.2 0 .1 1.2-.1 2.7zm176.5 2.3c.3 2.1.2 2.2-1.2 1.1-1.9-1.6-2.1-4.4-.3-3.9.6.3 1.4 1.5 1.5 2.8zm-165-.6c.7.8-1.2 3.6-2.4 3.6s-3.4-2.9-3.4-4.5c0-.6 5.1.2 5.8.9zm38.4 2.8c-.6.6-1.6.7-2.2.3-.9-.6-.9-.9.1-1.6 1.7-1 3.4 0 2.1 1.3zm116.8.4c0 .8-.5 1.2-1 .9-.6-.4-.8-1.1-.5-1.6.9-1.4 1.5-1.1 1.5.7zm22.4 10.3c2.3 2.5 2 5.6-.7 7.4-1.7 1.1-2.7 3.2-3.7 8.1-.8 4.1-1.9 6.6-2.7 6.6-1.6 0-1.7-2.1-.1-7.2 1-3.3.9-4.1-.2-4.8-.9-.6-2-.4-3 .5-.8.7-2.6 1.1-4.1.8-1.6-.3-3 .1-3.8 1.1-.8.9-2 1.6-2.9 1.6-.8 0-2.4.7-3.4 1.7-1.5 1.4-1.8 1.4-1.8.1 0-.8 3.9-5 8.8-9.3 4.8-4.3 9.8-9.4 11.2-11.4l2.5-3.7 1.1 3.4c.7 1.8 1.9 4.1 2.8 5.1zm17.6-3.3c0 1.3-.4 2.4-.9 2.4-1.3 0-2.4-3.7-1.6-5 1-1.6 2.5-.1 2.5 2.6zm-45 .9c-.7.8-1.7 1.5-2.2 1.5-.6 0-.5-.7.2-1.5s1.7-1.5 2.2-1.5c.6 0 .5.7-.2 1.5zm-169.2 4.1c2.4 3.7 2.3 6.8-.1 5.8-2.2-.8-5.9-6.4-5.3-8 .9-2.4 3-1.6 5.4 2.2zm83.5-2.9c-.7.2-1.9.2-2.5 0-.7-.3-.2-.5 1.2-.5s1.9.2 1.3.5zm167.2 3.5c-1.1 6.7-7.2 24.2-9.1 26-1.8 1.9-2.2-.7-.5-4 1-2 3.3-8.4 5.1-14.2 1.8-5.8 3.4-10.8 3.7-11.3 1.1-1.8 1.4-.3.8 3.5zm-31.8 0c-.3.7-.5.2-.5-1.2s.2-1.9.5-1.3c.2.7.2 1.9 0 2.5zm-224.9 6.1c1.2 1.3 1.9 2.6 1.6 3-.7.7-6.4-3.3-6.4-4.5 0-1.6 2.7-.8 4.8 1.5zm223.9-.1c-.3.8-.6.5-.6-.6-.1-1.1.2-1.7.5-1.3.3.3.4 1.2.1 1.9zm-17.2 3.6c-.2.9-.7 3.4-1 5.4-.9 5.9-2.9 4.7-2.2-1.2.3-2.8.9-5.5 1.2-6 1-1.5 2.4-.2 2 1.8zm5.7 1.7c-.2 1.4-.8 2.5-1.3 2.5-1 0-1.2-2.1-.3-4.4.9-2.4 2.2-1 1.6 1.9zm9.8 3c-.7 3-1.7 5.5-2.3 5.5-.5 0-.6-.8-.2-1.8.4-.9.9-2.4 1.1-3.2.1-.8.6-2.8.9-4.4.3-1.5.9-2.6 1.2-2.2.3.3 0 3.1-.7 6.1zm-226.6-2.6c1 1 1.3 2.2.8 2.5-1.2.7-5.4-2.3-4.7-3.5.9-1.4 2-1.1 3.9 1zm194 3.8c-.7 4.2-1.9 6-2.8 4.5-.6-1 2-8.2 3-8.2.3 0 .2 1.7-.2 3.7zm-199.4 2c1.8 2.4 1.9 2.8.6 4.2-1.4 1.3-1.7 1.3-3.4-.2-3.5-3.2-6.7-1.1-3.6 2.4 1.3 1.5 1.5 2.2.6 3.1-.9.9-1.7.6-3.5-1-1.3-1.2-2.8-2.2-3.5-2.2-2.1 0-2.4 2.1-.6 4.1 2.3 2.5 1 3.7-1.6 1.4-2.8-2.5-4.9-.7-3.3 2.8 1.6 3.4.2 5.1-3.5 4.2-3.4-.7-5 .8-3.1 3.1 1.5 1.8.3 3.2-1.3 1.6-2.2-2.2-3.8-1.3-3.8 1.9 0 2.4-.4 3-1.5 2.5-.8-.3-2.2-.9-3-1.2-.9-.4-1.5 0-1.6.7-.1.8-.2 1.9-.3 2.4-.1 1.3-7.7 8.7-13.4 13.2-4.6 3.6-5.9 3.5-9.5-.5-1.8-2-1.8-2.1.1-3.1 1.4-.7 2.5-.6 4.1.5 1.7 1.2 2.5 1.3 3.6.4 1.3-1.1 1.2-1.6-.5-4-1.1-1.6-2-3.3-2-3.9 0-2 1.7-1.2 2.8 1.4 1.2 2.5 3.6 3.3 4.7 1.5.3-.5-.4-2.8-1.5-5.1-2.2-4.3-2.2-6.1 0-3.4 1.4 1.7 4 2 4 .6 0-.5-.5-2.2-1-3.7-1.3-3.4.1-5.4 2.5-3.4 2.5 2.1 4.4-.4 2.1-2.9-1.6-1.8-1.6-1.9.7-1.9 1.4 0 4.5-1.4 7-3.1 2.5-1.7 4.9-3.1 5.3-3.1.4 0 2.3-1.2 4.2-2.7 1.9-1.4 4.9-2.9 6.6-3.2 1.7-.4 3.1-1.2 3.1-1.8 0-2 1.8-3.1 5.5-3.6 1.9-.2 4-.5 4.7-.5.6-.1 2.1 1 3.3 2.5zm167.9 0c-1.3 1.6-2.5 3-2.6 3.2-.2.2-.5.2-.8-.1-.7-.7 3.4-5.8 4.7-5.8.7 0 .1 1.2-1.3 2.7zm-49.1 1.1c.6 1.8-1.5 1.4-2.2-.4-.4-1-.1-1.4.6-1.2.6.2 1.4 1 1.6 1.6zm146.7 5.2c-2.3 4.4-3.1 3-.9-1.6 1-2 2-3.2 2.2-2.6.2.6-.4 2.5-1.3 4.2zM313 640.4c0 1.7 2.5 2.7 4.7 1.9 1.3-.5 1.5-.3.8 1.3-.4 1-.9 4.6-1.1 7.8-.3 7.2-.5 8-5.5 23.6-5 15.8-4.8 15.6-8.9 14.1-1.8-.6-5.4-1.2-7.9-1.3l-4.6-.1 4.2-.4c2.3-.2 4.6-.9 5.1-1.6 2.4-2.9 7.4-20.7 7.9-27.8.5-7.4.5-7.7-1.9-9.3-4.7-3-8.9-3.8-11.7-2-5 3.2-10.1 10.6-10.1 14.7 0 1.9-.4 2.7-1.2 2.5-2.5-.9-1.8-4.4 2.2-11 2.2-3.7 4-7.3 4-8.1 0-3.1 2.4-3.7 10.1-2.7 10.2 1.3 10.6 1.3 11.2-1 .6-2.3 2.7-2.7 2.7-.6zm-13.1 12.2c.7.6-6.2 6.3-7.6 6.4-1.7 0-1.6-1.5.3-5.1 1.3-2.6 1.9-3 4.2-2.4 1.5.4 2.9.9 3.1 1.1zm41.5 0c.4.9-.1 2.9-1.1 4.3-.9 1.4-2.3 3.7-3 5.1-1 1.9-1.3 2-1.3.7 0-.9-.5-2.5-1.1-3.5-.9-1.4-.5-2.4 1.8-4.9 3.2-3.7 3.8-3.9 4.7-1.7zm-13.5 9.3c1.9 1.8 2.9 3.5 2.5 4.5-.8 2.1 1.4 8.3 3.5 9.8 1.3.9 2 3.1 2.3 7.1.4 5.5.3 6-2 7-2.1 1-2.7.9-3.6-.8-2.1-3.7-6.4-7.4-9.2-8-5.4-1.2-5.3-1-3.4-6.7 3.2-9.5 4-12.4 4-14.1 0-2.5 2.4-2 5.9 1.2zm-27.1 6.5c-2.9 10.9-4.5 13.9-7 13.3-3.2-.9-16.4 1.7-23.4 4.5-3.3 1.4-8.5 4.2-11.5 6.2s-5.5 3.2-5.7 2.8c-.4-1.2 16.5-18.4 20.1-20.6 1.6-1 5.8-2.9 9.5-4.2 3.6-1.4 9.1-4.3 12.1-6.5 7.1-4.9 8.1-4.1 5.9 4.5zm-167.8-.2c3.1 3.4 3.8 5.8 1.8 5.8-2.1 0-7.6-6.8-6.4-8 1.4-1.4 1.2-1.4 4.6 2.2zm-5.6 6.1c2.7 4 .8 5.5-2.8 2.2-4.1-3.8-6.7-.5-2.9 3.7 1.5 1.7 1.5 2 .1 3.4s-1.8 1.3-4.3-2c-1.5-1.9-2.5-3.9-2.3-4.5.7-1.8 9.3-7.7 9.8-6.7.3.6 1.4 2.4 2.4 3.9zm-13.6 10.3c2.5 4 2.7 5 1.1 5.9-2.7 1.7-7.5-6.5-5.2-8.8 1.1-1.2 1.7-.7 4.1 2.9zm-7.6 5.9c1.6 1.4 3.8 2.5 4.9 2.5 2.6 0 2.4 1.5-.3 2.7-2 .9-2.8.6-5.6-2-3-2.9-3.5-3-5.5-1.8-2.1 1.3-2.1 1.2.2-1.3 1.4-1.4 2.6-2.6 2.9-2.6.2 0 1.7 1.1 3.4 2.5zm-8.3 9.7l2.4 4.2-2.8 2.3c-1.5 1.3-3 2.1-3.4 1.8-.3-.4.2-1.2 1.2-1.9 2.1-1.6 2.2-3 .2-4.6-1.5-1.3-2.1-6-.7-6 .4 0 1.8 1.9 3.1 4.2zM91 711.3c0 .6-1.1 0-2.5-1.3s-2.5-2.8-2.5-3.3c0-.6 1.1 0 2.5 1.3s2.5 2.8 2.5 3.3zm-5 3.9c0 1.5-2.7.8-4.5-1.2-1.1-1.2-1.5-2.6-1-3.7.6-1.6.9-1.5 3.1 1.2 1.3 1.6 2.4 3.3 2.4 3.7zm-7.8 1.5c2.1 1.8 2.3 3.3.6 3.3-1.4 0-4.8-3-4.8-4.2 0-1.3 2.2-.9 4.2.9zm-9.2 8.4c0 .6-.4.7-1 .4-.5-.3-1-1.1-1-1.6 0-.6.5-.7 1-.4.6.3 1 1.1 1 1.6zm-8 5.9c0 1.1-.4 2-.9 2-1.4 0-2.3-1.8-1.6-3 1-1.7 2.5-1.1 2.5 1zm-14 5c0 .5-.4 1-1 1-.5 0-1-.5-1-1 0-.6.5-1 1-1 .6 0 1 .4 1 1zm443.9 4.9c1.7 1.1.7 4.1-1.2 4.1s-4-2.6-3.2-4c.8-1.2 2.5-1.3 4.4-.1zm-465.9.9c0 1.5-2.4 3.2-4.7 3.2-2.9 0-3-1.4 0-2.8 2.7-1.3 4.7-1.5 4.7-.4zm1 6.6c0 .3-.4.8-1 1.1-.5.3-1 .1-1-.4 0-.6.5-1.1 1-1.1.6 0 1 .2 1 .4zm454.5 5.5c.7 1.2-1.2 2.4-2.5 1.6-1.1-.7-.4-2.5 1-2.5.5 0 1.1.4 1.5.9zm-2 10c.3.5.1 1.3-.5 1.6-1.5.9-4.3-.3-3.5-1.5.8-1.3 3.2-1.3 4-.1zm18 5.6c0 1.8-.7 2-5.5 2-4.1 0-5.5-.4-5.5-1.5 0-1.7 3.7-2.9 8-2.7 2.3.2 3 .7 3 2.2zm-33 20.5c-.3.5-1 1-1.6 1-.5 0-.9-.5-.9-1 0-.6.7-1 1.6-1 .8 0 1.2.4.9 1zm-31.1 9.9c.8 1.2-1.4 1.9-3.7 1.3-1.5-.4-1.6-.7-.5-1.3 1.7-1.1 3.5-1.1 4.2 0zm37.6 3.6c0 1-1.1 1.5-3.5 1.5-1.9 0-3.5-.4-3.5-.9s.8-.7 1.9-.4c1 .3 2.2 0 2.5-.6 1-1.6 2.6-1.3 2.6.4zm16.4 1.6c-.5.8 0 1 1.7.6 1.3-.3 3.1-.2 3.9.3 1.2.8 1.2 1-.5 1.1-5.4.3-11.2-.4-12.2-1.5-.4-.5.4-.6 1.9-.2 1.5.3 3 .2 3.3-.4.3-.5 1.1-1 1.6-1 .6 0 .7.5.3 1.1z"/><path d="M115.5 173c-.7 1.2 1.2 4 2.7 4 1.3 0 .6-4.3-.9-4.7-.6-.2-1.4.1-1.8.7zM363.5 243c-.4.6-.1 1.7.5 2.6 1 1.1 1.6 1.2 2.6.3 1.1-.9 1.1-1.5.3-2.5-1.4-1.7-2.5-1.8-3.4-.4zM160 198.5c0 .8.7 1.5 1.6 1.5 1.4 0 1.4-.3.4-1.5-.7-.8-1.4-1.5-1.6-1.5-.2 0-.4.7-.4 1.5zM408.3 294.1c-2.6.9-3 3.1-.9 4.8.7.6 3.9 1.6 7 2.2 3.1.5 7.4 1.6 9.5 2.4 3.3 1.1 4.2 1.1 5.7 0 2.8-2 .5-3.9-7.3-6-3.8-1-7.9-2.3-9.3-3-1.6-.8-3.3-.9-4.7-.4zM404.1 304.9c-.8.5-1.1 1.6-.8 2.5.9 2.3 11.5 2.3 12.4.1.3-.9.4-1.7.2-1.9-1.1-.9-10.6-1.5-11.8-.7zM374 348.5c-.7.8-.9 1.5-.4 1.5s.2.5-.6 1c-1.3.8-1.3 1 .1 1 1 0 1.9-1 2.1-2.5.6-2.9.5-3-1.2-1zM361.9 349.7c-.1.5-.1 1.5 0 2.3.1 1.1-.9 1.5-3.8 1.4-3.6 0-3.9.1-3 1.8.5 1 1.2 1.8 1.5 1.8 1.3 0 6.4-3.1 6.4-3.9 0-.5.3-1.6.6-2.5.3-.9.1-1.6-.5-1.6s-1.2.3-1.2.7zM418.1 363.4c-.7.8-.8 1.7-.3 2 .6.3 1.2-.3 1.5-1.4.6-2.4.4-2.5-1.2-.6zM350.5 478.9c-.3.5-.1 1.2.5 1.6 1.2.7 3-.2 3-1.6 0-1.2-2.7-1.2-3.5 0zM308 510c-3 1.6-6.2 3.6-7.1 4.5-.9.8-2.6 1.5-3.8 1.5-5.4 0-10.2 7-8.2 12.1 1.5 4 4.8 6.3 8.9 6.2 8.1-.3 11.7-1.5 15.7-5.3 2.2-2.1 4.9-4 6-4.2 1.7-.3 2-1.2 2.1-7.3.3-11.1-3.2-13-13.6-7.5zm9.4 2.1c1.9 2.7 1.1 4.6-2.6 6.5-3.1 1.6-4.8 1.2-4.8-1.2 0-.8 1-1.4 2.5-1.4 2.7 0 4.8-3.1 2.7-3.8-.7-.2-1.2-.8-1.2-1.3 0-1.6 1.8-1 3.4 1.2zm-13.1 13.6c-2.8 4.8-7.3 5.8-9.8 2-.8-1.3-1.3-3.2-.9-4.1.7-1.9 2.1-2.1 2.7-.4.3 1 .9.9 2.3-.3 1-1 2.8-1.9 3.9-2.1 3.4-.8 4 .9 1.8 4.9zM265.5 530c-1.3 2.1-9.9 5.2-14.1 5.1-2.3 0-5 .6-6 1.4-1.8 1.4-1.8 1.6-.1 2.6.9.5 1.7 1.7 1.7 2.4 0 2.1 1.7 1.9 4.7-.5 3.1-2.4 4.3-2.5 4.3-.5 0 1.4-5.4 5.5-7.3 5.5-.4 0-1.9-1.2-3.2-2.6-3-3.2-6-2.7-4.9.8 1 3.3 2.4 4.8 4.5 4.8 1 0 2.6 1.1 3.4 2.4 1.1 1.6 3 2.7 5.8 3.1 3.5.6 4.4.4 5.8-1.4.9-1.1 2.7-2.1 3.9-2.1 1.2 0 4.2-2 7-4.8 3.9-3.8 4.9-5.5 5.4-9.3.5-3.5.3-4.9-.8-5.8-2.2-1.8-9.2-2.6-10.1-1.1zm3.5 8c.6 0 .9.3.7.8-.4.6-3.8.7-7.9.3-1.7-.2-.6-2.1 2-3.5 2.5-1.3 2.8-1.3 3.4.5.4 1 1.2 1.9 1.8 1.9zm-3.2 6.8c.2.7-.3 1.2-1.2 1.2-.9 0-1.6-.7-1.6-1.6 0-1.7 2.2-1.4 2.8.4zm-6.8 3.3c0 1.2-.7 1.9-1.8 1.9-2.8 0-3.4-1.1-1.6-3.1 1.9-2.1 3.4-1.6 3.4 1.2zM261.3 555c-3 1.2-2.9 3 .2 3 2.8 0 7.5-2 7.5-3.2 0-1.1-4.9-.9-7.7.2zM320.1 590.9c-1.9 1.2-.6 4.1 1.9 4.1 1.6 0 2.1-.5 1.8-2.2-.3-2.5-1.7-3.2-3.7-1.9zM317.1 596.9c-1.5 1-.8 4.1.9 4.1 1.5 0 2.5-2.9 1.4-4-.5-.5-1.5-.5-2.3-.1zM284.1 629.4c-1.7 2.1 3.1 7.7 5.1 5.8 1-1 1-1.7-.2-3.9-1.8-3.2-3.3-3.8-4.9-1.9zM336 606c0 .5.5 1 1 1 .6 0 1-.5 1-1 0-.6-.4-1-1-1-.5 0-1 .4-1 1zM330.2 686.1c.2.7 1 1.5 1.7 1.7.8.3 1.2-.1.9-.9-.2-.7-1-1.5-1.7-1.7-.8-.3-1.2.1-.9.9zM419.5 1.8c-2.2 1.1-6.9 1.6-19 1.8-13.7.3-17.1.7-23.5 2.8-4.1 1.3-11.5 3.6-16.5 5.1-15.9 4.7-34.8 11.3-43.4 15.1-2.9 1.3-5.9 2.4-6.6 2.4-.7 0-2.3.9-3.6 1.9-2.4 1.9-2.4 1.9-.5 4 1.2 1.3 1.6 2.5 1 3-1.6 1.5-11.9 4.9-21.5 7.2-5.2 1.2-11 3-12.9 4-3.8 2.1-7.5 2.5-8.5.9-.3-.6.3-2.3 1.4-3.9 1.8-2.5 1.9-3 .6-4.1-1.2-1-2.8-.9-8.4.9-3.8 1.2-8.4 3.3-10.3 4.6-1.8 1.3-5.2 3.4-7.5 4.5-4.2 2.2-6 4.5-4.3 5.5 2 1.2.9 2.4-2.7 3.3-2.1.5-7.4 1.8-11.8 2.7-12.9 2.9-15.5 4.2-17.6 9.1-2.1 4.5-3.2 5-16.1 6.9-5.5.8-6.3-.5-2.3-3.7 2.8-2.2 3.2-4.3 1-5.2-3-1.1-13.3 1.7-24 6.6-6 2.7-13.5 6.2-16.5 7.5-3 1.4-7 3.2-8.7 3.9-3.2 1.4-4.1 2.8-2.5 3.8 1.3.8 10.1-2.7 23.7-9.4 6.6-3.2 13.3-6.2 14.8-6.6 2.8-.6 2.8-.6 2.2 3-1.3 6.6 3 8.4 10.7 4.5 2.2-1.1 7.1-2.9 10.9-3.9 7.9-2 11.6-4.2 12.8-7.3.9-2.4 10.3-5.9 19.1-7.2 7-1 20.4-4.6 21.8-5.7 1.6-1.4-.1-3.6-3.1-4-3.5-.5-2.4-2 3.9-5.5 7.1-4 7.8-4 7-.7-.9 3.5.9 5.4 5.2 5.4 3.8 0 42.6-12.6 49.2-16 4.4-2.2 4.8-3.4 2.4-6.1-1.9-2.1-2.1-2 11.2-6.4 3.9-1.4 12.9-4.7 20.1-7.4 7.2-2.8 17.3-6 22.5-7.1 11.7-2.6 36.3-5.3 40.4-4.5 3.6.6 10.3-1.7 15-5.2l2.9-2.2H425c-1.4.1-3.8.8-5.5 1.7zM498 16.2c0 2.5-.8 4-3.5 6.3-3.1 2.7-3.4 3.3-2.7 6 1.1 4 3.6 3.9 4-.2.2-2.1 1-3.4 2.3-3.8 1.6-.5 1.9-1.6 1.9-6.1 0-3-.4-5.4-1-5.4-.5 0-1 1.5-1 3.2zM433.6 19.1c-1.4 1.7-2.6 4.1-2.6 5.3 0 1.2-1.1 3.3-2.5 4.6-2.8 2.6-3.3 6.1-1 8 1.9 1.6 3.8.3 3.1-2.4-.6-2.5.1-3.9 3.2-5.5 1.7-.9 2.2-2.1 2.2-4.8 0-2.4.8-4.5 2.2-6l2.1-2.3h-2c-1.2 0-3.3 1.4-4.7 3.1zM457.6 24.9c-.5.7.3 1.1 2.2 1.1 3.2 0 8.2 3.4 8.2 5.5 0 .8 1.3 2.1 2.9 2.9 1.6.9 3.8 3.2 5 5.1 2.4 4.2 4.7 4.1 4.4-.1-.1-1.8-1.3-3.7-3-5.1-1.5-1.2-4.4-3.9-6.4-5.9-2.7-2.8-4.6-3.7-8.1-4.1-2.8-.3-4.8-.1-5.2.6zM441.3 67.3c.2.6 1.9 1.6 3.8 2.2 2.5.8 3.6 2 4.4 4.3.5 1.8 1.3 3.2 1.7 3.2 2.1 0 4.8 4.3 4.8 7.5 0 4 1.2 4.5 3.4 1.4 1.8-2.6.4-7.4-2.6-9-1.1-.6-2.4-2.4-3-4-1.1-3.3-3.6-4.9-9.1-5.9-2.5-.5-3.7-.4-3.4.3zM416.5 96.1c-1 1.5.3 2.5 1.6 1.2.7-.7.7-1.3.1-1.7-.6-.3-1.4-.1-1.7.5zM410 101.5c-.7.8-1 2.5-.7 3.7.4 1.3-.1 3.1-1.4 4.6-2.2 2.9-2.4 4.8-.6 5.5 1.9.7 4-.8 3.4-2.4-.2-.8.3-2.3 1.3-3.4 1.2-1.4 1.6-3.1 1.3-5.8-.6-4-1.4-4.5-3.3-2.2zM27.5 561.9c-2.2.4-6.1 1.7-8.7 2.9-5.7 2.5-6.1 4.5-1.7 9.1 2.3 2.5 2.8 3.5 1.9 4.6-.8 1-.8 1.5.2 2.1.7.5-.6 1.3-3.7 2.3l-5 1.6.3 6.5c.1 4.2-.4 7.9-1.4 10.5-.9 2.2-2.2 9.1-2.9 15.3-1.2 10-1.7 11.6-3.9 13.7-3 2.8-3.7 10.1-1.1 11.1 1.2.5 1.4 2.2 1 9.1-.3 4.6-.9 9.3-1.5 10.3-1.2 2.3-1.3 11-.2 11 1.5 0 4.2-3.6 4.2-5.6 0-1 .5-2.6 1-3.4 1.5-2.3.2 4.5-2.2 11.3-1.1 3.1-2.5 6-2.9 6.3-.5.3-.9 5.6-.9 11.7l.1 11.2L2 700c1-2 2.3-6 2.8-9.1.6-3 2.3-8.2 3.7-11.5 1.5-3.2 3.5-9.2 4.4-13.3.9-4.1 2.2-7.6 2.9-7.9.9-.3 1.2.5 1 2.4-.3 2.8-.1 2.9 3.2 2.6 5.6-.6 15-7.7 13.5-10.2-.3-.5 1.3-1.9 3.5-3.1 2.4-1.3 4.8-3.8 6-6.1 2.5-4.9 2.5-5.1-.7-6.5-2.2-1.1-3.7-.9-10.2 1.4-4.2 1.4-8.2 3.3-8.8 4.1-.7.9-1.6 1.3-1.9.9-.4-.4-.1-1.3.5-2.1 1.6-1.9.6-3.6-1.9-3.6-1 0-2.2-.5-2.5-1-.3-.6-1.9-1-3.6-1-2.4 0-2.9-.4-2.9-2.4 0-4.5 1.7-7.5 3.9-6.9 1.2.3 2.1 1.4 2.1 2.4 0 2.4 2.7 3.6 4.8 2.2 2.5-1.5 2.6-3.4.3-4-1.4-.3-2.1-1.3-2.1-2.9 0-1.8-.8-2.5-3.5-3.3-1.9-.5-4.4-.7-5.6-.4-1.6.4-2 .2-1.7-.8.3-.8 1.4-1.3 2.6-1.1 1.6.2 2.3-.3 2.8-2.5.3-1.5.7-3.2.8-3.7.1-.5 2.2-1.6 4.6-2.5 3.5-1.3 4.6-2.2 4.8-4.1.2-1.4.8-2.9 1.3-3.4 1.9-2.1.9-3.6-2.5-3.6-4.6 0-5.2-1.4-2-3.9 3.8-3 8.7-2.8 10.8.4.9 1.4 2.6 2.5 3.9 2.5 2.3 0 13.5-3.4 17.7-5.4 3.4-1.6 3.2-4-.3-4.4-1.6-.2-3.1-1-3.4-1.8-.3-.8-2.1-2.1-4-2.9-3-1.3-3.3-1.7-2.3-3 1.8-2.2-.9-2.9-8-2.2-4.2.5-6.1.3-6.9-.7-1.6-1.9-.3-2.6 5.1-2.6 2.6 0 4.8-.5 4.8-1 0-.6.8-1.4 1.8-1.8 3.6-1.6 8.2-4.7 8.2-5.7-.1-4.8-9.1-6.7-21.5-4.6zm-16.2 88.7c-.6 8.2-3.3 10.3-3.3 2.6 0-2.7.3-5.2.7-5.6 1.4-1.4 2.8.2 2.6 3zM15 768.9c1.2 2.3 2.9 3.5 3.6 2.8 1-.9-1.6-4.7-3.2-4.7-1.1 0-1.2.4-.4 1.9zM20.5 776c.3.5.8 1 1.1 1 .2 0 .4-.5.4-1 0-.6-.5-1-1.1-1-.5 0-.7.4-.4 1zM22 781.9c0 2.2 1.5 3.5 3 2.6.7-.4.7-1.3 0-2.6-1.4-2.5-3-2.5-3 0zM3 783.7c0 .5 1.6 2.6 3.5 4.8 2.3 2.7 3.4 3.5 3.5 2.3 0-.9-1.2-3-2.6-4.7-2.4-2.9-4.4-4-4.4-2.4zM373 828l-4.5.5v8.5c.1 4.7.3 12.1.5 16.5l.5 8 5 .9c10.1 1.7 17.5-2.5 21.1-12 1.5-4 1.6-5.4.6-10.2-1.4-6.5-3.4-10-6.7-11.2-3.1-1.2-10.8-1.6-16.5-1zm12.6 6.6c4.4 4.8 5.4 12.5 2.4 18.3-2.1 4.2-4.7 5.6-9.1 4.9-2.4-.3-2.4-.5-2.7-12.7-.3-13.2.4-15.6 4.2-14.6 1.2.4 3.5 2.2 5.2 4.1zM296.3 828.7c-4.7.5-5.2.9-2.6 2.8 1.6 1.2 1.6 1.5.1 5.1-1 2.2-2.2 6.5-2.9 9.6-.7 3.2-1.8 5.8-2.4 5.8-.7 0-2.4-2.6-3.8-5.8-4.8-10.6-4.8-10.8-2.6-13.5 1-1.4 1.9-2.8 1.9-3.1 0-.8-13.5-.8-14.2 0-.3.3.2 2.6 1.2 5.2 1.4 3.8 1.5 5.3.6 7.9-.6 1.8-1.5 3.3-2.1 3.2-1.3 0-3.4-6-4.3-11.9-.7-4.4-.8-4.5-4.6-4.8-4.6-.4-6.8 1.2-4.4 3 1.8 1.4 4 8.4 5.9 18.8 1.3 6.9 3.1 10 5.9 10 2.4 0 4.2-2.4 3.4-4.4-.6-1.6 3.4-10.6 4.7-10.6.3 0 2.3 2.7 4.3 6 4.1 6.6 7.4 9.4 9.9 8.4 1.6-.6 2.8-3.9 7.4-20.4 1.3-4.7 2.5-7.9 4.1-11.3.2-.4 0-.6-.5-.5-.4.1-2.7.3-5 .5zM339.8 828.7c-4.6.4-6 1.4-3.8 2.8 1.4.8 1.3 27.2 0 28-1.5.9.8 3.5 3.1 3.5 3.3 0 4.9-2.8 4.9-8.6 0-3.1.4-5.4 1-5.4s4.2 3 8.1 6.6c5 4.7 7.6 6.4 9.2 6.2 3.2-.4 2.6-2.6-2.7-9.5-2.5-3.4-4.6-6.6-4.6-7.1s1.1-1.3 2.5-1.6c4.5-1.1 7-9.1 4.1-13.1-1.2-1.6-2.8-2-9.3-2.1-4.3-.1-9.9.1-12.5.3zm13 3.5c1.6 1.6 1.5 6.3-.2 7.7-.8.7-3 1.1-4.8.9-2.9-.3-3.3-.7-3.6-3.6-.2-1.9-.1-4 .2-4.8.7-1.7 6.7-1.9 8.4-.2zM408.9 829.4c-5 1.5-6.9 3.4-6.9 6.5 0 3.4 1.4 5.2 6.7 8.5 2.3 1.4 4.7 3.4 5.3 4.5 1.5 2.8 1.2 7.7-.5 9.1-2.4 2-6.4.4-7.1-2.8-1-4.8-1.3-5.2-3.3-5.2-2.7 0-5.1 3.7-5.1 8.1v3.6l5.8.5c6.4.6 14.8-.4 16.3-1.9.6-.6 1.5-3 2-5.3 1.3-5.6-1.1-10.5-6.9-14.3-4.4-3-6.7-6.1-5.7-7.7.4-.6 1.7-.2 3.2 1 3.1 2.4 4.6 2.5 6.3.5 1.1-1.3.9-2-1-4-2.6-2.7-3.7-2.9-9.1-1.1zM233.5 832.3c-2.8 2.8-3.5 4.3-3.5 7.4 0 5.8 3.5 8.8 10.3 8.8 4.7 0 5.2.2 6.1 2.8 1.6 4.5-.2 6.2-6.4 6.2-4.7-.1-5.5-.4-8-3.5-1.7-2.1-3.3-3.1-4.3-2.7-1.7.6-3.4 8.5-2.1 9.7.5.4 5.2 1 10.4 1.4 11.5.7 15.1-.8 17.1-7.2 1-3.4.8-4.5-.9-8.5-2.3-5.2-4.5-6.3-9.9-4.8-3 .8-4.1.8-5.2-.4-1.2-1.2-1.2-1.7.3-3.9 2-3.2 4.9-3.3 6.8-.4 2.4 3.6 5 1.7 4.6-3.4l-.3-4.3-5.8-.3c-5.5-.3-6-.1-9.2 3.1zM305.7 833.9c-4.8 4.6-5.1 5.1-5.5 11-.8 10.7 2.1 14.3 12.3 15.5 5.1.5 6.8.2 11.1-1.8 4.1-1.9 5.5-3.3 7.3-7 2.6-5.3 2.3-8.7-1.6-15.4-2.9-5.1-7-7.2-13.8-7.2-4.2 0-5.2.5-9.8 4.9zm13-.4c1.6 1.2 2.3 3.3 3.3 10.1.9 6 .9 9.3.2 10.9-1.2 2.5-4.8 3.6-8 2.4-5-1.9-7-15.5-3.2-21.7 2.2-3.5 4.4-4 7.7-1.7zM11.5 832c-.4.6-.2 1.7.4 2.4 1 1.2 1.6 20.6.9 27.6-.3 2.3 0 2.5 3.7 2.5h4l-.3-5.7c-.4-5.7.3-9.8 1.7-9.8.3 0 2.4 2.2 4.4 5 2.9 3.8 3.6 5.6 3.1 7.5-.6 2.5-.5 2.5 5.5 2.5 5.9 0 8-1.3 4.4-2.7-2.3-.9-6.8-5.4-12.1-12.2l-4.3-5.4 3.3-3.4c1.8-1.9 4.5-4.1 6.1-4.9 3.7-2 3.4-3.4-.6-3.4-2.5 0-4.2.9-6.7 3.5-4 4.1-6.6 4.7-5.6 1.2 1.5-4.8 1.3-5.2-3.1-5.5-2.2-.2-4.4.2-4.8.8zM67.5 831.8c-5.3.5-5.7.9-4.1 3.4 2.7 4.4 3.2 18.9.6 17.3-.5-.3-2.6-3.6-4.6-7.3-6.2-11.1-8-13.2-12-13.2-3.4 0-4.2.8-2.5 2.6.5.5 1.1 6.2 1.4 12.6.3 9.2.1 12-.9 12.9-.8.6-1.4 1.5-1.4 1.9 0 1.4 3.1 2 5.1.9 1.8-.9 2-1.9 1.8-9.9-.2-4.9 0-9.2.3-9.6.7-.7 4.3 4.7 7.8 11.6 2.5 5.1 5.6 7.9 8.6 8 3.7 0 4.2-1.6 3.6-13.4-.4-9.5-.2-11.7 1.2-13.9 1.6-2.4 1.6-2.6-.1-3.4-1-.5-3.1-.7-4.8-.5zM117.4 832.1c-.3.6-.2 1.4.4 1.8.6.3 1.2 6.5 1.5 14.5.4 13.1.5 14.1 2.5 14.9 3.9 1.8 5.4-.8 4.9-7.9-.6-7.3.4-8.7 4.9-7.5 2.8.7 2.9 1 3.4 7.5.3 4.4 1 7 2 7.6 3.8 2.4 4.2 1.1 4.2-16.3v-15.2h-6.6l.3 5.6c.1 3.2-.2 6-.8 6.3-.6.4-2.7.4-4.7 0l-3.6-.7.7-5.2c.6-4.9.5-5.3-1.7-5.9-3.6-.9-6.6-.7-7.4.5zM146.8 832.1c-2.5 1.4-2.4 5.9.1 5.9 1.1 0 2.3-.5 2.6-1 .3-.6 1.5-1 2.6-1 1.5 0 1.9.7 2 3.2.1 1.8.3 4.4.4 5.8 1.1 10 .9 12.9-.9 14.9-2.5 2.8-1.8 3.3 4.9 3.6 6.3.3 7.6-.7 4.7-3.8-1.9-2.1-2.9-10.3-2.4-20.5.2-3.6 3-4.6 3.9-1.2.6 2.4 4.5 2.7 6.2.6.7-.8 1.1-2.7.9-4.3l-.3-2.8-11.5-.2c-6.6-.2-12.2.2-13.2.8zM78.7 832.7c-.2.5 0 4.4.4 8.8.8 7.8.6 13.9-.7 18.2-.8 2.8 2.3 4.5 6.6 3.7 2.6-.6 3.1-1 2.6-2.8-.3-1.2-.6-8.1-.6-15.4V832h-3.9c-2.2 0-4.2.3-4.4.7zM100.5 832.7c-3.5.9-7.5 4.4-9.5 8.3-4.9 9.5-.1 20.8 9.5 22.6 7.7 1.4 14.9-4.4 13.6-10.9-.7-3.2-.8-3.2-6.6-3.2-3.6 0-6 .5-6.2 1.2-.2.6.6 1.3 1.9 1.5 1.7.2 2.4 1.1 2.6 3.1.5 4.1-2.5 4.8-5.5 1.1-3.2-4-3.3-13.8-.2-17.8 2.4-3 3.6-3.2 6-1 2.2 2 4.9 1.2 4.9-1.5 0-3.4-4.6-4.8-10.5-3.4zM197.3 834c-4.9 2.9-5.1 6-1.2 13.3 4.1 7.7 4.4 15.5.9 21.2-2.9 4.7-.4 4.8 3.8.1 3.3-3.7 4.9-7.9 5.6-14.1.2-2.5.9-3.9 1.6-3.7 2.5.6 4.1-2 3.4-5.7-1.1-5.9-4.6-8.3-5.9-4.1-.9 2.8-3 2.5-5.5-.7l-2.1-2.7 3.3-2.8c2.8-2.3 3-2.7 1.3-2.8-1.1 0-3.5.9-5.2 2z"/><path d="M186 849.3c-3.4 1.7-5.5 5.7-4.6 9 1.3 5.1 10.3 7.2 13.7 3.1 1.8-2.2.5-9.5-2.1-11.6-2.6-2.1-3.7-2.2-7-.5zm5.6 5.3c1 3.9-1.3 5.5-3.6 2.6-2.2-2.6-1.6-5.2 1.1-5.2 1.2 0 2.1 1 2.5 2.6zM443.1 854.9c-3.4.9-4.8 3.5-3.2 5.5 1.7 2 4.9 1.3 7.4-1.6 1.3-1.6 1.5-2.4.6-3.4-1.2-1.5-1.3-1.5-4.8-.5z"/></svg>