<svg version="1" xmlns="http://www.w3.org/2000/svg" width="666.667" height="1170.667" viewBox="0 0 500 878"><path d="M408.5 3.7c-.3 2.1-3.3 14.8-6.6 28.3-8 32.8-7.6 31.2-9.9 42.5-1.1 5.5-2.9 13.6-4 18-5.5 22.7-7 29.3-7 31.8 0 1.6-.4 4.7-.9 7-4.9 22.7-8.8 39.4-10 42.2-2.4 5.5-4.1 11.4-4.1 14.2 0 1.9-.6 3.3-1.6 3.7-2.5 1-15.6.7-19.4-.4-1.9-.6-5.2-.8-7.3-.4-3.2.5-4.1 1.2-5.3 4L331 198l-7.2-3.6c-4-2-11.7-4.6-17.7-6-20.4-4.7-23.4-5.7-24.8-8.4-3-6.2-5.4-13.3-4.9-14.6.4-1 2.2-1.4 5.8-1.4 6.8 0 12.8-3 16.3-8 2.4-3.4 2.7-4.7 2.2-8.4-.6-3.9-.4-4.4 1.7-5.4 2.7-1.2 3.6-.7 3.6 2 0 2.6 4.8 6.8 7.7 6.8 2.5 0 10.4-3.6 11.4-5.2.4-.6 1.6-.7 2.8-.3 1.6.5 3.4-.1 6.2-2 2.1-1.5 3.9-3.1 3.9-3.6 0-1.4 9.1-6.9 11.5-6.9 2.8 0 4.2-1.7 2.7-3.2-1.7-1.7-13.9 3.1-16.9 6.6-1.7 2-3.5 3-6.1 3.2-4.9.4-6.1-.5-5.5-3.9.5-2.5.9-2.7 3.4-2.2 3 .7 4.2 0 9.3-5.2 13.8-14.3 16.1-17.8 13.5-20.9-1.1-1.4-1-1.9 1.1-3.6 6-4.7 6.2-5 5.1-6.1-.7-.7-2.5 0-6.3 2.5-2.9 1.9-6.8 4.3-8.6 5.2l-3.3 1.7.6-3.4c.9-4.6-1.8-10.3-5.8-12.3-5.4-2.8-15-.2-21.3 5.8-2.3 2.2-4.2 2.9-7.5 3.1-6.1.3-5.7-1.7 1.1-5.7 5.4-3.2 7-5.8 4-6.3-2.4-.4-14.2 6-16.3 8.9-1.7 2.3-1.8 3.1-.7 5.7 1.6 4.1 5.9 5.4 12.9 4.1 2.9-.5 5.7-.7 6.2-.4 1.5.9-3.3 8.4-5.7 9-1.2.3-3.3-.1-4.6-1-2.3-1.5-2.8-1.5-7.2.9-2.6 1.4-5.3 2.5-6 2.5-.7 0-3.4-2.4-6-5.3-4.7-5.3-5.7-6.3-10.1-10.6-2.1-2-3.1-2.3-6.7-1.7-2.7.4-4.9 1.5-6 2.9-1.5 1.9-2 2-3.7 1-2.1-1.3-11.9-1.1-24.6.6-8 1-15.6 4-17.7 6.9-.7 1.1-3 3-5 4.1l-3.6 2.2-1.7-2.8c-2-3.4-10.6-9.6-15.6-11.2-6-1.9-19.4-.8-26.1 2.2-7.4 3.4-13.4 11.2-10.4 13.6 1.4 1.1 3.6-.4 3.6-2.4 0-1.4 5.7-6.9 8.9-8.5 3.4-1.7 13.4-1.6 20.9.4 6.7 1.7 12.4 5.2 15.6 9.4 1.8 2.3 1.8 2.6.1 8.3-1.6 5.1-1.6 6.5-.5 10.2.7 2.3 1.6 5.3 1.9 6.6.4 1.4 1.5 2.8 2.4 3.3.9.4 2.5 1.2 3.5 1.7.9.4 1.9 1.8 2 3.1.2 1.2 1.2 2.5 2.3 2.7 1 .3 1.9 1.3 1.9 2.2 0 .9.4 2.1.9 2.6.5.6 1.4 2.7 2.1 4.8.6 2.1 2.6 4.8 4.4 6.2 1.8 1.4 4.6 4.9 6.1 7.7 3.4 6.2 5 7.7 8.7 7.8 1.8 0 3.3 1 4.7 2.9 3.5 4.9 2.4 8.1-2.8 8.1-.9 0-4.4 2-7.7 4.4-3.3 2.4-7 4.6-8.1 5-3.3 1-11.1 10.1-13.4 15.3-1.1 2.7-2.6 5.5-3.3 6.3-1.5 1.7-2.6 6.4-3.1 13-.7 11.5-2.8 24.7-4.2 26.9-2.4 3.7-9 9.9-12.5 11.7-2.5 1.3-4.6 1.5-10.2.9-8.8-.8-15.6-4.2-18.7-9.1-2.2-3.6-2.2-3.8-.6-6.6 2.2-3.8 2.1-5.1-.3-7.3-1.5-1.4-2.3-1.6-3.2-.7-.8.8-1.4.8-2.2-.3-.9-1.2-1.8-1.3-4.6-.5-3.9 1.1-12.3.6-18.1-1.2-4.7-1.4-13.6-9.6-14.1-12.9-.5-3.5-3.2-3-3.6.6-.6 6.3 10.7 15.2 22 17.3 2.6.5 7.9.6 11.8.3 3.9-.4 7.3-.4 7.6 0 .2.4 0 2.7-.5 5-1.1 5 0 7.8 5.1 12.5 4.1 3.9 11.2 6.4 20.3 7.1 8.9.7 15.7-1.9 20.4-7.8 3.9-4.8 5.1-4.9 5.1-.6 0 1.8 1.7 6.9 3.8 11.2 2.1 4.4 4.7 10 5.8 12.4 1 2.4 3.7 8 5.9 12.4 3.5 7 4.6 8.3 8.9 10.7 4 2.2 5.2 3.5 6.7 7.6 1.1 2.7 1.9 6.9 1.9 9.3 0 2.4.5 7.2 1.2 10.6 1 5.7.9 6.6-.8 9.6-1.1 1.9-4.4 4.7-7.7 6.7-4.6 2.7-6.3 4.4-8.7 9-4.7 8.7-11.7 20.2-22.1 36.2-5.2 8-10.5 17.1-11.7 20.3l-2.2 5.8 4.6 3.2c4.5 3.1 4.6 3.3 4 7.5-.4 2.9-.1 5.3.9 7.1 1.3 2.6 1.1 3.6-2.1 12.7-1.9 5.4-4.4 13-5.4 16.9-1 3.8-4 13.1-6.6 20.5-2.5 7.4-5.5 17.1-6.6 21.5-3.7 15-7.3 20-14.6 19.7-5.9-.2-6.9-2.8-4.6-10.9.5-1.7.1-2.5-1.9-3.4-2.1-1-3-.7-7.1 2.5-6.2 4.7-10.8 5.6-14.7 2.7-2.8-2.1-3-2.1-6.1-.5-5.1 2.7-19.5 2.4-27.9-.4-7.4-2.5-10.5-5.3-13.9-12.5-3.2-6.8-3-12.5.4-15.2 3.2-2.6 3.2-3.2.1-6.5-1.8-1.9-2.7-4.3-3.4-9.3-1.2-8.2 0-12.9 4-17 2.4-2.4 3.6-2.8 5.9-2.3 2.9.5 3 .4 3-2.9 0-5.8 9.6-14.7 17.9-16.6 3.7-.8 7.1.3 7.1 2.4 0 .7.6 2.5 1.3 4 1.1 2.6 1.7 2.9 6.2 3.1 1.2.1 2.1 1 2.5 2.6.9 3.7 3.5 3.7 4.6-.1 1.3-4.5 5.3-7.1 11.8-7.7 4.7-.4 6.2 0 10.1 2.2 6.7 4 11 13.7 8.5 19.6-.9 2.3-.9 3.4.4 5.8.9 1.7 1.6 4.7 1.6 6.7 0 2.9.3 3.6 1.8 3.3 2.3-.4 2.8-5.8.8-9.7-1.6-3.1-.9-4.5 1.7-3.5.8.3 1.8.1 2.2-.5.3-.6 2.1-1.1 4-1.1 2.5 0 3.8.7 5.3 2.7 1.6 2.2 2.3 2.5 3.3 1.6 1.7-1.7-.1-5.6-3.7-7.9-2.6-1.8-5.6-1.5-11.8 1.1-1.6.7-1.8.5-1.3-.9 1-2.5-1-9.1-4.1-13.8-2.4-3.7-7.7-7.3-13.2-9-4.7-1.5-12.9.2-16.5 3.4-3.2 2.8-3.5 2.8-7.5 1.6-3.1-1-4.5-2.1-5.5-4.4-.7-1.7-1.7-3.4-2.3-3.8-1.8-1.1-8.1-1.5-8.7-.6-.4.6-2.8 2-5.6 3.1-4.9 2.2-9.1 6.1-12.4 11.7-1 1.6-3.2 3.6-4.8 4.3-9.7 4.4-13.8 21-8.1 32.1 1.3 2.5 1.2 3.1-.6 6.5-2.4 4.5-2.4 5.2-.5 12.8l1.6 5.9-3.1 2.4c-2.3 1.8-3 3.1-3 5.8 0 2 .5 4.5 1.1 5.6.9 1.7.7 2.5-1.5 4.7-2.5 2.4-3.1 2.6-13.4 2.6-9.8 0-11.1.2-16.2 2.9-8 4.2-10.7 6.3-15 11.7-4.1 5.2-7.4 14.5-8.5 24.1-1.1 8.6 2.1 18 8.2 24.8 2.6 2.9 6 6.1 7.6 7l2.8 1.8-3.3 1.1c-1.8.6-4.1 2.2-5 3.4-1.4 1.8-2 2-3.5 1-5.4-3.6-12.2-7.1-15.1-7.6-4.3-.9-8.2.7-8.2 3.3 0 1.7.3 1.9 1.9.8 2.8-1.7 9.4.5 16.1 5.6 6.7 5 10.6 5.2 12.2.5 1.2-3.5 4-4.4 10.9-3.5l5 .7-.3-2.8c-.2-2.4-1.4-3.3-6.9-6-15.7-7.6-21.5-22.8-15.5-41.1 5.5-16.8 16.2-25.2 32.2-25.2 5.5 0 6.6.3 8.8 2.6 2.8 3 4.2 2.6 5.1-1.6.8-3.6 6.3-7.1 11.6-7.3 5.7-.2 6.3.8 5.7 8.7-.3 3.5 2.1 4.8 2.9 1.7.3-1.3 2.1-2.8 4-3.6 4.7-2 5-1.9 2.5.8-2.9 3.1-5 8.4-4.4 11.3.7 3.8 3 2.8 4.2-1.8 2.4-8.6 8.9-11.9 24.2-12.2 7.5-.1 8.9.2 11 2 1.2 1.2 3 2.4 3.9 2.7.9.3 3 2.5 4.7 5l3 4.5-2.9 6.3c-1.6 3.5-2.9 6.9-2.9 7.6 0 .6-1.2 2.6-2.6 4.3-5.9 7-11.1 20.2-12 30.8-.5 5.6-1.6 9.8-4.1 15.2-3.5 7.8-4.7 9.2-7 8.3-.7-.3-2 0-2.8.7-2 1.7-9.8 1.4-13.4-.4-3.1-1.6-5.1-5.9-5.1-10.9 0-2.3-.3-2.8-1.7-2.4-9.1 3-9.9 3.1-13.9 1.1-2.1-1-4.4-2.9-5-4.2-1.6-3.3-1.7-3.3-6.8-1.6-4.5 1.5-4.6 1.7-3.1 3.4 2.2 2.4 1.1 4-2.5 4-1.5 0-3 .6-3.3 1.4-.8 2.1 2.4 4.5 5.3 4 3.1-.6 12.3 4.6 14.7 8.2 2.4 3.8 2 11.1-1.1 16.6-2.7 4.8-3.1 11.8-.8 12.6.7.2 2.8-.3 4.6-1.2 4.6-2.2 9.2-2 11.6.4 2.6 2.6 2.5 4.2-.1 6.6-1.8 1.6-4 5.5-4.3 7.5-.1.3-2.6 3.7-5.6 7.5-3.1 3.8-6.8 9-8.3 11.7-3.2 5.5-9.9 10.2-14 9.9-1.5-.1-4 .4-5.5 1.1-1.5.7-3.4 1.2-4.3 1-.8-.2-2.4.5-3.4 1.7-5.2 5.7-4.8-2.5.4-10.5 3.9-5.8 3.9-6 1.8-6.6l-2.2-.5 2.3-1.5c2.4-1.5 3-3.9.8-3.9-2.3 0-6.6 4-8.9 8.3l-2.2 4.2-.3-3c-.4-2.9 1.4-9.9 2.9-12.1.5-.5.6-1.9.3-3-.3-1.3.6-3 3-5.3 3.1-3 3.7-3.3 5.2-2 1.1.9 3.5 1.3 7 1.1 2.8-.2 6.2.2 7.4.8 1.8 1 2.6.8 4.5-1 2-1.8 3-2.1 6.4-1.5 3.3.5 4.1.4 4.1-.8 0-2.3-2.4-3.7-6.3-3.5-4.8.2-5.1-.3-3-4 1-1.7 1.4-3.4 1-3.8-.4-.4-2.9-.7-5.5-.5-3.6.1-5.5-.3-7.5-2-2.4-1.8-3.5-2-8.7-1.4-3.3.4-7.8.4-10.1 0l-4.2-.7 6.9-4.4c5-3.2 9.4-4.9 15.9-6.5 6-1.4 9.7-2.8 11.3-4.4 3-3.1 1.6-3.8-5.8-2.9-6.6.7-7.9-.6-4-4.1 1.1-1 1.7-2.1 1.5-2.6-.3-.4-4.5-.8-9.3-.7-6.8 0-9.4.4-12.1 2-3.1 1.7-3.5 1.8-4.3.4-1.3-2.3-2.9-2-7.6 1.5-6.4 4.7-7.6 7.8-7.5 18.1.2 8.6.1 8.8-2.2 8.8-3.2 0-8.5 4.6-8.5 7.3 0 1.2 1.2 3.1 2.7 4.1 2.5 1.8 2.6 1.8 3.9.1.7-1 1.5-2.2 1.6-2.7.2-.5 1.1-.6 1.9-.3 1.2.4 1.9 2.6 2.4 7.3.9 7.2.9 20.3 0 23.9-.6 2.6-4.4 4.1-5.6 2.2-.5-.9-2.8-1.4-6.4-1.4H0v10.8c0 11.6-.2 11.3 5.3 7.5 1.5-1.1 2.7-1.7 2.7-1.3 0 .3 1.8-.4 4-1.6 4.4-2.5 6.5-1.9 3.4.9-1.7 1.6-9 5.1-13.6 6.6-1 .3-1.8 1.4-1.8 2.4 0 1.9.3 1.8 8.8-.5 13-3.6 14.1-3.7 16-1.9 2.6 2.3 8.3.5 11.6-3.8 3.9-5.2 5.5-6.6 7.1-6 .7.3 2.7-.5 4.4-1.7 1.7-1.2 3.3-2 3.7-1.7 1.3 1.4-2 5-6 6.8-2.4 1-5.4 3.2-6.7 4.8-1.3 1.7-5 5.1-8.1 7.7-5.1 4.2-6.1 4.6-8.5 3.7-1.6-.5-5-.6-7.8-.2C.6 743.1 0 743.3 0 744.9c0 1.5 1.5 1.7 13.7 1.5 7.6-.1 14.7-.5 15.8-1 1.8-.7 1.8-.6.6.9-2.3 2.8-8 3.7-19.3 3-10.6-.6-10.8-.6-10.8 1.5 0 1.4.8 2.3 2.3 2.6 1.2.2 4.7.9 7.7 1.5 4.6.9 6.4.9 9.9-.4 2.4-.8 5.5-1.5 7-1.5 3.1 0 8.6-3.2 10-5.8.6-1.1 2.7-3 4.8-4.2 3.2-1.9 4.7-2.1 9.6-1.6 4.7.5 6 .3 7.2-1.2 6.3-7.4 9.6-10.5 13.5-12.5 4.3-2.3 6.6-5.7 3.8-5.7-.8 0-3.8.7-6.8 1.6-4.1 1.2-6.6 2.9-10.6 7-4.6 4.7-6 5.5-10.1 6.1-2.6.3-6.5 1.4-8.5 2.4-2.1 1.1-4 1.9-4.3 1.9-.3 0 1.9-2.5 4.9-5.6 4.1-4.3 6.2-5.6 8.6-5.7 2.7-.2 3.6-.9 6-5.2 3.9-7.2 10.8-10.3 16.2-7.4 2.9 1.5 14 3 15.3 1.9.5-.4 3.3-1.5 6-2.3 3.1-.8 5.4-2.2 6.1-3.5 1.3-2.6 11.9-10.4 16.1-11.9 3.6-1.2 10.3-.2 14.1 2.3 1.6 1 2.8 1.2 4 .5 1-.5 4.3-1.3 7.3-1.6 3-.4 6.3-1 7.4-1.5 2.3-.9 22-5 23.8-4.9.7 0 .2.4-1 .9-1.3.5-2.3 1.6-2.3 2.5 0 .8-.6 1.5-1.4 1.5-.7 0-2 .7-2.7 1.6-1.1 1.4-2.6 1.5-8.6 1-5.3-.4-7.9-.2-10 .9-1.5.8-4.7 1.5-7 1.5s-5.3.4-6.8 1c-1.4.5-3.8 1.3-5.3 1.6-2.6.6-3.8.6-10.4.3-1.8-.1-6 .9-9.3 2.2-5 2-6 2.8-6 4.8 0 1.8-.7 2.6-2.8 3.2-5.6 1.5-21.1 10.2-26.4 14.7-6.6 5.7-8.5 8.4-9.2 13.2-.1.3-1 1.1-2.1 1.8-1.7 1-2.6.8-6.1-1.8-6.1-4.4-8-4.1-16.9 3.1-6.4 5.1-8.1 5.8-17.2 7.4-4.4.8-8.3 1.7-8.5 1.9-.3.2-2.3-.2-4.5-1-5.8-2-6.8-1.8-6.8 1.4 0 2.5.5 2.8 5.1 3.9 2.8.7 5.5 1.1 5.9.8.4-.3 4-.9 8-1.5 8.8-1.2 14-3.5 21.3-8.9 6.1-4.6 8-5 10.5-2 2.7 3.3 5.7 4 9.8 2.3 5.7-2.4 10.4-6.6 10.4-9.3 0-3.5 11.5-14.2 19.4-18 3.6-1.7 7-3.1 7.7-3.1 1.5 0 10.2-4.2 11.1-5.4.3-.5.4-1.5.1-2.2-.3-.8.7-1.9 2.2-2.6 2.5-1.1 2.9-1 4.9 1.5 2.5 3.1 4.9 3.5 6.8.9.7-1 2.4-1.8 3.8-1.9 1.4-.1 5.6-.4 9.4-.7 5-.3 7.6-1 9.8-2.6 1.6-1.2 3.4-1.9 4.1-1.6.9.3.9.5 0 .5-.7.1-1.3.8-1.3 1.6s.6 1.6 1.3 1.6c.6.1 1.7.2 2.2.4.6.1 1.7.3 2.5.3 1.1.2 1.1.5.2 1.4-1.9 1.9-1.4 2.7 1.6 2.5 2.2-.2 2.7-.7 2.7-3-.1-2.3.2-2.6 2.4-2 2 .5 2.3.3 1.8-1.1-.8-2 .6-2.1 2.2-.2.8 1 3.4 1.3 9.9 1 9.6-.3 19.2.4 19.2 1.6 0 1.6-7.9 4-16.4 4.9-9.5 1.1-12 2.3-11.1 5.2 1 3-2.7 3.7-17.3 3.1-10.5-.4-13.2-.7-12.8-1.8.3-.7 0-1.6-.6-2-1.7-1.1-13.5-.4-18.3 1-12.1 3.7-28.8 12.6-35.5 19-7.6 7.2-11.5 9.9-21.7 15-11.8 5.8-13 6.2-15.3 4.1-2.2-2-2.7-1.9-16.2 2.3-7.9 2.5-10.3 2.9-13 2.1-3.8-1-9.2-1.2-13.7-.3-2.7.6-3.1 1.1-3.1 4 0 3.2.1 3.3 5.3 3.9 2.9.4 7 .7 9.2.7 5.3.1 18.4-4.8 21.3-7.9l2.3-2.5 4.4 3.7c4.3 3.5 4.7 3.6 8.3 2.5 4.7-1.6 9.5-3.6 15-6.3 4.6-2.3 22.5-16.6 23.9-19.1 1.3-2.4 17.4-12.5 20.9-13.2 1.8-.3 4-1.5 5-2.5 2-2.3 6.6-2.6 5.8-.5-.9 2.2 1.4 2.9 9 2.7 3.9-.1 13.4-.3 21.1-.5 15.3-.3 19.9-1.5 22.9-6.1 1.1-1.7 2.5-2.5 4.5-2.5 1.5 0 7.4-1.2 13-2.6 5.6-1.4 11.4-2.4 12.9-2.2 1.8.2.2.8-4.5 1.7-4 .7-8.3 2.1-9.7 3.2-1.3 1-3.9 1.9-5.8 1.9-4.5 0-6.2 1.2-5.3 3.9.4 1.5 1.8 2.3 4.6 2.7 4.8.8 5.8 2 2.7 3.4-1.6.8-5.3.8-11.5.2-8.2-.8-19-.1-21.5 1.4-1.6 1-.7 3.4 2 4.9 2.6 1.5 2.3 1.5-5.5.9-6.3-.5-9.4-.2-13.5 1.1-8.8 2.8-11.8 4.4-11.8 6.5 0 2.2-.4 2.6-5 3.5l-3.5.6 3.2-2.6c1.8-1.5 3.3-3 3.3-3.4 0-.4-1.8-1.6-4.1-2.6-3.5-1.6-4.8-1.7-9.5-.7-7.8 1.6-15.5 6.3-23.7 14.6-6.7 6.7-7.8 7.4-15.7 9.8-4.7 1.5-10.3 2.9-12.5 3.3-5.9.9-11.1 2.4-18.8 5.3-5.9 2.2-7.2 2.4-10.1 1.4-4.6-1.7-8.8-1.5-11.6.5-1.9 1.4-4.2 1.8-9.7 1.6l-7.3-.2v6.8l6.8-.5c3.7-.2 7.6-.5 8.7-.7 1.1-.1 5 .2 8.6.7 6.8.8 14.9-.7 20.9-3.9 4.2-2.3 20.7-8.5 29-10.9 10-2.9 15.9-6.4 20.6-12.2 3.4-4.1 11.5-9.4 14.5-9.4.7 0 .3 1-.9 2.3-2.6 2.8-2.7 4-.7 5.7 1.3 1.1 1 1.5-2.2 3-2.1.9-6.6 3.8-9.9 6.4-4.5 3.3-7.1 4.6-9.5 4.6-3.7 0-12.1 3.6-17.2 7.3-1.7 1.3-5.9 2.9-9.2 3.6-11.8 2.4-19.1 4.4-22.7 6.2-2.1 1.1-4.7 1.9-5.8 1.9-1.2 0-3 .5-4 1-1.3.7-3.6.6-7.5-.5-5.3-1.3-6.1-1.3-12.6.7L0 795.4V811.7l250 .1 250 .1v-2.4c0-2.5 0-2.5-10.2-2.5-22.2-.1-42.5-1.2-48.3-2.7-3.3-.8-7.6-1.9-9.5-2.4-1.9-.4-5.5-1.7-8-2.8-2.5-1-8.1-2.5-12.5-3.1-4.4-.7-8.8-1.6-9.7-2.1-1-.5-8.3-.9-16.3-.9-10.3 0-17.3-.6-24.7-2-5.7-1.1-11.2-2-12.4-2-1.1 0-2.9-.6-3.9-1.4-1.8-1.3-1-1.4 7-1.5 4.9 0 9.3.3 9.7.5.5.3 6.3.8 12.9 1 9.8.4 13.1.1 18.2-1.4 9.6-2.9 25.5-1.3 38.2 3.8 1.8.8 6.2 1.8 14.8 3.5 1.5.3 2.7 1.1 2.6 1.8-.4 2.9.4 3.5 6.2 4.1 4.2.4 6.6 1.2 7.4 2.3 1.3 1.7 1.4 1.7 3.3 0 1.7-1.5 2.7-1.6 8.8-.7 3.8.5 11.3 1 16.7 1 8.8 0 9.7-.2 9.7-1.9s-1.2-1.9-16.5-2.3c-18.9-.5-20.2-1-18.5-6.8.6-1.9 1.1-5.7 1.1-8.4l.2-4.8 6.1.6c5.7.5 20.2.9 25.4.7 2-.1 2.2-.6 2.2-6.2 0-5.2-.2-6-1.4-5-1.1.9-1.5.9-1.9-.1-.4-1-.7-1.1-1.8-.1-1.9 1.9-2.8 1.6-2.2-.7.5-1.8 0-2-3.8-2.1-7.7-.1-22.4-1-22.8-1.5-.2-.2-.2-.6 0-.8.5-.5 15.3-1.6 25.7-1.8 7.7-.1 8.2-.3 8.2-2.3 0-2.1-.2-2.1-7.1-1.3-6.6.8-9 .6-7.7-.7.3-.3 3.7-1.3 7.7-2.3 5.4-1.3 7.1-2.1 7.1-3.5 0-2.2-1.1-2.1-8.4.3-5.8 2-18.6 2.8-18.6 1.2 0-.4 1.9-.6 4.3-.4 5.3.5 9.3-2.2 8.3-5.5-.8-2.6-7.5-4.3-16.4-4.3-6.7 0-10.2 1.9-10.2 5.6 0 2.4 0 2.4-8.7 2-6.6-.2-9.8-.9-12.8-2.5-5-2.7-5.8-2.6-14.9.4-8.9 3-12.7 3.1-23.2.6-19-4.5-26.3-6-32.6-6.6-6.1-.6-6.9-.9-8.1-3.5-1.4-2.8-1.4-2.8 2.2-3.4 2-.3 6.9-.6 10.9-.6 6.4 0 7.2.2 7.2 1.9s1 1.9 12.8 2c7 .1 14.1.4 15.8.7 1.6.3 6.6.1 11-.5 10.2-1.4 19-2.3 23.4-2.5 1.9-.1 4.5-.8 5.8-1.4 4.7-2.6 41.9.6 49.5 4.3 2.4 1.2 2.7 1.2 2.7-.5 0-2.1-4.7-4.2-13-5.9-8.5-1.7-37-3.2-39.1-2-6.9 3.7-49.9 7-49.9 3.9 0-.4 3-.6 6.6-.4 4.3.3 7.2 0 8.1-.8.8-.6 2.2-1.3 3.1-1.4 6.5-.9 10.6-2.2 17.2-5.6 4.1-2.1 8.1-3.8 8.8-3.8 3.7 0 15.8-4.6 22.8-8.6 9.8-5.7 13.2-6.4 17.2-3.5 5.1 3.6 7.8 4.2 13.2 2.9 4.3-1 5-1.5 5-3.5 0-1.9-.3-2.2-1.7-1.4-3.8 1.9-8.1 1.6-14.1-1.3-6.8-3.3-10-3.1-17.3.8l-4.4 2.3-5.3-4c-6.2-4.7-9.1-4.6-15.2.5-2.2 1.8-7.3 5.1-11.4 7.2-7.1 3.7-7.7 3.8-9.4 2.3-1.5-1.4-3.4-1.5-12.2-1-9.5.5-11.2.3-18.2-2.1-9.1-3.1-13.1-3.3-16.6-.7-6.8 4.8-27.6 8.7-40.9 7.7-4.3-.4-10.7-.7-14.3-.9-6.3-.2-6.4-.2-7.4-3.5-.8-2.7-1.6-3.4-5.9-4.7-2.8-.8-6.4-1.5-8-1.5-1.7 0-5.7-1.8-10-4.6-4-2.6-9.3-6-11.9-7.7-4.1-2.6-4.6-3.2-3.7-4.9.8-1.5 1.8-1.9 4-1.6 3.8.6 4.3-.4 2.9-4.7-2.5-7.4 2.9-14.1 11-13.6 1.9.1 4.2.9 5.2 1.8 2.2 1.9 5.1 1 4.4-1.4-2.4-7.9-2.6-11.7-1-16.5 2.1-6.5 5.5-12.3 10.1-17.6 6.4-7.2 22.8-11.6 29.9-7.9 3.5 1.8 7.3 5.3 9.5 8.7 1.4 2.1 1.8 2.3 3.3 1.1.9-.7 1.6-1.9 1.6-2.6 0-2 2.7-3.7 5-3 1.1.3 2.7 2 3.5 3.6 1.7 3.2 4.5 3.8 6.6 1.3 1.1-1.4 1.4-1.3 2.9.6 1.2 1.6 2.2 2 4.3 1.5 3.4-.9 3.5-3.7.5-8.5-4.5-7.1-2.1-18.7 6.1-29.8 3.8-5.2 10.7-8.7 15.1-7.7 2.1.5 3.7.1 5.9-1.6 3.8-2.8 11-2.3 14.6 1.1 2.2 2 2.5 2.1 6.6.7 4.3-1.4 4.4-1.6 4.7-6.1.4-6.1 2.6-7.7 9.6-6.9 3.3.4 6 1.3 7.6 2.9 2.4 2.1 2.7 2.2 6.5.8 5.1-1.8 15.3-.2 19.3 3 1.5 1.2 5.3 3.5 8.4 5 6.4 3 8.9 6.3 10.8 14.2 1 3.9 1.1 6.5.2 10.5-.8 4.5-.8 5.7.5 7.1 2.4 2.7.8 13.1-2.8 18.2-3.5 4.7-2.9 5.7 3.5 6.1 2.6.1 5.3.9 6.2 1.6 1.4 1.1 1.5.9 1.2-1.7-.2-1.9-1.1-3.2-2.6-3.9-1.8-.8-2.1-1.5-1.5-3 .4-1.1.8-8.5.8-16.5.1-16.1-1.5-26.1-4.8-29.8-2.5-2.7-10-7.2-12-7.2-.8 0-2.3-1.2-3.2-2.7-1.7-2.5-1.7-2.7.6-4.4 3.7-2.8 8.2-3.4 11.3-1.4 2.6 1.7 2.8 1.7 7.1-.5 4.2-2.1 4.5-2.6 4.5-6.2 0-2.9-.3-3.7-1.2-3.1-.7.4-4.5.9-8.5 1.1-8.1.4-15.3-2-17.2-5.7-1-1.8-1.8-2-5.6-1.6-9.6 1.2-17.4-3.6-14.5-8.9 1.5-3 .9-4.2-2.9-4.9-7.5-1.5-11.9-10.6-8.3-17.6 2.5-4.9 7.2-7.1 14.9-7.1 5.2 0 6.6.4 9.3 2.7l3.2 2.7 1.9-2.5c1.2-1.5 1.6-3.3 1.2-4.9-.3-1.4-.6-2.7-.5-3 .1-5 .6-6.6 3.1-9.1 2.4-2.3 3.8-2.9 7.3-2.9 5.2 0 8.8 2.2 8.8 5.4 0 3.7 2.3 5.1 6 3.5l3-1.4V486l-2.5.6c-5.5 1.4-6.9-3.2-3.5-11 2.4-5.2 2.1-13.7-.6-21.3-1.7-4.7-8.4-11.3-11.4-11.3-2.9 0-2.4 1.7.9 3.5 5.4 2.8 8.5 8 8.9 15.2.3 3.9-.1 8.2-.9 10.7-1.3 4.1-7 12.6-10.6 15.8-5.2 4.7-21.1 6.5-27.6 3.2-5.7-3-11.3-7.4-13.1-10.4-2-3.5-3.6-3.8-6-1.1-4.4 4.8-15.8 2.7-23-4.2-3.5-3.4-4.6-5.1-5.1-8.8-.9-6.2.5-8.6 5.8-9.9 6.3-1.6 12.7-4.8 12.7-6.4 0-.8.6-1.6 1.3-1.9.6-.2.8-.8.4-1.3s-1.1-.4-1.5.1c-1.6 2.3-9.3 5.5-14.4 6.1-5.3.6-5.5.6-5.4-1.7.1-1.7-.4-2.3-1.4-2-5 1.2-10.9 1.2-14.3-.2-5.1-2.2-11.4-7.4-14.9-12.5-3.9-5.6-4.8-15.6-2.3-25.1 2.2-8.6 3.7-10.6 11.7-15.7 3.7-2.4 6.8-4.8 6.8-5.2 0-.5 4.7-1.2 10.4-1.5 11.4-.7 15.6-1.8 15.6-4.2 0-1.9-.8-1.9-5.3 0-3.6 1.5-15.1 2.1-18.1.9-.9-.3-1.6-1.5-1.6-2.5 0-2-.5-2.3-5.1-3.3-3.6-.8-11.6-8-14.2-13-1.9-3.6-2.2-5.6-2.2-17.1 0-7.5.5-14.8 1.3-17.2 2.2-7.4 16.9-21.3 22.5-21.3 1.6 0 3.9-1.3 5.8-3.1 3-2.9 3.6-3.1 8-2.5 5.3.7 6.3-.3 2.7-2.8-3.6-2.5-8.1-2-12.4 1.5l-3.9 3.1-2.1-2.7c-1.8-2.3-2.5-2.5-4.2-1.6-2.9 1.5-4 1.4-5.1-.7-1.1-2.1 1.6-11.1 4.2-14 1-1 1.7-2.8 1.7-3.9s.9-2.8 2.1-3.9c1.8-1.6 2-2.6 1.5-6.7-.8-5.5.4-7.7 3.8-7.7 1.2 0 3.1.7 4.2 1.5 2.7 2 3.4 1.9 3.4-.9 0-3.3-3.5-5.6-8.3-5.6-4.4 0-4.3.7-.8-9 2.8-7.6 2.8-13.4-.1-15.4-1.9-1.3-2-1.6-.5-1.6 2.3 0 4-4.6 3.2-8.8l-.6-3.4 5.3.7c2.9.4 6.3 1.1 7.5 1.6 4.1 1.5 11.3-2.9 11.3-7 0-1.3.5-4 1.2-5.8.9-2.4.9-3.6.1-4.4-1.1-1.1-6.9-2.8-18.2-5.3-4.4-1-5.5-1.7-6.6-4.2-1-2.3-1-3.4.1-5.4 1.6-3.2 3.3-12.6 2.7-14.9-.2-.9.5-5 1.6-9.1s2.9-12.7 4-19c1.1-6.3 2.5-13.8 3.1-16.5 1.9-8.1 3.8-18.8 8.4-46.5 1.6-9.4 5.6-31.5 8.1-44 .7-3.6 1.8-9.9 2.5-14 .6-4.1 2-12.1 3.1-17.7 1-5.7 1.9-10.7 1.9-11.3 0-.6-4.4-1-11.4-1h-11.4l-.7 3.7zm11.5-.9c0 .4-1.5 6.8-3.4 14.3-1.9 7.4-4.2 17.5-5.1 22.5-1.7 9.2-4.9 23-11.5 50.9-2.1 8.8-4.8 21.2-6 27.5-4.2 22.6-5 26.6-6.9 35.5-3.9 18.3-4.2 19-7.8 19.3-4.4.4-4.4 1.1-.8-15 1.4-6.2 3.9-18.3 5.5-26.8s3.6-17.8 4.3-20.5c.8-2.8 2-8.4 2.7-12.5.7-4.1 2.8-14.5 4.7-23 1.8-8.5 4.5-20.5 5.8-26.5 1.3-6.1 2.8-12.1 3.3-13.5.5-1.4 2.6-8.8 4.6-16.5 2.1-7.7 3.9-14.6 4.1-15.3.5-1.3 6.5-1.7 6.5-.4zm7 1.1c0 .5-.5 2.2-1.2 3.8-.6 1.5-1 3.4-.9 4.1.1.8-.3 3.7-.9 6.5-.6 2.9-1.4 7.2-1.6 9.7-.3 2.5-1 6.3-1.6 8.5-.6 2.2-1.9 8.9-2.9 15-1 6-2.8 16.2-4 22.5-1.2 6.3-2.4 13.2-2.6 15.2-.3 2.1-.9 3.5-1.4 3.2-.5-.3-.7.1-.4.8.9 2.2-1.2 16.6-4.5 31.8-1.8 8-3.6 17.5-4 21.2-.5 3.7-1.5 9.3-2.4 12.5-.8 3.2-2 8.2-2.6 11-.7 2.9-1.4 5.3-1.6 5.3-.3 0-1.9-.7-3.6-1.6-2.8-1.5-3-1.8-2.3-5.2.4-2.1.8-4.6 1-5.7.8-5.4 1.9-8.7 3.1-9.2.8-.3 1.4-1.5 1.4-2.7 0-1.7-.2-1.8-1-.6-.5.8-1 1-1 .4s.3-1.4.8-1.8c.8-.9.9-1.3 1.1-6.6.1-3.8.2-4 2.2-2.9 1.7.8 2.3.8 3-.2 1.1-1.9 0-3.2-2.2-2.6-1.4.4-1.9 0-1.9-1.6 0-1.8.2-1.9 1.1-.7.7 1.1.8.5.4-2.1-.5-2.7-.2-4 1.1-5.3 1.3-1.4 1.4-2 .4-2.6-.9-.6-1-1.6-.2-4.1.6-1.9 1-4.8 1-6.6.1-1.7.8-5.2 1.6-7.7.9-2.6 1.6-5.4 1.6-6.4 0-1.5.2-1.5 1-.2.6.9 1 1 1 .3 0-.6-.5-1.5-1-1.8-.7-.4-.7-1.2 0-2.5 1-1.8 5.8-20.9 6.6-26 1-6.1 2.9-14 3.4-14 .3 0 .6-.8.7-1.8.3-5.8 1.6-12.9 5.8-29.7 2.6-10.4 4.9-19.3 5.1-19.7.7-1.1 2.4-1 2.4.1zm-102.9 97.6c-4.2 1.9-5.2 1.9-2.7 0 1.1-.8 2.9-1.5 4-1.5 1.6.1 1.2.5-1.3 1.5zM331 113c0 .5-.4 1-1 1-.5 0-1-.5-1-1 0-.6.5-1 1-1 .6 0 1 .4 1 1zm-33 5.9c0 .6-.4 1.3-1 1.6-.5.3-1-.1-1-.9 0-.9.5-1.6 1-1.6.6 0 1 .4 1 .9zm-7 39.1c-.8.5-1.9 1-2.5 1-.5 0-.3-.5.5-1s2-1 2.5-1c.6 0 .3.5-.5 1zm-21.1 9.3c1.1 1.4.5 2.7-1.2 2.7-.5 0-.7-.6-.4-1.4.3-.8.1-1.7-.6-2-.8-.3-.8-.5-.1-.5.6-.1 1.7.5 2.3 1.2zm2.7 6.2c.1.8-.1 1.7-.5 1.9-.4.3-.8-.7-.9-2.1-.2-2.7 1-2.5 1.4.2zm-9.9 1.1c-.7.7-3.7-.7-3.7-1.7 0-.6.9-.5 2.1.1 1.1.7 1.9 1.4 1.6 1.6zm121.3 2.9l3.5 1.3-3.5.1c-4.3.1-8-.8-8-2 0-1.3 3.9-1 8 .6zm-149 .9c0 .3-.4.8-1 1.1-.5.3-1 .1-1-.4 0-.6.5-1.1 1-1.1.6 0 1 .2 1 .4zm4.8 1.8c-.6 3-5.7 3.8-7.8 1.3-1.1-1.3-.8-1.5 2.4-1.1 2 .3 3.6.1 3.6-.4 0-.6.5-1 1-1 .6 0 .9.6.8 1.2zm28.7-.3c.3.5.1 1.2-.5 1.6-.5.3-1-.1-1-.9 0-1.8.6-2.1 1.5-.7zm-3.1 1.6c-.4.8-.8 1.5-1 1.5-.2 0-.4-.7-.4-1.5s.4-1.5 1-1.5c.5 0 .7.7.4 1.5zm116.5 1.1c3.9 1.5 5.9 4.3 4.6 6.4-.4.6-.1 1.8.6 2.6 1.8 2.1-.6 3.5-3.9 2.3-1.3-.5-2.7-.7-3.2-.4-.4.3-2.2 0-4-.7-2.6-.9-2.9-1.3-1.7-2 .9-.4 1.9-2.9 2.3-5.3.3-2.5.8-4.5 1-4.5.2 0 2.2.7 4.3 1.6zM257 184c0 .5-.2 1-.4 1-.3 0-.8-.5-1.1-1-.3-.6-.1-1 .4-1 .6 0 1.1.4 1.1 1zm6 1.4c.9 2.6.3 6.6-1.1 6.6-.5 0-.8.3-.8.7.3 2-.3 2.2-1.9.5-1.1-.9-1.7-2.1-1.4-2.6.3-.5-.3-.6-1.3-.2-1.5.5-1.6.4-.5-.9.7-.8 1.6-1.2 2.1-.9.5.3.9 0 .9-.6 0-.7-.8-.9-1.9-.5-1.1.3-2.2.1-2.6-.5-.6-.9.9-1.4 4.2-1.3.6 0 .9-.6.6-1.3-.3-.8.1-1.4 1.1-1.4.9 0 2.1 1.1 2.6 2.4zm-12.1 3.7c-.9.5-1.5.4-1.8-.2-.2-.6.3-1.5 1-2 .9-.5 1.5-.4 1.8.2.2.6-.3 1.5-1 2zm28.3 2.6c.7.9.7 1.3 0 1.3-1.2 0-2.2-2.5-2.1-4.8.1-1.3.3-1.2.6.3.3 1.1 1 2.6 1.5 3.2zm-7.9-.7c2.1 2.5 2.2 3.7.1 1.9-1.4-1.1-1.9-.9-3.6 1.1l-2 2.5.6-2.5c.3-1.4.6-3.1.6-3.8 0-1.9 2.3-1.4 4.3.8zm-20.3 2c0 .5-.5 1-1.1 1-.5 0-.7-.5-.4-1 .3-.6.8-1 1.1-1 .2 0 .4.4.4 1zm14 1.2c0 1.6-.3 1.9-1.1 1.1-.6-.6-.8-1.6-.5-2.2 1.1-1.7 1.6-1.3 1.6 1.1zm19.6.4c-.3.8.6 2.1 2.1 3.1 2.4 1.6 2.6 1.6 4-.3 1.4-1.9 1.4-1.9 2.9.1 1.4 1.8 1.3 2.2-.8 3.8-1.8 1.5-1.9 2-.7 2.8 1.2.7.8 1.1-1.1 1.1-1.1 0-5 5.7-4.2 6.2.4.2 3.1-.9 6-2.6 5.9-3.4 8.5-7.3 8.4-13-.1-3.6.1-3.8 2.6-3.2 4.7 1 5.2 1.3 5.2 3.3 0 4.2-4 14.3-7 17.7-3.5 4.1-3.6 5.1-.6 16.3 1.6 5.8 1.6 11.7-.1 14.5-.3.5-1.5-2.9-2.7-7.5-1.1-4.7-3.2-9.8-4.4-11.4l-2.4-3-15.3.4c-10.6.2-15.9-.1-17.5-.9-3-1.6-10.7-7.4-15.1-11.5-1.9-1.8-4.5-3.8-5.7-4.4-2.4-1.3-2.9-3.6-1-4.8.7-.4 3.4-1 6-1.3 3.7-.5 4.5-.4 3.7.6-.7.9-.1 2.3 2.5 5.1 5.1 5.7 15 8.8 25.3 8 8.3-.6 11.2-2 7.2-3.6-2.3-.9-2.2-.9.8-.9 1.7.1 3.9-.7 4.8-1.6 1.6-1.6 1.5-1.6-1.1-1-1.6.3-3.9.7-5.1.8-1.3 0-2.3.8-2.3 1.6 0 1.2-.2 1.2-.9.1-.7-1-1.3-1.1-3-.2-2 1.1-2.1 1-1.5-1.6 1-4.1 1.3-4.4 3.5-3.2 1.1.6 2.7.8 3.4.5.9-.3 1.2 0 .8 1-.3.7-.1 1.4.5 1.4 1 0 2.6-4.9 1.8-5.7-.2-.2-1.3.1-2.4.8-1.6 1-2.3 1-3.6-.4-1.6-1.5-2.2-3.7-1-3.7.3 0 1.5 1 2.6 2.2l2 2.3-.5-2.2c-.4-1.6-.1-2 1-1.6 1.2.5 1.4.1.8-1.5-.4-1.4-.2-2.2.6-2.2s.8-.4-.1-1.5c-1.1-1.3-1-1.4.4-.9 1 .4 1.5 1.3 1.2 2zm-27.1-.6c-.3.5-1.2 1-1.8 1-.7 0-.6-.4.3-1 1.9-1.2 2.3-1.2 1.5 0zm19.8 2.3c-.2.4-1.1.3-1.9-.4-1.2-1-1.2-1.4-.2-2 1.3-.9 3 1 2.1 2.4zm105.5.4c7.6 1.7 8.8 2.4 7.8 4.9-.5 1.3-1.1 1.2-3.7-.7-2.1-1.4-4.9-2.3-8.2-2.5-5-.2-9.7-2-9.7-3.5 0-.9 3.1-.5 13.8 1.8zm-128.2.8c.2 1-.2 2.5-.7 3.1-.7.8-.6 1.4.1 1.7.6.3.5.4-.2.3-.7-.2-1.3-1-1.3-1.9 0-.8-.4-1.9-.8-2.3-.4-.4-.7-1.4-.7-2.1 0-2.2 3.3-1.1 3.6 1.2zm63.5-1.4c1.9 1 1.9 1-.1 3.9-1.1 1.5-2 3.3-2 3.8s-.7 1.2-1.5 1.6c-.8.3-2 1.7-2.5 3.1-.5 1.4-1.4 2.5-2 2.5-.7 0-.5-1 .3-2.8.8-1.5 2-5.1 2.7-8 1.3-5.4 1.8-5.9 5.1-4.1zm28.4.5c3.9.8 10.1 2.2 13.9 2.9 7.8 1.6 9.4 2.5 4.7 2.5-2.6 0-3.6.7-5.3 3.6-2 3.4-2.4 3.6-6.1 3.1-2.1-.3-7-1.6-10.9-2.8l-6.9-2.3.6-3.5c1.1-5.9.4-5.7 10-3.5zm-88.3 2.1c-.5 2.5-.6 2.5-1.9.7-1.2-1.6-1.1-1.9.4-2.6 1-.3 1.9-.7 1.9-.7.1-.1-.1 1.1-.4 2.6zm14.3-1.7c.3.5.1 1-.4 1-.6 0-1.1-.5-1.1-1 0-.6.2-1 .4-1 .3 0 .8.4 1.1 1zm24.2 3.2c-.3.7-.5.2-.5-1.2s.2-1.9.5-1.3c.2.7.2 1.9 0 2.5zm-25.3.4c.5 1.2-.1 1.5-2.7 1.2-1.7-.2-3-.8-2.7-1.3.3-.6.8-.9 1.3-.8.4.2.7-.1.7-.7 0-1.4 2.7-.1 3.4 1.6zm-10.4 0c0 .8-.4 1.2-1 .9-.5-.3-1-1-1-1.6 0-.5.5-.9 1-.9.6 0 1 .7 1 1.6zm5 1.8c0 .3-.4.8-1 1.1-.5.3-1 .1-1-.4 0-.6.5-1.1 1-1.1.6 0 1 .2 1 .4zm2.2 1.8c-.7.7-1.2 1.9-1.1 2.7 0 1 .2 1.1.5.4.3-.7 1.2-.9 2.1-.6.8.3 1.9 0 2.5-.8.6-1 .7-.6.2 1.1-.9 3.3-.5 3.2-6.3 2.4-5.7-.7-6.1-1.9-1.5-4.5 3.4-2.1 5.3-2.4 3.6-.7zm53.7-.5c-.1.5-.1 1 .1 1.3.1.3.3 2.1.6 4.1.3 2.7 0 3.8-1.1 4.3-1 .4-1.5-.1-1.5-1.5 0-1.1-.5-2.9-1-4-.8-1.4-.7-1.9.1-1.9.6 0 .9-.7.5-1.5-.3-.9 0-1.5.9-1.5.8 0 1.4.3 1.4.7zM259 206c0 .5-.2 1-.4 1-.3 0-.8-.5-1.1-1-.3-.6-.1-1 .4-1 .6 0 1.1.4 1.1 1zm127 1.1c0 .5-.2.9-.4.9s-1.3.3-2.3.7c-1.5.6-1.6.4-.6-.9.7-.8 1-1.8.6-2.2-.4-.4 0-.4 1 0 .9.3 1.7 1 1.7 1.5zm28.5 5c.5.6.5 1.3-.3 2.1-.7.7-1.2 2.4-1.2 3.9s-.3 3-.8 3.3c-.8.5-9.9-1.5-14.8-3.4-2.5-.9-3.3-1.9-3.7-4.3-.3-1.8-.8-4.2-1.2-5.3l-.7-2.1 10.9 2.5c5.9 1.3 11.2 2.8 11.8 3.3zm-178.4-3.3c5.8 3.8 14.8 10.2 16 11.4 5.3 5.2 7.9 6.1 17.5 6 9.1 0 10.4.4 8.5 2.3-.6.6-.1 1 1.5 1 1.8 0 2.4-.4 2.1-1.7-.4-1.3.3-1.6 4-1.5 4.3 0 4.4.1 7.1 5.6 3.1 6.5 3.4 8.7 1.6 10.2-1.8 1.5-1.8 4.3 0 3.6 1.6-.6 5 3 3.6 3.8-.6.4-1 .1-1-.4 0-.6-.5-1.1-1-1.1-.6 0-.9.3-.9.7.3 2-.3 2.3-2.1 1.3-1.7-.9-2-.8-2 .7 0 1.6.7 1.8 4 1.5 2.2-.2 4-.9 4-1.4 0-.6 1-.8 2.2-.5 1.2.4 2.7.2 3.4-.4.8-.7 1.4-.7 1.9.1.3.5-.1 1-.9 1s-1.8.5-2.2 1.2c-.4.7-.3.8.4.4.9-.5 1.2.8 1.2 4.3 0 3.4-.4 5.1-1.2 5.2-1 0-1 .2 0 .6 1 .4 1 .8 0 2.1-.7.9-.8 1.3-.2.9.7-.4 1.4.2 1.7 1.5.7 2.7-.1 3.8-1.3 1.8-.7-1.1-1.1-1.1-2.4-.1-1.3 1.1-1.6 1.1-1.6-.3 0-.9.6-1.6 1.3-1.6.7-.1.5-.6-.6-1.4-1.6-1.2-1.6-1.5-.2-2.9 2-2 1.9-4.3-.1-5.1-2.1-.8-3.3.2-1.5 1.3 1 .7 1 1.2 0 2.9-.7 1.1-1.8 1.8-2.4 1.5-1.5-.5-1.2 4.2.4 6.1.6.7.8 1.6.4 1.9-.3.4.6.7 2.1.7 4.6 0 6.6 1.7 6.6 5.5 0 1.9-.4 3.5-1 3.5-.5 0-.9-.3-.9-.8.4-2.4-.3-3.4-2.1-2.9-1.1.3-2 .1-2-.4s-.9-.4-1.9.3c-2.4 1.5-1 3.7 2.3 3.8 7.4.2 9.5.5 8.8 1.2-1.7 1.7-8.9 1.8-10.2.3-.7-.8-2.1-1.5-3.2-1.5-1.2 0-1.7-.4-1.2-1.3.6-1 .4-1-.7 0-.7.7-2.8 1.3-4.6 1.3-2.5 0-3.8-.8-6-3.5-1.5-1.9-3.4-3.5-4-3.5-.7 0-1.3-.4-1.3-.9s-1.3-1.1-3-1.4c-1.9-.4-3.5-1.7-4.5-3.7-.8-1.6-2-3-2.5-3s-2.2-1.9-3.6-4.3c-5.9-9.3-14.8-18-18.1-17.7-.5.1-1.1-.9-1.5-2.2-.4-1.6-.6-1.8-.7-.6-.1 1-.4 1.8-.7 1.8-.9 0-5-3.4-5.2-4.3-.1-.4-.2-1.4-.2-2.4 0-1.4-.2-1.4-2.1.2-2 1.9-2 1.9-1.2-.5 1-3.1 1.1-6.6 0-6.3-.4.2-1.4.3-2.3.3-.8 0-1.3.4-.9.9.7 1.2-2.2 4.1-4.1 4.1-.8 0-1.4.5-1.4 1.1 0 .8-.5.7-1.5-.1-1.3-1.1-1.4-1-1 .2.4 1.1-.3 1.9-2.6 2.7-1.8.6-2.9 1.4-2.6 1.7.3.4 0 1.9-.8 3.5-1.7 3.2-1.9 7.7-.5 9.9.6 1 0 3.1-2 7-1.5 3-3 6.3-3.4 7.2-.8 2.7-5.2 2.3-7.2-.7-1.8-2.8-1.4-10.3 1.2-21.2.9-3.4 1.5-7 1.4-8-.5-4.1.1-6.3 1.5-6.3.8 0 1.2-.6.9-1.3-.5-1.5 4-12.4 6.3-14.9.9-1 2-1.5 2.6-1.1.5.3.7.1.4-.4-.8-1.2 1.9-3.8 5.3-5.2 3.9-1.5 9.3-1.3 12.1.7zm77.8 5c.5 1 .9 3.2.9 4.9-.1 1.6.2 3.5.6 4.2 1.1 1.7-.3 1.3-3.1-.9-2.7-2.1-4.3-1.9-4.3.6 0 2-2.6 1.8-3.5-.4-2.7-6.1 6.3-14.1 9.4-8.4zm12.9.7c1.6 3.5 1.5 4-.5 2.4-1.7-1.3-1.7-1.3 0 .7.9 1.1 1.4 2.4 1 2.8-.5.4.5.4 2.1 0 2.6-.6 2.7-.5 1.7 1.5-.7 1.1-2.1 2.1-3.1 2.1-1.1 0-2.3 0-2.7.1-.4 0-.9-.4-1.1-1-.2-.6.3-.8 1.2-.5 1.2.5 1.5.2 1-1-.3-.9-1-1.6-1.5-1.6s-.9-.6-.9-1.4c0-.8-.4-1.6-.9-1.8-1.1-.4.5-4.8 1.7-4.8.5 0 1.4 1.1 2 2.5zm11-.3c-.9.7-1.7 1.8-1.9 2.4-.3.7-1.2.3-2.4-.9-1.1-1.1-1.5-1.7-.8-1.3.6.3 1.4.2 1.8-.4.3-.5 1.6-1 2.8-1 1.8 0 1.9.1.5 1.2zm16.1.9c3.8 1.1 4.9 2.6 4 5.4-.1.5-.4 3.2-.6 6-.3 6.9-1.6 12.8-2.8 13.2-2.3.7-8.4-20-7.6-26.1.1-.4.7-.6 1.5-.3s3.2 1.1 5.5 1.8zm-23.4 2.9c.3.5.1 1-.4 1-.6 0-1.1-.5-1.1-1 0-.6.2-1 .4-1 .3 0 .8.4 1.1 1zm11.5 4.9c0 .5-.7 1.1-1.5 1.5-1.5.5-2-.5-.8-1.7.9-1 2.3-.9 2.3.2zm-34.5 5c-.6.5-2.5-1-2.5-2 0-.5.6-.4 1.4.3.8.7 1.2 1.5 1.1 1.7zm25.2 1.3c-.3.8-.6.5-.6-.6-.1-1.1.2-1.7.5-1.3.3.3.4 1.2.1 1.9zm11 5.4c-.3.3-1.2.4-1.9.1-.8-.3-.5-.6.6-.6 1.1-.1 1.7.2 1.3.5zm22.7 2.6c-.9 1.4-5.4.9-5.4-.5 0-.8.2-1.6.5-1.9.8-.8 5.4 1.5 4.9 2.4zM231 236c0 .5-.4 1-.9 1-.6 0-1.3-.5-1.6-1-.3-.6.1-1 .9-1 .9 0 1.6.4 1.6 1zm147.6 3.2c-.3 1.3-.6 3-.6 3.8-.1.8-.6.4-1.1-.9-1.1-2.8-.5-5.1 1.2-5.1.7 0 .9.9.5 2.2zm-28.1.9c1.1 1.7-.5 2.4-2.6 1.1-1.7-1.1-2.4-1.1-3.7 0-1.5 1.2-1.6 1.1-.3-.5 1.5-1.9 5.6-2.3 6.6-.6zm-114 3.9c1 1.1 4.3 2.9 7.4 4 8.8 3.3 16.5 12.1 16.7 19 0 2.7 1.1 5.2 3.8 8.9 2.1 2.8 4.3 5.1 4.9 5.1.6 0 2-.9 3.2-2l2.2-2 2.6 2c2.6 2 2.6 2.3 1.2 5-1.9 3.7-2 14.9-.1 17.5 1.6 2.2 4.6 1.4 4.6-1.4 0-3 1.1-5.1 2.6-5.1.8 0 2-1.1 2.6-2.5 1.6-3.5 0-5-3.6-3.4-3.2 1.5-3.9.9-3.1-2.3.6-2.3 1-2.4 7.2-2.2 8.5.3 9.5 1.3 5.5 5.8-3.4 3.9-3.4 5.8.4 7.4 1.5.8 2.4 2 2.4 3.5 0 2.4 3.2 6.2 4.3 5.1.3-.3.3-2.7 0-5.3-.5-4.6-.3-5 4.3-10.2 3.3-3.8 6.4-6.1 10.3-7.7 3-1.2 6.3-3 7.4-4 2-1.6 2-1.6 1.2.3-1.4 3-1 8.6.8 12.7 1.2 2.8 2.8 4.3 6.1 5.9 2.8 1.3 4.6 2.8 4.6 3.8-.1 1.4-.2 1.4-1.1-.2-1.3-2.3-5-2.2-5.6.1-.3 1.4-1.1 1.8-2.9 1.4-1.6-.3-2.6.1-3 1.2-.3.9-1.7 1.6-3 1.6-1.2 0-3 1-3.9 2.2-1.5 2.2-1.4 2.4.6 4 1.6 1.4 1.7 1.8.6 1.8-.8 0-2.2.3-3 .6-1.1.4-1.6-.2-1.9-2.3-.2-2.3-.7-2.8-2.8-2.5-3.1.3-5.2 3-4.4 5.5.4 1.2-.1 2.4-1.3 3.2-2.7 2.1-4.6 1.9-3.8-.5.8-2.5-2-3.8-4.5-2.2-1.4.9-2 .8-2.4-.5-.4-.9-.4-2.4-.1-3.4.8-2.5-.3-2.4-3.2.3-3 2.8-2.9 5.9.2 9.6 3 3.6 3.1 4.2.5 4.2-1.1 0-3.5.9-5.5 2-3.2 1.8-9.5 2.8-9.5 1.5 0-.3.7-1.7 1.6-3 2-3.1 1.3-5-2.5-7-3-1.5-3.3-1.4-7.2 1.2-3.5 2.3-4.4 2.5-6.1 1.4-2.3-1.5-3.1-1-2.2 1.3 1.1 2.7 5.2 3.1 8.4.7 2.9-2.1 5.1-2.6 6.3-1.5.3.3-1.2 2.5-3.4 4.7-2.1 2.3-3.9 4.5-3.9 4.9 0 .4-2.5.8-5.7.8-4.5 0-6.5-.6-10.3-3-2.5-1.6-5.6-4.1-6.9-5.4-1.4-1.5-2.9-2.2-3.9-1.9-1.1.5-1.4.2-1-.9.4-.8-.7-4.4-2.3-7.9-5.7-12.4-6.3-13.4-8.7-13.2-2.4.3-2.7-.8-2.2-8 .3-5.9-1.9-13.9-4.1-14.4-2.3-.6-2.4-1.1-.2-3.5 2.2-2.5.3-4.8-2.3-2.7-4.7 3.9-6.1 18.8-2.3 24.4 1.1 1.6 2.4 4 2.9 5.2.5 1.3 1.6 2.3 2.5 2.3.8 0 1.4.3 1.3.7-.1.5.4 2.6 1 4.9 1.4 4.7 4.2 7.7 6.5 6.8 1.2-.4 1.8.2 2.3 2.1.3 1.4.4 2.8.1 3.1-.3.3-2.7-.7-5.2-2.2-3.2-1.9-5.2-3.9-6.2-6.3-.8-2-2.3-4.5-3.2-5.6-1.5-1.8-5.8-12-7.6-18.3-2-6.8-.9-13.6 2.5-16.7 1.1-1 2-2.6 2-3.5 0-1 .9-2.9 2-4.3s2-3.3 2-4.3c0-.9.8-2.6 1.7-3.6 1.4-1.6 1.5-2.5.6-6.1-1.3-4.7-.3-6.8 2.1-4.8 1.3 1.1 2.1.9 4.7-1.3 3.7-3.1 5-3.2 7.4-.6zm152.5.2c0 .4-.7.8-1.5.8s-1.5-.4-1.5-.8c0-.5.7-.9 1.5-.9s1.5.4 1.5.9zm-79 6.4c0 .8-.5 1.2-1 .9-.6-.4-.8-1.1-.5-1.6.9-1.4 1.5-1.1 1.5.7zm.8 7.8c0 2.4-.1 2.4-2.1.6-1.2-1.2-1.7-2.5-1.3-3.6.9-2.3 3.4-.1 3.4 3zm28.1.6c-.6 1.6-1.2 3-1.4 3-.2 0-.3-1.4-.3-3 .1-1.7.6-3 1.4-3 1 0 1.1.7.3 3zm-2.5 6.5c-.4.8-.8 1.5-1 1.5-.2 0-.4-.7-.4-1.5s.4-1.5 1-1.5c.5 0 .7.7.4 1.5zm45.6 1.6c0 1.1-.4 1.8-1 1.4-.5-.3-.7-1.2-.3-2 .7-2.1 1.3-1.9 1.3.6zm-53.3 3.6c-.3 1-.5.4-.5-1.2 0-1.7.2-2.4.5-1.8.2.7.2 2.1 0 3zm-61.4 1.3c.4 1.7.3 1.9-.9.9-.8-.6-1.4-1.8-1.4-2.6 0-2 1.6-.8 2.3 1.7zm102.2-1.3c-.3 1-1.1 3.7-1.8 6-.9 3.5-1.6 4.3-3.4 4.3-1.9 0-2.3.5-2.3 3 0 1.9.7 3.3 1.9 4 1.8.9 1.8 1.2.5 4-2 3.8-2.9 4.3-5.3 2.8-2.8-1.7-5.1.3-3.1 2.7.7.8.8 1.5.4 1.5-2.1 0-3.4-4-2.7-8.5.4-3.3 1.4-5.2 3.4-7 1.6-1.3 2.9-2.8 2.9-3.3 0-1.5 7.9-11.2 9.1-11.2.7 0 .8.7.4 1.7zm-14.2 8.6c-3 4.4-11.3 10.7-14.2 10.7-.9 0-.2-.7 1.5-1.6 1.7-.8 3.5-2.5 4-3.9.5-1.3 2.9-4.6 5.4-7.3 3.4-3.7 4.7-4.6 5.3-3.5.5.8-.2 2.9-2 5.6zm31.3-1.7c-.3.8-1 1.2-1.6.9-.7-.4-.6-1.4.2-2.8 1.2-2.4 2.4-.8 1.4 1.9zM315 277c0 .5-.8 1-1.7 1-1.5 0-1.6-.2-.3-1 1.9-1.2 2-1.2 2 0zm64.5 2.6c4.4 3.3 5 5.2 2.2 6.5-2.5 1.1-4.7 5.2-4.7 8.5 0 1.3-1.3 4.3-3 6.7-1.8 2.7-3 5.8-3 7.7 0 3.4-7.3 19.7-10.9 24.1-1.2 1.6-3.5 2.9-5.6 3.3-2.6.5-3.5 1.2-3.5 2.6 0 2.6-.9 2.5-4.5-.6-1.6-1.4-2.2-2.3-1.3-2 3.4 1 2.9-1.6-.8-5.1-2.6-2.3-3.4-3.8-2.6-4 .7-.3 2.2.3 3.2 1.2 1.9 1.7 4 1.3 4-.8 0-.7-1.4-2.5-3-4.1-3.5-3.4-4.1-6-.7-2.8 2.6 2.5 9.2 5.4 10.1 4.5 1.5-1.5.4-3.2-2.8-4.3-1.9-.6-4.6-2.6-6-4.5-3.4-4.4-3.3-5.5.2-2.3 3.6 3.4 6 4.5 10.2 4.9 4.4.5 4.9-2.1.6-3.2-3.6-1-8.6-4.4-10.9-7.6-2.8-3.7-1.1-4.1 2.6-.6 3.9 3.9 7.8 5 9.6 2.9 1.1-1.3.8-1.6-1.6-2.2-1.5-.4-3.6-1.4-4.6-2.3-3-2.6-7.8-10.2-7.5-11.9.5-2.8 2.6-2.4 3.3.7.9 4.1 6.6 9.7 10.6 10.3 4 .6 8.6-1.2 11.6-4.4 2.8-3 4.5-9.3 3.3-12.4-1.1-2.9 0-11.4 1.5-11.4.4 0 2.1 1.1 4 2.6zM220.9 290c0 2.6-.2 3.1-.9 2-.5-.8-.9-3.5-.9-6 .1-3.7.2-4.1.9-2 .4 1.4.8 4.1.9 6zm160.5 18.4l3.4 2.3-6.4 6.4c-6.6 6.5-7.8 6.6-4.5.1 1.1-2.1 2.2-5.5 2.6-7.5.4-2 .9-3.7 1.1-3.7.2 0 1.9 1.1 3.8 2.4zm-54.4 1.5c0 .5-1.5 1.4-3.2 2l-3.3 1.1 2.5-2c2.7-2.1 4-2.5 4-1.1zm1 8.4c0 .5-.9.7-1.9.4-2.6-.6-4.5.8-3.7 2.8.4 1.2 1.4 1.6 3.5 1.3 2.3-.3 2.7-.1 2.3 1.4-.5 1.9-2.2 2.5-2.2.8 0-.6-1-.2-2.2 1-2.7 2.5-3.8 2.5-4.5 0-.3-1.1-2-2.5-3.7-3.1-1.8-.7-3.3-1.8-3.3-2.5 0-1.7.9-1.8 2.4-.3 1.4 1.4 5.3.2 5.3-1.6 0-2.2 3.1-3.4 5.7-2.2 1.3.5 2.3 1.5 2.3 2zm-19.7 2.9c-2.5 1.2-3.3 3.5-3.3 10.5 0 2.8-.4 5.4-.9 5.7-.5.4-.7-.3-.4-1.4.3-1.1 0-2.7-.7-3.5-1-1.2-1-1.5 0-1.5.9 0 1-.3.1-1.3-.6-.8-.8-1.7-.4-2 .3-.4 0-.7-.8-.7-1-.1-.8-.5.5-1.5 1.1-.8 1.6-1.5 1-1.5-.5 0 .2-.9 1.6-2 1.4-1.1 3.2-1.9 4-1.9.9 0 .7.4-.7 1.1zm-69.5 9.3c.1 1.4-.3 2.5-.8 2.5-.6 0-1-1.1-1-2.5s.4-2.5.8-2.5.9 1.1 1 2.5zm72.4-.3c-.7.7-1.2.8-1.2.2 0-1.4 1.2-2.6 1.9-1.9.2.3-.1 1.1-.7 1.7zm5.1-1.5c-.7.2-1.9.2-2.5 0-.7-.3-.2-.5 1.2-.5s1.9.2 1.3.5zm-19.1 1.5c-2 2-1.3 3.2.8 1.3 1.1-1 2.3-1.5 2.7-1.2.3.4.1.7-.5.7-.7 0-1.1.3-1 .7 0 .5-.1 1.5-.5 2.3-2.1 5.6-2.8 10.1-2.8 18.7 0 11.6-.7 17.5-2 16.7-1.2-.7-1.1-6.1.1-6.9 1.6-1 0-2.7-2-2.2-1.3.3-1.7 0-1.3-.9.3-.9 0-1.2-.9-.9-.7.3-1.5 1.5-1.5 2.8-.1 1.2-.8 2.6-1.6 3.2-.8.5-1.3 1.9-1.1 3 .2 1.1-.2 2.3-.9 2.7-.9.6-.8.8.3.8 1.5 0 .9.5-5.8 4.1-2.7 1.5-3 1.5-2.5.1.5-1.2 0-1.4-2.8-.8-3 .5-4.3.1-9-3.3-3-2.2-6.5-4.8-7.8-5.7-1.5-1.1-1.9-1.9-1.2-2.3 1.9-1.2-2.4-4.4-4.8-3.6-1.7.5-2.3.1-3.1-2.1-.6-1.5-.7-3-.2-3.3 1.2-.9 2.4-4.3 1.2-3.6-1.4.9-1.2-.9.2-2.3.9-.9.9-1.5 0-2.4-1.6-1.6-1.5-2.8.3-2.8 1.6 0 3.6-3.9 2.8-5.3-.3-.5.3-.7 1.3-.5 1.1.2 1.8.8 1.7 1.4-.1.9 1.4 1.1 11.1 1.4 6.2.1 8-1 7-4.3-.7-2.1.2-2.1 5.5-.2 2.2.8 4.1 1 4.1.5 0-.6.8-1 1.8-1s2.8-.7 4-1.6c5.1-3.6 11-5.8 8.4-3.2zm28.8 2.3c0 .8-.4 1.5-.9 1.5s-1.6.2-2.3.5c-.9.4-1.4-.2-1.5-1.5-.1-1.5.4-2 2.3-2 1.5 0 2.4.6 2.4 1.5zm-10 2.6c0 .5-1.3.9-3 .9-2.8 0-3.8-.9-2.5-2.2.8-.8 5.5.3 5.5 1.3zm48.8 6.6c-1.4 8.3-.3 18.9 2.6 25.4 2.5 5.6 13.2 18.7 16.7 20.3 2.9 1.4 2.4 2.2-3.4 5.9-10.6 6.8-14.7 14.9-14.7 29.4 0 10.1 2.4 15.7 9.7 22.8 6 5.7 12.2 8.7 19 9.3 2.9.3 5.6.9 6 1.5.3.6.5 3.4.4 6.2-.2 6.2 1 9.7 5.3 15 6.4 7.7 20.8 12 27 8 2.6-1.7 2.6-1.7 7.2 2.5 6.7 6.2 13.8 9 22.8 9 9.7 0 16-2 20.8-6.7l3.9-3.8 2.5 2.8c1.3 1.5 2.4 3.4 2.4 4.2 0 .7 1 1.5 2.3 1.7 2 .3 2.2.9 2.5 7.9.2 5.8-.1 7.9-1.2 8.8-1.3 1.1-1.9.8-3.9-1.3-4.5-4.8-10.4-5.8-16.5-2.7-5.6 2.9-8.4 6.4-8.9 11.4l-.5 4.4-8.2-.1c-6.8-.1-8.9.3-13.1 2.5-5.9 3-8.2 6.5-9.1 14.1l-.7 5.7 5.5 5.5c3.1 3 5.8 6.6 6.2 8 1.8 7.1 11.7 13.1 17.8 10.8 2.2-.8 3-.6 4.5 1 1 1.1 3.3 2.8 5.2 3.8l3.5 1.7-3.7 1.8c-2 .9-4.1 2.2-4.6 2.9-.8.9-2.5 1.1-5.8.5-2.7-.4-6.8-.3-9.2.2-3.8.9-4.7.7-6.6-1.1-1.2-1.1-3.5-2-5.3-2-2.1 0-3.2-.5-3.2-1.4 0-.8-1.4-2.9-3.2-4.6-2.8-2.9-3.7-3.2-7.8-2.8l-4.6.5 2.3-4.5c2.9-5.8 3-12.3.1-19.9-4.4-11.9-11.5-18.7-22.8-21.8-12.5-3.4-29.3 0-36.8 7.5-2.7 2.7-4.8 3.8-7.9 4.3-3.6.4-4.3.2-4.3-1.2 0-1-.9-2.6-2.1-3.7-4.5-4.1-20.2-.5-24.7 5.6-1.8 2.4-3.1 3-7.9 3.5-11.3 1.4-17.1 5.6-21.9 16-3 6.4-3.2 13.7-.4 18.3 2.2 3.6 1.9 5.2-.9 5.2-3.3 0-13.5 5.1-15.9 7.8-4 4.8-6.4 10.1-5.7 13.2.4 1.9 0 3.8-1.3 6-1.8 2.9-2.1 3-2.6 1.2-.4-1.1-.6-2.4-.5-2.8.1-.5-.1-2.6-.6-4.8-.5-2.5-.2-7.5 1-14.5 1.3-8.3 2.4-11.8 5-16.3 1.9-3.2 3.7-7.4 4.1-9.3.3-2 2-7.1 3.6-11.3 1.6-4.2 4-11.3 5.2-15.7 2.1-7.2 4.9-16.3 13.3-43.2l2.5-8.2h5.4c9.4 0 11.4-1.2 11.4-7.3 0-4.5 2.5-5.7 7.2-3.4 6 3 14.9 1.3 17.3-3.4.8-1.6 1.5-3.5 1.5-4.1 0-.7 1.2-2.5 2.6-4l2.6-2.7-1.7-5.8c-.9-3.2-2.9-8.3-4.4-11.3-1.6-3.1-3.3-8.8-3.9-12.7-1.6-9.9-4.8-19.8-7.5-23.1-2.3-2.8-4.9-7.8-6.2-12.1-.4-1.3 0-3.5.9-5.4.9-1.7 1.6-3.7 1.6-4.5 0-.8.8-2.8 1.7-4.6 1-1.8 2-6.1 2.4-9.7.6-6.1 3.7-23.1 4.4-23.8.1-.2 1.8.7 3.8 1.8 3.3 2 3.8 2 7.1.6 2.4-1 3.6-2.2 3.6-3.4 0-1.2 1.1-2.4 2.9-3.2 1.6-.6 3.7-2 4.7-3.1 2.6-2.9 3.2-1.5 2.2 4.8zm-34.1-1.5c-.3.8-.6.5-.6-.6-.1-1.1.2-1.7.5-1.3.3.3.4 1.2.1 1.9zm-25.9.6c-.5 2.3-2.8 2.7-2.8.4 0-1 .7-1.9 1.5-1.9.9 0 1.5.7 1.3 1.5zm10.2 1.1c0 .5-1.1.8-2.5.7-3.3-.1-3.3-1.6 0-1.6 1.4 0 2.5.4 2.5.9zm19.7 9.3c-.3.8-.6.5-.6-.6-.1-1.1.2-1.7.5-1.3.3.3.4 1.2.1 1.9zM314 355c0 .5-.5 1-1.1 1-.5 0-.7-.5-.4-1 .3-.6.8-1 1.1-1 .2 0 .4.4.4 1zm18.4 9.4c-.3 2.1-.8 3.5-1.1 3.2-.2-.2-.1-2 .3-4 .3-2.1.8-3.5 1.1-3.2.2.2.1 2-.3 4zm-95.4 4.5c0 .5.8.7 1.9.4 1.2-.3 2.8.7 4.8 3.1 1.6 1.9 5.4 5.5 8.5 7.9 3.2 2.5 5.5 4.6 5.3 4.9-.2.2.5.4 1.6.5 3 .3 8.7 4.1 9.4 6.4.4 1.1.1 2.6-.5 3.4-.9 1.1-.8 2 .7 3.9 1 1.4 2.1 2.6 2.6 2.6.4 0 .7 1.6.7 3.5 0 2.4.5 3.5 1.5 3.5 1.9 0 1.9 1.6 0 2.4-.9.3-2-.5-2.9-2.2-.9-1.5-1.5-2.1-1.6-1.4 0 .7-1.1 2.3-2.5 3.6-2.8 2.6-3.2 3.8-1 3 .8-.4 1.5-.2 1.5.4 0 1.4 3 .9 4-.7.6-1 .9-1 1.5-.1.4.6.3 1.6-.3 2.2-.6.6-.8 1.7-.5 2.4.6 1.7 2.6 1.9 2.1.2-.4-1 2.5-4.8 3.6-4.8 1.4 0 3.6 3.5 3.6 5.8 0 2.1-.2 2.4-1 1.2s-1-1.2-1-.1c0 1-.9 1.2-3.2.8-1.8-.3-2.7-.3-2.1-.1 1 .4 1 .9-.1 2s-1.2 2.2-.5 4.7c.5 1.7 1.4 3.3 1.9 3.5.6.2 1 .8 1 1.4 0 .6-.6.8-1.4.5-1.9-.7-3 2.2-1.5 3.9.6.8 2.2 1.4 3.5 1.4 2.5 0 3.9 1.4 2.9 2.9-.3.6-1.7.6-3.5-.1-2.2-.7-3.4-.7-4.5.2-.8.6-1.9.9-2.5.5-1.3-.8-1.3-.9.4 4.7.8 2.5 1.1 4.9.8 5.3-.4.4.3.3 1.5-.4 3.3-1.7 6.5-1.4 6.1.6-.2 1.2-1.4 1.7-4.2 1.7-2.2.1-4.1.6-4.3 1.2-.4 1.3 5.5 4 7.7 3.5.8-.1 1.1.1.7.6-.5.4-3 .8-5.5.8-4 0-4.7.3-4.7 2 0 1.4.8 2.1 3 2.5 1.6.3 3.1 1.2 3.3 2.1.2 1.3-.6 1.6-4 1.5-3.7-.1-4.3.2-4.3 1.9 0 2.7-2 3.8-5.5 3-2.1-.5-3-1.3-3-2.7 0-1.6-.5-1.9-2-1.5-1.9.5-2 .2-1.4-3.1.8-4.2 1.4-5.4 1.4-2.6 0 1 1.3 2.6 2.8 3.5l2.9 1.6-1.3-7.1c-.7-4-2-9.8-2.9-13-1.6-5.5-1.6-6 0-9.7 1.4-3.1 1.5-4.2.6-5.3-.7-.9-1-2.4-.6-3.7.5-1.5.9-1.8 1.5-.9.5.7 1 .8 1.4.2.3-.5-.1-1.5-.9-2.2-.7-.6-1.1-1.8-.8-2.6.6-1.7-2.4-3.1-3.8-1.7-.5.5-1.2 2.3-1.5 3.9-1 5.4-1.7 3.9-1.1-2.6.3-3.6 1.2-8.7 2.1-11.3 1-2.6 1.4-5.7 1-6.9-.6-2-.6-2-2.5-.1-2 2-4.9 13.3-4.9 19.6 0 2.1-.6 5.3-1.4 7.1-1 2.5-1.1 3.7-.3 4.5.8.8.5 1.1-1 1.1-1.4 0-2.4.8-2.9 2.2-.4 1.3-1.4 2.8-2.2 3.4-1.4 1-1 3.4.7 3.4.4 0 1.6-1.6 2.7-3.5 1-1.9 2.1-3.5 2.4-3.5.3 0 .5 2.1.4 4.7-.1 2.7.4 6 1.2 7.5 1.6 3.1 1.8 6.8.4 6.8-.5 0-1 .7-1 1.6 0 .8.4 1.3.9 1 .5-.3.9 1 .9 2.9v3.5l-4.1-.6c-2.3-.4-5.2-1.1-6.4-1.5-1.3-.5-3-.6-3.9-.2-1 .4-2.5-.4-4-2.1-1.4-1.4-3.3-2.6-4.3-2.6-2.7 0-4.8-2.7-3.3-4.2.7-.7 1.2-2 1.2-3 0-2 1.5-2.4 2.6-.6.4.7.3.8-.4.4-1.6-1-1.6 3.2.1 4.7 1.6 1.5 5.3 1.5 6.9-.1.9-.9.8-1.6-.5-3-1.2-1.3-1.4-2.1-.6-2.9 1.6-1.6-1.7-4.3-5.2-4.3-3.3 0-3.3 0-1.7-8.6 1.1-6.2 1.1-6.3 4.1-5.7 2.5.5 2.8.3 2.5-1.3-.2-1.1-1.3-2-2.6-2.2-2.6-.4-2.8-1.5-.6-3.7.9-.9 2.4-1.3 3.5-1 1 .4 2 .2 2.1-.4.4-3.1.1-3.6-2.3-4.1-2.3-.4-2.5-.8-1.8-2.8.6-1.4 1.7-2.2 3.3-2.2 3.4 0 4.1-1.6 2-4.8-1.4-2.1-1.4-2.4-.2-1.4 1.3 1 1.6.9 2.1-.9s.9-2 2.1-1c1.2 1 1.4.9 1-.7-.3-1 .1-2.4 1-3.1.8-.7 1.2-2 .9-2.8-.5-1.4-.7-1.4-1.2-.2-.5 1.1-1.1 1-2.9-.8l-2.3-2.1 3.8.3c2.1.2 4.5 0 5.3-.6 1.2-.8 1-.9-.6-.4-1.7.4-2.3 0-2.8-1.9-.3-1.4-1.5-3-2.6-3.6-1.1-.6-2-1.7-2-2.5 0-1.7-.2-1.7-2.4-.9-.9.3-1.6 1.3-1.6 2.2 0 .8-.3 1.2-.7.9-1.1-1.2 2.9-8.8 4.4-8.3.7.3 1.3.1 1.3-.4 0-.6-.6-1-1.2-1-.8 0-.5-.7.6-1.5 2.1-1.6 2.4-6.1.6-9.4-1.3-2.6-3.8-2.7-4.7-.4-.4 1-1.3 2.3-2.1 2.9-1.8 1.3-.7 5.8 1.1 4.8.7-.4.8-.3.4.1-.4.5-2 .9-3.4 1-3.2 0-4.3 2.4-1.4 3.2 1.2.3 2.1 1 2.1 1.5 0 1.4-4.9 11-6.6 12.9-.8.9-1.1 1.8-.8 2.1 1.1 1.2-2.7 7-4.2 6.4-1.1-.4-1.3-.2-.5 1.1 1.1 2-2.1 11-4.6 12.8-1 .7-1.4 1.9-1 2.9.5 1.1.3 1.5-.5 1s-.9 0-.5 1.6c.4 1.4-.2 3.9-1.5 6.4-1.2 2.3-2 4.2-1.9 4.3.6 1.1-.1 3.3-1 3.3-.7 0-.9-1-.4-2.8.4-1.5.8-3.4.9-4.2 0-.8.7-1.7 1.3-2 1-.4.9-1.2-.2-3.4-1.4-2.7-1.4-3 .6-4.4 1.3-.9 1.9-2.1 1.6-3.3-.3-1.1-.1-1.9.4-1.9s.9.5.9 1.1c0 .8.5.8 1.5-.1 1.7-1.4 2.1-3.5.5-2.5-.5.3-1 .1-1-.4 0-.6.4-1.1 1-1.1.5 0 .7-.7.4-1.5-.4-.8-1-1.2-1.5-.9-.5.3-.9-.2-.9-1 0-.9.5-1.6 1-1.6.6 0 1-1.3 1-3s.9-3.8 2.2-5c1.8-1.6 2-2.2.9-3.3-1.1-.9-1.4-.9-1.8 0-.3.7-.8 1.3-1.3 1.3-1.2 0-.5-3.3.8-3.8.7-.2 1.2-1.1 1.2-1.9 0-1.2.3-1.3 1.3-.4.8.6 1.7.8 2 .4 1.2-1.1.8-2.3-.8-2.3-1.7 0-2-1.6-.5-2.5.6-.3 1-.1 1 .6s.3.9.6.6c.4-.4.2-1.2-.4-2-.9-1-.3-2.6 2.3-6.8 1.9-2.9 3.9-6.4 4.4-7.6 1.4-3 2.9-3.7 4.8-2.1 1.4 1.1 1.6 1.1.9-.1-.5-.8-.3-1.7.5-2.2 1.8-1.1 5.9-1.1 5.9 0zm94.4 6.5c-.3.8-1.2 1.7-2.1 2-1.1.5-1.3.2-.9-1 .3-.9.9-2.8 1.3-4.2.6-2.5.6-2.5 1.4-.4.5 1.2.6 2.8.3 3.6zm-20.4-2.3c0 .5-1 .9-2.1.9-1.8 0-1.9-.2-.9-1.5 1.2-1.5 3-1.2 3 .6zm-16.5.9c-.3.5-1.2 1-1.8 1-.7 0-.6-.4.3-1 1.9-1.2 2.3-1.2 1.5 0zm6.5 4.4c0 .8-.4 1.8-1 2.1-.5.3-1-.3-1-1.4 0-1.2.5-2.1 1-2.1.6 0 1 .6 1 1.4zm6.4 2.9c-.8.4-1.4 1.9-1.4 3.2 0 1.4-.4 2.5-1 2.5-1.3 0-1.3-3.3.1-6.4.9-1.9 1.4-2.2 2.4-1.3 1 1 1 1.4-.1 2zM318 380c0 .5-.4 1-1 1-.5 0-1-.5-1-1 0-.6.5-1 1-1 .6 0 1 .4 1 1zm-42 17.1c-1.2 4.1-1.8 4.6-2.7 2.4-.4-1.1-.2-2 .5-2.3.7-.2 1.2-1 1.2-1.8s.4-1.4.9-1.4c.6 0 .6 1.2.1 3.1zm4.8 1.3c-.4 3.1-3.8 3.4-3.8.3 0-2.9.7-3.7 2.7-3 .8.3 1.3 1.5 1.1 2.7zm-50.8-1.1c0 .7-.7 2.2-1.5 3.3-.8 1.2-1.2 2.4-.9 2.7.3.2-.2 2.9-1 5.8-.8 3-1.7 6.5-2 7.9-.9 4.5-5.4 19.5-5.5 18.2-.1-.7-.8-1.2-1.7-1-1 .2-1.9-.3-2.2-1.1-.3-1 0-1.2 1.1-.8 1.1.4 1.4.2 1-.9-.3-.8.1-1.4 1.1-1.4.9 0 1.6-.5 1.6-1.1 0-.5-.4-.8-.9-.5-.5.3-1.4-.1-2.1-1-1-1.1-1-1.8-.2-2.6.9-.9 1.2-.7 1.3.7 0 1.7.2 1.7 1.2-.4.9-1.9.9-2.5-.1-2.9-1.8-.6-1.5-2 .5-2.4 1.4-.2 1.8-1.4 1.9-5.1.1-2.6.6-5.3 1.2-6 .6-.7 2-3.8 3.2-7 2-5.2 4-7.5 4-4.4zm81.2 4.3c-2.1 1.4-2.2 2-1.5 8.7.4 4 .7 9.1.8 11.4 0 2.2.3 3.9.6 3.7.3-.2.9 2.2 1.3 5.4.3 3.1.9 6.7 1.2 7.9.5 1.7.2 2.3-.9 2.3-2 0-3.2-3.7-1.8-5.4.8-1 .7-2.5-.4-5.7-1.9-5.3-3.6-21-2.8-25.3.6-3.3 1.8-4.6 4.3-4.6.9 0 .7.5-.8 1.6zm-16.2.4c0 .5-.4 1-1 1-.5 0-1-.5-1-1 0-.6.5-1 1-1 .6 0 1 .4 1 1zm8.4 2.3c-1 .6-2.3 1.5-2.7 2.1-.6.7-.7.4-.3-.6.3-1 0-2-.6-2.4-1.9-1.2 1.5-2.3 3.6-1.2 1.9 1 1.9 1.1 0 2.1zm-26.7-.3c-.6 2.4.6 2.6 2.7.5.8-.8 1.7-1.1 2-.7.7 1.2-2.5 3.6-5.1 4-1.8.3-2.3-.2-2.3-1.7 0-1.2.5-2.1 1.1-2.1.5 0 .7-.5.4-1-.3-.6-.1-1 .6-1 .6 0 .9.8.6 2zm59.6 9.7c2.2 7.4 3.3 16.4 1.8 14.3-.6-.8-1.1-2.4-1.1-3.6 0-1.1-.3-2.4-.7-2.7-.7-.8-3.8-9-5.9-15.7l-1.3-4.5 2.7 3.2c1.6 1.8 3.6 5.9 4.5 9zm-128.6-7.8c-.6 1.6-1.9 3.2-3 3.5-1.7.4-1.7.2-.4-1.7.7-1.2 1.7-2.8 2.1-3.5 1.4-2.4 2.4-1.2 1.3 1.7zm113.1 0c-.7 1.1-1.7 1.7-2.2 1.4-.6-.4-.5-.8.3-1.1 1.1-.4 1.1-.6 0-1.3-1-.6-.8-.9.9-.9 1.9 0 2.1.2 1 1.9zm-37.8 5.3c0 2.7-.3 3-2.2 2.3-1.3-.4-3.2-.7-4.3-.7-1.1 0-1.4-.2-.7-.5.6-.3 1-.9.6-1.4-1.1-1.9.8-3 2.2-1.2 1.3 1.7 1.4 1.7 2-.4.9-3.1 2.4-1.9 2.4 1.9zm42-.5c0 .2-.5 1.3-1.1 2.4-.9 1.7-.5 2.2 2.5 3.4 2.1.9 3.6 2.2 3.6 3.2 0 .9.9 4.3 2.1 7.5 1.1 3.3 1.8 6.6 1.5 7.4-.3.8-.1 1.4.5 1.4s.8.7.5 1.6c-.3.8-.2 1.2.3.9.5-.3 1.3.5 1.6 1.7.4 1.3 1.3 3 2.1 3.8 2.8 3.2 6.8 17.8 5.7 20.7-1.3 3.4-11.6 5.9-12.6 3-.2-.7 1.3-1.6 4.2-2.3 3.1-.7 4.7-1.6 4.9-2.8.3-1.4-.2-1.7-3-1.6-10.7.6-15.1-1.2-5.8-2.4 7.4-1 6.7-3.2-1.2-4.1-8.5-.9-9.8-1.3-9.7-3.3 0-.9.3-1.2.5-.7.2.6 3 1 6.4.9 3.9-.2 6 .1 6 .9 0 1.8 2.9-2.6 3-4.5 0-.9-.5-2-1.2-2.4-.7-.4-.8-.3-.4.4s.2 1.2-.3 1.2c-.6 0-1.1-.4-1.1-.9 0-1.6-3.4-2.3-4.5-.9-.8 1.1-4.3 1.4-9.7.9-1.3-.2-.9-2.8.6-4.1.8-.6 3.4-1.3 5.6-1.5 2.3-.1 4.6-.7 5.2-1.3 2-2-.4-3.1-6.7-2.9-3.6.1-6.5 0-6.6-.3 0-.3-.2-2.5-.4-5-.4-4.5-.4-4.5.9-1.6 1.4 3 8.7 6.8 8.1 4.3-.4-2.2-1.8-5.2-3-6.7-2.1-2.5-4.7-16.3-3.3-17.1 1-.7 4.8 0 4.8.8zm-30 2.4c0 .5-.4.9-1 .9-.5 0-1-.7-1-1.6 0-.8.5-1.2 1-.9.6.3 1 1 1 1.6zm7.8 2c-.3 2-.5 1.9-.9-.9-.3-2-.2-2.9.4-2.3.5.5.7 1.9.5 3.2zm-99.8-1.5c0 .8-.5 1.2-1.1.9-.7-.5-.9.4-.7 2.6.2 2.5-.1 3.4-1.4 3.7-1 .2-1.8-.1-1.8-.7s.7-.8 1.5-.5c.8.4 1.5.2 1.5-.4 0-.6-.5-1.2-1.1-1.4-.7-.2-.7-1.2 0-3.1 1.1-2.9 3.1-3.7 3.1-1.1zm85 5c0 .8-.5 1.2-1 .9-.6-.4-.8-1.1-.5-1.6.9-1.4 1.5-1.1 1.5.7zm8.1.8c.5-.3.9 0 .9.5 0 .6-.9 1.1-2 1.1-2 0-2.6-1.1-1.3-2.4.4-.4.9-.2 1.1.3.2.6.8.9 1.3.5zm8.7 9.3c.8 2.4.7 3.3-.3 3.7-.8.3-1.1 1.3-.8 2.7.6 2.2.7 2.2 1.4.3.6-1.5.8-1.2.8 1.3.1 2.3-.4 3.3-1.4 3.3-.8 0-1.5.5-1.5 1.1 0 .6.7.9 1.5.5 1.9-.7 1.9-.5 0 3-1.8 3.4-2 5.8-.4 4.8.7-.4 1-.1.7.6-.2.8-.9 1.5-1.5 1.7-1.4.5-2.3-12.6-1.5-24.4.5-8 .7-9.1 1.3-5.8.4 2.2 1.1 5.4 1.7 7.2zm-110-3.6c-.7.5-.8.9-.2.9.5 0 1.6-.6 2.3-1.3 1.1-.9 1-.7 0 1.2-2.8 4.7-3.5 5.6-4.7 5.8-1.8.4-1.4-2.3 1-7 1.7-3.2 2.3-3.8 2.6-2.3.2 1-.2 2.2-1 2.7zM288 423c-.6 1.1-1.2 2-1.4 2-.2 0-.6-.9-.9-2-.4-1.5 0-2 1.4-2 1.7 0 1.8.3.9 2zm9 3c0 .5-.9 1-2 1s-2-.5-2-1c0-.6.9-1 2-1s2 .4 2 1zm-17.5 1.8c-.3.3-1.1 0-1.8-.7-.9-1-.8-1.1.6-.5 1 .3 1.5.9 1.2 1.2zm60.7 4.7c.3 1.3.1 2.2-.3 1.9-.9-.5-1.3-4.4-.5-4.4.2 0 .6 1.1.8 2.5zm-60.7 2.4c-.3.6-1.1.8-1.7.5-.6-.4-.5-.9.3-1.5 1.6-1 2.3-.4 1.4 1zm8.5 1.3c0 1.2-.4 1.6-1.1 1.2-.7-.4-.9 0-.5 1.2 1.4 4.6 1.5 10.3.3 11.6-1.6 1.6-1.1 3.8.8 3.8 2.2 0 .5 4.1-2.2 5.1-3.3 1.2-3.7 1.1-2.4-.5.8-.9.9-1.6.2-2-1.2-.8-.4-6.4 1.2-8.3.5-.7 1.3-1 1.8-.7 1 .6.1-2.5-1.2-4.1-1.3-1.7.1-9.2 1.7-9.2.8 0 1.4.9 1.4 1.9zm-69.5 10.6c-.5 1.9-.9 2.2-1.5 1.2-.4-.7-.5-2-.2-2.9.5-1.4.4-1.4-1.2-.1-1.1.8-1.4 1.6-.7 1.8 2 .7 1.1 2.2-1.1 1.8-1.6-.2-2.4-1.1-2.6-3-.3-2.5-.2-2.7 1.7-1.6 1.9.9 2.4.7 3.9-2l1.7-3 .3 2.6c.2 1.5.1 3.8-.3 5.2zm-12.8-4.6c-.3.8-.6.5-.6-.6-.1-1.1.2-1.7.5-1.3.3.3.4 1.2.1 1.9zm1.3 10.5c0 .7-.9 1.3-2 1.3s-2-.7-2-1.5.5-1.5 1.1-1.5c.8 0 .8-.4.1-1.3-.6-.7-.8-2.3-.5-3.6.5-2.1.7-1.9 1.9 1.5.8 2.2 1.4 4.5 1.4 5.1zm-10.3-3c-.3 1-.5.4-.5-1.2 0-1.7.2-2.4.5-1.8.2.7.2 2.1 0 3zm80-3.1c-.3.3-1.2.4-1.9.1-.8-.3-.5-.6.6-.6 1.1-.1 1.7.2 1.3.5zm38.3 1.3c0 .5-.7 1.1-1.5 1.5-.9.3-1.5 0-1.5-.9 0-.8.7-1.5 1.5-1.5s1.5.4 1.5.9zm-20 2.7c0 .8-.4 1.2-1 .9-.5-.3-1-1-1-1.6 0-.5.5-.9 1-.9.6 0 1 .7 1 1.6zm-6.3 1.6c-.3.8-.6.5-.6-.6-.1-1.1.2-1.7.5-1.3.3.3.4 1.2.1 1.9zm-92.2.8c.3.5.1 1-.4 1-.6 0-1.1-.5-1.1-1 0-.6.2-1 .4-1 .3 0 .8.4 1.1 1zm120.3 2.5c.3.3-.7.5-2.1.5-1.5 0-2.7-.4-2.7-.9 0-1 3.8-.7 4.8.4zm-12.3 1.4c-.3.5-.1 1.2.4 1.5 1.4.9 1 5.4-.6 6.7-1.2 1-1.3.8-.9-1.4.2-1.4 0-2.7-.5-2.9-1.1-.4 0-4.8 1.3-4.8.5 0 .7.4.3.9zM204 458.5c1.6 1.9 7.4 1.9 9.4 0 1.3-1.4 1.6-1.2 2.8 1.2.7 1.6 3.1 3.7 5.4 4.8 2.3 1.1 5 2.7 6 3.6 1.1.9 4.6 2 7.9 2.4 3.3.3 7.9 1.5 10.1 2.6 2.3 1.1 4.7 1.8 5.4 1.7.6-.2 1.7.4 2.3 1.3.8 1.4.2 2.7-3.5 7-2.5 3-7.4 9.7-10.8 14.9-3.5 5.2-8.3 11.5-10.5 14-2.3 2.5-6.5 7.9-9.4 12-8.1 11.8-18.5 24.4-21.2 25.7-1.3.6-3.6 1.7-5.1 2.3-1.5.7-3.2 2.6-3.7 4.2-.6 1.6-3.1 4.9-5.6 7.3-4.8 4.7-5.5 6.8-2.9 8.3 1.4.8 1.3 1.7-1 8.3-3.6 9.9-12.7 22.7-19.4 27.1-5.3 3.5-12.6 1.5-18.5-5.1-5-5.6-5.2-8.7-1.2-21.7 4.2-13.5 12.6-23.6 23-27.6 5.4-2.1 9-9 9.8-19.2.4-4.4 2-11.1 4.2-17.2 2-5.4 4.5-13.3 5.6-17.4 1.1-4.1 2.6-8.9 3.3-10.5.8-1.7 2.8-7.5 4.6-13 4.8-14.3 5.8-16.5 8.3-17.5 3.1-1.2 3.3-1.2 4.7.5zm112.5 3.5c-.3.5-1.2 1-1.8 1-.7 0-.6-.4.3-1 1.9-1.2 2.3-1.2 1.5 0zm-28.7 3.1c1.5 2.3.7 7.9-1.1 7.9-.8 0-.7.4.1 1.2 1.4 1.4 1.6 5.4.3 6.3-1.4.8-2.1-.8-3.1-7.2-.9-5-.8-6 .7-7.1 1.3-.9 1.4-1.2.2-1.3-.8-.1-1.8-.1-2.2 0-.5.1-.6-.3-.2-.9 1-1.7 3.9-1.1 5.3 1.1zm11.2-.7c0 .2-.9.6-2 .9-1.1.3-2 .1-2-.4s.9-.9 2-.9 2 .2 2 .4zm-20.3 4.2c.9.9 1.2 1.9.7 2.4-1.2 1.1-4.8-1.5-3.9-2.9.8-1.5 1.4-1.4 3.2.5zm40.3.5c0 .5-.7.9-1.5.9-1.5 0-2-1.2-.9-2.3.8-.8 2.4.1 2.4 1.4zm-47 4.9c1.8 1.2.2 1.2-2.5 0-1.3-.6-1.5-.9-.5-.9.8 0 2.2.4 3 .9zm36 .9c0 .5-1.1.8-2.4.7-1.3 0-2.2-.4-1.9-.9.6-1 4.3-.9 4.3.2zm9.8 1.2c.2 1.1-.6 1.8-2.5 2.2-3.7.7-4.5 0-3-2.4 1.4-2.3 5-2.2 5.5.2zm-36.8 2.7c1.4 5.4 4.3 7.8 7.8 6.6 1.9-.7 2.8-1.8 3.2-3.9.3-1.9.8-2.5 1.3-1.8s2.1 1 4.2.6c4.3-.7 4.4.2.9 9.4-1.4 3.8-2.9 8.4-3.4 10.3-.5 1.9-2.1 7.3-3.5 12s-3.7 12.3-5 17c-1.3 4.7-3.1 10.3-3.9 12.5-5.4 14.7-6.6 18.2-6.6 19.6 0 2-1.6 5.2-4.8 9.6-3 4.3-6.6 24.4-5.7 33 .7 8-.8 9.7-9.1 10.6-7.9.9-12.1.1-16.9-3.1-5.6-3.8-8.5-10-8.5-17.8 0-7.4 2.1-12.8 7.6-19.9 2.2-2.8 4.8-6.8 5.8-9s2.3-4.8 2.7-5.7c1.1-2.2 1.2-5.2.2-6.2-.4-.4-.8-4.2-.9-8.4-.7-49.7-.7-49 1.4-52.4 1.2-1.8 4.6-5.7 7.6-8.7l5.4-5.4 4.9.7c7.7 1.2 10.7.9 12.2-1.4.7-1.1 1.5-2 1.7-2 .2 0 .8 1.7 1.4 3.8zm-39.1 45.9c.3 24-1.1 37.1-4.3 41.9-10.5 15.6-11.6 17.9-11.6 25.5 0 4.1-.5 5.2-3.2 7.8l-3.3 3.1v11.2c0 9.7.4 12.1 2.4 16.5 1.2 2.8 3.1 5.9 4.2 6.9 1 .9 1.9 2.1 1.9 2.6 0 1.3-7.4 4.2-7.8 3-.1-.5-1.3-2.9-2.5-5.3-1.8-3.6-3.3-5-8.7-7.6-5.7-2.8-7.2-3.1-12-2.6-7.5.7-16.7 3.7-21.5 6.9-5.1 3.4-9.9 9.1-9.8 11.5.2 2.6-1.4 2.4-5.4-.7-2.9-2.2-3.3-3.1-3.3-7 0-6.1 1.5-8.7 4.5-8 3.1.8 4.6-1.9 5.6-9.7.4-3.2 2.2-9 4.3-13.3 2-4.2 3.6-8.2 3.6-9 0-.8 1.1-3.1 2.4-5.2 1.3-2.1 3.8-7.3 5.6-11.5 3.7-9 11-20.4 16.8-26.3 2.2-2.3 5.2-6.1 6.8-8.5 3.6-5.8 22.2-31 24.3-32.9.9-.8 3.3-3.7 5.4-6.3 2.1-2.6 4.2-4.5 4.6-4.3.4.3.9 9.9 1 21.3zm159.6 3.8c2.2.8 4.7 1.5 5.6 1.5 2.7 0 11.8 8.9 14.2 13.9 3.2 6.6 3.2 18.6 0 23-1.3 1.6-2.3 4.3-2.3 5.8 0 3.7-2.2 6.7-5.9 8.3-1.7.7-3.3 2-3.6 3.1-.5 1.4-1.6 1.8-5.3 1.7-5.8-.1-8.9-1.2-12.3-4.4-3.2-3.1-4.7-1.7-2.9 2.7.8 1.8 2.9 3.8 5.4 5.1l4.1 2.2-4.4.8c-2.4.4-6.2 1.9-8.4 3.3-3.7 2.5-3.9 2.6-5.2.8-1.3-1.7-1.5-1.4-3.4 2.8-1.1 2.5-2.8 5.2-3.8 6.1-3.2 2.8-10.2 5.9-15.7 6.9-4.6.8-6.4.6-13.2-1.5-12.9-4.1-18.4-11.4-18.4-24.3 0-7.6 2.5-14.1 6.5-16.7 2.9-1.9 3.2-3.6.7-3.6-3 0-9.2 7.2-10.8 12.6-1.8 5.9-1.1 15.1 1.7 20.6 1.1 2.1 1.9 4.2 1.9 4.7s-2.6 1.5-5.7 2.1c-3.2.7-6.9 1.8-8.3 2.6-6.2 3.3-13 12.1-13 16.5 0 2.7-2.4 4.6-3.5 2.9-.4-.6-1.9-1-3.5-1s-4.2-1.1-6-2.7c-2.9-2.4-3.1-3-2.5-6.9.5-3.9.4-4.3-1.7-4.6-1.5-.2-2.4-1.1-2.6-2.6-.2-1.2.1-2.2.6-2.2.6 0 .9-3 .8-6.8-.1-6.3.1-7.1 3.3-11 2.1-2.7 4.4-4.5 6.2-4.9 1.6-.3 3.2-1 3.5-1.4.7-1.2 8.1-1.1 8.9.1.3.5 1.1 1 1.6 1 1.3 0 .3-6.9-1.7-11.6-2.1-5-1.7-9.5 1.5-16.7 3.9-8.7 7.9-11.7 15.8-12l5.8-.2-.2 3.2c-.2 1.7.2 3.5.7 3.8 2 1.2 4-1.7 4-5.7 0-7.4 6.2-12.8 14.6-12.8 3.5 0 7.4 2.2 7.4 4.1 0 .5-1.6 1.5-3.5 2.4-2.4.9-4 2.5-5 4.9-.9 2.2-2.5 3.7-4.4 4.4-3.5 1.2-6.4 5.2-5.5 7.6 1 2.5 3.4 1.9 3.4-.8s1.6-3.6 6.6-3.6c3.1 0 3.4-.3 3.4-2.8 0-3.7 2.3-5.8 8.1-7.2 4.8-1.2 12.1-.1 13.4 2 .3.6 1.3 1 2.1 1 1.7 0 1.9-4.1.3-5.7-.6-.6-.9-2.1-.7-3.4.8-6 21.5-10.9 31.3-7.4zm-320 6.6c7.3 6.6 33 11.2 40.6 7.3 2.2-1.1 2.9-1.1 4.5.1 2.7 2.1 9.9 1.8 14.4-.5l3.9-2 1 3.6c1.1 4.2 4.7 8.4 7 8.4 1 0 .3 1.2-1.9 3.5-1.9 1.9-3.8 3.5-4.3 3.5s-2.9-2.1-5.3-4.6c-2.4-2.5-6.3-5.4-8.7-6.4-5.2-2.4-15-2.6-23.1-.5-5.2 1.4-6.1 1.4-7.5.1-1.5-1.4-4.4-1.2-9.7.5-.7.2-2.3-.8-3.7-2.4-2.2-2.2-3.5-2.7-7.5-2.7-4.3 0-5-.3-6.1-2.6-1.2-2.7-.6-6.4 1.2-7.6 1.2-.8 2.3-.3 5.2 2.3zm351.3 40.1c1.3 1.3-.1 3.8-2.2 3.8-2.2 0-5.4 4.4-6.1 8.2-.5 2.7-1.2 3.8-2.5 3.8-2.6 0-9-2.9-9-4 0-.5 1.7-2.1 3.8-3.5 2-1.3 5-4 6.5-6 2.9-3.7 7.1-4.7 9.5-2.3zm-100.4 36.9c3.6 1.7 6.2 5.4 7 9.6l.6 3.3h-5c-14.3 0-29.1 8.4-36.2 20.6-1 1.6-2.2 3.6-2.6 4.4-1.8 2.9-3.2 8.7-3.2 12.8 0 4-.2 4.2-2.9 4.2-6.9 0-14.3 6-16.2 13.1-1.2 4.4-6 9.6-7.8 8.5-.5-.3-1.2-6.5-1.6-13.6-.6-11.3-.5-13.3.9-14.9.9-1 1.6-2.9 1.6-4.3 0-4 3-6.9 7.8-7.5 2.3-.3 4.2-.8 4.2-1 0-.2-.7-1.8-1.6-3.5-1.8-3.6-1.2-7.3 1.8-10.6 2.6-2.7 5.2-2.8 10.3-.2 3.5 1.8 4 1.8 5.6.4.9-.8 2-1.4 2.5-1.2.5.1 1.9-.3 3.2-1 1.7-1 2.2-2.2 2.2-5.3 0-3.2.7-4.7 4.2-8.5 2.2-2.4 4.8-4.4 5.7-4.2.9.1 2.7-.5 4.1-1.5 2.9-2.1 10.7-1.9 15.4.4zM278 618c0 .9.9 3.3 1.9 5.3l1.9 3.8-3.5 1.4c-2 .8-3.9 1.5-4.3 1.5-.4 0-.8-4.4-.9-9.7l-.1-9.8 2.5 3c1.3 1.7 2.4 3.7 2.5 4.5zm91.4.4c-1.4 5.6-1.5 7.4-.5 10.8 1 3.3 1 4.2-.1 4.9-2 1.3-2.8 1.1-6.1-1.7-2.6-2.2-3.8-2.5-7.1-2.1-3 .4-5.1 0-8.8-1.9-5.2-2.6-5.7-3.4-3.2-5.5 1.1-.9 1.4-2.2 1-4.5l-.6-3.2 6.2.5c4.9.3 7.8-.1 13.3-2 3.9-1.3 7.1-2.3 7.3-2.2.2.1-.5 3.3-1.4 6.9zM74.7 631c3.1 1 4.9 1 7.3.2 3.1-1.1 3.2-1.1 5.1 3.4 1.2 2.6 3.3 5.3 5 6.3 4.1 2.5 12.2 3.5 16.6 2 1.9-.6 3.6-.9 3.9-.7 1.4 1.5-6.6 15.2-13.7 23.2l-4.1 4.6-3.3-3.6c-3.3-3.5-3.6-3.6-9.5-3.2-3.6.2-6-.1-6-.7s1-2.6 2.2-4.5c3.9-6.2 2.5-17-3.1-23.4-.9-1-3.3-2.7-5.3-3.7-2.1-1.1-3.8-2.4-3.8-2.9 0-.6 1-.4 2.3.4 1.2.8 4.1 2 6.4 2.6zm132 2.7c5.9 3 8.3 6.3 8.3 11.3 0 5.6 4.1 9.6 5.6 5.5.7-1.9 6.5-4.8 7.5-3.8.6.7 1.6 10.1 1.9 18.3.1 4.8-1.8 37.8-2.6 44.1-.4 2.9.1 4.3 2 6.7 3.9 4.6 7.6 5.7 13.9 4.2 7.9-1.9 13.8-2 19.8-.3 9.5 2.7 41.3 5.1 42.5 3.2.7-1.1 5.4-1.2 5.4-.1 0 .4 2.8 1.4 6.3 2.1 18.2 3.7 19.8 4.3 24.4 8.3 2.5 2.1 5.8 4.2 7.4 4.5 3.4.7 6.4 3.7 5.6 5.7-.5 1.2-1.9 1.4-7.4 1-3.7-.3-8-1.2-9.5-2-3.4-1.8-4.9-1.8-7.3 0-1.7 1.2-1.8 1.7-.7 4 .9 2.1.9 2.7-.1 3-.6.2-2.8.8-4.7 1.4-2.3.7-7 .8-14 .2-14.4-1.2-19.3-2.3-22.5-4.8-1.5-1.2-4.3-2.4-6.4-2.8-2-.4-4.5-1.3-5.6-2.1-1.8-1.3-1.5-1.4 3.2-.8 11.1 1.4 12.6-2.4 2.9-7.3-7.2-3.7-14.6-5.2-25.2-5.2-3.9 0-11.9-.3-17.7-.6l-10.6-.7-.6-2.9c-.4-1.5-1.6-3.3-2.7-3.9-1.9-1-1.9-1.1-.2-2.3 1.7-1.3 1.6-1.4-.3-2.4-1.1-.6-4-1.4-6.4-1.8-2.4-.3-6.5-1.7-9.1-3-3.1-1.6-7.3-2.7-12.2-3.2-6.8-.6-7.3-.8-6.2-2.4 1-1.4 1.9-1.6 4.2-.8 1.6.5 6.7 1.8 11.4 3s10.4 2.8 12.6 3.5c2.3.7 4.7.9 5.4.5 1.8-1.1.4-4-1.9-4-1.1 0-5.5-1.1-9.8-2.5-4.3-1.4-8.9-2.5-10.3-2.5-1.4 0-4.1-.9-6-2-16.8-9.7-18.7-9.9-45.7-3.3-10.3 2.5-12.3 2.4-12.3-.3 0-.8-1-3.4-2.1-5.6-1.2-2.3-2.3-6.3-2.5-8.9-.3-3.9.2-5.3 2.7-8.8 3.3-4.4 6.3-5.7 10.7-4.7 4.9 1.2 6.7 1.2 6.4-.3-.4-1.9 1.9-4.3 3.6-3.6 2.6 1 4-1.3 3.5-5.8-.4-3.7-.1-4.6 2.6-7.5 1.7-1.7 3.5-3.2 3.9-3.2.4 0 2.3-2 4.2-4.4 9.2-11.5 23.4-15.6 34.7-9.9zm64.2 5.8c.2 1-.5 2.5-1.5 3.2-2.3 1.7-3.4 1.6-3.4-.2 0-.8.5-1.5 1-1.5.6 0 1-.9 1-2.1 0-2.5 2.3-2 2.9.6zm-118.5 2.3c.3 2.2 1.6 4.8 3 6.1 2 1.8 2.3 2.8 1.6 4.2-.6 1-1 3.1-1 4.7 0 2.4-.8 3.4-3.6 5.1-1.9 1.2-4.4 2.1-5.4 2.1-2.9 0-9.2 3.6-12.8 7.3-2.5 2.5-3.5 4.7-4.1 8.8-1 5.8-.3 8.3 4 14.8l2.3 3.4-3.5-.7c-1.9-.4-6-.9-9.1-1.3-6.8-.6-7.6-2.4-2.9-7.2 1.6-1.6 3.9-5.9 5-9.4 1.2-3.6 3.1-7.3 4.1-8.2 1.3-1.2 2-3.1 2-5.5 0-3 .4-3.9 2.1-4.3 1.2-.3 1.8-1 1.5-1.6-.4-.5.7-2.9 2.4-5.3s5.1-7.1 7.6-10.6c2.4-3.4 4.8-6.2 5.3-6.2s1.1 1.7 1.5 3.8zM37.5 654.5c0 1.3-9.7 6.5-10.8 5.8-1.5-.9 6.6-7.3 8.8-7 1.1.1 2 .6 2 1.2zm1.9 24c-.6 1.6-2.4 2.1-2.4.7 0-1.1 1.1-2.2 2.1-2.2.5 0 .6.7.3 1.5zm-7.4 2c0 1.4-.4 2.5-1 2.5-1.1 0-1.4-3.3-.3-4.3 1.1-1.1 1.3-.8 1.3 1.8zM27.6 703c.7 9.7.6 10.2-1.2 9.8-1.7-.3-1.9-1.4-2.2-10.2-.5-17.4 2.3-17.1 3.4.4zm153.4-7c1.3.9 1.3 1-.1 1-.8 0-2.5 1.4-3.8 3.1-1.3 1.7-2.5 2.8-2.9 2.5-.3-.3.5-1.7 1.8-3.1l2.3-2.5-2.4-.9c-2.3-1-2.3-1 .6-1 1.7 0 3.7.4 4.5.9zm271.7 12c1.4 1.1 3.2 2 3.9 2 3.1 0 2.1 2.1-1.8 3.9-4.9 2.2-20.6 7.1-23 7.1-.8 0-3.2 1.3-5.2 2.9-2.2 1.8-6.2 3.5-10.4 4.5-8.1 1.9-29.8 3-36.7 1.8-4.5-.7-3.9-.9 7-1.5 18.1-1 28.7-3.1 38-7.7 9.6-4.8 13.5-7.1 19.5-11.5 5.4-4 5.5-4 8.7-1.5zm-65.7 8c6.6 3.3 13.9 4.3 22.6 3.2 8.2-1.1 9-1 8 .7-1.5 2.3-12.8 4.2-28.6 4.7-40.5 1.3-65.3.8-45.3-1 10.6-1 23.6-4.3 30.3-7.7 5.8-2.9 7-2.9 13 .1zm-359.5 3.1c1 1.5-.1 2.3-2 1.5-.9-.3-1.3-1-1-1.6.8-1.3 2.2-1.3 3 .1zm188.7.1c-.8.8-1.7.8-3.4 0-2.2-1-2.1-1.1 1.2-1.1 2.6-.1 3.1.2 2.2 1.1zm-7.2 6.1c2 .6 4.8 2.2 6.3 3.4 3.4 2.7 8.3 3.2 35.2 3.8 11.5.3 21.3.9 21.8 1.4.5.5 0 .8-1 .8-5 0-5.3.2-5.3 3.8 0 2.9.6 3.9 3.3 5.5 1.7 1.1 4.8 2.2 6.7 2.6 3.9.6 6.2 1.5 10.5 4.4 1.7 1.1 3.9 2.4 5 2.9 1.7.8 1.4 1-1.7 1-3.4.1-3.8.4-3.8 2.6 0 3.1-.5 3.1-12-.4-5.7-1.7-14.3-3.4-21.4-4.1-11.2-1.1-12.1-1.1-13.3.6-1.2 1.7-1.4 1.7-2.8-.2-1.3-1.7-1.2-2.1 1-3.7 3.3-2.4 3.4-7.1.3-9.1-1.3-.8-4.5-1.8-7.3-2.1-2.7-.4-7.7-2.2-11-3.9-5.2-2.8-7.1-3.3-14-3.4-4.3-.1-8.4-.7-8.9-1.2-.7-.7-.6-1 0-1s1.6-1.1 2.2-2.5c1.3-2.9 4.5-3.2 10.2-1.2zm162.4 4.5c.2.4-2.7.9-6.5 1-4.5.1-6.8-.2-6.4-.8.7-1.2 12.2-1.4 12.9-.2zm-17.4 1.1c0 1.6-2.7 3.1-4.4 2.5-3-1.1-1.6-3.4 2.1-3.4 1.3 0 2.3.4 2.3.9zm-151.5 8.2c2.5 1.2 4.4 2.3 4.3 2.5-.7.6-15.8-.9-15.8-1.6 0-.8 3.9-2.8 5.8-2.9.7-.1 3.3.9 5.7 2zM179 741c2.3.7 2.2.8-1 .9-1.9 0-4.2-.4-5-.9-1.2-.8-1-1 1-.9 1.4.1 3.6.5 5 .9zm-6.5 4.5c4.4.7 7.4 1.3 6.8 1.4-1.9.2-1.6 3.1.3 3.1.9 0 1.8-.9 2.1-1.9.8-3 5-3.4 18.5-1.6 15.6 2.1 24 4.7 27.8 8.8 3.8 4.1 3.8 5.7 0 5.7-2.1 0-3.5-.8-4.7-2.6-3.6-5.5-19.3-9.1-26.3-6-3.3 1.4-3.3 1.5-1 1.7 1.4.1 3.4.3 4.5.4 1.1.1 2.7.3 3.6.4.8 0 2.4.8 3.5 1.6 1.7 1.3 1.1 1.4-6.1 1.2-6.3-.2-8.3-.6-9.3-2-.7-.9-2.6-1.7-4.2-1.7-1.5 0-5.7-.9-9.2-2-3.4-1.1-8-2-10.1-2-3.1 0-3.9-.4-4.7-2.5-.5-1.4-2-3-3.2-3.5-2-.9-1.9-1 .7-.4 1.7.3 6.6 1.1 11 1.9zm53.8-1.2c3.6 1.3 7.1 3.7 5.2 3.7-.6-.1-4.6-1.2-9-2.5-7.2-2.2-7.6-2.4-4-2.4 2.2-.1 5.7.5 7.8 1.2zm147.9 2.9c-1 1-6.4 0-5.7-1.1.2-.4 1.8-.6 3.5-.3 2 .3 2.8.8 2.2 1.4zm99.3-.2c.3.6-.5 1-1.9 1s-2.8-.5-3.1-1c-.3-.6.5-1 1.9-1s2.8.4 3.1 1zm-322 2.6c5.1.6 5.7.8 3.8 1.7-1.3.6-2.3 1.6-2.3 2.4 0 1-2.1 1.3-9 1.3-4.9 0-9.3 0-9.7-.1-1 0-.4-3.1.7-4.3 1.1-1.1 7.1-2.5 9-2 .8.1 4.2.6 7.5 1zm204.6 4.3c1.5 5.1 1.8 5.5 6 6.6 2.4.7 6.3 1.9 8.5 2.8 5.8 2.1 14.4 2.3 35.9.8 11.6-.9 15.5-.8 22.5.5 4.7.8 9.3 2 10.2 2.5 1 .5 3 .9 4.5.9 1.4 0 3.5.8 4.5 1.7 1.2 1.1 3.8 1.8 6.6 1.9 6.2.2 6.2.2 6.2 1.9 0 1.1-1.2 1.5-4.8 1.5-2.6 0-5.3.5-6 1.2-1.8 1.8-1.5 8.7.4 9.5 2 .7 3.4-1.3 3.4-4.8 0-2.7 1.6-3.9 5.1-3.9 2.7 0 3.2 3.6 1.6 11.6-1.4 6.7-1.5 6.9-4.3 6.6-1.5-.2-3.8-1.4-5-2.7-1.2-1.3-3.9-2.7-6-3.1-6.8-1.2-11.6-3.3-18.6-8.1-4.5-3.1-8.4-4.9-11.6-5.4-2.6-.4-7.5-1.6-11-2.5-5.4-1.5-8.3-1.6-19.2-.8-7.1.5-14.4.6-16.2.2-1.8-.4-7.3-1.5-12.3-2.5-7.4-1.5-9-2.2-9.4-3.8-.2-1.1-1.2-3.2-2.2-4.7-2.1-2.8-2.5-5.8-.9-5.8.6 0 1-.6 1-1.4 0-2 5.9-6.8 7.9-6.4.9.2 2.2 2.5 3.2 5.7zm87.3-.4c2 .4 2.6.9 1.7 1.4-.7.5-1.1 1.9-.9 3.2.3 2.7 3 3.6 11.1 3.8 6.9.2 5.7 1.7-2 2.4-6.2.6-7.2.4-15.6-3.4-4.9-2.2-11-4.4-13.6-4.9-2.5-.5-5.7-1.3-7.1-1.8-2.2-.8-1.9-1 3-2.2 3-.7 6.8-1.9 8.4-2.5 2.6-1.1 3.6-1 7.5 1.1 2.5 1.3 5.9 2.6 7.5 2.9zm-65.3.9c6.8.3 15.8 1 19.9 1.7 4.1.6 10 1.3 13 1.4 3 .1 6.6.7 8 1.3 2.3 1 2 1.1-2.5 1.2-6.3.2-21.9.8-26.5 1.1-7.5.5-16.7-1-22.2-3.5-3.2-1.4-5.8-2.8-5.8-3 0-.2-.3-1.3-.7-2.3-.7-1.7-.6-1.7 1.8-.1 1.9 1.2 5.8 1.8 15 2.2zm-42.7 2.8c7.9 14.8 7.3 14.3 18.4 16.3 5.3.9 10.6 2.3 11.7 3 2.1 1.3 8.6 1.1 19-.4 3.3-.5 8-.6 10.5-.1l4.5.7-4.1.2c-2.2 0-6.7 1-10 2.1-3.2 1.1-7.9 1.9-10.4 1.9-5.8 0-17.9-2.2-20.7-3.7-1.2-.7-3.2-1.2-4.4-1.2-1.2 0-4.7-1.1-7.8-2.4-3.1-1.3-7.4-2.8-9.6-3.2-3.4-.8-4.3-1.6-6.2-5.4-2.5-4.9-3-9.6-1-10.3.6-.3 2.8-.6 4.8-.6 3-.1 3.8.4 5.3 3.1zm-160.9-.2c2.2 1.1 4.4 2 5.1 2 .6 0 1.9.9 2.9 2 1.7 1.8 1.7 2 0 2.6-.9.4-4-.3-6.9-1.5-2.8-1.1-6.8-2.1-8.8-2.1-1.9 0-4.7-.6-6.2-1.4l-2.6-1.3 2.3-1.1c3.5-1.7 10-1.4 14.2.8zm285.5 0c0 .5-1.6 1-3.5 1s-3.5-.5-3.5-1c0-.6 1.6-1 3.5-1s3.5.4 3.5 1zm21.7.4c.4.3-3.3.6-8 .6-5.2 0-8.7-.4-8.7-1 0-1.1 15.6-.7 16.7.4zM217 760.2c2.5 2.7 9.3 4.9 12.9 4.2 1.4-.3 5.3.2 8.6 1.1 3.3 1 8.3 2.3 11.1 3 2.8.7 6 1.7 7.2 2.4 1.1.6 3.2 1.1 4.5 1.1 1.4 0 4.4 1.6 6.7 3.5s4.6 3.5 5.2 3.5c1.4 0 6.2 3.9 6.8 5.5.9 2.4 10.5 9.5 14 10.4 5.9 1.6 16 3.1 26.9 4.1 5.8.5 10.9 1.4 11.3 1.8.5.5.6 2.1.2 3.7-.7 2.7-.8 2.7-6.8 2.2-9.7-.9-12.9-1.8-15.9-4.3-4.6-3.9-15.1-6.4-26.5-6.4-10.6 0-21.1-1.9-27.1-4.9-6.2-3.2-17.7-5.6-48-10.4-4.2-.7-7.6-1.8-7.9-2.5-.8-2.4-14.1-8.2-19.2-8.2-2.8-.1-9.3-2.8-7-3 11.7-.8 22 .1 24.7 2.3.7.5 3.7 1 6.5 1.1 4.1.1 6.1-.4 8.6-2.3 4.3-3 4-6-.8-8.3-3.4-1.8-3.4-1.8-.8-1.8 1.5 0 3.6 1 4.8 2.2zm-67-.2c1.3.8 1.2 1.1-.4 2.3-1.9 1.4-1.9 1.5.6 3.1 1.3.9 5.1 2.1 8.4 2.7 3.2.6 7.5 1.7 9.4 2.5 1.8.8 6.7 2.1 10.7 3 9.7 2 14.2 4 15.3 6.8.7 2 1.8 2.4 7.2 3 10.6 1.2 42.8 7.4 44.3 8.6.6.4 4.4 1.8 8.5 3.2 7.9 2.7 14 3.6 28.6 4.3 10.6.5 24.9 4.3 24.9 6.5 0 1.7-5.8 1.7-46 .4l-20-.6-7-3.8c-6.3-3.3-7.8-3.8-15-3.9-5.4-.2-9.4-.9-12.4-2.2-2.4-1-5-1.9-5.7-1.9-.8 0-3.6-1.6-6.3-3.5-5.2-3.7-19.6-10.7-24.6-11.9-3.3-.8-22.3-4.2-32.5-5.7-4.2-.6-7.4-.6-9.3.1-1.6.5-3.3.7-3.7.5-.5-.3-1.1-.1-1.5.5-.3.5-1.6 1-2.7 1-3.5 0-15.9 4-19.7 6.4-2 1.2-8.9 4.4-15.4 7.1-6.6 2.7-12.9 5.6-14.1 6.6-1.3 1-4.7 1.9-8.2 2.2-3.2.3-12.4 1-20.4 1.7-19 1.6-22 1.4-22-1.1 0-.6 2.4-.9 5.3-.9 4.6.1 8.9-.3 27.2-2.9 5.5-.8 17.3-6.4 18.1-8.6.8-1.9 7.8-4.5 12.2-4.4l3.7.1-3.1 1.3c-3.4 1.5-6 4.2-5 5.2.3.3 1.4 0 2.3-.9 1-.8 3.8-2.3 6.3-3.3 5.4-2.3 6.5-3.1 6.5-5.2 0-.9.6-1.8 1.3-2 .7-.3 1 .1.6 1.1-1 2.7 2.7 1.9 8.1-1.8 13-8.9 21.6-12.7 33.4-14.5 3.5-.6 6.6-1.3 6.9-1.6.8-.8 3.5-.6 5.2.5zm152.6 3.8c1 2.6 3.5 6.5 5.6 8.7 3.3 3.4 3.6 4 2 4.3-3 .5-12.6-3.6-15.5-6.6-1.5-1.6-2.9-4.4-3.3-6.9l-.6-4.2 5 .1h5.1l1.7 4.6zm12.8-.6c.3 1.3.4 3.4.3 4.7-.3 3.6 4.1 6.2 13 7.7 20.1 3.3 24.3 4.5 24.3 6.6 0 1.9-30.4-3.7-36.5-6.7-2.8-1.5-3-1.9-3.2-8-.2-6.2 1.2-8.9 2.1-4.3zm-106.7 1.2c.3.2.2 1-.2 1.6-.5.8-2.5.9-6.3.4-6.5-.7-6.7-.8-5.7-2.5.7-1.1 11-.7 12.2.5zm-39.7.6c1.2.8 1.1 1-.7 1-1.2 0-2.5-.5-2.8-1-.8-1.3 1.5-1.3 3.5 0zm97.5 1.1c1.7 1.1 5.3 3.1 8 4.5 6.7 3.3 13.9 7.6 16.2 9.5 3.4 3.1 11.8 6.5 19.8 8.3 4.4.9 10.8 2.4 14.2 3.2 3.4.8 9.9 1.4 14.5 1.4 4.5 0 9.9.5 11.8 1 4.9 1.3 22.8 6 27 7.1 4.8 1.2 12.7 1.1 15.1-.2 5.1-2.7 24.3-.2 32.9 4.2 3.4 1.7 2.5 1.7-33.6 1.3-30.4-.3-37.9-.7-40.8-1.9-2.1-.9-5.1-1.8-6.9-2.2-1.8-.3-3.9-1.2-4.7-1.9-2.6-2.2-9-4.1-16.5-4.8-3.8-.4-9.8-1.4-13.3-2.2-3.5-.8-7.8-1.4-9.7-1.4-2.5 0-4.7-1.1-8.7-4.5-2.9-2.4-9-7.6-13.5-11.4-4.8-4-9.6-7.2-11.5-7.6-1.8-.4-4.4-1.2-5.8-1.7-2-.7-2.2-1.1-1-1.8 2.2-1.4 3.2-1.2 6.5 1.1zm214.2 2c-1.6.9-9.4.6-10.4-.4-.3-.4 2.2-.6 5.6-.5 3.6.1 5.6.5 4.8.9zm6 .5c-.3.3-1.2.4-1.9.1-.8-.3-.5-.6.6-.6 1.1-.1 1.7.2 1.3.5zm11.3 6c0 2.2-.3 2.2-7.7 1.8-24.5-1.4-25.7-1.6-23.6-3.7.3-.4 7.5-.6 16-.5 15.1.2 15.3.3 15.3 2.4zm-196 4.9c1.6.8 4.2 1.5 5.9 1.5 1.6 0 5.1.9 7.7 2 2.6 1.2 7.9 2.9 11.8 4 11.5 3.1 4.1 2.3-9.1-1-11.5-2.9-22.6-7.1-23.8-9.1-.7-1 2.8.2 7.5 2.6zm-148.7 2.8c5.2 2.5 9.9 5.1 10.3 6 .5.8 2.9 2.4 5.2 3.6 5.8 3 4.8 3.7-1.7 1.2-13.7-5.4-22.7-7.2-37.5-7.3-8.5 0-15.3.4-17.1 1.2-3.6 1.4-9.4 6.7-10.5 9.7-.7 1.6-2.2 2.4-6.7 3.2-3.2.6-9.4 2.2-13.8 3.6-6.8 2.2-9.1 2.5-15.1 1.9-6.7-.6-7.3-.5-8.3 1.5-1.1 1.9-2 2.1-9.4 2-4.5-.1-9.3-.4-10.7-.8l-2.5-.7 2.2-1.2c1.2-.7 4.6-1.2 7.5-1.1 7.5.2 22.8-1.7 26.3-3.2 1.7-.7 4.8-2.7 7-4.4 2.2-1.7 7.2-4.4 11-6 3.9-1.5 9.7-4.3 13-6 11.3-6.1 21.4-8.6 33.2-8 7.3.3 9.3.9 17.6 4.8zm264.8-2.1c4.4 2.4 7.3 4.8 6.5 5.5-.4.4-1.6.2-2.6-.5-3.7-2.2-10.5-4.2-15-4.2-3.3 0-4.1-.3-3-1 2.1-1.4 11.3-1.2 14.1.2zm-25.6 2.3c-5.5 1.9-9 1.8-5 0 1.7-.8 4.4-1.4 6-1.4 2.9.1 2.8.2-1 1.4zm-209.1 7c3.2 1.6 7.5 4.4 9.5 6.3 4 3.9 7.3 4.8 21.6 6 5 .5 9.8 1.3 10.9 1.8 2.7 1.6-9 2.5-18.4 1.4-20.9-2.4-24-3.5-24-8.5 0-2.6-4.1-6.5-9.3-8.8-4.7-2.1-4.1-4.3.6-2.3 1.8.7 5.8 2.6 9.1 4.1zm-35.2 3.9c6.4 1.8 12.8 4.3 14.3 5.4 2.5 2 4.2 2.5 10.9 3.6 8 1.4 3.2 3.6-7.9 3.6-4.9.1-22.5.2-39 .3-16.5.2-31 .6-32.2 1.1-1.4.5-2.3.5-2.3-.1 0-1 8.6-3.3 12.4-3.3 2.5 0 7.6-5 9.4-9.2 1.1-2.7 2.2-3.1 10.7-4.1 8-1 12.8-.5 23.7 2.7zM383 797c0 .5-.4 1-1 1-.5 0-1-.5-1-1 0-.6.5-1 1-1 .6 0 1 .4 1 1zm-370.4 2.5c-2.1 1.6-11.7 2.1-10.1.6 1.1-1 4.5-1.8 9-1.9 2.8-.1 2.9-.1 1.1 1.3zm2.4 6.7c0 .9-.2.9-4.5 1.4-1.6.2-3.9.5-5 .7-2.1.5-4.5-.9-4.5-2.5 0-.5 3-.8 7-.6 3.8.2 7 .6 7 1z"/><path d="M402.7 103.1c.7.7 1.5 1 1.8.7.3-.3-.2-.9-1.2-1.2-1.4-.6-1.5-.5-.6.5zM259.5 191c.4.6 1.1.8 1.6.5 1.4-.9 1.1-1.5-.7-1.5-.8 0-1.2.5-.9 1zM286.3 201.5c-1 1-.9 1.6.4 2.7 1.5 1.1 1.6 1.1 1-.4-.4-1.1 0-2.1 1.1-2.7 1.3-.8 1.4-1 .2-1-.8 0-2 .6-2.7 1.4zM214.9 217.1c-.8 1.5-.8 1.9 0 1.5.6-.4 1.1 0 1.1 1.1s.6 2.5 1.3 3.2c1 1 .8 1.2-.7.9-1-.1-2.1.2-2.3.8-.2.7.6 1 2.4.6 2.6-.5 2.7-.4 1.3 1.3-1.3 1.6-1.3 1.8 0 1.3.8-.2 1.5-1.1 1.5-1.9.1-2.2 1.5-4 2.7-3.3.6.4.8.3.5-.3-.4-.6-1.8-.9-3.1-.8-1.7.2-2.3-.1-1.9-1 .2-.8 1.1-1.1 1.9-.8.8.3 1.4 0 1.4-.7 0-.6-.8-1-1.7-.9-3.1.3-3.6-.1-2.3-1.6.8-1 .9-1.5.2-1.5-.6 0-1.6 1-2.3 2.1zM224 218c0 .5.5 1 1.1 1 .5 0 .7-.5.4-1-.3-.6-.8-1-1.1-1-.2 0-.4.4-.4 1zM229 225c0 .5.5 1 1 1 .6 0 1-.5 1-1 0-.6-.4-1-1-1-.5 0-1 .4-1 1zM221 227.5c0 .8.7 1.5 1.5 1.5.9 0 1.2-.6.9-1.5-.4-.8-1-1.5-1.5-1.5s-.9.7-.9 1.5zM227 228.6c0 .8.5 1.2 1 .9.6-.3 1-1 1-1.6 0-.5-.4-.9-1-.9-.5 0-1 .7-1 1.6zM216.6 233.5c.4.9 1.5 2 2.5 2.6 1.5.7 1.9.6 1.9-.5 0-1-.6-1.3-1.5-1-.9.4-1.5 0-1.5-1 0-.9-.4-1.6-1-1.6-.5 0-.7.7-.4 1.5zM279.5 234.7c.1 2.2 1.3 4.3 2.5 4.3.4 0 .6-.9.3-2-.4-1.6-.2-1.9 1.2-1.4 1.3.5 1.6.3 1.3-.7-.2-.8-1.6-1.5-3-1.7-1.9-.2-2.4.1-2.3 1.5zM281.8 270.1c-1.7.9-1.7 1.2-.2 3.4.9 1.4 2 2.2 2.6 1.9.5-.3.4-1.2-.3-2-.9-1.1-.9-1.7.1-2.9 1.4-1.7.3-1.9-2.2-.4zM286 269.5c0 .2 1.3 1.1 2.9 1.9 2.6 1.4 3 1.4 3.5 0 .5-1.3.2-1.5-1.4-1.1-1.1.3-2.3.1-2.6-.4-.5-.9-2.4-1.3-2.4-.4zM292 274c-1.3.8-1.2 1 .3 1 .9 0 1.7-.5 1.7-1 0-1.2-.1-1.2-2 0zM300 274.4c0 .2.7.7 1.6 1 .8.3 1.2.2.9-.4-.6-1-2.5-1.4-2.5-.6zM288.7 275.7c-1 .9-.9 2.3.1 2.3.5 0 .9-.7.9-1.5 0-1.7-.1-1.8-1-.8zM307 216c0 .5.5 1 1.1 1 .5 0 .8.3.6.7-.3.5.5.8 1.7.8 1.9 0 2.1-.3 1.2-1.8-1.2-1.8-4.6-2.4-4.6-.7zM305.6 219.7c-.6 1.4-.5 1.5.5.6.7-.7 1-1.5.7-1.8-.3-.3-.9.2-1.2 1.2zM303.5 298c-.4.6-.3 1.6.3 2.2.6.6 1.2.6 1.7-.2.4-.6.3-1.6-.3-2.2-.6-.6-1.2-.6-1.7.2zM285.5 342c.3.5.8 1 1.1 1 .2 0 .4-.5.4-1 0-.6-.5-1-1.1-1-.5 0-.7.4-.4 1zM282 347c0 .5.5 1 1.1 1 .5 0 .7-.5.4-1-.3-.6-.8-1-1.1-1-.2 0-.4.4-.4 1zM280 351.9c0 .5.5 1.3 1 1.6.6.3 1 .2 1-.4 0-.5-.4-1.3-1-1.6-.5-.3-1-.2-1 .4zM290.2 353.9c-2.2 1.8-3.1 3.8-1.3 2.6.5-.3 1.2-.1 1.6.5.9 1.5 1.9 1.2 3.2-.9 1.9-3-.7-4.7-3.5-2.2zM267.5 359c-.3.5.1 1 .9 1 .9 0 1.6-.5 1.6-1 0-.6-.4-1-.9-1-.6 0-1.3.4-1.6 1zM259 359.8c0 .5.6 1.5 1.4 2.1 1.2 1 1.4.9 1.2-.5-.3-1.9-2.6-3.3-2.6-1.6zM278 361.5c-1.9 1.1-2.1 1.4-.7 1.5.9 0 1.7.5 1.7 1.2 0 .8.6.6 1.7-.5 2.4-2.4.5-4-2.7-2.2zM265.6 362.3c.3 1 .9 1.5 1.2 1.2.3-.3 0-1.1-.7-1.8-1-.9-1.1-.8-.5.6zM221.7 386.7c-.4.3-.7 1.1-.7 1.7 0 .6.5.5 1.2-.2.6-.6.9-1.4.7-1.7-.3-.3-.9-.2-1.2.2zM241 388.5c-.7.9-.8 1.5-.2 1.5.5 0 1.2-.7 1.6-1.5.3-.8.4-1.5.2-1.5s-.9.7-1.6 1.5zM241.7 391.7c-.4.3-.2 1.2.4 1.9.8 1 1.6 1 3.5.2 1.3-.6 2.4-1.6 2.4-2.1s-.6-.5-1.3.2c-.8.6-1.7.8-2 .4-.4-.3-.7-.1-.7.6s-.5.9-1 .6c-.6-.4-.8-1.1-.5-1.6.7-1 .1-1.2-.8-.2zM257.5 394c-.3.5-.1 1 .4 1 .6 0 1.1-.5 1.1-1 0-.6-.2-1-.4-1-.3 0-.8.4-1.1 1zM262 402.1c0 .5.5.7 1 .4.6-.3 1-.8 1-1.1 0-.2-.4-.4-1-.4-.5 0-1 .5-1 1.1zM267 402.5c.7.8 1.7 1.5 2.2 1.5.6 0 .5-.7-.2-1.5s-1.7-1.5-2.2-1.5c-.6 0-.5.7.2 1.5zM260.3 406.7c-1.8.6-1.6 2.3.1 2.3 1.7 0 3-1.6 1.9-2.3-.5-.2-1.4-.2-2 0zM262.5 417.1c.4.6-.1 1.6-1.1 2.3-1.1.9-1.5 1.9-1 3.2.6 1.6.9 1.5 2.6-1 1.8-2.8 1.7-5.6-.2-5.6-.5 0-.6.5-.3 1.1zM238.5 423c-.3.5-.1 1 .4 1 .6 0 1.1-.5 1.1-1 0-.6-.2-1-.4-1-.3 0-.8.4-1.1 1zM268.4 423.5c-.4 1-1 1.2-1.8.6s-1.1-.1-1.2 2c-.1 2.7 1 3.5 4 3 .5-.1 1.3.4 1.7 1.1.6.9.9.4.9-1.5 0-3-1.4-3.6-2.8-1.1-.8 1.5-1 1.5-1.5 0-.4-.9-.2-1.5.5-1.3.6.1 1.1-.8 1.3-2.1.2-2.5-.3-2.9-1.1-.7zM228.6 427.7c-.6 1.4-.5 1.5.5.6.7-.7 1-1.5.7-1.8-.3-.3-.9.2-1.2 1.2zM265 432c-.9.6-1 1-.3 1 .6 0 1.5-.5 1.8-1 .8-1.2.4-1.2-1.5 0zM238.6 433.5c.4.8 1 1.2 1.5.9 1.1-.6.2-2.4-1.1-2.4-.5 0-.7.7-.4 1.5zM262.2 434.6c1.4 1.4 2.1 1.5 3 .6.8-.8.9-1.2.1-1.2-.6 0-2-.3-3-.6-1.7-.7-1.7-.6-.1 1.2zM226.2 437.2c-1.6 1.6-1.5 2.5.2 3.1 2.1.8 4-1.7 2.3-3.1-1-.9-1.7-.8-2.5 0zM225.6 444.5c-.3 1 .1 1.5 1.2 1.5 1 0 2.3.5 3 1.2.9.9 1.2.9 1.2 0 0-.7-.4-1.2-1-1.2-.5 0-1-.7-1-1.5s-.6-1.5-1.4-1.5c-.8 0-1.6.7-2 1.5zM264.8 443.7c.7.3 1.6.2 1.9-.1.4-.3-.2-.6-1.3-.5-1.1 0-1.4.3-.6.6zM234.5 448.1c-.4.6-.5 1.2-.2 1.5.2.3.7-.2 1-1.1.7-1.7.1-2-.8-.4zM241.6 448c-1.9.6-1.9.7-.1 1.3 2 .8 2.9.4 2.4-1.1-.2-.5-1.3-.6-2.3-.2zM223 411.9c-.6 1.2-.7 2.1-.1 2.1 1 0 2.4-3 1.7-3.7-.2-.3-.9.5-1.6 1.6zM323 424.2c0 .9.5 2 1 2.3 1.3.8 1.3-.5 0-2.5-.8-1.3-1-1.3-1 .2zM320 444.2c0 .4.4.8.9.8.6 0 1.2-.4 1.5-.8.3-.5-.1-.9-.9-.9s-1.5.4-1.5.9zM175.3 550.7c-.3 1-1.6 4.5-2.9 7.8-2.8 7-1.7 9.8 1.9 5.3 2.6-3.2 6.1-12.4 5.2-13.8-1-1.6-3.5-1.1-4.2.7zM205.1 552.9c-2.6 1.7-.6 3.5 4.1 3.6 3.3 0 5.5.8 8 2.7 4.2 3.2 4.8 5.5 3.3 12.9-2 10.2-10.6 17.9-19.8 17.9-5.2 0-6.2.7-4.1 3.1 1.2 1.3 1.4 2.8.9 5.9-.7 4-.8 4.1-3.7 3.5-4.3-1-11.8 1.3-11.8 3.6 0 2.5 1.5 3.2 3 1.4 2.8-3.4 14-.2 15.5 4.5.3 1 .5 3.9.4 6.5-.3 5.6 1.2 7.5 3.4 4.2 3.2-4.8 2.5-10.8-1.6-15.4l-3.3-3.6 2.3-2.3c1.3-1.3 2.3-3.4 2.3-4.7 0-2 .6-2.6 3.6-3.2 4.4-.8 12.6-8.2 15.7-14 3.1-5.9 3-15.8-.2-20.3-3.7-5.3-14-8.8-18-6.3zM167.5 29.1c-1.3 2 3.2 5.1 5.6 3.9 2.1-1.2 2.6-4 .7-4-.7 0-2.3-.3-3.4-.6-1.2-.3-2.5 0-2.9.7zM138.2 36.5c-1.7 1.4-3.5 2.5-4.1 2.5-1.8 0-1.3 2.7.6 3.5 1.3.4 2.7-.5 5-3 1.8-2.1 3-4.1 2.7-4.6-.7-1.3-.9-1.2-4.2 1.6zM210 35c-.8.5-2.8 1-4.3 1-3.4 0-3.2 1.5.6 3.8 2.7 1.7 2.9 1.6 4.7-.8 3.1-3.9 2.5-6.3-1-4zM231.4 35.4c-1.3 1-2.3 1.1-3.1.4-.7-.5-1.9-.8-2.8-.6-1.5.3-1.4.6.5 3 2.7 3.5 4 3.5 7 .3 2.8-3 1.6-5.4-1.6-3.1zM126.3 44.1c-.6.6-2.1 1.6-3.4 2.3-2.8 1.4-2.6 3 .4 3.4 1.7.2 2.9-.5 4.1-2.4 1.9-2.7.9-5.3-1.1-3.3zM236.2 45.2c-.6.6-2.6 1.2-4.4 1.2-3.2.1-5.4 2.6-2.2 2.6 1 0 2.6.8 3.7 1.7 1.8 1.7 2 1.6 4.7-1.7 1.6-1.9 2.6-3.8 2.4-4.2-.7-1.2-2.8-1-4.2.4zM252.6 44.7c-.4.4-1.5.8-2.3.8-2.2 0-2.8 2.4-.8 3.1 2 .8 6.5-1.5 6.5-3.3 0-1.4-2.2-1.8-3.4-.6zM179 54.5c-.7.9-1.9 1.4-2.7 1.1-2-.8-2.8 2.3-1.1 4 1.2 1.2 1.8 1.1 4.6-1.4 1.8-1.6 3.2-3.4 3.2-4 0-1.7-2.5-1.5-4 .3zM134.5 65.9c-.3.6-2.2 1.8-4.1 2.6-4.2 1.7-4.4 3.5-.4 3.5 1.7 0 3.3.1 3.7.2 1.4.5 3.6-5.3 2.5-6.4-.6-.6-1.2-.6-1.7.1zM152.4 69.4c-.9 1.5-2.3 2.5-3 2.2-1.9-.7-4.4.4-4.4 1.9 0 1.3 5.6 2.9 7.1 1.9.5-.3 1.6-1.9 2.5-3.6 2.1-4.1.3-6.1-2.2-2.4zM140.6 121.2c-1.4 1.3-2.6 3.2-2.8 4.3-.4 2.7 2.8 3.2 3.7.6.4-1.5 1.5-2.1 3.5-2.1 3.6 0 4.9-1.9 2.5-3.7-2.6-1.8-4-1.6-6.9.9zM117 125.7c-5.1.8-17.6 5.6-20.6 7.9-1.7 1.2-6.6 6.1-10.8 10.8-6.1 6.7-8.4 10.2-11.2 16.8-8.6 20.5-6.3 39 7.1 56.6 2.6 3.4 6.7 7.6 9.2 9.3 5.2 3.6 12.3 5.1 12.3 2.6 0-1.6-2-2.7-5.1-2.7-2.5 0-8.9-5.8-14.6-13.3-4.4-5.9-6.7-11.4-9.3-22.6-2.8-11.9 2.2-30.6 10.4-38.8 1.7-1.7 4.5-4.9 6.1-7.1 7.1-9.3 26.3-18.2 36.3-16.7 2.6.3 5.5.8 6.5 1.1 3.2 1 1.7-1.7-1.8-3.2-3.3-1.3-9-1.6-14.5-.7zM105.4 232.2c-.4.6.3 2 1.7 3.1 2.6 2.1 3.6.9 1.9-2.2-1.2-2.3-2.5-2.7-3.6-.9zM419 254.9c-6.2 2.3-9 3.9-12.2 6.9-3 2.8-3.4 4.2-1.7 5.9.8.8 2.2-.1 5.2-3.1 5.7-5.7 13.3-8.1 22.5-7.1 11.7 1.2 18.1 7.6 20.1 20.1.9 6.2.8 7.3-1 11.2-1.4 2.8-3.4 4.9-5.8 6.2-5 2.6-9.1 6.7-9.1 9 0 2.8 3.6 2.6 5.5-.4 1.9-2.8 8.8-6.5 13.5-7.1 6.5-.9 15 .6 18 3.1 1.6 1.4 4.1 2.4 5.9 2.4 5.5 0 9 2.6 11.7 8.6 2.6 5.9 3.1 12.6 1.3 18.4-.5 1.9-1.2 4.2-1.4 5.1-.2 1-1.6 3.6-3 6-1.5 2.3-2.8 4.9-2.9 5.7-.2.8-2.1 2.2-4.4 3.1-2.3.9-5 2.4-5.9 3.4-1.6 1.5-1.6 1.8-.2 3.3 1.4 1.4 1.7 1.3 3.1-.8 2.3-3.5 8.9-5.4 13.9-4.1 2.2.6 4.2.7 4.5.2.8-1.4-4.5-4.2-7.1-3.7-3.1.6-3.1.4.3-4.1 6.1-7.7 7.5-12.3 7-22.6-.3-8.2-.7-9.9-3.4-14.1-3-4.9-9.1-9.3-12.9-9.4-1.1 0-4.2-1.2-7-2.6-3.9-2-6.2-2.5-10.5-2.2l-5.5.3.2-4.8c.3-5.1-2.5-17.5-5.1-22.5-2.1-4.1-9.2-10-13.5-11.2-5.3-1.5-15-1.1-20.1.9zM467.9 365.7c-1.5 3.9.5 9.9 4.3 13.5 2.8 2.6 5.8 3.7 5.8 2.2 0-.4-1.6-2.4-3.5-4.5-3.5-3.9-4.7-9-2.5-10.4 1.8-1.1 1.1-3.5-1-3.5-1.3 0-2.4 1-3.1 2.7zM478.7 386.4c-7.6 2.1-12.9 8.4-12 14.3.6 3.7 2.3 4.5 2.3 1.2 0-6.3 8.3-13.2 15.9-13.3 5.3-.1 12.2 2.9 12.9 5.6.7 2.8 2.2 2.1 2.2-1 0-2.3-.8-3.1-4.8-5-6.2-3-10.6-3.4-16.5-1.8zM460.1 409.6c-2.5 3.1-2.8 9.2-.7 13.2 2.2 4.3 5.7 6.9 11.7 8.9 3.1 1.1 7.1 3.2 9 4.7 3 2.6 3.8 2.8 8.6 2.2 3-.3 5.4-.2 5.8.4.3.5 1.6.8 2.8.6 1.6-.2 2.3-1.1 2.5-3.3.3-2.8.1-3-3-2.8-1.8.1-5.1.7-7.4 1.4-6.8 2.2-10.9-1.3-6.3-5.3 1.6-1.3 1.8-2.1 1-2.9-.8-.8-1.9-.7-4 .6-5.4 3.2-12.8 1.4-16.6-3.9-2.5-3.7-2.3-10.8.5-13.1 2.5-2.2 2.5-3.3.1-3.3-1.1 0-2.9 1.2-4 2.6zM455 441.5c0 .8.7 1.5 1.5 1.5s1.5-.7 1.5-1.5-.7-1.5-1.5-1.5-1.5.7-1.5 1.5zM446 444.6c-7.6 6.4-11.5 15.4-10.5 23.9.9 7.1 2.9 6.7 3.2-.6.2-3 .5-6.8.8-8.6.6-3.6 6.3-10.9 10.6-13.6 1.6-1.1 2.9-2.3 2.9-2.8 0-1.8-3.9-.8-7 1.7zM51.8 701.9c-2.9 2.6-3.1 3-1.5 3.7 2 .7 8.1-4.2 7.1-5.8-.9-1.4-2.3-.9-5.6 2.1zM475.3 784.6c-1.7.7-1.6 3.6.1 5.9 1.2 1.7 1.7 1.8 4.1.7 2.1-1 2.6-1.8 2.3-4-.2-2.1-.9-2.7-2.8-2.9-1.4-.1-3.1.1-3.7.3zM446.2 830.5c-8 3.5-5 15.5 3.9 15.5 1.7 0 4.1 1.1 6 2.8 2.7 2.4 3.1 3.2 2.4 6.1-.8 3.8-4.1 5.5-9.1 4.5-3.1-.6-3.4-.9-3.4-4.1 0-3-.3-3.4-2.2-3.1-1.7.2-2.4 1.3-3 4.2-.5 2.2-1.5 4.7-2.3 5.6-.8.9-1.5 1.9-1.5 2.2 0 .3 4.6.6 10.2.7 5.6.1 10.5.4 10.9.7 1.5.9 4.9-1.6 6.9-4.9 3.7-6 2.1-12.9-4.1-18.1-2.7-2.3-3.8-2.6-7.3-2.1-5.3.8-7.2-.9-5.6-5 .9-2.5 1.4-2.7 4.6-2.2 2 .4 4.4 1.3 5.4 2.2 3 2.7 5 1.9 5-2V830h-5.4c-3 0-6-.2-6.8-.5-.7-.2-2.8.2-4.6 1zM112 830.8c-5.2.4-6.4 1-5.2 2.5.6.7 1.1 7.7 1.1 16.6.1 9.8.6 16 1.3 16.8.8 1 3.7 1.3 11.2 1.1l10.1-.3.3-5.4c.2-3-.1-5.8-.7-6.4-1.6-1.6-4.1 1.1-4.1 4.5s-1.7 4.3-6.5 3.4l-3.5-.7v-6.4c0-5.8.2-6.5 2-6.5 1 0 2.4.9 3 2.1 1.6 2.8 3.3 1.9 4.1-2.1 1.2-5.7-2.1-9.1-5.1-5.5-.7.8-1.9 1.5-2.7 1.5-1.1 0-1.3-1.3-1.1-5.8l.3-5.7 4.3-.3c3.7-.3 4.4 0 4.9 1.7 1.1 4.1 5.3 1.2 5.3-3.6 0-1.6-.9-1.9-7.7-1.8-4.3 0-9.4.1-11.3.3zM282.6 830.9c-6 .7-6.9 2.4-2 3.7 3.7.9 3.8 1.1 6.6 10.4 4.4 14.6 5.8 17.9 8 19.1 2.7 1.5 4.7-.6 9.1-9.5l3.4-6.8 5 8.3c7.2 12.1 7.9 12 13.8-3.3 2.6-6.8 5.1-13.5 5.7-14.9.5-1.5 2-3.1 3.4-3.7 3.6-1.7 2.9-2.9-2.1-3.5-6.4-.9-7-.4-7.1 5.6-.1 4.7-4 15.4-5.8 16-.3.1-2.4-3-4.7-6.8-3.8-6.5-4-7.2-2.7-9.5.7-1.4 2.4-3 3.6-3.6 1.9-.9.3-1.2-8.5-1.7-5.9-.3-11.2-.3-11.6 0-.4.2.4 1.4 1.8 2.5 2.7 2.1 5.5 6.8 5.5 9.2 0 2.1-4.2 11.6-5.1 11.6-.3 0-1.4-2.6-2.2-5.8-3.5-12.6-6.4-18.7-8.7-18-.3.1-2.7.4-5.4.7zM350.3 830.9c-7.6 1.3-12.2 8.1-12.3 18.3 0 5.2.3 6.2 3.6 9.7 4.2 4.7 11 7.6 15.5 6.7 4-.8 11.9-6.5 13-9.4 1.3-3.5 1.1-8.3-.7-13.8-2-5.9-3.7-8-8.6-10.5-4-2-4-2-10.5-1zm8.6 6.4c2.3 1.1 2.6 1.9 2.9 6.9.4 7.9-1.8 15-5 16.2-5.9 2.1-9.4-1.3-10.5-10.4-.4-3.5 0-5.9 1.7-9.9 2.2-5 2.5-5.3 5.3-4.7 1.6.3 4.1 1.2 5.6 1.9zM373.4 831.1c-.3.6-.1 1.5.6 1.9 1.7 1 2.5 26.7.9 28.6-1.4 1.7.3 2.5 4 1.8 4.2-.9 5.1-2.9 5.1-11.3 0-9.9 2.3-9.4 5.6 1.1 2 6.5 5.4 10.3 10.2 11.1 3.7.8 4.3-1 1.3-3.7-2.5-2.2-4.7-7-5.9-12.3-.8-3.4-.7-4.5.7-6 1-1 2.6-3.1 3.5-4.5 1.7-2.7 1.7-2.8-.8-5.3-2.4-2.4-3.1-2.5-13.5-2.5-7 0-11.2.4-11.7 1.1zm16.4 6.6c.3 3.5 0 4.2-1.8 4.8-2.7.8-5-1.1-5-4 0-4.2 1.1-5.6 3.9-5.3 2.3.3 2.6.8 2.9 4.5zM407 830.8c0 .6.5 1.2 1.1 1.4 1.8.6 1.5 28.8-.2 29.9-4.9 3.2 11.9 3.6 19.6.5 5.5-2.2 8.8-7.3 9.3-14.5.9-12.2-4.8-17-21-17.8-5.5-.3-8.8-.1-8.8.5zm14.3 5.8c4 .9 5.7 4 5.7 10.3 0 9.1-6 16.8-11.5 14.7-1.2-.4-1.5-2.8-1.5-12.9 0-6.8.3-12.7.7-13 .4-.4 1.4-.5 2.2-.3.9.3 2.8.8 4.4 1.2zM7.2 849l.3 17.5 5.3-.1c6-.2 7-.7 5.3-2.8-.7-.8-1.1-3.7-.9-6.8l.3-5.3 4.3-.6c7.6-1 13.5-7.5 11.6-12.7-1.7-4.8-5-6.1-16.2-6.4L7 831.5l.2 17.5zm15.2-13.4c2.2 2.1 2 6.7-.3 9.5-3.8 4.7-6.1-1.6-3.5-9.9.5-1.6 1.9-1.5 3.8.4zM261 832c-11.4 1.5-15.6 6-12 13 2.2 4.3 4.7 6.1 10 7 3.4.5 3.5.7 3.5 5 0 4.5 0 4.5-3.8 4.8-4.6.4-7.1-1.5-8.8-6.5-.8-2.7-1.6-3.3-3.2-3.1-1.9.3-2.3 1.2-2.8 6.3-.8 7-.5 7.9 2.7 7.1 1.4-.4 3.5.1 5.6 1.4 4.3 2.6 10.1 2.5 15.8-.3 5-2.5 6-4.9 4.9-11.2-1.1-5.9-6.5-10.5-12.4-10.5-5.1 0-6.1-1.2-4.6-5.3.9-2.2 1.7-2.7 4.5-2.7 1.8 0 3.9.7 4.6 1.5.7.8 2.3 1.5 3.7 1.5 2.2 0 2.4-.3 2.1-4.3-.3-4.8-.8-4.9-9.8-3.7zM40 833c0 .5.6 1 1.4 1 .8 0 1.7.3 2 .8.5.9-3.4 15.4-6.3 23.2-3.3 9-2.7 10.6 3.4 9.4 2.7-.5 3.3-.9 2.5-1.9-.8-.9-.6-3.2.6-7.9 1.6-6.5 1.7-6.6 5-6.6 3.8 0 4 .2 6.9 8.9l2.2 6.6 6.3.3c3.5.2 6.8-.2 7.3-.7.8-.8.3-1.1-1.5-1.1-1.4 0-3-.6-3.6-1.3-1.5-1.8-6.8-15.4-8.7-22.2-2.4-8.5-3.5-9.5-11.2-9.5-3.5 0-6.3.4-6.3 1zm10.1 14.3c-1.9 1.9-3.4-.7-2.5-4.5l.7-3.3 1.4 3.4c1 2.4 1.1 3.7.4 4.4zM76.9 834.5c-6.8 4.4-8.6 12.6-4.8 21.4 2.8 6.6 9 10.1 17.7 10.1 3.3 0 6.6-.2 7.4-.5 1.5-.6 1.6-10.1.1-11.5-.4-.5-3.3-1-6.3-1.2-5.2-.3-5.5-.2-5.2 1.9.6 4.2-2.6 2.5-4.4-2.3-1.7-4.5-1.7-4.9.2-10.3 1.8-5.3 2.1-5.6 5.7-5.9 3.1-.3 3.7 0 3.7 1.5 0 2.1 1.8 4.3 3.6 4.3 1.6 0 2.6-7 1.2-8.7-.7-.9-3.4-1.3-8.2-1.2-5.7 0-7.8.5-10.7 2.4zM187.1 835.6c-2.1 1.5-2.3 2.2-1.6 6.8.3 2.8 1.1 5.6 1.7 6.3.6.7 1 3.8 1 6.7 0 6.2-2 9.9-6.3 12.2-3.2 1.6-3.7 3.5-1.3 5.8 2.4 2.4 4.3 1.9 8-2.1 4.1-4.5 6.8-12.1 6-16.9-.6-2.8-.4-3.5 1.1-4 1-.3 2.9-1 4.3-1.6 2.4-.9 2.4-1 .6-2.3-1.1-.8-3-1.2-4.6-.8-2.4.4-3.1.1-4.5-2.7-1.9-3.7-1.5-4.6 1.5-3 2.9 1.6 3.5.7 1.9-2.9-1.6-3.5-4.2-4-7.8-1.5z"/><path d="M168.5 849.1c-5 2.9-6 8.1-2.1 12 7.1 7.2 9.3 8.2 12.8 5.5 2-1.5 3.8-5.8 3.8-9.1 0-5.9-9.4-11.3-14.5-8.4zm8.6 4.6c1.9 4.9-2.2 10.1-5.7 7.2-1.1-.9-1.4-2.2-.9-4.8.9-4.6 1.2-5.1 3.6-5.1 1.2 0 2.3 1 3 2.7zM480.3 860.6c-.6 1.7.9 5.1 2.1 4.6.3-.1 1.8-.2 3.2-.2 2.2 0 2.5-.4 2.2-2.8-.2-2.2-.8-2.8-3.6-3-2.3-.2-3.4.2-3.9 1.4z"/></svg>