<svg version="1" xmlns="http://www.w3.org/2000/svg" width="666.667" height="1170.667" viewBox="0 0 500 878"><path d="M304.5 43.7c-3 3.9-4.6 7-4.9 9.8-.3 2.2-.8 27.8-1.1 57-.3 29.1-.9 69.6-1.5 90-.5 20.3-1.2 50.7-1.4 67.5-1.2 69.7-2.2 92-3.8 92-.6 0-1.6-.7-2.3-1.6-.9-1.3-2.8-1.6-8.1-1.6-5 0-8.2-.6-11.4-2.1-4.8-2.3-13.1-2.7-22.3-1.2-4.6.7-5 .6-8.5-2.8-2-1.9-4.8-3.7-6.2-3.9-1.5-.2-3-1.3-3.7-2.9-2.2-4.6-5.2-6.3-14-8.1-4.8-.9-9-1.5-9.4-1.2-1 .6-17.8-4.3-19.8-5.8-.9-.7-1.8-1.4-2-1.5-1-.7 4.5-5.3 6.3-5.3 1.2 0 2.6-.4 3.1-.8 1.8-1.3 3.7-6 3-7.2-1.1-1.8-1.4-10.1-.4-12.8.5-1.2 1.7-2.2 2.8-2.2 3.7 0 4.1-2.1 1.9-10-1.1-4.1-2.2-11.7-2.4-16.8-.2-5.2-.7-9.8-1-10.3-.3-.6.1-2 .9-3.2.8-1.3 1.5-4.5 1.5-7.2-.1-2.8.7-6.3 1.6-8 .9-1.7 1.6-4.2 1.6-5.6 0-1.4.9-3.4 2-4.4 1.1-1 2-2.8 2-4 0-1.1.5-2.6 1.1-3.2 1.5-1.5.4-4.4-1.5-3.7-.8.3-2.7-.9-4.4-2.7-1.7-1.9-3.4-3-3.8-2.6-.4.4 0 1.5.9 2.5 2.4 2.6 2.1 8.2-.7 16.5-1.4 4-2.8 8.9-3.2 10.9-.3 2.1-.9 3.8-1.3 3.8-2-.1-3.4-2.3-3.8-6.3-.5-4.5-.5-4.6 2.6-5.4l3.2-.8-4.5-3.2-4.6-3.3v-6.9c0-8 1.2-9.6 6.2-8.6 3.2.7 3.2.6 1.6-1.1-1.7-1.7-1.9-1.7-5.3-.1-1.9.9-4.1 2.8-4.7 4.2-1.3 2.9-1.6 3-4.2 1-1.1-.8-3.1-1.5-4.4-1.5-2 0-2.2.3-1.2 1.4.6.8 1.8 1.2 2.5 1 2-.8 5.5 3.2 5.5 6.1 0 3.3-4.6 10.2-7.4 11.2-1.1.4-3.9.8-6 .8-5.4.1-6.9 2.5-3.6 5.8 1.4 1.3 3.3 2.6 4.2 3 1 .3 2 1.8 2.4 3.3.8 3.1-.7 4.4-5.2 4.4-4.4 0-6.7-2.9-7-9.3-.2-2.8-.5-7.3-.7-10-.3-4.6-.2-4.9 5.8-11.2 3.5-3.6 6.2-6.5 6-6.5-2.1 0-6.7 2.8-8.4 5-2.5 3.4-4.1 3.8-4.1 1.1 0-2.8-1.1-5.2-2.1-4.5-.5.3-.9 1.9-.9 3.5 0 3.6-2.4 3.5-2.6 0-.2-3.8-2.1-4.8-3.5-1.8-1 2.3-.9 3 .6 4.7 1 1.1 1.3 2 .7 2-.7 0-1.2-.4-1.2-.9 0-1.5-6.6-4.1-10.5-4.1-3.3 0-3.6.2-2.5 1.5.7.9 2 1.5 2.9 1.4 4.2-.4 6.3.3 9.7 3.3 4.5 4 5.9 7.4 4.3 10.5-1 1.9-.8 2.6 1.5 5.3 3.2 3.9 3.3 6.1.3 9.6-2.2 2.6-2.7 2.7-6.8 1.8-3.8-.8-4.4-1.3-4.7-3.7-.3-2.4.2-3 2.7-4 1.7-.6 3.1-1.6 3.1-2.2 0-1.8-2.3-3.5-4.6-3.5-1.3 0-2.5-.4-2.8-.9-.3-.4-1.6-.6-2.9-.4-1.8.4-2.8-.2-4.2-2.4-1-1.5-2.6-3.6-3.6-4.6-1.1-1-1.9-3.2-1.9-5.1 0-3-.3-3.3-2.4-2.9-1.3.3-2.7 0-3-.6-.4-.6-3.2-1.1-6.2-1.1-8.1 0-13.4 3.7-13.5 9.4v3.1l-1.6-2.3c-1.9-2.7-3.7-2.9-3-.3.3 1.4.1 1.8-.9 1.4-.8-.3-1.4-.1-1.4.5 0 .5.7 1.2 1.5 1.6.8.3 2 1.7 2.5 3.2.6 1.4 1.9 2.8 3 3.1 3.2.8 12.8 18.2 11.4 20.5-.9 1.4-.9 14.6 0 18.9.7 3.4-1 10.6-5.5 23.4-.6 1.6-1.8 5.9-2.6 9.5-.9 3.6-2.5 9.6-3.6 13.5-2.2 7.5-2.4 8.1-2.6 9.2 0 .4-2-1.2-4.4-3.5-4.1-4-12.3-7.6-15-6.6-.7.2-4.6.8-8.7 1.3-34.1 4-48.4 8.5-58.7 18.7-5.8 5.8-7.5 10.3-7.2 18.7.4 10 10.3 19.8 21.4 21.4 4.4.6 11.8-2.3 14.2-5.6 1.3-1.8 1.3-1.8 3.2 4.9.5 1.9 1.7 5.5 2.6 8 .9 2.5 1.9 9.2 2.2 15.1.7 12.1-.1 13.8-4.6 9.3-8.3-8.2-26.6-5.3-38.3 6.2-2.7 2.5-4.8 5.4-4.8 6.3 0 .9-.9 4.2-2 7.4-1.5 4.3-2 8.2-2 16.4 0 11.9 1.3 15.6 6.7 18.9 1.5 1 5.6 4.7 9.1 8.2 3.5 3.5 7.9 7 9.8 7.8 2.8 1.2 3.4 2 3.4 4.4 0 2 .5 3 1.5 3 3.5 0 .8-8.5-3.2-10.2-1.6-.7-3.4-2.1-4.1-3-.7-1-2.1-1.8-3.1-1.8s-2.2-1.3-2.9-3.4c-1.5-4-3.9-6.3-7.1-6.8-6-.8-11-14.3-7.7-20.9.9-1.8 1.4-4 1.1-4.9-.3-1 .1-2.3 1-3 .8-.7 1.5-2.8 1.5-4.7 0-4.7 2.1-8.3 7.3-12.6 8.2-6.7 11-7.9 19.4-8 6.7-.2 8.3.1 11 2.1 1.8 1.3 3.6 3.5 3.9 5 .4 1.5 1.3 3.2 2.1 3.9 1.3 1 1.4 3.8.9 19-.9 21.3-.9 20.5.4 36.8.5 7.1 1.2 17.5 1.5 23 .3 5.5.9 11.6 1.5 13.5 2 7 1.5 7.3-5 2.6-4.8-3.5-7.2-4.6-11.6-5.2-6.6-.8-12 .6-16.2 4.1-1.7 1.4-4 2.5-5.3 2.5-1.3 0-3.9 1.4-5.8 3-3.9 3.4-4.4 3.6-6.1 1.5-.7-.8-1.9-1.5-2.6-1.5-2.5 0-1.5 3.6 1.8 6l3.1 2.3 1.8-2.1c.9-1.2 2.2-2.2 2.7-2.2s1.5-.7 2.2-1.5c.9-1.1 1.6-1.3 2.4-.5 2 2 4.2 1 8-3.6l3.9-4.6 5.9.5c5.9.5 13 3.5 15.8 6.6 7.6 8.4 8.7 10.5 11.9 23.6 2.9 12.3 3.8 18.5 2.6 18.5-.3 0-2.2-.8-4.3-1.9-5.8-2.9-17.6-4.7-20.9-3.2-2.6 1.2-3 1-5.3-1.7-2.8-3.3-10.4-6.2-16.3-6.2-2.3 0-6.5 1.3-10.3 3.1-5.4 2.5-6.4 3.4-6.4 5.6 0 2.5.1 2.5 2.2.9 3.1-2.3 7.9-4.4 13-5.7 5.8-1.6 13.2 1 15.4 5.3l1.5 2.8h-3.4c-3.6 0-11.1 4.6-14.5 9-1.1 1.4-2.7 5-3.6 8.2-1.6 5.6-6 10.8-9.2 10.8-.8 0-1.4 1-1.4 2.2 0 1.7.3 1.9 1.2 1 .7-.7 2.2-1.2 3.3-1.2 1.2 0 3.1-1.3 4.3-3 1.3-1.7 2.9-3 3.6-3 .8 0 1.6-1.8 2-4.8 1.1-8.2 10.3-17.1 16.1-15.6 1.9.5 3.2 0 5.1-1.9 1.4-1.4 3.8-2.7 5.2-2.9 3.7-.4 15.2 1.9 17.9 3.7 5 3.3 9.3 8.6 9.3 11.5 0 1.5.4 3 .9 3.2.4.1 2.7 4.7 5 10 4.1 9.4 5.2 11.1 13.3 21.8 12.2 16 17 36.7 11.4 48.9-1.8 3.9-2.1 6.5-2.1 17.6 0 18.1 1.6 22.9 10.3 31.2 5.2 4.9 6.4 6.5 5.4 7.5-1.6 1.6-1.5 4.3.2 5.8 1.1.8 1.2 1.8.6 3.3-.5 1.2-1.2 3.9-1.5 6-.5 3.3-1.2 4.1-4.3 5.3-7.3 2.9-13.8 5.9-18.5 8.6-5.7 3.3-6.7 3.4-6.7.8 0-1-.5-3.1-1.2-4.6-1.1-2.4-1-2.8 1.5-4.8 3.4-2.7 3.4-3.6.2-3.6-2.7 0-3.4-2.1-1.3-3.7 2.1-1.6 9.1-3.1 12.8-2.8 4.3.3 6.6-1.1 4.9-3.1-.9-1.1-.8-1.8 0-2.8 1.6-1.9-.2-3-3.2-2-1.2.4-5.4.6-9.2.5-5-.1-7.6.3-9 1.3-2.8 2.1-3.5 2-3.5-.9 0-1.6.6-2.5 1.5-2.5.8 0 1.5-.4 1.5-1 0-1.8 4.5-3.9 10.8-5.2 6.4-1.3 8.5-3 4.4-3.6-2.1-.3-3.2-2.2-1.2-2.2.6 0 1-.5 1-1 0-.6-.8-1-1.7-1-.9 0-2.4-.7-3.4-1.6-2.3-2.1-8.2-1.2-14.6 2.2-2.5 1.4-5.2 2.3-6 2-2.6-1-5.4 1.3-5.1 4.2.2 2.1.8 2.6 2.4 2.4 2.8-.4 4.2 4.2 2.1 6.7-.8.9-1.8 2.7-2.2 4-.7 2.3-.6 2.3 2.8 1.7l3.6-.7-.1 12.6-.1 12.5H67c-1.5 0-4.2.3-5.9.6-2.8.6-3.1.4-3.1-2 0-1.4-.5-3.5-1.2-4.5-.9-1.5-.9-2.3.1-3.5.8-.9 1.9-1.6 2.6-1.6.7 0 2-1.1 2.9-2.5 1.5-2.2 1.5-2.8.2-5.3-.8-1.5-2.6-3.8-4-5.1-3.3-3.1-3.3-3.9 0-5.1 2-.8 2.4-1.4 1.9-3.3-.4-1.2-1.6-2.9-2.6-3.7-1.5-1.2-1.9-3.3-2.3-10.1-.2-5.5 0-9.6.8-11 .9-1.9.9-3-.3-5.3-1.3-2.7-1.2-3 .5-4.3 1.1-.9 3.3-1.3 5.4-1 1.9.2 4.5 0 5.7-.4 1.3-.5 3.3-.5 4.6 0 1.7.7 2.9.3 5.5-1.8 3.6-3.1 3.3-4.1-1.3-4.1s-4.9-1-1-3.1c2.6-1.4 4.6-1.7 7.5-1.3 3.7.6 4 .4 5-2.1.8-2 .8-3.1 0-3.9-1.4-1.4-13.1-1.3-23 .1-4.1.6-7.9.8-8.4.5-1.4-.8 2.4-2.5 6.3-2.8 19-1.8 18.9-1.8 17.1-3.9-.8-1-3.1-1.5-7-1.5-4.2 0-5.9-.4-6.4-1.5-.3-.9-1.8-1.5-3.7-1.5-1.8 0-3-.2-2.8-.5.3-.2 6.7-.7 14.3-1 7.6-.2 14.2-.8 14.7-1.1.6-.3.8-1.2.5-2-.4-1 .3-1.4 2.4-1.4 3.7 0 4.3-1 2-4-1.7-2.2-2.4-2.4-11.6-2.3-5.5.1-11.1.6-12.6 1.2-3.4 1.3-3.5.5-.7-2.6 2-2 2-2.3.5-2.9-1-.4-4.1-.4-6.9-.1l-5.2.6 3.9-1.9c2.3-1.2 7.4-2.3 12.5-2.7 6.6-.6 8.6-1.1 8.6-2.3 0-.8-1-1.6-2.2-1.8-1.2-.2-2.7-1-3.3-1.8-.7-.8-3.1-1.4-5.4-1.5-3.2 0-3.7-.2-2.1-.9 1.1-.5 3.7-1.1 5.7-1.5 2.1-.3 3.8-1 3.8-1.4 0-1.1-2.5-2.1-5.2-2.1-3.9 0-1-1.2 3.6-1.5 5.6-.4 6.6-1 5.8-3.8-.8-3.2-1.6-3.5-11.8-4.2-7.3-.6-10.3-.4-14 .9-2.6.9-5.9 1.6-7.4 1.6-3.4 0-11 3.7-11 5.3 0 .7 1.5 1.7 3.2 2.2 2.6.8 3.2 1.5 3 3.2-.2 1.2.2 2.4.8 2.8 2.2 1.4.8 2.4-4.7 3.5-8.9 1.7-10.6 2.6-10 5.6.5 2.8-.9 3.9-6.5 4.9-3.1.6-3.7.4-4.3-1.4-1.1-3.6-9-9.6-14.2-10.8-5-1.2-6.3-1-6.3 1.1 0 .8 1.2 1.1 3.5.8 3.7-.4 8.3 1.8 12.2 6 2.4 2.6 3 5.3 1.9 8.6-.8 2.5 1.6 6.2 4.1 6.2.7 0 1.3.4 1.3.8 0 1.4-15.6 7.4-19.4 7.5-5.6.2-4.2 2.1 2.4 3.6 4.6 1 7 1.1 10.4.2 5.8-1.4 5.8-1.4 4.4.9-1.4 2.1-7.1 4.5-8.7 3.6-.5-.3-3.3 0-6.3.8C1 681.6.5 682 .5 684.6c0 4.1 4.5 5.2 12.1 3.1 3.2-.9 6.2-1.3 6.7-1 .6.4-.6 1.1-2.8 1.7-3.8 1.1-6.6 3.9-5.2 5.2.4.4 3.7 1.2 7.3 1.8l6.7 1.1 2.8 8.5c1.6 4.7 3.3 8.6 3.9 8.8 1.6.6.1 2.2-2.1 2.2-1.7 0-2.1.8-1.8 3.7 0 .5-1 1-2.3 1.3-3.8 1-2.8 3.4 1.7 4 3.6.5 4 .7 4.1 3.8.1 1.8-.2 3.5-.7 3.8-.5.3-.9 1.4-.9 2.5 0 1.2-.7 1.9-1.9 1.9-2.4 0-4.3-2.3-3.5-4.3 1.1-2.9-1.8-2.9-4.8-.1-2.8 2.7-3.4 2.9-11.4 2.9-7.2-.1-8.4.2-8.4 1.6 0 .9.7 2 1.6 2.3 2.5.9 9.5.7 13.8-.5 3-.8 4.5-.8 6.3.2 1.2.7 2.3 1.5 2.3 1.8 0 .4-2.3 1.7-5.2 3.1-4.1 2-5.4 3.2-6.3 5.9-1.4 4.4-2.5 4.7-6.6 2.2-4-2.5-5.9-2.7-5.9-.6 0 .8.6 1.5 1.4 1.5.7 0 2.1 1.1 3 2.5.9 1.4 2.6 2.5 3.7 2.5 2.2 0 7.9-5.4 7.9-7.5 0-4.1 9.6-6.3 14.3-3.2 2 1.3 2.5 2.7 3 8.8.4 4.4.2 7.8-.4 8.5-.5.7-2.9 1.2-5.2 1.2-4.8-.1-15.7 2.8-15.7 4.2 0 1.9 2.1 2 7.6.4 5-1.4 5.8-1.4 7.1-.1 1.2 1.2 2.1 1.3 3.9.5 1.3-.6 2.4-1.4 2.4-1.8 0-1.1 5.8-3.3 7.2-2.8.7.3 6.1.2 12.1-.1 10.4-.6 14.6.2 6.9 1.4-2 .3-5.9 1-8.7 1.6-2.7.5-6.3 1.2-8 1.5-4.9 1-12.5 5.1-16.2 8.9-3.3 3.4-3.4 3.8-2.3 6.5 1 2.5 1 3.4-.4 5.5-.9 1.4-2 2.5-2.4 2.5-.4 0-1.4 1.6-2.1 3.5-1.7 4.7-7.5 10.5-10.5 10.5-1.3 0-3.1.3-3.9.6-1.2.4-1.4 0-1-1.5.3-1.2 1.1-2.1 1.9-2.1.7 0 3.1-.7 5.3-1.6 3.1-1.2 4.5-2.6 6.5-6.7 4.8-9.9 4.9-10.7 2.5-13.4-2.6-2.7-5.1-3.1-4.2-.6.5 1.3.2 1.5-1.5 1.1-1.2-.4-2.6 0-3.3.8-.6.8-1.6 1.1-2.1.8-.5-.3-1.2.4-1.5 1.6-.4 1.3-1.1 1.9-2 1.6-.9-.4-1.7.1-2 1.4-.3 1.1-1.1 2-1.8 2-1.1 0-1.4 2.8-1.4 12.2v12.1l117.7-.6c64.7-.4 177.2-1 250-1.4 127.5-.6 132.2-.7 132.2-2.5 0-1.9-3.1-2-69.5-1.9-13 0-20.2-.3-18.9-.9 3.1-1.2 3.7-3.7 1.5-5.9-1.1-1.1-2.2-3-2.6-4.3-.4-1.2-1.3-3.3-2-4.4-1.2-1.9-1.1-2.3 1.6-4.3 3.1-2.3 3.6-4.5 1.7-8.6-.7-1.5-.8-2.9-.2-3.4.5-.5 9.9-1.2 20.9-1.6 19.9-.6 21.6-.9 23.5-4.5.8-1.4-.4-2.7-6.5-7-7.1-5-7.3-5.3-5.9-7.5 1.1-1.7 1.2-3.4.5-8.1-.5-3.2-1.2-6.9-1.6-8.2-.5-1.4-.3-2.2.5-2.2.6 0 1.4.9 1.7 1.9.3 1.4 1.6 2 4.5 2.3 2.2.2 4.1.1 4.3-.2.2-.3 4-.3 8.4.1 5.7.5 8.8 1.3 11 2.8 1.6 1.2 4.9 3 7.3 4 3.3 1.4 3.9 2 2.6 2.6-1.8.7-3.9-.2-10.6-4.7-2.2-1.5-5.2-3-6.6-3.4-4.3-1-3.2 2 1.4 4.1 5.3 2.4 5.7 3.2 2.6 5.6-1.9 1.5-2.6 3-2.6 5.4 0 3.1-.3 3.5-3.4 4.1-1.9.3-4.2 1.4-5.2 2.5-2.2 2.4-.6 4.4 4.8 6.1l3.9 1.1-6.5 1.7c-3.6.9-6.8 1.9-7.2 2.2-1.3 1.4 1.8 4.8 4.4 4.9 2 .1 1.3.5-2.8 1.8-5.7 1.8-6.7 3.1-5.6 7.7.5 1.7 1.3 2.4 3.1 2.4 2.7 0 3.3-1.8 1.3-3.8-1.9-1.9 0-2.7 7-2.7h6.7l-.3 8.7c-.1 5.5.2 8.9.9 9.3 2.1 1.3 3.2-1.4 3.8-9.6l.6-8.3 10 .3c8.7.2 10.4 0 12.4-1.7 3-2.4 2.3-6.9-1.2-7.4-1.7-.2-2.1-.9-1.9-2.6.3-2.3.2-2.4-7-2.2-9.4.3-12.3.1-11.6-.5.3-.3 4.8-.8 9.9-1.1 5.2-.2 9.8-.9 10.2-1.3 1.9-1.9-.6-3.1-6.1-3.2-4-.1-5-.3-3.2-.8 1.4-.4 2.5-1.3 2.5-2.1 0-1.2-1.7-1.6-7.2-1.8l-7.3-.3V760c0-2.7.3-3 3.3-2.9 3.1.2 3.1.2.4.6-4.6.7-3.1 3.7 2 4.1 3.3.2 4.4-.1 5.7-1.9.8-1.2 1.3-2.6 1-3.1-.3-.4-.1-.8.5-.8 1.1 0 4.4 4.5 5.4 7.3.7 1.9 3.4 3.3 4.4 2.3.9-.8-2.7-8.5-4.7-9.9-.9-.7-2-1.8-2.4-2.4-1.1-1.9 2.2-.4 7.7 3.5l4.7 3.4v-2.6c0-1.4-.4-2.6-.9-2.6-.4 0-2.4-1.1-4.4-2.5-2-1.3-5.5-2.9-7.8-3.5-2.3-.6-5.9-2.3-8.1-3.8-3.4-2.2-8.2-3.8-24.8-8.2-1.9-.5-5.7-1-8.5-1-6.4 0-12.3-2.1-15.7-5.5-2.4-2.3-2.8-3.4-2.8-8.4 0-6.1 1.3-8.2 6.9-11.1 2.7-1.4 6.5.1 8.2 3.2 1.3 2.5 5.4 2.5 4.3 0-.5-.9-.7-3.6-.7-6 .2-4.6.1-4.7-3-3-1.2.6-3.8 1.3-5.8 1.4-5 .3-9.4 2.8-12.3 7.1l-2.5 3.7-1.6-3.7c-.8-2-1.5-4.1-1.5-4.6 0-.6-1.2-4-2.7-7.6-2.2-5.3-2.5-7-1.6-8.4.7-1 .9-2.8.6-4-.9-3.7 6.1-9.5 13.5-11.2 4.7-1 11.7 1.8 13.4 5.5 1.3 3 2.9 3.2 6.3 1 1.8-1.2 2.8-1.3 4.4-.4 2.7 1.4 2.7 1.4-1 6-1.7 2.1-3.4 5.4-3.8 7.2-1.6 7.5 2 16.9 6.8 17.6 2.8.4 2.7-1.2-.4-5.2-3.7-4.9-3.5-12 .4-16.6 2.6-3.1 3.2-3.4 5-2.2 2.8 1.6 2.8 1.6 3.4-1.7.7-3.2 4.5-8.1 8.8-11.1 2.4-1.8 3.7-2 8.9-1.4 7.4.8 10 2.8 10.9 8 .5 3 1.1 3.8 2.5 3.6 1-.2 2.7.4 3.7 1.4 1.8 1.6 1.9 1.6 1.9-.9 0-3.6-1-5.7-2.6-5.7-.8 0-2-1.5-2.8-3.4-.8-1.9-2.4-3.9-3.5-4.6-2.9-1.5-2.6-2.7.7-3.5 3.5-.8 8.2-5.3 8.2-7.9 0-1.7-.6-1.4-4 1.9-2.2 2.1-5.2 4.1-6.7 4.2-1.6.2-3.3 1-3.9 1.8-.7 1-2.9 1.5-6.1 1.5-2.8 0-6.6.7-8.5 1.5-3.4 1.4-9.8 7.6-9.8 9.5 0 1.8-2.9 1-3.5-1-.7-2.3-4.4-3.5-8.4-2.7-2.2.5-3.5 0-5.3-1.7-5.3-5.2-14.4-6-22.8-1.8-3.9 2-6.1 3.9-7.5 6.5-1.1 2-2.2 3.7-2.5 3.7-1.7 0-14.7-42.5-15.5-51.1-.3-2-.9-5.6-1.5-8-.7-2.4-1.5-6.7-1.9-9.4-.4-2.8-1.2-6-1.9-7.2-1.3-2.4-1.7-11.3-.4-11.3.4 0 1.4-1.3 2.3-2.9 2.2-3.8 13.3-7.1 18.3-5.3 4.3 1.6 4.6 1.5 4.6-.8 0-2.4-3.3-4.2-7-3.8-3.8.4-4.1-1.3-.8-3.2 2.2-1.2 3-1.2 5.1-.1 3.1 1.6 4.6.9 4-2.1-.5-3.3 3-8.4 7.4-10.6 6.3-3.2 12.5-3.6 17.9-1.3 6 2.7 7.2 2.6 8-.2.7-3.1 6.2-5.7 11.8-5.7 9.4 0 20.9 5.8 24.2 12.2 2.2 4.3 3.6 14.8 2.4 18.8-.5 1.9-.8 3.6-.5 3.8.8.8 12.5 1 12.5.2 0-.9-3.5-2-6.7-2-2 0-2.2-.6-2.6-7.8-.6-11.5-1.9-15.1-7-19.8-5.5-4.9-14.4-7.9-23.9-7.9-5.9 0-7 .3-10.5 3.2-3.9 3.1-4 3.1-9 1.8-3.6-.9-6.4-1-9.9-.4-2.7.6-5.8 1.1-6.9 1.2-2.2.2-3.9 1.9-8.6 8.4-1.9 2.7-3.8 4.3-5.1 4.3-3.2 0-8.7 3.9-9.4 6.6-.4 1.7-1.7 2.7-4.5 3.4-2.1.6-4.7 2.2-5.7 3.5-1.1 1.4-2.2 2.5-2.6 2.5-.4 0-3.6-9.4-3.6-10.7 0-.2.7-.3 1.5-.3s2.3-1.7 3.2-3.7c1.2-2.4 2.7-3.9 4.3-4.3 2.4-.6 2.9-2.2 1.9-5.9-.2-.9.6-1.7 2.1-2.1 2.1-.5 2.6-1.3 2.8-4.5.2-2.3 1.4-5.4 2.8-7.3 3.8-4.9 7.8-6.6 16.5-6.6 6.5-.1 8.1.3 11.2 2.4 2 1.4 4.2 3.5 4.8 4.7 1.3 2.4 3.4 3 4.4 1.3 1-1.6-3.8-7.4-8.2-10.1-3.1-1.9-5.2-2.4-11.3-2.4-9.9.1-17.7 3.5-21.4 9.4-1.4 2.2-2.6 4.5-2.6 4.9 0 .5-1.3 2.6-3 4.7s-3 4.8-3 6.1c0 1.2-1.3 3.6-2.9 5.2l-2.9 2.9v-3.1c.1-7-2.1-15.6-5.6-21.6-2-3.4-3.6-6.6-3.6-7.1s-.9-2.8-2.1-5.1c-1.4-2.7-1.7-4.4-1.1-5 .6-.6.8-3.3.5-6.2-1.6-15.6 18.1-25.3 29.3-14.5 2.8 2.7 3.4 3 4 1.6.4-1.3 1-1.4 2.4-.7 4.3 2.3 5.6-.3 1.9-3.6-1.8-1.6-2-2.8-1.7-8.2.5-7.4 2.6-10.2 8.5-11.1 2.7-.5 3.9-1.2 4.1-2.6.2-1.1.6-2.7.9-3.5.3-.8.5-2.9.4-4.5-.2-3.3 3.1-8.5 5.4-8.5.8 0 2.3-1.3 3.5-2.9 3-4.3 11.9-8.4 16.3-7.6 1.9.4 3.7.3 4-.2 1.1-1.7 13.8.7 18.4 3.4 5 2.9 13.1 11.5 13.9 14.9.6 2.4 4.4 3.5 4.4 1.4 0-2.3 5-6 8-6 1.6 0 3-.5 3-1 0-1.8-6.7-1.1-9.3 1-3.1 2.5-4.4 2.5-5.2.1-1.1-3.5-11.4-11.9-17.3-14.2-4.6-1.7-7.7-2.1-16-2-8.9.1-11 .5-15.3 2.6l-4.9 2.6-2.5-2.8c-1.3-1.5-2.5-3.1-2.5-3.6 0-1.3-12.3-9.8-19.1-13.2-11.1-5.7-29.6-7.9-36.1-4.4-2.4 1.3-3.5.5-4.3-3.1-.4-1.9-.1-3.7.8-5 .8-1.2 1.3-2.9 1-3.9-.8-3.2 2.4-7.6 8.6-11.8 6.5-4.4 14.7-6.1 20.6-4.4 2.3.6 3.8.4 6.3-1.2 1.9-1.1 5.5-2.1 8-2.2 4.7-.2 4.7-.2 4.5-3.6-.3-5.3 2.6-13.7 6-17.5 6.1-7 20.3-11.7 28.5-9.5 8.4 2.2 14.3 6.3 19 13 2.3 3.4 4.2 6.6 4.2 7.1 0 2 3.3 1.7 6.6-.5 4-2.7 6.4-3.1 9.7-1.4 3.2 1.6 7.7 6.1 7.7 7.5 0 .7.5 1.6 1 1.9 2.6 1.6.6-4.6-2.7-8.5l-3.7-4.3-7.3.6-7.3.5-3.8-3.6c-10.8-10.4-13-11.9-20-14.1-10.4-3.1-13.8-2.8-24.8 2.5-8.5 4.1-12.7 9-15.3 17.8-2.2 7.4-2.4 7.6-5.4 7.6-1.7 0-4 .9-5.3 2.1-1.9 1.8-3.7 2.1-11.6 2.3-10.8.3-13.9 1.5-21.5 8.2-4 3.4-5.4 5.4-5.9 8.2-.3 2-1.1 5.1-1.7 6.9-.8 2.3-.8 4.2.1 7 1.1 3.5 1 3.9-1.1 5.5-1.2 1-2.9 1.8-3.8 1.8-.9 0-2.2.7-3 1.6-.9 1.1-2.2 1.4-4.5.9-6-1.1-18.8 6.2-22.3 12.9-1.8 3.2-2.8 2.6-3.6-2.4-.8-4.5-1.9-5.7-4-4-1 .8-1.5.8-2-.1-.5-.6.4-2.1 2-3.3 2.2-1.8 2.7-2.8 2.3-5l-.6-2.8 12 .4c11.6.3 12 .2 13.8-2.1 2.5-3.4 2.7-13.6.2-14.6-.9-.4-6.4-.8-12.1-.9l-10.5-.1-1.3-8.5-1.2-8.5 3.4-3c2.9-2.5 3.7-4.2 4.9-9.8.8-3.7 2.4-8.7 3.6-11.2 1.2-2.5 2-5.5 1.7-6.6-.4-1.5.1-2.3 1.8-2.9 1.3-.5 2.6-1.9 3-3.1l.7-2.1 2.6 2.5c2.4 2.5 2.5 2.7.9 5.1-.9 1.4-1.3 2.7-.9 3 .9.5.7 9.4-.3 12.6-.9 2.7 1.1 5.2 2.1 2.7 1-2.7 2.5-2 1.8.8-.3 1.4-.4 2.5-.1 2.5 1.4 0 5.7-2.4 5.7-3.2 0-.5 1.6-.6 3.5-.2 3.7.7 5.2-1.3 1.7-2.3-2.2-.5-5.2-6.8-5.2-10.6 0-1.5-.5-2.7-1.1-2.7-.6 0-.8-.7-.5-1.6.4-1-.1-2.2-1.1-2.9-1.3-1-1.5-1.6-.6-2.7.7-.8 1.1-3.7 1.1-6.6-.1-4.4.3-5.7 2.5-8 1.6-1.7 2.7-3.9 2.7-5.7 0-18.4 1.5-24.5 6-24.5 4.2 0 24.1-12 28.3-17 2-2.3 2.5-3.8 2.1-5.9-.5-2.4-.1-3.1 3-4.9 3.8-2.3 4.2-3.2 2.5-6.3-.8-1.7-.5-2.5 2-4.8 5.8-5.4 3.6-8.1-6.5-7.7-6.2.2-8 .7-14.9 4.6-4.4 2.4-9.2 5.2-10.7 6.3-4 2.9-4.3 1.6-1.1-4.1 2.7-4.9 2.7-5.2 1-6.9-1.6-1.7-1.8-1.6-5 .1-1.7 1.1-4.8 3.4-6.7 5.2-1.9 1.8-5.3 4.9-7.6 6.8-4.3 3.8-6.4 8.6-6.4 15.1 0 4.2-4.3 12.5-6.4 12.5-1.8 0-8.4 7.4-10.2 11.4-.7 1.7-2.7 4.7-4.3 6.6l-3 3.5-.2-10.5c-.1-14.9.3-126.6.6-144 .1-8 .5-41 .9-73.5.8-63.9.7-65.2-4.5-73.4-1.6-2.5-2.9-5-2.9-5.7 0-1-2.1-2.4-3.6-2.4-.2 0-2.4 2.6-4.9 5.7zm3.8 70.8c-.2 54-.8 98.2-1.8 140-.2 8.8-.6 28.4-1 43.5-.3 15.1-.7 33.3-1 40.5-.3 7.1-.8 26-1.1 42-.5 24.8-.8 29.2-2.2 30.2-2.4 1.9-.6 2.8 5.6 2.9 11.5.3 15.8 3.4 4.7 3.4-5 0-6.5.3-6.5 1.4 0 2.2.9 2.4 7.2 1.7 7.5-.9 8.8-.1 8.8 5.5v4.5l-13.9-.2c-15.2-.4-15-.3-15.1-6.7 0-1.9.5-2.2 3.4-2.2 4.1 0 5.4-1.5 2.8-3.1-1.6-1-1.8-2.3-1.5-11.8.2-5.8.5-18 .8-27.1.2-9.1.6-18.3.8-20.5.2-2.2.7-19.3 1-38 .9-45.5 2-98.4 2.2-107 .1-3.9.3-14 .5-22.5.2-9.8.7-15.8 1.4-16.3.8-.6.8-1 0-1.3-.8-.3-1.1-4.3-.8-12.7.8-32.2 1.4-64.3 1.5-85.2 0-19.6.3-23.3 1.7-25.8l1.7-2.8.5 4.3c.3 2.4.4 30.8.3 63.3zm7.5 46.5c-.1 59.1-.6 119.2-.9 133.5-.4 14.3-1 45.1-1.4 68.4-.7 40.7-.8 42.6-2.8 45.2-1.1 1.6-2.4 2.6-3 2.2-.6-.3-.7-7.5-.3-18.7 1.1-30.8 1.5-49.6 2.1-90.6.3-21.7.7-54.6 1-73 .6-45.3 1.6-111.2 2-140.5.5-41.7.3-38.3 2.1-36 1.4 1.8 1.5 14 1.2 109.5zm-191.4 68.9c.9 1 2.1 3.3 2.6 5.1 1.2 4-1.4 8.9-5.6 10.8-3.3 1.6-2.6 3.6 1.4 4 2.5.3 3.2.8 3.2 2.5 0 1.2.3 3.2.6 4.4.4 1.5 0 2.3-1.5 2.8-3.3 1-5.5-1-9.5-8.7-2.1-4-4.4-8-5.1-8.8-3.8-4.3-3.8-8.6.1-12.4 2.3-2.4 11.6-2.2 13.8.3zm62.9 7.7c.9 1-.4 3.4-1.8 3.4-1.7 0-2.8-1.7-2-3 .7-1.1 2.8-1.3 3.8-.4zm-56.8 7.3c-.3.6-1.1 1.1-1.7 1.1-.6 0-.6-.6.2-1.5 1.4-1.7 2.6-1.3 1.5.4zm64.7 8.7c.4.3.8 1.1.8 1.9 0 .9-3.1 1.8-9.7 3-5.4.9-12.7 2.3-16.3 3.1-3.6.8-15 3-25.5 4.9-10.4 1.9-20.2 3.7-21.6 4.1-2.5.5-2.7.3-2.5-2.8.2-3.3.3-3.3 7.6-5 4.1-1 9.1-2.3 11.1-2.9 2.4-.8 4.2-.8 5.5-.1 1 .5 3.8 1.3 6 1.7 3.7.6 4.4.3 6.2-2 2-2.5 2.5-2.7 7.9-2 5 .5 6.2.3 8.5-1.4 1.4-1.2 3.7-2.1 5-2.2 1.2 0 3.2-.4 4.3-.9 1.9-.9 11-.4 12.7.6zm.1 14.9c.4 4.3.2 7.3-.5 8.4-.9 1.5-.8 2.7.5 5.4.9 1.9 1.7 4.6 1.7 6 0 1.3.7 3 1.5 3.7 1.6 1.3 2.1 5 .7 5-.4 0-1.3-.5-1.9-1.1-1.5-1.5-5.4-.1-5.2 1.9.1.9.1 2.2 0 2.8-.1 1.2-4.7 2.9-6.8 2.5-.7-.1-1.7.7-2.3 1.8-1.5 2.9 1.4 4.3 5.1 2.4 3.6-1.8 5.1-.9 4.3 2.3-.3 1.3-.1 3.1.6 3.9.6.8.9 1.9.5 2.6-1.2 1.8-15.7.5-20.4-1.8-7.3-3.7-8.3 1.3-1.1 5.7 2.7 1.7 4 3.2 4 4.7 0 1.2 1.2 3.4 2.6 5 2.2 2.4 2.5 3.4 1.9 6.9-.3 2.4-.2 4.5.4 4.8 1 .7 3.6-1.5 4.4-3.6.3-.9 1-.7 2.7.7 2.7 2.4 4.2 5.9 3.4 8-.8 1.9-4.8 1.9-6.4 0-.7-.8-2.1-1.5-3.2-1.5s-3.2-.9-4.7-1.9c-2.7-1.9-24.3-8.1-28.3-8.1-1.7 0-1.8-.2-.8-1.5.8-.9 1-2.9.7-5l-.6-3.5h4.5c4 0 4.4-.2 4.4-2.4 0-1.4-.4-2.8-1-3.1-1.8-1.1-1.1-2.3 1-1.8 1.1.3 2 0 2-.6 0-.8.5-.8 1.9 0 2.3 1.5 5.1.5 5.1-1.8 0-1 .6-2.8 1.4-3.9.8-1.1 1.4-3.8 1.3-6.1-.1-2.3.6-5.1 1.6-6.6.9-1.5 1.7-3.3 1.7-4 0-.8.7-3.1 1.6-5.2.8-2.1 1.2-4.5.8-5.4-1.6-3.7-1.3-5.7 1.6-9.7 2.1-2.9 2.6-4.4 1.8-4.7-.7-.2-.1-.8 1.5-1.2 1.5-.4 2.7-1.1 2.7-1.6s.7-.9 1.5-.9 1.5-.5 1.5-1c0-.6 1.3-1 2.9-1 1.6 0 3.4-.7 4.1-1.5 1.9-2.3 2.7-1 3.3 6zm-33.6 4.1c-.3.3-1.2.4-1.9.1-.8-.3-.5-.6.6-.6 1.1-.1 1.7.2 1.3.5zm-10.5 3.8c.7-.5.8-.2.4.5-.5.7-1.1 1-1.4.7-.3-.3-1.1-.1-1.9.5-1 .9-1.3.8-1.3-.4 0-1.7 2.3-2.9 2.8-1.5.2.4.9.5 1.4.2zm16.1-.1c.3.8-.1 1.4-.9 1.4s-1.4-.6-1.4-1.4c0-.7.4-1.3.9-1.3s1.1.6 1.4 1.3zm2.2 10.6c.3.5.1 1.2-.5 1.6-.5.3-1-.1-1-.9 0-1.8.6-2.1 1.5-.7zm-26.9 5.1c0 1.1-.4 2-.8 2-1 0-1.1-2.4-.1-3.3.9-.9.9-1 .9 1.3zm220.6 1.3c-5.8 5.8-8.2 9.9-8.1 14.1.1 2.7-.6 5.4-2.1 7.9-2.1 3.5-2.1 4-.7 5.4 1.9 1.9 3.2 1.1 5.3-3.3 2-4.2 3.8-3.3 4.8 2.6.4 2.7 1 3.8 1.9 3.4 1.5-.5 1.7-9 .3-11.2-1-1.6 2.9-5.2 6.5-5.9 2.9-.5 2.9-.5 1.8 1.9-.8 1.9-.8 3.1 0 4.6 1.6 3.1 1.3 4.2-1.1 4.2h-2.2l2.1 2.2 2.2 2.1 7.6-4.6c10.7-6.6 9.7-3.3-1.2 3.7-4.8 3.1-9.8 5.9-11.2 6.2-1.5.3-5.1 1.4-8.1 2.6-3 1.1-7 1.9-8.7 1.9-2.7-.1-3.3.2-3.3 1.8 0 1.1.7 2.6 1.5 3.5 2 1.9 1.9 3.4-.3 7.1-1 1.6-2.7 5.2-3.7 7.8-1.8 4.9-4.3 7.8-3.3 3.9.5-1.7-.1-2.5-3.3-3.8-2.8-1.3-4.2-2.8-5.4-5.6-1.9-4.8-1.9-6.2 0-7.8.8-.7 1.5-2.1 1.5-3.1 0-1.1.4-1.9.8-1.9 1.1 0 6.2-7.8 6.2-9.4 0-.7.5-1.7 1.1-2.3.5-.5 1.4-3.7 1.8-6.9 1.2-7.9 3.5-13.2 6.3-14.4 1.3-.5 4.6-2.9 7.3-5.4 5-4.4 7.8-5.5 3.7-1.3zm-203.7.7c.3.5.2 1-.4 1-.5 0-1.3-.5-1.6-1-.3-.6-.2-1 .4-1 .5 0 1.3.4 1.6 1zm230.8 2.3c-5.1 4.5-9.8 7.7-11.3 7.7-.7 0-.1-.9 1.3-2 1.4-1.1 2.8-2 3.2-2 .4 0 1.6-1.2 2.7-2.6 1.8-2.3 4.9-4.2 7.1-4.3.4-.1-1 1.4-3 3.2zm-10.3.2c0 .2-1 .9-2.2 1.5-2.2 1.1-2.2 1-.4-.4 2.1-1.7 2.6-1.9 2.6-1.1zm-215.3 3.1c-.3.3-1.2.4-1.9.1-.8-.3-.5-.6.6-.6 1.1-.1 1.7.2 1.3.5zm204.8 2.8c-3.4 2.8-6.2 3.8-7 2.6-.3-.5.8-1.1 2.4-1.5 1.6-.3 3.5-1.3 4.2-2.1.6-.8 1.7-1.4 2.3-1.4.6 0-.2 1.1-1.9 2.4zm24-1.4c-.3.5-1.6 1.5-2.8 2.1-2.1 1-2.1.9.2-1 2.5-2.3 3.6-2.7 2.6-1.1zm-235.2 5.2c-1.7 1.9-1.7 2.1.5 3.8 2.1 1.7 1.8 3.7-.3 2.2-3.1-2.2-3.7-4.1-2.4-7.1 1-2.3 1.6-2.7 2.6-1.9 1.1.9 1 1.5-.4 3zm219.2-.1c-.4.5-1.2.9-1.8.8-.9 0-.8-.2.1-.6.6-.2.9-1 .6-1.5-.4-.7-.2-.8.5-.4.6.4.9 1.2.6 1.7zm6 2.4c-2.1 1.8-4.2 3.2-4.6 2.9-.4-.2-.9.3-1.3 1.1-.3.8-1.2 1.5-2.1 1.5-2.4 0-1.7-1.7 1.3-2.9 1.5-.6 4.1-2.2 5.7-3.6 4.6-3.7 5.5-2.9 1 1zm-219 .5c.3.5.1 1-.4 1-.6 0-1.1-.5-1.1-1 0-.6.2-1 .4-1 .3 0 .8.4 1.1 1zm-21.5.4c0 .3-.4.8-1 1.1-.5.3-1 .1-1-.4 0-.6.5-1.1 1-1.1.6 0 1 .2 1 .4zm-2 10.2c0 .8-.4 1.2-1 .9-.5-.3-1-1-1-1.6 0-.5.5-.9 1-.9.6 0 1 .7 1 1.6zm9.3 3c-.3.9-.9 1.2-1.2.7-.3-.4-1-1.1-1.5-1.6-.5-.4 0-.7 1.2-.7 1.5 0 2 .4 1.5 1.6zm-15.1 2.6c-.7.7-1.2.8-1.2.2 0-1.4 1.2-2.6 1.9-1.9.2.3-.1 1.1-.7 1.7zm-3.7 1.8c.3.5.1 1-.4 1-.6 0-1.1-.5-1.1-1 0-.6.2-1 .4-1 .3 0 .8.4 1.1 1zm10.3 2.6c-1.4 1.4-1.5 1.4-1-1.1.3-1.9.8-2.3 1.5-1.6.8.8.7 1.6-.5 2.7zM129 332c0 .6-.7 1.3-1.5 1.6-.8.4-1.5 1.2-1.5 1.8 0 .7-1.8 2.5-4 4.2-4.3 3.1-4.9 4.4-2.3 4.4 1.4 0 1.4.2-.2 2-1.3 1.4-1.5 2.4-.8 3.1.6.6.8 2.4.3 4.3-.8 3.6.7 8.3 3.1 10.2.8.6 3.1 1.7 5.1 2.5 3.4 1.2 4 1.1 6.5-.7 1.6-1.1 3.6-2.3 4.6-2.7.9-.3 1.7-1.5 1.7-2.6 0-2.6 3.4-3.3 7.5-1.5 1.9.8 4.4 1.4 5.5 1.4 1.1 0 2 .4 2 .8 0 1.9-2.5 2.9-6.3 2.5-3.5-.4-5 .1-9 2.8-4.8 3.2-5 3.7-3.2 8.1.5 1.3-.1 2.1-2.8 3.4-3.3 1.6-5.7 4.9-5.7 7.9 0 .8-1 3.1-2.2 5.2-1.9 3.1-2.3 5.3-2.3 11.5 0 7 .2 8 2.6 10.4 3 2.9 10.3 4.8 13.1 3.3 1.4-.8 1.8-.6 1.8.9 0 2.3 1.9 4.1 5.4 5 3.7 1 3.6 2.6-.1 3-2.1.2-4.1 1.4-5.7 3.2-2.3 2.8-2.5 2.8-4 1.1-.9-1-1.6-2.8-1.6-4 0-1.2-1.3-3.6-2.9-5.2-4.1-4.1-10.1-4.1-14.2 0-1.7 1.7-2.9 4-2.9 5.5 0 3.4-.6 3.3-4.2-.6l-3.1-3.3 2.3-4c1.3-2.2 4.6-6.9 7.3-10.4 4.1-5.3 4.8-6.7 3.9-8.2-.9-1.3-.7-2.3.7-4.1 1.1-1.3 2.2-4.9 2.6-8 .5-3.6 1.4-6.3 2.6-7.4 2.6-2.4 2.4-6-.7-9.1-2.2-2.1-3.2-2.5-6.6-2-3.1.4-4.7.1-6.9-1.5-1.8-1.4-3.7-1.9-5.8-1.6-4.2.6-3.6-.9 2-5 7.2-5.5 8-6.2 7.4-7.2-.9-1.5-5.1-1.2-6.4.4-.7.8-2.2 1.7-3.5 2-1.2.3-2.8 1.7-3.4 3.1-.7 1.5-1.7 2.3-2.2 2-1.7-1-5 .5-5 2.3 0 .9-.7 2.6-1.5 3.6-1.8 2.3-2 8.7-.4 10.3.8.8.9 2 .1 4.2s-.7 4.3.3 8c1.8 6.9.9 16.5-2 21.6-2.4 4.2-2.4 3.6.1 17 .4 2.2 1.1 4.8 1.6 5.7.6 1.2.2 2.9-1.2 5.5-1.1 2.1-2 4.3-2 4.9 0 .7-1.1 3.2-2.5 5.5-1.7 3.1-2.5 3.8-2.5 2.4 0-1.1-.1-11.5-.1-23-.2-35-3.4-57.1-10.2-69.8-4-7.5-13-16.1-18.5-17.8-5.3-1.5-5.4-2.9-.2-2.9 2.5 0 3.9.4 3.8 1.1-.2.7 1.1 1.6 2.9 2.1 3.7 1 11.3 9.2 14.4 15.5 1.1 2.4 2.5 4.3 3 4.3 1.9 0 .7-3.7-2.9-9.1-4.2-6.3-9.4-11.2-13.8-13l-2.9-1.2 5.2-.9c4.2-.8 5.6-.6 7.7.7 1.4 1 2.6 2.2 2.6 2.8 0 .6-1.1 0-2.5-1.3-1.7-1.6-2.8-2.1-3.6-1.3-.7.7.4 2.5 3.5 5.8 2.5 2.6 5.5 6.7 6.7 9.1 1.1 2.4 2.4 4.4 2.8 4.4 2 0 1.8-1.7-.9-7.1-1.7-3.2-3-6.4-3-7 0-1.8 3.8 3.5 5.6 7.6 1.6 3.9 4.1 4.2 3.6.5-.1-1.2.5-2.8 1.5-3.5 1.5-1.1 1.5-1.4-.4-4.1-1.2-1.6-3-3.8-4.2-4.8-2.9-2.6-2.6-3.6 1-3.6 2.6 0 2.9.3 2.4 2-.4 1.3.1 3 1.4 4.6 1.2 1.5 2.1 3.1 2.1 3.7 0 1.3 3.1 3.6 4.9 3.7.8 0 1.1-.7.8-2-.3-1.1-.1-2 .3-2 1 0 2.4 2 2.5 3.5.1.5.5 1.7.9 2.7.4.9.1 3-.9 5l-1.7 3.3 3.6-3.5c2-1.9 4-4.8 4.5-6.5.6-2.6 1.2-3 4.1-3 2.5 0 3.5-.5 4-2 .6-2.1 10.9-13.4 12.3-13.5.4 0 .7.5.7 1zm-48 3.9c0 1.8-1.8 2.1-3 .6-1-1.3-.9-1.5.9-1.5 1.1 0 2.1.4 2.1.9zm64 1.9c1.4 1.1 1.9 2.3 1.4 3.5-.5 1.5-1.4 1.6-5.8 1-2.8-.3-6-.7-7.1-.7-3.3-.1-2.3 2.6 1.4 3.9 2.2.7 3 1.4 2.3 1.9-.9.5-.8 1.3.4 3.1 1.5 2.3 1.5 2.5 0 3.1-.9.3-1.6 1.2-1.6 1.9 0 1.9-5.5 7.5-7.3 7.5-3.2 0-4.8-3-4.5-8.4.3-4.7.5-5.1 2.8-5.1 1.8 0 2.5-.6 2.5-2 0-1.3-.7-2-1.9-2-2.4 0-2.9-1.5-1.3-3.5 1.8-2.2 5.6-4.2 6.7-3.5.5.3 1.9.1 3-.5 1.7-.9 2-.8 2.1.7 0 1.5.2 1.5 1.6-.5 1.9-2.7 2.4-2.7 5.3-.4zm51.5-.8c1.8 0 4.5 2.8 4.5 4.6 0 .8-.4 1.3-.8 1-.4-.2-1.4-.1-2.2.4-.9.6-2-.2-3.7-2.6-2.7-4.1-2.9-4.8-.7-4 .9.3 2.2.6 2.9.6zm-100 3.6c2.4 3.7 1.3 4-1.4.4-1.2-1.7-1.7-3-1.2-3s1.6 1.2 2.6 2.6zm-12.5-.1c1.1 1.3 1 1.4-.4.9-.9-.3-1.6-1-1.6-1.5 0-1.3.6-1.1 2 .6zm125 0c0 .8-.4 1.5-.9 1.5s-1.1-.7-1.5-1.5c-.3-.9 0-1.5.9-1.5.8 0 1.5.7 1.5 1.5zm-58 1.3c0 1.3-1.2 2.2-2.2 1.6-1-.6-.1-2.4 1.3-2.4.5 0 .9.4.9.8zm11.7 1.6c1.6 1.5 0 4.1-2.1 3.3-.9-.4-1.3-1.3-1-2.2.7-1.8-1.6-2.1-3.4-.3-1.5 1.5-2.7.4-1.9-1.6.7-1.8 6.3-1.2 8.4.8zm-105.7.9c3.8 1.6 9 6.3 11.7 10.4 2.6 4 7.2 18.7 9.8 31.9 2.4 11.5 2.5 14.5 2.9 52.5.5 42.3 1.3 52.7 5.7 71.7 1.1 5 2.5 9.2 2.9 9.2.5 0 1 .8 1.2 1.7.5 2.6 7.5 2.8 8.3.2.7-2.3 3.3-2.5 4.1-.4.4.8 1.3 1.5 2 1.5.8 0 1.7-.7 2-1.5.9-2.3 6.5-1.9 7.1.5.7 2.6 1.8 2.5 3.8-.3 1.5-2 1.7-2.1 2.6-.5 1.3 2.3 2.7 2.3 5.1.1 1.7-1.5 2-1.5 2.8-.3.8 1.3 1.3 1.2 3.9-.3 3.7-2.1 7.7-2.2 8.5-.1.6 1.5.8 1.5 3 .1 1.6-1.1 2.6-1.3 3.4-.5.6.6 1.8.7 2.9.2 1-.4 2.9-.9 4.3-1 1.4-.1 4.2-.5 6.3-.9 2.6-.5 4.6-.3 6.4.6 2.2 1.2 2.7 1.1 3.8-.4 1.5-2 2.8-2.1 5.5-.5 1.6 1 2.4 1 4 0s2.4-1 4 0c1.5 1 2.2 1 3.2 0 .6-.6 2.5-1.2 4-1.2 2.1 0 3.1.6 3.8 2.5.5 1.4 1.4 2.5 2 2.5.6 0 1.6-1.1 2.2-2.5 1.3-2.8 2.3-3.2 3.2-1 .3.8 1.2 1.5 2.1 1.5.9 0 1.8-.7 2.1-1.5.4-.8 1-1.5 1.6-1.5.5 0 .7.4.4.9-.3.5.1 1.4.9 2.1 1.1.9 1.9.7 4-1.4 3-3 4-3.2 4.9-1.1.7 2.1 4.3 1.9 5.6-.3 1-1.6 1-1.6 2 0 1.4 2.3 2.9 2.3 5.5-.2l2.2-2.1 1.7 2.6c2.1 3.2 3.2 3.2 4.9-.1 1.2-2.3 1.5-2.4 2.6-1 1.7 2 5.1 2.1 5.1.1 0-2.6 8.8-2 11.8.7l2.3 2.3 1.9-2.5c1.8-2.4 1.9-2.4 3.9-.6 2.1 1.9 2.2 1.9 4.5-.3l2.3-2.2 1.7 2.6c2 3 3.6 3.2 4.3.5.7-2.6 2-2.5 4.4.2l1.9 2.3 2.3-2.8c2.8-3.4 4-3.4 6.2 0l1.8 2.7 1.8-2.2c2.2-2.8 5.6-2.8 7.8 0 2 2.4 4.1 1.7 4.1-1.3 0-1.6.7-1.9 4.2-1.9 3.3 0 3.9.3 3 1.2-.7.7-1.2 2.2-1.2 3.4 0 1.7-.8 2.3-3.6 2.7-2 .4-4.5.2-5.6-.4-1.3-.7-4.3-.6-9.6.2-5.3.9-17.9 1.2-40.2 1.1-17.9-.1-39.9.3-49 .8-9.1.5-35.4 1.2-58.5 1.5-39.3.6-58.1 1.5-60.5 3-1.4.9-1.3 3 .3 4.3.7.6 1.4 3.9 1.5 7.3.2 3.5.5 6.6.8 7 .2.4 1 4.1 1.8 8.3.8 4.2 2.1 9.1 2.9 10.8.7 1.8 2.2 5.8 3.1 8.8 1.1 3.1 4.3 8.6 7.6 13 7.5 9.7 21 22.5 25.5 24 1.9.6 3.5 1.8 3.5 2.5 0 2.5 5 7.4 8.8 8.6 2 .6 4.9 2.3 6.4 3.7 2.2 2 3.6 2.5 7.5 2.3 2.6-.1 6.4-1 8.4-2.1 3.1-1.6 4.4-1.7 7.5-.8 2 .5 4.9.7 6.4.5 1.4-.3 4.6-.1 6.9.4 2.9.6 5.4.6 7.5 0 5.3-1.8 22.8-2.2 24.6-.7 5.2 4.5 14.9 1.8 23.2-6.5 3.3-3.2 6.5-5.9 7.1-5.9 1.7 0 7.7-6.2 7.7-8 0-.9 2.1-3.6 4.6-6 5.2-5.1 11.9-14.2 15.8-21.5 2.5-4.8 3.9-9.2 7.2-22 3-12 4.5-16.6 6.3-18.3 1-.9 2.1-3.3 2.5-5.3.9-5.3 3-6.5 10.9-6.7 3.7-.1 6.7.1 6.7.3 0 .3-1.1 1.2-2.5 2.1-2 1.3-2.8 1.4-4 .4-1.6-1.3-4.5-.7-4.5.9 0 .5.9 1.3 2 1.6 1.6.5 1.8 1 .9 2.6-.8 1.6-1.7 1.8-4.5 1.3-4.2-.8-4.5.7-.6 4.2l2.7 2.5-3.7-.7c-4.2-.7-5.1.8-1.8 2.8 2.6 1.6 2.7 4.2.1 3.5-1-.2-2.5-.1-3.2.4-1.1.8-1 1.3.8 2.8 2.8 2.4 2.1 6.1-1.2 6.1-1.2 0-2.8.7-3.5 1.5-1 1.2-.7 1.5 1.4 2.1 1.4.3 2.6 1.3 2.6 2.1 0 1-.7 1.4-2 1-1.1-.3-2.5.2-3.2 1-1.1 1.3-.9 1.8 1 3.1 3.3 2.1 2.9 4.3-.7 3.6-4.2-.9-5 1.3-1.5 4.1 3.1 2.5 2.3 3.5-2.6 3.2-1.9-.2-2.5.3-2.5 1.8 0 1.1-.6 2.5-1.4 3.1-1.2.9-1.2 1.6-.2 4.2 1.6 3.9.7 5.5-2.8 4.7-3.9-.8-6.4 2.1-3.6 4.1 1.5 1.1 1.6 1.7.7 2.6-.9.9-1.5.9-2.4 0-.7-.7-2-1.2-3-1.2-2.5 0-3.6 3-1.5 4.2 2.6 1.4 2 2.6-1.5 3-2.7.2-3.3.7-3.3 2.5 0 1.3-1.9 4.5-4.3 7.3-2.4 2.7-4.9 6.5-5.7 8.4-.8 1.8-2 3.6-2.8 3.9-2.3.9-4.9 7.5-4.2 10.7.8 3.6.3 3.7-3.5.9-3.7-2.8-11.9-2.3-15.3.9-1.2 1.2-4.1 2.4-6.4 2.8-3.7.6-4.6.3-7.3-2.2-5.4-5.2-13.6-6-17.5-1.8l-2.5 2.7-2.1-2.7c-1.4-1.8-3-2.6-5.1-2.6-3.7 0-9.6 2.7-11.1 5.2-1.4 2.1-3.2 2.4-2.4.4.3-.8 0-2-.8-2.6-1-.8-1.7-.6-2.8 1l-1.4 2.1-.6-2.1c-.5-1.8-.9-2-2.5-1.1-1.5.8-2.3.7-3.2-.4-.7-.8-3.1-2-5.3-2.6-3.3-.9-4.7-.8-7.3.4-3.8 1.9-5.4.8-5.4-3.8 0-3.5-2.4-7.5-4.6-7.5-.8 0-2-1.3-2.7-2.8-1.7-3.9-6.6-10.4-9.4-12.6-1.8-1.3-2.7-1.5-3.7-.7-.9.8-2.2.7-4.5-.5-3-1.5-5.3-1.4-9.7.3-1.4.5-1.6.3-1.1-1.1.4-1-.2-2.9-1.6-4.7-1.8-2.6-2.7-3-5.2-2.5l-3 .6 2.5-1.9c2.1-1.7 2.2-2.1 1-3.6-.8-.9-1.5-2.4-1.6-3.2-.4-2.4-1.2-2.7-3.9-1.5-1.4.7-3 1.2-3.5 1.2-1.8 0-1-2.9 1-4 1.1-.6 2-1.7 2-2.6 0-2-2.7-2.9-4.5-1.4-1 .8-1.5.9-1.5.2 0-.6.9-1.6 2-2.2 2.7-1.5 1.5-4.3-1.7-3.7-1.3.2-2.6 0-2.9-.4-.3-.5.2-.9 1-.9 3.9 0 2.3-4.9-1.8-5.1-2-.2-2-.2.2-.6 3.2-.6 2.7-3.3-.8-4.6-3.5-1.3-3.8-2.3-1-3 3.1-.8 2.4-3.5-1.2-4.6-3.1-.9-3.2-1-1-1.7 2.9-.8 2.5-3.8-.6-4.2-2.7-.4-2.9-1.8-.2-2.5 2.5-.7 1.6-3.7-1.1-3.7-1 0-1.9-.5-1.9-1 0-.6.8-1 1.8-1 2.6 0 3.3-1 2.1-3.1-.6-1.1-2.1-1.9-3.6-1.9-3 0-2.1-1.6 1.2-2.2 1.2-.2 2-1.1 2-2.3 0-1.5-.8-2.1-3.2-2.3-4-.4-4.1-1-.6-3.7 3.3-2.7 2.3-4.9-1.7-4-2.3.5-3 .2-3.5-1.4-.7-2.2.1-4.4 1.4-3.7.4.3 1.3.1 2-.4 1.9-1.1.6-4-1.9-4-2.8 0-2.5-1.9.5-3 1.4-.5 2.5-1.4 2.5-1.9 0-1.6-2.7-3.2-4.4-2.5-1.3.5-1.6 0-1.6-2.4 0-1.7.6-3.2 1.5-3.6 2.2-.8 1.8-3.7-.5-4.3-2.8-.7-2.5-3 .6-3.7 3.2-.8 2.9-3.8-.5-4.6-3-.7-4-3-1.4-3 1.1 0 2.4-.5 3-1.1 1.7-1.7.4-3.9-2.3-3.9-3.1 0-3.2-2.7-.1-3.2 3.4-.5 3-4.2-.5-4.6-3.8-.4-3.5-2.8.3-3.6 4-.8 3.7-4-.4-4.4-3.2-.4-3.1-2.5.1-3s2.5-3.2-1.1-4.5c-2-.8-1.7-3.4.3-2.9 1.6.4 4.1-1.8 3.4-3-.3-.5-1.7-1.3-3-1.8-3.4-1.3-3.1-3.9.4-3.7 3.7.3 3.6-2.4-.3-4.2l-3-1.5 3.3-.8c4.1-1.1 4.1-4.1-.1-4.6-3.3-.4-2.6-2.2.8-2.2 3.7 0 4-1.8.6-3.8-3.3-1.8-4-3.2-1.6-3.2.8 0 1.5-.5 1.5-1 0-.6-.7-1.3-1.5-1.6-2-.8-1.9-3.4.2-4.9 1.8-1.3 1-3.5-1.3-3.5-1.9 0-1.8-1.5.2-3.5 1.3-1.2 1.4-1.9.5-2.8-1.6-1.6-1.4-3.7.3-3.7 2.4 0 3-2.1.7-2.7-2.8-.7-2.7-2.7.2-4.1l2.2-1.1-2.2-.7c-2.6-.7-3.3-5.4-.9-5.4s3-2.1.8-2.7c-2.7-.7-3.3-3.3-1.3-5.6 1.4-1.6 1.3-1.8-.7-2.4-2.6-.6-3.1-4.8-.7-5.7 2.3-.8 1.8-2.5-1-3.2-3-.7-3.1-1.2-.7-3 1.3-1 1.4-1.5.5-2.5-1-1-1.5-.9-2.8.1-1.6 1.4-1.8 1.1-1.9-4-.1-1.7-.6-2.4-1.7-2.2-.9.1-2.3-.6-3.3-1.6-1.5-1.7-1.5-2-.1-3.2.8-.7 1.5-1.6 1.5-2.1 0-1.5-2.7-1-3.4.6-.8 2.2-3.6.7-3.6-2 0-1.3-.4-2.7-1-3-.5-.3-1 .1-1 1 0 1.1-.7 1.5-2.2 1.3-1.5-.2-2.3-1-2.3-2.2 0-1.1-.6-2.1-1.4-2.4-1-.3-1.2.1-.9 1.5.5 1.7-.1 1.9-6.1 2-8.3 0-13 2.1-17.4 7.5-6.1 7.5-5.8 14.3.8 22.4 3.4 4.1 4 4.4 8.3 4.4 4.2 0 5.2-.5 9-4.2 3.5-3.4 4.2-4.7 4-7.2-.4-4.3-5-6.6-7.9-4-1 .9-2.1 1.5-2.4 1.3-1-1 2.6-4.7 5.1-5.3 2.2-.6 3.2-.2 5 2.1 4.1 5 2.7 13.6-2.6 15.6-1.7.6-3 1.5-3 1.9 0 2.1-5.4 2.8-10.4 1.4-7.4-2.2-9.9-4.2-8.5-6.7.9-1.7.7-2.1-.9-2.6-2.5-.6-4.7-7.8-3.7-12.4.8-3.8 5.2-11.9 6.4-11.9.5 0 2.5-1.6 4.5-3.5 2.1-1.9 4.9-3.8 6.4-4.1 1.5-.3 3.5-.8 4.5-1.2 3.2-1.2 17.1-.5 20.7 1.1zm169.1 2.4c2.7 3.7 4.1 4.7 6 4.6l2.4-.3-2.5 2c-3.8 3-5.5 2.5-7-2-1.6-4.9-3.6-6.8-5.2-5.2-1.8 1.8-3.8 1.4-3.8-.7 0-1.8 1.5-2.7 5-3 .8 0 3.1 2 5.1 4.6zm-57.8-2.1c.3.4-.1 1.7-1 3.1-2 3-4.1 1.5-2.1-1.6 1.3-2.2 2-2.5 3.1-1.5zm5.7 2.4c0 .5-.4 1-.9 1s-1.3.9-1.6 2.1c-.5 1.4-1 1.8-1.7 1.1-1.3-1.3.7-5.2 2.7-5.2.8 0 1.5.4 1.5 1zm27 .4c0 .8-.7 1.6-1.5 2-1.5.5-2.1-1.4-.8-2.7 1.1-1.2 2.3-.8 2.3.7zm-59 .6c0 .5-.7.7-1.5.4-.8-.4-1.5-.8-1.5-1 0-.2.7-.4 1.5-.4s1.5.4 1.5 1zm10.5 1.2c3 1.3 3.1 4.4.3 6.2-2.6 1.6-5.2-.4-5.6-4.3-.4-3.5.9-3.9 5.3-1.9zm27.6.7c.4.3.3 1.5-.1 2.7-.7 1.6-1.5 1.9-4.4 1.6-3-.4-3.5-.7-2.5-1.8.7-.8 2-1.2 3-.9 2.4.8 2.4-.3.2-2.2-1.6-1.3-1.6-1.3.7-.7 1.4.3 2.8.9 3.1 1.3zm32.4-.9c.4.6 2.1 1.7 3.8 2.4l3.2 1.4-3 1.3c-1.6.7-4.6 1.3-6.5 1.4-3 0-3.5.3-3.3 2.2.3 2.6-1.8 3.1-3.7.8-1-1.2-1-1.5 0-1.5 2.2 0 5-3.1 5-5.5 0-1.2.3-2.5.7-2.8 1-1 3.1-.8 3.8.3zm111.7 1.2c-1.6 1.6-1.5 5.5.2 6.1.8.3 2.1-.4 3-1.6l1.5-2.2-.2 2.5c-.2 1.9.3 2.6 2.1 2.8 1.6.2 2.2.8 1.8 1.8-.3.8 1 3.1 3 5.4 2 2.2 3.3 4.4 2.9 5-.9 1.5-2.5 1.2-2.5-.6 0-.9-.7-1.4-1.7-1.2-2.7.5-2.3 5.1.5 6.3 2.3 1 3 2.5 1.2 2.5-.6 0-3-.9-5.2-2-5.4-2.6-7-2.6-6.6.2.2 1.3 1.8 2.9 4.1 4.1 2 1 3.7 2.3 3.7 2.7 0 .5-1.6 1.4-3.6 2-4.7 1.6-5.2 3.5-1.9 7 2.6 2.8 2.7 2.9 1.4 8.7-1.6 7.5-2.1 8.4-5.7 10.6-2.4 1.3-3.2 1.4-3.8.5-1.1-1.7-.4-38.1.7-39.3 1.3-1.3 1.1-5.2-.3-7.5-1.1-1.7-1-2.2.1-2.9.8-.6 1.5-2.7 1.6-5.3.1-5 1-6.8 3.3-6.8 1.2 0 1.3.3.4 1.2zm27.9 3.5c-1.2 2-1.4 1.4-.5-1.2.4-.9.9-1.4 1.1-1.1.3.2 0 1.3-.6 2.3zM189 353c1.3.8 1.2 1.1-.5 2.4-2.4 1.8-4.1 2-5 .6-1.9-3 2.1-5.2 5.5-3zm-142.3 1.5c10.9 3.2 16.6 11.8 18.8 28.5.5 3 .9 21 1 40 .2 32 .9 57.7 2 71 1.1 12.7 3.9 31.6 4.9 32.8.5.8 1.1 3.5 1.1 6 .3 6.7 6 32.2 9.6 42.2 1.7 4.7 3.7 10.4 4.6 12.8 1.6 4.6 9.8 15.5 13.8 18.5 2.4 1.8 3.4 4.7 1.6 4.7-.5 0-1.9 2.1-3.1 4.7-2.8 6-2.1 10.1 2.5 14.2 3.4 2.9 3.4 3.1 1.5 4.1-2.4 1.3-1.9 2.5 1.9 4.4 2.2 1.2 3.4 1.3 6.2.3 6.4-2.2 12.4-7.7 8.5-7.7-1.1 0-1-.8.5-3.7 4.6-8.9-3.1-16-10.6-9.9l-3 2.5 2.3 2.3 2.3 2.3 1.9-2.5c1.6-2 2.2-2.2 2.9-1.1 1.7 2.6-.3 6.4-3.8 7.4-6.2 1.6-10.9-3.6-9.1-10.1 1.3-5.1 3.9-7.3 8.7-7.5 8.3-.3 14.1 7.8 12.9 18-.8 6.5-3.1 10.6-5.6 9.8-.9-.3-2.3.1-3 1-.7.9-2.1 1.3-3.5.9-1.7-.4-2.8.2-4.4 2.2-2.1 2.6-2.1 2.9-.5 4.1 1.3 1 2.4.8 5.5-.8 2.2-1.1 3.9-1.6 3.9-1.1 0 .4-2.9 3.6-6.5 7.2-7.1 7-6.8 7.2-8.3-3.2-1.2-7.5-6.7-20-11.1-25.1-11.8-13.6-22-35.7-25.5-55.7-1-5.2-2.6-12.7-3.6-16.5-2.1-7.6-3.6-14.6-4.6-22.2-.3-2.6-.8-5.1-1-5.5-.3-.4-.7-4.2-1-8.5-.3-4.3-1.1-14.1-1.8-21.8-.6-7.7-1.1-16.3-.9-19 .8-16 .9-57.4.1-65.5-.5-5.2-1.9-13.1-3-17.5s-2-9.2-1.9-10.8c.8-15 .8-14.7-2.8-17.9-3-2.7-3.9-3-8.1-2.6-2.7.3-6.1 1.5-7.8 2.7-2.7 1.9-3.1 2.6-2.5 5.4 1.2 6.4 5.5 8.5 9.3 4.7 2.3-2.3 2.5-1.9.8 1.3-.6 1.2-1.4 2.9-1.8 3.7-.9 2-6.8 3.1-9.6 1.8-3-1.4-5.4-6.6-5.4-11.6 0-5.2 3.4-10.1 9-13 5.2-2.6 8.8-2.8 15.7-.7zm116.1.7c.2.9-.6 1.8-1.8 2.1-1.6.4-2 .2-1.6-1 .3-.8.6-1.9.6-2.5 0-1.5 2.5-.3 2.8 1.4zm36.7 4.2c0 3.5-.4 5-1.7 5.7-2.1 1.2-3.1-.2-2.2-3.4.7-2.9-1.1-4.4-3.1-2.7-.8.7-1.5.9-1.5.4.1-1.2 6.2-5.3 7.5-5 .6.2 1 2.4 1 5zm-28.8-3c1.2.1 2.5.4 2.9.8.4.5 1.8.8 3.1.8 2.9 0 2.9 1.5.1 4.6-3.1 3.2-5.4 3-7.2-.5-.9-1.6-2.2-3.1-3.1-3.4-.8-.4-1.5-1.4-1.5-2.3 0-1.2.5-1.4 1.8-.9.9.4 2.7.8 3.9.9zm92 2.5c1.2.9 2.3 1.9 2.3 2.3 0 .4-3.4 1.4-7.6 2.4-5.8 1.2-8.1 1.4-10 .5-2.4-1-3.1-3.5-1.6-5.8 1.6-2.5 13.1-2.1 16.9.6zm-24.3-.4c-.4.8-1 1.2-1.5.9-1.4-.8-1-2.4.6-2.4.9 0 1.2.6.9 1.5zm-7.1 2.2c1.4.8.7 2.3-1.3 2.3-2.5 0-7-2.1-7-3.2 0-.8 6.5-.1 8.3.9zm-15.9 2.7c-.3.9-1 1.6-1.5 1.6-.6 0-.5-.9.1-2.1 1.3-2.4 2.4-2 1.4.5zm63.1-1.4c-.3.5-1.4 1-2.3 1-1.5 0-1.5-.2-.2-1 2-1.3 3.3-1.3 2.5 0zm-112.9 3.5c1.1 2.7 2 3.5 3.9 3.5 3 0 3.3 2.1.6 5.8-4.6 6.6-11.1 21.3-16.5 37.9-2.3 7.1-5.8 8.3-7.1 2.4-.3-1.5-1.7-3.4-3-4.1-2-1.1-2.8-1-4.9.4-7.6 4.9-11.1-1.5-9-16.8.6-3.8 1.2-4.9 3.2-5.7 2.3-.9 2.3-1.1.9-3.2-2-3-.7-5 2.9-4.5 2.6.3 2.9 0 3.6-3.7.5-2.2.6-4.9.4-6.1-.5-1.7.2-2.5 3.3-3.8 3.5-1.7 4.1-1.7 6.9-.2 4.3 2.2 5 2.1 6.6-1.9 1.2-2.7 2.1-3.5 4.1-3.5 2 0 2.9.8 4.1 3.5zm55-1.4c.8 1.4-1.1 3.3-2.5 2.5-1.1-.7-.4-3.6.9-3.6.5 0 1.2.5 1.6 1.1zm18.9-.1c.3.5.1 1-.4 1-.6 0-1.1-.5-1.1-1 0-.6.2-1 .4-1 .3 0 .8.4 1.1 1zm-48.2 2.1c.4 1.4-.6 3.6-3 6.7-1.9 2.6-4.8 7.3-6.4 10.5-1.6 3.3-3.3 6.4-3.8 7.1-.5.6-1.6 3.4-2.4 6.3-.9 2.8-2 6-2.6 7.1-.5 1-2.2 7.4-3.6 14.2-1.4 6.8-3 12.9-3.6 13.6-.5.7-1.1 3.4-1.3 6.1-.2 2.6-1.1 7-2 9.6-.9 2.6-1.6 5.7-1.6 6.8 0 2.8-2.8 7.9-4.4 7.9-1.7 0-7.6-4.1-8.9-6.1-.6-.9-.7-2.3-.4-3.2.5-1.4 1.1-1.1 3.6 1.3 2.8 2.9 8.1 4.2 8.1 2 0-.6-.8-1-1.8-1-2.6 0-9.2-5.8-8.6-7.5.5-1.2 1.2-1 3.8 1 3.3 2.5 6.6 3.3 6.6 1.6 0-.5-.9-1.2-1.9-1.6-3.6-1.1-7.1-4.6-7.1-7v-2.4l3 2.9c1.7 1.7 3.8 3 4.8 3 1.5-.1 1.5-.2.1-1.3-6-4.6-7.8-6.7-7.3-8.1.8-2.1 1.7-2 3.9.4 1.9 2.1 7.5 2.8 7.5 1 0-.6-.8-1-1.8-1-2.2 0-5.9-2.5-7.2-5-1.6-2.9.4-3.2 4-.5 1.9 1.4 4 2.5 4.7 2.5 2.1 0 1.5-2-.9-2.9-2.8-1.1-7.4-5.8-6.5-6.7.3-.4 2.1.3 4 1.5 3.8 2.3 5.7 2.7 5.7 1 0-.5-1.6-1.7-3.5-2.5-3.4-1.4-5.4-3.8-4.2-5.1.4-.3 1.8.2 3.3 1.1 1.4 1 2.9 1.5 3.2 1.1 1-.9-1.2-3.9-3.6-5-1.2-.5-2.2-1.5-2.2-2.2 0-1.6-.1-1.7 4.4.7 3.8 1.9 5.6 1.9 5.6-.1 0-.5-.7-.9-1.5-.9-2.6 0-6.5-3.1-6.5-5.1 0-2 1.5-2.6 2.4-1 .9 1.3 4.5 2 5.2 1 .3-.5-.8-1.4-2.5-2-1.9-.7-3.1-1.8-3.1-2.8 0-2.8 1-3.1 4.2-1.5 1.7.9 3.2 1.3 3.5 1.1.2-.3-.8-1.1-2.4-1.9-1.5-.7-2.8-2-2.8-2.8 0-1.4.5-1.4 4.5-.3.9.2 2-.7 2.7-2.2 1-2.2.9-2.8-1-4.5-2.3-2.2-1.6-4 .8-2 .8.7 1.5.8 1.5.2 0-.5-.7-1.5-1.5-2.2-2.4-2-1.7-3.2 1.5-2.5 3.1.7 4.3-.8 1.5-1.9-2.9-1.1-1.6-2.8 1.5-2.1 2.3.5 3 .3 3-.8 0-.8.9-1.7 2-2 2.6-.7 2.6-2.7.1-2.7-2.4 0-3.5-1.5-2.7-3.6.5-1.3.9-1.3 3.5.1 3.8 1.9 5.1 1.9 5.1 0 0-.9-1.1-2.1-2.5-2.7-1.4-.6-2.5-1.5-2.5-1.9 0-1.6 2-1.9 4-.7 1.8 1.1 2.3 1 3.1-.5 1.3-2.3 2.5-2.2 3.2.4zM293 377.8c0 21.7-1 35.2-2.7 35.2-1.9 0-6.3 4.9-6.3 7 0 2.8-3.8 3.3-11.7 1.5-1.2-.3-2.8-1.7-3.5-3.3l-1.4-2.7 7.9-.1c5.8-.1 8.3-.5 9.5-1.8 1.5-1.5 1.1-1.6-6.2-1.6-4.2 0-8.6-.5-9.7-1-1.1-.6-2.5-.7-3.2-.3-.6.4-2.3.8-3.7.8-1.5 0-2.8.8-3.6 2.3-2.1 4.2-2.9 4.3-6 1.5-3.5-3.2-9.3-11.5-11.3-15.8-1.2-2.9-1.2-2.9.6-1.3 5.3 4.8 17.3 9.2 18.8 6.8.9-1.5-1.3-4-3.7-4-2.9 0-11.1-4.6-12.6-7-.8-1.3-1.9-1.9-3-1.6-1.8.6-4.9-3-3.7-4.2.3-.3 3.3-.5 6.5-.4 8.4.3 18.6-4.4 29.7-13.9 3.4-2.9 11-6.5 11.9-5.6.2.1-1.3 1.9-3.2 4-2 2.1-5.1 4.1-7.4 4.7-3.9 1-5.3 3.4-2.7 4.3 2.2.7 6.9-2 11.7-6.7 2.6-2.6 5.3-4.6 6.1-4.4 1 .2 1.3-.6 1.1-3-.1-1.7.2-3.2.8-3.2.6 0 1 5.2 1 13.8zm-81.2-4.8c1.1.8 2.3 2.7 2.6 4.1.6 2.5.5 2.6-2.9 1.5-1.9-.6-3.5-1.6-3.5-2.3 0-.7-1.4-2.8-3-4.7-4.2-4.8-3.1-7.4 1.4-3.2 1.8 1.7 4.2 3.8 5.4 4.6zm13.6-7.2c.2.4.1 1.4-.4 2.2-.7 1.1-1.2 1.2-2.1.3-.6-.6-.8-1.6-.5-2.2.8-1.3 2.3-1.4 3-.3zm40.9 1.2c-.3 1.1-1.2 2-2 2-1.1 0-1.1-.4-.3-2 .6-1.1 1.5-2 1.9-2 .5 0 .7.9.4 2zm-35 .6c1.1 1.1-.5 3.4-2.4 3.4-2.1 0-2.2-.1-1.3-2.4.6-1.6 2.5-2.1 3.7-1zm6.7 1.3c0 1.9-2.9 4.4-4.4 3.8-1.5-.6-1.5-.9-.1-3.1 1.5-2.2 4.5-2.7 4.5-.7zm12 3.6c-.7 1.9-1.4 2.5-2.1 1.8-.7-.7-.6-1.9.2-3.7 1.6-3.5 3.3-1.8 1.9 1.9zm6-2.6c0 2-2.7 4.8-3.7 3.7-.9-.8 1.4-5.6 2.7-5.6.5 0 1 .8 1 1.9zm5-1c0 .5-.7 1.4-1.5 2.1-1.6 1.4-1.8 1-.9-1.4.6-1.7 2.4-2.2 2.4-.7zm-150.2 2.6c1.9 2.4 2.3 2.5 6.8 1.5 3.7-.9 4.9-.8 5.6.2 1.2 1.9 1 2.4-1.8 5.7-1.9 2.3-2.3 3.5-1.6 4.8.5 1 .7 3.2.5 5-1 6.2-8.8 10.1-8.8 4.3 0-1.4-.4-3.1-.8-3.8-1.2-1.7-4 .7-5.7 4.9-1.5 3.4-3 3.8-3 .8 0-1.2-.7-2.7-1.6-3.4-1.8-1.3-2.2-7.3-.9-14.2 1-5.3 3-7.2 8.7-8.2.4 0 1.5 1 2.6 2.4zm130.5-.5c-.6 2.2-2.3 3.8-2.3 2.1 0-1.7 1.2-4.1 2-4.1.5 0 .6.9.3 2zm5 0c-.6 2.2-2.1 3.5-3 2.7-.2-.3-.2-1.5.2-2.6.8-2.8 3.5-2.8 2.8-.1zm22.2 2c-1 1.7-6.5 4.2-6.5 3 0-.6 1.5-1.7 3.3-2.5 3.9-1.7 4-1.7 3.2-.5zm-47.1 2.4c3.1 2.8 3.2 3.6.8 3.6-1.1 0-2.4-1.1-3-2.5-2-4.3-1.5-4.6 2.2-1.1zm39.6 1.4c0 .5-1.2 1.4-2.7 2.1-2.8 1.3-2.8 1.3-.9-.8 2-2.2 3.6-2.7 3.6-1.3zm-27.5 1.2c.3.5.3 1.5-.1 2.1-.6 1.1-2.3-.6-2.4-2.4 0-1 1.8-.9 2.5.3zm21.5 1.5c0 .8-.2 1.5-.4 1.5s-1.1.3-2 .6c-1 .4-1.6.1-1.6-.9 0-1.4 1.3-2.4 3.3-2.6.4-.1.7.6.7 1.4zm-16 .9c0 1.4-2.8 4.2-3.5 3.4-.2-.2-.2-1.4.2-2.6.6-2.4 3.3-3.1 3.3-.8zm5 .6c0 1.3-.7 2-1.9 2-1.4 0-1.8-.5-1.4-2 .3-1.1 1.2-2 1.9-2 .8 0 1.4.9 1.4 2zm3.4.5c.3.8.1 1.5-.4 1.5-.6 0-1-.7-1-1.5s.2-1.5.4-1.5.6.7 1 1.5zm-54.7 1.6c2.9 1.8 3.2 2.4 2 3.1-1.4.7-1.4 1.3-.1 5.3 1.7 4.7 3.7 7.1 5.3 6 .7-.4.4-2.4-.9-5.7-1.8-4.7-1.9-7.9-.2-5.1.4.6 3.9 3.3 7.7 5.9 3.9 2.6 7.2 5.1 7.3 5.6.2.5 1.7 1.5 3.3 2.4 2.5 1.3 3.6 1.3 6.7.2 5.4-1.8 5.8-2.3 4.3-6.4-1.2-3.5-.8-10.4.7-10.4 1 0 6.2 10.2 6.2 12.3 0 .9.4 3.6 1 5.9 3.4 14.8 3.9 17.2 3.5 17.6-.6.7-2.4-4.1-4.4-11.8-1.8-6.9-2.7-9-4.1-9-2 0-1.9 4.2.5 12.1 1.4 4.6 3 10.2 3.6 12.4 1.2 4.7 2.7 6.8 4.5 6.1 1-.4 2.1 2 3.9 7.8 1.4 4.6 3.4 9.5 4.5 10.9 1.1 1.4 2 3 2 3.5s.7 1.5 1.5 2.2c2.4 2 4.4-.3 2.7-3-1.4-2.3-1.5-3-.3-3 .5 0 1.1.8 1.5 1.7.3 1 .9 2.3 1.2 3 .9 1.9-3 3.3-10.8 3.8-8 .5-11-.4-9-2.7.9-1.1.7-2.7-.9-6.8-3.1-8.3-4.7-15.4-6.4-28.3-.9-6.6-2.1-12.9-2.6-13.9-1.2-2.2-4.6-1.9-4 .3 1.5 6.1 3.5 15.8 4.6 22.9 1.4 8.7 2.1 11.7 4.9 20.5.9 2.7 1.6 5.2 1.6 5.4 0 .9-21.6-3.2-22.7-4.3-.3-.3 0-1.2.6-2 1-1.1.9-2-.1-3.8-2.6-4.6-5.4-7-11.4-9.8-5.5-2.4-11.4-7.9-11.4-10.5 0-1.2-7-11.5-10.2-15l-2.8-3.1 2.1-5.3c3.1-8.2 9.1-19.1 10.5-19.1.4 0 2.2 1 4.1 2.1zM331 388c0 .5-.2 1-.4 1-.3 0-.8-.5-1.1-1-.3-.6-.1-1 .4-1 .6 0 1.1.4 1.1 1zm-215.2 12.5c.3.3-4.6 8.1-6.5 10.4-.2.3-1.3-.5-2.6-1.7s-2.9-2.2-3.5-2.2c-2 0-1.3-2.2 1.5-5.2 2.5-2.6 3.2-2.8 6.8-2.2 2.2.3 4.2.8 4.3.9zM103 413.9c0 1.7.4 3.3 1 3.6.6.3-.1 2.2-1.5 4.5-1.4 2.2-2.5 4.4-2.5 4.9s-.6 1.4-1.4 2c-2.2 1.9-4-10.1-2.1-13.9 2.5-4.8 6.5-5.4 6.5-1.1zm75.7.1c1.4 1.6 3.2 3 3.9 3 .6 0 1.5 1.7 1.9 3.7 1.2 6.3 6.2 12.3 13.1 15.4 5.9 2.7 11.4 7.7 11.4 10.4 0 .7-1.2 2-2.6 3-1.4.9-2.2 2.1-1.8 2.5.8.7 18.5 4.3 26.4 5.3 1.9.3 5.5 1 7.9 1.7 2.5.6 5.8.9 7.3.6 1.6-.3 3.7 0 4.8.6 1.6 1 2.3.9 4.3-1 1.4-1.3 3.5-2.2 5.3-2.1 2.7 0 2.8.1.9 1.2-4.7 2.8-10.5 9.5-10.5 12.1 0 1.7.5 2.6 1.6 2.6.9 0 1.4.5 1.2 1.2-.7 2.1-2.6 2-4.5-.1-2.2-2.7-2.7-2.6-4.1.3-.8 1.8-1.6 2.3-3.1 1.9-1.9-.5-2.1-.1-2.1 3.7 0 5-2 5.1-3.3.1-.7-2.7-1-3.1-2.2-2.1-.8.7-1.5 2.3-1.5 3.6 0 1.3-.4 2.4-1 2.4-.5 0-1-1.4-1-3.1 0-3.9-2.3-3.4-3 .6-.7 3.9-2.4 3.7-2.8-.3-.5-4.6-3.2-4.3-3.2.3 0 2.4-.5 3.5-1.5 3.5-1.1 0-1.5-1.2-1.5-4.5s-.4-4.5-1.5-4.5-1.5 1.2-1.5 4.5c0 5.5-1.7 5.9-2.6.7-.9-4.8-1.3-5.5-2.8-4.3-.7.6-1.1 2.4-.8 4.1.3 2.2 0 3-1.1 3-1.7 0-3.4-5.9-2.4-8.4.8-2-.4-2.8-2-1.5-.7.7-1.3 3.1-1.3 5.6 0 4-.2 4.4-1.6 3.2-1.2-1-1.4-2.4-.9-7.1.6-4.8.4-5.8-.8-5.8-.9 0-1.9 1.6-2.6 3.7-1 3.5-1 3.4-.5-2 .4-4.6.3-5.7-1-5.7-1.7 0-2.2 1.4-3.2 8.4-.5 3.8-.9 4.5-1.6 3.2-.5-1-.7-3.8-.3-6.4.7-5.4.5-6.8-1.2-6.6-2 .3-1.5-1.7 1-4.4l2.2-2.4-2.5.7c-1.4.4-3.5 1.8-4.6 3.2-3 3.5-3.8 1.7-2.9-7.1.6-6.5.4-7.4-1.5-9.1-2.7-2.5-4.8-.8-3 2.5 1 1.8 1 3.2.1 6.2-.7 2.2-.9 5.3-.6 7 1.1 4.6 4.5 9.8 6.5 9.8 1.3 0 1.9 1.1 2.3 4.5.7 5 .1 7.5-1.8 7.5-1.7 0-3.7-2.5-7.5-9.3-3.1-5.5-5.3-7.7-6.6-6.4-.3.3.6 2.7 2 5.3 1.4 2.7 3.2 6.6 4 8.7 1.6 3.9 4.5 5.7 9.6 5.7 3.3 0 4.8 1.6 3.1 3.3-1.5 1.5-11.7-.6-14.2-2.9-1.5-1.3-2.2-1.4-3.3-.5-.8.7-1.3 1.8-1 2.5.7 1.8 8.2 5.6 11.1 5.6 1.5 0 2.2.4 1.7 1.1-1 1.7-15.7.6-18.7-1.4-4-2.6-5.3-6.4-4.6-13.2.4-3.3.9-8.3 1.2-11.2.3-2.8 1-5.9 1.5-7 1.3-2.4 5.9-21.4 7.1-28.8 1.7-11.1 4.5-23.5 5.3-23.5.4 0 2 1.3 3.5 3zm112.3 3.9c0 .6-.4 1.3-1 1.6-.5.3-1-.1-1-.9 0-.9.5-1.6 1-1.6.6 0 1 .4 1 .9zm-163.2 3.3c1.4 1.4 1.6 7.8.2 7.8-.5 0-1 .4-1 1 0 .5 1 1 2.3 1 3.7 0 4.8 1.4 4.5 5.6-.3 3.8-.2 3.9 3.2 4.2 5.1.5 7.3 2.9 6.7 7.2-.3 1.9-1 8.2-1.7 14-1.1 9.4-1.5 10.7-3.8 12.7-4 3.4-6.8 3-8.8-1.3-1.2-2.5-2.1-3.3-3.3-2.9-6.4 2.6-10.2 1.1-11.5-4.5-.8-3.4 3.2-10.4 6.2-10.8 1.2-.2 2.2-.6 2.2-.9 0-1.5-3.5-4.3-5.2-4.3-2.3 0-3.8-3.8-3.7-9.3.1-6.2 1.2-9 3.9-10.4 2-1 2.5-2 2.5-5 0-2.9.4-3.8 1.7-3.8.9 0 2-.4 2.4-.8 1-1 1.8-.9 3.2.5zm137.9 4c-.3.8-.6.5-.6-.6-.1-1.1.2-1.7.5-1.3.3.3.4 1.2.1 1.9zm-158.3 2.4c.8 2-.2 5.4-1.5 5.4-.5 0-.9-1.6-.9-3.5 0-3.7 1.3-4.7 2.4-1.9zm166.3.6c-.3.8-.6.5-.6-.6-.1-1.1.2-1.7.5-1.3.3.3.4 1.2.1 1.9zm9.3-.6c0 .8-.5 1.2-1 .9-.6-.4-.8-1.1-.5-1.6.9-1.4 1.5-1.1 1.5.7zm-30 1.5c0 1.1-.4 1.8-1 1.4-.5-.3-.7-1.2-.3-2 .7-2.1 1.3-1.9 1.3.6zm15.5-.1c.3.5.1 1-.4 1-.6 0-1.1-.5-1.1-1 0-.6.2-1 .4-1 .3 0 .8.4 1.1 1zm24.5 3.6c3 .3 33.8 1.2 47.8 1.3l4.3.1-.3 5.2-.3 5.3-15-.4c-8.2-.1-15.5-.7-16.1-1.2-.6-.5-4-1.5-7.5-2.2-6.3-1.3-6.5-1.3-13.6 1.9-4 1.8-7.5 2.9-7.8 2.5-.2-.5-5.2-.6-11-.3l-10.5.5v-5.7c0-5.4.1-5.6 2.8-5.7 1.5-.1 6.6-.3 11.4-.4 9.8-.4 10.8-.7 10.9-3.8.1-2.1.1-2.1.8.2.5 1.8 1.5 2.4 4.1 2.7zm-31-2.2c0 .3-.4.8-1 1.1-.5.3-1 .1-1-.4 0-.6.5-1.1 1-1.1.6 0 1 .2 1 .4zm-7.8 3.8c-.7.7-1.2.8-1.2.2 0-1.4 1.2-2.6 1.9-1.9.2.3-.1 1.1-.7 1.7zM146 436.8c0 1-.7 1.2-2.2.8-1.3-.3-2.6-.6-3-.6-.5 0-.8-.9-.8-1.9 0-1.7.3-1.8 3-.8 1.7.6 3 1.8 3 2.5zm-41.5-.4c4.7 1.7 5.4 3 2.8 5.9-1 1.2-2.7 4-3.7 6.1-1.2 2.8-2 3.6-2.6 2.7-.4-.7-.6-2.1-.3-3 .2-.9-.5-2.6-1.7-3.9-1.9-2-2-2.6-.9-5.7 1.5-4 1.2-3.9 6.4-2.1zm152.5 2.1c-.7.9-1.5 1.3-1.7 1.1-.7-.7.7-2.6 1.9-2.6.6 0 .6.6-.2 1.5zm-143.5 13.9c1.6.6 1.4 1-1.3 3.7-6.4 6.3-3.1 16.6 6.1 18.9 2.3.6 5.9 2 8 3.1 2.2 1.2 5.9 2.2 8.8 2.3l4.9.1v4.7c0 3.7-.4 5-1.9 5.8-2.7 1.4-3 1.3-2.4-.9.7-2.6-1.5-3.7-3.5-1.7-1.4 1.4-1.5 2-.4 3.7 1.2 1.8 1.1 2.4-.7 4.3-2.7 2.9-2.7 8-.1 10.6l2 2h-11.8l.6-4.3c.3-2.8 1.4-5 3.4-6.9 3.7-3.5 3.8-9.2.3-14.8-3.3-5.2-5.7-6.4-12.1-5.7-3.9.4-5.6.2-6.5-.9-.6-.8-2.7-1.4-4.5-1.4-2.9 0-3.4-.4-3.4-2.3 0-1.2 1.2-4.9 2.6-8.2 1.5-3.3 3.4-8.4 4.5-11.3 2.6-7.4 3-7.9 4.4-4.5.7 1.7 2.1 3.3 3 3.7zm190.4-1.2c6.8 1.2 7.8 3.1 1.4 2.6-3.9-.4-5.3-.1-5.7.9-.3.8-1.1 1.1-1.7.7-.8-.5-.8-.1 0 1.4 1 1.9 5.3 2.9 13.6 3.2 1.9.1 1.9.2.1 1.2-1 .5-3.5.7-5.6.4-3.3-.5-4-.3-4.5 1.5-1 3.1.8 4.2 7.5 4.7 3.3.2 6 .8 6 1.3 0 1-1.5 1.2-7.7.9-3-.1-5.5.6-9 2.7-4.2 2.4-5.8 2.8-12.8 2.8-8.1 0-17.9-2.1-17-3.6.3-.4.1-1-.5-1.4-.5-.3-1-2-1-3.7 0-2.7-.3-3-2.5-2.6-1.4.3-2.8.2-3-.2-.7-1.1 6.7-4.8 8.2-4.3.7.3 2.5-.5 3.9-1.6 1.5-1.2 3.2-2.1 3.9-2.1.6 0 2-.9 3-2s2.4-2 3.2-2c.7 0 1.3-.5 1.3-1 0-.6 1-1 2.3-1 1.3 0 4.1-.9 6.2-1.9 3.9-1.9 3.9-1.9 5 .2.7 1.5 2.4 2.4 5.4 2.9zm90.6-3.7c13.1 3.3 30.4 15.1 32 21.8.6 2.4.1 3.3-3.9 6.8-3.9 3.5-4.6 4.6-4.6 7.8 0 4.3-1 5.8-6.6 9.3-5.2 3.4-7.7 8.4-7.2 14.9.1 2.7.2 4.9 0 4.9s-1.6-.7-3.2-1.5-5.6-1.8-8.8-2.1c-4.7-.5-6.6-.3-9.8 1.4-6.9 3.6-14.4 14-14.4 20.2 0 1.7-.4 3-.8 3-1.2 0-13.5-10.8-16.5-14.5-1.4-1.7-5.3-8.2-8.7-14.5-3.4-6.3-7.7-13.3-9.4-15.5-4.5-5.6-4.7-6.1-3.7-8.7.5-1.3 1.4-4.8 2.1-7.8.9-3.9 2.3-6.6 4.9-9.3 6.3-6.8 10.9-8.1 16.3-5 2.9 1.8 3 1.8 5-.7 1.1-1.4 2.8-2.4 3.8-2.2 1.2.2 2.5-.8 3.6-2.7 3.5-5.9 18-8.6 29.9-5.6zM95 449.4c0 .8-.4 1.8-1 2.1-1.6 1-1.2 2.3 1 3 1.1.4 2.7 1.9 3.4 3.4 1.3 2.5 1.2 3.1-.7 6.6-2.3 4-4.7 5.7-4.7 3.3 0-.7-.9-3-2-5.1-2.5-4.7-2.5-6.7.1-11.1 2.2-3.7 3.9-4.7 3.9-2.2zm168.4-.4c3.1 1.1 3.3 2.6.6 3.3-1.3.3-2.4-.1-3-1.3-1.8-3.3-1.5-3.5 2.4-2zm52.6 1.2c0 .6-.6.5-1.5-.2-.8-.7-1.5-1.4-1.5-1.6 0-.2.7-.1 1.5.2.8.4 1.5 1.1 1.5 1.6zm-42.9.3c-.1 1.5-2.4 1.2-2.9-.3-.3-.9.2-1.3 1.2-1 1 .1 1.7.7 1.7 1.3zm-118.1 15c0 2.6-2.1 2.7-5.5 0-2.3-1.7-3.5-3.4-3.5-5v-2.4l4.5 3c2.5 1.7 4.5 3.7 4.5 4.4zm-65.9 2.7c.9 3.3 2 5.3 3.1 5.6 2.2.5 2.2.8.3 6.2-2.1 6-1.9 13.6.4 16.9 1.1 1.5 3.1 5.2 4.4 8.3 2.5 5.7 4.9 7.8 8.6 7.8 1.2 0 3 .6 4.1 1.2 1.6 1 2.2 1 3.2-.5 1.2-1.5 1.8-1.6 4.8-.6 3.3 1.2 26.1.6 73.5-1.8 6.6-.3 20.3-.7 30.5-.8 16.4-.1 44-1.5 63-3 6.3-.6 6.5-.5 7.7 2 .9 2 .9 2.7 0 3-.7.2-24.1.6-52.2 1-28 .3-55 .8-60 1-4.9.2-20.3.7-34 1-13.8.4-25.7.7-26.5.7-.8.1-7.4 0-14.6 0l-13.2-.2-1.6-7.3c-2.4-10.4-3.4-18.4-4.2-33.6-.7-14.3.2-16.7 2.7-6.9zm60.7.5c5.6 4.2 6.7 6.3 3.3 6.3-2.7 0-8.1-4.8-8.1-7.1 0-2.5.4-2.4 4.8.8zm170.5 1.8c-.7 2.1-1.3 1.9-1.3-.6 0-1.1.4-1.8 1-1.4.5.3.7 1.2.3 2zm-168.6 7.1c2.8.7 3.1 2.4.4 2.4-2.4 0-7.1-3.7-7.1-5.6 0-1.1.5-1 2.2.6 1.3 1.1 3.3 2.3 4.5 2.6zm158.2 4.9c-.2 7.4-.3 7.7-3.8 10.5-3.6 3-3.5 4.5.4 5.2 1.3.2 2.2 1.5 2.8 4.2 1.2 5.1-1.4 9-6.5 9.4-4.1.4-6.6-2-7.5-7-.4-2.8-.1-3.9 1.8-5.6 2.2-2.1 2.2-2.2.5-4.1-2.3-2.5-1.4-7.1 1.4-7.8 3.4-.9 2.2-2.5-1.2-1.7-2.9.6-3.1.5-1.9-.9.7-.9 2.1-1.9 3.2-2.2 2.6-.9 2.4-2.5-.3-2.5-2.1-.1-2.1-.2-.5-1.1.9-.5 1.7-1.7 1.7-2.4 0-1.1 1.3-1.5 5.1-1.5h5l-.2 7.5zm9.7-3.7c-1.4 1.4-1.6 1.4-1.6.1 0-2 2.3-4.4 2.9-2.8.2.6-.4 1.8-1.3 2.7zm-68.6.7c0 3.3-.2 3.5-3.5 3.5-1.9 0-3.5-.5-3.5-1 0-.6.3-.9.8-.9 2 .3 3-.3 4-2.6 1.6-3.4 2.2-3.1 2.2 1zm-147.6 2c-.9 2.1 1.2 2.6 4.2 1 1.6-.8 4.6-1.5 6.6-1.5 4.4 0 7.8 3.6 7.8 8.4 0 5.1-1.3 6.1-7.7 6.1h-5.8l-2.2 4.4c-1.4 2.7-2 5.3-1.7 6.8 1.2 4.6-1.6 2.2-4.6-3.8-1.6-3.4-3.3-6.6-3.8-7.3-.5-.6-1.2-3.2-1.5-5.7-.5-3.8-.3-5 1.3-6.4 1.1-1 2-2.4 2-3.1 0-1.6 3.1-2.3 4.7-1.1.6.4 1 1.4.7 2.2zm47.5 0c3 .6 3.3.9 2.7 3.7-.8 3.9 1.3 17.7 3.1 20.6.8 1.3 1.2 2.6 1 2.9-1 1-11-1.2-11.5-2.6-.3-.9.2-1.1 1.7-.6 1.2.3 2.1.2 2.1-.4 0-.5-.9-1.3-2-1.6-1.1-.3-2-1.5-2-2.5 0-1.7.4-1.8 2.6-1 4.1 1.6 4.1 1.2-.1-2.4-4.5-3.8-4.3-5.6.3-3.2 2.8 1.4 4.2 1.3 4.2-.6 0-.4-.6-.8-1.4-.8-2.2 0-6.6-4-6.6-6.1 0-1.6.3-1.8 1.9-.9 2.5 1.3 4.1 1.3 4.1 0 0-.6-.5-1-1.1-1-1.2 0-4.8-4-4.9-5.4 0-.5.6-.4 1.3.2.6.5 2.7 1.3 4.6 1.7zm171.3 2.7c-1.3 1.3-2.4-.5-1.6-2.7.7-1.6.8-1.6 1.7 0 .6 1.1.6 2-.1 2.7zm-32.7 1.9c1.1 1.7-.1 2.1-1.5.4-.8-.9-.8-1.5-.2-1.5.6 0 1.4.5 1.7 1.1zm-22 2.1c-.4 1.7.5 3.4 3.7 6.8 2.4 2.6 5.4 5.4 6.7 6.3 1.4.9 2.3 1.9 2 2.1-.3.3-6 .8-12.6 1.2l-12.2.7.6-2.3c.4-1.5.1-2.6-1.1-3.2-.9-.5-1.6-1.6-1.6-2.4 0-1.2.7-1.4 2.8-.9 2.4.5 3.3 0 5.8-3.2 1.7-2.1 3.3-4.6 3.7-5.6.9-2.5 2.8-2.1 2.2.5zm57.7-.7c0 .5-.5 1.1-1.1 1.3-.6.2-1.1-.4-1.1-1.3s.5-1.5 1.1-1.3c.6.2 1.1.8 1.1 1.3zm-74.2.3c0 .4-.6 2-1.2 3.5-1.1 2.4-1.7 2.7-4.3 2.2-2-.3-3.8 0-5 1-2.5 1.8-3.5 1.9-3.5.1 0-2.1-1.9-3-3.5-1.6-.8.7-2.1 1-2.9.7-1.7-.7-3.6 1.1-3.6 3.5 0 .9-.7 2.1-1.6 2.6-1.3.7-2.8-.2-6.5-3.7-2.7-2.6-4.9-5.2-4.9-5.9 0-.8 2.1-1.2 6.3-1.3 11.7-.2 22-.8 22.5-1.4.9-.8 8.2-.6 8.2.3zm77.5 1.1c-.4 1.4.7 3.9 3.5 7.9 2.2 3.3 4 6.2 4 6.6 0 .3-1.3.6-3 .6-2.2 0-3-.5-3-1.8 0-1-.7-2.7-1.5-3.8-.8-1-1.5-2.7-1.5-3.6 0-.9-.6-1.8-1.2-2-.9-.3-.8-1.2.5-3.1 2.1-3.2 3.1-3.5 2.2-.8zM209 490.7c0 2.5 9.8 11.3 12.5 11.3 2.1 0 5.3 2.5 4.3 3.5-1.1 1.1-8.3-2-11.6-5-4.8-4.3-9-11.5-6.8-11.5.9 0 1.6.8 1.6 1.7zm-2.8 7.3c2.1 2.8 3.3 5 2.8 5-1.3 0-9-7.7-9-9 0-2.4 2.8-.6 6.2 4zm-9.9-1.1c.9 1.6 3.3 4.3 5.2 6 1.9 1.7 3.5 3.3 3.5 3.6 0 .3-1.5.5-3.4.5-2.8 0-4.2-.8-7.5-4.6-4.2-4.8-5-6.9-2.8-7.7 2.4-1 3.3-.7 5 2.2zm-56 4.5c.4 2.7.6 5 .4 5.3-.2.2-1.6-.1-3.1-.6-2.3-.9-2.6-1.6-2.6-5.6 0-4.2.2-4.6 2.2-4.3 1.8.2 2.4 1.2 3.1 5.2zm152.7-3.9c0 .8-.6 1.5-1.4 1.5-1.7 0-2.8-1.4-1.9-2.4 1.2-1.2 3.3-.6 3.3.9zM114 500c2.2 2.2 2.4 2.9 1.1 4.8-.7 1.2-5.6 4.2-6.7 4.2-.8 0-.4-5.9.6-8.4 1.1-3.1 2.3-3.3 5-.6zm204 2.5c1 1.2 1 1.5-.4 1.5-.9 0-1.6-.7-1.6-1.5s.2-1.5.4-1.5.9.7 1.6 1.5zm-139.9 1.6c1.7 3.3 1 3.9-4.6 3.9-3 0-5.5-.5-5.5-1 0-.6.5-1 1-1 .6 0 1-.9 1-2 0-1.7.6-2 3.6-1.8 2.2.1 3.9.9 4.5 1.9zm147.4-1.1c.3.5.1 1-.4 1-.6 0-1.1-.5-1.1-1 0-.6.2-1 .4-1 .3 0 .8.4 1.1 1zm-88.5 1c0 .5-.5 1-1.1 1-.5 0-.7-.5-.4-1 .3-.6.8-1 1.1-1 .2 0 .4.4.4 1zm91 4.6c0 1-7.7 3.4-11.1 3.4-3.9 0-4.8-.7-2.9-2.6.9-.9 14-1.7 14-.8zm13.4 4.9c1.6 2.5 1.4 4.5-.5 4.5-.5 0-.9-.7-.9-1.5s-.4-1.5-1-1.5c-.5 0-1-.9-1-2 0-2.7 1.4-2.5 3.4.5zm4.6 8.1c0 1.8-1.4 1.8-3-.1-1.6-1.9-.3-4 1.6-2.4.8.6 1.4 1.8 1.4 2.5zm-14.5 3.3c.3.5.1 1.2-.5 1.6-.5.3-1-.1-1-.9 0-1.8.6-2.1 1.5-.7zm-83 2.1c.3.5.1 1-.4 1-.6 0-1.1-.5-1.1-1 0-.6.2-1 .4-1 .3 0 .8.4 1.1 1zm14.3.2c1.9 1.9 1.4 2.8-1.3 2.8-2.8 0-5.8 3.8-6.1 7.9-.7 7.6-5 14-11.7 17.2-2.6 1.3-4.7 2.9-4.7 3.6 0 2.3 2.9 2.6 5.8.8l2.7-1.8-3 3.2c-4.7 5.1-6 5.5-6.1 1.8-.1-2-.9-3.6-2.3-4.5-2.5-1.7-2.7-3.2-.5-3.2 1 0 4.1-1.6 7.1-3.6 6-4 9.5-9.5 9.8-15.9.2-5.2 1.3-7.5 3.9-8.5 3-1.2 5-1.2 6.4.2zm78.2.3c1.1 1.3 1 1.4-.4.9-.9-.3-1.6-1-1.6-1.5 0-1.3.6-1.1 2 .6zm12 2c0 .8-.4 1.5-1 1.5-.5 0-1-.7-1-1.5s-.4-1.5-1-1.5c-.5 0-1-.5-1-1 0-.7.6-.7 2 0 1.1.6 2 1.7 2 2.5zm-157.3-1.2c.1.2-1.4 2.2-3.5 4.5-3.3 3.6-4.5 4.2-7.9 4.2-3.2 0-4.8.7-7.5 3.2-5.3 4.9-11 9.3-12.2 9.3-.6 0-1.2-.9-1.4-2-.2-1.1-1.1-2.8-1.9-3.7-.8-.9-1.3-2.5-1.1-3.5.4-2.3 4.1-2.9 5.8-.8 1.5 1.8 6.6 2 7.6.3.4-.6-.5-2.1-2.1-3.4-2.8-2.2-2.8-2.4-1.1-4.3 2.1-2.3 4.6-1.7 4.6 1 0 2.5 1.8 2.4 4.5-.1 2.1-2 5.5-1.9 5.5.1 0 .5.7.9 1.5.9 2.4 0 2.9-2.9.9-5.1-1.8-2-1.8-2 3-1.5 2.7.3 5.1.7 5.3.9zm34.3-.3c0 1.3-3 1.3-5 0-1.1-.7-.7-1 1.8-1 1.7 0 3.2.4 3.2 1zm12.3 2.2c1.8 2.1 2.4 6.8.8 6.8-.5 0-1.2-1.3-1.6-3-.4-1.6-1.9-3.9-3.3-5.1l-2.7-2.1 2.5.7c1.4.4 3.3 1.6 4.3 2.7zm-95.4.8c.6 0 1.1 1.1 1.1 2.4 0 1.4.5 2.8 1 3.1.6.3.7 1.7.4 3-.5 1.9.5 3.5 5.5 8.5 4.1 4.1 6.1 6.9 6.1 8.6 0 4.3-4 11.1-9.5 16.3-5.5 5.3-8.1 6.2-9.2 3.5-1-2.6 1.5-6.3 6.3-9.4 4.2-2.6 7.4-6.6 7.4-9.2 0-.5-1.4-2.1-3.1-3.5-1.7-1.4-4.4-5-6.1-8-3.5-6.2-4.2-6.8-5.7-4.9-.9 1.1-.7 2.4 1.1 6l2.2 4.6-3.1 3.2c-1.6 1.8-3.3 4.1-3.6 5-1.2 3.5-9.9 7.2-12 5.2-.9-1 1.3-6 3.6-8.1 1.2-1.1 3.4-2.3 5-2.7 1.8-.4 2.7-1.3 2.7-2.6 0-1.1.5-2.9 1.2-4 1.8-2.8.2-3.7-3.1-1.7-1.6.9-3.6 1.7-4.5 1.7-3.1 0-1.6-2 3.4-4.5 5.6-2.8 7.1-6 4.9-10.3-.7-1.5-1.5-3-1.7-3.4-.6-1.3 6.3-1.3 7.4-.1.6.7 1.6 1.3 2.3 1.3zm67.2-.9c-1.3 1.1-2.6 1.7-2.9 1.4-.8-.8 2-3.5 3.7-3.5 1.2.1 1.1.5-.8 2.1zm64 4.8c7.2 2.5 10.4 4.5 9.4 6-1 1.7-2.1 1.3-5.4-1.5-1.7-1.4-3.8-2.3-4.6-2-2.2.8-1.8 2.5.9 3.6 2.6 1 6.6 6 6.6 8.4 0 2.3-2.5 11.5-4.6 16.5l-1.7 4.4-3.8-7.4c-2.1-4.1-3.8-7.7-3.9-8.2 0-.4 1.8.4 4 1.8 2.3 1.4 4.5 2.3 5 2 2-1.2.9-3.6-2.5-5.6-1.9-1.2-3.5-2.5-3.5-2.9 0-1.9 1.8-1.8 4.9.1 3.1 1.8 5.1 1.8 5.1-.1 0-.5-1.8-1.9-4-3.1-3.2-1.8-4.3-3.2-5.1-6.3-.6-2.3-1.3-4.7-1.5-5.4-.2-.6-1.6-1.2-3.2-1.2-3.6 0-4-.5-3.5-3.4l.5-2.3 2.2 2.2c1.2 1.2 5.1 3.2 8.7 4.4zm3.5-4.9c2.6 1.1 4.5 2.3 4.2 2.5-.7.7-9.8-2.8-9.8-3.7 0-1.1.2-1.1 5.6 1.2zm42.2.7c3.7 2.6 3.9 3.1 3.8 7.8l-.1 5-4.1.3c-4.4.3-6.9-1.4-5.8-4.1.5-1.3.9-1.4 2.5-.4 1.5.9 2.2.8 3.5-.5 1.5-1.5 1.5-1.8-.9-4.2-2-2-3.3-2.5-5.2-2-3 .7-3.4-1.2-.7-3.2 2.4-1.8 2.6-1.8 7 1.3zm-192.3-.7c-.3.5-1.6 1-2.8.9-2.1 0-2.1-.1-.2-.9 2.8-1.2 3.7-1.2 3 0zm29.2-.4c-.3.3-1.2.4-1.9.1-.8-.3-.5-.6.6-.6 1.1-.1 1.7.2 1.3.5zm-43.7.9c0 .2-1.1 1.1-2.3 2-2.1 1.3-2.8 1.4-5.8.1l-3.4-1.5 5-.3c2.8-.3 5.3-.5 5.8-.6.4-.1.7 0 .7.3zm106.8 1.7c.6.7 1.2 2.6 1.4 4.2.4 3.5 3.2 5.6 5 3.8.9-.9.9-1.7-.2-3.6-1.1-2.1-1.1-2.8 0-4.1 2.9-3.5 8.6-.2 7.6 4.5-.2 1.5 0 3.2.7 3.9 1.6 1.6 6.2 1.4 7.7-.4 2.3-2.7 2.3-.7.1 2.9-1.2 2-4 4.4-6.5 5.5-5.1 2.5-5.3 2.5-7.3.5-.9-.8-2.2-1.3-3-.9-1.1.4-1.3.1-.9-1.1.9-2.3-2-6.4-4.4-6.4-3 0-9.1-4.1-8.8-5.9.3-1.5 4.2-4.1 6.4-4.1.6 0 1.6.6 2.2 1.2zm119.7 2.4c11.1 4.7 18.1 8.5 24.9 13.8 5.1 3.9 9.2 12.9 9.9 21.6.5 6.3.5 6.4-.9 3.2-1.5-3.5-2.5-3.9-4.3-1.8-.9 1-.9 2-.3 3.3 1.1 1.9 3.1 19.5 2.9 24.8-.2 5 1.4 37.5 1.9 38.8.3 1 1.1 8 2.8 25.8.2 2 .7 5.9 1 8.5.4 2.7.9 6.2 1.1 7.9 1.9 14.6 6.3 27 13 36.5 1.7 2.5 3.4 5.3 3.8 6.2.7 2 3.7 2.5 3.7.6 0-.6-1.7-3.4-3.9-6.2-4.3-5.6-8.2-13.1-10-19.1-.7-2.2-1.6-4.9-2.1-6-1.1-2.5-2.9-19-3.6-32-.3-5.5-.9-13.6-1.4-18-1.8-14.3-2.5-33.5-2-48 .2-4.9 1.2-2.9 3 6 1.3 5.9 4.2 18.7 5.9 25.5.5 1.9 1.5 6.6 2.1 10.5 1.7 9.7 6.8 29.1 9 33.9 1 2.3 2.7 6.8 3.8 10.1 1.2 3.3 3.9 10.9 6.2 17 2.3 6 4.6 12.5 5.2 14.4 2.8 9.7 8.2 18.5 15.8 26 6.5 6.4 7.9 8.3 8.5 11.9.8 4.8-.5 7.2-3.7 7.2-1.7 0-1.9-.5-1.4-3.8.7-4.2-1.1-8.7-3.4-8.7-1.2 0-1.4 1.2-1.2 5.5.3 7.4-1.7 10-8.4 10.7-4.2.4-5.5 1.1-9.3 5.2-2.5 2.5-4.5 5.3-4.5 6.1-.1 1.3-2 1.5-11.6 1.4-12-.2-17-1.3-17-3.9 0-.9-.9-1.5-2.6-1.5-2.1 0-2.5.4-2.2 2.2.2 1.6 1.8 3.1 5.2 4.7l5 2.5-3 .8c-8.9 2.5-26.6-8.3-31-18.9-.8-1.8-2-3.6-2.8-4-.7-.4-2.3-2.8-3.6-5.2-1.8-3.6-2.4-7.2-3.3-21.3-.8-12.8-.8-18.4.1-22.6.8-3.8.8-5.9.1-6.8-.7-.8-.7-2.5-.1-5.1 4.1-16 4.2-47.8.3-69.8-2.8-15.5-6.5-30.1-9.3-36.7-2-4.6-5.1-7.6-15.5-14.6-2.5-1.7-3.3-2.8-2.8-4 .4-.9 1.3-4.6 2.2-8.2 2.7-11.5 2.4-11 8.3-13.1 7.7-2.7 8.5-3.8 8.2-11l-.2-5.9 2.7.6c1.6.3 5.5 1.7 8.8 3zm14.2 0c-1.2 1.2-3.7-.5-3-2.1.5-1.5.7-1.5 2.1-.1.9.9 1.3 1.8.9 2.2zM102 533c-1.9 1.3-3 1.3-3 0 0-.6 1-1 2.3-1 1.8 0 1.9.2.7 1zm57.7.5c.2.6-.6 1.6-1.8 2.3-2.2 1.4-4.9.2-4.9-2.3 0-1.6 6.2-1.5 6.7 0zm4.8-.5c-.3.5-1 1-1.6 1-.5 0-.9-.5-.9-1 0-.6.7-1 1.6-1 .8 0 1.2.4.9 1zm42.3 1c1.3 2.2.8 2.4-5.3 2-3.6-.2-3.9-.5-3.2-2.5.9-2.3 6.9-2 8.5.5zm83.2 1.1c0 .5-.4.9-1 .9-.5 0-1-.7-1-1.6 0-.8.5-1.2 1-.9.6.3 1 1 1 1.6zm-172.5 3.1c-5.5 5.8-7.5 7.3-7.5 5.9 0-1.9 8.9-10.1 11.1-10.1.3 0-1.3 1.9-3.6 4.2zM211 535c0 .5-.5 1-1.1 1-.5 0-.7-.5-.4-1 .3-.6.8-1 1.1-1 .2 0 .4.4.4 1zm151 1.7c0 2-2.4 1.1-2.8-1-.2-1.2.1-1.5 1.2-1.1.9.3 1.6 1.3 1.6 2.1zm-226.6.2c.9 1.4-7.3 5.7-12.1 6.5-2.4.3-4.3.3-4.3-.2 0-1.1 5.1-5.8 7-6.5 2.5-.9 8.8-.8 9.4.2zm127.1.1c.3.5 1.6 1 2.9 1 3.2 0 5.3 2 6 5.7.5 3 .3 3.3-2.1 3.3-3.4 0-6.3-2.6-6.3-5.7 0-1.4-.6-2.3-1.5-2.3-.8 0-1.5-.7-1.5-1.5 0-1.7 1.6-2 2.5-.5zm-158 3.4c-3.9 3.4-6.4 3.4-5.2.1.7-1.7 4.1-3.3 7.2-3.4 1.6-.1 1.2.6-2 3.3zm97.9.1c2 1.5 1.5 2-2.9 2.7-1.1.2-2 1-2 1.8 0 1.1 1.3 1.5 5.5 1.5h5.5l-.2 3.2c-.2 1.7.2 3.5.7 3.8 1.4.9 1.2 2.5-.3 2.5-2.3 0-3.8-2.2-2.6-3.7 2.2-2.6.3-4.2-4.8-4-6.5.3-6.9 2.9-1.4 8.7 3.9 4.1 4.2 4.3 8.8 3.7 3.8-.4 5.3-.1 7.1 1.3 1.6 1.4 3.2 1.7 5.7 1.3 2.7-.4 3.6-.2 4.1 1.1.9 2.4-.2 3.1-2.2 1.5-1.4-1.1-1.8-1.1-3 .6-1.9 2.5-1.8 2.6 1.5 6.4 2.9 3.2 3 3.2 5.5 1.6 3-2 4.6-1.3 4.6 2.1 0 2.8-.6 3-2.7.9-3.5-3.6-7.6 4.8-6.6 13.5.5 4.2.2 5.1-1.9 7.3-1.6 1.6-4.6 2.9-8.1 3.7-3.1.6-5.8 1.8-6.1 2.6-.3.8-1.8 1.9-3.3 2.5-2.4.9-3.7.6-8.8-2-3.3-1.6-7.3-3.3-8.8-3.6-1.6-.3-4.7-2.3-6.9-4.4-3.9-3.6-4.1-3.9-3.9-9.9.1-6.4-1.3-8.8-3.4-5.8-1 1.3-1.8 1.4-3.9.6-3.1-1.1-2.7-3.1.4-2.3 3.8 1 8.1-5.3 5-7.2-.5-.3-1-1.5-1-2.6 0-1.7.3-1.8 2.1-.8 3.2 1.7 5.4-.9 4.5-5.5-.8-4.4-2.2-5.3-4.7-3-2 1.8-2.3 1.6-1.3-1 .8-2.1 6.2-2.1 8.4-.1 1 .9 3.4 1.8 5.3 2.2 3.1.5 4 .1 6.7-2.6 2.4-2.4 3-3.6 2.4-5.3-1.2-4-2.4-4.9-6.1-4.2-2.7.5-3.2.3-2.7-.9.3-.8 2-1.8 3.9-2.1 2.2-.4 4.2-1.8 6-4.1 2.9-3.9 3.2-4 5.9-2zm103 6.6c-.3 5.6-2.2 16.4-4.3 25-1 4.4-6.4 14.7-10.9 21.1-3.3 4.7-9.9 9.9-14.1 11.3-3 .9-2.6-.1 2.2-5.1 5.5-5.9 13.4-17.6 16.3-23.9 1.2-2.8 3.2-8.9 4.4-13.5 2.1-8.2 6.1-21 6.6-21 .1 0 0 2.7-.2 6.1zm-90.1-1.9c1.4.7 3.2 2.4 3.9 3.7 1.5 2.7 4.7 4.2 7.6 3.4 1.4-.3 2.2.1 2.7 1.6.9 3-.1 4.1-3.8 4.1-2.7 0-3.5-.5-4.4-3.1-1.2-3-1.5-3.1-5.2-2.6-4 .5-4 .5-3.4-2.4.3-1.7 0-3.5-.7-4.4-1.5-1.8-.3-1.9 3.3-.3zm-108.5 1.7c.3.8-.1 1.2-.9.9-.7-.2-1.5-1-1.7-1.7-.3-.8.1-1.2.9-.9.7.2 1.5 1 1.7 1.7zm75.7.9c-.3.8-.5 2.5-.5 3.8 0 2.2-.3 2.3-2 1.4-2.2-1.2-6.5.5-8.9 3.4-1.9 2.3-3.1 2-3.1-.9 0-1.7.9-2.9 2.8-3.9 1.5-.8 3.5-2.3 4.5-3.4 2-2.2 8-2.6 7.2-.4zm-67.2-.1c.7.6-6.1 7.2-7.5 7.3-1.7.1-.6-2.4 2.3-5.1 3.2-3 4.1-3.4 5.2-2.2zm144.5 3.6c.2 1.1-.3 1.7-1.6 1.7-1.6 0-5.2 4.5-4.1 5.3 8.2 5.7 9.3 7.7 4.3 7.7-3.4 0-9.6-3.3-7.1-3.8 1.9-.4 2.2-2.3.6-3.9-.8-.8-.4-2.2 1.7-5.2 3-4.2 5.6-5 6.2-1.8zm-139.3 5c-3.3 3.2-4.9 6-6.8 11.5-2.6 7.8-4.2 8.6-2.6 1.3 2-9.2 9.7-20.3 12.4-18.1 1 .8.3 2.1-3 5.3zm70-1.4c.3.6-.3 1.5-1.4 2.1-2.4 1.2-4.2-.7-2-2.1 1.8-1.1 2.6-1.1 3.4 0zm76.3 2.8c2.6 4 5.8 10.3 6.6 13.5.3 1.6 1.1 2.8 1.6 2.8 1.6 0 1.2 1.6-1.7 5.9-3.2 4.9-5.3 5.3-5.3 1.1 0-2.2-1-4.1-3.5-6.6-3.9-3.9-4.3-5.2-1.9-6.1 2.1-.8 5.1 3.1 6 7.7.4 1.9.9 3.9 1.1 4.3 1 1.7 3.3-1.7 3.3-4.7 0-3.2-4.9-13.6-8.1-17.2-2.1-2.2-2.4-3.4-1-3.4.5 0 1.8 1.2 2.9 2.7zm-116.9.7c.8 1 .8 1.6-.3 2.5-1.9 1.6-7.1-1-5.4-2.7 1.6-1.6 4.3-1.5 5.7.2zm-40.3 1.8c-.2.7-1 3-1.7 5-1.6 5.1-2.9 4.8-2.9-.6 0-3.4.4-4.6 1.8-4.9 3-.8 3.4-.7 2.8.5zm12.4.9c-.6 1.1-1 3.3-.8 4.9.1 1.5-.3 3.8-1 5.1-.7 1.3-2.1 4.9-3.2 7.9l-2 5.5.5-6.7c.5-6.6 2.1-12 5.1-16.6 1.8-2.8 2.8-2.9 1.4-.1zm45 .9c0 .5-.2 1-.4 1-.3 0-.8-.5-1.1-1-.3-.6-.1-1 .4-1 .6 0 1.1.4 1.1 1zm-24 3.6c0 .4-1.4 2.2-3.1 4.2-2.4 2.7-2.9 4.1-2.5 6.1 1.2 5 1.1 5.6-1.1 5.9-2.1.3-2.2 0-1.7-3 .6-3.1 1.9-6.2 4.7-11.6 1.1-2 3.7-3.1 3.7-1.6zm89 2.4c0 .5-.2 1-.4 1-.3 0-.8-.5-1.1-1-.3-.6-.1-1 .4-1 .6 0 1.1.4 1.1 1zm15.5 3.2c4.5 5.4 4.6 9.1 0 9.6-2.4.2-3.4-.3-4.8-2.7-1.7-3-2.2-6.7-1.1-9.5.9-2.4 1.9-2 5.9 2.6zm-116 1.4c-.8 1.6-1.5 4.3-1.5 6 0 2.3-.7 3.6-2.4 4.8-5.3 3.4-4.5-5.3 1-11 3.9-4.2 5.2-4.1 2.9.2zm36.8-1.1c-2.2 2.9-3.3 3.2-3.3.7 0-2.4.8-3.2 3.2-3.2 1.8 0 1.8.1.1 2.5zm-7.3.5c0 .5-.5 1-1.1 1-.5 0-.7-.5-.4-1 .3-.6.8-1 1.1-1 .2 0 .4.4.4 1zm98 2c0 1 .7 2 1.5 2.4 2.4.9 1.7 2.6-1 2.6-1.9 0-2.5-.5-2.5-2.1 0-1.1-.4-2.9-1-3.9-.8-1.5-.6-1.7 1-1.3 1.1.3 2 1.3 2 2.3zm55.8 3c2.9 1.8 3.3 2.5 2.7 4.7-.5 2.3-.4 2.5.9 1.4 2.8-2.4 10.6 3.6 9.3 7.2-.2.7.1 2.1.7 3.2 3.5 6.5 6.8 20.2 6.2 25.7-.2 2.3-.5 4.7-.5 5.1-.1.5-.6.5-1.2.2-.6-.4-.8-1.3-.5-2.1.3-.8-.1-1.4-.9-1.4-1.8 0-1.9-1.1-.2-3 .6-.8.3-.7-.9.3-2.9 2.4-3.4 2.2-3-1.8.1-1.9-.2-3.5-.8-3.5-.5 0 .2-1.3 1.7-2.8 3.4-3.5 3.5-4.9.2-2.8-2.2 1.4-2.5 1.5-2.5.1 0-.8.9-2.4 2.1-3.6 2.5-2.5 1.9-3.5-1-1.9-2.4 1.2-2.8-.1-.6-2 .8-.7 1.5-1.7 1.5-2.3 0-.5-1-.2-2.2.9-2.1 1.9-2.1 1.9-1.6-.4.4-1.2.2-2.2-.4-2.2-.6 0-.8-1.2-.5-3 .5-2.3.3-2.8-.8-2.3-1.7.6-1.9-1-.5-3.8 1.1-2-.3-2.8-1.5-.9-1.1 1.8-3.2 1.1-4.4-1.6-.6-1.4-.9-2.9-.6-3.3.2-.5-1.1-1.6-3-2.7-1.8-1-3.2-2.2-2.9-2.6.8-1.2 1.6-1 5.2 1.2zm-154 2.6c.2.1-.6 1.6-1.8 3.2-2 2.7-2.5 2.9-4.9 1.9-1.4-.6-2.8-1.2-3-1.4-.2-.1.7-1.8 2-3.7 2.4-3.6 2.3-3.6 7.7 0zm-49.8 0c0 .8-.5 1.2-1 .9-.6-.4-.8-1.1-.5-1.6.9-1.4 1.5-1.1 1.5.7zm199 5.6c0 .5-.8.8-1.8.8s-2.9 1.1-4.2 2.5c-3.6 3.8-3.5 2.3.1-2.9 2.9-4.1 3.4-4.4 4.5-2.8.8.9 1.4 2 1.4 2.4zm-69.1 0c.6 1.7.9 3.4.6 3.7-.8.7-5.4-5.2-4.8-6.1 1-1.8 3.2-.6 4.2 2.4zm22.6.1c.6 1.8.8 4.4.5 5.7-.5 2.2-1.2 2.5-5 2.5-4.1 0-6.3 1.6-4.1 3 1.8 1.1 1.2 2.5-1.5 3.5-2.7 1.1-2.8 3.7 0 3.2 2.4-.4 2 1.1-1.3 4.2-2.6 2.5-4.2 3-10.3 3.5-.5.1-.8 1.7-.8 3.6 0 4.1-2.8 6.4-8.9 7.2-4.6.6-10.1-1.2-10.1-3.3 0-.8-.6-2.3-1.2-3.4-1-1.6-1-2.5.4-4.7 1.5-2.5 2.2-2.8 7.4-2.8 5.4 0 5.9.2 6.4 2.5.7 3.1 3.6 3.8 4.5 1.1.8-2.6-2-7.6-5.2-9-1.2-.6-2.3-1.5-2.3-2.1 0-1.8 1.5-1.1 4.5 2 3.8 4 8.5 4.1 11.4.4 1.2-1.5 2.1-3.1 2.1-3.6 0-1.7-3.1-2-4.9-.4-2.2 2-3.5 2-5.4.2-.8-.8-3-2.1-5.1-3-4.1-1.7-4.5-3-1.4-4.7 1.7-.9 2.4-.9 3.2.3.6.8 2.2 2 3.4 2.7 2.1 1.1 2.7 1 4.8-1 1.8-1.7 2.3-3 1.9-4.7-.4-1.7-.2-2.3.7-2 1.8.6 2.2 4.6.7 6.4-.8 1-.9 1.8-.2 2.5 1.7 1.7 5.3-.7 5.3-3.5 0-2.9 1-3.9 2.6-2.5 1.7 1.4 3.4.3 3.4-2.1 0-5.5 3-6.7 4.5-1.7zM287 583c0 .5-.4 1-1 1-.5 0-1-.5-1-1 0-.6.5-1 1-1 .6 0 1 .4 1 1zm-143.2 1.6c4.4 2.1 4.6 2.8 1.7 6.2-1.4 1.6-2.5 3.6-2.5 4.3-.1.8-1.3 2.8-2.8 4.5-2.2 2.6-3.1 3-4.9 2.3-2.4-.9-2.8-1.9-1.4-3.5.4-.5 1.1-2.2 1.5-3.8.7-2.6.5-2.8-1.6-2.1-4.8 1.4-6.3 1.1-6.6-1.5-.2-1.9.5-3 2.9-4.4 3.1-1.9 3.2-1.9 4.6 0 1.4 1.8 1.6 1.8 3.6-.9 1.1-1.5 2.2-2.7 2.2-2.7.1 0 1.6.7 3.3 1.6zm23.7 1.4l2 .9h-2c-1.1 0-2.7-.4-3.5-.9-1.3-.9-1.3-1 0-.9.8 0 2.4.4 3.5.9zm62.5 1c-2 1.3-3.3 1.3-2.5 0 .3-.6 1.4-1 2.3-1 1.5 0 1.5.2.2 1zm-108 1c0 .5-.4 1-1 1-.5 0-1-.5-1-1 0-.6.5-1 1-1 .6 0 1 .4 1 1zm37.6 2c.8 0 1.4.4 1.4 1 0 .5-.7 1-1.6 1-.8 0-2.9 1.4-4.6 3-1.7 1.7-3.1 3-3.2 2.8-.1-.2-1-1.3-2.1-2.6l-1.9-2.4 2.4-1.9c1.7-1.3 3.4-1.8 5.4-1.4 1.6.3 3.5.5 4.2.5zm10.8 1.5c-.4 1-1.5 1.2-3.7.8-4.1-.8-4.7-1.3-1.4-1.3 1.4 0 2.9-.5 3.2-1 .9-1.5 2.5-.2 1.9 1.5zm146.7 3.2c1.1 2.7 2.3 7.2 2.6 10 .5 4.6.3 5.3-1.3 5.9-1.1.3-3.4 1.2-5.3 2-3 1.3-3.6 1.3-6.4-.4-4.2-2.4-5.7-5.5-5.7-11.8 0-5.7 1.4-7.7 5.6-7.7 1.4 0 2.8-.6 3.1-1.3.3-.8 1.6-1.4 2.9-1.4 2 0 2.9 1 4.5 4.7zm-147.3 3.9c1.8 2 2.2 3.5 1.8 5.6-.3 1.6.1 4.7.8 6.9 1.4 3.9 1.3 4-1.5 6.1-1.6 1.2-2.9 3-2.9 3.9 0 1.3-1.1 2-3.5 2.5-5.7 1-8.3-.1-9.1-4.1-.8-4.2-1.7-5-4.2-3.4-6.4 4-11.9-6.1-7.7-14.1 1.7-3.2 1.8-3.3 5.3-2.4 2.6.7 2.9 4.1.7 8.3-1.3 2.6-1.3 3 0 4.1 1.9 1.6 4.5-.3 4.5-3.1 0-1.4.7-1.9 2.5-1.9 3 0 3.4-2.6.5-3.5-2.9-.9-2.5-3.9 1-6.8 2.6-2.2 3.5-2.4 6.2-1.6 1.8.5 4.4 2.1 5.6 3.5zm124.4 3.9c.6 2.9-.2 3.8-2.1 2.6-1-.7-1-1.3-.2-3 1.5-2.7 1.8-2.6 2.3.4zm-116.7.5c.3.5.1 1-.4 1-.6 0-1.1-.5-1.1-1 0-.6.2-1 .4-1 .3 0 .8.4 1.1 1zm40.7 3.3c-1.2 1.3-2.2 2.9-2.2 3.6 0 .8-1 1-3.2.6-2.3-.4-4.5 0-7.2 1.4-2.2 1.2-4.2 1.9-4.4 1.7-.9-.9.9-2.4 3.5-3.1 1.6-.3 3.5-1.3 4.3-2 1.4-1.3 8.1-4.1 10.4-4.4.5 0 0 .9-1.2 2.2zm-29.7.7c.3.5-.1 1-.9 1-.9 0-1.6-.5-1.6-1 0-.6.4-1 .9-1 .6 0 1.3.4 1.6 1zm100.3 2.9c.4 2.7-1.2 2.1-2.9-1-.9-1.8-.8-2 .8-1.7 1 .2 1.9 1.4 2.1 2.7zm-107.8-.4c.6.8 1.4 3.2 1.7 5.5.5 3.8.4 4-2 4-1.4 0-2.9-.5-3.2-1-.3-.6.1-1 .9-1 2.6 0 2.9-2.1.7-4.4-1.2-1.2-2.1-2.8-2.1-3.4 0-1.7 2.5-1.5 4 .3zm100.9 2.1c4.2 5.3 1.2 13.4-4.3 12-3.2-.8-5.6-5-3.8-6.8.9-.9 1.6-.7 3 .5 2 1.9 4.2.7 4.2-2.3 0-4.4-5.8-5.3-9.5-1.5-3 3-3.2 6.8-.4 10.3 1.3 1.7 1.8 3.4 1.4 5-.4 1.8.4 3.7 3.4 7.6 4.1 5.3 9.5 18.2 11.3 27.1 3.1 14.9 0 29.4-9.1 42.8-5 7.2-7.4 9.9-14.4 16.2-2.1 1.8-4 4.3-4.2 5.5-.2 1.3-.7 2.5-1 2.8-.3.3.2 1.3 1.1 2.3.9 1 1.4 2.4 1.1 3.2-1.5 4 18.3 29 29.7 37.5 2.3 1.7 4.3 2.2 9.5 2.2 8.3 0 11.1.8 11.1 3 0 .9.9 2.5 2 3.5s1.8 2.1 1.5 2.3c-.3.3-1.8-.7-3.4-2.2-2.4-2.3-4.2-3-9.3-3.5-8.6-.8-15.3 0-15.3 1.9 0 1.1 1.4 1.6 5.5 1.7 7.8.4 14 1.3 14 2.1 0 .9-10.5.8-20-.2-6.3-.7-7.8-.6-8.8.7-1.6 1.9-.1 3 4.3 3.2 1.6.1 4.7.3 6.8.3 2 .1 3.7.6 3.7 1.1 0 .4-15.6.8-34.7.9-19.2 0-33.9-.2-32.8-.5 1.1-.3 2.9-1.5 4.1-2.7 2.5-2.6 9.3-2.8 14.2-.2 3.4 1.7 10.7 2.2 11.7.7.3-.6-1.1-1.3-3.2-1.6-6-1-8-2.4-9.4-6.7-1.1-3.6-1.1-4.4.4-7.1 1.4-2.3 1.5-3.2.5-3.8-.6-.4-1.6-.5-2-.3-.4.3-.8-.2-.8-1 0-1 .9-1.6 2.5-1.6 2.7 0 2.7 0 2.9 4.4.1 2.5.7 3.1 3.3 3.8 2.9.7 7.3 4.9 7.3 6.8 0 .4-.8.7-1.7.6-1 0-1.9.6-2 1.4-.5 2.3 5.5 5 11.2 5 2.8.1 6.3.2 7.9.3 3.4.2 4.7-1.8 1.7-2.8-1.1-.3-2.3-1.6-2.7-2.8-.5-1.7.1-2.8 3.2-5.3 3.2-2.8 3.6-3.4 2.1-4-.9-.3-2.8-.3-4.1 0-1.8.4-2.6.1-3-1.2-.9-2.7-10.7-12.2-14.8-14.3-5.6-2.8-8-5.9-7.4-9.1.6-3.2-1.2-5.4-6.1-7.4-1.8-.8-3.7-2.3-4.3-3.4-.6-1.1-2.3-2.6-3.8-3.4-6.2-3.3-10.4-9.7-5.4-8.2 2.4.8 4.5-.8 4-3-.4-2-1.3-2.1-11.2-.8-4.5.6-5 .4-7.2-2.2-3-3.8-3-5.2.3-8 3.4-2.9 2-4.9-4.1-5.8-2.4-.4-6.5-2.1-9-3.7-3.9-2.6-4.6-3.6-4.6-6.3 0-3.6-2.8-7-5.1-6.1-.8.3-2.2 2.5-3.2 5-2.6 6.3-7.3 10.1-13.5 10.9-5 .6-7.9 2.6-6.7 4.6.3.5 1.3 1 2.1 1 1.5 0 1.9 4.5.8 8.6-.5 1.9-1.3 2.2-6.9 2.2-6.3 0-10.5 1.4-10.5 3.2 0 .6 1.4 1 3 1 2 0 3 .5 3 1.5 0 1.5-1.5 2.3-7.5 4.2-1.9.6-2.9 1.5-2.7 2.5.2 1.1-1.7 2.7-5.8 4.9-8.5 4.5-11.9 9-11.8 15.8 0 5.1-.2 5.4-6 11.2-3.3 3.2-6.6 7.2-7.3 8.8-1 2.3-1.9 2.8-4.3 2.7-2.1-.1-3.1.4-3.1 1.4 0 1.3 1.8 2.2 7.3 3.6.6.2 1.2 1.9 1.2 3.8s.4 3.8 1 4.1c2 1.3 1 3.5-1.6 3.5-2.3 0-2.5-.2-1.4-1.5.7-.9 1-1.9.6-2.3-.7-.6-12.6-1.2-25-1.2-2.8 0-5.3-.5-5.7-1.1-.9-1.6-3.2 0-2.5 1.7.3.8-.1 1.4-1 1.4-1 0-1.3-.7-.8-2.5.8-3.2-1.7-3.4-4.7-.4-1.4 1.4-2.4 1.8-3.1 1.1-.7-.7-.3-1.2 1.1-1.7 2.3-.7 2.7-2.5 1-4.2-1.4-1.4.2-1.9 12.1-3.3 8.5-.9 8.5-1 12.8-5.7 2.3-2.6 5.4-7 6.8-9.7 3.5-6.6 8.4-19.6 8.4-22.1 0-1.1.9-3.8 2.1-6l2.1-3.9-2.3-1.9c-1.7-1.4-2-2-1-2.6 2.3-1.5.7-4.4-4.9-8.9-8.1-6.5-11.1-13.2-11.7-26.5-.6-10.8.9-21.1 3.1-22.4.7-.5 1.8-2.4 2.5-4.3.6-2 5.3-8 10.9-14.2 9.3-10.1 14.2-17.5 14.2-21.2 0-1 .5-1.4 1-1.1 1.5.9 1.2 6.6-.5 11.5-1.9 5.3-1.9 6 0 6 .8 0 2.4-1.5 3.5-3.3l2-3.2v2.7c0 3.4 2.3 3.7 3.8.5 2-4.1 1.2.6-.8 5.2-1.1 2.4-2 4.9-2 5.6 0 .7-.7 1.8-1.5 2.5s-1.7 2.8-2.1 4.9c-.3 2-1.7 6.8-3 10.8-1.3 3.9-2.4 9-2.4 11.2 0 5.3 3 13 7 18.1 3.7 4.7 6.4 6.3 10.2 6.2 2.4-.1 2.8.3 2.8 2.7 0 3 2.9 6.4 4.5 5.3.6-.4 1.1-3.3 1.1-6.5.1-3.2.3-6 .5-6.2.3-.2 3.6-.6 7.4-.9 6.2-.5 7.3-1 9.9-3.8 2.7-3 2.8-3.5 2.3-9.6-.7-7.5-1.6-8.8-7.6-11.5-3.3-1.4-5.4-1.7-8.9-1.2-4.1.6-4.5.5-3.3-.9 3.3-3.9 18.4-5.8 24-2.9 4.6 2.3 8.1 5.3 8.1 6.9 0 1.8 2.8 3.2 5.5 2.6 1.3-.2 4.1-2.1 6.3-4.2 4.5-4.4 11.8-7 19.3-7 6.1 0 6.8 1.2 2.1 3.3-9.4 4.1-12.5 12.1-7.8 20.1 3 5.2 5.4 6.7 11.1 7.5l4 .6.3 6.5c.5 10.3 4.2 12 4.9 2.3.5-6.9.6-6.9 7.5-9.4 4.1-1.6 7.7-3.8 10.4-6.5 6.2-6.1 10.8-19.7 9.7-28.8-.4-3.4-.2-3.9.9-2.8.9.9 1.3 4.5 1.3 12 0 10-.2 11-2.8 14.9-1.5 2.4-2.7 4.7-2.7 5.2 0 2.2-7 6.8-12.3 8.1-3.1.7-5.7 1.7-5.7 2.2 0 .4-.1 1.1-.2 1.5-.4 1.1 6.2.4 10.5-1.1 2-.6 5.8-3.2 8.5-5.7 6.6-6.1 9.7-14.7 9.7-26.9-.1-8.2-.2-8.8-4.6-17-2.6-4.7-5-9.6-5.4-11-.4-1.3-2.1-3.7-3.6-5.1-3.2-3-3.6-5.4-1.5-10.4 1-2.2 2.2-3.4 3.8-3.7 1.7-.2 2.4-1 2.6-3.1.2-1.5.9-2.7 1.5-2.6 2.9.3 3.7-.3 3.7-2.9 0-5.4 5.6-9.9 12.7-10.1 2.3-.1 3.7.6 5.2 2.5zm-90.5 2c.4 1.2 1.3 1.4 3.2 1 2.4-.6 2.5-.5 2.2 3.1-.3 3.5-.6 3.8-3.7 4.1-4.5.5-5.5-.8-4.6-5.7.7-4.3 1.8-5.2 2.9-2.5zm109.1-.6c1 1.7 7.5 4 11.2 4 1.8 0 4.5-.7 5.9-1.6 1.3-.9 2.7-1.4 3-1.2 1 1 2 14.7 1.2 16.7-1.6 4.5-5.3 1.9-6-4.2-.4-3.3-.1-4 1.9-4.8 2.6-1 2.9-2.1.9-3.8-3.2-2.7-10 4.5-9.4 10 .4 3.9 4.6 7.3 9.1 7.4 3 0 3.2.3 3.5 3.8.3 3.4.1 3.8-1.6 3.3-1.2-.4-2.8.2-4.6 1.9-1.5 1.4-3.3 2.5-4 2.5-2.4 0-3.3 2.2-3 6.8.2 2.6.1 4-.2 3.2-.4-.8-1.5-3.3-2.5-5.4-2-4.2-1.9-4.8 2.7-9.3 2.8-2.8 2.2-5.4-1.9-8.9-2.1-1.8-3.7-2.4-5.4-1.9-2.2.5-2.3.4-2.3-6.4 0-3.7-.3-8.3-.6-10-.6-3 .7-4.3 2.1-2.1zm-6 3.2c.3 1.8.7 6.8.9 11l.3 7.7-2.8-3c-3.1-3.3-7.6-3.8-12.1-1.5-2.4 1.3-2.8 1.3-2.8.1 0-.8 1.5-2.1 3.3-2.9 3.6-1.4 7.7-5.9 7.7-8.3 0-1.7 2.9-6.3 4.1-6.3.4 0 1.1 1.5 1.4 3.2zm-82.7 1.5c-.4 3.6-3.1 4.1-4.6.9-1.3-2.8-.7-3.6 2.5-3.6 2.1 0 2.4.4 2.1 2.7zm123.5 13.5c.4 2.9.9 6.3 1.2 7.4.5 1.6.1 2.3-1.6 2.7-2.8.7-3.7.1-2.1-1.5 2-2 1.5-4.1-.9-3.5-1.9.5-1.9.4-.6-1.1 2.6-3.1 2.8-4 .7-3.5-1.1.3-2 .2-2-.1 0-1 3.4-5.5 4.1-5.6.3 0 .9 2.4 1.2 5.2zm-6.3-2.8c0 .8-.4 1.8-1 2.1-.5.3-1-.3-1-1.4 0-1.2.5-2.1 1-2.1.6 0 1 .6 1 1.4zm-263 1c0 .3-.4.8-1 1.1-.5.3-1 .1-1-.4 0-.6.5-1.1 1-1.1.6 0 1 .2 1 .4zm51.1 3.6c-2.4 2.1-5.1 2.6-5.1 1.1 0-.4 1.5-1.3 3.3-1.9 4.5-1.4 4.5-1.4 1.8.8zm171.5 1.7c1.8 2.4 1.7 5.3-.3 7.5-2.3 2.5-2.8 2.3-5.2-2.2-3-5.8-3-5.9 3.3-6.9.5 0 1.5.7 2.2 1.6zm14.4 2.2c.5 1.1 1 2.7 1 3.6 0 2-3.6 6.9-4.3 5.8-.6-1.1-.7-9.5-.1-10.5.9-1.4 2.3-.9 3.4 1.1zm-95.7 1.2c1.2.7 3.9 2.7 6 4.5 2 1.9 4.2 3.4 4.9 3.4.6 0 .4.7-.5 1.8-1 1-1.7 2.5-1.7 3.3 0 2.3-6.2 4.2-9.6 2.9-3.9-1.5-6.4-3.9-6.4-6.2 0-2.3 3.5-2.4 4.4-.2.6 1.5 1 1.4 3.1-.6 3.1-2.9 3.1-3.6.1-5.5-1.8-1.2-3-1.3-5-.6-2 .8-2.6.8-2.6-.4 0-1.3 2.6-3.4 4.3-3.5.5 0 1.8.5 3 1.1zm-50.1 1.6c.7.9 3 3.3 5.1 5.5 2.7 2.7 3.6 4.4 3.2 5.7-1 3.1-3.9 5.1-8.6 5.7-3.9.5-4.9.3-7.1-1.7-1.4-1.3-2.9-3.6-3.2-5.1-.6-2.6-.4-2.8 4.4-3.4 7.3-1 6.6-5.2-.8-4.5-4.2.3-3.5-1.5 1.1-2.8 4.5-1.3 4.5-1.3 5.9.6zm171.5.5c-.3.8-.6.5-.6-.6-.1-1.1.2-1.7.5-1.3.3.3.4 1.2.1 1.9zm-137.8 1.9c1.6 4.5 1.4 9.1-.5 11.8-1.4 2-2.2 2.2-5.8 1.7-2.8-.5-4.8-.2-6.1.8-1.8 1.3-1.7 1.5 1.8 4.8 3.7 3.6 4.4 5.2 2.9 7.6-.7 1-1.9 1-6.1-.1-4.5-1.2-5-1.5-3.7-2.6 2-1.7 2.1-10.1.1-15.6-.8-2.2-1.5-4.1-1.5-4.3 0-.1 1-.2 2.3-.2 1.3 0 3.8-1.5 5.7-3.5 4.6-4.8 9.3-4.9 10.9-.4zm46.5-2.2c.3.5-.5 1.2-1.8 1.5-3.7.9-5.9 3.5-4.5 5.2 1.7 2.1 3.9 1.7 4.8-.8.5-1.3 1-1.7 1.5-1 1 1.6 3.6.3 3.6-1.8 0-1-.6-2.1-1.2-2.3-.8-.3-.6-.6.4-.6 3.5-.2 3.6 7.5.1 11.8-3.2 3.9-13.4 4.9-14.7 1.5-.4-1.1-1-1.2-2.5-.4-2.5 1.3-3.1 1.3-3.1 0 0-.6.6-1 1.4-1 .7 0 1.9-.7 2.6-1.5 1-1.2.9-1.6-.4-2.1s-.7-1.3 2.5-3.8c7.3-5.5 10.1-6.7 11.3-4.7zm59.1.9c0 1.8-2 1.5-2.3-.4-.3-1 .1-1.5 1-1.2.7.3 1.3 1 1.3 1.6zm41.1 4.9c.6 3.1.9 28.3.5 40.8l-.1 4-3.1-3.8c-2.3-2.8-3.8-3.7-6-3.7-1.7 0-3.9-.5-5-1-2.4-1.3-2.5-4.5-.1-4.6.9-.1 2.5-.5 3.6-.9 1.5-.7 1.7-.5 1.1 1.3-.9 2.9.6 2.8 3.4-.2 1.7-1.8 1.9-2.5.9-2.9-1-.3-.7-1.1 1-2.9 2.7-3 2.8-3.8.3-3.1-1.6.4-1.8-.1-1.8-5.1 0-3.1.4-5.9.9-6.2.6-.4.5-1-.3-1.5-1.1-.7-.9-1.3 1.1-3 2.4-2 2.4-2 .3-1.4-2.7.7-3.2-1.5-.8-3.5 1-.9 1.2-1.6.5-2.5-.6-.8-.6-1.5.2-2.3 1.9-1.9 2.7-1.4 3.4 2.5zm-9.5.6c-.8.8-1.1.7-1.1-.4 0-2 1.3-3.4 1.8-1.9.3.7-.1 1.7-.7 2.3zm-33.3.6c1.9 1.7 2.2 2.9 2.2 9.1 0 7-.1 7.2-2.2 6.6-1.3-.3-2.8-.6-3.4-.6-.7 0-1.4-1.2-1.7-2.8-.2-1.5-1.2-4.9-2-7.5-1.5-4.7-1.5-4.8.6-5.7 3.2-1.3 3.9-1.1 6.5.9zm27.7 2c.3.5.1 1.2-.5 1.6-.5.3-1 1.5-1 2.6 0 1-.4 1.9-.9 1.9-1.7 0-3.3-2.9-2.6-5 .6-2 3.9-2.8 5-1.1zM50 652.8c0 1.5-.2 1.5-1 .2-1.3-2-1.3-3.3 0-2.5.6.3 1 1.4 1 2.3zm203.2 2.7c2.5 6.9 2.3 7.9-1.5 9.3-4.5 1.6-7.9 1.5-10.3-.3-1.7-1.3-1.4-1.4 4.2-1.5 4 0 6.6-.5 7.3-1.4 1.6-1.9.7-2.3-7.7-3.1-4.6-.5-7.1-1.2-6.9-1.9.5-1.4 5.7-2.1 5.7-.7 0 .6 1.1 1.1 2.5 1.1 2.8 0 4.4-2.5 2.6-4.3-1.6-1.6-1.3-2.9.6-2.5 1 .2 2.4 2.4 3.5 5.3zm-36.4 4.6c.2 2.4 1.1 5.2 1.9 6.1 1.5 1.7 1.4 1.8-.5 1.8-1.1 0-2.4-.5-2.8-1.1-.3-.6-1.7-.8-2.9-.5-2.7.7-4.5-1.1-2.1-2 2.6-1 1.9-3.4-.9-3.4-1.4 0-2.5-.4-2.5-1 0-1.2 7.1-5 8.5-4.6.6.1 1.1 2.2 1.3 4.7zm-13.3-3.2c1 1.8-2.9 2.9-7.5 2.1-4.3-.7-4.4-.8-1-.9 1.9-.2 4.4-.6 5.5-1.1 1.1-.5 2.1-.9 2.2-.9.1-.1.4.3.8.8zm98.5 1c0 1.1-.4 2.3-1 2.6-.6.4-1-.5-1-1.9s.5-2.6 1-2.6c.6 0 1 .9 1 1.9zm27.4 1.2c-.9 1-2.1 1.6-2.6 1.3-.5-.3-.2-1.4.8-2.5.9-1 2.1-1.6 2.6-1.3.5.3.2 1.4-.8 2.5zm-163.3.6c.1 1.6.2 3.6.3 4.6.1 1 .8 2.2 1.6 2.7 1.2.8.9 1-1.3 1-1.5 0-4.4.7-6.4 1.5-5.3 2.2-9.2.3-4.1-2 3.5-1.6 3.3-3.3-.4-3.7l-3.3-.3 6-3.2c3.3-1.7 6.3-3.2 6.8-3.2.4-.1.8 1.1.8 2.6zm153 1.4c-.3.8-.4 3.2-.2 5.3.1 2.2-.4 6.4-1.1 9.4l-1.2 5.5 3.4 2.8 3.3 2.8-3.2 3.1c-1.8 1.6-3.5 3-3.7 3-.2 0-.4-1.7-.4-3.8 0-2-.7-8.7-1.5-14.7-.8-6.1-1.5-12.5-1.5-14.3V657l3.3 1.4c1.9.8 3 1.9 2.8 2.7zm-84-.9c1.5 2.3 1 5.7-1.1 7.8-2.2 2.2-5.5 2.5-9.7.9-2.4-.9-2.6-1.2-1.2-2.2.9-.7 1.9-2.9 2.3-5.1.7-3.8.7-3.8 4.8-3.3 2.3.3 4.5 1.1 4.9 1.9zm75.5 15.5c-.2.2-1.5-.1-3-.7-3.2-1.2-10.1 1.2-11.6 4.1-1.4 2.5-1.3 10.9.1 10.9.8 0 .7.5-.1 1.5-1.1 1.3-1 2.1.7 4.3 1.1 1.5 2.3 3.8 2.7 5 .5 1.3 2.2 3.2 3.9 4.2 2.8 1.7 2.9 2 1.1 2.6-1 .4-2.7 1.4-3.6 2.2-1.6 1.4-1.8 1.3-1.8-.6 0-4.8-2.9-7-4.8-3.6-.7 1.2-1.7 1.5-4.2.9-3.2-.7-3.2-.7-2.5-5.4.4-2.5 1.5-7.3 2.6-10.5 1-3.3 1.9-7.1 1.9-8.5 0-5.7 1-7 5.4-7.3 4.4-.3 4.5-.7 3.1-6.8-.4-2.1.2-3 3.7-5.7l4.3-3.2 1.3 8.1c.7 4.5 1.1 8.3.8 8.5zm-162.7-13.2c1.2 1.3-2 2.6-4.7 2-2.2-.4-2.9-1.1-2.5-2.2.4-1.1 1.4-1.3 3.6-.9 1.7.3 3.3.8 3.6 1.1zm181.6.7c-.4 1.3-.9 3-1.1 4-.3.9-1.1 1.9-1.9 2.2-2 .7-2-3.3.1-6.2 2-2.9 3.7-2.9 2.9 0zM33 663c0 .5-.7 1-1.6 1-.8 0-1.2-.5-.9-1 .3-.6 1-1 1.6-1 .5 0 .9.4.9 1zm170.8 3.2l2.9 3.1-5.2 2.6c-4 2-6.3 2.5-10.3 2.3-2.9-.2-5.2-.8-5.2-1.4 0-.6 2.4-.8 5.8-.6 4.5.2 5.7 0 5.7-1.2 0-.8-1.1-1.7-2.5-2.1-2.2-.6-2-.7 1.2-.8 3.4-.1 5.7-1.5 4.5-2.7-.2-.3-2.8-.7-5.7-.9-7.4-.5-7.5-1.5-.2-1.5 5.7 0 6.5.3 9 3.2zM296 668c0 1.8-.3 1.9-2 .8-1.8-1.2-1.9-1.3-.2-2 .9-.3 1.8-.7 2-.7.1-.1.2.8.2 1.9zm-150.2.6c2.9.9.8 2.4-3.3 2.4-3.1 0-4.5-.4-4.5-1.3 0-2.7 1.9-2.9 7.8-1.1zm-115.3.4c.3.5.1 1-.4 1-.6 0-1.1-.5-1.1-1 0-.6.2-1 .4-1 .3 0 .8.4 1.1 1zm209.1.1c.6 1.1 5.2.8 13.2-.7 2.8-.6 3.2-.4 3.2 1.6 0 2.1-.3 2.2-9.9 1.8-10-.3-12.8-1.1-10.1-2.8 2-1.3 2.7-1.2 3.6.1zm90.4 1.5c0 1.8-2.7 4.3-4.7 4.4-2.1 0-1.5-2.6 1-4.3 2.9-2.1 3.7-2.1 3.7-.1zm-180.4 5.3c-1.4 1.6-2.3 1.7-5 1-1.9-.5-4.4-.8-5.6-.7-1.3.2-2.5-.3-2.7-1-.3-.9 1.2-1.2 5.6-1.2 5.1 0 6.1-.3 6.1-1.7 0-1.6.1-1.6 1.7 0 1.6 1.5 1.6 1.8-.1 3.6zm105.2.6c.2.2.1.8-.3 1.4-1 1.7-19.5 1.5-19.5-.2 0-.8.2-1.6.5-1.9.6-.6 18.7.1 19.3.7zm-61 1.7c-.6 1.8-2.8 2.1-2.8.4 0-.9.7-1.6 1.6-1.6.9 0 1.4.5 1.2 1.2zm117.5 2.7c.5.5 1.2 5.5 1.5 10.9.4 9.3.3 10-1.6 10.6-2.3.8-7.2-1.2-7.2-2.9 0-.7.7-1.8 1.5-2.5 2.1-1.7 0-4.3-2.7-3.4-4.5 1.4-5.6-5.1-2.1-12 1.3-2.6 1.8-2.8 5.5-2.3 2.2.3 4.5 1 5.1 1.6zm-162.9.7c.4 1.1 1.4 1.5 3 1.2 1.4-.3 3.1-.1 3.8.4.7.5-2.9.7-8.7.6-8.6-.3-10-.5-10.3-2.1-.3-1.5.5-1.7 5.6-1.7 4.6 0 6.1.4 6.6 1.6zm104 2.1c-.4 4.6.7 4.4-18 3.9-9.7-.3-17.9-.7-18.2-1.1-1.5-1.5 2.3-2.4 13.3-3.2 16.9-1.2 23-1.1 22.9.4zm-91.1 0c-.7.2-1.9.2-2.5 0-.7-.3-.2-.5 1.2-.5s1.9.2 1.3.5zM46 684.9c0 .5-.6 1.1-1.2 1.4-1.8.6-3.9-.3-3.2-1.4.7-1.2 4.4-1.2 4.4 0zm8 1.1c0 .5-.2 1-.4 1-.3 0-.8-.5-1.1-1-.3-.6-.1-1 .4-1 .6 0 1.1.4 1.1 1zm7.8.7c-1 .2-2.6.2-3.5 0-1-.3-.2-.5 1.7-.5s2.7.2 1.8.5zm106.7 1.3c.3.5.3 1-.2 1.1-.4 0-5.7.2-11.8.4-6 .3-12.7.7-14.7 1-3 .4-3.9.1-4.8-1.5-1.1-2-.8-2 14.9-2 9.6 0 16.2.4 16.6 1zm163 1.7c.4 1 1.1 3.1 1.5 4.8.7 2.5.7 2.7-.3 1.1-.7-1-2.3-3.2-3.5-4.7-2.3-2.8-2.3-2.9-.4-2.9 1.1 0 2.3.8 2.7 1.7zm-81.5 2.2c0 .4-.8 1.5-1.8 2.4-1.5 1.4-3.8 1.6-14.9 1.2-12.1-.3-17.3-1.4-17.3-3.7 0-.4 7.7-.7 17-.7 9.4 0 17 .4 17 .8zm-81.3 1.7c.7 1.8-1.2 3.9-4.3 4.8-1.6.5-2.3.2-2.6-1.2-.5-1.8-1.4-1.9-10.8-1.4-8.5.4-10.2.2-9.8-.9.3-1 2.9-1.6 8.4-2 15.8-1.1 18.4-1 19.1.7zm157.1-.3c.6.6 1.3 2.4 1.7 4 .4 1.5 1.4 2.7 2.2 2.7 1.7 0 1.6.1-1.6 5.2-2.5 4.1-5 4.8-7.5 2.2-2.1-2-2-3.6.3-6.3 1.6-1.8 1.8-2.7.9-4.1-2.2-3.5 1.4-6.9 4-3.7zM48 698.5c0 .8-.5 2.5-1.1 3.9-.9 1.8-.9 2.9-.1 3.9.6.7 1.1 5.8 1.1 12.2.1 14.8 0 15.5-2 15.5-1.3 0-1.7-1-1.8-4.3 0-2.3-.4-6.7-.7-9.9-.6-5.1-.4-5.7 1.6-6.8 2-1.1 2.1-1.3.5-3-2.2-2.5-1-13 1.6-13 .5 0 .9.7.9 1.5zm105 .3c0 .4-.9 1.3-2 1.9-2 1.3-3.7.2-2.5-1.7.7-1.2 4.5-1.4 4.5-.2zm85.5 1.2c-.3.5-1.9 1-3.6 1-1.6 0-2.9-.5-2.9-1 0-.6 1.6-1 3.6-1 2.1 0 3.3.4 2.9 1zm-94.5 2.5c1.3 1.4 2 2.5 1.6 2.5-1.2 0-5.6-3.2-5.6-4.1 0-1.6 1.6-1 4 1.6zm5 1.5c0 .5-.5 1-1.1 1-.5 0-.7-.5-.4-1 .3-.6.8-1 1.1-1 .2 0 .4.4.4 1zm188 1.1c0 1.1-1.5 3.3-3.2 5-3.7 3.3-6.1 4-3.3.9 1-1.1 1.5-2 1.1-2-.4 0 .1-1.4 1.1-3 2-3.5 4.3-4 4.3-.9zm-139.7 2.4c1.7 1.2 1.7 1.3-1.2 2-1.6.3-4.6.2-6.7-.4-2-.6-4.1-.8-4.6-.5-.4.3-1.3.2-1.9-.2-2-1.2 1-2.1 6.9-2.2 3.1 0 6.4.5 7.5 1.3zm118.2 2.7c.9 3.6-.4 3.5-3.6-.1-2.6-2.9-2.6-3-.5-3.3 2.7-.5 3.3 0 4.1 3.4zm-35.5 5.3c-1.2 2.5-2.5 4.5-3 4.5-1.5 0-1.9-2.9-.6-4.2.7-.7 2.1-2.6 3.1-4.2 2.7-4.1 3.1-1.4.5 3.9zm-76.2-3.3c-.3 2-1.2 2.4-6.1 3.2-3.9.6-6.4.6-8-.2-1.2-.6-2.9-1.3-3.7-1.5-.8-.3 2.2-.6 6.8-.6 6.4-.1 8.4-.4 8.8-1.6.9-2.3 2.6-1.8 2.2.7zm88-1.3c1.1.6 1.3 2.8.9 9.1-.3 4.5-1 8.7-1.5 9.2s-2.5.8-4.3.6c-3.3-.3-3.4-.4-3.2-4.3.1-2.2.7-6.6 1.4-9.8 1-4.7 1.6-5.7 3.3-5.7 1.2 0 2.7.4 3.4.9zm16.3 1.1c1 .6 2.6 2.4 3.4 4 1 1.9 2 2.7 3 2.4 1.9-.8 1.9 0 0 3.6-1.4 2.7-2 3-6.3 3-5.7 0-7.3-.9-7.4-4.1-.2-2.9-1.7-5.1-2.9-4.3-.5.3-.9 0-.9-.6 0-.7.7-1 1.5-.6.8.3 2-.3 2.7-1.3 1.1-1.5 2.7-2.5 4.6-3 .2-.1 1.2.4 2.3.9zm27.7 1.8c-.1 1.5.2 3.7.6 4.9.5 1.7.1 2.8-2 4.5-1.5 1.3-3.5 3.1-4.4 4.1-1.7 1.7-1.8 1.7-2.4 0-.5-1.3.4-2.8 3.6-5.6l4.3-3.8-3.8 2.2c-5 2.8-5.8 1.8-1.2-1.6 3.7-2.9 4.1-4.4.6-2.5-3 1.5-2.6 0 .7-2.7 3.5-2.9 4.1-2.9 4 .5zm-12.1.9c-.3 1-.8 3.6-1.2 5.8-.8 4.6-1.9 3.4-2.9-3.3-.6-4-.5-4.2 2-4.2 1.9 0 2.4.4 2.1 1.7zM189.5 719c1.4.5 2.3 1.5 2 2-1.5 2.5 1.8 4 8.9 4.2 6.5.2 6.6.2 1.6.5-8.1.5-9 1-6 3.3 2.1 1.7 4.2 2 13.3 2 6.4 0 10.7.4 10.7 1 0 .5-1.4 1-3.1 1-1.7 0-3.9.5-5 1.1-2.3 1.2-15.4-.5-17.6-2.3-2.1-1.7-4.5-.1-3.8 2.3.4 1.2.1 3.2-.6 4.5-1.2 2.3-1.4 2.3-3.1.7-2.2-2-2.4-4.3-.3-4.3.8 0 1.5-.6 1.5-1.4 0-1.9-4.8-3-6.6-1.5-1.9 1.5-1.8 5.9.1 8.7 1.2 1.6 1.4 3.4.9 7-.4 3.6-.2 5.7 1.1 8.1.9 1.8 1.4 4 1.1 4.8-.4.9-.1 2.2.5 2.9.6.8.9 2 .6 2.8-.3.7.1 2.3.9 3.4 1 1.4 1.1 2.3.4 2.7-.8.5-.8 1.1 0 1.9.5.7.7 2.7.4 4.5-1.4 7-18.1 10.8-27.3 6.4-2.9-1.4-3.7-2.5-3.9-5-.2-2.4.2-3.5 1.7-4.5 3.2-2 2.5-4.5-1.9-7.3-2.2-1.4-4.4-2.5-4.9-2.5-1.4 0-6.1-6-6.1-7.8 0-10.8 11.9-21.3 19.5-17.2 2.5 1.3 4.5.7 4.5-1.5 0-.9 1.5-1.5 4.8-1.7 2.6-.2 4.7-.8 4.7-1.3 0-1.7-6.5-1.7-9-.1-1.5 1-2.6 1.2-3 .6-.9-1.5-6.8-1.2-10.9.5-3.1 1.3-3.6 1.3-3.6.1 0-2.1.8-2.4 8.4-3.1 7.6-.6 8.6-1 8.6-3.1 0-1 1.2-1.4 4.4-1.4 4.6 0 6.9-1.6 4.5-3.1-.8-.5-2.7-.9-4.4-.9-2.3 0-2.7-.3-1.5-1 .8-.5 3.9-1 6.8-1 3.8 0 5.4-.4 5.9-1.5.8-2.2-.1-2.8-5-3.6-4.2-.6-4.2-.7 1.5-.8 3.1 0 6.9.3 8.3.9zm-152.1 4.6c.9 2.4.7 2.7-.9 1-1.7-1.7-1.9-2.6-.6-2.6.5 0 1.2.7 1.5 1.6zm283.6 3.9c2.1-1.3 1.8 1.6-.5 4.3-3.1 3.7-3.2 6.8-.2 12.3 2.1 4.1 7.6 7.7 9.7 6.4.5-.3 2.5 1.6 4.4 4.2 3.2 4.4 3.3 4.8 1.9 7l-1.5 2.2-4.1-2.6c-2.3-1.5-5.6-2.7-7.4-2.7l-3.2-.1-.7-7.3c-.7-8.1-3.2-12.8-7.8-15-3.7-1.8-6.9-.9-11.1 3.3L297 743l.1-8.4c.2-8.4.2-8.5 2.3-7.2 1.1.8 4.2 1.6 6.8 1.9 4 .4 5.1.1 8-2.3 3.2-2.7 3.3-2.7 4.6-.9.7 1.1 1.7 1.7 2.2 1.4zm15.4-1.1c-.3.7-1.8 2.3-3.4 3.5-1.7 1.2-3 2.9-3 3.8 0 1.3.6 1.1 2.8-1 4.1-4 5.2-3.3 1.2.8-3.2 3.3-3.7 6.1-.5 3.5 1.8-1.5 1.9-1.1.5 2.6-.9 2.4-.9 2.5.5 1.4.8-.7 1.5-1.9 1.5-2.6 0-.8.5-1.4 1-1.4 1.3 0 1.3 1.9-.1 6-.9 2.6-.9 3.4.2 4.1 1 .6 1.1 1.1.3 1.9-1.7 1.7-5.1-3.2-7.4-10.8-1.9-6.2-2-6.6-.3-8.6 4.2-4.8 8-6.7 6.7-3.2zm-60.8 5.1c-.8 3.2-3.6 3.3-3.6.1 0-1.5.7-2.6 1.8-2.8 2.3-.6 2.5-.3 1.8 2.7zm-8.2-1.3c.3.7.7 2.5 1 4 .5 2.1 1.2 2.8 3.1 2.8 2.6 0 4 2.7 3 6-.9 2.8-2.5 2.5-6.2-1.3-3-3.1-5.8-10.1-4.7-11.9.8-1.2 3.4-1 3.8.4zm26.1 6.2c-1.7 8.3-1.1 9.6 5 11.9.6.3.7.7.4 1.1-.4.4-2.2 0-4-.8-1.9-.8-4.9-2-6.6-2.6-2.5-.9-3.3-1.8-3.3-3.7 0-3.3-1.7-6.3-3.6-6.3-.9 0-1.4-.5-1.2-1.1.4-1.2.5-1.3 4-.4 1.6.4 3.8.1 5.5-.7 3.7-1.9 4.6-1.3 3.8 2.6zm43.2-1.2c-.3.8-.6.5-.6-.6-.1-1.1.2-1.7.5-1.3.3.3.4 1.2.1 1.9zm-110.7.7c0 .5 1.4 1.4 3 2.1 2.8 1.2 2.9 1.4 1.5 3-1.4 1.5-1.4 1.9.3 4.1 3.1 3.9 3.2 8.6.4 13.7-3.6 6.5-9 8.7-20.7 8.7-5.1 0-9.2.4-9.4 1-.6 1.7 4.1 3.5 9.4 3.5 5.2 0 12.8 2.3 15.8 4.8 2.4 2.1 2.1 4.9-.8 7.8-2.2 2.1-3.1 2.4-8.2 2-6.7-.5-9.3-1.4-14.6-5-2.1-1.4-4.4-2.6-5.2-2.6-.9 0-1.5-1-1.5-2.5 0-1.8-.5-2.5-1.9-2.5-1 0-2.5-.8-3.2-1.8-1.2-1.5-1.2-1.6.2-.5 1.2 1 1.9 1 3.5-.1 2.1-1.6 1.3-3.1-1.9-3.1-1.1 0-2.2-.6-2.5-1.4-.3-.9 0-1.2 1-.8 1.9.7 3.8-1.1 3.8-3.5 0-1.3-.8-1.8-3.1-1.8-2.7 0-3-.2-1.9-1.5.7-.8 1.9-1.5 2.7-1.5 1.7 0 3.1-3.6 2.5-6.7-.7-3.6-4.5-2.7-5.3 1.2-.5 2.3-.7 2.6-1.2 1.2-1.5-3.7-1.4-4.4.2-6.6 1.5-1.9 1.9-2 2.9-.8 1.8 2.2 8 .7 13.8-3.4 5.1-3.5 5.8-3.7 13.4-4.2 3.3-.1 4.6-.7 4.8-2 .3-1.7 2.2-2.4 2.2-.8zm100.4 4.5c1.6 5.2.6 5.8-2.7 1.4-1.6-2.1-1.7-2.9-.7-4.8 1.4-2.7 1.6-2.5 3.4 3.4zM48 739c-.7.4-1 1.2-.6 1.8 1.2 2.1-2 1.9-3.6-.2-1.6-2.2-1.5-2.2 2-2.3 2.1-.1 3 .2 2.2.7zm28 4.9c0 3.2.3 7.9.6 10.5.9 6.2-1.1 6.1-2.2-.2-1.1-5.5-.6-16.2.7-16.2.5 0 .9 2.6.9 5.9zm122.4-5.3c2.1.8 2 2-.1 2.8-.9.4-2 .1-2.5-.6-1.6-2.6-.7-3.5 2.6-2.2zm114.6 4.1c2.7 3.4 2.2 5.5-1.4 6.4-1.6.5-3.9 1.8-5.1 2.9-2.6 2.4-4.6 1-2.4-1.7 1.1-1.3 1-1.7-.4-2.8-2.1-1.5-2.2-3.3 0-5.7 2.4-2.7 6.8-2.3 9.3.9zm-281-1.3c0 .9-3 1.4-3.5.6-.4-.6.3-1 1.4-1 1.2 0 2.1.2 2.1.4zm8 2.1c-.7.9-1.5 1.3-1.7 1.1-.7-.7.7-2.6 1.9-2.6.6 0 .6.6-.2 1.5zm246.2 7.5c5.8 1.5 9.2 2.9 8.4 3.7-.3.4-1.7.1-3-.6-2-1.1-3.1-1-7.2.8l-4.9 2.2-2.7-3.3c-3.3-4-3.4-4.6-.6-7.5l2.1-2.3 1.8 3c1.3 2 3.1 3.2 6.1 4zm-46.8-5.2c.2.4.1 1.4-.3 2.1-.6.9-1 .7-1.4-.8-.5-2 .7-2.9 1.7-1.3zm-190.1 9c.3 6.8.1 7.3-1.8 7-1.8-.3-2-1.1-2.3-7.6-.3-7-.2-7.3 1.8-7 1.9.3 2.1 1 2.3 7.6zM142 750c0 .5-.7.7-1.5.4-.8-.4-1.5-.8-1.5-1 0-.2.7-.4 1.5-.4s1.5.4 1.5 1zm200 3.7c0 .7-.4 1.3-.9 1.3-1 0-2.1-2.4-2.1-4.8 0-1.3.3-1.2 1.5.4.8 1 1.5 2.5 1.5 3.1zm-25 4.3c0 1.5-6.9 2-11.7.9-6.5-1.6-7.5-2.8-1.9-2.3 3.7.4 5.3 0 7.4-1.6l2.7-2.1 1.7 2.1c1 1.2 1.8 2.6 1.8 3zm-176-1.5c0 2.1-.5 2.5-2.9 2.5-1.7 0-3.3-.5-3.6-1-1.3-2.1.4-4 3.5-4 2.5 0 3 .4 3 2.5zm102.5-1.5c.3.6-.5 1-1.9 1s-2.8-.5-3.1-1c-.3-.6.5-1 1.9-1s2.8.4 3.1 1zm-141 7c-.2 3.9-3.2 9.2-6.9 12.2-1.2.9-4.6 2-7.6 2.3-3 .4-6.7.9-8.2 1.1-2.5.5-2.8.2-2.8-1.9 0-3.3 1-5.7 2.2-5.7.6 0 .7 1.1.4 2.5-.5 1.8-.2 2.5.9 2.5.9 0 1.5-.9 1.5-2.4 0-1.3.7-2.9 1.5-3.6 1.3-1.1 1.5-.7 1.5 2.4 0 2 .5 3.6 1 3.6.6 0 1-1.4 1-3 0-3.8 1.5-3.9 2.8-.3l1 2.8.1-2.5c.1-1.4.5-3.2 1.1-4 1-1.6 1.4-1 2.3 3.5.2 1.1.4-.3.5-3.2 0-2.8.3-6.1.7-7.2 1.1-3.5 2.4-1.4 2.1 3.4-.2 2.5 0 4.5.5 4.5s.9-1.1.9-2.5c0-1.5.7-3.9 1.5-5.5 1-1.9 1.1-3 .5-3-.6 0-.8-.5-.4-1.1 1.1-1.9 2.1.9 1.9 5.1zm191.7.2c4.3 2.8 4.9 3.6 4.6 6.2-.3 2.7-.8 3.2-4 3.7-3.3.5-3.8.3-3.8-1.3 0-1.1-1.3-3.2-3-4.6-2.9-2.5-3.8-5.1-2.3-6.5 1.3-1.3 3.6-.7 8.5 2.5zM252 761c1.1.8.2 1-3.5.9-2.7 0-6.9.2-9.2.6-3.6.6-4.3.5-4.3-.9 0-1.3 1.2-1.6 7.8-1.6 4.2 0 8.4.5 9.2 1zm93 1.2c.1 1.3 1.9 4.3 4 6.8 3.1 3.4 3.6 4.6 2.6 5.2-1.9 1.1-5.6-.5-8.2-3.3-2.9-3.3-3.5-5.6-1.8-6.9.8-.7 1.4-1.9 1.4-2.6 0-2.4 2-1.5 2 .8zm-200.4 3.9c1.5 1.6 3.4 2.9 4.3 2.9.8 0 1.1.3.8.7-.4.3-1.7.1-3-.5-4-2.1-10.9-4.1-12.2-3.6-1.4.6-2.9-1.1-2.1-2.4.2-.4 2.4-.6 4.9-.4 3.4.3 5.2 1.1 7.3 3.3zM305 764c0 .5-.4 1-1 1-.5 0-1-.5-1-1 0-.6.5-1 1-1 .6 0 1 .4 1 1zm24.2 2c2.7 1.7 5.3 2.8 5.9 2.5.5-.4.9-.2.9.4 0 3.8 10.9 11.5 14.9 10.4 1.6-.4 2.1-.1 2.1 1.4 0 2.4 2.6 4.9 6 5.8 1.8.4 3.7-.1 6.4-2 3.6-2.4 4.3-2.6 8-1.6 2.3.6 5.9 1.2 8.1 1.3l4 .3-2.6 1.8c-2.3 1.5-3.2 1.6-7.2.5-4-1-5.7-.9-11.9.6-4 1-8.8 2.5-10.6 3.4l-3.4 1.7-2.8-3.4c-3.5-4.1-6.6-3.8-5 .5.6 1.5.9 2.7.8 2.8-.2 0-1.3.7-2.5 1.4-2.1 1.1-2.3 1-2.3-.8 0-1.3-1-2.4-2.5-3l-2.6-1 2.3-3c1.9-2.7 2.1-3.5 1.1-6.3l-1.2-3.2 1.7 2.4c3.9 5.7 5 6.6 6.2 5.5 3-3-7.8-14.4-13.6-14.4-5.9 0-5.3 3.8.6 4.1 2 0 1.7.3-1.5 1.2-3.7 1.2-3.9 1.5-4.1 5.2-.1 2.8.5 4.7 1.9 6.2 1.1 1.3 1.7 2.6 1.3 3-.4.4-5.5.8-11.4.9l-10.7.3 6-1.2c6.8-1.4 8.5-2.3 8.5-4.1 0-.8.7-1.9 1.5-2.6 1.7-1.4 2-5.6.4-6.6-.6-.3-.9-1.8-.6-3.3.3-1.4-.1-4.1-.9-6-1.8-4.3-1.8-4.1 1.2-4.1 1.5 0 4.9 1.4 7.6 3zm-254.7-1c.3.6-.5 1-1.9 1-1.3 0-3.1.3-4 .6-.9.3-1.6.1-1.6-.4 0-.6 1.2-1.3 2.8-1.5 1.5-.2 3-.5 3.4-.6.4 0 1 .3 1.3.9zm183.9 1.9c.3.5-1.5.8-3.9.7-2.5 0-4.5-.4-4.5-.9 0-1 7.8-.9 8.4.2zm56.4.3c1.6 2.1 2.2 5.2 1.3 6.7-.7 1.1-1.3 1.1-3.2-.3-1.3-.9-3.4-1.6-4.6-1.6-2.7 0-3-1.6-.6-4.2 1.9-2.1 5.6-2.4 7.1-.6zm-80 .5c-1 .2-2.6.2-3.5 0-1-.3-.2-.5 1.7-.5s2.7.2 1.8.5zm243.6.5c-1.5.7-2.8.7-4-.1-1.6-.9-1.2-1 2.1-1 3.5 0 3.7.2 1.9 1.1zM133 770.6c0 1.2-.6 1.5-2.2 1-1.3-.3-3.2-.6-4.3-.7-1.4-.1-1-.4 1-.9 4.7-1.2 5.5-1.1 5.5.6zm287 1c0 .2-1.5.4-3.2.4-2.3 0-2.9-.3-1.9-.9 1.2-.8 5.1-.4 5.1.5zm-345 1.6c0 2.7-1.6 5.5-2.5 4.6-.9-.9.5-6.8 1.6-6.8.5 0 .9 1 .9 2.2zm186.1-1.2c1.6 0 2.9.4 2.9 1 0 .5-1.7.7-3.7.5-2.1-.2-4.1-.4-4.5-.4-.5-.1-.8-.6-.8-1.2s.7-.8 1.6-.5c.9.3 2.9.6 4.5.6zm168.2-.3c-1.3.2-3.5.2-5 0-1.6-.2-.5-.4 2.2-.4 2.8 0 4 .2 2.8.4zM65 773c0 .5-.4 1-1 1-.5 0-1-.5-1-1 0-.6.5-1 1-1 .6 0 1 .4 1 1zm5-.6c0 .3-.4.8-1 1.1-.5.3-1 .1-1-.4 0-.6.5-1.1 1-1.1.6 0 1 .2 1 .4zm164 1c0 .8.8 1.7 1.8 1.9 1.1.3.8.5-.8.6-2.5.1-5-1.5-5-3.1 0-.4.9-.8 2-.8s2 .6 2 1.4zm-184.7 2.1c-.3.8-.9 1.5-1.4 1.5-1 0-1.2-2.4-.3-3.3 1.1-1.1 2.4.3 1.7 1.8zm6.9 1.7c-.7.7-1.2.8-1.2.2 0-1.4 1.2-2.6 1.9-1.9.2.3-.1 1.1-.7 1.7zm13.6-.5c-.2.9-.8 1.8-1.5 2-.7.3-.9-.3-.6-1.6.6-2.5 2.6-2.8 2.1-.4zm55.9-1.1c-.3.3-1.2.4-1.9.1-.8-.3-.5-.6.6-.6 1.1-.1 1.7.2 1.3.5zM66 777.1c0 .6-.8 3.4-1.7 6.1-1.5 4.3-2.5 5.3-6.5 7.4-3.7 1.9-4.8 3-4.8 4.9 0 1.3-.4 2.7-1 3-.5.3-1 2.4-1 4.6 0 2.2-.5 3.9-1.1 3.9-.7 0-.9-1.2-.5-3.3.3-1.7.8-7.4 1.2-12.5.4-5 1.1-9.2 1.5-9.2.5 0 .9 1.6.9 3.5 0 5 1.8 4.4 2.2-.8.3-4.4 2.1-5.8 2.6-2 .3 1.9.6 2.1 2.3 1 1-.6 1.9-1.8 1.9-2.5 0-1.6 2.2-5.2 3.2-5.2.5 0 .8.5.8 1.1zm77-.2c0 .5-.7 1.4-1.6 2.2-1 .8-1.4 2.2-1 4 .5 2.9-.8 5.3-3.6 6.2-1.3.5-1.8.1-1.8-1.3 0-2.4-1.7-2.6-4-.5-.9.8-3.1 1.8-4.8 2.1l-3.2.7 3.1-6.3c1.8-3.4 3.9-6.4 4.6-6.7.8-.3 2.6.5 4 1.8l2.5 2.4 2.1-2.8c2.1-2.7 3.7-3.5 3.7-1.8zm9 4.1c0 3.9-.1 4-3.5 4-2.4 0-3.5-.5-3.5-1.5 0-.9 1-1.5 2.6-1.5 2.3 0 2.5-.3 2-2.5-.5-1.8-.2-2.5.9-2.5s1.5 1.1 1.5 4zm165.8-2.8c1.9 1.9 1.4 3-.8 1.8-1.1-.6-2-1.5-2-2 0-1.4 1.4-1.2 2.8.2zm44.3-.2c3 1.7 2.4 4-1.1 4-3.1 0-3.5-.6-2.4-3.4.7-1.9.9-1.9 3.5-.6zm-326.1.9c0 .6-.4 1.3-1 1.6-.5.3-1-.1-1-.9 0-.9.5-1.6 1-1.6.6 0 1 .4 1 .9zm4 1.3c0 2.7-1.6 5.5-2.5 4.6-.9-.9.5-6.8 1.6-6.8.5 0 .9 1 .9 2.2zm20.5-1.2c-.3.5-1.1 1-1.6 1-.6 0-.7-.5-.4-1 .3-.6 1.1-1 1.6-1 .6 0 .7.4.4 1zm203.5.5c0 .9-.6 1.2-1.5.9-.8-.4-1.5-1-1.5-1.5s.7-.9 1.5-.9 1.5.7 1.5 1.5zm221.3-.8c-.7.2-2.1.2-3 0-1-.3-.4-.5 1.2-.5 1.7 0 2.4.2 1.8.5zm-440.9 3c-.8 3.3-1.2 3.9-2 3-.9-.9.5-5.7 1.6-5.7.6 0 .8 1.1.4 2.7zm287.9.3c.7 2.7-1.1 3.6-3.1 1.7-1.2-1.3-1.3-1.9-.3-3.1 1.6-1.9 2.7-1.4 3.4 1.4zm-283.8 2.9c-.8 4.6-2.5 6.5-2.5 2.7 0-3 1.8-8.1 2.6-7.3.3.3.3 2.4-.1 4.6zm187.8-3.2c-.7.2-1.9.2-2.5 0-.7-.3-.2-.5 1.2-.5s1.9.2 1.3.5zm170.5 1.5c1.6 1.6 1.5 3.7-.3 4.4-2 .8-5.8-3.8-4.2-4.8 1.7-1.1 3.1-1 4.5.4zm84.2-.2c1 .7-.5.9-5 .9-4.8-.1-5.8-.3-4-.9 3.5-1.1 7.2-1.1 9 0zm-419.1 1.7c-1.4.9-3.1 2.8-3.7 4.2-1 2.5-1 2.5-1.1.3-.2-3.8 1.7-6.2 4.7-6.2l2.7.1-2.6 1.6zM39 789c0 1.6-.4 3-1 3-1.1 0-1.4-4.3-.3-5.3 1.1-1.2 1.3-.8 1.3 2.3zm117.9-.3c.2.2-1 .3-2.9.3-2.8 0-3.1-.2-2-1.5 1-1.2 1.6-1.3 2.9-.3.9.7 1.8 1.4 2 1.5zM397 787c0 .5-.2 1-.4 1-.3 0-.8-.5-1.1-1-.3-.6-.1-1 .4-1 .6 0 1.1.4 1.1 1zm-189.4 1.4c2 0 3.6.6 4.3 1.8 1.1 1.7.3 1.8-15.6 1.8-9.3 0-21.3.3-26.8.6-8 .5-9.8.4-8.8-.6 1.1-1.1 10.7-2.3 17.6-2.1 1.5 0 3.5.1 4.5.1 5 .1 16.8-1.3 17.7-2.1.5-.5 1.6-.6 2.5-.2.8.4 2.9.7 4.6.7zm-191.6 1c0 .7-1.2 3.4-2.6 6-3.4 6-12.7 11.3-10.7 6 .3-.8 0-1.4-.6-1.4s-1.1-.7-1.1-1.5.9-1.5 2-1.5c1.2 0 2 .7 2 1.7 0 1.5.2 1.5.9.4.5-.8.7-2 .4-2.7-.2-.6 0-1.5.6-1.9.6-.3 1.1.1 1.1 1s.5 1.3 1 1c.6-.3 1-1.8 1-3.3.1-2.5.2-2.6 1.4-.9 1.4 1.9 3.3.7 2.1-1.3-.7-1.2.2-3 1.6-3 .5 0 .9.6.9 1.4zm27.2 3.7l-1 3.4-.1-4.5c-.1-3.1.2-4.1 1-3.3.7.7.7 2.1.1 4.4zm348.5-3.3c.8 1.3 2 1.8 4 1.5 2.1-.3 3.7.4 6.6 3.2 5.1 4.7 4.7 6.8-1.8 7.7-10.4 1.3-17.1.9-19.9-1.3-3.6-2.9-3.3-4.1.9-3.3 2.8.5 3.5.3 3.5-1 0-.9-.5-2.5-1.2-3.5-.9-1.5-.9-2.3.1-3.5 1.8-2.2 6.4-2 7.8.2zm-356.7.1c0 1.2-2 2.5-2.7 1.8-.7-.7.6-2.7 1.8-2.7.5 0 .9.4.9.9zm340.5.8c3.9 1.9 4.5 3.2 1.5 4-1 .3-2.2 1.4-2.5 2.4-.6 1.7-1.3 1.9-7 1.3-6-.6-6.5-.5-8.8 2-1.8 1.9-3.4 2.6-6 2.6-4.3 0-10.7-2.8-10.7-4.7 0-1.7 1.5-1.6 4.5.3 2.8 1.8 5.5 1.3 5.5-1.1 0-2.1 4-3.5 6.3-2.3 2.7 1.4 5 .2 4.2-2.2-.5-1.5 0-2.1 2.7-2.9 4.8-1.4 6.3-1.3 10.3.6zm-226 1.9l5 1.2-6.5.2c-18.4.8-26 .7-26-.1 0-1.1-.5-1 9.3-1.5 4.4-.2 8.6-.8 9.5-1.3.9-.5 2.1-.6 2.7-.3.5.4 3.3 1.2 6 1.8zm151.8-1.9c-.7.2-1.9.2-2.5 0-.7-.3-.2-.5 1.2-.5s1.9.2 1.3.5zm-253.6 8.6c-.6 12-2.7 15.1-2.6 3.7.1-7.6 1-12 2.5-12 .2 0 .3 3.8.1 8.3zm-14.1-1.5c-1.4 1.4-1.6 1.4-1.6.1 0-2 2.3-4.4 2.9-2.8.2.6-.4 1.8-1.3 2.7zm30.1-3.2c-.3.3-1.2.4-1.9.1-.8-.3-.5-.6.6-.6 1.1-.1 1.7.2 1.3.5zm31.8.4c-.3.5-1.7 1-3.1 1-1.4 0-2.2-.4-1.9-1 .3-.6 1.7-1 3.1-1 1.4 0 2.2.4 1.9 1zm218.8.5c9.7.1 17.9.4 18.2.6.9 1 3.2 13.8 2.6 14.7-1.3 2.1-56.2 2.7-196.3 2.4L57 813v-14h5.5c3.4 0 5.7-.5 6.2-1.3 1.1-1.8 5.4-2.9 5.2-1.4-.4 3.2.2 3.4 12.3 3.1 7.3-.2 12.7.1 13.4.7.8.7 10.8.7 31.1 0 27.7-1 36.1-1.4 61.3-2.7 5.2-.2 19.4-.6 31.5-.9 40.3-.8 68-1.7 68.4-2.1.3-.2 1.4-.1 2.5.3 1.2.3 10.1.7 19.9.8zM39 801.6c0 3.4-.4 5.3-1 4.9-.5-.3-1-2.8-1-5.6 0-2.7.5-4.9 1-4.9.6 0 1 2.5 1 5.6zm3.6.1c-1 1-1.9-.5-1-1.8.6-1.1.8-1.1 1.2 0 .2.7.1 1.5-.2 1.8zm-13.4 1.5c-.7.7-1.2.8-1.2.2 0-1.4 1.2-2.6 1.9-1.9.2.3-.1 1.1-.7 1.7zm5.8-.8c0 .7-.7 1.9-1.5 2.6-1.2 1-1.5.9-1.5-.7 0-1.1.3-2.3.7-2.6 1.1-1.2 2.3-.8 2.3.7zm338 1.8c1.1.7.6.8-1.5.4-1.7-.2-3.7-.1-4.5.4-2.6 1.6.3 3 6.6 3.1 8.2 0 14.7 1 13.7 2-1.1 1.1-46.3 1.4-47.3.3-.4-.5-1.1-2.4-1.5-4.2-.8-3.8.4-4.1 5-1.4 1.7 1 4.5 2.2 6.4 2.5 4.2.9 10.9-1.1 12.5-3.5.9-1.5 1.8-1.8 5.1-1.2 2.2.3 4.7 1.1 5.5 1.6zm-350 4.4c0 1.4.3 1.4 1.5.4 1.2-1 1.5-.9 1.5.5 0 1.7.1 1.7 2.1-.1 2.1-1.9 2.1-1.9 1.8.6-.4 2.3-.8 2.5-5.9 2.5-3 0-5.5-.5-5.5-1 0-.6.5-.9 1.2-.7.7.2 1.3-.6 1.3-1.8 0-1.1.5-2 1-2 .6 0 1 .7 1 1.6zm13-.9c-.1 2.9-1.5 5.3-3.1 5.3-1.8 0-1.9-.2-.4-3 1.4-2.7 3.5-4.1 3.5-2.3zm7.7 2.3c1 2.7.9 3-.8 3-1.4 0-1.9-.7-1.9-3 0-1.7.4-3 .8-3s1.3 1.3 1.9 3zm7.3.5c0 1.4-.4 2.5-1 2.5-1.1 0-1.4-3.3-.3-4.3 1.1-1.1 1.3-.8 1.3 1.8z"/><path d="M117.1 231.4c-1.5 1.8-.5 4 1.2 2.9.7-.4 2.2-.6 3.4-.4 1.7.2 2.1-.1 1.7-1.3-.3-.9-1-1.6-1.4-1.6-.5 0-1.5-.2-2.3-.5-.7-.3-1.9.1-2.6.9zM183.6 271.9c-.4.5-.3 1.6 0 2.4.4 1.1-.6 2.1-3 3.4-3.4 1.7-3.5 1.9-1.8 3.3.9.8 3.1 1.6 4.7 1.8 1.6.2 3.3.9 3.7 1.5.4.6 1 .8 1.4.4.4-.4.3-1.2-.3-1.8-.9-.9-.4-1.8 1.8-3.6 3.3-2.9 3.7-5.8 1-7.3-2.4-1.2-6.8-1.3-7.5-.1zM177.1 274.4c-.8.9-1.1 1.9-.7 2.3.9.9 2.9-1.3 2.4-2.7-.2-.8-.8-.7-1.7.4zM367 315.9c0 .6.5 1.3 1 1.6.6.3 1-.1 1-.9 0-.9-.4-1.6-1-1.6-.5 0-1 .4-1 .9zM110.5 350c-.3.5.1 1 .9 1 .9 0 1.6-.5 1.6-1 0-.6-.4-1-.9-1-.6 0-1.3.4-1.6 1zM142 339.5c0 .8.5 1.5 1 1.5.6 0 1-.7 1-1.5s-.4-1.5-1-1.5c-.5 0-1 .7-1 1.5zM257 390.5c-.6.8-2.1 1.5-3.2 1.7-4.2.6-2.9 2.7 3.3 5.7 3.5 1.6 6.6 2.8 7.1 2.5 1.5-.9.8-3.3-1.2-4.4-2.8-1.5-2.5-3.2.4-2.4 2.7.7 6.9-1.2 6.4-2.8-.6-1.7-11.4-2-12.8-.3zM283 391.4c-1.2 3.2-5.8 4.1-7.9 1.5-1.5-1.8-1.8-1.8-3.8-.4-1.3.9-2.3 2.3-2.3 3.1 0 1.8 4.4 3.6 7.3 3 1.2-.3 3.4-.7 4.9-1 3.6-.8 6.7-4.2 6.1-6.7-.7-2.6-3.2-2.4-4.3.5zM283.7 402.7c-1.2 1.1-.8 2.1 1.3 2.6 1.3.3 2 1.4 2 2.8 0 2.2.1 2.2 1.7.7 1.4-1.4 1.5-2.2.5-4.3-1.1-2.3-4-3.3-5.5-1.8zM248 407.4c0 1.9 1.4 2.8 3.4 2 1.3-.5 1.4-.9.5-2-1.5-1.8-3.9-1.8-3.9 0zM203.6 401.6c-.3.8.3 4.1 1.4 7.2 1.2 3.1 2.5 7.2 3.1 8.9 1 3.2 2.3 4.2 3.3 2.5.2-.4-.6-3.9-1.9-7.7-1.3-3.9-2.4-8.2-2.5-9.8 0-2.9-2.4-3.8-3.4-1.1zM197 403.9c0 1 .7 3.8 1.6 6.2.8 2.4 2 7.3 2.5 10.9 1.3 9.1 2.8 13.5 4.2 12.1.8-.8.8-2.4-.1-5.8-1.2-5.1-2.7-16-2.5-18.1 0-.6-.3-1.2-.7-1.2-.4 0-1.3-1.4-1.9-3-1.1-3.3-3.1-4-3.1-1.1zM174 424.5c-.8 1-.2 2 2.7 4.4 4.2 3.5 6.5 2.8 4.4-1.3-1.8-3.2-5.6-4.9-7.1-3.1zM183.9 438c-1.9 1.3 0 4.4 3 4.8 1.6.3 2.1-.2 2.1-1.7 0-2.5-3-4.3-5.1-3.1zM198.5 446.4c-1 .7-1.5 1.8-1.1 2.5.5.8 1.2.9 1.9.3.7-.6 2.1-1.2 3.2-1.4 2-.4 2-.4-.1-1.6-1.7-.9-2.5-.8-3.9.2zM188.6 447.9c-1.8 2-1.5 4.1.6 4.1.6 0 2 .7 3 1.7 2.6 2.4 6.3 2.5 8.4.2 1.4-1.5 1.4-1.9.3-1.9-.8 0-2.1.6-2.8 1.2-1.1 1.1-1.4 1-1.8 0-.3-.7-1.8-1.9-3.4-2.7-1.8-1-2.6-2-2.3-3 .8-2 .1-1.9-2 .4zM353 555c0 .6.7 2.1 1.5 3.3 2.9 4.4 4.5 12.2 4.5 21.4 0 8.6.8 11.1 2.6 8.1 1.1-1.7.6-19.5-.7-24.2-1.3-4.9-4.5-9.6-6.5-9.6-.8 0-1.4.5-1.4 1zM356.6 596.7c-.3 1-1 8.5-1.6 16.8-.6 8.2-1.5 16.3-2 17.9-.6 1.6-1 6.3-1 10.5-.1 4.2-.5 9.6-1.1 12.1-1.4 6.1-3 67-1.8 67 2.9 0 4.1-11.8 3.9-38.5 0-8.3.4-19.1.9-24 .6-5 2-18.7 3.1-30.5s2.5-23.4 3-25.7c.5-2.3.7-4.9.4-5.8-.8-2-3.1-1.9-3.8.2z"/><path d="M354.4 682.4c-.3.8-.1 3.9.5 6.8.5 3 1.3 12.8 1.7 21.8.6 14.9.9 16.5 3 18.9 2.1 2.4 2.3 2.4 3 .8.3-1 .2-2.3-.5-3-.6-.6-1.1-4.4-1.1-8.6-.1-11.5-1.8-31.2-3.1-34.9-1.2-3.4-2.6-4.1-3.5-1.8zM347 740c0 .5.8 1.8 1.8 2.8 4.6 4.6 6.2 8 6.2 13.4 0 4.9.3 5.7 3.8 9 4.1 4 11.8 8.2 13.2 7.3 1.9-1.1-.4-3.6-5.1-5.6-5.6-2.5-7.9-5.4-7.9-10.4 0-4.5-2.2-8.9-6.8-13.8-3.6-3.7-5.2-4.6-5.2-2.7zM376 746.9c0 1 2.4 3.1 5.4 4.6 1.2.6 2.8 3 3.8 6 2 6 4.8 7.4 4.8 2.3 0-4.1-4-10.2-8-12.3-3.2-1.7-6-2-6-.6zM182.2 567.1c-2.9 1.1-2.9 2.9.1 2.9 1.2 0 2.9.4 3.7 1 1.2.7 1.1 1-.5 1.5-7.7 2.5-8.2 3.7-2.6 5.4 4.4 1.3 9.1.1 9.1-2.3 0-.8.2-2 .5-2.8 1.2-3.4-5.8-7.3-10.3-5.7zM206.3 568c-1.8 1.1-3.3 2.7-3.3 3.5 0 1.9 1.4 1.9 3 0 .6-.7 3.2-1.7 5.6-2.1 2.7-.4 4.3-1.1 4.1-1.8-.6-1.9-6.1-1.7-9.4.4zM206.7 572.7c-2.6.7-1.7 3.6 1.4 4.7 2.7.9 6.2.4 8.8-1.3 1.2-.8 1.2-1.2.2-2.5-1.3-1.5-6.3-2-10.4-.9zM201.1 584.9c-.7.5-2.2.6-3.2.4-1-.3-2.6-.2-3.5.1-1.3.5-1.4.9-.4 2.1 1.7 2.1 8.9 2 9.7-.1.7-2-.8-3.6-2.6-2.5zM195.4 591.9c-.5.3-1.7 1.6-2.7 2.8l-1.9 2.1 9.3-.1c9.6-.2 12.4-1.5 7.2-3.5-3.6-1.3-10.8-2.2-11.9-1.3zM198.7 598.6c-1.4 1.4-.7 2.5 1.3 2.2 1.2-.2 2.1-.8 2.1-1.3 0-1.2-2.4-1.8-3.4-.9zM329.6 610.6c-.5 1.4-.4 1.5.9.4 1.7-1.4 1.9-2 .6-2-.5 0-1.2.7-1.5 1.6zM132.6 651.9c-.4.7-.5 1.5-.2 1.8.9.9 1.9-.4 1.4-1.8-.4-1.1-.6-1.1-1.2 0zM136.6 719.9c-.7 1.1 1.1 2.6 4.2 3.5 3.6 1.2 2.7 3.6-1.2 3.6-4.3 0-5.3 1.4-2.5 3.3 2.9 2.1 2.1 4.9-1.8 5.9-3.6.9-6.3 4.1-6.3 7.5 0 3.1 2.4 2.9 3.8-.2.7-1.4 2.4-3.1 3.9-3.7 4.2-1.8 7.3-4.9 7.3-7.3 0-1.2.9-3 2-4 2.7-2.5 2.5-5-.6-7.4-2.7-2.1-7.8-2.8-8.8-1.2zM237.1 722.7c-3.7 1.8-3.9 3.8-1 8.7 1.5 2.5 2.8 3.6 4.5 3.6 2.7 0 3.1-1.2.9-3-2-1.7-1.9-3.6.5-6 1.1-1.1 2-2.4 2-2.9 0-1.7-3.8-1.9-6.9-.4zM181.7 643.2c-1.4 1.1-1.5 1.7-.4 3.8 1.4 2.8 5.2 3.4 5.2.9 0-.9.6-2.3 1.3-3.1.6-.8.9-1.8.5-2.1-1.1-1.1-4.8-.8-6.6.5zM176.7 664.6c-1.4 1.4-.7 2.5 1.3 2.2 1.2-.2 2.1-.8 2.1-1.3 0-1.2-2.4-1.8-3.4-.9zM230.5 663.3c-2.4 1.8-1.1 4.1 1.6 2.7 1-.6 1.9-1.7 1.9-2.5 0-1.9-1.1-1.9-3.5-.2zM184.1 725.9c-3.7 1-3.8 3.1-.2 3.1 3.7 0 8.1-1.6 8.1-3 0-1.1-4.1-1.2-7.9-.1zM174.1 742.4c-1 1.2-.8 1.7.8 2.5 2.2 1.2 3.7 0 2.7-2.4-.7-1.9-2-1.9-3.5-.1zM154.8 747.9c-3.2 2.8-3.2 2.9-1.4 5.5 2.3 3.5 5.2 3.1 4.8-.7-.4-3.4 1.1-3.5 3.3-.1 1.3 2 1.9 2.3 3.1 1.3 2.1-1.7 1.7-4.2-.9-6.7-3.1-2.9-5-2.8-8.9.7zM170.4 769.1c-.3.6-.2 1.5.3 2 1.3 1.3 4.3.1 4.3-1.7 0-1.6-3.6-1.9-4.6-.3zM162.5 771.3c-2.8 2.1-1.1 3.6 3.1 2.7 4.1-1 4.8-1.5 3.9-2.9-.9-1.5-4.8-1.4-7 .2zM162.7 777.8c-3.5 3.8-.9 7.6 4.3 6.2 2.1-.5 2.5-1.2 2.5-4 0-3-.4-3.5-2.6-3.8-1.5-.2-3.2.5-4.2 1.6zM217.2 743.6c-3 2-3.1 7.4-.2 7.4 1.1 0 2-.6 2-1.4 0-.8.5-1.8 1-2.1.7-.4.9.2.4 1.9-.7 2.9.9 3.4 3.9 1.2 2-1.6 2.2-4.4.3-6.9-1.6-2.1-4.5-2.2-7.4-.1zM216.4 777.4c-1.6 4.2 1.5 6.8 5 4.3 2.6-1.9 1.3-5.7-2-5.7-1.4 0-2.7.6-3 1.4zM169.5 135.2c-1.6.6-3.9 1.9-5.1 2.9-1.1 1.1-2.6 1.9-3.3 1.9-.8 0-2.9 1-4.8 2.1-2.6 1.7-3.3 2.7-2.9 4.2.3 1.2 0 2.7-.6 3.4-1.8 2.2-.1 2.6 3.1.7 2-1.2 3.1-2.6 3.1-4 0-2.8 2.9-4 4.5-1.8.9 1.4 1.6 1.4 3.3.5 1.2-.6 2.2-1.9 2.2-2.9 0-3.8 1.7-4.7 8.7-4.7 5.4 0 6.8-.3 6.8-1.5 0-1.9-10.4-2.4-15-.8zM191 221.5c-1.6 2-.4 3.5 2.8 3.3 3.8-.2 4.3-.7 3.2-2.9-1.3-2.3-4.3-2.5-6-.4zM172.7 224.7c-1.4 1.4-.7 3.5.9 2.9 1-.4 2.5.1 3.5 1 1.7 1.6 1.9 1.6 2.5 0 .3-.9.1-2.3-.6-3.1-1.3-1.5-5.1-2-6.3-.8zM132 226c0 .5.5 1 1 1 .6 0 1-.5 1-1 0-.6-.4-1-1-1-.5 0-1 .4-1 1zM136.5 229.2c-2.7 1.5-3.6 3.1-2.5 4.2.6.6 1.5.4 2.4-.3 1-.8 1.6-.9 2.1-.1 1 1.6 2.5 1.2 2.5-.9 0-2.8-2.1-4.2-4.5-2.9zM8.8 500.8c-3.1.4-8.8 5.5-8.8 7.8 0 1 1.5.3 4.6-2.1 5.3-4 9.8-4.6 14.4-1.8 2.6 1.5 3 1.5 5.4 0 1.4-.9 3.3-1.4 4.2-1 1.2.4 1.5.2 1.2-.8-.5-1.7-6.6-2.5-8.1-1-.6.6-1.7.7-2.6.2-2.3-1.2-7.1-1.8-10.3-1.3zM461.4 534.9c-2.2 1.5-4.7 3.9-5.6 5.3-.9 1.4-3 2.8-4.6 3.1-5.7 1.2-12 8.4-10.6 12.2.8 2.1 3.4 1.9 3.4-.3 0-2.1 4.2-6.8 6.9-7.7 1.1-.3 2.9-.2 3.9.4 2.2 1.2 4.2-.3 4.2-3.2 0-2.3 6.7-8.5 10-9.2 1.4-.3 5.6-.1 9.3.4 5.5.8 7.7 1.6 11.1 4.5 3.8 3.1 9.6 5.7 9.6 4.3 0-.3-1.8-2.4-4-4.6-5.9-6-11.6-8.1-21.5-8.1-7.4 0-8.6.3-12.1 2.9zM453 747.6c0 1.3 8.9 5.8 9.7 5 1.2-1.1-3-4.5-6.5-5.2-1.7-.4-3.2-.3-3.2.2zM9.5 772.3c-.3.7-2.5 2.8-5 4.7-3.3 2.6-4.4 4.2-4.5 6.3v2.7l5.4-4.2c5.4-4.3 8.1-8.1 7.1-9.9-.9-1.3-2.5-1.1-3 .4zM476.3 791.6c-1.7 1.3-1.7 1.5.1 2.9 2.1 1.6 5.6.4 5.6-1.9 0-2-3.6-2.6-5.7-1zM376.7 831c-4.8.9-6.8 2.7-4.1 3.5 4.8 1.6 4.9 1.7 5.2 13.8.3 11.4.2 11.6-2.3 13.3-3.3 2.2-2.3 3.4 2.9 3.4 6.2 0 7.5-1.4 8.2-9 .7-8 1.8-9.3 4.1-5 1 1.8 3.6 6 5.8 9.4 4.2 6.4 4.9 6.7 12.3 5.1 2.6-.6 3-3.5.5-3.5-2.7-.1-6.8-4-9.2-8.8-2.2-4.2-2.1-6.2.2-6.2 1.9 0 6.7-4.9 6.7-6.9 0-3.3-2.1-8-3.9-8.6-2.9-.9-22.4-1.3-26.4-.5zm17.1 4.6c1.8.5 2.2 1.3 2.2 4.5 0 4.6-1 5.4-5.5 3.9-2.7-.9-3.5-1.7-3.5-3.5 0-2.2 2.3-5.5 3.8-5.5.4 0 1.7.3 3 .6zM21.6 832.5c-5.5 1.5-9.3 4.6-11.2 9.2-2.1 4.9-1.7 7.9 1.7 14.4 2.5 4.6 4.1 6.3 7.5 7.9 2.4 1.2 5.8 2.1 7.6 2 7.1-.4 8.5 0 9.6 2.5.7 1.4 2.4 3.1 3.9 3.7 1.6.7 3.6 1.8 4.5 2.6 1.3 1.1 3.4 1.3 7.9.9 7.7-.7 10.6-3 5.3-4.2-10.7-2.5-13.8-4.1-14.9-7.6-.5-1.4 0-2.8 1.4-4.3 1.1-1.2 2.7-4.2 3.6-6.6 3-8.5-.6-17.5-8.2-20.6-4-1.7-12.2-1.7-18.7.1zm13.9 6.6c3.2 2.9 3.5 3.5 3.5 8.9 0 8.3-2.3 11-9.6 11-4.5 0-5.9-.4-7.9-2.5-4.7-4.6-2.7-15.7 3.3-18.9 4.1-2.3 6.8-1.9 10.7 1.5zM261.7 832.1c-5.6 1.3-8.6 3.7-9.8 7.9-1.5 5 .3 8.9 5.5 11.4 3.3 1.6 4.4 1.7 7.1.7 1.7-.6 4.1-1.1 5.3-1.1 2 0 2.2.5 2.2 5.4 0 4.7-.3 5.6-2.1 6.1-3.4 1.1-8.4-.3-12.4-3.5-2.1-1.7-4.3-3-4.9-3-2.6 0-4.8 2.7-4.9 6l-.2 3.5 4.8.1c2.6 0 7.1.7 10.1 1.4 4.7 1.1 6 1 10.6-.5 10.3-3.4 12.4-8.6 6.8-16.2-3.7-4.9-5.9-5.8-12.4-5-4.2.4-4.6.3-5.5-2.1-1.4-3.6-.6-4.9 3.4-5.4 2.6-.3 3.8.1 4.6 1.4.6 1 2 1.8 3.1 1.8 1.7 0 2-.7 2-4 0-3.7-.2-4-3.7-4.9-4.3-1.2-4.4-1.2-9.6 0zM300.6 831.7c-1.1 1.1-.6 2.3.8 2.3 1.8 0 6.6 6.1 6.6 8.3 0 .9-1 3.5-2.2 5.8-2 3.8-2.2 4-3.5 2.3-1.8-2.4-5.4-12.3-5.6-15.4-.2-2.3-.6-2.5-6.3-2.8-6.2-.3-11.4 1-11.4 2.8 0 .5 1.5 1 3.4 1 2.9 0 3.5.5 4.7 3.2 2.8 7.2 10.2 22.4 11.7 24 .8 1 2.6 1.8 4 1.8 1.9 0 2.3-.4 1.9-2-.5-1.9 5.7-15 7.2-15 .4 0 2.1 2.8 3.9 6.2 4.7 9 5.6 10 8.7 9.6 2.5-.3 3-1.2 5.5-8.3 3.4-10.2 7.9-20.1 9.6-21.6 2.7-2.2 1.4-2.9-5.2-2.9-4.8 0-6.5.3-6.2 1.2.3.7 1.7 1.4 3.2 1.6 1.5.2 2.6.6 2.4 1-3.3 6.9-6.8 14.6-7.3 16.2-.3 1.1-1 2-1.4 2-.3 0-2.4-3.3-4.6-7.4-3.4-6.6-3.8-7.7-2.7-10 .6-1.4 1.8-2.6 2.7-2.6.8 0 1.5-.4 1.5-.9 0-1-20.4-1.3-21.4-.4z"/><path d="M349.3 831.9c-6.7 1.2-11.1 8-11.2 17.6-.2 9.7 5.6 14.5 17.3 14.5 8.2 0 13.3-2.9 16.4-9.1 2-4.1 2.2-5.2 1.2-9.5-1.6-7.7-3.1-10.4-6.3-12-3.5-1.9-11.6-2.6-17.4-1.5zm9.7 4.7c2.2.9 4 1.7 4 1.8 0 .1.5 2.8 1 5.9 1 4.9.8 6.1-1 9.6-2.2 4.3-6 6.2-8.9 4.4-3.9-2.4-5.6-6.4-5.6-12.6.1-10.3 2.4-12.3 10.5-9.1zM412.5 832.1c-.4.6.3 1.8 1.5 2.6 2.2 1.5 2.2 2 1.8 13.9-.3 7.5-1 12.9-1.7 13.8-.8 1-.9 1.6-.1 2.1 1.9 1.2 20.4-.6 24-2.3 9.2-4.5 11.7-19.8 4.3-26.4-3.5-3.2-10.2-4.8-19.9-4.8-5.6 0-9.5.4-9.9 1.1zm18.3 3.9c1.3 0 3.5 1.2 4.9 2.6 2.4 2.4 2.5 3 2 9.4-.3 3.8-1.1 7.8-1.7 8.9-2.2 4.2-11.1 6.8-12.4 3.6-.7-1.9-.7-23.6.1-24.8.3-.5 1.5-.6 2.7-.3 1.1.3 3.1.6 4.4.6z"/><path d="M457.7 831.8c-1.8.2-3.5 1.4-4.8 3.5-2.6 4.4-2.4 8.3.6 11.2 2.1 2.2 3.3 2.5 10 2.5h7.5v4.8c0 7.8-3.1 9.2-9 4.2-1.9-1.7-4.4-3-5.6-3-2.3 0-11.6 6.9-10.8 8.1.2.4 6.9.6 14.8.5 11.3-.3 14.8-.7 16.8-2 5.1-3.4 4.4-12.7-1.3-16-2.4-1.4-4.2-1.6-8.9-1.1l-5.8.7-.4-4.7c-.2-2.6 0-4.9.5-5.2 1.6-1 9.5.8 10.1 2.2.9 2.3 4.3 1.8 5-.8 1.4-5.2 1.2-5.3-7.6-5.3-4.6 0-9.6.1-11.1.4zM52.1 832.9c-1.7 1.1-.5 3.1 1.9 3.1 1.7 0 1.8.8 1.8 8.7-.1 9 1.9 18 4.6 20.2 1.9 1.6 13.8 1.7 17.4.2 2.8-1.2 3.4-1.1 5.8.8 3.2 2.5 6.1 2.7 9.3.5 2.7-1.9 1.8-3.2-2.7-3.8-1.8-.2-3.5-.5-3.7-.7-.2-.2-.5-5.7-.6-12.2-.2-10.6-.1-11.9 1.7-13.1 2.6-2 1.1-3.3-4.6-4.1-3.4-.5-5-.2-6.5 1-1.2 1-1.6 1.8-.9 2.1 4 1.7 4.6 3.1 5.1 11.7.5 8.2.4 8.9-1.7 11.2-3.3 3.5-9.3 3.5-11.6 0-3.3-5-4.9-20-2.4-23 .6-.8.9-1.9.5-2.5-.8-1.2-11.4-1.3-13.4-.1zM104.5 832.9l-6 .6-.1 16.5c-.1 10.8.2 16.7.9 17.2 1.1.6 9.6.3 15.3-.7 3-.5 5.4-3.6 5.4-7 0-2.2-2.8-1.8-5.3.8-1.5 1.6-3.2 2.3-5.2 2.2-2.9-.2-3-.3-3.3-6-.4-7.1.8-8.7 3.9-5.1 3.3 3.7 4.9 3.3 4.9-1.2 0-4.9-1.4-6.4-4.6-5-3 1.4-3.2 1.2-4-3.9-.5-3.6-.3-4.3 1.6-5.3 2.7-1.4 5 .2 5 3.5 0 2.4 1.6 3.5 3.8 2.8 1.5-.6 1.6-7.5 0-9.1-1.2-1.2-2.2-1.3-12.3-.3zM176.1 832.8c-1.8.6-1.3 2.9.9 3.5 1.8.5 2 1.4 2 8.1 0 8.1-.8 9.3-3 4.8-.8-1.5-2.4-4.1-3.6-5.8-1.5-2.1-2.1-3.9-1.7-5.4.5-1.9.3-2.2-1-1.7-1 .4-2.4-.2-3.6-1.4-1.6-1.7-2.9-1.9-9.7-1.7-6.2.2-7.9.6-7.9 1.8 0 .9 1.2 1.7 3 2l3 .5-.3 12.5c-.3 11.9-.4 12.6-2.7 14.5-1.4 1.2-2.5 2.4-2.5 2.9 0 .8 13.1-.2 14-1.1.3-.2-.3-1-1.3-1.7-1.4-1.1-1.7-2.9-1.7-11 0-5.3.3-9.6.8-9.5.4 0 4 4.7 8.1 10.5 8.2 11.7 10.8 13.7 14.9 11.3 3-1.6 3-1.6 1.6-18.6l-.6-8.1 3.2-1.7c2-1 3-2.2 2.8-3.3-.3-1.4-1.5-1.7-6.9-1.7-3.6-.1-7.1.1-7.8.3zM126.5 834c-.6 1-.9 30.9-.3 31.5.2.1 4.2.5 9 .8l8.7.5 2.1-3.5c3.2-5.5 1.2-7-3.8-2.8-1.7 1.4-4.1 2.5-5.4 2.5-2.3 0-2.5-.4-2.6-5.5-.1-5.8 1.1-7.8 3.2-5 1 1.4 1.7 1.5 3.3.7 1.5-.8 1.9-1.8 1.5-4.2-.6-3.9-2.6-4.8-5.3-2.4-2 1.8-2 1.8-1.7-4.1.2-4.8.7-6 2.1-6.3 1.2-.3 2.1.6 2.8 2.8.8 2.1 1.6 2.9 2.6 2.6.8-.3 1.9-.6 2.5-.6 1.4 0 .1-6.2-1.5-7.2-1.8-1.1-16.5-1-17.2.2zM221.4 838.4c-1.7.8-3.4 2-3.7 2.8-.9 2.4 2.7 9.1 7.2 13.6 6.4 6.3 8 13.5 4.1 18.5-2.8 3.5-2.5 4.9.7 4.5 3.4-.4 7.3-5.9 7.3-10.3 0-1.8-.7-5.1-1.5-7.4-1.4-4.1-1.4-4.1 1-4.1 4 0 3.2-3.5-1.5-6.6-3.3-2.2-4.3-2.4-5.5-1.4-.8.7-1.2 1.7-.8 2.3.3.6.1.7-.6.3-.6-.4-2-2.5-3.2-4.7l-2-4 3.4.6c3.9.8 5.2-.4 4.2-3.5-.8-2.4-4.4-2.6-9.1-.6z"/><path d="M208.3 851.6c-3.8 1.9-4.7 4.1-3.3 8 2.6 6.7 6.9 8.7 13.8 6.3 3.6-1.2 4.7-3.7 3.7-8.5-1.3-6.9-7.1-9.3-14.2-5.8zm7.5 3.6c.5.7 1.3 2.4 1.7 3.7 1.4 4.6-4.1 4.6-6.5 0-1.9-3.5 2.3-6.7 4.8-3.7zM485.2 859.1c-1.7.6-2.2 1.5-2 3.1.2 1.9.9 2.3 3.8 2.3s3.6-.4 3.8-2.4c.2-1.3-.2-2.8-1-3.2-1.6-1-1.7-1-4.6.2z"/></svg>