<svg version="1" xmlns="http://www.w3.org/2000/svg" width="666.667" height="1170.667" viewBox="0 0 500 878"><path d="M257.8 15.5c-.3.3-6.8.7-14.4.8-11.1.3-13.9.6-13.9 1.8 0 .8 1.5 1.6 3.9 2 2.8.5 4.7 1.6 6.7 4 5 6.1 5.4 7.5 3.3 10.5-1 1.4-3.1 4.5-4.5 6.8-2.4 3.9-2.8 4.1-7.4 4.1-3.9 0-5 .4-5.3 1.7-.3 1.5.4 1.8 3.5 1.9 2.1.1 4 .1 4.3.1.3 0 9.7-.4 20.8-.8 17.8-.6 20.3-.9 20-2.3-.3-1.3-1.4-1.5-6-1.3l-5.6.4-4.1-5.6c-2.3-3-4.1-6.1-4.1-6.8 0-.7 1.7-3.8 3.8-6.8 3.4-5.1 4.1-5.5 8.2-6 3.1-.3 4.6-1 4.8-2.1.2-1.2-.8-1.8-4.4-2.3-5.7-.7-8.9-.8-9.6-.1zm-2.8 4.7c-.1.7-1.2 2.6-2.6 4.3l-2.5 3-2.5-2.9c-2.5-2.8-2.5-3-.8-4.3 2.3-1.7 8.4-1.7 8.4-.1zm-1.5 21.4c.9 1.4 1.5 2.7 1.3 2.8-.9.8-8.8 1.3-8.8.6 0-2.3 2.5-6 4-6 1 0 2.5 1.2 3.5 2.6z"/><path d="M454.9 28.2c-2.2 2.3-4 3.2-5.6 3-3.2-.5-6.3 2.4-6.3 5.8 0 2.7 2 5.2 5.3 6.3.9.4 1.7 1.7 1.7 3s.5 2.8 1.2 3.5c1.9 1.9-.9 4.2-5.2 4.2-5.4 0-7.9 4.3-9.2 15.8-.8 7.7-4.3 23.4-6.3 28.5-.5 1.2-1.6 1.7-3.4 1.5-2.5-.3-2.6-.6-2.9-6.6-.3-5.6-.1-6.2 1.7-6.2 1.1 0 2.9-1.4 4.1-3 2.7-3.8 2.3-7.4-.7-7.8-2-.3-2.3-.9-2.3-5.1 0-5.9-2.8-9.3-5.7-7-3.1 2.3-4.3 4.2-4.3 7 0 2-.7 3-3.1 3.9-4.2 1.8-6.4 5.2-4.9 7.9 1.1 2.1 3 2.8 8.5 3.3 2 .2 2.9.8 2.7 1.8-.2.8-.4 3.8-.4 6.7-.2 5 .1 5.5 4.1 9.3 3.1 2.7 4.2 4.5 3.8 5.7-.3 1-4.8 15.3-10 31.8-9.5 30.2-18.4 57.3-32.9 100.5-4.3 12.9-10.6 32.9-13.9 44.5-7.3 25.5-13.7 45.3-15 46.1-.6.3-1.7 0-2.5-.7-2.1-1.7-1.7-5 4.2-34.9 3.2-16.2 4.1-20.5 5.4-26.8 2.5-11 6.3-36.2 6.5-42.2.2-3.6 1.2-11.2 2.3-17 1.1-5.8 3-15.5 4.1-21.5 2.9-15.6 3.6-18 4.6-18 1.9 0 3.6-1.7 4.6-4.3l1-2.6 1.2 2.4c1.7 3.3 6.4 4.7 8.5 2.6 1.3-1.3 1.4-2.1.5-4.5-1-2.7-.8-3.2 1.9-5.7 3.9-3.8 3.5-7-.9-6.7-1.8.2-3.5-.2-3.8-.7-1-1.7-4.3-1.1-7 1.2-1.9 1.8-2.8 3.8-3.6 8.8-.9 5.9-2.2 9.1-3.3 7.9-1-1.1 4.5-30.9 7.4-39.9 2.6-8.2 4.1-14.7 4.5-20.4.5-5.6 2.2-15 4.5-23.7 1.3-4.8 1.2-8.3-.2-13.1-.9-3.1-1.7-4-4-4.5-2.1-.4-2.8-1.1-2.8-2.8 0-1.2-.7-2.8-1.5-3.5-.9-.8-1.5-3-1.5-5.7 0-4.2.1-4.5 2.3-3.8 8.9 2.7 10.8 2.8 13.3.4 2.8-2.7 3-4.7.7-6.5-1.7-1.3-1.6-1.5 1-3.5 4.2-3.2 5.1-5.6 3.3-8.4-1.4-2.1-2-2.3-4.3-1.4-3 1.1-4 .4-4.5-3.1-.5-3.7-3.9-3.7-8.2 0-2.6 2.3-3.6 4-3.6 6.1 0 3.3-1.5 3.7-4.2 1.2-2.4-2.1-4.8-.9-6.3 3.2-.9 2.4-.6 3 2.5 5.8 3.2 2.8 3.5 3.6 3.5 8.7 0 3 .4 6.3.9 7.2.6 1.3.2 1.7-2 2-5.4.6-9.6 10.5-6.8 16 1.2 2.3 1.2 3.2.2 5.1-.7 1.2-1.5 5.1-1.8 8.7l-.5 6.4-3.3.2c-1.8.1-3.5-.3-3.8-.8-.3-.5 0-3.1.6-5.8 1.6-6.5.7-9.2-2.8-8.8-2.3.3-2.8.9-3.6 5-.8 4.4-1.2 4.8-3.7 4.8-4.5 0-5 3.7-.9 7.1 2.8 2.4 3 3 2 4.9-1.4 2.5.1 5 3.1 5 2.8 0 6.1-3.7 5.4-6-.9-2.7 1.1-3.4 3.5-1 2.3 2.3 2.4 3.6.9 10-.6 2.5-1.1 6.1-1 8 0 1.9-.5 5.2-1 7.3-.6 2.1-1.6 9.1-2.4 15.5-1.8 15.3-5.4 37-8 48.2-1.6 7.2-4.5 26.8-7.6 52-2 16.7-3.4 24.7-6.3 35.4-.9 3.2-2.3 9.3-3 13.5-3.6 19.4-5.8 30.8-6.2 32.8-.7 3.6-2.6 2.7-1.9-1 .3-1.7.9-15.5 1.5-30.6.6-15 1.2-27.6 1.5-28 1.3-2.3 2.5-20.6 2.5-42.1.1-30.2.3-31 4.3-33 3-1.5 4-2.7 5.1-6.3.6-1.8.7-1.7 3.2.2 5 3.9 7.1 2.3 5.3-3.9-1.2-3.8-1.1-4.2 1-5.6 2.9-2.1 2.6-7.8-.4-8.2-1.1-.1-2.8-1.6-3.7-3.2-3.7-6.5-7.3-2.1-6.5 7.9.4 5.8.2 7.2-2.2 11.5-1.4 2.7-3.1 5.1-3.7 5.3-1.3.4-.9-31.3.7-43.8.6-4.8 1-11.7.9-15.5-.2-3.8.1-11.6.5-17.4.7-8.8 1.2-11.3 3.6-15.6 3.3-5.8 3.6-10.1 1.2-15.1-2.3-4.9-6.8-7.5-11.5-6.7-3.4.5-3.8.3-4.3-1.9-1.1-4.4-.2-6.2 3.1-6.5 4.3-.4 10.2-6.5 8.5-8.6-.9-1.1-1-2-.2-3.5 1.8-3.2 1.3-6.9-1.1-8.5-1.9-1.4-2.4-1.4-3.8-.1-2.3 2.1-3.5 1.9-4.8-1-.6-1.4-1.6-2.5-2.1-2.5-1.7 0-3.5 3.2-4.1 7.3-.4 3.6-.8 4.2-2.7 3.9-3-.4-6.3 1.5-6.3 3.6s1.8 4.2 3.6 4.2c.7 0 2.4.4 3.8 1 2.3.8 2.4 1.2 1.4 4.1-.8 2.3-.7 4 .2 6.8 1.1 3.5 1.1 4-1.4 6.4-3.5 3.5-4.3 7.3-2.2 11.1 2.4 4.6 1 11.1-2.4 11.1-2.1 0-2.5.5-2.5 2.9-.1 3.7-2.1 4.4-4.6 1.7-1.1-1.2-2.6-2.1-3.4-2.1-2.1 0-2 6.4.1 9.5 1.4 2.2 1.4 2.6 0 4.7-2 2.8-2.1 6.7-.2 7.4 1.6.6 4.6-.8 7.1-3.2.9-.9 1.9-1.3 2.3-.9 3.4 3.3 2.3 107.8-1.7 157.5-.6 6.9-1.3 16.4-1.6 21.1-.4 4.7-1 9-1.4 9.7-.5.8-2.1.9-5.1.4l-4.5-.8-.1-20.9c-.1-11.6-.4-28-.8-36.5-.8-21-.9-81.6-.1-82.9 1.1-1.9 4.2-1.2 5.9 1.5 1.9 2.8 5.2 3 7 .2.8-1.3.6-2.2-.8-3.7-1.8-2-1.8-2.1.2-3.8 2.5-2.1 4.1-7.3 2.2-7.3-.6 0-2 .5-3.1 1-1.6.9-2.1.7-2.9-1.5-1.9-4.9-5.9-2.3-6.4 4.1-.2 2.2-.4 4.5-.5 5.1 0 .7-.8 1.3-1.6 1.3-1.2 0-1.5-1.6-1.6-8.3 0-4.5-.2-9.3-.4-10.7-.7-5.3-.4-40.8.3-47 .6-3.9.5-8-.1-10.5-1.1-4.2-6.3-11.8-9.7-14.2-1.1-.8-2-2.2-2-3.2 0-1.3.7-1.6 3.3-1.3 4.4.5 9.2-3.1 7.7-5.8-.5-1-.7-3.8-.4-6.2.5-3.4.2-4.7-1-5.7-1.3-1.1-2-1.1-2.8-.3-.7.7-2 1.2-3.1 1.2-1.6 0-1.8-.5-1.2-4 1.4-8.2-3.6-8.7-7-.8-2.2 4.9-3.1 5.8-6.1 5.8-2.4 0-6.4 3.9-6.4 6.2 0 1 1.3 1.8 3.5 2.2 3.7.7 4.1 1.5 2.4 4.8-1.6 3 1 5.5 4.1 3.8 1.6-.9 2.5-.9 3.3-.1.9.9.2 2.1-2.6 4.6-2 1.9-4.2 4.6-4.7 6-1.3 3.4-1.3 10.1.1 12.6.5 1.1 1.3 6.7 1.6 12.4.4 8.8.3 10.5-.9 10.5-2.5 0-2.8-1.1-1.2-4.2 1.8-3.4.9-5-2.7-5.2-1.6-.1-2.5-1.1-3.4-3.6-1.2-3.7-4.2-5.2-5.6-2.8-1.4 2.1-1 7.7.6 10.2 1.4 2.1 1.3 2.4-.5 4.1-4.5 4-1.2 7.6 4.5 4.9 2.4-1.1 4.2-1.3 6.6-.6l3.4.8.3 9.6c.1 5.3-.1 11.8-.7 14.5-.6 3.2-.9 3.9-1 2-.1-3.5-2.4-4.4-6.5-2.4-1.8.8-3.8 1.2-4.6.7-.6-.4-2-.5-3-.3-1.9.5-3-3-3-10.1 0-2.2-.7-7.7-1.5-12-2.3-11.8-4.4-34.3-3.8-40.7.4-4.4.1-6.4-1.6-9.7-2.7-5.3-2.6-6.6.4-8.6 3.6-2.3 6-7.3 4.4-9.2-.7-.8-2-1.2-3.1-.8-1.7.5-1.9.2-1.6-2.3.3-2.4-.1-2.8-2.3-3.1-1.9-.2-3.5.7-6.2 3.8-2.1 2.2-3.7 4.9-3.7 6.1 0 2.9-2.2 1.8-3.1-1.5-1-3.5-4.7-7.6-6.9-7.6-2.4 0-5 3.2-5 6.2 0 1.4-.9 3.3-2 4.3-3.1 2.8-2.5 5.2 1.9 7.4 3.5 1.8 3.9 2.4 4.5 7.3.4 2.9 1.3 7.5 2.1 10.3.7 2.7 1.6 7.4 2 10.2l.6 5.3h-3c-2.5 0-3-.4-3.6-3.8-.4-2-1.4-4.9-2.3-6.5-1.6-2.6-1.5-2.8.6-4.3 1.2-.8 2.2-2.4 2.2-3.4 0-2.3-3.2-4.2-5.4-3.4-1.2.5-1.6 0-1.6-1.9 0-3.6-2.6-6-5.1-4.7-1 .6-1.9 1.5-1.9 2 0 .6-.6 1-1.3 1-.7 0-2.1-2.5-3.1-5.5-1.8-5.7-2.9-6.5-6.7-4.4-1.6.8-2 1.9-1.8 4.7.1 2-.1 5-.5 6.5-.6 2.1-.4 3.3.9 4.7 1.6 1.8 1.5 2-.9 5.7-1.5 2.2-2.6 5.2-2.6 7.1 0 4 2.4 9.9 5.2 12.9 1.6 1.7 1.9 3 1.5 5.3-.4 1.7 0 6.5.8 10.8 1.8 9.2 1.9 14.2.4 14.2-3.8 0-13.9-10.4-13.9-14.2 0-.8 1.8-2.9 4-4.7 2.2-1.7 4-3.9 4-4.7 0-.8-1.3-2.7-2.9-4.2-2-1.8-3.1-3.9-3.3-6.2-.2-2.8-.8-3.6-2.7-3.8-3.5-.5-5.1 2.2-5.1 8.5 0 5.1-.1 5.3-2.4 4.7-1.8-.4-2.8.1-4.5 2.4-4.2 5.9-2.1 8.7 5.9 8 3-.3 3.5 0 4 2.2.7 3.4 5.7 10.5 8.7 12.5 1.4 1 4.3 2.2 6.6 2.9l4 1.1 2.4 11c1.3 6.1 3.9 16.8 5.7 24 1.9 7.1 4.7 18.2 6.2 24.5 1.4 6.3 4.4 18 6.6 26 2.2 8 4.6 17.2 5.4 20.5.8 3.3 2.3 9.2 3.4 13.1 1.1 3.8 2.8 11.5 4 17 1.1 5.4 2.4 11.7 2.9 13.9 1.5 6.1 4.8 21.8 7.3 34.1 2.2 11 2.2 11.2.3 15.3-1 2.3-2.3 4-2.9 3.8-2-.7-5.6-8.2-9.1-19.2-9.4-29.9-21.8-66.1-25.8-75.5-2.4-5.8-5.7-13.9-7.2-18s-4.2-10.4-6-14c-1.8-3.6-3.8-8.3-4.5-10.5-.7-2.2-2.5-6.7-4-10-1.6-3.3-4.2-9.5-6-13.7l-3.2-7.7 3.3-4.1c1.8-2.2 3.5-4 3.8-4 .4 0 1.2.9 1.9 2.1 1.5 2.4 5 2.2 6.6-.4.8-1.3.7-2.4-.6-4.8-1.4-2.3-1.5-3.5-.7-5 1.5-2.9.4-3.8-4.1-3.2-3.5.5-3.9.3-3.4-1.1.3-.9 1.2-1.6 1.9-1.6 1.9 0 2.9-2 1.7-3.2-1.4-1.4-4.9.7-6.7 4.2-1 1.9-1.3 4.3-.9 7.2.4 3.5.1 4.8-1.9 7.2l-2.3 2.9-2.2-5.4c-1.2-3-3.3-9.7-4.8-14.9-1.5-5.6-5.9-16.2-10.6-25.9-9-18.4-11.8-25.8-11.8-31 0-8.4-3.2-13.9-8.3-14.3-3.2-.3-3.5-1.8-.8-3.5 1.9-1.2 4.1-6.9 4.1-10.6 0-2.6-4.6-4.4-7.3-2.8-1.8 1.2-2.3 1.1-4-1.3-2.2-3-4.4-3.3-6.3-.9-2.1 2.8-1.6 6.7 1.2 10.8 3.5 5.2 4.4 7.9 3.3 9.6-1 1.5-1.7.9-4.5-3.7-1.5-2.6-3.7-.9-2.3 1.8.9 1.6.8 1.9-.3 1.6-.7-.3-1.3-1.9-1.3-3.8 0-4.1-2.1-5-3.6-1.6-.9 1.8-.9 3.3-.2 4.8.8 1.7.6 3.2-.6 5.6-1.9 4-.7 6.5 3.3 7 1.8.2 2.6.9 2.6 2.3 0 4.1 4.1 12.3 8.4 16.9 4.3 4.6 7.2 9.7 6.2 10.7-.2.2-2.5-.3-5-1.1-5.6-1.9-8.8-2-10.4-.4-2 2-1.3 4.5 1.9 7.1 2.8 2.1 3 2.6 1.8 4.5-1 1.7-1 2.3 0 3.6.8.9 1.9 1.6 2.6 1.6.7 0 1.8.7 2.5 1.5 2.6 3.2 7.1.5 8.1-5 .9-4.4 2.9-2.1 6.4 7.2 2 5.4 4.7 12.3 6 15.3 1.2 3 3.5 9.3 5.1 14 1.5 4.7 4.7 13 7.2 18.5 2.4 5.5 5.9 13.4 7.7 17.5 1.8 4.1 5.5 12 8.3 17.6 2.8 5.5 7 14.7 9.4 20.5 2.5 5.7 6.8 16.1 9.8 23.1 5.1 12.2 5.4 12.7 7.2 11.1 2.3-2.1 3.6-.9 2 1.8-1.2 1.8-1.1 2.1.7 2.6 2.7.7 2.7 1.8 0 3.7-2.1 1.4-2.1 1.5 5.6 22.8 4.2 11.7 8.7 24 10 27.3 3.1 7.7 3.9 11.1 2.8 11.8-1.4.9-2.9-.5-4.8-4.3-1-1.9-2.9-4.9-4.1-6.6-1.3-1.7-2.4-3.6-2.4-4.3 0-1.8-19.8-42.2-22.4-45.6-3.3-4.3-8.6-14.5-8.6-16.5 0-1.8-4.6-11.2-7.7-15.6-1.1-1.6-7.1-13.2-13.3-25.8-6.2-12.5-12.5-24.2-14-26-1.5-1.7-3.7-5.1-4.9-7.4-2-4-2.1-4.5-.7-6.1.9-1 1.6-3.2 1.6-4.9 0-2.6.7-3.6 3.2-5.2 3.5-2.1 4.8-1.8 4.8 1.1 0 2.1 1.6 2.6 2.3.6.8-2.1-1.3-4.7-3.8-4.7-2.9 0-3-.3-.9-4 1-1.5 1.4-3.5 1-4.5-.5-1.5-.9-1.5-4 .4-4.1 2.6-4.6 2.6-4.6.2 0-4.9-4.1-2.4-4.2 2.6-.1 1.5.9 4.8 2.1 7.1 2.3 4.5 2.5 8.7.4 8.7-1.5 0-25-46.4-29.3-57.8-1.7-4.5-4.7-11.4-6.6-15.4-1.8-3.9-3.4-8.5-3.4-10.2 0-1.6-.4-4-.9-5.3-3.6-9.4-4.5-10.7-7.3-11.7l-3-1.1 2.1-2.6c2.9-3.7 3.8-9.4 1.7-10.9-.9-.7-2.7-1-4-.8-2 .4-2.4 0-3-3.1-.4-1.9-1.1-3.8-1.6-4.1-1.2-.8-5.7 2.5-6.3 4.6-.7 2.4 1.6 12.2 3.5 14.8 1.3 1.8 1.5 2.9.6 4.4-.8 1.6-1.2 1.7-1.9.6-.5-.8-.9-2.6-.9-4.1 0-1.5-.6-3.1-1.3-3.5-.8-.4-2.2-2-3.2-3.6-3.1-4.9-5.9-2.9-4.8 3.6.3 2 .1 3.7-.6 4.1-2 1.3-1.2 4.7 1.8 7.5 2.2 2.1 2.9 3.6 2.9 6.8.1 4.8 2.9 10.9 7.6 16.1 1.9 2 5 6.7 7 10.4l3.6 6.8h-2.4c-3.1 0-5.1 3.2-3.7 5.7.5 1 2 2.7 3.2 3.7l2.3 1.9-2.3 1.1c-2.1.9-2.7.6-5.2-2.3-1.5-1.9-3.9-6.6-5.2-10.5-4.6-13.6-8.9-26.1-10.5-30.6-.8-2.4-2.7-5.6-4.1-7-1.4-1.4-3.9-4-5.5-5.8l-2.9-3.3 1.8-3.3c2.1-3.9 1.6-7.2-1.9-10.9-1.6-1.7-3.1-2.4-4.4-2-1.1.2-3.2-.3-4.7-1.3-2.7-1.8-2.8-1.8-4.7.6-1.6 1.9-1.9 3.5-1.6 7.1.4 4.1.3 4.6-1.4 4.1-3.1-.8-4.9 1.7-4.8 6.7.1 2.5 0 5.5-.2 6.6-.3 1.7.3 2 3.7 2.1 3.7 0 4 .3 5 3.6.5 2 1.7 4.4 2.6 5.4.9 1.1 3.5 5.9 5.8 10.7 3.9 8.2 4.1 9.1 2.9 11.8-1.4 3.1-2.7 3.5-6 1.8-3.9-2.1-8.6.8-7.2 4.4.8 2.2 7.9 5.7 11.3 5.7 2.8 0 3.1.3 2.5 2.4-1.2 4.7 5.8 7.6 9.8 3.9 2.4-2.1 2.7-1.7 7.8 9.8 2.3 5.3 5.9 13 8 17 2.1 4.1 6.6 12.9 9.9 19.7 3.3 6.7 8.3 16.1 11.1 20.7 2.9 4.7 6.6 11.9 8.4 15.9 1.7 4.1 3.7 8.1 4.4 8.9.7.8 3.2 5.3 5.6 9.9 2.3 4.5 6.4 12.1 9 16.8 2.6 4.7 6.5 12.5 8.7 17.4 2.2 4.9 5.6 11.4 7.6 14.4 3.9 6.2 22.8 43.4 26.7 52.7 1.4 3.3 3.7 9.1 5.2 12.9l2.7 7-4.6 3.8c-2.5 2.2-7 7.2-9.9 11.1-2.9 4-8.9 11.3-13.5 16.4-8.5 9.6-12.9 16.9-15.7 26.3-2.7 9.2-9.5 21.9-12.5 23.5-1.5.7-3.4 2.1-4.2 3.1-.7.9-4.7 3.9-8.8 6.6-4.1 2.7-8.3 6.1-9.5 7.6-1.1 1.4-3.2 3.6-4.6 4.7-4.8 3.9-11.2 11.1-16.5 18.7-3 4.2-7.6 9.8-10.1 12.5-2.5 2.6-7.2 8.1-10.4 12.3-3.2 4.1-8.6 10.6-12 14.5-6.8 7.7-10 13.1-10 16.9 0 3 5.2 7.6 8.7 7.6 1.8 0 2.4.4 2 1.4-.3.8-.9 3-1.2 4.9-.6 2.9-.3 3.7 2.1 5.6 1.5 1.2 3.7 2.1 4.8 2 1.2-.1 3.3.3 4.7 1 2.2 1.1 3.1 1 5.7-.3 4.8-2.5 5.4-2.1 4.7 2.7-.5 3.3-.3 4.6.9 5.6.9.7 1.3 1.7 1 2.3-1.2 2 1.6 3.5 5.3 2.9 4.3-.7 11.9 1.3 12.7 3.4.6 1.6-1.6 12.5-4.5 22-1.1 3.8-2.9 11.1-3.8 16-1.2 6.4-3.5 12.8-7.8 22-3.3 7.2-6.3 13.8-6.6 14.7-.4 1-5.1 4-10.5 6.7-9.9 5-16.9 10.7-22.7 18.4-2.5 3.4-3.1 3.7-6.4 3.1-2-.3-4.3-1.4-5.1-2.4-.8-1-2.6-2-4-2.2-2.2-.3-2.6-.9-3.1-5.3-.9-8.6-5.3-16.5-9-16.5-1 0-3.3 1.3-5 2.8-2.9 2.6-3.3 3.6-3.8 10.5-.6 7-.9 7.8-4.3 11.1L.1 695l.1 11.8c.1 13.3.9 15.4 4.5 12.1 2.7-2.6 2.8-3.9.7-9.8-1.7-5-1.1-12.3 1.3-14.3 1.3-1 1.9-.8 3.4 1.1 2.3 2.9 5.4 2.2 4.6-1.1-.3-1.2-.1-3 .4-4 .8-1.5.7-2.4-.4-3.6-2.4-2.8-3-7.6-1.3-11.7 3-7.2 7.4-2.3 8.6 9.5.3 3.6 1.3 7.8 2.2 9.5 2.5 4.8 3 16.3 1 20.5-2.3 4.7-4.7 4.6-4.7-.2 0-2-.3-3.9-.7-4.3-1.2-1.3-3.8 1.6-3.8 4.2 0 1.3-.7 2.6-1.5 2.9-.8.4-1.5 1.2-1.5 1.9 0 .8-2.9 2.3-6.5 3.5L0 725.2v9.7l3.1-.9c5.7-1.7 9.4-4.5 9.1-7-.2-2.2-.1-2.3 6-1.5 8.2 1.1 12.9 1.1 15 .1 1.6-.7 1.8-.3 1.7 3 0 2.2-.8 5.9-1.8 8.4l-1.9 4.5-15.6-.4C.3 740.8 0 740.8 0 742.9c0 2 .6 2.1 9 2.2 5 .1 9.5.3 10 .4.6.1 3.1.3 5.6.4l4.7.1-2.7 2.1c-2.4 1.9-3.9 2.1-14.7 2C.5 749.9 0 750 0 751.9c0 2.2 1.8 2.5 16.5 2.6h5l.3 6.7c.3 6.6.2 6.8-3.6 11C11 780.1 7 786.1 7 788.9c0 3.2 1.1 4.7 6.1 8.4 4.3 3.1 6.9 9.5 6.9 16.9 0 8.2.7 8.3 39 9.8 14.6.5 28.9 1.2 31.8 1.6 4.3.4 5.3.3 5.9-1.2.9-2.4-1.6-6.4-5.2-8.3-1.7-.9-5.5-3.2-8.5-5.1-4.4-2.8-6.5-3.5-11.9-3.8-7.6-.5-8.8-1.3-12.4-8.5-2.5-4.8-2.6-5.5-1.4-9.5l1.3-4.2 2.1 2.9c3.4 4.6 13.3 4.9 13.3.4 0-1.1-.8-1.2-3.5-.7-6.3 1.2-9.3-4.3-3.3-6.1 1.7-.6 3.7-2 4.5-3.2 1.3-1.9 1.2-2.3-.8-4.2-1.3-1.2-3.6-2.1-5.2-2.1-2.9 0-2.9-.1-1.4-1.8 1.2-1.3 1.7-3.7 1.7-8 0-3.3.5-6.4 1.1-6.8 1.6-1 63.1-.6 64.2.5 1.5 1.5.1 18.6-2.2 26-.8 2.6-.7 4 .4 6.1 3.5 6.8 12 8 20.1 2.9 14.4-9.3 28-14.9 35.7-14.9 6.2 0 17-5.2 21.1-10 1.8-2.2 2.6-4.3 2.6-7v-3.8l43.3.2 43.2.1v9.3c0 9.1.1 9.4 2.9 11.9 2.5 2.1 3.6 2.4 7 1.9 2.3-.4 4.7-1.3 5.4-2 .7-.7 1.5-5 1.9-10.2.3-4.9 1.1-9.5 1.7-10.3.9-1.1 11.3-1.3 65.1-.7 35.2.3 76.7.9 92.3 1.2 25.7.6 28.2.5 28.2-1 0-1.4-1.7-1.6-12.7-1.7-7.1-.1-17.7-.3-23.8-.6-9.2-.3-75-1.2-134-1.7l-15-.1-.3-3.3c-.3-2.8 0-3.2 2.2-3.2 1.4 0 3.4 1 4.6 2.2 2.7 2.9 9.2 2.8 13.4-.3l3-2.2 59.5.7c32.8.3 69.4.9 81.4 1.3l21.7.6v-72.1l-2.2-.7c-1.3-.4-2.7-.8-3.2-.9-1.9-.2-1.7-2.5.3-3.5 1.2-.7 1.8-1.7 1.5-2.6-.8-1.9-3.3-1.9-4 0-1 2.4-4.8 1.8-10.8-1.8-4.8-2.7-5.6-3.6-5.6-6.2 0-1.7-.9-4.7-2-6.8-1.1-2-2-4.6-2-5.7 0-2.9-4.3-5.4-6.9-4.1-1.7.9-2.4.5-5.3-3.1-2.8-3.6-3.3-4.9-3-8.8.5-6.2-2.1-9.6-6-8.1-1.5.5-4.5 3.2-6.6 6-3.6 4.5-3.9 5.4-3.5 9.5.4 3.5.1 5.3-1.6 8-1.3 2.1-2 4.4-1.6 5.4.6 2.2-.9 3.7-4.8 4.6-1.9.5-3.3 1.7-4.2 4-1.6 3.7-2.2 11.1-1.1 14.2.5 1.6-.2 3-2.8 5.7-1.9 2-3.7 5-4.1 6.7-.4 1.6-1.1 3.2-1.6 3.6-1.7 1-3.6-1.5-3.2-3.9 1.2-6.3-4.7-15.7-9.7-15.7-1.1 0-3.3 1.9-5.2 4.6-1.8 2.5-4.5 6-6 7.9-1.6 1.8-2.8 3.8-2.8 4.4 0 .6-.9 1.1-2.1 1.1-1.1 0-3.4 1.4-5.1 3.1-1.7 1.6-3.4 2.7-3.9 2.2-.4-.4-2.6-4.2-4.8-8.5-3.5-6.5-3.8-7.8-2.6-8.8 2-1.7 1.8-4.5-1-17.5l-2.3-11 3.9-4c2.1-2.3 3.9-4.7 3.9-5.4 0-.8-3.8-8.9-8.5-18-4.6-9.1-11.4-22.9-15.1-30.6-3.6-7.7-8.1-16.5-10-19.5-1.8-3-3.9-7.6-4.6-10.2-1.1-4.3-1-4.9.8-6.9 1.6-1.8 1.9-3.7 2-12.3.1-5.5-.3-10.6-.8-11.3-.6-.7-.5-1.9.2-3.2.9-1.7.5-3.2-2.2-8.3-3.8-7.6-10-15.7-13.1-17.3-3-1.4-3.2-3.5-.9-8.7 1.1-2.4 2.3-5.4 2.7-6.8 1.6-5.4 12.6-25.8 14.2-26.4.9-.4 5.5-.9 10.2-1.3 9.5-.6 13.6-1.6 26.1-6.2 10.5-4 12.3-5.1 15.7-10.2 2.1-3.2 2.8-5.6 3-10.3.2-3.3.4-8.6.5-11.6.3-5-.1-6.2-3.9-12.2-2.4-3.7-4.3-7.4-4.3-8.2 0-.8-.5-1.8-1-2.1-2.5-1.6-5.8-10.4-6.4-17.3-.3-4.1-1-8.2-1.6-9.1-.6-1.3 0-3.4 2.2-7.7 7.3-14.3 10.8-21.3 10.8-21.9 0-.3 2.1-5 4.6-10.3 2.5-5.3 6.6-14.9 9.1-21.2 2.5-6.3 7.4-17.5 10.9-24.7 3.5-7.3 6.4-13.8 6.4-14.5 0-1.3 4-7.5 7-11.1 4-4.9 5.3-5.8 7.3-5.5 1.9.3 2.2.8 1.9 4-.3 2.8.3 4.6 2.3 7.3 1.5 1.9 3.3 3.5 4.1 3.5 3 0 4.5-7.8 1.7-8.8-.8-.2-1.3.6-1.3 2.2 0 3.1-1.5 3.4-3 .6-.9-1.8-.5-9 .6-9 .2 0 2.1.7 4.3 1.6 5.2 2.1 9.5 1.6 9.9-1.2.3-2.3-2.8-4.9-7.2-6-2.5-.6-2.6-.9-2-4.9.4-2.8.2-4.5-.6-5-1.5-.9-6.6 3.9-9 8.6-1.8 3.3-3.7 4.9-6.1 4.9-1.7 0-.9-2.1 6.5-18.3 8.5-18.5 18.9-41.9 21.7-49.1 4.6-11.5 13.3-28.3 17.4-33.8 2.5-3.3 4.5-7 4.5-8.3 0-1.6 1.1-3 3.5-4.5 4.8-2.9 5.4-5.9 4.1-18.5-.4-4.4-1.5-9.1-2.3-10.3-1.3-2.1-1.3-2.6.3-4.3 1.5-1.6 1.6-2.4.6-3.9-.8-1.4-.9-2.7-.2-4.5 1.3-3.4 1.3-3.5-.5-3.5-1 0-1.5-1-1.5-3.4 0-6.8-4.3-6.6-5.6.2-.5 2.7-1 3.1-2.9 2.6-3-.8-4 1.1-2.5 4.7 1.1 2.6 1 3.2-.5 4.3-2.4 1.7-1.5 4.8 1.9 6.4l2.8 1.4-2.4 2.6c-3.8 4.2-5.5 7.5-7.9 14.8-4 12.9-14.3 31.4-17.3 31.4-1.5 0-1.7.5-1.2 3.4.6 2.9-.6 6.3-7 20.8-4.1 9.5-9.5 22-11.9 27.8-5.2 12.6-18.5 42.6-25 56.5-2.6 5.5-7.1 15.6-10.2 22.5-8.5 19.4-25.5 56.4-26.3 57.3-.4.5-1.9-.6-3.4-2.4-2.7-3.1-2.8-4.6-.5-9.4.9-2 17.7-46.8 24.5-65.5 4.1-11 16.1-47 19.5-58 1.7-5.5 3.2-8.5 6.1-11.4l3.8-4v3.5c0 5.4 4.7 8.8 7.8 5.7.7-.7 1.2-2.4 1.2-3.9s.6-2.9 1.4-3.2c.8-.3 2.2-1.8 3.2-3.2 1.3-2.1 1.5-3.1.6-5-.7-1.4-1.8-2.5-2.6-2.5-.9 0-1.6-1.2-1.8-3.2-.4-4.7-3.1-4.8-7.4-.3-2.2 2.4-3.4 4.6-3.4 6.4 0 2.6-2.4 6-3.5 4.9-1-1 5.4-23.5 14.4-50.7 2.7-8 6.3-18.9 7.9-24.1 3.8-12.1 11.2-32.2 12.3-33.5C455 84.1 459 71 459 67.2c0-3.3-.5-4.5-3.1-6.5-3.1-2.4-3.1-2.5-1.4-5.1 1.3-1.9 2.3-2.5 3.7-2 3.6 1.1 8.8-.5 10-3.2 1.1-2.2.9-2.8-1.7-4.8l-2.8-2.3 2.2-3c2.7-3.6 2.4-6.7-.7-7.1-1.7-.3-2.2-1-2.2-3.1 0-2.9-1.6-5.1-3.6-5.1-.7 0-2.7 1.5-4.5 3.2zm-62.6 8.5l-1.8 2.7-.3-2.8c-.2-1.7.4-3.6 1.5-4.8l1.8-2 .3 2c.2 1.2-.5 3.3-1.5 4.9zm57.7 1c0 1.3-.3 1.3-1.5.3-.8-.7-1.2-1.6-.9-2.1.8-1.3 2.4-.1 2.4 1.8zm-47.2 0c-.3 1.8-6.8 6.7-7.6 5.8-.7-.6 5.8-7.5 7.1-7.5.5 0 .7.8.5 1.7zm57.7 3.3c-1 1.1-2.5 2-3.3 2-.9 0-.6-.7.9-2 3.1-2.5 4.7-2.6 2.4 0zM383 44.2c0 1.5-1.9.8-2.9-1.1-1.4-2.5 0-3.7 1.6-1.5.7 1 1.3 2.1 1.3 2.6zm16.3 5.3c.3 1.3-2.9 1.9-5.1 1-1.5-.6-1.5-.8.3-1.5 2.4-1.1 4.5-.8 4.8.5zm63 .2c-.7.2-1.9.2-2.5 0-.7-.3-.2-.5 1.2-.5s1.9.2 1.3.5zM331 51c0 .5-.2 1-.4 1-.3 0-.8-.5-1.1-1-.3-.6-.1-1 .4-1 .6 0 1.1.4 1.1 1zm7.1 4.3c-1.6 1.6-2 .5-.8-2.3.9-2.2 1.1-2.3 1.4-.6.3 1 0 2.3-.6 2.9zm-102.3 1.9c.7.7 1.2 2.1 1.2 3.2-.1 2-.1 2-2-.3-2.9-3.4-2.2-5.9.8-2.9zm14.9 2c-.3.8-.6.5-.6-.6-.1-1.1.2-1.7.5-1.3.3.3.4 1.2.1 1.9zM326 59c0 .5-.9 1-1.9 1-1.1 0-2.3-.5-2.6-1-.4-.6.5-1 1.9-1s2.6.4 2.6 1zm-30 2.5c-.7.8-1.7 1.5-2.3 1.5-.5 0-.2-.9.8-2 2.1-2.3 3.5-1.9 1.5.5zm147.2.7c-.6.6-1.4.9-1.7.6-.3-.3-.3-1.3.1-2.2.5-1.2 1-1.4 1.7-.7.8.8.8 1.4-.1 2.3zM283.5 62c0 1-.8 1.4-2.5 1.2-3.1-.5-3.4-.8-2.5-2.2 1-1.6 5-.8 5 1zm52.6 2c-1.3 1.1-2.8 2-3.5 2-.6-.1 0-1 1.3-2 1.3-1.1 2.8-2 3.5-2 .6.1 0 1-1.3 2zm120.1 2.8c.6 2.3-1.7 8.2-3.2 8.2-1.4 0-1.3-4.3.2-5.8 1-1 1-1.5-.2-2.2-1.3-.9-1.3-1.1 0-1.9 1.7-1.2 2.6-.7 3.2 1.7zM233.5 66c-.3.5-1.3 1-2.1 1s-1.4-.5-1.4-1c0-.6.9-1 2.1-1 1.1 0 1.7.4 1.4 1zm10 3c0 .9-.7 1.4-1.8 1.2-1-.2-2.5.2-3.3.9-1.7 1.4-1.8.5-.3-2.2 1.2-2.3 5.4-2.2 5.4.1zm142.3 1.3c.2 1.7-.1 2.7-.9 2.7-.7 0-2.7 1.4-4.5 3.1-3 2.9-3.2 3-3.8 1.1-.7-2 .7-6.6 2.5-8.9.6-.6 2.2-1.1 3.7-1 2.1.2 2.8.8 3 3zm-246.8.8c0 1.7-.4 2.8-1 2.4-.5-.3-1-1.7-1-3.1 0-1.3.5-2.4 1-2.4.6 0 1 1.4 1 3.1zm10 .2c0 2.5-2.6 6.7-4.1 6.7-1.4 0-1.1-4.3.7-6.8 2-2.8 3.4-2.8 3.4.1zm274-.4c0 1.1-.4 2.3-1 2.6-.6.4-1-.5-1-1.9s.5-2.6 1-2.6c.6 0 1 .9 1 1.9zm-212 3c.5 1.7.7 3.1.5 3.1-1.1 0-3.6-5-3-6 .9-1.5 1.4-.9 2.5 2.9zm41 1.3c2 4.3 2.7 11.3 1.3 12.1-.5.3-1.7.1-2.8-.3-1.8-.7-1.9-.8-.2-1.5 2.6-1.1 2.2-4.5-.5-4.5-2.2-.1-2.2-.1-.5-1.4 1.6-1.2 1.6-1.5.2-2.9-1.7-1.8-2-5.7-.5-5.7.6 0 2 1.9 3 4.2zm141.1 1.1c.8 3 .3 3.7-2.5 3.7-1.6 0-2.1-.6-2.1-2.3.3-5.2 3.3-6.1 4.6-1.4zM96 83.3c0 3.6-1.8.5-2.4-4.3l-.7-4.5 1.6 3.4c.8 1.8 1.5 4.3 1.5 5.4zm-36.4-2.8c1.8 4.3 1.8 5.5-.1 5.5-1.8 0-3.5-3.1-3.5-6.4 0-3.7 1.8-3.2 3.6.9zm6.9.5c.3 1.1.3 3-.1 4.2l-.8 2.3-.7-2.5c-1-3.7-1-6 0-6 .5 0 1.3.9 1.6 2zm153.6 1.3c-.8.8-1.1.7-1.1-.4 0-2 1.3-3.4 1.8-1.9.3.7-.1 1.7-.7 2.3zm196.7-1.5c.2.7-.3 1.2-1.2 1.2-.9 0-1.6-.7-1.6-1.6 0-1.7 2.2-1.4 2.8.4zM242 82.5c-.7.8-1.7 1.5-2.3 1.5-.5 0-.2-.9.8-2 2.1-2.3 3.5-1.9 1.5.5zm-140.3 1.7c-.8 2.4-1.2 2.8-1.5 1.5-.5-2.3.4-4.7 1.7-4.7.6 0 .5 1.3-.2 3.2zm240.2-.6c1.2 1.5 2.1 4.1 2.1 5.8 0 3.5-2.4 7.6-3.6 6.3-.4-.4-.2-1.3.4-1.9 1.9-1.9 1.4-4.6-1.3-6.4-1.4-.9-2.5-2.2-2.5-2.8 0-.6-.9-1.2-2-1.3-1.1-.1-2 .2-2 .8 0 .5-.8.9-1.8.9s-2.3.5-3 1.2c-1.7 1.7-2.8.2-1.2-1.7.7-.8 2.3-1.5 3.6-1.5 1.2 0 2.6-.5 2.9-1 1.3-2 6.3-1.1 8.4 1.6zM391 83c0 .5-.7 1-1.6 1-.8 0-1.2-.5-.9-1 .3-.6 1-1 1.6-1 .5 0 .9.4.9 1zm35 .5c-.7.9-1.5 1.3-1.9 1-.3-.3.1-1 .9-1.5 2.1-1.4 2.4-1.2 1 .5zm23-.1c0 .3-.4.8-1 1.1-.5.3-1 .1-1-.4 0-.6.5-1.1 1-1.1.6 0 1 .2 1 .4zM88 89.9c0 2.1-1.6.2-2.4-2.9-.7-2.4-.6-2.4.8-.6.9 1.1 1.6 2.7 1.6 3.5zm154.7-2.4c-2.3 2.2-3.3 1.8-1.2-.5 1-1.1 2-1.8 2.3-1.6.2.3-.3 1.2-1.1 2.1zm91.8-.5c.3.5.1 1-.4 1-.6 0-1.1-.5-1.1-1 0-.6.2-1 .4-1 .3 0 .8.4 1.1 1zm43.8 2.7c-.3 1.8-.9 3.3-1.4 3.3-.5 0-.6-1.2-.3-2.8 1.3-5.3 2.5-5.7 1.7-.5zm-226.7-.6c1.3 1.4 1.9 3.8 2.1 8.2.1 3.4.3 7.1.5 8.1s-.3 2.1-1.1 2.4c-1 .3-1.2 0-.8-1.1.3-.9.1-1.9-.4-2.3-.6-.3-.8-1.7-.5-2.9.3-1.3.1-2.7-.4-3-.6-.4-.8-1.6-.4-2.7.5-1.6.3-2-.9-1.5-1.1.4-1.3 0-1-1.4.3-1 .1-1.9-.3-1.9-.5 0-1.5-.9-2.2-2-1.1-1.8-1-2 1.1-2 1.3 0 3.2.9 4.3 2.1zM391 90.3c0 2.9-1.5 5.1-2.9 4.3-.8-.5-.7-1.3.3-2.8.8-1.1 1.2-2.7.9-3.6-.4-1-.2-1.3.5-.8.7.4 1.2 1.7 1.2 2.9zm-331.8 2c-2.5 1.2-2.7 1.1-3.7-2.1l-.7-2.3 3.4 1.7c3.2 1.7 3.2 1.7 1 2.7zM447 90.1c0 .6-.4.7-1 .4-.5-.3-1-1.1-1-1.6 0-.6.5-.7 1-.4.6.3 1 1.1 1 1.6zm-394.7.8c.3 1.1.2 2.2-.1 2.5-.8.9-3.2-1.4-3.2-3 0-2.1 2.7-1.7 3.3.5zm157.8 1.5c-1.9 2-2.1 2.8-1.2 6.5.9 4.2-.2 6.8-1.3 2.8-1.4-5.3.2-11.7 3-11.7 1.5 0 1.4.3-.5 2.4zm33.3 0c-.3.9-1 1.6-1.5 1.6s-.4-.9.3-2c1.4-2.2 2.1-2 1.2.4zM132.5 92c.3.5-.1 1-.9 1-.9 0-1.6-.5-1.6-1 0-.6.4-1 .9-1 .6 0 1.3.4 1.6 1zM298 95.4c0 .5-.7.3-1.5-.4s-1.2-1.7-.9-2.2c.7-1 2.4.9 2.4 2.6zM86.8 96.6c-1 1-2.8-.6-2.8-2.4 0-1.5.1-1.5 1.7.1.9.9 1.4 1.9 1.1 2.3zm138.7-1.2c2.4 3.6 3 12.6 1.2 15.1-1.5 2-1.5 2-2.1-.5-.3-1.4-.8-5.1-1.1-8.3-.5-4-1.1-5.7-2.1-5.7-1.5 0-1.9-1.2-.7-2.3 1.3-1.4 3.3-.6 4.8 1.7zm212.5-.9c-.7.8-1.6 1.5-2.1 1.5s-.6-.7-.3-1.5c.4-.8 1.3-1.5 2.1-1.5 1.3 0 1.3.3.3 1.5zm-331.9 6.1c2.1 6 2.4 11.8.7 11.1-.7-.2-1.2-1.4-1-2.5.2-1.2-.3-3.1-1.1-4.3-1.5-2-1.5-2-4.1.8-2.1 2.2-2.6 2.4-2.6 1 0-.9.4-1.7.9-1.7 1.2 0 4.3-6.1 3.5-6.9-.3-.3-1 .2-1.5 1.2-1.4 2.4-3.2 2.2-2.4-.3.4-1.1.2-2-.4-2-1.8 0-1.2-1.8.7-2.2 3.4-.8 5.6.9 7.3 5.8zM379 94.4c0 .3-.4.8-1 1.1-.5.3-1 .1-1-.4 0-.6.5-1.1 1-1.1.6 0 1 .2 1 .4zm66 .6c0 .5-.4 1-1 1-.5 0-1-.5-1-1 0-.6.5-1 1-1 .6 0 1 .4 1 1zM70.6 99.5c5.3 5.5 5.8 6.4 7.8 14.3 1.7 6.7 9.8 27.2 12.2 31 .8 1.2 1.9 3.3 2.4 4.7.9 2.4.8 2.5-1.1 1.5-1.1-.7-2.7-.9-3.4-.6-2 .7-2.7-.9-1-2.4 1.8-1.5 1-3.6-1.7-4.3-1.1-.3-1.7-1-1.3-1.6.3-.6-.3-2.4-1.4-4-1.2-1.6-2.1-3.6-2.1-4.5 0-.9-.4-2.4-.9-3.4-.5-.9-1.4-3.7-2.1-6.2-2.1-8.1-3.7-10.1-9.5-12.3-.5-.3-.7-.7-.4-1.1.3-.4 1.8-.2 3.3.3 2.9 1.1 3.5.1 1.1-1.9-.9-.7-1.3-2.1-1-3.1.5-1.4 0-2-1.9-2.5-1.4-.3-2.8-1.5-3.1-2.5-.4-1-1.4-1.9-2.3-1.9-.9 0-2.4-.5-3.2-1-1.2-.7-1-1.1 1-1.9 3.8-1.5 3.9-1.4 8.6 3.4zm68.4-4.1c0 .3-.4.8-1 1.1-.5.3-1 .1-1-.4 0-.6.5-1.1 1-1.1.6 0 1 .2 1 .4zm218.5 3.7c1.1 1.7-.1 2.1-1.5.4-.8-.9-.8-1.5-.2-1.5.6 0 1.4.5 1.7 1.1zm30.8-.5c1.1 1.1-.3 2.4-1.8 1.8-.8-.4-1.2-1-.9-1.5.6-1.1 1.8-1.2 2.7-.3zm-248.5 3.9c0 3-.2 3.4-1.4 2.4-1.7-1.4-1.8-3.1-.2-4.7s1.6-1.7 1.6 2.3zm9.2-2.7c0 1.3-5.2 6.4-5.9 5.7-.3-.4.4-1.5 1.7-2.5 1.2-1 2.2-2.3 2.2-2.9 0-.6.5-1.1 1-1.1.6 0 1 .3 1 .8zm104.7 1.8c-.9.9-2.8-.6-2.1-1.8.4-.6 1-.6 1.7.1.6.6.8 1.3.4 1.7zm124 .1c-1.5 1.6-1.7 1.6-1.7.1 0-.9.6-1.8 1.3-2.1 2-.7 2.2.2.4 2zm-283.6 5.5c-2.5 2.6-2.7 1.7-.4-1.9.9-1.4 1.9-2.1 2.1-1.5.2.6-.6 2.1-1.7 3.4zm391.5-2.1c.3.5-.1 1.2-1 1.5-1.7.7-5.9-1.3-5.2-2.5.7-1 5.4-.2 6.2 1zM150 105c0 .5-.5 1-1.1 1-.5 0-.7-.5-.4-1 .3-.6.8-1 1.1-1 .2 0 .4.4.4 1zm237.1.5c-.1 1.5-2.4 1.2-2.9-.3-.3-.9.2-1.3 1.2-1 1 .1 1.7.7 1.7 1.3zm53.9.9c0 .8-.8 1.3-1.7 1.1-1-.2-2-.4-2.3-.4-.7-.2 2.3-2.1 3.3-2.1.4 0 .7.6.7 1.4zM104 108c0 .6-.7 1.3-1.5 1.6-.8.4-1.5 1-1.5 1.5s-.9 1.8-2 2.9c-2.7 2.7-2.5 1.7.6-3 2.6-3.9 4.4-5.1 4.4-3zm43 1.9c-1 2-3 2.9-3 1.4 0-1 3.3-4.4 3.7-3.9.3.2 0 1.4-.7 2.5zm104-.9c0 .5-.2 1-.4 1-.3 0-.8-.5-1.1-1-.3-.6-.1-1 .4-1 .6 0 1.1.4 1.1 1zm18.7 1.2c-.3.8-.6.5-.6-.6-.1-1.1.2-1.7.5-1.3.3.3.4 1.2.1 1.9zM97 109.5c0 .2-.9 1.9-2 3.7-1.3 2.2-2 2.7-2 1.5 0-2 2.1-5.7 3.2-5.7.5 0 .8.2.8.5zm136.5 5.1c-.1 2.7-.4 5.6-.8 6.4-1.2 2.6 1.7 5.4 5.6 5.4 4.1 0 3.9-.4 5.7 12.1.5 3.8 1.2 8.5 1.5 10.2.5 3 .3 3.3-1.8 3.3-2.7 0-5.1 2.3-6.2 5.8-.9 3.1-3 2.2-3.1-1.4-.1-4.7-2.4-20.4-4-27.1-1.7-7.5-1.7-8.7-.3-15.3 1.4-6.5 3.4-6.1 3.4.6zm141.4.2c-.6 1.5-1 2.8-1 2.9.1.2-.2.3-.6.2-.8 0-.7-3.3.2-5.7.3-.7.9-1.1 1.5-.7.6.4.6 1.5-.1 3.3zM150 113c0 .5-.4 1-1 1-.5 0-1-.5-1-1 0-.6.5-1 1-1 .6 0 1 .4 1 1zm288.5-.1c.3.5.1 1.2-.4 1.5-.5.3-1.1-.1-1.5-.9-.6-1.6.9-2.1 1.9-.6zm48.3.3c2.3 2.3 1.4 3.8-2 3.1-4.3-.8-4.7-1.2-2.4-2.9 2.4-1.7 2.9-1.7 4.4-.2zm-380.8.5c0 1-3.2 4.3-4.1 4.3-.5 0-.3-1.1.3-2.5 1-2.2 3.8-3.6 3.8-1.8zm139 .9c0 .8-.5 1.2-1 .9-.6-.4-.8-1.1-.5-1.6.9-1.4 1.5-1.1 1.5.7zm141-.1c0 .9-.6 1.2-1.5.9-.8-.4-1.2-1-.9-1.5.8-1.4 2.4-1 2.4.6zm104 7.2c0 .7-1.3 1.9-3 2.8-2.7 1.4-4.4.5-1.9-1 .5-.4 1.5-1.9 2-3.3.8-2.1 1.2-2.3 1.9-1.2.6.8 1 2.1 1 2.7zM188.5 120c.3.6-.1 1.3-1 1.6-1.9.8-3 0-2-1.5.8-1.4 2.2-1.4 3-.1zm242.1 2.3c-.1 1.7-.6 2.3-1.8 1.9-2.1-.5-2.3-1.3-.6-3 1.8-1.8 2.6-1.5 2.4 1.1zM112 122c0 .5-.2 1-.4 1-.3 0-.8-.5-1.1-1-.3-.6-.1-1 .4-1 .6 0 1.1.4 1.1 1zm145-.2c0 1.3-1.2 2.2-2.2 1.6-1-.6-.1-2.4 1.3-2.4.5 0 .9.4.9.8zm220.8 1.2c-1.1 1.8-2.8 2.7-2.8 1.6 0-.6 3-3.6 3.6-3.6.2 0-.1.9-.8 2zm-325.8.6c0 .8-.5 1.2-1 .9-.6-.4-.8-1.1-.5-1.6.9-1.4 1.5-1.1 1.5.7zm221.7.6c-.3.8-.6.5-.6-.6-.1-1.1.2-1.7.5-1.3.3.3.4 1.2.1 1.9zm-124.7-.8c0 .3-.4.8-1 1.1-.5.3-1 .1-1-.4 0-.6.5-1.1 1-1.1.6 0 1 .2 1 .4zm136 1.1c0 .8-.4 1.5-1 1.5-.5 0-1-.7-1-1.5s.5-1.5 1-1.5c.6 0 1 .7 1 1.5zm50 1.1c0 .8-.5 1.2-1 .9-.6-.4-.8-1.1-.5-1.6.9-1.4 1.5-1.1 1.5.7zm55 3.3c0 3.2-4.3 9.1-5.6 7.8-.4-.4-.2-1.9.6-3.5.7-1.5 1.7-3.7 2.3-5 1.4-3.1 2.7-2.8 2.7.7zm-347.1-.3c1 .9-1.4 2.4-3.9 2.4-3.1 0-4.5-1.3-3.5-3.1.6-.9 6.2-.4 7.4.7zm115.1 1.6v3.2l-2.1-2.1c-2.2-2.2-1.9-4.3.7-4.3.9 0 1.4 1.1 1.4 3.2zm114.1 1.1c-.8.8-1.1.5-1.1-.9 0-2.7 1.4-4.1 1.8-1.9.2.9-.1 2.2-.7 2.8zm-84.4-1.1c-.3.8-.6.5-.6-.6-.1-1.1.2-1.7.5-1.3.3.3.4 1.2.1 1.9zm-37.7-.6c0 .3-.7 1.2-1.5 2-1.2 1.3-1.5 1.3-1.5.1 0-.7.3-1.7.7-2 .8-.8 2.3-.9 2.3-.1zm179 .4c0 .5-.4 1-1 1-.5 0-1-.5-1-1 0-.6.5-1 1-1 .6 0 1 .4 1 1zm5 .6c0 1.5-2.2 4.4-3.1 3.9-1.1-.7.7-4.5 2.1-4.5.6 0 1 .3 1 .6zm-355.8 2.6c-.7.7-1.2.8-1.2.2 0-1.4 1.2-2.6 1.9-1.9.2.3-.1 1.1-.7 1.7zm209.4 6.6c-1.1 1-1.4-.3-.7-3.8l.6-3.5.3 3.3c.2 1.9.1 3.6-.2 4zm194.4-6.4c0 .3-.4.8-1 1.1-.5.3-1 .1-1-.4 0-.6.5-1.1 1-1.1.6 0 1 .2 1 .4zm-314 3.2c0 .8-.4 1.2-1 .9-.5-.3-1-1.3-1-2.1s.5-1.2 1-.9c.6.3 1 1.3 1 2.1zm203.3.6c-.6 3.6-1 4.4-1.8 3.6-.8-.8.6-6.8 1.6-6.8.5 0 .6 1.5.2 3.2zm54.7-1.3c0 1.2-2 2.5-2.7 1.8-.7-.7.6-2.7 1.8-2.7.5 0 .9.4.9.9zm-361 3.2l3.5 1.8h-4c-4.1 0-7.5-1.7-7.5-3.8 0-1.4 2.8-.7 8 2zm411.5-.7c-1.9 2.9-4.2 3.9-5.1 2.4-.4-.7-.3-1.3.3-1.5.6-.2 1.9-1 2.9-1.8 2.9-2.2 3.6-1.8 1.9.9zm-217.5.5c0 2.2-1.6 3.6-2.4 2.2-.8-1.2.3-4.1 1.5-4.1.5 0 .9.9.9 1.9zm172 .5c0 .8-.4 1.7-.9 2.1-1.2.7-2.4-1.2-1.6-2.5.9-1.5 2.5-1.2 2.5.4zm-260 3.8c2.2 4.7 2.5 6.8 1.1 6.8-.5 0-1.2-1.8-1.6-4-.4-2.2-1.1-4.2-1.6-4.6-.5-.3-.9-.9-.9-1.5 0-2 1.2-.7 3 3.3zM82 141c0 .5-.7 1-1.6 1-.8 0-1.2-.5-.9-1 .3-.6 1-1 1.6-1 .5 0 .9.4.9 1zm22.7 2c.6 1.2 1.7 2.6 2.4 3.1.8.4 1 1.1.6 1.5-1.1 1.1-5.8-1.8-6.7-4.1-1.6-4.1 1.6-4.6 3.7-.5zm184.9 2c2.1 0 1.7 1.4-1.1 4l-2.5 2.3v-2.5c0-3.3 1.2-6.7 1.8-5 .2.7 1 1.2 1.8 1.2zm81.4-1.6c0 .3-.4.8-1 1.1-.5.3-1 .1-1-.4 0-.6.5-1.1 1-1.1.6 0 1 .2 1 .4zm-111 4.2c0 1.6-1.6 1.9-2.5.4-.8-1.3.4-3.2 1.6-2.5.5.4.9 1.3.9 2.1zm218.4.5c-.7 1.1-3.4 1.2-3.4.1 0-1.4 1.1-2.1 2.6-1.5.8.3 1.1.9.8 1.4zM73.5 148c-.3.5-1 1-1.6 1-.5 0-.9-.5-.9-1 0-.6.7-1 1.6-1 .8 0 1.2.4.9 1zm87.9.5c-.4.8-1 1.2-1.5.9-1.1-.6-.2-2.4 1.1-2.4.5 0 .7.7.4 1.5zm209.6-1.1c0 .3-.4.8-1 1.1-.5.3-1 .1-1-.4 0-.6.5-1.1 1-1.1.6 0 1 .2 1 .4zm98.2.8c-.9.9-1.5.9-2.4 0-.9-.9-.7-1.2 1.2-1.2s2.1.3 1.2 1.2zm-344.5 4.4c-.9.9-2.8-.6-2.1-1.8.4-.6 1-.6 1.7.1.6.6.8 1.3.4 1.7zm150.4.7c-1.6 1.6-2.6 0-1-1.9.9-1.1 1.5-1.2 1.7-.4.2.6-.1 1.7-.7 2.3zM111 152c0 1-6.8 2.6-7.6 1.7-.4-.3-.3-1 .1-1.6.8-1.4 7.5-1.5 7.5-.1zm59 .9c-.5 1.1-1.5 2.3-2 2.6-1.4.9-1.2-1.9.2-3.3 1.9-1.9 3-1.4 1.8.7zm301-.9c0 .5-.7 1-1.6 1-.8 0-1.2-.5-.9-1 .3-.6 1-1 1.6-1 .5 0 .9.4.9 1zm-307 .8c0 1.3-1.2 2.2-2.2 1.6-1-.6-.1-2.4 1.3-2.4.5 0 .9.4.9.8zm132 .2c0 .5-.5 1-1.1 1-.5 0-.7-.5-.4-1 .3-.6.8-1 1.1-1 .2 0 .4.4.4 1zm-199.5 3c2.4 4.7 1.7 5.7-1.6 2.3-1.7-1.7-2.8-3.6-2.5-4.2 1.2-1.8 2.5-1.2 4.1 1.9zm164.8 0c.7 2.6-1.1 3.7-2 1.3-.4-1-1.1-2.1-1.7-2.5-.6-.5-.2-.8 1-.8 1.3 0 2.4.8 2.7 2zm-147.6.7c.4 1.1-3.2 2.5-4.1 1.5-.8-.8 1.5-3.3 2.7-2.9.6.2 1.2.8 1.4 1.4zm349.8 2.3c-4 4.1-5.5 4.9-5.5 2.9 0-1.7 5.7-6.9 7.6-6.9 1.4 0 .9 1-2.1 4zm-356.5-.6c1.7 3.2 4.1 4.1 5.6 2.2 1.6-2.3 2.3-2 4 1.9 1.9 4.7 1.8 5.2-1.4 5.8-1.7.4-3.3 1.6-4 3.1-1.3 3-3 3.4-3.8.8-.3-.9-1.7-4.2-3-7.3-1.3-3.1-2.4-6.4-2.4-7.3 0-2.5 3.5-1.9 5 .8zm60.2 3.7c1.2.8.2 2.9-1.3 2.9-.6 0-.7-.4-.4-1 .3-.5.1-1.9-.5-3.1-.6-1.1-.8-2.8-.4-3.7.6-1.3.9-1 1.2 1.3.2 1.6.8 3.3 1.4 3.6zm9.6-2.8c.2 1.2-.1 1.5-1.2 1.1-1.9-.7-2.2-3.8-.3-3.2.6.3 1.3 1.2 1.5 2.1zm64.5-.8c-.3.9-.8 1.4-1 1.1-.3-.3-.2-.9.2-1.5.9-1.6 1.5-1.3.8.4zm27.5 1.7c-.7 1.9-2.1 1.2-2.5-1.1-.3-2-.1-2.2 1.2-1.1.9.7 1.4 1.7 1.3 2.2zm99.4 0c-.7.7-1.2.8-1.2.2 0-1.4 1.2-2.6 1.9-1.9.2.3-.1 1.1-.7 1.7zM470 160c0 .5-.7 1-1.5 1s-1.5-.5-1.5-1c0-.6.7-1 1.5-1s1.5.4 1.5 1zm-187.6 29.7c.3 15.9.8 34.9 1.1 42.3 1.2 33.7 1.6 67.4.7 66-1.4-2.2-5.9-33-7.7-53-1.7-19-5.4-49.1-8.2-66.2l-1.7-10.8 2.8-2.9c2.3-2.4 3.4-2.8 6.1-2.4 1.9.3 3.5 0 3.9-.6.4-.6 1.1-1.1 1.5-1.1.5 0 1.1 12.9 1.5 28.7zm-104.7-24.5c-.3.7-.5.2-.5-1.2s.2-1.9.5-1.3c.2.7.2 1.9 0 2.5zm84.9-.6c-.3.9-.6 2-.6 2.5s-.9.9-2 .9c-2.3 0-2.4-.3-.8-3 1.5-2.4 4.3-2.7 3.4-.4zM288 166c0 1.6-.4 3-.9 3-.4 0-.8-1.3-.7-3 .1-3.9 1.6-3.9 1.6 0zm175-1c-1.4 1-3.8 2.9-5.4 4.1-2.6 2.1-2.8 2.1-2.4.3.2-1 1.4-2.4 2.6-3 1.3-.6 2.9-1.7 3.5-2.3.6-.6 1.8-1.1 2.7-1.1 1 .1.8.6-1 2zm-95.8 1.2c-.7.7-1.2.8-1.2.2 0-1.4 1.2-2.6 1.9-1.9.2.3-.1 1.1-.7 1.7zm8.6 0c-.2.6-1.4 1.2-2.6 1.3-1.3.1-3.6 1.2-5.2 2.4-1.7 1.2-3 1.7-3 1.2 0-1.5 7.1-6.1 9.3-6.1 1 0 1.7.5 1.5 1.2zm90.7.8c-.3.5-1.1 1-1.6 1-.6 0-.7-.5-.4-1 .3-.6 1.1-1 1.6-1 .6 0 .7.4.4 1zM133 168.5c0 .8-.4 1.5-1 1.5-.5 0-1-.7-1-1.5s.5-1.5 1-1.5c.6 0 1 .7 1 1.5zm36 .5c0 1.1.3 2 .8 2 1.3 0 3.3 5.9 3 8.7-.3 2.5-.5 2.3-2.1-2.2-1.1-2.8-2.3-5.8-2.8-6.7-1.2-2.3-1.1-3.8.1-3.8.6 0 1 .9 1 2zm31 1.8c0 1.5-.2 1.5-1 .2-1.3-2-1.3-3.3 0-2.5.6.3 1 1.4 1 2.3zm260.6 2c-.8 1-1.3 2.7-1 3.7.4 1.5-1 3.2-5.3 6.9-6.9 5.8-7.8 4.7-3.3-4.2 2.3-4.6 4-6.5 6.8-7.9 4-1.9 5.4-1.2 2.8 1.5zm-280.6-2c0 1.4-2.3 3.2-4.2 3.2-2.3 0-2.3-1.6 0-2.9 2.1-1.3 4.2-1.4 4.2-.3zm134 .8c0 .9-.5 1.4-1.2 1.2-1.8-.6-2.1-2.8-.4-2.8.9 0 1.6.7 1.6 1.6zm-207 6.1c8.4 17.3 18.3 36.6 22.4 43.8 2.5 4.4 4.6 8.7 4.6 9.5 0 .9 1.4 4.2 3 7.3 1.7 3.2 3 6.4 3 7.1 0 .7.9 2.5 2 3.9 2.2 2.8 2.5 3.7 1 3.7-.5 0-1-.7-1-1.5 0-1.9-.9-1.9-3.2.2-2.2 2-2.3 3.6-.3 5.3 1.6 1.4 2.1 5.5.5 4.5-1.9-1.2-4.4-8-4.3-11.8.2-3.1-.2-4-1.7-4.4-2.2-.6-2.5-1.4-1.1-2.9.5-.5 1.2-2.4 1.6-4.2.5-2.6.3-3.2-.9-3.2-1.8 0-3.9-4.3-3.8-7.4.1-1-.2-1.6-.5-1.2-.9.9-3.4-1.5-2.7-2.6.3-.5.1-1.5-.5-2.2-.6-.7-.9-2.1-.5-3 .4-1.1.1-1.6-1.1-1.6-.9 0-1.9-.9-2.2-2-.3-1.1-.9-2-1.4-2-.5 0-.9-.7-.9-1.5 0-.9-1.1-3.3-2.5-5.5s-2.5-4.4-2.5-4.9c0-1-6.5-12-8-13.5-.6-.6-1-1.8-1-2.8 0-.9-.6-2.1-1.4-2.5-2.2-1.3-4-8.1-2.6-9.8.7-.8 1.6-1.5 2-1.5.4 0 2.2 3 4 6.7zm8.5-3.6c-.6 1.6-.9 1.8-1.6.8-.4-.8-.3-1.9.3-2.6 1.5-1.8 2.1-.9 1.3 1.8zM248 172c0 .5-.4 1-1 1-.5 0-1-.5-1-1 0-.6.5-1 1-1 .6 0 1 .4 1 1zm-118.5 1c.3.5.1 1-.4 1-.6 0-1.1-.5-1.1-1 0-.6.2-1 .4-1 .3 0 .8.4 1.1 1zm245.3 1.2c-.2 1.6-1 2.2-3 2.3-3.4.1-3.4-.2-.5-2.6s3.9-2.4 3.5.3zm89.2-.2c0 .5-.4 1-1 1-.5 0-1-.5-1-1 0-.6.5-1 1-1 .6 0 1 .4 1 1zm-50.4 5.2c-.2 3-.9 4.4-2 4.6-1.6.4-2.2-.9-.9-2.2.4-.3.8-1.4.9-2.2.8-5.5 2.5-5.7 2-.2zM160 176.3c0 .2-1.2 1.4-2.6 2.8l-2.6 2.4 1.3-2.8c.7-1.5 1.8-2.7 2.6-2.7.7 0 1.3.1 1.3.3zm84.4.3c1.9.7 2.1 3.4.3 3.4-1.4 0-3.7-2-3.7-3.2 0-1 1.3-1 3.4-.2zm43.3 7.1c-.2 1.6-.4.3-.4-2.7s.2-4.3.4-2.8c.2 1.6.2 4 0 5.5zm-106.1-5.8c-.8 1.2-4.6 2.1-4.6 1.1 0-.9 1.8-1.8 3.8-1.9.7-.1 1.1.3.8.8zm185.4 1c0 .5-.7 1.1-1.5 1.5-1.5.5-2-.5-.8-1.7.9-1 2.3-.9 2.3.2zm-246 .9c0 1-2.2 3.2-3.2 3.2-.5 0-.3-.9.4-2 1.3-2 2.8-2.7 2.8-1.2zm4.4 1.8c.8 2 .8 2.4-.1 2.4-1.7 0-3.5-1.9-2.9-2.9 1-1.6 2.3-1.4 3 .5zm248.2-.5c.3.6.1 1.6-.5 2.2-.9.9-1.4.8-2.1-.2-.7-1.2-1.4-.9-4.1 1.3-2.3 2-3.5 2.4-3.8 1.5-1-3.1 8.7-7.6 10.5-4.8zm-124.2 3.6c.6 3 1.5 9.8 4.6 32.3 1.1 8 2.9 19.9 3.9 26.5 2.4 14.6 4.5 35.3 4 38-.3 1.1-1.5-3.6-2.8-10.5-1.3-6.9-3.8-19-5.7-27-1.8-8-4-18.1-4.8-22.5-.9-4.4-2.7-14.1-4.1-21.5-1.5-7.4-2.7-14.2-2.8-15-.2-1.2 1.6-2 6.5-2.9.3 0 .9 1.1 1.2 2.6zm-64.6-.1c-1.2 1.2-2.4 1.4-4.5.9l-2.8-.8 3-.7c5.4-1.3 6.1-1.2 4.3.6zm274.7-.7c.3.5.1 1.2-.5 1.6-.5.3-1-.1-1-.9 0-1.8.6-2.1 1.5-.7zm-321.7 3.4c-.7 1.4-1.3 1.7-1.6.9-.6-1.9.6-4.4 1.8-3.7.7.4.6 1.4-.2 2.8zm38-.6c.8 1.8.9 3 .2 3.7-.7.7-1 .3-1-1.1 0-1.2-.4-2.5-1-2.8-1.2-.7-1.3-2.5-.2-2.5.4 0 1.3 1.2 2 2.7zm-51.5.8c-.3 1.3-5.3 2-5.3.7 0-1.5 1.3-2.3 3.5-2 1.1.2 1.9.7 1.8 1.3zm9.3 7.6c2.2 4.1 6.8 12.2 10.3 18.1 3.4 5.9 7.9 14.5 10 19.1 2.2 4.5 8 15.2 12.9 23.8 4.9 8.5 10.2 17.8 11.6 20.5 1.5 2.7 3.7 6.4 5 8.1 1.3 1.8 2.9 5.7 3.6 8.5 1.4 5.9 10.3 25.7 16.3 36 2.1 3.7 5.6 11.3 7.8 17 2.2 5.7 4.7 11.7 5.5 13.5 1.9 4.2 1.8 6-.6 6.8-2.8.9-3.5.3-7.2-6.8-4.9-9-12.2-21.7-19.1-33.2-7.8-13.1-9.4-15.9-19.5-35.5-4.7-9.1-12.2-22.8-16.7-30.5-4.5-7.7-10.9-19.4-14.2-26-3.3-6.6-9.6-19.1-14.1-27.8l-8.1-15.7h3.9c2.9 0 4.2-.5 5-2.1 1.7-3.1 3.1-1.9 7.6 6.2zm231.1-4.9c-1.9 1.4-2.7 2.9-2.7 4.9 0 1.6-.4 2.9-1 2.9-1.3 0-1.3-1.2 0-4.5 1.1-2.8 5.1-6.7 6-5.8.3.2-.7 1.4-2.3 2.5zm85.3 1.9c-2.5 2.1-4.9 3.9-5.5 3.9-.5-.1 1.2-2.1 3.9-4.5 2.8-2.5 5.2-4.2 5.5-3.9.3.3-1.4 2.4-3.9 4.5zm-309-2.2c0 1.2-2 2.5-2.7 1.8-.7-.7.6-2.7 1.8-2.7.5 0 .9.4.9.9zm47.7.8c.4 1.2-5.4 2.9-6.5 1.8-1-.9 2.9-3.6 4.7-3.3.8.2 1.6.8 1.8 1.5zm225.8 1.2c-.9 1.6-2.5.3-1.8-1.5.4-1 .9-1.2 1.5-.6s.7 1.5.3 2.1zm43.5-.8c0 .5-.7.9-1.5.9-1.5 0-2-1.2-.9-2.3.8-.8 2.4.1 2.4 1.4zm-25 1.3c0 .8-.5 1.8-1.1 2.2-1.4.8-3.3-1.1-2.5-2.5 1-1.6 3.6-1.3 3.6.3zm-289.6 2.7c-1.2 1.3-2 1.6-2.2.9-.3-.7.2-1.6.9-2.1 2.5-1.6 3.2-.9 1.3 1.2zm113.3.1c-.3.8-.6.5-.6-.6-.1-1.1.2-1.7.5-1.3.3.3.4 1.2.1 1.9zM192 198c.9 1.7.7 2.2-1.3 2.9-3.5 1.4-6.2.7-6.2-1.5 0-1.1 1-2.1 2.5-2.5 3.8-1.1 3.9-1 5 1.1zm263-1c0 .5-.4 1-1 1-.5 0-1-.5-1-1 0-.6.5-1 1-1 .6 0 1 .4 1 1zm-186.6 12c.5 5.2.4 7.2-.3 6.5-.6-.6-1.3-5.1-1.6-10-.6-10.5.8-7.9 1.9 3.5zm20.1-10.1c.3.5.1 1.2-.5 1.6-.5.3-1-.1-1-.9 0-1.8.6-2.1 1.5-.7zm159.5-.1c0 .4-1.8 2.6-4 4.7-4.7 4.6-5.5 2.6-.8-2.2 3.1-3.2 4.8-4.1 4.8-2.5zm-36 4.3c0 1.4-3 2.3-4 1.3-.4-.5-1.1-1.9-1.4-3.1-.7-2.1-.6-2.2 2.3-.7 1.7.9 3.1 2 3.1 2.5zM258 201c0 .5-.4 1-1 1-.5 0-1-.5-1-1 0-.6.5-1 1-1 .6 0 1 .4 1 1zm111.3.8c-.3 1.3-1.4 1.9-3.4 1.9-3.3 0-3.8-1.1-1.1-2.6 2.8-1.7 5.1-1.3 4.5.7zm34.7-1.4c0 .3-.4.8-1 1.1-.5.3-1 .1-1-.4 0-.6.5-1.1 1-1.1.6 0 1 .2 1 .4zm-294 3.2c0 .8-.5 1.2-1 .9-.6-.4-.8-1.1-.5-1.6.9-1.4 1.5-1.1 1.5.7zm294.3 2.9c-.3.8-1.4 1.5-2.4 1.5-2.3 0-2.4-.4-.3-2.4 1.8-1.9 3.6-1.2 2.7.9zm42.7-.7c0 .4-1.6 2.3-3.5 4.2-4 3.9-4.4 5-1.5 4.3 2.2-.6 5.3 1.4 4.4 2.9-.3.5-1.2.4-2-.3-1.2-1-1.9-.8-3.7.9-1.4 1.4-1.7 2.2-.8 2.2 1.1 0 1.1.3.1 1.5-.7.8-.9 2.2-.6 3.1.5 1.3.2 1.5-1.3 1.1-2-.5-4.6 1.4-3.5 2.6.3.3-.3.3-1.4 0-2.2-.5-2-2.2.9-8 1.1-2.1 1.9-4.4 1.9-5.3.1-2.8 2.6-6 6.1-7.9 4-2.2 4.9-2.4 4.9-1.3zm-257.3 2.4c-.3.8-.6.5-.6-.6-.1-1.1.2-1.7.5-1.3.3.3.4 1.2.1 1.9zm68 2.5c-.3 1-.5.4-.5-1.2 0-1.7.2-2.4.5-1.8.2.7.2 2.1 0 3zm152-1.2c.5 1.6-1.4 3.8-2.6 3.1-1.8-1.2-1.3-4.8.6-4.4.9.2 1.8.7 2 1.3zm39.3.5c0 .5-.4 1-1 1-.5 0-1-.5-1-1 0-.6.5-1 1-1 .6 0 1 .4 1 1zm-209 3c0 .5-.4 1-1 1-.5 0-1-.5-1-1 0-.6.5-1 1-1 .6 0 1 .4 1 1zm127 3.6c-.9 3.9-1.7 5.1-2.6 4.1-.4-.4-.1-1.3.6-2.2.7-.8.9-2.2.6-3.1-.7-1.8.1-3.7 1.4-2.9.4.3.4 2.1 0 4.1zm34-3.7c0 1.2-2 2.5-2.7 1.8-.7-.7.6-2.7 1.8-2.7.5 0 .9.4.9.9zm-209.7 1.6c-.3.9-.8 1.4-1 1.1-.3-.3-.2-.9.2-1.5.9-1.6 1.5-1.3.8.4zm67.4 2.2c-.3 1-.5.4-.5-1.2 0-1.7.2-2.4.5-1.8.2.7.2 2.1 0 3zm30.6-1c.3 1.6.3 3.2-.1 3.7-.6 1.1-2-2-2.1-4.7-.1-2.8 1.6-2 2.2 1zM407 218c0 1.1-.7 2-1.5 2-1.5 0-2.1-2.1-.8-3.3 1.2-1.3 2.3-.7 2.3 1.3zm-287 2.4c0 1.7-1.4 2.9-2.3 2-.8-.8.3-3.4 1.4-3.4.5 0 .9.6.9 1.4zm139.7 3.3c-.3 1-.5.4-.5-1.2 0-1.7.2-2.4.5-1.8.2.7.2 2.1 0 3zm138.8-.7c-.3.5-1.1 1-1.6 1-.6 0-.7-.5-.4-1 .3-.6 1.1-1 1.6-1 .6 0 .7.4.4 1zm-203.8 2.2c-.3.8-.6.5-.6-.6-.1-1.1.2-1.7.5-1.3.3.3.4 1.2.1 1.9zM236 224c0 .5-.4 1-1 1-.5 0-1-.5-1-1 0-.6.5-1 1-1 .6 0 1 .4 1 1zm52.1 2.3c-.8.8-1.1.7-1.1-.4 0-2 1.3-3.4 1.8-1.9.3.7-.1 1.7-.7 2.3zM405 224c0 .5-.4 1-.9 1-.6 0-1.3-.5-1.6-1-.3-.6.1-1 .9-1 .9 0 1.6.4 1.6 1zm-40 3.2c0 1.7-.3 1.9-.9.9-.5-.7-1.4-1-2-.7-.6.4-1.1.3-1.1-.3 0-.9 1.5-1.8 3.3-2 .4-.1.7.9.7 2.1zm-166.7 1.6c-.3 1.2-1.2 2.2-1.9 2.2-1.8 0-1.8-.9.3-3.2 2-2.2 2.4-1.9 1.6 1zm38.4.4c-.3.8-.6.5-.6-.6-.1-1.1.2-1.7.5-1.3.3.3.4 1.2.1 1.9zM399 229c0 .4 1.1.5 2.5.2 2.8-.5 3 0 1.5 2.8-.8 1.6-1.5 1.8-3.5 1-1.5-.6-2.7-.6-3 0-.4.6-1.2 1-1.8 1-.7 0-.4-.7.6-1.4 2.3-1.8 2.2-3-.3-2.3-2.4.6-2.6-.8-.3-2.1 1.7-1 4.3-.5 4.3.8zm-110.3 2.2c-.3.7-.5.2-.5-1.2s.2-1.9.5-1.3c.2.7.2 1.9 0 2.5zm41.9-.7c-.3.9-1.1 1.3-1.6 1-.8-.5-.7-1.1.1-2.1 1.4-1.8 2.4-1.1 1.5 1.1zm102.4.2c0 1-4.2 5.3-5.2 5.3-1.4 0-.9-1.9 1.2-4 2-2 4-2.6 4-1.3zm-232.9 4.6c-1.3 1.3-2.6.3-1.6-1.2.3-.6 1.1-.8 1.7-.5.6.4.6 1-.1 1.7zm165.3-.8c-.4.8-.8 1.5-1 1.5-.2 0-.4-.7-.4-1.5s.4-1.5 1-1.5c.5 0 .7.7.4 1.5zm-238.4 1c-.7.9-1.5 1.3-1.7 1.1-.7-.7.7-2.6 1.9-2.6.6 0 .6.6-.2 1.5zm307-.7c0 .5-.9 1.7-2 2.7-2.2 2-2.6 1.4-1-1.6 1.1-1.9 3-2.6 3-1.1zM331 238c0 .5-.5 1-1.1 1-.5 0-.7-.5-.4-1 .3-.6.8-1 1.1-1 .2 0 .4.4.4 1zm29.2 2.2c-.6.6-1.4.9-1.7.6-.3-.3-.3-1.3.1-2.2.5-1.2 1-1.4 1.7-.7.8.8.8 1.4-.1 2.3zM401 238c0 .5-.4 1-1 1-.5 0-1-.5-1-1 0-.6.5-1 1-1 .6 0 1 .4 1 1zm27 1.1c0 .6-.5 1.9-1 3-1.3 2.3.2 2.6 2 .4s4-1.8 4 .6c0 1.6-.4 1.9-2 1.4-1.3-.4-2.2-.1-2.6.9-.7 1.8-2.2 2-4.2.7-1.1-.7-1.1-1.5.2-4.5 1.4-3.4 3.6-4.9 3.6-2.5zm-226 1.4c0 .8-.4 1.5-1 1.5-.5 0-.7-.7-.4-1.5.4-.8.8-1.5 1-1.5.2 0 .4.7.4 1.5zm97 .1c0 .9-.7 1.4-1.7 1.2-2.5-.5-2.8-2.8-.4-2.8 1.2 0 2.1.6 2.1 1.6zm93.7.8c-.3.7 0 1.9.6 2.6.9 1 .7 1.1-1 .5-3.1-.9-4.8.2-3.1 2.2 1 1.2.9 1.7-.4 2.4-.9.5-2.2 2.5-2.8 4.4-.6 1.9-1.6 3.5-2.2 3.5-.6 0-.7-.8-.3-1.8.4-.9 1.4-4.2 2.3-7.2.8-3 2-6.1 2.5-6.8 1.3-1.7 5.1-1.6 4.4.2zm-36.7.6c0 .5-.5 1-1.1 1-.5 0-.7-.5-.4-1 .3-.6.8-1 1.1-1 .2 0 .4.4.4 1zm43 3.1c0 .5-.4.9-1 .9-.5 0-1-.7-1-1.6 0-.8.5-1.2 1-.9.6.3 1 1 1 1.6zm47.1 1.2c-1 .9-1.1.8-.5-.6.3-1 .9-1.5 1.2-1.2.3.3 0 1.1-.7 1.8zm-242.7 1.9c-.4 1.5 0 2.6 1.4 3.7 1.8 1.5 3.9 7.1 2.6 7.1-2.3 0-7-9.9-6-12.6.9-2.3 2.8-.6 2 1.8zm129.6-2.4c0 1.3-1.2 2.2-2.2 1.6-1-.6-.1-2.4 1.3-2.4.5 0 .9.4.9.8zm27-.4c0 .3-.4.8-1 1.1-.5.3-1 .1-1-.4 0-.6.5-1.1 1-1.1.6 0 1 .2 1 .4zm-61 1.6c0 .5-.4 1-1 1-.5 0-1-.5-1-1 0-.6.5-1 1-1 .6 0 1 .4 1 1zm57 .5c0 .8-.4 1.5-1 1.5-.5 0-1-.7-1-1.5s.5-1.5 1-1.5c.6 0 1 .7 1 1.5zm73.4 1.1c2.2.9 1 2.3-1.4 1.7-1.1-.3-1.7-.9-1.4-1.4.6-1.1.8-1.1 2.8-.3zm-97 2.5c-.3.5-1 .7-1.5.3-.5-.3-.7-1-.3-1.5.3-.5 1-.7 1.5-.3.5.3.7 1 .3 1.5zm-156.4-.7c0 .3-.4.8-1 1.1-.5.3-1 .1-1-.4 0-.6.5-1.1 1-1.1.6 0 1 .2 1 .4zm221 .6c0 .5-.7 1-1.6 1-.8 0-1.2-.5-.9-1 .3-.6 1-1 1.6-1 .5 0 .9.4.9 1zm57.8 1.7c.5 1.8-2.3 1.6-3.9-.3-1.1-1.4-1-1.5 1.1-1.2 1.3.1 2.5.9 2.8 1.5zm-31.3 1.3c-1 1.1-2.2 2-2.7 2s-.4-.9.2-2c.6-1.1 1.8-2 2.7-2 1.4 0 1.4.2-.2 2zm-97.5 1c0 .5-.5 1-1.1 1-.5 0-.7-.5-.4-1 .3-.6.8-1 1.1-1 .2 0 .4.4.4 1zm-150.5 2c-1.5 1.7-1.6 2.2-.4 3.6 1.2 1.5 1.2 1.7-.1 1.2-2-.6-2.6-4.8-.8-5.9 2.4-1.6 3.1-.9 1.3 1.1zm156.5-.5c0 .9-.9 1.5-2.1 1.5-1.8 0-1.9-.2-.9-1.5.7-.8 1.6-1.5 2.1-1.5s.9.7.9 1.5zm62.2 1.7c-1.5 1.5-2.6.4-1.8-1.8.5-1.3.9-1.5 1.8-.6s.9 1.5 0 2.4zm-241 8.8c2.1 4 3.7 7.8 3.4 8.4-.2.6-.8-.1-1.4-1.6-.6-1.4-1.6-2.9-2.1-3.3-.6-.3-1.1-1.4-1.1-2.5 0-1-1.1-2.8-2.5-4.1-2.5-2.5-3.4-5.4-1.3-4.7.6.2 2.9 3.7 5 7.8zm146.8-5.9c0 .5-.4.9-1 .9-.5 0-1-.7-1-1.6 0-.8.5-1.2 1-.9.6.3 1 1 1 1.6zm55-1.1c0 .5-.4 1-1 1-.5 0-1-.5-1-1 0-.6.5-1 1-1 .6 0 1 .4 1 1zm-145.4 2.7c-1 1-1.9-.5-1-1.8.6-1.1.8-1.1 1.2 0 .2.7.1 1.5-.2 1.8zm39.4.3c0 .5-.5 1-1.1 1-.5 0-.7-.5-.4-1 .3-.6.8-1 1.1-1 .2 0 .4.4.4 1zm143 1c0 .5-.4 1-1 1-.5 0-1-.5-1-1 0-.6.5-1 1-1 .6 0 1 .4 1 1zm-38.2 1.2c-.3.7-1.3 1.5-2.4 1.7-1.6.3-1.7.1-.5-1.3 1.6-1.9 3.4-2.1 2.9-.4zm6.2.8c0 1.2-.7 2-1.7 2-.9 0-2.4.7-3.4 1.6-1 .9-1.9 1.1-2.3.5-.4-.5 1-2.1 3.1-3.5 4.5-3.1 4.3-3.1 4.3-.6zm63-1c0 .5-.4 1-1 1-.5 0-1-.5-1-1 0-.6.5-1 1-1 .6 0 1 .4 1 1zm-33.4 5.7c-1 1-1.9-.5-1-1.8.6-1.1.8-1.1 1.2 0 .2.7.1 1.5-.2 1.8zm-30.6 1.2c0 1-4.2 2.3-4.9 1.5-.7-.6 2-2.4 3.7-2.4.6 0 1.2.4 1.2.9zm-85.5 1c.3.6-.4 1.5-1.5 2.1-2.6 1.4-2.6 2.6.1 3.3 2.6.7 2.2 4.2-.6 4.2-1.5 0-2-.8-2.2-4-.3-4.9 2.4-8.5 4.2-5.6zm137.4 2.3c-.8 1.4-1.4 1.8-1.7 1-.4-1.3 1.7-4.6 2.5-3.8.3.2-.1 1.5-.8 2.8zm-81.4-1.2c.3.5.1 1-.4 1-.6 0-1.1-.5-1.1-1 0-.6.2-1 .4-1 .3 0 .8.4 1.1 1zm22 1c.3.5.1 1-.4 1-.6 0-1.1-.5-1.1-1 0-.6.2-1 .4-1 .3 0 .8.4 1.1 1zm36.5.4c0 .3-.4.8-1 1.1-.5.3-1 .1-1-.4 0-.6.5-1.1 1-1.1.6 0 1 .2 1 .4zm-121.3 4.8c-.3.8-.6.5-.6-.6-.1-1.1.2-1.7.5-1.3.3.3.4 1.2.1 1.9zM350 282c0 .5-.4 1-1 1-.5 0-1-.5-1-1 0-.6.5-1 1-1 .6 0 1 .4 1 1zm-184.6 8.1c1.3 2.5 4.4 8.1 7 12.6 2.5 4.4 4.6 8.4 4.6 8.9s1.6 3.3 3.5 6.3c1.9 2.9 3.5 5.6 3.5 5.9 0 .4 1 1.9 2.3 3.2 1.2 1.4 3.3 4.8 4.7 7.5 1.4 2.7 3.1 5.6 3.8 6.3.7.8 2.6 4.3 4.2 7.9 2.2 4.7 2.7 7 2 8.2-.9 1.5-.9 1.5-1-.1 0-.9-.7-2.1-1.7-2.6-.9-.6-1.4-1.6-1-2.5.8-2.1-1.2-3.4-2.4-1.6-.6 1-.9.8-.9-1 0-1.6-.4-2.1-1.5-1.8-1.7.7-3.2-1.2-1.8-2.2 1.5-.9 2.6-5.1 1.4-5.1-.5 0-1.3-.9-1.6-2.1-1.1-3.5-10.4-16.8-12.5-17.9-1.1-.6-2-2.1-2-3.3 0-1.2-.7-3.2-1.5-4.3-.8-1.2-1.6-3.3-1.9-4.7-.5-2.9-4.3-10.4-6.4-12.5-1.3-1.4-6.2-11.7-6.2-13 .1-1.2 3 3 5.4 7.9zm102.3-2.9c-.2 1.3-.4.5-.4-1.7-.1-2.2.1-3.2.4-2.3.2 1 .2 2.8 0 4zM356 284c0 .5-.4 1-1 1-.5 0-1-.5-1-1 0-.6.5-1 1-1 .6 0 1 .4 1 1zm-103.1 6.1c-1.2 2.1-1.4 2.2-1.7.6-.6-2.8.6-5.3 1.9-4 .8.8.7 1.8-.2 3.4zm151.3-.4c-.5 1.5-1.3 3.6-1.6 4.6-.3 1-1 1.6-1.6 1.2-.5-.3-.1-2.4 1.2-5 2.3-4.8 3.7-5.3 2-.8zM275 288c0 1.2-2.8 2.5-3.6 1.7-.9-.9.6-2.7 2.2-2.7.8 0 1.4.5 1.4 1zm72.6 1.6c-.3.8-.1 1.4.4 1.4s1.3 1.8 1.6 4c.4 2.4 1.2 4 2 4 1.6 0 1.9 1.6.4 2.5-.6.4-.8 1.5-.5 2.6.7 2-.2 5.9-1.3 5.9-.4 0-.8-1.2-.9-2.8-.3-4.6-.8-7.7-1.3-8.2-3.5-3.5-4.2-13.5-.8-11.4.5.3.7 1.2.4 2zm7.4 0c0 .9-.5 1.4-1.2 1.2-1.8-.6-2.1-2.8-.4-2.8.9 0 1.6.7 1.6 1.6zm23-1.2c0 .3-.4.8-1 1.1-.5.3-1 .1-1-.4 0-.6.5-1.1 1-1.1.6 0 1 .2 1 .4zM221 294c0 .5-.4 1-1 1-.5 0-1-.5-1-1 0-.6.5-1 1-1 .6 0 1 .4 1 1zm34-.1c0 .5-.7 1.4-1.5 2.1-1.2 1-1.5 1-1.5-.2 0-.8.3-1.8.7-2.1.9-1 2.3-.9 2.3.2zm99 1.1c0 .5-.4 1-1 1-.5 0-1-.5-1-1 0-.6.5-1 1-1 .6 0 1 .4 1 1zm-63.3 2.2c-.3.8-.6.5-.6-.6-.1-1.1.2-1.7.5-1.3.3.3.4 1.2.1 1.9zM274 297c0 .5-.5 1-1.1 1-.5 0-.7-.5-.4-1 .3-.6.8-1 1.1-1 .2 0 .4.4.4 1zm-50.6 2.5c-.4.8-1 1.2-1.5.9-1.1-.6-.2-2.4 1.1-2.4.5 0 .7.7.4 1.5zm32.2 2c-.3.9-1.1 1.3-1.6 1-.8-.5-.7-1.1.1-2.1 1.4-1.8 2.4-1.1 1.5 1.1zm144.4-1c0 .8-.4 1.5-1 1.5-.5 0-1-.7-1-1.5s.5-1.5 1-1.5c.6 0 1 .7 1 1.5zM291.5 305c.1 1-.2 1.7-.7 1.4-.4-.3-.8-1.5-.8-2.6 0-2.6 1.3-1.5 1.5 1.2zm-66.4 2.7c-.9 1.7-1 1.7-1.6 0-.4-.9-.4-2.5 0-3.5.6-1.6.7-1.6 1.6 0 .7 1.2.7 2.4 0 3.5zm47.5-2.7c.8 0 1.4-.5 1.4-1 0-.6.5-1 1-1 .6 0 1 .7 1 1.5 0 .9-1 1.5-2.6 1.5-3.1 0-2.8 2 .4 3.5 3.1 1.4 2.7 2.7-.5 2.3-2.6-.3-2.8-.7-3-4.8-.1-2.5 0-3.9.3-3.3.3.7 1.2 1.3 2 1.3zm46.5 7.3c-1.3 1.3-1.5-1.4-.3-6.4l.7-3.4.3 4.4c.2 2.4-.2 4.9-.7 5.4zm-62.1-5.2c0 .5-.4.9-1 .9-.5 0-1-.7-1-1.6 0-.8.5-1.2 1-.9.6.3 1 1 1 1.6zm139.2.1c-.7.7-1.2.8-1.2.2 0-1.4 1.2-2.6 1.9-1.9.2.3-.1 1.1-.7 1.7zm-134.6 1.5c-1 1-1.9-.5-1-1.8.6-1.1.8-1.1 1.2 0 .2.7.1 1.5-.2 1.8zm-34.5 3.6c-.1 1.2-1.5.9-1.9-.4-.3-.6.1-1 .8-.8.6.3 1.1.8 1.1 1.2zm173.9-.9c0 .3-.4.8-1 1.1-.5.3-1 .1-1-.4 0-.6.5-1.1 1-1.1.6 0 1 .2 1 .4zm-76 1c0 1.1-1.9 1.5-2.5.6-.3-.5.1-1 .9-1 .9 0 1.6.2 1.6.4zm-61 1.4c0 1.3-1.2 2.2-2.2 1.6-1-.6-.1-2.4 1.3-2.4.5 0 .9.4.9.8zm86.4 0c.2.4 0 2.7-.6 5.2-.5 2.5-1.1 5.6-1.2 7-.2 1.4-.4 2.9-.5 3.5-.1.5-.6.3-1.1-.5-.5-.8-.7-2.5-.3-3.8.4-1.6-.2-3.1-1.8-4.9l-2.4-2.6 3.3.6c3 .6 4.6-.7 2-1.5-.6-.2-.9-1.2-.5-2.1.7-1.8 2.2-2.3 3.1-.9zm-45.1 2.2c10 2.5 10.6 2.9 15.7 9.5 2.4 3.1 5.5 6.4 7 7.5 1.5 1.1 4 4.7 5.6 8.2 3.5 7.6 3.6 13.2.4 23.6-2.5 8.3-5.1 10.9-9.1 9.3-1.3-.5-3.3-1.2-4.3-1.6-1.9-.5-1.9-.6.2-2.1 2.9-2 2.9-8.8.1-15.5-2.3-5.2-3-5.7-4.8-3.5-.9 1.1-1 2-.1 3.6s.8 2.5-.1 3.6c-1.7 2-2.2 1.8-3.8-1.6-1.4-3.3-7.5-7-11.3-7-1.3 0-3.9.9-5.8 1.9-1.9 1.1-4.5 2.5-5.6 3.1-1.8 1-2.5.9-4.4-1-2-2-2.3-2-4.5-.6-3.2 2.1-5.7 2-5.3-.1.5-2.7-2.6-2.7-5.8 0-2.1 1.8-4.6 2.6-9.1 3-3.5.3-6.5.2-6.8-.3-.3-.4 1.6-2.5 4.1-4.5 3.4-2.8 4.4-4.3 4-5.8-.3-1.2.3-3.1 1.5-4.5 1-1.4 1.9-2.9 1.9-3.5 0-.6 2.3-4.5 5.1-8.8 6.5-9.9 11.1-13.2 19.3-14 3.4-.3 6.6-.7 7.2-.7.6-.1 4.5.7 8.7 1.8zm-31.3 0c0 .5-.7 1-1.6 1-.8 0-1.2-.5-.9-1 .3-.6 1-1 1.6-1 .5 0 .9.4.9 1zm-100 1.9c0 .6-.4 1.3-1 1.6-.5.3-1-.1-1-.9 0-.9.5-1.6 1-1.6.6 0 1 .4 1 .9zm85 2.1c0 .5-.2 1-.4 1-.3 0-.8-.5-1.1-1-.3-.6-.1-1 .4-1 .6 0 1.1.4 1.1 1zm7.4.9c.9 1.4-1.9 3.2-3.8 2.5-1.3-.5-1.4-.9-.5-2 1.3-1.6 3.5-1.8 4.3-.5zm132.8 1.3c-.7.7-1.2.8-1.2.2 0-1.4 1.2-2.6 1.9-1.9.2.3-.1 1.1-.7 1.7zm-58.8 3.1c-.8.4-1.4 1.8-1.4 2.9 0 1.2-.2 1.9-.5 1.6-.3-.3-.3-2.4.1-4.7.6-3.7.8-3.9 2-2.4 1 1.5 1 1.9-.2 2.6zM177.5 324c.3.5.2 1-.4 1-.5 0-1.3-.5-1.6-1-.3-.6-.2-1 .4-1 .5 0 1.3.4 1.6 1zm215.1 3.8c-2 2-2.2.1-.3-2.8 1-1.8 1.2-1.8 1.5-.4.2.9-.3 2.4-1.2 3.2zm-126.6.1c0 .5-.7 1.1-1.5 1.5-1.5.5-2-.5-.8-1.7.9-1 2.3-.9 2.3.2zm99 1.1c0 .5-.4 1-1 1-.5 0-1 1.1-1 2.4 0 1.3-.6 2.6-1.2 2.9-.7.2-2.2 3.2-3.2 6.6-1.1 3.3-2.1 5.9-2.4 5.6-.6-.6 1.8-9.7 2.9-11 .5-.5.9-1.6.9-2.5 0-.8.7-2.6 1.6-3.8 1.6-2.3 3.4-2.9 3.4-1.2zm30.2 1.2c-.7.7-1.2.8-1.2.2 0-1.4 1.2-2.6 1.9-1.9.2.3-.1 1.1-.7 1.7zm-55.9 5c2.1 1.1 2.1 1.1.2 1.8-2.4.9-3.5.4-3.5-1.6 0-1.7.5-1.7 3.3-.2zm15.7 1.2c0 .3-.4.8-1 1.1-.5.3-1 .1-1-.4 0-.6.5-1.1 1-1.1.6 0 1 .2 1 .4zm-14.5 4.6c.3.5.1 1-.4 1-.6 0-1.1-.5-1.1-1 0-.6.2-1 .4-1 .3 0 .8.4 1.1 1zm5.5 1c0 1.1-.4 2-1 2-.5 0-1-.9-1-2s.5-2 1-2c.6 0 1 .9 1 2zm-156 .6c0 .2-.7.4-1.5.4s-1.5-.4-1.5-1c0-.5.7-.7 1.5-.4.8.4 1.5.8 1.5 1zm191 .4c0 .5-.5 1-1.1 1-.5 0-.7-.5-.4-1 .3-.6.8-1 1.1-1 .2 0 .4.4.4 1zm-138 1c-.8.5-1.9 1-2.5 1-.5 0-.3-.5.5-1s2-1 2.5-1c.6 0 .3.5-.5 1zm101.6 3.7c-1 1-1.9-.5-1-1.8.6-1.1.8-1.1 1.2 0 .2.7.1 1.5-.2 1.8zm-95.6 1.2c0 2.5-4.2 7.1-6.4 7.1-.9 0-1.6-.7-1.6-1.5 0-1.4 1.1-1.9 3.6-1.6 1.6.2 2.6-2.7 1.2-3.5-.7-.4-.6-.9.3-1.5 2.2-1.3 2.9-1.1 2.9 1zm119.4 8.5c-1.6 3.6-3.4 6.6-4.1 6.6-1.8 0-2.6-4.1-1.5-8.1.7-2.9 1.3-3.4 3.5-3.2 2.7.2 3.8-1.9 1.7-3.2-.5-.3-1-1.1-1-1.8 0-.6 1-.2 2.1 1l2.2 2.1-2.9 6.6zm11.6-8.8c0 .8-.4 1.2-1 .9-.5-.3-1-1-1-1.6 0-.5.5-.9 1-.9.6 0 1 .7 1 1.6zm-3 3.4c0 1-.4 2-3.3 7.8-.9 1.9-1.7 4.3-1.7 5.4 0 1-.7 2.6-1.5 3.4-.8.9-1.5 2.8-1.5 4.3 0 1.6-.7 3.4-1.5 4.1-.9.7-1.3 2-1 2.8.3.8 0 2-.6 2.8-.7.9-.7 1.9.1 3.5 1.1 2 1 2.1-1.3 1.5-2.2-.5-2.6-.3-2.9 2.1-.3 3.1-3.1 3.9-3.6 1.1-.2-.9 1.3-4.9 3.2-9 2-4 3.6-7.8 3.6-8.5 0-.6 1.5-3.7 3.3-7 1.8-3.2 4.2-7.9 5.3-10.5 1.7-4.4 3.4-6.2 3.4-3.8zm-23.3 4.8c-1.4 1.8-1.9.9-1.1-2.4.6-2.5.8-2.6 1.4-.9.4 1.1.3 2.6-.3 3.3zm-9.7-2.2c0 1.4-.3 1.4-1.5.4-.8-.7-1.5-1.4-1.5-1.6 0-.2.7-.4 1.5-.4s1.5.7 1.5 1.6zm-49.8 4.3c-1.7 1.7-3.2 3.4-3.2 4 0 1.6-3.2 2.1-6.5 1.2-1.6-.5-2.2-1-1.2-1 1-.1 3-.9 4.5-2 8.6-5.8 11.5-6.8 6.4-2.2zM204 358c0 .5-.4 1-1 1-.5 0-1-.5-1-1 0-.6.5-1 1-1 .6 0 1 .4 1 1zm44 1.5c-.7.8-2.2 1.5-3.4 1.5-2.1-.1-2.1-.1-.2-1.5 2.7-2.1 5.3-2 3.6 0zm28.4.3c.5.3.1.9-1 1.4-1.4.6-1.2.7.9.3 5.1-1 2.7 1.3-3 3-8.2 2.4-12.8 3.1-11.9 1.7.3-.5 0-1.2-.6-1.5-1.8-.6.7-3.5 4.6-5.2 2.9-1.3 8.7-1.1 11 .3zm75.2 1.9c-1 1-1.9-.5-1-1.8.6-1.1.8-1.1 1.2 0 .2.7.1 1.5-.2 1.8zm5.5 3.2c-.7 1.1-1.9 2.1-2.8 2.1-1.3 0-1.3-.3-.3-1.5 1-1.1 1-1.8.1-2.9-1.6-1.9.9-2.9 2.7-1.1 1.1 1 1.1 1.7.3 3.4zm-42.4 4.3c-.2 1.3-.4.3-.4-2.2s.2-3.5.4-2.3c.2 1.3.2 3.3 0 4.5zm-114.4-2.1c2.9-.1 5.8-.8 6.5-1.3.8-.8 1.2-.6 1.2.5 0 1.9-1.2 2.3-8.3 3.2-5.5.7-5.7.6-6.7-2-1.4-3.7-1.2-4.4.6-2 1.2 1.6 2.4 1.9 6.7 1.6zm150.3 3.3c.9.3 2 .4 2.4.1 1.2-.7 2.3 1.2 1.5 2.5-.5.8-1.1.8-2 0-1.7-1.4-4.2-.3-4.8 2.1-.3 1-1 1.9-1.7 1.9-1.3 0-.5-5.1 1.3-8.5 1-1.7 1.2-1.8 1.5-.3.2.9 1 1.9 1.8 2.2zm-122.2.2c.6 1.5 2 1.6 11.7.9 11-.7 11.1-.7 10 1.4-.9 1.5-1.8 1.9-3.9 1.5-3.2-.6-12.4 2.6-13 4.5-.4 1.1.1 1.2 1.9.7 4.9-1.6 7.9-1.8 7.9-.7 0 .6.5 1.1 1.1 1.1 1.6 0 8-3.1 10.8-5.2 3.1-2.3 5.1-2.3 5.1.1 0 2.5-2 3.8-3.1 2-.7-1.1-1.3-.9-2.8 1-1.2 1.5-2.4 2.2-3.4 1.8-2.3-.9-6.4 5-4.8 6.6 1 .9 1.5.8 2.5-.6 1.7-2.2 2.6-2.2 2.6.3 0 3.1 2.7 2.4 3.9-1 1.1-3.2 2.2-4.1 1.5-1.3-.6 2.7 1.2 5.1 2.7 3.6 1-1 1.5-.9 2.5.5 1.1 1.5 1.4 1.3 2.8-2.1.9-2 2.1-3.7 2.7-3.7.6 0 .8.7.5 1.5-.3.8-.9 2.2-1.2 3-.9 2.2 2.4 3.1 4 1 2.1-3 3.3.3 3.9 11 .4 5.5.9 11.1 1.2 12.5.5 1.8 0 3.3-1.5 5l-2.1 2.5.4-10.8c.3-5.9.1-10.7-.4-10.7-3.2 0-4.5 14.9-1.9 22.5 1 3 1.7 6.4 1.5 7.7-.4 2.1-2.3 14.9-2.6 17.3 0 .5-.5-.6-.9-2.5-.5-2.1-.5-5.2.2-7.8.7-3 .7-5.5-.1-8.6-.6-2.5-1.1-7.5-1.1-11.1 0-8.6-2.3-8.6-3 .1-.5 5.5.4 10.1 2.4 13.3.5.8.4 1.6-.5 2.2-2.5 1.6-3.9-2.1-3.9-10.3 0-9.8-1.7-10.3-2.2-.6-.2 5.1.4 9.8 2.1 16.9 2.1 8 2.3 10.2 1.3 12.1-.7 1.3-1.1 4.3-.9 6.8.1 3.4-.2 4.5-1.3 4.5-1.7 0-6.9-12.5-7-16.7 0-3.7-1-5.8-2.6-5.8-.8 0-1.7-.7-2-1.5-.6-1.4-.8-1.3-2 .2-1.3 1.7-1.3 1.7-1.4 0 0-.9-.4-1.7-.9-1.7-1.4 0-2.4 7.5-1.6 13 .5 3.4.3 5-.4 5-.6 0-1.1.9-1.1 2.1 0 1.5-.4 1.9-1.9 1.4-3.5-1.1-3.4 1.6.1 5.3 2 2.1 3.8 4.5 4.1 5.4 1.1 3.1-1.9 2-5.4-2-4.9-5.7-10.9-8.3-10.9-4.7 0 .8.4 1.5 1 1.5.5 0 3.1 2.2 5.8 4.9 2.6 2.6 5.4 5 6.2 5.3 1.2.4 1.2.9.1 3.7-1.5 3.5-3.4 3.7-3.9.3-.4-2.7-8.8-8.6-11.1-7.7-1.3.5-.8 1.3 2.2 3.7 2.1 1.7 4.4 4.6 5.2 6.5.8 1.9 2.4 3.7 3.5 4 2.3.6 2.5 1.4.8 3.1-.9.9-1.9.3-4.5-2.5-2.5-2.7-3.7-3.3-4.5-2.5-.8.8-.4 2 1.6 4.7 1.5 1.9 2.4 3.5 2.1 3.5-3 0-11.5-7.6-11.5-10.3 0-1.3-4.7-5.9-13.3-13.1-4-3.4-6.2-4.5-6.9-3.8-1.5 1.5-.2 3.1 8.3 10.5 4.2 3.6 7.9 7.5 8.2 8.7.5 2 .5 2-2 .1-1.3-1.1-3.3-3.1-4.5-4.6-1.1-1.4-4.5-4.3-7.6-6.5-3.2-2.2-7.5-5.5-9.8-7.5-4.1-3.5-14.4-8-22.2-9.6-2.3-.4-5.1-1.3-6.1-1.9-2.8-1.4-10.7-1.2-17.1.5-3 .8-5.5 1.3-5.6 1.2-.1-.1 1.6-3.1 3.7-6.7 2.2-3.6 4.2-7.6 4.5-9 .3-1.4 2-6.1 3.7-10.5 2.6-6.7 4.4-9.3 10.7-16 4.2-4.4 9.8-11.2 12.5-15 10.2-14.5 14.7-17.9 28-21.5 4.4-1.2 9.1-2.5 10.5-3 4.6-1.5 11.7-1.2 12.4.6zm51.6-.8c0 1.4-1.1 2.1-2.6 1.5-2.1-.8-1.7-2.3.6-2.3 1.1 0 2 .4 2 .8zm24.5 1.8c2.2.7 4.7 1.4 5.6 1.4.8 0 2.4.7 3.5 1.5 1.8 1.4 1.6 1.4-1.6.8-1.9-.3-3.9-.9-4.5-1.3-1.4-1-8-2.1-15.5-2.4-3.4-.2-6.7-.9-7.3-1.6-1.6-1.7 14.1-.4 19.8 1.6zm-36.5.9c-1.2 1.5-3 1.2-3-.6 0-.5 1-.9 2.1-.9 1.8 0 1.9.2.9 1.5zm72.5 2.5c.3.5.1 1-.4 1-.6 0-1.1-.5-1.1-1 0-.6.2-1 .4-1 .3 0 .8.4 1.1 1zm37.5 7.5c-1.1 1.4-4 2.1-4 1 0-.2.8-2.4 1.7-4.7l1.7-4.3.9 3.2c.7 2.3.6 3.7-.3 4.8zm-88-1.4c0 .5-.4.9-1 .9-.5 0-1-.7-1-1.6 0-.8.5-1.2 1-.9.6.3 1 1 1 1.6zm43.5 0c.4.6.5 1.2.2 1.5-.7.7-3.7-.7-3.7-1.7 0-1.3 2.7-1.1 3.5.2zm37 .9c.3.5.1 1-.4 1-.6 0-1.1-.5-1.1-1 0-.6.2-1 .4-1 .3 0 .8.4 1.1 1zm-21.4 4.3c-1.4 1.4-4.4-.2-4.9-2.6-.3-1.5-.1-1.5 2.8 0 2.3 1.1 2.9 1.8 2.1 2.6zm-37.6-1.3c.3.5.2 1-.4 1-.5 0-1.3-.5-1.6-1-.3-.6-.2-1 .4-1 .5 0 1.3.4 1.6 1zm-9.8 2.6c-.9.9-2.8-.6-2.1-1.8.4-.6 1-.6 1.7.1.6.6.8 1.3.4 1.7zm-17.2 1.6c-.3.7-.1 2.6.3 4.3l.9 3 1.7-3.3c1.2-2.4 2.2-3.1 3.5-2.7 1 .3 2.4-.1 3.1-1 1.3-1.5 4-2.1 4-.8-.1.5-1.8 2-4 3.5-3.4 2.4-7.7 7.3-13.3 15.3-1 1.4-2.2 2.3-2.8 2-1.2-.8-1.2-19.2 0-20 .6-.3 1.3 1.6 1.6 4.2.9 6.7 1.5 8.4 2.6 7.8.5-.4.9-3.5.9-7.1 0-3.5.4-6.4 1-6.4.5 0 .7.6.5 1.2zm43.6 1.6c6-.6 16.2 2.1 16.7 4.5.2.8 1.5 1.8 2.9 2.2 2.2.5 2.4 1 1.9 3.8-1.8 8.7-1.8 9.7-.3 9.7.8 0 2.9-2.5 4.6-5.5 1.7-3 3.5-5.5 4-5.5s1.9.8 3 1.8l2.2 1.7-2.6 5.7c-1.4 3.2-2.9 7.3-3.2 9.3-.9 5.3 2 4.6 4.7-1.3 4.7-10.1 5.8-11.7 8.7-12 2.3-.3 2.6-.1 1.6.9-1.5 1.5-1.7 9.5-.3 10.4 1.5.9 6-2.5 6-4.7 0-1.1-.5-2.8-1-3.8-.6-1-.6-2.1-.2-2.4 1.3-.8 2.8.7 3 2.9.3 4.9 1.5 8.5 2.8 8.5 1.6 0 1.8-3.3.4-6-.7-1.4-.7-2.5.2-3.9.9-1.5.9-2.3-.1-3.5-.8-.9-1.9-1.6-2.5-1.6-1.7 0-4.2-4.3-2.7-4.8.6-.2 1.1-1.1 1.1-1.9 0-1.1-.7-1.4-2.5-1.1-3.6.7-3.1-.9.6-1.7 2.7-.6 3.5-.3 5.9 2.6 1.6 1.9 3.1 4.4 3.4 5.6.3 1.1 2.4 5.2 4.6 9.1 4 7 5 12.1 3 15.2-.9 1.3-1.3 1.1-2.9-1-1.1-1.4-2.3-2.2-2.7-1.8-.4.4.5 2.3 1.9 4.1 2.9 3.9 4.5 8.7 2.8 8.7-.6 0-1.7-1.2-2.5-2.8-1.7-3.3-5.4-6.8-6.3-5.9-.3.4.3 1.7 1.4 3 3.2 3.4 5.8 9 4.4 9.5-.6.2-1.1 1.4-1.1 2.6 0 2.1-1.7 4.6-3.1 4.6-.4 0-1-2.1-1.4-4.6-.8-5.8-2.9-5.3-3.3.8-.2 2.6-1 5.2-1.8 5.9-1.4 1.1-1.5.8-.9-2.7.4-2.1.8-4.3.9-4.8 0-.6-.7-1.2-1.6-1.4-1.2-.2-1.8.3-1.8 1.4 0 1.6-.1 1.6-2-.1-2.3-2.1-2.5-1.7-3.4 6-.6 4.9-2 7.5-3.2 6.2-.4-.4-.2-1.8.4-3.2.7-1.4 1.2-4 1.2-5.6 0-4.3-2.3-3.2-3.1 1.4-.8 5.3-2.3 6.1-1.6 1 .6-5.1-.3-6-3-3-3.9 4.3-3.3 10.5.9 9.1 1.5-.4 1.9-.2 1.6.7-.3 1-3.4 1.5-11.4 1.9-6 .3-11.3.2-11.9-.2-.5-.5-1.7-.8-2.7-.8-2.6 0-8.9-3.1-12-5.9-2.7-2.4-2.8-2.4-9.9-1.1-6.8 1.3-7.5 1.3-13.8-.9-8.3-3-17.1-9.3-17.1-12.4 0-2.9-1.5-5.1-2.9-4.3-1.8 1.2-1.3 4.5 1.5 9.3l2.7 4.5-2.9 2.3c-3.3 2.6-3.1 3.2 2.2 5l3.8 1.3-3.3 1.6c-3 1.6-3.5 1.6-5.7.1-2.5-1.6-2.9-4.5-2.4-17 .3-8.3 4.8-26.5 5-19.8.1 5.8 4.3 2.2 4.5-3.8.1-3 1.1-5.2 4-9 5.4-6.9 11-10.6 20.2-13.3 6.9-2 8-2.1 9.5-.8 1.2 1 3.3 1.3 6.9 1zM295 449c0 .5-.4 1-1 1-.5 0-1-.5-1-1 0-.6.5-1 1-1 .6 0 1 .4 1 1zm-26 2.9c0 1.2-2 2.5-2.7 1.8-.7-.7.6-2.7 1.8-2.7.5 0 .9.4.9.9zm35.8 4.2c.3 3.6.1 4.2-1 3.1-1.5-1.5-1.9-8.4-.4-7.9.6.2 1.2 2.3 1.4 4.8zm-135.2-.8c2.8.8 7.2 2.4 9.7 3.6 2.5 1.2 5.2 2.1 5.9 2.1.7 0 4 2.3 7.3 5.2 3.3 2.8 7.3 5.9 8.9 6.9 4.8 2.9 13.6 12 16.3 16.9 1.4 2.5 3.7 6.2 5 8.3 1.4 2.2 2.2 4.1 1.9 4.5-1 .9-4.6-3-4.6-5.1 0-1.5-.5-1.8-2.1-1.4-1.7.5-2 .2-1.6-1.5.8-2.9-4-9.5-8-11-1.7-.6-3.2-1.4-3.1-1.7.2-2.1-.4-3.1-1.8-3.1-.9 0-1.8-.9-2.1-2-.3-1.1-.9-2-1.3-2-.5 0-4-2.6-7.8-5.8-3.8-3.2-8.3-6.3-9.8-6.9-1.6-.5-5.1-1.8-7.9-2.8-2.7-1-9.3-2.1-14.5-2.5-5.2-.5-10.4-.9-11.5-1-1.3-.1-.7-.7 2-1.6 4.5-1.5 11.6-1.2 19.1.9zm123.7 4.9c.3 2.4.2 4.7-.2 5.1-1 1-4.4-4-3.6-5.2.3-.5 0-1.1-.7-1.3-1.7-.6 0-2.8 2.1-2.8 1.4 0 2 1 2.4 4.2zm40.1-2.7c1.5 1.1 1.6 1.5.5 1.5-1.6 0-4.5 3.6-6.9 8.5-.8 1.6-2 3.8-2.8 4.7-.8.9-1.1 2.1-.8 2.6.3.5-.6 2.1-2.1 3.6-2.3 2.3-2.5 3-1.5 5.1 1 2.1.9 2.5-.3 2.5-.8 0-1.5.7-1.5 1.7 0 .9-1.1 3.9-2.4 6.7-1.3 2.8-2.6 5.9-3 6.8-.4 1.5-3.6 2.7-3.6 1.5 0-1.4 4.6-13 8.8-22.2 2.7-6.1 5.7-13.5 6.7-16.5 2.7-8.3 4.6-9.7 8.9-6.5zm-87.7 1.7c-.3.8-.6.5-.6-.6-.1-1.1.2-1.7.5-1.3.3.3.4 1.2.1 1.9zm31.3.3c0 .3-.9.5-2 .5s-2-.7-2-1.5c0-1.3.4-1.4 2-.5 1.1.6 2 1.3 2 1.5zm42 1.5c0 1.1-.4 2-1 2-.5 0-1-.9-1-2s.5-2 1-2c.6 0 1 .9 1 2zm-53.9 2.3c-1.3 1.3-2.6.3-1.6-1.2.3-.6 1.1-.8 1.7-.5.6.4.6 1-.1 1.7zm26.8 13.4c3.4 7 8.1 16.6 10.4 21.3 2.3 4.6 6.2 11.4 8.5 15 6.9 10.3 6.8 9.7 3 13.2-1.8 1.8-3.8 3.1-4.5 3-.6-.1-1.4.2-1.8.8-.3.5-1.1 1-1.7 1-.6 0-.3-.9.6-1.9 1-1.1 2.4-1.7 3.2-1.4 1.7.6 1.9-1.8.2-3.5-.9-.9-.9-1.5 0-2.4.7-.7 1.2-1.7 1.2-2.2 0-.6-1 0-2.1 1.4l-2.1 2.5.6-4.1c.5-3.6.2-4.5-2.3-7.1-1.6-1.7-3.2-4.4-3.6-6.1-.3-1.7-1.3-3.3-2.1-3.6-1-.4-1.3-1.3-.8-3.1.8-3.1-1.3-4.1-5.5-2.7-2.4.9-2.9.8-2.5-.3.3-.8 1.1-1.2 1.8-.9.7.3 1.8-.7 2.5-2.2 1.4-3.2-.2-5.8-3-4.9-2.2.7-2.5-.5-.6-2.4 1-1 .8-1.5-.8-2.7-1.1-.8-2-2.4-2-3.6 0-1.1-.9-2.6-2-3.2-1.1-.6-2.2-1.2-2.4-1.3-.2-.2.2-1 1-1.9 1.1-1.4 1.1-1.8-.2-2.8-.9-.6-1.4-1.7-1.1-2.4.6-1.9-1.9-4.4-3.7-3.7-1.1.4-1 .1.4-1.5 1.6-1.8 2-1.8 3.4-.6.9.8 4.5 7.3 8 14.3zM139 463.8c0 2.6-3.5 4.5-5 2.7-.9-1.1-1.7-1.2-3.2-.4-2.3 1.2-3.3.6-2.5-1.5.4-.9 2.3-1.6 4.9-1.9 2.4-.2 4.6-.4 5.1-.5.4-.1.7.6.7 1.6zm25.7-1.2c-.3.3-1.2.4-1.9.1-.8-.3-.5-.6.6-.6 1.1-.1 1.7.2 1.3.5zm4.7.3c.3.5 2.5 1.2 4.8 1.5 4.5.7 14.8 7 15.6 9.5.3.8-.9.4-2.9-1.1-1.9-1.4-4-2.3-4.6-2.1-.7.3-1.3-.3-1.3-1.2 0-1.1-.6-1.5-1.8-1.1-1 .4-2.7-.1-3.8-.9-1-.8-2.7-1.5-3.6-1.5-1 0-1.8-.5-1.8-1 0-.6-.5-.9-1.1-.8-.6.2-1.4-.3-1.6-1-.5-1.4 1.3-1.7 2.1-.3zm135.6 1.2c0 .5-.4.9-1 .9-.5 0-1-.7-1-1.6 0-.8.5-1.2 1-.9.6.3 1 1 1 1.6zm-150 1.1c1.1.7.8.8-1 .4-1.4-.3-3.8.1-5.4.9-1.6.8-3.2 1.5-3.7 1.5-1.1 0-1.2-3.4-.2-4.4.9-.9 8.2.3 10.3 1.6zm103 1.4c0 .8-.4 1.4-1 1.4-.5 0-1-.9-1-2.1 0-1.1.5-1.7 1-1.4.6.3 1 1.3 1 2.1zm11.4.9c-.6 1.5-3.4 2.9-4.2 2-.8-.7 2.9-4.5 3.9-3.9.4.2.6 1.1.3 1.9zM168 468.9c1.4 1 4 2.2 5.7 2.5 1.7.4 3.8 1.4 4.5 2.3 1.1 1.4 1 1.5-.9.9-3.1-1-4.8.1-3.1 2.1 1 1.3.6 2.1-2.8 5.2-5.9 5.3-12.4 10.5-14.3 11.5-.9.5-2.8 2-4.3 3.4s-3 2.3-3.3 2c-.7-.7.2-1.6 8.5-8.8 15.2-13.2 14.4-12.3 12.1-13.2-2.3-.8-2.7-2.3-1.1-3.3 1.8-1.1-.1-2.6-2.8-2.5-5.1.4-7.3 0-6.7-1 .4-.6.1-1.8-.7-2.7-1.2-1.5-.9-1.5 2.7-.9 2.2.4 5.1 1.5 6.5 2.5zm151.5-.4c0 1.1-.8 2.1-1.7 2.3-1.4.3-1.8-.3-1.8-2.3 0-2 .4-2.6 1.8-2.3.9.2 1.7 1.2 1.7 2.3zm-8-.5c.3.5-.1 1-1 1s-1.3-.5-1-1c.3-.6.8-1 1-1 .2 0 .7.4 1 1zm-50.3 5.2c-.7.7-1.2.8-1.2.2 0-.6.3-1.4.7-1.7.3-.4.9-.5 1.2-.2.2.3-.1 1.1-.7 1.7zM304 472c0 .5-.2 1-.4 1-.3 0-.8-.5-1.1-1-.3-.6-.1-1 .4-1 .6 0 1.1.4 1.1 1zm-170 4.5c-2 2.2-2.1 2.7-1.1 5.4 1 2.4 1 3.4-.3 6-.9 1.7-2 3.1-2.4 3.1-.5 0-1.7.7-2.8 1.6-1.9 1.5-1.8 1.5.4 1.1 2.7-.6 2.7-.3 0 2.8-2.6 3-4.2 3.2-3.5.5.3-1.1.2-1.8-.3-1.5-1.4.9-.5-5.3 1.1-7.2 2.2-2.5 3.9-5.8 3.9-7.8 0-1.6 4.7-6.4 6.4-6.5.5 0-.1 1.1-1.4 2.5zm182.4-1.6c.3.5-.3 2-1.4 3.2-1.5 1.8-1.8 1.9-1.4.6.5-1.5.2-1.8-1.4-1.5-2.9.4-2.9-1.5 0-2.4 3.3-.9 3.6-.9 4.2.1zm-57.7.7c-.3.3-1.2.4-1.9.1-.8-.3-.5-.6.6-.6 1.1-.1 1.7.2 1.3.5zm9.7 5c1 3.1 4.8 12 8.5 19.8 10.7 22.3 14.2 31.8 12.2 33-.7.4-1.1-.1-1.1-1.3s-.4-2.1-1-2.1c-.5 0-1-1.3-1-3 0-1.9-.7-3.4-2-4.2-1.1-.7-2-1.8-2-2.3 0-1.7-2.4-6.5-3.2-6.5-.5 0-.8-.7-.8-1.5s-.5-1.5-1.1-1.5c-.7 0-.9-1-.5-2.5.5-1.8.3-2.3-.8-1.9-.9.4-1.6-.6-2-3.1-.4-2-1.3-3.8-2.1-4.1-.8-.3-1.1-1.2-.8-2 .3-.8-.3-2.2-1.4-3.2-1.1-.9-2.4-3.5-3-5.7-.8-3.7-1.2-4-4.1-3.9-1.8.1-3.2 0-3.2-.2 0-1 2.6-6.1 3.8-7.7 2.5-2.9 3.7-2 5.6 3.9zM304 478c0 1.1-.4 2-1 2-.5 0-1-.9-1-2s.5-2 1-2c.6 0 1 .9 1 2zm-28.6 0c1 0 5.2 7 4.4 7.4-.2 0-1.2.6-2.3 1.2-1.9 1.1-2 .9-1.7-2.2.4-2.9 0-3.5-2.2-4.4-1.4-.5-2.6-1.5-2.6-2.1 0-.6.7-.8 1.6-.5.9.3 2.1.6 2.8.6zm-154.4.9c0 .6-.4 1.3-1 1.6-.5.3-1 1.5-1 2.6 0 1.2-.4 1.7-1.1 1.3-.6-.3-2.4.3-4 1.5-4.5 3.3-4.4 2.5.3-2.9 4-4.6 6.8-6.3 6.8-4.1zm69.9 5l4.4 4.1-2.3 2.5c-1.3 1.4-2.7 2.5-3.2 2.5-1.3 0-.9-3.4.5-4.9 1-1 .7-1-1.5-.2-2.6 1-2.7.9-2.2-1.8.4-1.9 0-3.9-1.2-5.7-2.1-3.3-1.3-2.8 5.5 3.5zm-29.9-2c0 .5-1.2 1.9-2.6 3.2-1.4 1.3-3.6 3.5-4.7 4.7-1.2 1.3-3.5 3.3-5.1 4.4l-2.8 2.1 2.2-3.4c1.9-2.8 11.6-11.9 12.7-11.9.2 0 .3.4.3.9zm-53 2.1c0 .5-.5 1-1.1 1-.5 0-.7-.5-.4-1 .3-.6.8-1 1.1-1 .2 0 .4.4.4 1zm204-.2c0 1.3-1.2 2.2-2.2 1.6-1-.6-.1-2.4 1.3-2.4.5 0 .9.4.9.8zM142.9 487c.4 0 1.3-.6 2-1.3 1-1 1-.7.3 1.3-.5 1.4-2.3 3.2-4 4-1.7.8-3.6 2.6-4.2 3.9-.6 1.3-1.3 2.1-1.6 1.8-.3-.3.2-1.9 1-3.6.9-1.6 1.6-3.6 1.6-4.2 0-.7.8-2.1 1.8-3.2 1.5-1.7 1.7-1.7 2-.3.2.9.7 1.6 1.1 1.6zm161.1.2c-.1 3.1-.1 3.2-1.5 1.4-1.9-2.5-1.9-4.6 0-4.6 1 0 1.5 1 1.5 3.2zm-130-1.4c0 .4-1.2 2-2.6 3.5-3.1 3.3-2.4 4.9.9 2.1 1.2-1.1 3.1-2.6 4.2-3.4 1.9-1.4 1.9-1.4.6.5-2.7 3.6-8.5 9.5-9.5 9.5-.5 0-1.8.8-2.9 1.7-2.2 2-2.2 2.2 0-3.5.6-1.5.5-1.5-1-.3-1 .8-2 1.1-2.4.7-.3-.3-.4-.7-.2-.9.2-.1 3-2.6 6.2-5.5 6-5.3 6.7-5.8 6.7-4.4zm50 3.4c0 1.4-1.9-.1-3.1-2.5-1.2-2.2-1.2-2.2 1-.3 1.1 1.1 2.1 2.3 2.1 2.8zm18.5-2.3c-.3.6-1.1 1.1-1.7 1.1-.6 0-.6-.6.2-1.5 1.4-1.7 2.6-1.3 1.5.4zm8.9-.3c.6 1.5.8 1.5 2.6-.1 2.4-2.2 2.6-1.3.4 2.4-1.5 2.6-1.4 3 3.1 11.5 2.6 4.8 4.4 9 4.1 9.3-1.1 1.1-8.4-1.7-11.6-4.3-1.7-1.5-4.4-4.6-6.1-7-2.9-4.2-2.9-4.5-1.3-6.9 1.6-2.4 6.2-6.4 7.5-6.5.4 0 1 .7 1.3 1.6zM117 488c-.6 1.1-1.3 2-1.6 2-.2 0 0-.9.6-2s1.3-2 1.6-2c.2 0 0 .9-.6 2zm166.7 6.5c-.6.7-1.1.6-1.4-.1-.2-.6-1-2-1.8-3-1.3-1.6-1.6-1.7-2.4-.4-.6.8-1.3 1.1-1.8.7-.4-.5.3-1.7 1.6-2.7 2.4-1.8 2.5-1.7 4.6 1.4 1.5 2 1.9 3.4 1.2 4.1zM103.5 489c.3.5.1 1-.4 1-.6 0-1.1-.5-1.1-1 0-.6.2-1 .4-1 .3 0 .8.4 1.1 1zm133.5 2.9c0 .5-.7 1.4-1.5 2.1-1.2 1-1.5 1-1.5-.2 0-.8.3-1.8.7-2.1.9-1 2.3-.9 2.3.2zm-123 2.7c0 2.2-1.6 1.7-1.7-.6-.1-1.1.2-1.8.8-1.5.5.4.9 1.3.9 2.1zm64.4-1.1c-.4.9-1.6 2.1-2.8 2.7-1.9 1-1.9.9.3-1.6 2.8-3 3.3-3.2 2.5-1.1zm3.1 4c-1.6 1.1-4.3 3.3-6 5-6.9 6.4-8.2 7.4-8.8 6.8-.4-.3 1.5-2.4 4-4.7 2.6-2.3 6.6-5.9 8.8-8.1 2.9-2.9 4.1-3.6 4.4-2.5.2.8-.9 2.4-2.4 3.5zM322 493c0 .5-.4 1-1 1-.5 0-1-.5-1-1 0-.6.5-1 1-1 .6 0 1 .4 1 1zm-223.8 3.2c-.7.7-1.2.8-1.2.2 0-1.4 1.2-2.6 1.9-1.9.2.3-.1 1.1-.7 1.7zm134.8-.1c0 1.1-2.7 1.2-3.4 0-.3-.4-.3-1.1 0-1.4.8-.8 3.4.3 3.4 1.4zm-88 .3c0 .8-.4 1.8-1 2.1-.5.3-1-.3-1-1.4 0-1.2.5-2.1 1-2.1.6 0 1 .6 1 1.4zm58.8 3.7c-.3.9-1.2 0-2.2-2.1l-1.8-3.5 2.2 2.1c1.2 1.2 2 2.8 1.8 3.5zm63.2-4.7c0 .3-.4.8-1 1.1-.5.3-1 .1-1-.4 0-.6.5-1.1 1-1.1.6 0 1 .2 1 .4zm-3.7 3.2c-.4 1-.9 1.2-1.5.6-1.2-1.2-.1-3.5 1.2-2.7.5.3.6 1.3.3 2.1zM191 498c0 .5-.5 1-1.1 1-.5 0-.7-.5-.4-1 .3-.6.8-1 1.1-1 .2 0 .4.4.4 1zm52.2 5.4c5 5.7 9.5 8.3 17.2 10.1 4.8 1.1 5.1 1.3 9.4 9.1 9.5 17.1 13.2 24.2 13.2 25.6 0 2.3-7.6 22.1-11.4 29.6-1.8 3.7-5.2 11-7.4 16.2-2.3 5.2-5.5 12.4-7.3 16-1.7 3.6-4 8.7-5.1 11.5-1 2.7-6.6 14.4-12.4 26-5.7 11.5-11.9 24.8-13.7 29.4-1.8 4.7-3.8 8.6-4.5 8.9-.7.2-2.4-1-3.9-2.7-1.5-1.7-3.7-3.1-4.9-3.1-3.6 0-8.3 4.6-8.9 8.8-.7 4.1-3.4 12.2-4.1 12.2-.3 0-1.5-1.2-2.8-2.7-3.2-3.7-6.4-2.6-11.3 3.8-6 8.1-7.6 11.5-6.4 13.8 1.6 2.8 1.5 4.9-.1 3.3-.7-.7-2.2-1.2-3.3-1.2-1.2 0-3.2-1.1-4.5-2.5-2.1-2.3-2.3-3-1.6-10.7.3-4.6 1.5-13.9 2.6-20.8 3.3-21.1 5.4-39.2 5.2-45-.2-5.2 1.3-20 2.5-24.7.6-2.8 6.5-4.2 8.9-2.3 2 1.8 4.3-.2 2.6-2.3-1.3-1.5-.6-2.7 1.5-2.7 1 0 1.2.6.8 2-1.5 4.6 6 3.7 10.3-1.2 6-7.1 6.6-7.5 10.2-7 8.6 1 9.3.8 11.2-2.4l1.8-3.2-4.6-9.3-4.6-9.4.7-19c1.1-31.7 1.3-33.5 2.4-34.9.6-.7 1.9-3.8 2.9-6.7 1.2-3.5 2.6-5.7 4.1-6.4 1.2-.6 2.5-2.2 2.8-3.8.5-2.3 5.6-7.7 7.3-7.7.3 0 2.6 2.4 5.2 5.4zm44.6-2.2c1.2 3.3.7 5.3-.7 2.9-.7-1-1-1-1.6-.1-.4.7-.2 1.6.5 2 .7.4.9 1.3.5 2-.5.8-1.1.4-1.9-1.2-2.1-4-2.7-6-1.5-5.3.6.4 1.3-.2 1.6-1.4.8-2.9 1.7-2.6 3.1 1.1zm-193.5.4c-.4 1-.9 1.2-1.5.6-1.2-1.2-.1-3.5 1.2-2.7.5.3.6 1.3.3 2.1zm16.9 1.4c-.2 1.6-.6 3-.8 3-.2 0-.4-1.4-.4-3 0-1.7.4-3 .8-3 .5 0 .7 1.3.4 3zm26.8.2c0 .5-.4.8-1 .8-.5 0-1-1-1-2.3 0-1.8.2-1.9 1-.7.5.8 1 1.8 1 2.2zm10-2.8c0 .8-4.7 5.6-5.4 5.6-1.5 0-.4-2.9 1.7-4.3 2.2-1.6 3.7-2.1 3.7-1.3zm60 4.6c0 1.4-9.5 11.2-12.2 12.6-1.6.8-2.8 1.1-2.8.6 0-.4 1.2-1.9 2.8-3.3 4.6-4.2 9.2-10 9.2-11.6 0-1.3.3-1.3 1.5-.3.8.7 1.5 1.6 1.5 2zm-106.2-.9c-.2.6-.7 1-1.2.9-1.7-.3-4.5 5.3-3.9 8.1.3 1.4 0 3-.6 3.3-.6.4-1.1 1.7-1.1 2.9s-1.2 3.3-2.5 4.6c-1.4 1.3-2.5 2.9-2.5 3.5 0 .7-1.3 2.5-3 4.1-3 2.9-3.9 5.9-2 7 .6.4-.9 2.3-3.4 4.3-3.5 2.8-4.4 4.1-4 5.8.4 1.5-.1 2.6-1.6 3.7-1.2.9-2 2.1-1.7 2.9.3 1.1-.6 3.4-3 7.7-.2.2-1-.2-1.9-.9-1.3-1.2-1.7-1.1-2.4 0-.5.8-.5 1.9.1 2.6 1.1 1.4-1.7 4.7-3.5 4.1-2-.7-1.8-3.6 1-9.6 1.9-4.1 3.4-6.1 4.8-6.3 1.4-.2 3.3-2.9 6.4-8.8 2.4-4.7 5.8-10.1 7.7-12 3.6-3.7 5.8-7.7 10-17.9 3.3-8 5.3-11.1 7.2-11.1.8 0 1.3.5 1.1 1.1zm89.8.5c-.3.9-.6 1.8-.6 2 0 .2-.7.4-1.5.4-1.8 0-1.9-1.2-.3-2.8 1.7-1.7 3.1-1.5 2.4.4zm136.6 2c5.4 4.6 6.6 6.4 3.9 6.4-1 0-2.1-.6-2.4-1.3-.3-.9-.8-.9-1.8.2-1.1 1-1.1 1.5-.1 1.8.6.3 1.2 1.3 1.2 2.3 0 1 .5 2 1.1 2.2 2.1.7-14.6 16.8-17.5 16.8-1.4 0 1.1-3.6 4.6-6.8 4-3.6 7.8-9.8 7.8-12.7 0-2.1-2.9-3.1-5.1-1.6-1.5.9-1.9.8-1.9-.3 0-2.1 4-10.6 5-10.6.4 0 2.8 1.6 5.2 3.6zM178 504.9c0 .5-.7 1.2-1.6 1.5-1.4.5-1.5.4-.4-.9 1.4-1.7 2-1.9 2-.6zm6 1.7c0 5.5 3.2 16.6 4.9 17.1.9.2 2.2 1.3 2.9 2.4 1.5 2.4 0 5.9-2.5 5.9-1 0-3.4 1.7-5.5 3.7s-3.8 3.3-3.8 2.7c0-.5 1.2-2.1 2.8-3.5 1.5-1.4 3.4-3.8 4.2-5.3 1.3-2.5 1.3-2.9-.1-4-1.9-1.4-3.9-9-3.9-14.7 0-3.4-.3-4-1.2-3.1-.7.7-1.9 1.2-2.7 1.2-1.1 0-.9-.7.9-2.4 3.2-3.2 4-3.2 4 0zm-62-.7c0 1.7-1.2 4.1-2.1 4.1-1 0-1.2-3.3-.2-4.3.9-1 2.3-.9 2.3.2zm100 1.7c0 .8-.4 1.2-1 .9-.5-.3-1-1-1-1.6 0-.5.5-.9 1-.9.6 0 1 .7 1 1.6zm69 1c0 .8-.4 1.4-1 1.4-.5 0-1-.9-1-2.1 0-1.1.5-1.7 1-1.4.6.3 1 1.3 1 2.1zm-181.8.6c-.7.7-1.2.8-1.2.2 0-1.4 1.2-2.6 1.9-1.9.2.3-.1 1.1-.7 1.7zm26.3 2.8c-2.1 4.6-4.1 5.4-3 1.2.7-2.9 3.5-6.6 4.3-5.7.3.3-.3 2.3-1.3 4.5zm137.5-2.4c0 .8-.5 1.2-1 .9-.6-.4-.8-1.1-.5-1.6.9-1.4 1.5-1.1 1.5.7zm-184.5.4c.3.5.1 1-.4 1-.6 0-1.1-.5-1.1-1 0-.6.2-1 .4-1 .3 0 .8.4 1.1 1zm86.5 3.4c-1.9 1.8-3.7 3.2-3.9 3-.7-.6 5.1-6.4 6.3-6.4.6 0-.5 1.5-2.4 3.4zm19.4-.7c-.3 1.2-1.4 2.3-2.5 2.6-2.5.7-2.4-.1.3-3 2.5-2.6 2.9-2.6 2.2.4zm25.6 2.4c0 1.9-1.6 3.4-2.3 2.2-.3-.5-.8-2.4-1.2-4.3l-.7-3.5 2.1 1.9c1.1 1.1 2.1 2.7 2.1 3.7zm-12.6-2.6c-.4.8-1.4 1.5-2.3 1.5-1.4-.1-1.3-.3.3-1.5 2.5-1.9 2.7-1.9 2 0zm-46.9 1.5c-1 1.1-2.1 1.8-2.3 1.5-.3-.3.3-1.2 1.4-2 2.7-2 3-1.8.9.5zm111.5-1.6c0 1.1-1.9 1.5-2.5.6-.3-.5.1-1 .9-1 .9 0 1.6.2 1.6.4zm21.9 1.5c1 1.7.8 1.8-1.3.8-1.4-.7-2.2-1.5-2-1.9.9-1.4 2.3-.9 3.3 1.1zm-208.4 0c.3.5.1 1.2-.5 1.6-.5.3-1-.1-1-.9 0-1.8.6-2.1 1.5-.7zm114.1 13.8c-2 1.9-4.1 3.3-4.7 3.1-.7-.2.7-2.2 3.1-4.5 5-4.7 5.2-8 .2-3.8-4.3 3.6-4 1.8.6-3.3l3.7-4.1.3 4.6c.3 4.2 0 5-3.2 8zM338 523c0 4.8-3.1 6.3-4.8 2.5-.7-1.4-.8-2.5-.3-2.5.4 0 1.4-1.1 2.1-2.5 1.6-2.9 3-1.7 3 2.5zm-163.5-3c-.3.5-1.1 1-1.6 1-.6 0-.7-.5-.4-1 .3-.6 1.1-1 1.6-1 .6 0 .7.4.4 1zm41 7.9c.6 7.4-.1 17.1-1.3 17.1-.4 0-.7-5.9-.8-13-.1-14 1.1-16.2 2.1-4.1zm-75.5-7.5c0 .3-.4.8-1 1.1-.5.3-1 .1-1-.4 0-.6.5-1.1 1-1.1.6 0 1 .2 1 .4zm-7 5c0 2.4.3 5.7.6 7.3.5 2.3.2 3.2-1.1 3.7-2.5.9-2.9.1-1.7-3.3 1.3-3.7.7-3.9-2.5-.9-2.3 2.1-2.3 2.1-2.3.1 0-1.2.7-2.4 1.6-2.7.9-.4 1.4-1.3 1-2.2-.6-1.6 2-6.4 3.5-6.4.5 0 .9 2 .9 4.4zm29 .1c-1.9 1.9-3.8 3.5-4.3 3.5-1.2 0 5.5-6.9 6.7-6.9.6-.1-.5 1.5-2.4 3.4zm116-.5c0 .5-.4 1-1 1-.5 0-1-.5-1-1 0-.6.5-1 1-1 .6 0 1 .4 1 1zm-173.9 15.6c-.5 5.8-1.5 11.2-2.1 11.8-.9.8-1.1.2-.6-2.9.3-2.2.9-7.6 1.2-12 .2-4.4.8-9.1 1.1-10.5l.7-2.5.4 2.7c.2 1.5-.1 7.5-.7 13.4zm67.8-12.9c-1.3 1.6-2.8 3.1-3.4 3.5-.5.4-3 2.5-5.5 4.7-2.4 2.3-4.8 4.1-5.2 4.1-1.8 0-.5-1.9 3-4.4 2-1.4 5.5-4.4 7.6-6.6 4.4-4.5 7.3-5.5 3.5-1.3zm126.6 8.3c-2.1 2.3-1.9 3.5.8 5.3 1.2.8 1.9 1.8 1.4 2.3-.4.4-1.3-.1-2.1-1.1-1.4-1.9-3.6-1.3-3.6 1 0 1.9-5 7.6-6.1 6.9-.5-.3-.9-1-.9-1.5 0-.6.4-.7 1-.4.5.3.7 0 .4-.8-.3-.8.6-4 2-7.2 1.5-3.2 2.6-6.2 2.6-6.7s.7-2.5 1.6-4.6l1.7-3.7 1.3 4.4c1.2 3.9 1.2 4.7-.1 6.1zM183 527.3c0 .2-1 1.2-2.2 2.3l-2.3 1.9 1.9-2.3c1.8-2.1 2.6-2.7 2.6-1.9zm22.3 24.2c2.6 10.3 2.8 11.5 1.7 11.5-.5 0-1-.9-1-1.9 0-1.1-.4-2.3-1-2.6-.5-.3-1-1.7-1-3.1 0-1.5-.6-2.4-1.5-2.4-1.8 0-1.9-1.2-.2-2.9 1-1 .8-1.5-.6-2.6-1.5-1.1-1.7-1.7-.7-3.5.8-1.6.8-2.5 0-3.5-.6-.7-.8-2.5-.4-4l.7-2.7-2.7 1.7c-3.4 2.2-3.5.2-.1-2.9 1.4-1.3 2.6-3 2.6-3.7.1-.8.7 2.6 1.4 7.6.7 4.9 2 11.7 2.8 15zM75.5 532.9c-1 1.6-2.5.3-2.5-2.2 0-2 .1-2 1.6-.5.9.9 1.3 2.1.9 2.7zm258-3c.6 1.1-15.7 14.1-17.7 14.1-2.2 0-.2-3.4 4.9-8 7-6.4 11.3-8.4 12.8-6.1zm-212.9 3.8c-1 1-1.9-.5-1-1.8.6-1.1.8-1.1 1.2 0 .2.7.1 1.5-.2 1.8zM282 532c0 .5-.5 1-1.1 1-.5 0-.7-.5-.4-1 .3-.6.8-1 1.1-1 .2 0 .4.4.4 1zm-89 .7c-.1 1.8-1.9 3.5-2.9 2.8-.9-.5-.9-1 0-2.1 1.2-1.5 2.9-1.9 2.9-.7zm146 3c0 2.1-6.6 8.2-9.6 8.9-1.3.3-3.2.3-4.1 0-2.1-.8-1.2-1.8 6.7-7.4 5.6-4 7-4.3 7-1.5zm-28-1.3c0 .2-.3 1.2-.6 2-.5 1.3-.9 1.4-2 .5-2-1.6-1.7-2.9.6-2.9 1.1 0 2 .2 2 .4zm-239 3.7c0 .5-.4.9-1 .9-.5 0-1-.7-1-1.6 0-.8.5-1.2 1-.9.6.3 1 1 1 1.6zm51 13.3c1.4 11.4.9 21.8-1 24.1-.7.8-2.2 1.5-3.3 1.5-1.8 0-1.9-.2-.5-1.8.8-.9 2-3.1 2.6-4.7 1.4-3.7 1-20.3-.5-23-.9-1.7-1.2-9.6-.3-11.5.5-1.2 1.9 5.7 3 15.4zm14.7-11.1c-.2.6-.9 1.3-1.7 1.5-.8.3-1 0-.6-.7s.2-1.9-.6-2.8c-1.2-1.5-1.1-1.5 1-.4 1.3.7 2.2 1.7 1.9 2.4zm24.5 1.9c-.6.6-1.5.8-1.9.4-.4-.4-.1-1.1.7-1.6 1.9-1.2 2.7-.3 1.2 1.2zm30.7 1.5c0 2.1-.3 3.1-.6 2.3-.3-.8-1.3-2.1-2.2-2.8-1.4-1.1-1.4-1.4-.1-2.2 2.5-1.6 3-1.1 2.9 2.7zm-25.9-.8c-1.2 2.4-5.1 5.3-5.9 4.5-.6-.5 5.4-6.4 6.5-6.4.2 0 0 .9-.6 1.9zm-99 1.7c0 .8-.4 1.2-1 .9-.5-.3-1-1.3-1-2.1s.5-1.2 1-.9c.6.3 1 1.3 1 2.1zm63.9-.7c1.1.7.9 1.1-.8 2-2.4 1.3-4.1.7-4.1-1.5 0-1.6 2.7-1.9 4.9-.5zm7.6 1c1 1.7-1.2 2.1-2.5.6-1-1.2-1-1.5.3-1.5.9 0 1.8.4 2.2.9zm199 7c-.8 1.7-2 3.1-2.5 3.1-1.3 0-1.3-.1.4-4.1 3.1-7.9 2.9-7.7 3.4-4.7.2 1.5-.4 4-1.3 5.7zm-40.2-4.5c.4 1 0 1.2-1.4.9-1-.3-1.6-.9-1.3-1.4.8-1.3 2.1-1.1 2.7.5zm12.7 0c0 1.5-3.7 3.2-4.7 2.2-.3-.3-.3-1.2 0-2.1.8-1.9 4.7-2 4.7-.1zm11.2-.2c.3.7 2 1.3 3.9 1.3 3.9 0 5.5 2.4 6.1 9 .3 3.5 0 4-2 4.3-1.8.3-2.2-.1-2.2-2.5 0-1.7-.8-3.3-1.9-4-1.3-.8-1.8-1.9-1.4-3.3.7-2.5-2.2-2.8-4.8-.4-1 .9-2 1.1-2.3.6-.3-.5.1-1.5.9-2.2.8-.7 1.5-1.9 1.5-2.6 0-1.7 1.7-1.8 2.2-.2zm-212.2.7c0 .6-.4 1.3-1 1.6-.5.3-1-.1-1-.9 0-.9.5-1.6 1-1.6.6 0 1 .4 1 .9zm105 1.3c0 3.1-1.3 4.9-2.8 3.9-1-.6-1.1-1.3-.1-3.4 1.5-3.3 2.9-3.5 2.9-.5zm-55 .3c0 .2-1 1-2.2 1.6-2.1 1.1-2.2 1.1-.9-.4 1.3-1.6 3.1-2.3 3.1-1.2zm-26 1.5c0 .5-.4 1-.9 1s-1.8.3-2.8.7c-1.6.6-1.6.5-.4-1 1.5-1.9 4.1-2.3 4.1-.7zm152.1 3.7c-1.2 2-1.4 1.4-.5-1.2.4-.9.9-1.4 1.1-1.1.3.2 0 1.3-.6 2.3zm21.6-.5c-.3.8-.6.5-.6-.6-.1-1.1.2-1.7.5-1.3.3.3.4 1.2.1 1.9zm5.4.6c-2.8.4-4-.6-2.1-1.8.9-.6 2-.4 2.9.3 1.2 1 1.1 1.3-.8 1.5zm-212.5 1.9c-1 1-1.9-.5-1-1.8.6-1.1.8-1.1 1.2 0 .2.7.1 1.5-.2 1.8zm83.1-1.1c-.3.4.5 1.6 1.9 2.7 1.9 1.5 2.2 2.2 1.3 2.8-.9.5-1.9-.1-3-1.9-1.5-2.5-1.6-4.2-.2-4.2.4 0 .3.3 0 .6zm8.8.4c.3.5.1 1-.4 1-.6 0-1.1-.5-1.1-1 0-.6.2-1 .4-1 .3 0 .8.4 1.1 1zm21.1 2.7c-1.1 1.1-1.9-.6-1.1-2.4.8-1.7.8-1.7 1.2 0 .3 1 .2 2.1-.1 2.4zm73.4-.6c-.7 1.1-1.4 1.8-1.7 1.5-.3-.3 0-1.2.7-2.1 1.8-2.1 2.3-1.9 1 .6zm34.2.1c-.7.7-1.2.8-1.2.2 0-.6.3-1.4.7-1.7.3-.4.9-.5 1.2-.2.2.3-.1 1.1-.7 1.7zm-157.2.6c0 .5-1.1 1.8-2.5 3s-2.5 2.9-2.5 3.7c0 .8-.9 1.5-2 1.5-2.8 0-2.5-.7 1.8-5 3.7-3.8 5.2-4.7 5.2-3.2zm153 1.2c0 .5-1.2 1-2.7 1-2.2 0-2.5-.2-1.3-1 2-1.3 4-1.3 4 0zm-13 1.4c0 1.5-1.8 3.1-2.6 2.3-.7-.7.7-3.7 1.7-3.7.5 0 .9.6.9 1.4zm34.5 3c1.5 3.9 1.5 4.7.2 7.2l-1.5 2.9-1.1-2.7c-.6-1.6-.9-4-.7-5.5.2-1.6.1-2-.1-1.1-.5 2.2-1.9 2.3-2.7.3-.7-1.8 1.4-5.5 3.1-5.5.6 0 1.9 2 2.8 4.4zm-147.4-2.1c-.1 1.2-1.5.9-1.9-.4-.3-.6.1-1 .8-.8.6.3 1.1.8 1.1 1.2zm134.9 1.8c-1.2 2.1-3 1.7-3-.6 0-1.4 2-2.5 3.3-1.8.4.2.2 1.3-.3 2.4zm-193.5-.1c-.3.5-1.3 1-2.1 1s-1.2-.5-.9-1c.3-.6 1.3-1 2.1-1s1.2.4.9 1zm63.4 1.4c2.2 2.3 2.2 2.4.3 1.9-1.1-.2-2.2-1.3-2.5-2.4-.7-2.4-.5-2.4 2.2.5zm123.2-.4c2.6 1.4 2.4 3.4-.3 2.7-1.2-.3-3-.1-4 .4-2.8 1.5-3.3.4-.9-2s2.6-2.5 5.2-1.1zm-8.1 3.8c0 .7-.4 1-1 .7-.5-.3-1-1.6-1-2.8 0-1.8.2-1.9 1-.7.5.8 1 2.1 1 2.8zm-204.3-1.2c-.3.3-1.2.4-1.9.1-.8-.3-.5-.6.6-.6 1.1-.1 1.7.2 1.3.5zM74 570c0 .5-.4 1-.9 1-.6 0-1.3-.5-1.6-1-.3-.6.1-1 .9-1 .9 0 1.6.4 1.6 1zm59 .5c0 2-2.8 3.1-4.2 1.7-1-1 .8-2.3 4-3.1.1-.1.2.6.2 1.4zm-34.6 1.2c.4.9.2 2.1-.4 2.7-.5.5-1 2-1 3.2 0 2-.5 2.2-4.7 2.2-5.5 0-8.5-1.2-7.7-3.3.5-1.3.8-1.3 2.1 0 2.4 2.5 6.6 1.9 8.1-1.2.6-1.5 1.2-3.3 1.2-4 0-1.9 1.7-1.6 2.4.4zm196.6-1.3c0 .3-.4.8-1 1.1-.5.3-1 .1-1-.4 0-.6.5-1.1 1-1.1.6 0 1 .2 1 .4zm34 .6c0 .5-.2 1-.4 1-.3 0-.8-.5-1.1-1-.3-.6-.1-1 .4-1 .6 0 1.1.4 1.1 1zm-165.5 1.7c1.9.6 1.8.6-.3 1.4-3.1 1.2-2 2.6 3.1 4 2.3.6 5.6 2.3 7.2 3.9 1.7 1.5 4.1 3.3 5.4 4 2.1 1.1 2.6 1 3.7-.5 1.2-1.6 1.4-1.6 1.9-.2.9 2.1-.5 4.4-10.4 17.5-4.7 6.3-9.7 13.1-11.1 15.2-1.4 2.1-5.5 8.2-9.1 13.6-7.4 11.1-15.2 25.3-17.4 31.4-.8 2.3-3.8 6.8-6.7 10.1-4.5 5.2-5.6 6-7.9 5.5-3.3-.6-4.1.1-2.7 2.4 1.5 2.4-.3 4.8-4 5.2-2.2.2-2.6.8-2.7 3.3 0 2.7-.3 3-3.2 3-3.6 0-5.3 1.2-2.9 2.1 2 .8 2.1 2.8.2 4.3-1.1.9-1.9.9-3.5-.1-3-1.9-5.1.4-2.8 3 .9 1 1.7 2.2 1.7 2.5 0 1.2-2.3.7-4-.8-1.5-1.3-1.9-1.4-2.9-.1-1 1.1-.8 1.8 1 3.5 1.9 1.7 2 2.4 1 3.4s-1.6.7-3.1-1.1c-2-2.4-3.5-2.8-4.6-1.1-.3.6.6 2.3 2.1 3.9l2.6 2.7-4.9 5.9c-9.1 10.8-10 11.3-14.4 8.2-1.4-1-2-1-3 0s-.7 1.7 1.6 3.5c2.5 2.1 2.7 2.4 1.2 3.6-1.4 1.2-1.9 1.1-3.4-.3-1-.9-2.6-1.6-3.5-1.6-2.6 0-2 2.7.9 4.6 2.3 1.5 2.4 1.9 1 3.2-1.4 1.4-1.8 1.4-3.9-.6-2.7-2.6-4.5-2.8-5.3-.7-.4.8.6 2.5 2.3 4 2.7 2.5 2.7 2.6.2 1-2.3-1.4-5.9-1.2-5.9.3 0 .3 1 1.6 2.2 2.9 1.6 1.7 1.8 2.3.7 2.3-.8 0-2-.5-2.6-1.1-1.6-1.6-3.5-.1-2.8 2.1.4 1.4-.2 2.3-2.4 3.5-4.4 2.2-7.8 1-10.1-3.5-1.1-2.1-3.6-4.8-5.5-6-2.6-1.6-3.4-2.7-2.9-3.9 3.2-7.6 3.8-10.5 4-20.2.1-5.8.5-11.5.8-12.7 1-3-.2-2.8-1.4.3-1.1 2.9-2.2 3.1-4.4.9-1.9-1.8-2.3-12-.5-10.9.5.4 1.9-.1 2.9-1 1.9-1.7 2-1.7 2.9.9.6 1.4.8 3.2.5 4-.3.8-.1 1.7.5 2 .6.4 1.3-.9 1.7-3.1 1.9-10.5 12.4-21.4 27.4-28.6 8.6-4 20-10.8 20-11.9 0-1.2-1.4-1-3.6.7-4.9 3.7-4.5 1.9 2.5-12.7 3.3-6.8 6.4-14.9 7-18.1.6-3.2 2.4-10.6 4.1-16.5 1.7-5.9 3.6-14.5 4.2-19.2.8-7 1.4-8.9 3.5-10.8 1.3-1.2 3.2-2.2 4.1-2.2.9 0 4.9-1.2 8.7-2.6 3.9-1.4 9.5-3.2 12.5-3.9 3-.7 8-2.3 11-3.4 4.5-1.7 6.8-2 12.5-1.6 3.9.3 7.9.9 9 1.2zm13.8.2c.4 1.7.2 1.8-1.9.9-1.3-.6-2.1-1.5-1.8-1.9.9-1.6 3.2-.9 3.7 1zm145.2-.4c0 .5-1.5 1.1-3.4 1.3-3.1.3-3.3.2-2.1-1.3 1.4-1.7 5.5-1.7 5.5 0zm-10.5 1.6c0 1.1-.4 1.7-1 1.4-.5-.3-1-1.3-1-2.1s.5-1.4 1-1.4c.6 0 1 .9 1 2.1zm32 3.8c-.1 1.3-3-3.4-3-4.8 0-.9.7-.3 1.5 1.3.8 1.5 1.5 3.1 1.5 3.5zm-60.6-1.8c-.3.5-1 .7-1.5.3-.5-.3-.7-1-.3-1.5.3-.5 1-.7 1.5-.3.5.3.7 1 .3 1.5zm20.1-1.1c.3.5.1 1-.4 1-.6 0-1.1-.5-1.1-1 0-.6.2-1 .4-1 .3 0 .8.4 1.1 1zm36.5 2.1c0 1.1-.4 1.7-1 1.4-.5-.3-1-1.3-1-2.1s.5-1.4 1-1.4c.6 0 1 .9 1 2.1zm-53-.3c0 1.3-1.2 2.2-2.2 1.6-1-.6-.1-2.4 1.3-2.4.5 0 .9.4.9.8zm36.5 3.2c-.7 1.1-5.5.6-5.6-.5-.1-1.4 3.5-2.3 4.8-1.3.7.6 1.1 1.4.8 1.8zm24 5c.7 2.4.6 2.4-.8.5-.8-1.1-1.8-3.1-2.2-4.5-.7-2.4-.6-2.4.8-.5.8 1.1 1.8 3.1 2.2 4.5zM179 581c0 .5-.2 1-.4 1-.3 0-.8-.5-1.1-1-.3-.6-.1-1 .4-1 .6 0 1.1.4 1.1 1zm97.1 2.9c-.6 1-1.8 2.4-2.7 3.2-1 .8-1.5.9-1.1.3.3-.6 1.1-2.3 1.7-3.8.5-1.5 1.4-2.4 2-2.1.6.4.7 1.3.1 2.4zm13.4-2c.3.5.1 1.2-.5 1.6-.5.3-1-.1-1-.9 0-1.8.6-2.1 1.5-.7zm45.5 1.2c0 1.1-.4 1.7-1 1.4-.5-.3-1-1.3-1-2.1s.5-1.4 1-1.4c.6 0 1 .9 1 2.1zm-51.6 1c-.3.5-1 .7-1.5.3-.5-.3-.7-1-.3-1.5.3-.5 1-.7 1.5-.3.5.3.7 1 .3 1.5zm25.5 1.2c0 2.1-.1 2.1-.9.2-1.2-2.8-1.2-3.7 0-3 .6.3 1 1.6.9 2.8zm15.1 0c0 .8-1.5 1.2-4 1.2-4.9 0-5.5-2.2-.7-2.7 3.8-.4 4.7-.1 4.7 1.5zm-106 .7c0 .5-.5 1-1.1 1-.5 0-.7-.5-.4-1 .3-.6.8-1 1.1-1 .2 0 .4.4.4 1zm80.3 4.2c-.3 2.4-1 5-1.5 5.8-.6 1-.7-.3-.3-3.5.7-4.7 1.2-6.5 2-6.5.2 0 .1 1.9-.2 4.2zm-20.3-2.8c0 .3-.4.8-1 1.1-.5.3-1 .1-1-.4 0-.6.5-1.1 1-1.1.6 0 1 .2 1 .4zm11.5 1.6c.3.5.1 1-.4 1-.6 0-1.1-.5-1.1-1 0-.6.2-1 .4-1 .3 0 .8.4 1.1 1zm57.5.7c0 .9.7 2.4 1.6 3.4.9 1 1.4 2.5 1 3.4-.8 2.3-2.6.9-2.6-2.1 0-1.3-.4-2.4-1-2.4-.5 0-1-.9-1-2s.5-2 1-2c.6 0 1 .8 1 1.7zm6.1 9.1c-1.4.5-.5 4.5 2 8.9 1 1.8 1.4 3.3.9 3.3-1.2 0-4-4.1-3.5-5 .3-.4-.2-1.3-1-2-1.8-1.5-2-4.7-.2-5.3.9-.3.8-1.2-.5-3.7-1-1.7-1.8-3.9-1.8-4.8.1-.9 1.3.5 2.7 3.3 1.6 3.1 2.1 5.1 1.4 5.3zm-47.7-7.2c.9 2.5 0 2.9-3.1 1.4-2.6-1.2-2.7-1.3-.8-2.1 2.9-1.1 3.2-1.1 3.9.7zm35 2.5c-.8 1.3-2.4.1-2.4-1.8 0-1.3.3-1.3 1.5-.3.8.7 1.2 1.6.9 2.1zm-122.8-.2c-.8 1.3-6.6 4.2-6.6 3.3 0-.8 6.3-5.1 6.9-4.6.1.1 0 .7-.3 1.3zm67.4-.4c0 .8-.4 1.5-1 1.5-.5 0-1-.7-1-1.5s.5-1.5 1-1.5c.6 0 1 .7 1 1.5zm30.7 2.7c-.3.7-.5.2-.5-1.2s.2-1.9.5-1.3c.2.7.2 1.9 0 2.5zM326 595c0 .5-.7 1-1.5 1s-1.5-.5-1.5-1c0-.6.7-1 1.5-1s1.5.4 1.5 1zm-6.3 4.7c-.4 1.7-.4 1.7-1.2 0-.4-.9-.4-2.5 0-3.5.8-1.6.8-1.6 1.2 0 .3 1 .3 2.6 0 3.5zm-98.2-2.7c-.3.5-1 1-1.6 1-.5 0-.9-.5-.9-1 0-.6.7-1 1.6-1 .8 0 1.2.4.9 1zm79.5.4c0 .3-.4.8-1 1.1-.5.3-1 .1-1-.4 0-.6.5-1.1 1-1.1.6 0 1 .2 1 .4zm-19 2.6c0 .5-.7 1-1.6 1-.8 0-1.2-.5-.9-1 .3-.6 1-1 1.6-1 .5 0 .9.4.9 1zm13.4 6.2c-1.6 7.7-3.2 12.3-3.3 9.3-.1-1.1.3-3.6.8-5.5s1.2-5.2 1.6-7.3c.3-2.1 1-3.5 1.4-3.2.5.2.3 3.3-.5 6.7zm16-3c-.4.6-1 .5-1.5-.3-1.4-2.2-1-3.3.6-1.9.8.7 1.2 1.7.9 2.2zm7.1 4c.4 1.8.7 4.3.5 5.6-.1 1.3.4 3 1 3.7.7.8.9 2.3.5 3.2-1 2.7-2.1.1-3-6.7-.3-3-.9-6.3-1.1-7.3-.3-.9-.1-1.7.4-1.7s1.3 1.5 1.7 3.2zm3.5-2.3c0 .6-.4 1.3-1 1.6-.5.3-1-.1-1-.9 0-.9.5-1.6 1-1.6.6 0 1 .4 1 .9zm1 6.1c0 .5-.4 1-1 1-.5 0-1-.5-1-1 0-.6.5-1 1-1 .6 0 1 .4 1 1zm25.7 2.2c-.3.8-.6.5-.6-.6-.1-1.1.2-1.7.5-1.3.3.3.4 1.2.1 1.9zm-173.7.2c0 1.6-3.7 3.2-4.8 2.1-.7-.7 2.5-3.5 4-3.5.4 0 .8.6.8 1.4zm112.1 6.9c-.6 3.4-1.3 9.1-1.6 12.7-.3 3.6-1 8.5-1.5 11s-2.1 11-3.5 19c-1.5 8-3.3 17-4 20-.8 3-2.2 9.7-3.1 14.8-1.7 9.4-2.7 11.3-4.7 9.3-.6-.6-1.8-1.1-2.8-1.1-2.1 0-6.9 4.8-6.9 6.9 0 2.1-2.6 5.8-3.4 5-.4-.3 0-2.4.8-4.6 1.4-3.9 3.4-11.6 7.8-30.3 3.9-16.7 9.6-34.9 18.6-58.9 4.8-13 6.1-14.2 4.3-3.8zm-12.7-3c-.3.9-1.2 1.7-2 1.7-1.7 0-1.7-.5-.3-3.2 1.3-2.4 3.3-1 2.3 1.5zm85.1-1.2c.8 2.3.1 3.4-1.4 2.4-1.3-.8-1.5-4.5-.2-4.5.5 0 1.3.9 1.6 2.1zm-91.5-.7c0 .3-.4.8-1 1.1-.5.3-1 .1-1-.4 0-.6.5-1.1 1-1.1.6 0 1 .2 1 .4zm87 .6c0 .5-.5 1-1.1 1-.5 0-.7-.5-.4-1 .3-.6.8-1 1.1-1 .2 0 .4.4.4 1zm-10.6 2.1c-.8 1.4-2.4 1-2.4-.6 0-.9.6-1.2 1.5-.9.8.4 1.2 1 .9 1.5zm-169.5 7c-.2 4-.3 9.6-.2 12.4.1 2.7-.7 10.4-1.7 17-1.1 6.6-2.1 14.4-2.3 17.4-.3 4.5-.8 5.8-3.1 7.6-3.1 2.4-2.7 5 .5 4.2 2.9-.8 2.2 1.4-1.8 5.5-3.7 3.8-3.9 6.3-.3 4 3.4-2.1 2.2 0-2.7 5-3.7 3.8-4.3 4.9-3.1 5.3.9.4 2.8-.1 4.3-1.1 1.4-.9 2.8-1.4 3.1-1.1.5.5-1.3 2-8.6 7.1-5.2 3.6-4.1 5.4 1.9 3 2.3-.9 4.4-1.4 4.7-1.1 1 .9-.6 2.7-2.3 2.7-2.5 0-10.3 4.2-10.3 5.6 0 2 3 2.5 6.2.8 1.6-.8 3.3-1.3 3.6-1 .7.8-3.9 4.2-5.1 3.8-1.5-.5-6.7 2.9-6.7 4.3 0 .8.5 1.5 1 1.5 1.6 0 1.1 1.8-1.1 3.9-1.2 1.1-4.3 2.5-7 3.1-6.9 1.7-7.9.6-7.9-8.2 0-5.2-.6-8.4-2.6-13.1-2.7-6.2-6.3-21.7-6.4-27 0-3.5 3-9.4 6.5-12.7 1.4-1.3 6.1-9.3 10.3-17.8 4.2-8.4 10.2-18.8 13.4-23 4.9-6.6 6.3-7.8 9.9-8.7 2.4-.5 4.5-1.6 4.7-2.4.5-1.4-.9-1.3-5.2.4-1.6.7-1.7.6-.8-1.1 1-1.8 6.7-4.5 8.6-4 .5.1.8 3.6.5 7.7zm161.6-6.1c0 .7-.6 1.5-1.2 1.7-.8.3-1.3-.4-1.3-1.7 0-1.3.5-2 1.3-1.8.6.3 1.2 1.1 1.2 1.8zm-30 0c.3.5-.1 1-1 1s-1.3-.5-1-1c.3-.6.8-1 1-1 .2 0 .7.4 1 1zm45.9.6c1.1 2.8.6 3.9-.9 2-.8-1.1-1.5-2.3-1.5-2.8 0-1.4 1.8-.9 2.4.8zm-81.7 5.2c-.9 1-1.4 2.2-1 2.5.3.4.1 1.7-.5 3-1.2 2.3-7.3 19.8-9.7 27.7-.7 2.5-1.6 5.5-2 6.7-.5 1.5-.3 2.3.4 2.3.6 0 1.1.5 1.1 1.1 0 .6-.6.9-1.4.6-1.8-.7-8.8 20.6-8 24 .3 1.2-.1 3.4-.9 5-.9 1.5-1.8 4-2.1 5.4-.3 1.4-1.5 3.6-2.6 4.9-1.3 1.5-2 3.5-1.8 5.6.1 1.8-.5 3.8-1.5 4.8-.9.9-1.4 2.3-1 3.2.3.8-.3 2.4-1.2 3.4-1.7 1.9-1.7 2.1.1 4.1 1.9 2.1 1.9 2.1-.1 1.9-3.8-.4-4.5 0-4.5 2.7 0 1.8-.3 2.4-1 1.7s0-3.9 2.1-10c1.6-4.9 3.5-10.5 4.1-12.4.5-1.9 2.3-6.9 3.8-11s4.6-13.4 6.9-20.5c5.2-16.6 13.1-40.6 17.1-51.5 1.6-4.6 3-8.6 3-8.9 0-.3.5 0 1.2.7.9.9.8 1.6-.5 3zm76.9-2.3c.2 2.3 1.8 7.1 3 8.9.7 1 1 2.5.7 3.3-.3.8 0 2.5.7 3.9.8 1.3 1.1 2.7.7 3-.3.3.3 2.2 1.3 4.1 1.2 2.2 1.7 4.6 1.3 6.3-.3 1.5 0 3.1.6 3.4.6.4 1.1 3.3 1.1 6.5 0 3.1.5 6.2 1.1 6.8.8.8.8 1.7.1 2.9-.9 1.7-1.1 1.5-1.7-1.1-1.5-6.7-4.9-18.4-7.1-24.5-1.3-3.6-2.4-7.5-2.4-8.6 0-1.2-.9-4.7-2-7.9-2.6-7.5-2.6-8.7.3-8.3 1.2.2 2.2.7 2.3 1.3zm-23.7 1.3c-.9 1.4-.9 2.4-.1 3.8.9 1.4 1.2 1.5 1.2.4.2-2.2 1.8 2 1.9 4.8.1 1.3-.3 2-.9 1.7-1.4-.9-1.3 9.8.1 11.2.7.7.9 1.9.5 2.9-1.2 3-2.4.2-4.5-10.3-2.6-12.3-2.7-15.5-.6-14.7.8.4 1.5.1 1.5-.5s.5-1.1 1-1.1c.6 0 .6.7-.1 1.8zm5.8.2c.1 1.1-.2 2-.8 2-.5 0-.9-.2-.9-.4s-.3-1.1-.6-2c-.4-1-.1-1.6.8-1.6.7 0 1.4.9 1.5 2zm30.3 2.1c0 1-.4 1.9-.9 1.9-1.2 0-2.3-2.9-1.5-4.1.8-1.4 2.4 0 2.4 2.2zm-22.8.1c-.7.7-1.2.8-1.2.2 0-1.4 1.2-2.6 1.9-1.9.2.3-.1 1.1-.7 1.7zm30.2 4.7c2.9 6.6 3.5 13.1 1.1 13.1-1.8 0-1.9-1.4-.3-4 1-1.5.9-2.3-.7-4-1.1-1.2-2.5-1.8-3.6-1.5-2.2.7-3.4-1.2-1.9-2.9.6-.8.8-2.6.4-4-.4-1.9-.2-2.6.9-2.6.8 0 2.6 2.6 4.1 5.9zm85.6.1c0 1.6.5 3.2 1 3.5.8.5.8 1.1 0 2-1.4 1.6.4 6.5 2.4 6.5 1.7 0 2.6 3 2.6 8.8 0 2.9.5 4.4 1.6 4.9 2.2.8 3.3-.7 4.2-5.8.5-3.1 1.3-4.5 2.6-4.7 1.6-.4 1.8 0 1.3 2.7-.5 2.5-.2 3.4 1.7 4.7 2.3 1.4 2.4 1.9 1.9 8.6-.4 5.3-.2 7.2.8 7.8.7.5 1.9.5 2.5-.1 2.1-1.7 7.9.4 8.2 3 .3 1.8 0 2.2-1.5 1.8-1.8-.6-6.8-1-9-.8-.7.1-1.3.9-1.3 2 0 2.3-3.1 3-12 2.6-3.6-.2-6.8-.3-7.1-.4-.4-.1-.9-1.1-1.2-2.2-.5-1.9-1.1-2.1-3.9-1.5-4.1.8-6.1 2.8-6.4 6.3-.3 3.8-3.7 11.5-5.9 13.3-1 .8-3.2 1.9-4.9 2.5-2.5.8-3.2 1.7-3.8 5-.6 3.5-.3 4.3 1.8 6.1 2 1.6 2.4 2.6 1.8 4.7-.8 3.6-1.7 4-6.5 3.2-3.3-.6-3.9-1.1-3.8-2.8.4-4.9-.1-7.7-1.5-7.7-1.9 0-2.8 1.6-3.6 6-.6 3.8-3.5 5-3.5 1.5 0-2.5-2.8-2.7-3.3-.2-.2 1-1.5 2.9-2.9 4.3-2.1 2.1-2.4 3.2-2 6.1.8 4.6-.2 9.3-1.9 9.3-.8 0-1.4-.5-1.4-1.2 0-1.3-10.5-19.3-12.8-22-.8-1-1.6-4.1-1.8-7.1-.3-4.3 0-5.7 1.5-7.1 1.5-1.4 2.3-1.5 4.4-.5 3.3 1.5 6.1-.3 5.1-3.3-.4-1.3.2-2.9 1.8-4.6 1.4-1.5 3.5-4.3 4.7-6.4 2.7-4.5 4.4-5.2 6.7-2.7 2.1 2.3 3.1 11.3 1.5 13.3-1 1.2-.9 4 .4 8.3.7 2.1 3.3.3 4.5-3l1.1-3.2 1.5 3.4c.8 1.9 1.3 4 1 4.7-.7 1.7 3 4.9 3.9 3.4.7-1.1.9-6.4.4-8.5-.5-2.2 1.5-9.7 3.1-11.7 1.4-1.7 2-1.9 3.8-.9 1.2.7 2.7.9 3.2.6 1.7-1 1.1-5.1-1.1-7.9-1.8-2.3-2-3.5-1.5-7.9.9-7.1 1.7-8 6.7-8.1l4.4-.1-.4-4.9c-.3-4.2 0-5.1 2.3-7 2.3-1.9 2.5-2.4 1.6-6.1-1.5-6.1-1.2-7.1 2.1-11 3.5-3.9 4.9-3.8 4.9.5zm-198.9-.3c-1.2 2-1.4 1.4-.5-1.2.4-.9.9-1.4 1.1-1.1.3.2 0 1.3-.6 2.3zm63-1.4c-.1.4-.1 1.4-.1 2.2 0 .8-.4 1.5-1 1.5-.5 0-1-1.2-1-2.6 0-1.4.5-2.4 1.1-2.2.6.2 1 .7 1 1.1zm22.6 2c-.7 2.1-3.2 1.3-3.5-1.1-.3-2.1-.1-2.2 1.8-1.2 1.2.6 1.9 1.7 1.7 2.3zm-78.9-.6c-.4 2-1.8 2.6-3.7 1.4-1.8-1.2-.5-3.1 2-3.1 1.4 0 1.9.6 1.7 1.7zm12.2.3c0 .5-.2 1-.4 1-.3 0-.8-.5-1.1-1-.3-.6-.1-1 .4-1 .6 0 1.1.4 1.1 1zm82 3.1c0 .5-.4.9-1 .9-.5 0-1-.7-1-1.6 0-.8.5-1.2 1-.9.6.3 1 1 1 1.6zm-98.4 3.1c.4.6.3.8-.4.4-.6-.3-1.3-.2-1.7.4-.4.6-1.1.8-1.6.4-.5-.3-.7-1-.4-1.5.8-1.3 3.2-1.1 4.1.3zm100.9 2.8c-.3.5-1 1-1.6 1-.5 0-.9-.5-.9-1 0-.6.7-1 1.6-1 .8 0 1.2.4.9 1zm-88.5 3c0 .5-.5 1-1.1 1-.5 0-.7-.5-.4-1 .3-.6.8-1 1.1-1 .2 0 .4.4.4 1zm61 2c0 1-.4 2.1-.9 2.4-1 .7-2-2.3-1.4-4.2.6-1.7 2.3-.4 2.3 1.8zm4.4-1.4c1 2.7.7 5.6-.6 5.2-1.5-.5-2.4-6.8-1-6.8.6 0 1.3.7 1.6 1.6zm9.6 1.2c0 1.9-1.8 4.2-3.2 4.2-1.2 0-.9-2.9.5-4.5 1.7-2 2.7-1.8 2.7.3zm-42 2.1c0 1.1-.4 2.3-1 2.6-.6.4-1-.5-1-1.9s.5-2.6 1-2.6c.6 0 1 .9 1 1.9zm-12.4 2.8c-1 1-1.9-.5-1-1.8.6-1.1.8-1.1 1.2 0 .2.7.1 1.5-.2 1.8zm26.6-.2c.3 1.4.1 2.8-.3 3.1-.5.3-.9-.9-.9-2.5 0-3.8.6-4 1.2-.6zm-49.8.6c-.3.5-1 .7-1.5.3-.5-.3-.7-1-.3-1.5.3-.5 1-.7 1.5-.3.5.3.7 1 .3 1.5zm29.6-.6c1.4 1.6 1 1.8-1.4.9-.9-.3-1.6-1-1.6-1.5 0-1.4 1.6-1.1 3 .6zm51 3.6c0 2-2.4 2.6-3.5.9-.8-1.3 1.4-4.2 2.6-3.4.5.3.9 1.4.9 2.5zm-92 1.5c-.5 1.6-3.9 12.2-7.5 23.6-3.6 11.5-6.9 20.8-7.4 20.8-.4 0-1.5-.6-2.4-1.3-1.6-1.1-1.6-1.6-.2-6.3 1.5-5 5.6-14.5 13.7-31.6 4.2-8.8 5.6-10.7 3.8-5.2zm47-1.5c0 .5-.4.9-1 .9-.5 0-1-.7-1-1.6 0-.8.5-1.2 1-.9.6.3 1 1 1 1.6zm23.7 1.1c-.3.8-.6.5-.6-.6-.1-1.1.2-1.7.5-1.3.3.3.4 1.2.1 1.9zm-78.7.4c0 .8-.4 1.2-1 .9-.5-.3-1-1-1-1.6 0-.5.5-.9 1-.9.6 0 1 .7 1 1.6zm42 .9c0 .8-.4 1.5-1 1.5-.5 0-1-.7-1-1.5s.5-1.5 1-1.5c.6 0 1 .7 1 1.5zm27.9 4.2c.1 6.2.8 9.7 2.2 10.2.6.2.4 1-.6 2.1-1.4 1.6-1.4 2-.2 3.2.9.8 1.2 2.1.8 3.3-1.2 3.4.8 14.5 2.6 14.5 1.2 0 1.3.3.4 1.4-.7.9-.9 3.2-.5 6.2.3 2.7.6 6 .6 7.4 0 1.4.4 2.8 1 3.1.7.4.7 1.3 0 2.5-1.3 2.7-.5 4.3 2.1 3.7l2.2-.6-2.3 2.2c-1.7 1.7-2 2.6-1.2 4.1.5 1 1 3.7 1 5.9 0 4.2.7 5 2.8 2.9.9-.9 1.2-.9 1.2.3 0 .8-.5 2-1 2.5-1.5 1.5.6 6.6 2.4 6.2.8-.2 1.5.1 1.5.7 0 .5-.6.9-1.3.7-.8-.1-1.6.7-1.9 1.8-.6 2.5-4.4 2.7-5 .2-.3-.9-.5-3.7-.6-6.1-.1-2.5-.4-4.8-.7-5.3-.3-.5-1.2-7.2-2-15.1-.8-7.8-1.9-18.7-2.5-24.2-.5-5.5-1.2-12.9-1.4-16.5-.2-3.6-.7-10.3-1.1-14.9-.4-5.7-.3-8.2.4-7.7.5.3 1 2.7 1.1 5.3zm-52.9-4.3c0 .3-.4.8-1 1.1-.5.3-1 .1-1-.4 0-.6.5-1.1 1-1.1.6 0 1 .2 1 .4zm-22.9 5.9c-1.3 1.3-1.5-1.1-.4-4 .7-1.6.8-1.5 1.1.6.2 1.3-.1 2.8-.7 3.4zm59.6-.1c-.3.7-.5.2-.5-1.2s.2-1.9.5-1.3c.2.7.2 1.9 0 2.5zm48.3-2.3c0 1.2-2 2.5-2.7 1.8-.7-.7.6-2.7 1.8-2.7.5 0 .9.4.9.9zm-21 1.1c0 .5-.2 1-.4 1-.3 0-.8-.5-1.1-1-.3-.6-.1-1 .4-1 .6 0 1.1.4 1.1 1zm-5 3.6c0 .8-.4 1.4-1 1.4-.5 0-1-.9-1-2.1 0-1.1.5-1.7 1-1.4.6.3 1 1.3 1 2.1zm-36.8 2.4c-.2 2.2-.9 4.3-1.5 4.7-.7.4-.8-.5-.4-2.7.4-1.8.7-3.9.7-4.6 0-.8.3-1.4.8-1.4.4 0 .6 1.8.4 4zm59.7 1.7c1 2.1 4.4 8.5 7.6 14.3 3.1 5.8 8.4 15.6 11.6 21.7L371 715h-3c-2.6 0-3.3-.5-4.2-3-1.3-3.8-3.9-5.3-7-4.1-3.2 1.2-4.6 3-5 6.6-.2 2.1-.8 2.9-1.8 2.6-5.4-1.5-7.8-1.2-9.4 1-.9 1.3-1.6 3.1-1.6 4 0 .9-.8 2.4-1.9 3.3-1.7 1.6-1.9 1.6-2.5-.6-.3-1.3-.6-4-.6-6.2 0-3.1.3-3.7 1.6-3.2 2.7 1 10.4-1.5 12.1-4 1.4-2.1 1.3-3.5-.2-13.6-.9-6.2-2.1-14.5-2.5-18.3-.5-3.9-1.2-8.9-1.6-11.3-.8-5.2 0-5.4 2.5-.5zM370 665c0 .5-.2 1-.4 1-.3 0-.8-.5-1.1-1-.3-.6-.1-1 .4-1 .6 0 1.1.4 1.1 1zm-59 2.5c0 .8-.2 1.5-.4 1.5s-.6-.7-1-1.5c-.3-.8-.1-1.5.4-1.5.6 0 1 .7 1 1.5zm22 2.2c.2.2-.1 1.3-.8 2.3-1.7 2.8-1.5 5.3.3 4.6 2.1-.8 1.9.8-.4 2.8-1.8 1.6-1.9 1.5-2.5-2.1-.4-2.1-.9-5.1-1.2-6.6-.6-2.7-.4-2.8 1.7-2.2 1.3.4 2.6.9 2.9 1.2zm-100.9 4c-1.2 2-1.4 1.4-.5-1.2.4-.9.9-1.4 1.1-1.1.3.2 0 1.3-.6 2.3zm52 1.6c-.8.8-1.1.7-1.1-.4 0-2 1.3-3.4 1.8-1.9.3.7-.1 1.7-.7 2.3zM306 673c0 .5-.5 1-1.1 1-.5 0-.7-.5-.4-1 .3-.6.8-1 1.1-1 .2 0 .4.4.4 1zm5 0c0 .5-.5 1-1.1 1-.5 0-.7-.5-.4-1 .3-.6.8-1 1.1-1 .2 0 .4.4.4 1zm58.5 1c-.3.5-1.2 1-1.9 1-.8 0-1.9.7-2.6 1.5-.7.8-1.6 1.2-2.1.9-1.7-1-.9-2.1 2.4-3.2 4.3-1.3 4.9-1.4 4.2-.2zm-9.5 3c0 .5-.2 1-.4 1-.3 0-.8-.5-1.1-1-.3-.6-.1-1 .4-1 .6 0 1.1.4 1.1 1zm139-.3c-.1 1.5-3 4.6-3.7 4-.3-.4.2-1.6 1.2-2.7 1.9-2.1 2.5-2.4 2.5-1.3zm-19.4 3c.4 1.6.8 3.7.8 4.8.1 1.1 1.8 5.1 4 8.8 4 7.1 4.2 8.6.8 6.8-1.2-.6-3.3-1.1-4.9-1.1-1.6 0-3.6-.9-4.6-2-.9-1.1-2.4-2-3.2-2-1.9 0-1.2-3.9 1.6-8.8 1.4-2.4 1.5-3.4.6-3.7-.6-.2-1.9-.5-2.7-.8-1-.3-.6-.8 1.3-1.6 1.5-.6 2.7-1.5 2.7-2.1 0-2.2 2.8-.8 3.6 1.7zm5 4c-1.4 1.4-2.3-.9-1.3-3.2l1.2-2.5.3 2.6c.2 1.4.1 2.8-.2 3.1zm-200.6-3c-.1 1.8-1.8 3.5-2.4 2.4-.4-.6-.4-1.6-.1-2.1.7-1.2 2.5-1.3 2.5-.3zm-69.8 5.5c.2 1.5 1.1 2.4 2.6 2.6 2.9.4 2.8 2.2-.3 6.8-3.8 5.6-3.7 8.1.7 13.6 2.5 3.3 3.5 3.8 7 3.8 3.2 0 4.7-.7 7.4-3.4 1.9-1.9 3.4-4.3 3.4-5.4 0-2.7 1.8-3.8 2.7-1.6.6 1.5-2.7 13.3-4.5 16.2-1.2 1.8-4 .4-4.4-2.1-.4-2.9-3.2-2.8-3.6 0-.4 2.7-1.8 2.8-14.1 1-7.2-1.1-8.7-1.7-10.4-3.9-1.1-1.5-1.7-3.4-1.4-4.2.8-2 4.6-2.1 5.3-.1.7 1.7 3 2 3.9.5.4-.6.1-1.8-.6-2.6-1.7-2.1-1.3-15.6.6-20.1 1.7-3.9 5.2-4.6 5.7-1.1zm15.8-.6c0 .8-.5 1.2-1 .9-.6-.4-.8-1.1-.5-1.6.9-1.4 1.5-1.1 1.5.7zm-105.6 1.6c.3 1.3.6 3.4.6 4.9 0 3.6 4.4 19.8 6.4 23.7 2 3.8 1.4 5.2-2 5.2-1.7 0-2.7-.8-3.4-2.4-.5-1.3-2.2-2.8-3.8-3.4-1.8-.6-3.4-2.2-4.2-4.1-1.5-3.6-4.8-4.8-8.2-3-3.1 1.7-4.7 3.9-4.8 6.7 0 1.4-1.2 2.9-3.2 4.2-3.2 1.9-6.8 2.7-6.8 1.4 0-1.8 26.7-35.4 28.1-35.4.4 0 .9 1 1.3 2.2zM312 686c0 1.3-2 1.3-4 0-1.2-.8-.9-1 1.3-1 1.5 0 2.7.4 2.7 1zm-30.8 11.5c-1.4 7.7-2.2 10.1-3.5 10.3-1.2.2-1.7-.3-1.7-1.8 0-1.3.4-1.9 1.1-1.4.8.5 1-.3.6-2.7-.8-4.1.5-10 2.9-13.7 2.5-3.8 2.6-2 .6 9.3zm52.8 1.8c0 2.5.3 2.7 2.3 2.2 1.2-.4 2.9-.9 3.8-1.1 1.7-.5 3.3 1.9 2.2 3-.4.3-1.9.6-3.5.6-4.1 0-3.7 2.8.5 3.2 4.1.4 4.3 2.9.2 4-5.4 1.4-6.2.6-6.9-8.5-.4-4.5-.9-10-1.1-12.2-.5-3.8-.4-3.8 1 1 .8 2.7 1.5 6.3 1.5 7.8zm-33.4-6.5c-1.2 1.1-1.8-.7-1-3l.8-2.3.4 2.3c.2 1.3.1 2.6-.2 3zm10.4-.2c0 .9-.5 1.4-1.2 1.2-1.8-.6-2.1-2.8-.4-2.8.9 0 1.6.7 1.6 1.6zm-53 .9c0 .8-.4 1.5-1 1.5-.5 0-1-.7-1-1.5s.5-1.5 1-1.5c.6 0 1 .7 1 1.5zm37.1 20.8c.3 12.8.1 16.1-1 16.5-.9.3-1.1-.1-.7-1.6.4-1.3.1-2.5-.9-3.4-4.4-3.7-4.3-3-2.4-15 1-6.2 2.1-13.1 2.5-15.3l.8-4 .7 3.3c.4 1.9.8 10.6 1 19.5zm80.4-21.3c.3.6-.1.7-.9.4-1.8-.7-2.1-1.4-.7-1.4.6 0 1.3.4 1.6 1zm-152.1 10c-.4 1.8-.3 2.1.4 1.1.6-.8 1.7-1.1 2.5-.8 1 .4 1.9-.4 2.7-2.4 1.4-3.2 3-3.9 3-1.2 0 2.8-3.4 7.7-6.5 9.3-2.7 1.4-2.8 1.4-5.6-2-1.6-1.9-2.9-3.8-2.9-4.2 0-.5 1.2-2.7 2.7-5l2.8-4.1.7 3.4c.4 1.9.4 4.5.2 5.9zm118.6-7c0 .5-.4 1-1 1-.5 0-1-.5-1-1 0-.6.5-1 1-1 .6 0 1 .4 1 1zm104.7-.4c-.3.3-1.2.4-1.9.1-.8-.3-.5-.6.6-.6 1.1-.1 1.7.2 1.3.5zm-68.7 2.5c0 .6-.4.7-1 .4-.5-.3-1-1.1-1-1.6 0-.6.5-.7 1-.4.6.3 1 1.1 1 1.6zm119.3-.6c-.3.9-.8 1.4-1 1.1-.3-.3-.2-.9.2-1.5.9-1.6 1.5-1.3.8.4zm-26.6.5h5.2l-.6 3.5c-.5 2.8-.2 3.5 1.1 3.5.9 0 1.9-.7 2.3-1.6.5-1.3 1.4-1.5 4.4-1 6.8 1.1 8.9 2.5 8.9 6.2 0 4.7-1.7 8.7-3.5 8-.8-.3-1.7-.1-2 .5-1.3 2-2.3 23.4-1.2 24.5 1.5 1.6.5 2.4-2.8 2.4-3.4 0-6.3-2.8-5-4.9.9-1.6-.6-4.1-2.5-4.1-1.3 0-2 1.1-2.5 3.7-.4 2.1-.9 4.1-1.2 4.5-.7 1.3-4.3-1.2-4.3-3 0-1.7-6.2-14.5-8.2-16.9-2-2.5-4.6-1.3-8.7 4.2-5.3 7-5.7 8.2-3.7 10.4 1.5 1.7 1.5 1.9 0 3.2-1.4 1.2-9.3 1.3-46.3 1.1-24.5-.2-44.9-.6-45.3-.8-.5-.3-.8-1.4-.8-2.5 0-3-4.7-2.6-6.2.6-1.1 2.4-1.6 2.6-6.2 2.3l-5.1-.3-.1-4.8c-.1-2.6 0-4.7.3-4.7.2 0 1.1 1.6 1.9 3.5 1.3 3.2 4.4 4.9 4.4 2.5 0-.6.5-1 1.2-1 .6 0 1.9-.7 2.8-1.5.9-.8 3.1-1.6 5-1.7 3.1-.3 3.5 0 3.8 2.2.6 4 2.1 4.8 4.1 2.2 1.5-2.1 2.8-2.4 11.2-2.9 8.7-.5 9.5-.4 11.3 1.6 2.6 2.8 10.8 2.9 15 .2 2.3-1.5 3.4-1.7 4.9-.9 3 1.6 5-1.2 5.1-6.9l.1-4.8 5 .3c2.8.2 7.8.4 11.3.5l6.2.2v3.6c0 3.6 2.1 6.6 3.8 5.5.5-.3.6-4.3.4-9-.6-11.7.3-17.6 2.9-17.6 1.1 0 1.9-.7 1.9-1.6 0-1.3-.7-1.5-3.1-1-3.8.7-5.9-.7-5.2-3.5.8-2.7 3.9-3.8 8.4-2.8 2.3.5 7.2.3 13-.5 5.2-.8 10.3-1.2 11.4-1 1.1.2 4.3.4 7.2.4zm-159.7.4c0 .2-.9.6-2 .9-1.1.3-1.8.1-1.4-.4.5-.9 3.4-1.3 3.4-.5zm-82.5 1.6c-.3.5-1.1 1-1.6 1-.6 0-.7-.5-.4-1 .3-.6 1.1-1 1.6-1 .6 0 .7.4.4 1zm27.5 0c0 .5-.4 1-1 1-.5 0-1-.5-1-1 0-.6.5-1 1-1 .6 0 1 .4 1 1zm-61.4 2.8c.7 1.7.7 3.7.2 5.4-.7 1.9-.5 3.5.6 5.7 2 3.8 2 4.1-.4 4.1-1 0-3.1.5-4.5 1.2-2.3 1-2.9.9-5.2-1.4-2-2-2.4-3.2-1.9-5.3.6-2.2 1.2-2.6 3.4-2.3 2.5.3 2.7 0 2.7-3.3.1-3.4 1.8-6.9 3.4-6.9.4 0 1.1 1.2 1.7 2.8zm185.4.3c0 .6-.4.7-1 .4-.5-.3-1-.1-1 .4 0 .6.5 1.1 1 1.1.6 0 1 1.1 1 2.4 0 1.3.7 2.9 1.5 3.6.8.7 1.5 1.9 1.5 2.6 0 3-1.7 1.1-4.4-4.7-2.2-4.8-2.5-6.3-1.5-7 1.5-.9 2.9-.3 2.9 1.2zm-70 .8c0 1.2-2 2.5-2.7 1.8-.7-.7.6-2.7 1.8-2.7.5 0 .9.4.9.9zm-56.4 3.8c-1 1-1.9-.5-1-1.8.6-1.1.8-1.1 1.2 0 .2.7.1 1.5-.2 1.8zm119.2-.3c.3 1.2-.1 1.7-1 1.4-.7-.3-1.5-1.3-1.6-2.2-.3-1.2.1-1.7 1-1.4.7.3 1.5 1.3 1.6 2.2zm-71.8 3.1c0 2.5-.4 4.5-.8 4.5-.6 0-.9-7.7-.3-8.8.6-1.2 1.1.6 1.1 4.3zm16.6 11.3c.6 8.8.5 9.4-1.2 9-1.7-.3-1.9-1.4-2.2-9.3-.2-5 0-10.6.4-12.5l.7-3.5.8 3.5c.4 1.9 1.1 7.7 1.5 12.8zM310 710c0 .5-.4 1-1 1-.5 0-1-.5-1-1 0-.6.5-1 1-1 .6 0 1 .4 1 1zm-40.6 1.9c1.6 1.7 1.7 2.6.7 7.1-1.7 7.7-1.4 8.8 2.2 10.6 4 2.2 2.1 3-2.5 1.1-3.1-1.3-3.7-2.2-5.2-7.7-1.8-6.3-1.5-10.8.7-12.2 1.8-1.1 2.2-1 4.1 1.1zm-154.9 1c.7 2.2-1 7.1-2.5 7.1-.6 0-1.6-1.1-2.2-2.5-.9-2.1-.8-2.8.7-4.5 2.3-2.5 3.2-2.5 4-.1zm134-.9c.3.5-.1 1-.9 1-.9 0-1.6-.5-1.6-1 0-.6.4-1 .9-1 .6 0 1.3.4 1.6 1zm29.9 2.3c-.3.9-1.2 1.7-2 1.7-1.7 0-1.7-.5-.2-3 1.4-2.2 3.2-1.2 2.2 1.3zm83.1 2.2c1.7 5.8 2.5 6.5 4.5 4 1.7-2 3-1.9 3 .3 0 3 2.1 4.4 4.1 2.6 1.5-1.4 1.8-1.1 3.7 2.7 1.2 2.3 1.9 4.6 1.6 5.1-.3.4-4.3.8-8.9.8h-8.4l-4-5.9c-3.1-4.5-3.6-5.8-2.3-5.7 1.3.1 1.6-.6 1.4-2.4-.9-8.2 3.1-9.3 5.3-1.5zm-109.5-3c0 .8-.4 1.5-1 1.5-.5 0-1-.7-1-1.5s.5-1.5 1-1.5c.6 0 1 .7 1 1.5zm136.4 5.3c1.6 2.5 2.2 4.7 1.9 6.4-.5 2.5 1.4 4.6 4.2 4.6 3.4.1-.9 5.8-5.2 6.9-3 .7-4.9-1-6.4-5.5-.6-2-2.2-5.5-3.5-7.8-2.7-4.5-2.9-5.4-1.4-5.4.6 0 1.5 1.1 2 2.5s1.6 2.5 2.4 2.5c2 0 3.6 3.2 3 5.7-.7 2.4 1.3 4 2.9 2.4.7-.7.5-2.2-.9-5.2-1.4-3.2-1.5-4.4-.6-4.7 1.9-.6 1.4-1.9-1-2.7-1.4-.4-1.8-.8-1-1.2.6-.2 1-.9.6-1.4-.3-.5-.3-.9 0-.9s1.7 1.7 3 3.8zm-78.8 7c-1.3 1.2-1.6-.8-.9-4.9l.8-4.4.3 4.4c.2 2.3.1 4.6-.2 4.9zm101.8-4.7c-.6 1-4.4 1.2-4.4.3 0-.3.5-1.5 1.1-2.6 1.1-2.1 1.2-2.1 2.5-.3.7 1 1.1 2.2.8 2.6zm-110 .2c.4 1.9.3 2.6-.4 2.2-.5-.3-1-1.8-1-3.2 0-3.2.5-2.8 1.4 1zM34 719.9c0 1-3.5 2.1-6.5 2.1-1.8-.1-1.7-.2.5-1.5 2.8-1.6 6-1.9 6-.6zm243-.5c0 .3-.4.8-1 1.1-.5.3-1 .1-1-.4 0-.6.5-1.1 1-1.1.6 0 1 .2 1 .4zm69.7 1.1c.5 1.5-2.1 4.4-3.9 4.5-1 0-1-4.4-.1-5.3 1.2-1.2 3.3-.7 4 .8zm-96.7-.1c0 .3-.4.8-1 1.1-.5.3-1 .1-1-.4 0-.6.5-1.1 1-1.1.6 0 1 .2 1 .4zm-45.1 2.5c-1.7 1.4-2.6 1.6-3.1.8-1.4-2.1-.8-2.7 2.3-2.7h3.1l-2.3 1.9zm-35.9.1c0 .5-.9 1.4-2.1 2-1.1.7-1.8 1.7-1.6 2.4.3.7-.8 1.8-2.3 2.4-1.5.7-3 2-3.4 3-.3.9-1.1 2.5-1.8 3.5-1.1 1.4-1.1 1.9 0 2.6.8.5 1.4 2.7 1.4 5.4 0 5.4 2 8.9 3.9 7 1-1 1.6-.7 3 1.4 1 1.4 1.5 3.2 1.2 3.9-.3.8.6 1.8 2.2 2.4 3.8 1.4 4.5 1.3 4.5-1 0-1.1.5-2 1-2 1.4 0 1.2 2.4-.2 3.8-1 1-1 1.5.2 2.2 1.7 1.1 4-1.3 4-4.1 0-2.2 1.6-3.3 3.3-2.2.6.4 2.8.8 4.7.9 8.2.4 17.1 1.7 17.6 2.6.4.6-.1 1.7-1 2.6-1 1.1-1.6 1.2-1.6.4 0-.7-.4-1.2-.8-1.2-.5 0-.8 1-.8 2.2.1 1.5-1.2 3-4.6 5.1-4.1 2.5-5 2.8-6.4 1.6-1.3-1.1-1.7-1-2.5.4-.9 1.6-1.2 1.6-3.4.1s-2.5-1.5-2.5-.1c0 2.3-1.8 3.1-3.7 1.6-1.3-1.1-1.7-1-2.8.4-1.2 1.6-1.3 1.6-1.8-.4-.7-2.5-3.2-2-3.2.7 0 1-.8 2-1.8 2.2-1 .2-1.7-.3-1.7-1.1s-.6-2-1.4-2.6c-1.1-.9-1.5-.8-2 .5-.3.9-.3 2.1.1 2.7.4.6 0 .8-1 .4-.9-.3-3 .1-4.6.9-2.6 1.3-2.9 1.8-2.1 3.5 1.3 2.3.2 2.5-1.5.2-1.8-2.4-3.7-.7-3 2.8.6 2.8-.7 4-2 1.9-1.1-1.8-2.4-1-2.7 1.7-.3 2.5-.7 2.8-4.8 3.1-6.9.4-7.7-.5-6.2-7.6.7-3.2 1.2-7.3 1.2-9 0-2.1.5-3.2 1.4-3.2 2.3 0 2.9-2 1.2-3.9-2.3-2.5-2-3.2 1-2.5 2.3.6 2.5.4 2.2-1.7-.2-1.5-1.2-2.5-2.8-2.9-1.8-.4-2.6-1.3-2.8-3.3-.3-2.4 0-2.7 2.8-2.7 1.7 0 4 .5 5.2 1.1 1.8.9 1.9.8 1.3-1-.5-1.6.2-2.8 2.6-5 3.9-3.6 3.5-6.7-.9-5.6-1.5.3-5.1.9-7.9 1.1-4.9.5-5.3.4-5.3-1.7 0-1.6.4-1.9 1.8-1.3 2.4 1.1 8.2.8 9.5-.5.6-.6 2.1-1.1 3.4-1.1 1.6 0 5.1-2.6 10.6-8 8-7.8 9.7-9 9.7-7zm30 0c0 .5-.5 1-1.1 1-.5 0-.7-.5-.4-1 .3-.6.8-1 1.1-1 .2 0 .4.4.4 1zm59.8.2c1.6 1.6 1.5 3.8-.2 3.8-1.3 0-2.6-2-2.6-4.1 0-1.3 1.4-1.1 2.8.3zm-144.2.9c.3.5 4.8.9 10 .9s9.4.3 9.4.6-1 1.4-2.2 2.4c-2.1 1.7-2.4 2.7-2.7 10.9l-.1 3.3-18.7-.6c-10.4-.3-21.7-.5-25.2-.6-5 0-6.2-.3-5.8-1.4 1.3-3.2 9.3-12.7 11.2-13.1 1.1-.2 4.5-1.1 7.5-1.8 6.1-1.6 15.8-1.9 16.6-.6zm99.4-.2c0 .5-1 1.3-2.2 1.7-1.3.4-2.8 1.4-3.5 2.3-.7.9-1.2 1.1-1.3.4 0-1.2 4.7-5.3 6.1-5.3.5 0 .9.4.9.9zm9.6 2.8c-1 1-1.9-.5-1-1.8.6-1.1.8-1.1 1.2 0 .2.7.1 1.5-.2 1.8zm53.4-1.2c1 1.2 1 1.5-.3 1.5-.8 0-2-.7-2.7-1.5-1-1.2-1-1.5.3-1.5.8 0 2 .7 2.7 1.5zm-91.9.5c1.7 0 .9 1.8-1.4 3.3-2.3 1.5-2.4 1.4-2.4-1.4 0-2.2.4-2.8 1.4-2.4.8.3 1.9.5 2.4.5zm167.2.8c2.2 2.4 1.3 3.2-3.5 3.2-4.2 0-4.6-.5-2.1-3.2 2-2.3 3.6-2.3 5.6 0zM220 728c0 1.1-.4 2-1 2-.5 0-1-.9-1-2s.5-2 1-2c.6 0 1 .9 1 2zm238.9 2c1.1 2.2 1.6 4.2 1.1 4.5-.5.3-1.6-1.1-2.5-3.1-2.7-6.5-1.8-7.5 1.4-1.4zM7.5 727.9c-.6.4-2.3 1.1-4 1.4l-3 .6 3-1.4c3.5-1.6 5.4-1.9 4-.6zm223.5 0c0 .5-.8 1.7-1.7 2.7-1.8 1.8-3 .6-1.9-2.1.6-1.6 3.6-2.1 3.6-.6zm59 2.7c0 .9-1.2 1.4-3.7 1.4h-3.6l2.3-2.5c1.8-1.9 2.6-2.2 3.7-1.4.7.6 1.3 1.8 1.3 2.5zm49.2-1.4c-.7.7-1.2.8-1.2.2 0-1.4 1.2-2.6 1.9-1.9.2.3-.1 1.1-.7 1.7zm-123.3 2c-.1 3.1-.1 3.1-.8.8-.5-1.4-.6-2.8-.4-3.3.9-1.5 1.3-.6 1.2 2.5zm67.4 4l12.7-.1v7.4l-23.7-.3c-13.1-.1-24.4-.5-25.1-.7-.9-.3-1-1-.3-2.2.6-1 1.9-3.9 3-6.5l1.9-4.6 9.4 3.5c8.9 3.4 9.8 3.5 22.1 3.5zm211.3 0c-.6 3.4-.4 4 1.4 4.5 1.1.3 2 1.4 2 2.4 0 1.6-.8 1.9-4.1 1.9h-4l.5-5c.3-2.7 1-5.9 1.6-7 1.7-3.2 3.3-1.3 2.6 3.2zM226 732.4c0 .8-.4 1.8-1 2.1-.5.3-1-.3-1-1.4 0-1.2.5-2.1 1-2.1.6 0 1 .6 1 1.4zm-45.3 1.8c-.3.8-.6.5-.6-.6-.1-1.1.2-1.7.5-1.3.3.3.4 1.2.1 1.9zM310 733c0 .5-.4 1-1 1-.5 0-1-.5-1-1 0-.6.5-1 1-1 .6 0 1 .4 1 1zm-139 1.6c0 .2-.7.4-1.5.4s-1.5-.4-1.5-1c0-.5.7-.7 1.5-.4.8.4 1.5.8 1.5 1zm148 .9c0 .9-.9 1.5-2.5 1.5s-2.5-.6-2.5-1.5.9-1.5 2.5-1.5 2.5.6 2.5 1.5zm-97.4 1.6c.8 1.4-1.1 3.3-2.5 2.5-1.1-.7-.4-3.6.9-3.6.5 0 1.2.5 1.6 1.1zm5.5 4.2c-2.1 2.1-3.2-.7-1.3-3.3l1.7-2.5.3 2.4c.2 1.3-.1 2.8-.7 3.4zm14.9-3.4c0 1.8-1.8 2.1-3 .6-1-1.3-.9-1.5.9-1.5 1.1 0 2.1.4 2.1.9zm220.8 2.8c.3 2.2 0 2.3-5.8 2.3-6.2 0-6.5-.2-3.7-3.8.6-.8 2.6-1.2 5.1-1 3.4.2 4.2.7 4.4 2.5zm-144.1-.1c.2.6-.8 1.4-2.2 1.6-2 .4-2.5.1-2.5-1.4 0-1.4.6-1.9 2.2-1.6 1.2.2 2.3.8 2.5 1.4zm-84.7.4c.8.5 1.2 1.2.8 1.5-1 1-4.9-.5-4.3-1.6.8-1.1 1.6-1.1 3.5.1zm70.5 4c.3.5.1 1-.4 1-.6 0-1.1-.5-1.1-1 0-.6.2-1 .4-1 .3 0 .8.4 1.1 1zm-171.7 2.7c.6.9 1.2 2.1 1.2 2.6 0 .6-10.4.7-26.2.3-14.5-.3-28.7-.6-31.7-.6-5.3 0-5.4 0-3.6-1.9 2.2-2.5 4-2.7 34-2.3 21.8.3 25.2.5 26.3 1.9zm98.7-1.8c1 1.7 9.4 2.5 11.1 1 1.2-.9 7.7-1.3 26.9-1.3l25.4-.1.4 2.5c.3 1.4.3 2.8.1 3.1-.3.5-71.4.1-115.2-.6-8-.1-10.1-.9-10.2-3.8 0-.4 12.6-.7 28.1-.7 15.4.1 28.3-.1 28.7-.4.9-.9 4-.7 4.7.3zm78 .1c.3.5-.1 1-.9 1s-1.8-.5-2.1-1c-.3-.6.1-1 .9-1s1.8.4 2.1 1zm-271.2 5.8c.9.8 1.7 2.5 1.7 3.8 0 3-2.1 8.2-2.7 6.6-.7-1.9-2.3-.4-2.3 2.3 0 1.3-.4 2.6-.9 2.9-.5.3-1.4 2.7-2 5.2-1 3.9-.9 4.9.4 6.4 1.7 1.8 2.1 5.5.5 4.5-.6-.4-.8-1.1-.5-1.6.4-.5 0-.9-.7-.9s-1.9-1.4-2.7-3c-1-2.4-1-3.4-.1-4.5.7-.8 1-2.6.8-4-.3-1.4-.2-2.5.1-2.5.4 0 .6-2.9.6-6.5-.1-5.7.1-6.5 1.7-6.5 2.1 0 2.4-2 .6-3.9-1.1-1.1-.8-1.2 1.2-.6 1.4.4 3.3 1.4 4.3 2.3zm270.7.6c0 .3-.4.8-1 1.1-.5.3-1 .1-1-.4 0-.6.5-1.1 1-1.1.6 0 1 .2 1 .4zm-249.4 6.1c1.8 1.3 1.7 1.4-1.7 1.5-3.4 0-7.7 2.9-6.3 4.2.3.3.1.9-.5 1.3-.7.4-1.1-.5-1.1-2.3 0-2.2.7-3.2 3.3-4.5 4-2 3.9-2 6.3-.2zm249.4.5c0 .5-.4 1-1 1-.5 0-1-.5-1-1 0-.6.5-1 1-1 .6 0 1 .4 1 1zm-280.8 3.2c-.7.7-1.2.8-1.2.2 0-1.4 1.2-2.6 1.9-1.9.2.3-.1 1.1-.7 1.7zm272.5 5c-.3.7-.5.2-.5-1.2s.2-1.9.5-1.3c.2.7.2 1.9 0 2.5zM61 766c0 .5-.4 1-1 1-.5 0-1-.5-1-1 0-.6.5-1 1-1 .6 0 1 .4 1 1zm247 4.5c0 .8-.4 1.5-1 1.5-.5 0-1-.7-1-1.5s.5-1.5 1-1.5c.6 0 1 .7 1 1.5zm-251.5.5c.3.5.2 1-.4 1-.5 0-1.3-.5-1.6-1-.3-.6-.2-1 .4-1 .5 0 1.3.4 1.6 1zm247.1 3.8c-.4.3-1.4-.2-2.4-1.2-1.6-1.8-1.6-1.8.6-.6 1.3.6 2.1 1.4 1.8 1.8zM67 777c0 .5-.4 1-1 1-.5 0-1-.5-1-1 0-.6.5-1 1-1 .6 0 1 .4 1 1zm-29.5 1c.3.5.1 1-.4 1-.6 0-1.1-.5-1.1-1 0-.6.2-1 .4-1 .3 0 .8.4 1.1 1zm123.5 1c0 .5-.4 1-1 1-.5 0-1-.5-1-1 0-.6.5-1 1-1 .6 0 1 .4 1 1zm-110 3c0 .5-1.1 1-2.5 1s-2.5-.5-2.5-1c0-.6 1.1-1 2.5-1s2.5.4 2.5 1zm-8.4 3.9c2.2-.4 3.4.2 3.4 1.7 0 1-.6 1.4-1.5 1.1-.8-.4-1.7-.1-2.1.4-.3.6-1.2-.2-2-1.6-1.8-3.4-1.8-4 0-2.6.8.6 1.8 1.1 2.2 1zm-6.6.1c0 .5-.2 1-.4 1-.3 0-.8-.5-1.1-1-.3-.6-.1-1 .4-1 .6 0 1.1.4 1.1 1zm-3 1c0 .5-.4 1-1 1-.5 0-1-.5-1-1 0-.6.5-1 1-1 .6 0 1 .4 1 1zm18 1.4c0 2-1.9 3.1-3.2 1.8-.6-.6-.7-1.5-.4-2.1 1-1.6 3.6-1.3 3.6.3zm-11.7 9.5c-1.6 1.5-1.6 1.5-1.1-.1.4-1 .1-1.9-.8-2.2-1.2-.5-1.1-.9.3-2.6 1.8-2 1.8-2 2.5.6.5 1.9.2 3.1-.9 4.3zm12.5 1.2c-.2.6-.8 1-1.3 1s-1.1-.4-1.3-1c-.2-.6.4-1.1 1.3-1.1s1.5.5 1.3 1.1zm3.2 3.8c0 .6-.4 1.3-1 1.6-2 1.3-1 2.7 1.5 2.1 1.8-.5 2.5-.2 2.5.8s-5 3.1-5.6 2.3c-.1-.1-.4-1.9-.7-4-.5-3.2-.3-3.7 1.4-3.7 1 0 1.9.4 1.9.9zm11.2 9.7c.9.3 1.9 1.2 2.2 2 .6 1.6-1 2.9-1.9 1.4-.9-1.5-2.5-1.2-2.5.4 0 2-3.2 2.8-7.5 2-4.4-.8-4.7-2.5-.2-2 1.7.3 3.3.5 3.5.5.9.3 1.7-.3 1.4-1.1-.5-1.9 1-4.9 2.1-4.4.7.3 2 .9 2.9 1.2zm-15.8 4c.7 1.8-2.4 1.9-4.9 0-1.1-.8-1.6-1.9-1.2-3 .6-1.5.9-1.5 3.1-.1 1.3.9 2.7 2.3 3 3.1zm31.3-.3c4.8 3.2 5.2 4.7.6 2.4-2.3-1.2-3.3-1.2-5.8-.2-3.7 1.6-6.5.3-6.5-3 0-4.3 4.6-4.1 11.7.8z"/><path d="M381.5 71c-.3.5-.1 1 .4 1 .6 0 1.1-.5 1.1-1 0-.6-.2-1-.4-1-.3 0-.8.4-1.1 1zM435.4 222.2l-1.9 2.3 2.3-1.9c2.1-1.8 2.7-2.6 1.9-2.6-.2 0-1.2 1-2.3 2.2zM326.7 357.6c-.4.4-.7 2.7-.7 5s-.4 5.4-1 6.9c-.8 2.1-.7 2.7.7 3.2 2.8 1.1 4.4-2.6 4.1-9.1-.3-5.5-1.4-7.7-3.1-6zM222.9 383.9c-4.5 3-13.4 12.6-15.6 16.9-.7 1.3-1.3 3.3-1.3 4.4 0 3.4 2.4 1.5 5.3-4.2 1.5-3 4-6.7 5.5-8.3 3.5-3.8 11.1-8.7 13.4-8.7 1 0 1.8-.7 1.8-1.5 0-2.4-4.3-1.8-9.1 1.4zM255.7 423.6c-2.3 2.4 1.3 21.2 4.2 22.2 1.1.4 1.2-.1.7-1.9-.4-1.3-1.2-6.2-1.8-10.9-1.1-8.4-1.8-10.7-3.1-9.4zM214.7 462.7c-1.5 1.5-.4 3.8 4.4 9.4 4.9 5.6 7.1 7 8.3 5 .6-.8-10.2-14.9-11.5-15-.3-.1-.9.2-1.2.6zM309.5 395.4c-3.8 1.6-6.5 4.6-4.2 4.6 2.2 0 10.7-4 10.7-5 0-1.4-2.9-1.2-6.5.4zM293.8 405.8c-3.7 4.4-6.4 11-5 12.4 1.5 1.5 2.4.5 4.2-4.2.7-1.9 2.4-4.9 3.7-6.7 2.7-3.7 2.8-4.3.9-4.3-.8 0-2.5 1.3-3.8 2.8zM296.8 411.2c-3.2 5-4 9.8-1.7 9.8.6 0 5.9-10.4 5.9-11.6 0-1.4-3 0-4.2 1.8zM365.5 414c-.7 1.2.2 3 1.6 3 .5 0 .9-.9.9-2 0-2.1-1.5-2.7-2.5-1zM302.2 417.7c-.7.3-1.9 1.8-2.7 3.4-.9 1.7-2.4 2.9-3.5 2.9-1.7 0-2 .7-2 4.5 0 2.8.4 4.5 1.2 4.5.6 0 2 .7 3 1.6 1.7 1.6 1.7 1.4 1.5-4.2-.2-4.8.2-6.5 2.2-9.2 2.4-3.4 2.5-4.2.3-3.5zM304.5 427.5c-1.7 5.6-1.7 10.6-.1 10.5.5 0 1.1-2.1 1.2-4.7.1-2.7.7-6 1.3-7.5.6-1.6.7-3 .1-3.3-.5-.3-1.6 1.9-2.5 5zM287.4 427.5c-.9 2.1 2.5 9.4 4.9 10.6 1 .6 2.5.8 3.3.5 1.2-.4.7-1.4-2-4.2-2-2.1-3.6-4.5-3.6-5.5 0-2.4-1.9-3.4-2.6-1.4zM309.5 436.3c-.4 1-.5 2.1-.1 2.4 1 1 1.8-.4 1.3-2.4-.4-1.7-.4-1.7-1.2 0zM318.6 438.5c-.3.8-.1 1.7.3 2 .5.3 1.1-.2 1.5-1 .3-.8.1-1.7-.3-2-.5-.3-1.1.2-1.5 1zM323.6 439.9c-.4.7-.5 1.5-.2 1.8.9.9 1.9-.4 1.4-1.8-.4-1.1-.6-1.1-1.2 0zM328.5 442c-.3.5-.1 1 .4 1 .6 0 1.1-.5 1.1-1 0-.6-.2-1-.4-1-.3 0-.8.4-1.1 1zM342.1 446.4c-.7.8-.8 1.7-.3 2 .6.3 1.5-.1 2.1-.8.7-.8.8-1.7.3-2-.6-.3-1.5.1-2.1.8zM347.7 445.7c-.4.3-.7 1.9-.7 3.5 0 4 2.4 3.1 2.8-1 .3-3-.6-4.1-2.1-2.5zM351.9 447.3c-1.2 2.7-.6 6.2 1 5.3 1.4-.9 2.3-5.8 1.2-6.9-.7-.7-1.4-.2-2.2 1.6zM167 583.5c0 .8.4 1.5.9 1.5.4 0 2.9 1.6 5.5 3.6 4.2 3.2 6.6 3.7 6.6 1.4 0-1.4-9.2-7.9-11.2-8-1 0-1.8.7-1.8 1.5zM168.5 590.9c-.6 1 4.6 5.1 6.4 5.1 2.2 0 1-3-1.9-4.5-3.4-1.8-3.7-1.8-4.5-.6zM167.2 597.7c.2 1 1.3 1.9 2.6 2.1 2.4.4 2.9-.7 1-2.6-1.8-1.8-4-1.5-3.6.5zM166 603.5c0 1 .7 1.5 1.8 1.3 2.1-.4 1.9-2.2-.2-2.6-1-.2-1.6.3-1.6 1.3zM162.5 610.1c-1 1.5.1 2.3 2 1.5.9-.3 1.3-1 1-1.6-.8-1.3-2.2-1.3-3 .1zM158 619c0 .5.5 1 1 1 .6 0 1-.5 1-1 0-.6-.4-1-1-1-.5 0-1 .4-1 1zM83 714.4c0 .7.7 1.9 1.5 2.6 1.9 1.6 4.1-.1 3.2-2.4-.8-2-4.7-2.1-4.7-.2zM167.5 628.5c-1.9 1.5-1.9 1.5 1 1.3 1.7-.2 2.9-.7 2.8-1.3-.3-1.6-1.8-1.6-3.8 0zM475.4 688.1c-.8 1.4 1.1 3.3 2.5 2.5.6-.4 1.1-1.4 1.1-2.2 0-1.6-2.6-1.9-3.6-.3zM462 703.3l-3.5 1.1 3.8 1c3.5.9 3.7 1.2 3.7 4.8 0 2.7.4 3.8 1.5 3.8 2 0 2.9-4.3 1.6-6.9-.6-1.1-1-2.6-.9-3.3.4-1.6-2-1.9-6.2-.5zM440.5 705.9c-.9 1.5 1.3 2.3 4.5 1.6 4.5-1 4.6-2.5.1-2.5-2.2 0-4.2.4-4.6.9zM479.1 707.4c-.8.9-.3 1.8 2 3.5 4.4 3.3 8.2 1.4 4.2-2.1-2.7-2.3-5-2.8-6.2-1.4zM454.6 708.9c-.3.5.1 1.4.8 2 1.6 1.3 3.2-.2 2.1-1.9-.8-1.2-2.2-1.3-2.9-.1zM460.4 710.4c-.8 2.2.3 3.3 1.8 1.8.9-.9.9-1.5 0-2.4-.9-.9-1.3-.7-1.8.6zM471.5 710c.3.5.8 1 1.1 1 .2 0 .4-.5.4-1 0-.6-.5-1-1.1-1-.5 0-.7.4-.4 1zM441.4 711.5c-.7 1.7.4 3.7 1.7 3 1.2-.8 1.2-4.5-.1-4.5-.6 0-1.3.7-1.6 1.5zM447.7 710.6c-.8.8.1 2.4 1.4 2.4.5 0 .9-.7.9-1.5 0-1.5-1.2-2-2.3-.9zM476.6 713.6c-.8 2 .1 3.4 2 3.4.8 0 1.4-1 1.4-2.5 0-2.8-2.4-3.4-3.4-.9zM471 715c0 .5.5 1 1 1 .6 0 1-.5 1-1 0-.6-.4-1-1-1-.5 0-1 .4-1 1zM480.5 717c-.3 1.1-.3 2.5 0 3 1 1.6 3.5-.8 3.5-3.1 0-2.5-2.7-2.4-3.5.1zM466.7 717.8c-.5.7-1 7.1-.8 10.9.2 3.6 2.9 2.8 3.3-1 .7-7-.8-12.8-2.5-9.9zM415.4 728.1c-1 1.7 1.3 3.6 2.7 2.2 1.2-1.2.4-3.3-1.1-3.3-.5 0-1.2.5-1.6 1.1zM149 755v2.7c0 .5.6.8 1.3.8.6 0 1.2-1.2 1.2-2.8.1-1.6-.4-2.7-1.2-2.7-.7 0-1.3.9-1.3 2zM156.1 757.9c-.6 1-.7 2.1-.4 2.5.7.7 4.3-2.3 4.3-3.6 0-1.6-2.9-.8-3.9 1.1zM160.7 763.9c-.6 2.5 1 3.8 2.6 2.2.8-.8.7-1.5-.5-2.7-1.4-1.4-1.6-1.4-2.1.5zM172.6 764.7c-.9.9-.7 3.3.3 3.3 1.2 0 2.2-2.8 1.2-3.4-.5-.3-1.1-.3-1.5.1zM186 764.8c0 1.7 2.1 2.5 3.1 1.3.5-.6.6-.9.3-.6-.4.3-1.3 0-2.1-.6-.9-.8-1.3-.8-1.3-.1zM447.3 136.4c-2.6 5.4-2.6 5.5-.9 9.8 1.6 4.2 1.6 4.3-.4 5.7-2.4 1.6-2.8 7.1-.5 7.1 2 0 8.4-3.3 8.5-4.4 0-.5 1.1-1.9 2.5-3.2 1.4-1.3 2.5-3.1 2.5-4.1 0-1.3-.3-1.4-1.2-.5-1.5 1.5-2.8 1.6-2.8.2 0-.6 1.1-1.5 2.5-2 2.6-1 3.3-3.4 1.5-4.5-.6-.4-1.7-.1-2.5.5-2.1 1.8-3.2.5-3.9-4.5-.4-2.4-1.1-4.7-1.6-5-.6-.3-2.2 1.9-3.7 4.9zm2.4 7.8c-.3.7-.5.2-.5-1.2s.2-1.9.5-1.3c.2.7.2 1.9 0 2.5zM159.8 188.7c.7.3 1.6.2 1.9-.1.4-.3-.2-.6-1.3-.5-1.1 0-1.4.3-.6.6zM471.6 775.6c-2.1 2.1-3.6 4.6-3.6 6 0 2.1-.5 2.4-3.6 2.4-1.9 0-4.4.5-5.5 1-4.4 2.4-.5 8 5.6 8 2.9.1 2.9.1 1.1 1.5-1.1.8-3.2 1.5-4.6 1.5-1.5 0-3.5.9-4.5 2-2.4 2.7-.7 4.6 5 5.5 5.4.8 5.8 2.6.9 4.4-3.4 1.2-3.5 1.4-3.2 5.9.3 4.1.6 4.7 2.7 5 2.2.4 2.3.1 1.8-3.1-.6-3.6 1.4-7 2.7-4.8 1.7 2.7 2.8 13.2 2.7 26.1-.1 11 .2 15 1.2 16.4 2.9 3.9 3.6.8 3.6-15.7.1-10.3-.4-18.3-1.3-21.9-.7-3.2-1.1-6-.8-6.3.3-.3 5.6-.5 11.8-.5 14.2 0 16.4-.7 16.4-5.5 0-4.5-1.3-4.8-15.8-3.8-10.1.8-13.6.3-11.9-1.4.3-.3 4.9-.5 10.2-.5 5.2 0 9.8-.4 10-.9 1.1-1.7-2.3-2.3-10.7-2.1-5.4.1-8.8-.1-8.8-.8 0-1.4 3.2-1.9 14.2-2.2 9.6-.3 12-1 10.2-2.8-.7-.7-3.7-.7-8.8 0-8 1-15.6.5-15.6-1.1 0-.5 2.5-.9 5.5-.9 3.1 0 5.5-.4 5.5-1 0-1.3-1.5-1.9-6.5-2.3-6.3-.6-5.1-2.3 2.7-3.8 5.8-1.1 7.4-1.8 7.7-3.3.5-2.8-2.6-4.6-8-4.6-4.1 0-5.2.5-8.3 3.6zm10.9.4c0 1.8-3.3 2.6-4.7 1.2-.6-.6-.7-1.5-.3-2.2 1-1.6 5-.8 5 1zM466 788c0 .5-.4 1-.9 1-.6 0-1.3-.5-1.6-1-.3-.6.1-1 .9-1 .9 0 1.6.4 1.6 1zm0 12c0 .5-.7 1-1.5 1s-1.5-.5-1.5-1c0-.6.7-1 1.5-1s1.5.4 1.5 1zm31.5 3.1c1.1 1.7-.3 2.3-7.8 3-7.6.7-17.7.1-17.7-1.1 0-.4 4.8-1.1 10.8-1.7 5.9-.5 11.5-1 12.4-1.1.9-.1 2 .3 2.3.9z"/><path d="M477 813.5c-1 1.2-1 1.8 0 3 2 2.5 5.5 1.5 5.5-1.5s-3.5-4-5.5-1.5z"/></svg>