<svg version="1" xmlns="http://www.w3.org/2000/svg" width="666.667" height="1170.667" viewBox="0 0 500 878"><path d="M233 22.6c-4.7 1.6-4.9 3.2-.3 3.6l3.8.3.3 5.5c.2 3 .1 7.4-.3 9.7l-.6 4.3H231c-4.6 0-7.1 1.3-5.5 2.8.8.8 43.2.5 44.6-.3 1.9-1.2-.3-2.5-4.4-2.5-2.3 0-4.7-.4-5.3-.8-.9-.6-1.6-6.1-1.8-15.7-.1-3.7.1-4 2.5-3.7 2.6.3 5.8-2.2 4.5-3.5-1.1-1.2-28.9-.9-32.6.3zm17.8 13.1l-.3 9.8h-6l-.2-9.8-.3-9.7h7.1l-.3 9.7zM86.2 61.3c-2.2 2.6-2.6 10.4-.8 13.1.9 1.4 1.6 2.7 1.6 3 0 .2-1.6 1.3-3.6 2.5-2.6 1.6-3.5 2.7-3.2 4.4.2 1.8 1 2.3 4.1 2.5 2.2.2 3.7-.1 3.7-.8 0-.6.4-.9.9-.6 1.7 1.1 0 4.2-2.9 5.4-3.5 1.6-4.6 4.3-2.9 7.1 1 1.5 1 2.5.1 4.5-.7 1.6-.8 3.5-.2 5.7.5 1.7.8 3.5.5 3.9-1.3 2.2.7 69.6 2.1 71 .8.8.8 2.7.2 5.8-.4 2.6-.7 19.9-.6 38.4.2 25.2 0 34-.9 34.9-2 2-2.7-1.7-1.3-6.3 1.2-3.4 1.2-4.1-.1-4.9-.8-.5-2.1-.8-2.9-.5-.8.2-2.1.5-2.9.7-.8.2-1.7-.5-2-1.7-.6-2.2-7.2-8.4-8.9-8.4-1.6 0-2.9 2.3-3.6 6.3-.6 3.5-.4 4 2.9 6.9 2.5 2.3 3.3 3.7 2.9 5-.8 2.8 1.4 5 4.5 4.4 2-.4 3.5.3 6.7 3.2l4.2 3.7.5 11c.4 6 1.1 15.6 1.8 21.3.6 5.7.8 12.2.5 14.5-.4 2.3-.8 22.6-.9 45.2-.2 22.5-.7 49.6-1.1 60.2-.9 18.7-1 19.1-3.3 20.2-1.9.9-2.3 1.9-2.5 5.8 0 2.7 0 5.5.1 6.3.2.8.4 2.5.5 3.7.1 1.2.8 2.8 1.5 3.7.8.9 1 2.7.6 4.9-.4 2.1-.3 3.7.4 4.1.6.4 1.1 2.5 1.1 4.8v4l-6.8-.4c-5-.2-7.6-.9-9.9-2.6-2.4-1.7-4.4-2.2-7.8-2.1-4.3.3-4.9 0-9.1-4.4-2.4-2.6-5.3-4.7-6.3-4.7s-3.6 1.3-5.8 2.9c-11.2 8.1-24.2 12.8-33.2 11.9-3.5-.3-4.1-.1-4.1 1.5 0 1 .9 2.1 2 2.4 1.1.3 2 1.4 2 2.4 0 1.1.5 1.9 1.1 1.9.5 0 .7.4.4 1-.3.5.1 1 .9 1 1.9 0 2-.5.6-3.1-1-1.7-.7-1.9 2.4-1.9 1.9 0 3.8.5 4.2 1.1.4.8.9.7 1.5-.2.6-1 1.2-.7 2.8 1.2 1.6 1.9 2.2 2.2 3.2 1.1 1-.9 1-1.2.1-1.2-.7 0-1.2-.9-1.2-2 0-1.3.7-2 1.9-2 1.1 0 2.3-.5 2.7-1.1.3-.6 1.5-.8 2.6-.6 1.4.4 1.8.1 1.4-.9-.3-.7-.2-1.3.3-1.1.5.1 1.8-.9 2.9-2.3l2.1-2.5.1 3.2c0 1.8.2 3.3.5 3.3 1.5 0 3.1-2.7 2.7-4.4-.4-1.3-.1-1.7.9-1.4.8.3 1.3 1.3 1.1 2.3-.3 1.3.1 1.6 1.3 1.1.9-.3 2.5-.1 3.6.4 2.5 1.4 2.5-.2-.1-2.5-2.2-2-1.8-3.7.6-2.8.8.3 1.3 1.2 1 2-.4.9.1 1.7 1.4 2 1.1.3 2 1 1.9 1.7-.1.6-.1 2.1 0 3.4l.1 2.3 2.2-2.1c1.2-1.1 2.8-2 3.5-2 .7 0 2.2-.5 3.3-1.2 1.6-1 2.7-.8 6.2 1 3.6 1.8 3.9 2.2 1.8 2.2-1.4 0-3.2-.4-4-.9-1.5-1.1-3.8-.3-2.3.8 1.7 1.1 4.2 7.1 3.2 7.7-.5.3-12.3.5-26.2.5-13.8-.1-27.8.2-31 .5-5.3.6-5.7.9-5.7 3.2v2.5l17.7-.6c17.4-.7 37.9 0 36.8 1.2-.4.3-3.6 1.1-7.3 1.6-5.7.9-6.7 1.3-7 3.2-.6 4.1 2.5 4.6 24 4.1l19.8-.6v46.5l-4.7.7c-2.5.3-6.9.6-9.6.6-2.8 0-8.9.5-13.5 1.2-7.1 1-8.5 1.6-9.2 3.4-1.1 2.8-5.7 3.5-28.5 4.3-16 .5-18 .8-18.3 2.3-.3 1.6.7 1.8 10.3 1.8 10.7 0 38-1.7 42.3-2.6 1.2-.2 2.7-1.5 3.2-2.8 1-2.7 5-3.5 19.5-3.9l8-.2.3 5.4c.2 3-.1 5.8-.6 6.3-.4.4-19.4.8-42 .9H0V575.8l42.3-.2 42.2-.1.2 11.5c.2 6.3.5 12.5.8 13.6.6 2.6 4.8 4.4 9.4 4.1 1.9-.1 3.6.3 3.8 1 .3 1-10.5 1.2-48.2 1.2-26.7 0-49 .3-49.5.6-.6.4-1 22.7-1 58.1 0 33.6.4 57.3.9 57 1.2-.8 2.3 2.2 1.4 3.7-.4.7-.9.3-1.4-.9-.5-1.2-.8.6-.8 4.7-.1 5.9.1 6.7 1.9 7.2 1.3.3 2 1.4 2 3s1.2 3.5 3.2 5.2c3.2 2.7 4.6 2.8 12 1 2.6-.7 2.6-.6 2.2 3.1-.5 3.5-.1 4.3 3.7 8.2 2.3 2.4 4.6 4.1 5.3 3.9.6-.2.9-1.9.8-3.8-.5-5.5 1.3-8.9 4.5-8.9 1.6 0 3.5-.5 4.3-1 1.3-.8 1.3-1.3-.2-3.7-3.8-6.1-5.1-9.2-4.5-10.8.5-1.3 1.1-1.4 2.7-.5 1.1.6 2 1.7 2 2.5s1 2.1 2.1 2.9c3.6 2.5 8-1.5 5.9-5.4-.8-1.5-.5-2.3 1.5-3.8 1.4-1.1 2.5-2.4 2.5-2.9 0-1.5-4.6-3.2-6.9-2.6-3.2.8-2.5-1.5 1.2-3.7l3.2-2 1.8 2.1c.9 1.2 1.7 3.5 1.7 5.2 0 1.7.8 3.9 1.7 5 1.7 1.8 1.7 2-1.2 4.3-2.5 2-2.8 2.6-1.5 3.4.8.5 2.3 1 3.3 1 2.4 0 1.7 2.2-1.1 3.5-3 1.3-2.2 2.9 1.6 3.3 3.4.3 3.8 1.2 2.2 4.3-1.3 2.3-2.2 2.4-6.7.2-5.2-2.4-6-.2-2.4 6.2 3.2 5.6 8.1 9.5 12.1 9.5 1.9 0 3 .7 3.8 2.5 1.3 2.8 3.7 3.2 6.7.9 1.3-1 3.2-1.3 5.5-.9 5 .8 8.6-1.3 8.2-4.8-.1-1.5.2-2.7.7-2.7 1.5 0 4.1-5.5 4.1-8.7 0-4.9-1.3-5.9-5.6-4.4-3.4 1.2-3.9 1.2-5-.4-1.8-2.5-1-3.2 2.7-2.7 2.7.4 3.1.2 2.6-1.2-.4-.9-1-2.3-1.3-3.1-.5-1.3.2-1.4 5-.9 4.2.5 6.7.2 10.1-1 5.7-2.2 5.9-4.8.8-9.7-4-3.8-7.9-5.6-12.8-6.1-2.9-.3-3-.5-2.7-4.6.3-3.7.1-4.2-1.7-4.2-1.1 0-2.4.7-2.9 1.6-.8 1.5-1 1.5-1.5 0-1-2.5-4.1-1.9-6.5 1.4-1.3 1.6-2.8 3-3.6 3-.7 0-2.7-2-4.5-4.5l-3.2-4.5 2.3-2.9c2.6-3.3 7.4-5.6 8.4-4 .3.6 1.6.9 2.7.8 1.4-.2 3.7 1.1 6.1 3.4 2.2 2 4.3 3.7 4.8 3.7.6 0 3.8-6.3 3.8-7.6 0-.2-1.2-1.5-2.7-2.9-2.2-2-2.4-2.4-.8-1.9 1.1.4 3.6 2.6 5.6 4.8 3.2 3.6 3.8 3.9 5.3 2.7.9-.7 1.9-3.1 2.2-5.2.6-3.6.9-3.9 3.8-3.6 2.9.2 3.1 0 2.9-2.8-.1-1.7-.2-3.7-.2-4.5.2-17.2-.9-22-4.7-22-1.9 0-2.8-2-1.5-3.3.6-.6 1.1-2.4 1.1-4 0-2.8-.1-2.8-4.2-2.2l-4.3.6-2.5-5.3c-1.4-2.9-3.1-5.4-3.7-5.6-1.1-.3-5.2 7.1-6.7 12.1-.3 1-1.5 1.7-3 1.7-4.5 0-7.4 6.9-4 9.4 1.2.9 1.4 2.1.9 4.9-.4 2-1 3.7-1.4 3.7-.3 0-1.6-1.6-2.9-3.5-2.6-4-3.2-4.2-5.7-1.5-1.3 1.4-1.6 2.8-1.1 5.1.4 2.3.2 3.5-1.1 4.4-1.5 1.2-1.5 1.5.1 5l1.8 3.7-3.8 3.2c-2.1 1.7-4.3 3.1-4.8 3.1-1.7 0-7.7-8.6-7.2-10.4.2-.9.7-2.6 1.1-3.9.5-1.8.2-2.5-1.4-2.9-2.6-.7-2.6-.9-.1-4 2.3-3 1.2-6.3-2.2-6.3-1.7 0-1.8-.2-.8-1.5.7-.8 1.8-1.5 2.5-1.5.6 0 2-.9 2.9-1.9 1-1.1 3.1-2.3 4.7-2.6 3.6-.8 4.4-3.5 2.4-7.7-4.5-9.1-4.9-9.8-8.7-11.3-4.8-1.9-8.1-1.9-11.7 0-2.6 1.3-3.2 1.2-6.7-.5-2.1-1.1-4.5-2-5.4-2-2.7 0-6 3-6 5.4 0 1.5-.9 2.7-2.5 3.4-1.4.7-2.5 2-2.5 3.1 0 2.2 3.5 5.1 6 5.1 2.6 0 6.8 5.2 7.5 9.3.8 4.2-.6 5-2.3 1.2-1.4-3-2.8-3.2-4.2-.5-1 1.9-1.9 2.1-8.2 1.8l-7.1-.3.2-13c.1-7.1.7-13.5 1.2-14.1.7-.8.6-1.4-.1-1.9-3-1.9 2.2-2.4 24.8-2.4 13.6-.1 26.7-.3 29.2-.6 2.5-.2 14.1-.7 25.8-1 16.7-.4 21.3-.3 21.7.7.2.7.6 30.9.9 67l.5 65.8h-4.2c-2.3 0-26.4.5-53.4 1.2L0 775.4v57.4l48.7-.4c57.8-.5 68.1-.8 69.3-2 .5-.5 1.2-8.8 1.5-18.4.3-9.6.8-17.7 1.3-18 .4-.3 22.2-.4 48.5-.2l47.7.2-.6 2.8c-.3 1.5-.8 3.4-1 4.3-.2.8-2.3 2.6-4.7 3.9-2.3 1.3-4.9 2.8-5.7 3.5-.8.7-3.3 1.8-5.5 2.5s-6.6 2.6-9.9 4.1c-3.2 1.6-7.2 2.9-9 2.9-3.6.1-16.4 6.6-18 9.2-.9 1.4-.6 2.3 1.4 4.3 2.5 2.5 2.6 2.5 13 1.5 5.8-.6 12.8-1.3 15.5-1.6 4.5-.6 25.2-.7 45.9-.2 7.7.2 7.9.1 10.7-3 3.1-3.5 3.2-6.3.1-11-1.1-1.7-1.3-4-.9-9.6.4-4 .2-8.7-.2-10.4-.7-2.2-.6-3.4.4-4.2 2.6-2.2 5.5 6 4.8 13.7l-.5 5 4.6.7c3 .5 4.9 1.4 5.6 2.7.7 1.2 2.1 1.9 4.2 1.9 1.7 0 4 .7 4.9 1.6 1.2 1.1 4.4 1.8 9.1 2.2 4 .2 8.1.9 9 1.4 2.9 1.4 6.8-1.8 6.8-5.6 0-4.4.5-4.7 4.8-2.9 2.1.9 7 1.5 12.1 1.6 8.1.1 9-.1 15.6-3.6 3.8-2 7.4-3.7 8-3.7.6 0 2.2-1.1 3.5-2.5 1.9-2 2.2-3.2 1.8-7.8l-.4-5.4 34.9-.7c24.3-.5 35.3-.3 36.2.4.7.6 1.6 2.6 1.9 4.5.4 1.9 1.1 3.7 1.6 4 .5.3 5.7.3 11.6-.1l10.7-.7 1.5-3.9 1.5-3.8h28.9c16.7 0 28.8-.4 28.8-.9 0-1.8-7.8-2.2-33.2-1.6-23.9.5-25.8.4-26.6-1.2-1.1-2.2-1-39.3.1-41.1.5-.6 2.5-1.2 4.6-1.2 4.9 0 6.7-2.1 7.3-8.7.5-5.6-1-8.3-4.5-8.3-1.3 0-1.7-1-1.7-4.4 0-4-.4-4.8-3.6-7.2-2.7-2.1-3.4-3.3-3.2-5.3.2-2.1.9-2.7 3.3-2.9 1.7-.2 3.4-.7 3.9-1.2.9-.9 1.6-31 1.9-80 .1-17.3.6-32.1 1-32.8 1.6-2.4 2.7-.1 2.7 5.4 0 3.9.4 5.6 1.5 6 1.2.5 1.2.9.1 2.7-1.4 2.5-2.3 36.7-.8 36.7 2.3 0 2.7-2.4 2-10.2-.9-9.2-.3-15.2 1.8-18.5 1-1.5 1.1-3 .4-5.4-1.4-4.8-1.2-16.3.2-17.7 1.6-1.6 5.5-1.5 6.5 0 .4.7 1.5 11.8 2.4 24.6 1 13.4 2.1 23.8 2.8 24.5 1.1 1.1.9-14.7-.5-39.6l-.5-9.7h4.5c4.4 0 4.5.1 5.2 3.5.7 4.1 2.7 4.2 3.2.2.6-5 2.2-2.7 2.2 3 0 9.5 1.1 16.3 2.6 16.3 1.1 0 1.4-2.4 1.4-11 0-8.9.3-11 1.4-11 1.9 0 2.5 13.9 1.2 25.8-1.1 10-.4 11.3 4.8 8.8 4-1.9 4.6-4 1.6-5.6-1.4-.8-2-2.1-2-4.6 0-3.8-.2-3.7 4.8-1.7.8.3 1.2-.5 1.2-2.6 0-2.6-.4-3-2.2-2.8-2.7.3-3.6-2.4-3.7-11.1-.1-4.5.3-6.2 1.1-6 .6.2 1.2 2.4 1.2 4.8.1 3.4.5 4.5 1.9 4.8 1.5.3 1.7-.5 1.7-6.1v-6.4l-23.7-.6c-31.6-.9-38.3-2.8-38.3-11.3 0-1.7.6-3.6 1.3-4.2.7-.6 11.2-1 27.4-1 28.5-.1 33.6-.6 33.1-2.9-.4-1.8-4.6-3.5-14.5-5.8-5.5-1.2-10.5-1.5-21-1.2-7.9.3-16.3 0-19.5-.6-5.9-1.2-6.4-1.7-6-6.7.1-.8.2-7 .3-13.7l.1-12.1 2.6.1c3 .2 3.4-1.2 3.2-10.7-.1-8.5 3.9-11.8 9.3-7.6 1.4 1.1 3.5 2 4.6 2 3.1 0 2.6 1.7-1.5 5.4-2.2 2-3.4 3.8-2.9 4.5.4.7-.4 2.2-1.9 3.6s-2.6 3.5-2.6 4.9c0 2.5-.2 2.5-4.5 1.9-4.7-.6-5.4.1-3.6 3.5.5.9 1.2 2.5 1.5 3.5.7 2.3 4.6 3.7 10.1 3.7 2.4 0 4.6.4 4.9.9.3.5-1 2.1-2.9 3.5-1.9 1.5-3.5 3.4-3.5 4.3 0 1.3-.8 1.4-5 .9-5.1-.7-6.2.1-3.5 2.4 2 1.7 4.9 2.1 18 2.5 6.1.2 15.7.6 21.5 1 13.1.7 17-.6 17-5.9 0-3-.2-3.3-2.5-2.9-3.4.7-11.6-2.8-11.3-4.7.4-1.9 10.3-2.7 12.4-.9 1.1.9 1.4.8 1.4-.4 0-2-2.7-4.7-4.6-4.7-1.4 0-2-3.1-.7-4.3.3-.4 1.7.3 3 1.5 3.3 3.1 2.9.5-.8-5.4-2.8-4.4-3.4-4.8-7-4.8-3.2 0-3.9-.4-3.9-1.9 0-1.1-1.1-3.3-2.5-4.9-2-2.3-2.5-4.1-2.5-8.1 0-4.8.1-5 1.9-3.9 1.5.9 2.3.9 3.5-.1 1.4-1.2 1.6-.9 1.6 2.2 0 2.6.6 3.9 2 4.7 1.1.6 2 .8 2 .4 0-.3.7-.1 1.5.6s1.5 2.5 1.5 4c0 1.9.8 3.3 2.5 4.4l2.5 1.6v-16.6l-3.5-1.7c-2.2-1-3.5-2.4-3.5-3.5s-1.4-4.9-3-8.6c-3.3-7.2-5.4-8.2-7.6-3.8-.6 1.3-2.7 3.9-4.5 5.8-2 2.1-3.3 4.3-3.1 5.5.2 1.2-.2 1.9-1.2 1.9-1.2 0-1.6-1-1.6-4.3.1-7.4 2.1-10.2 9.7-13.6 1.7-.8 2.3-1.9 2.3-4.1 0-4.8 1.7-7.3 4-6 1 .5 2 2 2.2 3.2.2 1.7 1 2.3 2.8 2.3 2.2 0 2.5-.4 2.5-3.4 0-2.8-.6-3.8-3-5.2-3.7-2.2-6.5-2.3-9-.5-1.4 1-2.6 1.1-4.5.4-3.3-1.1-7.5.3-8.9 3-1.3 2.5-8.9 6.3-9.7 5-.4-.5-.8-3.3-1-6.1-.3-3.8-.9-5.7-2.5-7-2.9-2.3-4.2-2.2-7.8.9-2.9 2.4-3.1 3-2.6 7.3.5 4 .3 4.8-1.8 6.3-1.3.9-3.2 1.8-4.3 2-1.8.3-1.9-.6-1.9-26.7v-26.9l3.7-.9c3.3-.8 4.2-.5 8 2.2 2.4 1.7 7 6.3 10.3 10.2 7.7 9.2 8.9 10.4 15.3 14.9 3.6 2.6 6.8 3.9 10.2 4.4 2.7.4 6.5 1.3 8.4 2.1 1.9.8 4 1.5 4.6 1.5 1.8 0 1.1-5-.7-5.7-1-.4-3.1-1.7-4.6-3-1.6-1.3-3.7-2.3-4.7-2.3-2.8 0-8.3-3.6-10.9-7.1-1.2-1.7-2.1-3.2-1.9-3.4.2-.2 2.5-1.3 5.1-2.4 3.7-1.6 5.1-2.9 6.3-5.6 1.1-2.7 2.7-4.2 6.9-6.2 5-2.5 7.3-5.3 4.4-5.3-.7 0-1.7-.7-2.3-1.6-2.1-2.9-15.5-1.5-16.3 1.7-.4 1.3-1.4 1.9-3.4 1.9-2.9 0-4.2 1.2-4.4 4.2-.2 2.5-3.4 5.8-5.6 5.8-2.3 0-3.7-2.6-4.9-9.2-.6-2.9-2.4-7.8-4-11-1.7-3.1-3-6.4-3-7.3 0-2.2-3.7-5.5-6.3-5.5-1.2 0-3.9.9-6 2-2 1.1-4 2-4.3 2-.3 0-.4-10.5-.2-23.3.3-24.7.6-25.9 5.2-27.7 1.5-.5 2.8.1 5.2 2.7 3 3.2 6.7 4.3 7.9 2.4.5-.9-.7-5-3-10.4-.6-1.3-.2-1.7 1.7-1.7 3.7 0 5.8-2.1 6.5-6.3.5-3.5.3-4.2-2.3-6.2-2.7-2.2-3.1-2.2-6.3-.9-4.1 1.7-4.1 1.7-4.1-.2 0-2.4-4-1.3-6.3 1.7-1.9 2.7-1.9 2.7.3 7.3 2.3 4.5 2.3 4.6.5 6.6-1 1.1-2.3 1.9-2.8 1.7-1.4-.4-1.6-125.7-.1-133.7 1-5.6 1-7.1-.6-11-2.3-5.9-5.7-7.7-10-5.5-3.4 1.8-5 1.3-5-1.6 0-1-.9-2.7-2-3.6-3-2.6-2.4-3.6 1.7-3 6.5 1.1 11.3-5.6 5.8-8.1-1.4-.7-3.3-1.2-4.1-1.2-1.2 0-1.4-.7-.9-3 1.1-5-3.9-11.5-7-9-1.6 1.3-3.4 8.5-3.2 12.5.2 2.8-.1 3-3.8 3.5l-4 .5-.3 5.7c-.3 5-.1 5.7 1.8 6.3 1.6.5 2.9 0 4.9-1.9 3.2-3.1 4.2-3.2 6.4-.8 2.1 2.3 2.2 7.5.1 9.2-2.5 2.2-3.8 5.2-4.5 11-.5 4.5-.3 6.1 1.3 8.7 1.8 3 1.8 3.4.3 5.6-1.1 1.7-1.5 4.2-1.2 8.8.4 7.7-.4 9.5-4.2 10.4-2.2.5-3.5.1-5.6-1.9-3.8-3.6-5.5-3.3-5.5.6.1 5.4 1.7 10.8 4 13.3l2.1 2.2-2.3 1.5c-2.1 1.4-2.1 1.8-1 5.6.7 2.3 1.7 4.4 2.3 4.8 1.5.9 7.6-5.2 8.4-8.3 2-8 2.2-.4 2.4 98.5.1 27.1-.1 49.7-.4 50.2-.4.6-1.4 1-2.4 1s-3.1 1-4.6 2.2c-2.5 1.9-3.1 2-5.9.9-5.5-2.3-8-2.3-14.1 0-5.2 1.9-7.5 3.7-17.5 14-8.4 8.6-12.8 12.3-16.3 13.8l-4.8 2-.8-2.2c-.4-1.2-1.1-8.7-1.5-16.7-1.6-34.8-4.1-62.4-6.1-68-.9-2.5-2.7-8.9-4-14.3-1.3-5.3-3.2-11-4.2-12.6-2.8-4.3-7.4-10.7-11.5-15.9-2.2-2.6-3.8-5.8-3.8-7.2 0-4.7-3.1-14.4-5.2-16.7-1.8-1.9-2.1-3.4-1.9-7.8.2-4.4-.1-5.6-1.4-6.1-1.7-.7-1.7-3.3 0-7.5.4-1.1-.5-2.9-2.4-5.2-1.7-1.9-3.1-3.8-3.1-4.2 0-.4 1.2-2.2 2.8-4.1 6.7-8.1 11.2-14.2 11.2-15.1 0-.5.9-1.8 2-2.8 5-4.5-.2-15.2-10.5-21.8-2.7-1.7-7.3-5.3-10-7.9-4.5-4.1-6.3-5-15.5-7.7-23.3-6.7-29-7.9-33.4-7-6.6 1.5-11.3 3.9-12.7 6.7-.7 1.5-2.1 3.9-3.1 5.4-1 1.4-1.8 4-1.8 5.6 0 1.7-.5 4.3-1 5.8-.6 1.5-1.3 9.4-1.5 17.6l-.4 14.9-3.8 6.8c-3.3 6.1-3.6 7.1-2.3 8.6.8.9 2.4 2.1 3.6 2.5 1.6.7 2.4 2.3 3.3 7 .7 3.4.9 7.4.6 9-.5 2.4-.2 3.2 1.9 4.6 1.7 1.1 3.6 1.4 5.6 1 3.8-.7 3.9.8.3 2.3-1.6.7-4.8 3-7.2 5.1-3.9 3.6-4.3 4.3-3.7 7.3.5 2.5.2 3.8-.9 4.7-2.1 1.7-4.3 6.2-3.8 7.6.2.6-1.2 2.5-3.1 4.2-1.9 1.7-5.8 6.8-8.7 11.2-5.5 8.6-7.6 9.7-9.3 4.9-.7-2.2-.3-3.4 2.4-7.4 7.6-11.1 8.5-18.4 3.6-30.5-3.3-8.2-6.6-12.3-12.9-16.5-13-8.6-31.7-7.4-43.1 2.7-7.2 6.3-13 19.6-11.9 27.3.4 3.2.1 4.4-1.6 5.9-1.2 1.1-2.1 2.5-2.1 3.3 0 1.9 2.9 6.4 5.4 8.5 1.4 1.1 2.2 3.3 2.6 6.9l.5 5.3 5.3 1.6c2.9.9 6.4 2.8 7.7 4.2 2.3 2.5 2.7 2.5 11.3 2 6.9-.3 10.2-.1 14.7 1.3 5.4 1.7 5.7 2 5.1 4.6-.4 2.1.3 3.8 3.2 7.5 3.2 4.2 3.6 5.6 3.8 10.9.1 5.1-.3 6.6-2.7 10.1-3.2 4.7-4.8 11.7-3.1 13.7.6.7 1.4 3.1 1.8 5.3l.6 4.1-5 2.1c-2.8 1.2-5.5 2.2-6 2.2s-3 1.8-5.5 4-5 4-5.6 4c-.5 0-2.9 1-5.3 2.3-2.4 1.2-7 3.3-10.3 4.7-3.3 1.4-8.2 3.7-11 5.1-7.5 3.9-11.3 4.3-17.1 1.8-2.7-1.2-6.6-3.6-8.6-5.4-2.1-1.7-5.6-3.7-7.8-4.4-4.5-1.3-4.8-1.8-5.5-7.6-1-8.1-1.3-53.8-.4-59.3.5-3.1 1.6-12.9 2.3-21.7.7-8.8 1.6-16.7 2-17.6.4-1 .2-2.2-.6-3-.8-.8-1.4-3.8-1.4-6.9-.1-3-.2-6.9-.3-8.5-.8-14.1 1.6-20.1 7.6-19.2 2.6.5 3.9 0 6-1.8 2.5-2.1 2.6-2.5 1.4-4.8-.9-1.7-1.1-4-.7-7 1.1-7.1-.5-7-11 .8-.7.5-1.5.7-1.8.4-1.6-1.5-2.6-66.2-1.5-98.9.5-17.8.1-38.8-.9-45.5-.7-4.4-1.4-11.4-1.6-15.5-.3-6.6 0-8.2 2.7-14 1.6-3.6 3.1-7.2 3.3-8 .1-.8.7-3.4 1.3-5.8.8-2.9.8-4.9.1-6.2-1.7-3.1-6.6-6-10.4-6-2.5 0-3.4-.4-3-1.3.3-.8 0-2.6-.6-4.1-.8-2.1-1.5-2.6-3-2.1s-2 .2-2-1.2c0-2.4-4.2-10.6-5.6-11-.6-.2-1.6.3-2.2 1zm3.7 10.4c.1.7-.3 1.3-.9 1.3-.5 0-1-1.5-.9-3.3 0-2.7.2-2.9.9-1.2.5 1.1.9 2.6.9 3.2zM86 83c0 .5-.4 1-1 1-.5 0-1-.5-1-1 0-.6.5-1 1-1 .6 0 1 .4 1 1zm18 1.4c0 1.6-1.8 3.1-2.7 2.2-.8-.8.5-3.6 1.7-3.6.5 0 1 .6 1 1.4zm5 2.6c0 .5-.7 1-1.6 1-.8 0-1.2-.5-.9-1 .3-.6 1-1 1.6-1 .5 0 .9.4.9 1zm-10.9 5.3c-1.3 1.3-1.5-.1-.4-3 .7-1.7.8-1.7 1.1.1.2 1-.1 2.3-.7 2.9zm4.9 3.2c0 .8-.4 1.5-1 1.5-.5 0-.7-.7-.4-1.5.4-.8.8-1.5 1-1.5.2 0 .4.7.4 1.5zM91 105c0 1.1-.4 2-1 2-.5 0-1-.9-1-2s.5-2 1-2c.6 0 1 .9 1 2zm4 3.1c0 .6-.4.7-1 .4-.5-.3-1-1.1-1-1.6 0-.6.5-.7 1-.4.6.3 1 1.1 1 1.6zm7 7.6c0 5.3-.3 9.4-.6 9.1-1-1-1.3-18.8-.3-18.8.5 0 .9 4.3.9 9.7zm-11.7 7.8c-.3.9-.8 1.4-1 1.1-.3-.3-.2-.9.2-1.5.9-1.6 1.5-1.3.8.4zm3.4 5.7c-.2 1.3-.4.3-.4-2.2s.2-3.5.4-2.3c.2 1.3.2 3.3 0 4.5zm9.1 11.4c-1.1 1.2-1.3.8-1-2.7.3-2.2 0-4.5-.6-5.1-.7-.7-.7-1.8.1-3.6 1.1-2.4 1.3-2.2 2.1 3.7.6 4.9.5 6.6-.6 7.7zM91 133c0 .5-.5 1-1.1 1-.5 0-.7-.5-.4-1 .3-.6.8-1 1.1-1 .2 0 .4.4.4 1zm3 11c0 .5-.5 1-1.1 1-.5 0-.7-.5-.4-1 .3-.6.8-1 1.1-1 .2 0 .4.4.4 1zm11 2.5c0 .8-.4 1.5-.9 1.5-1.3 0-2.2-1.6-1.4-2.4 1.1-1.1 2.3-.6 2.3.9zm-8.3 3.2c-.3 1-.5.4-.5-1.2 0-1.7.2-2.4.5-1.8.2.7.2 2.1 0 3zm-6.7 4.7c-.7.7-1-.4-.9-3 .1-3.9.1-3.9 1-.9.5 1.8.5 3.3-.1 3.9zm3.6-3.7c-1 1-1.9-.5-1-1.8.6-1.1.8-1.1 1.2 0 .2.7.1 1.5-.2 1.8zm10.5 5.6c-1 .9-1.1.8-.5-.6.3-1 .9-1.5 1.2-1.2.3.3 0 1.1-.7 1.8zm-13.5 2.4c-1 1-1.9-.5-1-1.8.6-1.1.8-1.1 1.2 0 .2.7.1 1.5-.2 1.8zm3.4.5c0 1.6-.3 1.9-1.1 1.1-.6-.6-.8-1.6-.5-2.2 1.1-1.7 1.6-1.3 1.6 1.1zm9.7 2c-.3.8-.6.5-.6-.6-.1-1.1.2-1.7.5-1.3.3.3.4 1.2.1 1.9zm-9.6 3.6c-.6 1-.6 2.3.1 3.5 1.1 2.1 1.9 10.4 1.1 12.4-1 2.6-2.3.1-1.7-3.2.8-4.3-.4-6.5-2.2-4-1.1 1.5-1.3 1.3-1.9-1.8-.5-2.8-.2-4.2 1.6-6.6 2.3-3.1 4.7-3.3 3-.3zm1 21.9c-.9 1.6-1 1.4-1.1-1.2 0-2.1.3-2.6 1.1-1.8s.8 1.6 0 3zm-3.4 14.2c0 7.7-.4 14.6-.8 15.3-.5.7-.9-5.5-.9-14 0-8.3.4-15.2.9-15.2s.9 6.3.8 13.9zM96 191c0 .5-.4 1-1 1-.5 0-1-.5-1-1 0-.6.5-1 1-1 .6 0 1 .4 1 1zm0 4.4c0 .3-.4.8-1 1.1-.5.3-1 .1-1-.4 0-.6.5-1.1 1-1.1.6 0 1 .2 1 .4zm317.8 2.8c-.6 1.8-2.8 2.1-2.8.4 0-.9.7-1.6 1.6-1.6.9 0 1.4.5 1.2 1.2zm-317.9 4.5c-.2 4.2-.9 6.4-1.9 5.8-.9-.5-1.1-6.4-.3-7.8 1-1.7 2.3-.5 2.2 2zm-.4 13.2c.3.5.1 1.2-.5 1.6-.5.3-1-.1-1-.9 0-1.8.6-2.1 1.5-.7zm-3.5 6.2c0 .5-.4.9-1 .9-.5 0-1-.7-1-1.6 0-.8.5-1.2 1-.9.6.3 1 1 1 1.6zm4-.7c0 .3-.4.8-1 1.1-.5.3-1 .1-1-.4 0-.6.5-1.1 1-1.1.6 0 1 .2 1 .4zm-4.4 5.3c-1 1-1.9-.5-1-1.8.6-1.1.8-1.1 1.2 0 .2.7.1 1.5-.2 1.8zm335.4 2.7c0 .8-.4 1.8-1 2.1-.5.3-1-.3-1-1.4 0-1.2.5-2.1 1-2.1.6 0 1 .6 1 1.4zm-326 1.2c0 .2-.7.4-1.5.4s-1.5-.4-1.5-1c0-.5.7-.7 1.5-.4.8.4 1.5.8 1.5 1zm326 3.8c0 .3-.4.8-1 1.1-.5.3-1 .1-1-.4 0-.6.5-1.1 1-1.1.6 0 1 .2 1 .4zm-335 2.2c0 .8-.5 1.2-1 .9-.6-.4-.8-1.1-.5-1.6.9-1.4 1.5-1.1 1.5.7zm4.8 8.8c.1 4.6-.3 6.8-1.4 7.7-1.3 1.1-1.5.6-1.4-4.2.3-11.9 2.6-14.8 2.8-3.5zm325.8-4.3c-.3 1.7-.6 7.1-.6 12s-.4 8.9-.9 8.9c-.9 0-1.5-21.6-.6-23 1.4-2.3 2.7-.9 2.1 2.1zM92.2 262.5c-.1 16.3.1 23.4 1 25.8 1.5 3.6.9 17.5-.6 14.4-.5-.9-.6-3.1-.4-4.8.4-2.2 0-3.4-1.4-4.2-1.7-1.1-2.6-4.7-1-4.7.4 0 .6-10.4.4-23.2-.1-12.8 0-23.8.2-24.5 1.6-4.1 2.1 1.1 1.8 21.2zm147.4-10.6c-.9 1-1.6 2.4-1.6 3.2 0 .8 1.1.1 2.6-1.6 2.4-2.9 2.5-2.9 1.8-.5-1.4 5.3-3.8 6.4-5.5 2.6-1-2-.8-3 1.2-5.8 1.9-2.7 2.4-2.9 2.7-1.5.2 1-.3 2.6-1.2 3.6zm-139.9-1.7c-.3.8-.6.5-.6-.6-.1-1.1.2-1.7.5-1.3.3.3.4 1.2.1 1.9zm150.3.4c0 .8-.4 1.2-1 .9-.5-.3-1-1-1-1.6 0-.5.5-.9 1-.9.6 0 1 .7 1 1.6zm-4.3 5.4c-.4 3.3-.2 4.3 1.4 5.3 1.3.8 1.7 1.8 1.2 3.5-.3 1.5 0 2.7 1 3.5.9.7 1.7 2.3 1.9 3.6.4 2.9 5 4.6 8 3 2.3-1.2 3.8-.4 3.8 2.1 0 2.7 2.9 5.2 5.3 4.6 2.2-.5 7 2.1 6.1 3.5-.8 1.3-7.3 3.9-9.8 3.9-1.1 0-3.6.9-5.4 2-1.8 1.1-4.5 2-6 2s-4.9 1.1-7.7 2.6c-4.2 2.1-5.5 2.4-7.8 1.5L235 296l1.6-3.9c1.4-3.5 1.4-4.3.1-6.8-1.1-2.1-1.2-3.2-.4-4.5.8-1.3.8-2.7-.2-5.3-1.6-4.5-.6-9.1 2.5-11.1 1.4-1 2.4-2.6 2.4-4 0-1.2.5-2.6 1.1-2.9.5-.4 1.4-1.8 1.9-3.1 1.4-3.7 2.3-2.8 1.7 1.6zm179.3-1.4c0 .8-.4 1.2-1 .9-.5-.3-1-1-1-1.6 0-.5.5-.9 1-.9.6 0 1 .7 1 1.6zm-329 3.9c0 .8-.4 1.5-1 1.5-.5 0-1-.7-1-1.5s.5-1.5 1-1.5c.6 0 1 .7 1 1.5zm.2 7c0 2.5.1 5 .2 5.7.1.6-.4 1.3-1 1.5-.7.2-1-1.8-1-5.7 0-6.9 1.5-8.3 1.8-1.5zm135.4 6.9c.1 3.7-.2 4.3-1.8 3.8-1-.2-1.8-.6-1.8-.8 0-.8 2.9-7.4 3.2-7.4.2 0 .3 2 .4 4.4zm27.4-1.2c0 1.3-2.3.5-2.8-1-.2-.7.2-1 1.2-.6.9.3 1.6 1.1 1.6 1.6zm165.7 3.5c-.3 1-.5.4-.5-1.2 0-1.7.2-2.4.5-1.8.2.7.2 2.1 0 3zM101.6 285c1.3 0 2.4.4 2.4.9 0 1.3-1 1.8-4.4 2.2-2.5.3-2.9 0-3.1-2.1-.1-1.4-.6-3.4-1-4.5-.6-1.4-.1-1.1 1.4.7 1.3 1.7 3.2 2.8 4.7 2.8zm328 6c.1 1.7-.3 3-.7 3-.5 0-.9-1.4-.9-3 0-3.9 1.5-3.9 1.6 0zm-7.6 4.5c0 1.1-.5 2.7-1 3.5-.7 1.1-1 .1-1-3.5s.3-4.6 1-3.5c.5.8 1 2.4 1 3.5zM161.5 299c-.3.5-1.2 1-1.8 1-.7 0-.6-.4.3-1 1.9-1.2 2.3-1.2 1.5 0zm30.2 4.2c-.2 1.3-.4.5-.4-1.7-.1-2.2.1-3.2.4-2.3.2 1 .2 2.8 0 4zM174 300c-1.9 1.3-3 1.3-3 0 0-.6 1-1 2.3-1 1.8 0 1.9.2.7 1zm-70.5 2c.3.5-.1 1-1 1s-1.3-.5-1-1c.3-.6.8-1 1-1 .2 0 .7.4 1 1zm79.9 3.2c-.3.4-1.4.8-2.5.8-2.8 0-2.2 4.2.9 5.5 2.2 1 2.9 2.9 1.4 3.9-1.2.7-2.6-.6-4-3.8-.9-2.1-1.8-2.7-3.2-2.3-1.1.3-2.3.1-2.6-.4-.3-.5-1.4-.9-2.5-.9-2.5 0-2.4-.8.4-3 1.4-1.2 3.1-1.7 4.9-1.3 1.4.3 3.4 0 4.4-.5 1.9-1.1 3.8.3 2.8 2zm-92.7 4c-.2 1.3-.4.5-.4-1.7-.1-2.2.1-3.2.4-2.3.2 1 .2 2.8 0 4zm72 .2c-1 .8-2.2 2.7-2.6 4.3-.9 3.6-3.5 3.7-3.9.1-.2-2 .3-3 2.5-4.1 3.8-2 6.5-2.2 4-.3zm-11.2 5.3c0 5.3.2 5.7 2.5 6.3 1.7.4 2.6 1.4 2.9 3 .3 2.4.2 2.4-1.6.7-2.3-2-4.4-2.2-6.2-.5-1.1 1.1-1.3.1-.8-6 .3-3.9.9-7.7 1.2-8.2 1.4-2.2 2-.7 2 4.7zm-57.5-.5c0 1.6-.3 1.9-1.1 1.1-.6-.6-.8-1.6-.5-2.2 1.1-1.7 1.6-1.3 1.6 1.1zm7.3-.1c-1.2.4-2.4 1.2-2.8 1.8-.9 1.5-2.5 1.4-2.5-.2 0-1.7 4-3.6 5.9-2.9 1 .4.9.7-.6 1.3zm72.5 4c-2.9 1.9-4 .9-1.7-1.6 2-2 2.5-2.1 2.7-.8.2.8-.2 1.9-1 2.4zm17.3-1.9c.1.7.3 2 .4 2.8.1.8.3 2.1.4 2.7 0 .7 1.4 1.9 3 2.8 2.8 1.4 3.3 1.3 7.8-1l4.8-2.4.3 2.4c.8 6.1-5.3 18-11 21.5-2.5 1.5-4.4 1.8-8.8 1.4-4-.4-7 0-11 1.4-5.7 2.1-7 2-7-.4 0-.8.5-1.2 1-.9.6.4 2.7.4 4.8 0 2.8-.5 4.5-1.7 6.9-5.1 3.1-4.2 3.3-4.7 3-12.4-.2-4.4-.6-8.3-1-8.7-.9-.9 3.2-5.3 5-5.3.7 0 1.4.6 1.4 1.2zm-97.3 4c-.3 2.6-3.8 3.8-3.8 1.4 0-.9.5-1.6 1.1-1.6.5 0 .7-.5.4-1-.3-.6.1-1 1-1 1.1 0 1.5.7 1.3 2.2zm70.4 6.2c-.3.5-.9-.1-1.4-1.3-.4-1.3-.5-2.8-.1-3.4.8-1.4 2.3 3.3 1.5 4.7zm-66.1-.1c-.8.8-1.1.5-1.1-.9 0-2.7 1.4-4.1 1.8-1.9.2.9-.1 2.2-.7 2.8zM175 337c1.2-1.9 2.3-.7 2.3 2.5 0 2.9-1.6 5-3.1 4.1-1.8-1.1-3.6-9.6-2.3-10.9.6-.6 1.2-2.5 1.3-4.2.1-1.6.3-.1.5 3.5.3 4.3.7 6 1.3 5zm-76-8c0 .5-.5 1-1.1 1-.5 0-.7-.5-.4-1 .3-.6.8-1 1.1-1 .2 0 .4.4.4 1zm324 0c0 .5-.5 1-1.1 1-.5 0-.7-.5-.4-1 .3-.6.8-1 1.1-1 .2 0 .4.4.4 1zm-271 6.4c-.7.7-1-.1-.9-2.5 0-3.2.1-3.3 1-1 .6 1.6.6 2.8-.1 3.5zm-6-.1c0 2-.1 2-1.6.5-.9-.9-1.3-2.1-.9-2.7 1-1.6 2.5-.3 2.5 2.2zm277-1.2c0 1.1-.4 1.8-1 1.4-.5-.3-.7-1.2-.3-2 .7-2.1 1.3-1.9 1.3.6zm-328.7 2.4c-.7 2.1-1.3 1.9-1.3-.6 0-1.1.4-1.8 1-1.4.5.3.7 1.2.3 2zm69.9-.3c-.7.7-1.2.8-1.2.2 0-1.4 1.2-2.6 1.9-1.9.2.3-.1 1.1-.7 1.7zm-7.2 2.3c-.8.9-1 2.8-.6 5.2l.6 3.8-1.4-3c-1.1-2.6-1.1-3.4.2-5.7.9-1.5 1.8-2.5 2-2.3.3.3-.1 1.1-.8 2zm266.3 12c.4 10.4.8 13.1 2.1 14 .9.7 1.5 2.5 1.5 4.1-.1 1.8-.3 2.2-.6 1.1-.3-1-1-1.6-1.6-1.4-.8.2-1.3 3.8-1.4 10.3-.2 8.7-.1 9.6 1.1 7.5.9-1.6 1.6-2 2-1.2.8 1.3-.2 44.4-1 47.3-.3 1-1.2 1.8-2 1.8s-1.4.9-1.4 1.9c0 1.1-.3 2.2-.7 2.4-.7.5-.8-12.7-.5-75.4.2-21.3.5-26.9 1.8-25.6.2.1.5 6.1.7 13.2zm3.2-12.6c.3.5.1 1.2-.5 1.6-.5.3-1-.1-1-.9 0-1.8.6-2.1 1.5-.7zm.2 11.5c.5 8.4-1.1 10.7-1.9 2.7-.5-5.1.1-11.6.9-10.7.3.3.7 3.9 1 8zm-332.2 14c0 11.7-.4 18.6-1 18.6-.8 0-1-12-.5-37.3 0-.5.3-.6.8-.4.4.3.7 8.9.7 19.1zm362.9-18.5c.3.4-.1 1.7-.9 2.7-1.6 2.3-4 .7-2.9-1.9.7-1.8 2.9-2.3 3.8-.8zM152 350.1c0 .5-.4.9-1 .9-.5 0-1-.7-1-1.6 0-.8.5-1.2 1-.9.6.3 1 1 1 1.6zm40.8 1.9c4 2.4 5.2 2.5 5.2.3 0-1.4.2-1.4 2 .2 2.5 2.3 2.5 3.3-.4 6.9l-2.4 2.8-5.3-1.8c-3.9-1.3-8.5-1.8-16.6-1.8-11.2-.1-11.3-.1-11.3-2.5 0-2 .2-2.1 1.5-1.1 1.2 1 2 .9 4-.4 1.3-.9 3.3-1.6 4.4-1.6 1 0 3.4-.7 5.2-1.5 4.8-2 9.8-1.8 13.7.5zm46.9 9c.6 3 1.2 10.4 1.3 16.5 0 6 .5 12.8.9 15 .4 2.2.4 5.6-.1 7.6-.4 1.9-.9 8.7-1.1 15-.5 12.2-2.2 17.9-7.3 23.4-1.3 1.4-2.4 2.9-2.4 3.4 0 2.7-15.7 9.1-22.5 9.1-1.3 0-5.5 1.2-9.2 2.6-3.7 1.4-8.6 2.9-10.8 3.3-2.2.5-5.2 1.2-6.7 1.6-2.2.6-2.8.4-2.8-.8 0-2.8-2-2.9-5.1-.3-1.7 1.4-3.5 2.6-4 2.6s-1.4 1.1-1.9 2.4c-.7 1.9-1.9 2.6-5.4 3.1-5 .8-6.4.3-7.6-3-.5-1.2-1.9-2.4-3.3-2.7-1.9-.4-2.6.1-3.6 2.4-1.2 2.7-1.4 2.8-3.1 1.3-1.1-1-2.4-1.4-2.9-1-.6.3-1.9.4-2.9.1-1.4-.5-1.7-1.4-1.4-4.1.2-1.9.7-3.3 1.1-3.1.4.3 1.2-.8 1.9-2.4.7-1.5 2.4-3.1 3.7-3.4 1.3-.3 3.6-1.7 5.2-3 1.5-1.3 4.6-2.9 6.8-3.5 4.5-1.4 7.4-2.6 12.5-5.1 3.9-1.9 6.8-1.7 5 .5-1.3 1.6 1.1 3.8 3.7 3.3 1.2-.2 2.1-1.9 3-5.7.6-3 2-6.1 3-7 1-.9 1.2-1 .5-.2-1.5 1.8-1.6 10.7-.1 11.6.7.5.4 1.4-.7 2.6-.9 1.1-1.5 2.2-1.1 2.5.3.3 1.1-.4 1.7-1.6.8-1.4 1.7-1.9 3-1.5 1.9.6 4.6-2.5 3.4-3.8-1.4-1.3 1.8-10.6 4.2-12.1 3.5-2.4 5.2-2 8.7 1.9 5.4 6.1 8.5 4 3.7-2.6-4.6-6.4-4-9.1 1-4.4 2.4 2.3 2.8 2.4 3.9 1.1 1.1-1.3.9-2-.8-4.2-1.1-1.4-1.9-2.9-1.7-3.3.2-.3 1.6-5.1 3.1-10.6 1.4-5.5 3.3-11 4-12.2.8-1.2 1.2-2.9.9-3.7-.3-.9-.3-2.4.2-3.4.4-.9.8-2.6 1-3.7.3-3.3 3.7-11.7 6.4-15.9 1.4-2.2 2.9-4.8 3.5-5.8 1.1-2.1 6.4-4.9 8.5-4.5.9.1 1.9 2.2 2.7 5.7zm192.3-5.2c0 1.3-1.2 2.2-2.2 1.6-1-.6-.1-2.4 1.3-2.4.5 0 .9.4.9.8zm20.4 3.8c.4.9.4 1.9.2 2.1-.8.8-2.6-.8-2.6-2.3 0-1.9 1.6-1.8 2.4.2zm-26.2 2.6c-.7.7-1.2.8-1.2.2 0-1.4 1.2-2.6 1.9-1.9.2.3-.1 1.1-.7 1.7zm3.8 4.2c-.8.8-1 .4-.6-1.9.6-4.1.8-4.4 1.3-1.6.3 1.3 0 2.8-.7 3.5zm-230.6 2.1c-.6 1.6-3.4 2.1-3.4.7 0-1.3 1.1-2.2 2.6-2.2.8 0 1.1.6.8 1.5zm232.1 2.5c-.5.8-1.1.8-1.7.2-.6-.6-.7-1.6-.3-2.2.5-.8 1.1-.8 1.7-.2.6.6.7 1.6.3 2.2zm-4.5 7.4c0 1.9-.4 3.8-1 4.1-.6.4-1-1-1-3.4 0-2.3.5-4.1 1-4.1.6 0 1 1.5 1 3.4zm4-.4c0 1.9-1.1 2.6-2.3 1.4-.8-.8.3-3.4 1.4-3.4.5 0 .9.9.9 2zM93.7 388.7c-.3 1-.5.4-.5-1.2 0-1.7.2-2.4.5-1.8.2.7.2 2.1 0 3zm337.3-2.2c0 .8-.4 1.5-1 1.5-.5 0-1-.7-1-1.5s.5-1.5 1-1.5c.6 0 1 .7 1 1.5zm-336.9 10c-.7 5.6-2.7 5.6-2.2 0 .3-4.4.9-5.8 2-5.1.4.3.5 2.5.2 5.1zM431 398c0 .5-.4 1-1 1-.5 0-1-.5-1-1 0-.6.5-1 1-1 .6 0 1 .4 1 1zm-337 6.9c0 1.1-.4 2.3-1 2.6-.6.4-1-.5-1-1.9s.5-2.6 1-2.6c.6 0 1 .9 1 1.9zm357.9 13.4c1.2 3.4 2.3 6.6 2.3 7.2 0 .5.9 2.1 1.9 3.4 2 2.4 2.6 6.1 1 6.1-.4 0-2.6-1.4-4.7-3.1-3.5-2.8-4.4-3-8.7-2.5-5.8.8-6.2.1-5.3-8.7.7-6 .9-6.4 3.9-7.4 6.4-2.1 7-1.8 9.6 5zM96 421.2c0 1.7-.5 2.8-1.3 2.8-1 0-1.4-1.5-1.5-4.7 0-4.4.1-4.6 1.4-2.9.8 1.1 1.4 3.2 1.4 4.8zm334-4.2c0 .5-.4 1-1 1-.5 0-1-.5-1-1 0-.6.5-1 1-1 .6 0 1 .4 1 1zM93 431.1c0 .5-.4.9-1 .9-.5 0-1-.7-1-1.6 0-.8.5-1.2 1-.9.6.3 1 1 1 1.6zm394 .9c-3.7 3.1-5 3.6-5 2 0-1.8 4-5 6.3-5 2 .1 1.9.3-1.3 3zm-391 1.2c0 1.6-.3 1.9-1.1 1.1-.6-.6-.8-1.6-.5-2.2 1.1-1.7 1.6-1.3 1.6 1.1zm338-1.8c0 .3-.4.8-1 1.1-.5.3-1 .1-1-.4 0-.6.5-1.1 1-1.1.6 0 1 .2 1 .4zm-32.4 5.6c.1 2.2-.1 2.8-.7 1.9-.6-1.1-1.1-1.1-2.1-.1-.9.9-.9 1.2 0 1.2s1.1 1 .6 3.5c-.6 3.2-.4 3.5 1.8 3.5 2.5 0 5.2-1.6 9.5-5.6 1.4-1.3 2.9-2.4 3.4-2.4 1.6 0 3.1 30.2 1.5 31.8-.4.3-1.5.1-2.4-.5-1-.6-4-.8-7-.5-4.2.4-5.7.1-7.3-1.4-1.2-1.1-3.7-1.9-6-2-6.7-.2-6.7-1.7 0-7 3.3-2.7 6.1-5.4 6.1-6 0-.6.7-1.7 1.5-2.4 1.7-1.4 1-3.4-1-2.6-.7.2-1.7 0-2.2-.5-.6-.6-1.4-.4-2.3.6-1 1.2-1 1.5 0 1.5.9 0 .7.6-.5 2-1 1.1-2.1 1.7-2.6 1.5-.9-.6-7.9 5.8-7.9 7.3 0 1.1-3 2.5-3.8 1.7-.3-.3.3-1.2 1.4-2 1.5-1.2 1.6-1.4.3-1.5-.8 0-2.6 1-3.9 2.2-1.5 1.5-2.5 1.8-2.8 1-.2-.8-.8-.7-1.9.4-.8.8-1.2 1.8-.9 2.2.4.3 1.1 0 1.6-.8.8-1.2 1-1.2 1 .4 0 2-2.6 4.5-4.7 4.6-.7 0-1-.7-.7-1.5.7-1.8-1.4-4.7-2.7-3.9-.5.3-.9 1.4-.9 2.4 0 2.2-1.9 3.7-2.9 2.3-1-1.7-5.1.4-5.1 2.6 0 2-3.7 5.4-5 4.6-.4-.3-.7-1.9-.5-3.7.1-1.8-.3-3.6-.9-4-.8-.5-.8-1.2.2-2.5.7-1 1.5-2.5 1.8-3.5.3-.9 2.8-2.5 5.4-3.6 4.2-1.8 5.1-1.8 6.1-.6 1.8 2.2 2.7 1.7 2.1-1.3-.4-2 .1-3.2 2-4.7 1.3-1.2 3.5-3.6 4.7-5.4 1.2-1.7 2.7-3.2 3.3-3.2.6 0 1.7-.8 2.4-1.8 1.2-1.6 1.3-1.6 1.9 0 1.1 2.7 2.9 2.2 5-1.5 1.9-3.1 2-3.1 2.3-.8.2 1.3-.6 3.6-1.7 5.2-1.3 1.7-1.7 2.9-1 2.9s1.8.8 2.5 1.7c1 1.5 1.5 1.6 2.5.5 1-.9 1-1.2.1-1.2-.7 0-1.2-.7-1.2-1.5s.7-1.5 1.5-1.5c2 0 1.9-1.5-.2-4.7l-1.8-2.6 3.3.6c2.3.5 3.2.3 3.2-.7 0-.7.7-1.9 1.5-2.6.8-.7 1.2-1.7.9-2.2-.5-.7 0-.7 1.2 0 1.1.6 1.9 2.3 2 4.2zm-8.1-3c.3.5.1 1-.4 1-.6 0-1.1-.5-1.1-1 0-.6.2-1 .4-1 .3 0 .8.4 1.1 1zm15.5 0c0 .5-.4 1-1 1-.5 0-1-.5-1-1 0-.6.5-1 1-1 .6 0 1 .4 1 1zm70.2-.5c.8.9-1.8 7.6-3.3 8.6-4.4 2.8-5.1-.3-1.1-5.4 2.7-3.7 3.4-4.1 4.4-3.2zm-375.5 3.1c-.9.9-2.8-.6-2.1-1.8.4-.6 1-.6 1.7.1.6.6.8 1.3.4 1.7zm-10.7-.1c0 .8-.4 1.5-1 1.5-.5 0-1-.7-1-1.5s.5-1.5 1-1.5c.6 0 1 .7 1 1.5zm2.7 3c-.5 3.1-.3 3.5 1.6 3.6 1.7 0 1.4.4-1.3 1.4-5.7 2.2-6.7 1.9-7.5-2.1-.7-4.2 0-5.5 1.8-3 1.2 1.7 1.4 1.6 3-.8 2.4-3.5 3.1-3.3 2.4.9zM425 439c0 1.6-.4 3-1 3-1.1 0-1.4-4.3-.3-5.3 1.1-1.2 1.3-.8 1.3 2.3zm-313.3 1.2c1.5.7 4.5 2.7 6.7 4.6 2.1 1.9 6.1 4.3 8.8 5.5 4.7 1.9 4.9 2.2 4.4 5.1-.3 1.7-.2 4.5.3 6.2 1.4 5.1.5 5.5-12.2 5.9-6.4.2-12.5.8-13.6 1.4-2.6 1.4-3.1 1.4-2.5-.3.3-.8 1.8-1.6 3.3-1.9 2.5-.5 2.8-1 2.8-4.6 0-4-1.4-5.6-4.1-4.5-.7.3-1.6-.2-1.9-1-.4-1.1.1-1.8 1.8-2.2 1.5-.4 2.5-1.3 2.5-2.4 0-2.3-2.6-3.3-5-2-2.7 1.4-14.2 2.9-15.9 2-1.4-.8 6-3 10-3 3.8 0 12.8-3.3 13.4-4.9.3-.8-.1-2.1-.9-2.7-1.5-1.1-2.1-2.4-1.1-2.4.2 0 1.7.5 3.2 1.2zm126.8 16.6c-.3.9-1.3 1.2-2.8.8-2.3-.5-2.3-.4-2.6 8.2-.2 10.6.9 14.6 4 13.7 1.9-.6 2-.4 1.4 2.7-1 4.5-1 4.5-4.6 4.6-1.8 0-5 .4-7.3.8-3.7.6-3.9.5-2.7-1 1.1-1.3 1.2-2.4.2-5.5-2.2-7.5-.7-21.1 2.4-21.1 2.2 0 2.8-1.9 1.1-3.6-2.5-2.4-1.9-3.5 4.7-9l6.2-5 .3 6.4c.2 3.6 0 7.2-.3 8zm186.1-10.2c-.3.9-.6 2-.6 2.5 0 .6-.4.8-.9.5-1.2-.8-.2-4.6 1.1-4.6.6 0 .7.7.4 1.6zM102 457c0 1.4-2.4 2.3-4.7 1.7-1.5-.3-1.4-.6.7-1.5 3.2-1.4 4-1.4 4-.2zm322 2c0 .5-.2 1-.4 1-.3 0-.8-.5-1.1-1-.3-.6-.1-1 .4-1 .6 0 1.1.4 1.1 1zm4 0c0 .5-.4 1-1 1-.5 0-1-.5-1-1 0-.6.5-1 1-1 .6 0 1 .4 1 1zm-237.7 8.7c-.3 2.7-1 5.6-1.4 6.5-.5.9-.9 2.6-.9 3.8 0 2-.4 2.1-3.7 1.6-2.1-.4-6.3-.8-9.3-1.1-3-.2-6.2-.6-7.1-1-.8-.3-4.4.3-8 1.5-6.7 2.1-12.9 2.6-12.9 1.1 0-1.8 3.6-4.8 7.5-6.3 2.2-.8 7.4-2.6 11.5-3.9 4.1-1.2 8.5-2.9 9.7-3.7 1.2-.7 2.6-1.1 3.1-.8.6.3 2.7-.1 4.8-.8 6.9-2.5 7.4-2.3 6.7 3.1zm237.7-2.8c0 1.1-.4 2.3-1 2.6-.6.4-1-.5-1-1.9s.5-2.6 1-2.6c.6 0 1 .9 1 1.9zm-3.9 6.8c.1 4.3.1 8.4 0 9-.1.7.3 1.3.8 1.3s1-2.1.9-4.8c0-7.2.1-8.4 1-7.8 1 .6.7 25-.3 26.6-1.2 1.9-2.5-.1-1.9-2.8.4-2.1.3-2.4-.5-1.2-.6.8-1.1 3.5-1.2 6 0 2.5-.4 6.5-.8 9l-.7 4.5-.6-3.8c-.8-4.2-.1-39.2.8-42 1.2-4 2.4-1.2 2.5 6zm-283.2-.4c1 3 1 4.2.1 5-2.4 2.5-5.1-4.4-3.4-8.8.8-2 1.6-1.1 3.3 3.8zm239.8 0c-1 1.6-2.5 2.4-4.6 2.5-1.7 0-4.6 1.2-6.4 2.6-2 1.6-4.7 2.6-6.6 2.6-1.8 0-5 1-7.1 2.2-2.1 1.3-4.2 2-4.5 1.6-1.1-1.1.4-2.8 2.4-2.8 1 0 3.7-1.4 5.9-3 2.7-2 5.4-3 7.6-3 2 0 5.8-1.3 8.8-2.9 2.9-1.6 5.5-2.8 5.7-2.6.2.3-.3 1.5-1.2 2.8zm-278.9-.1c-.3.7-2.4 1.3-4.9 1.4l-4.4.2 3.5-1.3c4.5-1.7 6.3-1.8 5.8-.3zm292.6-.2c1.4.5 2.6 1.6 2.6 2.4 0 2.4 2.6 3.8 3.9 2.2 1.3-1.5 8.1-2 8.1-.5 0 .4-1.9 1.7-4.2 2.7-3.4 1.4-4.9 1.6-7 .8-2.1-.8-3.6-.7-6 .3-1.8.8-5 1.5-7.1 1.6-3.8.2-7.7 2.8-7.7 5.1 0 .8-1.6 1.1-5.6.9-3.1-.2-5.8-.6-6.1-.9-.9-.8-7.5 2.3-8.9 4.2-.7.9-1.4 2.7-1.4 3.9 0 1.6-.6 2.3-1.9 2.3-4.8 0-3.5-5.6 1.9-8.8 2.2-1.2 4-2.7 4-3.3 0-1.9 4.4-2.8 6.2-1.2 1.6 1.4 2.1 1.2 5.8-2.1 4-3.6 6.4-4.4 7.5-2.6 1.1 1.8 2.5 1.1 4.6-2.4 1.1-1.9 3.2-3.9 4.7-4.5 3.6-1.3 3.7-1.3 6.6-.1zm-260.3 5.6l2.5 5.4h-2.8c-1.5 0-4.2-.9-6-2-4-2.4-5.8-2.5-13.7-.4-7 1.8-8.4 1.3-7.5-2.4 1.3-5.4 2.2-5.7 16.4-5.9l8.5-.1 2.6 5.4zm319.9-.8c0 1.3-1.2 2.2-2.2 1.6-1-.6-.1-2.4 1.3-2.4.5 0 .9.4.9.8zm-362 2.8c0 .7-.7 1.5-1.6 1.8-2.3.9-2.4.8-2.4-1.2 0-1.1.7-1.8 2-1.8 1.1 0 2 .6 2 1.2zm125.7 2.6c-.3.8-.6.5-.6-.6-.1-1.1.2-1.7.5-1.3.3.3.4 1.2.1 1.9zm260.1 0c1.9 1.9 1.4 3.8-1.3 4.8-1.4.5-2.5 1.5-2.5 2.1 0 1.7-10.9 11.9-12.8 11.9-1.3 0-1.2-.5.8-2s2.2-2.1 1.3-3.1c-1.9-1.9-6.5.1-8.1 3.4-1.1 2.2-2 2.7-4.8 2.7-3.2 0-3.4-.2-2.4-2.1.7-1.3 1.9-1.9 3.3-1.7 1.4.2 2.3-.3 2.5-1.5.3-1.3-.3-1.7-2.7-1.7-2.5 0-3.1-.4-3.1-2.1 0-1.2.8-2.3 2-2.6 1.3-.3 2-1.4 2-2.8 0-6.8 2.7-7.2 3.6-.5.8 6.2 2.9 8.3 5.2 5.4 2.1-2.5 5.8-4.2 9.7-4.6 2.1-.2 3.1-.9 3.3-2.3.7-4.7 1.7-5.6 4-3.3zm-66.3 3.2c.8 1.9 1.9 3.7 2.5 4.1 1.2.7 1.4 6.5.2 6.5-.5 0-1.7-.7-2.8-1.5-2.8-2.1-4.9-1.8-8.4 1.2-3.1 2.6-3.8 2.7-16.2 3-11.5.3-26.2-.8-27.4-2-.9-.9 2-5.7 3.4-5.7.9 0 2.6 1 4 2.2l2.3 2.3 1.8-2.3 1.7-2.4 3 2.5c3.6 3 6 2.2 5.1-1.5-.4-1.5-.1-3.2.8-4.4 1.5-1.8 1.6-1.8 3.6.8 2.7 3.6 4.8 3.5 5.5-.2 1.2-5.8 4.6-6.2 7.6-1 2.1 3.7 3.6 3.8 4.9.2 2.2-5.9 6.3-6.8 8.4-1.8zm-240.3 1.1c1.9 1.7 2.8 2.1 3.1 1.1.7-1.6 8.6-1.8 8.3-.2-.2.6-.1.8.1.3.3-.4 1.3-.7 2.4-.7 2.7 0 2.6 5.5 0 7.2-1.6 1-1.8 1.5-.8 2.6.6.8 1.2 4.1 1.3 7.4l.1 6-3.1-.6c-19.5-3.7-23-4-49.1-4.3-25.4-.2-27-.3-26.7-2 .1-1 .4-4 .6-6.8.2-2.7.9-5.1 1.5-5.3.6-.2 1.1-1.1 1.1-1.9 0-1-.6-1.3-1.6-.9-.9.3-1.2.2-.8-.5.3-.6 1.7-.8 2.9-.5 1.4.4 2.9 0 3.9-.9 1.6-1.7 6.2-2 7.1-.5.3.5 1.2.7 2.1.3 1.7-.6 5.4 2.3 5.4 4.3 0 .8.6 1.1 1.5.8.8-.4 1.3-1 1-1.4-.3-.5-.1-1.1.5-1.5.5-.3 1 .1 1 1 0 1.2.8 1.4 3.9.9 3.3-.5 4-.3 4.3 1.2.3 1.6.6 1.4 1.8-1.1 1.2-2.3 2.3-3.1 4.9-3.3 1.9-.2 3.7.2 4.1.9.4.6 1.3.8 1.9.5.6-.4.9-1.2.6-1.7-.4-.5.6-.9 2.2-1 1.5 0 3.7-.4 4.8-.9 3.6-1.5 7-1 9.7 1.5zM82.8 488c0 2-.4 3-1.4 3-2.1 0-1.7 1.7.6 2.3 2.5.6 2.7 4 .3 3.5-1.1-.2-2.2-1.8-2.7-4.1-.9-3.5-2.8-4.8-4.1-2.7-1.1 1.7-2.2 1.1-2.7-1.5-.5-2.3-.3-2.5 2.8-2.1 1.8.3 3.8.7 4.4 1.1.5.3 1-.1 1-.9 0-3 1.7-1.6 1.8 1.4zm-12.7 1.2c.7 1.3.4 1.3-2.6.4-3.6-1.1-3.9-2.4-.4-2.1 1.2.1 2.5.8 3 1.7zm22.4 5c.1 3.5-1.2 6.1-2.6 5.2-.5-.3-.9-3.1-.9-6.2 0-5.2.1-5.5 1.7-4 .9.9 1.7 3.2 1.8 5zm339.3-4c-.6 1.8-2.8 2.1-2.8.4 0-.9.7-1.6 1.6-1.6.9 0 1.4.5 1.2 1.2zm9.7 4.5c1.6 2.2.8 4.3-1.6 4.3-1.4 0-1.9-.7-1.9-3 0-3.3 1.6-3.9 3.5-1.3zM409 498c0 .5 1.4 1.6 3 2.5 1.8.9 3 2.3 3 3.5 0 2.5-.4 2.5-6.1-.3-4.1-1.9-4.6-2.5-3.8-4.5.8-2.2 3.9-3.2 3.9-1.2zm17.6 4.4c-.3 1.4-1.1 2.6-1.6 2.6-1.1 0-1.4-5.3-.3-6.4 1.3-1.2 2.6 1.3 1.9 3.8zm-53.4.7c1.6 1.2 4.2 2.1 5.6 2.1 1.5 0 3.8.7 5.1 1.5 1.9 1.2 3.9 1.4 9.5.8 6.9-.7 7-.6 5.3 1.3-1.4 1.5-3.6 2-11 2.5-5 .4-10.2.9-11.5 1.3-2.1.6-2.2.5-1.1-1.9.6-1.4.9-3.3.5-4.3-.6-1.4-2.1-1.6-13.1-1.2-12.4.4-12.5.4-12.5-1.8 0-2 .6-2.3 4.8-2.7 8.8-.7 15.2.2 18.4 2.4zm-290.4.1c-.3.8-1.7 1.2-3.4 1-1.6-.2-7.8-.3-13.9-.4-13.3 0-8.1-1.2 7.4-1.6 8.1-.3 10.2 0 9.9 1zm145.6.2c2.5-.4 5.2-.1 6.5.5l2.2 1.2-.7 33.2c-.4 18.3-.6 52.1-.5 75.2.1 43.4-.2 51.1-2.2 51.8-.7.2-3 .2-5.1-.1l-3.9-.5.8-14.1c.4-7.7.9-24.2 1.1-36.6.2-12.4.7-24.6 1.2-27.2 1.8-9.4-3.4-9.1-5.5.3l-1.3 5.4.6-8.2c.3-4.6 1-9.8 1.5-11.5.5-1.8.9-5.5.9-8.3 0-2.7.7-7.7 1.5-11s1.4-7.9 1.5-10.3c0-3.6-.3-4.2-2-4.2-1.4 0-2.6 1.1-3.5 3.2-1.3 3-1.3 2.5-.9-6.2.3-5.2 1.2-14.4 1.9-20.4.7-6 1.2-11.4 1.1-12-.2-.6-.1-.8.1-.4.3.4 2.4.5 4.7.2zm239.4 2.9c3 3.2 1.8 4-6.3 4.4-3.3.1-5.4 0-4.7-.3.6-.3 1.2-1.3 1.2-2.2 0-.9 1-2.6 2.1-3.8 2.4-2.6 3.9-2.2 7.7 1.9zm-249.9-1.7c-.6.8-1.5 2.9-1.9 4.7-.8 3.1-.8 3-.9-1.3-.1-3.9.2-4.6 2-4.7 1.7-.2 1.8.1.8 1.3zm233.6 1.3c0 .7-1.8 1.9-3.9 2.6-2.2.8-5 2.6-6.2 4.2-2.6 3.1-3.1 1.8-1.2-3.3.6-1.8 2.1-3.7 3.2-4.2 3-1.3 8.1-.9 8.1.7zm-25.5 6.6c0 5.8-1.4 7.4-2.3 2.7-.6-3.3.2-8.2 1.4-8.2.5 0 .9 2.5.9 5.5zM92.6 510c1 0 1.4 1.3 1.4 4.8 0 4.8-1.5 15.3-2.7 18.2-1 2.6-1.1 7-.2 7.6.5.3.9 2 .9 3.9 0 4.5 1 7.1 2.1 5.4.4-.8 1.1-1.1 1.4-.7 1 .9-.5 4.9-1.5 4.3-1.9-1.2-2.4 2.8-2.1 18.2.1 8.9-.1 16.8-.5 17.5-.9 1.5-.9 7.7.2 10.2.5 1.4.3 1.7-.7 1.4-2.2-.7-2.7-11-2.3-51.3.4-33.9.9-44.1 2.1-40.8.3.7 1.1 1.3 1.9 1.3zm71.9-.1c2.8.5 7.1 1.2 9.8 1.6 3.5.5 5.2 1.3 6.3 3.1.9 1.3 2.3 2.4 3 2.4 1.6 0 1.8 4.6.8 12.4-.6 3.9-1.2 4.9-3.3 5.8-6.1 2.4-21.5 4.7-34.1 5.2-7.4.2-13.6.5-13.8.5-.1.1 0 1.2.4 2.5.7 2.8.5 2.8-10.1 4.6-3.8.6-9 1.5-11.5 2-7.7 1.5-8 .3-6.5-25.3.5-8 1.3-14.1 1.9-14.5 2.8-1.8 47.7-2 57.1-.3zm193.2 1.2c-2.3 1.2-4.6 1.7-5.5 1.4-1.4-.6-1.1-1 1.3-2.1 1.7-.7 4.1-1.3 5.5-1.3 2.2 0 2.1.2-1.3 2zM415 513c0 2.8-.2 3-3.7 3-2.1 0-4.5-.5-5.3-1-1.3-.8-1.2-1 .3-1 1.1 0 3-.9 4.4-2 3.5-2.7 4.3-2.5 4.3 1zm60 5.2c.7 3.3.5 4.7-.7 6-2.2 2.5-.1 5 3.5 4.1 2.4-.6 2.5-.5 2 3.4-1 7 2 9.4 6 4.8 2.9-3.3 5.2-2.3 5.2 2.2 0 3.3-.2 3.5-2.6 3-1.5-.3-3.9-.1-5.5.3-3.1.9-4.3 0-5.3-4.3-.5-2.3-1.2-2.7-3.9-2.7-4 .1-6.4 1.8-6.9 5-.3 2.3-.7 2.5-7 2.8-6.4.3-9.2-.9-4.8-2.1 2.2-.6 2.6-2.8 1-5.8-1.5-2.7 1.4-3.7 4-1.4 1.4 1.3 2.3 1.4 3.9.5 1.2-.6 2.1-.8 2.1-.4 0 .3.7.1 1.5-.6 1.9-1.6.2-4-2.4-3.3-1.1.3-2.4-.5-3.5-2.2l-1.7-2.6 2.8.3c2.6.3 2.8.1 2.8-3.7 0-3.6.2-4 2.3-3.7 1.3.2 2.4-.3 2.7-1.2.3-.9.7-2.4 1-3.3.9-2.6 2.6-.1 3.5 4.9zm-103.2-3.3c-2.3 3.8 3.6 7 13.2 7.1l4.5.1-6 5.4c-3.3 3-6.3 5.5-6.7 5.5-.4 0-1-2.1-1.4-4.8-.8-6-2.8-8.2-7.2-8.2-2.7 0-4.2.8-6.8 3.6-1.9 1.9-3.4 4.4-3.4 5.4 0 1.1-.5 3.1-1.2 4.5-1 2.2-.9 3.1.7 5.7 1.7 3 1.7 3.2 0 4.5-4.3 3.1-4.7 2.2-6-17.7l-.6-8.6 6.8-1.7c3.7-.9 8.6-1.8 10.8-2 2.2-.2 4.1-.4 4.3-.5.1-.1-.3.7-1 1.7zm51.6 76.1c-.2 37.7-.6 70.1-.9 72-1 5.1-1.4 11.3-1.5 22.5-.1 6.3-.4 9.3-1 8-.8-2-.3-34.8.6-37.4.4-1.1.5-55.7.2-87.6 0-3.9.1-17.8.2-31 .2-21 .3-23.4 1.4-19.5 1 3.4 1.2 21 1 73zM404 515.5c0 .3-1.7 1.2-3.7 2-2.9 1.2-4.4 1.3-6.1.6-1.3-.6-4.9-1.2-8-1.3-5.6-.2-5.6-.2 1.8-.8 10.6-.9 16-1.1 16-.5zm28 1.1c0 .8-.5 1.2-1 .9-.6-.4-.8-1.1-.5-1.6.9-1.4 1.5-1.1 1.5.7zm-216.5 1.3c.3.5.1 1.2-.5 1.6-.5.3-1-.1-1-.9 0-1.8.6-2.1 1.5-.7zm190 3c-.6.5-2.3 1.2-4 1.5l-3 .6 3-1.4c3.5-1.8 5.4-2 4-.7zm10 .1c.3.5.1 1-.4 1-.6 0-1.1-.5-1.1-1 0-.6.2-1 .4-1 .3 0 .8.4 1.1 1zm-200.8 17.7c-.3 8.7-1.1 17.1-1.7 18.8-1 3.1-.7-12.8.7-27.8 1.1-12 1.6-7.1 1 9zM441 524c0 .5-.2 1-.4 1-.3 0-.8-.5-1.1-1-.3-.6-.1-1 .4-1 .6 0 1.1.4 1.1 1zm-34.7 5.1c-.8 1.6-1.3 3.9-1 5 .8 2.9-.6 2.3-2.5-1.1-2-3.5-4.9-3.9-7.8-1-2.4 2.4-2.5 4.8-.5 7.6 1.3 2 1.1 3.4-.6 3.4-.4 0-1.1-.9-1.4-2-.3-1.1-1.7-2.3-3.1-2.6-1.3-.3-2.4-.9-2.4-1.3.1-2.2 15.4-11 19.2-11.1 1.5 0 1.5.3.1 3.1zm9.7-.5c0 1.8-.4 1.8-2.4-.5-1.7-1.9-1.7-1.9.3-1.4 1.2.3 2.1 1.2 2.1 1.9zm-208 8.2c0 3.7-.9 10-2 14-1.1 4.1-2.3 12-2.6 18-.6 11.9-.8 13.2-2.5 13.2-1.4 0-.3-24.4 1.2-27.2.6-1 1.4-6.6 1.9-12.3.5-5.8 1.2-11 1.5-11.5 1.6-2.6 2.5-.4 2.5 5.8zm173-.4c0 1.1-10 7.4-10.4 6.7-.7-1 1.2-2.7 5.7-5.1 3.3-1.8 4.7-2.3 4.7-1.6zm35 3.6c0 2.3-.4 2.4-3.1 1-2.7-1.5-2.4-3 .6-3 1.8 0 2.5.5 2.5 2zm-233.7 12.8c-.3 7-.7 12.8-.8 13-.1.1-1.5-.2-3.1-.8-1.5-.6-3.9-.8-5.1-.5-2.6.6-10.3 7.2-10.3 8.7 0 .5 1.4 2.2 3.2 3.8l3.2 2.9-3 1.1c-1.6.6-3.6 1.7-4.4 2.4-.8.8-3.9 1.6-6.8 2-5 .6-5.3.5-6.2-1.9-.5-1.4-1.7-2.8-2.6-3.2-2.1-.8-8.4 2.3-8.4 4.1 0 .8-.5 1.8-1.1 2.1-1.7 1.1-9.9 1.2-17.9.3-10.5-1.3-12.6-3.4-12.8-12.6-.1-3.7-.4-9.5-.7-12.9l-.5-6 4.3-.6c27-3.9 30.7-5 30.7-8.8 0-1.7.8-1.9 8.1-1.9 8.2 0 27.1-2.4 31.2-3.9 1.2-.5 2.5-.7 2.9-.5.4.3.4 6.2.1 13.2zm293.1-11.2c.8 2.1.8 5.4 0 5.4-1.2 0-3.3-3.4-3.4-5.3 0-2.1 2.6-2.3 3.4-.1zM382 544c-1.1 2-3 2.8-3 1.2 0-1.1 2.2-3.2 3.2-3.2.5 0 .4.9-.2 2zm-8 3.1c0 .5-1 .9-2.1.9-1.8 0-1.9-.2-.9-1.5 1.2-1.5 3-1.2 3 .6zm33 1c3.4 2 3.4 2 .5 1.3-1.6-.4-4.6-.8-6.5-.8-4.1-.2-6.3-1.3-5.4-2.8.9-1.3 7-.1 11.4 2.3zm9 4.5c0 4.9-.2 5.4-2.2 5.4-2.2 0-8.8-3.4-8.8-4.5 0-.3 1.5-.4 3.3-.3 2.8.3 3.2 0 3-2-.2-1.4.3-2.2 1.2-2.2.8 0 1.5-.7 1.5-1.6 0-.8.5-1.2 1-.9.6.3 1 3.1 1 6.1zm-57.9-2.6c-1.3 1.1-3.1 2-4 2-1.2-.1-1.1-.5.8-2 1.3-1.1 3.1-2 4-2 1.2.1 1.1.5-.8 2zm113.5.1c1 1.2 4.5 3.4 7.6 5 4.8 2.4 6.1 2.7 8.2 1.8 2.7-1.3 5.6-.6 5.6 1.1 0 1.4-24.7 1.2-30.8-.2-4.6-1.1-5.1-2.9-1.1-3.8 1.7-.4 2.5-1.4 2.7-3.3.3-2.2.8-2.7 3.1-2.7 1.6 0 3.6.9 4.7 2.1zm9.8-1.5c1.5.6 2.3 3.4 1 3.4-1.5 0-4.4-2.2-3.9-3.1.7-1.1.9-1.1 2.9-.3zm-102.6 6.1c.9.9 4.2 1.3 9.8 1.3 7.4 0 9.5.4 17.4 3.7 8.4 3.4 9 3.8 9 6.6v2.9l-3.1-2.6c-4.9-4.2-7.1-4.4-17.8-1.6-4 1-4.6.9-6.7-1.1-1.6-1.5-3.1-2-4.8-1.7-1.6.3-3.1-.1-3.8-.9-3.5-4.2-11-3.1-13.7 2.1-.8 1.4-2.5 2.9-3.8 3.1-1.3.3-3.4.7-4.8 1-2.4.5-2.5.4-2.5-5.4v-6l3.8-.6c2-.3 4.8-.8 6.2-1.1 10.8-2.2 12.3-2.2 14.8.3zm-160.1 10.5c-.2 1.3-.4.5-.4-1.7-.1-2.2.1-3.2.4-2.3.2 1 .2 2.8 0 4zm-7.2 5.3c-.4 3.6-1 6.4-1.2 6.1-.3-.2-.2-3.4.2-7.1.4-3.6 1-6.4 1.2-6.1.3.2.2 3.4-.2 7.1zm163.1-6.4c.9 1.6-1.7 5.9-3.6 5.9-1.5 0-1.6-.5-.6-3.5 1.1-3.5 2.9-4.5 4.2-2.4zm10.4 4.4l2.3 2.5-2.6 2.1c-1.7 1.3-2.7 3.1-2.7 4.7-.1 2.2-1 3.1-4.5 4.9-2.4 1.2-5.3 1.9-6.4 1.6-1.8-.4-2.1-1.3-2.1-5.5 0-5 0-5 2.8-4.4 6.2 1.6 6.7 1.4 6.4-2.6-.3-2.7.1-3.9 1.5-4.7 2.5-1.4 2.7-1.4 5.3 1.4zm23.8.9l2.4 2.1-4.9.5c-4.1.4-4.8.8-5.1 2.9-.4 2.4-.4 2.4-3.2-.8-1.8-2-3.8-3.1-5.5-3.1-1.6 0-2.4-.4-2-1.1.4-.6 1.9-.7 3.6-.4 2.1.5 3.6.1 5.6-1.4 3-2.4 5.5-2.1 9.1 1.3zm41.5-.3c4.4.4 8.9.4 10 0 5-1.8 34.7.9 34.7 3.1 0 .4-12.6.8-28 .8h-28v-3.1c0-2.6.3-3 1.8-2.4.9.4 5.2 1.1 9.5 1.6zm-232.8 9.6c-.4 3-.9 5.2-1.2 4.9-.3-.3-.2-3.6.2-7.3.5-3.7 1-6 1.3-4.9.2 1 .1 4.3-.3 7.3zm146.3-6.5c2.1 2.6.2 6.7-4.4 9.2-4.5 2.5-5.4 2.1-4.6-2 .2-1.2 1.3-2.4 2.3-2.7 1-.3 1.9-1.4 1.9-2.4 0-3.3 2.8-4.5 4.8-2.1zm63.6.3c-.4.8-.8 1.5-1 1.5-.2 0-.4-.7-.4-1.5s.4-1.5 1-1.5c.5 0 .7.7.4 1.5zm-32.8 6c.9 2.3 2.1 3.5 3.4 3.5 1.5 0 2 .7 2 2.9 0 2.5-.4 3-2.2 2.8-1.3 0-3.3-.9-4.6-1.8-1.3-1-2.9-1.6-3.6-1.3-1.9.7-3.2-7.6-1.4-8.8 2.7-1.7 4.9-.8 6.4 2.7zM415 577c0 .5-.2 1-.4 1-.3 0-.8-.5-1.1-1-.3-.6-.1-1 .4-1 .6 0 1.1.4 1.1 1zm-.7 4.1c1.5 0 1.7 1.5 1.9 16.2.2 21-.1 41-.8 62.3-.7 21-.9 23.4-1.8 23.5-1.9.2-6.5-2.2-9.9-5.2l-3.8-3.4 1-20c.6-11 1.3-31.6 1.5-45.9.4-18.2.9-26.3 1.8-27.3.8-1 2.2-1.3 4.7-.9 2 .4 4.4.6 5.4.7zM209.1 591c-.9 2.3-1 2.2-.7-1 1-10 .9-9.7 1.3-5.5.2 2.3-.1 5.2-.6 6.5zm155.9-6.2c0 .4-1.7 2.8-3.7 5.4-2.1 2.5-4.3 5.4-5 6.4-1.1 1.7-1.2 1.7-1.2-.8-.1-3.6 5.5-11.8 8-11.8 1 0 1.9.3 1.9.8zm16.5 2.1c-.3.6-1.1 1.1-1.7 1.1-.6 0-.6-.6.2-1.5 1.4-1.7 2.6-1.3 1.5.4zm45.1 2.8c-1 1-1.9-.5-1-1.8.6-1.1.8-1.1 1.2 0 .2.7.1 1.5-.2 1.8zm-304.6 15c0 .6-.6 1.5-1.2 2-1.3.7-15.9.5-16.7-.3-.2-.2.1-.9.7-1.6.5-.7 1.2-4.7 1.5-8.8.3-4.1.6-7.6.6-7.8.2-.8 15.1 15.4 15.1 16.5zm93.7-11.5c-.2 1.3-.4.5-.4-1.7-.1-2.2.1-3.2.4-2.3.2 1 .2 2.8 0 4zm158-4c1.5.7 2.9 1.3 3.1 1.4.2.1-.3 2.4-1.1 5.1-.8 2.7-1.2 6.2-.9 7.8.4 2.5.2 2.7-1.6 2.3-4.4-1.2-11.6 5.8-12.9 12.4-.6 3.4-1.8 4.8-4.1 4.8-1.1 0-1.3-1.5-.9-6.3.6-8.9 2.2-13.9 5.1-16 1.5-1.1 2.6-2.9 2.6-4.2 0-1.4.7-2.5 2-2.8 1.1-.3 2.4-1.7 3-3.1 1.1-2.9 1.7-3.1 5.7-1.4zm17.9 3.3c2 2.2 2.6 2.4 4.3 1.3 3.4-2.1 4 0 3.4 12l-.6 11.3-2.6-.6c-3.6-.9-4.8-2.1-5.5-5.5-1-5.1-6.6-3.4-6.6 2 0 2.1-1.8 4.2-8.2 9.6-13.9 11.8-14.3 12.4-10.9 16.5 1.7 2.1 1.9 3.5 1.4 10.8-.6 8.3-.6 8.5 2.2 10.7 2.8 2.2 2.7 4.4-.3 4.4-1 0-2.2-1-2.7-2.3-.9-1.9-1.7-2.2-6.3-2.1l-5.4.2.4-12.8c.2-10.6.6-13.1 2.1-14.8 1-1.1 1.7-2.8 1.5-3.9-.2-1.4.3-1.8 2.5-1.8 3.9-.1 5.9-2.6 6.3-8.1.6-7.3 4.5-10.3 9-6.9 2.7 2 3.1 1.9 4.8-1.7 1.3-2.6 1.4-3.7.4-6.4-.9-2.6-.9-4.2.1-7.6.7-2.4 1.8-4.9 2.3-5.6 1.7-2 5.9-1.4 8.4 1.3zm54.2-.3c.7.7.9 1.5.3 2.2-.5.6-.5 2-.2 3 .4 1.1.4 4 .1 6.5-.4 2.5-.8 15.8-.9 29.6-.1 13.7-.4 25.1-.5 25.5-.2.3-.7 7.2-1 15.5-.8 18.2-1.2 20.7-3.4 20.3-1.5-.3-1.7-3.9-2-38.3-.2-20.9 0-44.4.3-52.3l.7-14.4 2.7.7c1.4.4 3.2 1.1 3.9 1.7zm-19.3 1.7c.3.5.1 1.2-.5 1.6-.5.3-1-.1-1-.9 0-1.8.6-2.1 1.5-.7zm-217.8 3.8c-.3 1-.5.4-.5-1.2 0-1.7.2-2.4.5-1.8.2.7.2 2.1 0 3zm-82.8 2.4c3.3 4.3 2.1 4.5-1.9.4-2-2.1-2.8-3.5-1.9-3.4.7 0 2.5 1.4 3.8 3zm95.8 23.6c-.4 14.8-.8 29.3-1 32.3-.2 3-.5 7.2-.5 9.2-.2 3.1-.6 3.8-2.3 3.8-2 0-2-.3-1.5-14.3.7-15.2 1.2-21.5 2.6-31.7.8-5.5 1.8-18.3 2-24.3 0-.9.3-1.7.6-1.7.4 0 .4 12 .1 26.7zm-6.1-19.9c-1.2 1.2-1.8-.8-1-3.5l.8-2.8.4 2.8c.2 1.6.1 3.1-.2 3.5zm-7.1.7c-.5 2.1-3.4 28.2-4.1 37-1 11.8-1.6 15.5-2.5 15.5-2 0-2.1-3.4-.4-11.3 1-4.5 2-10.2 2.1-12.7.2-2.4.9-8.7 1.5-14 1.2-9.7 1.5-12.6 1.8-17 .1-2 .3-2.2 1.1-1 .5.8.7 2.4.5 3.5zm218.5 1.6c0 .5-.4.9-1 .9-.5 0-1-.7-1-1.6 0-.8.5-1.2 1-.9.6.3 1 1 1 1.6zm-211 4.7c0 2-.5 5.3-1 7.2-1 3.3-2.8 24.3-3.4 39.3-.2 3.7-.6 7-.9 7.4-1.5 1.4-3.7-.8-3.7-3.7 0-7.8 2.9-28.7 4.7-34 .2-.8.7-5.3.9-10 .3-4.7.7-9.1.9-9.8.9-2.5 2.5-.1 2.5 3.6zm-42.4-1.6c2.4 2.3 3.2 7.2 1.5 8.3-.5.3-2.7-.6-4.8-2.1-3.1-2.1-4.6-2.5-8.3-2.1-4.5.5-8-.8-8-3.2 0-1.4 3.6-1.5 4.5-.1.9 1.5 3.5 1.1 7.5-.9 4.6-2.5 4.8-2.5 7.6.1zm253.4 2.9c0 .5-.4.9-1 .9-.5 0-1-.7-1-1.6 0-.8.5-1.2 1-.9.6.3 1 1 1 1.6zm-356.6.7c-.1.7-.2 6.2-.2 12.4-.2 14.7-2.1 13.2-2.3-1.7-.1-13.6-.1-12.7 1.4-12.3.6.3 1.2 1 1.1 1.6zm6.4 3.1c-.3 2.1.1 2.6 2 2.5 1.5 0 2.2.5 2.2 1.7 0 1 .4 2 .9 2.3 1.6 1 3.5-2.5 3.6-6.5 0-2.1.4-3.9.8-3.9.8 0 .8 12.2-.1 19.2l-.4 3.8H73.9l.2-12c.2-10 .4-11.8 1.6-10.9.7.7 1.2 2.3 1.1 3.8zm29-.6c.2 2.3 1.1 4.2 2.3 5.1 2.4 1.7 3.4 7.1 2 10.8-1 2.6-1.3 2.7-5.4 2.2-2.8-.4-4.7-.2-5.1.5-.4.6-1.5 1.1-2.4 1.1-1.5 0-1.7-1-1.4-8.3.1-4.5.5-9.8.9-11.7l.6-3.5 1.1 4.5c.8 2.9.9 5 .2 5.8-1.3 1.9 1.4 4.4 3.4 3.2 1.2-.8 1.3-1.3.3-2.9-.8-1.3-.9-2.2-.3-2.6.6-.4 1-1.6.9-2.8-.4-4.1.1-5.9 1.4-5.5.6.3 1.3 2.1 1.5 4.1zm13.7-1.3c-.5.8-1.1.8-1.7.2-.6-.6-.7-1.6-.3-2.2.5-.8 1.1-.8 1.7-.2.6.6.7 1.6.3 2.2zm23.7 2.3c.3 2.9.6 3.2 4.1 3.5 2.6.2 3.9-.1 4.3-1.2 1-2.5 3.6-2 3.2.6-.2 1.5-1.2 2.4-3.3 2.9-1.6.4-4.4 1.3-6.2 2-2.7 1.1-4 1-8.8-.5-3-.9-6-1.4-6.5-1.1-.6.3-1-.1-1-1.1 0-1.4.7-1.5 4.3-1 5.3.8 7.6-.9 5.6-4.2-1-1.6-1-2.3 0-3.6 1.9-2.2 3.9-.4 4.3 3.7zm-126.9-2.9c.3.7.4 6.3.1 12.2l-.4 10.9-6.7.3c-6.1.3-6.6.1-4.9-1.1 1.7-1.3 1.9-2.6 1.8-12.1-.1-6.5.2-10.6.8-10.6 1.2 0 1.2.1 1.4 11.8.2 8.8 1.2 12.2 3.4 10.8.5-.3 1.3-5.8 1.7-12.1.6-10.6 1.5-13.6 2.8-10.1zm47.7 9c0 5.7.3 11.1.6 12 .5 1.4-.7 1.6-9.7 1.6H44.5l.3-11.5c.4-12.9 2.2-15.9 2.2-3.6 0 5.9.4 8.2 1.5 9.1 2.6 2.2 3.7-.2 4.2-9.4l.6-8.6H64v10.4zm18-8.3c0 1.1-.4 1.7-1 1.4-.5-.3-1-1.3-1-2.1s.5-1.4 1-1.4c.6 0 1 .9 1 2.1zm10-1.1c0 .5-.2 1-.4 1-.3 0-.8-.5-1.1-1-.3-.6-.1-1 .4-1 .6 0 1.1.4 1.1 1zm20.8 2.8c.2 1.8-.1 3.2-.7 3.2s-1.1-.6-1.1-1.3c0-.6-.3-2.3-.7-3.6-.4-1.8-.2-2.3.8-1.9.8.2 1.5 1.9 1.7 3.6zm-72.7 9.7l.3 11h-4c-3.4 0-3.9-.3-3.6-2.2.2-1.2-.1-2.4-.7-2.7-1.6-1-4 .5-4.3 2.7-.2 1.7-1.1 2.2-3.9 2.3l-3.7.3.6-6.7c.5-7 2-12.9 2.1-8.6.1 2.8 2.6 5 3.7 3.3.5-.9 1.4-.4 3 1.7l2.3 2.9 1.2-3.3c.7-2.1 1.7-3.1 2.8-3 1.3.2 1.7-.7 1.9-5.1.5-9.1 2-4.3 2.3 7.4zm126.5-7.5c.6.6 2.6 1.9 4.5 2.9 3.1 1.7 3.4 2.2 3.7 7.2l.3 5.4-2.6-2.5c-3.4-3.2-10.2-3.5-13.4-.6-1.4 1.3-3 1.7-5.3 1.3-4-.6-11.1 2.6-13.3 5.9-1.4 2.2-1.7 2.2-5 .8-3-1.2-3.9-1.2-6.9 0l-3.4 1.4-.4-4c-.3-2.9.2-4.8 1.4-6.4 2.7-3.3 5.1-3.7 10-1.5 7.3 3.3 8.2 3.4 11.3.5 2-1.9 3.5-2.4 5.4-2.1 3.5.7 6-1.3 7.2-5.7.8-2.8 1.5-3.6 3.2-3.6 1.3 0 2.8.5 3.3 1zm-74.3 11.2c.3 4.6.1 5.8-1.1 5.8-1.1 0-1.3-.8-.8-3.1.3-1.7.6-4.8.7-6.8.1-4.9.7-2.9 1.2 4.1zm334.7-2.7c0 .8-.4 1.5-1 1.5-.5 0-1-.7-1-1.5s.5-1.5 1-1.5c.6 0 1 .7 1 1.5zm-312.2 9.7c-.3 2.9 0 3.3 2 3.2 2-.1 2.2.4 2.2 4.8 0 5.2-.5 5.8-2.6 3.1-1.8-2.6-2.5-1.3-2.8 5.8-.5 9.7-1.7 16.9-2.9 16.9-.6 0-.7-2.9-.2-8.3.4-4.5.8-11.4.9-15.2 0-3.9.7-8 1.4-9.3.7-1.2 1-2.2.7-2.2-.4 0-.3-.5 0-1 1.1-1.9 1.6-1 1.3 2.2zm312.3-.9c-1.3 1.3-2.6.3-1.6-1.2.3-.6 1.1-.8 1.7-.5.6.4.6 1-.1 1.7zm-257 2.2c1.2 1.9 2.5 3.5 3.1 3.5.6 0 .9 2.3.7 5.2-.1 2.9.1 6.5.5 8.1.8 2.6 1.7 3.1 6.9 3.9 1 .2 1.8.6 1.8 1-.1.5-.1 2.1-.1 3.6 0 6-1.2 6.4-16.5 6.3-13-.1-14-.3-18.6-2.9-6.2-3.5-6.7-4.8-2.4-6.6 3.3-1.4 3.5-1.8 3.5-6 0-3.6-.4-4.6-2-5.1-2.8-.9-2.6-5.7.4-9.2 2.1-2.4 2.7-2.6 4.3-1.5 4.2 2.9 3.8 2.9 10.8-1.3 2.2-1.3 4.4-2.4 4.8-2.4.4-.1 1.7 1.5 2.8 3.4zm202.8-2.2c.6.8.8 1.7.5 2-1 .9-4.5-1.3-3.9-2.4.9-1.3 2.1-1.1 3.4.4zm11.8 5.5c.8 1 3.1 1.6 5.9 1.8 4.5.2 7.2 2 5.5 3.7-.9.9-12.5-2.5-17.6-5.1-2.8-1.4-2.8-1.6-1-2.3 2.5-.9 5.6-.2 7.2 1.9zm-250.1 3.9c1 3.4 2.2 4.8 3.6 4.5.9-.1 2.1.4 2.7 1.2.9 1.1.5 2.4-2 6-3.3 4.6-3.3 4.6-1.6 8.1.9 2 1.7 3.7 1.7 3.9 0 .1-3.5.2-7.7.1-7.2-.2-7.8-.3-8.3-2.5-.3-1.3-.1-5.5.5-9.3.9-6.3 1.4-7.2 5-10.3 4.6-3.9 5.4-4.1 6.1-1.7zm246.4 2.8c.7.8.9 2.6.5 4.4-.5 2.4-.2 3.2 1.5 4.1 2.2 1.2 4.4.2 6.3-2.8 1.1-1.7 4.2-1.5 6.1.4 2.4 2.4 2 12.4-.5 12.4-1.6 0-19-7-21.5-8.7-3-1.9-3.6-8-.6-6.8 3.5 1.5 4.7 1 5-1.8.4-3 1.4-3.4 3.2-1.2zm-352.2 3c2.7 2.3 6.2 2.6 6.2.5 0-1.2 5.7-3.3 7-2.5.6.3.9 1.8.8 3.3-.2 2 .2 2.7 1.7 3 1.9.4 4.5 2.8 4.5 4.3 0 .4-1 .9-2.2 1.1-1.4.2-2.3 1-2.3 2 0 2.5-1.6 3.6-5.5 4-3.4.3-3.5.4-4.3 5.8-1 6.4-2 7.8-4.2 6-1-.8-1.5-3-1.5-6.2 0-4.2-.5-5.6-3.6-9.3-2-2.5-4.4-4.7-5.5-5-2.6-.9-2.4-2.3.4-2.7 1.8-.2 2.2-.8 1.9-3.6-.2-2.6.2-3.2 1.7-3.2 1.1 0 3.3 1.1 4.9 2.5zm154.8 1.2c-.7.7-2.6-.7-2.6-1.9 0-.6.6-.6 1.5.2.9.7 1.3 1.5 1.1 1.7zm242.2 19c-.3 4.2-2.1 5.1-2.6 1.5-.4-2.9.4-5.2 1.8-5.2.7 0 1 1.5.8 3.7zm-41.1-.1c-.9.9-2.8-.6-2.1-1.8.4-.6 1-.6 1.7.1.6.6.8 1.3.4 1.7zm-148.9 18l.2 18.1-6.7 3.5c-3.8 2-8.2 3.9-10 4.2-3 .7-3.3.5-3.8-2.1-.3-1.5-2.4-8.3-4.6-15.1-3.7-11.1-4-12.9-3.4-18.5.9-7.7 1.2-8.3 3.5-6.2 1.5 1.4 2.9 1.6 7.1 1 2.8-.4 5.9-1.5 6.8-2.4 1.2-1.2 2.7-1.5 6.1-1.1l4.5.5.3 18.1zm131.7-18.7c1.5.6 1.1.9-2 1.4-8.1 1.4-14 .5-11.8-1.7.9-.8 11.3-.6 13.8.3zm-191.5 4c5.4.5 6.5.9 6.9 2.6.2 1.1 1.4 3.2 2.6 4.7 3.7 4.4 4.5 18.8 1.1 21.1-1.1.7-61.9-.1-64.3-.8-1-.3-1.3-3.8-1.3-12.9 0-6.8.3-13.1.6-14 .5-1.4 3.6-1.6 24.3-1.5 13 .1 26.5.4 30.1.8zm224.3 6.2c3.2 2.7 6.4 4.9 7.2 4.9.7 0 2.8 1.2 4.5 2.6 2.9 2.5 3.1 2.9 2.8 9.2l-.3 6.5-29.9-.2c-16.5-.1-30.2-.4-30.4-.6-.3-.3-.5-6.4-.6-13.7l-.1-13.3 7.9-.2c4.4-.2 8.1-.5 8.3-.7.2-.2 5.9-.1 12.6.2l12.1.5 5.9 4.8zm-289.2-.5c-.2 3.1-.6 4.3-1.3 3.6-1.1-1.1-.2-8.2 1-8.2.4 0 .6 2.1.3 4.6zm-89.9-.9c4.2 1.7 4.6 2.4 2.3 4.3-1.7 1.4-12 .9-13.5-.6-.5-.5-1.2-2.2-1.6-3.8l-.7-2.9 4.9.8c2.6.4 6.5 1.4 8.6 2.2zm404.8-.8c0 .6-.4 1.3-1 1.6-.5.3-1-.1-1-.9 0-.9.5-1.6 1-1.6.6 0 1 .4 1 .9zm-.4 7.3c-.2 2.4-.4 4.7-.5 5.1-.1.5-.5.6-.9.3s-.7-2.4-.6-4.8c.2-5.1.2-4.8 1.4-4.8.5 0 .8 1.9.6 4.2zm-417.9-.8c2.7 1.3 4.3 2.7 4.5 4 .2 1.5 1.2 2.2 3.1 2.4 2.8.3 3.5 2 1.6 3.9-1.8 1.8-.2 4.5 2.3 4.1 2.1-.3 2.4.2 2.9 4.6.3 2.8 1.1 5.2 1.7 5.4 1.4.4 1.6 2.8.4 3.6-.5.3-1.8.3-3-.1-1.6-.4-2.2-1.4-2.4-4.2-.3-3.1-.6-3.6-2.9-3.7-1.4 0-4-1-5.8-2.3-3.6-2.6-5.7-2.2-7.1 1.1-.6 1.6-.9-1.4-.9-9.5-.1-6.5.2-11.7.7-11.5.4.1 2.6 1.2 4.9 2.2zM430 687c0 .5-.4 1-1 1-.5 0-1-.5-1-1 0-.6.5-1 1-1 .6 0 1 .4 1 1zm-4.7 13.5c-.9 4.4-2 2.7-1.7-2.8.1-2.8.3-5.4.4-5.7.6-1.3 1.7 6.2 1.3 8.5zM31 696c0 1.3 1.2 2.6 3.3 3.6 1.8.9 4.3 3.1 5.6 4.9 2.6 3.9 2 6.4-.8 3.6-1.2-1.2-2.8-1.7-4.2-1.4-1.8.3-3.4-.6-6.2-3.5-3.5-3.6-3.7-4.1-2.6-6.5 1.5-3.2 4.9-3.7 4.9-.7zm410.8 3.9c1.9 1.1 1.1 4.5-1.1 4.9-1.9.4-3.2-2-2.3-4.3.6-1.7 1.5-1.9 3.4-.6zM149 708.4c0 1.3.9 3.4 1.9 4.7l1.9 2.4 1.1-2.9c.9-2.3 1.4-2.6 2.6-1.6.8.6 1.9.9 2.6.5.6-.4 1.5-.2 1.9.5 1.4 2.3 4.2.3 3.8-2.7-.2-2 .2-2.8 1.2-2.8 1.1 0 1.4.8 1.2 2.8-.2 1.9.4 3.7 1.7 5 1.2 1.4 1.9 3.5 1.9 5.5-.1 3.9-1.3 5.1-2.1 2.1-.8-3.1-3.1-1.8-3.5 1.9-.2 1.8-.8 3.2-1.4 3.2-.6 0-.8-1-.4-2.3.8-3.2-1.7-6.7-3.5-5-.9.9-1.6 1-2.6.2-2-1.7-4.3-.3-4.3 2.6 0 3.2 2.6 4.4 4.4 1.9 1.2-1.6 1.5-1 2 5.1 1.3 14 1.6 15.4 3.8 16.6 1.9 1 2 1.8 1.5 9-.5 8.1.2 10.1 2.8 7.9 1.1-.9 1.5-3.5 1.6-9.4 0-7.7.1-8 1.6-5.9 3 4.4 4.1 2.8 4.6-6.5.3-4.8.4-14.4.3-21.4-.1-11.6.1-12.8 1.7-12.8 1.3 0 1.7.9 1.7 3.9 0 2.2-.4 5.1-.9 6.4-1.1 2.8.8 6.5 2.7 5.3 1.7-1 3.5-8.5 2.8-11.8-.5-2.4-.2-2.8 1.5-2.8s2 .5 1.6 2.2c-.3 1.3-1.3 5.6-2.3 9.5-1.3 5.7-2.1 7.3-3.5 7.3-2.3 0-2.8.9-3.5 6.4-.6 3.7-.3 5 1.2 6.7 1.3 1.4 2.1 4.2 2.4 8.2.4 5.2.8 6.2 2.5 6.6 1.1.2 3.3 1.5 4.9 2.8 2.5 2.1 3.7 2.4 6.8 1.9 2.7-.4 4.6-.1 6.3 1 2.1 1.4 3.2 1.5 6.7.6 5.6-1.4 6.4-.6 7.7 7.6 2.2 14.5 2.2 14.2 0 14.2-2.3 0-3.6 2.7-2.2 4.1.7.7 1.6.5 2.7-.7 1.9-1.8 2.1-1.8 3 1.2.6 1.9.2 2.3-2.7 2.8-5.2 1-6.6 0-6.9-4.7-.2-3-.8-4.3-2-4.5-1.5-.3-1.8.4-1.8 4.3 0 3.2-.4 4.5-1.2 4.3-.8-.3-1.1-2-.9-4.6.2-3.7 0-4.2-1.8-4.2-2.1 0-2.7 1.6-2.2 6.7.1 1.6-.4 2.3-1.5 2.3-1.2 0-1.5-.6-1-2.6.6-2.2.4-2.5-1.6-2.2-1.7.2-2.4 1.1-2.6 3-.3 2.5-.7 2.8-4.3 2.8-3.5 0-3.9-.2-3.9-2.6 0-3-4.5-7.8-6.5-7-.7.2-1.5 2.3-1.9 4.6-.8 5-2.8 4.4-2.5-.9.3-5.2.1-6.1-1.4-6.1-2 0-3.4 4-2.9 8.2l.4 3.8h-6c-5.1 0-6.2-.3-6.7-2-.5-1.5-1.4-1.9-4.3-1.7l-3.7.2-.3-5c-.4-7.1-.7-7.8-3.3-6.5-1.7 1-2.4.8-4.1-1-1.6-1.7-2.3-1.9-3.4-.9-1.3 1-1.2 1.5.5 3.3 2.2 2.3 1.6 4.1-1.3 4.1-2.7 0-3.3 2.5-.7 3.2 2.1.5 3.8 3.9 2.6 5.1-.4.4-1.2-.1-1.9-1.1-1.6-2.1-4.2-2.2-5-.2-.4 1.1-2.1 1.5-6 1.5-5.3 0-5.4 0-6-3.3-.3-1.8-.5-19.1-.4-38.4.2-33.8.3-35 2.1-33.9 1.5.9 2 .7 2.9-.8.8-1.4 1.2-1.5 1.8-.6 1.2 1.9 4 .4 4-2.1 0-1.2.3-1.9.7-1.5.4.4.6 4 .4 8.1-.2 6.2 0 7.5 1.3 7.5.8 0 1.9-.8 2.5-1.8 1.1-1.9.9-2.1 2.6 3.3.5 1.8 2.4 2 2.9.2.2-.6.7-2.1 1.1-3.2l.7-2 .8 2c.5 1.1.9 4.5 1 7.5.1 3 .5 6.6.9 8 .8 3 3.5 3.3 3.9.5.2-1.1 1.3-2.5 2.5-3 1.6-.7 2.3-2 2.5-4.8.3-3.7.2-3.8-2.5-3.5-2.6.3-2.8 0-3.5-4.7-1.1-7.7-1.7-9.5-3.3-9.5-1 0-1.5-1.1-1.5-3.3 0-3.8.6-4.7 3.2-4.7 1.2 0 1.8.7 1.8 2.4zm-10 2.1c0 2.3.7 4.1 2 5.2 2.5 2.2 2.5 3.3.1 3.3-1.1 0-2.3.5-2.7 1.1-1.3 2.1-1.9-.8-1.6-7 .4-6.4 2.2-8.6 2.2-2.6zm235.6 4.2c.2 8.5.7 9.5 4.1 8.7l2.6-.7-.7 5.9c-2.1 17.7-2.5 21.8-2 22.3.9 1 3.7-1.5 3.9-3.5.9-10.8 1.8-18.1 2.4-19.8 1.2-3.1 2.2 6.5 2.6 23.3.2 7.9.6 14.5.9 14.8.2.3 1 .2 1.7-.2.8-.6 1-5.7.8-19.4-.4-18.5-.4-18.6 1.8-18.9 2-.3 2.2.2 2.5 4.5.2 3.5.7 4.8 1.8 4.8 1 0 1.4-.9 1.3-2.5-.7-12.3-.5-24.1.7-25.5 1.7-2 7-2 7 0 0 .9-.9 1.5-2.5 1.5-2.5 0-2.6.2-2.3 5.7.2 4.4.7 5.8 1.8 5.8 1 0 1.6-1.2 1.8-3.3.2-2.4 1-3.5 2.8-4.2 1.7-.7 2.4-1.7 2.4-3.5s.5-2.5 2-2.5c2.2 0 2.3.4 2 6.5-.1 2.3-1 4.9-2 6-1 1.1-2 3.6-2.2 5.5-.3 2.5-1 3.6-2.4 3.9-3.2.5-4.6 2.3-4.1 5 .3 1.4.1 3.6-.4 4.9-1.4 3.7 1.3 6.3 6.4 6 4-.3 4.1-.2 4.9 3.7.8 3.5.6 4.2-1.4 5.9l-2.3 1.8 2.3 1.5c2.1 1.5 2.2 2.1 2.2 15.4 0 7.7-.2 13.9-.5 13.9s-1.4-.6-2.6-1.3c-1.7-1-2.2-.9-3 .5-1.1 2-8 2-11.7-.1-1.7-.9-2.7-.9-3.7-.1-.8.6-4.6 1-9.7.8l-8.3-.3.4-6.5c.3-3.6.5-10.3.5-15 .1-6.9-.2-8.5-1.4-8.5-1.4 0-2.4 8.3-2.9 25.2-.1 3-.5 4.3-1.5 4.3-2.1 0-2.4-1.9-1.5-8.5.5-4 .4-6.4-.3-7.3-1.8-2.2-2.8 0-3.4 8.1-.6 6.9-.9 7.7-2.8 7.8-1.2 0-4 .3-6.2.5-3.1.4-4.6 0-5.9-1.2-1.4-1.4-2.1-1.5-3.6-.6-4.6 2.9-5.9.1-5.9-12.9 0-7.2.7-8.5 6.3-11.9 6-3.5 6.9-5.7 7.2-17.1.2-9.4.4-10.3 2.6-12 2-1.5 2.5-2.9 2.9-8.9.3-4 .2-7.4-.2-7.6-.5-.3-.8-1.9-.8-3.7 0-3.3 1.5-2.8 2.2.8.6 3.3 3.3 2.4 3.6-1.3.9-8.7 3.2 2.2 3.2 15 0 5 1.1 6.6 2.9 4.4.9-1 1-4.6.5-12.6-.7-10.7-.6-11.2 1.2-10.8 1.6.3 1.9 1.3 2 7.5zm7.4-4.6c0 2.4.4 3 1.8 2.7.9-.2 1.8-1.3 2-2.6.4-2.7 1-2.7 3.4-.5 1.9 1.7 1.9 1.8-1.2 4.3-1.9 1.6-3.2 3.6-3.4 5.5-.4 3.4-1.9 3.7-2.4.5-.2-1.2-1-2.4-1.8-2.7-1.4-.5-2-8.3-.7-9.6 1.4-1.5 2.3-.6 2.3 2.4zm12-.7c0 .3-.4.8-1 1.1-.5.3-1 .1-1-.4 0-.6.5-1.1 1-1.1.6 0 1 .2 1 .4zm31 3.2c0 1.4-1.2 1.9-2.3.8-.9-.9.4-3.5 1.4-2.8.5.3.9 1.2.9 2zm-217 4c0 1.6-3.5 1.9-4.5.5-.6-1.1 2.6-3.2 3.7-2.5.5.3.8 1.2.8 2zm148 2.4c.5 3.1 0 6-1 6-.5 0-1-2.1-1-4.7 0-2.9.4-4.3.9-3.8.5.6 1 1.7 1.1 2.5zm38.3-.3c.3 1.6.1 3-.4 3.1-.5.2-1.5 1-2.3 1.7-2.8 2.8-3.6-1.6-1-5.3 2-2.9 3.1-2.8 3.7.5zm-167.5 8.6c.1 4.8-.1 7.7-.8 7.7-.5 0-1-.8-1-1.9 0-1-.3-4.6-.7-8.1-.5-5.1-.4-6.2.8-5.8 1 .3 1.4 2.7 1.7 8.1zm201.6-6.1c-.5.8-.2.9.9.5 1-.4 1.7-.1 1.7.5 0 .9.3.9 1.2 0 1.9-1.9 3.3-1.4 1.5.6-1 1-1.7 2.4-1.7 3 0 .6-1.9 1.6-4.2 2.2-2.4.6-5.1 1.3-6 1.6-2.9.9-2.1-1.2 2.2-5.6 3.8-3.9 5.9-5.2 4.4-2.8zm-206.2 7.5c.5 8.2.3 9.7-1.3 8.8-1.2-.8-1.2-16.5 0-16.5.5 0 1.1 3.5 1.3 7.7zm-4.2-2.6c0 1.7-.4 2.8-1 2.4-.5-.3-1-1.7-1-3.1 0-1.3.5-2.4 1-2.4.6 0 1 1.4 1 3.1zm-7 9c0 10.3-1.3 13-2.7 5.6-.7-3-.5-4.6.4-5.5 1.2-1.2 1.1-3.7-.3-8-.5-1.8.5-3.4 1.7-2.7.5.4.9 5.1.9 10.6zm3.6-5.5c.1 5-.4 8.9-1.2 8.1-.3-.2-.7-3.5-1-7.2-.5-5.4-.3-6.6.8-6.3.8.3 1.3 2.2 1.4 5.4zm-8.9-1.4c-.3.7-.5.2-.5-1.2s.2-1.9.5-1.3c.2.7.2 1.9 0 2.5zm-116.2.5c5 1.9 6.6 4.5 3.2 5.1-1 .2-2.7-.4-3.8-1.4-1.6-1.5-2.3-1.5-4.4-.4-2 1.1-3 1.1-5.7 0-4.7-1.9-5.3-2.7-3.8-4.5 1.7-2.1 7.4-1.6 14.5 1.2zm351-.7c.3.5-.1 1-.9 1s-1.8-.5-2.1-1c-.3-.6.1-1 .9-1s1.8.4 2.1 1zM171 736.6c0 5.4-.4 8.3-1 7.9-.5-.3-.9-2-.7-3.8.1-2.5-.3-3.4-2-4.2-2.6-1.1-3-2.5-.9-2.5.8 0 1.9-1.4 2.5-3 .5-1.7 1.2-3 1.5-3 .4 0 .6 3.9.6 8.6zM7 734.1c0 1-.4 1.9-.9 1.9-1.2 0-2.3-2.9-1.5-4.1.8-1.4 2.4 0 2.4 2.2zm223.3-.6c-.7 2.1-1.3 1.9-1.3-.6 0-1.1.4-1.8 1-1.4.5.3.7 1.2.3 2zm4.4.1c-.9.9-2.8-.6-2.1-1.8.4-.6 1-.6 1.7.1.6.6.8 1.3.4 1.7zm-163.1 4.5c.8 1.7 1.3 4 1.1 5.1-.6 2.2 1 7.7 2.8 9.7.7.7 3.2 1.3 5.4 1.3 2.6-.1 4.1.4 4.1 1.2 0 1.9-2.2 3.6-4.7 3.6s-3 1.9-1.1 3.8c1.7 1.7-1.5 2.6-4.2 1.2-1.8-.9-2.5-.8-4.1.6-1.8 1.6-1.9 1.6-1.9-1.4 0-3.7-1.5-4.9-3.8-2.9-2.7 2.3-5.2 2.8-7.5 1.5-4.8-2.5-5-5.8-.4-5.8 5.3 0 6.6-1.7 7.6-9.6.9-7.2 2.4-11.4 4.1-11.4.5 0 1.7 1.4 2.6 3.1zm44.2.8c-.2.9-1.2 1.7-2.2 1.9-1.4.3-1.7 0-1.2-1.3.3-1 .1-2.4-.6-3.2-1-1.2-.8-1.2 1.6-.2 1.5.7 2.6 1.9 2.4 2.8zm292.6.6c.3.8.1 1.5-.4 1.5-.6 0-1-.7-1-1.5s.2-1.5.4-1.5.6.7 1 1.5zm39-.6c.6.9-3.6 4.1-5.4 4.1-1.5 0 2.2-4.9 3.7-5 .6 0 1.4.4 1.7.9zm-15.4.9c0 .5-2.1 1.5-4.7 2.3-5.4 1.6-6.1 3.2-1.8 3.9 3.4.6 3.5 1.8.3 3.4-2.9 1.4-3.7 5.6-3.7 19.8-.1 8.4.2 10.8 1.2 10.8 1.8 0 3.5 3.8 3.1 7-.4 3.7-.4 3.7-1.8.5-.8-1.9-1-3.4-.4-4.2.5-.7.5-1.4-.1-1.7-1.7-1.1-2.2 1.2-2 7.9.1 3.6 0 6.8-.4 7.1-1.8 1.9-2.3-5.5-1.9-27.3.4-21.3.7-24.5 2.3-27.2 1.6-2.6 2.5-3.1 5.9-3.1 2.2 0 4 .4 4 .8zm-419 3.4c0 1.2-1.4 1-2.8-.4-1.9-1.9-1.4-2.9.8-1.6 1.1.7 2 1.6 2 2zm208.4 6.4c.7 1.9-.2 3.7-1.5 2.9-1.2-.8-1.2-4.5 0-4.5.5 0 1.2.7 1.5 1.6zm-3.7 11.1c-.2 2.1-.4.6-.4-3.2 0-3.9.2-5.5.4-3.8.2 1.8.2 5 0 7zm4.5-2.7c.6-1.8 1-2.2 1.9-1.3 1.4 1.4.8 5.8-.8 5.8-2.2 0-2.5 1.3-.5 2.4 2.6 1.4 1.9 6.1-.8 5.4-1.9-.5-3-4.7-3-11.4 0-4.8 1.4-5.9 2-1.7.5 3.1.6 3.2 1.2.8zm204.8-1c0 1.1-.4 2-1 2-.5 0-1-.9-1-2s.5-2 1-2c.6 0 1 .9 1 2zm4 2c0 .5-.4 1-1 1-.5 0-1-.5-1-1 0-.6.5-1 1-1 .6 0 1 .4 1 1zm-203.8 4.2c-.7.7-1.2.8-1.2.2 0-1.4 1.2-2.6 1.9-1.9.2.3-.1 1.1-.7 1.7zM114 766c0 .5-.4 1-1 1-.5 0-1-.5-1-1 0-.6.5-1 1-1 .6 0 1 .4 1 1zm114.5 28.4c-.2 14.9-.4 28.4-.5 29.9 0 1.6-.5 2.7-1.1 2.5-.7-.2-1-8.1-1.1-23.8 0-12.9-.2-22.8-.5-22-.2.8-.7 2.2-.9 3-.4 1.2-.6 1.2-1.4.1-.4-.8-.6-2-.3-2.8.3-.7.1-1.3-.5-1.3s-1.3.6-1.5 1.2c-.3.7-.6-1-.6-3.8-.1-4.3.2-5.2 1.7-5 .9 0 2.2 1.2 2.9 2.6 1.1 2.2 1.2 1.8 1.3-3.9 0-5.5.2-6.2 1.5-5.1 1.3 1.1 1.4 5.1 1 28.4zm4.5-26.2c0 1.6-.3 1.9-1.1 1.1-.6-.6-.8-1.6-.5-2.2 1.1-1.7 1.6-1.3 1.6 1.1zM115 775c0 1.4-1.1 2.2-4.1 3-3.5 1-4 1.4-3.5 3.3.3 1.1 0 2.7-.6 3.4-1.5 1.8.4 3.8 2.7 2.9 1.1-.4 1.4-1.2 1-2.5-.7-2.5.9-3.5 3.4-2.2 1.8 1 1.9 2.3 1.8 22.8l-.2 21.8-3.2 1c-1.8.6-4.9.9-6.8.7-2.9-.4-3.3-.7-2.5-2.2 1.1-2.1-.5-4-3.7-4-2 0-2.3-.5-2.3-3.4 0-2.8.4-3.5 2.3-3.8 2.5-.3 2.7-1.8.3-3.3-1.2-.7-2.3-.6-4.3.5-3.3 1.9-4 3.3-4.8 9.3-.6 4.4-.8 4.7-3.6 4.7-1.7 0-3.7.7-4.5 1.5-2 1.9-8.8 1.9-10.4 0-1.6-1.9-3.4-1.9-5 0-.7.9-1.5 1.3-1.8 1-.3-.3-.6-12-.6-26-.1-22 .1-25.5 1.4-25.5 1.3 0 1.5 2.5 1.2 17.9-.3 19.6-.3 19.4 6.1 20.6 3 .6 3.7.4 3.7-.8 0-.9-.9-1.9-2-2.2-1.4-.4-2-1.5-2-3.6 0-2.7.2-2.9 2-1.9 2.3 1.2 4 .6 4-1.5 0-1.8-2.1-2.4-4.2-1.3-1.6.8-1.8.3-1.8-3.5 0-3.7.4-4.6 2.1-5 2.7-.7 2-3.1-1-3.5-2-.3-2.2-.8-1.9-5.5.3-4.8.5-5.2 2.8-5.2 2.1 0 2.5-.4 2.2-2.8-.2-2.2.1-2.7 1.8-2.7 2 0 2 .3 1.6 19.5-.3 15.8-.1 19.6 1 20.6.7.6 2 .9 2.8.6 1.1-.5 1.4-4.1 1.5-19.8 0-11.9.4-19.6 1.1-20.3.6-.6 1-.6 1.1 0 0 1.1-.3 23.5-.5 28.4-.1 3.1.2 3.5 2.4 3.5h2.5l.9-14.9c.8-13.9.8-15-.9-16.3-1.7-1.2-1.4-1.3 2.6-1.3h4.5l-.9 6.7c-.7 4.7-.6 7.2.1 8.4.8 1.2.8 2 .2 2.4-1.4.8-1.3 7.2.1 8.1 2.8 1.7 6.1-6.4 3.6-8.7-1.2-1.2-1.2-1.5 0-2.8 1.4-1.3 1.5-8.8.2-13.1-.3-1.2.6-1.5 4.1-1.5 3.7 0 4.7-.4 5.5-2.2 1.1-2.5 2.5-2.1 2.5.7zm118.5 0c-.3.5-1 1-1.6 1-.5 0-.9-.5-.9-1 0-.6.7-1 1.6-1 .8 0 1.2.4.9 1zm-188.3 3.6l4.5.6.6 18.6c.7 19.3.2 22-3.1 20.2-1-.5-2.5-1.1-3.4-1.4-.9-.2-1.8-1.5-2-2.8-.2-1.5-1.1-2.4-2.5-2.6-2.6-.4-2.5.1-2.8-19.2-.1-7.9.3-12.8.9-13.2 1.4-.9 2.2-1 7.8-.2zm13.9 6.9c.4 3.8.5 14.7.3 24-.2 9.4-.4 17.6-.4 18.3 0 2-1.7 1.4-2.3-.8-.7-2.8-3.6-2.5-4.7.4-.8 2.2-1.4 2.4-8.8 2.5-7.2.1-8-.1-8.5-1.9-.7-2.6-3.3-2.6-4.7 0-1.4 2.7-3 2.5-3-.3 0-3.1-1.9-4.8-3.9-3.8-1.4.8-1.6-.5-1.3-12.2.3-12.1.5-13.3 2.5-15l2.2-1.8-2.2-1.6c-2.3-1.6-3.1-4.7-1.4-5.8.5-.3 1.3-.1 1.6.5.5.8 1.1.7 2.1-.1 1.8-1.4.1-3.9-2.6-3.9-1.6 0-3-1.9-3-4.1 0-.5 2.4-.9 5.3-.9h5.4l-.2 7.2c-.5 20.1-.3 19-2.4 17.8-2.7-1.4-3.1-1.3-3.1 1 0 1.3.9 2.2 2.6 2.6 2.6.7 2.6.8 2 6.7-.5 4.8-.3 6.4 1.1 7.9 2.1 2.4 3 2.3 3.9-.5.7-2 .9-1.9 1.4 1.2.7 4.6 2.6 5 4.5.9.8-1.8 1.2-2.4 1-1.2-.7 2.9 1.9 5.1 4 3.4.8-.7 1.5-2.3 1.5-3.6 0-2.1.4-2.3 2.9-1.8 4.8 1 5.3-1.4 4.6-19.9-.3-8.9-.8-17.7-1.1-19.5-.5-3-.3-3.3 1.8-3 2.1.3 2.4 1 2.9 7.3zm-42.1-4c.6 1.6.6 3.4-.1 5.1-.6 1.9-.6 3.7.1 6 1.3 3.7.9 4.9-2.1 6.4-1.8 1-1.9.7-1.9-9.5 0-8.7.3-10.5 1.5-10.5.9 0 2 1.1 2.5 2.5zm-8.7 16.3c-.3 20.6.2 25.4 2.6 25 1.3-.3 1.7-2.2 2.1-11.2l.5-10.8 2 2.1c1.6 1.9 1.7 2.5.7 4.2-.8 1.3-.9 2.5-.3 3.7 1.5 2.8 1.6 12.9.2 14.6-.7.9-1.1 2.3-.7 3.1.3.8.1 1.5-.5 1.5s-1.3-.9-1.6-1.9c-.7-2.6-3.2-3.5-5.2-1.7-1.3 1.2-1.9 1.2-3.3.2-2.6-1.9-2.6-20-.1-21.5 1.7-.9 1.7-1 0-2.8-2.2-2.5-2.2-8.2.1-9.9 1.6-1.2 1.6-1.4-.5-3.4-1.3-1.1-2.3-2.5-2.3-2.9 0-1.3 2.6-3.2 3.4-2.4.4.4.9-.3 1.3-1.5 1.3-5.3 1.8-1 1.6 15.6zM233 780.9c0 .6-.4 1.3-1 1.6-.5.3-1-.1-1-.9 0-.9.5-1.6 1-1.6.6 0 1 .4 1 .9zm198 1.1c0 .5-.4 1-1 1-.5 0-1-.5-1-1 0-.6.5-1 1-1 .6 0 1 .4 1 1zm-189 5c0 .5-.5 1-1.1 1-.5 0-.7-.5-.4-1 .3-.6.8-1 1.1-1 .2 0 .4.4.4 1zm-17.9 18.8c.1 7.3-.2 11.7-.9 12.4-.8.8-1.3.7-1.8-.6-.5-1.4-.9-1.5-1.5-.4-.6.9-.9.7-.9-.9 0-1.3.5-2.2 1.3-2 .8.1 1.2-1.1 1.2-3.8 0-2.5-.4-3.9-1.2-3.8-.8.2-.8-1.1.1-5 1.2-5.3 2.5-8.2 3.2-7.5.2.2.4 5.4.5 11.6zm18.9-7.4c0 1.6-1.8 3.1-2.7 2.2-.8-.8.5-3.6 1.7-3.6.5 0 1 .6 1 1.4zm-10.4 13.2c-.1 7.9-.4 10.8-1.4 11.2-1.1.3-1.3-1.7-1.2-9.4.2-10.5.7-13.7 1.9-13 .4.3.7 5.3.7 11.2zm-15.9-.9c-.3 1-.5.4-.5-1.2 0-1.7.2-2.4.5-1.8.2.7.2 2.1 0 3zm21 8.5c0 4.8-.3 8.8-.6 8.8-2.1-.1-3.3-2-2.7-4.6.4-1.6.7-5.4.7-8.4.1-3 .4-5.9.6-6.4 1.3-2.1 2.1 2.5 2 10.6zm-18-8c-.3.8-.6.5-.6-.6-.1-1.1.2-1.7.5-1.3.3.3.4 1.2.1 1.9zm-5.3 6.4c.8 8.1.6 9-1.9 8.1-2.1-.9-2.2-15.7-.1-15.7.9 0 1.5 2.2 2 7.6zm-5.2.4c.1 2.7.2 5.7.2 6.5.1.8-.3 1.6-.9 1.7-1.1.3-2.9-9.6-2.1-11.8 1.2-3 2.6-1.2 2.8 3.6zm-5.1 1.3c.5 5.1.1 7.7-1.1 7.7-.4 0-1-2.7-1.2-6-.4-7.1 1.8-8.6 2.3-1.7zm-5.3 2.5c.2 4 0 5.2-1.1 5.2-1.5 0-3.2-8.4-2.1-10.2 1.4-2.2 2.9.2 3.2 5zm-4.8.7c0 2.5-.4 4.5-1 4.5-.5 0-1-2-1-4.5s.5-4.5 1-4.5c.6 0 1 2 1 4.5zm26.4.7c.6 2.5.4 2.8-1.9 2.8-2 0-2.5-.5-2.5-2.4 0-1.3.3-3.2.6-4.1.6-1.4.9-1.4 1.9-.3.7.7 1.5 2.5 1.9 4zm-30.4 1.3c0 2.7-.4 3.5-1.8 3.5-1.9 0-2.4-3.4-.9-5.8 1.5-2.2 2.7-1.2 2.7 2.3zm52.7-1.4c.4 1.6.8 1.7 1.4.7.6-.9.9-.7.9.8s-.8 2.4-2.6 2.8c-3.3.9-3.6.6-2.8-3.2.7-3.6 2.3-4.2 3.1-1.1zm-58.2 2.3c0 1.6-.6 3.1-1.2 3.3-.8.3-1.3-.4-1.3-1.6 0-1.2-.4-2.1-1-2.1-.5 0-1 .9-1 1.9 0 2.3-1.1 3.3-2.7 2.3-1.5-1-1.1-5.1.7-6.2.8-.6 2.6-.9 4-.8 2 .3 2.5.8 2.5 3.2zm-10.3 2.1c-.4 2.6-3.5 3.5-4.7 1.5-.9-1.5 1.3-4 3.5-4 1.3 0 1.6.6 1.2 2.5z"/><path d="M423.3 408c0 4.1.2 5.8.4 3.7.2-2 .2-5.4 0-7.5-.2-2-.4-.3-.4 3.8zM423.1 418.6c0 1.1.3 1.4.6.6.3-.7.2-1.6-.1-1.9-.3-.4-.6.2-.5 1.3zM422.9 426c-.6 4.5-.4 5.8.7 4.8.3-.3.4-2.6.2-4.9l-.3-4.4-.6 4.5zM169.6 442.6c-.4 1-.1 1.4.6 1.2 1.5-.5 2.3-2.8 1-2.8-.5 0-1.3.7-1.6 1.6zM169.5 447.9c-.3.5-.1 1.2.5 1.6.5.3 1-.1 1-.9 0-1.8-.6-2.1-1.5-.7zM166 457.1c0 .5.5.7 1 .4.6-.3 1-.8 1-1.1 0-.2-.4-.4-1-.4-.5 0-1 .5-1 1.1zM443.6 420.5c-.3.8-.1 1.5.4 1.5.6 0 1-.7 1-1.5s-.2-1.5-.4-1.5-.6.7-1 1.5zM447 421.6c0 .8.5 1.2 1 .9.6-.3 1-1 1-1.6 0-.5-.4-.9-1-.9-.5 0-1 .7-1 1.6zM448 426c0 .5.7 1 1.6 1 .8 0 1.2-.5.9-1-.3-.6-1-1-1.6-1-.5 0-.9.4-.9 1zM396.5 442c.3.5-.2 1-1.1 1-1.3 0-1.5.3-.7 1.1.6.6 1.6.8 2.2.5 1.4-.9 1.4-3.6 0-3.6-.5 0-.7.4-.4 1zM383.1 449.3c-.6.8-.8 1.7-.4 2 .3.4-.2 1.6-1.2 2.7s-1.6 2-1.4 2.1c2.5.5 5.1.4 6.1-.3 1-.6.8-.8-.4-.8-2.3 0-2.3-1.9-.1-3.5.9-.7 1.3-1.7.9-2.3-.9-1.6-2.1-1.5-3.5.1zM165.7 492.9c-.5 2.2.1 3.3 1.4 2.5 1.2-.7 1.2-4.4 0-4.4-.5 0-1.1.9-1.4 1.9zM158.7 493.7c-1.3 1.2-.7 2.3 1.3 2.3 1.3 0 1.8-.5 1.4-1.5-.7-1.6-1.7-1.9-2.7-.8zM177 496.9c0 .5.5 1.3 1 1.6.6.3 1 .2 1-.4 0-.5-.4-1.3-1-1.6-.5-.3-1-.2-1 .4zM124.4 498.1c-.3.6-.1 1.6.5 2.2.8.8 1.1.5 1.1-1.1 0-2.4-.5-2.8-1.6-1.1zM174 498.1c0 .5.5.7 1 .4.6-.3 1-.8 1-1.1 0-.2-.4-.4-1-.4-.5 0-1 .5-1 1.1zM153.5 499c-.3.6.1.7.9.4 1.8-.7 2.1-1.4.7-1.4-.6 0-1.3.4-1.6 1zM172 501c0 .5.5 1 1 1 .6 0 1-.5 1-1 0-.6-.4-1-1-1-.5 0-1 .4-1 1zM168 503c0 .5.5 1 1 1 .6 0 1-.5 1-1 0-.6-.4-1-1-1-.5 0-1 .4-1 1zM91.1 513.6c0 1.1.3 1.4.6.6.3-.7.2-1.6-.1-1.9-.3-.4-.6.2-.5 1.3zM79.4 627.4c-1.5 1.2-1.7 1.9-.8 3.2 1.6 2.8 3.1 2.7 4.9 0 2.7-4.1 0-6.2-4.1-3.2zM57.7 615.7c-.9.8-.9 8.8 0 9.6 1.3 1.3 3.3-1.6 3.3-4.8 0-3.2-2-6.1-3.3-4.8zM126.2 717.9c-1.5.9-.5 4.1 1.3 4.1.8 0 1.7-.5 2.1-1.1.9-1.5-1.8-4-3.4-3zM125.4 732.1c-1 1.7 2.3 4.6 3.8 3.1.8-.8.8-1.5-.2-2.7-1.5-1.8-2.6-1.9-3.6-.4zM133.7 732.7c-1 1.5 1 3.5 2.9 3.1 2.6-.5 2.4-3.2-.3-3.6-1.1-.2-2.3.1-2.6.5zM130.6 737.9c-.9 1.4.5 4.2 1.8 3.8 1.5-.5 1.4-3.9-.1-4.4-.6-.2-1.4 0-1.7.6zM121.5 745.9c-.3.5.2 1.7 1.1 2.6 1.9 1.9 4 .6 3.1-1.9-.7-1.7-3.2-2.1-4.2-.7zM129.5 753c-.9 1.5.4 5 2 5s2.9-3.5 2-5c-.3-.5-1.2-1-2-1s-1.7.5-2 1zM151.8 757.6c-1.1 1 .3 3.4 1.9 3.4.8 0 1.3-.7 1.1-1.7-.3-1.8-2-2.7-3-1.7zM181.6 759.2c-2.3 8.2-2.5 9.2-1.4 10.5 2.1 2.6 4.2-1.2 5.1-9.2.2-2.2-3.1-3.4-3.7-1.3zM174.6 760.2c-.3.7-.7 4.3-.9 8-.5 7.5.9 11.2 3.1 8.5 1.7-2 1.2-16.9-.5-17.5-.7-.2-1.5.2-1.7 1zM128 761c-.8.5-2.3 1.1-3.3 1.4-1.2.4-1.7 1.4-1.5 2.8.4 3 3.8 3.7 4.5.9.4-1.5 1.1-2 2.3-1.6 2.3.7 3.5-1.2 2-3-1.4-1.7-1.9-1.7-4-.5zM135.5 763c-.4.7-.3 1.6.3 2.2 1.4 1.4 4.5.2 4-1.5-.6-1.6-3.4-2.1-4.3-.7zM209.6 766.6c-.4.9-.1 2.3.5 3 1.5 1.8 3.9.1 3.9-2.7 0-2.4-3.5-2.6-4.4-.3zM195.5 766.9c-.8 1.5.3 3.1 2.1 3.1.9 0 1.4-.7 1.2-1.7-.4-2-2.4-2.8-3.3-1.4zM158.4 768.1c-1 1.7 1.3 3.6 2.7 2.2 1.2-1.2.4-3.3-1.1-3.3-.5 0-1.2.5-1.6 1.1zM204.5 768c-1 1.6 1.6 4.3 2.8 3.1 1.1-1.1.2-4.1-1.2-4.1-.5 0-1.3.5-1.6 1zM150.4 769.1c-1 1.7 1.3 3.6 2.7 2.2 1.2-1.2.4-3.3-1.1-3.3-.5 0-1.2.5-1.6 1.1zM187.4 770.1c-1 1.7 2.3 4.6 3.8 3.1.8-.8.8-1.5-.2-2.7-1.5-1.8-2.6-1.9-3.6-.4zM131.5 773.9c-.9 1.6.3 3.1 2.6 3.1 1.4 0 1.9-.6 1.7-1.7-.4-2-3.3-2.9-4.3-1.4zM123.4 775.5c-.4.9-.2 2.1.4 2.7 1.5 1.5 4.4.1 4-1.9-.4-2.3-3.6-2.9-4.4-.8zM195.2 775.7c.2 1 1 1.8 1.8 1.8 2.2 0 1.8-2.9-.3-3.3-1.4-.3-1.8.1-1.5 1.5zM208.4 775.1c-1 1.7 1.3 3.6 2.7 2.2 1.2-1.2.4-3.3-1.1-3.3-.5 0-1.2.5-1.6 1.1zM158.2 776.6c.4 2.1 2.2 2.3 2.6.1.2-1-.3-1.7-1.3-1.7s-1.5.6-1.3 1.6zM154.3 781.6c-.8 2 .8 3.6 2.6 2.5 1.5-1 .8-4.1-.9-4.1-.6 0-1.3.7-1.7 1.6zM122.5 785c-.4.7-.3 1.6.3 2.2 1.4 1.4 4.5.2 4-1.5-.6-1.6-3.4-2.1-4.3-.7zM375.2 728.7c-1 2.6-.9 12.7.2 13.3.8.4 3.3-9.4 3.5-13.8.1-1.8-2.9-1.4-3.7.5zM365 737.5c0 2.8 1.2 3.2 3 1 1.4-1.6.6-3.5-1.6-3.5-.8 0-1.4 1-1.4 2.5zM356.5 739.9c-.7 1.2 1.2 2.4 2.5 1.6 1.1-.7.4-2.5-1-2.5-.5 0-1.1.4-1.5.9zM357 750c0 3.3 1.1 3.8 3 1.5 1.5-1.8.6-4.5-1.5-4.5-1 0-1.5 1-1.5 3zM396 748.6c-.9 1-1 1.8-.2 2.6 1.2 1.2 3.2.2 3.2-1.7 0-2.1-1.6-2.6-3-.9zM366 751.5c0 1.7.5 2.5 1.3 2.2.6-.2 1.2-1.2 1.2-2.2 0-1-.6-2-1.2-2.3-.8-.2-1.3.6-1.3 2.3zM381.4 754.1c-.8 1.4 1.1 3.3 2.5 2.5 1.1-.7.4-3.6-.9-3.6-.5 0-1.2.5-1.6 1.1zM398.6 754.7c-1.2 1.2-.6 3.3.9 3.3.8 0 1.5-.6 1.5-1.4 0-1.7-1.4-2.8-2.4-1.9zM357.4 760.5c-.4.8-.3 2.3 0 3.2.6 1.5.8 1.5 2.3.1 1.6-1.7 1.2-4.8-.7-4.8-.6 0-1.3.7-1.6 1.5zM366.2 762.1c.1 1.2.9 2.4 1.6 2.7.9.3 1.3-.3 1-1.9-.1-1.2-.9-2.4-1.6-2.7-.9-.3-1.3.3-1 1.9zM399.2 762.3c-1.3 1.5.1 4.2 1.7 3.3 1.3-.9 1.5-3.3.2-4-.5-.3-1.3 0-1.9.7zM380.6 764.9c-.4.6-1.2 4.5-1.8 8.9-1.2 8-.6 12.4 1.3 10.5.9-.9 3-11.8 3.3-17.2.1-2.5-1.8-4-2.8-2.2zM406.4 765.1c-1 1.7 1.3 3.6 2.7 2.2 1.2-1.2.4-3.3-1.1-3.3-.5 0-1.2.5-1.6 1.1zM347.8 766.2c-.7 1.9.2 3.8 1.7 3.8s2.8-2.7 1.9-4.1c-.8-1.3-3.1-1.1-3.6.3zM359.6 773.7c-2 6.9-1.2 13.3 1.4 10.7 1.5-1.5 1.8-11.6.3-12.1-.6-.2-1.4.4-1.7 1.4zM349.2 774.7c.2 1 1 1.8 1.8 1.8s1.6-.8 1.8-1.8c.2-1.2-.3-1.7-1.8-1.7s-2 .5-1.8 1.7zM389 775.5c-1.3 1.5-.7 4.5.8 4.5s4.4-3.8 3.7-4.9c-.9-1.6-3-1.4-4.5.4zM344.1 775.9c-1.5 1-.8 4.1.9 4.1 1.5 0 2.5-2.9 1.4-4-.5-.5-1.5-.5-2.3-.1zM404.3 776c-2.4 1-3 2.5-1.4 3.4 1.4.9 6.3-1.3 5.9-2.6-.6-1.6-1.9-1.8-4.5-.8zM395.6 780.7c-1.1 1.1-.6 2.3.9 2.3.8 0 1.5-.4 1.5-.9 0-1.3-1.6-2.2-2.4-1.4zM108.2 794.7c.4 2.2 4.3 2.5 4.3.3 0-.8-1.1-1.6-2.3-1.8-1.9-.3-2.3 0-2 1.5zM103.5 808c-.4.7-.3 1.6.3 2.2 1.4 1.4 4.7.6 4.7-1.2 0-1.8-4-2.6-5-1zM109.1 814c-.8.4-1 1.3-.7 1.9.9 1.3 4.3 1.5 5.1.2.8-1.4-2.8-3.1-4.4-2.1zM108 819c-1.3.9-1.3 1.1 0 2 .8.5 2 1 2.7 1 1.9 0 2.7-2.1 1.2-3.1-1.8-1.1-2.1-1.1-3.9.1zM75.2 822.7c.2 1 1.4 1.9 2.6 2.1 1.9.3 2.3-.1 2-1.5-.2-1-1.4-1.9-2.6-2.1-1.9-.3-2.3.1-2 1.5zM41.4 785.1c-1 1.7-1.4 15.3-.4 16.9.4.7 1.5 1 2.4.7 1.4-.6 1.6-2.1 1.4-9.4-.3-8.3-1.5-11.2-3.4-8.2zM44.5 811.1c-.8 1.2 1.4 3.1 3 2.6.6-.2 1-1 1-1.8 0-1.7-3.1-2.4-4-.8zM24.4 814.1c-1 1.7 2.3 4.6 3.7 3.2.7-.7.9-1.9.6-2.7-.7-1.8-3.3-2.1-4.3-.5zM36 486c0 .5.7 1 1.5 1s1.5-.5 1.5-1c0-.6-.7-1-1.5-1s-1.5.4-1.5 1zM440 547.9c0 1.3 5.7 3.4 7 2.6 1.8-1.1-.9-3.5-4.1-3.5-1.6 0-2.9.4-2.9.9zM459.4 596.4c-.9 2.4.9 15.1 2.1 14.8 1.5-.3 1.3-15.4-.2-15.9-.7-.3-1.6.3-1.9 1.1zM473.2 598.2c.5 3.2 2.8 3.5 2.8.4 0-1.7-.5-2.6-1.6-2.6-1 0-1.4.7-1.2 2.2zM474.4 605.5c-.4.9-.2 2.1.4 2.7 1.5 1.5 4.4.1 4-1.9-.4-2.3-3.6-2.9-4.4-.8zM476.2 612.7c.2 1 1.2 1.8 2.3 1.8 1.1 0 2.1-.8 2.3-1.8.3-1.3-.3-1.7-2.3-1.7-2 0-2.6.4-2.3 1.7zM472.4 619.5c-.4.9-.2 2.1.4 2.7 1.5 1.5 4.4.1 4-1.9-.4-2.3-3.6-2.9-4.4-.8zM457.7 621.3c-.3.8-.2 2.9.3 4.8.8 3.7 1.9 2.5 2.3-2.6.2-2.9-1.7-4.6-2.6-2.2zM483.3 621.7c-1.8.6-1.6 6.8.1 8.2 1.9 1.6 3.1-.4 2.7-4.4-.3-3.4-1.1-4.4-2.8-3.8zM495.2 633.7c.4 2.2 4.3 2.5 4.3.3 0-.8-1.1-1.6-2.3-1.8-1.9-.3-2.3 0-2 1.5zM483.7 636.7c-1.4 1.4-.6 3.4 1.7 4.3l2.5.9-.5 21.4c-.4 18.1-.2 21.6 1 22.6 2.2 1.9 3.7.4 2.9-2.7-.7-3-.7-4.3.2-11.9.6-4.8.8-5.1 3.3-5 3.7.3 3.7-2.7 0-3.1-3.1-.4-3.4-1.6-2.2-13 .5-4.7 1.1-6.1 2.5-6.5 2.1-.6 2.6-3.5.7-4.2-.7-.3-2.8-.6-4.6-.8-1.8-.2-3.8-.9-4.4-1.5-1.4-1.4-2.2-1.5-3.1-.5zM472.7 637.7c-1.3 1.2-.7 4.4.9 5 2 .7 4.5-2.2 3.7-4.3-.5-1.4-3.5-1.9-4.6-.7zM460 640c0 2.4 2.9 3.8 4 2 1.2-1.9.1-4-2.1-4-1.2 0-1.9.7-1.9 2zM452.2 660.2c.2 6 .7 10.3 1.3 10.3.9 0 2.4-17.3 1.7-19.5-.2-.6-1-1-1.8-1-1.2 0-1.4 1.8-1.2 10.2zM461.2 651.6c.2 1.1 1.1 2 2.2 2.2 1.3.3 1.7-.1 1.4-1.4-.2-1.1-1.1-2-2.2-2.2-1.3-.3-1.7.1-1.4 1.4zM464.4 655.1c-.9 1.5 1.2 3.3 3 2.6.9-.4 1.6-1.3 1.6-2.2 0-1.7-3.5-2.1-4.6-.4z"/><path d="M481.2 655.7c.4 2.2 4.3 2.5 4.3.3 0-.8-1.1-1.6-2.3-1.8-1.9-.3-2.3 0-2 1.5zM496.1 655.4c-1.6 1.9-.6 3.6 2 3.6 1.5 0 2-.6 1.7-2.2-.4-2.7-2.1-3.3-3.7-1.4zM474.4 662.5c-.7 1.8.3 3.5 2.1 3.5 2.1 0 2.8-1.9 1.5-3.5-1.6-1.9-2.9-1.9-3.6 0zM478.2 673.7c.2 1 1 1.8 1.8 1.8s1.6-.8 1.8-1.8c.2-1.2-.3-1.7-1.8-1.7s-2 .5-1.8 1.7zM482.5 679c.3.5.8 1 1.1 1 .2 0 .4-.5.4-1 0-.6-.5-1-1.1-1-.5 0-.7.4-.4 1zM454.2 681.7c.5 2.6 3.8 2.9 3.8.4 0-1.5-.6-2.1-2.1-2.1-1.4 0-1.9.5-1.7 1.7zM450.5 686c-.4.6-.1 1.7.5 2.6 1 1.1 1.6 1.2 2.6.3 1.1-.9 1.1-1.5.3-2.5-1.4-1.7-2.5-1.8-3.4-.4zM455.2 694.2c.7 1.9 3.8 2.2 3.8.4 0-1-.9-1.6-2.1-1.6-1.2 0-1.9.5-1.7 1.2zM452.4 704.4c-.4 1-.2 2.2.4 2.8.8.8 1.3.7 1.8-.6.4-1 .2-2.2-.4-2.8-.8-.8-1.3-.7-1.8.6zM476.5 705.9c-.8 1.5.3 3.1 2.1 3.1.9 0 1.4-.7 1.2-1.7-.4-2-2.4-2.8-3.3-1.4zM451.4 713.1c-1 1.7 1.3 3.6 2.7 2.2 1.2-1.2.4-3.3-1.1-3.3-.5 0-1.2.5-1.6 1.1zM478 713.5c0 1 .7 1.5 1.8 1.3 2.1-.4 1.9-2.2-.2-2.6-1-.2-1.6.3-1.6 1.3zM472.3 718.2c.2.7 1 1.3 1.7 1.3s1.5-.6 1.8-1.3c.2-.7-.5-1.2-1.8-1.2s-2 .5-1.7 1.2zM477.4 725.1c-.8 1.4 1.1 3.3 2.5 2.5.6-.4 1.1-1.4 1.1-2.2 0-1.6-2.6-1.9-3.6-.3zM467.5 733.9c-.7 1.2 1.2 2.4 2.5 1.6 1.1-.7.4-2.5-1-2.5-.5 0-1.1.4-1.5.9zM469.5 741c-.4.6-.3 1.6.3 2.2.6.6 1.2.6 1.7-.2.4-.6.3-1.6-.3-2.2-.6-.6-1.2-.6-1.7.2zM469.5 803.5c-5.4 2.5-6.6 3.9-5.9 7.3.6 3 .6 3-4.7 3.6-9.1 1.2-10.9 1.7-11.9 3.7-.8 1.4-.6 2.3 1 3.9s3.3 2 8.6 2c5.6 0 6.5.2 6.2 1.7-.4 2-3.6 3.1-9.4 3.2-2.5.1-5.1.9-6.5 2-2.2 1.8-2.3 2.1-.8 3.6 1.1 1.1 3.7 1.7 8.9 1.8 4.7.1 7.5.6 7.7 1.4.4 1.2-.8 1.6-7.8 2.8-5.6.9-7.6 2.7-6.4 6.2 1.4 3.9 4.8 3.8 5.5-.2.4-2.4 1.2-3.1 4.3-3.8 2.7-.7 4.2-.6 5 .2.7.7 1.3 5.6 1.5 11.6.3 8 .7 10.5 1.8 10.5 2.1 0 2.7-4.4 2.1-14-.5-6.5-.3-8.9.6-9.2.6-.3 6.2-.6 12.2-.7 11.6-.3 15.9-1.6 15.3-4.9-.5-2.7-6.5-4.1-18-4.1-12.5-.1-15.1-2-3-2.2 12.7-.3 13.5-.3 13.9-1.7.5-1.2-9.6-1.9-18.4-1.3-2.4.2-3.3-.2-3.3-1.3 0-2.2.7-2.4 12.5-3.1 11.7-.7 12.9-1 11.9-2.7-.5-.7-4.6-.8-12.5-.3-10.5.6-11.9.5-11.9-.9 0-1.2 1-1.6 4.4-1.6 5.3 0 7.6-.8 7.6-2.6 0-.9-1.5-1.2-5.7-1.1-5.6.2-5.8.1-6.1-2.5-.4-3.2 1.5-4.4 7.3-4.9 5-.5 5.9 1.4 1 2.1-4.9.7-4.9 2.3 0 3.1 7.1 1.2 11.4-4 6.3-7.5-2.8-2-9.3-2-13.3-.1zm-6 15.6c0 1.7-8.2 2.6-9.8 1-1-1-.6-1.1 5.8-2.4 2.9-.6 4-.2 4 1.4zm-1 12.9c.6.9-.6 1.2-7.5 1.4-4.8.3-4.4-.9.5-1.5 2.8-.3 5.3-.7 5.7-.7.4-.1 1 .2 1.3.8zm26.3 3.4c2.3.8 3 2.6 1 2.6-.7 0-5.9.2-11.6.5-9.4.4-10.3.3-10-1.3.2-1.3 1.7-1.8 6.8-2.2 7.9-.6 10.8-.5 13.8.4z"/><path d="M473.2 844.2c-1.6 1.6-1.5 3.3.3 4.8 2 1.7 4.7-.5 4.3-3.4-.4-2.4-2.8-3.2-4.6-1.4z"/></svg>