<svg version="1" xmlns="http://www.w3.org/2000/svg" width="666.667" height="1170.667" viewBox="0 0 500 878"><path d="M219.3 11.6c-.7 1.9.5 3.1 3.7 3.6 2.4.3 2.5.6 2.8 9 .3 8.7.3 8.8-2.1 8.8-3.2 0-5.2 2.3-3.4 3.9 1.7 1.3 40.5 1.2 41.4-.2.9-1.4-1.3-3-5.4-3.6l-3.8-.6v-17l3-.3c1.7-.2 3.6-.9 4.3-1.4 3.1-2.6-1.1-3.3-20.4-3.5-16.6-.1-19.6.1-20.1 1.3zm17 7.1c.3 2.1.4 6 .4 8.8-.2 4.3-.5 5-2.3 5.3-1.9.3-2.1-.3-2.7-7.3-.6-8.7-.2-10.5 2.3-10.5 1.3 0 2 1 2.3 3.7zm10.2 5.3c0 7.8-.2 8.5-2 8.5s-2-.8-2.3-7.4c-.3-8.6.1-10.4 2.5-9.9 1.6.3 1.8 1.5 1.8 8.8zM423.4 84.7c-.3 1-1.2 3-2 4.5-1.7 3.2-1.7 5.6 0 8.8 1.3 2.2 1.2 2.7-1 4.6-2.9 2.8-4 6.9-2.3 9 .9 1.1 2.2 1.3 5.1.9l3.8-.7v4.4c0 2.6.8 5.5 2 7.3 2.6 4 2.7 10.5.2 10.5-1 0-2.9 1.1-4.1 2.4-3.1 3.2-4.1 13.4-1.8 17 1.1 1.6 1.6 4.6 1.6 9.7-.1 4.1.3 12.8.8 19.4.8 11 0 40-1.2 43.4-.4 1-1.1.6-2.6-1.3s-3-2.6-5.6-2.6c-2.3 0-4.5-.9-6.5-2.5-4.3-3.6-5.6-3.2-6.3 1.9-1.1 6.8 1.6 12.6 5.7 12.6 1 0 1.8.4 1.8 1 0 .5-1.1 1-2.4 1-3.9 0-5.7 3.8-4.3 9.2 1 3.9 4 4.4 9.3 1.4 2.6-1.4 5.4-2.6 6.4-2.6 3.8 0 4.1 1.9 2.9 19.6-.8 11.4-1 30.5-.5 58.9.4 23.1.7 42.7.6 43.5 0 .8-.1 2.8-.1 4.4 0 1.6-.2 2.6-.6 2.2-1.4-1.3-3.3 1.9-3.3 5.6 0 8.5-4.6 11.8-13.6 9.8-2.2-.5-8.5-1.1-14.2-1.5-5.7-.3-11.1-1-12-1.5-.9-.5-2.5-1.1-3.5-1.4-1.6-.5-1.8-1.6-1.7-8.8.3-11.4 2.1-26.2 3.3-27 .6-.3 2.1-.2 3.4.3 2.8 1 4.3-1.2 2.3-3.6-.9-1.1-.9-1.8.3-3 .8-.8 1.7-2 1.9-2.6.2-.7 1.8-.2 4.1 1.4 3.3 2.2 4.2 2.4 7 1.5 3.9-1.3 5.7-2.7 5.7-4.2 0-1.4-5.7-7.6-9-9.7-1.9-1.3-2.2-1.9-1.4-3 1.6-2.1 3.7-13.3 2.9-15.8-1-3.4-3.7-2.5-9.2 3.3-3.5 3.6-5.4 6.5-5.8 8.9-.7 3.3-3.4 7.1-3.6 5.1-.6-5 .5-62 1.4-71.9 1.1-13.3 1.2-16.7.7-43-.3-15 .1-17.7 3.6-24.7 3.5-6.7-.1-14.8-6.7-14.8-1 0-1.9-.5-1.9-1 0-.6 2.6-1 5.9-1 5.3 0 6-.3 6.7-2.2 1.2-3.8-8.2-10.6-11.8-8.6-1.5.7-1.8.4-1.8-1.7 0-2.7-5.6-14-6.9-14-.4 0-2.1 1.6-3.8 3.5-3.8 4.3-5 9.1-2.9 11 2 1.6 1.1 3-1.8 3-5 0-6 4.2-2 8.9 2.7 3.3 6 3.9 9.6 2 2.9-1.6 3.2-.6.9 4-1.4 2.7-3.3 4.6-5.6 5.5-4.2 1.8-7.7 7.1-7 10.6.3 1.4.7 11.5 1 22.5.2 11 .9 23.6 1.4 28 .5 4.4.7 8.2.5 8.5-.7.6-3.6-1.4-4.5-3.1-.4-.8-1.1-3.2-1.7-5.4-1.8-7.2-4-12-5.4-12.3-.8-.2-2.7 1.6-4.2 3.9-2.6 3.8-2.8 4.7-2.1 10.5.8 7.3.6 8-1.6 7.6-.8-.1-3.1.8-5 2.1-6.7 4.5-2.7 12.3 6.2 12.1 3.3-.1 4 .2 4.5 2.1.3 1.2 2.1 3.8 4 5.6 2.4 2.4 3.4 4.2 3.4 6.4 0 2.5.6 3.5 2.6 4.4 2.5 1.1 2.6 1.5 2 5.9-.4 2.6-.9 21-1.2 41-.2 20-.6 36.8-.9 37.3-.4.5-2.5.9-4.9.9-3.2 0-4.8.6-6.6 2.5-2.4 2.5-5.8 2.8-8.4.6-1.6-1.3-18.4-8.3-30.6-12.8-5.2-1.9-10.4-4.2-11.5-5.2-6.2-5.5-20.1-8.4-31-6.4-4.8.9-11.1-.3-15.3-3-1.7-1.1-1.6-8.3.2-9 .8-.3 2-2.5 2.7-4.9.7-2.4 2.7-5.7 4.6-7.4 3.1-3 3.2-3.4 2.7-8.5-.4-3-1.3-6.4-2.1-7.7-.9-1.4-1.2-3.4-.7-5.6.5-2.9.2-3.7-2-5.1-1.4-1-2.6-2.3-2.6-3.1 0-2.7-7.4-9.2-11.9-10.4-2.4-.6-5.6-2.1-7.2-3.2-1.6-1.2-4.9-2.3-7.8-2.6-4-.4-5.9.1-10.5 2.4-3.1 1.5-5.6 3.4-5.6 4.1 0 .7-1.5 2.3-3.4 3.5-4.2 2.8-8.6 9.6-8.6 13.5 0 1.8-.9 3.8-2.1 4.9-3.6 3.3-4.3 5.3-2.3 7.5 1 1.1 2.1 4.5 2.5 7.7.8 5.4.6 5.9-2.1 9.3-5 6.3-4.8 6.6 6.6 6.9 1.2 0 2.9 1.2 3.9 2.6.9 1.4 2.7 3 4 3.6 3.3 1.5 2.2 2.8-2.3 2.8-2.1 0-5.3.8-7.2 1.9-1.9 1-7.1 2.8-11.4 4-9.6 2.7-18.4 8.5-21 13.9-1 2-2.8 6.4-4.1 9.7-3.7 9.9-16 33.9-22.1 43.3-7.3 11.1-8.2 14-7.3 24.5.8 8.6.3 42.8-.7 53.8-.3 3.5-.9 13.6-1.3 22.5-.5 12.7-1 16.6-2.4 18.7-1.9 2.9-2.3 8.7-.7 10.3.7.7.7 7.3-.1 20.5-1 16.9-1 19.8.3 22.4 1.3 2.5 1.6 10.7 1.7 52.2.2 27.1.1 49.3-.1 49.4-2.2.4-20.7 2.8-21.9 2.9-1.5 0-1.6-4-1.5-43.8 0-24-.3-56.5-.7-72.2-.8-28.6-.9-90-.3-169 .5-56.2.1-50.7 3.1-51.4 3.3-.8 4.8-4.1 4.2-8.7l-.5-3.8 5.6.6c10.3 1.1 10.7 1 10.4-1.2-.7-4.1-2.8-7-5.2-7.3-2.6-.4-5.3-2.2-3.2-2.2.7 0 2.1-.9 3.2-2 3.4-3.4 2.2-15-1.5-15-1.7 0-7.9 5.7-8.7 7.9-.6 2.2-6.5 2.4-6.9.3-.2-.9-.3-23.5-.3-50.2.2-63.3 1.9-134.7 3.3-138.3.6-1.6 1.1-5 1.1-7.7 0-4.4-.3-5-3.6-6.9-4.4-2.6-3.6-4.5 1.1-2.6 2.9 1.3 9.5 1.1 9.5-.2 0-1.5-6.7-8.3-8.2-8.3-1.6 0-1.8-.5-1.3-3.4.7-3.7-2.4-11.2-5.1-12.3-2.1-.8-4.3 1.4-5 5.3-.5 2.6-1.5 3.9-4.8 5.6-2.9 1.7-4.2 3.1-4.4 4.9-.4 3.6 2.3 6.2 5.7 5.4 4.2-1.1 4.3-1.1 4.8.2.3.7-.4 1.6-1.4 1.9-5.2 1.7-9.5 4-10.4 5.5-.6 1.2-.5 5.2.2 11.4 1 8.1.9 11.5-.6 21.8-1.4 10-1.7 17.5-1.4 41.2.4 28.5.4 29-1.6 28.7-5-.9-7-2.7-7.6-6.9-1-8.1-7.4-11.1-9.3-4.6-.7 2.7-1.4 3.3-3.8 3.3-1.8 0-4.1 1.2-6.3 3.2l-3.5 3.3 3 3.2c1.8 1.9 4.1 3.3 5.4 3.3 2 0 2.4.6 3 4.9.4 2.7 1.2 5.1 1.9 5.4 1.9.7 10.5-4 11.1-6.1.4-1.1.4-2.7 0-3.6-1-2.7 4.2-2.1 6.1.7 2.8 4.3 4 25 4 67.2 0 37.1-.4 51.8-2.5 91-.4 8.2-.6 40.6-.3 72 .6 70.3.4 171.5-.3 172.6-.2.4-.3 13.2-.2 28.3.2 15.1-.1 27.8-.5 28.3-.5.4-6.2.9-12.7 1.1-10 .3-13.2 0-20.2-1.9-10.1-2.8-18.4-2.9-30.3-.5-11.1 2.2-14.2 3.3-12.8 4.7.7.7 4.4.5 11.4-.7 13.1-2.2 19.6-2.2 28.4.1 4.8 1.2 11.5 1.8 21.2 2 7.7.2 14.6.6 15.2 1 .7.4.9 1.4.7 2.3-.3 1-.6 15.4-.7 32.2 0 16.8-.3 34.7-.6 39.8l-.5 9.2-2.2-2.2c-1.3-1.3-2.6-3.1-2.9-4.1-.5-1.3-1.5-1.7-3.4-1.5-3.6.4-4.1 2.6-.9 3.8 1.5.5 2.6 1.7 2.6 2.8 0 1.5.5 1.8 2.5 1.4 2.1-.4 2.5 0 2.5 1.9 0 1.7.3 2 .9 1 .5-.7 1.1-.9 1.4-.4.5.8 1 16.3.8 24-.1 1.6-1.1 2.7-3.6 3.7-1.9.8-3.5 2.2-3.5 3 0 3.2-3 4.6-10 4.6-8.9 0-11.7 1.1-13.5 5.4-.9 2.1-3.4 4.8-6.2 6.8-4.8 3.3-4.8 3.3-15.8 3.1-6-.1-13.9.3-17.5 1-5.5 1-6.5 1.5-6.8 3.4-.3 2.1-.1 2.2 3 1.5 1.8-.4 8.8-.7 15.4-.7 10.2 0 12.5.3 14.1 1.7 1.1 1 3.3 1.8 5 1.8 3.6 0 7 3.9 10.9 12.4 3.7 8.1 7.4 10 7.4 3.8 0-3-4.4-11.3-6.6-12.5-.8-.4-1.4-1.9-1.4-3.2 0-1.3-.4-2.7-1-3-.5-.3-1-1.3-1-2 0-3 4.5.3 7 5.1 2.1 4.1 3 4.9 5.3 4.9 3-.1 3.3.6 1.6 3.4-1.5 2.2-.4 8.5 1.8 10.7 1.3 1.3 1.4 1.7.3 2.4-1.1.7-1 1.5.5 4.4 1.5 2.8 2.6 3.6 4.7 3.6 3.5 0 3.6-1.6.2-6.5-1.7-2.5-2.2-4.1-1.5-4.8 1.4-1.4 5.7 1.6 6.6 4.5 1.5 4.9 4.4 6.8 10.4 6.8h5.6l-4.3-2.6c-2.5-1.5-5-4.1-6.2-6.4-1.1-2.2-3.3-4.6-4.8-5.4C70.7 862.3 64 851 64 848c0-2-5.9-9.8-9.5-12.6-3.6-2.7-4.4-4.4-2.2-4.4.7 0 2.6 1.8 4.3 4 3.6 4.9 6.4 5.3 6.4.9 0-2.4.3-3 1.6-2.5.9.3 1.8.6 2 .6 1 0 .2 2.9-1.1 4-.8.7-1.5 2-1.5 2.9.1 1.2.7.9 2.3-1.2 2.8-3.4 4.1-3.5 3.3-.2-.4 1.6 0 3.4 1 5 1.3 2 1.4 3.1.5 5.6-1.4 4-1.5 3.6 1 4.9 1.7 1 2 .9 1.7-.6-.5-3 1.9-2.6 3 .6.9 2.4.8 3-.4 3-2.7 0-1.4 1.9 2.6 3.6 3 1.3 4 2.4 4 4 0 2.5 2.1 4.5 2.8 2.6.2-.7.8-1.2 1.4-1.2.6 0 .7.7.4 1.6-.7 1.8 1.1 9.4 2.2 9.4.5 0 1.3-.5 2-1.2.8-.8 1.2-.9 1.2-.1s2.8 1.1 8 1.1c4.4 0 8-.3 8-.8 0-.4-1.8-2.4-4-4.4-2.3-2-3.8-4.1-3.5-4.6.3-.5-.1-.7-.9-.4-1.7.7-9.6-5.3-9.6-7.3 0-.7-.7-1.3-1.5-1.3-1.3 0-1.4-.4-.5-2 .8-1.6.5-3-1.5-6.7-1.4-2.6-2.5-4.4-2.5-3.9 0 .5-.9.1-2-.9s-2-2.4-2-3.2c0-.7-.3-1.3-.7-1.3-.5 0-2.3-2.2-4.2-5-1.9-2.7-4.2-5.2-5.2-5.5-1.1-.4-1.6-1.2-1.2-2.1.7-1.8 2.9-1.8 3.7.1.5 1.5 5.2 1.8 7.1.4.7-.5.9-7.9.6-21.1-.7-30.2-.6-58.5.2-128.3.4-34.7.8-83.9.8-109.5 0-25.6-.1-71.3-.1-101.5 0-30.3.2-59.5.5-65 2.3-45 2.8-62.3 3.1-99 .2-23.1.5-43.6.6-45.5.2-1.9 0-4.5-.4-5.8-.5-1.3-.5-4.2-.1-6.5l.6-4.1 1.3 4.5c.8 2.4 1.3 4.8 1.2 5.4-.1.5.2 2.2.6 3.8.5 1.5.4 3.3-.1 4-.6.7-1 8.6-.9 18.1l.1 16.9 3 1c3.9 1.3 4 1.4 2.5 3.2-.7.8-2.3 1.5-3.6 1.5-4.9 0-3.8 4.3 1.1 4.5 1.4.1 2.4.6 2.3 1.1-.2.5-.7.8-1.1.6-1.4-.4-4.7 1.9-4.7 3.4 0 .8 1.3 1.7 3 2.1 4.6.9 4.6 2.2.1 4.1-5.3 2.2-5.6 5-.5 4.6 3.3-.2 3.5-.1 3.2 2.4-.2 1.5-.9 2.7-1.7 2.7-.8 0-1.9.7-2.4 1.7-1.4 2.1.7 5 2.9 4.1 1.2-.4 1.5.1 1.2 2.8-.2 2-.8 3.3-1.5 3.2-1.8-.4-3.8 3.6-2.4 5 .5.5.7 2.3.4 4-.5 2.4-.1 3.3 1.8 4.8l2.4 1.9-2.4 1.9c-2.4 1.9-2.2 4.1.5 4.1 2.1 0 1.7 3.1-.5 3.7-3.1.8-3.4 3.2-.6 4.3 3.6 1.4 3.2 4.4-.7 5.5-3.8 1.2-4.3 3.6-1.1 5 2.9 1.2 3 2.9.3 2-1.2-.4-2.7-.1-3.5.5-1.2 1-1.2 1.6.3 3.8.9 1.5 2.1 3 2.6 3.4.6.4.3 1-.7 1.4-2.1.8-2.2 4-.1 4.8.8.3 2.6.3 4 0 1.4-.4 2.4-.2 2.4.5 0 .6-1.3 1.1-2.8 1.1-1.6 0-3.6.6-4.7 1.3-2.8 2.1-.9 3.9 3.9 3.5 3.5-.2 4.1 0 4.1 1.7 0 1.3-.8 2.1-2.2 2.3-4.7.7-5.4 5.2-.8 5.2 3 0 4.3 1.8 1.8 2.6-3.3 1-4.8 2.1-4.9 3.5 0 .8-.5 2.2-.9 3.3-.9 2 .8 3.6 3.8 3.6 2.7 0 1.5 2.4-1.4 2.8-1.3.2-2.8.8-3.3 1.2-1.3 1.3 1.3 4.1 3.5 3.8 2.5-.4 2.9 1.6.4 2-3.3.6-4 2-2.1 4.1 1.6 1.7 1.6 2 .1 2.8-2.3 1.3-.8 4.3 2.2 4.3 1.5 0 2.2.4 1.7 1.1-.3.6-1.5.9-2.5.6-2.1-.6-3.3 2-2.3 4.7.4 1.1 1.3 1.5 2.5 1.1 1.3-.4 1.9-.1 1.9.9 0 .8-.9 1.8-2 2.1-2.7.8-2.5 3.4.2 4.4l2.2.8-2.2 1.2c-2.7 1.5-2.9 4.1-.2 4.8 2.5.7 2.6 2.1.3 3-3.2 1.2-3.4 2.7-.7 4.9l2.6 2.1-3.1.6c-5.4 1.1-5 6.1.4 5.4 1.2-.1 2.1.5 2.3 1.5.2 1.2-.5 1.7-2.5 2-2 .2-2.9.9-3.1 2.5-.3 2.3.4 2.7 4.1 2.4 1.5-.2 1.7.7 1.7 6.1-.1 6.1-.1 6.2-1.5 3.6-2.2-4-5.5-2.8-5.5 2.1 0 2-.4 4.1-.9 4.6-.6.6-.7 2.9-.4 5.3.7 4.9 3.1 6.9 6.3 5.2 2.2-1.2 2.2-1.2 2.3 2.7.1 2.8 0 2.9-5.5 3.2-3.9.2-.9 5.3 3.2 5.5 2.5.1 2.6 2.1.1 2.1-1 0-2.5.6-3.5 1.4-1.5 1.3-1.5 1.5 0 3.2 1 1.1 1.4 2.7 1.1 3.9-.3 1.2 0 3.5.7 5.2 1.2 2.9 1.4 2.9 2.4 1.2 1-1.6 1.1-1.4 1.2 1.7 0 2.6-.6 4.1-2.1 5-2.4 1.7-1.7 4.9 1.2 4.9 2.3 0 2.6 3.2.4 5-1.9 1.6-1.9 3.4 0 5 2.2 1.9 1.8 3.7-1.2 5.2-3.8 1.9-3.9 4.6-.2 4.4 2.5-.2 2.9.1 2.9 2.4 0 1.4-.5 3.1-1.2 3.8-.9.9-.9 1.5 0 2.4 1.7 1.7 1.5 6.7-.3 7.4-2.1.9-1.9 3.2.5 3.9 2.4.7 2.6 3.7.5 5.5-2 1.6-1.9 3 .2 4.6 1.7 1.2 1.7 1.3-.3 1.4-2.5 0-4.9 2.4-3.9 4 .3.5 1.7 1 3.1 1 1.3 0 2.4.4 2.4 1 0 .5-.9 1-1.9 1-1.1 0-2.3.5-2.6 1-.9 1.5 1.4 4 3.5 4 1 0 2.1.7 2.4 1.6.9 2.5.8 2.7-1.8 2-2.7-.7-4.9 1.3-3.7 3.3.9 1.5-.5 4.8-3.2 7.5-1.5 1.5-1.7 4.1-1.6 22 0 19.3.4 23 2.5 22.5.5-.1 1.8.1 2.9.5 1.1.5 2.6 1 3.3 1.2 2.1.6 1.3 3.4-1.3 4.4-1.7.6-3.3.6-5-.2-1.4-.6-2.8-.9-3.1-.5-1 1 .6 2.7 2.6 2.7 1 0 2.2.4 2.5 1 .3.5 1.5 1 2.5 1 3 0 3.4 1.9.6 3-3.3 1.2-3.3 2.8-.1 4 1.4.5 2.5 1.4 2.5 2 0 2-3.2 2.3-6 .6-3.1-1.8-5.4-2.1-4.5-.6.3.6 1.5 1 2.5 1 1.1 0 2.5 1 3.1 2.2.7 1.3 1.9 2.8 2.7 3.4.8.6 1.2 1.6.9 2.2-.5.7-2.1.3-4.8-1-2.3-1-4.3-1.7-4.5-1.5-.8.7 2.6 3.7 4.1 3.7.8 0 1.6.9 2 1.9.3 1.1 1.2 2.2 2 2.5.8.3 1.5 1 1.5 1.5 0 1.3-5.5 4.2-7.1 3.9-.6-.2-1.3.2-1.6.8-.2.7 1.4 1.4 4.2 1.8 4.7.7 6.3 2.6 2.2 2.6-1.3 0-2.7.3-3.1.7-.4.5-1.2.8-1.7.8-2.2 0-.6 2.1 2.4 3.1l3.2 1.1-3.8 1.2c-3 1-3.7 1.7-3.2 3.2.4 1.1.2 1.9-.4 1.9-1.8 0-1.2 2.9.8 4 1.1.5 3.4 1 5.1 1 2.1 0 3 .4 2.7 1.2-.3.9-2.1 1.2-5.5 1-4.2-.3-5.3 0-5.8 1.3-1 2.4 1.3 3.5 7.4 3.5 3.8 0 5.2.4 5 1.2-.3.8-2.1 1.1-5.1.9-4-.2-4.6 0-4.1 1.4.8 2 3.6 3.5 6.8 3.5 1.9 0 2.6.5 2.6 1.9 0 1.7-.4 1.8-2.9 1.1-1.5-.4-3.8-1.3-5-1.9-2.2-1.2-2.9-.3-1 1.6.8.8.8 1.3 0 1.7-1.8 1.1-1.3 3.1 1.5 6.1l2.6 2.8-3.3-.7c-3.2-.6-3.2-.6-1.4 1.4 1 1.1 3.3 2.5 5.1 3.2 1.9.7 3.4 1.8 3.4 2.5 0 1.7-.4 1.7-5.2-.7-4.9-2.3-7.1-2.6-4.3-.4 1.7 1.2 1.8 1.7.7 3.5-1.2 1.8-1.1 2.3.7 3.6 3 2.1 2.7 4.3-.6 4.3l-2.8.1 2.8 2.2c3.3 2.8 3.4 3.5.4 3.9-2 .3-1.9.5 1.3 2.6l3.5 2.2h-3.1c-3 0-3.1.2-3.7 5.1-.4 2.9-.3 5.7.1 6.3.4.6.7 1.8.8 2.6.1.8.2 2.5.3 3.7.1 1.5 1.1 2.4 3.9 3.1 2.9.8 3.2 1 1.2 1.1-3.5.2-5.2 1.5-4.4 3.4.4 1 .1 1.7-.6 1.7-.8 0-1 .9-.6 2.4.5 1.9-.1 2.9-2.9 5-1.9 1.5-3.5 3.4-3.5 4.2 0 1.8 4.6 3.7 7.1 2.9 1.1-.4 1.9-.2 1.9.4 0 .6.7 1.1 1.5 1.1s1.5-.7 1.5-1.5c0-4.3 5.6.4 10.1 8.5 1.3 2.3 3 4 4 4s2.1.4 2.4 1c.3.5 2.4 1 4.6 1 4.3 0 4.6.4 2.4 2.6-2 2-.9 4.1 2.9 5.4 2.4.7 6 .7 12.7 0 15.9-1.8 22.7-1.2 34.4 3.1 8.7 3.2 24.5 12.5 24.5 14.4 0 1.2 1.6 1.5 7.5 1.5 4.1 0 7.5-.3 7.5-.7 0-.3-2.8-3.7-6.1-7.5-6.6-7.4-7.2-9.9-1.3-5.2 7.5 6 8.6 6.5 10.5 4.8 1.3-1.1 1.6-2.5 1.2-5-.3-1.9-.2-3.4.2-3.4 2 0 9.8 7.6 11.6 11.3l2.1 4.2-3.2-3.8c-3.3-3.9-6.6-4.8-7.7-2.1-.3.9.6 2.7 2.3 4.5 2.5 2.6 3.4 2.9 9.1 2.9 3.5 0 6.3-.3 6.3-.7 0-.3-1.1-3-2.5-5.8-1.5-3.3-4.8-7.4-8.7-11-3.5-3.1-5.6-5.3-4.8-4.9 1.8.9 11.3 7.6 12 8.5 1.9 2.4 9 3.9 9 1.9 0-.6 1-1 2.3-1 1.3 0 2.7-.4 3.2-.9 1.2-1.1 5.5.4 5.5 1.9 0 .6-.6 1.3-1.4 1.6-2.1.8-1.5 4.2.7 4.8 1 .2 2.1 1.4 2.4 2.5.3 1.2 1.4 2.1 2.4 2.1 2.3 0 2.5-2.6.3-3.8-1-.5-1.4-1.4-.9-2.1.5-.9 1.1-.7 2.2.8 1.8 2.6 3.3 2.7 3.3.2 0-2.1-3.3-3.3-6.8-2.4-1.3.3-2.2.1-2.2-.6 0-.6.7-1.1 1.5-1.1 2.4 0 1.8-1.9-1.6-4.7-1.6-1.4-2.6-3-2.2-3.4 1-1 5.3 0 5.3 1.2 0 .5 1.1 1.4 2.5 1.9s2.8 1.8 3.2 2.7c.3 1 1.5 2.6 2.7 3.6 1.9 1.6 1.9 1.8.5 3-1.9 1.4-3.7 6.3-2 5.3.6-.4 1.8-2.1 2.7-3.7.8-1.7 2-2.9 2.6-2.7 2.1.7 2 2.6-.1 4.7-2.4 2.4-1.4 2.8 1.5.6 2.5-1.9 4.4-1.9 4.4.2 0 1.5.1 1.5 1.9-.1 1.6-1.5 1.9-1.5 3.1-.1.7.9 2.9 1.5 5.1 1.5 4.3 0 4.8-.6 2.2-2.6-1-.7-1.5-1.6-1-2 1-1 5.7 1.6 5.7 3.3 0 .9 1.7 1.3 6.1 1.3 3.7 0 5.8-.4 5.4-1-.3-.5-1.1-1-1.6-1-2 0-7.6-4.5-7.2-5.8.5-1.4-1.3-1.6-2.2-.2-.4.6-1.1.8-1.6.4-.6-.4-.6-1.1.2-2 1.6-1.9.4-3-1.6-1.4-1.3 1-2.2.8-5.8-1.6-2.3-1.6-5.6-4.3-7.3-6.1-1.8-1.9-4.2-3.3-5.5-3.3-2.6 0-9.9-2.1-13.9-3.9-1.4-.7-3.3-2.6-4.3-4.2-2.4-4.2-6.1-3.7-6.5.8-.2 1.8-.5 3.3-.6 3.3-.2 0-2.6-2-5.2-4.5-8.1-7.4-13.7-5.5-6.3 2.1 3.6 3.7 4.1 4.6 2.9 5.4-.9.6-1.6.6-1.8 0-1.8-5.3-24.7-21.9-30.2-22-2.9 0-7 2.5-7 4.3 0 .6-1.2 2.1-2.7 3.3-2.2 1.7-2.5 2.5-1.6 3.5.9 1.1.8 2-.6 3.7-1.6 2.2-1.8 2.2-5.3.8-3.6-1.5-3.6-1.6-2.2-4.4 1.1-2.3 1.9-2.8 3.7-2.5 2.9.6 5.2-2 4.1-4.4-.4-1-.8-2.1-.8-2.5-.1-.3-.5-1-1-1.5s-.6-.3-.2.4c.9 1.7-.1 1.6-10.6-.6-4.8-1-9.2-1.5-9.9-1.1-2.3 1.5-.1 3.6 5 4.9 2.8.7 5.1 1.7 5.1 2.3 0 .5.9.6 2.1.3 1.8-.6 1.9-.5.7 1.4-1.3 2.2-9.1 5.1-13.5 5.1-2 0-2.2-.4-1.7-2.9.6-2.7.2-3.2-4.2-6-2.7-1.7-6-3.4-7.4-3.7-1.4-.3-5-1.4-8-2.4-6.9-2.3-8.8-2.6-12.4-1.7-3.6 1-6.6-1.5-6.6-5.5 0-3.9 4.1-5.6 17.2-6.8 10.3-1 11.3-1.4 12.4-5.7.6-2.2.8-2.2 23-2.2 20.3 0 22.8.2 27.1 2 6.4 2.7 20 2.4 23.3-.6 2.2-2 2.4-5.5.5-9.8-.6-1.4-.2-1.7 1.9-1.7 1.5 0 4-.7 5.7-1.5 2.8-1.5 3.1-1.5 5.9.7 1.8 1.4 2.9 3.3 2.9 4.9.1 1.4 1.2 3.8 2.6 5.3 2.4 2.6 2.9 2.7 8.3 2 3.1-.3 6.2-.9 6.7-1.3.6-.3 2.6-1.1 4.5-1.6 2.2-.7 3.6-1.8 3.9-3 .2-1.1 1-2.9 1.8-4l1.5-2-.6 2c-.9 3.2.8 4.9 4 4.1 1.6-.4 8.8-1.2 15.9-1.7 18-1.2 18.5-1.3 20.4-3.6 1.1-1.5 2.9-2.1 6.1-2.2 2.5 0 6.8-.6 9.5-1.2 6.7-1.4 19.7-.8 20.3 1 .3.9-.1 1.1-1.5.7-4.4-1.4-9.3-.9-11.6 1.1-1.8 1.6-2.9 1.8-5.7 1.2-5.7-1.3-15 2-10.4 3.8 1.6.6 1.6.7-.1 1.9-2.5 1.8-1.2 3 5.3 5 3.2 1 4.9 1.9 4 2.1-2 .5-2.3 1.8-.7 2.8.6.4 1.6-.1 2.4-1.1.7-1.1 1.7-1.5 2.1-1.1.5.4.2 1.2-.6 1.7-1.3.8-1.3 1.3-.1 3.2 1.2 2 1.2 2.4-.8 3.6-1.1.8-2.1 2.3-2.1 3.3 0 2.5-1.8 3.3-3.8 1.7-.9-.7-2.8-1.9-4.2-2.7-2.4-1.4-2.5-1.3-.8.6 2.6 2.8 2.2 3.6-1.2 2.8-2.6-.6-3-.4-3 1.4 0 1.2-.4 2.1-1 2.1-.5 0-1 1-1 2.2 0 2 .1 2 1.8.5 2.7-2.5 3.2-2.1 1.6 1.3-2.1 4.1-4 3.8-6.3-1-1.1-2.2-1.5-3.7-.9-3.4.5.3.4-.3-.4-1.5-.7-1.1-1.7-2-2.3-1.9-.5.1-2-.4-3.3-1.1-4.9-2.6-7 1.4-3.2 6.2 2.5 3.1 2.5 3.7 0 3.7-1.1 0-4.4-2.5-7.3-5.5-3.7-3.8-6.1-5.5-7.8-5.5-4.4 0-4.1 1.3 1.3 6.1 5 4.4 5.2 4.8 3.9 7.2-1.4 2.7-.8 6.1 1.7 8.9 1.7 2 3 2.2 5.2.8 1.2-.7 1.2-1.2 0-3.4-2.2-4.2-.2-4.2 4.1 0 3.5 3.4 3.9 4.3 3.4 7.1-.4 2-.2 3.3.5 3.3.5 0 1 .7 1 1.5 0 1.7-1.7 2-2.2.4-.3-.8-1.5-.6-4.1.4-2 .9-3.7 1.8-3.7 2.1 0 .8 10.3 7.4 14.1 9 1.9.8 5.2 3.3 7.4 5.5 3 3.1 4.7 4.1 7.1 4.1 4.2 0 6.4-.9 6.4-2.6 0-1.7-1.2-1.8-2.9-.1-1.1.9-1.3.9-.7-.1.4-.6.2-1.2-.3-1.2-1.7 0-1.3-1.9.9-4.7 2.6-3.3 2.6-4.7 0-3.1-1.1.7-2 1.8-2 2.4 0 .6-.7 1.8-1.6 2.5-1.4 1.1-2 .9-4.4-1.8-1.5-1.7-3.7-3.4-4.9-3.8-2.4-.7-2.9-4.5-.6-4.5.8 0 2 .9 2.7 1.9 1 1.7 1.4 1.8 3.4.5 1.2-.8 3.5-1.4 5-1.2 2.6.3 3-.1 3.8-3.5.8-3 1.3-3.6 2.9-3.1 1.2.4 3.2-.5 5.8-2.6l4-3.1 3 2.5c3.5 3 7.4 3.3 10.1.9 1.5-1.4 4.1-1.8 12-1.9 10-.2 10.1-.2 12.5 2.7 1.9 2.2 3.3 2.9 5.9 2.9 3.1 0 3.4.2 2.4 1.9-1.5 2.9-1.2 4.4.8 3.8.9-.2 2.3-.6 3.1-.8.9-.3 1.5.4 1.5 1.8.1 1.3 1.7 3.3 4.3 5.2 2.2 1.6 4.9 4.4 5.9 6 1.5 2.5 2.5 3.1 5.1 3.1 3.3 0 3.3 0 1.8-2.4-1.5-2.2-1.4-2.4.5-2.9 1.2-.3 2-1.3 2-2.6 0-2.3-5.6-9.1-7.4-9.1-1.8 0-4.6-3.3-4.6-5.5 0-1.7-.1-1.7-1.8-.2-2.3 2.1-3.9 2.2-2.2.2 1.1-1.3.9-2-1-4-1.3-1.4-2.1-2.8-1.7-3.1.8-.9 12.9 2.4 19.3 5.2 6.6 2.8 7.7 4.4 2.9 4.4-2.7 0-3.7.5-4.3 2.1-.7 1.7 0 3 3.6 6.4 4.3 4.2 4.4 4.4 2.8 6.6-2.8 4.1-1.8 5.5 1.4 1.9 1.6-1.9 2.9-3 3-2.3 0 .6-.4 1.5-1 1.8-.5.3-1 1.3-1 2.1 0 1 1.4 1.4 5.4 1.4 5.3 0 5.5-.1 6.1-3.2.6-2.6.3-3.4-1.6-4.9-1.3-1-2.9-1.9-3.6-1.9-2.1 0-2.5-2-.8-3.7 1.1-1.1 1.5-2.6 1.1-4.5-.3-1.5-.3-3.5.1-4.4.5-1.3 3.1.9 11.4 9.6 9.3 9.7 11 11.1 12.4 10 .8-.7 1.5-1.6 1.5-2.1 0-.8-4.6-5.9-19.3-21.6-6.4-6.8-7.7-8.6-6.7-9.8 2.2-2.6-10.7-10-14-8-1.9 1.1-1 2.5 2.6 4.2 2.9 1.4 3.2 1.8 1.7 2.4-1.1.4-2.9-.1-4.6-1.3-1.7-1.2-5.1-2.2-9-2.5-4.2-.4-6.9-1.2-8.4-2.6-4.6-4.1-7.4 1.3-3 5.7 1.9 1.9 3.2 2.2 6.8 1.9 5.3-.4 7.9.8 6.1 3-1 1.2-2.1 1.3-5.5.5-5.2-1.3-5.6-1.3-8.8-.5-2.2.6-2.9.1-4.7-3.1-1.5-2.8-1.8-4.2-1-5.5.8-1.5.3-2.5-2.7-5.3-2.4-2.2-4.5-3.4-5.9-3.2-3.3.5-3.1 3.5.5 6.9l3.3 3.1-2.4 1.9c-1.4 1-2.8 1.9-3.3 1.9-2 0-2.5-6.4-2-27.7l.6-23 9.6-.6c5.7-.3 11.3-1.2 13.9-2.3 4-1.6 4.3-1.6 6.2.1 1.6 1.5 2.3 1.6 3.3.6.9-.9.9-1.4-.3-2.2-3-1.9 4.7-6.1 8.7-4.7.4.2.6 1.9.5 3.8-.3 5.3 1.8 7.3 8.6 8.1 4.3.5 6.1.3 7.4-.8 1.4-1.3 1.9-1.3 4 .1 1.3.8 3.9 1.7 5.8 1.8 2.9.3 3.5 0 3.5-1.7 0-1.6-1.5-2.5-7.2-4.4-6.8-2.4-7.3-2.4-9.1-.8-4.2 3.8-6.3.7-6.2-9V769c-.3-12.5.3-33.7 1-38.5.5-3.3 1-16.4 1-29 .1-12.7.4-28.9.8-36.2l.7-13.1 2.4 1.9 2.4 2-2.2 1.5c-1.7 1.2-1.9 1.9-1.1 2.9 1.1 1.3 2.1 1.5 8.3 1.5 2.3.1 2.8.5 2.5 2.3-.2 1.5-1.1 2.3-2.8 2.5-1.4.2-2.9.8-3.4 1.2-1.4 1.4 1.3 4 4 4 1.5 0 2.4.6 2.4 1.5 0 1.7-1.3 1.9-5.7.6-2.5-.7-3.3-.6-3.8.7-.3 1 .1 2.1.9 2.8 2 1.4 2 2.4.1 2.4-2 0-2 6.7 0 10.7 1.9 3.8 1 12.7-1.1 11.9-1-.4-1.4.3-1.4 1.9 0 1.4.4 2.4.9 2.2.5-.1.9.2.9.8.1.5-.6.9-1.5.7-1.2-.3-1.4.1-.8 1.5.5 1 .8 3.2.7 5-.2 2.5.3 3.3 2 3.9l2.3.7-2.1.8c-1.8.6-2.3 1.9-2.9 8.4-.4 4.2-.4 7.9-.1 8.2.3.4.6-.5.6-1.8s.5-3.1 1-3.9c1.1-1.7 1.2-.8 1 11.3-.1 7 .1 7.8 1.7 7.5 2.4-.4 3 3.8.9 6.1-1.5 1.6-1.5 1.9.2 3.5 1.1.9 2.6 1.4 3.5 1.1 1.7-.7 3.2 1 2.2 2.5-.4.6-1.2.7-2.2.1-2.6-1.4-5.3-.1-5.3 2.5 0 1.5-.6 2.4-1.5 2.4-2.2 0-1.8 2.8.5 4 2.5 1.3 7.2.9 7.7-.6.2-.7-1-1.7-2.7-2.2-3.8-1.4-3.8-1.7.2-1.7 3.1 0 3.3.3 4.1 4.5.5 2.8.4 5.6-.2 7.2-.9 2.5-1.3 2.6-4.1 1.7-3-1.1-3.2-3.2-.3-2.7.9.2 1.8-.2 2-.9.5-1.4-6.4-4.6-8.3-3.9-1.8.7-.5 4.6 1.5 4.7 1.3 0 1.4.2.1.6-1.5.6-3 2.3-3 3.5 0 .9 10.2 3.8 13.4 3.8 1.8 0 2.6-.5 2.6-1.8 0-1 .4-2.2.8-2.8.5-.5.5-6.3.1-12.9-.8-12.8-1-59.7-.3-58 .2.6 10.1.9 27.2.8 23.4-.1 26.7-.3 27-1.7.4-1.8-1.4-2-23-1.7-9.7.2-13.8-.1-13.8-.9 0-.6 1-1.1 2.3-1 1.2.1 10.4.2 20.5.1 15.5-.1 18.4-.3 18.9-1.6.3-.9.4-1.7.2-1.9-.2-.2-13.8-.1-30.2.2-29.3.7-29.7.7-29.7-1.3 0-1.9.7-2 10.3-2 8.9 0 11.1-.4 17.1-2.8 5-2.1 7.7-2.7 10-2.2 6.6 1.4 12.7 1.6 15.7.6 2.1-.7 3.7-.7 5 0 1.6.8 1.9.6 1.9-1.1 0-2.9-4.2-4.7-7.5-3.2-3.6 1.7-9.2 1.5-14.1-.4-4.1-1.6-4.3-1.5-11.5 1.7-6.2 2.8-9 3.4-17.2 3.8-5.5.4-10.1.3-10.3-.1-.7-1.1-.3-22.7.6-36.3.5-7.2 1.2-24.7 1.6-39 .3-14.3.8-26.3 1-26.6.1-.3.4-8.4.5-18 .2-15.9.5-23 2.4-50.9.4-5.2.5-23.2.4-40-.2-16.8-.3-42.7-.4-57.7v-27.2l2.6-2.8c3.3-3.5 4.2-8 4.3-21.3.1-10.3.1-10.5-2.5-11.7-2.6-1.3-2.6-1.5-3.1-13.7-.7-17-.4-18.2 4.3-20.7 2.1-1 4.6-3 5.5-4.4 1.1-1.7 2.6-2.5 4.4-2.5 2.7 0 6-2.6 6-4.8 0-.6-1.2-2-2.7-3.2-2.4-1.9-2.7-2.8-2.8-8.3 0-5.5-.2-6.2-2.1-6.5-3.4-.5-7.4 3.4-7.4 7.3 0 2.5-.6 3.8-2.1 4.5-1.1.7-2.3 1-2.5.8-.2-.3 0-4.2.5-8.9.6-5.8.5-8.8-.3-9.8-.7-1-1-7.8-.8-21 .1-10.8.5-34.5.7-52.6.4-34.5 1.1-56.5 2.1-67.5.5-6 .3-6.9-2.4-11.1-2.2-3.4-4.1-5-6.9-5.9-4.6-1.6-5.3-2.4-5.3-7.3 0-2.1-.7-5.1-1.5-6.7l-1.6-3h3.4c5.9 0 9-6.3 4.7-9.3-2-1.4-1.9-1.4.5-2.5 1.3-.6 2.8-2.3 3.1-3.8.9-3.7-3.2-7.4-8.2-7.4-2.9 0-3.4-.4-3.4-2.3 0-3.1-4.2-10.1-6.3-10.5-1-.2-1.9.4-2.3 1.5zm3.6 9.9c0 1.4-.4 2.3-1 1.9-.5-.3-1-1.5-1-2.6 0-1 .5-1.9 1-1.9.6 0 1 1.2 1 2.6zm11.5 7.4c0 .8-.8 1.6-1.8 1.8-2.1.4-4.9-1.6-4.1-3 .9-1.5 5.9-.5 5.9 1.2zm-2.5 6.5c0 .2-.9.9-2 1.5-1.6.9-2 .8-2-.5 0-.8.9-1.5 2-1.5s2 .2 2 .5zm2 5.5c0 .5-.4 1-1 1-.5 0-1-.5-1-1 0-.6.5-1 1-1 .6 0 1 .4 1 1zm-335.5 5c.3.5-.1 1-1 1s-1.3-.5-1-1c.3-.6.8-1 1-1 .2 0 .7.4 1 1zm-13.8 24c-.2 8.3-.7 15.3-1 15.7-.4.3-.7-.9-.7-2.8s-.7-5.6-1.5-8.3c-.9-2.8-1.3-6.4-.9-8.2.3-1.8.1-3.5-.5-3.8-1.4-.9-1.4-5.6-.1-5.6.6 0 1.4 1 1.9 2.2.8 2.2.9 2.1 1.5-1 .4-1.7 1-3.2 1.2-3.2.3 0 .3 6.8.1 15zm4.3-12c0 .5-.4 1-1 1-.5 0-1-.5-1-1 0-.6.5-1 1-1 .6 0 1 .4 1 1zm4.8 10.1c-1.4 4.1-2.8 3.6-2.8-.9 0-4.6 1-5.9 2.6-3.7.9 1.2 1 2.5.2 4.6zm-4.8-1c0 1.6-.4 2.9-1 2.9-.5 0-1-1.6-1-3.6 0-2.1.4-3.3 1-2.9.6.3 1 1.9 1 3.6zm339.3 8.3c-.3 4.1-.2 6.8.3 6.3 1-.9 1.1-1.4 1.3-5.2 0-1.4.6-2.5 1.1-2.5 1.4 0 1.3 6.3-.2 7.8s-2.1 10.9-.8 11.7c.6.3 1 3.3 1 6.5s.3 6.5.6 7.4c.5 1.4.8 1.4 3-.1 2.2-1.4 2.4-1.4 2.4.4 0 1 .5 2.4 1.1 3 .7.7.3.9-1.5.6-2.3-.5-2.6-.2-3.2 3.6-.4 2.3-1 4.1-1.5 4.1-1.7 0-3.1 4.1-1.9 5.5 1.4 1.6.5 3.5-1.6 3.5-1.1 0-1.4-2.1-1.6-10.8 0-5.9-.3-12.1-.5-13.7-.2-1.7-.4-7.1-.4-12 0-6.3-.5-9.7-1.5-11.3-1.4-2.2-1.4-2.6.2-4.3 1.5-1.7 1.6-2.4.6-3.9-1.5-2.5-1.5-4.3 0-5.8 2.4-2.4 3.7 1.4 3.1 9.2zm11.7.4c0 1.5-.5 3.4-1 4.2-.7 1.1-1 .2-1-3.3 0-3 .4-4.6 1-4.2.6.3 1 1.8 1 3.3zm-77 6.3c0 1.7-2.2 2.1-3.7.6-1-1-1.3-2.2-.8-3.8l.8-2.3 1.8 2.3c1.1 1.3 1.9 2.7 1.9 3.2zm-279 9.5c0 2.5 2.4 3.1 2.6.6.1-.7.2-1.5.3-1.8.2-1 3.5 3.7 4.9 6.9 2.2 5 1.4 6.1-1.9 2.8-4.4-4.5-8.2-4.2-10.3.6l-1.6 3.8.3-4.5c.1-2.7.6-4.4 1.3-4.3.7.1 1.5-1.3 1.8-3.2.8-4.1 2.6-4.7 2.6-.9zm289.5-.6c.3.5-.3 1-1.5 1s-1.8-.5-1.5-1c.3-.6 1-1 1.5-1s1.2.4 1.5 1zm-16 2c1.1 1.8-.5 3.1-2.6 2-1.1-.6-1.7-1.5-1.4-2.1.8-1.2 3.2-1.2 4 .1zm15 12c.4.6-.7 1-2.4 1-2.1 0-3.1.5-3.1 1.5 0 1.3-3.7 4.1-4.5 3.3-.2-.2.7-1.8 2.1-3.6 2.5-3.2 6.6-4.3 7.9-2.2zM96.2 188.2c-.5 2.1-1.5 3.4-2.8 3.7-1.8.3-1.8.2-.1-1.6.9-1.1 1.7-2.9 1.7-4 0-2.2 1.3-4 1.8-2.5.2.6-.1 2.5-.6 4.4zm265.3 5.7c.4 3.9.4 7.4.1 8-1.1 1.8-1.4 13.4-.4 16.3.8 2.3 1.3 2.6 2.4 1.7 1.1-.9 1.4-.6 1.4 1.6 0 2-.4 2.6-1.5 2.1-2-.7-1.9 2.2 0 4.8.8 1.1 1.5 3.4 1.5 5.1 0 3 .2 3.2 4 3.1 2.6-.1 4 .3 4 1.1 0 .7-.9 1.3-2 1.3-2.8 0-3.6 2.7-1.6 4.9 1.2 1.3 1.4 2.1.7 2.6-1.6.9-1.3 3.6.4 4.9 1.2.8 1.4 2.2.9 5.8-.4 2.7-1.1 4.8-1.5 4.8-.5 0-.9-.5-.9-1.1 0-.8-.5-.7-1.6.2-.9.7-1.4 2.2-1.1 3.6.3 1.5-.2 2.7-1.2 3.3-1.4.8-1.4 1.2-.2 3.1 2 3.4 2.1 6.7 0 7.2-2.1.6-1.9 5.5.2 6.8.8.4 2.3 1.4 3.4 2.2 1.9 1.4 1.8 1.5-.8 1-3-.6-4.8 2-2.8 4 1.5 1.5 1.4 4.2-.4 5.7-1 .8-1.5 3.1-1.5 6.6 0 3-.4 5.4-.9 5.4s-1.2 1.9-1.5 4.2c-.7 4-.8 4.2-2.2 2.4-1.6-2.3-1.8-15.4-.4-28.1.5-4.4 1.2-11.5 1.6-15.7.7-7.8 2-11.6 3.1-8.9.4.9 1.2.1 2.4-2.4 1.1-2.3 1.5-4.3 1-5.2-.4-.8-.5-3.3-.1-5.5s.6-5.7.3-7.8c-.5-3.3-.8-3.7-3.5-3.8-1.7 0-3.3-.4-3.7-.7-.8-.9-1.8-37.2-1-41 .3-1.7.3-3.9-.1-5-.8-2.1.4-5.5 1.9-5.5.5 0 1.2 3.1 1.6 6.9zm6.5-5.9c0 .5-.4 1-1 1-.5 0-1-.5-1-1 0-.6.5-1 1-1 .6 0 1 .4 1 1zm0 9.7c0 1.9-.3 2.4-1 1.7-.6-.6-.8-1.8-.4-2.7.9-2.4 1.4-2.1 1.4 1zm-273 .4c0 .5-1 .9-2.1.9-1.8 0-1.9-.2-.9-1.5 1.2-1.5 3-1.2 3 .6zm-11 2.8c0 .6-.4 1.3-1 1.6-.5.3-1-.1-1-.9 0-.9.5-1.6 1-1.6.6 0 1 .4 1 .9zm349.4 6.4c-.4 2.2-.1 2.9 1.6 3.5 2.1.8 2.1.8-.5 2-3.3 1.5-3 4.3.5 5.3 2.3.6 2.3.7.3.8-1.2.1-2.8.4-3.7.7-1.4.5-1.5-.4-1-7.2.3-4.4.8-8.6 1-9.4.9-2.6 2.5 1.2 1.8 4.3zm-337.8 1.4c-1.1 1.1-1.9-.6-1.1-2.4.8-1.7.8-1.7 1.2 0 .3 1 .2 2.1-.1 2.4zm-6.7 11.5c-.4 12 .1 13.8 3.2 13.8 1 0 1.9.4 1.9 1 0 .5-.9 1-1.9 1-3.1 0-5.1 1.1-5.1 2.8 0 1.5-.2 1.5-1.5.1-1.2-1.1-1.7-4.5-2-13.3-.3-11.2-.3-11.7 1.6-11.1 1.6.5 1.9.1 1.9-2.4 0-1.7.5-3.1 1.1-3.1.7 0 1 3.6.8 11.2zm5.9.5c-.4 8.3-2.4 9.7-3 2.1-.5-6.5 0-8.8 1.9-8.8 1.1 0 1.3 1.4 1.1 6.7zM442 219c0 .5-.2 1-.4 1-.3 0-.8-.5-1.1-1-.3-.6-.1-1 .4-1 .6 0 1.1.4 1.1 1zm-3.9 5c3.6 0 4.9.4 4.9 1.4 0 1.1-1.2 1.5-3.9 1.4-2.2 0-4.3.2-4.9.6-1.2.7-1.4 15.3-.3 16.1.5.3.9 2.7.9 5.5.1 3.7-.3 5-1.4 5-1.9 0-1.8 2 .4 3.6 1.5 1.1 1.5 1.6.4 3.4-1 1.6-1 2.5-.2 3.5.8.9.7 1.4-.5 1.9-1.7.6-2 4.2-.4 5.1.8.6.8 5.6 0 9.2-.1.1-.7 0-1.5-.3-1.7-.6-2.8 4.1-1.6 7 .9 2.2 1.4.9 1.1-2.7-.1-.9.3-1.7.8-1.7 1.4 0 1.4 7.7.1 8.5-1.7 1 .8 4.5 3.3 4.5 1.2 0 2.9.5 3.7 1 1.1.7.3 1-3 1-5.2 0-7.6 1.6-5.9 3.7.7.7 2 1.3 3.1 1.3 1 0 1.6.4 1.3 1-.3.5-1.7 1-3.1 1-2.7 0-2.8.3-1.4 3.1.6 1 2.1 1.9 3.3 1.9 1.8.1 1.6.3-1.1 1.5-3 1.3-3.3 1.8-2.7 4.4.4 1.7.1 3.8-.6 4.9-1.1 1.7-.9 2.8.7 6.3 1.2 2.8 1.8 5.9 1.6 8.7-.3 3.3 0 4.7 1.5 5.7 1.7 1.3 1.7 1.4-.2 2.9-1.8 1.3-1.8 1.7-.6 3.7 1 1.7 1 2.4.2 2.7-.6.2-1.1 1-1.1 1.8 0 .9.5 1.2 1 .9.6-.4 1.6-.2 2.3.3.7.6 2.5 1.2 4.2 1.4 2 .2 3.1.9 3.3 2.2.4 1.6 0 1.8-2.7 1.3-3.6-.8-6.1 0-6.1 1.8 0 .7-.7 1.8-1.5 2.5s-1.5 2.5-1.5 4.1c0 1.5-.5 3.1-1 3.4-.7.5-1-1.3-.9-5.2.1-3.2-.2-17.1-.8-30.8-.9-23.2-.8-43.7.2-64.5 1-22.2 2.3-46.5 2.4-46.9.1-.2.8 0 1.7.3.9.3 3.8.6 6.5.6zm-28.1 3c0 .5-.4 1-1 1-.5 0-1-.5-1-1 0-.6.5-1 1-1 .6 0 1 .4 1 1zm-351.9 2.5c0 .5-1.2 1.1-2.6 1.3-1.8.2-2.5-.1-2.5-1.3s.7-1.5 2.5-1.3c1.4.2 2.6.7 2.6 1.3zm314.9 2.2c0 1.3-.3 1.3-1.5.3-.8-.7-1.2-1.6-.9-2.1.8-1.3 2.4-.1 2.4 1.8zm51 3.9c0 4.2-.1 4.5-2.2 3.9-1.3-.4-3-1.4-3.8-2.2-1.3-1.3-1.2-1.7 1.5-3.9 1.7-1.3 3.3-2.4 3.8-2.4.4 0 .7 2.1.7 4.6zm-358.4 3.3c-.8 1.3-3.6 1.5-3.6.3 0-.4.5-1.3 1.2-2 1.4-1.4 3.4 0 2.4 1.7zm377.7 1.4c-.3 1.7-.9 2.4-1.3 1.7-.9-1.5 0-6.4 1.1-5.3.4.4.5 2.1.2 3.6zm-3.6-.1c-.3.8-.6.5-.6-.6-.1-1.1.2-1.7.5-1.3.3.3.4 1.2.1 1.9zm-95.5 2.2c.7 3.3-.7 5.5-1.5 2.4-.9-3.2-.8-4.8.2-4.8.5 0 1.1 1.1 1.3 2.4zm68.6-1.2c-.5 1.6-4.8 2.4-4.8 1 0-1.1 1.7-2 3.8-2.1.8-.1 1.2.5 1 1.1zm-320.4 7.9c-.9 1.5-3.4 1-2.8-.5.3-.8 1.2-1.2 2-.9.8.3 1.1.9.8 1.4zm351.3-.7c.8.7-2.3 3.6-3.9 3.6-.9 0-1.1-3.4-.2-4.2.7-.8 3.1-.4 4.1.6zm-92.6 6.7c1.1.5 1.7 1.4 1.4 2-.7 1.1-4.5-.7-4.5-2.1 0-1.3.7-1.3 3.1.1zm12.3-.3c.2.4 0 1.4-.5 2.2-.8 1.3-1 1.3-1.8 0-1-1.5-.6-3 .9-3 .5 0 1.1.4 1.4.8zm-25.8 3.3c.3.6-.1 1.8-.9 2.7-1.4 1.3-1.8 1.3-3.2.2-1.6-1.3-1.5-1.5.1-2.7 2.2-1.6 3.1-1.6 4-.2zm103.4 1c0 1.5-.4 1.9-1.6 1.5-.9-.3-2-.6-2.5-.6-1.6 0-1-1.8.9-2.3 3-.8 3.2-.7 3.2 1.4zm-88.2 2.9h3.3l-.5 6.7c-.3 3.6-.8 6.9-1.1 7.2-.3.3-2.3-1.3-4.5-3.4-2.6-2.7-4.1-5.3-4.6-7.9-.7-3.8-.6-3.9 1.7-3.3 1.3.4 3.9.7 5.7.7zm-259.2 4.2c.1 1.5-.3 3.3-.7 4-.6.9-.9.7-.9-.9 0-1.2-.7-2.8-1.5-3.7-2.1-2.1-1.9-2.8.8-2.4 1.6.2 2.2 1 2.3 3zm346.9-.2c1.8.8 1.7.9-.7.9-1.6.1-2.8-.4-2.8-.9 0-1.2.8-1.2 3.5 0zm.5 8.5c0 1.6-3.5 2.1-4.4.6-.8-1.2.4-2.1 2.6-2.1 1 0 1.8.7 1.8 1.5zm.8 8.8c.3 1.2-.4 1.7-2.1 1.7-2.9 0-3.7-.7-3-2.6.7-1.8 4.7-1.1 5.1.9zM92 285.9c0 1 .7 2.4 1.5 3.1 2 1.6 1 3-2.2 3-2.1 0-2.4-.3-1.9-2.3.3-1.2.6-3.2.6-4.5 0-1.3.4-2 1-1.7.6.3 1 1.4 1 2.4zm113.2 7.3c-.6.6-1.5.8-1.9.4-.4-.4-.1-1.1.7-1.6 1.9-1.2 2.7-.3 1.2 1.2zm40.3 9.6c-6.3 6.1-33.6 13-46.4 11.8-6.9-.6-9.6-2.1-8.1-4.6.8-1.2 1.1-1.2 2.8.3 2.5 2.3 17.3 2.3 25.1.1 11.6-3.4 20.7-6.6 24.1-8.3 5.1-2.7 5.9-2.5 2.5.7zm-40.5-.4c0 1.6-1.8 3.1-2.7 2.2-.8-.8.5-3.6 1.7-3.6.5 0 1 .6 1 1.4zm164.5.6c-.3.5-1 1-1.6 1-.5 0-.9-.5-.9-1 0-.6.7-1 1.6-1 .8 0 1.2.4.9 1zm88.5 5c0 .5-.5 1-1.1 1-.5 0-.7-.5-.4-1 .3-.6.8-1 1.1-1 .2 0 .4.4.4 1zm-91 2c0 .5-.4 1-1 1-.5 0-1-.5-1-1 0-.6.5-1 1-1 .6 0 1 .4 1 1zm75 0c0 .5-.8 1-1.7 1-1.5 0-1.6-.2-.3-1 1.9-1.2 2-1.2 2 0zm-193.8 9.3c-.9 1.8-2.1-.9-1.5-3.3l.7-2.5.6 2.5c.4 1.4.5 2.9.2 3.3zm193.5-2.1c-.3.8-.6.5-.6-.6-.1-1.1.2-1.7.5-1.3.3.3.4 1.2.1 1.9zm-8.1 1.5c-1 1-1.9-.5-1-1.8.6-1.1.8-1.1 1.2 0 .2.7.1 1.5-.2 1.8zm-45.8 1.5c-1.4 4.4-2.6 5.5-3.4 3.5-.6-1.8 2-6.7 3.6-6.7.5 0 .4 1.4-.2 3.2zm-27.2.7c-.3.4 1.6.7 4.2.6 3.8 0 4.7.4 5 1.8.3 1.5 0 1.7-1.5.9-2-1.1-6.3.1-6.3 1.7 0 .5 1 1.3 2.2 1.7l2.1.6-2.3 1.8c-2.1 1.5-2.2 2-1.1 3.4.7.9 2.6 1.6 4.2 1.6s2.9.4 2.9 1c0 .5-.8 1-1.9 1-1 0-2.5 1-3.3 2.1-.8 1.3-2.4 2.1-4.1 2.1-2.3 0-2.7.4-2.5 2.2.2 1.7 1.1 2.2 4.6 2.4 3.7.3 4.4 0 4.9-1.7.7-2.7 3.3-2.7 3.3-.1 0 1.3-1 2.4-2.7 3-4.5 1.6-5.8 2.7-5.5 4.3.1.9-.7 2.1-1.9 2.7-1.9 1.1-2.1 1.8-1.5 5.8.7 5.6 3 8.2 6.8 8.2 1.9 0 2.8.4 2.6 1.2-.3.7-1 1.4-1.6 1.4-.7.1-1.9.2-2.7.3-2.1.1-3.1 3.1-1.4 4.2.8.4 2.4.6 3.6.2 1.9-.4 2.3-.1 2.3 1.6 0 1.4-.6 2.1-1.9 2.1-4.7 0-6.7 3-3.9 5.8.8.8.9 1.2.1 1.2-1.7 0-1.1 32.9.7 34 1 .6.7 1.1-.9 1.9-2.5 1.4-2.8 3.9-.5 4.8 1.3.5 1.2.8-.6 2.5-1.5 1.4-1.8 2.3-1.1 3.6.5 1 .9 2.4.9 3.2-.3 4 .4 6.1 2.4 8 1.9 1.7 1.9 2 .5 2-1.1 0-2 1.1-2.3 3-.4 1.6-1.1 3-1.5 3-.5 0-1.8 1.4-2.8 3-1.6 2.7-2 2.9-3.1 1.5-.7-.9-1-2.8-.6-4.7.7-4.3 1.1-44.2.4-45.4-.3-.5-.2-9.5.3-19.9.5-10.5 1.1-27.1 1.5-37 1-27.3 1.5-31.2 3.5-29.9.5.3.7.9.5 1.3zm91.2 1.1c1.9 0 1.4 1.8-1 3.4-3.3 2.3-3.8 2-3.8-2.6 0-3.9.1-4 1.8-2.5 1 1 2.4 1.7 3 1.7zM114 329.6c0 2.4-.4 3.4-1.2 3.2-2.4-.8-2.2-6.8.2-6.8.5 0 1 1.6 1 3.6zm256-.6c0 .5-.4 1-1 1-.5 0-1-.5-1-1 0-.6.5-1 1-1 .6 0 1 .4 1 1zm22.8 5.2c1.6 1.6 1.5 2.8-.3 2.8-.8 0-1.5-.2-1.5-.4s-.3-1.1-.6-2c-.7-1.9.7-2.1 2.4-.4zm44.2-.2c0 .6 1.1.8 2.5.4 2.8-.7 3.5 1 .9 2-2.3.9-5.4-.2-5.4-2 0-.8.5-1.4 1-1.4.6 0 1 .5 1 1zm-57 3c0 1.2-2.8 2.5-3.6 1.7-.9-.9.6-2.7 2.2-2.7.8 0 1.4.5 1.4 1zm-159 2c-.6 1.1-1.5 1.8-2.1 1.4-.6-.4-.6-1.1.2-2 1.7-2.1 3.1-1.7 1.9.6zm15.4 1.6c1.1 2.9.6 6.2-1 6.8-.9.4-5.6.9-10.5 1.3-9.6.7-9.2.9-10.3-5.5-.3-1.8-.1-3.2.4-3.2.6 0 1 .7 1 1.5s.3 1.5.8 1.6c.4 0 1.8.3 3.2.6 5.3 1 7.9.5 11.2-2 3.9-3.1 4.4-3.2 5.2-1.1zm-134.9 8.6c.5 4.9.4 5.8-.9 5.8s-1.6-1.3-1.6-6.7c0-7.9 1.5-7.4 2.5.9zm-6.7-3.4c.2.7-.4 1.5-1.3 1.8-2 .8-2.7.1-1.9-2 .7-1.8 2.5-1.7 3.2.2zm118.9 8.4c.9.7 4 .7 9.5-.1 14.3-2 15.8-2.1 15.8-1.4-.1.5-1.5 1.7-3.3 2.8-4.3 2.7-13 15.4-16.2 23.6-1.4 3.6-2.8 9-3.1 12-1.1 12-1.2 12.1-4.5 11.4-5.4-1.2-8.2 3.7-3.2 5.6 2 .8 2.4 1.2 1.4 2.2-.7.7-1.6 1.3-2.2 1.3-.5.1-1.3.2-1.9.3-2.1.2-1 4.2 1.5 5.1 1.4.5 2.5 1.2 2.5 1.5 0 .3-1.1 1-2.5 1.5-3 1.1-3.2 2.6-.5 4 2.9 1.5 2.5 3.7-1.1 5.5-3.4 1.8-3.4 3.5-.1 5 2.9 1.3 2.8 2.5-.2 2.5-1.3 0-2.9.7-3.6 1.5-1.7 2 .2 4.3 3.8 4.7 4.3.5 3.4 3.2-1.3 3.8-5 .6-5.3 2.9-.8 5 1.8.8 3.3 1.8 3.3 2.2 0 .8-2.3 1.2-4.8.9-.8-.1-2 .3-2.8 1-1.3 1-1.2 1.4.2 3 1 1.1 3 1.9 4.6 1.9 1.8 0 2.8.5 2.8 1.5s-.8 1.5-2.2 1.4c-4.5-.4-6.9.1-7.5 1.7-.8 2.2 2.3 4.9 5.7 4.9 4.8 0 3.4 1.8-1.5 2.1-2.5.1-4.8.4-5.2.7-1.4 1.5 1 3.8 5.2 4.8 6.1 1.5 5.7 2.9-.9 2.9-6 0-7.3.9-5.6 4 .8 1.5 2.1 2 5.5 2 2.5 0 4.5.4 4.5 1 0 .5-2 1-4.5 1-3.2 0-4.7.5-5.1 1.5-1 2.5 1.6 4.5 5.7 4.5 2.1 0 4 .4 4.3.9.9 1.3-1.4 1.9-5.1 1.3-2.4-.3-3.4 0-3.9 1.2-1 2.5 1.5 4.6 5.2 4.6 1.9 0 3.4.4 3.4.9 0 .6-1.6.7-3.5.4-4.6-.7-6 2.1-2.5 4.7l2.4 1.8-3.9 1c-2.2.6-5.7 1.3-7.7 1.7l-3.8.6-.1-3.8c-.6-30.4-.3-74 .7-85.5.7-7.9 1.3-17.9 1.3-22.4.1-7.4 2.1-23.8 3.7-29.2.7-2.4-1-5.2-3.2-5.2-3.9 0-6.5 13.1-7.1 36-.7 29.9-.8 87.5-.2 99 .5 11.1.4 12.7-1.1 14-1 .8-2.3 2.5-2.9 3.7-.7 1.3-1.8 2.3-2.6 2.3-.9 0-1.5-1-1.5-2.3 0-1.2-.2-25-.5-53-.2-27.9-.6-51.1-.9-51.5-.5-.8.9-12.4 1.9-15.7.4-1.4 0-2.7-1.3-3.8-1.6-1.5-2.1-1.5-3.8-.3-1.8 1.4-1.9 3-1.9 35.8 0 18.9.3 47.1.6 62.8.6 27.2.5 28.7-1.3 31l-1.9 2.3-3.8-2.1-3.8-2.2-3.7 2.5-3.7 2.5.2-24.8c.1-19.5-.1-25.3-1.2-27-3.3-5.2-6.9-.7-5.8 7.2.8 6 1.2 24.2 1 43.8l-.1 12.7-4.7 2.1c-4.5 2-4.8 2-6 .3-3.3-4.5-4.2-17-2.4-32.8 2.2-18.2 4.2-67.8 2.9-70.6-1.2-2.7 2.9-13.3 8.6-22.2 3.1-4.7 5.6-8.8 5.6-9.1 0-.7 7.7-16.5 12-24.6 1.6-3 2.9-6.1 3-6.8 0-2.4 4.2-9.7 6.9-12 3.6-3.1 8.8-5.8 13.9-7.1 3.5-1 4.6-.9 6.4.3 2 1.4 2.4 1.4 4.5-.6 4.6-4.3 16.5-6.4 20-3.6zM244 361c-3.5 2.8-5.8 2.6-4.7-.4.6-1.5 6.7-3.7 7.7-2.9.3.3-1.1 1.7-3 3.3zm197 3c0 .5-.9 1-2 1s-2-.5-2-1c0-.6.9-1 2-1s2 .4 2 1zm-205.6 6.6c-4.9 6.9-7.4 11.7-8.2 16.1-.6 2.6-1.9 8.2-3 12.5-1.2 4.2-2.6 13.8-3.2 21.4-.6 7.6-1.3 14-1.5 14.3-1 1-1.7-1.1-2.7-8.2-1-6.9-.9-7.9 1.7-15.3 1.4-4.3 3.1-11.3 3.6-15.4 1.4-11.5 4.2-18.8 9.4-24.5 4.6-5 7.2-5.6 3.9-.9zm212.1-1.6c.3.5-2.3 2.2-5.8 3.8-7.4 3.4-8.8 4.9-6.2 6.8 1.5 1.1 2.3.9 5.6-1.2 2.1-1.3 4.5-2.4 5.3-2.4 2.4 0 .8 2.4-2.9 4.4-1.9 1-4.4 2.9-5.6 4.2-2.1 2.2-2.1 2.5-.6 4.2 1.1 1.1 1.3 2.2.7 3.2-.5.9-.5 1.9.2 2.7.8 1.1 1.7.9 4.4-.8 1.9-1.1 3.4-1.7 3.4-1.2 0 1.7-5.5 6.2-10 8.2-5.4 2.5-7 2.6-7 .6 0-2.8-4.4-2.2-7.5 1.1-1.2 1.3-2.5 2.4-2.8 2.4-1 0-2.6-7.1-2-8.8.3-.9 1.6-2.8 2.8-4.2 1.2-1.4 2.5-3.8 2.9-5.4.4-1.6 1.5-3 2.6-3.3 1.1-.3 3.1-2.4 4.4-4.7 3.1-5.3 4.6-6.6 10.5-8.7 5.5-2.1 6.8-2.2 7.6-.9zm-96.9 22.7c-.5 13.3-1 17.1-2.3 18.5-1.2 1.4-1.3 2.1-.4 3.2 1 1.2.8 1.5-1.1 1.8-1.5.2-2.3 1-2.3 2.3 0 2.3-2 3.9-3.6 2.9-1.6-.9.3-10.8 4.5-23.9 1.8-5.7 2.2-8.3 1.4-9.2-.5-.7-1.4-1-1.9-.7-.5.3-1.8-.5-2.8-1.8l-1.9-2.3-1.8 3.2c-2.4 4.1-5.5 5.6-9 4.3-2.3-.9-2.5-1.4-1.9-4.3.9-4.3 1.4-4.7 7.1-5.3 4.1-.5 5.3-.2 7.3 1.5 1.4 1.2 2.9 2 3.5 1.8 1.8-.6 1.9-3.7.1-5.7-1.6-1.8-1.5-1.9 1.2-2.3 1.5-.2 3.2-.5 3.7-.6.5 0 .6 6.8.2 16.6zm95.1-5.2c-1.5 1.4-3.3 2.5-4 2.5-.7 0 .1-1.2 1.6-2.5 1.5-1.4 3.3-2.5 4-2.5.7 0-.1 1.2-1.6 2.5zm-57 4.1c14.4.8 15 1 17.3 5.4 1.2 2.3 1.9 5.7 1.9 8.2-.1 2.4-.4 3.3-.6 2.1-.6-3.2-2.9-4.8-4.8-3.3-1.2 1-1.8.9-3.1-.4-2.6-2.7-4.4-.3-4.4 6 0 3-.4 5.4-1 5.4s-1-2.8-1-6.4c0-4.5-.4-6.5-1.4-6.9-2.5-1-3.6 1.6-3.7 8.2l-.1 6.6-1.2-5.5c-1.4-6.6-2.2-8-4.5-8-1 0-3.2-.7-4.8-1.5-3-1.5-3.1-1.8-2.8-7.3.2-3.1.4-5.8.4-6 .1-.1 1.2.5 2.5 1.3 1.6 1 5.6 1.8 11.3 2.1zm-48.2 6.9c-.9 3.1-1.9 5.4-2.3 5.1-.3-.3.3-3.4 1.3-6.7 1.1-3.4 2.1-5.7 2.3-5.1.1.5-.4 3.6-1.3 6.7zm-8.5 4.9c0 .8-.4 1.8-1 2.1-.5.3-1-.3-1-1.4 0-1.2.5-2.1 1-2.1.6 0 1 .6 1 1.4zm-101.2 4.5c.3.8-.1 1.2-.9.9-.7-.2-1.5-1-1.7-1.7-.3-.8.1-1.2.9-.9.7.2 1.5 1 1.7 1.7zm171.2 3.6c0 3-.4 5.5-.8 5.5-.5 0-1-2.5-1.1-5.5-.1-3.2.3-5.5.9-5.5.6 0 1 2.4 1 5.5zm-65.9.1c-.5 2.1-.9 3-1 1.9-.1-2.4 1-6.7 1.5-6.2.3.2 0 2.2-.5 4.3zm98.7 2.6c-1.2 3.4-.1 4.8 4 4.8 3.4 0 2.2 2.4-1.4 2.8-1.6.2-3.5.9-4.2 1.5-1.1.9-1.1 1.3.4 2.4 1 .7 2.8 1.3 4.1 1.3 1.6 0 2.3.6 2.3 2s-.7 2-2.4 2c-3.5 0-5.6 1-5.6 2.6 0 1.7 5 4.3 7 3.6.8-.2 1.1-.1.7.4-.4.4-2.2 1.3-3.9 1.9-3.8 1.2-4.8 3.4-1.9 4.2 2.1.5 2.1.6.2 1.9-2 1.5-1.8 5.9.3 4.7.6-.3.6 0-.1.8-2.3 2.4-1.6 4.9 1.5 5l2.7.1-3.2 1.4c-4 1.7-5.1 3.4-2.9 4.6 1.6.9 1.6 1.1-.1 2.4-1.7 1.3-1.7 1.5.7 3.3 1.6 1.3 3.3 1.8 4.8 1.4 1.2-.3 2.2-.1 2.2.5 0 1.2-2.4 2.2-5 2.2-2.3 0-2.6.5-3.5 5.7-.6 3.8-.4 4.3 1.2 4.4 1.7 0 1.6.1-.2.8-2.5 1-3.1 7.8-.9 10.2 1.3 1.5 1.3 1.8-.2 3.4-1.6 1.5-1.8 4.3-2.1 22.4-.3 22.6 0 27.1 2.2 27.1 2 0 2 8.8.1 13.3-.7 1.8-1.4 7.2-1.5 11.9-.2 9.2.3 10.3 5.6 11.7 2.9.8 3.4 2.9.5 2.2-4.5-1.1-6.7-.6-7 1.6-.2 1.6.2 2.3 1.2 2.3.9 0 1.6.4 1.6 1 0 .5-.7 1-1.5 1s-1.6.7-1.6 1.5c-.1.8-.2 2.1-.3 2.7-.1.7.7 1.2 1.7 1 1.4-.2 1.7.5 1.7 4.2 0 2.4-.4 4.6-1 4.8-.5.1-1.1 3.5-1.3 7.4-.2 3.9-.7 7.6-1.1 8.2-.9 1.4 5.1 5.2 7 4.5 1.1-.4 1.4.9 1.4 5.8 0 5.8-.1 6.2-1.6 4.7-1.3-1.3-1.4-1.9-.3-3.6 1.7-2.8.3-4.3-4.2-4.5-2.4-.2-3.4.3-3.7 1.5-.2 1.1.3 1.8 1.2 1.8.9 0 1.6.7 1.6 1.5s-.8 1.5-1.9 1.5c-1.6 0-1.9.8-1.9 6.2 0 5.9-1.6 12.7-2.8 11.6-.2-.3-.4-16.9-.4-36.9 0-34.9 1.4-68.3 3-70.4.5-.6.6-10.7.4-22.5-.2-11.8-.5-27.4-.6-34.5-.1-7.2.1-22.5.5-34 .5-11.6.8-25.8.7-31.7-.1-9.7.9-14.1 2.4-10.3.8 2.1 2.6 1.9 2.6-.3 0-2.7 1.3-3.5 2.6-1.7.9 1.2 1 2.5.2 4.7zm5.3-1.7c-.1 1.5-2.4 1.2-2.9-.3-.3-.9.2-1.3 1.2-1 1 .1 1.7.7 1.7 1.3zm-18.8 14.7c-.2 6.8-.5 36.6-.8 66.3-.2 29.7-.8 60.3-1.3 68-.5 7.7-.9 39.2-.9 70 0 54-.3 62.5-2.4 62.5-.6 0-2.7-1.1-4.7-2.5-4.4-3-6.5-3.1-10.8-.5-5 3.1-12.3 3.6-21 1.4l-7.4-1.8-.1-12.6c-.3-30.1.1-48.9 1.3-58.3.7-5.6 1.4-19.9 1.5-31.7.5-37.6 1.2-80.9 1.8-98.3.3-9.2.1-23.8-.5-32.5-.6-8.6-1.3-19.6-1.6-24.3l-.4-8.6h3.2c6.7-.1 28.4-2.3 32.2-3.2 2.1-.5 4.3-1.4 4.9-2 .6-.6 2-1.1 3-1.1s2.1-.9 2.4-2c1.3-4.8 1.9-.1 1.6 11.2zm-166.7-8.3c.5.5 2.6 1.4 4.7 2.1 2.1.7 3.6 1.4 3.4 1.7-.9.8-8.4-1.7-9.7-3.2-1.3-1.6 0-2.1 1.6-.6zm75.4 1.5c.5 1.4 2.2 3.3 3.7 4.2 1.5 1 4 2.9 5.6 4.3 2.1 1.9 3.7 2.5 6.8 2.4l4-.2-.2 15.2c-.1 8.4-.3 22.6-.3 31.7v24.5c-.1 4.4.3 13.2.8 19.5.5 6.3.9 18.9.9 28 0 32.8-2.2 130.9-3 132.2-.2.5-1.8.8-3.4.8-2 0-4 1-6 2.9-3.8 3.8-16.6 10.1-20.5 10.1h-3.2l-.7-8.3c-.3-4.6-.7-19.4-.7-33l-.1-24.6 4.7-4.5 4.6-4.5.1-8.8c.1-11.3 0-9.3 3.6-47.8.4-3.9.7-26.9.7-51.2.1-38.2.3-44.4 1.6-45.7 1.6-1.7 9.1-2.4 12.7-1.2 1.8.6 2.4.1 3.7-2.6 2.6-5.7 2.4-6.9-1.6-9l-3.6-1.9 2.4-2.4c5.9-5.9.2-7.9-9-3.3-2.2 1.1-7.2-.6-8-2.9-.4-.8-.3-7.1 0-13.9.6-9.5 1-12.4 2.1-12.4.7 0 1.8 1.1 2.3 2.4zm38 1.6c0 .5-.4 1-1 1-.5 0-1-.5-1-1 0-.6.5-1 1-1 .6 0 1 .4 1 1zm-140 5.7c0 .5-.5 1.5-1 2.3-.8 1.2-1 1.1-1-.8 0-1.2.5-2.2 1-2.2.6 0 1 .3 1 .7zm31.8 2.1c.3.9-.2 1.3-1.4 1-.9-.1-1.9-.9-2.2-1.6-.3-.9.2-1.3 1.4-1 .9.1 1.9.9 2.2 1.6zm-11.6 3.9c1 .9 1.8 2.5 1.8 3.5 0 3.1-4.2 1.9-5.1-1.4-1-4 .3-4.9 3.3-2.1zm-14.6 9.7c.8 3.2-.3 5.1-2 3.6-1.4-1.1-1-6 .5-6 .5 0 1.1 1.1 1.5 2.4zm37.2.9c.3 2.5 0 2.8-2 2.5-1.7-.2-2.4-1.1-2.6-3.1-.3-2.5 0-2.8 2-2.5 1.7.2 2.4 1.1 2.6 3.1zm-30.1 3.9c-.3.7-.5.2-.5-1.2s.2-1.9.5-1.3c.2.7.2 1.9 0 2.5zm-15.9 3.2c.3 1.2-.1 1.7-1 1.4-.7-.3-1.5-1.3-1.6-2.2-.3-1.2.1-1.7 1-1.4.7.3 1.5 1.3 1.6 2.2zm36.6.9c1.2 3.3-.3 5.2-3.3 4.2-1.6-.5-2.1-1.5-2.1-4.1 0-3.1.3-3.5 2.2-3.2 1.4.2 2.6 1.4 3.2 3.1zm-11 8.7c.3 1.1.9 2.9 1.2 4 .9 3.1-2.5 2.5-3.7-.7-1-2.8-.6-5.3 1-5.3.5 0 1.2.9 1.5 2zm105.3 2.2c-.3.8-.6.5-.6-.6-.1-1.1.2-1.7.5-1.3.3.3.4 1.2.1 1.9zm-85.5 6.3c-.4 4.6-.6 4.9-2.7 4.2-.9-.4-1.5-1.9-1.5-4 0-3.8.7-4.9 3-4.4 1.1.2 1.4 1.3 1.2 4.2zm100.8.5c0 .5-.4 1-1 1-.5 0-1-.5-1-1 0-.6.5-1 1-1 .6 0 1 .4 1 1zm-84.8 7c-.3 2.9-1 3.6-2.2 2.4-1.2-1.2-.1-5.6 1.4-5.1.6.2 1 1.5.8 2.7zm-26.1 0c2.8 1.5 2.5 4.3-.3 3.5-3.1-1-4.2-2.1-3.4-3.4.9-1.4 1.2-1.4 3.7-.1zm36.9 3.1c0 2.4-1.6 3.2-4 1.9-1.9-1-2.7-4-1.4-5.3 1.1-1.1 5.4 1.6 5.4 3.4zm69.7-3.5c-.3.3-1.2.4-1.9.1-.8-.3-.5-.6.6-.6 1.1-.1 1.7.2 1.3.5zm-9.1 4.1c-1 1-1.9-.5-1-1.8.6-1.1.8-1.1 1.2 0 .2.7.1 1.5-.2 1.8zm-79.8 3.7c.3 2.3 0 2.8-1.3 2.2-.9-.3-1.9-.6-2.1-.6-.2 0-.4-1.2-.4-2.6 0-3.7 3.4-2.8 3.8 1zm80.2 8.1c0 3 .3 5.4.8 5.4 3-.5 3.5.3 1.3 2-2.4 1.9-2.2 4.1.5 4.1 2.1 0 1.7 1.7-.6 2.3-2.7.7-2.8 6.7-.1 8.4 1.5.9 1.8 2.2 1.6 6.7-.1 3.1-.4 5.9-.8 6.2-.3.4-.2 1.5.4 2.5.7 1.5.6 2.1-.5 2.5-1.6.6-1.2 6.2.6 9.7 1.2 2.3.1 3.7-1.2 1.7-.7-1.1-1-.5-1 2.1 0 1.9.5 4 1.2 4.7.6.6 1.2 2.6 1.2 4.4.1 2.6.5 3.2 1.9 3 1-.2 1.7.3 1.7 1.3 0 .9-.6 1.5-1.2 1.2-.7-.2-2.1.2-3.1 1.1-.9.8-2 1.2-2.4.8-.4-.4-1.1-11.4-1.5-24.4-.4-13-.9-28.4-1.1-34.2-.5-11.2 0-17 1.4-17 .5 0 .9 2.5.9 5.5zm-43.8 0c.6 3-1.3 5-3 3.3-1.3-1.3-1.6-4.1-.5-5.1 1.4-1.5 3.1-.6 3.5 1.8zm49.2-.4c-.6 1.1-2.4.2-2.4-1.1 0-.5.7-.7 1.5-.4.8.4 1.2 1 .9 1.5zm-58.4.3c.6.8 1 2.5.8 3.8-.4 3.2-4.2 3.2-4.6 0-.7-4.6 1.4-6.6 3.8-3.8zm-35.2 1.8c1.9 1.9 1.4 3-1 2.6-1.3-.2-2.4-1.1-2.6-2.1-.4-2 1.8-2.3 3.6-.5zm171.2.9c0 2.4-2.3 2.1-2.8-.4-.2-1 .3-1.7 1.2-1.7 1 0 1.6.9 1.6 2.1zM296.5 499c-.3.5-.1 1.2.5 1.5.8.5.8 1.1 0 2-.6.7-.8 2-.4 2.9.7 1.8-1.2 2.1-3.5.7-1.3-.8-2.4-6.8-1.5-8.2.2-.4 1.5-.4 2.9-.2 1.3.3 2.2.9 2 1.3zm-8.7 1.8c.3 2 0 2.3-2 2-1.5-.2-2.4-1.1-2.6-2.6-.3-2 0-2.3 2-2 1.5.2 2.4 1.1 2.6 2.6zm35.2.4c0 2.5-1.2 5.8-2.1 5.8-.5 0-.9-1.6-.9-3.5 0-2.4.5-3.5 1.5-3.5.8 0 1.5.6 1.5 1.2zm115 .8c0 .5-.2 1-.4 1-.3 0-.8-.5-1.1-1-.3-.6-.1-1 .4-1 .6 0 1.1.4 1.1 1zm3 2.7c-.1 2.4-.2 2.6-1.1 1-.5-.9-.7-2.2-.4-2.7 1-1.7 1.5-1.1 1.5 1.7zM314 516c0 2-.5 3-1.5 3s-1.5-1-1.5-3 .5-3 1.5-3 1.5 1 1.5 3zm-9.6-.4c1.6.6 2.3 7.3 1 8.7-1.7 1.6-3.4-.8-3.4-4.9 0-4.7 0-4.7 2.4-3.8zm17.8 11.4c-.5 3-.8 3.4-2.1 2.5-.6-.3-1.1-1.7-1.1-3.1 0-1.9.5-2.5 1.8-2.2 1.2.2 1.6 1.1 1.4 2.8zm-26.4-.8c1.4 1.4 1.6 7.8.3 7.8-2 0-3.8-4.6-3.2-8.3.2-1.1 1.5-.9 2.9.5zm136.2 4.9c0 1.6-.4 2.8-.9 2.5-.8-.5-.3-5.6.5-5.6.2 0 .4 1.4.4 3.1zm-339.4 7.6c-1 1-1.9-.5-1-1.8.6-1.1.8-1.1 1.2 0 .2.7.1 1.5-.2 1.8zm222.4.7c0 2.8-1.7 4.3-3.2 2.8-.7-.7-.6-1.7.1-3.1 1.6-2.8 3.1-2.7 3.1.3zm-10.2 5.1c-.3 1.1-5 1.2-9 .2-2.5-.7-4.3-3.1-3.3-4.7.7-1.1 12.7 3.3 12.3 4.5zm134.3 1.8c-1.3 1.3-1.5-.1-.4-3 .7-1.7.8-1.7 1.1.1.2 1-.1 2.3-.7 2.9zm-74.1 3.6c0 .6-.4 1.3-1 1.6-.5.3-1-.1-1-.9 0-.9.5-1.6 1-1.6.6 0 1 .4 1 .9zm73 12.7c0 .8-.5 1.2-1 .9-.6-.4-.8-1.1-.5-1.6.9-1.4 1.5-1.1 1.5.7zm-77 4.8c0 2.7-1.6 4.4-2.3 2.4-.5-1.8.3-4.8 1.4-4.8.5 0 .9 1.1.9 2.4zm77.8 8.4c.3.9-.3 1.3-1.9 1-1.2-.1-2.4-.9-2.7-1.6-.3-.9.3-1.3 1.9-1 1.2.1 2.4.9 2.7 1.6zm-77.8 3.3c0 1.7.6 3.2 1.5 3.5 1.2.5 1.2.9-.1 2.9-1.3 1.9-1.3 2.4 0 3.4.8.7 2.2 1.1 3.2.9.9-.2 1.9.3 2.2 1.1.3 1 0 1.2-1.1.8-2.1-.8-5.7 3.3-5.7 6.6 0 1.4-.4 2.9-1 3.2-.5.3-1 1.9-1 3.6 0 1.6-.4 2.9-1 2.9-.5 0-1 1.3-1 3 0 3 .9 3.5 5.3 3.2 2.4-.2 2.1 1.4-.4 2.1-1.7.5-2 1.2-1.8 4.9.2 2.4-.1 4.9-.4 5.5-.4.6-.3 2.2.2 3.6.6 1.6.6 2.8-.1 3.5-1.8 1.8-.1 3.9 3.6 4.6 4 .8 4 2.6 0 2.6-3.4 0-4.3 2.8-1.4 5 1.9 1.4 2 1.8.6 2.3-2.4.9-1.9 3.2.9 4.5 1.5.7 2.5 2 2.5 3.3 0 1.7-.5 2-2.5 1.7-2.1-.4-2.5-.1-2.5 1.9 0 1.5.8 2.7 2.3 3.3 2.2.9 2.2.9.1.9-1.8.1-2.2.9-2.7 4.8-.6 5.2.2 6.7 3.5 6.8 1.2 0 2.3.6 2.6 1.3.3 1-.4 1.3-2.4 1-2.9-.3-2.9-.3-3 5.2 0 3-.6 6.5-1.2 7.8-1.4 2.4-1.4 2.4 4.1 3.6 1.5.4 2.7 1.3 2.7 2.2 0 1.2-.6 1.5-2.5 1-4.1-1-6.5.9-6.3 5.2 0 2-.3 8.9-.7 15.2-.4 6.3-.4 11.1.1 10.7.4-.4.9-4 1.1-7.9.2-4 .6-7.5 1.1-8 .9-.9 8.2 1 8.2 2.2 0 .5-1.7 1-3.7 1.2-3.1.2-3.9.7-4.1 2.5-.2 1.3.1 2.3.6 2.3s.7 2 .4 4.5c-.4 4.2-.3 4.5 1.9 4.6h2.4l-2.3 1c-1.4.5-2.2 1.6-2 2.6.1 1-.1 2.3-.5 3-1.3 2 .4 4.2 3.6 4.5 1.8.2 3.1.7 2.9 1.3-.2.5-1.1.8-2 .6-3.8-.8-4.7-.5-5 1.8-.2 1.3.1 2.8.7 3.4.8.8 1.1.8 1.1-.1 0-.6 1.3-1 3-.9 1.6.1 3 .7 3 1.3 0 .6-1 .9-2.4.7-3.5-.7-4.4 1.6-1.5 3.8 1.9 1.5 2 1.9.7 1.9-.9 0-2-.5-2.3-1-.5-.8-1.1-.8-2 0-.9.8-1.5.6-2-.7-.6-1.4-1-.9-1.6 2.2-1 5.3-.2 9.1 1.9 9.1 5.6 0 9.2.5 9.2 1.2 0 .4-1.2.7-2.7.6-1.6-.1-3.6.3-4.5.7-1 .6-1.9.5-2.3-.1-.3-.5-1.4-1-2.4-1-1.4 0-2 1.1-2.5 4.2-.4 2.4-.3 4.4.2 4.6.5.1.7 1.4.4 2.7-.3 1.8.4 3.3 2.5 5.4 1.9 1.9 2.7 3.4 2.2 4.3-1.4 2.6.6 4.1 4.6 3.5 2.3-.4 3.5-.2 3.3.4-.6 1.7-9.6 1.9-10.9.3-1.6-2-3.4-1.7-4.5.6-1.8 4.1-1.7-65.7.2-86.8.3-3.5.7-12.6.9-20.3.2-7.7.7-14.4 1.1-15 .4-.7.8-17.4 1-37.3.5-47.1.9-54.8 3-56.3 2.3-1.7 3.4-.8 3.4 2.8zm78 10.9c0 .5-1.1 1-2.5 1s-2.5-.5-2.5-1c0-.6 1.1-1 2.5-1s2.5.4 2.5 1zm-1 7.3c0 1.9-1 2.7-2.6 2-2.1-.8-1.7-3.3.6-3.3 1.1 0 2 .6 2 1.3zm-74 3.7c0 .5-.2 1-.4 1-.3 0-.8-.5-1.1-1-.3-.6-.1-1 .4-1 .6 0 1.1.4 1.1 1zm72.5 4c.3.5.1 1-.4 1-.6 0-1.1-.5-1.1-1 0-.6.2-1 .4-1 .3 0 .8.4 1.1 1zm1 7c0 .7-.6 1.5-1.2 1.7-.8.3-1.3-.4-1.3-1.7 0-1.3.5-2 1.3-1.8.6.3 1.2 1.1 1.2 1.8zm-69.5 3c0 .5-.7 1-1.6 1-.8 0-1.2-.5-.9-1 .3-.6 1-1 1.6-1 .5 0 .9.4.9 1zm65.5 3c.3.5-.1 1-.9 1-.9 0-1.6-.5-1.6-1 0-.6.4-1 .9-1 .6 0 1.3.4 1.6 1zm3.5 1c0 .5-.2 1-.4 1-.3 0-.8-.5-1.1-1-.3-.6-.1-1 .4-1 .6 0 1.1.4 1.1 1zm-72 5.1c0 .5-.4.9-1 .9-.5 0-1-.7-1-1.6 0-.8.5-1.2 1-.9.6.3 1 1 1 1.6zm-268.7 5.3c.6 1.6.2 24.4-.4 25-.2.2-1.4.7-2.6 1-2.2.7-2.3.4-2.3-3.8 0-3.3.6-5.2 2.1-6.7 1.8-1.8 2.1-3 1.7-9.5-.3-6.9.3-9.3 1.5-6zm270 1.9c.4-.3.7-.1.7.5 0 .7-1.1 1.2-2.5 1.2-2.4 0-3.2-1-1.8-2.3.3-.4 1.1-.2 1.8.3s1.5.7 1.8.3zm70.7 9.4c0 4.5-1.7 6.1-2.5 2.5-.7-3.2-.1-5.2 1.6-5.2.5 0 .9 1.2.9 2.7zm-1.5 16.1c-.3.3-1 .1-1.7-.6-.8-.8-.7-1.9.3-4.4l1.4-3.3.3 3.9c.2 2.1.1 4.1-.3 4.4zm-340 7.2c.3.5.2 1-.4 1-.5 0-1.6.3-2.5.6-1.1.4-1.6.1-1.6-1 0-1.8 3.5-2.2 4.5-.6zm.3 8.7c-.2 2.2-.9 2.9-3.2 3.1-2.3.3-2.8 0-2.2-1.3.3-.9.6-2.3.6-3.1 0-.8 1-1.4 2.6-1.4 2.2 0 2.5.4 2.2 2.7zM365 683.4c0 .3-.4.8-1 1.1-.5.3-1 .1-1-.4 0-.6.5-1.1 1-1.1.6 0 1 .2 1 .4zM346.5 695v7.3l-15.2.1c-11.3.1-15.3-.2-15.3-1.1 0-.7 1.7-1.5 3.8-1.9 4.4-.7 21.5-8.8 23.3-11 2.4-2.9 3.4-.9 3.4 6.6zm21-6.1c1 1.7-1.1 2.1-3.1.6-1.8-1.4-1.8-1.4.3-1.5 1.2 0 2.4.4 2.8.9zm43.4 7.1c2.4 1.7 4.8 3 5.3 3 .4 0 .8 3 .8 6.6 0 6.1-.1 6.5-1.6 5.3-1.2-1-6.2-1.6-16.8-2l-15.1-.5 14.6-.2c11.2-.2 14.9-.5 15.8-1.6 2.2-2.6-1-3.1-21.4-3.1h-20l-.3-4.3c-.4-4.9-.3-4.9 8-2.6 4.7 1.4 6.6 1.4 10.3.5 2.5-.6 5.6-.9 6.8-.6 1.5.4 3.2-.1 4.8-1.4 3.1-2.7 3.6-2.6 8.8.9zm-288.7 5.5c.6 3.1 0 3.7-2.4 2.4-1.1-.6-6.1-.9-11.4-.7-11.3.4-12.3-1.3-1.3-2.4 4.1-.4 8.1-1 8.9-1.2 4.1-1.1 5.8-.6 6.2 1.9zm-21.7 6.5c.3.5.1 1-.4 1-.6 0-1.1-.5-1.1-1 0-.6.2-1 .4-1 .3 0 .8.4 1.1 1zm235.8-.3c-.7.2-1.9.2-2.5 0-.7-.3-.2-.5 1.2-.5s1.9.2 1.3.5zm30 0c-.7.2-1.9.2-2.5 0-.7-.3-.2-.5 1.2-.5s1.9.2 1.3.5zM123 711.6c0 4.1 4.2 7.9 9.9 8.8 3.7.6 4.1.9 4.1 3.4 0 1.5-.5 3.3-1 3.8-.7.7-.5 2.3.6 5 1.4 3.2 1.7 7 1.6 22.4l-.2 18.5 3.3 5 3.2 5 11.7.3c10.6.2 11.6.4 12.1 2.2.4 1.7 1.3 2 5.4 1.9 2.6-.1 8.2.3 12.3.8l7.5 1-4 1.8c-2.2.9-6.9 2-10.5 2.3-6.8.5-9.2 1.5-8.4 3.5.2.7-.5 2.7-1.6 4.4-1.6 2.8-2.6 3.3-5.7 3.3-10.7.2-13.8.9-16.3 3.9-1.9 2.2-3.6 3-7.5 3.5-2.7.4-9.2 1.6-14.2 2.8-8.6 2-9.4 2.1-11.1.5-2.5-2.3-7.8-3.2-9.7-1.7-2.9 2.4-4.5-.5-4.5-8.2 0-6.5.2-7.2 3-9.6 1.7-1.5 3-3.2 3-3.9 0-.8 1.4-1.3 3.8-1.3 5.1 0 7-1.3 5.2-3.5-1.1-1.3-1.1-2 0-4 1.1-2.1 1.1-2.7-.3-4.3-1.3-1.4-1.4-2.1-.5-3 .9-.9.9-1.5.1-2.3-.8-.8-1.3-.8-1.7 0-.4.6-1.6 1.1-2.7 1.1-1 0-1.9.6-1.9 1.3 0 .8-.9 2.2-1.9 3.1-1.1 1-2.2 3-2.6 4.4-.7 2.5-.8 2.5-1.5.7-.8-2-1.7-17.6-2.5-41.2-.3-7.2-.5-13.5-.6-14-.1-.4-.1-2.9 0-5.6l.1-4.7h4.6c3.8 0 4.5-.3 4.2-1.8-.2-1.2-1.5-1.8-4.6-2-2.4-.2-4.2-.8-4.2-1.5 0-.8 2.2-1.2 6.7-1.2 6.2 0 6.8-.2 7.1-2.1.3-1.9.9-2.1 5.3-2.1 4.8.1 4.9.2 4.9 3.3zm253-2.7c0 .5-.9.7-2 .4-1.1-.3-2-.7-2-.9 0-.2.9-.4 2-.4s2 .4 2 .9zm6.7-.3c-.3.3-1.2.4-1.9.1-.8-.3-.5-.6.6-.6 1.1-.1 1.7.2 1.3.5zm-48.8 3.5l12.3.1-.3 23.7c-.2 13 0 29.5.5 36.6.8 15.6.1 19-4.2 18.1-5.5-1.1-11.9-.8-18.2.9-4.9 1.3-6.8 1.5-8.2.6-1-.6-4.1-1.1-7-1.1-7-.1-11.9-1.2-19.8-4.6-3.6-1.5-9.4-3-13-3.4-6.8-.7-6.7-1 1.5-2.9 2.8-.7 7-2.2 9.5-3.4 4.4-2.1 4.5-2.3 5-7.7.4-4.9.8-5.5 3-5.8 1.4-.2 3.4-1.2 4.6-2.3 1.2-1.1 2.8-1.7 3.7-1.3 1 .3 2.8-.3 4.4-1.5 1.6-1.2 3.9-3 5.3-4.1 2.5-1.8 2.5-2.1 3-19.2l.5-17.3h7.2c7.7 0 9.8-.9 6.9-3-1.2-.9-3.4-1.2-6.6-.8-2.7.3-5.6.3-6.5-.1-2.4-.9-.7-2.9 1.9-2.2 1.2.3 7.7.6 14.5.7zm82.7 4.6c-.3 2.1-.6 7.1-.6 11 0 7.1-.1 7.3-2.5 7.3-2.3 0-2.5-.3-1.9-2.8.4-1.5 1.3-4 2.1-5.5.8-1.6 1.2-3.5.9-4.3-.7-1.8-5.2-3.6-9.3-3.6-1.8 0-3.3-.4-3.3-1s2.2-.8 5.6-.5c5.1.4 5.6.3 6.4-1.9 1.5-3.9 3.4-2.9 2.6 1.3zm-40.9-2.1c-.3.3-1.2.4-1.9.1-.8-.3-.5-.6.6-.6 1.1-.1 1.7.2 1.3.5zm59.3.4c1.3.8 1.3 1-.2 1-.9 0-2-.5-2.3-1-.8-1.3.5-1.3 2.5 0zm-36.8 4.5c.1.5-1.1 1.2-2.7 1.5-2.5.4-3 1.1-4 5.8-1.4 6.2-2.3 7.3-3.6 4.9-1.1-1.8-4.4-2.3-5.3-.8-.3.5.3 2.9 1.4 5.4 2.2 4.9 4 5.7 12.9 5.7 2.6 0 5.1.4 5.7.9 1.8 1.7 9.2 2 11.4.4l2.1-1.5-.6 11.4c-.4 6.2-.8 11.9-1.1 12.6-.2.7.1 2.4.7 3.9.5 1.5.8 3.7.4 5-.4 1.9-1 2.1-3.3 1.7-2.1-.4-5.6.6-12.8 4-13.8 6.3-17.9 7.3-23.7 5.6-5.2-1.4-6.3-3.3-4.5-7.6.8-2 1.2-11.5 1.2-31.1l.1-28.2 3-.4c6-.8 22.5-.2 22.7.8zM435 721c0 .5-.2 1-.4 1-.3 0-.8-.5-1.1-1-.3-.6-.1-1 .4-1 .6 0 1.1.4 1.1 1zm-27.2 5.3c-.7 1.4-1.3 1.7-1.6.9-.6-1.9.6-4.4 1.8-3.7.7.4.6 1.4-.2 2.8zm28.2-.9c0 .3-.4.8-1 1.1-.5.3-1 .1-1-.4 0-.6.5-1.1 1-1.1.6 0 1 .2 1 .4zM232 731c0 .5-.4 1-1 1-.5 0-1-.5-1-1 0-.6.5-1 1-1 .6 0 1 .4 1 1zm165.2 1.2c-.7.7-1.2.8-1.2.2 0-1.4 1.2-2.6 1.9-1.9.2.3-.1 1.1-.7 1.7zm38.3-1.2c.3.5-.1 1-1 1s-1.3-.5-1-1c.3-.6.8-1 1-1 .2 0 .7.4 1 1zm-4.5 6c0 .5-.4 1-1 1-.5 0-1-.5-1-1 0-.6.5-1 1-1 .6 0 1 .4 1 1zm4.8 1.1c-.2.6-.8 1-1.3 1s-1.1-.4-1.3-1c-.2-.6.4-1.1 1.3-1.1s1.5.5 1.3 1.1zM431 744c0 .5-.4 1-1 1-.5 0-1-.5-1-1 0-.6.5-1 1-1 .6 0 1 .4 1 1zm5 1c0 .5-.4 1-.9 1-.6 0-1.3-.5-1.6-1-.3-.6.1-1 .9-1 .9 0 1.6.4 1.6 1zm0 8c0 3.7-2.6 4.1-3.2.5-.6-2.7-.1-3.5 1.9-3.5.8 0 1.3 1.2 1.3 3zm-67 7c0 1.3-2 1.3-4 0-1.2-.8-.9-1 1.3-1 1.5 0 2.7.4 2.7 1zm-1 13c0 1.7-.6 2-3.4 1.8-2.3-.1-4.2.5-5.5 1.7-2 1.8-2.1 1.8-2.1-.1 0-3.7 2-4.9 8.8-5.3 1.6-.1 2.2.5 2.2 1.9zm-110 2c-.8.5-1.9 1-2.5 1-.5 0-.3-.5.5-1s2-1 2.5-1c.6 0 .3.5-.5 1zm17.5 0c1.7.7 1.4.9-1.3.9-2 .1-3.1-.3-2.7-.9.7-1.2 1.3-1.2 4 0zm-8.5.4c0 1.1-1.9 1.5-2.5.6-.3-.5.1-1 .9-1 .9 0 1.6.2 1.6.4zM112 777c0 .5-.5 1-1.1 1-.5 0-.7-.5-.4-1 .3-.6.8-1 1.1-1 .2 0 .4.4.4 1zm131.5 0c-.3.5-2.3 1-4.3 1-2.8 0-3.3-.3-2.2-1 2-1.3 7.3-1.3 6.5 0zm-94.5 1c0 .5-.4 1-.9 1-.6 0-1.3-.5-1.6-1-.3-.6.1-1 .9-1 .9 0 1.6.4 1.6 1zm-53.6 2.1c-.3.5-1 .7-1.5.3-.5-.3-.7-1-.3-1.5.3-.5 1-.7 1.5-.3.5.3.7 1 .3 1.5zm136.6-1.7c0 .2-.7.6-1.5 1-.8.3-1.5.1-1.5-.4 0-.6.7-1 1.5-1s1.5.2 1.5.4zM112.2 781c1.4 0 1.8.5 1.4 1.6-.3.9-.6 2-.6 2.5s-1.8.9-4.1.9c-2.4 0-3.8-.4-3.4-1 .3-.6 1.5-1 2.6-1 1 0 1.9-.5 1.9-1.1 0-.5-.4-.7-1-.4-.5.3-1.5.3-2.2-.1-.7-.5-.5-1.1.8-2.1 1.2-.9 2-1 2.2-.3.2.5 1.3 1 2.4 1zm101.8 0c0 .5-.7 1-1.6 1-.8 0-1.2-.5-.9-1 .3-.6 1-1 1.6-1 .5 0 .9.4.9 1zm-6.7.7c-.7.2-1.9.2-2.5 0-.7-.3-.2-.5 1.2-.5s1.9.2 1.3.5zm-18.3 1.2l4.5.7-4.1.8c-2.9.5-5.1.3-7.5-.8l-3.4-1.4h3c1.7 0 5 .3 7.5.7zm53.8 5.6l.3 3.6-7.5-.2c-4.2-.1-7.9.1-8.3.4-1.6 1.7-3.3.5-3.3-2.2 0-5.4.3-5.6 9.8-5.4l8.7.2.3 3.6zm123.7-3.5c-.3.5-1.5 1-2.6 1-1 0-1.9-.5-1.9-1 0-.6 1.2-1 2.6-1 1.4 0 2.3.4 1.9 1zm-269.7 2.6c-.4.3-1.7.2-3-.2-2.2-.7-2.2-.7-.3-1.4 2-.8 4.4.4 3.3 1.6zm6.2 4.5c0 1.1-.4 1.7-1 1.4-.5-.3-1-1.5-1-2.6s.5-1.7 1-1.4c.6.3 1 1.5 1 2.6zm255.2 5.1c.1 1.8.2 6.9.2 11.3l.1 8 3.8.3c2 .2 3.7.8 3.7 1.3 0 .7-1.2.8-3 .4-3.5-.8-6.2.8-5.3 3.1.3.8 1.7 1.4 3.2 1.4 1.4 0 3.3.5 4.1 1 1.1.7.6 1-2.1 1-3.5 0-6.6 2-5.2 3.3.3.4 0 1.3-.6 2.1-2.4 2.8-.9 5.8 3.4 7.2 4 1.2 4 1.2.8 1.3-4.1.1-6.3 1-6.3 2.6s2.7 2.7 5 2c1-.3 3-.1 4.5.5 2.5 1 2.7 1.3 1.4 2.6-1.2 1.1-2.1 1.2-4.5.4-1.9-.7-4-.7-5.5-.2-1.3.5-3.5.6-4.9.2-2.1-.5-2.5-1.2-2.5-4.5 0-3.4.3-4 2.3-4.3 2.7-.4 2.9-3.2.2-3.9-2.6-.7-2.6-2.3-.1-2.3 2.6 0 3.8-2 2-3.4-2-1.6-4.7-5.1-3.2-4.2.7.4 2.2.2 3.3-.4 1.8-.9 1.9-1.4.9-2.6-.7-.9-2-1.4-2.8-1.1-1.1.3-1.6-.4-1.7-2-.2-2.2 1.1-3.2 1.8-1.4.2.5 1.2.3 2.3-.5 1.6-1.2 1.7-1.8.8-3.2-.6-.9-1.7-1.6-2.5-1.6-1.2.1-1.5-1.5-1.6-7.7-.1-4.3.3-8.1.8-8.4.6-.3 1 0 1 .7 0 .9.3.9.8.2.7-1 2.8-2.1 4.5-2.3.4-.1.8 1.4.9 3.1zM96 801c0 .5-1.3 1-2.9 1-1.7 0-3.3-.5-3.6-1-.4-.6.8-1 2.9-1 2 0 3.6.4 3.6 1zm249.8 1.6c.2.1.1 3.2-.3 6.9-.7 6-.9 6.5-2.4 5.2-2.3-2.1-10.2-6-12.6-6.3-1.1-.1-4.2-1-6.9-2-4-1.4-4.5-1.9-3.1-2.7 1.2-.6 3-.6 5.5.2 5.5 1.6 8.8 1.4 10.7-.9 1.4-1.6 2.5-1.9 5.3-1.4 1.9.4 3.7.8 3.8 1zm-151.3.4c.4.6-1 1-3.5 1s-3.9-.4-3.5-1c.3-.6 1.9-1 3.5-1s3.2.4 3.5 1zm55.5 1c1.3.8 1.3 1-.2 1-.9 0-2-.5-2.3-1-.8-1.3.5-1.3 2.5 0zm116 .5c0 .8-.9 1.5-2 1.5-2 0-2.6-1.1-1.3-2.3 1.2-1.3 3.3-.7 3.3.8zM96 807c0 .5-1.5 1-3.4 1s-3.8-.5-4.1-1c-.4-.6 1-1 3.4-1 2.3 0 4.1.4 4.1 1zm270 5c0 .5-.6 1-1.4 1-.8 0-1.8-.5-2.1-1-.3-.6.3-1 1.4-1 1.2 0 2.1.4 2.1 1zm-269 1.9c0 1.9-1.7 3.8-2.5 2.9-.7-.7.7-4.8 1.6-4.8.5 0 .9.9.9 1.9zm14 6.7c0 3.8 1.5 7.4 3.1 7.4.5 0 2.9 1.8 5.1 4 4.7 4.4 6.7 5 7.5 2 .3-1.1.6-2 .8-2 .1 0 4.3 1.3 9.3 3 5 1.6 9.7 3 10.4 3 1.3.1 5.8 3.4 5.8 4.3 0 .3-.9.7-2 1-2.1.5-2.5 2.3-1.2 4.4.5.7 3.5 1.6 6.8 1.9 5.2.6 6 .9 6 2.6-.1 1.6 1.2 2.4 5.9 3.9 3.3 1 7.6 3.2 9.5 5 1.9 1.7 2.8 2.7 2 2.2-3.7-2.4-15.2-6.3-22.8-7.9-6.9-1.4-8.7-2.2-10-4.3-.9-1.4-3.8-4.8-6.5-7.5l-4.7-4.9-2.4 2.2-2.3 2.2-5.2-3c-5.8-3.5-7.9-3.8-8.8-1.6-.5 1.5 2.2 5.5 3.8 5.5 1.6 0 11.9 8.4 11.6 9.4-.2.6-2.5 1.2-5.2 1.4-4 .3-4.7.1-4.1-1.3.6-1.8-2.9-9.1-3.8-7.7-.5.9-4.6.6-7.6-.5-.8-.3-2.5-.5-3.7-.4-1.7.2-2.6-.5-3.3-2.4-1.6-4.1-1.2-5.5 1.4-5.5 2 0 2.5-.6 3.1-4 .8-4.9.2-6-3.4-6-2.5 0-2.9-.5-3.4-3.3-.7-4.7.7-6.7 4.8-6.7 3.3 0 3.5.2 3.5 3.6zm233.6 5c-.5 5.4-1.5 9.3-3.6 13.3-3 6-7.9 10.5-10.4 9.5-.9-.4-2.9.5-4.7 2-2.7 2.3-3.9 2.6-8.5 2.4-3-.2-5.4-.6-5.4-1 0-.3-1.6-2.5-3.5-4.8s-3.5-4.3-3.5-4.5c0-.9 6 1.1 8.5 2.9 4.3 3 10.7 2.7 17.7-.9 4.9-2.5 6.6-4.2 8.7-9 .2-.6-.5-.2-1.6.7-1.1 1-2.7 1.8-3.5 1.8-.9 0-3.2.7-5.2 1.5-2 .9-4.1 1.3-4.5 1-.5-.3-1.1.2-1.5 1-.3.8-1.1 1.5-1.8 1.5-.6 0 0-1.3 1.5-2.8 1.5-1.5 2.7-3.2 2.7-3.7s.8-1.7 1.7-2.7c1.6-1.8 1.5-1.9-.6-3.4-1.8-1.3-2-1.9-1-3 .7-.8 1.8-1.3 2.6-1 .9.4 1.3-.4 1.3-2.4s.5-3 1.5-3c.8 0 1.5.7 1.5 1.6 0 1.1.6 1.3 1.9.9 1.3-.4 2.4.1 3.4 1.5 1.3 1.8 1.9 2 3.6 1.1 2.2-1.2 2.8-3.6 1.1-4.6-.8-.5-.7-1.1.1-2.1 2-2.4 2.2-1.6 1.5 6.2zM97 821c0 .5-.5 1-1.1 1-.5 0-.7-.5-.4-1 .3-.6.8-1 1.1-1 .2 0 .4.4.4 1zm20.3 3c.3 1.1.1 2.3-.4 2.6-.5.3-.9.1-.9-.5 0-.5-.3-1.6-.6-2.5-.3-.9-.2-1.6.4-1.6.5 0 1.2.9 1.5 2zm205.6 6.6c-.9 1.1-1.5 1.2-2.3.4-.8-.8-.7-1.3.4-2 2-1.2 3.3-.1 1.9 1.6zm-261.2-.2c0 .8-.6 1.2-1.4.9-.7-.3-1.3-.9-1.3-1.4 0-.5.6-.9 1.3-.9.8 0 1.4.6 1.4 1.4zm39.2 2.2c3.6 4.5 2.5 6.2-1.4 2.4-1.9-1.9-3.5-3.8-3.5-4.2 0-1.8 3-.7 4.9 1.8zm225.1.4c0 .5-.7 1-1.5 1s-1.5-.5-1.5-1c0-.6.7-1 1.5-1s1.5.4 1.5 1zm-6.3 5.3c-1.2 2.7-3.1 3.5-4.2 1.7-.3-.6.2-1.3 1.2-1.7 1-.3 2.2-1.3 2.6-2 1.5-2.4 1.8-.8.4 2zm-123.8 2.3c.8.7-3 1.6-4.4 1-2.7-1-1.7-2.7 1.3-2 1.5.4 2.9.8 3.1 1zm3.9.6c1.7 1.7 1.5 2.8-.6 2.8-2.4 0-3.2-.8-2.5-2.6.6-1.7 1.5-1.8 3.1-.2zm181.6 4c2.8 3.9 1.7 5.2-1.4 1.8-3.4-3.7-3.6-4-1.6-4 .8 0 2.2 1 3 2.2zm-175.3.8l2.4 1.9-3.2-1.2c-1.8-.6-3.3-1.5-3.3-1.9 0-1.4 1.7-.9 4.1 1.2zm210-.6c3.8 1.6 9.6 7.2 8.6 8.3-.4.3-2.7-.8-5.1-2.5-3-2.1-5.6-3.2-7.9-3.2-5.1 0-6.9-.8-5.4-2.6 1.6-1.7 5.6-1.8 9.8 0zM76 848.5c0 .8-.4 1.5-.9 1.5-1.3 0-2.2-1.6-1.4-2.4 1.1-1.1 2.3-.6 2.3.9zm114 .5c0 .5-.5 1-1.1 1-.5 0-.7-.5-.4-1 .3-.6.8-1 1.1-1 .2 0 .4.4.4 1zm-48.7 4.3c-.4.6-1.2.3-2-.8-2-2.8-1.6-4.1.7-2 1.1 1 1.7 2.2 1.3 2.8zm53.2-.3c0 .7-.6 1.5-1.2 1.7-.7.3-1.3 0-1.3-.7 0-.6-.4-.8-1-.5-.5.3-1 0-1-.8s.9-1.3 2.3-1.2c1.2.1 2.2.8 2.2 1.5zm6 3.9c1.9 3.7.4 4.9-3 2.4-2.4-1.8-3.1-3.4-1.8-4.6 1.4-1.5 3.3-.6 4.8 2.2zM251 859c0 .5-.4 1-.9 1-.6 0-1.3-.5-1.6-1-.3-.6.1-1 .9-1 .9 0 1.6.4 1.6 1zm5.5 2c.4.6 1.5.8 2.4.5 1.9-.6 5.1.3 5.1 1.4 0 .9-9.3.7-10.8-.2-.7-.5-1-1.3-.7-1.8.8-1.2 3.2-1.2 4 .1zm-69.5 5.5c3 3.2 1.4 3.2-2.5 0-2-1.6-2.5-2.4-1.4-2.5.8 0 2.6 1.1 3.9 2.5zm83.5 1.5c1 1.1 1.6 2 1.3 2-.3 0-1.3-.9-2.3-2-1-1.1-1.6-2-1.3-2 .3 0 1.3.9 2.3 2zM93 872c0 .5-.4 1-1 1-.5 0-1-.5-1-1 0-.6.5-1 1-1 .6 0 1 .4 1 1z"/><path d="M358.1 338.6c0 1.1.3 1.4.6.6.3-.7.2-1.6-.1-1.9-.3-.4-.6.2-.5 1.3zM430 399.6c0 .9.5 1.4 1.2 1.2 1.8-.6 2.1-2.8.4-2.8-.9 0-1.6.7-1.6 1.6zM430.6 416.3c-.5 2.1-.6 4.1-.2 4.4 1.2 1.2 1.7-.5 1.4-4.3l-.4-3.9-.8 3.8zM426 554.4c0 2 .2 3.6.4 3.6.8 0 1.2-6.1.4-6.6-.4-.3-.8 1.1-.8 3zM426.2 568c0 1.4.2 1.9.5 1.2.2-.6.2-1.8 0-2.5-.3-.6-.5-.1-.5 1.3zM426.1 578.5l.1 5 .9-3.9c.6-2.6.6-4.3-.1-5-.7-.7-1 .6-.9 3.9zM355.5 658c-.8 1.3-.1 2.4 1.4 1.9.6-.3.7-1 .2-1.8-.6-1-1-1-1.6-.1zM354 687.1c0 .5.5.7 1 .4.6-.3 1-.8 1-1.1 0-.2-.4-.4-1-.4-.5 0-1 .5-1 1.1zM354 700c0 1.2-.4 2.9-.9 3.9-1 1.7.2 5.1 1.1 3.5 1.2-2.1 1.8-8.3.8-8.9-.6-.3-1 .3-1 1.5zM353 710c0 .8.5 2.2 1 3 .9 1.3 1 1.3 1 0 0-.8-.5-2.2-1-3-.9-1.3-1-1.3-1 0zM353.7 717.5c-.4.8-.2 1.7.3 2 .6.4 1-.3 1-1.4 0-2.5-.6-2.7-1.3-.6zM357.5 732.3c-.4 1-.5 2.1-.1 2.4 1 1 1.8-.4 1.3-2.4-.4-1.7-.4-1.7-1.2 0zM354 742c0 .5.9 1 2 1s2-.5 2-1c0-.6-.9-1-2-1s-2 .4-2 1zM356 747c0 1.1.5 2 1 2 .6 0 1-.9 1-2s-.4-2-1-2c-.5 0-1 .9-1 2zM110.8 793.1c-2.2 1.4.7 3.2 5.9 3.5 10.1.7 39.9 1.3 41.6.8.9-.3 1.7-1.1 1.7-1.8 0-1-4.1-1.3-17.2-1.4-9.5 0-20.3-.5-24-.9-3.7-.5-7.3-.6-8-.2zM107.1 799.3c-1.7 2.2-.3 2.7 7.1 2.7 5.1 0 6.8-.3 6.8-1.4 0-2.5-11.9-3.6-13.9-1.3zM163 799.9c0 1.2 2.9 2.3 4.1 1.5 1.8-1 .9-2.4-1.6-2.4-1.4 0-2.5.4-2.5.9zM132.3 801.2c.2.7 1.9 1.3 3.7 1.3 1.8 0 3.5-.6 3.8-1.3.2-.8-.9-1.2-3.8-1.2s-4 .4-3.7 1.2zM389.7 744.3c-1.3 3.4 5.8 5.2 8.3 2.2 1.7-2 .8-2.7-3.9-3.2-2.7-.3-4 .1-4.4 1zM381.1 749.4c-1.7 2 .2 2.9 5.5 2.4 2.7-.2 3.9-.8 3.9-1.8 0-2.2-7.7-2.6-9.4-.6zM404.7 748.7c-1.7 1.6-.5 3.3 2.2 3.3 3.9 0 6.1-.9 6.1-2.6 0-1.5-7-2.1-8.3-.7zM396.2 754.6c1.6 1.6 7.7 2.2 9.8.9 2.1-1.3-1.1-2.5-6.5-2.5-4.5 0-4.8.1-3.3 1.6zM352 803.9c0 1 .6 2.4 1.4 3 1.1 1 1.6.8 2.1-.8.3-1.2.3-2.5 0-3.1-1.1-1.7-3.5-1.1-3.5.9zM86.2 692.1c.2.7 1 1.5 1.7 1.7.8.3 1.2-.1.9-.9-.2-.7-1-1.5-1.7-1.7-.8-.3-1.2.1-.9.9zM425.2 698c0 1.9.2 2.7.5 1.7.2-.9.2-2.5 0-3.5-.3-.9-.5-.1-.5 1.8zM.3 704.7c-1.2 3.1.9 3.3 29.8 3 28-.3 33.5-.9 29.7-3.3-.7-.5-14.3-.9-30.2-.9-22-.1-28.9.2-29.3 1.2zM66.3 703.6c-3.6 1.6 1.3 4.9 5.8 3.9 3.1-.7 4.1-3.5 1.2-3.5-1 0-2.7-.2-3.8-.5-1.1-.2-2.6-.2-3.2.1zM33 710c-27.1.4-31.5.7-31.5 2s4.5 1.5 34.9 1.3c19.1-.1 35.5-.4 36.3-.7 2.8-1.1-.5-3.4-4.5-3.2-2 0-17.9.3-35.2.6zM460.3 713c-8.7.6-11.6 2.5-5.1 3.3 2.4.3 13.4.6 24.6.6 17.4.1 20.2-.1 20.2-1.4 0-1.2-2-1.5-11.7-1.6-6.5 0-13.8-.3-16.3-.7-2.5-.4-7.7-.5-11.7-.2zM44.6 715.9c-8.8.9-8.4 3.9.4 3.3.8-.1 7.3-.4 14.4-.7 13.1-.6 15.1-.9 14.1-2.6-.7-1-18.9-1-28.9 0zM474 736.9c-.7 1.4-2.1 2.1-4 2.1-2.3 0-3.3.7-4.6 3.2-1 1.8-2 4.6-2.4 6.3-.4 2.1-1.2 3.1-2.8 3.3-2.7.4-2.8 1.8-.3 3.2 1.1.5 2.3 1.9 2.6 3 .5 1.7 1.5 2 7.3 2.1 5 0 6.1.3 4.5.9-2.6 1.1-3 2.5-.8 3.4 2 .7 6.8-1.1 6-2.4-1.2-2 4.3-1 5.6 1 1.3 1.8 2.1 1.9 8.2 1.4 4.9-.5 6.7-1.1 6.7-2.1 0-1.2-1.4-1.4-6.7-1.3-9.8.3-9.7.4-7.9-2.2 2.1-3 .4-4.8-4.5-4.8-4.5 0-5-1.4-1.9-5.3 2.4-3 2.6-6 .6-7.7-.8-.6-1.6-2.1-1.8-3.2-.4-2.9-2.4-3.4-3.8-.9zm1 7.1c0 1.8-5.2 9-6.1 8.4-1.2-.7-1.1-1.9.5-5.9 1-2.4 2.2-3.5 3.5-3.5 1.2 0 2.1.5 2.1 1zM422.6 741.2c-.7 3-.8 17.6 0 20.5 1.4 5.2 2.1.6 1.7-10.4-.3-6.5-.6-11.9-.8-12.1-.1-.1-.5.8-.9 2zM441.5 743.1c-1.4 2.1 1.1 2.9 9.5 2.9 8.1 0 11.5-.9 9.1-2.5-1.7-1-18-1.4-18.6-.4z"/><path d="M482.5 747c-1 1.7-.4 1.9 5.8 2.2 5.4.2 7.8-.5 6.4-1.9-1.3-1.3-11.4-1.6-12.2-.3zM445.5 749.1c-1 1.5-.3 1.9 5.1 2.4 5.1.5 8.1-.5 7-2.4-.9-1.4-11.3-1.4-12.1 0zM491.2 756.2c.3.7 2.3 1.4 4.6 1.6 3.3.2 4.2 0 4.2-1.2s-1.1-1.6-4.6-1.6c-3.2 0-4.4.4-4.2 1.2zM41 759.8c0 .5-1.3 2.6-2.9 4.6-1.6 2-3.2 5.4-3.6 7.5-.5 3-1 3.7-2.8 3.7-3.6-.1-2.5 2.4 1.9 4.3 2.9 1.3 4.6 1.6 5.8.9 1.4-.8 1.9-.5 2.3 1.1.3 1.2.8 2.1 1.2 2.1.3 0 4.6.5 9.4 1 9.3.9 11.7.6 11.7-1.5 0-1.6-2.2-2.5-6-2.5-1.9 0-3.3-.7-4-2-.7-1.4-2.1-2-4.5-2-1.8 0-3.6-.4-3.9-.8-.2-.4.4-2.8 1.5-5.2 2.1-4.6 1.9-7-.5-7-.8 0-1.6-1-1.8-2.2-.3-2.2-3.8-4-3.8-2zm2.5 8.2c.7 1.2-2.2 7-3.5 7-1.3 0-1.3-3.6 0-6.1 1.2-2.1 2.5-2.5 3.5-.9zM451.5 762c.3.5 1 1 1.6 1 .5 0 .9-.5.9-1 0-.6-.7-1-1.6-1-.8 0-1.2.4-.9 1zM464.5 768.1c-.9 1.3-.6 1.5 3 2.2 3.4.6 7.2-.8 4.5-1.7-4.2-1.3-6.9-1.5-7.5-.5zM486.2 768.2c.7 2 13.8 2.2 13.8.3 0-1.2-1.5-1.5-7.1-1.5-5.2 0-7 .3-6.7 1.2zM443 777.8c0 1.5.7 3.8 1.6 5 1.5 2.1 1.5 2.4-.1 3.5-1 .8-1.4 1.9-.9 3 .8 2.2 8 7.2 11.7 8.1 1.5.4 2.6 1 2.3 1.4-.2.4.3.8 1.2.9 1.9.1 13.7 2.5 24.7 5 3.9.9 7.8 2.3 8.8 3.1 2.5 2.2 1.4 2.6-2.3.7-4.1-2.1-17.9-3.6-20.1-2.2-1.3.8-3.1.3-7.4-1.8-4.4-2.3-7.1-2.9-11.8-3-3.4 0-6.9.2-7.7.5-2 .7-3.9 3.1-4 5.1 0 .8-.6 2.3-1.3 3.3-1.2 1.7-1.7 1.7-6.4.3-2.8-.9-6.1-2.1-7.3-2.7l-2.2-1.2 2.1-1.4c2.8-2 2.7-2.7-1.3-5.8-5.4-4.1-8.9-1.6-4.4 3.1 1.8 1.9 1.9 2.3.5 2.3-.9 0-1.8-.4-2.1-.9-.3-.5-2.3-1.1-4.3-1.4-2.1-.3-6.6-1.5-10-2.8-5.1-1.9-6.4-2-7.7-1-.9.7-1.3 1.7-1 2.2 1.3 2.1-8.5.8-13-1.7-3.8-2.1-4.9-2.4-6.1-1.4-.8.7-1.5 1.7-1.5 2.2 0 1.4 10.2 5.8 13.6 5.8 3.3 0 8.4 2 8.4 3.3 0 .5-1 .8-2.2.7-4.1-.4-4.8 0-5.8 2.5-.8 2.2-1.4 2.4-3.7 1.8-4.7-1.1-6.7-.9-7.1.9-.4 2.1 2 2.8 10.3 3.1 5.2.2 6 0 6.3-1.8.3-1.1.9-2.3 1.6-2.7 1.7-1.1 8.4-1 9.1.2.3.5 1.5 1 2.5 1 1.1 0 3.4.8 5.2 1.8 1.8 1 6.2 2.9 9.7 4.2 6.6 2.4 13.1 7.2 13.1 9.5 0 1.5 2.7 2.8 4.1 1.9 1.9-1.1.8-3.3-3.9-7.7-4.8-4.4-10-7.7-12.3-7.7-1.5 0-9.8-5.3-9.9-6.3-.1-2 3.7-1.6 10.8 1.1 4.2 1.7 11.5 3.8 16.1 4.8 4.6 1 9.9 2.8 11.8 4.1 3.7 2.5 4.9 2.8 5.8 1.3 1.1-1.7-1.4-4.8-4.9-6.1-1.9-.7-3.3-1.6-3-2 .2-.4-1.9-1-4.6-1.4-5.6-.8-6-2-1.4-4.6 4.3-2.5 11.1-2.3 19 .7 6 2.2 7 2.4 7.9 1 .9-1.1 2.5-1.3 7.6-.9 5 .4 8.2 1.5 14.7 4.9l8.2 4.4v-4.5c0-3.8-.4-4.8-3-6.6l-3-2.3 3-1.4c5.6-2.7 2.7-11.2-3.3-9.7-1.4.4-5.4 0-8.9-.8-3.5-.9-8.2-1.5-10.4-1.5-6.5.1-18.2-3.1-21.5-6-1.7-1.3-3.9-4.2-5-6.3-2.3-4.6-4.9-5.2-4.9-1.1zm38.6 18.7c6.3.6 13.1 2.9 12.4 4.1-.7 1.2-1.3 1.1-15.9-2-13.7-2.8-16.8-4.1-7.6-3.2 3.3.3 8.3.8 11.1 1.1zm-74.9 10.4c3.2 1.1 4.9 2.2 4.5 2.8-1 1.6-15-1.8-14.4-3.5.5-1.7 3.7-1.5 9.9.7zM72.5 793c-.3.5-.1 1 .4 1 .6 0 1.1-.5 1.1-1 0-.6-.2-1-.4-1-.3 0-.8.4-1.1 1z"/><path d="M412.5 794c-.3.5-.1 1 .4 1 .6 0 1.1.7 1.1 1.6 0 1.4.3 1.4 1.5.4 1.2-1 1.3-1.6.4-2.6-1.4-1.7-2.5-1.8-3.4-.4zM66.2 795.2c.6 1.8 2.8 2.1 2.8.4 0-.9-.7-1.6-1.6-1.6-.9 0-1.4.5-1.2 1.2zM74 796.9c0 .5.5 1.3 1 1.6.6.3 1 .2 1-.4 0-.5-.4-1.3-1-1.6-.5-.3-1-.2-1 .4zM434.4 797.4c-.8 2 1.3 5.6 3.3 5.6.9 0 2.5-.7 3.5-1.6 1.7-1.6 1.6-1.8-1.7-3.5-4.2-2.3-4.4-2.3-5.1-.5zM425 798.1c0 1.6 7.2 8 8.5 7.6 2.4-.8 1.4-3.7-2.2-6.1-4-2.8-6.3-3.3-6.3-1.5zM232 807c0 .5.5 1 1 1 .6 0 1-.5 1-1 0-.6-.4-1-1-1-.5 0-1 .4-1 1zM474.8 813c-3.8.7-7.1 3.6-8.8 7.7-.7 1.7-1.8 2.3-4.3 2.3-1.8 0-4.3.7-5.6 1.6l-2.2 1.6 2.2 2.4 2.2 2.4-2.1 2.3-2.2 2.3 2.2 2.1c1.3 1.1 3.5 2.3 5 2.7l2.6.6-3.4 3.4c-2.7 2.7-3.4 4.2-3.4 7.4 0 4.2 2 6.8 4.4 5.9 1.2-.5 1.4-1.7.9-5.5-.5-4.6-.3-5.1 2-6.7 1.4-.9 3-1.4 3.6-1.1.5.3.9 4.5.8 9.3-.1 18.1 1.9 25.6 5.9 22.2 1.6-1.3 1.9-5.5.4-6.4-.6-.4-1-5.8-1-12.9v-12.3l11.8.2c6.4.1 12.3 0 13-.3.7-.2 1.2-2.2 1.2-4.9v-4.6l-5.5.7c-4.7.5-5.8.3-7.5-1.4-1.5-1.5-3.2-2-6.5-1.8-2.5 0-4.7-.1-5-.3-.7-.8 22.4-3.1 23.5-2.4.6.3 1-.3 1-1.6 0-2-.3-2.1-6.3-1.5-5.1.6-6.6.4-7.6-.8-.9-1.1-3.1-1.6-6.5-1.6-2.8 0-5.8-.5-6.6-1-1.3-.8-1.3-1.3 0-3.7 1.2-2.2 2.4-2.8 5-3 3.3-.1 3.4-.1.6.5-1.6.4-3.1 1.3-3.4 1.9-.6 1.9 11.2 1.8 12.7-.1 1-1.2.8-1.9-.8-3.5-1.2-1.2-3-2.1-4-2.1-1.1 0-2.5-.2-3.3-.4-.7-.2-3 0-5 .4zm-6.8 23.6c0 1.1-.5 1.4-1.6 1-.9-.3-2-.6-2.5-.6-.6 0-.7-.5-.4-1 1-1.6 4.5-1.2 4.5.6zm29.9 2.8c.7.8.8 1.6.4 1.8-.4.2-5.7.1-11.8-.2l-11-.5 7-.8c3.9-.5 7.5-1 8-1.2 2.5-.9 6.4-.4 7.4.9zM236.1 815.4c-1.5 1.7-.5 4.1 2.3 6 1.3.8 7.4 2.7 13.7 4.2 13 3.1 19.8 6.3 23.4 11 1.4 1.8 2.5 3.4 2.5 3.7 0 .2-2.5.2-5.5-.1-4.7-.4-5.6-.2-6.1 1.4-.3 1.1-1.2 3.1-2 4.6-2.7 5 .7 8.1 11.6 10.7 7.1 1.8 9 2.8 9 5 0 2.5 2.3 4.3 10.3 8 4.7 2.3 7.1 4 7.8 5.7 1.2 3.3 6.2 3.1 6.7-.3.4-2.4-3.9-6.1-10.6-9.1-2.3-1.1-6.2-3.9-8.5-6.3-2.9-3.1-6-5-9.9-6.3-5-1.7-5.5-2.1-4.5-3.7.8-1.2 1.9-1.6 3.3-1.3 1.5.4 2.7-.2 4.3-2.2 2.5-3.2 2.2-4.9-2.5-11.4-1.9-2.6-3.4-5.2-3.4-5.9 0-.6-.5-1-1.2-.8-.7.1-1.2-.5-1.3-1.3 0-.8-.7-1.6-1.5-1.6-.8-.1-2.1-.2-2.9-.3-1-.1-1.2-1-.7-3.1.5-2.9-.6-4.1-1.9-1.9-.5.7-1.3.4-2.6-.7-1.7-1.5-1.9-1.5-2.5-.1-.4 1.2-1.6 1.5-4.2 1.3-4-.4-10-2.3-11.8-3.8-.6-.4-1.8-.6-2.6-.3s-2.1-.1-2.8-1c-1.6-1.9-4.4-2-5.9-.1zM310 818.8c0 1.2 1.9 2.6 2.6 1.9.2-.2-.2-1-1.1-1.7-.9-.8-1.5-.8-1.5-.2zM303.6 820.9c-.4.6.2 1.9 1.3 3 1.6 1.6 2.2 1.7 3.7.7 1.7-1.3 1.1-4.1-.7-3-.5.3-1.6.1-2.4-.6-.9-.7-1.5-.8-1.9-.1zM429 843.5c0 .9 1.2 2 2.8 2.6 3.3 1.3 8.2 5.9 12.8 12 1.9 2.6 5.1 6.4 7.1 8.6 2.1 2.1 5 5.4 6.6 7.2 2.2 2.7 3 3.1 4.2 2.1 1.9-1.5 1.2-2.9-5.7-10.6-2.9-3.4-8-9.3-11.2-13.3-3.3-4-7.2-7.9-8.7-8.7-3.7-1.9-7.9-1.8-7.9.1z"/><path d="M479.7 849.7c-1.3 1.2-.7 5.1.9 5.7 2.1.8 3.4-.1 3.4-2.3 0-2.8-2.8-5-4.3-3.4zM17.1 852.9c-1.1.7-.8 1.7 1.8 4.9 3.1 3.9 4 5.8 7.5 15.5 1.4 3.8 2.2 4.7 4.2 4.7 3 0 3-.4-.1-8.6-1.4-3.7-2.3-6.9-2.1-7.1.5-.6 5.9 6.5 8.6 11.4 1.9 3.5 2.9 4.3 5.3 4.3h2.9l-3.1-4.2c-1.7-2.3-3.1-4.7-3.1-5.4 0-.6-1.6-3.2-3.6-5.9-3.2-4.1-4-4.6-6.4-4.1-2.4.4-3.3-.1-5.5-2.9-2.7-3.6-4-4.1-6.4-2.6z"/><path d="M11.6 859.5c-1.3 1.4-3.3 2.5-4.5 2.5-3.3 0-7.1 4.7-7.1 8.7 0 3.3.1 3.4 2.1 1.9 1.3-.9 3.3-1.2 5.4-.9 2.8.4 3.5.1 5.5-2.8 1.3-1.9 3.5-4.4 4.9-5.6l2.6-2.3-2.4-2c-3-2.6-3.7-2.5-6.5.5zM489.6 860.9c-.4.5.5 2.3 1.9 3.9 3 3.6 3 3.7.5 6.9-2.2 2.8-2.5 4.3-1 4.3.6 0 1.6-1.2 2.2-2.6 1.1-2.3 1.3-2.4 1.9-.7.3 1 .2 2.6-.3 3.6-.6 1.3-.5 1.7.7 1.7 2.8 0 4.5-2.7 4.5-6.9 0-3.1-.7-4.9-3.1-7.6-3-3.4-6.2-4.5-7.3-2.6zM331.3 864.1c-1.7 2.1-2.7 6.9-1.4 6.9.6 0 1.1-.4 1.1-1 0-.5 1.2-2.1 2.8-3.6 1.6-1.6 2-2.4 1-2.1-.9.3-1.8.1-2-.5-.2-.6-.8-.5-1.5.3zM18.3 867.2c-.8.9-.6 2.6.7 5.8 1.4 3.6 2.3 4.6 4.4 4.8 2.5.3 2.6.1 2-2.5-.8-3.6-3.6-8.5-5-9-.6-.2-1.6.2-2.1.9zM335.7 868.8c-2.1 2.3-2.2 5.2-.1 5.2.9 0 1.4-.6 1.1-1.3-.2-.6 0-2 .5-3 1.3-2.6.4-3.1-1.5-.9zM486 870.1c-1.3 2.4-.4 4.1 1 1.9 1-1.6 1.3-4 .5-4-.2 0-.9.9-1.5 2.1zM163.8 870.6c-1.5 1.5-1.5 2-.2 4.6 1.2 2.3 2.1 2.8 4.9 2.8 1.9 0 3.5-.5 3.5-1 0-.6 1.1-1 2.4-1 1.4 0 2.8.4 3.1 1 .3.5 2.6 1 5.1 1 2.8 0 4.3-.4 3.9-1-1.1-1.8-9.8-5.7-14.2-6.4-2.3-.3-4.7-.8-5.5-1.1-.7-.3-2.1.2-3 1.1zM14.7 875.1c-2.3 1.3-1.3 2.9 1.9 2.9 2.6 0 3.1-1.2 1.1-2.8-.8-.7-1.8-.7-3-.1zM50 876.5c-1.1 1.3-.7 1.5 2.6 1.5 3.6-.1 3.8-.2 2-1.5-2.5-1.9-3.1-1.9-4.6 0z"/></svg>