<svg version="1" xmlns="http://www.w3.org/2000/svg" width="666.667" height="1170.667" viewBox="0 0 500 878"><path d="M231.7 19.7c-.3.2-5.1.4-10.9.4-5.8 0-11 .4-11.8.9-2.6 1.6.2 3.1 5.6 2.9 3-.1 5.9.2 6.3.7.5.5 2.5 3.8 4.4 7.4 1.9 3.6 4.3 7.9 5.3 9.7 2.6 4.5 1.1 5.6-7.8 5.7-5.6.1-7.3.5-7.3 1.5 0 1.8 5.2 3.3 8.5 2.5 1.3-.3 13.7-.8 27.4-1 23.8-.5 28.5-1.1 27-3.5-.3-.5-2.7-.8-5.5-.7-2.7 0-5.2-.2-5.5-.5-.3-.2-.8-5.1-1.1-10.8-.7-12.2-.4-12.6 7.7-13.1 2.9-.2 5.5-.8 5.7-1.4.3-.8-6.5-1.1-23.6-1.1-13.2 0-24.2.1-24.4.4zm10.3 5.5c0 2.4-5 13.8-6 13.8s-8-14.2-7.4-15.1c.3-.5 3.4-.9 7-.9 6 0 6.4.2 6.4 2.2zm17.5-1.2c1 1.6 1.8 20.7.9 21.2-.5.3-4.9.7-9.9.9l-9 .4.3-2.5c.2-2 6.1-17 7.9-20.3.6-1.1 9.1-.9 9.8.3z"/><path d="M329.1 23.7c-2 2.5-2.6 4.1-3.3 8.8-.3 1.7-1 1.9-5.1 1.6-3.6-.2-4.9.1-5.3 1.3-1.1 2.8 1.7 7.6 5.5 9.6l3.6 1.8-2.7 1.1c-5.5 2.1-6.1 4.4-6.6 25.7-.3 10.6-.6 19.4-.8 19.4-.2 0-2-1.1-4-2.5s-4-2.2-4.5-1.9c-.5.3-1.8 2.2-2.8 4.2-1.7 3.4-1.8 4-.4 6.5 1.3 2.7 1.3 2.9-.6 3.4-4.3 1.1-4.6 8.8-.5 11.1 1.2.7.5 1.3-3.1 2.6-3.7 1.5-4.8 1.6-6.1.5-2.1-1.7-11.6-2.9-13.1-1.7-.7.6-1.3 3.2-1.3 5.9 0 3.4-.4 4.9-1.3 4.9-3.5 0-7.3 8.1-5.5 11.5.9 1.4.4 2.2-2.2 4.3-3.5 2.7-6.9 9.2-7 13.1 0 1.4.9 3.5 2.1 4.7 1.7 1.8 1.9 2.6 1 4.2-1.8 3.4-1.3 7.1 1.4 9.8 1.6 1.6 2.5 3.6 2.5 5.5 0 4.1 1.5 6.6 5 8.4 2.4 1.3 3 2.2 3 4.9 0 5.6 6.5 12.1 9.5 9.6 1.2-1 2.1-.5 5 2.5 3 3.2 3.9 3.7 6.6 3.1 1.7-.3 4.1-.3 5.4 0 2.9.7 3.7 5.9 2.5 16.9-.5 4.4-1.1 21.6-1.4 38.3-.3 16.7-.8 30.7-1.1 31.1-.2.5-.9 14.5-1.5 31.2s-1.5 32.6-2 35.4c-1.5 8.1-4 34.3-4.1 43.5l-.1 8.5-1.9-8c-1-4.4-2.6-12.1-3.4-17-.9-5-2-10.8-2.5-13-.5-2.2-2-10.1-3.4-17.5s-3-15.4-3.6-17.8c-1.9-7.8 2.6-11.6 9.1-7.9 3.1 1.8 4.1 1.9 6.3.9 3.3-1.5 3.3-2-.6-6.2-2.6-2.9-3.2-4.4-3.2-8.3-.1-3.6-.6-5.3-2.1-6.3-2.3-1.7-4.9-1.8-6.2-.2-1.5 1.9-3.1 7.1-2.6 8.5.9 2.4 3.3 1.3 4-1.7.8-4 2.3-4.9 2.3-1.3 0 3.3-.8 4.7-3.2 5.6-1 .3-1.8 1.5-1.8 2.6 0 2-3.5 4.7-4.3 3.4-.3-.5-.8-3.5-1.1-6.8-.8-6.4-4.2-23.6-8.1-40-1.3-5.5-2.8-12-3.4-14.5-3.1-14.3-5.3-22.5-6.7-25.3-.9-1.7-1.6-5.3-1.6-8.1s-.6-6.3-1.4-7.8c-.8-1.5-1.4-4.1-1.4-5.9 0-2.3-.9-4-3.7-6.5-2-1.9-4.3-3.4-5-3.4-1.8 0-1.6-1.9.2-2.6 1.9-.7 2-3.8.2-5.2-1.7-1.4-5.7 1.1-5.8 3.6-.1 1-.4.7-.8-.8-.4-1.4-1.7-3-3-3.6-1.4-.7-1.9-1.4-1.2-1.8.6-.4 1.6-.4 2.1-.1 1.5.9 7-5 7-7.4 0-2.9-2.7-4-6.7-2.9-3.3.9-3.7.7-7-3.1-3.4-4-7.3-5.4-7.3-2.7 0 .8 1.4 2.5 3.1 3.7 3.7 2.6 5 5.7 3.6 8.3-.9 1.9-1 1.9-2.8-.3-1.1-1.3-1.9-3.2-1.9-4.2 0-2.5-1.7-2.4-2.5.1-1.1 3.4.3 5.6 5.3 8.3l4.7 2.6-3.3.7c-4.3.9-5.1 3-2.3 5.7 2.1 2.1 2.3 2.1 5.1.5 3.1-1.7 4-1.5 4 1.3 0 1-1.9 2.8-4.4 4.3-5.8 3.4-7.5 7.7-4.9 13 .9 2 3.1 4.5 4.8 5.5 3.4 2 5.4 7.5 9 24.6 2.1 9.8 5.6 24.5 6.2 26.2.3.8-.4 1.3-1.9 1.3s-3.2 1.1-4.6 3c-2.9 3.8-3.8 3.8-6.3-.5-2.9-4.8-4.6-4.5-5.4 1-1.1 6.7 1.6 10.8 7.5 11.5 2.4.3 4.5.9 4.7 1.5.1.5-1.4 1.9-3.5 3-3.3 1.8-3.7 2.4-3.4 5.5.1 1.9 1.2 4.5 2.4 5.7 3.6 3.9 7.2 2.6 8-2.7.2-1.6.9-2.4 1.8-2.1.8.2 2.7.6 4.3.9 1.8.3 2.9 1.2 3.2 2.6 2.6 12.6 7 30.8 9.1 37.6 4.6 15.1 10.9 46.1 14.5 71.5 1.2 8.2 2.6 15.6 3.2 16.3 1.9 2.4-1.9 4.9-8.5 5.6-3.6.3-8.9 1.9-12.6 3.6-3.5 1.7-6.9 3-7.6 3-.6 0-2.2-3-3.5-6.8-3.1-8.6-16.3-34.9-21.3-42.6-2.2-3.2-4.6-7.3-5.5-9-2.1-4.2-9.5-14.4-13.1-18.1-1.6-1.7-4.3-5.3-6.1-8.2-1.7-2.8-5.5-7.2-8.3-9.9-5-4.7-5-4.7-4.5-9.6.8-6.5-.5-9.7-4.3-10.4-6.2-1.3-2.5-4.2 5.2-4.1 3.1 0 6.3-.5 7.1-1.1.9-.8 1.6-4.2 2-9.4.5-6.3 1.1-8.6 2.7-10.3l2.1-2.3-2-6.1c-1.1-3.4-2.3-6.7-2.8-7.3-.4-.7-.8-5.3-.9-10.1l-.1-8.9 3.1-1.9c1.7-1 3.9-1.9 4.8-1.9 2.2 0 7.4-4.5 8.1-7 .4-1.6-.1-2.3-1.9-3-1.3-.5-2.4-1.5-2.4-2.3 0-1.8-5.6-7.7-7.4-7.7-.9 0-1.6-.4-1.6-1 0-.5-1.1-1.2-2.4-1.6-2.9-.7-8.6 2-8.6 4.1 0 1.1-1.3 1.5-4.7 1.6-17.8.4-28.7 1.5-32.4 3.4-1.6.9-5.2 2-8 2.5-9.2 1.8-22.7 11.8-21.4 15.9.5 1.6-1.7 3.3-9 6.9-5.3 2.6-9.4 6.1-9.7 8.4-.2 1.2-.9 2.3-1.6 2.6-1.1.3-1.3-1.5-.8-9.9 1-17.1 1.6-25.9 2.5-35.9.5-5.2.9-15.5 1-22.8 0-7.3.6-17 1.2-21.5s1.3-10.4 1.4-13.1c.3-4 .8-5.3 2.9-6.9 2.1-1.5 2.6-2.7 2.6-5.9 0-2.2-.8-5.3-1.7-6.9-1.6-2.6-1.6-2.9 0-4.7 3.5-3.8 1-9.5-3.2-7.3-1.1.6-2.3 2-2.6 3.1-.7 2.1-3.5 2.8-3.5.9 0-1.3 4.1-10.9 4.7-10.9.2 0 2.1 1 4.2 2.2 4.4 2.5 7.1 1.9 7.1-1.6 0-4.2-6.8-7.4-9.7-4.5-1.6 1.6-3.3.2-3.3-2.9 0-1.5-1.2-5.2-2.6-8.2l-2.6-5.5-1.5 3.5c-1.8 4.2-1.1 10 1.8 14.6 2.3 3.8 1.2 5-2.7 3-3.5-1.9-6.7-.5-6.2 2.7.2 1.7 1.1 2.3 3.6 2.5 5.3.5 5 2.7-1.1 8.7-3.9 3.8-5.8 6.5-6.1 8.7-.3 1.8-.8 14.5-1.1 28.3-.3 13.7-1 32.9-1.6 42.5-.5 9.6-1.3 25.8-1.9 36-1 19.4-2.1 35.7-4.6 65-.8 9.6-1.6 21.1-1.9 25.5-.6 9.1-2 23.8-3.6 37-.6 4.9-1.3 12.3-1.6 16.3-.5 6.7-.7 7.4-3 8.3-1.4.5-4.1 2.3-6.1 3.9-4.2 3.4-5.6 3.8-4.8 1.2.3-.9.8-27.1 1.2-58.2.3-31.1.7-59.7.9-63.5.2-3.9.4-30.6.5-59.5 0-33.7.5-54.1 1.1-57 .6-2.5 1.2-6.3 1.3-8.5 0-2.2 1.1-5.9 2.4-8.2 2.8-5.3 2.8-6.4-.1-13.8-1.6-4.3-3.2-6.6-5.5-8-1.7-1.1-3.5-3-3.8-4.2-.3-1.1-1.7-3.1-3-4.4-3.1-2.9-3-3.4.7-4.9 4-1.7 6.3-5.3 5.5-8.5-.7-2.9-4.1-3.4-7.2-1-2.9 2.2-3.9 1.8-5.3-2.1-1.4-3.8-4.6-5.7-7.3-4.2-1.5.7-1.8 2.2-1.8 7.7 0 6.8-.1 6.9-3 8-3.4 1.1-4.1 4.9-1.4 7.2 1.4 1.1 1.8 1 3.3-1l1.7-2.2 1.9 2c1.8 2 1.8 2.3 0 8-1.8 6-1.8 6.2.4 26.6 1.7 16.9 1.8 167.3 0 205.5-1.8 38.9-2 41.4-4.5 41.8-1.6.2-2.3-.4-2.8-2.2-.5-1.9-1.3-2.6-3.2-2.6-1.3 0-2.7-.7-3-1.5-1-2.5-5.3-1.7-8.6 1.5-1.6 1.6-3.4 3-3.9 3-1.5 0-1-8.8.6-12 1.4-2.8 5.1-6 6.8-6 .5 0 .7 1.9.5 4.2l-.3 4.3h5.3c5.1-.1 5.3 0 4.7 2.3-.5 1.9-.2 2.3 1.2 2 1.3-.2 1.8-1.3 1.8-3.8 0-3.5 0-3.5-4.2-3.3-3.9.2-4.2 0-3-1.7 1.5-2.5-.5-4.7-5-5.6-2.7-.5-3.7-.1-7.3 3.3-3.9 3.6-4.2 4.3-4.7 10.4-.4 5-.2 7.2 1 9 2.3 3.4.9 5-6.5 7.4l-6.3 2L.3 516l-.2 65.5 4.2-5c2.3-2.8 7.2-8 10.8-11.6 8-7.9 13.6-10.1 26.2-10.1 9.3 0 14 1.4 23 6.9 3.4 2 8.8 4.7 12.1 5.9 3.3 1.2 6.2 2.6 6.4 3.2.2.6-1.9 2.7-4.6 4.7-4.5 3.2-12.2 12.7-12.2 15 0 .5 1.2 1.9 2.6 3l2.6 2-8.4 6.7c-4.5 3.6-10.4 8.8-12.9 11.5-2.6 2.7-7 6.7-9.8 8.7-7.1 5.3-12.3 12.1-11.5 15.3.5 1.9-.1 3.3-2.8 6.1-6.6 7.1-8.8 13.2-6.7 19.1 1.1 3 1.4 3.2 4.5 2.6 4.5-.8 4.4.7-.2 5.7-2 2.2-5.3 7.5-7.3 11.7-3.2 6.7-3.6 8.7-3.9 16.7-.5 11.6 1.4 16.2 7.3 17.8 2.9.9 3.9 1.7 4.2 3.6.6 4.7 2.5 7 5.5 7 2.3 0 2.8.4 2.8 2.3 0 1.6.9 2.8 2.6 3.6 2.9 1.3 3.9.9 11.3-4.4 9-6.4 10.2-7.8 12-14.5l1.8-6.5 4.9.3c3.3.2 9-.7 16.9-2.8 13.5-3.6 16.2-4.8 22.2-9.6 2.3-1.9 4.4-3.4 4.8-3.4.4 0 3.1-1.9 6.1-4.3 6.8-5.3 17.4-17.7 23.9-28.1 5.7-9 14.3-17.2 19.5-18.6 2-.5 5.1-2.3 6.9-3.9 1.8-1.7 4.7-3.3 6.5-3.7 1.7-.3 4.5-1.7 6.3-3 3.6-2.7 4.9-3 5.6-1.2.4 1.3 6.3 5.5 16.7 11.9 9.3 5.7 23.6 18.7 33 29.7l5.4 6.3-1.7 2.8c-2 3.4-2.1 5.4-.5 8.1 1 1.5.8 3.3-.6 9l-1.9 7 3.1 7.3c4 9.5 6.6 22.2 5.9 28.3-.6 6.1.5 8.4 4.2 8.4 4.1 0 7 2.8 8.6 8.5.8 2.7 2.5 8.4 3.9 12.5 4.4 13 7.6 23.5 7.6 24.7 0 .6.5 2.4 1.2 4 1.2 2.9 5.5 18.7 6.5 23.8.3 1.6 1.5 4.2 2.6 5.7 1.6 2.1 1.8 3.5 1.3 7.3-.6 3.6-.4 5.2 1 7.3 1 1.5 1.7 3.7 1.5 5-.2 1.7.5 2.6 3.3 3.7 4.7 2 7.1 1.9 11.5-.4 2-1.1 6.3-3.2 9.6-4.7s7.2-3.3 8.8-4c2.6-1.3 2.8-1.2 4.2 2.1 1.2 3 1.9 3.5 4.8 3.5 1.9 0 4.9-1 6.8-2.3 2.9-2 3.4-2.8 3.1-5.8-.2-1.9-.9-4-1.5-4.7-1.6-2 .5-3.5 15.3-11 7.4-3.7 13.7-7.4 14.1-8.2.4-.8 1.3-2.8 2-4.3 2.5-5.3-2-6.8-16.1-5.4-3.6.4-9.8.4-13.8 0l-7.3-.6.6-2.8c.6-2.5.3-2.9-1.4-2.9-2.5 0-2.7-1.3-.6-3 1.8-1.5 1.9-5 .4-8.4-1.4-3.1-3.4-3.9-6.1-2.5-2.4 1.3-2.7 1.1-4.8-4.8-.9-2.7-3.1-8.6-4.9-13.3-4.1-11-7.3-26.1-6.5-31 .6-3.4-.3-8.1-2.6-13.5-1-2.6-4-18.6-4-21.8 0-1.4-.7-3-1.5-3.7-.8-.7-1.9-2.9-2.5-5-.7-2.5-1.7-4-3.2-4.3-1.8-.5-1.9-.8-.8-2.2 1.2-1.5 1.5-1.3 3.5 1 2 2.6 2.3 2.6 6.3 1.6 7-1.9 7.5-3.8 7.6-29.7.1-12.3.4-22.5.8-22.9.3-.4 1.6-.1 2.8.5 1.6.9 3.2.8 7.3-.6 2.9-.9 6-2.3 6.9-3.1 2.3-2.1 3.8-.8 3.8 3.3 0 5.4 5.9 10.6 14.6 12.8 3.8 1 7.7 2.2 8.6 2.7 2.8 1.4 4.6 1.1 5.3-1 .6-2.1 3.8-3.6 5.5-2.6.5.3 1 2.3 1 4.3 0 4.8 1.9 7.5 7.2 9.9 5.9 2.8 10.6 3.4 15.3 2.2 2.2-.6 5-1.1 6.3-1.1 1.5 0 2.6-.8 3.2-2.3.7-1.8 3.9-4.2 4.4-3.3.1.2.6 1.6 1.1 3.3 1.2 3.7 6.4 6.4 13.8 7.2 5 .5 5.5.3 7.5-2.2 1.2-1.5 2.2-4.1 2.2-5.6 0-3.5 1.2-3.8 2.5-.7.6 1.3 3 3.3 5.5 4.6 3.9 1.9 5.6 2.2 12.8 1.8 8.3-.4 8.4-.4 10.1 2.5.9 1.5 5.9 6.5 11 11 9.3 8.2 9.3 8.2 19.9 11 12.3 3.2 15.2 3.5 15.2 1.4 0-.9-1.7-1.8-4.2-2.5-12.5-3-17.6-5.1-18.1-7.3-.3-1.2-.9-11.7-1.2-23.2-.4-11.6-1.3-29.6-2.2-40-.8-10.5-1.7-26.1-2-34.8-.5-13.6-.3-16.6 1.2-21.1 1.6-4.8 1.6-5.4.2-8.3-.9-1.7-1.3-3.3-1-3.7 1.5-1.5 6.7-.4 9.5 1.9 3.6 3 5.7 3.1 9.1.5 1.4-1.1 3-2 3.5-2 1.8 0 2-2.4.5-5.9-1.7-4.3-1.1-6.1 2.2-6.1 2 0 2.5-.5 2.5-2.6 0-1.8-.4-2.3-1.2-1.7-3.1 1.9-8.3 3.2-9.3 2.2-1.6-1.6.8-4.3 5.6-6 3.8-1.4 4.4-2.1 4.7-4.9.2-1.8-.1-3.7-.7-4.3-.6-.6-1.1-2-1.1-3.2 0-4-2-4.6-5.1-1.5-1.6 1.6-2.9 3.1-2.9 3.4 0 .3 1.4 1.2 3 2.1 4 2.1 3.8 4.3-.4 5-1.9.4-4.6 2-6.1 3.5-2.4 2.5-2.7 3.4-2.1 6.9.3 2.3.9 5.9 1.2 8.1.7 4.1-.9 5.8-1.9 2-.4-1.5-1.4-2-4.1-2-2 0-3.6-.4-3.6-.8 0-1.4 7-23.5 8.2-26 .6-1.2 2.6-3.1 4.5-4.2 1.8-1 3.3-2.4 3.3-3 0-1.5 5-8 6.1-8 2.1 0 .8 4.1-1.6 5-3.6 1.4-3.3 4.1.5 3.8 2.9-.2 3-.4 3-5.3 0-3.9-.6-5.9-2.5-8.5-2.7-3.7-3.1-6-1.4-9.2 1.1-2 .5-3-2.5-4.1-.5-.2-.1-1.5.8-2.9 1.3-1.9 1.5-3.2.8-4.5-.6-1-1.3-4.4-1.7-7.5-.6-5-.4-6.1 1.6-8.9 2.9-4.1 4.8-14.6 4.8-27.2.1-9.6.1-9.7-2.3-9.7-1.6 0-4.4 2-8.5 6.1-3.4 3.3-6.1 5.4-6.1 4.7 0-1.7-11.5-13.8-13.1-13.8-.8 0-.8.4-.2 1.2 5.8 7.6 7.9 9.8 8.9 9.4.7-.3 1.8.2 2.4.9.9 1.1.7 2-.9 4.1-2.5 3.1-2.6 5.2-.5 7.9 1.3 1.7 1.3 2-.2 2.5-2.2.8-11.9-2.6-11.9-4.1 0-.7-1.1-1.6-2.5-1.9-2-.5-2.4-1.2-2.2-3.4.3-2.9-2.2-11.7-4.4-15.1-.6-1.1-1.5-4.5-1.9-7.5-.4-3-1.1-6.5-1.6-7.6-.5-1.4-.3-2.8.5-3.9 1.1-1.5 1.4-.9 2.5 4.6 1.7 8.6 2.7 10.8 5.3 11.8 3.2 1.2 4.5.1 2-1.8-2.7-2.1-4.9-10.8-6.2-24.6-.6-6.1-1.5-13.6-2.1-16.8-.5-3.1-1.4-10.2-1.8-15.7-.5-5.4-1.2-10.4-1.6-11-.9-1.4-3-22.8-4.6-46-1.3-19.1-.8-21.3 4.6-23.6 3.6-1.5 5.5-1.2 5.5.7 0 .6-.9.7-2 .4-1.1-.3-2-.2-2 .3 0 1.8 2.9 3.4 5 2.7 2.4-.8 2.7-4.7.5-6.5-.9-.7-1.5-3.5-1.7-7.8-.2-3.6-.8-6.7-1.3-6.9-1.4-.4-7.4 9.7-7.2 12.1.1 1-.4 2.1-1 2.3-1 .4-1.3-1.5-1.3-7 0-4.1-.4-9.6-.9-12.3-1.2-6.3-1.6-29.1-.6-32.7.5-1.8.1-5.2-1-9.4-1.6-5.9-2.1-6.7-5.4-8l-3.6-1.5 2.8-2.2c2.3-1.9 2.7-2.8 2.1-4.9-.4-1.7-1.5-2.9-3-3.3-1.3-.3-2.1-1-1.8-1.6.3-.5 1.2-.7 2-.4.8.3 2.5.1 3.9-.4 2.2-.8 2.5-1.5 2.5-5.9 0-2.7-.5-5.3-1.1-5.6-.5-.4-2.8.5-5 1.9-3.8 2.5-3.9 2.6-3.9.5 0-1.1.4-2.8 1-3.8 1.2-2.3-2.2-12.5-4.3-12.9-1.9-.4-4.7 3.5-4.7 6.6 0 1.2.6 3.3 1.4 4.5.8 1.2 1.6 3.5 1.8 5.2.3 2.8.1 3-2.8 2.7-5.2-.5-8.4 1.3-8.4 4.7 0 3.7 1.8 5.1 6.4 4.9 4.3-.2 5.3.6 5.8 4.6.3 2.5-.1 3.1-2.7 3.9-1.6.5-4.3 2.1-5.8 3.6-2.4 2.2-2.8 3.1-2.3 6.1.4 1.9.7 4.4.8 5.5 0 1.1.7 4 1.6 6.5.8 2.6 1.5 9.1 1.7 15.3.2 9.2-.1 11-1.4 11.4-.9.4-2.3 1.2-3.3 2-1.4 1.3-1.7 1-2.3-2.7-.8-4.7-4.8-10.1-6.3-8.5-.5.5-1.3 3.1-1.6 5.6-.6 4.4-.5 4.7 2.8 7.4l3.5 2.8-3.2 1.6c-2.8 1.4-3.2 2.2-3.5 6.2-.4 6.2 1.6 8 5.9 5.5 3-1.8 3.1-1.8 5.7.5 5.8 5 6.2 5.8 6.3 12.8 0 6.4.8 14 2.8 28.6 1 7.1 3.6 53.8 4.5 80.7.6 16.6 1.5 15-8.9 16.7-3.3.6-10.4 2.5-15.8 4.4-5.4 1.9-9.9 3.1-10.1 2.8-.2-.3-1.1-4.7-2.1-9.6-.9-5-2.1-11-2.6-13.5-1.8-8.2-2.7-14.4-3.4-22.5-.3-4.4-1.3-10.6-2.1-13.8-2.3-8.9-.2-10.2 6.1-3.7 3.7 3.8 6.8 5 7.9 3.1.6-1-2-6.7-3.5-7.6-2-1.3-.7-2.4 2.1-1.8 3.7.7 7-1.8 7-5.4 0-2.1-.4-2.3-4.4-2.3h-4.5l.6-3.3c.7-4.3-1.3-6.1-4.7-4.3-2.3 1.1-2.5 1.7-2.2 7.3.2 5.8.2 6.1-2.4 6.7-1.4.4-2.9.4-3.2.1-.8-.8-3.2-11.6-3.7-16.7-.3-2-1.3-8.1-2.5-13.6-1.1-5.5-2-12.2-2-14.9 0-5.3-2.6-26.7-6-49.3-.5-3.3-.4-8.1.2-11.8 1.2-7.7.8-8.9-3.9-10.9-4.6-1.8-8.5-4.8-7.6-5.7.3-.3 1.9-.6 3.5-.6 2.7 0 7.8-3.8 7.8-5.7-.1-2.4-2.2-3.8-5.9-3.8-3.4 0-4.1-.3-4.6-2.4-.8-3.2-5.4-9.1-7.1-9.1-1.5 0-2.9 4.2-2.1 6.4.3.8.1 3-.5 5-1 3-1.6 3.6-4 3.6-2.2 0-2.8.4-2.8 2.3 0 1.2.7 3.3 1.6 4.5 1.4 2 2.2 2.2 5.5 1.7 3.2-.6 3.9-.4 3.9.9 0 .9-.8 1.6-1.8 1.6s-3.3 1.4-5.1 3c-2.9 2.7-3.2 3.5-2.7 6.3.4 1.8 1.3 7.7 2.1 13.2 2.3 16.9 5.3 36.1 6.3 40.2.6 2.1 1.3 5.4 1.6 7.3l.6 3.5-2.6-3.3c-2.9-3.6-3.6-3.8-5.8-1.7-.9.9-1.7 1.1-2.1.5-.8-1.3-9.7-5.2-10.4-4.5-.3.3.1 2.5.9 4.8 1.4 3.9 2.2 4.6 8.9 7.7 2.7 1.2 2.2 2.8-.9 3.5-1.7.4-3.4 1.3-3.7 2.1-.8 2.2.5 6.1 2.3 6.8 1.8.7 7-1.8 7.6-3.6.3-.8.9-.5 1.7 1 .8 1.5 2.1 2.2 3.9 2.2h2.8l3.3 22.7c1.8 12.6 3.7 25.3 4.2 28.3 1.4 8.2 1.7 10.5 2.8 21.5 1.2 11.5 2.7 22.4 4.7 34.4 1.4 8.3 1.4 8.5-.8 10.8-2.7 2.9-3.8 2.9-3.8.2 0-1.2-.8-2.3-2-2.6-1.5-.4-1.8-1.1-1.4-2.8.3-1.3-.2-3.7-1-5.4-2.1-4-5.6-4.1-8.6-.4-1.8 2.3-2.4 2.5-4 1.5-1.1-.7-2.9-1.2-4-1.2-3.2 0-7 4.4-7 8 0 2.6-.5 3.3-3 4.2-3.3 1.1-5.1 5.1-3.1 7.1 2.2 2.2 1 3.6-4.6 5.2-3.2.9-7.5 2.8-9.6 4.1-2.2 1.4-4.1 2.3-4.4 2-.3-.3.2-2.2 1.2-4.1.9-2.1 1.4-4.7 1.1-6-.4-1.7-.1-2.4 1.5-2.8 2-.5 2.1-1 1.5-8.8-.4-4.5-.9-8.6-1.2-9-.2-.5-2-1.1-4-1.5l-3.5-.6.6-16.7c.3-9.1.8-17.5 1-18.6.2-1.1.7-9 1-17.5.3-8.5 1.1-22.3 1.6-30.5.6-8.3 1.2-19.7 1.5-25.5.2-5.8.8-13.2 1.3-16.5.5-3.3.9-10.1 1-15 .1-11.9 1.8-33.6 3.6-45.7.8-5.3 1.5-12.8 1.5-16.6 0-3.8.3-9 .6-11.5.6-4.4.8-4.6 3.5-4 2.1.4 4-.2 7.5-2.6 2.6-1.7 5.3-3.1 6-3.1.6 0 2.9-1.9 5-4.3 2.1-2.3 5.2-4.7 6.8-5.2 2.3-.8 3.4-2.1 4.7-5.5 1.2-3.1 2.2-4.4 3.3-4.2.9.2 2.5-.2 3.6-.8 2.6-1.4 2.7-7.6.1-10.9-1.6-2.1-1.6-2.8-.5-6 .7-2 1.3-5.5 1.4-7.8 0-2.3.5-5.4 1.2-6.8 1.8-4-1.1-9.1-6.7-11.6-4.9-2.2-5.7-3.6-2.3-4.1 3.9-.5 3.3-3.6-1.6-8.5-2.5-2.5-4.6-4.9-4.6-5.3 0-.4 2.1-2.4 4.6-4.5 5.1-4.2 10.7-5.9 13.8-4.3 2.7 1.4 14.2.3 17.5-1.8 1.4-.9 3.4-2.6 4.3-3.8 2.2-2.7 2.4-.3.3 3.4-2.2 3.9-1.9 7.7.8 8.5 1.2.4 3.1 1.5 4.2 2.5s3.9 2.1 6.3 2.5c3.5.6 4.2.4 4.2-.9 0-2.4-4.7-11.3-6.2-11.8-.9-.3-.4-1.5 1.5-3.7 3.1-3.7 3.4-5.7 1.1-9-1.4-1.9-2.2-2.2-5.1-1.6-3.4.6-14.6 8.3-17.1 11.7-1.5 2-3.8 2.4-4.4.6-.2-.6-2.4-1.6-4.9-2.3-2.4-.6-5.5-1.5-6.9-1.9-2-.7-2.3-.6-1.2.5 1.9 2 1.5 2.7-2 3.4-1.8.4-3.9 1.2-4.6 1.8-2.4 1.9-2.5-.3-.2-2.8 1.3-1.4 2.1-2.7 1.8-3.1-.3-.3-2.3 1.4-4.4 3.7-8.1 8.8-10.2 9.8-9.6 4.5.4-3.4-1.3-5.6-4.4-5.6-2.9 0-3.2-1.6-.5-2.3 2.8-.7 6.2-6.6 5.9-10.2-.4-4.1-5.3-6.6-10.5-5.5-2 .5-4 1.5-4.5 2.2-.6.8-.8-2.3-.4-8.4.5-9.1.8-10.1 4.1-14.9 1.9-2.8 3.5-5.6 3.5-6.1 0-2.2-2.4-5.5-6.8-9.5-4.7-4.2-5.4-6.7-1-4 1.9 1.2 3 1.3 6.3.3 6.9-2 5.7-6.6-2.4-9-3-.9-4.4-1.8-4.2-2.7.3-.8.7-4 .9-7.2.3-4.5 0-6.3-1.4-7.8-2.3-2.6-3.9-2.4-6.3.8zm3.9 6.2c0 3.7-1 6.2-2.1 5.5-1-.6-1.2-4.5-.3-6.8 1-2.6 2.4-1.8 2.4 1.3zm-11.5 8c.3.5.1 1.2-.5 1.6-.5.3-1-.1-1-.9 0-1.8.6-2.1 1.5-.7zm20.5 8c0 .4-.3 1.1-.7 1.4-.9.9-4.4-2.3-3.7-3.4.6-1 4.4.7 4.4 2zm-16.9 7.8c.5 1.5.9 4.3.7 6.2-.4 4.3-2.8 5.5-2.8 1.4 0-1.5-.4-4.2-.9-6-1.4-4.9 1.2-6.3 3-1.6zm5 .8c-.1 1.5-2.4 1.2-2.9-.3-.3-.9.2-1.3 1.2-1 1 .1 1.7.7 1.7 1.3zm5.4 1.6c1.1 1.7-.1 2.1-1.5.4-.8-.9-.8-1.5-.2-1.5.6 0 1.4.5 1.7 1.1zm-14.8 8.6c-.4 1.7-.4 1.7-1.2 0-.4-.9-.4-2.5 0-3.5.8-1.6.8-1.6 1.2 0 .3 1 .3 2.6 0 3.5zM338 64c0 .5-.2 1-.4 1-.3 0-.8-.5-1.1-1-.3-.6-.1-1 .4-1 .6 0 1.1.4 1.1 1zm-18.5 11.4c-.8 5.2-2.5 5.3-2.5.1 0-4.4 1-6.9 2.2-5.7.5.5.7 3 .3 5.6zm4.5 6.1c0 1.4-.4 2.5-1 2.5-1.1 0-1.4-3.3-.3-4.3 1.1-1.1 1.3-.8 1.3 1.8zm-5.3 7.7c-.3 2.2-.4 2.1-1.1-.4-.5-1.6-.5-3.6 0-4.5.7-1.6.8-1.5 1.1.4.3 1.3.3 3.3 0 4.5zm5.7.6c-.9 3.7-2.2 4.9-3 2.8-.8-2.1 1.2-6.9 2.6-6.1.6.3.7 1.8.4 3.3zm-5.7 7.4c-.3.8-.6.5-.6-.6-.1-1.1.2-1.7.5-1.3.3.3.4 1.2.1 1.9zm9.3 1.2c0 1.8-1.7 2.9-3 2.1-.8-.5-.7-1.1.1-2.1 1.5-1.8 2.9-1.8 2.9 0zm-6 .6c0 .5-.2 1-.4 1-.3 0-.8-.5-1.1-1-.3-.6-.1-1 .4-1 .6 0 1.1.4 1.1 1zm22 3.5c-1.4 1.7-3 2-3 .6 0-.5.8-1.2 1.8-1.4.9-.3 1.9-.5 2.1-.6.2 0-.2.6-.9 1.4zm-37.9 5.6c.8 1.5.8 2.4 0 3.2-1.5 1.5-4.6-1.6-3.8-3.7.9-2.2 2.4-2 3.8.5zm6.9 1c0 .5-.7.9-1.5.9s-1.5-.7-1.5-1.5c0-.9.6-1.2 1.5-.9.8.4 1.5 1 1.5 1.5zm80-1.1c0 .5-.5 1-1.1 1-.5 0-.7-.5-.4-1 .3-.6.8-1 1.1-1 .2 0 .4.4.4 1zm-46.6 3.8c.3.5.2 1.8-.1 3-.6 2.3-2.8 2.8-5.3 1.2-1.2-.7-1.2-1.2.4-2.9 2-2.2 4.1-2.7 5-1.3zm-56 8.5c1.4 2.2-.1 3.6-4.4 3.9-3.1.3-3.5 0-3.8-2.4-.3-2.2.1-2.7 2.5-3.1 3.8-.5 4.5-.3 5.7 1.6zm62.1-.3c.3.6-.1 1.3-1 1.6-1.9.8-3 0-2-1.5.8-1.4 2.2-1.4 3-.1zm-43.5 2.5c0 1.8-.5 2.5-2 2.5-2.3 0-2.4-.4-1-3.1 1.5-2.7 3-2.4 3 .6zm9 8.5c0 3.1-2.5 4.8-3.3 2.1-.6-2.3 1-6.4 2.3-5.6.5.3 1 1.9 1 3.5zm41.2-2.3c2.9 2.6 2.1 3.4-1.7 1.6-1.9-.9-3.5-2-3.5-2.5 0-1.4 3.3-.9 5.2.9zm-80.2 2.2c0 .5-.9 1.9-2 3.2-1.9 2.3-1.9 2.3-2 .3 0-2 1.7-4.4 3.2-4.4.4 0 .8.4.8.9zm70 1.2c0 .6-.4.7-1 .4-.5-.3-1-1.1-1-1.6 0-.6.5-.7 1-.4.6.3 1 1.1 1 1.6zm-38 3.4c0 1.9-.5 4.6-1 6.1-.6 1.5-1.2 8.4-1.3 15.3-.2 10.6 0 12.6 1.3 12.6 1.1 0 1.7-1.7 2.2-6.7.3-3.7.9-7.2 1.3-7.8 1.5-2.4 2.2.4 1.9 7.5-.1 4.2.1 7.5.7 7.5.5 0 .9-.5.9-1 0-.6.5-1 1-1 1.8 0 1 2.8-.9 3.3-1.3.3-2.1 1.5-2.3 3.8-.4 4.1-2.5 4.9-3.3 1.2-1.1-4.9-1.4-5.3-3-4.7-.8.3-1.5 1.6-1.5 2.8 0 1.1-.4 2.7-.9 3.5-.8 1.3-1.2 1.3-2.6.1-.9-.8-3.8-1.4-6.3-1.5-4.6 0-4.7-.1-4.7-3.2-.1-2.3-1-4.3-3.3-6.6-2.4-2.5-3.1-3.9-2.5-5.3.8-2.3.8-7.3-.2-9.7-.9-2.2 1.7-2.4 3.5-.2.7.8 1.6 1.5 2 1.5 1.2 0 8-14.2 8-16.8 0-2.8.7-2.8 2.9-.1 2.2 2.8 6.3 1.8 6-1.4-.2-3.3 0-3.9 1.1-3.2.6.3 1 2.1 1 4zm10-1.5c0 .5-.5 1-1.1 1-.5 0-.7-.5-.4-1 .3-.6.8-1 1.1-1 .2 0 .4.4.4 1zm35 1.1c0 .5-.4.9-1 .9-.5 0-1-.7-1-1.6 0-.8.5-1.2 1-.9.6.3 1 1 1 1.6zm-16.9 1.2c-1.3 1.3-2.6.3-1.6-1.2.3-.6 1.1-.8 1.7-.5.6.4.6 1-.1 1.7zm-52.2 2.5c-1.3 1.5-3.3 4.5-4.4 6.5-2.2 4.1-3.5 4.7-3.5 1.7 0-3.4 2.7-7.6 6.2-9.8 4.1-2.6 4.7-2.1 1.7 1.6zm9.1-1.4c0 .7-.9 2.5-2 3.9s-2 3.5-2 4.6c0 1.2-.4 2.1-1 2.1-1.7 0-1.1-4.6 1-7.3 1.1-1.4 2-3.3 2-4.2 0-.9.5-1.3 1-1 .6.3 1 1.2 1 1.9zm20.2 2.8c-.8.8-.8 1.5-.1 2.4 1.1 1.3.4 3.4-1.1 3.4-1.7 0-1.9-3.2-.2-5.5.9-1.3 1.9-2.1 2.1-1.9.3.2-.1 1-.7 1.6zm20.2-.5c.4.5 1.7.8 2.9.8 2.4 0 4.1 4.8 2.7 7.6-1.8 3.3-1.1 6.6 2 9.2 3.7 3.2 3.7 4.1-.1 8.4-2 2.3-2.8 4.1-2.4 5.2.4.9.9 2 1.1 2.6.2.5-.9 2.4-2.4 4.2-3.4 3.9-9.9 5.2-9.5 1.8.2-1.1.5-7.9.7-15 .9-23 1.9-27.9 5-24.8zm-292 1.1c.3.5.8 2.8 1.2 5 .5 3.5.4 4.2-1 4.2-1.1 0-1.6-.9-1.6-2.8 0-1.5-.3-3.7-.6-5-.6-2.1.9-3.2 2-1.4zM357 143c0 1 .8 2.3 1.8 2.9 1.4.8 1.5 1.2.5 2.2-1.7 1.7-2.9.4-3.8-3.9-.4-2-.3-3.2.4-3.2.6 0 1.1.9 1.1 2zm9.4-.1c.3.5 0 2.1-.8 3.5l-1.4 2.7-.4-3.1c-.3-1.6-.2-3.2 0-3.5.8-.8 2-.6 2.6.4zm-94.9 5c.7 1.2-2.4 9.1-3.6 9.1-1.2 0-1.1-4.2.1-7.4 1-2.7 2.4-3.3 3.5-1.7zm52.9 1.2c-.3.5-1 .7-1.5.3-.5-.3-.7-1-.3-1.5.3-.5 1-.7 1.5-.3.5.3.7 1 .3 1.5zm25.3.4c.5 1.6-2.2 5.5-3.9 5.5-1.2 0-1-4.4.4-5.8 1.6-1.6 2.7-1.5 3.5.3zm-33.7 1.1c0 .9-.5 1.4-1.2 1.2-1.8-.6-2.1-2.8-.4-2.8.9 0 1.6.7 1.6 1.6zm-201 3.5c0 .5-.4.9-1 .9-.5 0-1-.7-1-1.6 0-.8.5-1.2 1-.9.6.3 1 1 1 1.6zm204-.2c0 .6-.4 1.3-1 1.6-.5.3-1-.1-1-.9 0-.9.5-1.6 1-1.6.6 0 1 .4 1 .9zm48 1.2c0 .5-.9.9-2 .9-1.9 0-2.6-1.1-1.4-2.3.8-.8 3.4.3 3.4 1.4zm-84.3 1.5c-.9.9-2.8-.6-2.1-1.8.4-.6 1-.6 1.7.1.6.6.8 1.3.4 1.7zm41.3-.5c0 .6-.4.7-1 .4-.5-.3-1-1.1-1-1.6 0-.6.5-.7 1-.4.6.3 1 1.1 1 1.6zm31 3.6c-.1 2.8-.3 3.4-1 2.2-.8-1.4-.3-5.9.6-5.9.2 0 .4 1.7.4 3.7zm-302 4.2c0 5.8-2.3 8.2-3.4 3.6-.7-2.7.8-6.5 2.4-6.5.6 0 1 1.3 1 2.9zm271-.5c0 .8-.4 1.7-.9 2.1-1.2.7-2.4-1.2-1.6-2.5.9-1.5 2.5-1.2 2.5.4zm37.5 8.2c-.3 1.9-1 3.4-1.5 3.4-1.4 0-1.2-6.7.2-9.3l1.3-2.2.3 2.4c.2 1.3.1 3.9-.3 5.7zM48 166.3c0 1.4-2 3.7-3.2 3.7-1 0-1.1-3.4-.1-4.3 1.1-1.2 3.3-.8 3.3.6zm64-.3c0 .5-.4 1-1 1-.5 0-1-.5-1-1 0-.6.5-1 1-1 .6 0 1 .4 1 1zm217 .6c0 .8-.5 1.2-1 .9-.6-.4-.8-1.1-.5-1.6.9-1.4 1.5-1.1 1.5.7zm-58 3c0 1.3-.4 2.4-1 2.4-.5 0-1-1.4-1-3.1 0-1.7.4-2.8 1-2.4.6.3 1 1.7 1 3.1zm17 .1c0 1.7-1 1.6-3.2-.4-2.6-2.3-2.2-3.5.7-2.1 1.4.6 2.5 1.7 2.5 2.5zm60.1.6c-1.6 1.6-2.6 0-1-1.9.9-1.1 1.5-1.2 1.7-.4.2.6-.1 1.7-.7 2.3zM60.6 172c.8 0 1.4.4 1.4 1 0 .5-.4 1-1 1-.5 0-.7.7-.4 1.5.4.8 1.3 1.5 2.1 1.5 2.2 0 1.3 7.4-.9 7.8-1.2.2-1.9-.5-2.3-2.2-.3-1.4-.7-3.7-1-5.1-.4-1.8-1-2.3-2.2-1.8-1.3.5-1.5.2-1.1-1.5.4-1.2.1-2.5-.5-2.9-.7-.4-.2-.9 1.3-1.3 1.6-.4 2.6-.2 2.8.7.2.7 1 1.3 1.8 1.3zm40.4 1.6c0 2.4-.5 3.4-1.5 3.4-.8 0-1.5-.8-1.6-1.8 0-1-.3-1.2-.6-.5-.7 2-2.3 1.5-1.6-.5.9-2.6 3.4-5.2 4.4-4.6.5.3.9 2.1.9 4zm180.7-1.9c.9 2.3-1.3 3.9-3.2 2.3-2.3-1.9-2-4.9.6-4.3 1.1.3 2.3 1.2 2.6 2zm72.8-.7c.3.5.1 1-.4 1-.6 0-1.1-.5-1.1-1 0-.6.2-1 .4-1 .3 0 .8.4 1.1 1zm-307.3 2.5c0 .5-.5 1.1-1.1 1.3-.6.2-1.1-.4-1.1-1.3s.5-1.5 1.1-1.3c.6.2 1.1.8 1.1 1.3zm3.9 1.8c-.8.8-1.1.7-1.1-.4 0-2 1.3-3.4 1.8-1.9.3.7-.1 1.7-.7 2.3zm58.3.6c1 1.8 1.2 3.8.7 5.6-1.3 5-2.6 3.7-2.6-2.5 0-3.3.1-6 .2-6s.9 1.3 1.7 2.9zm258.4 1.4c.4 2.9-1.2 3.7-2.2 1.1-1-2.6-.7-4.6.7-4.2.6.3 1.3 1.7 1.5 3.1zm-79-1.1c1.6 1.6 1.5 2.8-.2 2.8s-3.8-2.4-2.9-3.3c.9-1 1.7-.9 3.1.5zm-184.7 2.1c-1.3 1.3-2.6.3-1.6-1.2.3-.6 1.1-.8 1.7-.5.6.4.6 1-.1 1.7zm328.2 1c-.3.5-.9.3-1.4-.4-.4-.7-.5-1.7-.2-2.2.3-.5.9-.3 1.4.4.4.7.5 1.7.2 2.2zM48 177.9c0 .6-.4 1.3-1 1.6-.5.3-1-.1-1-.9 0-.9.5-1.6 1-1.6.6 0 1 .4 1 .9zm8.8 2.4c-.7 1.4-1.3 1.7-1.6.9-.6-1.9.6-4.4 1.8-3.7.7.4.6 1.4-.2 2.8zm219.2 2.1c0 2.4-.2 2.7-1.5 1.6-1.5-1.3-2-5.1-.8-6.3 1-1.1 2.3 1.5 2.3 4.7zm-223.5-.3c.7 4.3.3 5.5-1.4 4.4-1.3-.8-1.5-8.5-.2-8.5.5 0 1.2 1.8 1.6 4.1zm269.7.1c.9 0 2.2.6 2.8 1.4 1 1.1.7 1.6-1.6 2.4-3.4 1.3-8.7.5-10.4-1.5-1.9-2.3-.2-3.6 3.8-2.9 2 .4 4.5.7 5.4.6zm-217.4 1c-.6 1.8-2.8 2.1-2.8.4 0-.9.7-1.6 1.6-1.6.9 0 1.4.5 1.2 1.2zm184.3 2.9c2.4 2.4 2.1 4.3-1 4.7-2.5.4-5-2.2-5.1-5.1 0-2.4 3.5-2.2 6.1.4zm64.1.1c-.7.7-1.2.8-1.2.2 0-1.4 1.2-2.6 1.9-1.9.2.3-.1 1.1-.7 1.7zM307 186c0 1.3-3 1.3-5 0-1.1-.7-.7-1 1.8-1 1.7 0 3.2.4 3.2 1zm-202 1.9c0 2-1.7 3.7-2.7 2.8-.7-.8.7-4.7 1.8-4.7.5 0 .9.9.9 1.9zm233.3.2c-.6.6-1.9.9-2.9.6-1.7-.3-1.6-.5.6-1.4 2.8-1.2 3.9-.8 2.3.8zm21.7.8c-.6 1.2-1.6 1.9-2.1 1.5-.6-.4-.4-1.3.7-2.5 2.1-2.4 2.9-1.8 1.4 1zm-263 .6c0 .8-.4 1.5-1 1.5-.5 0-1-.7-1-1.5s.5-1.5 1-1.5c.6 0 1 .7 1 1.5zm230 .5c-.8.5-2.2 1-3 1-1.3 0-1.3-.1 0-1 .8-.5 2.2-1 3-1 1.3 0 1.3.1 0 1zm-13 1c0 .5-.4 1-1 1-.5 0-1-.5-1-1 0-.6.5-1 1-1 .6 0 1 .4 1 1zm128-.1c0 1.4-1.8 2.3-3 1.6-.6-.4-.8-1.1-.5-1.6.8-1.2 3.5-1.2 3.5 0zm-135.7 2.4c2 1 3.7 2.2 3.7 2.7 0 2-3 .9-6.2-2.1-3.5-3.2-3.4-3.3 2.5-.6zm46.1 1.5c-2 3.2-4.4 5.1-6.1 5.2-2.1 0-1.5-1.5 2.3-5.4 4-4.1 6.5-3.9 3.8.2zM344 193c0 1-4.1 3-6.1 3-1.6 0 .1-2.1 2.5-3 2.9-1.2 3.6-1.2 3.6 0zm-60.2 2c.7 1.2 1 2.6.6 3.2-.6 1-3.3-2.5-3.4-4.5 0-1.4 1.5-.7 2.8 1.3zm48.2-.5c-.7.8-2.1 1.5-3.2 1.5s-2.9.5-4 1.1c-1.4.8-2.3.8-3.1 0-1.1-1.1-1.1-1.2 5.8-2.9 5.7-1.4 5.9-1.4 4.5.3zm98-.5c2.1 1.3 1 1.8-3.2 1.2-2.1-.2-3.5-.8-3.2-1.3.7-1.2 4.5-1.1 6.4.1zm-324.9 6.3c-.7.7-1.5.6-2.5-.3-2.2-1.7-.9-3.2 1.6-1.9 1.4.8 1.7 1.4.9 2.2zm198.6-1.2c4.8 2.3 5.2 4.2 1 4.7-2.8.3-6.7-2.7-6.7-5.3 0-2 .5-1.9 5.7.6zM97 201.4c0 .8-.4 1.7-.9 2.1-1.2.7-2.4-1.2-1.6-2.5.9-1.5 2.5-1.2 2.5.4zm235.6.1c-3.2 2.4-8.4 1.7-5.9-.8.3-.4 2.2-.7 4.2-.7 3.4.1 3.5.2 1.7 1.5zm8.4-.5c0 .5-.9 1.4-2 2-2.2 1.2-2.7.1-.8-1.8 1.4-1.4 2.8-1.6 2.8-.2zm-236.2 5.8c.2 1.3-.3 2.5-1.3 2.8-2.1.9-2.4.4-1.8-2.9.6-3.2 2.6-3.1 3.1.1zm213-1.1c-1 .2-2.8.2-4 0-1.3-.2-.5-.4 1.7-.4 2.2-.1 3.2.1 2.3.4zM53 210.5c0 2.5-1.4 3.4-2.4 1.6-.8-1.2.3-4.1 1.5-4.1.5 0 .9 1.1.9 2.5zm262-.7c0 .4-.5 1.3-1.2 2-.9.9-.9 1.5 0 2.4 1.7 1.7 1.5 2.9-.5 2.6-1.5-.2-1.9.7-2.5 5.2-.3 3-.6 8.4-.7 11.9-.1 5.1.2 6.2 1.1 5.3 2-2 3.1-1.4 2.4 1.3-.7 2.7.3 3.2 2.2 1.3.9-.9 1.2-.8 1.2.5 0 .9-.7 1.7-1.5 1.7-1.6 0-2.1 2.6-2.9 13.7-.5 7.9-2.1 12.2-3.8 10.5-1.3-1.3-1.4-25.4-.2-39.2.5-5.2.8-11.9.8-14.8-.1-5.1 0-5.2 2.8-5.2 1.5 0 2.8.4 2.8.8zm115 1.2c0 .5-.7 1-1.5 1s-1.5-.5-1.5-1c0-.6.7-1 1.5-1s1.5.4 1.5 1zm-325.5 2.1c.3.4.3 2-.1 3.4-.4 1.8-1.3 2.5-3 2.5-2.1 0-2.3-.4-1.8-2.4.3-1.4.1-2.7-.6-3.1-.9-.6-.9-.9 0-1.5 1.4-.9 4.8-.2 5.5 1.1zm219 1c-.4.5-1.6.9-2.8.9-2.1-.1-2.1-.1-.3-1.5 2-1.5 4.1-1.1 3.1.6zm101.9.9c-.5 2-.1 3.4 1.1 4.6 1.1 1.1 1.4 2.5 1 4.1-.4 1.6.1 3.7 1.3 5.7 1.6 2.7 1.9 5.7 2.2 18.6.5 24.4.7 28.1 1.8 34 1.1 5.7 1.3 9 3.1 40 1.5 26.5 1.8 28.7 4.5 32.3 1.3 1.8 2.4 4.7 2.4 6.6 0 1.9.6 3.7 1.3 4.2.6.4.9 1.4.6 2.3-.4.9-.2 1.6.3 1.6 1.5 0 1 9.8-.6 11.1-1.1.9-1.4.6-1.5-1.7 0-1.6-.4-3.8-.9-4.9-.6-1.4-.9.3-1.1 5.5-.1 4.1-.1 8.2 0 9 .1.8.5 3.5.8 6 .4 2.5.7 7.6.7 11.5-.1 5.7-.4 7.1-1.7 7.3-2.3.5-2.5-.8-4.2-33.8-.8-16.2-1.7-33.1-2-37.5-.3-4.4-.5-9.4-.5-11 0-1.7-.6-8.6-1.5-15.5-.8-6.9-1.9-19.4-2.4-27.9-.5-8.4-1.4-15.8-2-16.4-1.2-1.2-.3-16.2 1.1-19 .6-1.2.5-2.3-.2-3.2-.7-.8-1-1.8-.7-2.2.2-.4 0-3.7-.5-7.3-.5-3.6-1.1-8.7-1.4-11.3-.3-2.6-1.3-6.2-2.4-7.9-1.5-2.4-1.6-3.5-.8-5.4 1.6-3.3 2.9-3 2.2.6zm-179.9 1.1c.4.6-.2 1.3-1.4 1.6-1.2.3-2.1 1.2-2.1 1.9 0 .8-.4 1.4-.9 1.4-1.2 0-2.4-3.7-1.6-5 .8-1.3 5.2-1.3 6 .1zm4.3 2.5c-.4.3-1.2-.5-1.8-1.8-1.2-2.2-1.2-2.2.6-.6 1 1 1.5 2 1.2 2.4zm109.5 1.7c-.3 2-1 3.7-1.4 3.7-1.1 0-1.1-1.6-.3-5.9.9-4.5 2.5-2.4 1.7 2.2zm-125.7.4c-1 1-1.9-.5-1-1.8.6-1.1.8-1.1 1.2 0 .2.7.1 1.5-.2 1.8zm4.8-1.9c.2.4.1 1.4-.4 2.2-.7 1.1-1.2 1.2-2.1.3-.6-.6-.8-1.6-.5-2.2.8-1.3 2.3-1.4 3-.3zm76.6 3.1c0 2.6-1 5.1-2.1 5.1-1 0-1.2-5.3-.2-6.3 1.2-1.3 2.3-.7 2.3 1.2zm54 1c0 2.3-1.6 3.6-2.5 2.1-.9-1.4.1-4 1.5-4 .5 0 1 .9 1 1.9zm-265 .6c0 .8-.9 1.5-2 1.5s-2-.7-2-1.5.9-1.5 2-1.5 2 .7 2 1.5zm134.6 2.2c-1 1-1.9-.5-1-1.8.6-1.1.8-1.1 1.2 0 .2.7.1 1.5-.2 1.8zM57 225.6c0 .8-.5 1.2-1 .9-.6-.4-.8-1.1-.5-1.6.9-1.4 1.5-1.1 1.5.7zm265 1.4c0 .5-.4 1-1 1-.5 0-1-.5-1-1 0-.6.5-1 1-1 .6 0 1 .4 1 1zm-227.4 2.7c-1 1-1.9-.5-1-1.8.6-1.1.8-1.1 1.2 0 .2.7.1 1.5-.2 1.8zm9.4-.6c0 .5-.9.9-2 .9-2.2 0-2.7-1.6-.7-2.3 1.5-.5 2.7.1 2.7 1.4zm132 0c0 1.4-2.7 1-3.3-.5-.4-1 0-1.2 1.4-.9 1 .3 1.9.9 1.9 1.4zm13 3c0 1-.4 1.9-1 1.9-.5 0-1-1.2-1-2.6 0-1.4.4-2.3 1-1.9.6.3 1 1.5 1 2.6zm65-2.2c0 .6-.4 1.3-1 1.6-.5.3-1-.1-1-.9 0-.9.5-1.6 1-1.6.6 0 1 .4 1 .9zm-222.7 3.3c-.8 4.6-1.3 4.8-1.3.5 0-2.1.4-3.7 1-3.7.5 0 .7 1.4.3 3.2zm9.9-.7c2.1 0 2.3.5 2.6 5.6.2 3.1-.1 7.8-.5 10.5l-.9 4.9-4.1-.1c-4-.1-4.2 0-3.6 2.6.3 1.5 0 3.1-.6 3.4-.6.4-.8 1.8-.5 3.1.4 1.7 0 2.6-1.5 3.5-2 1-3.1-.2-1.2-1.4.8-.5 1.1-3.1 1.2-10.6 0-4.6.7-5.5 2.8-3.5 3.7 3.2 8.9-.4 6.3-4.5-.6-1.1-1.2-3.9-1.3-6.2 0-2.4-.3-3.7-.6-3.1-.2.7-1.3 1.3-2.4 1.3-1.1 0-1.9.7-1.9 1.6 0 .8-.3 1.3-.8 1.1-1.2-.8-.6-7.2.8-6.9.6.1 1.4-.7 1.7-1.9.4-1.5.8-1.7 1.4-.8.4.8 1.8 1.4 3.1 1.4zm-43.4 3.2c-.3 3-2.3 4.1-3.1 1.8-.9-2.1.2-4.5 2-4.5 1 0 1.3.9 1.1 2.7zM254 234c0 .5-.5 1-1.1 1-.5 0-.7-.5-.4-1 .3-.6.8-1 1.1-1 .2 0 .4.4.4 1zm-201.2 3.2c-.3 3.7-2.3 4.1-2.4.5-.1-2.7.4-3.7 1.7-3.7.6 0 .9 1.5.7 3.2zm261.2-2.3c0 .6-.4 1.3-1 1.6-.5.3-1-.1-1-.9 0-.9.5-1.6 1-1.6.6 0 1 .4 1 .9zm-68 1.1c0 .5-.9 1.9-1.9 2.9-1.7 1.7-2 1.7-2.5.4-.4-.9-.1-2.2.5-2.9 1.3-1.6 3.9-1.9 3.9-.4zm112.9.9c.8.5 1.1 1.6.7 2.6-.5 1.3-.9 1.5-2 .6-1.1-1-1.3-.3-1.2 3.5 0 3-.4 4.9-1.1 5.1-.9.3-1.3-.7-1.3-3.1 0-2.5-.5-3.6-1.5-3.6-.9 0-1.2-.6-.8-1.8 1.4-4 4.1-5.3 7.2-3.3zM321 238c0 .5-.5 1-1.1 1-.5 0-.7-.5-.4-1 .3-.6.8-1 1.1-1 .2 0 .4.4.4 1zm50 1.7c0 1.4-1.5 3-3.7 4.2-3.5 1.8-4.9 1.3-2.5-.9 1.2-1.2 2.2-2.5 2.2-3 0-.6.9-1 2-1s2 .3 2 .7zm-124 3.9c0 1.4.4 3.3.9 4.2.5.9 1.2 6.7 1.5 12.8.7 13.8 5.8 35.9 8.3 35.9 2 0 2.4 1.2.8 2.5-1.8 1.5-1.9 2.9-.5 6.5.9 2.3 1.3 2.5 2.5 1.5.8-.7 1.6-.9 1.6-.4.3 2 .6 3 1.4 4.8.6 1.3.3 2.2-.8 3.1-2.3 1.7-2.1 2.8.3 2 1.4-.4 2-.2 2 .9 0 .8-.4 1.8-1 2.1-1.5.9-1.2 2.5.5 2.5.9 0 1.5.9 1.5 2.1 0 1.5-.5 1.9-1.5 1.5-.9-.3-1.5 0-1.5.9 0 .8.9 1.5 2 1.5 2.1 0 2.8 2.4 1 3.5-1.2.8-1.3 7.2-.1 7.9.5.3 1.1-.1 1.5-.9.3-.8 1-1.5 1.6-1.5 1.6 0 1.2 3.1-.7 5.2-.9 1.1-1.1 1.8-.5 1.8.7 0 1.2-.5 1.2-1.1 0-.5.5-.7 1-.4.6.3 1 1.7 1 3s-.4 2.7-1 3c-1.2.7-1.4 7.5-.2 7.5.4 0 1.3-.5 2-1.2.9-.9 1.2-.8 1.2.4 0 .9-.4 2-1 2.3-.5.3-1 1.4-1 2.3 0 1.2.3 1.3 1.2.4 1.6-1.6 2.8-1.5 2.8.3 0 .9-.7 1.8-1.5 2.1-.8.4-1.5 1.5-1.5 2.6 0 1.7.2 1.8 1.5.8 2.3-1.9 2.9-.5 1.5 3-.7 1.7-1 3.3-.6 3.7.3.3.6-.1.6-1 0-1 .5-1.7 1-1.7 1.3 0 1.3 2.3-.1 3.7-.6.6-.7 3-.3 6.4.5 3 1 4.6 1.2 3.6.5-2.4 3.2-2.1 3.2.4 0 1.1.5 2.9 1.1 4 1 1.9 1.1 2 2.3.3 1.4-1.9 3.6-1.2 3.6 1.2 0 .8-.9 1.4-2.1 1.4-2.9 0-5.9 1.8-5.4 3.3.3.6.6 3 .8 5.2.2 2.1.9 4.1 1.6 4.3.6.2 1.1-.1 1.1-.8 0-.6.5-.8 1-.5 1.6 1 1.2 3.5-.5 2.9-1.2-.5-1.4.4-1.1 5.2.2 3.3.6 6.6.9 7.4.3.8.8 3.4 1.1 5.8.4 2.4 1.2 5.2 1.8 6.2 1 1.5 1 2.2 0 3.2-.6.6-1.2 2.1-1.3 3.2-.1 3.3-2.7-7.3-3.4-13.9-1.2-10.4-1.4-11.9-2-15-.4-1.7-2-9.7-3.6-17.8-1.7-8.1-3.2-15.4-3.5-16.1-.3-.8-1.4-5.1-2.4-9.7s-2.6-10.4-3.4-12.8c-1.6-4.2-5.1-19.2-9.6-41.6-1.2-6.1-2.8-13.3-3.5-16-.7-2.8-2-8.6-3-13-.9-4.4-2.1-9.4-2.7-11-2.1-6.7-4.7-25.9-3.6-27.2 1.7-2 2.8-1.5 2.8 1.3zm5.3 1.6c.2 1.8.2 3.7-.1 4.2-.7 1.2-2-2.1-2.1-5.2-.1-3.4 1.6-2.6 2.2 1zm-157.9.9c-.3.5-1 .7-1.5.3-.5-.3-.7-1-.3-1.5.3-.5 1-.7 1.5-.3.5.3.7 1 .3 1.5zm-43 2.6c-1 4.6-1.3 5.5-2.2 4.9-.6-.4-.7-2.6-.3-6.9.1-.4.8-.7 1.6-.7 1.2 0 1.4.7.9 2.7zm310.6.9c0 1.6-1.6 1.9-2.5.4-.8-1.3.4-3.2 1.6-2.5.5.4.9 1.3.9 2.1zm-41.9 1.7c-1.6 1.6-2.6 0-1-1.9.9-1.1 1.5-1.2 1.7-.4.2.6-.1 1.7-.7 2.3zm42.9 3.1c0 1.4-.5 2.8-1 3.1-1.3.8-2.4-2-1.6-4 .9-2.4 2.6-1.7 2.6.9zm-5.4.1c-.3.8-.9 2.2-1.3 3.2-.4 1.2-.3 1.4.6.8 2-1.2 3.1 1.4 3.1 6.9 0 3.7-.3 4.7-1.1 3.9-.6-.6-1.1-2.3-1.1-3.7 0-1.5-.4-2.9-.9-3.2-1.2-.7-1.1-.4.6 9.1.8 4.4 1.5 8.2 1.5 8.5 0 .3.4-.2 1-1 1.2-1.9 1.6-1.3 2.4 3.4.6 3.3.5 3.8-.8 3.3-1-.4-1.6-.1-1.6.9 0 .9.8 1.8 1.8 2.1 2.8.7 6.9 22.3 4.2 22.3-.5 0-1.2-1.2-1.5-2.8-.3-1.5-1.5-5-2.7-7.7-1.9-4.7-3.3-11.3-4.4-21.5-.2-2.5-.9-7-1.5-10-2.6-12.4-2.4-16 .7-16 1 0 1.4.5 1 1.5zm56.6 1.7c-.9.9-1.2.7-1.2-1.2s.3-2.1 1.2-1.2c.9.9.9 1.5 0 2.4zm-215.6 1.4c-1.4 1-2.3 1.1-3 .3-.8-.7-.5-1.5.8-2.5 1.4-1 2.3-1.1 3-.3.8.7.5 1.5-.8 2.5zm121.1 1.1c-1.6 1.6-1.7 1.6-1.7-.3 0-1.1.3-2.4.7-2.7.4-.4 1.1-.3 1.7.3.7.7.5 1.6-.7 2.7zM103 257.4c0 .8-.4 1.7-.9 2.1-1.2.7-2.4-1.2-1.6-2.5.9-1.5 2.5-1.2 2.5.4zm151.5-.4c-.3.5-.1 1 .4 1 .6 0 1.1.4 1.1 1 0 1.7-1.4 1.1-2.8-1-1-1.7-1-2 .4-2 .8 0 1.2.4.9 1zm-155.8 1.6c-.3.3-1.2.4-1.9.1-.8-.3-.5-.6.6-.6 1.1-.1 1.7.2 1.3.5zm94.1 2.7c3 1.2 2.8 1.3-5.9 2.5-4.9.7-9.3 1.3-9.8 1.5-.5.1-1.1-.3-1.2-.8-.6-1.5 6.2-4.5 10.2-4.5 2 0 5 .6 6.7 1.3zM102 263c0 .5-.5 1-1.1 1-.5 0-.7-.5-.4-1 .3-.6.8-1 1.1-1 .2 0 .4.4.4 1zm218 .4c0 .8-.4 1.8-1 2.1-.5.3-1-.3-1-1.4 0-1.2.5-2.1 1-2.1.6 0 1 .6 1 1.4zm44 .7c0 .5-.4.9-1 .9-.5 0-1-.7-1-1.6 0-.8.5-1.2 1-.9.6.3 1 1 1 1.6zm-265.1-.4c0 .5-.4 1.7-.9 2.8-.8 1.8-.9 1.7-.9-.8-.1-1.5.4-2.7.9-2.7.6 0 1 .3.9.7zm159.1.8c0 1.6-2.7 3.2-3.7 2.1-.7-.7 1.6-3.6 2.8-3.6.5 0 .9.7.9 1.5zm110.8-.4c-.2.6-.8 1-1.3 1s-1.1-.4-1.3-1c-.2-.6.4-1.1 1.3-1.1s1.5.5 1.3 1.1zM425 269c0 5.7-1.1 7.8-2.4 4.5-.8-2.1.5-10.5 1.5-10.5.5 0 .9 2.7.9 6zm-214.1-3.1c1.2.8 1.2 1.3-.3 3.5-1.2 2-2.5 2.6-5.1 2.6-4.2 0-4.4-1.2-.9-4.5 2.9-2.7 4.1-3 6.3-1.6zm-12.9.9c0 1.3-5.6 4.1-12.5 6.3-3.7 1.1-7.4 2.3-8.1 2.6-.8.3-1.4-.1-1.4-1.1 0-2.4 8.5-6.8 14.8-7.6 3.1-.4 6-.8 6.5-.9.4 0 .7.3.7.7zm219.5 1.2c.3.5-.4 1.9-1.6 3.1-2.6 2.6-4.7 1.2-3-2 1.2-2.2 3.6-2.8 4.6-1.1zm-53 1c.3.5.1 1-.4 1-.6 0-1.1-.5-1.1-1 0-.6.2-1 .4-1 .3 0 .8.4 1.1 1zM94 270.4c0 .8-.4 1.8-1 2.1-.5.3-1-.3-1-1.4 0-1.2.5-2.1 1-2.1.6 0 1 .6 1 1.4zm165 .6c0 1.1-.4 2-.9 2-1.4 0-2.3-1.8-1.6-3 1-1.7 2.5-1.1 2.5 1zm4-1c0 .5-.4 1-1 1-.5 0-1-.5-1-1 0-.6.5-1 1-1 .6 0 1 .4 1 1zm106.8.1c-.2.6-.8 1-1.3 1s-1.1-.4-1.3-1c-.2-.6.4-1.1 1.3-1.1s1.5.5 1.3 1.1zM253 271c0 .5-.4 1-1 1-.5 0-1-.5-1-1 0-.6.5-1 1-1 .6 0 1 .4 1 1zm57.3 2.1c-.8.8-.7 1.9.1 4.1.9 2.6.8 3.2-.8 4.4-1.7 1.2-1.8 1.4-.3 1.4 2.2 0 2.3 4.3.2 6-1.1.9-1.3 1.6-.5 2.4 1.3 1.3 1.3 12.3-.1 13.2-.6.4-.8 2-.5 3.9.4 2 .2 3.6-.4 4-.8.5-.8 1.1 0 2 .7.8.9 1.9.5 2.6-1.1 1.6-1.5 18-.6 19.9.5.8 0 4-1 7.5l-1.9 6 .5-29c.6-28.3 1.7-43.6 3.6-48.4.5-1.3 1.3-2.1 1.6-1.7.4.3.2 1.1-.4 1.7zm-259.7 2.2c-1.6 1.6-2.6 2.1-2.6 1.3 0-1.3 4.1-4.7 4.8-4.1.2.2-.8 1.4-2.2 2.8zM98 273c0 .5-.2 1-.4 1-.3 0-.8-.5-1.1-1-.3-.6-.1-1 .4-1 .6 0 1.1.4 1.1 1zm4 1c0 1.1-.7 2-1.5 2-1.7 0-1.8-.2-.9-2.4.9-2.3 2.4-2 2.4.4zm56-.1c0 1.6-7.2 7-10.8 8.2-8.1 2.7-5.1-3.8 3.3-7.1 5.6-2.1 7.5-2.4 7.5-1.1zm34.9.7c-1.4 1.7-8.2 5.4-9.9 5.4-.5 0-1-.6-1-1.4 0-1.2 2-2.2 11.9-5.5.2 0-.2.6-1 1.5zm-103.1 4.9c0 3.1-.5 5.8-1.1 6.2-.8.5-.7-5.1.3-11.5 0-.1.2-.2.4-.2s.4 2.5.4 5.5zm109.7-4.5c-.3.5-1.1 1-1.6 1-.6 0-.7-.5-.4-1 .3-.6 1.1-1 1.6-1 .6 0 .7.4.4 1zm60.1 1.7c-1 1-1.9-.5-1-1.8.6-1.1.8-1.1 1.2 0 .2.7.1 1.5-.2 1.8zm4.9-1.7c.3.5.1 1-.4 1-.6 0-1.1-.5-1.1-1 0-.6.2-1 .4-1 .3 0 .8.4 1.1 1zm106 0c.3.5-.1 1-.9 1-.9 0-1.6-.5-1.6-1 0-.6.4-1 .9-1 .6 0 1.3.4 1.6 1zm-277 2.1c-1 1.5-2.5 1-1.9-.6.4-.8 1-1.2 1.5-.9.5.3.7 1 .4 1.5zm225.2-.4c-.9.9-1.9 1.4-2.3 1.1-1-1 .6-2.8 2.4-2.8 1.5 0 1.5.1-.1 1.7zm-145.9.5c-.5 1.6-8.6 5.8-11.1 5.8-2.9 0-1.5-2.2 2.9-4.7 4.3-2.5 8.8-3.1 8.2-1.1zM98 278.5c0 .8-.7 1.5-1.5 1.5-1.6 0-2-1.2-.8-2.3 1.1-1.2 2.3-.8 2.3.8zm162.5.5c.3.5.1 1-.4 1-.6 0-1.1-.5-1.1-1 0-.6.2-1 .4-1 .3 0 .8.4 1.1 1zm106 2.9c-.3.5-.1 1.2.4 1.6 1.2.7.3 3.5-1.1 3.5-.5 0-.8-.8-.6-1.8.1-.9-.1-2.3-.6-3-.4-.7-.5-2.1-.1-3 .6-1.6.7-1.6 1.6.1.6.9.8 2.1.4 2.6zm-311.3 1.8c.3 5.2-.9 10.6-2.2 9.8-1.4-.9-.7-14.5.7-14.5.7 0 1.3 1.9 1.5 4.7zm46.3-2.2c0 1-.6 2-1.2 2.2-.8.3-1.3-.5-1.3-2.2 0-1.7.5-2.5 1.3-2.3.6.3 1.2 1.3 1.2 2.3zm36.8-1.9c2.1 2.2-8.1 8.4-13.8 8.4-5.1 0-1.4-3.8 6.9-7.1 4.6-1.9 6-2.2 6.9-1.3zm55.5 2.8c0 1.9.3 4 .7 4.6.4.7-.2 1.4-1.4 1.7-3.3.8-2.5 3 2 5.9l4.1 2.6-.7 6.1c-.4 3.4-.9 10.4-1.1 15.6-.2 5.2-.9 10-1.5 10.7-1.1 1.4-4 1.1-12-1.1-3-.8-5.1-1-6.2-.3-1.6.9-1.6 1.1.3 3.5 3.5 4.5 2.8 5.6-3.7 4.9-3.2-.3-9-.8-12.8-1.1-3.9-.3-8.3-.9-10-1.3l-2.9-.8 3.3-1.7c1.9-.9 4-1.7 4.8-1.7 1.3 0 2.3-.4 8.1-3.4 1.7-1 3.7-1.4 4.2-1.1 1.7 1.1 4-1.5 4-4.6 0-1.5.5-3.1 1-3.4.6-.3 1-1.8 1.1-3.3 0-1.5.3-2.1.6-1.5 1 2.5 2.4 1.2 5.4-5.2 2.3-4.8 3.2-8.3 3.3-12.8.3-7 2.7-12.9 5.9-14.5 3.3-1.6 3.5-1.5 3.5 2.2zm60.8-.7c-1 1-1.9-.5-1-1.8.6-1.1.8-1.1 1.2 0 .2.7.1 1.5-.2 1.8zm-161.3.8c-.3.8-.9 1.5-1.4 1.5-1 0-1.2-2.4-.3-3.3 1.1-1.1 2.4.3 1.7 1.8zm63-.1c.7 1.8-3.6 5.9-11.5 10.7-5.9 3.7-9.8 4.9-9.8 3.1 0-1.4 6.3-6.8 11.1-9.5 2.5-1.4 5.1-3.3 5.9-4.1 1.6-2 3.6-2.1 4.3-.2zm40.7-.4c0 .5-.4 1-1 1-.5 0-1-.5-1-1 0-.6.5-1 1-1 .6 0 1 .4 1 1zm-17.4 3.4c-1.1.6-2.8 1.9-3.8 2.9-3.1 3-8.2 5.7-10.5 5.7-3.5 0-2.8-1.7 2-4.7 2.3-1.5 5.5-3.8 7-5 2.4-1.9 3.2-2.1 5-1.1 2.1 1.1 2.1 1.2.3 2.2zm259-1.8c-.3.9-.6 2-.6 2.5s-.4.9-1 .9c-1.1 0-1.4-3.3-.3-4.3 1.2-1.3 2.5-.7 1.9.9zm-342 3.1c-1.1 1.1-1.9-.6-1.1-2.4.8-1.7.8-1.7 1.2 0 .3 1 .2 2.1-.1 2.4zm276.4-2.2c1 1.2.9 1.5-.8 1.5-1.1 0-2.2-.7-2.6-1.5-.3-.9 0-1.5.8-1.5.7 0 1.9.7 2.6 1.5zm-110.3.1c-.3.3-1.2.4-1.9.1-.8-.3-.5-.6.6-.6 1.1-.1 1.7.2 1.3.5zm55.1 2.6c-.6 1.8-2.8 2.1-2.8.4 0-.9.7-1.6 1.6-1.6.9 0 1.4.5 1.2 1.2zm-216.6 2.4c-.3 2-5.3 6.7-6.1 5.8-.2-.2.5-1.8 1.7-3.4 1.2-1.6 2.2-3.4 2.2-4 0-.7.6-1 1.3-.7.6.2 1.1 1.3.9 2.3zm-51.2-.2c0 .8-.4 1.8-1 2.1-.5.3-1-.3-1-1.4 0-1.2.5-2.1 1-2.1.6 0 1 .6 1 1.4zm43-1c0 .3-.4.8-1 1.1-.5.3-1 .1-1-.4 0-.6.5-1.1 1-1.1.6 0 1 .2 1 .4zm42.4 1c-1 2.7-12.8 9.5-14.1 8.2-1.1-1 1.2-2.8 7.5-6.1 3.7-1.9 6.8-3.4 6.9-3.5.1 0 0 .6-.3 1.4zm127.4.4c.6 1.8-1.5 1.4-2.2-.4-.4-1-.1-1.4.6-1.2.6.2 1.4 1 1.6 1.6zm-143.9.6c1 1.2.9 1.7-.6 2.4-1.7.9-5.5 1.6-7.8 1.3-1.3-.1 4.6-5 6.1-5.1.6 0 1.7.6 2.3 1.4zm39.8.4c-.9 1-1.4 2.7-1.1 3.8.7 2.5-2.5 4.9-9 6.6-3.3.9-4.9.9-5.7.1-1.2-1.2 2.9-4.7 11-9.5 5.4-3.2 7.1-3.5 4.8-1zm216.6.8c-.6 1.7-4.4 1.5-5-.3-.2-.6.6-1.3 1.9-1.5 3-.5 3.8-.1 3.1 1.8zm-283.7 2.1c-1 1-1.9-.5-1-1.8.6-1.1.8-1.1 1.2 0 .2.7.1 1.5-.2 1.8zm352-.3c.9 3.8.1 8.1-1.6 8.1-.9 0-1.4-.7-1.2-1.8.2-.9-.2-1.7-.8-1.7-.5 0-1 .9-1 2 0 2.1-1.4 2.7-2.5 1.1-.3-.5.9-2.1 2.7-3.5 2.6-2 3-2.8 2-3.8-1.6-1.6-1.5-2.8.3-2.8.8 0 1.7 1.1 2.1 2.4zm-355.3.6c-.3 1.1-.7 2-.9 2-.2 0-.4-.9-.4-2s.4-2 .9-2 .7.9.4 2zm91.7-.4c0 .2-1.2.4-2.7.4-2.1 0-2.4-.3-1.4-.9 1.3-.8 4.1-.5 4.1.5zm55.9 1.3c.6 1 .7 2.1.4 2.5-.7.7-4.3-2.3-4.3-3.6 0-1.6 2.9-.8 3.9 1.1zm-143.1 2.3c-.4 2.7-2.8 3.6-2.8 1 0-2 .8-3.2 2.2-3.2.5 0 .8 1 .6 2.2zm6.3 5.1c-1.7 1.7-2.3-1.6-.9-4.9l1.2-2.9.4 3.4c.2 1.8-.1 3.8-.7 4.4zm152.4.1c.5 3.8.4 4.7-.7 4.4-1.6-.6-3.3-8-2.4-10.5.6-1.5.9-1.6 1.5-.3.5.8 1.2 3.7 1.6 6.4zm14-6.5c.7 1.2-1.2 2.4-2.5 1.6-1.1-.7-.4-2.5 1-2.5.5 0 1.1.4 1.5.9zm51.3.8c-.4 2.2-2.2 2-2.6-.1-.2-1 .3-1.6 1.3-1.6s1.5.7 1.3 1.7zm59.2-.5c0 .4-1.2.8-2.6.8-1.4 0-2.3-.4-2-.8.2-.4 1.4-.8 2.5-.8 1.2 0 2.1.4 2.1.8zm-56.4 3.5c-1.1 1.1-1.9-.6-1.1-2.4.8-1.7.8-1.7 1.2 0 .3 1 .2 2.1-.1 2.4zM270 298c0 .5-.4 1-1 1-.5 0-1-.5-1-1 0-.6.5-1 1-1 .6 0 1 .4 1 1zm-219.3 2.2c-.3.8-.6.5-.6-.6-.1-1.1.2-1.7.5-1.3.3.3.4 1.2.1 1.9zm65.8-.2c0 1.7-6.8 4.5-8.9 3.7-2-.8-1-3.6 1.8-4.7 3.1-1.3 7.1-.7 7.1 1zm14.1-.1c-.3.4-1.8 1.1-3.3 1.4-1.6.3-5 2-7.6 3.8-2.6 1.7-5.1 2.9-5.4 2.5-.9-.9-.4-1.2 7.3-5 6.9-3.5 10-4.4 9-2.7zM371 305c.8 4.1-.3 6.1-2.2 4.2-.6-.6-.7-2.7-.3-5.2.8-4.9 1.5-4.6 2.5 1zm-278.2-1.8c-.4 2.7-2.8 3.6-2.8 1 0-2 .8-3.2 2.2-3.2.5 0 .8 1 .6 2.2zm45.3-.6c1.1 1.4 1 1.8-.5 2.9-2.2 1.7-15.6 5.8-16.3 5.1-1.1-1.1 1.8-3.3 7.2-5.6 3-1.3 5.5-2.7 5.5-3.2 0-1.4 2.7-.9 4.1.8zm177.9.9c0 .8-.4 1.5-1 1.5-.5 0-1-.7-1-1.5s.5-1.5 1-1.5c.6 0 1 .7 1 1.5zm-264 1c0 .8-.4 1.5-1 1.5-.5 0-1-.7-1-1.5s.5-1.5 1-1.5c.6 0 1 .7 1 1.5zm266.7.7c-.3.8-.6.5-.6-.6-.1-1.1.2-1.7.5-1.3.3.3.4 1.2.1 1.9zm26.8-1.1c1.1 1.7-.1 2.1-1.5.4-.8-.9-.8-1.5-.2-1.5.6 0 1.4.5 1.7 1.1zm98.8.5c.9 1-.4 3.4-1.9 3.4-.8 0-1.4-.6-1.4-1.3 0-2.2 1.9-3.5 3.3-2.1zm-284.2 5l-.9 3.9-.1-3.6c-.1-2 .2-3.9.6-4.2 1.2-1.3 1.3 0 .4 3.9zm107.4-1.8c-.3.8-.1 1.9.6 2.3.8.4.8 1.2.2 2.4-.7 1.3-1.2 1.4-1.8.6-.4-.7-.4-1.5-.1-1.8.3-.4-.2-1.5-1.1-2.5-1.5-1.6-1.5-2.1-.3-2.8 1.9-1.2 3.3-.2 2.5 1.8zm-160.2 1.4c1.4 1.7 2.3 3.7 2 4.5-.8 2 2.6 5.3 5.4 5.3 1.3 0 4.5-1.1 7.2-2.5 4.8-2.4 4.9-2.4 6.6-.5 1.2 1.3 1.6 2.9 1.2 4.7-.3 1.8 0 3.4 1 4.5 1.2 1.4 1.3 2.3.3 5.2-.8 2.6-.8 4.1 0 5.6 1.5 2.8 3.3 2.5 7.4-1.1 3.5-3 5.6-3.2 5.6-.4 0 .7-1.6 2.3-3.6 3.4-2.9 1.8-3.5 2.6-3.1 4.6.2 1.4.1 2.5-.3 2.5s-1 1.7-1.4 3.9c-.3 2.1-2.5 6.7-4.9 10.2-2.4 3.5-5.7 9.8-7.4 13.9-3.6 8.7-7.4 25.1-6.3 27.1.5.8 1.6 6.8 2.5 13.4.9 6.6 2.5 17.4 3.6 24 2.3 14.7 2.5 32.1.3 41.9-.9 3.9-1.9 8.8-2.4 11-.5 2.3-.5 4.7.1 6 .8 1.7.4 3.2-1.7 6.9-2.5 4.5-2.8 4.8-5.8 4.1-5-1-5.1-1-4.8 1.1.5 2.4 1.9 3.5 5 3.5 1.2 0 2.2.3 2.2.7 0 2.5-10.7 25.1-18.1 38.4-5.9 10.5-6.3 10.9-9.5 10.9-3.6 0-4.4-1.3-1.8-2.8 2.7-1.5 3.5-9.8 2.8-28.5-.4-11.5-.3-17.7.4-17.7.5 0 1.2 1 1.6 2.2.4 1.8.8 2 1.8 1 .6-.6 2.5-1.2 4-1.2 3.6 0 10.4-6.1 9.4-8.5-.4-1.2.2-1.9 2.4-2.6 3.4-1.2 4.6-3.9 3-6.9-.9-1.6-.8-2.5 0-3.6.7-.7 1-2.3.7-3.4-.3-1.3.3-2.6 1.9-3.9 2.7-2.1 3-4.2 1.3-9.2-2.3-6.7-4.7-6.7-2.9 0 1 3.8.9 4.4-1.7 7.6-1.5 1.9-3.6 3.5-4.5 3.5-2.4 0-2.3 3.7.1 4.5 1.8.5 3.6 5.8 2.6 7.6-.3.4-2.8.5-5.6.2-3.1-.4-5.8-.1-7.3.6-3.8 2.1-7 1.1-7.4-2.3-.5-4.4.6-7.7 2.5-7.4 1.1.2 2.3-.8 3.1-2.5.7-1.5 1.8-2.7 2.3-2.7.5 0 2.1-1.1 3.4-2.4 2.1-2.1 2.3-3 1.8-8.3-.6-6.3.5-8.5 3.1-6.4 2 1.6 6.2-.2 6.9-3.1.4-1.3.7-3.7.7-5.3 0-1.7.7-4.1 1.5-5.5 2.2-3.8 1.9-10.3-.5-12.5-2-1.8-2-1.8.5-4.1 1.9-1.8 2.3-2.8 1.6-4.6-.4-1.3-1.8-2.7-2.9-3.3-1.5-.6-2.2-1.9-2.2-3.6 0-3.3-2.2-5.3-5-4.4-1.8.6-2 .2-2-2.9 0-8.7-7.4-4.4-10.1 5.9-.6 2.2-.7 1.7-.4-2 .7-7 1.3-17.4 2.5-43 .6-12.1 1.5-24 2-26.5.8-4.4 2.3-19.6 3.6-38.8.7-10.3 1.6-11.3 5.7-6zm135.4-1.4c-1 1-1.7 2.4-1.7 3.1 0 .7-.4.9-1 .6-.5-.3-1-1.5-1-2.5 0-1.8 1.2-2.8 3.9-2.9 1.1-.1 1.1.3-.2 1.7zm-149.7.6c0 1.8-2.6 4-3.4 2.7-.9-1.4.4-4.1 2-4.1.8 0 1.4.6 1.4 1.4zM51.5 310c.3.5.1 1-.4 1-.6 0-1.1-.5-1.1-1 0-.6.2-1 .4-1 .3 0 .8.4 1.1 1zm264.5 0c0 .5-.7 1-1.5 1s-1.5-.5-1.5-1c0-.6.7-1 1.5-1s1.5.4 1.5 1zm43.3-.3c.3.5.8 2.7 1.2 5 .6 3.6.4 4.3-1 4.3-1.3 0-1.5-.6-1-2.9.5-2.4.2-3.2-1.4-4.1-1.2-.6-2.1-1.5-2.1-2 0-1.2 3.7-1.3 4.3-.3zM152 312.9c0 .9-.7 2.6-1.5 3.7-1.4 1.8-1.4 1.8-1.5-.8 0-3.4 1-5.9 2.1-5.2.5.3.9 1.3.9 2.3zm-61.8 3.2c-.5 3.6-2.2 4.8-2.8 2.1-.4-1.2-1-2.2-1.5-2.2-1 0-1.2-3.4-.2-4.3 1.3-1.4 4.8 2 4.5 4.4zm28.8-1.6c0 1-1 1.5-3 1.5-3.3 0-3.5-.2-2-3.1.9-1.5 1.5-1.7 3-.9 1.1.6 2 1.7 2 2.5zm-25-.4c0 1.1-.4 1.7-1 1.4-.5-.3-1-1.3-1-2.1s.5-1.4 1-1.4c.6 0 1 .9 1 2.1zm349.6.6c-1 1-1.9-.5-1-1.8.6-1.1.8-1.1 1.2 0 .2.7.1 1.5-.2 1.8zm-392 2c-1.1 1.1-1.9-.6-1.1-2.4.8-1.7.8-1.7 1.2 0 .3 1 .2 2.1-.1 2.4zm320.4-1.6c0 .6-.4.7-1 .4-.5-.3-1-1.1-1-1.6 0-.6.5-.7 1-.4.6.3 1 1.1 1 1.6zm-55.6.5c.9.3 1.6 1.6 1.6 2.9 0 1.8-.4 2.1-2.5 1.7-2.4-.4-3.4-3-1.8-4.5.8-.8.8-.8 2.7-.1zm33.4 2.1c-.4 2.2-2.2 2-2.6-.1-.2-1 .3-1.6 1.3-1.6s1.5.7 1.3 1.7zm-298.7 4.6c-.8.8-1.1.7-1.1-.4 0-2 1.3-3.4 1.8-1.9.3.7-.1 1.7-.7 2.3zm318.7 2.3c.7 2.3 1.2 5.7 1.2 7.7s.7 6.6 1.6 10.3c.8 3.7 1.4 8.9 1.3 11.5-.2 2.6.2 5.4.9 6.1.6.8 1.5 4.3 1.9 7.8l.8 6.5 3.8.3c4.1.4 5.1 2.2 1.2 2.2-1.5 0-3.6 1.1-5 2.5l-2.3 2.6-.6-2.8c-.3-1.5-.8-5.7-1.1-9.3-.4-3.6-1.1-8.1-1.5-10-.5-1.9-1.2-7.8-1.5-13-.4-5.2-1.1-10.8-1.6-12.3-.5-1.6-1.2-5.9-1.5-9.5-.7-7.3.4-7.6 2.4-.6zm-284.1.6c-.2 1.3-.4.5-.4-1.7-.1-2.2.1-3.2.4-2.3.2 1 .2 2.8 0 4zm57.1-4c2.2 2.2 1.3 4.6-2.9 6.7-2.2 1.2-3.9 1.8-3.7 1.4 4.3-9.8 4.5-10.2 6.6-8.1zm-53.3.7c.3.5.1 1.2-.5 1.6-.5.3-1-.1-1-.9 0-1.8.6-2.1 1.5-.7zm8.5 2.2c0 1-.4 1.9-1 1.9-.5 0-1-1.2-1-2.6 0-1.4.4-2.3 1-1.9.6.3 1 1.5 1 2.6zm281.9 2.3c1.6 6.4 1.4 7.5-.9 6.9-2.2-.6-2.6-2.3-.8-4.1.9-.9.8-1.6-.5-3-1-1.1-1.5-2.6-1.1-3.5.9-2.5 2-1.2 3.3 3.7zM272 323c0 .5-.7 1-1.6 1-.8 0-1.2-.5-.9-1 .3-.6 1-1 1.6-1 .5 0 .9.4.9 1zm45.1 1c.5 0 .9.4.9 1 0 1.4-4.3.6-4.8-1-.3-.9.1-1.1 1.2-.7 1 .4 2.2.7 2.7.7zM52 326.4c0 .8-.4 1.8-1 2.1-.5.3-1-.3-1-1.4 0-1.2.5-2.1 1-2.1.6 0 1 .6 1 1.4zm240.4 1.2c.5 1.4.4 1.5-.9.4-1.7-1.4-1.9-2-.6-2 .5 0 1.2.7 1.5 1.6zm81.6-.1c0 .8-.4 1.5-1 1.5-.5 0-1-.7-1-1.5s.5-1.5 1-1.5c.6 0 1 .7 1 1.5zm-100.6 1c-.4.8-1 1.5-1.5 1.5s-.9-.7-.9-1.5.7-1.5 1.5-1.5c.9 0 1.2.6.9 1.5zm171.1.4c.3.5.1 1.2-.5 1.6-.5.3-1-.1-1-.9 0-1.8.6-2.1 1.5-.7zM315 330c0 .5-.4 1-.9 1-.6 0-1.3-.5-1.6-1-.3-.6.1-1 .9-1 .9 0 1.6.4 1.6 1zm-222.4 2.7c-1 1-1.9-.5-1-1.8.6-1.1.8-1.1 1.2 0 .2.7.1 1.5-.2 1.8zm5 1c-.7 1.7-.8 1.7-1.7 0-1.2-2.1-.2-4.4 1.3-2.9.6.6.8 1.9.4 2.9zM52 332.4c0 .8-.4 1.7-.9 2.1-1.2.7-2.4-1.2-1.6-2.5.9-1.5 2.5-1.2 2.5.4zm38 1c0 1.4-.5 2.8-1.1 3.1-1.5 1-1.8.4-1.2-2.8.7-3.4 2.3-3.6 2.3-.3zm352 .6c0 1.1-.2 2-.4 2s-.6-.9-.9-2c-.3-1.1-.1-2 .4-2s.9.9.9 2zm-174 .5c0 .8-.4 1.5-1 1.5-.5 0-1-.7-1-1.5s.5-1.5 1-1.5c.6 0 1 .7 1 1.5zm45.4-.5c3.4 1.3 3.3 3.2-.1 2.8-1.7-.2-2.9-1-3.1-2.1-.4-2-.2-2 3.2-.7zm62.6 1c0 .5-.4 1-1 1-.5 0-1-.5-1-1 0-.6.5-1 1-1 .6 0 1 .4 1 1zm-291.3 3.2c-.3.8-.6.5-.6-.6-.1-1.1.2-1.7.5-1.3.3.3.4 1.2.1 1.9zm-32.7-.4c0 1.3-1.2 2.2-2.2 1.6-1-.6-.1-2.4 1.3-2.4.5 0 .9.4.9.8zm44.5 14.9c-.6 4.1-1.7 5.4-2.9 3.4-1-1.5-4.4-.1-6.1 2.5-.8 1.3-2.2 2.4-3.1 2.4-.8 0-1.2.5-.9 1 .5.8 1.1.8 2 0 1-.8 1.5-.8 2 0 .8 1.3-1.2 4-3.1 4-.8 0-1.4 1-1.4 2.5 0 1.8.4 2.3 1.5 1.9.9-.4 1.5 0 1.5 1 0 .9-.6 1.6-1.4 1.6-1.6 0-3.1 3.4-2.2 4.9.3.4.1 3.6-.5 7-1 5.3-.9 6.4.5 8 2 2.2 2.1 4.1.1 4.1-1.9 0-2 1.6-.2 2.3 1.4.5 1.6 8.1.3 9.4-.3.4-.6 1.7-.6 3 0 2.6-2 3.2-2.1.5-.5-12.4.1-31.4 1.6-44.7.2-1.7.7-6.8 1.1-11.3.5-5.6 1.2-8.6 2-8.9.8-.3 1.4-.9 1.4-1.4 0-.4-.7-.6-1.5-.3-1.7.7-2-2.2-.5-4.6.9-1.3 1-1.3 1 0 .1 1.2.4 1.1 1.5-.4 1.4-1.8 4.1-1.4 2.9.5-.3.5-.7 3.9-.9 7.5-.3 6-.2 6.4 1.1 4.5.8-1.1 2.1-1.8 2.9-1.5 2 .8 2.7-1.5 1.6-5.1-.5-1.7-1-2.2-1-1.3-.2 3.1-2.1 1.9-2.1-1.2 0-1.9.5-3 1.4-3 .7 0 2-.7 2.7-1.7 1.2-1.4 1.4-1 1.7 3.8.2 3 .1 7.3-.3 9.6zM275 338.4c0 .3-.4.8-1 1.1-.5.3-1 .1-1-.4 0-.6.5-1.1 1-1.1.6 0 1 .2 1 .4zm40.5 2.6c0 2.2-2.9 1.8-3.3-.3-.3-1.4.1-1.8 1.5-1.5 1 .2 1.8 1 1.8 1.8zm135.5.1c0 .5-.4.9-1 .9-.5 0-1-.7-1-1.6 0-.8.5-1.2 1-.9.6.3 1 1 1 1.6zm-75-.1c0 .5-.4 1-1 1-.5 0-1-.5-1-1 0-.6.5-1 1-1 .6 0 1 .4 1 1zm-323 4.4c0 .8-.4 1.7-.9 2.1-1.2.7-2.4-1.2-1.6-2.5.9-1.5 2.5-1.2 2.5.4zm262 1.9c0 .8-.3 1.7-.7 2-.9.9-3.4-1.3-2.7-2.4.8-1.4 3.4-1.1 3.4.4zm129.1 2c-1.3 1.3-2.6.3-1.6-1.2.3-.6 1.1-.8 1.7-.5.6.4.6 1-.1 1.7zm-167.5 1.4c-1 1-1.9-.5-1-1.8.6-1.1.8-1.1 1.2 0 .2.7.1 1.5-.2 1.8zm128.4-1.2c-1.2 1.5-3 1.2-3-.6 0-.5 1-.9 2.1-.9 1.8 0 1.9.2.9 1.5zm-351 2.3c0 2.1-2.7 6.2-4.1 6.2-1.4 0-1.1-2.9.8-6 1.7-3 3.3-3.1 3.3-.2zm324-.9c0 .6-.4 1.3-1 1.6-.5.3-1-.1-1-.9 0-.9.5-1.6 1-1.6.6 0 1 .4 1 .9zm73 2.5c0 .3-.4.8-1 1.1-.5.3-1 .1-1-.4 0-.6.5-1.1 1-1.1.6 0 1 .2 1 .4zm-172 2c0 1.1-1.9 1.5-2.5.6-.3-.5.1-1 .9-1 .9 0 1.6.2 1.6.4zm172.1 3.4c-.6 1.1-.6 2.4 0 3.4.6 1.1.6 1.9-.1 2.3-.5.3-1-.3-1-1.4 0-1.4-.5-1.9-1.5-1.5-2 .8-1.9-.5.3-2.7 2.2-2.3 3.5-2.4 2.3-.1zM53 360.7c0 2.8-1.7 5-2.9 3.8-.8-.8-.6-1.8.5-3.3 1.8-2.7 2.4-2.8 2.4-.5zm251.6 1.5c-.3 1.3-.8 6.1-1.1 10.7-.6 7.4-.5 8.3.9 7.8 1.2-.5 1.6 0 1.6 1.7 0 1.3-.6 2.6-1.4 2.9-.9.4-1.5 2.5-1.8 6.1-.2 4.2 0 5.5 1 5.1.8-.3 1.2.6 1.2 2.6 0 1.7-.6 3.2-1.5 3.5-.8.4-1.5 1-1.5 1.5s.7.9 1.5.9c.9 0 1.5 1 1.5 2.6 0 1.9.4 2.5 1.5 2 .8-.3 1.5-.1 1.5.4 0 .6-.7 1-1.6 1-1.2 0-1.4.9-1.2 4.2.3 4 .5 4.3 3.3 4.3 1.7 0 3.1.4 3.2 1 .2.5-.6 1-1.7 1-3.1 0-2.7 1.9.6 2.5 2.6.5 2.5.6-1.6 1.2-2.5.4-5.3 1-6.2 1.3-2 .8-4.3-2.9-3.3-5.3.5-1.4.9-1.3 2.1.8 1.3 2.4 1.4 2.2 1.2-2.8-.1-4.1-.4-5.2-1.5-4.7-1.2.4-1.4-2.3-1-17.8.5-17.5 1.9-33.6 3.2-35.7 1-1.7 1.6-1.1 1.1 1.2zm-211 3.4c-.7 1.8-3.6 1.8-3.6 0 0-.8.8-2.2 1.8-3.2 1.6-1.7 1.7-1.7 2 0 .2.9.1 2.4-.2 3.2zm292.9 3.1c-.5 2.8-1 3.3-3.5 3.3-1.7 0-3-.5-3-1.1 0-.7.9-.9 2.1-.6 1.8.5 2 .2 1.5-1.8-.3-1.3-.1-3.6.5-5.2l1.1-2.8 1 2.5c.5 1.4.7 4 .3 5.7zm-333.9 7.9c-.8 2-4.6-.4-4.6-2.9 0-1.9 2-5.8 3.5-6.9 1.1-.8 2 7.5 1.1 9.8zm230.3-7.7c.8 1.4.7 2.2-.5 3.2-1.4 1.1-1.5 1-1.3-.6.2-1.1 0-2.6-.4-3.3-.5-.6-.4-1.2.2-1.2.6 0 1.5.9 2 1.9zm166.5-.5c-.3.8-.1 1.7.5 2.1.6.3 1.1.1 1.1-.5s.4-.9 1-.5c.5.3.1 1.4-1 2.5-2.5 2.5-3.4 2.5-2.7 0 .3-1.1.1-2.3-.4-2.6-1.4-.8-1.1-2.4.6-2.4.8 0 1.2.6.9 1.4zm-135.4 1c0 .3-.4.8-1 1.1-.5.3-1 .1-1-.4 0-.6.5-1.1 1-1.1.6 0 1 .2 1 .4zM93 373c0 1.3-.7 2-1.9 2-2.2 0-3.5-1.5-2.6-3 1.2-1.9 4.5-1.1 4.5 1zm215-1.3c0 1.4-1.9 3.8-2.5 3.2-.8-.8.5-3.9 1.6-3.9.5 0 .9.3.9.7zm145.2 5.5c-.9.9-1.2.7-1.2-1.2s.3-2.1 1.2-1.2c.9.9.9 1.5 0 2.4zm-174.4 0c-.6 1.8-2.8 2.1-2.8.4 0-.9.7-1.6 1.6-1.6.9 0 1.4.5 1.2 1.2zM90.6 383c1.1 0 1.2.5.6 1.7-.5 1-.7 2.4-.5 3 .3.8-.5 1.3-2.1 1.3-2.5 0-3.6-2.2-1.7-3.4.5-.3.7-1.5.4-2.6-.3-1.1-.2-2.8.3-3.7.6-1.5.8-1.3 1.2.9.2 1.6 1 2.8 1.8 2.8zm193.4-3c0 .5-.8 1-1.7 1-1.5 0-1.6-.2-.3-1 1.9-1.2 2-1.2 2 0zm98 1.1c0 .5-.7.9-1.5.9s-1.5-.7-1.5-1.5c0-.9.6-1.2 1.5-.9.8.4 1.5 1 1.5 1.5zm4-.1c0 .5-.4 1-.9 1-.6 0-1.3-.5-1.6-1-.3-.6.1-1 .9-1 .9 0 1.6.4 1.6 1zm69 2.5c0 1.5-1.8 3-2.7 2.2-.2-.3-.2-1.5.2-2.6.7-2.3 2.5-1.9 2.5.4zm-143-.7c0 1.3-1.2 2.2-2.2 1.6-1-.6-.1-2.4 1.3-2.4.5 0 .9.4.9.8zm134 2.8c0 3.1-2.3 2.8-2.8-.4-.2-1.5.2-2.2 1.2-2.2 1.1 0 1.6.9 1.6 2.6zM378.5 398c.7 10.3 1.5 14.7 3.1 18.6.8 1.8 1.4 4.5 1.4 6 0 1.4.9 3.8 2.1 5.2 1.8 2.3 1.9 2.7.5 3-.9.2-1.6 1-1.6 1.8s-.5 1.4-1.1 1.4c-.7 0-.9-.9-.6-2.2.4-1.2 0-2.9-.7-3.8-1.3-1.4-1.7-3.3-3-14-.2-1.9-.9-6.7-1.5-10.5-.6-3.9-1-9.7-1-13 .1-5.2.2-5.6 1-3 .5 1.6 1.1 6.4 1.4 10.5zm3.7-11.5c0 .5-.5 1.1-1.1 1.3-.6.2-1.1-.4-1.1-1.3s.5-1.5 1.1-1.3c.6.2 1.1.8 1.1 1.3zm4.8.5c0 .5-.4 1-1 1-.5 0-1-.5-1-1 0-.6.5-1 1-1 .6 0 1 .4 1 1zm-81 2.5c0 1.4-.4 2.5-1 2.5-1.1 0-1.4-3.3-.3-4.3 1.1-1.1 1.3-.8 1.3 1.8zm148.6 3.2c-1.1 1.1-1.9-.6-1.1-2.4.8-1.7.8-1.7 1.2 0 .3 1 .2 2.1-.1 2.4zm-8.6 1.7c0 2.7-1.5 4.2-2.5 2.6-.8-1.3.3-5 1.6-5 .5 0 .9 1.1.9 2.4zm-136 0c0 1.5-1.8 3.1-2.6 2.3-.7-.7.7-3.7 1.7-3.7.5 0 .9.6.9 1.4zm-221 3.1c-1.6 1.9-3 1.9-3 0 0-1.7 3.3-3.8 3.8-2.4.2.5-.2 1.6-.8 2.4zm195.5-1.5c-.3.5-1 1-1.6 1-.5 0-.9-.5-.9-1 0-.6.7-1 1.6-1 .8 0 1.2.4.9 1zm171.5 3.1c0 1.1-.4 1.7-1 1.4-.5-.3-1-1.5-1-2.6s.5-1.7 1-1.4c.6.3 1 1.5 1 2.6zm-167-.1c0 .5-.2 1-.4 1-.3 0-.8-.5-1.1-1-.3-.6-.1-1 .4-1 .6 0 1.1.4 1.1 1zm157.8 2.2c-.4 2.7-2.8 3.6-2.8 1 0-2 .8-3.2 2.2-3.2.5 0 .8 1 .6 2.2zm-57.8-.3c0 .6-.4 1.3-1 1.6-.5.3-1-.1-1-.9 0-.9.5-1.6 1-1.6.6 0 1 .4 1 .9zm-99.4 3.8c-1 1-1.9-.5-1-1.8.6-1.1.8-1.1 1.2 0 .2.7.1 1.5-.2 1.8zM452 403c0 .5-.2 1-.4 1-.3 0-.8-.5-1.1-1-.3-.6-.1-1 .4-1 .6 0 1.1.4 1.1 1zm-363 1.9c0 .4-.3 1.1-.7 1.4-.8.9-3.4-1.3-2.8-2.4.6-.9 3.5-.1 3.5 1zm220-1c0 .6-.4 1.3-1 1.6-.5.3-1-.1-1-.9 0-.9.5-1.6 1-1.6.6 0 1 .4 1 .9zm4 1.1c0 .5-.4 1-1 1-.5 0-1-.5-1-1 0-.6.5-1 1-1 .6 0 1 .4 1 1zm135 4.5c0 2.4-.5 3.5-1.4 3.5-2.2 0-2.7-1.5-1.6-4.4 1.4-3.7 3-3.2 3 .9zM87 410c0 .5-.5 1-1.1 1-.5 0-.7-.5-.4-1 .3-.6.8-1 1.1-1 .2 0 .4.4.4 1zm199 0c0 .5-.4 1-1 1-.5 0-1-.5-1-1 0-.6.5-1 1-1 .6 0 1 .4 1 1zm5 0c0 .5-.2 1-.4 1-.3 0-.8-.5-1.1-1-.3-.6-.1-1 .4-1 .6 0 1.1.4 1.1 1zm22 .4c0 .8-.4 1.7-.9 2.1-1.2.7-2.4-1.2-1.6-2.5.9-1.5 2.5-1.2 2.5.4zm-260 2.2c0 1.4-.4 2.3-1 1.9-.5-.3-1-1.5-1-2.6 0-1 .5-1.9 1-1.9.6 0 1 1.2 1 2.6zm332.3 1.3c-.3 1 0 2.2.6 2.5 1.3.9 1.5 2.6.2 2.6-1.1 0-2.4-4.8-1.6-6 1-1.6 1.4-1.1.8.9zm66.4 4.3c-.1 4.8.6 7.9 2.7 12.8 2.4 5.4 2.7 7.3 2.2 11.7-.9 7.9.4 9.3 8.2 9.3 3.4 0 7 .5 8 1.1 1.4.9 2.8.7 6.5-.9 2.6-1.2 4.7-2.6 4.7-3.1 0-4 9.7-20.1 12.1-20.1 1.7 0 1.9 4.3.4 13.6-2 12-4.1 18.7-6.6 21-1 .9-1.9 2.8-1.9 4.1 0 3.1-1.1 2.9-9.7-1.2-8.4-4.2-21-6.1-33-5.1-7.8.6-9.4-.1-6.3-2.9 2.6-2.3 2.6-6.1 0-7.5-2.3-1.2-2.6-5.2-.9-9.7.6-1.5 1.1-4.6 1.1-6.8.1-5.2 1-7.5 4.6-11.5 1.7-1.8 3.8-5 4.8-7.1.9-2.2 2-3.9 2.4-3.9.4 0 .7 2.8.7 6.2zm-11.6-.2c1.9 1.1 1.8 1.2-1 5.3-2.2 3.3-2.9 5.4-2.9 8.8.1 2.5-.7 5.9-1.7 7.9-1 1.9-2.1 5.1-2.4 7-.5 2.5-1.8 4.3-5.1 6.8-2.5 1.9-5.5 5.1-6.7 7.2-1.3 2.1-3.6 4.3-5.1 4.9-1.6.7-3.5 2.3-4.2 3.7-1.2 2.1-1.1 3 .5 6.2 1.4 2.7 1.8 5.3 1.5 9.7-.5 8.2-.6 11.9-.8 36.2-.1 12.9-.6 21.3-1.2 21.3-3.3 0-5-10.7-3.9-24.9.5-6.2.4-10.9-.1-11.6-.5-.6-1-4.2-1.2-8-.2-5.4-.7-7-1.9-7.3-1.3-.2-1.8 2.2-2.8 17.2-1.2 16.3-1 23.8.9 27.6.4.8 2 4.1 3.5 7.4 1.6 3.5 3.5 6 4.6 6.3 2.2.6 3.4 4.2 2.5 7.8-.5 1.9-1.3 2.5-3.5 2.5-4.2 0-9 2-10.2 4.2-1.2 2.2.3 5 4.8 9.3 3.3 3 2.2 3.4-1.4.5-1.4-1.1-4.1-2.3-6.2-2.6-7.1-1.3-36.1-14.6-41.1-18.7-1.7-1.5-4.1-2.7-5.2-2.7-2.2 0-25.6-11.8-29.7-14.9l-2.5-1.9 3.2-3.6c1.8-2 3.2-4.1 3.2-4.6s1.1-2.1 2.5-3.6c3.8-4.1 8.5-12.8 8.5-15.7 0-3.3 9.4-21.5 16.5-31.8 3-4.4 5.5-8.6 5.5-9.3 0-2.8 28.8-29.3 37-34.1 1-.6 2.4-1.5 3.1-2.1 1.5-1.1 11.7-5.3 18.4-7.4 2.2-.8 6.7-1.5 10-1.7 3.3-.1 7.4-.7 9-1.2 1.7-.5 3.1-1 3.3-1 .2-.1 1.2.4 2.3.9zm-383.4 5.5c-.2.5-1.5 1-2.8 1-2 0-2.5-.6-2.7-3.3l-.3-3.4 3 2.3c1.7 1.3 3 2.8 2.8 3.4zm45.1-3.8c-.4 2.2-2.2 2-2.6-.1-.2-1 .3-1.6 1.3-1.6s1.5.7 1.3 1.7zM82 420c0 .5-.7 1-1.6 1-.8 0-1.2-.5-.9-1 .3-.6 1-1 1.6-1 .5 0 .9.4.9 1zm-32 1.3c0 .8-.9 2.2-2 3.2-1.9 1.8-2 1.7-2-.1 0-2 1.7-4.4 3.2-4.4.4 0 .8.6.8 1.3zm245 1.8c0 1.2-.5 1.9-1.1 1.7-.6-.2-1-.7-1-1.1.1-.4.1-1.4.1-2.3 0-.8.5-1.2 1-.9.6.3 1 1.5 1 2.6zm-215.3 1.6c1.2 2.7 1.4 3.8.5 4.1-1.7.5-1.5 5.2.3 5.8 3.3 1.3-.1 5.4-4.6 5.4-.5 0-.9-4.3-.9-9.5 0-7.6.3-9.5 1.5-9.5.8 0 2.2 1.7 3.2 3.7zm6.3-2.2c0 .8-.4 1.5-1 1.5-.5 0-1-.7-1-1.5s.5-1.5 1-1.5c.6 0 1 .7 1 1.5zm306.8 3.7c-.6 1.8-2.8 2.1-2.8.4 0-.9.7-1.6 1.6-1.6.9 0 1.4.5 1.2 1.2zm-341 1c.7.7 2 1.3 3 1.3 2.5 0 2.1 2.6-.6 3.6-2 .7-2.5.5-2.9-1.1-.3-1.1-1.2-2-1.9-2-1.5 0-1.9-1.2-.7-2.3.9-1 1.7-.9 3.1.5zm34.2.7c0 .6-.4 1.3-1 1.6-.5.3-1-.1-1-.9 0-.9.5-1.6 1-1.6.6 0 1 .4 1 .9zm222.1 3.2c1.9 1 1.8 1.2-2.3 3.8-5.1 3.3-7.2 5.6-6.3 7.1.8 1.3 4.2 1.3 5 0 .9-1.4 8.6-.3 10.4 1.5 2.2 2.1.7 2.9-3 1.6-6.6-2.3-11.2-.6-12.1 4.4-.3 1.7.4 2.1 5.1 2.5 6 .5 8.5 3 3.1 3-3.8 0-11 3.5-11 5.5 0 1 1.6 1.5 5.8 1.7 5.7.3 5.7.3 3.2 1.9-1.6 1.1-3.8 1.5-6.2 1.2-3.4-.5-3.7-.8-4.3-4.4-.4-2.1-1-3.9-1.5-3.9s-1.5-.3-2.3-.6c-1-.3-1.8.2-2.2 1.5-1 3.3-3.2 2.4-4.2-1.7-.7-3-1.3-3.7-3.3-3.7-3.6 0-3.6-2.8 0-4.3 1.6-.8 3.9-2.8 5.1-4.5 2.8-4.1 10.8-11.7 13.4-12.8 2.8-1.1 5.3-1.1 7.6.2zm-18.1 2.4c-2.3 2.5-4 3.2-4 1.7 0-.7 4.9-4.1 5.9-4.2.3 0-.6 1.1-1.9 2.5zm-240 1c0 .8-.4 1.5-1 1.5-.5 0-1-.7-1-1.5s.5-1.5 1-1.5c.6 0 1 .7 1 1.5zm266.8-.3c1.5 1.5 1.6 4.1 0 3.6-1.3-.5-3.1-4.8-2-4.8.5 0 1.3.5 2 1.2zm-290.6 3.6c-.4 3.4.8 4.1 2.8 1.7 1.9-2.2 3.2-1.8 1.9.6-1.4 2.7.4 5 2.3 3.1 1.2-1.2 4.8-1.7 4.8-.7 0 1.2-5.6 5.4-8 6-1.4.4-3.5 1.6-4.7 2.7-1.9 1.8-2.5 1.9-3.8.8-3.1-2.5-3.5-4.6-2.1-8.8 3.1-8.6 7.5-12.1 6.8-5.4zm19.5 3.4c-.2 1.3-.4.5-.4-1.7-.1-2.2.1-3.2.4-2.3.2 1 .2 2.8 0 4zm10.9-3.6c-.3.9-.6 1.8-.6 2 0 .2-.7.4-1.5.4-1.3 0-1.4-.4-.5-2 1.3-2.4 3.5-2.7 2.6-.4zM84 443c0 .8-6 3-8.2 3-1.3 0-.9-2.8.5-3.3 2.2-.9 7.7-.7 7.7.3zm121.6 2.5c-2.2 1.7-1.5 6.1 1.2 6.9.9.3 2.2 1.4 2.9 2.5 1.1 1.7.8 2.3-2.3 4.6-5.9 4.5-11.4 10.8-11.4 13 0 4.3 4.6 5.9 8.6 3 1.9-1.3 2.2-1.2 3.2 1 2.2 4.9 10.2 2.1 10.2-3.5 0-4.1 2-5.9 7.5-6.6 2.8-.4 6.1-1.3 7.3-2.1 3.9-2.4 3.8-2.9.7 20.2-.1 1.1-.3 3-.4 4.2-.1 1.8-1.4 2.6-7.8 4.7-4.3 1.3-9.8 3.3-12.3 4.4-7.2 3.1-14.4 3.7-19.3 1.7-6.6-2.7-7.1-3-9.1-6.4-1.8-3.1-1.8-3.1.8-6.6 1.4-1.8 2.6-4.5 2.6-5.9 0-1.4 2-8.5 4.4-15.8 4.2-12.4 4.8-13.6 9.2-17.5 2.6-2.3 5-4 5.3-3.7.3.3-.2 1.2-1.3 1.9zM47 447c1.9 0 2 5.2.1 7.8-1.9 2.8-1.9 7.3.1 9.8.5.7.4 2.2-.3 3.7-.9 2-.8 2.9.5 4.9 1.5 2.3 1.5 2.7-.3 5-1.2 1.5-1.6 2.9-1.1 3.8.5.8.2 2.2-.6 3.6-1.7 2.6-.5 4 2.3 2.5 4.7-2.4 8.1-3.5 11.1-3.7 6.1-.2 3.6 1.7-6 4.6-3.9 1.2-5 3.3-2.3 4.4.8.3 3.3-.1 5.6-.9 5.8-2.1 7.1-1.9 6.7.7-.2 1.7-1 2.3-2.8 2.4-4.2.2-10 2.5-10 3.9 0 2.3 1.4 2.5 6.5 1 2.7-.8 5.1-1.3 5.4-1 1.1 1.1-1.6 4-4 4.3-5.1.6-6.9 1.3-6.9 2.8 0 1.2.9 1.4 4.5 1.1 2.5-.3 4.5-.1 4.5.4s-1.2.9-2.7.9c-4 0-5.1 1.1-7.2 6.6-1.6 4.3-5.3 8.2-9.1 9.6-.5.2-1 1.6-1.2 3.3-.2 2.4.1 3 1.5 2.9 1.2-.1 1.7.6 1.7 2.7 0 5.1-3.9 2.6-7-4.4-1.1-2.5-2.5-4.9-3-5.2-2.4-1.5-.8-6.4 8.1-26 2-4.6 2.3-6.7 2.6-24.5.3-19.1 1.2-32.2 2-28.8.3 1 .8 1.8 1.3 1.8zm9.8.8c.2 2.3-.2 3.3-1.8 4.2l-2.2 1.2 2.2 2.3 2.1 2.3-2.2 2.1c-3.3 3.1-5.4 2.8-3.3-.4 1.3-2 1.4-2.8.4-4-.7-.9-.9-2.2-.5-3.2.5-1 .7-2.6.6-3.6-.3-2.2 1.8-4.9 3.3-4.4.6.2 1.2 1.8 1.4 3.5zm14.7-1.9c-.3.6-1.1 1.1-1.7 1.1-.6 0-.6-.6.2-1.5 1.4-1.7 2.6-1.3 1.5.4zM88 445c0 .5-.4 1-1 1-.5 0-1-.5-1-1 0-.6.5-1 1-1 .6 0 1 .4 1 1zm-48.2 14.5c-.1 6.3-.5 11.5-.9 11.5-.5 0-1.6-1.4-2.5-3.1-1.2-2.5-1.3-3.7-.5-5.8.7-1.4 1.3-5.3 1.5-8.6.5-7.3.4-6.7 1.6-6 .6.3.9 5.4.8 12zM83 449.1c0 1.2-6.9 4.4-11.7 5.4-2.6.5-3.3.3-3.3-.9 0-1.9 1.1-2.6 6.9-4.1 5.8-1.7 8.1-1.8 8.1-.4zm29.8 1.1c-.2.6-1 1.4-1.6 1.6-.7.2-1-.2-.6-1.2.7-1.8 2.8-2.2 2.2-.4zm-97.3.9c.4.6-.2 1.3-1.4 1.6-2.5.6-2.6 1.1-.4 3.5.9 1 3 1.8 4.9 1.8 4 0 11.4 4.7 11.4 7.2 0 1-1 2.8-2.1 3.9l-2.2 2.2.6-2.4c.4-1.6-.2-3.3-1.7-5.3l-2.3-2.8-2.2 2.3c-2 2.2-2.1 2.2-3.5.4-1.3-1.8-1.4-1.8-2.5.3-1.5 2.8-8.4 6.2-11.1 5.5-1.9-.5-2.1-1.2-1.8-8.6l.3-8.1 5-1.2c6.6-1.5 8.3-1.6 9-.3zm257.5 1.2c0 1.7-.9 2.7-3.5 3.7-2.8 1.1-3.5 1.9-3.5 4 0 1.4.4 3 .9 3.5.5.6 1.2 4.1 1.5 8 .3 3.8.9 10.3 1.2 14.2.8 8.8.8 8.7-.4 9.1-.5.1-.7-.9-.5-2.3.4-1.6.1-2.5-.7-2.5-2.2 0-7 4.1-7 5.9 0 2-2.7 4.8-3.7 3.8-.3-.4-.9-3.8-1.2-7.6-.4-3.9-1-7.3-1.4-7.7-1.3-1.4-5.7 1.5-5.8 3.8-.2 3-.2 2.4.6 9.5.6 5.5.5 6.3-1 6.3-1.4 0-1.6-1.1-1.2-9.9.4-7.6.2-10.4-.9-11.8-1.3-1.7-1.5-1.7-3.7.9l-2.3 2.8.7-5.8c2.1-17.7 2.6-18.7 13.4-24.5 8.1-4.3 11.4-5.5 15.3-5.6 2.7-.1 3.2.3 3.2 2.2zm-237.5-.4c.3.5-.5 1.7-1.7 2.5-2.1 1.5-2.1 1.6-.3 3.6 1.5 1.6 1.5 2 .3 2-1.9 0-6.7-5.1-5.2-5.7.6-.2 2-1 3-1.8 2.3-1.7 3.1-1.8 3.9-.6zM82 456c0 1.4-2.9 2.6-7.8 3.4-5.7.9-4.7-.9 1.6-2.8 5.8-1.8 6.2-1.8 6.2-.6zm10.6 4.6c-.9 3.4-2.8 3.1-2-.4.3-1.5.8-3.4 1.1-4.2.9-2.3 1.6 1.6.9 4.6zM350 457c0 1-.7 1.2-12 2.9-4.1.7-9 2.1-10.9 3.2-3.9 2.3-5.2 1.8-2.6-1.1 2.4-2.6 7-4 15-4.4 3.6-.2 6.9-.7 7.2-1 1-1 3.3-.7 3.3.4zm79 .5c-.7.9-1.5 1.3-1.7 1.1-.7-.7.7-2.6 1.9-2.6.6 0 .6.6-.2 1.5zm-152.8 4.7c-.7.7-1.2.8-1.2.2 0-.6.3-1.4.7-1.7.3-.4.9-.5 1.2-.2.2.3-.1 1.1-.7 1.7zm-64 1c-.7.7-1.2.8-1.2.2 0-1.4 1.2-2.6 1.9-1.9.2.3-.1 1.1-.7 1.7zM69 463c0 .5-.4 1-1 1-.5 0-1-.5-1-1 0-.6.5-1 1-1 .6 0 1 .4 1 1zm39.5 1.1c0 .7-.8 1.5-1.7 1.7-1.8.3-2.5-1.8-1.1-3.2 1-1 2.8-.1 2.8 1.5zm-29-.1c-.7 1.1-7.7 3.2-8.3 2.5-.3-.2.1-1.1.8-2 1.3-1.6 8.5-2.2 7.5-.5zM61 468.7c0 1-.5 2.5-1 3.3-.7 1.1-1 .7-1-1.8 0-1.7.5-3.2 1-3.2.6 0 1 .8 1 1.7zm-5-.3c0 .3-.4.8-1 1.1-.5.3-1 .1-1-.4 0-.6.5-1.1 1-1.1.6 0 1 .2 1 .4zm23.4 1.3c-.4 1-.7 3.1-.7 4.7s-.9 3.8-1.9 4.8c-1.2 1.2-1.8 2.8-1.5 3.9.3 1 0 2.2-.6 2.6-1.4.8-.1-14.5 1.4-16.3 1.7-2.1 4.3-1.8 3.3.3zm379.6.3c-2 1.3-11 1.3-11 0 0-.6 2.7-1 6.3-1 4.4 0 5.8.3 4.7 1zm-439 2c2.5 2.5 4.4 7 3 7-.6 0-1-.6-1-1.4 0-2.8-2.7-3.8-5.8-2.2-4.7 2.4-4.9 6.7-.4 11.8 2.2 2.6 3.9 2.2 4.6-1.2.9-4.6 3.2-3.7 4.5 1.7 1.2 5 1 20.8-.3 22.1-.4.4-3.8 1.2-7.4 1.8-5.9 1-7 .9-9.2-.6-1.4-1-3.4-1.9-4.5-2.2-1.9-.3-2-1.1-2-10.8.1-5.8.4-11.4.9-12.5.8-1.9.8-1.9 1.7.2 1.1 3 2.3 2.9 4.4-.3 2.1-3.3.6-5.4-4.1-5.4-2.4 0-3.4-.5-3.4-1.5 0-2.1 2.7-3 4.5-1.5 1.9 1.5 4.7-.4 3.8-2.6-.3-.9.2-1.4 1.5-1.4 1.1 0 2.5-.7 3.2-1.5 1.7-2.1 3.6-1.9 6 .5zm284-.9c0 .5-.6.9-1.4.9-2.1 0-3 1.9-1.7 3.4.9 1 .8 1.5-.4 2-.8.3-1.5 1.2-1.5 2 0 1.9-2.1 6.6-3 6.6-.3 0-.6-3-.6-6.6.1-5.1.5-6.9 1.9-7.9 2-1.4 6.7-1.7 6.7-.4zm167 .5c0 .2-.7.4-1.5.4s-1.5-.4-1.5-1c0-.5.7-.7 1.5-.4.8.4 1.5.8 1.5 1zm-155.6.9c-.4.8-1.1 1.5-1.6 1.5-.6 0-.5-.6.2-1.5.7-.8 1.4-1.5 1.6-1.5.2 0 .1.7-.2 1.5zm101.6 1c0 .8-.4 1.5-1 1.5-.5 0-1-.7-1-1.5s.5-1.5 1-1.5c.6 0 1 .7 1 1.5zm62.6 1.2c6.1 3 7.5 5.1 1.6 2.5-4.3-1.9-9.1-5.1-7.9-5.1.5-.1 3.3 1.1 6.3 2.6zm-9.4.6c6.2 1.9 13.3 6.1 15.3 8.9.8 1.3 1.5 3.9 1.5 5.9 0 4.9 1.8 9.7 4.1 11 1 .5 1.9 1.5 1.9 2.2 0 1.9-6 9.8-7.4 9.6-2.7-.3-3.6.2-3.6 2.2 0 1.1-.9 3.4-2.1 5-2.5 3.5-7.8 18.6-8.8 24.9-.8 5.1-.2 5-11.1 2-10.4-2.8-24.2-3.1-29.3-.6-2.1 1-4.1 1.6-4.4 1.2-.7-.7-.9-49.2-.4-61.9l.4-6.8 4-2c7-3.6 30.8-4.6 39.9-1.6zM86 476c0 1.3-.7 2-2 2-2.3 0-2.6-1-.8-2.8 1.8-1.8 2.8-1.5 2.8.8zm-34 0c0 .5-.5 1-1.1 1-.5 0-.7-.5-.4-1 .3-.6.8-1 1.1-1 .2 0 .4.4.4 1zm237.5 6.7c1.3 4.3 1.5 7.6 1 14l-.7 8.4-2.5-2.3c-1.4-1.3-2.2-3-1.9-4.1.7-3-1.3-8.5-4-10.6-2.1-1.6-2.5-2.7-2.2-5.8.3-3.5.5-3.8 3.6-3.9 1.8-.1 3.5-.4 3.9-.8 1-1 1.1-.9 2.8 5.1zM20 481.4c0 .8-.4 1.7-.9 2.1-1.2.7-2.4-1.2-1.6-2.5.9-1.5 2.5-1.2 2.5.4zm59.3 5.2c-.4 1-.9 1.2-1.5.6-1.2-1.2-.1-3.5 1.2-2.7.5.3.6 1.3.3 2.1zm241.2.2c-.8.8-2.5-1-1.9-2 .4-.6.9-.5 1.5.3.4.7.6 1.5.4 1.7zm-280.6-.6c0 .7-.4 2.2-.8 3.3-.8 1.9-.8 1.9-1.5-.2-.8-2.4-.1-4.3 1.5-4.3.5 0 .9.6.8 1.2zm46.3 4c-.5.5-2 .4-3.8-.3l-2.9-1.1 3.5-1.7c3.4-1.6 3.5-1.6 3.8.2.2 1.1 0 2.3-.6 2.9zm227.9 3.8c.7 1.9 1.2 5.5 1.1 7.9-.1 2.8.5 5.3 1.7 7 2 2.9 5.5 13.1 4.7 13.8-1 1-2.7-1-4.7-5.8-2-4.7-2.4-5-5-4.4-2.3.5-2.9.3-2.9-1 0-.9.4-1.4.9-1.1 1.2.8 3.4-2.1 2.6-3.4-.4-.6-1.3-.9-2-.8-.8.2-1.4-.2-1.4-.7 0-.6.9-1 2.2-1 3.2 0 3.7-6.3.7-9-1.5-1.3-2-3-1.9-6.4v-4.6l1.3 3c.7 1.6 1.9 4.6 2.7 6.5zm-238.7 1.7c-.2 4.3-.6 11.4-.8 15.9-.2 4.4-.8 9-1.4 10.1-.6 1.1-.8 2.4-.4 2.8.4.3.8 6.6.8 13.8.2 22.2 0 20.8 2.9 20.1 2.1-.5 2.5-.3 2.5 1.6 0 2-.4 2.2-3.7 1.7-5-.8-7-2.9-5.6-5.9.6-1.4.8-6.3.4-12.3-.3-5.5-.3-12.3.1-15 .3-2.8 1.1-11.3 1.7-19 .6-7.7 1.4-15.7 1.7-17.8 1.1-6.6 2.3-4 1.8 4zm202.3-.4c-.3.8-2 1.8-3.8 2.2-1.9.4-3.3 1.5-3.6 2.6-.4 1.5-1.1 1.8-2.7 1.3-2.7-.8-2.9-1.1-2.1-2.3.3-.6 1.6-1.1 2.9-1.1 1.2 0 3.5-1.4 5.1-3 2.9-3 5.4-2.8 4.2.3zm-36.6 6.5c-.8 3.5-.9 3.3-.9-2.3-.1-4.6.1-5.5.8-3.7.6 1.3.6 3.8.1 6zm89.9-4.3c0 1.3-.4 2.7-1 3-.6.4-1-.8-1-3s.4-3.4 1-3c.6.3 1 1.7 1 3zm-34.8 5.9c-.1 3.7.2 7.4.7 8.3.6 1.2.4 2.4-.6 4-1.2 1.8-1.3 2.6-.3 3.7.8 1.1.8 2 .1 3.5-1.3 2.4-1.4 3.1-.2 3.1.5 0 1.2-1 1.5-2.3.6-2 .7-2.1 1.7-.4.7 1.3.6 3.1-.4 6.7-.9 3.2-1.1 5.2-.5 5.6.5.3.7 1.7.3 3.1-.3 1.4-.1 3 .4 3.7.6.7.6 1.7 0 2.6-.8 1.3-1.2 1.2-2.4-.5-1.4-1.8-1.5-1.7-1.3 1.6.3 3 .6 3.5 2.3 3.1 1.7-.5 1.8-.3.7 1-.7.9-1 2.3-.6 3.2.7 1.9 2.1 2.1 2.7.3 1.2-3.3 2.1 2.9 1.8 12.2-.2 6.3-1.2 4.4-1.2-2.3 0-6.5-1.1-7.8-2.9-3.6-.7 1.7-1.8 3-2.5 3s-1.5 1-1.9 2.2c-.9 3.4-.7 7.8.3 7.8 1.4 0 1.9-2.3.9-4.3-.5-1.1-.5-1.7.2-1.7.5 0 1-.7 1-1.5s.7-1.5 1.5-1.5c1.2 0 1.4.8.9 3.9-.5 3-.2 4.1 1.2 5.2 1.4 1 1.9 2.6 1.8 5.4-.2 6.2-.3 6.3-2.2 5.8-1.2-.3-2.2.4-3 2.2-1.1 2.4-1 2.5.7 1.5 3.1-1.6 4.1-1.2 4.1 1.5 0 2-.5 2.5-2.5 2.5s-2.5.5-2.5 2.7c0 2-.3 2.4-1.2 1.5-.6-.6-1.1-2.6-1-4.3 0-1.8-.2-3.8-.6-4.3-.4-.6-.9 2.7-1.2 7.4-.3 4.7-.2 8.7.2 9 .4.3.5 2.9.2 5.8-.4 4.2-.2 5.2 1.1 5.2.8 0 1.5.4 1.5 1 0 .5-.7 1-1.5 1-1.2 0-1.5 1.4-1.5 6.2 0 3.5-.3 7.3-.6 8.6-.5 1.8-.3 2.1 1 1.6.9-.3 1.6-.1 1.6.5s-.7 1.1-1.5 1.1-1.5.3-1.5.7c0 .5-.3 1.9-.7 3.2-.5 2.1-.3 2.2 1.7 1.6 1.6-.5 2.1-.4 1.8.6-.3.8-1.1 1.4-1.9 1.4-.9 0-1.5 1.2-1.6 3.5-.2 3.5-.2 3.5.8.7.6-1.5 1.8-2.7 2.6-2.7 1 0 1.3.6.9 1.6-.3.9-.6 2.2-.6 3 0 .8-.9 1.4-1.9 1.4-2.3 0-3.3 2.3-2.2 5.3.8 2.4-.6 11-1.8 10.3-.4-.3-.6-6.2-.5-13.3.1-7-.2-13.7-.6-14.8-.4-1.1-.3-8.5.1-16.5.5-8 1.3-25.5 1.9-39 1.2-26.9 1.2-28.2 3.5-51.7.9-8.9 1.5-17.7 1.4-19.5-.6-7.8.1-15 1.4-14.5.8.2 1.1 2.4.9 7.1zM85.1 499c.5 0 .9.6.9 1.4 0 .9-.8 1.2-2.5.8-1.4-.2-2.5-1.1-2.5-1.9 0-1 .6-1.3 1.6-.9.9.3 2 .6 2.5.6zm-52.2 10.2c-3.7 9.6-4.4 10.7-6 9.1-1.8-1.8-.1-7.9 3-11 1.5-1.6 3.3-3.9 4-5.1 2.7-5.1 2.1-.9-1 7zm233.4-4.3c3.1 1.3 5.8 3.6 8.3 7 2.1 2.8 4.4 5.1 5 5.1 2.4 0 2.4-3.3.1-6.4-3.9-5.1-.5-8.2 3.4-3.2 1.1 1.4 2.8 2.8 3.9 3.1 1.3.4 2 1.5 2 3.1 0 2.4-1.4 3.2-2.5 1.4-1.1-1.8-3.2-1-4.4 1.7-1.8 4 .2 8.3 4 8.3 3.3 0 3.2-.4 1.8 9.5-1 6.2-1.4 7.3-2.5 6.4-.8-.6-1.4-2-1.4-3s-.4-2.1-1-2.4c-.5-.3-1-1.6-1-2.9 0-6.3-14.2-25.8-19.4-26.7-2-.4-3.5-2.9-1.8-2.9.6 0 3.1.9 5.5 1.9zm-169.4 1.7c2.2 1.1 2.9 2 2.2 2.7-1.1 1.1-8.1-1.7-8.1-3.3 0-1.5 2.3-1.2 5.9.6zm114.1.9c-1 1.2-.9 2 .6 4.2 3 4.5 7.4 19 8.9 29.5 2.3 15 6.7 29.1 10.5 33.4 1.7 2 4.1 5.7 5.2 8.3 1.1 2.5 2.4 5.4 2.9 6.3.6 1.2.4 2-.8 2.7-1.7.9-1.7 1 0 2.9 1 1.1 1.5 2.6 1.1 3.6-.8 2.1-5.5 4.6-8.7 4.6-3 0-7.7-4.2-7.7-6.9 0-2.9-1.1-5.1-2.4-5.1-2.7 0-8.4 8.8-10 15.3-1.3 5.4-3.1 2.4-3.1-5.1 0-8.5-1.3-10.5-4.4-6.6-1.4 1.7-2.1 4.1-2.1 6.8 0 2.2-1.1 6.4-2.4 9.3-2 4.1-3 5.2-5.5 5.8-4.1.9-6.5-.9-5-3.7 2.3-4.2 6-15.6 8-24.3 1.2-5 3-12.8 4.1-17.5 3.1-13.7 3.6-16.6 5.8-34.5 2.3-19.3 2.5-25.6.9-27.2-.8-.8-.4-1.5 1.7-2.6 3.3-1.7 4.3-1.4 2.4.8zm-133.9 2.8c-1 .9-1.1.8-.5-.6.3-1 .9-1.5 1.2-1.2.3.3 0 1.1-.7 1.8zm223.9 2.8c0 .5-.4.9-1 .9-.5 0-1-.7-1-1.6 0-.8.5-1.2 1-.9.6.3 1 1 1 1.6zm-290.8 2.7c.3.4.8 1.8 1 3.2.4 3.5-2.4 3.7-6.7.5-3.2-2.5-4.4-5.3-2.9-6.8.7-.6 7.3 1.8 8.6 3.1zm52.2 4.6c-1 4.2-2 3.8-1.6-.6.3-2.5.8-3.6 1.4-3 .5.5.6 2.1.2 3.6zm23.6-3.6c0 1.3-1.2 2.2-2.2 1.6-1-.6-.1-2.4 1.3-2.4.5 0 .9.4.9.8zm228 .2c0 1.2-4.9 4.5-5.6 3.7-.3-.3-.1-1.5.6-2.6 1.1-2.1 5-3 5-1.1zm-292.7 3.5c-.3.8-.9 1.5-1.4 1.5-1 0-1.2-2.4-.3-3.3 1.1-1.1 2.4.3 1.7 1.8zm278.3.2c-1 1-1.9-.5-1-1.8.6-1.1.8-1.1 1.2 0 .2.7.1 1.5-.2 1.8zm4.4.3c0 .5-.4 1-1 1-.5 0-1-.5-1-1 0-.6.5-1 1-1 .6 0 1 .4 1 1zm11 .8c0 1-5 3.5-5.7 2.8-.3-.2.8-1.1 2.4-2 3.4-1.8 3.3-1.8 3.3-.8zM6.5 525c1.6 1.6 2.3 3 1.7 3-2 0-6.2-3.1-6.2-4.6 0-2.2 1.4-1.7 4.5 1.6zm49.5-2c0 .5-.4 1-1 1-.5 0-1-.5-1-1 0-.6.5-1 1-1 .6 0 1 .4 1 1zm260.6 4.7c-1.5 1.3-3.2 2-3.8 1.7-.7-.5-.1-1.6 1.7-3 3.8-3 5.7-1.8 2.1 1.3zm-296.8-.5c-.3.7-1.8 1.4-3.4 1.6-2.8.2-2.8.2-1-1.3 2.4-1.8 4.9-2 4.4-.3zm28.7.7c.3.5.1 1.2-.5 1.6-.5.3-1-.1-1-.9 0-1.8.6-2.1 1.5-.7zm8.5 2.2c0 1.2-.7 1.9-2 1.9-2.2 0-2.9-3.5-.7-4.3 1.8-.6 2.7.2 2.7 2.4zm20.2-.9c-.7.7-1.2.8-1.2.2 0-1.4 1.2-2.6 1.9-1.9.2.3-.1 1.1-.7 1.7zm9.2-.3c.3.4.3 1.1 0 1.4-.8.8-3.4-.3-3.4-1.4 0-1.1 2.7-1.2 3.4 0zm181.6 8.6c0 .3-.4.5-.9.5s-1.4-1.4-2-3.1c-1.6-4.6-1.4-4.8.9-1.1 1.1 1.8 2 3.5 2 3.7zm-181.7-3c-.6 1.6-1.6 1.9-2.6.8-.9-.8 1.3-3.4 2.4-2.8.4.3.6 1.2.2 2zm-28.7 2.4c-.8 1.3-3.6 1.5-3.6.3 0-.4.5-1.3 1.2-2 1.4-1.4 3.4 0 2.4 1.7zm255.6-.6c2.4 1.3 7.5 4.3 11.5 6.5 4 2.3 7.5 4.2 7.7 4.2.3 0 9.6 4.4 20.8 9.9 11.2 5.4 21.4 10.2 22.8 10.6 1.4.4 5.2 2 8.5 3.5s7.5 3.1 9.2 3.5c3.5.7 7.3 4.6 7.3 7.5 0 .9-1.1 2.7-2.5 4l-2.5 2.3v-3.6c0-3-.5-3.9-3-5.2-5.8-3-7.5-1.8-5.6 4.1.9 2.7 2.3 4.4 4.4 5.4 2.6 1.2 3.2 2.2 3.3 5 .1 1.9.1 4.2-.1 5-.1.8-.4 5.2-.5 9.7-.2 4.9-1 9.3-2 11.2-.8 1.7-1.7 3.1-1.9 3.1-.2 0-1.9-1.5-3.8-3.3-2-1.9-6.7-4.5-10.7-6-8.4-3-23.5-11.8-32-18.5-3.2-2.6-11.2-8.5-17.6-13.2-6.5-4.7-12.1-9-12.6-9.5-.5-.6-2.4-3.1-4.4-5.7l-3.4-4.7.5-11.8c.5-11.7 1-16.3 1.9-16.3.2 0 2.3 1.1 4.7 2.3zm-275.1 4c-.1 1.2-1.5.9-1.9-.4-.3-.6.1-1 .8-.8.6.3 1.1.8 1.1 1.2zM82 540c0 .5-.7 1-1.6 1-.8 0-1.2-.5-.9-1 .3-.6 1-1 1.6-1 .5 0 .9.4.9 1zm4 .6c0 1.7-2.2 1.4-2.8-.4-.2-.7.3-1.2 1.2-1.2.9 0 1.6.7 1.6 1.6zm-28.2 3.2c.3 1.6-.2 2.2-1.7 2.2-2.6 0-3.6-1.7-2-3.6 1.6-1.9 3.3-1.3 3.7 1.4zM263.5 554c-.3 2-.2 5.6.4 8 1 4.4 1.6 5.2 10.7 12.8 1.5 1.2 4.5 2.5 6.6 2.9 2.9.4 3.8 1 3.4 2-.4.8-.6 2.9-.6 4.7 0 3-.2 3.2-3 2.8-1.8-.3-3 0-3 .7 0 1.5-4.3 1.4-5.8-.1-1.6-1.6-1.5-5 .3-7.4 1.8-2.4 1.9-5.4.1-5.4-.8 0-2.6 1.4-4 3.1-3.6 4.3-3.6 10 0 12.8 1.5 1.2 3.3 2.1 4 2.1 2.1 0 2.4 1.4 1.2 5.3-1.4 4.5.6 8 5.5 9.8l3.4 1.2-.3 12.8c-.2 7.1-.6 13.4-.9 13.9-1 1.6-8.8-8.9-8.2-11 .7-2.6-4.2-20-8.3-29.6-4.1-9.4-5.8-28.4-4.3-46l.7-7.9 1.3 4.5c.8 2.5 1.1 6.1.8 8zm228.3-9.2c.2 1.2-.1 2.2-.7 2.2s-1.1-.4-1.1-.9-.3-1.7-.7-2.7c-.4-1.2-.2-1.5.8-1.2.8.2 1.5 1.4 1.7 2.6zM50 545c0 1.1.5 2 1 2 .6 0 1 .6 1 1.4 0 .8.6 1.7 1.3 1.9.6.3-.1.6-1.8.6-1.6 0-3.4-.3-4-.7-1.5-1.1-1.8-4.2-.4-5.8 1.6-2 2.9-1.7 2.9.6zm223-.5c-1.2 1.4-.5 10.3.7 9.1.3-.3 1.5.1 2.5.9 2.8 1.9 4.5.9 5.8-3.1 1.5-4.3 3.2-4.4 2.6-.2-.3 1.8-.8 5.7-1.1 8.7-.9 8.3-1.7 9.2-7.3 8.7-6.3-.7-8.2-3.1-8.2-10.2 0-6.4 3.4-15.4 5.7-15.4.3 0 0 .7-.7 1.5zm-210 5.2c0 1.4.6 2.3 1.5 2.3.8 0 1.5.9 1.5 2s-.6 2-1.3 2c-2.4 0-3.7-2.4-3.7-7 0-3.3.3-4.1 1-3 .5.8 1 2.5 1 3.7zm23.5-3.7c.4.6.4 1.7.1 2.5-.4 1.2-1 1.2-3.5-.3-2.6-1.4-2.8-1.8-1.3-2.4 2.5-1 4-.9 4.7.2zm-44.7 2.2c-.5 1.5-4.8 2.4-4.8 1s1.2-2.2 3.3-2.2c1 0 1.7.5 1.5 1.2zm260.2.8c0 .5-.4 1-1 1-.5 0-1-.5-1-1 0-.6.5-1 1-1 .6 0 1 .4 1 1zm-244 1.5c0 .8-.4 1.5-1 1.5-.5 0-1-.7-1-1.5s.5-1.5 1-1.5c.6 0 1 .7 1 1.5zm-29.5.5c-.3.5-1.1 1-1.6 1-.6 0-.7-.5-.4-1 .3-.6 1.1-1 1.6-1 .6 0 .7.4.4 1zM11 554c0 .5-.2 1-.4 1-.3 0-.8-.5-1.1-1-.3-.6-.1-1 .4-1 .6 0 1.1.4 1.1 1zm10 0c0 .5-.5 1-1.1 1-.5 0-.7-.5-.4-1 .3-.6.8-1 1.1-1 .2 0 .4.4.4 1zm-6.5 4c-.3.5-1.6 1.5-2.8 2.1-2.2 1.2-2.2 1.2-.3-1 1.9-2.1 4.3-3 3.1-1.1zm440.2 3.4c5.9 1.6 12.3 5.2 12.4 6.9 0 .7.2 2.5.4 4.2.2 1.6 0 3.4-.4 4-.5.5-1.4 4.1-2.1 7.8-1.1 6-1.6 7-3.9 7.8-4.5 1.6-5.6 2.5-6.5 5.9-.7 2.4-1.9 3.6-4.5 4.7-2 .8-4.6 1.9-5.9 2.5-2 1-3.2.7-8.3-2.1-4.5-2.5-6.4-3-7.2-2.2-1.7 1.7-2.5 1.3-4.2-1.9-1.1-2.1-1.3-3.6-.6-4.8 1.4-2.7 2.4-10.8 1.7-14.6-.4-1.9-2-5.1-3.6-7.1-2.3-2.8-2.7-4.1-1.9-5.1.6-.7 1.7-1 2.4-.7.8.2 3.9-.7 7-2.2 9.4-4.7 16.2-5.5 25.2-3.1zM4.9 567.1c-1.9 2.4-3.5 3.7-3.7 3-.4-1.3 4.5-7.1 6.1-7.1.5 0-.6 1.9-2.4 4.1zM415 565c0 .5-.4 1-1 1-.5 0-1-.5-1-1 0-.6.5-1 1-1 .6 0 1 .4 1 1zm-10.4 4.8c-1 1-2.9-1.5-2.1-2.8.6-.9 1-.8 1.7.4.6 1 .7 2 .4 2.4zm-95 4.3c1 1.2 4.6 4 7.9 6.2 3.3 2.2 11.2 7.9 17.5 12.6 6.3 4.7 13.8 9.9 16.5 11.5 2.8 1.6 6.3 4 7.8 5.3 2.9 2.3 8.9 5.3 17.7 8.9 2.5 1 6.3 3.7 8.6 6.1 4.1 4.3 6.8 5.2 10.3 3.3 2.7-1.4 4.8-12 3.1-16-1.5-3.6.2-19 2.1-19 .5 0 2.4 1.7 4.3 3.7 3.3 3.7 3.5 3.7 5.4 2 1.9-1.8 2-1.7 4 1.5 1.1 1.8 3.7 4.9 5.7 6.8 3.5 3.4 5 6.1 9.1 16 1.1 2.4 2.9 5.5 4.2 6.9 4.3 4.7 1.7 7.8-6.4 7.3-4.2-.3-5.8.1-8.3 1.9-2.6 1.9-3.8 2.1-8.8 1.6-9.2-1-20.3-3.4-26.8-5.7-3.3-1.2-8.8-3-12.2-4-6.5-1.9-21.1-8.6-25.4-11.7-1.5-1-5.1-3.4-8-5.4-3-2-11.1-9.2-18-16l-12.6-12.4-.5-6.8c-.3-3.7-.2-6.7.2-6.7s1.5 1 2.6 2.1zm102.9.8c.7 1.2-1.2 2.4-2.5 1.6-1.1-.7-.4-2.5 1-2.5.5 0 1.1.4 1.5.9zm5.5 7.8c0 1.5-1.6 2.8-6.7 6-5.7 3.5-7.8 2.8-4.6-1.5 2.4-3.2 11.3-6.7 11.3-4.5zm-134.5 15.9c-.7 5.6-2.1 6.8-4.5 3.9-1.4-1.7 0-6.7 2.7-9.8 2.3-2.4 2.7-1 1.8 5.9zm126.5-4.5c0 1.1-.4 1.8-1 1.4-.5-.3-.7-1.2-.3-2 .7-2.1 1.3-1.9 1.3.6zm-70 27.1c11.4 7.4 17.1 10.2 27.1 13.1 4.6 1.4 12.1 4.1 16.6 6 12.7 5.4 31.2 7.6 37.4 4.4 1.4-.8 3.9-1.4 5.6-1.5 1.8 0 4.1-.6 5.2-1.1 1.8-1 2.2-.7 3.6 1.9 1.7 3.4 2.7 3.7 4.5 1.5 1.2-1.4 1.6-1.3 3.7.7 7.3 6.8 6.8 17.8-.7 17.8-3.2 0-7-3.9-7-7.2 0-4.5-1.8-5.8-7.8-5.8-7.6 0-8.5.8-8.9 7.2-.2 2.9-.5 5.9-.8 6.5-1 2.8-12.9.4-14.7-3-.5-1.1-.7-3.2-.4-4.8.4-2.2 0-3.3-2.5-5.3-3.3-2.8-5.9-3.2-9-1.6-2.6 1.4-4.9 6.2-4.2 8.8 1.2 4.6-8.7 5.3-16.8 1.2-3-1.6-4.1-2.9-4.9-5.9-.5-2.1-.7-4.6-.4-5.5.9-2.2-4.2-6.6-7.8-6.6-1.8 0-3.8 1-5.3 2.6-2.2 2.4-2.8 2.5-7.6 1.9-3.9-.5-6.1-1.6-9-4.2-4.2-3.8-4.5-4.9-2.7-10 1.1-3 1-3.6-.9-5.5-2.2-2.2-5.7-2.7-10.5-1.5-1.9.5-3 1.7-3.8 4.1-.6 1.9-1.8 3.7-2.6 4-1.8.7-5.9-.8-7-2.6-.4-.7-.9-9.5-1-19.5l-.1-18.2 12.1 11.3c6.6 6.2 15.9 13.7 20.6 16.8zm128-21.6c0 1.5-.8 3.2-1.7 3.9-1.2.9-1.7 2.5-1.6 5.5.1 2.8-.2 4-1 3.7-.7-.2-1.2-1.5-1.2-2.8 0-3.4-1.2-4.9-4.1-4.9-1.3 0-2.4-.5-2.4-1 0-.6 1.6-1 3.6-1 3.5 0 3.6-.1 3.1-3-.6-2.8-.4-3 2.3-3 2.6 0 3 .4 3 2.6zm-167.4 1c.4 1.7.2 2.9-.7 3.5-2.3 1.4-2.9 1-2.9-1.9 0-4.8 2.5-5.9 3.6-1.6zm-52.9 5.2c2.6 4.5 6.1 8.8 18.2 22.6 8.4 9.6 11.2 14.3 13.1 22 2.4 9.6 3.5 26.5 2 30.8-.8 2.2-.9 5.4-.3 9.8.7 5.4 1.2 6.7 3.1 7.5 2.5 1.1 2.9 4.6.7 6.5-.8.7-1.5 1.9-1.5 2.7 0 1.2.8 1.4 3.4.9l3.4-.7 1.1 5.1c1.5 6.9 1.3 11.1-.4 13.4-.8 1.1-1.5 3-1.5 4.3 0 3.5-2.9 4.5-16 5.6-2.3.2-2.5-.2-3.2-5.7-.9-6.7-2.1-8.6-5.5-8.6s-7.9 4.6-6.3 6.5c.8.9.8 2 .2 3.2-.7 1.2-.6 3.7 0 7.2 1.3 6.2.4 7.4-4.6 5.8-1.7-.5-3.7-1.1-4.3-1.3-.7-.2-1.3-1.2-1.3-2.3 0-1.4.8-2.1 2.8-2.3 2.1-.2 2.7-.8 2.7-2.8 0-1.9-.6-2.6-2.5-2.8-4.7-.7-4.5-2.2.2-2.2 8 0 7.4-4.2-.7-5.5-2.5-.3-4.5-1.1-4.5-1.6 0-.9.7-1.2 4.9-2.5 1.1-.4.9-1-.8-2.8-1.9-2.1-2-2.4-.6-3 .9-.3 2.9-.6 4.5-.6s4.1-.5 5.6-1c1.8-.7 3-.7 4 0 .8.8 2.4.8 4.6.2 1.8-.5 4.9-.7 6.8-.5 2.7.4 4 0 5.4-1.6 1.2-1.3 1.6-2.5 1-3.1-1.2-1.1-18.3-1.5-25.9-.5l-6 .7-1.8-4.8c-3.1-8.7-3.2-13.6-.6-20.1 1.3-3.2 2.7-6.4 3.3-7.1 1.2-1.7-.8-3.7-5.5-5.4-2.2-.8-5.8-3.8-9.6-8.1-10.2-11.5-24.2-23.5-38.7-33-8.6-5.6-10.3-7.7-6.2-7.7 3.8 0 7-1.5 10.2-4.9 2.3-2.5 3.7-3.1 7-3.1 4.8 0 6.7-1.7 8.5-7.8.7-2.3 1.4-4.2 1.7-4.2.2 0 1.7 1.1 3.4 2.5 3 2.6 4.1 2.9 9.2 2.5 4.6-.3 7.5-1.7 10.3-5 1.3-1.7 2.9-2.8 3.4-2.5.5.4 2.1 2.7 3.6 5.3zm175.1-3.9c.3.8-.1 1.2-.9.9-.7-.2-1.5-1-1.7-1.7-.3-.8.1-1.2.9-.9.7.2 1.5 1 1.7 1.7zM300 610.5c0 .8-.7 1.5-1.5 1.5-1.6 0-2-1.2-.8-2.3 1.1-1.2 2.3-.8 2.3.8zm143.1.5c.4.8 1.1 3.3 1.6 5.4.8 3.8 1.8 4.8 5.6 6 1.4.4 1.7 1.7 1.7 6.6v6.1l-2.9-2c-1.6-1.2-3.4-2.1-3.9-2.1-1.9 0-4.2-3.1-4.2-5.5 0-1.3-1.1-4.5-2.5-7.1-2.5-4.8-3.1-7.5-1.8-8.8 1.2-1.2 5.5-.2 6.4 1.4zm7.7 3.3c.3 4.8-.6 5.9-2.7 3.3-1.5-1.8-.4-8.9 1.3-8.3.6.2 1.2 2.5 1.4 5zm7.5-3.6c-.7.2-1.9.2-2.5 0-.7-.3-.2-.5 1.2-.5s1.9.2 1.3.5zm-23 7.9c.4.4.7 1.4.7 2.3-.1 1.1-.8.8-2.6-1.3-1.4-1.6-2.3-3.5-2-4.3.3-.8.6-2.2.7-3.1.1-.9.6 0 1.3 2 .6 2 1.4 4 1.9 4.4zm29.7-.6c0 1.1-.4 2-.9 2-1.4 0-2.3-1.8-1.6-3 1-1.7 2.5-1.1 2.5 1zm6.1 5.8c.7 3.5.6 3.6-2.2 2.2-1.9-1.1-2.6-4-1.2-5.4 1.3-1.3 2.8.1 3.4 3.2zM300 622.3c0 1.9-1 2.7-2.6 2-1.1-.4-1.2-.9-.3-1.9 1.5-1.8 2.9-1.8 2.9-.1zm166 4.4c0 .7-.7 1.3-1.5 1.3-1.5 0-2.1-3.1-.8-4.3.8-.8 2.3 1.2 2.3 3zm-5-1.7c0 .5-.7 1-1.5 1s-1.5-.5-1.5-1c0-.6.7-1 1.5-1s1.5.4 1.5 1zm-4 1c0 .5-.2 1-.4 1-.3 0-.8-.5-1.1-1-.3-.6-.1-1 .4-1 .6 0 1.1.4 1.1 1zm-158 3c0 .5-.4 1-1 1-.5 0-1-.5-1-1 0-.6.5-1 1-1 .6 0 1 .4 1 1zm158.4 4.1c-.3.5-1 .7-1.5.3-.5-.3-.7-1-.3-1.5.3-.5 1-.7 1.5-.3.5.3.7 1 .3 1.5zm8.1-.1c.3.5.1 1-.4 1-.6 0-1.1-.5-1.1-1 0-.6.2-1 .4-1 .3 0 .8.4 1.1 1zM299 635.9c0 .6-.4 1.3-1 1.6-.5.3-1-.1-1-.9 0-.9.5-1.6 1-1.6.6 0 1 .4 1 .9zm147.4 1.2c2.3 1.8 6.2 8.7 5.4 9.5-.5.4-4.2-2.9-7-6.4-4.4-5.2-3.4-7 1.6-3.1zm-151.4.3c0 .3-.4.8-1 1.1-.5.3-1 .1-1-.4 0-.6.5-1.1 1-1.1.6 0 1 .2 1 .4zm163.3 1.8c.2.7 0 2.1-.5 3.2-1.2 2.3-2.8.4-2.1-2.5.6-2.2 1.9-2.5 2.6-.7zm3.7-.4c0 1.3-1.2 2.2-2.2 1.6-1-.6-.1-2.4 1.3-2.4.5 0 .9.4.9.8zm3.8.4c-.2.6-1 1.4-1.6 1.6-.7.2-1-.2-.6-1.2.7-1.8 2.8-2.2 2.2-.4zm-167 3.9c-.2.6-.8 1-1.3 1s-1.1-.4-1.3-1c-.2-.6.4-1.1 1.3-1.1s1.5.5 1.3 1.1zm168.2 4c0 3.1-.4 4.8-1 4.4-.5-.3-1-2.6-1-5.1 0-2.4.5-4.4 1-4.4.6 0 1 2.3 1 5.1zM298 650c0 .5-.7 1-1.6 1-.8 0-1.2-.5-.9-1 .3-.6 1-1 1.6-1 .5 0 .9.4.9 1zm-4 3.5c0 1.5-1.8 3-2.7 2.2-.2-.3-.2-1.5.2-2.6.7-2.3 2.5-1.9 2.5.4zm4 1.5c0 .5-.4 1-1 1-.5 0-1-.5-1-1 0-.6.5-1 1-1 .6 0 1 .4 1 1zm164.5 1c.3.5-.3 1-1.4 1-1.2 0-2.1-.5-2.1-1 0-.6.6-1 1.4-1 .8 0 1.8.4 2.1 1zM294 660c0 2.2-1.6 3.5-2.5 2-.9-1.4.4-5.2 1.6-4.5.5.4.9 1.5.9 2.5zm4.8.7c-.4 2.2-2.2 2-2.6-.1-.2-1 .3-1.6 1.3-1.6s1.5.7 1.3 1.7zm164.2 1.7c0 .3-.4.8-1 1.1-.5.3-1 .1-1-.4 0-.6.5-1.1 1-1.1.6 0 1 .2 1 .4zm4.4 6c1.3 6.4 0 7.4-4.7 3.5-4.4-3.6-4.7-5.1-.9-4.7 2.3.3 2.7 0 2.4-2-.4-4.4 2.3-1.7 3.2 3.2zM294 665.5c0 .8-.4 1.5-1 1.5-.5 0-1 .9-1 2 0 1.2.7 2 1.6 2 1.4 0 1.4.1 0 1.6-.9.8-1.6 2-1.6 2.5 0 1.6-1.8 1-2.3-.9-.3-.9-.5-.2-.6 1.7-.1 4.4-.7 3.7-1.5-2-.6-4.1-.5-4.6 1.9-5.9 1.4-.7 2.5-1.9 2.5-2.7 0-.7.5-1.3 1-1.3.6 0 1 .7 1 1.5zm4 .5c0 .5-.4 1-1 1-.5 0-1-.5-1-1 0-.6.5-1 1-1 .6 0 1 .4 1 1zm174.4 11.6c.8 2.9.3 3.9-1.3 2.9-1.3-.8-1.5-5.5-.2-5.5.5 0 1.2 1.2 1.5 2.6zM296.7 679c-.3 1 .1 2.4.9 3.1 1.4 1.1 1 2.9-.5 2.9-.5 0-1.9-.8-3.1-1.8-2.3-1.9-2.3-1.9-.4-4 2.4-2.6 3.8-2.7 3.1-.2zm.7 54.6c1.1 2.8.6 5-1.2 6.7-2.3 2.1-3.2 1.3-3.2-2.8 0-4.5 3.1-7.3 4.4-3.9zm-10.4 6.5c0 2.3 4.2 18.8 6.4 25.4 1.4 4 1.8 6 5.7 25.5 1.1 5.8 2.3 11.5 2.6 12.7.3 1.4-.4 3.4-2.3 5.8-3 4-2.3 6.6 1.4 4.6 3-1.6 4.2-1.4 4.2.8 0 2.5 2.2 4.2 4 3.1 1.9-1.2 3-.3 3 2.2 0 1.2 1 5.2 2.2 9 2.3 7.1 2 9-1.2 7-2.7-1.6-2.3-1.8-8 3.3-5.1 4.5-10.7 7.5-14 7.5-1 0-2.8-.8-4-1.8-2-1.6-2.3-2.9-2.5-10.1-.2-6.5-.6-8.8-2.3-11-2.3-3.1-3.7-7.9-4.6-15.8-.4-2.9-1.3-7-2.1-9.3-1.6-4.6-1.4-4.8 2.6-1.9 1.8 1.3 2.9 2.9 2.9 4.5 0 1.7.5 2.4 2 2.4 1.9 0 2.4-1 2.1-3.7-.1-.6.3-1.4.9-1.8 1.4-.9 1.3-3.8-.4-7.7-.8-1.8-2-5.3-2.7-7.7-.8-2.5-2.4-5.2-4.1-6.4-2.2-1.6-2.5-2.4-1.7-3.9.8-1.4.6-2.8-.5-5.3-.9-1.8-1.6-4-1.6-4.8 0-2.9-6.6-15.7-8.1-15.7-2.4 0-3.2 5-2 12.1 1.2 6.2 1.9 7.7 5.7 11.6 3.8 4 4.2 4.8 3.2 6.7-.7 1.1-1.5 3.7-1.8 5.6l-.6 3.5-1.8-6c-4.2-14.1-5.6-18.2-7.2-22-.9-2.2-1.8-5.9-1.9-8.3-.3-4.2-.3-4.2 3-4.2 4.3 0 8.5-1.6 8.5-3.2 0-1.4 7.9-4.4 12.3-4.7 2.1-.1 2.7.3 2.7 2zm18 37.9c0 .5-.5 1-1.1 1-.5 0-.7-.5-.4-1 .3-.6.8-1 1.1-1 .2 0 .4.4.4 1zm1.4 5.1c-.3.5-1 .7-1.5.3-.5-.3-.7-1-.3-1.5.3-.5 1-.7 1.5-.3.5.3.7 1 .3 1.5zm14.3 27.5c.7 4.3 1.7 10.9 2.2 14.6.6 3.7 1.7 8.4 2.6 10.4.9 2.1 1.3 4.4 1.1 5.1-1 2.5-2.5 1.3-3.7-3-.6-2.3-1.8-5.9-2.6-8.1-3.3-9-5.5-25.1-3.6-27 1.7-1.7 2.8.6 4 8zm-10.7-4.1c0 .9-.6 1.2-1.5.9-.8-.4-1.2-1-.9-1.5.8-1.4 2.4-1 2.4.6zm46.8 6.3c.2.8-2.5 2.6-7.1 4.7-4 1.9-8 4.1-8.7 5-.7.8-1.6 1.5-2.1 1.5s-2.7 1.1-4.9 2.5-4.1 2.5-4.4 2.5c-.4 0-2.1-7.2-2.9-12.2-.6-4.1.2-4.6 6.6-3.8 4 .6 7.8.4 12-.5 7.2-1.6 10.9-1.5 11.5.3z"/><path d="M99.4 518.5c-.9 2.3.7 3.6 3.4 2.8 1.4-.3 2.2-1.2 2-2.2-.4-2.2-4.6-2.7-5.4-.6zM101.7 527.7c-1.4 1.3-.7 3.3 1.1 3.3 2.6 0 3.4-1.1 2.1-2.7-1.3-1.4-2.2-1.6-3.2-.6zM97.7 537.7c-1.4 1.3-.6 3.3 1.2 3.3 2.1 0 4.5-2.3 3.4-3.3-.8-.9-3.8-.9-4.6 0zM245.6 470.1c-1.8 3-1.6 5.9.4 5.9 1.2 0 5-5.9 5-7.8 0-2.4-3.6-1.2-5.4 1.9zM20.1 493.8c-1.4 1.1-2 2.1-1.4 2.5 1.4.9 4.7-1.7 4.2-3.2-.3-.9-1.1-.7-2.8.7zM16.4 500.5c-2.3 3.5-.8 5 4.1 4.1 3.2-.6 3.6-1 3.3-3.4-.4-3.9-5-4.3-7.4-.7zM436 481.4c0 2.2 2.7 3.8 5.7 3.4l2.8-.4-2.7-1.1c-1.4-.7-2.9-1.7-3.3-2.2-.9-1.6-2.5-1.4-2.5.3zM429.5 487c-.3.5-.3 1.5.1 2.2.4.6.9 3.6 1.1 6.7.3 4.1 1 6.2 2.6 7.8 2.7 2.6 9.7 4.2 9.7 2.2 0-.7 1.2-2.3 2.7-3.5 2.6-2.1 2.6-2.2 1.2-6-1.2-3.3-2.3-4.2-6.7-6-2.9-1.2-5.8-2.6-6.5-3.3-1.4-1.4-3.4-1.4-4.2-.1zm14.5 9c.6 1.1.8 2.6.4 3.2-.5.8-1 .5-1.5-.8-1.6-4.1-.8-5.9 1.1-2.4zm-4.9 4.4c1.6 1.7 1 2.6-1.6 2.6-3.3 0-4.3-2.6-1.9-4.9 1.7-1.6 1.9-1.6 2.2-.2.2.9.8 2 1.3 2.5zM295.6 530.6c-.8 2.1-.8 2.4.3 2.4 1.2 0 2.2-2.8 1.2-3.5-.5-.3-1.2.2-1.5 1.1zM295.7 536.6c-.4.4-.7 1.4-.7 2.3 0 1.1.3 1.2 1.1.4.6-.6 1-1.6.7-2.3-.2-.6-.7-.8-1.1-.4zM316 548c-1.5 2.9-1.2 3.9 1.5 4.6 1.3.3 2.9 1.2 3.6 2 2.1 2.5 3.9 1.6 3.9-2 0-3.8-1.3-5.3-5.3-6-1.9-.3-3 0-3.7 1.4zM342.7 560.6c-.4.4-.7 2.2-.7 3.9 0 2.6.7 3.5 3.9 5.3 3.4 1.9 4 2 4.5.6 1.4-3.7.6-6.9-2.2-8.2-4.5-2.2-4.8-2.3-5.5-1.6zM315.2 563.2c-2 2-1.3 4.1 2.4 7.2 1.9 1.6 3.6 2.7 3.8 2.5 1.2-1.4 1.5-6.7.4-8.1-1.8-2.2-5.1-3.1-6.6-1.6zM365 574c0 2 .6 3.3 1.8 3.7.9.4 1.9 1 2.2 1.3.3.4 1.5 1 2.8 1.4 2 .7 2.2.4 2.2-2.8 0-3.2-.4-3.7-3.6-5.1-5-2.1-5.4-1.9-5.4 1.5zM339 577.9c-.5 1.1-.7 2.6-.4 3.5.5 1.4 6.6 6.6 7.7 6.6.3 0 .7-1.5 1-3.3.4-2.5-.1-3.8-2.1-6-3-3.2-4.7-3.4-6.2-.8zM360 592c-1.3.8-1.3 1.2 0 3.6.8 1.5 2.4 3.2 3.5 3.8 1 .6 2.5 1.7 3.3 2.3 2.4 2.3 3.2 1.4 3.2-3.3 0-4.2-.2-4.6-3.5-6-4-1.6-4.5-1.7-6.5-.4zM381.7 601.7c-.4.3-.7 1.9-.7 3.4 0 2.7 2.5 4.4 5.9 3.9.8-.1 1.7.4 2.2 1.1 1.1 1.8 1.6 1.1 2.4-3.3.7-3.4.5-3.9-2-4.8-3-1.1-6.9-1.3-7.8-.3zM431.3 584c0 6.2.4 6.9 2.5 4.8 2.1-2.1 1.3.7-1 3.7-2.8 3.6-1.5 6 3.3 6 3.3 0 3.4-.2 4.7-5.4 1.5-6.2.5-9.9-3.6-13.1-4.6-3.6-5.9-2.8-5.9 4zm5.5-.1c.3.8-.1 1.2-.9.9-.7-.2-1.5-1-1.7-1.7-.3-.8.1-1.2.9-.9.7.2 1.5 1 1.7 1.7zM493.1 559.4c-1.4 1.6-.9 4.6.7 4.6.5 0 1.5-.7 2.2-1.6 1.1-1.2 1.1-1.8-.2-3-1.3-1.3-1.6-1.3-2.7 0zM491 568.5c-1 1.1-1 1.9-.2 2.7 1.5 1.5 4.4.2 4-1.9-.4-2.3-2.2-2.7-3.8-.8zM475 571c0 2.2 3.1 7 4.5 7 2.1 0 1.9-1.7-.6-5.1-2.1-2.9-3.9-3.8-3.9-1.9zM475 587.7c0 8.3 4.5 21.3 7.3 21.3.6 0 1.9 1.5 2.7 3.2 3.3 6.9 5.4 2.7 2.7-5.2-1-2.8-1.7-3.4-3.5-3.2-1.7.3-2.2-.1-2.1-2 .1-1.3-.8-4.3-1.9-6.8-1.2-2.5-2.2-5.5-2.2-6.7 0-2.8-1-5.3-2.1-5.3-.5 0-.9 2.1-.9 4.7zM478.3 615.6c-1.4 3.8 6.3 23.2 11.4 28.6 2.6 2.8 7.6 3.8 8.7 1.9.7-1.1-4.2-10.7-8-15.7-2.4-3.1-2.9-3.4-4-2-.6.9-1.4 1.6-1.7 1.6-.7 0-3.7-10.2-3.7-12.8 0-2.7-1.8-3.8-2.7-1.6zm11.2 21.1c2.7 4 3.4 7.1.9 3.8-2-2.6-4.6-7.5-4-7.5.3 0 1.7 1.7 3.1 3.7zM176.6 636.1c-2.1 2.5-2.5 3.8-2 6.4.4 2.2 0 4.5-1.4 7.1-2.5 5.1-3.4 9.1-7.2 33.6-1.5 10.2-3.6 46.4-3.2 56.8 0 2.6-1.4 12.3-4.7 32-6.4 37.7-7.5 41.4-21.3 71-1.7 3.6-3.5 7.4-4.1 8.5-4 7.2-7.7 15.3-7.7 16.8 0 3.5 3.2 1.3 4.5-3 .7-2.3 3.8-7.9 7-12.4 5.9-8.4 15.5-26.5 15.5-29.2 0-.9 1.2-4.9 2.7-8.9 3.2-8.9 4-12.5 5.3-24.8.6-5.2 1.7-13.6 2.5-18.5 2.1-12.5 3.2-26.1 4.5-54 1.7-38.4 5.4-60 12.3-71.6 2.1-3.4 2.3-4.5 1.4-6.1-1-1.5-.9-2 .2-2.7 1.5-.9.9-4.1-.8-4.1-.5 0-2.1 1.4-3.5 3.1zM481.1 645.8c-1.5 2.8.6 9.2 4.7 14.5 1.8 2.3 4.8 6.6 6.5 9.6 3.3 5.6 5.7 7.5 5.7 4.6 0-2.2-3.5-8.8-8.6-16.4-2.6-3.7-4.4-7.5-4.4-9.1 0-3.8-2.5-5.8-3.9-3.2zM157.8 647c-2.7 2-9.9 18.6-11.8 27-.5 2.5-1.2 14.4-1.6 26.5-.3 12.4-1.2 26-2.1 31.2-.8 5.1-1.3 10.7-1 12.5.9 6.4-3.7 28.6-8.9 42.8-.9 2.5-3.2 9.7-5.1 16-4.9 16.3-13.2 35.8-16.8 39.4-4.3 4.3-4.1-.2.3-6.7 1.9-2.8 2.2-4.1 1.4-4.9-1.7-1.7-9.9 7.1-10.7 11.6-.9 4.4-.1 5.6 3.5 5.6 6.3 0 7.6-1.4 16.9-18.1 2.9-5.2 15.1-40.3 18.5-53 .8-3 2.3-8.8 3.5-12.9 4.3-16 6.1-33.6 6.1-59.4 0-17.8.4-25.5 1.4-29.1 2.5-8.8 6.6-18.6 9.1-21.9 2.8-3.7 3.1-5.8 1.1-7.5-1-.8-1.9-.6-3.8.9zM196.6 653.6c-2.4 6.1-3.5 14.9-2.5 18.6.8 3 .7 6.4-.1 12.6-.6 4.7-1.4 9-1.7 9.5-.2.4-.9 3.2-1.3 6-.5 2.9-1.4 7.9-2 11.2-.8 4.4-.8 6.5 0 8 1.1 2.1-1.1 16.1-5.6 35.1-1.5 6.4-1.8 9.4-3.4 30.4-.5 7.4-1.5 16.4-2.1 20-2.3 14-2.3 15.4 0 17.4 2.7 2.4 3.9 1.4 2.1-1.8-.8-1.5-1-4-.7-6.3.3-2.1 1.1-6.7 1.7-10.3.6-3.6 1.5-12.1 2-19 1.9-25.9 2.5-29.4 5.2-33.1 1.6-2.1 2.3-5.1 2.9-11.6.4-4.8 1.9-13.6 3.4-19.5 1.4-5.9 2.4-11.1 2.2-11.5-.5-.8 1.2-13.7 3.3-25.3 1.8-10.3 3.2-22.2 2.7-22.7-1.1-1-2.7.9-2.7 3.1 0 1.2-.6 3.1-1.4 4.1-1.3 1.7-1.4 1.6-2-2.2-.6-3.2-.2-5.1 1.7-9.2 2.3-4.7 2.4-5.1.7-5.1-1 0-2.1.7-2.4 1.6zm-1.7 52.1c-.2 4.3-1.3 7.6-2.8 8.1-1.1.4-1.2-.4-.7-3.4 1-5.7 1.6-7.4 2.7-7.4.5 0 .9 1.2.8 2.7zM480.8 664.6c-1.6 1.5-.7 4.1 2.1 6.8 1.6 1.6 3.9 5 5 7.7 2.3 5.2 3.7 6.7 5.2 5.2s-3.1-11-7.7-16.1c-2.1-2.4-4.2-4-4.6-3.6zM426.5 668.2c-.3.7-.1 6.8.3 13.5.5 6.7.5 15.5 0 19.4-1 8.2-.6 10.2 1.9 9.7 1.3-.2 1.8-1.4 1.9-3.8.1-1.9.5-10.5.9-19 .8-16.1.1-21-3-21-.9 0-1.8.6-2 1.2zM446.1 673.9c-1.2.8-1.1 1.7.5 6.2 1.2 3.3 2.6 5.5 3.7 5.7 2.1.4 2.3-2.6.3-8.3-1.5-4.3-2.3-4.9-4.5-3.6zM437.7 683.7c-.3.4-.5 2.9-.5 5.5-.3 12.2-4 33.1-9.3 51.3-3.7 12.8-5.8 31-4 35.2 1.8 4.5 7.6 9.7 9.7 8.9 1.5-.6 1.3-1.1-1.6-4.1-6.4-6.6-6.9-18.7-1.5-36 5.3-17 10.8-45.8 10.9-57 .1-2.9-.3-4-1.6-4.3-.9-.2-1.8.1-2.1.5zM449.7 696.7c-.3.5-.8 4.4-1.2 8.7-.4 4.4-1.9 12.3-3.2 17.5-1.3 5.3-2.3 11.4-2.2 13.6.5 6 .4 15.7-.1 18.5-.4 1.6 0 2.5 1 2.7 2.5.6 4.5-12.1 3-19.2-1-4.6-.9-6.4.4-10.3 2.3-6.8 5.6-23.8 5.6-28.3 0-2.7-.4-3.9-1.4-3.9-.8 0-1.7.3-1.9.7zM479.5 701c-3.8 2.2-7.9 5-9 6.3-2.6 3.1-5.9 8.9-6 10.4 0 .6-.7 1.9-1.6 3-2.7 3.1-6.3 10.2-5.6 11 1.1 1 3.2-1.5 6.7-8.2 3.8-7.2 14.2-17.5 21.1-21.1 4.7-2.4 6-4.6 2.8-5.1-.8-.1-4.5 1.5-8.4 3.7zM491.5 706.4c-10.8 7.1-16.4 14.6-10.9 14.6.8 0 1.8-1 2.3-2.3 1.1-2.8 5.8-7.1 12.3-11.2 2.8-1.7 4.8-3.8 4.8-4.8 0-.9-.1-1.7-.2-1.7-.2.1-3.9 2.5-8.3 5.4zM130.2 709.2c-.7.7-1.2 2.4-1.2 3.9 0 1.4-.7 4.6-1.5 7-.9 2.4-2.5 8-3.6 12.4s-4.7 14.4-8 22.3c-3.2 7.8-5.9 14.8-5.9 15.6 0 .7-.7 2-1.7 2.7-.9.8-4 6.3-6.9 12.4-14 29.5-16.4 33.9-24.1 42.7-2.8 3.2-6 8-6.9 10.6-1 2.6-3.3 6.8-5.2 9.4-4.4 6.2-14.1 14.8-16.6 14.8-1.9 0-1.8-.1.4-2.4 2.2-2.4 2.2-5.6 0-5.6-1.7 0-9 7.2-9 8.9 0 4.1 6 5.4 12.3 2.8 3.9-1.7 19.7-18.2 22.4-23.4 3.3-6.5 6.5-11.3 7.4-11.3.5 0 2-2.2 3.3-4.8 1.4-2.7 5-9.1 8.2-14.3 6.2-10.1 13.5-25.8 18.8-40.4 1.9-5 5.2-13.2 7.5-18.3 2.3-5.1 4.4-10 4.6-11 .2-.9 1-3.1 1.9-4.7.9-1.7 1.6-3.6 1.6-4.3 0-.7 1.6-5.1 3.5-9.9 1.9-4.8 3.5-9.9 3.5-11.3 0-2.4-1.6-5-3-5-.3 0-1.1.5-1.8 1.2zM491.3 731.8c-1.7.9-6.2 5.7-9.9 10.7-6.7 8.9-10.4 16.9-10.4 22.6 0 3.4-4.1 8.4-9 10.9-5.1 2.6-6.9 5.8-9.7 17.4-1.8 8-2.5 14.6-3.2 31.6-.6 16.6-1.2 22.5-2.6 26-1 2.5-1.8 5.7-2 7.1-.1 1.4-1.8 4.7-3.8 7.4-3.6 4.7-4.3 6.5-3.1 7.8 2.1 2.1 6.2-4.7 12.2-20.3 2.3-6 2.5-8.1 2.7-25 .4-23 3.4-41.7 7.3-45.6 1.6-1.7 1.7-1.5 2.2 3.2.4 3.6 1 5 2.3 5.2 1.9.4 2.4-2.2.6-3.4-1.8-1.1.1-5.8 3.7-8.7 3-2.5 5.4-7.7 6-12.8.4-4.5 1.7-9.7 3.1-12.4 1.5-2.8 7.5-9.1 13.6-14.2 1.5-1.3 2.4-2.9 2.1-3.7-.4-.9.6-1.6 3-2 2.2-.4 3.6-1.3 3.6-2.1 0-2-4.7-1.9-8.7.3z"/><path d="M461.2 735.2c-.7.7-1.2 3.4-1.2 6.2 0 3.5-.6 5.6-1.9 7-3.1 3.4-9.7 17.3-12.9 27.6-4.9 15.6-10.1 37-10.8 44.3l-.6 6.7-5.1-.6c-6.5-.7-7.7-1.1-7.7-2.4 0-.5 1.3-1 2.9-1 1.6 0 3.4-.7 4.1-1.5 1.7-2-2.5-2.9-10.1-2.1-4.9.6-5.9.4-5.9-.8 0-1.9 2.4-2.5 11-2.8 5-.2 6.5-.6 6.5-1.8 0-1.2-1.5-1.5-8.7-1.2-5.4.1-8.8-.2-8.8-.8 0-.5 2.4-1 5.4-1 3.5 0 5.8-.5 6.6-1.5 1.6-1.9.4-2.3-7-2.7-5.2-.3-5.5-.4-5.8-3.1-.5-3.9 1.4-5.7 5.9-5.7 5.3 0 5.4 2.8.2 3.2-4.7.4-5.3 3.1-.9 3.6 4.3.5 7.4-.6 9.2-3.2 3.3-5.2-2-8.4-11.6-7.1-6.9 1-8.3 2.3-8.3 7.9.1 5-1.3 6.6-6.1 6.6-3.4 0-7.6 2-7.6 3.6 0 1.9 3.8 3.7 9 4.4 6.8.8 5.9 3-1.7 4.6-7.5 1.5-8.3 2-8.3 4.3 0 3 3 4.6 8.8 4.7 3.3 0 5.7.5 6 1.2.2.7 0 1.2-.5 1.2-6.1.4-15.6 2-16.8 3-.8.7-1.5 2.3-1.5 3.6 0 2.7 3.5 6.7 5.3 6.1 1.1-.4 1.2-1.6.5-6.2-.3-1.8.3-2 5.7-2h6l.8 15c.9 18.2 2.7 25.5 6.5 25.5 2.1 0 2.3-.3 1.7-2.3-2.3-7.7-3.8-23.9-2.8-32.8l.6-5.9h5.7c3.1 0 7.8-.6 10.3-1.4 2.5-.7 4.8-1.1 5.1-.9.6.6-.1 4.3-2.5 14.2-2.1 8.2-2.4 14.1-.9 14.1 1.4 0 2.7-3.4 3.9-10.5.5-3.3 1.9-10.3 3-15.5 1.1-5.2 2.3-13.8 2.6-19 .6-8.2 6.4-33.8 9.4-41.5.5-1.1 1.4-3.8 2.1-6 2.5-8.1 7.4-17 11.6-21.3 2.4-2.4 4.4-5.2 4.4-6.3 0-1 .5-2.1 1-2.4 1.9-1.2 1.1-3.8-1-3.2-1.5.4-2 0-2-1.4 0-2.2-1.1-2.4-2.8-.7zM405.5 813c-.3.5-1.5 1-2.5 1s-2.2-.5-2.5-1c-.4-.6.7-1 2.5-1s2.9.4 2.5 1zm13 11.5c0 .5-1.5 1.1-3.2 1.3-2.5.3-3.3-.1-3.3-1.3s.8-1.6 3.3-1.3c1.7.2 3.2.7 3.2 1.3zm-12.7.7c-.5 1.5-7 3-8.2 1.8-1.6-1.6.5-3 4.5-3 2.8 0 3.9.4 3.7 1.2zm24.1 5.3c1.5 1.6-2.9 3-9.9 3.4-7.5.3-8 .2-8-1.7 0-1.1.6-2.2 1.3-2.5 1.5-.5 15.9.2 16.6.8zM133.1 740.4c-.7.8-2.6 7.2-4.2 14.1-3.2 13.5-4.5 17.3-10.4 30-2 4.4-5.9 13.1-8.6 19.5-8.2 18.9-9.7 22.3-11.8 27-2.7 5.8-7.7 13.8-10.6 17-1.3 1.4-4.8 6.3-7.8 11-3.1 4.7-6.5 9.6-7.6 11-1.1 1.3-1.8 2.7-1.5 3.1.6 1 5.8-.2 7.8-2 4.4-3.7 9.6-11.4 9.6-14 0-1.6 1.3-4.6 2.8-6.7 3.5-4.7 6.9-10.7 13.5-23.4 2.7-5.2 5.7-10.9 6.7-12.5 1.9-3.3 8.7-19.3 11.3-26.5 1.6-4.7 7.2-20 11.3-30.8 1.6-4 2.4-8.3 2.4-12.2 0-6-.8-7.2-2.9-4.6zM496.8 748.7c-2.9 3.3-10.5 19.8-13.1 28.3-3.5 11.8-4.5 17.3-6.4 34-1.8 16.4-1.7 15.3-.8 28 .6 8.2.4 10.5-1.5 17-1.2 4.1-2.6 9.9-3 12.8-.5 2.9-1.4 6-2.1 6.8-1.6 1.9-.3 3.1 1.9 1.8 1.1-.7 2.8-5.5 4.9-13.5 2.9-11.3 3.1-13.8 3.1-27.9 0-11.5.6-18.5 2.1-26.9 1.2-6.3 2.1-13.4 2.1-15.7 0-2.4 1.1-7.8 2.5-12.1 2.5-7.8 11.3-26.5 12.7-27.1 1.1-.5 1-7.2 0-7.2-.5 0-1.6.8-2.4 1.7zM217.1 754.4c-.7.8-1.4 7-1.7 15.3-.6 14.1-2.2 22.5-10.5 54.8-4.2 16.2-4.8 22.2-3.5 34 1 9.1 1.3 10 3.3 10.3 2.2.3 2.2.3 1.6-14.1l-.6-14.5 4.7-18.3c2.6-10.1 5.7-22 6.9-26.4 1.2-4.4 2.5-13 2.9-19 .4-6.1 1-12.9 1.3-15.1.7-4.1-.6-8.4-2.4-8.4-.5 0-1.4.6-2 1.4zM48 771.5c-.6.8-1.4 3.4-1.7 5.7-.3 2.4-2 7-3.8 10.3-1.8 3.3-3.6 7.4-4 9.2-.8 4.1-6.4 17.2-10.4 24.6-4.5 8.3-9.5 14.8-19.4 25.2-4.8 4.9-8.6 9.3-8.7 9.7 0 1.9 2.2.4 9-5.9 10.3-9.6 23.7-29.7 30.3-45.8 2.1-5 4.6-10.7 5.7-12.7 1.1-2 2-4.6 2-5.7 0-1.1.4-2.2.9-2.5.4-.3 1.1-2.5 1.4-4.8.4-2.4 1-5.3 1.3-6.6.7-2.5-.7-2.9-2.6-.7zM458.1 828.4c-.6.8-1.6 3.9-2.1 7s-1.6 8.2-2.4 11.3l-3.1 12.4c-.9 3.6-2.6 8.1-3.7 10-1.1 1.9-2.4 4.6-2.9 6.1-.6 2.4-.5 2.8 1.2 2.8 1.1 0 2.2-.8 2.5-1.7.3-1 1.4-3.5 2.6-5.7 2.6-5 3.3-7.3 7.3-24.6 1.9-8 3.7-15.5 4.1-16.8.7-2.6-1.6-3.1-3.5-.8zM218.2 829.2c-.8.8-1.2 5.7-1.2 15.4 0 13 .2 14.4 2.3 17.5 2.5 3.8 5.7 5.1 5.7 2.3 0-1-.8-2.6-1.7-3.7-1.5-1.6-1.8-4.2-2-16.6-.1-8-.2-14.9-.2-15.4-.1-1.1-1.5-.9-2.9.5z"/><path d="M418.1 841.2c-1.1 2.9.5 6 2.7 5.6 2.1-.4 2.9-5.7 1-6.9-2.1-1.3-2.8-1.1-3.7 1.3zM434.5 876c-.8 1.3 1.5 1.3 3.5 0 1.2-.8 1.1-1-.7-1-1.2 0-2.5.4-2.8 1z"/></svg>