<svg version="1" xmlns="http://www.w3.org/2000/svg" width="666.667" height="1170.667" viewBox="0 0 500 878"><path d="M245.5 29.2c-2.7.5-12.3.9-21.2 1-9 .1-16.3.5-16.3.9s1.3 1.8 2.9 3.1c3.4 2.6 12.1 15.2 12.1 17.4 0 1-1.3 1.4-4.4 1.4-8.2 0-9.1 5.5-.9 5.9 10.9.6 52.7-1 54-2.1 1.9-1.6.4-3.7-3-4l-3.2-.3v-18h4.6c2.5 0 5.4-.6 6.3-1.4 3.1-2.6-.4-3.7-12.1-4-5.9-.1-11.5-.3-12.3-.5-.8-.2-3.7.1-6.5.6zm-13.4 7.1c-.2 5.4-2.5 12.7-4 12.7-.9 0-6.1-10.3-6.1-12.1 0-.4 1.9-1 4.3-1.2 5.2-.4 5.9-.4 5.8.6zm14 1.4c.5 1.5.9 5.2.7 8.2l-.3 5.6h-6c-6.8 0-6.9-.3-3.9-8 .9-2.2 2-5 2.5-6.3 1.3-3.3 5.6-3 7 .5zm11.9 2.7c0 2.9.3 6.8.6 8.6.7 3 .6 3.1-2.2 2.8l-2.9-.3-.3-8.3c-.3-8.2-.3-8.2 2.3-8.2 2.4 0 2.5.3 2.5 5.4zM62.3 123.5c-1.3 3.6.4 11.3 3.5 15.6 5 6.8 3.6 12.4-1.6 6.4-2.3-2.7-5.1-3.2-8.3-1.4-1.6.8-1.9 1.6-1.3 4.2.3 1.8 1 3.7 1.5 4.3 1.7 2.1 7.2 2.3 11.4.4 2.7-1.1 4.8-1.4 6.2-.9 2.7 1 4.4 4.1 3.3 5.9-1.1 1.8-.4 3 1.9 3 3.2 0 3.9 1.8 2.2 5.5-1.7 3.6-3.7 4.8-2.6 1.6.8-2.6-.4-5.1-2.5-5.1-2.4 0-3.3 4.1-1.7 7.8.7 1.7 4.9 7.3 9.2 12.5 15.5 18.3 26.8 32.5 26.6 33.3-.1.5-1.2 1.2-2.6 1.6-2.1.5-2.8 0-4.6-2.9-4-6.4-13.7-8-12.1-2.1.7 3 7.2 9 8.9 8.4 2.3-.9 1.4 1.3-1.3 3.1-2.5 1.6-2.7 1.6-3.9 0-.7-.9-1.5-1.7-1.9-1.7-.9 0-.8 5 .2 5 .4 0 1.7.3 2.8.6 1.5.4 3.2-.4 5.9-2.7 3.7-3.2 4.5-3.2 5.8.5.6 1.7 3.7-.3 3.7-2.3 0-2.5.9-3 4.2-2.4 1.9.4 4 2.2 6.4 5.6l3.7 5.1-1.2 10.1c-.7 5.5-1.3 11.1-1.5 12.5-.1 1.4-.9 2.6-1.7 2.7-7.8 1-9.1 1.5-10.9 4.6-2.7 4.4-2.7 9.7 0 9.7 1.1 0 2 .4 2 .8 0 1-9.1 14.9-13.2 20.2-6 7.9-14 22.7-17.8 33.1-5.4 14.6-3.1 22.6 7.5 25.9 2.2.7 5.2 2.1 6.7 3.1 1.4 1.1 4.1 1.9 5.8 1.9 1.8 0 4.9.4 6.9.9 15.4 4 20.3 5.6 20.7 6.5.2.6-.2 3.4-1.1 6.1-1.7 5.9-2 15.9-.4 20.3.7 2.1 3 4.5 7.2 7.2 5.7 3.8 6.4 4.1 11.1 3.5 8.8-1.1 8.7-1.2 9.8 21 .1 2.7-1.6 15.3-4.2 31-.6 3.3-.9 12.5-.7 20.5.2 8 .2 15.1-.1 15.8-.2.7-2.2 2-4.3 2.8-4 1.6-9.4 8.4-22.1 27.4-8.1 12.1-15.1 33.9-17.3 53.6-.8 6.9-1.9 9.4-3.4 7.9-1.6-1.7-4.5-25.3-4.7-38.6-.2-13.1-.7-15-5.5-21.1-2.8-3.4-1.8-5 2.1-3.7 2.5.9 3.4.7 6-1.1 5.4-3.8 2.8-7.5-5.2-7.5-5.1 0-5.2-.1-4.2-4 1-4-.4-7.2-4.1-9.5-3.3-2.1-3.7-2.1-6-.6-2.8 1.9-3.2 4.8-1 8.6 1.9 3.3 1.8 4-.3 4-2.6 0-5.2 3.2-5.2 6.3 0 1.8 1 3.4 3 4.9 1.6 1.2 3 2.8 3 3.5 0 .7-1.8 3.3-4 5.7-2.2 2.4-4 4.8-4 5.5 0 .6.9 3 2 5.4 3.7 7.8 5.9 17.5 7.4 33 2.4 24.1 3.5 38.1 3 38.9-1.2 1.8-3.5.6-4.8-2.6-1.7-4-6.7-7-10.1-6.2-4.7 1.2-3.9 6.3 1.4 9 2.3 1.2 2.7 2 2.4 4.1-1.1 5.2 5.3 7.8 7.5 3 1.1-2.5 3.6-3.3 4.6-1.6.3.5 1.3 4.1 2.1 8.1 1.4 6.8 1.4 7.5-.2 9.8-4.8 6.7-9.7 15.1-10.9 18.7-.8 2.2-2.3 5.8-3.3 8-1.6 3.7-3.3 9.9-6 23-1.3 6.3-4.5 29.2-7 50.2-2 16.3-3.6 21.3-6.8 21.3-2.2 0-8.3 6.5-8.3 8.8 0 1.1.7 2.5 1.5 3.2 2.3 1.9 1.8 3-1.9 4.5-1.9.8-3.7 2.4-4.1 3.5-.8 2.5-3.1 3.1-13.3 3.3-7.4.2-8.4.5-10.8 2.9-1.7 1.6-2.4 3.2-2.1 4.2 1 2.4 2.5 1.9 4.2-1.4.9-1.8 2.6-3.2 4.3-3.6 1.5-.3 3.5-.8 4.5-1.1 2.8-.7 2 2.5-1.3 5.3-1.6 1.4-4.3 5-6.1 8-3.8 6.8-3.4 9.9 1.7 12 3.2 1.3 4 1.3 10.9-1.1 4.2-1.4 8.3-2.5 9.3-2.5 3.1-.1 16.5-5.9 18.9-8.2 1.3-1.3 3.6-3.5 5.1-4.9 3.5-3.4 6.9-5.2 8.3-4.3.7.4-.7 1.6-3.2 2.8-2.3 1.2-4.4 2.7-4.7 3.4-.5 1.7 2.9 1.4 5.2-.3 1.1-.8 3.5-1.5 5.3-1.5 2.6 0 3.3-.4 3.3-1.9 0-3 2.2-4.1 9.5-4.6 3.7-.3 7.2-.8 7.6-1.1 1.6-.9 1-2.1-1.4-2.9-2.1-.6-2-.7.9-1.4 7.2-1.8 6.8-4.3-.5-3.4l-4.9.6-2.1-4.1c-2.5-4.9-2.7-7.5-.6-9.2 2.5-2 1.9-5.9-1.1-7.2-2.6-1.2-2.6-1.4-2.1-8.4.3-3.9 1.2-8.5 2.1-10.2.8-1.6 3.6-8.1 6.1-14.3 4.8-11.9 5.9-13.7 6.9-12.1.5.8 2.2 14.6 5.6 44.2.6 5.2 1.3 11.2 1.6 13.3.4 3.2.1 3.9-2.1 4.9-3 1.3-3.3 3.8-.5 3.8 1.2 0 2 .7 2 1.7.1 1 .5 6.3 1.1 11.8 1.5 15.9 3.9 45.6 3.9 49.9v4l-2.7-2.6c-3.1-2.9-14.7-6.5-24.8-7.6-8.9-1.1-15.7-6.9-12.5-10.7.7-.8 3.2-2.7 5.6-4.2 4.7-3 5.4-4.6 2.7-6.2-1.4-.8-1.1-1.2 2.2-2.6 2.2-.9 5.3-1.9 6.8-2.2 3.3-.7 5.2-3.4 3.5-5.1-1.8-1.8-7.8-1.4-12.3.7-4.9 2.2-10.5 6.8-10.5 8.6 0 .7-2.2 2.7-5 4.5-2.7 1.8-5 3.6-5 4 0 2-6.2 3-16.7 2.8-9.4-.3-11.4 0-13 1.5-2.7 2.3-8.4 2.2-11.6-.3-1.4-1.2-4.7-3-7.2-4.1-2.5-1.1-4.5-2.5-4.5-3.2 0-.7 1.1-8.2 2.4-16.7 1.3-8.5 2.4-16.2 2.4-17-.1-.8 1.1-8.5 2.5-17s3.1-20.2 3.8-26c.6-5.8 2.5-20 4.2-31.5 1.6-11.6 3.1-21.9 3.2-23 .3-3.3 1.5-10.5 3.1-18.4.8-4.1 1.7-11 2-15.5.2-4.5 1.1-13.3 1.9-19.6.8-6.3 1.7-14.7 2-18.5.5-5.9 2.4-21.2 5-41.1.6-3.9.8-4.2 4.5-4.8 2.1-.3 4.4-1.4 4.9-2.4.9-1.5 1.2-1.4 3.4 1.1 1.6 2 3 2.8 4.6 2.5 3.7-.5 4.7-3 3.1-7.6-1.2-4-1.2-4.1 1.9-7.2 3.4-3.4 4-7.3 1.8-10.4-1.7-2.3-4.5-1-7.8 3.5l-2.2 3.1-1.4-2.6c-2-3.9-4.6-3-5.5 1.9-.4 2.2-.5 5.2-.2 6.7.8 3.8-.4 6.8-2.6 6.8-1 0-2.1-.3-2.3-.8-.6-.8.6-8.1 2.9-18.5.8-3.7 1.9-9.8 2.4-13.5.5-3.7 2.1-13.2 3.5-21.2 1.5-8 3.2-18.6 3.9-23.5.8-5 2.3-11 3.6-13.4 2.8-5.5 3.1-14.2.7-16.9-2-2.1-2.3-8.2-.5-10 1.7-1.7 3.8-1.5 3.8.3 0 .8 1 2 2.3 2.6 1.2.6 3.2 2.1 4.4 3.2 1.3 1.1 2.6 1.8 2.9 1.4 1.1-1-1.7-10.7-3.5-12-1.3-.9-1.7-2.7-1.6-7.9 0-6-.3-7-2.7-9.4-2.6-2.7-2.7-2.7-5.4-1-2.6 1.8-2.6 2-2.2 9.2.3 4.1.3 7.4 0 7.4s-1.7-1.4-3.1-3c-3.5-4.1-7.9-4.5-10-.9-1.4 2.5-1.3 2.9.9 6.2 1.4 2 3.5 4.1 4.8 4.7 2.5 1.1 2.5 2.9.1 4-.8.4-4 1.9-7.1 3.3-7 3.2-7.4 4.4-8.3 23.7-.3 7.4-1 14.6-1.5 16-.4 1.4-1.2 4.3-1.6 6.5l-.7 4-1.1-2.7C28 496.1 24 492 22 492c-.9 0-2.5.9-3.5 2-1.1 1.2-2.5 1.8-3.6 1.5-.9-.3-2.4.2-3.4 1.1-2.1 2.2-1.2 7.9 1.7 11.1 1.5 1.6 1.9 2.9 1.4 4.8-.8 3.3.7 6.1 4.5 8.1 3.5 1.8 5.3.9 6.3-3.1.7-2.7 2.4-3.3 3.2-1.1.3.8-.2 5.8-1.1 11.2-3.1 19.5-3.4 22-3.9 28.4-.3 3.6-1 9.9-1.6 14-.5 4.1-1.9 15.8-3 26s-2.5 21-3 24-1.2 9.1-1.5 13.5c-.8 11.2 1 6.5 2.6-6.7.6-5.7 2-15.3 3-21.3l1.8-11-.6 9.5c-.3 5.2-.7 11.3-.8 13.5-.2 2.2-.4 7.3-.5 11.2-.1 4.8-.5 7.3-1.3 7.3s-.7.4.2.9c.8.5 1.1 1.6.8 2.6-.4.9-1.1 1.4-1.6 1.1-.5-.3-1.2.1-1.5 1-1.1 2.7-.7 3.7.9 2.4 1.3-1.1 1.5-.8 1.5 1.4 0 1.6-.6 2.6-1.4 2.6-.8 0-1.7.6-1.9 1.2-.3.8-.6.6-.6-.5-.1-.9-.5-1.7-1-1.7-1.1 0-1.7 3.4-8.1 47.2-.6 3.7-.9 10-.9 14l.2 7.3.7-5.5c.4-3 1.2-11.1 1.9-18s2.1-17 3.2-22.5c1-5.5 1.9-11.2 1.9-12.7 0-4.1.9-5.6 3.1-5.1 1 .3 1.9 1.1 1.9 1.9 0 .7-.6 1.1-1.4.8-.9-.3-1.5.4-1.8 2-.3 1.7-.1 2.6.7 2.6 1.6 0 2.1 1.4 2.4 6.7.2 4.2.1 4.3-2.4 3.3-2.2-.9-2.5-.7-2.5 1.5 0 2.9 1.8 4.3 2.6 2.1.3-.9 1.2-1.6 2-1.6.7 0 1.6-1.2 2-2.8 1.9-8.3 2-8.6 4.7-9.3 2.3-.6 2.7-.4 2.7 1.5 0 1.2-1.1 3.2-2.4 4.3-1.3 1.2-3.1 4.3-4 7.1-1 2.8-2.4 5.6-3.2 6.3-1 .8-1.2 2.2-.8 4.5.4 2.2.2 3.4-.5 3.4-.6 0-.8.6-.5 1.4.3.8-.2 2.6-1.1 4-1.6 2.4-1.6 2.6-.1 3.2 1.6.6 1.6.8 0 2.5-.9 1-1.4 2.7-1.1 3.9.3 1.3-.2 2.5-1.6 3.6-2.2 1.5-2.2 1.5-.3 2.9 1.9 1.4 1.9 1.6.1 10.2-1 4.9-1.9 10.1-1.9 11.8-.1 1.6-.8 6.2-1.5 10.1-1.7 8.9-.9 13.7 2.4 15.2 2.2 1 2.5.9 2.5-.8 0-1-.9-2.2-2-2.5-1.1-.3-2-1.3-2-2.1 0-1.1.6-1.3 2.2-.9 1.3.4 2.7 1.1 3.2 1.5 1 1-.2 7-1.5 7-.5 0-.9.7-.9 1.6 0 1.1-.6 1.4-2.1.9-1.6-.5-2-.3-1.6.6.2.8 1 1.3 1.6 1.2.6-.2 1.1 1.1 1.1 3.2 0 1.9-.5 3.5-1.1 3.5-.7 0-.9 1-.5 2.5.9 3.7 0 4.5-3.4 3.3-3.3-1.1-3.2-.4-3.5-22.8-.2-12.7-.8-14.5-1.5-4.5-1.2 15.7-1 125.4.1 122.6.5-1.3 1.6-8.1 2.4-15 .8-6.9 2.1-16.9 3-22.1.8-5.2 1.5-10 1.5-10.7 0-1.4 5.6 2 11.1 6.8 3 2.6 3.8 4.1 4.2 7.7.3 3 0 5.3-.9 6.7-1.2 1.8-1.2 3.2-.4 7.1 1.6 6.9 5.1 13.8 7.4 14.3 1.7.3 1.8-.1 1.2-3-.4-1.9-.9-6.1-1.2-9.4-.2-3.3-1-9-1.6-12.7-.6-3.6-.8-7.3-.5-8.2 1-2.7 3.5-.7 4.2 3.4.7 4 2.9 7.9 4 6.9.3-.4.2-3.9-.3-7.8-1.1-9.4-.8-9.6 11.2-8.7 7.1.5 10.3.3 13.7-.8 2.4-.8 4.7-1.2 5-.8 1.2 1.2 3.9 10.1 3.9 12.6 0 1.2.9 4.8 1.9 7.9 1.1 3.2 2.7 9.8 3.6 14.9.9 5.1 1.8 9.4 2.1 9.7 1 1.1 2.2-2.3 1.4-3.9-.5-.9-1.2-4.1-1.5-7.1-.4-3-1.3-7.7-2-10.4-2.2-8.6-2.8-15.5-1.2-15.5 2.3 0 4.3 3.2 5.6 9 2.1 9.3 3.9 22.9 3.4 25-.6 2.4 1.5 2.7 2.4.4.3-.9-.1-5.8-1-10.8-3.2-17.4-3.2-18.6-.9-18.6 1.7 0 2.5 1.2 4.1 6.3 1.2 4 1.7 7.8 1.4 10.6-.4 3.4-.2 4.2.8 3.9 1.6-.5 1.4-12.4-.2-16.6-1.3-3.3-1.1-5.2.5-5.2 2.6 0 3.5 2.6 4.2 11.8.9 12.2 3 12.1 2.5-.1-.2-7.9-.1-8.7 1.6-8.7 3.7 0 9.4 2.2 10 3.8.3.9 1.9 2.9 3.6 4.3 2.8 2.4 3.1 3.4 4.9 16 2.1 15.1 2.3 15.9 3.9 15.9.8 0 1-1.7.6-5.7-1.2-11.6-2.6-21.9-3.5-25.8-.5-2.2-1-6.7-1.1-10-.1-3.3-.6-10.3-1.2-15.5-.5-5.2-1.2-16.3-1.5-24.5-.3-8.3-.7-16-1-17.2-.3-1.5.2-2.6 1.5-3.2 1-.6 2.2-2.2 2.5-3.5.7-2.8 4-5 6.2-4.2 2.1.8 1.7 2.6-.5 2.6-1.2 0-3.2 1.8-5 4.5-2.1 3.1-2.6 4.5-1.6 4.5.7 0 1.7-.5 2-1.1.4-.5 1.8-1.5 3.3-2 3.1-1.2 5.3.4 3.4 2.3-1 1-1.4 1-2.1 0-.6-1-1.5-.5-3.5 1.8-2.7 3.3-3.3 5-1.6 5 .6 0 1-.5 1-1.1 0-.6.6-.9 1.3-.6.6.2 1.1 1 .9 1.6-.1.7.7.6 2.1-.4 3-1.9 3.7-1.2 3.7 3.8 0 3.4-.3 3.9-1.9 3.4-1.3-.3-3 .6-5.2 2.9-3.1 3.2-3.5 6-.5 3.5 2.6-2.2 3.8-.2 1.6 2.6-2.4 3.1-2.6 5.1-.3 3.2 1.2-1.1 1.7-1.1 2-.2.3.9 1.1.8 2.9-.4 1.4-.8 2.6-1.4 2.8-1.2.2.2.7 3.9 1.1 8.1.5 5.5.4 7.8-.4 7.8-1 0-1.5-1.4-1.2-3.4.1-.4-.3-1.4-.9-2.2-.7-.7-.9-2.3-.4-3.6.6-2.1.5-2.2-1.1-.8-.9.8-2.7 1.9-3.8 2.5-2.5 1.2-3.8 5.2-2.5 7.7.4 1 1.1 5 1.4 8.9.3 4 .7 7.6 1 8.1.3.4-.2 1.1-1 1.4-2 .8-2.1 3.3-.1 4 1 .4 1.5 2.1 1.5 5.4 0 4.6 1.3 7.1 2.8 5.5.4-.4.7-3.9.8-7.8 0-4 .4-8 .8-9 1.3-2.7 3.6-2.1 3.6 1 .2 9.3 1.1 20.9 2 24.5.5 2.4 1 6.1 1 8.3.1 7.3.8 8.5 5.1 8.5 2.2 0 3.9-.5 3.9-1 0-1.3 6.3-1.3 7.7.1 1.5 1.5 5.8.7 5.8-1.1 0-1-1.2-1.6-3.7-1.8-2.1-.2-3.8-.7-3.8-1.1 0-1.6 11.3-2.1 19.6-.9 6.5.9 9.1.9 11.7 0 1.8-.7 4.7-1.2 6.5-1.2 2.3 0 3.6-.8 5.3-3.1 2.6-3.6 3.9-2.5 3.9 3.3 0 4.7.8 6.8 2.7 6.8 1.3 0 1.5-1.1.9-7.3-.4-3.9-.9-13-1.3-20.1-.5-10.3-.3-13 .8-13.7 2.6-1.6 3-.9 1.3 2.2-1.5 2.9-1.5 3.1 0 2.6 1.8-.7 2.3 1.8.6 2.8-.6.3-1 1.2-1 1.8.1.7.9.2 1.9-1 1.5-1.8 2.5-2.1 5.5-1.6 3.5.5 5.1 2.3 2.1 2.3-1.7 0-2.9 4-2.1 6.8.5 1.4-.1 2.4-1.9 3.6-3.2 2.1-2.7 4.2.8 3.8 2.9-.4 3.6 1.5 1.5 3.6-.8.8-.8 1.5.2 2.7 1.2 1.4 1 2-1.5 3.9-3.3 2.6-2.7 4.9 1.1 4 2-.5 2.4-.2 2.4 1.5 0 1.2.6 2.1 1.5 2.1.8 0 1.5-.9 1.5-2 0-2.6 2-2.6 2.7 0 .4 1.5 1.4 2 4.1 2 3.3 0 3.5-.1 1.6-1.4-1.1-.9-2-2.7-2-4.8-.1-1.8-.5-5.7-.9-8.7-.7-4.6-.6-5.6 1-6.7 1.7-1.3 1.7-1.4.2-1.4-1 0-1.7-.8-1.7-1.9 0-1.5.8-1.8 4.3-1.8 2.3 0 7.3-.4 11.1-.8 6-.7 7.1-.6 8.2.9.9 1.2 1.9 1.6 3.4 1.1 2.1-.7 2.1-.8.4-2.6-1.6-1.8-2.7-1.9-10.8-1.3-5 .3-11.1.7-13.6.8l-4.5.1-.1-5.5c-.1-10.7-2.5-40.5-3.5-44.4-1.4-5.1-1.2-16.7.3-24.1l1.3-6 6 .3c3.3.2 6.7 1 7.6 1.8.8.7 3.1 1.7 5 2 1.9.4 4.3 1.3 5.4 2.1 4.7 3.2 7.7 0 3.1-3.4-2.1-1.6-2.2-2-.9-4 2.5-3.7 1.1-5.1-4.1-4.6-2.5.3-4.6.3-4.6 0 0-.5 5.4-3.2 8.7-4.2 3.8-1.1 4.1.5 6.8 35.1.2 3.4.9 7.4 1.5 8.9s.7 3.1.4 3.6c-.3.6.1 4.2 1 8.2.8 4 1.6 8.7 1.8 10.6.3 3.2.1 3.5-3.2 4.3-1.9.4-7.4.9-12.1 1.1-6.1.2-9.3.7-11.2 2-5.2 3.4-1.9 7.2 5.2 6.1 4-.6 4.8-2.4 1-2.4-2.4 0-2.5-1.7-.1-2.4.9-.2 5.8-.7 10.7-1.1 6.7-.5 9.4-.3 10.7.7 2.4 1.9 5.8 17 7.3 32.2.6 6.1 2.5 11.6 4.1 11.6.9 0 .8-1.8-.2-7.2-.8-4-2.1-11.3-3-16.3-.8-5-2.6-15.3-4-23-5.4-30.9-6.3-37.5-6.5-48.1-.2-7.2-1.1-14.6-4.9-36.4-1.2-7.2-2-10.7-6.3-27.5-3.8-15.3-4.4-22.7-1.9-22.3.9.2 2.6-1.7 4.3-4.7 3.3-5.8 3.4-6.5 1.3-6.5-1.1 0-1.4-.6-.9-2.3l.6-2.2-1.7 2.3c-1.1 1.5-2.7 2.2-5 2.2-1.9 0-3.4-.4-3.4-.9 0-1.7 2-2.3 3.5-1.1 1 .9 1.9.4 3.9-2.3 2.6-3.4 3.5-6.4 1.6-5.2-.5.3-1 0-1-.8s-.6-1.7-1.4-2c-1.6-.6-3.6 1.1-3.6 3 0 1.3-2.2 1.8-3.3.7-.3-.4.1-1.7.9-3 .9-1.3 1.3-2.8.9-3.4-.9-1.4 3.8-1.3 7 .2 1.4.6 2.5 1.8 2.5 2.7 0 .9.9 2.7 2 4.1 2.4 3.1 2.5 4.6.3 5.9-1.3.8-1.5 1.3-.6 1.9 1 .6 3.2 9.5 3.4 14.2.2 2.7 3.9 21.4 5.6 28.1 1.6 6.3 1.4 9.9-.5 9.9-.5 0-1.2-1.4-1.6-3-.3-1.7-.9-2.9-1.3-2.8-1.4.5-1.5-.6-.4-3.5.7-1.7.7-3.4.2-4.5-.5-.9-1.4-3-2-4.6-1.1-2.8-1.2-2.8-3.1-1.1-1.1 1-2 2.5-2 3.4 0 1.2.3 1.2 1.2.3.7-.7 1.6-1.2 2-1.2 1.4 0 .9 2.7-.7 4-1.9 1.6-2 8.4-.1 9.9 1 .8 1.2 2.4.9 5.1-.5 3.8-.5 3.9 2.8 4.2 2.4.2 3.3.7 3 1.8-.2.8-.3 2.7-.2 4.1 0 1.5-.5 3.2-1.2 3.8-1.3 1-1 6 .8 14.1.2.8.4 1.9.4 2.4.1.5 1 .1 2.1-.9 2.5-2.3 3.3-1.5 2.1 1.9-.6 1.4-.8 3.3-.5 4.1.4.8.1 2.2-.6 3-1 1.2-1 2.1-.1 4.1 1.6 3.7 1.4 10.6-.6 13.4-1.4 2.1-1.4 2.3-.1 1.2 1.3-1 1.7-1 2.2.3.3.9.1 2.5-.4 3.6-.8 1.4-.8 1.9.1 1.7.7-.2 1.7 2 2.4 5.2.7 3 1.7 6.8 2.3 8.5.6 1.6 1.4 4.3 1.9 6 1.1 3.9 3.8 4.5 4.7.9.4-1.5.2-3.2-.3-3.7-1.3-1.3-1.4-3.7-.3-3.7.5 0 1.5 1.8 2.2 3.9 1.2 3.6 1.1 4.2-.9 6.7-1.1 1.4-2.1 3.3-2.1 4 0 .8-.6 1.4-1.2 1.4-.7 0-2.1 1.1-3 2.4-1.5 2.1-1.5 2.5-.3 3 .8.3 1.5 1.5 1.5 2.6s.5 1.9 1.2 1.8c.7-.2 1.5 1.2 1.8 3.2.4 2.7 1 3.6 2.8 3.8 1.6.3 2.2.8 1.8 1.9-.3.8-.6 2.1-.6 2.9 0 .8-.6 1.4-1.4 1.4-.8 0-2.2 1-3 2.1-1.3 1.9-1.3 2.4 0 3.6 1.6 1.7 1.8 2.9.4 3.8-.6.3-1 1.1-1 1.7 0 .7.4.7 1.3-.1.7-.6 2.9-.9 4.7-.6 4.5.5 4.9.1 3.9-4.2-.8-3.8-.1-12.8 1-11.8.3.3.6 2 .7 3.8.2 1.8.6 5.8 1 9l.7 5.8-3.2 1.2c-3.5 1.3-3.8 2.3-1.4 5.6l1.6 2.4 2.4-2.9 2.3-2.9v3.2c0 2.8.3 3.3 2.5 3.3 1.4 0 2.5-.1 2.5-.3 0-.1-.7-3.8-1.6-8.2-.8-4.4-1.9-11.2-2.4-15-1.6-12.4-2.8-18.9-4.3-23.5-.8-2.5-2-7.2-2.7-10.5-.6-3.3-2-9.2-3-13-1.1-3.9-2.2-11.1-2.5-16-.3-5-1-10.6-1.5-12.5-.6-1.9-1-5-1-6.9 0-1.9-.5-4.9-1.2-6.8-1.4-3.9-.9-4.7 3.7-4.5 3.5.1 20.8 8.6 25 12.2 3 2.5 7 3.7 16.8 5 10 1.4 11.9 3.3 2.5 2.5-15.5-1.3-18.5-1.8-24.2-4.7-5.4-2.7-8.6-3.1-8.6-.9 0 .5 2.5 2.3 5.5 4 4.8 2.7 7.1 3.3 19.9 4.6 8 .8 15.2 1.8 16 2.1 2 .8 2.9-1.2 1.4-3.5-.7-1.1-.9-2.3-.5-2.7 1-1 3.7 1.6 3.7 3.6 0 1 .7 2.3 1.5 3 3.1 2.5 1.5 3.1-6.2 2.4-4.3-.3-8.9-.7-10.3-.8-3.6-.2-3.2 2.7.5 3.4 2.8.6 2.5.7-3 2.3-6.9 2-8.7 2.9-9.3 4.5-.5 1.6 7.7 9.2 10.2 9.3 1.1 0 3.5.2 5.1.5 7 .9 12.1.3 14.7-1.6 2.3-1.7 3.7-1.9 10.7-1.3 4.4.3 7.8.9 7.6 1.3-.3.4-3.6 1.1-7.5 1.4-8.9.9-16.9 3.2-19.6 5.7-1.1 1-4.2 2.3-6.9 2.8-3.6.7-5.6 1.8-7.9 4.4-3.7 4.2-5.3 4.8-12.9 5.2-3.1.1-6.4.8-7.2 1.5-1.8 1.5-2 4.6-.4 5.6.8.5.6 1-.5 1.6-.9.5-1.6 1.5-1.6 2.1 0 1.7 11.5 4.7 18.7 4.8l5.8.1-5.5 1.5c-3 .8-6.1 2.1-6.9 2.8-1.3 1.2-1.1 1.6 1 2.3 1.9.8 2.5.6 2.7-.8.3-1.7 4-3 8.6-3 1.2 0 3.1-.7 4.2-1.5 1.9-1.5 1.9-1.5-.1-3-1.4-1.2-3.4-1.4-8.1-.9-6.5.7-13.4-.1-13.4-1.5 0-.5 2.3-1.1 5.1-1.3 4.8-.5 8-2.1 6.7-3.4-.4-.3-3.4-.8-6.7-1.1-7.3-.7-8.2-2.3-1.1-2.2 6.5.2 15.6-3.4 17.3-6.9.9-1.9 2.5-2.9 5.9-3.8 2.6-.6 5.9-2.1 7.3-3.2 5.6-4.5 25.4-6.9 36.5-4.6 5.6 1.1 7.5 1.2 8.6.3 1.1-.9 2.2-.8 4.8.6 3.4 1.9 3.7 2.4 5.1 11.2.3 1.7.9 4.2 1.4 5.5.5 1.3 2.1 7.3 3.5 13.3 1.5 6.1 2.9 11.9 3.3 13 .3 1.1.9 4.5 1.3 7.5 1.6 10.2 3.2 16 4.6 16 1.9 0 1.8-2.3-.6-11.5-2.7-10.4-2.7-13.5.1-12.8 1.1.3 1.8 1.1 1.5 1.8-.3 1 .6.9 4.1-.1 7.4-2.2 7.1-.9-1.2 4.9-3 2.1-3.3 4.1-.5 3.2 2.5-.8 2.7 1.5.4 5-1.6 2.5-.7 3.4 1.3 1.4 1.5-1.5 2.8.8 1.3 2.5-.8 1.1-.5 1.9 1.6 3.5 3 2.3 4.9 2.7 6 1 .5-.8.9-.8 1.4.1.4.6 2.1 1 3.7.8l3-.3-1.7-8c-1-4.4-3.7-16.4-6-26.8-2.4-10.3-4-19.1-3.6-19.4.9-.9 13.8 5.9 14.4 7.5.2.7-.7 1.2-2.5 1.2-8.8.1-5.4 5.1 5.3 7.9 3.8 1 8.4 2.5 10.2 3.5 3.2 1.6 5.2 1.5 5.2-.5 0-.5-2-1.9-4.6-3.1-3.8-1.9-4.4-2.6-3.9-4.5.7-2.8-5.4-9.1-10-10.4-1.8-.5-4.8-2.2-6.8-3.7-1.9-1.5-4.8-3.4-6.4-4.3-2.7-1.5-3.2-2.7-5.1-11-3.3-14.9-3.4-14.5 1.2-14.1 2.2.2 5.6 1.2 7.7 2.3 5.1 2.6 6.5 2.4 9.8-1.1l2.7-3 6.2 2.6c3.4 1.5 6.4 3.4 6.6 4.3.3.9.8 5.2 1.1 9.7.8 9.9-.3 11.6-5.6 8.5-1.9-1-5-2.2-6.9-2.5-4.8-.8-10.3-4.3-9.7-6.1.8-1.9-1.8-3.8-4.3-3-4.6 1.5-.6 8.4 6.3 10.8 2.3.8 6.1 2 8.5 2.6 5.8 1.6 11.2 6.5 11.2 10.1 0 1.6.7 6.2 1.6 10.2.8 4 1.9 9.5 2.4 12.3.5 2.7 1.2 6 1.6 7.2.5 2 .3 2.3-2.1 2.3s-2.6.2-1.5 1.5c.7.9 2.2 1.4 3.4 1.3 1.8-.3 2.2.5 3.2 5.7.7 3.3 1.3 6.2 1.4 6.5.1.3.2 1.3.1 2.3-.2 1.3.5 1.7 3.1 1.7h3.3l-.3-5.3c-.3-4.2.1-5.8 1.7-7.7 1.8-2.1 2-2.2 1.5-.5-.5 1.4-.4 1.7.4 1 1.4-1.2.4-5.5-1.2-5.6-4-.3-5.8-.7-6.6-1.5-1.5-1.5.3-9.9 2-10 3.1-.2 3.5-.5 2.1-1.3-1.1-.7-1.1-1.3 0-3.7 2.5-5 4-3.9 5.5 3.7.5 2.3-2.3 5.8-3.4 4.1-.6-.9-1.4-.4-3 1.8-2.2 3-2.2 3-.2 3 1.1 0 2 .4 2 .8s1.5.6 3.3.4c2.7-.3 3.4.1 4.5 2.4.6 1.6 1.2 3.8 1.2 5 0 2.6-2.8 5.3-3.8 3.7-.4-.6-1.7.2-3 1.9-2.3 2.8-2.3 2.8-.3 2.8 2.2 0 2.8 1.4 1.1 2.5-2.5 1.6-.4 2.5 5.7 2.5 3.6 0 6.3-.3 5.9-.7-.3-.4-2.5-.7-4.9-.7-5.5-.1-5.9-2.7-.4-3.1 2-.1 4-.5 4.3-.8.8-.8-1.4-13.1-3.1-17.8-1.4-3.6-4.9-26-6-37.9-.4-3.6-.8-8.3-1.1-10.5-.2-2.2-.8-10.5-1.4-18.5-.5-8-1.2-16.4-1.5-18.7-.3-2.3-.2-4.3.2-4.6 1.2-.8 10.4 1.8 10.3 2.9 0 .5-1.5 1.4-3.3 2-3.4 1.1-4.3 3-3.3 7 1 3.7 4.6 3.3 4.6-.5 0-2.8 1.5-4.9 2.6-3.8.3.3.8 6.1 1 12.9.4 9.8.9 12.6 2.2 13.6.9.7 2 .8 2.5.3s.9-6.7.9-13.7v-12.7l9.6.6c10.7.7 14.5-.3 15-4 .2-1.2-.6-3.1-1.7-4.2-1.9-1.9-3.3-2.1-13-2.1-10.8 0-13.7-.8-11.2-3.3.7-.7 3.6-.7 9.8 0 8.8 1 11.3.8 11.3-.8 0-1.8-4.4-3-12-3.2-4.4-.1-8-.5-8-.8 0-.7-.6-.6 12.3-1.5 6.4-.5 9.6-1.1 9.4-1.8-.4-1.1-16.1-1.1-19.9 0-2 .6-3.3-1.2-1.6-2.2.6-.4 5-.8 9.7-.9 10.1-.1 12.1-2 3.2-3-5.9-.7-5.9-.7-4-2.6 2.7-2.7 1.6-3.9-3.6-3.9-6.2 0-9.5 1.5-10.8 5-.6 1.7-1.9 3-2.8 3-3 0-7.9 2.2-7.9 3.6 0 1.5 4.9 4.4 7.5 4.4.8 0 1.5.4 1.5.8 0 1.1-9.9 3.6-10.8 2.7-.4-.3-.8-4-1-8-.4-6.3-.1-7.8 1.8-10.4 1.2-1.7 3-3.1 4.1-3.1 2.5 0 2.4 1.4-.3 3.3l-2.3 1.6h2.3c2.5.1 6.2-3.1 6.2-5.4 0-.9-1.1-2-2.5-2.5-3.5-1.3-4-3.5-2-8.1 1-2.1 1.5-4.2 1.1-4.6-.4-.4-2.4.1-4.4 1.2-3.6 1.9-3.7 2.2-4.2 8.8-.3 3.7-.9 6.8-1.5 7-.8.2-1.4-3.1-4.4-26.8-.6-4.4-2.4-17.5-4.1-29-4.5-30.8-6-44.5-5.4-48.6.5-3.1.2-4.1-2.3-6.9-2.2-2.5-3.8-3.3-6.1-3.2-4.2.1-4-1.1.4-3.7 3.8-2.2 4.2-4.6 1.2-6.5-1.3-.8-2.6-.7-5 .2-3.9 1.4-4.5 1-2.9-2.4 1-2.2.9-3.1-.4-5.1-2.6-4-5.6-4.6-8.2-1.7-2.9 3.2-2.9 5 .2 7.8 3.2 3 3.1 3.6-.4 3.6-1.6 0-3.9 1.1-5.6 2.6-2.6 2.4-2.6 2.6-1 4.5 2.2 2.3 3.7 2.4 7.5.4 3.5-1.8 4.9-.3 1.6 1.8-1.2.9-2.9 2.9-3.5 4.6-1.1 2.5-1 3.5.3 6.2.9 1.8 1.6 4.1 1.6 5.2 0 1.2.5 4.6 1 7.6.6 3.1 2.6 16.1 4.4 28.9l3.3 23.2-2.1 2.5c-2.7 3.2-3.6 3.1-3.6 0 0-1.4-.7-3.7-1.6-5.1-1.9-2.8-3.5-2.1-6 2.9-1.4 2.5-1.4 3.1.1 5.3 1.2 1.9 2.4 2.4 6 2.4 5.1 0 6.3 2.4 2 4-1.4.5-3.1 2.1-3.7 3.6-1 2.2-1 2.8.6 4 1.6 1.1 2.3 1.1 4.6-.1 2.8-1.5 5.8-4.5 4.4-4.5-.5 0-1.8.7-2.8 1.5-2.7 2-3.6 1.9-3.6-.5 0-1.8 3.3-4 6-4 3.3 0 5.4 12.2 9 52.5.6 6 1.5 14.3 2.1 18.3.6 4.1.9 7.6.6 7.8-.2.2-3-.5-6.2-1.6-7.6-2.6-8.2-2.5-10 1-1.7 3.2-3.9 3.8-6.4 1.6-2.3-1.9-7.8-3.6-12.1-3.6h-3.7l-2.1-8.9c-1.2-4.9-3.3-15.8-4.7-24.3-2.3-13.7-7.9-41.6-10.5-52.3-.5-2.2-2.6-11.2-4.6-20-2-8.8-4.2-18-5-20.4-.8-2.5-1.4-5.7-1.4-7.2 0-1.4-.7-4.3-1.5-6.2-2.1-5.1-1.9-5.7 1.5-5.1 6.1 1.3 10.5-4.7 5.9-8-1.8-1.2-2-2.1-1.5-5.1 1-4.9 0-7.5-2.8-7.5-3.1 0-4.2 1.6-5 7.2-.8 5.1-2.2 6.3-3.1 2.5-.3-1.2-1.2-5.1-2.1-8.7-3.6-15.1-4.4-19.8-4.4-25.2 0-6-4.1-24-6-26.3-.7-.8-.8-4-.4-9.3.5-6.5.3-8.8-1-11.6-2.2-4.6-6.2-7.7-9.7-7.4-1.6.1-3.7-.6-4.8-1.6l-2.1-1.9 2.1-3.3c2.3-3.7 1.9-5.1-1.7-6.4-1.7-.7-2.4-1.7-2.4-3.5 0-3-2.6-8.5-4-8.5-2.3 0-5.1 6.5-4.8 11.1.2 3.7-.2 5.1-2.4 7.8-1.6 1.8-2.8 3.9-2.8 4.6 0 3.1 5.3 3.8 9 1.1.8-.6.5.1-.7 1.5-2.7 2.9-2.9 4.8-.8 7.5.8 1 1.5 3.2 1.5 4.7s1.1 4.9 2.3 7.5c1.4 2.6 2.5 6.9 2.6 9.6.1 2.8.4 5.3.7 5.8 2.1 3.4 5.6 19.3 6.4 29.8.6 6.9 2 16.1 3 20.5 1 4.4 2.1 10 2.4 12.5 1.6 12.1 9.6 43.3 15.5 60 3.2 9.2 5.2 17.6 10.2 42.5 3.8 19.4 4.3 22.5 3.5 22.5-.4 0-2.8-1.1-5.4-2.4-2.6-1.4-7.2-3.6-10.2-4.9-7.1-3.1-9.3-5.6-12.5-14.2-1.5-3.9-3.4-8.9-4.3-11.2-1.5-3.9-1.5-4.4.7-11.1 2.1-6.6 2.2-7.1.6-10.3-4.1-8.6-4.9-9.9-6-9.9-.7 0-1.9-.8-2.9-1.8-1.6-1.9-2.4-4.4-6.1-18.7-1-3.9-2.6-9-3.6-11.5-.9-2.5-2.9-11.6-4.3-20.4-2.4-14.7-4.8-23.4-13.7-49.9-2.2-6.6-2.7-9.3-1.9-10.7 1.6-3.1 1.2-11.7-.9-15.8-1-2-2.4-6.2-3.1-9.2-.7-3-2.5-7.8-4-10.5-1.6-2.8-4-7.1-5.3-9.8-1.4-2.6-5-7.5-8-11-2.9-3.4-6.7-8.2-8.4-10.7-1.7-2.5-4-5.4-5.2-6.4-3.2-2.9-2.7-7.1 1.5-12.9 4.7-6.5 9-19.4 9.9-29.4.8-9.1 2.8-17 5-19.8 1.5-1.9 1.6-1.8 1 1.8-.5 3.4-.3 3.9 2.5 5.5 2.2 1.2 3.3 2.8 4 5.7 1.4 5.3 5.1 12.4 7.4 14 2.1 1.6 6.4 1 11-1.2 2.8-1.5 3-1.4 6.7 2.9 2.1 2.3 3.8 4.6 3.9 5 0 .3 1.5 3.2 3.3 6.5 1.8 3.2 4.3 8.9 5.6 12.8 1.3 3.8 3.5 8.6 5 10.6 9.4 12.8 11.3 14.7 15.9 15.5 3.4.7 4.9 1.9 5.6 4.8.4 1.6 1.5 2.5 3.6 2.9 2.1.5 3 1.2 3 2.6 0 2.7 2.5 4.4 5.5 3.7 2.1-.5 2.8 0 5 3.4 3 4.7 5.7 6.6 10.7 7.5 3.1.6 3.7.4 4.3-1.4.3-1.2 1.1-2.1 1.7-2.1.5 0 .7.7.4 1.6-.4 1 2.2 4.6 7.7 10.7 4.6 5.1 9.2 10.2 10.2 11.5 1.1 1.3 2.9 3.4 4 4.6 1.1 1.2 4.3 5.1 7 8.5 2.8 3.5 6.6 8.2 8.6 10.5 3.4 3.9 6.6 8 16.7 21.4 6.9 9.2 7.1 9.6 7.4 13.2.3 3.1 0 3.5-2.2 3.8-5.5.8-9 7.3-5.5 10.2.8.7 1.5 2.9 1.5 4.9 0 2.7.7 4.4 2.5 6.1 3.5 3.3 6 1.8 6.1-3.6 0-2.2.3-4.6.7-5.4.3-.8.8-3.5.9-6 .3-5.1 1.9-6 2.8-1.5 1.1 5 2.9 7.4 7.1 9.6 4.9 2.5 8 2.2 9.5-1 .7-1.3 2.6-3.6 4.3-5.1 6.2-5.7 4.7-12.7-4.1-18.4-6-3.9-14.5-12.4-17.6-17.7-1.2-2-3.5-5.3-5.2-7.4-1.6-2.1-3-4.2-3-4.6 0-1.3 2.8-1.1 3.2.3.6 1.7 3.8.2 3.8-1.8 0-.9-.8-2.3-1.7-3-1.7-1.3-1.7-1.5 0-2.8 1.3-1 1.7-2.8 1.7-7.5 0-6.6-1.1-7.7-3.4-3.3-.8 1.6-2.2 3.5-3.2 4.3-.9.8-2.5 2.6-3.4 4.2l-1.7 2.7-2.4-2.4c-1.3-1.3-4.6-5.7-7.4-9.7-2.7-4-5.7-8-6.5-8.8-6.2-6.6-8-10-8-14.7 0-3.2-.9-6.6-2.5-9.8-1.4-2.7-2.5-5.5-2.5-6.1 0-.7-.9-2.4-2-3.8-1.2-1.5-2-4-2-6.5 0-2.2-.6-4.4-1.3-5-.7-.6-4.6-1.2-8.7-1.4-6.9-.3-7.5-.5-8.9-3-1.3-2.2-1.3-3-.2-5.1 1.9-3.5.5-6.6-3.7-8.4-2.1-.8-4.3-1.8-5.1-2.2-2-1-7.9-12.9-11.6-23.5-1.7-5.1-2.4-6-5.5-7-2.4-.7-4-2.2-5.2-4.4-.9-1.8-2.3-4.1-3.2-5-.8-1-2.2-5.3-3.1-9.7-.9-4.4-2.3-9.5-3.1-11.4-2-4.8-1.8-5.9 1.4-6.3l2.7-.3V431c0-14.5-2.5-20.4-10.2-23.6-2.6-1.1-3.4-2.3-4.8-7.1-1.9-6.4-5.1-10.5-10.7-13.4-2.1-1.1-3.8-2.3-3.8-2.8s-1.8-3.1-4-5.9c-4.4-5.5-11-9.2-16.4-9.2-2.8 0-4.4-.9-7.9-4.5-4.7-4.8-5.3-5-7.7-3.5-1.2.7-1 1.4 1.5 4l3 3.2-4 3.4c-2.2 1.9-5.8 3.9-8 4.4-5.5 1.4-7 2.4-7 4.6 0 1.4.7 1.9 2.5 1.8 3.7-.3 9.2-2.6 13.1-5.5 4.4-3.3 9.3-4.2 15.7-2.8 4.5.9 5.6 1.7 9.4 6.6 4.7 6 6.1 7.4 13 13.4 2.8 2.4 5.2 5.5 5.9 7.7.7 2 2.1 5.4 3.2 7.5 2.2 4.2 1.7 6.7-1.3 6.7-4.2 0-13 5.9-13 8.7 0 .7.5 2.2 1.2 3.3 1.1 1.7.7 2.4-2.9 5.5-2.9 2.5-4 4.1-3.6 5.2 1.1 2.8-1.1.6-3.1-3.2l-2-3.6 2.3-1.5c2.9-2 7.1-8.8 7.1-11.4 0-3.2-2.4-2.3-4.5 1.6-2.2 4-7.4 8.2-8.4 6.7-4.6-7.2-19.2-24.6-21.3-25.6-1.6-.6-2.8-1.8-2.8-2.5 0-1.4-.7-2.2-10.5-13.1-2.8-3.1-6.4-7.3-8-9.5-1.7-2.1-3.7-4.8-4.7-6l-1.6-2.1 8.4-.1c11.5-.2 15.1-1 17-3.9 1.4-2.2 1.4-2.7-.6-6.6-1.8-3.4-2-4.7-1.1-6.5 1.1-2.5 2.6-3.1 3.6-1.4.8 1.3 5.7 1.3 9.2-.2 1.5-.6 3.4-1 4.1-.9.6.1 1.2-.3 1.2-.9 0-.5 1-1 2.3-1 3 0 6.5-3.7 7.7-8.1.5-1.9 1.4-5.2 1.9-7.5.6-2.3 2.7-6.1 4.6-8.5 2.4-3 4-6.6 5.1-11.5 2.1-8.8 1.4-13.3-3-18.2-2-2.3-3.5-5.2-3.9-7.7-.4-2.4-1.8-5-3.7-6.9-2.4-2.5-3.7-3-7.2-2.9-3.8.2-4.7-.3-9.4-4.7-5.1-4.8-5.5-5-11.6-5.2-14.6-.4-20.1.8-24.5 5.4-12.1 12.9-11 12-14.3 10.3-3.7-1.9-4.7-1.5-4.8 2.4 0 2.1.7 3.4 2.4 4.6 3.6 2.4 2.5 4-2.5 3.6-2.3-.1-4.8.3-5.6.9-1 .8-1.9.8-3.4.1-3-1.7-3.7.6-1 3.5 1.3 1.4 3.4 2.4 5.1 2.4 3.2 0 3.6 1.5 1.3 4.8-.9 1.2-1.5 3-1.3 3.9.2 1.3-.5 1.9-2.7 2.1-1.6.2-3.4.7-3.8 1.1-.8.8 5.8 8.1 7.4 8.1.5 0 .7 1.1.3 2.5-.6 2.5.2 3 6.6 3.7 1.7.2 2.6 1 2.8 2.6.4 2.7-2.2 4-4.4 2.1-1.6-1.3-10.1-4.6-14.4-5.6-3-.7-7-4.1-7-6 0-.7-2.1-3.5-4.7-6.1-14.3-14.4-39-46-46.5-59.5l-3.7-6.9 1.4-5.6c2.1-7.7 1.9-8.7-1.5-11.5-1.6-1.4-3-3.5-3-4.7 0-1.5-1.2-2.6-4.4-4-2.4-1.1-4.9-2.7-5.6-3.5-.7-.8-1.9-1.5-2.7-1.5-.8 0-2.8-.8-4.5-1.8-2.8-1.6-3-1.6-4.2 0-.7 1-1.7 1.8-2.2 1.7-1.3-.1-14.6-15.4-18.6-21.4-1.8-2.8-4.2-6.8-5.3-8.9-1.1-2.2-4.5-6.7-7.6-10-3.1-3.4-6.3-7.7-7.2-9.6-2.1-5-5.6-7.8-11.5-9.2-2.9-.7-5.2-1.8-5.2-2.4 0-.7 1.6-2.2 3.6-3.3 4.9-2.9 4.2-5.6-1.9-7.5-1.5-.5-1.7-1.2-1.2-3.7.8-3.3-1-7.9-3-7.9-1.3 0-5.5 8.3-5.5 11 0 1.1-.6 2-1.4 2-2.1 0-2.7-3.9-1.1-7.7 1.3-3.1 1.3-3.8-.5-7.3-1.8-3.6-5.4-7-7.3-7-.4 0-1 .7-1.4 1.5zm5.7 6c2 3.2 2.1 7.5.1 7.5-1.1 0-2.8-3.9-3.5-7.8-.7-4.2.7-4.1 3.4.3zm13 7.2c0 1-1.2 2.6-2.5 3.6-2.9 2.1-3.1 1.6-.8-2.4 2-3.3 3.3-3.8 3.3-1.2zm-1 9.5c0 1.6-.3 1.9-1.1 1.1-.6-.6-.8-1.6-.5-2.2 1.1-1.7 1.6-1.3 1.6 1.1zm5.5-.2c-.3.5-1.3 1-2.1 1s-1.2-.5-.9-1c.3-.6 1.3-1 2.1-1s1.2.4.9 1zm-21.3 3.8c1.2 1.4.8 1.5-2.6.9-4.3-.7-5.1-1.1-4.2-2.5.8-1.3 5.3-.3 6.8 1.6zm29.3 11.7c3.1 3.8 5.5 8.9 5.5 11.7 0 .5-.6.8-1.4.8-.7 0-2.1 1.2-3.1 2.6-2 3-3.2 2.6-1.5-.6 1.5-2.7-.8-7.8-5.7-12.9-3.2-3.3-3.3-3.6-1.7-4.8 2.8-2 3.9-1.6 7.9 3.2zm3.7 18.7l-2.2 2.2 1.2-3.2c.8-2.1 1.6-2.8 2.2-2.2.7.7.3 1.8-1.2 3.2zm10.1.7c1 .8 1.5 2.2 1.2 3.2-.4 1.2.2 2.2 2.1 3.1 1.5.7 4 3.8 5.7 6.8 1.6 3 4.9 7.9 7.2 10.8l4.3 5.2-3.1 3.3c-3.3 3.3-4.8 2.6-2.7-1.4 1.6-2.9 0-4.5-2.9-2.9-2 1-2.1.9-1.5-2.7.4-3 .1-4.3-1.6-6.1-2.3-2.5-4.9-2.8-6.9-1-.9.9-.8.1.3-2.6 2.4-5.7 1.9-6.5-1.5-2.6-3.3 3.8-3.4 3.5-1.4-4l.6-2.5-2.1 2.7c-1.2 1.6-2.6 2.8-3.1 2.8-1.1 0-1.2-3.3 0-4.6 1.3-1.4 2.3-6.4 1.2-6.4-.5 0-1.6 1.1-2.5 2.5-2.8 4.2-3.6 2.8-1.3-2.3 2.3-5.2 3-5.3 8-1.3zm-8.8 33.7c3.5 2.3 3.1 3.8-.5 1.9-1.6-.9-3-2-3-2.5 0-1.4.7-1.3 3.5.6zm31.5.3c0 .6-.4 1.3-1 1.6-.5.3-1-.1-1-.9 0-.9.5-1.6 1-1.6.6 0 1 .4 1 .9zm11.9 9.7c-.6.8-1.6 1.4-2.1 1.4-1.3 0-.2-5.8 1.5-7.8 1-1.3 1.2-1 1.5 1.7.2 1.8-.2 3.9-.9 4.7zm-7.5-4c.9 2.3.7 6.4-.3 6.4-1.8 0-3.3-3-2.7-5.5.7-2.8 2.1-3.3 3-.9zm15.1 4.7c-.8 2-2 3.7-2.5 3.7-1.3 0-1.3-1.6.1-6.4.9-3.4 1.3-3.7 2.5-2.4 1.3 1.2 1.3 1.9-.1 5.1zm6.5.9c0 4.5-3.2 13-4.4 11.8-.4-.5 1-10.1 1.9-12.8.7-2.1 2.5-1.3 2.5 1zm-18.1 4.2c.8.9.8 1.6.2 2-.6.4-1.5-.3-2.1-1.4-1.2-2.3.2-2.7 1.9-.6zm7.9 5.6c.2 2.3.1 2.4-1.1.7-.8-.9-1.9-1.7-2.6-1.7-.6 0-1.1-.5-1.1-1.1 0-.6 1-.9 2.3-.7 1.5.2 2.3 1.1 2.5 2.8zm17.4-.2c-.6 4.2-3.2 9.2-4.8 9.2-1.2 0-1.5-.5-.9-2.3.4-1.2 1-3.9 1.2-6 .4-3.2.9-3.8 2.7-3.5 1.6.2 2 .9 1.8 2.6zm-28.8 7.9c2.5 2.8 2.7 3.5 1.6 4.8-1.1 1.3-1.1 1.8-.2 2.4.9.6.7 1.4-.8 3.3-1.1 1.5-2 3.3-2 4.2 0 2.8 3.4 1.7 6.4-2 2.5-3.1 3.3-3.5 6-3.1 1.7.3 3.8.8 4.7 1.1.8.4 2.5-.2 3.8-1.3 3.2-2.8 4.5-1.6 2.4 2.1-2.5 4.3-5.4 5.4-10.3 3.9-4.7-1.4-5.3-1.1-7 2.9-1.5 3.5-2.2 3.7-6.5 1-5.2-3.2-7.5-9.9-4.9-14.8.7-1.5 1.4-3.9 1.4-5.3 0-2.8 1-4.4 1.9-3.2.4.5 1.9 2.2 3.5 4zm13.1 2.3c-.3.5-1.2 1-1.8 1-.7 0-.6-.4.3-1 1.9-1.2 2.3-1.2 1.5 0zm17.5 12.6c0 2.4-1.7 1.5-2.2-1.1-.4-2-.3-2.3.8-1.4.8.6 1.4 1.8 1.4 2.5zm-41.4 4.9c3.3 1.4 7.1 3.2 8.6 4 1.4.8 3.3 1.5 4.1 1.5 2.7 0 6.1 3.5 5.3 5.5-.6 1.6-.8 1.6-2.4.2-2.6-2.3-10.9-5.7-16.9-7-4.4-.9-5.6-.9-6.3.2-1 1.7-7 2.5-7 1 0-2.1 2.1-4.9 4.8-6.3 3.5-2 3-2 9.8.9zm50.8 5.6c5.1 7.2 5.7 8.4 4.7 10.5-1.6 3.6-3.4 3-2.5-.8.6-2.9.5-3.1-.9-1.9-2.4 1.9-3.8.5-2.5-2.4 1.6-3.5.3-4.3-2.2-1.4-2.8 3.4-4.3.9-2.3-3.8 1.5-3.7 1.1-5.5-.9-3.5-1.7 1.7-2.8 1.5-2.8-.6 0-1.7 1.8-4.2 3-4.2.3 0 3.1 3.7 6.4 8.1zm-24.4.6c2.5 3.1 6.4 7.7 8.8 10.3 2.3 2.6 4.2 5 4.2 5.4 0 .4-1.5.4-3.3.1-4.8-.9-8.2 2-7.2 6.3.8 3.7 4.7 7.2 8.1 7.2 2.1 0 2.4.4 2.2 3.8-.2 5.3 1.7 8.4 4.9 8 2-.2 2.9-1.2 3.8-3.7l1.1-3.3 1.5 2.3c1 1.5 2.7 2.3 5 2.5 2.7.2 4.4 1.3 8.2 5.4 5.1 5.6 6.1 8 2.2 5.4-1.6-1-3.1-1.3-4.2-.8-1 .4-2.5.8-3.3.8-2 .1-2.5 3.4-.7 5.4.8.9 1.7 2.6 2 3.7.3 1.1.8 3 1.2 4.1.5 1.8 0 2.4-2.6 3.3l-3.2 1.1.5 8.2c.7 11.8-3.4 25.4-10.1 33.8-2.6 3.2-2.7 1.8-.2-1.8 1.3-1.8 2.6-7.2 3.9-16.7 3.2-21.5 3.3-23 1.8-25.1-1.3-1.7-1.5-1.7-3.9-.2-2.9 2-3.9 7.9-3.3 20.1.4 7.8-.9 13.2-5.1 21.3-2 4-1.1 6.8 2 6.2 2.3-.4 2.3-.4-.8 5.8-4.6 9.1-4.9 9.4-9.3 8.2-2-.5-4.7-1.2-5.9-1.5-2.3-.5-2.3-.6-.4-3.2 4.8-6.8 10-21.1 12-33.1 2-12.3 2.3-26.1.8-31.3-1.8-5.7-.8-6.1 4.6-1.6 4.8 4 7.2 3.3 6.3-1.6-.7-3.4-.6-3.5 1.9-2.5 3.7 1.4 4.5 1.3 4.5-.9 0-2.9-4.7-4.4-10.3-3.2-3.5.8-5.2.8-7.4-.3-1.5-.7-4.9-2.4-7.5-3.7l-4.7-2.3-2.4 2.2-2.3 2.2-2.1-2.2c-2.3-2.2-6.8-2.8-11-1.3-2.2.7-2.1.4 1.2-7.8 1.9-4.7 4.2-11.7 5.1-15.7 1.4-6.4 2-7.4 5-9.2 2.9-1.7 3.4-2.6 3.4-5.6 0-2.3-.8-4.4-2.2-5.9-1.9-2-2-2.5-.8-3.3 2.5-1.6 3.4-1.2 8 4.7zm139.1.3c1 .6 1.9 2 1.9 3.2 0 2.1 0 2.1-2.5-.2-3.7-3.4-3.4-5.1.6-3zm-166.7 3.5c1.4 1.4 3.2 2.5 4.1 2.5 1.3 0 1.5.7 1 3.4-.6 2.9-.3 3.7 1.8 5l2.4 1.7-2.2 8c-2.9 10.2-3.5 10.8-8 8.6-4.3-2.1-4.5-2.1-4.5-.3 0 .7 1.7 2.6 3.7 4.2 4.1 3.1 3.1 4.4-1.6 2-4-2.1-5.1-2-5.1.4 0 1.3 1.2 2.5 3.6 3.5 3.6 1.5 3.7 1.6 1.9 3.5-1.7 1.9-2 1.9-3.6.4-1.9-1.7-4.9-1.3-4.9.6 0 .6 1.1 1.5 2.5 2.2 2.3 1 2.4 1.2.9 4.1-2.1 3.9-.4 5.9 2.6 3.2 1.9-1.8 2-1.8 2 .3 0 3.2 1.9 2.7 6.2-1.5 3.5-3.4 3.8-3.5 3.8-1.5 0 3.2 2.6 2.7 4.7-.8 2-3.5 2.9-3.7 3.6-1 .3 1.4 1 1.8 2.1 1.4.9-.3 3-.1 4.6.6 2.4 1 3.3 1 4.5 0 3.8-3.1 5.8 4.4 5 18.3-.6 9.7-2.9 24.5-4 25.6-.3.3-1.5-.4-2.6-1.5-1.6-1.6-1.8-2.6-1.1-4.5.6-1.4 1.1-4.5 1.3-6.9.3-3.6.1-4.5-1.3-4.8-1.8-.4-2.6 1-4.7 7.8-.9 3.1-1 3.2-.6.5.2-1.7.6-4.7 1-6.8.5-2.9.2-3.9-1.1-4.4-2.3-.9-4 1.7-4.9 7.2-1 6.7-2.6 5.5-2.3-1.7.3-5.3 0-6.3-1.5-6.6-1.8-.4-2.2.3-3.2 6-.3 2.1-1.1 3.8-1.6 3.8-.8 0-.9-2.3-.4-7 .6-6 .5-7-.9-7-1.8 0-3.5 2.9-3.7 6.2-.1 1.3-.5.5-.8-1.7-.9-6.3-3.6-5.3-5.8 2-.4 1.6-1.5 3.1-2.4 3.3-1.2.2-1.6-.7-1.7-4.4 0-5.4-1.4-7.3-3.6-5.5-.8.7-1.8 2.3-2.2 3.4-1.7 5.7-6.3 7.4-9 3.3-.8-1.4-3.1-3-4.9-3.6-1.9-.6-4.7-2.6-6.3-4.5-2.6-2.9-2.9-3.9-2.5-8.2.7-6.2 8.5-22.7 16-33.8 3.2-4.7 6.7-10.1 7.8-11.9 10-16.8 11.2-17.8 15.9-13.1zm165.1 2.5c.3.5.1 1-.4 1-.6 0-1.1-.5-1.1-1 0-.6.2-1 .4-1 .3 0 .8.4 1.1 1zM189 287.2c0 .4 1.4 2.7 3.1 5.2 3.1 4.3 3.2 6.6.3 6.6-.9 0-1.4-1.1-1.4-3.2 0-3 0-3.1-2-1.3-2.4 2.2-3.6 1.4-2.1-1.3 1.6-3 1.5-4.7-.3-3.3-2 1.7-3-.3-1.5-3.1 1-1.8.8-2.4-.7-3.5-1-.7-2.1-1.3-2.6-1.3-.4 0-.8-.8-.8-1.7 0-1.2 1.1-.6 4 2.2 2.2 2.1 4 4.3 4 4.7zm95.3-5c.9.7 1.9 2.6 2.3 4.3.4 1.8.3 2.6-.2 2-.5-.6-2.2-2.5-3.8-4.3-3-3.3-1.9-4.6 1.7-2zm27.5 1.6c.2.7-.7 1.2-2.3 1.2-2.4 0-2.6-.2-1.5-1.5 1.4-1.7 3.1-1.6 3.8.3zm-133.4 6.7c-.5 1.9-.9 2.3-1.5 1.4-.4-.7-.3-2.1.3-3.2 1.3-2.6 2.1-1.5 1.2 1.8zm79.1-1.5c.3.5.1 1-.4 1-.6 0-1.1-.5-1.1-1 0-.6.2-1 .4-1 .3 0 .8.4 1.1 1zm-94.2 1.7c1.4.9.7 4.3-1 4.3-1.8 0-6.3-3.8-6.3-5.3 0-.8 5.5-.1 7.3 1zm113.9 0c1.4 1.3 2.1 1.4 3 .5 1.8-1.8 2.6-1.5 3 1 .4 3.1 5.2 5.4 8.3 4 1.9-.9 2.2-.8 1.8.7-.5 2.1 2.8 5.2 7 6.6 3 1 3.2 1.3 2.9 5-.2 2.1-.7 4.6-1.2 5.6-.5.9-.6 2-.2 2.3.4.4.7 2.3.7 4.2 0 2.9-.3 3.4-1.8 3-2-.5-4.1 2.2-5.1 6.6-.3 1.5-1.8 3.5-3.2 4.5-1.5 1-4.3 3.6-6.3 5.8-9.2 10.1-8.9 9.9-11.6 8.1-2.1-1.4-2.7-1.4-5.1-.1-3.5 1.8-4.6 1.1-11.8-6.2l-5.6-5.8V330c.1-3.6-.2-8-.6-9.8-.4-1.9-.2-4.3.4-5.5.5-1.2 1.6-3.7 2.2-5.5.7-1.8 2.6-4.9 4.1-6.9 1.6-2 2.9-4 2.9-4.6 0-1.4 5-6 8-7.4 3.6-1.6 6.1-1.5 8.2.4zm-20.7 8.4c-.6.9-3.5.1-3.5-1 0-.4.3-1.1.7-1.4.8-.9 3.4 1.3 2.8 2.4zm-80.5-.2c0 .5.3 1.6.6 2.4.4 1.2 0 1.4-1.5 1-2.4-.6-2.3-.5-1.5-2.7.7-1.7 2.4-2.2 2.4-.7zm26.5 6c1.1 1.8 3.9 5.9 6.3 9.1 2.3 3.3 4.2 6.9 4.2 8.1 0 3.3-2 6.1-3.7 5.5-.9-.4-2.4.1-3.3.9-1.4 1.3-2 1.3-2.6.4-.4-.7.2-1.9 1.7-3.1 4.5-3.4 4.9-3.9 4.9-6.1v-2.2l-1.8 2.2c-1.5 2-4.9 2.9-9.3 2.5-3.7-.4-2.3-10.1 1.6-11.6 1.7-.6 2.1-4.6.5-4.6-.6 0-2.1.7-3.4 1.5-1.9 1.3-2.5 1.3-3.4.2-.8-1-.7-2.2.6-4.9 1.5-3.3 1.9-3.5 3.7-2.4 1.1.7 2.9 2.7 4 4.5zm105.5-2.8c0 .5-.4.9-1 .9-.5 0-1-.7-1-1.6 0-.8.5-1.2 1-.9.6.3 1 1 1 1.6zM170 304c0 1.3-.7 2-2 2-2.2 0-2.8-2.5-.7-3.3 2.2-1 2.7-.7 2.7 1.3zm25 7.4c0 1.1-1.9 1.5-2.5.6-.3-.5.1-1 .9-1 .9 0 1.6.2 1.6.4zM307 326c0 .5-.7.7-1.5.4-.8-.4-1.2-1-.9-1.5.6-1.1 2.4-.2 2.4 1.1zm-90.4.5c.8 2.1-3.1 7.2-6.2 7.9-4.1 1.1-4.1-.1-.1-3.8 2-1.9 3.7-3.9 3.7-4.5 0-1.6 2-1.3 2.6.4zm-25.4 18c.1 9.5-.2 13.2-1.7 17.8-1.4 4.3-1.6 6-.7 6.9 1.7 1.7 4.6-1.3 6.1-6.4.7-2.3 1.6-10.2 2.1-17.7.6-10.9.5-14-.6-15.6-1.6-2.3-1.8-3.5-.5-3.5.5 0 1.3.9 1.6 2.1 1 3.1 9.2 14.8 14.1 20.1 2.4 2.6 4.4 5.3 4.4 6.1 0 2.7 3.9 6.3 8 7.6 4.1 1.2 4.2 1.3 3.5 4.8-.4 2.4-.1 4.2 1.1 6 1.6 2.5 1.5 3-1.6 12.7-4.8 15.2-5.3 16.9-5.5 19.6-.1 1.4-.6 4.2-1 6.3-.6 3.1-.3 4.4 1.6 7.2 3.1 4.4 6.1 5.2 9.9 2.5 4.6-3.3 9.6-10 11.4-15.5 1.8-5.3 6-10.5 8.6-10.5 1.6 0 21.3 22.7 28 32.2 3.2 4.6 3.3 4.8 1.6 6.7-6 6.6-11.7 21.3-12.2 31.5-.7 13.9-1.2 17.1-3.9 25.2-3.3 9.4-4.9 12.7-8.4 17.4-1.4 1.9-3.1 4.4-3.6 5.5-.6 1.1-1.9 2.1-3 2.3-2.8.5-5.5 3.2-5.5 5.3 0 2.3 3 3.2 6.3 2 2.3-.9 3.2-.5 8.1 4.2 6 5.8 14.8 18.3 18.5 26.4 1.3 2.9 3.4 5.6 4.7 6.2 1.7.7 2.8 2.6 3.9 6.8.9 3.2 2.3 7.6 3.1 9.8 1.8 5.3 1.8 6.1-.3 4.2-1-.8-3.5-1.8-5.5-2.2-2.1-.4-4.2-1.3-4.9-2.1-1.8-2.2-11-1.7-18.1 1-11.7 4.4-18.1 8.7-20.4 13.5-2.6 5.5-4.2 6.7-12.2 9.1-5.9 1.8-6.5 1.9-8.8.3-2.1-1.3-3.1-1.4-6.5-.4-2.3.7-4.4 1-4.7.6-.3-.3 2.8-3.9 6.9-8 8.3-8.3 14.4-18.9 18.5-32.5 2.9-9.8 9.2-24.8 11.8-28.3 1.8-2.4 1.8-2.9.5-4.3-1.4-1.3-1.8-1.2-4.3.7-2.3 1.8-9.6 15.2-9.6 17.5 0 .3-.9 2.4-1.9 4.7-1 2.3-2.4 6.2-3.1 8.7-2.6 10.1-4.5 14.8-8.6 21.5-4.5 7.3-14.6 17.1-16.4 16-.6-.4-1.7-.1-2.5.5-1.1.9-2.2.9-4.7 0-2.6-1-4.1-.9-7.4.2-3.3 1.2-4.9 1.2-7.5.4-4.9-1.6-4.1-4.4 3.2-12.4 3.3-3.7 8-9.6 10.4-13.2 2.4-3.6 5.3-7.1 6.4-7.8 1.4-.8 2.1-2.3 2.1-4.1 0-1.7.4-3.2.9-3.5.4-.3 1.1-2.1 1.4-4 .8-4.7 12.7-19.9 12.7-16.1 0 .2-.5 1.5-1.1 2.9-.9 2-.9 2.9.1 4.1 1.7 2 2.6 1.2 5.5-4.5 3.7-7.3 3.2-9.7-1.5-6.8-1.7 1.1-2.2 1-3-.2-1.4-2.3-5.5.5-11.6 8-5.4 6.7-7.4 10.5-7.4 14.2 0 1.2-1.9 4.2-4.2 6.8-2.4 2.6-6.5 7.7-9.3 11.4-8.5 11.5-8.8 11.7-13.5 12.7-9.3 1.7-14.4 1.2-18.5-2.1-2.1-1.7-5-3-6.4-3-1.5 0-3.5-.6-4.6-1.4-3.1-2-11.3-4.4-18.1-5.1-4.8-.5-6.9-.3-9.4 1-1.7.9-3.4 1.5-3.6 1.2-.2-.2 0-2.6.5-5.3.5-2.7 1.5-8 2.2-11.8 2.5-14.5 10.5-32.2 21-46.5 10-13.6 13.5-17.6 16.4-19 1.7-.7 4.1-2.7 5.4-4.3 2.4-3 2.4-3.2.8-6-1.9-3.3-2.2-7.4-.7-8.3.5-.3.7-2.5.4-4.8-.3-2.3.2-8 1.1-12.7.9-4.7 2-14.1 2.6-21 .5-6.9 1.4-13.5 1.9-14.8 1.6-3.7 1.2-6.3-1-6.9-2.9-.8-2.4-4 .9-5.7 2.2-1.2 3.6-3.5 6.6-11.1 2.1-5.3 6.2-13.3 9-17.8s6.4-11.9 7.9-16.4c2.6-7.6 2.8-9 2.1-17.3-.5-6.3-.4-9.5.4-10.4.7-.8 1.1-2.5 1-3.8-.1-1.2-.1-3.2 0-4.3.7-4.8 2.1 5.9 2.3 17zm31.2-12.6c2.6 2.7 2.7 3.2 1.6 6.5-1.2 3.8-2.1 4.4-3.8 2.3-.7-.8-.6-1.8.4-3.1 3.2-4.4 1.2-4.9-3-.7-5.7 5.6-7.8 4.6-3.1-1.6 1.9-2.5 3.5-5 3.5-5.4 0-1.7 1.6-.9 4.4 2zm10.4 1.1c2.1 2 3 5 1.5 5-1.2 0-5.3-4.6-5.3-5.9 0-1.7 1.4-1.3 3.8.9zm17.9 5.2c1.7 2.4 4.5 5.8 6.2 7.5 1.7 1.8 3.1 3.7 3.1 4.2s1.4 1.4 3.1 2.1c2.4 1 4.1 1.1 8.1.1 2.8-.6 5.3-.9 5.6-.7.2.3-.6 2.4-1.9 4.7-3.2 5.7-10.9 10-14.2 7.9-1.2-.8-3.5-2-5-2.8-1.6-.8-3.3-2.4-3.8-3.6-.6-1.2-3-3.3-5.4-4.6-2.3-1.3-4.9-3.5-5.8-4.9-1.7-3-1.2-9.1.9-9.1.7 0 2.1-1.1 3.1-2.5 1-1.3 2.1-2.5 2.4-2.5.3 0 1.9 1.9 3.6 4.2zm53.4 2.1c-1 .9-1.1.8-.5-.6.3-1 .9-1.5 1.2-1.2.3.3 0 1.1-.7 1.8zm-73.3 2.6c4.9 5.2 7 7.8 8.2 10 .7 1.3 3.2 4.8 5.6 7.8 2.8 3.5 4.1 5.9 3.7 6.9-.6 1.5-.8 1.5-2-.2-.7-1-1.3-2.5-1.3-3.3 0-1-.9-.6-3 1.4-3.6 3.4-4.7 2.8-2.6-1.4.9-1.6 1.6-4 1.6-5.3-.1-2.2-.3-2.1-3 1.1-3.4 4-5.2 3.4-2.7-.8 2.1-3.6 2.2-5.1.1-5.1-.9 0-1.8-.9-2.1-2.1-.5-1.9-.8-1.8-3.3 1.3-1.6 1.8-3.1 3-3.6 2.6-.4-.5 0-1.6.8-2.5.8-1 1.6-3.6 1.6-5.7l.2-3.9-2.4 2.2c-3 2.8-4.3 1.2-2-2.4 1.9-3 3.8-3.2 6.2-.6zm-8.6 9.6c-.2 1.4-.8 2.5-1.3 2.5-1 0-1.1-1.2-.3-3.4 1-2.5 2.2-1.9 1.6.9zm9.9 5.8c-1.3 1.3-2.6.3-1.6-1.2.3-.6 1.1-.8 1.7-.5.6.4.6 1-.1 1.7zm21.5 11.8c.3.6-.1 1.8-1 2.7-1.4 1.4-1.8 1.5-2.5.3-.5-.8-.7-2-.4-2.8.6-1.6 2.9-1.7 3.9-.2zm-18.6 2.6c0 .9 2.8 4.7 6.2 8.6l6.1 6.9-2.5 2.1c-3.3 2.9-5.1 6-7.2 12.7-2.6 8.2-6.8 12.1-10.6 10-1.4-.7-2-2.1-2-4.3.1-5.8 2.8-14.9 6.1-20.1 3.3-5.2 4.1-11.1 2.4-16.6-.5-1.5-.4-2 .4-1.6.6.4 1.1 1.4 1.1 2.3zm10-1.3c0 .3-.4.8-1 1.1-.5.3-1 .1-1-.4 0-.6.5-1.1 1-1.1.6 0 1 .2 1 .4zm19.6 12.2c1.3 1.9 1.2 2.6-1.2 6.3-2.1 3.2-3 3.8-4.1 3-1.7-1.5-1.7-3.5.1-4.2 1.5-.6 3.2-6.4 2.2-7.4-.3-.4-1.7.6-3 2-4.1 4.4-6.2 3.5-2.6-1 2.7-3.5 2.5-5.3-.5-5.3-1.8 0-2.5-.5-2.5-1.8 0-1 .3-2.2.7-2.6.7-.7 8.1 6.7 10.9 11zm4.8 6.3c.3.5-.2 1.9-1.2 3.1l-1.8 2.2.2-2.8c.1-1.6.2-3 .3-3.2.3-.6 2-.1 2.5.7zm4.1 7.1c-.9 2.8-2.9 2.5-2.1-.3.3-1.2.6-2.9.6-3.7.1-1.2.3-1.1 1.1.3.6.9.7 2.6.4 3.7zm-4.7 6.6c-.9.8-4.9-5.7-4.2-6.8.4-.7 1.5.4 2.6 2.6 1.1 2.1 1.8 4 1.6 4.2zm10.2-2.2c0 1.1-1.9 1.5-2.5.6-.3-.5.1-1 .9-1 .9 0 1.6.2 1.6.4zm6.8 6.3c2.4 2.2 17.7 21.5 19.3 24.5.7 1.2 2.3 3.3 3.6 4.7 3.7 3.9 6.1 10.8 2.8 8.1-.8-.7-1.5-1.8-1.5-2.4 0-.6-.9-1.7-2-2.4s-2-2.1-2-3.2c0-2.4-1.5-2.6-2.4-.3-.5 1.1-1 1.3-1.7.6-.8-.8-.8-1.7 0-3.1 2.1-4 1-3.6-3.4 1.3-2.9 3.3-4.4 4.4-4.5 3.3 0-.9 1.1-2.5 2.3-3.5 2-1.6 4.3-7.3 2.9-7.3-.2 0-2 1.3-3.9 3-3.8 3.3-4.8 3.6-5.6 1.6-.4-.9 0-1.2 1.2-.9 1.2.3 2.2-.7 3.4-3.2.9-2 1.7-4.3 1.7-5.2 0-1.4-.2-1.4-2 .2-1.1 1-2.3 1.6-2.6 1.3-.7-.8-.7-3.9.2-6.7.6-2.1.5-2.2-1.5-1.2-1.1.7-2.1 1.8-2.1 2.5 0 2-2.8 3.9-4.7 3.2-1.5-.6-1.4-.8.5-2.2 2.4-1.7 5.7-7.3 4.8-8.2-.3-.3-1.4.2-2.3 1-1 .8-3.1 1.8-4.6 2.2l-2.8.7 2.5-3.8c3.1-4.5 3.3-5.6.6-4.8-1.1.4-2 .2-2-.4 0-1.7 3.6-1.3 5.8.6zm58.2 10.2c0 .9-.5 2.2-1.2 2.9-1.4 1.4-6.7 1.6-8.8.2-1.1-.7-.7-1 1.7-1 3.1 0 6.3-2.1 6.3-4.1 0-.6.5-.7 1-.4.6.3 1 1.4 1 2.4zm3.9 18.5c-.5.5-2.6.2-5.1-.7-6.4-2.5-9.9-2.1-14.6 1.3-4.7 3.4-6.3 3.9-4 1.2.9-.9 2.2-3.1 3.1-4.7 1.1-2.2 2.3-3 4.4-3.2 4.4-.2 13.1-2.7 14.5-4.1 1.1-1.1 1.4-.4 1.9 4 .3 2.9.2 5.7-.2 6.2zM63 430.2c0 2.5-.3 2.9-1 1.8-1.3-2-1.3-5 0-5 .6 0 1 1.5 1 3.2zm-10.5 7.9c.4 1.2.3 2.5-.3 3.1-1.5 1.5-5.2-.9-5.2-3.2 0-2.9 4.6-2.7 5.5.1zm236.3 4.6c-1.5 1.9-2.8 1.6-2.8-.6 0-1.1-.4-2.2-1-2.6-.5-.3-.6-1.3-.3-2.2.5-1.3 1-1.1 2.9 1.2 1.7 2.2 2 3.2 1.2 4.2zm11.2-.3c0 1.5-1.8 3.1-2.6 2.3-.7-.7.7-3.7 1.7-3.7.5 0 .9.6.9 1.4zm23 2.7c0 .5-.9.9-2 .9-2.2 0-2.7-1.6-.7-2.3 1.5-.5 2.7.1 2.7 1.4zm20.4 4.1c.9 1.2 1.6 3.7 1.6 5.5 0 1.7 1.1 5.8 2.4 9 1.3 3.2 3 7.4 3.7 9.3.7 1.9 3.7 5.7 6.5 8.5 4.7 4.6 11.4 15.5 11.4 18.8 0 .7 1.3 3.9 2.9 7 1.6 3.1 2.5 5.4 2 5.1-1.3-.8-11.9-13.9-14.9-18.4-2.6-3.8-10.1-12.9-17.7-21.2-2.4-2.6-4.3-5.5-4.3-6.6 0-1 1.4-2.8 3-4 3.4-2.6 3.8-4 1.3-4.9-4.1-1.5-5.5-6-2.7-8.7 2.1-2.1 3-2 4.8.6zm-27 .4c.8 2.1-.9 5-3.5 5.7-1.9.5-2 .4-.5-1.2.9-1 1.3-2 1-2.4-.9-.8.3-3.7 1.5-3.7.5 0 1.2.7 1.5 1.6zm-19.6 5.3c-.2 1-1.2 1.5-2.5 1.3-1.2-.2-2.4.2-2.8.8-.8 1.3-2.5.3-2.5-1.6 0-.7 1-2.5 2.2-4l2.3-2.5 1.8 2.2c1 1.2 1.6 2.9 1.5 3.8zm23.2 1c0 2.3-2.8 4.8-6.4 5.7l-3 .7 3.8-4.6c3.8-4.6 5.6-5.2 5.6-1.8zm15 .6c-.7.8-1.7 1.5-2.2 1.5-.6 0-.5-.7.2-1.5s1.7-1.5 2.2-1.5c.6 0 .5.7-.2 1.5zm-279.5 3c1 4.5 0 8.8-2.2 9.6-2.1.8-2.2.6-1.7-4.4.4-4.4.3-4.9-.7-3-1.6 3.1-3.1 2.9-2.3-.2.6-2.4.4-2.5-2.7-2.3-2.5.2-3.5.9-4.3 3-1.1 3.1-3.3 3.2-2.8.2.6-3.5 3.5-4.9 10.1-4.9 5.4 0 6.2.2 6.6 2zm254.5-1.1c0 .3-.4.8-1 1.1-.5.3-1 .1-1-.4 0-.6.5-1.1 1-1.1.6 0 1 .2 1 .4zm14 2.1l2.4 2.5-3.9 4c-2.1 2.2-4.1 3.7-4.4 3.4-.3-.3.2-1 1.2-1.5.9-.6 1.7-2 1.7-3.2 0-1.3.6-2.9 1.3-3.7.6-.8.1-.6-1.3.5-1.4 1.1-3.1 2.6-3.7 3.4-.7.8-1.6 1.2-1.9.8-.6-.6 4.6-8.6 5.7-8.7.3 0 1.6 1.1 2.9 2.5zm-22.1.7c-.1 2.5-1.5 4.6-4.6 7.3-2.9 2.3-3.3 2.4-3.3.8 0-1 1.4-2.6 3-3.5 1.8-1 3-2.5 3-3.8 0-1.1.5-2 1-2 .6 0 1 .6.9 1.2zm26.6 5.8c.3.6-.1.7-.9.4-1.8-.7-2.1-1.4-.7-1.4.6 0 1.3.4 1.6 1zm2.8 3.4c.4 1-.2 1.6-1.6 1.8-1.7.2-2.3 1.1-2.5 3.5-.2 1.9.1 3.3.7 3.3 1.7 0 5.2-4 4.6-5-1.5-2.4 1.2-.6 6.1 4 2.9 2.7 5.7 5 6.2 5s4 3.9 7.8 8.7c3.8 4.8 8.5 10.6 10.4 12.9 1.9 2.3 5.5 6.8 8 10s7.5 9.1 11.2 13.2c3.7 4.1 7.3 8.8 8 10.3.7 1.6 2.1 3.2 3 3.5 2.6.8 2.2 2.4-.6 2.4-1.3 0-3.3.3-4.3.7-1.7.6-1.7.6 0-1.4 2.3-2.6 2.2-3.6-.3-2.3-1.7.9-7 .5-7-.6 0-.2 1-1.4 2.2-2.6 2-2 2.1-2.3.6-2.6-.9-.2-2-1.2-2.3-2.3-.8-2.5-2.1-2.4-6.1.6-4 3.1-5.9 1.4-2.2-1.9 5.3-4.5 3.7-7.5-2.2-4.1-4.8 2.7-5.5 1.5-1.5-2.3l4-3.7-3.4-.3c-1.8-.2-3.8.1-4.4.7-1.5 1.5-2.7 1.4-2.7-.2 0-.6 1.3-2.1 3-3.2 4.3-2.9 2-4-2.9-1.4-5.6 2.9-6.4 1.6-1.8-2.6 3.2-3 5.1-6.4 3-5.3-.5.2-2.1 1-3.8 1.7-1.6.7-3.9 1.8-4.9 2.3-1.4.7-1-.1 1.2-3 3.6-4.4 4-5.7 1.6-4.8-2.6 1-3.5-.4-1.8-3 2.5-3.7-.2-3-4.3 1.1-2.6 2.6-3.9 3.3-4.7 2.5-.8-.8-.5-1.6 1-2.8 2.2-1.7 4.1-7.2 2.6-7.2-.5 0-1.9 1.1-3.2 2.5-2.6 2.7-5 3.3-5 1.2 0-.8.9-2.2 1.9-3.1 1.8-1.7 2.5-5.6 1-5.6-.3 0-1.8.9-3.2 2-3.6 2.9-3.7 2.6-1.1-2.7 2.6-5 2.4-6.6-.3-4-1 .8-3.1 1.9-4.8 2.3-2.9.7-2.9.6-1.4-1.2.9-1 2.1-2.8 2.7-4 1.1-2 .9-2.1-3.9-1.6-4.2.4-5.4.1-7.4-1.8-3.1-2.9-3.1-3.5.3-7.5 3.1-3.8 3.8-4.1 4.5-2.1zm-280.8 5.7c-.3.4-1.2.6-2 .3-.8-.4-1.3-1-1-1.5.3-.4 1.2-.6 2-.3.8.4 1.3 1 1 1.5zm-7.5 2c0 .5-.9.9-2 .9s-2-.6-2-1.4c0-.9.7-1.2 2-.9 1.1.3 2 .9 2 1.4zm-.2 4.6c.5 1.8-1 1.6-3.4-.2-1.8-1.5-1.8-1.5.5-1.3 1.4.2 2.6.9 2.9 1.5zm4.3 6.5c1 1.8.8 2.4-1 3.7-1.5 1.2-2 2.2-1.5 3.5.5 1.3.1 2.3-1.1 3.2-1.3 1-1.5 1.7-.7 2.6 1.3 1.6.9 7.5-.6 9-.8.8-.9 1.5-.1 2.5.8.9.8 1.7 0 2.7-.9 1-.8 1.6.4 2.6 1.4 1.2 1.3 1.6-1.1 4.1-2.9 3.1-2.7 5.8.7 6.6 2.7.7 2 3.7-.9 4.1-1.8.3-2.6-.5-4.2-4-1.9-4.3-1.9-4.3.1-4.6 1-.2 1.7-.8 1.3-1.3-.3-.6.1-1.8 1.1-2.8 1.5-1.7 1.5-2.1-.5-5.6-1.2-2.1-1.9-4.4-1.5-5.3.3-.8-.3-2.3-1.5-3.4-2.5-2.4-1.7-4.2 1.2-2.7 1.6.9 2.3.8 2.9-.2 1.2-1.9 1.1-3.6-.1-4.4-1.6-1-1.2-2.5.6-2.5 1.1 0 1.4-.5 1-1.7-.4-.9-.1-2 .5-2.4.6-.4 1.2-1.8 1.2-3.3 0-3.2 2.2-3.4 3.8-.4zm-7-.1c1.1.5 1.7 1.4 1.4 2-.7 1.1-4.5-.7-4.5-2.1 0-1.3.7-1.3 3.1.1zM39 494c0 .5-.2 1-.4 1-.3 0-.8-.5-1.1-1-.3-.6-.1-1 .4-1 .6 0 1.1.4 1.1 1zm-13.2 6.4c.3 1.2-.1 1.7-1 1.4-.7-.3-1.5-1.3-1.6-2.2-.3-1.2.1-1.7 1-1.4.7.3 1.5 1.3 1.6 2.2zm60.3-.4c2.1 1.2 2.6 5 .6 5-1.9 0-3.7-2.1-3.7-4.2s.4-2.2 3.1-.8zm-69.6 3.1c.4.6.5 1.2.2 1.5-.7.7-3.7-.7-3.7-1.7 0-1.3 2.7-1.1 3.5.2zm4.7 10.9c-.2 1.6-.8 3-1.3 3-1.2 0-1.1-1.7.1-4.1 1.5-2.6 1.7-2.4 1.2 1.1zm61.8-1.2c0 2-2.8 4.5-4.4 3.9-1.4-.5-1.5-1.1-.6-2.7 1-1.9 5-2.9 5-1.2zm14 .6c0 1.1-1.9 1.5-2.5.6-.3-.5.1-1 .9-1 .9 0 1.6.2 1.6.4zm-64.2 10.5c.3.8-.1 1.2-.9.9-.7-.2-1.5-1-1.7-1.7-.3-.8.1-1.2.9-.9.7.2 1.5 1 1.7 1.7zm58.6 2c.9 1 1.9 3.4 2.3 5.3.4 3 .2 3.6-1.6 4.1-2.1.5-2.9-.7-1.1-1.8 1.2-.7 1.4-4.5.2-4.5-.8 0-7.2 11.5-7.2 12.7.1.5 1.2-.6 2.5-2.2 2.2-2.6 2.5-2.8 2.5-1 0 1.2-.5 2.6-1.1 3.2-1.2 1.2-2 10.3-1 10.3.4 0 1.5-.9 2.4-2.1 1.5-1.6 2.1-1.8 3.3-.9 1.9 1.6 1.8 5-.1 5-.8 0-1.5-.8-1.5-1.8s-1-.1-2.4 2.3c-2.6 4.2-2.6 5.6-.2 3.6 1-.8 1.6-.9 2.1-.1.3.6 1 .8 1.5.5.5-.3 1.1-.1 1.4.4.4.5.2 1.2-.4 1.6-1.7 1.1-1.1 3.5.9 3.5s3.5 2.5 2.5 4.2c-.3.5-1.2.7-2 .4-1.9-.7-2.8 1.2-1.4 2.9.6.8.9 1.9.5 2.5-.4.7.1.6 1.3-.1 2.4-1.5 3.2-1 3.6 2.3.2 1.2.6 4.3 1 6.8s.8 5.8 1.1 7.5c.2 1.6 1.2 6.9 2.2 11.8 1.1 4.8 1.7 8.9 1.5 9.2-.2.2-1.7.1-3.3-.2-3.5-.7-5.2 2.1-2.4 4.1 1.5 1.1 1.5 1.3.1 2.5-1.7 1.5-2.2 6.6-.6 7.6.5.3 1.8 0 2.8-.6 1.2-.7 2.7-.9 3.8-.4 1.6.7 1.5.9-1.1 1.4-2.1.4-3.1 1.3-3.3 2.9-.4 2.3-1.6 2.9-2.7 1.2-.3-.6-1.7-1-3-1-2.5 0-2.8-.6-3.9-8-.6-3.8-1.9-12.1-3.5-21.5-.5-3.3-1.3-10.7-1.6-16.5-.4-5.8-.9-10.8-1.1-11.1-.2-.3-.8-5.2-1.3-10.8-.5-5.6-1.4-10.8-2-11.5-1.2-1.4-.4-8.4 1.2-10.4.7-.9.3-1.2-1.5-1.2-2.6 0-4.8-1.7-4.8-3.6 0-1.7 4.3-3 4.8-1.5.3.9.9.8 2.2-.4 1.6-1.5 1.7-1.4 1.3 1.2-.4 2.7-.4 2.7 1.2.8.9-1.1 1.5-3.4 1.4-5-.2-4.7 0-5.5 1.4-5.5.8 0 2.2.8 3.1 1.9zm231.8 1.9c.3.9.1 2.6-.3 3.7-.7 1.9-.8 1.9-.8-.2-.1-1.2-.4-2.8-.7-3.7-.3-.9-.2-1.6.4-1.6.5 0 1.2.8 1.4 1.8zM403 533c1.2 2.2.7 6.1-1.5 11.3-1.8 4.2-4.2 6.3-3.1 2.6.4-1.3 1-4.7 1.3-7.5.5-4.9.4-5.2-2.1-5.8-3.4-.8-2.4-2.6 1.4-2.6 1.9 0 3.3.7 4 2zm-371.2 5.9c.3.8-.1 1.2-.9.9-.7-.2-1.5-1-1.7-1.7-.3-.8.1-1.2.9-.9.7.2 1.5 1 1.7 1.7zm340.8 3.8c7.8 9.3 7.9 9.4 13.9 6.9 5.1-2.2 4.6.4-.7 3.9-5.4 3.6-8.3 2.7-11.8-3.6-1.4-2.5-3.5-5.8-4.7-7.4-1.3-1.5-2.3-3.2-2.3-3.6 0-2 1.9-.7 5.6 3.8zM39 540.5c0 .8-.6 1.5-1.4 1.5-1.7 0-2.8-1.4-1.9-2.4 1.2-1.2 3.3-.6 3.3.9zm53.8 1.3c.2.7-.3 1.2-1.2 1.2-.9 0-1.6-.7-1.6-1.6 0-1.7 2.2-1.4 2.8.4zm227.7-.8c.3.5-.1 1-.9 1-.9 0-1.6-.5-1.6-1 0-.6.4-1 .9-1 .6 0 1.3.4 1.6 1zm-289.1 2.5c.3.9 0 1.5-.9 1.5-1.6 0-2.7-1.4-1.8-2.4 1-1 2.1-.7 2.7.9zM407 546c0 2.2-6.9 10.3-7 8.1 0-.7 1.4-2.9 3-4.8 1.7-1.8 3-3.8 3-4.3 0-.6.2-1 .5-1s.5.9.5 2zm-372.1 2.6c.1.1.1.7-.3 1.2-.9 1.4-6.6.2-6.6-1.5 0-1.1.7-1.3 3.3-.8 1.7.4 3.4.9 3.6 1.1zm27.1-.7c0 .5-.7 1.4-1.5 2.1-1.2 1-1.5 1-1.5-.2 0-.8.3-1.8.7-2.1.9-1 2.3-.9 2.3.2zm267 1.9c0 1.4 4.8 3.3 5.5 2.2 1-1.5 4.5-1.2 5.1.5.4.8-.3 2.3-1.3 3.3-2.3 2-4.7 7.2-3.4 7.2 1.4 0-.3 5.3-1.8 5.8-1 .3-1.2-.2-.7-2.1.5-2.1.3-2.5-.9-2.1-2.4 1-1.8-2.3 1.1-6.2 1.5-1.9 2.4-3.8 2-4.2-.8-.8-4.5 3.7-4.6 5.5 0 .7-.7 1.3-1.5 1.3-1.7 0-2.1-3.5-.5-4.5s1.2-2.5-.5-1.9c-1.7.7-3-1.8-2.1-4.1.6-1.6 3.6-2.1 3.6-.7zM31.7 553c1.3 0 2.3.4 2.3 1 0 .5-1.5 1-3.4 1-3.6 0-5.2-1.2-4-3.1.4-.8.9-.8 1.7 0 .6.6 2.1 1.1 3.4 1.1zm7.8.7c-.5 1-1.4 4.7-2.2 8.3-1.7 7.8-2.8 9.3-1.9 2.5 1-6.8 2.7-12.5 3.9-12.5.5 0 .6.8.2 1.7zm368.4 2.7c-1.3 3.5-2.9 4-2.9.9 0-1.7 3-5.6 3.8-4.9.2.3-.2 2-.9 4zM30 559.1c0 1.8-3.5.5-3.8-1.4-.3-1.6-.1-1.7 1.7-.7 1.2.6 2.1 1.5 2.1 2.1zm28 .4c.9 1.1 1 1.9.2 2.7-1.4 1.4-3.2.1-3.2-2.3 0-2.3 1.3-2.5 3-.4zm339.8-.7c.9.6.5 1.2-1.3 2-3.4 1.6-3.5 1.5-3.5-.8 0-2.1 2.4-2.7 4.8-1.2zM340 561c0 .5-.9 1-2.1 1-1.1 0-1.7-.5-1.4-1 .3-.6 1.3-1 2.1-1s1.4.4 1.4 1zm-311.4 1.5c1 .8 1.4 1.5.7 1.5-1.9 0-4.3-1.1-4.3-2.1 0-1.3 1.4-1.1 3.6.6zm380.4 1.4c.5 1.1 2 2.1 3.2 2.3 2.1.3 12.2 12.2 13.3 15.8.3 1.1-.8 3.1-3 5.5-3 3.3-3.5 3.6-3.5 1.8 0-1.1-.7-2.4-1.6-2.7-1.5-.6-1.4-1 .7-3.3l2.4-2.6-2.3 1.2c-1.3.7-2.6 1.9-2.9 2.7-.8 2-3.1 1.7-3.8-.6-.4-1.4.3-2.8 2.7-5.1 2.3-2.2 2.7-2.9 1.3-2.4-5.2 1.7-8.4 1.3-10.1-1.2-1.5-2.4-1.5-2.7 0-3.5.9-.5 1.6-1.6 1.6-2.3 0-1.8-4.1-2-5.9-.3-1.1 1.1-1.2.9-.6-1 .5-1.8.3-2.3-.8-2-2.9.6-1.7-1.7 1.6-2.9 4.7-1.7 6.5-1.5 7.7.6zm-380.8 2.4c2.4.8 3.4 1.7 2.9 2.5-1 1.6-6.5 0-6.9-2.1-.4-2-.6-2 4-.4zm308.7 5.3c-3.3 3.4-5.7 3.7-3.9.4 1.3-2.5 5.1-5.1 6.2-4.3.6.3-.5 2-2.3 3.9zm-310.1 1.2c-2 .4-2.3 1.7-.7 2.8.8.4.8.9 0 1.7-1.8 1.8-3.2-.6-2.5-4.1.6-2.9.8-3 2.8-2 1.8 1.1 1.9 1.3.4 1.6zm9.2 4.6c-.8.8-1.3.7-2-.4-1.2-2-.1-3.3 1.6-1.9 1.1.9 1.2 1.5.4 2.3zm307.6 1.1c1.9 4.5 1.9 4.5-1.5 4.5-2 0-3.7.9-5.5 3.1-2.5 2.9-2.6 3-2.6.7 0-1.3.9-2.9 2-3.6 1.4-.8 2-2.3 2-4.7 0-2.9.4-3.5 2.1-3.5 1.3 0 2.5 1.1 3.5 3.5zm-317.1 1.7c1.4.6 2.5 1.6 2.6 2.2.2 2.8-.2 11.4-.7 13.8-.9 4.6-2.4 3.1-2.4-2.3 0-4.3-.3-5.2-2.1-5.6-1.5-.4-1.9-1.1-1.5-2.7.3-1.1.6-3.1.6-4.4 0-2.6.1-2.6 3.5-1zm308-.3c.3.5.1 1.2-.5 1.6-.5.3-1-.1-1-.9 0-1.8.6-2.1 1.5-.7zm-299 3.6c0 1-.6 2-1.2 2.2-.8.3-1.3-.5-1.3-2.2 0-1.7.5-2.5 1.3-2.3.6.3 1.2 1.3 1.2 2.3zm86.9-.8c.4.9.2 2.1-.3 2.6-.7.7-1.2.5-1.7-.6-.3-.9-1.2-1.7-2-1.7-1.7 0-1.8 1.2-.2 2.8 1.7 1.7 0 2.8-2.1 1.5-1.7-1-1.9-.8-2.4 2-.2 1.8 0 4 .5 5 1.3 2.6-.2 4.4-1.8 2.2-1.8-2.4-2.4-1.7-1.7 1.7.3 1.8 1.2 2.8 2.3 2.8 2.1 0 3.5 2.9 2.1 4.3-.5.5-1.5 0-2.4-1.3-1.4-2-1.5-1.9-1.2 2.7.1 2.7.5 5.8.9 7 .4 1.2.2 2.4-.4 2.8-.6.3-.8 1.1-.5 1.6.9 1.4 2.5 1.1 2.5-.6 0-2 1.9-1.9 4.4.2 1.2 1 .7.2-1-1.7s-3.4-4.3-3.8-5.3c-1.5-4.4 1.1-3.2 8.5 4 8.3 8 13.6 12 8.4 6.3-1.6-1.9-4.1-4.3-5.4-5.5-2.3-2.1-2.2-5.3.1-3.9.6.4.6-.1-.1-1.4-.6-1.2-1.6-2.4-2.1-2.7-1.3-.8-1.3-4.5 0-4.5.6 0 1.6 1.1 2.2 2.5.6 1.4 1.6 2.5 2.2 2.5.5 0 2.6 1.5 4.6 3.2 2.6 2.5 2.5 2.2-.7-1.2-3.8-4.1-5.7-9-3.5-9 1.1 0 5.2 3.8 5.2 4.8 0 .4 2.2 3.1 5 6l5 5.2-6.7 8.8C126 639.4 120 646 117.9 646c-1.2 0-1.6.5-1.3 1.5.4.8.2 1.5-.3 1.5-.9 0-4.6-17.4-5.8-27-.4-2.5-1.3-8.9-2.2-14.3-1.2-7.4-1.3-10.3-.5-12 .6-1.2 1.6-4 2.1-6.1 1.4-5.3 4.7-8.6 8.7-8.6 2 0 3.4.6 3.8 1.7zm4.6-.7c0 .5-.4 1-1 1-.5 0-1-.5-1-1 0-.6.5-1 1-1 .6 0 1 .4 1 1zm6.4 6.1c-.8 1.4-1.8 1.1-3.2-1.1-1.9-3.1-.3-4.8 2-2.1 1 1.3 1.5 2.7 1.2 3.2zm8.8.1c4.8 3.3 6.9 6.5 5 7.7-.5.3.1 2.2 1.5 4.4 2.7 4.3 4.1 4.5 2.2.3-1.7-3.6-.6-4.2 3-1.6 3.8 2.6 4 1.6.4-2.2-2.5-2.6-2.5-2.8-.7-2.8 1.1 0 2.9.7 4 1.5 2.5 1.9 3.4 1.9 3.4 0 0-.8.9-1.5 2-1.5s2 .3 2 .7c0 1.4-8.5 11.5-12 14.3l-3.8 3-6.6-6.4c-3.6-3.5-6.6-7.2-6.6-8.1 0-1.3 1-.8 4.1 2 4.1 3.6 6.7 4.2 3.6.7-1-1-1.7-2.6-1.7-3.5 0-1-.6-1.4-1.4-1.1-1.6.6-4.6-2.1-4.6-4.2 0-2 1.6-1.7 4 .8 1.1 1.2 2.3 1.9 2.6 1.5.9-.8-1.5-3.7-3-3.7-.6 0-1.9-1.2-2.9-2.5-2.5-3.5-.4-3.2 5.5.7zm137.8-2.4c0 1.6-3.2 5.2-4.6 5.2-1.7 0-1.7-.2-.2-3.5 1-2.2 4.8-3.6 4.8-1.7zm3.7 2.6c-.8 1.9-3.7 2.1-3.7.3 0-.7.5-1.8 1.2-2.5 1.5-1.5 3.3.1 2.5 2.2zm59.3 1.4c0 1.8-3.8 7.2-5.1 7.2-1.5 0-1.1-2.2.9-4.4 1.7-2.1 1.7-2.1-.5-.3-2.9 2.5-4.2.3-1.4-2.7 1.2-1.2 2.1-2.8 2.1-3.6 0-.9.6-.8 2 .5 1.1 1 2 2.5 2 3.3zm99.8 14.5c14.9 21.3 18.3 25.2 26 30.2 5.9 4 9.3 9.5 7.6 12.3-1.9 2.9-4.6 2-5.9-1.8-1.2-3.5-3.7-5.1-5-3-.4.6.3 3.6 1.5 6.6 1.3 3 2 5.7 1.7 6-1 1-4.8-1.7-4-2.9.4-.7 0-.7-1 .2-1.4 1.1-1.8 1.1-2.3-.4-.4-.9-.2-2.1.5-2.8 1.7-1.7 1.3-2.7-1-2.7-1.8 0-2-.4-1.4-2.7.4-1.6.3-2.5-.1-2-1 .9-5.5-3.3-4.8-4.5.3-.5.2-.8-.3-.7-2 .3-3-.3-4.6-3-1-1.7-1.3-3.2-.8-3.5.5-.4 1.2 0 1.4.6.3.7.6-.2.6-2 .1-3.3 0-3.3-3-2.7l-3.2.7 2.7-2.8c1.4-1.6 2.6-3.2 2.6-3.6 0-1.2-4.8-1-5.5.2-.3.5-1.1 1-1.7 1-.6 0-.3-1.2.7-2.6 1.8-2.7 1.3-4.6-.7-2.6-2.5 2.5-7.7.3-7.8-3.3 0-.6.5-.3 1 .5.9 1.3 1.5 1 3.7-1.5l2.6-3-2.9-.6c-1.6-.3-3.8 0-5 .7-1.9 1.1-2.4 1-4.4-1.1l-2.3-2.4 3.2-3.3c5.1-5.3 3.4-6.8-2.6-2.2-2.6 1.9-3.8 2.3-4.6 1.5-.8-.8-.1-2.2 2.8-5.1 4-4.1 4.2-7 .2-3.2-1.3 1.2-3.1 2.2-4 2.2-3.2 0-2.9-2.3.9-6.1l3.8-3.9 4.5 5.1c2.4 2.8 7.3 9.2 10.9 14.2zm-315.4-16.7c.4.9.4 1.9.2 2.1-.8.8-2.6-.8-2.6-2.3 0-1.9 1.6-1.8 2.4.2zm140.6-1.1c0 .3-.9 2.4-2 4.5-1.5 2.9-2.7 4-4.3 4-1.2 0-2.8.9-3.5 2-1.4 2.3-.5 2.5 2.2.5 1.4-1.1 2.2-1.1 3.8-.2 1.6 1 2.2.9 3.2-.6.7-.9 1.6-1.7 2-1.7.3 0 .6.8.6 1.7.1 1.6.2 1.5 1.2-.2 2.3-4 5.3-4.1 4.3-.2-.5 2.1-.5 2.1.7.4.7-1 1.8-2.6 2.4-3.4 1.7-2.4 3.7-.6 2.9 2.6-.4 1.4-1.2 3.2-1.8 3.9-.6.7-1.2 2.5-1.3 3.9-.2 1.4-.8 3.1-1.3 3.6-.6.6-1.1 2.2-1.1 3.7 0 2.4 0 2.4 2-.8 1.2-1.9 2.8-3.2 4.1-3.2 2 0 2.1.7.2 5.7-.3.7-.2 1.3.1 1.3.3 0 1.6-.6 2.7-1.3 1.8-1 2.3-.9 2.6.1.4 1 .9.9 2.4-.4 1-.9 2.5-1.4 3.4-1 2.5.9 0 4.5-3.6 5.3-1.6.3-2.9.9-2.9 1.3 0 1.2 5.2.6 7.9-.9 2.1-1.2 2.6-1.1 3.8.5.7 1 1.3 1.4 1.3.9 0-.5.5-.4 1.1.2 1.6 1.6.1 3.7-1.5 2.4-1.8-1.5-4.3 1.5-4.7 5.4-.4 4 1.4 4.8 2.1 1 .4-2.1 1.1-3.1 2.8-3.3 2.6-.4 2.8.5.6 3.6-.9 1.3-1.3 2.6-.9 3 .4.4 1 .1 1.2-.6.6-1.7 4.3-1.5 4.3.3 0 1.9-3.6 3.9-4.5 2.5-.8-1.3-2.5-.3-2.5 1.6 0 .8.7 1.4 1.5 1.4 2 0 1.9.9-.5 7-2.2 5.5-2.4 7-1.2 7 .5 0 1.5-1.6 2.2-3.6.8-2 2.2-4 3.1-4.5 1.1-.5 1.5-1.6 1.2-2.9-.6-2.2 1.4-5.3 2.8-4.4.5.3.6 3.7.3 7.7-.5 6-.4 7.5 1 8.6 1.8 1.5 2.2 8.7.5 9.3-.7.2-.7 1.1 0 2.8.5 1.4 1 2 1.1 1.5 0-.6.4-.4.9.4 1 1.6.4 4.1-1 4.1-.5 0-.9-.8-.9-1.8-.1-1.5-.2-1.4-1.2.3-1.7 2.9-4.1 4.5-6 4.1-1-.2-1.8-.3-1.8-.1 0 .2-.3 1.1-.7 2-.5 1.5-.3 1.6 1.7.5 3.5-1.9 4.3.1 2.1 5.1-2.5 5.4-2.8 8.7-.3 4 .9-1.9 2.3-3.7 3.1-3.9 1.4-.5 1.4-.4-.5 5.7-.5 1.6-.2 1.9 1.7 1.4 2-.6 2.2-.4 1.6 2.5-.4 1.9-.2 3.2.3 3.2.6 0 1-.9 1-2 0-1 .5-3.1 1.2-4.5.9-1.9 1.6-2.4 3.2-1.9 3.3 1 4.1 2.1 2.6 3.9-1 1.2-1.6 1.3-2.6.4-1.1-.9-1.4-.7-1.4.8 0 1.6.5 1.9 2.5 1.5 2.9-.5 2.9-.5 1 4.1-.8 2-1.5 4.4-1.5 5.3 0 1.6.2 1.6 2-.1 3-2.8 3.5-1.1 1.8 6-.8 3.5-1.1 6.2-.7 5.9.5-.3.9-1.3.9-2.2 0-.9.5-2.4 1-3.2.9-1.3 1.1-1.3 2 0 1.1 1.8 1 9.9-.1 10.6-.5.3-2.7 0-5-.6-3-.8-4.5-.8-5.2-.1-.6.6-1.8 1.1-2.7 1.1-2 0-7.5-5.7-8.4-8.6-.4-1.1-1.8-2.7-3.2-3.5-3.2-1.7-10.1-11.6-12.7-18.3-1.5-3.8-2.1-7.9-2.2-16.2-.3-13.2-1.2-19.1-3-19.8-.7-.2-1.8-2.2-2.5-4.3-.7-2.1-2.1-5.4-3.2-7.3-1.2-1.9-3.2-5.5-4.6-7.9-1.3-2.5-3.7-5.5-5.3-6.8-1.6-1.4-6.8-8.3-11.6-15.5l-8.8-13 2.4-1.9c3.3-2.7 4.1-2.4 3.6 1.3l-.5 3.3 1.2-3.2c1.7-4.2 4.8-7.3 5.5-5.5.4 1 .9.8 2-.7 1.9-2.7 3.3-2.7 3.4.1 0 1.5.2 1.8.6.8 1-2.6 2.5-4 4.4-4 1.1 0 1.9.2 1.9.5zm6 .3c0 1.2-2.8 4.8-3.3 4.2-.8-.8 1.1-5 2.3-5 .5 0 1 .4 1 .8zm-150.7 3.7c.7 1.6-.8 2.9-2.3 2-1.5-.9-1.2-3.5.4-3.5.8 0 1.6.7 1.9 1.5zm-4.5 3.5c.3 2.1.2 2.2-1.2 1.1-1.9-1.6-2.1-4.4-.3-3.9.6.3 1.4 1.5 1.5 2.8zm14-1.8c.7.7 1.2 2.1 1.2 3.2 0 1.8-.1 1.9-2 .1-2-1.8-2.7-4.5-1.2-4.5.4 0 1.3.5 2 1.2zm156.4.4c.8.7-2.9 9.3-5 11.6-3.4 4-5.8.5-2.7-3.9.9-1.2 1.4-2.6 1.3-3-.6-2.2 1.5-5.3 3.6-5.3 1.2 0 2.5.3 2.8.6zM128 595c.9 1.6.8 2-.5 2-.8 0-1.5-.2-1.5-.4s-.3-1.1-.6-2c-.9-2.3 1.3-2 2.6.4zm220 0c0 .5-.2 1-.4 1-.3 0-.8-.5-1.1-1-.3-.6-.1-1 .4-1 .6 0 1.1.4 1.1 1zm-224.5 2.8c0 1.8-2 1.5-2.3-.4-.3-1 .1-1.5 1-1.2.7.3 1.3 1 1.3 1.6zm169.5 2.9c0 1.6-.6 2.3-2 2.3-2.3 0-2.6-2.1-.8-5 1.4-2.2 2.8-.9 2.8 2.7zm49.8-2.5c.5.7 1.5 3.7 2.1 6.6.6 2.8 2 7.8 3 11 1.4 3.9 2.1 9.4 2.4 16.5.2 6.2.8 11.2 1.5 12 .7.8 1 2.2.6 3-.3.9.3 2.8 1.5 4.3 1.1 1.4 2.3 4.1 2.7 6 .3 1.9 1.2 3.8 2 4.2.7.4 2 3.3 2.8 6.4 1.2 4.5 1.2 6.3.3 8.8-1 2.5-.9 3.3.3 4 2.8 1.8 4.3 1.2 3.8-1.5-.6-2.9.9-4.5 1.8-2.1 1.1 2.8-.5 6.4-3.3 7.8-3.1 1.5-4.2 3.8-1.9 3.8 2.3 0 2 1.3-.9 4-1.9 1.8-2.2 2.6-1.4 3.6.6.8.8 2.1.5 3.1-.6 1.5-.5 1.5 1.3-.1 2-1.8 6.1-1.9 6.3-.1.1.5-.7 1.2-1.8 1.4-2.6.4-5.4 3-5.4 5 0 1.2.3 1.2 1.2.3.7-.7 2.2-1.2 3.4-1.2 1.3 0 2.6-.5 3-1.1 1-1.7 2.4 1.1 2.4 5.1 0 2.5-.8 4.3-3.2 6.7-1.8 1.8-3.6 3.3-4 3.3-1.5 0-.8-2.4 1.5-4.9 2.1-2.5 2.1-2.5 0-.7-2.6 2.1-3.9 1.6-4.7-2.1-.4-1.6-1.3-4.2-2.1-5.8-6.3-13.4-8.5-21.5-10-36-.4-3.3-1.1-6.8-1.6-7.8-.8-1.4-.5-2.3 1.3-4.2 1.3-1.3 2.3-3.7 2.4-5.5l.2-3.2-2.5 2.6c-1.3 1.4-2.6 2.6-2.8 2.6-1.2 0-3.6-6.4-3.3-8.7.3-3 2.8-4.4 2.8-1.7 0 1.6.1 1.6 2-.1 1.4-1.3 1.7-2.2 1-2.9-.5-.5-1-2-1-3.3 0-1.3-.5-2.3-1.1-2.3-.8 0-1-1.2-.6-3.4.3-2.1 0-4.1-.8-5.2-.7-1-1-2.5-.7-3.4.4-1.2.1-1.1-1.6.3-2.4 2.2-4.6 1.4-3.7-1.3.3-.9.2-2.8-.3-4.1-.5-1.3-.6-4.4-.3-6.9l.6-4.5 1.4 6.7c.7 3.8 1.6 6.8 2 6.8 1-.1 4.3-5.1 3.7-5.7-.3-.3-1.2 0-2.1.7-1.2 1-1.5 1-1.5-.2 0-.8.6-2 1.3-2.7 1-1.1 1-1.4 0-1.8-.7-.3-1.3-1.3-1.3-2.3 0-1-.6-2-1.2-2.2-1-.4-1-1.1 0-3.4l1.2-2.9-2 2.4c-1.5 1.8-2 2-2 .7 0-1.8 2.1-5.6 3.1-5.6.4 0 1.1.6 1.7 1.2zM120 601.1c0 .5-.7.9-1.5.9-.9 0-1.5-.9-1.5-2.1 0-1.8.2-1.9 1.5-.9.8.7 1.5 1.6 1.5 2.1zm22 6.3c5.2 5.4 5.4 5.7 3.7 7.3-1.7 1.7-1.9 1.7-2.9-.2-.7-1.1-2.3-3.2-3.7-4.6-5.7-5.7-9.1-10.1-8.6-11 .8-1.2 4.7 1.7 11.5 8.5zm31.4-4.9c2.1 1.6 9.1 2 10 .7.3-.5 4.4-.8 9-.7 6.8.1 9 .5 10.6 2 1.8 1.7 2.6 1.7 6.3.8 3.1-.9 4.5-.9 5.6 0 .8.7 5.3 1.3 11 1.3 9.3.2 9.6.1 12.2-2.7 1.5-1.6 2.9-2.9 3.2-2.9.3 0 4 5.3 8.3 11.7 4.2 6.5 10.1 14.8 13.1 18.4 2.9 3.6 5.3 7 5.3 7.5s1 2.5 2.3 4.4c3.8 5.7 4.9 10.8 5.7 25 .6 12.6.9 14.2 4.8 24.5 2.3 6 5.1 12.2 6.2 13.7 1.4 1.8 2 4.3 2 7.6 0 6.1 3.2 12.5 10 19.9 2.7 2.9 5.1 6.6 5.5 8.2.3 1.6 1.3 3.5 2.1 4.2.9.7 1.4 3 1.4 6.1 0 2.7.5 5.9 1.1 7 1.7 3.2-.7 13.5-3.3 14.1-2.6.7-7.8-1.1-10.8-3.8-4-3.6-23.1-12.4-28.2-13.1-2.7-.4-4.8-1-4.8-1.3 0-.4-1.4-7.2-3.1-15.1-2.9-14.1-5.9-29.7-5.9-31.3 0-1.3 3.7-.8 4.9.7 1.5 1.8 6.4 3 9.1 2.1 3-.9 2.7-5.3-.5-6.5-2.9-1.1-2.9-1.1-1.3-4.5 1.5-3.3-.3-7.5-3.2-7.5-3.3 0-7.3 4.9-6.6 8.2.4 2.3.2 2.8-1.3 2.8-2.3 0-2.9-3.6-3.6-18.9-.5-12.1-2.2-16-7.3-17.3-4.1-1.1-4.1-3.4-.1-4.3 4-.9 6.2-5.1 3.5-7-1.7-1.3-1.7-1.5.4-4.2 3.1-4.2 1.9-6.3-3.7-6.3-2.4 0-5.3.5-6.5 1.1-2.6 1.4-3.6.3-2-2.1.7-1.1 1.2-2.8 1.2-3.9 0-2.3-5.4-7.1-8-7.1-2.7 0-6 4.7-6 8.7 0 2.7.6 3.7 3 5.1 4 2.3 3.3 3.6-2.4 4.4-6.7.9-7 1.1-10 6.2-4.3 7.3-2.2 8.2 9.5 4.1 4-1.3 7.5-2.2 8-1.9 1.7 1 .9 2.2-1.8 2.9-3.9.9-7.3 4.4-7.3 7.4 0 1.5 1.1 4.3 2.5 6.3s2.5 4.6 2.5 5.6c0 1.1.9 3.1 2 4.5 1.4 1.7 2 4 2 7.2 0 4.2 1.9 14.5 5.1 27 1.8 7.2 5.8 31.9 5.3 32.7-.3.4-1.1.8-1.7.8-.7 0-3 .9-5.2 2s-4.9 2-6.1 2c-1.3 0-3.1 1.1-4.2 2.5-1.8 2.2-2.7 2.5-8.5 2.5h-6.5l-1.6-6.8c-2.3-10.2-3.9-24.7-3.2-28.5.6-3.3 3.1-5.6 4.5-4.1.3.4 0 .9-.6 1.1-2 .7-1.5 2.3.6 2.3 2.4 0 4.5-2.5 3.7-4.6-.5-1.3-1.4-1.5-4.1-1-4.6.9-4.6-1 0-3 4.5-1.9 6.2-5.7 4-9-1.9-2.9-3.5-3-6.8-.4-1.4 1.1-2.8 2-3.1 2-.3 0-.6-3.9-.6-8.8 0-4.8-.8-12.1-1.7-16.2-1.1-5-1.7-12.4-1.7-22.5-.1-12.6-.4-15.5-1.9-17.8-2.1-3.2-5.9-4.4-9.4-2.8-1.4.7-2.8.9-3.2.6-1.2-1.3 2.5-5.9 5.4-6.7 3.5-.9 7.5-4.2 7.5-6.2 0-2.2-2.3-2.5-6.5-.9-7 2.6-8 2.3-7.7-1.9.5-5.1-1.2-7.8-4.8-7.8-3.6 0-5.3 2.7-4.8 7.8l.3 3.7-4.3-.3c-7.4-.6-11.4 3.7-7.5 8 2.1 2.4 4.8 2.3 8.9-.3 2.9-1.7 3.5-1.8 4-.6.3.8-.6 2.6-2 4-2 2-2.6 3.6-2.6 7 0 2.7.6 4.9 1.5 5.7 2.2 1.8 3.6.2 3-3.3-.8-4.3 1-8.9 3.3-8.5.9.2 1.8 1.3 2 2.6.3 2.2 4.2 7.2 5.7 7.2.4 0 .5-.9.2-2.1-.4-1.5 0-2.3 1.4-2.6 1-.3 1.7-.9 1.4-1.3-1.1-1.8 1.6-2 4-.4 3 2 3.2 3.5.5 5.9-1.1 1-2 2.3-2 3 0 .6-1.8 3.5-4 6.5-3.6 4.8-3.8 5.5-2.5 7 1.4 1.5 1.3 2-.6 4.4-1.7 2.1-2 3.6-1.6 6.6.5 3.9-1.3 7.4-2.7 5.1-.8-1.2-1.1-15.5-.3-16.7.7-1.2-3.6-8.7-4.8-8.3-.6.2-.9 1.3-.9 2.4.9 11.3 2.8 26.9 4.3 35 2.4 12.2 4.8 33.3 5.5 47.7l.5 10.8h-2.5c-1.4 0-4.4-1-6.7-2.2-2.8-1.4-6.7-2.3-11.8-2.6-8.6-.5-11.5.5-18.3 6.7-5.3 4.9-13.5 9.6-14.5 8.5-.9-1-2.7-17.2-4.2-37.4-.5-6.9-1.2-15.5-1.7-19.2-.8-6.4-.7-6.8 1.7-9.2l2.5-2.5 2.6 3.1c2.1 2.5 3.1 3 5.2 2.5 3.8-1 4.7-4.6 1.8-6.9-1.2-1-3.1-1.8-4.1-1.8-2.4 0-2.4-1.4 0-3.1 1.3-.9 2.1-2.8 2.3-5.4l.2-4-3.8.2c-5.5.4-6.6 1.7-6.6 7.8 0 3.4-.5 5.7-1.5 6.5-2 1.6-2 1.4-4-15-.9-7.4-2-15.2-2.5-17.3-1.2-5.4 1.4-11.1 8.2-18.2 6.1-6.5 12.3-14 17.8-21.5 3.7-5.1 25.6-25 27.4-25 .6 0 2 .7 3 1.5zm175.6.1c0 .8-.5 1.2-1 .9-.6-.4-.8-1.1-.5-1.6.9-1.4 1.5-1.1 1.5.7zm-53 4.6c0 1.2-.8 1.8-2.5 1.8-1.9 0-2.3-.4-1.8-1.8 1.2-3.2 2.5-4.4 3.4-3 .5.7.9 2.1.9 3zm-5.5-1.1c.7 1.1-2.2 4.9-3.7 4.9-1.2 0-1-3.4.4-4.8 1.5-1.5 2.5-1.5 3.3-.1zM76.1 608l2.4 1.9-2.2.1c-1.2 0-2.7-.9-3.3-2-1.4-2.6.1-2.6 3.1 0zm43.9-1.6c0 .2.3 1.1.6 2 .9 2.3-1.3 2-2.6-.4-.9-1.6-.8-2 .5-2 .8 0 1.5.2 1.5.4zm296 3.2c0 .8-.4 1.2-1 .9-.5-.3-1-1.3-1-2.1s.5-1.2 1-.9c.6.3 1 1.3 1 2.1zm-117.3 2.9c.7 2-.2 2.9-2.1 2.2-.9-.4-1.3-1.3-1-2.2.8-1.9 2.3-1.9 3.1 0zm-193.1 4.6c1 1.7-.9 2.8-3.9 2.2-2.2-.4-2.5-.8-1.6-1.9 1.4-1.7 4.5-1.8 5.5-.3zm319.9 1c-.4.5-1.3.9-2.2.9-1.3 0-1.3-.3-.3-1.5 1.3-1.5 3.5-1.1 2.5.6zm-13.5 1.7c0 1.4-1.1 2.1-2.6 1.5-2.1-.8-1.7-2.3.6-2.3 1.1 0 2 .4 2 .8zm-234 7.7c0 1.4-.4 2.5-1 2.5-.5 0-1-1.1-1-2.5s.5-2.5 1-2.5c.6 0 1 1.1 1 2.5zm163 .5c0 .5-.2 1-.4 1-.3 0-.8-.5-1.1-1-.3-.6-.1-1 .4-1 .6 0 1.1.4 1.1 1zm87.9 2.9c2 2 2.1 2.6 1.1 5.6-1.1 3.4-4 6.8-4 4.7 0-.6.5-1.4 1-1.7 1.1-.7 1.4-5.5.3-5.5-.3 0-1.4.7-2.3 1.5-1.3 1.2-2.3 1.3-4.4.5-3-1.1-5.6-3.3-5.6-4.7 0-3.8 10.2-4.1 13.9-.4zm-62.2.3c-.3.8-.6.5-.6-.6-.1-1.1.2-1.7.5-1.3.3.3.4 1.2.1 1.9zm-259.8 1c.6 1.6.4 3.2-.8 5.1-1.5 2.7-1.5 2.9.5 4.5 1.3 1 2.4 3.4 2.8 5.7.4 2.2.9 5.3 1.2 6.9.6 2.7.4 2.8-2.1 2.4-2.9-.6-4.8 1.8-2.5 3.2 2 1.3-.7 4.2-3.1 3.5-1.1-.4-1.9-.2-1.9.4 0 .6-.7 1.1-1.5 1.1s-1.5.7-1.5 1.5c0 2.1 2.7 1.9 4-.3.8-1.4.9-1.2.4 1.1-.5 2.1-.3 2.7.7 2.5.9-.2 1.4.6 1.3 2.2-.1 1.4.3 2.8.8 3.1.5.3 1.1 3.9 1.3 8 .3 4.1.9 10.8 1.3 14.9.5 4.1.8 9.9.7 12.7-.1 2.9.2 5.3.6 5.3 1.2 0 1.1 3.1-.1 5-1.5 2.4-2.1.7-3.6-10.2-.7-5.7-2.1-13.7-3-18-1-4.6-1.4-8.3-.8-9.5.4-1 .9-2.3.9-2.8.1-.6.5-1.8 1-2.8.9-2.2-1.6-5.2-4.3-5.2-1.3 0-1.9-1.2-2.4-5-.5-2.8-1.4-8.8-2.2-13.5-.8-5.6-1-8.8-.3-9.5.6-.7 1.1-.6 1.4.2 1 2.7 2.2 1.2 1.6-1.9-.6-2.8-.4-3.1 1.6-2.5 1.7.4 2.5-.1 3.7-2.6 1.1-2.5 1.2-2.8.1-1.4-1.3 1.6-1.5 1.6-2.8.1-1.2-1.4-1-2 1.4-4 3.5-3 4.5-3 5.6-.2zm82.1 2.3c-2.7 1.4-3.6 1.3-2.5-.4.3-.6 1.6-1.1 2.8-1.1 2.1.1 2.1.1-.3 1.5zm-22.5 2.5c0 2.2-2.9 1.8-3.3-.3-.3-1.4.1-1.8 1.5-1.5 1 .2 1.8 1 1.8 1.8zm-76.1 3.6c.3.9.6 2.5.6 3.7 0 2.1-.1 2.1-2.6-.5-2.6-2.5-2.6-4.8.1-4.8.7 0 1.6.7 1.9 1.6zm141.1 1.4c0 1.8-.6 2.6-2.2 2.8-2 .3-2.3-.1-2.3-2.8 0-2.7.3-3.1 2.3-2.8 1.6.2 2.2 1 2.2 2.8zm-204.2 2.5c.7 1.6-.8 2.9-2.3 2-1.5-.9-1.2-3.5.4-3.5.8 0 1.6.7 1.9 1.5zm61.1 1.7c2.8 2.4 3.6 3.9 3.6 6.5 0 2.7-.3 3.1-1.7 2.6s-1.3-.2.4 1.3c1.7 1.5 2.4 3.8 3.2 10.3.6 4.6.9 8.7.6 9-.3.2-1.3-.6-2.2-2-2.6-3.7-11.6-13-12.1-12.5-.2.3 3.2 4.5 7.7 9.5l8.2 8.9v5.9c-.1 3.2.2 8.5.5 11.9.5 5.5.2 7.1-4.6 19.4-2.8 7.4-5.5 13.9-6 14.5-1.4 1.7-3.9 9.7-3.4 11 1 2.6-1.2 2.3-4.6-.6-9.8-8.3-11.3-9.3-10.2-7.2.7 1.1 4.1 4.8 7.7 8.1 4.7 4.3 6.5 6.6 6.5 8.4 0 2.2-.5 2.6-4.2 3.1-2.4.3-4.4 1.1-4.7 1.8-.2.7-1.9 2.9-3.8 4.8-1.8 1.9-3.6 4.5-3.9 5.7-.4 1.6-1.5 2.3-4.2 2.7-2.1.2-3.9.3-4.1.1-.2-.2.6-2.7 1.8-5.6 1.1-2.9 2.3-7.7 2.6-10.7.3-3 1-6 1.6-6.8.6-.7 1.3-5.9 1.5-11.5.2-5.7 1.1-13.8 1.9-18.2.8-4.3 1.5-9.5 1.5-11.6 0-2.2.7-6.9 1.6-10.7.9-3.7 1.8-9.1 2-11.8.8-12 1.7-16.3 5-22.6 1.9-3.6 3.4-6.9 3.4-7.3 0-1 4-9.6 4.4-9.6.2 0 2 1.4 4 3.2zm341.3 0c1.5 1.9 2.4 14.7 1.3 16.8-.7 1.3-.6 2 .5 2.4.9.3 1.5 1.8 1.5 3.5 0 2.1-.4 2.9-1.3 2.5-.8-.3-2 .2-2.7 1.1-1.1 1.3-1.1 2.1-.2 3.6 1.8 2.8 1.5 5.1-.5 4.7-2.4-.4-3.2-4.8-1.6-8.2.8-1.5 1.2-3.8.9-5-.3-1.2.1-3.4.9-4.9.7-1.5 1-2.7.4-2.7-.5 0-.9.4-.9 1 0 .5-.9 1-2 1-2.5 0-2.6-1.6-.1-2.9 1-.6 2.4-2.4 2.9-4.1.9-2.5.8-3-.5-3-1 0-1.3-.6-.9-1.6.3-.8.2-1.2-.4-.9-.6.3-2-.1-3.2-.9l-2.2-1.6h2.1c1.2 0 2.5-.5 2.8-1 .8-1.4 2.1-1.3 3.2.2zm15.8 1.7c-.3.6-1.4 1.1-2.3 1.1-1.5-.1-1.5-.2.2-1.5 2.1-1.6 3.2-1.3 2.1.4zm-203.6 4.2c-.8.5-2.4.9-3.7.9-3.3 0-2.2-2.4 1.4-3 3.1-.6 4.5.7 2.3 2.1zm-215.1-.9c1.4 1.4 1.6 5.8.3 5.8-.6 0-1.3-.5-1.6-1-.4-.6-1-.8-1.5-.5-1.4.8-1.8-.8-.9-3.3s1.9-2.8 3.7-1zm322.2 3.7c-1.3 2.5-2.7 3.4-3.4 2.2-.7-1 2-4.1 3.5-4.1.6 0 .6.7-.1 1.9zm98.2.3c-.7.7-1.2.8-1.2.2 0-1.4 1.2-2.6 1.9-1.9.2.3-.1 1.1-.7 1.7zM226.5 657c0 .9-1.7 1.9-4.5 2.6-5 1.2-6.2.3-3.4-2.7 2.1-2.4 7.9-2.3 7.9.1zm11.9-1.1c1.9.7 1.9.8-.2 1.3-1.2.4-2.6 0-3.3-.8-1.3-1.6.2-1.8 3.5-.5zm3.6 4.1c0 .5-.5 1-1.1 1-.5 0-.7-.5-.4-1 .3-.6.8-1 1.1-1 .2 0 .4.4.4 1zm-128.5 14.5c.9 6 2.2 14.6 3 19 1.4 7.8 2 13.7 3 28.2.3 5.8.1 7.3-1 7.3-2.1 0-2.6-1.5-1.5-4.5.7-2 .6-3.4-.6-5.6-.8-1.7-1.2-3.9-.9-5 .4-1.3.2-1.9-.7-1.7-.9.2-1.3-.9-1.4-3.2 0-1.9-.2-5.3-.4-7.5-.3-2.7 0-3.9.8-3.8 1.1.3.5-2.7-.8-3.7-.9-.7-3-13.1-3-17.8 0-2.2-.4-4.3-.9-4.6-.5-.3-.7-1.6-.3-2.8.3-1.4.2-1.9-.6-1.4-1.6 1-1.6-3.6 0-5.2 2.2-2.2 3.6 1 5.3 12.3zm116.5-4.7c0 1.2-3.9 4.6-4.5 4.1-.6-.7 2.4-4.9 3.6-4.9.5 0 .9.4.9.8zm83 4.6c-1.4 1.4-2.4 0-1.6-2.1.6-1.5.8-1.5 1.6-.3.6.9.5 1.9 0 2.4zm-4.2-.2c-.4 2.7-2.8 3.6-2.8 1 0-2 .8-3.2 2.2-3.2.5 0 .8 1 .6 2.2zm-120.6 2.9c-1.5 1.6-2.8 2.5-3 1.9-.5-1.5 3.2-5.8 4.5-5.3.9.3.4 1.5-1.5 3.4zm126.8 2.4c-.3.6-1.2.9-2 .8-.8-.1-1.9.5-2.3 1.3-1.2 2.2-2.9.6-1.7-1.6 1-1.9 7-2.4 6-.5zm-122 1.4c0 .5-.7 1.4-1.5 2.1-1.3 1-1.5.9-1.5-.9 0-1.2.6-2.1 1.5-2.1.8 0 1.5.4 1.5.9zm-4.2 1.8c.2.8-.5 1.3-1.7 1.3s-2.1-.6-2.1-1.6c0-1.8 3.1-1.5 3.8.3zm-57.8 4.7c0 3.7-1 5.6-3.1 5.6-1.4 0-1.9-.7-1.9-2.8 0-3 1.6-5.2 3.7-5.2.7 0 1.3 1.1 1.3 2.4zM437.9 707c-.6 1.1-.8.8-.9-1.3 0-1.5-.4-2.7-.9-2.7-.4 0-.6-2.2-.3-5 .4-4 .1-5.1-1.2-5.6-.9-.3-2.3-.1-3.1.6-2.8 2.3-1.7-2.2 1.2-5.2l2.8-2.9 1.6 10.3c1 6.2 1.3 10.9.8 11.8zm-244.5-17.4c.9 2.4 0 2.9-2.8 1.6-2.1-.9-2.8-.7-5 1.3-1.4 1.3-2.6 3.1-2.6 4 0 1.8 1.2 1.9 2.8.3.8-.8 1.5-.9 2.3-.1.7.7.2 1.5-1.5 2.7-1.5.9-2.6 2.4-2.6 3.2 0 1.4.3 1.4 1.5.4 2.6-2.1 3-.2.6 3-1.2 1.7-1.8 3-1.4 3 .4 0 1.9-1.6 3.2-3.5 2.3-3.5 4.4-4.4 5.6-2.5.3.5.2 1-.4 1-1.2 0-5.1 4-5.1 5.2 0 .5.8.4 1.8-.1 1.3-.7 2.3-.6 3 .1 1.4 1.4 1.6 3.8.2 3.8-.5 0-.7-.8-.4-1.8.5-1.4.3-1.4-1 .2-2.4 3-1.8 7.6 1 7.6 1.2 0 1.2.4.2 2.1-1.1 1.8-1 2.3 1.5 4 3 2.3 3.6 4.9 1.1 4.9-1.1 0-1.4-.6-.9-2.1.5-1.5.4-1.9-.4-1.5-.6.4-1.1 2.3-1.1 4.3 0 2.6.5 3.6 1.9 4 2.1.5 2.1.4-1 6.4-.8 1.7-.7 2.1 1.1 2.6 1.5.4 1.9 1.1 1.5 2.4-.5 1.4-.2 1.7.9 1.3.9-.3 1.6-.1 1.6.5s-1.1 1.1-2.4 1.1c-2.7 0-5.9 3.1-3.8 3.7 1.7.6 1.5 2.3-.5 4.5-1.9 2.1-2.9 12.3-1.3 13.3.6.4 1 2.6 1 5.1 0 4.8.1 4.9 3.1 3.3 1.9-1 2-.9.8 1.3-.7 1.3-1.4 3.8-1.4 5.5-.2 2.7.1 3.1 1.2 2.1 2.4-2 2.6 0 .2 3.3-1.8 2.6-1.9 3.1-.6 2.6 2.4-.9 3.2 1.1 1.1 3.4-3.4 3.7-.2 3.3 3.3-.5 3.4-3.6 3.7-3.7 5-2 1.8 2.5 1.1 4-1.9 3.6-1.9-.2-3.2.6-5.1 3.2-3.4 4.4-3.5 5.7-.2 2.6 2.9-2.7 8.5-3.6 8.5-1.3 0 1-.8 1.3-2.6 1.1-3.6-.4-6.6 3.6-6.9 9.6-.3 4.2-.2 4.5 1.5 3.6 1-.5 2.2-1.9 2.5-3.1.6-1.7 1.2-1.9 3.8-1.3 1.8.3 3.3.7 3.5.9.1.1.3 4.2.5 9.1l.2 8.9-3.3.3c-2.8.3-3.3 0-3-1.4.2-1 1.4-2.1 2.7-2.4 1.4-.3 2.6-1.1 2.9-1.8.6-2-2.7-2.5-5.3-.8-2.2 1.4-2.5 1.5-2.5.1 0-.8-.4-1.5-.9-1.5-1.3 0-2.3 3.2-1.3 4.2 1 1-.7 6.8-2 6.8-.8 0-1.3-3.7-2.8-20.5-.6-6.6-1.7-16.3-2.5-21.5-3.3-21.9-3.7-25.7-4-41.2-.4-19.2-3-44.6-5.1-50.3-.8-2.2-1.5-5.8-1.7-8l-.2-4 6-.6c3.3-.3 6.3-.6 6.6-.7.4-.1 1 .5 1.3 1.4zm45.6 1.9c0 1.7-.2 1.8-2.5.9-1.3-.5-1.4-.8-.3-1.5 1.9-1.3 2.8-1.1 2.8.6zm128 1.1c0 1.6-1.6 1.9-2.5.4-.8-1.3.4-3.2 1.6-2.5.5.4.9 1.3.9 2.1zm-172.1 4c-1.3 1.6-3.5 1.8-4.4.4-.7-1.1 3.5-3.1 4.8-2.3.4.3.3 1.1-.4 1.9zm-176.2.6c-.3.8-.6.5-.6-.6-.1-1.1.2-1.7.5-1.3.3.3.4 1.2.1 1.9zm241.9 3.5c-1.1 1.1-1.9-.6-1.1-2.4.8-1.7.8-1.7 1.2 0 .3 1 .2 2.1-.1 2.4zm-126.1-.7c.3.5.1 1-.4 1-.6 0-1.1-.5-1.1-1 0-.6.2-1 .4-1 .3 0 .8.4 1.1 1zm276.7 4.2c-.9.9-1.2.7-1.2-1.2s.3-2.1 1.2-1.2c.9.9.9 1.5 0 2.4zm21.1 2.3c.4.8.2 1.7-.3 2-.6.4-1-.3-1-1.4 0-2.5.6-2.7 1.3-.6zm7.6 8.6c.6 3.4.8 6.6.5 7-.3.5 0 .9.6.9.7 0 1 1.2.9 2.8-.2 1.5 0 3.3.4 3.9 1 1.7-1.2 5.8-2.4 4.6-1-1-1.5-4.9-2.5-17.6-.8-9.4.9-10.5 2.5-1.6zm-420.1-2.8c.4 2-2.5 3.4-4 1.9s-.1-4.4 1.9-4c1 .2 1.9 1.1 2.1 2.1zm189.2 1.6c0 1-.7 2.4-1.5 3.1-1.2 1-1.6.9-2.1-.4-.3-.9-.4-2.3 0-3.1.8-2.1 3.6-1.9 3.6.4zm164 5.8c0 .7 1.2 3.7 2.7 6.8 3.1 6.4 2.6 10.1-1.9 12.3-2.9 1.4-5.7 7.2-3.4 7.2.8 0 1.6-.7 2-1.5.7-2 4.5-1.9 5.3.1.3.9.1 2.5-.6 3.6-1 1.6-.8 2.4 1.7 5.3 2.4 2.6 3.1 4.6 3.6 9.7.4 3.4 1.2 9.1 1.8 12.6 1 6.2 1 6.4-1.8 9.5-1.6 1.7-1.9 2.4-.8 1.4 2.1-1.8 2.2-1.7 4.3.9 1.1 1.5 2.1 3.2 2.2 3.8.4 8.9 2.5 18.4 5 22.9.9 1.6 1.9 5.8 3.6 13.9.6 3.2-.3 3.5-3.4 1.3-2-1.4-2.3-1.2-5.2 2-1.8 2.1-3.3 3-3.7 2.4-.3-.6 1-2.4 2.9-4 2.8-2.3 3.5-3.5 3.4-6.3-.1-3.9-1.2-3.8-4.6.6-1.8 2.2-2.1 3.2-1.1 3.8.7.5.8 1 .2 1.4-1 .6-2.6-2.7-3.7-7.5-.5-2.2-.1-3.1 2.5-4.9 4-2.9 4.9-1.9 1.6 1.6-3 3.3-2.5 4.8.6 1.7 2.6-2.7 3-6.4 1.3-13.1-.8-2.9-1.5-7.2-1.6-9.5-.2-2.3-.8-5.4-1.4-7-1.1-2.7-1.2-2.7-2.9-.8-1 1.1-1.7 2.8-1.6 3.8.4 3.1 0 4.4-.9 3.9-.5-.3-.9-2.1-.9-3.8 0-1.8-.8-5.3-1.6-7.7-2-5.4-2-6.1-.1-6.1.9 0 2 1.2 2.6 2.7.9 2.4 1.1 2.5 2.5 1.1 1.3-1.2 1.4-2.2.5-5.3-.6-2.1-.8-4.2-.5-4.7.9-1.5-.5-5.8-2-5.8-.7 0-2.1.9-3.1 2s-2.2 1.7-2.6 1.3c-.9-1-3.5-11.3-5.5-21.3-1.7-9.2-1.7-10.1-.1-9.5 1.9.8 3.7-2.9 2.9-6-.7-2.4-.9-2.6-2.1-1.1-1.9 2.3-3.1 2-3.1-.7 0-1.3-.5-2.8-1-3.3-.7-.7 0-2.1 2-4.4 1.6-1.8 3-3.8 3-4.4 0-.6-1.1.1-2.5 1.6-3.7 4.3-4 1.3-.3-3.1 2.9-3.5 3.4-3.7 4.5-2.2.7.9 1.3 2.2 1.3 2.8zm-40.2-2.5c2.4 2.4 1.4 5.7-2.2 7.2-2.1.9-4.5 3.1-6 5.5-3 4.6-3.5 7.1-1.1 5.1.8-.7 1.5-1.8 1.5-2.5s.7-1.8 1.5-2.5c2.2-1.8 4.8.6 4 3.7-.3 1.3.1 3.6.9 5.1.8 1.5 2.9 6.3 4.6 10.7 1.7 4.4 3.8 8.7 4.6 9.6.8.8 1.4 2.1 1.4 2.7 0 1 3 2.5 5.5 2.7 2.6.2 12.5 3.6 13 4.5.3.6 1.5 1 2.6 1s2.2.7 2.5 1.5c.4.8 1.4 1.5 2.4 1.5 1.4 0 2 1.4 2.9 6.7.7 3.8 1.4 7.6 1.7 8.5.7 2.4-1.8 2.3-4-.1-1.3-1.4-1.4-2.4-.7-4.5 1.4-3.5-.1-3.3-2.2.4-1 1.6-2.4 3-3.2 3-1 0-.8-1.4 1.2-5.6 1.4-3 2.3-5.7 2-6-.2-.2-1.6 1.1-3.1 3.1-1.5 1.9-3.4 3.5-4.2 3.5-1.9 0-1.8-3 .2-5.8.9-1.3 1.4-2.6 1.1-2.8-.3-.3-1.7 1.7-3.2 4.5-2.9 5.2-5.5 7.3-5.5 4.3 0-.9.9-3.2 2.1-5.1 1.1-1.8 1.9-4.3 1.7-5.5-.3-1.7-.9-1-3.1 3.2-2.6 4.9-5 7.2-6.3 5.9-.3-.2.4-2 1.5-3.8 2.7-4.4 2.7-5.9.1-3.1-2.1 2.2-5 3-5 1.3 0-.6.5-1.3 1-1.6.6-.3 1-1.3 1-2.1 0-2.1-1.9-.7-3 2.2-1 2.4-3.6 4.2-4.6 3.1-.4-.3.1-1.6 1-2.9 2.5-3.5 2.1-4.9-1-3.7-3.5 1.3-4 .5-2.6-3.4 1.6-4.5 1.5-5.6-.4-3.2-1.6 2-1.6 1.9-.9-.4.7-2.2.5-2.3-1.8-1.7-1.4.3-2.9.2-3.2-.4-.3-.5-.1-1 .4-1 .6 0 1.1-.9 1.1-1.9 0-1.1.5-2.3 1-2.6 1.3-.8 1.3-3.5 0-3.5-.5 0-1.2 1.1-1.6 2.4-.4 1.5-1.5 2.6-3.2 2.9-1.5.3-3.5.9-4.5 1.3-1.6.6-1.7.3-1.1-2.2.4-1.6 1.1-3.3 1.5-3.9 1.4-1.5 1.1-2.2-1.3-2.9-2.2-.6-2.2-.7-.5-2 1-.8 1.7-1.8 1.6-2.2-.1-.5.1-2.2.6-3.7.5-2 .3-3.3-.9-4.6-2-2.2-2.1-4-.2-4.7.8-.3 1.2-1.3.9-2.4-.3-1 0-2.1.6-2.4.6-.4 1.1-1.4 1.1-2.3 0-1.3-.3-1.3-1.5-.3-.9.7-1.8 1-2.1.7-1.2-1.1.6-2.5 4.2-3.1 2.5-.5 4.1-1.6 5.2-3.7 1.9-3.2 2.3-3.4 4-1.7zM18 719c0 .5-.7 1-1.5 1s-1.5-.5-1.5-1c0-.6.7-1 1.5-1s1.5.4 1.5 1zm415.5 0c.3.5.1 1-.4 1-.6 0-1.1-.5-1.1-1 0-.6.2-1 .4-1 .3 0 .8.4 1.1 1zM111 724c-.6 1-1.5 2.2-2 2.5-1.4.9-1.3-2.8.2-4.3 1.7-1.7 3-.4 1.8 1.8zm-93.6 6.4c-.4 3.3-.8 6.4-1 6.8-.7 1.1-6.5.6-6.1-.6.3-.6 1-1 1.7-.8 1.3.3 3-1.5 3-3.1 0-.4-.9-.7-2-.7-2.4 0-2.6-1.3-.5-3 .8-.7 1.5-2 1.5-3 0-2.2.9-3 2.6-2.3 1.2.4 1.3 1.8.8 6.7zM305 726c0 .5-.5 1-1.1 1-.5 0-.7-.5-.4-1 .3-.6.8-1 1.1-1 .2 0 .4.4.4 1zm5 1c-1.1 2-2.2 2.5-3.3 1.4-1.1-1.1.5-3.4 2.4-3.4 1.7 0 1.8.3.9 2zm-198.1.7c-1.1 1.3-1.1 1.7-.1 2 1.6.6 1.5 1.9-.5 5.1l-1.8 2.6-.5-3.4c-.6-3.5 1.3-8 3.2-8 .6 0 .4.7-.3 1.7zm341.2 1.9c-.9 2.8-.9 2.9-1 .3-.1-1.4.2-2.9.6-3.2 1.1-1.2 1.3-.2.4 2.9zm-139.1-.5c0 .5-.7.9-1.5.9-1.5 0-2-1.2-.9-2.3.8-.8 2.4.1 2.4 1.4zM118 733c0 .5-.5 1-1.1 1-.5 0-.7-.5-.4-1 .3-.6.8-1 1.1-1 .2 0 .4.4.4 1zm325.9 3.7c0 1.6.3 4.7.7 7 .4 2.9.2 4.3-.5 4.3-.6 0-1.1-.4-1.1-.9 0-1.8-4.3-2-5.6-.3-1.2 1.5-1.3 1.2-1.4-2.1 0-2 .5-3.7 1-3.7.6 0 2-1.6 3.1-3.5 2.5-4.2 3.8-4.5 3.8-.8zm-331.5 3.2c-.3 1.6-.1 3.2.5 3.5 1.1.7-.1 5.8-1.6 6.3-2.2.8-3.2-9.4-1.1-11.5 1.9-1.9 2.7-1.4 2.2 1.7zM15 742.5c.9 1.1 1 1.9.3 2.6-1.3 1.3-6.3-.9-6.3-2.8 0-1.8 4.5-1.7 6 .2zm458-.5c0 .5-.8 1-1.7 1-1.5 0-1.6-.2-.3-1 1.9-1.2 2-1.2 2 0zm-1.3 3.6c-.3.3-1.2.4-1.9.1-.8-.3-.5-.6.6-.6 1.1-.1 1.7.2 1.3.5zm-213.9 6.1c1.7 7.3 2.5 15.3 1.4 15.3-.5 0-1.3-2.5-1.7-5.5-.3-3-1.1-5.7-1.6-6-1.1-.7-1.2-8.5-.1-8.5.5 0 1.3 2.1 2 4.7zm-136 .4c-.2 1.5-1 2.3-2.5 2.4-1.9.1-2.2-.2-1.7-2.4.6-2.4.4-2.3-1.9.9-1.7 2.4-2.1 3.7-1.3 4.2s.8 1.2 0 2.5c-1.8 3-3.1 2.5-3.7-1.4-.6-3.4-.3-4 2.5-6.3 5.7-4.5 9.3-4.5 8.6.1zm318.6-.5c1.6 1 2.6 1.2 3.1.5 2-3.4 3.1 0 3.9 12.4.3 3.8.8 11.6 1.2 17.1.4 7.1.3 10.3-.5 10.8-.6.4-1.1 1.2-1.1 1.7 0 .6.5.7 1 .4 1.3-.8 1.3 2.1 0 4.5-.8 1.6-.8 1.8.5 1.4 1.9-.8 1.9-.1-.2 3.9-1.5 3-1.5 3.1 0 1.8 1.5-1.2 1.7-1.1 1.7.6 0 2.3-2.6 6.1-3.5 5.2-.3-.4-.7-2.4-.8-4.5-.1-2.2-.6-4.2-1.1-4.6-.6-.4-.5-1.6.2-3.2.8-1.9.8-2.6-.1-2.9-.9-.3-.9-1 .1-2.7.8-1.2.9-1.9.3-1.5-.8.4-1.1-.3-.9-2.2.1-1.5-.3-3.7-1-4.9-1.2-2.2-.7-5.9 1.2-8.4.9-1.3.9-1.3-.5-.2-1.4 1-1.7.9-2.2-.7-.2-1.1.1-3.2.9-4.7 1.8-3.3 1.8-3.7-.1-3-2 .7-1.9-.3.2-2.6 1.2-1.4 1.4-2.3.6-4-1-2.2-1-2.2-2.4.7-.8 1.5-2 3-2.6 3.3-1.8.5-1.6-3.3.2-4.8 2.1-1.8 1.9-4.7-.5-5.3-1.4-.3-2-1.4-2-3.1 0-3 1.1-3.2 4.4-1zm21.3-1c-.3.3-1.2.4-1.9.1-.8-.3-.5-.6.6-.6 1.1-.1 1.7.2 1.3.5zM200 753.5c0 .8-.7 1.5-1.6 1.5-1.4 0-1.4-.3-.4-1.5.7-.8 1.4-1.5 1.6-1.5.2 0 .4.7.4 1.5zm-29.3 4.6c2.3 1.1 5 1.9 6.1 1.9 3.4 0 5 2.3 5.5 8.5.3 3.3 1.5 12.3 2.7 20 2.9 19.2 5.2 38.4 5.7 48.2l.4 8.2-3.3 1.4c-1.8.8-3.9 2.1-4.7 3-.7 1-2.4 1.7-3.8 1.7-1.3 0-3.4.7-4.7 1.5-2.4 1.6-3.2 1.6-11.8-.4-3.2-.7-6.7-.8-11-.1-3.5.5-8.1 1.1-10.3 1.2-3.8.3-4 .1-4.2-2.7-.2-1.7-.7-7.5-1.3-13-.5-5.5-1.9-19.4-3.1-31-1.1-11.5-2.3-21.3-2.6-21.7-.2-.5.2-1 .9-1.2 14.5-4.1 20.7-6.6 20.8-8.4 0-.6-.6-1.2-1.3-1.2-2.2 0-12.1 3.1-13.1 4.1-1.5 1.3-6.6 1.1-7.1-.4-.2-.6-.6-2.5-.7-4.1-.3-2.6.1-2.9 4.5-4.1 2.7-.7 6.3-2.6 8-4.2 11.1-10.4 17.6-12 28.4-7.2zm-88.1-1c.3.6 1.5.9 2.5.6 3.1-.8 2.2.1-2.3 2.3-5 2.4-6.7 2.5-7.4.5-1.3-3.3 5.3-6.4 7.2-3.4zm39.8 5c-.7 1.1-4.4 1.2-4.4.1 0-.4.5-1.3 1.2-2 1.3-1.3 4.2.4 3.2 1.9zm74.6-2.2c0 1.2-2 2.5-2.7 1.8-.7-.7.6-2.7 1.8-2.7.5 0 .9.4.9.9zm3 1.1c0 .5-.9 1.4-2 2-2.2 1.2-2.7.1-.8-1.8 1.4-1.4 2.8-1.6 2.8-.2zm124.8.2c-.2.6-1 1.4-1.6 1.6-.7.2-1-.2-.6-1.2.7-1.8 2.8-2.2 2.2-.4zm137.2.9c0 1.1-2.7 1.2-3.4 0-.3-.4-.3-1.1 0-1.4.8-.8 3.4.3 3.4 1.4zm-409.6.7c.2.4.1 1.4-.4 2.2-.7 1.1-1.2 1.2-2.1.3-.6-.6-.8-1.6-.5-2.2.8-1.3 2.3-1.4 3-.3zm62.1 3.4c-.6 1.7-.4 2 .9 1.5 2-.8 2 .7 0 3.8-2.2 3.4-3.2 2.4-3.2-3 0-3.3.4-4.5 1.5-4.5 1 0 1.2.6.8 2.2zm-43.4 5l.1 5.3 1-4.8c1.1-5 3.6-6.2 3-1.4-.2 1.5.1 2.7.7 2.7s1.1-1.1 1.1-2.5c0-3.6 1.8-3.1 2.9.7.8 3 .9 3.1 1 .7.1-3.5 1.1-4.2 3.3-2.2 4.3 3.9 1.5 6.9-9.5 10.3-5.2 1.6-7.8 3.1-10.8 6.3-3.3 3.3-4.2 3.8-5 2.6-.5-.8-.9-1.9-.9-2.6 0-1.9 2.1-2.7 3.1-1.2 1.1 1.8 1.7-.1 2.1-6 .4-5.7 2.8-6.9 2.9-1.4.1 5.3 1.6 1.7 2.4-6 .8-7.1 2.5-7.5 2.6-.5zm417.5-3.8c1.4 1.1 1.6 1.8.8 2.6-.9.8-3.8.9-10.8.2-10-1-11.2-1.3-10.1-3.1 1-1.7 17.7-1.4 20.1.3zm-156.6 1c0 1.6-2.6 4.6-4 4.6-.5 0-.4-1.4.1-3 1.1-3 3.9-4.2 3.9-1.6zm-130 1.8c0 2-.1 2.1-1.3.4-1.2-1.6-1.4-1.6-2.6-.2-.8.9-1.8 1.6-2.4 1.6-.5 0-.2-.9.8-2 2.5-2.7 5.5-2.6 5.5.2zM58 773c0 .5-.4 1-1 1-.5 0-1-.5-1-1 0-.6.5-1 1-1 .6 0 1 .4 1 1zm277 1.1c0 1.7-2 4.9-3 4.9-1.4 0-1.2-3.4.2-4.8 1.5-1.5 2.8-1.5 2.8-.1zm-72.4 16.1c.6 6.9.5 7.8-1 7.8-1.2 0-1.5-.6-1-2.5s.2-2.5-1.1-2.5c-1.5 0-1.5-.3-.5-1.5s1-3 .1-8.6c-.6-3.9-.8-7.5-.5-8.1 1.1-1.7 3.3 6.8 4 15.4zm-256.1-13c3.5 1.6 3.4 4.2-.2 3.3-3.4-.8-4.7-2-3.9-3.4.9-1.4.9-1.4 4.1.1zm45.8.5c3 .6 4.1 1.8 3.2 3.2-.6 1.1-9.5-2.9-9.5-4.3 0-.4.8-.5 1.8-.1.9.3 2.9.9 4.5 1.2zm151.1.8c.9 1.3 1.6 2.7 1.6 3 0 1.1-2.9.4-3.3-.8-.3-.9-.8-.9-2.1.2-2.4 2-3 .7-1.1-2.3 2.1-3.2 2.8-3.2 4.9-.1zm235.6 1.2c0 2.6-.3 3.4-1.1 2.6-.9-.9-.3-6.3.7-6.3.2 0 .4 1.7.4 3.7zm-95-.4c0 1.4-2 3.7-3.2 3.7-1.2 0-1-2.4.4-3.8 1.6-1.6 2.8-1.5 2.8.1zm-6 1.7c0 .5-.7 1-1.6 1-.8 0-1.2-.5-.9-1 .3-.6 1-1 1.6-1 .5 0 .9.4.9 1zm-295.8 8.3c-.3 4.4 0 6.7.7 6.7.6 0 1.1-2 1.1-4.8 0-5.7.9-9.2 2.3-9.2.6 0 .8 2.2.4 6-.4 3.3-.3 6 .2 6 1.3 0 2.1-2.6 2.1-6.7 0-5 2.4-3.7 3.1 1.8.5 3.8.9 3.6 1.3-.8.1-.7.6-1.7 1.2-2.3.8-.8 1.3-.2 1.8 2.2.7 3.5-1.8 8.3-4.5 8.3-.8.1-3.5.7-6.1 1.4-7 2-7.8 1.3-7.2-5.6.6-8.1 1.3-10.5 2.7-10 .8.3 1.1 2.5.9 7zM7.8 784c1.2 0 1.7 3.2.6 4.3-.3.3-1.9.1-3.5-.5-3.7-1.3-4.3-5.4-.6-4.4 1.2.3 2.8.6 3.5.6zm339.2-.1c0 1.3-2.6 3.2-3.3 2.4-.8-.7 1.1-3.3 2.4-3.3.5 0 .9.4.9.9zm12.5 0c.6 1.1-2.9 3.3-3.9 2.4-.7-.7 1.2-3.3 2.5-3.3.4 0 1 .4 1.4.9zM37.1 792c-.3 7.7-.6 9-2.2 9-1 0-1.2-4.3-.2-11.8.9-7.9 2.7-5.9 2.4 2.8zm167.6-4.3c.5 1.4-3.3 2.7-4.8 1.7-.9-.5-.6-1.1.7-2.1 2-1.4 3.6-1.3 4.1.4zm-172.2 7c-.8 9.5-2 11.1-6.3 8.9-4.4-2.3-4.7-3.3-2-7.1 3-4.6 4.1-4.4 3.3.5-.4 2.3-.3 4 .3 4 .5 0 1.2-2.7 1.6-6.1.6-6.5 1.1-7.9 2.8-7.9.7 0 .8 2.5.3 7.7zm407.6-1.4c0 2.9.4 7.4.8 10 .4 2.6.5 5 .1 5.2-.4.3-1-2.3-1.4-5.8-.4-3.4-1-8.4-1.3-11.1-.4-3.6-.3-4.7.6-4.2.6.4 1.1 3.1 1.2 5.9zM5.8 790.6c2.1.6 3.1 3.8 1.5 4.7-1.7 1-5.3-1.3-5.3-3.3 0-2.2.3-2.3 3.8-1.4zm327.1 3.9c4.5.9 8.7 1.2 9.4.8 1.4-.9 2-1 14.7-1.3 9.5-.3 16.6.6 17.5 2 .2.4.6 2.7.9 5.1.2 2.4.5 4.8.6 5.4.5 2.2-.1 2.5-3 1-1.7-.9-5.5-1.5-9.1-1.5-4.3 0-6.8-.5-8-1.6-2.7-2.5-24.3-3.3-28.6-1-4.6 2.3-17.3 1.8-17.3-.8 0-.7-1.4-1.6-3.2-2.1-7.6-2.3-3.1-5.3 9.7-6.5 4.4-.4 8.1-.8 8.1-.9.1 0 3.8.6 8.3 1.4zM128 800.8c0 1.3-.3 1.2-1.5-.4-1.9-2.5-1.9-4 0-2.4.8.7 1.5 2 1.5 2.8zM7.2 798.5c.4.4-.1 5.6-2.8 25.2-.9 6.8-2.4 5-2.4-3 0-13.6.1-15.1 1.3-15.9.9-.5.7-1.1-.6-2C.3 801 1.5 798 4.4 798c1.3 0 2.5.2 2.8.5zm257.8 8.7c0 1.6-.4 2.8-.9 2.8-1.1 0-2.1-3.6-2.1-7.5l.1-3 1.4 2.5c.8 1.4 1.4 3.7 1.5 5.2zm116.9 2.5c-1.8 2.1-2.9-.2-2.8-5.7v-4.5l2 4.4c1.5 3.4 1.7 4.7.8 5.8zM350 806c0 .5-.4 1-1 1-.5 0-1-.5-1-1 0-.6.5-1 1-1 .6 0 1 .4 1 1zm-145.7 1.4c1.6 1.3 1.6 1.4-.5 1.9-2.5.7-4.4-.5-3.4-2.2.9-1.4 1.7-1.3 3.9.3zM266 813c0 1.1-.4 2-1 2-.5 0-1-.9-1-2s.5-2 1-2c.6 0 1 .9 1 2zm183.8 2c-.2 1.6 0 3.1.6 3.3 1.1.4.8 1.3-2.7 10-.9 2.2-.9 3 .2 3.6 1 .7 1.1 1.2 0 2.9-1.1 1.8-1 2.4.4 4 1 1.1 1.5 2.6 1.1 3.6-.7 1.9-.6 1.9-3.9.4-2.4-1.1-2.5-1.5-2.5-9.3 0-4.5.6-10.3 1.4-12.8 1.2-4.1 1.2-4.6-.2-5.2-1.4-.5-1.4-.7-.2-1.5.9-.5 1.7-.5 2.1.1.3.6 1.1.4 1.9-.6 1.8-2.2 2.3-1.9 1.8 1.5zm-66.3 0c-1 1.1-2 1.8-2.3 1.5-.7-.6 1.8-3.5 3.1-3.5.5 0 .2.9-.8 2zM73 816c0 .5-.5 1-1.1 1-.5 0-.7-.5-.4-1 .3-.6.8-1 1.1-1 .2 0 .4.4.4 1zm50.7 7.2c-.3.8-.6.5-.6-.6-.1-1.1.2-1.7.5-1.3.3.3.4 1.2.1 1.9zm5.3 3.3c0 3.1-1.9 5.5-4.4 5.5-1.3 0-.5-4.3 1.2-6.5 2.4-3.3 3.2-3.1 3.2 1zm323 0c0 .8-.4 1.5-1 1.5-.5 0-1-.7-1-1.5s.5-1.5 1-1.5c.6 0 1 .7 1 1.5zm-178.6 15.8c-.6 2.7-2.8 4.6-4.1 3.4-.3-.4-.2-1.4.2-2.4.5-1 .8-4.3.7-7.3l-.1-5.5 2 4.4c1.3 2.9 1.8 5.5 1.3 7.4zm148.1-6.3c.8 1.3-.5 1.3-2.5 0-1.3-.8-1.3-1 .2-1 .9 0 2 .4 2.3 1zm-212 2c0 1-1.2 1.6-3.7 1.8-3.9.3-4.7-.5-2.6-2.6 1.7-1.7 6.3-1.1 6.3.8zm180.5-.1c0 .4-.6 1.3-1.2 2.1-1.1 1.2-1 1.2.4.1 2.3-1.7 8.7-3.1 9.3-2 .3.4-1.1 1.9-3.2 3.2-2.1 1.3-4.5 3.2-5.2 4.1-1.4 1.6-1.5 1.6-2.7-.6-.8-1.3-1.3-3.7-1.4-5.5 0-2.6.3-3 2-2.6 1.1.3 2 .8 2 1.2zm9 5.6c0 .9-.9 1.5-2.1 1.5-1.8 0-1.9-.2-.9-1.5.7-.8 1.6-1.5 2.1-1.5s.9.7.9 1.5zm-7.4 6.2c-2.1 2.1-2.6 2.3-2.6.8 0-1.9 4.3-5.9 4.8-4.4.2.5-.8 2.1-2.2 3.6zm9.4-.7c0 1.3-.5 1.8-1.5 1.4-1.6-.7-1.9-1.7-.8-2.7 1.2-1.3 2.3-.7 2.3 1.3zm-209.6 2.2c.3 1.3.6 4.2.6 6.5 0 3.8-.2 4.2-3.1 4.8-1.7.4-2.8.9-2.5 1.3 1.2 1.1-2.8 4.2-5.5 4.2-1.5 0-3.1.5-3.5 1.1-.8 1.4-12.5.5-15.2-1-1.2-.8.4-1.1 6.3-1.1 4.4-.1 9.6-.8 11.5-1.6l3.5-1.4-3.5.6c-5.9 1.1-23.5.7-25.7-.5-1.2-.6-2.3-2.3-2.5-3.8-.2-2.3-.8-2.9-3.5-3.1-1.8-.2-3.3-.7-3.3-1.3 0-1.7 12.8-1.6 21.8.2 4.3.9 6.1.8 9.3-.5 2.2-.9 5.3-1.6 6.9-1.6 2 0 3.5-.8 4.6-2.5 2-3.1 3-3.2 3.8-.3zm19.7.9c.8 1.6.8 2.4 0 3.2-1.4 1.4-3.1-.6-3.1-3.6 0-2.3 1.7-2.2 3.1.4zm-66 7.9c1 .6 1.9 1.7 1.9 2.5 0 2.1 4 4.5 7.4 4.5 5.9 0 1.1 1.9-6.6 2.6l-7.8.7v-2.5c0-1.4-.3-4-.6-5.7-.6-2.7-.4-3.1 1.5-3.1 1.2 0 3.1.5 4.2 1zm258.7.8c.2.7-.7 1.2-2.3 1.2-2.4 0-2.6-.2-1.5-1.5 1.4-1.7 3.1-1.6 3.8.3zM212 861.9c0 1 .3 3.3.6 5 .4 2 .3 3.1-.5 3.1-1.4 0-3.1-4.1-2.3-5.5.4-.6.5-1.8.4-2.8-.2-.9.2-1.7.7-1.7.6 0 1.1.8 1.1 1.9zm193.7 3.6c.7 2 0 2.7-2 1.9-.9-.3-1.3-1.2-1-2 .7-1.9 2.2-1.8 3 .1zm1.3 6.5c0 .5-.9 1-2.1 1-1.1 0-1.7-.5-1.4-1 .3-.6 1.3-1 2.1-1s1.4.4 1.4 1z"/><path d="M157.2 385.7c-1.7.7-5.4 8.1-4.7 9.3 1.4 2.3 4.5.8 7.5-3.5 3.8-5.5 2.6-8-2.8-5.8zM120.2 287.6c.4 2 3.4 4.1 4.5 3.1 1-1.1-1.1-4.1-3.1-4.5-1.2-.3-1.7.2-1.4 1.4zM114.4 294.1c-1 1.7.7 2.6 6.3 3.3 6.3.8 7.9-.8 2.9-2.9-4.2-1.8-8.2-1.9-9.2-.4zM265 301.9c0 .6.9 1.6 2.1 2.4l2.1 1.5-2.1.7c-1.6.5-2.1 1.5-2.1 4 0 2.7.4 3.4 2.7 4 3.1.7 5.6-1.6 4.6-4.3-.6-1.5-.3-1.4 1.5.1 2.1 2 4.2 1.6 4.2-.7s-7.8-8.6-10.5-8.6c-1.4 0-2.5.4-2.5.9zM286.3 312.7c-1.2 1-3.6 4.8-5.2 8.5-1.7 3.6-3.6 6.8-4.3 7-.7.3-2-.5-3-1.6-1.3-1.7-1.9-1.8-2.9-.9-1 1-.9 1.5.1 2.8.7.8 1.7 1.5 2.3 1.5.6 0 1.9.8 2.9 1.7 1.9 1.7 2 1.6 3.8-.7 1.1-1.4 2.7-4.2 3.6-6.2l1.7-3.7 3 1.5c2.6 1.4 3.1 1.4 4.5.1 1.1-1.2 1.2-2.2.4-4.5l-1-3 3 1c2.1.7 3.3.7 4.1-.1.8-.8.1-1.4-2.4-2.5-6.1-2.5-8.3-2.7-10.6-.9zm3.5 5.4c-.2.6-.8 1-1.3 1s-1.1-.4-1.3-1c-.2-.6.4-1.1 1.3-1.1s1.5.5 1.3 1.1zM264.3 331.7c-2.7.5-4.9 3.1-3.7 4.3 2.4 2.2 10.8 6.1 12.7 5.8 1.8-.2 2.2-1 2.2-3.7 0-2.8-.6-3.8-3-5.2-3-1.8-4.3-2-8.2-1.2zM201.1 314.4c-2.1 2.1-2.9 3.8-2.5 4.9.9 2.3 1.3 2.2 4.6-1.5 4.9-5.6 3.1-8.7-2.1-3.4zM179.4 389.8c-3.9 3.1-7.5 11.9-8.9 21.7-.7 5-1.9 10.4-2.7 12.1-1.5 2.9-4.7 17.6-4.6 20.4.1.9-.2 2.7-.5 4.2-.4 1.6-.3 3 .4 3.4 2.8 1.7 6.5-7.1 8.4-20.1 1.7-11.3 5.6-25 9.6-33.8 3.9-8.6 3.2-11.9-1.7-7.9zM266.1 441.4c-.7.8-1.9 6.1-2.7 11.8-.9 5.8-2.6 12.7-4 15.7-2.7 6-3 8.1-1.1 8.1 2.4 0 5.7-9 9.4-26 1.9-8.8 2-10.2.7-10.7-.6-.2-1.6.3-2.3 1.1zM235.4 475.8c-.6.4-2.8 3.8-4.9 7.7-5.9 10.6-12.3 16.9-20.6 20.1-7.1 2.8-10.6 5.5-9.4 7.3.9 1.6 3.3 1.4 9.4-.9 9.6-3.5 19.6-11.6 24.2-19.6 1.7-3 3.9-6 5-6.8 1.7-1.1 1.9-2 1.4-5-.7-3.5-2.5-4.6-5.1-2.8zM258.7 478.8c-1 1-1.7 2.4-1.7 3.1 0 .8-.6 1.1-1.5.7-2.9-1.1-4.6.8-9.2 10.3-5.9 12.3-8.7 16.6-11.8 18.7-2.4 1.6-2.7 1.6-4.6-.2-1.9-1.7-2.3-1.7-4.7-.3-1.8 1-2.8 2.5-3 4.4-.3 2.4-1.2 3.4-4.5 5-4.4 2.1-5.5 4.7-2.4 5.3 1 .2 2.9-.3 4.2-1.2 1.3-.9 3.4-1.6 4.5-1.6 1.2 0 3.2-1.1 4.5-2.4 1.2-1.3 3.8-3.3 5.7-4.4 5.1-3.1 11-10.7 15.8-20.1 2.3-4.5 4.4-8.1 4.6-7.8 1 1-4.1 13.1-7.2 16.9-3.8 4.9-4.3 6.8-1.5 6.8 2.4 0 8.4-6.6 11.5-12.7 3-6.1 6.9-19.1 6.2-20.9-.7-1.9-3-1.8-4.9.4z"/><path d="M233.2 499.2c-.7.7-1.2 2.3-1.2 3.6 0 3.8 3.4 2.4 3.8-1.6.3-3.3-.6-4-2.6-2zM210.5 556.1c-2.7 3.3-2.8 5.2-.3 5.7 2 .4 6.2-5.3 5.4-7.3-.8-2.3-2.2-1.8-5.1 1.6zM86.2 565.5c-.6 1.4-1 2.5-.7 2.5.7 0 3.5-3.2 3.5-4.1 0-1.8-1.7-.9-2.8 1.6zM94.1 582c-.1 2-.6 4.1-1.2 4.7-.8.8-.5 2.5 1.2 6.2 2 4.6 2.4 5 3.8 3.7 1.3-1.4 1.3-1.8-.3-3.4-1.5-1.7-1.5-2-.1-2.5 1.9-.8 1.9-3.1 0-4.7-.8-.7-1.9-2.7-2.4-4.4l-.9-3.1-.1 3.5zM89.8 586.5c-1 1.3-1.8 3-1.8 3.7 0 .7 1-.2 2.1-2 2.5-3.8 2.2-5.1-.3-1.7zM97.6 606.7c-.6 1.4-.5 1.5.5.6.7-.7 1-1.5.7-1.8-.3-.3-.9.2-1.2 1.2zM408.3 572.5c-1.5 1.3-2.3 2.5-1.7 2.5.6 0 2.1-1.1 3.4-2.5 3-3.2 1.9-3.2-1.7 0zM119.9 626.4c1.4 1.4 2.6 2.4 2.9 2.2.7-.8-.8-2.5-3.1-3.7-2.1-1.1-2.1-1 .2 1.5zM127.2 625.6c1 1 2 1.5 2.4 1.2.3-.4-.5-1.2-1.8-1.8-2.2-1.2-2.2-1.2-.6.6zM114 626.3c0 .2 1.5 1.6 3.3 3.3l3.2 2.9-2.9-3.3c-2.8-3-3.6-3.7-3.6-2.9zM433.9 604c-1.7 1.6-2.7 3.5-2.3 4.1.4.7 1.9-.2 4-2.5 1.9-2.1 3.4-3.9 3.4-4.2 0-1.3-2.5 0-5.1 2.6zM263.1 602.4c-.7.8-.8 1.7-.3 2 .6.3 1.5-.1 2.1-.8.7-.8.8-1.7.3-2-.6-.3-1.5.1-2.1.8zM268.4 601.9c-1 1-.3 2.3 1.1 1.8 1.7-.7 3 1.1 2.7 3.8-.1 1.5.1 1.4.9-.5.5-1.3 1.7-3.3 2.6-4.2 1.5-1.7 1.3-1.8-2.6-1.5-2.3.1-4.4.4-4.7.6zM256 603.6c0 .8.5 1.2 1 .9.6-.3 1-1 1-1.6 0-.5-.4-.9-1-.9-.5 0-1 .7-1 1.6zM261.4 607.4c-.3.8-.4 2.3-.2 3.2.2 1.4.6 1.2 1.5-.9.8-1.6.9-2.9.3-3.2-.6-.4-1.3.1-1.6.9zM255.7 607.7c-.4.3-.7 1.1-.7 1.7 0 .6.5.5 1.2-.2.6-.6.9-1.4.7-1.7-.3-.3-.9-.2-1.2.2zM266 609c0 1.1.2 2 .4 2s.6-.9.9-2c.3-1.1.1-2-.4-2s-.9.9-.9 2zM288 626.9c0 1.7 1.8 2.1 2.4.6.3-.9 0-1.5-.9-1.5-.8 0-1.5.4-1.5.9zM293.1 633.6c0 1.1.3 1.4.6.6.3-.7.2-1.6-.1-1.9-.3-.4-.6.2-.5 1.3zM290.6 639.6c-1 2.5.1 2.9 1.4.5.6-1.2.7-2.1.1-2.1-.5 0-1.2.7-1.5 1.6zM288 646.9c-1.2 2.4-1.3 3.4-.1 2.7.9-.6 2.2-4.6 1.5-4.6-.2 0-.8.9-1.4 1.9zM302.7 647.7c-.4.3-.7 1.1-.7 1.7 0 .6.5.5 1.2-.2.6-.6.9-1.4.7-1.7-.3-.3-.9-.2-1.2.2zM285.6 653.5c-.9 2.6-.7 3.2.5 1.2.6-1 .9-2.1.6-2.3-.2-.3-.7.2-1.1 1.1zM305.5 653.9c-1.2 1.5-2.2 1.8-2.9 1.1-1.4-1.4-2.6-1.2-2.6.5 0 .9.9 1.5 2.1 1.5 1.8 0 2 .4 1.4 3.2-.6 2.6-.5 3 1 2.5.9-.4 1.9-.7 2.2-.7.3 0 0-.7-.7-1.5-1-1.2-.9-2 .4-4.1 2.2-3.3 1.6-5.1-.9-2.5zM292 662.1c0 .5.5.7 1 .4.6-.3 1-.8 1-1.1 0-.2-.4-.4-1-.4-.5 0-1 .5-1 1.1zM290.6 667.5c-.3.8-.1 1.5.4 1.5.6 0 1-.7 1-1.5s-.2-1.5-.4-1.5-.6.7-1 1.5zM301.1 667.6c0 1.1.3 1.4.6.6.3-.7.2-1.6-.1-1.9-.3-.4-.6.2-.5 1.3zM289.1 674.6c0 1.1.3 1.4.6.6.3-.7.2-1.6-.1-1.9-.3-.4-.6.2-.5 1.3zM292.1 680.6c0 1.1.3 1.4.6.6.3-.7.2-1.6-.1-1.9-.3-.4-.6.2-.5 1.3zM303.6 690.6c-.8 2.1-.8 2.4.3 2.4.5 0 1.1-.9 1.4-2 .6-2.4-.8-2.7-1.7-.4zM306.7 696.6c-.4.4-.7 1.7-.7 2.8.1 1.9.1 2 1.1.3 1.1-1.9.8-4.3-.4-3.1zM301.7 697.7c-.4.3-.7 1.3-.7 2.2.1 1.3.3 1.3 1.1-.2 1.1-1.9.8-3.3-.4-2zM310.1 698.6c0 1.1.3 1.4.6.6.3-.7.2-1.6-.1-1.9-.3-.4-.6.2-.5 1.3zM313.7 705.4c-.4 1-.7 3-.6 4.4.1 2.5.1 2.5 1-.6 1.1-3.7.7-6.7-.4-3.8zM347 646.5c-.7.9-1.1 1.8-.8 2 .3.3 1.1-.1 1.8-1s1.1-1.8.8-2c-.3-.3-1.1.1-1.8 1zM351.1 665.2c-1.4 2.3-1.4 2.3.8.4 2.2-2 2.5-2.6 1.3-2.6-.4 0-1.3 1-2.1 2.2zM352.2 668.4c-1.9 2-2.1 3.1-1.6 6.5.4 2.3 1 4.1 1.5 4.1s.9.7.9 1.5c0 2.3 1.5 1.8 2.8-1 .7-1.4 1.7-3.6 2.4-5 1.4-3 .1-7.8-2.2-8.2-.8-.2-2.5.8-3.8 2.1zM357.3 683.6c-2 2.1-1.6 4.2.3 2.2.9-.9 1.5-2.1 1.3-2.6-.2-.6-.9-.4-1.6.4zM364.2 708.2c-1.4 1.4-1.6 2.8-.3 2.8.9 0 2.4-3 1.8-3.6-.2-.2-.9.2-1.5.8zM175.5 651c-.7 1.2.2 3 1.6 3 1.2 0 1.2-2.7 0-3.5-.5-.3-1.2-.1-1.6.5zM177.5 657.1c-.3.9-.3 2.4.1 3.3.6 1.5.8 1.5 2.4.1.9-.8 2.8-1.4 4.1-1.3 1.8.2 2.5-.2 2.7-1.7.2-1.8-.3-2.1-4.3-2.1-3.3 0-4.6.4-5 1.7zM181.5 662.1c-.4.6-.5 1.2-.2 1.5.2.3.7-.2 1-1.1.7-1.7.1-2-.8-.4zM99.6 645.1c-2.7 3.2-3.3 5.4-1.6 6.4.6.3.8 1.6.5 2.8-.4 1.6.1 2.6 1.6 3.5 1.9 1.2 2.4 1 5-2 3.4-4 3.6-5.7.9-9.1-1.1-1.4-2-3-2-3.6 0-2-1.8-1.2-4.4 2zM86.5 653c.3.5.8 1 1.1 1 .2 0 .4-.5.4-1 0-.6-.5-1-1.1-1-.5 0-.7.4-.4 1zM79.6 669.2c1.5 2 3 3.5 3.3 3.2.3-.2-1-1.9-2.8-3.7l-3.4-3.2 2.9 3.7zM86 689.4c0 .2.8 1 1.8 1.7 1.5 1.3 1.6 1.2.3-.4s-2.1-2.1-2.1-1.3zM72 691.4c0 .2.8 1 1.8 1.7 1.5 1.3 1.6 1.2.3-.4s-2.1-2.1-2.1-1.3zM87 705.5c1.9 1.9 3.8 3.5 4.4 3.5.5 0-.5-1.6-2.4-3.5s-3.8-3.5-4.4-3.5c-.5 0 .5 1.6 2.4 3.5zM82 707.5c.1 1.4 7.9 10.2 8 8.9 0-.6-1.8-3.1-4-5.5s-4-3.9-4-3.4zM79.5 714.9c2.1 2.2 4.1 4.1 4.3 4.1.8 0-4.4-5.8-6.3-7-1.1-.7-.2.6 2 2.9zM74.5 734c3.2 3.3 6.1 5.7 6.4 5.4.6-.6-10-11.4-11.3-11.4-.6 0 1.6 2.7 4.9 6zM64 752.9c0 .5.7 1.2 1.6 1.5 1.4.5 1.5.4.4-.9-1.4-1.7-2-1.9-2-.6zM187.1 718.6c0 1.1.3 1.4.6.6.3-.7.2-1.6-.1-1.9-.3-.4-.6.2-.5 1.3zM191.2 745c0 1.4.2 1.9.5 1.2.2-.6.2-1.8 0-2.5-.3-.6-.5-.1-.5 1.3zM199.2 818.3c-1.2 1.3-2.2 3-2.2 3.8.1.9.7.6 2-1 1.3-1.5 2.6-2.1 3.6-1.7 1.9.7 4.7-1.2 3.8-2.5-1-1.7-5.1-.9-7.2 1.4zM368 728.5c-.8.9-.8 1.5-.2 1.5 1.2 0 2.6-1.9 1.9-2.6-.2-.2-1 .2-1.7 1.1zM372.7 752.4c-1 1.5-1.6 3-1.3 3.4 1.1 1 3.8-2.5 3.4-4.4-.3-1.5-.6-1.4-2.1 1zM374.7 756.8c-1.7 1.8-2.3 4.2-1.1 4.2.8 0 4.3-4.3 4.4-5.3 0-1.3-1.7-.7-3.3 1.1zM377 760.5c-.7.9-1.4 3-1.6 4.8l-.2 3.2 2.4-2.8c2.5-2.9 3-5.2 1.5-6.1-.5-.3-1.4.1-2.1.9zM322.5 745.1c-1.1 1.7.1 2.1 1.5.4.8-.9.8-1.5.2-1.5-.6 0-1.4.5-1.7 1.1zM324.6 752.6c-.4.9-.4 1.9-.1 2.2.2.3.7-.3 1.1-1.2.4-.9.4-1.9.1-2.2-.2-.3-.7.3-1.1 1.2zM153.5 759.5c-2.5.8-6 3.5-9.3 7.1-4.7 5.1-6.2 6-10.9 6.3-.7.1-1.3.8-1.3 1.6 0 1.5 1 1.9 4.5 1.6 5.4-.5 8.3-2.3 11.4-7.1 2.6-4 4-5.2 7.4-6.1 5.3-1.4 7-2.2 6.9-3.4-.2-1.6-4.4-1.6-8.7 0zM75.1 775.6c0 1.1.3 1.4.6.6.3-.7.2-1.6-.1-1.9-.3-.4-.6.2-.5 1.3zM308.4 417.1c-2.6 4.2-2.6 7.3 0 6.3 2.1-.8 6.9-8.1 6.1-9.3-1.3-2.1-3.5-1-6.1 3zM13.1 679.6c0 1.1.3 1.4.6.6.3-.7.2-1.6-.1-1.9-.3-.4-.6.2-.5 1.3zM12 685.6c0 .8.5 1.2 1 .9.6-.4.8-1.1.5-1.6-.9-1.4-1.5-1.1-1.5.7zM10.7 690.9c-.5 2.2.1 3.3 1.4 2.5 1.2-.7 1.2-4.4 0-4.4-.5 0-1.1.9-1.4 1.9zM243 697.5c-.7.9-1.9 1.4-2.6 1.1-.7-.3-1.6-.1-1.9.4-.4.6-.1 1 .6 1 1.1 0 1 1-.6 5.5-.4 1.2 0 .9 1.1-.8 1.9-2.7 3.4-3.5 3.4-1.8 0 .6-.4 1.3-1 1.6-1.2.8-1.3 4.5-.1 4.5 2.4 0 3.5-3.9 2.9-10.8-.3-2.6-.2-2.6-1.8-.7zM10.1 698.6c0 1.1.3 1.4.6.6.3-.7.2-1.6-.1-1.9-.3-.4-.6.2-.5 1.3zM243.8 711.1c-2.2 1.2-2.4 3.9-.3 3.9 1.6 0 2.9-2.2 2.3-3.9-.2-.6-.9-.6-2 0zM250.5 778c-.3.5-.1 1 .4 1 .6 0 1.1-.5 1.1-1 0-.6-.2-1-.4-1-.3 0-.8.4-1.1 1zM476 778.5c-1 1.2-1 1.8 0 3 2.5 3 8 .5 6.6-3-.7-1.9-5-1.9-6.6 0zM252 790.1c0 .5.5.7 1 .4.6-.3 1-.8 1-1.1 0-.2-.4-.4-1-.4-.5 0-1 .5-1 1.1zM456 800c0 .5.8 1 1.8 1 1.7 0 4.3 1.6 11 6.4 3.1 2.3 3.5 2.4 6.7 1 1.9-.8 3.7-1.4 4-1.3.3 0 1.9-.3 3.6-.6 2.2-.5 3.4-.3 4 .6.6 1 .1 1.5-1.8 1.9-3.2.6-4.3 3-1.5 3 3.6 0 5.2 1.1 5.2 3.6 0 1.7-.6 2.4-2 2.4-1.1 0-2 .4-2 1 0 .5.9 1 2 1s2-.5 2-1c0-1.6 1.8-1.2 6 1.5 4.9 3.1 5 3.1 5 0 0-1.8-.7-2.6-2.4-3.1-2-.5-2.3-.9-1.3-1.9.8-.9 1.6-1 2.5-.3.9.8 1.2.4 1.2-1.5 0-1.7-.7-2.8-2-3.2-1.1-.4-1.8-1.1-1.4-1.6.3-.6 1.2-.8 2-.5.9.3 1.4-.2 1.4-1.4 0-1.7-.7-2-4.2-2.1-11.1-.3-16.7-.1-20.9.6-4.3.7-5 .4-9.9-2.9-5.1-3.5-9-4.6-9-2.6zM459.5 819c-.6.9 3.2 4 5 4 .6 0 2.6 1.1 4.5 2.5 3.4 2.5 6 2.1 6-1.1 0-2 1.3-1.7 4.4.7 2.6 2.1 5.3 1.6 3.8-.6-3-4.4-13.3-7.8-11.8-4 .5 1.3.2 1.4-2.2.2-3.7-1.9-9-2.8-9.7-1.7zM458.5 826.9c-.3.6 2.5 2.4 6.2 4.2 6 2.8 15.6 11.2 23.8 20.7.6.7 3.4 3 6.3 5.3l5.3 4.1-.3-3.4c-.3-3-1-3.7-7.3-7-7.1-3.7-8.8-5.4-6-6 1.1-.2-.1-2-4.2-6.3-7.9-8.1-21.7-14.9-23.8-11.6zM476 829.8c0 1 11.7 8.2 13.2 8.2s-1.7-3.9-5.3-6.6c-3.2-2.3-7.9-3.3-7.9-1.6z"/><path d="M494.3 841.4c.7 1.9.6 1.9-2.7.6-2.2-.8-2.6-.7-2.6.9 0 2.4 4.5 6.5 6.4 5.8.9-.4 1.6-1.6 1.6-2.8 0-1.5.4-1.9 1.6-1.5 1.2.4 1.5 0 1.2-1.7-.2-1.6-1.1-2.3-3.2-2.5-2.3-.3-2.8 0-2.3 1.2zM218.8 844.7c-2 .5-2.3 1.8-.8 2.8 1.2.7 5-1.2 5-2.5 0-1-1.2-1.1-4.2-.3zM200.3 847.2c-.4.7-.8 3.2-.9 5.6-.2 5.9 1.9 3.8 2.2-2.3.3-4.7.1-5.3-1.3-3.3zM463.5 848.9c-.4.7 1.1 1.9 3.5 3 2.3 1 6.3 4.2 8.9 7 2.9 3.1 5.6 5.1 6.9 5.1 2.8 0 2.8-1.1 0-3.7-1.3-1.1-3.5-3.6-4.9-5.5-1.7-2.2-4.2-3.9-6.9-4.7-2.3-.7-4.8-1.5-5.5-1.7-.7-.3-1.6 0-2 .5zM498.5 850.9c-.3.5-.1 1.2.5 1.6.5.3 1-.1 1-.9 0-1.8-.6-2.1-1.5-.7zM262.5 853c-.3.5-.2 1 .4 1 .5 0 1.3-.5 1.6-1 .3-.6.2-1-.4-1-.5 0-1.3.4-1.6 1zM223.8 853.7c.7.3 1.6.2 1.9-.1.4-.3-.2-.6-1.3-.5-1.1 0-1.4.3-.6.6zM231.3 853.7c1.5.2 3.9.2 5.5 0 1.5-.2.2-.4-2.8-.4s-4.3.2-2.7.4zM34.5 858c-.4.7 0 1.9.9 2.8 1.5 1.5 1.6 1.5 1.6-.1 0-.9 0-2 .1-2.4.1-1.3-1.9-1.5-2.6-.3zM304 861.5c0 1 5.2 2.5 6.3 1.8.7-.4.3-.9-.9-1.4-2.3-.9-5.4-1.1-5.4-.4zM489 865c0 .6.7 1.3 1.5 1.6.8.4 1.5 1.1 1.5 1.8 0 .6 1.8 2.1 4 3.4l4 2.3v-2.6c0-2-1-3-5-5-5.5-2.8-6-2.9-6-1.5zM124 867.5c0 1.4.4 2.5.9 2.5 1.2 0 2.3-2.9 1.5-4.1-1-1.8-2.4-.9-2.4 1.6zM468 866.3c0 .9 1.8 2.2 4.3 3.2 2.6 1 5.1 2.9 6.6 5 1.8 2.7 3.1 3.5 5.3 3.5h3l-2.6-3.1c-1.4-1.7-2.6-3.5-2.6-4 0-1-7.2-4.4-11.6-5.5-1.7-.5-2.4-.2-2.4.9zM364 868c1.4.4 4.2.8 6.2.9 2 .1 4 .5 4.3 1.1.4.6-2.1 1-6.8 1-7.5 0-17.4 2.4-22.7 5.5l-2.5 1.4 2.5.1c1.4 0 5-1 8-2.2 7.3-2.8 17.1-2.8 27.3 0 8.7 2.5 9.7 2.6 9.7 1.3 0-.5-1.7-1.5-3.7-2.1-5.2-1.7-6.1-2.7-3.8-4.4 1.8-1.3 1.8-1.4-.3-2.5-1.1-.6-6.2-1.1-11.4-1-6.2.1-8.5.4-6.8.9zM200.7 868.7c-.4.3-.7 1.1-.7 1.7 0 .6.5.5 1.2-.2.6-.6.9-1.4.7-1.7-.3-.3-.9-.2-1.2.2zM276.5 877c-.3.5-.1 1 .4 1 .6 0 1.1-.5 1.1-1 0-.6-.2-1-.4-1-.3 0-.8.4-1.1 1z"/></svg>