<svg version="1" xmlns="http://www.w3.org/2000/svg" width="666.667" height="1170.667" viewBox="0 0 500 878"><path d="M287.9 4.4c-.3.3-16.2.8-35.4 1.1-19.3.3-35.8.8-36.8 1.1-2.8.9-1.4 2.9 1.9 2.9 1.6 0 3.5.4 4.2.8 1.3.9 10.2 18.8 10.2 20.6 0 1.2-2.6 2.1-6.3 2.1-2.4 0-2.8.3-1.9 1.2.8.8 6 1.1 17.4.9 23.7-.3 46-1.1 47-1.7 1.6-1-.3-2.4-3.2-2.4-1.5 0-3-.6-3.3-1.3-.3-.7-.4-5.8-.3-11.2l.1-10 3.8-.6c4.3-.7 5.5-1.5 4.1-2.9-.6-.6-1.2-.8-1.5-.6zm-23.1 15.4c.2 9.3 0 11.2-1.2 11.2-1 0-1.7-1.4-2-4.3-1.6-13.1-1.7-15.9-.5-17.3 2.6-3.1 3.4-.7 3.7 10.4zm9.9 0c-.2 8.8-.5 10.7-1.7 10.7s-1.6-1.9-1.8-9.9c-.3-11 0-12.8 2.2-12 1.1.4 1.4 2.7 1.3 11.2zm-32.2-7.6c-1.2 5.5-5.5 14.2-6.4 13.2-1.5-1.6-7-15.2-6.4-15.8.4-.3 3.5-.6 7-.6h6.5l-.7 3.2zm11.9 4c.4 4 .9 9 1.2 11 .5 3.5.4 3.8-1.8 3.9-1.2 0-4.7.2-7.5.5-3.1.3-5.3.1-5.3-.5 0-.5 1.3-3.8 3-7.3 1.6-3.4 3-6.9 3-7.6 0-2 3.9-7.2 5.5-7.2.9 0 1.5 2.2 1.9 7.2zM0 67.8c0 .9 11.8 6.9 19.3 9.8 5.4 2.1 5.8 3.2 2.1 5.4-2 1.2-2.8 1.3-4.5.2-2.2-1.4-3.2-.7-6 4C9.6 89.6 8 89.5 8 87c0-1-.8-2.4-1.7-2.9-1.6-1-1.6-1.1.5-1.7 1.3-.4 2.1-1.1 1.9-1.7C8 78.4 6.4 79.2 4 83c-1.4 2.2-2.8 4-3.2 4-.5 0-.8 1.3-.8 2.8 0 2.4.8 3.2 5.3 5.4 6.8 3.4 25.2 11.3 34.7 14.8 7.4 2.7 16 6.1 57.5 22.5 11.6 4.5 23.9 9.2 27.5 10.3 3.6 1.2 11.9 4.2 18.5 6.7 6.6 2.6 14.7 5.7 18 7 7 2.6 12.8 4.9 24 9.5 4.4 1.8 13.4 5.5 20 8.2 6.6 2.7 15.4 6.1 19.5 7.4 4.1 1.4 8.6 3.1 10 3.8 1.4.7 4.3 1.9 6.5 2.6 2.2.7 4.5 1.6 5 2 .6.4 7.6 3.5 15.6 7 12.4 5.3 14.9 6.7 16.3 9.4.9 1.7 2.4 4.3 3.2 5.9 2.2 4.1 5.6 5.8 11.9 6.2 6.5.4 7.6 1 5.1 2.8-1.6 1.2-1.7 1.7-.6 3.8 1.7 3.2 2.9 3.9 7 3.9 3.2.1 3.7.5 6 5.2 2.9 6 5.2 7.8 7.8 6.2 3.8-2.4 2.2-12.2-2.7-16-1.9-1.5-.6-3.4 2.4-3.4 1.2 0 10.1 3.4 19.6 7.5 9.6 4.2 21.5 9.1 26.4 11 8.1 3.1 47.7 19.2 69.5 28.2 12.1 5 14.4 5.2 18.1 1.7l3-2.9 5.7 6.2c7.8 8.6 14.4 10.5 17.3 5.2 1-1.9.5-2.7-4.6-7.5-3.5-3.3-6.6-5.4-8-5.4-1.3 0-2.5-.7-2.9-1.5-.4-1.2.6-1.5 6-1.5 4.8 0 6.6.4 7 1.5.9 2.3 6.8 5.5 10.2 5.5 3 0 6.2-2.1 6.2-4.1 0-1.7-4.7-5.8-7.5-6.5-2.4-.6-2.7-1-2.2-4 .6-3.8-1.6-6.4-5.6-6.4-2.6 0-6.7 4-6.7 6.6 0 1.7-5.3 4.5-6.6 3.6-.6-.4-1.6-2.2-2.3-3.9-1.5-3.6-5.9-6.7-10.9-7.7-3.2-.6-64-24.4-79.2-31-4.1-1.8-15.4-6.3-25-10s-24-9.6-32-13.1c-13.3-5.8-24.8-10.3-54.5-21.5-6-2.3-17.8-7-26.2-10.6-20.2-8.5-33.6-13.9-46.3-18.4-15.4-5.5-27-10.2-27-11 0-.4 1.2-1.2 2.6-1.9 2.3-1 3-.9 4.9.9 2.6 2.4 5.8 2.6 7.6.4 1.1-1.4 1-2.1-.4-4.6-.9-1.6-1.7-4-1.7-5.2 0-2.6-3.4-6.6-5.6-6.6-.8 0-2.4.5-3.5 1.1-1.6.8-2.6.5-5-1.5-4.6-3.9-12.9-3.1-12.9 1.3 0 2.3 4.1 6.1 6.7 6.1 2.6 0 4.7 2.5 3.9 4.6-.5 1.3-1.5 1.5-4.4 1.2-6.4-.9-34.5-11.9-47.7-18.6-2.7-1.4-7.9-3.6-11.5-4.8-3.6-1.2-9.6-3.4-13.5-5-3.8-1.5-9.9-3.7-13.5-5-3.6-1.2-8.7-3.2-11.3-4.4-2.7-1.2-5.8-2.3-7-2.4-5.2-.7-8.8-2-17.7-6.6-5.2-2.7-11.9-5.8-14.7-6.9-2.9-1.2-7.5-3-10.3-4.1-2.7-1.1-5-1.6-5-1.2zm30.2 15.6c2 1.1 3.9 2.7 4.1 3.8.4 1.4 1.1 1.7 2.9 1.3 2.7-.7 5.8 1.9 4.2 3.5-1.1 1.1-5.4.2-5.4-1.1 0-.5-1.2-.9-2.6-.9-1.7 0-2.8-.6-3.1-1.8-.3-1.3-1.2-1.8-2.6-1.5-3.5.6-5.1-1-3.7-3.6.6-1.2 1.4-2.1 1.8-1.9l4.4 2.2zm-13.3 2.9c.8 1.1.6 1.8-.8 3.1-1.8 1.6-1.9 1.6-2.3-1.4-.5-3.2 1.1-4.1 3.1-1.7zm7.8 3.3c.1.5-.4 1.8-1.2 2.8-1.9 2.6-3.6 1-2.4-2.2.9-2.3 3-2.6 3.6-.6zm35.8 4.2c11.5 4.1 12.4 4.5 22 8.5 3.3 1.3 7.8 3 10 3.7 4.4 1.4 8.7 3.6 12.4 6.2 1.3 1 3 1.8 3.9 1.8 1.3 0 15.1 5.8 29.7 12.5 2.8 1.3 6.4 2.7 8 3.1 3.6.8 18.2 7.8 20.9 9.8 1.6 1.3 1.7 1.8.6 3.1-1.5 1.8-.9 1.9 2.2.4 1.7-.7 3.2-.7 5.2.1l2.8 1-3.1 3.2c-1.8 1.8-3.4 4.2-3.7 5.5-.6 2.4-3 3.8-4 2.2-.3-.5 0-1.6.6-2.4.6-.8 1-2.4.8-3.6-.2-1.9-1-2.3-4.8-2.5-2.6-.1-4.9-.9-5.6-1.8-1.6-2.2-2.7-2-5.8 1.1-3 2.9-4.4 2.6-2.6-.7.6-1.2.9-3.3.5-4.7-.6-2.4-.7-2.4-2.4-.9-3 2.8-5 2-4.7-1.8.2-1.8.6-3.8 1-4.4.4-.7-.3-1-2.1-.9-2 .1-3-.4-3.8-2.1-.5-1.2-1.2-2.2-1.5-2.2-2.1.2-7 7.4-7 10.3 0 2.1-1.9 3.2-3.2 1.9-.6-.6-.6-1.6.3-2.9 1.5-2.5.4-7.3-1.7-7.3-.8 0-1.7.7-2 1.5-.7 1.6-5.4 2.1-5.4.6 0-2.4 2.1-6 3.6-6.3 1.5-.3 1.5-.5.3-1.5-2.9-2.4-8.5 2.7-9.3 8.6-.2.9-.9 1.6-1.7 1.6-.8 0-1.3-.8-1.1-2 .2-1.1.6-3.7.9-5.8.3-2.2 1.1-3.7 1.9-3.7.7 0 1.1-.6.8-1.4-.6-1.5-3.4-1.1-3.4.5 0 .6-1.3 2.3-2.9 3.8-1.6 1.6-2.7 3.2-2.4 3.5.3.3.3 1.3-.1 2.2-.5 1.2-1 1.4-1.9.5-1.1-.9-1.1-1.9.2-6.1 1.3-4.1 2-5 4-5 1.9 0 2.1-.3 1.1-1.5-.6-.8-.9-1.9-.5-2.5.3-.5.2-1-.4-1-.5 0-1.3.5-1.7 1.1-.3.6-1.5.9-2.5.6-1.5-.4-1.7-.2-1 1.1.7 1.1.2 2.1-1.6 3.5-2.2 1.7-2.6 1.8-3.9.5-1.8-1.7-.9-4.5 1.6-5.3 2.6-.8 1.4-3.3-1.6-3.1-1.6.1-2.2.6-1.9 1.6.3.9-.7 2.2-2.5 3.2s-3 2.5-3 3.7c0 2.6-1.8 3.7-2.7 1.5-.3-1 0-2.2.8-2.8.8-.6 1.3-2 1.1-3.2-.4-3-6-2.1-7.2 1.2-.5 1.3-1.4 2.4-2 2.4-1.3 0-1.3-2.7 0-3.5.6-.4.8-1.5.5-2.5-.4-1.3.2-2.4 2-3.6 3-2 2.8-3.7-.4-3.9-1.7-.1-2.1.3-1.8 1.6.3 1-.1 2.6-.7 3.5-1.1 1.5-1.5 1.4-4-.9-2.7-2.6-2.8-4.7-.1-4.7.8 0 1.1-.7.8-1.9-.4-1.7-.8-1.8-2.4-.8-1 .6-1.9 1.9-1.9 2.8 0 .9-.7 2.3-1.6 3-1.4 1.1-1.9 1-3.6-1.1-1.4-1.7-3.1-2.5-5.2-2.5-1.7 0-3.1-.5-3.1-1 0-.6-.4-1.6-.9-2.3-.4-.7-.3-1.9.3-2.6.6-.7.8-1.6.4-1.9-1.4-1.5-2.9-.6-4 2.4-.9 2.4-1.7 3-3.5 2.7-3-.4-3.1-3.9-.1-5.3 2.7-1.4 1.3-4.5-2.2-4.5-3 0-3.5-.9-2.4-3.9.6-1.6 1.5-2.2 2.7-1.8.9.3 6.7 2.4 12.7 4.5zm-28.7-.5c.2 1-.4 2-1.3 2.3-2.1.9-2.8 0-2-2.6.8-2.4 2.8-2.2 3.3.3zm6.7 3.6c-.3 1.2-1.1 2.1-1.7 2.1-.5 0-.7-.7-.4-1.6.3-.9.6-2.3.6-3.2 0-1.2.3-1.3 1.1-.5.6.6.8 2 .4 3.2zm-17-1c.7 1.2-1.2 2.4-2.5 1.6-1.1-.7-.4-2.5 1-2.5.5 0 1.1.4 1.5.9zm24 1.1c.3.5.1 1-.6 1s-2.1.7-3.1 1.7c-1.7 1.5-1.8 1.5-1.8-.5 0-2.7 4.1-4.4 5.5-2.2zm-17 2.8c0 1.8-2 1.5-2.3-.4-.3-1 .1-1.5 1-1.2.7.3 1.3 1 1.3 1.6zM40 105c0 .5-.4 1-1 1-.5 0-1-.5-1-1 0-.6.5-1 1-1 .6 0 1 .4 1 1zm8.9 2.4c1.4 1.7 0 2.9-2.3 2-1.7-.7-2-1.6-.9-2.7 1-1.1 1.9-.8 3.2.7zm10.1 5.1c-1.3 1.6-4 .9-4-.9 0-2.1 1.2-2.6 3.2-1.5 1.5.8 1.7 1.3.8 2.4zm8.8 2.2c.5 1.7-2.6 2.9-4 1.5-.6-.6-.7-1.5-.3-2.2.9-1.4 3.7-.9 4.3.7zm89.2 1.9c0 .2-1.5.4-3.2.3-2.7 0-2.9-.2-1.3-.8 1.8-.8 4.5-.4 4.5.5zm-80.6 1.2c.2.4.1 1.4-.4 2.1-1 1.7-3.1.5-2.3-1.4.6-1.6 1.9-2 2.7-.7zm92.6 2.1c0 .6-.4 1.3-1 1.6-.5.3-1-.1-1-.9 0-.9.5-1.6 1-1.6.6 0 1 .4 1 .9zm-72 5.6c1 1.2 1 1.8 0 3.1-1.2 1.3-1.5 1.3-2.8 0-1.5-1.5-1-4.6.6-4.6.5 0 1.5.7 2.2 1.5zm42 12.5c-1.1 1.5-2 3.6-2 4.5 0 .9-.6 1.5-1.2 1.2-1.5-.5-1.4-4 .1-8 .9-2.4 1.4-2.6 3.1-1.7l2.1 1.1-2.1 2.9zm-18.1-2.6c.7.9.8 1.7.2 2-1.4.9-4.1-.4-4.1-2 0-1.8 2.4-1.8 3.9 0zm23.7 7.7c.8 1.4-1.1 3.3-2.5 2.5-1.1-.7-.4-3.6.9-3.6.5 0 1.2.5 1.6 1.1zm50.2 6.1c5.9 2.2 14.5 5.6 19.2 7.5 4.7 1.9 11.4 4.5 14.9 5.8 6.3 2.4 11 5.5 8.3 5.5-.7 0-2.1 1.1-3.3 2.4-1.7 2-2.4 2.2-4.5 1.2-2.5-1.1-3.1-3-1.4-4.1.6-.3 1-1.1 1-1.7 0-.6-1-.2-2.3 1-1.3 1.2-3.5 2.2-4.9 2.2-1.5 0-3.2.9-4.1 2.2-.8 1.3-1.9 1.9-2.3 1.5-.5-.5.1-1.7 1.3-2.6 2.8-2.3 1.6-4.2-2.8-4.4-2.8-.2-3.5.2-3.7 2-.4 2.5-2.3 3.5-4.3 2.2-1.2-.7-1.1-1.3.4-4 3-5.4-.7-7-4.5-1.9-1.2 1.6-2.5 3-3 3-1.1 0-1-3.7.1-4.4.4-.3.6-1.6.4-2.9-.3-1.4.2-2.9 1.1-3.6 2-1.7 2.1-3.1.2-3.1-1.8 0-7.6 6.6-7.6 8.5 0 .8-.7 1.5-1.5 1.5-1.8 0-1.9-1.2-.4-2.7 1.6-1.6.2-3.3-2.7-3.3-1.3 0-2.4-.5-2.4-1 0-.6-1.7-1-3.9-1-4.8 0-6.7-1.9-4.6-4.6.8-1 1.5-2.7 1.5-3.7 0-2.7 4.1-2.1 15.8 2.5zm-16.8 7.9c0 2.4-2.3 2.1-2.8-.4-.2-1 .3-1.7 1.2-1.7 1 0 1.6.9 1.6 2.1zm8 1.8c0 .6-.4 1.3-1 1.6-.5.3-1-.1-1-.9 0-.9.5-1.6 1-1.6.6 0 1 .4 1 .9zm58.6 10.6c1.8 1.4 1.8 1.6-1.4 4.5-1.7 1.6-3.1 3.5-3 4.2.2.6-.6 1.4-1.6 1.6-1.5.3-1.8 0-1.3-1.8.3-1.2.1-3.1-.6-4.1-.9-1.4-.7-2.2.7-3.8 2.3-2.5 4.5-2.7 7.2-.6zm9.4 3.5c1.2.8 1.2 1-.3 1.6-.9.3-1.7 1.2-1.7 2 0 .7-.9 1.8-2.1 2.4-1.7.9-2.3.8-3.5-.7-1.8-2.5-1.8-2.9.8-4.7 2.5-1.8 4.6-2 6.8-.6zm-23 2.4c0 .3-.4.8-1 1.1-.5.3-1 .1-1-.4 0-.6.5-1.1 1-1.1.6 0 1 .2 1 .4zm31 .6c1.2.8 1.2 1-.3 1.6-2 .7-4.7-.1-4.7-1.6 0-1.2 3-1.3 5 0zm7.9 2.9c.9.6 1 1.1.2 1.5-1.4.9-5.1-.2-5.1-1.5 0-1.1 3-1.2 4.9 0zm-13.8 1.1c2.7 1.5 2.4 3-.6 3-1.8 0-2.5-.5-2.5-2 0-2.3.4-2.4 3.1-1zm22.4 1.5c1.9.8 5.1 2.2 7.1 3 1.9.8 3.2 2 2.9 2.5-1 1.6-4 1.1-6.9-1.1-1.4-1.1-2.9-1.8-3.3-1.6-1.4.8-5.3-1.2-5.3-2.8 0-1.9 1-1.9 5.5 0zm-32.4 2.2c-.8 1.5-1 1.5-1.1.2 0-1.7 1-3.2 1.8-2.5.2.3-.1 1.3-.7 2.3zm17.3-.1c2.2.9 2 2.4-.3 2.4-2.1 0-3.4-1.3-2.4-2.4.8-.7.8-.7 2.7 0zm-10.4 1.8c0 .8-.4 1.8-1 2.1-.5.3-1-.3-1-1.4 0-1.2.5-2.1 1-2.1.6 0 1 .6 1 1.4zm7.4 3.1c-.6 1.6-2.4 2.1-2.4.7 0-1.1 1.1-2.2 2.1-2.2.5 0 .6.7.3 1.5zm10.9-.8c-.7.2-1.9.2-2.5 0-.7-.3-.2-.5 1.2-.5s1.9.2 1.3.5zm24.1.3c2.9 1.1 3.4 2.8 1.1 3.6-1.8.7-6.8-2.3-6-3.6.8-1.2 1.7-1.2 4.9 0zm-28.4 4c0 .5-.4 1-1 1-.5 0-1-.5-1-1 0-.6.5-1 1-1 .6 0 1 .4 1 1zm37.4-.4c.9.3 1.6 1.2 1.6 1.9 0 1.9-2.8 2.7-5.1 1.4-1.6-.8-1.8-1.3-.8-2.5 1.3-1.6 2-1.7 4.3-.8zm-14.6 3c1.2.4 2.2 1 2.2 1.5 0 1.4-3.3 1-5.4-.6-2.2-1.6-.9-2 3.2-.9zm23 1c2.6 1.8 2 3.4-1.2 3.4-2.7 0-5.1-2.4-4.1-4 .9-1.4 2.7-1.3 5.3.6zm-14.2 2.9c1.8 1.5 1.8 1.5-.5 1.3-1.4-.2-2.6-.9-2.9-1.6-.5-1.7 1-1.5 3.4.3zm-10.8 1.2c-.4 2.2-2.2 2-2.6-.1-.2-1 .3-1.6 1.3-1.6s1.5.7 1.3 1.7zm33.7 1.4c-.8 1.1-1.6 1.1-3.4 0-2.2-1.4-.4-3.3 2-2.1 1.1.6 1.7 1.5 1.4 2.1zm-12.2.6c.4.2.5.8.2 1.3-.7 1.1-6.5-.8-6.5-2.1 0-.8 4.3-.3 6.3.8zm-13.8.2c.7 1.2-1.2 2.4-2.5 1.6-1.1-.7-.4-2.5 1-2.5.5 0 1.1.4 1.5.9zm40 2.6c2.8 1.2 5.9 2.5 7 2.9 1.9.7 1.9.8.2 1.7-1.3.8-2.5.6-4.2-.5-1.3-.9-3.4-1.6-4.5-1.6-2.7 0-10-3.7-10-5.1 0-1.4 5.1-.3 11.5 2.6zm-18 .5c0 2.2-3.9 1.9-4.3-.3-.3-1.5.1-1.8 2-1.5 1.2.2 2.3 1 2.3 1.8zm-13.7.8c.3.9-.2 1.3-1.4 1-.9-.1-1.9-.9-2.2-1.6-.3-.9.2-1.3 1.4-1 .9.1 1.9.9 2.2 1.6zm-9.2 4.3c5.8 2.8 10.3 5.6 10.1 6.3-.8 2.4-18.7 0-18.7-2.5 0-.5-1.3-2.4-3-4.2-2.9-3.4-3-4.7-.2-4.7.7 0 6.1 2.3 11.8 5.1zm28.8-2.6c.3.9-.1 1.8-1 2.2-1.9.7-3.9-1.1-3-2.6 1-1.6 3.3-1.3 4 .4zM312 209c0 .5-.7 1-1.5 1s-1.5-.5-1.5-1c0-.6.7-1 1.5-1s1.5.4 1.5 1zm17.1 1.1c2.8 1.5 1.3 3.1-1.6 1.7-2.5-1.1-3.4-2.8-1.4-2.8.6 0 1.9.5 3 1.1zm23.6 1.1c5.5 2.3 6.2 3.6 2.5 5.3-1.1.5-2.3 1.7-2.5 2.7-.3 1-1.4 1.8-2.6 1.8-2.9 0-3.9-2.9-1.7-4.6 2-1.4 1.3-3.6-.8-2.8-.9.3-1.5-.4-1.8-2-.6-3.2.2-3.2 6.9-.4zm-33.7 1.4c0 .9-.5 1.4-1.2 1.2-1.8-.6-2.1-2.8-.4-2.8.9 0 1.6.7 1.6 1.6zm18.1.4c1.5 0 1 2-.6 2.6-1.8.7-4.7-1.4-3.9-2.8.3-.5 1.3-.7 2.1-.4.8.3 1.9.6 2.4.6zm-10.1 2.5c0 .8-.6 1.5-1.4 1.5-1.7 0-2.8-1.4-1.9-2.4 1.2-1.2 3.3-.6 3.3.9zm18.8.1c-.5 2.5-3.5 4.1-4.9 2.7-.9-.9-.9-1.6.1-2.8 1.7-2.1 5.2-2 4.8.1zm22.7 2c4 1.9 5.4 2.9 4.6 3.7-.7.7-1.9.7-3.8-.3-1.6-.7-3.8-1.3-5-1.4-2.8-.2-4.8-2-3.9-3.5 1-1.5 1.7-1.4 8.1 1.5zm-35.5-.2c0 .3-.4.8-1 1.1-.5.3-1 .1-1-.4 0-.6.5-1.1 1-1.1.6 0 1 .2 1 .4zm7 3.6c0 .5-.4 1-1 1-.5 0-1-.5-1-1 0-.6.5-1 1-1 .6 0 1 .4 1 1zm6.1 3.3c-1.3 1.3-2.6.3-1.6-1.2.3-.6 1.1-.8 1.7-.5.6.4.6 1-.1 1.7zm13.5-.8c1.5 1.1 1.6 1.4.3 1.5-.8 0-2.4-.7-3.5-1.5-1.5-1.1-1.6-1.4-.3-1.5.8 0 2.4.7 3.5 1.5zm20.9-.5c.3.5-.1 1-.9 1s-1.8-.5-2.1-1c-.3-.6.1-1 .9-1s1.8.4 2.1 1zm-12.6.9c1.4.9.9 4.1-.6 4.1-1.9-.1-3.5-1.9-3-3.4.7-1.8 1.6-2 3.6-.7zm19.3 1.2l2 1.1-2.1 2.2c-1.2 1.1-3.6 4-5.2 6.4-3.5 4.7-5.1 4.7-4.2-.1.7-4.1 2-5.7 4.5-5.7 1 0 1.8-.6 1.7-1.3-.5-3.8.1-4.3 3.3-2.6zm-9.8 1.7c.7 1.2-4.5 8.2-6.1 8.2-2 0-1.6-1.7.8-3.3 1.9-1.4 1.9-1.6.3-2.5-.9-.5-1.4-1.4-1-2.1.8-1.3 5.2-1.5 6-.3zm-61.4 5.5c0 2.4-.3 2.8-1 1.7-1.3-2-1.3-6.3 0-5.5.6.3 1 2.1 1 3.8zm79.6-3.2c.8 1.3-1.5 3-3.6 2.6-.8-.1-1.6-1-1.8-2-.3-1.2.3-1.7 2.2-1.7 1.4 0 2.8.5 3.2 1.1zm5.9 1.9c1.8.8 1.7.9-.7.9-1.6.1-2.8-.4-2.8-.9 0-1.2.8-1.2 3.5 0zm-10 3c0 .9-1.1 1.6-2.7 1.8-2.7.3-3.8-1.4-2.1-3.2 1.2-1.2 4.8-.2 4.8 1.4zm18 0c.3.5-.3 1-1.4 1-1.1 0-2.3-.5-2.6-1-.3-.6.3-1 1.4-1 1.1 0 2.3.4 2.6 1zm-12 2.5c0 2.2-1.4 2.8-3.4 1.6-1.2-.8-1.3-1.2-.1-2.6 1.6-2 3.5-1.4 3.5 1zm17.1 0c1.6 1.2 1.6 1.4.3 1.5-.9 0-2.2-.7-2.9-1.5-1.6-1.9 0-1.9 2.6 0zm-27.1 1.4c.7 1.2-1.5 6.1-2.7 6.1-1.5 0-2-2.8-.8-4.9 1.1-2.2 2.5-2.7 3.5-1.2zm17.4.5c1.4 1.7-.9 3.9-3.3 3-1.9-.7-2-1.6-.4-3.2 1.5-1.5 2.3-1.5 3.7.2zm20.2 3.9c-1.3 1.3-4.1.1-4.1-1.7 0-1.3.4-1.4 2.5-.4 1.6.7 2.2 1.5 1.6 2.1zm-31.6 1.6c-.3 1.2-1.3 2.1-2.1 2.1-1.7 0-1.7-.1-.4-3.6 1.3-3.3 3.6-1.9 2.5 1.5zm7.3 1.4c.2 1-.4 2-1.3 2.3-2.1.9-2.8 0-2-2.6.8-2.4 2.8-2.2 3.3.3zm30.6-1.4c1 1.5-2.2 2-3.4.5-1-1.1-.9-1.4.8-1.4 1.2 0 2.3.4 2.6.9zM421 245c0 .5-.7.7-1.5.4-.8-.4-1.5-.8-1.5-1 0-.2.7-.4 1.5-.4s1.5.4 1.5 1zm17.6 1.5c1.8 1.5 1.8 1.5-1 1.3-1.6-.2-3.1-.9-3.4-1.6-.5-1.7 2-1.5 4.4.3zm-31.5 2.8c-1.3 1.3-2.6.3-1.6-1.2.3-.6 1.1-.8 1.7-.5.6.4.6 1-.1 1.7zm20.9-2c0 .2-.9 1.2-2 2.2-1.9 1.8-2 1.7-2-.3 0-1.5.6-2.2 2-2.2 1.1 0 2 .2 2 .3zm25.7 3.9c1.5.7 3 1.3 3.2 1.4.2.2-.7 1.7-1.9 3.3-2.2 3.2-5.7 4.4-4.6 1.6.4-1.3.1-1.2-2 .1-1.5 1-2.9 1.3-3.4.8-1.5-1.5.1-5.4 2.9-6.9 3.2-1.7 2.5-1.7 5.8-.3zm-9.7 2.2c0 .8-.4 1.8-1 2.1-.5.3-1 .4-1 .1 0-.2-.3-1.1-.6-2-.4-1.1-.1-1.6 1-1.6.9 0 1.6.6 1.6 1.4zm34.5-.4c-.3.5-1.1 1-1.6 1-.6 0-.7-.5-.4-1 .3-.6 1.1-1 1.6-1 .6 0 .7.4.4 1zm-47.5 6c0 .5-.7 1-1.5 1s-1.5-.5-1.5-1c0-.6.7-1 1.5-1s1.5.4 1.5 1zm7.5 2c.3.5-.3 1-1.4 1-1.2 0-2.1.7-2.1 1.5s-.7 1.5-1.5 1.5c-1.6 0-1.9-.9-.9-3.4.7-1.8 4.9-2.2 5.9-.6zm47.3 1.6c3.3 1.4 4.3 3.4 1.6 3.4-1.8 0-5-1.6-8.4-4.2l-2.5-2 3 .8c1.7.3 4.5 1.3 6.3 2zM428 262c0 .5-.4 1-.9 1-.6 0-1.3-.5-1.6-1-.3-.6.1-1 .9-1 .9 0 1.6.4 1.6 1zm30.4 1c-1 .4-2.1.6-2.4.3-.8-.7 2.4-2.2 3.4-1.6.5.4.1 1-1 1.3zm-14.4 0c0 .5-.4 1-1 1-.5 0-1-.5-1-1 0-.6.5-1 1-1 .6 0 1 .4 1 1zm5 1.9c0 1.1-.9 2.3-2.1 2.6-2.8.9-3.1.3-1.3-2.3 1.9-2.7 3.4-2.8 3.4-.3zm17.5 3c.3.5 0 1.3-.5 1.6-1.5.9-6-.3-6-1.5 0-1.3 5.7-1.3 6.5-.1zm5.3 6.7c1.2.4 2.2 1.1 2.2 1.6 0 1.4-5.3.5-5.8-1-.4-1.3.2-1.5 3.6-.6z"/><path d="M63 104.4c0 .9.7 1.2 2 .9 1.1-.3 1.7-.9 1.4-1.4-.8-1.4-3.4-1-3.4.5zM89.1 112.4c-.8 1-.9 1.6-.1 2.1 1.3.8 3-.3 3-2.1s-1.4-1.8-2.9 0zM129 126.1c0 .5.5.7 1 .4.6-.3 1-.8 1-1.1 0-.2-.4-.4-1-.4-.5 0-1 .5-1 1.1zM158.7 139.8c-2.1 2.3-1.5 3.1 1.9 2.4 1.6-.3 2.4-1 2.2-2-.4-2.3-2.2-2.5-4.1-.4zM185.5 150.9c-.6 1.1 1.3 2.6 2.2 1.8.3-.3 1.6-.2 2.9.3 1.3.5 2.6.5 2.9.1.3-.5-.9-1.4-2.7-2-3.8-1.3-4.5-1.4-5.3-.2zM214 160c0 .5.5 1 1.1 1 .5 0 .7-.5.4-1-.3-.6-.8-1-1.1-1-.2 0-.4.4-.4 1zM0 138.5c0 2 .5 2.5 2.4 2.5 1.3 0 5.7 1.5 9.9 3.4 4.1 1.9 7.7 3.2 8 3 .2-.3 2.1.6 4.1 2 2 1.3 6.9 3.7 10.9 5.2 3.9 1.5 10.8 4.6 15.2 6.9 4.4 2.4 10 5 12.5 5.9 2.5.8 7.7 2.7 11.5 4.1 3.9 1.5 8.5 3.1 10.3 3.7 1.7.6 3.2 1.8 3.2 2.6s-1.7 3.5-3.9 6.1c-2.1 2.5-4 5.4-4.2 6.4-.4 1.6-.6 1.7-2.4.3-1.9-1.4-1.9-1.6-.3-6 2.2-5.9.3-6.3-4.1-.9-3.4 4.2-4 3.7-1.3-.9 1.2-2.2 1.4-3.2.5-3.5-.7-.2-.9-1.1-.6-2 1.3-3.3-2.3-.6-4.5 3.5-3.5 6.4-5.6 4.8-2.7-2.1 1.1-2.6-3-2.2-4.9.5-.9 1.2-1.9 1.9-2.3 1.5-.3-.4-.1-1.3.5-1.9.7-.7 1.2-2 1.2-3.1 0-1.5-.6-1.8-3.2-1.5-2.6.2-3.5-.2-4.3-2-1.4-3.1-5.2-2.9-6.7.3-1.2 2.6-2.8 3.4-2.8 1.2 0-.6.7-2.1 1.5-3.1 2.1-2.8 1.9-3.3-1.9-5.1-2.9-1.4-3.7-1.4-5.5-.3-1.2.7-2.4 2.1-2.7 3-.5 1.8-2.4 2.5-2.4 1 0-.4.9-2.2 2-4 1.1-1.8 2-3.4 2-3.7 0-.2-2-.7-4.5-1-2.4-.4-5-1.3-5.6-2.1-.6-.8-1.6-1.4-2.1-1.4s-1.6-.7-2.4-1.5c-.9-.8-2.6-1.5-3.9-1.5-1.4 0-4.1-.9-6.2-2.1-3.2-1.8-4.1-1.9-5.8-.8-1.8 1.1-1.9 1.1-.7-.4 1.7-2 .8-3.7-1.9-3.7-1.7 0-1.9.7-1.9 6.2v6.3l5.3 2.7c2.8 1.5 9.7 4.5 15.2 6.8 5.5 2.2 14.3 6.1 19.5 8.5 5.2 2.4 13.5 6 18.4 8 4.8 2 11.4 4.9 14.5 6.4 10 5 54.4 23.3 76.6 31.5 15.1 5.5 52.6 17.6 54.9 17.6 1.3 0 2.9.7 3.6 1.5.7.8 1.7 1.5 2.2 1.5.6 0 3.8 1.3 7.2 2.9 3.3 1.6 14.9 5.9 25.6 9.5 20.9 7 33.7 11.6 46.5 16.6 4.4 1.8 14.1 5.4 21.6 8l13.7 4.9 2.5-4.9 2.6-4.9-3.2.6c-1.8.3-3.9 1.5-4.8 2.6-.9 1.1-2.1 1.7-2.8 1.3-1.8-1.1-1.3-3.7.9-4.3 1.3-.4 2-1.4 2-3 0-2-.3-2.2-1.8-1.4-2.6 1.4-6.2.2-6.2-2 0-3 1.4-3 10.1.2 11 4 14.8 5.1 16.2 4.6.7-.2 2.2.4 3.4 1.3 2.5 1.9 18.8 9 34.3 14.9 5.8 2.2 13.9 5.4 18 7.1 4.1 1.7 10.8 4.2 14.9 5.6 12 4 12.9 4.9 9.2 9.5-1.8 2.2-2 2.3-3.8.8-1-.9-2.4-1.4-3.2-1.1-1.1.4-1.3-.2-.8-2.7.9-4.5-1-3.6-4.8 2.1-3 4.7-5.3 5.7-4.7 2.2.4-2 .4-4.5.1-9.4l-.2-3-2.3 2.1c-1.8 1.7-2.6 1.9-4.4.9-1.5-.8-1.9-1.7-1.5-3.1.8-2.3-2-2.7-2.9-.4-.4 1.1-1.3 1.4-3.3.9-2.2-.6-3.1-.2-5 2.2-2.6 3.3-3.3 1.2-.7-2.4.8-1.2 1.4-2.9 1.2-3.7-.2-1.1-1.5-.4-4.4 2.5-4.8 4.7-6.9 4.5-7.9-.7-.4-2.5-.2-4 .9-5.2 1.8-2 2-3.1.6-3.1-.5 0-1 .6-1 1.3 0 .7-1.5 2.8-3.3 4.5-2.8 2.7-3.6 3-4.5 1.9-1.5-1.8-.7-7.9 1.3-8.9.8-.5 1.3-1.3 1-1.9-.9-1.3-3.5-1.1-3.5.3-.1 2.3-4.7 7.1-6.3 6.5-2.4-.9-2.7-4.5-.6-7.1 2.5-3.2.5-4.6-2.1-1.4-1.1 1.3-1.9 2.8-2 3.4 0 .6-.7 1.7-1.5 2.4-1.2 1-1.8 1-2.9.1-1.3-1.1-1.3-1.9-.1-5.9 1.1-3.5 1.1-4.8.2-5.4-.7-.4-1.9 1-3.4 4.3-1.3 2.7-2.7 4.9-3.1 4.9-1.9 0-2.1-1.5-.7-3.7 1.4-2.1 1.4-2.4.1-2.9-1.9-.7-3.6.3-3.6 2.2 0 .8-.4 1.4-1 1.4-1.5 0-1.2-2.1.6-4.1 2-2.3.9-4.6-1.3-2.7-.9.7-2.3 1.3-3.2 1.3-3.6 0-1.4 6.1 2.5 6.8 1 .2 7 2.9 13.3 6.1 11 5.7 24.1 16 24.1 19 0 .7-1.5 1.6-3.2 2.1-4.2 1.3-5.7 4.9-3.7 9.1 1.5 3.1 5.1 4.3 7.4 2.4 1.1-.9 2.1-.4 5 2.4 4.4 4.4 8.3 5.6 10.1 3.1 1.1-1.5 1.1-2.3-.4-4.8-.9-1.6-2.3-3.1-2.9-3.4-2.2-.9-1.4-2.3 1.2-2.3 1.6 0 2.5-.6 2.5-1.5 0-2.5-4.7-6.5-7.6-6.5-1.8 0-3.7-1.2-6-3.7-5.7-6.2-4.6-6.7 4.7-2.4 7.9 3.6 19.8 8.7 30.4 13.1 14.8 6.1 23.9 10.3 39.8 18.2 8.8 4.3 17.2 7.8 18.8 7.8 2.6 0 2.8.3 2.3 2.8-.4 2 .1 3.3 1.9 5 3.2 3 6.1 2.6 6.5-1.1.4-3.7 1.9-3.4 2.7.5.9 4 2 5.5 5.8 7.4 2.5 1.4 3.1 1.4 5.3-.1 3.3-2.2 3.2-6.4-.3-9.7-3.2-3-6.5-4.8-8.6-4.8-2.2 0-9.7-5.1-9.1-6.2.3-.4 1.7 0 3.2 1 5.7 4 14.2 3.3 14.2-1.2 0-2.7-4.2-6.6-7.1-6.6-2.2 0-2.3-.4-.7-3 1.7-2.7.1-5.2-4.1-6.4-2.6-.8-3.7-.5-6.2 1.3-3.1 2.3-5.9 2.2-5.9-.2 0-2.9-8.9-7.7-25-13.6-9.6-3.6-45.8-17.6-50.2-19.5-1.8-.8-5.3-2.3-7.8-3.4s-8.8-3.6-14-5.6c-5.2-2.1-11-4.6-12.8-5.7-1.8-1-3.8-1.9-4.4-1.9-.5 0-2.4-.6-4.1-1.4-1.8-.8-6.1-2.4-9.7-3.7-3.6-1.2-13.2-4.8-21.4-8-8.2-3.3-15.3-5.9-15.9-5.9-.9 0-16.4-6.4-23.7-9.7-1.9-.9-6.4-2.9-10-4.4-3.6-1.5-6.5-3.1-6.5-3.6 0-1.5 4.7-1.5 8.7.2 6.7 2.7 10.3-.1 5.6-4.5-1.4-1.3-3.5-2-6-2-3.1 0-3.8-.4-3.8-1.9 0-3.3-2.5-4.5-6.2-3-1.8.7-3.8 1.9-4.4 2.7-.8 1.2-1.3.9-2.8-1.3-1.2-1.8-2.4-2.5-3.9-2.3-1.9.3-2.2.8-1.9 4.2.3 3.8.3 3.8-2.5 3.2-1.5-.4-4.5-1.6-6.8-2.6-2.2-.9-5.1-2.1-6.5-2.5-1.4-.4-4.8-1.8-7.7-3.1-2.8-1.3-5.4-2.4-5.7-2.4-.4 0-4.8-1.6-9.9-3.6-7.8-3.1-12.9-5.2-25.2-10.5-1.1-.5-5.1-2.2-9-3.8-19.5-8-29.8-12.1-37.5-15.1-4.7-1.8-11.4-4.5-15-6-3.6-1.4-9.9-3.9-14-5.5s-8.1-3.3-8.8-3.8c-1.8-1.4-16.3-7.4-25.7-10.6-4.4-1.6-10.6-4-13.8-5.5-3.2-1.4-6-2.6-6.3-2.6-.3 0-2.9-1.1-5.7-2.5-4.1-1.9-32.7-13.6-45.4-18.6-2-.7-2.3-.5-2.3 1.6zm13 20c0 .8-.4 1.5-1 1.5-.5 0-1-.7-1-1.5s.5-1.5 1-1.5c.6 0 1 .7 1 1.5zm5.2 2.7c-.7.7-1.2.8-1.2.2 0-1.4 1.2-2.6 1.9-1.9.2.3-.1 1.1-.7 1.7zM52 176.3c0 2.1-1.2 2.8-2.7 1.6-1.9-1.6-1.6-2.9.7-2.9 1.1 0 2 .6 2 1.3zm49.2 6.7c2 .6 2.6 1.4 2.1 2.5-.4 1.2-.9 1.3-1.6.6-.6-.6-2-1.1-3-1.1-1.6 0-1.8.5-1.4 2.9.4 2 .2 3.1-.8 3.4-.7.3-1.5 1.6-1.7 2.8-.4 2.7-2.8 3.8-2.8 1.2 0-1 .6-2.9 1.3-4.3 3-5.7 2.8-6.2-.9-3.4-1.9 1.5-3.9 3.5-4.5 4.6-1.4 2.6-3.2 2.3-2.3-.5.7-1.9 1-4.3 1.3-8.5.1-.6 1-2.1 2.1-3.2l2.1-2.1 3.7 2c2 1.2 4.9 2.5 6.4 3.1zm16 6.1c4.1 2.1 4.1 2.2-1.6 7.8-.9.9-3 2.9-4.7 4.6-2.4 2.5-3.1 2.7-3.9 1.5-.9-1.5.9-5.7 4.5-9.9l2-2.3-2.2-1.5c-1.3-.9-2.3-2-2.3-2.5 0-1.1 3.1-.2 8.2 2.3zm-9.2 3.3c0 .5-1 1.9-2.2 3-1.3 1.2-2.8 3.1-3.4 4.1-1.3 2.3-3.4 1.2-3.4-1.7 0-1.2 1-3.6 2.2-5.3 1.9-2.8 2.4-3 4.4-2.1 1.3.6 2.4 1.5 2.4 2zm26.5 3.5c2.2 1 6.5 2.5 9.5 3.5 11.1 3.5 18.1 6.9 17.8 8.5-.5 2.1-4.8 1.7-6.8-.7-.8-1-2.3-1.6-3.2-1.4-1.6.3-3.7-.4-13.3-4.7-17.1-7.6-17.4-7.8-15.9-9.4.6-.5 2.3.1 11.9 4.2zm-11.1 1.7c.9.3 1.6 1.2 1.6 1.8 0 .8 1 1.1 2.8.8 1.8-.2 3.3.2 4.1 1.2.8.9 2.2 1.6 3.2 1.6 1.1 0 2.7.8 3.7 1.7 1 1 3.3 1.9 5.1 2 5.2.2 5.8 1.6 2.6 6.3-3 4.3-5.3 4.2-3.6-.3.9-2.2.6-2.8-1.5-4.2-3.1-2-6.9-1.3-8.4 1.5-.6 1.1-1.7 2-2.5 2-1.8 0-1.8-.8 0-4s2-5.9.3-4.2c-.7.7-2 1.2-2.9 1.2-.9 0-2.3 1-3.2 2.2-.8 1.3-1.8 2-2.3 1.5-.4-.4-.2-1.3.4-1.9 2.2-2.2 1.4-4.8-1.3-4.8-1.8 0-2.8.7-3.5 2.5-1 2.6-2.4 3.2-3.5 1.5-.8-1.3 4.2-9 5.9-9 .8 0 2.1.3 3 .6zm45.7 11.4c2.5 1.4 2.4 3-.2 3-2.8 0-6.1-1.9-5.4-3.1.8-1.2 3.2-1.2 5.6.1zm-13.1 2c1.8 1 1.8 1.1-.6 3.5-1.3 1.3-2.4 3.1-2.4 4 0 .8-.7 1.5-1.5 1.5-1.7 0-2-3.5-.4-4.6.6-.3.9-1.7.6-3-.5-2.6 1.1-3.1 4.3-1.4zm22.6 2.5c1.9 1.4 1.9 1.4-.3 1.5-2.8 0-5.3-1-5.3-2.1 0-1.4 3.4-1.1 5.6.6zm-12.8.1c2.7.8 2.9 2.4.4 2.4-2 0-4.5 2.4-5.5 5.3-.8 2.1-3.1 1.8-3.5-.4-.3-1.9 3.5-7.9 5-7.9.7 0 2.3.3 3.6.6zm9 3c2.5 1.7 2.1 3.4-.9 3.4-1.1 0-3 1.1-4.3 2.5-2.1 2.3-4.6 3.3-4.6 1.9 0-1.9 5.5-9.4 7-9.4.3 0 1.6.7 2.8 1.6zm11.7-.2c1.9.8 3.5 1.9 3.5 2.4 0 1.4-4.3 5-6.5 5.4-1.1.2-2.6 1.6-3.3 3.1-1.1 2.2-1.6 2.5-3.2 1.7-3.4-1.8-3.2-3 1.2-8.5 2.4-3 4.4-5.4 4.6-5.5.1 0 1.8.7 3.7 1.4zm14.4 6.2c3.6 1.4 7 3 7.6 3.5.5.5 1.8.9 3 .9 2.6 0 6.5 2.9 4.8 3.6-1.7.8-6.4 5.2-6.2 6.1 0 .4-.5.9-1.1 1.1-.7.3-1-.3-.8-1.4.2-1.1-.3-2.5-1.2-3.2-1.3-1.1-1.3-1.3.3-2.3 1.8-1.1 2.4-3.9.7-3.9-.5 0-1.5.9-2.2 2-.8 1.3-2.4 2-4.2 2-1.6 0-3.5.8-4.2 1.7-.9 1.3-1.6 1.5-2.3.8-.8-.8-.2-2.1 2-4.4 3.1-3.4 3.3-5.6.2-2.8-1.1.9-2.8 1.3-4.5 1-2.2-.4-3 0-3.9 2.1-1.2 2.5-3.9 3.7-3.9 1.7 0-1.5 7.3-11.1 8.4-11.1.5 0 3.9 1.2 7.5 2.6zm27.1 10.3c3 1.1 8 2.9 11 4.1 3 1.2 7.8 2.6 10.5 3.2 6.7 1.3 24.5 9.3 24.5 11 0 .5-.7 1.1-1.6 1.5-.8.3-2 1.6-2.5 2.9-1.1 2.9-2.5 3.1-3.2.4-.3-1.3-1-1.8-2.1-1.4-.9.3-1.6.1-1.6-.5s.7-1.1 1.6-1.1c.9 0 1.4-.7 1.2-1.7-.4-2.3-2.3-2.7-4.1-.8-.9.8-2.2 1.5-3 1.5-.9 0-2.4 1.2-3.5 2.7-2.8 3.9-3.6 2.4-1.8-3.1.9-2.6 1.6-4.9 1.6-5.2 0-1.3-5.9 3.8-6.5 5.6-.4 1.1-1.3 2-2.2 2-1.1 0-1.3-.5-.8-1.8.4-.9 1-2.7 1.2-4 .8-3.4-2.3-2.8-4.2.8-.9 1.6-2 3-2.5 3-1.9 0-2-2-.3-4.7 1-1.5 1.2-2.4.5-1.9-.7.4-2 .2-2.9-.5-1.3-1.1-1.7-1-2.9.5-.7 1-1.5 2.4-1.7 3-.2.6-.8.7-1.3.3-.4-.4-.2-1.7.5-2.8 1.8-2.9.4-3.8-1.5-1-1.2 1.6-1.9 2-2.7 1.2-.6-.6-2.1-1.1-3.4-1.1-3.2 0-2.9-2.4.5-4.1 1.5-.7 3-1.5 3.4-1.7.3-.2.4.6.1 1.7-.3 1.2-.1 2.1.5 2.1 2.3 0 4.2-1.3 4.2-2.9 0-1.3.2-1.3.9-.2.6 1 1.4 1.1 2.6.3 1.6-.8 1.3-1.2-2.1-2.7-2.1-.9-4.7-2.1-5.6-2.6-1-.5-3.1-.9-4.7-.9-2.6 0-6.1-2.1-6.1-3.7 0-.7 3.3.1 10 2.6zm24.5.1c.3.5.2 1-.4 1-.5 0-1.3-.5-1.6-1-.3-.6-.2-1 .4-1 .5 0 1.3.4 1.6 1zm9.2 1.5c-.4.8-1.4 1.5-2.3 1.5-1.6 0-1.6-.2.1-2 2-2.2 3.1-2 2.2.5zm-38.7 3c0 1.6-7.3 4-9.7 3.1-2.9-1.1-.1-2.7 3.7-2.1 2.9.5 3.9.3 4.3-.9.8-2 1.7-2.1 1.7-.1zm50 .5c0 .5-.4 1-.9 1-.6 0-1.3-.5-1.6-1-.3-.6.1-1 .9-1 .9 0 1.6.4 1.6 1zm7.4 15.3c1.6 1.2 1.7 1.4.1 2.7-.9.7-2.2 2.8-3 4.7-1.6 3.9-3.5 4.3-3.5.9 0-1.3-.3-3.1-.6-4-.4-1.1-.1-1.6 1.1-1.6 1.2 0 1.5-.5 1-2s-.2-2 1.2-2c1.1 0 2.7.6 3.7 1.3zm8.1 3c1.9 1.4 1.3 3.7-.9 3.7-.6 0-1.6 1.5-2.1 3.2-.7 2.2-1.7 3.4-3.2 3.6-1.8.3-2.1-.1-2-3.2.1-2.4.6-3.8 1.8-4.1.9-.3 1.9-1.5 2.2-2.5.6-2.3 1.6-2.5 4.2-.7zm7.1 3.2c1.6 1.3 1.7 1.6.4 2.5-2.3 1.5-4.5.7-4.8-1.8-.4-2.6 1.5-2.9 4.4-.7zm10.4 3.9c6.7 2.5 8.5 4.9 3.9 5.4-1.5.2-3.2-.5-4.4-1.8-1-1.1-2.8-2-4.1-2-2.5 0-3.9-1.4-2.9-3 .8-1.2-.2-1.4 7.5 1.4zm-13.3 1.2c.6 1.6-3.1 6.3-4.2 5.3-.3-.3-.2-2 .1-3.7.7-3.4 3-4.3 4.1-1.6zm7 3c.5 1.5-2.1 5.3-3.1 4.3-.7-.7.6-5.9 1.5-5.9.6 0 1.2.7 1.6 1.6zm4.4 6.7c-.8.8-1.1.4-1.1-1.4 0-3.3 1.4-4.7 1.8-1.9.2 1.2-.1 2.7-.7 3.3zm10.2-1.7c.9.9-1.5 5.4-2.9 5.4-2.2 0-2.7-2.1-.8-4.1 1.8-2 2.7-2.3 3.7-1.3zM430.6 311c.6.6 3.9 1.9 7.5 2.9 17.4 5 36.7 17.5 23.8 15.5-3.5-.6-4.1-.4-4.6 1.5-.6 2.3-1.1 2.5-3.2 1.2-1-.6-1.1-1.3-.2-2.9 1.6-3.1 1.3-3.7-.8-1.8-1.1 1-2.7 3.4-3.7 5.4-1 2.1-1.9 3.2-2.1 2.5-.3-.7.1-2.1.7-3.3.9-1.6.8-2.1-.5-2.6-.8-.3-2.2-.4-3 0-2.5.9-1.7-2.1 1.6-5.9 1.8-2 2.9-3.9 2.5-4.2-1.1-1.1-5.5 1.9-5.8 4.1-.2 1.6-.9 2-3 1.8-1.9-.2-3.1.4-4 1.8-1.5 2.3-4.8 2.7-4.8.5 0-.8 1.1-2.2 2.5-3.1 1.4-.9 2.5-2.1 2.5-2.8 0-.7-.4-.6-.9.2-.7 1.1-.9 1.1-1.4-.2-.4-.9-1.3-1.6-2.2-1.6-2 0-1.9-2.4.1-4.5.9-.9 1.4-1.9 1.1-2.2-.4-.3-1.8.8-3.2 2.6-1.7 1.9-3.4 3-4.8 2.8-1.4-.1-2.5.6-3.2 2-1.3 3.1-3.3 2.9-2.8-.2.6-3.1 7.2-10.5 9.3-10.5.9 0 2.1.5 2.6 1zm-18.2 5.4c-.6 1.6-2.4 2.3-2.4.8 0-1 2.2-3.3 2.7-2.8.2.2.1 1.1-.3 2zm-41.4 6c0 .8-.4 1.8-1 2.1-.5.3-1-.3-1-1.4 0-1.2.5-2.1 1-2.1.6 0 1 .6 1 1.4zm12.5 6.6c.3.6 0 1-.7 1-1.5 0-3.8-1.9-3.8-3.2 0-1 3.6.8 4.5 2.2zm92.5 3.4c0 .7-.8 1.6-1.7 1.9-1 .2-2.6.8-3.5 1.2-2.9 1.2-2.1-1.3 1-2.9 3.4-1.9 4.2-1.9 4.2-.2zm-33 0c0 .3-.4.8-1 1.1-.5.3-1 .1-1-.4 0-.6.5-1.1 1-1.1.6 0 1 .2 1 .4zm21.9 4.7c1 .8 2.5 1.8 3.4 2.2 1.9.7 2.3 4.2.7 5.2-.5.3-1-.1-1-.9 0-2-1.9-3.1-3.3-1.7-1.9 1.9-2.9 1.2-2.3-1.4.9-3.6-2.1-4.6-4.4-1.5-1.2 1.6-1.9 1.9-2.5 1.1-.4-.8.4-2.4 2-4.1 2.9-3 2.9-3 7.4 1.1zm22.3 2.5c1.8 1.1.7 2.4-2.1 2.4-1.6 0-3.9-.9-5.2-2.1l-2.4-2 4.4.6c2.4.3 4.8.8 5.3 1.1zm2.1 14.8c1.7 1.3 2.4 4.6.9 4.6-1.6 0-5.2-3.2-5.2-4.6 0-1.7 1.9-1.8 4.3 0zM0 195.8c0 1.4 1.8 2.4 7.3 4.1 11.2 3.6 24 9.2 44.7 19.7 2.5 1.2 8.1 3.5 12.5 4.9 4.4 1.5 10.3 3.7 13 5 2.8 1.2 7.5 3 10.5 4 3 .9 8.2 3 11.5 4.5 3.3 1.5 10.1 4.4 15 6.5 5 2 10.4 4.4 12 5.2 5.8 3 6.5 3.3 8.5 3.3 1.1 0 2.5.8 3.1 1.8.8 1.2 2.1 1.7 3.8 1.5 3.8-.5 5.9 1.1 4.2 3.1-1.7 2-.7 2.1 1.3.1 1.3-1.4 2-1.3 6.2.1 2.7.9 9 3.6 14.1 6s9.7 4.4 10.3 4.4c.6 0 1.8.4 2.8.9.9.5 3.7 1.4 6.2 2.1 2.5.6 8.6 3.1 13.5 5.4 8.1 3.9 23.2 9.2 40 14.1 3.3 1 8.1 2.8 10.7 4.1 2.6 1.3 5.3 2.4 6.1 2.4.7 0 2.2.7 3.3 1.5 1.6 1.2 1.7 1.6.4 2.4-.8.6-1.1 1.3-.7 1.7.4.4 1.3.2 1.9-.4 1.8-1.8 4.9-1.5 10.4 1.2 2.7 1.3 6.7 3.1 8.9 4 2.2 1 5.8 2.5 8 3.5s5.8 2.5 8 3.4c9.5 3.6 13.1 5.2 14.6 6.4.9.7 1.8 1 2.2.7.5-.6 4.2 1.1 24.3 10.7 4.5 2.1 8.6 3.9 9.1 3.9.9 0 3.3.9 13.3 5.2 4.3 1.8 10.4 5.1 13 6.9 1.4 1 4.8 2 7.5 2.3 2.8.2 8.8 2 13.5 3.8 14.6 6 25.3 9.7 29.7 10.4 2.9.4 5.8 2 9.2 4.9 4.9 4.2 5 4.3 3.1 6-1.8 1.7-2.2 1.7-3.7.2-1-.8-3.1-1.9-4.8-2.3-1.6-.4-3.6-1.1-4.3-1.7-.9-.7-1.6-.7-2.4.1-1.5 1.5-.2 4.5 1.7 3.9.9-.4 2 .5 3 2.5 1.3 2.7 1.3 3.4.1 4.6-1.1 1.2-1.8 1.2-4.4-.2-1.7-.9-4-1.6-5.1-1.6-2.3 0-11.1-3.6-11.1-4.6 0-.3 1.2-.3 2.8 0 1.9.5 2.3.4 1.2-.3-1.2-.8-1.2-1.3-.2-2.3 1.9-1.9 1.5-2.6-2.8-3.9-3.5-1.1-4.2-1-6 .6-1.6 1.4-2 1.5-2 .4 0-.8.5-2 1.2-2.7.9-.9.7-1.3-.7-1.8-1.3-.5-2.3-.1-3.3 1.4-.8 1.2-2.3 2.2-3.3 2.2-2.2 0-2.4-1.1-.7-2.8.9-.9.9-1.5 0-2.4-.9-.9-1.6-.8-3 .5-1 .9-2.6 1.7-3.6 1.7-1.4 0-1.6-.6-1.1-3 .7-3.4-.7-4-3.6-1.5-2 1.9-7.8 1-6-.8 3.3-3.3-.7-5.1-4.2-2-1.9 1.7-2 1.7-.8-.4 1.4-2.7 0-3.7-2.5-1.8-2.5 1.9-3.8 1.9-3 0 1-2.6-.5-4.5-3.6-4.5-1.6 0-6.9-2-11.7-4.5-4.8-2.5-9.2-4.5-9.9-4.5-.6 0-.9-.7-.6-1.5.4-.9-.1-1.8-1.1-2.2-1.3-.4-2.4.2-3.7 2-1.1 1.5-2.4 2.4-3 2.1-.5-.4-.4-1.2.4-2.2.8-1 1.9-2.9 2.6-4.4 2-4.8-.8-4.6-5 .3-3.1 3.5-3.8 4-3.8 2.3 0-1.1.5-2.5 1.1-3.1.6-.6.8-1.6.5-2.2-1.3-2-4.3-1.2-6.2 1.6-1.1 1.7-1.9 2.3-2.2 1.5-.2-.7.1-1.9.8-2.7 2.7-3.2-2.8-4.9-6.1-1.9-2.4 2.1-5.8 1.1-3.6-1 .7-.8 1.3-2.5 1.2-3.8-.1-1.8-.9-2.4-3.4-2.8-1.7-.3-3.2-1-3.2-1.5.1-.6-1-1.3-2.2-1.6-1.7-.5-3.1.1-5.1 2.2-2.4 2.3-3.2 2.6-4.8 1.8-1.5-.8-1.9-1.8-1.5-3.7.3-1.5 0-3.5-.8-4.5-1.2-1.7-1.4-1.6-3.4.9-1.2 1.5-2.1 3.1-2.1 3.5 0 1.2-2.7 1.1-3.5-.1-.3-.5-.1-1.8.5-2.9.8-1.7.6-2.2-1.2-3.2-1.8-1-2.4-.8-4 1.1-2 2.4-2.8 1.4-2.5-3 .3-3.5-2.9-3.9-4.4-.6-1.6 3.4-3.1 3.3-1.8-.1 2-5.4-1.5-7.3-4.9-2.6-1.3 1.8-2.4 2.4-3.7 1.9-1.7-.6-1.7-1.7 0-7.3.6-1.8.4-2.1-1.4-1.6-1.2.3-3 1.6-4 2.9-3.3 4.2-6.9 2.7-5.1-2 .8-2.2.6-2.7-1.2-3.7-1.8-.9-2.4-.8-3.4.6-.7 1-1.5 2.3-1.7 2.8-.2.6-1.1.7-2.1.4-1.5-.6-1.7-1.5-1.3-4.2.9-5.8-3.3-7.3-5.3-1.9-1.4 3.6-3 2.9-2.3-1.1.7-4.6-2-6-4.9-2.4l-1.9 2.4.7-3.6c.6-3.9-.7-5.8-2.9-4.1-.7.5-2.7 1.2-4.4 1.4-3.4.5-4.3-.8-2.1-3 .9-.9.9-1.5 0-2.4-.9-.9-1.7-.7-3.5 1-3 2.9-4.1 2.8-3.3-.3.6-2.3.4-2.5-2.8-2.5-1.9 0-3.8.4-4.1 1-.9 1.5-2.5 1.2-2.5-.5 0-2.4-3.1-3.1-4.5-1.1-.8 1.1-1.5 1.3-2 .7-.3-.6-1.5-1.1-2.6-1.1-2.3 0-2.5-1.5-.3-2.4 2.6-1 .1-3.1-6.9-5.6-3.4-1.3-9.8-4-14.2-6-11.3-5.4-15.6-7.1-18.5-7.5-1.4-.2-4.7-1.3-7.3-2.4-6.6-2.8-8.4-2.7-10.2.9-1.7 3.3-4 4.1-3.1 1.2.5-1.3-.1-2.2-1.9-3-2.3-1.1-2.7-.9-3.5 1.1-1 2.5-1.3 1.7-1-2.9.1-1.8-.3-3.4-.8-3.8-1.2-.7-5.2 2.2-5.2 4 0 .8-.4 1.4-.9 1.4-1.2 0-.8-5.1.7-7.8 1.1-1.9 1-2.3-.3-2.8-2.6-1-4.4.4-5.1 4-.3 2.1-1.2 3.6-2 3.6-1.9 0-1.8-4 .2-6.9 1.4-1.9 1.4-2.5.3-3.2-1.5-.9-5.9 2.6-5.9 4.7 0 1.9-2 2.8-3.3 1.5-.7-.7-.6-1.6.6-2.9.9-1 1.7-2.3 1.7-2.9 0-1.9-3.2-2.4-5-.8-1.2 1.1-1.9 1.2-2.8.3-.9-.9-1.2-.9-1.2 0 0 .7.5 1.2 1 1.2.6 0 1 .7 1 1.5 0 1.7-2.5 2.1-3.5.5-.3-.5.1-2.3 1-3.9 1.9-3.7 1.9-3.7-.1-4.5-.9-.3-2.8.3-4.4 1.4-3.8 2.7-4.6 2.5-2.5-.6 2.8-4.3.3-5.3-3.6-1.5-3.5 3.6-6 3-3.9-.9.8-1.5.9-2.5.2-3.2-1.5-1.5-4.1-.2-5.2 2.6-.8 2.3-1.1 2.4-3.9 1.3-3.6-1.3-3.8-2-1.2-5.4 1.9-2.3 1.9-5.3-.1-5.3-1.1 0-5.8 4.9-5.8 6.1 0 1.5-4 1-4.6-.6-.4-.8.1-2.6 1-4s1.4-3 1.1-3.5c-1.2-2-3.6-.9-5.6 2.5-3.3 5.6-5.9 4.2-3.4-1.8 1.2-3 1.2-3.7.1-4.6-1.7-1.4-4.3.8-5.2 4.5-.3 1.3-1 2.4-1.4 2.4-1.8 0-2-2.1-.5-4.9 1.9-3.7 1.9-4.1-.1-4.1-.8 0-2.8 1.4-4.4 3.2-3.6 3.9-4.9 3-2.7-1.7 2.2-4.6 2.1-5.5-.3-5.5-1.3 0-2.6 1.2-3.7 3.5-.9 1.9-2.3 3.5-3 3.5-1.7 0-1.6-1 .2-3.4 2.1-2.8 1.9-3.6-.9-3.6-1.4 0-3.2 1-4 2.2-2 2.8-3 1.9-1.7-1.5 1.2-3.1.1-4.2-3.3-3.3-1.8.4-2.5.1-2.9-1.4-.7-2.8-3.3-2.5-5.3.5-.9 1.4-2.2 2.5-2.9 2.5-1.9 0-2.8-3.5-1.6-5.9 1.3-2.4 1.4-6.1.3-6.1-1.4 0-4 3.2-5.1 6.3-.6 1.6-1.5 2.5-2.1 2.2-.5-.3-1 0-1 .7.1 1.2 6.9 4.7 17.5 8.7 5.9 2.3 20.8 8.3 28 11.2 2.8 1.2 9.7 3.9 15.5 6 5.8 2.2 16.1 6.4 23 9.4 6.9 3 20.6 8.6 30.5 12.5 29.2 11.6 31.6 12.7 39.5 16.3 8.7 4.1 26.3 10.3 43.4 15.3 19.5 5.8 28.3 9.5 31.7 13.7 2.8 3.3 2.9 3.8 1.2 4.3-5.3 1.6-6.5 4-3.9 7.9 1.2 1.8 2.6 2.5 4.9 2.5 2.7 0 3.5.6 5.2 3.8 1.5 2.7 2.7 3.8 4.8 4 3.5.4 5.7-1.3 5.7-4.3 0-1.2 1-2.9 2.2-3.7 2-1.3 2.1-1.8 1-4.2-2.1-4.6-1.1-4.3 33.3 10.3 6.6 2.8 12.3 5.1 12.8 5.1 1.1 0 19 7.7 39.7 17.2 9.6 4.4 26.5 11.5 37.5 15.8 11 4.2 24.4 10 29.8 12.8 5.4 2.8 11.5 5.4 13.5 5.8 2 .4 4.7 1.3 5.9 2.1 1.2.8 2.9 1.3 3.9 1.1 1.3-.2 2.3 1 3.6 4.6 2.8 7.4 5.4 10.4 9.9 11.6 5.9 1.6 9.1-1.6 5.4-5.4-2-2-1.9-3.3.5-3.9 2.3-.6 2.6-2.5.6-5.2-1-1.3-3-2-7.5-2.3-5.1-.4-6.1-.7-6.1-2.3 0-1.2.5-1.6 1.5-1.2.9.3 2.4-.2 3.5-1.2 2.7-2.5 7.9-.5 11.9 4.5 1.8 2.2 3.8 4 4.6 4 2.1 0 1.8-1.3-.5-2.8-2.6-1.6-2.6-3.2 0-3.2 1.3 0 2.4 1 3 2.5 1.3 3.3 3.4 3.3 2.6 0-.5-2.1-.2-2.7 1.9-3.5 3-1.1 4.2-3.5 2.6-5.3-1.4-1.7-10.4-1.5-14.8.3-4.4 1.9-8.3.2-8.3-3.6 0-5.1-11.1-13.4-17.8-13.4-3.3 0-17.4-4.9-29.9-10.4-4.5-2-9.6-3.6-11.3-3.6-1.8 0-5.6-1.3-8.4-3-2.9-1.6-13.1-6.3-22.7-10.4-9.6-4-24.1-10.3-32.4-13.9-8.2-3.5-19-8.1-24-10.2l-28-12c-10.4-4.6-27.1-11-37-14.3-9.9-3.3-21.1-7.6-25-9.5-3.8-1.9-9.9-4.4-13.5-5.5-8-2.5-20.1-7.1-21.5-8.1-.5-.5-6.4-2.7-13-5s-12.4-4.6-12.9-5.1c-2-2 .6-2.3 4-.5 3.3 1.7 3.8 1.8 6.2.4 2-1.1 2.7-2.3 2.8-4.7 0-1.7.3-3.5.7-3.8 1.5-1.6.5-5.2-2.1-7.7-3.1-3-6.3-3.5-8.2-1.2-.8.9-2.2 1.2-4.1.8-3.3-.6-3.7-.1-4.1 7.2l-.4 5-4.7-.2c-2.6-.2-6.5-1.2-8.7-2.3-2.2-1.1-4.4-2-5.1-2-.6 0-3.4-1.2-6.3-2.6-4.3-2.2-15.9-6.8-47.1-18.9-6.6-2.5-19-8-21.7-9.5-1-.6-2.3-1-2.9-1-.5 0-2.5-1.1-4.2-2.4-1.8-1.3-5-2.9-7.2-3.6-2.2-.7-5.6-2.1-7.5-3-3.2-1.6-21.2-8-22.5-8-.3 0-.5.8-.5 1.8zm18 23.8c0 .8-.5 1.2-1 .9-.6-.4-.8-1.1-.5-1.6.9-1.4 1.5-1.1 1.5.7zM153.5 239c.4.6-.5 1-2 1s-2.4-.4-2-1c.3-.6 1.2-1 2-1s1.7.4 2 1zm-13.9 26c.5.5 4.4 1.9 8.5 3 7.8 2 15.6 5.3 19.7 8.2 2 1.4 2.2 1.9 1.2 3.7-.6 1.2-1.5 1.9-2.1 1.5-.6-.4-.5-1.1.3-2.1 1.1-1.3.6-1.5-3.7-1.2-4.9.4-5 .4-5-2.5 0-3.6-1.6-4.3-4-1.6-1.4 1.5-2.1 1.7-3.2.9-.7-.6-1.3-1.8-1.3-2.6 0-1.9-2.7-2.8-4.5-1.3-1.2 1-1.5.9-1.5-.8 0-2.3-4.1-4.3-4.8-2.3-.4 1.3-2.9 1.5-3.6.2-.9-1.3.4-4.1 1.8-4.1.7 0 1.6.4 2.2 1zm36.9 16c-.3.5-1.1 1-1.6 1-.6 0-.7-.5-.4-1 .3-.6 1.1-1 1.6-1 .6 0 .7.4.4 1zm5.9.9c.3.4-.1 1.6-.8 2.6-1.3 1.7-1.3 1.7-1.3-.8 0-2.6 1-3.6 2.1-1.8zm61.7 35.8c1.3 1.5 1.2 1.5-1.1.3-3.4-1.7-3.6-2-1.8-2 .9 0 2.2.7 2.9 1.7zm57.9 10.8c-.7.8-1 2.2-.6 3 .3.8.1 1.5-.4 1.5-1.1 0-1.4-4.3-.3-5.3 1.3-1.4 2.5-.7 1.3.8zm36.5 20.5c.3.5.1 1-.4 1-.6 0-1.1-.5-1.1-1 0-.6.2-1 .4-1 .3 0 .8.4 1.1 1zm66.7 26.2c-.7.7-1.2.8-1.2.2 0-.6.3-1.4.7-1.7.3-.4.9-.5 1.2-.2.2.3-.1 1.1-.7 1.7zm37.6 26.4c-1.3 1.2-5.7-.6-7.2-2.9-.8-1.2-1.8-3.6-2.2-5.2-.7-2.9-.5-2.8 4.7 2.2 2.9 2.8 5 5.5 4.7 5.9zm1.2-8.6c0 .5-.6 1-1.4 1-.8 0-1.8-.5-2.1-1-.3-.6.3-1 1.4-1 1.2 0 2.1.4 2.1 1z"/><path d="M.1 208.2c.1 4.2.3 4.8.9 2.8 1.2-3.6 1.2-8 0-8-.6 0-1 2.4-.9 5.2zM0 268.9c0 2.1 6.8 5.4 13.5 6.6 2.2.4 4.5 1.1 5 1.5.6.5 5.5 2.6 11 4.9 5.5 2.2 12.6 5.4 15.8 7.1 3.2 1.6 6.3 3 6.8 3 1 0 8.4 3.6 17.3 8.4 2.7 1.4 5.3 2.6 5.8 2.6 1 0 14.1 5.4 17 7 1 .6 2.6 1 3.6 1s2.2.4 2.7.8c.6.5 4.2 2.1 8 3.7 3.9 1.6 8.8 3.6 11 4.6 6.6 2.9 22.4 8.9 23.5 8.9.6 0 3.9 1.4 7.3 3.1 3.4 1.7 9.8 4.4 14.2 5.9 9.2 3.3 18.1 6.6 21 8 5.8 2.8 21.9 9.5 27.8 11.7 8.4 3 15.7 7.3 15.7 9.2 0 1 .3 1.1 1.3.2 2.3-1.9 8.1.2 14.2 5.3 3.2 2.6 3 4.5-.3 2.7-3-1.6-7.2-1.4-7.2.3 0 .8.4 1.7.9 2 .5.4.5 1.9-.2 3.6-1.2 3.2-2.7 4-2.7 1.5 0-1.3-1-1.9-3-1.7-.3 0-.6-1.1-.5-2.6 0-4-3.3-4.2-4.8-.3-1.3 3.7-4.4 3.9-3.9.3.4-2.5-2.5-3.1-4.6-1-1.4 1.4-4.9-1.4-6.3-5-.8-2-1.4-2.3-3.8-1.7-2.3.5-2.9.2-3.4-1.4-.3-1.5-1.3-2.1-3.2-2.1-1.4 0-2.4.4-2.1.9.9 1.4-1.8 3.1-3.4 2.1-1.2-.8-1.3-1.3-.3-2.9 1-1.5.9-2.2-.2-3.1-1.5-1.2-5.5.2-5.5 2 0 .6-.4 1-.8 1-.5 0-.7-1.3-.4-2.8.2-1.7-.2-3.3-1.1-4-1.2-1.1-1.9-.8-3.5 1.3-2.6 3.3-3.3 3.2-2.6-.5.6-2.6.4-3-1.5-3-1.2 0-2.4.7-2.7 1.5-.8 2.1-3.6 1.9-3.2-.3.5-2.9-1-4.4-3.3-3.1-2.9 1.5-5.2.4-4.4-2.1.9-2.7-2-3.8-4.4-1.6-2.6 2.4-3 2-2.4-2.1.7-4 0-4-4.5 0-1.6 1.5-2.5 1.8-3.3 1-1.2-1.2-.3-5.3 1.2-5.3.5 0 .9-.5.9-1 0-1.6-5.2 0-7.7 2.2-2.7 2.5-4.1 1.7-3.5-2 .6-4.3-1.6-5.1-4.3-1.8-3.6 4.5-4 1.2-.5-3.9 1.7-2.5 2.7-4.5 2.2-4.5-.6 0-1.3.7-1.6 1.6-.4 1-1.2 1.4-2.2 1-1-.4-2.6.5-4.4 2.4-3.9 4.2-5.4 3.9-4.7-1 .7-5.1-.9-6-4-2.4l-2.4 2.9.5-3.2c.7-4.5-1.7-6.3-3.9-2.9-2.2 3.3-3.9 3.4-3.1.2.8-3.2-1-4.3-3.4-2.1-2.9 2.6-5.3 1.2-4.5-2.5.8-3.5 0-3.8-3-1-3.1 2.9-5.8 1.7-5-2.1.8-3.4-.4-3.7-3-.9-3.5 3.9-6 1.6-3.4-3.2 2-3.7-.6-4.2-3.6-.7-3.5 4.2-6.1 3-5.8-2.5.3-4.3-.9-4.5-4.2-1-2.1 2.3-2.6 2.4-3.1 1-.3-.9-.3-2.3 0-3.1.9-2.4-2.4-3.2-4.1-.9-1.1 1.5-1.7 1.6-3.1.7-.9-.6-1.6-1.8-1.4-2.6.3-2-1.7-3.2-3.1-1.8-1.8 1.8-4.7 1.3-4.7-.8 0-1.1-.5-2.3-1.1-2.7-.8-.5-.8-.8 0-1.3.7-.5.9-2 .5-3.8-1-5-7.3-5.5-7.4-.7 0 .6 1.1 2.3 2.5 3.8 2 2.1 2.2 2.8 1 3.2-.8.3-2.7.2-4.2-.4-2.4-.8-2.8-1.4-2.5-4 .4-3.7-.4-4-3.4-1.1l-2.2 2.1.5-4.1c.5-3.3.3-4.1-1-4.1-.9 0-2.4 1.4-3.2 3.1-1.1 2-2.1 2.9-3.1 2.5-.9-.3-1.8-.6-2-.6-.2 0 .5-1.8 1.6-4 1.8-3.5 1.9-4.1.5-4.6-2-.8-4.1 1-5 4.3-.4 1.9-.9 2.3-1.8 1.4-.8-.8-.8-2 .2-4.7.7-1.9 1-3.8.7-4.1-1-1.1-3.6.7-4.6 3.1-1 2.6-3 4.4-3 2.6 0-.6.7-2.5 1.6-4.1 1.6-3.1 1.3-5.9-.6-5.9-.6 0-1.3.8-1.7 1.7-.7 2.2-4.4 6.3-5.5 6.3-.5 0-.4-.9.2-2 .9-1.6.8-2.2-.6-2.7-1-.4-2.2 0-2.9 1-1.4 2-2.7 2.1-4.2.6-.8-.8-.9-1.6-.1-2.9 1.2-1.9.5-5-1.1-5-1.8 0-5.1 4.3-5.1 6.5 0 1.4 1 2.6 2.7 3.5 4.6 2.1 19.1 7.9 32.8 13 12.3 4.6 17.3 6.7 34.3 14.6 4 1.9 7.5 3.4 7.7 3.4.8 0 14.9 6.5 36.3 16.8 16.1 7.7 20.4 10.2 20.8 12 .8 3-.2 3.9-2.6 2.4-2.9-1.8-4.8-1.5-6.1.9-.9 1.8-.7 2.5 1.4 4.6 2.5 2.6 5.3 2.3 4.3-.3-.3-.8-.1-1.4.4-1.4.6 0 .8 1.6.4 3.9-.4 2.8-.1 4.6 1.1 6.5 3.5 5.3 7.4 5.6 10 .5.8-1.5 2.5-2.9 3.7-3.1 1.8-.2 2.4-1.1 2.6-3.6.2-1.8-.2-4-.9-4.8-2.1-2.5 1.1-1.6 20.1 5.9 6.9 2.7 15.7 6.2 19.5 7.7 15.1 5.9 23.2 9.2 28.6 11.6 3.1 1.3 6.1 2.4 6.7 2.4.6 0 3.2 1.8 5.8 4.1 2.6 2.2 5.8 4.5 7.1 5 1.2.5 2.3 1.7 2.3 2.7 0 3.2 3 6.3 5.7 6 2.6-.3 3.6-1.4 4.8-5.2.5-1.8.8-1.6 2.6 1.3 2 3.3 7.3 6.3 9.6 5.4.7-.3 1.3-1.5 1.3-2.8 0-2.3 1.7-3.5 5-3.5 1 0 2.8-.9 4.1-2l2.4-2-3.4-3.1c-2.7-2.5-3.9-3-6.3-2.5-2.8.6-2.9.4-2.3-2.3.8-3.9-3.5-9.1-7.5-9.1-1.6 0-3.2.4-3.5 1-.3.5-1.3 1-2.2 1-1.1 0-1.4-.6-.9-2.4.5-1.9-.2-3.1-3.5-6-2.2-2-5.4-4.3-7.2-5-1.8-.8-8.2-3.7-14.4-6.5-6.2-2.8-11.5-5.1-11.9-5.1-1.1 0-18.7-7.1-22.4-9.1-1.9-1-9.1-3.8-16-6.3-6.9-2.4-17-6.5-22.5-8.9-5.5-2.4-14.5-6.1-20-8.2-5.4-2-13.8-5.4-18.5-7.5-4.7-2.1-12-5.2-16.2-7-4.3-1.8-7.8-3.6-7.8-4.1 0-1.3.4-1.2 4.5 1.2 2.9 1.8 4.1 2 6 1.1 1.3-.6 4-.8 5.9-.5 4.2.7 6.6-.9 6.6-4.3s-3.2-4.7-9.5-3.9l-5.2.6-.7-3.2c-1-5.1-3.2-6.9-6.6-5.7-3.6 1.2-4.8 4.3-2.6 6.7 2 2.2 2 3.7 0 4.5-4.4 1.7-10.6-.1-25.9-7.4-18.6-8.9-32-14.8-42-18.5-5.5-2-11.7-4.6-13.7-5.6-4.6-2.3-4.8-2.3-4.8 0zM92 294c0 2.1-1.5 2.7-2.5 1-.7-1.2.2-3 1.6-3 .5 0 .9.9.9 2zm15.5 6.9c.3.5.2 1.2-.3 1.5-1.2.7-5.2-.4-5.2-1.5 0-1.2 4.7-1.2 5.5 0zM96 303.1c0 .6-.4.7-1 .4-.5-.3-1-1.1-1-1.6 0-.6.5-.7 1-.4.6.3 1 1.1 1 1.6zm46.5 50.9c.3.5-.1 1-.9 1-.9 0-1.6-.5-1.6-1 0-.6.4-1 .9-1 .6 0 1.3.4 1.6 1zm2.7 6.5c1.2 1.6 0 1.8-3.2.5-3.3-1.4-3.2-1.2-2.4-3.5.6-1.4.8-1.4 2.8.2 1.1 1 2.4 2.2 2.8 2.8zm95.8 20.9c0 2.8-2.1 4.8-3.8 3.7-2-1.2-.4-6.1 1.9-6.1 1.3 0 1.9.7 1.9 2.4zm16 2.1c1 1.2 1 1.5-.3 1.5-2.5 0-4.7-1.1-4.1-2.1.8-1.4 3-1.1 4.4.6zm-10.7 2.4c-.6 2.4-5 6.7-5.9 5.8-.8-.7 4.3-7.7 5.6-7.7.4 0 .6.9.3 1.9zm19 8.8c-.7.2-1.9.2-2.5 0-.7-.3-.2-.5 1.2-.5s1.9.2 1.3.5z"/><path d="M.1 276.6c0 1.1.3 1.4.6.6.3-.7.2-1.6-.1-1.9-.3-.4-.6.2-.5 1.3zM.2 283c0 1.4.2 1.9.5 1.2.2-.6.2-1.8 0-2.5-.3-.6-.5-.1-.5 1.3zM58 298.8c0 .5.7 1.5 1.5 2.2.9.7 1.3 2.1 1 3.1-.8 2.6 2.1 2.5 3.4 0 1.1-2 .5-2.8-3.6-5-1.3-.6-2.3-.8-2.3-.3zM68.5 307c-1.1 1.7.5 3.2 2.1 1.9.7-.6 1.1-1.5.8-2-.7-1.2-2.1-1.1-2.9.1zM293.7 322.6c-.9 1 .2 2.4 1.9 2.4.8 0 1.4-.7 1.4-1.5 0-1.5-2.1-2.1-3.3-.9zM112 326c-.6 1.1-.8 2-.6 2 .3 0 1-.9 1.6-2 .6-1.1.8-2 .6-2-.3 0-1 .9-1.6 2zM341.7 340.7c-.4.3-.7 1.1-.7 1.7 0 .6.5.5 1.2-.2.6-.6.9-1.4.7-1.7-.3-.3-.9-.2-1.2.2zM347.8 342.2c-2.1 1.8-2.9 4.3-1.5 5.7.7.7 2 .1 4.4-2.4 1.8-1.9 3.3-3.6 3.3-4 0-1-4.6-.5-6.2.7zM352.5 347c-1 1.1-1.6 2.1-1.4 2.3 1.6 1.2 6.4 2.7 8.3 2.7 3 0 5.1-2.3 3.4-3.7-1-.8-7.3-3.3-8.3-3.3-.1 0-1 .9-2 2zM193.5 360c-.3.5-.1 1 .4 1 .6 0 1.1-.5 1.1-1 0-.6-.2-1-.4-1-.3 0-.8.4-1.1 1zM214 369c0 .5.5 1 1 1 .6 0 1-.5 1-1 0-.6-.4-1-1-1-.5 0-1 .4-1 1zM0 398.9c0 1.2.7 2.1 1.4 2.1.8 0 3.6 1.1 6.2 2.5s5.3 2.5 6.1 2.5c2.8 0 25.8 8 31.3 10.9.9.5 7.2 2.8 14 5.1 6.9 2.4 14.7 5.4 17.4 6.6 2.8 1.3 5.4 2.4 5.8 2.4.5 0 2.8.9 5.1 1.9 2.4 1.1 5.6 2.3 7.2 2.7 1.7.3 4.6 1.8 6.5 3.3 1.9 1.4 4.3 2.7 5.3 2.7 1 .1 2.8.6 4 1.1 1.2.6 3.5 1.6 5 2.2 2.8 1.1 2.8 1.2 1.3 3.5-4.2 6.6-8.6 9.2-5.5 3.4.8-1.6.8-2.2-.2-2.9-1.8-1.1-4.9.8-4.9 3.1 0 1.1-.5 2-1.1 2-.7 0-.9-1.2-.5-3.4.5-2.5.3-3.5-.8-3.9-1.6-.6-4.6 1.7-4.6 3.4 0 .5-.9.9-2 .9-1.3 0-2-.7-2.1-2-.1-1.1-.3-2.5-.4-3-.1-.6-.3-1.5-.4-2-.1-.7-.7-.7-2 0-2.7 1.4-3 1.3-2.4-.9.3-1.2-.2-2-1.6-2.4-1.2-.3-2.4-.1-2.7.4-.9 1.5-2.1 1-2.7-1.2-.4-1.5-1.1-1.9-2.6-1.4-1.5.4-2 .1-2.3-1.7-.2-1.3-1.6-2.9-3.3-3.8-1.6-.8-3.1-1.8-3.3-2.3-.2-.4-.8-.7-1.3-.7-.6 0-.8.4-.5.9.3.5-.5 1.6-1.9 2.5-1.4.9-2.5 2.5-2.5 3.6 0 2.5-2 2.5-7 0-2.2-1.1-5-2-6.3-2-1.4 0-4.7-.9-7.5-2.1-4.4-1.8-5.1-2.5-5.4-5.3-.4-3.8-3.6-5-4.5-1.6-.6 2.4-3.1 2.3-4.7-.3-.8-1.3-.7-2.4.6-4.7.9-1.6 1.3-3.2.8-3.5-1.7-1.1-5.8 1.4-6.4 3.9-.3 1.4-1.1 2.6-1.6 2.6-1.3 0-3-3.4-3-5.9 0-3.9-3.9-3.7-5.8.2-1 2.2-1.1 2.1-1.1-.4-.1-1.5.6-3.2 1.4-3.9 2-1.7 1.9-3-.3-3-1 0-2.4-.6-3.1-1.3-.7-.6-1.1-.8-1-.2.1.5-.5 2.7-1.4 4.7-1 2.1-1.7 4.2-1.7 4.8 0 .5-.4 1-1 1-1.5 0-1.2-5.8.5-8.4 1.4-2.1 1.4-2.5-.1-3.7-1.4-1.2-1.9-1-4 1.6-3.5 4.3-3 9.5 1.1 10.8 1.7.5 7.7 2.7 13.5 4.9s17.3 6.4 25.5 9.3c24.3 8.5 39.3 14 51.5 19 15.8 6.4 33.1 12.9 48 18 12.5 4.2 35.2 13.2 46.4 18.3 3.2 1.5 6.4 2.7 7.1 2.7.6 0 2 .8 2.9 1.8 1 .9 2.6 1.7 3.6 1.7s2.1.4 2.4.9c.3.5 2.9 1.6 5.8 2.5 2.9.9 9.6 3.5 14.8 5.6 5.2 2.2 14.7 5.9 21 8.3 6.3 2.5 16.5 6.8 22.5 9.7 10 4.8 15.5 7 28.6 11.9 4.7 1.7 12.7 8.6 11.5 9.8-.4.4-2.3.6-4.2.4-4-.3-5.3 1.7-3.6 5.5.9 1.9 1.9 2.4 4.6 2.4 2.6 0 4 .7 5.6 2.7 2.9 3.7 5.8 5.2 10.1 5.3 4.4 0 5.8-2.3 2.9-4.7-2.4-2-2.5-3.6-.6-5.2.8-.7 1.2-2.1.9-3.1-.7-2.6 2.2-2.6 8.5-.1 12.1 4.9 34.4 13.2 40.7 15.1 3.9 1.2 9 3.5 11.4 5.1 5.2 3.4 10 3.8 15.3 1.1 3.4-1.8 3.8-1.8 7.9-.2 3.7 1.5 4.5 2.3 5.2 5.2.5 2 2.5 5.2 4.7 7.3 3.6 3.5 4.2 3.7 6.5 2.7 1.7-.8 2.5-2 2.5-3.7 0-2.1.5-2.5 3-2.5 3.6 0 4.7-2.1 3.1-5.7-1.1-2.3-.9-2.9 1.5-5.4 2.6-2.7 2.6-2.9 1-5.5-1.5-2.2-2.3-2.5-5.1-2-1.8.4-4.4.1-5.8-.5-3.2-1.4-7.6.5-9.4 4.1-1 1.9-1.9 2.4-4 2.1-3.7-.4-4.6-1-3.5-2.4.5-.7 1.3-2.6 1.6-4.4.6-2.7.3-3.4-2.7-5.7-1.8-1.4-8.1-4.3-13.9-6.5-5.8-2.2-15.7-6.1-22-8.9-12.1-5.3-15-6.5-47.8-20.1-11.8-4.9-24.8-10.3-28.9-12.1-4.1-1.7-14.2-5.6-22.5-8.5-20.2-7.1-20.6-7.3-39.6-14.8-9.1-3.6-18.6-7.3-21.2-8.2-2.7-1-4.8-2.1-4.8-2.4 0-.4 1.8-2.4 4-4.6l4-3.9 3.9 2.2c5.7 3.2 13.1 2.8 13.1-.7 0-.9-.5-2.2-1.2-2.9-.9-.9-.7-1.7.9-3.4 3.4-3.7 3.9-7.3 1.2-9.2-3-2-8.8-2.1-9.5-.1-.4.8-1.8 1.5-3.4 1.5-3.9 0-5.7 2.4-4.3 6 1.1 3.1.2 5-2.5 5-.8 0-3.1 1.6-5 3.6-1.9 1.9-4 3.3-4.8 3-.8-.3-3.7-.8-6.6-1.2-5-.5-26.2-6.6-30.1-8.5-3.1-1.6-14.9-6-30.7-11.4-19.4-6.7-29.9-10.5-52-19-9.6-3.7-22.6-8.5-28.9-10.7-6.3-2.2-13.1-4.8-15-5.8-2-.9-9.2-3.6-16.1-5.8-6.9-2.2-13.8-4.7-15.5-5.5-5.8-2.9-7.5-3-7.5-.8zm74 35.7c0 1.2-4.1 7.4-4.9 7.4-2 0-1.8-1.6.7-4.6 2.6-3.1 4.2-4.2 4.2-2.8zM89 447c0 .5-.5 1-1.1 1-.5 0-.7-.5-.4-1 .3-.6.8-1 1.1-1 .2 0 .4.4.4 1zm47.5 4.1c8.4 2.9 22.1 8.3 29 11.5 2.8 1.2 13.7 5.4 19.5 7.4 1.4.5 6.8 2.1 12 3.6 5.2 1.4 11.2 3.5 13.2 4.5 2 1.1 5.9 2.6 8.5 3.5 2.6.9 6.4 2.3 8.3 3.1 6.5 2.8 7.5 3.2 14 5.7 3.6 1.3 7.5 2.7 8.8 3.1 2.3.7 2.9 2 1.2 3-.6.4-.8 1.1-.5 1.6.4.5-.7.9-2.4.9-1.6 0-3.3-.5-3.6-1.1-.4-.6-1.9-.7-3.6-.4-2.2.5-2.9.3-2.9-.9 0-1.1-.9-1.6-2.9-1.6-1.7 0-3.3-.5-3.6-1-.3-.6-1.4-1-2.4-1s-2.4-.7-3.1-1.5c-.7-.9-2.1-1.3-3.1-1-1.1.4-2.5-.1-3.5-1.4-.9-1-2.3-1.7-3.1-1.4-.7.3-2.4-.2-3.8-1.1-1.3-.9-3.3-1.6-4.4-1.6-1.1 0-2.3-.5-2.6-1-.3-.6-1-1-1.6-1-.5 0-.9.4-.9 1 0 .5.4 1 1 1 .5 0 2.5 1 4.3 2.2 1.9 1.3 4.3 2.8 5.3 3.5 1.7 1 1.7 1.3.4 2.2-2.2 1.5-2.8 1.4-3.5-.9-.7-2.3-3.3-2.7-4.1-.5-.4.8-1.5 1.5-2.6 1.5-1.7 0-2-.5-1.5-3 .8-3.8-.7-4.6-3.3-2-2.5 2.5-3.9 1.9-3.2-1.5.6-3.1-2.2-3.5-3.8-.5-1.5 2.9-3.1 1.5-2.3-2 .5-2.6.2-3-1.6-3-1.4 0-2.1.6-2.1 2 0 1.1-.6 2-1.3 2-2.5 0-2.8-1.4-.6-3.1 1.9-1.4 2-1.9.9-3.9l-1.3-2.4-2.9 3.3c-3.4 3.8-5 3.3-2.6-.9 1.3-2.3 1.4-3.1.3-4-1.9-1.6-3.9-.3-5.3 3.2-.9 2.6-1.4 3-2.4 2s-1-1.7 0-3.2c1.8-2.9 1.5-4-1.2-4-1.3 0-2.6-.7-3-1.5-.8-2.2-3.2-1.8-5.4 1-2.3 2.9-4.8 3.4-3.7.7 1.6-3.8 1.6-4.9.1-5.5-1.7-.7-4.6 1.7-4.6 3.9 0 1.8-3.4 1.8-4.8.1-.9-1-.7-1.9.4-3.5 1.7-2.5 1.1-4.2-1.5-4.2-1.1 0-2.4 1.2-3.1 3-.7 1.6-1.7 3-2.2 3-.9 0-.8-1.5.3-6 .3-1-.5-1.6-2.2-1.8-2.1-.3-2.8.3-3.7 3l-1.1 3.3.2-3.9c.2-4.8-1.4-5.6-4.8-2.2-2.7 2.7-4.2 1.9-2.5-1.4 1.4-2.6.8-3.4-3.1-5.1-3-1.2-3.3-1.1-5.3 1.4-1.2 1.5-2.5 2.7-2.9 2.7-1.3 0-.7-2.7.8-4 .8-.7 1.2-1.7.9-2.2-.4-.5 0-2.1.7-3.5 1.6-3 3.7-2.7 17.4 1.8zm92.5 1.8c0 1-1.2 2.7-2.7 3.6-2.4 1.6-2.6 1.6-2 0 .4-.9.7-2.5.7-3.6 0-1.2.7-1.9 2-1.9s2 .7 2 1.9zm-2.5 10.1c.3.5-.3 1-1.4 1-1.1 0-2.3-.5-2.6-1-.3-.6.3-1 1.4-1 1.1 0 2.3.4 2.6 1zM166 475c0 .5-.5 1-1.1 1-.5 0-.7-.5-.4-1 .3-.6.8-1 1.1-1 .2 0 .4.4.4 1zm53.5 18.9c1 1.7-1.2 2.1-2.5.6-1-1.2-1-1.5.3-1.5.9 0 1.8.4 2.2.9zm47.1 5.7c7.1 2.6 13.9 4.9 15.2 5.1 3.4.8 3.6 2 .6 5.8-2.1 2.8-2.9 3.3-4 2.4-1.6-1.3-1.9-3.9-.4-3.9.6 0 1-.7 1-1.5 0-1.7-.2-1.7-2.4-.9-.8.3-1.2 1.2-.9 2 .3.8 0 1.4-.6 1.4-1.6 0-5.1 4.2-5.1 6.1 0 3.1-1.9 3.1-8 .3-6.4-2.9-6.8-3.5-4.5-5.4 1.2-1 1.5-1 1.5.4 0 .9.6 1.6 1.4 1.6 1.5 0 3.1-6.4 2-8.1-.4-.6 0-1.5.7-2 1-.6 1.1-1.1.3-1.9-.8-.8-1.6-.7-2.7.5-1.5 1.4-1.9 1.4-5.3-.3-2.2-1.1-3.2-2.2-2.6-2.6.6-.4.9-1.3.5-2.1-.3-.8-.3-1.5-.1-1.5.2 0 6.2 2.1 13.4 4.6zm-40.1-2.7c1 1.7-1.2 2.1-2.5.6-1-1.2-1-1.5.3-1.5.9 0 1.8.4 2.2.9zM219 498c0 .5-.2 1-.4 1-.3 0-.8-.5-1.1-1-.3-.6-.1-1 .4-1 .6 0 1.1.4 1.1 1zm16.2 1.8c3.3 1.5 3.5 1.9 2.3 3.5-1.7 2.3-4.9 1.8-5.3-.8-.2-1.1-1.1-2.6-2-3.3-2.5-1.9.6-1.6 5 .6zm9.8 5.1c-.1 1.5-1.9 3.3-2.8 2.7-1.5-.9-.3-4.6 1.4-3.9.8.3 1.4.8 1.4 1.2zm10.1-.9c3 1.6 2.5 4.2-.7 3.4-2-.5-2.6-.2-3.1 1.5-.3 1.1-.9 2.1-1.4 2.1-1.7 0-2.2-3-1.1-5.6 1.2-2.6 3.2-3 6.3-1.4zm44.9 7.9c5.8 2.3 11.4 4.6 12.5 5 17.6 7.5 54.9 22.5 61.5 24.7 6.2 2.2 6.7 2.9 2 3.1-4.9.2-6 .8-6 3.4 0 1.4-.5 1.9-1.7 1.7-1.7-.4-2-1.5-1.2-4.7.5-1.7-2.9-2.7-4.3-1.3-.5.5-1.3 3.4-1.7 6.3-.8 6.5-.8 6.5-13.9.2-7.9-3.8-9.1-4.7-7.7-5.7 1.4-1 1.4-1.5.1-4.8-1.4-3.2-2.1-3.7-6.8-4.7-5.5-1.2-6.2-.9-7.4 3.6-.3 1.3-1 2.3-1.5 2.3-1.1 0-1.1-4.1 0-5.9.5-.7.6-2.2.4-3.2-.7-2.5-4.3-2.5-4.3-.1 0 1-1.1 2.8-2.5 4L315 538v-2.2c0-1.2.7-3 1.7-4 1.5-1.7 1.5-1.9-.2-3.8-1-1.1-2.2-1.7-2.7-1.4-.5.3-2-.1-3.3-1-1.3-.9-2.6-1.6-2.9-1.6-.2 0-1.4 2-2.6 4.5-1.2 2.5-2.6 4.5-3.1 4.5-1.3 0-1.1-1.4.3-2.8 1.6-1.6.1-3-4-3.8-2.8-.6-3.4-.4-3.9 1.5-.3 1.1-.9 2.1-1.4 2.1-1.4 0-1-4.3.6-6.4 1.8-2.4 2-4.5.3-2.8-.7.7-2.2 1.2-3.5 1.2-2.2 0-2.7.9-2.4 3.7.1.7-.6 1.3-1.5 1.3-1.4 0-1.5-.7-1-4 .6-3.6.4-4-1.4-4-1.3 0-2.4 1-3 2.5-.5 1.4-1.5 2.5-2.1 2.5-.6 0 .1-2.1 1.5-4.6 1.4-2.6 2.6-5.3 2.6-6 0-.8.4-1.4.8-1.4.5 0 1.4-1.2 2.1-2.6.6-1.4 1.7-2.4 2.4-2.1.6.3 5.9 2.4 11.7 4.6zm18.6 31.3c.4.5-.6.8-2.2.6-1.5-.2-2.9-.8-3.1-1.4-.5-1.4 4.4-.6 5.3.8zM395 550c8.9 3.5 10.5 4.5 10.8 6.7.2 1.5-.3 2.2-2.4 2.6-1.6.3-3.9.1-5.1-.4-3-1.1-4.1 1.1-2.4 4.8 1.3 2.9-.1 4.8-2.9 3.7-.8-.3-2.7-.8-4.2-1.1-3.1-.6-4.3-2.9-2.7-5 .7-.7.9-1.6.6-2-.4-.3-.9.2-1.3 1.1-.7 1.7-4 2.1-6.3.7-1.9-1.2-.5-3 1.8-2.4 1.1.3 2.4-.3 3.2-1.5.8-1 2.4-2.4 3.7-3.1 2.7-1.4 2.8-2.8.5-5.4-1.4-1.6-1.5-1.9-.3-1.5.8.4 4 1.6 7 2.8zm-77.9 5l2.4 2.1-3.2-1.6c-3.2-1.5-4.2-2.5-2.4-2.5.5 0 1.9.9 3.2 2zm51.9.6c0 .8-.5 1.2-1 .9-.6-.4-.8-1.1-.5-1.6.9-1.4 1.5-1.1 1.5.7zm5.6 4.1c-.3.3-1.2 0-2-.6-1.2-1-1.3-1.6-.3-3.2 1.1-1.8 1.2-1.8 2.1.7.4 1.4.5 2.8.2 3.1zm51.9 11.5c3 1.3 3.3 2.8.6 2.8-2.5 0-7.4-3.9-4.9-4 .9 0 2.9.5 4.3 1.2zm-4 6.7c1 2.5-.6 2.7-2.6.2-1-1.3-1.9-2.7-1.9-3.2 0-1.3 3.8 1.3 4.5 3z"/><path d="M268 504c0 .5.5 1 1.1 1 .5 0 .7-.5.4-1-.3-.6-.8-1-1.1-1-.2 0-.4.4-.4 1zM264.4 513.4c-.9 2.4 1.2 4.4 2.8 2.8 1-1 .8-1.6-.5-2.9-1.5-1.5-1.7-1.5-2.3.1zM290.5 513c.3.5.8 1 1.1 1 .2 0 .4-.5.4-1 0-.6-.5-1-1.1-1-.5 0-.7.4-.4 1zM309.5 520c-.3.5.1 1 .9 1 .9 0 1.6-.5 1.6-1 0-.6-.4-1-.9-1-.6 0-1.3.4-1.6 1zM301 523c0 .5.7 1 1.6 1 .8 0 1.2-.5.9-1-.3-.6-1-1-1.6-1-.5 0-.9.4-.9 1zM344.5 541.8c.6.4 1.5 2 2 3.6 1.4 4 3 4.3 4.8.7 1.8-3.7.7-5.1-4.2-5.1-2 0-3.1.4-2.6.8zM355.7 542.8c-2.7 3.1-3 6-.8 7.2 2.2 1.1 3.2 0 4.5-5.1.7-3.3-1.5-4.6-3.7-2.1zM37 420c0 .4.7 1.3 1.5 2s1.5 1.8 1.5 2.6c0 .7.9 1.8 1.9 2.4 1.1.5 2.3 1.9 2.6 3.1.5 1.4 1.4 1.9 2.8 1.7 1.7-.2 2.2-1 2.2-3.3 0-2 .5-3 1.5-3 1.1 0 1.4 1 1.2 4.2L52 434h4c2.7 0 3.9.4 3.7 1.2-.1.7.7 1.3 1.8 1.3 1.3 0 2.7-1.3 4-3.7 1.9-3.5 1.9-3.7.2-5.6-1.3-1.4-3.8-2.2-8.2-2.7-3.6-.3-6.7-1.1-7-1.6-.4-.5-1.4-.9-2.4-.9s-2.4-.6-3-1.4c-1.2-1.5-8.1-2-8.1-.6zM82.7 436.9c.3 1.2.9 2.1 1.4 2.1 1.4 0 1.1-1.6-.5-2.9-1.2-1-1.3-.8-.9.8zM91 440c0 .5.5 1 1.1 1 .5 0 .7-.5.4-1-.3-.6-.8-1-1.1-1-.2 0-.4.4-.4 1zM0 450c0 1.2.5 1.7 1.4 1.4.8-.3 1.7-.1 2.1.5.3.6 1.7 1.1 3 1.1s3.6.6 5.2 1.4c6.2 3.2 18.3 7.7 26.8 10.2 8.7 2.5 23.8 7.9 30 10.9 1.7.8 8.4 3.5 15 6.1 6.6 2.5 15.7 6.4 20.2 8.5 4.6 2.2 10 4.6 12 5.3 2.1.8 9 3.8 15.3 6.6 11.6 5.3 19.2 8.2 33 12.5 10 3.2 28.5 10.7 45 18.3 4.1 1.9 9.8 4.4 12.5 5.7 2.8 1.2 7 2.9 9.5 3.6 2.5.7 5.6 1.8 7 2.4 3.3 1.6 14 5.3 21.5 7.5 6.8 1.9 23.8 8.5 28.7 11.1 1 .5 2.4.9 3.1.9.8 0 5.4 1.6 10.3 3.6 4.9 1.9 10.9 4.2 13.4 5.1 10.5 3.6 38.7 15.1 45.2 18.4 1 .5 2.3.9 2.9.9.6 0 2.5.7 4.2 1.5 1.8.8 6.8 2.8 11.1 4.5 4.3 1.7 8.8 3.8 10 4.6 1.1.7 2.7 1.4 3.5 1.4.8 0 2.2.6 3 1.3.9.7 3.4 2 5.6 2.9 10.7 4.2 20.4 8.5 24.5 10.7 7.4 4 13.9 7.1 14.9 7.1.5 0 2.3 1.3 4 2.9 3.6 3.4 4.2 7.1 1.1 7.1-2.1 0-7-4.1-7-5.9 0-1.1-8-5.1-10.4-5.1-.9 0-1.5.4-1.1.9.3.5-.3 1.2-1.3 1.5-1 .4-2.8 2-4 3.6-2.8 3.7-4.2 3.8-4.2.4 0-1.8.6-2.8 2-3.1 2.6-.7 2-2.9-.7-2.6-1.1.1-2.9-.7-3.8-1.7-1.8-2-1.8-2.1 0-3.4 1.3-.9 1.5-1.5.6-2.1-.7-.4-2 .1-3.2 1.4-1.8 1.9-4.9 1.9-4.9 0 0-.5-1.1-.9-2.4-.9-3.1 0-5.5-2.7-3.2-3.6 1.9-.7 2.1-3.4.3-3.4-1.6 0-4.5 3-6.1 6.2-1.8 3.5-3.1 3.1-3.1-.9 0-2.8-.5-3.9-1.7-4.1-1.2-.2-1.8.3-1.8 1.7 0 1.8-1.7 3.8-2.4 3-1.7-1.9-1.3-4.9.9-7.3 2.8-3 3.2-4.6 1.2-4.6-1.6 0-5.7 4.1-5.7 5.7 0 .6-.7 1.6-1.5 2.3-1.3 1-1.5.9-1.5-1 0-1.7-.4-2.1-1.7-1.5-4.6 1.9-5.6 1.9-5.1-.1.3-1 .9-2.7 1.3-3.6.5-1.4 0-2-2.1-2.8-1.6-.5-3.7-1.5-4.6-2-1-.6-2.7-1-3.8-1-1.1 0-2-.5-2-1 0-1.6-4-1.2-4.6.5-.4.8-1 1.2-1.5.9-.5-.3-.7-.9-.4-1.4.8-1.4-2.5-2.1-4.7-.9-1.8 1-1.9.9-1.3-1.9.5-2.4.2-3-1.4-3.5-1.5-.4-2.7.3-4.2 2.4-2.7 3.8-4.3 2.8-2.4-1.6 1.3-3.2 1.2-3.6-.3-4.4-1.4-.8-2-.4-3.1 2-.7 1.6-1.9 2.9-2.7 2.9-1.7 0-1.8-1.4-.2-4.3 3.2-6 .5-7.6-3.6-2.2-1.5 1.9-3.4 3.5-4.2 3.5-2.1 0-1.7-4.1.8-6.7l2.1-2.3h-2.7c-1.6 0-3.7 1-5.2 2.7-2.9 3.2-4.3 2.4-2.3-1.4.7-1.6 1.5-3.1 1.7-3.6.2-.4-.6-.7-1.7-.7s-3 1.3-4.2 3c-2.6 3.5-4.1 3.1-3.2-1 .4-2.3.2-3-1-3-.9 0-2.2.9-3 2-1.7 2.4-2.9 1.6-2.1-1.4.3-1.4-.2-2.8-1.5-4-1.2-1.1-2.1-2.6-2.1-3.5 0-1.2-.3-1.2-1.2-.3-1.8 1.8-4.9 1.4-5.5-.7-.4-1.6-1.1-1.8-3.9-1.4-3.1.5-3.4.4-3.4-2.1 0-2.9-1.4-3.4-2.8-1-1.1 1.9-3.4 1-2.6-1 1.1-2.9-1.6-2.5-4 .6-1.4 1.8-2.6 2.7-2.6 2 0-.6-.9-1.2-2-1.2-2.2 0-2.5-1.2-1-4.1 1-1.8.9-1.8-1.7-.7-1.5.6-3.8 2.1-5 3.2-2.9 2.5-4.1 1.4-1.9-1.8 2-3.1 2-4 .2-3.3-.8.3-2.2-.3-3.2-1.4-2.5-2.8-7.5-5-9.6-4.3-1 .3-1.6.9-1.3 1.4.3.4-.2 1.3-.9 1.9-1.9 1.6-3-.3-1.6-2.8 1.6-3.2-2.5-3.9-5.6-1-1.8 1.6-2.4 1.9-2.4.8 0-.8.5-2 1.2-2.7.9-.9.8-1.2-.3-1.6-4.3-1.3-5-1.7-4.5-2.4.2-.4-1-.8-2.8-.9-1.8-.1-5.2-1.1-7.5-2.2l-4.1-2.2-1 2.7c-1.3 3.3-3.6 2.6-3.2-.9.2-1.5.1-3.1-.3-3.6-.9-1.6-3.6-.1-4.6 2.6-1.2 3.3-3.1 1.9-2.7-2 .2-2.7-.1-3.3-2-3.5-1.7-.3-2.5.2-2.9 1.8-.9 3.5-3.9 2.1-3.5-1.8.3-2.8.1-3.2-2.1-3.2-1.4 0-3-.7-3.7-1.5-1.6-1.9-3.4-1.9-5 0-1.8 2.2-3.5.3-2.1-2.3 1.5-2.8 1.4-3.2-.8-3.2-1.1 0-2.8 1.1-3.9 2.5s-2.5 2.5-3.1 2.5c-1.4 0-.9-3.6.7-5.2 2.1-2.1 1.3-3.8-2.3-5.5-3.2-1.5-3.7-1.6-5.1-.1-1 1-1.4 2.3-.9 3.7.8 2.7 2.5 2.7 3.2.1.8-2.9 2.2-2.5 1.9.5-.4 4-1.8 4.7-5.9 3-3.3-1.4-3.6-1.7-2.5-3.5 2-3.1-.1-5.4-5.1-5.8-4.5-.3-5.6 1.2-1.6 2.2 2.8.7 3.3 2.4.9 3.3-.9.3-2.6-.5-4.2-2-2-1.9-3.1-2.3-4.3-1.7-1.2.7-2.4.4-4.1-.9-1.3-1.1-3.1-1.9-3.9-1.8-1.9.2-8.9-2.5-8.9-3.5 0-1.2 3.8-1 4.5.2.4.6 1.3.7 2.4.1 1.3-.7 2.2-.5 3.4.7 4 4.3 4.7 4.5 8.8 3.2 5-1.7 5-2.8 0-2.6-2.7 0-4.7-.6-6.3-2-2.8-2.5-10.3-6.4-12.3-6.4-.8 0-1.8.7-2.2 1.5-.5.8-2.4 1.6-4.3 1.7-2.9.3-3.4 0-3.2-1.5.5-2.8-1.7-4.8-4.3-4.1-1.7.4-2.6 0-3.5-1.6-.9-1.7-1.4-1.9-2.6-.9-.8.6-1.4 1.8-1.4 2.6 0 2.2-2.5.9-2.5-1.3-.1-1-.5-2.5-.9-3.3-.7-1.1-1.3-.9-2.8 1-1.7 2.2-1.9 2.3-3.2.7-.7-1-1.5-1.5-1.8-1.2-.3.3-.8-.7-1.2-2.1-.7-2.9-2.2-3.2-4.8-.9-1.4 1.4-2 1.4-3.3.4-.8-.7-1.5-2.1-1.5-3.1 0-2.7-1.9-3.3-4-1.4-2.6 2.3-4.9 1.3-4.3-1.8.7-3.8-1.6-4.4-4.2-1.1-2.5 3-3.7 2.2-3.2-2.1.3-2.6-3.3-3.3-5-.9-1.1 1.5-1.6 1.6-2.2.6-.4-.8-1.5-1-2.6-.6-1.5.6-1.7.4-1.2-1 .4-1 .7-2.2.7-2.7s.7-.9 1.7-.9c1.5 0 1.5-.2-.1-1.9-2.1-2.3-6.5-2.3-5.9 0 .3.8-.2 2.1-1.1 2.8-1.3 1.1-1.4.7-1.3-3 .2-4.1 0-4.3-3-5-1.8-.3-3.9-1.2-4.8-1.9-.8-.6-1.8-.9-2.2-.7-.8.5-5-1-9.6-3.4-2.1-1.1-3.7-.4-3.7 1.6 0 .9.6 1.2 1.6.8 1.2-.4 1.5-.2 1.2.8-.3.8-1 1.4-1.6 1.3-.7-.1-2.1-.2-3.3-.3-1.7-.1-2-.5-1.5-2.6.5-2 .3-2.5-1.3-2.5-1.1 0-2.4.7-2.9 1.7-1.5 2.6-4.4.9-3.6-2.2.3-1.4.3-3.2 0-4.1-.5-1.4-.9-1.4-2.2-.3-.9.7-2 2.4-2.5 3.8-.7 1.7-1.3 2.1-2 1.4-.8-.8-.8-1.7 0-3.1 2.8-5.3-.7-7.4-3.7-2.2-2.4 4.3-3.4 3.7-3-1.7.2-3.9 0-4.8-1.4-5.1-1.2-.2-1.9.5-2.3 2.5-1.1 4.8-1.5 5.4-2.6 4.8-.6-.4-.9-2.3-.7-4.3.2-2.9-.1-3.7-1.5-4-1.2-.3-2.1.6-2.8 2.7-.6 1.7-1.6 3.1-2.1 3.1-.9 0-.8-1.6.4-7 .2-.8-.5-1.6-1.4-1.8-1.6-.3-1.8.5-1.8 6.2v6.4l4.8 1.5c8.3 2.6 35.5 12.4 40.4 14.5 2.6 1.2 8 3.1 12 4.2 4 1.2 10.2 3.4 13.8 4.9 3.6 1.5 8.8 3.3 11.5 4 5.6 1.3 16.1 5.5 27.5 10.9 6.7 3.1 15.7 6.6 27.5 10.8 2.2.8 6.5 2.5 9.5 3.9 7.2 3.2 33.4 13.5 34.4 13.5.4 0 4.6 1.8 9.2 4 4.7 2.2 15.1 6.5 23.2 9.6 8.1 3 18.3 7.1 22.7 9.1 4.4 1.9 11.4 4.7 15.6 6.3 5.7 2 8.9 4 13.2 8.1 3.1 2.9 5.7 5.7 5.7 6.1 0 .3-1.2.8-2.7 1-5.2.6-3.5 8.2 2 9 1.5.2 2.3 1.3 2.8 3.7.9 4.4 4.5 7.8 9.1 8.6 4.5.9 5.8-1.1 3.7-5.3-.7-1.5-1.5-3-1.7-3.5-.2-.4 1-.7 2.7-.7 3.5 0 4.5-1.2 3.7-4.5-.8-3-8.2-8.5-11.6-8.5-2.5 0-6.9-3.4-5.9-4.5.3-.2 4.1.9 8.5 2.6 4.3 1.7 11.3 4.1 15.4 5.5 4.1 1.3 9.1 3.3 11 4.3 1.9 1 4.6 2.2 6 2.6 2.4.7 8.3 3.3 26.5 12 5 2.3 14.6 6.3 21.5 8.9 16 6.1 31.9 12.9 39.5 17.1 16.7 9.1 29.8 15.5 33.2 16.1 2.2.4 4.9.2 6.7-.5 1.7-.6 5.5-1.4 8.4-1.6l5.3-.4-.6 2.8c-.7 3.4 2.1 11.1 4.1 11.1 1 0 1-.7-.2-3.6-1.8-4.3-1.2-5.4 1.7-2.8 1.5 1.3 1.9 2.6 1.5 4.5-.6 3.3.1 4.1 2.6 2.8 2.4-1.3 1.7-4-2.3-8.8-2.7-3.4-3-5.5-.6-4.5.7.2 2 1.8 2.9 3.4 2.9 5.1 8.8 3.6 8.8-2.3 0-2.6.3-2.8 2.4-2.3 1.6.4 3 0 4-1 4.5-4.4-1.2-9-10-8.1-2.9.3-5.6.1-6.2-.5-1.9-1.9-5.7-.5-6 2.2-.2 1.9-1.2 2.9-3.4 3.8-3.7 1.4-4.8.4-4.8-4 0-3-5.3-9.8-7.6-9.8-.8 0-9-3.7-18.2-8.3-9.2-4.5-23.2-11.1-31.2-14.6s-15.8-7-17.5-7.7c-6.8-3-17.4-7.4-18-7.4-.3 0-2.6-.9-5.1-2-5.1-2.4-39.5-15.9-49.4-19.5-3.6-1.3-13.7-5.1-22.5-8.5-15.2-5.8-25.5-9.5-42.5-15.5-4.1-1.4-15.5-6.3-25.2-10.8l-17.7-8.1 3.4-3.3c4-3.9 4.7-4 6-1.1 1.8 4 8.5 3.2 8.5-1.1 0-3-1.8-4.4-6.2-5-3.8-.5-4.3-.9-4.3-3.1 0-1.9.6-2.6 2.3-2.8 2-.3 2.3 0 1.8 1.6-.8 2.5 1 3.8 2.9 2.2 1.8-1.5 1.9-5.2.3-6.8-.7-.7-3.2-1.2-5.7-1.2-2.6 0-5.5-.7-6.5-1.5-2.5-1.9-4.1-1.9-6 .1-2 2-2.1 5.8-.1 7.4.8.7 1.5 2.8 1.5 4.6 0 2.6.4 3.4 1.8 3.4 1.4.1 1.3.4-.7 2-3.1 2.7-4.6 2.6-15.3-1.4-5.1-1.9-16.3-6-24.8-9.1-8.5-3.2-17.2-6.6-19.2-7.6s-6.3-2.9-9.5-4c-3.2-1.2-6.2-2.5-6.8-2.9-.5-.3-3.2-1.5-6-2.5-2.7-1-8.8-3.7-13.5-6.1-4.7-2.3-12.3-5.5-17-7.2-8.4-2.9-10-3.6-23-9.3-3.6-1.5-11.9-4.5-18.5-6.5s-13.1-4.3-14.5-5C22.5 455 2.2 448 .8 448c-.4 0-.8.9-.8 2zm52.8 29.3c.2.9-.4 2-1.2 2.3-2.1.8-4.6-1.3-3.9-3.2.8-2 4.7-1.3 5.1.9zm6.4 2.2c0 .5-.5 1.1-1.1 1.3-.6.2-1.1-.4-1.1-1.3s.5-1.5 1.1-1.3c.6.2 1.1.8 1.1 1.3zm136.6 24.4c.3 1.6-.1 2.2-1 1.9-.7-.3-1.5-1.5-1.6-2.7-.3-1.6.1-2.2 1-1.9.7.3 1.5 1.5 1.6 2.7zm98.2 71.7c0 .8-.5 1.2-1 .9-.6-.4-.8-1.1-.5-1.6.9-1.4 1.5-1.1 1.5.7zm8.3 2.4c-.6 2.2-1.8 2.6-2.8 1-.8-1.3 1.4-4.2 2.5-3.5.5.3.6 1.4.3 2.5zm-22 15c1.6 2.6 1.6 3 .3 3-1.5 0-3.6-2.9-3.6-4.9 0-2 1.6-1.1 3.3 1.9zm121.5 26.2c-.4 2.7-2.8 3.6-2.8 1 0-2 .8-3.2 2.2-3.2.5 0 .8 1 .6 2.2zm5.7 3.8c-.5.8-1.1.8-1.7.2-.6-.6-.7-1.6-.3-2.2.5-.8 1.1-.8 1.7-.2.6.6.7 1.6.3 2.2zm7.9 1.9c1.7 1.9 1.7 2-.4 3.1-1.2.6-2.2 1-2.3.8-.1-.2-.8-1.3-1.4-2.5-1.7-3-1.6-3.3.5-3.3 1.1 0 2.7.9 3.6 1.9zm19.5 5c.9 1.6.8 1.8-.8 1.4-1.4-.3-2.4.3-3.4 2.2-.8 1.6-1.7 2.3-2 1.8-.4-.6 0-1.6.8-2.3.8-.7 1.5-2.1 1.5-3.1 0-2.5 2.6-2.4 3.9 0zm2.9 5.3c.2 1.2-.2 1.5-1.7 1.1-1.2-.3-2.1-1.2-2.1-2 0-2 3.4-1.2 3.8.9zM462 636c0 .5-.4 1-1 1-.5 0-1-.5-1-1 0-.6.5-1 1-1 .6 0 1 .4 1 1zm15.8 1.2c2.5 2.1 1.2 3.1-3.5 2.4-5.3-.7-7.6-2.2-5.4-3.5 1.6-1 7.1-.3 8.9 1.1zm-8.4 6.4c.7 1.7 0 3.4-1.3 3.4-.5 0-1.6-1.1-2.5-2.5-1.6-2.4-1.6-2.5.8-2.5 1.3 0 2.7.7 3 1.6z"/><path d="M104.8 496.7c.7.3 1.6.2 1.9-.1.4-.3-.2-.6-1.3-.5-1.1 0-1.4.3-.6.6zM119.5 501c.3.5.8 1 1.1 1 .2 0 .4-.5.4-1 0-.6-.5-1-1.1-1-.5 0-.7.4-.4 1zM126 504.5c0 .8.5 1.5 1 1.5.6 0 1-.7 1-1.5s-.4-1.5-1-1.5c-.5 0-1 .7-1 1.5zM131 507.8c0 .5 1.4.9 3.2 1 2.3.1 2.8-.2 1.8-.8-1.9-1.2-5-1.3-5-.2zM.6 587.6c-.7 1.8.8 3.4 3.2 3.4 1.1 0 15.1 5.7 24.7 10 11.5 5.2 21.1 9 22.7 9 1 0 4.4 1.3 7.5 2.8 9.9 4.9 15.6 7.4 21.6 9.3 3.2 1 7 2.5 8.5 3.3 3.7 1.9 13.2 5.6 14.6 5.6.6 0 2.3.8 3.6 1.7 2.6 1.9 7.4 3.9 12.5 5.2 1.7.5 4.1 1.3 5.5 1.9 1.4.6 9.5 3.6 18 6.7s16.4 6 17.5 6.6c1.8.8 16.5 6.1 31 11.1 3.3 1.1 12.1 4.7 19.5 7.8 7.4 3.1 16.4 6.7 20 8 3.6 1.3 7 2.6 7.5 3 .6.4 3.5 1.5 6.5 2.5s8.7 3.2 12.5 5c10 4.6 28.2 12.1 33.5 13.9 4.1 1.3 6.7 2.4 15.5 6.1 1.7.7 4.8 1.9 7 2.8 2.2.8 6.9 2.6 10.5 4 3.6 1.4 9.4 3.5 13 4.6 3.6 1.2 7.4 2.7 8.5 3.2 1.2.6 7.7 3 14.5 5.3 6.9 2.4 15.4 5.5 19 6.9 24.3 9.3 29.3 11.2 35.6 14.2 3.9 1.9 7.6 4.1 8.3 4.9 2.4 2.8.6 4.5-5.1 4.8-4 .2-5.4.7-5.6 2-.2 1.1.5 1.8 2 2 2.2.3 2.1.4-.9 2.1-2.4 1.3-3.8 1.5-5.7.7-2.8-1-3.2-2.1-1.5-5.2 1.4-2.7.3-3.6-1.7-1.2-1.4 1.8-1.5 1.7-.9-1.7.4-2.7.2-3.8-.9-4.2-1.5-.6-4.6 1.7-4.6 3.3 0 .5-.7.7-1.6.3-1.2-.4-1.4-1.4-1-3.5.8-4-2-5-4.5-1.7-1.9 2.5-2.2 2.2-1.9-2.4.1-1.8-.3-2.7-1.3-2.7-.9 0-2.5 1.2-3.6 2.7l-2.2 2.8.3-3.5c.4-4.4-2.6-5.5-4.3-1.6-1.6 3.4-3.1 3.4-1.9 0 1.3-3.2.6-4.4-2.6-4.4-1.5 0-2.4-.6-2.4-1.6 0-2.5-4.4-1.3-4.8 1.3-.2 1.3-1 2.3-1.8 2.3-1.7 0-1.7-.5-.3-3.2.7-1.2.7-2.4.2-2.9-1.4-1.4-4.1-.1-4.8 2.2-.7 2.1-3 2.5-4 .8-.4-.5 0-1.8.9-2.8 1.9-2 1.2-3.1-1.9-3.1-1.3 0-2.8-.6-3.4-1.4-.6-.8-2.5-1.6-4.2-1.8-2.4-.4-3.3 0-4 1.6-.8 2-.9 2-.7.1.2-1.1-.1-2.6-.5-3.3-1-1.5-5.7-1.6-5.7-.1 0 .6-.8.9-1.7.7-1-.2-1.8-1.2-1.8-2.3 0-2.3-3.4-3.3-4.5-1.5-1.2 2-3.9.4-3.3-1.8.6-2.4-2.1-3.6-3.7-1.6-1.9 2.2-3.1 1.7-2.4-1.1.9-3.6-2.2-4.6-4.8-1.4l-1.9 2.4.3-3.5c.3-2.9 0-3.5-1.7-3.5-1.1 0-2 .5-2 1.2s-.5 1.7-1.1 2.3c-1.7 1.7-5.4-.5-5.4-3 0-1.1-.7-2-1.5-2s-1.5.7-1.5 1.5c0 1.8-.8 1.9-4.3.2-1.8-.8-2.7-2-2.7-3.5 0-2.9-2.7-4-4.4-1.7-1.8 2.5-4.6 1.2-4.6-2 0-2.9-.7-3.1-3.1-.9-1 .9-2.3 1.3-2.8.9-1.4-.8-1.4-7.2-.1-8 1.2-.7.4-2.5-1.1-2.5-.6 0-1.8 1.9-2.9 4.2l-1.8 4.2-2.2-3.7c-1.2-2-2.4-3.7-2.6-3.7-.2 0-1.2 1-2.4 2.2-2.2 2.4-3.5 1.8-3.5-1.5 0-2.8-3.1-3.4-3.8-.7-.8 3-2.8 2.4-2.5-.8.4-3.4-2.5-3.8-3-.4-.5 3.2-2.7 2.1-2.5-1.1.1-1.9-.7-3.2-2.8-4.7-1.6-1.2-2.9-1.9-2.9-1.5 0 .3-.9.1-1.9-.4-2.4-1.3-4.5.8-3.5 3.4.5 1.3.3 1.6-.7 1.3-.8-.3-1.4-1.6-1.5-2.9-.2-4.5-.4-4.9-2.4-4.9-1 0-2.4.9-3 2-.6 1.1-1.5 1.8-2.1 1.5-.5-.4-.7-1.1-.4-1.6.4-.5.3-1.9-.1-3.1-.7-2.2-.7-2.2-3 .7-1.9 2.3-2.4 2.6-2.4 1.2 0-2.2-2.6-3.3-4.4-1.8-1.9 1.6-3.2-.4-1.6-2.4.7-.9.8-1.5 0-2-1.6-1-1.2-3.2.7-3.9.9-.4 2.1-.2 2.7.4.7.7.4 1-.8 1-1.1 0-1.6.6-1.4 1.7.5 2.5 6.1 2.5 6.6 0 .6-2.9-2.7-5.7-6.5-5.7-1.8 0-3.3-.5-3.3-1 0-2-4-.9-5.6 1.5-1.9 3-1.3 5.2 1.8 6.4 2 .8 2.1 1 .6 1.6-3.4 1.4-5.3.2-5.3-3.5 0-4.3-2.6-5.2-4.3-1.6-1.4 3-4.8 2.5-6.4-1-.9-1.9-.8-2.8.5-4.2 1.1-1.2 1.3-2.2.6-3.2-.8-1.2-1.6-.8-4.3 2.3-3.4 3.8-5.7 3.6-3.6-.4.6-1.1.9-2.7.6-3.5-.9-2.5-3.7-1.5-4.8 1.7-.7 2.2-1.4 2.7-2.1 2-.8-.8-.6-2.1.7-4.7 2.3-5 .7-6.4-2.7-2.4-2.6 3-4.5 3.7-3.9 1.4.4-2.1-1.8-2.7-3.7-1-3.1 2.8-5.1 2-5.1-1.9 0-2.8-.4-3.5-2-3.5-1.5 0-2 .7-2 2.5 0 1.6-.6 2.5-1.6 2.5-1.4 0-1.5-.7-1-4 .5-3.5.4-4-1.2-4-1 0-2.4 1.1-3 2.5-1.7 3.7-3.2 3-3.2-1.5 0-4.6-2.5-5.7-3.6-1.5-1 3.9-2.6 3-2.2-1.3.2-3.1 0-3.7-1.7-3.7-1.2 0-2.1.9-2.5 2.3-.7 3.2-2.4 2.9-2.8-.5-.5-3.7-4.2-6.2-4.2-2.9 0 .8-.5 1.8-1 2.1-.7.4-1-.9-.8-3.7l.3-4.3H130c-4.3 0-4.5.1-4.8 3.2-.2 1.8-.8 3.3-1.3 3.3-1.7 0-2.2-3.1-.9-5.5 1.2-2.3.7-4.5-1.1-4.5-.5 0-1.8 1.5-2.9 3.2l-2 3.3v-3c0-4.6-1.1-7.5-2.7-7.5-.8 0-1.2.4-.9.9.3.5-.1 2.4-.9 4.2l-1.4 3.4-.1-3.5c-.1-6.1-7.3-9.3-9.5-4.2-1 2.2-2.5 3-2.5 1.3 0-.5.7-2.5 1.5-4.5 1.2-2.9 1.3-3.6.2-3.6-.7 0-1.8.5-2.3 1-.7.7-1.5.2-2.4-1.5-1.6-3-3.2-2.8-4 .6-.4 1.6-.8 2-1.4 1.1-.4-.6-.4-1.7-.1-2.2.9-1.5-1.7-3.7-5.3-4.5-1.7-.3-3.4-1.1-3.7-1.6-1.2-1.8-4.4-.9-4.7 1.3-.4 2.8-2.8 3.6-2.8.9 0-2.8-2.5-2.7-4.4.1-.9 1.2-1.6 1.7-1.6 1.1 0-1.6-3.1-2.6-4.4-1.3-1.6 1.6-2.6 1.2-2.6-1s-3.5-2.9-4.3-.8c-.7 1.9-4-.4-4.7-3.2-.7-2.8-2.8-3.8-3.6-1.6-1 2.5-2.1 1.9-2.8-1.4-.6-3.2-3.2-4.1-4.2-1.5-.4.8-1.3 1.5-2.1 1.5-1 0-1.4-.9-1.1-3.2.4-3.9-2.2-5-3.7-1.7-1.6 3.4-3 2.2-2.7-2.1.2-2.9-.2-4-1.2-4-.8 0-1.6.7-2 1.5-1 2.8-3.5 1.7-3.8-1.8-.4-4.2-3.2-4.4-3.6-.2-.5 4.2-1.6 5-5.2 3.5-2.8-1.1-3.1-1.7-2.8-4.8.4-4.3-1.7-5.4-3.3-1.8-1.9 4.1-3.2 3.1-2.5-1.8.7-4.4 0-6.1-2-4.8-.6.4-1.3 1.5-1.7 2.4-.3 1-1.2 1.8-1.8 1.8-.8 0-1-1.5-.5-5 .4-3.3.3-5-.4-5s-1 2.7-.8 7.7l.3 7.8 13 5.2c7.2 2.9 18 6.9 24 8.9 6.1 2 14.4 5.2 18.5 7.1 4.1 1.9 9.8 4.3 12.5 5.3 8.6 3.2 20.7 7.7 28 10.4 3.9 1.5 12.8 4.7 19.8 7.2s16.7 6.2 21.5 8.3c4.8 2.1 14.1 5.7 20.7 8.1 6.6 2.3 13.8 5.1 16 6.2 5.5 2.6 23.7 9.7 37.5 14.7 17.8 6.4 24.4 9.5 25.6 11.9.6 1.2 1.8 3 2.7 4 1 1 1.7 2.2 1.7 2.6 0 .4 1.1 2.4 2.5 4.4 2.9 4.2 3.1 5.2 1 5.2-3.2 0-4.5 6.2-2.1 9.6 1.4 1.8 1.5 1.8 4.5-1l3-2.9 3 3.2c2.4 2.6 3.7 3.2 6.3 2.9 4.7-.4 5-3.9.8-7.8-2.7-2.6-2.9-3.1-1.8-4.9 1.8-2.9.2-5.1-4.9-6.8-2.3-.8-4.8-2.5-5.7-3.8-1.5-2.3-1.5-2.3 1.7-1.3 1.8.5 5.9 1.7 9.2 2.5 3.3.8 10.1 3.2 15 5.3 9.1 3.9 23.9 9.5 46.5 17.6 6.9 2.5 16.3 6.2 21 8.3 16.3 7.3 36 15.1 38.2 15.1 1.5 0 10.6 3.4 15.2 5.6 1.7.9 4.7 3.4 6.6 5.6 3.2 3.5 4.1 4 8.1 4 2.7.1 5.6-.6 6.9-1.5 3-2.1 5-1.1 5 2.4 0 5.2 11.2 13.7 15 11.4.5-.3 1-1.5 1-2.6 0-1.4 1-2.5 3-3.2 3.1-1.2 3.9-3.4 1.8-5.5-.9-.9-.2-1.2 3.1-1.2 3.5 0 4.4-.4 4.8-2 .3-1.2 1.8-2.7 3.4-3.6 3.3-1.7 3.6-3 1.3-6.2-2.9-4.1-14.9-1.9-23 4.3-2.3 1.8-4.1 2.4-5.5 2-1.9-.6-1.9-.8-.5-2.4 3.8-4.2-.3-9.5-10.6-13.8-22.1-9.1-66.3-26.2-79.3-30.6-4.9-1.6-9.9-3.6-10.9-4.3-1.9-1.3-1.9-1.3 0-1.9 1-.4 3.5-1.3 5.4-2.1 3.4-1.4 3.8-1.4 8 1 5.4 3.1 9.3 3.3 12 .6 1.6-1.6 1.8-2.5 1-4-1.5-2.7-1.2-3.2 1-2 2.3 1.2 5.4 0 6.4-2.5 1.7-4.6-5-9.2-11.7-8-2.7.5-3.6.3-4.1-1-1.5-4-11.6 1.3-11.6 6.1 0 5.3-10.4 9.7-17.5 7.4-2-.7-4.2-.9-5-.6-.8.3-4.2-.6-7.7-2-3.5-1.3-8.8-3.4-11.8-4.5-3-1.2-6.8-2.7-8.5-3.4-12.6-5.6-26.7-11.4-30-12.5-2.2-.7-4.7-1.6-5.6-2-.8-.4-4.7-2-8.5-3.5-3.8-1.4-13.2-5.3-20.9-8.5-7.7-3.2-20.3-8.1-28-10.9-7.7-2.8-15.8-5.9-18-6.7-20.6-8.2-40.8-15.8-50.1-18.9-3.9-1.3-9.8-3.6-13-5.1-3.3-1.5-6.8-3.1-7.9-3.5-1.1-.5-8.6-3.5-16.7-6.9-8-3.3-14.9-6-15.3-6-.4 0-3.4-1.3-6.8-2.9-3.4-1.6-9.1-4-12.7-5.4-5.4-2.1-21.5-9-29.5-12.6-9-4.1-11.4-5-14.1-5.6-2.4-.5-3.3-.2-3.8 1.1zM107 643.4c0 .3-.4.8-1 1.1-.5.3-1 .1-1-.4 0-.6.5-1.1 1-1.1.6 0 1 .2 1 .4zM244.5 701c-.5.8-1.1.8-1.7.2-.6-.6-.7-1.6-.3-2.2.5-.8 1.1-.8 1.7-.2.6.6.7 1.6.3 2.2zm111.1-.9c1.2 2.1-1.2 3.2-4.5 2.1-1.9-.7-3.3-.7-3.6-.1-.4.5-1.2.9-1.8.9-.7-.1-.1-1 1.2-2 2.5-2.2 7.6-2.7 8.7-.9zm-9.3 8.6c-.7.2-1.9.2-2.5 0-.7-.3-.2-.5 1.2-.5s1.9.2 1.3.5zm-89.8 7.4c.4.6.5 1.3.1 1.6-.8.8-5.6-.6-5.6-1.7 0-1.3 4.7-1.3 5.5.1zm-8.9 9.4c-.7 2.9-2.6 3.4-2.6.7 0-1.8 2-4.5 2.8-3.7.2.2.2 1.6-.2 3zm11.4 1c.7.9 1 1.8.7 2.2-.8.7-3.7-1.5-3.7-2.8 0-1.4 1.6-1.1 3 .6zm193.8 34.7c-.3.7-1.5 1.5-2.9 1.8-3 .7-10-.4-7.9-1.3 4.5-1.8 11.3-2.2 10.8-.5zm-14.4 7.9c-.3.5-1.5.7-2.7.3-3-.9-3.4-1.4-1.7-2.4s5.3.7 4.4 2.1zm7.4-1.4c-1 .2-2.6.2-3.5 0-1-.3-.2-.5 1.7-.5s2.7.2 1.8.5zm-8.5 4.7c1.5.4 2.7 1.1 2.7 1.6 0 1.8-4.7 1.1-7.1-1.1-2.2-1.8-2.2-2-.4-1.5 1.1.2 3.2.7 4.8 1zm-6.7 3.2c3.1 2.4 4.6 5.4 2.5 5.4-1.3 0-6-4-7.1-6.1-1.5-2.7.4-2.5 4.6.7z"/><path d="M16.6 601.7c-1.1 1.1-.6 2.3.9 2.3.8 0 1.5-.4 1.5-.9 0-1.3-1.6-2.2-2.4-1.4zM28.5 608c.3.5 1 1 1.6 1 .5 0 .9-.5.9-1 0-.6-.7-1-1.6-1-.8 0-1.2.4-.9 1zM34 611c0 .5.7 1 1.6 1 .8 0 1.2-.5.9-1-.3-.6-1-1-1.6-1-.5 0-.9.4-.9 1zM39.6 612.8c-.3.6-.1 1.4.5 1.7 1.5 1 2.5-.3 1.2-1.6-.7-.7-1.3-.7-1.7-.1zM419.2 622.1c.5 1.7 4.8 2.5 4.8 1 0-.6-.4-1.1-.9-1.1s-1.7-.3-2.7-.7c-1.2-.4-1.5-.2-1.2.8zM0 665.9c0 1.3 9.5 5.9 13.8 6.7 2 .4 4.6 1.3 5.7 2 1.1.8 2.9 1.4 4 1.4 1.2 0 2.6.5 3.2 1.1 1.2 1.2 6.4 3.3 18.8 7.4 12.8 4.3 17.5 6.3 22.8 9.7 6.8 4.3 12.8 7.2 20.1 9.7 3.3 1.2 7 3 8.2 4.2 1.3 1.2 3.4 2.3 4.7 2.4 1.3.2 5.1 1.7 8.5 3.4 3.4 1.7 6.9 3.1 7.8 3.1 1 0 4.7 1.3 8.3 2.9 3.6 1.6 12.5 4.7 19.6 7 14.2 4.5 16.3 5.5 14.6 6.5-1.8 1.1-1.3 2.6.9 2.6 1.3 0 1.8-.5 1.4-1.5-.8-2.1.7-1.9 7.3 1.1 3.2 1.4 9.6 3.9 14.3 5.6 4.7 1.7 9.6 3.6 11 4.3 1.4.8 11.3 4.8 22 9.1 10.7 4.2 20 8 20.5 8.4.6.4 2.2 1 3.7 1.4 1.6.3 2.7 1.2 2.5 1.9-.1.8.8 1.1 2.7.9 1.5-.2 3.6.3 4.5 1.1.9.8 2.5 1.7 3.6 1.9 1.1.2 1.9 1 1.7 1.6-.3 1.5 1.5 1.6 2 .1.4-1.3 4.7.5 6 2.4.3.6 1.5 1.2 2.4 1.3 1 .2 2.3 1 2.9 1.8.7.8 2.5 1.4 4.5 1.3 2.8-.2 3.7.3 4.5 2.1.8 1.8 1.7 2.2 4.5 2.1 4.1-.2 10 .9 11.7 2.3.6.5.9 1.7.6 2.6-.6 1.6-.5 1.6 1.3 0 2.3-2 5.7-.7 4.7 1.8-.5 1.4-.3 1.4 1.6.3 1.8-1.2 2.7-1.1 6.4.9 2.3 1.2 4.7 2.2 5.4 2.2 2.7 0 2.2 2.3-1.2 6.5-3.5 4.2-3.8 4.4-5.8 3-2.9-2-4-1.9-3.4.5.7 2.5-.7 3.4-3.3 2-1.5-.8-1.8-1.7-1.3-4 .6-3.5-.6-3.9-3.2-1-2 2.2-3.3 2.4-5.5 1-1.2-.7-1.2-1.2-.2-2.2 1.4-1.4 1.6-4.8.2-4.8-.5 0-1.7 1.1-2.6 2.5-1.8 2.7-2.2 2.9-4.2 1.6-1.2-.7-1.1-1.4.2-3.9 1-1.8 1.2-3.3.6-3.7-1-.6-4.5 2.4-5.1 4.4-.3.7-1.2.9-2.1.6-1.2-.5-1.5-1.5-1.1-4.6.6-4.1-1.1-5.6-2.4-2.2-.6 1.5-.8 1.4-1.3-.7-.4-1.5-1.4-2.6-2.7-2.8-1.1-.2-2.3-1.2-2.6-2.3-.8-2.9-3.7-2.3-5 1.1-.6 1.6-1.7 3-2.4 3-1.8 0-1.6-1.1.7-4 1.3-1.8 1.6-2.8.8-3.7-1.8-2.2-3.9-1.4-5.4 2.2-.8 1.9-1.9 3.5-2.4 3.5-1.5 0-1.2-3.2.5-5.4 2-2.7 1.9-3.6-.5-3.6-1.1 0-2.7 1.1-3.6 2.5-1.9 2.8-3.4 3.3-3.4.9 0-1.2-.7-1.4-2.9-.9l-2.9.6.5-4.1c.6-4.1.5-4.2-1.6-2.9-1.1.8-2.1 1.9-2.1 2.6 0 1.8-2 2.7-3.3 1.4-.8-.8-.8-1.4.1-2.3 1.7-1.7 1.5-4.8-.2-4.8-.8 0-2.3 1.2-3.4 2.7-2.5 3.4-4 2.3-2.5-1.7.9-2.4.8-3.2-.4-4.2-1.2-1-1.8-.8-3.4 1.2-1.8 2.4-1.9 2.4-1.9.4 0-1.2-.6-2.7-1.4-3.3-1.2-1-1.8-.7-3.1 1.8-.8 1.7-2 3.1-2.5 3.1-1.3 0-1.2-.4.1-3.4.9-2 .9-2.9-.1-4.1-1.9-2.2-3-1.8-4.1 1.5-1.5 4.1-2.9 3.8-2.6-.7.3-5-2.6-5.8-4.2-1.2-1.4 3.9-2.6 3-2.6-1.9 0-4.2-2.2-5.1-4-1.7-2.2 4.3-2.6 4.7-4.1 3.4-1.1-.9-1.1-1.5.2-4.1.8-1.6 1.2-3.8.9-4.9-.7-2-.7-2-2.7-.2-1.1 1-2.4 2.8-2.9 4-.5 1.3-1.3 2.3-1.9 2.3-1.4 0-1.3-1.6.2-4 1-1.5 1-2.5.2-3.8-1.5-2.4-2.6-1.9-4.7 2.2-1.1 2-2.3 3.6-2.7 3.6-1.8 0-1.9-1.9-.3-4.7 1.7-3.1 1.3-6.3-.9-6.3-.7 0-2.3 1.8-3.6 4.1-3.6 6.2-5.5 4.4-3.6-3.4 1-4.1-2.2-3.6-4.7.8-2.2 3.6-4.8 4-2.8.3 1.6-3 1.8-8.6.3-9.9-1-.8-1.1-.5-.7 1 .3 1.2.1 2.1-.6 2.1-.6 0-1.7 1.5-2.5 3.4-.8 1.8-1.9 3.7-2.5 4-1.9 1.2-2.4-2.2-.7-4.6 2.2-3.1 2-5.8-.3-5.8-2.2 0-3.6 1.6-4.5 5.2-.7 3-1.3 3.3-3.6 1.8-1.2-.8-1.2-1.4.3-4.5 2.3-4.9 2.2-6.7-.5-6.3-1.4.2-2.5 1.5-3.3 3.8-1.4 4.1-5.2 5.8-4.1 1.9 1.8-6.3 1.8-7.9.4-7.9-2.1 0-3.8 2.1-3.8 4.7 0 1.4-.6 2.3-1.5 2.3-1.7 0-2-2.3-.5-5 1.2-2.2-1.2-4.6-3.2-3.4-.7.5-2.4.7-3.7.5-1.6-.2-3 .5-4.1 2-2.2 2.9-5.7 2-4-1 1.6-3.1 1.2-5.1-1-5.1-1.3 0-2.2.9-2.6 2.5-.3 1.4-1 2.5-1.5 2.5-1.1 0-1.1-.3 0-3.4.7-1.7.6-2.7-.2-3.5-1.5-1.2-3-.4-4.6 2.6-.6 1.3-1.7 2.3-2.3 2.3-.6 0-.8-.9-.3-2.3 1.7-5.6 1.7-6.7.1-6.7-.9 0-2.1.9-2.8 2-.7 1.1-1.7 2-2.2 2-.4 0-.3-.7.4-1.6 1.1-1.3 1-1.9-.8-3.6l-2.1-2.1-1.8 3.9c-.9 2.1-1.8 4.1-2 4.3-.1.2-1 .1-1.9-.3-1.5-.6-1.4-.9.7-3.2 2-2.1 2.1-2.7.9-3.4-1-.6-2-.4-3.2.7-1.5 1.3-1.8 1.3-1.8.2 0-.8.4-2 .9-2.8.5-.8.7-2 .4-2.8-.8-1.9-3.2.3-5 4.5-1.1 2.7-1.7 3.1-2.8 2.2-1.4-1.2-.6-4.9 1.7-7.7 1.4-1.7.3-4.4-1.5-3.7-.8.3-2.3 2.3-3.3 4.4-1.9 3.9-3.4 5.2-3.4 2.7 0-.6.7-2.5 1.5-4.1 1.9-3.6 1.9-4.6 0-4.6-.9 0-2.3 1.6-3.2 3.5-1 2.1-2.4 3.5-3.5 3.5-2.4 0-2.3-1.3.2-3.5 2.4-2.1 2.6-3.5.5-3.5-.8 0-2.2 1.1-3.1 2.5-.9 1.4-2 2.5-2.5 2.5-1.7 0-.9-4.4 1.3-6.7 1.2-1.3 1.9-2.6 1.5-2.9-1.1-1.2-3.8.5-5.5 3.6-1.7 3-4.2 4.1-4.2 1.7 0-.6.9-2.6 2-4.4 1.3-2.3 1.6-3.4.8-3.9-1.2-.8-5.8 4.3-5.8 6.4 0 .8-.6 1.2-1.2.9-1.4-.5-1.2-5.6.3-7.2 1.1-1.1 1.2-4.5.1-4.5-1.2 0-3.6 3-5 6.2-1.2 2.9-2.7 3.4-5.2 1.8-1.3-.8-1.2-1.5.8-5.2 2.8-5.2 1.1-7.1-2.9-3.2-2.9 2.8-4.3 2.3-2.7-1.2 1.5-3.2.3-4.2-2.3-1.8-2.1 1.9-2.2 1.9-1.5-.4.6-1.7.3-2.2-1.2-2.2-2 0-5.2 2.9-5.2 4.8 0 .7-.7 1.2-1.5 1.2-1.8 0-1.8-.4-.3-4.7 1.7-4.7.1-5.3-3.4-1.3l-3 3.5.5-3c.3-1.7.9-3.8 1.2-4.8.5-1.3.2-1.7-1.3-1.7-1.3 0-2.6 1.2-3.7 3.6-1.2 2.6-2 3.3-2.8 2.5-.8-.8-.5-1.9 1.1-4 1.2-1.7 1.8-3.2 1.4-3.4-1.4-.9-5.4 1.3-5.9 3.3-.3 1.1-.9 2-1.4 2-1.3 0-1.1-1.1.6-4.4 1.2-2.2 1.3-3.1.4-3.7-1.8-1.1-3.5-.1-4.7 2.7C10 684 8 684.9 8 682.9c0-.6.5-2 1.1-3.1 1.6-2.9-.4-4.7-2.8-2.6-1 .9-2.7 1.8-3.8 2-1.3.2-2.1 1.2-2.3 3-.3 2.3.3 2.9 5.1 5.1 2.9 1.4 7.8 3.5 10.8 4.7 3 1.2 8.6 3.7 12.6 5.6 4 1.9 7.9 3.4 8.7 3.4.8 0 1.7.4 2 .9.3.5 4.5 2.5 9.3 4.4 4.9 1.9 15.1 6.5 22.9 10 19.7 9.1 28.5 12.6 47.7 19.1 9.3 3.1 19.1 6.8 21.9 8.2 6.2 3.1 35.7 14.5 55.8 21.5 4.7 1.6 9.1 3.1 9.9 3.4 1 .4 1.1.8.1 2-1.5 1.8-.8 2.9 3 4.5 4 1.6 4 4.6 0 5.4-3.8.7-5.7 4.4-4 7.6 1 1.9 1.8 2.2 5 1.7 2.8-.4 5.1.1 8.6 1.9 3.5 1.8 5.1 2.1 6.5 1.3 2.4-1.2 2.4-2.4-.1-5.8-1-1.6-1.8-4.1-1.7-5.6.2-2.5-.3-3-3.1-3.9-1.9-.5-4.7-2.2-6.3-3.8-2.6-2.6-2.6-2.9-.6-2.2 1.2.4 4 1.3 6.2 1.9 2.2.5 5.1 1.8 6.5 2.7 1.4.9 6.6 3.2 11.5 5.2 5 1.9 13.1 5.5 18.1 8 5 2.4 12.4 5.8 16.5 7.5 12 5 11.9 5.3-2.1 4.7-6.9-.3-16.1-1-20.5-1.6-28.8-3.8-38.2-5.3-47.5-7.5-5.8-1.3-13.4-2.9-17-3.5-14.7-2.4-23.7-4-27.5-5-2.2-.6-6.6-1.5-9.8-2.1-4.5-.8-5.7-1.4-5.3-2.6.3-.8.3-4.6 0-8.4-.7-6.9-.7-6.9-5.4-9.9-2.6-1.6-5.5-3-6.6-3-4.9 0-8.3 5.7-5.2 8.8 1.8 1.8.2 2.5-2.4 1-1.5-.8-5.6-1.2-11.5-1.2-8.7.1-9.2-.1-9.7-2.2-.7-2.8-3-3.6-6.1-2.2-2.2 1-3.1.8-6.8-1.8-3.3-2.4-4.2-3.6-4.2-6 0-1.6-.8-4.1-1.7-5.5-1.4-2.2-2.6-2.7-8-3.2-3.4-.3-6.4-1.1-6.6-1.7-.2-.6-1.5-2.4-2.9-4-3.3-4-9.4-4.3-11.9-.5-1.2 1.8-2.5 2.5-4.8 2.5-3.7 0-8.2 4.1-8.8 7.9-.3 2.4-.9 2.7-13.4 6-3.8 1-10.2 5.9-11 8.4-.8 2.6-9.2 8.6-13 9.3-2.4.4-3.4 1.2-3.4 2.5 0 2.1 1.6 2.4 5.2 1 1.3-.5 4.8-1.4 7.8-2.1 3-.7 6.6-2.3 8-3.5 1.4-1.3 5.2-3 8.5-4 3.3-.9 6.5-2.1 7.1-2.6.9-.7 9.4-.9 9.4-.2 0 .1-1.4.9-3 1.8-1.7.9-4.2 3.3-5.6 5.5-2 2.9-4 4.4-8.7 6.3-3.4 1.4-8 2.7-10.2 3C1.4 783.8 0 784.2 0 786.1c0 1.7.5 1.8 4.2 1.3 17.9-2.6 32.1-7.6 34.3-12.1 2.1-4.2 3.6-5.3 5.6-4.3 1.5.8 2.6.4 5.6-2.3 4-3.7 9.7-6.8 16-9 3.1-1.1 4.7-1.1 8.3-.1 8.8 2.4 13.5 4.6 16.5 7.4 1.7 1.6 4.4 3.4 6 4 2.6 1.1 15.1 1.7 18 .9 1.2-.3 5.8.8 9.8 2.3 1.6.6 4 2.8 5.3 4.8 2.2 3.3 3.3 3.9 10.7 5.9 4.5 1.1 10.6 2.5 13.5 3.1 3 .5 5.8 1.2 6.3 1.6 1.2.7 10.4 2.2 21.2 3.4 4.3.5 12.4 2 18 3.4 12.5 3 33.8 6.6 39 6.6 2 0 7.9.6 13 1.4 11.5 1.8 38.7 3 40.5 1.8 1.9-1.3 15 3.8 35.1 13.5l7.4 3.6-2.7 1.4c-1.5.8-2.4 1.8-2.1 2.4.8 1.2 7.5.9 9.3-.4.8-.7 3.5.1 8.5 2.3 11.9 5.4 25 11 25.8 11 1.8 0 7.9 3.2 7.5 3.9-.3.4-2.9.5-5.8 0-2.9-.4-11.4-1.5-18.8-2.4-7.4-.9-17.5-2.2-22.5-3-4.9-.7-12.8-1.3-17.5-1.4-4.7-.1-11.9-.6-16-1.1-4.1-.5-11.8-1.4-17-2.1-5.2-.6-11.1-1.7-13-2.5-1.9-.7-12.5-2.7-23.5-4.4-11-1.6-25-4.2-31.1-5.6-6.2-1.4-12.2-2.6-13.5-2.7-1.3-.1-5.7-1.9-9.7-4-3.9-2-8.3-3.7-9.7-3.7-2.2 0-2.4-.3-1.5-1.9 2-3.9-3.4-6.6-7.6-3.7-1.7 1.3-2.4 1.1-5.9-1l-4-2.4h3c1.7.1 8.2.8 14.5 1.6 15.9 2.1 15.5 2.1 15.5.5 0-2.1-12.6-4.5-30-5.6-12.1-.8-14.1-1.4-15.4-4.1-1.9-4.2-9.1-2.8-9.1 1.8 0 2.7-1.7 2.2-2.4-.7-.7-2.9-4.5-3.5-6.6-1-.9 1.1-2.4 1.3-5.7.8-4-.5-4.5-.4-4.2 1.2.4 1.9 5.5 3.4 17.9 5.5 9.1 1.5 20.4 3.8 22.5 4.6 1.1.4 4.3 2.7 7.2 5.1 4.7 4 5.5 4.3 9.1 3.7 3.1-.5 5.2 0 10.8 2.7 3.8 1.8 8.7 3.6 10.9 3.9 2.2.4 8.7 1.7 14.5 3 5.8 1.2 11.9 2.4 13.5 2.6 11.9 1.5 32.3 4.9 38.5 6.6 4.1 1 12 2.3 17.5 2.8s10.7 1.1 11.6 1.5c.8.3 8.4 1 16.9 1.5 19.7 1.2 33.8 2.6 38.7 3.9 2.1.5 7.9 1.2 12.8 1.6 7.6.6 8.6.9 6.5 1.8-3.5 1.5-28 1.1-43.5-.7-9.2-1.1-26-1.6-58-1.8-24.7-.1-47.3-.5-50.1-.9-5-.7-28-1.3-88.4-2.6-46.7-.9-46.3-.9-46.7.3-.2.6.9 1.7 2.4 2.4l2.8 1.3-5 .9c-2.7.4-5.6.6-6.2.3-.7-.2-16-.5-34-.6-18.1 0-34.8-.4-37.3-.8-5.5-.8-8-.4-8 1.4 0 .8 2.1 1.5 6.3 1.8 5.4.6 76.5 1.2 82.3.8 1.2 0 3.8-1.2 5.8-2.6 2.8-1.9 4.6-2.4 6.9-2 1.8.2 22.1.7 45.2 1 23.1.3 49.2.7 58 1 39.4 1.3 80.8 2.5 101.5 3 12.4.3 29.5 1.3 38.2 2.1 12.1 1.2 17.4 1.3 23.3.5 4.2-.6 10.7-1.1 14.5-1.1 3.8 0 8-.5 9.4-1.1 1.9-.9 3.3-.8 6.3.3 2.3 1 4.6 1.2 5.8.7 3.1-1.2 3.3-1.1 4.7 1.8 1.8 3.7 11.3 8.5 15.3 7.8 1.6-.3 3.6-1.1 4.3-1.9 2.2-2.2-2.8-7.2-8-8-4.8-.7-7.6-2.1-6.5-3.2.4-.4 6.2-.8 13-.9 13.7-.1 19.3-1.5 23.2-5.5 2.4-2.5 2.5-2.9 1.1-4.3-.9-.9-1.6-1.8-1.6-2 0-1.2 8.6-1.8 15.5-1.2 7.2.7 7.4.8 5.3 2.5-3.7 2.9-1.3 5.7 6.7 7.6l3 .7-3.5.8c-1.9.5-4.8.6-6.5.3-3.9-.6-6.3.9-4.7 2.9 1 1.2 0 1.9-5.6 4.5-3.7 1.6-7.8 3.3-9.2 3.7-1.4.4-3.2 1.6-4 2.6-2.7 3.3-13.5 4.9-49 7.4-25.3 1.8-101.6 2.9-110.5 1.5-9.4-1.4-61.5-2.5-61.5-1.3 0 1.3 7.8 2 25 2.2 7.4.1 22.1.9 32.5 1.8 26.1 2.1 80.2 1.2 128.5-2.2 23.4-1.7 33.7-3.5 38.8-7 2-1.4 4-2.5 4.4-2.5 2.3 0 13.9-6.2 14.8-8 .7-1.4 2.1-2 4.3-2h3.2l-2.3 1.8c-2.2 1.7-2.3 1.8-.4 3.5 1 .9 3.3 2 5 2.3 3.9.8 3.4 2.1-.9 2.2-4.3.1-8.3 3.2-8.7 6.7-.4 3.3.8 4.8 3.2 3.9 1.2-.5 1.6-1.4 1.3-3.1-.6-3.3 1.8-5.5 5.7-5.1l3.1.3-.3 6.2c-.3 7.4 1.1 8.8 4.5 4.8 1.8-2 2.3-3.7 2.1-6.2-.3-3.5-.2-3.5 4-3.8 4.8-.4 7.2-1.9 7.2-4.5 0-2.7-2.5-4.3-5.9-3.5-1.7.3-3.9.1-5.1-.5-3.4-1.8-.7-3.9 5.8-4.3l5.7-.3-5.7-.2c-3.2-.1-5.8-.6-5.8-1.2 0-.5 2.5-1.7 5.5-2.5l5.5-1.6V839c0-2.7-.5-5.2-1-5.5-.8-.5-.7-1.1.1-2.1 1.2-1.5.4-6.4-1.1-6.4-.5 0-1.6-1.3-2.5-3l-1.5-2.9-22.8.3c-21.6.2-25.2.6-25.2 2.6 0 .6 31.2.7 34.5 0 .6-.1 2.3-.2 3.9-.1 2.7.1 2.8.2 1.3 1.8-.8 1-1.7 3.1-1.9 4.8l-.3 3h-17c-16.6 0-21.5.6-21.5 2.7 0 .5 1 1.8 2.3 2.8 3.6 3 1 4.2-11.3 5.3-10.8 1-14.2.5-10.7-1.4 2-1.1 2.3-4.9.5-6.7-1.6-1.6-5.9-1.5-8.5.3-1.9 1.3-2.3 1.3-4.6-.5-1.4-1.1-2.9-2-3.4-2-.4 0-6.2-2.7-12.8-6.1-14.4-7.3-23.8-12-28.5-14.3l-3.5-1.6 7.5.5c35.9 2.5 34.3 2.5 35.7.5.9-1.3 2.5-1.8 5.8-1.8 2.5.1 4.8.5 5.1 1 1.1 1.7 5.6.8 6.1-1.2.4-1.5 1.1-1.8 3.7-1.3 3.9.7 5.6 2 5.6 4.4 0 2.6 2.4 2.4 4.2-.3 1.1-1.6 2.6-2.2 6-2.3 2.7-.1 6.1-1.1 8.2-2.4 4.4-2.8 7.1-1.7 8 3.3.7 3.5 1.9 4.3 8.3 5.2 2.3.3 4.4-.3 7.3-2.1 4.6-2.9 5.3-3 6.9-1.1 2 2.4 6.8 3 9.3 1.2 1.2-.9 3.5-1.6 5-1.6 3.8 0 3.6-2.3-.6-6.5-3.5-3.7-5.7-4.2-11.5-2.5-2.4.7-4.7.6-7.4-.2-3.8-1.2-4.1-1.1-6.8 2-1.6 1.8-2.9 4.2-2.9 5.3 0 2.4-2 2.1-3.2-.4-.4-.9-1.2-2.5-1.6-3.4-.5-1-2.7-2.4-4.9-3.2-3.8-1.4-4.2-1.3-6.8.7-1.5 1.2-3.8 2.2-5.1 2.2-2.1 0-2.4-.5-2.4-3.4 0-3.1.2-3.4 3.9-3.9 2.1-.2 6.2.1 9.2.9 2.9.8 6.3 1.4 7.5 1.4 3 0 18.9-3.7 24.1-5.7 2.3-.8 5.8-1.3 7.8-1.1 2.2.2 3.4 0 3.2-.6-.6-1.7-9.7-1.9-14.1-.3-10.2 3.6-17.7 5-23.9 4.2-3.4-.4-8.9-1-12.2-1.4-3.3-.4-7-1.2-8.1-1.9-1.2-.6-2.4-.9-2.7-.6-.3.3-2.3-.4-4.6-1.5-4-2.1-4.1-2.1-9.1-.2-2.7 1-6.3 3-8 4.4-4.4 3.8-10.9 4.7-36.9 5.3-13 .3-25.8.9-28.6 1.4-4.8.8-5.5.6-18.2-5.5-12.6-6-14.7-7.5-12.3-9 1.6-1 1.2-3.5-.6-3.5-.9 0-3 .7-4.8 1.5-3.1 1.5-3.6 1.4-9.2-1.1-3.2-1.5-8.8-3.7-12.4-4.9-3.6-1.3-11-4.2-16.5-6.4-5.5-2.3-13.6-5.6-18-7.3-4.4-1.7-29.4-11.7-55.5-22.1-26.1-10.4-50.9-20.2-55.2-21.7-4.2-1.6-8.9-3.5-10.5-4.3-1.5-.8-9.3-3.5-17.3-6.2-8-2.6-18.3-6.4-23-8.5-4.7-2-11.5-4.9-15.2-6.4-3.6-1.5-8.1-3.8-9.9-5.2-1.8-1.3-4.1-2.4-5-2.4-1 0-2-.4-2.4-.9-.3-.5-2.9-1.7-5.8-2.6-2.8-.9-6.1-2-7.2-2.5-1.1-.5-4.9-2-8.5-3.4-3.6-1.3-8.9-3.6-11.8-5-2.8-1.5-8.7-3.8-13-5.1-4.2-1.3-9.4-3-11.4-3.9-4.1-1.7-7.8-2.1-7.8-.7zm43.7 33.7c-.3.3-1.2.4-1.9.1-.8-.3-.5-.6.6-.6 1.1-.1 1.7.2 1.3.5zm19.5 43.1c1.3 1.2 1.8 3 1.8 6.9 0 5.2-.1 5.4-3.8 7.3-2.1 1.1-5.2 2-6.8 1.9-1.6 0-4.2.5-5.7 1.1-3.5 1.3-5 .6-3.8-1.7.5-.9.7-3.1.4-4.7-.6-4.1 2.3-7.7 5.5-6.9 1.2.4 2.2 1.2 2.2 2 0 1.9 1.9 2.7 3.3 1.5.7-.5 2.3-.8 3.5-.4 1.4.3 2.4 0 2.8-1 .8-2.2-1.4-6-3.2-5.3-.8.3-1.4-.1-1.4-.9 0-2 2.9-1.9 5.2.2zM17 770.4c0 .2-.7.7-1.6 1-.8.3-1.2.2-.9-.4.6-1 2.5-1.4 2.5-.6zm195 14.4c0 1.3-1.2 2.2-2.2 1.6-1-.6-.1-2.4 1.3-2.4.5 0 .9.4.9.8zm9.4 1.8c1.6.6 2.3 3.4.9 3.4-1.1-.1-4.3-2.6-4.3-3.4 0-.8 1.4-.8 3.4 0zm45.7 2.7c-1.3 1.3-2.6.3-1.6-1.2.3-.6 1.1-.8 1.7-.5.6.4.6 1-.1 1.7zm164.7 5.4l3 1.7-2.9 2.7c-1.6 1.4-4 2.6-5.3 2.6-1.4 0-3.6 1-5.1 2.1-2.1 1.7-3.9 2-9.5 1.9-8.3-.2-9.8-1.2-3.1-2.1 2.7-.4 6.1-1.6 7.7-2.9 4.2-3.2 10.8-7.7 11.6-7.7.3 0 2 .8 3.6 1.7zm-110.3 1.5c2.5 1.1 3.4 2.8 1.5 2.8-.5 0-1 .6-1 1.2-.1 1.3-4.4 6.8-5.4 6.8-.2 0-.2-1 .1-2.1.4-1.5 0-2.7-1.3-3.6-1.8-1.3-1.7-1.4.6-3.8 3-2.9 2.4-2.7 5.5-1.3zm11.5 4.9c20.2 7.6 39.6 15.7 47.5 19.8 3.3 1.7 6.4 3.1 7 3.1 1.8 0 14.4 6.8 17.6 9.5 1.7 1.4 3.5 2.5 4 2.5 2 0 .8 3.1-1.6 4-1.5.6-2.5 1.7-2.5 3 0 1.1-.6 2-1.2 2-1.6 0-4-1.5-3.9-2.4.3-2.3-.2-2.8-2.3-2.4-2 .4-2.6 0-2.8-1.6-.2-1.4-1-2.1-2.6-2.1-1.3 0-2.6-.5-3-1-.4-.6-1.9-1.6-3.4-2.2-2.9-1.3-3.5-2.7-1.8-3.8 1.5-.9.2-2.5-2-2.5-1.4 0-1.8.5-1.3 1.6.4 1-.4 2.5-2.1 4-1.4 1.4-2.6 3.1-2.6 3.9 0 1.7-1.4 1.9-4 .5-1.9-1-1.9-1.1.1-4.5 1.2-1.9 1.8-4.2 1.5-5.1-.5-1.4-.1-1.6 2.5-1 3.2.6 3.2.6 1.4-1.4-1-1.1-2.8-2-4-2-1.2 0-3.4-.9-4.8-2-3-2.4-3.7-2.5-3.7-.5 0 .8.8 1.5 1.8 1.5s2.7.7 3.8 1.5c1.6 1.2 1.7 1.6.5 2.4-1 .7-2.2.4-3.9-1-1.4-1-2.8-1.9-3.2-1.9-.4 0-2 1.8-3.5 4s-3.2 3.7-3.7 3.4c-.5-.4-.4-1.3.4-2.2.7-1 1.8-2.7 2.5-3.9 1.5-2.6.2-4-4.5-4.9-2.5-.5-3.3-.2-4.6 1.9-.9 1.3-1.4 3.2-1 4.1.7 1.7-.3 2.1-2.4.7-1.1-.6-1.1-1.7-.3-4.7.6-2.1.9-4 .6-4.2-.2-.2-1.7 1.1-3.4 3-2.2 2.5-3.3 3-4.1 2.2-.9-.9-.8-1.8.5-3.7 2.5-3.8-.2-4.8-3.1-1.1-1.9 2.3-2.6 2.6-3.6 1.6-.9-.9-.9-1.5 0-2.4 1.5-1.5 1.6-4.5.2-5.3-1.3-.8-4 1.9-4 3.9 0 .9-.5 1.6-1.1 1.6-1 0-.8-2 .7-7.1.3-1-.3-1.9-1.2-2.3-2.1-.8-5.6 2.7-4.8 4.8.4 1.1 0 1.6-1 1.6-2 0-2-1.3 0-5.7 1.3-2.6 1.4-3.7.5-4.6-.9-.9-.6-1.6 1.1-2.9 2.9-2.2 2.3-2.2 8.8.3zm37.5 5.2c1.3.3.9.5-1.2.6-3.1.1-4.9-1-3.6-2.3.3-.3 1.1-.2 1.7.3.6.5 2 1.1 3.1 1.4zm24.6.3c-2.5 1.8-11.7 2.1-19.1.6l-3.5-.6 3.5-.6c1.9-.4 7.5-.7 12.5-.8 8.7-.2 8.9-.2 6.6 1.4zm6.9-1.2c0 .9-3 1.4-3.5.6-.4-.6.3-1 1.4-1 1.2 0 2.1.2 2.1.4zm-92.5 1.6c.3.5.1 1-.4 1-.6 0-1.1-.5-1.1-1 0-.6.2-1 .4-1 .3 0 .8.4 1.1 1zm7.5 3c1.1 2.1.4 2.5-1.9 1.1-.7-.5-1-1.4-.7-2 1-1.5 1.4-1.4 2.6.9zm180.4 18c1.3 1.3-.9 3-4 3-2.8 0-5.9-2.4-4.9-4 .9-1.4 7.2-.7 8.9 1zm-128.4-.2c0 2.2-2.7 6.2-4.2 6.2-2.2 0-2.3-1.4-.2-4.5 1.5-2.4 4.4-3.4 4.4-1.7zm128 6.3c0 .5-1.6.9-3.5.9s-3.5-.4-3.5-.8 1.6-.8 3.5-.9c1.9-.1 3.5.3 3.5.8zm-112.8 3.2c-.3 3 1.3 4.3 3.3 2.7 1.2-1 1.5-.8 1.5 1.1-.1 2.6-2.3 6.2-3.3 5.3-.3-.3-.3-1.2-.1-1.9.4-.8-.8-2-2.8-3.1-1.8-.9-3.4-1.8-3.6-1.9-.2-.2.4-1.5 1.4-3 2-3.1 4-2.7 3.6.8zm36.8.7c0 .5-.5 1-1.1 1-.5 0-.7-.5-.4-1 .3-.6.8-1 1.1-1 .2 0 .4.4.4 1zm62.5 1c0 1.9-4.2 2.4-7.8 1.1-4.5-1.7-3.2-3.2 2.6-2.9 3.8.2 5.2.7 5.2 1.8zm14.3.2c-.3.8-2.2 1.3-4.8 1.3-2.6 0-4.5-.5-4.7-1.3-.3-.8 1-1.2 4.7-1.2s5 .4 4.8 1.2zM394 844c0 .5-.4 1-1 1-.5 0-1-.5-1-1 0-.6.5-1 1-1 .6 0 1 .4 1 1zm6.5 2c.3.5.1 1-.4 1-.6 0-1.1-.5-1.1-1 0-.6.2-1 .4-1 .3 0 .8.4 1.1 1zm82.2 5.6c.3.8.2 1.9-.3 2.4-1.3 1.2-6.4 0-6.4-1.5 0-2.6 5.7-3.4 6.7-.9zm-61.3 2.4c1.8 1.7.1 3-2.3 1.7-3.4-1.7-4.1-4.1-1-3.2 1.3.4 2.8 1.1 3.3 1.5zm75.7 5.4c-.9 1-2.3 1.3-4.4.9-6.3-1.1-5.7-2.2 1.8-3.6 2.8-.5 4.1.9 2.6 2.7z"/><path d="M328.5 803c.4.6 1.1.8 1.6.5 1.4-.9 1.1-1.5-.7-1.5-.8 0-1.2.5-.9 1zM335.4 806.5c1.1.8 2.7 1.5 3.7 1.5.9 0 1.9.7 2.3 1.5.3.8 1.2 1.2 2.1.9 2.1-.8 1.9-2.4-.4-2.4-1 0-2.4-.7-3.1-1.5-.7-.8-2.4-1.5-3.9-1.5-2.5.1-2.5.1-.7 1.5zM349.5 812.1c-.4.6-.4 1.3-.1 1.6.8.8 3.6-.5 3.6-1.7 0-1.3-2.7-1.3-3.5.1zM393 833.1c0 .6.9 1.3 1.9 1.6 1.1.3 2.2 1.2 2.5 2 .7 1.7 2.6.8 2.6-1.3 0-.8-.9-1.4-1.9-1.4-1.1 0-2.3-.5-2.6-1-.8-1.3-2.5-1.3-2.5.1zM261.6 696.9c-.4.7-.5 1.5-.2 1.8.9.9 1.9-.4 1.4-1.8-.4-1.1-.6-1.1-1.2 0zM269.6 699.7c-1.1 1.1-.6 2.3.9 2.3.8 0 1.5-.4 1.5-.9 0-1.3-1.6-2.2-2.4-1.4zM289 710c0 .5.5 1 1 1 .6 0 1-.5 1-1 0-.6-.4-1-1-1-.5 0-1 .4-1 1zM305.5 715c-.3.5.1 1 .9 1 .9 0 1.6-.5 1.6-1 0-.6-.4-1-.9-1-.6 0-1.3.4-1.6 1zM129 724c0 .5.5 1 1 1 .6 0 1-.5 1-1 0-.6-.4-1-1-1-.5 0-1 .4-1 1zM338 727.9c0 .6.7 1.1 1.5 1.1 1.2 0 6.1 2.1 11.7 5.1 1 .5 2.7.9 3.9.9 2.2 0 2.2 0 .4-2-1-1.2-2.5-1.8-3.2-1.6-.7.3-1.6-.1-2-.8-.5-.7-2.4-1.6-4.3-1.9-1.9-.3-4.5-.8-5.7-1.2-1.5-.5-2.3-.3-2.3.4zM363 737.6c0 .9 4 2.3 4.4 1.5.3-.5-.5-1.1-1.9-1.3-1.4-.3-2.5-.4-2.5-.2zM201.5 753c.3.5.8 1 1.1 1 .2 0 .4-.5.4-1 0-.6-.5-1-1.1-1-.5 0-.7.4-.4 1zM325.5 772c-1.3 1.4-1.6 2.9-1.2 5.5.3 1.9.1 3.7-.4 4-1.8 1.2-.8 2.2 4.4 4.7 9.9 4.8 12 5.3 16.3 3.6 4.8-1.9 6.3-4.1 4.7-6.6-.9-1.5-.7-2.1.8-3 2.5-1.6 2.4-3.5-.4-6.8-2.8-3.2-7.3-3.5-11.4-.9-2.4 1.6-2.6 1.6-4-.4-1.8-2.7-6.4-2.7-8.8-.1zm22 3c.7 1.2-5.5 4.1-6.9 3.3-1.1-.7 3.1-4.3 5-4.3.7 0 1.6.5 1.9 1zm-16.5 2.1c0 .5-.4.9-1 .9-.5 0-1-.7-1-1.6 0-.8.5-1.2 1-.9.6.3 1 1 1 1.6zm4.8 6.1c-.2.9 1.1 1.3 4 1.3 2.3 0 4.2.1 4.2.3 0 .1-1.1.7-2.5 1.2-3.7 1.4-8.5.2-8.5-2.1 0-1.1.7-1.9 1.5-1.9s1.4.6 1.3 1.2zM50.5 786c-3.8.5-9.9 1.5-13.5 2.4-8.1 1.9-8.5 2-7 .1 2-2.4-1.2-2.9-9.2-1.6-10.3 1.7-13.2 3.7-8.7 6.1 1.5.8 2.9.8 5.1.1 4.2-1.5 4.5-1.4 5.1 1 .5 1.9 1.1 2.1 3.9 1.6 1.8-.4 10.2-1.9 18.5-3.6 11.4-2.1 18.4-2.9 27.5-3 8.2 0 11.8.3 10.8.9-.8.5-2.8 1-4.3 1-1.6 0-4.7.4-7 .9-12.7 2.8-34.1 5.4-56.2 6.8-6.9.4-9.5 1-11.1 2.4-1.1 1-2.6 1.9-3.2 1.9-.7 0-1.2.7-1.2 1.5 0 1.6 4.9 2.1 6.6.7 1-.9 11.3-2.4 32.4-4.7 7.4-.8 19.8-2.6 27.5-4 17.6-3.2 38.1-3.3 42.8-.2 1.6 1.1 2.7 2.7 2.7 4.1 0 5.1 3.7 4 4.5-1.2.4-2.1 1.3-5 2.1-6.5 1.4-2.5 1.4-3 0-5.2-2-3-4.5-3.2-8.6-.7-2.8 1.8-3.5 1.8-10.3.5-8.5-1.7-39.2-2.5-49.2-1.3zM199.2 800.9c-.8.5-1.2 1.7-1 2.6.3 1.9 3 3 10.3 4.5 19.3 3.8 24.7 5.1 26.7 6.3 4.1 2.6 16.3 5.2 34.3 7.2 7.9.9 18 2.5 19.4 3 .8.3 6.7 1 13 1.5 6.5.5 13.3 1.6 15.5 2.5 4.3 1.8 8.1 1.7 8.1-.4 0-2.2-7.9-4.1-21.2-5.1-6.8-.6-15.3-1.6-19-2.4-3.8-.8-10.6-1.7-15.3-2.1-12-1-28.4-4.2-32.8-6.5-4.3-2.2-17.3-5.7-25-6.6-4.4-.6-5.5-1.1-6.3-3-.9-2.5-4.1-3.2-6.7-1.5zM134.2 809.6c-1.2.8-2.2 2.1-2.2 2.9 0 2.1 3.8 5.2 7.1 5.9 5.6 1 6.1 1.3 7.1 2.9 1.1 2.1 2.8 2.2 5.4.3 1.9-1.5 1.8-1.5-.6-4.1-9.7-10.1-12.1-11.2-16.8-7.9zM72.4 811c-2.9 1.1-6.4 5.8-5.7 7.6.3.8 1.7 1.7 3.2 2 1.4.4 3.6 1.8 4.8 3.3l2.2 2.6 1.5-3.6c2.8-6.7 2.9-8.6.7-10.8-2.3-2.3-3.4-2.5-6.7-1.1zM85.9 814.5c-1.5.8-3 2.2-3.3 3.1-.7 1.9 1.9 5.4 4.1 5.4.7 0 1.6.7 1.9 1.5 1.5 3.9 6.4-.7 6.4-6s-3.7-6.9-9.1-4zM119.7 813.7c-3 .5-5 3.3-4.1 5.7.6 1.7 5.5 3.6 9.1 3.6 3.2 0 8.3-2.7 8.3-4.5 0-.7-1.2-2.3-2.6-3.4-2.6-2-4.7-2.3-10.7-1.4zM6.4 820.3c-2.7 2.4-2.8 2.5-1.1 5.1 1 1.4 2.4 2.6 3.1 2.6.8 0 1.6.7 2 1.5.9 2.6 3.3 1.7 4.6-1.8 1.1-2.7 1.4-2.9 1.7-1.2.5 2.2 8.6 10.5 10.2 10.5.6 0 1.5-.9 2.1-2 1.3-2.4 3.5-2.6 4.4-.5.7 1.9 3.6 2 3.6 0 0-.8.9-1.9 2-2.5 4-2.1 4.9-8 1.3-8-.9 0-2.1-.6-2.7-1.3-.6-.7-3.9-1.9-7.4-2.6-6.1-1.2-6.3-1.1-9.7 1.5-2.6 1.9-3.5 2.2-3.5 1.1 0-1.9-1.8-3.4-5.1-4.2-2-.5-3.3 0-5.5 1.8zM405.5 819.3c-2.1 1.6-.8 2.9 3.7 3.4 3.2.3 4.5-1.2 2.8-3.2-1.5-1.9-4.1-1.9-6.5-.2zM421 820.5c0 .8.9 1.5 2 1.5s2-.7 2-1.5-.9-1.5-2-1.5-2 .7-2 1.5zM432.4 821.1c-.3.6-.1 1.5.7 1.9 1.4.9 4.9-.5 4.9-2 0-1.4-4.7-1.3-5.6.1zM136.9 825.1c-2.8 2.8-1.9 4.4 2.7 4.4 3.4 0 3.9-.3 4.2-2.4.6-4.2-3.5-5.4-6.9-2zM150 827.5c-1 1.2-.9 1.6.4 2.1 2.2.8 4.6-.2 4.6-2.1 0-1.9-3.4-2-5 0zM45.8 828.1c-3.9 2.2-.9 7.8 3.4 6.3 1.3-.5 3.7-.8 5.3-.9 2.5 0 3-.4 3-2.5 0-2.2-.5-2.5-3.5-2.6-1.9-.1-4.2-.4-5-.8-.8-.3-2.3-.1-3.2.5zM150.7 857c-1.6 1.3-2.7 3.1-2.7 4.6 0 2.2-.4 2.4-5 2.4-2.8 0-6.7.7-8.7 1.5-4.6 1.9-30.3 2.1-33.3.3-1.5-1-2.9-.9-6.7.5-4 1.4-7.6 1.6-22.8 1.1-9.9-.2-24-.6-31.3-.8-11-.3-13.6-.7-15.2-2.1-1.8-1.6-2.3-1.7-4.8-.4-1.5.7-3 1.5-3.4 1.7-.5.2-.8-1.3-.8-3.2 0-2.3-.5-3.9-1.5-4.2-1.7-.7-6.5 2.1-6.5 3.7 0 .5-1.2 2.1-2.7 3.4-2.6 2.2-2.9 2.3-4 .8-1.1-1.4-1.3-1.1-1.3 2.4v4.1l5.1-1.5c4.5-1.3 5.2-1.3 6.8.1 2.1 1.9 5.2 2.1 7 .4.9-1 9.3-1.3 35.7-1.1 19 .1 34.8.4 35.2.7.3.4-.1 1.2-1 1.9-.8.6-1.8 2-2.1 3-.6 1.6.5 1.7 14.1 1.7 8.1 0 14.2-.4 13.6-.8-.7-.4-1.3-1.6-1.6-2.7-.2-1.5-1.2-2-3.8-2.1-1.9 0-3.6-.6-3.8-1.3-.3-1 .2-1.2 2.1-.7 1.4.3 2.8.2 3.1-.3.3-.5 4.4-.6 9.1-.3 6.3.3 9.6.1 12.7-1.1 5.9-2.2 16.1-3.1 18.6-1.8 1.2.6 2.4 2 2.7 3.1.9 2.8 2.2 2.5 4-1.1 1.5-2.8 1.9-3 6.3-2.7 4.6.3 4.7.3 4.7 3.8 0 2.5.5 3.5 1.8 3.8 2.7.5 4.9-1.8 4.3-4.4-.6-2.1-.4-2.2 4.1-1.9 7.8.6 11.7 1.6 13 3.3 1.1 1.3 1.6 1.4 3.7.2 2.2-1.1 2.8-1 5.3.9 2.1 1.7 3.5 2.1 6.1 1.6 2-.4 3.9-.1 4.7.5 1 .8 1.9.8 3.4 0 2.5-1.3 2.6-1.8.4-4.2-1.5-1.7-1.4-1.8 2.5-1.8 2.3 0 4.2-.5 4.2-1 0-1.1-.4-1.2-6.3-1.5-2.1-.1-4.9-.8-6.3-1.5-2-1.1-3.1-1.1-5.8-.2-5.2 1.9-9.6 1.6-9.6-.7 0-4.1-1.1-5.1-5.6-5.1-4.1 0-4.5.2-5 3-.7 3.1-2.2 3.8-4.1 1.9-.8-.8-1.7-.7-3.4.3-1.6 1-4.3 1.3-8.1 1-5.3-.3-5.7-.6-6.3-3.2-1.2-5.4-6.5-7.3-10.8-4zM492 866.5c-1 1.2-.9 1.6.4 2.1 1.8.7 4.9-1.3 4-2.7-.8-1.4-3-1.1-4.4.6z"/><path d="M141.4 869.4c-1.6 4.3 1.5 6.9 5.1 4.2 1.6-1.2 1.8-1.8.9-3.3-1.4-2.3-5.2-2.9-6-.9z"/></svg>