<?xml version="1.0" encoding="UTF-8" standalone="no"?> <!-- Created with Vectornator for iOS (http://vectornator.io/) --><!DOCTYPE svg PUBLIC "-//W3C//DTD SVG 1.1//EN" "http://www.w3.org/Graphics/SVG/1.1/DTD/svg11.dtd">
<svg xml:space="preserve" xmlns:xlink="http://www.w3.org/1999/xlink" height="100%" style="fill-rule:nonzero;clip-rule:evenodd;stroke-linecap:round;stroke-linejoin:round;" version="1.1" xmlns:vectornator="http://vectornator.io" width="100%" xmlns="http://www.w3.org/2000/svg" viewBox="0 0 500 878">
<metadata>
<vectornator:setting key="WDSnapToGrid" value="false"/>
<vectornator:setting value="true" key="WDRulersVisible"/>
<vectornator:setting value="true" key="VNDimensionsVisible"/>
<vectornator:setting value="Points" key="WDUnits"/>
<vectornator:setting value="false" key="WDDynamicGuides"/>
<vectornator:setting key="UndoHistoryDisabled" value="false"/>
<vectornator:setting key="IsTimeLapseWatermarkDisabled" value="false"/>
<vectornator:setting key="WDCMYKEnabledKey" value="false"/>
<vectornator:setting value="false" key="WDSnapToEdges"/>
<vectornator:setting value="false" key="WDOutlineMode"/>
<vectornator:setting key="WDGuidesVisible" value="true"/>
<vectornator:setting key="WDDisplayWhiteBackground" value="false"/>
<vectornator:setting key="WDSnapToPoints" value="false"/>
<vectornator:setting value="true" key="VNSnapToGuides"/>
<vectornator:setting key="VNPencilOnly" value="false"/>
<vectornator:setting value="false" key="WDIsolateActiveLayer"/>
</metadata>
<defs/>
<g id="Untitled" vectornator:layerName="Untitled">
<path d="M165.1+28.7C162.8+31.8+161+34.7+161+35.1C161+36.8+162.9+37+164.2+35.4C164.9+34.5+166.5+32.7+167.8+31.3C170+28.9+170.2+28.9+172.1+30.6C173.6+31.9+177+40.4+177+42.7C177+43.6+174.1+42.8+173+41.5C171.3+39.5+170.3+39.6+169+42.1C168.2+43.6+168.2+44.5+169+45.5C169.6+46.3+169.7+47.1+169.2+47.4C167.8+48.2+166.3+46.1+165.5+42C164.5+37.3+164.1+36.7+162.4+38.1C160.5+39.6+160.6+46+162.6+48.8C163.6+50.2+165.1+51+167.1+51C173.8+51+176.9+55+174.6+60.5C173.8+62.4+172.7+64+172.1+64C171.6+64+170.3+65.4+169.3+67C167+71+164.6+71.6+161.4+69.1C157.7+66.2+155.7+66.5+151.6+70.4C148.9+72.9+148+74.5+148+77.1C148+79+147.3+82.7+146.5+85.4C145.7+88+145.3+90.7+145.6+91.2C146.7+92.9+159.1+91.5+163+89.3C164.9+88.2+167.6+85.4+168.9+83C171.2+79+171.2+78.5+169.8+76C168.4+73.5+168.4+73.1+170.2+70.7L172.1+68.1L177.7+76.2L183.2+84.4L182+89.5C180.6+95.7+181.9+102.8+185.6+108.1C187.6+111.1+188.2+113.6+189+123.1C189.6+129.4+190.2+135.2+190.5+136C190.9+137.6+192+173.6+192+185.5C192+189.3+191.6+199.7+191.2+208.5C190.7+217.3+190.4+232.7+190.5+242.6C190.7+260.5+190.7+260.8+188.6+260.8C187.5+260.8+185.7+261+184.6+261.2C182.5+261.5+182+260.7+179.6+253.2C177.7+247.3+173.1+240+169.5+237.2C167.9+235.9+167+234.1+166.8+231.4C166.5+227.7+166.7+227.4+171.1+225.2C178.7+221.3+180.5+215.8+177.6+206C176.9+203.5+175.6+201.4+174.8+201.2C172.6+200.8+160.6+211.3+158.6+215.3C156.3+220.2+156.6+222.8+160+229.5C161.6+232.7+162.7+235.6+162.4+235.9C162.1+236.2+160.5+235.7+158.9+234.7C157.2+233.8+154.9+233+153.7+233C150.7+233+149.8+232.3+145.6+226.7C143.6+224.1+142+220.8+142+219.4C142+218.1+141+215.9+139.7+214.6C137.7+212.6+136.8+212.4+131.1+213C125.5+213.5+124.4+214+121.7+217C120+218.9+117.3+221+115.6+221.6C113.1+222.5+112.5+223.3+112.5+225.5C112.5+229.8+118.3+234+125.3+234.7C130.3+235.2+131.4+235+135.9+232.1C138.7+230.4+141.2+229+141.5+229C142.9+229+141.6+231.8+138.5+235.6C136.6+237.9+135+240.6+135+241.5C135+242.5+136.1+246.4+137.5+250.1C138.8+253.9+140+257.3+139.9+257.8C139.9+258.2+141+258.6+142.2+258.8C145.6+259.1+153.6+251.1+156.6+244.5C158.7+239.5+159.3+239+162.1+239C168.5+239+176.6+251.5+175.4+259.6C174.7+264.5+176.1+267.7+179.6+269C181.4+269.7+182+270.7+182+272.9C182+274.9+182.8+276.4+184.7+277.8C186.6+279.2+187.4+280.7+187.6+283.6C188+288.2+188.5+317.5+189.5+393.6L190.3+448.6L185.2+451.3C172.4+458+170.6+460.5+182.5+455.1C186+453.5+189.1+452.4+189.4+452.8C190.5+453.8+190+479.9+189+480.5C188.5+480.8+187+480.4+185.8+479.6C180.7+476+180.5+479.3+185.5+483.3L189.1+486.1L188.8+495.8L188.5+505.5L182.2+506C178.8+506.3+176+506.9+176+507.5C176.1+508.5+176.5+508.5+184.2+507.5C188.2+506.9+188.9+507.1+189.4+508.7C189.8+509.8+193+513.5+196.6+517C204.8+524.8+208.4+531.8+207.8+538.8C207.5+541.4+207+544.4+206.5+545.4C205.8+547.1+206+547.2+208.2+546.7C212.6+545.6+226.1+553+228.2+557.5C229.7+560.7+228.4+562+226.5+559.3C224.4+556.3+216.6+553.9+210.2+554.3C204+554.7+199.6+557.5+199.2+561.3C198.7+565.3+201.7+564.7+203.4+560.5C204.2+558.6+205.5+557+206.2+556.9C212+556.5+218+557.5+221.3+559.3C225.1+561.4+225.1+561.5+224.5+566C224.1+568.5+223.7+570.7+223.5+570.8C223.3+571+220.9+571.3+218.1+571.4C210.2+571.8+210.1+572.8+217.9+574.8C219.8+575.2+221.6+576.2+221.8+576.9C222.1+577.8+220.8+578+216.3+577.5C211.3+576.9+209.7+577.1+206.2+578.9C202.5+580.8+202+581.5+202+584.4C202+587.7+204+590.6+205.3+589.3C205.7+589+206+587.2+206+585.4C206+581.6+208.2+579.9+213.2+579.8C216.6+579.7+220+582.8+220+586C220+588.5+213.4+590.7+200.1+592.5C189.8+594+188.4+594+184.9+592.6C182.7+591.7+180.2+591+179.2+591C177.7+591+173.1+589.4+162+585C137.2+575+138.6+576.1+138.2+566.2C137.6+554.3+140.7+546+145.8+546C146.7+546+152.4+549.3+158.4+553.2C174.2+563.8+177+565.4+178.2+564.2C179.1+563.3+171.9+557.4+164.8+553.4C163.7+552.7+162.3+551.7+161.7+551.1C161.1+550.5+159.6+550+158.3+550C157+550+156+549.4+156+548.6C156+547.8+155.4+547+154.6+546.8C153.9+546.6+150+543.4+146+539.7C137.2+531.3+136.3+528.9+138.4+518.8C139.1+514.8+140.1+509.8+140.5+507.7C141+504.4+141.7+503.6+145.3+502C148.1+500.7+149.8+500.4+150.6+501.1C151.3+501.6+152.1+506.1+152.5+511C153.3+521.7+154.4+523.3+162.8+527.8C166.1+529.6+169.3+531.6+169.9+532.4C170.6+533.2+173.5+535.4+176.3+537.1C179.2+538.9+183.1+541.6+185+543C188.8+545.9+199.1+549.2+200.8+548.1C201.4+547.8+199.8+546.6+197.2+545.6C190.3+542.9+181+536.7+181+534.9C181+532.7+184.7+529+187.1+529C193.1+529+201.6+536.2+200.7+540.7C200.1+543.7+201.9+544.8+203.7+542.5C205.7+539.7+205.3+537.7+201.9+533.4C198.4+528.8+193+526.1+187.6+526C184.6+526+183.1+526.7+180.3+529.5C178.4+531.4+176.5+533+176.2+533C175.8+533+172.4+530.9+168.6+528.5C164.8+526+161.1+524+160.4+524C158+524+156.3+518.6+155+507C153.7+495.8+153.5+476.5+154.6+472.5C156.2+466.5+162.7+461+168.2+461C169.6+461+171.3+460.3+172+459.5C173.6+457.6+172.7+457.6+165.7+460C153+464.2+151.3+466.9+150.4+483.7C149.8+497.8+149.8+497.8+142.4+501C137.8+503+136.9+504.7+134.9+516C132.2+531.1+132.2+531.3+138+537.4L143.3+543L140.3+545.7C134.7+551+133.7+554.3+134.3+565.3C134.9+576.4+135.5+577.6+142.6+581.1C145+582.2+147+583.5+147+583.8C147+584.2+146.3+586.3+145.4+588.7C142.9+595.2+144.2+602.7+148.4+607C152.2+610.8+162+614.8+177.5+618.8C183+620.2+187.7+621.4+187.9+621.6C188.1+621.8+188.1+626.3+188+631.7C187.3+657.4+187.7+678.8+189.6+702.2C190.3+711.4+192.3+713.9+199.4+714.7C205.4+715.4+208.3+714.6+212.4+710.9C216.6+707.3+216.9+706.1+217.5+688.5C217.8+680.8+218.2+673.1+218.4+671.5C218.7+669.8+219.2+658.8+219.5+647C220+626.6+220.2+625.4+222.2+623.9L224.3+622.3L222.1+620.1C219.4+617.4+219.9+614.1+223.6+609.7C227.1+605.5+226.9+600.3+222.9+596.2C221.2+594.4+219.4+593+218.9+593C216.7+593+218.3+590.8+221.4+589.5C225.2+587.9+229+583.7+229+581.1C229+580.2+228.3+578.4+227.4+577.2C225.5+574.4+226.2+572+229+572C231.9+572+234.3+566+233.5+560.9C232.9+557.4+233+557+234.9+557C237.6+557+237.5+556+234.4+550.3C230.6+543.6+229.2+537.3+228+522C226.4+502.9+225.7+499.4+220.6+488.9C212+470.8+209.7+454.6+213.5+440C215.4+432.8+222.4+425.4+226.4+426.4C230+427.3+229.6+429.6+225.6+431C219.8+432.9+218.7+434.9+218.8+444.1C218.8+455.4+220.8+456.8+232.8+454.7C236.6+454+237+454.2+237+456C237+459.6+246+476+248+476C249.7+476+249.1+474+244.9+465.8C241.9+459.7+240.3+454.8+238.4+445.2C237.1+438.2+235.5+431.3+234.9+429.8C233.5+426.4+229.9+424+226+424L223+424L223.4+414.2C223.7+408.9+224.1+397.7+224.5+389.5C224.9+381.2+225.8+372.9+226.5+371C227.2+369+227.8+365.8+227.8+363.7C227.8+361.5+229.3+356.9+231.5+352.2C233.5+348+235.6+342.3+236.1+339.5C236.6+336.6+238+333.5+239.5+332C242.1+329.2+242.7+326.1+241+323C240.2+321.5+240.5+320.8+242.8+319.2C248.9+315+252+315.4+252+320.5C252+324.8+254.2+327+258.4+327C260.3+327+263.7+327.7+266+328.5C268.3+329.3+270.8+330+271.4+330C272.1+330+273.2+327.3+273.8+324C275.3+316.8+274.3+313.8+269.1+310.3C264.5+307.2+260.7+307.4+257.2+310.8C254.9+313.1+253.6+313.6+251.1+313.2C247.2+312.7+247.2+311+251+306.7C252.7+304.8+254+302.1+254+300.7C254+299.3+254.7+297.7+255.6+297.2C257.1+296.4+257+295.9+254.9+293.1C252.6+290+250.6+289.2+249.5+291C248.2+293.1+247+291.8+247+288.2C247+284+250.2+278+252.5+278C254.6+278+258.1+285.4+257.8+289.5C257.5+293.8+258.5+294.9+260.8+292.7C263.7+289.7+263+283+259.4+277.8C257.6+275.5+255.4+273.3+254.5+273.2C252.2+272.7+244.1+281.4+243.3+285.1C242.5+289.1+241.5+289.5+238.3+287.1C235.3+284.7+233+285.7+233+289.4C233+290.6+232.3+292.5+231.5+293.6C230.7+294.6+230+296.5+230+297.7C230+300.2+235.5+307+237.5+307C239.2+307+240.6+308.9+241.4+312.2C241.9+314.6+241.5+315.1+235.5+318.4C229+322+226.4+322.8+227.4+321.1C227.7+320.6+227.5+317.8+227+314.9C225.4+306.6+225.7+248+227.5+231C228.3+223+229+209.8+229+201.6C229+193.5+229.5+180.4+230.1+172.5C230.9+162.6+230.9+154.9+230.2+147C229+134.2+230+128.9+235.3+121.1C241.8+111.6+244.3+98.8+242.1+87.9C241.1+83.2+240+81.2+235.7+76.7C231+71.7+230+71.1+225.5+70.6C222.8+70.4+217.4+69.6+213.5+69C204.7+67.5+200.7+68.6+194.4+74.1C191.9+76.3+189.3+77.9+188.6+77.7C187.4+77.3+183+71.2+183+69.9C183+69.4+184.3+68.4+186+67.5C188.6+66.1+189.2+66.1+192.3+67.6C195.4+69.1+196.2+69.1+201.2+67.6C205.8+66.3+207.3+65.2+211.3+60.3C213.9+57.1+216+54+216+53.3C216+51.3+212.4+50+206.6+50C203.6+50+200.9+49.6+200.6+49.1C200.3+48.7+201.2+47.2+202.6+45.9C208.8+40.1+211.8+28.8+206.6+30.5C205.5+30.9+201.1+31.5+197+31.9C189.1+32.6+186.7+33.5+183.5+36.9L181.6+39.1L180.3+36.8C179.6+35.5+179.1+33.7+179+32.8C179+30.9+171.9+23+170.2+23C169.6+23+167.3+25.5+165.1+28.7ZM205.4+36.2C204.1+40.4+200.5+44.2+196.2+46.1C190.6+48.6+190.2+48.5+192.9+45.6C195+43.3+195.1+41+193+41C192.5+41+190.8+42.2+189.1+43.6C183.4+48.4+181.8+43.1+187.5+38.2C190.4+35.6+191.7+35.1+196.5+35.1C199.7+35.1+202.4+34.9+202.8+34.6C203.1+34.3+204+34+204.7+34C205.7+34+205.9+34.6+205.4+36.2ZM180.2+42.2C179.5+42.9+179+43+179+42.4C179+41+180.2+39.8+180.9+40.5C181.1+40.8+180.8+41.6+180.2+42.2ZM182+50C182+53+179.8+54.2+177.8+52.3C175.6+50.3+175.5+49.2+177.7+46.8C179.3+45+179.5+45+180.7+46.6C181.4+47.6+182+49.1+182+50ZM188.3+52.8C189.2+54.1+186.5+63+184.7+64.7C182.1+67.3+180.6+65.1+181.5+60C182.4+54.6+186.7+50.1+188.3+52.8ZM211.4+54.8C211.7+55.3+210.4+57.2+208.5+59C204.4+62.9+196.7+65.5+195+63.5C194.2+62.6+194.6+62.1+196.5+61.6C197.9+61.2+199+60.6+199+60.1C199+58.9+196.9+57.3+194.5+56.8C192.7+56.3+192.7+56.2+195+55.3C198.1+54+210.7+53.7+211.4+54.8ZM157.1+75.1C156.5+76.8+156.3+78.6+156.6+79.1C157.4+80.5+160+80.1+160.6+78.5C161.4+76.6+164.6+76.6+165.4+78.5C166.2+80.7+164.4+84.7+161.8+86.4C160.5+87.2+157.7+88+155.5+88.2C151.8+88.4+151.5+88.3+151.7+86C152.3+79.3+153.5+75.3+155.4+73.3C158+70.6+158.5+71.1+157.1+75.1ZM209.1+90.7C208.9+111.5+208.6+115.3+207.2+115.8C206.5+116+206+115.6+206.1+114.9C206.5+112.9+205+109+203.9+109C203.4+109+203+108.3+203+107.5C203+106.7+203.5+106+204+106C204.6+106+205+106.4+205+107C205+107.5+205.4+108+205.9+108C206.4+108+206.7+101.5+206.5+93.3C206.2+78.3+206.4+76+208.2+77.8C208.8+78.4+209.2+83.8+209.1+90.7ZM204+79C204+79.5+203.6+80+203+80C202.5+80+202+79.5+202+79C202+78.4+202.5+78+203+78C203.6+78+204+78.4+204+79ZM214.5+81.8C214.8+83.3+215+90.4+214.8+97.4C214.6+106.9+214.2+110.4+213.2+110.7C211.3+111.5+211+110.8+211.9+106.8C212.4+104.8+212.5+102.8+212.1+102.5C210.9+101.2+211.4+79+212.7+79C213.3+79+214.1+80.3+214.5+81.8ZM203.6+83.7C202.6+84.7+201.7+83.2+202.6+81.9C203.2+80.8+203.4+80.8+203.8+81.9C204+82.6+203.9+83.4+203.6+83.7ZM234.7+87C234.6+89.7+234.2+92+233.9+92C233+92+232.2+84.9+232.8+83.2C233.8+80.3+234.9+82.4+234.7+87ZM203.8+100.5C202.6+101.9+201+99+201.6+96.5C201.8+95.4+202.2+92.5+202.4+90C203+83.3+203.3+83.7+204+92C204.3+96.1+204.2+99.9+203.8+100.5ZM219+87.4C219+87.7+218.6+88.2+218+88.5C217.5+88.8+217+88.6+217+88.1C217+87.5+217.5+87+218+87C218.6+87+219+87.2+219+87.4ZM219+93.5C219+95.4+218.6+97+218+97C217.5+97+217+95.4+217+93.5C217+91.6+217.5+90+218+90C218.6+90+219+91.6+219+93.5ZM199.6+97.8C198.3+99+197.9+97+198.6+93.8L199.5+90.5L199.8+93.8C200+95.7+199.9+97.4+199.6+97.8ZM230.9+95.7C231+98.4+231.2+102.3+231.5+104.5C231.7+106.7+231.6+109.6+231.3+111C230.7+113.3+230.6+113.3+229.9+111.5C229+109+228.8+92.6+229.7+91.7C230.7+90.6+230.7+90.7+230.9+95.7ZM188+96.6C188+97.4+187.6+97.8+187+97.5C186.5+97.2+186+96.2+186+95.4C186+94.6+186.5+94.2+187+94.5C187.6+94.8+188+95.8+188+96.6ZM192+98C192+98.5+191.8+99+191.6+99C191.3+99+190.8+98.5+190.5+98C190.2+97.4+190.4+97+190.9+97C191.5+97+192+97.4+192+98ZM223.6+111.7C223.3+112.5+222.6+112.9+222.1+112.5C221+111.9+220.8+99.2+221.8+97.6C222.7+96.2+224.3+109.7+223.6+111.7ZM195.7+100.2C195.4+101+195.1+100.7+195.1+99.6C195+98.5+195.3+97.9+195.6+98.3C195.9+98.6+196+99.5+195.7+100.2ZM199.7+101.2C199.4+102+199.1+101.7+199.1+100.6C199+99.5+199.3+98.9+199.6+99.3C199.9+99.6+200+100.5+199.7+101.2ZM219+100C219+100.5+218.8+101+218.6+101C218.3+101+217.8+100.5+217.5+100C217.2+99.4+217.4+99+217.9+99C218.5+99+219+99.4+219+100ZM237.5+104.2C236.9+107.4+235.4+109.8+234.6+108.9C234.4+108.7+233.9+107+233.5+105.1C232.9+102.2+233+101.8+234.4+102.3C235.3+102.7+236+102.5+236+102C236+101.4+236.5+101+237+101C237.6+101+237.8+102.3+237.5+104.2ZM192+104.6C192+106+191.6+106.9+191+106.5C190.5+106.2+190+105+190+103.9C190+102.9+190.5+102+191+102C191.6+102+192+103.2+192+104.6ZM203.6+104.7C202.6+105.7+201.7+104.2+202.6+102.9C203.2+101.8+203.4+101.8+203.8+102.9C204+103.6+203.9+104.4+203.6+104.7ZM196+105C196+105.5+195.5+106+194.9+106C194.4+106+194.2+105.5+194.5+105C194.8+104.4+195.3+104+195.6+104C195.8+104+196+104.4+196+105ZM218.5+108C218.8+108.5+218.6+109+218.1+109C217.5+109+217+108.5+217+108C217+107.4+217.2+107+217.4+107C217.7+107+218.2+107.4+218.5+108ZM223.1+116.3C221.8+117.6+220.5+116.6+221.5+115.1C221.8+114.5+222.6+114.3+223.2+114.6C223.8+115+223.8+115.6+223.1+116.3ZM218.2+118.2C219+122.7+217.5+138.3+216.3+138.7C215.2+139.1+215+132.3+215.9+117.7C216+115.2+217.7+115.6+218.2+118.2ZM212.6+119.7C211.6+120.7+210.7+119.2+211.6+117.9C212.2+116.8+212.4+116.8+212.8+117.9C213+118.6+212.9+119.4+212.6+119.7ZM232+118.8C232+120.4+228.8+124+227.4+124C225.4+124+225.6+120.3+227.8+119.1C229.9+117.9+232+117.7+232+118.8ZM213+122.4C213+123.2+212.6+124.2+212+124.5C211.5+124.8+211+124.2+211+123.1C211+121.9+211.5+121+212+121C212.6+121+213+121.6+213+122.4ZM213+128.9C213+130.6+212.6+132.2+212+132.5C211.4+132.9+211+131.7+211+129.6C211+127.6+211.5+126+212+126C212.6+126+213+127.3+213+128.9ZM209+130.6C209+131.9+208.6+133+208.1+133C206.8+133+205.7+129.3+206.5+128C207.5+126.4+209+127.9+209+130.6ZM225.7+129.2C225.4+130+225.1+129.7+225.1+128.6C225+127.5+225.3+126.9+225.6+127.3C225.9+127.6+226+128.5+225.7+129.2ZM222+135C222+136.1+221.6+137+221+137C220.5+137+220+136.1+220+135C220+133.9+220.5+133+221+133C221.6+133+222+133.9+222+135ZM213+143.1C213+149.2+211.3+149.6+210.8+143.5C210.4+138.4+210.8+136.7+212.1+137.6C212.6+137.9+213+140.3+213+143.1ZM209+140C209+140.5+208.6+141+208+141C207.5+141+207+140.5+207+140C207+139.4+207.5+139+208+139C208.6+139+209+139.4+209+140ZM217.3+143.6C216.9+144.8+216.5+144.9+215.9+143.9C215+142.4+215.7+140.7+217+141.5C217.5+141.8+217.6+142.8+217.3+143.6ZM217+150C217+150.5+216.6+151+216+151C215.5+151+215+150.5+215+150C215+149.4+215.5+149+216+149C216.6+149+217+149.4+217+150ZM212.7+155.7C212.4+156.7+212.2+155.9+212.2+154C212.2+152.1+212.4+151.3+212.7+152.2C212.9+153.2+212.9+154.8+212.7+155.7ZM209.7+160.2C209+167.2+208.8+167.4+208.1+161.5C207.4+156.1+207.6+155+209.1+155C209.8+155+210+157+209.7+160.2ZM217.2+158.2C215.7+159.7+214.6+158.6+215.4+156.4C215.9+155.1+216.3+154.9+217.2+155.8C218.1+156.7+218.1+157.3+217.2+158.2ZM225.7+161.7C225.5+163.3+225.3+162.2+225.3+159.5C225.3+156.7+225.5+155.5+225.7+156.7C225.9+158+225.9+160.2+225.7+161.7ZM202+159.2C202+160.8+201.7+161.1+200.9+160.3C200.3+159.7+200.1+158.7+200.4+158.1C201.5+156.4+202+156.8+202+159.2ZM212.7+160.2C212.4+161+212.1+160.7+212.1+159.6C212+158.5+212.3+157.9+212.6+158.3C212.9+158.6+213+159.5+212.7+160.2ZM202.4+167.1C202.1+167.6+201.4+167.8+200.9+167.4C200.4+167.1+200.2+166.4+200.6+165.9C200.9+165.4+201.6+165.2+202.1+165.6C202.6+165.9+202.8+166.6+202.4+167.1ZM217.5+166C217.8+166.5+217.6+167+217.1+167C216.5+167+216+166.5+216+166C216+165.4+216.2+165+216.4+165C216.7+165+217.2+165.4+217.5+166ZM202.6+173.7C201.6+174.7+200.7+173.2+201.6+171.9C202.2+170.8+202.4+170.8+202.8+171.9C203+172.6+202.9+173.4+202.6+173.7ZM217.5+174C217.8+174.5+217.6+175+217.1+175C216.5+175+216+174.5+216+174C216+173.4+216.2+173+216.4+173C216.7+173+217.2+173.4+217.5+174ZM203+178.2C203+178.9+202.5+180.2+202+181C201.2+182.2+201+181.9+201+179.7C201+178.2+201.5+177+202+177C202.6+177+203+177.6+203+178.2ZM225.1+185.2C225.2+188.7+225.2+191.7+225.2+192C223.9+224.1+223.1+234+221.8+234C221.1+234+221+230.3+221.4+222.7C221.8+216.6+222.3+204.3+222.5+195.5C222.8+177.3+222.7+179+224+179C224.6+179+225.1+181.8+225.1+185.2ZM198+181.2C198+181.9+197.5+183.2+197+184C196.2+185.2+196+184.9+196+182.7C196+181.2+196.5+180+197+180C197.6+180+198+180.6+198+181.2ZM219+187.2C219+187.9+218.6+189.1+218.1+189.9C217+191.6+215.6+189.6+216.4+187.5C217.1+185.7+219+185.5+219+187.2ZM203+192.6C203+193.4+202.5+193.8+202+193.5C201.4+193.1+201.2+192.4+201.5+191.9C202.4+190.5+203+190.8+203+192.6ZM210+205.9C210+217.3+209.5+221+208.1+221C207.8+221+207.5+214.9+207.5+207.5C207.5+197.4+207.8+194+208.8+194C209.7+194+210+197.1+210+205.9ZM196.6+198.7C195.6+199.7+194.7+198.2+195.6+196.9C196.2+195.8+196.4+195.8+196.8+196.9C197+197.6+196.9+198.4+196.6+198.7ZM204.6+199.9C205.2+202.1+205.4+204.4+205+205.1C203.8+206.9+201.8+205.1+202.5+202.9C202.9+201.8+202.6+200.3+202+199.5C200.9+198.1+201.4+196+202.9+196C203.3+196+204.1+197.8+204.6+199.9ZM217.6+201.8C216.5+202.8+216.1+201.4+216.8+199L217.5+196.5L217.8+198.8C218+200.1+217.9+201.4+217.6+201.8ZM214+203C214+203.5+213.6+204+213+204C212.5+204+212+203.5+212+203C212+202.4+212.5+202+213+202C213.6+202+214+202.4+214+203ZM213.6+207.7C212.6+208.7+211.7+207.2+212.6+205.9C213.2+204.8+213.4+204.8+213.8+205.9C214+206.6+213.9+207.4+213.6+207.7ZM173.3+211.9C174.5+217.8+173.5+220.7+169.9+222.5C161.2+227.1+159+219.4+166.7+210.9C168.7+208.7+170.8+207.1+171.4+207.3C172+207.5+172.8+209.6+173.3+211.9ZM214+211.5C214+212.3+213.6+213+213+213C212.5+213+212+212.3+212+211.5C212+210.7+212.5+210+213+210C213.6+210+214+210.7+214+211.5ZM218.7+213.8C217.7+214.8+217+216.1+217+216.7C217+217.3+215.9+217.7+214.5+217.7C211.3+217.7+211.3+216.7+214.8+214.1C218.4+211.4+221+211.2+218.7+213.8ZM136.7+218.5C137+219.4+136.5+220.9+135.6+221.9C134.4+223.2+134.2+224+134.9+224.5C136.9+225.7+136+227.9+133+229.5C128.6+231.8+122.1+231.4+119.3+228.8C116.3+226+116.4+225.1+120+223.8C121.7+223.3+123.7+221.5+124.6+219.9C125.9+217.3+126.5+217+131.1+217C134.6+217+136.2+217.4+136.7+218.5ZM204+218C204+218.5+203.8+219+203.6+219C203.3+219+202.8+218.5+202.5+218C202.2+217.4+202.4+217+202.9+217C203.5+217+204+217.4+204+218ZM218+221C218+221.5+217.6+222+217+222C216.5+222+216+221.5+216+221C216+220.4+216.5+220+217+220C217.6+220+218+220.4+218+221ZM214+223C214+224.1+213.6+225+213+225C212.5+225+212+224.1+212+223C212+221.9+212.5+221+213+221C213.6+221+214+221.9+214+223ZM200+223.4C200+223.7+199.6+224.2+199+224.5C198.5+224.8+198+224.6+198+224.1C198+223.5+198.5+223+199+223C199.6+223+200+223.2+200+223.4ZM209.3+223.6C210.1+224.4+209+227+207.9+227C207.4+227+207+226.1+207+225C207+223.1+208.1+222.4+209.3+223.6ZM218+226.6C218+227.4+217.6+228+217+228C216.5+228+216+227.1+216+225.9C216+224.8+216.5+224.2+217+224.5C217.6+224.8+218+225.8+218+226.6ZM212.7+229.2C212.4+230+212.1+229.7+212.1+228.6C212+227.5+212.3+226.9+212.6+227.3C212.9+227.6+213+228.5+212.7+229.2ZM209.3+229.6C210.1+230.4+209+233+207.9+233C207.4+233+207+232.1+207+231C207+229.1+208.1+228.4+209.3+229.6ZM204+232.5C204+233.3+203.6+234+203+234C202.5+234+202+233.3+202+232.5C202+231.7+202.5+231+203+231C203.6+231+204+231.7+204+232.5ZM213+234C213+234.5+212.6+235+212+235C211.5+235+211+234.5+211+234C211+233.4+211.5+233+212+233C212.6+233+213+233.4+213+234ZM209+235.4C209+236.2+208.6+237.1+208.1+237.5C206.9+238.2+205.7+236.3+206.5+235C207.4+233.5+209+233.8+209+235.4ZM149.5+239.7C151+239+152+241+152+244.8C152+247.3+145.8+255+143.8+255C143.4+255+143+253.4+143+251.5C143+249.6+142.2+246.5+141.3+244.6C140+241.7+139.9+240.6+140.8+238.5L142+235.9L145+238C146.7+239.2+148.7+239.9+149.5+239.7ZM205+236.9C205+237.5+204.6+238.2+204+238.5C203.5+238.8+203+238.4+203+237.6C203+236.7+203.5+236+204+236C204.6+236+205+236.4+205+236.9ZM213+238C213+238.5+212.5+239+211.9+239C211.4+239+211.2+238.5+211.5+238C211.8+237.4+212.3+237+212.6+237C212.8+237+213+237.4+213+238ZM200+239C200+239.5+199.6+240+199+240C198.5+240+198+239.5+198+239C198+238.4+198.5+238+199+238C199.6+238+200+238.4+200+239ZM221.7+241.2C221.4+241.9+221.2+241.4+221.2+240C221.2+238.6+221.4+238.1+221.7+238.7C221.9+239.4+221.9+240.6+221.7+241.2ZM209+240C209+240.5+208.6+241+208+241C207.5+241+207+240.5+207+240C207+239.4+207.5+239+208+239C208.6+239+209+239.4+209+240ZM205+240.9C205+241.5+204.6+242.2+204+242.5C203.5+242.8+203+242.4+203+241.6C203+240.7+203.5+240+204+240C204.6+240+205+240.4+205+240.9ZM222+252.1C222+259.7+221.8+261.1+220.5+260.7C219.7+260.3+218.8+260.4+218.6+260.9C217.5+262.7+217.1+314+218.2+317.2C219.9+322.3+221.3+323.1+220.3+318.5C219.9+316.3+219.6+307.5+219.7+299C219.9+274.6+220.2+269+221.1+268.4C221.6+268.1+222+277.8+222+290.7C222+303.2+222.3+315.1+222.6+317.1C223.1+320.2+222.8+321.1+220.4+323.3C218.2+325.4+217.9+326.1+218.9+327.4C219.9+328.6+219.8+328.9+218.2+329.4C217.1+329.8+215.5+330.9+214.5+332C213.5+333.1+212.4+334+212+334C211.7+334+211.4+331.4+211.5+328.2C211.6+323.4+210.6+316.3+210+318C209.9+318.3+209.7+322.3+209.6+327C209.4+331.7+209.2+337.4+209.1+339.7C208.9+346.7+207.2+344.6+207.1+337.2C207.1+333.5+206.8+324.1+206.4+316.2C205.9+305.7+206+302+206.8+302C207.5+302+208.1+303+208.1+304.2C208.6+310.7+208.9+313.2+209.4+313.7C210+314.3+210.5+307.6+210+305.5C209.5+303+210+254.9+210.6+250.2C211.4+243.4+213+243.5+213+250.4C213+255.9+214.4+258.6+215.6+255.5C216.2+254.2+216.4+254.1+217.1+255.2C218.4+257.2+220+254.3+220+249.8C220+246.3+220.8+243+221.6+243C221.8+243+222+247.1+222+252.1ZM205+251.2C205+253.2+204.6+255.2+204+255.5C203.4+255.9+203+253.9+203+250.3C203+246.2+203.3+244.9+204+246C204.5+246.8+205+249.2+205+251.2ZM208.4+262.7C208+271.4+207.7+279.3+207.8+280.2C207.8+281.2+207.4+282.3+206.8+282.6C206.1+283.1+205.9+278.4+206.3+267.4C206.7+258.6+206.9+250.5+207+249.2C207+248+207.5+247+208.1+247C208.8+247+208.9+251.9+208.4+262.7ZM200+254.1C200+255.2+199.6+255.9+199+255.5C198.5+255.2+198.3+254.3+198.7+253.5C199.4+251.4+200+251.6+200+254.1ZM204.4+260.8C204+262+203.4+263+202.9+263C201.8+263+201.7+258.6+202.7+257.7C203.9+256.5+205+258.5+204.4+260.8ZM190+264.5C192.1+265.6+193+266.8+193+268.5C193+269.9+192.6+271+192+271C191.5+271+191+270.3+191+269.4C191+268.6+190.5+268.2+189.9+268.6C189.3+269+189.1+270.6+189.5+272.6C189.8+274.7+189.7+276+189+276C188.5+276+188+275.7+187.9+275.2C187.9+274.8+187.8+272.7+187.6+270.5C187.5+268.3+187+265.7+186.6+264.7C185.6+262.6+186.3+262.6+190+264.5ZM204+270.9C204+275.9+202.4+277.1+201.8+272.6C201.4+268.7+201.8+267+203.1+267C203.6+267+204+268.8+204+270.9ZM200+274C200+276.7+199.6+279+199+279C198.5+279+198+276.7+198+274C198+271.2+198.5+269+199+269C199.6+269+200+271.2+200+274ZM203.7+280.5C203.9+281.9+203.6+283+203+283C202.5+283+202+281.6+202+279.8C202+276.3+203.2+276.8+203.7+280.5ZM200.5+281.9C200.8+282.4+200.6+283.1+200+283.5C199.5+283.8+199+283.4+199+282.6C199+280.8+199.6+280.5+200.5+281.9ZM208+286C208+286.5+207.6+287+207+287C206.5+287+206+286.5+206+286C206+285.4+206.5+285+207+285C207.6+285+208+285.4+208+286ZM200.5+289.9C200.8+290.4+200.6+291.1+200+291.5C199.5+291.8+199+291.4+199+290.6C199+288.8+199.6+288.5+200.5+289.9ZM242.3+297.1C243.5+299.6+243.6+300.7+242.7+302.2C241.1+304.7+239.5+304.5+237.1+301.4C234.7+298.4+234.5+296.8+236+293.9C237.4+291.3+240.1+292.8+242.3+297.1ZM203.7+296.2C203.4+297+203.1+296.7+203.1+295.6C203+294.5+203.3+293.9+203.6+294.3C203.9+294.6+204+295.5+203.7+296.2ZM196+299.6C196+300.4+195.5+300.8+195+300.5C194.4+300.1+194.2+299.4+194.5+298.9C195.4+297.5+196+297.8+196+299.6ZM200.5+300C200.8+300.5+200.6+301+200.1+301C199.5+301+199+300.5+199+300C199+299.4+199.2+299+199.4+299C199.7+299+200.2+299.4+200.5+300ZM201+304.4C201+304.7+200.6+305.2+200+305.5C199.5+305.8+199+305.6+199+305.1C199+304.5+199.5+304+200+304C200.6+304+201+304.2+201+304.4ZM196+306.6C196+307.4+195.6+307.8+195+307.5C194.5+307.2+194+306.5+194+305.9C194+305.4+194.5+305+195+305C195.6+305+196+305.7+196+306.6ZM204.1+311.7C204.3+316.5+204.3+320+204.1+325.3C204+326.9+203.6+327.9+203.1+327.6C201.8+326.8+201.7+307+203+307C203.5+307+204.1+309.1+204.1+311.7ZM199.7+314.2C199.4+315+199.1+314.7+199.1+313.6C199+312.5+199.3+311.9+199.6+312.3C199.9+312.6+200+313.5+199.7+314.2ZM267.1+314.9C269.7+317.6+271.1+322.6+269.5+324.2C269.2+324.4+266.4+324.1+263.3+323.5C256.3+322.1+255.1+319.5+261.5+319.5C264.8+319.5+265.5+319.2+265.5+317.5C265.5+316.4+264.5+315.1+263.3+314.5C260.6+313.4+260.3+312+262.6+312C263.4+312+265.5+313.3+267.1+314.9ZM196.5+314C196.2+314.5+195.5+315+194.9+315C194.4+315+194+314.5+194+314C194+313.4+194.7+313+195.6+313C196.4+313+196.8+313.4+196.5+314ZM196+327.5C196+328.3+195.6+329+195+329C194.5+329+194+328.3+194+327.5C194+326.7+194.5+326+195+326C195.6+326+196+326.7+196+327.5ZM200.1+329.2C199.7+332.4+199.6+332.4+199+330C198.3+327.4+198.6+326+199.9+326C200.3+326+200.4+327.5+200.1+329.2ZM231.6+330.2C231.2+331.5+230.7+334.1+230.3+336C230+337.9+228.6+341+227.2+342.9C225.1+345.7+224.9+346.6+225.9+348.2C226.9+349.9+226.8+350.2+225+350.7C223.2+351.2+223+351.8+223.5+355.4C224+358.5+223.8+359.9+222.7+360.9C220.6+362.5+219.7+360.9+219.4+355C219.2+352.5+218.9+348.4+218.6+345.7C218.3+342.3+218.5+341+219.4+341C220.2+341+220.7+342.4+220.8+344.7C221+349.7+223+351.6+223+346.8C223+344.8+223.5+342.8+224+342.5C224.6+342.2+225+341+225+339.9C225+338.7+225.7+338+226.9+338C228.3+338+228.6+337.4+228.3+335.7C228.1+334.5+228.3+332.3+228.9+330.7C230.2+327.4+232.5+327+231.6+330.2ZM204.6+338.6C205+351.7+204.9+366.4+204.6+375.5C204.4+379.9+204.2+385.5+204.2+387.9C204.1+390.3+203.7+392+203.3+391.7C203+391.3+202.5+377+202.4+359.9C202.1+336.4+202.4+329+203.2+329.2C204+329.5+204.5+332.8+204.6+338.6ZM196.8+339.3C197+341.9+196.7+344+196.2+344C194.8+344+194+341.4+194+337.3C194+332+196.4+333.7+196.8+339.3ZM200.5+338.7C200.4+341.4+200.2+346.2+200.2+349.4C200.1+352.7+199.7+355+199.3+354.6C197.6+353+198.2+334+199.9+334C200.3+334+200.5+336.1+200.5+338.7ZM216+337C216+337.5+215.5+338+214.9+338C214.4+338+214.2+337.5+214.5+337C214.8+336.4+215.3+336+215.6+336C215.8+336+216+336.4+216+337ZM209+349.5C209+351.4+209+353.3+209.1+353.7C209.1+354.1+208.7+354.6+208.2+354.8C207.6+355+207.2+353.1+207.2+350.6C207.3+348+207.7+346+208.2+346C208.6+346+209+347.6+209+349.5ZM212.2+348.2C211.5+348.9+211+349+211+348.4C211+347+212.2+345.8+212.9+346.5C213.1+346.8+212.8+347.6+212.2+348.2ZM217+346.4C217+346.7+216.6+347.2+216+347.5C215.5+347.8+215+347.6+215+347.1C215+346.5+215.5+346+216+346C216.6+346+217+346.2+217+346.4ZM217+351.6C217+353+215.8+353.5+214.7+352.4C213.8+351.5+215.1+348.9+216.1+349.6C216.6+349.9+217+350.8+217+351.6ZM213+352C213+353.1+212.6+354+212+354C211.5+354+211+353.1+211+352C211+350.9+211.5+350+212+350C212.6+350+213+350.9+213+352ZM209+361.7C209+365.8+208.7+367.1+208+366C206.7+364+206.7+356+208+356C208.6+356+209+358.6+209+361.7ZM213+358.5C213+359.3+212.6+360+212+360C211.5+360+211+359.3+211+358.5C211+357.7+211.5+357+212+357C212.6+357+213+357.7+213+358.5ZM200.1+363.3C200+364.5+198.6+364.2+198.2+362.9C197.9+362.3+198.3+361.9+199+362.1C199.6+362.4+200.1+362.9+200.1+363.3ZM222+365.4C222+365.7+221.6+366.2+221+366.5C220.5+366.8+220+366.6+220+366.1C220+365.5+220.5+365+221+365C221.6+365+222+365.2+222+365.4ZM201+370.6C201+373.7+200.8+374.1+199.5+373C197.9+371.7+197.5+368.8+198.7+367.7C200.2+366.2+201+367.2+201+370.6ZM212.5+371C212.8+371.5+212.6+372+212.1+372C211.5+372+211+371.5+211+371C211+370.4+211.2+370+211.4+370C211.7+370+212.2+370.4+212.5+371ZM221+372.6C221+373.3+220.6+374.2+220+374.5C219.5+374.8+219+374.6+219+374.1C219+373.5+218.3+373+217.5+373C216.7+373+216+372.6+216+372.1C216+371.6+217.1+371.2+218.5+371.2C219.9+371.2+221+371.8+221+372.6ZM200.6+378.7C200.3+380.8+200+383.2+199.9+384C199.8+384.8+199.4+383.5+199+381C198.2+376.3+198.5+375+200.1+375C200.8+375+200.9+376.5+200.6+378.7ZM213+376C213+376.5+212.6+377+212+377C211.5+377+211+376.5+211+376C211+375.4+211.5+375+212+375C212.6+375+213+375.4+213+376ZM212.6+381.7C211.6+382.7+210.7+381.2+211.6+379.9C212.2+378.8+212.4+378.8+212.8+379.9C213+380.6+212.9+381.4+212.6+381.7ZM208.9+402.4C207.4+404.1+207.1+402.7+206.9+392.4C206.6+378.1+208.3+376.7+209.1+390.5C209.5+396.5+209.4+401.9+208.9+402.4ZM219.7+385.7C219.4+386.7+219.2+385.9+219.2+384C219.2+382.1+219.4+381.3+219.7+382.2C219.9+383.2+219.9+384.8+219.7+385.7ZM213.3+393.3C213.4+394.7+213.1+396+212.5+396.2C212+396.4+211.4+394.7+211.3+392.6C211+388.2+212.9+388.8+213.3+393.3ZM217+394.4C217+394.7+216.6+395.2+216+395.5C215.5+395.8+215+395.6+215+395.1C215+394.5+215.5+394+216+394C216.6+394+217+394.2+217+394.4ZM205.1+413.3C205.3+420.5+205.4+429.7+205.5+433.7C205.5+437.6+205.8+441.1+206.1+441.4C206.4+441.7+206.3+444.6+205.8+447.7C205.3+450.9+205+458.8+205+465.2C205+472.5+204.6+477+204+477C203.5+477+203+475.5+202.9+473.7C202.5+461.5+202.4+400.4+202.7+399.7C204.1+397.2+204.8+401.6+205.1+413.3ZM199.7+406.2C199.4+407+199.1+406.7+199.1+405.6C199+404.5+199.3+403.9+199.6+404.3C199.9+404.6+200+405.5+199.7+406.2ZM209+418.5C209+421.5+208.6+424+208.2+424C207.7+424+207.4+421.6+207.6+418.7C207.9+412.8+207.8+413+208.5+413C208.8+413+209+415.5+209+418.5ZM219.3+420.2C218.8+425.6+218.3+427+215.5+430C213.7+431.9+211.1+435.5+209.8+438C207.5+442.4+207.5+442.4+207.2+439.6C207+437.8+207.6+436+208.9+434.6C210.1+433.4+211+431.8+211+431.1C211+429.8+215+423.7+216.3+423.2C217.4+422.7+217.1+419.2+215.9+418.5C214.9+417.8+217.5+414+219.1+414C219.5+414+219.6+416.8+219.3+420.2ZM209+429.5C209+431.4+208.6+433+208.1+433C207.6+433+207.2+431.4+207.2+429.5C207.2+427.6+207.6+426+208.1+426C208.6+426+209+427.6+209+429.5ZM231.3+433.9C233.4+434.7+233.9+435.8+234.8+442.1C236+450.4+234.9+453+230.1+453C225+453+222.8+449.3+222.9+441.1C223+433.7+225.4+431.7+231.3+433.9ZM200.3+436.6C201.1+437.4+200+440+198.9+440C198.4+440+198+439.1+198+438C198+436.1+199.1+435.4+200.3+436.6ZM208.2+446.2C207.3+447.1+207+446.9+207+445C207+443.1+207.3+442.9+208.2+443.8C209.1+444.7+209.1+445.3+208.2+446.2ZM208.3+467.5C208.6+469.1+209.5+473.1+210.5+476.3C212.3+482.5+212.2+483.4+209.8+482.5C208+481.8+207+476.9+207+469.1C207+463.3+207.5+462.6+208.3+467.5ZM197+477C197+477.5+196.5+478+195.9+478C195.4+478+195.2+477.5+195.5+477C195.8+476.4+196.3+476+196.6+476C196.8+476+197+476.4+197+477ZM201+477C201+477.5+200.6+478+200+478C199.5+478+199+477.5+199+477C199+476.4+199.5+476+200+476C200.6+476+201+476.4+201+477ZM217.8+491.5C217.6+492.9+217.1+494.1+216.5+494.1C216+494.1+215.4+492.9+215.2+491.5C215+489.7+215.3+489+216.5+489C217.7+489+218+489.7+217.8+491.5ZM213+491C213+491.5+212.6+492+212+492C211.5+492+211+491.5+211+491C211+490.4+211.5+490+212+490C212.6+490+213+490.4+213+491ZM205+500C205+500.5+204.6+501+204+501C203.5+501+203+500.5+203+500C203+499.4+203.5+499+204+499C204.6+499+205+499.4+205+500ZM209.3+501.6C209.9+504.7+209.1+508+207.9+508C207.4+508+207+506+207+503.5C207+498.6+208.5+497.4+209.3+501.6ZM213+501.1C213+502.2+212.6+502.8+212+502.5C211.5+502.2+211+501.2+211+500.4C211+499.6+211.5+499+212+499C212.6+499+213+499.9+213+501.1ZM197+508C197+508.5+196.5+509+195.9+509C195.4+509+195.2+508.5+195.5+508C195.8+507.4+196.3+507+196.6+507C196.8+507+197+507.4+197+508ZM209.5+513.1C210.2+517.4+209.5+519.4+208+517C206.8+515.1+206.7+509+207.9+509C208.4+509+209.1+510.8+209.5+513.1ZM214.8+524C214.8+529+214.4+533+213.9+533C213.4+533+213+531.1+213+528.7C212.9+526.4+212.7+521.6+212.4+518C212+512.3+212.1+511.7+213.3+513.3C214.3+514.5+214.8+517.9+214.8+524ZM224.2+518.7C224.8+523.4+224.1+525.8+222.9+523.8C221.7+522.1+221.8+515+222.9+515C223.4+515+224+516.7+224.2+518.7ZM217.7+531.2C217.4+532+217.1+531.7+217.1+530.6C217+529.5+217.3+528.9+217.6+529.3C217.9+529.6+218+530.5+217.7+531.2ZM225.9+542.6C227.3+548.5+226.9+550+224.6+548.1C223.2+546.9+222.7+537+224+537C224.4+537+225.2+539.5+225.9+542.6ZM169.3+590.9C172+592+174.9+593+175.8+593C176.7+593+178.8+593.7+180.4+594.5C183.5+596.1+188.8+596.3+196.4+595.1C199.1+594.6+205+594.7+209.4+595.1C216.3+595.9+217.8+596.4+219.8+598.6C221.4+600.4+222+602.2+221.8+604.3C221.4+608.3+219+609.2+219+605.3C219+600.1+216.6+598+210.6+598C204.1+598+199+601+197.7+605.7C196.4+609.9+197.4+612.7+199.5+611C200.3+610.3+201+608.8+201+607.7C201+604.4+204.9+601+208.6+601C213.5+601+215+601.9+215+604.9C215+606.4+215.5+608.1+216.1+608.7C217.6+610.2+215.3+611.3+206.5+613.5C202.7+614.5+198.9+615.7+198.3+616.2C197.6+616.8+196+617+194.7+616.6C193.4+616.3+190.9+616.4+189.2+616.9C187.4+617.5+184.6+617.4+182.3+616.8C180.2+616.3+176.9+615.5+175+615.1C166+613+154.4+607.9+151.8+605C149.3+602.3+149+601.2+149+594.5C149+588.2+149.3+586.9+151.1+585.7C153.3+584.1+155.2+584.7+169.3+590.9ZM205+620.2C205+622.1+205.2+622.2+206+621C206.9+619.7+207.1+619.7+207.9+621C208.4+621.8+208.5+623.1+208.1+623.8C207.6+624.6+207.5+626.1+207.7+627.1C208+628.2+207.7+629+207.1+629C206.5+629+206+628.2+206+627.1C206+626.1+205.2+625+204.2+624.8C201.9+624.1+201.3+618+203.6+618C204.4+618+205+619+205+620.2ZM205+627.4C205+627.7+204.6+628.2+204+628.5C203.5+628.8+203+628.6+203+628.1C203+627.5+203.5+627+204+627C204.6+627+205+627.2+205+627.4ZM208.5+633C208.5+633.7+207.9+634.5+207.3+634.7C206.5+635+206+634.3+206+633C206+631.7+206.5+631+207.3+631.2C207.9+631.5+208.5+632.3+208.5+633ZM213.7+632.6C213.4+632.9+212.5+633+211.8+632.7C211+632.4+211.3+632.1+212.4+632.1C213.5+632+214.1+632.3+213.7+632.6ZM204+639.2C203.7+648.1+203.8+648.4+205.5+647C207.4+645.5+208.5+646.3+207.6+648.6C207.3+649.5+206.4+650+205.5+649.6C204.6+649.3+204+649.6+204+650.5C204+651.3+204.7+652+205.5+652C207.6+652+207.4+653.8+205.1+655.2C203.6+656.1+203.4+656.9+204+658.6C204.9+660.9+204.3+664.7+202.7+666.7C200.7+669.3+199.9+667.9+200.6+663.2C201+660.6+201.3+653.9+201.4+648.3C201.5+639.7+201.3+638.1+200+638.3C199.2+638.4+198.4+638+198.3+637.5C198.1+636.9+198.8+636.5+199.7+636.5C200.6+636.5+201.5+635.9+201.8+635.2C202.8+632.1+204.1+634.5+204+639.2ZM208.3+637.3C209.1+639.5+208.5+643.3+207.3+643.8C206.4+644+206+642.9+206+640.1C206+636.2+207.3+634.6+208.3+637.3ZM195.1+639.3C193.8+640.6+192.5+639.6+193.5+638.1C193.8+637.5+194.6+637.3+195.2+637.6C195.8+638+195.8+638.6+195.1+639.3ZM214.5+645C214.5+648.3+214.1+649.5+213+649.5C211.9+649.5+211.4+648.2+211.2+644.7C210.9+640.5+211.1+639.9+212.7+640.2C214.1+640.5+214.5+641.5+214.5+645ZM200+645.6C200+646.4+199.3+647+198.5+647C196.8+647+196.7+646.8+197.6+644.6C198.3+642.8+200+643.4+200+645.6ZM195+647C195+647.5+194.5+648+193.9+648C193.4+648+193.2+647.5+193.5+647C193.8+646.4+194.3+646+194.6+646C194.8+646+195+646.4+195+647ZM214.5+661.4C213.9+664.5+213.4+665+210.9+665C208+665+208+665+208+671.4C208+678.8+207.1+684+205.9+684C205.4+684+205.1+679+205.2+673C205.5+662.6+206+660.5+207.5+663.1C208.5+664.6+213+660.1+213+657.6C213+656.2+213.3+655.9+214.1+656.7C214.7+657.3+214.9+659.2+214.5+661.4ZM199+662C199+662.5+198.6+663+198+663C197.5+663+197+662.5+197+662C197+661.4+197.5+661+198+661C198.6+661+199+661.4+199+662ZM213.4+670.9C213.7+671.4+213.4+672+212.6+672.3C211.1+672.9+210+672.2+210+670.8C210+669.7+212.7+669.8+213.4+670.9ZM212+691.4C212+692.8+211.5+694.2+211+694.5C209.7+695.3+208.6+692.5+209.4+690.5C210.3+688.1+212+688.8+212+691.4ZM208+692.8C208+693.8+207.3+695.5+206.5+696.6C205.2+698.4+205.1+698.3+205+694.7C205+692.1+205.4+691+206.5+691C207.3+691+208+691.8+208+692.8ZM199+696C199+698.1+197.5+698.7+196.5+697C195.8+695.8+196.7+694+198.1+694C198.6+694+199+694.9+199+696ZM202.3+707.4C204.6+709.2+204.4+710.2+201.8+709.8C200.5+709.6+199.4+708.7+199.2+707.7C198.8+705.7+199.8+705.6+202.3+707.4Z" opacity="1" fill="#000000"/>
<path d="M213.5+264.9C211.4+274.5+212.9+324+215.3+324C215.9+324+216+320.9+215.5+315.7C214.7+307.1+214.8+271.6+215.5+265.5C216.1+261.3+214.4+260.8+213.5+264.9ZM183.3+604.6C183.6+606.5+183.5+609.2+183+610.5C181.9+613.3+183.4+614.8+185.4+613C188.8+610.3+187.8+601+184.2+601C183.1+601+182.9+601.8+183.3+604.6ZM140.2+134.2C139.5+134.9+139+136.2+139+137.2C139+138.2+138.3+139+137.5+139C135.6+139+131.6+152+132.5+155.2C133.6+158.7+137.9+164+140.5+165C144.5+166.5+149.5+164.6+154.4+159.5C156.9+156.9+159+153.9+159+152.9C159+148+153.5+142+149.1+142C146.8+142+143+137.6+143+134.9C143+132.7+141.9+132.5+140.2+134.2ZM147+146C148+146+149.6+146.3+150.5+146.6C152.4+147.4+156.3+154.7+155.5+156C154.6+157.5+151.9+157.2+149.8+155.3C148.1+153.8+147.8+153.8+146.4+155.1C144.9+156.6+145.4+160+147.1+160C147.6+160+148+160.4+148+161C148+161.5+147+162+145.7+162C140.7+162+136.2+153.1+137.4+145.7C138.4+139.8+139+139.4+142.2+142.9C143.8+144.6+145.9+146+147+146ZM279.4+170.7C273.2+179.2+274+189.4+281.3+197.2C284.6+200.8+286.8+200.7+292.5+196.9C297.7+193.4+299.7+190.8+300.6+186.3C301.7+180.9+296.3+174+291.1+174C288+174+284.1+171.9+283.5+169.8C282.6+167.3+281.7+167.5+279.4+170.7ZM286+176.5C293.3+179+294.9+180.1+296+183.6C296.9+186.2+296.8+187.5+295.5+189.9C293.5+193.9+292.7+193.8+290.7+189.5C289.6+187.3+288.3+186+287.1+186C284.1+186+283.6+187.9+285.9+190.4C288.1+192.7+288.8+197+287+197C285.7+197+281.5+190.4+280+185.9C278.7+182.4+279.3+175+280.8+175C281.2+175+283.5+175.7+286+176.5ZM246.4+206.2C245.4+208.1+244.7+212+244.6+215.3C244.5+220.9+244.7+221.3+248.7+225.1C253.3+229.4+257.8+230.2+261.4+227.5C262.5+226.7+264.2+226+265.1+226C267.8+226+272+220.3+272+216.6C272+211.1+265.2+206+257.8+206C255.4+206+252.6+205.3+251.6+204.5C248.8+202.4+248.3+202.6+246.4+206.2ZM263.7+211.6C266.8+213.6+268.2+216.5+267.4+219.5C266.7+222.5+265.2+222.6+260.2+220.1C258.2+219.1+255.9+218.5+255.3+218.7C253.3+219.4+253.8+221.7+256.1+223.3C257.5+224.3+257.8+225+257+225.5C256.3+225.9+254.4+224.8+252.4+222.9C249.5+220.1+249+218.9+249+214.9L249+210.3L255.3+210.2C259.2+210.1+262.3+210.6+263.7+211.6ZM271.3+238.2C270.1+238.8+268.4+241+267.5+243.2C265.5+248.4+266.8+253.4+271.3+257.8C274.9+261.3+279.8+262.2+283.7+260.2C284.9+259.5+286.7+259+287.7+259C288.8+259+290.9+257.6+292.6+255.9C294.9+253.5+295.5+252+295.5+248.3C295.5+242+292.7+239.8+285+240.2C281+240.4+278.6+240+276.7+238.7C275.3+237.8+273.9+237+273.8+237.1C273.6+237.1+272.5+237.6+271.3+238.2ZM276.2+243.6C278.9+245+279.9+245+283.2+243.9C287.9+242.4+289.9+243.3+291.3+247.4C292.3+250.5+290.5+256+288.4+256C287.7+256+285.8+254.4+284.3+252.5C282.8+250.6+280.9+249+280.3+249C278.5+249+277.6+253.8+279+255.5C281.1+258+279.3+258.4+276.1+256.1C272.8+253.7+270.5+248.1+271.4+244.4C272.2+241.6+272.2+241.5+276.2+243.6ZM336.8+269.5C333.1+270.7+328.2+273+325.9+274.6C323.6+276.2+319.6+278.9+317+280.6C307.9+286.7+300.9+296.8+297.8+308.3C294.5+320.4+296.5+349.7+301+355.5C301.4+356+302.1+357.6+302.5+359C303.9+363.4+313.9+375.8+318.5+378.7C323.5+381.8+323.7+382.5+321.4+385.9C318.5+389.9+321.6+401.7+326.6+406.1C328.8+408.1+334.5+411+336+411C338.3+411+336.8+408.4+333.3+406.5C329.1+404.2+325.8+399.4+327.7+398.2C328.4+397.8+328.7+395.5+328.5+392.5C328.2+388.7+327.8+387.5+326.6+387.6C324.6+387.8+324.6+386.6+326.5+385C327.7+384+329+384+332.4+384.9C334.9+385.5+337.9+386+339.2+386C340.7+386+343.3+387.7+346+390.5C350+394.6+356.9+398.7+362.3+400.4C365.6+401.4+363.5+403.5+359.5+403.3C349.6+402.7+335.6+414.2+328.7+428.7L324.5+437.5L324.5+449.5C324.5+461+324.6+461.8+327.7+468C331.3+475.2+338.2+482.8+344.8+486.7C347.1+488.1+349+489.5+349+489.9C349+490.2+347.4+491.4+345.4+492.5C336.8+497.1+332.3+506.2+333.2+517.3C333.8+524.5+336.3+530+341.5+535.3C343.5+537.3+344.8+539.5+344.5+540C344.2+540.6+342.2+541+340.2+541.1L336.5+541.2L340+542.1C343.7+543+351.3+542.3+354.2+540.9C355.1+540.4+356.8+540.4+357.9+540.8C359.8+541.5+359.4+542.1+353.8+546.5C345.4+553.2+338.6+565+337+575.8C334.9+589.1+339.6+602.5+348.8+609.8C355.1+614.8+363.3+618.2+369+618.2C371.8+618.1+374+618.3+374+618.5C374+618.8+372.6+619.7+371+620.5C363.9+624.2+361.8+633.9+366.8+639C373.9+646+388.5+642.7+384.7+634.9C383.2+631.9+378.3+630.7+379.5+633.7C380.9+637.1+380.5+638.5+378.2+638.8C375.5+639.2+371.5+636.9+370+634.1C367.4+629.1+372.9+621.2+377.1+623.9C379.4+625.2+381.4+624.4+380.6+622.5C379.8+620.4+382.6+618.7+385.5+619.4C389.5+620.4+397+627.9+399.6+633.5C402.7+640.1+402.8+644+399.8+638.8C397.6+635+394.9+633.3+392.9+634.5C392.2+635+392.5+635.9+393.8+637.4C394.9+638.5+396.3+641.4+397+643.8C397.6+646.2+398.9+648.4+399.8+648.7C402.5+649.7+402.9+651.1+401.5+655C399+662+396.8+665.5+391.1+671.3C386.9+675.6+384.2+677.4+380.6+678.5C374.7+680.3+373.5+679.8+378.2+677.5C386.6+673.4+399.8+660+398.7+656.7C398+654.5+396+655+395+657.6C392.3+664.7+380.3+674.8+371.9+677C369.9+677.6+367.9+678.7+367.6+679.5C367.3+680.3+366.5+681+365.8+681C365+681+363.6+681.9+362.6+683.1C361.1+684.9+360.2+685.1+356.2+684.5C351.4+683.8+338.1+679.6+334.6+677.8C330.3+675.5+323.6+668.2+321+663C316.6+654.2+316.5+653.4+319.5+649.8C322.1+646.7+322.1+646.7+320.2+644.7C318+642.5+316+643.1+316+646C316+647.1+315.1+648.4+314+649C312.3+649.9+311.1+649.6+307.8+647.8C302.5+644.8+300+640.1+300+633.1C300+628.2+300.3+627.4+304+623.8C309.3+618.4+311.6+618.9+313.9+625.8C316.3+632.9+320+636.6+328.7+640.6C336.7+644.4+339.4+644.7+346.7+642.5C353+640.6+359+634.5+359+630C359+625.8+357.5+626.3+354.5+631.4C352.7+634.5+350.5+636.5+347.4+638.1C343.2+640.1+342.4+640.2+336.9+639C326.1+636.7+318+629.6+318+622.4C318+620.7+318.7+618.7+319.5+618C322.5+615.6+319.9+614.8+311.1+615.4C306.4+615.8+298+616.1+292.6+616.2C284.1+616.3+282.5+616+281.4+614.5C280.1+612.8+279.7+612.9+272.9+616C265.9+619.2+265.2+619.3+247.2+620.1C229.3+621+226.9+621.3+228.3+622.6C229.6+623.9+261.5+623.1+266.5+621.6C271.8+620+297.7+618.3+300.5+619.3C301.9+619.9+301.8+620.5+299.3+624.2C297.7+626.6+296+629.4+295.4+630.4C294.8+631.5+292.3+632.8+289.5+633.6C277.9+636.5+273.3+638.9+267.8+644.9C262.4+650.8+259.5+656.7+256.5+668.3C253.9+678.2+254.4+684.1+259.5+702C262.5+712.7+279.8+726.9+293.6+730C300.8+731.6+308.3+731.4+312+729.5C315.2+727.8+315.4+727.9+316.9+729.7C320.6+734.3+324.8+736.1+331.8+736.3C337.2+736.4+339.5+735.9+343.6+733.7C352.7+729+358.5+722.7+359.9+715.8C360.4+713.5+361.7+712.2+366+709.9C376+704.5+381.2+696+379.1+688.5C378.6+686.4+378.3+684.4+378.5+684C378.8+683.6+381.4+682.1+384.3+680.7C395.7+675.3+405.7+663+407.5+652.3C407.9+649.9+408.5+647.8+409+647.5C409.4+647.2+412+648+414.6+649.2C418.4+650.9+421.7+651.4+429.5+651.6L439.5+651.7L439.8+655.2C440.2+659.8+438.3+664.7+436.8+663.2C435+661.4+434.5+661.7+431.6+666C428.5+670.7+428.5+671+430.8+671C432.1+671.1+431.8+671.6+429.5+673.6C424.3+678.1+418.2+680.2+409.4+680.8C402.3+681.2+400.7+681+397.8+679.2C394.4+677.1+391+677.6+392.5+680C395.2+684.4+409.4+685.3+420.2+681.8C433.2+677.6+443.7+666+445+654.6C445.3+651.6+446.1+649.4+447+649C458.5+643.9+470.9+636.7+476.5+632.1C484.7+625.4+488.7+618.3+492.7+603.6C495.4+593.3+496.1+576.7+494+569C492.2+562.1+484+546+480.1+541.7C476.5+537.7+469.1+533.4+464.9+532.8C463.6+532.6+462+532.1+461.3+531.7C459.5+530.6+460.8+528.1+463+528.7C465.5+529.4+472+523.3+474.7+517.8C475.9+515.4+477.7+510.1+478.6+505.9C480.1+499+480.1+497.8+478.6+490.8C477.8+486.6+476.1+481.1+474.9+478.5C471.6+471.4+461.1+463.3+454.3+462.6C451.7+462.3+451.7+462.3+451.6+452.4C451.5+439.8+449.5+435.5+439+424.9C430.8+416.6+425.4+414+416.6+414C414.1+414+412+413.6+412+413C412+411.7+404.1+407.2+397.7+405C394.7+403.9+388.1+402.6+382.9+401.9C377.4+401.2+372.5+400+371+399C369.6+398.1+366.7+396.7+364.5+396C362.3+395.3+358.3+393.6+355.7+392.3C351.7+390.3+350.9+389.5+351.3+387.8C351.7+386.6+351+384.6+349.7+382.8C347.9+380.3+347.5+378.5+347.5+372C347.5+367.7+347.2+363.9+346.9+363.5C346.1+362.8+344+368.5+344+371.2C344+372.3+343.6+372.8+343+372.5C342.5+372.2+342+369.7+342+367.1C342+363.1+342.3+362.1+344+361.7C345.7+361.3+346+360.3+346+355.8C346+351.8+346.6+349.6+348.5+346.8C351.4+342.5+351.5+342+349.5+342C348.7+342+348+341.6+348+341.1C348+339.6+356.1+330.5+357.8+330.1C358.6+330+360.7+328.9+362.4+327.9C364.1+326.9+366.7+326+368.2+326C369.7+326+371.1+325.6+371.4+325.1C371.7+324.6+374.6+324+377.7+323.7C380.9+323.3+385.8+322.8+388.7+322.4C393.3+321.8+394.6+322.1+401.2+325.4C411.3+330.4+415.5+334.1+419.1+341.2C424.8+352.6+424+364.7+417+371.5C414.1+374.4+412.2+375.3+408.7+375.7C406.2+376+403.1+376+401.8+375.7C399.1+375+395.7+369.9+396.6+367.7C397.3+365.9+395.7+364.8+393.6+365.6C390.2+366.9+390.9+372.9+395+377C398+380+407.1+379.8+415.5+376.3C421.6+373.8+422.2+373.7+427.5+375C433.2+376.4+434.8+377.4+433+378.5C431.3+379.5+431.9+380.8+434.3+381.6C438.9+383+445.2+387.2+444.1+388.3C443.5+388.9+444.1+390.5+446+392.9C451.2+399.5+453+410.2+450.4+418.7C449.5+421.9+451.9+421.7+454.8+418.2L457.1+415.5L456.5+419.5C455.7+424.5+453.6+428.5+450.9+430.4C448.1+432.3+449.3+434.4+452.3+432.9C453.5+432.3+455.5+430.8+456.7+429.7C458.7+428+459.2+427.9+460.6+429.1C461.6+429.9+463.1+431.8+464.1+433.4C465.8+436.1+465.8+436.5+464.3+437.5C462.8+438.6+462.8+439+464.4+442.5C465.8+445.4+466.1+447.7+465.7+452.1C465.2+456.4+465.4+458.1+466.5+459C467.5+459.9+467.6+460.8+466.9+462.7C466.3+464.4+466.3+465.7+466.9+466.3C469.9+469.3+474.5+456.7+473.8+447.4C473.3+440+468.9+431+463.7+426.5L459.9+423.2L461.1+418.5C464.4+405.3+454.6+383.7+442.4+377.5C440.2+376.4+437.9+375+437.2+374.3C436.5+373.6+433.2+372.6+429.9+371.9C425.1+371+423.9+370.4+424.4+369.1C424.6+368.2+425.6+365.6+426.4+363.3C429.6+354.7+426.1+340.7+418.7+332.3C413.8+326.7+402+319.9+395.5+318.8C393.7+318.5+393.5+317.7+393.4+311.5C393.2+302.7+391+296.9+386.2+293.4C380.7+289.4+377.7+286+374.7+280.8C373.2+278.3+370.8+275.2+369.3+274C360.9+267.4+348.4+265.6+336.8+269.5ZM349.4+271.8C352.7+274.6+358.8+276.4+360.5+275C362.9+273+370.5+279.8+372.4+285.7C373+287.7+372.6+287.9+368.3+288.6C361.3+289.6+347.4+296.7+341.8+302.1C336.1+307.6+331.9+316.2+331.6+323C331.5+328.8+332.1+329.6+335.2+327.6C336.8+326.5+338.3+323.7+339.9+318.8C341.2+314.8+343.1+310.1+344.1+308.4C345.1+306.7+346+304.4+346+303.2C346+301.8+347.7+300.3+352.3+298C355.7+296.2+359.6+294.1+361+293.4C364.4+291.4+374.4+292+379.5+294.5C384.9+297.2+388.4+303.5+388.5+310.8C388.5+316.9+387.3+318.3+380.7+320.1C375.3+321.5+368.9+319.4+367.6+315.7C366.2+311.9+368.8+309.2+371.8+311.1C373.5+312.2+374.2+312.2+375.2+311.2C377.2+309.2+374.8+306.5+370.8+306.2C363.3+305.6+359.2+314.3+364.5+319.6C365.9+321+367+322.3+367+322.5C367+322.7+363.6+324.5+359.5+326.5C348.4+332+342.1+340.1+338.9+353C337.2+360+337.2+372.4+338.9+377.3C339.6+379.4+340+381.4+339.6+381.7C339.3+382+337.5+381.9+335.7+381.6C333.2+381.1+330.5+379.2+326.4+375C320.4+368.8+318+364.6+318+360C318+356.6+315.4+353.9+314.4+356.4C314.1+357.3+314+359.3+314.2+361C314.4+362.6+314.3+363.7+313.9+363.4C312.4+362.5+309.9+353.3+309.4+347C308.6+337.7+308.3+337+306+340L304+342.5L304+334.5C304+328.6+304.6+325.3+306+322.1C307.1+319.7+307.8+317.5+307.5+317.2C306.7+316.3+303.7+319.4+302.3+322.7C301.6+324.5+300.7+326+300.4+326C299.8+326+300.2+323.3+302.2+314.7C302.7+312.1+304.7+307.7+306.6+305.1C310.1+299.8+310.1+298.1+306.3+300.5C303.6+302.3+303.5+301.9+305.5+298.1C307.1+294.9+314.2+289.5+322+285.4C324.7+284+327+282.4+327+281.9C327+280.7+326.5+280.8+322.3+282.5C320.4+283.3+318.5+284+318.2+284C316.8+284+321.5+280.1+323.8+279.2C334.5+275.4+337.4+274.8+341.5+275.3C346.4+276+348.2+274.7+344.9+272.9C343.2+272+343+271.6+344.1+270.9C346.1+269.6+347.1+269.8+349.4+271.8ZM305.9+351.5L305.9+354.5L304.4+351.7C302.7+348.6+303.3+344.3+305+347C305.6+347.8+306+349.8+305.9+351.5ZM317.9+370.7C319.2+373.5+319.2+373.5+317.1+371.6C314.9+369.6+314.4+368+315.8+368C316.3+368+317.2+369.2+317.9+370.7ZM384+405.1C394.5+406.6+403.6+410.7+410.3+417.2C415.8+422.6+417.5+423.2+416.7+419.4C416.3+416.9+416.4+416.8+419.6+417.3C427.4+418.6+438.6+427.1+442.1+434.4C442.8+435.9+442.4+435.7+440.8+433.7C436.7+428.9+433.4+430.9+437.1+436C439.3+438.9+442+440+442+438C442+437.4+442.5+437+443+437C444.2+437+445.4+440+446.4+445.3C447.1+449+447+449+444.6+448.4C442.1+447.8+442+448+442+451.7C442+460.5+436.1+474.6+431.6+476.3C429.9+477+426.8+482.9+427.6+484.1C428.6+485.8+432.5+484.9+437.1+482C440.2+480.1+443.3+476.8+446.1+472.5C450.3+466.1+450.6+465.9+453.9+466.4C456.9+466.9+461+469.2+466+473.3C468+474.9+471.3+480+470.7+480.6C470.5+480.9+469.7+480.4+469+479.5C468.3+478.7+467.1+478+466.4+478C464.7+478+464.5+480.6+466.1+481.6C466.7+481.9+467.8+483.8+468.6+485.6C469.5+487.9+470.7+489+472+489C473.1+489+474+489.6+474+490.2C474+490.9+474.3+493.1+474.6+495.1C475.1+498.1+474.9+498.8+473.2+499.2C471.8+499.6+471.1+501+470.6+504.5C469.6+510.6+467.4+516.9+465.2+519.3C464.3+520.4+463.5+522.1+463.5+523.3C463.5+527.5+461.2+526+460.5+521.3C460.1+518.7+458.5+514.4+456.9+511.7C455.3+509.1+454+506.5+454+506C454+504.8+444.6+495.4+439.8+491.9C430.8+485.4+416.6+484.3+405.8+489.3C402.7+490.7+399.2+492.8+398+494L395.9+496.1L392.4+493.1C390.5+491.4+387.4+489.3+385.5+488.5C381.4+486.9+381.1+485.7+384.3+484.3C391.4+481+398+471.3+398+463.8C398+458+394.3+449.4+390.5+446.2C385.1+441.8+378+439.6+373.2+440.9C367.6+442.5+361.1+448.6+360.4+453.1C359.3+460+367.3+465.8+374.1+463C378.2+461.2+377.2+459.5+372.3+459.8C369+460.1+367.9+459.7+366.6+457.8C364.1+454.2+364.6+450.5+368.1+447.6C372.1+444.2+375.3+443.5+380.1+444.9C384.6+446.2+385.2+447.7+381.5+448.2C377.8+448.6+378.3+450.4+382.4+451.3C384.4+451.8+387.1+453.5+388.5+455.2C390.9+458.1+391+458.4+389.4+460.1C388.2+461.4+388+462.3+388.7+463.2C390.2+465.1+391+473.1+390+475.1C389.5+476+387.9+477+386.6+477.4C385.2+477.7+383.9+478.8+383.6+479.8C382.7+482.6+376.4+485.6+368.2+487.3C361.7+488.7+360.3+488.7+356.7+487.4C344.3+483+336+475.7+331+464.8C328.4+458.9+328+456.9+328+449C328+441.9+328.5+438.7+330.5+433.4C334.1+423.9+336.7+420+339.5+420C341.2+420+342.7+418.6+345+415C347.9+410.5+350.6+408+352.5+408C352.9+408+352.5+409.1+351.6+410.5C349.6+413.5+349.6+414+351.5+414C352.3+414+354+412.4+355.2+410.5C356.5+408.6+358.2+407+359.1+407C360+407+361+406.7+361.4+406.2C362.5+405.1+371.2+403.2+373.5+403.5C374.6+403.7+379.3+404.4+384+405.1ZM385.6+493.2C388.4+495.1+391.5+498.3+392.8+500.7C394.4+503.6+395.6+504.7+396.6+504.3C398+503.8+398.1+502.7+396.9+499.5C396.7+498.9+396.9+498.4+397.3+498.3C397.8+498.3+399.4+497+401+495.5C406.3+490.5+419.9+488.6+429.8+491.5C435.5+493.2+446.3+502.3+449+507.7C449.8+509.2+451.2+511.6+452.1+513C455.7+518.3+456.5+523.6+455.1+532.8C453.6+543.5+451.1+549.2+445.8+554.7C439.8+560.8+432.1+563.7+423.2+563.1C421.3+563+421+562.6+421.5+560.9C422+559.4+421.7+558.7+420.1+558.3C419+558+417.2+556.2+416+554.3C413.9+550.7+412.1+550.7+411.9+554.3C411.8+556.1+411.7+555.9+410.9+553.5C410.3+551.3+410.5+550.2+411.7+548.8C412.5+547.9+413+546.4+412.6+545.5C411.4+542.3+405+548.2+405+552.5C405+555.8+408.6+560.8+413.2+563.6C420.8+568.4+431.1+567.7+442+561.7C449.1+557.8+456+549.7+456+545.2C456+544.1+456.7+542.7+457.5+542C458.3+541.3+459+540+459+539C459+535.2+461.4+534.9+467.6+537.9C474.4+541.2+479.3+546.5+483.4+555.3C485.8+560.5+486+561.3+484.6+562.3C483.2+563.3+483.2+564.4+484.1+569.9C485.3+577.7+485.6+578.3+488.2+577.4C490.2+576.8+490.3+577+489.5+582.6C489.1+585.9+488.6+591.4+488.4+595C488+602.5+486.2+607.7+481.4+615.8C477.3+622.5+475.9+624.1+476.7+621.1C477.6+617.6+474.4+618.5+471.6+622.6C468.8+626.8+460.4+634.1+454.6+637.4C448.5+641+438.8+643.1+432.3+642.4C428.1+642+426.9+642.1+427.2+643.1C428.3+646.4+441.1+646.5+449.4+643.3C454.3+641.4+463+636+465.6+633.3C466.7+632.2+469.5+629.6+471.9+627.4L476.3+623.5L473.6+627.7C468.7+635.1+454.9+643.9+442.5+647.5C435.9+649.4+421.9+649.1+417.8+646.9C414.2+645+409+640.6+409+639.5C409+638.9+407.5+635.3+405.6+631.5C402.1+624.5+397.4+618.8+391+613.9L387.5+611.2L389.7+608.8C392.5+605.8+395.7+598.6+396.6+593.2C397.2+589.7+396.8+588.4+394.6+585C393+582.6+391.2+581+390+581C387.4+581+387.5+581.8+390.3+584.8C393.5+588.2+393.1+595.2+389.4+602.1C383.7+612.5+374.2+616.5+363.8+612.9C355.1+609.8+347.9+604.1+344.7+597.8C340.5+589.6+339.3+579.5+341.4+571.7C344.3+561.3+354.8+546+359.1+546C360.7+546+375.6+530.8+377.4+527.3C380+522.1+378.6+516.4+373.5+511.2C368.5+506.2+365.2+505.8+359.7+509.5C356.8+511.5+356+512.7+356+515C356+520.7+362.8+524.1+367.5+520.7C370+518.8+368.6+516.6+365.9+518.1C362.9+519.7+360.8+518.5+361.2+515.3C361.9+509.6+372.1+511.4+373.6+517.5C374.6+521.6+373.4+528.9+371.4+531.1C367.5+535.4+362.1+537.3+355.4+536.7C344.6+535.9+339.8+530.5+339.5+519.1C339.4+515.1+338.9+512.5+338.2+512.2C337.5+512+337+511.4+337+511C337+509.4+350.4+496.3+352.8+495.6C354+495.2+355+494.2+355+493.4C355+492.4+356.4+492+360.3+491.9C363.1+491.8+366.6+491.4+368+491C369.4+490.6+372.8+490.2+375.6+490.1C379.9+490+381.6+490.6+385.6+493.2ZM295.8+641.5C297.6+646.9+301.5+650.8+306.8+652.3C310.8+653.5+311.3+654+313+658.8C316.5+668.6+326.1+679.4+334.8+683.2C346+688+356.7+689.5+365.7+687.4C369.8+686.5+372.6+686.2+373.2+686.8C374.9+688.5+374.3+696.5+372.2+699.9C369.5+704.3+364.6+707.7+359.7+708.5C354.1+709.5+354+709.6+355.3+712.9C356.2+715.3+356+716.4+353.7+720.2C347.6+730.7+331.3+735.9+323.2+730C321.5+728.7+320+727.2+320+726.7C320+726.2+321.3+724.2+323+722.4C326.6+718.2+329+710.2+328.7+703.3C328.2+694.8+323.5+690+315.5+690C308.7+690+301.7+696.1+304.9+699.3C305.7+700.1+306.9+699.5+309.4+697.1C312.5+694.1+313.3+693.8+316.7+694.3C321.9+695.2+324+698+324+704.4C324+712.9+322.4+716.6+317.1+720.8C309.5+726.8+307.1+727.5+298.9+726C283.5+723.3+271.1+713.8+264.4+699.6C261.4+693.2+260.8+690.8+260.3+682.6C259.8+674.5+260.1+671.8+262.1+664.8C266.1+650.6+270.3+645+280.7+639.9C284.6+638+287.8+637.1+290.5+637.3C294.2+637.5+294.6+637.8+295.8+641.5Z" opacity="1" fill="#000000"/>
<path d="M361.9+297C358.5+298+348.6+305.2+346.6+308.2C343.7+312.3+346.8+311.3+353.2+306.1C356.6+303.3+361.2+300.4+363.4+299.7C370.3+297.4+368.8+294.9+361.9+297ZM378+300.4C378+301.1+378.7+302.3+379.5+303C380.7+304+381.1+303.9+381.6+302.7C381.9+301.8+381.9+300.6+381.5+300C380.6+298.5+378+298.8+378+300.4ZM419.6+435.8C419.4+436.2+420+439.2+421.1+442.4C422.5+446.5+423.1+450.9+423.1+457.2C423.1+467.9+421.3+474.2+416.4+480.6C413.5+484.4+413.3+485+414.9+485C417.2+485+421.2+480.4+424.8+473.6C427.3+468.8+427.5+467.7+427.4+456C427.4+445.1+427.1+442.9+425.2+439.2C423.1+435.3+420.8+433.9+419.6+435.8ZM483.3+591.2C482.3+592.3+479.3+602.2+478.7+605.9C478.3+608.3+480.8+608.2+482.4+605.7C486+600.3+486.8+586.9+483.3+591.2ZM125.4+305.9C124.9+306.2+124.4+311.1+124.2+316.8C123.9+325.9+124.1+327.5+126+330.6C128.7+334.8+130.8+336+135.8+336C139.8+336+145+333+145+330.7C145+330.1+146+328.6+147.2+327.3C152.1+322.1+147.8+313.2+139.3+311.1C136.7+310.4+133.6+309.1+132.5+308.1C130.2+306+126.6+304.9+125.4+305.9ZM136.9+315C141.6+315+146+322.2+143.5+325.7C142.2+327.4+142+327.4+140+325.2C138.3+323.4+137.5+323.1+136.4+324.1C134.4+325.7+134.6+326.7+137.5+329.6C139.4+331.5+139.7+332.2+138.6+332.6C136.5+333.4+133.1+331.3+131+327.7C129+324.4+128.5+319.7+129.6+314.1L130.2+311L132.8+313C134.1+314.1+136+315+136.9+315ZM87.5+336.7C87.9+338.3+88.2+342.4+88.1+345.9C87.9+351.2+88.3+352.9+90.5+356.2C95.1+363.2+100.9+363.1+107.6+355.9C111.7+351.5+112.4+348.9+110.6+344.7C108.9+340.5+106.6+339.1+100.6+338.5C98.1+338.2+94.6+337.1+92.8+336C88.1+333.2+86.6+333.4+87.5+336.7ZM103.1+342.6C105.9+343.4+108.3+351.4+106.4+353.3C106+353.7+104.4+353.2+102.9+352.3C100.2+350.7+99.9+350.7+98.4+352.2C96.9+353.7+97+354+98.9+355.9C101.2+358.2+101.5+359+100+359C99.5+359+97.7+357.1+96+354.8C93.8+351.8+93+349.6+93+346.5C93+344.2+93.3+342+93.7+341.6C94.4+340.9+99.2+341.4+103.1+342.6ZM390+348.9C383.9+350.2+380.5+352.6+377.7+357.8C373.3+365.9+374.2+371.9+380.9+379.2C385.3+384+386+384.3+391.3+384.8C400.4+385.5+401.7+384+393.5+382.1C387.3+380.6+386.2+380+383.3+376.2C380.5+372.5+380+371+380+366.4C380+363+380.7+359.5+381.9+357.1C384+353.1+386.7+350.3+387.7+351.3C388+351.7+389.1+351.5+390.2+350.9C394.5+348.6+402+352.9+402+357.7C402+360.3+399.5+360.9+398.6+358.5C397.9+356.6+395.1+356.6+394.4+358.5C392.8+362.7+402+364.9+405.3+361.2C407.4+358.9+407.4+356.7+405.5+352.9C403.1+348.3+398.6+347.2+390+348.9ZM247+366.8C243.1+368.7+241.1+372.9+241.1+379.7C241+385.6+244.9+389.9+252.4+392.3C257.5+393.8+258.4+393.8+261.6+392.5C268.1+389.8+269.7+379.9+264.2+376.2C262.8+375.3+260.2+373+258.4+371.2C256.6+369.5+254.8+368+254.4+368C254+368+252.9+367.3+252+366.5C250.6+365.2+250+365.3+247+366.8ZM258.9+378.5C262.2+379.5+263+382.1+261.4+385.9C259.8+389.8+257.9+389.6+256.8+385.2C256.3+383.5+255.5+381.8+254.9+381.5C253.3+380.5+251+383+251+385.9L250.9+388.5L249+386.1C245.1+381.5+245.2+374.7+249+373.7C250.1+373.4+251+372.4+251+371.4C251+370.3+252+371.1+253.9+373.8C255.6+376+257.8+378.1+258.9+378.5ZM133.6+370.9C132.6+372+131.3+375.3+130.6+378.2C128.6+386.8+132.3+394.8+139+396.5C142+397.2+149.9+392.6+152.5+388.6C153.9+386.5+154+385.7+152.8+383.3C152.1+381.8+150.3+380+148.8+379.3C147.2+378.6+144.8+377.4+143.3+376.7C141.9+376.1+139.9+374.2+139+372.6C137+368.8+135.8+368.5+133.6+370.9ZM137.8+379.2C138.5+379.9+140.9+381+143.2+381.5C147.6+382.6+150.4+385.7+149.1+387.8C148.5+388.8+147.8+388.9+145.7+387.9C142.3+386.4+139.6+387.4+140.3+390C140.6+391.1+140.5+392+140+392C138.5+392+136+386.9+135.3+382.5C134.7+377.9+135.5+376.9+137.8+379.2ZM334+402.9C334+404.4+336.9+406.2+338.1+405.4C339+404.9+338.8+404.3+337.5+403.3C335.3+401.8+334+401.6+334+402.9ZM251.6+479.2C252.5+482.1+259.8+492+261+492C263+492+262.8+490.1+260.3+486.4C255.1+478.6+250+474.4+251.6+479.2ZM264.2+494.7C266.4+499.8+275.9+512.9+281.2+518.2C289.1+526.1+292.6+531.8+293.5+538.2C294.1+542.3+296.8+546.9+297.1+544.4C297.2+543.9+297.3+542.6+297.4+541.5C297.5+539.2+299.7+539.1+307+541C309.5+541.7+313.8+542.4+316.5+542.6L321.5+542.9L317.5+541.9C307.2+539.4+305.2+538.6+300.7+535.8C297.8+534+295.1+531.2+294+528.9C292.9+526.9+289.7+522.5+286.8+519.3C279.7+511.5+273.1+503.4+269.6+498.2C268+495.9+266.1+494+265.3+494C264.5+494+264+494.3+264.2+494.7ZM324.8+542.7C325.5+543+326.4+542.9+326.7+542.6C327.1+542.3+326.5+542+325.4+542.1C324.3+542.1+324+542.4+324.8+542.7ZM182.1+556.4C180.5+558.3+181.1+561.5+183+561.5C184.7+561.5+185.6+557.2+184.2+555.8C183.7+555.3+182.8+555.5+182.1+556.4ZM238+558.9C238+560.8+241.5+562.8+242.7+561.6C243.4+560.9+240.1+557+238.8+557C238.4+557+238+557.9+238+558.9ZM180+567.4C180+569.1+181.6+569.7+190.3+571.6C198.3+573.2+211.5+573.5+208.8+572C207.9+571.4+202.6+570.3+197.2+569.6C191.7+568.8+186.3+567.7+185.2+567.1C182.4+565.6+180+565.7+180+567.4ZM250+567.9C250+569.7+253.7+573.3+254.8+572.6C255.7+572.1+255.5+571.2+254.3+569.5C252.5+567.1+250+566.2+250+567.9ZM181.5+580C180.9+582+182.5+586+184+586C184.5+586+184.8+584.2+184.8+582C184.8+577.7+182.6+576.4+181.5+580ZM336.9+614C329.2+614.7+326.1+615.7+327.7+616.9C328.1+617.2+333.4+617.4+339.3+617.2C348.8+616.9+350.1+616.7+349.8+615.2C349.4+613.2+347.2+613+336.9+614ZM82+641.1C79.5+643.9+79+645.3+79+649.6C79+654.5+78.9+654.8+76+655.3C73.6+655.8+73+656.5+73+658.5C73+660+72.1+661.6+70.6+662.5C67.7+664.4+66+668.8+66+674.1C66+677.1+65.4+678.3+63+680.2C60.9+681.8+59.8+683.7+59.5+686C59.2+687.8+58.4+690+57.5+691C56.7+691.9+55.8+694.6+55.6+697.1C54.9+703.3+51.7+711.9+49.3+713.5C47.9+714.5+44.6+714.9+38.9+714.9C34.3+714.9+29.2+714.9+27.5+715C25.9+715.1+21.6+714.2+18.2+713L11.8+710.8L9.2+712.9C7.7+714.1+5+715.8+3.3+716.7L0+718.4L0+730.6C0+741.6+0.2+742.9+1.8+742.8C7.4+742.7+18.1+744.1+21.5+745.4L25.5+746.9L17.7+747C9.6+747+3.5+749+4.3+751.3C4.6+752+5.4+752.3+6.1+752.1C6.9+751.8+11.5+751.6+16.5+751.5C31.8+751.3+37.4+750.2+43.9+746C47.1+743.9+51.4+741.4+53.5+740.4C55.6+739.4+58.7+737.1+60.4+735.2C66.6+728.4+70.6+724.8+73.5+723.3C81.3+719.2+85.4+713.9+79.6+715.4C77.7+715.9+77.6+715.8+79.3+714.6C80.2+713.8+82.8+713+85+712.6C88.2+712.1+89+711.6+89+709.9C89+707.9+88.6+707.8+84.9+708.4C77.8+709.5+70.3+713.6+68.4+717.2C67.5+719+63.6+723.8+59.9+727.8C56.1+731.7+53+735.4+53+736C53+736.5+50.8+738.1+48.2+739.4C45.5+740.7+42.8+742.6+42.1+743.4C41.3+744.3+39.6+745+38.3+745C36.1+745+35.9+744.8+37+743.5C39+741.1+37+739.8+33.2+741.1C29.4+742.4+26.5+742+26.5+740C26.5+738.8+25.1+738.5+19.5+738.7C12.6+738.9+12.6+738.9+17+737.8C32.2+734.3+38+732.5+42.2+730C44.7+728.4+47+727.4+47.3+727.7C48.8+729.1+52.5+726.1+58.9+718.2C70.8+703.8+71.5+703+72.6+703C73.2+703+75.9+701.4+78.6+699.5C82.5+696.7+84.4+696+88.2+696C94.1+696+101.4+699.1+103.6+702.5C104.6+704+106.3+705.6+107.4+706.1C111.8+708.1+114+709.7+116+712.3C118.5+715.4+120.5+715.7+121.9+713.2C122.8+711.7+123.2+711.9+125.7+715C129.7+720.1+134.8+724.8+139.4+727.7C141.7+729.1+144.8+731.8+146.3+733.6C147.9+735.5+149.8+737+150.6+737C151.4+737+153.3+738.2+154.8+739.7C158.4+743.4+163.4+745.6+170.2+746.4C173.2+746.8+178.2+747.8+181.1+748.5C184.1+749.3+189.2+750+192.5+750C197.1+750+199.9+750.7+204.5+753C207.8+754.6+211.2+756+212.2+756C213.1+756+216.2+756.9+219.2+757.9C225.6+760.3+247.6+761.9+257.6+760.7C262.8+760.1+265.3+760.3+268.2+761.5C270.3+762.3+275.1+763+278.8+763C287.5+763.1+289.5+764.3+289.6+769.6C289.6+772.4+290.5+774.8+292.4+777.2C295.6+781.5+296.9+782.1+303.5+782.9C307.4+783.4+308.5+783.9+308.5+785.3C308.5+787+307.2+787.1+288.5+787C277.5+786.9+263.3+786.5+257+786C241.8+784.9+233+785.9+233+788.5C233+790.2+236.3+791.7+242.5+793C244.7+793.4+245.8+793.8+245+793.9C244.2+794+238.6+794.5+232.5+795C221.9+795.9+207.9+796.4+152.5+797.8C138.2+798.2+98+798.5+63.3+798.5C5.6+798.5+4.05312e-06+798.6+4.05312e-06+800.1C4.05312e-06+801.5+2.6+801.8+22.3+802.1C56.8+802.7+80.3+802.6+122+801.6C170.2+800.5+184.7+800.4+203+801C217.4+801.5+243.9+799.8+251.2+797.9C253.2+797.4+255.2+796.4+255.6+795.8C256.8+794+252.4+791.2+247+790.5C244.3+790.1+242+789.4+242+788.9C242+787.7+253.2+787.8+263.5+788.9C267.9+789.4+279.6+790.1+289.5+790.5C305.9+791.2+310.7+791.9+308.3+793.3C307+794.1+295.9+796+292.4+796C290.2+796+288.8+796.6+288.2+797.8C287.2+799.7+287.7+802+289+802C289.5+802+291.1+802.5+292.6+803C294.4+803.7+295+804.4+294.3+805.1C293.1+806.3+278.5+808.5+266+809.5C254.4+810.4+164.5+810.5+103+809.6C75.2+809.2+40.7+808.8+26.2+808.7L0+808.5L0+813L27.8+813.1C43+813.1+58.9+813.3+63+813.5C67.1+813.7+134.2+814.1+212+814.4C289.8+814.7+386.5+815.3+426.8+815.6L500+816.3L500+811L481.9+811L482.2+803.7C482.5+795.5+481.6+796+493.8+797.5L500+798.3L500+793.7C500+788.5+499.4+788.1+491+787.1C483.2+786.2+484.2+784.6+492.8+784.2L500+783.9L500+770.2L496.9+769.6C495.2+769.3+491.9+769+489.7+769C484.8+769+485.4+768+490.7+767.3C494.4+766.8+497+765.5+497+764.1C497+763.7+495.7+762+494.1+760.2C491.5+757.4+490.5+757+485.8+756.9L480.5+756.8L484+755.5C485.9+754.8+489.2+754.1+491.3+754.1C493.3+754+495+753.5+495+753C495+751.8+496+752+486.3+751.3C479.8+750.9+477.7+751.1+475.8+752.4C472.9+754.5+466.4+754.5+465.6+752.5C465.3+751.7+464.1+751+463+751C461.5+751+461+750.3+461+748.1C461+744.4+462.4+743.4+468.5+743.1C471.3+743+475+742+476.9+740.9C480.5+738.8+483+739+483+741.5C483+743.4+484.1+743.4+488.5+741.6C490.3+740.8+492.1+740.4+492.4+740.7C492.7+741+493.2+740.5+493.6+739.6C494.3+737.7+497.1+737.5+498.8+739.2C499.7+740.1+500+739.8+500+737.7C500+734+496.2+731.6+492.6+733C491.1+733.5+489.7+734.7+489.4+735.5C488.5+737.7+486.7+737.3+484+734.5C482.7+733.1+481.2+732+480.8+732C480.3+732+478.3+733.6+476.5+735.6C473.2+739.1+472.9+739.2+467.8+738.5C464.4+738.1+461.6+737+460+735.5C453.6+729.7+448.5+729.4+444.2+734.7C441.4+738.2+441+738.4+435.7+738.3C432.7+738.2+429.2+737.6+428+737C426.9+736.4+422.7+735.6+418.7+735.3C411.6+734.8+405.8+733+403.2+730.3C401.1+728.3+399.7+728.7+396+732.5C389.7+738.9+384.5+740.6+366+741.7C346.9+742.9+336.2+742.5+333.8+740.3C332.4+739+331.7+739.1+327.9+741C323.9+743.1+323.1+743.1+315+742.1C310.3+741.5+303.9+741+300.9+741C297.9+741+293.7+740.4+291.5+739.8C289.3+739.1+283.5+738.5+278.5+738.4C268.6+738.2+259+735.5+248.2+730.1C241.1+726.5+237.1+726.2+234.5+729C233.5+730.1+231.7+731+230.5+731C229.2+731+227.7+731.6+227.1+732.4C226.3+733.3+222.7+734+216.7+734.4C204.7+735.3+202+735.9+202+737.5C202+739.6+224.6+738.4+229+736C230+735.4+231.7+735+232.8+735C233.9+735+235.9+734.1+237.4+732.9L240+730.8L246.6+733.9C250.3+735.6+253.9+737+254.7+737C255.4+737+259+738.3+262.5+740C268.6+742.8+269.3+743+277.7+742.4C284.9+741.8+287.2+742+289.8+743.4C291.6+744.3+293+745.5+293+746.1C293+746.6+294.4+746.3+296.1+745.5C297.8+744.6+299.8+744.1+300.5+744.3C302.1+745+301.2+750+299.4+750C296.6+750+292.7+754.6+292.7+757.9C292.7+760.7+292.4+761.1+290.6+760.6C289.4+760.3+284.9+759.8+280.5+759.4C276.1+759.1+270.1+757.9+267.2+756.8C262.6+755+261.7+754.9+259.1+756.1C256.8+757.2+253.5+757.4+242.9+756.7C222.7+755.5+206.1+750.8+204+745.7C203.5+744.5+203.1+744.1+203.1+744.7C203+745.4+202.4+746+201.6+746C200.8+746+200+745.4+199.7+744.7C199.4+743.8+199+743.8+197.7+744.9C195.6+746.6+186+745.6+177.8+742.9C174.6+741.9+171+741+169.7+741C166.3+741+158.7+737.5+157.4+735.3C156.5+733.8+156.7+733.5+158.9+733.3C160.3+733.3+161.7+733.6+162+734.1C163.1+735.7+195.6+739.8+198.6+738.6C202.3+737.2+197.9+735.7+188.8+735.2C183.7+735+178.3+734.1+176.8+733.4C175.3+732.6+173.2+732+172+732C170.8+732+168.8+730.8+167.5+729.4C165.5+727.3+164.8+727+163.1+728C161.9+728.6+158.6+729.1+155.7+729.1C151+729.2+149.5+728.6+143.4+724.7C139.5+722.2+135.2+718.4+133.7+716.3C129.3+710+126.6+707.2+123.9+706.1C121.5+705.2+121.3+704.9+121.8+699.7C122.1+696.3+121.8+694+121.1+693.6C120.5+693.2+120+692+120+691C120+690+118.9+688.3+117.5+687.2C115.4+685.5+115+684.4+115+679.7C115+676.1+114.5+673.6+113.5+672.7C111.4+670.5+106.5+669.7+104+671C100.9+672.7+100.2+671.6+99.4+664C98.8+657.7+98.5+656.8+96.1+655.7C94+654.7+93.6+653.9+93.8+651.5C94.1+648+90.6+641.4+87.3+639.3C85.2+637.9+84.9+638+82+641.1ZM88.1+644.6C89.1+645.8+89.4+648.8+89.2+655.2C88.9+662.2+89.2+664.7+90.5+666.6C91.4+668+92.7+668.9+93.3+668.7C94+668.5+95+669.6+95.7+671.2C96.4+672.7+97.7+674.3+98.7+674.7C99.7+675+101.3+676+102.3+676.9C104+678.3+104.3+678.3+105.9+676.1C108.6+672.6+110+674.3+110+681.1C110+686.1+110.4+687.5+112.3+689.3C113.6+690.5+115.2+692.5+115.8+693.7C117.2+696.3+117.4+701.7+116.1+702.4C114.2+703.6+109.1+701.7+107.1+698.9C105.3+696.5+105.2+695.7+106.2+694.1C107.1+692.6+107+691.7+105.7+689.6C104.7+688.2+103+687+101.9+687C99.1+687+96+688.8+96+690.4C96+691.3+93.3+692.1+87.8+692.8C80.9+693.8+78.6+694.7+73.5+698.1C68.8+701.3+67.4+701.8+67.2+700.6C66.7+698.4+65.6+698.6+62.2+701.5C59.2+704+57.3+703.7+59.1+701C59.6+700.2+60+698.4+60+696.9C60+695.5+60.5+693.9+61.1+693.3C61.8+692.6+62.8+690+63.5+687.3C64.8+682.3+66.3+681.3+66.8+685.2C67.4+689.6+67.9+690.3+69.4+689C70.5+688.1+70.7+686.2+70.4+681.1C69.8+674.4+69.9+674.2+72.8+672.2C75+670.6+76+670.4+76.8+671.2C77.7+672.1+78.3+672.1+79.1+671.3C80.7+669.7+79.4+666.5+77.7+667.7C77.1+668.3+75.2+668.6+73.6+668.6C69.9+668.5+68.8+666+72.4+666C73.9+666+75.4+665.2+76+664C76.6+662.9+78+662+79+662C80.3+662+81+661.3+81+660.1C81+659.1+81.6+657.7+82.4+657.1C83.4+656.3+83.6+654.7+83.3+652C82.3+644.6+84.8+640.7+88.1+644.6ZM55.3+716.3C54.3+718+51.7+720.4+49.5+721.5C47.3+722.6+43.5+724.7+41+726.1C36.1+729+28.7+731.5+22.7+732.4C17.7+733.1+18.9+731.4+24+730.5C26.3+730.1+30.9+727.9+34.5+725.4C38+723+42+721+43.3+721C44.6+721+46.9+720.1+48.3+719C49.7+717.9+51.2+717+51.6+717C53.2+717+56+713.6+56.1+711.6C56.2+709.9+56.3+709.8+56.7+711.3C56.9+712.2+56.3+714.5+55.3+716.3ZM27.9+719.3C30.7+718.5+33.7+718.1+34.7+718.5C36.3+719.1+36.1+719.5+33.3+721.8C29.3+725.3+21.8+727.4+5.8+729.7L2+730.2L2+725.1C2+720.1+2.1+720+4.5+720.6C6.1+721+7+720.8+7+720C7+719.3+7.7+719+8.5+719.4C9.6+719.8+10+719.3+10+717.5L10+715.1L16.5+718C22.9+720.9+23.1+720.9+27.9+719.3ZM14.5+733C14.2+733.5+13.1+734+12.2+734C10.7+734+10.7+733.8+12+733C14+731.7+15.3+731.7+14.5+733ZM402.4+734.9C404.3+737+410.4+738.4+415.7+738.1C419.7+737.9+420.9+739.7+418.1+741.7C416.7+742.6+416+744+416.2+745.3C416.4+747+415.9+747.6+414.1+747.8C412.8+748+409.8+750.2+407.3+752.7C403+757.2+402.8+757.2+398.2+756.5C395.6+756.1+391.8+755.6+389.7+755.5C387.6+755.3+385.1+754.5+384.2+753.7C381.2+750.9+373.9+749.1+369.4+749.9C367.2+750.3+364.8+751+364.2+751.4C363.5+751.8+360.4+751.6+357.1+750.9C351.6+749.9+350.8+750+345.4+752.3C342.1+753.7+336.9+755+333.8+755.3L328.2+755.7L326.7+751.9C325.3+748.3+325.3+748+327.6+745.9C329.7+743.9+330.3+743.8+332.4+744.9C334.2+745.9+340.5+746.2+358.8+745.9C372+745.7+382.6+745.2+382.4+744.8C382.1+744.4+383.2+744.2+384.7+744.3C387.5+744.5+388.8+743.7+395.5+737.2C397.7+735+399.8+733.2+400.1+733.1C400.4+733.1+401.5+733.9+402.4+734.9ZM456.7+737.2C458.3+738.5+458.4+747.2+456.9+748.7C456.1+749.5+456.1+750.4+457+751.9C457.6+753.1+457.8+754.5+457.5+755C457.2+755.5+458.1+756.7+459.5+757.6C462.3+759.4+462.7+761.2+460.6+762.9C459.8+763.6+458.9+765.3+458.5+766.7C458.2+768.2+456.8+770.6+455.5+772.2C454.2+773.8+453.3+775.7+453.6+776.5C454+777.3+453.9+778.8+453.5+779.7C452.9+781.3+452.7+781.2+451.9+779.2C451.4+777.9+450.2+777+448.9+777C447.8+777+445.2+776.3+443.3+775.4L439.9+773.7L442.5+771C447.6+765.6+446.8+755.1+440.9+751.6C439.2+750.6+437.2+748.3+436.4+746.4C434.6+742+434.6+742+437.6+742C439.8+742+440+742.3+439.1+743.4C438.1+744.6+438.5+744.8+441.2+744.7C443.6+744.5+444.6+744+444.8+742.5C445+741.4+446.3+739.1+447.6+737.3C449.8+734.4+450.3+734.2+452.7+735.1C454.2+735.7+456+736.6+456.7+737.2ZM427+740.5C429.2+741.6+430+742.8+430+744.7C430+746.5+431.6+748.9+435.5+752.7C439.6+756.8+441+758.8+441+761C441+766+439.4+768.8+436.3+769.2C433.6+769.5+433.2+770.4+434.1+773.8C434.3+774.6+433.7+775.7+432.7+776.3C431.2+777.3+430.4+776.9+427.6+773.6C424.1+769.4+421.3+769.2+420.3+773C419.8+775+418.4+775.5+415.7+774.4C414.5+774+414.4+773.2+415.1+770.7C416.3+766.3+416.4+766.3+413+765.1C410+764.1+409.6+763.5+409.9+759C410.2+756+413.4+753+416.4+753C420.3+752.9+421.9+750.8+421.6+745.9C421.4+742.1+422.3+739+423.7+739C423.9+739+425.4+739.7+427+740.5ZM317.9+747.6C321.1+749.9+324.2+757+322.8+758.8C321.9+759.8+322+761+322.9+763.5C323.7+765.9+323.8+767.5+323.1+768.8C321.9+771+322.6+772+325.1+772C326.9+772+328.7+768+328.2+765.2C327.7+762.9+330+764+331+766.5C332.3+769.9+330.6+773.4+325.8+776.9C321.4+780.2+315.7+780.4+313.5+777.3C312.2+775.6+312.1+775.6+310.3+777.3C307.9+779.4+300.8+779+298+776.5C296.9+775.5+295.6+773.1+295+771.2C294.2+768.3+294.4+767.3+296+765.2C297.1+763.9+298+761.3+298+759.6C298+755.8+300+752.7+302+753.2C302.9+753.4+304.2+752+305.3+749.7C307+746.3+307.5+746+311.4+746C313.7+746+316.6+746.7+317.9+747.6ZM375.1+754.6C377.3+757.2+381.2+758.7+388+759.4C403+760.9+403.6+761.1+406.9+766C409.2+769.5+409.6+770.8+408.8+772.3C407.3+775.2+410.7+778.1+416.3+778.7C420.3+779.2+421+779.6+421.5+782C421.8+783.4+421.7+785.8+421.1+787.2L420.2+789.7L404.3+789.4C395.6+789.3+383.8+788.7+378+788.1C372.2+787.5+356.4+786.9+342.8+786.8C325+786.6+318+786.2+318+785.4C318+783.9+320.3+783+323.9+783C327.6+783+333.8+776.5+335.4+770.9C336.3+768+337.3+766.4+338.6+766.2C339.6+766+341.4+765.5+342.5+765C347.1+762.8+354.3+760.9+355.7+761.4C357.2+762+359.9+760.9+362.2+758.7C368.1+753.1+372.6+751.6+375.1+754.6ZM355.9+755.6C356.6+756.2+356.1+756.4+345.6+759.8C335.6+763+334+763.1+334+760.4C334+759.4+335.2+759+337.9+759C340.1+759+344+757.9+346.7+756.5C350.9+754.4+354.2+754.1+355.9+755.6ZM472.5+757C472.9+757.6+471.9+758+470.1+758C468.5+758+466.8+757.5+466.5+757C466.1+756.4+467.1+756+468.9+756C470.5+756+472.2+756.4+472.5+757ZM479.1+765.1C478.6+768.8+478.2+769.3+475.6+769.6C472.8+769.9+469+772.5+469+774.2C469+776.1+473.2+779+476.1+779C477.8+779+478.9+779.4+478.5+780C478.2+780.5+477.2+781+476.3+781C475.4+781+473.7+781.8+472.6+782.9C470.5+784.7+457.1+786.7+455.7+785.4C455.3+785+456.2+783.9+457.5+782.8C458.9+781.7+460+779.9+460+778.7C460+775.8+463+768+465.3+765C466.5+763.3+468.5+762.3+471.3+761.9C480+760.7+479.7+760.5+479.1+765.1ZM491+763.5C491+765.1+486.5+765.6+485.6+764.1C484.8+762.9+486+762+488.7+762C490.1+762+491+762.6+491+763.5ZM497+773C497.8+773.5+498.1+774+497.5+774.1C487.5+775.1+484.4+774.8+485.5+772.9C486.3+771.7+495.1+771.8+497+773ZM478.5+774C478.2+774.5+477.2+775+476.4+775C475.6+775+475.2+774.5+475.5+774C475.8+773.4+476.8+773+477.6+773C478.4+773+478.8+773.4+478.5+774ZM443.1+780.9C446.8+784.2+446.6+784.5+439.2+785.3C436.7+785.6+434.3+786.6+433.6+787.5C431.9+789.8+428.6+789+428.2+786.2C427.8+783.3+429.6+781+432.4+781C433.6+781+435.5+780.3+436.6+779.5C439.2+777.6+439.2+777.6+443.1+780.9ZM497.2+781.2C496.4+782+494.9+782+491.8+781.3L487.5+780.2L493+780.1C497.1+780+498.1+780.3+497.2+781.2ZM479+784.8C479+786.1+477.8+787+476.8+786.4C475.8+785.8+476.7+784+478.1+784C478.6+784+479+784.4+479+784.8ZM475.9+791C476.9+791.5+476+791.8+473.5+791.8C470.6+791.8+469.2+792.4+468.2+793.9C466.9+795.7+465.8+796+459.3+796L451.9+796L452.2+793.3C452.4+791.4+453.2+790.4+454.8+790C458+789.3+474.2+790+475.9+791ZM445.2+793C445+794.4+444.5+795.8+444.2+796.1C443.1+797.2+429.7+795.6+429.3+794.4C429.1+793.7+431+793+434.2+792.6C437.1+792.2+440.2+791.5+441+791C443.6+789.3+445.5+790.3+445.2+793ZM496+792.6C496+794.1+493.3+794.4+488.1+793.4C483.6+792.5+485.2+791.2+491+791.2C494.7+791.1+496+791.5+496+792.6ZM366+794.6C366+794.8+365.1+795+363.9+795C362.8+795+362.1+794.6+362.5+794C363+793.2+366+793.7+366+794.6ZM410.4+794.1C411.2+794.9+402.8+795.8+397.5+795.6C395.3+795.5+388.9+795.3+383.3+795.2C377.6+795.1+373+794.6+373+794.2C373+793.2+409.5+793.2+410.4+794.1ZM420+794C420+794.5+419+795+417.8+795C415.9+795+415.8+794.8+417+794C418.9+792.7+420+792.7+420+794ZM477.2+803L477.5+811L472.5+811.1C469.8+811.2+464.2+811.3+460.1+811.4L452.7+811.5L452.3+805.9L451.9+800.3L455.7+799.7C463.4+798.4+465.7+798.8+468+802C471.2+806.4+473+805.9+473+800.6C473+796.6+473.7+795.4+476.2+795.1C476.5+795+477+798.6+477.2+803ZM375.9+797.5C376.4+797.7+383.2+798+391.1+798C411.5+798.1+422+799+422+800.6C422+801.3+421.3+802.3+420.4+802.8C417+804.7+419.4+806.4+425.1+806.1C431.3+805.8+433.4+804.5+430.8+802.6C426.4+799.4+431.4+798+441.3+799.6C445.6+800.4+446.3+802.9+443+805.7C440.3+808.1+440.5+810+443.5+810C444.9+810+446+810.4+446+810.8C446+811.2+441.8+811.5+436.8+811.4C431.7+811.3+423.9+811.2+419.5+811.1C415.1+811.1+391.3+810.9+366.5+810.8C341.8+810.7+318.8+810.6+315.5+810.5C312.2+810.4+304.6+810.2+298.5+810C288.5+809.8+287.9+809.7+292.5+808.9C301+807.3+303.5+801+295.6+801C290.6+800.9+294.6+799.4+301.6+798.7C307.1+798.1+307.8+798.3+308.3+799.9C308.7+801.5+309.6+801.8+314.4+801.6C320.5+801.4+324.2+799.4+320.2+798.4C319+798+318+797.3+318+796.7C318+795.7+374.2+796.4+375.9+797.5Z" opacity="1" fill="#000000"/>
</g>
<g id="Layer 1" vectornator:layerName="Layer 1">
<g opacity="1">
<path fill="#000000" d="M132.335+854.651C132.335+854.785+132.381+854.885+132.475+854.951C132.568+855.018+132.761+855.051+133.055+855.051L133.055+855.531L125.975+855.531L125.975+855.051C126.268+854.998+126.481+854.911+126.615+854.791C126.748+854.671+126.881+854.451+127.015+854.131C127.068+853.998+127.201+853.638+127.415+853.051C127.628+852.465+127.908+851.725+128.255+850.831C128.601+849.938+128.988+848.945+129.415+847.851C129.841+846.758+130.268+845.645+130.695+844.511C131.121+843.378+131.541+842.271+131.955+841.191C132.368+840.111+132.735+839.145+133.055+838.291C133.375+837.438+133.635+836.745+133.835+836.211C134.035+835.678+134.135+835.398+134.135+835.371C134.135+835.238+134.048+835.145+133.875+835.091C133.701+835.038+133.521+834.998+133.335+834.971L133.335+834.491L143.775+834.491L143.775+834.971C143.561+834.998+143.388+835.038+143.255+835.091C143.121+835.145+143.055+835.278+143.055+835.491C143.055+835.545+143.181+835.891+143.435+836.531C143.688+837.171+144.015+838.005+144.415+839.031C144.815+840.058+145.275+841.218+145.795+842.511C146.315+843.805+146.855+845.125+147.415+846.471C147.975+847.818+148.515+849.131+149.035+850.411C149.555+851.691+150.028+852.838+150.455+853.851C150.668+854.331+150.848+854.651+150.995+854.811C151.141+854.971+151.335+855.051+151.575+855.051L151.575+855.531L143.695+855.531L143.695+855.051C144.201+855.025+144.455+854.865+144.455+854.571C144.455+854.545+144.388+854.365+144.255+854.031C144.121+853.698+143.975+853.325+143.815+852.911C143.655+852.498+143.501+852.105+143.355+851.731C143.208+851.358+143.121+851.105+143.095+850.971L133.615+850.971C133.348+851.691+133.135+852.278+132.975+852.731C132.815+853.185+132.688+853.545+132.595+853.811C132.501+854.078+132.435+854.271+132.395+854.391C132.355+854.511+132.335+854.598+132.335+854.651ZM142.055+847.771L138.175+838.251L134.615+847.771L142.055+847.771Z" opacity="1"/>
<path d="M172.335+844.691L171.775+844.411C171.801+844.305+171.835+844.198+171.875+844.091C171.915+843.985+171.935+843.865+171.935+843.731C171.935+843.571+171.768+843.385+171.435+843.171C171.101+842.958+170.675+842.765+170.155+842.591C169.635+842.418+169.048+842.265+168.395+842.131C167.741+841.998+167.081+841.931+166.415+841.931C165.668+841.931+164.908+842.025+164.135+842.211C163.361+842.398+162.668+842.685+162.055+843.071C161.441+843.458+160.935+843.951+160.535+844.551C160.135+845.151+159.935+845.878+159.935+846.731C159.935+847.558+160.135+848.278+160.535+848.891C160.935+849.505+161.441+850.005+162.055+850.391C162.668+850.778+163.361+851.065+164.135+851.251C164.908+851.438+165.668+851.531+166.415+851.531C167.215+851.531+167.968+851.431+168.675+851.231C169.381+851.031+170.008+850.791+170.555+850.511C171.101+850.231+171.528+849.951+171.835+849.671C172.141+849.391+172.295+849.185+172.295+849.051L172.295+848.691C172.295+848.531+172.281+848.411+172.255+848.331L172.695+848.051L176.495+853.531L176.015+853.811C175.775+853.518+175.561+853.371+175.375+853.371C175.268+853.371+174.981+853.491+174.515+853.731C174.048+853.971+173.428+854.245+172.655+854.551C171.881+854.858+170.968+855.118+169.915+855.331C168.861+855.545+167.695+855.651+166.415+855.651C164.948+855.651+163.515+855.505+162.115+855.211C160.715+854.918+159.468+854.418+158.375+853.711C157.281+853.005+156.401+852.078+155.735+850.931C155.068+849.785+154.735+848.385+154.735+846.731C154.735+845.105+155.068+843.718+155.735+842.571C156.401+841.425+157.281+840.491+158.375+839.771C159.468+839.051+160.715+838.525+162.115+838.191C163.515+837.858+164.948+837.691+166.415+837.691C167.295+837.691+168.148+837.765+168.975+837.911C169.801+838.058+170.561+838.211+171.255+838.371C171.948+838.531+172.548+838.685+173.055+838.831C173.561+838.978+173.921+839.051+174.135+839.051C174.268+839.051+174.388+839.011+174.495+838.931C174.601+838.851+174.681+838.771+174.735+838.691L175.215+838.851L172.335+844.691Z" opacity="1" fill="#000000"/>
<path fill="#000000" d="M197.935+852.011C198.468+852.011+198.815+851.678+198.975+851.011L199.455+851.011L199.455+856.251L199.055+856.251C198.921+855.878+198.781+855.665+198.635+855.611C198.488+855.558+198.255+855.531+197.935+855.531L180.095+855.531L180.095+855.051C180.388+855.025+180.648+854.971+180.875+854.891C181.101+854.811+181.215+854.625+181.215+854.331L181.215+839.131C181.215+838.838+181.101+838.651+180.875+838.571C180.648+838.491+180.388+838.438+180.095+838.411L180.095+837.931L198.255+837.931C198.415+837.931+198.575+837.878+198.735+837.771C198.895+837.665+198.975+837.425+198.975+837.051L199.455+837.051L199.455+842.411L198.975+842.411C198.975+842.011+198.895+841.751+198.735+841.631C198.575+841.511+198.415+841.451+198.255+841.451L186.575+841.451L186.575+844.691L194.095+844.691C194.255+844.691+194.415+844.631+194.575+844.511C194.735+844.391+194.815+844.145+194.815+843.771L195.295+843.771L195.295+848.971L194.815+848.971C194.815+848.598+194.735+848.351+194.575+848.231C194.415+848.111+194.255+848.051+194.095+848.051L186.575+848.051L186.575+852.011L197.935+852.011Z" opacity="1"/>
<path fill="#000000" d="M226.495+841.931C225.748+841.931+225.041+842.045+224.375+842.271C223.708+842.498+223.121+842.818+222.615+843.231C222.108+843.645+221.715+844.145+221.435+844.731C221.155+845.318+221.015+845.985+221.015+846.731C221.015+847.478+221.155+848.145+221.435+848.731C221.715+849.318+222.108+849.818+222.615+850.231C223.121+850.645+223.708+850.965+224.375+851.191C225.041+851.418+225.748+851.531+226.495+851.531C227.268+851.531+227.981+851.418+228.635+851.191C229.288+850.965+229.868+850.645+230.375+850.231C230.881+849.818+231.275+849.318+231.555+848.731C231.835+848.145+231.975+847.478+231.975+846.731C231.975+845.985+231.835+845.318+231.555+844.731C231.275+844.145+230.881+843.645+230.375+843.231C229.868+842.818+229.288+842.498+228.635+842.271C227.981+842.045+227.268+841.931+226.495+841.931ZM226.495+837.691C227.748+837.691+229.008+837.865+230.275+838.211C231.541+838.558+232.688+839.098+233.715+839.831C234.741+840.565+235.575+841.505+236.215+842.651C236.855+843.798+237.175+845.158+237.175+846.731C237.175+848.331+236.855+849.698+236.215+850.831C235.575+851.965+234.741+852.891+233.715+853.611C232.688+854.331+231.541+854.851+230.275+855.171C229.008+855.491+227.748+855.651+226.495+855.651C225.241+855.651+223.981+855.491+222.715+855.171C221.448+854.851+220.301+854.331+219.275+853.611C218.248+852.891+217.415+851.965+216.775+850.831C216.135+849.698+215.815+848.331+215.815+846.731C215.815+845.158+216.135+843.798+216.775+842.651C217.415+841.505+218.248+840.565+219.275+839.831C220.301+839.098+221.448+838.558+222.715+838.211C223.981+837.865+225.241+837.691+226.495+837.691Z" opacity="1"/>
<path d="M242.375+839.131C242.375+838.838+242.268+838.651+242.055+838.571C241.841+838.491+241.548+838.438+241.175+838.411L241.175+837.931L258.575+837.931C258.735+837.931+258.895+837.878+259.055+837.771C259.215+837.665+259.295+837.425+259.295+837.051L259.775+837.051L259.775+842.571L259.295+842.571C259.295+842.171+259.215+841.911+259.055+841.791C258.895+841.671+258.735+841.611+258.575+841.611L247.735+841.611L247.735+845.331L255.055+845.331C255.215+845.331+255.375+845.278+255.535+845.171C255.695+845.065+255.775+844.825+255.775+844.451L256.255+844.451L256.255+849.811L255.775+849.811C255.775+849.411+255.695+849.151+255.535+849.031C255.375+848.911+255.215+848.851+255.055+848.851L247.735+848.851L247.735+854.331C247.735+854.625+247.841+854.811+248.055+854.891C248.268+854.971+248.535+855.025+248.855+855.051L248.855+855.531L241.255+855.531L241.255+855.051C241.575+855.025+241.841+854.971+242.055+854.891C242.268+854.811+242.375+854.625+242.375+854.331L242.375+839.131Z" opacity="1" fill="#000000"/>
<path fill="#000000" d="M288.615+850.811C290.721+850.811+292.241+850.271+293.175+849.191C294.108+848.111+294.575+846.718+294.575+845.011C294.575+843.305+294.108+841.911+293.175+840.831C292.241+839.751+290.721+839.211+288.615+839.211L283.535+839.211L283.535+850.811L288.615+850.811ZM277.535+835.691C277.535+835.505+277.475+835.351+277.355+835.231C277.235+835.111+276.921+835.025+276.415+834.971L276.415+834.491L289.695+834.491C291.535+834.491+293.135+834.758+294.495+835.291C295.855+835.825+296.975+836.565+297.855+837.511C298.735+838.458+299.395+839.571+299.835+840.851C300.275+842.131+300.495+843.518+300.495+845.011C300.495+846.371+300.261+847.685+299.795+848.951C299.328+850.218+298.621+851.338+297.675+852.311C296.728+853.285+295.555+854.065+294.155+854.651C292.755+855.238+291.121+855.531+289.255+855.531L276.415+855.531L276.415+855.051C276.921+854.998+277.235+854.911+277.355+854.791C277.475+854.671+277.535+854.518+277.535+854.331L277.535+835.691Z" opacity="1"/>
<path opacity="1" fill="#000000" d="M314.255+841.931C313.508+841.931+312.801+842.045+312.135+842.271C311.468+842.498+310.881+842.818+310.375+843.231C309.868+843.645+309.475+844.145+309.195+844.731C308.915+845.318+308.775+845.985+308.775+846.731C308.775+847.478+308.915+848.145+309.195+848.731C309.475+849.318+309.868+849.818+310.375+850.231C310.881+850.645+311.468+850.965+312.135+851.191C312.801+851.418+313.508+851.531+314.255+851.531C315.028+851.531+315.741+851.418+316.395+851.191C317.048+850.965+317.628+850.645+318.135+850.231C318.641+849.818+319.035+849.318+319.315+848.731C319.595+848.145+319.735+847.478+319.735+846.731C319.735+845.985+319.595+845.318+319.315+844.731C319.035+844.145+318.641+843.645+318.135+843.231C317.628+842.818+317.048+842.498+316.395+842.271C315.741+842.045+315.028+841.931+314.255+841.931ZM314.255+837.691C315.508+837.691+316.768+837.865+318.035+838.211C319.301+838.558+320.448+839.098+321.475+839.831C322.501+840.565+323.335+841.505+323.975+842.651C324.615+843.798+324.935+845.158+324.935+846.731C324.935+848.331+324.615+849.698+323.975+850.831C323.335+851.965+322.501+852.891+321.475+853.611C320.448+854.331+319.301+854.851+318.035+855.171C316.768+855.491+315.508+855.651+314.255+855.651C313.001+855.651+311.741+855.491+310.475+855.171C309.208+854.851+308.061+854.331+307.035+853.611C306.008+852.891+305.175+851.965+304.535+850.831C303.895+849.698+303.575+848.331+303.575+846.731C303.575+845.158+303.895+843.798+304.535+842.651C305.175+841.505+306.008+840.565+307.035+839.831C308.061+839.098+309.208+838.558+310.475+838.211C311.741+837.865+313.001+837.691+314.255+837.691Z"/>
<path d="M345.615+844.691L345.055+844.411C345.081+844.305+345.115+844.198+345.155+844.091C345.195+843.985+345.215+843.865+345.215+843.731C345.215+843.571+345.048+843.385+344.715+843.171C344.381+842.958+343.955+842.765+343.435+842.591C342.915+842.418+342.328+842.265+341.675+842.131C341.021+841.998+340.361+841.931+339.695+841.931C338.948+841.931+338.188+842.025+337.415+842.211C336.641+842.398+335.948+842.685+335.335+843.071C334.721+843.458+334.215+843.951+333.815+844.551C333.415+845.151+333.215+845.878+333.215+846.731C333.215+847.558+333.415+848.278+333.815+848.891C334.215+849.505+334.721+850.005+335.335+850.391C335.948+850.778+336.641+851.065+337.415+851.251C338.188+851.438+338.948+851.531+339.695+851.531C340.495+851.531+341.248+851.431+341.955+851.231C342.661+851.031+343.288+850.791+343.835+850.511C344.381+850.231+344.808+849.951+345.115+849.671C345.421+849.391+345.575+849.185+345.575+849.051L345.575+848.691C345.575+848.531+345.561+848.411+345.535+848.331L345.975+848.051L349.775+853.531L349.295+853.811C349.055+853.518+348.841+853.371+348.655+853.371C348.548+853.371+348.261+853.491+347.795+853.731C347.328+853.971+346.708+854.245+345.935+854.551C345.161+854.858+344.248+855.118+343.195+855.331C342.141+855.545+340.975+855.651+339.695+855.651C338.228+855.651+336.795+855.505+335.395+855.211C333.995+854.918+332.748+854.418+331.655+853.711C330.561+853.005+329.681+852.078+329.015+850.931C328.348+849.785+328.015+848.385+328.015+846.731C328.015+845.105+328.348+843.718+329.015+842.571C329.681+841.425+330.561+840.491+331.655+839.771C332.748+839.051+333.995+838.525+335.395+838.191C336.795+837.858+338.228+837.691+339.695+837.691C340.575+837.691+341.428+837.765+342.255+837.911C343.081+838.058+343.841+838.211+344.535+838.371C345.228+838.531+345.828+838.685+346.335+838.831C346.841+838.978+347.201+839.051+347.415+839.051C347.548+839.051+347.668+839.011+347.775+838.931C347.881+838.851+347.961+838.771+348.015+838.691L348.495+838.851L345.615+844.691Z" opacity="1" fill="#000000"/>
<path fill="#000000" d="M354.615+849.651C354.615+849.705+354.608+849.765+354.595+849.831C354.581+849.898+354.575+849.985+354.575+850.091C354.575+850.358+354.828+850.611+355.335+850.851C355.841+851.091+356.488+851.311+357.275+851.511C358.061+851.711+358.915+851.871+359.835+851.991C360.755+852.111+361.615+852.171+362.415+852.171C362.655+852.171+362.981+852.158+363.395+852.131C363.808+852.105+364.215+852.031+364.615+851.911C365.015+851.791+365.355+851.618+365.635+851.391C365.915+851.165+366.055+850.851+366.055+850.451C366.055+849.918+365.735+849.538+365.095+849.311C364.455+849.085+363.648+848.911+362.675+848.791C361.701+848.671+360.648+848.545+359.515+848.411C358.381+848.278+357.328+848.045+356.355+847.711C355.381+847.378+354.575+846.898+353.935+846.271C353.295+845.645+352.975+844.771+352.975+843.651C352.975+843.038+353.135+842.378+353.455+841.671C353.775+840.965+354.281+840.318+354.975+839.731C355.668+839.145+356.581+838.658+357.715+838.271C358.848+837.885+360.228+837.691+361.855+837.691C362.815+837.691+363.728+837.745+364.595+837.851C365.461+837.958+366.248+838.078+366.955+838.211C367.661+838.345+368.261+838.465+368.755+838.571C369.248+838.678+369.601+838.731+369.815+838.731C370.028+838.731+370.201+838.671+370.335+838.551C370.468+838.431+370.588+838.331+370.695+838.251L371.135+838.411L368.735+843.451L368.215+843.211C368.215+843.158+368.221+843.091+368.235+843.011C368.248+842.931+368.255+842.851+368.255+842.771C368.255+842.665+368.095+842.531+367.775+842.371C367.455+842.211+367.035+842.051+366.515+841.891C365.995+841.731+365.408+841.591+364.755+841.471C364.101+841.351+363.428+841.291+362.735+841.291C362.495+841.291+362.121+841.298+361.615+841.311C361.108+841.325+360.601+841.391+360.095+841.511C359.588+841.631+359.141+841.805+358.755+842.031C358.368+842.258+358.175+842.598+358.175+843.051C358.175+843.531+358.495+843.871+359.135+844.071C359.775+844.271+360.581+844.431+361.555+844.551C362.528+844.671+363.581+844.805+364.715+844.951C365.848+845.098+366.901+845.345+367.875+845.691C368.848+846.038+369.655+846.538+370.295+847.191C370.935+847.845+371.255+848.758+371.255+849.931C371.255+850.705+371.081+851.445+370.735+852.151C370.388+852.858+369.855+853.478+369.135+854.011C368.415+854.545+367.501+854.951+366.395+855.231C365.288+855.511+363.975+855.651+362.455+855.651C361.495+855.651+360.521+855.591+359.535+855.471C358.548+855.351+357.641+855.205+356.815+855.031C355.988+854.858+355.301+854.698+354.755+854.551C354.208+854.405+353.895+854.331+353.815+854.331C353.628+854.331+353.461+854.391+353.315+854.511C353.168+854.631+353.028+854.758+352.895+854.891L352.455+854.771L354.095+849.411L354.615+849.651Z" opacity="1"/>
</g>
</g>
</svg>
