<svg version="1" xmlns="http://www.w3.org/2000/svg" width="666.667" height="1170.667" viewBox="0 0 500 878"><path d="M165.1 28.7c-2.3 3.1-4.1 6-4.1 6.4 0 1.7 1.9 1.9 3.2.3.7-.9 2.3-2.7 3.6-4.1 2.2-2.4 2.4-2.4 4.3-.7 1.5 1.3 4.9 9.8 4.9 12.1 0 .9-2.9.1-4-1.2-1.7-2-2.7-1.9-4 .6-.8 1.5-.8 2.4 0 3.4.6.8.7 1.6.2 1.9-1.4.8-2.9-1.3-3.7-5.4-1-4.7-1.4-5.3-3.1-3.9-1.9 1.5-1.8 7.9.2 10.7 1 1.4 2.5 2.2 4.5 2.2 6.7 0 9.8 4 7.5 9.5-.8 1.9-1.9 3.5-2.5 3.5-.5 0-1.8 1.4-2.8 3-2.3 4-4.7 4.6-7.9 2.1-3.7-2.9-5.7-2.6-9.8 1.3-2.7 2.5-3.6 4.1-3.6 6.7 0 1.9-.7 5.6-1.5 8.3-.8 2.6-1.2 5.3-.9 5.8 1.1 1.7 13.5.3 17.4-1.9 1.9-1.1 4.6-3.9 5.9-6.3 2.3-4 2.3-4.5.9-7s-1.4-2.9.4-5.3l1.9-2.6 5.6 8.1 5.5 8.2-1.2 5.1c-1.4 6.2-.1 13.3 3.6 18.6 2 3 2.6 5.5 3.4 15 .6 6.3 1.2 12.1 1.5 12.9.4 1.6 1.5 37.6 1.5 49.5 0 3.8-.4 14.2-.8 23-.5 8.8-.8 24.2-.7 34.1.2 17.9.2 18.2-1.9 18.2-1.1 0-2.9.2-4 .4-2.1.3-2.6-.5-5-8-1.9-5.9-6.5-13.2-10.1-16-1.6-1.3-2.5-3.1-2.7-5.8-.3-3.7-.1-4 4.3-6.2 7.6-3.9 9.4-9.4 6.5-19.2-.7-2.5-2-4.6-2.8-4.8-2.2-.4-14.2 10.1-16.2 14.1-2.3 4.9-2 7.5 1.4 14.2 1.6 3.2 2.7 6.1 2.4 6.4-.3.3-1.9-.2-3.5-1.2-1.7-.9-4-1.7-5.2-1.7-3 0-3.9-.7-8.1-6.3-2-2.6-3.6-5.9-3.6-7.3 0-1.3-1-3.5-2.3-4.8-2-2-2.9-2.2-8.6-1.6-5.6.5-6.7 1-9.4 4-1.7 1.9-4.4 4-6.1 4.6-2.5.9-3.1 1.7-3.1 3.9 0 4.3 5.8 8.5 12.8 9.2 5 .5 6.1.3 10.6-2.6 2.8-1.7 5.3-3.1 5.6-3.1 1.4 0 .1 2.8-3 6.6-1.9 2.3-3.5 5-3.5 5.9 0 1 1.1 4.9 2.5 8.6 1.3 3.8 2.5 7.2 2.4 7.7 0 .4 1.1.8 2.3 1 3.4.3 11.4-7.7 14.4-14.3 2.1-5 2.7-5.5 5.5-5.5 6.4 0 14.5 12.5 13.3 20.6-.7 4.9.7 8.1 4.2 9.4 1.8.7 2.4 1.7 2.4 3.9 0 2 .8 3.5 2.7 4.9 1.9 1.4 2.7 2.9 2.9 5.8.4 4.6.9 33.9 1.9 110l.8 55-5.1 2.7c-12.8 6.7-14.6 9.2-2.7 3.8 3.5-1.6 6.6-2.7 6.9-2.3 1.1 1 .6 27.1-.4 27.7-.5.3-2-.1-3.2-.9-5.1-3.6-5.3-.3-.3 3.7l3.6 2.8-.3 9.7-.3 9.7-6.3.5c-3.4.3-6.2.9-6.2 1.5.1 1 .5 1 8.2 0 4-.6 4.7-.4 5.2 1.2.4 1.1 3.6 4.8 7.2 8.3 8.2 7.8 11.8 14.8 11.2 21.8-.3 2.6-.8 5.6-1.3 6.6-.7 1.7-.5 1.8 1.7 1.3 4.4-1.1 17.9 6.3 20 10.8 1.5 3.2.2 4.5-1.7 1.8-2.1-3-9.9-5.4-16.3-5-6.2.4-10.6 3.2-11 7-.5 4 2.5 3.4 4.2-.8.8-1.9 2.1-3.5 2.8-3.6 5.8-.4 11.8.6 15.1 2.4 3.8 2.1 3.8 2.2 3.2 6.7-.4 2.5-.8 4.7-1 4.8-.2.2-2.6.5-5.4.6-7.9.4-8 1.4-.2 3.4 1.9.4 3.7 1.4 3.9 2.1.3.9-1 1.1-5.5.6-5-.6-6.6-.4-10.1 1.4-3.7 1.9-4.2 2.6-4.2 5.5 0 3.3 2 6.2 3.3 4.9.4-.3.7-2.1.7-3.9 0-3.8 2.2-5.5 7.2-5.6 3.4-.1 6.8 3 6.8 6.2 0 2.5-6.6 4.7-19.9 6.5-10.3 1.5-11.7 1.5-15.2.1-2.2-.9-4.7-1.6-5.7-1.6-1.5 0-6.1-1.6-17.2-6-24.8-10-23.4-8.9-23.8-18.8-.6-11.9 2.5-20.2 7.6-20.2.9 0 6.6 3.3 12.6 7.2 15.8 10.6 18.6 12.2 19.8 11 .9-.9-6.3-6.8-13.4-10.8-1.1-.7-2.5-1.7-3.1-2.3-.6-.6-2.1-1.1-3.4-1.1-1.3 0-2.3-.6-2.3-1.4 0-.8-.6-1.6-1.4-1.8-.7-.2-4.6-3.4-8.6-7.1-8.8-8.4-9.7-10.8-7.6-20.9.7-4 1.7-9 2.1-11.1.5-3.3 1.2-4.1 4.8-5.7 2.8-1.3 4.5-1.6 5.3-.9.7.5 1.5 5 1.9 9.9.8 10.7 1.9 12.3 10.3 16.8 3.3 1.8 6.5 3.8 7.1 4.6.7.8 3.6 3 6.4 4.7 2.9 1.8 6.8 4.5 8.7 5.9 3.8 2.9 14.1 6.2 15.8 5.1.6-.3-1-1.5-3.6-2.5-6.9-2.7-16.2-8.9-16.2-10.7 0-2.2 3.7-5.9 6.1-5.9 6 0 14.5 7.2 13.6 11.7-.6 3 1.2 4.1 3 1.8 2-2.8 1.6-4.8-1.8-9.1-3.5-4.6-8.9-7.3-14.3-7.4-3 0-4.5.7-7.3 3.5-1.9 1.9-3.8 3.5-4.1 3.5-.4 0-3.8-2.1-7.6-4.5-3.8-2.5-7.5-4.5-8.2-4.5-2.4 0-4.1-5.4-5.4-17-1.3-11.2-1.5-30.5-.4-34.5 1.6-6 8.1-11.5 13.6-11.5 1.4 0 3.1-.7 3.8-1.5 1.6-1.9.7-1.9-6.3.5-12.7 4.2-14.4 6.9-15.3 23.7-.6 14.1-.6 14.1-8 17.3-4.6 2-5.5 3.7-7.5 15-2.7 15.1-2.7 15.3 3.1 21.4l5.3 5.6-3 2.7c-5.6 5.3-6.6 8.6-6 19.6.6 11.1 1.2 12.3 8.3 15.8 2.4 1.1 4.4 2.4 4.4 2.7 0 .4-.7 2.5-1.6 4.9-2.5 6.5-1.2 14 3 18.3 3.8 3.8 13.6 7.8 29.1 11.8 5.5 1.4 10.2 2.6 10.4 2.8.2.2.2 4.7.1 10.1-.7 25.7-.3 47.1 1.6 70.5.7 9.2 2.7 11.7 9.8 12.5 6 .7 8.9-.1 13-3.8 4.2-3.6 4.5-4.8 5.1-22.4.3-7.7.7-15.4.9-17 .3-1.7.8-12.7 1.1-24.5.5-20.4.7-21.6 2.7-23.1l2.1-1.6-2.2-2.2c-2.7-2.7-2.2-6 1.5-10.4 3.5-4.2 3.3-9.4-.7-13.5-1.7-1.8-3.5-3.2-4-3.2-2.2 0-.6-2.2 2.5-3.5 3.8-1.6 7.6-5.8 7.6-8.4 0-.9-.7-2.7-1.6-3.9-1.9-2.8-1.2-5.2 1.6-5.2 2.9 0 5.3-6 4.5-11.1-.6-3.5-.5-3.9 1.4-3.9 2.7 0 2.6-1-.5-6.7-3.8-6.7-5.2-13-6.4-28.3-1.6-19.1-2.3-22.6-7.4-33.1-8.6-18.1-10.9-34.3-7.1-48.9 1.9-7.2 8.9-14.6 12.9-13.6 3.6.9 3.2 3.2-.8 4.6-5.8 1.9-6.9 3.9-6.8 13.1 0 11.3 2 12.7 14 10.6 3.8-.7 4.2-.5 4.2 1.3 0 3.6 9 20 11 20 1.7 0 1.1-2-3.1-10.2-3-6.1-4.6-11-6.5-20.6-1.3-7-2.9-13.9-3.5-15.4-1.4-3.4-5-5.8-8.9-5.8h-3l.4-9.8c.3-5.3.7-16.5 1.1-24.7.4-8.3 1.3-16.6 2-18.5.7-2 1.3-5.2 1.3-7.3 0-2.2 1.5-6.8 3.7-11.5 2-4.2 4.1-9.9 4.6-12.7.5-2.9 1.9-6 3.4-7.5 2.6-2.8 3.2-5.9 1.5-9-.8-1.5-.5-2.2 1.8-3.8 6.1-4.2 9.2-3.8 9.2 1.3 0 4.3 2.2 6.5 6.4 6.5 1.9 0 5.3.7 7.6 1.5s4.8 1.5 5.4 1.5c.7 0 1.8-2.7 2.4-6 1.5-7.2.5-10.2-4.7-13.7-4.6-3.1-8.4-2.9-11.9.5-2.3 2.3-3.6 2.8-6.1 2.4-3.9-.5-3.9-2.2-.1-6.5 1.7-1.9 3-4.6 3-6 0-1.4.7-3 1.6-3.5 1.5-.8 1.4-1.3-.7-4.1-2.3-3.1-4.3-3.9-5.4-2.1-1.3 2.1-2.5.8-2.5-2.8 0-4.2 3.2-10.2 5.5-10.2 2.1 0 5.6 7.4 5.3 11.5-.3 4.3.7 5.4 3 3.2 2.9-3 2.2-9.7-1.4-14.9-1.8-2.3-4-4.5-4.9-4.6-2.3-.5-10.4 8.2-11.2 11.9-.8 4-1.8 4.4-5 2-3-2.4-5.3-1.4-5.3 2.3 0 1.2-.7 3.1-1.5 4.2-.8 1-1.5 2.9-1.5 4.1 0 2.5 5.5 9.3 7.5 9.3 1.7 0 3.1 1.9 3.9 5.2.5 2.4.1 2.9-5.9 6.2-6.5 3.6-9.1 4.4-8.1 2.7.3-.5.1-3.3-.4-6.2-1.6-8.3-1.3-66.9.5-83.9.8-8 1.5-21.2 1.5-29.4 0-8.1.5-21.2 1.1-29.1.8-9.9.8-17.6.1-25.5-1.2-12.8-.2-18.1 5.1-25.9 6.5-9.5 9-22.3 6.8-33.2-1-4.7-2.1-6.7-6.4-11.2-4.7-5-5.7-5.6-10.2-6.1-2.7-.2-8.1-1-12-1.6-8.8-1.5-12.8-.4-19.1 5.1-2.5 2.2-5.1 3.8-5.8 3.6-1.2-.4-5.6-6.5-5.6-7.8 0-.5 1.3-1.5 3-2.4 2.6-1.4 3.2-1.4 6.3.1 3.1 1.5 3.9 1.5 8.9 0 4.6-1.3 6.1-2.4 10.1-7.3 2.6-3.2 4.7-6.3 4.7-7 0-2-3.6-3.3-9.4-3.3-3 0-5.7-.4-6-.9-.3-.4.6-1.9 2-3.2 6.2-5.8 9.2-17.1 4-15.4-1.1.4-5.5 1-9.6 1.4-7.9.7-10.3 1.6-13.5 5l-1.9 2.2-1.3-2.3c-.7-1.3-1.2-3.1-1.3-4 0-1.9-7.1-9.8-8.8-9.8-.6 0-2.9 2.5-5.1 5.7zm40.3 7.5c-1.3 4.2-4.9 8-9.2 9.9-5.6 2.5-6 2.4-3.3-.5 2.1-2.3 2.2-4.6.1-4.6-.5 0-2.2 1.2-3.9 2.6-5.7 4.8-7.3-.5-1.6-5.4 2.9-2.6 4.2-3.1 9-3.1 3.2 0 5.9-.2 6.3-.5.3-.3 1.2-.6 1.9-.6 1 0 1.2.6.7 2.2zm-25.2 6c-.7.7-1.2.8-1.2.2 0-1.4 1.2-2.6 1.9-1.9.2.3-.1 1.1-.7 1.7zM182 50c0 3-2.2 4.2-4.2 2.3-2.2-2-2.3-3.1-.1-5.5 1.6-1.8 1.8-1.8 3-.2.7 1 1.3 2.5 1.3 3.4zm6.3 2.8c.9 1.3-1.8 10.2-3.6 11.9-2.6 2.6-4.1.4-3.2-4.7.9-5.4 5.2-9.9 6.8-7.2zm23.1 2c.3.5-1 2.4-2.9 4.2-4.1 3.9-11.8 6.5-13.5 4.5-.8-.9-.4-1.4 1.5-1.9 1.4-.4 2.5-1 2.5-1.5 0-1.2-2.1-2.8-4.5-3.3-1.8-.5-1.8-.6.5-1.5 3.1-1.3 15.7-1.6 16.4-.5zm-54.3 20.3c-.6 1.7-.8 3.5-.5 4 .8 1.4 3.4 1 4-.6.8-1.9 4-1.9 4.8 0 .8 2.2-1 6.2-3.6 7.9-1.3.8-4.1 1.6-6.3 1.8-3.7.2-4 .1-3.8-2.2.6-6.7 1.8-10.7 3.7-12.7 2.6-2.7 3.1-2.2 1.7 1.8zm52 15.6c-.2 20.8-.5 24.6-1.9 25.1-.7.2-1.2-.2-1.1-.9.4-2-1.1-5.9-2.2-5.9-.5 0-.9-.7-.9-1.5s.5-1.5 1-1.5c.6 0 1 .4 1 1 0 .5.4 1 .9 1s.8-6.5.6-14.7c-.3-15-.1-17.3 1.7-15.5.6.6 1 6 .9 12.9zM204 79c0 .5-.4 1-1 1-.5 0-1-.5-1-1 0-.6.5-1 1-1 .6 0 1 .4 1 1zm10.5 2.8c.3 1.5.5 8.6.3 15.6-.2 9.5-.6 13-1.6 13.3-1.9.8-2.2.1-1.3-3.9.5-2 .6-4 .2-4.3-1.2-1.3-.7-23.5.6-23.5.6 0 1.4 1.3 1.8 2.8zm-10.9 1.9c-1 1-1.9-.5-1-1.8.6-1.1.8-1.1 1.2 0 .2.7.1 1.5-.2 1.8zm31.1 3.3c-.1 2.7-.5 5-.8 5-.9 0-1.7-7.1-1.1-8.8 1-2.9 2.1-.8 1.9 3.8zm-30.9 13.5c-1.2 1.4-2.8-1.5-2.2-4 .2-1.1.6-4 .8-6.5.6-6.7.9-6.3 1.6 2 .3 4.1.2 7.9-.2 8.5zM219 87.4c0 .3-.4.8-1 1.1-.5.3-1 .1-1-.4 0-.6.5-1.1 1-1.1.6 0 1 .2 1 .4zm0 6.1c0 1.9-.4 3.5-1 3.5-.5 0-1-1.6-1-3.5s.5-3.5 1-3.5c.6 0 1 1.6 1 3.5zm-19.4 4.3c-1.3 1.2-1.7-.8-1-4l.9-3.3.3 3.3c.2 1.9.1 3.6-.2 4zm31.3-2.1c.1 2.7.3 6.6.6 8.8.2 2.2.1 5.1-.2 6.5-.6 2.3-.7 2.3-1.4.5-.9-2.5-1.1-18.9-.2-19.8 1-1.1 1-1 1.2 4zm-42.9.9c0 .8-.4 1.2-1 .9-.5-.3-1-1.3-1-2.1s.5-1.2 1-.9c.6.3 1 1.3 1 2.1zm4 1.4c0 .5-.2 1-.4 1-.3 0-.8-.5-1.1-1-.3-.6-.1-1 .4-1 .6 0 1.1.4 1.1 1zm31.6 13.7c-.3.8-1 1.2-1.5.8-1.1-.6-1.3-13.3-.3-14.9.9-1.4 2.5 12.1 1.8 14.1zm-27.9-11.5c-.3.8-.6.5-.6-.6-.1-1.1.2-1.7.5-1.3.3.3.4 1.2.1 1.9zm4 1c-.3.8-.6.5-.6-.6-.1-1.1.2-1.7.5-1.3.3.3.4 1.2.1 1.9zM219 100c0 .5-.2 1-.4 1-.3 0-.8-.5-1.1-1-.3-.6-.1-1 .4-1 .6 0 1.1.4 1.1 1zm18.5 4.2c-.6 3.2-2.1 5.6-2.9 4.7-.2-.2-.7-1.9-1.1-3.8-.6-2.9-.5-3.3.9-2.8.9.4 1.6.2 1.6-.3 0-.6.5-1 1-1 .6 0 .8 1.3.5 3.2zm-45.5.4c0 1.4-.4 2.3-1 1.9-.5-.3-1-1.5-1-2.6 0-1 .5-1.9 1-1.9.6 0 1 1.2 1 2.6zm11.6.1c-1 1-1.9-.5-1-1.8.6-1.1.8-1.1 1.2 0 .2.7.1 1.5-.2 1.8zm-7.6.3c0 .5-.5 1-1.1 1-.5 0-.7-.5-.4-1 .3-.6.8-1 1.1-1 .2 0 .4.4.4 1zm22.5 3c.3.5.1 1-.4 1-.6 0-1.1-.5-1.1-1 0-.6.2-1 .4-1 .3 0 .8.4 1.1 1zm4.6 8.3c-1.3 1.3-2.6.3-1.6-1.2.3-.6 1.1-.8 1.7-.5.6.4.6 1-.1 1.7zm-4.9 1.9c.8 4.5-.7 20.1-1.9 20.5-1.1.4-1.3-6.4-.4-21 .1-2.5 1.8-2.1 2.3.5zm-5.6 1.5c-1 1-1.9-.5-1-1.8.6-1.1.8-1.1 1.2 0 .2.7.1 1.5-.2 1.8zm19.4-.9c0 1.6-3.2 5.2-4.6 5.2-2 0-1.8-3.7.4-4.9 2.1-1.2 4.2-1.4 4.2-.3zm-19 3.6c0 .8-.4 1.8-1 2.1-.5.3-1-.3-1-1.4 0-1.2.5-2.1 1-2.1.6 0 1 .6 1 1.4zm0 6.5c0 1.7-.4 3.3-1 3.6-.6.4-1-.8-1-2.9 0-2 .5-3.6 1-3.6.6 0 1 1.3 1 2.9zm-4 1.7c0 1.3-.4 2.4-.9 2.4-1.3 0-2.4-3.7-1.6-5 1-1.6 2.5-.1 2.5 2.6zm16.7-1.4c-.3.8-.6.5-.6-.6-.1-1.1.2-1.7.5-1.3.3.3.4 1.2.1 1.9zM222 135c0 1.1-.4 2-1 2-.5 0-1-.9-1-2s.5-2 1-2c.6 0 1 .9 1 2zm-9 8.1c0 6.1-1.7 6.5-2.2.4-.4-5.1 0-6.8 1.3-5.9.5.3.9 2.7.9 5.5zm-4-3.1c0 .5-.4 1-1 1-.5 0-1-.5-1-1 0-.6.5-1 1-1 .6 0 1 .4 1 1zm8.3 3.6c-.4 1.2-.8 1.3-1.4.3-.9-1.5-.2-3.2 1.1-2.4.5.3.6 1.3.3 2.1zm-.3 6.4c0 .5-.4 1-1 1-.5 0-1-.5-1-1 0-.6.5-1 1-1 .6 0 1 .4 1 1zm-4.3 5.7c-.3 1-.5.2-.5-1.7s.2-2.7.5-1.8c.2 1 .2 2.6 0 3.5zm-3 4.5c-.7 7-.9 7.2-1.6 1.3-.7-5.4-.5-6.5 1-6.5.7 0 .9 2 .6 5.2zm7.5-2c-1.5 1.5-2.6.4-1.8-1.8.5-1.3.9-1.5 1.8-.6s.9 1.5 0 2.4zm8.5 3.5c-.2 1.6-.4.5-.4-2.2 0-2.8.2-4 .4-2.8.2 1.3.2 3.5 0 5zm-23.7-2.5c0 1.6-.3 1.9-1.1 1.1-.6-.6-.8-1.6-.5-2.2 1.1-1.7 1.6-1.3 1.6 1.1zm10.7 1c-.3.8-.6.5-.6-.6-.1-1.1.2-1.7.5-1.3.3.3.4 1.2.1 1.9zm-10.3 6.9c-.3.5-1 .7-1.5.3-.5-.3-.7-1-.3-1.5.3-.5 1-.7 1.5-.3.5.3.7 1 .3 1.5zm15.1-1.1c.3.5.1 1-.4 1-.6 0-1.1-.5-1.1-1 0-.6.2-1 .4-1 .3 0 .8.4 1.1 1zm-14.9 7.7c-1 1-1.9-.5-1-1.8.6-1.1.8-1.1 1.2 0 .2.7.1 1.5-.2 1.8zm14.9.3c.3.5.1 1-.4 1-.6 0-1.1-.5-1.1-1 0-.6.2-1 .4-1 .3 0 .8.4 1.1 1zm-14.5 4.2c0 .7-.5 2-1 2.8-.8 1.2-1 .9-1-1.3 0-1.5.5-2.7 1-2.7.6 0 1 .6 1 1.2zm22.1 7c.1 3.5.1 6.5.1 6.8-1.3 32.1-2.1 42-3.4 42-.7 0-.8-3.7-.4-11.3.4-6.1.9-18.4 1.1-27.2.3-18.2.2-16.5 1.5-16.5.6 0 1.1 2.8 1.1 6.2zm-27.1-4c0 .7-.5 2-1 2.8-.8 1.2-1 .9-1-1.3 0-1.5.5-2.7 1-2.7.6 0 1 .6 1 1.2zm21 6c0 .7-.4 1.9-.9 2.7-1.1 1.7-2.5-.3-1.7-2.4.7-1.8 2.6-2 2.6-.3zm-16 5.4c0 .8-.5 1.2-1 .9-.6-.4-.8-1.1-.5-1.6.9-1.4 1.5-1.1 1.5.7zm7 13.3c0 11.4-.5 15.1-1.9 15.1-.3 0-.6-6.1-.6-13.5 0-10.1.3-13.5 1.3-13.5.9 0 1.2 3.1 1.2 11.9zm-13.4-7.2c-1 1-1.9-.5-1-1.8.6-1.1.8-1.1 1.2 0 .2.7.1 1.5-.2 1.8zm8 1.2c.6 2.2.8 4.5.4 5.2-1.2 1.8-3.2 0-2.5-2.2.4-1.1.1-2.6-.5-3.4-1.1-1.4-.6-3.5.9-3.5.4 0 1.2 1.8 1.7 3.9zm13 1.9c-1.1 1-1.5-.4-.8-2.8l.7-2.5.3 2.3c.2 1.3.1 2.6-.2 3zM214 203c0 .5-.4 1-1 1-.5 0-1-.5-1-1 0-.6.5-1 1-1 .6 0 1 .4 1 1zm-.4 4.7c-1 1-1.9-.5-1-1.8.6-1.1.8-1.1 1.2 0 .2.7.1 1.5-.2 1.8zm-40.3 4.2c1.2 5.9.2 8.8-3.4 10.6-8.7 4.6-10.9-3.1-3.2-11.6 2-2.2 4.1-3.8 4.7-3.6.6.2 1.4 2.3 1.9 4.6zm40.7-.4c0 .8-.4 1.5-1 1.5-.5 0-1-.7-1-1.5s.5-1.5 1-1.5c.6 0 1 .7 1 1.5zm4.7 2.3c-1 1-1.7 2.3-1.7 2.9 0 .6-1.1 1-2.5 1-3.2 0-3.2-1 .3-3.6 3.6-2.7 6.2-2.9 3.9-.3zm-82 4.7c.3.9-.2 2.4-1.1 3.4-1.2 1.3-1.4 2.1-.7 2.6 2 1.2 1.1 3.4-1.9 5-4.4 2.3-10.9 1.9-13.7-.7-3-2.8-2.9-3.7.7-5 1.7-.5 3.7-2.3 4.6-3.9 1.3-2.6 1.9-2.9 6.5-2.9 3.5 0 5.1.4 5.6 1.5zm67.3-.5c0 .5-.2 1-.4 1-.3 0-.8-.5-1.1-1-.3-.6-.1-1 .4-1 .6 0 1.1.4 1.1 1zm14 3c0 .5-.4 1-1 1-.5 0-1-.5-1-1 0-.6.5-1 1-1 .6 0 1 .4 1 1zm-4 2c0 1.1-.4 2-1 2-.5 0-1-.9-1-2s.5-2 1-2c.6 0 1 .9 1 2zm-14 .4c0 .3-.4.8-1 1.1-.5.3-1 .1-1-.4 0-.6.5-1.1 1-1.1.6 0 1 .2 1 .4zm9.3.2c.8.8-.3 3.4-1.4 3.4-.5 0-.9-.9-.9-2 0-1.9 1.1-2.6 2.3-1.4zm8.7 3c0 .8-.4 1.4-1 1.4-.5 0-1-.9-1-2.1 0-1.1.5-1.7 1-1.4.6.3 1 1.3 1 2.1zm-5.3 2.6c-.3.8-.6.5-.6-.6-.1-1.1.2-1.7.5-1.3.3.3.4 1.2.1 1.9zm-3.4.4c.8.8-.3 3.4-1.4 3.4-.5 0-.9-.9-.9-2 0-1.9 1.1-2.6 2.3-1.4zm-5.3 2.9c0 .8-.4 1.5-1 1.5-.5 0-1-.7-1-1.5s.5-1.5 1-1.5c.6 0 1 .7 1 1.5zm9 1.5c0 .5-.4 1-1 1-.5 0-1-.5-1-1 0-.6.5-1 1-1 .6 0 1 .4 1 1zm-4 1.4c0 .8-.4 1.7-.9 2.1-1.2.7-2.4-1.2-1.6-2.5.9-1.5 2.5-1.2 2.5.4zm-59.5 4.3c1.5-.7 2.5 1.3 2.5 5.1 0 2.5-6.2 10.2-8.2 10.2-.4 0-.8-1.6-.8-3.5s-.8-5-1.7-6.9c-1.3-2.9-1.4-4-.5-6.1l1.2-2.6 3 2.1c1.7 1.2 3.7 1.9 4.5 1.7zm55.5-2.8c0 .6-.4 1.3-1 1.6-.5.3-1-.1-1-.9 0-.9.5-1.6 1-1.6.6 0 1 .4 1 .9zm8 1.1c0 .5-.5 1-1.1 1-.5 0-.7-.5-.4-1 .3-.6.8-1 1.1-1 .2 0 .4.4.4 1zm-13 1c0 .5-.4 1-1 1-.5 0-1-.5-1-1 0-.6.5-1 1-1 .6 0 1 .4 1 1zm21.7 2.2c-.3.7-.5.2-.5-1.2s.2-1.9.5-1.3c.2.7.2 1.9 0 2.5zM209 240c0 .5-.4 1-1 1-.5 0-1-.5-1-1 0-.6.5-1 1-1 .6 0 1 .4 1 1zm-4 .9c0 .6-.4 1.3-1 1.6-.5.3-1-.1-1-.9 0-.9.5-1.6 1-1.6.6 0 1 .4 1 .9zm17 11.2c0 7.6-.2 9-1.5 8.6-.8-.4-1.7-.3-1.9.2-1.1 1.8-1.5 53.1-.4 56.3 1.7 5.1 3.1 5.9 2.1 1.3-.4-2.2-.7-11-.6-19.5.2-24.4.5-30 1.4-30.6.5-.3.9 9.4.9 22.3 0 12.5.3 24.4.6 26.4.5 3.1.2 4-2.2 6.2-2.2 2.1-2.5 2.8-1.5 4.1 1 1.2.9 1.5-.7 2-1.1.4-2.7 1.5-3.7 2.6s-2.1 2-2.5 2c-.3 0-.6-2.6-.5-5.8.1-4.8-.9-11.9-1.5-10.2-.1.3-.3 4.3-.4 9-.2 4.7-.4 10.4-.5 12.7-.2 7-1.9 4.9-2-2.5 0-3.7-.3-13.1-.7-21-.5-10.5-.4-14.2.4-14.2.7 0 1.3 1 1.3 2.2.5 6.5.8 9 1.3 9.5.6.6 1.1-6.1.6-8.2-.5-2.5 0-50.6.6-55.3.8-6.8 2.4-6.7 2.4.2 0 5.5 1.4 8.2 2.6 5.1.6-1.3.8-1.4 1.5-.3 1.3 2 2.9-.9 2.9-5.4 0-3.5.8-6.8 1.6-6.8.2 0 .4 4.1.4 9.1zm-17-.9c0 2-.4 4-1 4.3-.6.4-1-1.6-1-5.2 0-4.1.3-5.4 1-4.3.5.8 1 3.2 1 5.2zm3.4 11.5c-.4 8.7-.7 16.6-.6 17.5 0 1-.4 2.1-1 2.4-.7.5-.9-4.2-.5-15.2.4-8.8.6-16.9.7-18.2 0-1.2.5-2.2 1.1-2.2.7 0 .8 4.9.3 15.7zm-8.4-8.6c0 1.1-.4 1.8-1 1.4-.5-.3-.7-1.2-.3-2 .7-2.1 1.3-1.9 1.3.6zm4.4 6.7c-.4 1.2-1 2.2-1.5 2.2-1.1 0-1.2-4.4-.2-5.3 1.2-1.2 2.3.8 1.7 3.1zm-14.4 3.7c2.1 1.1 3 2.3 3 4 0 1.4-.4 2.5-1 2.5-.5 0-1-.7-1-1.6 0-.8-.5-1.2-1.1-.8-.6.4-.8 2-.4 4 .3 2.1.2 3.4-.5 3.4-.5 0-1-.3-1.1-.8 0-.4-.1-2.5-.3-4.7-.1-2.2-.6-4.8-1-5.8-1-2.1-.3-2.1 3.4-.2zm14 6.4c0 5-1.6 6.2-2.2 1.7-.4-3.9 0-5.6 1.3-5.6.5 0 .9 1.8.9 3.9zm-4 3.1c0 2.7-.4 5-1 5-.5 0-1-2.3-1-5 0-2.8.5-5 1-5 .6 0 1 2.2 1 5zm3.7 6.5c.2 1.4-.1 2.5-.7 2.5-.5 0-1-1.4-1-3.2 0-3.5 1.2-3 1.7.7zm-3.2 1.4c.3.5.1 1.2-.5 1.6-.5.3-1-.1-1-.9 0-1.8.6-2.1 1.5-.7zm7.5 4.1c0 .5-.4 1-1 1-.5 0-1-.5-1-1 0-.6.5-1 1-1 .6 0 1 .4 1 1zm-7.5 3.9c.3.5.1 1.2-.5 1.6-.5.3-1-.1-1-.9 0-1.8.6-2.1 1.5-.7zm41.8 7.2c1.2 2.5 1.3 3.6.4 5.1-1.6 2.5-3.2 2.3-5.6-.8-2.4-3-2.6-4.6-1.1-7.5 1.4-2.6 4.1-1.1 6.3 3.2zm-38.6-.9c-.3.8-.6.5-.6-.6-.1-1.1.2-1.7.5-1.3.3.3.4 1.2.1 1.9zm-7.7 3.4c0 .8-.5 1.2-1 .9-.6-.4-.8-1.1-.5-1.6.9-1.4 1.5-1.1 1.5.7zm4.5.4c.3.5.1 1-.4 1-.6 0-1.1-.5-1.1-1 0-.6.2-1 .4-1 .3 0 .8.4 1.1 1zm.5 4.4c0 .3-.4.8-1 1.1-.5.3-1 .1-1-.4 0-.6.5-1.1 1-1.1.6 0 1 .2 1 .4zm-5 2.2c0 .8-.4 1.2-1 .9-.5-.3-1-1-1-1.6 0-.5.5-.9 1-.9.6 0 1 .7 1 1.6zm8.1 5.1c.2 4.8.2 8.3 0 13.6-.1 1.6-.5 2.6-1 2.3-1.3-.8-1.4-20.6-.1-20.6.5 0 1.1 2.1 1.1 4.7zm-4.4 2.5c-.3.8-.6.5-.6-.6-.1-1.1.2-1.7.5-1.3.3.3.4 1.2.1 1.9zm67.4.7c2.6 2.7 4 7.7 2.4 9.3-.3.2-3.1-.1-6.2-.7-7-1.4-8.2-4-1.8-4 3.3 0 4-.3 4-2 0-1.1-1-2.4-2.2-3-2.7-1.1-3-2.5-.7-2.5.8 0 2.9 1.3 4.5 2.9zm-70.6-.9c-.3.5-1 1-1.6 1-.5 0-.9-.5-.9-1 0-.6.7-1 1.6-1 .8 0 1.2.4.9 1zm-.5 13.5c0 .8-.4 1.5-1 1.5-.5 0-1-.7-1-1.5s.5-1.5 1-1.5c.6 0 1 .7 1 1.5zm4.1 1.7c-.4 3.2-.5 3.2-1.1.8-.7-2.6-.4-4 .9-4 .4 0 .5 1.5.2 3.2zm31.5 1c-.4 1.3-.9 3.9-1.3 5.8-.3 1.9-1.7 5-3.1 6.9-2.1 2.8-2.3 3.7-1.3 5.3 1 1.7.9 2-.9 2.5s-2 1.1-1.5 4.7c.5 3.1.3 4.5-.8 5.5-2.1 1.6-3 0-3.3-5.9-.2-2.5-.5-6.6-.8-9.3-.3-3.4-.1-4.7.8-4.7.8 0 1.3 1.4 1.4 3.7.2 5 2.2 6.9 2.2 2.1 0-2 .5-4 1-4.3.6-.3 1-1.5 1-2.6 0-1.2.7-1.9 1.9-1.9 1.4 0 1.7-.6 1.4-2.3-.2-1.2 0-3.4.6-5 1.3-3.3 3.6-3.7 2.7-.5zm-27 8.4c.4 13.1.3 27.8 0 36.9-.2 4.4-.4 10-.4 12.4-.1 2.4-.5 4.1-.9 3.8-.3-.4-.8-14.7-.9-31.8-.3-23.5 0-30.9.8-30.7.8.3 1.3 3.6 1.4 9.4zm-7.8.7c.2 2.6-.1 4.7-.6 4.7-1.4 0-2.2-2.6-2.2-6.7 0-5.3 2.4-3.6 2.8 2zm3.7-.6c-.1 2.7-.3 7.5-.3 10.7-.1 3.3-.5 5.6-.9 5.2-1.7-1.6-1.1-20.6.6-20.6.4 0 .6 2.1.6 4.7zM216 337c0 .5-.5 1-1.1 1-.5 0-.7-.5-.4-1 .3-.6.8-1 1.1-1 .2 0 .4.4.4 1zm-7 12.5c0 1.9 0 3.8.1 4.2 0 .4-.4.9-.9 1.1-.6.2-1-1.7-1-4.2.1-2.6.5-4.6 1-4.6.4 0 .8 1.6.8 3.5zm3.2-1.3c-.7.7-1.2.8-1.2.2 0-1.4 1.2-2.6 1.9-1.9.2.3-.1 1.1-.7 1.7zm4.8-1.8c0 .3-.4.8-1 1.1-.5.3-1 .1-1-.4 0-.6.5-1.1 1-1.1.6 0 1 .2 1 .4zm0 5.2c0 1.4-1.2 1.9-2.3.8-.9-.9.4-3.5 1.4-2.8.5.3.9 1.2.9 2zm-4 .4c0 1.1-.4 2-1 2-.5 0-1-.9-1-2s.5-2 1-2c.6 0 1 .9 1 2zm-4 9.7c0 4.1-.3 5.4-1 4.3-1.3-2-1.3-10 0-10 .6 0 1 2.6 1 5.7zm4-3.2c0 .8-.4 1.5-1 1.5-.5 0-1-.7-1-1.5s.5-1.5 1-1.5c.6 0 1 .7 1 1.5zm-12.9 4.8c-.1 1.2-1.5.9-1.9-.4-.3-.6.1-1 .8-.8.6.3 1.1.8 1.1 1.2zm21.9 2.1c0 .3-.4.8-1 1.1-.5.3-1 .1-1-.4 0-.6.5-1.1 1-1.1.6 0 1 .2 1 .4zm-21 5.2c0 3.1-.2 3.5-1.5 2.4-1.6-1.3-2-4.2-.8-5.3 1.5-1.5 2.3-.5 2.3 2.9zm11.5.4c.3.5.1 1-.4 1-.6 0-1.1-.5-1.1-1 0-.6.2-1 .4-1 .3 0 .8.4 1.1 1zm8.5 1.6c0 .7-.4 1.6-1 1.9-.5.3-1 .1-1-.4 0-.6-.7-1.1-1.5-1.1s-1.5-.4-1.5-.9 1.1-.9 2.5-.9 2.5.6 2.5 1.4zm-20.4 6.1c-.3 2.1-.6 4.5-.7 5.3-.1.8-.5-.5-.9-3-.8-4.7-.5-6 1.1-6 .7 0 .8 1.5.5 3.7zM213 376c0 .5-.4 1-1 1-.5 0-1-.5-1-1 0-.6.5-1 1-1 .6 0 1 .4 1 1zm-.4 5.7c-1 1-1.9-.5-1-1.8.6-1.1.8-1.1 1.2 0 .2.7.1 1.5-.2 1.8zm-3.7 20.7c-1.5 1.7-1.8.3-2-10-.3-14.3 1.4-15.7 2.2-1.9.4 6 .3 11.4-.2 11.9zm10.8-16.7c-.3 1-.5.2-.5-1.7s.2-2.7.5-1.8c.2 1 .2 2.6 0 3.5zm-6.4 7.6c.1 1.4-.2 2.7-.8 2.9-.5.2-1.1-1.5-1.2-3.6-.3-4.4 1.6-3.8 2 .7zm3.7 1.1c0 .3-.4.8-1 1.1-.5.3-1 .1-1-.4 0-.6.5-1.1 1-1.1.6 0 1 .2 1 .4zm-11.9 18.9c.2 7.2.3 16.4.4 20.4 0 3.9.3 7.4.6 7.7.3.3.2 3.2-.3 6.3-.5 3.2-.8 11.1-.8 17.5 0 7.3-.4 11.8-1 11.8-.5 0-1-1.5-1.1-3.3-.4-12.2-.5-73.3-.2-74 1.4-2.5 2.1 1.9 2.4 13.6zm-5.4-7.1c-.3.8-.6.5-.6-.6-.1-1.1.2-1.7.5-1.3.3.3.4 1.2.1 1.9zm9.3 12.3c0 3-.4 5.5-.8 5.5-.5 0-.8-2.4-.6-5.3.3-5.9.2-5.7.9-5.7.3 0 .5 2.5.5 5.5zm10.3 1.7c-.5 5.4-1 6.8-3.8 9.8-1.8 1.9-4.4 5.5-5.7 8-2.3 4.4-2.3 4.4-2.6 1.6-.2-1.8.4-3.6 1.7-5 1.2-1.2 2.1-2.8 2.1-3.5 0-1.3 4-7.4 5.3-7.9 1.1-.5.8-4-.4-4.7-1-.7 1.6-4.5 3.2-4.5.4 0 .5 2.8.2 6.2zm-10.3 9.3c0 1.9-.4 3.5-.9 3.5s-.9-1.6-.9-3.5.4-3.5.9-3.5.9 1.6.9 3.5zm22.3 4.4c2.1.8 2.6 1.9 3.5 8.2 1.2 8.3.1 10.9-4.7 10.9-5.1 0-7.3-3.7-7.2-11.9.1-7.4 2.5-9.4 8.4-7.2zm-31 2.7c.8.8-.3 3.4-1.4 3.4-.5 0-.9-.9-.9-2 0-1.9 1.1-2.6 2.3-1.4zm7.9 9.6c-.9.9-1.2.7-1.2-1.2s.3-2.1 1.2-1.2c.9.9.9 1.5 0 2.4zm.1 21.3c.3 1.6 1.2 5.6 2.2 8.8 1.8 6.2 1.7 7.1-.7 6.2-1.8-.7-2.8-5.6-2.8-13.4 0-5.8.5-6.5 1.3-1.6zM197 477c0 .5-.5 1-1.1 1-.5 0-.7-.5-.4-1 .3-.6.8-1 1.1-1 .2 0 .4.4.4 1zm4 0c0 .5-.4 1-1 1-.5 0-1-.5-1-1 0-.6.5-1 1-1 .6 0 1 .4 1 1zm16.8 14.5c-.2 1.4-.7 2.6-1.3 2.6-.5 0-1.1-1.2-1.3-2.6-.2-1.8.1-2.5 1.3-2.5s1.5.7 1.3 2.5zm-4.8-.5c0 .5-.4 1-1 1-.5 0-1-.5-1-1 0-.6.5-1 1-1 .6 0 1 .4 1 1zm-8 9c0 .5-.4 1-1 1-.5 0-1-.5-1-1 0-.6.5-1 1-1 .6 0 1 .4 1 1zm4.3 1.6c.6 3.1-.2 6.4-1.4 6.4-.5 0-.9-2-.9-4.5 0-4.9 1.5-6.1 2.3-1.9zm3.7-.5c0 1.1-.4 1.7-1 1.4-.5-.3-1-1.3-1-2.1s.5-1.4 1-1.4c.6 0 1 .9 1 2.1zm-16 6.9c0 .5-.5 1-1.1 1-.5 0-.7-.5-.4-1 .3-.6.8-1 1.1-1 .2 0 .4.4.4 1zm12.5 5.1c.7 4.3 0 6.3-1.5 3.9-1.2-1.9-1.3-8-.1-8 .5 0 1.2 1.8 1.6 4.1zm5.3 10.9c0 5-.4 9-.9 9s-.9-1.9-.9-4.3c-.1-2.3-.3-7.1-.6-10.7-.4-5.7-.3-6.3.9-4.7 1 1.2 1.5 4.6 1.5 10.7zm9.4-5.3c.6 4.7-.1 7.1-1.3 5.1-1.2-1.7-1.1-8.8 0-8.8.5 0 1.1 1.7 1.3 3.7zm-6.5 12.5c-.3.8-.6.5-.6-.6-.1-1.1.2-1.7.5-1.3.3.3.4 1.2.1 1.9zm8.2 11.4c1.4 5.9 1 7.4-1.3 5.5-1.4-1.2-1.9-11.1-.6-11.1.4 0 1.2 2.5 1.9 5.6zm-56.6 48.3c2.7 1.1 5.6 2.1 6.5 2.1.9 0 3 .7 4.6 1.5 3.1 1.6 8.4 1.8 16 .6 2.7-.5 8.6-.4 13 0 6.9.8 8.4 1.3 10.4 3.5 1.6 1.8 2.2 3.6 2 5.7-.4 4-2.8 4.9-2.8 1 0-5.2-2.4-7.3-8.4-7.3-6.5 0-11.6 3-12.9 7.7-1.3 4.2-.3 7 1.8 5.3.8-.7 1.5-2.2 1.5-3.3 0-3.3 3.9-6.7 7.6-6.7 4.9 0 6.4.9 6.4 3.9 0 1.5.5 3.2 1.1 3.8 1.5 1.5-.8 2.6-9.6 4.8-3.8 1-7.6 2.2-8.2 2.7-.7.6-2.3.8-3.6.4-1.3-.3-3.8-.2-5.5.3-1.8.6-4.6.5-6.9-.1-2.1-.5-5.4-1.3-7.3-1.7-9-2.1-20.6-7.2-23.2-10.1-2.5-2.7-2.8-3.8-2.8-10.5 0-6.3.3-7.6 2.1-8.8 2.2-1.6 4.1-1 18.2 5.2zm35.7 29.3c0 1.9.2 2 1 .8.9-1.3 1.1-1.3 1.9 0 .5.8.6 2.1.2 2.8-.5.8-.6 2.3-.4 3.3.3 1.1 0 1.9-.6 1.9s-1.1-.8-1.1-1.9c0-1-.8-2.1-1.8-2.3-2.3-.7-2.9-6.8-.6-6.8.8 0 1.4 1 1.4 2.2zm0 7.2c0 .3-.4.8-1 1.1-.5.3-1 .1-1-.4 0-.6.5-1.1 1-1.1.6 0 1 .2 1 .4zm3.5 5.6c0 .7-.6 1.5-1.2 1.7-.8.3-1.3-.4-1.3-1.7 0-1.3.5-2 1.3-1.8.6.3 1.2 1.1 1.2 1.8zm5.2-.4c-.3.3-1.2.4-1.9.1-.8-.3-.5-.6.6-.6 1.1-.1 1.7.2 1.3.5zm-9.7 6.6c-.3 8.9-.2 9.2 1.5 7.8 1.9-1.5 3-.7 2.1 1.6-.3.9-1.2 1.4-2.1 1-.9-.3-1.5 0-1.5.9 0 .8.7 1.5 1.5 1.5 2.1 0 1.9 1.8-.4 3.2-1.5.9-1.7 1.7-1.1 3.4.9 2.3.3 6.1-1.3 8.1-2 2.6-2.8 1.2-2.1-3.5.4-2.6.7-9.3.8-14.9.1-8.6-.1-10.2-1.4-10-.8.1-1.6-.3-1.7-.8-.2-.6.5-1 1.4-1 .9 0 1.8-.6 2.1-1.3 1-3.1 2.3-.7 2.2 4zm4.3-1.9c.8 2.2.2 6-1 6.5-.9.2-1.3-.9-1.3-3.7 0-3.9 1.3-5.5 2.3-2.8zm-13.2 2c-1.3 1.3-2.6.3-1.6-1.2.3-.6 1.1-.8 1.7-.5.6.4.6 1-.1 1.7zm19.4 5.7c0 3.3-.4 4.5-1.5 4.5s-1.6-1.3-1.8-4.8c-.3-4.2-.1-4.8 1.5-4.5 1.4.3 1.8 1.3 1.8 4.8zm-14.5.6c0 .8-.7 1.4-1.5 1.4-1.7 0-1.8-.2-.9-2.4.7-1.8 2.4-1.2 2.4 1zm-5 1.4c0 .5-.5 1-1.1 1-.5 0-.7-.5-.4-1 .3-.6.8-1 1.1-1 .2 0 .4.4.4 1zm19.5 14.4c-.6 3.1-1.1 3.6-3.6 3.6-2.9 0-2.9 0-2.9 6.4 0 7.4-.9 12.6-2.1 12.6-.5 0-.8-5-.7-11 .3-10.4.8-12.5 2.3-9.9 1 1.5 5.5-3 5.5-5.5 0-1.4.3-1.7 1.1-.9.6.6.8 2.5.4 4.7zm-15.5.6c0 .5-.4 1-1 1-.5 0-1-.5-1-1 0-.6.5-1 1-1 .6 0 1 .4 1 1zm14.4 8.9c.3.5 0 1.1-.8 1.4-1.5.6-2.6-.1-2.6-1.5 0-1.1 2.7-1 3.4.1zm-1.4 20.5c0 1.4-.5 2.8-1 3.1-1.3.8-2.4-2-1.6-4 .9-2.4 2.6-1.7 2.6.9zm-4 1.4c0 1-.7 2.7-1.5 3.8-1.3 1.8-1.4 1.7-1.5-1.9 0-2.6.4-3.7 1.5-3.7.8 0 1.5.8 1.5 1.8zm-9 3.2c0 2.1-1.5 2.7-2.5 1-.7-1.2.2-3 1.6-3 .5 0 .9.9.9 2zm3.3 11.4c2.3 1.8 2.1 2.8-.5 2.4-1.3-.2-2.4-1.1-2.6-2.1-.4-2 .6-2.1 3.1-.3z"/><path d="M213.5 264.9c-2.1 9.6-.6 59.1 1.8 59.1.6 0 .7-3.1.2-8.3-.8-8.6-.7-44.1 0-50.2.6-4.2-1.1-4.7-2-.6zM183.3 604.6c.3 1.9.2 4.6-.3 5.9-1.1 2.8.4 4.3 2.4 2.5 3.4-2.7 2.4-12-1.2-12-1.1 0-1.3.8-.9 3.6zM140.2 134.2c-.7.7-1.2 2-1.2 3s-.7 1.8-1.5 1.8c-1.9 0-5.9 13-5 16.2 1.1 3.5 5.4 8.8 8 9.8 4 1.5 9-.4 13.9-5.5 2.5-2.6 4.6-5.6 4.6-6.6 0-4.9-5.5-10.9-9.9-10.9-2.3 0-6.1-4.4-6.1-7.1 0-2.2-1.1-2.4-2.8-.7zM147 146c1 0 2.6.3 3.5.6 1.9.8 5.8 8.1 5 9.4-.9 1.5-3.6 1.2-5.7-.7-1.7-1.5-2-1.5-3.4-.2-1.5 1.5-1 4.9.7 4.9.5 0 .9.4.9 1 0 .5-1 1-2.3 1-5 0-9.5-8.9-8.3-16.3 1-5.9 1.6-6.3 4.8-2.8 1.6 1.7 3.7 3.1 4.8 3.1zM279.4 170.7c-6.2 8.5-5.4 18.7 1.9 26.5 3.3 3.6 5.5 3.5 11.2-.3 5.2-3.5 7.2-6.1 8.1-10.6 1.1-5.4-4.3-12.3-9.5-12.3-3.1 0-7-2.1-7.6-4.2-.9-2.5-1.8-2.3-4.1.9zm6.6 5.8c7.3 2.5 8.9 3.6 10 7.1.9 2.6.8 3.9-.5 6.3-2 4-2.8 3.9-4.8-.4-1.1-2.2-2.4-3.5-3.6-3.5-3 0-3.5 1.9-1.2 4.4 2.2 2.3 2.9 6.6 1.1 6.6-1.3 0-5.5-6.6-7-11.1-1.3-3.5-.7-10.9.8-10.9.4 0 2.7.7 5.2 1.5zM246.4 206.2c-1 1.9-1.7 5.8-1.8 9.1-.1 5.6.1 6 4.1 9.8 4.6 4.3 9.1 5.1 12.7 2.4 1.1-.8 2.8-1.5 3.7-1.5 2.7 0 6.9-5.7 6.9-9.4 0-5.5-6.8-10.6-14.2-10.6-2.4 0-5.2-.7-6.2-1.5-2.8-2.1-3.3-1.9-5.2 1.7zm17.3 5.4c3.1 2 4.5 4.9 3.7 7.9-.7 3-2.2 3.1-7.2.6-2-1-4.3-1.6-4.9-1.4-2 .7-1.5 3 .8 4.6 1.4 1 1.7 1.7.9 2.2-.7.4-2.6-.7-4.6-2.6-2.9-2.8-3.4-4-3.4-8v-4.6l6.3-.1c3.9-.1 7 .4 8.4 1.4zM271.3 238.2c-1.2.6-2.9 2.8-3.8 5-2 5.2-.7 10.2 3.8 14.6 3.6 3.5 8.5 4.4 12.4 2.4 1.2-.7 3-1.2 4-1.2 1.1 0 3.2-1.4 4.9-3.1 2.3-2.4 2.9-3.9 2.9-7.6 0-6.3-2.8-8.5-10.5-8.1-4 .2-6.4-.2-8.3-1.5-1.4-.9-2.8-1.7-2.9-1.6-.2 0-1.3.5-2.5 1.1zm4.9 5.4c2.7 1.4 3.7 1.4 7 .3 4.7-1.5 6.7-.6 8.1 3.5 1 3.1-.8 8.6-2.9 8.6-.7 0-2.6-1.6-4.1-3.5-1.5-1.9-3.4-3.5-4-3.5-1.8 0-2.7 4.8-1.3 6.5 2.1 2.5.3 2.9-2.9.6-3.3-2.4-5.6-8-4.7-11.7.8-2.8.8-2.9 4.8-.8zM336.8 269.5c-3.7 1.2-8.6 3.5-10.9 5.1-2.3 1.6-6.3 4.3-8.9 6-9.1 6.1-16.1 16.2-19.2 27.7-3.3 12.1-1.3 41.4 3.2 47.2.4.5 1.1 2.1 1.5 3.5 1.4 4.4 11.4 16.8 16 19.7 5 3.1 5.2 3.8 2.9 7.2-2.9 4 .2 15.8 5.2 20.2 2.2 2 7.9 4.9 9.4 4.9 2.3 0 .8-2.6-2.7-4.5-4.2-2.3-7.5-7.1-5.6-8.3.7-.4 1-2.7.8-5.7-.3-3.8-.7-5-1.9-4.9-2 .2-2-1-.1-2.6 1.2-1 2.5-1 5.9-.1 2.5.6 5.5 1.1 6.8 1.1 1.5 0 4.1 1.7 6.8 4.5 4 4.1 10.9 8.2 16.3 9.9 3.3 1 1.2 3.1-2.8 2.9-9.9-.6-23.9 10.9-30.8 25.4l-4.2 8.8v12c0 11.5.1 12.3 3.2 18.5 3.6 7.2 10.5 14.8 17.1 18.7 2.3 1.4 4.2 2.8 4.2 3.2 0 .3-1.6 1.5-3.6 2.6-8.6 4.6-13.1 13.7-12.2 24.8.6 7.2 3.1 12.7 8.3 18 2 2 3.3 4.2 3 4.7-.3.6-2.3 1-4.3 1.1l-3.7.1 3.5.9c3.7.9 11.3.2 14.2-1.2.9-.5 2.6-.5 3.7-.1 1.9.7 1.5 1.3-4.1 5.7-8.4 6.7-15.2 18.5-16.8 29.3-2.1 13.3 2.6 26.7 11.8 34 6.3 5 14.5 8.4 20.2 8.4 2.8-.1 5 .1 5 .3 0 .3-1.4 1.2-3 2-7.1 3.7-9.2 13.4-4.2 18.5 7.1 7 21.7 3.7 17.9-4.1-1.5-3-6.4-4.2-5.2-1.2 1.4 3.4 1 4.8-1.3 5.1-2.7.4-6.7-1.9-8.2-4.7-2.6-5 2.9-12.9 7.1-10.2 2.3 1.3 4.3.5 3.5-1.4-.8-2.1 2-3.8 4.9-3.1 4 1 11.5 8.5 14.1 14.1 3.1 6.6 3.2 10.5.2 5.3-2.2-3.8-4.9-5.5-6.9-4.3-.7.5-.4 1.4.9 2.9 1.1 1.1 2.5 4 3.2 6.4.6 2.4 1.9 4.6 2.8 4.9 2.7 1 3.1 2.4 1.7 6.3-2.5 7-4.7 10.5-10.4 16.3-4.2 4.3-6.9 6.1-10.5 7.2-5.9 1.8-7.1 1.3-2.4-1 8.4-4.1 21.6-17.5 20.5-20.8-.7-2.2-2.7-1.7-3.7.9-2.7 7.1-14.7 17.2-23.1 19.4-2 .6-4 1.7-4.3 2.5-.3.8-1.1 1.5-1.8 1.5-.8 0-2.2.9-3.2 2.1-1.5 1.8-2.4 2-6.4 1.4-4.8-.7-18.1-4.9-21.6-6.7-4.3-2.3-11-9.6-13.6-14.8-4.4-8.8-4.5-9.6-1.5-13.2 2.6-3.1 2.6-3.1.7-5.1-2.2-2.2-4.2-1.6-4.2 1.3 0 1.1-.9 2.4-2 3-1.7.9-2.9.6-6.2-1.2-5.3-3-7.8-7.7-7.8-14.7 0-4.9.3-5.7 4-9.3 5.3-5.4 7.6-4.9 9.9 2 2.4 7.1 6.1 10.8 14.8 14.8 8 3.8 10.7 4.1 18 1.9 6.3-1.9 12.3-8 12.3-12.5 0-4.2-1.5-3.7-4.5 1.4-1.8 3.1-4 5.1-7.1 6.7-4.2 2-5 2.1-10.5.9-10.8-2.3-18.9-9.4-18.9-16.6 0-1.7.7-3.7 1.5-4.4 3-2.4.4-3.2-8.4-2.6-4.7.4-13.1.7-18.5.8-8.5.1-10.1-.2-11.2-1.7-1.3-1.7-1.7-1.6-8.5 1.5-7 3.2-7.7 3.3-25.7 4.1-17.9.9-20.3 1.2-18.9 2.5 1.3 1.3 33.2.5 38.2-1 5.3-1.6 31.2-3.3 34-2.3 1.4.6 1.3 1.2-1.2 4.9-1.6 2.4-3.3 5.2-3.9 6.2-.6 1.1-3.1 2.4-5.9 3.2-11.6 2.9-16.2 5.3-21.7 11.3-5.4 5.9-8.3 11.8-11.3 23.4-2.6 9.9-2.1 15.8 3 33.7 3 10.7 20.3 24.9 34.1 28 7.2 1.6 14.7 1.4 18.4-.5 3.2-1.7 3.4-1.6 4.9.2 3.7 4.6 7.9 6.4 14.9 6.6 5.4.1 7.7-.4 11.8-2.6 9.1-4.7 14.9-11 16.3-17.9.5-2.3 1.8-3.6 6.1-5.9 10-5.4 15.2-13.9 13.1-21.4-.5-2.1-.8-4.1-.6-4.5.3-.4 2.9-1.9 5.8-3.3 11.4-5.4 21.4-17.7 23.2-28.4.4-2.4 1-4.5 1.5-4.8.4-.3 3 .5 5.6 1.7 3.8 1.7 7.1 2.2 14.9 2.4l10 .1.3 3.5c.4 4.6-1.5 9.5-3 8-1.8-1.8-2.3-1.5-5.2 2.8-3.1 4.7-3.1 5-.8 5 1.3.1 1 .6-1.3 2.6-5.2 4.5-11.3 6.6-20.1 7.2-7.1.4-8.7.2-11.6-1.6-3.4-2.1-6.8-1.6-5.3.8 2.7 4.4 16.9 5.3 27.7 1.8 13-4.2 23.5-15.8 24.8-27.2.3-3 1.1-5.2 2-5.6 11.5-5.1 23.9-12.3 29.5-16.9 8.2-6.7 12.2-13.8 16.2-28.5 2.7-10.3 3.4-26.9 1.3-34.6-1.8-6.9-10-23-13.9-27.3-3.6-4-11-8.3-15.2-8.9-1.3-.2-2.9-.7-3.6-1.1-1.8-1.1-.5-3.6 1.7-3 2.5.7 9-5.4 11.7-10.9 1.2-2.4 3-7.7 3.9-11.9 1.5-6.9 1.5-8.1 0-15.1-.8-4.2-2.5-9.7-3.7-12.3-3.3-7.1-13.8-15.2-20.6-15.9-2.6-.3-2.6-.3-2.7-10.2-.1-12.6-2.1-16.9-12.6-27.5-8.2-8.3-13.6-10.9-22.4-10.9-2.5 0-4.6-.4-4.6-1 0-1.3-7.9-5.8-14.3-8-3-1.1-9.6-2.4-14.8-3.1-5.5-.7-10.4-1.9-11.9-2.9-1.4-.9-4.3-2.3-6.5-3-2.2-.7-6.2-2.4-8.8-3.7-4-2-4.8-2.8-4.4-4.5.4-1.2-.3-3.2-1.6-5-1.8-2.5-2.2-4.3-2.2-10.8 0-4.3-.3-8.1-.6-8.5-.8-.7-2.9 5-2.9 7.7 0 1.1-.4 1.6-1 1.3-.5-.3-1-2.8-1-5.4 0-4 .3-5 2-5.4 1.7-.4 2-1.4 2-5.9 0-4 .6-6.2 2.5-9 2.9-4.3 3-4.8 1-4.8-.8 0-1.5-.4-1.5-.9 0-1.5 8.1-10.6 9.8-11 .8-.1 2.9-1.2 4.6-2.2 1.7-1 4.3-1.9 5.8-1.9s2.9-.4 3.2-.9c.3-.5 3.2-1.1 6.3-1.4 3.2-.4 8.1-.9 11-1.3 4.6-.6 5.9-.3 12.5 3 10.1 5 14.3 8.7 17.9 15.8 5.7 11.4 4.9 23.5-2.1 30.3-2.9 2.9-4.8 3.8-8.3 4.2-2.5.3-5.6.3-6.9 0-2.7-.7-6.1-5.8-5.2-8 .7-1.8-.9-2.9-3-2.1-3.4 1.3-2.7 7.3 1.4 11.4 3 3 12.1 2.8 20.5-.7 6.1-2.5 6.7-2.6 12-1.3 5.7 1.4 7.3 2.4 5.5 3.5-1.7 1-1.1 2.3 1.3 3.1 4.6 1.4 10.9 5.6 9.8 6.7-.6.6 0 2.2 1.9 4.6 5.2 6.6 7 17.3 4.4 25.8-.9 3.2 1.5 3 4.4-.5l2.3-2.7-.6 4c-.8 5-2.9 9-5.6 10.9-2.8 1.9-1.6 4 1.4 2.5 1.2-.6 3.2-2.1 4.4-3.2 2-1.7 2.5-1.8 3.9-.6 1 .8 2.5 2.7 3.5 4.3 1.7 2.7 1.7 3.1.2 4.1-1.5 1.1-1.5 1.5.1 5 1.4 2.9 1.7 5.2 1.3 9.6-.5 4.3-.3 6 .8 6.9 1 .9 1.1 1.8.4 3.7-.6 1.7-.6 3 0 3.6 3 3 7.6-9.6 6.9-18.9-.5-7.4-4.9-16.4-10.1-20.9l-3.8-3.3 1.2-4.7c3.3-13.2-6.5-34.8-18.7-41-2.2-1.1-4.5-2.5-5.2-3.2-.7-.7-4-1.7-7.3-2.4-4.8-.9-6-1.5-5.5-2.8.2-.9 1.2-3.5 2-5.8 3.2-8.6-.3-22.6-7.7-31-4.9-5.6-16.7-12.4-23.2-13.5-1.8-.3-2-1.1-2.1-7.3-.2-8.8-2.4-14.6-7.2-18.1-5.5-4-8.5-7.4-11.5-12.6-1.5-2.5-3.9-5.6-5.4-6.8-8.4-6.6-20.9-8.4-32.5-4.5zm12.6 2.3c3.3 2.8 9.4 4.6 11.1 3.2 2.4-2 10 4.8 11.9 10.7.6 2 .2 2.2-4.1 2.9-7 1-20.9 8.1-26.5 13.5-5.7 5.5-9.9 14.1-10.2 20.9-.1 5.8.5 6.6 3.6 4.6 1.6-1.1 3.1-3.9 4.7-8.8 1.3-4 3.2-8.7 4.2-10.4 1-1.7 1.9-4 1.9-5.2 0-1.4 1.7-2.9 6.3-5.2 3.4-1.8 7.3-3.9 8.7-4.6 3.4-2 13.4-1.4 18.5 1.1 5.4 2.7 8.9 9 9 16.3 0 6.1-1.2 7.5-7.8 9.3-5.4 1.4-11.8-.7-13.1-4.4-1.4-3.8 1.2-6.5 4.2-4.6 1.7 1.1 2.4 1.1 3.4.1 2-2-.4-4.7-4.4-5-7.5-.6-11.6 8.1-6.3 13.4 1.4 1.4 2.5 2.7 2.5 2.9 0 .2-3.4 2-7.5 4-11.1 5.5-17.4 13.6-20.6 26.5-1.7 7-1.7 19.4 0 24.3.7 2.1 1.1 4.1.7 4.4-.3.3-2.1.2-3.9-.1-2.5-.5-5.2-2.4-9.3-6.6-6-6.2-8.4-10.4-8.4-15 0-3.4-2.6-6.1-3.6-3.6-.3.9-.4 2.9-.2 4.6.2 1.6.1 2.7-.3 2.4-1.5-.9-4-10.1-4.5-16.4-.8-9.3-1.1-10-3.4-7l-2 2.5v-8c0-5.9.6-9.2 2-12.4 1.1-2.4 1.8-4.6 1.5-4.9-.8-.9-3.8 2.2-5.2 5.5-.7 1.8-1.6 3.3-1.9 3.3-.6 0-.2-2.7 1.8-11.3.5-2.6 2.5-7 4.4-9.6 3.5-5.3 3.5-7-.3-4.6-2.7 1.8-2.8 1.4-.8-2.4 1.6-3.2 8.7-8.6 16.5-12.7 2.7-1.4 5-3 5-3.5 0-1.2-.5-1.1-4.7.6-1.9.8-3.8 1.5-4.1 1.5-1.4 0 3.3-3.9 5.6-4.8 10.7-3.8 13.6-4.4 17.7-3.9 4.9.7 6.7-.6 3.4-2.4-1.7-.9-1.9-1.3-.8-2 2-1.3 3-1.1 5.3.9zm-43.5 79.7v3l-1.5-2.8c-1.7-3.1-1.1-7.4.6-4.7.6.8 1 2.8.9 4.5zm12 19.2c1.3 2.8 1.3 2.8-.8.9-2.2-2-2.7-3.6-1.3-3.6.5 0 1.4 1.2 2.1 2.7zm66.1 34.4c10.5 1.5 19.6 5.6 26.3 12.1 5.5 5.4 7.2 6 6.4 2.2-.4-2.5-.3-2.6 2.9-2.1 7.8 1.3 19 9.8 22.5 17.1.7 1.5.3 1.3-1.3-.7-4.1-4.8-7.4-2.8-3.7 2.3 2.2 2.9 4.9 4 4.9 2 0-.6.5-1 1-1 1.2 0 2.4 3 3.4 8.3.7 3.7.6 3.7-1.8 3.1-2.5-.6-2.6-.4-2.6 3.3 0 8.8-5.9 22.9-10.4 24.6-1.7.7-4.8 6.6-4 7.8 1 1.7 4.9.8 9.5-2.1 3.1-1.9 6.2-5.2 9-9.5 4.2-6.4 4.5-6.6 7.8-6.1 3 .5 7.1 2.8 12.1 6.9 2 1.6 5.3 6.7 4.7 7.3-.2.3-1-.2-1.7-1.1-.7-.8-1.9-1.5-2.6-1.5-1.7 0-1.9 2.6-.3 3.6.6.3 1.7 2.2 2.5 4 .9 2.3 2.1 3.4 3.4 3.4 1.1 0 2 .6 2 1.2 0 .7.3 2.9.6 4.9.5 3 .3 3.7-1.4 4.1-1.4.4-2.1 1.8-2.6 5.3-1 6.1-3.2 12.4-5.4 14.8-.9 1.1-1.7 2.8-1.7 4 0 4.2-2.3 2.7-3-2-.4-2.6-2-6.9-3.6-9.6-1.6-2.6-2.9-5.2-2.9-5.7 0-1.2-9.4-10.6-14.2-14.1-9-6.5-23.2-7.6-34-2.6-3.1 1.4-6.6 3.5-7.8 4.7l-2.1 2.1-3.5-3c-1.9-1.7-5-3.8-6.9-4.6-4.1-1.6-4.4-2.8-1.2-4.2 7.1-3.3 13.7-13 13.7-20.5 0-5.8-3.7-14.4-7.5-17.6-5.4-4.4-12.5-6.6-17.3-5.3-5.6 1.6-12.1 7.7-12.8 12.2-1.1 6.9 6.9 12.7 13.7 9.9 4.1-1.8 3.1-3.5-1.8-3.2-3.3.3-4.4-.1-5.7-2-2.5-3.6-2-7.3 1.5-10.2 4-3.4 7.2-4.1 12-2.7 4.5 1.3 5.1 2.8 1.4 3.3-3.7.4-3.2 2.2.9 3.1 2 .5 4.7 2.2 6.1 3.9 2.4 2.9 2.5 3.2.9 4.9-1.2 1.3-1.4 2.2-.7 3.1 1.5 1.9 2.3 9.9 1.3 11.9-.5.9-2.1 1.9-3.4 2.3-1.4.3-2.7 1.4-3 2.4-.9 2.8-7.2 5.8-15.4 7.5-6.5 1.4-7.9 1.4-11.5.1-12.4-4.4-20.7-11.7-25.7-22.6-2.6-5.9-3-7.9-3-15.8 0-7.1.5-10.3 2.5-15.6 3.6-9.5 6.2-13.4 9-13.4 1.7 0 3.2-1.4 5.5-5 2.9-4.5 5.6-7 7.5-7 .4 0 0 1.1-.9 2.5-2 3-2 3.5-.1 3.5.8 0 2.5-1.6 3.7-3.5 1.3-1.9 3-3.5 3.9-3.5.9 0 1.9-.3 2.3-.8 1.1-1.1 9.8-3 12.1-2.7 1.1.2 5.8.9 10.5 1.6zm1.6 88.1c2.8 1.9 5.9 5.1 7.2 7.5 1.6 2.9 2.8 4 3.8 3.6 1.4-.5 1.5-1.6.3-4.8-.2-.6 0-1.1.4-1.2.5 0 2.1-1.3 3.7-2.8 5.3-5 18.9-6.9 28.8-4 5.7 1.7 16.5 10.8 19.2 16.2.8 1.5 2.2 3.9 3.1 5.3 3.6 5.3 4.4 10.6 3 19.8-1.5 10.7-4 16.4-9.3 21.9-6 6.1-13.7 9-22.6 8.4-1.9-.1-2.2-.5-1.7-2.2.5-1.5.2-2.2-1.4-2.6-1.1-.3-2.9-2.1-4.1-4-2.1-3.6-3.9-3.6-4.1 0-.1 1.8-.2 1.6-1-.8-.6-2.2-.4-3.3.8-4.7.8-.9 1.3-2.4.9-3.3-1.2-3.2-7.6 2.7-7.6 7 0 3.3 3.6 8.3 8.2 11.1 7.6 4.8 17.9 4.1 28.8-1.9 7.1-3.9 14-12 14-16.5 0-1.1.7-2.5 1.5-3.2.8-.7 1.5-2 1.5-3 0-3.8 2.4-4.1 8.6-1.1 6.8 3.3 11.7 8.6 15.8 17.4 2.4 5.2 2.6 6 1.2 7-1.4 1-1.4 2.1-.5 7.6 1.2 7.8 1.5 8.4 4.1 7.5 2-.6 2.1-.4 1.3 5.2-.4 3.3-.9 8.8-1.1 12.4-.4 7.5-2.2 12.7-7 20.8-4.1 6.7-5.5 8.3-4.7 5.3.9-3.5-2.3-2.6-5.1 1.5-2.8 4.2-11.2 11.5-17 14.8-6.1 3.6-15.8 5.7-22.3 5-4.2-.4-5.4-.3-5.1.7 1.1 3.3 13.9 3.4 22.2.2 4.9-1.9 13.6-7.3 16.2-10 1.1-1.1 3.9-3.7 6.3-5.9l4.4-3.9-2.7 4.2c-4.9 7.4-18.7 16.2-31.1 19.8-6.6 1.9-20.6 1.6-24.7-.6-3.6-1.9-8.8-6.3-8.8-7.4 0-.6-1.5-4.2-3.4-8-3.5-7-8.2-12.7-14.6-17.6l-3.5-2.7 2.2-2.4c2.8-3 6-10.2 6.9-15.6.6-3.5.2-4.8-2-8.2-1.6-2.4-3.4-4-4.6-4-2.6 0-2.5.8.3 3.8 3.2 3.4 2.8 10.4-.9 17.3-5.7 10.4-15.2 14.4-25.6 10.8-8.7-3.1-15.9-8.8-19.1-15.1-4.2-8.2-5.4-18.3-3.3-26.1 2.9-10.4 13.4-25.7 17.7-25.7 1.6 0 16.5-15.2 18.3-18.7 2.6-5.2 1.2-10.9-3.9-16.1-5-5-8.3-5.4-13.8-1.7-2.9 2-3.7 3.2-3.7 5.5 0 5.7 6.8 9.1 11.5 5.7 2.5-1.9 1.1-4.1-1.6-2.6-3 1.6-5.1.4-4.7-2.8.7-5.7 10.9-3.9 12.4 2.2 1 4.1-.2 11.4-2.2 13.6-3.9 4.3-9.3 6.2-16 5.6-10.8-.8-15.6-6.2-15.9-17.6-.1-4-.6-6.6-1.3-6.9-.7-.2-1.2-.8-1.2-1.2 0-1.6 13.4-14.7 15.8-15.4 1.2-.4 2.2-1.4 2.2-2.2 0-1 1.4-1.4 5.3-1.5 2.8-.1 6.3-.5 7.7-.9 1.4-.4 4.8-.8 7.6-.9 4.3-.1 6 .5 10 3.1zm-89.8 148.3c1.8 5.4 5.7 9.3 11 10.8 4 1.2 4.5 1.7 6.2 6.5 3.5 9.8 13.1 20.6 21.8 24.4 11.2 4.8 21.9 6.3 30.9 4.2 4.1-.9 6.9-1.2 7.5-.6 1.7 1.7 1.1 9.7-1 13.1-2.7 4.4-7.6 7.8-12.5 8.6-5.6 1-5.7 1.1-4.4 4.4.9 2.4.7 3.5-1.6 7.3-6.1 10.5-22.4 15.7-30.5 9.8-1.7-1.3-3.2-2.8-3.2-3.3s1.3-2.5 3-4.3c3.6-4.2 6-12.2 5.7-19.1-.5-8.5-5.2-13.3-13.2-13.3-6.8 0-13.8 6.1-10.6 9.3.8.8 2 .2 4.5-2.2 3.1-3 3.9-3.3 7.3-2.8 5.2.9 7.3 3.7 7.3 10.1 0 8.5-1.6 12.2-6.9 16.4-7.6 6-10 6.7-18.2 5.2-15.4-2.7-27.8-12.2-34.5-26.4-3-6.4-3.6-8.8-4.1-17-.5-8.1-.2-10.8 1.8-17.8 4-14.2 8.2-19.8 18.6-24.9 3.9-1.9 7.1-2.8 9.8-2.6 3.7.2 4.1.5 5.3 4.2z"/><path d="M361.9 297c-3.4 1-13.3 8.2-15.3 11.2-2.9 4.1.2 3.1 6.6-2.1 3.4-2.8 8-5.7 10.2-6.4 6.9-2.3 5.4-4.8-1.5-2.7zM378 300.4c0 .7.7 1.9 1.5 2.6 1.2 1 1.6.9 2.1-.3.3-.9.3-2.1-.1-2.7-.9-1.5-3.5-1.2-3.5.4zM419.6 435.8c-.2.4.4 3.4 1.5 6.6 1.4 4.1 2 8.5 2 14.8 0 10.7-1.8 17-6.7 23.4-2.9 3.8-3.1 4.4-1.5 4.4 2.3 0 6.3-4.6 9.9-11.4 2.5-4.8 2.7-5.9 2.6-17.6 0-10.9-.3-13.1-2.2-16.8-2.1-3.9-4.4-5.3-5.6-3.4zM483.3 591.2c-1 1.1-4 11-4.6 14.7-.4 2.4 2.1 2.3 3.7-.2 3.6-5.4 4.4-18.8.9-14.5zM125.4 305.9c-.5.3-1 5.2-1.2 10.9-.3 9.1-.1 10.7 1.8 13.8 2.7 4.2 4.8 5.4 9.8 5.4 4 0 9.2-3 9.2-5.3 0-.6 1-2.1 2.2-3.4 4.9-5.2.6-14.1-7.9-16.2-2.6-.7-5.7-2-6.8-3-2.3-2.1-5.9-3.2-7.1-2.2zm11.5 9.1c4.7 0 9.1 7.2 6.6 10.7-1.3 1.7-1.5 1.7-3.5-.5-1.7-1.8-2.5-2.1-3.6-1.1-2 1.6-1.8 2.6 1.1 5.5 1.9 1.9 2.2 2.6 1.1 3-2.1.8-5.5-1.3-7.6-4.9-2-3.3-2.5-8-1.4-13.6l.6-3.1 2.6 2c1.3 1.1 3.2 2 4.1 2zM87.5 336.7c.4 1.6.7 5.7.6 9.2-.2 5.3.2 7 2.4 10.3 4.6 7 10.4 6.9 17.1-.3 4.1-4.4 4.8-7 3-11.2-1.7-4.2-4-5.6-10-6.2-2.5-.3-6-1.4-7.8-2.5-4.7-2.8-6.2-2.6-5.3.7zm15.6 5.9c2.8.8 5.2 8.8 3.3 10.7-.4.4-2-.1-3.5-1-2.7-1.6-3-1.6-4.5-.1s-1.4 1.8.5 3.7c2.3 2.3 2.6 3.1 1.1 3.1-.5 0-2.3-1.9-4-4.2-2.2-3-3-5.2-3-8.3 0-2.3.3-4.5.7-4.9.7-.7 5.5-.2 9.4 1zM390 348.9c-6.1 1.3-9.5 3.7-12.3 8.9-4.4 8.1-3.5 14.1 3.2 21.4 4.4 4.8 5.1 5.1 10.4 5.6 9.1.7 10.4-.8 2.2-2.7-6.2-1.5-7.3-2.1-10.2-5.9-2.8-3.7-3.3-5.2-3.3-9.8 0-3.4.7-6.9 1.9-9.3 2.1-4 4.8-6.8 5.8-5.8.3.4 1.4.2 2.5-.4 4.3-2.3 11.8 2 11.8 6.8 0 2.6-2.5 3.2-3.4.8-.7-1.9-3.5-1.9-4.2 0-1.6 4.2 7.6 6.4 10.9 2.7 2.1-2.3 2.1-4.5.2-8.3-2.4-4.6-6.9-5.7-15.5-4zM247 366.8c-3.9 1.9-5.9 6.1-5.9 12.9-.1 5.9 3.8 10.2 11.3 12.6 5.1 1.5 6 1.5 9.2.2 6.5-2.7 8.1-12.6 2.6-16.3-1.4-.9-4-3.2-5.8-5-1.8-1.7-3.6-3.2-4-3.2-.4 0-1.5-.7-2.4-1.5-1.4-1.3-2-1.2-5 .3zm11.9 11.7c3.3 1 4.1 3.6 2.5 7.4-1.6 3.9-3.5 3.7-4.6-.7-.5-1.7-1.3-3.4-1.9-3.7-1.6-1-3.9 1.5-3.9 4.4l-.1 2.6-1.9-2.4c-3.9-4.6-3.8-11.4 0-12.4 1.1-.3 2-1.3 2-2.3 0-1.1 1-.3 2.9 2.4 1.7 2.2 3.9 4.3 5 4.7zM133.6 370.9c-1 1.1-2.3 4.4-3 7.3-2 8.6 1.7 16.6 8.4 18.3 3 .7 10.9-3.9 13.5-7.9 1.4-2.1 1.5-2.9.3-5.3-.7-1.5-2.5-3.3-4-4-1.6-.7-4-1.9-5.5-2.6-1.4-.6-3.4-2.5-4.3-4.1-2-3.8-3.2-4.1-5.4-1.7zm4.2 8.3c.7.7 3.1 1.8 5.4 2.3 4.4 1.1 7.2 4.2 5.9 6.3-.6 1-1.3 1.1-3.4.1-3.4-1.5-6.1-.5-5.4 2.1.3 1.1.2 2-.3 2-1.5 0-4-5.1-4.7-9.5-.6-4.6.2-5.6 2.5-3.3zM334 402.9c0 1.5 2.9 3.3 4.1 2.5.9-.5.7-1.1-.6-2.1-2.2-1.5-3.5-1.7-3.5-.4zM251.6 479.2c.9 2.9 8.2 12.8 9.4 12.8 2 0 1.8-1.9-.7-5.6-5.2-7.8-10.3-12-8.7-7.2zM264.2 494.7c2.2 5.1 11.7 18.2 17 23.5 7.9 7.9 11.4 13.6 12.3 20 .6 4.1 3.3 8.7 3.6 6.2.1-.5.2-1.8.3-2.9.1-2.3 2.3-2.4 9.6-.5 2.5.7 6.8 1.4 9.5 1.6l5 .3-4-1c-10.3-2.5-12.3-3.3-16.8-6.1-2.9-1.8-5.6-4.6-6.7-6.9-1.1-2-4.3-6.4-7.2-9.6-7.1-7.8-13.7-15.9-17.2-21.1-1.6-2.3-3.5-4.2-4.3-4.2-.8 0-1.3.3-1.1.7zM324.8 542.7c.7.3 1.6.2 1.9-.1.4-.3-.2-.6-1.3-.5-1.1 0-1.4.3-.6.6zM182.1 556.4c-1.6 1.9-1 5.1.9 5.1 1.7 0 2.6-4.3 1.2-5.7-.5-.5-1.4-.3-2.1.6zM238 558.9c0 1.9 3.5 3.9 4.7 2.7.7-.7-2.6-4.6-3.9-4.6-.4 0-.8.9-.8 1.9zM180 567.4c0 1.7 1.6 2.3 10.3 4.2 8 1.6 21.2 1.9 18.5.4-.9-.6-6.2-1.7-11.6-2.4-5.5-.8-10.9-1.9-12-2.5-2.8-1.5-5.2-1.4-5.2.3zM250 567.9c0 1.8 3.7 5.4 4.8 4.7.9-.5.7-1.4-.5-3.1-1.8-2.4-4.3-3.3-4.3-1.6zM181.5 580c-.6 2 1 6 2.5 6 .5 0 .8-1.8.8-4 0-4.3-2.2-5.6-3.3-2zM336.9 614c-7.7.7-10.8 1.7-9.2 2.9.4.3 5.7.5 11.6.3 9.5-.3 10.8-.5 10.5-2-.4-2-2.6-2.2-12.9-1.2zM82 641.1c-2.5 2.8-3 4.2-3 8.5 0 4.9-.1 5.2-3 5.7-2.4.5-3 1.2-3 3.2 0 1.5-.9 3.1-2.4 4-2.9 1.9-4.6 6.3-4.6 11.6 0 3-.6 4.2-3 6.1-2.1 1.6-3.2 3.5-3.5 5.8-.3 1.8-1.1 4-2 5-.8.9-1.7 3.6-1.9 6.1-.7 6.2-3.9 14.8-6.3 16.4-1.4 1-4.7 1.4-10.4 1.4-4.6 0-9.7 0-11.4.1-1.6.1-5.9-.8-9.3-2l-6.4-2.2-2.6 2.1c-1.5 1.2-4.2 2.9-5.9 3.8L0 718.4v12.2c0 11 .2 12.3 1.8 12.2 5.6-.1 16.3 1.3 19.7 2.6l4 1.5-7.8.1c-8.1 0-14.2 2-13.4 4.3.3.7 1.1 1 1.8.8.8-.3 5.4-.5 10.4-.6 15.3-.2 20.9-1.3 27.4-5.5 3.2-2.1 7.5-4.6 9.6-5.6 2.1-1 5.2-3.3 6.9-5.2 6.2-6.8 10.2-10.4 13.1-11.9 7.8-4.1 11.9-9.4 6.1-7.9-1.9.5-2 .4-.3-.8.9-.8 3.5-1.6 5.7-2 3.2-.5 4-1 4-2.7 0-2-.4-2.1-4.1-1.5-7.1 1.1-14.6 5.2-16.5 8.8-.9 1.8-4.8 6.6-8.5 10.6-3.8 3.9-6.9 7.6-6.9 8.2 0 .5-2.2 2.1-4.8 3.4-2.7 1.3-5.4 3.2-6.1 4-.8.9-2.5 1.6-3.8 1.6-2.2 0-2.4-.2-1.3-1.5 2-2.4 0-3.7-3.8-2.4-3.8 1.3-6.7.9-6.7-1.1 0-1.2-1.4-1.5-7-1.3-6.9.2-6.9.2-2.5-.9 15.2-3.5 21-5.3 25.2-7.8 2.5-1.6 4.8-2.6 5.1-2.3 1.5 1.4 5.2-1.6 11.6-9.5C70.8 703.8 71.5 703 72.6 703c.6 0 3.3-1.6 6-3.5 3.9-2.8 5.8-3.5 9.6-3.5 5.9 0 13.2 3.1 15.4 6.5 1 1.5 2.7 3.1 3.8 3.6 4.4 2 6.6 3.6 8.6 6.2 2.5 3.1 4.5 3.4 5.9.9.9-1.5 1.3-1.3 3.8 1.8 4 5.1 9.1 9.8 13.7 12.7 2.3 1.4 5.4 4.1 6.9 5.9 1.6 1.9 3.5 3.4 4.3 3.4.8 0 2.7 1.2 4.2 2.7 3.6 3.7 8.6 5.9 15.4 6.7 3 .4 8 1.4 10.9 2.1 3 .8 8.1 1.5 11.4 1.5 4.6 0 7.4.7 12 3 3.3 1.6 6.7 3 7.7 3 .9 0 4 .9 7 1.9 6.4 2.4 28.4 4 38.4 2.8 5.2-.6 7.7-.4 10.6.8 2.1.8 6.9 1.5 10.6 1.5 8.7.1 10.7 1.3 10.8 6.6 0 2.8.9 5.2 2.8 7.6 3.2 4.3 4.5 4.9 11.1 5.7 3.9.5 5 1 5 2.4 0 1.7-1.3 1.8-20 1.7-11-.1-25.2-.5-31.5-1-15.2-1.1-24-.1-24 2.5 0 1.7 3.3 3.2 9.5 4.5 2.2.4 3.3.8 2.5.9-.8.1-6.4.6-12.5 1.1-10.6.9-24.6 1.4-80 2.8-14.3.4-54.5.7-89.2.7-57.7 0-63.3.1-63.3 1.6 0 1.4 2.6 1.7 22.3 2 34.5.6 58 .5 99.7-.5 48.2-1.1 62.7-1.2 81-.6 14.4.5 40.9-1.2 48.2-3.1 2-.5 4-1.5 4.4-2.1 1.2-1.8-3.2-4.6-8.6-5.3-2.7-.4-5-1.1-5-1.6 0-1.2 11.2-1.1 21.5 0 4.4.5 16.1 1.2 26 1.6 16.4.7 21.2 1.4 18.8 2.8-1.3.8-12.4 2.7-15.9 2.7-2.2 0-3.6.6-4.2 1.8-1 1.9-.5 4.2.8 4.2.5 0 2.1.5 3.6 1 1.8.7 2.4 1.4 1.7 2.1-1.2 1.2-15.8 3.4-28.3 4.4-11.6.9-101.5 1-163 .1-27.8-.4-62.3-.8-76.8-.9L0 808.5v4.5l27.8.1c15.2 0 31.1.2 35.2.4 4.1.2 71.2.6 149 .9 77.8.3 174.5.9 214.8 1.2l73.2.7V811h-18.1l.3-7.3c.3-8.2-.6-7.7 11.6-6.2l6.2.8v-4.6c0-5.2-.6-5.6-9-6.6-7.8-.9-6.8-2.5 1.8-2.9l7.2-.3v-13.7l-3.1-.6c-1.7-.3-5-.6-7.2-.6-4.9 0-4.3-1 1-1.7 3.7-.5 6.3-1.8 6.3-3.2 0-.4-1.3-2.1-2.9-3.9-2.6-2.8-3.6-3.2-8.3-3.3l-5.3-.1 3.5-1.3c1.9-.7 5.2-1.4 7.3-1.4 2-.1 3.7-.6 3.7-1.1 0-1.2 1-1-8.7-1.7-6.5-.4-8.6-.2-10.5 1.1-2.9 2.1-9.4 2.1-10.2.1-.3-.8-1.5-1.5-2.6-1.5-1.5 0-2-.7-2-2.9 0-3.7 1.4-4.7 7.5-5 2.8-.1 6.5-1.1 8.4-2.2 3.6-2.1 6.1-1.9 6.1.6 0 1.9 1.1 1.9 5.5.1 1.8-.8 3.6-1.2 3.9-.9.3.3.8-.2 1.2-1.1.7-1.9 3.5-2.1 5.2-.4.9.9 1.2.6 1.2-1.5 0-3.7-3.8-6.1-7.4-4.7-1.5.5-2.9 1.7-3.2 2.5-.9 2.2-2.7 1.8-5.4-1-1.3-1.4-2.8-2.5-3.2-2.5-.5 0-2.5 1.6-4.3 3.6-3.3 3.5-3.6 3.6-8.7 2.9-3.4-.4-6.2-1.5-7.8-3-6.4-5.8-11.5-6.1-15.8-.8-2.8 3.5-3.2 3.7-8.5 3.6-3-.1-6.5-.7-7.7-1.3-1.1-.6-5.3-1.4-9.3-1.7-7.1-.5-12.9-2.3-15.5-5-2.1-2-3.5-1.6-7.2 2.2-6.3 6.4-11.5 8.1-30 9.2-19.1 1.2-29.8.8-32.2-1.4-1.4-1.3-2.1-1.2-5.9.7-4 2.1-4.8 2.1-12.9 1.1-4.7-.6-11.1-1.1-14.1-1.1s-7.2-.6-9.4-1.2c-2.2-.7-8-1.3-13-1.4-9.9-.2-19.5-2.9-30.3-8.3-7.1-3.6-11.1-3.9-13.7-1.1-1 1.1-2.8 2-4 2-1.3 0-2.8.6-3.4 1.4-.8.9-4.4 1.6-10.4 2-12 .9-14.7 1.5-14.7 3.1 0 2.1 22.6.9 27-1.5 1-.6 2.7-1 3.8-1 1.1 0 3.1-.9 4.6-2.1l2.6-2.1 6.6 3.1c3.7 1.7 7.3 3.1 8.1 3.1.7 0 4.3 1.3 7.8 3 6.1 2.8 6.8 3 15.2 2.4 7.2-.6 9.5-.4 12.1 1 1.8.9 3.2 2.1 3.2 2.7 0 .5 1.4.2 3.1-.6 1.7-.9 3.7-1.4 4.4-1.2 1.6.7.7 5.7-1.1 5.7-2.8 0-6.7 4.6-6.7 7.9 0 2.8-.3 3.2-2.1 2.7-1.2-.3-5.7-.8-10.1-1.2-4.4-.3-10.4-1.5-13.3-2.6-4.6-1.8-5.5-1.9-8.1-.7-2.3 1.1-5.6 1.3-16.2.6-20.2-1.2-36.8-5.9-38.9-11-.5-1.2-.9-1.6-.9-1-.1.7-.7 1.3-1.5 1.3s-1.6-.6-1.9-1.3c-.3-.9-.7-.9-2 .2-2.1 1.7-11.7.7-19.9-2-3.2-1-6.8-1.9-8.1-1.9-3.4 0-11-3.5-12.3-5.7-.9-1.5-.7-1.8 1.5-2 1.4 0 2.8.3 3.1.8 1.1 1.6 33.6 5.7 36.6 4.5 3.7-1.4-.7-2.9-9.8-3.4-5.1-.2-10.5-1.1-12-1.8-1.5-.8-3.6-1.4-4.8-1.4-1.2 0-3.2-1.2-4.5-2.6-2-2.1-2.7-2.4-4.4-1.4-1.2.6-4.5 1.1-7.4 1.1-4.7.1-6.2-.5-12.3-4.4-3.9-2.5-8.2-6.3-9.7-8.4-4.4-6.3-7.1-9.1-9.8-10.2-2.4-.9-2.6-1.2-2.1-6.4.3-3.4 0-5.7-.7-6.1-.6-.4-1.1-1.6-1.1-2.6s-1.1-2.7-2.5-3.8c-2.1-1.7-2.5-2.8-2.5-7.5 0-3.6-.5-6.1-1.5-7-2.1-2.2-7-3-9.5-1.7-3.1 1.7-3.8.6-4.6-7-.6-6.3-.9-7.2-3.3-8.3-2.1-1-2.5-1.8-2.3-4.2.3-3.5-3.2-10.1-6.5-12.2-2.1-1.4-2.4-1.3-5.3 1.8zm6.1 3.5c1 1.2 1.3 4.2 1.1 10.6-.3 7 0 9.5 1.3 11.4.9 1.4 2.2 2.3 2.8 2.1.7-.2 1.7.9 2.4 2.5.7 1.5 2 3.1 3 3.5 1 .3 2.6 1.3 3.6 2.2 1.7 1.4 2 1.4 3.6-.8 2.7-3.5 4.1-1.8 4.1 5 0 5 .4 6.4 2.3 8.2 1.3 1.2 2.9 3.2 3.5 4.4 1.4 2.6 1.6 8 .3 8.7-1.9 1.2-7-.7-9-3.5-1.8-2.4-1.9-3.2-.9-4.8.9-1.5.8-2.4-.5-4.5-1-1.4-2.7-2.6-3.8-2.6-2.8 0-5.9 1.8-5.9 3.4 0 .9-2.7 1.7-8.2 2.4-6.9 1-9.2 1.9-14.3 5.3-4.7 3.2-6.1 3.7-6.3 2.5-.5-2.2-1.6-2-5 .9-3 2.5-4.9 2.2-3.1-.5.5-.8.9-2.6.9-4.1 0-1.4.5-3 1.1-3.6.7-.7 1.7-3.3 2.4-6 1.3-5 2.8-6 3.3-2.1.6 4.4 1.1 5.1 2.6 3.8 1.1-.9 1.3-2.8 1-7.9-.6-6.7-.5-6.9 2.4-8.9 2.2-1.6 3.2-1.8 4-1 .9.9 1.5.9 2.3.1 1.6-1.6.3-4.8-1.4-3.6-.6.6-2.5.9-4.1.9-3.7-.1-4.8-2.6-1.2-2.6 1.5 0 3-.8 3.6-2 .6-1.1 2-2 3-2 1.3 0 2-.7 2-1.9 0-1 .6-2.4 1.4-3 1-.8 1.2-2.4.9-5.1-1-7.4 1.5-11.3 4.8-7.4zm-32.8 71.7c-1 1.7-3.6 4.1-5.8 5.2-2.2 1.1-6 3.2-8.5 4.6-4.9 2.9-12.3 5.4-18.3 6.3-5 .7-3.8-1 1.3-1.9 2.3-.4 6.9-2.6 10.5-5.1C38 723 42 721 43.3 721c1.3 0 3.6-.9 5-2s2.9-2 3.3-2c1.6 0 4.4-3.4 4.5-5.4.1-1.7.2-1.8.6-.3.2.9-.4 3.2-1.4 5zm-27.4 3c2.8-.8 5.8-1.2 6.8-.8 1.6.6 1.4 1-1.4 3.3-4 3.5-11.5 5.6-27.5 7.9l-3.8.5v-5.1c0-5 .1-5.1 2.5-4.5 1.6.4 2.5.2 2.5-.6 0-.7.7-1 1.5-.6 1.1.4 1.5-.1 1.5-1.9v-2.4l6.5 2.9c6.4 2.9 6.6 2.9 11.4 1.3zM14.5 733c-.3.5-1.4 1-2.3 1-1.5 0-1.5-.2-.2-1 2-1.3 3.3-1.3 2.5 0zm387.9 1.9c1.9 2.1 8 3.5 13.3 3.2 4-.2 5.2 1.6 2.4 3.6-1.4.9-2.1 2.3-1.9 3.6.2 1.7-.3 2.3-2.1 2.5-1.3.2-4.3 2.4-6.8 4.9-4.3 4.5-4.5 4.5-9.1 3.8-2.6-.4-6.4-.9-8.5-1-2.1-.2-4.6-1-5.5-1.8-3-2.8-10.3-4.6-14.8-3.8-2.2.4-4.6 1.1-5.2 1.5-.7.4-3.8.2-7.1-.5-5.5-1-6.3-.9-11.7 1.4-3.3 1.4-8.5 2.7-11.6 3l-5.6.4-1.5-3.8c-1.4-3.6-1.4-3.9.9-6 2.1-2 2.7-2.1 4.8-1 1.8 1 8.1 1.3 26.4 1 13.2-.2 23.8-.7 23.6-1.1-.3-.4.8-.6 2.3-.5 2.8.2 4.1-.6 10.8-7.1 2.2-2.2 4.3-4 4.6-4.1.3 0 1.4.8 2.3 1.8zm54.3 2.3c1.6 1.3 1.7 10 .2 11.5-.8.8-.8 1.7.1 3.2.6 1.2.8 2.6.5 3.1-.3.5.6 1.7 2 2.6 2.8 1.8 3.2 3.6 1.1 5.3-.8.7-1.7 2.4-2.1 3.8-.3 1.5-1.7 3.9-3 5.5s-2.2 3.5-1.9 4.3c.4.8.3 2.3-.1 3.2-.6 1.6-.8 1.5-1.6-.5-.5-1.3-1.7-2.2-3-2.2-1.1 0-3.7-.7-5.6-1.6l-3.4-1.7 2.6-2.7c5.1-5.4 4.3-15.9-1.6-19.4-1.7-1-3.7-3.3-4.5-5.2-1.8-4.4-1.8-4.4 1.2-4.4 2.2 0 2.4.3 1.5 1.4-1 1.2-.6 1.4 2.1 1.3 2.4-.2 3.4-.7 3.6-2.2.2-1.1 1.5-3.4 2.8-5.2 2.2-2.9 2.7-3.1 5.1-2.2 1.5.6 3.3 1.5 4 2.1zm-29.7 3.3c2.2 1.1 3 2.3 3 4.2 0 1.8 1.6 4.2 5.5 8 4.1 4.1 5.5 6.1 5.5 8.3 0 5-1.6 7.8-4.7 8.2-2.7.3-3.1 1.2-2.2 4.6.2.8-.4 1.9-1.4 2.5-1.5 1-2.3.6-5.1-2.7-3.5-4.2-6.3-4.4-7.3-.6-.5 2-1.9 2.5-4.6 1.4-1.2-.4-1.3-1.2-.6-3.7 1.2-4.4 1.3-4.4-2.1-5.6-3-1-3.4-1.6-3.1-6.1.3-3 3.5-6 6.5-6 3.9-.1 5.5-2.2 5.2-7.1-.2-3.8.7-6.9 2.1-6.9.2 0 1.7.7 3.3 1.5zm-109.1 7.1c3.2 2.3 6.3 9.4 4.9 11.2-.9 1-.8 2.2.1 4.7.8 2.4.9 4 .2 5.3-1.2 2.2-.5 3.2 2 3.2 1.8 0 3.6-4 3.1-6.8-.5-2.3 1.8-1.2 2.8 1.3 1.3 3.4-.4 6.9-5.2 10.4-4.4 3.3-10.1 3.5-12.3.4-1.3-1.7-1.4-1.7-3.2 0-2.4 2.1-9.5 1.7-12.3-.8-1.1-1-2.4-3.4-3-5.3-.8-2.9-.6-3.9 1-6 1.1-1.3 2-3.9 2-5.6 0-3.8 2-6.9 4-6.4.9.2 2.2-1.2 3.3-3.5 1.7-3.4 2.2-3.7 6.1-3.7 2.3 0 5.2.7 6.5 1.6zm57.2 7c2.2 2.6 6.1 4.1 12.9 4.8 15 1.5 15.6 1.7 18.9 6.6 2.3 3.5 2.7 4.8 1.9 6.3-1.5 2.9 1.9 5.8 7.5 6.4 4 .5 4.7.9 5.2 3.3.3 1.4.2 3.8-.4 5.2l-.9 2.5-15.9-.3c-8.7-.1-20.5-.7-26.3-1.3-5.8-.6-21.6-1.2-35.2-1.3-17.8-.2-24.8-.6-24.8-1.4 0-1.5 2.3-2.4 5.9-2.4 3.7 0 9.9-6.5 11.5-12.1.9-2.9 1.9-4.5 3.2-4.7 1-.2 2.8-.7 3.9-1.2 4.6-2.2 11.8-4.1 13.2-3.6 1.5.6 4.2-.5 6.5-2.7 5.9-5.6 10.4-7.1 12.9-4.1zm-19.2 1c.7.6.2.8-10.3 4.2-10 3.2-11.6 3.3-11.6.6 0-1 1.2-1.4 3.9-1.4 2.2 0 6.1-1.1 8.8-2.5 4.2-2.1 7.5-2.4 9.2-.9zm116.6 1.4c.4.6-.6 1-2.4 1-1.6 0-3.3-.5-3.6-1-.4-.6.6-1 2.4-1 1.6 0 3.3.4 3.6 1zm6.6 8.1c-.5 3.7-.9 4.2-3.5 4.5-2.8.3-6.6 2.9-6.6 4.6 0 1.9 4.2 4.8 7.1 4.8 1.7 0 2.8.4 2.4 1-.3.5-1.3 1-2.2 1-.9 0-2.6.8-3.7 1.9-2.1 1.8-15.5 3.8-16.9 2.5-.4-.4.5-1.5 1.8-2.6 1.4-1.1 2.5-2.9 2.5-4.1 0-2.9 3-10.7 5.3-13.7 1.2-1.7 3.2-2.7 6-3.1 8.7-1.2 8.4-1.4 7.8 3.2zm11.9-1.6c0 1.6-4.5 2.1-5.4.6-.8-1.2.4-2.1 3.1-2.1 1.4 0 2.3.6 2.3 1.5zm6 9.5c.8.5 1.1 1 .5 1.1-10 1-13.1.7-12-1.2.8-1.2 9.6-1.1 11.5.1zm-18.5 1c-.3.5-1.3 1-2.1 1s-1.2-.5-.9-1c.3-.6 1.3-1 2.1-1s1.2.4.9 1zm-35.4 6.9c3.7 3.3 3.5 3.6-3.9 4.4-2.5.3-4.9 1.3-5.6 2.2-1.7 2.3-5 1.5-5.4-1.3-.4-2.9 1.4-5.2 4.2-5.2 1.2 0 3.1-.7 4.2-1.5 2.6-1.9 2.6-1.9 6.5 1.4zm54.1.3c-.8.8-2.3.8-5.4.1l-4.3-1.1 5.5-.1c4.1-.1 5.1.2 4.2 1.1zm-18.2 3.6c0 1.3-1.2 2.2-2.2 1.6-1-.6-.1-2.4 1.3-2.4.5 0 .9.4.9.8zm-3.1 6.2c1 .5.1.8-2.4.8-2.9 0-4.3.6-5.3 2.1-1.3 1.8-2.4 2.1-8.9 2.1h-7.4l.3-2.7c.2-1.9 1-2.9 2.6-3.3 3.2-.7 19.4 0 21.1 1zm-30.7 2c-.2 1.4-.7 2.8-1 3.1-1.1 1.1-14.5-.5-14.9-1.7-.2-.7 1.7-1.4 4.9-1.8 2.9-.4 6-1.1 6.8-1.6 2.6-1.7 4.5-.7 4.2 2zm50.8-.4c0 1.5-2.7 1.8-7.9.8-4.5-.9-2.9-2.2 2.9-2.2 3.7-.1 5 .3 5 1.4zm-130 2c0 .2-.9.4-2.1.4-1.1 0-1.8-.4-1.4-1 .5-.8 3.5-.3 3.5.6zm44.4-.5c.8.8-7.6 1.7-12.9 1.5-2.2-.1-8.6-.3-14.2-.4-5.7-.1-10.3-.6-10.3-1 0-1 36.5-1 37.4-.1zm9.6-.1c0 .5-1 1-2.2 1-1.9 0-2-.2-.8-1 1.9-1.3 3-1.3 3 0zm57.2 9l.3 8-5 .1c-2.7.1-8.3.2-12.4.3l-7.4.1-.4-5.6-.4-5.6 3.8-.6c7.7-1.3 10-.9 12.3 2.3 3.2 4.4 5 3.9 5-1.4 0-4 .7-5.2 3.2-5.5.3-.1.8 3.5 1 7.9zm-101.3-5.5c.5.2 7.3.5 15.2.5 20.4.1 30.9 1 30.9 2.6 0 .7-.7 1.7-1.6 2.2-3.4 1.9-1 3.6 4.7 3.3 6.2-.3 8.3-1.6 5.7-3.5-4.4-3.2.6-4.6 10.5-3 4.3.8 5 3.3 1.7 6.1-2.7 2.4-2.5 4.3.5 4.3 1.4 0 2.5.4 2.5.8s-4.2.7-9.2.6c-5.1-.1-12.9-.2-17.3-.3-4.4 0-28.2-.2-53-.3-24.7-.1-47.7-.2-51-.3-3.3-.1-10.9-.3-17-.5-10-.2-10.6-.3-6-1.1 8.5-1.6 11-7.9 3.1-7.9-5-.1-1-1.6 6-2.3 5.5-.6 6.2-.4 6.7 1.2.4 1.6 1.3 1.9 6.1 1.7 6.1-.2 9.8-2.2 5.8-3.2-1.2-.4-2.2-1.1-2.2-1.7 0-1 56.2-.3 57.9.8z"/><path d="M84.7 648.6c-.8.8.1 2.4 1.4 2.4.5 0 .9-.7.9-1.5 0-1.5-1.2-2-2.3-.9zM83 669.5c-1 1.2-.9 1.6.5 2.1 1.9.8 4-.9 3.1-2.5-1-1.5-2.1-1.4-3.6.4zM418.5 668c-2.2 1.1-6.6 2.2-9.7 2.6-4.2.5-5.8 1.1-5.8 2.2 0 1.2 1 1.4 5.4.8 6.5-.7 14.6-4.2 14.6-6.1 0-.8-.1-1.5-.2-1.4-.2 0-2.1.9-4.3 1.9zM424.5 671.9c-1.8 1.5-15.3 4.3-19.6 3.9-4.9-.4-6.4 1.6-2.5 3.3 1.9.9 4.2.9 9.1.1 7-1.1 17.5-5.4 17.5-7.1 0-1.3-3.2-1.4-4.5-.2zM95.6 709.7c-1.4.7-2.6 1.8-2.6 2.3 0 1.4 1.8 2.1 2.5 1 1.1-1.8 7.5-1.1 10.5 1.1 4.8 3.6 8.3.3 3.9-3.7-2.5-2.3-10.5-2.7-14.3-.7zM121.4 716.1c-.8 1.4 1.1 3.3 2.5 2.5.6-.4 1.1-1.1 1.1-1.6 0-1.3-2.9-2-3.6-.9zM284.7 755.6c-1 1.3-1.3 2.4-.8 2.4 1 0 3.6-3.9 2.9-4.5-.2-.2-1.1.8-2.1 2.1zM484.3 801.6c-.4 1.1.1 2.2 1.2 3.1 1.6 1.1 2.1 1.1 3.4-.1 1.2-1.2 1.2-1.8.1-3-1.6-2.1-3.9-2-4.7 0zM35.3 824c-8.8.5-10.8 1.4-8 3.5 1.5 1.1 1.6 1.7.6 4.1-.6 1.6-1.7 4.9-2.5 7.4-3.9 13.4-6.5 19.5-9.1 21.6l-2.8 2.2 2.7 1.1c3.2 1.2 8.3.7 10.4-1 .8-.6 1.4-2.7 1.4-4.7 0-4.2 2-11.4 3.5-12.4.5-.4 3.1-.8 5.7-.8 5.6 0 6.9 1.4 8.8 9.8.9 4.1.9 5.6 0 6.7-.7.8-1 2.2-.6 3 .8 2.2 15.1 2.2 16-.1.8-2-.1-3.4-2-3.4s-3.8-4.5-5.9-14.5c-.9-4.4-2.4-10.3-3.2-13.2-.8-2.9-1.3-6-1.1-6.9.4-2.4-3.5-3-13.9-2.4zm5.3 10c2.1 7 2 7.3-2.8 6.5-2.4-.4-4.7-1.1-5.1-1.5-.5-.4 0-2.9 1.2-5.5 2.6-5.9 4.9-5.7 6.7.5zM77.8 823.7c-4.5.5-13.2 7.8-15.3 13.1-2.1 4.9-1.9 12.8.5 17.6 3.5 7.2 13.7 11.9 24.5 11.3 4.4-.3 6.1-.9 8.2-2.9 1.4-1.4 2.3-3 1.9-3.6-.6-1-5.4-2.1-11.9-2.8-7.8-.8-13.7-7.8-13.7-16.5 0-4.3.5-5.5 2.9-8 3.5-3.4 8.6-3.9 12.1-1.1 1.8 1.5 2 2.1 1.1 4.4-1.2 3.3-.2 4.2 3.8 3.3 6.4-1.4 8.9-6.8 5.2-11.2-3.3-4-7.7-4.8-19.3-3.6zM107.1 825.7c-1.5 1.1-1.5 1.4.1 4 1.4 2.4 1.5 4.8 1.1 15.3-.5 11.1-.8 12.8-2.9 15.3-3 3.5-2.2 6.1 1.5 5.1 1.4-.4 7.7-.8 14-1 10.1-.3 11.7-.6 13.8-2.5 1.2-1.3 2.3-2.8 2.3-3.5 0-.6.7-1.7 1.5-2.4 1.2-1 1.3-1.6.5-2.4-.9-.8-2.1-.1-4.5 2.7-3.2 3.7-3.4 3.8-9.6 3.5l-6.4-.3-.6-5c-.3-2.7-.3-5.9-.1-7.2l.4-2.2 1.8 2.1c2.7 3.4 5 .9 5-5.3 0-5.4-1.3-6.9-3.9-4.5-2.7 2.5-3.2 2-2.9-2.7l.3-4.2h4.4c4.3 0 4.5.1 5.5 4 1.4 4.9 4.1 5.8 5.7 1.9 1.2-3.2.3-10.4-1.4-10.9-3.2-1.1-24.1-.9-25.6.2zM343.6 825.9c-.9 1.5.1 3.1 2 3.1 1.3 0 1.5 2.3 1.2 15.6-.3 14.9-.4 15.7-2.6 17.5-3.5 2.7-1.9 3.9 5.4 3.9 4.9 0 6.4-.3 6.4-1.5 0-.7-.7-1.8-1.6-2.3-1.3-.7-1.7-3.2-2.1-11.5-.6-11.3 0-12.9 3.3-8 .9 1.6 5.1 7.4 9.3 13.1l7.6 10.3 3.8-.4c6.7-.9 6.7-1 6-19.1l-.6-16.3 2.6-.7c1.5-.3 2.7-1.3 2.7-2.1 0-1.7-4.9-2.8-10.5-2.3-4.1.3-6 2.6-2.9 3.4 1.7.4 1.9 1.7 2 10 .1 7-.2 9.4-1.1 9.4-.7 0-1.5-.6-1.8-1.3-.2-.7-2.8-4-5.6-7.4-2.8-3.3-5.1-6.5-5.1-6.9 0-.5-1.4-2.2-3-3.8-2.5-2.5-4.1-3.1-8.9-3.4-3.6-.3-6.1 0-6.5.7zM226 826.7c-4.8.9-6.4 4.3-2 4.3 1.1 0 2.5 1 3.2 2.2 2 3.6 6.8 15.8 6.8 17.3 0 .7 1.3 3.8 2.9 6.8 1.6 3.1 2.8 6.4 2.8 7.4-.2 1.5.7 1.9 4.7 2.1 8.6.6 12.7-1.9 7.4-4.3-1.2-.6-2.6-1.8-3.2-2.8-.9-1.4-.6-2.2 1.5-4 1.4-1.2 3.8-4.1 5.4-6.5 1.6-2.4 3.3-4.5 3.8-4.9 1.1-.7 3.8 2.2 9 9.5 4.1 5.8 4.2 7.8.5 8.4-1.3.2-2.3 1-2.3 1.8 0 1.2 1.5 1.6 6.8 1.8 7.2.3 8.1-.5 5.5-4.7-.9-1.5-.7-3 1.1-7.8 1.2-3.2 3.3-9.2 4.7-13.3 3-8.7 3.8-10 7-10 1.4 0 2.4-.6 2.4-1.4 0-1.7-11.3-3.3-14.9-2.1-2.9.9-2.6 2.5.4 2.5 1.8 0 2.5.5 2.5 1.9 0 2.2-4.8 16.1-6 17.4-.4.5-2.5-1.3-4.6-3.9-6.1-7.3-9.2-10.4-10.3-10.4-1.3 0-3 1.7-9.5 9.9-2.8 3.3-5.5 6.1-6.1 6.1-1.3 0-9.5-17.2-9.5-20 0-1-.3-2.1-.7-2.3-1.5-.9-6.8-1.4-9.3-1zM397.7 826.7c-1.2 1.2-.7 3.3 1.3 5.3 2.3 2.3 2.6 8.9 1 19.9-.7 5.4-1.4 6.8-4.1 9.1-5.4 4.5-3.7 5.8 7.8 6 16.5.4 18.8.2 23.4-1.9 9.5-4.5 11.8-8.3 11.9-19.2 0-3.5-.7-5.7-3.1-9.3-5-7.5-9.8-9.4-26-10.1-6.4-.2-11.9-.2-12.2.2zm24.9 5.1c3.2 2 4.9 20.1 2.4 26.1-1.5 3.7-6.9 5.2-10.6 2.9-1.2-.8-2.9-27.2-1.9-28.9.7-1.1 8.5-1.2 10.1-.1zM304 827.9c0 .5.9 1.5 2.1 2.2 2 1.4 2 1.4-1.5 10.2-2 4.9-5.4 12.3-7.6 16.5-2.6 5.1-3.6 8-3 8.6 1.3 1.3 12.1.9 13.5-.5.7-.7.4-1.4-.7-2.3-2.3-1.7-2.3-4.4.2-10 1.8-4.2 2.2-4.6 5.2-4.5 7.9.3 9.1 1 10.5 6.4.7 2.7 1.3 6.5 1.3 8.4v3.4l6.6-.6c7.3-.5 8.7-1.3 6.1-3.2-2.7-2-9.2-28.8-8-33.3.4-1.8-.3-1.9-12.1-2.1-6.9 0-12.6.3-12.6.8zm14.7 9.9c1.8 7.1 1.8 7.2-3 7.2-2.4 0-4.6-.3-4.9-.6-.7-.6 2.7-9 4.5-11.2 1.3-1.7 1.9-.9 3.4 4.6zM461 827.8c-8.3 3.7-10.2 12.4-3.6 16.7 1.3.9 5.5 2.1 9.3 2.7 7.7 1.1 10.3 2.9 10.3 6.9 0 4.4-2.3 5.9-9 5.9-7.7 0-9-.6-9-4.1 0-5.3-2.8-4.9-8.2 1.1-6.8 7.7-6 12.2 1.6 8.6 2.5-1.2 6.4-1.6 15-1.6 13.2 0 15.8-.9 17.6-6.4.8-2.5.7-4.3-.2-7.1-1.7-5-6.1-7.2-15.7-7.9-8-.6-11.1-2.3-11.1-6.1 0-3.3 3.1-5.5 7.6-5.5 5.1 0 8.7 1.9 9.4 5 .4 1.6 1.4 2.6 2.8 2.8 2.6.4 4.5-3.4 4-8.2l-.3-3.1-9.5-.2c-5.2-.1-10.2.1-11 .5zM187.6 838.1c-3.1 3.6-3.1 4.1-.6 9.8 1.1 2.4 2 4.7 2 5.2s1.2 3.4 2.6 6.4c3.1 6.5 2.5 9.4-2.6 12-1.6.8-3 2.2-3 3 0 2 .6 1.9 5.7-1.1 5-2.9 6.3-5.5 6.3-12.6 0-4.5.2-5 2-4.5 2.7.7 4.1-1.4 3.2-4.8-1.1-4.1-3.9-5.6-5.8-3-1.5 2-1.5 2-3.4-.5-2.5-3.2-2.5-4.1 0-4.7 2.2-.6 2.6-3.3 1-6.4-1.5-2.8-4.5-2.3-7.4 1.2z"/><path d="M169.6 853.4c-2 1.8-3.6 3.9-3.6 4.5 0 6.9 13.1 9.1 18.5 3.1 1.5-1.6 1.5-2.4.5-5.5-2.1-6.4-9.7-7.5-15.4-2.1zm7.8 1.2c2 .8 2.1 3.8.1 5.4-1.2 1-1.8 1-3 0-1.8-1.5-2-4.6-.2-5.3.6-.3 1.3-.6 1.4-.6.1-.1.8.2 1.7.5zM491.8 859.1c-2.8 1.6-2.3 5.7.7 6.5 1.4.3 3.2.4 4 0 2.2-.8 1.9-5.3-.4-6.6-2.3-1.2-2.2-1.2-4.3.1z"/></svg>