<svg version="1" xmlns="http://www.w3.org/2000/svg" width="666.667" height="1170.667" viewBox="0 0 500 878"><path d="M224.1 5.9c-1.7 1.8-3.4 4.6-3.9 6.2l-.7 3-3.5-2.6c-3.9-2.9-5.3-3.1-7-1-1.6 1.9-.6 5.6 2.5 9.3l2.4 2.9-2.3 1.1c-3.3 1.5-4.4 5.2-2 6.9 2.2 1.6 5.1 1.6 10.9.1 5.7-1.5 7.5-.3 5 3.5-.9 1.4-1.6 4-1.5 5.9.3 11 .7 14.8 1.9 18.6 1.8 5.4.8 6.5-4.2 5.1-5.3-1.4-7.3-4.7-5.6-9.3 1.5-4.2.3-10.3-2.3-12-2.8-1.7-5.8 1.8-5.8 7 0 3.8-.4 4.4-3.6 6.3-2.6 1.6-3.5 2.7-3.2 4.4.3 1.9 1 2.2 6 2.5 4.7.2 5.9.7 7.2 2.7 1 1.5 2.6 2.5 4.1 2.5 1.3 0 3.6.5 5.1 1 2.6 1 2.7 1.3 2.1 6.8-.3 3.1-1.2 9.7-1.9 14.7-.7 4.9-1.2 12.1-1 16 .1 3.8-.5 10.8-1.3 15.5-.8 4.7-1.7 10.2-2 12.2-.7 4.2-1.2 4.6-3.1 2-1-1.3-1.5-1.4-2.5-.5-1 1-.9 2 .5 5 2.8 6.4 2.2 24.4-1.8 52.1-1.6 10.9-2.5 17.9-2.6 19.4 0 1.2-.8 1.7-2.7 1.6-3.8 0-7.3 1.5-11.2 4.7l-3.2 2.8.6 16.6c.3 9.1 1 18.2 1.5 20.1 2.1 6.9 2.8 12.6 2.1 16.5-.5 2.8-.2 5.6 1.2 9.4 2.2 6.5 1.6 11.9-1.8 15.1-2.3 2.2-2.4 2.2-6.3.5-2.6-1.2-4.5-2.9-5.5-5.1-1.3-2.7-2.2-3.3-5.3-3.6-3.8-.3-6.2-2.8-2.7-2.8 2.9 0 6.2-2.8 7.8-6.7 2-4.6 2-4.6-1.2-4-3.8.7-14-1.2-18.6-3.5-3.9-1.9-6-1.6-8.6 1.6-1 1.1-1.8 1.3-3.1.6-1-.6-3-1-4.5-1-2.9 0-4.5-2.7-2.4-4.1.8-.5 3.3-.9 5.6-.9 3.4 0 4.6-.6 6.7-3.1 1.4-1.7 2.6-3.7 2.6-4.5 0-1.8-2.9-1.8-5.4.1-1 .8-2.2 1.2-2.6 1-.4-.3-2.3-.7-4.2-.9-1.8-.3-3.8-.6-4.3-.7-2.7-.7-12.6 1.6-17.5 4s-5.5 3.1-5.8 6.2c-.5 5.2-1.8 5.8-5 2-2.7-3.3-2.8-3.3-5.8-1.8-1.7.9-3.6 2.3-4.4 3.2-.9 1.1-2.2 1.4-4.7.9-4.4-.8-14.1 2.8-19.2 7.3-3.2 2.8-3.5 3.4-2.3 5.2 1.6 2.8 1.6 3.1-1.1 3.1-7.1 0-20.9 7.8-26.3 14.8-3.6 4.8-4 6.7-2.3 10.5.9 2 .6 3-1.5 6.2-1.5 2.2-2.6 5.2-2.6 7.1 0 4.4-1.9 4.4-4.8-.1-2.4-3.8-3.4-4.1-7.1-2.2-2.2 1.1-2.4 1.7-2.4 10.3 0 5.1.3 9.7.7 10.3.4.6.2 2-.5 3.2-1.6 3.1-.6 10.2 2.1 13.9 1.3 1.8 4.3 4.1 6.7 5.2 2.8 1.2 4.9 3 5.9 5.1.9 1.8 3.1 5.2 4.8 7.7 3.7 5.1 5.6 10 5.6 14.1 0 1.9 1.2 4.3 3.6 6.9 3.5 3.9 3.7 4 8.8 3.4 5.1-.6 5.2-.6 8.6 3.5 1.9 2.3 5.3 6.2 7.5 8.7 2.1 2.5 5.1 6.9 6.5 9.7 1.6 3.2 3.3 5.3 4.5 5.5 10.7 1.7 11.6 7.8 2.7 19.1-2 2.6-4.8 7-6.1 9.9-1.4 2.9-2.8 5.2-3.2 5.2-.4 0-2.1-2.2-3.7-4.9-1.7-2.6-4.3-5.8-5.9-6.9-4.8-3.4-20.7-7.8-26.8-7.4-6 .4-14.5 2.5-15.6 3.8-.6.8-2.1 1.4-3.3 1.4-3 0-11.9 7-12.6 10-.8 3.4-3.6 3.7-6.8.8-3.5-3-7.9-5.4-11.8-6.2l-3.1-.7-.1 10.2c-.1 9.6 0 10.1 1.8 9.6 2.3-.6 2.4-.3 1 2.4-.9 1.6-.7 2.1.9 2.7 1.9.7 1.9.9-.9 5.5-2.5 3.9-3 5.8-3 10.9 0 6 0 6.1 2 4.3 1.1-1 2-2.9 2-4.1 0-3.5 3.2-8 5.2-7.6 1.1.2 1.8-.3 1.8-1.3 0-.8.7-1.8 1.5-2.1 1.9-.8 1.9-2.4 0-2.4-2.4 0-1.7-2.2 2.2-6.5 2-2.2 3-3.2 2.3-2.3-.9 1.3-.9 1.8-.1 1.8.6 0 1.1-.3 1.2-.8.3-3 1.1-4.6 3.2-6.5 1.3-1.2 3.5-4.2 5-6.8 2.6-4.6 3.9-5.5 15.4-10.4 5.9-2.4 6.7-2.5 14.2-1.6 4.4.6 9.7 1.8 11.8 2.7 2.1.9 4.6 1.8 5.5 1.9 2.9.3 8.7 4.9 10.3 8.1.8 1.7 2.2 3.7 3.1 4.5 1 .8 2.3 2.9 3.1 4.6.8 2.2 2 3.3 3.3 3.3 1.3 0 2.2.9 2.6 2.7.4 1.4 2.5 4.5 4.8 6.8 10.7 11.1 13.6 14.6 13.6 16.5 0 1.6.5 1.9 2.3 1.5 1.8-.5 3.6.4 7.3 3.3 5.6 4.4 7.1 5 13.1 5.4 2.4.1 4.5.8 4.7 1.5.9 2.3 3.4 1.4 6.1-2.2 2.8-3.6 2.5-6-.7-5.2-3 .8-1.6-1.5 2.8-4.6 2.2-1.5 5.7-3 7.9-3.3 7.5-1 8.5-1.4 8.5-3.3 0-3.5-2.2-4.1-8.4-2.5-7 1.8-12.9 5.4-15.2 9.1-1 1.6-2.4 3.9-3.2 5.2-1 1.7-1.7 2-2.5 1.2-.6-.6-1.9-1.1-2.8-1.1-2.5 0-13.6-7.7-19.7-13.8-5.3-5.1-5.4-5.4-3.7-7.3 1.6-1.7 1.7-2.5.7-7.2-1.9-8.5-2.3-14.2-1.4-16.7.7-1.8 1.2.1 2.1 8.1.7 6.6 1.7 10.9 2.7 11.9 1.3 1.3 1.4.6.8-6.9-.5-6.3-.4-8.2.4-7.7.7.4 1.2 1.8 1.2 3.2 0 1.3.5 2.4 1 2.4.9 0 1.4-7.2 1-14.8-.1-1.7.3-3.2.8-3.2 2.4 0 3.2 3.1 3.1 11.1-.1 4.6.2 10 .6 11.9.8 3.4.8 3.5 1.5.9.4-1.4.4-4.9-.1-7.8-.4-2.9-.6-6.9-.4-8.9.2-2 .4-4 .4-4.3.1-.4 1.6-1 3.4-1.3 1.7-.4 4.6-.9 6.2-1.3 1.7-.3 3.8-1.4 4.8-2.4 1.8-1.9 3-2.3 5.6-1.9 3.5.4 10.5-2.7 12.9-5.8 1.3-1.7 2.8-3.2 3.2-3.2 1.1 0 3 9.1 3 14 0 3.4.3 4 2.1 4 2.2 0 7.3-1.2 13.9-3.2 4.1-1.2 31.7-12.4 34.3-13.9 1-.5 6-2.8 11-5 5.1-2.2 11.5-5.5 14.2-7.4 2.8-1.8 8.1-5.2 11.8-7.6 6.2-3.8 6.8-4.5 6.2-6.8-1.4-6.1-1.6-10.8-.5-13.1 2.6-5.8 4.9-9.4 5-7.8 0 .9 1.4 2.8 3 4.1 1.7 1.4 3 3 3 3.5 0 1.7 3.7 4.2 6.3 4.2 2.9 0 4.4 1.7 2.9 3.2-.6.6-.8 2.4-.5 4.2.3 2.1-.4 4.7-2.2 8.1-3.3 6.4-4.7 13.3-3.5 17.5 1.3 4.6 3.7 6.1 8.8 5.4 4-.6 5.7.5 3.2 2.1-.6.4-2.1 2.8-3.4 5.3-2.2 4.3-2.3 5.3-1.4 10.2.5 3 1.6 6.2 2.4 7.1 2.1 2.3 1.7 6.6-1.1 11.8-1.3 2.5-3.8 8.2-5.4 12.6-5.2 14.6-6.9 18.5-9.8 23.2-5.2 8.4-12.2 25.6-13.3 32.3-2.2 14.3-.7 23.2 5.2 29.6 2.2 2.3 4.9 4.4 6.1 4.6 1.9.3 2.3 1.1 2.8 6.3.4 3.3 1 7.6 1.4 9.6.6 3 .3 4.3-1.8 7.5-1.4 2.1-3.1 5.8-3.7 8.1-1 4.1-2.4 5.1-5.5 4.3-.5-.2-4.4-1.1-8.5-2-16.8-4-26.8-8.2-56.1-23.7-2.6-1.4-7.4-5.3-10.8-8.7l-6-6.3 8.7-1.3c10.2-1.5 12.1-2.3 22.1-10 10.2-7.8 14.3-12.2 18.4-20 4.2-7.8 5.2-12.3 3.2-14-2.4-2-4-.6-5.9 5.1-2.7 8-8.3 15.6-15.6 21.6-6.9 5.6-8.4 6.2-9.4 3.8-.7-2-4.5-1.9-5.3.1-.3.9-.1 2.5.5 3.5 1.3 2.1 1 2.4-3.6 3.4-3 .6-3.3.5-2.8-1.2.3-1 0-2.8-.8-3.9-1.4-1.8-1.6-1.8-3.3-.1-1.4 1.4-1.5 2.1-.6 3.7 1.1 1.6.9 2-.9 2.5-2 .7-3.8-.7-3.8-3.2 0-.6-.4-1.4-.9-1.7-1.5-.9-4.1.5-4.1 2.1 0 1.2-.3 1.3-1.4.4-.8-.7-2.3-1.1-3.2-.9-1.4.2-2-.6-2.5-3.5-.3-2.1-1.4-4.6-2.3-5.5-1.7-1.6-1.8-1.4-1.4 3 .4 6.2-1.5 6.3-2.6.1-.4-2.6-1.5-7.3-2.4-10.3-1.3-4.4-1.7-5-2-3-.9 5.8-2.6 4.3-3.4-3-.4-3.8-2.3-2.6-2.6 1.7-.4 5-2.2 6.8-2.2 2.3 0-3.8-2.9-10.4-4.5-10.2-.5 0-1.3 1.1-1.7 2.4-.6 2.2-.6 2.2-.7.2-.1-1.2-.7-2.7-1.5-3.3-1.2-1-1.7-.8-2.6.8-1.4 2.8-3 2.7-3-.2-.1-2-.2-2.1-1.4-.4-.7.9-1.1 2.9-.8 4.3.3 1.8.1 2.5-.6 2-.6-.4-.9-1.3-.6-2.1.4-.8-.1-1.8-1-2.1-1.1-.4-1.4-1.3-1.1-2.4.9-2.7-1.2-3.4-2.6-.9-1.4 2.6-.6 12 1.6 19.3.9 2.9 1.1 5.4.6 5.9-1 1-3.1-4.5-3.1-8.4 0-1.5-.4-3-.9-3.3-.5-.3-1.2-3.1-1.6-6.1-.4-3.4-1-5.3-1.7-4.9-.6.4-.8 2.8-.4 6.3.6 5.1.5 5.4-.9 3.7-.8-1.1-1.6-3.1-1.6-4.5-.1-1.4-.3-3.3-.4-4.1-.1-.8-.3-2.7-.4-4.1-.1-2.2-.5-2.6-3.3-2.4-1.8 0-4.3.7-5.5 1.3-3.3 1.8-3.1-1 .2-3.2 3.5-2.3 5-5.3 3.4-7.2-1.4-1.7-2.9-1.8-2.9-.2-.1 1.8-4.8 5.1-6.1 4.3-1.3-.9.8-3.5 2.8-3.5 1 0 1.3-.9 1.1-3.3-.2-2.7-.7-3.2-2.6-3-1.9.3-2.1 0-1.3-1.6 1.3-2.3-.4-4.1-3.7-4.1-1.8 0-2.2-.4-1.8-1.8.3-.9-.1-3.9-.9-6.6-.8-2.7-1.5-7.7-1.5-11.2v-6.3l-6.7.2c-6.7.2-6.8.2-7.1-2.6-.2-1.6-.9-2.7-1.9-2.7-.8 0-2.3-1-3.3-2.2-1.6-2-2-2.1-4.6-.8-2.7 1.3-11.4 3-16 3.2-1.2 0-4.7-1.6-7.9-3.6-7.2-4.7-11-4.6-14 .1-1.1 1.8-2.8 3.2-3.7 3.3-1.1 0-1.8.8-1.8 2 0 1.1-1.4 3.5-3.1 5.3-1.7 1.7-3.5 4.2-4 5.4-.5 1.3-1.4 2.3-2.1 2.3-3.2 0-5.6 8.1-3.1 10.2.7.6 1.3 1.5 1.3 2 0 .6-.6.5-1.4-.2-2.3-1.8-6.1-.8-6.4 1.7-.2 1.5.5 2.6 2.3 3.6 2.4 1.2 2.5 1.5 1.1 2.7-1.4 1.1-1.9 1-3.4-.4-1-.9-2.6-1.6-3.5-1.6-1.4 0-1.6 2.6-1.7 23 0 23.8.2 25.2 3.9 21.7 1.1-1 1.2-.9.5.3-.5.8-1.2 4.2-1.6 7.5-.3 3.3-1.2 10.5-1.8 16-1.1 9.7-1.1 10 1 11.5 1.1.8 4.7 3.5 7.8 6 7.3 5.8 13.8 10 15.5 10 2.7 0 9.9-6.2 11.3-9.7.9-1.9 1.4-5 1.3-6.7-.2-3 1.2-16.9 3.2-31.3.6-4 .8-7.7.4-8.3-.3-.5-2.8-1-5.6-1-5.2 0-5.6-.4-3.7-4.5 1.1-2.4.8-2.9-3.2-7-3.6-3.7-5.1-4.5-8.1-4.5-2.2 0-4.2.7-5.2 1.8-1.2 1.3-2.7 1.7-5.8 1.4l-4.1-.4.5-4.1c.7-5.2 5.8-15.1 7.9-15.5 1-.2 3.1 1.7 5.6 5 4.1 5.4 18.2 20.2 26.2 27.4 2.5 2.2 6 5.9 7.9 8.3 2.5 3.2 5.4 5.2 11.8 8.2 4.6 2.1 9.1 3.9 9.9 3.9.8 0 2.3.5 3.3 1.2 3 1.8 11.8-1.4 17.7-6.6 7.9-6.9 9.1-6.8 16.8 1.1 3.7 3.7 6.6 7.2 6.6 7.9 0 1.7 3.4 4.4 5.6 4.4 1.1 0 3.7.9 5.9 2 5 2.6 18.7 2.8 24.3.4 4.7-2 9.1-2.4 11.7-1.1 1.1.6 4.5 3.1 7.5 5.7s6.6 5.3 7.9 6c1.3.7 5.7 3.6 9.9 6.6 4.1 3 7.9 5.4 8.4 5.4.6 0 4.8 1.8 9.5 4 9.8 4.7 21.5 8.3 36.3 11.1 5.8 1.1 10.8 2.4 11.2 2.7.9 1-2.7 18.9-6.4 31.2-1.7 5.8-3.5 12-4 13.7-.7 2.5-1.5 3.3-3.3 3.3-5.3 0-11.4 8.7-10.2 14.7l.5 2.5-14.2-.7c-14.6-.7-24.2.6-27.4 3.8-1.9 2 .1 6.7 2.9 6.7 1.2 0 5.5 2.2 9.6 5 4.1 2.7 8.2 5 9.1 5 1 0 3.6 2 6 4.5 4 4.1 4.2 4.6 3.6 8.5-.6 3.4-.4 3.9.9 3.4.8-.3 1.8-1.5 2.1-2.7.6-2.2.6-2.2 3 .5 2.1 2.2 10.9 5.8 14.4 5.8.5 0 2.1.9 3.6 2.1 1.5 1.1 3.2 1.9 4 1.6 1.4-.6 5.6-12.5 5.6-16.1 0-1.3 1.1-6.3 2.5-11s2.5-9.2 2.5-10c0-.7.7-1.9 1.5-2.6.8-.7 1.4-1.9 1.3-2.8-.2-.8.2-1.7.9-1.9.7-.3.9.3.6 1.8-.4 1.6-.2 2 .8 1.7 2.5-.8 2.1-3.5-1-6.7-3.4-3.5-3.7-5.5-2-12.8 2.9-12.4 5.3-21.2 6.9-25.8 1.5-4.1 3.8-13.2 5.5-21.8.3-1.7-1.9-4.7-3.4-4.7-2 0-3.3 3.5-4.6 12.2-.7 5.1-1.8 10.5-2.3 12-1.2 3-4.7 17.4-5.7 23.5-.4 2.4-1.1 4.3-1.6 4.3s-.9-.5-.9-1c0-.6-1.1-2.1-2.4-3.3-2-1.9-2.2-2.6-1.3-4.7 2.6-6.4 3.7-9.7 3.7-11.7 0-1.2 2.3-11 5-21.9 2.8-10.9 5-20.6 5-21.6 0-2.7 2.2-3.1 6.5-1.4 4.2 1.8 13.7 2.1 16.4.6 1-.5 5.9-1.5 11-2.1 7.4-1 9.5-1 11.5.1 1.4.7 2.3 1.6 2.1 2.1-.3.4-3.8 1.6-7.7 2.8-4 1.2-9.8 2.8-12.8 3.7-3 .9-8.3 1.9-11.7 2.2-3.5.2-6.3.9-6.3 1.5 0 1.3 12.7.2 19.8-1.7 4.6-1.3 5.4-1.3 5.9 0 .3.8 1.2 1.4 2.1 1.4 3.4 0-.5 2-5.8 3-5.5 1-7.9 2.4-6.7 3.6.7.7 14.3-2.4 18.1-4.1 1.4-.6 1.8-.5 1.4.6-.2.8-3.9 2.5-8.1 3.9-11.8 3.9-13.9 7.4-2.7 4.6 3.4-.9 6.5-1.6 6.8-1.6 1.6 0-6.7 4.5-11.3 6.1-6.4 2.3-7.2 4.2-1.3 3.3 2.3-.4 5.4-1.1 6.6-1.6 2.5-.9 4.2-.3 4.2 1.3 0 .6-.9.8-2 .4-1.4-.4-3 .3-5.5 2.8-4 3.9-3.4 5.3 1.3 3.6 2.1-.7 3.7-.7 4.9-.1 1.6.9 1.5 1.1-.7 1.6-1.4.3-3.6.7-5 .8-3.1.4-3.3 3-.2 4.3 2.7 1.2 2.9 2.5.4 2.5-1.8 0-5.2 2.9-5.2 4.4 0 1.6 4.6 4.5 7.3 4.6 1.5 0 2.7.5 2.7 1 0 1.8-2.4 2-6.5.6-5-1.8-7.1-.4-3.6 2.5 1.3 1 3.1 1.9 4.2 1.9 3.2 0 3.1 1.9-.2 7.8-1.8 3.1-4.1 7.3-5.1 9.2-2.8 5-3.7 5.8-4.8 4-.6-.9-.3-1.8.7-2.5 2.2-1.6 1-4.1-2.1-4.7-3.9-.8-5.4.7-3.2 3.1 1.9 2.1 1.9 2.1-.7 2.1-3.8 0-3.3 1.5 1.3 4.3 3.7 2.2 3.9 2.5 2.5 4.3-.9 1.1-1.4 1.4-1.5.6 0-1.6-5.9-4.2-7.8-3.5-.7.3-1.1 1.2-.8 2 .4.9-.1 1.7-1.4 2-1.1.3-2 1.1-2 1.7 0 2.1 4.8 5.9 6.4 5.3 1.8-.7 2.1-3.3.6-4.2-.5-.3-1-1.1-1-1.8 0-.8.3-.8 1.2.1.7.7 2 1.2 3 1.2 2.3 0 2.2.1-.3 7.1-2.2 5.9-3.9 7.6-3.9 3.9 0-2.4-4.2-7-6.5-7-1.8 0-2 2.8-.2 4.9 1.4 1.8 4.1 9 3.5 9.6-.2.2-2.2-1.8-4.5-4.4-4-4.6-4.2-5-3.2-8.7.5-2.2 1.5-4.9 2.1-6.1.6-1.3.8-2.6.5-3-1.2-1.1-4.6 2.8-5.3 6-1.8 8.5-11.4 35.2-12.7 35.5-.8.2-5.6-1.1-10.8-2.7-5.2-1.7-11.4-3.3-13.9-3.7-4.1-.6-4.3-.5-2.5.8 1.1.8 4.7 2.5 8 3.9 7 2.8 16.3 9.2 17.3 12 .4 1.1 2.1 2.9 3.7 3.9l3 2-13 .1c-7.1.1-15 .1-17.5 0s-7.9.3-12 .8c-5.8.8-7.8.7-9-.3-2.1-1.8-14.7-2.8-20.9-1.6-3.5.6-6 .6-7.9-.1-1.5-.6-9.9-1.5-18.7-2-8.8-.4-17.7-1.1-19.7-1.5-2.5-.4-3.8-.2-3.8.5 0 2.5 4.9 3.5 19 3.6 15.1.2 24.7 1.2 25.6 2.6.3.5 3.8.6 7.9.2 5.6-.4 7.9-.2 9.1.8 1.3 1 9.5 1.4 40.3 1.6 21.2.2 41.3.4 44.6.5 10.6.3 20.7-1 22.1-2.9 1.1-1.5 3.5-1.8 19.1-2 16.7-.2 22.7-.5 44.8-1.9 9.1-.6 12.4-1.7 9-3-1-.4-11.6-.2-23.6.5-12 .7-25.2 1-29.3.6-7.8-.8-19.5.7-25.4 3.1-4.4 1.8-15.9 2.6-25.7 1.8-7.8-.7-7.9-.8-4.8-2 1.7-.8 3.7-2.2 4.5-3.2 1.9-2.7 21.2-4.1 24.3-1.8 3 2.3 4.9 1.9 8.4-1.3 3.2-3 3.3-3 11.7-2.4 5.7.4 9.7.2 12.4-.7 3.4-1.1 4.6-1.1 8.2.3 4.4 1.6 19.3 1.7 40.3.1 5.2-.4 11.7-.1 18.5.9 8.9 1.3 14.7 1.7 27.5 2 1.1 0 3.9-.3 6.3-.8 2.3-.4 4.2-.4 4.1.1 0 .5-4 2.8-8.9 5.2-7.6 3.6-9.5 5.1-14.1 10.7-3.8 4.7-6.7 7.2-10.5 8.9-2.8 1.3-6 3.3-7 4.3-12.6 13.2-22 23.9-24.4 27.6l-2.9 4.6-20.8.3c-11.4.2-94 .3-183.5.3H0v5l126.2-.2c114.7-.2 231.2-1.2 335.1-3l38.7-.6v-6.8l-7 .7c-4.5.4-7 .3-7-.3 0-2 3-3.5 6.5-3.2 2.4.3 3.9-.2 4.5-1.1 1.3-2 1.3-3.3 0-2.5-1.5.9-5.2-.5-4.7-1.8.2-.7 1.9-1 4-.9 3.2.3 3.7.1 3.7-1.7 0-1.2-.6-2.1-1.5-2.1-1.9 0-1.9-1.1 0-3.6 1.8-2.3 2.2-22.9.4-24-.6-.3-.8-1.7-.5-2.9.3-1.3.2-2.6-.3-2.9-1.2-.8-.5-15.6.8-16.9.6-.6 1.1-3.5 1.1-6.5 0-5-.3-5.8-3.6-8.9-4.4-4.1-9.6-6.8-14.8-7.6-2.1-.3-4.7-1.4-5.7-2.3-1.2-1-1.9-1.2-1.9-.5s-.9.9-2.2.7c-1.3-.3-4-.8-6.1-1.1-3-.5-3.7-1-3.3-2.3.3-.9-.1-2.8-.9-4.2-.8-1.4-1.5-2.2-1.6-1.8-.1.5-.2 1.1-.3 1.5-.1.5-.5 1.4-.9 2.1-.5.6-.5 1.7-.1 2.4.5.8.2.9-1 .5-1-.4-3.6-1-5.9-1.3-5.2-.7-22.5-7.1-25.2-9.4-1.1-.9-3.1-2.2-4.5-2.8-1.4-.7-4.3-2.3-6.5-3.7-2.2-1.4-5.6-3.4-7.5-4.4-4.3-2.3-8.4-6.6-7.6-7.9.3-.5-.1-1.5-.9-2.2-.8-.7-1.5-1.9-1.5-2.7 0-1.3.3-1.3 1.5-.3.8.7 1.5 1.9 1.5 2.6 0 .8.4 1.4.9 1.4s1.1.9 1.4 2c.3 1.1 1 2 1.6 2 1.6 0 1.3-4.6-.4-6-.8-.7-1.5-2.3-1.5-3.6 0-1.2-.4-2.6-1-2.9-.5-.3-1.4-2.5-2-4.8-2.3-9.4-3.1-11.7-4.2-11.7s-.8 2.1 1.2 9.9c1.7 6.7.7 8.3-1.8 3.2-1.2-2.4-1.9-4.8-1.6-5.3.3-.5-.2-2-1.1-3.4-1-1.6-1.4-3.5-1.1-5 .4-1.3.2-2.4-.3-2.4-1.1 0-2.9-8.2-3.4-15.8-.2-2.9-.8-5.6-1.2-6-1.3-1.2.6 20.9 2.5 28.8.9 4.2 2.9 9.9 4.4 12.8 3 5.9 3.1 6.2 1.3 6.2s-18.2-16.9-20.6-21.3c-2.2-4-2.6-5.7-1.3-5.7 1.5 0 10.7 8.3 11.5 10.4.9 2.1.9 2.1 1.8-.4.7-1.7.5-3.9-.7-7.5-1-3.1-1.7-8.7-1.8-15-.1-8.1-.4-10-1.6-10-.8 0-1.5.7-1.5 1.5 0 3.8 1.7 21.7 2.1 23.2.4 1.2 0 1.8-1 1.8-1.8 0-2.3-1.6-3.2-9.5-.9-8.7-.9-8.8-2.1-11-1.1-2-1.2-1.9-2 .3-.8 2.1-1 2.2-2.2.8-2-2.4-2.8-1.9-2.7 1.8.1 1.9 1 4.4 2.1 5.6l2 2.2-2.5-.3c-3.4-.5-5.9-5.9-6.7-14.4-.5-5.2-.3-6.9.8-7.6 1-.6 1-.9.2-.9-1.8 0-1.6-1 .9-7.7 1.5-4.2 3.8-7.4 8.2-11.8 5.4-5.4 18.9-14.5 21.4-14.5.5 0 1.5-.7 2.2-1.5.7-.8 2-1.4 2.9-1.3 1.2.2 1.5-.4 1.3-2.7-.7-6.1-4.3-6.8-7.4-1.5-1 1.8-2.5 3-3.8 3-1.1 0-2 .4-2 .9 0 1.4-5.9 5.4-8 5.5-2.5.1-16.9 15-18.6 19.2-.8 2-2.1 3.4-3.2 3.4-.9 0-3 .9-4.7 2-1.6 1.1-3.9 2-5 2-2.6-.1-6.8-3.6-6.2-5.2.2-.7-.1-2.2-.7-3.3-.6-1.1-1.6-4-2.2-6.5-1.2-4.4-1.2-4.6 1.7-6.8 1.6-1.3 3.9-4.2 5-6.4s3.2-5 4.6-6.3c3.1-2.6 2.6-4.8-1.5-6.9-2.7-1.4-3.3-1.3-8.1 1-2.9 1.3-5.4 2.4-5.6 2.4-.1 0 0-1.1.2-2.4.6-3.1-.6-3.7-5.1-2.5-2.1.6-4 .8-4.3.5-.3-.3.1-2 .9-3.8.9-1.8 1.7-3.8 1.9-4.3 1.1-2.9 9.1-16.4 10.4-17.5 1.2-1 2-.9 4 .4 1.3.9 4 1.6 6 1.6 3.1 0 3.8-.5 5-3.3l1.4-3.2.2 4.5c.2 6.4 1 8.5 4.8 12.5 3.5 3.8 12.1 8.5 15.3 8.5 1.1 0 3.1.6 4.6 1.4 4.4 2.2 17.4.7 20.6-2.3 2.6-2.5 3.4-5.1 1.6-5.1-1.8 0-2.5-.2-4.2-1.1-2.5-1.3-2.3-2 1.7-5.2 3.3-2.7 3.6-2.7 6.5-1.2 1.6.9 3 1.9 3 2.4 0 .9 12 .3 13-.6.8-.7-2.4-2.3-5-2.3-3-.1-12-4.9-13.1-7-.4-.8-1-2.3-1.3-3.2-.5-1.8-12.2-9.7-14.3-9.8-.7 0-1.3-.6-1.3-1.4 0-.8-1.6-2.8-3.6-4.6-2-1.7-3.3-3.4-3-3.7.3-.4 2.9-.6 5.6-.5 4.4.1 5.8-.5 11.3-4.3 10-7 13.4-15.3 10.3-25.6-1.7-6.1-6-10.9-11.8-13.3-4.4-1.9-9.9-2.1-11.5-.5-.8.8-1.9.5-4.1-1.1-2.6-2-3.3-2-7.3-1-4.8 1.3-7.9 3.5-7.9 5.7 0 .7-1.2 2.3-2.6 3.6-1.4 1.2-3 3.2-3.5 4.4-1.3 3.5-3.2 2.9-2.4-.7.7-3.2.8-3.2-7-3.4-2-.1-3.3-.8-4-2.3-.7-1.3-1.9-3.1-2.8-4.1-2.4-2.7-2.1-3.2 1.9-3.2 3.3 0 3.6.2 3.2 2.5-.6 2.9.5 3.9 4.2 4.1 1.4 0 3.2.2 4 .5.9.2 1.4-.2 1.3-1.1-.1-.8-.3-2.4-.5-3.5-.2-1.3.3-2 1.6-2 2.8 0 3-2.1.5-4.6-1.5-1.5-1.9-2.4-1.1-2.7 5.1-1.7 11.2-11.3 11.2-17.7 0-4.7-2.5-11.6-6-16.9-4.1-6.1-4.6-6.3-13.2-6.8-6-.4-7.8-.2-7.8.8 0 2 3.9 3.6 7.7 3.2 2.6-.3 3.7 0 4.4 1.4.5 1 1.6 1.8 2.4 1.8 1.6 0 4.5 4.9 4.5 7.5 0 2.3-3.4 1.8-6.2-1-2.3-2.3-2.6-2.3-4.7-.9-1.5 1.1-2.1 2.4-2 4.3.4 3.3-.7 5.1-3 5.1-.9 0-2.6.6-3.7 1.4-1.9 1.4-1.9 1.5.4 3.9 2 2.1 2.2 2.9 1.3 4.6-3 5.5-16.1-1.7-17.7-9.7-.8-4 .6-4.1 3.4-.2 1.3 1.6 3.1 3 4.1 3 2.1 0 4.7-2.7 5.3-5.5.2-1.1 1.4-2.2 2.8-2.5 3.5-.8 3.5-3.9 0-8l-3-3.5-2.9 3.1c-1.6 1.7-3.1 3.8-3.3 4.5-.4 1.1-1 1.1-2.4.3-3.3-2-2.8-4.2 1.5-6.4 3.3-1.6 4.1-2.6 4.1-4.8 0-1.6-.6-3.6-1.3-4.6-2.9-3.9-16.8 1-17.5 6.2-.4 2.4-4.2 5.6-5.4 4.4-1.3-1.3 1.1-8.1 3.2-9.2 2.4-1.3 2.7-4 .5-4-2.6 0-7.4-2.9-8.7-5.3-1-1.8-1.4-13.5-.4-14.4.6-.6 8.6 3 8.6 3.9 0 .5 2.5 2 5.5 3.3 3 1.3 8.2 4.7 11.7 7.5 7 5.7 13.1 8.1 15.1 6.1.9-1 .8-1.5-.5-2.5s-1.5-1.5-.6-2.4c1.7-1.7 2.5-1.5 3.1.8.7 2.8 3.5 1.5 4.3-1.9.4-1.4 1.2-4.4 1.9-6.6 1.3-4 1.4-4 6.2-3.9 9.7.1 19.7 2.3 21.5 4.7 2.7 3.6 7 26 6 31.7-.2.8-.4 3.4-.6 5.7-.4 6.2-1.6 6.5-1.6.5 0-5.9-1.1-7.1-4-4.2-2.9 2.9-2.5 8 1 15.1 5.2 10.1 13.1 17.2 17.5 15.5 2.1-.8.9-2.8-3.4-6-3.3-2.4-8.1-8.3-8.1-9.8 0-2.1 3.2-.5 4.1 2.1 1 2.8 3.3 4.4 10.2 7 1.5.6 3.5 2.4 4.4 4 4.1 7.1 14.2 10.1 20.3 5.9 5-3.4 6.8-6.9 5.3-10.8-1-2.8-.9-3.5 1.8-7.5 2.6-3.8 3.6-4.5 8.5-5.6 4.2-.9 5.7-1 6.6-.1.9.9.5 1.9-2.1 4.2-3.6 3.4-3.9 6.8-.6 8.5 4.6 2.3 4.6 2.4 2 7.6-2.5 4.9-2.6 4.9-7.4 4.9-4.9 0-7.4 1.5-6.9 4.1.2.9-.5 1.3-2.1 1.1-6.3-.9-9.6 2.8-4.3 5 5.1 2 11.2 5.3 11.2 5.9 0 .7-7 2.3-7.4 1.7-.1-.2-.7-1.6-1.4-3.2-1.1-2.5-1.6-2.7-4.5-2.2-1.8.3-4.9.9-6.9 1.2-4.4.8-8.1 5-5.3 6 .9.4 1.5 1.8 1.5 3.5 0 3.1 1.7 3.8 3.9 1.7 1.5-1.5 1.5-1.3-2.1 6.2-2.4 5-2.6 6-1.7 10.3.8 3.5 1.9 5.5 4.5 7.5 3.8 3 4.4 5.7 1.4 6.5-1.5.4-2 1.4-2 3.9 0 3.9 1.5 5.8 4.6 5.8 3.2 0 3.9 2.9 1.3 5.6-1.1 1.2-1.8 2.7-1.4 3.3 1.2 2.1 5.3 1.2 7.4-1.7 1.2-1.5 2.5-3.2 3.1-3.9 1.2-1.4 1.3-3.4.3-3.1-1.4.2-4.3-1.4-4.3-2.4 0-.5.5-.6 1.1-.3.5.4 1.9-.1 2.9-1 2.4-2.2 4.4-1.4 6.2 2.2 1.2 2.5 1.8 2.8 6.6 2.8 5.5 0 8.2 1.8 8.2 5.3 0 1.6-5.7 7.2-7.4 7.2-2.1 0-8.6 6.1-10.6 10.1-1.1 2.1-2 5.7-2 7.9 0 4.4 3.2 11.8 5.6 12.7 2.3.9 6.4-2.4 6.4-5.2 0-2.6.7-3 2.8-1.6 1.2.7 1.1 1.4-.2 3.9-.9 1.7-1.6 4.4-1.6 5.9 0 3.7 5.1 12.5 8.1 14.1 1.3.6 6.7 1.6 11.9 2.1 10.4 1 12 .4 12-4.5 0-3.1-6.1-9.3-9.9-10-3.6-.7-5.1-2.9-5.1-7.1.1-2.5.2-2.6 1.4-1.1 1.6 2.1 6.8 2.7 8.9.9.9-.7 1.7-3.1 1.9-5.4.2-3.2.7-4.1 1.8-3.8.8.2 3 .6 4.8.9 2.4.3 3.4 1 3.8 2.8.4 1.4 1.4 2.9 2.4 3.4 4.6 2.5 5.5-.1 1-2.9l-3-1.8 2.1-1.9c2.1-1.9 2.2-1.9 1.5.3-.6 1.8-.3 2.3 1.1 2.3 3.6 0 4.4-1.5 4.1-7l-.3-5.2-3.2 3.1c-4.4 4.1-7.3 4.2-7.3 0 0-1.7-.5-3.9-1-5-.9-1.6-.7-1.9 1.4-1.9 1.4 0 3.7-.5 5.2-1.2 2.3-1.1 2.8-1 4 .7 1.3 1.7 1.4 1.6 1.4-1.8 0-3.4-.2-3.7-2.9-3.7-1.7 0-3.3.5-3.6 1-1.1 1.7-2.3 1.1-1.8-.9.3-1.3 1.7-2.2 4.4-2.6l3.9-.7v-12.4l-3.7.1c-2.1.1-4.8.7-6 1.3-3.5 1.9-5.3 1.5-5.3-1.4 0-1.4.4-2.2 1-1.9 1.6 1 11.9-2.5 13-4.5.6-1 1-3.9 1-6.4 0-3.6-.3-4.5-1.7-4.5-1 0-2.7-.2-3.8-.5-1.1-.2-2.3-.5-2.7-.5-.5-.1-.8-.7-.8-1.4 0-.6-.7-2.5-1.5-4.1-.8-1.5-1.2-3.3-.9-3.8.4-.6-.1-.6-1.3 0-2.9 1.6-4.8 0-3.1-2.7 1.7-2.8.3-5-4.5-7.4-2-1-3.7-2.3-3.7-2.8 0-1.2 1.7-1.2 2.5.1.3.5 1.6 1 2.9 1 1.2 0 3.1.7 4.2 1.5 2.5 1.9 4.5 1.9 3.8 0-.4-.9 0-1.5 1-1.5.9 0 1.6-.7 1.6-1.5 0-.9.6-1.2 1.5-.9 1.1.5 1.5-.1 1.5-1.7 0-1.6-1-3-3.1-4.2-3.7-2.1-3.4-2.5 2.9-4.6 4.2-1.4 4.7-1.9 5-4.9.3-3.3.3-3.3-3.1-2.7-4.2.8-7.7-.1-7.7-2 0-.8-1.2-1.7-2.7-2.1-1.6-.4-3.2-1.1-3.8-1.8-.5-.6-2.3-1.2-3.9-1.3-1.6-.1-3.7-.5-4.5-.8-1.3-.5-1.3-.7-.1-1.5.8-.5 2.2-.4 3.3.2 5.3 2.8 12.3-2.5 9.1-7-.8-1.1-1.1-2.7-.8-3.6.7-1.8-2.1-2.3-3.1-.6-.3.5-1.5 1-2.6 1-1 0-1.9-.5-1.9-1 0-1.3-2.7-1.3-3.5 0-.4.6-.1 1.8.6 2.6 1 1.2 1 1.7 0 2.7-1 .9-1.5.8-2.5-.5-.8-1.2-2-1.5-3.6-1.1-1.9.5-2.2.3-1.7-1 .4-1.1.1-1.7-.9-1.7-1.1 0-1.5.8-1.3 2.8.2 1.5-.1 3.4-.5 4.2-.7 1.2-.6 1.3.5.3 1.4-1.4 6.9-1.8 6.9-.6-.1.9-4.3 4.1-11.3 8.3-5.5 3.4-9 8.5-8.2 11.8.7 3-1.4 3.7-5.9 1.8-3.7-1.5-4.9-3.6-2.1-3.6 1.2 0 1.3-.4.5-1.9-1.5-2.8-1.5-2.8 3.9-3.6 3.7-.5 5-1.1 5.4-2.6.3-1.1 1.4-1.9 2.5-1.9s2.8-1.2 3.7-2.8c1-1.5 1.2-2.1.4-1.4-.7.6-1.9 1.2-2.6 1.2-2 0 .5-4.5 3.3-6.1 1.8-.9 2.3-1.8 1.8-3.3-1-3.2-2.1-4.1-3.8-2.7-2.2 1.8-6 1-6.4-1.4-.2-1.5 1-2.7 5-4.8 2.9-1.5 6.2-2.7 7.3-2.7 1.7 0 1.8-.2.4-1.5-1.4-1.4-10.2-2.8-15.9-2.6-3.8.2-12.1 2.8-15.7 5-1.9 1.2-4 3.8-5.2 6.5-2.2 5.1-2.9 5.3-12.5 4-4-.6-4.7-1-4.4-2.7.2-1.6 1.5-2.3 5.3-3.2 2.8-.6 5.6-1.5 6.3-1.9.7-.4 1.5-.1 1.8.9.9 2.1 3.7-.1 2.9-2.4-1.2-4.1 13-9.6 27.5-10.6 14.3-1.1 24.1 1.2 33.3 7.8l2.8 1.9-2.3 1.2c-1.2.6-2.5 2-2.7 3.1-.3 1.9-.2 1.9 1.6.3 2.2-2 6.9-2.8 6.6-1.2-.1.6.9 1.6 2.2 2.2 2.4 1.1 2.5 1 2.5-2.7 0-3.4-.4-4-4.7-6.8-12.5-8-18.8-9.7-35.8-9.7-11.6-.1-13.8.2-20.6 2.6-4.2 1.5-10.5 4.5-14 6.6-6.9 4.3-11.4 5.8-12.4 4.2-1-1.6 4.6-11 8.2-13.7 1.8-1.4 3.3-3.1 3.3-3.8 0-2-7.9-8.5-15-12.5-3.5-1.9-7.8-5-9.5-6.9-2.1-2.1-3.9-3.2-4.8-2.8-2.1.8-3.4-1-4.5-6l-.9-4.1 3.7-1.1c8.4-2.5 13.2-2.9 16.6-1.5 1.8.8 5.2 1.4 7.4 1.4h4v4.2c0 6.8 2.9 10.4 11.6 14.4 5.5 2.6 8.3 3.4 10.4 2.9 3.9-.9 5.4-2.8 4.1-5.4-1.5-2.7-1.4-3.1.9-3.1 2.1 0 5 4.5 5 7.8 0 3.6 9.1 9.2 11.6 7.1.8-.6 1.4-1.7 1.4-2.4s.7-1.8 1.5-2.5 1.5-1.6 1.5-2.1c0-1.3-3.4-1.1-4.8.3-.8.8-1.2.8-1.2.1 0-.6-.7-1.4-1.6-1.7-1.2-.5-1.4-.1-.8 1.6.6 2 .5 2.1-1 .9-.9-.7-1.6-2.2-1.6-3.2 0-1.6.4-1.7 3.1-.7 4 1.4 5-.1 3.7-4.9-.5-1.9-.7-3.7-.4-4.1.3-.3.6 0 .6.7s.7 1.9 1.5 2.7c.8.9 1.5 2.4 1.5 3.5 0 2.2 1.8 2.5 4.5.5 1.6-1.1 2.3-1.1 5.1.6 1.8 1 3.8 2.6 4.4 3.4.7.7 2.3 1.4 3.6 1.4 2.2 0 2.3-.2 1.7-7.3-.8-10.4-3.2-15.1-10.6-19.8-4.2-2.8-7.1-3.9-9.7-3.9-2.2 0-4.3-.7-5.1-1.6-2-2.5 3.4-6.7 7.6-5.9 12.6 2.3 16.1 1.4 15.1-3.5-.4-2.4 0-3.3 3-5.5 2.8-2.2 3.3-3 2.3-4.1-.6-.8-2.6-1.4-4.3-1.4-5 0-10.1-1.8-12.5-4.4-2.1-2.2-2.2-2.7-1-5.9 1-3 1-3.7-.7-6-2.6-3.4-6.6-5.7-10.1-5.7-2.1 0-3.6-.9-5.2-3.1-1.3-1.7-3.7-3.7-5.4-4.4-1.8-.8-2.5-1.4-1.5-1.5 1.9 0 6.8-5.5 6.8-7.7 0-.8-.9-1.7-2-2-2.2-.6-1.7-2.3.7-2.3 1.9 0 4.2-2.9 4.3-5.4 0-1.3.5-1.6 1.8-1.1 3.6 1.4 5.1.9 6.2-2.1.8-2 .6-3.4-.5-5.7-.8-1.7-1.3-3.2-1-3.5.2-.3 2.4.2 4.7 1.1 6.6 2.4 15.9 3 18.3 1.3 2-1.4 2-1.4 0-3.6-1.1-1.2-4.3-3.7-7.1-5.5-2.8-1.8-6.7-4.9-8.6-6.9-5-5.2-8.4-6.1-13.9-3.9-2.4 1.1-5.4 1.7-6.6 1.5-2-.3-2.3-.9-2.3-5.4 0-4.7-.3-5.4-4.7-9.9-2.7-2.6-5.9-6.2-7.2-7.9-1.3-1.7-3.6-3.4-5.2-3.7-4.1-.8-5.3-2.6-4.5-7.4.5-3.4.1-4.9-3-10.5-2-3.5-4.3-7-5.3-7.7-.9-.6-2.4-2.5-3.4-4s-2.6-3.1-3.6-3.5c-1-.4-3-2.1-4.4-3.7-1.3-1.7-4.2-3.6-6.3-4.4-2.2-.7-5.4-2.2-7.2-3.3-2.8-1.7-3.2-2.5-2.7-4.5.4-1.8-.3-3.7-3-7.4-1.9-2.7-3.5-5.1-3.5-5.4 0-.2-1.3-2.6-2.8-5.2-4-6.9-7.2-15.1-6.5-16.8.3-.9 0-4.4-.7-8-1.1-6-1.1-6.7.9-10 2.4-4.2 2.1-5.3-2.3-8.2-4.5-2.9-7-8.3-6.2-13.7.7-4.8.6-4.9-5.7-9.9-3.8-3.1-4.6-4.2-3.6-5.3 1.8-2.2 2.5-1.7 5.8 3.5 6.2 10.1 17.8 13.4 27.3 7.8 2.5-1.4 4.8-3.6 5.1-4.7.7-2.8 2.5-2.5 3.9.5 1.1 2.4.7 3-4.4 8.3-6.4 6.5-8.5 10.2-9.7 16.9-1.1 5.6.1 9 5.4 16.4 4.5 6.1 7.1 7 10 3.7l2.2-2.5 2.1 2.4c1.5 1.7 2.8 2.3 4.2 1.8 1.8-.6 2-.2 2 4.2 0 3.7.8 6.2 3.3 10.3 3.6 6.1 10.6 12 14.3 12 2 0 2.4-.5 2.4-2.9 0-1.6.7-3.4 1.5-4.1 2.2-1.8 1.9-3.5-2-10.4-3.8-6.8-4.6-12.3-1.9-13.3 1.9-.7 3.4 1.3 3.4 4.5 0 1.3 1.4 3.7 3 5.4 2.6 2.5 3.6 2.9 6.3 2.4 8.3-1.7 12.7-2.2 12.7-1.4 0 .5-.7 1.9-1.6 3.3-1.4 2.1-1.4 2.6 0 5.3 2.8 5.3 14.9 7 19.6 2.7 2.9-2.6 2.5-3.5-1.9-3.5-2.2 0-4.4-.6-5.1-1.5-1.1-1.3-.9-2 1.2-4.3 6.4-6.9 6.3-12.9-.4-22.4-1-1.4-.9-2.1.5-3.6.9-1 1.7-3.1 1.7-4.6 0-5-5.6-13.5-11.1-16.8-4-2.4-3.6-3.6 1-3.6 2.5-.1 5.4-1 7.9-2.7 7.5-5 8.2-11.1.9-8.4-4 1.4-8.3.2-11.4-3.3-1.8-2.1-1.8-2.1.7-1.5 1.4.4 4.8 1 7.7 1.3 5.1.7 5.2.6 9.4-3.9 4.8-5 7.5-11.9 5.4-13.7-1.7-1.4-4-.4-5.3 2.6-.7 1.3-1.7 2.4-2.3 2.4-.7 0-2 .7-2.8 1.4-1.3 1.2-2.6 1.3-6 .5-6-1.3-13.1-7.6-21.5-19.1-10.3-14-16.2-17.3-30.4-16.9-10.2.3-14.7 2.2-24.2 10.4-.8.7-2.2 2.3-3 3.6-1.4 2.1-1.9 2.2-5.4 1.2-6.7-1.8-19.4-.9-24.6 1.8-8.9 4.6-13 10.6-13 19.1 0 2.7-.3 5-.7 5-1.4 0-7.6-4.1-12.4-8.1-11.2-9.4-17.5-9.4-23.9 0-2 3.1-4.4 6.9-5.3 8.6-.8 1.6-3.8 6.1-6.6 9.8-10.3 13.7-14.4 24.3-10.6 27.1 1.3 1 1.2 1.7-.9 5.8-2.1 4.2-2.3 5.6-1.9 14.5.3 5.4.9 11.4 1.5 13.3 1.2 4 5.3 8.8 8.6 10.1 1.7.7 2.2 1.6 2.2 4.4 0 1.9 1.5 6.4 3.2 10 3.6 7.2 3.2 8.5-2.5 8.5-3.9 0-9.3 2.5-14.1 6.3-2.3 1.9-6.2 4.8-8.8 6.5-3.8 2.6-5.1 4.3-6.5 8.4-1.2 3.4-3.3 6.6-6.1 9.2-6.7 6.4-9.4 11.6-8.6 16.8.4 2.4 1.5 5 2.5 5.8 1.2 1 1.9 3 2 6 .2 4.1-.3 6-3.2 13.8-1.4 3.7-3.9 2.2-7.2-4.3-1.7-3.3-5.6-10.5-8.6-16-3.3-5.9-5.8-11.9-6.2-14.9-.5-2.7-1.7-5.9-2.9-7.1-2.5-2.6-2.5-4.5-.1-7.6 2.8-3.7 4.8-8 5.4-12.1.3-2 1.7-5.4 3.2-7.5 2.8-4.3 2.6-6.8-.7-7.6-1.8-.5-2-1.1-1.4-4.2.6-2.8.2-4.5-1.4-7.3-2.6-4.4-2.9-13.3-.6-20.7.9-2.8 1.6-7 1.6-9.5 0-2.8.8-5.6 2-7.5 1.1-1.7 2-4 2-5.2 0-4.6 8.7-8.5 14-6.3 1.6.6 3.7 1 4.7.7 1.4-.3 1.2-.6-1.1-1.6-2.8-1.1-2.8-1.3-1.3-2.9 2.1-2.1 5.4-.5 4.9 2.4-.2 1.7 0 1.6 1.7-.4 3.4-3.9.1-8.6-4.7-6.7-2.2.8-2.7.4-2.4-2.2.2-1.1-.2-2.4-.8-2.8-1.8-1.1-6 2.4-6.7 5.6-.4 2.2-1.6 3.5-4.4 4.9l-3.9 1.8v-2.3c0-1.2.9-7.6 2-14.1 1-6.6 2.6-18.7 3.5-26.9 2-20.1 4.6-32.1 6.5-31.6 2.6.8 9.3.1 10.7-1.1 1-.8 2.3-.4 5.2 1.5 4.4 2.9 9.1 4.4 9.1 2.9 0-.5-1.3-1.5-3-2.2-3.7-1.5-3.8-2.8-.4-3.6 2.1-.5 3.1-.2 4.3 1.5 2 2.6 3.1 1.8 3.1-2.2 0-2-.6-3-2-3.4-1.1-.3-2-.9-2-1.4 0-.5-1.2-.6-2.7-.3l-2.8.7 2.9-3.1c2.1-2.2 3.3-2.9 4.1-2.2.9.7 1.6.6 2.5-.4 2.9-3.5-2.9-5-6.4-1.7-2.1 2-2.1 2-2.1-1.7 0-4.6-2.1-5.2-5.8-1.8-2.1 2-2.7 3.4-2.7 6.9 0 5.5-1.9 7.3-8.3 8-4.7.5-4.8.4-4.2-2 .3-1.3 1.2-6.5 2-11.6s2.1-11.6 3-14.6c1.3-4.1 1.5-7.2 1-12.5-.7-7.3-2.4-10.6-5.5-10.6-1.3 0-1.9-1.1-2.3-4.7-.7-6.4-4.3-9.7-9.7-8.8-4.2.7-6.5-1.1-3.5-2.7 3.8-2.2 5.5-4.8 5.5-8.6 0-2.1-.3-4.1-.6-4.5-.7-.6-8.5 3.9-9.6 5.7-2 2.9-.5-1.4 1.7-4.9 3-4.8 3.1-7.5.6-10.6l-1.9-2.3-3.1 3.3zm2.9 5.5c0 .8-.9 2.4-2 3.7-1.1 1.3-1.8 1.7-1.6.9.2-.8.7-2.8 1-4.3.6-2.7 2.6-2.9 2.6-.3zM214.5 16c.3.5.1 1-.4 1-.6 0-1.1-.5-1.1-1 0-.6.2-1 .4-1 .3 0 .8.4 1.1 1zm18.5 5.8c0 .9-.9 2.3-2 3-2.3 1.4-2.6.3-1-2.9 1.3-2.4 3-2.5 3-.1zm-13.2 4.9c-.2 1.1-1.4 1.9-3.1 2.1-3.3.4-3.6-1.1-.4-2.6s3.9-1.4 3.5.5zM248 55c0 1.1-.4 2-.9 2-1.1 0-2.2-2.6-1.4-3.4 1.2-1.2 2.3-.5 2.3 1.4zm-5.1 3.7c.1.7-.3 1.3-.8 1.3-1 0-2.1-4.7-1.2-5.5.6-.6 1.9 2.1 2 4.2zm-34.2.9c-.3.3-1.2.4-1.9.1-.8-.3-.5-.6.6-.6 1.1-.1 1.7.2 1.3.5zm25.4 11.7c-.8.8-1.1.2-1.1-1.9 0-4 1.4-5.4 1.8-1.9.2 1.5-.1 3.2-.7 3.8zm.9 2.7c0 .5-.4 1-1 1-.5 0-1-.5-1-1 0-.6.5-1 1-1 .6 0 1 .4 1 1zm0 3.4c0 .3-.4.8-1 1.1-.5.3-1 .1-1-.4 0-.6.5-1.1 1-1.1.6 0 1 .2 1 .4zm9.6 4.3c-1.1 1.1-1.7-.4-.9-2.3.7-1.8.8-1.8 1.1-.1.2 1 .1 2.1-.2 2.4zm-7 3c-1 1-1.9-.5-1-1.8.6-1.1.8-1.1 1.2 0 .2.7.1 1.5-.2 1.8zm26.9 1.3c-.9 2.9-2.6 1.2-1.8-1.8.4-1.5.9-2 1.5-1.4.6.6.7 2 .3 3.2zm-30.8 2.2c-.3.8-.6.5-.6-.6-.1-1.1.2-1.7.5-1.3.3.3.4 1.2.1 1.9zm-4.6 6.1c-1.3 1.3-1.5-2.1-.3-5 .6-1.5.8-1.3 1 1.1.2 1.6-.1 3.3-.7 3.9zM237 99c0 .5-.4 1-1 1-.5 0-1-.5-1-1 0-.6.5-1 1-1 .6 0 1 .4 1 1zm-8.8 4c-.2 1.6-.8 3-1.3 3-1 0-1.2-2.1-.3-4.4 1-2.7 2.1-1.8 1.6 1.4zm163.1 5.5c-.3.9-.8 1.4-1 1.1-.3-.3-.2-.9.2-1.5.9-1.6 1.5-1.3.8.4zM230 110.2c0 1.6-.3 1.9-1.1 1.1-.6-.6-.8-1.6-.5-2.2 1.1-1.7 1.6-1.3 1.6 1.1zm183.5 1.2c1.8 1.3 1.8 1.4-.1 1.8-2.9.8-12.4.9-12.4.2 0-3 9.1-4.5 12.5-2zm9.9 4.6c2.8 1 3.5 3 1.2 3-1.7 0-6.6-3.9-4.9-4 .6 0 2.3.4 3.7 1zm-52.7 2.7c5.6.9 2.6 2.1-3.6 1.6-4.9-.5-6.6-.2-9.6 1.6-5.1 3-6.4 2.6-3-.9 2.6-2.7 3.6-3.1 8-2.9 2.7 0 6.5.3 8.2.6zm18.8 3.3c-.3.5-1.5 1-2.6 1s-1.7-.5-1.4-1c.3-.6 1.5-1 2.6-1s1.7.4 1.4 1zm43 2c1.6 1.6 2.5 3.3 2.2 3.7-.7.6-6.7-5.1-6.7-6.3 0-1.2 1.9-.1 4.5 2.6zm-205 1c-1.1 1.2-1.3 2-.6 2 1 0 1.1 5.1.2 8.7-.1.2-.8.3-1.6.3-1.2 0-1.4-.8-.9-3.8.3-2 .5-4.4.5-5.2.1-2.8.8-4 2.5-4 1.6 0 1.6.2-.1 2zm98.6 6c5.2 3.9 12.1 8.3 15.5 9.9 3.3 1.6 9.5 5.7 13.7 9l7.7 6.1v5.3c0 5.7 2.3 10.6 6.7 14 2 1.6 2.3 2.5 1.7 4.6-.4 1.4-1 4.4-1.3 6.6-.5 3.4-1 4-3.4 4.3-3.4.4-5.3 3.5-3.2 5.2.8.7 2.4 1 3.5.7 2.3-.6 2.6.5.6 2.2-1.9 1.6-6.4.4-7.7-2-1.1-2.2.2-5.3 2.7-6.3 1.1-.4 1.4-1.3 1.1-2.8-.4-1.2-.1-2.8.5-3.5 1.5-1.8.2-4.3-2.2-4.3-2.8 0-3.6 2.7-1.5 5 1.6 1.8 1.6 2 .2 2-1 0-3-2.3-4.7-5.4-1.7-3-3.8-6-4.5-6.6-1.9-1.6-2-4.1-.2-3.4.8.3 2-.2 2.7-1.1 1.1-1.3 1.1-1.9-.4-3.3-1.6-1.6-1.8-1.6-3.7.7-1.6 1.9-2.2 2.1-3.4 1.1-1.9-1.6-1.9-3.6.1-4.4 1.7-.7 1.6-4.7-.3-5.3-.6-.2-2 .6-3.2 1.8-2.9 3.1-5.4 1-4.5-3.7.7-3.8-.7-4.5-3.7-1.8-2.3 2-4.2.9-3.6-2.2.6-3.4-1.8-5.2-4.1-3.1-2.2 2-3.7 1-3.9-2.6-.1-2.5.2-2.8 2.1-2.2 5.9 1.8 9.2 2.3 11.8 1.8 2.4-.5 2.8-.2 2.8 1.6 0 2.1 2.4 2.9 3.4 1.2 1.4-2.3-.3-3.8-11.9-10.7-5.1-3.1-15.3-6.4-19.5-6.4-1.3 0-3.2.7-4.2 1.7-3.3 3-3 .5.8-5.1 2.6-4 4.3-5.6 5.9-5.6 1.2 0 6.5 3.2 11.6 7zm95.9-4.8c0 .6-.6.5-1.5-.2-.8-.7-1.5-1.4-1.5-1.6 0-.2.7-.1 1.5.2.8.4 1.5 1.1 1.5 1.6zm-8 2.5c3.8 5.7 4.4 7.1 1.6 3.8-1.4-1.7-3.5-4-4.7-5.3-1.5-1.5-1.8-2.2-.8-2.2.8 0 2.5 1.7 3.9 3.7zm16.1-2c2.7 1.6 4.4 4.1 3.5 5-.2.3-2.2-1.1-4.3-3.1-4.1-3.8-3.8-4.6.8-1.9zm-21.7.9c.4 1 .1 1.4-.6 1.2-1.5-.5-2.3-2.8-1-2.8.5 0 1.3.7 1.6 1.6zm-50.4 1.9c0 .8-.4 1.5-1 1.5-.5 0-1-.7-1-1.5s.5-1.5 1-1.5c.6 0 1 .7 1 1.5zm23-.7c0 1.4-2.3 3.2-4.1 3.2-2.8 0-3.3-1.9-.7-2.9 2.9-1.2 4.8-1.3 4.8-.3zm-149 .6c0 .3-.4.8-1 1.1-.5.3-1 .1-1-.4 0-.6.5-1.1 1-1.1.6 0 1 .2 1 .4zm213 4.5c5.4 5.2 5 5.8-1 1.5-5.7-4.1-6.8-5.4-4.6-5.4.9 0 3.4 1.7 5.6 3.9zm-11.5.6c1.7 1.3 2.5 2.4 1.8 2.5-.7 0-2.4-1.1-3.9-2.5-3.5-3.2-1.8-3.2 2.1 0zm41-.4c-.8 1.2-7.5 1.2-7.5 0 0-.6 1.5-1.1 3.3-1.3 3.7-.4 5 0 4.2 1.3zm-30 4.9c5.8 5 8.5 6.5 9.4 5.2.3-.6 1.8 0 3.6 1.5l3 2.5-3-.7c-1.6-.3-4.3-.9-6-1.2-3.5-.7-6.9-3.1-10.8-7.9-3.8-4.6-1.9-4.3 3.8.6zm-52-1.5c.6.1-.3.8-2 1.4-3.2 1.3-9.6.3-10.2-1.5-.3-1 9-.9 12.2.1zm36.9.1c.3.8.2 1.2-.4.9-.6-.3-1-1-1-1.6 0-1.4.7-1.1 1.4.7zm32.1-.6c-.3.5-1.2.7-2 .3-2.1-.7-1.9-1.3.6-1.3 1.1 0 1.8.4 1.4 1zm-234.5.4c0 .3-.4.8-1 1.1-.5.3-1 .1-1-.4 0-.6.5-1.1 1-1.1.6 0 1 .2 1 .4zm89.3 4.2c1.8.9 3.4 1.8 3.6 2 .9.8-3.4 4.4-5.3 4.4-1.5 0-1.7-.3-.8-1.2 1.8-1.8 1.4-3.8-.7-3.8-1.3 0-2.1.8-2.3 2.2-.2 1.8-1.2 2.4-4.7 3-2.4.4-4.8.5-5.3.2-.6-.4.7-2.4 2.8-4.5 4.3-4.4 7.4-4.9 12.7-2.3zm37.7-.1c0 .8-.4 1.5-1 1.5-.5 0-.7-.7-.4-1.5.4-.8.8-1.5 1-1.5.2 0 .4.7.4 1.5zm80.5-.5c.3.5.2 1-.4 1-.5 0-1.3-.5-1.6-1-.3-.6-.2-1 .4-1 .5 0 1.3.4 1.6 1zm-22.3 4.7c1.2 2.7 2.4 5.2 2.6 5.7.3.5 0 .6-.6.2-.7-.4-1.2-1.2-1.2-1.8 0-.5-.9-2.1-2-3.5-1.8-2.4-2.7-5.3-1.5-5.3.3 0 1.5 2.1 2.7 4.7zm22.7 5.8c3.2 2.1 4.6 3.5 3.5 3.5-2.1 0-14.4-10.5-14.4-12.3 0-.6 1.2.3 2.8 2.1 1.5 1.7 5.1 4.7 8.1 6.7zM229 147.9c0 .6-.4 1.3-1 1.6-.5.3-1-.1-1-.9 0-.9.5-1.6 1-1.6.6 0 1 .4 1 .9zm-3 1.9c0 .4-.7 1.8-1.6 3-2.1 3-1 4.1 1.6 1.7 2-1.8 2.5-1.1 1.4 1.9-.4 1.1-1.2 1.3-2.9.6-1.3-.5-2.6-.6-2.9-.3-.8.8-.8-2.5 0-5.5.6-2 4.4-3.3 4.4-1.4zm7 .1c0 .6-.4 1.3-1 1.6-.5.3-1-.1-1-.9 0-.9.5-1.6 1-1.6.6 0 1 .4 1 .9zm158.5.1c-.3.5-1.3 1-2.1 1s-1.4-.5-1.4-1c0-.6.9-1 2.1-1 1.1 0 1.7.4 1.4 1zm74.5-.1c0 1.5-2.6 3.1-5.1 3.1-2.8 0-5.9-2.5-3.9-3.2 2-.6 9-.6 9 .1zm-170 1c0 1.3-2.9 3.5-3.7 2.8-.7-.8 1.5-3.7 2.8-3.7.5 0 .9.4.9.9zm130.5 3.6c2 1.6 2.5 2.4 1.4 2.5-.8 0-2.6-1.1-3.9-2.5-3-3.2-1.4-3.2 2.5 0zm-105 1.5c3.3.8 14.8 8.5 18 12l1.9 2.1-2.7-.6c-3.7-1-3.6 1.3.4 5.1 1.7 1.6 4.6 5.5 6.6 8.6 3.5 5.6 5.7 6.6 6.6 3 .7-3.2 2.6 3.5 2 7.2-1.1 7 5.3 11.9 12.6 9.7 5.4-1.6 5.8-1.4 6.6 1.6.3 1.6 2.7 7 5.3 12 2.5 5.1 4.3 9.5 3.9 9.9-.3.3-2.3-.7-4.4-2.3-2.1-1.6-5.6-3.5-7.8-4.3-6.2-2-14.3-6.9-16.3-9.8-1-1.5-3.8-7.4-6.2-13.2-6.3-15.3-10.7-20.7-20.7-25.3-4.1-1.9-6.3-2.2-15.4-2-12.2.3-13.8.7-19.9 5.8-4.7 4-6.4 3.3-3.2-1.2 1-1.6 2.4-4.2 2.9-5.8.6-1.9 1.7-3.1 3.1-3.3 1.3-.2 2.9-1.7 3.8-3.4 1.4-2.7 1.8-2.9 2.6-1.5 1.2 2.3 2.5 2.1 3.3-.3.4-1.1 1.2-2 1.8-1.9 2.6.4 7.6-1.4 8.1-2.8.4-1 1.2-1.3 2.4-.8.9.4 3.1 1.1 4.7 1.5zm116.9 1.5c3.3 1.4 4 1.3 3.7-.8 0-.4 1.3-.7 2.9-.7 2 0 3 .5 3 1.5 0 .9-.9 1.5-2.2 1.5-1.3.1-3.4.7-4.8 1.5-3.4 1.9-3.3 1.9-5.8-1.5s-2-3.6 3.2-1.5zm-207 1c-.6 1.6-2.4 2.1-2.4.7 0-1.1 1.1-2.2 2.1-2.2.5 0 .6.7.3 1.5zm-10 2.7c-1.1 7.8-2.7 22.9-2.8 26-.1 2-.7 4.3-1.4 5-1.1 1.1-1.3.7-.8-2.2.3-1.9 1.1-8 1.7-13.5 1.7-15.4 2.1-17.5 2.9-17.5.4 0 .6 1 .4 2.2zm202.3-.2c1.4 1.1 3.6 2 4.9 2 1.7 0 2.9 1.1 4.4 4 1.2 2.3 3.1 4.5 4.4 5 3.3 1.2 4.1 2.9 1.9 3.7-1 .3-2.8 1.5-4.1 2.6-1.7 1.6-2.5 1.8-3.4.9-.9-.9-.9-1.5 0-2.4 3.3-3.3-.6-10.8-6.6-12.9-1.5-.5-3.3-1.8-4-2.9-1.6-2.5-.7-2.5 2.5 0zm-24.4 6.1c-3.9 3.7-5.3 5.8-5.3 7.9 0 3.3 2.4 5.9 3.4 3.5.3-.8.3-2.1 0-2.9-.3-.8-.1-1.7.5-2 1.8-1.1 2.2 3.2.6 7.1-1.4 3.5-1.4 4.2 0 6.9 2.8 5.5 1.2 7.4-2.4 2.8-3.1-4-4.7-12.5-3.2-17.6 1.5-4.7 6.9-10.8 9.8-10.8 1.3 0 .4 1.4-3.4 5.1zm24.5 2.3c1.7 1 .6 2.1-2.9 3-2.4.5-2.6.3-2.1-1.9.4-2.5 2.2-2.9 5-1.1zm-9.6 1.8c-.7.7-1.2.8-1.2.2 0-1.4 1.2-2.6 1.9-1.9.2.3-.1 1.1-.7 1.7zm-9.1 1.1c-1.3 1.3-2.6.3-1.6-1.2.3-.6 1.1-.8 1.7-.5.6.4.6 1-.1 1.7zm4.4 1.7c.3.5.1 1-.4 1-.6 0-1.1-.5-1.1-1 0-.6.2-1 .4-1 .3 0 .8.4 1.1 1zm6.8 2.1c-.4 1.3-.9 1.7-1.5 1.1-1.1-1.1-.3-3.2 1.2-3.2.4 0 .6.9.3 2.1zm6.7 1.9c0 1.8-2.4 6.5-4.6 9-1.2 1.4-2.8 3.8-3.5 5.5-1.6 3.4-2.7 3.7-4.2 1.4-.7-1.2-.6-3.1.3-6.3 1.2-4.4 1.4-4.7 4.1-4.1 2.1.5 2.9.3 2.9-.7 0-.7.7-2.4 1.6-3.6 1.6-2.3 3.4-2.9 3.4-1.2zm42 0c0 .5-.7 1-1.6 1-.8 0-1.2-.5-.9-1 .3-.6 1-1 1.6-1 .5 0 .9.4.9 1zm-62.8 4.2c-.7.7-1.2.8-1.2.2 0-1.4 1.2-2.6 1.9-1.9.2.3-.1 1.1-.7 1.7zm-70.9 3.1c3.6 4.2 4.3 7.1 2.3 10.2-2.1 3.2-2 4.7.5 7.9 1.6 2 2.9 2.6 6 2.6 5.5 0 5.1 2.1-1.3 6.3-10.7 6.8-10.9 6.9-12.3 5.7-1.8-1.5-17.1-2.3-19.6-1-2.3 1.3-2.5 4-.3 4 .8 0 1.2.4.9 1-1 1.6-2.1 1.2-3.3-1.3-4.2-8.7-6.2-13.9-6.2-16.2 0-2.3.4-2.6 2.8-2.3 2.2.2 2.7.7 2.4 2.7-.4 3.8 1.7 8.8 3.8 9.4 1.1.3 2.2.2 2.4-.1.2-.4-.2-4.3-.9-8.7-1.4-9.3-4.6-17.1-7.2-17.8-1.2-.3-1-.5.9-.6 1.4 0 4-1.3 5.7-2.7 2.2-1.8 3.8-2.4 5.4-2 1.2.3 2.9.1 3.7-.4.8-.5 3.8-.7 6.5-.4 4 .5 5.6 1.2 7.8 3.7zm108.7-2.9c0 .3-.4.8-1 1.1-.5.3-1 .1-1-.4 0-.6.5-1.1 1-1.1.6 0 1 .2 1 .4zm3.8 4.6c.3 3 .2 3.2-1.2 2.1-1.9-1.6-2.2-6.5-.3-5.9.6.3 1.3 2 1.5 3.8zm8.7-1.9c.5.6.3.9-.7.9-.9 0-1.8.5-2 1.2-.6 1.8-2.8 0-2.8-2.3 0-1.6.4-1.9 2.3-1.4 1.2.4 2.6 1.1 3.2 1.6zm-155 .9c1.8.8 1.7.9-.7.9-1.6.1-2.8-.4-2.8-.9 0-1.2.8-1.2 3.5 0zm-69.8 5.2c-.3.8-.6.5-.6-.6-.1-1.1.2-1.7.5-1.3.3.3.4 1.2.1 1.9zm69.1 1c-.6 1.8-2.8 2.1-2.8.4 0-.9.7-1.6 1.6-1.6.9 0 1.4.5 1.2 1.2zm149.2 5.9c0 1.1-.4 1.7-1 1.4-.5-.3-1-1.5-1-2.6s.5-1.7 1-1.4c.6.3 1 1.5 1 2.6zm-143 0c0 .6-.4.7-1 .4-.5-.3-1-1.1-1-1.6 0-.6.5-.7 1-.4.6.3 1 1.1 1 1.6zm139.9 1.1c1.8 2 2.6 3.7 2 4.2-1.2 1.3-5.9-3.2-5.9-5.6 0-2.5.6-2.3 3.9 1.4zm-103.2 2.5c-1.1 1-2.7-.8-2.7-3v-2.1l1.6 2.2c.9 1.3 1.4 2.6 1.1 2.9zM216.3 200c.3 1.1.1 2.3-.4 2.6-.5.3-.9-.6-.9-2 0-3.1.6-3.4 1.3-.6zm239.7.5c0 .8-.7 1.5-1.5 1.5-1.6 0-2-1.2-.8-2.3 1.1-1.2 2.3-.8 2.3.8zm-162.6 1.1c.9 2.2-.3 3.2-1.4 1.4-1.2-1.9-1.2-3-.1-3 .5 0 1.2.7 1.5 1.6zm-73.2 6.6c-.7.7-1.2.8-1.2.2 0-1.4 1.2-2.6 1.9-1.9.2.3-.1 1.1-.7 1.7zm130.5 4.7c.6 1 .9 2.9.6 4.1-.6 2.1-.3 2.2 2 1.6 1.5-.3 2.7-.4 2.7-.1 0 1.2-2.3 5-4.6 7.8-1.6 1.9-2.4 4.2-2.4 6.5 0 5.6-1 8.4-2.8 7.7-.8-.3-2-.1-2.7.5-.9.8-1.5.8-2 0-1-1.6-2.5-.1-2.5 2.5 0 2.7-1.8 4-7.3 5-3.6.7-3.7.6-4.3-2.4-.4-1.7-1.1-3.4-1.6-3.7-1.4-.9-2.7 1.4-2.1 3.7.3 1 .1 1.9-.5 1.9-.5 0-1.2-1.1-1.5-2.5-.3-1.8.2-3 1.7-4 3.1-2.2 4.3-1.8 5 1.5.7 3.6 3.6 4.2 3.6.7 0-1.3-.6-2.9-1.2-3.6-1.1-1-.9-1.5.7-2.8 1.9-1.5 1.9-1.5-.5-.9-13.7 3.3-15.5 3.2-16.2-.9-.4-2.9 3.7-3.4 4.5-.6.8 3.1 3.7 2.7 3.7-.5 0-2.1.9-2.9 5.8-5 6.4-2.9 17.2-10.6 15.5-11.1-.6-.2-3.9 1.4-7.4 3.6-4.4 2.8-9.2 4.7-15.4 6.2-8.1 1.9-9.6 2-15.7.8-3.8-.7-6.8-1.5-6.8-1.8 0-.3 4.4-.6 9.8-.7 11.4-.1 16.9-2 29.7-10.2 8.8-5.7 10.4-6.1 12.2-3.3zm81.3 1.2c0 .5-.4.9-1 .9-.5 0-1-.7-1-1.6 0-.8.5-1.2 1-.9.6.3 1 1 1 1.6zm-230 6.4c0 .8-.4 1.5-1 1.5-.5 0-1-.7-1-1.5s.5-1.5 1-1.5c.6 0 1 .7 1 1.5zm6.7.2c-.9.9-1.9 1.4-2.3 1.1-1-1 .6-2.8 2.4-2.8 1.5 0 1.5.1-.1 1.7zm-9.4 7c.5 2.6.4 2.6-.9.9-.7-1-1.1-2.3-.8-2.7.8-1.4 1.1-1.1 1.7 1.8zM210 231c0 .5-.9.6-2 .3s-2-.9-2-1.3c0-.5.9-.6 2-.3s2 .9 2 1.3zm-7 1.1c0 .5-.4.9-1 .9-.5 0-1-.7-1-1.6 0-.8.5-1.2 1-.9.6.3 1 1 1 1.6zm152.3 3.3c.2 3.7 2.1 4.8 4.4 2.5 1.3-1.3 8.3-.4 10.8 1.5 1.5 1.1.7 1.9-6.6 6.7-21.9 14.5-30.3 17.9-47.5 19.5-5.9.6-7.6.3-11.1-1.4-3.9-2-5.8-4.4-4.6-5.6.4-.3 1.5.2 2.5 1.1 2.7 2.4 4.9.2 2.5-2.5-2.8-3.1-2-4.4 1.3-2 2.2 1.6 3.3 1.9 4.1 1.1.9-.9.4-1.8-1.7-3.6-3.4-2.9-2.6-4.7.9-2.4 6.3 4.1 34-1.5 40-8.1 1-1.1 2-4.3 2.4-7.1.7-5.8 2.3-5.6 2.6.3zM220 232c0 .5-.4 1-1 1-.5 0-1-.5-1-1 0-.6.5-1 1-1 .6 0 1 .4 1 1zm91.2 1.6c.3.3.3 1.4.1 2.5-.8 2.8-4.7 2.1-5.1-.9-.3-1.7.1-2.2 2.1-2.2 1.3 0 2.6.3 2.9.6zm-101.4 4c1.2.4 2.2 1 2.2 1.5 0 1.5-3.7 1-5-.6-1.3-1.6-.8-1.8 2.8-.9zm-4.3 2.4c-.3.5-1.1 1-1.6 1-.6 0-.7-.5-.4-1 .3-.6 1.1-1 1.6-1 .6 0 .7.4.4 1zm17.5-.6c0 .3-.4.8-1 1.1-.5.3-1 .1-1-.4 0-.6.5-1.1 1-1.1.6 0 1 .2 1 .4zm165.9.5c1.1.7 1.1 1.3-.3 3.2-2.1 3.1-2 4.8.6 7.6 1.7 1.8 3.2 2.3 7.3 2.3 5.9 0 7.9-1.3 6.4-4.3-.9-1.5-.8-1.8.3-1.5.7.3 1.4 1.4 1.6 2.6.2 1.2 1.3 2.9 2.5 3.7 1.8 1.3 1.9 1.7.8 2.4-.8.5-2.9.7-4.7.4-2.8-.5-3.9.1-8 4-4.5 4.2-4.7 4.7-3.6 7.1.6 1.5 2.2 3 3.6 3.5 1.3.5 2.6 1.7 2.9 2.5.9 2.2 4.4 2 7.4-.4 4-3.1 8.2-2.5 6.3 1-.6 1.2-.5 2.3.5 3.6 2.3 3.1 1.7 4.4-3.1 6.4-7.4 3.2-12.4 2.3-12.4-2.2 0-1.3-1-2-3.1-2.5-1.7-.3-3.3-1.2-3.6-1.9-.8-2.1-4-1.7-6.4.7-1.7 1.7-2.3 1.9-3 .8-1.2-1.9-1.1-3.1.6-5.3 3.3-4.4.6-10.9-5.8-14.2-4.7-2.5-16.7-.8-16.7 2.2 0 1.2 1 1.3 4.8.8 6.6-.8 10.7 1.3 12.1 6.2.8 2.8.7 4.1-.3 5.6-1.2 1.6-1.4 1.7-1.9.3-.8-1.9-3.1-1.9-4.7 0-1 1.3-1 1.9.4 3.3 2.2 2.5 2 3.2-.9 3.2-1.4 0-3 .9-3.7 2-1.4 2.1-7.2 2.8-8.3 1-.3-.6.4-1 1.6-1 3.7 0 8.9-3.9 8.9-6.6 0-1.4-.7-2.7-1.7-3.1-1-.4-2.2-1.2-2.6-2-2-3.3-5.7 0-5.7 5.2 0 2.2-.4 2.6-2.2 2.3-2.9-.4-3.5-3.8-1.3-7.2 2-3 1.7-9-.5-9.4-.8-.1-3.2 1.1-5.2 2.8-2.8 2.3-4.1 4.5-5.8 10-2.3 7.5-4 9-4 3.7 0-7.5-8.5-9-8.7-1.6 0 2.8.6 3.8 3.4 5.6 1.9 1.3 4.8 2.3 6.4 2.3 2.1 0 3.8 1 6.3 3.7 1.9 2.1 5.2 4.9 7.5 6.3 2.9 1.8 3.9 3 3.5 4.3-.7 2.3 1.2 4.7 3.7 4.7 2.4 0 2.4 1.2-.1 3.5-2.1 1.9-2.6 5-1 6 .6.3 1 1.4 1 2.4s.9 2.5 2.1 3.2c1.8 1.2 2.1 2.7 2.6 11.6l.6 10.1-3.2 1.6c-3.8 2-3.9 4.1-.5 7.7 3.1 3.3 2.6 5.9-1.1 5.9-3.1 0-4.3 2.5-2.5 5.3 1 1.7 1 2.3-.6 3.4-1 .7-2.6 1.1-3.6.7-1.3-.4-2.1.2-3 2.1-1 2.2-1.6 2.5-3.7 2-4.6-1.2-9.1-6.8-9.1-11.5 0-3 2.2-2.5 6.6 1.5 5.9 5.4 9.4 4.5 9.4-2.5 0-4.1-2.1-5.4-6.4-3.9-2.8 1-3.8 1-5-.1-1.3-1-1.4-1.6-.4-2.7.9-1.1 2.5-1.3 6.6-.8 4.3.5 5.7.3 7.2-1 1.8-1.7 1.8-2.9-.2-7.1-1.9-4-8.6-5.6-14.4-3.4-1.5.6-6.1 4.6-10.1 8.8-7.3 7.7-9.6 8.2-4.7 1 1.5-2 2.4-4.4 2-5.3-.6-1.7-3.7-2-5.2-.6-.5.6-4.8.6-10.4.2l-9.5-.7 3.7-1.7c2.1-.9 5-1.7 6.5-1.7 6.9 0 18.5-12.5 19.8-21.4.7-4.7-1.2-11.7-4.7-17.4-2.2-3.5-9.3-8.2-12.5-8.2-1.1 0-2.6-.7-3.3-1.5-1-1.2-1.6-1.3-2.6-.4-.8.6-1.4 1.6-1.4 2.2 0 1.7 3.2 4.7 5 4.7 3.1 0 11.7 9.1 13.1 13.9 1.1 3.9 1.1 5-.7 10-1.7 4.9-2.6 5.9-6.4 7.9-5.1 2.6-8.3 2.5-8.8-.1-.4-1.8.3-2.2 5.9-3.1 4.7-.8 7.9-3.9 7.9-7.6 0-2.3-.5-3-2-3.2-1.1 0-2.6-.1-3.2-.2-.7-.1-1.5 1.2-1.8 2.9-.5 2.8-.8 3-5.3 3-4.9 0-7.2 1.7-7.2 5.5 0 2.4-3.4 2.3-5.6-.2-1.1-1.3-2.9-4.2-3.9-6.6-1.8-4-1.8-4.3-.2-4.8.9-.3 2.5-1 3.4-1.5 1-.5 2.9-.9 4.2-.9 1.3 0 3.4-.8 4.7-1.8 2.1-1.8 2.1-2 .7-4.1-.9-1.3-2.9-2.9-4.3-3.7-3.3-1.7-5.2-.6-5.7 3.3-.4 3.2-3.2 5.3-4.9 3.6-1.4-1.4-.8-3 4.6-10.8 1.9-2.7 3.5-5.3 3.5-5.7 0-1.6-5-3.9-7-3.3-2.8.9-9 6.4-9 8 0 1.5-3.8 6.5-5 6.5-.5 0-.6-2.3-.3-5.1.6-5.1.6-5.1-1.8-4.4-1.3.4-3.4 1.7-4.6 2.8-1.3 1.1-2.6 1.7-3 1.3-1.1-1 3.5-18.7 6.6-25.2 2.5-5.2 2.9-5.6 3.5-3.6.4 1.2 1.7 2.7 2.8 3.3 1.7.9 2.5.6 5-1.8 1.6-1.5 3.4-4.7 4-6.9l1.2-4.2 1.8 3.4c1 1.9 1.8 4.5 1.8 5.8 0 3.1 4.9 7.3 9.5 8.2 6 1.1 10.1-.3 13.7-4.6 2.8-3.3 4.5-4.3 10.3-5.8 8.4-2.3 12.1-4 20-9.2 3.3-2.2 7.1-4.6 8.5-5.3 1.4-.7 5-2.9 8.1-5 8.8-6 17.6-8.8 20.8-6.8zm-93.9 6.2c0 .5-.4.9-1 .9-.5 0-1-.7-1-1.6 0-.8.5-1.2 1-.9.6.3 1 1 1 1.6zm104.5-1.2c1 1.8-1.7 2.3-3.3.7-1.5-1.5-1.5-1.6.5-1.6 1.2 0 2.4.4 2.8.9zM207 246.5c-.7.9-1.5 1.3-1.7 1.1-.7-.7.7-2.6 1.9-2.6.6 0 .6.6-.2 1.5zm15.5-.5c.3.5.1 1-.4 1-.6 0-1.1-.5-1.1-1 0-.6.2-1 .4-1 .3 0 .8.4 1.1 1zm-21.5 1c0 .5-.4 1-1 1-.5 0-1-.5-1-1 0-.6.5-1 1-1 .6 0 1 .4 1 1zm1 9c0 1.1.5 2 1 2 .7 0 .7.7-.1 2.1-1.3 2.5-2.4 1.6-3.2-2.9-.5-2.4-.3-3.2.8-3.2.8 0 1.5.9 1.5 2zm81.2 1.2c-.7.7-1.2.8-1.2.2 0-1.4 1.2-2.6 1.9-1.9.2.3-.1 1.1-.7 1.7zm-7.7 11.3c-1.9 4.4-3.5 8.6-3.5 9.2 0 2-1.2 1.5-5.4-2.1-3-2.6-3.7-3.7-3.1-5.4.6-2.1 2-2.7 5.8-2.4 1.2.1 2.3-1 3.4-3.6 2.3-5.5 3.3-6.6 5-5 1.1 1.1.7 2.7-2.2 9.3zm145.8-2.1c2.9 5.4 3.7 9.2 2.7 12.7-.7 2.4-.5 3.3 1.4 5.2 1.3 1.2 2.9 3.7 3.6 5.5 1.1 2.9 1.1 3.5-.6 5.1-1.1 1-2.6 1.8-3.4 1.9-2.9.3-10.5 1.9-12.1 2.6-1.2.5-2.7-.5-5.2-3.4-2.8-3.3-4.1-4.1-6.3-3.8-2.6.3-4.8 2.8-2.4 2.8.6 0 3.8 2.9 7 6.4 7.3 7.7 9.8 8.9 18.7 8.4 5.6-.2 6.9 0 7 1.2 0 .8.4 3.7.8 6.5.7 4.9.7 4.9-1 2.7-.9-1.3-1.8-3-1.9-3.9-.2-1.3-1.7-1.7-7.7-1.8-8.4-.2-12.7-1.9-16.1-6.6-2.9-3.9-7.8-6.9-11.2-6.9-1.4 0-2.6-.5-2.6-1 0-.6.7-1 1.6-1 3.2 0 .6-2.5-3-2.8-4.1-.4-4.6-2.7-.5-2.8 5.6-.1 6.2-3.4.6-3.4-2.4 0-3.5-.6-4.3-2.4-1-2.2-.9-2.5 1.5-2.9 1.9-.4 3.3.1 5.2 1.9 3.4 3.3 8.5 4 13.3 2 2.1-.9 5.6-1.6 7.7-1.6 5.6 0 7.3-2.7 5.1-8.6-1.5-4.1-1.5-4.4.3-6.4 1-1.1 1.6-2.2 1.4-2.4-.3-.3-5.4-1-11.4-1.6-6-.6-11.1-1.3-11.3-1.5-1.3-1.2 1.6-2.3 7.9-2.8 4.4-.4 7.8-1.2 8.8-2.1 1.9-1.9 3.4-.8 6.4 4.8zm-218.4.3c-.1 3.4-.2 3.5-.9 1.3-1.1-3.6-1.1-5 0-5 .6 0 1 1.7.9 3.7zm-58 .2c1.1.7.9 1-.8 1.6-1.1.3-2.5.4-3 .1-.5-.3-1.2 1-1.6 3-.5 2.7-1 3.4-2.2 2.9-.9-.3-2 0-2.4.7-.6.9-1.1.5-1.7-1.2-1.8-4.7 7-10.1 11.7-7.1zm76.1 8.2c-.7 1.1-1.4 1.8-1.7 1.5-.8-.8.5-3.6 1.7-3.6.7 0 .7.6 0 2.1zm-109.4 4.6c-1 1-1.9-.5-1-1.8.6-1.1.8-1.1 1.2 0 .2.7.1 1.5-.2 1.8zm53-.8c2.8 1.1 3.1 1.6 3.2 6.2.1 3.7-.3 5.2-1.5 5.6-.8.3-1.9 0-2.3-.8-.5-.7-1.2-1-1.6-.7-.3.4.8 2.1 2.5 3.8 1.7 1.7 3.1 3.6 3.1 4.1 0 .5-1.9.9-4.3.9s-4.7.4-5.2.9c-.6.5-2.3.7-3.8.4-2.2-.4-2.8-1-2.3-2.5.3-1.3-.5-3-2.5-4.9-1.6-1.5-2.9-3.5-2.9-4.2 0-1.3 4-3.7 6.2-3.7.6 0 2-.7 3-1.7 1.7-1.5 1.8-1.5 1.8 0 0 1 .5 1.7 1 1.7.7 0 .7-.7 0-2.1-.9-1.5-.8-2.4.1-3.5.7-.8 1.5-1.3 1.8-1.1.3.2 2 .9 3.7 1.6zm48.4.1c0 .5-.4 1-1 1-.5 0-1-.5-1-1 0-.6.5-1 1-1 .6 0 1 .4 1 1zm-63.4 1.5c.2.5-.5 2-1.4 3.3-1.5 1.9-2.5 2.3-5.3 1.9-3-.3-3.2-.5-1.2-1.2 1.3-.4 2-1.1 1.7-1.6-.3-.5.2-.9 1-.9.9 0 1.5-.3 1.5-.8-.3-1.7.2-2.3 1.8-2 .9.2 1.8.7 1.9 1.3zm25.9.5c3.6 1.4 2.2 3-2.6 3-3.2 0-3.9-.3-3.9-2 0-2.3 2.3-2.6 6.5-1zm199.5 4.5c-.7.8-2.2 1.5-3.4 1.5-1.9 0-1.8-.2.9-2.4 3-2.5 4.7-1.8 2.5.9zm-238 .1c0 .8-.4 1.2-1 .9-.5-.3-1-1-1-1.6 0-.5.5-.9 1-.9.6 0 1 .7 1 1.6zm74.8.2c.2.7-.3 1.2-1.2 1.2-.9 0-1.6-.7-1.6-1.6 0-1.7 2.2-1.4 2.8.4zm15.9 2.9c7.3 14.1 12.3 24.3 13.7 27.5 1 2.5 2.1 3.8 3.4 3.8 4 0 8.7 7.6 7.8 12.5-.5 2.2-.2 3.6.9 4.5 2.2 1.8 1.9 2.6-2 5-2.5 1.6-4.3 2-6.5 1.5-3.7-.8-3.7-1.4 0-5 1.7-1.6 3-3.5 3-4.2 0-1.7-5-1.7-8.5-.1-2.4 1.1-2.9.9-4.5-1.2-1.3-1.8-1.8-3.7-1.5-6.5.5-5.3 0-5.8-3.8-3.9-3.2 1.6-3.2 1.6.6-1.7l3.8-3.4-1.6-3.3c-.9-1.8-2.4-3.2-3.4-3.2s-3.2-.5-5-1.1l-3.2-1.1 4.6-2.9c2.5-1.6 4.5-3.3 4.5-3.8 0-1.9-2-2.2-5-.6-1.7.9-3.9 1.4-4.8 1.2-1.3-.3-1.1-.7 1-1.7 3.6-1.7 4.3-3.9 1.6-4.9-1.4-.5-1.7-1-1-1.5 2.2-1.3 1.2-3.5-2-4.4l-3.1-.8 3.4-2.2c4.6-2.9 5.4-2.8 7.6 1.5zM98 291.2c0 .6-.7.5-1.5-.2s-1.5-1.7-1.5-2.2c0-.6.7-.5 1.5.2s1.5 1.7 1.5 2.2zm18.4.4c.3.8.2 1.2-.4.9-.6-.3-1-1-1-1.6 0-1.4.7-1.1 1.4.7zm268.6-.7c0 .5-.7 1.1-1.5 1.5-.9.3-1.5 0-1.5-.9 0-.8.7-1.5 1.5-1.5s1.5.4 1.5.9zm-244 2.3c0 1.3-2.3.5-2.8-1-.2-.7.2-1 1.2-.6.9.3 1.6 1.1 1.6 1.6zm120.8 0c-.2.6-1 1.4-1.6 1.6-.7.2-1-.2-.6-1.2.7-1.8 2.8-2.2 2.2-.4zm-82.2 8.4c.1 3.4.4 6.6.8 7.2 1 1.6-.4 6.3-1.8 5.9-.6-.2-1.2-2.4-1.4-5-.2-3.2-.7-4.4-1.5-4.1-.7.2-2.3-.9-3.6-2.6-2.3-3.1-2.5-6.5-.4-6.5.6 0 1.5-.4 1.9-.8.5-.4 2-.7 3.4-.5 2.4.3 2.5.6 2.6 6.4zM207 297c0 1.1-.7 2-1.5 2s-1.5-.9-1.5-2 .7-2 1.5-2 1.5.9 1.5 2zm12.7-.4c-.3.3-1.2.4-1.9.1-.8-.3-.5-.6.6-.6 1.1-.1 1.7.2 1.3.5zM124 298c0 .5-.4 1-1 1-.5 0-1-.5-1-1 0-.6.5-1 1-1 .6 0 1 .4 1 1zm256.2 4.2c.9 1.5.9 9.3 0 12.6-.4 1.2-1.8 2.8-3.2 3.5-3.4 1.7-3.6 3.9-.5 7.5 2.4 2.9 2.6 3.6 1.9 9.2l-.7 6 4.1 3.7c3.1 3 4 4.6 4 7.2.1 3.6 1.6 5.3 3.9 4.4.7-.3 1.3.1 1.3 1s-1.4 1.6-4.2 2c-2.9.4-5 1.4-6.5 3.2-2.8 3.2-2.8 4-.4 6.4 2 2 2 2-2.7 2.6-2.6.4-5.5.9-6.4 1.2-2 .5-2.2-.5-.9-4.1.7-1.7 1.5-2.3 2.9-1.9 1.6.4 2.2-.5 3.6-4.7 2.5-7.6.4-8.3-3.4-1.2-1.9 3.7-1.9 3.7-2 .9 0-1.5-.6-4.3-1.4-6.2-1.1-2.6-1.4-7.8-1.3-21.7.2-16.5.4-18.3 2-18.6 2.2-.4 2.2-2 0-4.4-1.3-1.4-1.4-2.1-.5-3 1.7-1.7 1.5-3.5-.8-5.8-2-2-1.9-2 .6-3.3 2.3-1.2 3.1-1.1 6.2.4 2 1.1 3.9 2.4 4.4 3.1zm-114.1-.5c-.9 1.6-1 1.4-1.1-1.2 0-2.1.3-2.6 1.1-1.8s.8 1.6 0 3zm-160.5 0c-1 1-1.9-.5-1-1.8.6-1.1.8-1.1 1.2 0 .2.7.1 1.5-.2 1.8zm-32.8 0c-.8 1-2.1 3.7-2.8 6.1-1.9 6-3.5 6.6-2.6 1.1.4-2.4 1.7-5.4 2.8-6.6 2.5-2.7 4.8-3.1 2.6-.6zm315.2-1.3c0 .3-.4.8-1 1.1-.5.3-1 .1-1-.4 0-.6.5-1.1 1-1.1.6 0 1 .2 1 .4zM90 305c0 1.1-.4 2-.9 2s-.7-.9-.4-2c.3-1.1.7-2 .9-2 .2 0 .4.9.4 2zm3.7.2c-.3.8-.6.5-.6-.6-.1-1.1.2-1.7.5-1.3.3.3.4 1.2.1 1.9zm111.8.3c0 1.7-.6 1.9-3.5 1.7-1.9-.2-3.9-.7-4.4-1.2-1.6-1.6.6-3.1 4.2-2.8 2.9.2 3.7.7 3.7 2.3zm-20-.6c.3.5.1 1.2-.5 1.6-.5.3-1-.1-1-.9 0-1.8.6-2.1 1.5-.7zm-48 1c.3.5.1 1.2-.5 1.6-.5.3-1-.1-1-.9 0-1.8.6-2.1 1.5-.7zm17.5-.5c0 .3-.4.8-1 1.1-.5.3-1 .1-1-.4 0-.6.5-1.1 1-1.1.6 0 1 .2 1 .4zm38 1c0 .3-.4.8-1 1.1-.5.3-1 .1-1-.4 0-.6.5-1.1 1-1.1.6 0 1 .2 1 .4zm17.3 1.6c2.3 2.7 2.2 3.5-1 5.8l-2.6 1.9 2.1 3.1c2.4 3.2 2.8 5.2 1.2 5.2-.5 0-1 .7-1 1.5 0 1.8 1.2 1.9 2.8.3 1.2-1.2 1.3-1.1 1.6 1.4.1.7.9 1.2 1.9 1 2.2-.4 2.1.7-.1 3.6-1.5 1.9-2.2 2.1-4.3 1.3-1.4-.5-3.3-2.1-4.2-3.5-1-1.5-2.3-2.3-3.1-2-.9.3-1.9-.5-2.8-2.3-1.1-2.3-2-2.9-5.5-3.1-4-.3-4.2-.5-4.8-4.3-.4-2.2-.5-4.2-.3-4.4.1-.2 2.6-1.5 5.3-2.9 4.2-2.1 5.1-2.3 5.3-1 .2.9-.4 2.5-1.4 3.7-1 1.2.4.1 3.1-2.6 2.7-2.6 5.2-4.7 5.5-4.7.3 0 1.3.9 2.3 2zM78 310.4c-1.4 1.4-2.2.2-1.4-1.8.5-1.4.9-1.5 1.5-.4.4.7.4 1.7-.1 2.2zm-19-.8c0 .8-.5 1.2-1 .9-.6-.4-.8-1.1-.5-1.6.9-1.4 1.5-1.1 1.5.7zm76 .3c0 1-.8 2.5-1.7 3.2-1.5 1.2-1.6 1.2-1-.4.4-1 .7-2.5.7-3.3 0-.8.5-1.4 1-1.4.6 0 1 .8 1 1.9zm30.5.2c1.1 1.7-1.3 1.7-3-.1-1.6-1.8-1.6-1.8.4-1.3 1.2.3 2.4.9 2.6 1.4zm92.9.4c-.4 1.6.1 3.4 1.6 5.5 2.3 3.3 4.3 12.7 5.4 25.2l.6 6.7-2.6-.3c-3.7-.4-4.8-2.7-2.2-4.7 2.3-1.8 1.7-3.9-1.2-3.9-1.7 0-1.9-.7-1.7-5.8.2-5-.2-6.5-2.6-9.9-2.7-3.8-2.8-4.3-1.4-7 .8-1.5 1.7-4 2.1-5.6.3-1.5 1.1-2.7 1.6-2.7.6 0 .8 1.1.4 2.5zM139 312c0 1.1-.4 2-.9 2-1.1 0-2.2-2.6-1.4-3.4 1.2-1.2 2.3-.5 2.3 1.4zm37-.5c0 .8-.4 1.5-.9 1.5-1.3 0-2.2-1.6-1.4-2.4 1.1-1.1 2.3-.6 2.3.9zm90.2.7c-.7.7-1.2.8-1.2.2 0-1.4 1.2-2.6 1.9-1.9.2.3-.1 1.1-.7 1.7zm-79.8 1.9c.9 1.7 1.3 3.5 1 4-.9 1.5-3.6 1-5-.9-1.8-2.3-1.7-3.2.2-3.2 1 0 1.4.6 1 1.5-.3.8-.1 1.5.5 1.5.7 0 .8-1.2.4-3-.9-3.9-.1-3.8 1.9.1zm29.6-1.4c0 1.2.3 1.4 1.1.6 1.6-1.6 6.9.7 6.9 2.9 0 1.9-3.6 2.6-4.2.8-.2-.6-2.4-1.1-5.1-1.2-2.6-.1-4.7-.4-4.7-.6 0-.6 4.4-4.1 5.3-4.2.4 0 .7.8.7 1.7zM65 313c0 .5-.4 1-1 1-.5 0-1-.5-1-1 0-.6.5-1 1-1 .6 0 1 .4 1 1zm339.8.5c.6.3 1.2 1.6 1.2 3.1 0 2.6.1 2.7 4.5 2.1 5.9-.9 7.3-.2 6.7 3-.5 2.5-.5 2.5 4.8 1.8 4.7-.6 5.2-.5 4.8 1.1-.3 1.5-1.2 1.9-4.5 1.6-2.3-.1-4.4.2-4.7.7-1.1 1.7 2.7 3.6 7.2 3.6 4.9 0 6.8 1.9 3 3-7.4 2-9.8 3-9.8 4.2 0 1.5 1 1.6 6.9.2 4.3-.9 8.1-.5 8.1 1 0 .4-3.3 1.5-7.2 2.4-16.7 3.9-31.4 7.5-33 8.2-1.3.5-1.8.3-1.8-.9 0-.8 2-2.7 4.5-4.2 2.5-1.4 4.3-3 4-3.4-.6-1-4.3-.1-5.1 1.1-.7 1.3-3.4 1.1-3.4-.2 0-.5 2-1.9 4.5-3s4.5-2.4 4.5-2.9c0-2-2.1-2-6 0-2.2 1.1-4 1.7-4 1.3 0-1.2 3.3-4.3 4.5-4.3 1.5 0 4-2.8 3.3-3.6-.3-.3-2.4.3-4.7 1.2-2.3.9-4.5 1.3-4.9 1-.9-.9 3.8-4.5 5.8-4.6 1.7 0 4-1.9 4-3.2 0-1.4-2.9-.9-7 1.2-2.2 1.1-4 1.6-4 1.1s2-1.8 4.5-3c4.1-1.9 6-4.1 3.5-4.1-.5 0-1-.7-1-1.6 0-1.3-.8-1.5-3.5-1.2-2.8.3-3.2.2-2.2-1 1.9-2.3 4.9-3.1 10.2-2.6 2.8.3 5.6.7 6.3.9zM279 314c0 .5-.4 1-1 1-.5 0-1-.5-1-1 0-.6.5-1 1-1 .6 0 1 .4 1 1zm-188.6 6.2l-.8 3.3-.6-3.5c-.7-4-.2-5.6 1.2-4.2.6.6.7 2.3.2 4.4zm374.4-2.6c1.2.4 2.2 1 2.2 1.5 0 1.3-2.3 1-4.4-.6-2.1-1.6-1.5-1.8 2.2-.9zM94 320.5c0 1.4-.4 2.5-1 2.5-.5 0-1-1.1-1-2.5s.5-2.5 1-2.5c.6 0 1 1.1 1 2.5zm348-1.6c0 1.2-2 2.5-2.7 1.8-.7-.7.6-2.7 1.8-2.7.5 0 .9.4.9.9zm-164.8 1c1.5-.8 2.1-.3 4.1 4.3 1.7 3.9 3.8 6.4 7.8 9.4 3 2.3 6.2 4.4 7.2 4.7 1.1.4 1.7 1.7 1.7 3.5 0 3.2 3 5.2 7.9 5.2 1.6 0 3.4.7 4.1 1.5.9 1.1 2.7 1.5 5.4 1.3l4.1-.3v4.5c0 4.1.2 4.5 2.6 4.8 2.2.3 2.8.9 3.3 4.1.3 2.1 1.9 5.7 3.6 8 1.7 2.3 2.8 4.6 2.5 5.1-.4.6-2.3 1-4.5 1-3.4 0-4-.4-5.9-4-3.6-6.9-7-11.9-8.8-12.8-3-1.6-7.8-2.1-9.3-1.1-1.2.8-1 1.4 1.5 3.5 1.7 1.4 4.2 3.2 5.8 4.2 4.4 2.7 4.8 7.2.6 7.2-1.2 0-2.3-1-2.9-2.5-.6-1.6-1.4-2.3-2.5-1.9-.8.4-2.2.1-3-.6-2-1.7-3.5-.4-3.5 3.1 0 1.9-.5 2.9-1.5 2.9-.8 0-1.5-.3-1.5-.8 0-.4-1.2-1.4-2.6-2.3-2-1.2-3.7-1.4-7.7-.8-2.8.5-5.3.6-5.5.4-1.3-1.3 1.3-3.5 6-5.3 4.2-1.6 5.4-2.5 5.6-4.4.6-4.8-6-6.8-12.7-3.7-2.4 1-4.7 1.9-5.1 1.9-1.2 0-3.7-8.7-4.4-15.4l-.7-6 2.1 1.9c3.3 3 4.3.8 2.8-6.1-1.5-7-1.3-16.3.4-14.6.8.8 1.7.8 3 .1zm172.4 4.1c1.9 0 1.8 1.6-.2 2.4-1.7.7-4.4-.9-4.4-2.6 0-.6.7-.7 1.6-.4.9.3 2.2.6 3 .6zm-387 8.7c-3 1.6-5.3.9-3.6-1.1.6-.8 2.2-1.1 3.7-.8l2.6.5-2.7 1.4zm-9.6.4c0 1.1-.4 1.7-1 1.4-.5-.3-1-1.3-1-2.1s.5-1.4 1-1.4c.6 0 1 .9 1 2.1zm166 2c0 2.4-2.3 2.1-2.8-.4-.2-1 .3-1.7 1.2-1.7 1 0 1.6.9 1.6 2.1zm-142.4 2.6c-1.1 1.1-1.9-.6-1.1-2.4.8-1.7.8-1.7 1.2 0 .3 1 .2 2.1-.1 2.4zm146.8-1.8c.3.5-.1 1.4-.9 2.1-.8.7-1.5 2.7-1.5 4.6 0 1.8-.5 3.6-1.2 4-.8.5-.9.2-.5-.9.4-1 .2-2.8-.3-4.1-1.3-3.5 2.6-8.6 4.4-5.7zm-19.4 2.2c0 1.1-.4 1.7-1 1.4-.5-.3-1-1.3-1-2.1s.5-1.4 1-1.4c.6 0 1 .9 1 2.1zm25 .4c0 1.7 1.7 2 2.2.4.2-.5 1.1-.7 2.1-.3 1 .3 1.6 1.3 1.3 2-.3.7 0 1.6.5 2 .6.4.8 2 .5 3.7-.6 2.9-.5 2.9 1.2 1.4 4.1-3.7 8.2 1.1 4.9 5.8-1.9 2.5-3.8 1-3.1-2.3l.5-2.7-2 2.3c-2 2.3-4.7 2.1-3.8-.2.3-.7-.3-1.2-1.5-1.2-1.2.1-2.3-.5-2.5-1.2-.3-.6.2-1.2 1-1.2s1.8-.7 2.1-1.6c1.1-2.7-.4-3-2.3-.5-1.5 1.9-2.3 2.2-5 1.6-2.8-.6-3.2-1-2.7-3.1 1.2-4.5 6.6-8.6 6.6-4.9zm12-.6c0 .5-.7 1.1-1.5 1.5-1.5.5-2-.5-.8-1.7.9-1 2.3-.9 2.3.2zm198 1.1c0 .5-.7 1-1.6 1-.8 0-1.2-.5-.9-1 .3-.6 1-1 1.6-1 .5 0 .9.4.9 1zm-370.8 3.5c-.5 1.8-1.1 2.5-1.5 1.8-.4-.7-.2-2.1.5-3.2 1.6-2.6 1.9-2.2 1 1.4zm13.2-1c-.9 1.4-2.1 2.5-2.7 2.5-.6 0 0-1.1 1.3-2.5s2.5-2.5 2.7-2.5c.2 0-.4 1.1-1.3 2.5zm129.2 1.2c-1 1-1.9-.5-1-1.8.6-1.1.8-1.1 1.2 0 .2.7.1 1.5-.2 1.8zm-106.6.8c0 3-3 7.5-5 7.5-1.1 0-2-.7-2-1.5s-.4-1.5-1-1.5c-.5 0-1 .5-1 1.1 0 .6-.9.9-2 .6-1.3-.3-3.1.5-5.2 2.4-5.3 4.6-8.6 5.1-7.3 1 .4-1.2 1.2-1.8 2.1-1.4.9.3 1.4-.2 1.4-1.7 0-1.9.3-2 1.5-1 2 1.6 4 .3 2.4-1.6-1.6-1.9-.4-3 1.5-1.5 1.6 1.3 5.6-.1 5.6-1.9 0-.5 1.7-1.1 3.8-1.3 2-.2 4-.4 4.5-.5.4-.1.7.5.7 1.3zm340 .3c0 .5-1.7.9-3.7 1-2.4.1-4.4.9-5.4 2.1-.9 1.1-2 1.6-2.5 1.1-.5-.4-2.7-1-4.9-1.2-4-.3-4-.3-4 3.1 0 1.9-.6 3.6-1.2 3.8-.8.3-1.3-.4-1.3-1.9 0-4-1.2-4.9-5.6-4-2.9.6-4 1.3-4.2 3-.2 1.2-.7 2.2-1.2 2.2s-.7-.6-.4-1.4c1-2.6-1.5-2.7-3.2-.1-.9 1.4-2.6 2.5-3.8 2.5-3.1 0-5 1.6-4.3 3.4.4.9.2 1.6-.2 1.6-.5 0-1.7.3-2.7.7-1.7.6-1.7.5-.1-1.7.9-1.4 1.7-3.2 1.7-4 0-2.4 7.5-5.5 18-7.5 5.2-.9 10.9-2.1 12.5-2.5 4.1-1.1 16.5-1.2 16.5-.2zm-260.4 12c.9 2.6 2.6 7 3.9 9.7 2.8 5.9 4.3 11.5 2.7 10-1-1-8.2-18.6-8.2-20 0-.5-.6-1.6-1.4-2.4-.7-.9-1.6-3.2-2-5.1l-.6-3.5 2 3.3c1.2 1.9 2.8 5.5 3.6 8zm6.4-5.3c1 1.1 2.3 3.8 3 6 .7 2.2 1.6 4.4 2 5 .4.5 1.1 2.6 1.5 4.5.4 1.9 1.4 4.4 2.1 5.5 1.7 2.3 1.8 3.8.3 3.3-.6-.2-2.1-3.4-3.4-7.1-3.2-8.9-6.6-14.9-8.2-14.3-.7.3-1.3.1-1.3-.4 0-.6.5-1 1.1-1 1.1 0 1-1-.6-5.5l-.7-2 1.3 2c.6 1.1 2 2.9 2.9 4zm-56.4-1.3c1 1.8 2.1 4.6 2.5 6.3.4 1.6 1.5 5 2.4 7.4.9 2.6 1.5 6.5 1.3 9.5l-.3 5.1-2.8-6c-2.1-4.6-2.7-6.8-2.2-9.4.6-3.1.5-3.3-.9-2.1-2.3 1.8-2.7.9-1.6-2.9.7-2.5.6-3.3-.6-3.8-2-.7-1.8-7.3.2-7.3.2 0 1.1 1.5 2 3.2zm45 3.5c1.4 3 2.3 6 2.1 6.6-.4 1-6.7-11.2-6.7-12.9 0-1.8 2.5 1.6 4.6 6.3zm-35.6-.3c0 .6-.7.2-1.5-.8-.8-1.1-1.5-2.5-1.5-3 0-.6.7-.2 1.5.8.8 1.1 1.5 2.5 1.5 3zm108-3.5c0 1.1-3.9 5.9-4 4.9 0-1.4 2.3-5.8 3.2-5.8.4 0 .8.4.8.9zM78.5 351c.3.5-.1 1-.9 1s-1.8-.5-2.1-1c-.3-.6.1-1 .9-1s1.8.4 2.1 1zm119.5 0c1.9 0 3.4 3.6 1.8 4.6-.5.3-1.2-.3-1.5-1.5-.3-1.3-1.2-2-2.5-1.8-1.2.1-2.3-.4-2.6-1.2-.3-1 0-1.2 1.2-.8 1 .4 2.6.7 3.6.7zm-32 3.1c0 1.1-.4 1.7-1 1.4-.5-.3-1-1.5-1-2.6s.5-1.7 1-1.4c.6.3 1 1.5 1 2.6zm268-1.6c0 .8-.7 1.5-1.6 1.5-1.4 0-1.4-.3-.4-1.5.7-.8 1.4-1.5 1.6-1.5.2 0 .4.7.4 1.5zm-382-.1c0 .3-.4.8-1 1.1-.5.3-1 .1-1-.4 0-.6.5-1.1 1-1.1.6 0 1 .2 1 .4zm42 1.1c0 .8-.4 1.5-1 1.5-.5 0-.7-.7-.4-1.5.4-.8.8-1.5 1-1.5.2 0 .4.7.4 1.5zm130.5.9c1.7 2.5 5.2 4 9.4 4.1 1.3 0 2.6.6 2.8 1.2.3.8-.4 1.3-1.6 1.3-1.1 0-2.5.9-3.1 2-1.5 2.9-2.7 2.5-3.4-1.1-.5-2.7-.8-3-2.1-1.9-2 1.6-3 .6-4.3-4.3-1.2-4.2 0-4.9 2.3-1.3zm-48.5 4.8c1.2 3.5 2.6 6.7 3 7.3.4.5 2.9 6.4 5.5 13 5 12.8 5.2 13.1 6.1 12.3.3-.3-.3-2.6-1.4-5-2.6-5.7-3.9-11.8-2.2-10.1.7.6 2.1 2.9 3.1 5l1.9 3.8-.3-3.3c-.4-3.3.6-4.2 2-2 .4.7 1.5 1.3 2.3 1.3.8 0 1.6.8 1.8 1.7.2 1.1-.3 1.8-1.2 1.8-.9 0-1.6.7-1.6 1.6 0 .9-.6 1.4-1.3 1.1-.9-.3-1.2.5-.9 3.1.4 2.9.2 3.4-1.1 2.9-.9-.3-2.1.1-2.7.9-.7.8-2.3 1.4-3.6 1.4-1.8 0-2.5-.8-3.3-3.7-.6-2-.8-3.9-.5-4.2.5-.5 1.9 1.3 2.7 3.4.3.5.8.7 1.2.2.8-.7.4-2.5-2.6-10.7-1.9-5.4-2.6-7.1-5.2-13-4.6-10.1-5.7-13.2-5.1-14.1.9-1.5 1-1.2 3.4 5.3zm79-3.7c-.7.8-1.7 1.5-2.3 1.5-.5 0-.2-.9.8-2 2.1-2.3 3.5-1.9 1.5.5zm9.1.2c.6 1.5.7 4.4.4 6.3l-.7 3.5 2.6-2.4c2.5-2.4 2.7-2.4 4-.6 1.3 1.8 2.9 10.5 2.1 11.3-.2.2-4.5 1.4-9.6 2.7-6.6 1.7-9.8 2.1-11.1 1.4-1-.5-2.2-.8-2.6-.5-.4.2-1.8-.2-3.2-1l-2.5-1.3 2.3-.1c1.3 0 3.7-.9 5.3-2.1 2.6-1.9 3.4-2 6-.9s3.3 1.1 4.6-.3c1.4-1.4 1.3-1.7-1.4-3.1-2.6-1.3-3-2-2.5-4.3.3-1.5 1.1-3.7 1.8-4.8.8-1.1 1.4-3 1.4-4.2 0-3.2 1.8-2.9 3.1.4zm181.7-.9c.2.7-.3 1.2-1.2 1.2-.9 0-1.6-.7-1.6-1.6 0-1.7 2.2-1.4 2.8.4zm-229.9 1.8c.3 1.6.1 1.7-1.3.5-1.9-1.6-2.1-3.4-.3-2.9.6.3 1.4 1.3 1.6 2.4zm-60.2 5.9c2.5 4.9 5.3 13.5 4.3 13.5-.5 0-1.8-2.6-2.9-5.8-1.1-3.1-2.8-7-3.6-8.5-.8-1.6-1.5-3.8-1.4-5 0-2.1.1-2 1 .3.6 1.4 1.8 3.8 2.6 5.5zm43.3-2.1c0 2.8-1.7.8-2.5-2.9-.6-2.9-.6-2.9.9-1.1.9 1.1 1.6 2.9 1.6 4zm-78-1c0 .7 1.1 3.6 2.5 6.4 1.4 2.9 2.5 6.4 2.4 7.9 0 1.6-.3 2.1-.6 1.3-.2-.8-1.1-2.9-1.8-4.5-2-4.5-5.5-13.5-5.5-14.2 0-.3.7 0 1.5.7s1.5 1.8 1.5 2.4zm-8.1 6.6c0 3.6-.4 8.3-.8 10.5l-.9 4-.2-4c-.3-7-.4-12.9-.2-16.5.4-6.3 2.2-1.1 2.1 6zm313.6-7.2c-.8 2.2.4 3.3 2.4 2.2 1.5-.7 2-.4 3 1.7 1.1 2.4 1.3 2.5 3 .9 1.8-1.7 2-1.6 2.6.4 1.1 3.3 4.1 2.1 3.7-1.5-.2-2.7-.1-2.8 1.2-1.2.7.9 1.6 3.5 2 5.7 1 6.3 4.1 4.7 3.9-2-.2-3.4-.2-3.4 1.2 1 .8 2.5 2.1 5.7 3 7.2 1.3 2.2 1.4 3.8.6 8.5-1.1 7.2-3.9 13.3-6.1 13.3-.9 0-2.1.5-2.8 1.2-.9.9-1.2.7-1.2-1.1 0-2.9-3-2.5-4.6.7-.6 1.2-1.3 1.9-1.6 1.6-.3-.3.1-1.9.9-3.5s1.2-3.6.9-4.4c-1-2.8-3.5-1.5-5.4 2.9-1.6 3.7-2.8 2.7-1.4-1.3 1.2-3.4.8-4.1-2.5-4.1-2 0-2.2-.3-1.3-1.9 2.1-4.1.3-5.6-3.2-2.4-1.7 1.5-1.8 1.5-1.2-1.4.4-2.2.2-3.2-1-3.6-.9-.4-1.3-1.3-1-2.1.7-1.9-1.4-3-3.1-1.6-.7.6-1.7 2.5-2 4.1-.4 1.6-1.1 2.9-1.6 2.9-1.2 0-1.2-.5.6-4.7 1.8-4.4 1.9-7.3.2-7.3-1.8 0-3.7 2.1-3.7 4.1 0 1-.5 2.1-1.2 2.5-.8.5-.9-.3-.4-3.2 1.3-6.4 1.2-8.9-.3-8.9-.7 0-1.8 1.5-2.5 3.4-.6 1.9-1.6 3.6-2.3 3.8-.7.3-.4-1.1.8-3.6 1-2.2 1.9-4.6 1.9-5.4 0-4.6-4.6-1.2-5.6 4.2-.4 2-1.4 4.1-2.3 4.7-1.3 1-1.4 1.5-.1 4 2.4 4.9 2.4 5-1.2 1.4-3.6-3.7-5.1-6.4-4.1-7.4.4-.3 1.2-.1 1.8.4 1.9 1.5 3.6-1.2 4-6.2.4-5.4 1.3-5.7 15.8-5.5 8.8.1 10.7.4 10.2 1.5zm-379 2.9c-.7 1.7-.8 1.7-1.5-.2-.9-2.4-.2-4.1 1.2-2.7.6.6.7 1.9.3 2.9zm123.6 5.5c3.3 8.3 3.7 10.7 1.5 8.9-.8-.6-1.6-2.2-1.9-3.4-.3-1.2-1.4-4.7-2.6-7.7-1.2-3-2.1-5.9-2.1-6.4 0-2.4 2.5 1.9 5.1 8.6zm265.9-7.8c0 .3-.4.8-1 1.1-.5.3-1 .1-1-.4 0-.6.5-1.1 1-1.1.6 0 1 .2 1 .4zM86 371.9c0 6.9-.4 12.2-1 12.6-.6.4-1-3.8-1-11.9 0-7.7.4-12.6 1-12.6s1 4.6 1 11.9zm8-8.4c0 3.5-1.3 4.7-2.3 2.1-.7-1.8.3-5.6 1.4-5.6.5 0 .9 1.6.9 3.5zm-12.5-.4c0 .7-.8 1.5-1.7 1.7-1.8.3-2.5-1.8-1.1-3.2 1-1 2.8-.1 2.8 1.5zm83.6.6c4.4 11.1 11.6 34 11 34.6-.5.5-1.9.7-3.2.5-2.7-.3-4-3.8-1.5-3.8.9 0 1.6-.2 1.6-.4 0-.3-2.2-7.3-5-15.6-4.8-14.4-5.7-18-4.5-18 .3 0 1 1.2 1.6 2.7zm-88.1-.3c0 .8-.4 1.8-1 2.1-.5.3-1-.3-1-1.4 0-1.2.5-2.1 1-2.1.6 0 1 .6 1 1.4zm25.3 2.6c-.7.8-2.2-2.4-1.6-3.4.4-.5 1-.1 1.3 1 .4 1 .6 2.1.3 2.4zm46.3-.5c1.5 3.8 2 19 .5 19.9-.4.3-1.1-4-1.3-9.7-.3-5.6-.9-11-1.3-12-.4-.9-.4-1.7-.1-1.7.4 0 1.4 1.6 2.2 3.5zm12.3.8c.1.5-.3.5-.9.2-.5-.3-1-1.6-.9-2.8 0-2.1.1-2.1.9-.2.5 1.1.9 2.4.9 2.8zm81.6-1.1c1.4.3 1.1.6-1.2.9-2.8.5-3.3.2-3.3-1.4 0-1.4.3-1.7 1.3-.9.6.5 2.1 1.2 3.2 1.4zm-144.8 2c-.3.7-.5.2-.5-1.2s.2-1.9.5-1.3c.2.7.2 1.9 0 2.5zm130.8-.9c0 2.6-2 2.5-2.3-.2-.3-1.6.1-2.2 1-1.9.7.3 1.3 1.2 1.3 2.1zm162.5-.8c0 .8-.4 1.5-1 1.5-.5 0-1-.7-1-1.5s.5-1.5 1-1.5c.6 0 1 .7 1 1.5zm-300.4 2.7c.4 1.8.9 2.7 1.1 2 .6-1.7 2.3-1.5 2.3.3 0 .8-.9 3.2-2.1 5.4l-2 3.9 2 3.8c2.2 4.1 2.8 8.4 1.1 8.4-.6 0-1.3-1.3-1.6-2.9-.4-1.7-1.2-3.2-2-3.5-1.1-.4-1.4-2.9-1.4-10.6 0-9.9 1.2-13 2.6-6.8zm95.1 4.7c-.3 1.1-.9.4-2-2.1-2.4-5.2-2.1-7 .4-2.9 1.1 1.8 1.8 4.1 1.6 5zM202 367c0 .5-.4 1-1 1-.5 0-1-.5-1-1 0-.6.5-1 1-1 .6 0 1 .4 1 1zm33.1 4.5c1.1.4 1.9 1.2 1.9 1.8 0 .7.3 2.3.5 3.7.5 2.4.5 2.4-.4.2-.6-1.2-1.7-2.2-2.5-2.2s-1.9-1.4-2.5-3.1c-1.4-4-1.3-6.1.1-3.2.6 1.3 1.9 2.5 2.9 2.8zM361 369c0 .5-1.2 1-2.7 1-2.2 0-2.5-.2-1.3-1 2-1.3 4-1.3 4 0zm-239.2 14.5c2.2 6.6 4.8 13.7 5.8 15.8 1.4 2.9 1.5 4 .5 5-1.5 1.5-2.6 0-4.2-5.6-.5-2.1-1.9-4.6-3-5.5-1.2-1-1.9-2.9-1.9-5.2 0-1.9-.7-6.2-1.5-9.5-1.7-7-1.9-10.9-.6-8.5.5.8 2.7 6.9 4.9 13.5zM105 373.1c0 2.6-3.3 2.2-3.8-.5-.3-1.1 0-1.6.7-1.2.6.4 1.1.2 1.1-.4 0-.6.5-.8 1-.5.6.3 1 1.5 1 2.6zm-29-.1c0 .5-.4 1-1 1-.5 0-1-.5-1-1 0-.6.5-1 1-1 .6 0 1 .4 1 1zm128 1.6c0 .8-.4 1.2-1 .9-.5-.3-1-1-1-1.6 0-.5.5-.9 1-.9.6 0 1 .7 1 1.6zm-43.8 12.1c1.8 3.6.3 4.8-1.6 1.2l-1.7-3.4.4 3c.5 2.7.4 2.8-.8 1.1-.8-1.1-1.3-4.3-1.2-8.3v-6.5l1.9 5.4c1.1 2.9 2.4 6.3 3 7.5zm48-9.5c-.9.9-1.2.7-1.2-1.2s.3-2.1 1.2-1.2c.9.9.9 1.5 0 2.4zm83.2-1.7c.3.9 0 1.5-.8 1.5-.7 0-1.9-.7-2.6-1.5-1-1.2-.9-1.5.8-1.5 1.1 0 2.2.7 2.6 1.5zm102.1 2.6c4.9 4.4 8.2 10.3 11.6 21.2 3.5 11.1 3.5 10.9.7 10.5-1.8-.2-2.5-1.3-3.4-5.3-1.4-6.4-3-9.5-5.1-9.5-1.3 0-1.4.7-.9 3.7 1.7 9.4 1.8 11.3.7 11.3-.6 0-1.1-1-1.1-2.3 0-2.6-1.6-8.6-2.9-10.6-.5-.8-1.5-1.1-2.3-.8-1.2.4-1.3 1.6-.7 6.4 1.6 10.9-1.5 12.7-4.1 2.3-1.4-5.7-4-9.4-5.5-7.8-.4.3-.1 3.3.5 6.7.6 3.4.8 6.6.5 7.1-1.3 2-2.5.9-2.5-2.3 0-4.7-1.8-10.4-3.5-11.1-2.2-.8-2.7.9-2.3 7.4.3 6.7-1.2 8.8-1.8 2.3-.9-10.4-4.8-12.6-5-2.8-.1 3.3-.6 6.1-1.2 6.3-.6.2-.8-.5-.6-1.5.2-1 .1-3.8-.4-6.3-.6-3.5-1.2-4.5-2.7-4.5-1.8 0-2-.7-1.7-6.9.2-5.2-.1-7.3-1.4-8.7-1.4-1.6-1.4-1.8.3-2.7 3.7-1.8 19.8-4.9 27-5.1 3.4-.1 4.9.5 7.8 3zm-311.8 2.6c-.3 1-.5.4-.5-1.2 0-1.7.2-2.4.5-1.8.2.7.2 2.1 0 3zm47.9 2c.8 1.7 1.4 3.7 1.3 4.5-.1 2-3.8-6.4-3.7-8.7 0-1.4.1-1.5.5-.5.2.8 1.1 2.9 1.9 4.7zM231 378c0 .5-.2 1-.4 1-.3 0-.8-.5-1.1-1-.3-.6-.1-1 .4-1 .6 0 1.1.4 1.1 1zm-92.3 3.7c-.3 1-.5.4-.5-1.2 0-1.7.2-2.4.5-1.8.2.7.2 2.1 0 3zm151.9-1c-1 1-1.9-.5-1-1.8.6-1.1.8-1.1 1.2 0 .2.7.1 1.5-.2 1.8zm55.1-1.5c-.2.7-1.2 1.3-2.3 1.4-3.9.2-4.4.4-4.4 2.2 0 1.6-.8 1.8-7 1.6-6.6-.2-10-1.4-10-3.5 0-.5 1.2-.6 2.8-.4 1.5.3 5-.1 7.7-.9 6.5-1.9 13.8-2.1 13.2-.4zm-143.4 2.2c.4.9 1.4 1.2 2.8.9 2.6-.7 2.3 1.4-.5 3.1-1.3.9-2 .7-3.2-.8-1.6-2.2-1.9-4.6-.5-4.6.5 0 1.1.6 1.4 1.4zm72.7.6c0 .5-.4 1-1 1-.5 0-1-.5-1-1 0-.6.5-1 1-1 .6 0 1 .4 1 1zm76.6 2.5c.9 1.4 1.2 2.9.8 3.7-.6.9-1 .4-1.4-1.7-.4-2.1-1.1-2.9-2.3-2.7-.9.2-1.7-.2-1.7-.8 0-1.9 3-1 4.6 1.5zm58.2-.8c.2.8-.5 1.3-1.7 1.3-2.1 0-3.5-1.3-2.4-2.4 1-1 3.6-.3 4.1 1.1zm-297.4 9.4c.5 12.6.6 12.8 1.6 10.4.5-1.1 1-5.4 1.1-9.5l.2-7.5.9 9.4c.8 9 .5 13.2-.9 11.8-.3-.4-1.2-.2-1.9.4-2.4 2-3 .1-3.2-9.8-.2-9.1.5-16 1.4-15 .2.2.6 4.6.8 9.8zm193.7-9.1c1.1.6 1.9 2.1 1.9 3.5 0 3.2-1.8 3.2-2.6 0s-2.4-2.2-2.4 1.6c0 1.6-.4 2.9-1 2.9-.5 0-1-1.7-1-3.8 0-5.3 1.2-6.3 5.1-4.2zM139 386.7c-.1 2.4-.2 2.6-1.1 1-.5-.9-.7-2.2-.4-2.7 1-1.7 1.5-1.1 1.5 1.7zm152-1.7c0 .5-.4 1-1 1-.5 0-1-.5-1-1 0-.6.5-1 1-1 .6 0 1 .4 1 1zm52.6 1.5c-.3.9-1.1 1.3-1.6 1-.8-.5-.7-1.1.1-2.1 1.4-1.8 2.4-1.1 1.5 1.1zM211 386c0 .5-.5 1-1.1 1-.5 0-.7-.5-.4-1 .3-.6.8-1 1.1-1 .2 0 .4.4.4 1zm35-.5c0 .2-2.6 1.2-5.7 2.1-5.1 1.4-22.4 6.8-35.3 11.1-6.7 2.2-13.9 4-19.5 4.8-2.7.4-5.7 1-6.5 1.5-2.4 1.2-11 2-11 1.1 0-.5 1.5-1.2 3.3-1.6 1.7-.4 8.4-2.1 14.7-4 6.3-1.8 14.9-4 19-5 8.9-2.1 17.3-4.2 32.5-8.4 7.8-2.2 8.5-2.3 8.5-1.6zm69 .5c0 .5-.5 1-1.1 1-.5 0-.7-.5-.4-1 .3-.6.8-1 1.1-1 .2 0 .4.4.4 1zm-61.5 3.7c-6.2 5.5-26.4 14.9-37 17.2-15.8 3.5-24.9 5.1-28.2 5-3.6 0-3.6-.1-1.3-1 1.4-.6 5.9-1.6 10.1-2.4 4.2-.7 8.6-1.8 9.7-2.4 1.1-.6 3.2-1.1 4.5-1.1 1.4 0 5.7-1.4 9.5-3 3.9-1.7 7.8-3 8.6-3 .9 0 1.6-.5 1.6-1 0-.6.8-1 1.8-1 .9 0 4-1.2 6.7-2.6 10.2-5.4 16.1-8.2 17.5-8.3.3 0-1.3 1.6-3.5 3.6zM108 391.2c-.1 2.6-.3 3-1 1.6-.6-.9-.7-2.3-.4-3.2.9-2.5 1.4-1.9 1.4 1.6zm183.5.8c.2 1.8-.2 2.9-.8 2.7-1.1-.3-1.8-4.6-1-6 .8-1.4 1.6.1 1.8 3.3zm119.9-2c-1 .4-2.1.6-2.4.3-.8-.7 2.4-2.2 3.4-1.6.5.4.1 1-1 1.3zm-207.6 0c1.5 0 1.5.2.2 1-2.3 1.5-5 1.2-5-.6 0-1.1.5-1.4 1.6-1 .9.3 2.3.6 3.2.6zm-100.4 3.7c-.7 4-2.3 6.7-2.5 4.2-.3-3.3.4-6.4 1.5-7.1 1.7-1.2 1.7-1.1 1 2.9zm192.6-1c0 2.2-.2 2.5-1 1.3-1.3-2-1.3-4 0-4 .6 0 1 1.2 1 2.7zm-140.6-.2c.3.8.1 1.5-.4 1.5-.6 0-1-.7-1-1.5s.2-1.5.4-1.5.6.7 1 1.5zm24.9 1.2c.6 3.2.3 3.8-1.2 2.8-1.3-.8-1.5-5.5-.2-5.5.5 0 1.1 1.2 1.4 2.7zm76.7-.8c-1.2 2.3-2.9 3.5-3.7 2.7-.7-.7 2.6-4.6 3.9-4.6.5 0 .4.9-.2 1.9zm51-.9c0 .5-.4 1-1 1-.5 0-1-.5-1-1 0-.6.5-1 1-1 .6 0 1 .4 1 1zm-229 2.5c-.7.8-1.7 1.5-2.3 1.5-.5 0-.2-.9.8-2 2.1-2.3 3.5-1.9 1.5.5zm236-1.5c0 .5-.2 1-.4 1-.3 0-.8-.5-1.1-1-.3-.6-.1-1 .4-1 .6 0 1.1.4 1.1 1zm100.5 1.6c1.8.6 1.6.8-1 1.4-3.7.8-4.5.4-4.5-2.1 0-1.5.4-1.7 1.8-1 .9.5 2.6 1.3 3.7 1.7zm-249.1.6c.8 3.2.7 4-.3 3.4-1.1-.7-2.1-5.6-1.1-5.6.4 0 1 1 1.4 2.2zm174.2.5c-1 1-1.9-.5-1-1.8.6-1.1.8-1.1 1.2 0 .2.7.1 1.5-.2 1.8zm-203.1 5.2c-.6 1.9-3.4 3-3.6 1.3 0-.4-.1-2.4-.3-4.5l-.3-3.9 2.5 2.5c1.7 1.8 2.2 3.1 1.7 4.6zm177.5-2.4c0 1.4-.4 2.5-1 2.5-.8 0-.8-2.3-.1-4.8.4-1.2 1.1.3 1.1 2.3zm-207.3 6.7c-.2 1.8-.4.6-.4-2.7 0-3.3.2-4.8.4-3.3s.2 4.2 0 6zm141.8-7.3c-.3.5.2 1.6 1 2.4.8.9 1.5 2.2 1.5 2.9-.1.7-.9.3-2-1-2.2-2.6-4.6-2.4-7.5.8-1.2 1.3-2.5 1.7-4.5 1.4-2.1-.5-3.1-.1-4.4 1.7-2.5 3.7-2 5.8 1.9 7.5 3.8 1.5 4.8 3 1.5 1.9-2.5-.8-5 1-5 3.6 0 2.3 3.3 4.1 6.8 3.8 1.5-.2 3.8.4 5.1 1.3l2.3 1.6-2.1 1.2c-1.2.6-2.1.7-2 .3.6-3.4-1.9-4.5-4.1-1.8-1 1.2-1 1.8-.1 2.9 1 1.1.5 1.9-2.2 4-4.6 3.5-10.7 6-10.7 4.4 0-.7 1.8-2.3 4-3.6 6.6-3.7 6.4-10.7-.3-11.4-2.7-.3-3.2-.7-3.1-2.8.1-3-2.9-5.7-7.4-6.6-4.6-.9-6.2 1-6.6 7.8-.2 4-.8 6.1-2.4 7.8-1.2 1.3-2.2 2.7-2.2 3.1 0 1.7 4.6 3.9 8.1 3.9 2.8 0 4.1.6 5.3 2.5 1.6 2.4 1.6 2.6-.1 3.2-1 .3-5.8 2.4-10.8 4.5-8.2 3.5-15.8 6.5-32.9 12.7-3.2 1.2-6.1 1.9-6.4 1.6-.3-.3-.8-2.7-1-5.3-.3-4.2.1-5.1 3.3-9l3.7-4.2 3.3 2c1.8 1.1 4.4 2 5.8 2 1.6 0 3.1.8 3.7 2 1.2 2.1 4.5 2.7 5.6.9.3-.6.1-1.6-.5-2.2-2.1-2.1-1.3-3.7 1.7-3.1 4.1.8 8.2-2.7 8.2-7.1 0-4.4-.8-6.3-3.2-7.6-2.3-1.2-4.8.4-4.8 3 0 1.6-3.8 4.7-4.6 3.8-.3-.2.1-2.8.7-5.6 1.1-5 1-5.4-1.5-8-4-4.2-3.5-6.1 1.7-6.1 2.3-.1 6.9-.7 10.2-1.5 3.3-.7 9.2-2.1 13-2.9 7.3-1.6 18.4-6.1 27-10.8 5-2.8 8.1-3.6 7-1.9zm42.5.1c0 .5-.4 1-1 1-.5 0-1-.5-1-1 0-.6.5-1 1-1 .6 0 1 .4 1 1zm16.3 2.3c-.3.5-1 .4-1.5-.1-.6-.6-.7-1.6-.3-2.2.6-.9.9-.9 1.6.1.4.7.5 1.7.2 2.2zm-186.8-.3c.7 2.3-.2 6-1.6 6-.5 0-.9-1.8-.9-4 0-4.2 1.4-5.4 2.5-2zm219.8-1.4c.9.9-.4 3.5-1.4 2.8-.5-.3-.9-1.2-.9-2 0-1.4 1.2-1.9 2.3-.8zm78.7 2.6c0 .4-1 .8-2.2 1-1.2.2-2.4.9-2.6 1.7-.4 1.1.2 1.3 2.6.8 3.3-.7 4.5.3 5.5 4.2.8 3.3-.9 5.1-4.8 5.1-2.8 0-3.3-.4-4.3-3.8-2.6-9.2-2.6-9.7 1-10.7 3.1-.9 4.7-.4 4.8 1.7zm11.5-1.2c-1 1.1-2.3 2-2.8 2-.6 0-.2-.9.8-2s2.3-2 2.8-2c.6 0 .2.9-.8 2zm-269.7.7c.5 1.8-1.9 1.6-4.3-.3-1.9-1.5-1.9-1.5.9-1.2 1.6.2 3.1.9 3.4 1.5zm130.6 1.4c-.3.5-1 .7-1.5.3-.5-.3-.7-1-.3-1.5.3-.5 1-.7 1.5-.3.5.3.7 1 .3 1.5zm61.9 13.3c-.9 3.8-2.3 7-3 7.3-2.4.9-2.5-.4-.3-4.8 1.9-3.6 2.1-5.2 1.6-10.8l-.6-6.6 1.9 4.1c1.9 3.9 1.9 4.3.4 10.8zm104.7-14c0 .3-.4.8-1 1.1-.5.3-1 .1-1-.4 0-.6.5-1.1 1-1.1.6 0 1 .2 1 .4zm-143 3.1c0 1.7-.2 1.8-2.4.9-2.3-.9-2-2.4.4-2.4 1.1 0 2 .7 2 1.5zm25.3 1c.4.8.2 1.7-.3 2-.6.4-1-.3-1-1.4 0-2.5.6-2.7 1.3-.6zm93.2 1.5c-1 1.1-2.2 2-2.8 2-.5 0 .1-.9 1.4-2 3.1-2.5 3.7-2.5 1.4 0zM246 408.6c0 1.4-.4 2.3-1 1.9-.5-.3-1-1.5-1-2.6 0-1 .5-1.9 1-1.9.6 0 1 1.2 1 2.6zm42 .5c0 .5-.7.9-1.5.9-1.5 0-2-1.2-.9-2.3.8-.8 2.4.1 2.4 1.4zm-141-.3c0 1.3-1.2 2.2-2.2 1.6-1-.6-.1-2.4 1.3-2.4.5 0 .9.4.9.8zm176.5.2c.3.5.1 1-.4 1-.6 0-1.1-.5-1.1-1 0-.6.2-1 .4-1 .3 0 .8.4 1.1 1zm-27.5 1c1.2.8.9 1-1.2 1-1.5 0-3-.5-3.3-1-.8-1.3 2.5-1.3 4.5 0zm-134.9 1.4l3.3 1.4-5.8.7c-5.6.7-6.6 1.3-10 6-1.3 1.7-1.5 1.8-2.1.4-.8-2.1 4.6-7.9 7.3-7.9 1.2 0 2.4-.5 2.7-1 .8-1.3.6-1.3 4.6.4zM131 413c0 1.3-.7 2-2 2-1.8 0-1.9-.3-1-2 .6-1.1 1.5-2 2-2 .6 0 1 .9 1 2zm-4.5-.1c.3.5-.3 1.7-1.2 2.7-1.7 1.7-1.8 1.7-2.1-.6-.4-2.3-.5-2.3-1.8.9-.7 1.8-1.8 3-2.3 2.7-.5-.4-1.2-.2-1.6.4-.3.5-1 1-1.6 1-.5 0-.4-.9.3-1.9.7-1.1 1.7-1.9 2.2-1.8.6.1 1.2-.8 1.4-2.1.3-1.7 1-2.2 3.2-2.2 1.6 0 3.1.4 3.5.9zm302.1 2.9c-1.8 1.8-3.1 1-2.3-1.2.4-1 1.3-1.3 2.2-.9 1.5.5 1.5.7.1 2.1zM302 423.3c0 5.4.4 7.5 2 9.4 2.2 2.8 2.6 8.5 1 12.7-.5 1.4-4.5 5.9-8.9 10.2-8.2 7.8-10.5 11.9-9.4 16.6.3 1.3-.6 0-2.1-2.7-1.4-2.8-2.6-5.9-2.6-7.1 0-2.5 4.9-10.4 8.1-13 1.3-1 3.8-3.7 5.4-5.9 2.7-3.6 3-4.7 3.1-12.2.1-4.5.5-10.3.9-12.9 1-6.7 2.5-3.7 2.5 4.9zm-51.5-4.2c.9 5.1-.9 7.6-2.5 3.5-1.2-3.1-1.3-6-.3-6.9 1.4-1.5 2.2-.5 2.8 3.4zm-70-1.1c-2.3 2.6-2.5 9.4-.3 11.7 1.6 1.6 1.6 1.8-1 3.3l-2.7 1.7-4.2-6.5c-2.4-3.6-4.3-7.6-4.3-8.8 0-2.1.6-2.3 5.3-2.7 2.8-.2 6.1-.4 7.1-.5 1.8-.2 1.8-.1.1 1.8zm-68.5 3.2c0 1-8.2 6.8-9.7 6.8-2 0-2.8-4.9-1.1-6.7 1.4-1.3 1.5-1.2 1.1 1.4-.4 2.2-.3 2.6.7 1.6.7-.6 1.9-.9 2.6-.6.8.3 2.1-.7 3.1-2.5 1.6-2.7 3.2-2.7 3.3 0zm107.4-1.5c.8 1.9-.7 3.8-2.2 2.9-1.1-.7-.4-4.6.8-4.6.4 0 1.1.8 1.4 1.7zm-82.4 1.7c-.1 1.6-4.8 4.8-6 4.1-.6-.3-1-1.7-1-3 0-2 .5-2.3 3.5-2.2 1.9.1 3.5.6 3.5 1.1zm4 .6c.9 1.6.8 1.8-.5 1.4-.8-.4-1.5-1.2-1.5-2 0-2 .7-1.7 2 .6zm295.8-.8c1.4 1.4 1.6 2.8.2 2.8-.5 0-1.4-.9-2-2-1.2-2.2-.1-2.7 1.8-.8zm23.1 4.5c.7 2.7 1.4 5.6 1.7 6.5.3 1 .1 1.8-.4 1.8s-1.4-2.1-2-4.8c-.6-2.6-1.5-5.8-1.8-7.1-.5-1.6-.3-2.2.3-1.8.6.4 1.6 2.8 2.2 5.4zm-334.8 23.2c.2.7-.1 1.5-.7 1.8-1.6.6-2.4-4.5-2.4-15.1 0-14.9 1.4-15.6 2.1-1.1.3 7.1.7 13.6 1 14.4zm42.5-18.5c3.5 6 4.2 10.5 1.7 11.4-.8.2-1.3-.6-1.3-2.3 0-1.4-.9-3.8-2.1-5.4-2.4-3.3-4.9-10.2-4.1-11.5.3-.6.9-.3 1.4.5.5.8 2.4 4.1 4.4 7.3zm18.9-6.4c1 1.1 1.5 2.6 1.1 3.6-.6 1.5-.8 1.5-2.6-.1-2-1.8-2.8-5.5-1.2-5.5.5 0 1.7.9 2.7 2zm264.6-1c2.4 1.3 2.7 5.5.3 4.6-.9-.3-1.8-.6-2-.6-.3 0-.3-.4.1-.9.3-.5.1-1.2-.5-1.6-1.1-.7-1.4-2.5-.4-2.5.3 0 1.4.5 2.5 1zm-322.5 6c.2 2.2-.1 4-.6 4-.6 0-1-2.1-1-4.7 0-5.5 1.1-5.1 1.6.7zm153.1 2c-.6 3.6-1.5 6.8-2 7.1-.6.4-.7 1.4-.4 2.3.8 1.9 5.7 2.1 7.7.3 1.2-1 1.2-.9 0 .6-1.8 2.4-6.8 5-8.4 4.4-.7-.3-1.6-2.5-1.9-4.9-.5-3.6-.1-5.3 2.5-10.5 1.8-3.4 3.3-6.1 3.4-6 .1.1-.3 3.1-.9 6.7zm150.4-5.7c-.1 1.2-1.5.9-1.9-.4-.3-.6.1-1 .8-.8.6.3 1.1.8 1.1 1.2zm-203.4 4.1c-.4.9-1.1 1.6-1.7 1.6-1.1 0-1.4-3.3-.3-4.4 1.1-1 2.6 1.1 2 2.8zm-108.8 13.8c.1 3.8-.3 6.8-.8 6.8-1.7 0-2.8-18-1.4-21.7 1-2.3 2.1 5.4 2.2 14.9zm25.6-15.2c.3.5.1 1-.4 1-.6 0-1.1-.5-1.1-1 0-.6.2-1 .4-1 .3 0 .8.4 1.1 1zm-30.5 8.7c0 6.7-1.3 8.4-2.4 3.2-.8-4.2-.8-10.4.1-11.2 1.3-1.4 2.3 1.9 2.3 8zm342-6.6c0 1.1-.4 1.7-1 1.4-.5-.3-1-1.3-1-2.1s.5-1.4 1-1.4c.6 0 1 .9 1 2.1zm-347 4.1c0 3.9-.1 4.1-1.6 2.6-1.1-1.1-1.4-2.5-1-4.2 1-4 2.6-3.1 2.6 1.6zm326.5-1.2c.8 1.3-.5 1.3-2.5 0-1.3-.8-1.3-1 .2-1 .9 0 2 .4 2.3 1zm-290.9 4.5c.4 1.5.1 3.2-.7 4.1-.8.9-1.2 2.8-1.1 4.3.2 2.1-.6 3.4-3.5 5.7-6 4.8-7.7 5.5-12 4.6l-3.8-.8 5.8-1.3c5.7-1.2 10.7-4.8 10.7-7.5 0-.7-1.1-1.8-2.5-2.4-3.3-1.5-3.2-3.1.3-2.9 2.3.2 2.9-.3 3.7-3.1 1.1-3.8 2.2-4.1 3.1-.7zm53.1.2c-.9.9-2 1.2-2.8.8-.9-.6-.8-1.1.6-2.1 2.3-1.7 4.2-.6 2.2 1.3zm-15.7 1.4c0 .6-.4.7-1 .4-.5-.3-1-1.1-1-1.6 0-.6.5-.7 1-.4.6.3 1 1.1 1 1.6zm217.4 2.8c2.3 1.6 5.6 4.7 7.1 6.8 1.6 2.1 2.2 3.2 1.3 2.5-1.4-1.1-2.1-1.1-4.3.4-1.4.9-3.2 2.8-3.9 4.2-2.1 4-2.6 1.1-.5-3.2 1-2.2 1.7-4.1 1.5-4.4-1-.9-4.4 1-5.4 3.1-.8 1.6-1.1 1.7-1.1.6-.1-.9.6-2.2 1.4-2.9 2-1.7 1.9-3.8-.2-4.2-1.7-.3-2.7-5.8-1-5.8.5 0 2.8 1.3 5.1 2.9zm-242.2 1.2c-.3 2.5-4.7 6.8-7.1 6.9-1 0-.7-.8.9-2.5 1.3-1.4 3-2.5 3.7-2.5.9 0 1.1-.8.7-2.6-.5-2-.3-2.5.7-2.2.8.3 1.3 1.6 1.1 2.9zM115 447c0 .5-.2 1-.4 1-.3 0-.8-.5-1.1-1-.3-.6-.1-1 .4-1 .6 0 1.1.4 1.1 1zm34 4c0 .5-.4 1-1 1-.5 0-1-.5-1-1 0-.6.5-1 1-1 .6 0 1 .4 1 1zm157.6 1.1c-.1 2.1 1.1 3.2 4.7 4.3 1.4.5 1.6 1 .7 2.5-1.4 2.7-.2 5.4 5.9 13.4 2.8 3.6 5.1 7 5.1 7.4 0 1.1 4.7 5 10.5 8.7 3.6 2.2 6.4 5.3 10.2 11.1 2.9 4.4 5.3 8.7 5.3 9.5 0 .9.5 2.1 1.2 2.8 1.7 1.7 4.8 1.5 4.8-.4 0-1.1.8-1.4 2.7-1.2 2.3.3 2.9 1 4.3 5.7 1.2 4.3 2.6 6.3 6.7 10s5 5 4.2 6.3c-.7 1.3-.3 2.2 2.1 3.9 2.9 2.2 2.9 2.3.8 3.3-2.5 1.3-2.6 2.9-.1 3.6 3.6 1 8.8 4.3 7.5 4.8-.7.2-2.1-.3-3.1-1.2-2.8-2.5-10.2-3.1-14.3-1.2-3.5 1.7-3.6 1.7-7.4-.9-2.1-1.4-4.7-2.5-5.9-2.3-1.8.3-2 .9-1.7 6 .4 6.6-.8 7.4-5.9 3.7-5.6-4-8.9-11.3-12.4-27.9-.9-4.1-3-10.1-4.6-13.4-2.1-4-2.9-6.6-2.4-8.3.5-2.1-.4-3.5-5.8-8.9-6.3-6.3-6.4-6.4-11.9-6.4-4.2 0-6.2.5-7.9 2.1l-2.4 2 5.6-.6c5.4-.6 5.9-.4 9.5 2.7 5.2 4.4 5.6 5.1 3.9 6.8-1.3 1.2-1.2 1.7.9 4 3 3.2 9.7 16.1 9 17.2-.3.5-1.4.8-2.3.6-1.7-.3-2.1.1-2.1 2.1 0 .5 1.4 1.4 3 2.1 1.7.7 3 1.7 3 2.2 0 .6-.8.7-1.7.3-7.6-3.2-8.7-.1-1.3 3.6 2.7 1.3 5 2.7 5 3.1 0 1.2-.5 1-4.9-1.3-3.8-1.9-6.1-1.9-6.1.1 0 .5 1.8 1.9 4 3.1 4.6 2.6 5.5 4.7 1 2.4-1.6-.8-3.8-1.5-5-1.5-3.9 0-2 2.8 3.4 5 3 1.2 6.2 3 7.2 4.1 1.3 1.5.4 1.3-4.2-1-8.2-4-10.4-4.6-10.4-2.7 0 .9 1.9 2.5 4.2 3.7 9 4.6 17.2 10.9 14.2 10.9-.4 0-3.9-2-7.8-4.5-8-5-13.6-6.7-13.6-4.3 0 .9 2.8 2.9 6.3 4.6 3.8 1.9 7.6 4.7 9.5 7.1 3.6 4.4 2.8 6.5-.9 2.5-2.4-2.6-16.4-10.4-18.6-10.4-3.3 0-.7 3.3 4.6 6 3.3 1.6 6.2 3.4 6.6 4 .9 1.4.5 1.3-4-1-2.2-1.1-4.5-2-5.2-2-2.6 0-1.2 2.9 2.1 4.5 1.8.9 4.6 3 6.2 4.7l2.9 3.2-3.8-2.2c-2.1-1.2-5.3-2.2-7.1-2.2-1.9 0-3.9-.7-4.7-1.6-2.6-3.2-9.3-5.7-15.9-6-3.6-.1-6.6-.3-6.6-.3-.1-.1.3-2 .7-4.4.5-2.3 1.6-9.2 2.4-15.2 2.7-20 7.7-38.8 11.1-41.5.7-.7 3-1 5.1-.8 2.9.2 3.8-.1 4.1-1.4.7-3.4-3.4-4.1-10.8-1.9-11.2 3.4-12 2.9-9.1-5.5 1-3.1 1.6-6.5 1.4-7.5-.4-1.5-.1-1.8 1.1-1.3 2.4.9 6.2-2 9.1-7.1 2.5-4.1 2.6-4.8 1.7-10.7-1-6.2-1-6.3 2.1-9.6 3.6-3.8 4.4-4 4.3-1.1zm110.4.4c0 .8-.4 1.5-1 1.5-.5 0-1-.7-1-1.5s.5-1.5 1-1.5c.6 0 1 .7 1 1.5zm-10.8 3.7c-.7.7-1.2.8-1.2.2 0-.6.3-1.4.7-1.7.3-.4.9-.5 1.2-.2.2.3-.1 1.1-.7 1.7zm-298.3 1.5c0 .5-.4 1.7-.9 2.8-.8 1.8-.9 1.7-.9-.8-.1-1.5.4-2.7.9-2.7.6 0 1 .3.9.7zm8.2 2.5c-.5 1.3-.6 3.8-.4 5.5.3 2.1.1 3.3-.6 3.3-1.2 0-1.6-9.2-.4-10.3 1.4-1.5 2.2-.6 1.4 1.5zm294.9-1.5c0 1.4-1.9 3.8-2.5 3.2-.8-.8.5-3.9 1.6-3.9.5 0 .9.3.9.7zm-48 5.9c0 2.5-5.7 9.4-7.8 9.4-1.3 0-2.4-6.2-1.3-7.3.5-.5 2.2-1.1 3.8-1.3 1.5-.1 3.2-1 3.8-1.8 1.3-2.1 1.5-2 1.5 1zm-67.5 6.3c0 3.1-2.1 3.8-3.5 1.1-1.3-2.4-.5-4.2 1.8-3.8 1 .2 1.7 1.3 1.7 2.7zm110.2.3c-.3.8-.6.5-.6-.6-.1-1.1.2-1.7.5-1.3.3.3.4 1.2.1 1.9zM109 482.6c0 .8-.4 1.4-1 1.4-.5 0-1-.9-1-2.1 0-1.1.5-1.7 1-1.4.6.3 1 1.3 1 2.1zm375.6-1.1c1.3 1.2 1.2 1.5-.5 2.5-1.1.5-3.2 1-4.7 1h-2.7l2.3-2.5c2.7-2.9 3.6-3.1 5.6-1zm-6.9 11.7c-.3.8-.6.5-.6-.6-.1-1.1.2-1.7.5-1.3.3.3.4 1.2.1 1.9zm-81.2 2.7c5 3.3 8.6 10 7.9 14.5-.9 4.9-2.5 8.6-3.9 8.6-3.5 0-7.5-1.4-7.5-2.6 0-1 .7-1.3 2.4-.8 2.9.7 3.2.2 4.1-5.7l.7-4.6-3.7-.7c-4.7-.9-6.9.7-6.1 4.7.5 2.3 0 3.4-2.6 5.7l-3.2 3 2.2 2.3c1.2 1.3 1.9 2.7 1.5 3-1.1 1.2-5.3.8-8.2-.8-5.4-2.8-11.2-11.9-6.3-10 8.6 3.4 15.5-2.2 10.4-8.5-1.5-1.8-2.1-2-4.6-1.1-1.5.6-3 2-3.3 3.1-.6 2.3-2.6 2.6-4.3.6-1.8-2.3.8-7 4.2-7.4 1.4-.2 4.1-1.8 6-3.6 2.8-2.8 3.9-3.3 6.8-2.9 1.9.3 5.3 1.7 7.5 3.2zm73.5-2.6c0 .7-.9 1.8-2 2.5s-2 1.9-2 2.7c0 .8.9 2 2 2.7 2.8 1.8 2.5 2.6-1.4 4.2-2.8 1.2-3.3 1.8-2.9 4 .6 2.8 3.2 4.1 6.6 3.1 1.8-.6 2-.5 1 .6-2.3 2.4-1.4 4.8 2.5 6.8 3.2 1.7 3.5 2 1.7 2.6-6.4 2.1-6.2 3.2 1.5 7.5 3.5 2 6.9 4.8 7.7 6.3.9 1.8 3.4 3.7 6.9 5.2 2.9 1.3 5.4 2.8 5.4 3.3 0 1.3-4.2 4.9-6.8 5.7-1.8.5-3.3 0-6-2.2-8.1-6.5-14.1-7.9-18.3-4.3l-2.4 2 4.4 3.9c4.3 3.8 4.4 4 3.1 7-1.5 3.8-.8 5.8 2.7 7.2 2.6 1 2.6 1 .7 2.8-1 1.1-3.2 2.2-4.9 2.5-2.9.6-3.1.3-5.8-5.5-2.9-6.5-6.4-8.9-12.6-8.9-2 0-3.4-.7-4.1-2-1.3-2.4-.6-4 1.7-4 2.6 0 8.4-5 9.9-8.6.8-1.8 1.4-6.5 1.4-10.3 0-6.9-.1-7.1-5-13-5.4-6.5-5.7-7.1-3.6-7.1 2.7 0 6.6-4.1 6.6-7 0-4.5 6.1-10.7 10.8-10.9.6-.1 1.2.5 1.2 1.2zM70 494c0 .5-.5 1-1.1 1-.5 0-.7-.5-.4-1 .3-.6.8-1 1.1-1 .2 0 .4.4.4 1zm-16.6 4c4.6 0 5.3.4 9.7 4.7 2.6 2.7 6.2 6.1 8 7.7l3.4 2.9-3.9.9c-3.3.7-4.9.4-10.4-2.2-6.9-3.2-13.4-7.8-16.9-11.9-3.1-3.6-2.9-4 1.5-3 2 .5 5.9.9 8.6.9zm439.6 2.9c0 1.3-2.7 2.1-7.1 2.1-3.7 0-4.8-.8-3.2-2.3 1-1 10.3-.8 10.3.2zm-473 6.2c0 .6-.4.7-1 .4-.5-.3-1-1.1-1-1.6 0-.6.5-.7 1-.4.6.3 1 1.1 1 1.6zm12.7 3.8c-1.2 2.8-1.5 3-2.6 1.7s-.9-2 1-4c2.9-3 3.4-2.1 1.6 2.3zm450.8-1.9c.3.5.1 1-.4 1-.6 0-1.1-.5-1.1-1 0-.6.2-1 .4-1 .3 0 .8.4 1.1 1zm-31.1 11.4c2.7 5.5 2.5 12.4-.4 16.4-2.6 3.5-4.7 4.4-3 1.3 1.3-2.4 1.3-5.1.1-5.1-2.5 0-8 4.7-8.1 6.7 0 2.1-.5 2.3-4.7 2.3-4.7 0-4.9-.1-7.5-4.9-3.9-6.8-3.5-8.1 1-3.2l3.7 4.2 3.5-1.7c4.6-2.2 4.5-2.1 3.1-3.8-.9-1.1-.9-1.9 0-3.4 1-1.6.8-2.3-1-4.1-2.6-2.6-2-4.1 1.8-4.1 1.6 0 3.7-1 5.1-2.5 3-3.2 4-2.9 6.4 1.9zm-426.5.8c.1.5-.3.8-.8.8-1.2 0-2.2-3-1.4-4.3.6-1 2 1.3 2.2 3.5zm9.3 1.5l-.6 2.8-.6-2.5c-.7-2.7-.3-4.3.9-3.5.5.2.6 1.7.3 3.2zm24.2 3.7c-.6 2.5-2.4 3.7-2.4 1.5 0-1.5 2.1-5.2 2.6-4.6.3.3.2 1.6-.2 3.1zm21.2 1.3c-.4.4-1.1.1-1.6-.7-1.6-2.5-1.1-3.5.7-1.7.9.9 1.3 2 .9 2.4zM432 525c-2 1.3-3.3 1.3-2.5 0 .3-.6 1.4-1 2.3-1 1.5 0 1.5.2.2 1zm-388.1 6.3c.1.5-.3.5-.9.2-.5-.3-1-1.6-.9-2.8 0-2.1.1-2.1.9-.2.5 1.1.9 2.4.9 2.8zm4.1-.8c0 .8-.4 1.5-1 1.5-.5 0-1-.7-1-1.5s.5-1.5 1-1.5c.6 0 1 .7 1 1.5zm10.7 13.7c0 9.3-.1 10-1.3 7.2-.7-1.7-1.3-6.4-1.4-10.5-.2-9.5-.2-9.3 1.3-8.1.9.8 1.3 4.3 1.4 11.4zm-5.7-8c0 1.6-.3 1.9-1.1 1.1-.6-.6-.8-1.6-.5-2.2 1.1-1.7 1.6-1.3 1.6 1.1zm-3.7 2.1c-.2 4.5-.3 4.8-1.3 4.2-1.3-.8-.8-7.6.5-7.2.5.2.9 1.5.8 3zM63 537c0 .5-.4 1-1 1-.5 0-1-.5-1-1 0-.6.5-1 1-1 .6 0 1 .4 1 1zm11 2.7c0 2.2-.2 2.5-1 1.3-1.3-2-1.3-4 0-4 .6 0 1 1.2 1 2.7zm-5.4 3.1c-1.1 1-1.5-.4-.8-2.8l.7-2.5.3 2.3c.2 1.3.1 2.6-.2 3zm-15.9.9c-.3 1-.5.2-.5-1.7s.2-2.7.5-1.8c.2 1 .2 2.6 0 3.5zm25-2.5c-.3.8-.6.5-.6-.6-.1-1.1.2-1.7.5-1.3.3.3.4 1.2.1 1.9zm-15.1 7.6c-1.2 1.2-1.8-.8-1-3.5l.8-2.8.4 2.8c.2 1.6.1 3.1-.2 3.5zm11.1-3.6c-.3.8-.6.5-.6-.6-.1-1.1.2-1.7.5-1.3.3.3.4 1.2.1 1.9zM473 547c0 1.3-1.1 1.3-3 0-1.2-.8-1.1-1 .8-1 1.2 0 2.2.4 2.2 1zm-421.6 4.6c.9 2.4.7 3.4-.8 3.4-1.6 0-2.9-2.7-2-4.1.8-1.4 2.1-1.1 2.8.7zm345.6.6c4.3 3 4 4.3-1.2 4.3-4.4 0-6.6-1.9-5.5-4.9.9-2.2 2.8-2 6.7.6zm-371.2 2c.2 1-.6 3-1.7 4.4-1.1 1.4-2.3 4.2-2.7 6.3-.3 2-.8 4.5-1.1 5.6-.6 1.9-.6 1.9-1.4-.3-.5-1.2-1.3-2.2-1.9-2.2-1.6 0-1.2 1.8 1 4 1.7 1.7 1.9 2.8 1.5 5.8-1.1 6-1.6 7.2-3.1 7.2-.8 0-1.4.7-1.4 1.5 0 .9.6 1.2 1.5.9 1.2-.5 1.5.2 1.5 3 0 3.7-1.3 4.8-2.4 2.1-.3-.8-1.7-2-3.1-2.5-1.4-.5-2.5-1.4-2.5-2 0-.5-.7-1-1.6-1-.8 0-1.2-.4-.9-1 .3-.5 1.3-4.8 2.1-9.5 2-11.6 2.9-13.8 5.3-13 2.6.8 3.1-.4 2.2-4.8-.8-3.1-.6-3.8 1.3-5.1 2.7-2 7-1.6 7.4.6zm106.7-.3c.3.5.1 1.2-.5 1.6-.5.3-1-.1-1-.9 0-1.8.6-2.1 1.5-.7zm243.5 2.3c0 3.4 2.4 6.8 4.9 6.8.8 0 2.5-1.2 3.6-2.6l2.1-2.6 5.7 1.8c5.7 1.8 7.6 4.3 3.5 4.5-2.9.2-2.7.2-6.5-1.3-2.9-1.1-3.5-1-5.7 1.1-1.4 1.3-2.3 2.7-2.1 3.1.8 1.2-2.2 3.1-6.1 4-3 .7-4.3.4-7-1.3-5.2-3.4-5.1-4.7.1-4.2 4.9.5 5.5-.3 3.4-4.9-1.6-3.4-.4-7.6 2.1-7.6 1.6 0 2 .7 2 3.2zM63.3 556c.3 1.1.1 2-.4 2s-.9-.9-.9-2 .2-2 .4-2 .6.9.9 2zm302 0c-.3 1-1.1 2.5-1.9 3.1-1.1.9-1.4.8-1.4-.8 0-1.9 1.7-4.3 3.1-4.3.4 0 .5.9.2 2zm112.9 2.5c.3 1.4.2 2.8-.2 3-1.2.8-3.3-2.3-2.6-4 .8-2.3 2.3-1.8 2.8 1zm-410.3 1.7c0 3.1-.1 3.1-1 1-.5-1.3-.7-2.8-.3-3.3 1-1.6 1.4-.9 1.3 2.3zm427.4.5c.3.5-.7 2.3-2.3 4.1l-2.7 3.3-3.7-2.2c-4.1-2.4-4.8-4.2-1.2-3.3 1.4.3 3.6-.1 5.3-1 3.2-1.7 4-1.9 4.6-.9zM140 563c0 .5-.5 1-1.1 1-.5 0-.7-.5-.4-1 .3-.6.8-1 1.1-1 .2 0 .4.4.4 1zm147.4-.4c2.4.9 1.9 2.4-.7 2.4-1.3 0-2.7.3-3 .7-1.2 1.1 1.3 3.1 3.2 2.6 1-.3 3.2.2 4.9 1.1 4.2 2.2 5.5.1 1.8-3.1-3.1-2.6-2.3-2.9 2.6-.9 4.6 2 9.8 7.9 12.6 14.6 1.3 3 3.5 7.9 5 10.8 2.8 5.9 6.6 9.2 8.4 7.4.8-.8.3-2-1.6-4.2-1.4-1.7-2.6-3.9-2.6-4.8 0-1.3.5-1.1 2 .8 1.1 1.4 2 2.8 2 3.2 0 .5.8.8 1.8.8 1.1 0 2.1-1.1 2.7-3.2 1.2-3.7 3.5-5 3.5-1.9 0 4 3.7 3.8 12.7-.7 2.5-1.2 3.5-1.4 4.4-.5.9.9.6 1.9-1.2 4.1-1.3 1.6-3.2 4.4-4.1 6.1-1.4 2.5-2.2 3.1-3.8 2.6-1.1-.4-3.4.1-5.2.9-2.9 1.5-3.3 1.5-5-.1-1.6-1.4-2.3-1.5-5.8-.3-3.9 1.3-4.2 1.2-7-1.5-1.6-1.5-4.5-6.5-6.5-11.1-4.6-10.8-7.3-15.4-9.1-15.4-2.4 0-2.7 2.8-.6 5.8 1.1 1.5 3.3 5.9 4.8 9.7 1.6 3.9 4.5 8.9 6.7 11.2 4.5 4.9 4.6 7 .3 4.8-1.6-.9-3.5-1.4-4.2-1.1-.7.3-1.8-.1-2.4-.9-.6-.8-1.8-1.1-2.7-.8-1.2.5-1.4 1.6-1 4.7l.6 4.1-5.7 1.8c-3.4 1.1-7.8 1.7-10.7 1.5-4.3-.3-5-.6-4.8-2.3.3-2.2-3.6-13.5-4.6-13.5-2.3.1-3.3 2-2.6 5.1.4 1.9.4 3-.1 2.6-1.4-1.3-3.2-12.8-2.7-16.5.5-2.9.3-3.2-2-3.2-3.9 0-5-2.8-3.1-8.4 1.9-5.6 2.9-5.9 2.9-.9 0 3 .4 3.8 1.8 3.8s2.4-1.6 3.8-6c2.3-6.8 2.9-7.5 8.4-10.4 4.6-2.4 3.9-2.3 5.9-1.5zm-218.7 3.6c-.3.8-.6.5-.6-.6-.1-1.1.2-1.7.5-1.3.3.3.4 1.2.1 1.9zm61.3.5c-.1 2.4-.2 2.6-1.1 1-.5-.9-.7-2.2-.4-2.7 1-1.7 1.5-1.1 1.5 1.7zm-40.8 1.8c.6 2.8-1.9 6.8-5.4 8.6-1.9 1-2 .9-1.3-.7.4-1.1.7-3.1.6-4.7-.1-2.3.3-2.7 2.5-2.7 2.1 0 2.4-.3 1.9-2.1-.5-1.3-.3-1.9.3-1.5.5.3 1.2 1.7 1.4 3.1zm48.9 7.5c3.2 7.9 3.4 9.3 2.2 10.8-1.3 1.6-1.4 1.5-.8-.5.4-1.5-.4-4-2.3-7.5-3.1-5.6-4.9-11.8-3.5-11.8.5 0 2.5 4.1 4.4 9zm254.9-4.4c2.4 2 2.8 2.9 1.8 3.5-1.6 1-12.2 1.2-13.1.2-1-1 4.4-6.3 6.4-6.3 1 0 3.2 1.2 4.9 2.6zm-359.5 7.6c-.8 9.6-3.2 22.9-4.5 24.2-1.2 1.2-2.3-7.4-1.6-12.6.3-2.4.7-7.2.9-10.7.2-4.8.8-6.7 2.2-7.7 1-.8 2.3-1.4 2.8-1.4.4 0 .5 3.7.2 8.2zm99.6-2.1c.9 2.7 1.3 4.9.9 4.9-.8 0-4-7.9-4-10 0-2.4 1.4 0 3.1 5.1zm351.7-4.4c.5 1.8-2.3 1.6-3.9-.3-1.1-1.4-1-1.5 1.1-1.2 1.3.1 2.5.9 2.8 1.5zM127 576.4c0 .6-.7.2-1.5-.8-.8-1.1-1.5-2.5-1.5-3 0-.6.7-.2 1.5.8.8 1.1 1.5 2.5 1.5 3zm190.6-1.7c4.1 2.6 5.5 4.3 3.6 4.3-1.7 0-9.6-4.6-10-5.8-.6-2 1.8-1.4 6.4 1.5zm140.6 3.5c-.6 2.4-2.1 4.2-5.7 6.5-5.3 3.5-7.4 6.4-7.5 10.2 0 2-.2 2.1-1.5 1.1-3.9-3.2.1-17.1 4.3-15.2.9.4 3 .7 4.7.7 2.5 0 3-.5 3.5-3.1.4-1.7 1.1-3.7 1.5-4.4 1.3-2.1 1.7.3.7 4.2zm-312.6 3.3c.7 2.7.6 2.9-.9 1.6-1-.7-1.7-2.5-1.7-3.9 0-3.3 1.6-1.8 2.6 2.3zm9.7 5.1c-.5 1.4-4.1 2.9-5 2.1-.2-.3.1-1.6.8-2.9.7-1.2 1.2-2.7 1.1-3.2-.2-.4.3-1.5 1-2.3 1.1-1.4 1.4-1.1 1.9 1.7.4 1.8.5 3.9.2 4.6zm313.4-5.8c-1.2 1.3-1.4 2.6-.8 5.5.5 2 .6 3.7.2 3.7-1.3 0-3.1-2.4-3.1-4.3 0-2 3-6.6 4.4-6.7.5 0 .2.8-.7 1.8zm-150.5 1.9c1 .9 1.8 2.3 1.8 3.1 0 1.2-.6 1-2.5-.8-3.8-3.5-3.1-5.8.7-2.3zm159.5 1.6c.9 1.9.7 2.6-1.3 4.4l-2.3 2.1.5-2.8c.4-1.5.1-3.1-.5-3.4-.6-.4-.9-1.2-.6-1.7 1.1-1.6 3.2-1 4.2 1.4zm-344.2 1.6c-.9 1.6-2.5.3-1.8-1.5.4-1 .9-1.2 1.5-.6s.7 1.5.3 2.1zM458 591c0 .5-.4 1-1 1-.5 0-1-.5-1-1 0-.6.5-1 1-1 .6 0 1 .4 1 1zm5.3 4.6c.3.3.1 1.6-.4 2.8-.7 1.4-.7 3.5-.2 5.5.7 2.7 2 3.9 6.8 6.5 4.2 2.2 6.1 3.8 6.3 5.4.3 1.7-.2 2.2-2 2.3-3.6.2-9.2-.2-10.8-.7-2.2-.6-6-6.7-6.6-10.5-1-6.2 3.9-14.2 6.9-11.3zm-139 11.3c-.7 1-.9 2.8-.6 4 .4 1.5.1 2.1-1 2.1-2.1 0-3.2-1.9-1.8-3.3.6-.6 1.1-2.1 1.1-3.2 0-2.7 1.1-3.8 2.4-2.5.7.7.7 1.6-.1 2.9zM33 609.2c-3.6 2.9-4.6 2.1-1.4-1.1 1.6-1.6 3.1-2.5 3.3-1.9.2.7-.6 2-1.9 3zm300.4-2c2 2.8 2 4.7 0 8.6-3.2 6.6-4.7 4.9-3.8-4.3.4-3.6 1-6.5 1.5-6.5.4 0 1.5 1 2.3 2.2zm-307.4 3c0 1.2-2.5.9-3.8-.4-.7-.7-1.2-1.8-1.2-2.5 0-1.1.6-.9 2.5.4 1.3 1 2.5 2.1 2.5 2.5zm280-1.2c0 .5-.4 1-1 1-.5 0-1-.5-1-1 0-.6.5-1 1-1 .6 0 1 .4 1 1zm32 10.5c0 1.4-.4 2.5-1 2.5-1.1 0-1.4-3.3-.3-4.3 1.1-1.1 1.3-.8 1.3 1.8zm-12.9 4.1c.8 6.2 1.4 7.4 4 7.4 1.4 0 1.9-.7 1.9-2.6 0-2 .4-2.5 1.6-2 .9.3 3.3.6 5.5.6 2.8 0 3.9.4 3.9 1.5 0 1.7-2.7 2-5 .5-.9-.5-1.9-.5-2.7.2-1.9 1.6-1.6 3.6.7 4.3 3.2 1 2.4 3.9-1.3 5.3-4.9 1.8-6.4 1.5-10.6-1.9-3.7-2.9-3.9-3.3-3.9-8.9 0-3.2-.3-6.4-.7-7-.9-1.5 1.3-3.1 4-2.8 1.6.3 2.1 1.3 2.6 5.4zm32.9 9.8c0 13.3 7.4 30.7 17.5 41 10.3 10.6 26.9 25.8 29 26.6 1.1.4 4.2 2.4 6.8 4.4 2.6 1.9 7 4.8 9.9 6.4 2.9 1.5 7.1 4 9.3 5.4 6.6 4.1 22 8.3 44.8 12.2 8.7 1.5 12 3.6 11.5 7.5-.3 2.6-2.8 3.7-21.9 9-7.4 2.1-10.2 2.5-12.4 1.8-1.9-.7-6-.6-12.4.3-11.3 1.4-36.1 1.4-43-.1-2.8-.6-17-1.2-31.8-1.4-14.7-.1-28.7-.6-31.1-1-3.2-.5-4.9-.3-6.8 1-2.2 1.4-4 1.6-11 1l-8.4-.7-3.2 3.6c-3.4 3.9-5.5 4.5-6.5 2-.5-1.5-1.9-1.6-10.5-1-9.1.6-9.8.5-9.8-1.2s1.1-2 8.9-2.5c8.1-.5 13.1-2 13.1-3.9 0-1.3-2.3-.9-8.6 1.1-6.3 2.1-9.2 1.4-7.5-1.8.6-1 .5-3.2-.1-5.7-1-3.7-.7-5.3 2.7-16 2.1-6.5 5.3-14.5 7-17.9 18.4-34.7 19.8-38.1 21.5-50.4 1.2-8.9 2.6-13.1 4.4-13.1.7 0 2.2.7 3.4 1.6 1.6 1.1 3.5 1.4 6 1 13.5-2 14.2-2.3 14.2-6.6 0-3 3.1-5 7.8-5 1.5 0 3.4-.5 4.2-1 2.6-1.7 3-1.1 3 3.4zm12.2 22.8c-.7.7-1.2.8-1.2.2 0-1.4 1.2-2.6 1.9-1.9.2.3-.1 1.1-.7 1.7zm-61.2.8c0 .5-.4 1-1 1-.5 0-1-.5-1-1 0-.6.5-1 1-1 .6 0 1 .4 1 1zm-2 7.5c0 .8-.9 1.5-2 1.5-2.2 0-2.7-1.5-.7-2.3 2.1-.9 2.7-.7 2.7.8zm-53 21.1c0 2.6.8 4.3 3.5 7 4.5 4.5 4.9 7.5.5 4.4-1.7-1.2-3.5-3-4.1-4.1-1.1-2.2-9.5-6.3-11-5.3-.5.3-.9.1-.9-.4 0-1.3 2.5-2.2 6-2.2 2 0 3.1-.6 3.5-2 1-3 2.5-1.4 2.5 2.6zm-4.7 10.7c1.2 1.3 3.4 3.2 5 4.2 3.2 2 3.5 4 .8 5.5-3.2 1.6-5.5 1.2-10.5-2.1-4.5-3-4.6-3.2-2.6-4.6 1.1-.8 2-2.3 2-3.4 0-2.6 2.6-2.4 5.3.4zm-11.3 1.3c0 .8-.5 1.2-1 .9-.6-.4-.8-1.1-.5-1.6.9-1.4 1.5-1.1 1.5.7zm-25.6 5.6c.9 1.7 1.5 3.3 1.3 3.5-.5.4-15.8-2.5-16.4-3.1-.3-.3 1.5-1 3.8-1.6 2.4-.6 4.9-1.3 5.4-1.5 2.8-1 4.5-.2 5.9 2.7zm8.9-.1c.8 1.1 1.3 2.9 1 4-.7 2.6-4 2.4-4.8-.4-.4-1.2-.9-3-1.1-4-.8-2.5 3.1-2.2 4.9.4zm13.1-.5c.9.3 1.6 1 1.6 1.5 0 1.4-2.6 1-4-.6-1.3-1.6-.3-2 2.4-.9zm-4.2 3.1c1.4 1.6 3.2 10.3 2.2 10.3s-8.4-5.3-8.4-6.1c0-.4.5-1.1 1-1.4.6-.3 1-1.5 1-2.6 0-2.4 2.2-2.5 4.2-.2zm17.8 6.4c1.9 3.5 1.2 14.9-.8 14.9-.4 0-.7-2.6-.8-5.7-.1-3.2-.4-7-.9-8.6-.9-3.3.9-3.7 2.5-.6zm-9 1c0 .5-.4.9-1 .9-.5 0-1-.7-1-1.6 0-.8.5-1.2 1-.9.6.3 1 1 1 1.6zm18-1.2c0 1.4-1.8 2.3-3 1.6-.6-.4-.8-1.1-.5-1.6.8-1.2 3.5-1.2 3.5 0zm10.8 12.3c1.8 1.8 1.4 3.4-.8 3.4-1.4 0-2-.7-2-2.3 0-2.5 1-2.9 2.8-1.1zm-14.6 4.3c-.7 3.8-3.2 6.1-3.2 3.2 0-1.6 3.2-7.8 3.7-7.3.2.2 0 2-.5 4.1zm13.9 13c.3 1.5 1.3 2.1 4.2 2.3 2 .2 3.7.6 3.7 1s-1.2 2.5-2.6 4.6l-2.7 3.9-4.8-5.3c-5.3-5.8-5.4-6.2-3.8-10.8l1.1-3.1 2.3 2.7c1.2 1.5 2.4 3.6 2.6 4.7zM279 739c0 .5-.4 1-1 1-.5 0-1-.5-1-1 0-.6.5-1 1-1 .6 0 1 .4 1 1zm210 8.9c0 1.7-.4 3.2-.9 3.6-.5.3-2.1 2.9-3.4 5.9-1.8 3.9-4.4 6.9-9.8 11.6-4.1 3.4-7.9 6.7-8.4 7.4-1.7 1.8-9.8 5.6-12.2 5.6-1.4 0-2.3-.6-2.3-1.5 0-.8-1.3-2.4-3-3.7-1.6-1.2-3-2.7-3-3.4 0-2.3-2.9-3.8-5.3-2.6-1.2.5-3 1.3-4.1 1.6-1.4.5-1.7 1.3-1.2 3.6.6 3.3.4 3.5-2.3 1.8-2.8-1.7-5.5-.3-4.1 2.1 1.4 2.8 1.4 2.8-2.7 2.7-3.4-.1-3.8.2-3.6 2.1.2 2-.3 2.3-4.5 2.9-4.3.5-4.9.9-5.8 3.8-.8 2.8-1.4 3.2-5.9 3.8-5.6.7-12.5 3.3-12.5 4.7 0 1.2 2.9 4.1 4 4.1.5 0 1.1-.4 1.4-.9.3-.5 2.9-.9 5.6-.9 2.8-.1 5.5-.4 6-.7.6-.3 1 .3 1 1.4 0 1 .6 2.2 1.3 2.4.7.3.4.6-.6.6-1 .1-1.7.7-1.4 1.3.2.9 2.7 1.3 7.5 1.3 4 0 7.2.3 7.2.7 0 1.5-4 2.8-6.5 2.2-1.8-.4-2.7-.2-3.1 1-.5 1.4-3 1.6-19 1.6-10.7 0-18.4-.4-18.4-.9s.7-1.6 1.5-2.5c.8-.8 1.5-1.7 1.5-2 0-.3 2.4-3 5.3-6 6.9-7.1 8.6-9.2 9.9-12.1 1.2-2.6 8.5-7.5 11.2-7.5 2.2 0 5.4-3 10.6-9.9 3.6-4.8 5.9-6.8 11.5-9.6 3.9-1.9 8.1-3.6 9.5-3.8 1.4-.1 2.7-.5 3-.8.3-.3 4.1-1.5 8.5-2.8 15.8-4.5 26.7-8.1 28-9.1.6-.4 2.1-1 3.5-1.3 5.6-1 6-.8 6 2.2zm5.9 16.8c-.6 1.8-1.4 3.3-1.8 3.3-.9 0-.6-6.6.5-10l.8-2.5.8 3c.4 1.8.3 4.3-.3 6.2zm-5.8 4.6c-1.3 1.3-2.1-.5-1.4-3.3l.6-2.4.9 2.4c.5 1.4.5 2.7-.1 3.3zm-2.6 4.6c-.2 3.5-1.5 3.6-1.5.2 0-1.8.4-3 .8-2.7.5.3.8 1.4.7 2.5zm8.4-.6c1.7 2.1-.7 4-2.6 2.1-.8-.7-1.1-1.8-.8-2.4.8-1.4 2-1.3 3.4.3zm-11.7 4.8c-1.2 3-2.5.8-1.6-2.7.5-2.1.9-2.3 1.5-1.1.5.8.5 2.5.1 3.8zm-3.7-2.1c.3.5.1 1-.4 1-.6 0-1.1-.5-1.1-1 0-.6.2-1 .4-1 .3 0 .8.4 1.1 1zm13 5c.4.6 1.1.8 1.6.5.5-.4.9-.1.9.4 0 1.3-4.7 1.5-5.4.2-.6-.9.3-2.1 1.5-2.1.4 0 1.1.5 1.4 1zm-15.5 7c0 7-1.3 9.1-2.9 4.8-.8-2.1-.8-2.1-1.5.6-.4 1.5-.4 3.1 0 3.7.3.5.3 1.8-.1 2.7-.6 1.6-.7 1.6-1.6-.1-.6-.9-.8-2.1-.4-2.6.3-.5.1-1.2-.4-1.5-.5-.3-1.2.6-1.6 2.1-.5 2.1-.8 2.4-1.5 1.2-.5-.7-.7-2.2-.4-3.2.7-2.2-.5-2.2-2.1 0-1.1 1.4-1.3 1.3-1.9-1.1-.7-2.9.9-7 2.5-6.1.5.4.9.1.9-.5 0-2.3 2.5-.2 3.1 2.6.6 2.7.7 2.6.8-.9.1-2.6.5-3.7 1.4-3.4.6.2 1.1 1.2 1.1 2.1-.1.9.2 1.6.7 1.6.5 0 .9-1.7.9-3.8 0-2.1.3-4.2.7-4.5 1.7-1.8 2.3-.1 2.3 6.3zm-31.3-3.4c.3.9 1.9 2.2 3.6 2.9l2.9 1.2-5.8 3.6c-3.3 1.9-7 4.7-8.3 6.1-1.4 1.4-3.1 2.6-3.8 2.6-2 0-1.3-5.5.7-5.6 3.5-.2 4-.5 4-1.8 0-.7-1-1.7-2.2-2.1-2-.7-1.9-.8 1.2-1.2 9.6-1 10.9-3 2.3-3.5l-5.8-.3 4.5-1.7c5.8-2.1 5.9-2.1 6.7-.2zm42.3 3c0 .8-.4 1.2-1 .9-.5-.3-1-1.3-1-2.1s.5-1.2 1-.9c.6.3 1 1.3 1 2.1zm-27.4 12.2c.4 3.7.8 8 .8 9.7l.1 3-12.7.3c-10.6.2-12.8 0-12.8-1.2 0-2.5 1.2-4.6 2.3-3.9.6.3.7.1.3-.6-1-1.6 1-3.8 5.3-6 6.7-3.4 9.6-5.1 12.1-7 1.3-1.1 2.8-1.7 3.1-1.5.4.2 1.1 3.5 1.5 7.2zm4.5 3.2c.1 1.9.2 4.8.1 6.5-.4 5.4-2.2.5-2.2-6 0-6.3 1.7-6.7 2.1-.5zm-43.3 1.7c-1 .2-2.6.2-3.5 0-1-.3-.2-.5 1.7-.5s2.7.2 1.8.5zm51.2 1.8c0 .8-.4 1.5-1 1.5-.5 0-1-.7-1-1.5s.5-1.5 1-1.5c.6 0 1 .7 1 1.5z"/><path d="M355.2 173.2c-1.8 1.8-1.4 3.6.9 4.3 2.8.9 4.7-1 3.3-3.2-1.4-2.2-2.7-2.6-4.2-1.1zM314.3 186.2c-3.7 2.2-4.3 4.7-1.3 5.5 1.1.3 2 1 2 1.7 0 .6 1.1 2.4 2.5 3.9 2.6 2.7 7.7 3.7 9 1.7.3-.6 1.5-1 2.6-1 2.8 0 2.1-2.8-1.1-4.5-6.6-3.4-7.7-3.7-9.9-2.6-2.3 1.3-2.8.2-.9-1.7 1.6-1.6 6.9-1.5 9.2.3 2.7 2 3.6 1.9 3.6-.4 0-4.9-9.7-6.7-15.7-2.9zm10.7 9.4c0 1.6-1.6 1.9-2.5.4-.8-1.3.4-3.2 1.6-2.5.5.4.9 1.3.9 2.1zM312.1 211.4c-.7.9-.8 1.7-.2 2 1.4.9 4.1-.4 4.1-2 0-1.8-2.4-1.8-3.9 0zM345 223c0 .5.7 1 1.5 1s1.5-.5 1.5-1c0-.6-.7-1-1.5-1s-1.5.4-1.5 1zM337.6 226.7c-1.1 1.1-.6 2.3.9 2.3.8 0 1.5-.4 1.5-.9 0-1.3-1.6-2.2-2.4-1.4zM329.4 231.1c-1 1.7 1.3 3.6 2.7 2.2 1.2-1.2.4-3.3-1.1-3.3-.5 0-1.2.5-1.6 1.1zM159.1 287.6c0 1.1.3 1.4.6.6.3-.7.2-1.6-.1-1.9-.3-.4-.6.2-.5 1.3zM175.7 298.6c-.4.4-.7 1.4-.7 2.3 0 1.1.3 1.2 1.1.4.6-.6 1-1.6.7-2.3-.2-.6-.7-.8-1.1-.4zM203 315.6c0 .8.5 1.2 1 .9.6-.3 1-1 1-1.6 0-.5-.4-.9-1-.9-.5 0-1 .7-1 1.6zM203.6 320.8c-.2.4-.1 1.4.5 2.2.7 1.2.9 1 .9-.8 0-2.3-.5-2.8-1.4-1.4zM225.6 342.5c-.3.8-.1 1.5.4 1.5 1.3 0 2.2-1.8 1.1-2.4-.5-.3-1.1.1-1.5.9zM224.9 410.6c-1 1.3-1 1.7.2 2.5 2 1.3 3.4.6 3.7-1.9.4-2.6-1.9-3-3.9-.6zM204.4 416.5c-.7 1.8.3 3.5 2.1 3.5 2.1 0 2.8-1.9 1.5-3.5-1.6-1.9-2.9-1.9-3.6 0zM196.4 418.5c-.8 2.1.3 4.5 2 4.5 2 0 2.9-1.6 2.1-4-.7-2.3-3.3-2.7-4.1-.5zM206 439.5c-.9 1.1-1 1.9-.3 2.6 1.7 1.7 4.8.6 4.8-1.6 0-2.5-2.8-3.1-4.5-1zM173.4 450.5c-.8 1.9.3 3.5 2.5 3.5s4.5-2.5 3.6-4c-.9-1.5-5.5-1.2-6.1.5zM172.1 419.9c-1.7 1.1-.7 4.1 1.3 4.1 2.2 0 3-2 1.5-3.6-.9-.8-1.9-1-2.8-.5zM305 474.7c-3.8 1.6-7 4.1-7 5.4 0 .5.8 1.3 1.8 1.8 1.4.8 2.9.3 6.3-2 2.4-1.6 5.4-2.9 6.5-2.9 2.3 0 4.8-2.3 3.7-3.3-1.1-1.2-7.7-.6-11.3 1zM347.2 514.2c-.9.9-.4 2.1 2.1 5.2 1.8 2.3 4.3 5.7 5.4 7.6 3.1 4.9 11.9 13.4 13.2 12.6 1.9-1.2 1.2-3.1-2-6.2-1.7-1.6-4.1-4.9-5.4-7.4-2.5-4.7-9.6-13-11.2-13-.5 0-1.4.5-2.1 1.2zM14 575.7c0 .4.5 1.5 1 2.3.8 1.3 1 1.3 1-.2 0-.9-.4-2-1-2.3-.5-.3-1-.3-1 .2zM279.5 601.1c-.9 1.3 2.1 9.3 4.1 11 1.2 1 1.6.9 2.1-1 .4-1.8.8-1.9 2-.9 1.2 1 1.8.9 2.9-.6 1.1-1.6 1.6-1.7 2.9-.6 1.9 1.6 3.9.1 3.3-2.6-.2-1.2-1.2-1.9-2.8-2-1.4 0-3.4-.4-4.4-.9-1.3-.6-2.2-.3-3.1.9-1.1 1.5-1.4 1.3-2.5-1.4-1.3-3-3.3-3.9-4.5-1.9zM209.1 68.9c-1.6 2.8 1.1 4.8 4.4 3.3 2.8-1.3 3.3-3.2 1-3.2-.8 0-1.5-.5-1.5-1 0-1.7-2.9-1.1-3.9.9zM210.5 125.3c-.8 1.3-1.4 3.5-1.3 4.8.3 2.1-.1 2.4-2.9 2.5-3.7 0-6.3 1.9-6.3 4.4 0 2.3 1.5 2.8 6.2 2.2 2.8-.3 4.7-1.4 7.3-4.3 3.7-4.2 4.1-5.3 2.5-9.3-1.2-3.2-3.5-3.3-5.5-.3zM480.5 466c-.3.5-.1 1 .4 1 .6 0 1.1-.5 1.1-1 0-.6-.2-1-.4-1-.3 0-.8.4-1.1 1zM484.6 467.7c-1.1 1.1-.6 2.3.9 2.3.8 0 1.5-.4 1.5-.9 0-1.3-1.6-2.2-2.4-1.4zM465.8 471.1c-2 2.1-2.3 3.9-.8 3.9.6 0 1-.6 1-1.4 0-.7.9-1.6 2-1.9 1.1-.3 2-1 2-1.6 0-1.7-2.3-1.2-4.2 1zM372.6 472.2c-1.7.9-1.6 1.2 1.2 4.2 1.6 1.7 4.1 4.8 5.7 6.8 2.9 4 5.2 4.8 6.1 2.3.7-1.7-1.5-5.5-5.5-9.8-3.6-3.9-5.3-4.7-7.5-3.5zM70 473.9c0 .5.5 1.3 1 1.6.6.3 1 .2 1-.4 0-.5-.4-1.3-1-1.6-.5-.3-1-.2-1 .4zM491.8 477.5c-2.5 3.3-2.3 3.6 1.2 1.8 2.5-1.2 2.9-1.8 1.9-2.9-1.4-1.7-1.1-1.8-3.1 1.1zM63.6 477.4c.3.9 1.1 1.6 1.6 1.6 1.3 0 .5-2.3-1-2.8-.7-.2-1 .2-.6 1.2zM67 481.4c0 .9.7 1.6 1.6 1.6 1.7 0 1.4-2.2-.4-2.8-.7-.2-1.2.3-1.2 1.2zM128 481.5c0 1.1.5 2.7 1 3.5.8 1.2 1 1.2 1-.5 0-1.1-.5-2.7-1-3.5-.8-1.2-1-1.2-1 .5zM490.5 483c-1 1.6.4 3 3.1 3s2.4-1.4-.6-3c-1.3-.7-2.1-.7-2.5 0zM76.5 484c.3.5 1.1 1 1.6 1 .6 0 .7-.5.4-1-.3-.6-1.1-1-1.6-1-.6 0-.7.4-.4 1zM499.1 487.6c0 1.1.3 1.4.6.6.3-.7.2-1.6-.1-1.9-.3-.4-.6.2-.5 1.3zM19 488c-.8.5-1.1 1.2-.7 1.6.4.4 1.5 0 2.4-.9 1.8-1.8.8-2.3-1.7-.7zM124 488.1c0 .5.5.7 1 .4.6-.3 1-.8 1-1.1 0-.2-.4-.4-1-.4-.5 0-1 .5-1 1.1zM493.3 491.7c-1.8.7-1.6 3.3.2 3.3.8 0 1.5-.2 1.5-.4s.3-1.1.6-2c.6-1.6 0-1.9-2.3-.9zM126 493c0 .5.5 1 1.1 1 .5 0 .7-.5.4-1-.3-.6-.8-1-1.1-1-.2 0-.4.4-.4 1zM15.5 495c-1.5 1.7-1.6 2-.3 2 .9 0 1.9-.7 2.2-1.6 1-2.5.1-2.7-1.9-.4zM11.6 498.5c-.6 1.7 1.9 3.9 3.4 3 .5-.3 1-1.2 1-1.9 0-1.8-3.7-2.7-4.4-1.1zM497.7 507c-.9 1.3-1.4 2.7-1.1 3.2.7 1.2 3.4 1 3.4-.3 0-.5-.6-.7-1.2-.3-.9.6-.9.3 0-.9.8-.9 1.2-2.2 1-2.9-.3-.7-1.1-.3-2.1 1.2zM108 526.9c0 .6.5 1.3 1 1.6.6.3 1-.1 1-.9 0-.9-.4-1.6-1-1.6-.5 0-1 .4-1 .9zM491.8 529.1c.3 2.3.7 2.7 1.7 1.9 2.4-2 2.4-4.5 0-4.6-1.8-.1-2.1.3-1.7 2.7zM497 531.2c0 .7.8 2.2 1.6 3.3 1.5 1.9 1.5 1.9 1.2-.9-.3-2.9-2.8-5.1-2.8-2.4zM408 576.6c-1 1.1-.9 1.4.8 1.4 2.5 0 3.7-1.6 1.8-2.3-.8-.3-2 .1-2.6.9zM498 606.1c0 .8-1.4 1-4.1.6l-4.1-.5 2.8 2.9c2.6 2.7 2.8 5.7.2 3.1-3.3-3.3-3.8.1-.5 3.6 1.5 1.7 1.8 2.6 1 2.9-1.9.7-1.6 2.7.8 5.7 1.1 1.4 1.6 2.6 1 2.6-.6 0-1.1.9-1.1 2s.5 2 1 2c1.3 0 1.3 2.6-.1 5.1-.8 1.6-1.3 1.8-2.5.8-1.8-1.5-1.8-3 .1-2.3 2.5 1 1.7-2.2-1-4-2.9-1.9-3.3-3.6-.8-3.6 1.6 0 1.6-.1.1-1.6-.9-.9-2.4-1.4-3.2-1.1-1.8.7-2.2 5.2-.6 6.2.6.4.8 1.4.6 2.3-.3 1-.2 2.2.2 2.7 1.2 1.7 12.2 8.6 12.2 7.6 0-.5-.7-1.1-1.5-1.5-.8-.3-1.5-1-1.5-1.7 0-.6.7-.9 1.5-.5 1 .4 1.5-.1 1.5-1.5 0-1.1-.7-3.6-1.5-5.6-1.9-4.4-1.9-4.7 0-3.9 1.2.4 1.4-.4 1.4-4.4-.1-4-.5-4.9-2.3-5.4l-2.1-.6 2.3-1.9c1.7-1.5 2.2-3 2.2-6.5 0-2.5-.4-4.6-1-4.6-.5 0-1 .5-1 1.1zM486 609c0 .5.5 1 1 1 .6 0 1-.5 1-1 0-.6-.4-1-1-1-.5 0-1 .4-1 1zM446.1 611.6c0 1.1.3 1.4.6.6.3-.7.2-1.6-.1-1.9-.3-.4-.6.2-.5 1.3zM448 617c0 .5.5 1 1.1 1 .5 0 .7-.5.4-1-.3-.6-.8-1-1.1-1-.2 0-.4.4-.4 1zM271.1 618.4c-1.7 2-1 6.7 1.1 8 2.6 1.6 3.8-.3 3.1-5.2-.6-4.3-2.1-5.3-4.2-2.8zM399 622.5c.7.9 1.5 1.3 1.7 1.1.7-.7-.7-2.6-1.9-2.6-.6 0-.6.6.2 1.5zM369 632c0 .5.5 1 1 1 .6 0 1-.5 1-1 0-.6-.4-1-1-1-.5 0-1 .4-1 1zM376 632.9c0 1.4.5 1.9 1.5 1.4 1.7-.6 1.5-2.5-.3-3.1-.7-.2-1.2.5-1.2 1.7zM488 641.3c0 .9 1.7 3.2 3.8 5.2 2 2 3.3 3.5 2.7 3.4-3.2-.5-3.6.2-1.5 3.1 2.2 3.1 2 6.5-.3 5.8-.6-.3-1.6-1.4-2.2-2.6-1.5-3.5-2.7-2.6-1.9 1.5.7 3.5.6 3.7-1 2.4-1.1-.9-1.5-2.2-1.2-3.7.4-1.3.2-2.6-.4-2.9-.5-.3-1 .3-1 1.4 0 1.2-.5 2.1-1 2.1-1.1 0-1.4-.7-2.4-5-.3-1.4-1-3.2-1.5-4-1.6-2.4-2.4-.4-1.3 3 1 2.7.9 3-.6 2.8-2.6-.5-2.7 8.5 0 14.4 1.8 4 1.9 5.2 1 7.3-1.8 3.9-1.5 7.6.6 8.2 1.8.4 5.2 9.2 5.2 13.3 0 1.1.7 2 1.5 2 1.8 0 1.8.1.5 3.5-.9 2.3-1.3 2.5-2.5 1.5-1.3-1.1-1.5-.7-1.5 2.3 0 2 .5 3.9 1.1 4.3.6.3.8 1.6.5 2.9-.4 1.7.2 3.1 2.6 5.4 3.9 3.8 5.2 3.9 4.4.3-2.4-9.7-1.3-10.9 2.4-2.5 1.5 3.3 2.4 4.3 3.1 3.6.8-.8.7-1.7-.1-3.3-1.1-2.1-1-2.2.9-1.7 1.6.4 2.1.1 2.1-1.5 0-1.5-.5-1.9-2-1.5-1 .3-2.5-.1-3.1-.9-1.6-1.9-.4-3 1.6-1.4 1.3 1.1 1.4.5.9-4.1-.3-3-.6-6.5-.8-7.9-.1-1.4-.8-3.9-1.5-5.5-1.1-2.6-2.5-8.8-3.3-14.9-.3-2.2 2-3.4 2.6-1.4.3.7.7 3 1.1 5.1.3 2.1 1 3.5 1.6 3.2 1.2-.8 1.2-5.2 0-6-.5-.3-1.2-1.8-1.6-3.4-.5-2.2-1.1-2.8-2.4-2.4-1.4.3-2.1-.4-3-2.8-1.4-4-1.4-4.9-.1-4.9.6 0 1.5 1.1 2 2.5s1.6 2.5 2.4 2.5c.8 0 2.3.3 3.3.7 1.4.5 1.6.4.7-.8-.6-.8-1.1-3-1.2-4.9-.2-1.9-.5-4.3-.8-5.3-.3-.9-.1-1.7.5-1.7.5 0 1.5.8 2 1.7.9 1.5 1 1.1 1.1-1.8 0-1.9-.6-4.1-1.2-4.7-1-1-1-1.4 0-2.1 1-.6.5-1.5-2-3.5-1.8-1.5-4.5-3.9-6-5.3-2.1-2-2.8-2.3-2.8-1zm-7.2 17.2c.7 1.4 1.2 3 1.2 3.5 0 1.7-1.7 1.1-2.3-.8-.2-.9-.8-2.5-1.2-3.5-1.1-2.7 1.1-2 2.3.8zm6.2 6.2c0 3.7-2.4 2.2-2.8-1.7-.3-3-.2-3.2 1.2-2.1.9.8 1.6 2.5 1.6 3.8zm9 .5c0 3-2.5 1.5-2.8-1.7-.3-2.5-.2-2.7 1.2-1.6.9.8 1.6 2.2 1.6 3.3zm-8 7.4c0 .8-.4 1.2-1 .9-.5-.3-1-1-1-1.6 0-.5.5-.9 1-.9.6 0 1 .7 1 1.6zm-2.8 4.9c.3 1.4.2 2.5-.1 2.5-1.1 0-3.2-4.1-2.6-5.1.9-1.4 2.2-.2 2.7 2.6zm-4.7 1.5c.3.5.1 1-.4 1-.6 0-1.1-.5-1.1-1 0-.6.2-1 .4-1 .3 0 .8.4 1.1 1zm9.5 3.1c0 1.1-.4 1.7-1 1.4-.5-.3-1-1.3-1-2.1s.5-1.4 1-1.4c.6 0 1 .9 1 2.1zm2.4 5.4c.3.8.3 2.1 0 2.9-.3.7.4 4.2 1.5 7.6 2 6 2 9.3-.1 7.2-1.6-1.6-5-16.9-4.1-18.5.7-1.2 2-.8 2.7.8zm-3.4 20.1c0 1.8-.5 2.5-1.7 2.2-.9-.2-1.8-.9-2.1-1.6-.2-.7.2-1 1.2-.6 1.1.4 1.6.1 1.6-1 0-.9.2-1.6.5-1.6s.5 1.2.5 2.6zm-.2 7.3c.3.8-.1 1.2-.9.9-.7-.2-1.5-1-1.7-1.7-.3-.8.1-1.2.9-.9.7.2 1.5 1 1.7 1.7zM413 649.9c0 .6.4 1.3 1 1.6.6.3.7-.1.4-.9-.7-1.8-1.4-2.1-1.4-.7zM409.6 654.9c-.4.5-.2 2 .3 3.3.9 2.1 1 2.1 1-1 .1-3.2-.3-3.9-1.3-2.3zM394.8 657.5c-.3 1.4-.1 2.8.3 3.1.5.3.9-.9.9-2.5 0-3.8-.6-4-1.2-.6z"/><path d="M405.4 659.5c1.3 9.2 2.3 13.5 3.5 14.9.8 1 .9 1.6.1 2.1-.7.4-.6 1.5.3 3.3 2.1 4.1 3.7 9.4 3.1 10.3-.3.5-1.5.4-2.7-.1-1.7-.8-1.7-.7.3.7 1.4 1 3.8 3 5.3 4.5 1.6 1.6 3.3 2.8 3.8 2.8 1.5 0 1-1.8-1.2-3.9-1.1-1-2.5-3.6-2.9-5.7-.9-4-.5-5.8.9-3.6.4.7 1.5 1 2.5.6 1.8-.7 3.6.9 3.6 3.4 0 .9-.7 1.1-2.1.7-1.5-.5-2-.3-1.7.6.3.8 1.3 1.6 2.4 1.7 3.4.6 5.9 5.2 2.8 5.2-2.5 0-1.2 3.5 1.4 3.6 1.2.1 3.2 1 4.3 2 2.3 2 3.2 2.3 10.7 2.8 5.5.4 6.3-.4 3.8-3.7-.7-.9-2.5-1.7-3.8-1.7-2.6 0-3.9-2-5.4-8.3-.7-3.2.9-3.6 3.8-1 2 1.8 3.7 1.1 2-.9-.5-.7-1-2.4-1-3.8-.1-4.1-1-9.7-2.1-13.2-.6-1.8-1.1-5.1-1.2-7.3-.3-5.3-1.5-7.6-3.6-6.8-1.4.5-1.4.8-.1 1.7.8.6 1.5 2 1.6 3.1.6 6.4 1.8 14.2 2.5 15.1.4.7 0 1.7-.7 2.4-1.9 1.5-3.8-1.3-6.1-9-.9-3-1.8-6-2-6.5-.7-2.1-.3 7.2.4 11.8.4 2.6.5 5 .1 5.2-1.2.7-3.3-2.3-2.5-3.5.8-1.3-1.4-4.2-2.6-3.5-.4.3-.6 1.2-.2 2 .3 1-.1 1.5-1.1 1.5-.9 0-1.9-.7-2.2-1.5-.4-.8-1.6-1.5-2.9-1.5-1.9 0-2.3-.7-2.8-4.8-1-6.8-1.2-8.1-2-8.8-1-1-.9 3.6.2 7.4 1.3 4.3-.6 4.3-2.3-.1-.8-1.7-1.7-5-2-7.2-1-5.6-3-8.4-2.2-3zm13.4 19.7c.7.7 1.2 2 1.2 3.1 0 1.7-.2 1.7-2.8-.5-1.9-1.5-2.5-2.6-1.8-3 1.5-1 2-1 3.4.4zm17.3 4.8c2 1.1 2.7 4.4.7 3.8-1.3-.5-4.4-4.8-3.4-4.8.4 0 1.6.5 2.7 1zm-6.1 2.5c.7.8 1 2.1.7 2.9-.3.8.1 2 .9 2.6 1.5 1.4 1.9 4 .5 4-.5 0-1.4-.7-2.1-1.5-.7-.8-1.6-1.2-2.2-.9-1 .7-3.8-1.4-3.8-2.8 0-.6 1.1-.7 2.6-.4 2.1.6 2.5.4 2-.8-.3-.9-.9-2.3-1.2-3.1-.8-1.9 1-1.9 2.6 0zm0 11.5c.6 1.1.7 2 .2 2-1 0-3.2-2.1-3.2-3.2 0-1.6 1.9-.8 3 1.2zm4.5 2c1.6 1.7 1.6 2 .3 1.5-.9-.4-1.9-1.3-2.2-2.1-.7-1.9-.2-1.8 1.9.6zm6 3c.3.5-.1 1-.9 1-.9 0-1.6-.5-1.6-1 0-.6.4-1 .9-1 .6 0 1.3.4 1.6 1zM402.1 664c0 6.9 2 16.5 3.8 18.2 1.1 1.1 1.2.9.8-.7-.3-1.1-1.1-5.8-1.7-10.5-1.6-11.2-2.9-14.3-2.9-7zM448 661c0 .4 1.1 1 2.5 1.2 1.6.3 2.5.1 2.5-.7 0-.7-1.1-1.3-2.5-1.3s-2.5.4-2.5.8zM438.5 663c.3.5.8 1 1.1 1 .2 0 .4-.5.4-1 0-.6-.5-1-1.1-1-.5 0-.7.4-.4 1zM447.1 663.9c-.9.6-1.1 1.8-.5 4.2.8 3.9 1.1 5.8 1.7 11.1.2 2.1.9 4.3 1.5 5 .5.7 1.3 4.4 1.6 8.2.6 6.4 3.2 17.6 4.2 17.6.5 0-.1-5.1-.9-7-.7-1.7-2.8-15.6-2.5-16.7.1-.5-.2-1.9-.6-3.3-.8-2.9-1.4-8.5-1.5-15.3-.1-4.8-.5-5.3-3-3.8zM442 665.5c0 .9.5 1.5 1.1 1.3.6-.2 1.1-.8 1.1-1.3s-.5-1.1-1.1-1.3c-.6-.2-1.1.4-1.1 1.3zM455 667c0 .5.5 1 1.1 1 .5 0 .7-.5.4-1-.3-.6-.8-1-1.1-1-.2 0-.4.4-.4 1zM442.7 670.3c-1 2.6-.9 9.7.3 15.9 1.7 8.6 4.4 17.8 5.2 17.8 1.1 0 1-1.5-.4-4.5-.9-2-.9-3.1 0-4.5.7-1.1.8-2.1.2-2.5-.8-.5-1-1.5-1-6.8 0-1.2-.7-4.5-1.5-7.2-.8-2.8-1.6-6.1-1.7-7.5-.3-2.1-.4-2.2-1.1-.7zM457 670.4c0 .2.7 1.7 1.5 3.2 1.5 2.9 2.2 1.3.9-2-.5-1.4-2.4-2.3-2.4-1.2zM288.6 677.9c-.7 1.1 2.5 3.5 6.2 4.6 2.4.7 4.3-1.8 2.6-3.5-1.5-1.4-8.1-2.3-8.8-1.1zM454.7 679.7c-.8 1.3.3 5.3 1.4 5.3.5 0 .9 2 .9 4.4 0 2.4.5 4.6 1.1 4.8.7.2.7 1.2.1 2.9-1.2 3-.9 7.7.6 10.5.8 1.6 1.8 2 4.1 1.6 2.5-.3 3.2 0 4.2 2.2.7 1.4 1.6 2.6 2 2.6 1.7 0 1.5-2.7-.3-5.3-2-2.8-2.1-6.8-.2-7.4 1-.3 2.2 3 3.9 11.1.4 2 .9 2.6 1.6 1.9.7-.7.7-2.9-.1-6.9-.6-3.3-1.2-6.8-1.3-7.8-.2-2.3-2.7-3.4-2.7-1.2 0 .9-.8 1.6-1.9 1.6-1.3 0-1.9-.7-1.9-2.3-.1-5.8-1.5-11.7-2.9-11.7-.9 0-1.2.6-.9 1.7.3 1 1 3.8 1.5 6.3.4 2.5.9 4.9 1.1 5.5.5 2 0 4.5-1 4.5-1.7 0-3.9-4.4-4.1-8.5-.1-2.2-.5-4.4-.8-5-.3-.5-.7-2.8-.9-5-.3-4-2.5-7.5-3.5-5.8zM462.7 680.7c-.4.3-.7 1.1-.7 1.7 0 .6.5.5 1.2-.2.6-.6.9-1.4.7-1.7-.3-.3-.9-.2-1.2.2zM285.7 682.7c-1.2 1.1-.8 1.8 2.4 3.7 3 1.8 5.9 1.6 5.9-.3 0-1-5.1-4.1-6.8-4.1-.5 0-1.2.3-1.5.7zM479 687.4c0 .9.5 1.6 1 1.6.6 0 1-.4 1-.9 0-.6-.4-1.3-1-1.6-.5-.3-1 .1-1 .9zM497 687.4c0 .8.5 1.8 1 2.1.6.3 1-.3 1-1.4 0-1.2-.4-2.1-1-2.1-.5 0-1 .6-1 1.4zM480 690.9c0 .5.5 1.3 1 1.6.6.3 1 .2 1-.4 0-.5-.4-1.3-1-1.6-.5-.3-1-.2-1 .4zM66.5 705.2c-7.2 7.3-14.3 14.9-15.7 16.8-2.5 3.4-2.7 3.4-5.1 2-7.3-4.4-11.7-7.7-15.9-11.7-3.8-3.8-5.1-4.4-7.2-3.9-3.8.9-22.6 20.2-22.6 23.2 0 1.3.4 2.4.9 2.4.4 0 5.3-4.7 10.8-10.5 5.5-5.8 10.7-10.5 11.5-10.5.9 0 2.3 1.1 3.2 2.4.8 1.4 4.2 4.2 7.3 6.2 3.2 2.1 9.8 7.5 14.6 12.1 7.5 7.1 10.6 9.2 21.1 14.3 14 6.8 20.1 7.8 24.9 4l2.6-2.1 6.8 3c3.7 1.6 8 3.3 9.6 3.6 1.5.4 3 1.1 3.3 1.6.7 1.2-18.6 1.1-30.3-.2-10.4-1.1-14.3-.7-14.3 1.6 0 1.6 1.6 2.1 10.4 3 3.3.4 6.9 1 8 1.5 4.5 1.7-3.8 2.4-14.9 1.2-9.1-1-12.2-1.8-18-4.7-7.7-3.8-13.8-5.4-20.3-5.5-3.5 0-4.3.3-4 1.6.2 1.2 2.9 2.3 8.8 3.9 4.7 1.1 11.9 3.5 16 5.2 6 2.4 9.6 3.1 18 3.6 12.9.8 18.5-.2 21.4-3.7 1.1-1.4 3-2.5 4.1-2.5 6 .2 29.3-1.5 30.8-2.3 2.6-1.3 2-3.7-1-4.3-7-1.5-20.1-5.7-28.1-9.1-4.3-1.8-8.4-1.8-14.1.3-4.6 1.6-4.9 1.6-10.7-.8-5.2-2.1-10.7-5.7-22.1-14.5-1.8-1.4-3.3-3.3-3.3-4.2 0-2.8 16.7-21.2 19.2-21.2 1.2 0 4-1.9 6.4-4.5l4.3-4.5 3.5 3.8c1.8 2 5.7 6.4 8.6 9.7 2.8 3.3 5.9 6.4 6.8 6.9.9.5 7.8 7.1 15.2 14.5 15.6 15.7 21.4 20.5 23.5 19.7 2.2-.8 1.8-2.4-1-4.9-4.5-3.9-18-17.9-18-18.7 0-.8 11.2-10 12.2-10 .4 0 2.5 1.8 4.8 4 7.8 7.6 41.7 31 45 31 1.3 0 3.5-.5 4.9-1.1 1.9-.9 4.2-.8 10.2.6 5.4 1.2 9.6 1.5 13.7 1 10.3-1.1 23.3-.7 27.3 1 2.9 1.2 4 1.3 5.1.3 1.3-1 1.2-1.5-.8-3-2-1.7-4.1-1.9-20.3-1.7-10.9.1-20.6-.4-24.3-1.1-3.5-.7-8.4-1-11-.7-5.5.6-7.4-.3-22.9-11-5.1-3.4-9.5-6.3-9.8-6.3-1.1 0-11.6-10.5-11.6-11.7 0-2.1-4.3-4.3-8.5-4.3-3.3 0-5.3.9-10.7 5-3.7 2.7-7 5-7.5 5-1.3 0-29.3-28.7-29.3-29.9 0-.6-.6-1.1-1.4-1.1-.7 0-1.9-.7-2.6-1.5-.7-.8-2-1.5-2.8-1.5-.9 0-7.5 6-14.7 13.2z"/><path d="M70.7 711.2c-3 3.9-7.7 16.8-7.7 20.8 0 6.3 5 3.7 6.9-3.7.7-2.3 2.5-7.4 4.1-11.2 1.7-3.8 3-7.5 3-8 0-2.3-4-.9-6.3 2.1zM480 712.1c0 1.5.7 3.2 1.5 3.9 1.9 1.6 1.9 0 0-3.6l-1.5-2.9v2.6zM130.9 722c-2.1 1.2-5.3 8.5-4.5 10.5 1 2.6 2.8 1.3 5.8-4.2 2.2-4 2.5-5.3 1.5-6.1-.7-.6-1.8-.7-2.8-.2zM495.5 724c-.3.5-.1 1 .4 1 .6 0 1.1-.5 1.1-1 0-.6-.2-1-.4-1-.3 0-.8.4-1.1 1zM1.3 754.6c-3.9 1.7 2.7 6.3 9.5 6.5 3.2.2 3.3.2.7.6-1.6.2-4.9.6-7.3.9l-4.3.5.2 12.2c.1 8 .5 12.4 1.2 12.9.8.5 1.1 3.7.9 9.6-.4 10.1.7 12.4 4.6 9.6C8.8 806 9 805 9 796.9v-9l5.3.6c2.8.3 6.6.8 8.2 1 4.5.7 10.8-1.1 12.8-3.6 2.6-3.3 1.7-4.6-4.7-6.9-2.3-.8-2.6-1.3-1.7-2.4 1.4-1.6.8-2.1-3.5-3-1.8-.4-3.4-1.5-3.7-2.5-.4-1.8-5-3.1-11.4-3.1-1.8 0-3.3-.5-3.3-1 0-.6 1.7-1 3.9-1 7.5 0 12.7-3.5 10.5-7.1-1.6-2.7-16.6-5.9-20.1-4.3zm10 18.1c-.7.2-1.9.2-2.5 0-.7-.3-.2-.5 1.2-.5s1.9.2 1.3.5zm17.6 9.2c3.3.9 3.7 2.7 1 4.1-1.7.9-4.3.9-11.6 0-9.9-1.3-10.8-2.4-3.2-3.9 5.3-1.1 10.5-1.1 13.8-.2zM380 757.9c0 1.4 4.1 1.9 19.6 2.5 12.8.4 17.1-.2 14.3-2-2.1-1.3-33.9-1.8-33.9-.5zM122.8 770.3c-6 1.3-8.5 2.8-7.4 4.6 1 1.6 4.2 1.3 5.7-.5 1.2-1.4 2.8-1.6 11.9-.9 5.8.4 33.9.9 62.5 1.2 28.6.2 59.9.5 69.5.6 9.6.1 23.8-.1 31.5-.5 15.1-.8 49.2-1.3 69.5-1 11 .1 15.5-.6 13.8-2.3-.6-.6-22.9-1.8-32.8-1.8-3.6 0-23.1.5-43.5 1.2-20.3.6-42.2.8-48.5.3-6.3-.4-27.2-.5-46.5-.2-31.1.5-46.2.2-72.5-1.4-4.1-.3-10.1 0-13.2.7zM41.7 772.7c-.4.3-.7.9-.7 1.3 0 1 5 3.1 6 2.5 1.3-.8 6.9 1.6 6.4 2.8-.2.7 1.3 2.2 3.4 3.3 3.1 1.8 5.6 2.2 14.2 2.4 18.2.3 22.6.1 35.7-1.5 13.7-1.7 18.3-2.9 16.6-4.6-.6-.6-4.2-.6-10.4.1-14.6 1.7-33.6 2.5-42.9 2-7.9-.5-8.5-.6-9-2.9-.5-2.1-1.7-2.8-7.5-4.3-7.5-1.9-10.8-2.2-11.8-1.1zM385.5 773.1c-.8 1.2.5 1.6 7 2.3 5.2.6 9.9-.4 8.5-1.7-.9-.9-15.1-1.4-15.5-.6zM181.6 781.8c-.3.6-.1 1.4.4 1.7 1.7 1.1 86 1.6 91 .6 6.2-1.2 4.5-1.3-31-1.5-16.2-.1-36.3-.6-44.6-1-10.6-.6-15.3-.6-15.8.2zM347.3 781.9c-12.6.7-14.6 2.1-3.1 2.1 12.3 0 24.7-1.2 22.3-2.1-2.2-.8-3.9-.8-19.2 0zM280 783c-1.2.8-.9 1 1.3 1 1.5 0 2.7-.5 2.7-1 0-1.3-2-1.3-4 0zM287.2 782.9c-1.1.7-1 1 .3 1.5 2.5.9 6.5.7 6.5-.4 0-.6-.6-1-1.4-1-.8 0-2-.2-2.8-.5-.7-.3-1.9-.1-2.6.4zM316 783c3.6 1.2 7 1.2 7 0 0-.6-2.1-1-4.7-.9-3.9.1-4.3.2-2.3.9zM372 783c0 .5.5 1 1 1 .6 0 1-.5 1-1 0-.6-.4-1-1-1-.5 0-1 .4-1 1zM177.5 791.5c-2.9 2-11.4 3-24.5 2.8-36.7-.5-46.4-.3-48 1.2-.9.8-2.1 1.5-2.7 1.5-.6 0-1.6.6-2.2 1.4-1.7 2.1 2.3 4.6 7.4 4.6 2.2 0 8.3.7 13.5 1.5 7.8 1.1 9.7 1.2 10.8.1 1.1-1.1 1.1-1.6-.3-3-1.3-1.3-3.8-1.6-11.8-1.7-9.6-.1-10-.1-7.2-1.5 2.5-1.2 7.5-1.3 29.1-.8 24.8.5 26.5.5 35.3-1.7l9.2-2.2 21.7 1.9c17 1.5 28.8 1.8 54.7 1.7 18.2-.2 37.4-.5 42.8-.8 9.5-.6 10-.5 12.3 1.8 3.2 3.2 9.3 4.7 14.2 3.6 2-.5 10.6-.9 19-1 8.3 0 15.2-.4 15.2-.9 0-.4-7.3-1-16.2-1.4-22.9-.9-26.5-1.4-27.1-3.7-.4-1.6-1.6-1.9-8.4-2.1-4.3-.1-8.7-.1-9.8-.1-28.1.9-48 1.6-52 1.9-5.7.4-32.3-1.3-40.5-2.6-3-.5-11.6-1.2-19-1.4-10.7-.4-13.9-.3-15.5.9z"/><path d="M14.7 792.7c-1.7 1.7-.6 3.4 2 3.1 3.6-.4 4.5-3.8 1-3.8-1.3 0-2.7.3-3 .7zM84.6 835.9c-.3.4.3 1.6 1.4 2.6 1.8 1.6 1.9 2.9 1.6 16.2-.3 15.9-.2 16.3 5.6 14.7l3-.9-.1-13.4c-.2-11.3.1-13.6 1.5-15.2 2.7-3 .4-4.6-6.6-4.8-3.2 0-6.1.3-6.4.8z"/><path d="M111.3 836.8c-13.2 4.5-17.3 22.1-6.9 29.5 2.6 1.8 4.4 2.2 11.3 2.2 4.5 0 8.6-.5 9.2-1 .5-.6 1.1-3.5 1.3-6.5l.3-5.5H119c-6 0-7.5.3-7.5 1.5 0 1 1.2 1.6 3.2 1.8 1.9.2 3.7 1.1 4.3 2.1 1.2 2.4.4 3.1-3.5 3.1-2.9 0-3.4-.5-4.9-4.3-2.9-7.7-1.9-15 2.4-17.2 2.4-1.2 3-1.2 5.6.6 3.7 2.4 4 2.4 5.9-.5 1.3-1.9 1.4-2.9.6-4.4-1.3-2.5-8.6-3.3-13.8-1.4zM154.2 836c-1.8.8-2.1 1.3-1.3 2.8.5 1 .6 3.3.2 5.2-.6 3.3-.9 3.5-4.6 3.5h-4l-.5-5.5-.5-5.5-4.4-.3c-5.4-.4-7.7.3-6.3 2.1 1.6 1.9 1.8 25.3.2 27.2-.7.8-1.1 1.7-.9 2 1.2 1.1 8.8 2.1 10.8 1.4 2.1-.8 2.2-1.2 1.6-7.3-1-8.7-.2-10.6 4-10.6 1.9 0 3.7.5 4.1 1.1.4.7.6 4.2.5 7.9-.1 4.5.2 7 1.1 7.7 1.5 1.3 10.8.5 10.8-.8 0-.5-.7-.9-1.5-.9-1.3 0-1.5-2.1-1.5-13.3 0-8.9.4-13.7 1.2-14.5.6-.6.9-1.4.6-1.7-1.1-1.1-7.4-1.4-9.6-.5zM281.8 836.1c-1 .7-.8 1.2.8 2.3 3 2.1 4.8 6.9 4 10.8-1 5-4.3 11.6-4.9 9.8-4.2-12.7-5.5-17.9-5.1-19.6.5-2 0-2.2-6.1-2.9-8.3-.8-10.1.3-6.2 3.9 1.5 1.4 2.7 3.1 2.7 3.9 0 1.5 6.3 17.4 9.1 22.8 1.9 3.9 3.9 5.2 6.4 4.3 1.4-.6 6.5-10.5 6.5-12.8 0-.7.6-2 1.3-2.9 1.1-1.6 1.7-1.1 5.4 4.6 6.8 10.4 12.7 11.5 16.4 3.2 1.1-2.4 2.4-4.7 3-5 .5-.4.7-1.5.4-2.4-.7-2.5 4.1-15.3 6.5-17.3 1.8-1.5 1.9-1.8.5-2.6-1.7-.9-10 0-11.3 1.2-.4.4 0 1.2.9 1.7 1.5.8 1.3 1.8-1.5 10.4-1.7 5.2-3.5 9.5-4.1 9.5-.9 0-9.6-14.1-10.2-16.5-.6-2.4 1.9-4.1 6.5-4.4.6-.1 1.2-.7 1.2-1.5 0-1.2-2-1.5-10.4-1.4-5.8.1-11 .5-11.8.9zM330 836.2c-2.3.8-2.5 1.9-.8 3.6.9.9.7 2-.5 4.9-.9 2.1-2.8 7.6-4.3 12.3-1.4 4.7-3.3 9.3-4.1 10.2-1.3 1.5-1.3 1.8-.2 2.2 3.6 1.1 7.5 1.3 9.2.4 1.8-.9 1.8-1.1.2-2.8-1.6-1.8-1.6-2.2 0-7.1l1.7-5.2 6.6.7c3.6.4 6.8.9 7.2 1.1.4.2 1.3 2.3 2 4.6 1.3 3.8 1.2 4.2-.5 5.5-3.7 2.8-.3 3.8 13.1 3.8 13.5.1 17.1-1 11.7-3.6l-2.8-1.4.4-8.9c.1-5 .5-9.2.7-9.4.8-.9 4.1 3 6.3 7.4 2.8 5.7 11.7 15.5 14.1 15.5 3.2 0 3.8-2.3 4.3-16.5.2-7.7.8-14.8 1.2-15.8.6-1.5.1-1.7-4.3-1.7-6.6 0-8.4.7-7.3 2.8 1.3 2.6 2.3 16.2 1.1 16.2-.5 0-1.7-1.5-2.6-3.3-.9-1.7-3.6-5.9-6-9.3l-4.3-6h-7.2c-4.8.1-7.4.5-7.7 1.3-.2.7.3 1.3 1.2 1.3.8 0 1.8.6 2.2 1.2 1.1 1.8.5 26.1-.7 27.3-1.8 1.8-4.2-1-5.9-7.1-3-10.7-9-23.4-11.4-23.9-4.2-.9-10.6-1-12.6-.3zm10.2 9.3c1.2 2.4 1.9 4.7 1.6 5-.3.4-2.2.3-4.2 0-3.9-.8-4.5-2.4-2.4-7 1.6-3.5 2.5-3.2 5 2zM400 835.9c-1.3.9-1.2 1.3.7 2.6 2.2 1.5 2.2 2.1 2 16l-.2 14.5 5.2 1c18.2 3.8 31.2-10.3 24.4-26.4-1.2-2.7-3.1-5-4.8-5.9-3.5-1.9-25.1-3.2-27.3-1.8zm22.5 6.4c2.4 2.4 3.5 4.6 4 7.9 1.3 8.5-1.5 13.8-8.3 15.8-4.1 1.1-6.2-.8-6.3-5.8 0-2-.2-7.3-.3-11.7-.2-4.4-.2-8.3.1-8.8.2-.4 2-.7 4-.7 2.6 0 4.3.8 6.8 3.3z"/><path d="M444.3 835.8c-1.2.2-3.4 1.7-4.8 3.4-2.1 2.4-2.5 4-2.3 7.2l.3 4.1 8.4.1c7.9.1 8.6.2 10.8 2.8 2.7 3.2 3 8.1.8 11.3-1.4 1.9-2.2 2.2-6.8 1.7-2.9-.3-5.3-.9-5.5-1.3-1.8-5.2-5.1-5-9.9.8l-3.2 3.9 12.2-.3c18.3-.3 20.7-1.5 20.7-10.2 0-4.7-.4-5.9-3-8.5-2.9-2.9-3.4-3-8.9-2.4-6.8.8-8.4-.4-7.9-5.6.2-2.8.7-3.4 3-3.6 2.2-.3 3 .2 4 2.2 2.1 4.7 7.1 2.8 6.6-2.5l-.3-3.4h-6c-3.3 0-7 .1-8.2.3zM170.2 837.2c-1.7 1.7-1.5 6.8.4 7.5.8.3 2.5-.4 3.9-1.7 1.3-1.2 3.1-2 4.2-1.8 1.6.3 1.8 1.5 1.8 14.1V869h5.3c5.7 0 6.1-.6 4.1-5.7-.6-1.7-.8-6.3-.3-12.5.6-8.8.9-9.8 2.6-9.8 1.1 0 2.8 1 3.7 2.2l1.8 2.1 2.2-2.2c1.3-1.3 2.1-3.2 1.9-4.4-.3-2.1-.7-2.2-15.4-2.4-10.4-.2-15.4.1-16.2.9zM3 838c0 .6 1 1.4 2.3 1.9 2.2.9 2.3 1.2 2.2 14.3 0 9.9-.4 13.9-1.4 15.1-1.9 2.4.3 3 6.5 1.9 3.6-.6 4.8-1.2 4.5-2.3-.3-.8-.7-3.9-.9-7-.3-4.2 0-6 1.3-7.2.9-1 1.9-1.7 2.3-1.6.4 0 2.7 3 5.1 6.6 3.5 5.3 4.2 7 3.3 8.4-.6.9-.8 1.9-.6 2.2.7.7 26.3-.1 27.5-.9 1.5-.9 1-2.1-1.1-2.7-1.8-.5-2-1.4-2-11.6 0-6.1.4-11.1.8-11.1.5 0 1.6 1.5 2.5 3.2 3.5 6.6 11.8 19.3 13.4 20.5 2.2 1.7 6.9 1.7 8 0 .4-.6.8-6.8.9-13.7 0-6.9.4-13.5.8-14.8.7-2.1.5-2.2-3.9-2.2-4.1 0-4.6.2-4 1.7 1.2 2.8 1.7 17 .7 17.7-.5.3-3.3-3.3-6.2-7.9-2.9-4.7-5.8-8.9-6.4-9.4-.6-.5-4.4-1.2-8.3-1.6-6.4-.6-7.3-.5-7.3.9 0 .9.7 1.9 1.5 2.2 1.2.5 1.5 2.9 1.5 13.3 0 13.4-.5 15.1-4.6 15.1-1.7 0-4.2-2.6-9.8-10-4.2-5.6-7.6-10.4-7.6-10.8 0-1.1 7.2-6.6 9.3-7.2 2.3-.6 2.4-2.4.2-2.8-2.9-.6-8.5.8-8.5 2.1s-7 8.7-8.3 8.7c-1.6 0-.6-6.8 1.3-8.5 1.1-1 1.7-2.2 1.4-2.6-.8-1.3-16.4-1.1-16.4.1zM230.3 842.5c-5.1 2.2-5.2 6.6-.4 13.3 1.1 1.5 2.6 4.8 3.2 7.3 1.1 4.1 1 5-.4 7.3-1 1.4-2.4 2.6-3.2 2.6-.8 0-1.5.6-1.5 1.3 0 1.9 2.1 3.7 4.3 3.7 1.4 0 1.8-.5 1.4-2-.3-1.4.5-2.7 3-4.6 3.4-2.6 3.5-2.9 3.1-7.9-.4-5.2-.4-5.3 2.4-5.9 3.1-.6 3.6-2.9 1.4-5.9-1.5-2-3.8-2.2-6.5-.5-1.5.9-2.3.9-3.6-.2-2.3-1.9-1.5-5.4 1.3-5.8 2.5-.4 3-2.7.6-3.6-.9-.3-1.6-.6-1.7-.6-.1.1-1.6.7-3.4 1.5zM213.7 857.4c-5.1 2.3-6.1 6.2-2.6 9.7 1.8 1.8 2.8 2 7.2 1.4 6.3-.8 7.7-1.9 7.7-6 0-5.8-5.5-8.1-12.3-5.1zm5.3 4.1c.7.8.9 2.2.6 3.1-.6 1.5-.8 1.5-2.6-.1-1.1-1-2-2.4-2-3.2 0-1.8 2.5-1.7 4 .2zM471.7 863.7c-1.4 1.4-.7 6.3.9 6.3 1.9 0 5.7-1.9 6.6-3.4 1.6-2.5-5.3-5.2-7.5-2.9z"/></svg>