<svg version="1" xmlns="http://www.w3.org/2000/svg" width="666.667" height="1170.667" viewBox="0 0 500 878"><path d="M336.3 54.2c-.4.7-.6 2-.5 3 .2.9-.4 3.3-1.3 5.3-1.9 4.7-1.9 6.8 0 10.5.9 1.7 1.2 3 .7 3-.4 0-2.2 1.3-4 2.9-5.8 5.4-3.3 14.8 2.7 10 2.5-2.1 12.1-2.8 12.1-.9 0 .6-1.6 2.4-3.5 4.1-4 3.5-4.4 5.4-1.6 6.9 3.1 1.6 6.6 1.2 9.6-1.2l2.8-2.2 1.7 2.2c1.3 1.5 2 5.6 2.9 15.4.6 7.3 1.4 15.3 1.6 17.8.3 2.5.1 6-.5 7.8-.6 2.2-.5 5.3.1 9 .8 4.2.8 6.6-.2 9.4-1.1 3.5-1 4 1 6.2 2.1 2.2 2.2 3 1.6 9.7-.5 4.8-1.3 7.8-2.3 8.6-.8.7-3.1 4.3-5.1 7.9-2 3.7-4.5 7.2-5.6 7.8-6.6 3.7-20.7 19.3-25.1 27.8-1.5 2.9-1.8 3-6.1 2.4-3.9-.5-4.9-.2-7.6 2-2.7 2.3-3.6 2.5-7.6 1.9-6.6-1-8.8-2.5-11.3-7.5-1.3-2.4-3-4.7-3.8-5.1-9.9-4.5-11.4-4.9-17.9-4.9-6.5 0-7.1-.2-9.6-3.1-1.4-1.8-3.5-4.9-4.6-7-2-3.9-5.3-6.6-6.3-5-.3.5.3 2 1.4 3.4 1.1 1.4 2 3.4 2 4.4 0 1.1.7 2.8 1.5 3.9 2.3 3.1 1.8 3.7-2.9 3.2-5.1-.6-6.9.2-6.4 2.8.3 1.8 1.3 1.9 15.4 1.5 14.2-.3 15.4-.2 19.5 2 2.4 1.2 5.1 2.5 5.9 2.9.8.4 1.6 2.3 1.8 4.4.2 2.8.9 4 2.8 4.8 1.3.6 4.2 3.5 6.4 6.5 4.3 5.7 8.3 8.8 9.9 7.9 1.5-1 4.1-6.7 4.1-9.1 0-1.1.5-2.6 1.2-3.3 1.3-1.3 2.9-1.6 2.7-.5-.6 3.9 2.3 4.4 5.2 1l2-2.2-.5 4c-.3 2.2-.6 5.8-.7 8-.2 7.1 1.2 51.9 1.7 53.5.9 2.5 2.4 22 1.8 23.3-.3.9-2.2-.3-5.7-3.5-5-4.6-11.8-8.5-19.9-11.4-2.1-.7-7.1-3.5-11.1-6.2-12.8-8.4-31.4-15.1-42.4-15.2-3.2 0-2.9 2.8.3 4 1.4.6 4 1 5.7 1 8.2 0 26.8 7.4 34.5 13.7 2.4 1.9 6.9 4.4 10 5.6 3.1 1.1 6.9 2.8 8.4 3.8 1.4 1.1 3.2 1.9 4 1.9 2.1 0 9.8 8.3 9.8 10.7 0 2.5 2.5 4.7 4.5 3.9.8-.3 1.5-1.6 1.5-3 0-1.9.4-2.3 1.9-1.9 1 .3 2.2 0 2.6-.6 1.4-2.3 1.4-14.8 0-23.4-.8-5-1.7-20.7-2.1-35.7-.7-26.5-.7-26.8 1.5-30.4 3.9-6.3 5.2-4.9 5.1 5.6-.1 5.1.3 11.5.9 14.3.6 2.7 1.4 15.5 1.8 28.2.6 21.4.5 23.5-1.2 25.2-1.4 1.7-1.6 3.1-1 9.3 1 10.7 1 10.8 5.8 10.8 6.8 0 2.9 1.6-7.3 3-5.2.7-12 2-15.1 3-4.8 1.4-5.8 1.5-7.6.3-1.2-.8-4.8-1.7-8-2-3.2-.4-7.8-1.7-10.2-3-7.8-4.1-10.2-2.2-2.7 2.2 2.4 1.4 4.7 3.2 5 4 .3.8 2.1 1.7 4 2.1 2.1.3 3.6 1.2 3.6 2 0 1.9-3.2 3.2-3.8 1.6-.5-1.7-5.2-3.9-8.2-3.8-2 .1-2.5.5-2.2 2.5.3 3.3 2.1 5.3 4.2 4.6 1.9-.6 4.7 2 3.1 2.9-1.7 1.1-5.9-1.2-8.7-4.9-1.8-2.4-3.4-3.5-4.7-3.3-3.4.5-3 2.5 1.3 7.2 4.4 4.7 9.5 7 13.6 6 1.2-.3 2.5-.1 2.8.5.5.7-.3 1.1-1.9 1.1-1.4 0-3.9.7-5.5 1.5-5.1 2.6-3.4 8.5 2.4 8.9 2.1.1 2.5.7 2.8 4.3.2 2.4 0 4.3-.4 4.3-.5 0-.8-.8-.8-1.9 0-2.6-2.5-4.4-5-3.6-1.4.5-2.2.1-2.6-1.2-2.5-7.6-4.4-9.3-10.9-9.3-3.4 0-8.5 1.8-8.5 3 0 1.7 2.6 2.7 6.3 2.3 4.3-.4 7.8.9 6.3 2.4-.5.4-1.1.2-1.3-.5-.6-1.7-2.3-1.5-4.5.5-1.7 1.5-2.1 1.5-5.3 0-3.3-1.6-3.6-1.6-7 .4-4.1 2.4-4.2 3.2-1.4 6 2.7 2.7 2.1 5.4-1.1 5.4-2.4 0-2.5-.3-2.5-5.5s-.1-5.5-2.7-5.8c-3.8-.4-7.1 3.1-6.6 6.9.3 1.8.1 2.8-.6 2.6-.6-.2-1.4-2-1.7-4.1-.3-2-1.1-4.2-1.6-4.7-1.5-1.5-5.8-.1-8.4 2.7-1.8 1.9-2 2.6-.9 3.9.7.8 1.8 1.5 2.4 1.5 1.5.1 6.4 3.9 5 4-1.9 0-10.7-4.2-14-6.6-1.7-1.3-3.6-2.4-4.1-2.4-1.6 0-2.3-2.6-1-3.9.6-.6 1.7-1.1 2.4-1.1 2.3 0 6.3-4.8 6.3-7.5 0-1.4.2-2.5.5-2.5.2 0 2.3 1.8 4.5 4s4.3 4 4.6 4c.3 0 2-1.2 3.9-2.7 1.8-1.5 5.3-3.2 7.7-3.8 2.3-.7 5-1.4 5.8-1.6 1.1-.3 1.4.3 1.2 1.9-.5 3.6 2.6 4 5.4.6 2.9-3.6 3-5 .2-6.5-2.1-1.2-2.1-1.2.8-2.7 5.3-2.8 11.3-8.3 11.9-11.1.6-2.8-1.8-10-3.9-11.3-.6-.4-2-.8-3.2-.8-2.1 0-8.4-6.8-8.4-9.1 0-1.4.1-1.3 19.9 4.1 8.5 2.3 18.1 5.5 21.4 7.1 6 2.9 7.7 3 7.7.4 0-3.4-9.1-7.1-30.5-12.5-17.4-4.4-32.5-12.5-32.5-17.5 0-3.5-1.4-4.5-10.6-7.7-7.4-2.6-10.5-3.1-18.4-3.2-13.3-.1-20.6 1.7-24.8 6.1-1.8 2-3.5 3.3-3.9 3-.3-.3.9-3.6 2.6-7.3l3.1-6.7 2.5 2.3c2 1.8 3.1 2.2 6.2 1.7 2.1-.4 4.5-1.5 5.4-2.6 1.5-1.8 3.2-2.1 14-2.5 6.8-.3 15.8-.8 19.9-1.1 8.6-.8 30.6 2.4 37.5 5.4 2.3 1 5.7 2.1 7.8 2.5 2.1.4 5 2 6.9 3.9 8.3 8.2 14.8 15.8 16.1 18.9 1.7 3.9 5.2 7.3 6.6 6.3.6-.3 1.1-2 1.1-3.7 0-2.1-.6-3.1-1.9-3.5-1.1-.3-2.4-1.8-3-3.4-.5-1.6-1.4-2.9-1.9-2.9s-3.9-3.6-7.5-7.9c-7.2-8.6-9.7-10.2-23.2-14.4-14.5-4.5-26.8-5.4-59.8-4.3-8.9.3-11 .1-11.4-1.1-.4-1-1.5-1.3-3.4-.9-3.6.7-3.7.1-.4-2 2.3-1.5 2.7-1.5 4.3-.2 1.5 1.4 2.3 1.4 7.2-.1 7-2.2 14.9-4.2 17.8-4.6 1.3-.2 3.2-1.1 4.2-2 1.6-1.4 3.1-1.6 8.2-1.2 3.5.3 7.4.8 8.8 1.1 5.3.9 18.6 2.5 20.4 2.3 1.3-.1 3.7 2.1 7.3 6.8 5.9 7.7 8.8 9.2 9.9 5.1.3-1.4.1-4-.5-5.7-1.3-3.7-.6-5.5 1.5-3.8.7.6 1.1 1.5.8 2-1.2 2.1 1 7.2 4.7 10.9 2.6 2.5 3.9 4.7 3.9 6.5 0 2.9 2.6 7.5 4.3 7.5.6 0 2.3 1.5 3.8 3.2 2.4 2.9 2.8 3.1 3.4 1.5 1.1-2.7-1.4-7.6-4.7-9.3-2.4-1.2-2.7-1.8-1.8-2.9.9-1.1 1-4.9.5-13.9-.6-10.4-.5-13.2 1-17.6.9-2.8 1.4-5.4 1.1-5.8-1.2-1.1-10-3.3-15.8-3.9-5.9-.6-6.7-1-4.7-3 2.1-2.1.2-4.6-3-4-1.5.3-3.2.2-3.7-.2-1.6-1.4-8.6-3-22.4-5.1-7.4-1.1-15.7-2.5-18.3-3.1-8.2-1.9-21.6.7-35.8 6.9-5.7 2.5-15.9 9.9-19.5 14.1-2.4 2.9-6.4 4.2-6.4 2.2 0-.5 1.3-2.2 3-3.7 1.6-1.6 4-3.9 5.2-5.1 1.3-1.2 3.4-3.6 4.7-5.3 1.3-1.8 3.9-3.9 5.7-4.8 2-.9 3.4-2.3 3.4-3.4 0-3-2.8-2-8 2.8-2.6 2.5-5.4 4.4-6.2 4.3-3.9-.5-5.7.5-9.8 5.5-4.8 5.8-7 7.4-7 5.1 0-2.2 10.5-11.9 21.7-20 5.7-4.1 10.7-7.5 11.1-7.5.5 0 1.9-1.1 3.1-2.4 1.2-1.3 4.8-3.3 7.9-4.4 9.8-3.4 18.2-5.5 18.8-4.9.7.7 6.4-2.2 7.6-3.8.4-.6.8-2.2.8-3.7 0-2.9-2.1-4.2-7.7-4.7-2.1-.2-1.4-2.1.7-2.1 1.1 0 2-.5 2-1 0-.6-.7-1-1.5-1-2.9 0-1.5-1.7 2.6-3 5.8-1.9 9.9-6 9.9-9.9 0-2-.7-3.4-2-4.1-1.1-.6-2-1.8-2-2.7 0-.9-.8-2.6-1.9-3.7-2.6-3-3.4-7.1-1.6-8.6.8-.7 1.5-2 1.5-2.9 0-1.6-5.3-7.4-7.5-8.2-.5-.3-2.7-1.5-4.8-2.8-4.3-2.7-4.7-5.8-.9-7.7 3.9-1.9 7.1-5.5 8.8-10 1.5-4.1 1.5-4.5 0-6.9-2.1-3.1-4.5-4.1-11.1-4.4-6.2-.2-8.8-2.8-8-7.8.5-2.5.1-3.5-1.4-4.5-1.7-1-1.9-2-1.4-7.8.7-8-1.5-15.6-6-21.2-3.3-4.1-7.5-5.8-14.3-5.8-2.3 0-5.8-.7-7.7-1.5-5.3-2.2-5.6-.1-.7 4.3 5.8 5.2 6.5 6.7 6.5 15.2 0 6.3.4 8.1 2.4 10.8 2.6 3.7 2.2 6.9-.7 5.6-3-1.5-12-.8-17 1.3-6.4 2.8-11.4 4.3-14.1 4.3-3.6 0-8.3 2.9-13.7 8.5-7.3 7.6-9.9 13.3-9.9 22.2 0 6.8-.1 7.2-1.5 5.2-1.6-2-1.6-2-6.5 1.3-14.8 9.9-9.9 23.8 8.4 23.8h6.9l.7 4.2c1 5.9 1.4 6.3 3.9 3.9l2.2-2.1 3.1 2.8c1.7 1.5 3.9 3.3 4.9 4 1.7 1.1 1.7 1.2-.6.6-1.4-.3-3.5-1.6-4.8-2.8-2.3-2.1-2.4-2.1-3.8-.2-1.8 2.5-1.8 3.1.1 4.6.8.7 1.5 1.8 1.5 2.5 0 .8 1.2 2.8 2.7 4.6 1.8 2 2.6 4.1 2.4 5.7-.1 1.3.3 3.7.9 5.3 1 2.4 2.4 3.3 7.4 4.8l6.1 1.9-.3 3.8c-.6 9.3-1 9.9-10.1 18.6l-8.9 8.4-.7 7.4c-.4 4.1-1.5 8.6-2.4 9.9-1.3 2.1-1.6 5.4-1.6 18.1 0 14.4-.2 15.8-2.3 19.2-3.3 5.3-3.9 16.6-1.7 31.2 1.4 9.8 1.5 13.1.6 21.3-.6 5.4-1.3 14.1-1.6 19.3-.3 5.2-1 16.2-1.6 24.5-4 60.9-4.7 76.4-6.4 130.5-.9 27.2-2 60.2-2.5 73.3-.5 13.6-.6 24.7-.1 26 .5 1.3 3.4 4.2 6.5 6.5 5.4 4.1 5.6 4.4 5.6 9 0 5.7.3 6.2 5.9 9.6l4.3 2.8-.4 7.8c-.1 4.3-.6 8.1-.9 8.4-.3.4-35.9.9-79 1.2-43.1.3-79 .7-79.7.9-.6.3-1.2 1.4-1.2 2.5 0 2 .5 2 28.8 2 15.8.1 35 .1 42.7 0 8.8 0 13.5.3 12.6.9-.8.5-6.3 1-12.3 1-5.9.1-12 .6-13.4 1.1-1.4.6-14.9 1-30.5 1-22.8 0-27.9.2-27.9 1.4 0 1.9 11.7 2.6 38.8 2.3 12.2-.1 22.2.1 22.2.5 0 .5-1 .8-2.3.8-1.2 0-5.5.9-9.5 2-7.9 2.2-17.2 2.6-20.4.9-2.1-1.1-22.3-1.3-26.5-.2-5.6 1.4-1.2 2.2 10.5 2 9-.1 13.4.2 15.1 1.2 3.6 2 14.6 1.6 22.6-.9 7.4-2.4 8.5-2.4 38-.1 11.5.9 35.8.4 46-1 16-2.2 19.5-2.3 19.5-.5 0 1.1-.9 1.6-3.2 1.6-1.7 0-7 1.1-11.7 2.5-20 5.7-30.3 7.4-51.4 8.7-15.7.9-22.2.9-26.5 0-6-1.2-7.7-1-22.2 2.6-4.7 1.2-10.6 2.6-13.3 3.2C4.5 711.5 0 712.9 0 714.5c0 1.2.7 1.2 4.7 0 2.7-.8 10.2-2.4 16.8-3.5 6.6-1.1 14.4-2.7 17.3-3.5 2.8-.8 7.5-2.1 10.3-2.9 2.8-.8 6-1.2 7.2-.9 5.2 1.3 29 1.5 39.7.3 13.9-1.5 32.6-5.2 39.6-7.9 3.7-1.4 8.5-2.1 18.5-2.5 7.4-.3 14.8-.8 16.4-1.1 2.2-.5 4.8.2 9.8 2.6l6.9 3.2-.7 3.5c-.6 3.2-.3 3.8 4.3 8.1 4.8 4.4 5 4.8 5.6 11.6.4 3.8 1 9.6 1.3 12.9l.6 5.8-17.9-.1c-9.9-.1-27.6.1-39.4.4-40.3 1.1-76.4 1.1-78.8.1-3.5-1.5-2.3-3.8 2.3-4.2 12.5-1.1 22.7-4.4 23.3-7.6.5-2.3-3.1-2.8-19.3-2.4-9 .2-16.9 1-22 2.2-8.7 2.1-22.7 2.4-37.7.9-7.6-.7-8.8-.6-8.8.7 0 1.2 1.7 1.7 7.8 2.2 23.3 1.9 28.6 1.8 39.8-.3 6-1.1 13.4-2.1 16.4-2.2 10-.2 16.3.1 15.7.7-.3.3-4.5 1.2-9.4 1.9-4.8.7-10.1 1.8-11.7 2.4-2.8 1.1-3 1.9-1.1 6.3.5 1.4-.3 2-4.9 3.3-10.3 3-11.6 7.4-3.1 10.9 7.1 3 14.2 3.1 21.5.3 7-2.6 22.4-4.4 27.8-3.2 1.8.3 3.2 1.4 3.5 2.6.5 1.7 1.5 1.9 10.6 1.9 6.2 0 10.1.4 10.1 1 0 1.3-4.4 3-7.8 3-1.5 0-4.3.9-6.2 2-11.2 6.5-17.2 8.2-28.7 8.1-8.4-.1-34.9 1.6-46 3-13 1.5-34.3 9.7-34.3 13.1 0 1.7.4 1.6 5-.7 2.8-1.4 10.1-4.2 16.3-6.2 10-3.2 13.2-3.7 29.7-4.9 10.2-.7 21.9-1 26.1-.7 12.1.9 22.8-1.6 30-7 1.5-1 5.7-2.5 9.5-3.3 7.8-1.7 10.6-3.7 10.2-7.3-.3-2.1.2-2.6 3.2-3.4 1.9-.5 6.2-.8 9.5-.8 3.3.1 9.6-.3 14-.8 13-1.5 25.9.2 42 5.5l7 2.3 1.4 9.6c1.1 7.6 1.2 10.4.3 12.9-.7 1.8-1.2 4.7-1.2 6.6v3.3l-4.2-.6c-2.4-.3-8.1-1.2-12.8-2-4.7-.8-13.2-1.8-19-2.1-5.8-.4-11.9-.9-13.7-1.2-2-.4-4.4 0-6.4 1-1.8.9-4.3 1.6-5.6 1.6-3.4 0-2.7 2.9 1 4.3 3.5 1.3.5 2.7-5.6 2.6-3.4 0-10-.6-14.7-1.4-4.7-.8-24.6-2-44.5-2.6l-36-1.2-6.5 2.2c-3.6 1.2-10.6 3-15.7 4.1-12.2 2.5-19.4 6.2-19.2 9.9 0 1.1.2 1.2.6.3.9-2.3 6.1-4.1 17.9-6.3 6.6-1.1 12.5-2.6 13.2-3.2 1.7-1.3 11.2-2.7 11.2-1.5 0 .4.7.8 1.5.8s1.5-.5 1.5-1c0-.6.5-1 1.1-1 .5 0 .7.5.4 1-.5.7.3.8 2.2.3 4.7-1.3 17.4-.8 18.3.7.7 1.1 1.2 1.1 2.3.2 1.1-.9 7.1-1.1 23.3-.8 17.7.4 23.8.9 31.9 2.7 10.2 2.2 21.3 2.6 24.7.8 2.4-1.3 2.3-4.2-.2-6.4-3.3-3-2.4-3.7 4.3-3.2 3.4.3 9.8.7 14.2 1 4.4.3 12.7 1.4 18.4 2.6 5.7 1.2 11.7 2.1 13.3 2.1 2.2 0 4.3 1.2 7.5 4 3.8 3.6 4.9 4.1 8.6 3.9 3-.1 6.2.8 11.7 3.5 4.1 2 8.9 3.6 10.7 3.6 2.3 0 3.3.5 3.3 1.5 0 .9-.9 1.5-2.2 1.5-1.3 0-55.2.2-119.8.4-64.6.3-118.1.6-118.7.7-.7.1-1.3 1.1-1.3 2.2 0 2 .6 2 139.8 1.3 76.8-.3 157-.9 178.2-1.1 21.2-.3 70.8-.8 110.3-1.1l71.7-.6v-2.3c0-2.3-.2-2.4-13.2-2.8-7.5-.2-15.5-1.1-18.3-1.9-5.6-1.7-6.2-2.9-6.4-11.6l-.1-5.2h19c18.3 0 19-.1 19-2s-.7-2-18.9-2c-18.8 0-18.9 0-19.4-2.3-.7-2.8-.1-20.3.7-21.6.9-1.4 22.6-.3 29.4 1.4 7.2 1.9 8.2 1.9 8.2-.3 0-2.1-3.1-5-4.8-4.4-.7.2-2 0-3-.4-2.3-1.1-2.8-1.1-9.7-1.4l-6-.3 5.7-.7c7-.9 10.8-3.2 10.8-6.4 0-1.8-.9-2.7-4-4-2.2-.9-4.7-1.6-5.5-1.6-.7 0-1.5-1-1.7-2.3-.3-2-.9-2.2-6.1-2.3-6.8-.1-9.1-1.4-2.6-1.4 4.5-.1 12.1-1 12.7-1.5.2-.2.1-1.3-.3-2.5-.7-2.2-1-2.2-9-.4-1.7.4-2.1 0-2-2.3 0-2.6-.3-2.8-5-3.3-4.2-.4-5-.8-5-2.5 0-1.4.6-1.9 2-1.8 3.3.3 9.1-1.6 10.9-3.5 1.5-1.8 1.5-2.1-.5-4.5-1.8-2.4-2.8-2.7-7.9-2.7-7.7 0-10.8 2.6-11.7 9.8l-.5 4.9-7.2 1.3c-3.9.7-7.8 1.6-8.7 2.1-4.8 2.5-1.5 7.8 4.9 8 3 .1 2.4.4-3.3 1.5-4.3.9-7.7 2.2-9 3.5l-2 2 2.4 2c1.3 1 3.4 1.9 4.7 1.9 3.2 0 3.1 1.6-.2 2.4-1.4.4-3.9 1.6-5.4 2.8-2.6 1.9-3.8 2-12.3 1.5-5.9-.3-10.7-1.2-12.7-2.2-2.3-1.2-5.1-1.6-9.9-1.3l-6.6.3-.7-17.5c-.3-9.6-.3-17.7 0-18.1.4-.3 2.9-1.1 5.5-1.7 2.6-.7 6.2-2.2 7.8-3.5 2.9-2 4.2-2.2 18.7-2.3 22-.1 32.7-1.2 35.5-3.5l2.2-1.9-2.4-2c-1.3-1.1-2.9-2-3.7-2-.8 0-1.4-.7-1.4-1.5 0-1.2 1.8-1.5 10.4-1.5 5.8 0 10.7.4 11 .9 1.1 1.8 6.7 2.1 9.1.5 1.9-1.2 3.8-1.4 9.4-.8 6.1.6 7.1.4 7.1-.9 0-1.2-1.5-1.7-5.7-2.2-3.2-.3-7-.8-8.5-1-1.7-.3-3.4.2-4.4 1.2-1.3 1.4-2.1 1.4-4.7.5-3.8-1.4-30.2-2.1-33.4-.9-3.7 1.4-2.7 3.7 2.7 5.9 2.7 1.1 4.7 2.4 4.5 2.9-.8 1.2-12.3 2.1-30.2 2.2-15.6.2-16.2.3-18.7 2.6-2.5 2.3-11.2 4.6-12.1 3.1-.8-1.3-2.7-49.7-2.3-60.7.3-11.4 1.1-14.3 3-10.8 1.8 3 7.7 8.3 15.1 13.1 3.7 2.4 7 4.4 7.4 4.4.8 0 13.3 10.3 16.2 13.4 2.4 2.6 6.1 3.5 6.1 1.6 0-3.1 19.5 3.3 23 7.5.7.8 2 1.5 3 1.5s3.5.7 5.6 1.6c2.9 1.2 5.6 1.5 10.2 1.1 3.8-.4 7.3-.2 9 .5 3.8 1.6 14.2 1.7 14.2.1 0-.7-1.9-1.7-4.2-2.4-2.4-.6-6.3-1.8-8.7-2.6-2.8-.9-6.1-1.3-9-.9-8.3 1.1-15.1.2-16.5-2.1-1.2-2.2-14.4-8.1-22.3-9.9-5.8-1.3-8.3-2.7-17.8-9.8-6-4.6-12.8-9.3-15-10.4-2.2-1.2-5.1-3.1-6.4-4.2l-2.4-2 9.6-9.8c5.3-5.3 12.4-13.4 15.8-18 6.3-8.5 9.7-11.6 12.3-11 1.6.3 17.2 14.4 27.6 24.9 7.8 7.9 17.7 16.3 24.5 20.8 2.8 1.9 6.7 5 8.8 6.9 2.3 2.2 3.7 3 3.7 2.2 0-2.9-3.8-7.2-10.6-12.1-3.8-2.8-8.6-6.7-10.7-8.7-3.9-3.7-9.7-11.6-9.7-13.1s10.1-13.9 12.6-15.6c2.5-1.6 2.6-1.6 8.2 3.6 3.1 2.9 6.7 6.4 7.9 7.8l2.2 2.6.1-3c0-4.4-11-15.3-16.3-16.2-3.6-.5-4-.3-11.5 7.6-4.3 4.4-8.5 8.1-9.4 8.1-.9 0-7.1-5-13.7-11-13.3-12.3-15.2-13-20.7-8.2-1.7 1.5-5.2 5.7-7.8 9.3-6.5 9.4-23.4 26.6-26.9 27.5-5.1 1.2-5.4.1-6.1-26.4-.3-13.3-.2-24.2.2-24.2.5 0 1.7.7 2.8 1.5 2.3 1.8 5.5 1.9 8.9.3 3.2-1.4 3.2-4.5 0-6-2.4-1.1-3.5-3.8-1.5-3.8 1.8 0 4.1-6 3.9-10.3-.1-2.3.1-5.4.5-7 1.2-4-.8-3.4-5.5 1.5-2.6 2.9-4.5 6.2-5.7 10-1.6 5.5-4 7.8-4.3 4-.2-2-1.1-85.2-1.2-114.2-.2-34.9 1.2-101.2 2.2-108 1.8-11.9 2.2-12.9 4.4-13.2 3.1-.4 3.2-3.1.3-9-1.4-2.9-2.6-6-2.6-7s-.6-2.9-1.4-4.1c-.8-1.3-1.7-6.4-2.1-12.2-.4-5.5-.9-11.8-1.1-14-.9-8.5-.4-50.8.6-51.9.5-.7 2.3-1.1 4-.8 1.6.2 3 0 3-.4 0-.5.4-1.5.9-2.2.6-1.1 1.7-.9 5.1.9l4.3 2.3 1.9-2.4c1-1.3 1.8-3.5 1.6-4.8-.2-2.1-1.3-2.8-6.3-4.5-3.3-1.1-6.6-2.1-7.3-2.3-.9-.3-.3-1.4 1.9-3.5 1.7-1.6 3.8-2.8 4.5-2.5 1.8.7 6.4-3.2 6.4-5.4 0-2.1-2.2-4.2-4.1-3.8-1.5.4-3.1-5.7-2.4-8.9.3-1.2.1-2.4-.4-2.7-.9-.6-9 7.6-9.2 9.4-.7 5.3-.9 8.2-1.2 12-.1 3.2-.6 4.5-1.7 4.5-1 0-1.7-1.5-2.1-5-1.5-11.9-2.7-26.6-2.8-34.3-.1-7.9 0-8.4 2.8-11.2 3.8-3.8 6.6-14.9 5.1-20.1-.6-1.9-1-6.3-1-10 0-6.3-2.1-14.9-4.4-17.8-1.6-2.1-2.6-14.3-1.2-16.6.6-1.1 1.1-3.5 1.1-5.4 0-2 .6-3.6 1.4-3.9 1-.3 1.2.2.8 2-1.4 5.3 5 9 8.6 5 1.9-2 2.3-7.7.7-8.7-.5-.3-1-3-1-5.8 0-5.1 1.7-9.2 4.7-11 .7-.4 1.3-1.5 1.3-2.4 0-1.1-.6-1.4-2.2-.9-1.3.3-2.8.6-3.4.6-.5 0-2 .9-3.2 2-1.8 1.7-2.5 1.8-4.2.8-1.5-1-2.2-1-3.2 0-2 2 1.3 4.7 4 3.3 1.2-.6 2.3-.7 2.6-.2.7 1.2-.4 2.1-2.5 2.1-1.1 0-2.6 1.4-3.6 3.2l-1.8 3.3-.3-3c-.1-1.7-.7-5.1-1.2-7.7-.7-3.6-.6-5.9.4-9 1.9-5.8.8-18.8-1.8-21.7-4.7-5.2-12.6-3.1-20.8 5.7-5.2 5.6-6.8 10.5-4.7 14.3 1.3 2.3 2 14.9.8 14.9-.6 0-4.3-3.9-5.3-5.7-.3-.6.2-2.8 1.1-4.8 1.7-3.6 1.7-3.7-.5-5.5-1.2-1-3.1-1.6-4.2-1.3-1.7.5-2 0-2-3.3 0-2.2-1.1-6.3-2.5-9.2-1.4-3-2.5-6-2.5-6.8 0-1.7-2.6-1.8-3.7-.2zm40.3 6.6c-2.2.5-3-.3-2.1-1.8.5-.8 1.1-.7 2.2.2 1.5 1.2 1.4 1.3-.1 1.6zm-5.8-.6c-.6 1.8-2.8 2.1-2.8.4 0-.9.7-1.6 1.6-1.6.9 0 1.4.5 1.2 1.2zM340 68c0 4-1.5 5.5-2.2 2.2-.4-1.5 1-6.2 1.9-6.2.1 0 .3 1.8.3 4zm23-2c0 .5-.5 1-1.1 1-.5 0-.7-.5-.4-1 .3-.6.8-1 1.1-1 .2 0 .4.4.4 1zm-2.3 4.2c-.3.8-.6.5-.6-.6-.1-1.1.2-1.7.5-1.3.3.3.4 1.2.1 1.9zm.7 4c.3 1.3.6 2.7.6 3.3-.1 1.5-3-2.7-3-4.2 0-2.2 1.7-1.5 2.4.9zm5.3 1c-.3.8-.6.5-.6-.6-.1-1.1.2-1.7.5-1.3.3.3.4 1.2.1 1.9zm8.7 1.2c-.8 2.8-2.4 4.4-2.4 2.5 0-.7-.3-2.4-.6-3.6-.5-1.8-.3-2.1 1.5-1.6 1.7.4 2 1.1 1.5 2.7zm-36.7 5.2c.3 1-5.5 3.9-6.3 3.1-.3-.3.4-1.5 1.6-2.7 2.1-2.1 4.1-2.3 4.7-.4zM213 86c0 .5-.4 1-1 1-.5 0-1-.5-1-1 0-.6.5-1 1-1 .6 0 1 .4 1 1zm149.1 3.3c-.8.8-1.1.3-1.1-1.9.1-2.5.2-2.7 1.1-1.1.8 1.4.8 2.2 0 3zm8.9 1.6c0 1.4-3 4.1-4.5 4.1-1 0-.7-.7.8-2.4 2.4-2.6 3.7-3.2 3.7-1.7zm-22 2.6c0 1.6-3.8 4-4.8 3-.4-.4.4-1.5 1.7-2.6 2.8-2.3 3.1-2.3 3.1-.4zm14.9 9.1c-.4 1.2-.5 2.4-.3 2.7 1 .9 2.3 19.2 1.5 20-1.3 1.3-4.6-26.9-3.4-29.9.9-2.5 3.1 4.5 2.2 7.2zm-151.2-2.9c-.3 1-.5.4-.5-1.2 0-1.7.2-2.4.5-1.8.2.7.2 2.1 0 3zm163.2 4.6c.1 1-.3 1.5-.9 1.2-.5-.3-1-2.1-.9-3.8 0-2.7.2-2.9.9-1.2.5 1.1.9 2.8.9 3.8zM209 106.5c0 .8-.7 1.5-1.5 1.5-1.6 0-2-1.2-.8-2.3 1.1-1.2 2.3-.8 2.3.8zm183.2 1.7c-.9.9-1.2.7-1.2-1.2s.3-2.1 1.2-1.2c.9.9.9 1.5 0 2.4zm-188.1 4.4c2.1 1.9 2.5 6.4.8 8.1-.8.8-.8 1.7.1 3.3.7 1.2 1 3.3.7 4.6-.2 1.3.2 2.9 1 3.6 1.1.9 1.1 1.3.1 1.9-2 1.3-2.5 1.1-2.4-1.2.1-1.2-.5-2.4-1.1-2.6-1.8-.7-2.8 2.6-1.5 4.8 1 1.6.6 2.2-3.4 4.5-9 5.3-31.4 13.1-33.6 11.7-1.7-1-.7-2.3 1.8-2.3 2.2 0 2.5-.4 2.2-2.7-.4-3.4-2.6-4.1-3.7-1.1l-.9 2.3-1-2.5c-.6-1.5-.6-3.7 0-5.8 1.2-4.3.2-5.4-2.3-2.3-1.2 1.5-1.9 3.9-1.9 7s-.3 4.1-.9 3.2c-1-1.5-.4-7.5 1-10.3 1-1.8.2-4.8-1.2-4.8-1.1 0-3.1 3.7-4 7.5l-.7 3-.1-2.9c-.1-3.5 3.5-10.1 6.6-12.1 2.3-1.6 3.2-4.5 1.3-4.5-.5 0-1-.6-1-1.4 0-2.1 4.4-4.6 9-5 2.2-.2 4.3-.6 4.7-1 .3-.3 1.3-.6 2-.6.8 0 3.3-.8 5.6-1.9 2.3-1 4.9-2.1 5.7-2.5 2.9-1.2 15.2.2 17.1 2zm174.1-.4c-.7.7-1.2.8-1.2.2 0-1.4 1.2-2.6 1.9-1.9.2.3-.1 1.1-.7 1.7zm-158.4 8.2c.3 1.2-.1 1.7-1 1.4-.7-.3-1.5-1.3-1.6-2.2-.3-1.2.1-1.7 1-1.4.7.3 1.5 1.3 1.6 2.2zM370 127c0 .5-.7 1-1.5 1s-1.5-.5-1.5-1c0-.6.7-1 1.5-1s1.5.4 1.5 1zm-158.5 6.8c-1.2 1.2-2.3-1.5-1.7-4.3l.6-3 .8 3.4c.5 1.8.7 3.6.3 3.9zm26.2-4.6c-.3.8-.6.5-.6-.6-.1-1.1.2-1.7.5-1.3.3.3.4 1.2.1 1.9zm-9.1 1.5c-1 1-1.9-.5-1-1.8.6-1.1.8-1.1 1.2 0 .2.7.1 1.5-.2 1.8zm7.4 2.2c0 1.6-11.3 9.1-13.7 9.1-.3 0 2-2.2 4.9-5 4.9-4.5 8.8-6.4 8.8-4.1zm-17.8 5.8c-5.4 2.4-6.7 3.7-5.7 5.3.4.6 1.9.4 4.2-.5 1.9-.8 3.8-1.5 4.2-1.5.8.1-4.2 4-5.2 4-.4 0-2.6 1.2-4.8 2.6-23.4 14.8-43.5 21.9-62.6 22.3-7.8.2-9.3-.1-12.3-2.1-2.1-1.4-3.6-3.4-3.8-4.8l-.3-2.5 1.6 2.2c2 2.9 4.5 3 4.5.3 0-1.7.3-1.9 1.9-1.1 2.4 1.3 3.2.4 2.4-2.7l-.6-2.5 2.2 2.2c2.5 2.5 7.1 2.9 7.1.6 0-.9-1.1-2-2.5-2.5s-2.5-1.4-2.5-1.9c0-.6 1.6-.1 3.5 1 1.9 1.2 4.3 1.8 5.2 1.5.9-.4 4.3-1 7.7-1.5 6.6-1 26.7-8.3 33.6-12.3 7.3-4.2 18.7-8.9 20.6-8.5 1.2.2 2.8 0 3.5-.4.7-.4 1.7-.5 2.3-.2.5.4-1.4 1.7-4.2 3zm148.8-.3c0 1.1-1.9 1.5-2.5.6-.3-.5.1-1 .9-1 .9 0 1.6.2 1.6.4zm-3 4c0 1.6-1.8 3.1-2.7 2.2-.8-.8.5-3.6 1.7-3.6.5 0 1 .6 1 1.4zm-144.5 9.5c-.3.6-1.1 1.1-1.7 1.1-.6 0-.6-.6.2-1.5 1.4-1.7 2.6-1.3 1.5.4zm146.8 2.6c-2.7 3.2-5.3 4.5-5.3 2.6 0-1.6 6.1-7.2 7.1-6.5.5.3-.3 2.1-1.8 3.9zM155.5 152c-.3.5-1.1 1-1.6 1-.6 0-.7-.5-.4-1 .3-.6 1.1-1 1.6-1 .6 0 .7.4.4 1zm230.5 3.2c0 1-.7 1.8-1.5 1.8-1.5 0-2.1-4-.8-5.3.9-.9 2.3 1.3 2.3 3.5zm-149.8-.2c3.6 3 3.6 3 2.3 7.2-.9 3.2-1.8 4.4-3.4 4.6-1.6.3-2 .8-1.6 2.2.5 1.5 0 1.9-2.2 2.2-2.3.2-2.8.8-2.9 3.1-.1 1.5.3 3 .7 3.3.5.3.9 1.5.9 2.8 0 1.9-.5 2.2-3.5 2.2-3.3-.1-3.5-.3-3.3-3.1.3-2.5-.1-3-1.9-3-3.1 0-3.6-.9-1.3-3 1.1-1 2-2.3 2-2.9 0-.6-.7-.2-1.5.8-1.2 1.5-1.8 1.7-2.7.8-.9-.9-.7-1.3.6-1.8 1.2-.5 1.4-1 .6-1.9-.8-1-.8-1.5.1-2.1.7-.4 1.5-.2 1.7.4.2.7.8 1 1.2.7.5-.3.7-1.2.3-2-.3-.8 0-1.5.6-1.5s1.1.4 1.1 1c0 .5 1.1 1 2.5 1 1.8 0 2.5-.5 2.5-2 0-2.3-1-2.6-2.8-.8-.9.9-1 .6-.5-1.3.3-1.3.6-3.9.5-5.7-.1-3.2.1-3.3 2.6-2.8 2 .5 2.3.4 1.2-.4-1.3-.8-1.2-1 .5-1 1.1 0 3.7 1.3 5.7 3zm-20.7 0c.4.6.1 1.8-.7 2.7-.7.9-1.3 2.5-1.3 3.6 0 2.8-2.5 3.4-3.2.8-.5-1.9-1.5-2.5-3.5-2.2-.5 0-.8-.3-.8-.8s1.6-1.2 3.5-1.5c2.1-.4 3.5-1.3 3.5-2.1 0-1.7 1.6-2 2.5-.5zm170.7 11.7c-.3 1.3-.8 2.3-1.3 2.3-1.1 0-1.2-6.1-.2-8.7.6-1.5.8-1.3 1.3 1.2.3 1.6.4 4 .2 5.2zm-181.2.8c1.7.9 3 2 3 2.5 0 1.3 0 1.3-4.2-.9-2.1-1-3.4-2.1-3.1-2.5.9-.8 1-.8 4.3.9zm-16 2.1c0 .8-.4 1.4-.9 1.4-1.1 0-2.2-2.6-1.4-3.4.9-.9 2.3.3 2.3 2zm190.5-1.6c.3.5-.5 1.5-1.9 2.2-2.8 1.2-3.5 4.5-1.1 5.4.8.4 1.5 1.6 1.5 2.7 0 1.9-.4 1.7-3.5-1.3-1.9-1.9-3.5-3.8-3.5-4.2 0-1.1 5.3-5.8 6.7-5.8.6 0 1.5.4 1.8 1zm-197.9 5.8c-1.2 1.1-1.8-.7-1-3l.8-2.3.4 2.3c.2 1.3.1 2.6-.2 3zm-12.5 4.6c.5.6.9 1.7.9 2.5-.1 2.1-3.9-2.8-4-5 0-2.6 1.5-3.3 1.8-.7.2 1.2.8 2.7 1.3 3.2zm16.7-3.5c.3.8-.1 1.2-.9.9-.7-.2-1.5-1-1.7-1.7-.3-.8.1-1.2.9-.9.7.2 1.5 1 1.7 1.7zm18.3 1.4c.9 3.4.2 5.7-1.7 5.7-1.7 0-1.8-1.2-.3-2.7 1.3-1.3.4-3.3-1.6-3.3-.8 0-2.3 1-3.5 2.2-2.4 2.7-3.6 1.8-1.8-1.4s2.9-3.9 5.7-3.6c1.8.2 2.7 1.1 3.2 3.1zm39.9-.2c0 1.8-.2 2-1.5.9s-1.3-1.5-.3-2.1c1.8-1.2 1.8-1.2 1.8 1.2zm124.8-1c-.2.6-.8 1-1.3 1s-1.1-.4-1.3-1c-.2-.6.4-1.1 1.3-1.1s1.5.5 1.3 1.1zM161 176.4c0 .3-.4.8-1 1.1-.5.3-1 .1-1-.4 0-.6.5-1.1 1-1.1.6 0 1 .2 1 .4zm29.5.6c.3.6-.1.7-.9.4-1.8-.7-2.1-1.4-.7-1.4.6 0 1.3.4 1.6 1zm-12.2.6c.8.8-.3 3.4-1.4 3.4-.5 0-.9-.9-.9-2 0-1.9 1.1-2.6 2.3-1.4zm61.2 4.4c-.4 1.2 0 2.2 1.1 2.8 1.6.9 1.4 1.3-1.7 3.1-3.6 2.2-5.4 2.7-4.4 1.2.3-.5.1-1.2-.5-1.6-.5-.3-1-1.7-1-3.1 0-2.1.4-2.4 2-1.9 2.6.8 2.8-2.2.3-4.2-1.3-1-.8-.9 1.5.2 2.5 1.2 3.2 2.1 2.7 3.5zm-57.4.3c-.8.8-1.1.7-1.1-.4 0-2 1.3-3.4 1.8-1.9.3.7-.1 1.7-.7 2.3zm7-.3c1 .6 1.9 1.7 1.9 2.5s.7 1.5 1.5 1.5 1.9.9 2.4 1.9c1.5 2.7-.5 8.1-3 8.1-2.1 0-2.6-1.6-.6-2.3.8-.3.5-1.2-1-2.9-1.3-1.3-2.3-2.9-2.3-3.5 0-.6-.6-1.6-1.4-2.3-.8-.6-1.2-1.8-.9-2.6.6-1.7.9-1.7 3.4-.4zm56.3-.1c.3.5-.1 1.4-.8 2-1.2 1-1.3.8-.9-.8.6-2.3.9-2.5 1.7-1.2zm120.8 8.6c-.3 4.8-.7 6.4-1.3 5-1-2.5-1.1-11.9-.2-12.8 1.5-1.5 2 1.1 1.5 7.8zm9.3-5.5c.3.5.1 1-.4 1-.6 0-1.1-.5-1.1-1 0-.6.2-1 .4-1 .3 0 .8.4 1.1 1zm-168.7 2.3c.6.5 1.2 2.8 1.2 5.2 0 4.7-3.7 10.5-6.7 10.5-1.2 0-1.1-.7.6-3.6 2.4-4 2.1-9.1-.5-10.1-.8-.3-1.4-1-1.4-1.7 0-1.3 4.9-1.5 6.8-.3zm20.5-.4c2-.9 2-.9.5.4-1 .8-1.8 2-1.8 2.7 0 2.1-1.4.2-1.6-2.3-.2-1.2 0-1.6.2-1 .4 1 1.1 1 2.7.2zm-50 2.8c2.7 5.4 2.9 10.4.4 15-2.4 4.6-4 5.2-7.5 2.7-2.7-1.9-2.9-4.4-.2-4.4 2 0 4-2.7 4-5.4 0-.9-.7-1.6-1.5-1.6s-1.5-.5-1.5-1.1c0-.6-.9-.8-2.2-.3-2.1.6-2.1.5-.9-1 .9-1.1 1.8-1.3 2.4-.7 1.3 1.3 5-.6 4.1-2-.6-1 .1-3.9 1-3.9.3 0 1.2 1.2 1.9 2.7zm6.7-.8c1.2 2.4 1.3 5.1.1 5.1-.5 0-1.1-.8-1.4-1.8-.2-.9-.8-2.5-1.2-3.5-1-2.4 1.2-2.2 2.5.2zm176.4 10.3c2 33.4 2 32.2.4 31.5-2.2-.8-3.8 1.2-3.8 4.5 0 4.2-2.8 4.8-5.6 1.3l-2.3-2.9-2.6 2.4c-1.6 1.5-2.5 3.4-2.5 5.3 0 1.6-.9 4-2 5.4-2.4 3.1-2.5 5.1-.4 8.1 1.4 2 1.4 2.2-.4 2.2-1.6 0-2-1.2-2.9-7.8-.6-4.2-1-12.5-.8-18.4.3-12.2.9-13.5 10.3-24.7 3-3.5 6.6-8.8 8-11.8 1.4-2.9 2.9-5.3 3.3-5.3.3 0 .9 4.6 1.3 10.2zm10.1-7.2c-.6.9-.9.9-1.6-.1-1-1.7 0-3.4 1.3-2.1.6.6.7 1.6.3 2.2zm7.5-1.8c0 1.7-4.8 3.9-5.6 2.6-.3-.5-.4-1-.3-1.2.4-.2 5.2-2.4 5.7-2.5.1-.1.2.5.2 1.1zm-155.5 3c4.5 1.6 5.1 2.6 2.2 3.9-3.1 1.4-3.7 3.3-.7 2.4 1.1-.4 2-.2 2 .4 0 .6-.5 1.1-1.1 1.1-.5 0-.9.8-.7 1.7.1 1-.1 2.4-.5 3-.5.8-.3 1.3.3 1.3.7 0 1.4-.9 1.7-2 .8-3.1 2.6-2.4 1.9.7-1.1 4.4-6.6 7.5-6.6 3.7 0-.9-.5-1.2-1.2-.8-.8.5-.9.2-.5-.9.8-2.1-.9-2.2-2.9-.2-2.1 2-3.1 1.9-3.7-.5-.4-1.7 0-2 2.3-2 3.8 0 4.5-1.4 1.5-3-1.8-.9-2.3-1.9-1.9-3.2.3-1 .7-3 .9-4.6.2-1.5.4-2.9.4-3.1.1-.2.9 0 1.9.4.9.4 3.1 1.2 4.7 1.7zm6.2 4c-.3.7-.5.2-.5-1.2s.2-1.9.5-1.3c.2.7.2 1.9 0 2.5zm137.8 4.5c.3 1.8.1 3.5-.5 3.8-.6.4-1-1-1-3.6 0-4.8.6-4.9 1.5-.2zm-181.7 4c-.2.9-.8 1.8-1.5 2-.7.3-.9-.3-.6-1.6.6-2.5 2.6-2.8 2.1-.4zm10.5.1c2.1 2.3.5 4.2-3.5 4.2-3 0-3.9-2.5-1.6-4.8 1.7-1.7 3.2-1.5 5.1.6zm172.6 15.5c.1 3.6-.3 5.6-.9 5.2-.6-.4-.9-4.8-.9-10.3.1-8.2.3-9 1-5.2.4 2.5.8 7.1.8 10.3zM396 214c0 3.3-1.5 4.1-2.2 1.2-.6-2.1.1-4.2 1.3-4.2.5 0 .9 1.3.9 3zm-201.5-.2c7.2-.6 7.1.7-.2 2.2-6.4 1.3-8.6 2.7-7.9 4.6.3.7.1 1.6-.4 1.9-.6.4-1-.2-1-1.2s-.7-2.8-1.5-4c-1.4-2-1.3-2.3.7-3.7 1.6-1.1 2.5-1.3 3.5-.4.8.6 3.6.9 6.8.6zm15-.6c1.4.6 2.5 1.5 2.5 2 0 1.5-3.2 2.2-4 .9-.4-.7-1.6-1.2-2.6-1.1-4 .5-4.7.1-3.4-1.5 1.5-1.8 4-1.9 7.5-.3zm161.2 7c-.3.8-.6.5-.6-.6-.1-1.1.2-1.7.5-1.3.3.3.4 1.2.1 1.9zm-38.6 5.1c-1.6 1.6-2 .5-.8-2.3.9-2.2 1.1-2.3 1.4-.6.3 1 0 2.3-.6 2.9zm49.4-.2c.4 1.7.4 3.3.1 3.6-.9.9-1.2.2-1.9-3.5-.8-4.1.9-4.2 1.8-.1zM196 224c0 1-4.1 3-6.2 3-1.4 0 3.4-3.9 5-4 .6 0 1.2.5 1.2 1zm175.5 6.8c-.6 4.7-.7 4.8-1.4 1.2-.8-3.8-.5-5.3.9-4.5.5.3.7 1.8.5 3.3zm-189.4 4.5c-1.3 1.3-1.5-2.1-.3-5 .6-1.5.8-1.3 1 1.1.2 1.6-.1 3.3-.7 3.9zm219.9 1.3c0 1.4-.3 1.4-1.5.4-.8-.7-1.5-1.4-1.5-1.6 0-.2.7-.4 1.5-.4s1.5.7 1.5 1.6zm-150.5 1.2c4.8.9 4.6 1-2.5 1.7-5.7.5-23.8 5.8-27.9 8.2-6.8 3.9-24.3 22.1-26 26.8-.8 2.2-2.6 5.8-4.2 8-2.7 3.8-7.1 16-8.4 23.6-.6 3.5 1.1 6.9 3.4 6.9 1.8 0 3.2-2.9 2.3-4.7-.5-1.1-.5-3.6.1-6.3l1-4.5.7 3.5c.4 1.9 1 6.8 1.3 10.8.6 7.1.6 7.2-1.7 6.6-2-.5-2.6.1-4.5 4.7-4.7 10.9-6.2 21.6-4.6 33.4.8 6.7 2 9.4 4.7 11.3 2.3 1.7 2.3 3.3-.2 6.5-1.1 1.4-2 3.3-2.1 4.4-.1 2-.4 1.2-1.3-3-.9-4.1-3.3-3.3-5.8 2-2.4 5-5.1 6.3-5.6 2.7-.2-1.2.6-5 1.8-8.4 2-5.8 2-6.4.4-8.7-2.2-3.4-3.7-1.8-6 6.7-2.4 8.8-2.9 16.1-1.2 18.2 3.5 4.7 12.5 2 15.3-4.5.8-1.7 1.4-2.8 1.5-2.3.1 2.2-3.3 14.4-5.1 18.2-1 2.2-1.9 4.7-2 5.5 0 .8-.8 2.6-1.7 4-.9 1.4-2.7 4.1-4 6-4.9 7.4-5.3 15.9-.7 16.7 2.7.6 4.4-2.3 3.8-6.6-.4-2.9.1-4.6 2.3-7.7 1.5-2.2 3.5-5.8 4.5-8l1.8-4 .1 7.5c.7 31.2.3 44.2-2 71.5-.5 6-1.2 15.9-1.5 22-.2 6-1 17.3-1.7 25-.7 7.7-1.2 20.5-1.3 28.3 0 13.9.1 14.4 2.4 16.3 1.7 1.4 3.9 1.9 8.7 1.9 7.1 0 8.4 1 5.2 3.9-2.2 2.1-2.2 2.1-4 .1-2.4-2.6-3.4-2.5-5.3.3-1.5 2.4-1.5 13.1 0 16.9.4.9.2 3.2-.4 5-2 6.5-2.3 10.7-2.8 41.5-.5 30.9-.5 31.1 1.6 32.2 1.7 1 2.1 2.1 2.1 6.1 0 5.4-.9 6.1-4 3-1.6-1.6-1.8-2.5-1-4 2.4-4.4-.4-8.1-6.8-9l-3.7-.5-.3-7.5c-.4-8.9 1.3-19.8 3.5-22.2 1.2-1.4 1.3-2.3.4-5-1.8-5.4-1.4-16.2.7-21.2.9-1.9.9-3.3.3-3.9-.7-.7-.7-1.6 0-2.9.8-1.5.4-2.4-1.9-4.6-3.9-3.6-4.2-4.8-3.1-12.8.5-3.8 1.3-11.6 1.9-17.4 1.9-20.9 3-32.6 3.5-39.1.3-3.7.7-8.9 1-11.5.2-2.7.7-19.2 1-36.8.3-17.5.6-32.1.7-32.5 0-.3 0-4.6-.1-9.4-.1-7-.4-8.9-1.7-9.4-3.6-1.3-3.6-1.4-3.6 39.2.1 13.1-.1 24.2-.3 24.5-.1.3-.6 7-.9 15-.4 8-1.1 18.3-1.6 23-.6 4.7-1.2 13.1-1.4 18.6-.2 5.6-.6 10.6-.9 11.2-.6.8-1.9 13.1-3.4 32.4-.3 3.4 0 6.5.7 7.9.8 1.4 1.4 8.4 1.6 18.5.4 16.8-.1 19.3-3.3 16.1-1.7-1.6-1.7-1.4-1-56.7.2-17.5.5-20.9 2-23.5 1.1-1.9 1.7-4.9 1.7-8-.1-2.8.2-9.1.6-14.1.5-6.2.3-10.2-.6-12.8-1.6-4.8-1.3-42.1.5-74.1 2.1-37 2.2-46.5.7-63.4-.6-6-.5-12.1.2-17 .6-4.2.9-12 .6-17.4-.3-5.3-.2-9.7.2-9.7.3 0 1.5 1.7 2.5 3.7 2.1 4.3 3.2 4.8 5.7 3 1.6-1.2 1.6-1.5-.4-7l-2.1-5.7 3.1-5.6c1.7-3.1 2.8-6.4 2.5-7.4-1.4-4.5-2.2-20.9-1.3-27.2.8-5.2.7-7.2-.2-8.3-1-1.2-1.6-1.3-2.7-.4-1.8 1.6-2.2 1-1.6-2.3.3-1.5 1.3-3 2.2-3.3 1-.3 2.5-2.2 3.4-4.3 7.9-17.9 23.1-34.3 37.1-39.9 15.1-6.2 24.2-7.2 39.1-4.5zm120.8 16.9c.1 7.9-.1 14.3-.5 14.3-.5 0-.8-4.6-.9-10.3 0-5.6-.2-13.1-.5-16.7-.3-5.2-.2-6 .7-4 .6 1.4 1.1 8.9 1.2 16.7zM305 238c0 .5-.6 1-1.4 1-.8 0-1.8-.5-2.1-1-.3-.6.3-1 1.4-1 1.2 0 2.1.4 2.1 1zm71.2 5.5c-.5 3-1.8 3.3-2.5.6-.5-2.2 0-3.1 1.8-3.1.8 0 1 1 .7 2.5zm-21.4 6.6c-1.8 3.5-3.7 6.4-4.3 6.6-.5.2-1.8-1.1-2.8-2.8-1.5-2.7-1.5-3-.2-2.5 2.3.9 7.6-3.4 7-5.5-.4-1.1 0-1.9 1.2-2.1 1-.3 2-.3 2.1-.2.2.1-1.1 3.1-3 6.5zm-79.3-3.6c3.3.9 6.4 2 7 2.6 1.4 1.4-2.1 1.1-6.2-.6-3.7-1.6-9.5-2-10.7-.8-.4.4-4.6.8-9.4 1-21.3.6-22.6.8-28.8 4.4-3.3 1.8-6.5 4.1-7.2 5.1-1.7 2.3-3.2 2.3-3.2 0 0-3.3 6.1-7.6 13-9.4 1.9-.5 5.1-1.4 7-1.9 1.9-.6 4.9-1.4 6.5-1.8 4.6-1.3 25.3-.3 32 1.4zm105.5 1.1c0 .8-.4 1.4-1 1.4-.5 0-1-.9-1-2.1 0-1.1.5-1.7 1-1.4.6.3 1 1.3 1 2.1zm-5 .8c0 .3-.4.8-1 1.1-.5.3-1 .1-1-.4 0-.6.5-1.1 1-1.1.6 0 1 .2 1 .4zm-70.7 4.8c2.3.9 2.7 1.5 2.3 3.7-1.3 6.8-1.6 14-.7 18.6.5 2.7.7 5.2.5 5.4-.3.3-1.7-.7-3.1-2.2-2.6-2.6-2.7-2.9-1.5-7.2 1.8-6.8 1.6-12.4-.5-13.1-1-.3-3.1-1.3-4.8-2.2-1.6-.9-4.5-2.3-6.2-3.2-3.3-1.6-3.2-1.6 4-1.2 3.9.2 8.5.8 10 1.4zm-45.8-.2c-.3.5-3 1-5.8.9-4.1-.1-4.7-.3-2.7-.9 3.7-1.2 9.2-1.2 8.5 0zm-19.5 2c0 .5-2.1 1-4.7 1-3.5 0-4.4-.3-3.3-1 2-1.3 8-1.3 8 0zm122.7 2.2c-.3.7-.5.2-.5-1.2s.2-1.9.5-1.3c.2.7.2 1.9 0 2.5zm-79.9.7c3.2.5 6.1 1.6 7.5 2.9 2.7 2.6 4.3 2.8 5.1.7.7-2 3.6-.8 3.6 1.6 0 1.5-.5 1.8-2.4 1.3-1.3-.3-4 .2-6.1 1-3.8 1.6-3.9 1.6-6.6-1-2.4-2.3-3.6-2.6-11-2.9-8.2-.3-19.5-2.2-18.6-3.2.8-.8 18-2.1 20.7-1.6 1.4.3 4.9.8 7.8 1.2zm-71.8 6.3c-2.5 2.2-6.2 5.6-8.2 7.5-3.1 2.9-3.6 3.1-3.1 1.3.7-2.5 6.4-8.4 10.8-11.1 5-3.1 5.3-2.1.5 2.3zm20-2.2c0 1.2-2.8 2.5-3.6 1.7-.9-.9.6-2.7 2.2-2.7.8 0 1.4.5 1.4 1zm115 .5c-.7.8-1.6 1.2-2.1.9-1.3-.8-.1-2.4 1.8-2.4 1.3 0 1.3.3.3 1.5zm18.2 14.7c.1 16.1.2 18.9.8 30.6l.3 7.2-4.4 2.8c-5.1 3.2-7.9 4.4-7.9 3.4 0-2.7 3.1-17.4 4.3-20.7.9-2.2 1.6-5.4 1.6-7 0-1.7.5-6.4 1-10.5.6-4.1 1.4-10.5 1.7-14.3 1.2-11.5 2.4-7.4 2.6 8.5zM221.5 265c-.3.5-1.7 1-3.1 1-1.4 0-2.2-.4-1.9-1 .3-.6 1.7-1 3.1-1 1.4 0 2.2.4 1.9 1zm159.5 7.2c0 3.4-.3 5.9-.6 5.5-1.1-1.1-1.5-11.7-.4-11.7.6 0 1 2.6 1 6.2zm-176 8.2c-1.3 1.3-3.5-.7-2.5-2.4.5-.8 1.1-.8 2.1.1 1 .8 1.2 1.5.4 2.3zm150 .6c-.8.5-.8 1-.2 1.4 1.2.7.4 4.6-1 4.6-.6 0-.7-1.1-.4-2.4.3-1.4.1-2.6-.5-2.8-.8-.3-.5-1.1.7-2.2 1.3-1.3 1.9-1.5 2.2-.6.3.7-.1 1.6-.8 2zm-188 6.9c0 .6-.5 1.3-1.1 1.6-.6.4-.8 1.3-.5 2.1.7 1.8-1.4 3-2.4 1.4-1-1.7.9-6 2.7-6 .7 0 1.3.4 1.3.9zm215 .6c0 .8-.4 1.5-1 1.5-.5 0-1-.7-1-1.5s.5-1.5 1-1.5c.6 0 1 .7 1 1.5zm-152.8 2.2c1.1.6 2.1 7 1.4 9.6-.3 1.4-2.2 3.1-5.1 4.5l-4.6 2.2.3-2.7c.2-2.3.9-2.9 3.3-3.1 4.1-.5 6.2-2.2 4.3-3.6-.8-.6-1.7-1.9-2.1-2.9-.6-1.5-1.3-1.7-3.7-1.2-1.9.4-3 .3-3-.4 0-1.9-2.9-1.2-4 .9-.7 1.4-.8 2.6 0 3.9 1.2 2.4 1.3 6.8.2 7.5-.5.3-2.2-.8-3.7-2.4-2-2-2.8-4.1-3-6.9-.3-4.4.6-5.7 4.5-6.4 2.6-.5 13.9.2 15.2 1zm-26.6 3.6c-.5 2.2.9 31 1.9 37.2.3 1.6.7 5.7 1 9 .3 3.3.7 7.3 1 9 2.4 16.2 2.7 81.5.3 81.5-1.3 0-2.2-2.4-2.1-5.5.1-1.6.4-7.1.6-12.2.4-6.5.2-9.3-.6-9.6-.9-.3-.9-.8-.2-1.8.7-.8 1-6.9.8-15.4-.1-7.7-.2-16.4-.2-19.3 0-3-.5-6-1.1-6.7-.8-.9-.8-1.5 0-2 .6-.3.8-1.1.4-1.6-.3-.5-1.1-.6-1.7-.2-.9.5-.9.3-.1-.8.6-.8.9-3.6.7-6.4-.2-2.8-.6-8.2-.8-12-.1-3.9-.6-10.8-.9-15.5-.5-7.4-1-27.2-.7-29.3.1-.4.6-.7 1.2-.7.7 0 .9.9.5 2.3zm149.4 3.1c0 1.4-4.8 5.1-5.7 4.3-.4-.4 4.7-5.7 5.4-5.7.2 0 .3.6.3 1.4zM241.2 300c4.3 1.9 7.8 4.3 7.8 5.2 0 .3-3 .8-6.7 1.2-7.7.8-8.8 1.3-7.3 3.1.9 1.1 3.1 1.3 9.5.8 6.4-.4 8.8-.3 10.1.8 1.5 1.2 1.3 1.4-1.2 2.1-2 .5-3.1.3-3.9-.9-1-1.4-1.5-1.3-5.2.6-2.3 1.1-5.7 4.2-7.8 7.1-4.1 5.5-5.5 6.2-5.5 2.6 0-3.7-2.6-4.8-10.5-4.6-3.9.1-3.9.1-2-1.8 1.1-1 4.1-2.8 6.7-4.1 4.6-2.2 10.8-9.6 10.8-12.8 0-1.7 0-1.7 5.2.7zm136.8 1.1c0 .5-.7.9-1.5.9-1.5 0-2-1.2-.9-2.3.8-.8 2.4.1 2.4 1.4zm4-.1c0 .5-.2 1-.4 1-.3 0-.8-.5-1.1-1-.3-.6-.1-1 .4-1 .6 0 1.1.4 1.1 1zm-32.6 5.8c-1.8 3.8-2.4 4-2 .9.5-3.6 1.8-5.9 2.7-5 .6.6.3 2.3-.7 4.1zm22.6-1.4c0 .8-.4 1.8-1 2.1-.5.3-1-.3-1-1.4 0-1.2.5-2.1 1-2.1.6 0 1 .6 1 1.4zm8.1 8.6c1 .6 1.9 1.5 1.9 2.1 0 .5-1.3.3-3-.6-1.6-.9-3-1.8-3-2 0-.8 2-.6 4.1.5zM252 315.9c0 .5 2 1.7 4.5 2.7 2.8 1 5.2 2.8 6.3 4.6.9 1.6 3 3.2 4.7 3.7 2.8.7 3 1.1 2.7 4.7-.5 5.9-6.8 11.8-9.8 9.3-1.3-1.1-1.2-1.6 1-3.6 2.9-2.7 3.3-5 1.3-7.8-1.7-2.2-4.1-1.1-3.4 1.6.4 1.6 0 1.9-2.9 1.9-2.1 0-4.2.8-5.5 2.1-1.1 1.1-2.2 1.9-2.3 1.7-.1-.2-1.4-2-2.9-4s-2.7-3.9-2.7-4.2c0-.2 1.3-.4 3-.4 2.9.1 10-4.3 10-6.3 0-1.4-3.2-1-5.4.6-2.3 1.7-3.5 1.8-5.6.5-1.2-.8-.9-1.5 2-4.3 3.7-3.6 5-4.3 5-2.8zm118.8 2.3c-.2.6-1.1 1.5-1.9 1.9-8.3 4.3-17.1 8-13.9 5.9 4.5-3 14.6-8.9 15.3-9 .5 0 .7.5.5 1.2zm-22.1 4c-.3.8-.6.5-.6-.6-.1-1.1.2-1.7.5-1.3.3.3.4 1.2.1 1.9zm-130.6 2.9c-2.8 3.2-4.3 3.6-6 1.5-2-2.4-.3-4.1 4.2-4.3l4.4-.1-2.6 2.9zm128.1 1.1c-.6.6-1.5.8-1.9.4-.4-.4-.1-1.1.7-1.6 1.9-1.2 2.7-.3 1.2 1.2zm21.8-.2c.8 1.6.6 2.1-1.2 3.1-1.3.6-2 .8-1.6.4.4-.4 0-1.4-.8-2.2-.8-.8-1.2-1.9-.9-2.4 1-1.5 3.4-1 4.5 1.1zm19 0c0 .5-.4 1-.9 1-.6 0-1.3-.5-1.6-1-.3-.6.1-1 .9-1 .9 0 1.6.4 1.6 1zm.2 5.7c2.7 1.4 4.8 3.2 4.8 4 0 2.1-2.4 1.5-5-1.2-1.3-1.4-3.1-2.5-4-2.5-.9 0-2.7-1.2-4.1-2.6l-2.4-2.5 3 1.1c1.6.6 5.1 2.3 7.7 3.7zm-155.2.2c0 .9 1.3 3.2 2.8 5.1 1.6 1.9 3.4 4.6 4.1 5.8.7 1.3 2.8 3 4.6 3.8 3.3 1.4 5.2 4.4 4 6.4-.4.7-1.7.4-3.5-.7-2.3-1.3-3.2-1.4-4.4-.4-2 1.7-3.6.6-3.6-2.5 0-1.7-1.9-4.3-6-8.3-3.3-3.2-6-6.1-6-6.4 0-.2.9-.7 2-1 1.2-.3 2-1.4 2-2.5 0-1.5.5-1.9 2-1.5 1.1.3 2 1.3 2 2.2zm-19 .1c0 .5-.4 1-.9 1-.6 0-1.3-.5-1.6-1-.3-.6.1-1 .9-1 .9 0 1.6.4 1.6 1zm146.7 2.2c-.3.8-.6.5-.6-.6-.1-1.1.2-1.7.5-1.3.3.3.4 1.2.1 1.9zm-192.2-.2c-.3.5-1.3 1-2.1 1s-1.4-.5-1.4-1c0-.6.9-1 2.1-1 1.1 0 1.7.4 1.4 1zm170.1 1.1c1 1.7-1.7 13.2-2.9 12-1.1-1.1-1.3-10.3-.3-12 .9-1.4 2.3-1.4 3.2 0zm27.4-.1c0 .5-.4 1-1 1-.5 0-1-.5-1-1 0-.6.5-1 1-1 .6 0 1 .4 1 1zm-36.4 2.6c-.3.9-.6 1.9-.6 2.4s-1.7 1-3.7 1.2c-3 .2-3.8.7-3.8 2.2 0 2.8 3 4.4 5.5 2.8 1.8-1.1 2.1-.9 3.1 1.5.6 1.6 1.9 3.7 2.9 4.8 2 2.2 2.4 9.5.5 9.5-.6 0-1.1-1-1.1-2.1.1-1.2-.7-2.6-1.7-3.3-2.6-1.6-9.1 2-9.5 5.4-.5 4.9-1.3 7-2.4 7-.7 0-.9-2-.5-6.5.5-5.3.4-6.5-.8-6.5-2.8 0-.7-11.5 2.5-13.5.5-.3 1-1.7 1-3 0-2.7 1.1-3.3 5.9-3.4 2.6-.1 3.2.2 2.7 1.5zm-141.6 7c0 3.6-.4 6.3-.9 6-.5-.3-.8-2.5-.6-4.9.2-2.3.4-5 .4-6 .1-.9.3-1.7.6-1.7s.5 3 .5 6.6zm125.4-1.5c-.8 2.2-2.3 5.2-3.3 6.7s-2.6 3.9-3.5 5.4c-.9 1.6-2.1 2.8-2.7 2.8-.6 0-2.3.9-3.9 2-2.7 1.9-2.8 1.9-3.3 0-.6-2.4 0-3 3.3-3 3 0 5.8-2.6 6.5-6 .2-1.3 1.4-3.3 2.5-4.5 1.1-1.2 2-2.8 2-3.6 0-1.5 1.9-3.9 3.1-3.9.4 0 0 1.8-.7 4.1zm53.8 59.4c1 74.1 1.4 208.5.7 209.7-1.3 2.1-3.6-.1-4.9-4.7-1.4-5.1-5.3-10.5-7.6-10.5-.7 0-1.9 1-2.5 2.2-.6 1.3-1.3 2.4-1.4 2.6-.1.1-2.2-1.6-4.6-3.8-2.4-2.2-5.2-4.3-6.2-4.6-2.4-.8-8.8 3.5-12.3 8.3-4.2 5.7-15.6 17.3-16.6 16.7-2.1-1.3-.2-36.9 3.2-57.4 1.1-6.9 2.5-15.8 3.1-19.8.9-5.9 1.5-7.6 3.5-8.9 2-1.3 3-1.4 5-.4 1.4.6 3.7.8 5.2.5 3.7-.9 8.4-6.1 7.7-8.5-.3-1-.7-2.8-1-3.8-.6-1.9.1-2.9 4-5.5 1.9-1.4 1.9-1.7-2.3-18.5-2.4-9.5-4.4-18.6-4.5-20.4-.2-3.9 4.1-37 5.3-41.2 2.2-7.5 4.1-26.1 4.9-50 .6-14.3.8-26.1.6-26.4-.3-.2-1.1.1-1.8.7-.8.7-1.7.9-2 .5-1.1-1-.8-2.3.5-2.3.6 0 1.9-.6 2.7-1.4 2.3-2 14.1-5.6 17.6-5.3l3 .2.7 52zm10.2-49.1c-.5 1.4-4.4 2.9-5.2 2.1-.3-.3.1-1.1.8-2 1.6-1.9 5.1-2 4.4-.1zm-156 2.5c.3.5-.1 1.4-.8 2-1.6 1.3-3.2-.2-2.1-1.9.8-1.2 2.2-1.3 2.9-.1zm151.9 4.1c-.7 2.8-1.3 2.5-1.3-.6 0-1.4.4-2.3.9-2 .5.3.7 1.5.4 2.6zm-61.3 4.2c0 3.4-.3 4.9-1 4.2-1.7-1.7-1.7-9.4 0-9.4.6 0 1 2.3 1 5.2zm-92.3 9.7c-1 1.2-1.2 1.2-1.5-.2-.2-1-1.2-1.7-2.3-1.7-1.5 0-1.9-.7-1.9-3.7v-3.6l3.4 3.9c2.7 3.1 3.2 4.2 2.3 5.3zm53.6-2.4c1.7 2.3 1.7 2.5-.2 3.5-2.9 1.5-4.1 1.2-4.1-.9 0-2.4 1-5.1 1.9-5.1.3 0 1.4 1.2 2.4 2.5zm100.7 1.7c0 1.6-.3 1.9-1.1 1.1-.6-.6-.8-1.6-.5-2.2 1.1-1.7 1.6-1.3 1.6 1.1zm-58.7.3c0 .6-.7 1.1-1.6 1.3-1.2.3-1.5-.1-1.1-1.3.7-1.7 2.5-1.7 2.7 0zm27 9.7c-.2.5-.8.8-1.4.8-.5 0-.8-.3-.7-.8.1-.4-.2-1.9-.6-3.4-.5-1.6-.3-3.5.5-5 1.3-2.2 1.4-2.1 2 2.7.3 2.7.4 5.3.2 5.7zm-108.5-1.8c-.3 2.1-3.2 2.5-5.2.6-1.7-1.7.1-3.8 2.9-3.2 2 .3 2.5 1 2.3 2.6zm-11 3.5c2.3 1.2 4 2.6 3.6 3.2-.4.7-1.3.4-2.4-.6-1-.9-2.4-1.5-3.2-1.4-5.2.7-7.7-1.2-6.4-4.7.6-1.5.8-1.5 2.4-.2.9.9 3.6 2.5 6 3.7zm31.6-.9c2.2 1.7 3.8 3 3.5 3-.2.1-2.8.2-5.6.4-5.2.3-5.3.3-5.3-2.4 0-4.9 1.9-5.2 7.4-1zm118.6 4.1c0 4.4-.4 6.8-1 6.4-1.1-.7-1.3-5.7-.4-10.4 1-4.9 1.4-3.7 1.4 4zm-66.8-4.7c.4.6.2 1.8-.3 2.8-.8 1.4-.5 2.7.9 5.1 2.4 3.8 3.8 11.2 2.3 12.1-.9.6-4.2-8.6-5.6-15.7-.7-3.7-2.9-4.3-6-1.9-2.2 1.8-3.1 1.9-5.8 1-4.4-1.5-5.6-2.8-2.6-2.8 1.3 0 3-.4 3.7-.8 1.7-1.2 12.5-.9 13.4.2zm-27.8 5c1 2.4 2.7 4 6.1 5.6 4.8 2.3 7.4 2.3 13.6-.4 1.2-.5 1.9.4 3.2 4.5 2.4 7.4 2.2 8.6-1.7 9.9-1.9.6-5.3 2.5-7.6 4.1-4.6 3.4-5.9 3.2-4.2-.6 1.6-3.5.4-8.5-2.4-9.7-2-1-2.7-.7-4.9 1.6-3 3.2-2.9 3-.8 6.3 1 1.5 1.6 3.7 1.5 5-.3 1.9.3 2.7 2.8 3.6 2.9 1.1 3.1 1.5 2.6 4.7-.9 5.5 1.2 10.8 5.6 13.8 2.1 1.5 3.7 3.4 3.5 4.3-.3 2.3 2.2 4.9 4.7 4.9 4.4 0 4.9 1.5 1.6 4.3-1.7 1.5-3 3.4-2.8 4.3.4 2.1 7.6 4.6 9.9 3.4 2.5-1.4 3.3-4.3 1.5-5.6-1.2-.8-1.4-2-1-4.3.4-1.8.2-3.7-.5-4.5-.9-1-.9-1.6-.1-2.1 1.7-1.1 2-.3 3.1 7 .5 3.7 1.2 7.1 1.4 7.6.7 1.1 4.5 30.5 4.5 34.8 0 2.5-.9 4.2-3.9 7.2-3.8 3.8-5.9 4.3-4.1.8 1-1.8.7-9.1-.5-12.2-1.6-3.9-9.4-6-13-3.3-1.8 1.3-1.8 1.6-.3 5.2 3.2 7.5 3.2 8.1-.3 8.8-3.9.8-4.4.4-2.8-2.2.7-1.1.9-2.7.5-3.7-.5-1.4-1.4-1.6-5.4-1-2.6.4-5.3 1.2-5.9 1.7-1 .8-1.3.6-1.3-.8 0-1.2 1.8-2.9 4.9-4.7 5.1-2.8 9.1-7.9 9.1-11.5 0-3.5-1.6-3.3-5.3.6-1.9 2-5.5 5.3-8 7.2-4.7 3.7-9.7 10.3-9.7 13 0 .8-.9 2.1-2.1 2.8-1.2.7-1.8 1.6-1.5 1.9.3.3.1 1.4-.5 2.5-.8 1.4-.6 2.6.6 4.4 1 1.6 1.3 3.3.9 4.7-.4 1.2-.7 3.3-.6 4.7.2 1.9 0 2.1-.6 1-.9-1.5-3.9-25.9-4.4-35.3l-.2-4.9 5.4-.2c4.2-.1 6.7-.9 10.7-3.4 6.6-4.2 8.2-7.9 7.2-16.7-.9-7-2.9-10.9-7.7-14.9-1.7-1.5-3.2-3.3-3.2-3.9 0-.6 1.8.6 3.9 2.7 3.2 3.2 4.4 3.7 6.6 3.2 3.2-.8 4.2-3.1 2.3-5.4-.8-.9-1.9-2.9-2.5-4.3-1-2.4-1.6-2.6-7.6-2.6-7.4-.2-9.3 1.1-8.3 5.2.5 1.9.2 2.5-.9 2.5-.9 0-2.9.7-4.5 1.5s-3.1 1.1-3.4.6c-.3-.5-.8-3.9-1.2-7.7l-.6-6.9 3.4-1.6c3.8-1.8 6.7-7.9 6.7-14.4.1-5.5-5.1-14.4-9.9-16.7-4.3-2.2-11.3-2.3-13-.3-.7.8-2.3 1.5-3.6 1.5-1.5 0-2.4.6-2.4 1.5 0 1.6 3.6 2.8 6.6 2.3 1.3-.2 2 .4 2.2 1.9.3 2.4-2.1 3.3-3.3 1.3-.4-.6-1.8-.1-3.5 1.2-4.4 3.2-5 8.7-1.5 14 2.7 4 2.7 4.2 1 7-1.5 2.7-1.5 3.1-.1 5.3 1.8 2.8 2.7 3 4.4 1.3.8-.8 1.1 2.2.9 12.3-.1 12.3.3 20.8 1.9 40.7l.6 7.3-3.9 3.4c-3.2 2.8-3.6 3.6-2.7 5.2 1.6 2.6 4.4 2.9 5.1.4 1-3.8 2-2.2 2.7 4 1.1 10.9.8 12.8-2.1 15.3-3.2 2.8-2.7 5.9 1.7 11 4.3 4.8 4 7.3-1.1 8.6-2.2.6-5.7 1-7.7.8l-3.7-.3-.8-7.4c-.8-7.3-.8-7.4 2.2-10.5 2.7-2.8 3.1-3.9 3.1-8.9 0-6.5-1.9-12.1-4.7-13.5-1.9-1.1-2-2.6-1.5-26.8.2-10.3.4-11.4 3.1-15.5 3.6-5.5 4.6-11.4 3-16.8-1.1-3.7-1.6-4.2-3.8-3.9l-2.6.3V428c0-5.2.5-14.9 1.2-21.4.9-8.1 1-12.3.3-13-1.4-1.4-3.9 1.3-4.2 4.7-.1 1.5-.3 2.7-.4 2.7-1.2 0-4.5-7.6-4.2-9.7.3-2.6.6-2.8 4.3-2.5 2.2.1 5.6.9 7.6 1.7 4.8 1.8 16.4 1.4 20.6-.8 1.8-.9 4.9-1.7 7-1.7 2.1 0 4.7-.7 5.7-1.5 2.6-1.9 2.4-2 4 1.9zm-89.6 2.8c-.2 3.2-.8 4.4-2.1 4.6-1.6.3-1.7.1-.8-1.6.6-1.2 1.1-3.2 1.1-4.6 0-1.4.5-2.6 1.1-2.6.6 0 .9 1.7.7 4.2zm126.7-1.1c1 3 0 3.3-1.3.4-.6-1.4-.7-2.5-.2-2.5.5 0 1.2.9 1.5 2.1zm26.2 1.1c-.3.7-.5.2-.5-1.2s.2-1.9.5-1.3c.2.7.2 1.9 0 2.5zm-24 9c-.3.8-.6.5-.6-.6-.1-1.1.2-1.7.5-1.3.3.3.4 1.2.1 1.9zm55.8 9.3c0 8.3-.3 11.6-1.2 12-1 .3-1.3-2-1.3-9.9 0-10 .5-13.6 1.9-13.6.3 0 .6 5.2.6 11.5zm-172-7.6c-.3.6-1.1 1.1-1.7 1.1-.6 0-.6-.6.2-1.5 1.4-1.7 2.6-1.3 1.5.4zm20.7.6c.3 1.4.1 2.8-.3 3.1-.5.3-.9-.9-.9-2.5 0-3.8.6-4 1.2-.6zm39.1 1c1.9 1.8 1.2 9.3-1 11.5-1.4 1.3-1.5.9-.9-4.2.4-3.5.2-5.9-.4-6.3-.6-.4-.8-1.1-.5-1.6.8-1.2 1.1-1.2 2.8.6zm-27.8 3.7c-.3 2.4-.7 7.9-.9 12.3l-.3 8-3.2.9c-1.7.5-3.5.6-3.9.2-1.5-1.6-.5-11.5 1.6-14.8 1.2-1.8 3-5 4.2-7.1 1.1-2 2.2-3.7 2.5-3.7.3 0 .2 1.9 0 4.2zM326 406c0 .5-.5 1-1.1 1-.5 0-.7-.5-.4-1 .3-.6.8-1 1.1-1 .2 0 .4.4.4 1zm3.8 6.5c-.2.2-1.5.6-3.1 1-2.4.6-2.6.5-2.1-1.1.4-1.1 1.6-3 2.8-4.2l2.1-2.4.3 3.2c.2 1.8.2 3.3 0 3.5zm10.8-2.8c-1.1 1.1-1.7-.4-.9-2.3.7-1.8.8-1.8 1.1-.1.2 1 .1 2.1-.2 2.4zm39.1-1.5c-.3.8-.6.5-.6-.6-.1-1.1.2-1.7.5-1.3.3.3.4 1.2.1 1.9zM220 412.5c0 2.7-.4 3.5-1.8 3.5-1 0-2.3.5-3 1.2-1.8 1.8-3.4-.3-3-3.8.2-2.1.8-2.8 2.1-2.6.9.2 2.5-.2 3.5-.7.9-.6 1.8-1.1 2-1.1.1 0 .2 1.6.2 3.5zm85.8 6.3c.2.7-.6 1.2-1.7 1.2-2.1 0-2.7-1.1-1.4-2.4.9-.9 2.6-.2 3.1 1.2zm65.4 9.2c-.4 2.8-.6 3.1-1.2 1.6-.8-2.4 0-7 1-5.9.4.4.5 2.4.2 4.3zm-65.7-1.5c-1 .9-2.4 2.7-3 4.2l-1.1 2.7-2.2-2.2c-1.2-1.2-2.2-3.1-2.2-4.2 0-1.8.7-2 5.3-2 4.8.1 5.1.2 3.2 1.5zm74.5 4c0 .8-.4 1.5-1 1.5-.5 0-1-.7-1-1.5s.5-1.5 1-1.5c.6 0 1 .7 1 1.5zm-125.4 3.2c.4 2.1.8 6 .8 8.8.1 4.7-.1 5-2.6 5.3l-2.7.3.6-7.8c.2-4.3.6-8.4.9-9.1.7-2.4 2.3-1.1 3 2.5zM337 431c0 .5-.5 1-1.1 1-.5 0-.7-.5-.4-1 .3-.6.8-1 1.1-1 .2 0 .4.4.4 1zm-129.7 9.9c-.3 1.1-1.3 1.9-2.3 1.8-1.6-.1-1.7-.3-.4-2.1.8-1.1 1.4-3.2 1.5-4.6l.1-2.5.8 2.7c.4 1.5.6 3.6.3 4.7zm113.7-4.4c0 .8.5 1.5 1.1 1.5.5 0 .7.4.4 1-1.2 2-3.5 1-3.5-1.5 0-1.4.5-2.5 1-2.5.6 0 1 .7 1 1.5zm-89 3.9c0 1.4-.4 2.8-1 3.1-.6.4-1-.7-1-2.4s.5-3.1 1-3.1c.6 0 1 1.1 1 2.4zm140 1.7c0 2.8-1.5 2.3-1.6-.6-.1-1.4.2-2.2.7-1.9.5.3.9 1.4.9 2.5zm-47.1 9.8c.7 3.5 1 6.5.8 6.7-.7.8-4.6-15.9-4-17 .8-1.2 1.6 1.4 3.2 10.3zm-117.2-2.8c-.3 1-.1 2.1.4 2.4 1.1.7.4 51.4-.9 58.5-1.2 6.9-1.8 31.1-1.4 59.2.3 20.8.3 21.7-1.7 22.7-4.4 2.4-7.3 0-3.1-2.7 2.3-1.4 2.7-3.4.5-2.6-1.9.8-1.9-1 0-2.6 1.7-1.4.9-3.5-.9-2.3-.7.4-.4.1.6-.9 2.1-1.9 2.3-3.5.6-4.1-1-.3-1-.7-.1-1.8 1.1-1.4 1.7-4 1.4-6.7-.1-.9-.8-1.1-2.1-.7-2.7.8-2.5-.9.2-3.5 1.8-1.7 2-2.3.9-2.9-.8-.5-1-1.4-.6-2.1 1.3-2.1 1.5-8.1.4-10.2-.8-1.5-.7-2.4.5-3.7.9-1 1.4-2 1.1-2.3-.9-.9-1.5-10.7-.6-11.2 1.1-.7.5-17.4-.7-22-.9-3-.7-3.7.9-4.8 1.7-1.2 2-3 2.4-18.2.2-9.3.1-17.4-.2-18-1.1-1.7-1-6 0-7.4.7-.9.7-1.6.1-2-1.9-1.3-2.3-4-.8-5.3.9-.7 1.1-1.6.5-2.3-1-1.3-.9-4.6.3-6.5 1.2-1.9 3 1.3 2.3 4zm109-1.9c-.3.8-.6.5-.6-.6-.1-1.1.2-1.7.5-1.3.3.3.4 1.2.1 1.9zM237 450l-.8 3.5-.1-3.1c-.1-1.7.2-3.4.6-3.7 1.1-1.2 1.2-.3.3 3.3zm-18-2c0 .5-.2 1-.4 1-.3 0-.8-.5-1.1-1-.3-.6-.1-1 .4-1 .6 0 1.1.4 1.1 1zm155 0c0 .5-.4 1-1 1-.5 0-1-.5-1-1 0-.6.5-1 1-1 .6 0 1 .4 1 1zm-142.5 2.8c-.3.3-1.1 0-1.8-.7-.9-1-.8-1.1.6-.5 1 .3 1.5.9 1.2 1.2zm36 .2c-1.7 1.9-1.7 2.1 0 4 2.3 2.6.6 5.2-2.3 3.4-2.6-1.7-2.6-4.1.2-6.9 3-3 4.7-3.4 2.1-.5zm107-.1c.3.5.1 1.2-.5 1.6-.5.3-1-.1-1-.9 0-1.8.6-2.1 1.5-.7zm-120.5 6c0 2.1-.6 4.4-1.4 5.1-1.2.9-1.6.6-2.1-2.3-.7-3.7.9-8.2 2.6-7.2.5.4.9 2.3.9 4.4zm126-4.5c0 .3-.4.8-1 1.1-.5.3-1 .1-1-.4 0-.6.5-1.1 1-1.1.6 0 1 .2 1 .4zm-159.2 2.5c.3.8-.1 1.2-.9.9-.7-.2-1.5-1-1.7-1.7-.3-.8.1-1.2.9-.9.7.2 1.5 1 1.7 1.7zm56.2.7c1.7 4.4 1.1 7.8-1.9 11.4-3.1 3.8-3.9 3.7-4.3 0-.2-1.7.3-2.5 1.7-2.8 4.4-.9 6.2-5.6 3-8.2-1.7-1.4-2-3-.5-3 .6 0 1.5 1.2 2 2.6zm42 1.5c0 .5-.4.9-1 .9-.5 0-1-.7-1-1.6 0-.8.5-1.2 1-.9.6.3 1 1 1 1.6zm-87-.1c0 1.3-4.9 4.4-5.7 3.6-.9-.8 2.7-4.6 4.4-4.6.7 0 1.3.4 1.3 1zm31.7 9.1c-1.1 2.8-1 3.3 1.2 5 2.7 2.2 2.5 3.1-.6 2.3-1.6-.5-2.2-1.6-2.5-4.7-.5-4.7-.3-5.7 1.7-5.7 1.1 0 1.1.6.2 3.1zm-31.9 10.6l-.3 10.7-7-.1c-4-.1-7.1-.6-7.3-1.2-.2-.6.8-1.1 2.1-1.1 2.7 0 9.3-6.8 7.9-8.1-.4-.4-2.5-.9-4.7-1.1-3.5-.3-4.1 0-5.4 2.7-1.9 4.1-3.5 4.9-4.2 2.2-1-4.2 0-6.4 2.9-5.9 1.8.2 3.5-.4 5-1.8 2.2-2.1 2.2-2.3.7-4.6L220 466h12.1l-.3 10.7zm26.6 6.5c.3 2.9.8 8 1.1 11.3l.7 6-2.7-3.3c-1.5-1.7-3.2-3.2-3.8-3.2-.8 0-1.3-3.2-1.5-10.1l-.3-10.1 2.9 2.1c2.4 1.7 3.1 3 3.6 7.3zm120.6-7.7c0 .8-.4 1.5-1 1.5-.5 0-.7-.7-.4-1.5.4-.8.8-1.5 1-1.5.2 0 .4.7.4 1.5zm-189.3 7.8c.2 4 .2 12.6.1 19.2-.5 21 0 45.7 1.1 54 .6 4.4 1.2 8.9 1.4 10 .1 1.2-.4 2-1.2 2-.9 0-1.5-1.3-1.7-3.5-.2-1.9-.5-6.4-.8-10-.8-8.9-1.6-12.3-3.3-13.7-.9-.7-1.2-1.7-.7-2.4.4-.7.9-3.8 1-6.8.1-3.1.6-9.9.9-15.1.4-5.2.8-16.3.9-24.5.4-17.6.4-18 1.3-17.1.4.3.8 3.9 1 7.9zm190.3 1.3c0 .8-.4 1.2-1 .9-.5-.3-1-1-1-1.6 0-.5.5-.9 1-.9.6 0 1 .7 1 1.6zm-78.6 3.8c-.3 1.3-.1 2.7.5 3 .6.4 1.1 1.5 1.1 2.4 0 2.2-1.5.4-2.8-3.5-1-3.1-.7-4.3 1-4.3.5 0 .6 1.1.2 2.4zm79.6 7.8c0 .5-.4.8-1 .8-.5 0-1-1-1-2.3 0-1.8.2-1.9 1-.7.5.8 1 1.8 1 2.2zm-52.8 2.8c.3 2.5 1.6 7.4 2.8 11 3.2 9.9 3.6 14.6 1.5 17-2.9 3.2-4.3 2.5-4.3-2.3 0-2.4-.6-6.4-1.2-8.8-.7-2.4-1.6-6.9-2-9.9-.5-3-1.2-7-1.6-8.8-.6-3.1-.5-3.4 1.7-3 2 .2 2.5 1.1 3.1 4.8zm-174.8 22.2c-.1 13.9-.7 31.6-1.4 39.3-.6 8-.9 24.3-.6 38 .2 13.2.2 25.3-.1 26.8l-.6 2.8-3.1-3.8-3.1-3.7.3-11.6c.2-6.3.9-18.3 1.7-26.5.8-8.3 1.6-20.2 2-26.5.5-10.9.9-17.6 2-37 .9-16.1 1.8-23 2.9-23 .2 0 .2 11.4 0 25.2zm72.8-22.9l4.8.1v3.5c0 2-.3 5.3-.6 7.4-.5 2.9-.9 3.5-2 2.6-.7-.6-1.8-.7-2.5-.3-1.8 1.1-9.8 1.4-10.5.3-1.3-2.2 1.7-3.7 7-3.3 4.8.3 5.4.2 6.4-2 .8-1.8.8-2.8-.2-4.1-1.8-2.6-5-1.5-5.4 1.8-.4 3.1-3.1 3.6-7.9 1.4l-2.7-1.2 3.4-.5c4.1-.6 5.1-3.1 2.3-6.2-1.8-2.1-1.8-2.1.6-.8 1.3.7 4.6 1.3 7.3 1.3zm59.4-.7c-1.6 4.2 5.9 7.1 9.6 3.7 1.7-1.5 1.8-1.5 1.8.8 0 5.4-4.2 6.3-9.8 2.2-5-3.7-5.4-4.5-3.5-6.5 2-2.2 2.7-2.3 1.9-.2zm51.9 9.6c.4 2.1.5 4.2.2 4.4-.6.6-3.7-8.3-3.7-10.5.1-3 2.8 1.8 3.5 6.1zm43-4.2c-.3.5-1 1-1.6 1-.5 0-.9-.5-.9-1 0-.6.7-1 1.6-1 .8 0 1.2.4.9 1zm-7.3 7c0 3.4-.5 6.7-1 7.2-1.1 1.1-1.6-11.7-.5-13.5 1-1.7 1.5.3 1.5 6.3zm-53.8-5.4c1 .4 1.6 1.8 1.6 3.8 0 1.7.7 5.3 1.5 8 1.7 5.5.9 7.6-2.9 7.6-2.2 0-5.5 1.8-9.3 5.3-3.8 3.4-14.4 6.5-20.8 6-3.2-.2-6.6-.8-7.6-1.3-1-.6-3.6-1-5.8-1-3.2 0-4.4.5-5.7 2.5-.9 1.4-1.9 2.4-2.1 2.1-.3-.3-.6-4.1-.8-8.5-.3-7.3.4-9.7 1.9-7.2.4.5 2.1.9 3.9.8 2.6-.2 3.1-.6 2.9-2.2-.2-1.1-.3-3.6-.4-5.5 0-1.9-.4-4.1-1-4.8-1.8-2.1.5-1.3 5 1.8 5.4 3.6 13.6 4.9 17.8 2.7 1.6-.8 4.1-1.7 5.6-2.1 1.5-.3 3.5-1.7 4.4-3.1 1.2-1.9 2.2-2.3 3.9-1.9 1.7.4 2.6 0 3.5-1.5 1.1-2.2 1.9-2.5 4.4-1.5zm-45.9 1.5c1.1 1.7-.1 2.1-1.5.4-.8-.9-.8-1.5-.2-1.5.6 0 1.4.5 1.7 1.1zm-37.8 3.1c-.3.8-.6.5-.6-.6-.1-1.1.2-1.7.5-1.3.3.3.4 1.2.1 1.9zm48.5-1c-.9.9-1.5.9-2.4 0-.9-.9-.7-1.2 1.2-1.2s2.1.3 1.2 1.2zm97.3 1.7c.3.5.1 1.3-.5 1.6-1.5.9-4.3-.3-3.5-1.5.8-1.3 3.2-1.3 4-.1zm-150.7 8.3c-.2 1.3-1.1 2.4-2 2.6-2.1.4-2.4-1.8-.6-3.6 1.9-1.9 3-1.4 2.6 1zm32.2-.3c0 .6-.4 1.3-1 1.6-.5.3-1-.1-1-.9 0-.9.5-1.6 1-1.6.6 0 1 .4 1 .9zm118.6.7c-.3.9-.6 2-.6 2.5s-.7.9-1.5.9c-1.5 0-2.1-3.1-.8-4.3 1.3-1.4 3.5-.7 2.9.9zm-124.5 7.3c-.7 1.2-1.7 2.1-2.3 2.1-.9 0-.9-.3 0-1.2.7-.7 1.2-2.1 1.2-3.2 0-1.4.3-1.7 1.1-.9.8.8.8 1.7 0 3.2zm124.4 2.1c.3.5-.3 1-1.5 1s-1.8-.5-1.5-1c.3-.6 1-1 1.5-1s1.2.4 1.5 1zM231 533.5c0 5-.2 5.6-2.6 6.5-3.4 1.3-8.4 1.3-8.4-.1 0-.6.9-.9 2-.6 2.6.7 4.7-1.8 3.1-3.7-1.4-1.7-.1-4.9 2.7-6.5 2.9-1.7 3.2-1.3 3.2 4.4zm30.4-2c2.5 1.9 3 8.5.6 8.5-2.6 0-4-2.1-4-6.2s.5-4.5 3.4-2.3zm-46.4 2.3c0 .4-.9 1.3-1.9 1.9-1.7 1.1-2.1.9-2.6-.7-.9-2.9.2-4.2 2.6-3 1 .6 1.9 1.4 1.9 1.8zm158.7-.6c-.3.8-.6.5-.6-.6-.1-1.1.2-1.7.5-1.3.3.3.4 1.2.1 1.9zm-69.2 7.5c-4.4 3.8-6.4 3.4-3.5-.7 1.4-1.9 2.8-2.7 4.6-2.6 2.6.1 2.6.1-1.1 3.3zm8.5-2.3c0 .8-.4 1.8-1 2.1-.5.3-1-.3-1-1.4 0-1.2.5-2.1 1-2.1.6 0 1 .6 1 1.4zm-22.5 1.5c1.4.2-3.7 4.1-5.4 4.1-1 0-1.1-.3-.2-1.3.9-1.1.4-1.4-2.4-1.3-1.9.1-4 .7-4.7 1.4-1.6 1.6-2.5 1.5-3.2-.3-1-2.6 5.1-3.6 15.9-2.6zm83.2 11.1c.4.8.8 4.9.8 9.2.2 6-.1 7.5-1.2 7.1-2.1-.8-2.5-4.3-1.9-15.5.6-12.5.9-13.8 1.3-7.3.2 2.7.7 5.7 1 6.5zm8.1-8.6c.4 1.7-1.4 4.6-2.8 4.6-.6 0-.6-3.9-.1-6.8.2-1.1 2.7.7 2.9 2.2zm-168.9 4.2c-1.6 2-2.8 1.7-2.2-.5.3-1.2 1.1-1.7 1.9-1.4 1.1.4 1.2.9.3 1.9zm48.9-1.2c-.2.6-1 3.3-1.7 5.9-.8 2.6-2.2 5.2-3.3 5.8-1 .5-1.6 1.4-1.3 2 .4.5 1.1.7 1.6.4.5-.4.9-.1.9.5s-.8 1.3-1.7 1.7c-1 .3-2.8 1.5-4 2.6l-2.3 2v-2.6c0-2.9-.9-3.4-2.8-1.5-.9.9-1.2.9-1.2.1 0-.7 2.7-3.1 6-5.4 3.9-2.7 5.6-4.5 4.9-5-.7-.4-.9-1.4-.6-2.3.5-1.1.1-1.6-1.2-1.6-1.1 0-2.1-.5-2.3-1.2-.5-1.5-2.8-.1-2.8 1.8 0 1.6-4.3 5.7-9.2 8.6-3.7 2.3-4.5 2.3-2.3-.2s.5-2.6-3.3-.4c-2.6 1.6-2.6 1.6.3-1 6.1-5.4 14.7-10.8 16.5-10.3 1 .2 2.2.2 2.8-.2 1.8-1.1 7.3-.9 7 .3zM242 547c0 1.2-2.8 2.5-3.6 1.7-.9-.9.6-2.7 2.2-2.7.8 0 1.4.5 1.4 1zm46.8.2c-.3.7-1.3 1.5-2.4 1.7-1.6.3-1.7.1-.5-1.3 1.6-1.9 3.4-2.1 2.9-.4zm8.2-.3c0 1-3 2.4-3.7 1.7-.3-.3-.2-.9.2-1.5.8-1.3 3.5-1.5 3.5-.2zm6 0c0 1.2-2 2.5-2.7 1.8-.7-.7.6-2.7 1.8-2.7.5 0 .9.4.9.9zm-88.3 2.8c-.9.9-2 1.3-2.4.9-.4-.4-.1-1.1.7-1.6 2.5-1.6 3.5-1.1 1.7.7zm10 .9c-.3.3-1.2.4-1.9.1-.8-.3-.5-.6.6-.6 1.1-.1 1.7.2 1.3.5zm11.3.4c0 1.4-4.9 4.4-5.8 3.5-.4-.3.4-1.5 1.7-2.6 2.6-2.1 4.1-2.4 4.1-.9zm53.9 2.1c-1.6 1-2.3.4-1.4-1 .3-.6 1.1-.8 1.7-.5.6.4.5.9-.3 1.5zm92.1.9c0 1.5-.7 2-2.5 2-2.7 0-2.8-.1-1.9-2.4.9-2.4 4.4-2 4.4.4zm-97 3c0 .5-.4 1-1 1-.5 0-1-.5-1-1 0-.6.5-1 1-1 .6 0 1 .4 1 1zm-68.6 1.9c2.5 1 1.1 1.8-3.1 1.9-2.4 0-3-.3-2.6-1.4.6-1.5 2.7-1.7 5.7-.5zm8.3 1.6c-2.6 2.3-4.7 3.2-4.7 2 0-.6 6.2-4.5 7-4.5.3.1-.8 1.2-2.3 2.5zm10.8.5c-.3.5-1.1 1-1.6 1-.6 0-.7-.5-.4-1 .3-.6 1.1-1 1.6-1 .6 0 .7.4.4 1zm146.5 1.7c0 2.7-.6 2.9-2.6.9s-1.8-3.2.6-3.2c1.4 0 2 .7 2 2.3zm-143 .7c0 .8-2.3 2.8-5 4.5-5.8 3.5-6 3.6-6 1.6 0-.8 1.6-2.1 3.5-3 1.9-.9 3.9-2.3 4.6-3.1 1.5-1.8 2.9-1.8 2.9 0zm37.5 1.6c-.3.5-1.1 1-1.6 1-.6 0-.7-.5-.4-1 .3-.6 1.1-1 1.6-1 .6 0 .7.4.4 1zm25.5 0c0 .5-.5 1-1.1 1-.5 0-.7-.5-.4-1 .3-.6.8-1 1.1-1 .2 0 .4.4.4 1zm-85 1c0 1.2-2.8 2.5-3.6 1.7-.9-.9.6-2.7 2.2-2.7.8 0 1.4.5 1.4 1zm4.5.9c-.3.6-1.1 1.1-1.7 1.1-.6 0-.6-.6.2-1.5 1.4-1.7 2.6-1.3 1.5.4zm6.5-.4c-.7.8-1.7 1.5-2.2 1.5-.6 0-.5-.7.2-1.5s1.7-1.5 2.2-1.5c.6 0 .5.7-.2 1.5zm28-1.2c0 .1-1.1 3.6-2.5 7.7-1.3 4.1-2.5 8.4-2.5 9.4 0 1.1-.7 2.7-1.6 3.7-.9 1-1.6 3.7-1.6 6.8-.1 3.5-.6 5.1-1.5 5.1-.7 0-1.3.5-1.3 1.1 0 .5.5.7 1.2.3.8-.5.9 0 .4 1.7-1.8 6.6-2.9 12.8-2.7 16.7.2 5.4-.6 8.2-2.5 8.2-.8 0-1.4.5-1.4 1.1 0 .6.7.9 1.5.5 1.9-.7 1.9 1 0 9.9-2.7 11.9-2.7 11.9-6.3 12.2-3.5.3-3.8-.3-1.7-3.1 2.6-3.4 1.6-3.9-2-1.2-4.1 3.2-4.7 1.8-.7-1.6 3.5-3 5.7-5.8 4.6-5.8-.5 0-3.1 2.1-5.7 4.5-8.5 7.9-7 4.1 1.8-4.5 4.5-4.5 5.7-5.2 6.5-4 1.1 1.7 1.3.9.4-1.4s-2.7-2-5.3.8c-3.1 3.3-12 9.5-10.1 7.1 2.6-3.6 5.4-6.1 9.1-8.3 3.1-1.9 7.9-7.2 6.5-7.2-.3 0-3.9 2.7-8 6-7.1 5.6-9.7 7.1-9.5 5.2 0-.4 4.6-4.3 10.2-8.7 9.6-7.6 13.4-11.8 9.1-10-5.4 2.1-6 1.9-3-1.4 1.7-1.7 3.1-3.7 3.2-4.4.2-.6.6-2.2 1-3.5.4-1.3.2-2.2-.5-2.2-.6 0-1.1-.7-1.1-1.5s-.3-1.5-.8-1.5c-1.1 0-8.3 4.9-11.4 7.7-1.4 1.4-3.4 2.3-4.4 2.1-1.4-.2-.3-1.5 4.4-5.1 3.4-2.6 8.9-6.8 12.2-9.3 3.3-2.5 6-4.9 6-5.3 0-2.9-3.6-1.1-10.7 5.4-4.3 3.9-9.3 7-9.3 5.6 0-.6.6-1.5 1.3-2 .6-.6 2.7-2.3 4.5-3.7 1.8-1.5 3-2.9 2.7-3.2-.2-.3-1.4.3-2.5 1.3-2.9 2.6-3.8.9-1-2 2.4-2.5 5-3.3 5-1.5 0 2.1 2.7.8 7.3-3.4 5.4-5 6.3-7.5 1.8-5.1-1.7.8-3.3 1.9-3.6 2.5-.3.5-1.1 1-1.7 1-1.7 0 .8-2.4 5.7-5.6 4.6-2.9 5.3-3.8 3.5-4.9-.6-.4-.8-1.5-.5-2.5.3-1 .1-2.1-.5-2.5-1.2-.8 2.8-5.5 4.8-5.5.6 0 1.2-.5 1.2-1 0-.6.5-1 1-1 .6 0 1 .1 1 .3zm11.2 1.9c-.7.7-1.2.8-1.2.2 0-.6.3-1.4.7-1.7.3-.4.9-.5 1.2-.2.2.3-.1 1.1-.7 1.7zm11.8.8c0 .5-.9 1.4-2 2-2.2 1.2-2.7.1-.8-1.8 1.4-1.4 2.8-1.6 2.8-.2zm6.1 2c-1.9 1.6-3.7 2.7-4 2.4-.8-.7 4.7-5.4 6.2-5.4.7.1-.3 1.4-2.2 3zm-15.6.7c-1.7 1.6-3.2 2.5-3.3 2-.4-.9 3.8-4.6 5.3-4.7.5 0-.4 1.2-2 2.7zM304 569c0 .5-.4 1-1 1-.5 0-1-.5-1-1 0-.6.5-1 1-1 .6 0 1 .4 1 1zm68.8 1.5c-.3.3-.9-.2-1.2-1.2-.6-1.4-.5-1.5.5-.6.7.7 1 1.5.7 1.8zm-65.5 1.5c-.3 1.1-1.2 2-1.9 2-2 0-1.7-2.8.4-3.3.9-.3 1.8-.5 1.9-.6 0 0-.1.8-.4 1.9zm88.8 4.3c-1.7 1.7-2.4-1.8-.9-4.5l1.3-2.3.3 2.9c.2 1.6-.1 3.3-.7 3.9zM215 571.4c0 .3-.4.8-1 1.1-.5.3-1 .1-1-.4 0-.6.5-1.1 1-1.1.6 0 1 .2 1 .4zm3.7 1.3c-.9.9-2 1.3-2.4.9-.4-.4-.1-1.1.7-1.6 2.5-1.6 3.5-1.1 1.7.7zm79.8.3c-1 1.1-2.3 2-2.8 2-.6 0-.2-.9.8-2s2.3-2 2.8-2c.6 0 .2.9-.8 2zm-66.5.5c0 .8-.7 1.5-1.6 1.5-1.4 0-1.4-.3-.4-1.5.7-.8 1.4-1.5 1.6-1.5.2 0 .4.7.4 1.5zm38 2.4c0 1.2-2 2.5-2.7 1.8-.7-.7.6-2.7 1.8-2.7.5 0 .9.4.9.9zm-37.5 2.1c-1 1.1-2.5 2-3.4 2-1.2-.1-1-.5.8-2 3-2.6 4.9-2.6 2.6 0zm56.9 4.4c-5.3 4.8-6.4 5.4-6.4 3.2 0-.8 2.1-3.3 4.7-5.5 6.6-5.6 8.1-3.6 1.7 2.3zm-72.4-4.5c0 1.2-2.9 3.5-3.6 2.8-1.1-1 .5-3.7 2.1-3.7.8 0 1.5.4 1.5.9zm17.5 3.6c-5 4.5-7 5.5-6.3 3.3.5-1.4 8.8-7.7 10.3-7.7.6 0-1.2 2-4 4.4zm44.5-1c-.7.8-1.7 1.2-2.3.8-.6-.4-.3-1.1.8-1.9 2.3-1.7 3.2-1 1.5 1.1zm95.1 2.3c-.6 1.1-1.1 3.2-1.1 4.6 0 1.4-.5 2.8-1.2 3.2-.8.5-.9-.4-.5-3.2.4-2.1.7-5.2.7-6.9 0-2.7.1-2.8 1.6-1.3 1.2 1.2 1.4 2 .5 3.6zm-78.6-1.1c-.8 1.5-3.8 4.9-6.7 7.4-2.9 2.6-5 5-4.5 5.5.4.4 2.8-1.2 5.2-3.6 7.9-7.7 4.8-2.7-4.1 6.8-5 5.3-9.4 9.2-10.5 9.2-2.9 0-2.3-1.1 3.1-5.8 2.8-2.4 5-4.8 5-5.3 0-.6-1.9.6-4.2 2.5-4 3.5-5.8 4.4-5.8 2.9 0-1.2 21.4-22.2 22.7-22.2.9-.1.8.7-.2 2.6zm-23-.7c-.3.5-1.1 1-1.6 1-.6 0-.7-.5-.4-1 .3-.6 1.1-1 1.6-1 .6 0 .7.4.4 1zm32.8 18.4c-.5 2.2-1.4 4.1-2.1 4.4-.9.3-1-.3-.3-2.1.6-1.6.6-2.8-.2-3.6-.8-.8-.7-1.7.2-3.5 1.1-1.9 1.1-3.2.2-5.7-.9-2.6-.8-3.5.4-4.9.8-.9 1.6-2.3 1.7-3.1.1-.8.4 2.2.5 6.6.2 4.4 0 9.8-.4 11.9zM379 581c0 .5-.2 1-.4 1-.3 0-.8-.5-1.1-1-.3-.6-.1-1 .4-1 .6 0 1.1.4 1.1 1zm-77.5 1c-.3.5-1.1 1-1.6 1-.6 0-.7-.5-.4-1 .3-.6 1.1-1 1.6-1 .6 0 .7.4.4 1zm-77.1 3.5c-2.6 1.9-3.1.9-.8-1.6 1.1-1.2 2-1.6 2.2-.9.2.6-.4 1.7-1.4 2.5zm157.3.2c-.3 1-.5.4-.5-1.2 0-1.7.2-2.4.5-1.8.2.7.2 2.1 0 3zM218 584c0 .5-.9 1.4-2 2-1.6.8-2 .8-2-.4 0-1.3 1.3-2.3 3.3-2.5.4-.1.7.3.7.9zm61 1.5c-.7.9-1.5 1.3-1.8 1-.3-.2.1-1.1.8-2 .7-.9 1.5-1.3 1.8-1 .3.2-.1 1.1-.8 2zm-21 2c.6 1.5 1.4 4.9 1.8 7.8.5 2.9 2.4 11.8 4.2 19.9l3.4 14.8-2.2 7c-2.5 7.7-4.9 10.1-17.2 17.9-8.1 5-9.4 4.2-5.7-3.6 2.7-5.9 4.1-12.5 5.2-24.8 1.3-14.9 4.5-34.3 6.5-39.3 1.2-2.9 2.8-2.8 4 .3zm-28.3 4c-2.9 2.6-4.7 3.2-4.7 1.6 0-1.3 4.1-4.1 6-4.1 1 .1.6.9-1.3 2.5zM274 590c0 .5-.5 1-1.1 1-.5 0-.7-.5-.4-1 .3-.6.8-1 1.1-1 .2 0 .4.4.4 1zm109 2.5c0 .8-.4 1.5-1 1.5-.5 0-1-.7-1-1.5s.5-1.5 1-1.5c.6 0 1 .7 1 1.5zm-10.5.4c.3.5.1 1.2-.5 1.6-.5.3-1-.1-1-.9 0-1.8.6-2.1 1.5-.7zM192 597.2c2.5 1.3 4.7 2.6 5 3 .3.3.2 6.4-.2 13.5-.3 7-.6 18.1-.7 24.5l-.1 11.7-4.4 3c-2.4 1.7-4.7 3.8-5 4.8-1.7 4.3-2.3-1.9-1.9-18.1.5-15.3.8-17.3 2.5-19 2-1.9 2-1.7.5-18.1-.2-2.2-.7-4.8-1.1-5.8-1.1-2.3 0-2.2 5.4.5zm180.2 2c-.9.9-1.2.7-1.2-1.2s.3-2.1 1.2-1.2c.9.9.9 1.5 0 2.4zm-164.1 1.1c-.1 1.2-1.5.9-1.9-.4-.3-.6.1-1 .8-.8.6.3 1.1.8 1.1 1.2zm83.1 2.4c-4.7 5.8-13.1 13.8-13.8 13-.7-.6 14.3-16.2 15.9-16.5.5-.1-.5 1.5-2.1 3.5zm52.1-.6c2.1 1.7 5.1 5.5 6.8 8.4 3.1 5.5 6 7.4 11.2 7.6l3.2.1-2.7 1.2c-5.3 2.3-7.8 5.6-7.8 10.2 0 6 1.9 7.1 6.5 3.9 2.1-1.4 4.1-2.5 4.4-2.5.7 0 .8 3 2.1 35 1.2 29.5 2 49 2.1 49.8.1.4.1 1.8 0 3.2l-.1 2.5-14.3.2c-16.2.2-20.1 1-20.5 4-.5 3.3-2.2 4.1-9.2 4.7-3.6.4-7.6.8-9 1.1-1.4.2-7.8.7-14.4 1l-11.8.5.6-2.2c.3-1.3.6-3.3.6-4.6 0-1.8.4-2.1 2.3-1.7 2.9.7 5.1-.8 5.2-3.7.1-1.3 1-3.6 2.1-5.2 1.2-1.9 1.8-4.5 1.7-7.2-.1-3.4.2-4.3 1.8-4.7 2.4-.6 2.6-5.7.3-9.2-1.8-2.7-2-2.4 3.1-4 3.2-1 1.8-7-5.2-22.3-2.8-6.1-2.7-7.2 1.3-23.2 4-15.8 3.8-15.5 16-27.3 6.3-6.1 12.6-12.8 14-14.9 1.5-2.1 3.4-3.8 4.3-3.8.9 0 3.3 1.4 5.4 3.1zm39.5 5.5c.1 2.6.3 4.9.5 5.1.3.2.1 1.9-.3 3.8s-.5 3.6-.3 3.9c.8.7 1.2 9.6.4 9.6-.3-.1-1.9-1.1-3.5-2.4-2-1.7-2.7-2.9-2.2-4.1.5-1.4.9-1.5 2.1-.5 1.8 1.5 1.7 2.1 1.6-10.8 0-5.6.3-10 .8-9.8.5.3.9 2.7.9 5.2zm-88.8-2.3c0 1.8-8.9 10.9-10.1 10.2-1-.7 7.7-11.5 9.2-11.5.5 0 .9.6.9 1.3zm10.1 3c-1 .9-1.1.8-.5-.6.3-1 .9-1.5 1.2-1.2.3.3 0 1.1-.7 1.8zM216 608c0 .5-1 1-2.2 1-1.9 0-2-.2-.8-1 1.9-1.3 3-1.3 3 0zm7 0c0 .5-.8 1-1.7 1-1.5 0-1.6-.2-.3-1 1.9-1.2 2-1.2 2 0zm135.5 3.8c-.9.9-2.5-1.1-2.5-3.1.1-2.1.1-2.1 1.5.3.7 1.4 1.2 2.7 1 2.8zM235 609.4c0 .2-3.4 2.9-7.6 6.1-4.2 3.1-7.5 5.3-7.3 4.7.2-.5 3.3-3.2 6.9-6 6-4.6 8-5.8 8-4.8zm33.2 3.8c-.7.7-1.2.8-1.2.2 0-.6.3-1.4.7-1.7.3-.4.9-.5 1.2-.2.2.3-.1 1.1-.7 1.7zm24.4 1.3c-.5 1.8-.2 2.5.9 2.5 1.9 0 2 2.9 0 3.6-.8.4-1.5 1.1-1.5 1.7 0 .5.9.2 2-.8 1.6-1.4 2.3-1.6 3.2-.7 1 1-1.2 3.7-9.9 12.3-6.1 6.2-11.6 11-12.2 10.8-.6-.2 1.9-3.9 5.5-8.2 3.6-4.3 5.6-7.4 4.5-6.8-4.5 2.4-4.2-.2.5-5.2 4.8-5 3.3-4.7-2.9.8-8.8 7.7-7.1 3.6 2.9-6.6 6.1-6.4 8-7.3 7-3.4zm13.4.8c0 1.8-.6 4.1-1.2 5-1.1 1.5-1.3 1.2-1.5-2-.3-4.4.2-6.3 1.7-6.3.5 0 1 1.5 1 3.3zm-32-1.4c0 1.2-2 2.5-2.7 1.8-.7-.7.6-2.7 1.8-2.7.5 0 .9.4.9.9zm-52 .5c0 .3-.4.8-1 1.1-.5.3-1 .1-1-.4 0-.6.5-1.1 1-1.1.6 0 1 .2 1 .4zm-12 3.6c0 .5-.5 1-1.1 1-.5 0-.7-.5-.4-1 .3-.6.8-1 1.1-1 .2 0 .4.4.4 1zm9-.6c0 .2-.7.6-1.5 1-.8.3-1.5.1-1.5-.4 0-.6.7-1 1.5-1s1.5.2 1.5.4zm154.1 5.8c0 2.9.1 6.5.1 7.9.1 3.6-1 6.2-2.2 5.4-.5-.3-1-1.8-1-3.2 0-3.2 2.1-15.3 2.6-15.3.2 0 .4 2.4.5 5.2zM227 621c0 .5-.4 1-1 1-.5 0-1-.5-1-1 0-.6.5-1 1-1 .6 0 1 .4 1 1zm3.6 2.5c-3.4 3-6.6 4.5-6.6 3.1 0-.8 8.4-6.6 9.4-6.6.6.1-.7 1.6-2.8 3.5zm-14.1.5c.3.6-.1 1.3-1 1.6-1.9.8-3 0-2-1.5.8-1.4 2.2-1.4 3-.1zm85.3-.1c1 .6.7 1.2-1.3 2.5-1.4 1-4.3 3.4-6.3 5.4-2 2.1-4.8 4.6-6.2 5.7-2.2 1.7-2.1 1.5.5-1.5 1.6-1.9 3.5-4 4-4.5.6-.6 2.4-2.7 3.9-4.8 3-3.9 3.4-4.1 5.4-2.8zm63.2.5c0 1.5-4.6 5.6-6.2 5.6-1.4 0 .1-4.3 2-5.8 2.1-1.6 4.2-1.5 4.2.2zM220 627c0 .5-.7 1-1.6 1-.8 0-1.2-.5-.9-1 .3-.6 1-1 1.6-1 .5 0 .9.4.9 1zm79.9 12.7c-1.2 4.8-2.7 9.5-3.4 10.3-.7.8-1 2.1-.8 2.8.8 2-.7 8.2-1.8 8.2-.7 0-.8-1.5-.4-4.1.6-3.3.4-4.3-1.1-5.4-1.8-1.3-1.8-1.4 0-3.4 2-2.2.9-3-1.2-.9-.6.6-1.5.9-1.8.5-.4-.3 1.2-2.7 3.4-5.3 3.9-4.6 4.8-8.1 1.4-5.1-3.6 3-4.5 2.8-1.7-.4 8.8-10 9-10.2 9.3-8 .2 1.1-.7 6-1.9 10.8zM215 631c0 .5-.4 1-1 1-.5 0-1-.5-1-1 0-.6.5-1 1-1 .6 0 1 .4 1 1zm66 2.1c0 .5-1 .9-2.1.9-1.8 0-1.9-.2-.9-1.5 1.2-1.5 3-1.2 3 .6zm102.5-.1c.3.5.1 1-.4 1-.6 0-1.1-.5-1.1-1 0-.6.2-1 .4-1 .3 0 .8.4 1.1 1zm-.2 6.5c-.6 8.6-2.9 9.6-3.2 1.5-.1-4.5.1-5.1 1.6-4.8 1.3.3 1.7 1.2 1.6 3.3zm-103.4 7.1c-4.4 4.5-5.9 5.3-5.9 3.3 0-1.9 7.8-9.1 9.1-8.4.7.5-.5 2.3-3.2 5.1zm4.7.9c-1.8 2.3-2.5 4.2-2.1 5.7.5 1.9-.7 3.5-5.8 8.7-7.3 7.1-10.1 6.9-3.2-.3 5.4-5.6 5.9-7 1-2.7-3.4 2.9-5.5 3.9-5.5 2.4 0-.7 17-17.3 17.8-17.3.2 0-.8 1.6-2.2 3.5zm2.2 3.7c-.3.7-1.3 1.5-2.4 1.7-1.6.3-1.7.1-.5-1.3 1.6-1.9 3.4-2.1 2.9-.4zm95.7 3.8c-.4 1.1-1.3 2-2.1 2-1.7 0-1.8-.8-.2-4.2 1-2.1 1.5-2.4 2.1-1.2.5.8.5 2.3.2 3.4zm-146.1-2.2c.3.5.1 2.4-.3 4.3-.5 1.9-1.2 4.6-1.5 6.1-.4 1.6-1.3 2.8-2.1 2.8-1.8 0-1.8-.1 0-3.6.8-1.6 1.5-4.6 1.5-6.7 0-3.4 1.2-4.8 2.4-2.9zM207 654c0 .5-.5 1-1.1 1-.5 0-.7-.5-.4-1 .3-.6.8-1 1.1-1 .2 0 .4.4.4 1zm65 0c0 .5-.4 1-1 1-.5 0-1-.5-1-1 0-.6.5-1 1-1 .6 0 1 .4 1 1zm-53 1c0 .5-.5 1-1.1 1-.5 0-.7-.5-.4-1 .3-.6.8-1 1.1-1 .2 0 .4.4.4 1zm35.8 4.2c-.6 3-2.3 5.7-5.3 8.7l-4.4 4.4-2-2.4c-1.1-1.3-2.1-3.2-2.2-4.2-.1-.9-.2-2.2-.3-2.8-.1-.7 1.6-1.8 3.7-2.5 2.1-.8 5.1-2.2 6.5-3.3 4.3-3.2 5.1-2.7 4 2.1zm-54.3-1.5c1 1.3 1 2.3.3 3.7-.8 1.5-.8 2.1.1 2.4.6.2 1.1 1.1 1.1 1.9 0 1.4-.3 1.4-2-.2-1.3-1.2-2-3.1-2-5.7 0-4.2.6-4.7 2.5-2.1zm68.5.3c0 .5-.4 1-1 1-.5 0-1-.5-1-1 0-.6.5-1 1-1 .6 0 1 .4 1 1zm-37 1.4c0 .3-.4.8-1 1.1-.5.3-1 .1-1-.4 0-.6.5-1.1 1-1.1.6 0 1 .2 1 .4zm59 1.8c0 1.6-.3 1.9-1.1 1.1-.6-.6-.8-1.6-.5-2.2 1.1-1.7 1.6-1.3 1.6 1.1zm91.3 7.5c-.3 7.9-.7 9.3-2.3 7.7-.6-.6-.6-3.2.1-7.3.7-4.3.7-6.7-.1-7.5-1.3-1.6 0-3 1.4-1.6.6.6 1 4.3.9 8.7zm-10.6-4.5c-.3.8-.6.5-.6-.6-.1-1.1.2-1.7.5-1.3.3.3.4 1.2.1 1.9zm-167.5 12.6c4.8 3 13.5 6.2 19.6 7.3 6.9 1.3 11.2-.1 14.4-4.7l2.5-3.5.7 4.7c.4 3.5.2 5.2-.9 6.4-.8.9-2 5.4-2.8 10-1.7 10.5-5.3 18.1-7.1 15.1-.4-.5-.8-5.5-.9-11-.3-10.8-1.4-13.4-4.5-11.5-.9.6-2.1 2.7-2.6 4.7-.6 2.5-1.5 3.7-2.7 3.7-3.3 0-4.4 2.7-3.1 7.6 1.6 6.1 1.6 6.1-2.3 5.9-6.1-.4-7.9-4.9-5-11.9 1.8-4.1 1.3-5.6-1.6-5.6-1.2 0-1.9-.3-1.7-.8.2-.4 1.2-2.4 2.3-4.5 1.4-2.9 1.7-4.2.9-5.5-2.5-4-11.2-1.4-9.8 3 .3 1 .1 1.8-.5 1.8-.5 0-1.3-.9-1.6-2-1.1-3.5-6.5-1.8-6.5 2.1 0 .9.9 2.8 2 4.1 1.7 2.2 1.9 3.5 1.3 9.1-.5 6.2-.7 6.5-2.5 5.6-1.6-.9-1.8-1.7-1.3-5 .5-3 .2-4.5-1.3-6.6-1.3-1.9-2.1-5.3-2.5-10.1-.6-7-.5-7.4 2.5-10.8 2.6-2.9 3-4 2.5-7.4l-.5-3.9 4.8 5.9c2.7 3.1 6.4 6.7 8.2 7.8zm89.8-8.9c-1.4 3.4-1.2 3.3-3.4 2.5-2.1-.8-2-1.6.5-4.8 2.8-3.6 4.7-2 2.9 2.3zm-107 .7c0 1.3-.4 2.4-1 2.4-.5 0-1-1.4-1-3.1 0-1.7.4-2.8 1-2.4.6.3 1 1.7 1 3.1zm45.5 1.1c-.5 1-.9 3.3-1 5.1-.2 3.6-1.7 5.8-3.4 4.8-.7-.5-.6-1.5.5-3.1.9-1.3 1.3-2.9.9-3.5-.4-.6.1-2.2 1-3.6 1.8-2.8 3.2-2.6 2 .3zm43.5-1.5c0 1.6-4.1 5.8-5.7 5.8-2 0-1.6-2.1.9-4.7 2.3-2.5 4.8-3.1 4.8-1.1zm-18.4 3.9c.3.6.1 1.6-.5 2.2-.9.9-1.4.8-2.1-.3-.9-1.5-.4-3 1-3 .5 0 1.2.5 1.6 1.1zm34.3 5c.1 1.7-.7 3-2.3 3.8-4 2.2-4.5.9-1.9-4.9 2.1-4.7 2.6-5.2 3.3-3.5.5 1.1.9 3.2.9 4.6zm-14.9-2.5c0 .3-1.1 2-2.5 3.8-1.4 1.8-2.5 3.8-2.5 4.4 0 .7-1.1 1.2-2.5 1.2s-2.5-.2-2.5-.5c0-1 8.2-9.5 9.1-9.5.5 0 .9.3.9.6zM120 676c-1.4.4-5.4.8-9 .7l-6.5-.1 7-.6c10.3-1 11.5-1 8.5 0zm12.3-.3c-.7.2-1.9.2-2.5 0-.7-.3-.2-.5 1.2-.5s1.9.2 1.3.5zm5 0c-.7.2-1.9.2-2.5 0-.7-.3-.2-.5 1.2-.5s1.9.2 1.3.5zm-46 1c-.7.2-2.1.2-3 0-1-.3-.4-.5 1.2-.5 1.7 0 2.4.2 1.8.5zm164.6 9.5c3.6 1.6 6.8 2 14.1 2 13.5 0 19.4-1.4 25.9-6.3 2.9-2.2 5.4-3.9 5.6-3.7 3.1 3.7 3.1 7.9 0 10.6-2.8 2.5-3 3.1-1.3 6.8 1.1 2.3 1 2.8-.7 4.1-1.5 1.1-2 2.7-2.2 7.1-.3 9.4-.7 12.2-1.8 11.9-.5-.1-1.1-2-1.1-4.2-.1-2.2-.2-4.6-.3-5.3 0-.6-1.2-1.2-2.6-1.2-3 0-3.2-2.1-.9-8 2-4.9.8-7-4-7-3.7 0-9 4.4-8.3 6.9 1.9 5.7 1.9 6.1.5 6.1-.8 0-2.3.6-3.3 1.4-1.8 1.3-1.8 1.4.3 4.7l2.1 3.5-2.2 3.3c-2.1 3.4-2.1 3.4-3.5 1.3-.8-1.2-2.3-2.2-3.3-2.2-2.3 0-2.5-3.3-.5-8.1 1.7-4.1.5-7.3-2.4-6.4-2.7.9-3.2-.9-1.4-4.9 1.4-2.9 1.5-3.8.4-5.1-1.8-2.2-7.3-1.9-9.5.5-1.6 1.7-1.7 2.8-.9 8.8.8 5.3.6 7.7-.4 10.3l-1.4 3.3-1.8-2.4c-1.2-1.6-1.7-3.4-1.3-4.8.3-1.3 0-4.1-.7-6.2-1-3.2-1-4.5 0-7 1-2.3 1-3.4.1-4.3-.6-.6-1.1-2.5-1.1-4.2 0-1.6-.7-3.8-1.5-4.8-.7-1.1-1.1-2.6-.8-3.4.5-1.1 1.2-.8 3.1 1.7 1.4 1.8 4.6 4.1 7.1 5.2zm117.4-1c.2 3.2 0 5.8-.5 5.8-.4 0-.8-3-.7-6.8.1-7.7.6-7.3 1.2 1zm10.2 7.5c.2 12.5-.7 12.7-1.9.3-.5-5.4.3-14.5 1.1-13.6.3.2.6 6.2.8 13.3zm-266.2-10.5c15.1-.2 18.7 0 18.7 1.1 0 3.2-49.5 5.2-55.2 2.3-1.6-.9-2.8-1.1-2.8-.5 0 .6-1.2.8-2.7.5-1.6-.2-4.5-.7-6.6-1.1-6.8-1.1-3-2.2 7.8-2.2 5.8 0 10.9-.4 11.3-.8.4-.4 3-.3 5.7.1 2.8.5 13.4.8 23.8.6zM264 682c0 .5-.9 1-2.1 1-1.1 0-1.7-.5-1.4-1 .3-.6 1.3-1 2.1-1s1.4.4 1.4 1zm12.8.2c-.3.7-1.3 1.5-2.4 1.7-1.6.3-1.7.1-.5-1.3 1.6-1.9 3.4-2.1 2.9-.4zm-129.3.8c.4.6-.6 1-2.2 1-2.2 0-2.5-.2-1.3-1 1.9-1.2 2.7-1.2 3.5 0zm54.2 11.7c-.2 2.2.3 2.9 2.1 3.1 2.6.4 2.7 1.1.7 3.8-1.8 2.4-1.9 5.4-.1 7.9.7 1.1 1.6 3.2 1.9 4.6.8 3.3 4.4 7.9 6.2 7.9.8 0 1.7-.9 2-2 .3-1.1 1.4-2 2.4-2s2.8-1.1 4.1-2.6c2.4-2.5 2.4-2.6.9-6.9-1.4-3.8-1.4-4.7-.3-5.6 2.8-2.3 4.4-.3 3.7 4.8-.5 4.5-.3 5.2 3.1 9.1 3.4 4.2 3.5 4.6 3 10-.9 8.7 1.2 25.6 4.3 33.6l2.6 7-3.9 3.3c-3.3 2.7-3.7 3.5-2.8 5 .9 1.4 2.2 1.7 5.7 1.5 3.8-.2 4.6 0 5.2 1.8.3 1.1 1.3 2 2.1 2 3 0 11.1 4.6 16.9 9.6 3.3 2.8 7.8 6.1 10 7.2 6 3.1 10.2 6.9 9 8-2 1.9-13.8 4.3-18.5 3.7-6.7-.9-9.8-1.3-17.4-2.1-7.3-.7-17.7-4.3-20.8-7.1-1-.9-3.8-1.7-6.4-1.8-3.1-.2-5.2-.9-6.9-2.5-2.8-2.6-3.5-6.3-1-5.4 1 .4 1.5 0 1.5-1.5 0-1.2-.6-2.1-1.5-2.1-1.7 0-1.9-1.8-.6-5.2.8-2.1.4-5.6-2.5-20.6-.5-2.3-.2-3.8 1-5.1 1.1-1.2 1.5-2.7 1.1-4.3-.5-1.8-.2-2.7.9-3.1 2.6-1 1.8-4.1-2-7.8-2-1.8-4-4.1-4.4-5-1.7-3-4.1-16.8-3.4-19.4.3-1.4.3-3.3-.1-4.2-1.6-3.8-1.2-10.8 1.1-19.1.6-2.2 1.3-1.3 1.1 1.5zM376 693c0 .5-.7 1-1.6 1-.8 0-1.2-.5-.9-1 .3-.6 1-1 1.6-1 .5 0 .9.4.9 1zm4.4.8c-.1.7-.2 2.1-.2 3.3-.3 3.1-2.2 1.2-2.2-2.2 0-2 .4-2.9 1.3-2.7.6.3 1.2 1 1.1 1.6zM261 698c-.6 1.1-1.5 2-2 2-.6 0-1-.9-1-2 0-1.3.7-2 2-2 1.8 0 1.9.3 1 2zm25.2 3.1l-.8 3.4-1.3-2.4c-1.2-2.1-1.1-2.6.5-3.8 2.4-1.7 2.7-1.2 1.6 2.8zm94.8 7.7c0 3.3-.4 5.1-1 4.7-.5-.3-1-3.4-1-6.8 0-4.4.3-5.8 1-4.7.5.8 1 3.9 1 6.8zm-136 .6c0 4.3.4 5.3 4 8.8 3.6 3.6 4 4.5 4.4 10.3.3 3.5.1 6.7-.4 7-.5.3-3.9.8-7.5 1.2-7.9.7-10.1 2.6-6.6 5.4 1.3 1 2.8 1.6 3.5 1.2.6-.4 3.2-.8 5.9-.9 3.7 0 4.7.3 4.7 1.5 0 3.4-2.1 4.1-12.5 4.5-2.9.1-3-.1-4.1-6.4-.6-3.6-.9-11.2-.6-17 .4-9.1.8-11.1 3.1-15 1.5-2.5 3.1-5.4 3.5-6.5 1.1-3.1 2.6.1 2.6 5.9zm19.6-1.2c.4.5.1 1.5-.5 2.1-.6.6-1.1 2.8-1.1 4.8 0 3 .6 4.2 3.1 6.2 1.8 1.4 3.4 3.7 3.8 5.7 1.3 6.7 7.1 6.2 7.1-.5 0-2.2 1-4.5 2.7-6.5 2.4-3 2.5-3.4 1.4-6.7-.7-1.9-1.1-3.5-.9-3.6.1-.1 1.2-.7 2.3-1.3 1.6-.9 2.4-.6 4.6 1.6 3.2 3.1 3.5 7.6.8 10.5-1.5 1.7-2.1 4.9-3 16.5-.9 10.1-1.7 15-2.7 16.3-1.4 1.6-1.4 2.1.2 5.3 1.3 2.8 2.1 3.4 3.4 2.8 4.4-1.9 7.8-1.6 10.9 1 1.7 1.4 3.9 2.6 5 2.6 1 0 2.8.7 4 1.5 1.2.9 3.5 1.4 5.2 1.3 1.7-.1 3.8.5 4.8 1.4 2.9 2.7 16.7 9.5 18.1 9.1.6-.3 1.2-.1 1.2.4s-2.4 1.7-5.3 2.6c-4.6 1.5-10.4 1.8-28.2 1.8-3.8 0-11.2-1.3-19-3.4-6.1-1.7-12-1.2-14.9 1.2-1.7 1.4-6.8-1-9.7-4.7-1.7-2.3-2-3.5-1.4-7.6 1.7-13.1 2.1-30.1 1-43.7-.5-5.7-.3-8.4.9-11.3.9-2.1 1.6-4.6 1.6-5.6 0-1.3.6-1.7 2-1.3 1.1.3 2.3 1 2.6 1.5zm120.3 6c.1 3.4 0 6-.2 5.8-.9-1-1.6-13.1-.8-12.6.4.3.9 3.3 1 6.8zM376 710c0 .5-.7.7-1.5.4-.8-.4-1.5-.8-1.5-1 0-.2.7-.4 1.5-.4s1.5.4 1.5 1zm6 10.6c0 1.6-1.6 1.9-2.5.4-.8-1.3.4-3.2 1.6-2.5.5.4.9 1.3.9 2.1zm-13 20.9c-.5 5.5-.9 10.2-1 10.5 0 .9-20.4-.1-22.2-1.1-.9-.5-2.7-.5-4 0-2.9 1-8.3-.4-10.9-3-2.1-2.1-3.4-2.2-20.4-1.8-23.4.5-21 .9-21-3.1 0-3.3.2-3.5 3.5-3.6 1.9 0 5.1-.3 7-.7 3.2-.6 16.2-1.8 20-1.8.8 0 5.5-.8 10.4-1.7 7.4-1.3 9.1-2 10.4-4.1.9-1.4 2.1-3 2.7-3.4.5-.4 6.1-.6 12.4-.5 9.4.2 11.5 0 12-1.2 1.2-3.5 1.9 6.3 1.1 15.5zm13-15c0 .8-.4 1.5-1 1.5-.5 0-1-.7-1-1.5s.5-1.5 1-1.5c.6 0 1 .7 1 1.5zm3.7.7c-.3.8-.6.5-.6-.6-.1-1.1.2-1.7.5-1.3.3.3.4 1.2.1 1.9zm1 15.7c.2 6.6.7 13.1 1.3 14.6 1.4 3.7 1.2 8-.3 9.4-.8.6-1.7.8-2 .5-.3-.4-2-.8-3.8-1-2.4-.3-3-.1-2.5 1.1.3.9 0 1.5-1 1.5-.8 0-1.7-.7-2-1.5-.8-2.1 1.6-4.7 3.7-4.2 1 .3 2-.2 2.4-1.1.4-1.2.8-1.3 1.7-.4 1.9 1.9 3.1 1.4 2.4-1.1-2.1-7-2.7-32.1-.8-30.2.3.3.7 5.9.9 12.4zm78-1.3c-.3.3-1.2.4-1.9.1-.8-.3-.5-.6.6-.6 1.1-.1 1.7.2 1.3.5zm-328.6 4c.9.3 8.8 0 17.5-.7 9.3-.6 22.2-.8 31-.4l15.1.7 1.2 3.8c1.8 5.9 1.6 6.3-2.6 5.5-2.1-.3-5.6-1.5-7.8-2.5-3.7-1.8-13.6-3.3-28-4.4-3.3-.3-10.9.1-17 .8-10.5 1.2-11.1 1.1-16.4-1-5.1-2.1-5.3-2.3-2.5-2.6 2.8-.4 5.9-.1 9.5.8zM82 746.9c0 .5-1.8 1.1-4.1 1.5-2.2.4-5 1.3-6.2 2-5 3.1-18.9 2.5-19.9-.9-.2-.6 2.4-1.5 5.7-2.1 7.2-1.4 24.5-1.8 24.5-.5zm14.3.8c-1.3.2-3.3.2-4.5 0-1.3-.2-.3-.4 2.2-.4s3.5.2 2.3.4zm230.8 4c3.6 3.1 7 3.6 29.2 4.9l11.7.7v6.9c0 6.6.1 6.9 3.3 8.8 2.4 1.5 5 2 10 2 6.5 0 7.1-.2 9.9-3.2 2.5-2.7 2.9-3.8 2.7-7.7-.3-4.2-.1-4.5 2.5-5.2 1.9-.5 4.3-.2 7.6 1.1 6.1 2.4 33.6 5.2 43.4 4.3 8.9-.7 8.8-.8 8.8 13.1.1 10.1-.5 12.2-3.1 11-1.5-.7-8.6-1.4-28.6-3-5.3-.4-12.5-.2-17.4.5-6.6.9-8.9.8-11.5-.3-1.8-.7-8.2-1.9-14.2-2.6-6-.6-13-2-15.6-3.1-6.7-2.7-16.6-2.1-17.6 1-.4 1.1.8 1.3 5.9.8 5.3-.5 7.3-.2 12.1 1.9 3.7 1.5 7.8 2.4 11.5 2.5 10 .1 15.7 1.2 16.1 3 .4 2.4-11.7 3.3-32.1 2.4-14-.6-16.8-.5-20.2 1-3.4 1.4-6.2 1.5-19.5.9-15.8-.7-22-2-22-4.8 0-1.2 2.5-1.5 14.8-1.8l14.8-.3 5.2-3.4c6.4-4.1 6.4-5.9.2-8.2-2.5-.9-7.6-3.8-11.5-6.3-5.1-3.4-8-4.6-10.7-4.6-2.4 0-6.4-1.4-11.3-4-4.2-2.2-8.4-4-9.5-4-2.4 0-3.6-1.8-2.1-3.3.7-.7 6.9-1.7 13.9-2.3 20-1.7 19.7-1.7 23.3 1.3zm156.7 0c.4 1.5-8.2 1.8-13.9.6l-3.4-.7 3.5-.7c5.5-1.1 13.3-.6 13.8.8zm-19.1-.1c-.3.3-1.2.4-1.9.1-.8-.3-.5-.6.6-.6 1.1-.1 1.7.2 1.3.5zm-214.4 3.8c.9.7 1.7 2.5 1.7 4 0 2.5-1.3 3.5-2.4 1.7-.3-.5-2.2-1.2-4.2-1.6-2-.3-4.3-1.3-5-2-1.5-1.4-1.9-2.9-.6-2.2.4.3 1.6.1 2.7-.4 3-1.2 5.8-1 7.8.5zm201.5 1.2c1.2.4 2.2 1.2 2.2 1.9 0 1.2-14.5 2.8-16.3 1.8-3.3-1.9 8.8-5.1 14.1-3.7zM470 758c0 .5-2 1-4.5 1s-4.5-.5-4.5-1c0-.6 2-1 4.5-1s4.5.4 4.5 1zm-95 7.9c0 1.3-2.9 3.5-3.7 2.8-.7-.8 1.5-3.7 2.8-3.7.5 0 .9.4.9.9zm-127.9 2.3c3.1.9 3.8 1.5 3.7 3.4-.3 3.2 1.7 6.6 5.6 9.2 3.5 2.4 9.9 3 18.3 1.7 6.7-1.1 17.8 2.6 22.9 7.7 4.1 3.9 4.5 4 15 5.4 14.5 1.8 23.1 1.7 32.6-.2 6.5-1.3 9.1-1.4 13.6-.5 6.9 1.3 29.6 1.6 37.2.4 6.3-1 13.5-1 31 .1 6.9.4 16.2.7 20.8.7l8.2-.1v3.4c0 1.9.2 4 .5 4.8.4 1.1-1.2 1.2-9.2.4-6.6-.7-18.7-.6-36.9.2-23.8 1.1-27.4 1-30.1-.3-4.6-2.3-23.1-3.8-37.8-3.1-17.8.9-38.6-2-54.4-7.6-3-1-8.6-2.6-12.5-3.4-11.5-2.4-27.6-11.2-27.6-15.1 0-.7-.5-1.3-1.2-1.3-1.9 0-4.8-3.1-4.8-5.2s.1-2.1 5.1-.6zm172.7 20.5c-1.6.2-4 .2-5.5 0-1.6-.2-.3-.4 2.7-.4s4.3.2 2.8.4zM280 795.1c18.2 6.3 25.6 8.3 35.5 9.4 2.8.4 6.6 1 8.6 1.4 1.9.5 5.8.6 8.5.4 8.2-.6 31.5-.9 32.3-.3.5.3 1.3 1.5 2 2.7l1.2 2.3-12.3.1c-6.8.1-13.4.3-14.8.4-1.4.2-13.9.6-27.9 1-19.7.6-25.2.4-24.6-.5.6-.9.3-.9-1.4 0-1.2.6-3.4.9-4.9.7-2.6-.4-2.6-.5-.5-1.2 1.5-.5 2.3-1.8 2.8-4.6.6-3.2.2-4.3-2.2-7.4-1.5-1.9-3.2-3.5-3.8-3.5-.5 0-1.9-.8-3-1.7l-2-1.6 2 .8c1.1.4 3.1 1.1 4.5 1.6zM445.4 809c-1.3 1.3-23.7 2.2-27.3 1.2-2.1-.5-1.3-.8 3.4-1.3 11-1 25-1 23.9.1zm-30.9 1c.4.6-2.5 1-8.2.9-6.5-.1-7.9-.4-5.3-.9 5.3-1.1 12.8-1.1 13.5 0z"/><path d="M227.6 169.5c-1.1.8-1.7 1.7-1.4 2 .3.3 1.6-.3 2.9-1.4 2.7-2.3 1.4-2.8-1.5-.6zM321.5 350.3c-1 .8-1.5 1.9-1.1 2.5 1.1 1.8 5.3 1.4 6-.4 1.3-3.3-1.6-4.5-4.9-2.1zM250 572.1c0 1.1.5 1.7 1 1.4.6-.3 1-1.3 1-2.1s-.4-1.4-1-1.4c-.5 0-1 .9-1 2.1zM237.5 641.3c-.4 1-.5 2.1-.1 2.4 1 1 1.8-.4 1.3-2.4-.4-1.7-.4-1.7-1.2 0zM465.9 768.6c-1.1 1.4-1.1 1.8.6 3 2.2 1.6 3.9.5 3.3-2.2-.4-2.4-2.2-2.8-3.9-.8zM382.8 828.7c-4 .6-5.5 2.9-2.8 4.3 1.9 1 2 1.9 1.8 10.1-.1 5-.5 9.2-.9 9.5-.4.2-2.3-2.9-4.3-7s-5.4-9.4-7.6-11.9l-3.9-4.4-6.2.3c-7.7.3-9.4 1.7-4.7 3.7l3.5 1.5.2 11.7c.1 6.5.4 12.2.7 12.6.3.5-.2 2.3-1 4-2 3.9-1.4 4.9 2.9 4.9h3.3l-.4-14.5c-.2-8-.2-14.5 0-14.5.6 0 6.4 9.7 10.5 17.5 3.7 6.9 6.3 9.5 9.7 9.5 2.4 0 3.3-1.8 3.2-6.5 0-1.1.3-7 .7-13 .6-9.2 1.1-11.4 2.9-13.3 2.1-2.3 2.1-2.4.2-3.8-2-1.4-2.7-1.5-7.8-.7zM406 828.9c-.8.6-3.1 1.1-5 1.1-5 0-6.5 1.2-4.3 3.3 1.7 1.4 1.7 2.6.8 14.1-.9 10.9-1.3 12.8-3.3 14.9-3.3 3.5-1.6 4.2 10.3 4 11.3-.1 18.4-2 22.9-6.1 2.4-2.3 2.8-2.4 2.1-.7-2 5.3-2.7 5.2 24.3 5.8 6.9.1 12.3-7.7 10-14.5-1.7-5.1-4.9-7.7-10.7-8.8-12-2.3-15-8.6-4.6-9.5 2.9-.3 3.9.1 5.1 2.1 2.8 4.1 8.4 2.6 8.4-2.2 0-3.2-1.2-3.7-11.4-4.1-7.8-.3-9.6-.1-12.3 1.6-3.4 2.2-5.1 6.9-3.9 11.6.9 3.5 5.8 5.8 10.6 5 3.1-.5 4.2-.3 5.9 1.4 2.3 2.3 2.6 3.8 1.2 7.4-1.5 4-4.6 4.3-10.8 1.2-4.5-2.3-5.8-2.6-7.8-1.7l-2.5 1.1.6-5.7c.8-7.8-3.1-15.6-9.3-19-4.8-2.6-14-3.9-16.3-2.3zm13.1 6.7c3.7 3.5 5.4 10.8 3.9 16.3-1.3 4.8-6.1 8.9-11.4 9.8-3.2.5-3.7.3-4.7-2.3-1.5-3.8.1-23.5 2.1-25.9 1.9-2.3 6.6-1.2 10.1 2.1zM300.7 830.7c-2.6.7-1.5 2.7 1.6 3.1 1.5.2 2.7.7 2.7 1.2s-1.6 3.5-3.5 6.7c-1.9 3.1-4.4 8.1-5.6 11-1.2 2.9-2.5 5.3-2.9 5.3-1.1 0-11-16.5-11-18.3 0-.8 1.6-2.7 3.5-4.1 2-1.5 3.3-3.2 3-3.7-.8-1.2-18.6-1.1-20.5.1-1.3.9-1.2 1.3.6 2.8 1.2.9 2.9 3.2 3.9 5.1 1.6 3.2 1.6 3.4-.3 5.5-1.1 1.1-3.2 4.3-4.7 7.1-3.4 6-3.4 6-4 5.3-.6-.6-4.6-12.1-7.1-20.1l-1.7-5.8-7.1.3c-5.4.2-7.1.7-7.1 1.7 0 .8 1.4 1.8 3.1 2.3 2.9.7 3.4 1.5 6.8 11.5 2 5.9 4.8 12.5 6.2 14.6 2.2 3.3 3 3.8 5.7 3.5 2.4-.2 3.6-1.1 4.8-3.4 3.1-6.3 8.2-13.5 9.3-13.1.6.2 3.6 3.9 6.7 8.2 3.1 4.3 6.4 8.2 7.3 8.7 2.8 1.6 6.4-2.2 11.7-12.7 2.8-5.5 6.7-12.6 8.6-15.7 1.9-3.1 3.2-6.1 2.8-6.7-.6-1.1-9.2-1.3-12.8-.4zM319.7 830.6c-.4.4 0 1.5.9 2.5 1.4 1.5 1.4 2.2-.1 7.5-4.5 16.8-6.3 21.7-8.6 23.5-2 1.6-2.2 2-.9 2.9 1.8 1.2 6 1.3 7.9.1.7-.5 1.5-2.9 1.7-5.4.2-2.5 1-6.2 1.8-8.1 1.4-3.5 1.7-3.6 6.5-3.6 2.8 0 5.1.2 5.1.4 0 .1 1.1 3.4 2.5 7.2 1.4 3.8 2.2 7.7 1.9 8.6-.5 1.6.2 1.8 5.9 1.8 4.2 0 6.8-.5 7.6-1.3 1.3-1.6.5-2.7-2-2.7s-4.5-3.3-7.5-12.5c-4.6-14-6.5-18.5-8.4-19.5-2.5-1.3-13.3-2.4-14.3-1.4zm10.1 8.1c2.1 6.2 2 6.8-1.2 6.6-1.6-.1-3-.4-3.3-.6-.5-.6 2-9.7 2.7-9.7.3 0 1.1 1.7 1.8 3.7zM117.6 833.1c-2 1.6-2 1.6.2 2.8 2 1.1 2.2 1.9 2.2 9.9 0 4.8-.5 11.6-1 15.1-1.3 7.4-.4 9.1 4.4 9 1.7-.1 6 0 9.4.1 7.4.3 9.6-1.2 10.7-7.3.7-3.4.5-3.7-1.7-3.7-1.5 0-2.7.8-3.3 2.2-1.1 2.5-5 3.4-7.5 1.8-1.1-.6-1.4-2.4-1.3-6.1.3-6.6 1.6-8.1 4.4-5.1 2.7 3 3.9 2 3.9-3.2 0-5.6-.8-6.2-4.2-2.9-3.5 3.4-4.8 2.2-3.9-3.7.5-3.5 1.2-4.7 3.3-5.7 3.2-1.6 5.4-.9 6.2 2l.6 2.2 2.1-2.4c1.1-1.3 1.9-3.3 1.7-4.4-.3-1.8-1.2-2-12.2-2.1-9.7-.1-12.4.2-14 1.5zM9 834c-1.2.8-1.1 1.2.8 3.1 2.3 2.1 2.3 2.4 1.7 14.7-.3 7.1-1.1 13.2-1.8 14-.9 1.1-.7 1.7.6 2.7 2.5 1.8 12.4 2.8 14.8 1.4l2.1-1.1-2.2-2.3c-1.4-1.5-2.3-3.8-2.4-6.1-.1-3.3.2-3.8 2.9-4.6 12.4-3.8 14.5-5.9 14.5-14 0-4.9-.6-6-3.7-7.7-2.6-1.3-25.1-1.5-27.3-.1zm23 7.7c1.3 1.2 1.3 1.7-.1 4.1-1.4 2.6-5.1 3.6-8.6 2.4-1.4-.4-1.5-6.2-.1-7.9 1.2-1.5 6.7-.6 8.8 1.4zM46.5 834c-.3.6-.3 1.9 0 3.1 1 3.2-6.3 28-8.9 30.2-2.1 1.7-2.1 1.7-.2 3.2 2.2 1.6 9.3 2 11.5.6 1.7-1.1.7-4.1-1.2-4.1-3.1 0-3.8-2.5-2-7.6.9-2.7 1.8-5.1 2-5.3.2-.3 2.1-.4 4.2-.3 2.1.2 5-.2 6.4-.7 2.2-.8 2.8-.6 4.1 1.4.9 1.3 1.6 2.9 1.6 3.6 0 .6.7 2.6 1.6 4.5 1.3 2.7 1.4 3.7.4 4.9-1.9 2.3.5 4.5 4.9 4.5 6 0 6.7-1.1 4.3-6.1-1.1-2.4-2.6-6.2-3.2-8.4-3.5-11.4-7.7-20.9-9.9-22.6-1.7-1.4-4-1.9-8.7-1.9-3.4 0-6.6.5-6.9 1zm10.5 9.3c2.2 4.1 2.3 4.9 1 5.7-1.7 1-7.9 1-8.5 0-.4-.6.2-3 2.1-9.8.7-2.4 2.8-.7 5.4 4.1zM90.3 833.8c-4.6 1.4-10.1 7.7-11.8 13.5-2 7.1-.8 12.3 4 17.1 2.8 2.8 4.5 3.6 9.7 4.3 6.3.9 15.8-.1 16.8-1.7.3-.5.3-3.3 0-6.2l-.5-5.3-6 .3c-3.3.1-6.6.4-7.3.7-2.4.9-.2 2.5 3.4 2.5 2.8 0 3.5.4 3.2 1.7-.2 1.3-1.5 1.9-4.6 2.1-3.6.3-4.7-.1-7.2-2.7-2.6-2.6-3-3.7-3-8.5 0-4.9.4-5.9 3.5-9.2 3.4-3.6 3.5-3.7 9.3-3 4.7.5 6.2.4 7.2-.9 1.7-2.1.4-3.4-4.6-4.6-4.4-1-8.9-1-12.1-.1zM194 840.2c-7.1 1.9-7.8 6.6-2.1 13.2 6.8 7.8 7.6 15.3 2.3 20.3-3.1 2.8-2.1 4.3 1.5 2.3 4.5-2.6 6.8-6.6 7.3-13.3.5-5.8.7-6.2 3-6.2 2.9 0 3.8-3.1 2-6.4-1.6-3-5-2.8-5 .3 0 4-1.8 4-5.5-.1-4.3-4.6-4.4-7.9-.2-7.5 1.8.2 2.7-.2 2.7-1.2 0-2-1.9-2.4-6-1.4z"/><path d="M176 856.2c-4.9 5.2 3.7 15 9.6 11 3.3-2.2 4.5-9.3 2-11.8-2.3-2.3-9.2-1.8-11.6.8zm7.1 6.1c-1.5 1.5-3.1-.2-3.1-3.1l.1-2.7 2 2.4c1.2 1.5 1.6 2.8 1 3.4zM470.7 860.2c-3.9 2.9 1.2 6.8 6.9 5.4 2-.5 2.5-1.2 2.2-3.4-.3-2.3-.8-2.7-3.8-3-1.9-.2-4.3.3-5.3 1z"/></svg>