<svg xmlns="http://www.w3.org/2000/svg" viewBox="0 0 32 32">
    <path id="netflix" d="M22.93749,27.76071c-.34124-.03993-.6802-.08124-1.01958-.11879q-.41233-.04563-.82549-.08375c-.34052-.03139-.68122-.06134-1.02218-.08751q-.43326-.03327-.86732-.056c-.32415-.01669-.64858-.02839-.973-.0391-.04393-.00145-.0524-.02356-.06388-.05608q-.44547-1.26162-.89228-2.52278-1.24408-3.51639-2.488-7.03282c-.05064-.14314-.10113-.28632-.16244-.42817V27.37577c-1.54761.058-3.08245.19394-4.617.39107V4.23456h.07008q2.23417,0,4.46836-.0014a.09028.09028,0,0,1,.1014.0726Q16.20118,8.709,17.759,13.11133q.26874.7599.53751,1.51978a.068.068,0,0,0,.02554.03552V4.24308h4.61543Z" fill="#262626"/>
</svg>
